<?xml version="1.0" encoding="UTF-8" standalone="no"?>
<!DOCTYPE svg PUBLIC "-//W3C//DTD SVG 1.1//EN"
 "http://www.w3.org/Graphics/SVG/1.1/DTD/svg11.dtd">
<!-- Generated by graphviz version 2.36.0 (20140111.2315)
 -->
<!-- Title: G Pages: 1 -->
<svg width="100%" height="100%"
 viewBox="0.00 0.00 271.30 240.17" xmlns="http://www.w3.org/2000/svg" xmlns:xlink="http://www.w3.org/1999/xlink">
<g id="graph0" class="graph" transform="scale(1 1) rotate(0) translate(4 236.175)">
<title>G</title>
<!-- 0 -->
<g id="node1" class="node"><title>0</title>
<ellipse fill="cadetblue" stroke="black" cx="63.958" cy="-87.2427" rx="18" ry="18"/>
</g>
<!-- 5 -->
<g id="node6" class="node"><title>5</title>
<ellipse fill="cadetblue" stroke="black" cx="37.8405" cy="-212.597" rx="18" ry="18"/>
</g>
<!-- 0&#45;&#45;5 -->
<g id="edge1" class="edge"><title>0&#45;&#45;5</title>
<path fill="none" stroke="black" stroke-width="2" d="M60.2714,-104.937C55.3219,-128.693 46.5758,-170.67 41.5929,-194.587"/>
</g>
<!-- 6 -->
<g id="node7" class="node"><title>6</title>
<ellipse fill="cadetblue" stroke="black" cx="197.42" cy="-91.6055" rx="18" ry="18"/>
</g>
<!-- 0&#45;&#45;6 -->
<g id="edge2" class="edge"><title>0&#45;&#45;6</title>
<path fill="none" stroke="black" stroke-width="2" d="M82.0668,-87.5803C97.7238,-87.8965 120.962,-88.4243 141.208,-89.1179 153.899,-89.5528 168.197,-90.1875 179.196,-90.7069"/>
</g>
<!-- 7 -->
<g id="node8" class="node"><title>7</title>
<ellipse fill="cadetblue" stroke="black" cx="141.123" cy="-111.438" rx="18" ry="18"/>
</g>
<!-- 0&#45;&#45;7 -->
<g id="edge3" class="edge"><title>0&#45;&#45;7</title>
<path fill="none" stroke="black" stroke-width="2" d="M81.468,-92.7329C94.0966,-96.6926 111.07,-102.015 123.683,-105.969"/>
</g>
<!-- 8 -->
<g id="node9" class="node"><title>8</title>
<ellipse fill="cadetblue" stroke="black" cx="124.589" cy="-155.442" rx="18" ry="18"/>
</g>
<!-- 0&#45;&#45;8 -->
<g id="edge4" class="edge"><title>0&#45;&#45;8</title>
<path fill="none" stroke="black" stroke-width="2" d="M75.9368,-100.717C86.4283,-112.518 101.613,-129.598 112.219,-141.528"/>
</g>
<!-- 1 -->
<g id="node2" class="node"><title>1</title>
<ellipse fill="cadetblue" stroke="black" cx="18" cy="-139.793" rx="18" ry="18"/>
</g>
<!-- 1&#45;&#45;5 -->
<g id="edge5" class="edge"><title>1&#45;&#45;5</title>
<path fill="none" stroke="black" stroke-width="2" d="M22.8028,-157.417C25.9222,-168.863 29.9713,-183.721 33.0819,-195.135"/>
</g>
<!-- 1&#45;&#45;7 -->
<g id="edge6" class="edge"><title>1&#45;&#45;7</title>
<path fill="none" stroke="black" stroke-width="2" d="M35.6406,-135.731C59.0463,-130.34 100.126,-120.879 123.515,-115.493"/>
</g>
<!-- 1&#45;&#45;8 -->
<g id="edge7" class="edge"><title>1&#45;&#45;8</title>
<path fill="none" stroke="black" stroke-width="2" d="M36.0814,-142.448C55.8007,-145.343 87.1615,-149.947 106.775,-152.827"/>
</g>
<!-- 2 -->
<g id="node3" class="node"><title>2</title>
<ellipse fill="cadetblue" stroke="black" cx="151.719" cy="-18" rx="18" ry="18"/>
</g>
<!-- 2&#45;&#45;6 -->
<g id="edge8" class="edge"><title>2&#45;&#45;6</title>
<path fill="none" stroke="black" stroke-width="2" d="M161.411,-33.6098C169.219,-46.1853 180.137,-63.7688 187.899,-76.2706"/>
</g>
<!-- 2&#45;&#45;7 -->
<g id="edge9" class="edge"><title>2&#45;&#45;7</title>
<path fill="none" stroke="black" stroke-width="2" d="M149.676,-36.0157C147.8,-52.5614 145.034,-76.9491 143.16,-93.4773"/>
</g>
<!-- 2&#45;&#45;8 -->
<g id="edge10" class="edge"><title>2&#45;&#45;8</title>
<path fill="none" stroke="black" stroke-width="2" d="M143.317,-34.3112C134.575,-52.523 121.754,-83.1519 118.803,-111.353 117.888,-120.106 118.935,-129.807 120.378,-137.875"/>
</g>
<!-- 3 -->
<g id="node4" class="node"><title>3</title>
<ellipse fill="cadetblue" stroke="black" cx="193.094" cy="-214.175" rx="18" ry="18"/>
</g>
<!-- 3&#45;&#45;6 -->
<g id="edge11" class="edge"><title>3&#45;&#45;6</title>
<path fill="none" stroke="black" stroke-width="2" d="M193.733,-196.089C194.55,-172.915 195.96,-132.975 196.779,-109.765"/>
</g>
<!-- 3&#45;&#45;7 -->
<g id="edge12" class="edge"><title>3&#45;&#45;7</title>
<path fill="none" stroke="black" stroke-width="2" d="M184.744,-197.668C174.988,-178.383 158.954,-146.685 149.281,-127.565"/>
</g>
<!-- 3&#45;&#45;8 -->
<g id="edge13" class="edge"><title>3&#45;&#45;8</title>
<path fill="none" stroke="black" stroke-width="2" d="M179.231,-202.289C167.346,-192.099 150.311,-177.495 138.432,-167.31"/>
</g>
<!-- 4 -->
<g id="node5" class="node"><title>4</title>
<ellipse fill="cadetblue" stroke="black" cx="245.301" cy="-153.259" rx="18" ry="18"/>
</g>
<!-- 4&#45;&#45;6 -->
<g id="edge14" class="edge"><title>4&#45;&#45;6</title>
<path fill="none" stroke="black" stroke-width="2" d="M234.196,-138.96C226.46,-128.999 216.187,-115.771 208.465,-105.828"/>
</g>
<!-- 4&#45;&#45;7 -->
<g id="edge15" class="edge"><title>4&#45;&#45;7</title>
<path fill="none" stroke="black" stroke-width="2" d="M228.563,-146.54C209.237,-138.782 177.619,-126.089 158.166,-118.279"/>
</g>
<!-- 4&#45;&#45;8 -->
<g id="edge16" class="edge"><title>4&#45;&#45;8</title>
<path fill="none" stroke="black" stroke-width="2" d="M227.229,-153.586C204.472,-153.998 165.599,-154.701 142.785,-155.113"/>
</g>
<!-- 5&#45;&#45;8 -->
<g id="edge17" class="edge"><title>5&#45;&#45;8</title>
<path fill="none" stroke="black" stroke-width="2" d="M52.951,-202.641C68.7761,-192.215 93.4918,-175.931 109.361,-165.475"/>
</g>
<!-- 6&#45;&#45;8 -->
<g id="edge18" class="edge"><title>6&#45;&#45;8</title>
<path fill="none" stroke="black" stroke-width="2" d="M183.906,-103.509C176.02,-110.449 165.876,-119.368 156.846,-127.28 150.807,-132.571 144.123,-138.41 138.412,-143.393"/>
</g>
</g>
</svg>

