<?xml version="1.0" encoding="UTF-8" standalone="no"?>
<!DOCTYPE svg PUBLIC "-//W3C//DTD SVG 1.1//EN"
 "http://www.w3.org/Graphics/SVG/1.1/DTD/svg11.dtd">
<!-- Generated by graphviz version 2.36.0 (20140111.2315)
 -->
<!-- Title: G Pages: 1 -->
<svg width="100%" height="100%"
 viewBox="0.00 0.00 226.12 198.92" xmlns="http://www.w3.org/2000/svg" xmlns:xlink="http://www.w3.org/1999/xlink">
<g id="graph0" class="graph" transform="scale(1 1) rotate(0) translate(4 194.917)">
<title>G</title>
<!-- 0 -->
<g id="node1" class="node"><title>0</title>
<ellipse fill="cadetblue" stroke="black" cx="134.34" cy="-18" rx="18" ry="18"/>
</g>
<!-- 4 -->
<g id="node5" class="node"><title>4</title>
<ellipse fill="cadetblue" stroke="black" cx="200.117" cy="-84.3872" rx="18" ry="18"/>
</g>
<!-- 0&#45;&#45;4 -->
<g id="edge1" class="edge"><title>0&#45;&#45;4</title>
<path fill="none" stroke="black" stroke-width="2" d="M147.022,-30.8001C158.52,-42.4051 175.399,-59.4398 187.023,-71.172"/>
</g>
<!-- 5 -->
<g id="node6" class="node"><title>5</title>
<ellipse fill="cadetblue" stroke="black" cx="30.9217" cy="-83.4644" rx="18" ry="18"/>
</g>
<!-- 0&#45;&#45;5 -->
<g id="edge2" class="edge"><title>0&#45;&#45;5</title>
<path fill="none" stroke="black" stroke-width="2" d="M123.428,-32.6816C115.289,-42.8007 103.398,-55.9599 90.552,-64.7578 78.0195,-73.341 61.3607,-78.1309 48.8368,-80.7095"/>
</g>
<!-- 6 -->
<g id="node7" class="node"><title>6</title>
<ellipse fill="cadetblue" stroke="black" cx="151.478" cy="-97.6409" rx="18" ry="18"/>
</g>
<!-- 0&#45;&#45;6 -->
<g id="edge3" class="edge"><title>0&#45;&#45;6</title>
<path fill="none" stroke="black" stroke-width="2" d="M138.143,-35.6749C140.983,-48.8728 144.847,-66.8295 147.685,-80.0154"/>
</g>
<!-- 1 -->
<g id="node2" class="node"><title>1</title>
<ellipse fill="cadetblue" stroke="black" cx="184.141" cy="-172.917" rx="18" ry="18"/>
</g>
<!-- 1&#45;&#45;4 -->
<g id="edge4" class="edge"><title>1&#45;&#45;4</title>
<path fill="none" stroke="black" stroke-width="2" d="M187.374,-155.002C190.146,-139.642 194.118,-117.628 196.889,-102.276"/>
</g>
<!-- 1&#45;&#45;6 -->
<g id="edge5" class="edge"><title>1&#45;&#45;6</title>
<path fill="none" stroke="black" stroke-width="2" d="M176.892,-156.211C171.479,-143.736 164.115,-126.764 158.707,-114.3"/>
</g>
<!-- 7 -->
<g id="node8" class="node"><title>7</title>
<ellipse fill="cadetblue" stroke="black" cx="91.2664" cy="-160.3" rx="18" ry="18"/>
</g>
<!-- 1&#45;&#45;7 -->
<g id="edge6" class="edge"><title>1&#45;&#45;7</title>
<path fill="none" stroke="black" stroke-width="2" d="M166.234,-170.484C149.788,-168.25 125.547,-164.957 109.119,-162.726"/>
</g>
<!-- 2 -->
<g id="node3" class="node"><title>2</title>
<ellipse fill="cadetblue" stroke="black" cx="74.9261" cy="-48.82" rx="18" ry="18"/>
</g>
<!-- 2&#45;&#45;5 -->
<g id="edge7" class="edge"><title>2&#45;&#45;5</title>
<path fill="none" stroke="black" stroke-width="2" d="M60.5174,-60.1638C55.6046,-64.0317 50.116,-68.3528 45.2125,-72.2134"/>
</g>
<!-- 2&#45;&#45;6 -->
<g id="edge8" class="edge"><title>2&#45;&#45;6</title>
<path fill="none" stroke="black" stroke-width="2" d="M90.4176,-58.6996C103.786,-67.2256 122.986,-79.4699 136.271,-87.9426"/>
</g>
<!-- 2&#45;&#45;7 -->
<g id="edge9" class="edge"><title>2&#45;&#45;7</title>
<path fill="none" stroke="black" stroke-width="2" d="M71.5474,-66.6565C69.697,-79.1795 68.2188,-96.2833 70.609,-111.177 72.4855,-122.869 77.6499,-135.15 82.3451,-144.508"/>
</g>
<!-- 8 -->
<g id="node9" class="node"><title>8</title>
<ellipse fill="cadetblue" stroke="black" cx="92.9287" cy="-111.295" rx="18" ry="18"/>
</g>
<!-- 2&#45;&#45;8 -->
<g id="edge10" class="edge"><title>2&#45;&#45;8</title>
<path fill="none" stroke="black" stroke-width="2" d="M79.9408,-66.2228C82.4378,-74.8881 85.4476,-85.3333 87.9408,-93.9857"/>
</g>
<!-- 3 -->
<g id="node4" class="node"><title>3</title>
<ellipse fill="cadetblue" stroke="black" cx="18" cy="-163.97" rx="18" ry="18"/>
</g>
<!-- 3&#45;&#45;5 -->
<g id="edge11" class="edge"><title>3&#45;&#45;5</title>
<path fill="none" stroke="black" stroke-width="2" d="M20.8678,-146.103C23.0091,-132.762 25.9226,-114.61 28.062,-101.281"/>
</g>
<!-- 3&#45;&#45;7 -->
<g id="edge12" class="edge"><title>3&#45;&#45;7</title>
<path fill="none" stroke="black" stroke-width="2" d="M36.1108,-163.063C47.3827,-162.498 61.8296,-161.775 73.11,-161.21"/>
</g>
<!-- 3&#45;&#45;8 -->
<g id="edge13" class="edge"><title>3&#45;&#45;8</title>
<path fill="none" stroke="black" stroke-width="2" d="M32.8035,-153.563C45.9395,-144.329 65.0292,-130.909 78.1559,-121.681"/>
</g>
<!-- 4&#45;&#45;8 -->
<g id="edge14" class="edge"><title>4&#45;&#45;8</title>
<path fill="none" stroke="black" stroke-width="2" d="M182.656,-78.64C173.437,-76.2394 161.902,-74.2314 151.48,-75.3209 133.919,-77.1568 117.093,-88.8936 106.022,-98.4698"/>
</g>
<!-- 5&#45;&#45;7 -->
<g id="edge15" class="edge"><title>5&#45;&#45;7</title>
<path fill="none" stroke="black" stroke-width="2" d="M42.2721,-97.9167C53.0608,-111.654 69.1951,-132.197 79.9669,-145.913"/>
</g>
<!-- 5&#45;&#45;8 -->
<g id="edge16" class="edge"><title>5&#45;&#45;8</title>
<path fill="none" stroke="black" stroke-width="2" d="M47.5384,-90.9226C56.4351,-94.9157 67.3625,-99.8203 76.2661,-103.817"/>
</g>
<!-- 6&#45;&#45;7 -->
<g id="edge17" class="edge"><title>6&#45;&#45;7</title>
<path fill="none" stroke="black" stroke-width="2" d="M139.002,-110.624C128.806,-121.235 114.445,-136.18 104.142,-146.902"/>
</g>
<!-- 6&#45;&#45;8 -->
<g id="edge18" class="edge"><title>6&#45;&#45;8</title>
<path fill="none" stroke="black" stroke-width="2" d="M133.911,-101.738C126.501,-103.466 117.892,-105.474 110.483,-107.201"/>
</g>
<!-- 7&#45;&#45;8 -->
<g id="edge19" class="edge"><title>7&#45;&#45;8</title>
<path fill="none" stroke="black" stroke-width="2" d="M91.8854,-142.053C92.0257,-137.916 92.1746,-133.525 92.3147,-129.395"/>
</g>
</g>
</svg>

