<?xml version="1.0" encoding="UTF-8" standalone="no"?>
<!DOCTYPE svg PUBLIC "-//W3C//DTD SVG 1.1//EN"
 "http://www.w3.org/Graphics/SVG/1.1/DTD/svg11.dtd">
<!-- Generated by graphviz version 2.36.0 (20140111.2315)
 -->
<!-- Title: G Pages: 1 -->
<svg width="100%" height="100%"
 viewBox="0.00 0.00 216.26 190.43" xmlns="http://www.w3.org/2000/svg" xmlns:xlink="http://www.w3.org/1999/xlink">
<g id="graph0" class="graph" transform="scale(1 1) rotate(0) translate(4 186.432)">
<title>G</title>
<!-- 0 -->
<g id="node1" class="node"><title>0</title>
<ellipse fill="cadetblue" stroke="black" cx="60.3974" cy="-18" rx="18" ry="18"/>
</g>
<!-- 4 -->
<g id="node5" class="node"><title>4</title>
<ellipse fill="cadetblue" stroke="black" cx="70.8654" cy="-92.8947" rx="18" ry="18"/>
</g>
<!-- 0&#45;&#45;4 -->
<g id="edge1" class="edge"><title>0&#45;&#45;4</title>
<path fill="none" stroke="black" stroke-width="2" d="M62.9314,-36.1299C64.5773,-47.9052 66.7136,-63.1898 68.3547,-74.9318"/>
</g>
<!-- 5 -->
<g id="node6" class="node"><title>5</title>
<ellipse fill="cadetblue" stroke="black" cx="114.886" cy="-78.432" rx="18" ry="18"/>
</g>
<!-- 0&#45;&#45;5 -->
<g id="edge2" class="edge"><title>0&#45;&#45;5</title>
<path fill="none" stroke="black" stroke-width="2" d="M72.4902,-31.4118C81.5198,-41.4264 93.8054,-55.0521 102.827,-65.0577"/>
</g>
<!-- 6 -->
<g id="node7" class="node"><title>6</title>
<ellipse fill="cadetblue" stroke="black" cx="18" cy="-85.3644" rx="18" ry="18"/>
</g>
<!-- 0&#45;&#45;6 -->
<g id="edge3" class="edge"><title>0&#45;&#45;6</title>
<path fill="none" stroke="black" stroke-width="2" d="M50.7768,-33.286C43.9359,-44.1554 34.7746,-58.7116 27.8768,-69.6714"/>
</g>
<!-- 7 -->
<g id="node8" class="node"><title>7</title>
<ellipse fill="cadetblue" stroke="black" cx="139.214" cy="-23.7777" rx="18" ry="18"/>
</g>
<!-- 0&#45;&#45;7 -->
<g id="edge4" class="edge"><title>0&#45;&#45;7</title>
<path fill="none" stroke="black" stroke-width="2" d="M78.6777,-19.34C91.4108,-20.2734 108.322,-21.5131 121.033,-22.4449"/>
</g>
<!-- 1 -->
<g id="node2" class="node"><title>1</title>
<ellipse fill="cadetblue" stroke="black" cx="48.8489" cy="-164.432" rx="18" ry="18"/>
</g>
<!-- 1&#45;&#45;4 -->
<g id="edge5" class="edge"><title>1&#45;&#45;4</title>
<path fill="none" stroke="black" stroke-width="2" d="M54.1785,-147.115C57.6146,-135.95 62.0672,-121.482 65.5086,-110.3"/>
</g>
<!-- 1&#45;&#45;6 -->
<g id="edge6" class="edge"><title>1&#45;&#45;6</title>
<path fill="none" stroke="black" stroke-width="2" d="M42.1552,-147.275C36.9453,-133.922 29.7541,-115.491 24.5747,-102.216"/>
</g>
<!-- 8 -->
<g id="node9" class="node"><title>8</title>
<ellipse fill="cadetblue" stroke="black" cx="131.598" cy="-149.294" rx="18" ry="18"/>
</g>
<!-- 1&#45;&#45;8 -->
<g id="edge7" class="edge"><title>1&#45;&#45;8</title>
<path fill="none" stroke="black" stroke-width="2" d="M66.8043,-161.147C80.6841,-158.608 99.8068,-155.11 113.678,-152.572"/>
</g>
<!-- 2 -->
<g id="node3" class="node"><title>2</title>
<ellipse fill="cadetblue" stroke="black" cx="190.26" cy="-67.9353" rx="18" ry="18"/>
</g>
<!-- 2&#45;&#45;5 -->
<g id="edge8" class="edge"><title>2&#45;&#45;5</title>
<path fill="none" stroke="black" stroke-width="2" d="M172.397,-70.4229C160.469,-72.084 144.837,-74.261 132.881,-75.9259"/>
</g>
<!-- 2&#45;&#45;7 -->
<g id="edge9" class="edge"><title>2&#45;&#45;7</title>
<path fill="none" stroke="black" stroke-width="2" d="M176.581,-56.1018C169.257,-49.7662 160.261,-41.9843 152.931,-35.6438"/>
</g>
<!-- 2&#45;&#45;8 -->
<g id="edge10" class="edge"><title>2&#45;&#45;8</title>
<path fill="none" stroke="black" stroke-width="2" d="M179.5,-82.8577C168.916,-97.5375 152.85,-119.819 142.289,-134.466"/>
</g>
<!-- 3 -->
<g id="node4" class="node"><title>3</title>
<ellipse fill="cadetblue" stroke="black" cx="186.61" cy="-111.94" rx="18" ry="18"/>
</g>
<!-- 3&#45;&#45;5 -->
<g id="edge11" class="edge"><title>3&#45;&#45;5</title>
<path fill="none" stroke="black" stroke-width="2" d="M169.975,-104.168C158.388,-98.7549 142.998,-91.5654 131.431,-86.1614"/>
</g>
<!-- 3&#45;&#45;7 -->
<g id="edge12" class="edge"><title>3&#45;&#45;7</title>
<path fill="none" stroke="black" stroke-width="2" d="M177.917,-95.7694C169.365,-79.8621 156.385,-55.7172 147.852,-39.8454"/>
</g>
<!-- 3&#45;&#45;8 -->
<g id="edge13" class="edge"><title>3&#45;&#45;8</title>
<path fill="none" stroke="black" stroke-width="2" d="M171.578,-122.147C163.815,-127.418 154.372,-133.83 146.612,-139.099"/>
</g>
<!-- 4&#45;&#45;6 -->
<g id="edge14" class="edge"><title>4&#45;&#45;6</title>
<path fill="none" stroke="black" stroke-width="2" d="M52.9676,-90.3453C47.456,-89.5602 41.3898,-88.6961 35.8794,-87.9112"/>
</g>
<!-- 4&#45;&#45;7 -->
<g id="edge15" class="edge"><title>4&#45;&#45;7</title>
<path fill="none" stroke="black" stroke-width="2" d="M83.0949,-79.5085C88.0115,-74.2028 93.7698,-68.0831 99.104,-62.6487 107.935,-53.6521 118.14,-43.7689 126.047,-36.2195"/>
</g>
<!-- 4&#45;&#45;8 -->
<g id="edge16" class="edge"><title>4&#45;&#45;8</title>
<path fill="none" stroke="black" stroke-width="2" d="M84.344,-105.412C94.4084,-114.758 108.102,-127.474 118.157,-136.812"/>
</g>
<!-- 5&#45;&#45;6 -->
<g id="edge17" class="edge"><title>5&#45;&#45;6</title>
<path fill="none" stroke="black" stroke-width="2" d="M97.4492,-73.47C89.4172,-71.6624 79.7267,-70.1507 70.892,-70.5747 58.5109,-71.169 45.0649,-74.9736 34.8283,-78.5748"/>
</g>
<!-- 5&#45;&#45;8 -->
<g id="edge18" class="edge"><title>5&#45;&#45;8</title>
<path fill="none" stroke="black" stroke-width="2" d="M119.103,-96.3135C121.656,-107.138 124.898,-120.885 127.44,-131.664"/>
</g>
</g>
</svg>

