<?xml version="1.0" encoding="UTF-8" standalone="no"?>
<!DOCTYPE svg PUBLIC "-//W3C//DTD SVG 1.1//EN"
 "http://www.w3.org/Graphics/SVG/1.1/DTD/svg11.dtd">
<!-- Generated by graphviz version 2.36.0 (20140111.2315)
 -->
<!-- Title: G Pages: 1 -->
<svg width="100%" height="100%"
 viewBox="0.00 0.00 284.13 299.97" xmlns="http://www.w3.org/2000/svg" xmlns:xlink="http://www.w3.org/1999/xlink">
<g id="graph0" class="graph" transform="scale(1 1) rotate(0) translate(4 295.969)">
<title>G</title>
<!-- 0 -->
<g id="node1" class="node"><title>0</title>
<ellipse fill="cadetblue" stroke="black" cx="170.299" cy="-18" rx="18" ry="18"/>
</g>
<!-- 4 -->
<g id="node5" class="node"><title>4</title>
<ellipse fill="cadetblue" stroke="black" cx="258.126" cy="-65.4135" rx="18" ry="18"/>
</g>
<!-- 0&#45;&#45;4 -->
<g id="edge1" class="edge"><title>0&#45;&#45;4</title>
<path fill="none" stroke="black" stroke-width="2" d="M186.408,-26.6964C202.255,-35.2513 226.308,-48.2364 242.119,-56.7723"/>
</g>
<!-- 5 -->
<g id="node6" class="node"><title>5</title>
<ellipse fill="cadetblue" stroke="black" cx="18" cy="-116.252" rx="18" ry="18"/>
</g>
<!-- 0&#45;&#45;5 -->
<g id="edge2" class="edge"><title>0&#45;&#45;5</title>
<path fill="none" stroke="black" stroke-width="2" d="M155.139,-27.78C126.097,-46.5159 62.8985,-87.2869 33.5519,-106.219"/>
</g>
<!-- 6 -->
<g id="node7" class="node"><title>6</title>
<ellipse fill="cadetblue" stroke="black" cx="231.819" cy="-183.136" rx="18" ry="18"/>
</g>
<!-- 0&#45;&#45;6 -->
<g id="edge3" class="edge"><title>0&#45;&#45;6</title>
<path fill="none" stroke="black" stroke-width="2" d="M176.651,-35.0505C188.44,-66.6945 213.577,-134.171 225.409,-165.931"/>
</g>
<!-- 1 -->
<g id="node2" class="node"><title>1</title>
<ellipse fill="cadetblue" stroke="black" cx="64.7821" cy="-238.449" rx="18" ry="18"/>
</g>
<!-- 1&#45;&#45;5 -->
<g id="edge4" class="edge"><title>1&#45;&#45;5</title>
<path fill="none" stroke="black" stroke-width="2" d="M58.2773,-221.458C49.3394,-198.112 33.3583,-156.369 24.4496,-133.099"/>
</g>
<!-- 1&#45;&#45;6 -->
<g id="edge5" class="edge"><title>1&#45;&#45;6</title>
<path fill="none" stroke="black" stroke-width="2" d="M82.0288,-232.738C114.037,-222.138 182.29,-199.537 214.416,-188.899"/>
</g>
<!-- 7 -->
<g id="node8" class="node"><title>7</title>
<ellipse fill="cadetblue" stroke="black" cx="123.099" cy="-118.927" rx="18" ry="18"/>
</g>
<!-- 1&#45;&#45;7 -->
<g id="edge6" class="edge"><title>1&#45;&#45;7</title>
<path fill="none" stroke="black" stroke-width="2" d="M72.8909,-221.83C84.0326,-198.995 103.954,-158.165 115.06,-135.405"/>
</g>
<!-- 8 -->
<g id="node9" class="node"><title>8</title>
<ellipse fill="cadetblue" stroke="black" cx="131.056" cy="-162.931" rx="18" ry="18"/>
</g>
<!-- 1&#45;&#45;8 -->
<g id="edge7" class="edge"><title>1&#45;&#45;8</title>
<path fill="none" stroke="black" stroke-width="2" d="M76.9378,-224.598C88.8958,-210.972 107.046,-190.29 118.978,-176.694"/>
</g>
<!-- 2 -->
<g id="node3" class="node"><title>2</title>
<ellipse fill="cadetblue" stroke="black" cx="32.9992" cy="-25.0407" rx="18" ry="18"/>
</g>
<!-- 2&#45;&#45;5 -->
<g id="edge8" class="edge"><title>2&#45;&#45;5</title>
<path fill="none" stroke="black" stroke-width="2" d="M30.0359,-43.0612C27.4063,-59.0518 23.5849,-82.2899 20.9572,-98.2691"/>
</g>
<!-- 2&#45;&#45;7 -->
<g id="edge9" class="edge"><title>2&#45;&#45;7</title>
<path fill="none" stroke="black" stroke-width="2" d="M45.5273,-38.0952C62.6445,-55.9316 93.1746,-87.7445 110.387,-105.68"/>
</g>
<!-- 2&#45;&#45;8 -->
<g id="edge10" class="edge"><title>2&#45;&#45;8</title>
<path fill="none" stroke="black" stroke-width="2" d="M42.6064,-40.2782C56.3179,-61.7727 82.5785,-102.017 107.257,-134.65 110.973,-139.563 115.249,-144.769 119.142,-149.356"/>
</g>
<!-- 3 -->
<g id="node4" class="node"><title>3</title>
<ellipse fill="cadetblue" stroke="black" cx="190.529" cy="-273.969" rx="18" ry="18"/>
</g>
<!-- 3&#45;&#45;6 -->
<g id="edge11" class="edge"><title>3&#45;&#45;6</title>
<path fill="none" stroke="black" stroke-width="2" d="M198.102,-257.309C205.552,-240.92 216.86,-216.043 224.294,-199.691"/>
</g>
<!-- 3&#45;&#45;7 -->
<g id="edge12" class="edge"><title>3&#45;&#45;7</title>
<path fill="none" stroke="black" stroke-width="2" d="M186.913,-256.145C181.199,-230.64 168.462,-182.882 146.922,-147.233 143.734,-141.955 139.586,-136.655 135.648,-132.092"/>
</g>
<!-- 3&#45;&#45;8 -->
<g id="edge13" class="edge"><title>3&#45;&#45;8</title>
<path fill="none" stroke="black" stroke-width="2" d="M182.008,-258.06C170.702,-236.952 150.859,-199.904 139.561,-178.811"/>
</g>
<!-- 4&#45;&#45;7 -->
<g id="edge14" class="edge"><title>4&#45;&#45;7</title>
<path fill="none" stroke="black" stroke-width="2" d="M241.298,-72.0828C215.423,-82.3373 166.142,-101.868 140.14,-112.173"/>
</g>
<!-- 4&#45;&#45;8 -->
<g id="edge15" class="edge"><title>4&#45;&#45;8</title>
<path fill="none" stroke="black" stroke-width="2" d="M243.55,-76.6C219.038,-95.4108 169.86,-133.152 145.463,-151.875"/>
</g>
<!-- 5&#45;&#45;7 -->
<g id="edge16" class="edge"><title>5&#45;&#45;7</title>
<path fill="none" stroke="black" stroke-width="2" d="M36.3069,-116.718C55.5972,-117.209 85.7915,-117.977 105.002,-118.466"/>
</g>
<!-- 5&#45;&#45;8 -->
<g id="edge17" class="edge"><title>5&#45;&#45;8</title>
<path fill="none" stroke="black" stroke-width="2" d="M34.6818,-123.14C56.057,-131.965 92.8978,-147.176 114.306,-156.015"/>
</g>
<!-- 6&#45;&#45;8 -->
<g id="edge18" class="edge"><title>6&#45;&#45;8</title>
<path fill="none" stroke="black" stroke-width="2" d="M213.805,-179.524C195.464,-175.846 167.199,-170.178 148.915,-166.512"/>
</g>
</g>
</svg>

