<?xml version="1.0" encoding="UTF-8" standalone="no"?>
<!DOCTYPE svg PUBLIC "-//W3C//DTD SVG 1.1//EN"
 "http://www.w3.org/Graphics/SVG/1.1/DTD/svg11.dtd">
<!-- Generated by graphviz version 2.36.0 (20140111.2315)
 -->
<!-- Title: G Pages: 1 -->
<svg width="100%" height="100%"
 viewBox="0.00 0.00 281.50 265.55" xmlns="http://www.w3.org/2000/svg" xmlns:xlink="http://www.w3.org/1999/xlink">
<g id="graph0" class="graph" transform="scale(1 1) rotate(0) translate(4 261.546)">
<title>G</title>
<!-- 0 -->
<g id="node1" class="node"><title>0</title>
<ellipse fill="cadetblue" stroke="black" cx="81.8585" cy="-66.5296" rx="18" ry="18"/>
</g>
<!-- 4 -->
<g id="node5" class="node"><title>4</title>
<ellipse fill="cadetblue" stroke="black" cx="91.2083" cy="-216.841" rx="18" ry="18"/>
</g>
<!-- 0&#45;&#45;4 -->
<g id="edge1" class="edge"><title>0&#45;&#45;4</title>
<path fill="none" stroke="black" stroke-width="2" d="M82.9863,-84.6606C84.7834,-113.551 88.2769,-169.714 90.0765,-198.645"/>
</g>
<!-- 5 -->
<g id="node6" class="node"><title>5</title>
<ellipse fill="cadetblue" stroke="black" cx="45.1623" cy="-151.591" rx="18" ry="18"/>
</g>
<!-- 0&#45;&#45;5 -->
<g id="edge2" class="edge"><title>0&#45;&#45;5</title>
<path fill="none" stroke="black" stroke-width="2" d="M74.6085,-83.3349C68.1751,-98.2473 58.826,-119.918 52.3972,-134.82"/>
</g>
<!-- 6 -->
<g id="node7" class="node"><title>6</title>
<ellipse fill="cadetblue" stroke="black" cx="197.713" cy="-18" rx="18" ry="18"/>
</g>
<!-- 0&#45;&#45;6 -->
<g id="edge3" class="edge"><title>0&#45;&#45;6</title>
<path fill="none" stroke="black" stroke-width="2" d="M98.9533,-59.3689C120.983,-50.1408 159.045,-34.1976 180.925,-25.0323"/>
</g>
<!-- 8 -->
<g id="node9" class="node"><title>8</title>
<ellipse fill="cadetblue" stroke="black" cx="132.583" cy="-152.067" rx="18" ry="18"/>
</g>
<!-- 0&#45;&#45;8 -->
<g id="edge4" class="edge"><title>0&#45;&#45;8</title>
<path fill="none" stroke="black" stroke-width="2" d="M91.1622,-82.2185C100.315,-97.6522 114.207,-121.078 123.339,-136.478"/>
</g>
<!-- 1 -->
<g id="node2" class="node"><title>1</title>
<ellipse fill="cadetblue" stroke="black" cx="18" cy="-239.546" rx="18" ry="18"/>
</g>
<!-- 1&#45;&#45;4 -->
<g id="edge5" class="edge"><title>1&#45;&#45;4</title>
<path fill="none" stroke="black" stroke-width="2" d="M35.3493,-234.165C47.0193,-230.546 62.3396,-225.794 73.9835,-222.183"/>
</g>
<!-- 1&#45;&#45;5 -->
<g id="edge6" class="edge"><title>1&#45;&#45;5</title>
<path fill="none" stroke="black" stroke-width="2" d="M23.3664,-222.169C28.1283,-206.749 35.0485,-184.341 39.807,-168.932"/>
</g>
<!-- 1&#45;&#45;8 -->
<g id="edge7" class="edge"><title>1&#45;&#45;8</title>
<path fill="none" stroke="black" stroke-width="2" d="M32.5121,-228.467C54.5527,-211.64 96.2187,-179.83 118.189,-163.056"/>
</g>
<!-- 2 -->
<g id="node3" class="node"><title>2</title>
<ellipse fill="cadetblue" stroke="black" cx="223.681" cy="-100.762" rx="18" ry="18"/>
</g>
<!-- 2&#45;&#45;6 -->
<g id="edge8" class="edge"><title>2&#45;&#45;6</title>
<path fill="none" stroke="black" stroke-width="2" d="M218.174,-83.2106C213.738,-69.0706 207.534,-49.2997 203.124,-35.2427"/>
</g>
<!-- 7 -->
<g id="node8" class="node"><title>7</title>
<ellipse fill="cadetblue" stroke="black" cx="184.961" cy="-214.083" rx="18" ry="18"/>
</g>
<!-- 2&#45;&#45;7 -->
<g id="edge9" class="edge"><title>2&#45;&#45;7</title>
<path fill="none" stroke="black" stroke-width="2" d="M217.801,-117.973C210.523,-139.273 198.201,-175.336 190.897,-196.71"/>
</g>
<!-- 2&#45;&#45;8 -->
<g id="edge10" class="edge"><title>2&#45;&#45;8</title>
<path fill="none" stroke="black" stroke-width="2" d="M207.813,-109.699C191.093,-119.116 164.921,-133.855 148.27,-143.233"/>
</g>
<!-- 3 -->
<g id="node4" class="node"><title>3</title>
<ellipse fill="cadetblue" stroke="black" cx="255.503" cy="-144.767" rx="18" ry="18"/>
</g>
<!-- 3&#45;&#45;6 -->
<g id="edge11" class="edge"><title>3&#45;&#45;6</title>
<path fill="none" stroke="black" stroke-width="2" d="M252.295,-126.696C250.699,-118.731 248.56,-109.31 246,-100.983 237.967,-74.854 220.41,-48.1465 208.827,-32.3251"/>
</g>
<!-- 3&#45;&#45;7 -->
<g id="edge12" class="edge"><title>3&#45;&#45;7</title>
<path fill="none" stroke="black" stroke-width="2" d="M242.565,-157.48C229.837,-169.987 210.517,-188.971 197.818,-201.45"/>
</g>
<!-- 3&#45;&#45;8 -->
<g id="edge13" class="edge"><title>3&#45;&#45;8</title>
<path fill="none" stroke="black" stroke-width="2" d="M237.366,-145.844C214.126,-147.224 174.071,-149.603 150.795,-150.986"/>
</g>
<!-- 4&#45;&#45;5 -->
<g id="edge14" class="edge"><title>4&#45;&#45;5</title>
<path fill="none" stroke="black" stroke-width="2" d="M80.7597,-202.034C73.224,-191.356 63.0957,-177.003 55.5695,-166.338"/>
</g>
<!-- 4&#45;&#45;7 -->
<g id="edge15" class="edge"><title>4&#45;&#45;7</title>
<path fill="none" stroke="black" stroke-width="2" d="M109.285,-216.309C125.886,-215.821 150.356,-215.101 166.94,-214.613"/>
</g>
<!-- 4&#45;&#45;8 -->
<g id="edge16" class="edge"><title>4&#45;&#45;8</title>
<path fill="none" stroke="black" stroke-width="2" d="M101.014,-201.49C107.609,-191.165 116.268,-177.61 122.848,-167.307"/>
</g>
<!-- 5&#45;&#45;7 -->
<g id="edge17" class="edge"><title>5&#45;&#45;7</title>
<path fill="none" stroke="black" stroke-width="2" d="M61.748,-159.005C88.6536,-171.032 141.505,-194.658 168.397,-206.679"/>
</g>
<!-- 5&#45;&#45;8 -->
<g id="edge18" class="edge"><title>5&#45;&#45;8</title>
<path fill="none" stroke="black" stroke-width="2" d="M63.276,-151.689C78.2796,-151.771 99.4957,-151.887 114.493,-151.969"/>
</g>
<!-- 7&#45;&#45;8 -->
<g id="edge19" class="edge"><title>7&#45;&#45;8</title>
<path fill="none" stroke="black" stroke-width="2" d="M173.337,-200.32C164.778,-190.185 153.175,-176.448 144.538,-166.222"/>
</g>
</g>
</svg>

