<?xml version="1.0" encoding="UTF-8" standalone="no"?>
<!DOCTYPE svg PUBLIC "-//W3C//DTD SVG 1.1//EN"
 "http://www.w3.org/Graphics/SVG/1.1/DTD/svg11.dtd">
<!-- Generated by graphviz version 2.36.0 (20140111.2315)
 -->
<!-- Title: G Pages: 1 -->
<svg width="100%" height="100%"
 viewBox="0.00 0.00 254.67 204.95" xmlns="http://www.w3.org/2000/svg" xmlns:xlink="http://www.w3.org/1999/xlink">
<g id="graph0" class="graph" transform="scale(1 1) rotate(0) translate(4 200.948)">
<title>G</title>
<!-- 0 -->
<g id="node1" class="node"><title>0</title>
<ellipse fill="cadetblue" stroke="black" cx="167.563" cy="-18" rx="18" ry="18"/>
</g>
<!-- 4 -->
<g id="node5" class="node"><title>4</title>
<ellipse fill="cadetblue" stroke="black" cx="133.082" cy="-117.673" rx="18" ry="18"/>
</g>
<!-- 0&#45;&#45;4 -->
<g id="edge1" class="edge"><title>0&#45;&#45;4</title>
<path fill="none" stroke="black" stroke-width="2" d="M161.557,-35.3617C155.228,-53.6559 145.322,-82.2912 139.019,-100.51"/>
</g>
<!-- 6 -->
<g id="node7" class="node"><title>6</title>
<ellipse fill="cadetblue" stroke="black" cx="228.666" cy="-109.575" rx="18" ry="18"/>
</g>
<!-- 0&#45;&#45;6 -->
<g id="edge2" class="edge"><title>0&#45;&#45;6</title>
<path fill="none" stroke="black" stroke-width="2" d="M177.864,-33.153C182.42,-39.8758 187.833,-47.8898 192.678,-55.1363 201.495,-68.3217 211.431,-83.3666 218.626,-94.2937"/>
</g>
<!-- 7 -->
<g id="node8" class="node"><title>7</title>
<ellipse fill="cadetblue" stroke="black" cx="79.4126" cy="-25.1108" rx="18" ry="18"/>
</g>
<!-- 0&#45;&#45;7 -->
<g id="edge3" class="edge"><title>0&#45;&#45;7</title>
<path fill="none" stroke="black" stroke-width="2" d="M149.298,-19.4734C134.17,-20.6937 112.776,-22.4194 97.6541,-23.6393"/>
</g>
<!-- 8 -->
<g id="node9" class="node"><title>8</title>
<ellipse fill="cadetblue" stroke="black" cx="88.1809" cy="-69.1152" rx="18" ry="18"/>
</g>
<!-- 0&#45;&#45;8 -->
<g id="edge4" class="edge"><title>0&#45;&#45;8</title>
<path fill="none" stroke="black" stroke-width="2" d="M152.257,-27.8555C138.201,-36.9068 117.482,-50.2481 103.44,-59.2899"/>
</g>
<!-- 1 -->
<g id="node2" class="node"><title>1</title>
<ellipse fill="cadetblue" stroke="black" cx="18" cy="-82.9541" rx="18" ry="18"/>
</g>
<!-- 1&#45;&#45;4 -->
<g id="edge5" class="edge"><title>1&#45;&#45;4</title>
<path fill="none" stroke="black" stroke-width="2" d="M35.4785,-88.2271C57.2344,-94.7906 94.1594,-105.93 115.816,-112.464"/>
</g>
<!-- 1&#45;&#45;7 -->
<g id="edge6" class="edge"><title>1&#45;&#45;7</title>
<path fill="none" stroke="black" stroke-width="2" d="M31.3256,-70.4029C41.6266,-60.7007 55.8186,-47.3335 66.113,-37.6374"/>
</g>
<!-- 1&#45;&#45;8 -->
<g id="edge7" class="edge"><title>1&#45;&#45;8</title>
<path fill="none" stroke="black" stroke-width="2" d="M35.7096,-79.4619C46.2673,-77.3801 59.6333,-74.7444 70.2328,-72.6543"/>
</g>
<!-- 2 -->
<g id="node3" class="node"><title>2</title>
<ellipse fill="cadetblue" stroke="black" cx="176.74" cy="-70.7621" rx="18" ry="18"/>
</g>
<!-- 5 -->
<g id="node6" class="node"><title>5</title>
<ellipse fill="cadetblue" stroke="black" cx="170.53" cy="-178.948" rx="18" ry="18"/>
</g>
<!-- 2&#45;&#45;5 -->
<g id="edge8" class="edge"><title>2&#45;&#45;5</title>
<path fill="none" stroke="black" stroke-width="2" d="M175.687,-89.1144C174.538,-109.129 172.711,-140.96 171.568,-160.867"/>
</g>
<!-- 2&#45;&#45;6 -->
<g id="edge9" class="edge"><title>2&#45;&#45;6</title>
<path fill="none" stroke="black" stroke-width="2" d="M191.205,-81.5736C198.287,-86.8671 206.799,-93.2299 213.919,-98.5515"/>
</g>
<!-- 2&#45;&#45;7 -->
<g id="edge10" class="edge"><title>2&#45;&#45;7</title>
<path fill="none" stroke="black" stroke-width="2" d="M160.23,-63.018C142.333,-54.6233 113.933,-41.3024 96.0039,-32.8929"/>
</g>
<!-- 2&#45;&#45;8 -->
<g id="edge11" class="edge"><title>2&#45;&#45;8</title>
<path fill="none" stroke="black" stroke-width="2" d="M158.391,-70.4209C143.09,-70.1363 121.413,-69.7332 106.204,-69.4503"/>
</g>
<!-- 3 -->
<g id="node4" class="node"><title>3</title>
<ellipse fill="cadetblue" stroke="black" cx="67.6995" cy="-155.646" rx="18" ry="18"/>
</g>
<!-- 3&#45;&#45;5 -->
<g id="edge12" class="edge"><title>3&#45;&#45;5</title>
<path fill="none" stroke="black" stroke-width="2" d="M85.6112,-159.705C104.485,-163.982 134.028,-170.676 152.824,-174.936"/>
</g>
<!-- 3&#45;&#45;7 -->
<g id="edge13" class="edge"><title>3&#45;&#45;7</title>
<path fill="none" stroke="black" stroke-width="2" d="M65.6479,-137.624C64.0369,-120.029 62.5639,-92.5404 65.8612,-68.9965 67.1441,-59.836 70.0468,-49.9665 72.8379,-41.9114"/>
</g>
<!-- 3&#45;&#45;8 -->
<g id="edge14" class="edge"><title>3&#45;&#45;8</title>
<path fill="none" stroke="black" stroke-width="2" d="M71.9432,-137.717C75.4818,-122.767 80.4953,-101.586 84.0126,-86.7253"/>
</g>
<!-- 4&#45;&#45;5 -->
<g id="edge15" class="edge"><title>4&#45;&#45;5</title>
<path fill="none" stroke="black" stroke-width="2" d="M142.532,-133.135C148.165,-142.353 155.297,-154.023 160.953,-163.278"/>
</g>
<!-- 4&#45;&#45;6 -->
<g id="edge16" class="edge"><title>4&#45;&#45;6</title>
<path fill="none" stroke="black" stroke-width="2" d="M151.061,-116.15C168.041,-114.711 193.383,-112.564 210.443,-111.119"/>
</g>
<!-- 4&#45;&#45;8 -->
<g id="edge17" class="edge"><title>4&#45;&#45;8</title>
<path fill="none" stroke="black" stroke-width="2" d="M120.813,-104.404C114.477,-97.5526 106.769,-89.2169 100.435,-82.3677"/>
</g>
<!-- 5&#45;&#45;6 -->
<g id="edge18" class="edge"><title>5&#45;&#45;6</title>
<path fill="none" stroke="black" stroke-width="2" d="M182.295,-164.909C192.381,-152.873 206.838,-135.623 216.919,-123.593"/>
</g>
</g>
</svg>

