<?xml version="1.0" encoding="UTF-8" standalone="no"?>
<!DOCTYPE svg PUBLIC "-//W3C//DTD SVG 1.1//EN"
 "http://www.w3.org/Graphics/SVG/1.1/DTD/svg11.dtd">
<!-- Generated by graphviz version 2.36.0 (20140111.2315)
 -->
<!-- Title: G Pages: 1 -->
<svg width="100%" height="100%"
 viewBox="0.00 0.00 241.72 231.49" xmlns="http://www.w3.org/2000/svg" xmlns:xlink="http://www.w3.org/1999/xlink">
<g id="graph0" class="graph" transform="scale(1 1) rotate(0) translate(4 227.488)">
<title>G</title>
<!-- 0 -->
<g id="node1" class="node"><title>0</title>
<ellipse fill="cadetblue" stroke="black" cx="18" cy="-104.888" rx="18" ry="18"/>
</g>
<!-- 4 -->
<g id="node5" class="node"><title>4</title>
<ellipse fill="cadetblue" stroke="black" cx="78.4788" cy="-205.488" rx="18" ry="18"/>
</g>
<!-- 0&#45;&#45;4 -->
<g id="edge1" class="edge"><title>0&#45;&#45;4</title>
<path fill="none" stroke="black" stroke-width="2" d="M27.4498,-120.607C38.8117,-139.506 57.7631,-171.03 69.0953,-189.879"/>
</g>
<!-- 7 -->
<g id="node8" class="node"><title>7</title>
<ellipse fill="cadetblue" stroke="black" cx="95.8587" cy="-136.915" rx="18" ry="18"/>
</g>
<!-- 0&#45;&#45;7 -->
<g id="edge2" class="edge"><title>0&#45;&#45;7</title>
<path fill="none" stroke="black" stroke-width="2" d="M34.8942,-111.838C47.9537,-117.21 65.9463,-124.611 78.9975,-129.979"/>
</g>
<!-- 8 -->
<g id="node9" class="node"><title>8</title>
<ellipse fill="cadetblue" stroke="black" cx="94.3169" cy="-72.9333" rx="18" ry="18"/>
</g>
<!-- 0&#45;&#45;8 -->
<g id="edge3" class="edge"><title>0&#45;&#45;8</title>
<path fill="none" stroke="black" stroke-width="2" d="M34.9372,-97.7965C47.672,-92.4642 65.0306,-85.1959 77.6896,-79.8954"/>
</g>
<!-- 1 -->
<g id="node2" class="node"><title>1</title>
<ellipse fill="cadetblue" stroke="black" cx="21.5473" cy="-159.737" rx="18" ry="18"/>
</g>
<!-- 1&#45;&#45;4 -->
<g id="edge4" class="edge"><title>1&#45;&#45;4</title>
<path fill="none" stroke="black" stroke-width="2" d="M35.6203,-171.046C44.3132,-178.032 55.4363,-186.971 64.1723,-193.991"/>
</g>
<!-- 1&#45;&#45;7 -->
<g id="edge5" class="edge"><title>1&#45;&#45;7</title>
<path fill="none" stroke="black" stroke-width="2" d="M38.7826,-154.444C50.7021,-150.783 66.5046,-145.93 78.4595,-142.258"/>
</g>
<!-- 1&#45;&#45;8 -->
<g id="edge6" class="edge"><title>1&#45;&#45;8</title>
<path fill="none" stroke="black" stroke-width="2" d="M33.239,-145.79C46.8186,-129.592 69.087,-103.029 82.6542,-86.8452"/>
</g>
<!-- 2 -->
<g id="node3" class="node"><title>2</title>
<ellipse fill="cadetblue" stroke="black" cx="137.447" cy="-18" rx="18" ry="18"/>
</g>
<!-- 5 -->
<g id="node6" class="node"><title>5</title>
<ellipse fill="cadetblue" stroke="black" cx="174.471" cy="-62.0044" rx="18" ry="18"/>
</g>
<!-- 2&#45;&#45;5 -->
<g id="edge7" class="edge"><title>2&#45;&#45;5</title>
<path fill="none" stroke="black" stroke-width="2" d="M149.162,-31.9233C153.483,-37.0599 158.379,-42.8787 162.705,-48.0207"/>
</g>
<!-- 6 -->
<g id="node7" class="node"><title>6</title>
<ellipse fill="cadetblue" stroke="black" cx="164.657" cy="-158.232" rx="18" ry="18"/>
</g>
<!-- 2&#45;&#45;6 -->
<g id="edge8" class="edge"><title>2&#45;&#45;6</title>
<path fill="none" stroke="black" stroke-width="2" d="M140.894,-35.7605C146.099,-62.5873 155.914,-113.171 161.153,-140.173"/>
</g>
<!-- 2&#45;&#45;8 -->
<g id="edge9" class="edge"><title>2&#45;&#45;8</title>
<path fill="none" stroke="black" stroke-width="2" d="M126.115,-32.4331C119.826,-40.4438 112.024,-50.3801 105.723,-58.4059"/>
</g>
<!-- 3 -->
<g id="node4" class="node"><title>3</title>
<ellipse fill="cadetblue" stroke="black" cx="215.725" cy="-112.611" rx="18" ry="18"/>
</g>
<!-- 3&#45;&#45;5 -->
<g id="edge10" class="edge"><title>3&#45;&#45;5</title>
<path fill="none" stroke="black" stroke-width="2" d="M204.233,-98.5144C198.511,-91.4952 191.614,-83.0343 185.901,-76.0256"/>
</g>
<!-- 3&#45;&#45;6 -->
<g id="edge11" class="edge"><title>3&#45;&#45;6</title>
<path fill="none" stroke="black" stroke-width="2" d="M202.039,-124.837C194.712,-131.382 185.713,-139.422 178.38,-145.973"/>
</g>
<!-- 3&#45;&#45;8 -->
<g id="edge12" class="edge"><title>3&#45;&#45;8</title>
<path fill="none" stroke="black" stroke-width="2" d="M198.587,-107.01C175.579,-99.4911 134.923,-86.2041 111.76,-78.634"/>
</g>
<!-- 4&#45;&#45;6 -->
<g id="edge13" class="edge"><title>4&#45;&#45;6</title>
<path fill="none" stroke="black" stroke-width="2" d="M94.2852,-196.82C109.737,-188.347 133.142,-175.514 148.659,-167.005"/>
</g>
<!-- 4&#45;&#45;7 -->
<g id="edge14" class="edge"><title>4&#45;&#45;7</title>
<path fill="none" stroke="black" stroke-width="2" d="M82.9546,-187.829C85.5293,-177.67 88.7554,-164.941 91.3377,-154.753"/>
</g>
<!-- 5&#45;&#45;7 -->
<g id="edge15" class="edge"><title>5&#45;&#45;7</title>
<path fill="none" stroke="black" stroke-width="2" d="M161.135,-74.712C146.592,-88.5706 123.463,-110.611 108.997,-124.395"/>
</g>
<!-- 5&#45;&#45;8 -->
<g id="edge16" class="edge"><title>5&#45;&#45;8</title>
<path fill="none" stroke="black" stroke-width="2" d="M156.282,-64.4843C143.072,-66.2855 125.286,-68.7107 112.157,-70.5008"/>
</g>
<!-- 6&#45;&#45;7 -->
<g id="edge17" class="edge"><title>6&#45;&#45;7</title>
<path fill="none" stroke="black" stroke-width="2" d="M147.296,-152.853C136.947,-149.646 123.844,-145.586 113.453,-142.367"/>
</g>
<!-- 7&#45;&#45;8 -->
<g id="edge18" class="edge"><title>7&#45;&#45;8</title>
<path fill="none" stroke="black" stroke-width="2" d="M95.421,-118.752C95.2145,-110.18 94.9684,-99.9692 94.761,-91.3643"/>
</g>
</g>
</svg>

