<?xml version="1.0" encoding="UTF-8" standalone="no"?>
<!DOCTYPE svg PUBLIC "-//W3C//DTD SVG 1.1//EN"
 "http://www.w3.org/Graphics/SVG/1.1/DTD/svg11.dtd">
<!-- Generated by graphviz version 2.36.0 (20140111.2315)
 -->
<!-- Title: G Pages: 1 -->
<svg width="100%" height="100%"
 viewBox="0.00 0.00 260.01 224.48" xmlns="http://www.w3.org/2000/svg" xmlns:xlink="http://www.w3.org/1999/xlink">
<g id="graph0" class="graph" transform="scale(1 1) rotate(0) translate(4 220.481)">
<title>G</title>
<!-- 0 -->
<g id="node1" class="node"><title>0</title>
<ellipse fill="cadetblue" stroke="black" cx="18" cy="-151.989" rx="18" ry="18"/>
</g>
<!-- 4 -->
<g id="node5" class="node"><title>4</title>
<ellipse fill="cadetblue" stroke="black" cx="59.5139" cy="-85.2934" rx="18" ry="18"/>
</g>
<!-- 0&#45;&#45;4 -->
<g id="edge1" class="edge"><title>0&#45;&#45;4</title>
<path fill="none" stroke="black" stroke-width="2" d="M27.6285,-136.52C34.3351,-125.745 43.2424,-111.435 49.9376,-100.679"/>
</g>
<!-- 5 -->
<g id="node6" class="node"><title>5</title>
<ellipse fill="cadetblue" stroke="black" cx="79.6201" cy="-198.481" rx="18" ry="18"/>
</g>
<!-- 0&#45;&#45;5 -->
<g id="edge2" class="edge"><title>0&#45;&#45;5</title>
<path fill="none" stroke="black" stroke-width="2" d="M32.6031,-163.007C42.4258,-170.418 55.321,-180.147 65.1218,-187.542"/>
</g>
<!-- 8 -->
<g id="node9" class="node"><title>8</title>
<ellipse fill="cadetblue" stroke="black" cx="118.082" cy="-119.751" rx="18" ry="18"/>
</g>
<!-- 0&#45;&#45;8 -->
<g id="edge3" class="edge"><title>0&#45;&#45;8</title>
<path fill="none" stroke="black" stroke-width="2" d="M35.4329,-146.374C53.8022,-140.457 82.555,-131.195 100.849,-125.302"/>
</g>
<!-- 1 -->
<g id="node2" class="node"><title>1</title>
<ellipse fill="cadetblue" stroke="black" cx="121.714" cy="-18" rx="18" ry="18"/>
</g>
<!-- 1&#45;&#45;4 -->
<g id="edge4" class="edge"><title>1&#45;&#45;4</title>
<path fill="none" stroke="black" stroke-width="2" d="M109.425,-31.295C98.5207,-43.0925 82.6739,-60.2369 71.7771,-72.026"/>
</g>
<!-- 6 -->
<g id="node7" class="node"><title>6</title>
<ellipse fill="cadetblue" stroke="black" cx="223.154" cy="-51.8537" rx="18" ry="18"/>
</g>
<!-- 1&#45;&#45;6 -->
<g id="edge5" class="edge"><title>1&#45;&#45;6</title>
<path fill="none" stroke="black" stroke-width="2" d="M138.922,-23.7428C157.575,-29.9681 187.175,-39.8464 205.861,-46.0827"/>
</g>
<!-- 7 -->
<g id="node8" class="node"><title>7</title>
<ellipse fill="cadetblue" stroke="black" cx="162.086" cy="-76.4242" rx="18" ry="18"/>
</g>
<!-- 1&#45;&#45;7 -->
<g id="edge6" class="edge"><title>1&#45;&#45;7</title>
<path fill="none" stroke="black" stroke-width="2" d="M132.111,-33.0457C138.092,-41.701 145.586,-52.5456 151.584,-61.2264"/>
</g>
<!-- 1&#45;&#45;8 -->
<g id="edge7" class="edge"><title>1&#45;&#45;8</title>
<path fill="none" stroke="black" stroke-width="2" d="M121.065,-36.191C120.403,-54.7117 119.385,-83.2539 118.725,-101.717"/>
</g>
<!-- 2 -->
<g id="node3" class="node"><title>2</title>
<ellipse fill="cadetblue" stroke="black" cx="177.246" cy="-167.434" rx="18" ry="18"/>
</g>
<!-- 2&#45;&#45;5 -->
<g id="edge8" class="edge"><title>2&#45;&#45;5</title>
<path fill="none" stroke="black" stroke-width="2" d="M159.793,-172.984C142.023,-178.636 114.638,-187.344 96.9226,-192.978"/>
</g>
<!-- 2&#45;&#45;6 -->
<g id="edge9" class="edge"><title>2&#45;&#45;6</title>
<path fill="none" stroke="black" stroke-width="2" d="M184.02,-150.38C192.75,-128.402 207.831,-90.4306 216.501,-68.6022"/>
</g>
<!-- 2&#45;&#45;7 -->
<g id="edge10" class="edge"><title>2&#45;&#45;7</title>
<path fill="none" stroke="black" stroke-width="2" d="M174.251,-149.453C171.593,-133.498 167.731,-110.311 165.075,-94.3674"/>
</g>
<!-- 2&#45;&#45;8 -->
<g id="edge11" class="edge"><title>2&#45;&#45;8</title>
<path fill="none" stroke="black" stroke-width="2" d="M163.225,-156.134C153.931,-148.643 141.771,-138.843 132.413,-131.301"/>
</g>
<!-- 3 -->
<g id="node4" class="node"><title>3</title>
<ellipse fill="cadetblue" stroke="black" cx="234.013" cy="-124.243" rx="18" ry="18"/>
</g>
<!-- 3&#45;&#45;6 -->
<g id="edge12" class="edge"><title>3&#45;&#45;6</title>
<path fill="none" stroke="black" stroke-width="2" d="M231.329,-106.349C229.658,-95.212 227.517,-80.9381 225.845,-69.7927"/>
</g>
<!-- 3&#45;&#45;7 -->
<g id="edge13" class="edge"><title>3&#45;&#45;7</title>
<path fill="none" stroke="black" stroke-width="2" d="M218.759,-114.102C206.553,-105.987 189.518,-94.6618 177.318,-86.5507"/>
</g>
<!-- 3&#45;&#45;8 -->
<g id="edge14" class="edge"><title>3&#45;&#45;8</title>
<path fill="none" stroke="black" stroke-width="2" d="M215.899,-123.541C194.119,-122.697 157.791,-121.29 136.069,-120.448"/>
</g>
<!-- 4&#45;&#45;5 -->
<g id="edge15" class="edge"><title>4&#45;&#45;5</title>
<path fill="none" stroke="black" stroke-width="2" d="M62.6997,-103.228C66.4646,-124.422 72.6908,-159.472 76.4491,-180.63"/>
</g>
<!-- 4&#45;&#45;7 -->
<g id="edge16" class="edge"><title>4&#45;&#45;7</title>
<path fill="none" stroke="black" stroke-width="2" d="M77.8517,-83.7078C96.5218,-82.0934 125.294,-79.6055 143.907,-77.9961"/>
</g>
<!-- 4&#45;&#45;8 -->
<g id="edge17" class="edge"><title>4&#45;&#45;8</title>
<path fill="none" stroke="black" stroke-width="2" d="M75.209,-94.5274C83.6121,-99.4713 93.9335,-105.544 102.343,-110.492"/>
</g>
<!-- 6&#45;&#45;7 -->
<g id="edge18" class="edge"><title>6&#45;&#45;7</title>
<path fill="none" stroke="black" stroke-width="2" d="M206.143,-58.698C197.673,-62.1059 187.463,-66.2138 179.006,-69.6166"/>
</g>
<!-- 7&#45;&#45;8 -->
<g id="edge19" class="edge"><title>7&#45;&#45;8</title>
<path fill="none" stroke="black" stroke-width="2" d="M149.121,-89.1893C143.442,-94.7807 136.791,-101.329 131.106,-106.927"/>
</g>
</g>
</svg>

