<?xml version="1.0" encoding="UTF-8" standalone="no"?>
<!DOCTYPE svg PUBLIC "-//W3C//DTD SVG 1.1//EN"
 "http://www.w3.org/Graphics/SVG/1.1/DTD/svg11.dtd">
<!-- Generated by graphviz version 2.36.0 (20140111.2315)
 -->
<!-- Title: G Pages: 1 -->
<svg width="100%" height="100%"
 viewBox="0.00 0.00 294.20 278.07" xmlns="http://www.w3.org/2000/svg" xmlns:xlink="http://www.w3.org/1999/xlink">
<g id="graph0" class="graph" transform="scale(1 1) rotate(0) translate(4 274.072)">
<title>G</title>
<!-- 0 -->
<g id="node1" class="node"><title>0</title>
<ellipse fill="cadetblue" stroke="black" cx="83.2224" cy="-18" rx="18" ry="18"/>
</g>
<!-- 4 -->
<g id="node5" class="node"><title>4</title>
<ellipse fill="cadetblue" stroke="black" cx="29.7024" cy="-159.252" rx="18" ry="18"/>
</g>
<!-- 0&#45;&#45;4 -->
<g id="edge1" class="edge"><title>0&#45;&#45;4</title>
<path fill="none" stroke="black" stroke-width="2" d="M76.7666,-35.0383C66.4798,-62.1877 46.4822,-114.966 36.181,-142.154"/>
</g>
<!-- 5 -->
<g id="node6" class="node"><title>5</title>
<ellipse fill="cadetblue" stroke="black" cx="106.334" cy="-164.336" rx="18" ry="18"/>
</g>
<!-- 0&#45;&#45;5 -->
<g id="edge2" class="edge"><title>0&#45;&#45;5</title>
<path fill="none" stroke="black" stroke-width="2" d="M86.0563,-35.9437C90.492,-64.0296 99.0268,-118.07 103.477,-146.246"/>
</g>
<!-- 6 -->
<g id="node7" class="node"><title>6</title>
<ellipse fill="cadetblue" stroke="black" cx="150.338" cy="-136.144" rx="18" ry="18"/>
</g>
<!-- 0&#45;&#45;6 -->
<g id="edge3" class="edge"><title>0&#45;&#45;6</title>
<path fill="none" stroke="black" stroke-width="2" d="M92.2739,-33.9334C105.155,-56.6079 128.628,-97.9277 141.43,-120.463"/>
</g>
<!-- 7 -->
<g id="node8" class="node"><title>7</title>
<ellipse fill="cadetblue" stroke="black" cx="164.179" cy="-70.0522" rx="18" ry="18"/>
</g>
<!-- 0&#45;&#45;7 -->
<g id="edge4" class="edge"><title>0&#45;&#45;7</title>
<path fill="none" stroke="black" stroke-width="2" d="M98.4497,-27.7906C112.924,-37.0967 134.569,-51.0139 149.02,-60.3055"/>
</g>
<!-- 1 -->
<g id="node2" class="node"><title>1</title>
<ellipse fill="cadetblue" stroke="black" cx="137.412" cy="-252.072" rx="18" ry="18"/>
</g>
<!-- 1&#45;&#45;4 -->
<g id="edge5" class="edge"><title>1&#45;&#45;4</title>
<path fill="none" stroke="black" stroke-width="2" d="M123.77,-240.316C103.165,-222.559 64.313,-189.078 43.5733,-171.206"/>
</g>
<!-- 1&#45;&#45;5 -->
<g id="edge6" class="edge"><title>1&#45;&#45;5</title>
<path fill="none" stroke="black" stroke-width="2" d="M131.272,-234.738C125.788,-219.257 117.803,-196.714 112.355,-181.336"/>
</g>
<!-- 1&#45;&#45;6 -->
<g id="edge7" class="edge"><title>1&#45;&#45;6</title>
<path fill="none" stroke="black" stroke-width="2" d="M139.432,-233.958C141.86,-212.179 145.911,-175.853 148.333,-154.13"/>
</g>
<!-- 1&#45;&#45;7 -->
<g id="edge8" class="edge"><title>1&#45;&#45;7</title>
<path fill="none" stroke="black" stroke-width="2" d="M144.839,-235.62C154.237,-213.54 169.576,-172.847 172.658,-136.17 174.044,-119.679 171.236,-100.981 168.487,-87.6874"/>
</g>
<!-- 2 -->
<g id="node3" class="node"><title>2</title>
<ellipse fill="cadetblue" stroke="black" cx="18" cy="-66.285" rx="18" ry="18"/>
</g>
<!-- 2&#45;&#45;4 -->
<g id="edge9" class="edge"><title>2&#45;&#45;4</title>
<path fill="none" stroke="black" stroke-width="2" d="M20.2563,-84.21C22.3286,-100.672 25.3829,-124.937 27.453,-141.382"/>
</g>
<!-- 2&#45;&#45;5 -->
<g id="edge10" class="edge"><title>2&#45;&#45;5</title>
<path fill="none" stroke="black" stroke-width="2" d="M30.2824,-79.9186C47.1589,-98.6516 77.3343,-132.147 94.1557,-150.818"/>
</g>
<!-- 2&#45;&#45;6 -->
<g id="edge11" class="edge"><title>2&#45;&#45;6</title>
<path fill="none" stroke="black" stroke-width="2" d="M33.9631,-74.7116C59.3991,-88.1388 108.847,-114.241 134.319,-127.687"/>
</g>
<!-- 2&#45;&#45;7 -->
<g id="edge12" class="edge"><title>2&#45;&#45;7</title>
<path fill="none" stroke="black" stroke-width="2" d="M36.2181,-66.7545C64.23,-67.4764 117.582,-68.8513 145.732,-69.5768"/>
</g>
<!-- 3 -->
<g id="node4" class="node"><title>3</title>
<ellipse fill="cadetblue" stroke="black" cx="268.202" cy="-137.408" rx="18" ry="18"/>
</g>
<!-- 3&#45;&#45;5 -->
<g id="edge13" class="edge"><title>3&#45;&#45;5</title>
<path fill="none" stroke="black" stroke-width="2" d="M250.268,-140.865C227.194,-145.253 185.85,-152.92 150.312,-158.464 141.788,-159.794 132.304,-161.084 124.333,-162.115"/>
</g>
<!-- 3&#45;&#45;6 -->
<g id="edge14" class="edge"><title>3&#45;&#45;6</title>
<path fill="none" stroke="black" stroke-width="2" d="M250.044,-137.213C227.96,-136.976 190.892,-136.579 168.711,-136.341"/>
</g>
<!-- 3&#45;&#45;7 -->
<g id="edge15" class="edge"><title>3&#45;&#45;7</title>
<path fill="none" stroke="black" stroke-width="2" d="M252.853,-127.469C233.186,-114.735 199.289,-92.7859 179.591,-80.0316"/>
</g>
<!-- 4&#45;&#45;6 -->
<g id="edge16" class="edge"><title>4&#45;&#45;6</title>
<path fill="none" stroke="black" stroke-width="2" d="M47.2893,-154.839C62.7842,-151.061 86.0045,-145.67 106.433,-142.017 114.912,-140.5 124.375,-139.187 132.339,-138.189"/>
</g>
<!-- 4&#45;&#45;7 -->
<g id="edge17" class="edge"><title>4&#45;&#45;7</title>
<path fill="none" stroke="black" stroke-width="2" d="M44.8672,-149.193C70.6945,-132.062 122.934,-97.4108 148.864,-80.2113"/>
</g>
<!-- 6&#45;&#45;7 -->
<g id="edge18" class="edge"><title>6&#45;&#45;7</title>
<path fill="none" stroke="black" stroke-width="2" d="M154.047,-118.433C156.033,-108.95 158.472,-97.3026 160.46,-87.8125"/>
</g>
</g>
</svg>

