<?xml version="1.0" encoding="UTF-8" standalone="no"?>
<!DOCTYPE svg PUBLIC "-//W3C//DTD SVG 1.1//EN"
 "http://www.w3.org/Graphics/SVG/1.1/DTD/svg11.dtd">
<!-- Generated by graphviz version 2.36.0 (20140111.2315)
 -->
<!-- Title: G Pages: 1 -->
<svg width="100%" height="100%"
 viewBox="0.00 0.00 214.38 255.09" xmlns="http://www.w3.org/2000/svg" xmlns:xlink="http://www.w3.org/1999/xlink">
<g id="graph0" class="graph" transform="scale(1 1) rotate(0) translate(4 251.089)">
<title>G</title>
<!-- 0 -->
<g id="node1" class="node"><title>0</title>
<ellipse fill="cadetblue" stroke="black" cx="18" cy="-121.478" rx="18" ry="18"/>
</g>
<!-- 4 -->
<g id="node5" class="node"><title>4</title>
<ellipse fill="cadetblue" stroke="black" cx="43.9083" cy="-18" rx="18" ry="18"/>
</g>
<!-- 0&#45;&#45;4 -->
<g id="edge1" class="edge"><title>0&#45;&#45;4</title>
<path fill="none" stroke="black" stroke-width="2" d="M22.395,-103.925C27.1592,-84.8963 34.7191,-54.7018 39.4918,-35.6398"/>
</g>
<!-- 5 -->
<g id="node6" class="node"><title>5</title>
<ellipse fill="cadetblue" stroke="black" cx="75.6766" cy="-169.516" rx="18" ry="18"/>
</g>
<!-- 0&#45;&#45;5 -->
<g id="edge2" class="edge"><title>0&#45;&#45;5</title>
<path fill="none" stroke="black" stroke-width="2" d="M31.9619,-133.107C41.0301,-140.66 52.8008,-150.463 61.8433,-157.994"/>
</g>
<!-- 7 -->
<g id="node8" class="node"><title>7</title>
<ellipse fill="cadetblue" stroke="black" cx="53.5527" cy="-77.4739" rx="18" ry="18"/>
</g>
<!-- 0&#45;&#45;7 -->
<g id="edge3" class="edge"><title>0&#45;&#45;7</title>
<path fill="none" stroke="black" stroke-width="2" d="M29.6413,-107.07C33.6106,-102.157 38.045,-96.6682 42.0067,-91.7647"/>
</g>
<!-- 8 -->
<g id="node9" class="node"><title>8</title>
<ellipse fill="cadetblue" stroke="black" cx="121.046" cy="-142.03" rx="18" ry="18"/>
</g>
<!-- 0&#45;&#45;8 -->
<g id="edge4" class="edge"><title>0&#45;&#45;8</title>
<path fill="none" stroke="black" stroke-width="2" d="M35.9493,-125.058C54.8628,-128.83 84.4673,-134.735 103.303,-138.491"/>
</g>
<!-- 1 -->
<g id="node2" class="node"><title>1</title>
<ellipse fill="cadetblue" stroke="black" cx="132.364" cy="-57.9114" rx="18" ry="18"/>
</g>
<!-- 1&#45;&#45;4 -->
<g id="edge5" class="edge"><title>1&#45;&#45;4</title>
<path fill="none" stroke="black" stroke-width="2" d="M115.726,-50.4044C99.9115,-43.2688 76.2612,-32.5977 60.4715,-25.4734"/>
</g>
<!-- 6 -->
<g id="node7" class="node"><title>6</title>
<ellipse fill="cadetblue" stroke="black" cx="187.525" cy="-161.512" rx="18" ry="18"/>
</g>
<!-- 1&#45;&#45;6 -->
<g id="edge6" class="edge"><title>1&#45;&#45;6</title>
<path fill="none" stroke="black" stroke-width="2" d="M140.983,-74.0989C151.346,-93.5619 168.631,-126.026 178.967,-145.438"/>
</g>
<!-- 1&#45;&#45;7 -->
<g id="edge7" class="edge"><title>1&#45;&#45;7</title>
<path fill="none" stroke="black" stroke-width="2" d="M114.873,-62.2529C101.903,-65.4723 84.2897,-69.8444 71.2671,-73.0768"/>
</g>
<!-- 1&#45;&#45;8 -->
<g id="edge8" class="edge"><title>1&#45;&#45;8</title>
<path fill="none" stroke="black" stroke-width="2" d="M129.964,-75.7508C128.056,-89.9296 125.399,-109.679 123.482,-123.927"/>
</g>
<!-- 2 -->
<g id="node3" class="node"><title>2</title>
<ellipse fill="cadetblue" stroke="black" cx="188.379" cy="-109.713" rx="18" ry="18"/>
</g>
<!-- 2&#45;&#45;5 -->
<g id="edge9" class="edge"><title>2&#45;&#45;5</title>
<path fill="none" stroke="black" stroke-width="2" d="M177.341,-123.954C165.307,-138.026 144.579,-158.298 120.928,-164.35 112.195,-166.585 102.266,-167.853 93.9388,-168.573"/>
</g>
<!-- 2&#45;&#45;6 -->
<g id="edge10" class="edge"><title>2&#45;&#45;6</title>
<path fill="none" stroke="black" stroke-width="2" d="M188.08,-127.829C187.997,-132.847 187.908,-138.295 187.825,-143.318"/>
</g>
<!-- 2&#45;&#45;8 -->
<g id="edge11" class="edge"><title>2&#45;&#45;8</title>
<path fill="none" stroke="black" stroke-width="2" d="M172.079,-117.536C161.649,-122.542 148.155,-129.019 137.663,-134.055"/>
</g>
<!-- 3 -->
<g id="node4" class="node"><title>3</title>
<ellipse fill="cadetblue" stroke="black" cx="133.015" cy="-229.089" rx="18" ry="18"/>
</g>
<!-- 3&#45;&#45;5 -->
<g id="edge12" class="edge"><title>3&#45;&#45;5</title>
<path fill="none" stroke="black" stroke-width="2" d="M120.29,-215.868C110.788,-205.995 97.8597,-192.563 88.3663,-182.7"/>
</g>
<!-- 3&#45;&#45;6 -->
<g id="edge13" class="edge"><title>3&#45;&#45;6</title>
<path fill="none" stroke="black" stroke-width="2" d="M144.575,-214.757C153.826,-203.289 166.736,-187.285 175.982,-175.822"/>
</g>
<!-- 3&#45;&#45;8 -->
<g id="edge14" class="edge"><title>3&#45;&#45;8</title>
<path fill="none" stroke="black" stroke-width="2" d="M130.535,-211.05C128.481,-196.109 125.576,-174.981 123.523,-160.046"/>
</g>
<!-- 4&#45;&#45;7 -->
<g id="edge15" class="edge"><title>4&#45;&#45;7</title>
<path fill="none" stroke="black" stroke-width="2" d="M46.802,-35.8441C48.0226,-43.3716 49.4407,-52.1163 50.6611,-59.6424"/>
</g>
<!-- 5&#45;&#45;7 -->
<g id="edge16" class="edge"><title>5&#45;&#45;7</title>
<path fill="none" stroke="black" stroke-width="2" d="M71.4109,-151.769C67.4933,-135.471 61.7188,-111.447 57.8054,-95.166"/>
</g>
<!-- 5&#45;&#45;8 -->
<g id="edge17" class="edge"><title>5&#45;&#45;8</title>
<path fill="none" stroke="black" stroke-width="2" d="M91.2903,-160.057C95.9042,-157.262 100.952,-154.204 105.558,-151.414"/>
</g>
<!-- 6&#45;&#45;8 -->
<g id="edge18" class="edge"><title>6&#45;&#45;8</title>
<path fill="none" stroke="black" stroke-width="2" d="M170.059,-156.393C160.364,-153.552 148.34,-150.028 138.627,-147.182"/>
</g>
</g>
</svg>

