<?xml version="1.0" encoding="UTF-8" standalone="no"?>
<!DOCTYPE svg PUBLIC "-//W3C//DTD SVG 1.1//EN"
 "http://www.w3.org/Graphics/SVG/1.1/DTD/svg11.dtd">
<!-- Generated by graphviz version 2.36.0 (20140111.2315)
 -->
<!-- Title: G Pages: 1 -->
<svg width="100%" height="100%"
 viewBox="0.00 0.00 247.81 223.80" xmlns="http://www.w3.org/2000/svg" xmlns:xlink="http://www.w3.org/1999/xlink">
<g id="graph0" class="graph" transform="scale(1 1) rotate(0) translate(4 219.8)">
<title>G</title>
<!-- 0 -->
<g id="node1" class="node"><title>0</title>
<ellipse fill="cadetblue" stroke="black" cx="152.125" cy="-18" rx="18" ry="18"/>
</g>
<!-- 4 -->
<g id="node5" class="node"><title>4</title>
<ellipse fill="cadetblue" stroke="black" cx="198.994" cy="-47.1726" rx="18" ry="18"/>
</g>
<!-- 0&#45;&#45;4 -->
<g id="edge1" class="edge"><title>0&#45;&#45;4</title>
<path fill="none" stroke="black" stroke-width="2" d="M167.471,-27.5522C172.597,-30.7427 178.311,-34.2994 183.452,-37.499"/>
</g>
<!-- 6 -->
<g id="node7" class="node"><title>6</title>
<ellipse fill="cadetblue" stroke="black" cx="221.814" cy="-113.698" rx="18" ry="18"/>
</g>
<!-- 0&#45;&#45;6 -->
<g id="edge2" class="edge"><title>0&#45;&#45;6</title>
<path fill="none" stroke="black" stroke-width="2" d="M162.311,-33.0985C168.296,-41.8761 176.063,-53.1101 183.192,-62.9364 192.166,-75.3052 202.688,-89.0895 210.482,-99.169"/>
</g>
<!-- 7 -->
<g id="node8" class="node"><title>7</title>
<ellipse fill="cadetblue" stroke="black" cx="88.792" cy="-70.9803" rx="18" ry="18"/>
</g>
<!-- 0&#45;&#45;7 -->
<g id="edge3" class="edge"><title>0&#45;&#45;7</title>
<path fill="none" stroke="black" stroke-width="2" d="M138.069,-29.7581C127.574,-38.5378 113.294,-50.4833 102.808,-59.2551"/>
</g>
<!-- 8 -->
<g id="node9" class="node"><title>8</title>
<ellipse fill="cadetblue" stroke="black" cx="131.905" cy="-114.985" rx="18" ry="18"/>
</g>
<!-- 0&#45;&#45;8 -->
<g id="edge4" class="edge"><title>0&#45;&#45;8</title>
<path fill="none" stroke="black" stroke-width="2" d="M148.416,-35.7885C144.768,-53.2877 139.23,-79.8489 135.59,-97.309"/>
</g>
<!-- 1 -->
<g id="node2" class="node"><title>1</title>
<ellipse fill="cadetblue" stroke="black" cx="169.932" cy="-194.607" rx="18" ry="18"/>
</g>
<!-- 5 -->
<g id="node6" class="node"><title>5</title>
<ellipse fill="cadetblue" stroke="black" cx="55.5618" cy="-150.684" rx="18" ry="18"/>
</g>
<!-- 1&#45;&#45;5 -->
<g id="edge5" class="edge"><title>1&#45;&#45;5</title>
<path fill="none" stroke="black" stroke-width="2" d="M153.056,-188.126C131.433,-179.822 94.1636,-165.509 72.5068,-157.192"/>
</g>
<!-- 1&#45;&#45;6 -->
<g id="edge6" class="edge"><title>1&#45;&#45;6</title>
<path fill="none" stroke="black" stroke-width="2" d="M179.691,-179.389C188.908,-165.015 202.663,-143.564 211.923,-129.123"/>
</g>
<!-- 1&#45;&#45;8 -->
<g id="edge7" class="edge"><title>1&#45;&#45;8</title>
<path fill="none" stroke="black" stroke-width="2" d="M162.053,-178.109C155.526,-164.444 146.298,-145.121 139.774,-131.461"/>
</g>
<!-- 2 -->
<g id="node3" class="node"><title>2</title>
<ellipse fill="cadetblue" stroke="black" cx="18" cy="-76.4483" rx="18" ry="18"/>
</g>
<!-- 2&#45;&#45;5 -->
<g id="edge8" class="edge"><title>2&#45;&#45;5</title>
<path fill="none" stroke="black" stroke-width="2" d="M26.1504,-92.5563C32.4507,-105.008 41.131,-122.164 47.4274,-134.607"/>
</g>
<!-- 2&#45;&#45;7 -->
<g id="edge9" class="edge"><title>2&#45;&#45;7</title>
<path fill="none" stroke="black" stroke-width="2" d="M36.2307,-75.0401C46.7183,-74.2301 59.8586,-73.2151 70.377,-72.4027"/>
</g>
<!-- 2&#45;&#45;8 -->
<g id="edge10" class="edge"><title>2&#45;&#45;8</title>
<path fill="none" stroke="black" stroke-width="2" d="M35.2997,-82.3011C56.8333,-89.5864 93.3807,-101.951 114.816,-109.203"/>
</g>
<!-- 3 -->
<g id="node4" class="node"><title>3</title>
<ellipse fill="cadetblue" stroke="black" cx="84.8751" cy="-197.8" rx="18" ry="18"/>
</g>
<!-- 3&#45;&#45;5 -->
<g id="edge11" class="edge"><title>3&#45;&#45;5</title>
<path fill="none" stroke="black" stroke-width="2" d="M75.2769,-182.373C72.0042,-177.112 68.348,-171.236 65.0815,-165.985"/>
</g>
<!-- 3&#45;&#45;7 -->
<g id="edge12" class="edge"><title>3&#45;&#45;7</title>
<path fill="none" stroke="black" stroke-width="2" d="M85.4363,-179.63C86.1809,-155.521 87.4878,-113.208 88.2318,-89.1168"/>
</g>
<!-- 3&#45;&#45;8 -->
<g id="edge13" class="edge"><title>3&#45;&#45;8</title>
<path fill="none" stroke="black" stroke-width="2" d="M93.943,-181.832C102.271,-167.168 114.546,-145.553 122.865,-130.903"/>
</g>
<!-- 4&#45;&#45;6 -->
<g id="edge14" class="edge"><title>4&#45;&#45;6</title>
<path fill="none" stroke="black" stroke-width="2" d="M204.87,-64.3044C208.251,-74.1598 212.487,-86.5081 215.878,-96.3926"/>
</g>
<!-- 4&#45;&#45;7 -->
<g id="edge15" class="edge"><title>4&#45;&#45;7</title>
<path fill="none" stroke="black" stroke-width="2" d="M181.288,-50.9977C160.723,-55.4405 127,-62.726 106.454,-67.1647"/>
</g>
<!-- 4&#45;&#45;8 -->
<g id="edge16" class="edge"><title>4&#45;&#45;8</title>
<path fill="none" stroke="black" stroke-width="2" d="M186.058,-60.2474C174.179,-72.2554 156.668,-89.9547 144.801,-101.95"/>
</g>
<!-- 5&#45;&#45;7 -->
<g id="edge17" class="edge"><title>5&#45;&#45;7</title>
<path fill="none" stroke="black" stroke-width="2" d="M62.6091,-133.781C68.2484,-120.255 76.1183,-101.379 81.7549,-87.8591"/>
</g>
<!-- 5&#45;&#45;8 -->
<g id="edge18" class="edge"><title>5&#45;&#45;8</title>
<path fill="none" stroke="black" stroke-width="2" d="M72.1272,-142.938C84.9325,-136.95 102.575,-128.7 115.372,-122.716"/>
</g>
<!-- 6&#45;&#45;8 -->
<g id="edge19" class="edge"><title>6&#45;&#45;8</title>
<path fill="none" stroke="black" stroke-width="2" d="M203.62,-113.958C188.021,-114.181 165.663,-114.501 150.073,-114.725"/>
</g>
</g>
</svg>

