<?xml version="1.0" encoding="UTF-8" standalone="no"?>
<!DOCTYPE svg PUBLIC "-//W3C//DTD SVG 1.1//EN"
 "http://www.w3.org/Graphics/SVG/1.1/DTD/svg11.dtd">
<!-- Generated by graphviz version 2.36.0 (20140111.2315)
 -->
<!-- Title: G Pages: 1 -->
<svg width="100%" height="100%"
 viewBox="0.00 0.00 329.87 295.53" xmlns="http://www.w3.org/2000/svg" xmlns:xlink="http://www.w3.org/1999/xlink">
<g id="graph0" class="graph" transform="scale(1 1) rotate(0) translate(4 291.532)">
<title>G</title>
<!-- 0 -->
<g id="node1" class="node"><title>0</title>
<ellipse fill="cadetblue" stroke="black" cx="18" cy="-177.96" rx="18" ry="18"/>
</g>
<!-- 4 -->
<g id="node5" class="node"><title>4</title>
<ellipse fill="cadetblue" stroke="black" cx="155.888" cy="-149.469" rx="18" ry="18"/>
</g>
<!-- 0&#45;&#45;4 -->
<g id="edge1" class="edge"><title>0&#45;&#45;4</title>
<path fill="none" stroke="black" stroke-width="2" d="M35.7442,-174.294C62.2205,-168.823 111.775,-158.584 138.212,-153.122"/>
</g>
<!-- 5 -->
<g id="node6" class="node"><title>5</title>
<ellipse fill="cadetblue" stroke="black" cx="116.84" cy="-230.301" rx="18" ry="18"/>
</g>
<!-- 0&#45;&#45;5 -->
<g id="edge2" class="edge"><title>0&#45;&#45;5</title>
<path fill="none" stroke="black" stroke-width="2" d="M34.3214,-186.603C52.7445,-196.359 82.525,-212.129 100.822,-221.818"/>
</g>
<!-- 7 -->
<g id="node8" class="node"><title>7</title>
<ellipse fill="cadetblue" stroke="black" cx="139.366" cy="-105.465" rx="18" ry="18"/>
</g>
<!-- 0&#45;&#45;7 -->
<g id="edge3" class="edge"><title>0&#45;&#45;7</title>
<path fill="none" stroke="black" stroke-width="2" d="M33.8665,-168.483C57.2547,-154.512 100.711,-128.555 123.879,-114.716"/>
</g>
<!-- 8 -->
<g id="node9" class="node"><title>8</title>
<ellipse fill="cadetblue" stroke="black" cx="53.7052" cy="-72.7637" rx="18" ry="18"/>
</g>
<!-- 0&#45;&#45;8 -->
<g id="edge4" class="edge"><title>0&#45;&#45;8</title>
<path fill="none" stroke="black" stroke-width="2" d="M23.896,-160.589C30.5512,-140.981 41.3092,-109.285 47.9189,-89.8116"/>
</g>
<!-- 1 -->
<g id="node2" class="node"><title>1</title>
<ellipse fill="cadetblue" stroke="black" cx="197.609" cy="-18" rx="18" ry="18"/>
</g>
<!-- 1&#45;&#45;4 -->
<g id="edge5" class="edge"><title>1&#45;&#45;4</title>
<path fill="none" stroke="black" stroke-width="2" d="M192.155,-35.1873C184.159,-60.3834 169.34,-107.079 161.344,-132.278"/>
</g>
<!-- 6 -->
<g id="node7" class="node"><title>6</title>
<ellipse fill="cadetblue" stroke="black" cx="303.865" cy="-164.784" rx="18" ry="18"/>
</g>
<!-- 1&#45;&#45;6 -->
<g id="edge6" class="edge"><title>1&#45;&#45;6</title>
<path fill="none" stroke="black" stroke-width="2" d="M203.926,-35.0744C211.87,-55.1899 226.839,-89.0259 246.154,-113.984 258.49,-129.923 276.352,-144.734 288.929,-154.201"/>
</g>
<!-- 1&#45;&#45;7 -->
<g id="edge7" class="edge"><title>1&#45;&#45;7</title>
<path fill="none" stroke="black" stroke-width="2" d="M187.464,-33.2353C176.774,-49.2889 160.041,-74.4169 149.395,-90.4044"/>
</g>
<!-- 1&#45;&#45;8 -->
<g id="edge8" class="edge"><title>1&#45;&#45;8</title>
<path fill="none" stroke="black" stroke-width="2" d="M180.536,-24.4972C152.841,-35.0369 98.437,-55.7407 70.7557,-66.275"/>
</g>
<!-- 2 -->
<g id="node3" class="node"><title>2</title>
<ellipse fill="cadetblue" stroke="black" cx="262.092" cy="-98.358" rx="18" ry="18"/>
</g>
<!-- 2&#45;&#45;5 -->
<g id="edge9" class="edge"><title>2&#45;&#45;5</title>
<path fill="none" stroke="black" stroke-width="2" d="M248.688,-110.534C221.016,-135.67 157.856,-193.043 130.212,-218.154"/>
</g>
<!-- 2&#45;&#45;6 -->
<g id="edge10" class="edge"><title>2&#45;&#45;6</title>
<path fill="none" stroke="black" stroke-width="2" d="M271.781,-113.764C278.529,-124.496 287.492,-138.748 294.229,-149.461"/>
</g>
<!-- 2&#45;&#45;7 -->
<g id="edge11" class="edge"><title>2&#45;&#45;7</title>
<path fill="none" stroke="black" stroke-width="2" d="M243.984,-99.4066C220.78,-100.75 180.788,-103.066 157.549,-104.412"/>
</g>
<!-- 3 -->
<g id="node4" class="node"><title>3</title>
<ellipse fill="cadetblue" stroke="black" cx="227.878" cy="-269.532" rx="18" ry="18"/>
</g>
<!-- 3&#45;&#45;5 -->
<g id="edge12" class="edge"><title>3&#45;&#45;5</title>
<path fill="none" stroke="black" stroke-width="2" d="M210.528,-263.402C189.668,-256.032 154.873,-243.739 134.068,-236.387"/>
</g>
<!-- 3&#45;&#45;6 -->
<g id="edge13" class="edge"><title>3&#45;&#45;6</title>
<path fill="none" stroke="black" stroke-width="2" d="M238.765,-254.524C253.292,-234.499 278.852,-199.265 293.243,-179.426"/>
</g>
<!-- 3&#45;&#45;7 -->
<g id="edge14" class="edge"><title>3&#45;&#45;7</title>
<path fill="none" stroke="black" stroke-width="2" d="M223.419,-251.953C215.93,-224.751 198.918,-171.646 171.689,-133.706 166.91,-127.046 160.27,-120.896 154.251,-116.046"/>
</g>
<!-- 4&#45;&#45;5 -->
<g id="edge15" class="edge"><title>4&#45;&#45;5</title>
<path fill="none" stroke="black" stroke-width="2" d="M147.986,-165.827C141.211,-179.851 131.501,-199.951 124.73,-213.968"/>
</g>
<!-- 4&#45;&#45;6 -->
<g id="edge16" class="edge"><title>4&#45;&#45;6</title>
<path fill="none" stroke="black" stroke-width="2" d="M174.033,-151.347C202.434,-154.287 257.08,-159.942 285.572,-162.891"/>
</g>
<!-- 4&#45;&#45;8 -->
<g id="edge17" class="edge"><title>4&#45;&#45;8</title>
<path fill="none" stroke="black" stroke-width="2" d="M141.248,-138.479C121.823,-123.898 87.7296,-98.3049 68.3183,-83.7334"/>
</g>
<!-- 5&#45;&#45;8 -->
<g id="edge18" class="edge"><title>5&#45;&#45;8</title>
<path fill="none" stroke="black" stroke-width="2" d="M110.083,-213.441C97.9317,-183.12 72.5293,-119.735 60.4131,-89.5017"/>
</g>
<!-- 7&#45;&#45;8 -->
<g id="edge19" class="edge"><title>7&#45;&#45;8</title>
<path fill="none" stroke="black" stroke-width="2" d="M122.442,-99.0043C107.425,-93.2713 85.6007,-84.94 70.5938,-79.211"/>
</g>
</g>
</svg>

