<?xml version="1.0" encoding="UTF-8" standalone="no"?>
<!DOCTYPE svg PUBLIC "-//W3C//DTD SVG 1.1//EN"
 "http://www.w3.org/Graphics/SVG/1.1/DTD/svg11.dtd">
<!-- Generated by graphviz version 2.36.0 (20140111.2315)
 -->
<!-- Title: G Pages: 1 -->
<svg width="100%" height="100%"
 viewBox="0.00 0.00 237.11 262.37" xmlns="http://www.w3.org/2000/svg" xmlns:xlink="http://www.w3.org/1999/xlink">
<g id="graph0" class="graph" transform="scale(1 1) rotate(0) translate(4 258.37)">
<title>G</title>
<!-- 0 -->
<g id="node1" class="node"><title>0</title>
<ellipse fill="cadetblue" stroke="black" cx="36.3443" cy="-197.424" rx="18" ry="18"/>
</g>
<!-- 4 -->
<g id="node5" class="node"><title>4</title>
<ellipse fill="cadetblue" stroke="black" cx="134.699" cy="-236.37" rx="18" ry="18"/>
</g>
<!-- 0&#45;&#45;4 -->
<g id="edge1" class="edge"><title>0&#45;&#45;4</title>
<path fill="none" stroke="black" stroke-width="2" d="M53.4763,-204.208C71.5286,-211.356 99.7851,-222.545 117.763,-229.663"/>
</g>
<!-- 5 -->
<g id="node6" class="node"><title>5</title>
<ellipse fill="cadetblue" stroke="black" cx="18" cy="-84.4227" rx="18" ry="18"/>
</g>
<!-- 0&#45;&#45;5 -->
<g id="edge2" class="edge"><title>0&#45;&#45;5</title>
<path fill="none" stroke="black" stroke-width="2" d="M33.4376,-179.518C30.0027,-158.359 24.3221,-123.367 20.8931,-102.244"/>
</g>
<!-- 8 -->
<g id="node9" class="node"><title>8</title>
<ellipse fill="cadetblue" stroke="black" cx="123.772" cy="-146.618" rx="18" ry="18"/>
</g>
<!-- 0&#45;&#45;8 -->
<g id="edge3" class="edge"><title>0&#45;&#45;8</title>
<path fill="none" stroke="black" stroke-width="2" d="M51.9746,-188.341C67.7898,-179.15 92.1098,-165.017 107.982,-155.794"/>
</g>
<!-- 1 -->
<g id="node2" class="node"><title>1</title>
<ellipse fill="cadetblue" stroke="black" cx="211.108" cy="-158.732" rx="18" ry="18"/>
</g>
<!-- 1&#45;&#45;4 -->
<g id="edge4" class="edge"><title>1&#45;&#45;4</title>
<path fill="none" stroke="black" stroke-width="2" d="M198.146,-171.902C184.01,-186.265 161.529,-209.108 147.469,-223.394"/>
</g>
<!-- 6 -->
<g id="node7" class="node"><title>6</title>
<ellipse fill="cadetblue" stroke="black" cx="195.655" cy="-72.1525" rx="18" ry="18"/>
</g>
<!-- 1&#45;&#45;6 -->
<g id="edge5" class="edge"><title>1&#45;&#45;6</title>
<path fill="none" stroke="black" stroke-width="2" d="M207.906,-140.793C205.254,-125.933 201.504,-104.922 198.853,-90.0688"/>
</g>
<!-- 7 -->
<g id="node8" class="node"><title>7</title>
<ellipse fill="cadetblue" stroke="black" cx="151.651" cy="-48.9487" rx="18" ry="18"/>
</g>
<!-- 1&#45;&#45;7 -->
<g id="edge6" class="edge"><title>1&#45;&#45;7</title>
<path fill="none" stroke="black" stroke-width="2" d="M202.335,-142.533C191.029,-121.657 171.496,-85.5906 160.267,-64.8571"/>
</g>
<!-- 1&#45;&#45;8 -->
<g id="edge7" class="edge"><title>1&#45;&#45;8</title>
<path fill="none" stroke="black" stroke-width="2" d="M193.012,-156.222C178.023,-154.143 156.827,-151.203 141.845,-149.125"/>
</g>
<!-- 2 -->
<g id="node3" class="node"><title>2</title>
<ellipse fill="cadetblue" stroke="black" cx="93.3985" cy="-18" rx="18" ry="18"/>
</g>
<!-- 2&#45;&#45;5 -->
<g id="edge8" class="edge"><title>2&#45;&#45;5</title>
<path fill="none" stroke="black" stroke-width="2" d="M79.5693,-30.1829C65.9649,-42.1677 45.3155,-60.3589 31.7416,-72.317"/>
</g>
<!-- 2&#45;&#45;6 -->
<g id="edge9" class="edge"><title>2&#45;&#45;6</title>
<path fill="none" stroke="black" stroke-width="2" d="M111.45,-17.3337C127.746,-17.6641 151.544,-20.5778 167.493,-33.2258 175.336,-39.4454 182.014,-48.3874 186.896,-56.1329"/>
</g>
<!-- 2&#45;&#45;7 -->
<g id="edge10" class="edge"><title>2&#45;&#45;7</title>
<path fill="none" stroke="black" stroke-width="2" d="M109.316,-26.4569C117.536,-30.8238 127.536,-36.1366 135.752,-40.5021"/>
</g>
<!-- 2&#45;&#45;8 -->
<g id="edge11" class="edge"><title>2&#45;&#45;8</title>
<path fill="none" stroke="black" stroke-width="2" d="M98.0117,-35.4719C100.906,-46.5775 104.665,-61.2715 107.775,-74.3299 112.183,-92.8355 116.841,-114.105 119.986,-128.757"/>
</g>
<!-- 3 -->
<g id="node4" class="node"><title>3</title>
<ellipse fill="cadetblue" stroke="black" cx="85.4553" cy="-74.2304" rx="18" ry="18"/>
</g>
<!-- 3&#45;&#45;5 -->
<g id="edge12" class="edge"><title>3&#45;&#45;5</title>
<path fill="none" stroke="black" stroke-width="2" d="M67.3786,-76.9617C57.7002,-78.4241 45.8126,-80.2203 36.1267,-81.6838"/>
</g>
<!-- 3&#45;&#45;6 -->
<g id="edge13" class="edge"><title>3&#45;&#45;6</title>
<path fill="none" stroke="black" stroke-width="2" d="M103.653,-73.8873C124.071,-73.5023 157.002,-72.8813 177.431,-72.4961"/>
</g>
<!-- 3&#45;&#45;7 -->
<g id="edge14" class="edge"><title>3&#45;&#45;7</title>
<path fill="none" stroke="black" stroke-width="2" d="M102.502,-67.7197C112.309,-63.9743 124.596,-59.2816 134.432,-55.5252"/>
</g>
<!-- 3&#45;&#45;8 -->
<g id="edge15" class="edge"><title>3&#45;&#45;8</title>
<path fill="none" stroke="black" stroke-width="2" d="M93.959,-90.2955C100.309,-102.291 108.948,-118.613 115.292,-130.598"/>
</g>
<!-- 4&#45;&#45;8 -->
<g id="edge16" class="edge"><title>4&#45;&#45;8</title>
<path fill="none" stroke="black" stroke-width="2" d="M132.487,-218.207C130.592,-202.635 127.874,-180.317 125.98,-164.754"/>
</g>
<!-- 5&#45;&#45;7 -->
<g id="edge17" class="edge"><title>5&#45;&#45;7</title>
<path fill="none" stroke="black" stroke-width="2" d="M33.3475,-74.4736C46.5711,-66.546 66.4869,-56.1048 85.5548,-51.9106 101.485,-48.4066 120.079,-47.8786 133.48,-48.1031"/>
</g>
<!-- 6&#45;&#45;8 -->
<g id="edge18" class="edge"><title>6&#45;&#45;8</title>
<path fill="none" stroke="black" stroke-width="2" d="M183.134,-85.1234C170.021,-98.7077 149.54,-119.924 136.39,-133.546"/>
</g>
</g>
</svg>

