<?xml version="1.0" encoding="UTF-8" standalone="no"?>
<!DOCTYPE svg PUBLIC "-//W3C//DTD SVG 1.1//EN"
 "http://www.w3.org/Graphics/SVG/1.1/DTD/svg11.dtd">
<!-- Generated by graphviz version 2.36.0 (20140111.2315)
 -->
<!-- Title: G Pages: 1 -->
<svg width="100%" height="100%"
 viewBox="0.00 0.00 263.63 247.93" xmlns="http://www.w3.org/2000/svg" xmlns:xlink="http://www.w3.org/1999/xlink">
<g id="graph0" class="graph" transform="scale(1 1) rotate(0) translate(4 243.934)">
<title>G</title>
<!-- 0 -->
<g id="node1" class="node"><title>0</title>
<ellipse fill="cadetblue" stroke="black" cx="165.486" cy="-18" rx="18" ry="18"/>
</g>
<!-- 4 -->
<g id="node5" class="node"><title>4</title>
<ellipse fill="cadetblue" stroke="black" cx="237.635" cy="-111.916" rx="18" ry="18"/>
</g>
<!-- 0&#45;&#45;4 -->
<g id="edge1" class="edge"><title>0&#45;&#45;4</title>
<path fill="none" stroke="black" stroke-width="2" d="M176.759,-32.6743C190.313,-50.3179 212.922,-79.7468 226.441,-97.3443"/>
</g>
<!-- 5 -->
<g id="node6" class="node"><title>5</title>
<ellipse fill="cadetblue" stroke="black" cx="37.6724" cy="-108.481" rx="18" ry="18"/>
</g>
<!-- 0&#45;&#45;5 -->
<g id="edge2" class="edge"><title>0&#45;&#45;5</title>
<path fill="none" stroke="black" stroke-width="2" d="M150.574,-28.5564C125.945,-45.9912 77.0551,-80.6014 52.4894,-97.9919"/>
</g>
<!-- 6 -->
<g id="node7" class="node"><title>6</title>
<ellipse fill="cadetblue" stroke="black" cx="135.939" cy="-116.983" rx="18" ry="18"/>
</g>
<!-- 0&#45;&#45;6 -->
<g id="edge3" class="edge"><title>0&#45;&#45;6</title>
<path fill="none" stroke="black" stroke-width="2" d="M160.203,-35.6962C154.825,-53.713 146.537,-81.4787 141.176,-99.4401"/>
</g>
<!-- 1 -->
<g id="node2" class="node"><title>1</title>
<ellipse fill="cadetblue" stroke="black" cx="18" cy="-201.641" rx="18" ry="18"/>
</g>
<!-- 1&#45;&#45;5 -->
<g id="edge4" class="edge"><title>1&#45;&#45;5</title>
<path fill="none" stroke="black" stroke-width="2" d="M21.793,-183.679C25.2766,-167.182 30.4112,-142.867 33.891,-126.388"/>
</g>
<!-- 1&#45;&#45;6 -->
<g id="edge5" class="edge"><title>1&#45;&#45;6</title>
<path fill="none" stroke="black" stroke-width="2" d="M32.9371,-190.919C55.6232,-174.635 98.5096,-143.85 121.123,-127.618"/>
</g>
<!-- 7 -->
<g id="node8" class="node"><title>7</title>
<ellipse fill="cadetblue" stroke="black" cx="119.646" cy="-160.987" rx="18" ry="18"/>
</g>
<!-- 1&#45;&#45;7 -->
<g id="edge6" class="edge"><title>1&#45;&#45;7</title>
<path fill="none" stroke="black" stroke-width="2" d="M34.7847,-194.928C53.618,-187.396 83.9925,-175.247 102.836,-167.711"/>
</g>
<!-- 2 -->
<g id="node3" class="node"><title>2</title>
<ellipse fill="cadetblue" stroke="black" cx="57.1106" cy="-29.6947" rx="18" ry="18"/>
</g>
<!-- 2&#45;&#45;5 -->
<g id="edge7" class="edge"><title>2&#45;&#45;5</title>
<path fill="none" stroke="black" stroke-width="2" d="M52.7967,-47.1799C49.5978,-60.1455 45.2535,-77.7537 42.0415,-90.7723"/>
</g>
<!-- 2&#45;&#45;6 -->
<g id="edge8" class="edge"><title>2&#45;&#45;6</title>
<path fill="none" stroke="black" stroke-width="2" d="M69.4276,-43.3335C84.2368,-59.732 108.938,-87.0843 123.709,-103.44"/>
</g>
<!-- 2&#45;&#45;7 -->
<g id="edge9" class="edge"><title>2&#45;&#45;7</title>
<path fill="none" stroke="black" stroke-width="2" d="M64.9043,-46.0575C76.8876,-71.2167 99.7114,-119.135 111.754,-144.418"/>
</g>
<!-- 3 -->
<g id="node4" class="node"><title>3</title>
<ellipse fill="cadetblue" stroke="black" cx="225.462" cy="-221.549" rx="18" ry="18"/>
</g>
<!-- 3&#45;&#45;6 -->
<g id="edge10" class="edge"><title>3&#45;&#45;6</title>
<path fill="none" stroke="black" stroke-width="2" d="M213.388,-207.447C196.207,-187.378 164.897,-150.807 147.821,-130.862"/>
</g>
<!-- 3&#45;&#45;7 -->
<g id="edge11" class="edge"><title>3&#45;&#45;7</title>
<path fill="none" stroke="black" stroke-width="2" d="M209.39,-212.351C189.386,-200.902 155.434,-181.47 135.521,-170.074"/>
</g>
<!-- 8 -->
<g id="node9" class="node"><title>8</title>
<ellipse fill="cadetblue" stroke="black" cx="145.127" cy="-221.934" rx="18" ry="18"/>
</g>
<!-- 3&#45;&#45;8 -->
<g id="edge12" class="edge"><title>3&#45;&#45;8</title>
<path fill="none" stroke="black" stroke-width="2" d="M207.232,-221.636C194.085,-221.699 176.415,-221.784 163.284,-221.847"/>
</g>
<!-- 4&#45;&#45;7 -->
<g id="edge13" class="edge"><title>4&#45;&#45;7</title>
<path fill="none" stroke="black" stroke-width="2" d="M220.98,-118.842C198.62,-128.142 159.109,-144.575 136.598,-153.937"/>
</g>
<!-- 4&#45;&#45;8 -->
<g id="edge14" class="edge"><title>4&#45;&#45;8</title>
<path fill="none" stroke="black" stroke-width="2" d="M225.919,-125.849C208.124,-147.012 174.486,-187.018 156.748,-208.113"/>
</g>
<!-- 5&#45;&#45;8 -->
<g id="edge15" class="edge"><title>5&#45;&#45;8</title>
<path fill="none" stroke="black" stroke-width="2" d="M50.4209,-121.941C71.2127,-143.893 112.163,-187.129 132.727,-208.841"/>
</g>
<!-- 6&#45;&#45;8 -->
<g id="edge16" class="edge"><title>6&#45;&#45;8</title>
<path fill="none" stroke="black" stroke-width="2" d="M138.745,-134.962C139.9,-142.942 141.154,-152.457 141.965,-161.072 143.314,-175.398 144.122,-191.679 144.583,-203.795"/>
</g>
<!-- 7&#45;&#45;8 -->
<g id="edge17" class="edge"><title>7&#45;&#45;8</title>
<path fill="none" stroke="black" stroke-width="2" d="M126.609,-177.641C130.204,-186.241 134.578,-196.703 138.173,-205.3"/>
</g>
</g>
</svg>

