<?xml version="1.0" encoding="UTF-8" standalone="no"?>
<!DOCTYPE svg PUBLIC "-//W3C//DTD SVG 1.1//EN"
 "http://www.w3.org/Graphics/SVG/1.1/DTD/svg11.dtd">
<!-- Generated by graphviz version 2.36.0 (20140111.2315)
 -->
<!-- Title: G Pages: 1 -->
<svg width="100%" height="100%"
 viewBox="0.00 0.00 238.71 209.27" xmlns="http://www.w3.org/2000/svg" xmlns:xlink="http://www.w3.org/1999/xlink">
<g id="graph0" class="graph" transform="scale(1 1) rotate(0) translate(4 205.268)">
<title>G</title>
<!-- 0 -->
<g id="node1" class="node"><title>0</title>
<ellipse fill="cadetblue" stroke="black" cx="66.6116" cy="-92.146" rx="18" ry="18"/>
</g>
<!-- 4 -->
<g id="node5" class="node"><title>4</title>
<ellipse fill="cadetblue" stroke="black" cx="58.6508" cy="-183.268" rx="18" ry="18"/>
</g>
<!-- 0&#45;&#45;4 -->
<g id="edge1" class="edge"><title>0&#45;&#45;4</title>
<path fill="none" stroke="black" stroke-width="2" d="M65.0388,-110.149C63.6432,-126.124 61.615,-149.339 60.2204,-165.303"/>
</g>
<!-- 5 -->
<g id="node6" class="node"><title>5</title>
<ellipse fill="cadetblue" stroke="black" cx="18" cy="-121.752" rx="18" ry="18"/>
</g>
<!-- 0&#45;&#45;5 -->
<g id="edge2" class="edge"><title>0&#45;&#45;5</title>
<path fill="none" stroke="black" stroke-width="2" d="M51.2306,-101.514C45.5562,-104.969 39.1281,-108.884 33.4478,-112.344"/>
</g>
<!-- 6 -->
<g id="node7" class="node"><title>6</title>
<ellipse fill="cadetblue" stroke="black" cx="168.059" cy="-49.997" rx="18" ry="18"/>
</g>
<!-- 0&#45;&#45;6 -->
<g id="edge3" class="edge"><title>0&#45;&#45;6</title>
<path fill="none" stroke="black" stroke-width="2" d="M83.196,-84.3443C90.8253,-80.806 100.016,-76.6147 108.357,-73.0027 122.525,-66.8669 138.909,-60.6118 150.925,-56.1758"/>
</g>
<!-- 7 -->
<g id="node8" class="node"><title>7</title>
<ellipse fill="cadetblue" stroke="black" cx="128.186" cy="-137.572" rx="18" ry="18"/>
</g>
<!-- 0&#45;&#45;7 -->
<g id="edge4" class="edge"><title>0&#45;&#45;7</title>
<path fill="none" stroke="black" stroke-width="2" d="M81.2039,-102.911C91.0193,-110.153 103.905,-119.659 113.698,-126.884"/>
</g>
<!-- 8 -->
<g id="node9" class="node"><title>8</title>
<ellipse fill="cadetblue" stroke="black" cx="124.055" cy="-88.869" rx="18" ry="18"/>
</g>
<!-- 0&#45;&#45;8 -->
<g id="edge5" class="edge"><title>0&#45;&#45;8</title>
<path fill="none" stroke="black" stroke-width="2" d="M84.7871,-91.1092C91.4925,-90.7266 99.0884,-90.2933 105.801,-89.9104"/>
</g>
<!-- 1 -->
<g id="node2" class="node"><title>1</title>
<ellipse fill="cadetblue" stroke="black" cx="192.762" cy="-150.651" rx="18" ry="18"/>
</g>
<!-- 1&#45;&#45;6 -->
<g id="edge6" class="edge"><title>1&#45;&#45;6</title>
<path fill="none" stroke="black" stroke-width="2" d="M188.459,-133.119C183.953,-114.757 176.915,-86.0793 172.396,-67.6664"/>
</g>
<!-- 1&#45;&#45;7 -->
<g id="edge7" class="edge"><title>1&#45;&#45;7</title>
<path fill="none" stroke="black" stroke-width="2" d="M175.116,-147.077C166.154,-145.262 155.282,-143.06 146.26,-141.233"/>
</g>
<!-- 1&#45;&#45;8 -->
<g id="edge8" class="edge"><title>1&#45;&#45;8</title>
<path fill="none" stroke="black" stroke-width="2" d="M179.188,-138.445C167.143,-127.614 149.638,-111.873 137.601,-101.05"/>
</g>
<!-- 2 -->
<g id="node3" class="node"><title>2</title>
<ellipse fill="cadetblue" stroke="black" cx="107.747" cy="-18" rx="18" ry="18"/>
</g>
<!-- 2&#45;&#45;6 -->
<g id="edge9" class="edge"><title>2&#45;&#45;6</title>
<path fill="none" stroke="black" stroke-width="2" d="M123.91,-26.5746C132.563,-31.1655 143.192,-36.8043 151.852,-41.3987"/>
</g>
<!-- 2&#45;&#45;7 -->
<g id="edge10" class="edge"><title>2&#45;&#45;7</title>
<path fill="none" stroke="black" stroke-width="2" d="M103.92,-35.8136C101.392,-50.167 99.004,-70.8362 101.735,-88.7503 103.653,-101.33 110.626,-113.917 116.93,-123.159"/>
</g>
<!-- 2&#45;&#45;8 -->
<g id="edge11" class="edge"><title>2&#45;&#45;8</title>
<path fill="none" stroke="black" stroke-width="2" d="M111.862,-35.8832C114.353,-46.7085 117.517,-60.4574 119.998,-71.237"/>
</g>
<!-- 3 -->
<g id="node4" class="node"><title>3</title>
<ellipse fill="cadetblue" stroke="black" cx="212.711" cy="-96.6952" rx="18" ry="18"/>
</g>
<!-- 3&#45;&#45;6 -->
<g id="edge12" class="edge"><title>3&#45;&#45;6</title>
<path fill="none" stroke="black" stroke-width="2" d="M200.035,-83.4383C193.95,-77.0746 186.681,-69.4724 180.613,-63.1254"/>
</g>
<!-- 3&#45;&#45;7 -->
<g id="edge13" class="edge"><title>3&#45;&#45;7</title>
<path fill="none" stroke="black" stroke-width="2" d="M196.414,-104.577C181.446,-111.815 159.385,-122.484 144.433,-129.715"/>
</g>
<!-- 3&#45;&#45;8 -->
<g id="edge14" class="edge"><title>3&#45;&#45;8</title>
<path fill="none" stroke="black" stroke-width="2" d="M194.77,-95.1115C179.49,-93.7626 157.633,-91.8331 142.274,-90.4773"/>
</g>
<!-- 4&#45;&#45;5 -->
<g id="edge15" class="edge"><title>4&#45;&#45;5</title>
<path fill="none" stroke="black" stroke-width="2" d="M48.6023,-168.062C42.3012,-158.526 34.212,-146.285 27.9329,-136.783"/>
</g>
<!-- 4&#45;&#45;7 -->
<g id="edge16" class="edge"><title>4&#45;&#45;7</title>
<path fill="none" stroke="black" stroke-width="2" d="M73.7389,-173.353C85.4023,-165.688 101.471,-155.128 113.127,-147.468"/>
</g>
<!-- 5&#45;&#45;8 -->
<g id="edge17" class="edge"><title>5&#45;&#45;8</title>
<path fill="none" stroke="black" stroke-width="2" d="M36.2128,-120.08C45.4254,-118.968 56.7159,-117.196 66.5788,-114.466 81.1067,-110.445 96.6736,-103.321 107.938,-97.6075"/>
</g>
<!-- 6&#45;&#45;8 -->
<g id="edge18" class="edge"><title>6&#45;&#45;8</title>
<path fill="none" stroke="black" stroke-width="2" d="M154.136,-62.2963C148.899,-66.9228 142.952,-72.1758 137.737,-76.7827"/>
</g>
</g>
</svg>

