<?xml version="1.0" encoding="UTF-8" standalone="no"?>
<!DOCTYPE svg PUBLIC "-//W3C//DTD SVG 1.1//EN"
 "http://www.w3.org/Graphics/SVG/1.1/DTD/svg11.dtd">
<!-- Generated by graphviz version 2.36.0 (20140111.2315)
 -->
<!-- Title: G Pages: 1 -->
<svg width="100%" height="100%"
 viewBox="0.00 0.00 193.99 207.21" xmlns="http://www.w3.org/2000/svg" xmlns:xlink="http://www.w3.org/1999/xlink">
<g id="graph0" class="graph" transform="scale(1 1) rotate(0) translate(4 203.208)">
<title>G</title>
<!-- 0 -->
<g id="node1" class="node"><title>0</title>
<ellipse fill="cadetblue" stroke="black" cx="48.4186" cy="-181.208" rx="18" ry="18"/>
</g>
<!-- 4 -->
<g id="node5" class="node"><title>4</title>
<ellipse fill="cadetblue" stroke="black" cx="18" cy="-93.2413" rx="18" ry="18"/>
</g>
<!-- 0&#45;&#45;4 -->
<g id="edge1" class="edge"><title>0&#45;&#45;4</title>
<path fill="none" stroke="black" stroke-width="2" d="M42.4088,-163.829C37.0414,-148.307 29.2255,-125.704 23.8937,-110.285"/>
</g>
<!-- 5 -->
<g id="node6" class="node"><title>5</title>
<ellipse fill="cadetblue" stroke="black" cx="139.688" cy="-149.816" rx="18" ry="18"/>
</g>
<!-- 0&#45;&#45;5 -->
<g id="edge2" class="edge"><title>0&#45;&#45;5</title>
<path fill="none" stroke="black" stroke-width="2" d="M65.5856,-175.303C81.903,-169.691 106.306,-161.298 122.598,-155.694"/>
</g>
<!-- 6 -->
<g id="node7" class="node"><title>6</title>
<ellipse fill="cadetblue" stroke="black" cx="82.4167" cy="-126.367" rx="18" ry="18"/>
</g>
<!-- 0&#45;&#45;6 -->
<g id="edge3" class="edge"><title>0&#45;&#45;6</title>
<path fill="none" stroke="black" stroke-width="2" d="M58.0701,-165.639C62.7031,-158.166 68.2379,-149.238 72.8587,-141.785"/>
</g>
<!-- 1 -->
<g id="node2" class="node"><title>1</title>
<ellipse fill="cadetblue" stroke="black" cx="18.1138" cy="-18" rx="18" ry="18"/>
</g>
<!-- 1&#45;&#45;4 -->
<g id="edge4" class="edge"><title>1&#45;&#45;4</title>
<path fill="none" stroke="black" stroke-width="2" d="M18.0863,-36.2138C18.0684,-48.0436 18.0452,-63.3989 18.0273,-75.1952"/>
</g>
<!-- 7 -->
<g id="node8" class="node"><title>7</title>
<ellipse fill="cadetblue" stroke="black" cx="89.0098" cy="-27.5675" rx="18" ry="18"/>
</g>
<!-- 1&#45;&#45;7 -->
<g id="edge5" class="edge"><title>1&#45;&#45;7</title>
<path fill="none" stroke="black" stroke-width="2" d="M36.0039,-20.4143C46.6692,-21.8536 60.1713,-23.6757 70.8789,-25.1207"/>
</g>
<!-- 8 -->
<g id="node9" class="node"><title>8</title>
<ellipse fill="cadetblue" stroke="black" cx="94.0473" cy="-71.5719" rx="18" ry="18"/>
</g>
<!-- 1&#45;&#45;8 -->
<g id="edge6" class="edge"><title>1&#45;&#45;8</title>
<path fill="none" stroke="black" stroke-width="2" d="M33.1159,-28.5841C46.5145,-38.0369 66.0252,-51.802 79.3349,-61.1921"/>
</g>
<!-- 2 -->
<g id="node3" class="node"><title>2</title>
<ellipse fill="cadetblue" stroke="black" cx="167.995" cy="-42.0289" rx="18" ry="18"/>
</g>
<!-- 2&#45;&#45;5 -->
<g id="edge7" class="edge"><title>2&#45;&#45;5</title>
<path fill="none" stroke="black" stroke-width="2" d="M156.249,-55.8707C149.848,-64.4935 142.743,-76.175 140.293,-88.0476 137.303,-102.542 137.36,-119.358 138.049,-131.782"/>
</g>
<!-- 2&#45;&#45;7 -->
<g id="edge8" class="edge"><title>2&#45;&#45;7</title>
<path fill="none" stroke="black" stroke-width="2" d="M150.072,-38.7474C137.145,-36.3807 119.772,-33.1997 106.862,-30.836"/>
</g>
<!-- 2&#45;&#45;8 -->
<g id="edge9" class="edge"><title>2&#45;&#45;8</title>
<path fill="none" stroke="black" stroke-width="2" d="M151.215,-48.7327C139.198,-53.5335 123.076,-59.9744 111.017,-64.7924"/>
</g>
<!-- 3 -->
<g id="node4" class="node"><title>3</title>
<ellipse fill="cadetblue" stroke="black" cx="162.613" cy="-88.1471" rx="18" ry="18"/>
</g>
<!-- 3&#45;&#45;6 -->
<g id="edge10" class="edge"><title>3&#45;&#45;6</title>
<path fill="none" stroke="black" stroke-width="2" d="M145.996,-96.0663C132.141,-102.669 112.51,-112.025 98.7378,-118.589"/>
</g>
<!-- 3&#45;&#45;7 -->
<g id="edge11" class="edge"><title>3&#45;&#45;7</title>
<path fill="none" stroke="black" stroke-width="2" d="M148.422,-76.4667C135.388,-65.7395 116.177,-49.9279 103.158,-39.212"/>
</g>
<!-- 3&#45;&#45;8 -->
<g id="edge12" class="edge"><title>3&#45;&#45;8</title>
<path fill="none" stroke="black" stroke-width="2" d="M144.956,-83.8786C134.798,-81.423 122.071,-78.3463 111.883,-75.8835"/>
</g>
<!-- 4&#45;&#45;6 -->
<g id="edge13" class="edge"><title>4&#45;&#45;6</title>
<path fill="none" stroke="black" stroke-width="2" d="M34.255,-101.6C44.0947,-106.66 56.5919,-113.087 66.39,-118.125"/>
</g>
<!-- 4&#45;&#45;7 -->
<g id="edge14" class="edge"><title>4&#45;&#45;7</title>
<path fill="none" stroke="black" stroke-width="2" d="M31.3564,-80.8885C44.0518,-69.1471 63.0377,-51.5879 75.7133,-39.8648"/>
</g>
<!-- 4&#45;&#45;8 -->
<g id="edge15" class="edge"><title>4&#45;&#45;8</title>
<path fill="none" stroke="black" stroke-width="2" d="M35.6379,-88.2154C47.9236,-84.7147 64.2404,-80.0652 76.5051,-76.5705"/>
</g>
<!-- 5&#45;&#45;6 -->
<g id="edge16" class="edge"><title>5&#45;&#45;6</title>
<path fill="none" stroke="black" stroke-width="2" d="M122.814,-142.907C115.423,-139.881 106.767,-136.337 99.3674,-133.307"/>
</g>
<!-- 5&#45;&#45;8 -->
<g id="edge17" class="edge"><title>5&#45;&#45;8</title>
<path fill="none" stroke="black" stroke-width="2" d="M130.452,-133.982C122.533,-120.407 111.184,-100.95 103.27,-87.3821"/>
</g>
<!-- 6&#45;&#45;7 -->
<g id="edge18" class="edge"><title>6&#45;&#45;7</title>
<path fill="none" stroke="black" stroke-width="2" d="M76.4985,-109.183C73.4353,-98.4211 70.5568,-84.2202 71.7277,-71.4532 72.6101,-61.8311 76.3508,-51.7553 80.1274,-43.6883"/>
</g>
<!-- 7&#45;&#45;8 -->
<g id="edge19" class="edge"><title>7&#45;&#45;8</title>
<path fill="none" stroke="black" stroke-width="2" d="M91.0588,-45.4657C91.3639,-48.1307 91.6785,-50.879 91.9839,-53.5466"/>
</g>
</g>
</svg>

