<?xml version="1.0" encoding="UTF-8" standalone="no"?>
<!DOCTYPE svg PUBLIC "-//W3C//DTD SVG 1.1//EN"
 "http://www.w3.org/Graphics/SVG/1.1/DTD/svg11.dtd">
<!-- Generated by graphviz version 2.36.0 (20140111.2315)
 -->
<!-- Title: G Pages: 1 -->
<svg width="100%" height="100%"
 viewBox="0.00 0.00 235.96 241.90" xmlns="http://www.w3.org/2000/svg" xmlns:xlink="http://www.w3.org/1999/xlink">
<g id="graph0" class="graph" transform="scale(1 1) rotate(0) translate(4 237.901)">
<title>G</title>
<!-- 0 -->
<g id="node1" class="node"><title>0</title>
<ellipse fill="cadetblue" stroke="black" cx="18" cy="-150.222" rx="18" ry="18"/>
</g>
<!-- 4 -->
<g id="node5" class="node"><title>4</title>
<ellipse fill="cadetblue" stroke="black" cx="104.715" cy="-152.693" rx="18" ry="18"/>
</g>
<!-- 0&#45;&#45;4 -->
<g id="edge1" class="edge"><title>0&#45;&#45;4</title>
<path fill="none" stroke="black" stroke-width="2" d="M36.3901,-150.746C51.2054,-151.168 71.9207,-151.758 86.6491,-152.178"/>
</g>
<!-- 6 -->
<g id="node7" class="node"><title>6</title>
<ellipse fill="cadetblue" stroke="black" cx="113.151" cy="-215.901" rx="18" ry="18"/>
</g>
<!-- 0&#45;&#45;6 -->
<g id="edge2" class="edge"><title>0&#45;&#45;6</title>
<path fill="none" stroke="black" stroke-width="2" d="M32.8673,-160.484C50.6384,-172.751 80.2106,-193.164 98.0739,-205.494"/>
</g>
<!-- 8 -->
<g id="node9" class="node"><title>8</title>
<ellipse fill="cadetblue" stroke="black" cx="76.9958" cy="-97.3988" rx="18" ry="18"/>
</g>
<!-- 0&#45;&#45;8 -->
<g id="edge3" class="edge"><title>0&#45;&#45;8</title>
<path fill="none" stroke="black" stroke-width="2" d="M31.6831,-137.971C41.214,-129.437 53.8723,-118.103 63.3869,-109.584"/>
</g>
<!-- 1 -->
<g id="node2" class="node"><title>1</title>
<ellipse fill="cadetblue" stroke="black" cx="43.2421" cy="-203.852" rx="18" ry="18"/>
</g>
<!-- 1&#45;&#45;4 -->
<g id="edge4" class="edge"><title>1&#45;&#45;4</title>
<path fill="none" stroke="black" stroke-width="2" d="M57.1913,-192.243C67.2518,-183.871 80.7735,-172.617 90.8213,-164.256"/>
</g>
<!-- 1&#45;&#45;6 -->
<g id="edge5" class="edge"><title>1&#45;&#45;6</title>
<path fill="none" stroke="black" stroke-width="2" d="M61.2453,-206.955C71.6021,-208.74 84.5784,-210.977 94.9656,-212.767"/>
</g>
<!-- 1&#45;&#45;8 -->
<g id="edge6" class="edge"><title>1&#45;&#45;8</title>
<path fill="none" stroke="black" stroke-width="2" d="M48.8159,-186.273C55.1073,-166.431 65.2773,-134.357 71.5258,-114.65"/>
</g>
<!-- 2 -->
<g id="node3" class="node"><title>2</title>
<ellipse fill="cadetblue" stroke="black" cx="104.568" cy="-18" rx="18" ry="18"/>
</g>
<!-- 5 -->
<g id="node6" class="node"><title>5</title>
<ellipse fill="cadetblue" stroke="black" cx="148.72" cy="-109.065" rx="18" ry="18"/>
</g>
<!-- 2&#45;&#45;5 -->
<g id="edge7" class="edge"><title>2&#45;&#45;5</title>
<path fill="none" stroke="black" stroke-width="2" d="M112.462,-34.2805C120.449,-50.7537 132.73,-76.0856 140.746,-92.618"/>
</g>
<!-- 7 -->
<g id="node8" class="node"><title>7</title>
<ellipse fill="cadetblue" stroke="black" cx="178.814" cy="-54.7013" rx="18" ry="18"/>
</g>
<!-- 2&#45;&#45;7 -->
<g id="edge8" class="edge"><title>2&#45;&#45;7</title>
<path fill="none" stroke="black" stroke-width="2" d="M121.046,-26.1452C133.435,-32.2695 150.323,-40.6173 162.638,-46.7051"/>
</g>
<!-- 2&#45;&#45;8 -->
<g id="edge9" class="edge"><title>2&#45;&#45;8</title>
<path fill="none" stroke="black" stroke-width="2" d="M98.5855,-35.2284C93.9607,-48.5462 87.5889,-66.8947 82.967,-80.204"/>
</g>
<!-- 3 -->
<g id="node4" class="node"><title>3</title>
<ellipse fill="cadetblue" stroke="black" cx="209.959" cy="-126.374" rx="18" ry="18"/>
</g>
<!-- 3&#45;&#45;5 -->
<g id="edge10" class="edge"><title>3&#45;&#45;5</title>
<path fill="none" stroke="black" stroke-width="2" d="M192.574,-121.46C184.37,-119.141 174.597,-116.379 166.361,-114.051"/>
</g>
<!-- 3&#45;&#45;7 -->
<g id="edge11" class="edge"><title>3&#45;&#45;7</title>
<path fill="none" stroke="black" stroke-width="2" d="M202.735,-109.75C197.704,-98.1715 191.021,-82.7934 185.998,-71.2343"/>
</g>
<!-- 3&#45;&#45;8 -->
<g id="edge12" class="edge"><title>3&#45;&#45;8</title>
<path fill="none" stroke="black" stroke-width="2" d="M192.19,-130.04C179.922,-132.031 163.262,-133.665 148.719,-131.385 127.755,-128.097 106.058,-116.466 92.0969,-107.72"/>
</g>
<!-- 4&#45;&#45;6 -->
<g id="edge13" class="edge"><title>4&#45;&#45;6</title>
<path fill="none" stroke="black" stroke-width="2" d="M107.11,-170.637C108.24,-179.104 109.586,-189.192 110.721,-197.693"/>
</g>
<!-- 4&#45;&#45;7 -->
<g id="edge14" class="edge"><title>4&#45;&#45;7</title>
<path fill="none" stroke="black" stroke-width="2" d="M110.625,-135.476C115.428,-122.991 123.028,-106.116 132.938,-93.2813 141.588,-82.0791 153.994,-71.8909 163.725,-64.8009"/>
</g>
<!-- 4&#45;&#45;8 -->
<g id="edge15" class="edge"><title>4&#45;&#45;8</title>
<path fill="none" stroke="black" stroke-width="2" d="M96.5485,-136.402C92.9712,-129.266 88.7816,-120.909 85.2001,-113.764"/>
</g>
<!-- 5&#45;&#45;6 -->
<g id="edge16" class="edge"><title>5&#45;&#45;6</title>
<path fill="none" stroke="black" stroke-width="2" d="M143.005,-126.23C136.367,-146.167 125.483,-178.86 118.851,-198.779"/>
</g>
<!-- 5&#45;&#45;7 -->
<g id="edge17" class="edge"><title>5&#45;&#45;7</title>
<path fill="none" stroke="black" stroke-width="2" d="M157.586,-93.0478C161.47,-86.0322 166.019,-77.8154 169.907,-70.7914"/>
</g>
<!-- 5&#45;&#45;8 -->
<g id="edge18" class="edge"><title>5&#45;&#45;8</title>
<path fill="none" stroke="black" stroke-width="2" d="M130.621,-106.121C119.665,-104.339 105.75,-102.076 94.8406,-100.301"/>
</g>
</g>
</svg>

