<?xml version="1.0" encoding="UTF-8" standalone="no"?>
<!DOCTYPE svg PUBLIC "-//W3C//DTD SVG 1.1//EN"
 "http://www.w3.org/Graphics/SVG/1.1/DTD/svg11.dtd">
<!-- Generated by graphviz version 2.36.0 (20140111.2315)
 -->
<!-- Title: G Pages: 1 -->
<svg width="100%" height="100%"
 viewBox="0.00 0.00 232.71 224.65" xmlns="http://www.w3.org/2000/svg" xmlns:xlink="http://www.w3.org/1999/xlink">
<g id="graph0" class="graph" transform="scale(1 1) rotate(0) translate(4 220.649)">
<title>G</title>
<!-- 0 -->
<g id="node1" class="node"><title>0</title>
<ellipse fill="cadetblue" stroke="black" cx="18" cy="-141.378" rx="18" ry="18"/>
</g>
<!-- 4 -->
<g id="node5" class="node"><title>4</title>
<ellipse fill="cadetblue" stroke="black" cx="71.7208" cy="-198.649" rx="18" ry="18"/>
</g>
<!-- 0&#45;&#45;4 -->
<g id="edge1" class="edge"><title>0&#45;&#45;4</title>
<path fill="none" stroke="black" stroke-width="2" d="M30.4597,-154.661C39.1384,-163.913 50.6648,-176.202 59.3287,-185.438"/>
</g>
<!-- 5 -->
<g id="node6" class="node"><title>5</title>
<ellipse fill="cadetblue" stroke="black" cx="36.6818" cy="-54.9847" rx="18" ry="18"/>
</g>
<!-- 0&#45;&#45;5 -->
<g id="edge2" class="edge"><title>0&#45;&#45;5</title>
<path fill="none" stroke="black" stroke-width="2" d="M21.8709,-123.477C25.0771,-108.65 29.611,-87.6834 32.8159,-72.8625"/>
</g>
<!-- 7 -->
<g id="node8" class="node"><title>7</title>
<ellipse fill="cadetblue" stroke="black" cx="116.174" cy="-155.263" rx="18" ry="18"/>
</g>
<!-- 0&#45;&#45;7 -->
<g id="edge3" class="edge"><title>0&#45;&#45;7</title>
<path fill="none" stroke="black" stroke-width="2" d="M36.0066,-143.925C53.7202,-146.43 80.6071,-150.233 98.2812,-152.732"/>
</g>
<!-- 1 -->
<g id="node2" class="node"><title>1</title>
<ellipse fill="cadetblue" stroke="black" cx="160.178" cy="-185.791" rx="18" ry="18"/>
</g>
<!-- 1&#45;&#45;4 -->
<g id="edge4" class="edge"><title>1&#45;&#45;4</title>
<path fill="none" stroke="black" stroke-width="2" d="M142.277,-188.393C126.93,-190.624 104.934,-193.821 89.5949,-196.051"/>
</g>
<!-- 6 -->
<g id="node7" class="node"><title>6</title>
<ellipse fill="cadetblue" stroke="black" cx="173.638" cy="-81.6367" rx="18" ry="18"/>
</g>
<!-- 1&#45;&#45;6 -->
<g id="edge5" class="edge"><title>1&#45;&#45;6</title>
<path fill="none" stroke="black" stroke-width="2" d="M162.523,-167.649C164.993,-148.532 168.86,-118.609 171.32,-99.5711"/>
</g>
<!-- 1&#45;&#45;7 -->
<g id="edge6" class="edge"><title>1&#45;&#45;7</title>
<path fill="none" stroke="black" stroke-width="2" d="M145.28,-175.455C140.692,-172.273 135.643,-168.77 131.056,-165.588"/>
</g>
<!-- 8 -->
<g id="node9" class="node"><title>8</title>
<ellipse fill="cadetblue" stroke="black" cx="113.329" cy="-102.56" rx="18" ry="18"/>
</g>
<!-- 1&#45;&#45;8 -->
<g id="edge7" class="edge"><title>1&#45;&#45;8</title>
<path fill="none" stroke="black" stroke-width="2" d="M151.145,-169.743C142.796,-154.91 130.465,-133.002 122.175,-118.276"/>
</g>
<!-- 2 -->
<g id="node3" class="node"><title>2</title>
<ellipse fill="cadetblue" stroke="black" cx="112.692" cy="-18" rx="18" ry="18"/>
</g>
<!-- 2&#45;&#45;5 -->
<g id="edge8" class="edge"><title>2&#45;&#45;5</title>
<path fill="none" stroke="black" stroke-width="2" d="M96.1987,-26.0251C83.362,-32.2712 65.6431,-40.8928 52.8815,-47.1023"/>
</g>
<!-- 2&#45;&#45;6 -->
<g id="edge9" class="edge"><title>2&#45;&#45;6</title>
<path fill="none" stroke="black" stroke-width="2" d="M125.32,-31.1856C135.78,-42.1072 150.571,-57.5511 161.026,-68.468"/>
</g>
<!-- 2&#45;&#45;8 -->
<g id="edge10" class="edge"><title>2&#45;&#45;8</title>
<path fill="none" stroke="black" stroke-width="2" d="M112.83,-36.3482C112.938,-50.6288 113.086,-70.3407 113.193,-84.5377"/>
</g>
<!-- 3 -->
<g id="node4" class="node"><title>3</title>
<ellipse fill="cadetblue" stroke="black" cx="206.711" cy="-131.001" rx="18" ry="18"/>
</g>
<!-- 3&#45;&#45;6 -->
<g id="edge11" class="edge"><title>3&#45;&#45;6</title>
<path fill="none" stroke="black" stroke-width="2" d="M196.608,-115.922C192.505,-109.798 187.776,-102.739 183.679,-96.6236"/>
</g>
<!-- 3&#45;&#45;7 -->
<g id="edge12" class="edge"><title>3&#45;&#45;7</title>
<path fill="none" stroke="black" stroke-width="2" d="M189.254,-135.679C173.222,-139.975 149.592,-146.308 133.577,-150.599"/>
</g>
<!-- 3&#45;&#45;8 -->
<g id="edge13" class="edge"><title>3&#45;&#45;8</title>
<path fill="none" stroke="black" stroke-width="2" d="M189.146,-125.652C172.451,-120.567 147.484,-112.962 130.815,-107.885"/>
</g>
<!-- 4&#45;&#45;7 -->
<g id="edge14" class="edge"><title>4&#45;&#45;7</title>
<path fill="none" stroke="black" stroke-width="2" d="M84.8177,-185.867C90.5544,-180.268 97.2732,-173.71 103.017,-168.104"/>
</g>
<!-- 4&#45;&#45;8 -->
<g id="edge15" class="edge"><title>4&#45;&#45;8</title>
<path fill="none" stroke="black" stroke-width="2" d="M78.9685,-181.912C86.6054,-164.275 98.5591,-136.669 106.165,-119.105"/>
</g>
<!-- 5&#45;&#45;8 -->
<g id="edge16" class="edge"><title>5&#45;&#45;8</title>
<path fill="none" stroke="black" stroke-width="2" d="M52.1925,-64.6122C65.4905,-72.8662 84.5502,-84.6965 97.8415,-92.9464"/>
</g>
<!-- 6&#45;&#45;7 -->
<g id="edge17" class="edge"><title>6&#45;&#45;7</title>
<path fill="none" stroke="black" stroke-width="2" d="M162.558,-95.8326C152.448,-108.787 137.576,-127.841 127.415,-140.859"/>
</g>
<!-- 6&#45;&#45;8 -->
<g id="edge18" class="edge"><title>6&#45;&#45;8</title>
<path fill="none" stroke="black" stroke-width="2" d="M156.517,-87.5764C148.438,-90.3793 138.813,-93.7184 130.702,-96.5323"/>
</g>
<!-- 7&#45;&#45;8 -->
<g id="edge19" class="edge"><title>7&#45;&#45;8</title>
<path fill="none" stroke="black" stroke-width="2" d="M115.195,-137.125C114.905,-131.766 114.589,-125.902 114.3,-120.552"/>
</g>
</g>
</svg>

