<?xml version="1.0" encoding="UTF-8" standalone="no"?>
<!DOCTYPE svg PUBLIC "-//W3C//DTD SVG 1.1//EN"
 "http://www.w3.org/Graphics/SVG/1.1/DTD/svg11.dtd">
<!-- Generated by graphviz version 2.36.0 (20140111.2315)
 -->
<!-- Title: G Pages: 1 -->
<svg width="100%" height="100%"
 viewBox="0.00 0.00 212.65 215.63" xmlns="http://www.w3.org/2000/svg" xmlns:xlink="http://www.w3.org/1999/xlink">
<g id="graph0" class="graph" transform="scale(1 1) rotate(0) translate(4 211.632)">
<title>G</title>
<!-- 0 -->
<g id="node1" class="node"><title>0</title>
<ellipse fill="cadetblue" stroke="black" cx="29.3266" cy="-44.1936" rx="18" ry="18"/>
</g>
<!-- 4 -->
<g id="node5" class="node"><title>4</title>
<ellipse fill="cadetblue" stroke="black" cx="18" cy="-121.296" rx="18" ry="18"/>
</g>
<!-- 0&#45;&#45;4 -->
<g id="edge1" class="edge"><title>0&#45;&#45;4</title>
<path fill="none" stroke="black" stroke-width="2" d="M26.6996,-62.0763C24.8828,-74.4435 22.4742,-90.8397 20.652,-103.244"/>
</g>
<!-- 5 -->
<g id="node6" class="node"><title>5</title>
<ellipse fill="cadetblue" stroke="black" cx="142.649" cy="-68.7951" rx="18" ry="18"/>
</g>
<!-- 0&#45;&#45;5 -->
<g id="edge2" class="edge"><title>0&#45;&#45;5</title>
<path fill="none" stroke="black" stroke-width="2" d="M47.0332,-48.0376C68.1981,-52.6323 103.418,-60.2783 124.693,-64.8969"/>
</g>
<!-- 7 -->
<g id="node8" class="node"><title>7</title>
<ellipse fill="cadetblue" stroke="black" cx="95.3624" cy="-110.133" rx="18" ry="18"/>
</g>
<!-- 0&#45;&#45;7 -->
<g id="edge3" class="edge"><title>0&#45;&#45;7</title>
<path fill="none" stroke="black" stroke-width="2" d="M42.3731,-57.2211C53.9501,-68.7811 70.7742,-85.5806 82.343,-97.1324"/>
</g>
<!-- 8 -->
<g id="node9" class="node"><title>8</title>
<ellipse fill="cadetblue" stroke="black" cx="93.9377" cy="-31.8486" rx="18" ry="18"/>
</g>
<!-- 0&#45;&#45;8 -->
<g id="edge4" class="edge"><title>0&#45;&#45;8</title>
<path fill="none" stroke="black" stroke-width="2" d="M47.3244,-40.7548C56.2859,-39.0426 67.0882,-36.9786 76.0364,-35.2689"/>
</g>
<!-- 1 -->
<g id="node2" class="node"><title>1</title>
<ellipse fill="cadetblue" stroke="black" cx="88.9726" cy="-189.632" rx="18" ry="18"/>
</g>
<!-- 1&#45;&#45;4 -->
<g id="edge5" class="edge"><title>1&#45;&#45;4</title>
<path fill="none" stroke="black" stroke-width="2" d="M75.9552,-177.099C63.3095,-164.923 44.197,-146.52 31.4172,-134.215"/>
</g>
<!-- 6 -->
<g id="node7" class="node"><title>6</title>
<ellipse fill="cadetblue" stroke="black" cx="186.653" cy="-107.42" rx="18" ry="18"/>
</g>
<!-- 1&#45;&#45;6 -->
<g id="edge6" class="edge"><title>1&#45;&#45;6</title>
<path fill="none" stroke="black" stroke-width="2" d="M102.968,-177.853C121.537,-162.225 154.128,-134.795 172.684,-119.177"/>
</g>
<!-- 1&#45;&#45;7 -->
<g id="edge7" class="edge"><title>1&#45;&#45;7</title>
<path fill="none" stroke="black" stroke-width="2" d="M90.4226,-171.593C91.4683,-158.582 92.8738,-141.095 93.9182,-128.101"/>
</g>
<!-- 2 -->
<g id="node3" class="node"><title>2</title>
<ellipse fill="cadetblue" stroke="black" cx="177.544" cy="-18" rx="18" ry="18"/>
</g>
<!-- 2&#45;&#45;5 -->
<g id="edge8" class="edge"><title>2&#45;&#45;5</title>
<path fill="none" stroke="black" stroke-width="2" d="M167.263,-32.9655C162.76,-39.5206 157.485,-47.1981 152.977,-53.761"/>
</g>
<!-- 2&#45;&#45;6 -->
<g id="edge9" class="edge"><title>2&#45;&#45;6</title>
<path fill="none" stroke="black" stroke-width="2" d="M179.387,-36.0955C180.968,-51.6096 183.233,-73.8455 184.813,-89.3517"/>
</g>
<!-- 2&#45;&#45;7 -->
<g id="edge10" class="edge"><title>2&#45;&#45;7</title>
<path fill="none" stroke="black" stroke-width="2" d="M161.477,-26.4816C150.717,-32.7467 136.764,-42.0656 126.867,-53.0117 116.081,-64.9404 107.568,-81.2106 102.124,-93.3358"/>
</g>
<!-- 2&#45;&#45;8 -->
<g id="edge11" class="edge"><title>2&#45;&#45;8</title>
<path fill="none" stroke="black" stroke-width="2" d="M159.402,-21.0049C145.283,-23.3437 125.793,-26.572 111.756,-28.8971"/>
</g>
<!-- 3 -->
<g id="node4" class="node"><title>3</title>
<ellipse fill="cadetblue" stroke="black" cx="179.673" cy="-171.515" rx="18" ry="18"/>
</g>
<!-- 3&#45;&#45;5 -->
<g id="edge12" class="edge"><title>3&#45;&#45;5</title>
<path fill="none" stroke="black" stroke-width="2" d="M173.559,-154.553C166.699,-135.52 155.636,-104.825 148.772,-85.7823"/>
</g>
<!-- 3&#45;&#45;6 -->
<g id="edge13" class="edge"><title>3&#45;&#45;6</title>
<path fill="none" stroke="black" stroke-width="2" d="M181.655,-153.319C182.606,-144.585 183.742,-134.151 184.691,-125.439"/>
</g>
<!-- 3&#45;&#45;7 -->
<g id="edge14" class="edge"><title>3&#45;&#45;7</title>
<path fill="none" stroke="black" stroke-width="2" d="M164.987,-160.823C149.607,-149.625 125.586,-132.137 110.163,-120.908"/>
</g>
<!-- 4&#45;&#45;7 -->
<g id="edge15" class="edge"><title>4&#45;&#45;7</title>
<path fill="none" stroke="black" stroke-width="2" d="M35.9429,-118.707C48.441,-116.904 65.0401,-114.508 77.5168,-112.708"/>
</g>
<!-- 4&#45;&#45;8 -->
<g id="edge16" class="edge"><title>4&#45;&#45;8</title>
<path fill="none" stroke="black" stroke-width="2" d="M29.8653,-107.32C44.1314,-90.516 67.9269,-62.487 82.1558,-45.7267"/>
</g>
<!-- 5&#45;&#45;6 -->
<g id="edge17" class="edge"><title>5&#45;&#45;6</title>
<path fill="none" stroke="black" stroke-width="2" d="M156.572,-81.0163C161.809,-85.6135 167.756,-90.8331 172.971,-95.4108"/>
</g>
<!-- 5&#45;&#45;8 -->
<g id="edge18" class="edge"><title>5&#45;&#45;8</title>
<path fill="none" stroke="black" stroke-width="2" d="M128.297,-57.9097C122.011,-53.1417 114.649,-47.5575 108.355,-42.7838"/>
</g>
<!-- 6&#45;&#45;8 -->
<g id="edge19" class="edge"><title>6&#45;&#45;8</title>
<path fill="none" stroke="black" stroke-width="2" d="M168.808,-103.931C155.985,-100.687 138.907,-94.7738 126.865,-84.5769 115.335,-74.8124 106.568,-59.9582 100.991,-48.5015"/>
</g>
<!-- 7&#45;&#45;8 -->
<g id="edge20" class="edge"><title>7&#45;&#45;8</title>
<path fill="none" stroke="black" stroke-width="2" d="M95.032,-91.9761C94.8018,-79.3291 94.4961,-62.5323 94.2664,-49.9069"/>
</g>
</g>
</svg>

