<?xml version="1.0" encoding="UTF-8" standalone="no"?>
<!DOCTYPE svg PUBLIC "-//W3C//DTD SVG 1.1//EN"
 "http://www.w3.org/Graphics/SVG/1.1/DTD/svg11.dtd">
<!-- Generated by graphviz version 2.36.0 (20140111.2315)
 -->
<!-- Title: G Pages: 1 -->
<svg width="100%" height="100%"
 viewBox="0.00 0.00 228.40 217.28" xmlns="http://www.w3.org/2000/svg" xmlns:xlink="http://www.w3.org/1999/xlink">
<g id="graph0" class="graph" transform="scale(1 1) rotate(0) translate(4 213.276)">
<title>G</title>
<!-- 0 -->
<g id="node1" class="node"><title>0</title>
<ellipse fill="cadetblue" stroke="black" cx="31.8401" cy="-60.8987" rx="18" ry="18"/>
</g>
<!-- 4 -->
<g id="node5" class="node"><title>4</title>
<ellipse fill="cadetblue" stroke="black" cx="141.485" cy="-20.1231" rx="18" ry="18"/>
</g>
<!-- 0&#45;&#45;4 -->
<g id="edge1" class="edge"><title>0&#45;&#45;4</title>
<path fill="none" stroke="black" stroke-width="2" d="M48.972,-54.5275C69.5706,-46.8672 103.928,-34.0899 124.473,-26.4496"/>
</g>
<!-- 5 -->
<g id="node6" class="node"><title>5</title>
<ellipse fill="cadetblue" stroke="black" cx="18" cy="-167.113" rx="18" ry="18"/>
</g>
<!-- 0&#45;&#45;5 -->
<g id="edge2" class="edge"><title>0&#45;&#45;5</title>
<path fill="none" stroke="black" stroke-width="2" d="M29.4923,-78.9165C26.9473,-98.448 22.9088,-129.441 20.3593,-149.007"/>
</g>
<!-- 6 -->
<g id="node7" class="node"><title>6</title>
<ellipse fill="cadetblue" stroke="black" cx="86.8725" cy="-18" rx="18" ry="18"/>
</g>
<!-- 0&#45;&#45;6 -->
<g id="edge3" class="edge"><title>0&#45;&#45;6</title>
<path fill="none" stroke="black" stroke-width="2" d="M46.2992,-49.6276C54.3244,-43.3718 64.2786,-35.6123 72.3189,-29.3448"/>
</g>
<!-- 8 -->
<g id="node9" class="node"><title>8</title>
<ellipse fill="cadetblue" stroke="black" cx="124.675" cy="-86.3176" rx="18" ry="18"/>
</g>
<!-- 0&#45;&#45;8 -->
<g id="edge4" class="edge"><title>0&#45;&#45;8</title>
<path fill="none" stroke="black" stroke-width="2" d="M49.3015,-65.6798C65.8989,-70.2243 90.72,-77.0205 107.291,-81.5579"/>
</g>
<!-- 1 -->
<g id="node2" class="node"><title>1</title>
<ellipse fill="cadetblue" stroke="black" cx="202.397" cy="-35.0856" rx="18" ry="18"/>
</g>
<!-- 1&#45;&#45;4 -->
<g id="edge5" class="edge"><title>1&#45;&#45;4</title>
<path fill="none" stroke="black" stroke-width="2" d="M184.779,-30.7578C176.768,-28.79 167.306,-26.4659 159.274,-24.493"/>
</g>
<!-- 1&#45;&#45;6 -->
<g id="edge6" class="edge"><title>1&#45;&#45;6</title>
<path fill="none" stroke="black" stroke-width="2" d="M184.777,-39.613C172.597,-42.1548 156.027,-44.4496 141.458,-42.4431 127.469,-40.5164 112.938,-33.7383 102.388,-27.8072"/>
</g>
<!-- 7 -->
<g id="node8" class="node"><title>7</title>
<ellipse fill="cadetblue" stroke="black" cx="187.082" cy="-123.179" rx="18" ry="18"/>
</g>
<!-- 1&#45;&#45;7 -->
<g id="edge7" class="edge"><title>1&#45;&#45;7</title>
<path fill="none" stroke="black" stroke-width="2" d="M199.298,-52.9126C196.641,-68.1963 192.832,-90.1022 190.177,-105.378"/>
</g>
<!-- 1&#45;&#45;8 -->
<g id="edge8" class="edge"><title>1&#45;&#45;8</title>
<path fill="none" stroke="black" stroke-width="2" d="M187.042,-45.2074C173.327,-54.2474 153.357,-67.4112 139.734,-76.3911"/>
</g>
<!-- 2 -->
<g id="node3" class="node"><title>2</title>
<ellipse fill="cadetblue" stroke="black" cx="82.7363" cy="-130.322" rx="18" ry="18"/>
</g>
<!-- 2&#45;&#45;5 -->
<g id="edge9" class="edge"><title>2&#45;&#45;5</title>
<path fill="none" stroke="black" stroke-width="2" d="M67.0654,-139.228C57.037,-144.927 44.0638,-152.3 33.9763,-158.033"/>
</g>
<!-- 2&#45;&#45;6 -->
<g id="edge10" class="edge"><title>2&#45;&#45;6</title>
<path fill="none" stroke="black" stroke-width="2" d="M83.4009,-112.275C84.1727,-91.315 85.4385,-56.9431 86.2096,-36.0017"/>
</g>
<!-- 2&#45;&#45;7 -->
<g id="edge11" class="edge"><title>2&#45;&#45;7</title>
<path fill="none" stroke="black" stroke-width="2" d="M100.912,-129.078C120.064,-127.767 150.042,-125.714 169.115,-124.409"/>
</g>
<!-- 2&#45;&#45;8 -->
<g id="edge12" class="edge"><title>2&#45;&#45;8</title>
<path fill="none" stroke="black" stroke-width="2" d="M95.5471,-116.88C100.847,-111.32 106.97,-104.895 112.23,-99.3752"/>
</g>
<!-- 3 -->
<g id="node4" class="node"><title>3</title>
<ellipse fill="cadetblue" stroke="black" cx="123.708" cy="-191.276" rx="18" ry="18"/>
</g>
<!-- 3&#45;&#45;5 -->
<g id="edge13" class="edge"><title>3&#45;&#45;5</title>
<path fill="none" stroke="black" stroke-width="2" d="M105.776,-187.177C86.2201,-182.707 55.1184,-175.598 35.6671,-171.151"/>
</g>
<!-- 3&#45;&#45;7 -->
<g id="edge14" class="edge"><title>3&#45;&#45;7</title>
<path fill="none" stroke="black" stroke-width="2" d="M136.229,-177.822C147.339,-165.884 163.485,-148.535 174.588,-136.605"/>
</g>
<!-- 3&#45;&#45;8 -->
<g id="edge15" class="edge"><title>3&#45;&#45;8</title>
<path fill="none" stroke="black" stroke-width="2" d="M123.877,-172.994C124.054,-153.729 124.332,-123.575 124.508,-104.39"/>
</g>
<!-- 4&#45;&#45;6 -->
<g id="edge16" class="edge"><title>4&#45;&#45;6</title>
<path fill="none" stroke="black" stroke-width="2" d="M123.3,-19.4162C117.466,-19.1894 111.005,-18.9382 105.164,-18.7111"/>
</g>
<!-- 4&#45;&#45;7 -->
<g id="edge17" class="edge"><title>4&#45;&#45;7</title>
<path fill="none" stroke="black" stroke-width="2" d="M148.811,-36.6808C157.32,-55.9121 171.273,-87.4484 179.774,-106.662"/>
</g>
<!-- 4&#45;&#45;8 -->
<g id="edge18" class="edge"><title>4&#45;&#45;8</title>
<path fill="none" stroke="black" stroke-width="2" d="M136.98,-37.862C134.568,-47.3594 131.606,-59.0248 129.192,-68.5297"/>
</g>
<!-- 6&#45;&#45;8 -->
<g id="edge19" class="edge"><title>6&#45;&#45;8</title>
<path fill="none" stroke="black" stroke-width="2" d="M95.6401,-33.8451C101.747,-44.882 109.858,-59.5403 115.955,-70.5584"/>
</g>
</g>
</svg>

