<?xml version="1.0" encoding="UTF-8" standalone="no"?>
<!DOCTYPE svg PUBLIC "-//W3C//DTD SVG 1.1//EN"
 "http://www.w3.org/Graphics/SVG/1.1/DTD/svg11.dtd">
<!-- Generated by graphviz version 2.36.0 (20140111.2315)
 -->
<!-- Title: G Pages: 1 -->
<svg width="100%" height="100%"
 viewBox="0.00 0.00 208.80 208.17" xmlns="http://www.w3.org/2000/svg" xmlns:xlink="http://www.w3.org/1999/xlink">
<g id="graph0" class="graph" transform="scale(1 1) rotate(0) translate(4 204.173)">
<title>G</title>
<!-- 0 -->
<g id="node1" class="node"><title>0</title>
<ellipse fill="cadetblue" stroke="black" cx="19.0258" cy="-140.851" rx="18" ry="18"/>
</g>
<!-- 4 -->
<g id="node5" class="node"><title>4</title>
<ellipse fill="cadetblue" stroke="black" cx="91.6532" cy="-125.259" rx="18" ry="18"/>
</g>
<!-- 0&#45;&#45;4 -->
<g id="edge1" class="edge"><title>0&#45;&#45;4</title>
<path fill="none" stroke="black" stroke-width="2" d="M36.9786,-136.997C48.2362,-134.58 62.6886,-131.477 73.9069,-129.069"/>
</g>
<!-- 5 -->
<g id="node6" class="node"><title>5</title>
<ellipse fill="cadetblue" stroke="black" cx="18" cy="-58.1256" rx="18" ry="18"/>
</g>
<!-- 0&#45;&#45;5 -->
<g id="edge2" class="edge"><title>0&#45;&#45;5</title>
<path fill="none" stroke="black" stroke-width="2" d="M18.7981,-122.492C18.627,-108.688 18.3936,-89.8712 18.2235,-76.1492"/>
</g>
<!-- 6 -->
<g id="node7" class="node"><title>6</title>
<ellipse fill="cadetblue" stroke="black" cx="120.471" cy="-182.173" rx="18" ry="18"/>
</g>
<!-- 0&#45;&#45;6 -->
<g id="edge3" class="edge"><title>0&#45;&#45;6</title>
<path fill="none" stroke="black" stroke-width="2" d="M36.6963,-145.275C49.4435,-148.782 66.8852,-154.238 81.3704,-161.15 89.1609,-164.867 97.6187,-169.356 104.669,-173.229"/>
</g>
<!-- 7 -->
<g id="node8" class="node"><title>7</title>
<ellipse fill="cadetblue" stroke="black" cx="62.7609" cy="-81.2544" rx="18" ry="18"/>
</g>
<!-- 0&#45;&#45;7 -->
<g id="edge4" class="edge"><title>0&#45;&#45;7</title>
<path fill="none" stroke="black" stroke-width="2" d="M29.8367,-126.12C36.6158,-116.882 45.3189,-105.022 52.0743,-95.8168"/>
</g>
<!-- 1 -->
<g id="node2" class="node"><title>1</title>
<ellipse fill="cadetblue" stroke="black" cx="182.805" cy="-143.809" rx="18" ry="18"/>
</g>
<!-- 1&#45;&#45;4 -->
<g id="edge5" class="edge"><title>1&#45;&#45;4</title>
<path fill="none" stroke="black" stroke-width="2" d="M164.796,-140.144C148.712,-136.871 125.291,-132.104 109.314,-128.853"/>
</g>
<!-- 1&#45;&#45;6 -->
<g id="edge6" class="edge"><title>1&#45;&#45;6</title>
<path fill="none" stroke="black" stroke-width="2" d="M167.396,-153.292C157.878,-159.15 145.7,-166.645 136.135,-172.532"/>
</g>
<!-- 8 -->
<g id="node9" class="node"><title>8</title>
<ellipse fill="cadetblue" stroke="black" cx="137.081" cy="-97.0409" rx="18" ry="18"/>
</g>
<!-- 1&#45;&#45;8 -->
<g id="edge7" class="edge"><title>1&#45;&#45;8</title>
<path fill="none" stroke="black" stroke-width="2" d="M170.068,-130.781C163.726,-124.295 156.081,-116.476 149.749,-109.998"/>
</g>
<!-- 2 -->
<g id="node3" class="node"><title>2</title>
<ellipse fill="cadetblue" stroke="black" cx="96.3086" cy="-18" rx="18" ry="18"/>
</g>
<!-- 2&#45;&#45;5 -->
<g id="edge8" class="edge"><title>2&#45;&#45;5</title>
<path fill="none" stroke="black" stroke-width="2" d="M80.083,-26.314C66.6433,-33.2006 47.6388,-42.9386 34.2048,-49.8222"/>
</g>
<!-- 2&#45;&#45;7 -->
<g id="edge9" class="edge"><title>2&#45;&#45;7</title>
<path fill="none" stroke="black" stroke-width="2" d="M87.8431,-33.9618C82.7963,-43.4774 76.4071,-55.5243 71.3404,-65.0777"/>
</g>
<!-- 2&#45;&#45;8 -->
<g id="edge10" class="edge"><title>2&#45;&#45;8</title>
<path fill="none" stroke="black" stroke-width="2" d="M104.757,-34.3773C111.801,-48.0331 121.781,-67.381 128.783,-80.955"/>
</g>
<!-- 3 -->
<g id="node4" class="node"><title>3</title>
<ellipse fill="cadetblue" stroke="black" cx="65.5176" cy="-176.862" rx="18" ry="18"/>
</g>
<!-- 3&#45;&#45;6 -->
<g id="edge11" class="edge"><title>3&#45;&#45;6</title>
<path fill="none" stroke="black" stroke-width="2" d="M83.5112,-178.601C89.5212,-179.182 96.2211,-179.829 102.248,-180.412"/>
</g>
<!-- 3&#45;&#45;7 -->
<g id="edge12" class="edge"><title>3&#45;&#45;7</title>
<path fill="none" stroke="black" stroke-width="2" d="M64.986,-158.428C64.4948,-141.389 63.7691,-116.224 63.2814,-99.3077"/>
</g>
<!-- 3&#45;&#45;8 -->
<g id="edge13" class="edge"><title>3&#45;&#45;8</title>
<path fill="none" stroke="black" stroke-width="2" d="M80.3532,-165.816C88.79,-159.15 99.2649,-150.2 107.417,-141.06 115.146,-132.395 122.453,-121.596 127.881,-112.863"/>
</g>
<!-- 4&#45;&#45;5 -->
<g id="edge14" class="edge"><title>4&#45;&#45;5</title>
<path fill="none" stroke="black" stroke-width="2" d="M75.3312,-116.874C66.3801,-111.82 55.4106,-104.846 46.9187,-96.9773 39.5176,-90.119 32.7008,-81.1536 27.5468,-73.5635"/>
</g>
<!-- 4&#45;&#45;6 -->
<g id="edge15" class="edge"><title>4&#45;&#45;6</title>
<path fill="none" stroke="black" stroke-width="2" d="M99.834,-141.416C103.694,-149.04 108.294,-158.123 112.169,-165.778"/>
</g>
<!-- 4&#45;&#45;8 -->
<g id="edge16" class="edge"><title>4&#45;&#45;8</title>
<path fill="none" stroke="black" stroke-width="2" d="M107.033,-115.705C111.769,-112.764 116.982,-109.526 121.717,-106.584"/>
</g>
<!-- 5&#45;&#45;7 -->
<g id="edge17" class="edge"><title>5&#45;&#45;7</title>
<path fill="none" stroke="black" stroke-width="2" d="M34.1597,-66.4756C38.1663,-68.5459 42.4619,-70.7655 46.4745,-72.8389"/>
</g>
<!-- 6&#45;&#45;8 -->
<g id="edge18" class="edge"><title>6&#45;&#45;8</title>
<path fill="none" stroke="black" stroke-width="2" d="M123.993,-164.118C126.831,-149.574 130.799,-129.237 133.62,-114.777"/>
</g>
<!-- 7&#45;&#45;8 -->
<g id="edge19" class="edge"><title>7&#45;&#45;8</title>
<path fill="none" stroke="black" stroke-width="2" d="M80.3736,-84.9956C92.1349,-87.4938 107.548,-90.7678 119.337,-93.2718"/>
</g>
</g>
</svg>

