<?xml version="1.0" encoding="UTF-8" standalone="no"?>
<!DOCTYPE svg PUBLIC "-//W3C//DTD SVG 1.1//EN"
 "http://www.w3.org/Graphics/SVG/1.1/DTD/svg11.dtd">
<!-- Generated by graphviz version 2.36.0 (20140111.2315)
 -->
<!-- Title: G Pages: 1 -->
<svg width="100%" height="100%"
 viewBox="0.00 0.00 222.87 215.65" xmlns="http://www.w3.org/2000/svg" xmlns:xlink="http://www.w3.org/1999/xlink">
<g id="graph0" class="graph" transform="scale(1 1) rotate(0) translate(4 211.645)">
<title>G</title>
<!-- 0 -->
<g id="node1" class="node"><title>0</title>
<ellipse fill="cadetblue" stroke="black" cx="61.7124" cy="-86.986" rx="18" ry="18"/>
</g>
<!-- 4 -->
<g id="node5" class="node"><title>4</title>
<ellipse fill="cadetblue" stroke="black" cx="121.901" cy="-184.507" rx="18" ry="18"/>
</g>
<!-- 0&#45;&#45;4 -->
<g id="edge1" class="edge"><title>0&#45;&#45;4</title>
<path fill="none" stroke="black" stroke-width="2" d="M71.3827,-102.654C82.6146,-120.853 101.033,-150.696 112.255,-168.877"/>
</g>
<!-- 6 -->
<g id="node7" class="node"><title>6</title>
<ellipse fill="cadetblue" stroke="black" cx="141.391" cy="-26.9699" rx="18" ry="18"/>
</g>
<!-- 0&#45;&#45;6 -->
<g id="edge2" class="edge"><title>0&#45;&#45;6</title>
<path fill="none" stroke="black" stroke-width="2" d="M76.3266,-75.9782C90.7032,-65.1493 112.525,-48.7127 126.869,-37.908"/>
</g>
<!-- 7 -->
<g id="node8" class="node"><title>7</title>
<ellipse fill="cadetblue" stroke="black" cx="120.463" cy="-131.99" rx="18" ry="18"/>
</g>
<!-- 0&#45;&#45;7 -->
<g id="edge3" class="edge"><title>0&#45;&#45;7</title>
<path fill="none" stroke="black" stroke-width="2" d="M76.235,-98.1106C85.3416,-105.086 97.0326,-114.042 106.107,-120.993"/>
</g>
<!-- 8 -->
<g id="node9" class="node"><title>8</title>
<ellipse fill="cadetblue" stroke="black" cx="116.502" cy="-75.2852" rx="18" ry="18"/>
</g>
<!-- 0&#45;&#45;8 -->
<g id="edge4" class="edge"><title>0&#45;&#45;8</title>
<path fill="none" stroke="black" stroke-width="2" d="M79.3498,-83.2194C85.6064,-81.8833 92.6441,-80.3803 98.8979,-79.0448"/>
</g>
<!-- 1 -->
<g id="node2" class="node"><title>1</title>
<ellipse fill="cadetblue" stroke="black" cx="196.875" cy="-110.1" rx="18" ry="18"/>
</g>
<!-- 1&#45;&#45;4 -->
<g id="edge5" class="edge"><title>1&#45;&#45;4</title>
<path fill="none" stroke="black" stroke-width="2" d="M183.815,-123.061C170.054,-136.718 148.515,-158.094 134.811,-171.695"/>
</g>
<!-- 1&#45;&#45;6 -->
<g id="edge6" class="edge"><title>1&#45;&#45;6</title>
<path fill="none" stroke="black" stroke-width="2" d="M186.698,-94.8525C176.687,-79.8532 161.492,-57.0864 151.503,-42.1206"/>
</g>
<!-- 1&#45;&#45;7 -->
<g id="edge7" class="edge"><title>1&#45;&#45;7</title>
<path fill="none" stroke="black" stroke-width="2" d="M179.536,-115.067C167.119,-118.624 150.459,-123.397 137.998,-126.966"/>
</g>
<!-- 1&#45;&#45;8 -->
<g id="edge8" class="edge"><title>1&#45;&#45;8</title>
<path fill="none" stroke="black" stroke-width="2" d="M180.222,-102.886C166.428,-96.9112 146.922,-88.4621 133.134,-82.4896"/>
</g>
<!-- 2 -->
<g id="node3" class="node"><title>2</title>
<ellipse fill="cadetblue" stroke="black" cx="41.9982" cy="-18" rx="18" ry="18"/>
</g>
<!-- 5 -->
<g id="node6" class="node"><title>5</title>
<ellipse fill="cadetblue" stroke="black" cx="18" cy="-130.99" rx="18" ry="18"/>
</g>
<!-- 2&#45;&#45;5 -->
<g id="edge9" class="edge"><title>2&#45;&#45;5</title>
<path fill="none" stroke="black" stroke-width="2" d="M38.2485,-35.6548C33.7664,-56.7577 26.3079,-91.8743 21.8026,-113.087"/>
</g>
<!-- 2&#45;&#45;6 -->
<g id="edge10" class="edge"><title>2&#45;&#45;6</title>
<path fill="none" stroke="black" stroke-width="2" d="M60.2283,-19.6452C78.162,-21.2637 105.383,-23.7203 123.276,-25.3351"/>
</g>
<!-- 2&#45;&#45;8 -->
<g id="edge11" class="edge"><title>2&#45;&#45;8</title>
<path fill="none" stroke="black" stroke-width="2" d="M56.3634,-29.0452C69.5564,-39.1891 89.0023,-54.1408 102.181,-64.274"/>
</g>
<!-- 3 -->
<g id="node4" class="node"><title>3</title>
<ellipse fill="cadetblue" stroke="black" cx="54.0407" cy="-189.645" rx="18" ry="18"/>
</g>
<!-- 3&#45;&#45;5 -->
<g id="edge12" class="edge"><title>3&#45;&#45;5</title>
<path fill="none" stroke="black" stroke-width="2" d="M44.5715,-174.234C39.3158,-165.681 32.7967,-155.071 27.5312,-146.502"/>
</g>
<!-- 3&#45;&#45;7 -->
<g id="edge13" class="edge"><title>3&#45;&#45;7</title>
<path fill="none" stroke="black" stroke-width="2" d="M67.8034,-177.699C79.2031,-167.804 95.323,-153.812 106.718,-143.921"/>
</g>
<!-- 3&#45;&#45;8 -->
<g id="edge14" class="edge"><title>3&#45;&#45;8</title>
<path fill="none" stroke="black" stroke-width="2" d="M62.7257,-173.744C74.5922,-152.018 95.757,-113.267 107.69,-91.4201"/>
</g>
<!-- 4&#45;&#45;5 -->
<g id="edge15" class="edge"><title>4&#45;&#45;5</title>
<path fill="none" stroke="black" stroke-width="2" d="M105.667,-176.145C86.147,-166.091 53.5891,-149.321 34.1205,-139.294"/>
</g>
<!-- 5&#45;&#45;7 -->
<g id="edge16" class="edge"><title>5&#45;&#45;7</title>
<path fill="none" stroke="black" stroke-width="2" d="M36.3183,-131.169C54.9685,-131.351 83.7104,-131.631 102.303,-131.813"/>
</g>
<!-- 6&#45;&#45;7 -->
<g id="edge17" class="edge"><title>6&#45;&#45;7</title>
<path fill="none" stroke="black" stroke-width="2" d="M141.546,-45.0424C141.344,-54.2055 140.664,-65.4687 138.822,-75.4039 136.299,-89.0115 131.387,-103.877 127.278,-114.956"/>
</g>
<!-- 6&#45;&#45;8 -->
<g id="edge18" class="edge"><title>6&#45;&#45;8</title>
<path fill="none" stroke="black" stroke-width="2" d="M133.103,-43.0582C130.445,-48.219 127.5,-53.9349 124.838,-59.1025"/>
</g>
<!-- 7&#45;&#45;8 -->
<g id="edge19" class="edge"><title>7&#45;&#45;8</title>
<path fill="none" stroke="black" stroke-width="2" d="M119.188,-113.736C118.736,-107.261 118.227,-99.9772 117.775,-93.5048"/>
</g>
</g>
</svg>

