<?xml version="1.0" encoding="UTF-8" standalone="no"?>
<!DOCTYPE svg PUBLIC "-//W3C//DTD SVG 1.1//EN"
 "http://www.w3.org/Graphics/SVG/1.1/DTD/svg11.dtd">
<!-- Generated by graphviz version 2.36.0 (20140111.2315)
 -->
<!-- Title: G Pages: 1 -->
<svg width="100%" height="100%"
 viewBox="0.00 0.00 218.39 253.99" xmlns="http://www.w3.org/2000/svg" xmlns:xlink="http://www.w3.org/1999/xlink">
<g id="graph0" class="graph" transform="scale(1 1) rotate(0) translate(4 249.991)">
<title>G</title>
<!-- 0 -->
<g id="node1" class="node"><title>0</title>
<ellipse fill="cadetblue" stroke="black" cx="18" cy="-85.6549" rx="18" ry="18"/>
</g>
<!-- 4 -->
<g id="node5" class="node"><title>4</title>
<ellipse fill="cadetblue" stroke="black" cx="90.7207" cy="-18" rx="18" ry="18"/>
</g>
<!-- 0&#45;&#45;4 -->
<g id="edge1" class="edge"><title>0&#45;&#45;4</title>
<path fill="none" stroke="black" stroke-width="2" d="M31.3381,-73.2459C44.4593,-61.0388 64.3753,-42.5102 77.4672,-30.3303"/>
</g>
<!-- 5 -->
<g id="node6" class="node"><title>5</title>
<ellipse fill="cadetblue" stroke="black" cx="32.6434" cy="-183.092" rx="18" ry="18"/>
</g>
<!-- 0&#45;&#45;5 -->
<g id="edge2" class="edge"><title>0&#45;&#45;5</title>
<path fill="none" stroke="black" stroke-width="2" d="M20.6858,-103.526C23.3115,-120.997 27.2883,-147.459 29.925,-165.004"/>
</g>
<!-- 7 -->
<g id="node8" class="node"><title>7</title>
<ellipse fill="cadetblue" stroke="black" cx="94.3431" cy="-78.0795" rx="18" ry="18"/>
</g>
<!-- 0&#45;&#45;7 -->
<g id="edge3" class="edge"><title>0&#45;&#45;7</title>
<path fill="none" stroke="black" stroke-width="2" d="M36.0922,-83.8596C48.2619,-82.6521 64.2382,-81.0668 76.3807,-79.8619"/>
</g>
<!-- 8 -->
<g id="node9" class="node"><title>8</title>
<ellipse fill="cadetblue" stroke="black" cx="75.3454" cy="-139.088" rx="18" ry="18"/>
</g>
<!-- 0&#45;&#45;8 -->
<g id="edge4" class="edge"><title>0&#45;&#45;8</title>
<path fill="none" stroke="black" stroke-width="2" d="M31.3003,-98.0478C40.5646,-106.68 52.8688,-118.145 62.1172,-126.762"/>
</g>
<!-- 1 -->
<g id="node2" class="node"><title>1</title>
<ellipse fill="cadetblue" stroke="black" cx="160.642" cy="-84.418" rx="18" ry="18"/>
</g>
<!-- 1&#45;&#45;4 -->
<g id="edge5" class="edge"><title>1&#45;&#45;4</title>
<path fill="none" stroke="black" stroke-width="2" d="M147.491,-71.9253C134.99,-60.0508 116.295,-42.2926 103.813,-30.4367"/>
</g>
<!-- 6 -->
<g id="node7" class="node"><title>6</title>
<ellipse fill="cadetblue" stroke="black" cx="192.393" cy="-175.456" rx="18" ry="18"/>
</g>
<!-- 1&#45;&#45;6 -->
<g id="edge6" class="edge"><title>1&#45;&#45;6</title>
<path fill="none" stroke="black" stroke-width="2" d="M166.615,-101.541C172.291,-117.818 180.78,-142.158 186.448,-158.409"/>
</g>
<!-- 1&#45;&#45;7 -->
<g id="edge7" class="edge"><title>1&#45;&#45;7</title>
<path fill="none" stroke="black" stroke-width="2" d="M142.526,-82.686C133.171,-81.7916 121.79,-80.7035 112.438,-79.8095"/>
</g>
<!-- 1&#45;&#45;8 -->
<g id="edge8" class="edge"><title>1&#45;&#45;8</title>
<path fill="none" stroke="black" stroke-width="2" d="M145.393,-94.1919C129.963,-104.081 106.236,-119.289 90.7504,-129.214"/>
</g>
<!-- 2 -->
<g id="node3" class="node"><title>2</title>
<ellipse fill="cadetblue" stroke="black" cx="123.777" cy="-165.161" rx="18" ry="18"/>
</g>
<!-- 2&#45;&#45;5 -->
<g id="edge9" class="edge"><title>2&#45;&#45;5</title>
<path fill="none" stroke="black" stroke-width="2" d="M105.772,-168.704C89.795,-171.847 66.5768,-176.416 50.6111,-179.557"/>
</g>
<!-- 2&#45;&#45;6 -->
<g id="edge10" class="edge"><title>2&#45;&#45;6</title>
<path fill="none" stroke="black" stroke-width="2" d="M141.805,-167.866C151.811,-169.367 164.222,-171.229 174.247,-172.733"/>
</g>
<!-- 2&#45;&#45;7 -->
<g id="edge11" class="edge"><title>2&#45;&#45;7</title>
<path fill="none" stroke="black" stroke-width="2" d="M117.962,-147.957C112.802,-132.69 105.303,-110.504 100.146,-95.2483"/>
</g>
<!-- 2&#45;&#45;8 -->
<g id="edge12" class="edge"><title>2&#45;&#45;8</title>
<path fill="none" stroke="black" stroke-width="2" d="M107.919,-156.624C102.622,-153.772 96.7172,-150.593 91.4052,-147.734"/>
</g>
<!-- 3 -->
<g id="node4" class="node"><title>3</title>
<ellipse fill="cadetblue" stroke="black" cx="106.475" cy="-227.991" rx="18" ry="18"/>
</g>
<!-- 3&#45;&#45;5 -->
<g id="edge13" class="edge"><title>3&#45;&#45;5</title>
<path fill="none" stroke="black" stroke-width="2" d="M90.8173,-218.469C78.2032,-210.798 60.5657,-200.072 48.0255,-192.446"/>
</g>
<!-- 3&#45;&#45;6 -->
<g id="edge14" class="edge"><title>3&#45;&#45;6</title>
<path fill="none" stroke="black" stroke-width="2" d="M121.836,-218.599C137.378,-209.095 161.278,-194.481 176.876,-184.944"/>
</g>
<!-- 3&#45;&#45;8 -->
<g id="edge15" class="edge"><title>3&#45;&#45;8</title>
<path fill="none" stroke="black" stroke-width="2" d="M100.473,-210.849C94.9607,-195.107 86.8357,-171.903 81.3291,-156.177"/>
</g>
<!-- 4&#45;&#45;7 -->
<g id="edge16" class="edge"><title>4&#45;&#45;7</title>
<path fill="none" stroke="black" stroke-width="2" d="M91.8075,-36.0258C92.266,-43.6299 92.7986,-52.4637 93.257,-60.0664"/>
</g>
<!-- 5&#45;&#45;8 -->
<g id="edge17" class="edge"><title>5&#45;&#45;8</title>
<path fill="none" stroke="black" stroke-width="2" d="M45.2245,-170.127C50.7353,-164.449 57.1894,-157.798 62.7068,-152.112"/>
</g>
<!-- 7&#45;&#45;8 -->
<g id="edge18" class="edge"><title>7&#45;&#45;8</title>
<path fill="none" stroke="black" stroke-width="2" d="M88.9499,-95.3989C86.4049,-103.572 83.373,-113.308 80.818,-121.513"/>
</g>
</g>
</svg>

