<?xml version="1.0" encoding="UTF-8" standalone="no"?>
<!DOCTYPE svg PUBLIC "-//W3C//DTD SVG 1.1//EN"
 "http://www.w3.org/Graphics/SVG/1.1/DTD/svg11.dtd">
<!-- Generated by graphviz version 2.36.0 (20140111.2315)
 -->
<!-- Title: G Pages: 1 -->
<svg width="100%" height="100%"
 viewBox="0.00 0.00 320.83 292.38" xmlns="http://www.w3.org/2000/svg" xmlns:xlink="http://www.w3.org/1999/xlink">
<g id="graph0" class="graph" transform="scale(1 1) rotate(0) translate(4 288.378)">
<title>G</title>
<!-- 0 -->
<g id="node1" class="node"><title>0</title>
<ellipse fill="cadetblue" stroke="black" cx="100.942" cy="-91.3972" rx="18" ry="18"/>
</g>
<!-- 4 -->
<g id="node5" class="node"><title>4</title>
<ellipse fill="cadetblue" stroke="black" cx="211.184" cy="-92.8773" rx="18" ry="18"/>
</g>
<!-- 0&#45;&#45;4 -->
<g id="edge1" class="edge"><title>0&#45;&#45;4</title>
<path fill="none" stroke="black" stroke-width="2" d="M119.146,-91.6416C139.572,-91.9158 172.516,-92.3581 192.953,-92.6325"/>
</g>
<!-- 5 -->
<g id="node6" class="node"><title>5</title>
<ellipse fill="cadetblue" stroke="black" cx="47.7648" cy="-212.553" rx="18" ry="18"/>
</g>
<!-- 0&#45;&#45;5 -->
<g id="edge2" class="edge"><title>0&#45;&#45;5</title>
<path fill="none" stroke="black" stroke-width="2" d="M93.6594,-107.989C83.533,-131.061 65.3004,-172.601 55.1301,-195.773"/>
</g>
<!-- 6 -->
<g id="node7" class="node"><title>6</title>
<ellipse fill="cadetblue" stroke="black" cx="180.432" cy="-18" rx="18" ry="18"/>
</g>
<!-- 0&#45;&#45;6 -->
<g id="edge3" class="edge"><title>0&#45;&#45;6</title>
<path fill="none" stroke="black" stroke-width="2" d="M114.426,-78.9464C129.132,-65.3677 152.52,-43.7727 167.147,-30.267"/>
</g>
<!-- 7 -->
<g id="node8" class="node"><title>7</title>
<ellipse fill="cadetblue" stroke="black" cx="18" cy="-152.944" rx="18" ry="18"/>
</g>
<!-- 0&#45;&#45;7 -->
<g id="edge4" class="edge"><title>0&#45;&#45;7</title>
<path fill="none" stroke="black" stroke-width="2" d="M86.1136,-102.401C71.0166,-113.603 47.7505,-130.868 32.7,-142.036"/>
</g>
<!-- 8 -->
<g id="node9" class="node"><title>8</title>
<ellipse fill="cadetblue" stroke="black" cx="209.887" cy="-184.655" rx="18" ry="18"/>
</g>
<!-- 0&#45;&#45;8 -->
<g id="edge5" class="edge"><title>0&#45;&#45;8</title>
<path fill="none" stroke="black" stroke-width="2" d="M116.286,-101.347C123.995,-106.541 133.363,-113.153 141.315,-119.645 161.902,-136.451 183.893,-158.02 197.267,-171.594"/>
</g>
<!-- 1 -->
<g id="node2" class="node"><title>1</title>
<ellipse fill="cadetblue" stroke="black" cx="125.507" cy="-135.402" rx="18" ry="18"/>
</g>
<!-- 1&#45;&#45;4 -->
<g id="edge6" class="edge"><title>1&#45;&#45;4</title>
<path fill="none" stroke="black" stroke-width="2" d="M142.026,-127.202C157.295,-119.624 179.847,-108.431 195.006,-100.907"/>
</g>
<!-- 1&#45;&#45;5 -->
<g id="edge7" class="edge"><title>1&#45;&#45;5</title>
<path fill="none" stroke="black" stroke-width="2" d="M112.669,-148.142C98.2649,-162.437 75.0335,-185.492 60.6214,-199.794"/>
</g>
<!-- 1&#45;&#45;6 -->
<g id="edge8" class="edge"><title>1&#45;&#45;6</title>
<path fill="none" stroke="black" stroke-width="2" d="M133.144,-119.077C143.578,-96.7735 162.19,-56.9924 172.683,-34.564"/>
</g>
<!-- 1&#45;&#45;7 -->
<g id="edge9" class="edge"><title>1&#45;&#45;7</title>
<path fill="none" stroke="black" stroke-width="2" d="M107.27,-138.377C87.3807,-141.623 55.7499,-146.784 35.9677,-150.012"/>
</g>
<!-- 1&#45;&#45;8 -->
<g id="edge10" class="edge"><title>1&#45;&#45;8</title>
<path fill="none" stroke="black" stroke-width="2" d="M141.378,-144.666C156.464,-153.471 179.024,-166.64 194.086,-175.432"/>
</g>
<!-- 2 -->
<g id="node3" class="node"><title>2</title>
<ellipse fill="cadetblue" stroke="black" cx="294.826" cy="-89.066" rx="18" ry="18"/>
</g>
<!-- 2&#45;&#45;4 -->
<g id="edge11" class="edge"><title>2&#45;&#45;4</title>
<path fill="none" stroke="black" stroke-width="2" d="M276.677,-89.893C262.647,-90.5323 243.318,-91.413 229.298,-92.0519"/>
</g>
<!-- 2&#45;&#45;6 -->
<g id="edge12" class="edge"><title>2&#45;&#45;6</title>
<path fill="none" stroke="black" stroke-width="2" d="M279.398,-79.4817C257.565,-65.9183 217.879,-41.2636 195.981,-27.6594"/>
</g>
<!-- 2&#45;&#45;8 -->
<g id="edge13" class="edge"><title>2&#45;&#45;8</title>
<path fill="none" stroke="black" stroke-width="2" d="M282.656,-102.762C266.509,-120.933 238.169,-152.826 222.034,-170.985"/>
</g>
<!-- 3 -->
<g id="node4" class="node"><title>3</title>
<ellipse fill="cadetblue" stroke="black" cx="117.738" cy="-266.378" rx="18" ry="18"/>
</g>
<!-- 3&#45;&#45;5 -->
<g id="edge14" class="edge"><title>3&#45;&#45;5</title>
<path fill="none" stroke="black" stroke-width="2" d="M103.24,-255.225C91.2306,-245.988 74.2488,-232.925 62.2448,-223.691"/>
</g>
<!-- 3&#45;&#45;7 -->
<g id="edge15" class="edge"><title>3&#45;&#45;7</title>
<path fill="none" stroke="black" stroke-width="2" d="M107.113,-251.492C96.5873,-237.053 79.7402,-214.753 63.5482,-196.771 53.4144,-185.517 40.9704,-173.661 31.6515,-165.122"/>
</g>
<!-- 3&#45;&#45;8 -->
<g id="edge16" class="edge"><title>3&#45;&#45;8</title>
<path fill="none" stroke="black" stroke-width="2" d="M131.335,-254.319C148.757,-238.868 178.785,-212.238 196.234,-196.763"/>
</g>
<!-- 4&#45;&#45;6 -->
<g id="edge17" class="edge"><title>4&#45;&#45;6</title>
<path fill="none" stroke="black" stroke-width="2" d="M204.206,-75.8865C199.138,-63.546 192.314,-46.93 187.277,-34.6656"/>
</g>
<!-- 4&#45;&#45;8 -->
<g id="edge18" class="edge"><title>4&#45;&#45;8</title>
<path fill="none" stroke="black" stroke-width="2" d="M210.928,-111.01C210.7,-127.099 210.37,-150.482 210.142,-166.56"/>
</g>
<!-- 5&#45;&#45;7 -->
<g id="edge19" class="edge"><title>5&#45;&#45;7</title>
<path fill="none" stroke="black" stroke-width="2" d="M39.6315,-196.265C35.4316,-187.854 30.322,-177.621 26.1235,-169.213"/>
</g>
</g>
</svg>

