<?xml version="1.0" encoding="UTF-8" standalone="no"?>
<!DOCTYPE svg PUBLIC "-//W3C//DTD SVG 1.1//EN"
 "http://www.w3.org/Graphics/SVG/1.1/DTD/svg11.dtd">
<!-- Generated by graphviz version 2.36.0 (20140111.2315)
 -->
<!-- Title: G Pages: 1 -->
<svg width="100%" height="100%"
 viewBox="0.00 0.00 255.88 180.35" xmlns="http://www.w3.org/2000/svg" xmlns:xlink="http://www.w3.org/1999/xlink">
<g id="graph0" class="graph" transform="scale(1 1) rotate(0) translate(4 176.351)">
<title>G</title>
<!-- 0 -->
<g id="node1" class="node"><title>0</title>
<ellipse fill="cadetblue" stroke="black" cx="28.5411" cy="-18" rx="18" ry="18"/>
</g>
<!-- 4 -->
<g id="node5" class="node"><title>4</title>
<ellipse fill="brown" stroke="black" cx="142.067" cy="-109.002" rx="18" ry="18"/>
</g>
<!-- 0&#45;&#45;4 -->
<g id="edge1" class="edge"><title>0&#45;&#45;4</title>
<path fill="none" stroke="black" stroke-width="2" d="M42.9192,-29.5255C64.7564,-47.0301 106.038,-80.1212 127.805,-97.5701"/>
</g>
<!-- 5 -->
<g id="node6" class="node"><title>5</title>
<ellipse fill="dodgerblue" stroke="black" cx="97.8504" cy="-135.814" rx="18" ry="18"/>
</g>
<!-- 0&#45;&#45;5 -->
<g id="edge2" class="edge"><title>0&#45;&#45;5</title>
<path fill="none" stroke="black" stroke-width="2" d="M37.8885,-33.8889C51.1906,-56.5001 75.4309,-97.7045 88.6512,-120.177"/>
</g>
<!-- 6 -->
<g id="node7" class="node"><title>6</title>
<ellipse fill="turquoise" stroke="black" cx="151.848" cy="-44.4974" rx="18" ry="18"/>
</g>
<!-- 0&#45;&#45;6 -->
<g id="edge3" class="edge"><title>0&#45;&#45;6</title>
<path fill="none" stroke="black" stroke-width="2" d="M45.5418,-24.7715C61.3829,-30.7306 85.8058,-39.0318 107.842,-42.8295 116.281,-44.2837 125.758,-44.7847 133.751,-44.8883"/>
</g>
<!-- 7 -->
<g id="node8" class="node"><title>7</title>
<ellipse fill="orchid" stroke="black" cx="107.843" cy="-20.5095" rx="18" ry="18"/>
</g>
<!-- 0&#45;&#45;7 -->
<g id="edge4" class="edge"><title>0&#45;&#45;7</title>
<path fill="none" stroke="black" stroke-width="2" d="M46.536,-18.5694C59.4229,-18.9772 76.7122,-19.5243 89.6451,-19.9336"/>
</g>
<!-- 1 -->
<g id="node2" class="node"><title>1</title>
<ellipse fill="cadetblue" stroke="black" cx="18" cy="-112.599" rx="18" ry="18"/>
</g>
<!-- 1&#45;&#45;4 -->
<g id="edge5" class="edge"><title>1&#45;&#45;4</title>
<path fill="none" stroke="black" stroke-width="2" d="M36.0404,-112.076C59.5626,-111.394 100.472,-110.208 124.005,-109.526"/>
</g>
<!-- 1&#45;&#45;5 -->
<g id="edge6" class="edge"><title>1&#45;&#45;5</title>
<path fill="none" stroke="black" stroke-width="2" d="M35.3264,-117.636C48.7199,-121.53 67.1728,-126.895 80.5579,-130.786"/>
</g>
<!-- 1&#45;&#45;6 -->
<g id="edge7" class="edge"><title>1&#45;&#45;6</title>
<path fill="none" stroke="black" stroke-width="2" d="M34.1451,-104.384C59.8713,-91.2946 109.883,-65.8488 135.645,-52.7411"/>
</g>
<!-- 1&#45;&#45;7 -->
<g id="edge8" class="edge"><title>1&#45;&#45;7</title>
<path fill="none" stroke="black" stroke-width="2" d="M30.8723,-99.4045C47.9515,-81.8983 77.9276,-51.1729 94.9947,-33.6791"/>
</g>
<!-- 2 -->
<g id="node3" class="node"><title>2</title>
<ellipse fill="cadetblue" stroke="black" cx="229.875" cy="-28.8095" rx="18" ry="18"/>
</g>
<!-- 2&#45;&#45;4 -->
<g id="edge9" class="edge"><title>2&#45;&#45;4</title>
<path fill="none" stroke="black" stroke-width="2" d="M216.539,-40.989C200.035,-56.0616 172.09,-81.5825 155.528,-96.7078"/>
</g>
<!-- 2&#45;&#45;5 -->
<g id="edge10" class="edge"><title>2&#45;&#45;5</title>
<path fill="none" stroke="black" stroke-width="2" d="M213.35,-36.3132C191.606,-46.7641 153.036,-67.3476 126.441,-93.0641 118.482,-100.76 111.525,-111.031 106.467,-119.576"/>
</g>
<!-- 2&#45;&#45;6 -->
<g id="edge11" class="edge"><title>2&#45;&#45;6</title>
<path fill="none" stroke="black" stroke-width="2" d="M212.17,-32.3693C199.49,-34.9186 182.478,-38.3389 169.753,-40.8973"/>
</g>
<!-- 2&#45;&#45;7 -->
<g id="edge12" class="edge"><title>2&#45;&#45;7</title>
<path fill="none" stroke="black" stroke-width="2" d="M211.924,-27.0422C196.126,-25.5444 172.493,-23.4438 151.874,-22.1774 143.323,-21.6522 133.826,-21.2673 125.848,-21.0004"/>
</g>
<!-- 3 -->
<g id="node4" class="node"><title>3</title>
<ellipse fill="cadetblue" stroke="black" cx="210.987" cy="-154.351" rx="18" ry="18"/>
</g>
<!-- 3&#45;&#45;4 -->
<g id="edge13" class="edge"><title>3&#45;&#45;4</title>
<path fill="none" stroke="black" stroke-width="2" d="M195.691,-144.287C184.27,-136.772 168.73,-126.547 157.32,-119.038"/>
</g>
<!-- 3&#45;&#45;5 -->
<g id="edge14" class="edge"><title>3&#45;&#45;5</title>
<path fill="none" stroke="black" stroke-width="2" d="M193.06,-151.414C171.875,-147.943 136.841,-142.203 115.693,-138.737"/>
</g>
<!-- 3&#45;&#45;6 -->
<g id="edge15" class="edge"><title>3&#45;&#45;6</title>
<path fill="none" stroke="black" stroke-width="2" d="M202.261,-138.142C191.015,-117.253 171.586,-81.163 160.417,-60.4161"/>
</g>
<!-- 3&#45;&#45;7 -->
<g id="edge16" class="edge"><title>3&#45;&#45;7</title>
<path fill="none" stroke="black" stroke-width="2" d="M199.31,-140.199C184.351,-121.953 157.761,-89.1349 136.046,-60.2612 129.943,-52.1459 123.365,-42.9042 118.097,-35.3752"/>
</g>
<!-- 4&#45;&#45;5 -->
<g id="edge17" class="edge"><title>4&#45;&#45;5</title>
<path fill="none" stroke="black" stroke-width="2" d="M126.602,-118.379C122.319,-120.977 117.668,-123.797 113.381,-126.396"/>
</g>
<!-- 4&#45;&#45;6 -->
<g id="edge18" class="edge"><title>4&#45;&#45;6</title>
<path fill="none" stroke="black" stroke-width="2" d="M144.791,-91.0339C146.148,-82.0871 147.783,-71.3026 149.138,-62.3692"/>
</g>
<!-- 4&#45;&#45;7 -->
<g id="edge19" class="edge"><title>4&#45;&#45;7</title>
<path fill="none" stroke="black" stroke-width="2" d="M135.468,-91.9397C129.408,-76.2697 120.475,-53.1728 114.422,-37.5193"/>
</g>
<!-- 5&#45;&#45;6 -->
<g id="edge20" class="edge"><title>5&#45;&#45;6</title>
<path fill="none" stroke="black" stroke-width="2" d="M107.256,-119.908C117.167,-103.147 132.68,-76.9127 142.55,-60.2212"/>
</g>
<!-- 5&#45;&#45;7 -->
<g id="edge21" class="edge"><title>5&#45;&#45;7</title>
<path fill="none" stroke="black" stroke-width="2" d="M99.4118,-117.798C101.278,-96.2624 104.384,-60.4266 106.26,-38.7798"/>
</g>
<!-- 6&#45;&#45;7 -->
<g id="edge22" class="edge"><title>6&#45;&#45;7</title>
<path fill="none" stroke="black" stroke-width="2" d="M135.961,-35.8372C132.022,-33.69 127.799,-31.3879 123.854,-29.2375"/>
</g>
</g>
</svg>

