<?xml version="1.0" encoding="UTF-8" standalone="no"?>
<!DOCTYPE svg PUBLIC "-//W3C//DTD SVG 1.1//EN"
 "http://www.w3.org/Graphics/SVG/1.1/DTD/svg11.dtd">
<!-- Generated by graphviz version 2.36.0 (20140111.2315)
 -->
<!-- Title: G Pages: 1 -->
<svg width="100%" height="100%"
 viewBox="0.00 0.00 222.79 201.59" xmlns="http://www.w3.org/2000/svg" xmlns:xlink="http://www.w3.org/1999/xlink">
<g id="graph0" class="graph" transform="scale(1 1) rotate(0) translate(4 197.595)">
<title>G</title>
<!-- 0 -->
<g id="node1" class="node"><title>0</title>
<ellipse fill="cadetblue" stroke="black" cx="101.409" cy="-69.954" rx="18" ry="18"/>
</g>
<!-- 4 -->
<g id="node5" class="node"><title>4</title>
<ellipse fill="cadetblue" stroke="black" cx="196.79" cy="-83.9401" rx="18" ry="18"/>
</g>
<!-- 0&#45;&#45;4 -->
<g id="edge1" class="edge"><title>0&#45;&#45;4</title>
<path fill="none" stroke="black" stroke-width="2" d="M119.35,-72.5847C136.402,-75.0852 161.904,-78.8247 178.93,-81.3212"/>
</g>
<!-- 5 -->
<g id="node6" class="node"><title>5</title>
<ellipse fill="cadetblue" stroke="black" cx="18" cy="-113.665" rx="18" ry="18"/>
</g>
<!-- 0&#45;&#45;5 -->
<g id="edge2" class="edge"><title>0&#45;&#45;5</title>
<path fill="none" stroke="black" stroke-width="2" d="M85.3272,-78.3819C70.5573,-86.1222 48.7871,-97.5309 34.0328,-105.263"/>
</g>
<!-- 6 -->
<g id="node7" class="node"><title>6</title>
<ellipse fill="cadetblue" stroke="black" cx="66.3822" cy="-175.595" rx="18" ry="18"/>
</g>
<!-- 0&#45;&#45;6 -->
<g id="edge3" class="edge"><title>0&#45;&#45;6</title>
<path fill="none" stroke="black" stroke-width="2" d="M98.5656,-88.0826C97.0548,-96.3494 94.951,-106.206 92.276,-114.875 87.4777,-130.425 80.0356,-147.406 74.3589,-159.447"/>
</g>
<!-- 7 -->
<g id="node8" class="node"><title>7</title>
<ellipse fill="cadetblue" stroke="black" cx="147.346" cy="-18" rx="18" ry="18"/>
</g>
<!-- 0&#45;&#45;7 -->
<g id="edge4" class="edge"><title>0&#45;&#45;7</title>
<path fill="none" stroke="black" stroke-width="2" d="M113.479,-56.3037C120.178,-48.7274 128.487,-39.33 135.198,-31.7395"/>
</g>
<!-- 8 -->
<g id="node9" class="node"><title>8</title>
<ellipse fill="cadetblue" stroke="black" cx="69.9563" cy="-114.756" rx="18" ry="18"/>
</g>
<!-- 0&#45;&#45;8 -->
<g id="edge5" class="edge"><title>0&#45;&#45;8</title>
<path fill="none" stroke="black" stroke-width="2" d="M90.7608,-85.1219C87.4103,-89.8944 83.7153,-95.1575 80.3806,-99.9076"/>
</g>
<!-- 1 -->
<g id="node2" class="node"><title>1</title>
<ellipse fill="cadetblue" stroke="black" cx="125.417" cy="-174.881" rx="18" ry="18"/>
</g>
<!-- 1&#45;&#45;4 -->
<g id="edge6" class="edge"><title>1&#45;&#45;4</title>
<path fill="none" stroke="black" stroke-width="2" d="M142.236,-167.453C152.649,-162.136 165.647,-154.103 174.345,-143.797 184.509,-131.754 190.304,-114.654 193.448,-101.813"/>
</g>
<!-- 1&#45;&#45;5 -->
<g id="edge7" class="edge"><title>1&#45;&#45;5</title>
<path fill="none" stroke="black" stroke-width="2" d="M109.567,-165.848C89.2582,-154.274 54.255,-134.326 33.9148,-122.735"/>
</g>
<!-- 1&#45;&#45;6 -->
<g id="edge8" class="edge"><title>1&#45;&#45;6</title>
<path fill="none" stroke="black" stroke-width="2" d="M107.384,-175.099C100.195,-175.186 91.9301,-175.286 84.7123,-175.373"/>
</g>
<!-- 1&#45;&#45;8 -->
<g id="edge9" class="edge"><title>1&#45;&#45;8</title>
<path fill="none" stroke="black" stroke-width="2" d="M113.108,-161.537C103.918,-151.574 91.4129,-138.017 82.2304,-128.062"/>
</g>
<!-- 2 -->
<g id="node3" class="node"><title>2</title>
<ellipse fill="cadetblue" stroke="black" cx="41.6255" cy="-21.8965" rx="18" ry="18"/>
</g>
<!-- 2&#45;&#45;5 -->
<g id="edge10" class="edge"><title>2&#45;&#45;5</title>
<path fill="none" stroke="black" stroke-width="2" d="M37.0703,-39.5904C32.8867,-55.8405 26.7204,-79.7925 22.5412,-96.0254"/>
</g>
<!-- 2&#45;&#45;7 -->
<g id="edge11" class="edge"><title>2&#45;&#45;7</title>
<path fill="none" stroke="black" stroke-width="2" d="M60.0407,-21.2178C79.4451,-20.5026 109.818,-19.3832 129.142,-18.6709"/>
</g>
<!-- 2&#45;&#45;8 -->
<g id="edge12" class="edge"><title>2&#45;&#45;8</title>
<path fill="none" stroke="black" stroke-width="2" d="M46.9543,-39.3626C52.0194,-55.9644 59.5942,-80.7923 64.6514,-97.3681"/>
</g>
<!-- 3 -->
<g id="node4" class="node"><title>3</title>
<ellipse fill="cadetblue" stroke="black" cx="158.633" cy="-127.945" rx="18" ry="18"/>
</g>
<!-- 3&#45;&#45;6 -->
<g id="edge13" class="edge"><title>3&#45;&#45;6</title>
<path fill="none" stroke="black" stroke-width="2" d="M142.564,-136.245C125.735,-144.937 99.4519,-158.513 82.5764,-167.23"/>
</g>
<!-- 3&#45;&#45;7 -->
<g id="edge14" class="edge"><title>3&#45;&#45;7</title>
<path fill="none" stroke="black" stroke-width="2" d="M156.769,-109.789C154.678,-89.4185 151.305,-56.564 149.213,-36.1821"/>
</g>
<!-- 3&#45;&#45;8 -->
<g id="edge15" class="edge"><title>3&#45;&#45;8</title>
<path fill="none" stroke="black" stroke-width="2" d="M140.688,-125.276C125.303,-122.987 103.252,-119.708 87.8746,-117.421"/>
</g>
<!-- 4&#45;&#45;7 -->
<g id="edge16" class="edge"><title>4&#45;&#45;7</title>
<path fill="none" stroke="black" stroke-width="2" d="M185.817,-69.3059C177.623,-58.3785 166.475,-43.5109 158.289,-32.5933"/>
</g>
<!-- 5&#45;&#45;6 -->
<g id="edge17" class="edge"><title>5&#45;&#45;6</title>
<path fill="none" stroke="black" stroke-width="2" d="M29.2215,-128.029C37.0377,-138.033 47.4187,-151.321 55.2216,-161.309"/>
</g>
<!-- 5&#45;&#45;8 -->
<g id="edge18" class="edge"><title>5&#45;&#45;8</title>
<path fill="none" stroke="black" stroke-width="2" d="M36.1718,-114.047C41.205,-114.152 46.6693,-114.267 51.707,-114.373"/>
</g>
<!-- 6&#45;&#45;8 -->
<g id="edge19" class="edge"><title>6&#45;&#45;8</title>
<path fill="none" stroke="black" stroke-width="2" d="M67.4546,-157.341C67.9069,-149.641 68.4324,-140.695 68.8847,-132.997"/>
</g>
</g>
</svg>

