<?xml version="1.0" encoding="UTF-8" standalone="no"?>
<!DOCTYPE svg PUBLIC "-//W3C//DTD SVG 1.1//EN"
 "http://www.w3.org/Graphics/SVG/1.1/DTD/svg11.dtd">
<!-- Generated by graphviz version 2.36.0 (20140111.2315)
 -->
<!-- Title: G Pages: 1 -->
<svg width="100%" height="100%"
 viewBox="0.00 0.00 247.19 167.16" xmlns="http://www.w3.org/2000/svg" xmlns:xlink="http://www.w3.org/1999/xlink">
<g id="graph0" class="graph" transform="scale(1 1) rotate(0) translate(4 163.158)">
<title>G</title>
<!-- 0 -->
<g id="node1" class="node"><title>0</title>
<ellipse fill="cadetblue" stroke="black" cx="200.892" cy="-55.7594" rx="18" ry="18"/>
</g>
<!-- 4 -->
<g id="node5" class="node"><title>4</title>
<ellipse fill="cadetblue" stroke="black" cx="221.194" cy="-126.578" rx="18" ry="18"/>
</g>
<!-- 0&#45;&#45;4 -->
<g id="edge1" class="edge"><title>0&#45;&#45;4</title>
<path fill="none" stroke="black" stroke-width="2" d="M205.911,-73.2652C209.058,-84.2425 213.098,-98.3351 216.234,-109.274"/>
</g>
<!-- 6 -->
<g id="node7" class="node"><title>6</title>
<ellipse fill="cadetblue" stroke="black" cx="153.551" cy="-24.0283" rx="18" ry="18"/>
</g>
<!-- 0&#45;&#45;6 -->
<g id="edge2" class="edge"><title>0&#45;&#45;6</title>
<path fill="none" stroke="black" stroke-width="2" d="M185.913,-45.7195C180.387,-42.0155 174.127,-37.8196 168.595,-34.1118"/>
</g>
<!-- 8 -->
<g id="node9" class="node"><title>8</title>
<ellipse fill="cadetblue" stroke="black" cx="91.8383" cy="-86.2457" rx="18" ry="18"/>
</g>
<!-- 0&#45;&#45;8 -->
<g id="edge3" class="edge"><title>0&#45;&#45;8</title>
<path fill="none" stroke="black" stroke-width="2" d="M183.055,-58.6866C169.895,-61.0383 151.623,-64.7071 135.927,-69.3253 126.803,-72.0097 116.896,-75.7355 108.788,-79.0078"/>
</g>
<!-- 1 -->
<g id="node2" class="node"><title>1</title>
<ellipse fill="cadetblue" stroke="black" cx="157.224" cy="-136.896" rx="18" ry="18"/>
</g>
<!-- 1&#45;&#45;4 -->
<g id="edge4" class="edge"><title>1&#45;&#45;4</title>
<path fill="none" stroke="black" stroke-width="2" d="M175.043,-134.022C183.768,-132.615 194.255,-130.923 203.026,-129.509"/>
</g>
<!-- 1&#45;&#45;6 -->
<g id="edge5" class="edge"><title>1&#45;&#45;6</title>
<path fill="none" stroke="black" stroke-width="2" d="M157.965,-118.873C158.21,-110.603 158.374,-100.668 158.163,-91.7295 157.765,-74.8875 156.373,-55.7366 155.221,-42.1114"/>
</g>
<!-- 1&#45;&#45;8 -->
<g id="edge6" class="edge"><title>1&#45;&#45;8</title>
<path fill="none" stroke="black" stroke-width="2" d="M142.712,-125.655C131.877,-117.262 117.135,-105.841 106.309,-97.4553"/>
</g>
<!-- 2 -->
<g id="node3" class="node"><title>2</title>
<ellipse fill="cadetblue" stroke="black" cx="80.5251" cy="-18" rx="18" ry="18"/>
</g>
<!-- 5 -->
<g id="node6" class="node"><title>5</title>
<ellipse fill="cadetblue" stroke="black" cx="18" cy="-68.6745" rx="18" ry="18"/>
</g>
<!-- 2&#45;&#45;5 -->
<g id="edge7" class="edge"><title>2&#45;&#45;5</title>
<path fill="none" stroke="black" stroke-width="2" d="M66.3372,-29.4988C56.1046,-37.792 42.3515,-48.9385 32.1318,-57.2212"/>
</g>
<!-- 2&#45;&#45;6 -->
<g id="edge8" class="edge"><title>2&#45;&#45;6</title>
<path fill="none" stroke="black" stroke-width="2" d="M98.5766,-19.4901C109.812,-20.4176 124.211,-21.6063 135.455,-22.5344"/>
</g>
<!-- 7 -->
<g id="node8" class="node"><title>7</title>
<ellipse fill="cadetblue" stroke="black" cx="135.843" cy="-91.6451" rx="18" ry="18"/>
</g>
<!-- 2&#45;&#45;7 -->
<g id="edge9" class="edge"><title>2&#45;&#45;7</title>
<path fill="none" stroke="black" stroke-width="2" d="M91.4541,-32.5499C101.152,-45.4609 115.245,-64.2236 124.936,-77.1255"/>
</g>
<!-- 2&#45;&#45;8 -->
<g id="edge10" class="edge"><title>2&#45;&#45;8</title>
<path fill="none" stroke="black" stroke-width="2" d="M83.4975,-35.9308C85.1473,-45.8828 87.1936,-58.227 88.8464,-68.1978"/>
</g>
<!-- 3 -->
<g id="node4" class="node"><title>3</title>
<ellipse fill="cadetblue" stroke="black" cx="55.1343" cy="-141.158" rx="18" ry="18"/>
</g>
<!-- 3&#45;&#45;5 -->
<g id="edge11" class="edge"><title>3&#45;&#45;5</title>
<path fill="none" stroke="black" stroke-width="2" d="M46.893,-125.072C40.7392,-113.06 32.3665,-96.717 26.2183,-84.716"/>
</g>
<!-- 3&#45;&#45;7 -->
<g id="edge12" class="edge"><title>3&#45;&#45;7</title>
<path fill="none" stroke="black" stroke-width="2" d="M70.6957,-131.612C84.9873,-122.844 106.053,-109.921 120.329,-101.162"/>
</g>
<!-- 3&#45;&#45;8 -->
<g id="edge13" class="edge"><title>3&#45;&#45;8</title>
<path fill="none" stroke="black" stroke-width="2" d="M65.1638,-126.153C70.3428,-118.405 76.6437,-108.978 81.8209,-101.233"/>
</g>
<!-- 4&#45;&#45;7 -->
<g id="edge14" class="edge"><title>4&#45;&#45;7</title>
<path fill="none" stroke="black" stroke-width="2" d="M204.332,-119.677C189.368,-113.552 167.623,-104.652 152.67,-98.5325"/>
</g>
<!-- 5&#45;&#45;8 -->
<g id="edge15" class="edge"><title>5&#45;&#45;8</title>
<path fill="none" stroke="black" stroke-width="2" d="M35.8742,-72.928C47.4834,-75.6907 62.5524,-79.2766 74.1287,-82.0314"/>
</g>
<!-- 6&#45;&#45;7 -->
<g id="edge16" class="edge"><title>6&#45;&#45;7</title>
<path fill="none" stroke="black" stroke-width="2" d="M148.991,-41.4413C146.367,-51.4585 143.08,-64.0095 140.449,-74.0561"/>
</g>
<!-- 7&#45;&#45;8 -->
<g id="edge17" class="edge"><title>7&#45;&#45;8</title>
<path fill="none" stroke="black" stroke-width="2" d="M117.944,-89.449C115.279,-89.122 112.531,-88.7848 109.864,-88.4574"/>
</g>
</g>
</svg>

