<?xml version="1.0" encoding="UTF-8" standalone="no"?>
<!DOCTYPE svg PUBLIC "-//W3C//DTD SVG 1.1//EN"
 "http://www.w3.org/Graphics/SVG/1.1/DTD/svg11.dtd">
<!-- Generated by graphviz version 2.36.0 (20140111.2315)
 -->
<!-- Title: G Pages: 1 -->
<svg width="100%" height="100%"
 viewBox="0.00 0.00 222.96 320.05" xmlns="http://www.w3.org/2000/svg" xmlns:xlink="http://www.w3.org/1999/xlink">
<g id="graph0" class="graph" transform="scale(1 1) rotate(0) translate(4 316.046)">
<title>G</title>
<!-- 0 -->
<g id="node1" class="node"><title>0</title>
<ellipse fill="cadetblue" stroke="black" cx="101.059" cy="-18" rx="18" ry="18"/>
</g>
<!-- 4 -->
<g id="node5" class="node"><title>4</title>
<ellipse fill="cadetblue" stroke="black" cx="196.956" cy="-63.9152" rx="18" ry="18"/>
</g>
<!-- 0&#45;&#45;4 -->
<g id="edge1" class="edge"><title>0&#45;&#45;4</title>
<path fill="none" stroke="black" stroke-width="2" d="M117.327,-25.7889C134.961,-34.2321 162.943,-47.6299 180.608,-56.0881"/>
</g>
<!-- 6 -->
<g id="node7" class="node"><title>6</title>
<ellipse fill="cadetblue" stroke="black" cx="18" cy="-90.4467" rx="18" ry="18"/>
</g>
<!-- 0&#45;&#45;6 -->
<g id="edge2" class="edge"><title>0&#45;&#45;6</title>
<path fill="none" stroke="black" stroke-width="2" d="M87.3435,-29.9631C71.954,-43.3863 47.1337,-65.0354 31.7359,-78.4658"/>
</g>
<!-- 8 -->
<g id="node9" class="node"><title>8</title>
<ellipse fill="cadetblue" stroke="black" cx="111.337" cy="-121.806" rx="18" ry="18"/>
</g>
<!-- 0&#45;&#45;8 -->
<g id="edge3" class="edge"><title>0&#45;&#45;8</title>
<path fill="none" stroke="black" stroke-width="2" d="M102.849,-36.0817C104.724,-55.0185 107.653,-84.5941 109.533,-103.584"/>
</g>
<!-- 1 -->
<g id="node2" class="node"><title>1</title>
<ellipse fill="cadetblue" stroke="black" cx="24.2936" cy="-182.237" rx="18" ry="18"/>
</g>
<!-- 5 -->
<g id="node6" class="node"><title>5</title>
<ellipse fill="cadetblue" stroke="black" cx="48.0471" cy="-294.046" rx="18" ry="18"/>
</g>
<!-- 1&#45;&#45;5 -->
<g id="edge4" class="edge"><title>1&#45;&#45;5</title>
<path fill="none" stroke="black" stroke-width="2" d="M28.11,-200.201C32.5427,-221.066 39.8115,-255.281 44.2401,-276.127"/>
</g>
<!-- 1&#45;&#45;6 -->
<g id="edge5" class="edge"><title>1&#45;&#45;6</title>
<path fill="none" stroke="black" stroke-width="2" d="M23.0502,-164.103C21.9468,-148.01 20.3434,-124.625 19.2408,-108.544"/>
</g>
<!-- 7 -->
<g id="node8" class="node"><title>7</title>
<ellipse fill="cadetblue" stroke="black" cx="166.795" cy="-170.766" rx="18" ry="18"/>
</g>
<!-- 1&#45;&#45;7 -->
<g id="edge6" class="edge"><title>1&#45;&#45;7</title>
<path fill="none" stroke="black" stroke-width="2" d="M42.3297,-179.439C50.3341,-178.284 59.879,-177.025 68.5186,-176.197 96.4152,-173.526 128.902,-172.048 148.649,-171.331"/>
</g>
<!-- 1&#45;&#45;8 -->
<g id="edge7" class="edge"><title>1&#45;&#45;8</title>
<path fill="none" stroke="black" stroke-width="2" d="M39.4554,-171.711C55.4317,-160.619 80.4387,-143.258 96.3491,-132.212"/>
</g>
<!-- 2 -->
<g id="node3" class="node"><title>2</title>
<ellipse fill="cadetblue" stroke="black" cx="68.298" cy="-198.516" rx="18" ry="18"/>
</g>
<!-- 2&#45;&#45;5 -->
<g id="edge8" class="edge"><title>2&#45;&#45;5</title>
<path fill="none" stroke="black" stroke-width="2" d="M64.489,-216.485C60.8684,-233.564 55.4539,-259.106 51.839,-276.158"/>
</g>
<!-- 2&#45;&#45;6 -->
<g id="edge9" class="edge"><title>2&#45;&#45;6</title>
<path fill="none" stroke="black" stroke-width="2" d="M60.6588,-182.103C51.2051,-161.791 35.1979,-127.398 25.7111,-107.015"/>
</g>
<!-- 2&#45;&#45;7 -->
<g id="edge10" class="edge"><title>2&#45;&#45;7</title>
<path fill="none" stroke="black" stroke-width="2" d="M85.9073,-193.555C103.836,-188.504 131.465,-180.72 149.338,-175.684"/>
</g>
<!-- 2&#45;&#45;8 -->
<g id="edge11" class="edge"><title>2&#45;&#45;8</title>
<path fill="none" stroke="black" stroke-width="2" d="M77.2157,-182.622C84.6023,-169.457 95.0474,-150.84 102.431,-137.68"/>
</g>
<!-- 3 -->
<g id="node4" class="node"><title>3</title>
<ellipse fill="cadetblue" stroke="black" cx="156.291" cy="-252.309" rx="18" ry="18"/>
</g>
<!-- 3&#45;&#45;5 -->
<g id="edge12" class="edge"><title>3&#45;&#45;5</title>
<path fill="none" stroke="black" stroke-width="2" d="M139.377,-258.83C119.161,-266.626 85.5198,-279.597 65.1986,-287.433"/>
</g>
<!-- 3&#45;&#45;7 -->
<g id="edge13" class="edge"><title>3&#45;&#45;7</title>
<path fill="none" stroke="black" stroke-width="2" d="M158.622,-234.212C160.363,-220.699 162.731,-202.313 164.47,-188.813"/>
</g>
<!-- 3&#45;&#45;8 -->
<g id="edge14" class="edge"><title>3&#45;&#45;8</title>
<path fill="none" stroke="black" stroke-width="2" d="M150.414,-235.248C141.798,-210.237 125.832,-163.884 117.215,-138.871"/>
</g>
<!-- 4&#45;&#45;7 -->
<g id="edge15" class="edge"><title>4&#45;&#45;7</title>
<path fill="none" stroke="black" stroke-width="2" d="M191.975,-81.5595C186.387,-101.357 177.374,-133.287 171.783,-153.096"/>
</g>
<!-- 4&#45;&#45;8 -->
<g id="edge16" class="edge"><title>4&#45;&#45;8</title>
<path fill="none" stroke="black" stroke-width="2" d="M182.042,-73.999C166.423,-84.5598 142.029,-101.054 126.367,-111.644"/>
</g>
<!-- 6&#45;&#45;8 -->
<g id="edge17" class="edge"><title>6&#45;&#45;8</title>
<path fill="none" stroke="black" stroke-width="2" d="M35.1195,-96.1985C51.8552,-101.821 77.2036,-110.338 94.0101,-115.985"/>
</g>
<!-- 7&#45;&#45;8 -->
<g id="edge18" class="edge"><title>7&#45;&#45;8</title>
<path fill="none" stroke="black" stroke-width="2" d="M153.086,-158.664C144.49,-151.075 133.454,-141.332 124.888,-133.77"/>
</g>
</g>
</svg>

