<?xml version="1.0" encoding="UTF-8" standalone="no"?>
<!DOCTYPE svg PUBLIC "-//W3C//DTD SVG 1.1//EN"
 "http://www.w3.org/Graphics/SVG/1.1/DTD/svg11.dtd">
<!-- Generated by graphviz version 2.36.0 (20140111.2315)
 -->
<!-- Title: G Pages: 1 -->
<svg width="100%" height="100%"
 viewBox="0.00 0.00 271.07 275.26" xmlns="http://www.w3.org/2000/svg" xmlns:xlink="http://www.w3.org/1999/xlink">
<g id="graph0" class="graph" transform="scale(1 1) rotate(0) translate(4 271.264)">
<title>G</title>
<!-- 0 -->
<g id="node1" class="node"><title>0</title>
<ellipse fill="cadetblue" stroke="black" cx="148.699" cy="-89.1178" rx="18" ry="18"/>
</g>
<!-- 4 -->
<g id="node5" class="node"><title>4</title>
<ellipse fill="cadetblue" stroke="black" cx="245.071" cy="-171.386" rx="18" ry="18"/>
</g>
<!-- 0&#45;&#45;4 -->
<g id="edge1" class="edge"><title>0&#45;&#45;4</title>
<path fill="none" stroke="black" stroke-width="2" d="M154.71,-106.48C159.315,-117.627 166.637,-131.743 176.919,-141.236 191.273,-154.489 212.405,-162.597 227.325,-167.019"/>
</g>
<!-- 5 -->
<g id="node6" class="node"><title>5</title>
<ellipse fill="cadetblue" stroke="black" cx="25.495" cy="-66.1438" rx="18" ry="18"/>
</g>
<!-- 0&#45;&#45;5 -->
<g id="edge2" class="edge"><title>0&#45;&#45;5</title>
<path fill="none" stroke="black" stroke-width="2" d="M130.784,-85.7772C107.425,-81.4215 66.8008,-73.8461 43.4315,-69.4884"/>
</g>
<!-- 6 -->
<g id="node7" class="node"><title>6</title>
<ellipse fill="cadetblue" stroke="black" cx="192.703" cy="-125.455" rx="18" ry="18"/>
</g>
<!-- 0&#45;&#45;6 -->
<g id="edge3" class="edge"><title>0&#45;&#45;6</title>
<path fill="none" stroke="black" stroke-width="2" d="M162.622,-100.615C167.759,-104.857 173.578,-109.662 178.719,-113.908"/>
</g>
<!-- 7 -->
<g id="node8" class="node"><title>7</title>
<ellipse fill="cadetblue" stroke="black" cx="80.0675" cy="-122.903" rx="18" ry="18"/>
</g>
<!-- 0&#45;&#45;7 -->
<g id="edge4" class="edge"><title>0&#45;&#45;7</title>
<path fill="none" stroke="black" stroke-width="2" d="M132.434,-97.1245C121.652,-102.432 107.547,-109.376 96.6922,-114.72"/>
</g>
<!-- 8 -->
<g id="node9" class="node"><title>8</title>
<ellipse fill="cadetblue" stroke="black" cx="133.406" cy="-201.72" rx="18" ry="18"/>
</g>
<!-- 0&#45;&#45;8 -->
<g id="edge5" class="edge"><title>0&#45;&#45;8</title>
<path fill="none" stroke="black" stroke-width="2" d="M146.276,-106.96C143.429,-127.921 138.732,-162.504 135.869,-183.589"/>
</g>
<!-- 1 -->
<g id="node2" class="node"><title>1</title>
<ellipse fill="cadetblue" stroke="black" cx="215.024" cy="-249.264" rx="18" ry="18"/>
</g>
<!-- 1&#45;&#45;4 -->
<g id="edge6" class="edge"><title>1&#45;&#45;4</title>
<path fill="none" stroke="black" stroke-width="2" d="M221.544,-232.366C226.584,-219.303 233.527,-201.306 238.564,-188.251"/>
</g>
<!-- 1&#45;&#45;6 -->
<g id="edge7" class="edge"><title>1&#45;&#45;6</title>
<path fill="none" stroke="black" stroke-width="2" d="M211.826,-231.525C207.607,-208.123 200.22,-167.149 195.968,-143.563"/>
</g>
<!-- 1&#45;&#45;8 -->
<g id="edge8" class="edge"><title>1&#45;&#45;8</title>
<path fill="none" stroke="black" stroke-width="2" d="M199.287,-240.097C184.834,-231.678 163.532,-219.269 149.095,-210.859"/>
</g>
<!-- 2 -->
<g id="node3" class="node"><title>2</title>
<ellipse fill="cadetblue" stroke="black" cx="115.153" cy="-18" rx="18" ry="18"/>
</g>
<!-- 2&#45;&#45;5 -->
<g id="edge9" class="edge"><title>2&#45;&#45;5</title>
<path fill="none" stroke="black" stroke-width="2" d="M99.1243,-26.6071C82.8047,-35.3702 57.6546,-48.8751 41.3854,-57.6112"/>
</g>
<!-- 2&#45;&#45;6 -->
<g id="edge10" class="edge"><title>2&#45;&#45;6</title>
<path fill="none" stroke="black" stroke-width="2" d="M128.247,-30.9175C138.772,-41.697 153.555,-57.7625 164.505,-73.3584 172.423,-84.6375 179.778,-98.3825 184.99,-108.922"/>
</g>
<!-- 2&#45;&#45;7 -->
<g id="edge11" class="edge"><title>2&#45;&#45;7</title>
<path fill="none" stroke="black" stroke-width="2" d="M109.36,-35.3227C102.859,-54.7596 92.3742,-86.1076 85.8699,-105.555"/>
</g>
<!-- 3 -->
<g id="node4" class="node"><title>3</title>
<ellipse fill="cadetblue" stroke="black" cx="18" cy="-187.7" rx="18" ry="18"/>
</g>
<!-- 3&#45;&#45;5 -->
<g id="edge12" class="edge"><title>3&#45;&#45;5</title>
<path fill="none" stroke="black" stroke-width="2" d="M19.1221,-169.502C20.535,-146.586 22.9487,-107.441 24.3652,-84.4664"/>
</g>
<!-- 3&#45;&#45;7 -->
<g id="edge13" class="edge"><title>3&#45;&#45;7</title>
<path fill="none" stroke="black" stroke-width="2" d="M30.5603,-174.588C41.3287,-163.346 56.7629,-147.233 67.5259,-135.997"/>
</g>
<!-- 3&#45;&#45;8 -->
<g id="edge14" class="edge"><title>3&#45;&#45;8</title>
<path fill="none" stroke="black" stroke-width="2" d="M36.0322,-189.891C57.7132,-192.525 93.8763,-196.918 115.501,-199.545"/>
</g>
<!-- 4&#45;&#45;8 -->
<g id="edge15" class="edge"><title>4&#45;&#45;8</title>
<path fill="none" stroke="black" stroke-width="2" d="M227.624,-176.126C206.768,-181.791 172.064,-191.219 151.1,-196.914"/>
</g>
<!-- 5&#45;&#45;7 -->
<g id="edge16" class="edge"><title>5&#45;&#45;7</title>
<path fill="none" stroke="black" stroke-width="2" d="M38.1522,-79.3083C46.9685,-88.4779 58.6777,-100.656 67.479,-109.81"/>
</g>
<!-- 6&#45;&#45;7 -->
<g id="edge17" class="edge"><title>6&#45;&#45;7</title>
<path fill="none" stroke="black" stroke-width="2" d="M174.606,-125.045C153.587,-124.569 119.119,-123.788 98.1195,-123.312"/>
</g>
<!-- 6&#45;&#45;8 -->
<g id="edge18" class="edge"><title>6&#45;&#45;8</title>
<path fill="none" stroke="black" stroke-width="2" d="M181.55,-139.8C170.949,-153.435 155.094,-173.826 144.51,-187.44"/>
</g>
<!-- 7&#45;&#45;8 -->
<g id="edge19" class="edge"><title>7&#45;&#45;8</title>
<path fill="none" stroke="black" stroke-width="2" d="M90.3518,-138.1C99.7968,-152.057 113.718,-172.628 123.154,-186.57"/>
</g>
</g>
</svg>

