<?xml version="1.0" encoding="UTF-8" standalone="no"?>
<!DOCTYPE svg PUBLIC "-//W3C//DTD SVG 1.1//EN"
 "http://www.w3.org/Graphics/SVG/1.1/DTD/svg11.dtd">
<!-- Generated by graphviz version 2.36.0 (20140111.2315)
 -->
<!-- Title: G Pages: 1 -->
<svg width="100%" height="100%"
 viewBox="0.00 0.00 299.53 283.73" xmlns="http://www.w3.org/2000/svg" xmlns:xlink="http://www.w3.org/1999/xlink">
<g id="graph0" class="graph" transform="scale(1 1) rotate(0) translate(4 279.73)">
<title>G</title>
<!-- 0 -->
<g id="node1" class="node"><title>0</title>
<ellipse fill="cadetblue" stroke="black" cx="153.88" cy="-150.989" rx="18" ry="18"/>
</g>
<!-- 4 -->
<g id="node5" class="node"><title>4</title>
<ellipse fill="cadetblue" stroke="black" cx="243.658" cy="-249.061" rx="18" ry="18"/>
</g>
<!-- 0&#45;&#45;4 -->
<g id="edge1" class="edge"><title>0&#45;&#45;4</title>
<path fill="none" stroke="black" stroke-width="2" d="M166.363,-164.625C183.515,-183.362 214.184,-216.864 231.281,-235.54"/>
</g>
<!-- 6 -->
<g id="node7" class="node"><title>6</title>
<ellipse fill="cadetblue" stroke="black" cx="226.546" cy="-18" rx="18" ry="18"/>
</g>
<!-- 0&#45;&#45;6 -->
<g id="edge2" class="edge"><title>0&#45;&#45;6</title>
<path fill="none" stroke="black" stroke-width="2" d="M162.645,-134.947C176.612,-109.386 203.763,-59.6952 217.75,-34.0984"/>
</g>
<!-- 7 -->
<g id="node8" class="node"><title>7</title>
<ellipse fill="cadetblue" stroke="black" cx="141.968" cy="-25.8286" rx="18" ry="18"/>
</g>
<!-- 0&#45;&#45;7 -->
<g id="edge3" class="edge"><title>0&#45;&#45;7</title>
<path fill="none" stroke="black" stroke-width="2" d="M152.173,-133.056C149.921,-109.398 145.979,-67.9778 143.71,-44.1347"/>
</g>
<!-- 8 -->
<g id="node9" class="node"><title>8</title>
<ellipse fill="cadetblue" stroke="black" cx="105.44" cy="-69.833" rx="18" ry="18"/>
</g>
<!-- 0&#45;&#45;8 -->
<g id="edge4" class="edge"><title>0&#45;&#45;8</title>
<path fill="none" stroke="black" stroke-width="2" d="M144.54,-135.341C135.962,-120.97 123.319,-99.7881 114.751,-85.4325"/>
</g>
<!-- 1 -->
<g id="node2" class="node"><title>1</title>
<ellipse fill="cadetblue" stroke="black" cx="273.527" cy="-98.7835" rx="18" ry="18"/>
</g>
<!-- 1&#45;&#45;4 -->
<g id="edge5" class="edge"><title>1&#45;&#45;4</title>
<path fill="none" stroke="black" stroke-width="2" d="M269.984,-116.612C264.235,-145.535 252.943,-202.348 247.197,-231.255"/>
</g>
<!-- 1&#45;&#45;6 -->
<g id="edge6" class="edge"><title>1&#45;&#45;6</title>
<path fill="none" stroke="black" stroke-width="2" d="M264.469,-83.2076C256.203,-68.9944 244.044,-48.0879 235.737,-33.8037"/>
</g>
<!-- 1&#45;&#45;7 -->
<g id="edge7" class="edge"><title>1&#45;&#45;7</title>
<path fill="none" stroke="black" stroke-width="2" d="M257.658,-89.9834C232.372,-75.9611 183.215,-48.7017 157.893,-34.6598"/>
</g>
<!-- 1&#45;&#45;8 -->
<g id="edge8" class="edge"><title>1&#45;&#45;8</title>
<path fill="none" stroke="black" stroke-width="2" d="M255.539,-95.6853C223.187,-90.1131 155.557,-78.4648 123.299,-72.9089"/>
</g>
<!-- 2 -->
<g id="node3" class="node"><title>2</title>
<ellipse fill="cadetblue" stroke="black" cx="201.646" cy="-138.28" rx="18" ry="18"/>
</g>
<!-- 5 -->
<g id="node6" class="node"><title>5</title>
<ellipse fill="cadetblue" stroke="black" cx="108.572" cy="-257.73" rx="18" ry="18"/>
</g>
<!-- 2&#45;&#45;5 -->
<g id="edge9" class="edge"><title>2&#45;&#45;5</title>
<path fill="none" stroke="black" stroke-width="2" d="M190.233,-152.927C172.273,-175.977 137.625,-220.444 119.788,-243.336"/>
</g>
<!-- 2&#45;&#45;6 -->
<g id="edge10" class="edge"><title>2&#45;&#45;6</title>
<path fill="none" stroke="black" stroke-width="2" d="M205.32,-120.532C210.028,-97.7913 218.142,-58.5965 222.857,-35.8205"/>
</g>
<!-- 2&#45;&#45;7 -->
<g id="edge11" class="edge"><title>2&#45;&#45;7</title>
<path fill="none" stroke="black" stroke-width="2" d="M193.096,-122.168C181.751,-100.791 161.839,-63.2721 150.502,-41.9102"/>
</g>
<!-- 2&#45;&#45;8 -->
<g id="edge12" class="edge"><title>2&#45;&#45;8</title>
<path fill="none" stroke="black" stroke-width="2" d="M186.614,-127.585C168.54,-114.726 138.393,-93.278 120.366,-80.4527"/>
</g>
<!-- 3 -->
<g id="node4" class="node"><title>3</title>
<ellipse fill="cadetblue" stroke="black" cx="18" cy="-136.935" rx="18" ry="18"/>
</g>
<!-- 3&#45;&#45;5 -->
<g id="edge13" class="edge"><title>3&#45;&#45;5</title>
<path fill="none" stroke="black" stroke-width="2" d="M29.1059,-151.747C46.5837,-175.057 80.3005,-220.024 97.6584,-243.174"/>
</g>
<!-- 3&#45;&#45;7 -->
<g id="edge14" class="edge"><title>3&#45;&#45;7</title>
<path fill="none" stroke="black" stroke-width="2" d="M28.2996,-121.993C41.1384,-104.162 64.4888,-74.2213 89.7414,-53.9667 100.507,-45.3315 114.312,-38.0268 125.024,-33.0257"/>
</g>
<!-- 3&#45;&#45;8 -->
<g id="edge15" class="edge"><title>3&#45;&#45;8</title>
<path fill="none" stroke="black" stroke-width="2" d="M32.4389,-125.854C48.6401,-113.421 74.7695,-93.3695 90.9795,-80.9299"/>
</g>
<!-- 4&#45;&#45;5 -->
<g id="edge16" class="edge"><title>4&#45;&#45;5</title>
<path fill="none" stroke="black" stroke-width="2" d="M225.44,-250.23C199.658,-251.885 152.793,-254.892 126.933,-256.552"/>
</g>
<!-- 6&#45;&#45;7 -->
<g id="edge17" class="edge"><title>6&#45;&#45;7</title>
<path fill="none" stroke="black" stroke-width="2" d="M208.609,-19.6602C194.353,-20.9798 174.496,-22.8178 160.17,-24.1437"/>
</g>
<!-- 6&#45;&#45;8 -->
<g id="edge18" class="edge"><title>6&#45;&#45;8</title>
<path fill="none" stroke="black" stroke-width="2" d="M209.961,-25.0985C186.899,-34.969 145.376,-52.7406 122.214,-62.6539"/>
</g>
<!-- 7&#45;&#45;8 -->
<g id="edge19" class="edge"><title>7&#45;&#45;8</title>
<path fill="none" stroke="black" stroke-width="2" d="M130.41,-39.7518C126.146,-44.8885 121.316,-50.7073 117.048,-55.8492"/>
</g>
</g>
</svg>

