<?xml version="1.0" encoding="UTF-8" standalone="no"?>
<!DOCTYPE svg PUBLIC "-//W3C//DTD SVG 1.1//EN"
 "http://www.w3.org/Graphics/SVG/1.1/DTD/svg11.dtd">
<!-- Generated by graphviz version 2.36.0 (20140111.2315)
 -->
<!-- Title: G Pages: 1 -->
<svg width="100%" height="100%"
 viewBox="0.00 0.00 222.70 235.58" xmlns="http://www.w3.org/2000/svg" xmlns:xlink="http://www.w3.org/1999/xlink">
<g id="graph0" class="graph" transform="scale(1 1) rotate(0) translate(4 231.581)">
<title>G</title>
<!-- 0 -->
<g id="node1" class="node"><title>0</title>
<ellipse fill="cadetblue" stroke="black" cx="124.183" cy="-169.952" rx="18" ry="18"/>
</g>
<!-- 4 -->
<g id="node5" class="node"><title>4</title>
<ellipse fill="cadetblue" stroke="black" cx="182.929" cy="-209.581" rx="18" ry="18"/>
</g>
<!-- 0&#45;&#45;4 -->
<g id="edge1" class="edge"><title>0&#45;&#45;4</title>
<path fill="none" stroke="black" stroke-width="2" d="M139.312,-180.157C148.014,-186.028 158.919,-193.384 167.647,-199.272"/>
</g>
<!-- 5 -->
<g id="node6" class="node"><title>5</title>
<ellipse fill="cadetblue" stroke="black" cx="18" cy="-159.077" rx="18" ry="18"/>
</g>
<!-- 0&#45;&#45;5 -->
<g id="edge2" class="edge"><title>0&#45;&#45;5</title>
<path fill="none" stroke="black" stroke-width="2" d="M106.171,-168.107C86.6448,-166.107 55.6611,-162.934 36.1009,-160.931"/>
</g>
<!-- 6 -->
<g id="node7" class="node"><title>6</title>
<ellipse fill="cadetblue" stroke="black" cx="196.697" cy="-87.9976" rx="18" ry="18"/>
</g>
<!-- 0&#45;&#45;6 -->
<g id="edge3" class="edge"><title>0&#45;&#45;6</title>
<path fill="none" stroke="black" stroke-width="2" d="M136.157,-156.418C149.593,-141.234 171.262,-116.744 184.705,-101.551"/>
</g>
<!-- 8 -->
<g id="node9" class="node"><title>8</title>
<ellipse fill="cadetblue" stroke="black" cx="128.01" cy="-94.2574" rx="18" ry="18"/>
</g>
<!-- 0&#45;&#45;8 -->
<g id="edge4" class="edge"><title>0&#45;&#45;8</title>
<path fill="none" stroke="black" stroke-width="2" d="M125.109,-151.628C125.711,-139.727 126.492,-124.279 127.092,-112.412"/>
</g>
<!-- 1 -->
<g id="node2" class="node"><title>1</title>
<ellipse fill="cadetblue" stroke="black" cx="80.1787" cy="-191.18" rx="18" ry="18"/>
</g>
<!-- 1&#45;&#45;4 -->
<g id="edge5" class="edge"><title>1&#45;&#45;4</title>
<path fill="none" stroke="black" stroke-width="2" d="M98.0763,-194.385C116.82,-197.742 146.095,-202.985 164.891,-206.351"/>
</g>
<!-- 1&#45;&#45;5 -->
<g id="edge6" class="edge"><title>1&#45;&#45;5</title>
<path fill="none" stroke="black" stroke-width="2" d="M64.1661,-182.913C54.9546,-178.157 43.413,-172.198 34.1744,-167.428"/>
</g>
<!-- 7 -->
<g id="node8" class="node"><title>7</title>
<ellipse fill="cadetblue" stroke="black" cx="69.2554" cy="-93.304" rx="18" ry="18"/>
</g>
<!-- 1&#45;&#45;7 -->
<g id="edge7" class="edge"><title>1&#45;&#45;7</title>
<path fill="none" stroke="black" stroke-width="2" d="M78.1752,-173.228C76.2166,-155.678 73.2501,-129.097 71.2832,-111.474"/>
</g>
<!-- 1&#45;&#45;8 -->
<g id="edge8" class="edge"><title>1&#45;&#45;8</title>
<path fill="none" stroke="black" stroke-width="2" d="M88.2926,-174.738C97.1415,-156.807 111.215,-128.291 120.016,-110.456"/>
</g>
<!-- 2 -->
<g id="node3" class="node"><title>2</title>
<ellipse fill="cadetblue" stroke="black" cx="126.251" cy="-18" rx="18" ry="18"/>
</g>
<!-- 2&#45;&#45;6 -->
<g id="edge9" class="edge"><title>2&#45;&#45;6</title>
<path fill="none" stroke="black" stroke-width="2" d="M139.172,-30.8386C151.883,-43.4684 171.176,-62.6387 183.858,-75.2403"/>
</g>
<!-- 2&#45;&#45;7 -->
<g id="edge10" class="edge"><title>2&#45;&#45;7</title>
<path fill="none" stroke="black" stroke-width="2" d="M115.262,-32.5194C105.169,-45.854 90.293,-65.5087 80.211,-78.8292"/>
</g>
<!-- 2&#45;&#45;8 -->
<g id="edge11" class="edge"><title>2&#45;&#45;8</title>
<path fill="none" stroke="black" stroke-width="2" d="M126.668,-36.0719C126.946,-48.1399 127.311,-63.9552 127.59,-76.0509"/>
</g>
<!-- 3 -->
<g id="node4" class="node"><title>3</title>
<ellipse fill="cadetblue" stroke="black" cx="196.304" cy="-133.931" rx="18" ry="18"/>
</g>
<!-- 3&#45;&#45;6 -->
<g id="edge12" class="edge"><title>3&#45;&#45;6</title>
<path fill="none" stroke="black" stroke-width="2" d="M196.459,-115.777C196.487,-112.567 196.515,-109.226 196.543,-106.02"/>
</g>
<!-- 3&#45;&#45;7 -->
<g id="edge13" class="edge"><title>3&#45;&#45;7</title>
<path fill="none" stroke="black" stroke-width="2" d="M178.693,-130.125C164.77,-126.958 144.911,-122.088 127.891,-116.577 113.512,-111.921 97.5965,-105.522 85.9795,-100.612"/>
</g>
<!-- 3&#45;&#45;8 -->
<g id="edge14" class="edge"><title>3&#45;&#45;8</title>
<path fill="none" stroke="black" stroke-width="2" d="M180.464,-124.73C169.431,-118.32 154.778,-109.808 143.764,-103.409"/>
</g>
<!-- 4&#45;&#45;6 -->
<g id="edge15" class="edge"><title>4&#45;&#45;6</title>
<path fill="none" stroke="black" stroke-width="2" d="M178.311,-192.102C174.858,-176.731 171.179,-153.764 173.984,-133.832 175.544,-122.751 181.07,-111.475 186.281,-102.88"/>
</g>
<!-- 5&#45;&#45;7 -->
<g id="edge16" class="edge"><title>5&#45;&#45;7</title>
<path fill="none" stroke="black" stroke-width="2" d="M29.1217,-144.805C37.7189,-133.773 49.5637,-118.573 58.1555,-107.548"/>
</g>
<!-- 6&#45;&#45;8 -->
<g id="edge17" class="edge"><title>6&#45;&#45;8</title>
<path fill="none" stroke="black" stroke-width="2" d="M178.65,-89.6423C168.634,-90.5551 156.21,-91.6874 146.175,-92.602"/>
</g>
<!-- 7&#45;&#45;8 -->
<g id="edge18" class="edge"><title>7&#45;&#45;8</title>
<path fill="none" stroke="black" stroke-width="2" d="M87.5237,-93.6004C94.6653,-93.7163 102.834,-93.8489 109.955,-93.9644"/>
</g>
</g>
</svg>

