<?xml version="1.0" encoding="UTF-8" standalone="no"?>
<!DOCTYPE svg PUBLIC "-//W3C//DTD SVG 1.1//EN"
 "http://www.w3.org/Graphics/SVG/1.1/DTD/svg11.dtd">
<!-- Generated by graphviz version 2.36.0 (20140111.2315)
 -->
<!-- Title: G Pages: 1 -->
<svg width="100%" height="100%"
 viewBox="0.00 0.00 209.48 228.32" xmlns="http://www.w3.org/2000/svg" xmlns:xlink="http://www.w3.org/1999/xlink">
<g id="graph0" class="graph" transform="scale(1 1) rotate(0) translate(4 224.316)">
<title>G</title>
<!-- 0 -->
<g id="node1" class="node"><title>0</title>
<ellipse fill="cadetblue" stroke="black" cx="123.768" cy="-202.316" rx="18" ry="18"/>
</g>
<!-- 3 -->
<g id="node4" class="node"><title>3</title>
<ellipse fill="cadetblue" stroke="black" cx="32.6339" cy="-156.994" rx="18" ry="18"/>
</g>
<!-- 0&#45;&#45;3 -->
<g id="edge1" class="edge"><title>0&#45;&#45;3</title>
<path fill="none" stroke="black" stroke-width="2" d="M107.475,-194.213C90.8872,-185.964 65.323,-173.251 48.7859,-165.026"/>
</g>
<!-- 4 -->
<g id="node5" class="node"><title>4</title>
<ellipse fill="cadetblue" stroke="black" cx="182.265" cy="-116.595" rx="18" ry="18"/>
</g>
<!-- 0&#45;&#45;4 -->
<g id="edge2" class="edge"><title>0&#45;&#45;4</title>
<path fill="none" stroke="black" stroke-width="2" d="M133.958,-187.384C144.629,-171.747 161.295,-147.324 171.996,-131.643"/>
</g>
<!-- 6 -->
<g id="node7" class="node"><title>6</title>
<ellipse fill="cadetblue" stroke="black" cx="100.297" cy="-116.355" rx="18" ry="18"/>
</g>
<!-- 0&#45;&#45;6 -->
<g id="edge3" class="edge"><title>0&#45;&#45;6</title>
<path fill="none" stroke="black" stroke-width="2" d="M119.019,-184.92C114.946,-170.007 109.11,-148.631 105.04,-133.725"/>
</g>
<!-- 1 -->
<g id="node2" class="node"><title>1</title>
<ellipse fill="cadetblue" stroke="black" cx="18" cy="-62.5081" rx="18" ry="18"/>
</g>
<!-- 1&#45;&#45;3 -->
<g id="edge4" class="edge"><title>1&#45;&#45;3</title>
<path fill="none" stroke="black" stroke-width="2" d="M20.8216,-80.726C23.4295,-97.5645 27.2814,-122.435 29.8706,-139.153"/>
</g>
<!-- 5 -->
<g id="node6" class="node"><title>5</title>
<ellipse fill="cadetblue" stroke="black" cx="92.7738" cy="-72.3506" rx="18" ry="18"/>
</g>
<!-- 1&#45;&#45;5 -->
<g id="edge5" class="edge"><title>1&#45;&#45;5</title>
<path fill="none" stroke="black" stroke-width="2" d="M36.1006,-64.8907C47.8569,-66.4382 63.1168,-68.4469 74.8398,-69.99"/>
</g>
<!-- 1&#45;&#45;6 -->
<g id="edge6" class="edge"><title>1&#45;&#45;6</title>
<path fill="none" stroke="black" stroke-width="2" d="M33.0945,-72.3845C47.8507,-82.0395 70.2007,-96.6631 85.0193,-106.359"/>
</g>
<!-- 7 -->
<g id="node8" class="node"><title>7</title>
<ellipse fill="cadetblue" stroke="black" cx="114.229" cy="-18" rx="18" ry="18"/>
</g>
<!-- 1&#45;&#45;7 -->
<g id="edge7" class="edge"><title>1&#45;&#45;7</title>
<path fill="none" stroke="black" stroke-width="2" d="M34.7619,-54.7554C52.4241,-46.5862 80.0701,-33.7994 97.6596,-25.6639"/>
</g>
<!-- 2 -->
<g id="node3" class="node"><title>2</title>
<ellipse fill="cadetblue" stroke="black" cx="183.483" cy="-44.1482" rx="18" ry="18"/>
</g>
<!-- 2&#45;&#45;4 -->
<g id="edge8" class="edge"><title>2&#45;&#45;4</title>
<path fill="none" stroke="black" stroke-width="2" d="M183.176,-62.4297C182.99,-73.4959 182.754,-87.5511 182.568,-98.5706"/>
</g>
<!-- 2&#45;&#45;5 -->
<g id="edge9" class="edge"><title>2&#45;&#45;5</title>
<path fill="none" stroke="black" stroke-width="2" d="M165.994,-49.5859C149.931,-54.5799 126.255,-61.9409 110.21,-66.9296"/>
</g>
<!-- 2&#45;&#45;6 -->
<g id="edge10" class="edge"><title>2&#45;&#45;6</title>
<path fill="none" stroke="black" stroke-width="2" d="M169.747,-56.0717C154.334,-69.4505 129.475,-91.0278 114.054,-104.414"/>
</g>
<!-- 2&#45;&#45;7 -->
<g id="edge11" class="edge"><title>2&#45;&#45;7</title>
<path fill="none" stroke="black" stroke-width="2" d="M166.364,-37.6846C155.63,-33.6315 141.849,-28.4282 131.151,-24.3893"/>
</g>
<!-- 3&#45;&#45;5 -->
<g id="edge12" class="edge"><title>3&#45;&#45;5</title>
<path fill="none" stroke="black" stroke-width="2" d="M43.1094,-142.25C54.0804,-126.809 71.215,-102.693 82.2165,-87.2094"/>
</g>
<!-- 3&#45;&#45;6 -->
<g id="edge13" class="edge"><title>3&#45;&#45;6</title>
<path fill="none" stroke="black" stroke-width="2" d="M48.3272,-147.568C59.2583,-141.003 73.7762,-132.284 84.6886,-125.729"/>
</g>
<!-- 4&#45;&#45;5 -->
<g id="edge14" class="edge"><title>4&#45;&#45;5</title>
<path fill="none" stroke="black" stroke-width="2" d="M165.851,-108.48C149.704,-100.497 125.195,-88.3796 109.084,-80.4143"/>
</g>
<!-- 4&#45;&#45;7 -->
<g id="edge15" class="edge"><title>4&#45;&#45;7</title>
<path fill="none" stroke="black" stroke-width="2" d="M171.932,-101.621C159.144,-83.0893 137.492,-51.7117 124.66,-33.1154"/>
</g>
<!-- 5&#45;&#45;7 -->
<g id="edge16" class="edge"><title>5&#45;&#45;7</title>
<path fill="none" stroke="black" stroke-width="2" d="M99.4448,-55.4517C102.004,-48.97 104.923,-41.5738 107.489,-35.0757"/>
</g>
<!-- 6&#45;&#45;7 -->
<g id="edge17" class="edge"><title>6&#45;&#45;7</title>
<path fill="none" stroke="black" stroke-width="2" d="M107.443,-99.5962C110.484,-91.5484 113.657,-81.6694 115.094,-72.4501 116.957,-60.4929 116.741,-46.8803 116.059,-36.2571"/>
</g>
</g>
</svg>

