<?xml version="1.0" encoding="UTF-8" standalone="no"?>
<!DOCTYPE svg PUBLIC "-//W3C//DTD SVG 1.1//EN"
 "http://www.w3.org/Graphics/SVG/1.1/DTD/svg11.dtd">
<!-- Generated by graphviz version 2.36.0 (20140111.2315)
 -->
<!-- Title: G Pages: 1 -->
<svg width="100%" height="100%"
 viewBox="0.00 0.00 201.47 195.75" xmlns="http://www.w3.org/2000/svg" xmlns:xlink="http://www.w3.org/1999/xlink">
<g id="graph0" class="graph" transform="scale(1 1) rotate(0) translate(4 191.747)">
<title>G</title>
<!-- 0 -->
<g id="node1" class="node"><title>0</title>
<ellipse fill="cadetblue" stroke="black" cx="83.6909" cy="-62.0044" rx="18" ry="18"/>
</g>
<!-- 3 -->
<g id="node4" class="node"><title>3</title>
<ellipse fill="cadetblue" stroke="black" cx="63.4608" cy="-169.747" rx="18" ry="18"/>
</g>
<!-- 0&#45;&#45;3 -->
<g id="edge1" class="edge"><title>0&#45;&#45;3</title>
<path fill="none" stroke="black" stroke-width="2" d="M89.4774,-79.1978C92.1096,-88.918 94.4082,-101.329 93.254,-112.515 91.6215,-128.338 82.6333,-144.216 74.952,-155.22"/>
</g>
<!-- 4 -->
<g id="node5" class="node"><title>4</title>
<ellipse fill="cadetblue" stroke="black" cx="146.499" cy="-102.139" rx="18" ry="18"/>
</g>
<!-- 0&#45;&#45;4 -->
<g id="edge2" class="edge"><title>0&#45;&#45;4</title>
<path fill="none" stroke="black" stroke-width="2" d="M98.895,-71.7198C108.625,-77.9371 121.212,-85.9801 130.999,-92.234"/>
</g>
<!-- 5 -->
<g id="node6" class="node"><title>5</title>
<ellipse fill="cadetblue" stroke="black" cx="18" cy="-98.4343" rx="18" ry="18"/>
</g>
<!-- 0&#45;&#45;5 -->
<g id="edge3" class="edge"><title>0&#45;&#45;5</title>
<path fill="none" stroke="black" stroke-width="2" d="M67.789,-70.8231C57.4607,-76.5508 44.0545,-83.9854 33.7555,-89.6969"/>
</g>
<!-- 6 -->
<g id="node7" class="node"><title>6</title>
<ellipse fill="cadetblue" stroke="black" cx="175.474" cy="-48.219" rx="18" ry="18"/>
</g>
<!-- 0&#45;&#45;6 -->
<g id="edge4" class="edge"><title>0&#45;&#45;6</title>
<path fill="none" stroke="black" stroke-width="2" d="M101.824,-59.2808C117.915,-56.8641 141.299,-53.3519 157.378,-50.9369"/>
</g>
<!-- 1 -->
<g id="node2" class="node"><title>1</title>
<ellipse fill="cadetblue" stroke="black" cx="131.535" cy="-158.467" rx="18" ry="18"/>
</g>
<!-- 1&#45;&#45;3 -->
<g id="edge5" class="edge"><title>1&#45;&#45;3</title>
<path fill="none" stroke="black" stroke-width="2" d="M113.649,-161.431C103.722,-163.076 91.4091,-165.116 81.4634,-166.764"/>
</g>
<!-- 1&#45;&#45;5 -->
<g id="edge6" class="edge"><title>1&#45;&#45;5</title>
<path fill="none" stroke="black" stroke-width="2" d="M114.126,-153.345C98.1553,-148.246 74.1639,-139.562 55.1507,-128.296 46.75,-123.318 38.2006,-116.585 31.4243,-110.772"/>
</g>
<!-- 1&#45;&#45;6 -->
<g id="edge7" class="edge"><title>1&#45;&#45;6</title>
<path fill="none" stroke="black" stroke-width="2" d="M143.481,-144.484C149.543,-136.969 156.743,-127.361 162.125,-118.077 171.352,-102.16 174.361,-81.1064 175.263,-66.2874"/>
</g>
<!-- 7 -->
<g id="node8" class="node"><title>7</title>
<ellipse fill="cadetblue" stroke="black" cx="70.934" cy="-112.514" rx="18" ry="18"/>
</g>
<!-- 1&#45;&#45;7 -->
<g id="edge8" class="edge"><title>1&#45;&#45;7</title>
<path fill="none" stroke="black" stroke-width="2" d="M117.173,-147.577C107.653,-140.358 95.1982,-130.913 85.6135,-123.645"/>
</g>
<!-- 2 -->
<g id="node3" class="node"><title>2</title>
<ellipse fill="cadetblue" stroke="black" cx="89.3422" cy="-18" rx="18" ry="18"/>
</g>
<!-- 2&#45;&#45;4 -->
<g id="edge9" class="edge"><title>2&#45;&#45;4</title>
<path fill="none" stroke="black" stroke-width="2" d="M99.5608,-33.0423C109.964,-48.3572 125.998,-71.959 136.369,-87.2266"/>
</g>
<!-- 2&#45;&#45;5 -->
<g id="edge10" class="edge"><title>2&#45;&#45;5</title>
<path fill="none" stroke="black" stroke-width="2" d="M77.24,-31.6446C64.121,-46.4355 43.3037,-69.9058 30.1616,-84.7228"/>
</g>
<!-- 2&#45;&#45;6 -->
<g id="edge11" class="edge"><title>2&#45;&#45;6</title>
<path fill="none" stroke="black" stroke-width="2" d="M106.359,-23.9703C121.361,-29.2337 143.118,-36.8671 158.198,-42.1576"/>
</g>
<!-- 2&#45;&#45;7 -->
<g id="edge12" class="edge"><title>2&#45;&#45;7</title>
<path fill="none" stroke="black" stroke-width="2" d="M76.5658,-30.9725C69.7779,-39.123 62.5838,-50.2824 61.3709,-61.984 60.2111,-73.1737 62.5096,-85.5894 65.1431,-95.3135"/>
</g>
<!-- 3&#45;&#45;4 -->
<g id="edge13" class="edge"><title>3&#45;&#45;4</title>
<path fill="none" stroke="black" stroke-width="2" d="M77.5471,-158.278C92.8169,-145.846 117.047,-126.118 132.344,-113.664"/>
</g>
<!-- 3&#45;&#45;5 -->
<g id="edge14" class="edge"><title>3&#45;&#45;5</title>
<path fill="none" stroke="black" stroke-width="2" d="M53.5965,-154.273C45.9712,-142.311 35.4655,-125.832 27.8451,-113.878"/>
</g>
<!-- 3&#45;&#45;7 -->
<g id="edge15" class="edge"><title>3&#45;&#45;7</title>
<path fill="none" stroke="black" stroke-width="2" d="M65.8254,-151.638C66.6977,-144.957 67.6859,-137.389 68.5592,-130.701"/>
</g>
<!-- 4&#45;&#45;6 -->
<g id="edge16" class="edge"><title>4&#45;&#45;6</title>
<path fill="none" stroke="black" stroke-width="2" d="M155.036,-86.2527C158.775,-79.2942 163.155,-71.1445 166.898,-64.1778"/>
</g>
<!-- 4&#45;&#45;7 -->
<g id="edge17" class="edge"><title>4&#45;&#45;7</title>
<path fill="none" stroke="black" stroke-width="2" d="M128.591,-104.598C116.633,-106.239 100.961,-108.391 88.9752,-110.037"/>
</g>
<!-- 5&#45;&#45;7 -->
<g id="edge18" class="edge"><title>5&#45;&#45;7</title>
<path fill="none" stroke="black" stroke-width="2" d="M35.6263,-103.123C41.2804,-104.627 47.5427,-106.292 53.2043,-107.798"/>
</g>
</g>
</svg>

