<?xml version="1.0" encoding="UTF-8" standalone="no"?>
<!DOCTYPE svg PUBLIC "-//W3C//DTD SVG 1.1//EN"
 "http://www.w3.org/Graphics/SVG/1.1/DTD/svg11.dtd">
<!-- Generated by graphviz version 2.36.0 (20140111.2315)
 -->
<!-- Title: G Pages: 1 -->
<svg width="100%" height="100%"
 viewBox="0.00 0.00 187.47 193.59" xmlns="http://www.w3.org/2000/svg" xmlns:xlink="http://www.w3.org/1999/xlink">
<g id="graph0" class="graph" transform="scale(1 1) rotate(0) translate(4 189.586)">
<title>G</title>
<!-- 0 -->
<g id="node1" class="node"><title>0</title>
<ellipse fill="cadetblue" stroke="black" cx="81.6692" cy="-149.814" rx="18" ry="18"/>
</g>
<!-- 3 -->
<g id="node4" class="node"><title>3</title>
<ellipse fill="cadetblue" stroke="black" cx="130.614" cy="-167.586" rx="18" ry="18"/>
</g>
<!-- 0&#45;&#45;3 -->
<g id="edge1" class="edge"><title>0&#45;&#45;3</title>
<path fill="none" stroke="black" stroke-width="2" d="M98.7878,-156.03C103.529,-157.752 108.677,-159.621 113.423,-161.344"/>
</g>
<!-- 4 -->
<g id="node5" class="node"><title>4</title>
<ellipse fill="cadetblue" stroke="black" cx="161.465" cy="-90.866" rx="18" ry="18"/>
</g>
<!-- 0&#45;&#45;4 -->
<g id="edge2" class="edge"><title>0&#45;&#45;4</title>
<path fill="none" stroke="black" stroke-width="2" d="M96.6465,-139.182C106.982,-131.801 121.01,-121.695 133.225,-112.59 137.787,-109.189 142.718,-105.427 147.163,-102.003"/>
</g>
<!-- 5 -->
<g id="node6" class="node"><title>5</title>
<ellipse fill="cadetblue" stroke="black" cx="18" cy="-69.7767" rx="18" ry="18"/>
</g>
<!-- 0&#45;&#45;5 -->
<g id="edge3" class="edge"><title>0&#45;&#45;5</title>
<path fill="none" stroke="black" stroke-width="2" d="M70.2864,-135.505C58.6974,-120.937 40.8375,-98.4854 29.2842,-83.9619"/>
</g>
<!-- 6 -->
<g id="node7" class="node"><title>6</title>
<ellipse fill="cadetblue" stroke="black" cx="117.461" cy="-96.789" rx="18" ry="18"/>
</g>
<!-- 0&#45;&#45;6 -->
<g id="edge4" class="edge"><title>0&#45;&#45;6</title>
<path fill="none" stroke="black" stroke-width="2" d="M91.8299,-134.761C96.6246,-127.658 102.337,-119.195 107.15,-112.064"/>
</g>
<!-- 7 -->
<g id="node8" class="node"><title>7</title>
<ellipse fill="cadetblue" stroke="black" cx="71.5509" cy="-97.2517" rx="18" ry="18"/>
</g>
<!-- 0&#45;&#45;7 -->
<g id="edge5" class="edge"><title>0&#45;&#45;7</title>
<path fill="none" stroke="black" stroke-width="2" d="M78.2436,-132.019C77.1887,-126.539 76.0276,-120.507 74.9729,-115.029"/>
</g>
<!-- 1 -->
<g id="node2" class="node"><title>1</title>
<ellipse fill="cadetblue" stroke="black" cx="33.4235" cy="-151.769" rx="18" ry="18"/>
</g>
<!-- 1&#45;&#45;3 -->
<g id="edge6" class="edge"><title>1&#45;&#45;3</title>
<path fill="none" stroke="black" stroke-width="2" d="M49.3423,-160.862C58.4674,-165.457 70.3268,-170.417 81.6488,-172.134 91.9468,-173.696 103.55,-172.736 112.876,-171.304"/>
</g>
<!-- 1&#45;&#45;5 -->
<g id="edge7" class="edge"><title>1&#45;&#45;5</title>
<path fill="none" stroke="black" stroke-width="2" d="M30.0768,-133.978C27.4898,-120.225 23.9255,-101.277 21.3401,-87.533"/>
</g>
<!-- 1&#45;&#45;6 -->
<g id="edge8" class="edge"><title>1&#45;&#45;6</title>
<path fill="none" stroke="black" stroke-width="2" d="M48.8372,-141.685C64.0002,-131.764 87.0156,-116.707 102.145,-106.809"/>
</g>
<!-- 1&#45;&#45;7 -->
<g id="edge9" class="edge"><title>1&#45;&#45;7</title>
<path fill="none" stroke="black" stroke-width="2" d="M43.8419,-136.872C49.2218,-129.179 55.767,-119.821 61.145,-112.131"/>
</g>
<!-- 2 -->
<g id="node3" class="node"><title>2</title>
<ellipse fill="cadetblue" stroke="black" cx="102.541" cy="-18" rx="18" ry="18"/>
</g>
<!-- 2&#45;&#45;4 -->
<g id="edge10" class="edge"><title>2&#45;&#45;4</title>
<path fill="none" stroke="black" stroke-width="2" d="M113.902,-32.0493C124.336,-44.9522 139.716,-63.9706 150.139,-76.8599"/>
</g>
<!-- 2&#45;&#45;5 -->
<g id="edge11" class="edge"><title>2&#45;&#45;5</title>
<path fill="none" stroke="black" stroke-width="2" d="M87.0346,-27.4966C71.7807,-36.8388 48.6276,-51.0189 33.4078,-60.3403"/>
</g>
<!-- 2&#45;&#45;6 -->
<g id="edge12" class="edge"><title>2&#45;&#45;6</title>
<path fill="none" stroke="black" stroke-width="2" d="M105.926,-35.8785C108.368,-48.7728 111.65,-66.1033 114.089,-78.9813"/>
</g>
<!-- 3&#45;&#45;4 -->
<g id="edge13" class="edge"><title>3&#45;&#45;4</title>
<path fill="none" stroke="black" stroke-width="2" d="M137.461,-150.56C142.609,-137.757 149.626,-120.307 154.744,-107.581"/>
</g>
<!-- 3&#45;&#45;6 -->
<g id="edge14" class="edge"><title>3&#45;&#45;6</title>
<path fill="none" stroke="black" stroke-width="2" d="M127.295,-149.721C125.316,-139.071 122.811,-125.587 120.825,-114.895"/>
</g>
<!-- 3&#45;&#45;7 -->
<g id="edge15" class="edge"><title>3&#45;&#45;7</title>
<path fill="none" stroke="black" stroke-width="2" d="M118.945,-153.69C108.591,-141.36 93.543,-123.441 83.1957,-111.119"/>
</g>
<!-- 4&#45;&#45;6 -->
<g id="edge16" class="edge"><title>4&#45;&#45;6</title>
<path fill="none" stroke="black" stroke-width="2" d="M143.567,-93.2751C140.902,-93.6339 138.154,-94.0038 135.486,-94.3628"/>
</g>
<!-- 4&#45;&#45;7 -->
<g id="edge17" class="edge"><title>4&#45;&#45;7</title>
<path fill="none" stroke="black" stroke-width="2" d="M145.695,-81.7566C137.538,-77.892 127.264,-74.2998 117.487,-74.469 106.094,-74.6663 94.6103,-80.362 85.9744,-86.0083"/>
</g>
<!-- 5&#45;&#45;7 -->
<g id="edge18" class="edge"><title>5&#45;&#45;7</title>
<path fill="none" stroke="black" stroke-width="2" d="M34.067,-78.0201C40.8448,-81.4975 48.7186,-85.5373 55.4952,-89.0141"/>
</g>
<!-- 6&#45;&#45;7 -->
<g id="edge19" class="edge"><title>6&#45;&#45;7</title>
<path fill="none" stroke="black" stroke-width="2" d="M99.316,-96.9719C96.1078,-97.0042 92.7684,-97.0379 89.5639,-97.0702"/>
</g>
</g>
</svg>

