<?xml version="1.0" encoding="UTF-8" standalone="no"?>
<!DOCTYPE svg PUBLIC "-//W3C//DTD SVG 1.1//EN"
 "http://www.w3.org/Graphics/SVG/1.1/DTD/svg11.dtd">
<!-- Generated by graphviz version 2.36.0 (20140111.2315)
 -->
<!-- Title: G Pages: 1 -->
<svg width="100%" height="100%"
 viewBox="0.00 0.00 178.50 241.36" xmlns="http://www.w3.org/2000/svg" xmlns:xlink="http://www.w3.org/1999/xlink">
<g id="graph0" class="graph" transform="scale(1 1) rotate(0) translate(4 237.364)">
<title>G</title>
<!-- 0 -->
<g id="node1" class="node"><title>0</title>
<ellipse fill="cadetblue" stroke="black" cx="64.1029" cy="-22.038" rx="18" ry="18"/>
</g>
<!-- 2 -->
<g id="node3" class="node"><title>2</title>
<ellipse fill="cadetblue" stroke="black" cx="118.666" cy="-18" rx="18" ry="18"/>
</g>
<!-- 0&#45;&#45;2 -->
<g id="edge1" class="edge"><title>0&#45;&#45;2</title>
<path fill="none" stroke="black" stroke-width="2" d="M82.2716,-20.6934C88.0998,-20.2621 94.5549,-19.7844 100.391,-19.3525"/>
</g>
<!-- 4 -->
<g id="node5" class="node"><title>4</title>
<ellipse fill="cadetblue" stroke="black" cx="152.503" cy="-62.0044" rx="18" ry="18"/>
</g>
<!-- 0&#45;&#45;4 -->
<g id="edge2" class="edge"><title>0&#45;&#45;4</title>
<path fill="none" stroke="black" stroke-width="2" d="M80.7303,-29.5554C96.5349,-36.7008 120.17,-47.3866 135.95,-54.5207"/>
</g>
<!-- 5 -->
<g id="node6" class="node"><title>5</title>
<ellipse fill="cadetblue" stroke="black" cx="18.661" cy="-69.7416" rx="18" ry="18"/>
</g>
<!-- 0&#45;&#45;5 -->
<g id="edge3" class="edge"><title>0&#45;&#45;5</title>
<path fill="none" stroke="black" stroke-width="2" d="M51.6857,-35.0732C45.3789,-41.6939 37.7283,-49.7253 31.3795,-56.3901"/>
</g>
<!-- 6 -->
<g id="node7" class="node"><title>6</title>
<ellipse fill="cadetblue" stroke="black" cx="129.512" cy="-132.123" rx="18" ry="18"/>
</g>
<!-- 0&#45;&#45;6 -->
<g id="edge4" class="edge"><title>0&#45;&#45;6</title>
<path fill="none" stroke="black" stroke-width="2" d="M73.4744,-37.8105C85.9086,-58.7377 107.732,-95.4674 120.158,-116.38"/>
</g>
<!-- 7 -->
<g id="node8" class="node"><title>7</title>
<ellipse fill="cadetblue" stroke="black" cx="79.1496" cy="-107.663" rx="18" ry="18"/>
</g>
<!-- 0&#45;&#45;7 -->
<g id="edge5" class="edge"><title>0&#45;&#45;7</title>
<path fill="none" stroke="black" stroke-width="2" d="M67.2206,-39.7796C69.7857,-54.3769 73.406,-74.9782 75.9841,-89.6495"/>
</g>
<!-- 1 -->
<g id="node2" class="node"><title>1</title>
<ellipse fill="cadetblue" stroke="black" cx="18" cy="-178.3" rx="18" ry="18"/>
</g>
<!-- 3 -->
<g id="node4" class="node"><title>3</title>
<ellipse fill="cadetblue" stroke="black" cx="99.436" cy="-215.364" rx="18" ry="18"/>
</g>
<!-- 1&#45;&#45;3 -->
<g id="edge6" class="edge"><title>1&#45;&#45;3</title>
<path fill="none" stroke="black" stroke-width="2" d="M34.4798,-185.8C48.6086,-192.231 68.859,-201.447 82.9807,-207.875"/>
</g>
<!-- 1&#45;&#45;5 -->
<g id="edge7" class="edge"><title>1&#45;&#45;5</title>
<path fill="none" stroke="black" stroke-width="2" d="M18.1121,-159.884C18.2344,-139.801 18.4289,-107.861 18.5505,-87.885"/>
</g>
<!-- 1&#45;&#45;6 -->
<g id="edge8" class="edge"><title>1&#45;&#45;6</title>
<path fill="none" stroke="black" stroke-width="2" d="M34.9362,-171.286C56.0173,-162.557 91.7968,-147.741 112.782,-139.051"/>
</g>
<!-- 2&#45;&#45;4 -->
<g id="edge9" class="edge"><title>2&#45;&#45;4</title>
<path fill="none" stroke="black" stroke-width="2" d="M129.746,-32.4087C133.523,-37.3215 137.744,-42.8101 141.514,-47.7136"/>
</g>
<!-- 2&#45;&#45;5 -->
<g id="edge10" class="edge"><title>2&#45;&#45;5</title>
<path fill="none" stroke="black" stroke-width="2" d="M102.599,-26.3132C83.9365,-35.9687 53.3337,-51.8023 34.6887,-61.449"/>
</g>
<!-- 2&#45;&#45;6 -->
<g id="edge11" class="edge"><title>2&#45;&#45;6</title>
<path fill="none" stroke="black" stroke-width="2" d="M120.385,-36.0831C122.415,-57.4524 125.774,-92.7922 127.801,-114.124"/>
</g>
<!-- 2&#45;&#45;7 -->
<g id="edge12" class="edge"><title>2&#45;&#45;7</title>
<path fill="none" stroke="black" stroke-width="2" d="M111.233,-34.8649C104.124,-50.9967 93.469,-75.1721 86.4155,-91.1765"/>
</g>
<!-- 3&#45;&#45;6 -->
<g id="edge13" class="edge"><title>3&#45;&#45;6</title>
<path fill="none" stroke="black" stroke-width="2" d="M105.668,-198.116C110.864,-183.735 118.226,-163.359 123.391,-149.064"/>
</g>
<!-- 3&#45;&#45;7 -->
<g id="edge14" class="edge"><title>3&#45;&#45;7</title>
<path fill="none" stroke="black" stroke-width="2" d="M96.0861,-197.579C92.3274,-177.624 86.2652,-145.44 82.5044,-125.474"/>
</g>
<!-- 4&#45;&#45;5 -->
<g id="edge15" class="edge"><title>4&#45;&#45;5</title>
<path fill="none" stroke="black" stroke-width="2" d="M134.453,-63.0479C108.908,-64.5246 62.4746,-67.2088 36.853,-68.6899"/>
</g>
<!-- 4&#45;&#45;6 -->
<g id="edge16" class="edge"><title>4&#45;&#45;6</title>
<path fill="none" stroke="black" stroke-width="2" d="M146.82,-79.3371C143.256,-90.2058 138.681,-104.159 135.13,-114.99"/>
</g>
<!-- 4&#45;&#45;7 -->
<g id="edge17" class="edge"><title>4&#45;&#45;7</title>
<path fill="none" stroke="black" stroke-width="2" d="M136.947,-71.6874C124.414,-79.4881 106.891,-90.3954 94.432,-98.1504"/>
</g>
<!-- 5&#45;&#45;7 -->
<g id="edge18" class="edge"><title>5&#45;&#45;7</title>
<path fill="none" stroke="black" stroke-width="2" d="M33.9248,-79.3107C43.0244,-85.0154 54.5445,-92.2376 63.6802,-97.9649"/>
</g>
<!-- 6&#45;&#45;7 -->
<g id="edge19" class="edge"><title>6&#45;&#45;7</title>
<path fill="none" stroke="black" stroke-width="2" d="M113.3,-124.249C107.664,-121.512 101.338,-118.44 95.6771,-115.69"/>
</g>
</g>
</svg>

