<?xml version="1.0" encoding="UTF-8" standalone="no"?>
<!DOCTYPE svg PUBLIC "-//W3C//DTD SVG 1.1//EN"
 "http://www.w3.org/Graphics/SVG/1.1/DTD/svg11.dtd">
<!-- Generated by graphviz version 2.36.0 (20140111.2315)
 -->
<!-- Title: G Pages: 1 -->
<svg width="100%" height="100%"
 viewBox="0.00 0.00 242.08 231.80" xmlns="http://www.w3.org/2000/svg" xmlns:xlink="http://www.w3.org/1999/xlink">
<g id="graph0" class="graph" transform="scale(1 1) rotate(0) translate(4 227.801)">
<title>G</title>
<!-- 0 -->
<g id="node1" class="node"><title>0</title>
<ellipse fill="cadetblue" stroke="black" cx="53.1487" cy="-57.6243" rx="18" ry="18"/>
</g>
<!-- 2 -->
<g id="node3" class="node"><title>2</title>
<ellipse fill="cadetblue" stroke="black" cx="105.317" cy="-18" rx="18" ry="18"/>
</g>
<!-- 0&#45;&#45;2 -->
<g id="edge1" class="edge"><title>0&#45;&#45;2</title>
<path fill="none" stroke="black" stroke-width="2" d="M67.6804,-46.5867C74.9161,-41.0909 83.638,-34.4661 90.8629,-28.9784"/>
</g>
<!-- 3 -->
<g id="node4" class="node"><title>3</title>
<ellipse fill="cadetblue" stroke="black" cx="90.7126" cy="-136.164" rx="18" ry="18"/>
</g>
<!-- 0&#45;&#45;3 -->
<g id="edge2" class="edge"><title>0&#45;&#45;3</title>
<path fill="none" stroke="black" stroke-width="2" d="M60.932,-73.8977C67.3789,-87.3771 76.4952,-106.438 82.9393,-119.911"/>
</g>
<!-- 4 -->
<g id="node5" class="node"><title>4</title>
<ellipse fill="cadetblue" stroke="black" cx="216.08" cy="-103.572" rx="18" ry="18"/>
</g>
<!-- 0&#45;&#45;4 -->
<g id="edge3" class="edge"><title>0&#45;&#45;4</title>
<path fill="none" stroke="black" stroke-width="2" d="M70.5852,-62.5415C101.781,-71.3387 166.815,-89.6787 198.275,-98.5505"/>
</g>
<!-- 5 -->
<g id="node6" class="node"><title>5</title>
<ellipse fill="cadetblue" stroke="black" cx="18" cy="-156.165" rx="18" ry="18"/>
</g>
<!-- 0&#45;&#45;5 -->
<g id="edge4" class="edge"><title>0&#45;&#45;5</title>
<path fill="none" stroke="black" stroke-width="2" d="M47.0263,-74.7887C40.575,-92.8751 30.477,-121.185 24.0523,-139.197"/>
</g>
<!-- 6 -->
<g id="node7" class="node"><title>6</title>
<ellipse fill="cadetblue" stroke="black" cx="172.075" cy="-61.4466" rx="18" ry="18"/>
</g>
<!-- 0&#45;&#45;6 -->
<g id="edge5" class="edge"><title>0&#45;&#45;6</title>
<path fill="none" stroke="black" stroke-width="2" d="M71.2111,-58.2048C93.564,-58.9232 131.412,-60.1397 153.843,-60.8606"/>
</g>
<!-- 1 -->
<g id="node2" class="node"><title>1</title>
<ellipse fill="cadetblue" stroke="black" cx="162.31" cy="-205.801" rx="18" ry="18"/>
</g>
<!-- 1&#45;&#45;4 -->
<g id="edge6" class="edge"><title>1&#45;&#45;4</title>
<path fill="none" stroke="black" stroke-width="2" d="M170.712,-189.827C180.754,-170.734 197.465,-138.962 207.56,-119.77"/>
</g>
<!-- 1&#45;&#45;5 -->
<g id="edge7" class="edge"><title>1&#45;&#45;5</title>
<path fill="none" stroke="black" stroke-width="2" d="M145.189,-199.912C117.415,-190.359 62.8581,-171.594 35.0987,-162.046"/>
</g>
<!-- 1&#45;&#45;6 -->
<g id="edge8" class="edge"><title>1&#45;&#45;6</title>
<path fill="none" stroke="black" stroke-width="2" d="M163.527,-187.81C165.399,-160.148 168.963,-107.462 170.843,-79.664"/>
</g>
<!-- 2&#45;&#45;3 -->
<g id="edge9" class="edge"><title>2&#45;&#45;3</title>
<path fill="none" stroke="black" stroke-width="2" d="M103.099,-35.9465C100.354,-58.156 95.706,-95.7612 92.9515,-118.048"/>
</g>
<!-- 2&#45;&#45;4 -->
<g id="edge10" class="edge"><title>2&#45;&#45;4</title>
<path fill="none" stroke="black" stroke-width="2" d="M115.304,-33.0037C124.608,-46.048 139.514,-64.7395 156.138,-77.0725 169.114,-86.6993 186.137,-93.7995 198.726,-98.2142"/>
</g>
<!-- 2&#45;&#45;5 -->
<g id="edge11" class="edge"><title>2&#45;&#45;5</title>
<path fill="none" stroke="black" stroke-width="2" d="M95.6386,-33.3139C78.8546,-59.872 44.5356,-114.176 27.7214,-140.782"/>
</g>
<!-- 2&#45;&#45;6 -->
<g id="edge12" class="edge"><title>2&#45;&#45;6</title>
<path fill="none" stroke="black" stroke-width="2" d="M120.465,-27.8587C131.391,-34.969 146.075,-44.5256 156.987,-51.6269"/>
</g>
<!-- 3&#45;&#45;5 -->
<g id="edge13" class="edge"><title>3&#45;&#45;5</title>
<path fill="none" stroke="black" stroke-width="2" d="M73.1109,-141.005C61.6787,-144.15 46.8394,-148.232 35.4396,-151.368"/>
</g>
<!-- 3&#45;&#45;6 -->
<g id="edge14" class="edge"><title>3&#45;&#45;6</title>
<path fill="none" stroke="black" stroke-width="2" d="M104.148,-123.826C119.223,-109.982 143.537,-87.6544 158.62,-73.803"/>
</g>
<!-- 4&#45;&#45;6 -->
<g id="edge15" class="edge"><title>4&#45;&#45;6</title>
<path fill="none" stroke="black" stroke-width="2" d="M202.638,-90.7038C197.077,-85.3808 190.653,-79.2304 185.133,-73.9465"/>
</g>
</g>
</svg>

