<?xml version="1.0" encoding="UTF-8" standalone="no"?>
<!DOCTYPE svg PUBLIC "-//W3C//DTD SVG 1.1//EN"
 "http://www.w3.org/Graphics/SVG/1.1/DTD/svg11.dtd">
<!-- Generated by graphviz version 2.36.0 (20140111.2315)
 -->
<!-- Title: G Pages: 1 -->
<svg width="100%" height="100%"
 viewBox="0.00 0.00 216.02 152.52" xmlns="http://www.w3.org/2000/svg" xmlns:xlink="http://www.w3.org/1999/xlink">
<g id="graph0" class="graph" transform="scale(1 1) rotate(0) translate(4 148.519)">
<title>G</title>
<!-- 0 -->
<g id="node1" class="node"><title>0</title>
<ellipse fill="cadetblue" stroke="black" cx="76.5508" cy="-24.6734" rx="18" ry="18"/>
</g>
<!-- 2 -->
<g id="node3" class="node"><title>2</title>
<ellipse fill="cadetblue" stroke="black" cx="79.0692" cy="-68.6778" rx="18" ry="18"/>
</g>
<!-- 0&#45;&#45;2 -->
<g id="edge1" class="edge"><title>0&#45;&#45;2</title>
<path fill="none" stroke="black" stroke-width="2" d="M77.5897,-42.8257C77.736,-45.3826 77.8864,-48.0111 78.0327,-50.5672"/>
</g>
<!-- 3 -->
<g id="node4" class="node"><title>3</title>
<ellipse fill="cadetblue" stroke="black" cx="18" cy="-94.0264" rx="18" ry="18"/>
</g>
<!-- 0&#45;&#45;3 -->
<g id="edge2" class="edge"><title>0&#45;&#45;3</title>
<path fill="none" stroke="black" stroke-width="2" d="M64.7022,-38.708C54.5439,-50.7404 39.9842,-67.9862 29.831,-80.0126"/>
</g>
<!-- 4 -->
<g id="node5" class="node"><title>4</title>
<ellipse fill="cadetblue" stroke="black" cx="158.047" cy="-18" rx="18" ry="18"/>
</g>
<!-- 0&#45;&#45;4 -->
<g id="edge3" class="edge"><title>0&#45;&#45;4</title>
<path fill="none" stroke="black" stroke-width="2" d="M94.6375,-23.1923C108.143,-22.0864 126.518,-20.5818 140.011,-19.4769"/>
</g>
<!-- 5 -->
<g id="node6" class="node"><title>5</title>
<ellipse fill="cadetblue" stroke="black" cx="97.4208" cy="-126.519" rx="18" ry="18"/>
</g>
<!-- 0&#45;&#45;5 -->
<g id="edge4" class="edge"><title>0&#45;&#45;5</title>
<path fill="none" stroke="black" stroke-width="2" d="M87.8845,-38.7589C93.5649,-46.9494 99.6098,-57.7849 101.389,-68.6982 103.559,-82.0054 102.37,-97.2237 100.744,-108.706"/>
</g>
<!-- 6 -->
<g id="node7" class="node"><title>6</title>
<ellipse fill="cadetblue" stroke="black" cx="145.559" cy="-73.0835" rx="18" ry="18"/>
</g>
<!-- 0&#45;&#45;6 -->
<g id="edge5" class="edge"><title>0&#45;&#45;6</title>
<path fill="none" stroke="black" stroke-width="2" d="M91.5245,-35.1776C103.099,-43.2976 119.047,-54.4849 130.614,-62.5997"/>
</g>
<!-- 1 -->
<g id="node2" class="node"><title>1</title>
<ellipse fill="cadetblue" stroke="black" cx="190.025" cy="-112.991" rx="18" ry="18"/>
</g>
<!-- 1&#45;&#45;4 -->
<g id="edge6" class="edge"><title>1&#45;&#45;4</title>
<path fill="none" stroke="black" stroke-width="2" d="M184.159,-95.5679C178.39,-78.4285 169.632,-52.4134 163.875,-35.3123"/>
</g>
<!-- 1&#45;&#45;5 -->
<g id="edge7" class="edge"><title>1&#45;&#45;5</title>
<path fill="none" stroke="black" stroke-width="2" d="M172.17,-115.599C155.877,-117.979 131.911,-121.48 115.537,-123.872"/>
</g>
<!-- 1&#45;&#45;6 -->
<g id="edge8" class="edge"><title>1&#45;&#45;6</title>
<path fill="none" stroke="black" stroke-width="2" d="M176.442,-100.8C170.925,-95.8492 164.567,-90.1426 159.059,-85.1991"/>
</g>
<!-- 2&#45;&#45;3 -->
<g id="edge9" class="edge"><title>2&#45;&#45;3</title>
<path fill="none" stroke="black" stroke-width="2" d="M62.3818,-75.6044C53.7649,-79.1811 43.2813,-83.5326 34.6673,-87.1081"/>
</g>
<!-- 2&#45;&#45;4 -->
<g id="edge10" class="edge"><title>2&#45;&#45;4</title>
<path fill="none" stroke="black" stroke-width="2" d="M94.297,-58.9066C108.282,-49.9327 128.896,-36.7056 142.866,-27.7412"/>
</g>
<!-- 2&#45;&#45;5 -->
<g id="edge11" class="edge"><title>2&#45;&#45;5</title>
<path fill="none" stroke="black" stroke-width="2" d="M84.5753,-86.032C86.898,-93.3528 89.5963,-101.857 91.9186,-109.177"/>
</g>
<!-- 2&#45;&#45;6 -->
<g id="edge12" class="edge"><title>2&#45;&#45;6</title>
<path fill="none" stroke="black" stroke-width="2" d="M97.2378,-69.8817C106.62,-70.5033 118.034,-71.2596 127.412,-71.881"/>
</g>
<!-- 3&#45;&#45;5 -->
<g id="edge13" class="edge"><title>3&#45;&#45;5</title>
<path fill="none" stroke="black" stroke-width="2" d="M34.8431,-100.917C48.3211,-106.431 67.1304,-114.126 80.6019,-119.638"/>
</g>
<!-- 4&#45;&#45;6 -->
<g id="edge14" class="edge"><title>4&#45;&#45;6</title>
<path fill="none" stroke="black" stroke-width="2" d="M154.027,-35.732C152.601,-42.0221 150.997,-49.0974 149.571,-55.3847"/>
</g>
<!-- 5&#45;&#45;6 -->
<g id="edge15" class="edge"><title>5&#45;&#45;6</title>
<path fill="none" stroke="black" stroke-width="2" d="M109.568,-113.035C116.81,-104.996 125.978,-94.8195 133.248,-86.749"/>
</g>
</g>
</svg>

