<?xml version="1.0" encoding="UTF-8" standalone="no"?>
<!DOCTYPE svg PUBLIC "-//W3C//DTD SVG 1.1//EN"
 "http://www.w3.org/Graphics/SVG/1.1/DTD/svg11.dtd">
<!-- Generated by graphviz version 2.38.0 (20140413.2041)
 -->
<!-- Title: G Pages: 1 -->
<svg width="100%" height="100%"
 viewBox="0.00 0.00 416.32 396.93" xmlns="http://www.w3.org/2000/svg" xmlns:xlink="http://www.w3.org/1999/xlink">
<g id="graph0" class="graph" transform="scale(1 1) rotate(0) translate(215.791 194.829)">
<title>G</title>
<!-- 0 -->
<g id="node1" class="node"><title>0</title>
<ellipse fill="cadetblue" stroke="black" cx="-87.0095" cy="-26.0556" rx="33" ry="33"/>
</g>
<!-- 1 -->
<g id="node2" class="node"><title>1</title>
<ellipse fill="cadetblue" stroke="black" cx="-79.9315" cy="-157.829" rx="33" ry="33"/>
</g>
<!-- 0&#45;&#45;1 -->
<g id="edge1" class="edge"><title>0&#45;&#45;1</title>
<path fill="none" stroke="black" stroke-width="6" d="M-85.2234,-59.3076C-84.1505,-79.2834 -82.7899,-104.614 -81.717,-124.588"/>
</g>
<!-- 2 -->
<g id="node3" class="node"><title>2</title>
<ellipse fill="cadetblue" stroke="black" cx="28.7175" cy="165.102" rx="33" ry="33"/>
</g>
<!-- 0&#45;&#45;2 -->
<g id="edge2" class="edge"><title>0&#45;&#45;2</title>
<path fill="none" stroke="black" stroke-width="6" d="M-69.684,2.56269C-47.804,38.704 -10.3835,100.515 11.4629,136.601"/>
</g>
<!-- 3 -->
<g id="node4" class="node"><title>3</title>
<ellipse fill="cadetblue" stroke="black" cx="25.9211" cy="-125.272" rx="33" ry="33"/>
</g>
<!-- 0&#45;&#45;3 -->
<g id="edge3" class="edge"><title>0&#45;&#45;3</title>
<path fill="none" stroke="black" stroke-width="6" d="M-61.9466,-48.0748C-43.232,-64.5166 -17.7695,-86.8869 0.928172,-103.314"/>
</g>
<!-- 4 -->
<g id="node5" class="node"><title>4</title>
<ellipse fill="cadetblue" stroke="black" cx="137.631" cy="-111.86" rx="33" ry="33"/>
</g>
<!-- 1&#45;&#45;4 -->
<g id="edge4" class="edge"><title>1&#45;&#45;4</title>
<path fill="none" stroke="black" stroke-width="6" d="M-46.7142,-161.304C-25.6961,-162.685 1.93762,-162.989 25.9195,-158.272 55.1809,-152.515 86.3515,-138.865 108.31,-127.85"/>
</g>
<!-- 5 -->
<g id="node6" class="node"><title>5</title>
<ellipse fill="cadetblue" stroke="black" cx="-178.791" cy="0.27587" rx="33" ry="33"/>
</g>
<!-- 1&#45;&#45;5 -->
<g id="edge5" class="edge"><title>1&#45;&#45;5</title>
<path fill="none" stroke="black" stroke-width="6" d="M-97.6057,-129.563C-115.6,-100.785 -143.331,-56.4348 -161.27,-27.7454"/>
</g>
<!-- 6 -->
<g id="node7" class="node"><title>6</title>
<ellipse fill="cadetblue" stroke="black" cx="163.527" cy="72.5004" rx="33" ry="33"/>
</g>
<!-- 2&#45;&#45;6 -->
<g id="edge6" class="edge"><title>2&#45;&#45;6</title>
<path fill="none" stroke="black" stroke-width="6" d="M55.9982,146.363C79.3871,130.297 112.91,107.27 136.287,91.2119"/>
</g>
<!-- 7 -->
<g id="node8" class="node"><title>7</title>
<ellipse fill="cadetblue" stroke="black" cx="-92.7356" cy="139.498" rx="33" ry="33"/>
</g>
<!-- 2&#45;&#45;7 -->
<g id="edge7" class="edge"><title>2&#45;&#45;7</title>
<path fill="none" stroke="black" stroke-width="6" d="M-3.82967,158.241C-21.2555,154.567 -42.6591,150.055 -60.0985,146.378"/>
</g>
<!-- 8 -->
<g id="node9" class="node"><title>8</title>
<ellipse fill="cadetblue" stroke="black" cx="89.5195" cy="10.3593" rx="33" ry="33"/>
</g>
<!-- 3&#45;&#45;8 -->
<g id="edge8" class="edge"><title>3&#45;&#45;8</title>
<path fill="none" stroke="black" stroke-width="6" d="M40.0356,-95.1707C50.575,-72.6943 64.9146,-42.1135 75.4444,-19.6574"/>
</g>
<!-- 9 -->
<g id="node10" class="node"><title>9</title>
<ellipse fill="cadetblue" stroke="black" cx="-6.84782" cy="33.2808" rx="33" ry="33"/>
</g>
<!-- 3&#45;&#45;9 -->
<g id="edge9" class="edge"><title>3&#45;&#45;9</title>
<path fill="none" stroke="black" stroke-width="6" d="M19.2107,-92.8035C13.5559,-65.4427 5.50583,-26.4924 -0.14645,0.856155"/>
</g>
<!-- 4&#45;&#45;6 -->
<g id="edge10" class="edge"><title>4&#45;&#45;6</title>
<path fill="none" stroke="black" stroke-width="6" d="M142.261,-78.9003C146.96,-45.4467 154.193,6.05287 158.894,39.5155"/>
</g>
<!-- 4&#45;&#45;8 -->
<g id="edge11" class="edge"><title>4&#45;&#45;8</title>
<path fill="none" stroke="black" stroke-width="6" d="M125.49,-81.0191C118.197,-62.4916 108.949,-38.9978 101.656,-20.472"/>
</g>
<!-- 5&#45;&#45;7 -->
<g id="edge12" class="edge"><title>5&#45;&#45;7</title>
<path fill="none" stroke="black" stroke-width="6" d="M-161.377,28.4495C-146.446,52.6038 -125.047,87.2237 -110.124,111.366"/>
</g>
<!-- 5&#45;&#45;9 -->
<g id="edge13" class="edge"><title>5&#45;&#45;9</title>
<path fill="none" stroke="black" stroke-width="6" d="M-146.045,6.56152C-115.45,12.4343 -70.0277,21.1533 -39.4719,27.0185"/>
</g>
<!-- 6&#45;&#45;9 -->
<g id="edge14" class="edge"><title>6&#45;&#45;9</title>
<path fill="none" stroke="black" stroke-width="6" d="M131.08,65.0312C100.764,58.0525 55.7556,47.6918 25.4786,40.7222"/>
</g>
<!-- 7&#45;&#45;8 -->
<g id="edge15" class="edge"><title>7&#45;&#45;8</title>
<path fill="none" stroke="black" stroke-width="6" d="M-65.4502,120.164C-30.9921,95.7487 27.9404,53.9917 62.3456,29.6136"/>
</g>
</g>
</svg>

