<?xml version="1.0" encoding="UTF-8" standalone="no"?>
<!DOCTYPE svg PUBLIC "-//W3C//DTD SVG 1.1//EN"
 "http://www.w3.org/Graphics/SVG/1.1/DTD/svg11.dtd">
<!-- Generated by graphviz version 2.38.0 (20140413.2041)
 -->
<!-- Title: G Pages: 1 -->
<svg width="100%" height="100%"
 viewBox="0.00 0.00 412.95 443.80" xmlns="http://www.w3.org/2000/svg" xmlns:xlink="http://www.w3.org/1999/xlink">
<g id="graph0" class="graph" transform="scale(1 1) rotate(0) translate(204.73 230.49)">
<title>G</title>
<!-- 0 -->
<g id="node1" class="node"><title>0</title>
<ellipse fill="cadetblue" stroke="black" cx="-13.6397" cy="-66.4182" rx="33" ry="33"/>
</g>
<!-- 1 -->
<g id="node2" class="node"><title>1</title>
<ellipse fill="cadetblue" stroke="black" cx="-39.8205" cy="-193.49" rx="33" ry="33"/>
</g>
<!-- 0&#45;&#45;1 -->
<g id="edge1" class="edge"><title>0&#45;&#45;1</title>
<path fill="none" stroke="black" stroke-width="6" d="M-20.314,-98.8126C-24.2529,-117.931 -29.2216,-142.047 -33.1584,-161.155"/>
</g>
<!-- 2 -->
<g id="node3" class="node"><title>2</title>
<ellipse fill="cadetblue" stroke="black" cx="171.215" cy="-26.5552" rx="33" ry="33"/>
</g>
<!-- 0&#45;&#45;2 -->
<g id="edge2" class="edge"><title>0&#45;&#45;2</title>
<path fill="none" stroke="black" stroke-width="6" d="M18.9831,-59.3833C52.7725,-52.0967 105.25,-40.7803 138.918,-33.5198"/>
</g>
<!-- 3 -->
<g id="node4" class="node"><title>3</title>
<ellipse fill="cadetblue" stroke="black" cx="-167.73" cy="43.2354" rx="33" ry="33"/>
</g>
<!-- 0&#45;&#45;3 -->
<g id="edge3" class="edge"><title>0&#45;&#45;3</title>
<path fill="none" stroke="black" stroke-width="6" d="M-40.8333,-47.0667C-68.9994,-27.0232 -112.743,4.10559 -140.809,24.0774"/>
</g>
<!-- 4 -->
<g id="node5" class="node"><title>4</title>
<ellipse fill="cadetblue" stroke="black" cx="110.929" cy="-129.718" rx="33" ry="33"/>
</g>
<!-- 1&#45;&#45;4 -->
<g id="edge4" class="edge"><title>1&#45;&#45;4</title>
<path fill="none" stroke="black" stroke-width="6" d="M-9.31399,-180.585C16.8404,-169.521 54.327,-153.663 80.4683,-142.604"/>
</g>
<!-- 5 -->
<g id="node6" class="node"><title>5</title>
<ellipse fill="cadetblue" stroke="black" cx="-153.181" cy="-75.4026" rx="33" ry="33"/>
</g>
<!-- 1&#45;&#45;5 -->
<g id="edge5" class="edge"><title>1&#45;&#45;5</title>
<path fill="none" stroke="black" stroke-width="6" d="M-62.7607,-169.593C-82.4283,-149.106 -110.617,-119.741 -130.275,-99.2639"/>
</g>
<!-- 2&#45;&#45;4 -->
<g id="edge6" class="edge"><title>2&#45;&#45;4</title>
<path fill="none" stroke="black" stroke-width="6" d="M154.422,-55.2919C146.061,-69.6006 135.981,-86.8484 127.632,-101.136"/>
</g>
<!-- 6 -->
<g id="node7" class="node"><title>6</title>
<ellipse fill="cadetblue" stroke="black" cx="138.839" cy="132.118" rx="33" ry="33"/>
</g>
<!-- 2&#45;&#45;6 -->
<g id="edge7" class="edge"><title>2&#45;&#45;6</title>
<path fill="none" stroke="black" stroke-width="6" d="M164.585,5.93747C158.998,33.3191 151.045,72.299 145.46,99.6683"/>
</g>
<!-- 3&#45;&#45;5 -->
<g id="edge8" class="edge"><title>3&#45;&#45;5</title>
<path fill="none" stroke="black" stroke-width="6" d="M-163.678,10.1881C-161.66,-6.2669 -159.227,-26.1019 -157.212,-42.5325"/>
</g>
<!-- 7 -->
<g id="node8" class="node"><title>7</title>
<ellipse fill="cadetblue" stroke="black" cx="-75.2633" cy="176.312" rx="33" ry="33"/>
</g>
<!-- 3&#45;&#45;7 -->
<g id="edge9" class="edge"><title>3&#45;&#45;7</title>
<path fill="none" stroke="black" stroke-width="6" d="M-148.795,70.4866C-132.838,93.4511 -110.123,126.143 -94.1732,149.097"/>
</g>
<!-- 9 -->
<g id="node10" class="node"><title>9</title>
<ellipse fill="cadetblue" stroke="black" cx="72.0483" cy="58.1101" rx="33" ry="33"/>
</g>
<!-- 4&#45;&#45;9 -->
<g id="edge10" class="edge"><title>4&#45;&#45;9</title>
<path fill="none" stroke="black" stroke-width="6" d="M104.157,-97.0012C97.0205,-62.5265 85.8502,-8.56477 78.7433,25.7678"/>
</g>
<!-- 8 -->
<g id="node9" class="node"><title>8</title>
<ellipse fill="cadetblue" stroke="black" cx="-43.3969" cy="81.8097" rx="33" ry="33"/>
</g>
<!-- 5&#45;&#45;8 -->
<g id="edge11" class="edge"><title>5&#45;&#45;8</title>
<path fill="none" stroke="black" stroke-width="6" d="M-134.058,-48.0183C-113.908,-19.163 -82.3679,26.0029 -62.3008,54.7392"/>
</g>
<!-- 6&#45;&#45;8 -->
<g id="edge12" class="edge"><title>6&#45;&#45;8</title>
<path fill="none" stroke="black" stroke-width="6" d="M106.679,123.239C73.3677,114.044 21.634,99.762 -11.5577,90.5992"/>
</g>
<!-- 6&#45;&#45;9 -->
<g id="edge13" class="edge"><title>6&#45;&#45;9</title>
<path fill="none" stroke="black" stroke-width="6" d="M116.599,107.474C109.389,99.4849 101.395,90.6273 94.1916,82.6459"/>
</g>
<!-- 7&#45;&#45;8 -->
<g id="edge14" class="edge"><title>7&#45;&#45;8</title>
<path fill="none" stroke="black" stroke-width="6" d="M-64.6523,144.844C-61.2123,134.642 -57.3983,123.332 -53.9616,113.14"/>
</g>
<!-- 7&#45;&#45;9 -->
<g id="edge15" class="edge"><title>7&#45;&#45;9</title>
<path fill="none" stroke="black" stroke-width="6" d="M-49.2661,155.452C-22.5043,133.978 18.9677,100.702 45.8154,79.1592"/>
</g>
</g>
</svg>

