<?xml version="1.0" encoding="UTF-8" standalone="no"?>
<!DOCTYPE svg PUBLIC "-//W3C//DTD SVG 1.1//EN"
 "http://www.w3.org/Graphics/SVG/1.1/DTD/svg11.dtd">
<!-- Generated by graphviz version 2.38.0 (20140413.2041)
 -->
<!-- Title: G Pages: 1 -->
<svg width="100%" height="100%"
 viewBox="0.00 0.00 527.35 513.20" xmlns="http://www.w3.org/2000/svg" xmlns:xlink="http://www.w3.org/1999/xlink">
<g id="graph0" class="graph" transform="scale(1 1) rotate(0) translate(252.046 274.383)">
<title>G</title>
<!-- 0 -->
<g id="node1" class="node"><title>0</title>
<ellipse fill="cadetblue" stroke="black" cx="-131.617" cy="-27.3538" rx="33" ry="33"/>
</g>
<!-- 1 -->
<g id="node2" class="node"><title>1</title>
<ellipse fill="cadetblue" stroke="black" cx="23.1714" cy="-237.383" rx="33" ry="33"/>
</g>
<!-- 0&#45;&#45;1 -->
<g id="edge1" class="edge"><title>0&#45;&#45;1</title>
<path fill="none" stroke="black" stroke-width="6" d="M-112.013,-53.9541C-82.3197,-94.2437 -26.2602,-170.31 3.48268,-210.668"/>
</g>
<!-- 2 -->
<g id="node3" class="node"><title>2</title>
<ellipse fill="cadetblue" stroke="black" cx="-129.644" cy="138.475" rx="33" ry="33"/>
</g>
<!-- 0&#45;&#45;2 -->
<g id="edge2" class="edge"><title>0&#45;&#45;2</title>
<path fill="none" stroke="black" stroke-width="6" d="M-131.222,5.80557C-130.878,34.728 -130.382,76.4677 -130.038,105.373"/>
</g>
<!-- 3 -->
<g id="node4" class="node"><title>3</title>
<ellipse fill="cadetblue" stroke="black" cx="-45.6137" cy="193.904" rx="33" ry="33"/>
</g>
<!-- 0&#45;&#45;3 -->
<g id="edge3" class="edge"><title>0&#45;&#45;3</title>
<path fill="none" stroke="black" stroke-width="6" d="M-119.658,3.41116C-103.273,45.5644 -74.0129,120.842 -57.6088,163.045"/>
</g>
<!-- 4 -->
<g id="node5" class="node"><title>4</title>
<ellipse fill="cadetblue" stroke="black" cx="170.497" cy="-153.326" rx="33" ry="33"/>
</g>
<!-- 1&#45;&#45;4 -->
<g id="edge4" class="edge"><title>1&#45;&#45;4</title>
<path fill="none" stroke="black" stroke-width="6" d="M51.927,-220.976C77.8861,-206.165 115.877,-184.49 141.814,-169.691"/>
</g>
<!-- 5 -->
<g id="node6" class="node"><title>5</title>
<ellipse fill="cadetblue" stroke="black" cx="-80.5699" cy="-207.013" rx="33" ry="33"/>
</g>
<!-- 1&#45;&#45;5 -->
<g id="edge5" class="edge"><title>1&#45;&#45;5</title>
<path fill="none" stroke="black" stroke-width="6" d="M-8.51814,-228.106C-21.2697,-224.373 -35.9491,-220.075 -48.717,-216.337"/>
</g>
<!-- 6 -->
<g id="node7" class="node"><title>6</title>
<ellipse fill="cadetblue" stroke="black" cx="-12.4337" cy="-47.5355" rx="33" ry="33"/>
</g>
<!-- 2&#45;&#45;6 -->
<g id="edge6" class="edge"><title>2&#45;&#45;6</title>
<path fill="none" stroke="black" stroke-width="6" d="M-111.842,110.224C-89.7481,75.1608 -52.2933,15.721 -30.2105,-19.3239"/>
</g>
<!-- 7 -->
<g id="node8" class="node"><title>7</title>
<ellipse fill="cadetblue" stroke="black" cx="55.178" cy="201.817" rx="33" ry="33"/>
</g>
<!-- 2&#45;&#45;7 -->
<g id="edge7" class="edge"><title>2&#45;&#45;7</title>
<path fill="none" stroke="black" stroke-width="6" d="M-97.5302,146.081C-81.8101,150.054 -62.6864,155.26 -45.8325,160.905 -21.7916,168.956 4.757,179.788 24.6012,188.284"/>
</g>
<!-- 8 -->
<g id="node9" class="node"><title>8</title>
<ellipse fill="cadetblue" stroke="black" cx="-203.652" cy="89.7326" rx="33" ry="33"/>
</g>
<!-- 3&#45;&#45;8 -->
<g id="edge8" class="edge"><title>3&#45;&#45;8</title>
<path fill="none" stroke="black" stroke-width="6" d="M-78.6549,190.596C-101.572,186.843 -131.676,178.85 -152.94,161.848 -167.405,150.283 -179.525,133.539 -188.285,119.097"/>
</g>
<!-- 9 -->
<g id="node10" class="node"><title>9</title>
<ellipse fill="cadetblue" stroke="black" cx="188.06" cy="144.105" rx="33" ry="33"/>
</g>
<!-- 3&#45;&#45;9 -->
<g id="edge9" class="edge"><title>3&#45;&#45;9</title>
<path fill="none" stroke="black" stroke-width="6" d="M-13.5658,185.383C6.13669,180.276 31.9371,173.825 54.9775,168.817 89.0784,161.406 128.398,154.278 155.407,149.598"/>
</g>
<!-- 10 -->
<g id="node11" class="node"><title>10</title>
<ellipse fill="cadetblue" stroke="black" cx="238.302" cy="-22.0006" rx="33" ry="33"/>
</g>
<!-- 4&#45;&#45;10 -->
<g id="edge10" class="edge"><title>4&#45;&#45;10</title>
<path fill="none" stroke="black" stroke-width="6" d="M185.714,-123.854C196.881,-102.226 211.981,-72.9794 223.136,-51.3743"/>
</g>
<!-- 11 -->
<g id="node12" class="node"><title>11</title>
<ellipse fill="cadetblue" stroke="black" cx="28.7124" cy="49.8633" rx="33" ry="33"/>
</g>
<!-- 4&#45;&#45;11 -->
<g id="edge11" class="edge"><title>4&#45;&#45;11</title>
<path fill="none" stroke="black" stroke-width="6" d="M151.375,-125.923C124.239,-87.0348 74.8509,-16.2573 47.757,22.5707"/>
</g>
<!-- 12 -->
<g id="node13" class="node"><title>12</title>
<ellipse fill="cadetblue" stroke="black" cx="-215.046" cy="-107.791" rx="33" ry="33"/>
</g>
<!-- 5&#45;&#45;12 -->
<g id="edge12" class="edge"><title>5&#45;&#45;12</title>
<path fill="none" stroke="black" stroke-width="6" d="M-107.138,-187.41C-130.56,-170.128 -164.53,-145.064 -188.073,-127.693"/>
</g>
<!-- 13 -->
<g id="node14" class="node"><title>13</title>
<ellipse fill="cadetblue" stroke="black" cx="114.654" cy="-15.4946" rx="33" ry="33"/>
</g>
<!-- 5&#45;&#45;13 -->
<g id="edge13" class="edge"><title>5&#45;&#45;13</title>
<path fill="none" stroke="black" stroke-width="6" d="M-56.6316,-183.529C-19.061,-146.671 53.3231,-75.6613 90.8257,-38.8707"/>
</g>
<!-- 6&#45;&#45;10 -->
<g id="edge14" class="edge"><title>6&#45;&#45;10</title>
<path fill="none" stroke="black" stroke-width="6" d="M20.5116,-49.7457C46.1701,-50.9939 82.6458,-51.7313 114.414,-48.4938 146.033,-45.2715 181.429,-37.246 206.263,-30.8662"/>
</g>
<!-- 6&#45;&#45;12 -->
<g id="edge15" class="edge"><title>6&#45;&#45;12</title>
<path fill="none" stroke="black" stroke-width="6" d="M-44.0918,-56.9504C-82.0445,-68.2372 -145.274,-87.0413 -183.276,-98.3428"/>
</g>
<!-- 7&#45;&#45;11 -->
<g id="edge16" class="edge"><title>7&#45;&#45;11</title>
<path fill="none" stroke="black" stroke-width="6" d="M49.5005,169.219C45.0351,143.581 38.8435,108.032 34.3805,82.4072"/>
</g>
<!-- 7&#45;&#45;13 -->
<g id="edge17" class="edge"><title>7&#45;&#45;13</title>
<path fill="none" stroke="black" stroke-width="6" d="M63.9539,169.752C75.2312,128.547 94.6914,57.4443 105.939,16.3479"/>
</g>
<!-- 8&#45;&#45;11 -->
<g id="edge18" class="edge"><title>8&#45;&#45;11</title>
<path fill="none" stroke="black" stroke-width="6" d="M-170.852,84.1049C-126.567,76.5063 -48.1195,63.0462 -3.92003,55.4624"/>
</g>
<!-- 8&#45;&#45;12 -->
<g id="edge19" class="edge"><title>8&#45;&#45;12</title>
<path fill="none" stroke="black" stroke-width="6" d="M-205.559,56.6716C-207.662,20.2099 -211.027,-38.1172 -213.132,-74.622"/>
</g>
<!-- 9&#45;&#45;10 -->
<g id="edge20" class="edge"><title>9&#45;&#45;10</title>
<path fill="none" stroke="black" stroke-width="6" d="M197.629,112.471C206.54,83.0086 219.757,39.3136 228.684,9.79829"/>
</g>
<!-- 9&#45;&#45;13 -->
<g id="edge21" class="edge"><title>9&#45;&#45;13</title>
<path fill="none" stroke="black" stroke-width="6" d="M174.253,114.086C161.171,85.642 141.627,43.1495 128.524,14.6611"/>
</g>
</g>
</svg>

