<?xml version="1.0" encoding="UTF-8" standalone="no"?>
<!DOCTYPE svg PUBLIC "-//W3C//DTD SVG 1.1//EN"
 "http://www.w3.org/Graphics/SVG/1.1/DTD/svg11.dtd">
<!-- Generated by graphviz version 2.36.0 (20140111.2315)
 -->
<!-- Title: G Pages: 1 -->
<svg width="100%" height="100%"
 viewBox="0.00 0.00 323.98 311.48" xmlns="http://www.w3.org/2000/svg" xmlns:xlink="http://www.w3.org/1999/xlink">
<g id="graph0" class="graph" transform="scale(1 1) rotate(0) translate(4 307.481)">
<title>G</title>
<!-- 0 -->
<g id="node1" class="node"><title>0</title>
<ellipse fill="cadetblue" stroke="black" cx="109.954" cy="-93.0701" rx="18" ry="18"/>
</g>
<!-- 5 -->
<g id="node6" class="node"><title>5</title>
<ellipse fill="cadetblue" stroke="black" cx="18" cy="-185.924" rx="18" ry="18"/>
</g>
<!-- 0&#45;&#45;5 -->
<g id="edge1" class="edge"><title>0&#45;&#45;5</title>
<path fill="none" stroke="black" stroke-width="2" d="M97.1681,-105.981C79.6001,-123.721 48.188,-155.44 30.6772,-173.122"/>
</g>
<!-- 6 -->
<g id="node7" class="node"><title>6</title>
<ellipse fill="cadetblue" stroke="black" cx="216.156" cy="-18" rx="18" ry="18"/>
</g>
<!-- 0&#45;&#45;6 -->
<g id="edge2" class="edge"><title>0&#45;&#45;6</title>
<path fill="none" stroke="black" stroke-width="2" d="M124.721,-82.6319C144.897,-68.3702 180.883,-42.9329 201.172,-28.5915"/>
</g>
<!-- 7 -->
<g id="node8" class="node"><title>7</title>
<ellipse fill="cadetblue" stroke="black" cx="174.521" cy="-164.293" rx="18" ry="18"/>
</g>
<!-- 0&#45;&#45;7 -->
<g id="edge3" class="edge"><title>0&#45;&#45;7</title>
<path fill="none" stroke="black" stroke-width="2" d="M122.098,-106.467C133.642,-119.2 150.905,-138.243 162.43,-150.957"/>
</g>
<!-- 8 -->
<g id="node9" class="node"><title>8</title>
<ellipse fill="cadetblue" stroke="black" cx="212.4" cy="-212.397" rx="18" ry="18"/>
</g>
<!-- 0&#45;&#45;8 -->
<g id="edge4" class="edge"><title>0&#45;&#45;8</title>
<path fill="none" stroke="black" stroke-width="2" d="M116.375,-110.104C124.138,-128.953 138.692,-159.386 158.678,-180.016 169.287,-190.966 184.359,-199.624 195.84,-205.221"/>
</g>
<!-- 1 -->
<g id="node2" class="node"><title>1</title>
<ellipse fill="cadetblue" stroke="black" cx="90.68" cy="-241.477" rx="18" ry="18"/>
</g>
<!-- 1&#45;&#45;5 -->
<g id="edge5" class="edge"><title>1&#45;&#45;5</title>
<path fill="none" stroke="black" stroke-width="2" d="M76.3208,-230.501C63.579,-220.762 45.0622,-206.609 32.3294,-196.876"/>
</g>
<!-- 1&#45;&#45;7 -->
<g id="edge6" class="edge"><title>1&#45;&#45;7</title>
<path fill="none" stroke="black" stroke-width="2" d="M104.15,-229.076C119.796,-214.673 145.452,-191.054 161.084,-176.663"/>
</g>
<!-- 1&#45;&#45;8 -->
<g id="edge7" class="edge"><title>1&#45;&#45;8</title>
<path fill="none" stroke="black" stroke-width="2" d="M108.379,-237.249C131.456,-231.735 171.592,-222.147 194.679,-216.631"/>
</g>
<!-- 2 -->
<g id="node3" class="node"><title>2</title>
<ellipse fill="cadetblue" stroke="black" cx="132.101" cy="-285.481" rx="18" ry="18"/>
</g>
<!-- 2&#45;&#45;5 -->
<g id="edge8" class="edge"><title>2&#45;&#45;5</title>
<path fill="none" stroke="black" stroke-width="2" d="M114.94,-279.331C102.936,-274.5 86.9523,-266.964 74.8713,-257.233 55.0158,-241.241 37.6409,-217.16 27.4798,-201.489"/>
</g>
<!-- 2&#45;&#45;7 -->
<g id="edge9" class="edge"><title>2&#45;&#45;7</title>
<path fill="none" stroke="black" stroke-width="2" d="M138.089,-268.375C146.173,-245.278 160.494,-204.364 168.563,-181.312"/>
</g>
<!-- 2&#45;&#45;8 -->
<g id="edge10" class="edge"><title>2&#45;&#45;8</title>
<path fill="none" stroke="black" stroke-width="2" d="M145.723,-273.084C160.578,-259.563 184.204,-238.06 198.979,-224.612"/>
</g>
<!-- 3 -->
<g id="node4" class="node"><title>3</title>
<ellipse fill="cadetblue" stroke="black" cx="297.976" cy="-147.157" rx="18" ry="18"/>
</g>
<!-- 3&#45;&#45;6 -->
<g id="edge11" class="edge"><title>3&#45;&#45;6</title>
<path fill="none" stroke="black" stroke-width="2" d="M282.299,-138.178C272.241,-131.756 259.52,-122.31 251.021,-111.238 233.553,-88.4806 224.079,-56.0329 219.577,-36.0307"/>
</g>
<!-- 3&#45;&#45;7 -->
<g id="edge12" class="edge"><title>3&#45;&#45;7</title>
<path fill="none" stroke="black" stroke-width="2" d="M280.024,-149.648C256.618,-152.897 215.911,-158.548 192.494,-161.798"/>
</g>
<!-- 3&#45;&#45;8 -->
<g id="edge13" class="edge"><title>3&#45;&#45;8</title>
<path fill="none" stroke="black" stroke-width="2" d="M283.459,-158.224C267.723,-170.221 242.752,-189.258 226.988,-201.276"/>
</g>
<!-- 4 -->
<g id="node5" class="node"><title>4</title>
<ellipse fill="cadetblue" stroke="black" cx="266.822" cy="-95.4737" rx="18" ry="18"/>
</g>
<!-- 4&#45;&#45;6 -->
<g id="edge14" class="edge"><title>4&#45;&#45;6</title>
<path fill="none" stroke="black" stroke-width="2" d="M256.812,-80.1674C247.93,-66.5852 235.021,-46.8471 226.145,-33.2745"/>
</g>
<!-- 4&#45;&#45;7 -->
<g id="edge15" class="edge"><title>4&#45;&#45;7</title>
<path fill="none" stroke="black" stroke-width="2" d="M251.992,-106.531C234.666,-119.449 206.188,-140.682 189.009,-153.491"/>
</g>
<!-- 4&#45;&#45;8 -->
<g id="edge16" class="edge"><title>4&#45;&#45;8</title>
<path fill="none" stroke="black" stroke-width="2" d="M259.14,-111.978C248.768,-134.262 230.395,-173.736 220.043,-195.977"/>
</g>
<!-- 7&#45;&#45;8 -->
<g id="edge17" class="edge"><title>7&#45;&#45;8</title>
<path fill="none" stroke="black" stroke-width="2" d="M185.681,-178.466C190.569,-184.674 196.294,-191.944 201.189,-198.16"/>
</g>
</g>
</svg>

