<?xml version="1.0" encoding="UTF-8" standalone="no"?>
<!DOCTYPE svg PUBLIC "-//W3C//DTD SVG 1.1//EN"
 "http://www.w3.org/Graphics/SVG/1.1/DTD/svg11.dtd">
<!-- Generated by graphviz version 2.36.0 (20140111.2315)
 -->
<!-- Title: G Pages: 1 -->
<svg width="100%" height="100%"
 viewBox="0.00 0.00 247.52 223.42" xmlns="http://www.w3.org/2000/svg" xmlns:xlink="http://www.w3.org/1999/xlink">
<g id="graph0" class="graph" transform="scale(1 1) rotate(0) translate(4 219.418)">
<title>G</title>
<!-- 0 -->
<g id="node1" class="node"><title>0</title>
<ellipse fill="cadetblue" stroke="black" cx="31.6392" cy="-62.6671" rx="18" ry="18"/>
</g>
<!-- 5 -->
<g id="node6" class="node"><title>5</title>
<ellipse fill="cadetblue" stroke="black" cx="56.7435" cy="-179.85" rx="18" ry="18"/>
</g>
<!-- 0&#45;&#45;5 -->
<g id="edge1" class="edge"><title>0&#45;&#45;5</title>
<path fill="none" stroke="black" stroke-width="2" d="M35.452,-80.4647C40.1705,-102.49 48.1598,-139.783 52.8948,-161.885"/>
</g>
<!-- 7 -->
<g id="node8" class="node"><title>7</title>
<ellipse fill="cadetblue" stroke="black" cx="119.007" cy="-68.5518" rx="18" ry="18"/>
</g>
<!-- 0&#45;&#45;7 -->
<g id="edge2" class="edge"><title>0&#45;&#45;7</title>
<path fill="none" stroke="black" stroke-width="2" d="M49.7419,-63.8864C64.7364,-64.8964 85.9396,-66.3245 100.928,-67.3341"/>
</g>
<!-- 8 -->
<g id="node9" class="node"><title>8</title>
<ellipse fill="cadetblue" stroke="black" cx="116.325" cy="-112.556" rx="18" ry="18"/>
</g>
<!-- 0&#45;&#45;8 -->
<g id="edge3" class="edge"><title>0&#45;&#45;8</title>
<path fill="none" stroke="black" stroke-width="2" d="M47.1718,-71.8176C62.3563,-80.7629 85.355,-94.3117 100.604,-103.295"/>
</g>
<!-- 1 -->
<g id="node2" class="node"><title>1</title>
<ellipse fill="cadetblue" stroke="black" cx="18" cy="-119.175" rx="18" ry="18"/>
</g>
<!-- 1&#45;&#45;5 -->
<g id="edge4" class="edge"><title>1&#45;&#45;5</title>
<path fill="none" stroke="black" stroke-width="2" d="M27.7766,-134.486C33.605,-143.614 40.9837,-155.169 46.8352,-164.333"/>
</g>
<!-- 1&#45;&#45;7 -->
<g id="edge5" class="edge"><title>1&#45;&#45;7</title>
<path fill="none" stroke="black" stroke-width="2" d="M34.2286,-111.042C53.0776,-101.595 83.9871,-86.1034 102.819,-76.6652"/>
</g>
<!-- 1&#45;&#45;8 -->
<g id="edge6" class="edge"><title>1&#45;&#45;8</title>
<path fill="none" stroke="black" stroke-width="2" d="M36.0343,-117.961C53.6643,-116.774 80.3672,-114.977 98.0718,-113.785"/>
</g>
<!-- 2 -->
<g id="node3" class="node"><title>2</title>
<ellipse fill="cadetblue" stroke="black" cx="169.278" cy="-18" rx="18" ry="18"/>
</g>
<!-- 6 -->
<g id="node7" class="node"><title>6</title>
<ellipse fill="cadetblue" stroke="black" cx="176.527" cy="-132.755" rx="18" ry="18"/>
</g>
<!-- 2&#45;&#45;6 -->
<g id="edge7" class="edge"><title>2&#45;&#45;6</title>
<path fill="none" stroke="black" stroke-width="2" d="M170.426,-36.1833C171.784,-57.6709 174.029,-93.2065 175.384,-114.657"/>
</g>
<!-- 2&#45;&#45;7 -->
<g id="edge8" class="edge"><title>2&#45;&#45;7</title>
<path fill="none" stroke="black" stroke-width="2" d="M156.332,-31.0183C148.768,-38.6244 139.261,-48.1845 131.735,-55.7526"/>
</g>
<!-- 2&#45;&#45;8 -->
<g id="edge9" class="edge"><title>2&#45;&#45;8</title>
<path fill="none" stroke="black" stroke-width="2" d="M161.34,-34.3425C154.606,-47.9328 144.506,-67.6827 134.73,-84.3939 132.194,-88.7297 129.284,-93.3305 126.539,-97.5291"/>
</g>
<!-- 3 -->
<g id="node4" class="node"><title>3</title>
<ellipse fill="cadetblue" stroke="black" cx="157.686" cy="-197.418" rx="18" ry="18"/>
</g>
<!-- 3&#45;&#45;6 -->
<g id="edge10" class="edge"><title>3&#45;&#45;6</title>
<path fill="none" stroke="black" stroke-width="2" d="M162.735,-180.09C165.438,-170.812 168.759,-159.417 171.464,-150.132"/>
</g>
<!-- 3&#45;&#45;7 -->
<g id="edge11" class="edge"><title>3&#45;&#45;7</title>
<path fill="none" stroke="black" stroke-width="2" d="M154.588,-179.664C151.361,-162.359 145.781,-135.406 138.644,-112.675 136.37,-105.431 135.229,-103.816 132.191,-96.8577 130.499,-92.9825 128.614,-88.8409 126.811,-84.9551"/>
</g>
<!-- 3&#45;&#45;8 -->
<g id="edge12" class="edge"><title>3&#45;&#45;8</title>
<path fill="none" stroke="black" stroke-width="2" d="M149.711,-181.056C142.387,-166.029 131.591,-143.88 124.275,-128.868"/>
</g>
<!-- 4 -->
<g id="node5" class="node"><title>4</title>
<ellipse fill="cadetblue" stroke="black" cx="221.522" cy="-78.2767" rx="18" ry="18"/>
</g>
<!-- 4&#45;&#45;6 -->
<g id="edge13" class="edge"><title>4&#45;&#45;6</title>
<path fill="none" stroke="black" stroke-width="2" d="M209.935,-92.3062C203.269,-100.377 194.917,-110.489 188.232,-118.584"/>
</g>
<!-- 4&#45;&#45;7 -->
<g id="edge14" class="edge"><title>4&#45;&#45;7</title>
<path fill="none" stroke="black" stroke-width="2" d="M203.194,-76.5381C184.535,-74.7679 155.778,-72.04 137.176,-70.2754"/>
</g>
<!-- 4&#45;&#45;8 -->
<g id="edge15" class="edge"><title>4&#45;&#45;8</title>
<path fill="none" stroke="black" stroke-width="2" d="M204.151,-83.9372C184.659,-90.2887 153.224,-100.532 133.722,-106.887"/>
</g>
<!-- 5&#45;&#45;6 -->
<g id="edge16" class="edge"><title>5&#45;&#45;6</title>
<path fill="none" stroke="black" stroke-width="2" d="M73.6515,-173.202C96.4808,-164.227 136.921,-148.327 159.705,-139.369"/>
</g>
<!-- 6&#45;&#45;7 -->
<g id="edge17" class="edge"><title>6&#45;&#45;7</title>
<path fill="none" stroke="black" stroke-width="2" d="M164.329,-119.139C154.568,-108.244 140.945,-93.0384 131.188,-82.148"/>
</g>
<!-- 6&#45;&#45;8 -->
<g id="edge18" class="edge"><title>6&#45;&#45;8</title>
<path fill="none" stroke="black" stroke-width="2" d="M159.437,-127.021C151.372,-124.315 141.764,-121.091 133.667,-118.375"/>
</g>
<!-- 7&#45;&#45;8 -->
<g id="edge19" class="edge"><title>7&#45;&#45;8</title>
<path fill="none" stroke="black" stroke-width="2" d="M117.901,-86.7041C117.745,-89.261 117.585,-91.8895 117.429,-94.4456"/>
</g>
</g>
</svg>

