<?xml version="1.0" encoding="UTF-8" standalone="no"?>
<!DOCTYPE svg PUBLIC "-//W3C//DTD SVG 1.1//EN"
 "http://www.w3.org/Graphics/SVG/1.1/DTD/svg11.dtd">
<!-- Generated by graphviz version 2.36.0 (20140111.2315)
 -->
<!-- Title: G Pages: 1 -->
<svg width="100%" height="100%"
 viewBox="0.00 0.00 255.58 220.31" xmlns="http://www.w3.org/2000/svg" xmlns:xlink="http://www.w3.org/1999/xlink">
<g id="graph0" class="graph" transform="scale(1 1) rotate(0) translate(4 216.31)">
<title>G</title>
<!-- 0 -->
<g id="node1" class="node"><title>0</title>
<ellipse fill="cadetblue" stroke="black" cx="26.5111" cy="-59.4215" rx="18" ry="18"/>
</g>
<!-- 5 -->
<g id="node6" class="node"><title>5</title>
<ellipse fill="cadetblue" stroke="black" cx="68.1734" cy="-186.725" rx="18" ry="18"/>
</g>
<!-- 0&#45;&#45;5 -->
<g id="edge1" class="edge"><title>0&#45;&#45;5</title>
<path fill="none" stroke="black" stroke-width="2" d="M32.1299,-76.5902C40.0814,-100.887 54.5351,-145.052 62.5106,-169.422"/>
</g>
<!-- 7 -->
<g id="node8" class="node"><title>7</title>
<ellipse fill="cadetblue" stroke="black" cx="113.67" cy="-54.0533" rx="18" ry="18"/>
</g>
<!-- 0&#45;&#45;7 -->
<g id="edge2" class="edge"><title>0&#45;&#45;7</title>
<path fill="none" stroke="black" stroke-width="2" d="M44.5705,-58.3092C59.5291,-57.3879 80.6816,-56.0851 95.6338,-55.1642"/>
</g>
<!-- 8 -->
<g id="node9" class="node"><title>8</title>
<ellipse fill="cadetblue" stroke="black" cx="123.898" cy="-98.0577" rx="18" ry="18"/>
</g>
<!-- 0&#45;&#45;8 -->
<g id="edge3" class="edge"><title>0&#45;&#45;8</title>
<path fill="none" stroke="black" stroke-width="2" d="M43.4746,-66.1514C61.3493,-73.2428 89.3279,-84.3427 107.129,-91.4049"/>
</g>
<!-- 1 -->
<g id="node2" class="node"><title>1</title>
<ellipse fill="cadetblue" stroke="black" cx="18" cy="-121.894" rx="18" ry="18"/>
</g>
<!-- 1&#45;&#45;5 -->
<g id="edge4" class="edge"><title>1&#45;&#45;5</title>
<path fill="none" stroke="black" stroke-width="2" d="M29.1351,-136.282C37.4497,-147.026 48.7623,-161.643 57.0694,-172.377"/>
</g>
<!-- 1&#45;&#45;7 -->
<g id="edge5" class="edge"><title>1&#45;&#45;7</title>
<path fill="none" stroke="black" stroke-width="2" d="M32.9485,-111.294C50.9216,-98.5491 80.9003,-77.2908 98.8266,-64.579"/>
</g>
<!-- 1&#45;&#45;8 -->
<g id="edge6" class="edge"><title>1&#45;&#45;8</title>
<path fill="none" stroke="black" stroke-width="2" d="M35.9642,-117.851C55.5555,-113.441 86.713,-106.428 106.199,-102.042"/>
</g>
<!-- 2 -->
<g id="node3" class="node"><title>2</title>
<ellipse fill="cadetblue" stroke="black" cx="191.615" cy="-18" rx="18" ry="18"/>
</g>
<!-- 6 -->
<g id="node7" class="node"><title>6</title>
<ellipse fill="cadetblue" stroke="black" cx="210.1" cy="-151.194" rx="18" ry="18"/>
</g>
<!-- 2&#45;&#45;6 -->
<g id="edge7" class="edge"><title>2&#45;&#45;6</title>
<path fill="none" stroke="black" stroke-width="2" d="M194.108,-35.9631C197.636,-61.384 204.049,-107.592 207.587,-133.09"/>
</g>
<!-- 2&#45;&#45;7 -->
<g id="edge8" class="edge"><title>2&#45;&#45;7</title>
<path fill="none" stroke="black" stroke-width="2" d="M175.085,-25.646C161.857,-31.7643 143.398,-40.3029 130.176,-46.4183"/>
</g>
<!-- 2&#45;&#45;8 -->
<g id="edge9" class="edge"><title>2&#45;&#45;8</title>
<path fill="none" stroke="black" stroke-width="2" d="M179.819,-31.945C167.39,-46.639 147.936,-69.639 135.558,-84.2725"/>
</g>
<!-- 3 -->
<g id="node4" class="node"><title>3</title>
<ellipse fill="cadetblue" stroke="black" cx="152.013" cy="-194.31" rx="18" ry="18"/>
</g>
<!-- 3&#45;&#45;6 -->
<g id="edge10" class="edge"><title>3&#45;&#45;6</title>
<path fill="none" stroke="black" stroke-width="2" d="M166.671,-183.43C175.409,-176.944 186.472,-168.732 195.245,-162.22"/>
</g>
<!-- 3&#45;&#45;7 -->
<g id="edge11" class="edge"><title>3&#45;&#45;7</title>
<path fill="none" stroke="black" stroke-width="2" d="M152.669,-175.988C152.962,-156.458 152.266,-124.751 146.218,-98.1764 144.533,-90.7733 143.836,-88.7673 139.764,-82.3592 136.18,-76.718 131.414,-71.1649 126.937,-66.4918"/>
</g>
<!-- 3&#45;&#45;8 -->
<g id="edge12" class="edge"><title>3&#45;&#45;8</title>
<path fill="none" stroke="black" stroke-width="2" d="M146.856,-176.656C141.783,-159.289 134.083,-132.928 129.022,-115.6"/>
</g>
<!-- 4 -->
<g id="node5" class="node"><title>4</title>
<ellipse fill="cadetblue" stroke="black" cx="229.575" cy="-70.5092" rx="18" ry="18"/>
</g>
<!-- 4&#45;&#45;6 -->
<g id="edge13" class="edge"><title>4&#45;&#45;6</title>
<path fill="none" stroke="black" stroke-width="2" d="M225.349,-88.0165C222.105,-101.457 217.644,-119.94 214.385,-133.442"/>
</g>
<!-- 4&#45;&#45;7 -->
<g id="edge14" class="edge"><title>4&#45;&#45;7</title>
<path fill="none" stroke="black" stroke-width="2" d="M211.719,-67.974C190.002,-64.8907 153.55,-59.7153 131.738,-56.6185"/>
</g>
<!-- 4&#45;&#45;8 -->
<g id="edge15" class="edge"><title>4&#45;&#45;8</title>
<path fill="none" stroke="black" stroke-width="2" d="M212.125,-75.0583C192.544,-80.1625 160.965,-88.3948 141.374,-93.5019"/>
</g>
<!-- 5&#45;&#45;6 -->
<g id="edge16" class="edge"><title>5&#45;&#45;6</title>
<path fill="none" stroke="black" stroke-width="2" d="M85.8615,-182.297C113.207,-175.451 165.425,-162.378 192.635,-155.566"/>
</g>
</g>
</svg>

