<?xml version="1.0" encoding="UTF-8" standalone="no"?>
<!DOCTYPE svg PUBLIC "-//W3C//DTD SVG 1.1//EN"
 "http://www.w3.org/Graphics/SVG/1.1/DTD/svg11.dtd">
<!-- Generated by graphviz version 2.36.0 (20140111.2315)
 -->
<!-- Title: G Pages: 1 -->
<svg width="100%" height="100%"
 viewBox="0.00 0.00 204.15 200.24" xmlns="http://www.w3.org/2000/svg" xmlns:xlink="http://www.w3.org/1999/xlink">
<g id="graph0" class="graph" transform="scale(1 1) rotate(0) translate(4 196.244)">
<title>G</title>
<!-- 0 -->
<g id="node1" class="node"><title>0</title>
<ellipse fill="cadetblue" stroke="black" cx="35.7569" cy="-98.1374" rx="18" ry="18"/>
</g>
<!-- 3 -->
<g id="node4" class="node"><title>3</title>
<ellipse fill="cadetblue" stroke="black" cx="18" cy="-143.402" rx="18" ry="18"/>
</g>
<!-- 0&#45;&#45;3 -->
<g id="edge1" class="edge"><title>0&#45;&#45;3</title>
<path fill="none" stroke="black" stroke-width="2" d="M29.1449,-114.992C27.6855,-118.712 26.1386,-122.656 24.6768,-126.382"/>
</g>
<!-- 5 -->
<g id="node6" class="node"><title>5</title>
<ellipse fill="cadetblue" stroke="black" cx="116.006" cy="-105.637" rx="18" ry="18"/>
</g>
<!-- 0&#45;&#45;5 -->
<g id="edge2" class="edge"><title>0&#45;&#45;5</title>
<path fill="none" stroke="black" stroke-width="2" d="M53.9667,-99.8392C67.0999,-101.067 84.7517,-102.716 97.8684,-103.942"/>
</g>
<!-- 6 -->
<g id="node7" class="node"><title>6</title>
<ellipse fill="cadetblue" stroke="black" cx="85.9392" cy="-174.244" rx="18" ry="18"/>
</g>
<!-- 0&#45;&#45;6 -->
<g id="edge3" class="edge"><title>0&#45;&#45;6</title>
<path fill="none" stroke="black" stroke-width="2" d="M45.6713,-113.174C54.4118,-126.43 67.0881,-145.655 75.8736,-158.979"/>
</g>
<!-- 7 -->
<g id="node8" class="node"><title>7</title>
<ellipse fill="cadetblue" stroke="black" cx="78.1607" cy="-54.133" rx="18" ry="18"/>
</g>
<!-- 0&#45;&#45;7 -->
<g id="edge4" class="edge"><title>0&#45;&#45;7</title>
<path fill="none" stroke="black" stroke-width="2" d="M48.2501,-85.1726C53.7224,-79.4938 60.1315,-72.8427 65.6103,-67.1571"/>
</g>
<!-- 1 -->
<g id="node2" class="node"><title>1</title>
<ellipse fill="cadetblue" stroke="black" cx="169.696" cy="-158.786" rx="18" ry="18"/>
</g>
<!-- 4 -->
<g id="node5" class="node"><title>4</title>
<ellipse fill="cadetblue" stroke="black" cx="178.152" cy="-72.8167" rx="18" ry="18"/>
</g>
<!-- 1&#45;&#45;4 -->
<g id="edge5" class="edge"><title>1&#45;&#45;4</title>
<path fill="none" stroke="black" stroke-width="2" d="M171.49,-140.554C172.925,-125.965 174.927,-105.605 176.362,-91.0223"/>
</g>
<!-- 1&#45;&#45;5 -->
<g id="edge6" class="edge"><title>1&#45;&#45;5</title>
<path fill="none" stroke="black" stroke-width="2" d="M156.699,-145.92C148.258,-137.564 137.301,-126.717 128.883,-118.385"/>
</g>
<!-- 1&#45;&#45;6 -->
<g id="edge7" class="edge"><title>1&#45;&#45;6</title>
<path fill="none" stroke="black" stroke-width="2" d="M151.934,-162.064C137.72,-164.688 117.883,-168.349 103.676,-170.971"/>
</g>
<!-- 2 -->
<g id="node3" class="node"><title>2</title>
<ellipse fill="cadetblue" stroke="black" cx="136.721" cy="-18" rx="18" ry="18"/>
</g>
<!-- 2&#45;&#45;4 -->
<g id="edge8" class="edge"><title>2&#45;&#45;4</title>
<path fill="none" stroke="black" stroke-width="2" d="M147.607,-32.4024C153.649,-40.3962 161.143,-50.3114 167.196,-58.3201"/>
</g>
<!-- 2&#45;&#45;5 -->
<g id="edge9" class="edge"><title>2&#45;&#45;5</title>
<path fill="none" stroke="black" stroke-width="2" d="M132.529,-35.7347C128.935,-50.9393 123.784,-72.7318 120.192,-87.9288"/>
</g>
<!-- 2&#45;&#45;7 -->
<g id="edge10" class="edge"><title>2&#45;&#45;7</title>
<path fill="none" stroke="black" stroke-width="2" d="M121.335,-27.4935C112.796,-32.7627 102.203,-39.2984 93.6474,-44.5774"/>
</g>
<!-- 3&#45;&#45;6 -->
<g id="edge11" class="edge"><title>3&#45;&#45;6</title>
<path fill="none" stroke="black" stroke-width="2" d="M34.4462,-150.868C44.9708,-155.646 58.5859,-161.827 69.1725,-166.633"/>
</g>
<!-- 3&#45;&#45;7 -->
<g id="edge12" class="edge"><title>3&#45;&#45;7</title>
<path fill="none" stroke="black" stroke-width="2" d="M32.669,-132.828C39.0686,-127.672 46.2894,-121.05 51.5251,-113.934 61.0902,-100.935 68.2392,-83.9576 72.7095,-71.4144"/>
</g>
<!-- 4&#45;&#45;7 -->
<g id="edge13" class="edge"><title>4&#45;&#45;7</title>
<path fill="none" stroke="black" stroke-width="2" d="M160.276,-69.4764C142.075,-66.0756 114.027,-60.8347 95.8824,-57.4443"/>
</g>
<!-- 5&#45;&#45;6 -->
<g id="edge14" class="edge"><title>5&#45;&#45;6</title>
<path fill="none" stroke="black" stroke-width="2" d="M108.728,-122.245C104.07,-132.873 98.0445,-146.622 93.3594,-157.313"/>
</g>
<!-- 5&#45;&#45;7 -->
<g id="edge15" class="edge"><title>5&#45;&#45;7</title>
<path fill="none" stroke="black" stroke-width="2" d="M105.262,-91.0159C100.192,-84.1162 94.1525,-75.8965 89.0627,-68.9696"/>
</g>
</g>
</svg>

