<?xml version="1.0" encoding="UTF-8" standalone="no"?>
<!DOCTYPE svg PUBLIC "-//W3C//DTD SVG 1.1//EN"
 "http://www.w3.org/Graphics/SVG/1.1/DTD/svg11.dtd">
<!-- Generated by graphviz version 2.36.0 (20140111.2315)
 -->
<!-- Title: G Pages: 1 -->
<svg width="100%" height="100%"
 viewBox="0.00 0.00 173.39 252.93" xmlns="http://www.w3.org/2000/svg" xmlns:xlink="http://www.w3.org/1999/xlink">
<g id="graph0" class="graph" transform="scale(1 1) rotate(0) translate(4 248.932)">
<title>G</title>
<!-- 0 -->
<g id="node1" class="node"><title>0</title>
<ellipse fill="cadetblue" stroke="black" cx="103.385" cy="-121.32" rx="18" ry="18"/>
</g>
<!-- 3 -->
<g id="node4" class="node"><title>3</title>
<ellipse fill="cadetblue" stroke="black" cx="76.1507" cy="-226.932" rx="18" ry="18"/>
</g>
<!-- 0&#45;&#45;3 -->
<g id="edge1" class="edge"><title>0&#45;&#45;3</title>
<path fill="none" stroke="black" stroke-width="2" d="M98.8881,-138.759C93.842,-158.328 85.7035,-189.888 80.6546,-209.466"/>
</g>
<!-- 4 -->
<g id="node5" class="node"><title>4</title>
<ellipse fill="cadetblue" stroke="black" cx="143.57" cy="-26.5524" rx="18" ry="18"/>
</g>
<!-- 0&#45;&#45;4 -->
<g id="edge2" class="edge"><title>0&#45;&#45;4</title>
<path fill="none" stroke="black" stroke-width="2" d="M110.57,-104.377C117.884,-87.1278 129.156,-60.5446 136.448,-43.3482"/>
</g>
<!-- 6 -->
<g id="node7" class="node"><title>6</title>
<ellipse fill="cadetblue" stroke="black" cx="147.24" cy="-181.322" rx="18" ry="18"/>
</g>
<!-- 0&#45;&#45;6 -->
<g id="edge3" class="edge"><title>0&#45;&#45;6</title>
<path fill="none" stroke="black" stroke-width="2" d="M114.226,-136.152C121.023,-145.453 129.75,-157.393 136.524,-166.661"/>
</g>
<!-- 7 -->
<g id="node8" class="node"><title>7</title>
<ellipse fill="cadetblue" stroke="black" cx="75.249" cy="-18" rx="18" ry="18"/>
</g>
<!-- 0&#45;&#45;7 -->
<g id="edge4" class="edge"><title>0&#45;&#45;7</title>
<path fill="none" stroke="black" stroke-width="2" d="M98.6124,-103.793C93.4385,-84.7937 85.2284,-54.6455 80.0453,-35.6128"/>
</g>
<!-- 1 -->
<g id="node2" class="node"><title>1</title>
<ellipse fill="cadetblue" stroke="black" cx="147.39" cy="-98.5307" rx="18" ry="18"/>
</g>
<!-- 1&#45;&#45;4 -->
<g id="edge5" class="edge"><title>1&#45;&#45;4</title>
<path fill="none" stroke="black" stroke-width="2" d="M146.426,-80.3675C145.851,-69.5394 145.124,-55.8311 144.547,-44.9601"/>
</g>
<!-- 5 -->
<g id="node6" class="node"><title>5</title>
<ellipse fill="cadetblue" stroke="black" cx="18" cy="-161.383" rx="18" ry="18"/>
</g>
<!-- 1&#45;&#45;5 -->
<g id="edge6" class="edge"><title>1&#45;&#45;5</title>
<path fill="none" stroke="black" stroke-width="2" d="M129.251,-97.1863C121.253,-96.9868 111.786,-97.2903 103.406,-98.9998 72.6409,-105.275 44.8694,-131.002 29.8191,-147.393"/>
</g>
<!-- 1&#45;&#45;6 -->
<g id="edge7" class="edge"><title>1&#45;&#45;6</title>
<path fill="none" stroke="black" stroke-width="2" d="M147.356,-116.905C147.331,-130.72 147.297,-149.551 147.272,-163.284"/>
</g>
<!-- 1&#45;&#45;7 -->
<g id="edge8" class="edge"><title>1&#45;&#45;7</title>
<path fill="none" stroke="black" stroke-width="2" d="M135.152,-84.8697C121.806,-69.9714 100.581,-46.2775 87.3059,-31.4592"/>
</g>
<!-- 2 -->
<g id="node3" class="node"><title>2</title>
<ellipse fill="cadetblue" stroke="black" cx="46.1568" cy="-85.1213" rx="18" ry="18"/>
</g>
<!-- 2&#45;&#45;4 -->
<g id="edge9" class="edge"><title>2&#45;&#45;4</title>
<path fill="none" stroke="black" stroke-width="2" d="M61.808,-75.7112C79.9863,-64.7816 109.796,-46.8588 127.958,-35.9392"/>
</g>
<!-- 2&#45;&#45;5 -->
<g id="edge10" class="edge"><title>2&#45;&#45;5</title>
<path fill="none" stroke="black" stroke-width="2" d="M39.9079,-102.046C35.2742,-114.596 28.9814,-131.64 24.3288,-144.242"/>
</g>
<!-- 2&#45;&#45;6 -->
<g id="edge11" class="edge"><title>2&#45;&#45;6</title>
<path fill="none" stroke="black" stroke-width="2" d="M56.4755,-100.088C64.3433,-110.963 75.8017,-125.707 87.5884,-137.088 101.408,-150.432 119.348,-163.228 131.931,-171.593"/>
</g>
<!-- 2&#45;&#45;7 -->
<g id="edge12" class="edge"><title>2&#45;&#45;7</title>
<path fill="none" stroke="black" stroke-width="2" d="M53.3481,-68.5295C57.7903,-58.2807 63.4742,-45.1667 67.9383,-34.8671"/>
</g>
<!-- 3&#45;&#45;5 -->
<g id="edge13" class="edge"><title>3&#45;&#45;5</title>
<path fill="none" stroke="black" stroke-width="2" d="M64.1018,-213.35C54.1217,-202.1 40.0093,-186.193 30.0334,-174.948"/>
</g>
<!-- 3&#45;&#45;6 -->
<g id="edge14" class="edge"><title>3&#45;&#45;6</title>
<path fill="none" stroke="black" stroke-width="2" d="M91.5759,-217.035C103.5,-209.385 119.928,-198.845 131.844,-191.2"/>
</g>
<!-- 4&#45;&#45;7 -->
<g id="edge15" class="edge"><title>4&#45;&#45;7</title>
<path fill="none" stroke="black" stroke-width="2" d="M125.62,-24.3054C115.657,-23.0582 103.299,-21.5112 93.3169,-20.2617"/>
</g>
</g>
</svg>

