<?xml version="1.0" encoding="UTF-8" standalone="no"?>
<!DOCTYPE svg PUBLIC "-//W3C//DTD SVG 1.1//EN"
 "http://www.w3.org/Graphics/SVG/1.1/DTD/svg11.dtd">
<!-- Generated by graphviz version 2.36.0 (20140111.2315)
 -->
<!-- Title: G Pages: 1 -->
<svg width="100%" height="100%"
 viewBox="0.00 0.00 134.46 177.04" xmlns="http://www.w3.org/2000/svg" xmlns:xlink="http://www.w3.org/1999/xlink">
<g id="graph0" class="graph" transform="scale(1 1) rotate(0) translate(4 173.038)">
<title>G</title>
<!-- 0 -->
<g id="node1" class="node"><title>0</title>
<ellipse fill="cadetblue" stroke="black" cx="47.4871" cy="-30.6333" rx="18" ry="18"/>
</g>
<!-- 2 -->
<g id="node3" class="node"><title>2</title>
<ellipse fill="cadetblue" stroke="black" cx="102.212" cy="-18" rx="18" ry="18"/>
</g>
<!-- 0&#45;&#45;2 -->
<g id="edge1" class="edge"><title>0&#45;&#45;2</title>
<path fill="none" stroke="black" stroke-width="2" d="M65.1036,-26.5665C71.3527,-25.1239 78.382,-23.5011 84.6284,-22.0592"/>
</g>
<!-- 3 -->
<g id="node4" class="node"><title>3</title>
<ellipse fill="cadetblue" stroke="black" cx="75.8449" cy="-138.739" rx="18" ry="18"/>
</g>
<!-- 0&#45;&#45;3 -->
<g id="edge2" class="edge"><title>0&#45;&#45;3</title>
<path fill="none" stroke="black" stroke-width="2" d="M43.5005,-48.6025C41.7932,-58.7231 40.5212,-71.5818 42.1324,-82.9789 44.4125,-99.1084 54.7944,-114.735 63.442,-125.321"/>
</g>
<!-- 4 -->
<g id="node5" class="node"><title>4</title>
<ellipse fill="brown" stroke="black" cx="108.456" cy="-91.7258" rx="18" ry="18"/>
</g>
<!-- 0&#45;&#45;4 -->
<g id="edge3" class="edge"><title>0&#45;&#45;4</title>
<path fill="none" stroke="black" stroke-width="2" d="M60.4169,-43.5894C70.7635,-53.957 85.2028,-68.4256 95.5444,-78.7883"/>
</g>
<!-- 5 -->
<g id="node6" class="node"><title>5</title>
<ellipse fill="dodgerblue" stroke="black" cx="18" cy="-79.4004" rx="18" ry="18"/>
</g>
<!-- 0&#45;&#45;5 -->
<g id="edge4" class="edge"><title>0&#45;&#45;5</title>
<path fill="none" stroke="black" stroke-width="2" d="M38.1572,-46.0635C34.7152,-51.756 30.816,-58.2047 27.3704,-63.9031"/>
</g>
<!-- 6 -->
<g id="node7" class="node"><title>6</title>
<ellipse fill="turquoise" stroke="black" cx="64.4513" cy="-83.1995" rx="18" ry="18"/>
</g>
<!-- 0&#45;&#45;6 -->
<g id="edge5" class="edge"><title>0&#45;&#45;6</title>
<path fill="none" stroke="black" stroke-width="2" d="M53.0418,-47.8454C54.8971,-53.5944 56.9654,-60.0033 58.826,-65.7687"/>
</g>
<!-- 1 -->
<g id="node2" class="node"><title>1</title>
<ellipse fill="cadetblue" stroke="black" cx="23.2899" cy="-151.038" rx="18" ry="18"/>
</g>
<!-- 1&#45;&#45;3 -->
<g id="edge6" class="edge"><title>1&#45;&#45;3</title>
<path fill="none" stroke="black" stroke-width="2" d="M41.0826,-146.874C46.5619,-145.592 52.5925,-144.181 58.0705,-142.899"/>
</g>
<!-- 1&#45;&#45;4 -->
<g id="edge7" class="edge"><title>1&#45;&#45;4</title>
<path fill="none" stroke="black" stroke-width="2" d="M37.4351,-139.811C44.2052,-134.547 52.4831,-128.266 60.1199,-122.899 70.9038,-115.32 83.4178,-107.269 93.0106,-101.248"/>
</g>
<!-- 1&#45;&#45;5 -->
<g id="edge8" class="edge"><title>1&#45;&#45;5</title>
<path fill="none" stroke="black" stroke-width="2" d="M21.9551,-132.961C21.1593,-122.184 20.1518,-108.54 19.3528,-97.7209"/>
</g>
<!-- 1&#45;&#45;6 -->
<g id="edge9" class="edge"><title>1&#45;&#45;6</title>
<path fill="none" stroke="black" stroke-width="2" d="M32.6301,-135.644C39.2715,-124.698 48.1657,-110.04 54.8625,-99.0029"/>
</g>
<!-- 2&#45;&#45;4 -->
<g id="edge10" class="edge"><title>2&#45;&#45;4</title>
<path fill="none" stroke="black" stroke-width="2" d="M103.755,-36.2243C104.723,-47.6522 105.966,-62.3232 106.93,-73.711"/>
</g>
<!-- 2&#45;&#45;5 -->
<g id="edge11" class="edge"><title>2&#45;&#45;5</title>
<path fill="none" stroke="black" stroke-width="2" d="M87.4029,-28.8168C80.1207,-34.1343 71.2124,-40.6371 63.2216,-46.4638 53.0195,-53.903 41.5174,-62.2802 32.6665,-68.7244"/>
</g>
<!-- 2&#45;&#45;6 -->
<g id="edge12" class="edge"><title>2&#45;&#45;6</title>
<path fill="none" stroke="black" stroke-width="2" d="M93.0711,-33.783C87.1342,-44.034 79.428,-57.34 73.5079,-67.5619"/>
</g>
<!-- 3&#45;&#45;4 -->
<g id="edge13" class="edge"><title>3&#45;&#45;4</title>
<path fill="none" stroke="black" stroke-width="2" d="M86.1631,-123.864C89.9698,-118.376 94.282,-112.159 98.0926,-106.666"/>
</g>
<!-- 3&#45;&#45;5 -->
<g id="edge14" class="edge"><title>3&#45;&#45;5</title>
<path fill="none" stroke="black" stroke-width="2" d="M63.0072,-125.57C53.4213,-115.736 40.379,-102.357 30.8018,-92.5327"/>
</g>
<!-- 3&#45;&#45;6 -->
<g id="edge15" class="edge"><title>3&#45;&#45;6</title>
<path fill="none" stroke="black" stroke-width="2" d="M72.1772,-120.86C70.8761,-114.518 69.4126,-107.384 68.1121,-101.045"/>
</g>
<!-- 4&#45;&#45;5 -->
<g id="edge16" class="edge"><title>4&#45;&#45;5</title>
<path fill="none" stroke="black" stroke-width="2" d="M92.0201,-99.8432C83.8458,-103.101 73.7091,-105.994 64.2306,-105.518 52.0776,-104.909 40.1661,-97.9837 31.4781,-91.4182"/>
</g>
<!-- 4&#45;&#45;6 -->
<g id="edge17" class="edge"><title>4&#45;&#45;6</title>
<path fill="none" stroke="black" stroke-width="2" d="M90.5574,-88.2578C87.7972,-87.723 84.9477,-87.1709 82.191,-86.6368"/>
</g>
<!-- 5&#45;&#45;6 -->
<g id="edge18" class="edge"><title>5&#45;&#45;6</title>
<path fill="none" stroke="black" stroke-width="2" d="M36.0923,-80.8801C39.4549,-81.1551 42.9686,-81.4425 46.332,-81.7176"/>
</g>
</g>
</svg>

