<?xml version="1.0" encoding="UTF-8" standalone="no"?>
<!DOCTYPE svg PUBLIC "-//W3C//DTD SVG 1.1//EN"
 "http://www.w3.org/Graphics/SVG/1.1/DTD/svg11.dtd">
<!-- Generated by graphviz version 2.38.0 (20140413.2041)
 -->
<!-- Title: G Pages: 1 -->
<svg width="100%" height="100%"
 viewBox="0.00 0.00 639.95 577.64" xmlns="http://www.w3.org/2000/svg" xmlns:xlink="http://www.w3.org/1999/xlink">
<g id="graph0" class="graph" transform="scale(1 1) rotate(0) translate(320.041 288.549)">
<title>G</title>
<!-- 0 -->
<g id="node1" class="node"><title>0</title>
<ellipse fill="cadetblue" stroke="black" cx="-107.757" cy="160.235" rx="33" ry="33"/>
</g>
<!-- 1 -->
<g id="node2" class="node"><title>1</title>
<ellipse fill="cadetblue" stroke="black" cx="-283.041" cy="-3.61194" rx="33" ry="33"/>
</g>
<!-- 0&#45;&#45;1 -->
<g id="edge1" class="edge"><title>0&#45;&#45;1</title>
<path fill="none" stroke="black" stroke-width="6" d="M-132.129,137.453C-165.618,106.149 -225.496,50.1781 -258.875,18.9768"/>
</g>
<!-- 2 -->
<g id="node3" class="node"><title>2</title>
<ellipse fill="cadetblue" stroke="black" cx="151.125" cy="252.095" rx="33" ry="33"/>
</g>
<!-- 0&#45;&#45;2 -->
<g id="edge2" class="edge"><title>0&#45;&#45;2</title>
<path fill="none" stroke="black" stroke-width="6" d="M-76.5296,171.315C-26.7713,188.971 69.9594,223.295 119.787,240.976"/>
</g>
<!-- 3 -->
<g id="node4" class="node"><title>3</title>
<ellipse fill="cadetblue" stroke="black" cx="108.686" cy="-156.416" rx="33" ry="33"/>
</g>
<!-- 0&#45;&#45;3 -->
<g id="edge3" class="edge"><title>0&#45;&#45;3</title>
<path fill="none" stroke="black" stroke-width="6" d="M-89.1157,132.963C-48.2016,73.1071 49.0699,-69.1986 90.0132,-129.098"/>
</g>
<!-- 4 -->
<g id="node5" class="node"><title>4</title>
<ellipse fill="cadetblue" stroke="black" cx="-33.7494" cy="113.344" rx="33" ry="33"/>
</g>
<!-- 1&#45;&#45;4 -->
<g id="edge4" class="edge"><title>1&#45;&#45;4</title>
<path fill="none" stroke="black" stroke-width="6" d="M-252.971,10.4957C-205.056,32.9752 -111.908,76.6756 -63.9264,99.1865"/>
</g>
<!-- 5 -->
<g id="node6" class="node"><title>5</title>
<ellipse fill="cadetblue" stroke="black" cx="-151.939" cy="-251.549" rx="33" ry="33"/>
</g>
<!-- 1&#45;&#45;5 -->
<g id="edge5" class="edge"><title>1&#45;&#45;5</title>
<path fill="none" stroke="black" stroke-width="6" d="M-267.487,-33.0272C-242.255,-80.7447 -192.691,-174.479 -167.473,-222.172"/>
</g>
<!-- 2&#45;&#45;4 -->
<g id="edge6" class="edge"><title>2&#45;&#45;4</title>
<path fill="none" stroke="black" stroke-width="6" d="M124.637,232.216C89.4926,205.839 27.8094,159.545 -7.31052,133.187"/>
</g>
<!-- 6 -->
<g id="node7" class="node"><title>6</title>
<ellipse fill="cadetblue" stroke="black" cx="282.907" cy="4.58716" rx="33" ry="33"/>
</g>
<!-- 2&#45;&#45;6 -->
<g id="edge7" class="edge"><title>2&#45;&#45;6</title>
<path fill="none" stroke="black" stroke-width="6" d="M166.76,222.731C192.122,175.096 241.943,81.5239 267.293,33.9133"/>
</g>
<!-- 3&#45;&#45;5 -->
<g id="edge8" class="edge"><title>3&#45;&#45;5</title>
<path fill="none" stroke="black" stroke-width="6" d="M77.5077,-167.797C27.3804,-186.094 -70.5744,-221.849 -120.724,-240.155"/>
</g>
<!-- 3&#45;&#45;6 -->
<g id="edge9" class="edge"><title>3&#45;&#45;6</title>
<path fill="none" stroke="black" stroke-width="6" d="M133.278,-133.69C166.483,-103.005 225.301,-48.649 258.44,-18.0236"/>
</g>
<!-- 7 -->
<g id="node8" class="node"><title>7</title>
<ellipse fill="cadetblue" stroke="black" cx="33.7661" cy="-118.684" rx="33" ry="33"/>
</g>
<!-- 4&#45;&#45;7 -->
<g id="edge10" class="edge"><title>4&#45;&#45;7</title>
<path fill="none" stroke="black" stroke-width="6" d="M-24.5032,81.5681C-11.6102,37.2591 11.6324,-42.6182 24.5235,-86.9206"/>
</g>
<!-- 5&#45;&#45;7 -->
<g id="edge11" class="edge"><title>5&#45;&#45;7</title>
<path fill="none" stroke="black" stroke-width="6" d="M-124.936,-232.229C-89.7274,-207.039 -28.494,-163.229 6.73041,-138.027"/>
</g>
<!-- 6&#45;&#45;7 -->
<g id="edge12" class="edge"><title>6&#45;&#45;7</title>
<path fill="none" stroke="black" stroke-width="6" d="M252.855,-10.2823C204.839,-34.0397 111.374,-80.2849 63.5371,-103.954"/>
</g>
</g>
</svg>

