<?xml version="1.0" encoding="UTF-8" standalone="no"?>
<!DOCTYPE svg PUBLIC "-//W3C//DTD SVG 1.1//EN"
 "http://www.w3.org/Graphics/SVG/1.1/DTD/svg11.dtd">
<!-- Generated by graphviz version 2.38.0 (20140413.2041)
 -->
<!-- Title: G Pages: 1 -->
<svg width="100%" height="100%"
 viewBox="0.00 0.00 252.99 241.28" xmlns="http://www.w3.org/2000/svg" xmlns:xlink="http://www.w3.org/1999/xlink">
<g id="graph0" class="graph" transform="scale(1 1) rotate(0) translate(109.854 120.872)">
<title>G</title>
<!-- 0 -->
<g id="node1" class="node"><title>0</title>
<ellipse fill="cadetblue" stroke="black" cx="-72.3209" cy="37.9216" rx="33" ry="33"/>
</g>
<!-- 1 -->
<g id="node2" class="node"><title>1</title>
<ellipse fill="cadetblue" stroke="black" cx="19.3279" cy="0.512942" rx="33" ry="33"/>
</g>
<!-- 0&#45;&#45;1 -->
<g id="edge1" class="edge"><title>0&#45;&#45;1</title>
<path fill="none" stroke="black" stroke-width="6" d="M-41.5482,25.361C-31.8759,21.413 -21.1971,17.0542 -11.5195,13.1041"/>
</g>
<!-- 2 -->
<g id="node3" class="node"><title>2</title>
<ellipse fill="cadetblue" stroke="black" cx="11.0338" cy="83.4038" rx="33" ry="33"/>
</g>
<!-- 0&#45;&#45;2 -->
<g id="edge2" class="edge"><title>0&#45;&#45;2</title>
<path fill="none" stroke="black" stroke-width="6" d="M-43.1675,53.8291C-34.9986,58.2864 -26.1221,63.1298 -17.9624,67.5821"/>
</g>
<!-- 3 -->
<g id="node4" class="node"><title>3</title>
<ellipse fill="cadetblue" stroke="black" cx="8.6787" cy="-83.8725" rx="33" ry="33"/>
</g>
<!-- 0&#45;&#45;3 -->
<g id="edge3" class="edge"><title>0&#45;&#45;3</title>
<path fill="none" stroke="black" stroke-width="6" d="M-53.9408,10.2846C-40.6847,-9.64772 -22.868,-36.4377 -9.62862,-56.3449"/>
</g>
<!-- 4 -->
<g id="node5" class="node"><title>4</title>
<ellipse fill="cadetblue" stroke="black" cx="106.134" cy="-1.88004" rx="33" ry="33"/>
</g>
<!-- 1&#45;&#45;4 -->
<g id="edge4" class="edge"><title>1&#45;&#45;4</title>
<path fill="none" stroke="black" stroke-width="6" d="M52.6412,-0.405405C59.3349,-0.589931 66.3676,-0.783799 73.0534,-0.968106"/>
</g>
<!-- 5 -->
<g id="node6" class="node"><title>5</title>
<ellipse fill="cadetblue" stroke="black" cx="-72.8537" cy="-36.0858" rx="33" ry="33"/>
</g>
<!-- 1&#45;&#45;5 -->
<g id="edge5" class="edge"><title>1&#45;&#45;5</title>
<path fill="none" stroke="black" stroke-width="6" d="M-11.3672,-11.6739C-21.2136,-15.5832 -32.1191,-19.913 -41.9783,-23.8274"/>
</g>
<!-- 2&#45;&#45;4 -->
<g id="edge6" class="edge"><title>2&#45;&#45;4</title>
<path fill="none" stroke="black" stroke-width="6" d="M36.0203,60.9965C49.9985,48.4611 67.3634,32.8887 81.3146,20.3776"/>
</g>
<!-- 2&#45;&#45;5 -->
<g id="edge7" class="edge"><title>2&#45;&#45;5</title>
<path fill="none" stroke="black" stroke-width="6" d="M-8.0016,56.2898C-21.6336,36.8723 -39.9227,10.8213 -53.6033,-8.66546"/>
</g>
<!-- 3&#45;&#45;4 -->
<g id="edge8" class="edge"><title>3&#45;&#45;4</title>
<path fill="none" stroke="black" stroke-width="6" d="M34.0296,-62.544C48.3546,-50.4919 66.2121,-35.4678 80.5717,-23.3866"/>
</g>
<!-- 3&#45;&#45;5 -->
<g id="edge9" class="edge"><title>3&#45;&#45;5</title>
<path fill="none" stroke="black" stroke-width="6" d="M-19.8374,-67.159C-27.7358,-62.5297 -36.3106,-57.504 -44.2159,-52.8706"/>
</g>
</g>
</svg>

