<?xml version="1.0" encoding="UTF-8" standalone="no"?>
<!DOCTYPE svg PUBLIC "-//W3C//DTD SVG 1.1//EN"
 "http://www.w3.org/Graphics/SVG/1.1/DTD/svg11.dtd">
<!-- Generated by graphviz version 2.36.0 (20140111.2315)
 -->
<!-- Title: G Pages: 1 -->
<svg width="100%" height="100%"
 viewBox="0.00 0.00 363.28 316.48" xmlns="http://www.w3.org/2000/svg" xmlns:xlink="http://www.w3.org/1999/xlink">
<g id="graph0" class="graph" transform="scale(1 1) rotate(0) translate(4 312.48)">
<title>G</title>
<!-- 0 -->
<g id="node1" class="node"><title>0</title>
<ellipse fill="cadetblue" stroke="black" cx="273.24" cy="-27.1089" rx="21.4286" ry="21.4286"/>
<text text-anchor="middle" x="273.24" y="-22.1089" font-family="Times New Roman,serif" font-size="20.00">2</text>
</g>
<!-- 6 -->
<g id="node7" class="node"><title>6</title>
<ellipse fill="cadetblue" stroke="black" cx="137.628" cy="-123.28" rx="21.4286" ry="21.4286"/>
<text text-anchor="middle" x="137.628" y="-118.28" font-family="Times New Roman,serif" font-size="20.00">2</text>
</g>
<!-- 0&#45;&gt;6 -->
<g id="edge3" class="edge"><title>0&#45;&gt;6</title>
<path fill="none" stroke="black" stroke-width="2" d="M255.788,-39.4847C232.292,-56.1475 190.315,-85.9162 163.238,-105.118"/>
<polygon fill="black" stroke="black" stroke-width="2" points="161.145,-102.312 155.012,-110.952 165.194,-108.022 161.145,-102.312"/>
</g>
<!-- 7 -->
<g id="node8" class="node"><title>7</title>
<ellipse fill="cadetblue" stroke="black" cx="179.188" cy="-33.452" rx="21.4286" ry="21.4286"/>
<text text-anchor="middle" x="179.188" y="-28.452" font-family="Times New Roman,serif" font-size="20.00">2</text>
</g>
<!-- 0&#45;&gt;7 -->
<g id="edge4" class="edge"><title>0&#45;&gt;7</title>
<path fill="none" stroke="black" stroke-width="2" d="M251.898,-28.5483C239.753,-29.3674 224.31,-30.4089 210.783,-31.3212"/>
<polygon fill="black" stroke="black" stroke-width="2" points="210.187,-27.8533 200.446,-32.0184 210.658,-34.8375 210.187,-27.8533"/>
</g>
<!-- 1 -->
<g id="node2" class="node"><title>1</title>
<ellipse fill="cadetblue" stroke="black" cx="177.946" cy="-287.267" rx="21.4286" ry="21.4286"/>
<text text-anchor="middle" x="177.946" y="-282.267" font-family="Times New Roman,serif" font-size="20.00">2</text>
</g>
<!-- 4 -->
<g id="node5" class="node"><title>4</title>
<ellipse fill="cadetblue" stroke="black" cx="334.069" cy="-151.627" rx="21.4286" ry="21.4286"/>
<text text-anchor="middle" x="334.069" y="-146.627" font-family="Times New Roman,serif" font-size="20.00">2</text>
</g>
<!-- 1&#45;&gt;4 -->
<g id="edge5" class="edge"><title>1&#45;&gt;4</title>
<path fill="none" stroke="black" stroke-width="2" d="M194.066,-273.262C221.645,-249.301 278.015,-200.327 310.18,-172.382"/>
<polygon fill="black" stroke="black" stroke-width="2" points="312.55,-174.96 317.803,-165.759 307.959,-169.676 312.55,-174.96"/>
</g>
<!-- 2 -->
<g id="node3" class="node"><title>2</title>
<ellipse fill="cadetblue" stroke="black" cx="21.2132" cy="-21.2132" rx="21.4286" ry="21.4286"/>
<text text-anchor="middle" x="21.2132" y="-16.2132" font-family="Times New Roman,serif" font-size="20.00">2</text>
</g>
<!-- 2&#45;&gt;7 -->
<g id="edge10" class="edge"><title>2&#45;&gt;7</title>
<path fill="none" stroke="black" stroke-width="2" d="M42.5184,-22.8638C69.5644,-24.9591 116.449,-28.5915 147.647,-31.0084"/>
<polygon fill="black" stroke="black" stroke-width="2" points="147.728,-34.5251 157.969,-31.8081 148.269,-27.5461 147.728,-34.5251"/>
</g>
<!-- 3 -->
<g id="node4" class="node"><title>3</title>
<ellipse fill="cadetblue" stroke="black" cx="225.539" cy="-209.333" rx="21.4286" ry="21.4286"/>
<text text-anchor="middle" x="225.539" y="-204.333" font-family="Times New Roman,serif" font-size="20.00">2</text>
</g>
<!-- 5 -->
<g id="node6" class="node"><title>5</title>
<ellipse fill="cadetblue" stroke="black" cx="87.1965" cy="-153.338" rx="21.4286" ry="21.4286"/>
<text text-anchor="middle" x="87.1965" y="-148.338" font-family="Times New Roman,serif" font-size="20.00">2</text>
</g>
<!-- 3&#45;&gt;5 -->
<g id="edge11" class="edge"><title>3&#45;&gt;5</title>
<path fill="none" stroke="black" stroke-width="2" d="M205.718,-201.31C182.295,-191.83 143.12,-175.974 116.265,-165.104"/>
<polygon fill="black" stroke="black" stroke-width="2" points="117.563,-161.854 106.981,-161.346 114.937,-168.342 117.563,-161.854"/>
</g>
<!-- 4&#45;&gt;0 -->
<g id="edge1" class="edge"><title>4&#45;&gt;0</title>
<path fill="none" stroke="black" stroke-width="2" d="M324.698,-132.444C314.681,-111.938 298.689,-79.2043 287.191,-55.6676"/>
<polygon fill="black" stroke="black" stroke-width="2" points="290.256,-53.9678 282.722,-46.519 283.966,-57.0405 290.256,-53.9678"/>
</g>
<!-- 5&#45;&gt;0 -->
<g id="edge2" class="edge"><title>5&#45;&gt;0</title>
<path fill="none" stroke="black" stroke-width="2" d="M96.6862,-134.032C102.192,-124.303 109.857,-112.863 119.05,-104.658 156.124,-71.5673 209.873,-48.805 243.133,-36.8764"/>
<polygon fill="black" stroke="black" stroke-width="2" points="244.465,-40.1188 252.756,-33.5229 242.161,-33.5087 244.465,-40.1188"/>
</g>
<!-- 5&#45;&gt;1 -->
<g id="edge6" class="edge"><title>5&#45;&gt;1</title>
<path fill="none" stroke="black" stroke-width="2" d="M99.2473,-171.123C114.842,-194.137 142.139,-234.423 160.131,-260.975"/>
<polygon fill="black" stroke="black" stroke-width="2" points="157.338,-263.093 165.845,-269.408 163.133,-259.167 157.338,-263.093"/>
</g>
<!-- 5&#45;&gt;2 -->
<g id="edge8" class="edge"><title>5&#45;&gt;2</title>
<path fill="none" stroke="black" stroke-width="2" d="M77.6019,-134.126C66.5091,-111.914 48.1456,-75.1428 35.4016,-49.6241"/>
<polygon fill="black" stroke="black" stroke-width="2" points="38.4185,-47.8312 30.8193,-40.4485 32.156,-50.9587 38.4185,-47.8312"/>
</g>
<!-- 6&#45;&gt;1 -->
<g id="edge7" class="edge"><title>6&#45;&gt;1</title>
<path fill="none" stroke="black" stroke-width="2" d="M142.734,-144.049C149.732,-172.512 162.353,-223.844 170.431,-256.7"/>
<polygon fill="black" stroke="black" stroke-width="2" points="167.095,-257.791 172.881,-266.666 173.892,-256.12 167.095,-257.791"/>
</g>
<!-- 6&#45;&gt;2 -->
<g id="edge9" class="edge"><title>6&#45;&gt;2</title>
<path fill="none" stroke="black" stroke-width="2" d="M121.441,-109.088C101.545,-91.6445 67.6252,-61.9049 44.8232,-41.9132"/>
<polygon fill="black" stroke="black" stroke-width="2" points="47.0893,-39.2454 37.2627,-35.2846 42.4746,-44.5089 47.0893,-39.2454"/>
</g>
<!-- 6&#45;&gt;3 -->
<g id="edge12" class="edge"><title>6&#45;&gt;3</title>
<path fill="none" stroke="black" stroke-width="2" d="M152.941,-138.269C166.723,-151.76 187.158,-171.764 202.84,-187.114"/>
<polygon fill="black" stroke="black" stroke-width="2" points="200.512,-189.733 210.106,-194.227 205.408,-184.73 200.512,-189.733"/>
</g>
<!-- 7&#45;&gt;3 -->
<g id="edge13" class="edge"><title>7&#45;&gt;3</title>
<path fill="none" stroke="black" stroke-width="2" d="M184.596,-53.972C192.703,-84.7352 208.06,-143.007 217.488,-178.783"/>
<polygon fill="black" stroke="black" stroke-width="2" points="214.161,-179.894 220.094,-188.672 220.93,-178.11 214.161,-179.894"/>
</g>
<!-- 7&#45;&gt;4 -->
<g id="edge14" class="edge"><title>7&#45;&gt;4</title>
<path fill="none" stroke="black" stroke-width="2" d="M196.058,-46.3238C223.263,-67.0813 276.982,-108.069 308.782,-132.333"/>
<polygon fill="black" stroke="black" stroke-width="2" points="306.674,-135.127 316.748,-138.411 310.921,-129.562 306.674,-135.127"/>
</g>
<!-- 7&#45;&gt;5 -->
<g id="edge15" class="edge"><title>7&#45;&gt;5</title>
<path fill="none" stroke="black" stroke-width="2" d="M164.753,-49.3941C152.191,-63.5306 133.746,-84.9355 119.05,-104.658 113.958,-111.491 108.763,-119.108 104.085,-126.25"/>
<polygon fill="black" stroke="black" stroke-width="2" points="100.955,-124.645 98.4831,-134.948 106.84,-128.436 100.955,-124.645"/>
</g>
<!-- 7&#45;&gt;6 -->
<g id="edge16" class="edge"><title>7&#45;&gt;6</title>
<path fill="none" stroke="black" stroke-width="2" d="M170.17,-52.9433C164.561,-65.0677 157.246,-80.8774 150.973,-94.4363"/>
<polygon fill="black" stroke="black" stroke-width="2" points="147.651,-93.2812 146.628,-103.827 154.004,-96.2206 147.651,-93.2812"/>
</g>
</g>
</svg>

