<?xml version="1.0" encoding="UTF-8" standalone="no"?>
<!DOCTYPE svg PUBLIC "-//W3C//DTD SVG 1.1//EN"
 "http://www.w3.org/Graphics/SVG/1.1/DTD/svg11.dtd">
<!-- Generated by graphviz version 2.36.0 (20140111.2315)
 -->
<!-- Title: G Pages: 1 -->
<svg width="100%" height="100%"
 viewBox="0.00 0.00 254.96 255.14" xmlns="http://www.w3.org/2000/svg" xmlns:xlink="http://www.w3.org/1999/xlink">
<g id="graph0" class="graph" transform="scale(1 1) rotate(0) translate(4 251.139)">
<title>G</title>
<!-- 0 -->
<g id="node1" class="node"><title>0</title>
<ellipse fill="cadetblue" stroke="black" cx="21.2132" cy="-74.0414" rx="21.4286" ry="21.4286"/>
<text text-anchor="middle" x="21.2132" y="-69.0414" font-family="Times New Roman,serif" font-size="20.00">2</text>
</g>
<!-- 7 -->
<g id="node8" class="node"><title>7</title>
<ellipse fill="cadetblue" stroke="black" cx="156.571" cy="-131.868" rx="21.4286" ry="21.4286"/>
<text text-anchor="middle" x="156.571" y="-126.868" font-family="Times New Roman,serif" font-size="20.00">2</text>
</g>
<!-- 0&#45;&gt;7 -->
<g id="edge3" class="edge"><title>0&#45;&gt;7</title>
<path fill="none" stroke="black" stroke-width="2" d="M42.7566,-75.1981C64.9812,-77.3063 99.8231,-83.2455 124.762,-99.959 128.417,-102.409 132.002,-105.322 135.37,-108.378"/>
<polygon fill="black" stroke="black" stroke-width="2" points="133.173,-111.124 142.77,-115.613 138.067,-106.119 133.173,-111.124"/>
</g>
<!-- 1 -->
<g id="node2" class="node"><title>1</title>
<ellipse fill="cadetblue" stroke="black" cx="104.406" cy="-225.926" rx="21.4286" ry="21.4286"/>
<text text-anchor="middle" x="104.406" y="-220.926" font-family="Times New Roman,serif" font-size="20.00">2</text>
</g>
<!-- 1&#45;&gt;7 -->
<g id="edge6" class="edge"><title>1&#45;&gt;7</title>
<path fill="none" stroke="black" stroke-width="2" d="M114.712,-207.343C122.237,-193.776 132.567,-175.15 141.082,-159.797"/>
<polygon fill="black" stroke="black" stroke-width="2" points="144.319,-161.177 146.108,-150.734 138.197,-157.782 144.319,-161.177"/>
</g>
<!-- 2 -->
<g id="node3" class="node"><title>2</title>
<ellipse fill="cadetblue" stroke="black" cx="184.734" cy="-21.2132" rx="21.4286" ry="21.4286"/>
<text text-anchor="middle" x="184.734" y="-16.2132" font-family="Times New Roman,serif" font-size="20.00">2</text>
</g>
<!-- 6 -->
<g id="node7" class="node"><title>6</title>
<ellipse fill="cadetblue" stroke="black" cx="106.14" cy="-118.537" rx="21.4286" ry="21.4286"/>
<text text-anchor="middle" x="106.14" y="-113.537" font-family="Times New Roman,serif" font-size="20.00">2</text>
</g>
<!-- 2&#45;&gt;6 -->
<g id="edge8" class="edge"><title>2&#45;&gt;6</title>
<path fill="none" stroke="black" stroke-width="2" d="M171.402,-37.7228C158.981,-53.1027 140.298,-76.2386 126.1,-93.8199"/>
<polygon fill="black" stroke="black" stroke-width="2" points="123.098,-91.9673 119.538,-101.946 128.543,-96.3652 123.098,-91.9673"/>
</g>
<!-- 3 -->
<g id="node4" class="node"><title>3</title>
<ellipse fill="cadetblue" stroke="black" cx="225.747" cy="-104.27" rx="21.4286" ry="21.4286"/>
<text text-anchor="middle" x="225.747" y="-99.2702" font-family="Times New Roman,serif" font-size="20.00">2</text>
</g>
<!-- 5 -->
<g id="node6" class="node"><title>5</title>
<ellipse fill="cadetblue" stroke="black" cx="113.743" cy="-45.6829" rx="21.4286" ry="21.4286"/>
<text text-anchor="middle" x="113.743" y="-40.6829" font-family="Times New Roman,serif" font-size="20.00">2</text>
</g>
<!-- 3&#45;&gt;5 -->
<g id="edge10" class="edge"><title>3&#45;&gt;5</title>
<path fill="none" stroke="black" stroke-width="2" d="M206.747,-94.3316C188.967,-85.0311 162.179,-71.0191 141.913,-60.418"/>
<polygon fill="black" stroke="black" stroke-width="2" points="143.319,-57.2039 132.836,-55.6702 140.075,-63.4066 143.319,-57.2039"/>
</g>
<!-- 4 -->
<g id="node5" class="node"><title>4</title>
<ellipse fill="cadetblue" stroke="black" cx="26.6836" cy="-155.592" rx="21.4286" ry="21.4286"/>
<text text-anchor="middle" x="26.6836" y="-150.592" font-family="Times New Roman,serif" font-size="20.00">2</text>
</g>
<!-- 4&#45;&gt;0 -->
<g id="edge1" class="edge"><title>4&#45;&gt;0</title>
<path fill="none" stroke="black" stroke-width="2" d="M25.2463,-134.166C24.6558,-125.363 23.9603,-114.994 23.3146,-105.368"/>
<polygon fill="black" stroke="black" stroke-width="2" points="26.8024,-105.068 22.6409,-95.3248 19.8181,-105.537 26.8024,-105.068"/>
</g>
<!-- 4&#45;&gt;1 -->
<g id="edge4" class="edge"><title>4&#45;&gt;1</title>
<path fill="none" stroke="black" stroke-width="2" d="M42.7878,-170.165C53.803,-180.133 68.5846,-193.509 80.9089,-204.662"/>
<polygon fill="black" stroke="black" stroke-width="2" points="78.8254,-207.497 88.5886,-211.612 83.5223,-202.307 78.8254,-207.497"/>
</g>
<!-- 5&#45;&gt;2 -->
<g id="edge7" class="edge"><title>5&#45;&gt;2</title>
<path fill="none" stroke="black" stroke-width="2" d="M133.896,-38.7363C140.286,-36.5339 147.497,-34.0484 154.437,-31.6562"/>
<polygon fill="black" stroke="black" stroke-width="2" points="155.97,-34.8299 164.284,-28.2621 153.689,-28.212 155.97,-34.8299"/>
</g>
<!-- 5&#45;&gt;4 -->
<g id="edge13" class="edge"><title>5&#45;&gt;4</title>
<path fill="none" stroke="black" stroke-width="2" d="M100.521,-62.3758C86.1388,-80.5322 62.9948,-109.751 46.4521,-130.635"/>
<polygon fill="black" stroke="black" stroke-width="2" points="43.4961,-128.73 40.0305,-138.742 48.9833,-133.076 43.4961,-128.73"/>
</g>
<!-- 6&#45;&gt;0 -->
<g id="edge2" class="edge"><title>6&#45;&gt;0</title>
<path fill="none" stroke="black" stroke-width="2" d="M87.2919,-108.662C76.0769,-102.786 61.6393,-95.2218 49.1216,-88.6634"/>
<polygon fill="black" stroke="black" stroke-width="2" points="50.4907,-85.4295 40.0085,-83.8888 47.2421,-91.63 50.4907,-85.4295"/>
</g>
<!-- 6&#45;&gt;1 -->
<g id="edge5" class="edge"><title>6&#45;&gt;1</title>
<path fill="none" stroke="black" stroke-width="2" d="M105.797,-139.753C105.547,-155.243 105.204,-176.509 104.921,-194.039"/>
<polygon fill="black" stroke="black" stroke-width="2" points="101.416,-194.33 104.754,-204.386 108.415,-194.443 101.416,-194.33"/>
</g>
<!-- 6&#45;&gt;3 -->
<g id="edge11" class="edge"><title>6&#45;&gt;3</title>
<path fill="none" stroke="black" stroke-width="2" d="M126.536,-112.136C135.632,-109.583 146.539,-106.929 156.573,-105.564 168.783,-103.902 182.317,-103.365 194.151,-103.317"/>
<polygon fill="black" stroke="black" stroke-width="2" points="194.43,-106.819 204.456,-103.393 194.482,-99.8193 194.43,-106.819"/>
</g>
<!-- 6&#45;&gt;4 -->
<g id="edge14" class="edge"><title>6&#45;&gt;4</title>
<path fill="none" stroke="black" stroke-width="2" d="M86.9058,-127.507C77.4115,-131.935 65.7669,-137.365 55.256,-142.267"/>
<polygon fill="black" stroke="black" stroke-width="2" points="53.5996,-139.178 46.016,-146.576 56.5583,-145.522 53.5996,-139.178"/>
</g>
<!-- 7&#45;&gt;2 -->
<g id="edge9" class="edge"><title>7&#45;&gt;2</title>
<path fill="none" stroke="black" stroke-width="2" d="M161.869,-111.055C166.117,-94.3625 172.141,-70.6918 176.94,-51.8375"/>
<polygon fill="black" stroke="black" stroke-width="2" points="180.386,-52.4875 179.461,-41.9332 173.602,-50.761 180.386,-52.4875"/>
</g>
<!-- 7&#45;&gt;3 -->
<g id="edge12" class="edge"><title>7&#45;&gt;3</title>
<path fill="none" stroke="black" stroke-width="2" d="M176.58,-123.886C182.8,-121.404 189.789,-118.616 196.504,-115.937"/>
<polygon fill="black" stroke="black" stroke-width="2" points="198.031,-119.096 206.022,-112.139 195.437,-112.594 198.031,-119.096"/>
</g>
<!-- 7&#45;&gt;5 -->
<g id="edge15" class="edge"><title>7&#45;&gt;5</title>
<path fill="none" stroke="black" stroke-width="2" d="M147.066,-112.741C141.411,-101.36 134.13,-86.708 127.817,-74.0048"/>
<polygon fill="black" stroke="black" stroke-width="2" points="130.806,-72.1544 123.221,-64.7567 124.537,-75.2695 130.806,-72.1544"/>
</g>
<!-- 7&#45;&gt;6 -->
<g id="edge16" class="edge"><title>7&#45;&gt;6</title>
<path fill="none" stroke="black" stroke-width="2" d="M136.059,-126.446C135.964,-126.42 135.868,-126.395 135.772,-126.37"/>
<polygon fill="black" stroke="black" stroke-width="2" points="137.36,-123.17 126.798,-123.998 135.571,-129.937 137.36,-123.17"/>
</g>
</g>
</svg>

