<?xml version="1.0" encoding="UTF-8" standalone="no"?>
<!DOCTYPE svg PUBLIC "-//W3C//DTD SVG 1.1//EN"
 "http://www.w3.org/Graphics/SVG/1.1/DTD/svg11.dtd">
<!-- Generated by graphviz version 2.36.0 (20140111.2315)
 -->
<!-- Title: G Pages: 1 -->
<svg width="100%" height="100%"
 viewBox="0.00 0.00 268.47 228.42" xmlns="http://www.w3.org/2000/svg" xmlns:xlink="http://www.w3.org/1999/xlink">
<g id="graph0" class="graph" transform="scale(1 1) rotate(0) translate(4 224.423)">
<title>G</title>
<!-- 0 -->
<g id="node1" class="node"><title>0</title>
<ellipse fill="cadetblue" stroke="black" cx="149.593" cy="-25.6745" rx="21.4286" ry="21.4286"/>
<text text-anchor="middle" x="149.593" y="-20.6745" font-family="Times New Roman,serif" font-size="20.00">2</text>
</g>
<!-- 6 -->
<g id="node7" class="node"><title>6</title>
<ellipse fill="cadetblue" stroke="black" cx="162.585" cy="-121.006" rx="21.4286" ry="21.4286"/>
<text text-anchor="middle" x="162.585" y="-116.006" font-family="Times New Roman,serif" font-size="20.00">2</text>
</g>
<!-- 0&#45;&gt;6 -->
<g id="edge3" class="edge"><title>0&#45;&gt;6</title>
<path fill="none" stroke="black" stroke-width="2" d="M152.476,-46.8316C154.192,-59.4207 156.4,-75.6271 158.315,-89.6784"/>
<polygon fill="black" stroke="black" stroke-width="2" points="154.891,-90.4722 159.71,-99.908 161.827,-89.5269 154.891,-90.4722"/>
</g>
<!-- 7 -->
<g id="node8" class="node"><title>7</title>
<ellipse fill="brown" stroke="black" cx="112.153" cy="-124.77" rx="21.4286" ry="21.4286"/>
<text text-anchor="middle" x="112.153" y="-119.77" font-family="Times New Roman,serif" font-size="20.00">3</text>
</g>
<!-- 0&#45;&gt;7 -->
<g id="edge4" class="edge"><title>0&#45;&gt;7</title>
<path fill="none" stroke="black" stroke-width="2" d="M142.016,-45.7278C136.637,-59.9654 129.328,-79.3115 123.287,-95.3003"/>
<polygon fill="black" stroke="black" stroke-width="2" points="119.979,-94.1543 119.719,-104.746 126.527,-96.6284 119.979,-94.1543"/>
</g>
<!-- 1 -->
<g id="node2" class="node"><title>1</title>
<ellipse fill="cadetblue" stroke="black" cx="218.366" cy="-196.02" rx="21.4286" ry="21.4286"/>
<text text-anchor="middle" x="218.366" y="-191.02" font-family="Times New Roman,serif" font-size="20.00">2</text>
</g>
<!-- 1&#45;&gt;7 -->
<g id="edge7" class="edge"><title>1&#45;&gt;7</title>
<path fill="none" stroke="black" stroke-width="2" d="M200.349,-183.933C183.309,-172.503 157.545,-155.22 138.257,-142.28"/>
<polygon fill="black" stroke="black" stroke-width="2" points="140.159,-139.342 129.905,-136.678 136.26,-145.155 140.159,-139.342"/>
</g>
<!-- 2 -->
<g id="node3" class="node"><title>2</title>
<ellipse fill="cadetblue" stroke="black" cx="67.4829" cy="-21.2132" rx="21.4286" ry="21.4286"/>
<text text-anchor="middle" x="67.4829" y="-16.2132" font-family="Times New Roman,serif" font-size="20.00">2</text>
</g>
<!-- 2&#45;&gt;7 -->
<g id="edge10" class="edge"><title>2&#45;&gt;7</title>
<path fill="none" stroke="black" stroke-width="2" d="M76.0958,-41.1799C82.7505,-56.6071 92.0588,-78.1858 99.5508,-95.5541"/>
<polygon fill="black" stroke="black" stroke-width="2" points="96.5437,-97.4195 103.718,-105.215 102.971,-94.6469 96.5437,-97.4195"/>
</g>
<!-- 3 -->
<g id="node4" class="node"><title>3</title>
<ellipse fill="cadetblue" stroke="black" cx="53.0763" cy="-199.21" rx="21.4286" ry="21.4286"/>
<text text-anchor="middle" x="53.0763" y="-194.21" font-family="Times New Roman,serif" font-size="20.00">2</text>
</g>
<!-- 5 -->
<g id="node6" class="node"><title>5</title>
<ellipse fill="cadetblue" stroke="black" cx="21.2132" cy="-92.1723" rx="21.4286" ry="21.4286"/>
<text text-anchor="middle" x="21.2132" y="-87.1723" font-family="Times New Roman,serif" font-size="20.00">2</text>
</g>
<!-- 3&#45;&gt;5 -->
<g id="edge11" class="edge"><title>3&#45;&gt;5</title>
<path fill="none" stroke="black" stroke-width="2" d="M47.0081,-178.825C42.2768,-162.931 35.6321,-140.61 30.2717,-122.602"/>
<polygon fill="black" stroke="black" stroke-width="2" points="33.575,-121.432 27.3673,-112.846 26.866,-123.429 33.575,-121.432"/>
</g>
<!-- 4 -->
<g id="node5" class="node"><title>4</title>
<ellipse fill="cadetblue" stroke="black" cx="239.257" cy="-90.1487" rx="21.4286" ry="21.4286"/>
<text text-anchor="middle" x="239.257" y="-85.1487" font-family="Times New Roman,serif" font-size="20.00">2</text>
</g>
<!-- 4&#45;&gt;0 -->
<g id="edge1" class="edge"><title>4&#45;&gt;0</title>
<path fill="none" stroke="black" stroke-width="2" d="M221.969,-77.7174C208.696,-68.1736 190.165,-54.8485 175.177,-44.071"/>
<polygon fill="black" stroke="black" stroke-width="2" points="176.99,-41.064 166.828,-38.0676 172.904,-46.7473 176.99,-41.064"/>
</g>
<!-- 4&#45;&gt;1 -->
<g id="edge5" class="edge"><title>4&#45;&gt;1</title>
<path fill="none" stroke="black" stroke-width="2" d="M235.13,-111.065C232.097,-126.436 227.925,-147.576 224.503,-164.922"/>
<polygon fill="black" stroke="black" stroke-width="2" points="220.987,-164.658 222.485,-175.147 227.855,-166.013 220.987,-164.658"/>
</g>
<!-- 5&#45;&gt;0 -->
<g id="edge2" class="edge"><title>5&#45;&gt;0</title>
<path fill="none" stroke="black" stroke-width="2" d="M40.156,-82.3603C61.6787,-71.212 97.0098,-52.9113 121.687,-40.129"/>
<polygon fill="black" stroke="black" stroke-width="2" points="123.302,-43.234 130.572,-35.5267 120.083,-37.0183 123.302,-43.234"/>
</g>
<!-- 5&#45;&gt;2 -->
<g id="edge8" class="edge"><title>5&#45;&gt;2</title>
<path fill="none" stroke="black" stroke-width="2" d="M32.889,-74.2663C38.1094,-66.2603 44.3713,-56.657 50.1242,-47.8345"/>
<polygon fill="black" stroke="black" stroke-width="2" points="53.1196,-49.6485 55.6499,-39.3603 47.256,-45.8251 53.1196,-49.6485"/>
</g>
<!-- 6&#45;&gt;1 -->
<g id="edge6" class="edge"><title>6&#45;&gt;1</title>
<path fill="none" stroke="black" stroke-width="2" d="M175.522,-138.404C182.684,-148.035 191.713,-160.177 199.633,-170.828"/>
<polygon fill="black" stroke="black" stroke-width="2" points="196.915,-173.039 205.691,-178.975 202.533,-168.862 196.915,-173.039"/>
</g>
<!-- 6&#45;&gt;2 -->
<g id="edge9" class="edge"><title>6&#45;&gt;2</title>
<path fill="none" stroke="black" stroke-width="2" d="M147.725,-105.413C132.092,-89.0091 107.322,-63.0171 89.4355,-44.2487"/>
<polygon fill="black" stroke="black" stroke-width="2" points="91.6708,-41.5209 82.2382,-36.6963 86.6034,-46.3501 91.6708,-41.5209"/>
</g>
<!-- 6&#45;&gt;3 -->
<g id="edge12" class="edge"><title>6&#45;&gt;3</title>
<path fill="none" stroke="black" stroke-width="2" d="M144.99,-133.571C127.109,-146.34 99.2173,-166.259 78.846,-180.807"/>
<polygon fill="black" stroke="black" stroke-width="2" points="76.7309,-178.016 70.627,-186.676 80.799,-183.713 76.7309,-178.016"/>
</g>
<!-- 6&#45;&gt;4 -->
<g id="edge14" class="edge"><title>6&#45;&gt;4</title>
<path fill="none" stroke="black" stroke-width="2" d="M182.33,-113.059C190.76,-109.667 200.773,-105.637 210.033,-101.91"/>
<polygon fill="black" stroke="black" stroke-width="2" points="211.342,-105.156 219.313,-98.1755 208.729,-98.6622 211.342,-105.156"/>
</g>
<!-- 7&#45;&gt;3 -->
<g id="edge13" class="edge"><title>7&#45;&gt;3</title>
<path fill="none" stroke="black" stroke-width="2" d="M98.7478,-141.661C91.0434,-151.369 81.2267,-163.739 72.6703,-174.52"/>
<polygon fill="black" stroke="black" stroke-width="2" points="69.9036,-172.376 66.4287,-182.385 75.3867,-176.728 69.9036,-172.376"/>
</g>
<!-- 7&#45;&gt;4 -->
<g id="edge15" class="edge"><title>7&#45;&gt;4</title>
<path fill="none" stroke="black" stroke-width="2" d="M132.858,-119.13C153.447,-113.522 185.266,-104.855 208.748,-98.4588"/>
<polygon fill="black" stroke="black" stroke-width="2" points="209.833,-101.791 218.562,-95.7858 207.993,-95.0369 209.833,-101.791"/>
</g>
<!-- 7&#45;&gt;5 -->
<g id="edge16" class="edge"><title>7&#45;&gt;5</title>
<path fill="none" stroke="black" stroke-width="2" d="M91.9708,-117.535C79.9616,-113.23 64.5018,-107.689 51.0977,-102.884"/>
<polygon fill="black" stroke="black" stroke-width="2" points="51.9339,-99.466 41.3394,-99.3865 49.5719,-106.056 51.9339,-99.466"/>
</g>
<!-- 7&#45;&gt;6 -->
<g id="edge17" class="edge"><title>7&#45;&gt;6</title>
<path fill="none" stroke="black" stroke-width="2" d="M133.541,-123.173C133.702,-123.161 133.863,-123.149 134.025,-123.137"/>
<polygon fill="black" stroke="black" stroke-width="2" points="131.613,-126.827 141.325,-122.593 131.092,-119.847 131.613,-126.827"/>
</g>
</g>
</svg>

