<?xml version="1.0" encoding="UTF-8" standalone="no"?>
<!DOCTYPE svg PUBLIC "-//W3C//DTD SVG 1.1//EN"
 "http://www.w3.org/Graphics/SVG/1.1/DTD/svg11.dtd">
<!-- Generated by graphviz version 2.36.0 (20140111.2315)
 -->
<!-- Title: G Pages: 1 -->
<svg width="100%" height="100%"
 viewBox="0.00 0.00 270.12 263.17" xmlns="http://www.w3.org/2000/svg" xmlns:xlink="http://www.w3.org/1999/xlink">
<g id="graph0" class="graph" transform="scale(1 1) rotate(0) translate(4 259.168)">
<title>G</title>
<!-- 0 -->
<g id="node1" class="node"><title>0</title>
<ellipse fill="cadetblue" stroke="black" cx="141.435" cy="-21.2132" rx="21.4286" ry="21.4286"/>
<text text-anchor="middle" x="141.435" y="-16.2132" font-family="Times New Roman,serif" font-size="20.00">2</text>
</g>
<!-- 6 -->
<g id="node7" class="node"><title>6</title>
<ellipse fill="cadetblue" stroke="black" cx="159.669" cy="-134.141" rx="21.4286" ry="21.4286"/>
<text text-anchor="middle" x="159.669" y="-129.141" font-family="Times New Roman,serif" font-size="20.00">2</text>
</g>
<!-- 0&#45;&gt;6 -->
<g id="edge3" class="edge"><title>0&#45;&gt;6</title>
<path fill="none" stroke="black" stroke-width="2" d="M144.822,-42.1895C147.581,-59.2749 151.516,-83.6506 154.643,-103.012"/>
<polygon fill="black" stroke="black" stroke-width="2" points="151.189,-103.58 156.238,-112.894 158.099,-102.464 151.189,-103.58"/>
</g>
<!-- 7 -->
<g id="node8" class="node"><title>7</title>
<ellipse fill="cadetblue" stroke="black" cx="109.237" cy="-116.776" rx="21.4286" ry="21.4286"/>
<text text-anchor="middle" x="109.237" y="-111.776" font-family="Times New Roman,serif" font-size="20.00">2</text>
</g>
<!-- 0&#45;&gt;7 -->
<g id="edge4" class="edge"><title>0&#45;&gt;7</title>
<path fill="none" stroke="black" stroke-width="2" d="M134.607,-41.4797C130.167,-54.6563 124.301,-72.0678 119.328,-86.8283"/>
<polygon fill="black" stroke="black" stroke-width="2" points="115.932,-85.9449 116.056,-96.539 122.566,-88.18 115.932,-85.9449"/>
</g>
<!-- 1 -->
<g id="node2" class="node"><title>1</title>
<ellipse fill="cadetblue" stroke="black" cx="41.0426" cy="-219.164" rx="21.4286" ry="21.4286"/>
<text text-anchor="middle" x="41.0426" y="-214.164" font-family="Times New Roman,serif" font-size="20.00">2</text>
</g>
<!-- 1&#45;&gt;7 -->
<g id="edge7" class="edge"><title>1&#45;&gt;7</title>
<path fill="none" stroke="black" stroke-width="2" d="M52.9212,-201.329C63.6122,-185.278 79.4648,-161.477 91.6294,-143.213"/>
<polygon fill="black" stroke="black" stroke-width="2" points="94.6356,-145.013 97.2661,-134.75 88.8096,-141.133 94.6356,-145.013"/>
</g>
<!-- 2 -->
<g id="node3" class="node"><title>2</title>
<ellipse fill="cadetblue" stroke="black" cx="36.0964" cy="-28.2302" rx="21.4286" ry="21.4286"/>
<text text-anchor="middle" x="36.0964" y="-23.2302" font-family="Times New Roman,serif" font-size="20.00">2</text>
</g>
<!-- 2&#45;&gt;6 -->
<g id="edge9" class="edge"><title>2&#45;&gt;6</title>
<path fill="none" stroke="black" stroke-width="2" d="M53.8039,-40.174C72.8946,-53.398 103.779,-75.8149 127.838,-98.1771 131.709,-101.775 135.614,-105.795 139.299,-109.808"/>
<polygon fill="black" stroke="black" stroke-width="2" points="136.789,-112.253 146.048,-117.405 142.022,-107.604 136.789,-112.253"/>
</g>
<!-- 3 -->
<g id="node4" class="node"><title>3</title>
<ellipse fill="cadetblue" stroke="black" cx="130.503" cy="-233.954" rx="21.4286" ry="21.4286"/>
<text text-anchor="middle" x="130.503" y="-228.954" font-family="Times New Roman,serif" font-size="20.00">2</text>
</g>
<!-- 5 -->
<g id="node6" class="node"><title>5</title>
<ellipse fill="cadetblue" stroke="black" cx="21.2132" cy="-124.51" rx="21.4286" ry="21.4286"/>
<text text-anchor="middle" x="21.2132" y="-119.51" font-family="Times New Roman,serif" font-size="20.00">2</text>
</g>
<!-- 3&#45;&gt;5 -->
<g id="edge11" class="edge"><title>3&#45;&gt;5</title>
<path fill="none" stroke="black" stroke-width="2" d="M115.307,-218.737C96.6291,-200.032 64.7848,-168.143 43.3783,-146.706"/>
<polygon fill="black" stroke="black" stroke-width="2" points="45.8232,-144.201 36.2805,-139.598 40.87,-149.147 45.8232,-144.201"/>
</g>
<!-- 4 -->
<g id="node5" class="node"><title>4</title>
<ellipse fill="cadetblue" stroke="black" cx="240.908" cy="-68.8285" rx="21.4286" ry="21.4286"/>
<text text-anchor="middle" x="240.908" y="-63.8285" font-family="Times New Roman,serif" font-size="20.00">2</text>
</g>
<!-- 4&#45;&gt;0 -->
<g id="edge1" class="edge"><title>4&#45;&gt;0</title>
<path fill="none" stroke="black" stroke-width="2" d="M221.728,-59.6478C207.098,-52.6447 186.709,-42.8848 170.138,-34.9526"/>
<polygon fill="black" stroke="black" stroke-width="2" points="171.426,-31.6889 160.895,-30.5282 168.404,-38.0028 171.426,-31.6889"/>
</g>
<!-- 5&#45;&gt;0 -->
<g id="edge2" class="edge"><title>5&#45;&gt;0</title>
<path fill="none" stroke="black" stroke-width="2" d="M37.4269,-110.579C57.952,-92.9431 93.4911,-62.4074 117.233,-42.0083"/>
<polygon fill="black" stroke="black" stroke-width="2" points="119.791,-44.4251 125.094,-35.2534 115.229,-39.1157 119.791,-44.4251"/>
</g>
<!-- 5&#45;&gt;1 -->
<g id="edge5" class="edge"><title>5&#45;&gt;1</title>
<path fill="none" stroke="black" stroke-width="2" d="M25.614,-145.516C28.2326,-158.016 31.6036,-174.107 34.5263,-188.059"/>
<polygon fill="black" stroke="black" stroke-width="2" points="31.178,-189.146 36.6541,-198.216 38.0292,-187.71 31.178,-189.146"/>
</g>
<!-- 5&#45;&gt;2 -->
<g id="edge8" class="edge"><title>5&#45;&gt;2</title>
<path fill="none" stroke="black" stroke-width="2" d="M24.5163,-103.142C26.5147,-90.214 29.0971,-73.5088 31.3159,-59.1552"/>
<polygon fill="black" stroke="black" stroke-width="2" points="34.7849,-59.6241 32.8538,-49.2067 27.8671,-58.5546 34.7849,-59.6241"/>
</g>
<!-- 6&#45;&gt;1 -->
<g id="edge6" class="edge"><title>6&#45;&gt;1</title>
<path fill="none" stroke="black" stroke-width="2" d="M142.42,-146.504C122.477,-160.798 89.4624,-184.46 66.5508,-200.881"/>
<polygon fill="black" stroke="black" stroke-width="2" points="64.4017,-198.115 58.3127,-206.786 68.4796,-203.805 64.4017,-198.115"/>
</g>
<!-- 6&#45;&gt;3 -->
<g id="edge12" class="edge"><title>6&#45;&gt;3</title>
<path fill="none" stroke="black" stroke-width="2" d="M153.626,-154.823C149.52,-168.875 144.019,-187.7 139.413,-203.464"/>
<polygon fill="black" stroke="black" stroke-width="2" points="135.984,-202.719 136.539,-213.3 142.703,-204.683 135.984,-202.719"/>
</g>
<!-- 6&#45;&gt;4 -->
<g id="edge14" class="edge"><title>6&#45;&gt;4</title>
<path fill="none" stroke="black" stroke-width="2" d="M176.502,-120.608C188.015,-111.352 203.465,-98.9306 216.347,-88.5741"/>
<polygon fill="black" stroke="black" stroke-width="2" points="218.774,-91.1141 224.374,-82.1205 214.388,-85.6586 218.774,-91.1141"/>
</g>
<!-- 7&#45;&gt;2 -->
<g id="edge10" class="edge"><title>7&#45;&gt;2</title>
<path fill="none" stroke="black" stroke-width="2" d="M95.4802,-100.121C84.4469,-86.7643 68.801,-67.8231 56.3385,-52.7358"/>
<polygon fill="black" stroke="black" stroke-width="2" points="58.859,-50.2913 49.792,-44.8104 53.4621,-54.7492 58.859,-50.2913"/>
</g>
<!-- 7&#45;&gt;3 -->
<g id="edge13" class="edge"><title>7&#45;&gt;3</title>
<path fill="none" stroke="black" stroke-width="2" d="M113.039,-137.725C116.33,-155.859 121.135,-182.334 124.872,-202.927"/>
<polygon fill="black" stroke="black" stroke-width="2" points="121.433,-203.577 126.663,-212.792 128.321,-202.327 121.433,-203.577"/>
</g>
<!-- 7&#45;&gt;4 -->
<g id="edge15" class="edge"><title>7&#45;&gt;4</title>
<path fill="none" stroke="black" stroke-width="2" d="M129.235,-109.494C150.986,-101.573 185.99,-88.8268 211.009,-79.7159"/>
<polygon fill="black" stroke="black" stroke-width="2" points="212.523,-82.8898 220.721,-76.1793 210.127,-76.3123 212.523,-82.8898"/>
</g>
<!-- 7&#45;&gt;5 -->
<g id="edge16" class="edge"><title>7&#45;&gt;5</title>
<path fill="none" stroke="black" stroke-width="2" d="M87.9292,-118.648C77.4112,-119.572 64.5109,-120.706 52.8666,-121.729"/>
<polygon fill="black" stroke="black" stroke-width="2" points="52.2856,-118.266 42.6303,-122.628 52.8983,-125.239 52.2856,-118.266"/>
</g>
</g>
</svg>

