<?xml version="1.0" encoding="UTF-8" standalone="no"?>
<!DOCTYPE svg PUBLIC "-//W3C//DTD SVG 1.1//EN"
 "http://www.w3.org/Graphics/SVG/1.1/DTD/svg11.dtd">
<!-- Generated by graphviz version 2.36.0 (20140111.2315)
 -->
<!-- Title: G Pages: 1 -->
<svg width="100%" height="100%"
 viewBox="0.00 0.00 283.52 248.49" xmlns="http://www.w3.org/2000/svg" xmlns:xlink="http://www.w3.org/1999/xlink">
<g id="graph0" class="graph" transform="scale(1 1) rotate(0) translate(4 244.491)">
<title>G</title>
<!-- 0 -->
<g id="node1" class="node"><title>0</title>
<ellipse fill="cadetblue" stroke="black" cx="224.932" cy="-32.8158" rx="21.4286" ry="21.4286"/>
<text text-anchor="middle" x="224.932" y="-27.8158" font-family="Times New Roman,serif" font-size="20.00">2</text>
</g>
<!-- 7 -->
<g id="node8" class="node"><title>7</title>
<ellipse fill="brown" stroke="black" cx="135.209" cy="-145.263" rx="21.4286" ry="21.4286"/>
<text text-anchor="middle" x="135.209" y="-140.263" font-family="Times New Roman,serif" font-size="20.00">3</text>
</g>
<!-- 0&#45;&gt;7 -->
<g id="edge3" class="edge"><title>0&#45;&gt;7</title>
<path fill="none" stroke="black" stroke-width="2" d="M211.693,-49.4078C196.717,-68.1764 172.176,-98.9335 154.94,-120.534"/>
<polygon fill="black" stroke="black" stroke-width="2" points="152.003,-118.604 148.502,-128.603 157.475,-122.969 152.003,-118.604"/>
</g>
<!-- 1 -->
<g id="node2" class="node"><title>1</title>
<ellipse fill="cadetblue" stroke="black" cx="210.861" cy="-219.278" rx="21.4286" ry="21.4286"/>
<text text-anchor="middle" x="210.861" y="-214.278" font-family="Times New Roman,serif" font-size="20.00">2</text>
</g>
<!-- 1&#45;&gt;7 -->
<g id="edge6" class="edge"><title>1&#45;&gt;7</title>
<path fill="none" stroke="black" stroke-width="2" d="M195.552,-204.3C184.682,-193.666 169.913,-179.216 157.707,-167.274"/>
<polygon fill="black" stroke="black" stroke-width="2" points="160.091,-164.71 150.495,-160.219 155.196,-169.714 160.091,-164.71"/>
</g>
<!-- 2 -->
<g id="node3" class="node"><title>2</title>
<ellipse fill="cadetblue" stroke="black" cx="64.2594" cy="-21.2132" rx="21.4286" ry="21.4286"/>
<text text-anchor="middle" x="64.2594" y="-16.2132" font-family="Times New Roman,serif" font-size="20.00">2</text>
</g>
<!-- 2&#45;&gt;7 -->
<g id="edge9" class="edge"><title>2&#45;&gt;7</title>
<path fill="none" stroke="black" stroke-width="2" d="M74.8813,-39.7848C86.6892,-60.4302 105.88,-93.9836 119.442,-117.695"/>
<polygon fill="black" stroke="black" stroke-width="2" points="116.511,-119.622 124.514,-126.565 122.588,-116.147 116.511,-119.622"/>
</g>
<!-- 3 -->
<g id="node4" class="node"><title>3</title>
<ellipse fill="cadetblue" stroke="black" cx="51.0407" cy="-207.766" rx="21.4286" ry="21.4286"/>
<text text-anchor="middle" x="51.0407" y="-202.766" font-family="Times New Roman,serif" font-size="20.00">2</text>
</g>
<!-- 6 -->
<g id="node7" class="node"><title>6</title>
<ellipse fill="cadetblue" stroke="black" cx="140.355" cy="-94.8318" rx="21.4286" ry="21.4286"/>
<text text-anchor="middle" x="140.355" y="-89.8318" font-family="Times New Roman,serif" font-size="20.00">2</text>
</g>
<!-- 3&#45;&gt;6 -->
<g id="edge11" class="edge"><title>3&#45;&gt;6</title>
<path fill="none" stroke="black" stroke-width="2" d="M64.2194,-191.102C79.1268,-172.252 103.556,-141.362 120.714,-119.668"/>
<polygon fill="black" stroke="black" stroke-width="2" points="123.664,-121.579 127.122,-111.564 118.174,-117.236 123.664,-121.579"/>
</g>
<!-- 4 -->
<g id="node5" class="node"><title>4</title>
<ellipse fill="cadetblue" stroke="black" cx="254.305" cy="-128.987" rx="21.4286" ry="21.4286"/>
<text text-anchor="middle" x="254.305" y="-123.987" font-family="Times New Roman,serif" font-size="20.00">2</text>
</g>
<!-- 4&#45;&gt;0 -->
<g id="edge1" class="edge"><title>4&#45;&gt;0</title>
<path fill="none" stroke="black" stroke-width="2" d="M248.076,-108.592C244.026,-95.3313 238.674,-77.809 234.137,-62.9544"/>
<polygon fill="black" stroke="black" stroke-width="2" points="237.421,-61.7233 231.152,-53.1819 230.726,-63.7681 237.421,-61.7233"/>
</g>
<!-- 4&#45;&gt;1 -->
<g id="edge4" class="edge"><title>4&#45;&gt;1</title>
<path fill="none" stroke="black" stroke-width="2" d="M245.092,-148.136C239.102,-160.585 231.186,-177.036 224.476,-190.982"/>
<polygon fill="black" stroke="black" stroke-width="2" points="221.243,-189.629 220.061,-200.157 227.551,-192.664 221.243,-189.629"/>
</g>
<!-- 5 -->
<g id="node6" class="node"><title>5</title>
<ellipse fill="cadetblue" stroke="black" cx="21.2132" cy="-111.744" rx="21.4286" ry="21.4286"/>
<text text-anchor="middle" x="21.2132" y="-106.744" font-family="Times New Roman,serif" font-size="20.00">2</text>
</g>
<!-- 5&#45;&gt;2 -->
<g id="edge7" class="edge"><title>5&#45;&gt;2</title>
<path fill="none" stroke="black" stroke-width="2" d="M30.3422,-92.5444C36.2776,-80.0617 44.1206,-63.5672 50.7694,-49.584"/>
<polygon fill="black" stroke="black" stroke-width="2" points="54.0102,-50.9187 55.1436,-40.3847 47.6885,-47.9128 54.0102,-50.9187"/>
</g>
<!-- 5&#45;&gt;3 -->
<g id="edge10" class="edge"><title>5&#45;&gt;3</title>
<path fill="none" stroke="black" stroke-width="2" d="M27.5389,-132.107C31.6516,-145.347 37.0861,-162.842 41.6933,-177.674"/>
<polygon fill="black" stroke="black" stroke-width="2" points="38.4152,-178.92 44.7242,-187.431 45.1001,-176.843 38.4152,-178.92"/>
</g>
<!-- 6&#45;&gt;0 -->
<g id="edge2" class="edge"><title>6&#45;&gt;0</title>
<path fill="none" stroke="black" stroke-width="2" d="M157.47,-82.2819C169.428,-73.5139 185.608,-61.6499 199.125,-51.7387"/>
<polygon fill="black" stroke="black" stroke-width="2" points="201.557,-54.2956 207.551,-45.5598 197.417,-48.6506 201.557,-54.2956"/>
</g>
<!-- 6&#45;&gt;1 -->
<g id="edge5" class="edge"><title>6&#45;&gt;1</title>
<path fill="none" stroke="black" stroke-width="2" d="M150.91,-113.463C162.645,-134.174 181.715,-167.835 195.193,-191.622"/>
<polygon fill="black" stroke="black" stroke-width="2" points="192.259,-193.545 200.234,-200.52 198.349,-190.094 192.259,-193.545"/>
</g>
<!-- 6&#45;&gt;2 -->
<g id="edge8" class="edge"><title>6&#45;&gt;2</title>
<path fill="none" stroke="black" stroke-width="2" d="M124.956,-79.934C114.023,-69.3568 99.1668,-54.9844 86.889,-43.1062"/>
<polygon fill="black" stroke="black" stroke-width="2" points="89.2563,-40.5265 79.6356,-36.0889 84.3891,-45.5575 89.2563,-40.5265"/>
</g>
<!-- 6&#45;&gt;4 -->
<g id="edge13" class="edge"><title>6&#45;&gt;4</title>
<path fill="none" stroke="black" stroke-width="2" d="M160.727,-100.938C178.361,-106.224 204.107,-113.941 224.132,-119.943"/>
<polygon fill="black" stroke="black" stroke-width="2" points="223.142,-123.3 233.725,-122.819 225.151,-116.595 223.142,-123.3"/>
</g>
<!-- 6&#45;&gt;5 -->
<g id="edge15" class="edge"><title>6&#45;&gt;5</title>
<path fill="none" stroke="black" stroke-width="2" d="M119.329,-97.8164C100.813,-100.445 73.5905,-104.309 52.5142,-107.301"/>
<polygon fill="black" stroke="black" stroke-width="2" points="51.8385,-103.861 42.4297,-108.732 52.8223,-110.792 51.8385,-103.861"/>
</g>
<!-- 7&#45;&gt;3 -->
<g id="edge12" class="edge"><title>7&#45;&gt;3</title>
<path fill="none" stroke="black" stroke-width="2" d="M118.176,-157.912C106.276,-166.748 90.1743,-178.705 76.7229,-188.694"/>
<polygon fill="black" stroke="black" stroke-width="2" points="74.2788,-186.15 68.3369,-194.922 78.4521,-191.77 74.2788,-186.15"/>
</g>
<!-- 7&#45;&gt;4 -->
<g id="edge14" class="edge"><title>7&#45;&gt;4</title>
<path fill="none" stroke="black" stroke-width="2" d="M156.227,-142.391C174.736,-139.861 201.948,-136.143 223.016,-133.263"/>
<polygon fill="black" stroke="black" stroke-width="2" points="223.663,-136.708 233.097,-131.886 222.715,-129.772 223.663,-136.708"/>
</g>
<!-- 7&#45;&gt;5 -->
<g id="edge16" class="edge"><title>7&#45;&gt;5</title>
<path fill="none" stroke="black" stroke-width="2" d="M114.829,-139.271C97.1877,-134.083 71.4314,-126.51 51.3982,-120.619"/>
<polygon fill="black" stroke="black" stroke-width="2" points="52.3824,-117.261 41.8012,-117.797 50.4077,-123.976 52.3824,-117.261"/>
</g>
<!-- 7&#45;&gt;6 -->
<g id="edge17" class="edge"><title>7&#45;&gt;6</title>
<path fill="none" stroke="black" stroke-width="2" d="M137.391,-123.876C137.408,-123.715 137.424,-123.553 137.441,-123.392"/>
<polygon fill="black" stroke="black" stroke-width="2" points="140.652,-126.395 138.186,-116.091 133.688,-125.684 140.652,-126.395"/>
</g>
</g>
</svg>

