<?xml version="1.0" encoding="UTF-8" standalone="no"?>
<!DOCTYPE svg PUBLIC "-//W3C//DTD SVG 1.1//EN"
 "http://www.w3.org/Graphics/SVG/1.1/DTD/svg11.dtd">
<!-- Generated by graphviz version 2.36.0 (20140111.2315)
 -->
<!-- Title: G Pages: 1 -->
<svg width="100%" height="100%"
 viewBox="0.00 0.00 263.72 245.65" xmlns="http://www.w3.org/2000/svg" xmlns:xlink="http://www.w3.org/1999/xlink">
<g id="graph0" class="graph" transform="scale(1 1) rotate(0) translate(4 241.65)">
<title>G</title>
<!-- 0 -->
<g id="node1" class="node"><title>0</title>
<ellipse fill="cadetblue" stroke="black" cx="127.473" cy="-71.9349" rx="21.4286" ry="21.4286"/>
<text text-anchor="middle" x="127.473" y="-66.9349" font-family="Times New Roman,serif" font-size="20.00">2</text>
</g>
<!-- 6 -->
<g id="node7" class="node"><title>6</title>
<ellipse fill="cadetblue" stroke="black" cx="198.522" cy="-156.395" rx="21.4286" ry="21.4286"/>
<text text-anchor="middle" x="198.522" y="-151.395" font-family="Times New Roman,serif" font-size="20.00">2</text>
</g>
<!-- 0&#45;&gt;6 -->
<g id="edge3" class="edge"><title>0&#45;&gt;6</title>
<path fill="none" stroke="black" stroke-width="2" d="M141.172,-88.2197C151.689,-100.722 166.373,-118.178 178.249,-132.296"/>
<polygon fill="black" stroke="black" stroke-width="2" points="175.749,-134.761 184.865,-140.16 181.106,-130.255 175.749,-134.761"/>
</g>
<!-- 7 -->
<g id="node8" class="node"><title>7</title>
<ellipse fill="cadetblue" stroke="black" cx="57.2136" cy="-81.2844" rx="21.4286" ry="21.4286"/>
<text text-anchor="middle" x="57.2136" y="-76.2844" font-family="Times New Roman,serif" font-size="20.00">2</text>
</g>
<!-- 0&#45;&gt;7 -->
<g id="edge4" class="edge"><title>0&#45;&gt;7</title>
<path fill="none" stroke="black" stroke-width="2" d="M106.393,-74.74C100.696,-75.4981 94.409,-76.3347 88.2885,-77.1492"/>
<polygon fill="black" stroke="black" stroke-width="2" points="87.7297,-73.6926 78.2788,-78.4812 88.6531,-80.6314 87.7297,-73.6926"/>
</g>
<!-- 1 -->
<g id="node2" class="node"><title>1</title>
<ellipse fill="cadetblue" stroke="black" cx="128.324" cy="-166.006" rx="21.4286" ry="21.4286"/>
<text text-anchor="middle" x="128.324" y="-161.006" font-family="Times New Roman,serif" font-size="20.00">2</text>
</g>
<!-- 1&#45;&gt;6 -->
<g id="edge7" class="edge"><title>1&#45;&gt;6</title>
<path fill="none" stroke="black" stroke-width="2" d="M149.385,-163.122C155.077,-162.343 161.359,-161.483 167.474,-160.646"/>
<polygon fill="black" stroke="black" stroke-width="2" points="168.042,-164.101 177.475,-159.277 167.093,-157.165 168.042,-164.101"/>
</g>
<!-- 1&#45;&gt;7 -->
<g id="edge8" class="edge"><title>1&#45;&gt;7</title>
<path fill="none" stroke="black" stroke-width="2" d="M114.613,-149.671C104.087,-137.13 89.3903,-119.62 77.5035,-105.458"/>
<polygon fill="black" stroke="black" stroke-width="2" points="79.9921,-102.979 70.8822,-97.5693 74.6304,-107.479 79.9921,-102.979"/>
</g>
<!-- 2 -->
<g id="node3" class="node"><title>2</title>
<ellipse fill="cadetblue" stroke="black" cx="175.351" cy="-21.2132" rx="21.4286" ry="21.4286"/>
<text text-anchor="middle" x="175.351" y="-16.2132" font-family="Times New Roman,serif" font-size="20.00">2</text>
</g>
<!-- 4 -->
<g id="node5" class="node"><title>4</title>
<ellipse fill="cadetblue" stroke="black" cx="234.511" cy="-90.2024" rx="21.4286" ry="21.4286"/>
<text text-anchor="middle" x="234.511" y="-85.2024" font-family="Times New Roman,serif" font-size="20.00">2</text>
</g>
<!-- 2&#45;&gt;4 -->
<g id="edge9" class="edge"><title>2&#45;&gt;4</title>
<path fill="none" stroke="black" stroke-width="2" d="M189.371,-37.5627C196.739,-46.1544 205.907,-56.8457 214.052,-66.3443"/>
<polygon fill="black" stroke="black" stroke-width="2" points="211.425,-68.6575 220.591,-73.9703 216.739,-64.1007 211.425,-68.6575"/>
</g>
<!-- 3 -->
<g id="node4" class="node"><title>3</title>
<ellipse fill="cadetblue" stroke="black" cx="80.2337" cy="-216.437" rx="21.4286" ry="21.4286"/>
<text text-anchor="middle" x="80.2337" y="-211.437" font-family="Times New Roman,serif" font-size="20.00">2</text>
</g>
<!-- 5 -->
<g id="node6" class="node"><title>5</title>
<ellipse fill="cadetblue" stroke="black" cx="21.2132" cy="-147.477" rx="21.4286" ry="21.4286"/>
<text text-anchor="middle" x="21.2132" y="-142.477" font-family="Times New Roman,serif" font-size="20.00">2</text>
</g>
<!-- 3&#45;&gt;5 -->
<g id="edge12" class="edge"><title>3&#45;&gt;5</title>
<path fill="none" stroke="black" stroke-width="2" d="M66.2467,-200.095C58.8964,-191.506 49.75,-180.82 41.6239,-171.325"/>
<polygon fill="black" stroke="black" stroke-width="2" points="44.2613,-169.024 35.0998,-163.702 38.9431,-173.576 44.2613,-169.024"/>
</g>
<!-- 4&#45;&gt;0 -->
<g id="edge1" class="edge"><title>4&#45;&gt;0</title>
<path fill="none" stroke="black" stroke-width="2" d="M213.364,-86.5933C197.824,-83.9412 176.451,-80.2937 158.914,-77.3007"/>
<polygon fill="black" stroke="black" stroke-width="2" points="159.022,-73.7687 148.576,-75.5365 157.845,-80.669 159.022,-73.7687"/>
</g>
<!-- 4&#45;&gt;1 -->
<g id="edge5" class="edge"><title>4&#45;&gt;1</title>
<path fill="none" stroke="black" stroke-width="2" d="M216.976,-102.72C199.838,-114.954 173.55,-133.72 154.046,-147.643"/>
<polygon fill="black" stroke="black" stroke-width="2" points="151.99,-144.811 145.884,-153.47 156.057,-150.508 151.99,-144.811"/>
</g>
<!-- 5&#45;&gt;0 -->
<g id="edge2" class="edge"><title>5&#45;&gt;0</title>
<path fill="none" stroke="black" stroke-width="2" d="M38.7598,-135.003C55.9101,-122.81 82.2154,-104.109 101.733,-90.2339"/>
<polygon fill="black" stroke="black" stroke-width="2" points="103.778,-93.0746 109.9,-84.4277 99.7218,-87.3694 103.778,-93.0746"/>
</g>
<!-- 5&#45;&gt;1 -->
<g id="edge6" class="edge"><title>5&#45;&gt;1</title>
<path fill="none" stroke="black" stroke-width="2" d="M42.1194,-151.094C57.7944,-153.805 79.5035,-157.561 97.2142,-160.624"/>
<polygon fill="black" stroke="black" stroke-width="2" points="96.6538,-164.079 107.104,-162.335 97.847,-157.182 96.6538,-164.079"/>
</g>
<!-- 6&#45;&gt;2 -->
<g id="edge10" class="edge"><title>6&#45;&gt;2</title>
<path fill="none" stroke="black" stroke-width="2" d="M194.902,-135.273C191.076,-112.952 185.004,-77.5273 180.642,-52.0778"/>
<polygon fill="black" stroke="black" stroke-width="2" points="184.085,-51.452 178.946,-42.1871 177.186,-52.6347 184.085,-51.452"/>
</g>
<!-- 6&#45;&gt;3 -->
<g id="edge13" class="edge"><title>6&#45;&gt;3</title>
<path fill="none" stroke="black" stroke-width="2" d="M180.003,-166.858C170.217,-172.303 157.962,-178.992 146.856,-184.673 134.557,-190.965 120.801,-197.591 108.997,-203.153"/>
<polygon fill="black" stroke="black" stroke-width="2" points="107.188,-200.136 99.6148,-207.545 110.156,-206.475 107.188,-200.136"/>
</g>
<!-- 6&#45;&gt;4 -->
<g id="edge15" class="edge"><title>6&#45;&gt;4</title>
<path fill="none" stroke="black" stroke-width="2" d="M208.739,-137.604C211.978,-131.646 215.634,-124.923 219.152,-118.452"/>
<polygon fill="black" stroke="black" stroke-width="2" points="222.442,-119.728 224.144,-109.27 216.292,-116.384 222.442,-119.728"/>
</g>
<!-- 7&#45;&gt;2 -->
<g id="edge11" class="edge"><title>7&#45;&gt;2</title>
<path fill="none" stroke="black" stroke-width="2" d="M75.7608,-70.9791C85.5554,-65.6051 97.811,-58.9878 108.89,-53.3179 121.188,-47.0239 134.915,-40.3371 146.687,-34.7047"/>
<polygon fill="black" stroke="black" stroke-width="2" points="148.515,-37.7109 156.04,-30.2532 145.507,-31.3902 148.515,-37.7109"/>
</g>
<!-- 7&#45;&gt;3 -->
<g id="edge14" class="edge"><title>7&#45;&gt;3</title>
<path fill="none" stroke="black" stroke-width="2" d="M60.8105,-102.402C64.6115,-124.718 70.644,-160.135 74.9778,-185.579"/>
<polygon fill="black" stroke="black" stroke-width="2" points="71.5326,-186.197 76.6621,-195.468 78.4332,-185.022 71.5326,-186.197"/>
</g>
<!-- 7&#45;&gt;5 -->
<g id="edge16" class="edge"><title>7&#45;&gt;5</title>
<path fill="none" stroke="black" stroke-width="2" d="M46.9936,-100.076C43.7533,-106.033 40.0966,-112.757 36.5772,-119.228"/>
<polygon fill="black" stroke="black" stroke-width="2" points="33.2869,-117.952 31.5837,-128.409 39.4363,-121.297 33.2869,-117.952"/>
</g>
</g>
</svg>

