<?xml version="1.0" encoding="UTF-8" standalone="no"?>
<!DOCTYPE svg PUBLIC "-//W3C//DTD SVG 1.1//EN"
 "http://www.w3.org/Graphics/SVG/1.1/DTD/svg11.dtd">
<!-- Generated by graphviz version 2.36.0 (20140111.2315)
 -->
<!-- Title: G Pages: 1 -->
<svg width="100%" height="100%"
 viewBox="0.00 0.00 246.95 309.09" xmlns="http://www.w3.org/2000/svg" xmlns:xlink="http://www.w3.org/1999/xlink">
<g id="graph0" class="graph" transform="scale(1 1) rotate(0) translate(4 305.089)">
<title>G</title>
<!-- 0 -->
<g id="node1" class="node"><title>0</title>
<ellipse fill="cadetblue" stroke="black" cx="26.7344" cy="-99.0375" rx="21.4286" ry="21.4286"/>
<text text-anchor="middle" x="26.7344" y="-94.0375" font-family="Times New Roman,serif" font-size="20.00">2</text>
</g>
<!-- 6 -->
<g id="node7" class="node"><title>6</title>
<ellipse fill="cadetblue" stroke="black" cx="176.794" cy="-163.94" rx="21.4286" ry="21.4286"/>
<text text-anchor="middle" x="176.794" y="-158.94" font-family="Times New Roman,serif" font-size="20.00">2</text>
</g>
<!-- 0&#45;&gt;6 -->
<g id="edge3" class="edge"><title>0&#45;&gt;6</title>
<path fill="none" stroke="black" stroke-width="2" d="M48.1271,-100.84C71.9223,-103.687 110.717,-110.905 138.895,-128.936 144.44,-132.484 149.926,-136.88 154.928,-141.345"/>
<polygon fill="black" stroke="black" stroke-width="2" points="152.648,-144.005 162.331,-148.306 157.443,-138.906 152.648,-144.005"/>
</g>
<!-- 7 -->
<g id="node8" class="node"><title>7</title>
<ellipse fill="cadetblue" stroke="black" cx="120.294" cy="-147.535" rx="21.4286" ry="21.4286"/>
<text text-anchor="middle" x="120.294" y="-142.535" font-family="Times New Roman,serif" font-size="20.00">2</text>
</g>
<!-- 0&#45;&gt;7 -->
<g id="edge4" class="edge"><title>0&#45;&gt;7</title>
<path fill="none" stroke="black" stroke-width="2" d="M45.6676,-108.852C59.11,-115.82 77.3755,-125.288 92.4712,-133.113"/>
<polygon fill="black" stroke="black" stroke-width="2" points="90.9005,-136.241 101.389,-137.735 94.1219,-130.026 90.9005,-136.241"/>
</g>
<!-- 1 -->
<g id="node2" class="node"><title>1</title>
<ellipse fill="cadetblue" stroke="black" cx="21.2132" cy="-149.469" rx="21.4286" ry="21.4286"/>
<text text-anchor="middle" x="21.2132" y="-144.469" font-family="Times New Roman,serif" font-size="20.00">2</text>
</g>
<!-- 1&#45;&gt;6 -->
<g id="edge7" class="edge"><title>1&#45;&gt;6</title>
<path fill="none" stroke="black" stroke-width="2" d="M41.3581,-157.032C61.1354,-163.831 92.321,-172.892 120.293,-173.839 128.855,-174.13 138.043,-173.107 146.469,-171.621"/>
<polygon fill="black" stroke="black" stroke-width="2" points="147.169,-175.05 156.276,-169.636 145.78,-168.189 147.169,-175.05"/>
</g>
<!-- 1&#45;&gt;7 -->
<g id="edge8" class="edge"><title>1&#45;&gt;7</title>
<path fill="none" stroke="black" stroke-width="2" d="M42.7124,-149.049C56.0857,-148.788 73.5239,-148.448 88.4796,-148.156"/>
<polygon fill="black" stroke="black" stroke-width="2" points="88.9075,-151.648 98.8373,-147.954 88.7709,-144.65 88.9075,-151.648"/>
</g>
<!-- 2 -->
<g id="node3" class="node"><title>2</title>
<ellipse fill="cadetblue" stroke="black" cx="217.737" cy="-52.8849" rx="21.4286" ry="21.4286"/>
<text text-anchor="middle" x="217.737" y="-47.8849" font-family="Times New Roman,serif" font-size="20.00">2</text>
</g>
<!-- 4 -->
<g id="node5" class="node"><title>4</title>
<ellipse fill="cadetblue" stroke="black" cx="93.2706" cy="-21.2132" rx="21.4286" ry="21.4286"/>
<text text-anchor="middle" x="93.2706" y="-16.2132" font-family="Times New Roman,serif" font-size="20.00">2</text>
</g>
<!-- 2&#45;&gt;4 -->
<g id="edge9" class="edge"><title>2&#45;&gt;4</title>
<path fill="none" stroke="black" stroke-width="2" d="M196.904,-47.5837C176.979,-42.5138 146.694,-34.8073 124,-29.0326"/>
<polygon fill="black" stroke="black" stroke-width="2" points="124.726,-25.6058 114.171,-26.5316 122.999,-32.3896 124.726,-25.6058"/>
</g>
<!-- 3 -->
<g id="node4" class="node"><title>3</title>
<ellipse fill="cadetblue" stroke="black" cx="157.536" cy="-279.876" rx="21.4286" ry="21.4286"/>
<text text-anchor="middle" x="157.536" y="-274.876" font-family="Times New Roman,serif" font-size="20.00">2</text>
</g>
<!-- 5 -->
<g id="node6" class="node"><title>5</title>
<ellipse fill="cadetblue" stroke="black" cx="33.1806" cy="-247.249" rx="21.4286" ry="21.4286"/>
<text text-anchor="middle" x="33.1806" y="-242.249" font-family="Times New Roman,serif" font-size="20.00">2</text>
</g>
<!-- 3&#45;&gt;5 -->
<g id="edge12" class="edge"><title>3&#45;&gt;5</title>
<path fill="none" stroke="black" stroke-width="2" d="M137.002,-274.488C117.021,-269.246 86.4214,-261.218 63.6118,-255.233"/>
<polygon fill="black" stroke="black" stroke-width="2" points="64.3068,-251.797 53.746,-252.645 62.5304,-258.568 64.3068,-251.797"/>
</g>
<!-- 4&#45;&gt;0 -->
<g id="edge1" class="edge"><title>4&#45;&gt;0</title>
<path fill="none" stroke="black" stroke-width="2" d="M79.4843,-37.3385C70.1793,-48.222 57.735,-62.7776 47.2701,-75.0178"/>
<polygon fill="black" stroke="black" stroke-width="2" points="44.57,-72.79 40.732,-82.6652 49.8906,-77.3388 44.57,-72.79"/>
</g>
<!-- 4&#45;&gt;1 -->
<g id="edge5" class="edge"><title>4&#45;&gt;1</title>
<path fill="none" stroke="black" stroke-width="2" d="M84.7478,-41C75.8711,-60.9104 61.08,-92.2255 45.3173,-117.655 43.9437,-119.871 42.4531,-122.122 40.9097,-124.352"/>
<polygon fill="black" stroke="black" stroke-width="2" points="37.8795,-122.568 34.8305,-132.714 43.5416,-126.684 37.8795,-122.568"/>
</g>
<!-- 5&#45;&gt;0 -->
<g id="edge2" class="edge"><title>5&#45;&gt;0</title>
<path fill="none" stroke="black" stroke-width="2" d="M39.4199,-226.706C44.6512,-206.965 50.7834,-176.277 47.5174,-149.565 46.5835,-141.927 44.1544,-134.056 41.2716,-126.866"/>
<polygon fill="black" stroke="black" stroke-width="2" points="44.4052,-125.298 37.157,-117.571 38.0042,-128.132 44.4052,-125.298"/>
</g>
<!-- 5&#45;&gt;1 -->
<g id="edge6" class="edge"><title>5&#45;&gt;1</title>
<path fill="none" stroke="black" stroke-width="2" d="M30.5839,-226.032C28.9686,-212.835 26.8623,-195.625 25.0559,-180.866"/>
<polygon fill="black" stroke="black" stroke-width="2" points="28.4939,-180.145 23.8049,-170.644 21.5457,-180.996 28.4939,-180.145"/>
</g>
<!-- 6&#45;&gt;2 -->
<g id="edge10" class="edge"><title>6&#45;&gt;2</title>
<path fill="none" stroke="black" stroke-width="2" d="M184.208,-143.829C190.527,-126.689 199.694,-101.824 206.847,-82.4235"/>
<polygon fill="black" stroke="black" stroke-width="2" points="210.202,-83.4398 210.377,-72.8465 203.634,-81.0184 210.202,-83.4398"/>
</g>
<!-- 6&#45;&gt;3 -->
<g id="edge13" class="edge"><title>6&#45;&gt;3</title>
<path fill="none" stroke="black" stroke-width="2" d="M173.307,-184.935C170.353,-202.716 166.076,-228.464 162.721,-248.661"/>
<polygon fill="black" stroke="black" stroke-width="2" points="159.249,-248.207 161.063,-258.645 166.154,-249.354 159.249,-248.207"/>
</g>
<!-- 7&#45;&gt;2 -->
<g id="edge11" class="edge"><title>7&#45;&gt;2</title>
<path fill="none" stroke="black" stroke-width="2" d="M135.52,-132.746C151.444,-117.278 176.621,-92.8225 194.921,-75.0462"/>
<polygon fill="black" stroke="black" stroke-width="2" points="197.562,-77.3606 202.297,-67.8825 192.685,-72.3395 197.562,-77.3606"/>
</g>
<!-- 7&#45;&gt;3 -->
<g id="edge14" class="edge"><title>7&#45;&gt;3</title>
<path fill="none" stroke="black" stroke-width="2" d="M126.114,-168.213C132.263,-190.065 142.022,-224.745 149.033,-249.66"/>
<polygon fill="black" stroke="black" stroke-width="2" points="145.68,-250.665 151.758,-259.343 152.418,-248.768 145.68,-250.665"/>
</g>
<!-- 7&#45;&gt;4 -->
<g id="edge15" class="edge"><title>7&#45;&gt;4</title>
<path fill="none" stroke="black" stroke-width="2" d="M115.832,-126.676C111.49,-106.379 104.84,-75.2957 99.8836,-52.1255"/>
<polygon fill="black" stroke="black" stroke-width="2" points="103.254,-51.1502 97.7397,-42.1037 96.4092,-52.6146 103.254,-51.1502"/>
</g>
<!-- 7&#45;&gt;5 -->
<g id="edge16" class="edge"><title>7&#45;&gt;5</title>
<path fill="none" stroke="black" stroke-width="2" d="M106.298,-163.556C92.1373,-179.765 70.0837,-205.008 53.8978,-223.535"/>
<polygon fill="black" stroke="black" stroke-width="2" points="51.0857,-221.435 47.1422,-231.268 56.3573,-226.04 51.0857,-221.435"/>
</g>
</g>
</svg>

