<?xml version="1.0" encoding="UTF-8" standalone="no"?>
<!DOCTYPE svg PUBLIC "-//W3C//DTD SVG 1.1//EN"
 "http://www.w3.org/Graphics/SVG/1.1/DTD/svg11.dtd">
<!-- Generated by graphviz version 2.36.0 (20140111.2315)
 -->
<!-- Title: G Pages: 1 -->
<svg width="100%" height="100%"
 viewBox="0.00 0.00 210.80 231.62" xmlns="http://www.w3.org/2000/svg" xmlns:xlink="http://www.w3.org/1999/xlink">
<g id="graph0" class="graph" transform="scale(1 1) rotate(0) translate(4 227.616)">
<title>G</title>
<!-- 0 -->
<g id="node1" class="node"><title>0</title>
<ellipse fill="cadetblue" stroke="black" cx="21.2132" cy="-79.0098" rx="21.4286" ry="21.4286"/>
<text text-anchor="middle" x="21.2132" y="-74.0098" font-family="Times New Roman,serif" font-size="20.00">2</text>
</g>
<!-- 6 -->
<g id="node7" class="node"><title>6</title>
<ellipse fill="cadetblue" stroke="black" cx="148.645" cy="-102.201" rx="21.4286" ry="21.4286"/>
<text text-anchor="middle" x="148.645" y="-97.201" font-family="Times New Roman,serif" font-size="20.00">2</text>
</g>
<!-- 0&#45;&gt;6 -->
<g id="edge3" class="edge"><title>0&#45;&gt;6</title>
<path fill="none" stroke="black" stroke-width="2" d="M42.7284,-79.328C58.34,-79.9003 79.8903,-81.3975 98.4735,-85.2277 105.371,-86.6494 112.633,-88.7398 119.423,-90.9715"/>
<polygon fill="black" stroke="black" stroke-width="2" points="118.342,-94.301 128.937,-94.2808 120.642,-87.6896 118.342,-94.301"/>
</g>
<!-- 7 -->
<g id="node8" class="node"><title>7</title>
<ellipse fill="cadetblue" stroke="black" cx="95.8413" cy="-43.3765" rx="21.4286" ry="21.4286"/>
<text text-anchor="middle" x="95.8413" y="-38.3765" font-family="Times New Roman,serif" font-size="20.00">2</text>
</g>
<!-- 0&#45;&gt;7 -->
<g id="edge4" class="edge"><title>0&#45;&gt;7</title>
<path fill="none" stroke="black" stroke-width="2" d="M40.4318,-69.8334C48.7014,-65.8848 58.5357,-61.1892 67.6075,-56.8576"/>
<polygon fill="black" stroke="black" stroke-width="2" points="69.1718,-59.9892 76.6878,-52.5219 66.1556,-53.6723 69.1718,-59.9892"/>
</g>
<!-- 1 -->
<g id="node2" class="node"><title>1</title>
<ellipse fill="cadetblue" stroke="black" cx="24.6779" cy="-131.998" rx="21.4286" ry="21.4286"/>
<text text-anchor="middle" x="24.6779" y="-126.998" font-family="Times New Roman,serif" font-size="20.00">2</text>
</g>
<!-- 1&#45;&gt;6 -->
<g id="edge7" class="edge"><title>1&#45;&gt;6</title>
<path fill="none" stroke="black" stroke-width="2" d="M45.6164,-136.22C60.3225,-138.563 80.4183,-140.514 97.9534,-137.834 108.213,-136.266 117.94,-130.818 126.078,-124.638"/>
<polygon fill="black" stroke="black" stroke-width="2" points="128.513,-127.164 133.94,-118.064 124.023,-121.794 128.513,-127.164"/>
</g>
<!-- 1&#45;&gt;7 -->
<g id="edge8" class="edge"><title>1&#45;&gt;7</title>
<path fill="none" stroke="black" stroke-width="2" d="M38.0632,-115.329C48.7981,-101.961 64.021,-83.0033 76.1465,-67.9031"/>
<polygon fill="black" stroke="black" stroke-width="2" points="78.9838,-69.9596 82.516,-59.9709 73.5257,-65.5767 78.9838,-69.9596"/>
</g>
<!-- 2 -->
<g id="node3" class="node"><title>2</title>
<ellipse fill="cadetblue" stroke="black" cx="181.583" cy="-21.2132" rx="21.4286" ry="21.4286"/>
<text text-anchor="middle" x="181.583" y="-16.2132" font-family="Times New Roman,serif" font-size="20.00">2</text>
</g>
<!-- 4 -->
<g id="node5" class="node"><title>4</title>
<ellipse fill="cadetblue" stroke="black" cx="98.2135" cy="-111.531" rx="21.4286" ry="21.4286"/>
<text text-anchor="middle" x="98.2135" y="-106.531" font-family="Times New Roman,serif" font-size="20.00">2</text>
</g>
<!-- 2&#45;&gt;4 -->
<g id="edge9" class="edge"><title>2&#45;&gt;4</title>
<path fill="none" stroke="black" stroke-width="2" d="M167.061,-36.9453C153.991,-51.1045 134.611,-72.0998 119.74,-88.2106"/>
<polygon fill="black" stroke="black" stroke-width="2" points="117.06,-85.9538 112.849,-95.6759 122.203,-90.7018 117.06,-85.9538"/>
</g>
<!-- 3 -->
<g id="node4" class="node"><title>3</title>
<ellipse fill="cadetblue" stroke="black" cx="162.013" cy="-183.486" rx="21.4286" ry="21.4286"/>
<text text-anchor="middle" x="162.013" y="-178.486" font-family="Times New Roman,serif" font-size="20.00">2</text>
</g>
<!-- 5 -->
<g id="node6" class="node"><title>5</title>
<ellipse fill="cadetblue" stroke="black" cx="57.0691" cy="-202.403" rx="21.4286" ry="21.4286"/>
<text text-anchor="middle" x="57.0691" y="-197.403" font-family="Times New Roman,serif" font-size="20.00">2</text>
</g>
<!-- 3&#45;&gt;5 -->
<g id="edge12" class="edge"><title>3&#45;&gt;5</title>
<path fill="none" stroke="black" stroke-width="2" d="M141.028,-187.269C125.871,-190.001 105.15,-193.736 88.0869,-196.812"/>
<polygon fill="black" stroke="black" stroke-width="2" points="87.2379,-193.408 78.0174,-198.627 88.4797,-200.297 87.2379,-193.408"/>
</g>
<!-- 4&#45;&gt;0 -->
<g id="edge1" class="edge"><title>4&#45;&gt;0</title>
<path fill="none" stroke="black" stroke-width="2" d="M78.384,-103.156C69.8515,-99.5521 59.7046,-95.2666 50.3444,-91.3134"/>
<polygon fill="black" stroke="black" stroke-width="2" points="51.5493,-88.0229 40.9755,-87.3564 48.8258,-94.4714 51.5493,-88.0229"/>
</g>
<!-- 4&#45;&gt;1 -->
<g id="edge5" class="edge"><title>4&#45;&gt;1</title>
<path fill="none" stroke="black" stroke-width="2" d="M77.7297,-117.232C70.6971,-119.19 62.6684,-121.424 55.0222,-123.552"/>
<polygon fill="black" stroke="black" stroke-width="2" points="54.0021,-120.203 45.3069,-126.257 55.8792,-126.947 54.0021,-120.203"/>
</g>
<!-- 4&#45;&gt;5 -->
<g id="edge15" class="edge"><title>4&#45;&gt;5</title>
<path fill="none" stroke="black" stroke-width="2" d="M89.2857,-131.249C83.64,-143.718 76.2497,-160.04 69.9716,-173.906"/>
<polygon fill="black" stroke="black" stroke-width="2" points="66.7743,-172.482 65.838,-183.036 73.1511,-175.37 66.7743,-172.482"/>
</g>
<!-- 5&#45;&gt;0 -->
<g id="edge2" class="edge"><title>5&#45;&gt;0</title>
<path fill="none" stroke="black" stroke-width="2" d="M56.8853,-180.903C56.3567,-166.843 54.8769,-148.169 50.9821,-132.094 48.8751,-123.398 47.4776,-121.403 43.3456,-113.466 41.9143,-110.717 40.3287,-107.905 38.6828,-105.131"/>
<polygon fill="black" stroke="black" stroke-width="2" points="41.5859,-103.172 33.3352,-96.5253 35.6403,-106.866 41.5859,-103.172"/>
</g>
<!-- 5&#45;&gt;1 -->
<g id="edge6" class="edge"><title>5&#45;&gt;1</title>
<path fill="none" stroke="black" stroke-width="2" d="M48.0463,-182.791C44.8874,-175.925 41.2723,-168.068 37.8449,-160.618"/>
<polygon fill="black" stroke="black" stroke-width="2" points="41.0116,-159.127 33.6523,-151.505 34.6523,-162.052 41.0116,-159.127"/>
</g>
<!-- 6&#45;&gt;2 -->
<g id="edge10" class="edge"><title>6&#45;&gt;2</title>
<path fill="none" stroke="black" stroke-width="2" d="M156.787,-82.1815C160.696,-72.5703 165.454,-60.8707 169.753,-50.3002"/>
<polygon fill="black" stroke="black" stroke-width="2" points="173.009,-51.5842 173.534,-41.0024 166.525,-48.947 173.009,-51.5842"/>
</g>
<!-- 6&#45;&gt;3 -->
<g id="edge13" class="edge"><title>6&#45;&gt;3</title>
<path fill="none" stroke="black" stroke-width="2" d="M152.088,-123.134C153.542,-131.977 155.266,-142.463 156.867,-152.193"/>
<polygon fill="black" stroke="black" stroke-width="2" points="153.459,-153.042 158.536,-162.341 160.366,-151.906 153.459,-153.042"/>
</g>
<!-- 7&#45;&gt;2 -->
<g id="edge11" class="edge"><title>7&#45;&gt;2</title>
<path fill="none" stroke="black" stroke-width="2" d="M116.597,-38.0114C126.918,-35.3435 139.594,-32.0668 151.002,-29.118"/>
<polygon fill="black" stroke="black" stroke-width="2" points="152.212,-32.4203 161.018,-26.5289 150.46,-25.643 152.212,-32.4203"/>
</g>
<!-- 7&#45;&gt;3 -->
<g id="edge14" class="edge"><title>7&#45;&gt;3</title>
<path fill="none" stroke="black" stroke-width="2" d="M104.112,-62.9172C110.857,-78.6498 120.751,-101.277 130.023,-120.779 135.502,-132.304 141.833,-144.859 147.41,-155.687"/>
<polygon fill="black" stroke="black" stroke-width="2" points="144.367,-157.421 152.077,-164.688 150.581,-154.2 144.367,-157.421"/>
</g>
<!-- 7&#45;&gt;4 -->
<g id="edge16" class="edge"><title>7&#45;&gt;4</title>
<path fill="none" stroke="black" stroke-width="2" d="M96.5919,-64.941C96.7563,-69.6646 96.9337,-74.7608 97.1087,-79.7888"/>
<polygon fill="black" stroke="black" stroke-width="2" points="93.6138,-80.0005 97.4596,-89.8727 100.61,-79.757 93.6138,-80.0005"/>
</g>
</g>
</svg>

