<?xml version="1.0" encoding="UTF-8" standalone="no"?>
<!DOCTYPE svg PUBLIC "-//W3C//DTD SVG 1.1//EN"
 "http://www.w3.org/Graphics/SVG/1.1/DTD/svg11.dtd">
<!-- Generated by graphviz version 2.36.0 (20140111.2315)
 -->
<!-- Title: G Pages: 1 -->
<svg width="100%" height="100%"
 viewBox="0.00 0.00 274.28 273.07" xmlns="http://www.w3.org/2000/svg" xmlns:xlink="http://www.w3.org/1999/xlink">
<g id="graph0" class="graph" transform="scale(1 1) rotate(0) translate(4 269.066)">
<title>G</title>
<!-- 0 -->
<g id="node1" class="node"><title>0</title>
<ellipse fill="cadetblue" stroke="black" cx="65.8097" cy="-121.596" rx="21.4286" ry="21.4286"/>
<text text-anchor="middle" x="65.8097" y="-116.596" font-family="Times New Roman,serif" font-size="20.00">2</text>
</g>
<!-- 5 -->
<g id="node6" class="node"><title>5</title>
<ellipse fill="cadetblue" stroke="black" cx="63.6931" cy="-210.779" rx="21.4286" ry="21.4286"/>
<text text-anchor="middle" x="63.6931" y="-205.779" font-family="Times New Roman,serif" font-size="20.00">2</text>
</g>
<!-- 0&#45;&gt;5 -->
<g id="edge2" class="edge"><title>0&#45;&gt;5</title>
<path fill="none" stroke="black" stroke-width="2" d="M65.2973,-143.185C65.0399,-154.03 64.7232,-167.374 64.4394,-179.334"/>
<polygon fill="black" stroke="black" stroke-width="2" points="60.9391,-179.309 64.2008,-189.389 67.9371,-179.475 60.9391,-179.309"/>
</g>
<!-- 7 -->
<g id="node8" class="node"><title>7</title>
<ellipse fill="brown" stroke="black" cx="149.895" cy="-99.1529" rx="21.4286" ry="21.4286"/>
<text text-anchor="middle" x="149.895" y="-94.1529" font-family="Times New Roman,serif" font-size="20.00">3</text>
</g>
<!-- 0&#45;&gt;7 -->
<g id="edge4" class="edge"><title>0&#45;&gt;7</title>
<path fill="none" stroke="black" stroke-width="2" d="M86.5949,-116.048C96.472,-113.412 108.473,-110.209 119.359,-107.303"/>
<polygon fill="black" stroke="black" stroke-width="2" points="120.59,-110.597 129.349,-104.637 118.785,-103.834 120.59,-110.597"/>
</g>
<!-- 1 -->
<g id="node2" class="node"><title>1</title>
<ellipse fill="cadetblue" stroke="black" cx="21.2132" cy="-71.1643" rx="21.4286" ry="21.4286"/>
<text text-anchor="middle" x="21.2132" y="-66.1643" font-family="Times New Roman,serif" font-size="20.00">2</text>
</g>
<!-- 4 -->
<g id="node5" class="node"><title>4</title>
<ellipse fill="cadetblue" stroke="black" cx="130.498" cy="-21.2132" rx="21.4286" ry="21.4286"/>
<text text-anchor="middle" x="130.498" y="-16.2132" font-family="Times New Roman,serif" font-size="20.00">2</text>
</g>
<!-- 1&#45;&gt;4 -->
<g id="edge5" class="edge"><title>1&#45;&gt;4</title>
<path fill="none" stroke="black" stroke-width="2" d="M40.7512,-62.234C57.7681,-54.4561 82.6622,-43.0777 101.918,-34.2765"/>
<polygon fill="black" stroke="black" stroke-width="2" points="103.489,-37.4065 111.129,-30.0661 100.579,-31.04 103.489,-37.4065"/>
</g>
<!-- 2 -->
<g id="node3" class="node"><title>2</title>
<ellipse fill="cadetblue" stroke="black" cx="245.064" cy="-46.8194" rx="21.4286" ry="21.4286"/>
<text text-anchor="middle" x="245.064" y="-41.8194" font-family="Times New Roman,serif" font-size="20.00">2</text>
</g>
<!-- 2&#45;&gt;7 -->
<g id="edge10" class="edge"><title>2&#45;&gt;7</title>
<path fill="none" stroke="black" stroke-width="2" d="M226.262,-57.1588C212.445,-64.7567 193.442,-75.2063 177.85,-83.7807"/>
<polygon fill="black" stroke="black" stroke-width="2" points="175.735,-80.9495 168.659,-88.835 179.108,-87.0832 175.735,-80.9495"/>
</g>
<!-- 3 -->
<g id="node4" class="node"><title>3</title>
<ellipse fill="cadetblue" stroke="black" cx="171.364" cy="-243.853" rx="21.4286" ry="21.4286"/>
<text text-anchor="middle" x="171.364" y="-238.853" font-family="Times New Roman,serif" font-size="20.00">2</text>
</g>
<!-- 3&#45;&gt;5 -->
<g id="edge11" class="edge"><title>3&#45;&gt;5</title>
<path fill="none" stroke="black" stroke-width="2" d="M150.859,-237.554C134.694,-232.589 111.918,-225.593 93.7024,-219.997"/>
<polygon fill="black" stroke="black" stroke-width="2" points="94.7093,-216.645 84.1224,-217.054 92.6538,-223.336 94.7093,-216.645"/>
</g>
<!-- 4&#45;&gt;0 -->
<g id="edge1" class="edge"><title>4&#45;&gt;0</title>
<path fill="none" stroke="black" stroke-width="2" d="M118.933,-39.1596C108.968,-54.6229 94.4401,-77.1675 83.0946,-94.7734"/>
<polygon fill="black" stroke="black" stroke-width="2" points="79.9675,-93.1645 77.4927,-103.466 85.8516,-96.9564 79.9675,-93.1645"/>
</g>
<!-- 4&#45;&gt;2 -->
<g id="edge8" class="edge"><title>4&#45;&gt;2</title>
<path fill="none" stroke="black" stroke-width="2" d="M151.245,-25.8503C168.816,-29.7776 194.259,-35.4643 214.218,-39.9251"/>
<polygon fill="black" stroke="black" stroke-width="2" points="213.561,-43.3647 224.084,-42.1303 215.088,-36.5332 213.561,-43.3647"/>
</g>
<!-- 4&#45;&gt;7 -->
<g id="edge15" class="edge"><title>4&#45;&gt;7</title>
<path fill="none" stroke="black" stroke-width="2" d="M135.696,-42.0996C137.713,-50.2019 140.063,-59.6443 142.264,-68.4882"/>
<polygon fill="black" stroke="black" stroke-width="2" points="138.939,-69.6204 144.75,-78.4791 145.732,-67.9298 138.939,-69.6204"/>
</g>
<!-- 5&#45;&gt;1 -->
<g id="edge6" class="edge"><title>5&#45;&gt;1</title>
<path fill="none" stroke="black" stroke-width="2" d="M57.5162,-190.478C50.3746,-167.006 38.5523,-128.151 30.3477,-101.186"/>
<polygon fill="black" stroke="black" stroke-width="2" points="33.657,-100.038 27.3976,-91.49 26.9601,-102.076 33.657,-100.038"/>
</g>
<!-- 6 -->
<g id="node7" class="node"><title>6</title>
<ellipse fill="cadetblue" stroke="black" cx="186.608" cy="-151.465" rx="21.4286" ry="21.4286"/>
<text text-anchor="middle" x="186.608" y="-146.465" font-family="Times New Roman,serif" font-size="20.00">2</text>
</g>
<!-- 5&#45;&gt;6 -->
<g id="edge16" class="edge"><title>5&#45;&gt;6</title>
<path fill="none" stroke="black" stroke-width="2" d="M82.8986,-201.511C102.986,-191.818 134.744,-176.493 157.829,-165.353"/>
<polygon fill="black" stroke="black" stroke-width="2" points="159.647,-168.362 167.132,-160.864 156.604,-162.058 159.647,-168.362"/>
</g>
<!-- 6&#45;&gt;0 -->
<g id="edge3" class="edge"><title>6&#45;&gt;0</title>
<path fill="none" stroke="black" stroke-width="2" d="M165.842,-146.331C146.741,-141.607 118.172,-134.543 96.4496,-129.172"/>
<polygon fill="black" stroke="black" stroke-width="2" points="97.2567,-125.766 86.7089,-126.763 95.5764,-132.562 97.2567,-125.766"/>
</g>
<!-- 6&#45;&gt;2 -->
<g id="edge9" class="edge"><title>6&#45;&gt;2</title>
<path fill="none" stroke="black" stroke-width="2" d="M197.059,-132.757C206.161,-116.462 219.477,-92.6248 229.776,-74.1867"/>
<polygon fill="black" stroke="black" stroke-width="2" points="232.882,-75.8032 234.704,-65.366 226.771,-72.3894 232.882,-75.8032"/>
</g>
<!-- 6&#45;&gt;3 -->
<g id="edge12" class="edge"><title>6&#45;&gt;3</title>
<path fill="none" stroke="black" stroke-width="2" d="M183.149,-172.43C181.194,-184.276 178.713,-199.316 176.532,-212.536"/>
<polygon fill="black" stroke="black" stroke-width="2" points="173.037,-212.216 174.863,-222.652 179.944,-213.355 173.037,-212.216"/>
</g>
<!-- 6&#45;&gt;4 -->
<g id="edge14" class="edge"><title>6&#45;&gt;4</title>
<path fill="none" stroke="black" stroke-width="2" d="M183.382,-130.36C181.663,-120.734 179.264,-109.256 176.2,-99.1541 170.468,-80.2595 159.324,-61.1022 149.475,-46.5086"/>
<polygon fill="black" stroke="black" stroke-width="2" points="152.166,-44.249 143.571,-38.055 146.428,-48.2574 152.166,-44.249"/>
</g>
<!-- 7&#45;&gt;1 -->
<g id="edge7" class="edge"><title>7&#45;&gt;1</title>
<path fill="none" stroke="black" stroke-width="2" d="M128.934,-94.5937C108.089,-90.06 75.8746,-83.0532 52.1011,-77.8825"/>
<polygon fill="black" stroke="black" stroke-width="2" points="52.6811,-74.4269 42.1657,-75.7215 51.1933,-81.2669 52.6811,-74.4269"/>
</g>
<!-- 7&#45;&gt;3 -->
<g id="edge13" class="edge"><title>7&#45;&gt;3</title>
<path fill="none" stroke="black" stroke-width="2" d="M153.017,-120.194C156.627,-144.52 162.601,-184.791 166.748,-212.738"/>
<polygon fill="black" stroke="black" stroke-width="2" points="163.309,-213.409 168.239,-222.787 170.233,-212.382 163.309,-213.409"/>
</g>
<!-- 7&#45;&gt;6 -->
<g id="edge17" class="edge"><title>7&#45;&gt;6</title>
<path fill="none" stroke="black" stroke-width="2" d="M162.12,-116.572C164.142,-119.453 166.276,-122.494 168.408,-125.531"/>
<polygon fill="black" stroke="black" stroke-width="2" points="165.702,-127.769 174.311,-133.944 171.432,-123.748 165.702,-127.769"/>
</g>
</g>
</svg>

