<?xml version="1.0" encoding="UTF-8" standalone="no"?>
<!DOCTYPE svg PUBLIC "-//W3C//DTD SVG 1.1//EN"
 "http://www.w3.org/Graphics/SVG/1.1/DTD/svg11.dtd">
<!-- Generated by graphviz version 2.36.0 (20140111.2315)
 -->
<!-- Title: G Pages: 1 -->
<svg width="100%" height="100%"
 viewBox="0.00 0.00 275.46 315.10" xmlns="http://www.w3.org/2000/svg" xmlns:xlink="http://www.w3.org/1999/xlink">
<g id="graph0" class="graph" transform="scale(1 1) rotate(0) translate(4 311.105)">
<title>G</title>
<!-- 0 -->
<g id="node1" class="node"><title>0</title>
<ellipse fill="cadetblue" stroke="black" cx="74.5498" cy="-109.389" rx="21.4286" ry="21.4286"/>
<text text-anchor="middle" x="74.5498" y="-104.389" font-family="Times New Roman,serif" font-size="20.00">2</text>
</g>
<!-- 6 -->
<g id="node7" class="node"><title>6</title>
<ellipse fill="cadetblue" stroke="black" cx="200.699" cy="-178.84" rx="21.4286" ry="21.4286"/>
<text text-anchor="middle" x="200.699" y="-173.84" font-family="Times New Roman,serif" font-size="20.00">2</text>
</g>
<!-- 0&#45;&gt;6 -->
<g id="edge3" class="edge"><title>0&#45;&gt;6</title>
<path fill="none" stroke="black" stroke-width="2" d="M87.8487,-126.288C98.5768,-139.027 114.639,-156.211 131.666,-167.719 142.588,-175.1 156.666,-178.221 169.257,-179.367"/>
<polygon fill="black" stroke="black" stroke-width="2" points="169.207,-182.869 179.381,-179.915 169.585,-175.879 169.207,-182.869"/>
</g>
<!-- 7 -->
<g id="node8" class="node"><title>7</title>
<ellipse fill="cadetblue" stroke="black" cx="150.267" cy="-149.12" rx="21.4286" ry="21.4286"/>
<text text-anchor="middle" x="150.267" y="-144.12" font-family="Times New Roman,serif" font-size="20.00">2</text>
</g>
<!-- 0&#45;&gt;7 -->
<g id="edge4" class="edge"><title>0&#45;&gt;7</title>
<path fill="none" stroke="black" stroke-width="2" d="M93.6565,-119.415C102.331,-123.966 112.762,-129.44 122.295,-134.442"/>
<polygon fill="black" stroke="black" stroke-width="2" points="120.948,-137.688 131.429,-139.235 124.2,-131.489 120.948,-137.688"/>
</g>
<!-- 1 -->
<g id="node2" class="node"><title>1</title>
<ellipse fill="cadetblue" stroke="black" cx="21.2132" cy="-126.045" rx="21.4286" ry="21.4286"/>
<text text-anchor="middle" x="21.2132" y="-121.045" font-family="Times New Roman,serif" font-size="20.00">2</text>
</g>
<!-- 1&#45;&gt;6 -->
<g id="edge7" class="edge"><title>1&#45;&gt;6</title>
<path fill="none" stroke="black" stroke-width="2" d="M40.332,-135.439C65.0477,-147.092 109.734,-166.508 150.266,-175.424 156.306,-176.753 162.842,-177.609 169.143,-178.152"/>
<polygon fill="black" stroke="black" stroke-width="2" points="169.197,-181.662 179.398,-178.798 169.638,-174.676 169.197,-181.662"/>
</g>
<!-- 2 -->
<g id="node3" class="node"><title>2</title>
<ellipse fill="cadetblue" stroke="black" cx="246.246" cy="-64.5776" rx="21.4286" ry="21.4286"/>
<text text-anchor="middle" x="246.246" y="-59.5776" font-family="Times New Roman,serif" font-size="20.00">2</text>
</g>
<!-- 4 -->
<g id="node5" class="node"><title>4</title>
<ellipse fill="cadetblue" stroke="black" cx="122.332" cy="-21.2132" rx="21.4286" ry="21.4286"/>
<text text-anchor="middle" x="122.332" y="-16.2132" font-family="Times New Roman,serif" font-size="20.00">2</text>
</g>
<!-- 2&#45;&gt;4 -->
<g id="edge8" class="edge"><title>2&#45;&gt;4</title>
<path fill="none" stroke="black" stroke-width="2" d="M226.061,-57.5138C205.989,-50.4894 174.968,-39.6334 152.075,-31.622"/>
<polygon fill="black" stroke="black" stroke-width="2" points="153.103,-28.2736 142.508,-28.2739 150.791,-34.8807 153.103,-28.2736"/>
</g>
<!-- 3 -->
<g id="node4" class="node"><title>3</title>
<ellipse fill="cadetblue" stroke="black" cx="165.23" cy="-285.892" rx="21.4286" ry="21.4286"/>
<text text-anchor="middle" x="165.23" y="-280.892" font-family="Times New Roman,serif" font-size="20.00">2</text>
</g>
<!-- 5 -->
<g id="node6" class="node"><title>5</title>
<ellipse fill="cadetblue" stroke="black" cx="49.9302" cy="-236.68" rx="21.4286" ry="21.4286"/>
<text text-anchor="middle" x="49.9302" y="-231.68" font-family="Times New Roman,serif" font-size="20.00">2</text>
</g>
<!-- 3&#45;&gt;5 -->
<g id="edge11" class="edge"><title>3&#45;&gt;5</title>
<path fill="none" stroke="black" stroke-width="2" d="M145.671,-277.544C127.367,-269.731 99.7917,-257.962 78.9288,-249.057"/>
<polygon fill="black" stroke="black" stroke-width="2" points="80.1564,-245.776 69.5851,-245.069 77.4085,-252.214 80.1564,-245.776"/>
</g>
<!-- 4&#45;&gt;0 -->
<g id="edge1" class="edge"><title>4&#45;&gt;0</title>
<path fill="none" stroke="black" stroke-width="2" d="M112.199,-39.9131C105.61,-52.0711 96.9044,-68.1366 89.524,-81.7562"/>
<polygon fill="black" stroke="black" stroke-width="2" points="86.3558,-80.2566 84.6686,-90.7162 92.5102,-83.5917 86.3558,-80.2566"/>
</g>
<!-- 4&#45;&gt;1 -->
<g id="edge5" class="edge"><title>4&#45;&gt;1</title>
<path fill="none" stroke="black" stroke-width="2" d="M107.412,-36.6814C90.4592,-54.2563 62.6305,-83.1067 43.1933,-103.257"/>
<polygon fill="black" stroke="black" stroke-width="2" points="40.6183,-100.886 36.1949,-110.513 45.6565,-105.745 40.6183,-100.886"/>
</g>
<!-- 5&#45;&gt;0 -->
<g id="edge2" class="edge"><title>5&#45;&gt;0</title>
<path fill="none" stroke="black" stroke-width="2" d="M53.9956,-215.661C57.9514,-195.208 64.0093,-163.887 68.5251,-140.539"/>
<polygon fill="black" stroke="black" stroke-width="2" points="72.0156,-140.923 70.4783,-130.44 65.143,-139.593 72.0156,-140.923"/>
</g>
<!-- 5&#45;&gt;1 -->
<g id="edge6" class="edge"><title>5&#45;&gt;1</title>
<path fill="none" stroke="black" stroke-width="2" d="M44.5961,-216.13C40.2513,-199.391 34.0527,-175.51 29.1292,-156.542"/>
<polygon fill="black" stroke="black" stroke-width="2" points="32.5164,-155.66 26.6162,-146.86 25.7409,-157.419 32.5164,-155.66"/>
</g>
<!-- 6&#45;&gt;2 -->
<g id="edge9" class="edge"><title>6&#45;&gt;2</title>
<path fill="none" stroke="black" stroke-width="2" d="M208.633,-158.937C215.773,-141.024 226.361,-114.462 234.486,-94.0803"/>
<polygon fill="black" stroke="black" stroke-width="2" points="237.799,-95.221 238.251,-84.6358 231.296,-92.629 237.799,-95.221"/>
</g>
<!-- 6&#45;&gt;3 -->
<g id="edge12" class="edge"><title>6&#45;&gt;3</title>
<path fill="none" stroke="black" stroke-width="2" d="M193.944,-199.227C188.619,-215.3 181.116,-237.944 175.115,-256.055"/>
<polygon fill="black" stroke="black" stroke-width="2" points="171.782,-254.987 171.96,-265.58 178.427,-257.188 171.782,-254.987"/>
</g>
<!-- 6&#45;&gt;7 -->
<g id="edge16" class="edge"><title>6&#45;&gt;7</title>
<path fill="none" stroke="black" stroke-width="2" d="M182.206,-167.942C180.699,-167.054 179.157,-166.145 177.604,-165.23"/>
<polygon fill="black" stroke="black" stroke-width="2" points="179.15,-162.078 168.758,-160.016 175.596,-168.109 179.15,-162.078"/>
</g>
<!-- 7&#45;&gt;2 -->
<g id="edge10" class="edge"><title>7&#45;&gt;2</title>
<path fill="none" stroke="black" stroke-width="2" d="M166.549,-134.778C181.947,-121.215 205.228,-100.708 222.658,-85.3551"/>
<polygon fill="black" stroke="black" stroke-width="2" points="225.015,-87.9435 230.205,-78.7072 220.388,-82.6907 225.015,-87.9435"/>
</g>
<!-- 7&#45;&gt;3 -->
<g id="edge13" class="edge"><title>7&#45;&gt;3</title>
<path fill="none" stroke="black" stroke-width="2" d="M152.605,-170.49C155.076,-193.074 158.997,-228.915 161.814,-254.664"/>
<polygon fill="black" stroke="black" stroke-width="2" points="158.341,-255.111 162.908,-264.671 165.3,-254.35 158.341,-255.111"/>
</g>
<!-- 7&#45;&gt;4 -->
<g id="edge14" class="edge"><title>7&#45;&gt;4</title>
<path fill="none" stroke="black" stroke-width="2" d="M145.717,-128.285C141.192,-107.566 134.198,-75.5451 129.037,-51.9149"/>
<polygon fill="black" stroke="black" stroke-width="2" points="132.434,-51.0622 126.881,-42.0394 125.595,-52.5559 132.434,-51.0622"/>
</g>
<!-- 7&#45;&gt;5 -->
<g id="edge15" class="edge"><title>7&#45;&gt;5</title>
<path fill="none" stroke="black" stroke-width="2" d="M134.146,-163.188C117.836,-177.421 92.4349,-199.588 73.7921,-215.857"/>
<polygon fill="black" stroke="black" stroke-width="2" points="71.2443,-213.435 66.0111,-222.647 75.8469,-218.709 71.2443,-213.435"/>
</g>
</g>
</svg>

