<?xml version="1.0" encoding="UTF-8" standalone="no"?>
<!DOCTYPE svg PUBLIC "-//W3C//DTD SVG 1.1//EN"
 "http://www.w3.org/Graphics/SVG/1.1/DTD/svg11.dtd">
<!-- Generated by graphviz version 2.36.0 (20140111.2315)
 -->
<!-- Title: G Pages: 1 -->
<svg width="100%" height="100%"
 viewBox="0.00 0.00 270.58 265.84" xmlns="http://www.w3.org/2000/svg" xmlns:xlink="http://www.w3.org/1999/xlink">
<g id="graph0" class="graph" transform="scale(1 1) rotate(0) translate(4 261.842)">
<title>G</title>
<!-- 0 -->
<g id="node1" class="node"><title>0</title>
<ellipse fill="cadetblue" stroke="black" cx="58.2268" cy="-74.2242" rx="21.4286" ry="21.4286"/>
<text text-anchor="middle" x="58.2268" y="-69.2242" font-family="Times New Roman,serif" font-size="20.00">2</text>
</g>
<!-- 6 -->
<g id="node7" class="node"><title>6</title>
<ellipse fill="cadetblue" stroke="black" cx="202.083" cy="-119.099" rx="21.4286" ry="21.4286"/>
<text text-anchor="middle" x="202.083" y="-114.099" font-family="Times New Roman,serif" font-size="20.00">2</text>
</g>
<!-- 0&#45;&gt;6 -->
<g id="edge3" class="edge"><title>0&#45;&gt;6</title>
<path fill="none" stroke="black" stroke-width="2" d="M78.5327,-80.5584C102.813,-88.1325 143.68,-100.881 171.719,-109.627"/>
<polygon fill="black" stroke="black" stroke-width="2" points="170.826,-113.015 181.414,-112.651 172.91,-106.332 170.826,-113.015"/>
</g>
<!-- 1 -->
<g id="node2" class="node"><title>1</title>
<ellipse fill="cadetblue" stroke="black" cx="21.2132" cy="-132.082" rx="21.4286" ry="21.4286"/>
<text text-anchor="middle" x="21.2132" y="-127.082" font-family="Times New Roman,serif" font-size="20.00">2</text>
</g>
<!-- 7 -->
<g id="node8" class="node"><title>7</title>
<ellipse fill="cadetblue" stroke="black" cx="151.651" cy="-130.024" rx="21.4286" ry="21.4286"/>
<text text-anchor="middle" x="151.651" y="-125.024" font-family="Times New Roman,serif" font-size="20.00">2</text>
</g>
<!-- 1&#45;&gt;7 -->
<g id="edge6" class="edge"><title>1&#45;&gt;7</title>
<path fill="none" stroke="black" stroke-width="2" d="M42.4606,-131.747C63.5897,-131.414 96.244,-130.899 120.342,-130.518"/>
<polygon fill="black" stroke="black" stroke-width="2" points="120.469,-134.017 130.413,-130.359 120.359,-127.018 120.469,-134.017"/>
</g>
<!-- 2 -->
<g id="node3" class="node"><title>2</title>
<ellipse fill="cadetblue" stroke="black" cx="241.37" cy="-23.5581" rx="21.4286" ry="21.4286"/>
<text text-anchor="middle" x="241.37" y="-18.5581" font-family="Times New Roman,serif" font-size="20.00">2</text>
</g>
<!-- 2&#45;&gt;7 -->
<g id="edge9" class="edge"><title>2&#45;&gt;7</title>
<path fill="none" stroke="black" stroke-width="2" d="M227.351,-40.1934C212.537,-57.7728 189.026,-85.6727 172.136,-105.716"/>
<polygon fill="black" stroke="black" stroke-width="2" points="169.339,-103.603 165.571,-113.506 174.692,-108.114 169.339,-103.603"/>
</g>
<!-- 3 -->
<g id="node4" class="node"><title>3</title>
<ellipse fill="cadetblue" stroke="black" cx="212.391" cy="-236.629" rx="21.4286" ry="21.4286"/>
<text text-anchor="middle" x="212.391" y="-231.629" font-family="Times New Roman,serif" font-size="20.00">2</text>
</g>
<!-- 3&#45;&gt;6 -->
<g id="edge11" class="edge"><title>3&#45;&gt;6</title>
<path fill="none" stroke="black" stroke-width="2" d="M210.524,-215.345C208.943,-197.319 206.654,-171.218 204.858,-150.743"/>
<polygon fill="black" stroke="black" stroke-width="2" points="208.331,-150.277 203.97,-140.621 201.357,-150.889 208.331,-150.277"/>
</g>
<!-- 4 -->
<g id="node5" class="node"><title>4</title>
<ellipse fill="cadetblue" stroke="black" cx="127.505" cy="-21.2132" rx="21.4286" ry="21.4286"/>
<text text-anchor="middle" x="127.505" y="-16.2132" font-family="Times New Roman,serif" font-size="20.00">2</text>
</g>
<!-- 4&#45;&gt;0 -->
<g id="edge1" class="edge"><title>4&#45;&gt;0</title>
<path fill="none" stroke="black" stroke-width="2" d="M110.38,-34.317C102.158,-40.6082 92.1502,-48.2662 83.1082,-55.1851"/>
<polygon fill="black" stroke="black" stroke-width="2" points="80.9695,-52.4145 75.1547,-61.2711 85.2234,-57.9737 80.9695,-52.4145"/>
</g>
<!-- 4&#45;&gt;1 -->
<g id="edge4" class="edge"><title>4&#45;&gt;1</title>
<path fill="none" stroke="black" stroke-width="2" d="M116.757,-39.8857C107.41,-55.1673 92.8714,-76.8003 76.8098,-92.8412 68.2976,-101.342 57.7608,-109.289 48.1567,-115.778"/>
<polygon fill="black" stroke="black" stroke-width="2" points="46.15,-112.908 39.6838,-121.301 49.9725,-118.772 46.15,-112.908"/>
</g>
<!-- 4&#45;&gt;2 -->
<g id="edge7" class="edge"><title>4&#45;&gt;2</title>
<path fill="none" stroke="black" stroke-width="2" d="M148.922,-21.6543C166.098,-22.008 190.456,-22.5096 209.857,-22.9091"/>
<polygon fill="black" stroke="black" stroke-width="2" points="209.979,-26.4123 220.049,-23.119 210.123,-19.4137 209.979,-26.4123"/>
</g>
<!-- 5 -->
<g id="node6" class="node"><title>5</title>
<ellipse fill="cadetblue" stroke="black" cx="99.1399" cy="-207.453" rx="21.4286" ry="21.4286"/>
<text text-anchor="middle" x="99.1399" y="-202.453" font-family="Times New Roman,serif" font-size="20.00">2</text>
</g>
<!-- 5&#45;&gt;0 -->
<g id="edge2" class="edge"><title>5&#45;&gt;0</title>
<path fill="none" stroke="black" stroke-width="2" d="M92.8369,-186.928C86.0599,-164.86 75.2179,-129.554 67.475,-104.34"/>
<polygon fill="black" stroke="black" stroke-width="2" points="70.7513,-103.086 64.4698,-94.554 64.0597,-105.141 70.7513,-103.086"/>
</g>
<!-- 5&#45;&gt;1 -->
<g id="edge5" class="edge"><title>5&#45;&gt;1</title>
<path fill="none" stroke="black" stroke-width="2" d="M83.7441,-192.562C72.4306,-181.62 56.8707,-166.57 44.103,-154.221"/>
<polygon fill="black" stroke="black" stroke-width="2" points="46.1983,-151.379 36.577,-146.942 41.3317,-156.41 46.1983,-151.379"/>
</g>
<!-- 5&#45;&gt;3 -->
<g id="edge10" class="edge"><title>5&#45;&gt;3</title>
<path fill="none" stroke="black" stroke-width="2" d="M119.912,-212.805C137.313,-217.287 162.387,-223.747 182.038,-228.81"/>
<polygon fill="black" stroke="black" stroke-width="2" points="181.194,-232.206 191.751,-231.312 182.94,-225.427 181.194,-232.206"/>
</g>
<!-- 6&#45;&gt;2 -->
<g id="edge8" class="edge"><title>6&#45;&gt;2</title>
<path fill="none" stroke="black" stroke-width="2" d="M210.223,-99.3027C215.754,-85.8519 223.164,-67.8324 229.368,-52.7436"/>
<polygon fill="black" stroke="black" stroke-width="2" points="232.674,-53.9085 233.24,-43.3288 226.2,-51.2463 232.674,-53.9085"/>
</g>
<!-- 6&#45;&gt;4 -->
<g id="edge13" class="edge"><title>6&#45;&gt;4</title>
<path fill="none" stroke="black" stroke-width="2" d="M189.092,-102.048C177.4,-86.7028 160.064,-63.9483 146.761,-46.4874"/>
<polygon fill="black" stroke="black" stroke-width="2" points="149.441,-44.2299 140.597,-38.3966 143.873,-48.4721 149.441,-44.2299"/>
</g>
<!-- 6&#45;&gt;5 -->
<g id="edge15" class="edge"><title>6&#45;&gt;5</title>
<path fill="none" stroke="black" stroke-width="2" d="M186.376,-133.996C181.287,-138.735 175.58,-143.956 170.25,-148.625 155.081,-161.916 137.637,-176.36 123.822,-187.609"/>
<polygon fill="black" stroke="black" stroke-width="2" points="121.305,-185.144 115.743,-194.161 125.714,-190.581 121.305,-185.144"/>
</g>
<!-- 7&#45;&gt;3 -->
<g id="edge12" class="edge"><title>7&#45;&gt;3</title>
<path fill="none" stroke="black" stroke-width="2" d="M162.231,-148.593C171.753,-165.306 185.873,-190.087 196.708,-209.103"/>
<polygon fill="black" stroke="black" stroke-width="2" points="193.737,-210.959 201.728,-217.915 199.819,-207.494 193.737,-210.959"/>
</g>
<!-- 7&#45;&gt;4 -->
<g id="edge14" class="edge"><title>7&#45;&gt;4</title>
<path fill="none" stroke="black" stroke-width="2" d="M147.053,-109.302C143.467,-93.1445 138.432,-70.4531 134.369,-52.1476"/>
<polygon fill="black" stroke="black" stroke-width="2" points="137.752,-51.2336 132.168,-42.2293 130.918,-52.7501 137.752,-51.2336"/>
</g>
<!-- 7&#45;&gt;5 -->
<g id="edge16" class="edge"><title>7&#45;&gt;5</title>
<path fill="none" stroke="black" stroke-width="2" d="M139.736,-147.594C133.002,-157.523 124.454,-170.127 116.94,-181.207"/>
<polygon fill="black" stroke="black" stroke-width="2" points="113.906,-179.444 111.19,-189.685 119.7,-183.373 113.906,-179.444"/>
</g>
</g>
</svg>

