<?xml version="1.0" encoding="UTF-8" standalone="no"?>
<!DOCTYPE svg PUBLIC "-//W3C//DTD SVG 1.1//EN"
 "http://www.w3.org/Graphics/SVG/1.1/DTD/svg11.dtd">
<!-- Generated by graphviz version 2.36.0 (20140111.2315)
 -->
<!-- Title: G Pages: 1 -->
<svg width="100%" height="100%"
 viewBox="0.00 0.00 213.24 216.83" xmlns="http://www.w3.org/2000/svg" xmlns:xlink="http://www.w3.org/1999/xlink">
<g id="graph0" class="graph" transform="scale(1 1) rotate(0) translate(4 212.826)">
<title>G</title>
<!-- 0 -->
<g id="node1" class="node"><title>0</title>
<ellipse fill="cadetblue" stroke="black" cx="71.6447" cy="-86.8231" rx="21.4286" ry="21.4286"/>
<text text-anchor="middle" x="71.6447" y="-81.8231" font-family="Times New Roman,serif" font-size="20.00">2</text>
</g>
<!-- 6 -->
<g id="node7" class="node"><title>6</title>
<ellipse fill="cadetblue" stroke="black" cx="181.604" cy="-92.907" rx="21.4286" ry="21.4286"/>
<text text-anchor="middle" x="181.604" y="-87.907" font-family="Times New Roman,serif" font-size="20.00">2</text>
</g>
<!-- 0&#45;&gt;6 -->
<g id="edge3" class="edge"><title>0&#45;&gt;6</title>
<path fill="none" stroke="black" stroke-width="2" d="M93.2856,-85.4459C102.228,-85.0695 112.698,-84.8771 122.164,-85.3378 131.35,-85.7849 141.28,-86.8259 150.345,-87.9973"/>
<polygon fill="black" stroke="black" stroke-width="2" points="150.106,-91.4976 160.492,-89.4045 151.068,-84.5639 150.106,-91.4976"/>
</g>
<!-- 7 -->
<g id="node8" class="node"><title>7</title>
<ellipse fill="cadetblue" stroke="black" cx="122.162" cy="-111.642" rx="21.4286" ry="21.4286"/>
<text text-anchor="middle" x="122.162" y="-106.642" font-family="Times New Roman,serif" font-size="20.00">2</text>
</g>
<!-- 0&#45;&gt;7 -->
<g id="edge4" class="edge"><title>0&#45;&gt;7</title>
<path fill="none" stroke="black" stroke-width="2" d="M90.7433,-96.2061C91.7491,-96.7003 92.7689,-97.2013 93.7956,-97.7057"/>
<polygon fill="black" stroke="black" stroke-width="2" points="92.5182,-100.978 103.037,-102.246 95.6049,-94.6949 92.5182,-100.978"/>
</g>
<!-- 1 -->
<g id="node2" class="node"><title>1</title>
<ellipse fill="cadetblue" stroke="black" cx="21.2132" cy="-96.4715" rx="21.4286" ry="21.4286"/>
<text text-anchor="middle" x="21.2132" y="-91.4715" font-family="Times New Roman,serif" font-size="20.00">2</text>
</g>
<!-- 1&#45;&gt;7 -->
<g id="edge7" class="edge"><title>1&#45;&gt;7</title>
<path fill="none" stroke="black" stroke-width="2" d="M40.9387,-104.76C50.0906,-108.142 61.2237,-111.611 71.6206,-113.127 77.7418,-114.021 84.3228,-114.309 90.6466,-114.259"/>
<polygon fill="black" stroke="black" stroke-width="2" points="91.0478,-117.747 100.92,-113.901 90.8037,-110.751 91.0478,-117.747"/>
</g>
<!-- 2 -->
<g id="node3" class="node"><title>2</title>
<ellipse fill="cadetblue" stroke="black" cx="184.028" cy="-21.2132" rx="21.4286" ry="21.4286"/>
<text text-anchor="middle" x="184.028" y="-16.2132" font-family="Times New Roman,serif" font-size="20.00">2</text>
</g>
<!-- 2&#45;&gt;6 -->
<g id="edge9" class="edge"><title>2&#45;&gt;6</title>
<path fill="none" stroke="black" stroke-width="2" d="M183.301,-42.7237C183.104,-48.5368 182.887,-54.9521 182.676,-61.1976"/>
<polygon fill="black" stroke="black" stroke-width="2" points="179.171,-61.2991 182.331,-71.4117 186.167,-61.5357 179.171,-61.2991"/>
</g>
<!-- 3 -->
<g id="node4" class="node"><title>3</title>
<ellipse fill="cadetblue" stroke="black" cx="164.337" cy="-187.613" rx="21.4286" ry="21.4286"/>
<text text-anchor="middle" x="164.337" y="-182.613" font-family="Times New Roman,serif" font-size="20.00">2</text>
</g>
<!-- 5 -->
<g id="node6" class="node"><title>5</title>
<ellipse fill="cadetblue" stroke="black" cx="68.4369" cy="-177.206" rx="21.4286" ry="21.4286"/>
<text text-anchor="middle" x="68.4369" y="-172.206" font-family="Times New Roman,serif" font-size="20.00">2</text>
</g>
<!-- 3&#45;&gt;5 -->
<g id="edge11" class="edge"><title>3&#45;&gt;5</title>
<path fill="none" stroke="black" stroke-width="2" d="M143.054,-185.304C130.39,-183.929 114.087,-182.16 99.9513,-180.626"/>
<polygon fill="black" stroke="black" stroke-width="2" points="99.98,-177.109 89.6608,-179.509 99.2248,-184.068 99.98,-177.109"/>
</g>
<!-- 4 -->
<g id="node5" class="node"><title>4</title>
<ellipse fill="cadetblue" stroke="black" cx="103.323" cy="-27.0454" rx="21.4286" ry="21.4286"/>
<text text-anchor="middle" x="103.323" y="-22.0454" font-family="Times New Roman,serif" font-size="20.00">2</text>
</g>
<!-- 4&#45;&gt;0 -->
<g id="edge1" class="edge"><title>4&#45;&gt;0</title>
<path fill="none" stroke="black" stroke-width="2" d="M93.2995,-45.9594C91.104,-50.1025 88.7353,-54.5723 86.3983,-58.9824"/>
<polygon fill="black" stroke="black" stroke-width="2" points="83.3012,-57.352 81.7113,-67.8269 89.4864,-60.6298 83.3012,-57.352"/>
</g>
<!-- 4&#45;&gt;1 -->
<g id="edge5" class="edge"><title>4&#45;&gt;1</title>
<path fill="none" stroke="black" stroke-width="2" d="M86.4312,-40.6008C76.6124,-48.5493 64.0471,-58.8395 53.0617,-68.2061 50.335,-70.5309 47.4992,-72.9886 44.6934,-75.4456"/>
<polygon fill="black" stroke="black" stroke-width="2" points="42.1592,-73.014 36.9803,-82.2568 46.7927,-78.261 42.1592,-73.014"/>
</g>
<!-- 4&#45;&gt;2 -->
<g id="edge8" class="edge"><title>4&#45;&gt;2</title>
<path fill="none" stroke="black" stroke-width="2" d="M124.527,-25.513C133.078,-24.8951 143.122,-24.1693 152.498,-23.4917"/>
<polygon fill="black" stroke="black" stroke-width="2" points="152.963,-26.9673 162.685,-22.7556 152.459,-19.9855 152.963,-26.9673"/>
</g>
<!-- 5&#45;&gt;0 -->
<g id="edge2" class="edge"><title>5&#45;&gt;0</title>
<path fill="none" stroke="black" stroke-width="2" d="M69.1971,-155.787C69.5926,-144.643 70.0837,-130.804 70.5221,-118.454"/>
<polygon fill="black" stroke="black" stroke-width="2" points="74.0329,-118.207 70.8899,-108.089 67.0373,-117.958 74.0329,-118.207"/>
</g>
<!-- 5&#45;&gt;1 -->
<g id="edge6" class="edge"><title>5&#45;&gt;1</title>
<path fill="none" stroke="black" stroke-width="2" d="M57.7211,-158.886C51.6658,-148.534 43.9783,-135.391 37.2209,-123.839"/>
<polygon fill="black" stroke="black" stroke-width="2" points="40.1202,-121.863 32.05,-114.998 34.0779,-125.397 40.1202,-121.863"/>
</g>
<!-- 6&#45;&gt;3 -->
<g id="edge12" class="edge"><title>6&#45;&gt;3</title>
<path fill="none" stroke="black" stroke-width="2" d="M177.772,-113.925C175.492,-126.432 172.556,-142.532 170.011,-156.491"/>
<polygon fill="black" stroke="black" stroke-width="2" points="166.509,-156.188 168.158,-166.654 173.395,-157.444 166.509,-156.188"/>
</g>
<!-- 6&#45;&gt;4 -->
<g id="edge14" class="edge"><title>6&#45;&gt;4</title>
<path fill="none" stroke="black" stroke-width="2" d="M165.002,-78.9394C154.136,-69.7968 139.753,-57.696 127.61,-47.4794"/>
<polygon fill="black" stroke="black" stroke-width="2" points="129.537,-44.5267 119.632,-40.767 125.03,-49.8831 129.537,-44.5267"/>
</g>
<!-- 7&#45;&gt;2 -->
<g id="edge10" class="edge"><title>7&#45;&gt;2</title>
<path fill="none" stroke="black" stroke-width="2" d="M134.385,-93.7763C143.51,-80.4378 156.116,-62.0128 166.34,-47.0672"/>
<polygon fill="black" stroke="black" stroke-width="2" points="169.284,-48.9639 172.041,-38.7342 163.506,-45.0114 169.284,-48.9639"/>
</g>
<!-- 7&#45;&gt;3 -->
<g id="edge13" class="edge"><title>7&#45;&gt;3</title>
<path fill="none" stroke="black" stroke-width="2" d="M132.588,-130.422C137.542,-139.345 143.561,-150.189 149.021,-160.024"/>
<polygon fill="black" stroke="black" stroke-width="2" points="146.118,-162.006 154.032,-169.05 152.238,-158.608 146.118,-162.006"/>
</g>
<!-- 7&#45;&gt;4 -->
<g id="edge15" class="edge"><title>7&#45;&gt;4</title>
<path fill="none" stroke="black" stroke-width="2" d="M117.505,-90.7306C115.309,-80.8676 112.644,-68.8994 110.219,-58.0123"/>
<polygon fill="black" stroke="black" stroke-width="2" points="113.582,-57.0096 107.991,-48.0096 106.749,-58.5313 113.582,-57.0096"/>
</g>
<!-- 7&#45;&gt;5 -->
<g id="edge16" class="edge"><title>7&#45;&gt;5</title>
<path fill="none" stroke="black" stroke-width="2" d="M108.605,-128.187C102.544,-135.584 95.2726,-144.457 88.5928,-152.609"/>
<polygon fill="black" stroke="black" stroke-width="2" points="85.8077,-150.486 82.1767,-160.439 91.2221,-154.922 85.8077,-150.486"/>
</g>
</g>
</svg>

