<?xml version="1.0" encoding="UTF-8" standalone="no"?>
<!DOCTYPE svg PUBLIC "-//W3C//DTD SVG 1.1//EN"
 "http://www.w3.org/Graphics/SVG/1.1/DTD/svg11.dtd">
<!-- Generated by graphviz version 2.36.0 (20140111.2315)
 -->
<!-- Title: G Pages: 1 -->
<svg width="100%" height="100%"
 viewBox="0.00 0.00 257.79 229.50" xmlns="http://www.w3.org/2000/svg" xmlns:xlink="http://www.w3.org/1999/xlink">
<g id="graph0" class="graph" transform="scale(1 1) rotate(0) translate(4 225.498)">
<title>G</title>
<!-- 0 -->
<g id="node1" class="node"><title>0</title>
<ellipse fill="cadetblue" stroke="black" cx="37.1738" cy="-58.2463" rx="21.4286" ry="21.4286"/>
<text text-anchor="middle" x="37.1738" y="-53.2463" font-family="Times New Roman,serif" font-size="20.00">2</text>
</g>
<!-- 6 -->
<g id="node7" class="node"><title>6</title>
<ellipse fill="cadetblue" stroke="black" cx="146.934" cy="-113.872" rx="21.4286" ry="21.4286"/>
<text text-anchor="middle" x="146.934" y="-108.872" font-family="Times New Roman,serif" font-size="20.00">2</text>
</g>
<!-- 0&#45;&gt;6 -->
<g id="edge3" class="edge"><title>0&#45;&gt;6</title>
<path fill="none" stroke="black" stroke-width="2" d="M58.5217,-57.2098C75.5429,-57.4787 99.125,-60.4307 115.286,-72.9149 120.513,-76.9526 125.347,-82.048 129.583,-87.2608"/>
<polygon fill="black" stroke="black" stroke-width="2" points="126.909,-89.5281 135.719,-95.4139 132.503,-85.319 126.909,-89.5281"/>
</g>
<!-- 7 -->
<g id="node8" class="node"><title>7</title>
<ellipse fill="cadetblue" stroke="black" cx="151.247" cy="-21.2132" rx="21.4286" ry="21.4286"/>
<text text-anchor="middle" x="151.247" y="-16.2132" font-family="Times New Roman,serif" font-size="20.00">2</text>
</g>
<!-- 0&#45;&gt;7 -->
<g id="edge4" class="edge"><title>0&#45;&gt;7</title>
<path fill="none" stroke="black" stroke-width="2" d="M57.5678,-51.6255C75.3304,-45.8591 101.315,-37.4233 121.414,-30.8982"/>
<polygon fill="black" stroke="black" stroke-width="2" points="122.599,-34.1935 131.03,-27.7767 120.438,-27.5355 122.599,-34.1935"/>
</g>
<!-- 1 -->
<g id="node2" class="node"><title>1</title>
<ellipse fill="cadetblue" stroke="black" cx="21.2132" cy="-175.613" rx="21.4286" ry="21.4286"/>
<text text-anchor="middle" x="21.2132" y="-170.613" font-family="Times New Roman,serif" font-size="20.00">2</text>
</g>
<!-- 1&#45;&gt;6 -->
<g id="edge7" class="edge"><title>1&#45;&gt;6</title>
<path fill="none" stroke="black" stroke-width="2" d="M40.3075,-166.235C61.076,-156.036 94.4979,-139.623 118.387,-127.891"/>
<polygon fill="black" stroke="black" stroke-width="2" points="120.227,-130.887 127.66,-123.337 117.141,-124.604 120.227,-130.887"/>
</g>
<!-- 2 -->
<g id="node3" class="node"><title>2</title>
<ellipse fill="cadetblue" stroke="black" cx="228.578" cy="-35.5143" rx="21.4286" ry="21.4286"/>
<text text-anchor="middle" x="228.578" y="-30.5143" font-family="Times New Roman,serif" font-size="20.00">2</text>
</g>
<!-- 4 -->
<g id="node5" class="node"><title>4</title>
<ellipse fill="cadetblue" stroke="black" cx="96.5029" cy="-91.3301" rx="21.4286" ry="21.4286"/>
<text text-anchor="middle" x="96.5029" y="-86.3301" font-family="Times New Roman,serif" font-size="20.00">2</text>
</g>
<!-- 2&#45;&gt;4 -->
<g id="edge8" class="edge"><title>2&#45;&gt;4</title>
<path fill="none" stroke="black" stroke-width="2" d="M208.805,-43.8705C186.824,-53.1599 151.1,-68.2571 125.854,-78.9261"/>
<polygon fill="black" stroke="black" stroke-width="2" points="124.26,-75.8001 116.411,-82.9168 126.985,-82.248 124.26,-75.8001"/>
</g>
<!-- 3 -->
<g id="node4" class="node"><title>3</title>
<ellipse fill="cadetblue" stroke="black" cx="220.37" cy="-167.539" rx="21.4286" ry="21.4286"/>
<text text-anchor="middle" x="220.37" y="-162.539" font-family="Times New Roman,serif" font-size="20.00">2</text>
</g>
<!-- 5 -->
<g id="node6" class="node"><title>5</title>
<ellipse fill="cadetblue" stroke="black" cx="101.547" cy="-200.285" rx="21.4286" ry="21.4286"/>
<text text-anchor="middle" x="101.547" y="-195.285" font-family="Times New Roman,serif" font-size="20.00">2</text>
</g>
<!-- 3&#45;&gt;5 -->
<g id="edge11" class="edge"><title>3&#45;&gt;5</title>
<path fill="none" stroke="black" stroke-width="2" d="M199.673,-173.242C180.93,-178.408 153.084,-186.082 131.838,-191.937"/>
<polygon fill="black" stroke="black" stroke-width="2" points="130.718,-188.615 122.007,-194.646 132.578,-195.363 130.718,-188.615"/>
</g>
<!-- 4&#45;&gt;0 -->
<g id="edge1" class="edge"><title>4&#45;&gt;0</title>
<path fill="none" stroke="black" stroke-width="2" d="M77.7308,-80.8622C73.6188,-78.5692 69.1825,-76.0954 64.8056,-73.6547"/>
<polygon fill="black" stroke="black" stroke-width="2" points="66.4659,-70.5732 56.0274,-68.7597 63.0567,-76.6869 66.4659,-70.5732"/>
</g>
<!-- 4&#45;&gt;1 -->
<g id="edge5" class="edge"><title>4&#45;&gt;1</title>
<path fill="none" stroke="black" stroke-width="2" d="M82.3415,-107.183C71.056,-119.816 55.0822,-137.698 42.294,-152.014"/>
<polygon fill="black" stroke="black" stroke-width="2" points="39.6189,-149.755 35.5671,-159.544 44.8394,-154.418 39.6189,-149.755"/>
</g>
<!-- 4&#45;&gt;5 -->
<g id="edge14" class="edge"><title>4&#45;&gt;5</title>
<path fill="none" stroke="black" stroke-width="2" d="M97.4875,-112.596C98.2305,-128.645 99.2614,-150.911 100.098,-168.99"/>
<polygon fill="black" stroke="black" stroke-width="2" points="96.6064,-169.245 100.565,-179.072 103.599,-168.921 96.6064,-169.245"/>
</g>
<!-- 5&#45;&gt;0 -->
<g id="edge2" class="edge"><title>5&#45;&gt;0</title>
<path fill="none" stroke="black" stroke-width="2" d="M92.7314,-180.833C81.7657,-156.637 62.948,-115.116 50.288,-87.1825"/>
<polygon fill="black" stroke="black" stroke-width="2" points="53.4057,-85.5826 46.0898,-77.9192 47.0299,-88.4722 53.4057,-85.5826"/>
</g>
<!-- 5&#45;&gt;1 -->
<g id="edge6" class="edge"><title>5&#45;&gt;1</title>
<path fill="none" stroke="black" stroke-width="2" d="M80.8593,-193.931C71.8883,-191.176 61.207,-187.895 51.3788,-184.877"/>
<polygon fill="black" stroke="black" stroke-width="2" points="52.1399,-181.449 41.553,-181.859 50.0848,-188.141 52.1399,-181.449"/>
</g>
<!-- 6&#45;&gt;2 -->
<g id="edge9" class="edge"><title>6&#45;&gt;2</title>
<path fill="none" stroke="black" stroke-width="2" d="M162.291,-99.1333C174.529,-87.388 191.851,-70.7634 205.718,-57.454"/>
<polygon fill="black" stroke="black" stroke-width="2" points="208.221,-59.9027 213.012,-50.4531 203.374,-54.8523 208.221,-59.9027"/>
</g>
<!-- 6&#45;&gt;3 -->
<g id="edge12" class="edge"><title>6&#45;&gt;3</title>
<path fill="none" stroke="black" stroke-width="2" d="M164.338,-126.59C173.483,-133.274 184.863,-141.59 194.974,-148.979"/>
<polygon fill="black" stroke="black" stroke-width="2" points="192.953,-151.837 203.092,-154.912 197.083,-146.185 192.953,-151.837"/>
</g>
<!-- 6&#45;&gt;7 -->
<g id="edge16" class="edge"><title>6&#45;&gt;7</title>
<path fill="none" stroke="black" stroke-width="2" d="M147.935,-92.3811C148.484,-80.5695 149.177,-65.6997 149.786,-52.6104"/>
<polygon fill="black" stroke="black" stroke-width="2" points="153.284,-52.7392 150.252,-42.5873 146.291,-52.4137 153.284,-52.7392"/>
</g>
<!-- 7&#45;&gt;2 -->
<g id="edge10" class="edge"><title>7&#45;&gt;2</title>
<path fill="none" stroke="black" stroke-width="2" d="M172.378,-25.1211C180.135,-26.5557 189.087,-28.2112 197.534,-29.7733"/>
<polygon fill="black" stroke="black" stroke-width="2" points="197.003,-33.2343 207.472,-31.6112 198.276,-26.351 197.003,-33.2343"/>
</g>
<!-- 7&#45;&gt;3 -->
<g id="edge13" class="edge"><title>7&#45;&gt;3</title>
<path fill="none" stroke="black" stroke-width="2" d="M160.426,-40.6441C172.304,-65.7884 193.096,-109.803 206.8,-138.813"/>
<polygon fill="black" stroke="black" stroke-width="2" points="203.717,-140.48 211.153,-148.027 210.046,-137.49 203.717,-140.48"/>
</g>
<!-- 7&#45;&gt;4 -->
<g id="edge15" class="edge"><title>7&#45;&gt;4</title>
<path fill="none" stroke="black" stroke-width="2" d="M137.995,-38.1866C131.338,-46.713 123.147,-57.2048 115.805,-66.6074"/>
<polygon fill="black" stroke="black" stroke-width="2" points="113.028,-64.477 109.633,-74.5131 118.546,-68.7849 113.028,-64.477"/>
</g>
</g>
</svg>

