<?xml version="1.0" encoding="UTF-8" standalone="no"?>
<!DOCTYPE svg PUBLIC "-//W3C//DTD SVG 1.1//EN"
 "http://www.w3.org/Graphics/SVG/1.1/DTD/svg11.dtd">
<!-- Generated by graphviz version 2.36.0 (20140111.2315)
 -->
<!-- Title: G Pages: 1 -->
<svg width="100%" height="100%"
 viewBox="0.00 0.00 241.71 236.00" xmlns="http://www.w3.org/2000/svg" xmlns:xlink="http://www.w3.org/1999/xlink">
<g id="graph0" class="graph" transform="scale(1 1) rotate(0) translate(4 231.998)">
<title>G</title>
<!-- 0 -->
<g id="node1" class="node"><title>0</title>
<ellipse fill="cadetblue" stroke="black" cx="100.787" cy="-48.1253" rx="21.4286" ry="21.4286"/>
<text text-anchor="middle" x="100.787" y="-43.1253" font-family="Times New Roman,serif" font-size="20.00">2</text>
</g>
<!-- 6 -->
<g id="node7" class="node"><title>6</title>
<ellipse fill="dodgerblue" stroke="black" cx="191.509" cy="-106.801" rx="21.4286" ry="21.4286"/>
<text text-anchor="middle" x="191.509" y="-101.801" font-family="Times New Roman,serif" font-size="20.00">4</text>
</g>
<!-- 0&#45;&gt;6 -->
<g id="edge3" class="edge"><title>0&#45;&gt;6</title>
<path fill="none" stroke="black" stroke-width="2" d="M118.711,-59.7177C131.882,-68.2363 149.997,-79.9523 164.861,-89.5658"/>
<polygon fill="black" stroke="black" stroke-width="2" points="163.325,-92.7407 173.623,-95.2326 167.127,-86.8629 163.325,-92.7407"/>
</g>
<!-- 7 -->
<g id="node8" class="node"><title>7</title>
<ellipse fill="cadetblue" stroke="black" cx="131.398" cy="-131.218" rx="21.4286" ry="21.4286"/>
<text text-anchor="middle" x="131.398" y="-126.218" font-family="Times New Roman,serif" font-size="20.00">2</text>
</g>
<!-- 0&#45;&gt;7 -->
<g id="edge4" class="edge"><title>0&#45;&gt;7</title>
<path fill="none" stroke="black" stroke-width="2" d="M108.197,-68.2396C111.882,-78.2419 116.408,-90.5263 120.481,-101.582"/>
<polygon fill="black" stroke="black" stroke-width="2" points="117.315,-103.115 124.057,-111.288 123.884,-100.695 117.315,-103.115"/>
</g>
<!-- 1 -->
<g id="node2" class="node"><title>1</title>
<ellipse fill="cadetblue" stroke="black" cx="21.2132" cy="-186.721" rx="21.4286" ry="21.4286"/>
<text text-anchor="middle" x="21.2132" y="-181.721" font-family="Times New Roman,serif" font-size="20.00">2</text>
</g>
<!-- 1&#45;&gt;7 -->
<g id="edge7" class="edge"><title>1&#45;&gt;7</title>
<path fill="none" stroke="black" stroke-width="2" d="M40.406,-177.053C57.7858,-168.299 83.6082,-155.291 103.31,-145.367"/>
<polygon fill="black" stroke="black" stroke-width="2" points="105.069,-148.399 112.426,-140.775 101.92,-142.148 105.069,-148.399"/>
</g>
<!-- 2 -->
<g id="node3" class="node"><title>2</title>
<ellipse fill="cadetblue" stroke="black" cx="166.282" cy="-21.2132" rx="21.4286" ry="21.4286"/>
<text text-anchor="middle" x="166.282" y="-16.2132" font-family="Times New Roman,serif" font-size="20.00">2</text>
</g>
<!-- 2&#45;&gt;6 -->
<g id="edge9" class="edge"><title>2&#45;&gt;6</title>
<path fill="none" stroke="black" stroke-width="2" d="M172.389,-41.9316C175.457,-52.3394 179.232,-65.1461 182.614,-76.6233"/>
<polygon fill="black" stroke="black" stroke-width="2" points="179.274,-77.6709 185.459,-86.2733 185.989,-75.6917 179.274,-77.6709"/>
</g>
<!-- 3 -->
<g id="node4" class="node"><title>3</title>
<ellipse fill="cadetblue" stroke="black" cx="212.501" cy="-206.785" rx="21.4286" ry="21.4286"/>
<text text-anchor="middle" x="212.501" y="-201.785" font-family="Times New Roman,serif" font-size="20.00">2</text>
</g>
<!-- 3&#45;&gt;6 -->
<g id="edge12" class="edge"><title>3&#45;&gt;6</title>
<path fill="none" stroke="black" stroke-width="2" d="M208.049,-185.581C205.135,-171.701 201.278,-153.331 198.022,-137.822"/>
<polygon fill="black" stroke="black" stroke-width="2" points="201.363,-136.699 195.883,-127.631 194.512,-138.137 201.363,-136.699"/>
</g>
<!-- 4 -->
<g id="node5" class="node"><title>4</title>
<ellipse fill="cadetblue" stroke="black" cx="63.8739" cy="-98.5567" rx="21.4286" ry="21.4286"/>
<text text-anchor="middle" x="63.8739" y="-93.5567" font-family="Times New Roman,serif" font-size="20.00">2</text>
</g>
<!-- 4&#45;&gt;0 -->
<g id="edge1" class="edge"><title>4&#45;&gt;0</title>
<path fill="none" stroke="black" stroke-width="2" d="M76.5774,-81.2011C78.3957,-78.7169 80.2968,-76.1197 82.1997,-73.5199"/>
<polygon fill="black" stroke="black" stroke-width="2" points="85.1034,-75.4787 88.1855,-65.3421 79.4548,-71.3442 85.1034,-75.4787"/>
</g>
<!-- 4&#45;&gt;1 -->
<g id="edge5" class="edge"><title>4&#45;&gt;1</title>
<path fill="none" stroke="black" stroke-width="2" d="M54.6172,-117.687C48.8986,-129.506 41.4536,-144.892 35.044,-158.138"/>
<polygon fill="black" stroke="black" stroke-width="2" points="31.8043,-156.798 30.5992,-167.324 38.1055,-159.847 31.8043,-156.798"/>
</g>
<!-- 4&#45;&gt;2 -->
<g id="edge8" class="edge"><title>4&#45;&gt;2</title>
<path fill="none" stroke="black" stroke-width="2" d="M83.1057,-89.0633C94.141,-83.2476 108.015,-75.294 119.37,-66.7423 128.21,-60.0853 137.121,-51.8949 144.767,-44.3047"/>
<polygon fill="black" stroke="black" stroke-width="2" points="147.435,-46.5825 151.941,-36.9936 142.439,-41.6795 147.435,-46.5825"/>
</g>
<!-- 5 -->
<g id="node6" class="node"><title>5</title>
<ellipse fill="brown" stroke="black" cx="112.38" cy="-187.29" rx="21.4286" ry="21.4286"/>
<text text-anchor="middle" x="112.38" y="-182.29" font-family="Times New Roman,serif" font-size="20.00">3</text>
</g>
<!-- 4&#45;&gt;5 -->
<g id="edge14" class="edge"><title>4&#45;&gt;5</title>
<path fill="none" stroke="black" stroke-width="2" d="M74.1609,-117.375C80.8492,-129.61 89.687,-145.777 97.1793,-159.483"/>
<polygon fill="black" stroke="black" stroke-width="2" points="94.2406,-161.404 102.108,-168.499 100.383,-158.046 94.2406,-161.404"/>
</g>
<!-- 5&#45;&gt;0 -->
<g id="edge2" class="edge"><title>5&#45;&gt;0</title>
<path fill="none" stroke="black" stroke-width="2" d="M109.261,-166.297C107.799,-155.785 106.15,-142.851 105.094,-131.216 103.545,-114.151 102.507,-95.06 101.839,-79.4846"/>
<polygon fill="black" stroke="black" stroke-width="2" points="105.33,-79.1839 101.434,-69.3315 98.3355,-79.4632 105.33,-79.1839"/>
</g>
<!-- 5&#45;&gt;1 -->
<g id="edge6" class="edge"><title>5&#45;&gt;1</title>
<path fill="none" stroke="black" stroke-width="2" d="M90.7751,-187.155C79.4214,-187.085 65.2931,-186.996 52.741,-186.918"/>
<polygon fill="black" stroke="black" stroke-width="2" points="52.6852,-183.418 42.6635,-186.855 52.6414,-190.418 52.6852,-183.418"/>
</g>
<!-- 5&#45;&gt;3 -->
<g id="edge11" class="edge"><title>5&#45;&gt;3</title>
<path fill="none" stroke="black" stroke-width="2" d="M133.613,-191.425C147.512,-194.131 165.907,-197.712 181.438,-200.736"/>
<polygon fill="black" stroke="black" stroke-width="2" points="181.157,-204.247 191.642,-202.723 182.495,-197.376 181.157,-204.247"/>
</g>
<!-- 6&#45;&gt;4 -->
<g id="edge15" class="edge"><title>6&#45;&gt;4</title>
<path fill="none" stroke="black" stroke-width="2" d="M170.146,-105.421C149.714,-104.101 118.658,-102.095 95.3856,-100.592"/>
<polygon fill="black" stroke="black" stroke-width="2" points="95.5118,-97.0931 85.3069,-99.9411 95.0605,-104.078 95.5118,-97.0931"/>
</g>
<!-- 6&#45;&gt;5 -->
<g id="edge17" class="edge"><title>6&#45;&gt;5</title>
<path fill="none" stroke="black" stroke-width="2" d="M176.596,-122.403C168.724,-130.602 158.88,-140.794 149.998,-149.818 145.245,-154.647 140.12,-159.792 135.23,-164.673"/>
<polygon fill="black" stroke="black" stroke-width="2" points="132.442,-162.509 127.823,-172.044 137.38,-167.471 132.442,-162.509"/>
</g>
<!-- 7&#45;&gt;2 -->
<g id="edge10" class="edge"><title>7&#45;&gt;2</title>
<path fill="none" stroke="black" stroke-width="2" d="M137.878,-110.784C143.189,-94.036 150.781,-70.0959 156.78,-51.1788"/>
<polygon fill="black" stroke="black" stroke-width="2" points="160.151,-52.1271 159.837,-41.5369 153.478,-50.0112 160.151,-52.1271"/>
</g>
<!-- 7&#45;&gt;3 -->
<g id="edge13" class="edge"><title>7&#45;&gt;3</title>
<path fill="none" stroke="black" stroke-width="2" d="M147.036,-145.788C159.041,-156.974 175.803,-172.591 189.36,-185.223"/>
<polygon fill="black" stroke="black" stroke-width="2" points="187.209,-188.003 196.912,-192.259 191.981,-182.882 187.209,-188.003"/>
</g>
<!-- 7&#45;&gt;4 -->
<g id="edge16" class="edge"><title>7&#45;&gt;4</title>
<path fill="none" stroke="black" stroke-width="2" d="M112.229,-121.946C106.152,-119.006 99.2927,-115.688 92.6915,-112.495"/>
<polygon fill="black" stroke="black" stroke-width="2" points="93.8518,-109.169 83.3255,-107.965 90.8038,-115.47 93.8518,-109.169"/>
</g>
<!-- 7&#45;&gt;5 -->
<g id="edge18" class="edge"><title>7&#45;&gt;5</title>
<path fill="none" stroke="black" stroke-width="2" d="M124.533,-151.461C123.894,-153.343 123.239,-155.276 122.578,-157.223"/>
<polygon fill="black" stroke="black" stroke-width="2" points="119.198,-156.294 119.3,-166.888 125.827,-158.542 119.198,-156.294"/>
</g>
<!-- 7&#45;&gt;6 -->
<g id="edge19" class="edge"><title>7&#45;&gt;6</title>
<path fill="none" stroke="black" stroke-width="2" d="M151.081,-123.223C154.676,-121.762 158.497,-120.21 162.3,-118.666"/>
<polygon fill="black" stroke="black" stroke-width="2" points="163.629,-121.903 171.577,-114.897 160.995,-115.418 163.629,-121.903"/>
</g>
</g>
</svg>

