<?xml version="1.0" encoding="UTF-8" standalone="no"?>
<!DOCTYPE svg PUBLIC "-//W3C//DTD SVG 1.1//EN"
 "http://www.w3.org/Graphics/SVG/1.1/DTD/svg11.dtd">
<!-- Generated by graphviz version 2.36.0 (20140111.2315)
 -->
<!-- Title: G Pages: 1 -->
<svg width="100%" height="100%"
 viewBox="0.00 0.00 226.87 229.23" xmlns="http://www.w3.org/2000/svg" xmlns:xlink="http://www.w3.org/1999/xlink">
<g id="graph0" class="graph" transform="scale(1 1) rotate(0) translate(4 225.232)">
<title>G</title>
<!-- 0 -->
<g id="node1" class="node"><title>0</title>
<ellipse fill="cadetblue" stroke="black" cx="62.8661" cy="-21.2132" rx="21.4286" ry="21.4286"/>
<text text-anchor="middle" x="62.8661" y="-16.2132" font-family="Times New Roman,serif" font-size="20.00">2</text>
</g>
<!-- 5 -->
<g id="node6" class="node"><title>5</title>
<ellipse fill="cadetblue" stroke="black" cx="100.344" cy="-142.071" rx="21.4286" ry="21.4286"/>
<text text-anchor="middle" x="100.344" y="-137.071" font-family="Times New Roman,serif" font-size="20.00">2</text>
</g>
<!-- 0&#45;&gt;5 -->
<g id="edge2" class="edge"><title>0&#45;&gt;5</title>
<path fill="none" stroke="black" stroke-width="2" d="M65.0094,-42.5463C66.469,-54.1078 68.7795,-68.5653 72.2517,-81.1572 74.6303,-89.783 76.1395,-91.6551 79.7718,-99.8324 81.7772,-104.347 83.985,-109.089 86.1873,-113.699"/>
<polygon fill="black" stroke="black" stroke-width="2" points="83.1183,-115.392 90.6334,-122.86 89.4158,-112.335 83.1183,-115.392"/>
</g>
<!-- 1 -->
<g id="node2" class="node"><title>1</title>
<ellipse fill="cadetblue" stroke="black" cx="21.2132" cy="-152.077" rx="21.4286" ry="21.4286"/>
<text text-anchor="middle" x="21.2132" y="-147.077" font-family="Times New Roman,serif" font-size="20.00">2</text>
</g>
<!-- 4 -->
<g id="node5" class="node"><title>4</title>
<ellipse fill="cadetblue" stroke="black" cx="150.775" cy="-112.327" rx="21.4286" ry="21.4286"/>
<text text-anchor="middle" x="150.775" y="-107.327" font-family="Times New Roman,serif" font-size="20.00">2</text>
</g>
<!-- 1&#45;&gt;4 -->
<g id="edge4" class="edge"><title>1&#45;&gt;4</title>
<path fill="none" stroke="black" stroke-width="2" d="M39.6466,-141.038C55.2252,-132.354 78.4466,-120.895 100.387,-115.767 106.404,-114.361 112.926,-113.468 119.22,-112.913"/>
<polygon fill="black" stroke="black" stroke-width="2" points="119.707,-116.389 129.466,-112.266 119.265,-109.403 119.707,-116.389"/>
</g>
<!-- 2 -->
<g id="node3" class="node"><title>2</title>
<ellipse fill="cadetblue" stroke="black" cx="197.656" cy="-47.7364" rx="21.4286" ry="21.4286"/>
<text text-anchor="middle" x="197.656" y="-42.7364" font-family="Times New Roman,serif" font-size="20.00">2</text>
</g>
<!-- 2&#45;&gt;4 -->
<g id="edge7" class="edge"><title>2&#45;&gt;4</title>
<path fill="none" stroke="black" stroke-width="2" d="M185.093,-65.0455C180.258,-71.7064 174.63,-79.4602 169.348,-86.7385"/>
<polygon fill="black" stroke="black" stroke-width="2" points="166.414,-84.8214 163.373,-94.9703 172.08,-88.9332 166.414,-84.8214"/>
</g>
<!-- 3 -->
<g id="node4" class="node"><title>3</title>
<ellipse fill="cadetblue" stroke="black" cx="168.594" cy="-200.019" rx="21.4286" ry="21.4286"/>
<text text-anchor="middle" x="168.594" y="-195.019" font-family="Times New Roman,serif" font-size="20.00">2</text>
</g>
<!-- 3&#45;&gt;5 -->
<g id="edge11" class="edge"><title>3&#45;&gt;5</title>
<path fill="none" stroke="black" stroke-width="2" d="M152.419,-186.286C144.127,-179.245 133.857,-170.526 124.635,-162.696"/>
<polygon fill="black" stroke="black" stroke-width="2" points="126.764,-159.912 116.876,-156.108 122.234,-165.249 126.764,-159.912"/>
</g>
<!-- 4&#45;&gt;0 -->
<g id="edge1" class="edge"><title>4&#45;&gt;0</title>
<path fill="none" stroke="black" stroke-width="2" d="M139.999,-93.4796C133.997,-83.8175 125.997,-72.1847 117.338,-63.0019 108.948,-54.1053 98.5346,-45.6279 89.0666,-38.6626"/>
<polygon fill="black" stroke="black" stroke-width="2" points="90.8988,-35.6707 80.7225,-32.7223 86.8391,-41.3732 90.8988,-35.6707"/>
</g>
<!-- 4&#45;&gt;3 -->
<g id="edge10" class="edge"><title>4&#45;&gt;3</title>
<path fill="none" stroke="black" stroke-width="2" d="M155.088,-133.555C157.255,-144.219 159.922,-157.34 162.311,-169.1"/>
<polygon fill="black" stroke="black" stroke-width="2" points="158.899,-169.884 164.32,-178.987 165.759,-168.49 158.899,-169.884"/>
</g>
<!-- 6 -->
<g id="node7" class="node"><title>6</title>
<ellipse fill="cadetblue" stroke="black" cx="98.5548" cy="-81.4172" rx="21.4286" ry="21.4286"/>
<text text-anchor="middle" x="98.5548" y="-76.4172" font-family="Times New Roman,serif" font-size="20.00">2</text>
</g>
<!-- 4&#45;&gt;6 -->
<g id="edge13" class="edge"><title>4&#45;&gt;6</title>
<path fill="none" stroke="black" stroke-width="2" d="M132.511,-101.516C130.298,-100.206 128.002,-98.8472 125.695,-97.4817"/>
<polygon fill="black" stroke="black" stroke-width="2" points="127.285,-94.356 116.897,-92.2742 123.719,-100.38 127.285,-94.356"/>
</g>
<!-- 5&#45;&gt;1 -->
<g id="edge5" class="edge"><title>5&#45;&gt;1</title>
<path fill="none" stroke="black" stroke-width="2" d="M79.1381,-144.753C70.9778,-145.785 61.4787,-146.986 52.562,-148.113"/>
<polygon fill="black" stroke="black" stroke-width="2" points="51.9591,-144.662 42.4772,-149.389 52.8373,-151.606 51.9591,-144.662"/>
</g>
<!-- 5&#45;&gt;2 -->
<g id="edge8" class="edge"><title>5&#45;&gt;2</title>
<path fill="none" stroke="black" stroke-width="2" d="M110.649,-122.952C116.273,-113.528 123.798,-102.359 132.202,-93.6999 143.409,-82.1544 157.88,-71.6438 170.366,-63.5965"/>
<polygon fill="black" stroke="black" stroke-width="2" points="172.397,-66.4543 179.03,-58.1927 168.693,-60.5147 172.397,-66.4543"/>
</g>
<!-- 5&#45;&gt;6 -->
<g id="edge14" class="edge"><title>5&#45;&gt;6</title>
<path fill="none" stroke="black" stroke-width="2" d="M99.7179,-120.857C99.6421,-118.287 99.5635,-115.62 99.4844,-112.94"/>
<polygon fill="black" stroke="black" stroke-width="2" points="102.976,-112.614 99.1831,-102.722 95.9795,-112.82 102.976,-112.614"/>
</g>
<!-- 6&#45;&gt;0 -->
<g id="edge3" class="edge"><title>6&#45;&gt;0</title>
<path fill="none" stroke="black" stroke-width="2" d="M87.6531,-63.0269C84.8858,-58.3586 81.8545,-53.2451 78.8909,-48.2457"/>
<polygon fill="black" stroke="black" stroke-width="2" points="81.8112,-46.3083 73.7011,-39.4909 75.7897,-49.8778 81.8112,-46.3083"/>
</g>
<!-- 6&#45;&gt;1 -->
<g id="edge6" class="edge"><title>6&#45;&gt;1</title>
<path fill="none" stroke="black" stroke-width="2" d="M82.5296,-96.058C71.5684,-106.072 56.8593,-119.511 44.5954,-130.715"/>
<polygon fill="black" stroke="black" stroke-width="2" points="41.9753,-128.368 36.9533,-137.697 46.6968,-133.536 41.9753,-128.368"/>
</g>
<!-- 6&#45;&gt;2 -->
<g id="edge9" class="edge"><title>6&#45;&gt;2</title>
<path fill="none" stroke="black" stroke-width="2" d="M119.089,-74.4385C133.134,-69.6651 151.981,-63.2596 167.695,-57.9188"/>
<polygon fill="black" stroke="black" stroke-width="2" points="169.146,-61.1226 177.488,-54.5909 166.893,-54.4949 169.146,-61.1226"/>
</g>
<!-- 6&#45;&gt;3 -->
<g id="edge12" class="edge"><title>6&#45;&gt;3</title>
<path fill="none" stroke="black" stroke-width="2" d="M109.345,-99.6888C120.879,-119.22 139.291,-150.399 152.53,-172.817"/>
<polygon fill="black" stroke="black" stroke-width="2" points="149.577,-174.701 157.676,-181.531 155.605,-171.141 149.577,-174.701"/>
</g>
</g>
</svg>

