<?xml version="1.0" encoding="UTF-8" standalone="no"?>
<!DOCTYPE svg PUBLIC "-//W3C//DTD SVG 1.1//EN"
 "http://www.w3.org/Graphics/SVG/1.1/DTD/svg11.dtd">
<!-- Generated by graphviz version 2.36.0 (20140111.2315)
 -->
<!-- Title: G Pages: 1 -->
<svg width="100%" height="100%"
 viewBox="0.00 0.00 339.04 312.98" xmlns="http://www.w3.org/2000/svg" xmlns:xlink="http://www.w3.org/1999/xlink">
<g id="graph0" class="graph" transform="scale(1 1) rotate(0) translate(4 308.983)">
<title>G</title>
<!-- 0 -->
<g id="node1" class="node"><title>0</title>
<ellipse fill="cadetblue" stroke="black" cx="61.6783" cy="-93.9885" rx="21.4286" ry="21.4286"/>
<text text-anchor="middle" x="61.6783" y="-88.9885" font-family="Times New Roman,serif" font-size="20.00">2</text>
</g>
<!-- 6 -->
<g id="node7" class="node"><title>6</title>
<ellipse fill="cadetblue" stroke="black" cx="234.564" cy="-163.975" rx="21.4286" ry="21.4286"/>
<text text-anchor="middle" x="234.564" y="-158.975" font-family="Times New Roman,serif" font-size="20.00">2</text>
</g>
<!-- 0&#45;&gt;6 -->
<g id="edge3" class="edge"><title>0&#45;&gt;6</title>
<path fill="none" stroke="black" stroke-width="2" d="M81.5105,-102.017C111.912,-114.324 170.206,-137.922 205.42,-152.177"/>
<polygon fill="black" stroke="black" stroke-width="2" points="204.115,-155.424 214.697,-155.933 206.741,-148.936 204.115,-155.424"/>
</g>
<!-- 7 -->
<g id="node8" class="node"><title>7</title>
<ellipse fill="brown" stroke="black" cx="192.44" cy="-113.543" rx="21.4286" ry="21.4286"/>
<text text-anchor="middle" x="192.44" y="-108.543" font-family="Times New Roman,serif" font-size="20.00">3</text>
</g>
<!-- 0&#45;&gt;7 -->
<g id="edge4" class="edge"><title>0&#45;&gt;7</title>
<path fill="none" stroke="black" stroke-width="2" d="M82.6875,-97.1303C103.818,-100.29 136.656,-105.201 160.911,-108.828"/>
<polygon fill="black" stroke="black" stroke-width="2" points="160.641,-112.327 171.049,-110.344 161.676,-105.404 160.641,-112.327"/>
</g>
<!-- 1 -->
<g id="node2" class="node"><title>1</title>
<ellipse fill="cadetblue" stroke="black" cx="96.1591" cy="-163.355" rx="21.4286" ry="21.4286"/>
<text text-anchor="middle" x="96.1591" y="-158.355" font-family="Times New Roman,serif" font-size="20.00">2</text>
</g>
<!-- 5 -->
<g id="node6" class="node"><title>5</title>
<ellipse fill="cadetblue" stroke="black" cx="21.2132" cy="-255.352" rx="21.4286" ry="21.4286"/>
<text text-anchor="middle" x="21.2132" y="-250.352" font-family="Times New Roman,serif" font-size="20.00">2</text>
</g>
<!-- 1&#45;&gt;5 -->
<g id="edge6" class="edge"><title>1&#45;&gt;5</title>
<path fill="none" stroke="black" stroke-width="2" d="M82.7602,-179.802C71.2153,-193.974 54.3835,-214.635 41.2389,-230.77"/>
<polygon fill="black" stroke="black" stroke-width="2" points="38.3512,-228.773 34.7487,-238.737 43.7783,-233.194 38.3512,-228.773"/>
</g>
<!-- 1&#45;&gt;7 -->
<g id="edge8" class="edge"><title>1&#45;&gt;7</title>
<path fill="none" stroke="black" stroke-width="2" d="M115.181,-153.514C129.159,-146.282 148.384,-136.336 164.159,-128.175"/>
<polygon fill="black" stroke="black" stroke-width="2" points="166.184,-131.068 173.458,-123.364 162.968,-124.85 166.184,-131.068"/>
</g>
<!-- 2 -->
<g id="node3" class="node"><title>2</title>
<ellipse fill="cadetblue" stroke="black" cx="309.824" cy="-42.341" rx="21.4286" ry="21.4286"/>
<text text-anchor="middle" x="309.824" y="-37.341" font-family="Times New Roman,serif" font-size="20.00">2</text>
</g>
<!-- 2&#45;&gt;7 -->
<g id="edge11" class="edge"><title>2&#45;&gt;7</title>
<path fill="none" stroke="black" stroke-width="2" d="M291.483,-53.4664C272.101,-65.223 241.34,-83.8819 219.241,-97.2865"/>
<polygon fill="black" stroke="black" stroke-width="2" points="217.387,-94.3173 210.653,-102.496 221.018,-100.302 217.387,-94.3173"/>
</g>
<!-- 3 -->
<g id="node4" class="node"><title>3</title>
<ellipse fill="cadetblue" stroke="black" cx="179.672" cy="-283.77" rx="21.4286" ry="21.4286"/>
<text text-anchor="middle" x="179.672" y="-278.77" font-family="Times New Roman,serif" font-size="20.00">2</text>
</g>
<!-- 3&#45;&gt;5 -->
<g id="edge12" class="edge"><title>3&#45;&gt;5</title>
<path fill="none" stroke="black" stroke-width="2" d="M158.63,-279.996C131.401,-275.113 83.7358,-266.565 52.3204,-260.931"/>
<polygon fill="black" stroke="black" stroke-width="2" points="52.8032,-257.461 42.3424,-259.141 51.5675,-264.352 52.8032,-257.461"/>
</g>
<!-- 4 -->
<g id="node5" class="node"><title>4</title>
<ellipse fill="cadetblue" stroke="black" cx="168.416" cy="-21.2132" rx="21.4286" ry="21.4286"/>
<text text-anchor="middle" x="168.416" y="-16.2132" font-family="Times New Roman,serif" font-size="20.00">2</text>
</g>
<!-- 4&#45;&gt;0 -->
<g id="edge1" class="edge"><title>4&#45;&gt;0</title>
<path fill="none" stroke="black" stroke-width="2" d="M150.791,-33.2306C133.64,-44.9238 107.376,-62.831 87.7981,-76.1796"/>
<polygon fill="black" stroke="black" stroke-width="2" points="85.6207,-73.4281 79.3301,-81.9533 89.5641,-79.2117 85.6207,-73.4281"/>
</g>
<!-- 4&#45;&gt;1 -->
<g id="edge5" class="edge"><title>4&#45;&gt;1</title>
<path fill="none" stroke="black" stroke-width="2" d="M158.671,-40.383C146.281,-64.7564 124.788,-107.036 110.519,-135.106"/>
<polygon fill="black" stroke="black" stroke-width="2" points="107.392,-133.534 105.98,-144.035 113.632,-136.706 107.392,-133.534"/>
</g>
<!-- 4&#45;&gt;2 -->
<g id="edge9" class="edge"><title>4&#45;&gt;2</title>
<path fill="none" stroke="black" stroke-width="2" d="M189.586,-24.3762C213.12,-27.8925 251.369,-33.6072 278.399,-37.6457"/>
<polygon fill="black" stroke="black" stroke-width="2" points="278.101,-41.1401 288.509,-39.1563 279.136,-34.217 278.101,-41.1401"/>
</g>
<!-- 5&#45;&gt;0 -->
<g id="edge2" class="edge"><title>5&#45;&gt;0</title>
<path fill="none" stroke="black" stroke-width="2" d="M26.4205,-234.587C33.4315,-206.629 45.9571,-156.68 54.0366,-124.461"/>
<polygon fill="black" stroke="black" stroke-width="2" points="57.4534,-125.225 56.491,-114.674 50.6637,-123.522 57.4534,-125.225"/>
</g>
<!-- 6&#45;&gt;1 -->
<g id="edge7" class="edge"><title>6&#45;&gt;1</title>
<path fill="none" stroke="black" stroke-width="2" d="M213.241,-163.879C190.449,-163.777 154.064,-163.614 127.903,-163.497"/>
<polygon fill="black" stroke="black" stroke-width="2" points="127.749,-159.996 117.734,-163.451 127.718,-166.996 127.749,-159.996"/>
</g>
<!-- 6&#45;&gt;2 -->
<g id="edge10" class="edge"><title>6&#45;&gt;2</title>
<path fill="none" stroke="black" stroke-width="2" d="M245.831,-145.765C258.356,-125.522 278.713,-92.6218 293.099,-69.3718"/>
<polygon fill="black" stroke="black" stroke-width="2" points="296.194,-71.0207 298.48,-60.6753 290.242,-67.3375 296.194,-71.0207"/>
</g>
<!-- 6&#45;&gt;3 -->
<g id="edge13" class="edge"><title>6&#45;&gt;3</title>
<path fill="none" stroke="black" stroke-width="2" d="M225.622,-183.489C216.731,-202.894 202.989,-232.883 192.848,-255.015"/>
<polygon fill="black" stroke="black" stroke-width="2" points="189.594,-253.715 188.61,-264.264 195.958,-256.631 189.594,-253.715"/>
</g>
<!-- 6&#45;&gt;4 -->
<g id="edge15" class="edge"><title>6&#45;&gt;4</title>
<path fill="none" stroke="black" stroke-width="2" d="M228.508,-143.226C225.719,-134.065 222.252,-123.204 218.745,-113.545 210.308,-90.3099 196.717,-65.8245 185.784,-47.911"/>
<polygon fill="black" stroke="black" stroke-width="2" points="188.607,-45.8231 180.35,-39.1839 182.664,-49.5229 188.607,-45.8231"/>
</g>
<!-- 7&#45;&gt;3 -->
<g id="edge14" class="edge"><title>7&#45;&gt;3</title>
<path fill="none" stroke="black" stroke-width="2" d="M190.849,-134.758C188.635,-164.273 184.609,-217.946 182.042,-252.179"/>
<polygon fill="black" stroke="black" stroke-width="2" points="178.521,-252.321 181.264,-262.555 185.502,-252.845 178.521,-252.321"/>
</g>
<!-- 7&#45;&gt;4 -->
<g id="edge16" class="edge"><title>7&#45;&gt;4</title>
<path fill="none" stroke="black" stroke-width="2" d="M186.989,-92.5922C183.834,-80.4663 179.807,-64.9925 176.311,-51.554"/>
<polygon fill="black" stroke="black" stroke-width="2" points="179.669,-50.5598 173.763,-41.7634 172.894,-52.3225 179.669,-50.5598"/>
</g>
<!-- 7&#45;&gt;6 -->
<g id="edge17" class="edge"><title>7&#45;&gt;6</title>
<path fill="none" stroke="black" stroke-width="2" d="M206.233,-130.056C208.805,-133.136 211.542,-136.412 214.261,-139.668"/>
<polygon fill="black" stroke="black" stroke-width="2" points="211.787,-142.166 220.884,-147.597 217.159,-137.678 211.787,-142.166"/>
</g>
</g>
</svg>

