<?xml version="1.0" encoding="UTF-8" standalone="no"?>
<!DOCTYPE svg PUBLIC "-//W3C//DTD SVG 1.1//EN"
 "http://www.w3.org/Graphics/SVG/1.1/DTD/svg11.dtd">
<!-- Generated by graphviz version 2.36.0 (20140111.2315)
 -->
<!-- Title: G Pages: 1 -->
<svg width="100%" height="100%"
 viewBox="0.00 0.00 261.96 261.71" xmlns="http://www.w3.org/2000/svg" xmlns:xlink="http://www.w3.org/1999/xlink">
<g id="graph0" class="graph" transform="scale(1 1) rotate(0) translate(4 257.713)">
<title>G</title>
<!-- 0 -->
<g id="node1" class="node"><title>0</title>
<ellipse fill="cadetblue" stroke="black" cx="132.137" cy="-71.6447" rx="21.4286" ry="21.4286"/>
<text text-anchor="middle" x="132.137" y="-66.6447" font-family="Times New Roman,serif" font-size="20.00">2</text>
</g>
<!-- 6 -->
<g id="node7" class="node"><title>6</title>
<ellipse fill="cadetblue" stroke="black" cx="232.745" cy="-106.171" rx="21.4286" ry="21.4286"/>
<text text-anchor="middle" x="232.745" y="-101.171" font-family="Times New Roman,serif" font-size="20.00">2</text>
</g>
<!-- 0&#45;&gt;6 -->
<g id="edge3" class="edge"><title>0&#45;&gt;6</title>
<path fill="none" stroke="black" stroke-width="2" d="M152.496,-78.6315C166.951,-83.5921 186.593,-90.3325 202.826,-95.9032"/>
<polygon fill="black" stroke="black" stroke-width="2" points="201.821,-99.2587 212.416,-99.1942 204.093,-92.6377 201.821,-99.2587"/>
</g>
<!-- 7 -->
<g id="node8" class="node"><title>7</title>
<ellipse fill="cadetblue" stroke="black" cx="28.7692" cy="-81.9099" rx="21.4286" ry="21.4286"/>
<text text-anchor="middle" x="28.7692" y="-76.9099" font-family="Times New Roman,serif" font-size="20.00">2</text>
</g>
<!-- 0&#45;&gt;7 -->
<g id="edge4" class="edge"><title>0&#45;&gt;7</title>
<path fill="none" stroke="black" stroke-width="2" d="M110.719,-73.7716C96.1664,-75.2168 76.6707,-77.1529 60.3458,-78.7741"/>
<polygon fill="black" stroke="black" stroke-width="2" points="59.7648,-75.3145 50.1597,-79.7857 60.4566,-82.2802 59.7648,-75.3145"/>
</g>
<!-- 1 -->
<g id="node2" class="node"><title>1</title>
<ellipse fill="cadetblue" stroke="black" cx="120.095" cy="-181.567" rx="21.4286" ry="21.4286"/>
<text text-anchor="middle" x="120.095" y="-176.567" font-family="Times New Roman,serif" font-size="20.00">2</text>
</g>
<!-- 1&#45;&gt;6 -->
<g id="edge7" class="edge"><title>1&#45;&gt;6</title>
<path fill="none" stroke="black" stroke-width="2" d="M137.945,-169.621C156.402,-157.267 185.416,-137.848 206.488,-123.744"/>
<polygon fill="black" stroke="black" stroke-width="2" points="208.615,-126.532 214.979,-118.062 204.722,-120.715 208.615,-126.532"/>
</g>
<!-- 1&#45;&gt;7 -->
<g id="edge8" class="edge"><title>1&#45;&gt;7</title>
<path fill="none" stroke="black" stroke-width="2" d="M105.422,-165.556C90.4216,-149.187 66.9735,-123.6 49.9593,-105.033"/>
<polygon fill="black" stroke="black" stroke-width="2" points="52.4414,-102.561 43.1048,-97.5533 47.2806,-107.291 52.4414,-102.561"/>
</g>
<!-- 2 -->
<g id="node3" class="node"><title>2</title>
<ellipse fill="cadetblue" stroke="black" cx="140.832" cy="-21.2132" rx="21.4286" ry="21.4286"/>
<text text-anchor="middle" x="140.832" y="-16.2132" font-family="Times New Roman,serif" font-size="20.00">2</text>
</g>
<!-- 4 -->
<g id="node5" class="node"><title>4</title>
<ellipse fill="cadetblue" stroke="black" cx="225.355" cy="-170.974" rx="21.4286" ry="21.4286"/>
<text text-anchor="middle" x="225.355" y="-165.974" font-family="Times New Roman,serif" font-size="20.00">2</text>
</g>
<!-- 2&#45;&gt;4 -->
<g id="edge9" class="edge"><title>2&#45;&gt;4</title>
<path fill="none" stroke="black" stroke-width="2" d="M151.366,-39.8777C166.044,-65.8854 192.756,-113.215 209.75,-143.325"/>
<polygon fill="black" stroke="black" stroke-width="2" points="206.725,-145.086 214.688,-152.074 212.821,-141.645 206.725,-145.086"/>
</g>
<!-- 5 -->
<g id="node6" class="node"><title>5</title>
<ellipse fill="cadetblue" stroke="black" cx="21.2132" cy="-147.788" rx="21.4286" ry="21.4286"/>
<text text-anchor="middle" x="21.2132" y="-142.788" font-family="Times New Roman,serif" font-size="20.00">2</text>
</g>
<!-- 2&#45;&gt;5 -->
<g id="edge10" class="edge"><title>2&#45;&gt;5</title>
<path fill="none" stroke="black" stroke-width="2" d="M126.164,-36.7338C105.359,-58.7494 67.1287,-99.2026 43.001,-124.733"/>
<polygon fill="black" stroke="black" stroke-width="2" points="40.3256,-122.469 36.0008,-132.141 45.4132,-127.277 40.3256,-122.469"/>
</g>
<!-- 3 -->
<g id="node4" class="node"><title>3</title>
<ellipse fill="cadetblue" stroke="black" cx="115.56" cy="-232.5" rx="21.4286" ry="21.4286"/>
<text text-anchor="middle" x="115.56" y="-227.5" font-family="Times New Roman,serif" font-size="20.00">2</text>
</g>
<!-- 3&#45;&gt;4 -->
<g id="edge13" class="edge"><title>3&#45;&gt;4</title>
<path fill="none" stroke="black" stroke-width="2" d="M134.185,-222.063C151.615,-212.296 177.874,-197.581 197.741,-186.448"/>
<polygon fill="black" stroke="black" stroke-width="2" points="199.626,-189.404 206.638,-181.462 196.204,-183.297 199.626,-189.404"/>
</g>
<!-- 3&#45;&gt;5 -->
<g id="edge14" class="edge"><title>3&#45;&gt;5</title>
<path fill="none" stroke="black" stroke-width="2" d="M99.5555,-218.13C84.646,-204.743 62.2178,-184.605 45.1742,-169.302"/>
<polygon fill="black" stroke="black" stroke-width="2" points="47.0755,-166.306 37.2964,-162.229 42.3989,-171.514 47.0755,-166.306"/>
</g>
<!-- 4&#45;&gt;0 -->
<g id="edge1" class="edge"><title>4&#45;&gt;0</title>
<path fill="none" stroke="black" stroke-width="2" d="M210.79,-155.454C195.556,-139.221 171.47,-113.557 153.963,-94.9016"/>
<polygon fill="black" stroke="black" stroke-width="2" points="156.303,-92.2804 146.908,-87.3837 151.199,-97.0706 156.303,-92.2804"/>
</g>
<!-- 4&#45;&gt;1 -->
<g id="edge5" class="edge"><title>4&#45;&gt;1</title>
<path fill="none" stroke="black" stroke-width="2" d="M204.054,-173.118C188.931,-174.64 168.381,-176.708 151.398,-178.417"/>
<polygon fill="black" stroke="black" stroke-width="2" points="150.963,-174.943 141.364,-179.427 151.665,-181.908 150.963,-174.943"/>
</g>
<!-- 5&#45;&gt;0 -->
<g id="edge2" class="edge"><title>5&#45;&gt;0</title>
<path fill="none" stroke="black" stroke-width="2" d="M39.035,-135.554C57.1471,-123.121 85.3996,-103.727 106.034,-89.5629"/>
<polygon fill="black" stroke="black" stroke-width="2" points="108.096,-92.3931 114.359,-83.8481 104.134,-86.6219 108.096,-92.3931"/>
</g>
<!-- 5&#45;&gt;1 -->
<g id="edge6" class="edge"><title>5&#45;&gt;1</title>
<path fill="none" stroke="black" stroke-width="2" d="M41.7016,-154.787C55.7156,-159.575 74.5213,-165.999 90.2008,-171.355"/>
<polygon fill="black" stroke="black" stroke-width="2" points="89.3767,-174.772 99.9712,-174.693 91.6396,-168.148 89.3767,-174.772"/>
</g>
<!-- 6&#45;&gt;2 -->
<g id="edge11" class="edge"><title>6&#45;&gt;2</title>
<path fill="none" stroke="black" stroke-width="2" d="M217.153,-91.7588C202.628,-78.3331 180.779,-58.1369 164.175,-42.7895"/>
<polygon fill="black" stroke="black" stroke-width="2" points="166.22,-39.9133 156.5,-35.6958 161.468,-45.0538 166.22,-39.9133"/>
</g>
<!-- 6&#45;&gt;3 -->
<g id="edge15" class="edge"><title>6&#45;&gt;3</title>
<path fill="none" stroke="black" stroke-width="2" d="M218.14,-121.915C197.79,-143.854 160.756,-183.778 137.195,-209.177"/>
<polygon fill="black" stroke="black" stroke-width="2" points="134.584,-206.846 130.349,-216.558 139.716,-211.606 134.584,-206.846"/>
</g>
<!-- 7&#45;&gt;2 -->
<g id="edge12" class="edge"><title>7&#45;&gt;2</title>
<path fill="none" stroke="black" stroke-width="2" d="M47.5261,-71.7506C65.4648,-62.0344 92.7325,-47.2655 113.165,-36.1985"/>
<polygon fill="black" stroke="black" stroke-width="2" points="114.888,-39.2458 122.014,-31.4056 111.554,-33.0907 114.888,-39.2458"/>
</g>
<!-- 7&#45;&gt;3 -->
<g id="edge16" class="edge"><title>7&#45;&gt;3</title>
<path fill="none" stroke="black" stroke-width="2" d="M39.4115,-100.375C54.5074,-126.568 82.2456,-174.696 99.7518,-205.071"/>
<polygon fill="black" stroke="black" stroke-width="2" points="96.805,-206.968 104.831,-213.884 102.87,-203.472 96.805,-206.968"/>
</g>
</g>
</svg>

