<?xml version="1.0" encoding="UTF-8" standalone="no"?>
<!DOCTYPE svg PUBLIC "-//W3C//DTD SVG 1.1//EN"
 "http://www.w3.org/Graphics/SVG/1.1/DTD/svg11.dtd">
<!-- Generated by graphviz version 2.36.0 (20140111.2315)
 -->
<!-- Title: G Pages: 1 -->
<svg width="100%" height="100%"
 viewBox="0.00 0.00 236.67 197.01" xmlns="http://www.w3.org/2000/svg" xmlns:xlink="http://www.w3.org/1999/xlink">
<g id="graph0" class="graph" transform="scale(1 1) rotate(0) translate(4 193.006)">
<title>G</title>
<!-- 0 -->
<g id="node1" class="node"><title>0</title>
<ellipse fill="cadetblue" stroke="black" cx="53.5787" cy="-21.2132" rx="21.4286" ry="21.4286"/>
<text text-anchor="middle" x="53.5787" y="-16.2132" font-family="Times New Roman,serif" font-size="20.00">2</text>
</g>
<!-- 7 -->
<g id="node8" class="node"><title>7</title>
<ellipse fill="cadetblue" stroke="black" cx="119.572" cy="-96.6473" rx="21.4286" ry="21.4286"/>
<text text-anchor="middle" x="119.572" y="-91.6473" font-family="Times New Roman,serif" font-size="20.00">2</text>
</g>
<!-- 0&#45;&gt;7 -->
<g id="edge3" class="edge"><title>0&#45;&gt;7</title>
<path fill="none" stroke="black" stroke-width="2" d="M67.5741,-37.2108C76.6735,-47.612 88.6974,-61.356 98.8906,-73.0075"/>
<polygon fill="black" stroke="black" stroke-width="2" points="96.3779,-75.4509 105.597,-80.6727 101.646,-70.8418 96.3779,-75.4509"/>
</g>
<!-- 1 -->
<g id="node2" class="node"><title>1</title>
<ellipse fill="cadetblue" stroke="black" cx="21.2132" cy="-81.7608" rx="21.4286" ry="21.4286"/>
<text text-anchor="middle" x="21.2132" y="-76.7608" font-family="Times New Roman,serif" font-size="20.00">2</text>
</g>
<!-- 6 -->
<g id="node7" class="node"><title>6</title>
<ellipse fill="cadetblue" stroke="black" cx="121.015" cy="-42.4246" rx="21.4286" ry="21.4286"/>
<text text-anchor="middle" x="121.015" y="-37.4246" font-family="Times New Roman,serif" font-size="20.00">2</text>
</g>
<!-- 1&#45;&gt;6 -->
<g id="edge5" class="edge"><title>1&#45;&gt;6</title>
<path fill="none" stroke="black" stroke-width="2" d="M41.4095,-73.8005C55.843,-68.1117 75.4893,-60.3682 91.6528,-53.9975"/>
<polygon fill="black" stroke="black" stroke-width="2" points="93.169,-57.162 101.189,-50.2388 90.6022,-50.6496 93.169,-57.162"/>
</g>
<!-- 2 -->
<g id="node3" class="node"><title>2</title>
<ellipse fill="cadetblue" stroke="black" cx="201.767" cy="-56.5949" rx="21.4286" ry="21.4286"/>
<text text-anchor="middle" x="201.767" y="-51.5949" font-family="Times New Roman,serif" font-size="20.00">2</text>
</g>
<!-- 2&#45;&gt;6 -->
<g id="edge8" class="edge"><title>2&#45;&gt;6</title>
<path fill="none" stroke="black" stroke-width="2" d="M180.55,-52.8719C171.834,-51.3423 161.566,-49.5406 152.035,-47.8681"/>
<polygon fill="black" stroke="black" stroke-width="2" points="152.544,-44.404 142.09,-46.1229 151.334,-51.2986 152.544,-44.404"/>
</g>
<!-- 3 -->
<g id="node4" class="node"><title>3</title>
<ellipse fill="cadetblue" stroke="black" cx="207.457" cy="-115.583" rx="21.4286" ry="21.4286"/>
<text text-anchor="middle" x="207.457" y="-110.583" font-family="Times New Roman,serif" font-size="20.00">2</text>
</g>
<!-- 5 -->
<g id="node6" class="node"><title>5</title>
<ellipse fill="cadetblue" stroke="black" cx="157.446" cy="-167.793" rx="21.4286" ry="21.4286"/>
<text text-anchor="middle" x="157.446" y="-162.793" font-family="Times New Roman,serif" font-size="20.00">2</text>
</g>
<!-- 3&#45;&gt;5 -->
<g id="edge10" class="edge"><title>3&#45;&gt;5</title>
<path fill="none" stroke="black" stroke-width="2" d="M192.722,-130.965C188.487,-135.387 183.776,-140.305 179.211,-145.071"/>
<polygon fill="black" stroke="black" stroke-width="2" points="176.638,-142.697 172.248,-152.34 181.693,-147.539 176.638,-142.697"/>
</g>
<!-- 4 -->
<g id="node5" class="node"><title>4</title>
<ellipse fill="cadetblue" stroke="black" cx="64.0497" cy="-132.192" rx="21.4286" ry="21.4286"/>
<text text-anchor="middle" x="64.0497" y="-127.192" font-family="Times New Roman,serif" font-size="20.00">2</text>
</g>
<!-- 4&#45;&gt;0 -->
<g id="edge1" class="edge"><title>4&#45;&gt;0</title>
<path fill="none" stroke="black" stroke-width="2" d="M62.0555,-111.057C60.5007,-94.5776 58.3171,-71.4342 56.5556,-52.7639"/>
<polygon fill="black" stroke="black" stroke-width="2" points="60.0251,-52.275 55.6011,-42.6481 53.056,-52.9326 60.0251,-52.275"/>
</g>
<!-- 4&#45;&gt;1 -->
<g id="edge4" class="edge"><title>4&#45;&gt;1</title>
<path fill="none" stroke="black" stroke-width="2" d="M50.2602,-115.958C47.5087,-112.718 44.5639,-109.252 41.6437,-105.814"/>
<polygon fill="black" stroke="black" stroke-width="2" points="44.1183,-103.321 34.9769,-97.9648 38.7832,-107.852 44.1183,-103.321"/>
</g>
<!-- 4&#45;&gt;5 -->
<g id="edge13" class="edge"><title>4&#45;&gt;5</title>
<path fill="none" stroke="black" stroke-width="2" d="M84.3154,-139.917C97.131,-144.802 113.907,-151.196 128.158,-156.629"/>
<polygon fill="black" stroke="black" stroke-width="2" points="126.95,-159.914 137.541,-160.205 129.444,-153.373 126.95,-159.914"/>
</g>
<!-- 5&#45;&gt;2 -->
<g id="edge7" class="edge"><title>5&#45;&gt;2</title>
<path fill="none" stroke="black" stroke-width="2" d="M165.37,-147.913C172.271,-130.598 182.367,-105.268 190.176,-85.6756"/>
<polygon fill="black" stroke="black" stroke-width="2" points="193.461,-86.888 193.912,-76.3027 186.958,-84.2962 193.461,-86.888"/>
</g>
<!-- 5&#45;&gt;7 -->
<g id="edge16" class="edge"><title>5&#45;&gt;7</title>
<path fill="none" stroke="black" stroke-width="2" d="M147.297,-148.727C143.391,-141.39 138.844,-132.85 134.576,-124.833"/>
<polygon fill="black" stroke="black" stroke-width="2" points="137.538,-122.948 129.75,-115.766 131.359,-126.237 137.538,-122.948"/>
</g>
<!-- 6&#45;&gt;0 -->
<g id="edge2" class="edge"><title>6&#45;&gt;0</title>
<path fill="none" stroke="black" stroke-width="2" d="M100.415,-35.9453C95.1862,-34.3005 89.4585,-32.4989 83.8585,-30.7375"/>
<polygon fill="black" stroke="black" stroke-width="2" points="84.6415,-27.3147 74.052,-27.6529 82.5411,-33.9922 84.6415,-27.3147"/>
</g>
<!-- 6&#45;&gt;3 -->
<g id="edge11" class="edge"><title>6&#45;&gt;3</title>
<path fill="none" stroke="black" stroke-width="2" d="M137.274,-56.1851C150.231,-67.1511 168.571,-82.6726 183.253,-95.0988"/>
<polygon fill="black" stroke="black" stroke-width="2" points="181.082,-97.8467 190.977,-101.635 185.604,-92.5034 181.082,-97.8467"/>
</g>
<!-- 6&#45;&gt;4 -->
<g id="edge14" class="edge"><title>6&#45;&gt;4</title>
<path fill="none" stroke="black" stroke-width="2" d="M109.487,-60.5904C101.303,-73.4879 90.1813,-91.013 80.9902,-105.497"/>
<polygon fill="black" stroke="black" stroke-width="2" points="77.9632,-103.735 75.5603,-114.053 83.8736,-107.485 77.9632,-103.735"/>
</g>
<!-- 7&#45;&gt;1 -->
<g id="edge6" class="edge"><title>7&#45;&gt;1</title>
<path fill="none" stroke="black" stroke-width="2" d="M98.2294,-93.4171C84.9537,-91.4079 67.6426,-88.7878 52.796,-86.5408"/>
<polygon fill="black" stroke="black" stroke-width="2" points="52.9251,-83.0206 42.5139,-84.9846 51.8775,-89.9417 52.9251,-83.0206"/>
</g>
<!-- 7&#45;&gt;2 -->
<g id="edge9" class="edge"><title>7&#45;&gt;2</title>
<path fill="none" stroke="black" stroke-width="2" d="M139.051,-87.1555C149.287,-82.1674 162.025,-75.9605 173.342,-70.446"/>
<polygon fill="black" stroke="black" stroke-width="2" points="174.971,-73.5455 182.428,-66.0187 171.905,-67.2528 174.971,-73.5455"/>
</g>
<!-- 7&#45;&gt;3 -->
<g id="edge12" class="edge"><title>7&#45;&gt;3</title>
<path fill="none" stroke="black" stroke-width="2" d="M140.399,-101.135C151.156,-103.452 164.497,-106.327 176.439,-108.9"/>
<polygon fill="black" stroke="black" stroke-width="2" points="175.961,-112.377 186.474,-111.062 177.436,-105.534 175.961,-112.377"/>
</g>
<!-- 7&#45;&gt;4 -->
<g id="edge15" class="edge"><title>7&#45;&gt;4</title>
<path fill="none" stroke="black" stroke-width="2" d="M101.699,-108.09C98.2036,-110.327 94.4681,-112.719 90.7576,-115.094"/>
<polygon fill="black" stroke="black" stroke-width="2" points="88.8054,-112.188 82.2706,-120.527 92.5797,-118.083 88.8054,-112.188"/>
</g>
</g>
</svg>

