<?xml version="1.0" encoding="UTF-8" standalone="no"?>
<!DOCTYPE svg PUBLIC "-//W3C//DTD SVG 1.1//EN"
 "http://www.w3.org/Graphics/SVG/1.1/DTD/svg11.dtd">
<!-- Generated by graphviz version 2.36.0 (20140111.2315)
 -->
<!-- Title: G Pages: 1 -->
<svg width="100%" height="100%"
 viewBox="0.00 0.00 209.03 256.58" xmlns="http://www.w3.org/2000/svg" xmlns:xlink="http://www.w3.org/1999/xlink">
<g id="graph0" class="graph" transform="scale(1 1) rotate(0) translate(4 252.579)">
<title>G</title>
<!-- 0 -->
<g id="node1" class="node"><title>0</title>
<ellipse fill="cadetblue" stroke="black" cx="44.3175" cy="-45.1007" rx="21.4286" ry="21.4286"/>
<text text-anchor="middle" x="44.3175" y="-40.1007" font-family="Times New Roman,serif" font-size="20.00">2</text>
</g>
<!-- 6 -->
<g id="node7" class="node"><title>6</title>
<ellipse fill="cadetblue" stroke="black" cx="143.909" cy="-116.921" rx="21.4286" ry="21.4286"/>
<text text-anchor="middle" x="143.909" y="-111.921" font-family="Times New Roman,serif" font-size="20.00">2</text>
</g>
<!-- 0&#45;&gt;6 -->
<g id="edge3" class="edge"><title>0&#45;&gt;6</title>
<path fill="none" stroke="black" stroke-width="2" d="M61.6651,-57.6108C77.2781,-68.8701 100.429,-85.5654 118.195,-98.3767"/>
<polygon fill="black" stroke="black" stroke-width="2" points="116.268,-101.303 126.426,-104.313 120.363,-95.625 116.268,-101.303"/>
</g>
<!-- 7 -->
<g id="node8" class="node"><title>7</title>
<ellipse fill="cadetblue" stroke="black" cx="93.279" cy="-125.919" rx="21.4286" ry="21.4286"/>
<text text-anchor="middle" x="93.279" y="-120.919" font-family="Times New Roman,serif" font-size="20.00">2</text>
</g>
<!-- 0&#45;&gt;7 -->
<g id="edge4" class="edge"><title>0&#45;&gt;7</title>
<path fill="none" stroke="black" stroke-width="2" d="M55.4276,-63.4397C61.7503,-73.8762 69.7893,-87.146 76.8311,-98.7696"/>
<polygon fill="black" stroke="black" stroke-width="2" points="74.0378,-100.914 82.2128,-107.653 80.0248,-97.2865 74.0378,-100.914"/>
</g>
<!-- 1 -->
<g id="node2" class="node"><title>1</title>
<ellipse fill="cadetblue" stroke="black" cx="172.365" cy="-182.8" rx="21.4286" ry="21.4286"/>
<text text-anchor="middle" x="172.365" y="-177.8" font-family="Times New Roman,serif" font-size="20.00">2</text>
</g>
<!-- 1&#45;&gt;6 -->
<g id="edge7" class="edge"><title>1&#45;&gt;6</title>
<path fill="none" stroke="black" stroke-width="2" d="M163.827,-163.034C161.52,-157.693 158.974,-151.798 156.495,-146.059"/>
<polygon fill="black" stroke="black" stroke-width="2" points="159.619,-144.465 152.441,-136.673 153.193,-147.241 159.619,-144.465"/>
</g>
<!-- 1&#45;&gt;7 -->
<g id="edge8" class="edge"><title>1&#45;&gt;7</title>
<path fill="none" stroke="black" stroke-width="2" d="M154.813,-170.176C144.194,-162.539 130.472,-152.669 118.681,-144.19"/>
<polygon fill="black" stroke="black" stroke-width="2" points="120.672,-141.31 110.51,-138.312 116.584,-146.992 120.672,-141.31"/>
</g>
<!-- 2 -->
<g id="node3" class="node"><title>2</title>
<ellipse fill="cadetblue" stroke="black" cx="94.7489" cy="-21.2132" rx="21.4286" ry="21.4286"/>
<text text-anchor="middle" x="94.7489" y="-16.2132" font-family="Times New Roman,serif" font-size="20.00">2</text>
</g>
<!-- 4 -->
<g id="node5" class="node"><title>4</title>
<ellipse fill="cadetblue" stroke="black" cx="179.817" cy="-52.0224" rx="21.4286" ry="21.4286"/>
<text text-anchor="middle" x="179.817" y="-47.0224" font-family="Times New Roman,serif" font-size="20.00">2</text>
</g>
<!-- 2&#45;&gt;4 -->
<g id="edge9" class="edge"><title>2&#45;&gt;4</title>
<path fill="none" stroke="black" stroke-width="2" d="M114.909,-28.5145C125.503,-32.3515 138.686,-37.126 150.398,-41.3678"/>
<polygon fill="black" stroke="black" stroke-width="2" points="149.207,-44.6589 159.802,-44.7734 151.591,-38.0773 149.207,-44.6589"/>
</g>
<!-- 5 -->
<g id="node6" class="node"><title>5</title>
<ellipse fill="cadetblue" stroke="black" cx="21.2132" cy="-140.017" rx="21.4286" ry="21.4286"/>
<text text-anchor="middle" x="21.2132" y="-135.017" font-family="Times New Roman,serif" font-size="20.00">2</text>
</g>
<!-- 2&#45;&gt;5 -->
<g id="edge10" class="edge"><title>2&#45;&gt;5</title>
<path fill="none" stroke="black" stroke-width="2" d="M83.5804,-39.2569C71.4327,-58.8827 51.8839,-90.4656 37.9108,-113.04"/>
<polygon fill="black" stroke="black" stroke-width="2" points="34.7739,-111.458 32.4868,-121.803 40.7259,-115.142 34.7739,-111.458"/>
</g>
<!-- 3 -->
<g id="node4" class="node"><title>3</title>
<ellipse fill="cadetblue" stroke="black" cx="64.947" cy="-227.366" rx="21.4286" ry="21.4286"/>
<text text-anchor="middle" x="64.947" y="-222.366" font-family="Times New Roman,serif" font-size="20.00">2</text>
</g>
<!-- 3&#45;&gt;5 -->
<g id="edge13" class="edge"><title>3&#45;&gt;5</title>
<path fill="none" stroke="black" stroke-width="2" d="M55.241,-207.981C49.3686,-196.252 41.7805,-181.096 35.2605,-168.073"/>
<polygon fill="black" stroke="black" stroke-width="2" points="38.3482,-166.423 30.7415,-159.048 32.0889,-169.557 38.3482,-166.423"/>
</g>
<!-- 4&#45;&gt;0 -->
<g id="edge1" class="edge"><title>4&#45;&gt;0</title>
<path fill="none" stroke="black" stroke-width="2" d="M158.347,-50.9256C136.146,-49.7916 101.246,-48.0088 75.9,-46.714"/>
<polygon fill="black" stroke="black" stroke-width="2" points="75.8529,-43.2071 65.6873,-46.1923 75.4957,-50.198 75.8529,-43.2071"/>
</g>
<!-- 4&#45;&gt;1 -->
<g id="edge5" class="edge"><title>4&#45;&gt;1</title>
<path fill="none" stroke="black" stroke-width="2" d="M178.603,-73.3252C177.396,-94.5092 175.53,-127.249 174.154,-151.409"/>
<polygon fill="black" stroke="black" stroke-width="2" points="170.653,-151.324 173.578,-161.507 177.642,-151.722 170.653,-151.324"/>
</g>
<!-- 5&#45;&gt;0 -->
<g id="edge2" class="edge"><title>5&#45;&gt;0</title>
<path fill="none" stroke="black" stroke-width="2" d="M26.3408,-118.952C29.4432,-106.207 33.4519,-89.7382 36.8964,-75.5878"/>
<polygon fill="black" stroke="black" stroke-width="2" points="40.3192,-76.3243 39.2837,-65.7802 33.5178,-74.6687 40.3192,-76.3243"/>
</g>
<!-- 5&#45;&gt;1 -->
<g id="edge6" class="edge"><title>5&#45;&gt;1</title>
<path fill="none" stroke="black" stroke-width="2" d="M41.9133,-145.876C67.8058,-153.205 112.343,-165.811 142.072,-174.226"/>
<polygon fill="black" stroke="black" stroke-width="2" points="141.34,-177.656 151.915,-177.012 143.246,-170.921 141.34,-177.656"/>
</g>
<!-- 6&#45;&gt;2 -->
<g id="edge11" class="edge"><title>6&#45;&gt;2</title>
<path fill="none" stroke="black" stroke-width="2" d="M134.197,-98.0121C127.106,-84.2073 117.371,-65.2548 109.346,-49.6318"/>
<polygon fill="black" stroke="black" stroke-width="2" points="112.292,-47.7063 104.61,-40.4103 106.065,-50.9046 112.292,-47.7063"/>
</g>
<!-- 6&#45;&gt;3 -->
<g id="edge14" class="edge"><title>6&#45;&gt;3</title>
<path fill="none" stroke="black" stroke-width="2" d="M131.571,-134.178C118.667,-152.227 98.2651,-180.764 83.4352,-201.507"/>
<polygon fill="black" stroke="black" stroke-width="2" points="80.4276,-199.695 77.4588,-209.866 86.1219,-203.767 80.4276,-199.695"/>
</g>
<!-- 7&#45;&gt;2 -->
<g id="edge12" class="edge"><title>7&#45;&gt;2</title>
<path fill="none" stroke="black" stroke-width="2" d="M93.58,-104.478C93.7881,-89.6558 94.0685,-69.6836 94.3025,-53.0152"/>
<polygon fill="black" stroke="black" stroke-width="2" points="97.8075,-52.6742 94.4483,-42.6261 90.8082,-52.5759 97.8075,-52.6742"/>
</g>
<!-- 7&#45;&gt;3 -->
<g id="edge15" class="edge"><title>7&#45;&gt;3</title>
<path fill="none" stroke="black" stroke-width="2" d="M87.5456,-146.449C83.475,-161.024 77.9438,-180.829 73.3725,-197.198"/>
<polygon fill="black" stroke="black" stroke-width="2" points="69.9908,-196.295 70.6719,-206.867 76.7328,-198.177 69.9908,-196.295"/>
</g>
<!-- 7&#45;&gt;4 -->
<g id="edge16" class="edge"><title>7&#45;&gt;4</title>
<path fill="none" stroke="black" stroke-width="2" d="M109.566,-111.845C114.612,-107.495 120.196,-102.692 125.331,-98.2987 135.251,-89.8122 146.218,-80.487 155.696,-72.445"/>
<polygon fill="black" stroke="black" stroke-width="2" points="158.215,-74.8981 163.579,-65.7614 153.688,-69.5589 158.215,-74.8981"/>
</g>
</g>
</svg>

