<?xml version="1.0" encoding="UTF-8" standalone="no"?>
<!DOCTYPE svg PUBLIC "-//W3C//DTD SVG 1.1//EN"
 "http://www.w3.org/Graphics/SVG/1.1/DTD/svg11.dtd">
<!-- Generated by graphviz version 2.36.0 (20140111.2315)
 -->
<!-- Title: G Pages: 1 -->
<svg width="100%" height="100%"
 viewBox="0.00 0.00 282.79 214.58" xmlns="http://www.w3.org/2000/svg" xmlns:xlink="http://www.w3.org/1999/xlink">
<g id="graph0" class="graph" transform="scale(1 1) rotate(0) translate(4 210.582)">
<title>G</title>
<!-- 0 -->
<g id="node1" class="node"><title>0</title>
<ellipse fill="cadetblue" stroke="black" cx="33.0181" cy="-115.031" rx="21.4286" ry="21.4286"/>
<text text-anchor="middle" x="33.0181" y="-110.031" font-family="Times New Roman,serif" font-size="20.00">2</text>
</g>
<!-- 4 -->
<g id="node5" class="node"><title>4</title>
<ellipse fill="cadetblue" stroke="black" cx="68.5487" cy="-165.463" rx="21.4286" ry="21.4286"/>
<text text-anchor="middle" x="68.5487" y="-160.463" font-family="Times New Roman,serif" font-size="20.00">2</text>
</g>
<!-- 0&#45;&gt;4 -->
<g id="edge1" class="edge"><title>0&#45;&gt;4</title>
<path fill="none" stroke="black" stroke-width="2" d="M45.2458,-132.387C46.9018,-134.738 48.6293,-137.19 50.362,-139.649"/>
<polygon fill="black" stroke="black" stroke-width="2" points="47.5573,-141.745 56.178,-147.904 53.2797,-137.713 47.5573,-141.745"/>
</g>
<!-- 7 -->
<g id="node8" class="node"><title>7</title>
<ellipse fill="cadetblue" stroke="black" cx="127.107" cy="-21.2132" rx="21.4286" ry="21.4286"/>
<text text-anchor="middle" x="127.107" y="-16.2132" font-family="Times New Roman,serif" font-size="20.00">2</text>
</g>
<!-- 0&#45;&gt;7 -->
<g id="edge4" class="edge"><title>0&#45;&gt;7</title>
<path fill="none" stroke="black" stroke-width="2" d="M48.1352,-99.9579C63.3613,-84.7756 87.0359,-61.1692 104.496,-43.7597"/>
<polygon fill="black" stroke="black" stroke-width="2" points="107.418,-45.7887 112.028,-36.2493 102.475,-40.8318 107.418,-45.7887"/>
</g>
<!-- 1 -->
<g id="node2" class="node"><title>1</title>
<ellipse fill="cadetblue" stroke="black" cx="21.2132" cy="-22.9792" rx="21.4286" ry="21.4286"/>
<text text-anchor="middle" x="21.2132" y="-17.9792" font-family="Times New Roman,serif" font-size="20.00">2</text>
</g>
<!-- 6 -->
<g id="node7" class="node"><title>6</title>
<ellipse fill="brown" stroke="black" cx="138.245" cy="-88.5189" rx="21.4286" ry="21.4286"/>
<text text-anchor="middle" x="138.245" y="-83.5189" font-family="Times New Roman,serif" font-size="20.00">3</text>
</g>
<!-- 1&#45;&gt;6 -->
<g id="edge6" class="edge"><title>1&#45;&gt;6</title>
<path fill="none" stroke="black" stroke-width="2" d="M39.7572,-33.3642C58.819,-44.0391 88.721,-60.7847 110.579,-73.0259"/>
<polygon fill="black" stroke="black" stroke-width="2" points="108.965,-76.133 119.4,-77.9655 112.385,-70.0255 108.965,-76.133"/>
</g>
<!-- 2 -->
<g id="node3" class="node"><title>2</title>
<ellipse fill="cadetblue" stroke="black" cx="237.967" cy="-31.3205" rx="21.4286" ry="21.4286"/>
<text text-anchor="middle" x="237.967" y="-26.3205" font-family="Times New Roman,serif" font-size="20.00">2</text>
</g>
<!-- 2&#45;&gt;7 -->
<g id="edge10" class="edge"><title>2&#45;&gt;7</title>
<path fill="none" stroke="black" stroke-width="2" d="M216.592,-29.3717C200.106,-27.8686 177.056,-25.7671 158.48,-24.0735"/>
<polygon fill="black" stroke="black" stroke-width="2" points="158.693,-20.5785 148.417,-23.156 158.058,-27.5496 158.693,-20.5785"/>
</g>
<!-- 3 -->
<g id="node4" class="node"><title>3</title>
<ellipse fill="cadetblue" stroke="black" cx="253.576" cy="-116.098" rx="21.4286" ry="21.4286"/>
<text text-anchor="middle" x="253.576" y="-111.098" font-family="Times New Roman,serif" font-size="20.00">2</text>
</g>
<!-- 5 -->
<g id="node6" class="node"><title>5</title>
<ellipse fill="cadetblue" stroke="black" cx="175.629" cy="-185.369" rx="21.4286" ry="21.4286"/>
<text text-anchor="middle" x="175.629" y="-180.369" font-family="Times New Roman,serif" font-size="20.00">2</text>
</g>
<!-- 3&#45;&gt;5 -->
<g id="edge11" class="edge"><title>3&#45;&gt;5</title>
<path fill="none" stroke="black" stroke-width="2" d="M237.425,-130.451C226.378,-140.268 211.554,-153.442 199.194,-164.426"/>
<polygon fill="black" stroke="black" stroke-width="2" points="196.642,-162.012 191.492,-171.271 201.292,-167.244 196.642,-162.012"/>
</g>
<!-- 4&#45;&gt;1 -->
<g id="edge5" class="edge"><title>4&#45;&gt;1</title>
<path fill="none" stroke="black" stroke-width="2" d="M65.6667,-144.138C64.1795,-135.07 62.0872,-124.443 59.3225,-115.055 52.8893,-93.2112 42.9969,-69.4885 34.9031,-51.5938"/>
<polygon fill="black" stroke="black" stroke-width="2" points="37.9861,-49.9209 30.625,-42.3008 31.6275,-52.8481 37.9861,-49.9209"/>
</g>
<!-- 4&#45;&gt;5 -->
<g id="edge14" class="edge"><title>4&#45;&gt;5</title>
<path fill="none" stroke="black" stroke-width="2" d="M89.449,-169.348C105.119,-172.261 126.822,-176.296 144.528,-179.587"/>
<polygon fill="black" stroke="black" stroke-width="2" points="143.944,-183.039 154.415,-181.425 145.223,-176.156 143.944,-183.039"/>
</g>
<!-- 4&#45;&gt;6 -->
<g id="edge15" class="edge"><title>4&#45;&gt;6</title>
<path fill="none" stroke="black" stroke-width="2" d="M82.9898,-149.52C92.802,-138.687 105.947,-124.175 116.954,-112.024"/>
<polygon fill="black" stroke="black" stroke-width="2" points="119.703,-114.203 123.822,-104.441 114.515,-109.503 119.703,-114.203"/>
</g>
<!-- 5&#45;&gt;0 -->
<g id="edge2" class="edge"><title>5&#45;&gt;0</title>
<path fill="none" stroke="black" stroke-width="2" d="M156.395,-175.883C132.048,-163.874 89.8906,-143.082 61.7277,-129.191"/>
<polygon fill="black" stroke="black" stroke-width="2" points="62.9186,-125.876 52.4019,-124.592 59.8222,-132.154 62.9186,-125.876"/>
</g>
<!-- 5&#45;&gt;2 -->
<g id="edge8" class="edge"><title>5&#45;&gt;2</title>
<path fill="none" stroke="black" stroke-width="2" d="M183.651,-165.545C194.452,-138.854 213.748,-91.1702 226.195,-60.4118"/>
<polygon fill="black" stroke="black" stroke-width="2" points="229.469,-61.6508 229.976,-51.0681 222.98,-59.025 229.469,-61.6508"/>
</g>
<!-- 6&#45;&gt;0 -->
<g id="edge3" class="edge"><title>6&#45;&gt;0</title>
<path fill="none" stroke="black" stroke-width="2" d="M117.455,-93.7569C102.178,-97.606 81.1674,-102.9 63.9268,-107.244"/>
<polygon fill="black" stroke="black" stroke-width="2" points="62.6061,-103.967 53.7643,-109.804 64.3164,-110.755 62.6061,-103.967"/>
</g>
<!-- 6&#45;&gt;2 -->
<g id="edge9" class="edge"><title>6&#45;&gt;2</title>
<path fill="none" stroke="black" stroke-width="2" d="M157.002,-77.7603C172.045,-69.1319 193.377,-56.8964 210.369,-47.1504"/>
<polygon fill="black" stroke="black" stroke-width="2" points="212.361,-50.0423 219.294,-42.0308 208.879,-43.9702 212.361,-50.0423"/>
</g>
<!-- 6&#45;&gt;3 -->
<g id="edge12" class="edge"><title>6&#45;&gt;3</title>
<path fill="none" stroke="black" stroke-width="2" d="M159.13,-93.5131C176.93,-97.7694 202.753,-103.944 222.9,-108.762"/>
<polygon fill="black" stroke="black" stroke-width="2" points="222.306,-112.219 232.846,-111.14 223.934,-105.411 222.306,-112.219"/>
</g>
<!-- 7&#45;&gt;1 -->
<g id="edge7" class="edge"><title>7&#45;&gt;1</title>
<path fill="none" stroke="black" stroke-width="2" d="M105.678,-21.5706C90.4636,-21.8243 69.7901,-22.1691 52.7044,-22.4541"/>
<polygon fill="black" stroke="black" stroke-width="2" points="52.5508,-18.956 42.6106,-22.6224 52.6676,-25.9551 52.5508,-18.956"/>
</g>
<!-- 7&#45;&gt;3 -->
<g id="edge13" class="edge"><title>7&#45;&gt;3</title>
<path fill="none" stroke="black" stroke-width="2" d="M144.163,-34.0097C165.755,-50.2091 203.141,-78.258 228.116,-96.9959"/>
<polygon fill="black" stroke="black" stroke-width="2" points="226.287,-99.999 236.386,-103.201 230.488,-94.3997 226.287,-99.999"/>
</g>
<!-- 7&#45;&gt;4 -->
<g id="edge16" class="edge"><title>7&#45;&gt;4</title>
<path fill="none" stroke="black" stroke-width="2" d="M119.088,-40.968C109.113,-65.5402 91.9947,-107.707 80.4783,-136.076"/>
<polygon fill="black" stroke="black" stroke-width="2" points="77.1778,-134.902 76.6593,-145.484 83.6638,-137.535 77.1778,-134.902"/>
</g>
<!-- 7&#45;&gt;6 -->
<g id="edge17" class="edge"><title>7&#45;&gt;6</title>
<path fill="none" stroke="black" stroke-width="2" d="M130.631,-42.5091C131.403,-47.174 132.236,-52.2067 133.058,-57.1721"/>
<polygon fill="black" stroke="black" stroke-width="2" points="129.62,-57.836 134.705,-67.1304 136.526,-56.6932 129.62,-57.836"/>
</g>
</g>
</svg>

