<?xml version="1.0" encoding="UTF-8" standalone="no"?>
<!DOCTYPE svg PUBLIC "-//W3C//DTD SVG 1.1//EN"
 "http://www.w3.org/Graphics/SVG/1.1/DTD/svg11.dtd">
<!-- Generated by graphviz version 2.36.0 (20140111.2315)
 -->
<!-- Title: G Pages: 1 -->
<svg width="100%" height="100%"
 viewBox="0.00 0.00 321.59 273.40" xmlns="http://www.w3.org/2000/svg" xmlns:xlink="http://www.w3.org/1999/xlink">
<g id="graph0" class="graph" transform="scale(1 1) rotate(0) translate(4 269.404)">
<title>G</title>
<!-- 0 -->
<g id="node1" class="node"><title>0</title>
<ellipse fill="cadetblue" stroke="black" cx="181.126" cy="-25.3755" rx="21.4286" ry="21.4286"/>
<text text-anchor="middle" x="181.126" y="-20.3755" font-family="Times New Roman,serif" font-size="20.00">2</text>
</g>
<!-- 6 -->
<g id="node7" class="node"><title>6</title>
<ellipse fill="cadetblue" stroke="black" cx="189.875" cy="-149.177" rx="21.4286" ry="21.4286"/>
<text text-anchor="middle" x="189.875" y="-144.177" font-family="Times New Roman,serif" font-size="20.00">2</text>
</g>
<!-- 0&#45;&gt;6 -->
<g id="edge3" class="edge"><title>0&#45;&gt;6</title>
<path fill="none" stroke="black" stroke-width="2" d="M182.63,-46.6577C184.013,-66.2334 186.082,-95.5126 187.656,-117.775"/>
<polygon fill="black" stroke="black" stroke-width="2" points="184.165,-118.03 188.361,-127.758 191.148,-117.536 184.165,-118.03"/>
</g>
<!-- 7 -->
<g id="node8" class="node"><title>7</title>
<ellipse fill="cadetblue" stroke="black" cx="139.444" cy="-147.827" rx="21.4286" ry="21.4286"/>
<text text-anchor="middle" x="139.444" y="-142.827" font-family="Times New Roman,serif" font-size="20.00">2</text>
</g>
<!-- 0&#45;&gt;7 -->
<g id="edge4" class="edge"><title>0&#45;&gt;7</title>
<path fill="none" stroke="black" stroke-width="2" d="M174.243,-45.5958C167.545,-65.2707 157.289,-95.4013 149.644,-117.862"/>
<polygon fill="black" stroke="black" stroke-width="2" points="146.246,-116.982 146.337,-127.576 152.873,-119.237 146.246,-116.982"/>
</g>
<!-- 1 -->
<g id="node2" class="node"><title>1</title>
<ellipse fill="cadetblue" stroke="black" cx="270.232" cy="-236.965" rx="21.4286" ry="21.4286"/>
<text text-anchor="middle" x="270.232" y="-231.965" font-family="Times New Roman,serif" font-size="20.00">2</text>
</g>
<!-- 1&#45;&gt;7 -->
<g id="edge7" class="edge"><title>1&#45;&gt;7</title>
<path fill="none" stroke="black" stroke-width="2" d="M252.593,-224.944C230.264,-209.725 191.602,-183.375 165.773,-165.771"/>
<polygon fill="black" stroke="black" stroke-width="2" points="167.455,-162.682 157.221,-159.942 163.513,-168.466 167.455,-162.682"/>
</g>
<!-- 2 -->
<g id="node3" class="node"><title>2</title>
<ellipse fill="cadetblue" stroke="black" cx="75.3798" cy="-21.2132" rx="21.4286" ry="21.4286"/>
<text text-anchor="middle" x="75.3798" y="-16.2132" font-family="Times New Roman,serif" font-size="20.00">2</text>
</g>
<!-- 2&#45;&gt;6 -->
<g id="edge9" class="edge"><title>2&#45;&gt;6</title>
<path fill="none" stroke="black" stroke-width="2" d="M89.6492,-37.1611C109.533,-59.3835 145.717,-99.8241 168.737,-125.552"/>
<polygon fill="black" stroke="black" stroke-width="2" points="166.15,-127.909 175.426,-133.028 171.366,-123.242 166.15,-127.909"/>
</g>
<!-- 3 -->
<g id="node4" class="node"><title>3</title>
<ellipse fill="cadetblue" stroke="black" cx="59.3483" cy="-244.191" rx="21.4286" ry="21.4286"/>
<text text-anchor="middle" x="59.3483" y="-239.191" font-family="Times New Roman,serif" font-size="20.00">2</text>
</g>
<!-- 5 -->
<g id="node6" class="node"><title>5</title>
<ellipse fill="cadetblue" stroke="black" cx="21.2132" cy="-111.059" rx="21.4286" ry="21.4286"/>
<text text-anchor="middle" x="21.2132" y="-106.059" font-family="Times New Roman,serif" font-size="20.00">2</text>
</g>
<!-- 3&#45;&gt;5 -->
<g id="edge11" class="edge"><title>3&#45;&gt;5</title>
<path fill="none" stroke="black" stroke-width="2" d="M53.4733,-223.681C47.1931,-201.757 37.168,-166.758 29.9596,-141.593"/>
<polygon fill="black" stroke="black" stroke-width="2" points="33.2762,-140.461 27.1577,-131.812 26.5468,-142.389 33.2762,-140.461"/>
</g>
<!-- 4 -->
<g id="node5" class="node"><title>4</title>
<ellipse fill="cadetblue" stroke="black" cx="292.379" cy="-105.379" rx="21.4286" ry="21.4286"/>
<text text-anchor="middle" x="292.379" y="-100.379" font-family="Times New Roman,serif" font-size="20.00">2</text>
</g>
<!-- 4&#45;&gt;0 -->
<g id="edge1" class="edge"><title>4&#45;&gt;0</title>
<path fill="none" stroke="black" stroke-width="2" d="M274.996,-92.8788C256.626,-79.6688 227.472,-58.7035 206.527,-43.6419"/>
<polygon fill="black" stroke="black" stroke-width="2" points="208.549,-40.7851 198.387,-37.7883 204.462,-46.4683 208.549,-40.7851"/>
</g>
<!-- 4&#45;&gt;1 -->
<g id="edge5" class="edge"><title>4&#45;&gt;1</title>
<path fill="none" stroke="black" stroke-width="2" d="M288.821,-126.521C285.205,-148.007 279.564,-181.522 275.444,-206"/>
<polygon fill="black" stroke="black" stroke-width="2" points="271.99,-205.434 273.782,-215.876 278.893,-206.596 271.99,-205.434"/>
</g>
<!-- 5&#45;&gt;0 -->
<g id="edge2" class="edge"><title>5&#45;&gt;0</title>
<path fill="none" stroke="black" stroke-width="2" d="M40.1852,-100.893C68.1967,-85.8844 120.794,-57.702 153.211,-40.3324"/>
<polygon fill="black" stroke="black" stroke-width="2" points="155.017,-43.3358 162.178,-35.5278 151.711,-37.1657 155.017,-43.3358"/>
</g>
<!-- 5&#45;&gt;2 -->
<g id="edge8" class="edge"><title>5&#45;&gt;2</title>
<path fill="none" stroke="black" stroke-width="2" d="M32.1746,-92.8772C39.8329,-80.1745 50.1953,-62.9866 58.852,-48.6278"/>
<polygon fill="black" stroke="black" stroke-width="2" points="62.083,-50.0473 64.2488,-39.6761 56.0882,-46.4331 62.083,-50.0473"/>
</g>
<!-- 6&#45;&gt;1 -->
<g id="edge6" class="edge"><title>6&#45;&gt;1</title>
<path fill="none" stroke="black" stroke-width="2" d="M204.241,-164.872C216.62,-178.395 234.667,-198.111 248.761,-213.508"/>
<polygon fill="black" stroke="black" stroke-width="2" points="246.386,-216.097 255.719,-221.11 251.549,-211.371 246.386,-216.097"/>
</g>
<!-- 6&#45;&gt;3 -->
<g id="edge12" class="edge"><title>6&#45;&gt;3</title>
<path fill="none" stroke="black" stroke-width="2" d="M172.542,-161.794C150.113,-178.121 110.85,-206.702 84.9721,-225.539"/>
<polygon fill="black" stroke="black" stroke-width="2" points="82.778,-222.807 76.753,-231.522 86.8977,-228.466 82.778,-222.807"/>
</g>
<!-- 6&#45;&gt;4 -->
<g id="edge14" class="edge"><title>6&#45;&gt;4</title>
<path fill="none" stroke="black" stroke-width="2" d="M209.639,-140.732C224.812,-134.249 245.997,-125.197 263.132,-117.876"/>
<polygon fill="black" stroke="black" stroke-width="2" points="264.856,-120.946 272.676,-113.798 262.105,-114.509 264.856,-120.946"/>
</g>
<!-- 7&#45;&gt;2 -->
<g id="edge10" class="edge"><title>7&#45;&gt;2</title>
<path fill="none" stroke="black" stroke-width="2" d="M129.853,-128.871C119.191,-107.799 101.862,-73.5525 89.6168,-49.3507"/>
<polygon fill="black" stroke="black" stroke-width="2" points="92.6742,-47.6407 85.0364,-40.2981 86.4282,-50.8011 92.6742,-47.6407"/>
</g>
<!-- 7&#45;&gt;3 -->
<g id="edge13" class="edge"><title>7&#45;&gt;3</title>
<path fill="none" stroke="black" stroke-width="2" d="M125.857,-164.173C113.199,-179.402 94.1589,-202.31 79.6899,-219.718"/>
<polygon fill="black" stroke="black" stroke-width="2" points="76.7025,-217.836 73.0021,-227.764 82.0858,-222.311 76.7025,-217.836"/>
</g>
<!-- 7&#45;&gt;4 -->
<g id="edge15" class="edge"><title>7&#45;&gt;4</title>
<path fill="none" stroke="black" stroke-width="2" d="M160.069,-142.102C186.18,-134.855 231.389,-122.307 261.591,-113.925"/>
<polygon fill="black" stroke="black" stroke-width="2" points="262.892,-117.196 271.592,-111.149 261.02,-110.451 262.892,-117.196"/>
</g>
<!-- 7&#45;&gt;5 -->
<g id="edge16" class="edge"><title>7&#45;&gt;5</title>
<path fill="none" stroke="black" stroke-width="2" d="M119.119,-141.506C100.509,-135.718 72.7155,-127.075 51.4909,-120.475"/>
<polygon fill="black" stroke="black" stroke-width="2" points="52.2565,-117.047 41.6682,-117.42 50.1778,-123.732 52.2565,-117.047"/>
</g>
</g>
</svg>

