<?xml version="1.0" encoding="UTF-8" standalone="no"?>
<!DOCTYPE svg PUBLIC "-//W3C//DTD SVG 1.1//EN"
 "http://www.w3.org/Graphics/SVG/1.1/DTD/svg11.dtd">
<!-- Generated by graphviz version 2.36.0 (20140111.2315)
 -->
<!-- Title: G Pages: 1 -->
<svg width="100%" height="100%"
 viewBox="0.00 0.00 231.30 196.53" xmlns="http://www.w3.org/2000/svg" xmlns:xlink="http://www.w3.org/1999/xlink">
<g id="graph0" class="graph" transform="scale(1 1) rotate(0) translate(4 192.533)">
<title>G</title>
<!-- 0 -->
<g id="node1" class="node"><title>0</title>
<ellipse fill="cadetblue" stroke="black" cx="54.1865" cy="-21.2132" rx="21.4286" ry="21.4286"/>
<text text-anchor="middle" x="54.1865" y="-16.2132" font-family="Times New Roman,serif" font-size="20.00">2</text>
</g>
<!-- 7 -->
<g id="node8" class="node"><title>7</title>
<ellipse fill="brown" stroke="black" cx="116.503" cy="-97.5655" rx="21.4286" ry="21.4286"/>
<text text-anchor="middle" x="116.503" y="-92.5655" font-family="Times New Roman,serif" font-size="20.00">3</text>
</g>
<!-- 0&#45;&gt;7 -->
<g id="edge3" class="edge"><title>0&#45;&gt;7</title>
<path fill="none" stroke="black" stroke-width="2" d="M67.7082,-37.7805C76.1192,-48.086 87.0868,-61.524 96.493,-73.0489"/>
<polygon fill="black" stroke="black" stroke-width="2" points="93.9728,-75.4963 103.007,-81.0305 99.3959,-71.0702 93.9728,-75.4963"/>
</g>
<!-- 1 -->
<g id="node2" class="node"><title>1</title>
<ellipse fill="cadetblue" stroke="black" cx="21.2132" cy="-78.4275" rx="21.4286" ry="21.4286"/>
<text text-anchor="middle" x="21.2132" y="-73.4275" font-family="Times New Roman,serif" font-size="20.00">2</text>
</g>
<!-- 1&#45;&gt;7 -->
<g id="edge6" class="edge"><title>1&#45;&gt;7</title>
<path fill="none" stroke="black" stroke-width="2" d="M42.361,-82.6748C55.0679,-85.2269 71.4617,-88.5194 85.6014,-91.3593"/>
<polygon fill="black" stroke="black" stroke-width="2" points="84.9205,-94.7923 95.414,-93.33 86.299,-87.9294 84.9205,-94.7923"/>
</g>
<!-- 2 -->
<g id="node3" class="node"><title>2</title>
<ellipse fill="cadetblue" stroke="black" cx="198.114" cy="-59.953" rx="21.4286" ry="21.4286"/>
<text text-anchor="middle" x="198.114" y="-54.953" font-family="Times New Roman,serif" font-size="20.00">2</text>
</g>
<!-- 2&#45;&gt;7 -->
<g id="edge9" class="edge"><title>2&#45;&gt;7</title>
<path fill="none" stroke="black" stroke-width="2" d="M178.773,-68.8666C168.784,-73.4703 156.396,-79.1797 145.306,-84.2908"/>
<polygon fill="black" stroke="black" stroke-width="2" points="143.604,-81.2211 135.987,-88.5855 146.534,-87.5785 143.604,-81.2211"/>
</g>
<!-- 3 -->
<g id="node4" class="node"><title>3</title>
<ellipse fill="cadetblue" stroke="black" cx="202.083" cy="-116.888" rx="21.4286" ry="21.4286"/>
<text text-anchor="middle" x="202.083" y="-111.888" font-family="Times New Roman,serif" font-size="20.00">2</text>
</g>
<!-- 6 -->
<g id="node7" class="node"><title>6</title>
<ellipse fill="cadetblue" stroke="black" cx="120.016" cy="-42.0075" rx="21.4286" ry="21.4286"/>
<text text-anchor="middle" x="120.016" y="-37.0075" font-family="Times New Roman,serif" font-size="20.00">2</text>
</g>
<!-- 3&#45;&gt;6 -->
<g id="edge11" class="edge"><title>3&#45;&gt;6</title>
<path fill="none" stroke="black" stroke-width="2" d="M186.259,-102.45C174.111,-91.3661 157.15,-75.8903 143.432,-63.3733"/>
<polygon fill="black" stroke="black" stroke-width="2" points="145.537,-60.5556 135.79,-56.4009 140.818,-65.7266 145.537,-60.5556"/>
</g>
<!-- 4 -->
<g id="node5" class="node"><title>4</title>
<ellipse fill="cadetblue" stroke="black" cx="61.2588" cy="-129.407" rx="21.4286" ry="21.4286"/>
<text text-anchor="middle" x="61.2588" y="-124.407" font-family="Times New Roman,serif" font-size="20.00">2</text>
</g>
<!-- 4&#45;&gt;0 -->
<g id="edge1" class="edge"><title>4&#45;&gt;0</title>
<path fill="none" stroke="black" stroke-width="2" d="M59.8615,-108.031C58.8299,-92.2492 57.4093,-70.5161 56.2475,-52.7428"/>
<polygon fill="black" stroke="black" stroke-width="2" points="59.7257,-52.2947 55.5808,-42.5443 52.7407,-52.7514 59.7257,-52.2947"/>
</g>
<!-- 4&#45;&gt;1 -->
<g id="edge4" class="edge"><title>4&#45;&gt;1</title>
<path fill="none" stroke="black" stroke-width="2" d="M48.1464,-112.714C45.7513,-109.665 43.2058,-106.425 40.6724,-103.2"/>
<polygon fill="black" stroke="black" stroke-width="2" points="43.4219,-101.034 34.4922,-95.332 37.9172,-105.358 43.4219,-101.034"/>
</g>
<!-- 5 -->
<g id="node6" class="node"><title>5</title>
<ellipse fill="cadetblue" stroke="black" cx="151.979" cy="-167.319" rx="21.4286" ry="21.4286"/>
<text text-anchor="middle" x="151.979" y="-162.319" font-family="Times New Roman,serif" font-size="20.00">2</text>
</g>
<!-- 4&#45;&gt;5 -->
<g id="edge13" class="edge"><title>4&#45;&gt;5</title>
<path fill="none" stroke="black" stroke-width="2" d="M80.9438,-137.633C93.1886,-142.75 109.155,-149.423 122.849,-155.146"/>
<polygon fill="black" stroke="black" stroke-width="2" points="121.756,-158.482 132.333,-159.109 124.456,-152.024 121.756,-158.482"/>
</g>
<!-- 5&#45;&gt;2 -->
<g id="edge7" class="edge"><title>5&#45;&gt;2</title>
<path fill="none" stroke="black" stroke-width="2" d="M160.441,-147.627C167.53,-131.13 177.744,-107.358 185.749,-88.7285"/>
<polygon fill="black" stroke="black" stroke-width="2" points="188.973,-90.0903 189.706,-79.5208 182.542,-87.3267 188.973,-90.0903"/>
</g>
<!-- 5&#45;&gt;3 -->
<g id="edge10" class="edge"><title>5&#45;&gt;3</title>
<path fill="none" stroke="black" stroke-width="2" d="M167.012,-152.188C171.074,-148.099 175.558,-143.587 179.922,-139.193"/>
<polygon fill="black" stroke="black" stroke-width="2" points="182.496,-141.569 187.061,-132.008 177.53,-136.636 182.496,-141.569"/>
</g>
<!-- 6&#45;&gt;0 -->
<g id="edge2" class="edge"><title>6&#45;&gt;0</title>
<path fill="none" stroke="black" stroke-width="2" d="M99.5477,-35.542C94.6718,-34.0018 89.3685,-32.3266 84.164,-30.6826"/>
<polygon fill="black" stroke="black" stroke-width="2" points="85.0054,-27.278 74.4156,-27.6032 82.8969,-33.9529 85.0054,-27.278"/>
</g>
<!-- 6&#45;&gt;1 -->
<g id="edge5" class="edge"><title>6&#45;&gt;1</title>
<path fill="none" stroke="black" stroke-width="2" d="M100.021,-49.3776C85.8259,-54.6103 66.5369,-61.7205 50.5954,-67.5968"/>
<polygon fill="black" stroke="black" stroke-width="2" points="49.3499,-64.3256 41.1776,-71.0683 51.771,-70.8936 49.3499,-64.3256"/>
</g>
<!-- 6&#45;&gt;2 -->
<g id="edge8" class="edge"><title>6&#45;&gt;2</title>
<path fill="none" stroke="black" stroke-width="2" d="M140.944,-46.8166C149.063,-48.6821 158.525,-50.8562 167.387,-52.8925"/>
<polygon fill="black" stroke="black" stroke-width="2" points="166.868,-56.3644 177.398,-55.1929 168.436,-49.5422 166.868,-56.3644"/>
</g>
<!-- 6&#45;&gt;4 -->
<g id="edge14" class="edge"><title>6&#45;&gt;4</title>
<path fill="none" stroke="black" stroke-width="2" d="M108.125,-59.694C99.6833,-72.2511 88.2123,-89.3139 78.7321,-103.415"/>
<polygon fill="black" stroke="black" stroke-width="2" points="75.806,-101.495 73.1314,-111.746 81.6153,-105.4 75.806,-101.495"/>
</g>
<!-- 7&#45;&gt;3 -->
<g id="edge12" class="edge"><title>7&#45;&gt;3</title>
<path fill="none" stroke="black" stroke-width="2" d="M137.219,-102.243C147.445,-104.552 159.987,-107.384 171.308,-109.94"/>
<polygon fill="black" stroke="black" stroke-width="2" points="170.735,-113.398 181.26,-112.187 172.277,-106.57 170.735,-113.398"/>
</g>
<!-- 7&#45;&gt;4 -->
<g id="edge15" class="edge"><title>7&#45;&gt;4</title>
<path fill="none" stroke="black" stroke-width="2" d="M98.1073,-108.168C95.0646,-109.922 91.8532,-111.773 88.6461,-113.621"/>
<polygon fill="black" stroke="black" stroke-width="2" points="86.6784,-110.716 79.7622,-118.742 90.174,-116.78 86.6784,-110.716"/>
</g>
<!-- 7&#45;&gt;5 -->
<g id="edge16" class="edge"><title>7&#45;&gt;5</title>
<path fill="none" stroke="black" stroke-width="2" d="M126.197,-116.626C129.756,-123.623 133.862,-131.698 137.738,-139.317"/>
<polygon fill="black" stroke="black" stroke-width="2" points="134.644,-140.955 142.297,-148.282 140.883,-137.782 134.644,-140.955"/>
</g>
<!-- 7&#45;&gt;6 -->
<g id="edge17" class="edge"><title>7&#45;&gt;6</title>
<path fill="none" stroke="black" stroke-width="2" d="M117.851,-76.2442C117.91,-75.3071 117.97,-74.3595 118.03,-73.4062"/>
<polygon fill="black" stroke="black" stroke-width="2" points="121.539,-73.381 118.677,-63.18 114.553,-72.9392 121.539,-73.381"/>
</g>
</g>
</svg>

