<?xml version="1.0" encoding="UTF-8" standalone="no"?>
<!DOCTYPE svg PUBLIC "-//W3C//DTD SVG 1.1//EN"
 "http://www.w3.org/Graphics/SVG/1.1/DTD/svg11.dtd">
<!-- Generated by graphviz version 2.36.0 (20140111.2315)
 -->
<!-- Title: G Pages: 1 -->
<svg width="100%" height="100%"
 viewBox="0.00 0.00 269.19 285.78" xmlns="http://www.w3.org/2000/svg" xmlns:xlink="http://www.w3.org/1999/xlink">
<g id="graph0" class="graph" transform="scale(1 1) rotate(0) translate(4 281.781)">
<title>G</title>
<!-- 0 -->
<g id="node1" class="node"><title>0</title>
<ellipse fill="cadetblue" stroke="black" cx="73.984" cy="-21.2132" rx="21.4286" ry="21.4286"/>
<text text-anchor="middle" x="73.984" y="-16.2132" font-family="Times New Roman,serif" font-size="20.00">2</text>
</g>
<!-- 6 -->
<g id="node7" class="node"><title>6</title>
<ellipse fill="brown" stroke="black" cx="224.964" cy="-102.192" rx="21.4286" ry="21.4286"/>
<text text-anchor="middle" x="224.964" y="-97.1921" font-family="Times New Roman,serif" font-size="20.00">3</text>
</g>
<!-- 0&#45;&gt;6 -->
<g id="edge3" class="edge"><title>0&#45;&gt;6</title>
<path fill="none" stroke="black" stroke-width="2" d="M90.9351,-34.1099C107.082,-46.0318 132.355,-63.7648 155.932,-76.4261 163.815,-80.6594 166.184,-80.9097 174.531,-84.1313 181.177,-86.6961 188.361,-89.3428 195.165,-91.793"/>
<polygon fill="black" stroke="black" stroke-width="2" points="194.162,-95.1511 204.757,-95.2096 196.511,-88.5569 194.162,-95.1511"/>
</g>
<!-- 7 -->
<g id="node8" class="node"><title>7</title>
<ellipse fill="dodgerblue" stroke="black" cx="174.533" cy="-57.8269" rx="21.4286" ry="21.4286"/>
<text text-anchor="middle" x="174.533" y="-52.8269" font-family="Times New Roman,serif" font-size="20.00">4</text>
</g>
<!-- 0&#45;&gt;7 -->
<g id="edge4" class="edge"><title>0&#45;&gt;7</title>
<path fill="none" stroke="black" stroke-width="2" d="M94.3315,-28.6225C108.873,-33.9177 128.666,-41.1252 144.951,-47.0551"/>
<polygon fill="black" stroke="black" stroke-width="2" points="143.965,-50.4207 154.559,-50.5536 146.36,-43.8432 143.965,-50.4207"/>
</g>
<!-- 1 -->
<g id="node2" class="node"><title>1</title>
<ellipse fill="cadetblue" stroke="black" cx="167.317" cy="-256.568" rx="21.4286" ry="21.4286"/>
<text text-anchor="middle" x="167.317" y="-251.568" font-family="Times New Roman,serif" font-size="20.00">2</text>
</g>
<!-- 1&#45;&gt;6 -->
<g id="edge7" class="edge"><title>1&#45;&gt;6</title>
<path fill="none" stroke="black" stroke-width="2" d="M174.853,-236.386C184.779,-209.805 202.315,-162.845 213.787,-132.123"/>
<polygon fill="black" stroke="black" stroke-width="2" points="217.206,-132.972 217.426,-122.379 210.649,-130.523 217.206,-132.972"/>
</g>
<!-- 1&#45;&gt;7 -->
<g id="edge8" class="edge"><title>1&#45;&gt;7</title>
<path fill="none" stroke="black" stroke-width="2" d="M168.089,-235.299C169.361,-200.277 171.902,-130.289 173.385,-89.4481"/>
<polygon fill="black" stroke="black" stroke-width="2" points="176.89,-89.3636 173.755,-79.2432 169.894,-89.1096 176.89,-89.3636"/>
</g>
<!-- 2 -->
<g id="node3" class="node"><title>2</title>
<ellipse fill="cadetblue" stroke="black" cx="21.2132" cy="-88.5435" rx="21.4286" ry="21.4286"/>
<text text-anchor="middle" x="21.2132" y="-83.5435" font-family="Times New Roman,serif" font-size="20.00">2</text>
</g>
<!-- 5 -->
<g id="node6" class="node"><title>5</title>
<ellipse fill="cadetblue" stroke="black" cx="38.0728" cy="-220.436" rx="21.4286" ry="21.4286"/>
<text text-anchor="middle" x="38.0728" y="-215.436" font-family="Times New Roman,serif" font-size="20.00">2</text>
</g>
<!-- 2&#45;&gt;5 -->
<g id="edge10" class="edge"><title>2&#45;&gt;5</title>
<path fill="none" stroke="black" stroke-width="2" d="M23.922,-109.734C26.6626,-131.174 30.9308,-164.564 34.0633,-189.07"/>
<polygon fill="black" stroke="black" stroke-width="2" points="30.6309,-189.823 35.3707,-199.298 37.5744,-188.935 30.6309,-189.823"/>
</g>
<!-- 2&#45;&gt;7 -->
<g id="edge12" class="edge"><title>2&#45;&gt;7</title>
<path fill="none" stroke="black" stroke-width="2" d="M42.2101,-84.3369C68.3273,-79.1045 113.146,-70.1254 143.298,-64.0845"/>
<polygon fill="black" stroke="black" stroke-width="2" points="144.18,-67.4776 153.297,-62.0813 142.805,-60.614 144.18,-67.4776"/>
</g>
<!-- 3 -->
<g id="node4" class="node"><title>3</title>
<ellipse fill="cadetblue" stroke="black" cx="239.977" cy="-212.896" rx="21.4286" ry="21.4286"/>
<text text-anchor="middle" x="239.977" y="-207.896" font-family="Times New Roman,serif" font-size="20.00">2</text>
</g>
<!-- 3&#45;&gt;5 -->
<g id="edge14" class="edge"><title>3&#45;&gt;5</title>
<path fill="none" stroke="black" stroke-width="2" d="M218.751,-213.689C183.079,-215.021 110.943,-217.715 69.4204,-219.266"/>
<polygon fill="black" stroke="black" stroke-width="2" points="69.1794,-215.772 59.3171,-219.643 69.4407,-222.767 69.1794,-215.772"/>
</g>
<!-- 3&#45;&gt;7 -->
<g id="edge16" class="edge"><title>3&#45;&gt;7</title>
<path fill="none" stroke="black" stroke-width="2" d="M231.688,-193.256C220.391,-166.488 200.067,-118.33 186.947,-87.2419"/>
<polygon fill="black" stroke="black" stroke-width="2" points="190.074,-85.6491 182.961,-77.7969 183.624,-88.3709 190.074,-85.6491"/>
</g>
<!-- 4 -->
<g id="node5" class="node"><title>4</title>
<ellipse fill="cadetblue" stroke="black" cx="118.976" cy="-152.589" rx="21.4286" ry="21.4286"/>
<text text-anchor="middle" x="118.976" y="-147.589" font-family="Times New Roman,serif" font-size="20.00">2</text>
</g>
<!-- 4&#45;&gt;0 -->
<g id="edge1" class="edge"><title>4&#45;&gt;0</title>
<path fill="none" stroke="black" stroke-width="2" d="M112.044,-132.349C104.635,-110.714 92.8075,-76.1774 84.3031,-51.3446"/>
<polygon fill="black" stroke="black" stroke-width="2" points="87.5486,-50.0187 80.9974,-41.6921 80.9262,-52.2867 87.5486,-50.0187"/>
</g>
<!-- 4&#45;&gt;1 -->
<g id="edge5" class="edge"><title>4&#45;&gt;1</title>
<path fill="none" stroke="black" stroke-width="2" d="M128.068,-172.146C135.361,-187.832 145.701,-210.074 153.938,-227.791"/>
<polygon fill="black" stroke="black" stroke-width="2" points="150.875,-229.506 158.265,-237.098 157.223,-226.555 150.875,-229.506"/>
</g>
<!-- 4&#45;&gt;2 -->
<g id="edge9" class="edge"><title>4&#45;&gt;2</title>
<path fill="none" stroke="black" stroke-width="2" d="M101.045,-140.842C86.0235,-131.001 64.3782,-116.821 47.4148,-105.708"/>
<polygon fill="black" stroke="black" stroke-width="2" points="49.3136,-102.768 39.0307,-100.216 45.4776,-108.624 49.3136,-102.768"/>
</g>
<!-- 4&#45;&gt;3 -->
<g id="edge13" class="edge"><title>4&#45;&gt;3</title>
<path fill="none" stroke="black" stroke-width="2" d="M138.149,-162.144C157.974,-172.025 189.14,-187.558 211.774,-198.839"/>
<polygon fill="black" stroke="black" stroke-width="2" points="210.382,-202.056 220.894,-203.385 213.505,-195.791 210.382,-202.056"/>
</g>
<!-- 5&#45;&gt;0 -->
<g id="edge2" class="edge"><title>5&#45;&gt;0</title>
<path fill="none" stroke="black" stroke-width="2" d="M41.8481,-199.493C48.1928,-164.294 61.0231,-93.1159 68.4084,-52.1446"/>
<polygon fill="black" stroke="black" stroke-width="2" points="71.8759,-52.6377 70.2055,-42.1754 64.9869,-51.3958 71.8759,-52.6377"/>
</g>
<!-- 5&#45;&gt;1 -->
<g id="edge6" class="edge"><title>5&#45;&gt;1</title>
<path fill="none" stroke="black" stroke-width="2" d="M58.5519,-226.162C79.6029,-232.047 112.625,-241.278 136.765,-248.027"/>
<polygon fill="black" stroke="black" stroke-width="2" points="135.933,-251.428 146.506,-250.75 137.817,-244.687 135.933,-251.428"/>
</g>
<!-- 6&#45;&gt;2 -->
<g id="edge11" class="edge"><title>6&#45;&gt;2</title>
<path fill="none" stroke="black" stroke-width="2" d="M203.544,-100.757C167.546,-98.3459 94.7501,-93.4695 52.8475,-90.6626"/>
<polygon fill="black" stroke="black" stroke-width="2" points="52.8634,-87.1559 42.6518,-89.9796 52.3954,-94.1403 52.8634,-87.1559"/>
</g>
<!-- 6&#45;&gt;3 -->
<g id="edge15" class="edge"><title>6&#45;&gt;3</title>
<path fill="none" stroke="black" stroke-width="2" d="M227.823,-123.275C230.053,-139.713 233.183,-162.799 235.709,-181.423"/>
<polygon fill="black" stroke="black" stroke-width="2" points="232.265,-182.075 237.077,-191.514 239.202,-181.134 232.265,-182.075"/>
</g>
<!-- 6&#45;&gt;4 -->
<g id="edge17" class="edge"><title>6&#45;&gt;4</title>
<path fill="none" stroke="black" stroke-width="2" d="M205.524,-111.436C189.239,-119.179 165.773,-130.337 147.382,-139.082"/>
<polygon fill="black" stroke="black" stroke-width="2" points="145.821,-135.949 138.293,-143.404 148.827,-142.27 145.821,-135.949"/>
</g>
<!-- 7&#45;&gt;4 -->
<g id="edge18" class="edge"><title>7&#45;&gt;4</title>
<path fill="none" stroke="black" stroke-width="2" d="M163.556,-76.5488C155.362,-90.5264 144.042,-109.834 134.86,-125.496"/>
<polygon fill="black" stroke="black" stroke-width="2" points="131.779,-123.831 129.74,-134.228 137.817,-127.372 131.779,-123.831"/>
</g>
<!-- 7&#45;&gt;6 -->
<g id="edge19" class="edge"><title>7&#45;&gt;6</title>
<path fill="none" stroke="black" stroke-width="2" d="M190.49,-71.8644C193.893,-74.8583 197.557,-78.0822 201.182,-81.2711"/>
<polygon fill="black" stroke="black" stroke-width="2" points="199.118,-84.1165 208.938,-88.0938 203.742,-78.8608 199.118,-84.1165"/>
</g>
</g>
</svg>

