<?xml version="1.0" encoding="UTF-8" standalone="no"?>
<!DOCTYPE svg PUBLIC "-//W3C//DTD SVG 1.1//EN"
 "http://www.w3.org/Graphics/SVG/1.1/DTD/svg11.dtd">
<!-- Generated by graphviz version 2.36.0 (20140111.2315)
 -->
<!-- Title: G Pages: 1 -->
<svg width="100%" height="100%"
 viewBox="0.00 0.00 267.16 239.13" xmlns="http://www.w3.org/2000/svg" xmlns:xlink="http://www.w3.org/1999/xlink">
<g id="graph0" class="graph" transform="scale(1 1) rotate(0) translate(4 235.126)">
<title>G</title>
<!-- 0 -->
<g id="node1" class="node"><title>0</title>
<ellipse fill="cadetblue" stroke="black" cx="154.746" cy="-47.582" rx="21.4286" ry="21.4286"/>
<text text-anchor="middle" x="154.746" y="-42.582" font-family="Times New Roman,serif" font-size="20.00">2</text>
</g>
<!-- 6 -->
<g id="node7" class="node"><title>6</title>
<ellipse fill="cadetblue" stroke="black" cx="82.09" cy="-143.314" rx="21.4286" ry="21.4286"/>
<text text-anchor="middle" x="82.09" y="-138.314" font-family="Times New Roman,serif" font-size="20.00">2</text>
</g>
<!-- 0&#45;&gt;6 -->
<g id="edge3" class="edge"><title>0&#45;&gt;6</title>
<path fill="none" stroke="black" stroke-width="2" d="M141.757,-64.697C130.495,-79.5356 114.044,-101.212 101.267,-118.047"/>
<polygon fill="black" stroke="black" stroke-width="2" points="98.2246,-116.266 94.967,-126.348 103.801,-120.498 98.2246,-116.266"/>
</g>
<!-- 7 -->
<g id="node8" class="node"><title>7</title>
<ellipse fill="brown" stroke="black" cx="132.521" cy="-124.604" rx="21.4286" ry="21.4286"/>
<text text-anchor="middle" x="132.521" y="-119.604" font-family="Times New Roman,serif" font-size="20.00">3</text>
</g>
<!-- 0&#45;&gt;7 -->
<g id="edge4" class="edge"><title>0&#45;&gt;7</title>
<path fill="none" stroke="black" stroke-width="2" d="M148.79,-68.2225C146.48,-76.2295 143.787,-85.5607 141.266,-94.3005"/>
<polygon fill="black" stroke="black" stroke-width="2" points="137.826,-93.5954 138.417,-104.174 144.552,-95.5361 137.826,-93.5954"/>
</g>
<!-- 1 -->
<g id="node2" class="node"><title>1</title>
<ellipse fill="cadetblue" stroke="black" cx="184.472" cy="-209.913" rx="21.4286" ry="21.4286"/>
<text text-anchor="middle" x="184.472" y="-204.913" font-family="Times New Roman,serif" font-size="20.00">2</text>
</g>
<!-- 4 -->
<g id="node5" class="node"><title>4</title>
<ellipse fill="cadetblue" stroke="black" cx="237.947" cy="-118.099" rx="21.4286" ry="21.4286"/>
<text text-anchor="middle" x="237.947" y="-113.099" font-family="Times New Roman,serif" font-size="20.00">2</text>
</g>
<!-- 1&#45;&gt;4 -->
<g id="edge5" class="edge"><title>1&#45;&gt;4</title>
<path fill="none" stroke="black" stroke-width="2" d="M195.293,-191.333C202.976,-178.142 213.416,-160.217 222.044,-145.403"/>
<polygon fill="black" stroke="black" stroke-width="2" points="225.133,-147.054 227.141,-136.651 219.084,-143.531 225.133,-147.054"/>
</g>
<!-- 2 -->
<g id="node3" class="node"><title>2</title>
<ellipse fill="cadetblue" stroke="black" cx="66.3097" cy="-21.2132" rx="21.4286" ry="21.4286"/>
<text text-anchor="middle" x="66.3097" y="-16.2132" font-family="Times New Roman,serif" font-size="20.00">2</text>
</g>
<!-- 2&#45;&gt;7 -->
<g id="edge10" class="edge"><title>2&#45;&gt;7</title>
<path fill="none" stroke="black" stroke-width="2" d="M77.8429,-39.2225C88.223,-55.4312 103.615,-79.4656 115.425,-97.9085"/>
<polygon fill="black" stroke="black" stroke-width="2" points="112.558,-99.9207 120.898,-106.454 118.453,-96.1456 112.558,-99.9207"/>
</g>
<!-- 3 -->
<g id="node4" class="node"><title>3</title>
<ellipse fill="cadetblue" stroke="black" cx="21.2132" cy="-196.34" rx="21.4286" ry="21.4286"/>
<text text-anchor="middle" x="21.2132" y="-191.34" font-family="Times New Roman,serif" font-size="20.00">2</text>
</g>
<!-- 3&#45;&gt;7 -->
<g id="edge13" class="edge"><title>3&#45;&gt;7</title>
<path fill="none" stroke="black" stroke-width="2" d="M41.812,-190.311C58.6955,-184.72 82.6566,-175.25 100.668,-161.937 105.293,-158.518 109.693,-154.307 113.666,-149.959"/>
<polygon fill="black" stroke="black" stroke-width="2" points="116.511,-152.015 120.312,-142.126 111.173,-147.487 116.511,-152.015"/>
</g>
<!-- 4&#45;&gt;0 -->
<g id="edge1" class="edge"><title>4&#45;&gt;0</title>
<path fill="none" stroke="black" stroke-width="2" d="M221.509,-104.167C209.316,-93.8328 192.503,-79.583 178.8,-67.969"/>
<polygon fill="black" stroke="black" stroke-width="2" points="181.041,-65.2806 171.15,-61.4849 176.515,-70.6206 181.041,-65.2806"/>
</g>
<!-- 5 -->
<g id="node6" class="node"><title>5</title>
<ellipse fill="cadetblue" stroke="black" cx="28.9034" cy="-88.5256" rx="21.4286" ry="21.4286"/>
<text text-anchor="middle" x="28.9034" y="-83.5256" font-family="Times New Roman,serif" font-size="20.00">2</text>
</g>
<!-- 5&#45;&gt;0 -->
<g id="edge2" class="edge"><title>5&#45;&gt;0</title>
<path fill="none" stroke="black" stroke-width="2" d="M49.1222,-81.9473C69.4576,-75.3311 101.06,-65.049 124.403,-57.4544"/>
<polygon fill="black" stroke="black" stroke-width="2" points="125.733,-60.7022 134.159,-54.28 123.567,-54.0457 125.733,-60.7022"/>
</g>
<!-- 5&#45;&gt;2 -->
<g id="edge8" class="edge"><title>5&#45;&gt;2</title>
<path fill="none" stroke="black" stroke-width="2" d="M39.3231,-69.7753C42.89,-63.3567 46.9607,-56.0317 50.8399,-49.051"/>
<polygon fill="black" stroke="black" stroke-width="2" points="54.1477,-50.304 55.9458,-39.8629 48.029,-46.9038 54.1477,-50.304"/>
</g>
<!-- 5&#45;&gt;3 -->
<g id="edge11" class="edge"><title>5&#45;&gt;3</title>
<path fill="none" stroke="black" stroke-width="2" d="M27.3841,-109.826C26.2676,-125.479 24.7321,-147.007 23.4721,-164.671"/>
<polygon fill="black" stroke="black" stroke-width="2" points="19.9498,-164.86 22.7294,-175.084 26.9321,-165.358 19.9498,-164.86"/>
</g>
<!-- 6&#45;&gt;1 -->
<g id="edge6" class="edge"><title>6&#45;&gt;1</title>
<path fill="none" stroke="black" stroke-width="2" d="M99.9235,-154.915C115.974,-165.356 139.774,-180.837 158.037,-192.717"/>
<polygon fill="black" stroke="black" stroke-width="2" points="156.208,-195.703 166.499,-198.222 160.025,-189.835 156.208,-195.703"/>
</g>
<!-- 6&#45;&gt;2 -->
<g id="edge9" class="edge"><title>6&#45;&gt;2</title>
<path fill="none" stroke="black" stroke-width="2" d="M79.3413,-122.046C76.8674,-102.904 73.1991,-74.5204 70.3842,-52.7399"/>
<polygon fill="black" stroke="black" stroke-width="2" points="73.8328,-52.1164 69.0799,-42.6476 66.8906,-53.0137 73.8328,-52.1164"/>
</g>
<!-- 6&#45;&gt;3 -->
<g id="edge12" class="edge"><title>6&#45;&gt;3</title>
<path fill="none" stroke="black" stroke-width="2" d="M65.7761,-157.524C59.4982,-162.993 52.1903,-169.358 45.3305,-175.333"/>
<polygon fill="black" stroke="black" stroke-width="2" points="42.8138,-172.884 37.5721,-182.091 47.4115,-178.162 42.8138,-172.884"/>
</g>
<!-- 6&#45;&gt;5 -->
<g id="edge15" class="edge"><title>6&#45;&gt;5</title>
<path fill="none" stroke="black" stroke-width="2" d="M67.2745,-128.053C62.2874,-122.915 56.6078,-117.065 51.1753,-111.468"/>
<polygon fill="black" stroke="black" stroke-width="2" points="53.4857,-108.824 44.0089,-104.086 48.463,-113.699 53.4857,-108.824"/>
</g>
<!-- 7&#45;&gt;1 -->
<g id="edge7" class="edge"><title>7&#45;&gt;1</title>
<path fill="none" stroke="black" stroke-width="2" d="M143.794,-143.115C150.922,-154.821 160.254,-170.144 168.181,-183.161"/>
<polygon fill="black" stroke="black" stroke-width="2" points="165.209,-185.011 173.4,-191.731 171.188,-181.37 165.209,-185.011"/>
</g>
<!-- 7&#45;&gt;4 -->
<g id="edge14" class="edge"><title>7&#45;&gt;4</title>
<path fill="none" stroke="black" stroke-width="2" d="M153.856,-123.288C169.003,-122.353 189.585,-121.083 206.595,-120.034"/>
<polygon fill="black" stroke="black" stroke-width="2" points="206.879,-123.523 216.644,-119.414 206.447,-116.536 206.879,-123.523"/>
</g>
<!-- 7&#45;&gt;5 -->
<g id="edge16" class="edge"><title>7&#45;&gt;5</title>
<path fill="none" stroke="black" stroke-width="2" d="M112.05,-117.476C96.7659,-112.155 75.6536,-104.804 58.5282,-98.8406"/>
<polygon fill="black" stroke="black" stroke-width="2" points="59.5747,-95.499 48.9799,-95.516 57.2729,-102.11 59.5747,-95.499"/>
</g>
<!-- 7&#45;&gt;6 -->
<g id="edge17" class="edge"><title>7&#45;&gt;6</title>
<path fill="none" stroke="black" stroke-width="2" d="M112.59,-131.999C112.27,-132.118 111.948,-132.237 111.626,-132.356"/>
<polygon fill="black" stroke="black" stroke-width="2" points="110.366,-129.091 102.208,-135.851 112.801,-135.654 110.366,-129.091"/>
</g>
</g>
</svg>

