<?xml version="1.0" encoding="UTF-8" standalone="no"?>
<!DOCTYPE svg PUBLIC "-//W3C//DTD SVG 1.1//EN"
 "http://www.w3.org/Graphics/SVG/1.1/DTD/svg11.dtd">
<!-- Generated by graphviz version 2.36.0 (20140111.2315)
 -->
<!-- Title: G Pages: 1 -->
<svg width="100%" height="100%"
 viewBox="0.00 0.00 255.11 250.46" xmlns="http://www.w3.org/2000/svg" xmlns:xlink="http://www.w3.org/1999/xlink">
<g id="graph0" class="graph" transform="scale(1 1) rotate(0) translate(4 246.462)">
<title>G</title>
<!-- 0 -->
<g id="node1" class="node"><title>0</title>
<ellipse fill="cadetblue" stroke="black" cx="128.095" cy="-72.4532" rx="21.4286" ry="21.4286"/>
<text text-anchor="middle" x="128.095" y="-67.4532" font-family="Times New Roman,serif" font-size="20.00">2</text>
</g>
<!-- 5 -->
<g id="node6" class="node"><title>5</title>
<ellipse fill="brown" stroke="black" cx="21.2132" cy="-146.111" rx="21.4286" ry="21.4286"/>
<text text-anchor="middle" x="21.2132" y="-141.111" font-family="Times New Roman,serif" font-size="20.00">3</text>
</g>
<!-- 0&#45;&gt;5 -->
<g id="edge2" class="edge"><title>0&#45;&gt;5</title>
<path fill="none" stroke="black" stroke-width="2" d="M110.445,-84.6164C93.272,-96.4515 66.9726,-114.576 47.3682,-128.086"/>
<polygon fill="black" stroke="black" stroke-width="2" points="45.1367,-125.374 38.8887,-133.93 49.1089,-131.138 45.1367,-125.374"/>
</g>
<!-- 6 -->
<g id="node7" class="node"><title>6</title>
<ellipse fill="brown" stroke="black" cx="225.895" cy="-96.0826" rx="21.4286" ry="21.4286"/>
<text text-anchor="middle" x="225.895" y="-91.0826" font-family="Times New Roman,serif" font-size="20.00">3</text>
</g>
<!-- 0&#45;&gt;6 -->
<g id="edge3" class="edge"><title>0&#45;&gt;6</title>
<path fill="none" stroke="black" stroke-width="2" d="M148.836,-77.4644C162.321,-80.7225 180.14,-85.0278 195.246,-88.6775"/>
<polygon fill="black" stroke="black" stroke-width="2" points="194.642,-92.1322 205.184,-91.0787 196.286,-85.328 194.642,-92.1322"/>
</g>
<!-- 1 -->
<g id="node2" class="node"><title>1</title>
<ellipse fill="cadetblue" stroke="black" cx="118.371" cy="-170.818" rx="21.4286" ry="21.4286"/>
<text text-anchor="middle" x="118.371" y="-165.818" font-family="Times New Roman,serif" font-size="20.00">2</text>
</g>
<!-- 1&#45;&gt;5 -->
<g id="edge6" class="edge"><title>1&#45;&gt;5</title>
<path fill="none" stroke="black" stroke-width="2" d="M97.7664,-165.578C84.3699,-162.172 66.6678,-157.67 51.661,-153.854"/>
<polygon fill="black" stroke="black" stroke-width="2" points="52.3423,-150.416 41.7882,-151.343 50.6172,-157.2 52.3423,-150.416"/>
</g>
<!-- 1&#45;&gt;6 -->
<g id="edge7" class="edge"><title>1&#45;&gt;6</title>
<path fill="none" stroke="black" stroke-width="2" d="M136.126,-158.477C153.585,-146.342 180.418,-127.692 200.203,-113.94"/>
<polygon fill="black" stroke="black" stroke-width="2" points="202.256,-116.775 208.47,-108.194 198.261,-111.027 202.256,-116.775"/>
</g>
<!-- 2 -->
<g id="node3" class="node"><title>2</title>
<ellipse fill="cadetblue" stroke="black" cx="135.669" cy="-21.2132" rx="21.4286" ry="21.4286"/>
<text text-anchor="middle" x="135.669" y="-16.2132" font-family="Times New Roman,serif" font-size="20.00">2</text>
</g>
<!-- 2&#45;&gt;5 -->
<g id="edge10" class="edge"><title>2&#45;&gt;5</title>
<path fill="none" stroke="black" stroke-width="2" d="M121.173,-37.0316C101.307,-58.7102 65.4791,-97.8067 42.5471,-122.831"/>
<polygon fill="black" stroke="black" stroke-width="2" points="39.7671,-120.684 35.5914,-130.421 44.9279,-125.413 39.7671,-120.684"/>
</g>
<!-- 2&#45;&gt;6 -->
<g id="edge11" class="edge"><title>2&#45;&gt;6</title>
<path fill="none" stroke="black" stroke-width="2" d="M152.217,-34.9454C166.081,-46.449 186.057,-63.0256 201.713,-76.0167"/>
<polygon fill="black" stroke="black" stroke-width="2" points="199.52,-78.7451 209.451,-82.4375 203.99,-73.3582 199.52,-78.7451"/>
</g>
<!-- 3 -->
<g id="node4" class="node"><title>3</title>
<ellipse fill="cadetblue" stroke="black" cx="113.036" cy="-221.249" rx="21.4286" ry="21.4286"/>
<text text-anchor="middle" x="113.036" y="-216.249" font-family="Times New Roman,serif" font-size="20.00">2</text>
</g>
<!-- 4 -->
<g id="node5" class="node"><title>4</title>
<ellipse fill="cadetblue" stroke="black" cx="218.726" cy="-167.434" rx="21.4286" ry="21.4286"/>
<text text-anchor="middle" x="218.726" y="-162.434" font-family="Times New Roman,serif" font-size="20.00">2</text>
</g>
<!-- 3&#45;&gt;4 -->
<g id="edge13" class="edge"><title>3&#45;&gt;4</title>
<path fill="none" stroke="black" stroke-width="2" d="M132.421,-211.379C148.762,-203.058 172.354,-191.046 190.743,-181.682"/>
<polygon fill="black" stroke="black" stroke-width="2" points="192.496,-184.717 199.819,-177.061 189.32,-178.479 192.496,-184.717"/>
</g>
<!-- 7 -->
<g id="node8" class="node"><title>7</title>
<ellipse fill="cadetblue" stroke="black" cx="29.2081" cy="-74.4913" rx="21.4286" ry="21.4286"/>
<text text-anchor="middle" x="29.2081" y="-69.4913" font-family="Times New Roman,serif" font-size="20.00">2</text>
</g>
<!-- 3&#45;&gt;7 -->
<g id="edge16" class="edge"><title>3&#45;&gt;7</title>
<path fill="none" stroke="black" stroke-width="2" d="M102.419,-202.662C87.8692,-177.189 61.6288,-131.25 44.8332,-101.846"/>
<polygon fill="black" stroke="black" stroke-width="2" points="47.7379,-99.8747 39.7388,-92.9274 41.6596,-103.347 47.7379,-99.8747"/>
</g>
<!-- 4&#45;&gt;0 -->
<g id="edge1" class="edge"><title>4&#45;&gt;0</title>
<path fill="none" stroke="black" stroke-width="2" d="M203.76,-151.75C189.111,-136.397 166.63,-112.837 149.975,-95.3836"/>
<polygon fill="black" stroke="black" stroke-width="2" points="152.218,-92.664 142.782,-87.8455 147.153,-97.4965 152.218,-92.664"/>
</g>
<!-- 4&#45;&gt;1 -->
<g id="edge5" class="edge"><title>4&#45;&gt;1</title>
<path fill="none" stroke="black" stroke-width="2" d="M197.443,-168.151C183.606,-168.618 165.321,-169.235 149.821,-169.757"/>
<polygon fill="black" stroke="black" stroke-width="2" points="149.499,-166.266 139.623,-170.101 149.735,-173.262 149.499,-166.266"/>
</g>
<!-- 4&#45;&gt;2 -->
<g id="edge9" class="edge"><title>4&#45;&gt;2</title>
<path fill="none" stroke="black" stroke-width="2" d="M208.207,-148.915C193.869,-123.674 168.075,-78.264 151.424,-48.9497"/>
<polygon fill="black" stroke="black" stroke-width="2" points="154.347,-47.0101 146.365,-40.0436 148.261,-50.4675 154.347,-47.0101"/>
</g>
<!-- 5&#45;&gt;3 -->
<g id="edge14" class="edge"><title>5&#45;&gt;3</title>
<path fill="none" stroke="black" stroke-width="2" d="M38.0549,-159.893C52.2517,-171.51 72.7481,-188.282 88.7247,-201.355"/>
<polygon fill="black" stroke="black" stroke-width="2" points="86.6544,-204.184 96.6101,-207.808 91.0874,-198.766 86.6544,-204.184"/>
</g>
<!-- 5&#45;&gt;7 -->
<g id="edge18" class="edge"><title>5&#45;&gt;7</title>
<path fill="none" stroke="black" stroke-width="2" d="M23.5687,-125.01C24.2458,-118.945 24.9989,-112.198 25.7287,-105.661"/>
<polygon fill="black" stroke="black" stroke-width="2" points="29.2107,-106.016 26.8418,-95.689 22.2539,-105.239 29.2107,-106.016"/>
</g>
<!-- 6&#45;&gt;3 -->
<g id="edge15" class="edge"><title>6&#45;&gt;3</title>
<path fill="none" stroke="black" stroke-width="2" d="M211.601,-111.935C192.119,-133.541 157.07,-172.413 134.444,-197.506"/>
<polygon fill="black" stroke="black" stroke-width="2" points="131.667,-195.36 127.57,-205.13 136.866,-200.047 131.667,-195.36"/>
</g>
<!-- 6&#45;&gt;4 -->
<g id="edge17" class="edge"><title>6&#45;&gt;4</title>
<path fill="none" stroke="black" stroke-width="2" d="M223.744,-117.49C223.163,-123.276 222.521,-129.66 221.897,-135.876"/>
<polygon fill="black" stroke="black" stroke-width="2" points="218.393,-135.741 220.875,-146.041 225.358,-136.441 218.393,-135.741"/>
</g>
<!-- 7&#45;&gt;0 -->
<g id="edge4" class="edge"><title>7&#45;&gt;0</title>
<path fill="none" stroke="black" stroke-width="2" d="M50.665,-74.0491C64.012,-73.774 81.416,-73.4153 96.3423,-73.1076"/>
<polygon fill="black" stroke="black" stroke-width="2" points="96.7538,-76.6 106.68,-72.8946 96.6095,-69.6015 96.7538,-76.6"/>
</g>
<!-- 7&#45;&gt;1 -->
<g id="edge8" class="edge"><title>7&#45;&gt;1</title>
<path fill="none" stroke="black" stroke-width="2" d="M43.9316,-90.3977C58.3437,-105.968 80.4606,-129.861 96.8452,-147.562"/>
<polygon fill="black" stroke="black" stroke-width="2" points="94.5601,-150.246 103.922,-155.207 99.6972,-145.491 94.5601,-150.246"/>
</g>
<!-- 7&#45;&gt;2 -->
<g id="edge12" class="edge"><title>7&#45;&gt;2</title>
<path fill="none" stroke="black" stroke-width="2" d="M48.2411,-64.9663C64.7159,-56.7214 88.7698,-44.6837 107.479,-35.3208"/>
<polygon fill="black" stroke="black" stroke-width="2" points="109.065,-38.4408 116.441,-30.8354 105.932,-32.1809 109.065,-38.4408"/>
</g>
</g>
</svg>

