<?xml version="1.0" encoding="UTF-8" standalone="no"?>
<!DOCTYPE svg PUBLIC "-//W3C//DTD SVG 1.1//EN"
 "http://www.w3.org/Graphics/SVG/1.1/DTD/svg11.dtd">
<!-- Generated by graphviz version 2.36.0 (20140111.2315)
 -->
<!-- Title: G Pages: 1 -->
<svg width="100%" height="100%"
 viewBox="0.00 0.00 213.46 249.28" xmlns="http://www.w3.org/2000/svg" xmlns:xlink="http://www.w3.org/1999/xlink">
<g id="graph0" class="graph" transform="scale(1 1) rotate(0) translate(4 245.284)">
<title>G</title>
<!-- 0 -->
<g id="node1" class="node"><title>0</title>
<ellipse fill="cadetblue" stroke="black" cx="21.2132" cy="-72.6839" rx="21.4286" ry="21.4286"/>
<text text-anchor="middle" x="21.2132" y="-67.6839" font-family="Times New Roman,serif" font-size="20.00">2</text>
</g>
<!-- 6 -->
<g id="node7" class="node"><title>6</title>
<ellipse fill="cadetblue" stroke="black" cx="177.909" cy="-123.074" rx="21.4286" ry="21.4286"/>
<text text-anchor="middle" x="177.909" y="-118.074" font-family="Times New Roman,serif" font-size="20.00">2</text>
</g>
<!-- 0&#45;&gt;6 -->
<g id="edge3" class="edge"><title>0&#45;&gt;6</title>
<path fill="none" stroke="black" stroke-width="2" d="M42.5664,-71.2091C65.8979,-70.5729 103.636,-72.4785 131.321,-88.2349 138.727,-92.45 146.312,-97.6712 153.153,-102.777"/>
<polygon fill="black" stroke="black" stroke-width="2" points="151.296,-105.765 161.352,-109.099 155.57,-100.221 151.296,-105.765"/>
</g>
<!-- 7 -->
<g id="node8" class="node"><title>7</title>
<ellipse fill="cadetblue" stroke="black" cx="112.72" cy="-106.834" rx="21.4286" ry="21.4286"/>
<text text-anchor="middle" x="112.72" y="-101.834" font-family="Times New Roman,serif" font-size="20.00">2</text>
</g>
<!-- 0&#45;&gt;7 -->
<g id="edge4" class="edge"><title>0&#45;&gt;7</title>
<path fill="none" stroke="black" stroke-width="2" d="M41.5215,-80.2629C53.8086,-84.8485 69.6857,-90.7738 83.3278,-95.865"/>
<polygon fill="black" stroke="black" stroke-width="2" points="82.1905,-99.1763 92.7831,-99.3937 84.638,-92.6181 82.1905,-99.1763"/>
</g>
<!-- 1 -->
<g id="node2" class="node"><title>1</title>
<ellipse fill="cadetblue" stroke="black" cx="91.4299" cy="-178.584" rx="21.4286" ry="21.4286"/>
<text text-anchor="middle" x="91.4299" y="-173.584" font-family="Times New Roman,serif" font-size="20.00">2</text>
</g>
<!-- 1&#45;&gt;6 -->
<g id="edge7" class="edge"><title>1&#45;&gt;6</title>
<path fill="none" stroke="black" stroke-width="2" d="M109.348,-167.082C121.523,-159.267 137.834,-148.798 151.492,-140.031"/>
<polygon fill="black" stroke="black" stroke-width="2" points="153.489,-142.908 160.013,-134.561 149.707,-137.017 153.489,-142.908"/>
</g>
<!-- 1&#45;&gt;7 -->
<g id="edge8" class="edge"><title>1&#45;&gt;7</title>
<path fill="none" stroke="black" stroke-width="2" d="M97.4738,-158.215C99.39,-151.757 101.553,-144.469 103.634,-137.455"/>
<polygon fill="black" stroke="black" stroke-width="2" points="107.097,-138.085 106.587,-127.503 100.387,-136.094 107.097,-138.085"/>
</g>
<!-- 2 -->
<g id="node3" class="node"><title>2</title>
<ellipse fill="cadetblue" stroke="black" cx="184.251" cy="-21.2132" rx="21.4286" ry="21.4286"/>
<text text-anchor="middle" x="184.251" y="-16.2132" font-family="Times New Roman,serif" font-size="20.00">2</text>
</g>
<!-- 4 -->
<g id="node5" class="node"><title>4</title>
<ellipse fill="cadetblue" stroke="black" cx="78.8755" cy="-40.9885" rx="21.4286" ry="21.4286"/>
<text text-anchor="middle" x="78.8755" y="-35.9885" font-family="Times New Roman,serif" font-size="20.00">2</text>
</g>
<!-- 2&#45;&gt;4 -->
<g id="edge9" class="edge"><title>2&#45;&gt;4</title>
<path fill="none" stroke="black" stroke-width="2" d="M163.18,-25.1675C147.96,-28.0237 127.155,-31.9282 110.021,-35.1436"/>
<polygon fill="black" stroke="black" stroke-width="2" points="109.093,-31.7566 99.9101,-37.0411 110.384,-38.6365 109.093,-31.7566"/>
</g>
<!-- 3 -->
<g id="node4" class="node"><title>3</title>
<ellipse fill="cadetblue" stroke="black" cx="141.861" cy="-220.071" rx="21.4286" ry="21.4286"/>
<text text-anchor="middle" x="141.861" y="-215.071" font-family="Times New Roman,serif" font-size="20.00">2</text>
</g>
<!-- 5 -->
<g id="node6" class="node"><title>5</title>
<ellipse fill="brown" stroke="black" cx="23.0725" cy="-157.841" rx="21.4286" ry="21.4286"/>
<text text-anchor="middle" x="23.0725" y="-152.841" font-family="Times New Roman,serif" font-size="20.00">3</text>
</g>
<!-- 3&#45;&gt;5 -->
<g id="edge12" class="edge"><title>3&#45;&gt;5</title>
<path fill="none" stroke="black" stroke-width="2" d="M121.052,-214.349C111.87,-211.688 100.991,-208.349 91.334,-204.888 82.9109,-201.869 80.4706,-201.659 72.7622,-197.116 63.7629,-191.811 54.6,-185.035 46.6342,-178.61"/>
<polygon fill="black" stroke="black" stroke-width="2" points="48.751,-175.819 38.8234,-172.118 44.2766,-181.202 48.751,-175.819"/>
</g>
<!-- 4&#45;&gt;0 -->
<g id="edge1" class="edge"><title>4&#45;&gt;0</title>
<path fill="none" stroke="black" stroke-width="2" d="M59.9947,-51.3668C56.4741,-53.302 52.7279,-55.3612 49.0048,-57.4076"/>
<polygon fill="black" stroke="black" stroke-width="2" points="47.0169,-54.5064 39.9395,-62.3906 50.3888,-60.6407 47.0169,-54.5064"/>
</g>
<!-- 4&#45;&gt;1 -->
<g id="edge5" class="edge"><title>4&#45;&gt;1</title>
<path fill="none" stroke="black" stroke-width="2" d="M80.8096,-62.1862C82.8771,-84.8455 86.1774,-121.017 88.5505,-147.026"/>
<polygon fill="black" stroke="black" stroke-width="2" points="85.0786,-147.495 89.4729,-157.135 92.0497,-146.858 85.0786,-147.495"/>
</g>
<!-- 4&#45;&gt;5 -->
<g id="edge15" class="edge"><title>4&#45;&gt;5</title>
<path fill="none" stroke="black" stroke-width="2" d="M69.6607,-60.2844C60.6946,-79.0598 46.9636,-107.813 36.7281,-129.246"/>
<polygon fill="black" stroke="black" stroke-width="2" points="33.452,-127.985 32.3009,-138.517 39.7686,-131.001 33.452,-127.985"/>
</g>
<!-- 5&#45;&gt;0 -->
<g id="edge2" class="edge"><title>5&#45;&gt;0</title>
<path fill="none" stroke="black" stroke-width="2" d="M22.6033,-136.352C22.3919,-126.671 22.138,-115.042 21.9054,-104.388"/>
<polygon fill="black" stroke="black" stroke-width="2" points="25.3998,-104.087 21.6822,-94.1658 18.4014,-104.24 25.3998,-104.087"/>
</g>
<!-- 5&#45;&gt;1 -->
<g id="edge6" class="edge"><title>5&#45;&gt;1</title>
<path fill="none" stroke="black" stroke-width="2" d="M43.582,-164.065C49.1245,-165.746 55.2413,-167.603 61.1961,-169.409"/>
<polygon fill="black" stroke="black" stroke-width="2" points="60.3494,-172.81 70.9349,-172.365 62.382,-166.112 60.3494,-172.81"/>
</g>
<!-- 6&#45;&gt;2 -->
<g id="edge10" class="edge"><title>6&#45;&gt;2</title>
<path fill="none" stroke="black" stroke-width="2" d="M179.254,-101.472C180.134,-87.3322 181.3,-68.6172 182.284,-52.8163"/>
<polygon fill="black" stroke="black" stroke-width="2" points="185.802,-52.6331 182.93,-42.4349 178.815,-52.198 185.802,-52.6331"/>
</g>
<!-- 6&#45;&gt;3 -->
<g id="edge13" class="edge"><title>6&#45;&gt;3</title>
<path fill="none" stroke="black" stroke-width="2" d="M170.44,-143.172C165.365,-156.828 158.566,-175.122 152.873,-190.441"/>
<polygon fill="black" stroke="black" stroke-width="2" points="149.524,-189.406 149.321,-199.999 156.085,-191.845 149.524,-189.406"/>
</g>
<!-- 7&#45;&gt;2 -->
<g id="edge11" class="edge"><title>7&#45;&gt;2</title>
<path fill="none" stroke="black" stroke-width="2" d="M126.512,-90.3255C137.1,-77.6514 151.884,-59.9559 163.841,-45.6435"/>
<polygon fill="black" stroke="black" stroke-width="2" points="166.776,-47.5893 170.502,-37.6711 161.404,-43.1013 166.776,-47.5893"/>
</g>
<!-- 7&#45;&gt;3 -->
<g id="edge14" class="edge"><title>7&#45;&gt;3</title>
<path fill="none" stroke="black" stroke-width="2" d="M118.065,-127.603C122.542,-145.002 128.994,-170.074 134.051,-189.722"/>
<polygon fill="black" stroke="black" stroke-width="2" points="130.668,-190.621 136.55,-199.433 137.447,-188.877 130.668,-190.621"/>
</g>
<!-- 7&#45;&gt;4 -->
<g id="edge16" class="edge"><title>7&#45;&gt;4</title>
<path fill="none" stroke="black" stroke-width="2" d="M102.931,-87.7888C99.94,-81.9704 96.5856,-75.4443 93.3528,-69.1547"/>
<polygon fill="black" stroke="black" stroke-width="2" points="96.4443,-67.513 88.7599,-60.2191 90.2185,-70.713 96.4443,-67.513"/>
</g>
<!-- 7&#45;&gt;5 -->
<g id="edge17" class="edge"><title>7&#45;&gt;5</title>
<path fill="none" stroke="black" stroke-width="2" d="M94.1448,-117.403C81.5237,-124.584 64.6158,-134.204 50.4577,-142.26"/>
<polygon fill="black" stroke="black" stroke-width="2" points="48.5844,-139.299 41.6237,-147.286 52.0462,-145.383 48.5844,-139.299"/>
</g>
</g>
</svg>

