<?xml version="1.0" encoding="UTF-8" standalone="no"?>
<!DOCTYPE svg PUBLIC "-//W3C//DTD SVG 1.1//EN"
 "http://www.w3.org/Graphics/SVG/1.1/DTD/svg11.dtd">
<!-- Generated by graphviz version 2.36.0 (20140111.2315)
 -->
<!-- Title: G Pages: 1 -->
<svg width="100%" height="100%"
 viewBox="0.00 0.00 239.04 196.97" xmlns="http://www.w3.org/2000/svg" xmlns:xlink="http://www.w3.org/1999/xlink">
<g id="graph0" class="graph" transform="scale(1 1) rotate(0) translate(4 192.968)">
<title>G</title>
<!-- 0 -->
<g id="node1" class="node"><title>0</title>
<ellipse fill="cadetblue" stroke="black" cx="27.1623" cy="-112.288" rx="21.4286" ry="21.4286"/>
<text text-anchor="middle" x="27.1623" y="-107.288" font-family="Times New Roman,serif" font-size="20.00">2</text>
</g>
<!-- 7 -->
<g id="node8" class="node"><title>7</title>
<ellipse fill="cadetblue" stroke="black" cx="108.121" cy="-30.5227" rx="21.4286" ry="21.4286"/>
<text text-anchor="middle" x="108.121" y="-25.5227" font-family="Times New Roman,serif" font-size="20.00">2</text>
</g>
<!-- 0&#45;&gt;7 -->
<g id="edge3" class="edge"><title>0&#45;&gt;7</title>
<path fill="none" stroke="black" stroke-width="2" d="M42.39,-96.9082C54.6026,-84.5741 71.9209,-67.0834 85.7154,-53.1516"/>
<polygon fill="black" stroke="black" stroke-width="2" points="88.4128,-55.4017 92.9617,-45.8331 83.4386,-50.4766 88.4128,-55.4017"/>
</g>
<!-- 1 -->
<g id="node2" class="node"><title>1</title>
<ellipse fill="cadetblue" stroke="black" cx="21.2132" cy="-47.6604" rx="21.4286" ry="21.4286"/>
<text text-anchor="middle" x="21.2132" y="-42.6604" font-family="Times New Roman,serif" font-size="20.00">2</text>
</g>
<!-- 1&#45;&gt;7 -->
<g id="edge6" class="edge"><title>1&#45;&gt;7</title>
<path fill="none" stroke="black" stroke-width="2" d="M42.2512,-43.5119C52.7128,-41.4489 65.5614,-38.9152 77.1245,-36.6351"/>
<polygon fill="black" stroke="black" stroke-width="2" points="78.143,-40.0017 87.2769,-34.6331 76.7887,-33.134 78.143,-40.0017"/>
</g>
<!-- 2 -->
<g id="node3" class="node"><title>2</title>
<ellipse fill="cadetblue" stroke="black" cx="186.341" cy="-21.2132" rx="21.4286" ry="21.4286"/>
<text text-anchor="middle" x="186.341" y="-16.2132" font-family="Times New Roman,serif" font-size="20.00">2</text>
</g>
<!-- 6 -->
<g id="node7" class="node"><title>6</title>
<ellipse fill="brown" stroke="black" cx="117.644" cy="-84.3771" rx="21.4286" ry="21.4286"/>
<text text-anchor="middle" x="117.644" y="-79.3771" font-family="Times New Roman,serif" font-size="20.00">3</text>
</g>
<!-- 2&#45;&gt;6 -->
<g id="edge8" class="edge"><title>2&#45;&gt;6</title>
<path fill="none" stroke="black" stroke-width="2" d="M170.407,-35.863C161.65,-43.9148 150.626,-54.0514 140.922,-62.9741"/>
<polygon fill="black" stroke="black" stroke-width="2" points="138.483,-60.4618 133.49,-69.8067 143.221,-65.6147 138.483,-60.4618"/>
</g>
<!-- 3 -->
<g id="node4" class="node"><title>3</title>
<ellipse fill="cadetblue" stroke="black" cx="209.831" cy="-99.3248" rx="21.4286" ry="21.4286"/>
<text text-anchor="middle" x="209.831" y="-94.3248" font-family="Times New Roman,serif" font-size="20.00">2</text>
</g>
<!-- 3&#45;&gt;6 -->
<g id="edge11" class="edge"><title>3&#45;&gt;6</title>
<path fill="none" stroke="black" stroke-width="2" d="M188.449,-95.8579C176.614,-93.9388 161.692,-91.5194 148.602,-89.3969"/>
<polygon fill="black" stroke="black" stroke-width="2" points="149.023,-85.9194 138.591,-87.7736 147.902,-92.8291 149.023,-85.9194"/>
</g>
<!-- 4 -->
<g id="node5" class="node"><title>4</title>
<ellipse fill="cadetblue" stroke="black" cx="57.2378" cy="-167.755" rx="21.4286" ry="21.4286"/>
<text text-anchor="middle" x="57.2378" y="-162.755" font-family="Times New Roman,serif" font-size="20.00">2</text>
</g>
<!-- 4&#45;&gt;0 -->
<g id="edge1" class="edge"><title>4&#45;&gt;0</title>
<path fill="none" stroke="black" stroke-width="2" d="M47.0556,-148.976C45.4878,-146.085 43.8411,-143.048 42.1945,-140.011"/>
<polygon fill="black" stroke="black" stroke-width="2" points="45.1774,-138.17 37.334,-131.047 39.0238,-141.506 45.1774,-138.17"/>
</g>
<!-- 4&#45;&gt;1 -->
<g id="edge4" class="edge"><title>4&#45;&gt;1</title>
<path fill="none" stroke="black" stroke-width="2" d="M57.3928,-146.455C57.0642,-136.042 56.0604,-123.397 53.4666,-112.312 50.3856,-99.1439 44.1791,-85.6006 38.0263,-74.3334"/>
<polygon fill="black" stroke="black" stroke-width="2" points="40.9505,-72.3969 32.9402,-65.4626 34.8778,-75.8787 40.9505,-72.3969"/>
</g>
<!-- 5 -->
<g id="node6" class="node"><title>5</title>
<ellipse fill="cadetblue" stroke="black" cx="139.568" cy="-134.809" rx="21.4286" ry="21.4286"/>
<text text-anchor="middle" x="139.568" y="-129.809" font-family="Times New Roman,serif" font-size="20.00">2</text>
</g>
<!-- 5&#45;&gt;0 -->
<g id="edge2" class="edge"><title>5&#45;&gt;0</title>
<path fill="none" stroke="black" stroke-width="2" d="M118.689,-130.625C101.682,-127.218 77.4195,-122.357 58.1474,-118.496"/>
<polygon fill="black" stroke="black" stroke-width="2" points="58.8039,-115.058 48.3111,-116.525 57.4286,-121.921 58.8039,-115.058"/>
</g>
<!-- 5&#45;&gt;2 -->
<g id="edge7" class="edge"><title>5&#45;&gt;2</title>
<path fill="none" stroke="black" stroke-width="2" d="M147.715,-115.022C155.048,-97.2133 165.921,-70.8069 174.264,-50.5437"/>
<polygon fill="black" stroke="black" stroke-width="2" points="177.559,-51.7338 178.13,-41.1544 171.086,-49.0686 177.559,-51.7338"/>
</g>
<!-- 5&#45;&gt;3 -->
<g id="edge10" class="edge"><title>5&#45;&gt;3</title>
<path fill="none" stroke="black" stroke-width="2" d="M158.768,-125.112C165.816,-121.553 173.95,-117.445 181.624,-113.569"/>
<polygon fill="black" stroke="black" stroke-width="2" points="183.306,-116.641 190.654,-109.009 180.15,-110.393 183.306,-116.641"/>
</g>
<!-- 5&#45;&gt;4 -->
<g id="edge13" class="edge"><title>5&#45;&gt;4</title>
<path fill="none" stroke="black" stroke-width="2" d="M119.638,-142.784C109.728,-146.75 97.5559,-151.621 86.6018,-156.004"/>
<polygon fill="black" stroke="black" stroke-width="2" points="84.968,-152.888 76.9842,-159.853 87.5687,-159.387 84.968,-152.888"/>
</g>
<!-- 6&#45;&gt;1 -->
<g id="edge5" class="edge"><title>6&#45;&gt;1</title>
<path fill="none" stroke="black" stroke-width="2" d="M97.6632,-76.7694C84.0872,-71.6002 65.8999,-64.6752 50.6706,-58.8765"/>
<polygon fill="black" stroke="black" stroke-width="2" points="51.759,-55.5459 41.1681,-55.2584 49.2681,-62.0877 51.759,-55.5459"/>
</g>
<!-- 6&#45;&gt;4 -->
<g id="edge14" class="edge"><title>6&#45;&gt;4</title>
<path fill="none" stroke="black" stroke-width="2" d="M105.128,-101.653C96.6233,-113.392 85.2304,-129.117 75.6905,-142.285"/>
<polygon fill="black" stroke="black" stroke-width="2" points="72.7706,-140.35 69.7379,-150.501 78.4393,-144.457 72.7706,-140.35"/>
</g>
<!-- 6&#45;&gt;5 -->
<g id="edge15" class="edge"><title>6&#45;&gt;5</title>
<path fill="none" stroke="black" stroke-width="2" d="M126.183,-104.02C126.431,-104.59 126.681,-105.164 126.932,-105.742"/>
<polygon fill="black" stroke="black" stroke-width="2" points="123.819,-107.361 131.016,-115.137 130.239,-104.57 123.819,-107.361"/>
</g>
<!-- 7&#45;&gt;2 -->
<g id="edge9" class="edge"><title>7&#45;&gt;2</title>
<path fill="none" stroke="black" stroke-width="2" d="M129.495,-27.9789C137.406,-27.0373 146.545,-25.9496 155.15,-24.9254"/>
<polygon fill="black" stroke="black" stroke-width="2" points="155.747,-28.3792 165.263,-23.7218 154.92,-21.4282 155.747,-28.3792"/>
</g>
<!-- 7&#45;&gt;3 -->
<g id="edge12" class="edge"><title>7&#45;&gt;3</title>
<path fill="none" stroke="black" stroke-width="2" d="M125.838,-42.5071C141.783,-53.2933 165.426,-69.2871 183.569,-81.56"/>
<polygon fill="black" stroke="black" stroke-width="2" points="181.732,-84.5428 191.976,-87.2469 185.654,-78.7448 181.732,-84.5428"/>
</g>
<!-- 7&#45;&gt;5 -->
<g id="edge16" class="edge"><title>7&#45;&gt;5</title>
<path fill="none" stroke="black" stroke-width="2" d="M123.219,-45.4348C131.954,-55.4626 141.663,-69.5291 143.948,-84.4084 144.888,-90.5259 144.978,-97.0945 144.616,-103.402"/>
<polygon fill="black" stroke="black" stroke-width="2" points="141.104,-103.361 143.648,-113.646 148.073,-104.019 141.104,-103.361"/>
</g>
<!-- 7&#45;&gt;6 -->
<g id="edge17" class="edge"><title>7&#45;&gt;6</title>
<path fill="none" stroke="black" stroke-width="2" d="M111.83,-51.4984C111.938,-52.1076 112.046,-52.721 112.155,-53.3374"/>
<polygon fill="black" stroke="black" stroke-width="2" points="108.741,-54.1322 113.929,-63.37 115.635,-52.9133 108.741,-54.1322"/>
</g>
</g>
</svg>

