<?xml version="1.0" encoding="UTF-8" standalone="no"?>
<!DOCTYPE svg PUBLIC "-//W3C//DTD SVG 1.1//EN"
 "http://www.w3.org/Graphics/SVG/1.1/DTD/svg11.dtd">
<!-- Generated by graphviz version 2.36.0 (20140111.2315)
 -->
<!-- Title: G Pages: 1 -->
<svg width="100%" height="100%"
 viewBox="0.00 0.00 239.92 232.45" xmlns="http://www.w3.org/2000/svg" xmlns:xlink="http://www.w3.org/1999/xlink">
<g id="graph0" class="graph" transform="scale(1 1) rotate(0) translate(4 228.453)">
<title>G</title>
<!-- 0 -->
<g id="node1" class="node"><title>0</title>
<ellipse fill="cadetblue" stroke="black" cx="21.2132" cy="-64.8953" rx="21.4286" ry="21.4286"/>
<text text-anchor="middle" x="21.2132" y="-59.8953" font-family="Times New Roman,serif" font-size="20.00">2</text>
</g>
<!-- 7 -->
<g id="node8" class="node"><title>7</title>
<ellipse fill="brown" stroke="black" cx="107.756" cy="-97.4896" rx="21.4286" ry="21.4286"/>
<text text-anchor="middle" x="107.756" y="-92.4896" font-family="Times New Roman,serif" font-size="20.00">3</text>
</g>
<!-- 0&#45;&gt;7 -->
<g id="edge3" class="edge"><title>0&#45;&gt;7</title>
<path fill="none" stroke="black" stroke-width="2" d="M41.2853,-72.4551C52.3173,-76.61 66.2056,-81.8407 78.4308,-86.4451"/>
<polygon fill="black" stroke="black" stroke-width="2" points="77.2005,-89.7217 87.7924,-89.9709 79.6677,-83.1709 77.2005,-89.7217"/>
</g>
<!-- 1 -->
<g id="node2" class="node"><title>1</title>
<ellipse fill="cadetblue" stroke="black" cx="122.028" cy="-203.239" rx="21.4286" ry="21.4286"/>
<text text-anchor="middle" x="122.028" y="-198.239" font-family="Times New Roman,serif" font-size="20.00">2</text>
</g>
<!-- 1&#45;&gt;7 -->
<g id="edge6" class="edge"><title>1&#45;&gt;7</title>
<path fill="none" stroke="black" stroke-width="2" d="M119.174,-182.093C117.112,-166.82 114.295,-145.94 111.974,-128.746"/>
<polygon fill="black" stroke="black" stroke-width="2" points="115.411,-128.041 110.605,-118.599 108.474,-128.977 115.411,-128.041"/>
</g>
<!-- 2 -->
<g id="node3" class="node"><title>2</title>
<ellipse fill="cadetblue" stroke="black" cx="178.835" cy="-21.2132" rx="21.4286" ry="21.4286"/>
<text text-anchor="middle" x="178.835" y="-16.2132" font-family="Times New Roman,serif" font-size="20.00">2</text>
</g>
<!-- 2&#45;&gt;7 -->
<g id="edge9" class="edge"><title>2&#45;&gt;7</title>
<path fill="none" stroke="black" stroke-width="2" d="M164.108,-37.0177C154.034,-47.828 140.516,-62.3345 129.245,-74.4295"/>
<polygon fill="black" stroke="black" stroke-width="2" points="126.478,-72.2643 122.221,-81.9663 131.599,-77.0366 126.478,-72.2643"/>
</g>
<!-- 3 -->
<g id="node4" class="node"><title>3</title>
<ellipse fill="cadetblue" stroke="black" cx="210.711" cy="-77.9441" rx="21.4286" ry="21.4286"/>
<text text-anchor="middle" x="210.711" y="-72.9441" font-family="Times New Roman,serif" font-size="20.00">2</text>
</g>
<!-- 6 -->
<g id="node7" class="node"><title>6</title>
<ellipse fill="cadetblue" stroke="black" cx="158.187" cy="-126.212" rx="21.4286" ry="21.4286"/>
<text text-anchor="middle" x="158.187" y="-121.212" font-family="Times New Roman,serif" font-size="20.00">2</text>
</g>
<!-- 3&#45;&gt;6 -->
<g id="edge11" class="edge"><title>3&#45;&gt;6</title>
<path fill="none" stroke="black" stroke-width="2" d="M194.952,-92.426C190.693,-96.3396 185.993,-100.659 181.418,-104.863"/>
<polygon fill="black" stroke="black" stroke-width="2" points="178.93,-102.396 173.935,-111.74 183.666,-107.551 178.93,-102.396"/>
</g>
<!-- 4 -->
<g id="node5" class="node"><title>4</title>
<ellipse fill="cadetblue" stroke="black" cx="52.3593" cy="-157.023" rx="21.4286" ry="21.4286"/>
<text text-anchor="middle" x="52.3593" y="-152.023" font-family="Times New Roman,serif" font-size="20.00">2</text>
</g>
<!-- 4&#45;&gt;0 -->
<g id="edge1" class="edge"><title>4&#45;&gt;0</title>
<path fill="none" stroke="black" stroke-width="2" d="M45.447,-136.577C41.2936,-124.292 35.9352,-108.442 31.3135,-94.7714"/>
<polygon fill="black" stroke="black" stroke-width="2" points="34.6246,-93.6367 28.1062,-85.2844 27.9933,-95.8786 34.6246,-93.6367"/>
</g>
<!-- 4&#45;&gt;1 -->
<g id="edge4" class="edge"><title>4&#45;&gt;1</title>
<path fill="none" stroke="black" stroke-width="2" d="M70.3006,-168.925C77.9608,-174.007 87.0591,-180.042 95.4732,-185.624"/>
<polygon fill="black" stroke="black" stroke-width="2" points="93.637,-188.606 103.905,-191.217 97.5066,-182.773 93.637,-188.606"/>
</g>
<!-- 5 -->
<g id="node6" class="node"><title>5</title>
<ellipse fill="cadetblue" stroke="black" cx="112.254" cy="-27.5296" rx="21.4286" ry="21.4286"/>
<text text-anchor="middle" x="112.254" y="-22.5296" font-family="Times New Roman,serif" font-size="20.00">2</text>
</g>
<!-- 5&#45;&gt;0 -->
<g id="edge2" class="edge"><title>5&#45;&gt;0</title>
<path fill="none" stroke="black" stroke-width="2" d="M92.4994,-35.6374C80.2114,-40.6808 64.1882,-47.2572 50.4462,-52.8973"/>
<polygon fill="black" stroke="black" stroke-width="2" points="48.8513,-49.7685 40.9291,-56.8034 51.5092,-56.2443 48.8513,-49.7685"/>
</g>
<!-- 5&#45;&gt;2 -->
<g id="edge7" class="edge"><title>5&#45;&gt;2</title>
<path fill="none" stroke="black" stroke-width="2" d="M133.687,-25.4963C138.083,-25.0793 142.796,-24.6322 147.458,-24.1899"/>
<polygon fill="black" stroke="black" stroke-width="2" points="147.818,-27.6716 157.442,-23.2427 147.156,-20.7029 147.818,-27.6716"/>
</g>
<!-- 5&#45;&gt;3 -->
<g id="edge10" class="edge"><title>5&#45;&gt;3</title>
<path fill="none" stroke="black" stroke-width="2" d="M131.237,-37.2501C145.811,-44.7127 166.16,-55.132 182.618,-63.5593"/>
<polygon fill="black" stroke="black" stroke-width="2" points="181.289,-66.8111 191.785,-68.2536 184.48,-60.5804 181.289,-66.8111"/>
</g>
<!-- 6&#45;&gt;1 -->
<g id="edge5" class="edge"><title>6&#45;&gt;1</title>
<path fill="none" stroke="black" stroke-width="2" d="M149.063,-145.649C144.951,-154.407 140.014,-164.925 135.49,-174.562"/>
<polygon fill="black" stroke="black" stroke-width="2" points="132.23,-173.269 131.149,-183.808 138.567,-176.243 132.23,-173.269"/>
</g>
<!-- 6&#45;&gt;2 -->
<g id="edge8" class="edge"><title>6&#45;&gt;2</title>
<path fill="none" stroke="black" stroke-width="2" d="M162.316,-105.216C165.298,-90.0506 169.375,-69.3197 172.732,-52.2472"/>
<polygon fill="black" stroke="black" stroke-width="2" points="176.218,-52.6599 174.714,-42.1725 169.35,-51.3091 176.218,-52.6599"/>
</g>
<!-- 6&#45;&gt;4 -->
<g id="edge13" class="edge"><title>6&#45;&gt;4</title>
<path fill="none" stroke="black" stroke-width="2" d="M137.782,-132.152C122.218,-136.684 100.526,-143 82.896,-148.133"/>
<polygon fill="black" stroke="black" stroke-width="2" points="81.6853,-144.84 73.0624,-150.996 83.6422,-151.561 81.6853,-144.84"/>
</g>
<!-- 6&#45;&gt;5 -->
<g id="edge15" class="edge"><title>6&#45;&gt;5</title>
<path fill="none" stroke="black" stroke-width="2" d="M149.112,-106.715C142.381,-92.2533 133.099,-72.312 125.533,-56.0593"/>
<polygon fill="black" stroke="black" stroke-width="2" points="128.703,-54.5745 121.31,-46.9855 122.357,-57.5285 128.703,-54.5745"/>
</g>
<!-- 7&#45;&gt;3 -->
<g id="edge12" class="edge"><title>7&#45;&gt;3</title>
<path fill="none" stroke="black" stroke-width="2" d="M129.088,-93.4398C143.679,-90.6697 163.26,-86.9525 179.585,-83.8532"/>
<polygon fill="black" stroke="black" stroke-width="2" points="180.586,-87.2257 189.758,-81.9219 179.28,-80.3486 180.586,-87.2257"/>
</g>
<!-- 7&#45;&gt;4 -->
<g id="edge14" class="edge"><title>7&#45;&gt;4</title>
<path fill="none" stroke="black" stroke-width="2" d="M93.2009,-113.131C87.3946,-119.371 80.5852,-126.689 74.2091,-133.542"/>
<polygon fill="black" stroke="black" stroke-width="2" points="71.259,-131.574 67.0091,-141.279 76.3836,-136.343 71.259,-131.574"/>
</g>
<!-- 7&#45;&gt;5 -->
<g id="edge16" class="edge"><title>7&#45;&gt;5</title>
<path fill="none" stroke="black" stroke-width="2" d="M109.13,-76.1192C109.478,-70.6944 109.861,-64.7523 110.234,-58.9428"/>
<polygon fill="black" stroke="black" stroke-width="2" points="113.739,-58.9732 110.888,-48.7692 106.754,-58.524 113.739,-58.9732"/>
</g>
<!-- 7&#45;&gt;6 -->
<g id="edge17" class="edge"><title>7&#45;&gt;6</title>
<path fill="none" stroke="black" stroke-width="2" d="M126.248,-108.022C127.756,-108.88 129.298,-109.758 130.85,-110.643"/>
<polygon fill="black" stroke="black" stroke-width="2" points="129.275,-113.773 139.697,-115.681 132.739,-107.691 129.275,-113.773"/>
</g>
</g>
</svg>

