<?xml version="1.0" encoding="UTF-8" standalone="no"?>
<!DOCTYPE svg PUBLIC "-//W3C//DTD SVG 1.1//EN"
 "http://www.w3.org/Graphics/SVG/1.1/DTD/svg11.dtd">
<!-- Generated by graphviz version 2.36.0 (20140111.2315)
 -->
<!-- Title: G Pages: 1 -->
<svg width="100%" height="100%"
 viewBox="0.00 0.00 288.78 273.70" xmlns="http://www.w3.org/2000/svg" xmlns:xlink="http://www.w3.org/1999/xlink">
<g id="graph0" class="graph" transform="scale(1 1) rotate(0) translate(4 269.699)">
<title>G</title>
<!-- 0 -->
<g id="node1" class="node"><title>0</title>
<ellipse fill="cadetblue" stroke="black" cx="21.2132" cy="-104.67" rx="21.4286" ry="21.4286"/>
<text text-anchor="middle" x="21.2132" y="-99.6696" font-family="Times New Roman,serif" font-size="20.00">2</text>
</g>
<!-- 7 -->
<g id="node8" class="node"><title>7</title>
<ellipse fill="cadetblue" stroke="black" cx="148.663" cy="-103.453" rx="21.4286" ry="21.4286"/>
<text text-anchor="middle" x="148.663" y="-98.4525" font-family="Times New Roman,serif" font-size="20.00">2</text>
</g>
<!-- 0&#45;&gt;7 -->
<g id="edge3" class="edge"><title>0&#45;&gt;7</title>
<path fill="none" stroke="black" stroke-width="2" d="M42.5455,-104.466C62.9474,-104.271 93.9591,-103.975 117.197,-103.753"/>
<polygon fill="black" stroke="black" stroke-width="2" points="117.295,-107.252 127.261,-103.657 117.228,-100.253 117.295,-107.252"/>
</g>
<!-- 1 -->
<g id="node2" class="node"><title>1</title>
<ellipse fill="cadetblue" stroke="black" cx="259.565" cy="-39.5864" rx="21.4286" ry="21.4286"/>
<text text-anchor="middle" x="259.565" y="-34.5864" font-family="Times New Roman,serif" font-size="20.00">2</text>
</g>
<!-- 1&#45;&gt;7 -->
<g id="edge6" class="edge"><title>1&#45;&gt;7</title>
<path fill="none" stroke="black" stroke-width="2" d="M240.752,-50.4204C222.96,-60.6666 196.059,-76.1583 175.919,-87.7565"/>
<polygon fill="black" stroke="black" stroke-width="2" points="174.118,-84.755 167.198,-92.7785 177.611,-90.821 174.118,-84.755"/>
</g>
<!-- 2 -->
<g id="node3" class="node"><title>2</title>
<ellipse fill="cadetblue" stroke="black" cx="128.107" cy="-21.2132" rx="21.4286" ry="21.4286"/>
<text text-anchor="middle" x="128.107" y="-16.2132" font-family="Times New Roman,serif" font-size="20.00">2</text>
</g>
<!-- 6 -->
<g id="node7" class="node"><title>6</title>
<ellipse fill="cadetblue" stroke="black" cx="254.562" cy="-130.773" rx="21.4286" ry="21.4286"/>
<text text-anchor="middle" x="254.562" y="-125.773" font-family="Times New Roman,serif" font-size="20.00">2</text>
</g>
<!-- 2&#45;&gt;6 -->
<g id="edge8" class="edge"><title>2&#45;&gt;6</title>
<path fill="none" stroke="black" stroke-width="2" d="M144.38,-35.3119C166.29,-54.2944 205.433,-88.2074 230.681,-110.083"/>
<polygon fill="black" stroke="black" stroke-width="2" points="228.502,-112.825 238.351,-116.728 233.085,-107.535 228.502,-112.825"/>
</g>
<!-- 3 -->
<g id="node4" class="node"><title>3</title>
<ellipse fill="cadetblue" stroke="black" cx="187.507" cy="-244.486" rx="21.4286" ry="21.4286"/>
<text text-anchor="middle" x="187.507" y="-239.486" font-family="Times New Roman,serif" font-size="20.00">2</text>
</g>
<!-- 5 -->
<g id="node6" class="node"><title>5</title>
<ellipse fill="cadetblue" stroke="black" cx="72.497" cy="-179.985" rx="21.4286" ry="21.4286"/>
<text text-anchor="middle" x="72.497" y="-174.985" font-family="Times New Roman,serif" font-size="20.00">2</text>
</g>
<!-- 3&#45;&gt;5 -->
<g id="edge10" class="edge"><title>3&#45;&gt;5</title>
<path fill="none" stroke="black" stroke-width="2" d="M168.773,-233.979C150.143,-223.531 121.351,-207.384 100.103,-195.467"/>
<polygon fill="black" stroke="black" stroke-width="2" points="101.657,-192.326 91.2233,-190.487 98.2333,-198.431 101.657,-192.326"/>
</g>
<!-- 4 -->
<g id="node5" class="node"><title>4</title>
<ellipse fill="cadetblue" stroke="black" cx="163.086" cy="-153.884" rx="21.4286" ry="21.4286"/>
<text text-anchor="middle" x="163.086" y="-148.884" font-family="Times New Roman,serif" font-size="20.00">2</text>
</g>
<!-- 4&#45;&gt;0 -->
<g id="edge1" class="edge"><title>4&#45;&gt;0</title>
<path fill="none" stroke="black" stroke-width="2" d="M142.759,-146.833C118.739,-138.5 78.5644,-124.564 51.0239,-115.011"/>
<polygon fill="black" stroke="black" stroke-width="2" points="52.0972,-111.678 41.5024,-111.708 49.803,-118.292 52.0972,-111.678"/>
</g>
<!-- 4&#45;&gt;1 -->
<g id="edge4" class="edge"><title>4&#45;&gt;1</title>
<path fill="none" stroke="black" stroke-width="2" d="M176.909,-137.508C193.244,-118.156 220.564,-85.7906 239.293,-63.603"/>
<polygon fill="black" stroke="black" stroke-width="2" points="241.992,-65.8313 245.768,-55.9321 236.643,-61.3161 241.992,-65.8313"/>
</g>
<!-- 5&#45;&gt;0 -->
<g id="edge2" class="edge"><title>5&#45;&gt;0</title>
<path fill="none" stroke="black" stroke-width="2" d="M60.3434,-162.136C53.9567,-152.757 46.0092,-141.085 38.9484,-130.715"/>
<polygon fill="black" stroke="black" stroke-width="2" points="41.8009,-128.686 33.2795,-122.39 36.0148,-132.626 41.8009,-128.686"/>
</g>
<!-- 5&#45;&gt;2 -->
<g id="edge7" class="edge"><title>5&#45;&gt;2</title>
<path fill="none" stroke="black" stroke-width="2" d="M79.5401,-159.876C89.166,-132.394 106.505,-82.8899 117.65,-51.0686"/>
<polygon fill="black" stroke="black" stroke-width="2" points="121.031,-52.0034 121.034,-41.4086 114.425,-49.6894 121.031,-52.0034"/>
</g>
<!-- 5&#45;&gt;4 -->
<g id="edge13" class="edge"><title>5&#45;&gt;4</title>
<path fill="none" stroke="black" stroke-width="2" d="M93.053,-174.062C104.751,-170.692 119.625,-166.406 132.654,-162.652"/>
<polygon fill="black" stroke="black" stroke-width="2" points="133.971,-165.915 142.611,-159.783 132.033,-159.189 133.971,-165.915"/>
</g>
<!-- 6&#45;&gt;1 -->
<g id="edge5" class="edge"><title>6&#45;&gt;1</title>
<path fill="none" stroke="black" stroke-width="2" d="M255.747,-109.163C256.371,-97.8067 257.146,-83.6756 257.835,-71.1208"/>
<polygon fill="black" stroke="black" stroke-width="2" points="261.335,-71.218 258.388,-61.0412 254.345,-70.8344 261.335,-71.218"/>
</g>
<!-- 6&#45;&gt;3 -->
<g id="edge11" class="edge"><title>6&#45;&gt;3</title>
<path fill="none" stroke="black" stroke-width="2" d="M243.639,-149.296C232.777,-167.716 215.991,-196.183 203.603,-217.191"/>
<polygon fill="black" stroke="black" stroke-width="2" points="200.49,-215.579 198.425,-225.971 206.52,-219.135 200.49,-215.579"/>
</g>
<!-- 6&#45;&gt;4 -->
<g id="edge14" class="edge"><title>6&#45;&gt;4</title>
<path fill="none" stroke="black" stroke-width="2" d="M233.804,-136.017C221.992,-139.002 206.972,-142.796 193.816,-146.12"/>
<polygon fill="black" stroke="black" stroke-width="2" points="192.599,-142.817 183.761,-148.66 194.314,-149.604 192.599,-142.817"/>
</g>
<!-- 7&#45;&gt;2 -->
<g id="edge9" class="edge"><title>7&#45;&gt;2</title>
<path fill="none" stroke="black" stroke-width="2" d="M143.476,-82.7001C141.139,-73.3499 138.332,-62.1201 135.76,-51.8306"/>
<polygon fill="black" stroke="black" stroke-width="2" points="139.113,-50.8118 133.293,-41.959 132.322,-52.5093 139.113,-50.8118"/>
</g>
<!-- 7&#45;&gt;3 -->
<g id="edge12" class="edge"><title>7&#45;&gt;3</title>
<path fill="none" stroke="black" stroke-width="2" d="M140.901,-123.728C138.21,-132.774 136.03,-143.627 136.783,-153.624 138.683,-178.86 153.691,-203.683 166.893,-220.99"/>
<polygon fill="black" stroke="black" stroke-width="2" points="164.192,-223.216 173.164,-228.851 169.664,-218.851 164.192,-223.216"/>
</g>
<!-- 7&#45;&gt;5 -->
<g id="edge15" class="edge"><title>7&#45;&gt;5</title>
<path fill="none" stroke="black" stroke-width="2" d="M133.615,-118.573C122.557,-129.684 107.349,-144.965 94.8696,-157.505"/>
<polygon fill="black" stroke="black" stroke-width="2" points="92.087,-155.339 87.5137,-164.896 97.0486,-160.277 92.087,-155.339"/>
</g>
<!-- 7&#45;&gt;6 -->
<g id="edge16" class="edge"><title>7&#45;&gt;6</title>
<path fill="none" stroke="black" stroke-width="2" d="M169.333,-108.785C184.931,-112.809 206.573,-118.392 224.145,-122.926"/>
<polygon fill="black" stroke="black" stroke-width="2" points="223.387,-126.345 233.944,-125.454 225.136,-119.567 223.387,-126.345"/>
</g>
</g>
</svg>

