<?xml version="1.0" encoding="UTF-8" standalone="no"?>
<!DOCTYPE svg PUBLIC "-//W3C//DTD SVG 1.1//EN"
 "http://www.w3.org/Graphics/SVG/1.1/DTD/svg11.dtd">
<!-- Generated by graphviz version 2.36.0 (20140111.2315)
 -->
<!-- Title: G Pages: 1 -->
<svg width="100%" height="100%"
 viewBox="0.00 0.00 337.17 318.69" xmlns="http://www.w3.org/2000/svg" xmlns:xlink="http://www.w3.org/1999/xlink">
<g id="graph0" class="graph" transform="scale(1 1) rotate(0) translate(4 314.686)">
<title>G</title>
<!-- 0 -->
<g id="node1" class="node"><title>0</title>
<ellipse fill="cadetblue" stroke="black" cx="95.9616" cy="-21.2132" rx="21.4286" ry="21.4286"/>
<text text-anchor="middle" x="95.9616" y="-16.2132" font-family="Times New Roman,serif" font-size="20.00">2</text>
</g>
<!-- 4 -->
<g id="node5" class="node"><title>4</title>
<ellipse fill="cadetblue" stroke="black" cx="34.6248" cy="-183.096" rx="21.4286" ry="21.4286"/>
<text text-anchor="middle" x="34.6248" y="-178.096" font-family="Times New Roman,serif" font-size="20.00">2</text>
</g>
<!-- 0&#45;&gt;4 -->
<g id="edge1" class="edge"><title>0&#45;&gt;4</title>
<path fill="none" stroke="black" stroke-width="2" d="M88.4405,-41.0632C77.7719,-69.2201 58.1688,-120.958 45.7969,-153.61"/>
<polygon fill="black" stroke="black" stroke-width="2" points="42.4777,-152.492 42.2074,-163.084 49.0235,-154.973 42.4777,-152.492"/>
</g>
<!-- 7 -->
<g id="node8" class="node"><title>7</title>
<ellipse fill="brown" stroke="black" cx="188.743" cy="-80.8679" rx="21.4286" ry="21.4286"/>
<text text-anchor="middle" x="188.743" y="-75.8679" font-family="Times New Roman,serif" font-size="20.00">3</text>
</g>
<!-- 0&#45;&gt;7 -->
<g id="edge4" class="edge"><title>0&#45;&gt;7</title>
<path fill="none" stroke="black" stroke-width="2" d="M113.851,-32.7152C127.497,-41.489 146.514,-53.7167 161.971,-63.6545"/>
<polygon fill="black" stroke="black" stroke-width="2" points="160.288,-66.7334 170.592,-69.1976 164.073,-60.8454 160.288,-66.7334"/>
</g>
<!-- 1 -->
<g id="node2" class="node"><title>1</title>
<ellipse fill="cadetblue" stroke="black" cx="158.066" cy="-289.472" rx="21.4286" ry="21.4286"/>
<text text-anchor="middle" x="158.066" y="-284.472" font-family="Times New Roman,serif" font-size="20.00">2</text>
</g>
<!-- 5 -->
<g id="node6" class="node"><title>5</title>
<ellipse fill="cadetblue" stroke="black" cx="122.449" cy="-188.923" rx="21.4286" ry="21.4286"/>
<text text-anchor="middle" x="122.449" y="-183.923" font-family="Times New Roman,serif" font-size="20.00">2</text>
</g>
<!-- 1&#45;&gt;5 -->
<g id="edge6" class="edge"><title>1&#45;&gt;5</title>
<path fill="none" stroke="black" stroke-width="2" d="M150.858,-269.125C145.741,-254.678 138.787,-235.048 133.041,-218.824"/>
<polygon fill="black" stroke="black" stroke-width="2" points="136.284,-217.498 129.646,-209.24 129.685,-219.835 136.284,-217.498"/>
</g>
<!-- 1&#45;&gt;7 -->
<g id="edge8" class="edge"><title>1&#45;&gt;7</title>
<path fill="none" stroke="black" stroke-width="2" d="M166.965,-270.204C177.994,-244.826 195.759,-198.508 199.184,-156.644 200.401,-141.772 198.538,-125.358 196.065,-111.62"/>
<polygon fill="black" stroke="black" stroke-width="2" points="199.477,-110.832 194.095,-101.706 192.611,-112.196 199.477,-110.832"/>
</g>
<!-- 2 -->
<g id="node3" class="node"><title>2</title>
<ellipse fill="brown" stroke="black" cx="21.2132" cy="-76.5504" rx="21.4286" ry="21.4286"/>
<text text-anchor="middle" x="21.2132" y="-71.5504" font-family="Times New Roman,serif" font-size="20.00">3</text>
</g>
<!-- 2&#45;&gt;5 -->
<g id="edge10" class="edge"><title>2&#45;&gt;5</title>
<path fill="none" stroke="black" stroke-width="2" d="M35.7178,-92.6506C52.8577,-111.676 81.5248,-143.497 101.177,-165.311"/>
<polygon fill="black" stroke="black" stroke-width="2" points="98.6773,-167.765 107.971,-172.852 103.878,-163.08 98.6773,-167.765"/>
</g>
<!-- 3 -->
<g id="node4" class="node"><title>3</title>
<ellipse fill="cadetblue" stroke="black" cx="307.958" cy="-158.061" rx="21.4286" ry="21.4286"/>
<text text-anchor="middle" x="307.958" y="-153.061" font-family="Times New Roman,serif" font-size="20.00">2</text>
</g>
<!-- 6 -->
<g id="node7" class="node"><title>6</title>
<ellipse fill="cadetblue" stroke="black" cx="172.88" cy="-156.613" rx="21.4286" ry="21.4286"/>
<text text-anchor="middle" x="172.88" y="-151.613" font-family="Times New Roman,serif" font-size="20.00">2</text>
</g>
<!-- 3&#45;&gt;6 -->
<g id="edge14" class="edge"><title>3&#45;&gt;6</title>
<path fill="none" stroke="black" stroke-width="2" d="M286.555,-157.832C264.423,-157.594 229.632,-157.221 204.364,-156.95"/>
<polygon fill="black" stroke="black" stroke-width="2" points="204.22,-153.449 194.183,-156.841 204.145,-160.448 204.22,-153.449"/>
</g>
<!-- 4&#45;&gt;1 -->
<g id="edge5" class="edge"><title>4&#45;&gt;1</title>
<path fill="none" stroke="black" stroke-width="2" d="M50.7625,-197.003C72.0172,-215.319 109.567,-247.678 134.133,-268.848"/>
<polygon fill="black" stroke="black" stroke-width="2" points="132.064,-271.685 141.924,-275.562 136.634,-266.383 132.064,-271.685"/>
</g>
<!-- 4&#45;&gt;2 -->
<g id="edge9" class="edge"><title>4&#45;&gt;2</title>
<path fill="none" stroke="black" stroke-width="2" d="M31.9751,-162.046C30.0406,-146.678 27.3848,-125.579 25.1955,-108.187"/>
<polygon fill="black" stroke="black" stroke-width="2" points="28.6249,-107.406 23.9033,-97.9213 21.6797,-108.28 28.6249,-107.406"/>
</g>
<!-- 4&#45;&gt;6 -->
<g id="edge16" class="edge"><title>4&#45;&gt;6</title>
<path fill="none" stroke="black" stroke-width="2" d="M55.4587,-177.562C73.1945,-173.016 99.4061,-166.685 122.566,-162.619 128.672,-161.547 135.229,-160.61 141.525,-159.815"/>
<polygon fill="black" stroke="black" stroke-width="2" points="142.229,-163.256 151.752,-158.612 141.411,-156.304 142.229,-163.256"/>
</g>
<!-- 5&#45;&gt;0 -->
<g id="edge2" class="edge"><title>5&#45;&gt;0</title>
<path fill="none" stroke="black" stroke-width="2" d="M119.094,-167.682C114.497,-138.573 106.206,-86.0752 100.899,-52.4734"/>
<polygon fill="black" stroke="black" stroke-width="2" points="104.306,-51.6128 99.289,-42.2813 97.3919,-52.7049 104.306,-51.6128"/>
</g>
<!-- 5&#45;&gt;3 -->
<g id="edge13" class="edge"><title>5&#45;&gt;3</title>
<path fill="none" stroke="black" stroke-width="2" d="M143.578,-186.706C152.612,-185.681 163.265,-184.368 172.849,-182.917 208.656,-177.495 249.519,-169.761 276.843,-164.364"/>
<polygon fill="black" stroke="black" stroke-width="2" points="277.841,-167.735 286.965,-162.35 276.474,-160.869 277.841,-167.735"/>
</g>
<!-- 6&#45;&gt;0 -->
<g id="edge3" class="edge"><title>6&#45;&gt;0</title>
<path fill="none" stroke="black" stroke-width="2" d="M162.346,-138.07C149.244,-115.005 126.759,-75.4252 111.631,-48.7969"/>
<polygon fill="black" stroke="black" stroke-width="2" points="114.598,-46.9327 106.615,-39.9666 108.511,-50.3903 114.598,-46.9327"/>
</g>
<!-- 6&#45;&gt;1 -->
<g id="edge7" class="edge"><title>6&#45;&gt;1</title>
<path fill="none" stroke="black" stroke-width="2" d="M170.5,-177.959C168.081,-199.653 164.308,-233.492 161.552,-258.208"/>
<polygon fill="black" stroke="black" stroke-width="2" points="158.07,-257.853 160.44,-268.179 165.027,-258.629 158.07,-257.853"/>
</g>
<!-- 6&#45;&gt;2 -->
<g id="edge11" class="edge"><title>6&#45;&gt;2</title>
<path fill="none" stroke="black" stroke-width="2" d="M153.978,-146.635C127.639,-132.731 79.7077,-107.429 49.214,-91.3315"/>
<polygon fill="black" stroke="black" stroke-width="2" points="50.8309,-88.2273 40.3535,-86.6542 47.563,-94.4178 50.8309,-88.2273"/>
</g>
<!-- 6&#45;&gt;7 -->
<g id="edge18" class="edge"><title>6&#45;&gt;7</title>
<path fill="none" stroke="black" stroke-width="2" d="M177.299,-135.513C178.846,-128.127 180.616,-119.673 182.295,-111.658"/>
<polygon fill="black" stroke="black" stroke-width="2" points="185.724,-112.359 184.348,-101.854 178.872,-110.924 185.724,-112.359"/>
</g>
<!-- 7&#45;&gt;2 -->
<g id="edge12" class="edge"><title>7&#45;&gt;2</title>
<path fill="none" stroke="black" stroke-width="2" d="M167.525,-80.3211C138.526,-79.5737 86.292,-78.2276 52.7154,-77.3623"/>
<polygon fill="black" stroke="black" stroke-width="2" points="52.6095,-73.8585 42.5226,-77.0996 52.4291,-80.8561 52.6095,-73.8585"/>
</g>
<!-- 7&#45;&gt;3 -->
<g id="edge15" class="edge"><title>7&#45;&gt;3</title>
<path fill="none" stroke="black" stroke-width="2" d="M206.59,-92.4245C226.431,-105.272 258.677,-126.151 281.465,-140.906"/>
<polygon fill="black" stroke="black" stroke-width="2" points="279.692,-143.928 289.988,-146.426 283.497,-138.052 279.692,-143.928"/>
</g>
<!-- 7&#45;&gt;4 -->
<g id="edge17" class="edge"><title>7&#45;&gt;4</title>
<path fill="none" stroke="black" stroke-width="2" d="M171.063,-92.5948C144.149,-110.447 92.7148,-144.564 61.2605,-165.428"/>
<polygon fill="black" stroke="black" stroke-width="2" points="58.9713,-162.747 52.5726,-171.191 62.8407,-168.58 58.9713,-162.747"/>
</g>
</g>
</svg>

