<?xml version="1.0" encoding="UTF-8" standalone="no"?>
<!DOCTYPE svg PUBLIC "-//W3C//DTD SVG 1.1//EN"
 "http://www.w3.org/Graphics/SVG/1.1/DTD/svg11.dtd">
<!-- Generated by graphviz version 2.36.0 (20140111.2315)
 -->
<!-- Title: G Pages: 1 -->
<svg width="100%" height="100%"
 viewBox="0.00 0.00 340.99 344.89" xmlns="http://www.w3.org/2000/svg" xmlns:xlink="http://www.w3.org/1999/xlink">
<g id="graph0" class="graph" transform="scale(1 1) rotate(0) translate(4 340.891)">
<title>G</title>
<!-- 0 -->
<g id="node1" class="node"><title>0</title>
<ellipse fill="cadetblue" stroke="black" cx="159.738" cy="-21.2132" rx="21.4286" ry="21.4286"/>
<text text-anchor="middle" x="159.738" y="-16.2132" font-family="Times New Roman,serif" font-size="20.00">2</text>
</g>
<!-- 6 -->
<g id="node7" class="node"><title>6</title>
<ellipse fill="cadetblue" stroke="black" cx="155.187" cy="-174.645" rx="21.4286" ry="21.4286"/>
<text text-anchor="middle" x="155.187" y="-169.645" font-family="Times New Roman,serif" font-size="20.00">2</text>
</g>
<!-- 0&#45;&gt;6 -->
<g id="edge3" class="edge"><title>0&#45;&gt;6</title>
<path fill="none" stroke="black" stroke-width="2" d="M159.105,-42.5472C158.335,-68.5079 157.028,-112.586 156.136,-142.625"/>
<polygon fill="black" stroke="black" stroke-width="2" points="152.627,-142.898 155.829,-152.997 159.624,-143.105 152.627,-142.898"/>
</g>
<!-- 7 -->
<g id="node8" class="node"><title>7</title>
<ellipse fill="brown" stroke="black" cx="205.286" cy="-124.213" rx="21.4286" ry="21.4286"/>
<text text-anchor="middle" x="205.286" y="-119.213" font-family="Times New Roman,serif" font-size="20.00">3</text>
</g>
<!-- 0&#45;&gt;7 -->
<g id="edge4" class="edge"><title>0&#45;&gt;7</title>
<path fill="none" stroke="black" stroke-width="2" d="M168.52,-41.0727C175.306,-56.417 184.797,-77.8798 192.436,-95.1547"/>
<polygon fill="black" stroke="black" stroke-width="2" points="189.44,-97.0339 196.685,-104.764 195.842,-94.2029 189.44,-97.0339"/>
</g>
<!-- 1 -->
<g id="node2" class="node"><title>1</title>
<ellipse fill="cadetblue" stroke="black" cx="274.004" cy="-237.592" rx="21.4286" ry="21.4286"/>
<text text-anchor="middle" x="274.004" y="-232.592" font-family="Times New Roman,serif" font-size="20.00">2</text>
</g>
<!-- 1&#45;&gt;6 -->
<g id="edge7" class="edge"><title>1&#45;&gt;6</title>
<path fill="none" stroke="black" stroke-width="2" d="M255.177,-227.618C235.824,-217.365 205.466,-201.282 183.274,-189.525"/>
<polygon fill="black" stroke="black" stroke-width="2" points="184.794,-186.369 174.319,-184.781 181.517,-192.555 184.794,-186.369"/>
</g>
<!-- 1&#45;&gt;7 -->
<g id="edge8" class="edge"><title>1&#45;&gt;7</title>
<path fill="none" stroke="black" stroke-width="2" d="M262.963,-219.375C251.793,-200.945 234.396,-172.243 221.628,-151.177"/>
<polygon fill="black" stroke="black" stroke-width="2" points="224.475,-149.122 216.299,-142.384 218.489,-152.75 224.475,-149.122"/>
</g>
<!-- 2 -->
<g id="node3" class="node"><title>2</title>
<ellipse fill="cadetblue" stroke="black" cx="21.2132" cy="-85.6267" rx="21.4286" ry="21.4286"/>
<text text-anchor="middle" x="21.2132" y="-80.6267" font-family="Times New Roman,serif" font-size="20.00">2</text>
</g>
<!-- 5 -->
<g id="node6" class="node"><title>5</title>
<ellipse fill="cadetblue" stroke="black" cx="66.2303" cy="-205.006" rx="21.4286" ry="21.4286"/>
<text text-anchor="middle" x="66.2303" y="-200.006" font-family="Times New Roman,serif" font-size="20.00">2</text>
</g>
<!-- 2&#45;&gt;5 -->
<g id="edge9" class="edge"><title>2&#45;&gt;5</title>
<path fill="none" stroke="black" stroke-width="2" d="M28.7481,-105.608C35.9543,-124.718 46.9081,-153.766 55.1161,-175.533"/>
<polygon fill="black" stroke="black" stroke-width="2" points="51.8675,-176.838 58.6709,-184.959 58.4173,-174.368 51.8675,-176.838"/>
</g>
<!-- 3 -->
<g id="node4" class="node"><title>3</title>
<ellipse fill="cadetblue" stroke="black" cx="136.176" cy="-315.678" rx="21.4286" ry="21.4286"/>
<text text-anchor="middle" x="136.176" y="-310.678" font-family="Times New Roman,serif" font-size="20.00">2</text>
</g>
<!-- 3&#45;&gt;5 -->
<g id="edge12" class="edge"><title>3&#45;&gt;5</title>
<path fill="none" stroke="black" stroke-width="2" d="M124.626,-297.403C113.269,-279.433 95.8136,-251.814 82.9434,-231.45"/>
<polygon fill="black" stroke="black" stroke-width="2" points="85.8667,-229.525 77.5655,-222.941 79.9495,-233.264 85.8667,-229.525"/>
</g>
<!-- 4 -->
<g id="node5" class="node"><title>4</title>
<ellipse fill="cadetblue" stroke="black" cx="311.778" cy="-85.7719" rx="21.4286" ry="21.4286"/>
<text text-anchor="middle" x="311.778" y="-80.7719" font-family="Times New Roman,serif" font-size="20.00">2</text>
</g>
<!-- 4&#45;&gt;0 -->
<g id="edge1" class="edge"><title>4&#45;&gt;0</title>
<path fill="none" stroke="black" stroke-width="2" d="M292.213,-77.4642C266.015,-66.3401 219.324,-46.5144 188.952,-33.618"/>
<polygon fill="black" stroke="black" stroke-width="2" points="190.284,-30.381 179.711,-29.6941 187.548,-36.8242 190.284,-30.381"/>
</g>
<!-- 4&#45;&gt;1 -->
<g id="edge5" class="edge"><title>4&#45;&gt;1</title>
<path fill="none" stroke="black" stroke-width="2" d="M306.605,-106.563C300.17,-132.425 289.128,-176.805 281.7,-206.663"/>
<polygon fill="black" stroke="black" stroke-width="2" points="278.254,-206.015 279.236,-216.564 285.047,-207.705 278.254,-206.015"/>
</g>
<!-- 5&#45;&gt;0 -->
<g id="edge2" class="edge"><title>5&#45;&gt;0</title>
<path fill="none" stroke="black" stroke-width="2" d="M75.8851,-186.029C92.4036,-153.562 126.166,-87.2016 145.43,-49.3368"/>
<polygon fill="black" stroke="black" stroke-width="2" points="148.581,-50.8621 149.996,-40.3621 142.342,-47.6878 148.581,-50.8621"/>
</g>
<!-- 5&#45;&gt;1 -->
<g id="edge6" class="edge"><title>5&#45;&gt;1</title>
<path fill="none" stroke="black" stroke-width="2" d="M87.2962,-208.31C124.008,-214.067 199.876,-225.966 242.74,-232.688"/>
<polygon fill="black" stroke="black" stroke-width="2" points="242.461,-236.187 252.883,-234.279 243.546,-229.272 242.461,-236.187"/>
</g>
<!-- 6&#45;&gt;2 -->
<g id="edge10" class="edge"><title>6&#45;&gt;2</title>
<path fill="none" stroke="black" stroke-width="2" d="M137.396,-162.824C114.374,-147.527 74.0746,-120.75 47.5136,-103.102"/>
<polygon fill="black" stroke="black" stroke-width="2" points="49.3434,-100.116 39.0774,-97.4965 45.4695,-105.946 49.3434,-100.116"/>
</g>
<!-- 6&#45;&gt;3 -->
<g id="edge13" class="edge"><title>6&#45;&gt;3</title>
<path fill="none" stroke="black" stroke-width="2" d="M152.341,-195.759C149.177,-219.231 144.035,-257.378 140.401,-284.336"/>
<polygon fill="black" stroke="black" stroke-width="2" points="136.909,-284.042 139.042,-294.42 143.846,-284.977 136.909,-284.042"/>
</g>
<!-- 6&#45;&gt;4 -->
<g id="edge15" class="edge"><title>6&#45;&gt;4</title>
<path fill="none" stroke="black" stroke-width="2" d="M174.798,-166.443C188.742,-160.399 207.777,-151.714 223.885,-142.814 245.443,-130.902 268.784,-115.634 285.991,-103.892"/>
<polygon fill="black" stroke="black" stroke-width="2" points="288.137,-106.664 294.388,-98.1096 284.167,-100.899 288.137,-106.664"/>
</g>
<!-- 6&#45;&gt;7 -->
<g id="edge17" class="edge"><title>6&#45;&gt;7</title>
<path fill="none" stroke="black" stroke-width="2" d="M170.218,-159.514C174.28,-155.425 178.763,-150.912 183.127,-146.519"/>
<polygon fill="black" stroke="black" stroke-width="2" points="185.7,-148.895 190.265,-139.334 180.734,-143.961 185.7,-148.895"/>
</g>
<!-- 7&#45;&gt;2 -->
<g id="edge11" class="edge"><title>7&#45;&gt;2</title>
<path fill="none" stroke="black" stroke-width="2" d="M184.17,-119.787C151.715,-112.983 89.4038,-99.9213 51.9436,-92.0687"/>
<polygon fill="black" stroke="black" stroke-width="2" points="52.5878,-88.6277 42.0824,-90.0015 51.1515,-95.4788 52.5878,-88.6277"/>
</g>
<!-- 7&#45;&gt;3 -->
<g id="edge14" class="edge"><title>7&#45;&gt;3</title>
<path fill="none" stroke="black" stroke-width="2" d="M198.02,-144.341C185.81,-178.169 161.119,-246.575 146.906,-285.951"/>
<polygon fill="black" stroke="black" stroke-width="2" points="143.551,-284.938 143.448,-295.532 150.135,-287.314 143.551,-284.938"/>
</g>
<!-- 7&#45;&gt;4 -->
<g id="edge16" class="edge"><title>7&#45;&gt;4</title>
<path fill="none" stroke="black" stroke-width="2" d="M225.316,-116.983C241.279,-111.221 263.873,-103.065 281.961,-96.5353"/>
<polygon fill="black" stroke="black" stroke-width="2" points="283.258,-99.7882 291.475,-93.1007 280.881,-93.204 283.258,-99.7882"/>
</g>
</g>
</svg>

