<?xml version="1.0" encoding="UTF-8" standalone="no"?>
<!DOCTYPE svg PUBLIC "-//W3C//DTD SVG 1.1//EN"
 "http://www.w3.org/Graphics/SVG/1.1/DTD/svg11.dtd">
<!-- Generated by graphviz version 2.36.0 (20140111.2315)
 -->
<!-- Title: G Pages: 1 -->
<svg width="100%" height="100%"
 viewBox="0.00 0.00 400.69 404.49" xmlns="http://www.w3.org/2000/svg" xmlns:xlink="http://www.w3.org/1999/xlink">
<g id="graph0" class="graph" transform="scale(1 1) rotate(0) translate(4 400.488)">
<title>G</title>
<!-- 0 -->
<g id="node1" class="node"><title>0</title>
<ellipse fill="cadetblue" stroke="black" cx="195.075" cy="-21.2132" rx="21.4286" ry="21.4286"/>
<text text-anchor="middle" x="195.075" y="-16.2132" font-family="Times New Roman,serif" font-size="20.00">2</text>
</g>
<!-- 6 -->
<g id="node7" class="node"><title>6</title>
<ellipse fill="cadetblue" stroke="black" cx="186.122" cy="-197.861" rx="21.4286" ry="21.4286"/>
<text text-anchor="middle" x="186.122" y="-192.861" font-family="Times New Roman,serif" font-size="20.00">2</text>
</g>
<!-- 0&#45;&gt;6 -->
<g id="edge3" class="edge"><title>0&#45;&gt;6</title>
<path fill="none" stroke="black" stroke-width="2" d="M193.995,-42.5211C192.436,-73.2906 189.542,-130.384 187.73,-166.124"/>
<polygon fill="black" stroke="black" stroke-width="2" points="184.216,-166.313 187.206,-176.478 191.207,-166.668 184.216,-166.313"/>
</g>
<!-- 7 -->
<g id="node8" class="node"><title>7</title>
<ellipse fill="cadetblue" stroke="black" cx="236.553" cy="-157.014" rx="21.4286" ry="21.4286"/>
<text text-anchor="middle" x="236.553" y="-152.014" font-family="Times New Roman,serif" font-size="20.00">2</text>
</g>
<!-- 0&#45;&gt;7 -->
<g id="edge4" class="edge"><title>0&#45;&gt;7</title>
<path fill="none" stroke="black" stroke-width="2" d="M201.285,-41.544C208.188,-64.1451 219.407,-100.877 227.336,-126.835"/>
<polygon fill="black" stroke="black" stroke-width="2" points="224.033,-128.003 230.301,-136.544 230.727,-125.958 224.033,-128.003"/>
</g>
<!-- 1 -->
<g id="node2" class="node"><title>1</title>
<ellipse fill="cadetblue" stroke="black" cx="322.579" cy="-287.374" rx="21.4286" ry="21.4286"/>
<text text-anchor="middle" x="322.579" y="-282.374" font-family="Times New Roman,serif" font-size="20.00">2</text>
</g>
<!-- 1&#45;&gt;6 -->
<g id="edge7" class="edge"><title>1&#45;&gt;6</title>
<path fill="none" stroke="black" stroke-width="2" d="M304.739,-275.672C281.243,-260.259 239.735,-233.03 212.578,-215.216"/>
<polygon fill="black" stroke="black" stroke-width="2" points="214.247,-212.125 203.966,-209.566 210.407,-217.978 214.247,-212.125"/>
</g>
<!-- 1&#45;&gt;7 -->
<g id="edge8" class="edge"><title>1&#45;&gt;7</title>
<path fill="none" stroke="black" stroke-width="2" d="M310.797,-269.522C296.144,-247.316 270.997,-209.209 254.078,-183.571"/>
<polygon fill="black" stroke="black" stroke-width="2" points="256.897,-181.488 248.468,-175.07 251.055,-185.344 256.897,-181.488"/>
</g>
<!-- 2 -->
<g id="node3" class="node"><title>2</title>
<ellipse fill="cadetblue" stroke="black" cx="21.2132" cy="-97.0993" rx="21.4286" ry="21.4286"/>
<text text-anchor="middle" x="21.2132" y="-92.0993" font-family="Times New Roman,serif" font-size="20.00">2</text>
</g>
<!-- 5 -->
<g id="node6" class="node"><title>5</title>
<ellipse fill="cadetblue" stroke="black" cx="75.0284" cy="-240.418" rx="21.4286" ry="21.4286"/>
<text text-anchor="middle" x="75.0284" y="-235.418" font-family="Times New Roman,serif" font-size="20.00">2</text>
</g>
<!-- 2&#45;&gt;5 -->
<g id="edge9" class="edge"><title>2&#45;&gt;5</title>
<path fill="none" stroke="black" stroke-width="2" d="M28.696,-117.027C37.8015,-141.277 53.2617,-182.45 63.7977,-210.509"/>
<polygon fill="black" stroke="black" stroke-width="2" points="60.6437,-212.066 67.4357,-220.198 67.1969,-209.606 60.6437,-212.066"/>
</g>
<!-- 3 -->
<g id="node4" class="node"><title>3</title>
<ellipse fill="cadetblue" stroke="black" cx="151.366" cy="-375.275" rx="21.4286" ry="21.4286"/>
<text text-anchor="middle" x="151.366" y="-370.275" font-family="Times New Roman,serif" font-size="20.00">2</text>
</g>
<!-- 3&#45;&gt;5 -->
<g id="edge12" class="edge"><title>3&#45;&gt;5</title>
<path fill="none" stroke="black" stroke-width="2" d="M140.912,-356.806C127.908,-333.834 105.593,-294.413 90.58,-267.891"/>
<polygon fill="black" stroke="black" stroke-width="2" points="93.5736,-266.075 85.6015,-259.096 87.4818,-269.523 93.5736,-266.075"/>
</g>
<!-- 4 -->
<g id="node5" class="node"><title>4</title>
<ellipse fill="cadetblue" stroke="black" cx="371.473" cy="-103.933" rx="21.4286" ry="21.4286"/>
<text text-anchor="middle" x="371.473" y="-98.9325" font-family="Times New Roman,serif" font-size="20.00">2</text>
</g>
<!-- 4&#45;&gt;0 -->
<g id="edge1" class="edge"><title>4&#45;&gt;0</title>
<path fill="none" stroke="black" stroke-width="2" d="M352.26,-94.9227C321.193,-80.3546 259.769,-51.5505 223.588,-34.5841"/>
<polygon fill="black" stroke="black" stroke-width="2" points="225.073,-31.4148 214.533,-30.3379 222.101,-37.7525 225.073,-31.4148"/>
</g>
<!-- 4&#45;&gt;1 -->
<g id="edge5" class="edge"><title>4&#45;&gt;1</title>
<path fill="none" stroke="black" stroke-width="2" d="M365.959,-124.619C357.353,-156.908 340.68,-219.461 330.698,-256.912"/>
<polygon fill="black" stroke="black" stroke-width="2" points="327.266,-256.199 328.072,-266.764 334.03,-258.002 327.266,-256.199"/>
</g>
<!-- 5&#45;&gt;0 -->
<g id="edge2" class="edge"><title>5&#45;&gt;0</title>
<path fill="none" stroke="black" stroke-width="2" d="M85.2635,-221.729C106.438,-183.065 155.142,-94.1313 179.953,-48.8267"/>
<polygon fill="black" stroke="black" stroke-width="2" points="183.132,-50.3073 184.866,-39.8552 176.993,-46.9449 183.132,-50.3073"/>
</g>
<!-- 5&#45;&gt;1 -->
<g id="edge6" class="edge"><title>5&#45;&gt;1</title>
<path fill="none" stroke="black" stroke-width="2" d="M96.1343,-244.422C139.798,-252.704 240.232,-271.755 291.394,-281.459"/>
<polygon fill="black" stroke="black" stroke-width="2" points="291.049,-284.956 301.526,-283.381 292.353,-278.079 291.049,-284.956"/>
</g>
<!-- 6&#45;&gt;2 -->
<g id="edge10" class="edge"><title>6&#45;&gt;2</title>
<path fill="none" stroke="black" stroke-width="2" d="M167.844,-186.693C138.792,-168.942 81.9248,-134.195 48.1832,-113.578"/>
<polygon fill="black" stroke="black" stroke-width="2" points="49.68,-110.391 39.3219,-108.164 46.0302,-116.365 49.68,-110.391"/>
</g>
<!-- 6&#45;&gt;3 -->
<g id="edge13" class="edge"><title>6&#45;&gt;3</title>
<path fill="none" stroke="black" stroke-width="2" d="M181.998,-218.91C175.91,-249.987 164.479,-308.34 157.433,-344.305"/>
<polygon fill="black" stroke="black" stroke-width="2" points="153.972,-343.767 155.484,-354.254 160.842,-345.113 153.972,-343.767"/>
</g>
<!-- 6&#45;&gt;4 -->
<g id="edge15" class="edge"><title>6&#45;&gt;4</title>
<path fill="none" stroke="black" stroke-width="2" d="M206.897,-192.434C216.063,-189.895 226.92,-186.69 236.552,-183.319 277.575,-168.959 319.996,-141.56 346.06,-123.017"/>
<polygon fill="black" stroke="black" stroke-width="2" points="348.192,-125.795 354.246,-117.1 344.091,-120.121 348.192,-125.795"/>
</g>
<!-- 7&#45;&gt;2 -->
<g id="edge11" class="edge"><title>7&#45;&gt;2</title>
<path fill="none" stroke="black" stroke-width="2" d="M215.906,-151.269C177.72,-140.645 95.9161,-117.884 51.4672,-105.517"/>
<polygon fill="black" stroke="black" stroke-width="2" points="52.3707,-102.135 41.7984,-102.827 50.4942,-108.879 52.3707,-102.135"/>
</g>
<!-- 7&#45;&gt;3 -->
<g id="edge14" class="edge"><title>7&#45;&gt;3</title>
<path fill="none" stroke="black" stroke-width="2" d="M228.692,-177.156C213.566,-215.91 180.359,-300.991 162.789,-346.007"/>
<polygon fill="black" stroke="black" stroke-width="2" points="159.461,-344.908 159.086,-355.496 165.982,-347.453 159.461,-344.908"/>
</g>
<!-- 7&#45;&gt;4 -->
<g id="edge16" class="edge"><title>7&#45;&gt;4</title>
<path fill="none" stroke="black" stroke-width="2" d="M256.461,-149.182C279.08,-140.283 316.211,-125.674 342.146,-115.471"/>
<polygon fill="black" stroke="black" stroke-width="2" points="343.459,-118.715 351.484,-111.797 340.896,-112.201 343.459,-118.715"/>
</g>
</g>
</svg>

