<?xml version="1.0" encoding="UTF-8" standalone="no"?>
<!DOCTYPE svg PUBLIC "-//W3C//DTD SVG 1.1//EN"
 "http://www.w3.org/Graphics/SVG/1.1/DTD/svg11.dtd">
<!-- Generated by graphviz version 2.36.0 (20140111.2315)
 -->
<!-- Title: G Pages: 1 -->
<svg width="100%" height="100%"
 viewBox="0.00 0.00 293.25 206.69" xmlns="http://www.w3.org/2000/svg" xmlns:xlink="http://www.w3.org/1999/xlink">
<g id="graph0" class="graph" transform="scale(1 1) rotate(0) translate(4 202.693)">
<title>G</title>
<!-- 0 -->
<g id="node1" class="node"><title>0</title>
<ellipse fill="cadetblue" stroke="black" cx="33.2939" cy="-21.2132" rx="21.4286" ry="21.4286"/>
<text text-anchor="middle" x="33.2939" y="-16.2132" font-family="Times New Roman,serif" font-size="20.00">2</text>
</g>
<!-- 6 -->
<g id="node7" class="node"><title>6</title>
<ellipse fill="dodgerblue" stroke="black" cx="174.61" cy="-51.5807" rx="21.4286" ry="21.4286"/>
<text text-anchor="middle" x="174.61" y="-46.5807" font-family="Times New Roman,serif" font-size="20.00">4</text>
</g>
<!-- 0&#45;&gt;6 -->
<g id="edge3" class="edge"><title>0&#45;&gt;6</title>
<path fill="none" stroke="black" stroke-width="2" d="M53.0955,-29.3975C71.2353,-36.4513 99.0123,-46.1488 124.177,-50.3936 130.263,-51.4201 136.82,-51.9714 143.127,-52.2314"/>
<polygon fill="black" stroke="black" stroke-width="2" points="143.314,-55.7355 153.379,-52.4263 143.447,-48.7368 143.314,-55.7355"/>
</g>
<!-- 7 -->
<g id="node8" class="node"><title>7</title>
<ellipse fill="turquoise" stroke="black" cx="124.178" cy="-24.0892" rx="21.4286" ry="21.4286"/>
<text text-anchor="middle" x="124.178" y="-19.0892" font-family="Times New Roman,serif" font-size="20.00">5</text>
</g>
<!-- 0&#45;&gt;7 -->
<g id="edge4" class="edge"><title>0&#45;&gt;7</title>
<path fill="none" stroke="black" stroke-width="2" d="M54.8323,-21.8948C66.1508,-22.2529 80.2352,-22.6986 92.7484,-23.0946"/>
<polygon fill="black" stroke="black" stroke-width="2" points="92.689,-26.5944 102.795,-23.4125 92.9104,-19.5979 92.689,-26.5944"/>
</g>
<!-- 1 -->
<g id="node2" class="node"><title>1</title>
<ellipse fill="cadetblue" stroke="black" cx="21.2132" cy="-129.628" rx="21.4286" ry="21.4286"/>
<text text-anchor="middle" x="21.2132" y="-124.628" font-family="Times New Roman,serif" font-size="20.00">2</text>
</g>
<!-- 1&#45;&gt;6 -->
<g id="edge7" class="edge"><title>1&#45;&gt;6</title>
<path fill="none" stroke="black" stroke-width="2" d="M40.3308,-119.901C66.9699,-106.348 115.448,-81.6819 146.29,-65.9899"/>
<polygon fill="black" stroke="black" stroke-width="2" points="147.926,-69.0845 155.251,-61.4302 144.751,-62.8456 147.926,-69.0845"/>
</g>
<!-- 1&#45;&gt;7 -->
<g id="edge8" class="edge"><title>1&#45;&gt;7</title>
<path fill="none" stroke="black" stroke-width="2" d="M36.4061,-114.056C53.7673,-96.2605 82.331,-66.9827 102.137,-46.6812"/>
<polygon fill="black" stroke="black" stroke-width="2" points="104.78,-48.9846 109.258,-39.3826 99.7695,-44.0963 104.78,-48.9846"/>
</g>
<!-- 2 -->
<g id="node3" class="node"><title>2</title>
<ellipse fill="cadetblue" stroke="black" cx="264.034" cy="-33.6014" rx="21.4286" ry="21.4286"/>
<text text-anchor="middle" x="264.034" y="-28.6014" font-family="Times New Roman,serif" font-size="20.00">2</text>
</g>
<!-- 2&#45;&gt;6 -->
<g id="edge11" class="edge"><title>2&#45;&gt;6</title>
<path fill="none" stroke="black" stroke-width="2" d="M242.842,-37.8623C231.705,-40.1014 217.847,-42.8876 205.535,-45.363"/>
<polygon fill="black" stroke="black" stroke-width="2" points="204.764,-41.9479 195.65,-47.3504 206.144,-48.8106 204.764,-41.9479"/>
</g>
<!-- 2&#45;&gt;7 -->
<g id="edge12" class="edge"><title>2&#45;&gt;7</title>
<path fill="none" stroke="black" stroke-width="2" d="M242.752,-31.2008C224.661,-29.2606 197.982,-26.6361 174.641,-25.2763 168.588,-24.9237 162.121,-24.675 155.906,-24.4997"/>
<polygon fill="black" stroke="black" stroke-width="2" points="155.879,-20.9983 145.802,-24.2688 155.719,-27.9965 155.879,-20.9983"/>
</g>
<!-- 3 -->
<g id="node4" class="node"><title>3</title>
<ellipse fill="cadetblue" stroke="black" cx="242.387" cy="-177.479" rx="21.4286" ry="21.4286"/>
<text text-anchor="middle" x="242.387" y="-172.479" font-family="Times New Roman,serif" font-size="20.00">2</text>
</g>
<!-- 3&#45;&gt;6 -->
<g id="edge15" class="edge"><title>3&#45;&gt;6</title>
<path fill="none" stroke="black" stroke-width="2" d="M232.24,-158.631C220.96,-137.678 202.627,-103.625 189.672,-79.5593"/>
<polygon fill="black" stroke="black" stroke-width="2" points="192.648,-77.7039 184.826,-70.5578 186.485,-81.0221 192.648,-77.7039"/>
</g>
<!-- 3&#45;&gt;7 -->
<g id="edge16" class="edge"><title>3&#45;&gt;7</title>
<path fill="none" stroke="black" stroke-width="2" d="M228.532,-161.048C211.136,-140.244 180.592,-103.132 155.988,-70.1585 151.272,-63.839 146.351,-56.8984 141.828,-50.3649"/>
<polygon fill="black" stroke="black" stroke-width="2" points="144.503,-48.0764 135.964,-41.8045 138.728,-52.0324 144.503,-48.0764"/>
</g>
<!-- 4 -->
<g id="node5" class="node"><title>4</title>
<ellipse fill="cadetblue" stroke="black" cx="163.4" cy="-125.506" rx="21.4286" ry="21.4286"/>
<text text-anchor="middle" x="163.4" y="-120.506" font-family="Times New Roman,serif" font-size="20.00">2</text>
</g>
<!-- 4&#45;&gt;0 -->
<g id="edge1" class="edge"><title>4&#45;&gt;0</title>
<path fill="none" stroke="black" stroke-width="2" d="M146.658,-112.085C124.115,-94.0154 83.842,-61.7325 57.864,-40.9085"/>
<polygon fill="black" stroke="black" stroke-width="2" points="59.9642,-38.1064 49.9725,-34.5827 55.586,-43.5682 59.9642,-38.1064"/>
</g>
<!-- 4&#45;&gt;1 -->
<g id="edge5" class="edge"><title>4&#45;&gt;1</title>
<path fill="none" stroke="black" stroke-width="2" d="M142.114,-126.124C118.45,-126.81 79.9904,-127.924 52.8117,-128.712"/>
<polygon fill="black" stroke="black" stroke-width="2" points="52.5399,-125.219 42.6456,-129.007 52.7428,-132.216 52.5399,-125.219"/>
</g>
<!-- 4&#45;&gt;2 -->
<g id="edge9" class="edge"><title>4&#45;&gt;2</title>
<path fill="none" stroke="black" stroke-width="2" d="M179.124,-111.146C195.57,-96.127 221.572,-72.3807 240.471,-55.1201"/>
<polygon fill="black" stroke="black" stroke-width="2" points="243.064,-57.4921 248.088,-48.1641 238.344,-52.3233 243.064,-57.4921"/>
</g>
<!-- 4&#45;&gt;3 -->
<g id="edge13" class="edge"><title>4&#45;&gt;3</title>
<path fill="none" stroke="black" stroke-width="2" d="M181.324,-137.3C191.523,-144.011 204.492,-152.545 215.852,-160.02"/>
<polygon fill="black" stroke="black" stroke-width="2" points="214.257,-163.16 224.534,-165.733 218.104,-157.312 214.257,-163.16"/>
</g>
<!-- 5 -->
<g id="node6" class="node"><title>5</title>
<ellipse fill="brown" stroke="black" cx="112.726" cy="-156.234" rx="21.4286" ry="21.4286"/>
<text text-anchor="middle" x="112.726" y="-151.234" font-family="Times New Roman,serif" font-size="20.00">3</text>
</g>
<!-- 4&#45;&gt;5 -->
<g id="edge17" class="edge"><title>4&#45;&gt;5</title>
<path fill="none" stroke="black" stroke-width="2" d="M145.106,-136.6C143.405,-137.631 141.658,-138.691 139.899,-139.757"/>
<polygon fill="black" stroke="black" stroke-width="2" points="137.9,-136.876 131.164,-145.054 141.53,-142.862 137.9,-136.876"/>
</g>
<!-- 5&#45;&gt;0 -->
<g id="edge2" class="edge"><title>5&#45;&gt;0</title>
<path fill="none" stroke="black" stroke-width="2" d="M101.848,-137.743C88.3172,-114.743 65.0975,-75.2737 49.4759,-48.7198"/>
<polygon fill="black" stroke="black" stroke-width="2" points="52.3829,-46.7586 44.2956,-39.9142 46.3495,-50.308 52.3829,-46.7586"/>
</g>
<!-- 5&#45;&gt;1 -->
<g id="edge6" class="edge"><title>5&#45;&gt;1</title>
<path fill="none" stroke="black" stroke-width="2" d="M91.9605,-150.197C80.0259,-146.727 64.8194,-142.306 51.5652,-138.453"/>
<polygon fill="black" stroke="black" stroke-width="2" points="52.4763,-135.073 41.8967,-135.642 50.522,-141.794 52.4763,-135.073"/>
</g>
<!-- 5&#45;&gt;2 -->
<g id="edge10" class="edge"><title>5&#45;&gt;2</title>
<path fill="none" stroke="black" stroke-width="2" d="M122.618,-136.917C128.271,-127.109 136.018,-115.455 144.985,-106.723 159.553,-92.5388 206.1,-65.5711 236.491,-48.6477"/>
<polygon fill="black" stroke="black" stroke-width="2" points="238.297,-51.6485 245.351,-43.7433 234.907,-45.5242 238.297,-51.6485"/>
</g>
<!-- 5&#45;&gt;3 -->
<g id="edge14" class="edge"><title>5&#45;&gt;3</title>
<path fill="none" stroke="black" stroke-width="2" d="M133.847,-159.695C154.85,-163.136 187.31,-168.455 211.264,-172.38"/>
<polygon fill="black" stroke="black" stroke-width="2" points="210.84,-175.857 221.275,-174.02 211.972,-168.949 210.84,-175.857"/>
</g>
<!-- 6&#45;&gt;4 -->
<g id="edge18" class="edge"><title>6&#45;&gt;4</title>
<path fill="none" stroke="black" stroke-width="2" d="M171.428,-72.5671C170.398,-79.3563 169.234,-87.036 168.117,-94.3978"/>
<polygon fill="black" stroke="black" stroke-width="2" points="164.629,-94.0558 166.591,-104.468 171.55,-95.1053 164.629,-94.0558"/>
</g>
<!-- 6&#45;&gt;5 -->
<g id="edge20" class="edge"><title>6&#45;&gt;5</title>
<path fill="none" stroke="black" stroke-width="2" d="M163.546,-70.2907C153.91,-86.5865 139.814,-110.426 128.91,-128.865"/>
<polygon fill="black" stroke="black" stroke-width="2" points="125.771,-127.297 123.694,-137.686 131.797,-130.86 125.771,-127.297"/>
</g>
<!-- 6&#45;&gt;7 -->
<g id="edge22" class="edge"><title>6&#45;&gt;7</title>
<path fill="none" stroke="black" stroke-width="2" d="M155.831,-41.3439C154.501,-40.6187 153.145,-39.8796 151.78,-39.1354"/>
<polygon fill="black" stroke="black" stroke-width="2" points="153.26,-35.9563 142.805,-34.243 149.91,-42.1024 153.26,-35.9563"/>
</g>
<!-- 7&#45;&gt;4 -->
<g id="edge19" class="edge"><title>7&#45;&gt;4</title>
<path fill="none" stroke="black" stroke-width="2" d="M131.927,-44.126C137.622,-58.8499 145.453,-79.1002 151.88,-95.7167"/>
<polygon fill="black" stroke="black" stroke-width="2" points="148.796,-97.447 155.668,-105.511 155.325,-94.922 148.796,-97.447"/>
</g>
<!-- 7&#45;&gt;5 -->
<g id="edge21" class="edge"><title>7&#45;&gt;5</title>
<path fill="none" stroke="black" stroke-width="2" d="M122.338,-45.3206C120.477,-66.8015 117.578,-100.255 115.45,-124.808"/>
<polygon fill="black" stroke="black" stroke-width="2" points="111.938,-124.791 114.562,-135.056 118.912,-125.395 111.938,-124.791"/>
</g>
</g>
</svg>

