<?xml version="1.0" encoding="UTF-8" standalone="no"?>
<!DOCTYPE svg PUBLIC "-//W3C//DTD SVG 1.1//EN"
 "http://www.w3.org/Graphics/SVG/1.1/DTD/svg11.dtd">
<!-- Generated by graphviz version 2.36.0 (20140111.2315)
 -->
<!-- Title: G Pages: 1 -->
<svg width="100%" height="100%"
 viewBox="0.00 0.00 403.89 404.74" xmlns="http://www.w3.org/2000/svg" xmlns:xlink="http://www.w3.org/1999/xlink">
<g id="graph0" class="graph" transform="scale(1 1) rotate(0) translate(4 400.741)">
<title>G</title>
<!-- 0 -->
<g id="node1" class="node"><title>0</title>
<ellipse fill="cadetblue" stroke="black" cx="294.425" cy="-175.928" rx="21.4286" ry="21.4286"/>
<text text-anchor="middle" x="294.425" y="-170.928" font-family="Times New Roman,serif" font-size="20.00">2</text>
</g>
<!-- 6 -->
<g id="node7" class="node"><title>6</title>
<ellipse fill="cadetblue" stroke="black" cx="159.022" cy="-247.925" rx="21.4286" ry="21.4286"/>
<text text-anchor="middle" x="159.022" y="-242.925" font-family="Times New Roman,serif" font-size="20.00">2</text>
</g>
<!-- 0&#45;&gt;6 -->
<g id="edge3" class="edge"><title>0&#45;&gt;6</title>
<path fill="none" stroke="black" stroke-width="2" d="M275.598,-185.939C252.687,-198.121 213.788,-218.804 187.279,-232.9"/>
<polygon fill="black" stroke="black" stroke-width="2" points="185.312,-229.982 178.126,-237.767 188.599,-236.163 185.312,-229.982"/>
</g>
<!-- 7 -->
<g id="node8" class="node"><title>7</title>
<ellipse fill="cadetblue" stroke="black" cx="216.148" cy="-375.527" rx="21.4286" ry="21.4286"/>
<text text-anchor="middle" x="216.148" y="-370.527" font-family="Times New Roman,serif" font-size="20.00">2</text>
</g>
<!-- 0&#45;&gt;7 -->
<g id="edge4" class="edge"><title>0&#45;&gt;7</title>
<path fill="none" stroke="black" stroke-width="2" d="M286.633,-195.796C272.772,-231.141 243.772,-305.087 227.625,-346.263"/>
<polygon fill="black" stroke="black" stroke-width="2" points="224.301,-345.152 223.908,-355.74 230.818,-347.708 224.301,-345.152"/>
</g>
<!-- 1 -->
<g id="node2" class="node"><title>1</title>
<ellipse fill="cadetblue" stroke="black" cx="346.711" cy="-261.797" rx="21.4286" ry="21.4286"/>
<text text-anchor="middle" x="346.711" y="-256.797" font-family="Times New Roman,serif" font-size="20.00">2</text>
</g>
<!-- 4 -->
<g id="node5" class="node"><title>4</title>
<ellipse fill="cadetblue" stroke="black" cx="374.681" cy="-35.4065" rx="21.4286" ry="21.4286"/>
<text text-anchor="middle" x="374.681" y="-30.4065" font-family="Times New Roman,serif" font-size="20.00">2</text>
</g>
<!-- 1&#45;&gt;4 -->
<g id="edge5" class="edge"><title>1&#45;&gt;4</title>
<path fill="none" stroke="black" stroke-width="2" d="M349.342,-240.499C354.3,-200.367 365.047,-113.389 370.823,-66.6355"/>
<polygon fill="black" stroke="black" stroke-width="2" points="374.325,-66.837 372.077,-56.4832 367.377,-65.9786 374.325,-66.837"/>
</g>
<!-- 1&#45;&gt;7 -->
<g id="edge8" class="edge"><title>1&#45;&gt;7</title>
<path fill="none" stroke="black" stroke-width="2" d="M330.701,-275.743C307.992,-295.524 266.264,-331.872 239.929,-354.812"/>
<polygon fill="black" stroke="black" stroke-width="2" points="237.53,-352.26 232.289,-361.468 242.128,-357.539 237.53,-352.26"/>
</g>
<!-- 2 -->
<g id="node3" class="node"><title>2</title>
<ellipse fill="cadetblue" stroke="black" cx="154.975" cy="-21.2132" rx="21.4286" ry="21.4286"/>
<text text-anchor="middle" x="154.975" y="-16.2132" font-family="Times New Roman,serif" font-size="20.00">2</text>
</g>
<!-- 2&#45;&gt;4 -->
<g id="edge9" class="edge"><title>2&#45;&gt;4</title>
<path fill="none" stroke="black" stroke-width="2" d="M176.441,-22.6C215.427,-25.1185 298.01,-30.4535 343.315,-33.3802"/>
<polygon fill="black" stroke="black" stroke-width="2" points="343.246,-36.883 353.451,-34.035 343.698,-29.8975 343.246,-36.883"/>
</g>
<!-- 3 -->
<g id="node4" class="node"><title>3</title>
<ellipse fill="cadetblue" stroke="black" cx="21.2132" cy="-372.543" rx="21.4286" ry="21.4286"/>
<text text-anchor="middle" x="21.2132" y="-367.543" font-family="Times New Roman,serif" font-size="20.00">2</text>
</g>
<!-- 5 -->
<g id="node6" class="node"><title>5</title>
<ellipse fill="cadetblue" stroke="black" cx="108.78" cy="-197.494" rx="21.4286" ry="21.4286"/>
<text text-anchor="middle" x="108.78" y="-192.494" font-family="Times New Roman,serif" font-size="20.00">2</text>
</g>
<!-- 3&#45;&gt;5 -->
<g id="edge12" class="edge"><title>3&#45;&gt;5</title>
<path fill="none" stroke="black" stroke-width="2" d="M30.7511,-353.476C46.2136,-322.566 76.826,-261.371 94.7676,-225.505"/>
<polygon fill="black" stroke="black" stroke-width="2" points="97.9103,-227.046 99.254,-216.537 91.6499,-223.914 97.9103,-227.046"/>
</g>
<!-- 4&#45;&gt;0 -->
<g id="edge1" class="edge"><title>4&#45;&gt;0</title>
<path fill="none" stroke="black" stroke-width="2" d="M364.024,-54.0666C350.233,-78.2136 326.091,-120.483 310.18,-148.342"/>
<polygon fill="black" stroke="black" stroke-width="2" points="307.046,-146.771 305.126,-157.19 313.125,-150.243 307.046,-146.771"/>
</g>
<!-- 5&#45;&gt;0 -->
<g id="edge2" class="edge"><title>5&#45;&gt;0</title>
<path fill="none" stroke="black" stroke-width="2" d="M130.076,-195.02C162.722,-191.228 225.318,-183.956 263.13,-179.563"/>
<polygon fill="black" stroke="black" stroke-width="2" points="263.563,-183.037 273.092,-178.406 262.755,-176.083 263.563,-183.037"/>
</g>
<!-- 5&#45;&gt;1 -->
<g id="edge6" class="edge"><title>5&#45;&gt;1</title>
<path fill="none" stroke="black" stroke-width="2" d="M129.479,-203.088C171.594,-214.47 267.414,-240.366 316.5,-253.632"/>
<polygon fill="black" stroke="black" stroke-width="2" points="315.663,-257.031 326.229,-256.262 317.489,-250.274 315.663,-257.031"/>
</g>
<!-- 5&#45;&gt;2 -->
<g id="edge10" class="edge"><title>5&#45;&gt;2</title>
<path fill="none" stroke="black" stroke-width="2" d="M114.17,-176.927C122.25,-146.094 137.555,-87.6896 146.951,-51.8326"/>
<polygon fill="black" stroke="black" stroke-width="2" points="150.399,-52.482 149.548,-41.9213 143.628,-50.7075 150.399,-52.482"/>
</g>
<!-- 6&#45;&gt;1 -->
<g id="edge7" class="edge"><title>6&#45;&gt;1</title>
<path fill="none" stroke="black" stroke-width="2" d="M180.188,-249.49C213.137,-251.925 276.885,-256.636 315.238,-259.471"/>
<polygon fill="black" stroke="black" stroke-width="2" points="315.104,-262.97 325.335,-260.217 315.62,-255.989 315.104,-262.97"/>
</g>
<!-- 6&#45;&gt;2 -->
<g id="edge11" class="edge"><title>6&#45;&gt;2</title>
<path fill="none" stroke="black" stroke-width="2" d="M158.641,-226.597C157.926,-186.51 156.377,-99.7498 155.54,-52.8448"/>
<polygon fill="black" stroke="black" stroke-width="2" points="159.036,-52.5861 155.358,-42.6502 152.037,-52.7111 159.036,-52.5861"/>
</g>
<!-- 6&#45;&gt;3 -->
<g id="edge13" class="edge"><title>6&#45;&gt;3</title>
<path fill="none" stroke="black" stroke-width="2" d="M143.214,-262.221C119.148,-283.983 73.1561,-325.572 45.0303,-351.006"/>
<polygon fill="black" stroke="black" stroke-width="2" points="42.3314,-348.727 37.2618,-358.03 47.0264,-353.919 42.3314,-348.727"/>
</g>
<!-- 7&#45;&gt;3 -->
<g id="edge14" class="edge"><title>7&#45;&gt;3</title>
<path fill="none" stroke="black" stroke-width="2" d="M194.916,-375.202C160.585,-374.677 92.7056,-373.637 52.7229,-373.025"/>
<polygon fill="black" stroke="black" stroke-width="2" points="52.7687,-369.526 42.7163,-372.872 52.6615,-376.525 52.7687,-369.526"/>
</g>
<!-- 7&#45;&gt;5 -->
<g id="edge15" class="edge"><title>7&#45;&gt;5</title>
<path fill="none" stroke="black" stroke-width="2" d="M203.1,-358.773C187.166,-337.881 159.929,-300.736 140.4,-266.503 133.186,-253.858 126.31,-239.276 120.824,-226.783"/>
<polygon fill="black" stroke="black" stroke-width="2" points="123.907,-225.094 116.742,-217.289 117.477,-227.859 123.907,-225.094"/>
</g>
<!-- 7&#45;&gt;6 -->
<g id="edge16" class="edge"><title>7&#45;&gt;6</title>
<path fill="none" stroke="black" stroke-width="2" d="M207.472,-356.147C198.035,-335.068 182.849,-301.146 171.994,-276.9"/>
<polygon fill="black" stroke="black" stroke-width="2" points="175.061,-275.185 167.78,-267.488 168.672,-278.045 175.061,-275.185"/>
</g>
</g>
</svg>

