<?xml version="1.0" encoding="UTF-8" standalone="no"?>
<!DOCTYPE svg PUBLIC "-//W3C//DTD SVG 1.1//EN"
 "http://www.w3.org/Graphics/SVG/1.1/DTD/svg11.dtd">
<!-- Generated by graphviz version 2.36.0 (20140111.2315)
 -->
<!-- Title: G Pages: 1 -->
<svg width="100%" height="100%"
 viewBox="0.00 0.00 225.42 235.98" xmlns="http://www.w3.org/2000/svg" xmlns:xlink="http://www.w3.org/1999/xlink">
<g id="graph0" class="graph" transform="scale(1 1) rotate(0) translate(4 231.978)">
<title>G</title>
<!-- 0 -->
<g id="node1" class="node"><title>0</title>
<ellipse fill="cadetblue" stroke="black" cx="24.7253" cy="-73.6655" rx="21.4286" ry="21.4286"/>
<text text-anchor="middle" x="24.7253" y="-68.6655" font-family="Times New Roman,serif" font-size="20.00">2</text>
</g>
<!-- 6 -->
<g id="node7" class="node"><title>6</title>
<ellipse fill="cadetblue" stroke="black" cx="151.361" cy="-135.171" rx="21.4286" ry="21.4286"/>
<text text-anchor="middle" x="151.361" y="-130.171" font-family="Times New Roman,serif" font-size="20.00">2</text>
</g>
<!-- 0&#45;&gt;6 -->
<g id="edge3" class="edge"><title>0&#45;&gt;6</title>
<path fill="none" stroke="black" stroke-width="2" d="M38.7794,-89.9523C52.7521,-104.594 75.6966,-124.713 100.929,-130.861 106.945,-132.327 113.471,-133.312 119.769,-133.971"/>
<polygon fill="black" stroke="black" stroke-width="2" points="119.776,-137.483 130.025,-134.797 120.339,-130.505 119.776,-137.483"/>
</g>
<!-- 7 -->
<g id="node8" class="node"><title>7</title>
<ellipse fill="brown" stroke="black" cx="100.93" cy="-104.556" rx="21.4286" ry="21.4286"/>
<text text-anchor="middle" x="100.93" y="-99.5564" font-family="Times New Roman,serif" font-size="20.00">3</text>
</g>
<!-- 0&#45;&gt;7 -->
<g id="edge4" class="edge"><title>0&#45;&gt;7</title>
<path fill="none" stroke="black" stroke-width="2" d="M44.7472,-81.7817C52.9728,-85.1161 62.662,-89.0438 71.6565,-92.6899"/>
<polygon fill="black" stroke="black" stroke-width="2" points="70.4594,-95.9812 81.0418,-96.4944 73.0892,-89.494 70.4594,-95.9812"/>
</g>
<!-- 1 -->
<g id="node2" class="node"><title>1</title>
<ellipse fill="cadetblue" stroke="black" cx="93.464" cy="-206.765" rx="21.4286" ry="21.4286"/>
<text text-anchor="middle" x="93.464" y="-201.765" font-family="Times New Roman,serif" font-size="20.00">2</text>
</g>
<!-- 1&#45;&gt;7 -->
<g id="edge7" class="edge"><title>1&#45;&gt;7</title>
<path fill="none" stroke="black" stroke-width="2" d="M95.011,-185.587C96.0551,-171.294 97.4514,-152.177 98.6257,-136.102"/>
<polygon fill="black" stroke="black" stroke-width="2" points="102.121,-136.287 99.3593,-126.059 95.14,-135.777 102.121,-136.287"/>
</g>
<!-- 2 -->
<g id="node3" class="node"><title>2</title>
<ellipse fill="cadetblue" stroke="black" cx="159.811" cy="-21.2132" rx="21.4286" ry="21.4286"/>
<text text-anchor="middle" x="159.811" y="-16.2132" font-family="Times New Roman,serif" font-size="20.00">2</text>
</g>
<!-- 2&#45;&gt;7 -->
<g id="edge10" class="edge"><title>2&#45;&gt;7</title>
<path fill="none" stroke="black" stroke-width="2" d="M147.324,-38.8882C139.15,-50.4575 128.332,-65.7703 119.198,-78.6986"/>
<polygon fill="black" stroke="black" stroke-width="2" points="116.109,-77.0058 113.197,-87.1927 121.826,-81.0449 116.109,-77.0058"/>
</g>
<!-- 3 -->
<g id="node4" class="node"><title>3</title>
<ellipse fill="cadetblue" stroke="black" cx="196.205" cy="-73.9346" rx="21.4286" ry="21.4286"/>
<text text-anchor="middle" x="196.205" y="-68.9346" font-family="Times New Roman,serif" font-size="20.00">2</text>
</g>
<!-- 5 -->
<g id="node6" class="node"><title>5</title>
<ellipse fill="cadetblue" stroke="black" cx="82.3792" cy="-29.9241" rx="21.4286" ry="21.4286"/>
<text text-anchor="middle" x="82.3792" y="-24.9241" font-family="Times New Roman,serif" font-size="20.00">2</text>
</g>
<!-- 3&#45;&gt;5 -->
<g id="edge11" class="edge"><title>3&#45;&gt;5</title>
<path fill="none" stroke="black" stroke-width="2" d="M176.378,-66.2685C158.534,-59.369 132.074,-49.1383 111.769,-41.2877"/>
<polygon fill="black" stroke="black" stroke-width="2" points="112.95,-37.9918 102.361,-37.6499 110.426,-44.5208 112.95,-37.9918"/>
</g>
<!-- 4 -->
<g id="node5" class="node"><title>4</title>
<ellipse fill="cadetblue" stroke="black" cx="21.2132" cy="-142" rx="21.4286" ry="21.4286"/>
<text text-anchor="middle" x="21.2132" y="-137" font-family="Times New Roman,serif" font-size="20.00">2</text>
</g>
<!-- 4&#45;&gt;0 -->
<g id="edge1" class="edge"><title>4&#45;&gt;0</title>
<path fill="none" stroke="black" stroke-width="2" d="M22.3052,-120.753C22.5539,-115.915 22.8234,-110.671 23.0893,-105.498"/>
<polygon fill="black" stroke="black" stroke-width="2" points="26.6039,-105.301 23.6219,-95.1347 19.6131,-104.942 26.6039,-105.301"/>
</g>
<!-- 4&#45;&gt;1 -->
<g id="edge5" class="edge"><title>4&#45;&gt;1</title>
<path fill="none" stroke="black" stroke-width="2" d="M37.248,-156.374C46.7891,-164.926 59.0718,-175.936 69.7212,-185.482"/>
<polygon fill="black" stroke="black" stroke-width="2" points="67.6915,-188.363 77.4741,-192.432 72.3639,-183.151 67.6915,-188.363"/>
</g>
<!-- 5&#45;&gt;0 -->
<g id="edge2" class="edge"><title>5&#45;&gt;0</title>
<path fill="none" stroke="black" stroke-width="2" d="M65.3929,-42.8114C60.5102,-46.5158 55.079,-50.6365 49.8166,-54.629"/>
<polygon fill="black" stroke="black" stroke-width="2" points="47.6405,-51.8866 41.7894,-60.7192 51.8715,-57.4632 47.6405,-51.8866"/>
</g>
<!-- 5&#45;&gt;2 -->
<g id="edge8" class="edge"><title>5&#45;&gt;2</title>
<path fill="none" stroke="black" stroke-width="2" d="M103.538,-27.5438C111.305,-26.67 120.269,-25.6616 128.727,-24.7101"/>
<polygon fill="black" stroke="black" stroke-width="2" points="129.132,-28.1867 138.678,-23.5906 128.349,-21.2306 129.132,-28.1867"/>
</g>
<!-- 5&#45;&gt;4 -->
<g id="edge14" class="edge"><title>5&#45;&gt;4</title>
<path fill="none" stroke="black" stroke-width="2" d="M72.1414,-48.6831C62.35,-66.6241 47.4669,-93.895 36.3143,-114.33"/>
<polygon fill="black" stroke="black" stroke-width="2" points="33.2027,-112.726 31.4844,-123.18 39.3473,-116.079 33.2027,-112.726"/>
</g>
<!-- 6&#45;&gt;1 -->
<g id="edge6" class="edge"><title>6&#45;&gt;1</title>
<path fill="none" stroke="black" stroke-width="2" d="M137.933,-151.776C130.626,-160.812 121.445,-172.165 113.326,-182.205"/>
<polygon fill="black" stroke="black" stroke-width="2" points="110.386,-180.273 106.82,-190.25 115.829,-184.675 110.386,-180.273"/>
</g>
<!-- 6&#45;&gt;2 -->
<g id="edge9" class="edge"><title>6&#45;&gt;2</title>
<path fill="none" stroke="black" stroke-width="2" d="M152.931,-114.004C154.203,-96.8419 156.016,-72.391 157.462,-52.8967"/>
<polygon fill="black" stroke="black" stroke-width="2" points="160.972,-52.8856 158.221,-42.6541 153.991,-52.3679 160.972,-52.8856"/>
</g>
<!-- 6&#45;&gt;3 -->
<g id="edge12" class="edge"><title>6&#45;&gt;3</title>
<path fill="none" stroke="black" stroke-width="2" d="M164.092,-117.787C168.293,-112.05 173.057,-105.545 177.604,-99.3355"/>
<polygon fill="black" stroke="black" stroke-width="2" points="180.514,-101.286 183.598,-91.1503 174.866,-97.1504 180.514,-101.286"/>
</g>
<!-- 7&#45;&gt;3 -->
<g id="edge13" class="edge"><title>7&#45;&gt;3</title>
<path fill="none" stroke="black" stroke-width="2" d="M121.135,-98.0623C134.184,-93.8686 151.397,-88.3361 166.049,-83.627"/>
<polygon fill="black" stroke="black" stroke-width="2" points="167.251,-86.917 175.7,-80.5249 165.109,-80.2527 167.251,-86.917"/>
</g>
<!-- 7&#45;&gt;4 -->
<g id="edge15" class="edge"><title>7&#45;&gt;4</title>
<path fill="none" stroke="black" stroke-width="2" d="M81.6328,-113.621C72.1074,-118.095 60.4246,-123.582 49.8792,-128.536"/>
<polygon fill="black" stroke="black" stroke-width="2" points="48.1722,-125.47 40.609,-132.89 51.1483,-131.806 48.1722,-125.47"/>
</g>
<!-- 7&#45;&gt;5 -->
<g id="edge16" class="edge"><title>7&#45;&gt;5</title>
<path fill="none" stroke="black" stroke-width="2" d="M95.7625,-83.7672C93.9735,-76.5697 91.929,-68.3442 89.9855,-60.5254"/>
<polygon fill="black" stroke="black" stroke-width="2" points="93.3278,-59.4623 87.5189,-50.6019 86.5345,-61.1509 93.3278,-59.4623"/>
</g>
<!-- 7&#45;&gt;6 -->
<g id="edge17" class="edge"><title>7&#45;&gt;6</title>
<path fill="none" stroke="black" stroke-width="2" d="M119.137,-115.609C120.83,-116.637 122.568,-117.692 124.319,-118.755"/>
<polygon fill="black" stroke="black" stroke-width="2" points="122.647,-121.835 133.012,-124.032 126.28,-115.851 122.647,-121.835"/>
</g>
</g>
</svg>

