<?xml version="1.0" encoding="UTF-8" standalone="no"?>
<!DOCTYPE svg PUBLIC "-//W3C//DTD SVG 1.1//EN"
 "http://www.w3.org/Graphics/SVG/1.1/DTD/svg11.dtd">
<!-- Generated by graphviz version 2.36.0 (20140111.2315)
 -->
<!-- Title: G Pages: 1 -->
<svg width="100%" height="100%"
 viewBox="0.00 0.00 289.32 297.42" xmlns="http://www.w3.org/2000/svg" xmlns:xlink="http://www.w3.org/1999/xlink">
<g id="graph0" class="graph" transform="scale(1 1) rotate(0) translate(4 293.422)">
<title>G</title>
<!-- 0 -->
<g id="node1" class="node"><title>0</title>
<ellipse fill="cadetblue" stroke="black" cx="55.2902" cy="-109.582" rx="21.4286" ry="21.4286"/>
<text text-anchor="middle" x="55.2902" y="-104.582" font-family="Times New Roman,serif" font-size="20.00">2</text>
</g>
<!-- 4 -->
<g id="node5" class="node"><title>4</title>
<ellipse fill="cadetblue" stroke="black" cx="125.806" cy="-21.2132" rx="21.4286" ry="21.4286"/>
<text text-anchor="middle" x="125.806" y="-16.2132" font-family="Times New Roman,serif" font-size="20.00">2</text>
</g>
<!-- 0&#45;&gt;4 -->
<g id="edge1" class="edge"><title>0&#45;&gt;4</title>
<path fill="none" stroke="black" stroke-width="2" d="M68.5537,-92.9605C79.1237,-79.7145 94.0846,-60.9659 106.062,-45.9561"/>
<polygon fill="black" stroke="black" stroke-width="2" points="108.861,-48.0601 112.362,-38.0606 103.389,-43.694 108.861,-48.0601"/>
</g>
<!-- 7 -->
<g id="node8" class="node"><title>7</title>
<ellipse fill="cadetblue" stroke="black" cx="172.894" cy="-113.366" rx="21.4286" ry="21.4286"/>
<text text-anchor="middle" x="172.894" y="-108.366" font-family="Times New Roman,serif" font-size="20.00">2</text>
</g>
<!-- 0&#45;&gt;7 -->
<g id="edge4" class="edge"><title>0&#45;&gt;7</title>
<path fill="none" stroke="black" stroke-width="2" d="M76.5873,-110.267C94.6246,-110.848 120.742,-111.688 141.23,-112.347"/>
<polygon fill="black" stroke="black" stroke-width="2" points="141.25,-115.849 151.358,-112.673 141.475,-108.853 141.25,-115.849"/>
</g>
<!-- 1 -->
<g id="node2" class="node"><title>1</title>
<ellipse fill="cadetblue" stroke="black" cx="89.7083" cy="-160.013" rx="21.4286" ry="21.4286"/>
<text text-anchor="middle" x="89.7083" y="-155.013" font-family="Times New Roman,serif" font-size="20.00">2</text>
</g>
<!-- 5 -->
<g id="node6" class="node"><title>5</title>
<ellipse fill="cadetblue" stroke="black" cx="21.2132" cy="-245.511" rx="21.4286" ry="21.4286"/>
<text text-anchor="middle" x="21.2132" y="-240.511" font-family="Times New Roman,serif" font-size="20.00">2</text>
</g>
<!-- 1&#45;&gt;5 -->
<g id="edge6" class="edge"><title>1&#45;&gt;5</title>
<path fill="none" stroke="black" stroke-width="2" d="M76.1758,-176.905C66.0726,-189.516 52.1167,-206.936 40.7962,-221.067"/>
<polygon fill="black" stroke="black" stroke-width="2" points="38.0053,-218.953 34.4844,-228.945 43.4684,-223.329 38.0053,-218.953"/>
</g>
<!-- 6 -->
<g id="node7" class="node"><title>6</title>
<ellipse fill="cadetblue" stroke="black" cx="212.573" cy="-175.789" rx="21.4286" ry="21.4286"/>
<text text-anchor="middle" x="212.573" y="-170.789" font-family="Times New Roman,serif" font-size="20.00">2</text>
</g>
<!-- 1&#45;&gt;6 -->
<g id="edge7" class="edge"><title>1&#45;&gt;6</title>
<path fill="none" stroke="black" stroke-width="2" d="M110.829,-162.725C130.169,-165.209 159.052,-168.917 181.108,-171.749"/>
<polygon fill="black" stroke="black" stroke-width="2" points="180.952,-175.258 191.316,-173.06 181.843,-168.315 180.952,-175.258"/>
</g>
<!-- 2 -->
<g id="node3" class="node"><title>2</title>
<ellipse fill="cadetblue" stroke="black" cx="260.108" cy="-46.9214" rx="21.4286" ry="21.4286"/>
<text text-anchor="middle" x="260.108" y="-41.9214" font-family="Times New Roman,serif" font-size="20.00">2</text>
</g>
<!-- 2&#45;&gt;7 -->
<g id="edge11" class="edge"><title>2&#45;&gt;7</title>
<path fill="none" stroke="black" stroke-width="2" d="M242.877,-60.0487C230.013,-69.8494 212.243,-83.3876 197.829,-94.3692"/>
<polygon fill="black" stroke="black" stroke-width="2" points="195.625,-91.6477 189.792,-100.492 199.868,-97.2158 195.625,-91.6477"/>
</g>
<!-- 3 -->
<g id="node4" class="node"><title>3</title>
<ellipse fill="cadetblue" stroke="black" cx="157.862" cy="-268.209" rx="21.4286" ry="21.4286"/>
<text text-anchor="middle" x="157.862" y="-263.209" font-family="Times New Roman,serif" font-size="20.00">2</text>
</g>
<!-- 3&#45;&gt;5 -->
<g id="edge12" class="edge"><title>3&#45;&gt;5</title>
<path fill="none" stroke="black" stroke-width="2" d="M136.81,-264.712C114.307,-260.974 78.3837,-255.007 52.5541,-250.717"/>
<polygon fill="black" stroke="black" stroke-width="2" points="52.9526,-247.235 42.5142,-249.049 51.8055,-254.14 52.9526,-247.235"/>
</g>
<!-- 4&#45;&gt;1 -->
<g id="edge5" class="edge"><title>4&#45;&gt;1</title>
<path fill="none" stroke="black" stroke-width="2" d="M120.402,-41.993C114.394,-65.0933 104.63,-102.636 97.7303,-129.168"/>
<polygon fill="black" stroke="black" stroke-width="2" points="94.2792,-128.533 95.1494,-139.092 101.054,-130.295 94.2792,-128.533"/>
</g>
<!-- 4&#45;&gt;2 -->
<g id="edge9" class="edge"><title>4&#45;&gt;2</title>
<path fill="none" stroke="black" stroke-width="2" d="M146.791,-25.2301C168.966,-29.4749 204.161,-36.2119 229.445,-41.0517"/>
<polygon fill="black" stroke="black" stroke-width="2" points="228.791,-44.4901 239.271,-42.9327 230.107,-37.6149 228.791,-44.4901"/>
</g>
<!-- 5&#45;&gt;0 -->
<g id="edge2" class="edge"><title>5&#45;&gt;0</title>
<path fill="none" stroke="black" stroke-width="2" d="M26.3888,-224.866C32.0181,-202.411 41.0772,-166.276 47.5524,-140.447"/>
<polygon fill="black" stroke="black" stroke-width="2" points="51.0291,-140.972 50.066,-130.421 44.2392,-139.27 51.0291,-140.972"/>
</g>
<!-- 6&#45;&gt;0 -->
<g id="edge3" class="edge"><title>6&#45;&gt;0</title>
<path fill="none" stroke="black" stroke-width="2" d="M192.971,-167.538C165.775,-156.09 116.379,-135.297 84.7377,-121.978"/>
<polygon fill="black" stroke="black" stroke-width="2" points="85.7138,-118.591 75.1392,-117.937 82.998,-125.043 85.7138,-118.591"/>
</g>
<!-- 6&#45;&gt;2 -->
<g id="edge10" class="edge"><title>6&#45;&gt;2</title>
<path fill="none" stroke="black" stroke-width="2" d="M220,-155.653C227.849,-134.375 240.306,-100.605 249.255,-76.3442"/>
<polygon fill="black" stroke="black" stroke-width="2" points="252.556,-77.5089 252.733,-66.9155 245.988,-75.0863 252.556,-77.5089"/>
</g>
<!-- 6&#45;&gt;3 -->
<g id="edge13" class="edge"><title>6&#45;&gt;3</title>
<path fill="none" stroke="black" stroke-width="2" d="M201.764,-194.048C193.872,-207.379 183.038,-225.68 174.107,-240.767"/>
<polygon fill="black" stroke="black" stroke-width="2" points="170.918,-239.283 168.836,-249.671 176.942,-242.849 170.918,-239.283"/>
</g>
<!-- 7&#45;&gt;1 -->
<g id="edge8" class="edge"><title>7&#45;&gt;1</title>
<path fill="none" stroke="black" stroke-width="2" d="M154.018,-123.951C143.093,-130.077 129.152,-137.895 117.044,-144.685"/>
<polygon fill="black" stroke="black" stroke-width="2" points="115.233,-141.687 108.223,-149.631 118.657,-147.793 115.233,-141.687"/>
</g>
<!-- 7&#45;&gt;3 -->
<g id="edge14" class="edge"><title>7&#45;&gt;3</title>
<path fill="none" stroke="black" stroke-width="2" d="M170.835,-134.572C168.275,-160.948 163.881,-206.212 160.924,-236.664"/>
<polygon fill="black" stroke="black" stroke-width="2" points="157.427,-236.471 159.944,-246.763 164.394,-237.148 157.427,-236.471"/>
</g>
<!-- 7&#45;&gt;4 -->
<g id="edge15" class="edge"><title>7&#45;&gt;4</title>
<path fill="none" stroke="black" stroke-width="2" d="M163.137,-94.2718C156.508,-81.298 147.627,-63.9175 140.19,-49.3638"/>
<polygon fill="black" stroke="black" stroke-width="2" points="143.217,-47.5951 135.55,-40.2828 136.984,-50.7803 143.217,-47.5951"/>
</g>
<!-- 7&#45;&gt;6 -->
<g id="edge16" class="edge"><title>7&#45;&gt;6</title>
<path fill="none" stroke="black" stroke-width="2" d="M184.371,-131.421C187.877,-136.937 191.809,-143.124 195.6,-149.087"/>
<polygon fill="black" stroke="black" stroke-width="2" points="192.666,-150.996 200.984,-157.558 198.574,-147.241 192.666,-150.996"/>
</g>
</g>
</svg>

