<?xml version="1.0" encoding="UTF-8" standalone="no"?>
<!DOCTYPE svg PUBLIC "-//W3C//DTD SVG 1.1//EN"
 "http://www.w3.org/Graphics/SVG/1.1/DTD/svg11.dtd">
<!-- Generated by graphviz version 2.36.0 (20140111.2315)
 -->
<!-- Title: G Pages: 1 -->
<svg width="100%" height="100%"
 viewBox="0.00 0.00 234.92 245.79" xmlns="http://www.w3.org/2000/svg" xmlns:xlink="http://www.w3.org/1999/xlink">
<g id="graph0" class="graph" transform="scale(1 1) rotate(0) translate(4 241.791)">
<title>G</title>
<!-- 0 -->
<g id="node1" class="node"><title>0</title>
<ellipse fill="cadetblue" stroke="black" cx="62.637" cy="-34.7145" rx="21.4286" ry="21.4286"/>
<text text-anchor="middle" x="62.637" y="-29.7145" font-family="Times New Roman,serif" font-size="20.00">2</text>
</g>
<!-- 6 -->
<g id="node7" class="node"><title>6</title>
<ellipse fill="cadetblue" stroke="black" cx="205.707" cy="-101.333" rx="21.4286" ry="21.4286"/>
<text text-anchor="middle" x="205.707" y="-96.3325" font-family="Times New Roman,serif" font-size="20.00">2</text>
</g>
<!-- 0&#45;&gt;6 -->
<g id="edge3" class="edge"><title>0&#45;&gt;6</title>
<path fill="none" stroke="black" stroke-width="2" d="M81.9321,-43.6989C106.358,-55.0724 148.651,-74.7655 176.905,-87.9213"/>
<polygon fill="black" stroke="black" stroke-width="2" points="175.718,-91.2294 186.261,-92.2777 178.673,-84.8836 175.718,-91.2294"/>
</g>
<!-- 7 -->
<g id="node8" class="node"><title>7</title>
<ellipse fill="brown" stroke="black" cx="72.0456" cy="-126.71" rx="21.4286" ry="21.4286"/>
<text text-anchor="middle" x="72.0456" y="-121.71" font-family="Times New Roman,serif" font-size="20.00">3</text>
</g>
<!-- 0&#45;&gt;7 -->
<g id="edge4" class="edge"><title>0&#45;&gt;7</title>
<path fill="none" stroke="black" stroke-width="2" d="M64.8192,-56.0514C66.0185,-67.7785 67.5284,-82.5419 68.8575,-95.5375"/>
<polygon fill="black" stroke="black" stroke-width="2" points="65.3759,-95.897 69.8753,-105.489 72.3396,-95.1847 65.3759,-95.897"/>
</g>
<!-- 1 -->
<g id="node2" class="node"><title>1</title>
<ellipse fill="cadetblue" stroke="black" cx="101.603" cy="-216.577" rx="21.4286" ry="21.4286"/>
<text text-anchor="middle" x="101.603" y="-211.577" font-family="Times New Roman,serif" font-size="20.00">2</text>
</g>
<!-- 1&#45;&gt;6 -->
<g id="edge7" class="edge"><title>1&#45;&gt;6</title>
<path fill="none" stroke="black" stroke-width="2" d="M116.078,-200.553C133.87,-180.857 164.203,-147.278 184.594,-124.705"/>
<polygon fill="black" stroke="black" stroke-width="2" points="187.249,-126.988 191.355,-117.221 182.054,-122.295 187.249,-126.988"/>
</g>
<!-- 1&#45;&gt;7 -->
<g id="edge8" class="edge"><title>1&#45;&gt;7</title>
<path fill="none" stroke="black" stroke-width="2" d="M94.8959,-196.185C91.079,-184.58 86.226,-169.825 81.9749,-156.9"/>
<polygon fill="black" stroke="black" stroke-width="2" points="85.1753,-155.428 78.7261,-147.022 78.5257,-157.615 85.1753,-155.428"/>
</g>
<!-- 2 -->
<g id="node3" class="node"><title>2</title>
<ellipse fill="cadetblue" stroke="black" cx="125.322" cy="-21.2132" rx="21.4286" ry="21.4286"/>
<text text-anchor="middle" x="125.322" y="-16.2132" font-family="Times New Roman,serif" font-size="20.00">2</text>
</g>
<!-- 5 -->
<g id="node6" class="node"><title>5</title>
<ellipse fill="cadetblue" stroke="black" cx="21.2132" cy="-139.715" rx="21.4286" ry="21.4286"/>
<text text-anchor="middle" x="21.2132" y="-134.715" font-family="Times New Roman,serif" font-size="20.00">2</text>
</g>
<!-- 2&#45;&gt;5 -->
<g id="edge10" class="edge"><title>2&#45;&gt;5</title>
<path fill="none" stroke="black" stroke-width="2" d="M111.281,-37.1948C93.507,-57.4262 62.7313,-92.4566 42.1718,-115.858"/>
<polygon fill="black" stroke="black" stroke-width="2" points="39.3345,-113.785 35.3638,-123.608 44.5933,-118.405 39.3345,-113.785"/>
</g>
<!-- 2&#45;&gt;7 -->
<g id="edge12" class="edge"><title>2&#45;&gt;7</title>
<path fill="none" stroke="black" stroke-width="2" d="M115.55,-40.563C107.364,-56.7725 95.5685,-80.1302 86.3243,-98.4357"/>
<polygon fill="black" stroke="black" stroke-width="2" points="83.139,-96.979 81.7553,-107.483 89.3874,-100.134 83.139,-96.979"/>
</g>
<!-- 3 -->
<g id="node4" class="node"><title>3</title>
<ellipse fill="cadetblue" stroke="black" cx="162.499" cy="-204.318" rx="21.4286" ry="21.4286"/>
<text text-anchor="middle" x="162.499" y="-199.318" font-family="Times New Roman,serif" font-size="20.00">2</text>
</g>
<!-- 4 -->
<g id="node5" class="node"><title>4</title>
<ellipse fill="cadetblue" stroke="black" cx="155.276" cy="-109.262" rx="21.4286" ry="21.4286"/>
<text text-anchor="middle" x="155.276" y="-104.262" font-family="Times New Roman,serif" font-size="20.00">2</text>
</g>
<!-- 3&#45;&gt;4 -->
<g id="edge13" class="edge"><title>3&#45;&gt;4</title>
<path fill="none" stroke="black" stroke-width="2" d="M160.86,-182.748C159.911,-170.264 158.701,-154.334 157.649,-140.498"/>
<polygon fill="black" stroke="black" stroke-width="2" points="161.131,-140.125 156.884,-130.419 154.151,-140.655 161.131,-140.125"/>
</g>
<!-- 3&#45;&gt;5 -->
<g id="edge14" class="edge"><title>3&#45;&gt;5</title>
<path fill="none" stroke="black" stroke-width="2" d="M143.15,-195.47C119.083,-184.466 77.7819,-165.581 49.996,-152.876"/>
<polygon fill="black" stroke="black" stroke-width="2" points="51.3317,-149.638 40.7818,-148.662 48.4207,-156.004 51.3317,-149.638"/>
</g>
<!-- 4&#45;&gt;0 -->
<g id="edge1" class="edge"><title>4&#45;&gt;0</title>
<path fill="none" stroke="black" stroke-width="2" d="M138.714,-95.9344C124.443,-84.4508 103.638,-67.7084 87.3903,-54.6337"/>
<polygon fill="black" stroke="black" stroke-width="2" points="89.353,-51.7206 79.368,-48.178 84.9645,-57.1741 89.353,-51.7206"/>
</g>
<!-- 4&#45;&gt;1 -->
<g id="edge5" class="edge"><title>4&#45;&gt;1</title>
<path fill="none" stroke="black" stroke-width="2" d="M145.68,-128.448C137.323,-145.158 125.097,-169.603 115.64,-188.512"/>
<polygon fill="black" stroke="black" stroke-width="2" points="112.458,-187.048 111.116,-197.558 118.719,-190.18 112.458,-187.048"/>
</g>
<!-- 4&#45;&gt;2 -->
<g id="edge9" class="edge"><title>4&#45;&gt;2</title>
<path fill="none" stroke="black" stroke-width="2" d="M148.329,-88.8405C144.51,-77.6165 139.703,-63.4864 135.472,-51.0484"/>
<polygon fill="black" stroke="black" stroke-width="2" points="138.766,-49.8638 132.231,-41.5239 132.139,-52.1184 138.766,-49.8638"/>
</g>
<!-- 5&#45;&gt;0 -->
<g id="edge2" class="edge"><title>5&#45;&gt;0</title>
<path fill="none" stroke="black" stroke-width="2" d="M29.0047,-119.965C35.2139,-104.226 44.0025,-81.9487 51.0385,-64.114"/>
<polygon fill="black" stroke="black" stroke-width="2" points="54.3255,-65.3194 54.7396,-54.7326 47.8139,-62.7504 54.3255,-65.3194"/>
</g>
<!-- 5&#45;&gt;1 -->
<g id="edge6" class="edge"><title>5&#45;&gt;1</title>
<path fill="none" stroke="black" stroke-width="2" d="M36.7132,-154.534C48.6129,-165.912 65.2273,-181.798 78.6652,-194.646"/>
<polygon fill="black" stroke="black" stroke-width="2" points="76.5039,-197.422 86.1506,-201.803 81.3415,-192.362 76.5039,-197.422"/>
</g>
<!-- 6&#45;&gt;2 -->
<g id="edge11" class="edge"><title>6&#45;&gt;2</title>
<path fill="none" stroke="black" stroke-width="2" d="M190.587,-86.2627C178.461,-74.1768 161.266,-57.0381 147.569,-43.3866"/>
<polygon fill="black" stroke="black" stroke-width="2" points="149.927,-40.7958 140.374,-36.2155 144.986,-45.7538 149.927,-40.7958"/>
</g>
<!-- 6&#45;&gt;3 -->
<g id="edge15" class="edge"><title>6&#45;&gt;3</title>
<path fill="none" stroke="black" stroke-width="2" d="M197.376,-121.189C190.98,-136.434 182.05,-157.718 174.828,-174.933"/>
<polygon fill="black" stroke="black" stroke-width="2" points="171.446,-173.947 170.804,-184.522 177.901,-176.655 171.446,-173.947"/>
</g>
<!-- 7&#45;&gt;3 -->
<g id="edge16" class="edge"><title>7&#45;&gt;3</title>
<path fill="none" stroke="black" stroke-width="2" d="M88.2168,-140.585C102.151,-152.54 122.465,-169.969 138.33,-183.581"/>
<polygon fill="black" stroke="black" stroke-width="2" points="136.294,-186.446 146.163,-190.302 140.852,-181.134 136.294,-186.446"/>
</g>
<!-- 7&#45;&gt;4 -->
<g id="edge17" class="edge"><title>7&#45;&gt;4</title>
<path fill="none" stroke="black" stroke-width="2" d="M93.0481,-122.307C102.511,-120.323 113.876,-117.941 124.29,-115.758"/>
<polygon fill="black" stroke="black" stroke-width="2" points="125.211,-119.141 134.28,-113.663 123.775,-112.29 125.211,-119.141"/>
</g>
</g>
</svg>

