<?xml version="1.0" encoding="UTF-8" standalone="no"?>
<!DOCTYPE svg PUBLIC "-//W3C//DTD SVG 1.1//EN"
 "http://www.w3.org/Graphics/SVG/1.1/DTD/svg11.dtd">
<!-- Generated by graphviz version 2.36.0 (20140111.2315)
 -->
<!-- Title: G Pages: 1 -->
<svg width="100%" height="100%"
 viewBox="0.00 0.00 258.55 249.57" xmlns="http://www.w3.org/2000/svg" xmlns:xlink="http://www.w3.org/1999/xlink">
<g id="graph0" class="graph" transform="scale(1 1) rotate(0) translate(4 245.572)">
<title>G</title>
<!-- 0 -->
<g id="node1" class="node"><title>0</title>
<ellipse fill="cadetblue" stroke="black" cx="21.2132" cy="-70.2422" rx="21.4286" ry="21.4286"/>
<text text-anchor="middle" x="21.2132" y="-65.2422" font-family="Times New Roman,serif" font-size="20.00">2</text>
</g>
<!-- 7 -->
<g id="node8" class="node"><title>7</title>
<ellipse fill="brown" stroke="black" cx="131.545" cy="-104.481" rx="21.4286" ry="21.4286"/>
<text text-anchor="middle" x="131.545" y="-99.4806" font-family="Times New Roman,serif" font-size="20.00">3</text>
</g>
<!-- 0&#45;&gt;7 -->
<g id="edge3" class="edge"><title>0&#45;&gt;7</title>
<path fill="none" stroke="black" stroke-width="2" d="M41.7072,-76.602C58.5054,-81.8148 82.5167,-89.2661 101.49,-95.1539"/>
<polygon fill="black" stroke="black" stroke-width="2" points="100.573,-98.5338 111.161,-98.1549 102.647,-91.8483 100.573,-98.5338"/>
</g>
<!-- 1 -->
<g id="node2" class="node"><title>1</title>
<ellipse fill="cadetblue" stroke="black" cx="132.356" cy="-220.359" rx="21.4286" ry="21.4286"/>
<text text-anchor="middle" x="132.356" y="-215.359" font-family="Times New Roman,serif" font-size="20.00">2</text>
</g>
<!-- 1&#45;&gt;7 -->
<g id="edge6" class="edge"><title>1&#45;&gt;7</title>
<path fill="none" stroke="black" stroke-width="2" d="M132.207,-199.105C132.084,-181.493 131.907,-156.198 131.767,-136.191"/>
<polygon fill="black" stroke="black" stroke-width="2" points="135.265,-135.967 131.695,-125.992 128.266,-136.016 135.265,-135.967"/>
</g>
<!-- 2 -->
<g id="node3" class="node"><title>2</title>
<ellipse fill="cadetblue" stroke="black" cx="192.392" cy="-21.2132" rx="21.4286" ry="21.4286"/>
<text text-anchor="middle" x="192.392" y="-16.2132" font-family="Times New Roman,serif" font-size="20.00">2</text>
</g>
<!-- 2&#45;&gt;7 -->
<g id="edge9" class="edge"><title>2&#45;&gt;7</title>
<path fill="none" stroke="black" stroke-width="2" d="M179.785,-38.4663C171.218,-50.1891 159.742,-65.8938 150.132,-79.0443"/>
<polygon fill="black" stroke="black" stroke-width="2" points="147.211,-77.1106 144.136,-87.2496 152.862,-81.2407 147.211,-77.1106"/>
</g>
<!-- 3 -->
<g id="node4" class="node"><title>3</title>
<ellipse fill="cadetblue" stroke="black" cx="229.338" cy="-71.6447" rx="21.4286" ry="21.4286"/>
<text text-anchor="middle" x="229.338" y="-66.6447" font-family="Times New Roman,serif" font-size="20.00">2</text>
</g>
<!-- 6 -->
<g id="node7" class="node"><title>6</title>
<ellipse fill="cadetblue" stroke="black" cx="195.146" cy="-150.992" rx="21.4286" ry="21.4286"/>
<text text-anchor="middle" x="195.146" y="-145.992" font-family="Times New Roman,serif" font-size="20.00">2</text>
</g>
<!-- 3&#45;&gt;6 -->
<g id="edge11" class="edge"><title>3&#45;&gt;6</title>
<path fill="none" stroke="black" stroke-width="2" d="M220.886,-91.2587C216.9,-100.51 212.062,-111.735 207.662,-121.947"/>
<polygon fill="black" stroke="black" stroke-width="2" points="204.362,-120.76 203.619,-131.329 210.791,-123.53 204.362,-120.76"/>
</g>
<!-- 4 -->
<g id="node5" class="node"><title>4</title>
<ellipse fill="cadetblue" stroke="black" cx="71.7363" cy="-149.032" rx="21.4286" ry="21.4286"/>
<text text-anchor="middle" x="71.7363" y="-144.032" font-family="Times New Roman,serif" font-size="20.00">2</text>
</g>
<!-- 4&#45;&gt;0 -->
<g id="edge1" class="edge"><title>4&#45;&gt;0</title>
<path fill="none" stroke="black" stroke-width="2" d="M60.2718,-131.153C53.7935,-121.051 45.5688,-108.224 38.3393,-96.9501"/>
<polygon fill="black" stroke="black" stroke-width="2" points="41.1515,-94.8515 32.8072,-88.3228 35.2589,-98.6301 41.1515,-94.8515"/>
</g>
<!-- 4&#45;&gt;1 -->
<g id="edge4" class="edge"><title>4&#45;&gt;1</title>
<path fill="none" stroke="black" stroke-width="2" d="M85.4917,-165.217C93.2095,-174.298 102.993,-185.81 111.622,-195.964"/>
<polygon fill="black" stroke="black" stroke-width="2" points="109.091,-198.39 118.234,-203.743 114.425,-193.857 109.091,-198.39"/>
</g>
<!-- 5 -->
<g id="node6" class="node"><title>5</title>
<ellipse fill="cadetblue" stroke="black" cx="106.169" cy="-30.1183" rx="21.4286" ry="21.4286"/>
<text text-anchor="middle" x="106.169" y="-25.1183" font-family="Times New Roman,serif" font-size="20.00">2</text>
</g>
<!-- 4&#45;&gt;5 -->
<g id="edge13" class="edge"><title>4&#45;&gt;5</title>
<path fill="none" stroke="black" stroke-width="2" d="M77.6554,-128.59C83.0753,-109.872 91.1695,-81.9182 97.3508,-60.5709"/>
<polygon fill="black" stroke="black" stroke-width="2" points="100.792,-61.2704 100.211,-50.6915 94.0682,-59.3234 100.792,-61.2704"/>
</g>
<!-- 5&#45;&gt;0 -->
<g id="edge2" class="edge"><title>5&#45;&gt;0</title>
<path fill="none" stroke="black" stroke-width="2" d="M86.8909,-39.223C75.9202,-44.4044 61.9712,-50.9925 49.7527,-56.7632"/>
<polygon fill="black" stroke="black" stroke-width="2" points="47.9621,-53.7381 40.4146,-61.1735 50.9516,-60.0677 47.9621,-53.7381"/>
</g>
<!-- 5&#45;&gt;2 -->
<g id="edge7" class="edge"><title>5&#45;&gt;2</title>
<path fill="none" stroke="black" stroke-width="2" d="M127.482,-27.917C137.535,-26.8788 149.733,-25.619 160.83,-24.4729"/>
<polygon fill="black" stroke="black" stroke-width="2" points="161.438,-27.9289 171.025,-23.42 160.718,-20.9659 161.438,-27.9289"/>
</g>
<!-- 5&#45;&gt;3 -->
<g id="edge10" class="edge"><title>5&#45;&gt;3</title>
<path fill="none" stroke="black" stroke-width="2" d="M126.507,-36.9755C146.298,-43.6478 176.605,-53.8659 199.197,-61.4827"/>
<polygon fill="black" stroke="black" stroke-width="2" points="198.375,-64.8989 208.969,-64.7772 200.611,-58.2658 198.375,-64.8989"/>
</g>
<!-- 6&#45;&gt;1 -->
<g id="edge5" class="edge"><title>6&#45;&gt;1</title>
<path fill="none" stroke="black" stroke-width="2" d="M180.898,-166.733C172.904,-175.564 162.77,-186.76 153.831,-196.634"/>
<polygon fill="black" stroke="black" stroke-width="2" points="151.099,-194.437 146.983,-204.2 156.289,-199.135 151.099,-194.437"/>
</g>
<!-- 6&#45;&gt;2 -->
<g id="edge8" class="edge"><title>6&#45;&gt;2</title>
<path fill="none" stroke="black" stroke-width="2" d="M194.691,-129.562C194.249,-108.71 193.571,-76.7759 193.066,-52.9715"/>
<polygon fill="black" stroke="black" stroke-width="2" points="196.559,-52.5989 192.848,-42.6754 189.561,-52.7475 196.559,-52.5989"/>
</g>
<!-- 6&#45;&gt;4 -->
<g id="edge14" class="edge"><title>6&#45;&gt;4</title>
<path fill="none" stroke="black" stroke-width="2" d="M173.931,-150.655C154.506,-150.347 125.495,-149.886 103.34,-149.534"/>
<polygon fill="black" stroke="black" stroke-width="2" points="103.142,-146.031 93.0873,-149.371 103.03,-153.03 103.142,-146.031"/>
</g>
<!-- 7&#45;&gt;3 -->
<g id="edge12" class="edge"><title>7&#45;&gt;3</title>
<path fill="none" stroke="black" stroke-width="2" d="M151.808,-97.677C165.575,-93.0541 184.02,-86.8611 199.464,-81.6753"/>
<polygon fill="black" stroke="black" stroke-width="2" points="200.735,-84.9406 209.101,-78.4396 198.507,-78.3047 200.735,-84.9406"/>
</g>
<!-- 7&#45;&gt;4 -->
<g id="edge15" class="edge"><title>7&#45;&gt;4</title>
<path fill="none" stroke="black" stroke-width="2" d="M114.246,-117.367C108.868,-121.372 102.825,-125.874 97.0197,-130.198"/>
<polygon fill="black" stroke="black" stroke-width="2" points="94.7188,-127.548 88.79,-136.329 98.9004,-133.162 94.7188,-127.548"/>
</g>
<!-- 7&#45;&gt;5 -->
<g id="edge16" class="edge"><title>7&#45;&gt;5</title>
<path fill="none" stroke="black" stroke-width="2" d="M124.611,-84.1608C122.065,-76.7012 119.127,-68.0928 116.356,-59.9703"/>
<polygon fill="black" stroke="black" stroke-width="2" points="119.637,-58.7473 113.094,-50.4136 113.012,-61.0081 119.637,-58.7473"/>
</g>
<!-- 7&#45;&gt;6 -->
<g id="edge17" class="edge"><title>7&#45;&gt;6</title>
<path fill="none" stroke="black" stroke-width="2" d="M148.924,-117.19C155.234,-121.805 162.505,-127.122 169.385,-132.153"/>
<polygon fill="black" stroke="black" stroke-width="2" points="167.65,-135.22 177.788,-138.298 171.782,-129.57 167.65,-135.22"/>
</g>
</g>
</svg>

