<?xml version="1.0" encoding="UTF-8" standalone="no"?>
<!DOCTYPE svg PUBLIC "-//W3C//DTD SVG 1.1//EN"
 "http://www.w3.org/Graphics/SVG/1.1/DTD/svg11.dtd">
<!-- Generated by graphviz version 2.36.0 (20140111.2315)
 -->
<!-- Title: G Pages: 1 -->
<svg width="100%" height="100%"
 viewBox="0.00 0.00 272.59 262.53" xmlns="http://www.w3.org/2000/svg" xmlns:xlink="http://www.w3.org/1999/xlink">
<g id="graph0" class="graph" transform="scale(1 1) rotate(0) translate(4 258.535)">
<title>G</title>
<!-- 0 -->
<g id="node1" class="node"><title>0</title>
<ellipse fill="cadetblue" stroke="black" cx="21.2132" cy="-41.4823" rx="21.4286" ry="21.4286"/>
<text text-anchor="middle" x="21.2132" y="-36.4823" font-family="Times New Roman,serif" font-size="20.00">2</text>
</g>
<!-- 7 -->
<g id="node8" class="node"><title>7</title>
<ellipse fill="cadetblue" stroke="black" cx="116.13" cy="-104.109" rx="21.4286" ry="21.4286"/>
<text text-anchor="middle" x="116.13" y="-99.1093" font-family="Times New Roman,serif" font-size="20.00">2</text>
</g>
<!-- 0&#45;&gt;7 -->
<g id="edge3" class="edge"><title>0&#45;&gt;7</title>
<path fill="none" stroke="black" stroke-width="2" d="M39.0664,-53.262C53.3845,-62.7092 73.6887,-76.106 89.8615,-86.777"/>
<polygon fill="black" stroke="black" stroke-width="2" points="88.0827,-89.7965 98.3572,-92.3825 91.9379,-83.9537 88.0827,-89.7965"/>
</g>
<!-- 1 -->
<g id="node2" class="node"><title>1</title>
<ellipse fill="cadetblue" stroke="black" cx="104.035" cy="-233.322" rx="21.4286" ry="21.4286"/>
<text text-anchor="middle" x="104.035" y="-228.322" font-family="Times New Roman,serif" font-size="20.00">2</text>
</g>
<!-- 1&#45;&gt;7 -->
<g id="edge6" class="edge"><title>1&#45;&gt;7</title>
<path fill="none" stroke="black" stroke-width="2" d="M106.033,-211.985C107.976,-191.223 110.952,-159.429 113.171,-135.729"/>
<polygon fill="black" stroke="black" stroke-width="2" points="116.683,-135.76 114.13,-125.478 109.713,-135.108 116.683,-135.76"/>
</g>
<!-- 2 -->
<g id="node3" class="node"><title>2</title>
<ellipse fill="cadetblue" stroke="black" cx="220.48" cy="-31.2844" rx="21.4286" ry="21.4286"/>
<text text-anchor="middle" x="220.48" y="-26.2844" font-family="Times New Roman,serif" font-size="20.00">2</text>
</g>
<!-- 6 -->
<g id="node7" class="node"><title>6</title>
<ellipse fill="cadetblue" stroke="black" cx="166.562" cy="-150.08" rx="21.4286" ry="21.4286"/>
<text text-anchor="middle" x="166.562" y="-145.08" font-family="Times New Roman,serif" font-size="20.00">2</text>
</g>
<!-- 2&#45;&gt;6 -->
<g id="edge8" class="edge"><title>2&#45;&gt;6</title>
<path fill="none" stroke="black" stroke-width="2" d="M211.697,-50.6353C202.963,-69.8784 189.465,-99.618 179.504,-121.565"/>
<polygon fill="black" stroke="black" stroke-width="2" points="176.287,-120.184 175.341,-130.737 182.661,-123.078 176.287,-120.184"/>
</g>
<!-- 3 -->
<g id="node4" class="node"><title>3</title>
<ellipse fill="cadetblue" stroke="black" cx="243.379" cy="-108.533" rx="21.4286" ry="21.4286"/>
<text text-anchor="middle" x="243.379" y="-103.533" font-family="Times New Roman,serif" font-size="20.00">2</text>
</g>
<!-- 3&#45;&gt;6 -->
<g id="edge11" class="edge"><title>3&#45;&gt;6</title>
<path fill="none" stroke="black" stroke-width="2" d="M224.391,-118.803C215.274,-123.733 204.177,-129.735 194.151,-135.158"/>
<polygon fill="black" stroke="black" stroke-width="2" points="192.463,-132.092 185.332,-139.928 195.793,-138.249 192.463,-132.092"/>
</g>
<!-- 4 -->
<g id="node5" class="node"><title>4</title>
<ellipse fill="cadetblue" stroke="black" cx="33.0722" cy="-159.336" rx="21.4286" ry="21.4286"/>
<text text-anchor="middle" x="33.0722" y="-154.336" font-family="Times New Roman,serif" font-size="20.00">2</text>
</g>
<!-- 4&#45;&gt;0 -->
<g id="edge1" class="edge"><title>4&#45;&gt;0</title>
<path fill="none" stroke="black" stroke-width="2" d="M30.9247,-137.994C29.0944,-119.805 26.4392,-93.4172 24.3675,-72.8293"/>
<polygon fill="black" stroke="black" stroke-width="2" points="27.8285,-72.2652 23.3448,-62.6659 20.8637,-72.9661 27.8285,-72.2652"/>
</g>
<!-- 4&#45;&gt;1 -->
<g id="edge4" class="edge"><title>4&#45;&gt;1</title>
<path fill="none" stroke="black" stroke-width="2" d="M47.7759,-174.666C57.7665,-185.082 71.1505,-199.036 82.3577,-210.721"/>
<polygon fill="black" stroke="black" stroke-width="2" points="79.9025,-213.217 89.3506,-218.011 84.9544,-208.372 79.9025,-213.217"/>
</g>
<!-- 5 -->
<g id="node6" class="node"><title>5</title>
<ellipse fill="cadetblue" stroke="black" cx="139.359" cy="-21.2132" rx="21.4286" ry="21.4286"/>
<text text-anchor="middle" x="139.359" y="-16.2132" font-family="Times New Roman,serif" font-size="20.00">2</text>
</g>
<!-- 5&#45;&gt;0 -->
<g id="edge2" class="edge"><title>5&#45;&gt;0</title>
<path fill="none" stroke="black" stroke-width="2" d="M118.237,-24.8369C99.84,-27.9931 72.9277,-32.6101 52.1109,-36.1815"/>
<polygon fill="black" stroke="black" stroke-width="2" points="51.4166,-32.7494 42.1524,-37.89 52.6002,-39.6486 51.4166,-32.7494"/>
</g>
<!-- 5&#45;&gt;2 -->
<g id="edge7" class="edge"><title>5&#45;&gt;2</title>
<path fill="none" stroke="black" stroke-width="2" d="M160.672,-23.8593C169.429,-24.9464 179.743,-26.2269 189.318,-27.4156"/>
<polygon fill="black" stroke="black" stroke-width="2" points="188.953,-30.8972 199.308,-28.656 189.816,-23.9505 188.953,-30.8972"/>
</g>
<!-- 5&#45;&gt;3 -->
<g id="edge10" class="edge"><title>5&#45;&gt;3</title>
<path fill="none" stroke="black" stroke-width="2" d="M155.612,-34.8569C172.611,-49.1268 199.488,-71.6883 219.024,-88.0877"/>
<polygon fill="black" stroke="black" stroke-width="2" points="216.987,-90.9479 226.897,-94.6967 221.488,-85.5865 216.987,-90.9479"/>
</g>
<!-- 6&#45;&gt;1 -->
<g id="edge5" class="edge"><title>6&#45;&gt;1</title>
<path fill="none" stroke="black" stroke-width="2" d="M153.606,-167.327C144.803,-179.047 133.011,-194.747 123.136,-207.893"/>
<polygon fill="black" stroke="black" stroke-width="2" points="120.182,-205.998 116.974,-216.096 125.779,-210.202 120.182,-205.998"/>
</g>
<!-- 6&#45;&gt;4 -->
<g id="edge13" class="edge"><title>6&#45;&gt;4</title>
<path fill="none" stroke="black" stroke-width="2" d="M145.114,-151.567C123.318,-153.078 89.3176,-155.436 64.4853,-157.158"/>
<polygon fill="black" stroke="black" stroke-width="2" points="64.2003,-153.669 54.4664,-157.852 64.6846,-160.652 64.2003,-153.669"/>
</g>
<!-- 6&#45;&gt;5 -->
<g id="edge15" class="edge"><title>6&#45;&gt;5</title>
<path fill="none" stroke="black" stroke-width="2" d="M162.131,-129.088C157.724,-108.214 150.914,-75.9528 145.888,-52.1453"/>
<polygon fill="black" stroke="black" stroke-width="2" points="149.278,-51.2571 143.788,-42.1956 142.429,-52.7029 149.278,-51.2571"/>
</g>
<!-- 7&#45;&gt;2 -->
<g id="edge9" class="edge"><title>7&#45;&gt;2</title>
<path fill="none" stroke="black" stroke-width="2" d="M133.832,-91.7556C150.573,-80.0721 175.884,-62.4073 194.834,-49.1822"/>
<polygon fill="black" stroke="black" stroke-width="2" points="196.842,-52.0489 203.04,-43.4557 192.836,-46.3086 196.842,-52.0489"/>
</g>
<!-- 7&#45;&gt;3 -->
<g id="edge12" class="edge"><title>7&#45;&gt;3</title>
<path fill="none" stroke="black" stroke-width="2" d="M137.429,-104.85C157.799,-105.558 188.761,-106.634 211.963,-107.441"/>
<polygon fill="black" stroke="black" stroke-width="2" points="211.896,-110.94 222.011,-107.79 212.139,-103.945 211.896,-110.94"/>
</g>
<!-- 7&#45;&gt;4 -->
<g id="edge14" class="edge"><title>7&#45;&gt;4</title>
<path fill="none" stroke="black" stroke-width="2" d="M98.1079,-116.093C86.711,-123.671 71.7921,-133.59 59.1185,-142.017"/>
<polygon fill="black" stroke="black" stroke-width="2" points="57.1634,-139.114 50.7741,-147.566 61.0393,-144.943 57.1634,-139.114"/>
</g>
<!-- 7&#45;&gt;5 -->
<g id="edge16" class="edge"><title>7&#45;&gt;5</title>
<path fill="none" stroke="black" stroke-width="2" d="M121.872,-83.6181C124.58,-73.9534 127.867,-62.2258 130.856,-51.5576"/>
<polygon fill="black" stroke="black" stroke-width="2" points="134.274,-52.3295 133.602,-41.7559 127.534,-50.4407 134.274,-52.3295"/>
</g>
</g>
</svg>

