<?xml version="1.0" encoding="UTF-8" standalone="no"?>
<!DOCTYPE svg PUBLIC "-//W3C//DTD SVG 1.1//EN"
 "http://www.w3.org/Graphics/SVG/1.1/DTD/svg11.dtd">
<!-- Generated by graphviz version 2.36.0 (20140111.2315)
 -->
<!-- Title: G Pages: 1 -->
<svg width="100%" height="100%"
 viewBox="0.00 0.00 246.30 248.67" xmlns="http://www.w3.org/2000/svg" xmlns:xlink="http://www.w3.org/1999/xlink">
<g id="graph0" class="graph" transform="scale(1 1) rotate(0) translate(4 244.669)">
<title>G</title>
<!-- 0 -->
<g id="node1" class="node"><title>0</title>
<ellipse fill="cadetblue" stroke="black" cx="89.0796" cy="-104.534" rx="21.4286" ry="21.4286"/>
<text text-anchor="middle" x="89.0796" y="-99.5338" font-family="Times New Roman,serif" font-size="20.00">2</text>
</g>
<!-- 6 -->
<g id="node7" class="node"><title>6</title>
<ellipse fill="cadetblue" stroke="black" cx="217.09" cy="-128.957" rx="21.4286" ry="21.4286"/>
<text text-anchor="middle" x="217.09" y="-123.957" font-family="Times New Roman,serif" font-size="20.00">2</text>
</g>
<!-- 0&#45;&gt;6 -->
<g id="edge3" class="edge"><title>0&#45;&gt;6</title>
<path fill="none" stroke="black" stroke-width="2" d="M109.58,-97.9504C118.696,-95.7354 129.589,-94.0573 139.512,-95.0913 157.378,-96.953 175.868,-104.757 190.313,-112.404"/>
<polygon fill="black" stroke="black" stroke-width="2" points="188.736,-115.532 199.175,-117.343 192.144,-109.417 188.736,-115.532"/>
</g>
<!-- 7 -->
<g id="node8" class="node"><title>7</title>
<ellipse fill="cadetblue" stroke="black" cx="139.511" cy="-121.396" rx="21.4286" ry="21.4286"/>
<text text-anchor="middle" x="139.511" y="-116.396" font-family="Times New Roman,serif" font-size="20.00">2</text>
</g>
<!-- 0&#45;&gt;7 -->
<g id="edge4" class="edge"><title>0&#45;&gt;7</title>
<path fill="none" stroke="black" stroke-width="2" d="M109.301,-111.295C109.404,-111.329 109.507,-111.364 109.61,-111.398"/>
<polygon fill="black" stroke="black" stroke-width="2" points="108.691,-114.781 119.285,-114.633 110.911,-108.143 108.691,-114.781"/>
</g>
<!-- 1 -->
<g id="node2" class="node"><title>1</title>
<ellipse fill="cadetblue" stroke="black" cx="21.2132" cy="-103.168" rx="21.4286" ry="21.4286"/>
<text text-anchor="middle" x="21.2132" y="-98.1676" font-family="Times New Roman,serif" font-size="20.00">2</text>
</g>
<!-- 1&#45;&gt;7 -->
<g id="edge7" class="edge"><title>1&#45;&gt;7</title>
<path fill="none" stroke="black" stroke-width="2" d="M39.7496,-114.105C52.9756,-121.049 71.4648,-129.053 89.0555,-130.838 95.5722,-131.499 102.506,-131.003 109.08,-129.958"/>
<polygon fill="black" stroke="black" stroke-width="2" points="109.894,-133.365 119.004,-127.954 108.509,-126.503 109.894,-133.365"/>
</g>
<!-- 2 -->
<g id="node3" class="node"><title>2</title>
<ellipse fill="cadetblue" stroke="black" cx="199.781" cy="-32.1407" rx="21.4286" ry="21.4286"/>
<text text-anchor="middle" x="199.781" y="-27.1407" font-family="Times New Roman,serif" font-size="20.00">2</text>
</g>
<!-- 4 -->
<g id="node5" class="node"><title>4</title>
<ellipse fill="cadetblue" stroke="black" cx="95.54" cy="-21.2132" rx="21.4286" ry="21.4286"/>
<text text-anchor="middle" x="95.54" y="-16.2132" font-family="Times New Roman,serif" font-size="20.00">2</text>
</g>
<!-- 2&#45;&gt;4 -->
<g id="edge8" class="edge"><title>2&#45;&gt;4</title>
<path fill="none" stroke="black" stroke-width="2" d="M178.435,-29.903C163.679,-28.3561 143.795,-26.2717 127.201,-24.5322"/>
<polygon fill="black" stroke="black" stroke-width="2" points="127.168,-21.0096 116.858,-23.4479 126.438,-27.9715 127.168,-21.0096"/>
</g>
<!-- 3 -->
<g id="node4" class="node"><title>3</title>
<ellipse fill="cadetblue" stroke="black" cx="172.352" cy="-219.456" rx="21.4286" ry="21.4286"/>
<text text-anchor="middle" x="172.352" y="-214.456" font-family="Times New Roman,serif" font-size="20.00">2</text>
</g>
<!-- 5 -->
<g id="node6" class="node"><title>5</title>
<ellipse fill="cadetblue" stroke="black" cx="69.7612" cy="-196.863" rx="21.4286" ry="21.4286"/>
<text text-anchor="middle" x="69.7612" y="-191.863" font-family="Times New Roman,serif" font-size="20.00">2</text>
</g>
<!-- 3&#45;&gt;5 -->
<g id="edge11" class="edge"><title>3&#45;&gt;5</title>
<path fill="none" stroke="black" stroke-width="2" d="M151.591,-214.884C136.851,-211.638 116.823,-207.227 100.27,-203.582"/>
<polygon fill="black" stroke="black" stroke-width="2" points="101.01,-200.161 90.4911,-201.429 99.5044,-206.998 101.01,-200.161"/>
</g>
<!-- 4&#45;&gt;0 -->
<g id="edge1" class="edge"><title>4&#45;&gt;0</title>
<path fill="none" stroke="black" stroke-width="2" d="M93.8763,-42.6703C93.1604,-51.9032 92.309,-62.8829 91.5237,-73.0114"/>
<polygon fill="black" stroke="black" stroke-width="2" points="88.0213,-72.9087 90.7377,-83.1494 95.0003,-73.4499 88.0213,-72.9087"/>
</g>
<!-- 4&#45;&gt;1 -->
<g id="edge5" class="edge"><title>4&#45;&gt;1</title>
<path fill="none" stroke="black" stroke-width="2" d="M81.209,-37.0148C70.2068,-49.1462 54.8454,-66.084 42.421,-79.7834"/>
<polygon fill="black" stroke="black" stroke-width="2" points="39.6256,-77.6558 35.5002,-87.4145 44.8107,-82.3584 39.6256,-77.6558"/>
</g>
<!-- 5&#45;&gt;0 -->
<g id="edge2" class="edge"><title>5&#45;&gt;0</title>
<path fill="none" stroke="black" stroke-width="2" d="M74.1449,-175.912C76.6395,-163.989 79.8115,-148.83 82.5899,-135.551"/>
<polygon fill="black" stroke="black" stroke-width="2" points="86.0911,-135.907 84.7133,-125.402 79.2394,-134.473 86.0911,-135.907"/>
</g>
<!-- 5&#45;&gt;1 -->
<g id="edge6" class="edge"><title>5&#45;&gt;1</title>
<path fill="none" stroke="black" stroke-width="2" d="M59.9368,-177.903C52.9616,-164.441 43.4837,-146.149 35.6506,-131.031"/>
<polygon fill="black" stroke="black" stroke-width="2" points="38.7312,-129.369 31.023,-122.1 32.516,-132.589 38.7312,-129.369"/>
</g>
<!-- 6&#45;&gt;2 -->
<g id="edge9" class="edge"><title>6&#45;&gt;2</title>
<path fill="none" stroke="black" stroke-width="2" d="M213.334,-107.949C210.998,-94.8815 207.952,-77.8419 205.339,-63.2281"/>
<polygon fill="black" stroke="black" stroke-width="2" points="208.735,-62.3352 203.53,-53.1073 201.844,-63.5672 208.735,-62.3352"/>
</g>
<!-- 6&#45;&gt;3 -->
<g id="edge12" class="edge"><title>6&#45;&gt;3</title>
<path fill="none" stroke="black" stroke-width="2" d="M207.602,-148.149C201.433,-160.628 193.282,-177.117 186.372,-191.095"/>
<polygon fill="black" stroke="black" stroke-width="2" points="183.12,-189.776 181.826,-200.291 189.395,-192.878 183.12,-189.776"/>
</g>
<!-- 7&#45;&gt;2 -->
<g id="edge10" class="edge"><title>7&#45;&gt;2</title>
<path fill="none" stroke="black" stroke-width="2" d="M151.418,-103.762C160.169,-90.8036 172.203,-72.9818 182.078,-58.358"/>
<polygon fill="black" stroke="black" stroke-width="2" points="185.203,-59.9842 187.898,-49.738 179.402,-56.0668 185.203,-59.9842"/>
</g>
<!-- 7&#45;&gt;3 -->
<g id="edge13" class="edge"><title>7&#45;&gt;3</title>
<path fill="none" stroke="black" stroke-width="2" d="M146.316,-141.714C150.939,-155.519 157.133,-174.014 162.32,-189.501"/>
<polygon fill="black" stroke="black" stroke-width="2" points="159.061,-190.793 165.556,-199.164 165.699,-188.57 159.061,-190.793"/>
</g>
<!-- 7&#45;&gt;4 -->
<g id="edge14" class="edge"><title>7&#45;&gt;4</title>
<path fill="none" stroke="black" stroke-width="2" d="M130.824,-101.603C124.38,-86.921 115.494,-66.6765 108.252,-50.1767"/>
<polygon fill="black" stroke="black" stroke-width="2" points="111.433,-48.7151 104.209,-40.9649 105.023,-51.5284 111.433,-48.7151"/>
</g>
<!-- 7&#45;&gt;5 -->
<g id="edge15" class="edge"><title>7&#45;&gt;5</title>
<path fill="none" stroke="black" stroke-width="2" d="M125.059,-137.033C115.239,-147.657 102.084,-161.891 91.0682,-173.81"/>
<polygon fill="black" stroke="black" stroke-width="2" points="88.412,-171.527 84.1949,-181.247 93.5527,-176.278 88.412,-171.527"/>
</g>
<!-- 7&#45;&gt;6 -->
<g id="edge16" class="edge"><title>7&#45;&gt;6</title>
<path fill="none" stroke="black" stroke-width="2" d="M160.71,-123.462C168.492,-124.22 177.473,-125.096 185.946,-125.921"/>
<polygon fill="black" stroke="black" stroke-width="2" points="185.624,-129.406 195.917,-126.893 186.303,-122.439 185.624,-129.406"/>
</g>
</g>
</svg>

