<?xml version="1.0" encoding="UTF-8" standalone="no"?>
<!DOCTYPE svg PUBLIC "-//W3C//DTD SVG 1.1//EN"
 "http://www.w3.org/Graphics/SVG/1.1/DTD/svg11.dtd">
<!-- Generated by graphviz version 2.36.0 (20140111.2315)
 -->
<!-- Title: G Pages: 1 -->
<svg width="100%" height="100%"
 viewBox="0.00 0.00 246.63 271.38" xmlns="http://www.w3.org/2000/svg" xmlns:xlink="http://www.w3.org/1999/xlink">
<g id="graph0" class="graph" transform="scale(1 1) rotate(0) translate(4 267.378)">
<title>G</title>
<!-- 0 -->
<g id="node1" class="node"><title>0</title>
<ellipse fill="cadetblue" stroke="black" cx="98.608" cy="-21.2132" rx="21.4286" ry="21.4286"/>
<text text-anchor="middle" x="98.608" y="-16.2132" font-family="Times New Roman,serif" font-size="20.00">2</text>
</g>
<!-- 4 -->
<g id="node5" class="node"><title>4</title>
<ellipse fill="cadetblue" stroke="black" cx="217.413" cy="-94.6386" rx="21.4286" ry="21.4286"/>
<text text-anchor="middle" x="217.413" y="-89.6386" font-family="Times New Roman,serif" font-size="20.00">2</text>
</g>
<!-- 0&#45;&gt;4 -->
<g id="edge1" class="edge"><title>0&#45;&gt;4</title>
<path fill="none" stroke="black" stroke-width="2" d="M120.029,-23.5549C136.593,-26.2591 159.39,-32.0164 175.79,-44.1672 184.687,-50.7598 192.845,-59.6517 199.536,-68.1353"/>
<polygon fill="black" stroke="black" stroke-width="2" points="196.915,-70.4753 205.711,-76.3825 202.519,-66.2799 196.915,-70.4753"/>
</g>
<!-- 1 -->
<g id="node2" class="node"><title>1</title>
<ellipse fill="cadetblue" stroke="black" cx="21.2132" cy="-195.844" rx="21.4286" ry="21.4286"/>
<text text-anchor="middle" x="21.2132" y="-190.844" font-family="Times New Roman,serif" font-size="20.00">2</text>
</g>
<!-- 6 -->
<g id="node7" class="node"><title>6</title>
<ellipse fill="cadetblue" stroke="black" cx="111.467" cy="-131.265" rx="21.4286" ry="21.4286"/>
<text text-anchor="middle" x="111.467" y="-126.265" font-family="Times New Roman,serif" font-size="20.00">2</text>
</g>
<!-- 1&#45;&gt;6 -->
<g id="edge5" class="edge"><title>1&#45;&gt;6</title>
<path fill="none" stroke="black" stroke-width="2" d="M38.615,-183.393C51.9748,-173.833 70.6278,-160.486 85.7146,-149.691"/>
<polygon fill="black" stroke="black" stroke-width="2" points="88.0225,-152.344 94.1184,-143.678 83.9491,-146.651 88.0225,-152.344"/>
</g>
<!-- 2 -->
<g id="node3" class="node"><title>2</title>
<ellipse fill="cadetblue" stroke="black" cx="157.162" cy="-62.7398" rx="21.4286" ry="21.4286"/>
<text text-anchor="middle" x="157.162" y="-57.7398" font-family="Times New Roman,serif" font-size="20.00">2</text>
</g>
<!-- 5 -->
<g id="node6" class="node"><title>5</title>
<ellipse fill="cadetblue" stroke="black" cx="52.1947" cy="-118.016" rx="21.4286" ry="21.4286"/>
<text text-anchor="middle" x="52.1947" y="-113.016" font-family="Times New Roman,serif" font-size="20.00">2</text>
</g>
<!-- 2&#45;&gt;5 -->
<g id="edge7" class="edge"><title>2&#45;&gt;5</title>
<path fill="none" stroke="black" stroke-width="2" d="M137.91,-72.8783C121.681,-81.4245 98.2501,-93.7631 79.9864,-103.381"/>
<polygon fill="black" stroke="black" stroke-width="2" points="78.1895,-100.371 70.9721,-108.128 81.4511,-106.565 78.1895,-100.371"/>
</g>
<!-- 3 -->
<g id="node4" class="node"><title>3</title>
<ellipse fill="cadetblue" stroke="black" cx="95.6212" cy="-242.164" rx="21.4286" ry="21.4286"/>
<text text-anchor="middle" x="95.6212" y="-237.164" font-family="Times New Roman,serif" font-size="20.00">2</text>
</g>
<!-- 7 -->
<g id="node8" class="node"><title>7</title>
<ellipse fill="cadetblue" stroke="black" cx="154.178" cy="-181.696" rx="21.4286" ry="21.4286"/>
<text text-anchor="middle" x="154.178" y="-176.696" font-family="Times New Roman,serif" font-size="20.00">2</text>
</g>
<!-- 3&#45;&gt;7 -->
<g id="edge12" class="edge"><title>3&#45;&gt;7</title>
<path fill="none" stroke="black" stroke-width="2" d="M110.397,-226.906C117.004,-220.083 124.929,-211.9 132.209,-204.382"/>
<polygon fill="black" stroke="black" stroke-width="2" points="134.76,-206.779 139.203,-197.16 129.732,-201.909 134.76,-206.779"/>
</g>
<!-- 4&#45;&gt;6 -->
<g id="edge13" class="edge"><title>4&#45;&gt;6</title>
<path fill="none" stroke="black" stroke-width="2" d="M196.985,-101.701C181.303,-107.122 159.406,-114.692 141.696,-120.814"/>
<polygon fill="black" stroke="black" stroke-width="2" points="140.139,-117.649 131.831,-124.225 142.426,-124.265 140.139,-117.649"/>
</g>
<!-- 5&#45;&gt;0 -->
<g id="edge2" class="edge"><title>5&#45;&gt;0</title>
<path fill="none" stroke="black" stroke-width="2" d="M61.5871,-98.4265C68.2995,-84.4267 77.4361,-65.3707 84.9531,-49.6929"/>
<polygon fill="black" stroke="black" stroke-width="2" points="88.2205,-50.9735 89.388,-40.4432 81.9085,-47.9471 88.2205,-50.9735"/>
</g>
<!-- 5&#45;&gt;1 -->
<g id="edge4" class="edge"><title>5&#45;&gt;1</title>
<path fill="none" stroke="black" stroke-width="2" d="M44.2162,-138.059C40.7831,-146.683 36.7004,-156.939 32.9343,-166.4"/>
<polygon fill="black" stroke="black" stroke-width="2" points="29.6114,-165.284 29.1647,-175.869 36.115,-167.873 29.6114,-165.284"/>
</g>
<!-- 5&#45;&gt;3 -->
<g id="edge10" class="edge"><title>5&#45;&gt;3</title>
<path fill="none" stroke="black" stroke-width="2" d="M59.2685,-138.239C66.303,-158.349 77.1745,-189.429 85.1974,-212.365"/>
<polygon fill="black" stroke="black" stroke-width="2" points="81.9448,-213.667 88.5503,-221.95 88.5522,-211.355 81.9448,-213.667"/>
</g>
<!-- 6&#45;&gt;0 -->
<g id="edge3" class="edge"><title>6&#45;&gt;0</title>
<path fill="none" stroke="black" stroke-width="2" d="M108.987,-110.046C107.075,-93.6792 104.402,-70.7979 102.247,-52.3568"/>
<polygon fill="black" stroke="black" stroke-width="2" points="105.717,-51.8933 101.08,-42.3671 98.764,-52.7058 105.717,-51.8933"/>
</g>
<!-- 6&#45;&gt;2 -->
<g id="edge8" class="edge"><title>6&#45;&gt;2</title>
<path fill="none" stroke="black" stroke-width="2" d="M123.473,-113.261C128.366,-105.922 134.124,-97.2884 139.481,-89.2543"/>
<polygon fill="black" stroke="black" stroke-width="2" points="142.442,-91.1233 145.078,-80.8616 136.618,-87.2396 142.442,-91.1233"/>
</g>
<!-- 6&#45;&gt;3 -->
<g id="edge11" class="edge"><title>6&#45;&gt;3</title>
<path fill="none" stroke="black" stroke-width="2" d="M108.449,-152.385C106.081,-168.958 102.749,-192.276 100.075,-210.995"/>
<polygon fill="black" stroke="black" stroke-width="2" points="96.5774,-210.728 98.6277,-221.123 103.507,-211.718 96.5774,-210.728"/>
</g>
<!-- 6&#45;&gt;7 -->
<g id="edge16" class="edge"><title>6&#45;&gt;7</title>
<path fill="none" stroke="black" stroke-width="2" d="M125.216,-147.499C127.959,-150.739 130.895,-154.206 133.807,-157.643"/>
<polygon fill="black" stroke="black" stroke-width="2" points="131.321,-160.123 140.454,-165.492 136.662,-155.599 131.321,-160.123"/>
</g>
<!-- 7&#45;&gt;1 -->
<g id="edge6" class="edge"><title>7&#45;&gt;1</title>
<path fill="none" stroke="black" stroke-width="2" d="M132.815,-183.969C111.104,-186.28 77.2374,-189.883 52.5027,-192.515"/>
<polygon fill="black" stroke="black" stroke-width="2" points="52.0968,-189.038 42.5232,-193.577 52.8375,-195.999 52.0968,-189.038"/>
</g>
<!-- 7&#45;&gt;2 -->
<g id="edge9" class="edge"><title>7&#45;&gt;2</title>
<path fill="none" stroke="black" stroke-width="2" d="M154.711,-160.429C155.173,-142.021 155.848,-115.143 156.372,-94.2384"/>
<polygon fill="black" stroke="black" stroke-width="2" points="159.871,-94.3085 156.623,-84.2238 152.873,-94.1328 159.871,-94.3085"/>
</g>
<!-- 7&#45;&gt;4 -->
<g id="edge14" class="edge"><title>7&#45;&gt;4</title>
<path fill="none" stroke="black" stroke-width="2" d="M166.671,-164.497C175.852,-151.857 188.478,-134.474 198.838,-120.211"/>
<polygon fill="black" stroke="black" stroke-width="2" points="201.9,-121.951 204.946,-111.803 196.237,-117.837 201.9,-121.951"/>
</g>
<!-- 7&#45;&gt;5 -->
<g id="edge15" class="edge"><title>7&#45;&gt;5</title>
<path fill="none" stroke="black" stroke-width="2" d="M134.879,-172.815C122.537,-166.861 106.367,-158.541 92.8446,-149.843 87.403,-146.342 81.7981,-142.285 76.5546,-138.264"/>
<polygon fill="black" stroke="black" stroke-width="2" points="78.7069,-135.504 68.6877,-132.059 74.3719,-141 78.7069,-135.504"/>
</g>
</g>
</svg>

