<?xml version="1.0" encoding="UTF-8" standalone="no"?>
<!DOCTYPE svg PUBLIC "-//W3C//DTD SVG 1.1//EN"
 "http://www.w3.org/Graphics/SVG/1.1/DTD/svg11.dtd">
<!-- Generated by graphviz version 2.36.0 (20140111.2315)
 -->
<!-- Title: G Pages: 1 -->
<svg width="100%" height="100%"
 viewBox="0.00 0.00 396.46 337.50" xmlns="http://www.w3.org/2000/svg" xmlns:xlink="http://www.w3.org/1999/xlink">
<g id="graph0" class="graph" transform="scale(1 1) rotate(0) translate(4 333.5)">
<title>G</title>
<!-- 0 -->
<g id="node1" class="node"><title>0</title>
<ellipse fill="cadetblue" stroke="black" cx="236.387" cy="-21.2526" rx="21.4286" ry="21.4286"/>
<text text-anchor="middle" x="236.387" y="-16.2526" font-family="Times New Roman,serif" font-size="20.00">2</text>
</g>
<!-- 6 -->
<g id="node7" class="node"><title>6</title>
<ellipse fill="cadetblue" stroke="black" cx="113.184" cy="-125.77" rx="21.4286" ry="21.4286"/>
<text text-anchor="middle" x="113.184" y="-120.77" font-family="Times New Roman,serif" font-size="20.00">2</text>
</g>
<!-- 0&#45;&gt;6 -->
<g id="edge3" class="edge"><title>0&#45;&gt;6</title>
<path fill="none" stroke="black" stroke-width="2" d="M220.026,-35.1317C198.855,-53.0919 161.796,-84.5311 137.37,-105.252"/>
<polygon fill="black" stroke="black" stroke-width="2" points="134.973,-102.695 129.612,-111.834 139.502,-108.033 134.973,-102.695"/>
</g>
<!-- 7 -->
<g id="node8" class="node"><title>7</title>
<ellipse fill="cadetblue" stroke="black" cx="197.837" cy="-156.87" rx="21.4286" ry="21.4286"/>
<text text-anchor="middle" x="197.837" y="-151.87" font-family="Times New Roman,serif" font-size="20.00">2</text>
</g>
<!-- 0&#45;&gt;7 -->
<g id="edge4" class="edge"><title>0&#45;&gt;7</title>
<path fill="none" stroke="black" stroke-width="2" d="M230.532,-41.85C224.135,-64.3529 213.824,-100.627 206.493,-126.419"/>
<polygon fill="black" stroke="black" stroke-width="2" points="203.115,-125.503 203.747,-136.079 209.848,-127.417 203.115,-125.503"/>
</g>
<!-- 1 -->
<g id="node2" class="node"><title>1</title>
<ellipse fill="cadetblue" stroke="black" cx="249.629" cy="-272.482" rx="21.4286" ry="21.4286"/>
<text text-anchor="middle" x="249.629" y="-267.482" font-family="Times New Roman,serif" font-size="20.00">2</text>
</g>
<!-- 4 -->
<g id="node5" class="node"><title>4</title>
<ellipse fill="cadetblue" stroke="black" cx="367.246" cy="-140.288" rx="21.4286" ry="21.4286"/>
<text text-anchor="middle" x="367.246" y="-135.288" font-family="Times New Roman,serif" font-size="20.00">2</text>
</g>
<!-- 1&#45;&gt;4 -->
<g id="edge5" class="edge"><title>1&#45;&gt;4</title>
<path fill="none" stroke="black" stroke-width="2" d="M263.816,-256.537C284.303,-233.51 322.318,-190.785 346.115,-164.038"/>
<polygon fill="black" stroke="black" stroke-width="2" points="348.976,-166.088 353.008,-156.29 343.746,-161.435 348.976,-166.088"/>
</g>
<!-- 1&#45;&gt;7 -->
<g id="edge8" class="edge"><title>1&#45;&gt;7</title>
<path fill="none" stroke="black" stroke-width="2" d="M240.843,-252.87C232.621,-234.517 220.235,-206.867 210.863,-185.947"/>
<polygon fill="black" stroke="black" stroke-width="2" points="213.949,-184.274 206.666,-176.578 207.56,-187.135 213.949,-184.274"/>
</g>
<!-- 2 -->
<g id="node3" class="node"><title>2</title>
<ellipse fill="cadetblue" stroke="black" cx="21.2132" cy="-21.2132" rx="21.4286" ry="21.4286"/>
<text text-anchor="middle" x="21.2132" y="-16.2132" font-family="Times New Roman,serif" font-size="20.00">2</text>
</g>
<!-- 2&#45;&gt;6 -->
<g id="edge10" class="edge"><title>2&#45;&gt;6</title>
<path fill="none" stroke="black" stroke-width="2" d="M35.5836,-37.5502C50.7695,-54.8143 74.8708,-82.2139 92.1853,-101.898"/>
<polygon fill="black" stroke="black" stroke-width="2" points="89.6817,-104.351 98.9144,-109.548 94.9377,-99.7276 89.6817,-104.351"/>
</g>
<!-- 3 -->
<g id="node4" class="node"><title>3</title>
<ellipse fill="cadetblue" stroke="black" cx="59.8423" cy="-308.287" rx="21.4286" ry="21.4286"/>
<text text-anchor="middle" x="59.8423" y="-303.287" font-family="Times New Roman,serif" font-size="20.00">2</text>
</g>
<!-- 5 -->
<g id="node6" class="node"><title>5</title>
<ellipse fill="cadetblue" stroke="black" cx="65.4267" cy="-176.202" rx="21.4286" ry="21.4286"/>
<text text-anchor="middle" x="65.4267" y="-171.202" font-family="Times New Roman,serif" font-size="20.00">2</text>
</g>
<!-- 3&#45;&gt;5 -->
<g id="edge12" class="edge"><title>3&#45;&gt;5</title>
<path fill="none" stroke="black" stroke-width="2" d="M60.7396,-287.065C61.642,-265.721 63.0444,-232.551 64.0802,-208.05"/>
<polygon fill="black" stroke="black" stroke-width="2" points="67.5876,-207.948 64.5132,-197.81 60.5938,-207.653 67.5876,-207.948"/>
</g>
<!-- 4&#45;&gt;0 -->
<g id="edge1" class="edge"><title>4&#45;&gt;0</title>
<path fill="none" stroke="black" stroke-width="2" d="M351.461,-125.93C328.668,-105.195 286.374,-66.7228 259.897,-42.6388"/>
<polygon fill="black" stroke="black" stroke-width="2" points="261.98,-39.8019 252.227,-35.662 257.27,-44.9801 261.98,-39.8019"/>
</g>
<!-- 5&#45;&gt;0 -->
<g id="edge2" class="edge"><title>5&#45;&gt;0</title>
<path fill="none" stroke="black" stroke-width="2" d="M85.5192,-169.135C99.354,-163.679 117.702,-155.232 131.762,-144.392 167.689,-116.691 199.977,-74.848 218.886,-47.7847"/>
<polygon fill="black" stroke="black" stroke-width="2" points="221.995,-49.4397 224.772,-39.2151 216.225,-45.4767 221.995,-49.4397"/>
</g>
<!-- 5&#45;&gt;1 -->
<g id="edge6" class="edge"><title>5&#45;&gt;1</title>
<path fill="none" stroke="black" stroke-width="2" d="M84.4458,-186.143C117.07,-203.195 183.84,-238.095 221.738,-257.904"/>
<polygon fill="black" stroke="black" stroke-width="2" points="220.229,-261.065 230.713,-262.595 223.472,-254.861 220.229,-261.065"/>
</g>
<!-- 5&#45;&gt;2 -->
<g id="edge9" class="edge"><title>5&#45;&gt;2</title>
<path fill="none" stroke="black" stroke-width="2" d="M59.5555,-155.62C51.9579,-128.987 38.6584,-82.3664 29.8928,-51.639"/>
<polygon fill="black" stroke="black" stroke-width="2" points="33.2178,-50.5358 27.1087,-41.8796 26.4863,-52.4561 33.2178,-50.5358"/>
</g>
<!-- 6&#45;&gt;1 -->
<g id="edge7" class="edge"><title>6&#45;&gt;1</title>
<path fill="none" stroke="black" stroke-width="2" d="M127.786,-141.471C151.893,-167.392 200.132,-219.261 228.14,-249.376"/>
<polygon fill="black" stroke="black" stroke-width="2" points="225.759,-251.955 235.132,-256.894 230.884,-247.188 225.759,-251.955"/>
</g>
<!-- 6&#45;&gt;3 -->
<g id="edge13" class="edge"><title>6&#45;&gt;3</title>
<path fill="none" stroke="black" stroke-width="2" d="M107.169,-146.352C97.7795,-178.479 79.5904,-240.716 68.7003,-277.978"/>
<polygon fill="black" stroke="black" stroke-width="2" points="65.2814,-277.199 65.8356,-287.78 72.0004,-279.163 65.2814,-277.199"/>
</g>
<!-- 7&#45;&gt;2 -->
<g id="edge11" class="edge"><title>7&#45;&gt;2</title>
<path fill="none" stroke="black" stroke-width="2" d="M180.902,-143.863C149.647,-119.858 82.7676,-68.4904 46.2585,-40.4494"/>
<polygon fill="black" stroke="black" stroke-width="2" points="48.1601,-37.4967 38.0974,-34.1812 43.8962,-43.0482 48.1601,-37.4967"/>
</g>
<!-- 7&#45;&gt;3 -->
<g id="edge14" class="edge"><title>7&#45;&gt;3</title>
<path fill="none" stroke="black" stroke-width="2" d="M183.33,-172.788C158.938,-199.553 109.599,-253.69 81.2264,-284.823"/>
<polygon fill="black" stroke="black" stroke-width="2" points="78.3041,-282.833 74.155,-292.582 83.4778,-287.549 78.3041,-282.833"/>
</g>
<!-- 7&#45;&gt;4 -->
<g id="edge15" class="edge"><title>7&#45;&gt;4</title>
<path fill="none" stroke="black" stroke-width="2" d="M218.95,-154.804C248.323,-151.928 301.739,-146.7 335.807,-143.365"/>
<polygon fill="black" stroke="black" stroke-width="2" points="336.522,-146.812 346.134,-142.355 335.84,-139.845 336.522,-146.812"/>
</g>
<!-- 7&#45;&gt;5 -->
<g id="edge16" class="edge"><title>7&#45;&gt;5</title>
<path fill="none" stroke="black" stroke-width="2" d="M176.563,-159.976C154.943,-163.133 121.217,-168.056 96.5858,-171.653"/>
<polygon fill="black" stroke="black" stroke-width="2" points="96.0374,-168.195 86.648,-173.103 97.0487,-175.122 96.0374,-168.195"/>
</g>
</g>
</svg>

