<?xml version="1.0" encoding="UTF-8" standalone="no"?>
<!DOCTYPE svg PUBLIC "-//W3C//DTD SVG 1.1//EN"
 "http://www.w3.org/Graphics/SVG/1.1/DTD/svg11.dtd">
<!-- Generated by graphviz version 2.36.0 (20140111.2315)
 -->
<!-- Title: G Pages: 1 -->
<svg width="100%" height="100%"
 viewBox="0.00 0.00 218.08 261.97" xmlns="http://www.w3.org/2000/svg" xmlns:xlink="http://www.w3.org/1999/xlink">
<g id="graph0" class="graph" transform="scale(1 1) rotate(0) translate(4 257.974)">
<title>G</title>
<!-- 0 -->
<g id="node1" class="node"><title>0</title>
<ellipse fill="cadetblue" stroke="black" cx="23.4269" cy="-138.811" rx="21.4286" ry="21.4286"/>
<text text-anchor="middle" x="23.4269" y="-133.811" font-family="Times New Roman,serif" font-size="20.00">2</text>
</g>
<!-- 6 -->
<g id="node7" class="node"><title>6</title>
<ellipse fill="cadetblue" stroke="black" cx="93.5359" cy="-159.28" rx="21.4286" ry="21.4286"/>
<text text-anchor="middle" x="93.5359" y="-154.28" font-family="Times New Roman,serif" font-size="20.00">2</text>
</g>
<!-- 0&#45;&gt;6 -->
<g id="edge3" class="edge"><title>0&#45;&gt;6</title>
<path fill="none" stroke="black" stroke-width="2" d="M44.0827,-144.842C50.0203,-146.575 56.6249,-148.504 63.0241,-150.372"/>
<polygon fill="black" stroke="black" stroke-width="2" points="62.2053,-153.779 72.7855,-153.222 64.1672,-147.059 62.2053,-153.779"/>
</g>
<!-- 7 -->
<g id="node8" class="node"><title>7</title>
<ellipse fill="cadetblue" stroke="black" cx="123.396" cy="-93.0749" rx="21.4286" ry="21.4286"/>
<text text-anchor="middle" x="123.396" y="-88.0749" font-family="Times New Roman,serif" font-size="20.00">2</text>
</g>
<!-- 0&#45;&gt;7 -->
<g id="edge4" class="edge"><title>0&#45;&gt;7</title>
<path fill="none" stroke="black" stroke-width="2" d="M43.1775,-129.775C57.9232,-123.029 78.2919,-113.71 94.8142,-106.151"/>
<polygon fill="black" stroke="black" stroke-width="2" points="96.3888,-109.28 104.026,-101.936 93.4766,-102.914 96.3888,-109.28"/>
</g>
<!-- 1 -->
<g id="node2" class="node"><title>1</title>
<ellipse fill="cadetblue" stroke="black" cx="21.2132" cy="-71.6447" rx="21.4286" ry="21.4286"/>
<text text-anchor="middle" x="21.2132" y="-66.6447" font-family="Times New Roman,serif" font-size="20.00">2</text>
</g>
<!-- 4 -->
<g id="node5" class="node"><title>4</title>
<ellipse fill="cadetblue" stroke="black" cx="70.4286" cy="-21.2132" rx="21.4286" ry="21.4286"/>
<text text-anchor="middle" x="70.4286" y="-16.2132" font-family="Times New Roman,serif" font-size="20.00">2</text>
</g>
<!-- 1&#45;&gt;4 -->
<g id="edge5" class="edge"><title>1&#45;&gt;4</title>
<path fill="none" stroke="black" stroke-width="2" d="M36.2469,-56.2395C40.0631,-52.329 44.2433,-48.0456 48.3301,-43.8577"/>
<polygon fill="black" stroke="black" stroke-width="2" points="51.0076,-46.1253 55.487,-36.524 45.9978,-41.2363 51.0076,-46.1253"/>
</g>
<!-- 2 -->
<g id="node3" class="node"><title>2</title>
<ellipse fill="cadetblue" stroke="black" cx="188.87" cy="-153.089" rx="21.4286" ry="21.4286"/>
<text text-anchor="middle" x="188.87" y="-148.089" font-family="Times New Roman,serif" font-size="20.00">2</text>
</g>
<!-- 2&#45;&gt;7 -->
<g id="edge10" class="edge"><title>2&#45;&gt;7</title>
<path fill="none" stroke="black" stroke-width="2" d="M173.021,-138.561C165.059,-131.263 155.262,-122.283 146.481,-114.235"/>
<polygon fill="black" stroke="black" stroke-width="2" points="148.836,-111.646 139.099,-107.469 144.106,-116.806 148.836,-111.646"/>
</g>
<!-- 3 -->
<g id="node4" class="node"><title>3</title>
<ellipse fill="cadetblue" stroke="black" cx="165.019" cy="-211.474" rx="21.4286" ry="21.4286"/>
<text text-anchor="middle" x="165.019" y="-206.474" font-family="Times New Roman,serif" font-size="20.00">2</text>
</g>
<!-- 5 -->
<g id="node6" class="node"><title>5</title>
<ellipse fill="cadetblue" stroke="black" cx="85.8926" cy="-232.761" rx="21.4286" ry="21.4286"/>
<text text-anchor="middle" x="85.8926" y="-227.761" font-family="Times New Roman,serif" font-size="20.00">2</text>
</g>
<!-- 3&#45;&gt;5 -->
<g id="edge11" class="edge"><title>3&#45;&gt;5</title>
<path fill="none" stroke="black" stroke-width="2" d="M144.23,-217.067C135.689,-219.365 125.628,-222.071 116.289,-224.584"/>
<polygon fill="black" stroke="black" stroke-width="2" points="115.291,-221.228 106.543,-227.206 117.109,-227.987 115.291,-221.228"/>
</g>
<!-- 4&#45;&gt;0 -->
<g id="edge1" class="edge"><title>4&#45;&gt;0</title>
<path fill="none" stroke="black" stroke-width="2" d="M62.4554,-41.1621C54.9941,-59.8303 43.7529,-87.9556 35.2481,-109.234"/>
<polygon fill="black" stroke="black" stroke-width="2" points="31.9006,-108.179 31.4392,-118.764 38.4007,-110.777 31.9006,-108.179"/>
</g>
<!-- 5&#45;&gt;0 -->
<g id="edge2" class="edge"><title>5&#45;&gt;0</title>
<path fill="none" stroke="black" stroke-width="2" d="M74.1433,-215.09C64.78,-201.007 51.5271,-181.074 40.917,-165.117"/>
<polygon fill="black" stroke="black" stroke-width="2" points="43.7873,-163.112 35.3359,-156.722 37.9581,-166.988 43.7873,-163.112"/>
</g>
<!-- 5&#45;&gt;2 -->
<g id="edge8" class="edge"><title>5&#45;&gt;2</title>
<path fill="none" stroke="black" stroke-width="2" d="M102.897,-219.605C119.518,-206.746 145.011,-187.022 163.925,-172.388"/>
<polygon fill="black" stroke="black" stroke-width="2" points="166.073,-175.152 171.84,-166.265 161.789,-169.616 166.073,-175.152"/>
</g>
<!-- 6&#45;&gt;1 -->
<g id="edge6" class="edge"><title>6&#45;&gt;1</title>
<path fill="none" stroke="black" stroke-width="2" d="M79.9326,-142.797C69.0227,-129.577 53.5519,-110.83 41.2289,-95.8982"/>
<polygon fill="black" stroke="black" stroke-width="2" points="43.8201,-93.5393 34.7556,-88.0543 38.4212,-97.9949 43.8201,-93.5393"/>
</g>
<!-- 6&#45;&gt;2 -->
<g id="edge9" class="edge"><title>6&#45;&gt;2</title>
<path fill="none" stroke="black" stroke-width="2" d="M115.169,-157.875C127.689,-157.062 143.666,-156.025 157.542,-155.123"/>
<polygon fill="black" stroke="black" stroke-width="2" points="157.899,-158.608 167.651,-154.467 157.446,-151.622 157.899,-158.608"/>
</g>
<!-- 6&#45;&gt;3 -->
<g id="edge12" class="edge"><title>6&#45;&gt;3</title>
<path fill="none" stroke="black" stroke-width="2" d="M110.84,-171.915C119.445,-178.198 130.013,-185.914 139.524,-192.859"/>
<polygon fill="black" stroke="black" stroke-width="2" points="137.734,-195.886 147.875,-198.956 141.862,-190.232 137.734,-195.886"/>
</g>
<!-- 6&#45;&gt;5 -->
<g id="edge15" class="edge"><title>6&#45;&gt;5</title>
<path fill="none" stroke="black" stroke-width="2" d="M91.3251,-180.534C90.6438,-187.084 89.8789,-194.438 89.1429,-201.513"/>
<polygon fill="black" stroke="black" stroke-width="2" points="85.6519,-201.247 88.0984,-211.555 92.6143,-201.971 85.6519,-201.247"/>
</g>
<!-- 7&#45;&gt;1 -->
<g id="edge7" class="edge"><title>7&#45;&gt;1</title>
<path fill="none" stroke="black" stroke-width="2" d="M102.223,-88.6345C87.7416,-85.5973 68.3082,-81.5217 52.1053,-78.1235"/>
<polygon fill="black" stroke="black" stroke-width="2" points="52.5142,-74.6332 42.0087,-76.006 51.0774,-81.4842 52.5142,-74.6332"/>
</g>
<!-- 7&#45;&gt;3 -->
<g id="edge13" class="edge"><title>7&#45;&gt;3</title>
<path fill="none" stroke="black" stroke-width="2" d="M130.457,-113.16C137.064,-131.955 147.019,-160.272 154.551,-181.696"/>
<polygon fill="black" stroke="black" stroke-width="2" points="151.305,-183.018 157.924,-191.291 157.909,-180.696 151.305,-183.018"/>
</g>
<!-- 7&#45;&gt;4 -->
<g id="edge14" class="edge"><title>7&#45;&gt;4</title>
<path fill="none" stroke="black" stroke-width="2" d="M110.574,-75.6792C104.133,-66.9405 96.2072,-56.1876 89.1044,-46.5511"/>
<polygon fill="black" stroke="black" stroke-width="2" points="91.883,-44.4218 83.1324,-38.4487 86.2482,-48.575 91.883,-44.4218"/>
</g>
<!-- 7&#45;&gt;6 -->
<g id="edge16" class="edge"><title>7&#45;&gt;6</title>
<path fill="none" stroke="black" stroke-width="2" d="M114.598,-112.581C112.069,-118.188 109.256,-124.424 106.531,-130.467"/>
<polygon fill="black" stroke="black" stroke-width="2" points="103.295,-129.13 102.374,-139.685 109.676,-132.008 103.295,-129.13"/>
</g>
</g>
</svg>

