<?xml version="1.0" encoding="UTF-8" standalone="no"?>
<!DOCTYPE svg PUBLIC "-//W3C//DTD SVG 1.1//EN"
 "http://www.w3.org/Graphics/SVG/1.1/DTD/svg11.dtd">
<!-- Generated by graphviz version 2.36.0 (20140111.2315)
 -->
<!-- Title: G Pages: 1 -->
<svg width="100%" height="100%"
 viewBox="0.00 0.00 325.80 280.11" xmlns="http://www.w3.org/2000/svg" xmlns:xlink="http://www.w3.org/1999/xlink">
<g id="graph0" class="graph" transform="scale(1 1) rotate(0) translate(4 276.109)">
<title>G</title>
<!-- 0 -->
<g id="node1" class="node"><title>0</title>
<ellipse fill="cadetblue" stroke="black" cx="209.52" cy="-250.896" rx="21.4286" ry="21.4286"/>
<text text-anchor="middle" x="209.52" y="-245.896" font-family="Times New Roman,serif" font-size="20.00">2</text>
</g>
<!-- 6 -->
<g id="node7" class="node"><title>6</title>
<ellipse fill="cadetblue" stroke="black" cx="194.965" cy="-109.147" rx="21.4286" ry="21.4286"/>
<text text-anchor="middle" x="194.965" y="-104.147" font-family="Times New Roman,serif" font-size="20.00">2</text>
</g>
<!-- 0&#45;&gt;6 -->
<g id="edge3" class="edge"><title>0&#45;&gt;6</title>
<path fill="none" stroke="black" stroke-width="2" d="M207.341,-229.675C204.919,-206.084 200.982,-167.743 198.2,-140.648"/>
<polygon fill="black" stroke="black" stroke-width="2" points="201.662,-140.104 197.159,-130.514 194.699,-140.819 201.662,-140.104"/>
</g>
<!-- 7 -->
<g id="node8" class="node"><title>7</title>
<ellipse fill="cadetblue" stroke="black" cx="144.533" cy="-85.5816" rx="21.4286" ry="21.4286"/>
<text text-anchor="middle" x="144.533" y="-80.5816" font-family="Times New Roman,serif" font-size="20.00">2</text>
</g>
<!-- 0&#45;&gt;7 -->
<g id="edge4" class="edge"><title>0&#45;&gt;7</title>
<path fill="none" stroke="black" stroke-width="2" d="M201.681,-230.955C190.331,-202.082 169.244,-148.441 156.103,-115.012"/>
<polygon fill="black" stroke="black" stroke-width="2" points="159.215,-113.362 152.299,-105.336 152.7,-115.923 159.215,-113.362"/>
</g>
<!-- 1 -->
<g id="node2" class="node"><title>1</title>
<ellipse fill="cadetblue" stroke="black" cx="295.811" cy="-34.1941" rx="21.4286" ry="21.4286"/>
<text text-anchor="middle" x="295.811" y="-29.1941" font-family="Times New Roman,serif" font-size="20.00">2</text>
</g>
<!-- 1&#45;&gt;7 -->
<g id="edge7" class="edge"><title>1&#45;&gt;7</title>
<path fill="none" stroke="black" stroke-width="2" d="M275.722,-41.018C249.727,-49.8483 204.222,-65.3058 174.231,-75.4937"/>
<polygon fill="black" stroke="black" stroke-width="2" points="173.048,-72.199 164.705,-78.7295 175.299,-78.8271 173.048,-72.199"/>
</g>
<!-- 2 -->
<g id="node3" class="node"><title>2</title>
<ellipse fill="cadetblue" stroke="black" cx="68.7369" cy="-21.2132" rx="21.4286" ry="21.4286"/>
<text text-anchor="middle" x="68.7369" y="-16.2132" font-family="Times New Roman,serif" font-size="20.00">2</text>
</g>
<!-- 2&#45;&gt;6 -->
<g id="edge9" class="edge"><title>2&#45;&gt;6</title>
<path fill="none" stroke="black" stroke-width="2" d="M89.1061,-27.8901C109.374,-35.2287 140.619,-48.4823 163.134,-66.9825 168.562,-71.4424 173.591,-77.008 177.975,-82.6185"/>
<polygon fill="black" stroke="black" stroke-width="2" points="175.184,-84.7318 183.906,-90.747 180.839,-80.6058 175.184,-84.7318"/>
</g>
<!-- 3 -->
<g id="node4" class="node"><title>3</title>
<ellipse fill="cadetblue" stroke="black" cx="21.2132" cy="-148.052" rx="21.4286" ry="21.4286"/>
<text text-anchor="middle" x="21.2132" y="-143.052" font-family="Times New Roman,serif" font-size="20.00">2</text>
</g>
<!-- 5 -->
<g id="node6" class="node"><title>5</title>
<ellipse fill="cadetblue" stroke="black" cx="115.434" cy="-198.517" rx="21.4286" ry="21.4286"/>
<text text-anchor="middle" x="115.434" y="-193.517" font-family="Times New Roman,serif" font-size="20.00">2</text>
</g>
<!-- 3&#45;&gt;5 -->
<g id="edge11" class="edge"><title>3&#45;&gt;5</title>
<path fill="none" stroke="black" stroke-width="2" d="M40.2801,-158.265C53.9063,-165.563 72.454,-175.497 87.7136,-183.67"/>
<polygon fill="black" stroke="black" stroke-width="2" points="86.2488,-186.856 96.7165,-188.492 89.5539,-180.686 86.2488,-186.856"/>
</g>
<!-- 4 -->
<g id="node5" class="node"><title>4</title>
<ellipse fill="cadetblue" stroke="black" cx="296.585" cy="-179.062" rx="21.4286" ry="21.4286"/>
<text text-anchor="middle" x="296.585" y="-174.062" font-family="Times New Roman,serif" font-size="20.00">2</text>
</g>
<!-- 4&#45;&gt;0 -->
<g id="edge1" class="edge"><title>4&#45;&gt;0</title>
<path fill="none" stroke="black" stroke-width="2" d="M280.209,-192.574C267.158,-203.341 248.686,-218.582 233.898,-230.783"/>
<polygon fill="black" stroke="black" stroke-width="2" points="231.605,-228.137 226.119,-237.201 236.06,-233.537 231.605,-228.137"/>
</g>
<!-- 4&#45;&gt;1 -->
<g id="edge5" class="edge"><title>4&#45;&gt;1</title>
<path fill="none" stroke="black" stroke-width="2" d="M296.471,-157.687C296.341,-133.4 296.128,-93.5307 295.979,-65.684"/>
<polygon fill="black" stroke="black" stroke-width="2" points="299.479,-65.6387 295.926,-55.6576 292.479,-65.6762 299.479,-65.6387"/>
</g>
<!-- 5&#45;&gt;0 -->
<g id="edge2" class="edge"><title>5&#45;&gt;0</title>
<path fill="none" stroke="black" stroke-width="2" d="M134.022,-208.866C147.682,-216.47 166.468,-226.929 181.884,-235.511"/>
<polygon fill="black" stroke="black" stroke-width="2" points="180.531,-238.763 190.97,-240.569 183.936,-232.647 180.531,-238.763"/>
</g>
<!-- 5&#45;&gt;2 -->
<g id="edge8" class="edge"><title>5&#45;&gt;2</title>
<path fill="none" stroke="black" stroke-width="2" d="M109.985,-177.831C101.796,-146.736 86.2634,-87.7604 76.7717,-51.7208"/>
<polygon fill="black" stroke="black" stroke-width="2" points="80.0818,-50.5463 74.1503,-41.7675 73.3126,-52.3292 80.0818,-50.5463"/>
</g>
<!-- 5&#45;&gt;4 -->
<g id="edge14" class="edge"><title>5&#45;&gt;4</title>
<path fill="none" stroke="black" stroke-width="2" d="M136.568,-196.248C168.253,-192.845 228.272,-186.399 265.12,-182.442"/>
<polygon fill="black" stroke="black" stroke-width="2" points="265.736,-185.896 275.305,-181.348 264.988,-178.936 265.736,-185.896"/>
</g>
<!-- 6&#45;&gt;1 -->
<g id="edge6" class="edge"><title>6&#45;&gt;1</title>
<path fill="none" stroke="black" stroke-width="2" d="M212.072,-96.4327C228.009,-84.5879 251.982,-66.7699 270.199,-53.2297"/>
<polygon fill="black" stroke="black" stroke-width="2" points="272.682,-55.7457 278.62,-46.9713 268.506,-50.1275 272.682,-55.7457"/>
</g>
<!-- 6&#45;&gt;3 -->
<g id="edge12" class="edge"><title>6&#45;&gt;3</title>
<path fill="none" stroke="black" stroke-width="2" d="M174.006,-113.84C143.66,-120.635 87.2806,-133.259 52.1453,-141.126"/>
<polygon fill="black" stroke="black" stroke-width="2" points="50.9692,-137.803 41.9756,-143.403 52.4987,-144.634 50.9692,-137.803"/>
</g>
<!-- 6&#45;&gt;4 -->
<g id="edge15" class="edge"><title>6&#45;&gt;4</title>
<path fill="none" stroke="black" stroke-width="2" d="M212.666,-121.326C228.695,-132.354 252.51,-148.738 270.68,-161.239"/>
<polygon fill="black" stroke="black" stroke-width="2" points="268.865,-164.239 279.087,-167.024 272.832,-158.472 268.865,-164.239"/>
</g>
<!-- 7&#45;&gt;2 -->
<g id="edge10" class="edge"><title>7&#45;&gt;2</title>
<path fill="none" stroke="black" stroke-width="2" d="M128.087,-71.6146C117.856,-62.9266 104.516,-51.5978 93.0751,-41.8818"/>
<polygon fill="black" stroke="black" stroke-width="2" points="95.0394,-38.9582 85.1515,-35.1529 90.5083,-44.2938 95.0394,-38.9582"/>
</g>
<!-- 7&#45;&gt;3 -->
<g id="edge13" class="edge"><title>7&#45;&gt;3</title>
<path fill="none" stroke="black" stroke-width="2" d="M125.535,-95.2057C105.226,-105.493 72.8073,-121.916 49.4971,-133.724"/>
<polygon fill="black" stroke="black" stroke-width="2" points="47.7755,-130.673 40.4365,-138.314 50.9389,-136.917 47.7755,-130.673"/>
</g>
<!-- 7&#45;&gt;5 -->
<g id="edge16" class="edge"><title>7&#45;&gt;5</title>
<path fill="none" stroke="black" stroke-width="2" d="M139.196,-106.296C134.725,-123.648 128.282,-148.653 123.233,-168.249"/>
<polygon fill="black" stroke="black" stroke-width="2" points="119.843,-167.377 120.737,-177.935 126.622,-169.124 119.843,-167.377"/>
</g>
</g>
</svg>

