<?xml version="1.0" encoding="UTF-8" standalone="no"?>
<!DOCTYPE svg PUBLIC "-//W3C//DTD SVG 1.1//EN"
 "http://www.w3.org/Graphics/SVG/1.1/DTD/svg11.dtd">
<!-- Generated by graphviz version 2.36.0 (20140111.2315)
 -->
<!-- Title: G Pages: 1 -->
<svg width="100%" height="100%"
 viewBox="0.00 0.00 302.83 283.78" xmlns="http://www.w3.org/2000/svg" xmlns:xlink="http://www.w3.org/1999/xlink">
<g id="graph0" class="graph" transform="scale(1 1) rotate(0) translate(4 279.776)">
<title>G</title>
<!-- 0 -->
<g id="node1" class="node"><title>0</title>
<ellipse fill="cadetblue" stroke="black" cx="159.277" cy="-71.6447" rx="21.4286" ry="21.4286"/>
<text text-anchor="middle" x="159.277" y="-66.6447" font-family="Times New Roman,serif" font-size="20.00">2</text>
</g>
<!-- 6 -->
<g id="node7" class="node"><title>6</title>
<ellipse fill="cadetblue" stroke="black" cx="211.124" cy="-183.517" rx="21.4286" ry="21.4286"/>
<text text-anchor="middle" x="211.124" y="-178.517" font-family="Times New Roman,serif" font-size="20.00">2</text>
</g>
<!-- 0&#45;&gt;6 -->
<g id="edge3" class="edge"><title>0&#45;&gt;6</title>
<path fill="none" stroke="black" stroke-width="2" d="M168.308,-91.1313C176.486,-108.777 188.637,-134.995 197.907,-154.998"/>
<polygon fill="black" stroke="black" stroke-width="2" points="194.816,-156.652 202.196,-164.254 201.167,-153.709 194.816,-156.652"/>
</g>
<!-- 7 -->
<g id="node8" class="node"><title>7</title>
<ellipse fill="brown" stroke="black" cx="21.2132" cy="-89.5969" rx="21.4286" ry="21.4286"/>
<text text-anchor="middle" x="21.2132" y="-84.5969" font-family="Times New Roman,serif" font-size="20.00">3</text>
</g>
<!-- 0&#45;&gt;7 -->
<g id="edge4" class="edge"><title>0&#45;&gt;7</title>
<path fill="none" stroke="black" stroke-width="2" d="M138.007,-74.4104C115.138,-77.384 78.5507,-82.1414 52.4219,-85.5389"/>
<polygon fill="black" stroke="black" stroke-width="2" points="51.7459,-82.0972 42.2807,-86.8575 52.6486,-89.0388 51.7459,-82.0972"/>
</g>
<!-- 1 -->
<g id="node2" class="node"><title>1</title>
<ellipse fill="cadetblue" stroke="black" cx="145.116" cy="-231.928" rx="21.4286" ry="21.4286"/>
<text text-anchor="middle" x="145.116" y="-226.928" font-family="Times New Roman,serif" font-size="20.00">2</text>
</g>
<!-- 1&#45;&gt;6 -->
<g id="edge7" class="edge"><title>1&#45;&gt;6</title>
<path fill="none" stroke="black" stroke-width="2" d="M162.459,-219.209C169.528,-214.024 177.844,-207.925 185.583,-202.249"/>
<polygon fill="black" stroke="black" stroke-width="2" points="187.674,-205.056 193.668,-196.32 183.534,-199.411 187.674,-205.056"/>
</g>
<!-- 1&#45;&gt;7 -->
<g id="edge8" class="edge"><title>1&#45;&gt;7</title>
<path fill="none" stroke="black" stroke-width="2" d="M133.127,-214.386C118.878,-194.012 93.9184,-159.787 69.2828,-133.073 61.9596,-125.132 53.369,-117.033 45.4913,-110.011"/>
<polygon fill="black" stroke="black" stroke-width="2" points="47.7564,-107.342 37.9248,-103.394 43.1483,-112.612 47.7564,-107.342"/>
</g>
<!-- 2 -->
<g id="node3" class="node"><title>2</title>
<ellipse fill="cadetblue" stroke="black" cx="142.963" cy="-21.2132" rx="21.4286" ry="21.4286"/>
<text text-anchor="middle" x="142.963" y="-16.2132" font-family="Times New Roman,serif" font-size="20.00">2</text>
</g>
<!-- 4 -->
<g id="node5" class="node"><title>4</title>
<ellipse fill="cadetblue" stroke="black" cx="273.616" cy="-103.499" rx="21.4286" ry="21.4286"/>
<text text-anchor="middle" x="273.616" y="-98.4988" font-family="Times New Roman,serif" font-size="20.00">2</text>
</g>
<!-- 2&#45;&gt;4 -->
<g id="edge9" class="edge"><title>2&#45;&gt;4</title>
<path fill="none" stroke="black" stroke-width="2" d="M161.13,-32.6547C183.459,-46.7175 221.527,-70.6934 247.118,-86.8105"/>
<polygon fill="black" stroke="black" stroke-width="2" points="245.277,-89.7869 255.603,-92.1545 249.007,-83.8637 245.277,-89.7869"/>
</g>
<!-- 2&#45;&gt;7 -->
<g id="edge12" class="edge"><title>2&#45;&gt;7</title>
<path fill="none" stroke="black" stroke-width="2" d="M124.206,-31.7483C104.039,-43.0757 71.7755,-61.1974 48.7341,-74.1391"/>
<polygon fill="black" stroke="black" stroke-width="2" points="46.7961,-71.2133 39.7913,-79.1621 50.2241,-77.3165 46.7961,-71.2133"/>
</g>
<!-- 3 -->
<g id="node4" class="node"><title>3</title>
<ellipse fill="cadetblue" stroke="black" cx="34.7304" cy="-254.562" rx="21.4286" ry="21.4286"/>
<text text-anchor="middle" x="34.7304" y="-249.562" font-family="Times New Roman,serif" font-size="20.00">2</text>
</g>
<!-- 5 -->
<g id="node6" class="node"><title>5</title>
<ellipse fill="cadetblue" stroke="black" cx="50.6001" cy="-151.59" rx="21.4286" ry="21.4286"/>
<text text-anchor="middle" x="50.6001" y="-146.59" font-family="Times New Roman,serif" font-size="20.00">2</text>
</g>
<!-- 3&#45;&gt;5 -->
<g id="edge13" class="edge"><title>3&#45;&gt;5</title>
<path fill="none" stroke="black" stroke-width="2" d="M38.0186,-233.226C40.2528,-218.729 43.246,-199.308 45.7523,-183.046"/>
<polygon fill="black" stroke="black" stroke-width="2" points="49.252,-183.315 47.3161,-172.899 42.3337,-182.249 49.252,-183.315"/>
</g>
<!-- 4&#45;&gt;0 -->
<g id="edge1" class="edge"><title>4&#45;&gt;0</title>
<path fill="none" stroke="black" stroke-width="2" d="M253.174,-97.8039C235.561,-92.897 209.882,-85.743 189.829,-80.1561"/>
<polygon fill="black" stroke="black" stroke-width="2" points="190.5,-76.7098 179.927,-77.3976 188.621,-83.453 190.5,-76.7098"/>
</g>
<!-- 4&#45;&gt;1 -->
<g id="edge5" class="edge"><title>4&#45;&gt;1</title>
<path fill="none" stroke="black" stroke-width="2" d="M255.601,-114.791C238.283,-126.163 211.949,-144.853 192.546,-164.895 180.864,-176.962 169.889,-192.119 161.444,-204.967"/>
<polygon fill="black" stroke="black" stroke-width="2" points="158.472,-203.118 156.025,-213.426 164.366,-206.894 158.472,-203.118"/>
</g>
<!-- 5&#45;&gt;0 -->
<g id="edge2" class="edge"><title>5&#45;&gt;0</title>
<path fill="none" stroke="black" stroke-width="2" d="M68.0609,-138.745C85.8062,-125.692 113.486,-105.329 133.703,-90.4575"/>
<polygon fill="black" stroke="black" stroke-width="2" points="135.878,-93.2024 141.86,-84.4574 131.73,-87.5637 135.878,-93.2024"/>
</g>
<!-- 5&#45;&gt;1 -->
<g id="edge6" class="edge"><title>5&#45;&gt;1</title>
<path fill="none" stroke="black" stroke-width="2" d="M67.0635,-165.584C81.9717,-178.256 104.122,-197.083 121.021,-211.448"/>
<polygon fill="black" stroke="black" stroke-width="2" points="118.955,-214.285 128.841,-218.095 123.488,-208.952 118.955,-214.285"/>
</g>
<!-- 5&#45;&gt;2 -->
<g id="edge10" class="edge"><title>5&#45;&gt;2</title>
<path fill="none" stroke="black" stroke-width="2" d="M62.8652,-134.277C78.7366,-111.873 106.52,-72.6555 124.831,-46.8075"/>
<polygon fill="black" stroke="black" stroke-width="2" points="127.722,-48.781 130.647,-38.5978 122.01,-44.7345 127.722,-48.781"/>
</g>
<!-- 6&#45;&gt;2 -->
<g id="edge11" class="edge"><title>6&#45;&gt;2</title>
<path fill="none" stroke="black" stroke-width="2" d="M210.268,-162.185C208.205,-134.658 201.246,-86.3555 177.894,-53.0617 174.984,-48.9128 171.446,-44.9124 167.751,-41.2302"/>
<polygon fill="black" stroke="black" stroke-width="2" points="169.823,-38.3804 160.1,-34.1735 165.078,-43.526 169.823,-38.3804"/>
</g>
<!-- 6&#45;&gt;3 -->
<g id="edge14" class="edge"><title>6&#45;&gt;3</title>
<path fill="none" stroke="black" stroke-width="2" d="M190.811,-189.95C177.718,-194.19 160.369,-199.982 145.212,-205.624 116.782,-216.206 85.2199,-230.448 63.1345,-240.838"/>
<polygon fill="black" stroke="black" stroke-width="2" points="61.5286,-237.726 53.9932,-245.174 64.5283,-244.051 61.5286,-237.726"/>
</g>
<!-- 6&#45;&gt;4 -->
<g id="edge16" class="edge"><title>6&#45;&gt;4</title>
<path fill="none" stroke="black" stroke-width="2" d="M224.377,-166.547C232.994,-155.514 244.38,-140.935 254.032,-128.575"/>
<polygon fill="black" stroke="black" stroke-width="2" points="256.985,-130.48 260.382,-120.444 251.468,-126.171 256.985,-130.48"/>
</g>
<!-- 7&#45;&gt;3 -->
<g id="edge15" class="edge"><title>7&#45;&gt;3</title>
<path fill="none" stroke="black" stroke-width="2" d="M22.0017,-110.805C22.5134,-122.759 23.2761,-137.959 24.296,-151.473 26.1175,-175.608 28.9066,-202.849 31.143,-223.266"/>
<polygon fill="black" stroke="black" stroke-width="2" points="27.6713,-223.715 32.2542,-233.267 34.6285,-222.942 27.6713,-223.715"/>
</g>
<!-- 7&#45;&gt;5 -->
<g id="edge17" class="edge"><title>7&#45;&gt;5</title>
<path fill="none" stroke="black" stroke-width="2" d="M30.3503,-108.872C32.4311,-113.262 34.6863,-118.019 36.9107,-122.711"/>
<polygon fill="black" stroke="black" stroke-width="2" points="33.9213,-124.576 41.3674,-132.113 40.2466,-121.578 33.9213,-124.576"/>
</g>
</g>
</svg>

