<?xml version="1.0" encoding="UTF-8" standalone="no"?>
<!DOCTYPE svg PUBLIC "-//W3C//DTD SVG 1.1//EN"
 "http://www.w3.org/Graphics/SVG/1.1/DTD/svg11.dtd">
<!-- Generated by graphviz version 2.36.0 (20140111.2315)
 -->
<!-- Title: G Pages: 1 -->
<svg width="100%" height="100%"
 viewBox="0.00 0.00 314.43 332.06" xmlns="http://www.w3.org/2000/svg" xmlns:xlink="http://www.w3.org/1999/xlink">
<g id="graph0" class="graph" transform="scale(1 1) rotate(0) translate(4 328.062)">
<title>G</title>
<!-- 0 -->
<g id="node1" class="node"><title>0</title>
<ellipse fill="cadetblue" stroke="black" cx="21.2132" cy="-104.211" rx="21.4286" ry="21.4286"/>
<text text-anchor="middle" x="21.2132" y="-99.2108" font-family="Times New Roman,serif" font-size="20.00">2</text>
</g>
<!-- 5 -->
<g id="node6" class="node"><title>5</title>
<ellipse fill="cadetblue" stroke="black" cx="118.209" cy="-37.201" rx="21.4286" ry="21.4286"/>
<text text-anchor="middle" x="118.209" y="-32.201" font-family="Times New Roman,serif" font-size="20.00">2</text>
</g>
<!-- 0&#45;&gt;5 -->
<g id="edge2" class="edge"><title>0&#45;&gt;5</title>
<path fill="none" stroke="black" stroke-width="2" d="M39.0038,-91.9202C53.9072,-81.6241 75.3828,-66.7877 92.2132,-55.1605"/>
<polygon fill="black" stroke="black" stroke-width="2" points="94.2934,-57.9774 100.532,-49.4137 90.3146,-52.2181 94.2934,-57.9774"/>
</g>
<!-- 7 -->
<g id="node8" class="node"><title>7</title>
<ellipse fill="brown" stroke="black" cx="149.307" cy="-138.83" rx="21.4286" ry="21.4286"/>
<text text-anchor="middle" x="149.307" y="-133.83" font-family="Times New Roman,serif" font-size="20.00">3</text>
</g>
<!-- 0&#45;&gt;7 -->
<g id="edge4" class="edge"><title>0&#45;&gt;7</title>
<path fill="none" stroke="black" stroke-width="2" d="M41.7937,-109.773C62.6161,-115.4 95.0442,-124.164 118.844,-130.597"/>
<polygon fill="black" stroke="black" stroke-width="2" points="118.211,-134.051 128.778,-133.281 120.037,-127.293 118.211,-134.051"/>
</g>
<!-- 1 -->
<g id="node2" class="node"><title>1</title>
<ellipse fill="cadetblue" stroke="black" cx="144.575" cy="-302.849" rx="21.4286" ry="21.4286"/>
<text text-anchor="middle" x="144.575" y="-297.849" font-family="Times New Roman,serif" font-size="20.00">2</text>
</g>
<!-- 4 -->
<g id="node5" class="node"><title>4</title>
<ellipse fill="cadetblue" stroke="black" cx="52.7114" cy="-206.282" rx="21.4286" ry="21.4286"/>
<text text-anchor="middle" x="52.7114" y="-201.282" font-family="Times New Roman,serif" font-size="20.00">2</text>
</g>
<!-- 1&#45;&gt;4 -->
<g id="edge5" class="edge"><title>1&#45;&gt;4</title>
<path fill="none" stroke="black" stroke-width="2" d="M129.816,-287.334C114.816,-271.566 91.418,-246.97 74.3291,-229.006"/>
<polygon fill="black" stroke="black" stroke-width="2" points="76.8627,-226.591 67.4343,-221.758 71.7909,-231.416 76.8627,-226.591"/>
</g>
<!-- 2 -->
<g id="node3" class="node"><title>2</title>
<ellipse fill="cadetblue" stroke="black" cx="231.142" cy="-21.2132" rx="21.4286" ry="21.4286"/>
<text text-anchor="middle" x="231.142" y="-16.2132" font-family="Times New Roman,serif" font-size="20.00">2</text>
</g>
<!-- 6 -->
<g id="node7" class="node"><title>6</title>
<ellipse fill="cadetblue" stroke="black" cx="188.83" cy="-189.261" rx="21.4286" ry="21.4286"/>
<text text-anchor="middle" x="188.83" y="-184.261" font-family="Times New Roman,serif" font-size="20.00">2</text>
</g>
<!-- 2&#45;&gt;6 -->
<g id="edge9" class="edge"><title>2&#45;&gt;6</title>
<path fill="none" stroke="black" stroke-width="2" d="M225.953,-41.8192C218.594,-71.0483 205.071,-124.756 196.537,-158.652"/>
<polygon fill="black" stroke="black" stroke-width="2" points="193.109,-157.935 194.061,-168.486 199.897,-159.644 193.109,-157.935"/>
</g>
<!-- 3 -->
<g id="node4" class="node"><title>3</title>
<ellipse fill="cadetblue" stroke="black" cx="285.215" cy="-112.612" rx="21.4286" ry="21.4286"/>
<text text-anchor="middle" x="285.215" y="-107.612" font-family="Times New Roman,serif" font-size="20.00">2</text>
</g>
<!-- 3&#45;&gt;7 -->
<g id="edge13" class="edge"><title>3&#45;&gt;7</title>
<path fill="none" stroke="black" stroke-width="2" d="M264.277,-116.651C241.896,-120.969 206.168,-127.861 180.478,-132.816"/>
<polygon fill="black" stroke="black" stroke-width="2" points="179.649,-129.412 170.493,-134.743 180.975,-136.285 179.649,-129.412"/>
</g>
<!-- 4&#45;&gt;0 -->
<g id="edge1" class="edge"><title>4&#45;&gt;0</title>
<path fill="none" stroke="black" stroke-width="2" d="M46.3373,-185.626C41.782,-170.864 35.5814,-150.771 30.4801,-134.24"/>
<polygon fill="black" stroke="black" stroke-width="2" points="33.7635,-133.011 27.4704,-124.487 27.0748,-135.075 33.7635,-133.011"/>
</g>
<!-- 4&#45;&gt;5 -->
<g id="edge14" class="edge"><title>4&#45;&gt;5</title>
<path fill="none" stroke="black" stroke-width="2" d="M60.4821,-186.222C71.9552,-156.604 93.4983,-100.992 106.776,-66.7157"/>
<polygon fill="black" stroke="black" stroke-width="2" points="110.1,-67.8237 110.449,-57.2346 103.573,-65.2951 110.1,-67.8237"/>
</g>
<!-- 4&#45;&gt;6 -->
<g id="edge15" class="edge"><title>4&#45;&gt;6</title>
<path fill="none" stroke="black" stroke-width="2" d="M73.98,-203.622C96.4555,-200.812 132.126,-196.351 157.752,-193.147"/>
<polygon fill="black" stroke="black" stroke-width="2" points="158.223,-196.616 167.711,-191.902 157.354,-189.67 158.223,-196.616"/>
</g>
<!-- 5&#45;&gt;2 -->
<g id="edge8" class="edge"><title>5&#45;&gt;2</title>
<path fill="none" stroke="black" stroke-width="2" d="M139.451,-34.1938C156.487,-31.7821 180.645,-28.3621 199.887,-25.6379"/>
<polygon fill="black" stroke="black" stroke-width="2" points="200.585,-29.0742 209.995,-24.2069 199.603,-22.1433 200.585,-29.0742"/>
</g>
<!-- 5&#45;&gt;3 -->
<g id="edge11" class="edge"><title>5&#45;&gt;3</title>
<path fill="none" stroke="black" stroke-width="2" d="M137.694,-45.9992C166.983,-59.2246 222.533,-84.3082 256.48,-99.6365"/>
<polygon fill="black" stroke="black" stroke-width="2" points="255.3,-102.944 265.855,-103.87 258.181,-96.5645 255.3,-102.944"/>
</g>
<!-- 5&#45;&gt;7 -->
<g id="edge17" class="edge"><title>5&#45;&gt;7</title>
<path fill="none" stroke="black" stroke-width="2" d="M124.502,-57.7671C128.97,-72.3686 135.042,-92.2094 140.059,-108.607"/>
<polygon fill="black" stroke="black" stroke-width="2" points="136.751,-109.756 143.024,-118.294 143.444,-107.708 136.751,-109.756"/>
</g>
<!-- 6&#45;&gt;0 -->
<g id="edge3" class="edge"><title>6&#45;&gt;0</title>
<path fill="none" stroke="black" stroke-width="2" d="M169.602,-179.505C140.048,-164.509 83.3078,-135.718 49.1965,-118.41"/>
<polygon fill="black" stroke="black" stroke-width="2" points="50.7182,-115.257 40.2168,-113.853 47.5507,-121.499 50.7182,-115.257"/>
</g>
<!-- 6&#45;&gt;1 -->
<g id="edge6" class="edge"><title>6&#45;&gt;1</title>
<path fill="none" stroke="black" stroke-width="2" d="M181.122,-209.046C174.184,-226.854 163.896,-253.258 156.002,-273.52"/>
<polygon fill="black" stroke="black" stroke-width="2" points="152.713,-272.32 152.344,-282.909 159.236,-274.862 152.713,-272.32"/>
</g>
<!-- 6&#45;&gt;3 -->
<g id="edge12" class="edge"><title>6&#45;&gt;3</title>
<path fill="none" stroke="black" stroke-width="2" d="M205.619,-175.91C220.73,-163.893 243.135,-146.076 260.328,-132.403"/>
<polygon fill="black" stroke="black" stroke-width="2" points="262.647,-135.031 268.295,-126.067 258.29,-129.552 262.647,-135.031"/>
</g>
<!-- 7&#45;&gt;1 -->
<g id="edge7" class="edge"><title>7&#45;&gt;1</title>
<path fill="none" stroke="black" stroke-width="2" d="M148.689,-160.272C147.874,-188.514 146.435,-238.407 145.493,-271.049"/>
<polygon fill="black" stroke="black" stroke-width="2" points="141.984,-271.304 145.194,-281.401 148.981,-271.506 141.984,-271.304"/>
</g>
<!-- 7&#45;&gt;2 -->
<g id="edge10" class="edge"><title>7&#45;&gt;2</title>
<path fill="none" stroke="black" stroke-width="2" d="M161.559,-121.221C175.178,-101.647 197.313,-69.8333 212.955,-47.3512"/>
<polygon fill="black" stroke="black" stroke-width="2" points="215.968,-49.1495 218.806,-38.9419 210.222,-45.1516 215.968,-49.1495"/>
</g>
<!-- 7&#45;&gt;4 -->
<g id="edge16" class="edge"><title>7&#45;&gt;4</title>
<path fill="none" stroke="black" stroke-width="2" d="M131.59,-151.201C116.748,-161.565 95.3613,-176.5 78.6003,-188.204"/>
<polygon fill="black" stroke="black" stroke-width="2" points="76.5113,-185.393 70.3163,-193.988 80.519,-191.133 76.5113,-185.393"/>
</g>
</g>
</svg>

