<?xml version="1.0" encoding="UTF-8" standalone="no"?>
<!DOCTYPE svg PUBLIC "-//W3C//DTD SVG 1.1//EN"
 "http://www.w3.org/Graphics/SVG/1.1/DTD/svg11.dtd">
<!-- Generated by graphviz version 2.36.0 (20140111.2315)
 -->
<!-- Title: G Pages: 1 -->
<svg width="100%" height="100%"
 viewBox="0.00 0.00 221.13 192.51" xmlns="http://www.w3.org/2000/svg" xmlns:xlink="http://www.w3.org/1999/xlink">
<g id="graph0" class="graph" transform="scale(1 1) rotate(0) translate(4 188.514)">
<title>G</title>
<!-- 0 -->
<g id="node1" class="node"><title>0</title>
<ellipse fill="cadetblue" stroke="black" cx="75.9185" cy="-148.344" rx="21.4286" ry="21.4286"/>
<text text-anchor="middle" x="75.9185" y="-143.344" font-family="Times New Roman,serif" font-size="20.00">2</text>
</g>
<!-- 6 -->
<g id="node7" class="node"><title>6</title>
<ellipse fill="cadetblue" stroke="black" cx="120.346" cy="-23.8566" rx="21.4286" ry="21.4286"/>
<text text-anchor="middle" x="120.346" y="-18.8566" font-family="Times New Roman,serif" font-size="20.00">2</text>
</g>
<!-- 0&#45;&gt;6 -->
<g id="edge3" class="edge"><title>0&#45;&gt;6</title>
<path fill="none" stroke="black" stroke-width="2" d="M83.0565,-128.343C90.2357,-108.227 101.393,-76.9645 109.633,-53.8734"/>
<polygon fill="black" stroke="black" stroke-width="2" points="113.013,-54.8163 113.078,-44.2216 106.42,-52.4634 113.013,-54.8163"/>
</g>
<!-- 7 -->
<g id="node8" class="node"><title>7</title>
<ellipse fill="cadetblue" stroke="black" cx="95.6971" cy="-74.2881" rx="21.4286" ry="21.4286"/>
<text text-anchor="middle" x="95.6971" y="-69.2881" font-family="Times New Roman,serif" font-size="20.00">2</text>
</g>
<!-- 0&#45;&gt;7 -->
<g id="edge4" class="edge"><title>0&#45;&gt;7</title>
<path fill="none" stroke="black" stroke-width="2" d="M81.4279,-127.715C83.3354,-120.573 85.5152,-112.412 87.5873,-104.653"/>
<polygon fill="black" stroke="black" stroke-width="2" points="91.0183,-105.371 90.2172,-94.8062 84.2553,-103.564 91.0183,-105.371"/>
</g>
<!-- 1 -->
<g id="node2" class="node"><title>1</title>
<ellipse fill="cadetblue" stroke="black" cx="24.5476" cy="-21.2132" rx="21.4286" ry="21.4286"/>
<text text-anchor="middle" x="24.5476" y="-16.2132" font-family="Times New Roman,serif" font-size="20.00">2</text>
</g>
<!-- 4 -->
<g id="node5" class="node"><title>4</title>
<ellipse fill="cadetblue" stroke="black" cx="21.2132" cy="-120.186" rx="21.4286" ry="21.4286"/>
<text text-anchor="middle" x="21.2132" y="-115.186" font-family="Times New Roman,serif" font-size="20.00">2</text>
</g>
<!-- 1&#45;&gt;4 -->
<g id="edge5" class="edge"><title>1&#45;&gt;4</title>
<path fill="none" stroke="black" stroke-width="2" d="M23.8241,-42.6887C23.374,-56.0473 22.7872,-73.4664 22.2839,-88.4057"/>
<polygon fill="black" stroke="black" stroke-width="2" points="18.7741,-88.6397 21.9353,-98.7519 25.7701,-88.8755 18.7741,-88.6397"/>
</g>
<!-- 2 -->
<g id="node3" class="node"><title>2</title>
<ellipse fill="cadetblue" stroke="black" cx="190.868" cy="-52.3306" rx="21.4286" ry="21.4286"/>
<text text-anchor="middle" x="190.868" y="-47.3306" font-family="Times New Roman,serif" font-size="20.00">2</text>
</g>
<!-- 2&#45;&gt;6 -->
<g id="edge9" class="edge"><title>2&#45;&gt;6</title>
<path fill="none" stroke="black" stroke-width="2" d="M170.848,-44.2473C164.241,-41.5796 156.75,-38.555 149.598,-35.6676"/>
<polygon fill="black" stroke="black" stroke-width="2" points="150.755,-32.3602 140.172,-31.8616 148.134,-38.8511 150.755,-32.3602"/>
</g>
<!-- 3 -->
<g id="node4" class="node"><title>3</title>
<ellipse fill="cadetblue" stroke="black" cx="191.913" cy="-104.347" rx="21.4286" ry="21.4286"/>
<text text-anchor="middle" x="191.913" y="-99.3465" font-family="Times New Roman,serif" font-size="20.00">2</text>
</g>
<!-- 5 -->
<g id="node6" class="node"><title>5</title>
<ellipse fill="cadetblue" stroke="black" cx="141.964" cy="-163.301" rx="21.4286" ry="21.4286"/>
<text text-anchor="middle" x="141.964" y="-158.301" font-family="Times New Roman,serif" font-size="20.00">2</text>
</g>
<!-- 3&#45;&gt;5 -->
<g id="edge11" class="edge"><title>3&#45;&gt;5</title>
<path fill="none" stroke="black" stroke-width="2" d="M177.999,-120.769C173.128,-126.518 167.553,-133.098 162.268,-139.336"/>
<polygon fill="black" stroke="black" stroke-width="2" points="159.597,-137.075 155.803,-146.967 164.938,-141.6 159.597,-137.075"/>
</g>
<!-- 4&#45;&gt;0 -->
<g id="edge1" class="edge"><title>4&#45;&gt;0</title>
<path fill="none" stroke="black" stroke-width="2" d="M40.3465,-130.034C42.7478,-131.27 45.2424,-132.554 47.7461,-133.843"/>
<polygon fill="black" stroke="black" stroke-width="2" points="46.2105,-136.989 56.7036,-138.454 49.4141,-130.765 46.2105,-136.989"/>
</g>
<!-- 4&#45;&gt;5 -->
<g id="edge14" class="edge"><title>4&#45;&gt;5</title>
<path fill="none" stroke="black" stroke-width="2" d="M41.4242,-127.402C60.7537,-134.304 90.1353,-144.795 112.152,-152.656"/>
<polygon fill="black" stroke="black" stroke-width="2" points="111.092,-155.994 121.687,-156.061 113.446,-149.402 111.092,-155.994"/>
</g>
<!-- 5&#45;&gt;0 -->
<g id="edge2" class="edge"><title>5&#45;&gt;0</title>
<path fill="none" stroke="black" stroke-width="2" d="M121.067,-158.569C116.489,-157.532 111.551,-156.414 106.678,-155.31"/>
<polygon fill="black" stroke="black" stroke-width="2" points="107.433,-151.892 96.9065,-153.097 105.886,-158.72 107.433,-151.892"/>
</g>
<!-- 5&#45;&gt;2 -->
<g id="edge8" class="edge"><title>5&#45;&gt;2</title>
<path fill="none" stroke="black" stroke-width="2" d="M150.595,-143.717C158.195,-126.471 169.369,-101.116 178.02,-81.4849"/>
<polygon fill="black" stroke="black" stroke-width="2" points="181.329,-82.6542 182.159,-72.092 174.924,-79.8313 181.329,-82.6542"/>
</g>
<!-- 6&#45;&gt;1 -->
<g id="edge6" class="edge"><title>6&#45;&gt;1</title>
<path fill="none" stroke="black" stroke-width="2" d="M99.0852,-23.27C86.5223,-22.9233 70.3748,-22.4777 56.323,-22.09"/>
<polygon fill="black" stroke="black" stroke-width="2" points="56.173,-18.5846 46.0802,-21.8074 55.9798,-25.582 56.173,-18.5846"/>
</g>
<!-- 6&#45;&gt;3 -->
<g id="edge12" class="edge"><title>6&#45;&gt;3</title>
<path fill="none" stroke="black" stroke-width="2" d="M134.485,-39.7588C144.875,-51.4445 159.165,-67.5162 170.891,-80.7038"/>
<polygon fill="black" stroke="black" stroke-width="2" points="168.542,-83.3298 177.803,-88.4774 173.774,-78.6785 168.542,-83.3298"/>
</g>
<!-- 6&#45;&gt;7 -->
<g id="edge16" class="edge"><title>6&#45;&gt;7</title>
<path fill="none" stroke="black" stroke-width="2" d="M111.027,-42.9226C110.536,-43.9267 110.039,-44.9447 109.538,-45.9697"/>
<polygon fill="black" stroke="black" stroke-width="2" points="106.276,-44.6739 105.029,-55.1951 112.565,-47.7478 106.276,-44.6739"/>
</g>
<!-- 7&#45;&gt;1 -->
<g id="edge7" class="edge"><title>7&#45;&gt;1</title>
<path fill="none" stroke="black" stroke-width="2" d="M78.4738,-61.4401C69.8217,-54.986 59.1754,-47.0443 49.6344,-39.927"/>
<polygon fill="black" stroke="black" stroke-width="2" points="51.7206,-37.1167 41.6123,-33.9428 47.5351,-42.7276 51.7206,-37.1167"/>
</g>
<!-- 7&#45;&gt;2 -->
<g id="edge10" class="edge"><title>7&#45;&gt;2</title>
<path fill="none" stroke="black" stroke-width="2" d="M116.819,-69.415C129.598,-66.4666 146.111,-62.6568 160.299,-59.3834"/>
<polygon fill="black" stroke="black" stroke-width="2" points="161.176,-62.7731 170.133,-57.1145 159.602,-55.9523 161.176,-62.7731"/>
</g>
<!-- 7&#45;&gt;3 -->
<g id="edge13" class="edge"><title>7&#45;&gt;3</title>
<path fill="none" stroke="black" stroke-width="2" d="M116.102,-80.6627C129.368,-84.8073 146.899,-90.2839 161.76,-94.9267"/>
<polygon fill="black" stroke="black" stroke-width="2" points="160.948,-98.3398 171.537,-97.9811 163.036,-91.6583 160.948,-98.3398"/>
</g>
<!-- 7&#45;&gt;4 -->
<g id="edge15" class="edge"><title>7&#45;&gt;4</title>
<path fill="none" stroke="black" stroke-width="2" d="M77.2853,-85.6335C68.4459,-91.0804 57.6859,-97.7108 47.9643,-103.701"/>
<polygon fill="black" stroke="black" stroke-width="2" points="46.0905,-100.745 39.4132,-108.971 49.7628,-106.704 46.0905,-100.745"/>
</g>
</g>
</svg>

