<?xml version="1.0" encoding="UTF-8" standalone="no"?>
<!DOCTYPE svg PUBLIC "-//W3C//DTD SVG 1.1//EN"
 "http://www.w3.org/Graphics/SVG/1.1/DTD/svg11.dtd">
<!-- Generated by graphviz version 2.36.0 (20140111.2315)
 -->
<!-- Title: G Pages: 1 -->
<svg width="100%" height="100%"
 viewBox="0.00 0.00 257.52 211.58" xmlns="http://www.w3.org/2000/svg" xmlns:xlink="http://www.w3.org/1999/xlink">
<g id="graph0" class="graph" transform="scale(1 1) rotate(0) translate(4 207.58)">
<title>G</title>
<!-- 0 -->
<g id="node1" class="node"><title>0</title>
<ellipse fill="cadetblue" stroke="black" cx="49.9655" cy="-118.413" rx="21.4286" ry="21.4286"/>
<text text-anchor="middle" x="49.9655" y="-113.413" font-family="Times New Roman,serif" font-size="20.00">2</text>
</g>
<!-- 6 -->
<g id="node7" class="node"><title>6</title>
<ellipse fill="cadetblue" stroke="black" cx="121.417" cy="-31.9273" rx="21.4286" ry="21.4286"/>
<text text-anchor="middle" x="121.417" y="-26.9273" font-family="Times New Roman,serif" font-size="20.00">2</text>
</g>
<!-- 0&#45;&gt;6 -->
<g id="edge3" class="edge"><title>0&#45;&gt;6</title>
<path fill="none" stroke="black" stroke-width="2" d="M63.7421,-101.738C74.3187,-88.9359 89.0858,-71.0615 101.03,-56.6045"/>
<polygon fill="black" stroke="black" stroke-width="2" points="104.012,-58.4901 107.683,-48.5515 98.6151,-54.0316 104.012,-58.4901"/>
</g>
<!-- 7 -->
<g id="node8" class="node"><title>7</title>
<ellipse fill="brown" stroke="black" cx="122.337" cy="-90.9073" rx="21.4286" ry="21.4286"/>
<text text-anchor="middle" x="122.337" y="-85.9073" font-family="Times New Roman,serif" font-size="20.00">3</text>
</g>
<!-- 0&#45;&gt;7 -->
<g id="edge4" class="edge"><title>0&#45;&gt;7</title>
<path fill="none" stroke="black" stroke-width="2" d="M70.1251,-110.751C77.1831,-108.069 85.2603,-104.999 92.9183,-102.089"/>
<polygon fill="black" stroke="black" stroke-width="2" points="94.1818,-105.353 102.286,-98.5282 91.6948,-98.8093 94.1818,-105.353"/>
</g>
<!-- 1 -->
<g id="node2" class="node"><title>1</title>
<ellipse fill="cadetblue" stroke="black" cx="21.2132" cy="-57.9209" rx="21.4286" ry="21.4286"/>
<text text-anchor="middle" x="21.2132" y="-52.9209" font-family="Times New Roman,serif" font-size="20.00">2</text>
</g>
<!-- 1&#45;&gt;7 -->
<g id="edge7" class="edge"><title>1&#45;&gt;7</title>
<path fill="none" stroke="black" stroke-width="2" d="M41.6772,-64.5962C56.2063,-69.3356 75.9486,-75.7754 92.2647,-81.0977"/>
<polygon fill="black" stroke="black" stroke-width="2" points="91.3114,-84.4681 101.904,-84.2419 93.4823,-77.8133 91.3114,-84.4681"/>
</g>
<!-- 2 -->
<g id="node3" class="node"><title>2</title>
<ellipse fill="cadetblue" stroke="black" cx="201.343" cy="-21.2132" rx="21.4286" ry="21.4286"/>
<text text-anchor="middle" x="201.343" y="-16.2132" font-family="Times New Roman,serif" font-size="20.00">2</text>
</g>
<!-- 2&#45;&gt;7 -->
<g id="edge10" class="edge"><title>2&#45;&gt;7</title>
<path fill="none" stroke="black" stroke-width="2" d="M185.355,-35.3168C174.004,-45.3302 158.58,-58.9364 145.832,-70.1814"/>
<polygon fill="black" stroke="black" stroke-width="2" points="143.485,-67.5845 138.302,-76.8246 148.116,-72.834 143.485,-67.5845"/>
</g>
<!-- 3 -->
<g id="node4" class="node"><title>3</title>
<ellipse fill="cadetblue" stroke="black" cx="228.306" cy="-98.1723" rx="21.4286" ry="21.4286"/>
<text text-anchor="middle" x="228.306" y="-93.1723" font-family="Times New Roman,serif" font-size="20.00">2</text>
</g>
<!-- 3&#45;&gt;6 -->
<g id="edge12" class="edge"><title>3&#45;&gt;6</title>
<path fill="none" stroke="black" stroke-width="2" d="M210.173,-86.9348C193.205,-76.4186 167.641,-60.5751 148.3,-48.5883"/>
<polygon fill="black" stroke="black" stroke-width="2" points="149.982,-45.5129 139.638,-43.22 146.294,-51.4629 149.982,-45.5129"/>
</g>
<!-- 4 -->
<g id="node5" class="node"><title>4</title>
<ellipse fill="cadetblue" stroke="black" cx="65.453" cy="-182.367" rx="21.4286" ry="21.4286"/>
<text text-anchor="middle" x="65.453" y="-177.367" font-family="Times New Roman,serif" font-size="20.00">2</text>
</g>
<!-- 4&#45;&gt;0 -->
<g id="edge1" class="edge"><title>4&#45;&gt;0</title>
<path fill="none" stroke="black" stroke-width="2" d="M60.3818,-161.426C59.4362,-157.521 58.43,-153.366 57.4301,-149.237"/>
<polygon fill="black" stroke="black" stroke-width="2" points="60.7506,-148.078 54.9952,-139.183 53.9473,-149.726 60.7506,-148.078"/>
</g>
<!-- 4&#45;&gt;1 -->
<g id="edge5" class="edge"><title>4&#45;&gt;1</title>
<path fill="none" stroke="black" stroke-width="2" d="M50.5914,-166.807C40.293,-154.711 27.7296,-136.92 23.6612,-118.389 21.6149,-109.069 20.7124,-98.7516 20.3997,-89.3171"/>
<polygon fill="black" stroke="black" stroke-width="2" points="23.8972,-89.0946 20.2678,-79.1409 16.8978,-89.1854 23.8972,-89.0946"/>
</g>
<!-- 5 -->
<g id="node6" class="node"><title>5</title>
<ellipse fill="cadetblue" stroke="black" cx="160.214" cy="-141.339" rx="21.4286" ry="21.4286"/>
<text text-anchor="middle" x="160.214" y="-136.339" font-family="Times New Roman,serif" font-size="20.00">2</text>
</g>
<!-- 5&#45;&gt;0 -->
<g id="edge2" class="edge"><title>5&#45;&gt;0</title>
<path fill="none" stroke="black" stroke-width="2" d="M139.218,-136.973C122.666,-133.531 99.3453,-128.682 80.6932,-124.803"/>
<polygon fill="black" stroke="black" stroke-width="2" points="81.387,-121.372 70.8838,-122.763 79.9618,-128.226 81.387,-121.372"/>
</g>
<!-- 5&#45;&gt;2 -->
<g id="edge8" class="edge"><title>5&#45;&gt;2</title>
<path fill="none" stroke="black" stroke-width="2" d="M167.098,-121.232C173.682,-102.003 183.69,-72.7735 191.189,-50.8707"/>
<polygon fill="black" stroke="black" stroke-width="2" points="194.509,-51.9797 194.437,-41.3851 187.886,-49.7122 194.509,-51.9797"/>
</g>
<!-- 5&#45;&gt;3 -->
<g id="edge11" class="edge"><title>5&#45;&gt;3</title>
<path fill="none" stroke="black" stroke-width="2" d="M178.462,-129.771C185.483,-125.319 193.657,-120.138 201.33,-115.273"/>
<polygon fill="black" stroke="black" stroke-width="2" points="203.436,-118.082 210.008,-109.772 199.688,-112.17 203.436,-118.082"/>
</g>
<!-- 5&#45;&gt;4 -->
<g id="edge14" class="edge"><title>5&#45;&gt;4</title>
<path fill="none" stroke="black" stroke-width="2" d="M140.58,-149.84C127.239,-155.616 109.366,-163.354 94.4005,-169.834"/>
<polygon fill="black" stroke="black" stroke-width="2" points="92.8486,-166.692 85.0625,-173.877 95.6299,-173.115 92.8486,-166.692"/>
</g>
<!-- 6&#45;&gt;1 -->
<g id="edge6" class="edge"><title>6&#45;&gt;1</title>
<path fill="none" stroke="black" stroke-width="2" d="M100.655,-37.3132C86.5473,-40.9727 67.6484,-45.8753 51.8232,-49.9804"/>
<polygon fill="black" stroke="black" stroke-width="2" points="50.7496,-46.643 41.9489,-52.5419 52.5074,-53.4187 50.7496,-46.643"/>
</g>
<!-- 6&#45;&gt;2 -->
<g id="edge9" class="edge"><title>6&#45;&gt;2</title>
<path fill="none" stroke="black" stroke-width="2" d="M142.836,-29.0561C151.235,-27.9302 161.038,-26.6161 170.192,-25.3889"/>
<polygon fill="black" stroke="black" stroke-width="2" points="170.696,-28.8528 180.142,-24.0551 169.766,-21.9149 170.696,-28.8528"/>
</g>
<!-- 6&#45;&gt;5 -->
<g id="edge16" class="edge"><title>6&#45;&gt;5</title>
<path fill="none" stroke="black" stroke-width="2" d="M130.979,-51.1286C134.224,-57.7953 137.816,-65.3449 140.938,-72.3081 144.599,-80.4728 145.92,-82.3848 148.642,-90.9085 150.614,-97.0856 152.395,-103.789 153.934,-110.231"/>
<polygon fill="black" stroke="black" stroke-width="2" points="150.53,-111.043 156.149,-120.025 157.357,-109.499 150.53,-111.043"/>
</g>
<!-- 7&#45;&gt;3 -->
<g id="edge13" class="edge"><title>7&#45;&gt;3</title>
<path fill="none" stroke="black" stroke-width="2" d="M143.527,-92.36C158.732,-93.4025 179.482,-94.825 196.647,-96.0018"/>
<polygon fill="black" stroke="black" stroke-width="2" points="196.574,-99.5049 206.79,-96.6972 197.052,-92.5213 196.574,-99.5049"/>
</g>
<!-- 7&#45;&gt;4 -->
<g id="edge15" class="edge"><title>7&#45;&gt;4</title>
<path fill="none" stroke="black" stroke-width="2" d="M111.099,-108.977C102.84,-122.255 91.482,-140.517 82.1619,-155.502"/>
<polygon fill="black" stroke="black" stroke-width="2" points="78.9776,-153.995 76.6682,-164.335 84.9217,-157.692 78.9776,-153.995"/>
</g>
<!-- 7&#45;&gt;5 -->
<g id="edge17" class="edge"><title>7&#45;&gt;5</title>
<path fill="none" stroke="black" stroke-width="2" d="M135.161,-107.981C137.135,-110.61 139.209,-113.371 141.283,-116.132"/>
<polygon fill="black" stroke="black" stroke-width="2" points="138.6,-118.388 147.404,-124.283 144.197,-114.185 138.6,-118.388"/>
</g>
</g>
</svg>

