<?xml version="1.0" encoding="UTF-8" standalone="no"?>
<!DOCTYPE svg PUBLIC "-//W3C//DTD SVG 1.1//EN"
 "http://www.w3.org/Graphics/SVG/1.1/DTD/svg11.dtd">
<!-- Generated by graphviz version 2.36.0 (20140111.2315)
 -->
<!-- Title: G Pages: 1 -->
<svg width="100%" height="100%"
 viewBox="0.00 0.00 243.88 229.68" xmlns="http://www.w3.org/2000/svg" xmlns:xlink="http://www.w3.org/1999/xlink">
<g id="graph0" class="graph" transform="scale(1 1) rotate(0) translate(4 225.683)">
<title>G</title>
<!-- 0 -->
<g id="node1" class="node"><title>0</title>
<ellipse fill="cadetblue" stroke="black" cx="37.5586" cy="-84.7988" rx="21.4286" ry="21.4286"/>
<text text-anchor="middle" x="37.5586" y="-79.7988" font-family="Times New Roman,serif" font-size="20.00">2</text>
</g>
<!-- 6 -->
<g id="node7" class="node"><title>6</title>
<ellipse fill="cadetblue" stroke="black" cx="124.32" cy="-71.5483" rx="21.4286" ry="21.4286"/>
<text text-anchor="middle" x="124.32" y="-66.5483" font-family="Times New Roman,serif" font-size="20.00">2</text>
</g>
<!-- 0&#45;&gt;6 -->
<g id="edge3" class="edge"><title>0&#45;&gt;6</title>
<path fill="none" stroke="black" stroke-width="2" d="M58.5612,-81.5912C68.9284,-80.0079 81.6436,-78.066 93.121,-76.3131"/>
<polygon fill="black" stroke="black" stroke-width="2" points="93.8535,-79.7419 103.21,-74.7722 92.7966,-72.8222 93.8535,-79.7419"/>
</g>
<!-- 7 -->
<g id="node8" class="node"><title>7</title>
<ellipse fill="brown" stroke="black" cx="126.381" cy="-121.98" rx="21.4286" ry="21.4286"/>
<text text-anchor="middle" x="126.381" y="-116.98" font-family="Times New Roman,serif" font-size="20.00">3</text>
</g>
<!-- 0&#45;&gt;7 -->
<g id="edge4" class="edge"><title>0&#45;&gt;7</title>
<path fill="none" stroke="black" stroke-width="2" d="M57.2711,-93.0504C69.0005,-97.9604 84.1003,-104.281 97.1922,-109.761"/>
<polygon fill="black" stroke="black" stroke-width="2" points="96.1473,-113.118 106.723,-113.751 98.8503,-106.661 96.1473,-113.118"/>
</g>
<!-- 1 -->
<g id="node2" class="node"><title>1</title>
<ellipse fill="cadetblue" stroke="black" cx="196.249" cy="-190.325" rx="21.4286" ry="21.4286"/>
<text text-anchor="middle" x="196.249" y="-185.325" font-family="Times New Roman,serif" font-size="20.00">2</text>
</g>
<!-- 1&#45;&gt;6 -->
<g id="edge7" class="edge"><title>1&#45;&gt;6</title>
<path fill="none" stroke="black" stroke-width="2" d="M185.168,-172.027C173.323,-152.466 154.414,-121.242 140.818,-98.7902"/>
<polygon fill="black" stroke="black" stroke-width="2" points="143.707,-96.8042 135.533,-90.0634 137.719,-100.43 143.707,-96.8042"/>
</g>
<!-- 1&#45;&gt;7 -->
<g id="edge8" class="edge"><title>1&#45;&gt;7</title>
<path fill="none" stroke="black" stroke-width="2" d="M180.743,-175.157C171.426,-166.043 159.406,-154.285 149.038,-144.143"/>
<polygon fill="black" stroke="black" stroke-width="2" points="151.439,-141.596 141.843,-137.105 146.545,-146.6 151.439,-141.596"/>
</g>
<!-- 2 -->
<g id="node3" class="node"><title>2</title>
<ellipse fill="cadetblue" stroke="black" cx="196.774" cy="-21.2132" rx="21.4286" ry="21.4286"/>
<text text-anchor="middle" x="196.774" y="-16.2132" font-family="Times New Roman,serif" font-size="20.00">2</text>
</g>
<!-- 2&#45;&gt;7 -->
<g id="edge11" class="edge"><title>2&#45;&gt;7</title>
<path fill="none" stroke="black" stroke-width="2" d="M184.513,-38.7654C173.477,-54.5626 157.113,-77.9869 144.556,-95.9617"/>
<polygon fill="black" stroke="black" stroke-width="2" points="141.596,-94.0884 138.738,-104.291 147.334,-98.0972 141.596,-94.0884"/>
</g>
<!-- 3 -->
<g id="node4" class="node"><title>3</title>
<ellipse fill="cadetblue" stroke="black" cx="21.2132" cy="-148.502" rx="21.4286" ry="21.4286"/>
<text text-anchor="middle" x="21.2132" y="-143.502" font-family="Times New Roman,serif" font-size="20.00">2</text>
</g>
<!-- 3&#45;&gt;0 -->
<g id="edge1" class="edge"><title>3&#45;&gt;0</title>
<path fill="none" stroke="black" stroke-width="2" d="M26.5653,-127.643C27.5633,-123.754 28.6252,-119.615 29.6806,-115.502"/>
<polygon fill="black" stroke="black" stroke-width="2" points="33.1551,-116.043 32.2503,-105.487 26.3747,-114.303 33.1551,-116.043"/>
</g>
<!-- 4 -->
<g id="node5" class="node"><title>4</title>
<ellipse fill="cadetblue" stroke="black" cx="214.664" cy="-116.273" rx="21.4286" ry="21.4286"/>
<text text-anchor="middle" x="214.664" y="-111.273" font-family="Times New Roman,serif" font-size="20.00">2</text>
</g>
<!-- 4&#45;&gt;1 -->
<g id="edge5" class="edge"><title>4&#45;&gt;1</title>
<path fill="none" stroke="black" stroke-width="2" d="M209.534,-136.9C207.773,-143.983 205.763,-152.068 203.848,-159.768"/>
<polygon fill="black" stroke="black" stroke-width="2" points="200.432,-159.002 201.415,-169.551 207.225,-160.692 200.432,-159.002"/>
</g>
<!-- 4&#45;&gt;2 -->
<g id="edge9" class="edge"><title>4&#45;&gt;2</title>
<path fill="none" stroke="black" stroke-width="2" d="M210.694,-95.1759C208.331,-82.6228 205.29,-66.4627 202.653,-52.4514"/>
<polygon fill="black" stroke="black" stroke-width="2" points="206.023,-51.4312 200.734,-42.251 199.144,-52.7258 206.023,-51.4312"/>
</g>
<!-- 5 -->
<g id="node6" class="node"><title>5</title>
<ellipse fill="cadetblue" stroke="black" cx="114.462" cy="-200.47" rx="21.4286" ry="21.4286"/>
<text text-anchor="middle" x="114.462" y="-195.47" font-family="Times New Roman,serif" font-size="20.00">2</text>
</g>
<!-- 4&#45;&gt;5 -->
<g id="edge14" class="edge"><title>4&#45;&gt;5</title>
<path fill="none" stroke="black" stroke-width="2" d="M198.118,-130.176C182.018,-143.705 157.362,-164.422 138.983,-179.866"/>
<polygon fill="black" stroke="black" stroke-width="2" points="136.438,-177.433 131.033,-186.546 140.941,-182.792 136.438,-177.433"/>
</g>
<!-- 5&#45;&gt;0 -->
<g id="edge2" class="edge"><title>5&#45;&gt;0</title>
<path fill="none" stroke="black" stroke-width="2" d="M102.615,-182.65C89.9501,-163.601 69.7332,-133.193 55.1967,-111.328"/>
<polygon fill="black" stroke="black" stroke-width="2" points="57.9976,-109.219 49.5464,-102.83 52.1684,-113.095 57.9976,-109.219"/>
</g>
<!-- 5&#45;&gt;1 -->
<g id="edge6" class="edge"><title>5&#45;&gt;1</title>
<path fill="none" stroke="black" stroke-width="2" d="M135.525,-197.857C144.423,-196.754 154.973,-195.445 164.764,-194.231"/>
<polygon fill="black" stroke="black" stroke-width="2" points="165.481,-197.668 174.974,-192.964 164.619,-190.722 165.481,-197.668"/>
</g>
<!-- 6&#45;&gt;2 -->
<g id="edge10" class="edge"><title>6&#45;&gt;2</title>
<path fill="none" stroke="black" stroke-width="2" d="M141.859,-59.3636C150.517,-53.349 161.135,-45.9722 170.72,-39.3136"/>
<polygon fill="black" stroke="black" stroke-width="2" points="172.93,-42.0401 179.146,-33.4602 168.936,-36.2912 172.93,-42.0401"/>
</g>
<!-- 6&#45;&gt;3 -->
<g id="edge12" class="edge"><title>6&#45;&gt;3</title>
<path fill="none" stroke="black" stroke-width="2" d="M107.294,-84.2557C90.7275,-96.6203 65.3567,-115.556 46.4446,-129.671"/>
<polygon fill="black" stroke="black" stroke-width="2" points="44.1851,-126.99 38.2645,-135.776 48.372,-132.6 44.1851,-126.99"/>
</g>
<!-- 6&#45;&gt;4 -->
<g id="edge15" class="edge"><title>6&#45;&gt;4</title>
<path fill="none" stroke="black" stroke-width="2" d="M143.48,-81.0332C155.937,-87.2 172.397,-95.3487 186.352,-102.257"/>
<polygon fill="black" stroke="black" stroke-width="2" points="185.017,-105.502 195.532,-106.801 188.123,-99.2281 185.017,-105.502"/>
</g>
<!-- 7&#45;&gt;3 -->
<g id="edge13" class="edge"><title>7&#45;&gt;3</title>
<path fill="none" stroke="black" stroke-width="2" d="M105.603,-127.22C90.3345,-131.07 69.3354,-136.366 52.1045,-140.712"/>
<polygon fill="black" stroke="black" stroke-width="2" points="50.7882,-137.434 41.9477,-143.273 52.5,-144.222 50.7882,-137.434"/>
</g>
<!-- 7&#45;&gt;4 -->
<g id="edge16" class="edge"><title>7&#45;&gt;4</title>
<path fill="none" stroke="black" stroke-width="2" d="M147.752,-120.598C158.379,-119.911 171.431,-119.068 183.177,-118.308"/>
<polygon fill="black" stroke="black" stroke-width="2" points="183.736,-121.779 193.49,-117.642 183.285,-114.794 183.736,-121.779"/>
</g>
<!-- 7&#45;&gt;5 -->
<g id="edge17" class="edge"><title>7&#45;&gt;5</title>
<path fill="none" stroke="black" stroke-width="2" d="M123.187,-143.014C121.958,-151.108 120.527,-160.53 119.184,-169.375"/>
<polygon fill="black" stroke="black" stroke-width="2" points="115.706,-168.966 117.665,-179.378 122.627,-170.016 115.706,-168.966"/>
</g>
</g>
</svg>

