<?xml version="1.0" encoding="UTF-8" standalone="no"?>
<!DOCTYPE svg PUBLIC "-//W3C//DTD SVG 1.1//EN"
 "http://www.w3.org/Graphics/SVG/1.1/DTD/svg11.dtd">
<!-- Generated by graphviz version 2.36.0 (20140111.2315)
 -->
<!-- Title: G Pages: 1 -->
<svg width="100%" height="100%"
 viewBox="0.00 0.00 227.29 207.90" xmlns="http://www.w3.org/2000/svg" xmlns:xlink="http://www.w3.org/1999/xlink">
<g id="graph0" class="graph" transform="scale(1 1) rotate(0) translate(4 203.905)">
<title>G</title>
<!-- 0 -->
<g id="node1" class="node"><title>0</title>
<ellipse fill="cadetblue" stroke="black" cx="21.2132" cy="-66.5445" rx="21.4286" ry="21.4286"/>
<text text-anchor="middle" x="21.2132" y="-61.5445" font-family="Times New Roman,serif" font-size="20.00">2</text>
</g>
<!-- 7 -->
<g id="node8" class="node"><title>7</title>
<ellipse fill="cadetblue" stroke="black" cx="109.922" cy="-63.2468" rx="21.4286" ry="21.4286"/>
<text text-anchor="middle" x="109.922" y="-58.2468" font-family="Times New Roman,serif" font-size="20.00">2</text>
</g>
<!-- 0&#45;&gt;7 -->
<g id="edge3" class="edge"><title>0&#45;&gt;7</title>
<path fill="none" stroke="black" stroke-width="2" d="M42.6872,-65.7462C53.4746,-65.3452 66.7484,-64.8517 78.6441,-64.4095"/>
<polygon fill="black" stroke="black" stroke-width="2" points="78.783,-67.9069 88.6461,-64.0377 78.5229,-60.9117 78.783,-67.9069"/>
</g>
<!-- 1 -->
<g id="node2" class="node"><title>1</title>
<ellipse fill="cadetblue" stroke="black" cx="172.81" cy="-178.691" rx="21.4286" ry="21.4286"/>
<text text-anchor="middle" x="172.81" y="-173.691" font-family="Times New Roman,serif" font-size="20.00">2</text>
</g>
<!-- 6 -->
<g id="node7" class="node"><title>6</title>
<ellipse fill="brown" stroke="black" cx="132.496" cy="-113.678" rx="21.4286" ry="21.4286"/>
<text text-anchor="middle" x="132.496" y="-108.678" font-family="Times New Roman,serif" font-size="20.00">3</text>
</g>
<!-- 1&#45;&gt;6 -->
<g id="edge6" class="edge"><title>1&#45;&gt;6</title>
<path fill="none" stroke="black" stroke-width="2" d="M161.58,-160.582C157.8,-154.486 153.495,-147.543 149.377,-140.903"/>
<polygon fill="black" stroke="black" stroke-width="2" points="152.19,-138.797 143.945,-132.143 146.241,-142.486 152.19,-138.797"/>
</g>
<!-- 1&#45;&gt;7 -->
<g id="edge7" class="edge"><title>1&#45;&gt;7</title>
<path fill="none" stroke="black" stroke-width="2" d="M171.825,-157.482C170.001,-139.287 164.947,-113.214 151.118,-95.1004 147.014,-89.7244 141.79,-84.7702 136.452,-80.4503"/>
<polygon fill="black" stroke="black" stroke-width="2" points="138.218,-77.4005 128.113,-74.2147 134.026,-83.0064 138.218,-77.4005"/>
</g>
<!-- 2 -->
<g id="node3" class="node"><title>2</title>
<ellipse fill="cadetblue" stroke="black" cx="184.177" cy="-21.2132" rx="21.4286" ry="21.4286"/>
<text text-anchor="middle" x="184.177" y="-16.2132" font-family="Times New Roman,serif" font-size="20.00">2</text>
</g>
<!-- 2&#45;&gt;6 -->
<g id="edge9" class="edge"><title>2&#45;&gt;6</title>
<path fill="none" stroke="black" stroke-width="2" d="M173.719,-39.9249C166.293,-53.2099 156.204,-71.2616 147.865,-86.1806"/>
<polygon fill="black" stroke="black" stroke-width="2" points="144.763,-84.5577 142.939,-94.9944 150.873,-87.9729 144.763,-84.5577"/>
</g>
<!-- 3 -->
<g id="node4" class="node"><title>3</title>
<ellipse fill="cadetblue" stroke="black" cx="27.855" cy="-129.03" rx="21.4286" ry="21.4286"/>
<text text-anchor="middle" x="27.855" y="-124.03" font-family="Times New Roman,serif" font-size="20.00">2</text>
</g>
<!-- 3&#45;&gt;0 -->
<g id="edge1" class="edge"><title>3&#45;&gt;0</title>
<path fill="none" stroke="black" stroke-width="2" d="M25.6064,-107.875C25.2602,-104.618 24.8965,-101.197 24.5329,-97.7756"/>
<polygon fill="black" stroke="black" stroke-width="2" points="27.997,-97.2513 23.4595,-87.6773 21.0362,-97.9912 27.997,-97.2513"/>
</g>
<!-- 4 -->
<g id="node5" class="node"><title>4</title>
<ellipse fill="cadetblue" stroke="black" cx="198.074" cy="-107.68" rx="21.4286" ry="21.4286"/>
<text text-anchor="middle" x="198.074" y="-102.68" font-family="Times New Roman,serif" font-size="20.00">2</text>
</g>
<!-- 4&#45;&gt;1 -->
<g id="edge4" class="edge"><title>4&#45;&gt;1</title>
<path fill="none" stroke="black" stroke-width="2" d="M190.902,-127.839C188.628,-134.23 186.061,-141.444 183.592,-148.386"/>
<polygon fill="black" stroke="black" stroke-width="2" points="180.142,-147.641 180.087,-158.235 186.737,-149.987 180.142,-147.641"/>
</g>
<!-- 4&#45;&gt;2 -->
<g id="edge8" class="edge"><title>4&#45;&gt;2</title>
<path fill="none" stroke="black" stroke-width="2" d="M194.639,-86.3061C192.989,-76.0446 190.982,-63.5535 189.168,-52.268"/>
<polygon fill="black" stroke="black" stroke-width="2" points="192.615,-51.659 187.573,-42.3411 185.704,-52.7698 192.615,-51.659"/>
</g>
<!-- 5 -->
<g id="node6" class="node"><title>5</title>
<ellipse fill="cadetblue" stroke="black" cx="94.3219" cy="-173.387" rx="21.4286" ry="21.4286"/>
<text text-anchor="middle" x="94.3219" y="-168.387" font-family="Times New Roman,serif" font-size="20.00">2</text>
</g>
<!-- 4&#45;&gt;5 -->
<g id="edge13" class="edge"><title>4&#45;&gt;5</title>
<path fill="none" stroke="black" stroke-width="2" d="M180.002,-119.125C163.736,-129.426 139.618,-144.701 121.111,-156.421"/>
<polygon fill="black" stroke="black" stroke-width="2" points="119.111,-153.545 112.535,-161.853 122.856,-159.459 119.111,-153.545"/>
</g>
<!-- 5&#45;&gt;0 -->
<g id="edge2" class="edge"><title>5&#45;&gt;0</title>
<path fill="none" stroke="black" stroke-width="2" d="M82.2494,-155.744C70.5026,-138.577 52.5134,-112.287 39.1036,-92.69"/>
<polygon fill="black" stroke="black" stroke-width="2" points="41.8392,-90.4899 33.3035,-84.2136 36.0622,-94.443 41.8392,-90.4899"/>
</g>
<!-- 5&#45;&gt;1 -->
<g id="edge5" class="edge"><title>5&#45;&gt;1</title>
<path fill="none" stroke="black" stroke-width="2" d="M115.769,-174.837C123.642,-175.369 132.728,-175.983 141.301,-176.562"/>
<polygon fill="black" stroke="black" stroke-width="2" points="141.175,-180.061 151.388,-177.244 141.647,-173.077 141.175,-180.061"/>
</g>
<!-- 6&#45;&gt;3 -->
<g id="edge11" class="edge"><title>6&#45;&gt;3</title>
<path fill="none" stroke="black" stroke-width="2" d="M111.32,-116.785C96.286,-118.99 75.8571,-121.987 58.9735,-124.464"/>
<polygon fill="black" stroke="black" stroke-width="2" points="58.3852,-121.013 48.9992,-125.928 59.4014,-127.939 58.3852,-121.013"/>
</g>
<!-- 6&#45;&gt;4 -->
<g id="edge14" class="edge"><title>6&#45;&gt;4</title>
<path fill="none" stroke="black" stroke-width="2" d="M153.969,-111.714C157.973,-111.348 162.233,-110.958 166.467,-110.571"/>
<polygon fill="black" stroke="black" stroke-width="2" points="167.137,-114.024 176.777,-109.628 166.5,-107.053 167.137,-114.024"/>
</g>
<!-- 6&#45;&gt;5 -->
<g id="edge16" class="edge"><title>6&#45;&gt;5</title>
<path fill="none" stroke="black" stroke-width="2" d="M121.043,-131.593C117.947,-136.434 114.531,-141.777 111.206,-146.979"/>
<polygon fill="black" stroke="black" stroke-width="2" points="108.205,-145.175 105.767,-155.485 114.103,-148.945 108.205,-145.175"/>
</g>
<!-- 7&#45;&gt;2 -->
<g id="edge10" class="edge"><title>7&#45;&gt;2</title>
<path fill="none" stroke="black" stroke-width="2" d="M128.66,-52.6399C137.167,-47.8245 147.397,-42.0335 156.745,-36.7418"/>
<polygon fill="black" stroke="black" stroke-width="2" points="158.724,-39.6432 165.703,-31.671 155.276,-33.5514 158.724,-39.6432"/>
</g>
<!-- 7&#45;&gt;3 -->
<g id="edge12" class="edge"><title>7&#45;&gt;3</title>
<path fill="none" stroke="black" stroke-width="2" d="M93.3148,-76.5589C81.5237,-86.0103 65.5018,-98.8529 52.2605,-109.467"/>
<polygon fill="black" stroke="black" stroke-width="2" points="50.0515,-106.752 44.4379,-115.737 54.4297,-112.214 50.0515,-106.752"/>
</g>
<!-- 7&#45;&gt;4 -->
<g id="edge15" class="edge"><title>7&#45;&gt;4</title>
<path fill="none" stroke="black" stroke-width="2" d="M129.05,-72.8881C140.948,-78.8853 156.463,-86.7056 169.768,-93.4124"/>
<polygon fill="black" stroke="black" stroke-width="2" points="168.478,-96.6816 178.984,-98.0573 171.629,-90.4308 168.478,-96.6816"/>
</g>
<!-- 7&#45;&gt;6 -->
<g id="edge17" class="edge"><title>7&#45;&gt;6</title>
<path fill="none" stroke="black" stroke-width="2" d="M118.715,-82.8893C118.97,-83.4597 119.227,-84.0341 119.485,-84.6113"/>
<polygon fill="black" stroke="black" stroke-width="2" points="116.411,-86.3089 123.691,-94.0063 122.8,-83.449 116.411,-86.3089"/>
</g>
</g>
</svg>

