<?xml version="1.0" encoding="UTF-8" standalone="no"?>
<!DOCTYPE svg PUBLIC "-//W3C//DTD SVG 1.1//EN"
 "http://www.w3.org/Graphics/SVG/1.1/DTD/svg11.dtd">
<!-- Generated by graphviz version 2.36.0 (20140111.2315)
 -->
<!-- Title: G Pages: 1 -->
<svg width="100%" height="100%"
 viewBox="0.00 0.00 228.50 329.47" xmlns="http://www.w3.org/2000/svg" xmlns:xlink="http://www.w3.org/1999/xlink">
<g id="graph0" class="graph" transform="scale(1 1) rotate(0) translate(4 325.468)">
<title>G</title>
<!-- 0 -->
<g id="node1" class="node"><title>0</title>
<ellipse fill="cadetblue" stroke="black" cx="21.2132" cy="-225.169" rx="21.4286" ry="21.4286"/>
<text text-anchor="middle" x="21.2132" y="-220.169" font-family="Times New Roman,serif" font-size="20.00">2</text>
</g>
<!-- 6 -->
<g id="node7" class="node"><title>6</title>
<ellipse fill="brown" stroke="black" cx="64.4382" cy="-109.732" rx="21.4286" ry="21.4286"/>
<text text-anchor="middle" x="64.4382" y="-104.732" font-family="Times New Roman,serif" font-size="20.00">3</text>
</g>
<!-- 0&#45;&gt;6 -->
<g id="edge3" class="edge"><title>0&#45;&gt;6</title>
<path fill="none" stroke="black" stroke-width="2" d="M28.7424,-205.061C35.5604,-186.853 45.6904,-159.8 53.4191,-139.16"/>
<polygon fill="black" stroke="black" stroke-width="2" points="56.7663,-140.202 56.9953,-129.609 50.2108,-137.747 56.7663,-140.202"/>
</g>
<!-- 7 -->
<g id="node8" class="node"><title>7</title>
<ellipse fill="cadetblue" stroke="black" cx="114.87" cy="-155.085" rx="21.4286" ry="21.4286"/>
<text text-anchor="middle" x="114.87" y="-150.085" font-family="Times New Roman,serif" font-size="20.00">2</text>
</g>
<!-- 0&#45;&gt;7 -->
<g id="edge4" class="edge"><title>0&#45;&gt;7</title>
<path fill="none" stroke="black" stroke-width="2" d="M38.3912,-212.314C52.7815,-201.546 73.5177,-186.029 89.7686,-173.868"/>
<polygon fill="black" stroke="black" stroke-width="2" points="91.891,-176.652 97.8005,-167.858 87.697,-171.047 91.891,-176.652"/>
</g>
<!-- 1 -->
<g id="node2" class="node"><title>1</title>
<ellipse fill="cadetblue" stroke="black" cx="75.8751" cy="-21.2132" rx="21.4286" ry="21.4286"/>
<text text-anchor="middle" x="75.8751" y="-16.2132" font-family="Times New Roman,serif" font-size="20.00">2</text>
</g>
<!-- 1&#45;&gt;7 -->
<g id="edge7" class="edge"><title>1&#45;&gt;7</title>
<path fill="none" stroke="black" stroke-width="2" d="M81.8826,-41.8373C88.3418,-64.0124 98.6753,-99.4885 106.055,-124.824"/>
<polygon fill="black" stroke="black" stroke-width="2" points="102.762,-126.035 108.919,-134.657 109.483,-124.077 102.762,-126.035"/>
</g>
<!-- 2 -->
<g id="node3" class="node"><title>2</title>
<ellipse fill="cadetblue" stroke="black" cx="173.839" cy="-26.3989" rx="21.4286" ry="21.4286"/>
<text text-anchor="middle" x="173.839" y="-21.3989" font-family="Times New Roman,serif" font-size="20.00">2</text>
</g>
<!-- 2&#45;&gt;6 -->
<g id="edge9" class="edge"><title>2&#45;&gt;6</title>
<path fill="none" stroke="black" stroke-width="2" d="M156.745,-39.4197C138.681,-53.1794 110.012,-75.0172 89.4165,-90.7056"/>
<polygon fill="black" stroke="black" stroke-width="2" points="87.2463,-87.9589 81.4121,-96.8027 91.488,-93.5274 87.2463,-87.9589"/>
</g>
<!-- 3 -->
<g id="node4" class="node"><title>3</title>
<ellipse fill="cadetblue" stroke="black" cx="96.6379" cy="-300.255" rx="21.4286" ry="21.4286"/>
<text text-anchor="middle" x="96.6379" y="-295.255" font-family="Times New Roman,serif" font-size="20.00">2</text>
</g>
<!-- 3&#45;&gt;0 -->
<g id="edge1" class="edge"><title>3&#45;&gt;0</title>
<path fill="none" stroke="black" stroke-width="2" d="M81.3746,-285.06C70.5379,-274.272 55.8129,-259.613 43.6433,-247.498"/>
<polygon fill="black" stroke="black" stroke-width="2" points="46.0101,-244.916 36.4538,-240.341 41.0715,-249.876 46.0101,-244.916"/>
</g>
<!-- 4 -->
<g id="node5" class="node"><title>4</title>
<ellipse fill="cadetblue" stroke="black" cx="199.283" cy="-108.238" rx="21.4286" ry="21.4286"/>
<text text-anchor="middle" x="199.283" y="-103.238" font-family="Times New Roman,serif" font-size="20.00">2</text>
</g>
<!-- 4&#45;&gt;1 -->
<g id="edge5" class="edge"><title>4&#45;&gt;1</title>
<path fill="none" stroke="black" stroke-width="2" d="M181.863,-95.9544C161.034,-81.2661 125.976,-56.5435 101.923,-39.5816"/>
<polygon fill="black" stroke="black" stroke-width="2" points="103.795,-36.6193 93.6057,-33.7165 99.761,-42.3399 103.795,-36.6193"/>
</g>
<!-- 4&#45;&gt;2 -->
<g id="edge8" class="edge"><title>4&#45;&gt;2</title>
<path fill="none" stroke="black" stroke-width="2" d="M192.862,-87.5869C189.917,-78.1135 186.369,-66.7011 183.139,-56.3115"/>
<polygon fill="black" stroke="black" stroke-width="2" points="186.481,-55.2704 180.169,-46.7603 179.796,-57.3486 186.481,-55.2704"/>
</g>
<!-- 5 -->
<g id="node6" class="node"><title>5</title>
<ellipse fill="cadetblue" stroke="black" cx="160.598" cy="-227.425" rx="21.4286" ry="21.4286"/>
<text text-anchor="middle" x="160.598" y="-222.425" font-family="Times New Roman,serif" font-size="20.00">2</text>
</g>
<!-- 4&#45;&gt;5 -->
<g id="edge13" class="edge"><title>4&#45;&gt;5</title>
<path fill="none" stroke="black" stroke-width="2" d="M192.721,-128.457C186.579,-147.377 177.327,-175.882 170.328,-197.449"/>
<polygon fill="black" stroke="black" stroke-width="2" points="166.951,-196.515 167.193,-207.107 173.609,-198.676 166.951,-196.515"/>
</g>
<!-- 5&#45;&gt;0 -->
<g id="edge2" class="edge"><title>5&#45;&gt;0</title>
<path fill="none" stroke="black" stroke-width="2" d="M139.125,-227.077C116.036,-226.703 79.0994,-226.105 52.7205,-225.679"/>
<polygon fill="black" stroke="black" stroke-width="2" points="52.5377,-222.175 42.4823,-225.513 52.4243,-229.174 52.5377,-222.175"/>
</g>
<!-- 5&#45;&gt;3 -->
<g id="edge11" class="edge"><title>5&#45;&gt;3</title>
<path fill="none" stroke="black" stroke-width="2" d="M146.403,-243.588C137.957,-253.206 127.084,-265.587 117.656,-276.322"/>
<polygon fill="black" stroke="black" stroke-width="2" points="114.762,-274.313 110.793,-284.137 120.022,-278.933 114.762,-274.313"/>
</g>
<!-- 6&#45;&gt;1 -->
<g id="edge6" class="edge"><title>6&#45;&gt;1</title>
<path fill="none" stroke="black" stroke-width="2" d="M67.2068,-88.3041C68.5975,-77.5399 70.3089,-64.2945 71.8425,-52.4243"/>
<polygon fill="black" stroke="black" stroke-width="2" points="75.3217,-52.8099 73.1321,-42.4438 68.3794,-51.9129 75.3217,-52.8099"/>
</g>
<!-- 6&#45;&gt;4 -->
<g id="edge14" class="edge"><title>6&#45;&gt;4</title>
<path fill="none" stroke="black" stroke-width="2" d="M85.8047,-109.495C107.898,-109.251 142.629,-108.866 167.853,-108.587"/>
<polygon fill="black" stroke="black" stroke-width="2" points="168.056,-112.085 178.016,-108.474 167.978,-105.085 168.056,-112.085"/>
</g>
<!-- 6&#45;&gt;5 -->
<g id="edge16" class="edge"><title>6&#45;&gt;5</title>
<path fill="none" stroke="black" stroke-width="2" d="M71.8525,-129.697C77.3642,-142.971 85.7399,-160.349 96.2688,-173.684 107.04,-187.326 121.763,-199.936 134.406,-209.508"/>
<polygon fill="black" stroke="black" stroke-width="2" points="132.618,-212.537 142.752,-215.625 136.755,-206.891 132.618,-212.537"/>
</g>
<!-- 7&#45;&gt;2 -->
<g id="edge10" class="edge"><title>7&#45;&gt;2</title>
<path fill="none" stroke="black" stroke-width="2" d="M123.826,-135.54C133.667,-114.064 149.567,-79.367 160.793,-54.8681"/>
<polygon fill="black" stroke="black" stroke-width="2" points="164.008,-56.2549 164.992,-45.7058 157.644,-53.3387 164.008,-56.2549"/>
</g>
<!-- 7&#45;&gt;3 -->
<g id="edge12" class="edge"><title>7&#45;&gt;3</title>
<path fill="none" stroke="black" stroke-width="2" d="M112.219,-176.194C109.154,-200.599 104.08,-241.001 100.558,-269.039"/>
<polygon fill="black" stroke="black" stroke-width="2" points="97.0656,-268.762 99.2922,-279.121 104.011,-269.635 97.0656,-268.762"/>
</g>
<!-- 7&#45;&gt;4 -->
<g id="edge15" class="edge"><title>7&#45;&gt;4</title>
<path fill="none" stroke="black" stroke-width="2" d="M133.604,-144.688C144.751,-138.502 159.101,-130.538 171.543,-123.633"/>
<polygon fill="black" stroke="black" stroke-width="2" points="173.556,-126.519 180.601,-118.606 170.159,-120.398 173.556,-126.519"/>
</g>
<!-- 7&#45;&gt;6 -->
<g id="edge17" class="edge"><title>7&#45;&gt;6</title>
<path fill="none" stroke="black" stroke-width="2" d="M98.9128,-140.735C95.4175,-137.592 91.6466,-134.201 87.926,-130.855"/>
<polygon fill="black" stroke="black" stroke-width="2" points="90.2403,-128.229 80.4643,-124.144 85.5595,-133.434 90.2403,-128.229"/>
</g>
</g>
</svg>

