<?xml version="1.0" encoding="UTF-8" standalone="no"?>
<!DOCTYPE svg PUBLIC "-//W3C//DTD SVG 1.1//EN"
 "http://www.w3.org/Graphics/SVG/1.1/DTD/svg11.dtd">
<!-- Generated by graphviz version 2.36.0 (20140111.2315)
 -->
<!-- Title: G Pages: 1 -->
<svg width="100%" height="100%"
 viewBox="0.00 0.00 264.25 324.23" xmlns="http://www.w3.org/2000/svg" xmlns:xlink="http://www.w3.org/1999/xlink">
<g id="graph0" class="graph" transform="scale(1 1) rotate(0) translate(4 320.232)">
<title>G</title>
<!-- 0 -->
<g id="node1" class="node"><title>0</title>
<ellipse fill="cadetblue" stroke="black" cx="21.2132" cy="-224.903" rx="21.4286" ry="21.4286"/>
<text text-anchor="middle" x="21.2132" y="-219.903" font-family="Times New Roman,serif" font-size="20.00">2</text>
</g>
<!-- 6 -->
<g id="node7" class="node"><title>6</title>
<ellipse fill="cadetblue" stroke="black" cx="124.692" cy="-194.42" rx="21.4286" ry="21.4286"/>
<text text-anchor="middle" x="124.692" y="-189.42" font-family="Times New Roman,serif" font-size="20.00">2</text>
</g>
<!-- 0&#45;&gt;6 -->
<g id="edge3" class="edge"><title>0&#45;&gt;6</title>
<path fill="none" stroke="black" stroke-width="2" d="M41.6572,-218.881C56.6804,-214.455 77.3423,-208.369 94.2965,-203.374"/>
<polygon fill="black" stroke="black" stroke-width="2" points="95.6868,-206.614 104.29,-200.43 93.7087,-199.899 95.6868,-206.614"/>
</g>
<!-- 1 -->
<g id="node2" class="node"><title>1</title>
<ellipse fill="cadetblue" stroke="black" cx="137.375" cy="-54.055" rx="21.4286" ry="21.4286"/>
<text text-anchor="middle" x="137.375" y="-49.055" font-family="Times New Roman,serif" font-size="20.00">2</text>
</g>
<!-- 1&#45;&gt;6 -->
<g id="edge6" class="edge"><title>1&#45;&gt;6</title>
<path fill="none" stroke="black" stroke-width="2" d="M135.449,-75.3735C133.345,-98.6642 129.952,-136.208 127.54,-162.903"/>
<polygon fill="black" stroke="black" stroke-width="2" points="124.051,-162.627 126.636,-172.901 131.022,-163.257 124.051,-162.627"/>
</g>
<!-- 7 -->
<g id="node8" class="node"><title>7</title>
<ellipse fill="brown" stroke="black" cx="203.579" cy="-169.83" rx="21.4286" ry="21.4286"/>
<text text-anchor="middle" x="203.579" y="-164.83" font-family="Times New Roman,serif" font-size="20.00">3</text>
</g>
<!-- 1&#45;&gt;7 -->
<g id="edge7" class="edge"><title>1&#45;&gt;7</title>
<path fill="none" stroke="black" stroke-width="2" d="M148.012,-72.6563C158.822,-91.5607 175.685,-121.049 188,-142.586"/>
<polygon fill="black" stroke="black" stroke-width="2" points="184.966,-144.332 192.969,-151.275 191.043,-140.857 184.966,-144.332"/>
</g>
<!-- 2 -->
<g id="node3" class="node"><title>2</title>
<ellipse fill="cadetblue" stroke="black" cx="210.459" cy="-21.2132" rx="21.4286" ry="21.4286"/>
<text text-anchor="middle" x="210.459" y="-16.2132" font-family="Times New Roman,serif" font-size="20.00">2</text>
</g>
<!-- 2&#45;&gt;7 -->
<g id="edge10" class="edge"><title>2&#45;&gt;7</title>
<path fill="none" stroke="black" stroke-width="2" d="M209.474,-42.5064C208.314,-67.5581 206.378,-109.384 205.043,-138.222"/>
<polygon fill="black" stroke="black" stroke-width="2" points="201.529,-138.425 204.563,-148.577 208.522,-138.749 201.529,-138.425"/>
</g>
<!-- 3 -->
<g id="node4" class="node"><title>3</title>
<ellipse fill="cadetblue" stroke="black" cx="139.266" cy="-295.019" rx="21.4286" ry="21.4286"/>
<text text-anchor="middle" x="139.266" y="-290.019" font-family="Times New Roman,serif" font-size="20.00">2</text>
</g>
<!-- 3&#45;&gt;0 -->
<g id="edge1" class="edge"><title>3&#45;&gt;0</title>
<path fill="none" stroke="black" stroke-width="2" d="M120.82,-284.064C101.328,-272.486 70.3915,-254.112 48.1668,-240.912"/>
<polygon fill="black" stroke="black" stroke-width="2" points="49.9146,-237.879 39.5294,-235.782 46.3399,-243.898 49.9146,-237.879"/>
</g>
<!-- 4 -->
<g id="node5" class="node"><title>4</title>
<ellipse fill="cadetblue" stroke="black" cx="235.039" cy="-105.188" rx="21.4286" ry="21.4286"/>
<text text-anchor="middle" x="235.039" y="-100.188" font-family="Times New Roman,serif" font-size="20.00">2</text>
</g>
<!-- 4&#45;&gt;1 -->
<g id="edge4" class="edge"><title>4&#45;&gt;1</title>
<path fill="none" stroke="black" stroke-width="2" d="M216.209,-95.3289C201.845,-87.8085 181.826,-77.3275 165.557,-68.8094"/>
<polygon fill="black" stroke="black" stroke-width="2" points="166.964,-65.5958 156.482,-64.0581 163.717,-71.7973 166.964,-65.5958"/>
</g>
<!-- 4&#45;&gt;2 -->
<g id="edge8" class="edge"><title>4&#45;&gt;2</title>
<path fill="none" stroke="black" stroke-width="2" d="M228.963,-84.4301C226.046,-74.4643 222.496,-62.3332 219.287,-51.3729"/>
<polygon fill="black" stroke="black" stroke-width="2" points="222.634,-50.3463 216.466,-41.7322 215.916,-52.3128 222.634,-50.3463"/>
</g>
<!-- 5 -->
<g id="node6" class="node"><title>5</title>
<ellipse fill="cadetblue" stroke="black" cx="86.944" cy="-102.62" rx="21.4286" ry="21.4286"/>
<text text-anchor="middle" x="86.944" y="-97.6197" font-family="Times New Roman,serif" font-size="20.00">2</text>
</g>
<!-- 4&#45;&gt;5 -->
<g id="edge13" class="edge"><title>4&#45;&gt;5</title>
<path fill="none" stroke="black" stroke-width="2" d="M213.821,-104.82C188.999,-104.389 147.651,-103.672 118.932,-103.174"/>
<polygon fill="black" stroke="black" stroke-width="2" points="118.664,-99.6693 108.605,-102.995 118.543,-106.668 118.664,-99.6693"/>
</g>
<!-- 5&#45;&gt;0 -->
<g id="edge2" class="edge"><title>5&#45;&gt;0</title>
<path fill="none" stroke="black" stroke-width="2" d="M76.8177,-121.458C65.993,-141.596 48.7134,-173.743 36.2888,-196.857"/>
<polygon fill="black" stroke="black" stroke-width="2" points="33.1112,-195.376 31.4594,-205.842 39.2769,-198.691 33.1112,-195.376"/>
</g>
<!-- 5&#45;&gt;1 -->
<g id="edge5" class="edge"><title>5&#45;&gt;1</title>
<path fill="none" stroke="black" stroke-width="2" d="M102.349,-87.7848C106.26,-84.019 110.543,-79.8941 114.731,-75.8613"/>
<polygon fill="black" stroke="black" stroke-width="2" points="117.289,-78.2567 122.065,-68.799 112.434,-73.2145 117.289,-78.2567"/>
</g>
<!-- 5&#45;&gt;2 -->
<g id="edge9" class="edge"><title>5&#45;&gt;2</title>
<path fill="none" stroke="black" stroke-width="2" d="M107.196,-95.9614C121.46,-90.7774 140.655,-82.7789 155.908,-72.7227 167.921,-64.8023 179.724,-54.126 189.262,-44.5471"/>
<polygon fill="black" stroke="black" stroke-width="2" points="191.954,-46.7974 196.386,-37.1739 186.92,-41.9335 191.954,-46.7974"/>
</g>
<!-- 6&#45;&gt;3 -->
<g id="edge11" class="edge"><title>6&#45;&gt;3</title>
<path fill="none" stroke="black" stroke-width="2" d="M127.783,-215.755C129.792,-229.626 132.448,-247.955 134.699,-263.493"/>
<polygon fill="black" stroke="black" stroke-width="2" points="131.282,-264.321 136.18,-273.716 138.21,-263.317 131.282,-264.321"/>
</g>
<!-- 6&#45;&gt;4 -->
<g id="edge14" class="edge"><title>6&#45;&gt;4</title>
<path fill="none" stroke="black" stroke-width="2" d="M141.451,-180.868C159.868,-165.976 189.62,-141.917 210.627,-124.929"/>
<polygon fill="black" stroke="black" stroke-width="2" points="212.909,-127.585 218.484,-118.576 208.507,-122.142 212.909,-127.585"/>
</g>
<!-- 6&#45;&gt;7 -->
<g id="edge17" class="edge"><title>6&#45;&gt;7</title>
<path fill="none" stroke="black" stroke-width="2" d="M145.007,-188.088C153.681,-185.384 163.983,-182.173 173.511,-179.203"/>
<polygon fill="black" stroke="black" stroke-width="2" points="174.553,-182.544 183.058,-176.227 172.47,-175.861 174.553,-182.544"/>
</g>
<!-- 7&#45;&gt;3 -->
<g id="edge12" class="edge"><title>7&#45;&gt;3</title>
<path fill="none" stroke="black" stroke-width="2" d="M193.811,-188.844C183.14,-209.616 165.938,-243.101 153.707,-266.909"/>
<polygon fill="black" stroke="black" stroke-width="2" points="150.582,-265.332 149.126,-275.827 156.808,-268.531 150.582,-265.332"/>
</g>
<!-- 7&#45;&gt;4 -->
<g id="edge15" class="edge"><title>7&#45;&gt;4</title>
<path fill="none" stroke="black" stroke-width="2" d="M213.018,-150.435C215.569,-145.194 218.384,-139.41 221.125,-133.779"/>
<polygon fill="black" stroke="black" stroke-width="2" points="224.378,-135.092 225.607,-124.569 218.084,-132.029 224.378,-135.092"/>
</g>
<!-- 7&#45;&gt;5 -->
<g id="edge16" class="edge"><title>7&#45;&gt;5</title>
<path fill="none" stroke="black" stroke-width="2" d="M185.098,-159.181C165.988,-148.169 135.947,-130.857 114.13,-118.285"/>
<polygon fill="black" stroke="black" stroke-width="2" points="115.751,-115.18 105.339,-113.22 112.256,-121.245 115.751,-115.18"/>
</g>
</g>
</svg>

