<?xml version="1.0" encoding="UTF-8" standalone="no"?>
<!DOCTYPE svg PUBLIC "-//W3C//DTD SVG 1.1//EN"
 "http://www.w3.org/Graphics/SVG/1.1/DTD/svg11.dtd">
<!-- Generated by graphviz version 2.36.0 (20140111.2315)
 -->
<!-- Title: G Pages: 1 -->
<svg width="100%" height="100%"
 viewBox="0.00 0.00 273.94 303.09" xmlns="http://www.w3.org/2000/svg" xmlns:xlink="http://www.w3.org/1999/xlink">
<g id="graph0" class="graph" transform="scale(1 1) rotate(0) translate(4 299.09)">
<title>G</title>
<!-- 0 -->
<g id="node1" class="node"><title>0</title>
<ellipse fill="cadetblue" stroke="black" cx="21.2132" cy="-243.799" rx="21.4286" ry="21.4286"/>
<text text-anchor="middle" x="21.2132" y="-238.799" font-family="Times New Roman,serif" font-size="20.00">2</text>
</g>
<!-- 6 -->
<g id="node7" class="node"><title>6</title>
<ellipse fill="cadetblue" stroke="black" cx="142.831" cy="-183.547" rx="21.4286" ry="21.4286"/>
<text text-anchor="middle" x="142.831" y="-178.547" font-family="Times New Roman,serif" font-size="20.00">2</text>
</g>
<!-- 0&#45;&gt;6 -->
<g id="edge3" class="edge"><title>0&#45;&gt;6</title>
<path fill="none" stroke="black" stroke-width="2" d="M40.484,-234.252C60.4101,-224.38 91.7349,-208.861 114.484,-197.591"/>
<polygon fill="black" stroke="black" stroke-width="2" points="116.244,-200.625 123.651,-193.05 113.136,-194.353 116.244,-200.625"/>
</g>
<!-- 7 -->
<g id="node8" class="node"><title>7</title>
<ellipse fill="cadetblue" stroke="black" cx="120.041" cy="-133.116" rx="21.4286" ry="21.4286"/>
<text text-anchor="middle" x="120.041" y="-128.116" font-family="Times New Roman,serif" font-size="20.00">2</text>
</g>
<!-- 0&#45;&gt;7 -->
<g id="edge4" class="edge"><title>0&#45;&gt;7</title>
<path fill="none" stroke="black" stroke-width="2" d="M35.3729,-227.941C52.0318,-209.284 79.8453,-178.134 99.0223,-156.656"/>
<polygon fill="black" stroke="black" stroke-width="2" points="101.858,-158.735 105.908,-148.944 96.6368,-154.073 101.858,-158.735"/>
</g>
<!-- 1 -->
<g id="node2" class="node"><title>1</title>
<ellipse fill="cadetblue" stroke="black" cx="39.8865" cy="-44.2121" rx="21.4286" ry="21.4286"/>
<text text-anchor="middle" x="39.8865" y="-39.2121" font-family="Times New Roman,serif" font-size="20.00">2</text>
</g>
<!-- 1&#45;&gt;6 -->
<g id="edge7" class="edge"><title>1&#45;&gt;6</title>
<path fill="none" stroke="black" stroke-width="2" d="M48.2839,-63.9382C58.5969,-86.7032 77.6812,-124.494 101.44,-151.715 105.822,-156.735 111.099,-161.496 116.397,-165.733"/>
<polygon fill="black" stroke="black" stroke-width="2" points="114.52,-168.701 124.613,-171.923 118.732,-163.11 114.52,-168.701"/>
</g>
<!-- 1&#45;&gt;7 -->
<g id="edge8" class="edge"><title>1&#45;&gt;7</title>
<path fill="none" stroke="black" stroke-width="2" d="M54.2166,-60.1062C66.6406,-73.8864 84.7895,-94.0161 98.8853,-109.651"/>
<polygon fill="black" stroke="black" stroke-width="2" points="96.5396,-112.276 105.835,-117.359 101.739,-107.588 96.5396,-112.276"/>
</g>
<!-- 2 -->
<g id="node3" class="node"><title>2</title>
<ellipse fill="cadetblue" stroke="black" cx="244.723" cy="-99.3435" rx="21.4286" ry="21.4286"/>
<text text-anchor="middle" x="244.723" y="-94.3435" font-family="Times New Roman,serif" font-size="20.00">2</text>
</g>
<!-- 4 -->
<g id="node5" class="node"><title>4</title>
<ellipse fill="cadetblue" stroke="black" cx="139.837" cy="-21.2132" rx="21.4286" ry="21.4286"/>
<text text-anchor="middle" x="139.837" y="-16.2132" font-family="Times New Roman,serif" font-size="20.00">2</text>
</g>
<!-- 2&#45;&gt;4 -->
<g id="edge9" class="edge"><title>2&#45;&gt;4</title>
<path fill="none" stroke="black" stroke-width="2" d="M227.403,-86.4419C210.474,-73.8317 184.509,-54.49 165.244,-40.1391"/>
<polygon fill="black" stroke="black" stroke-width="2" points="167.293,-37.301 157.182,-34.134 163.111,-42.9147 167.293,-37.301"/>
</g>
<!-- 3 -->
<g id="node4" class="node"><title>3</title>
<ellipse fill="brown" stroke="black" cx="111.096" cy="-273.877" rx="21.4286" ry="21.4286"/>
<text text-anchor="middle" x="111.096" y="-268.877" font-family="Times New Roman,serif" font-size="20.00">3</text>
</g>
<!-- 3&#45;&gt;0 -->
<g id="edge1" class="edge"><title>3&#45;&gt;0</title>
<path fill="none" stroke="black" stroke-width="2" d="M90.7004,-267.052C78.9784,-263.129 64.0428,-258.131 51.0246,-253.775"/>
<polygon fill="black" stroke="black" stroke-width="2" points="52.1222,-250.452 41.5283,-250.597 49.9008,-257.09 52.1222,-250.452"/>
</g>
<!-- 4&#45;&gt;1 -->
<g id="edge5" class="edge"><title>4&#45;&gt;1</title>
<path fill="none" stroke="black" stroke-width="2" d="M119.127,-25.9786C105.056,-29.2165 86.2043,-33.5542 70.4191,-37.1864"/>
<polygon fill="black" stroke="black" stroke-width="2" points="69.5302,-33.7994 60.5698,-39.4528 71.1,-40.6211 69.5302,-33.7994"/>
</g>
<!-- 5 -->
<g id="node6" class="node"><title>5</title>
<ellipse fill="brown" stroke="black" cx="28.7046" cy="-143.347" rx="21.4286" ry="21.4286"/>
<text text-anchor="middle" x="28.7046" y="-138.347" font-family="Times New Roman,serif" font-size="20.00">3</text>
</g>
<!-- 4&#45;&gt;5 -->
<g id="edge15" class="edge"><title>4&#45;&gt;5</title>
<path fill="none" stroke="black" stroke-width="2" d="M125.308,-37.1801C106.173,-58.2098 72.3676,-95.3619 50.251,-119.668"/>
<polygon fill="black" stroke="black" stroke-width="2" points="47.3781,-117.625 43.2367,-127.377 52.5556,-122.336 47.3781,-117.625"/>
</g>
<!-- 5&#45;&gt;0 -->
<g id="edge2" class="edge"><title>5&#45;&gt;0</title>
<path fill="none" stroke="black" stroke-width="2" d="M27.1158,-164.651C26.0829,-178.501 24.718,-196.804 23.5609,-212.319"/>
<polygon fill="black" stroke="black" stroke-width="2" points="20.0531,-212.294 22.7996,-222.527 27.0337,-212.815 20.0531,-212.294"/>
</g>
<!-- 5&#45;&gt;1 -->
<g id="edge6" class="edge"><title>5&#45;&gt;1</title>
<path fill="none" stroke="black" stroke-width="2" d="M31.1309,-121.837C32.6652,-108.234 34.6737,-90.4269 36.3799,-75.3001"/>
<polygon fill="black" stroke="black" stroke-width="2" points="39.8604,-75.6697 37.5033,-65.3404 32.9045,-74.8851 39.8604,-75.6697"/>
</g>
<!-- 5&#45;&gt;3 -->
<g id="edge12" class="edge"><title>5&#45;&gt;3</title>
<path fill="none" stroke="black" stroke-width="2" d="M40.1608,-161.497C54.2417,-183.805 78.2485,-221.838 94.3865,-247.405"/>
<polygon fill="black" stroke="black" stroke-width="2" points="91.4399,-249.294 99.7374,-255.882 97.3593,-245.557 91.4399,-249.294"/>
</g>
<!-- 6&#45;&gt;2 -->
<g id="edge10" class="edge"><title>6&#45;&gt;2</title>
<path fill="none" stroke="black" stroke-width="2" d="M159.202,-170.018C175.667,-156.412 201.255,-135.266 220.154,-119.647"/>
<polygon fill="black" stroke="black" stroke-width="2" points="222.575,-122.187 228.054,-113.118 218.116,-116.791 222.575,-122.187"/>
</g>
<!-- 6&#45;&gt;3 -->
<g id="edge13" class="edge"><title>6&#45;&gt;3</title>
<path fill="none" stroke="black" stroke-width="2" d="M135.788,-203.594C131.627,-215.44 126.277,-230.666 121.623,-243.915"/>
<polygon fill="black" stroke="black" stroke-width="2" points="118.242,-242.979 118.229,-253.574 124.846,-245.299 118.242,-242.979"/>
</g>
<!-- 6&#45;&gt;5 -->
<g id="edge17" class="edge"><title>6&#45;&gt;5</title>
<path fill="none" stroke="black" stroke-width="2" d="M122.691,-176.453C104.954,-170.205 78.8772,-161.02 58.6881,-153.909"/>
<polygon fill="black" stroke="black" stroke-width="2" points="59.6228,-150.527 49.028,-150.506 57.2972,-157.13 59.6228,-150.527"/>
</g>
<!-- 7&#45;&gt;2 -->
<g id="edge11" class="edge"><title>7&#45;&gt;2</title>
<path fill="none" stroke="black" stroke-width="2" d="M140.63,-127.539C160.663,-122.113 191.343,-113.802 214.212,-107.608"/>
<polygon fill="black" stroke="black" stroke-width="2" points="215.366,-110.921 224.104,-104.929 213.536,-104.165 215.366,-110.921"/>
</g>
<!-- 7&#45;&gt;3 -->
<g id="edge14" class="edge"><title>7&#45;&gt;3</title>
<path fill="none" stroke="black" stroke-width="2" d="M118.491,-154.695C117.862,-163.616 117.141,-174.063 116.527,-183.516 115.254,-203.127 113.929,-225.139 112.906,-242.528"/>
<polygon fill="black" stroke="black" stroke-width="2" points="109.402,-242.507 112.312,-252.695 116.39,-242.916 109.402,-242.507"/>
</g>
<!-- 7&#45;&gt;4 -->
<g id="edge16" class="edge"><title>7&#45;&gt;4</title>
<path fill="none" stroke="black" stroke-width="2" d="M123.765,-112.068C126.751,-95.1873 130.985,-71.2497 134.358,-52.1828"/>
<polygon fill="black" stroke="black" stroke-width="2" points="137.835,-52.6236 136.13,-42.1668 130.942,-51.4042 137.835,-52.6236"/>
</g>
<!-- 7&#45;&gt;5 -->
<g id="edge18" class="edge"><title>7&#45;&gt;5</title>
<path fill="none" stroke="black" stroke-width="2" d="M98.8572,-135.489C87.4117,-136.771 73.0531,-138.379 60.3124,-139.807"/>
<polygon fill="black" stroke="black" stroke-width="2" points="59.6383,-136.36 50.0901,-140.952 60.4176,-143.317 59.6383,-136.36"/>
</g>
</g>
</svg>

