<?xml version="1.0" encoding="UTF-8" standalone="no"?>
<!DOCTYPE svg PUBLIC "-//W3C//DTD SVG 1.1//EN"
 "http://www.w3.org/Graphics/SVG/1.1/DTD/svg11.dtd">
<!-- Generated by graphviz version 2.36.0 (20140111.2315)
 -->
<!-- Title: G Pages: 1 -->
<svg width="100%" height="100%"
 viewBox="0.00 0.00 286.70 269.76" xmlns="http://www.w3.org/2000/svg" xmlns:xlink="http://www.w3.org/1999/xlink">
<g id="graph0" class="graph" transform="scale(1 1) rotate(0) translate(4 265.761)">
<title>G</title>
<!-- 0 -->
<g id="node1" class="node"><title>0</title>
<ellipse fill="cadetblue" stroke="black" cx="21.2132" cy="-101.131" rx="21.4286" ry="21.4286"/>
<text text-anchor="middle" x="21.2132" y="-96.1306" font-family="Times New Roman,serif" font-size="20.00">2</text>
</g>
<!-- 6 -->
<g id="node7" class="node"><title>6</title>
<ellipse fill="cadetblue" stroke="black" cx="168.621" cy="-68.571" rx="21.4286" ry="21.4286"/>
<text text-anchor="middle" x="168.621" y="-63.571" font-family="Times New Roman,serif" font-size="20.00">2</text>
</g>
<!-- 0&#45;&gt;6 -->
<g id="edge3" class="edge"><title>0&#45;&gt;6</title>
<path fill="none" stroke="black" stroke-width="2" d="M42.0205,-96.5346C66.9004,-91.0392 108.777,-81.7894 137.508,-75.4433"/>
<polygon fill="black" stroke="black" stroke-width="2" points="138.433,-78.8235 147.443,-73.249 136.923,-71.9882 138.433,-78.8235"/>
</g>
<!-- 7 -->
<g id="node8" class="node"><title>7</title>
<ellipse fill="brown" stroke="black" cx="118.19" cy="-27.6199" rx="21.4286" ry="21.4286"/>
<text text-anchor="middle" x="118.19" y="-22.6199" font-family="Times New Roman,serif" font-size="20.00">3</text>
</g>
<!-- 0&#45;&gt;7 -->
<g id="edge4" class="edge"><title>0&#45;&gt;7</title>
<path fill="none" stroke="black" stroke-width="2" d="M38.5507,-87.9883C53.5822,-76.5941 75.5398,-59.9497 92.5939,-47.0222"/>
<polygon fill="black" stroke="black" stroke-width="2" points="95.1476,-49.4784 101.003,-40.6483 90.919,-43.9 95.1476,-49.4784"/>
</g>
<!-- 1 -->
<g id="node2" class="node"><title>1</title>
<ellipse fill="cadetblue" stroke="black" cx="78.1174" cy="-133.314" rx="21.4286" ry="21.4286"/>
<text text-anchor="middle" x="78.1174" y="-128.314" font-family="Times New Roman,serif" font-size="20.00">2</text>
</g>
<!-- 5 -->
<g id="node6" class="node"><title>5</title>
<ellipse fill="cadetblue" stroke="black" cx="77.6101" cy="-240.547" rx="21.4286" ry="21.4286"/>
<text text-anchor="middle" x="77.6101" y="-235.547" font-family="Times New Roman,serif" font-size="20.00">2</text>
</g>
<!-- 1&#45;&gt;5 -->
<g id="edge6" class="edge"><title>1&#45;&gt;5</title>
<path fill="none" stroke="black" stroke-width="2" d="M78.016,-154.756C77.9427,-170.245 77.8426,-191.417 77.7601,-208.853"/>
<polygon fill="black" stroke="black" stroke-width="2" points="74.2588,-209.126 77.7114,-219.142 81.2588,-209.159 74.2588,-209.126"/>
</g>
<!-- 1&#45;&gt;7 -->
<g id="edge8" class="edge"><title>1&#45;&gt;7</title>
<path fill="none" stroke="black" stroke-width="2" d="M85.6548,-113.434C91.6614,-97.5907 100.163,-75.1663 106.97,-57.2137"/>
<polygon fill="black" stroke="black" stroke-width="2" points="110.278,-58.3617 110.55,-47.7703 103.732,-55.88 110.278,-58.3617"/>
</g>
<!-- 2 -->
<g id="node3" class="node"><title>2</title>
<ellipse fill="cadetblue" stroke="black" cx="257.491" cy="-21.2132" rx="21.4286" ry="21.4286"/>
<text text-anchor="middle" x="257.491" y="-16.2132" font-family="Times New Roman,serif" font-size="20.00">2</text>
</g>
<!-- 2&#45;&gt;7 -->
<g id="edge11" class="edge"><title>2&#45;&gt;7</title>
<path fill="none" stroke="black" stroke-width="2" d="M236.031,-22.2002C212.956,-23.2614 176.041,-24.9592 149.678,-26.1717"/>
<polygon fill="black" stroke="black" stroke-width="2" points="149.275,-22.6864 139.446,-26.6423 149.597,-29.679 149.275,-22.6864"/>
</g>
<!-- 3 -->
<g id="node4" class="node"><title>3</title>
<ellipse fill="brown" stroke="black" cx="129.915" cy="-172.349" rx="21.4286" ry="21.4286"/>
<text text-anchor="middle" x="129.915" y="-167.349" font-family="Times New Roman,serif" font-size="20.00">3</text>
</g>
<!-- 3&#45;&gt;0 -->
<g id="edge1" class="edge"><title>3&#45;&gt;0</title>
<path fill="none" stroke="black" stroke-width="2" d="M108.62,-170.327C93.5713,-167.969 73.6356,-162.868 59.4498,-151.846 51.1778,-145.419 43.7796,-136.778 37.7458,-128.451"/>
<polygon fill="black" stroke="black" stroke-width="2" points="40.5012,-126.279 31.9725,-119.993 34.7197,-130.226 40.5012,-126.279"/>
</g>
<!-- 4 -->
<g id="node5" class="node"><title>4</title>
<ellipse fill="cadetblue" stroke="black" cx="212.229" cy="-149.324" rx="21.4286" ry="21.4286"/>
<text text-anchor="middle" x="212.229" y="-144.324" font-family="Times New Roman,serif" font-size="20.00">2</text>
</g>
<!-- 4&#45;&gt;1 -->
<g id="edge5" class="edge"><title>4&#45;&gt;1</title>
<path fill="none" stroke="black" stroke-width="2" d="M190.978,-146.788C169.005,-144.164 134.463,-140.041 109.376,-137.046"/>
<polygon fill="black" stroke="black" stroke-width="2" points="109.613,-133.549 99.2683,-135.839 108.783,-140.5 109.613,-133.549"/>
</g>
<!-- 4&#45;&gt;2 -->
<g id="edge9" class="edge"><title>4&#45;&gt;2</title>
<path fill="none" stroke="black" stroke-width="2" d="M219.301,-129.307C226.698,-108.371 238.393,-75.2697 246.894,-51.2091"/>
<polygon fill="black" stroke="black" stroke-width="2" points="250.288,-52.1076 250.319,-41.5128 243.688,-49.7757 250.288,-52.1076"/>
</g>
<!-- 4&#45;&gt;5 -->
<g id="edge15" class="edge"><title>4&#45;&gt;5</title>
<path fill="none" stroke="black" stroke-width="2" d="M194.63,-161.25C171.45,-176.957 130.501,-204.707 103.71,-222.861"/>
<polygon fill="black" stroke="black" stroke-width="2" points="101.528,-220.111 95.2135,-228.619 105.455,-225.906 101.528,-220.111"/>
</g>
<!-- 5&#45;&gt;0 -->
<g id="edge2" class="edge"><title>5&#45;&gt;0</title>
<path fill="none" stroke="black" stroke-width="2" d="M69.6495,-220.868C60.1307,-197.337 44.1091,-157.731 33.1169,-130.557"/>
<polygon fill="black" stroke="black" stroke-width="2" points="36.3107,-129.119 29.316,-121.161 29.8215,-131.744 36.3107,-129.119"/>
</g>
<!-- 5&#45;&gt;3 -->
<g id="edge12" class="edge"><title>5&#45;&gt;3</title>
<path fill="none" stroke="black" stroke-width="2" d="M90.5395,-223.689C96.5918,-215.798 103.926,-206.235 110.617,-197.512"/>
<polygon fill="black" stroke="black" stroke-width="2" points="113.463,-199.552 116.771,-189.487 107.908,-195.292 113.463,-199.552"/>
</g>
<!-- 6&#45;&gt;1 -->
<g id="edge7" class="edge"><title>6&#45;&gt;1</title>
<path fill="none" stroke="black" stroke-width="2" d="M151.171,-81.054C137.774,-90.6377 119.07,-104.018 103.941,-114.841"/>
<polygon fill="black" stroke="black" stroke-width="2" points="101.611,-112.204 95.5139,-120.869 105.684,-117.898 101.611,-112.204"/>
</g>
<!-- 6&#45;&gt;2 -->
<g id="edge10" class="edge"><title>6&#45;&gt;2</title>
<path fill="none" stroke="black" stroke-width="2" d="M187.468,-58.5276C199.722,-51.9977 215.914,-43.3692 229.641,-36.0544"/>
<polygon fill="black" stroke="black" stroke-width="2" points="231.492,-39.0338 238.672,-31.2421 228.2,-32.8561 231.492,-39.0338"/>
</g>
<!-- 6&#45;&gt;3 -->
<g id="edge13" class="edge"><title>6&#45;&gt;3</title>
<path fill="none" stroke="black" stroke-width="2" d="M161.158,-88.5805C155.429,-103.942 147.429,-125.391 140.959,-142.738"/>
<polygon fill="black" stroke="black" stroke-width="2" points="137.571,-141.809 137.355,-152.401 144.129,-144.255 137.571,-141.809"/>
</g>
<!-- 6&#45;&gt;4 -->
<g id="edge16" class="edge"><title>6&#45;&gt;4</title>
<path fill="none" stroke="black" stroke-width="2" d="M178.735,-87.3004C184.2,-97.4197 191.055,-110.115 197.138,-121.379"/>
<polygon fill="black" stroke="black" stroke-width="2" points="194.187,-123.281 202.018,-130.417 200.346,-119.955 194.187,-123.281"/>
</g>
<!-- 7&#45;&gt;3 -->
<g id="edge14" class="edge"><title>7&#45;&gt;3</title>
<path fill="none" stroke="black" stroke-width="2" d="M119.92,-48.9752C121.886,-73.2389 125.113,-113.07 127.367,-140.89"/>
<polygon fill="black" stroke="black" stroke-width="2" points="123.882,-141.222 128.178,-150.906 130.859,-140.656 123.882,-141.222"/>
</g>
<!-- 7&#45;&gt;4 -->
<g id="edge17" class="edge"><title>7&#45;&gt;4</title>
<path fill="none" stroke="black" stroke-width="2" d="M126.863,-47.2461C132.614,-59.2879 140.783,-74.7266 149.999,-87.1488 161.121,-102.14 175.808,-116.99 188.121,-128.415"/>
<polygon fill="black" stroke="black" stroke-width="2" points="186.052,-131.264 195.808,-135.396 190.758,-126.082 186.052,-131.264"/>
</g>
<!-- 7&#45;&gt;6 -->
<g id="edge18" class="edge"><title>7&#45;&gt;6</title>
<path fill="none" stroke="black" stroke-width="2" d="M134.703,-41.0288C137.719,-43.478 140.925,-46.0811 144.115,-48.6718"/>
<polygon fill="black" stroke="black" stroke-width="2" points="141.929,-51.4051 151.898,-54.9917 146.342,-45.971 141.929,-51.4051"/>
</g>
</g>
</svg>

