<?xml version="1.0" encoding="UTF-8" standalone="no"?>
<!DOCTYPE svg PUBLIC "-//W3C//DTD SVG 1.1//EN"
 "http://www.w3.org/Graphics/SVG/1.1/DTD/svg11.dtd">
<!-- Generated by graphviz version 2.36.0 (20140111.2315)
 -->
<!-- Title: G Pages: 1 -->
<svg width="100%" height="100%"
 viewBox="0.00 0.00 262.80 235.73" xmlns="http://www.w3.org/2000/svg" xmlns:xlink="http://www.w3.org/1999/xlink">
<g id="graph0" class="graph" transform="scale(1 1) rotate(0) translate(4 231.732)">
<title>G</title>
<!-- 0 -->
<g id="node1" class="node"><title>0</title>
<ellipse fill="cadetblue" stroke="black" cx="25.1897" cy="-91.0758" rx="21.4286" ry="21.4286"/>
<text text-anchor="middle" x="25.1897" y="-86.0758" font-family="Times New Roman,serif" font-size="20.00">2</text>
</g>
<!-- 6 -->
<g id="node7" class="node"><title>6</title>
<ellipse fill="cadetblue" stroke="black" cx="156.92" cy="-109.202" rx="21.4286" ry="21.4286"/>
<text text-anchor="middle" x="156.92" y="-104.202" font-family="Times New Roman,serif" font-size="20.00">2</text>
</g>
<!-- 0&#45;&gt;6 -->
<g id="edge3" class="edge"><title>0&#45;&gt;6</title>
<path fill="none" stroke="black" stroke-width="2" d="M45.4654,-84.2501C61.8494,-79.5233 85.5477,-74.4613 106.49,-76.7575 116.218,-77.8241 125.601,-82.4818 133.581,-87.9496"/>
<polygon fill="black" stroke="black" stroke-width="2" points="131.559,-90.8087 141.64,-94.069 135.792,-85.2339 131.559,-90.8087"/>
</g>
<!-- 7 -->
<g id="node8" class="node"><title>7</title>
<ellipse fill="brown" stroke="black" cx="106.489" cy="-103.062" rx="21.4286" ry="21.4286"/>
<text text-anchor="middle" x="106.489" y="-98.0619" font-family="Times New Roman,serif" font-size="20.00">3</text>
</g>
<!-- 0&#45;&gt;7 -->
<g id="edge4" class="edge"><title>0&#45;&gt;7</title>
<path fill="none" stroke="black" stroke-width="2" d="M46.5501,-94.225C55.3256,-95.5188 65.6625,-97.0428 75.2584,-98.4575"/>
<polygon fill="black" stroke="black" stroke-width="2" points="74.8675,-101.938 85.2711,-99.9337 75.8885,-95.0125 74.8675,-101.938"/>
</g>
<!-- 1 -->
<g id="node2" class="node"><title>1</title>
<ellipse fill="cadetblue" stroke="black" cx="160.424" cy="-206.518" rx="21.4286" ry="21.4286"/>
<text text-anchor="middle" x="160.424" y="-201.518" font-family="Times New Roman,serif" font-size="20.00">2</text>
</g>
<!-- 5 -->
<g id="node6" class="node"><title>5</title>
<ellipse fill="cadetblue" stroke="black" cx="21.2132" cy="-186.9" rx="21.4286" ry="21.4286"/>
<text text-anchor="middle" x="21.2132" y="-181.9" font-family="Times New Roman,serif" font-size="20.00">2</text>
</g>
<!-- 1&#45;&gt;5 -->
<g id="edge6" class="edge"><title>1&#45;&gt;5</title>
<path fill="none" stroke="black" stroke-width="2" d="M139.819,-212.33C123.756,-216.133 100.885,-219.95 80.8353,-217.337 69.012,-215.795 57.0896,-210.601 47.0464,-204.929"/>
<polygon fill="black" stroke="black" stroke-width="2" points="48.7711,-201.882 38.4081,-199.677 45.1346,-207.863 48.7711,-201.882"/>
</g>
<!-- 1&#45;&gt;7 -->
<g id="edge8" class="edge"><title>1&#45;&gt;7</title>
<path fill="none" stroke="black" stroke-width="2" d="M150.532,-187.543C142.244,-171.647 130.303,-148.741 120.944,-130.79"/>
<polygon fill="black" stroke="black" stroke-width="2" points="124.045,-129.166 116.319,-121.917 117.838,-132.402 124.045,-129.166"/>
</g>
<!-- 2 -->
<g id="node3" class="node"><title>2</title>
<ellipse fill="cadetblue" stroke="black" cx="190.292" cy="-21.2132" rx="21.4286" ry="21.4286"/>
<text text-anchor="middle" x="190.292" y="-16.2132" font-family="Times New Roman,serif" font-size="20.00">2</text>
</g>
<!-- 2&#45;&gt;7 -->
<g id="edge11" class="edge"><title>2&#45;&gt;7</title>
<path fill="none" stroke="black" stroke-width="2" d="M174.921,-36.2255C162.045,-48.8015 143.49,-66.9234 128.949,-81.1254"/>
<polygon fill="black" stroke="black" stroke-width="2" points="126.471,-78.6537 121.762,-88.1448 131.362,-83.6615 126.471,-78.6537"/>
</g>
<!-- 3 -->
<g id="node4" class="node"><title>3</title>
<ellipse fill="brown" stroke="black" cx="80.8789" cy="-191.032" rx="21.4286" ry="21.4286"/>
<text text-anchor="middle" x="80.8789" y="-186.032" font-family="Times New Roman,serif" font-size="20.00">3</text>
</g>
<!-- 3&#45;&gt;0 -->
<g id="edge1" class="edge"><title>3&#45;&gt;0</title>
<path fill="none" stroke="black" stroke-width="2" d="M70.4042,-172.231C62.0035,-157.153 50.0908,-135.771 40.602,-118.739"/>
<polygon fill="black" stroke="black" stroke-width="2" points="43.542,-116.825 35.6174,-109.792 37.427,-120.232 43.542,-116.825"/>
</g>
<!-- 4 -->
<g id="node5" class="node"><title>4</title>
<ellipse fill="cadetblue" stroke="black" cx="233.588" cy="-120.945" rx="21.4286" ry="21.4286"/>
<text text-anchor="middle" x="233.588" y="-115.945" font-family="Times New Roman,serif" font-size="20.00">2</text>
</g>
<!-- 4&#45;&gt;1 -->
<g id="edge5" class="edge"><title>4&#45;&gt;1</title>
<path fill="none" stroke="black" stroke-width="2" d="M219.481,-137.444C208.582,-150.193 193.336,-168.024 181.065,-182.376"/>
<polygon fill="black" stroke="black" stroke-width="2" points="178.078,-180.485 174.239,-190.36 183.398,-185.034 178.078,-180.485"/>
</g>
<!-- 4&#45;&gt;2 -->
<g id="edge9" class="edge"><title>4&#45;&gt;2</title>
<path fill="none" stroke="black" stroke-width="2" d="M225.034,-101.241C218.748,-86.7619 210.103,-66.8482 203.01,-50.5079"/>
<polygon fill="black" stroke="black" stroke-width="2" points="206.021,-48.6552 198.828,-40.876 199.6,-51.4428 206.021,-48.6552"/>
</g>
<!-- 5&#45;&gt;0 -->
<g id="edge2" class="edge"><title>5&#45;&gt;0</title>
<path fill="none" stroke="black" stroke-width="2" d="M22.0957,-165.633C22.6208,-152.979 23.2968,-136.689 23.883,-122.565"/>
<polygon fill="black" stroke="black" stroke-width="2" points="27.3919,-122.419 24.3097,-112.283 20.398,-122.129 27.3919,-122.419"/>
</g>
<!-- 5&#45;&gt;3 -->
<g id="edge12" class="edge"><title>5&#45;&gt;3</title>
<path fill="none" stroke="black" stroke-width="2" d="M42.4171,-188.368C44.6487,-188.523 46.9508,-188.682 49.2673,-188.843"/>
<polygon fill="black" stroke="black" stroke-width="2" points="49.1229,-192.341 59.3408,-189.54 49.6066,-185.358 49.1229,-192.341"/>
</g>
<!-- 6&#45;&gt;1 -->
<g id="edge7" class="edge"><title>6&#45;&gt;1</title>
<path fill="none" stroke="black" stroke-width="2" d="M157.698,-130.8C158.168,-143.867 158.776,-160.752 159.299,-175.26"/>
<polygon fill="black" stroke="black" stroke-width="2" points="155.803,-175.448 159.661,-185.316 162.799,-175.196 155.803,-175.448"/>
</g>
<!-- 6&#45;&gt;2 -->
<g id="edge10" class="edge"><title>6&#45;&gt;2</title>
<path fill="none" stroke="black" stroke-width="2" d="M164.493,-89.2359C168.802,-77.8735 174.282,-63.4265 179.081,-50.7717"/>
<polygon fill="black" stroke="black" stroke-width="2" points="182.476,-51.6915 182.75,-41.1002 175.931,-49.209 182.476,-51.6915"/>
</g>
<!-- 6&#45;&gt;3 -->
<g id="edge13" class="edge"><title>6&#45;&gt;3</title>
<path fill="none" stroke="black" stroke-width="2" d="M142.259,-124.98C131.003,-137.093 115.287,-154.005 102.576,-167.683"/>
<polygon fill="black" stroke="black" stroke-width="2" points="99.7387,-165.595 95.4954,-175.303 104.867,-170.36 99.7387,-165.595"/>
</g>
<!-- 6&#45;&gt;4 -->
<g id="edge15" class="edge"><title>6&#45;&gt;4</title>
<path fill="none" stroke="black" stroke-width="2" d="M178.276,-112.473C185.816,-113.628 194.453,-114.951 202.625,-116.202"/>
<polygon fill="black" stroke="black" stroke-width="2" points="202.196,-119.677 212.611,-117.732 203.256,-112.758 202.196,-119.677"/>
</g>
<!-- 7&#45;&gt;3 -->
<g id="edge14" class="edge"><title>7&#45;&gt;3</title>
<path fill="none" stroke="black" stroke-width="2" d="M100.549,-123.465C97.3398,-134.489 93.3138,-148.318 89.7414,-160.589"/>
<polygon fill="black" stroke="black" stroke-width="2" points="86.3099,-159.855 86.8752,-170.435 93.0309,-161.812 86.3099,-159.855"/>
</g>
<!-- 7&#45;&gt;4 -->
<g id="edge16" class="edge"><title>7&#45;&gt;4</title>
<path fill="none" stroke="black" stroke-width="2" d="M121.752,-118.256C131.04,-126.024 143.64,-134.135 156.889,-135.506 172.511,-137.123 189.705,-134.293 203.847,-130.71"/>
<polygon fill="black" stroke="black" stroke-width="2" points="204.839,-134.067 213.539,-128.021 202.967,-127.322 204.839,-134.067"/>
</g>
<!-- 7&#45;&gt;5 -->
<g id="edge17" class="edge"><title>7&#45;&gt;5</title>
<path fill="none" stroke="black" stroke-width="2" d="M91.2432,-118.05C78.107,-130.965 58.9553,-149.794 43.999,-164.498"/>
<polygon fill="black" stroke="black" stroke-width="2" points="41.2915,-162.252 36.6143,-171.758 46.199,-167.243 41.2915,-162.252"/>
</g>
<!-- 7&#45;&gt;6 -->
<g id="edge18" class="edge"><title>7&#45;&gt;6</title>
<path fill="none" stroke="black" stroke-width="2" d="M127.584,-105.63C127.668,-105.64 127.753,-105.651 127.837,-105.661"/>
<polygon fill="black" stroke="black" stroke-width="2" points="125.398,-108.89 135.747,-106.624 126.244,-101.941 125.398,-108.89"/>
</g>
</g>
</svg>

