<?xml version="1.0" encoding="UTF-8" standalone="no"?>
<!DOCTYPE svg PUBLIC "-//W3C//DTD SVG 1.1//EN"
 "http://www.w3.org/Graphics/SVG/1.1/DTD/svg11.dtd">
<!-- Generated by graphviz version 2.36.0 (20140111.2315)
 -->
<!-- Title: G Pages: 1 -->
<svg width="100%" height="100%"
 viewBox="0.00 0.00 308.88 283.15" xmlns="http://www.w3.org/2000/svg" xmlns:xlink="http://www.w3.org/1999/xlink">
<g id="graph0" class="graph" transform="scale(1 1) rotate(0) translate(4 279.152)">
<title>G</title>
<!-- 0 -->
<g id="node1" class="node"><title>0</title>
<ellipse fill="cadetblue" stroke="black" cx="21.2132" cy="-92.1973" rx="21.4286" ry="21.4286"/>
<text text-anchor="middle" x="21.2132" y="-87.1973" font-family="Times New Roman,serif" font-size="20.00">2</text>
</g>
<!-- 6 -->
<g id="node7" class="node"><title>6</title>
<ellipse fill="cadetblue" stroke="black" cx="179.725" cy="-111.174" rx="21.4286" ry="21.4286"/>
<text text-anchor="middle" x="179.725" y="-106.174" font-family="Times New Roman,serif" font-size="20.00">2</text>
</g>
<!-- 0&#45;&gt;6 -->
<g id="edge3" class="edge"><title>0&#45;&gt;6</title>
<path fill="none" stroke="black" stroke-width="2" d="M42.5908,-94.7566C69.8473,-98.0197 117.184,-103.687 148.486,-107.434"/>
<polygon fill="black" stroke="black" stroke-width="2" points="148.089,-110.911 158.434,-108.625 148.921,-103.961 148.089,-110.911"/>
</g>
<!-- 7 -->
<g id="node8" class="node"><title>7</title>
<ellipse fill="brown" stroke="black" cx="129.294" cy="-158.689" rx="21.4286" ry="21.4286"/>
<text text-anchor="middle" x="129.294" y="-153.689" font-family="Times New Roman,serif" font-size="20.00">3</text>
</g>
<!-- 0&#45;&gt;7 -->
<g id="edge4" class="edge"><title>0&#45;&gt;7</title>
<path fill="none" stroke="black" stroke-width="2" d="M39.5476,-103.477C56.705,-114.032 82.5542,-129.935 102.111,-141.966"/>
<polygon fill="black" stroke="black" stroke-width="2" points="100.518,-145.096 110.869,-147.355 104.186,-139.134 100.518,-145.096"/>
</g>
<!-- 1 -->
<g id="node2" class="node"><title>1</title>
<ellipse fill="cadetblue" stroke="black" cx="182.536" cy="-253.939" rx="21.4286" ry="21.4286"/>
<text text-anchor="middle" x="182.536" y="-248.939" font-family="Times New Roman,serif" font-size="20.00">2</text>
</g>
<!-- 5 -->
<g id="node6" class="node"><title>5</title>
<ellipse fill="cadetblue" stroke="black" cx="22.6731" cy="-175.415" rx="21.4286" ry="21.4286"/>
<text text-anchor="middle" x="22.6731" y="-170.415" font-family="Times New Roman,serif" font-size="20.00">2</text>
</g>
<!-- 1&#45;&gt;5 -->
<g id="edge6" class="edge"><title>1&#45;&gt;5</title>
<path fill="none" stroke="black" stroke-width="2" d="M163.253,-244.467C135.407,-230.789 83.739,-205.41 51.3945,-189.522"/>
<polygon fill="black" stroke="black" stroke-width="2" points="52.5435,-186.187 42.0247,-184.92 49.4573,-192.47 52.5435,-186.187"/>
</g>
<!-- 1&#45;&gt;7 -->
<g id="edge8" class="edge"><title>1&#45;&gt;7</title>
<path fill="none" stroke="black" stroke-width="2" d="M172.017,-235.12C164.214,-221.162 153.455,-201.914 144.687,-186.227"/>
<polygon fill="black" stroke="black" stroke-width="2" points="147.725,-184.49 139.791,-177.469 141.615,-187.905 147.725,-184.49"/>
</g>
<!-- 2 -->
<g id="node3" class="node"><title>2</title>
<ellipse fill="cadetblue" stroke="black" cx="101.567" cy="-21.2132" rx="21.4286" ry="21.4286"/>
<text text-anchor="middle" x="101.567" y="-16.2132" font-family="Times New Roman,serif" font-size="20.00">2</text>
</g>
<!-- 2&#45;&gt;5 -->
<g id="edge9" class="edge"><title>2&#45;&gt;5</title>
<path fill="none" stroke="black" stroke-width="2" d="M91.8927,-40.1213C78.1704,-66.9421 52.9562,-116.225 37.0431,-147.328"/>
<polygon fill="black" stroke="black" stroke-width="2" points="33.8651,-145.855 32.4261,-156.352 40.0968,-149.043 33.8651,-145.855"/>
</g>
<!-- 3 -->
<g id="node4" class="node"><title>3</title>
<ellipse fill="cadetblue" stroke="black" cx="53.9426" cy="-243.254" rx="21.4286" ry="21.4286"/>
<text text-anchor="middle" x="53.9426" y="-238.254" font-family="Times New Roman,serif" font-size="20.00">2</text>
</g>
<!-- 3&#45;&gt;0 -->
<g id="edge1" class="edge"><title>3&#45;&gt;0</title>
<path fill="none" stroke="black" stroke-width="2" d="M53.7348,-222.024C53.2722,-208.585 52.0521,-190.906 48.9772,-175.532 45.3219,-157.255 38.828,-137.434 33.0394,-121.709"/>
<polygon fill="black" stroke="black" stroke-width="2" points="36.1874,-120.139 29.3742,-112.025 29.6406,-122.617 36.1874,-120.139"/>
</g>
<!-- 4 -->
<g id="node5" class="node"><title>4</title>
<ellipse fill="cadetblue" stroke="black" cx="279.664" cy="-178.483" rx="21.4286" ry="21.4286"/>
<text text-anchor="middle" x="279.664" y="-173.483" font-family="Times New Roman,serif" font-size="20.00">2</text>
</g>
<!-- 4&#45;&gt;1 -->
<g id="edge5" class="edge"><title>4&#45;&gt;1</title>
<path fill="none" stroke="black" stroke-width="2" d="M262.745,-191.626C247.519,-203.455 224.94,-220.996 207.615,-234.456"/>
<polygon fill="black" stroke="black" stroke-width="2" points="205.336,-231.794 199.587,-240.693 209.631,-237.322 205.336,-231.794"/>
</g>
<!-- 5&#45;&gt;0 -->
<g id="edge2" class="edge"><title>5&#45;&gt;0</title>
<path fill="none" stroke="black" stroke-width="2" d="M22.2972,-153.984C22.1354,-144.763 21.943,-133.797 21.7655,-123.681"/>
<polygon fill="black" stroke="black" stroke-width="2" points="25.2629,-123.492 21.5879,-113.555 18.2639,-123.615 25.2629,-123.492"/>
</g>
<!-- 5&#45;&gt;7 -->
<g id="edge16" class="edge"><title>5&#45;&gt;7</title>
<path fill="none" stroke="black" stroke-width="2" d="M43.7379,-172.11C59.2173,-169.682 80.5066,-166.342 97.9756,-163.602"/>
<polygon fill="black" stroke="black" stroke-width="2" points="98.936,-166.994 108.273,-161.987 97.8511,-160.079 98.936,-166.994"/>
</g>
<!-- 6&#45;&gt;1 -->
<g id="edge7" class="edge"><title>6&#45;&gt;1</title>
<path fill="none" stroke="black" stroke-width="2" d="M180.146,-132.547C180.614,-156.307 181.374,-194.923 181.912,-222.212"/>
<polygon fill="black" stroke="black" stroke-width="2" points="178.416,-222.49 182.113,-232.419 185.415,-222.352 178.416,-222.49"/>
</g>
<!-- 6&#45;&gt;2 -->
<g id="edge10" class="edge"><title>6&#45;&gt;2</title>
<path fill="none" stroke="black" stroke-width="2" d="M165.752,-95.0909C153.712,-81.2329 136.159,-61.0289 122.451,-45.2509"/>
<polygon fill="black" stroke="black" stroke-width="2" points="124.883,-42.7139 115.682,-37.4605 119.599,-47.3049 124.883,-42.7139"/>
</g>
<!-- 6&#45;&gt;3 -->
<g id="edge12" class="edge"><title>6&#45;&gt;3</title>
<path fill="none" stroke="black" stroke-width="2" d="M173.035,-131.521C167.751,-145.457 159.351,-163.789 147.893,-177.29 129.442,-199.033 102.266,-217.078 81.883,-228.766"/>
<polygon fill="black" stroke="black" stroke-width="2" points="80.0885,-225.759 73.0514,-233.679 83.4917,-231.876 80.0885,-225.759"/>
</g>
<!-- 6&#45;&gt;4 -->
<g id="edge14" class="edge"><title>6&#45;&gt;4</title>
<path fill="none" stroke="black" stroke-width="2" d="M197.592,-123.207C213.083,-133.64 235.711,-148.88 253.286,-160.717"/>
<polygon fill="black" stroke="black" stroke-width="2" points="251.702,-163.87 261.951,-166.553 255.612,-158.064 251.702,-163.87"/>
</g>
<!-- 7&#45;&gt;2 -->
<g id="edge11" class="edge"><title>7&#45;&gt;2</title>
<path fill="none" stroke="black" stroke-width="2" d="M125.083,-137.81C120.502,-115.099 113.131,-78.5525 107.863,-52.4297"/>
<polygon fill="black" stroke="black" stroke-width="2" points="111.225,-51.4 105.817,-42.2894 104.364,-52.784 111.225,-51.4"/>
</g>
<!-- 7&#45;&gt;3 -->
<g id="edge13" class="edge"><title>7&#45;&gt;3</title>
<path fill="none" stroke="black" stroke-width="2" d="M115.121,-174.595C103.826,-187.271 87.8393,-205.213 75.0406,-219.576"/>
<polygon fill="black" stroke="black" stroke-width="2" points="72.3477,-217.337 68.3082,-227.132 77.574,-221.994 72.3477,-217.337"/>
</g>
<!-- 7&#45;&gt;4 -->
<g id="edge15" class="edge"><title>7&#45;&gt;4</title>
<path fill="none" stroke="black" stroke-width="2" d="M150.519,-161.483C176.043,-164.843 219.103,-170.511 248.423,-174.37"/>
<polygon fill="black" stroke="black" stroke-width="2" points="248.175,-177.868 258.546,-175.703 249.088,-170.928 248.175,-177.868"/>
</g>
<!-- 7&#45;&gt;6 -->
<g id="edge17" class="edge"><title>7&#45;&gt;6</title>
<path fill="none" stroke="black" stroke-width="2" d="M144.974,-143.916C148.71,-140.396 152.772,-136.568 156.76,-132.812"/>
<polygon fill="black" stroke="black" stroke-width="2" points="159.35,-135.18 164.228,-125.775 154.549,-130.086 159.35,-135.18"/>
</g>
</g>
</svg>

