<?xml version="1.0" encoding="UTF-8" standalone="no"?>
<!DOCTYPE svg PUBLIC "-//W3C//DTD SVG 1.1//EN"
 "http://www.w3.org/Graphics/SVG/1.1/DTD/svg11.dtd">
<!-- Generated by graphviz version 2.36.0 (20140111.2315)
 -->
<!-- Title: G Pages: 1 -->
<svg width="100%" height="100%"
 viewBox="0.00 0.00 274.10 243.34" xmlns="http://www.w3.org/2000/svg" xmlns:xlink="http://www.w3.org/1999/xlink">
<g id="graph0" class="graph" transform="scale(1 1) rotate(0) translate(4 239.336)">
<title>G</title>
<!-- 0 -->
<g id="node1" class="node"><title>0</title>
<ellipse fill="cadetblue" stroke="black" cx="22.6806" cy="-96.7952" rx="21.4286" ry="21.4286"/>
<text text-anchor="middle" x="22.6806" y="-91.7952" font-family="Times New Roman,serif" font-size="20.00">2</text>
</g>
<!-- 6 -->
<g id="node7" class="node"><title>6</title>
<ellipse fill="cadetblue" stroke="black" cx="159.062" cy="-112.533" rx="21.4286" ry="21.4286"/>
<text text-anchor="middle" x="159.062" y="-107.533" font-family="Times New Roman,serif" font-size="20.00">2</text>
</g>
<!-- 0&#45;&gt;6 -->
<g id="edge3" class="edge"><title>0&#45;&gt;6</title>
<path fill="none" stroke="black" stroke-width="2" d="M43.9903,-99.2542C66.5092,-101.853 102.248,-105.977 127.924,-108.94"/>
<polygon fill="black" stroke="black" stroke-width="2" points="127.567,-112.422 137.902,-110.091 128.369,-105.468 127.567,-112.422"/>
</g>
<!-- 7 -->
<g id="node8" class="node"><title>7</title>
<ellipse fill="cadetblue" stroke="black" cx="108.631" cy="-107.379" rx="21.4286" ry="21.4286"/>
<text text-anchor="middle" x="108.631" y="-102.379" font-family="Times New Roman,serif" font-size="20.00">2</text>
</g>
<!-- 0&#45;&gt;7 -->
<g id="edge4" class="edge"><title>0&#45;&gt;7</title>
<path fill="none" stroke="black" stroke-width="2" d="M43.9267,-99.4113C53.9475,-100.645 66.1073,-102.142 77.1685,-103.505"/>
<polygon fill="black" stroke="black" stroke-width="2" points="76.9784,-107.007 87.3312,-104.756 77.834,-100.06 76.9784,-107.007"/>
</g>
<!-- 1 -->
<g id="node2" class="node"><title>1</title>
<ellipse fill="cadetblue" stroke="black" cx="167.903" cy="-214.122" rx="21.4286" ry="21.4286"/>
<text text-anchor="middle" x="167.903" y="-209.122" font-family="Times New Roman,serif" font-size="20.00">2</text>
</g>
<!-- 5 -->
<g id="node6" class="node"><title>5</title>
<ellipse fill="cadetblue" stroke="black" cx="21.2132" cy="-196.589" rx="21.4286" ry="21.4286"/>
<text text-anchor="middle" x="21.2132" y="-191.589" font-family="Times New Roman,serif" font-size="20.00">2</text>
</g>
<!-- 1&#45;&gt;5 -->
<g id="edge6" class="edge"><title>1&#45;&gt;5</title>
<path fill="none" stroke="black" stroke-width="2" d="M146.573,-211.573C121.912,-208.625 81.0875,-203.745 52.7558,-200.359"/>
<polygon fill="black" stroke="black" stroke-width="2" points="52.9136,-196.853 42.5688,-199.141 52.0827,-203.803 52.9136,-196.853"/>
</g>
<!-- 1&#45;&gt;7 -->
<g id="edge8" class="edge"><title>1&#45;&gt;7</title>
<path fill="none" stroke="black" stroke-width="2" d="M157.578,-195.529C148.286,-178.795 134.508,-153.981 123.935,-134.94"/>
<polygon fill="black" stroke="black" stroke-width="2" points="126.95,-133.161 119.036,-126.117 120.83,-136.559 126.95,-133.161"/>
</g>
<!-- 2 -->
<g id="node3" class="node"><title>2</title>
<ellipse fill="cadetblue" stroke="black" cx="196.079" cy="-21.2132" rx="21.4286" ry="21.4286"/>
<text text-anchor="middle" x="196.079" y="-16.2132" font-family="Times New Roman,serif" font-size="20.00">2</text>
</g>
<!-- 4 -->
<g id="node5" class="node"><title>4</title>
<ellipse fill="cadetblue" stroke="black" cx="244.89" cy="-124.572" rx="21.4286" ry="21.4286"/>
<text text-anchor="middle" x="244.89" y="-119.572" font-family="Times New Roman,serif" font-size="20.00">2</text>
</g>
<!-- 2&#45;&gt;4 -->
<g id="edge9" class="edge"><title>2&#45;&gt;4</title>
<path fill="none" stroke="black" stroke-width="2" d="M205.26,-40.6542C212.623,-56.2459 223.065,-78.3558 231.382,-95.9671"/>
<polygon fill="black" stroke="black" stroke-width="2" points="228.315,-97.6705 235.75,-105.218 234.645,-94.6813 228.315,-97.6705"/>
</g>
<!-- 3 -->
<g id="node4" class="node"><title>3</title>
<ellipse fill="brown" stroke="black" cx="83.5145" cy="-201.24" rx="21.4286" ry="21.4286"/>
<text text-anchor="middle" x="83.5145" y="-196.24" font-family="Times New Roman,serif" font-size="20.00">3</text>
</g>
<!-- 3&#45;&gt;0 -->
<g id="edge1" class="edge"><title>3&#45;&gt;0</title>
<path fill="none" stroke="black" stroke-width="2" d="M72.6386,-182.567C63.1661,-166.304 49.3087,-142.512 38.5901,-124.11"/>
<polygon fill="black" stroke="black" stroke-width="2" points="41.5198,-122.186 33.4623,-115.306 35.471,-125.709 41.5198,-122.186"/>
</g>
<!-- 4&#45;&gt;1 -->
<g id="edge5" class="edge"><title>4&#45;&gt;1</title>
<path fill="none" stroke="black" stroke-width="2" d="M230.769,-140.997C218.94,-154.756 201.895,-174.583 188.536,-190.122"/>
<polygon fill="black" stroke="black" stroke-width="2" points="185.799,-187.937 181.934,-197.802 191.107,-192.5 185.799,-187.937"/>
</g>
<!-- 5&#45;&gt;0 -->
<g id="edge2" class="edge"><title>5&#45;&gt;0</title>
<path fill="none" stroke="black" stroke-width="2" d="M21.5316,-174.935C21.733,-161.242 21.9965,-143.317 22.2205,-128.09"/>
<polygon fill="black" stroke="black" stroke-width="2" points="25.7204,-128.114 22.3679,-118.064 18.7211,-128.011 25.7204,-128.114"/>
</g>
<!-- 5&#45;&gt;3 -->
<g id="edge12" class="edge"><title>5&#45;&gt;3</title>
<path fill="none" stroke="black" stroke-width="2" d="M42.6538,-198.189C45.7226,-198.418 48.9312,-198.658 52.1429,-198.898"/>
<polygon fill="black" stroke="black" stroke-width="2" points="52.0126,-202.398 62.2455,-199.652 52.5338,-195.417 52.0126,-202.398"/>
</g>
<!-- 6&#45;&gt;1 -->
<g id="edge7" class="edge"><title>6&#45;&gt;1</title>
<path fill="none" stroke="black" stroke-width="2" d="M160.937,-134.078C162.164,-148.18 163.788,-166.845 165.16,-182.604"/>
<polygon fill="black" stroke="black" stroke-width="2" points="161.707,-183.298 166.061,-192.957 168.681,-182.692 161.707,-183.298"/>
</g>
<!-- 6&#45;&gt;2 -->
<g id="edge10" class="edge"><title>6&#45;&gt;2</title>
<path fill="none" stroke="black" stroke-width="2" d="M167.094,-92.7182C172.091,-80.3924 178.606,-64.3201 184.193,-50.5359"/>
<polygon fill="black" stroke="black" stroke-width="2" points="187.55,-51.572 188.063,-40.9896 181.062,-48.9423 187.55,-51.572"/>
</g>
<!-- 6&#45;&gt;3 -->
<g id="edge13" class="edge"><title>6&#45;&gt;3</title>
<path fill="none" stroke="black" stroke-width="2" d="M145.206,-128.803C133.704,-142.308 117.177,-161.713 104.124,-177.041"/>
<polygon fill="black" stroke="black" stroke-width="2" points="101.103,-175.19 97.2833,-185.073 106.432,-179.729 101.103,-175.19"/>
</g>
<!-- 7&#45;&gt;2 -->
<g id="edge11" class="edge"><title>7&#45;&gt;2</title>
<path fill="none" stroke="black" stroke-width="2" d="M123.863,-92.3698C137.573,-78.8615 157.901,-58.8315 173.5,-43.4613"/>
<polygon fill="black" stroke="black" stroke-width="2" points="176.061,-45.8509 180.728,-36.3392 171.148,-40.8647 176.061,-45.8509"/>
</g>
<!-- 7&#45;&gt;3 -->
<g id="edge14" class="edge"><title>7&#45;&gt;3</title>
<path fill="none" stroke="black" stroke-width="2" d="M103.057,-128.209C99.7074,-140.726 95.3864,-156.874 91.6594,-170.802"/>
<polygon fill="black" stroke="black" stroke-width="2" points="88.277,-169.902 89.0731,-180.467 95.0391,-171.712 88.277,-169.902"/>
</g>
<!-- 7&#45;&gt;4 -->
<g id="edge15" class="edge"><title>7&#45;&gt;4</title>
<path fill="none" stroke="black" stroke-width="2" d="M129.921,-110.065C152.42,-112.904 188.127,-117.41 213.78,-120.647"/>
<polygon fill="black" stroke="black" stroke-width="2" points="213.39,-124.125 223.749,-121.905 214.266,-117.18 213.39,-124.125"/>
</g>
<!-- 7&#45;&gt;5 -->
<g id="edge16" class="edge"><title>7&#45;&gt;5</title>
<path fill="none" stroke="black" stroke-width="2" d="M93.4038,-122.918C79.6152,-136.989 59.1286,-157.896 43.4981,-173.847"/>
<polygon fill="black" stroke="black" stroke-width="2" points="40.7648,-171.635 36.2657,-181.227 45.7645,-176.535 40.7648,-171.635"/>
</g>
<!-- 7&#45;&gt;6 -->
<g id="edge17" class="edge"><title>7&#45;&gt;6</title>
<path fill="none" stroke="black" stroke-width="2" d="M130.018,-109.565C130.179,-109.581 130.341,-109.598 130.502,-109.614"/>
<polygon fill="black" stroke="black" stroke-width="2" points="127.499,-112.825 137.803,-110.36 128.21,-105.862 127.499,-112.825"/>
</g>
</g>
</svg>

