<?xml version="1.0" encoding="UTF-8" standalone="no"?>
<!DOCTYPE svg PUBLIC "-//W3C//DTD SVG 1.1//EN"
 "http://www.w3.org/Graphics/SVG/1.1/DTD/svg11.dtd">
<!-- Generated by graphviz version 2.36.0 (20140111.2315)
 -->
<!-- Title: G Pages: 1 -->
<svg width="100%" height="100%"
 viewBox="0.00 0.00 362.99 419.82" xmlns="http://www.w3.org/2000/svg" xmlns:xlink="http://www.w3.org/1999/xlink">
<g id="graph0" class="graph" transform="scale(1 1) rotate(0) translate(4 415.825)">
<title>G</title>
<!-- 0 -->
<g id="node1" class="node"><title>0</title>
<ellipse fill="cadetblue" stroke="black" cx="21.2132" cy="-298.163" rx="21.4286" ry="21.4286"/>
<text text-anchor="middle" x="21.2132" y="-293.163" font-family="Times New Roman,serif" font-size="20.00">2</text>
</g>
<!-- 6 -->
<g id="node7" class="node"><title>6</title>
<ellipse fill="cadetblue" stroke="black" cx="181.503" cy="-211.555" rx="21.4286" ry="21.4286"/>
<text text-anchor="middle" x="181.503" y="-206.555" font-family="Times New Roman,serif" font-size="20.00">2</text>
</g>
<!-- 0&#45;&gt;6 -->
<g id="edge3" class="edge"><title>0&#45;&gt;6</title>
<path fill="none" stroke="black" stroke-width="2" d="M39.9142,-288.059C67.8752,-272.951 120.772,-244.369 153.399,-226.741"/>
<polygon fill="black" stroke="black" stroke-width="2" points="155.29,-229.697 162.424,-221.864 151.963,-223.539 155.29,-229.697"/>
</g>
<!-- 7 -->
<g id="node8" class="node"><title>7</title>
<ellipse fill="cadetblue" stroke="black" cx="131.072" cy="-175.777" rx="21.4286" ry="21.4286"/>
<text text-anchor="middle" x="131.072" y="-170.777" font-family="Times New Roman,serif" font-size="20.00">2</text>
</g>
<!-- 0&#45;&gt;7 -->
<g id="edge4" class="edge"><title>0&#45;&gt;7</title>
<path fill="none" stroke="black" stroke-width="2" d="M35.5753,-282.163C54.4913,-261.09 87.9091,-223.862 109.772,-199.506"/>
<polygon fill="black" stroke="black" stroke-width="2" points="112.631,-201.561 116.706,-191.781 107.422,-196.885 112.631,-201.561"/>
</g>
<!-- 1 -->
<g id="node2" class="node"><title>1</title>
<ellipse fill="cadetblue" stroke="black" cx="144.854" cy="-21.2132" rx="21.4286" ry="21.4286"/>
<text text-anchor="middle" x="144.854" y="-16.2132" font-family="Times New Roman,serif" font-size="20.00">2</text>
</g>
<!-- 1&#45;&gt;7 -->
<g id="edge7" class="edge"><title>1&#45;&gt;7</title>
<path fill="none" stroke="black" stroke-width="2" d="M142.966,-42.3806C140.618,-68.7097 136.59,-113.892 133.879,-144.289"/>
<polygon fill="black" stroke="black" stroke-width="2" points="130.383,-144.098 132.981,-154.37 137.355,-144.72 130.383,-144.098"/>
</g>
<!-- 2 -->
<g id="node3" class="node"><title>2</title>
<ellipse fill="cadetblue" stroke="black" cx="287.281" cy="-36.5367" rx="21.4286" ry="21.4286"/>
<text text-anchor="middle" x="287.281" y="-31.5367" font-family="Times New Roman,serif" font-size="20.00">2</text>
</g>
<!-- 2&#45;&gt;6 -->
<g id="edge9" class="edge"><title>2&#45;&gt;6</title>
<path fill="none" stroke="black" stroke-width="2" d="M276.161,-54.936C257.512,-85.7924 219.84,-148.123 198.065,-184.152"/>
<polygon fill="black" stroke="black" stroke-width="2" points="194.81,-182.771 192.633,-193.14 200.801,-186.392 194.81,-182.771"/>
</g>
<!-- 3 -->
<g id="node4" class="node"><title>3</title>
<ellipse fill="brown" stroke="black" cx="117.2" cy="-390.612" rx="21.4286" ry="21.4286"/>
<text text-anchor="middle" x="117.2" y="-385.612" font-family="Times New Roman,serif" font-size="20.00">3</text>
</g>
<!-- 3&#45;&gt;0 -->
<g id="edge1" class="edge"><title>3&#45;&gt;0</title>
<path fill="none" stroke="black" stroke-width="2" d="M101.778,-375.758C86.1051,-360.663 61.657,-337.116 43.8011,-319.918"/>
<polygon fill="black" stroke="black" stroke-width="2" points="46.2275,-317.396 36.5969,-312.98 41.3715,-322.438 46.2275,-317.396"/>
</g>
<!-- 4 -->
<g id="node5" class="node"><title>4</title>
<ellipse fill="cadetblue" stroke="black" cx="333.772" cy="-162.355" rx="21.4286" ry="21.4286"/>
<text text-anchor="middle" x="333.772" y="-157.355" font-family="Times New Roman,serif" font-size="20.00">2</text>
</g>
<!-- 4&#45;&gt;1 -->
<g id="edge5" class="edge"><title>4&#45;&gt;1</title>
<path fill="none" stroke="black" stroke-width="2" d="M316.674,-149.581C283.319,-124.662 209.421,-69.4521 170.297,-40.2222"/>
<polygon fill="black" stroke="black" stroke-width="2" points="172.155,-37.2417 162.05,-34.0604 167.966,-42.8495 172.155,-37.2417"/>
</g>
<!-- 4&#45;&gt;2 -->
<g id="edge8" class="edge"><title>4&#45;&gt;2</title>
<path fill="none" stroke="black" stroke-width="2" d="M326.406,-142.419C318.833,-121.926 306.955,-89.7789 298.271,-66.2791"/>
<polygon fill="black" stroke="black" stroke-width="2" points="301.516,-64.9634 294.767,-56.7964 294.95,-67.3896 301.516,-64.9634"/>
</g>
<!-- 5 -->
<g id="node6" class="node"><title>5</title>
<ellipse fill="cadetblue" stroke="black" cx="247.509" cy="-337.628" rx="21.4286" ry="21.4286"/>
<text text-anchor="middle" x="247.509" y="-332.628" font-family="Times New Roman,serif" font-size="20.00">2</text>
</g>
<!-- 5&#45;&gt;0 -->
<g id="edge2" class="edge"><title>5&#45;&gt;0</title>
<path fill="none" stroke="black" stroke-width="2" d="M226.22,-333.915C186.02,-326.904 98.7971,-311.693 52.1345,-303.556"/>
<polygon fill="black" stroke="black" stroke-width="2" points="52.7338,-300.107 42.2811,-301.837 51.5311,-307.003 52.7338,-300.107"/>
</g>
<!-- 5&#45;&gt;3 -->
<g id="edge11" class="edge"><title>5&#45;&gt;3</title>
<path fill="none" stroke="black" stroke-width="2" d="M227.718,-345.675C206.096,-354.466 171.242,-368.638 146.46,-378.715"/>
<polygon fill="black" stroke="black" stroke-width="2" points="145.123,-375.48 137.178,-382.489 147.759,-381.964 145.123,-375.48"/>
</g>
<!-- 5&#45;&gt;4 -->
<g id="edge14" class="edge"><title>5&#45;&gt;4</title>
<path fill="none" stroke="black" stroke-width="2" d="M256.905,-318.537C272.137,-287.587 302.294,-226.314 319.968,-190.403"/>
<polygon fill="black" stroke="black" stroke-width="2" points="323.112,-191.941 324.388,-181.423 316.832,-188.849 323.112,-191.941"/>
</g>
<!-- 6&#45;&gt;1 -->
<g id="edge6" class="edge"><title>6&#45;&gt;1</title>
<path fill="none" stroke="black" stroke-width="2" d="M177.441,-190.458C170.985,-156.926 158.346,-91.2882 150.847,-52.3427"/>
<polygon fill="black" stroke="black" stroke-width="2" points="154.206,-51.2727 148.878,-42.1148 147.332,-52.5962 154.206,-51.2727"/>
</g>
<!-- 6&#45;&gt;3 -->
<g id="edge12" class="edge"><title>6&#45;&gt;3</title>
<path fill="none" stroke="black" stroke-width="2" d="M174.252,-231.747C162.933,-263.265 141.006,-324.322 127.878,-360.877"/>
<polygon fill="black" stroke="black" stroke-width="2" points="124.511,-359.899 124.425,-370.494 131.099,-362.265 124.511,-359.899"/>
</g>
<!-- 6&#45;&gt;5 -->
<g id="edge16" class="edge"><title>6&#45;&gt;5</title>
<path fill="none" stroke="black" stroke-width="2" d="M191.385,-230.43C202.37,-251.412 220.224,-285.512 232.84,-309.611"/>
<polygon fill="black" stroke="black" stroke-width="2" points="229.821,-311.389 237.56,-318.624 236.022,-308.142 229.821,-311.389"/>
</g>
<!-- 7&#45;&gt;2 -->
<g id="edge10" class="edge"><title>7&#45;&gt;2</title>
<path fill="none" stroke="black" stroke-width="2" d="M146.91,-161.66C174.51,-137.057 231.55,-86.2138 263.776,-57.4885"/>
<polygon fill="black" stroke="black" stroke-width="2" points="266.265,-59.9582 271.401,-50.6914 261.608,-54.7327 266.265,-59.9582"/>
</g>
<!-- 7&#45;&gt;3 -->
<g id="edge13" class="edge"><title>7&#45;&gt;3</title>
<path fill="none" stroke="black" stroke-width="2" d="M129.691,-197.162C127.235,-235.205 122.096,-314.795 119.234,-359.114"/>
<polygon fill="black" stroke="black" stroke-width="2" points="115.727,-359.109 118.575,-369.314 122.713,-359.56 115.727,-359.109"/>
</g>
<!-- 7&#45;&gt;4 -->
<g id="edge15" class="edge"><title>7&#45;&gt;4</title>
<path fill="none" stroke="black" stroke-width="2" d="M152.381,-174.366C188.194,-171.995 260.615,-167.2 302.301,-164.439"/>
<polygon fill="black" stroke="black" stroke-width="2" points="302.697,-167.921 312.444,-163.768 302.235,-160.936 302.697,-167.921"/>
</g>
<!-- 7&#45;&gt;5 -->
<g id="edge17" class="edge"><title>7&#45;&gt;5</title>
<path fill="none" stroke="black" stroke-width="2" d="M141.206,-194.533C147.171,-205.191 155.061,-218.659 162.881,-230.133 183.192,-259.936 209.181,-292.203 226.968,-313.525"/>
<polygon fill="black" stroke="black" stroke-width="2" points="224.474,-315.998 233.585,-321.406 229.835,-311.497 224.474,-315.998"/>
</g>
</g>
</svg>

