<?xml version="1.0" encoding="UTF-8" standalone="no"?>
<!DOCTYPE svg PUBLIC "-//W3C//DTD SVG 1.1//EN"
 "http://www.w3.org/Graphics/SVG/1.1/DTD/svg11.dtd">
<!-- Generated by graphviz version 2.36.0 (20140111.2315)
 -->
<!-- Title: G Pages: 1 -->
<svg width="100%" height="100%"
 viewBox="0.00 0.00 209.27 221.45" xmlns="http://www.w3.org/2000/svg" xmlns:xlink="http://www.w3.org/1999/xlink">
<g id="graph0" class="graph" transform="scale(1 1) rotate(0) translate(4 217.453)">
<title>G</title>
<!-- 0 -->
<g id="node1" class="node"><title>0</title>
<ellipse fill="cadetblue" stroke="black" cx="21.2132" cy="-119.217" rx="21.4286" ry="21.4286"/>
<text text-anchor="middle" x="21.2132" y="-114.217" font-family="Times New Roman,serif" font-size="20.00">2</text>
</g>
<!-- 6 -->
<g id="node7" class="node"><title>6</title>
<ellipse fill="cadetblue" stroke="black" cx="81.3647" cy="-118.825" rx="21.4286" ry="21.4286"/>
<text text-anchor="middle" x="81.3647" y="-113.825" font-family="Times New Roman,serif" font-size="20.00">2</text>
</g>
<!-- 0&#45;&gt;6 -->
<g id="edge3" class="edge"><title>0&#45;&gt;6</title>
<path fill="none" stroke="black" stroke-width="2" d="M42.5897,-119.077C44.983,-119.062 47.4568,-119.046 49.9428,-119.03"/>
<polygon fill="black" stroke="black" stroke-width="2" points="50.08,-122.529 60.057,-118.964 50.0344,-115.529 50.08,-122.529"/>
</g>
<!-- 7 -->
<g id="node8" class="node"><title>7</title>
<ellipse fill="cadetblue" stroke="black" cx="134.355" cy="-110.157" rx="21.4286" ry="21.4286"/>
<text text-anchor="middle" x="134.355" y="-105.157" font-family="Times New Roman,serif" font-size="20.00">2</text>
</g>
<!-- 0&#45;&gt;7 -->
<g id="edge4" class="edge"><title>0&#45;&gt;7</title>
<path fill="none" stroke="black" stroke-width="2" d="M42.4943,-117.513C59.5617,-116.146 83.7643,-114.208 103.042,-112.664"/>
<polygon fill="black" stroke="black" stroke-width="2" points="103.481,-116.141 113.169,-111.853 102.922,-109.163 103.481,-116.141"/>
</g>
<!-- 1 -->
<g id="node2" class="node"><title>1</title>
<ellipse fill="cadetblue" stroke="black" cx="67.8434" cy="-57.4373" rx="21.4286" ry="21.4286"/>
<text text-anchor="middle" x="67.8434" y="-52.4373" font-family="Times New Roman,serif" font-size="20.00">2</text>
</g>
<!-- 5 -->
<g id="node6" class="node"><title>5</title>
<ellipse fill="cadetblue" stroke="black" cx="21.8589" cy="-169.648" rx="21.4286" ry="21.4286"/>
<text text-anchor="middle" x="21.8589" y="-164.648" font-family="Times New Roman,serif" font-size="20.00">2</text>
</g>
<!-- 1&#45;&gt;5 -->
<g id="edge6" class="edge"><title>1&#45;&gt;5</title>
<path fill="none" stroke="black" stroke-width="2" d="M59.7281,-77.24C52.5816,-94.6788 42.0746,-120.318 33.94,-140.168"/>
<polygon fill="black" stroke="black" stroke-width="2" points="30.6011,-139.085 30.0477,-149.666 37.0783,-141.74 30.6011,-139.085"/>
</g>
<!-- 1&#45;&gt;7 -->
<g id="edge8" class="edge"><title>1&#45;&gt;7</title>
<path fill="none" stroke="black" stroke-width="2" d="M84.6271,-70.7407C92.1314,-76.6889 101.133,-83.8237 109.402,-90.3785"/>
<polygon fill="black" stroke="black" stroke-width="2" points="107.334,-93.2056 117.345,-96.6745 111.683,-87.7199 107.334,-93.2056"/>
</g>
<!-- 2 -->
<g id="node3" class="node"><title>2</title>
<ellipse fill="cadetblue" stroke="black" cx="122.725" cy="-21.2132" rx="21.4286" ry="21.4286"/>
<text text-anchor="middle" x="122.725" y="-16.2132" font-family="Times New Roman,serif" font-size="20.00">2</text>
</g>
<!-- 4 -->
<g id="node5" class="node"><title>4</title>
<ellipse fill="cadetblue" stroke="black" cx="180.06" cy="-51.413" rx="21.4286" ry="21.4286"/>
<text text-anchor="middle" x="180.06" y="-46.413" font-family="Times New Roman,serif" font-size="20.00">2</text>
</g>
<!-- 2&#45;&gt;4 -->
<g id="edge9" class="edge"><title>2&#45;&gt;4</title>
<path fill="none" stroke="black" stroke-width="2" d="M141.499,-31.1017C144.928,-32.908 148.572,-34.8276 152.199,-36.7382"/>
<polygon fill="black" stroke="black" stroke-width="2" points="150.569,-39.8352 161.048,-41.3989 153.831,-33.6418 150.569,-39.8352"/>
</g>
<!-- 3 -->
<g id="node4" class="node"><title>3</title>
<ellipse fill="brown" stroke="black" cx="94.8851" cy="-192.239" rx="21.4286" ry="21.4286"/>
<text text-anchor="middle" x="94.8851" y="-187.239" font-family="Times New Roman,serif" font-size="20.00">3</text>
</g>
<!-- 3&#45;&gt;0 -->
<g id="edge1" class="edge"><title>3&#45;&gt;0</title>
<path fill="none" stroke="black" stroke-width="2" d="M79.6203,-177.109C69.2483,-166.828 55.3534,-153.056 43.7183,-141.523"/>
<polygon fill="black" stroke="black" stroke-width="2" points="46.0247,-138.882 36.4585,-134.328 41.0969,-143.853 46.0247,-138.882"/>
</g>
<!-- 4&#45;&gt;1 -->
<g id="edge5" class="edge"><title>4&#45;&gt;1</title>
<path fill="none" stroke="black" stroke-width="2" d="M158.689,-52.5603C141.919,-53.4606 118.324,-54.7272 99.3835,-55.7441"/>
<polygon fill="black" stroke="black" stroke-width="2" points="98.933,-52.2631 89.135,-56.2942 99.3083,-59.253 98.933,-52.2631"/>
</g>
<!-- 5&#45;&gt;0 -->
<g id="edge2" class="edge"><title>5&#45;&gt;0</title>
<path fill="none" stroke="black" stroke-width="2" d="M21.5851,-148.261C21.583,-148.099 21.5809,-147.938 21.5789,-147.777"/>
<polygon fill="black" stroke="black" stroke-width="2" points="25.1133,-150.43 21.4854,-140.476 18.1138,-150.52 25.1133,-150.43"/>
</g>
<!-- 5&#45;&gt;3 -->
<g id="edge12" class="edge"><title>5&#45;&gt;3</title>
<path fill="none" stroke="black" stroke-width="2" d="M42.2008,-175.941C49.1847,-178.102 57.1577,-180.568 64.751,-182.917"/>
<polygon fill="black" stroke="black" stroke-width="2" points="63.8113,-186.29 74.3991,-185.902 65.8802,-179.603 63.8113,-186.29"/>
</g>
<!-- 6&#45;&gt;1 -->
<g id="edge7" class="edge"><title>6&#45;&gt;1</title>
<path fill="none" stroke="black" stroke-width="2" d="M76.787,-98.042C76.0821,-94.8419 75.3418,-91.4809 74.6015,-88.12"/>
<polygon fill="black" stroke="black" stroke-width="2" points="77.9855,-87.212 72.4164,-78.199 71.1494,-88.7178 77.9855,-87.212"/>
</g>
<!-- 6&#45;&gt;2 -->
<g id="edge10" class="edge"><title>6&#45;&gt;2</title>
<path fill="none" stroke="black" stroke-width="2" d="M89.7345,-99.0719C95.677,-85.0474 103.752,-65.9908 110.425,-50.2414"/>
<polygon fill="black" stroke="black" stroke-width="2" points="113.689,-51.5101 114.368,-40.9371 107.243,-48.7791 113.689,-51.5101"/>
</g>
<!-- 6&#45;&gt;3 -->
<g id="edge13" class="edge"><title>6&#45;&gt;3</title>
<path fill="none" stroke="black" stroke-width="2" d="M85.2753,-140.06C86.491,-146.661 87.8572,-154.079 89.1695,-161.204"/>
<polygon fill="black" stroke="black" stroke-width="2" points="85.7765,-162.106 91.0299,-171.306 92.6608,-160.838 85.7765,-162.106"/>
</g>
<!-- 6&#45;&gt;5 -->
<g id="edge16" class="edge"><title>6&#45;&gt;5</title>
<path fill="none" stroke="black" stroke-width="2" d="M65.1044,-132.713C59.2008,-137.755 52.3979,-143.565 45.9613,-149.063"/>
<polygon fill="black" stroke="black" stroke-width="2" points="43.4304,-146.621 38.0994,-155.777 47.9766,-151.944 43.4304,-146.621"/>
</g>
<!-- 7&#45;&gt;2 -->
<g id="edge11" class="edge"><title>7&#45;&gt;2</title>
<path fill="none" stroke="black" stroke-width="2" d="M131.599,-89.0786C130.175,-78.192 128.41,-64.6907 126.83,-52.6044"/>
<polygon fill="black" stroke="black" stroke-width="2" points="130.269,-51.9104 125.502,-42.4486 123.328,-52.818 130.269,-51.9104"/>
</g>
<!-- 7&#45;&gt;3 -->
<g id="edge14" class="edge"><title>7&#45;&gt;3</title>
<path fill="none" stroke="black" stroke-width="2" d="M125.001,-129.609C120.086,-139.832 113.969,-152.552 108.535,-163.853"/>
<polygon fill="black" stroke="black" stroke-width="2" points="105.351,-162.398 104.172,-172.927 111.66,-165.431 105.351,-162.398"/>
</g>
<!-- 7&#45;&gt;4 -->
<g id="edge15" class="edge"><title>7&#45;&gt;4</title>
<path fill="none" stroke="black" stroke-width="2" d="M147.575,-93.1658C151.684,-87.8839 156.303,-81.9482 160.739,-76.2463"/>
<polygon fill="black" stroke="black" stroke-width="2" points="163.649,-78.205 167.028,-68.1632 158.125,-73.9065 163.649,-78.205"/>
</g>
<!-- 7&#45;&gt;6 -->
<g id="edge17" class="edge"><title>7&#45;&gt;6</title>
<path fill="none" stroke="black" stroke-width="2" d="M113.412,-113.583C113.076,-113.638 112.738,-113.693 112.399,-113.748"/>
<polygon fill="black" stroke="black" stroke-width="2" points="111.807,-110.299 102.503,-115.367 112.937,-117.207 111.807,-110.299"/>
</g>
</g>
</svg>

