<?xml version="1.0" encoding="UTF-8" standalone="no"?>
<!DOCTYPE svg PUBLIC "-//W3C//DTD SVG 1.1//EN"
 "http://www.w3.org/Graphics/SVG/1.1/DTD/svg11.dtd">
<!-- Generated by graphviz version 2.36.0 (20140111.2315)
 -->
<!-- Title: G Pages: 1 -->
<svg width="100%" height="100%"
 viewBox="0.00 0.00 308.57 315.14" xmlns="http://www.w3.org/2000/svg" xmlns:xlink="http://www.w3.org/1999/xlink">
<g id="graph0" class="graph" transform="scale(1 1) rotate(0) translate(4 311.138)">
<title>G</title>
<!-- 0 -->
<g id="node1" class="node"><title>0</title>
<ellipse fill="cadetblue" stroke="black" cx="21.2132" cy="-255.976" rx="21.4286" ry="21.4286"/>
<text text-anchor="middle" x="21.2132" y="-250.976" font-family="Times New Roman,serif" font-size="20.00">2</text>
</g>
<!-- 3 -->
<g id="node4" class="node"><title>3</title>
<ellipse fill="brown" stroke="black" cx="121.549" cy="-285.925" rx="21.4286" ry="21.4286"/>
<text text-anchor="middle" x="121.549" y="-280.925" font-family="Times New Roman,serif" font-size="20.00">3</text>
</g>
<!-- 0&#45;&gt;3 -->
<g id="edge1" class="edge"><title>0&#45;&gt;3</title>
<path fill="none" stroke="black" stroke-width="2" d="M42.0029,-262.181C56.223,-266.426 75.3053,-272.121 91.2154,-276.87"/>
<polygon fill="black" stroke="black" stroke-width="2" points="90.5462,-280.323 101.13,-279.83 92.5484,-273.616 90.5462,-280.323"/>
</g>
<!-- 5 -->
<g id="node6" class="node"><title>5</title>
<ellipse fill="dodgerblue" stroke="black" cx="24.8994" cy="-141.546" rx="21.4286" ry="21.4286"/>
<text text-anchor="middle" x="24.8994" y="-136.546" font-family="Times New Roman,serif" font-size="20.00">4</text>
</g>
<!-- 0&#45;&gt;5 -->
<g id="edge2" class="edge"><title>0&#45;&gt;5</title>
<path fill="none" stroke="black" stroke-width="2" d="M21.8979,-234.721C22.4556,-217.408 23.2513,-192.708 23.8833,-173.089"/>
<polygon fill="black" stroke="black" stroke-width="2" points="27.382,-173.183 24.2059,-163.076 20.3856,-172.958 27.382,-173.183"/>
</g>
<!-- 1 -->
<g id="node2" class="node"><title>1</title>
<ellipse fill="cadetblue" stroke="black" cx="50.4056" cy="-21.2132" rx="21.4286" ry="21.4286"/>
<text text-anchor="middle" x="50.4056" y="-16.2132" font-family="Times New Roman,serif" font-size="20.00">2</text>
</g>
<!-- 1&#45;&gt;5 -->
<g id="edge6" class="edge"><title>1&#45;&gt;5</title>
<path fill="none" stroke="black" stroke-width="2" d="M45.9627,-42.1736C41.9641,-61.0383 36.035,-89.0109 31.4852,-110.476"/>
<polygon fill="black" stroke="black" stroke-width="2" points="28.0266,-109.914 29.3769,-120.422 34.8745,-111.365 28.0266,-109.914"/>
</g>
<!-- 6 -->
<g id="node7" class="node"><title>6</title>
<ellipse fill="cadetblue" stroke="black" cx="166.481" cy="-173.687" rx="21.4286" ry="21.4286"/>
<text text-anchor="middle" x="166.481" y="-168.687" font-family="Times New Roman,serif" font-size="20.00">2</text>
</g>
<!-- 1&#45;&gt;6 -->
<g id="edge7" class="edge"><title>1&#45;&gt;6</title>
<path fill="none" stroke="black" stroke-width="2" d="M65.9066,-36.2106C83.7863,-53.9969 113.439,-85.0345 134.651,-115.094 141.276,-124.484 147.55,-135.403 152.748,-145.252"/>
<polygon fill="black" stroke="black" stroke-width="2" points="149.702,-146.981 157.379,-154.283 155.931,-143.787 149.702,-146.981"/>
</g>
<!-- 2 -->
<g id="node3" class="node"><title>2</title>
<ellipse fill="cadetblue" stroke="black" cx="279.357" cy="-104.343" rx="21.4286" ry="21.4286"/>
<text text-anchor="middle" x="279.357" y="-99.343" font-family="Times New Roman,serif" font-size="20.00">2</text>
</g>
<!-- 7 -->
<g id="node8" class="node"><title>7</title>
<ellipse fill="brown" stroke="black" cx="116.05" cy="-133.694" rx="21.4286" ry="21.4286"/>
<text text-anchor="middle" x="116.05" y="-128.694" font-family="Times New Roman,serif" font-size="20.00">3</text>
</g>
<!-- 2&#45;&gt;7 -->
<g id="edge11" class="edge"><title>2&#45;&gt;7</title>
<path fill="none" stroke="black" stroke-width="2" d="M258.342,-108.12C230.047,-113.205 179.497,-122.29 146.89,-128.151"/>
<polygon fill="black" stroke="black" stroke-width="2" points="146.207,-124.717 136.984,-129.931 147.446,-131.607 146.207,-124.717"/>
</g>
<!-- 3&#45;&gt;5 -->
<g id="edge12" class="edge"><title>3&#45;&gt;5</title>
<path fill="none" stroke="black" stroke-width="2" d="M109.698,-268.221C92.8875,-243.109 61.9983,-196.966 42.5036,-167.844"/>
<polygon fill="black" stroke="black" stroke-width="2" points="45.3189,-165.757 36.8475,-159.395 39.5019,-169.651 45.3189,-165.757"/>
</g>
<!-- 4 -->
<g id="node5" class="node"><title>4</title>
<ellipse fill="cadetblue" stroke="black" cx="166.589" cy="-29.877" rx="21.4286" ry="21.4286"/>
<text text-anchor="middle" x="166.589" y="-24.877" font-family="Times New Roman,serif" font-size="20.00">2</text>
</g>
<!-- 4&#45;&gt;1 -->
<g id="edge5" class="edge"><title>4&#45;&gt;1</title>
<path fill="none" stroke="black" stroke-width="2" d="M145.28,-28.2879C127.51,-26.9628 101.94,-25.0561 81.8221,-23.5559"/>
<polygon fill="black" stroke="black" stroke-width="2" points="81.813,-20.0456 71.5804,-22.7922 81.2924,-27.0262 81.813,-20.0456"/>
</g>
<!-- 4&#45;&gt;2 -->
<g id="edge9" class="edge"><title>4&#45;&gt;2</title>
<path fill="none" stroke="black" stroke-width="2" d="M184.458,-41.6763C202.934,-53.877 231.979,-73.0569 253.073,-86.9862"/>
<polygon fill="black" stroke="black" stroke-width="2" points="251.299,-90.009 261.572,-92.5988 255.156,-84.1676 251.299,-90.009"/>
</g>
<!-- 4&#45;&gt;5 -->
<g id="edge15" class="edge"><title>4&#45;&gt;5</title>
<path fill="none" stroke="black" stroke-width="2" d="M149.779,-43.1254C124.96,-62.6862 78.3561,-99.4157 49.6329,-122.053"/>
<polygon fill="black" stroke="black" stroke-width="2" points="47.3752,-119.376 41.6877,-128.315 51.7082,-124.874 47.3752,-119.376"/>
</g>
<!-- 5&#45;&gt;6 -->
<g id="edge18" class="edge"><title>5&#45;&gt;6</title>
<path fill="none" stroke="black" stroke-width="2" d="M45.7903,-146.289C69.5263,-151.677 108.491,-160.522 135.706,-166.7"/>
<polygon fill="black" stroke="black" stroke-width="2" points="134.978,-170.124 145.505,-168.925 136.528,-163.298 134.978,-170.124"/>
</g>
<!-- 5&#45;&gt;7 -->
<g id="edge19" class="edge"><title>5&#45;&gt;7</title>
<path fill="none" stroke="black" stroke-width="2" d="M46.0403,-139.725C57.4624,-138.741 71.7917,-137.506 84.5064,-136.411"/>
<polygon fill="black" stroke="black" stroke-width="2" points="85.0452,-139.878 94.7078,-135.532 84.4443,-132.903 85.0452,-139.878"/>
</g>
<!-- 6&#45;&gt;0 -->
<g id="edge3" class="edge"><title>6&#45;&gt;0</title>
<path fill="none" stroke="black" stroke-width="2" d="M147.787,-184.276C122.618,-198.533 77.6517,-224.005 48.6464,-240.436"/>
<polygon fill="black" stroke="black" stroke-width="2" points="46.8112,-237.453 39.8353,-245.427 50.2614,-243.543 46.8112,-237.453"/>
</g>
<!-- 6&#45;&gt;2 -->
<g id="edge10" class="edge"><title>6&#45;&gt;2</title>
<path fill="none" stroke="black" stroke-width="2" d="M184.617,-162.545C202.965,-151.273 231.541,-133.718 252.513,-120.834"/>
<polygon fill="black" stroke="black" stroke-width="2" points="254.578,-123.673 261.266,-115.457 250.914,-117.709 254.578,-123.673"/>
</g>
<!-- 6&#45;&gt;3 -->
<g id="edge13" class="edge"><title>6&#45;&gt;3</title>
<path fill="none" stroke="black" stroke-width="2" d="M158.552,-193.494C151.569,-210.937 141.302,-236.582 133.354,-256.437"/>
<polygon fill="black" stroke="black" stroke-width="2" points="130.018,-255.353 129.551,-265.938 136.517,-257.955 130.018,-255.353"/>
</g>
<!-- 6&#45;&gt;4 -->
<g id="edge16" class="edge"><title>6&#45;&gt;4</title>
<path fill="none" stroke="black" stroke-width="2" d="M166.497,-152.467C166.515,-128.464 166.545,-89.1283 166.566,-61.5027"/>
<polygon fill="black" stroke="black" stroke-width="2" points="170.066,-61.1863 166.573,-51.1836 163.066,-61.181 170.066,-61.1863"/>
</g>
<!-- 6&#45;&gt;7 -->
<g id="edge20" class="edge"><title>6&#45;&gt;7</title>
<path fill="none" stroke="black" stroke-width="2" d="M149.688,-160.369C146.826,-158.1 143.801,-155.701 140.785,-153.309"/>
<polygon fill="black" stroke="black" stroke-width="2" points="142.951,-150.56 132.941,-147.089 138.602,-156.045 142.951,-150.56"/>
</g>
<!-- 7&#45;&gt;0 -->
<g id="edge4" class="edge"><title>7&#45;&gt;0</title>
<path fill="none" stroke="black" stroke-width="2" d="M102.863,-150.696C86.6553,-171.595 59.0224,-207.225 40.4469,-231.176"/>
<polygon fill="black" stroke="black" stroke-width="2" points="37.6506,-229.07 34.2878,-239.117 43.182,-233.36 37.6506,-229.07"/>
</g>
<!-- 7&#45;&gt;1 -->
<g id="edge8" class="edge"><title>7&#45;&gt;1</title>
<path fill="none" stroke="black" stroke-width="2" d="M105.357,-115.371C94.7867,-97.2596 78.4852,-69.3273 66.3793,-48.584"/>
<polygon fill="black" stroke="black" stroke-width="2" points="69.3761,-46.7751 61.3127,-39.9025 63.3304,-50.3034 69.3761,-46.7751"/>
</g>
<!-- 7&#45;&gt;3 -->
<g id="edge14" class="edge"><title>7&#45;&gt;3</title>
<path fill="none" stroke="black" stroke-width="2" d="M116.826,-155.182C117.76,-181.022 119.334,-224.614 120.407,-254.298"/>
<polygon fill="black" stroke="black" stroke-width="2" points="116.918,-254.679 120.777,-264.546 123.914,-254.426 116.918,-254.679"/>
</g>
<!-- 7&#45;&gt;4 -->
<g id="edge17" class="edge"><title>7&#45;&gt;4</title>
<path fill="none" stroke="black" stroke-width="2" d="M125.556,-114.166C133.228,-98.4067 144.128,-76.0166 152.766,-58.2734"/>
<polygon fill="black" stroke="black" stroke-width="2" points="156.066,-59.489 157.297,-48.9658 149.773,-56.425 156.066,-59.489"/>
</g>
</g>
</svg>

