<?xml version="1.0" encoding="UTF-8" standalone="no"?>
<!DOCTYPE svg PUBLIC "-//W3C//DTD SVG 1.1//EN"
 "http://www.w3.org/Graphics/SVG/1.1/DTD/svg11.dtd">
<!-- Generated by graphviz version 2.36.0 (20140111.2315)
 -->
<!-- Title: G Pages: 1 -->
<svg width="100%" height="100%"
 viewBox="0.00 0.00 278.12 224.17" xmlns="http://www.w3.org/2000/svg" xmlns:xlink="http://www.w3.org/1999/xlink">
<g id="graph0" class="graph" transform="scale(1 1) rotate(0) translate(4 220.173)">
<title>G</title>
<!-- 0 -->
<g id="node1" class="node"><title>0</title>
<ellipse fill="cadetblue" stroke="black" cx="35.3044" cy="-96.7044" rx="21.4286" ry="21.4286"/>
<text text-anchor="middle" x="35.3044" y="-91.7044" font-family="Times New Roman,serif" font-size="20.00">2</text>
</g>
<!-- 6 -->
<g id="node7" class="node"><title>6</title>
<ellipse fill="cadetblue" stroke="black" cx="116.571" cy="-172.796" rx="21.4286" ry="21.4286"/>
<text text-anchor="middle" x="116.571" y="-167.796" font-family="Times New Roman,serif" font-size="20.00">2</text>
</g>
<!-- 0&#45;&gt;6 -->
<g id="edge3" class="edge"><title>0&#45;&gt;6</title>
<path fill="none" stroke="black" stroke-width="2" d="M50.9734,-111.376C63.0029,-122.639 79.7985,-138.365 93.383,-151.084"/>
<polygon fill="black" stroke="black" stroke-width="2" points="91.2581,-153.89 100.95,-158.17 96.0425,-148.78 91.2581,-153.89"/>
</g>
<!-- 7 -->
<g id="node8" class="node"><title>7</title>
<ellipse fill="cadetblue" stroke="black" cx="105.514" cy="-120.08" rx="21.4286" ry="21.4286"/>
<text text-anchor="middle" x="105.514" y="-115.08" font-family="Times New Roman,serif" font-size="20.00">2</text>
</g>
<!-- 0&#45;&gt;7 -->
<g id="edge4" class="edge"><title>0&#45;&gt;7</title>
<path fill="none" stroke="black" stroke-width="2" d="M55.6119,-103.466C61.8159,-105.531 68.7745,-107.848 75.4809,-110.081"/>
<polygon fill="black" stroke="black" stroke-width="2" points="74.4152,-113.415 85.0088,-113.253 76.6265,-106.773 74.4152,-113.415"/>
</g>
<!-- 1 -->
<g id="node2" class="node"><title>1</title>
<ellipse fill="cadetblue" stroke="black" cx="219.374" cy="-149.52" rx="21.4286" ry="21.4286"/>
<text text-anchor="middle" x="219.374" y="-144.52" font-family="Times New Roman,serif" font-size="20.00">2</text>
</g>
<!-- 1&#45;&gt;6 -->
<g id="edge7" class="edge"><title>1&#45;&gt;6</title>
<path fill="none" stroke="black" stroke-width="2" d="M198.57,-154.23C183.8,-157.574 163.73,-162.119 147.143,-165.874"/>
<polygon fill="black" stroke="black" stroke-width="2" points="146.324,-162.471 137.344,-168.093 147.87,-169.298 146.324,-162.471"/>
</g>
<!-- 1&#45;&gt;7 -->
<g id="edge8" class="edge"><title>1&#45;&gt;7</title>
<path fill="none" stroke="black" stroke-width="2" d="M198.755,-144.189C181.292,-139.674 156.005,-133.135 136.17,-128.007"/>
<polygon fill="black" stroke="black" stroke-width="2" points="136.922,-124.586 126.365,-125.471 135.17,-131.363 136.922,-124.586"/>
</g>
<!-- 2 -->
<g id="node3" class="node"><title>2</title>
<ellipse fill="cadetblue" stroke="black" cx="129.942" cy="-21.2132" rx="21.4286" ry="21.4286"/>
<text text-anchor="middle" x="129.942" y="-16.2132" font-family="Times New Roman,serif" font-size="20.00">2</text>
</g>
<!-- 4 -->
<g id="node5" class="node"><title>4</title>
<ellipse fill="cadetblue" stroke="black" cx="248.907" cy="-35.4844" rx="21.4286" ry="21.4286"/>
<text text-anchor="middle" x="248.907" y="-30.4844" font-family="Times New Roman,serif" font-size="20.00">2</text>
</g>
<!-- 2&#45;&gt;4 -->
<g id="edge9" class="edge"><title>2&#45;&gt;4</title>
<path fill="none" stroke="black" stroke-width="2" d="M151.211,-23.7646C169.735,-25.9868 196.834,-29.2376 217.795,-31.7522"/>
<polygon fill="black" stroke="black" stroke-width="2" points="217.477,-35.239 227.822,-32.9551 218.31,-28.2888 217.477,-35.239"/>
</g>
<!-- 5 -->
<g id="node6" class="node"><title>5</title>
<ellipse fill="cadetblue" stroke="black" cx="169.622" cy="-71.6447" rx="21.4286" ry="21.4286"/>
<text text-anchor="middle" x="169.622" y="-66.6447" font-family="Times New Roman,serif" font-size="20.00">2</text>
</g>
<!-- 2&#45;&gt;5 -->
<g id="edge10" class="edge"><title>2&#45;&gt;5</title>
<path fill="none" stroke="black" stroke-width="2" d="M143.155,-38.0061C145.341,-40.7837 147.647,-43.7154 149.951,-46.6432"/>
<polygon fill="black" stroke="black" stroke-width="2" points="147.398,-49.0583 156.332,-54.7531 152.899,-44.7298 147.398,-49.0583"/>
</g>
<!-- 3 -->
<g id="node4" class="node"><title>3</title>
<ellipse fill="cadetblue" stroke="black" cx="21.2132" cy="-194.959" rx="21.4286" ry="21.4286"/>
<text text-anchor="middle" x="21.2132" y="-189.959" font-family="Times New Roman,serif" font-size="20.00">2</text>
</g>
<!-- 3&#45;&gt;0 -->
<g id="edge1" class="edge"><title>3&#45;&gt;0</title>
<path fill="none" stroke="black" stroke-width="2" d="M24.2708,-173.64C26.1727,-160.378 28.6527,-143.085 30.7797,-128.254"/>
<polygon fill="black" stroke="black" stroke-width="2" points="34.2976,-128.378 32.2528,-117.983 27.3685,-127.384 34.2976,-128.378"/>
</g>
<!-- 4&#45;&gt;1 -->
<g id="edge5" class="edge"><title>4&#45;&gt;1</title>
<path fill="none" stroke="black" stroke-width="2" d="M243.558,-56.1354C239.029,-73.6254 232.47,-98.9508 227.326,-118.817"/>
<polygon fill="black" stroke="black" stroke-width="2" points="223.901,-118.079 224.782,-128.637 230.678,-119.834 223.901,-118.079"/>
</g>
<!-- 5&#45;&gt;0 -->
<g id="edge2" class="edge"><title>5&#45;&gt;0</title>
<path fill="none" stroke="black" stroke-width="2" d="M148.635,-75.5602C126.685,-79.6555 91.9797,-86.1304 66.7535,-90.8369"/>
<polygon fill="black" stroke="black" stroke-width="2" points="65.7758,-87.4588 56.5874,-92.7336 67.0597,-94.3401 65.7758,-87.4588"/>
</g>
<!-- 5&#45;&gt;1 -->
<g id="edge6" class="edge"><title>5&#45;&gt;1</title>
<path fill="none" stroke="black" stroke-width="2" d="M181.161,-89.7066C187.441,-99.5355 195.33,-111.884 202.307,-122.805"/>
<polygon fill="black" stroke="black" stroke-width="2" points="199.564,-125.013 207.898,-131.556 205.463,-121.245 199.564,-125.013"/>
</g>
<!-- 5&#45;&gt;4 -->
<g id="edge15" class="edge"><title>5&#45;&gt;4</title>
<path fill="none" stroke="black" stroke-width="2" d="M189.221,-62.7062C198.63,-58.4148 210.083,-53.1911 220.431,-48.4715"/>
<polygon fill="black" stroke="black" stroke-width="2" points="221.888,-51.6542 229.534,-44.3201 218.983,-45.2853 221.888,-51.6542"/>
</g>
<!-- 6&#45;&gt;2 -->
<g id="edge11" class="edge"><title>6&#45;&gt;2</title>
<path fill="none" stroke="black" stroke-width="2" d="M123.965,-152.573C127.105,-142.888 130.372,-131.037 131.818,-120.081 134.777,-97.6788 134.197,-72.1764 132.935,-52.6842"/>
<polygon fill="black" stroke="black" stroke-width="2" points="136.413,-52.2451 132.183,-42.5313 129.432,-52.7628 136.413,-52.2451"/>
</g>
<!-- 6&#45;&gt;3 -->
<g id="edge13" class="edge"><title>6&#45;&gt;3</title>
<path fill="none" stroke="black" stroke-width="2" d="M95.8797,-177.605C83.0971,-180.576 66.4558,-184.444 52.1285,-187.774"/>
<polygon fill="black" stroke="black" stroke-width="2" points="51.1413,-184.41 42.1933,-190.083 52.7261,-191.228 51.1413,-184.41"/>
</g>
<!-- 7&#45;&gt;2 -->
<g id="edge12" class="edge"><title>7&#45;&gt;2</title>
<path fill="none" stroke="black" stroke-width="2" d="M110.695,-99.113C114.086,-85.3887 118.574,-67.2238 122.363,-51.8874"/>
<polygon fill="black" stroke="black" stroke-width="2" points="125.852,-52.3587 124.853,-41.8111 119.056,-50.6796 125.852,-52.3587"/>
</g>
<!-- 7&#45;&gt;3 -->
<g id="edge14" class="edge"><title>7&#45;&gt;3</title>
<path fill="none" stroke="black" stroke-width="2" d="M89.2599,-134.518C76.7013,-145.673 59.135,-161.276 44.9963,-173.834"/>
<polygon fill="black" stroke="black" stroke-width="2" points="42.2836,-171.562 37.1314,-180.82 46.9323,-176.796 42.2836,-171.562"/>
</g>
<!-- 7&#45;&gt;5 -->
<g id="edge16" class="edge"><title>7&#45;&gt;5</title>
<path fill="none" stroke="black" stroke-width="2" d="M122.694,-107.1C129.305,-102.105 137.001,-96.291 144.225,-90.8331"/>
<polygon fill="black" stroke="black" stroke-width="2" points="146.526,-93.4811 152.395,-84.6603 142.306,-87.8959 146.526,-93.4811"/>
</g>
</g>
</svg>

