<?xml version="1.0" encoding="UTF-8" standalone="no"?>
<!DOCTYPE svg PUBLIC "-//W3C//DTD SVG 1.1//EN"
 "http://www.w3.org/Graphics/SVG/1.1/DTD/svg11.dtd">
<!-- Generated by graphviz version 2.36.0 (20140111.2315)
 -->
<!-- Title: G Pages: 1 -->
<svg width="100%" height="100%"
 viewBox="0.00 0.00 381.05 408.46" xmlns="http://www.w3.org/2000/svg" xmlns:xlink="http://www.w3.org/1999/xlink">
<g id="graph0" class="graph" transform="scale(1 1) rotate(0) translate(4 404.463)">
<title>G</title>
<!-- 0 -->
<g id="node1" class="node"><title>0</title>
<ellipse fill="cadetblue" stroke="black" cx="246.37" cy="-287.475" rx="21.4286" ry="21.4286"/>
<text text-anchor="middle" x="246.37" y="-282.475" font-family="Times New Roman,serif" font-size="20.00">2</text>
</g>
<!-- 5 -->
<g id="node6" class="node"><title>5</title>
<ellipse fill="cadetblue" stroke="black" cx="116.931" cy="-291.078" rx="21.4286" ry="21.4286"/>
<text text-anchor="middle" x="116.931" y="-286.078" font-family="Times New Roman,serif" font-size="20.00">2</text>
</g>
<!-- 0&#45;&gt;5 -->
<g id="edge2" class="edge"><title>0&#45;&gt;5</title>
<path fill="none" stroke="black" stroke-width="2" d="M224.996,-288.07C204.198,-288.649 172.348,-289.535 148.606,-290.196"/>
<polygon fill="black" stroke="black" stroke-width="2" points="148.236,-286.705 138.337,-290.482 148.431,-293.702 148.236,-286.705"/>
</g>
<!-- 6 -->
<g id="node7" class="node"><title>6</title>
<ellipse fill="cadetblue" stroke="black" cx="351.838" cy="-183.837" rx="21.4286" ry="21.4286"/>
<text text-anchor="middle" x="351.838" y="-178.837" font-family="Times New Roman,serif" font-size="20.00">2</text>
</g>
<!-- 0&#45;&gt;6 -->
<g id="edge3" class="edge"><title>0&#45;&gt;6</title>
<path fill="none" stroke="black" stroke-width="2" d="M261.932,-272.183C279.715,-254.708 308.973,-225.958 329.261,-206.022"/>
<polygon fill="black" stroke="black" stroke-width="2" points="331.875,-208.36 336.555,-198.855 326.969,-203.367 331.875,-208.36"/>
</g>
<!-- 1 -->
<g id="node2" class="node"><title>1</title>
<ellipse fill="cadetblue" stroke="black" cx="21.2132" cy="-159.575" rx="21.4286" ry="21.4286"/>
<text text-anchor="middle" x="21.2132" y="-154.575" font-family="Times New Roman,serif" font-size="20.00">2</text>
</g>
<!-- 7 -->
<g id="node8" class="node"><title>7</title>
<ellipse fill="brown" stroke="black" cx="160.927" cy="-102.672" rx="21.4286" ry="21.4286"/>
<text text-anchor="middle" x="160.927" y="-97.6721" font-family="Times New Roman,serif" font-size="20.00">3</text>
</g>
<!-- 1&#45;&gt;7 -->
<g id="edge7" class="edge"><title>1&#45;&gt;7</title>
<path fill="none" stroke="black" stroke-width="2" d="M40.9344,-151.543C64.5155,-141.938 104.206,-125.773 131.437,-114.682"/>
<polygon fill="black" stroke="black" stroke-width="2" points="132.912,-117.861 140.853,-110.848 130.272,-111.378 132.912,-117.861"/>
</g>
<!-- 2 -->
<g id="node3" class="node"><title>2</title>
<ellipse fill="cadetblue" stroke="black" cx="311.018" cy="-21.2132" rx="21.4286" ry="21.4286"/>
<text text-anchor="middle" x="311.018" y="-16.2132" font-family="Times New Roman,serif" font-size="20.00">2</text>
</g>
<!-- 4 -->
<g id="node5" class="node"><title>4</title>
<ellipse fill="cadetblue" stroke="black" cx="210.441" cy="-153.104" rx="21.4286" ry="21.4286"/>
<text text-anchor="middle" x="210.441" y="-148.104" font-family="Times New Roman,serif" font-size="20.00">2</text>
</g>
<!-- 2&#45;&gt;4 -->
<g id="edge8" class="edge"><title>2&#45;&gt;4</title>
<path fill="none" stroke="black" stroke-width="2" d="M298.075,-38.1856C280.649,-61.0371 249.517,-101.862 229.435,-128.197"/>
<polygon fill="black" stroke="black" stroke-width="2" points="226.615,-126.122 223.334,-136.196 232.181,-130.367 226.615,-126.122"/>
</g>
<!-- 3 -->
<g id="node4" class="node"><title>3</title>
<ellipse fill="cadetblue" stroke="black" cx="309.265" cy="-379.25" rx="21.4286" ry="21.4286"/>
<text text-anchor="middle" x="309.265" y="-374.25" font-family="Times New Roman,serif" font-size="20.00">2</text>
</g>
<!-- 3&#45;&gt;0 -->
<g id="edge1" class="edge"><title>3&#45;&gt;0</title>
<path fill="none" stroke="black" stroke-width="2" d="M297.138,-361.555C287.828,-347.97 274.829,-329.002 264.316,-313.661"/>
<polygon fill="black" stroke="black" stroke-width="2" points="266.999,-311.386 258.459,-305.116 261.225,-315.343 266.999,-311.386"/>
</g>
<!-- 4&#45;&gt;1 -->
<g id="edge5" class="edge"><title>4&#45;&gt;1</title>
<path fill="none" stroke="black" stroke-width="2" d="M189.102,-153.833C155.794,-154.972 91.2691,-157.179 52.6365,-158.5"/>
<polygon fill="black" stroke="black" stroke-width="2" points="52.3487,-155.008 42.4742,-158.847 52.5881,-162.004 52.3487,-155.008"/>
</g>
<!-- 4&#45;&gt;6 -->
<g id="edge14" class="edge"><title>4&#45;&gt;6</title>
<path fill="none" stroke="black" stroke-width="2" d="M231.305,-157.638C255.01,-162.791 293.923,-171.249 321.103,-177.157"/>
<polygon fill="black" stroke="black" stroke-width="2" points="320.373,-180.58 330.889,-179.284 321.86,-173.739 320.373,-180.58"/>
</g>
<!-- 4&#45;&gt;7 -->
<g id="edge15" class="edge"><title>4&#45;&gt;7</title>
<path fill="none" stroke="black" stroke-width="2" d="M195.316,-137.698C191.477,-133.788 187.271,-129.504 183.159,-125.317"/>
<polygon fill="black" stroke="black" stroke-width="2" points="185.462,-122.666 175.959,-117.983 180.467,-127.571 185.462,-122.666"/>
</g>
<!-- 5&#45;&gt;1 -->
<g id="edge6" class="edge"><title>5&#45;&gt;1</title>
<path fill="none" stroke="black" stroke-width="2" d="M104.418,-273.886C87.9366,-251.243 58.8201,-211.241 39.7711,-185.071"/>
<polygon fill="black" stroke="black" stroke-width="2" points="42.4444,-182.796 33.7297,-176.771 36.7849,-186.915 42.4444,-182.796"/>
</g>
<!-- 5&#45;&gt;3 -->
<g id="edge11" class="edge"><title>5&#45;&gt;3</title>
<path fill="none" stroke="black" stroke-width="2" d="M136.432,-300.018C170.415,-315.597 240.645,-347.793 280.324,-365.982"/>
<polygon fill="black" stroke="black" stroke-width="2" points="279.164,-369.301 289.713,-370.286 282.081,-362.937 279.164,-369.301"/>
</g>
<!-- 5&#45;&gt;4 -->
<g id="edge13" class="edge"><title>5&#45;&gt;4</title>
<path fill="none" stroke="black" stroke-width="2" d="M128.965,-273.323C145.166,-249.417 174.111,-206.708 192.782,-179.159"/>
<polygon fill="black" stroke="black" stroke-width="2" points="195.741,-181.032 198.454,-170.791 189.946,-177.105 195.741,-181.032"/>
</g>
<!-- 6&#45;&gt;2 -->
<g id="edge9" class="edge"><title>6&#45;&gt;2</title>
<path fill="none" stroke="black" stroke-width="2" d="M346.668,-163.241C339.602,-135.091 326.875,-84.3864 318.694,-51.793"/>
<polygon fill="black" stroke="black" stroke-width="2" points="322.039,-50.7456 316.21,-41.8986 315.25,-52.4499 322.039,-50.7456"/>
</g>
<!-- 6&#45;&gt;3 -->
<g id="edge12" class="edge"><title>6&#45;&gt;3</title>
<path fill="none" stroke="black" stroke-width="2" d="M347.282,-204.75C339.76,-239.276 324.708,-308.362 315.97,-348.474"/>
<polygon fill="black" stroke="black" stroke-width="2" points="312.497,-347.972 313.788,-358.487 319.336,-349.462 312.497,-347.972"/>
</g>
<!-- 6&#45;&gt;7 -->
<g id="edge17" class="edge"><title>6&#45;&gt;7</title>
<path fill="none" stroke="black" stroke-width="2" d="M332.126,-175.457C298.313,-161.081 229.111,-131.661 189.833,-114.961"/>
<polygon fill="black" stroke="black" stroke-width="2" points="191.103,-111.698 180.531,-111.007 188.365,-118.14 191.103,-111.698"/>
</g>
<!-- 7&#45;&gt;0 -->
<g id="edge4" class="edge"><title>7&#45;&gt;0</title>
<path fill="none" stroke="black" stroke-width="2" d="M169.56,-122.307C175.66,-136.108 184.068,-154.984 191.658,-171.519 205.452,-201.567 221.658,-235.783 232.833,-259.215"/>
<polygon fill="black" stroke="black" stroke-width="2" points="229.678,-260.731 237.146,-268.246 235.995,-257.714 229.678,-260.731"/>
</g>
<!-- 7&#45;&gt;2 -->
<g id="edge10" class="edge"><title>7&#45;&gt;2</title>
<path fill="none" stroke="black" stroke-width="2" d="M179.632,-92.52C205.585,-78.4347 252.722,-52.8518 282.917,-36.4645"/>
<polygon fill="black" stroke="black" stroke-width="2" points="284.957,-39.3395 292.076,-31.4933 281.618,-33.1872 284.957,-39.3395"/>
</g>
<!-- 7&#45;&gt;5 -->
<g id="edge16" class="edge"><title>7&#45;&gt;5</title>
<path fill="none" stroke="black" stroke-width="2" d="M156.05,-123.555C148.3,-156.745 133.128,-221.716 124.126,-260.265"/>
<polygon fill="black" stroke="black" stroke-width="2" points="120.628,-259.855 121.762,-270.389 127.445,-261.447 120.628,-259.855"/>
</g>
</g>
</svg>

