<?xml version="1.0" encoding="UTF-8" standalone="no"?>
<!DOCTYPE svg PUBLIC "-//W3C//DTD SVG 1.1//EN"
 "http://www.w3.org/Graphics/SVG/1.1/DTD/svg11.dtd">
<!-- Generated by graphviz version 2.36.0 (20140111.2315)
 -->
<!-- Title: G Pages: 1 -->
<svg width="100%" height="100%"
 viewBox="0.00 0.00 301.90 319.18" xmlns="http://www.w3.org/2000/svg" xmlns:xlink="http://www.w3.org/1999/xlink">
<g id="graph0" class="graph" transform="scale(1 1) rotate(0) translate(4 315.177)">
<title>G</title>
<!-- 0 -->
<g id="node1" class="node"><title>0</title>
<ellipse fill="cadetblue" stroke="black" cx="21.2132" cy="-181.927" rx="21.4286" ry="21.4286"/>
<text text-anchor="middle" x="21.2132" y="-176.927" font-family="Times New Roman,serif" font-size="20.00">2</text>
</g>
<!-- 6 -->
<g id="node7" class="node"><title>6</title>
<ellipse fill="cadetblue" stroke="black" cx="171.997" cy="-289.963" rx="21.4286" ry="21.4286"/>
<text text-anchor="middle" x="171.997" y="-284.963" font-family="Times New Roman,serif" font-size="20.00">2</text>
</g>
<!-- 0&#45;&gt;6 -->
<g id="edge3" class="edge"><title>0&#45;&gt;6</title>
<path fill="none" stroke="black" stroke-width="2" d="M38.51,-194.32C64.8417,-213.187 115.164,-249.242 145.938,-271.292"/>
<polygon fill="black" stroke="black" stroke-width="2" points="144.27,-274.403 154.438,-277.382 148.347,-268.713 144.27,-274.403"/>
</g>
<!-- 7 -->
<g id="node8" class="node"><title>7</title>
<ellipse fill="cadetblue" stroke="black" cx="113.611" cy="-99.3213" rx="21.4286" ry="21.4286"/>
<text text-anchor="middle" x="113.611" y="-94.3213" font-family="Times New Roman,serif" font-size="20.00">2</text>
</g>
<!-- 0&#45;&gt;7 -->
<g id="edge4" class="edge"><title>0&#45;&gt;7</title>
<path fill="none" stroke="black" stroke-width="2" d="M37.3076,-167.538C51.8817,-154.508 73.5355,-135.149 90.0564,-120.379"/>
<polygon fill="black" stroke="black" stroke-width="2" points="92.5785,-122.819 97.7008,-113.545 87.913,-117.601 92.5785,-122.819"/>
</g>
<!-- 1 -->
<g id="node2" class="node"><title>1</title>
<ellipse fill="cadetblue" stroke="black" cx="272.689" cy="-180.669" rx="21.4286" ry="21.4286"/>
<text text-anchor="middle" x="272.689" y="-175.669" font-family="Times New Roman,serif" font-size="20.00">2</text>
</g>
<!-- 1&#45;&gt;6 -->
<g id="edge7" class="edge"><title>1&#45;&gt;6</title>
<path fill="none" stroke="black" stroke-width="2" d="M258.263,-196.329C241.289,-214.752 212.951,-245.511 193.413,-266.719"/>
<polygon fill="black" stroke="black" stroke-width="2" points="190.599,-264.607 186.397,-274.333 195.747,-269.35 190.599,-264.607"/>
</g>
<!-- 1&#45;&gt;7 -->
<g id="edge8" class="edge"><title>1&#45;&gt;7</title>
<path fill="none" stroke="black" stroke-width="2" d="M253.501,-170.857C225.672,-156.626 173.933,-130.168 141.776,-113.724"/>
<polygon fill="black" stroke="black" stroke-width="2" points="143.364,-110.605 132.867,-109.169 140.177,-116.838 143.364,-110.605"/>
</g>
<!-- 2 -->
<g id="node3" class="node"><title>2</title>
<ellipse fill="cadetblue" stroke="black" cx="232.466" cy="-130.238" rx="21.4286" ry="21.4286"/>
<text text-anchor="middle" x="232.466" y="-125.238" font-family="Times New Roman,serif" font-size="20.00">2</text>
</g>
<!-- 4 -->
<g id="node5" class="node"><title>4</title>
<ellipse fill="cadetblue" stroke="black" cx="236.815" cy="-21.2132" rx="21.4286" ry="21.4286"/>
<text text-anchor="middle" x="236.815" y="-16.2132" font-family="Times New Roman,serif" font-size="20.00">2</text>
</g>
<!-- 2&#45;&gt;4 -->
<g id="edge9" class="edge"><title>2&#45;&gt;4</title>
<path fill="none" stroke="black" stroke-width="2" d="M233.315,-108.958C233.956,-92.8993 234.844,-70.6186 235.566,-52.528"/>
<polygon fill="black" stroke="black" stroke-width="2" points="239.067,-52.571 235.968,-42.4394 232.073,-52.2919 239.067,-52.571"/>
</g>
<!-- 5 -->
<g id="node6" class="node"><title>5</title>
<ellipse fill="cadetblue" stroke="black" cx="149.918" cy="-211.015" rx="21.4286" ry="21.4286"/>
<text text-anchor="middle" x="149.918" y="-206.015" font-family="Times New Roman,serif" font-size="20.00">2</text>
</g>
<!-- 2&#45;&gt;5 -->
<g id="edge10" class="edge"><title>2&#45;&gt;5</title>
<path fill="none" stroke="black" stroke-width="2" d="M216.939,-145.432C204.408,-157.694 186.605,-175.115 172.497,-188.921"/>
<polygon fill="black" stroke="black" stroke-width="2" points="169.795,-186.667 165.096,-196.163 174.691,-191.67 169.795,-186.667"/>
</g>
<!-- 3 -->
<g id="node4" class="node"><title>3</title>
<ellipse fill="cadetblue" stroke="black" cx="34.348" cy="-277.156" rx="21.4286" ry="21.4286"/>
<text text-anchor="middle" x="34.348" y="-272.156" font-family="Times New Roman,serif" font-size="20.00">2</text>
</g>
<!-- 3&#45;&gt;0 -->
<g id="edge1" class="edge"><title>3&#45;&gt;0</title>
<path fill="none" stroke="black" stroke-width="2" d="M31.4329,-256.022C29.6984,-243.446 27.4655,-227.257 25.5295,-213.221"/>
<polygon fill="black" stroke="black" stroke-width="2" points="28.9537,-212.43 24.1201,-203.002 22.0193,-213.387 28.9537,-212.43"/>
</g>
<!-- 4&#45;&gt;1 -->
<g id="edge5" class="edge"><title>4&#45;&gt;1</title>
<path fill="none" stroke="black" stroke-width="2" d="M241.505,-42.0593C247.682,-69.5152 258.595,-118.02 265.734,-149.754"/>
<polygon fill="black" stroke="black" stroke-width="2" points="262.389,-150.83 267.998,-159.818 269.218,-149.294 262.389,-150.83"/>
</g>
<!-- 5&#45;&gt;0 -->
<g id="edge2" class="edge"><title>5&#45;&gt;0</title>
<path fill="none" stroke="black" stroke-width="2" d="M128.953,-206.277C108.104,-201.565 75.8841,-194.283 52.1064,-188.909"/>
<polygon fill="black" stroke="black" stroke-width="2" points="52.6949,-185.454 42.1693,-186.663 51.1517,-192.281 52.6949,-185.454"/>
</g>
<!-- 5&#45;&gt;1 -->
<g id="edge6" class="edge"><title>5&#45;&gt;1</title>
<path fill="none" stroke="black" stroke-width="2" d="M170.744,-205.868C190.234,-201.05 219.597,-193.793 241.811,-188.302"/>
<polygon fill="black" stroke="black" stroke-width="2" points="242.893,-191.64 251.761,-185.842 241.213,-184.844 242.893,-191.64"/>
</g>
<!-- 6&#45;&gt;2 -->
<g id="edge11" class="edge"><title>6&#45;&gt;2</title>
<path fill="none" stroke="black" stroke-width="2" d="M179.533,-270.057C190.018,-242.363 209.084,-192.001 221.244,-159.88"/>
<polygon fill="black" stroke="black" stroke-width="2" points="224.663,-160.735 224.93,-150.144 218.116,-158.257 224.663,-160.735"/>
</g>
<!-- 6&#45;&gt;3 -->
<g id="edge13" class="edge"><title>6&#45;&gt;3</title>
<path fill="none" stroke="black" stroke-width="2" d="M150.791,-287.99C128.123,-285.881 91.937,-282.515 65.9183,-280.094"/>
<polygon fill="black" stroke="black" stroke-width="2" points="66.0861,-276.594 55.8049,-279.153 65.4376,-283.564 66.0861,-276.594"/>
</g>
<!-- 6&#45;&gt;5 -->
<g id="edge16" class="edge"><title>6&#45;&gt;5</title>
<path fill="none" stroke="black" stroke-width="2" d="M166.196,-269.221C163.813,-260.699 161.005,-250.661 158.399,-241.343"/>
<polygon fill="black" stroke="black" stroke-width="2" points="161.744,-240.307 155.68,-231.62 155.003,-242.193 161.744,-240.307"/>
</g>
<!-- 7&#45;&gt;2 -->
<g id="edge12" class="edge"><title>7&#45;&gt;2</title>
<path fill="none" stroke="black" stroke-width="2" d="M134.314,-104.707C152.947,-109.553 180.576,-116.74 201.778,-122.255"/>
<polygon fill="black" stroke="black" stroke-width="2" points="201.043,-125.68 211.602,-124.811 202.805,-118.906 201.043,-125.68"/>
</g>
<!-- 7&#45;&gt;3 -->
<g id="edge14" class="edge"><title>7&#45;&gt;3</title>
<path fill="none" stroke="black" stroke-width="2" d="M104.825,-119.032C90.862,-150.361 63.5288,-211.686 47.311,-248.072"/>
<polygon fill="black" stroke="black" stroke-width="2" points="43.9261,-247.07 43.0519,-257.628 50.3198,-249.919 43.9261,-247.07"/>
</g>
<!-- 7&#45;&gt;4 -->
<g id="edge15" class="edge"><title>7&#45;&gt;4</title>
<path fill="none" stroke="black" stroke-width="2" d="M131.79,-87.7962C152.445,-74.7015 186.352,-53.2055 210.034,-38.1915"/>
<polygon fill="black" stroke="black" stroke-width="2" points="211.99,-41.096 218.561,-32.7856 208.241,-35.184 211.99,-41.096"/>
</g>
</g>
</svg>

