<?xml version="1.0" encoding="UTF-8" standalone="no"?>
<!DOCTYPE svg PUBLIC "-//W3C//DTD SVG 1.1//EN"
 "http://www.w3.org/Graphics/SVG/1.1/DTD/svg11.dtd">
<!-- Generated by graphviz version 2.36.0 (20140111.2315)
 -->
<!-- Title: G Pages: 1 -->
<svg width="100%" height="100%"
 viewBox="0.00 0.00 242.11 225.16" xmlns="http://www.w3.org/2000/svg" xmlns:xlink="http://www.w3.org/1999/xlink">
<g id="graph0" class="graph" transform="scale(1 1) rotate(0) translate(4 221.156)">
<title>G</title>
<!-- 0 -->
<g id="node1" class="node"><title>0</title>
<ellipse fill="cadetblue" stroke="black" cx="21.2132" cy="-78.957" rx="21.4286" ry="21.4286"/>
<text text-anchor="middle" x="21.2132" y="-73.957" font-family="Times New Roman,serif" font-size="20.00">2</text>
</g>
<!-- 6 -->
<g id="node7" class="node"><title>6</title>
<ellipse fill="cadetblue" stroke="black" cx="125.139" cy="-83.9095" rx="21.4286" ry="21.4286"/>
<text text-anchor="middle" x="125.139" y="-78.9095" font-family="Times New Roman,serif" font-size="20.00">2</text>
</g>
<!-- 0&#45;&gt;6 -->
<g id="edge3" class="edge"><title>0&#45;&gt;6</title>
<path fill="none" stroke="black" stroke-width="2" d="M42.4948,-79.9711C57.2063,-80.6722 77.0296,-81.6169 93.5737,-82.4053"/>
<polygon fill="black" stroke="black" stroke-width="2" points="93.73,-85.9166 103.885,-82.8967 94.0633,-78.9246 93.73,-85.9166"/>
</g>
<!-- 7 -->
<g id="node8" class="node"><title>7</title>
<ellipse fill="brown" stroke="black" cx="134.97" cy="-148.879" rx="21.4286" ry="21.4286"/>
<text text-anchor="middle" x="134.97" y="-143.879" font-family="Times New Roman,serif" font-size="20.00">3</text>
</g>
<!-- 0&#45;&gt;7 -->
<g id="edge4" class="edge"><title>0&#45;&gt;7</title>
<path fill="none" stroke="black" stroke-width="2" d="M41.3687,-86.2041C55.5975,-91.7469 74.8132,-100.113 90.3274,-110.042 97.9146,-114.898 105.542,-120.983 112.292,-126.887"/>
<polygon fill="black" stroke="black" stroke-width="2" points="109.996,-129.53 119.757,-133.649 114.695,-124.342 109.996,-129.53"/>
</g>
<!-- 1 -->
<g id="node2" class="node"><title>1</title>
<ellipse fill="cadetblue" stroke="black" cx="212.894" cy="-195.943" rx="21.4286" ry="21.4286"/>
<text text-anchor="middle" x="212.894" y="-190.943" font-family="Times New Roman,serif" font-size="20.00">2</text>
</g>
<!-- 1&#45;&gt;7 -->
<g id="edge7" class="edge"><title>1&#45;&gt;7</title>
<path fill="none" stroke="black" stroke-width="2" d="M194.427,-184.79C184.723,-178.928 172.647,-171.635 161.918,-165.155"/>
<polygon fill="black" stroke="black" stroke-width="2" points="163.674,-162.127 153.304,-159.953 160.055,-168.119 163.674,-162.127"/>
</g>
<!-- 2 -->
<g id="node3" class="node"><title>2</title>
<ellipse fill="cadetblue" stroke="black" cx="192.052" cy="-21.2132" rx="21.4286" ry="21.4286"/>
<text text-anchor="middle" x="192.052" y="-16.2132" font-family="Times New Roman,serif" font-size="20.00">2</text>
</g>
<!-- 2&#45;&gt;7 -->
<g id="edge10" class="edge"><title>2&#45;&gt;7</title>
<path fill="none" stroke="black" stroke-width="2" d="M183.382,-40.6029C173.953,-61.6927 158.778,-95.6316 147.931,-119.89"/>
<polygon fill="black" stroke="black" stroke-width="2" points="144.608,-118.749 143.721,-129.307 150.998,-121.607 144.608,-118.749"/>
</g>
<!-- 3 -->
<g id="node4" class="node"><title>3</title>
<ellipse fill="brown" stroke="black" cx="33.8263" cy="-183.331" rx="21.4286" ry="21.4286"/>
<text text-anchor="middle" x="33.8263" y="-178.331" font-family="Times New Roman,serif" font-size="20.00">3</text>
</g>
<!-- 3&#45;&gt;0 -->
<g id="edge1" class="edge"><title>3&#45;&gt;0</title>
<path fill="none" stroke="black" stroke-width="2" d="M31.2739,-162.21C29.4617,-147.213 26.9992,-126.837 24.9641,-109.996"/>
<polygon fill="black" stroke="black" stroke-width="2" points="28.4364,-109.555 23.7619,-100.047 21.4869,-110.395 28.4364,-109.555"/>
</g>
<!-- 4 -->
<g id="node5" class="node"><title>4</title>
<ellipse fill="cadetblue" stroke="black" cx="210.407" cy="-107.902" rx="21.4286" ry="21.4286"/>
<text text-anchor="middle" x="210.407" y="-102.902" font-family="Times New Roman,serif" font-size="20.00">2</text>
</g>
<!-- 4&#45;&gt;1 -->
<g id="edge5" class="edge"><title>4&#45;&gt;1</title>
<path fill="none" stroke="black" stroke-width="2" d="M211.009,-129.214C211.306,-139.734 211.671,-152.637 212,-164.284"/>
<polygon fill="black" stroke="black" stroke-width="2" points="208.508,-164.625 212.289,-174.522 215.505,-164.427 208.508,-164.625"/>
</g>
<!-- 4&#45;&gt;2 -->
<g id="edge8" class="edge"><title>4&#45;&gt;2</title>
<path fill="none" stroke="black" stroke-width="2" d="M205.964,-86.9168C203.754,-76.4816 201.041,-63.6655 198.598,-52.1316"/>
<polygon fill="black" stroke="black" stroke-width="2" points="201.95,-51.0628 196.454,-42.0048 195.102,-52.5129 201.95,-51.0628"/>
</g>
<!-- 5 -->
<g id="node6" class="node"><title>5</title>
<ellipse fill="cadetblue" stroke="black" cx="71.6447" cy="-128.559" rx="21.4286" ry="21.4286"/>
<text text-anchor="middle" x="71.6447" y="-123.559" font-family="Times New Roman,serif" font-size="20.00">2</text>
</g>
<!-- 4&#45;&gt;5 -->
<g id="edge14" class="edge"><title>4&#45;&gt;5</title>
<path fill="none" stroke="black" stroke-width="2" d="M189.332,-111.039C166.409,-114.451 129.52,-119.943 103.153,-123.868"/>
<polygon fill="black" stroke="black" stroke-width="2" points="102.294,-120.457 92.918,-125.392 103.324,-127.381 102.294,-120.457"/>
</g>
<!-- 5&#45;&gt;0 -->
<g id="edge2" class="edge"><title>5&#45;&gt;0</title>
<path fill="none" stroke="black" stroke-width="2" d="M56.5136,-113.677C52.5967,-109.824 48.2912,-105.589 44.0744,-101.442"/>
<polygon fill="black" stroke="black" stroke-width="2" points="46.2665,-98.6889 36.6827,-94.172 41.358,-103.68 46.2665,-98.6889"/>
</g>
<!-- 5&#45;&gt;3 -->
<g id="edge11" class="edge"><title>5&#45;&gt;3</title>
<path fill="none" stroke="black" stroke-width="2" d="M59.4705,-146.191C57.0413,-149.709 54.4416,-153.474 51.8635,-157.208"/>
<polygon fill="black" stroke="black" stroke-width="2" points="48.7793,-155.515 45.9776,-165.732 54.5397,-159.492 48.7793,-155.515"/>
</g>
<!-- 6&#45;&gt;1 -->
<g id="edge6" class="edge"><title>6&#45;&gt;1</title>
<path fill="none" stroke="black" stroke-width="2" d="M138.467,-100.925C153.112,-119.623 176.773,-149.829 193.48,-171.158"/>
<polygon fill="black" stroke="black" stroke-width="2" points="190.806,-173.42 199.728,-179.135 196.317,-169.104 190.806,-173.42"/>
</g>
<!-- 6&#45;&gt;2 -->
<g id="edge9" class="edge"><title>6&#45;&gt;2</title>
<path fill="none" stroke="black" stroke-width="2" d="M140.658,-69.3681C148.983,-61.5681 159.411,-51.7971 168.694,-43.0987"/>
<polygon fill="black" stroke="black" stroke-width="2" points="171.248,-45.5026 176.152,-36.1111 166.461,-40.3945 171.248,-45.5026"/>
</g>
<!-- 6&#45;&gt;3 -->
<g id="edge12" class="edge"><title>6&#45;&gt;3</title>
<path fill="none" stroke="black" stroke-width="2" d="M117.249,-103.81C111.25,-117.177 102.012,-134.592 90.1616,-147.241 82.1576,-155.785 71.7238,-163.195 62.0141,-169.04"/>
<polygon fill="black" stroke="black" stroke-width="2" points="59.9914,-166.164 53.0296,-174.151 63.4524,-172.249 59.9914,-166.164"/>
</g>
<!-- 6&#45;&gt;4 -->
<g id="edge15" class="edge"><title>6&#45;&gt;4</title>
<path fill="none" stroke="black" stroke-width="2" d="M145.78,-89.7173C156.044,-92.6054 168.65,-96.1524 179.995,-99.3446"/>
<polygon fill="black" stroke="black" stroke-width="2" points="179.382,-102.808 189.956,-102.147 181.278,-96.0695 179.382,-102.808"/>
</g>
<!-- 7&#45;&gt;3 -->
<g id="edge13" class="edge"><title>7&#45;&gt;3</title>
<path fill="none" stroke="black" stroke-width="2" d="M114.502,-155.851C99.8745,-160.834 79.964,-167.616 63.5831,-173.195"/>
<polygon fill="black" stroke="black" stroke-width="2" points="62.256,-169.95 53.9186,-176.487 64.5131,-176.576 62.256,-169.95"/>
</g>
<!-- 7&#45;&gt;4 -->
<g id="edge16" class="edge"><title>7&#45;&gt;4</title>
<path fill="none" stroke="black" stroke-width="2" d="M153.617,-138.75C162.412,-133.972 173.085,-128.175 182.793,-122.902"/>
<polygon fill="black" stroke="black" stroke-width="2" points="184.596,-125.905 191.713,-118.056 181.255,-119.754 184.596,-125.905"/>
</g>
<!-- 7&#45;&gt;5 -->
<g id="edge17" class="edge"><title>7&#45;&gt;5</title>
<path fill="none" stroke="black" stroke-width="2" d="M114.585,-142.338C110.517,-141.033 106.164,-139.636 101.847,-138.25"/>
<polygon fill="black" stroke="black" stroke-width="2" points="102.583,-134.811 91.9915,-135.088 100.444,-141.476 102.583,-134.811"/>
</g>
<!-- 7&#45;&gt;6 -->
<g id="edge18" class="edge"><title>7&#45;&gt;6</title>
<path fill="none" stroke="black" stroke-width="2" d="M131.751,-127.606C131.15,-123.639 130.512,-119.418 129.877,-115.223"/>
<polygon fill="black" stroke="black" stroke-width="2" points="133.288,-114.373 128.331,-105.009 126.367,-115.42 133.288,-114.373"/>
</g>
</g>
</svg>

