<?xml version="1.0" encoding="UTF-8" standalone="no"?>
<!DOCTYPE svg PUBLIC "-//W3C//DTD SVG 1.1//EN"
 "http://www.w3.org/Graphics/SVG/1.1/DTD/svg11.dtd">
<!-- Generated by graphviz version 2.36.0 (20140111.2315)
 -->
<!-- Title: G Pages: 1 -->
<svg width="100%" height="100%"
 viewBox="0.00 0.00 339.81 256.62" xmlns="http://www.w3.org/2000/svg" xmlns:xlink="http://www.w3.org/1999/xlink">
<g id="graph0" class="graph" transform="scale(1 1) rotate(0) translate(4 252.618)">
<title>G</title>
<!-- 0 -->
<g id="node1" class="node"><title>0</title>
<ellipse fill="cadetblue" stroke="black" cx="67.1012" cy="-21.2132" rx="21.4286" ry="21.4286"/>
<text text-anchor="middle" x="67.1012" y="-16.2132" font-family="Times New Roman,serif" font-size="20.00">2</text>
</g>
<!-- 6 -->
<g id="node7" class="node"><title>6</title>
<ellipse fill="cadetblue" stroke="black" cx="156.941" cy="-117.231" rx="21.4286" ry="21.4286"/>
<text text-anchor="middle" x="156.941" y="-112.231" font-family="Times New Roman,serif" font-size="20.00">2</text>
</g>
<!-- 0&#45;&gt;6 -->
<g id="edge3" class="edge"><title>0&#45;&gt;6</title>
<path fill="none" stroke="black" stroke-width="2" d="M81.9364,-37.0686C96.4578,-52.5887 118.742,-76.4059 135.251,-94.0501"/>
<polygon fill="black" stroke="black" stroke-width="2" points="132.994,-96.7598 142.382,-101.671 138.105,-91.9772 132.994,-96.7598"/>
</g>
<!-- 7 -->
<g id="node8" class="node"><title>7</title>
<ellipse fill="brown" stroke="black" cx="196.562" cy="-49.0472" rx="21.4286" ry="21.4286"/>
<text text-anchor="middle" x="196.562" y="-44.0472" font-family="Times New Roman,serif" font-size="20.00">3</text>
</g>
<!-- 0&#45;&gt;7 -->
<g id="edge4" class="edge"><title>0&#45;&gt;7</title>
<path fill="none" stroke="black" stroke-width="2" d="M87.9014,-25.6852C108.946,-30.2098 141.72,-37.2562 165.774,-42.4278"/>
<polygon fill="black" stroke="black" stroke-width="2" points="165.301,-45.9061 175.814,-44.5863 166.773,-39.0625 165.301,-45.9061"/>
</g>
<!-- 1 -->
<g id="node2" class="node"><title>1</title>
<ellipse fill="cadetblue" stroke="black" cx="255.688" cy="-193.264" rx="21.4286" ry="21.4286"/>
<text text-anchor="middle" x="255.688" y="-188.264" font-family="Times New Roman,serif" font-size="20.00">2</text>
</g>
<!-- 5 -->
<g id="node6" class="node"><title>5</title>
<ellipse fill="cadetblue" stroke="black" cx="76.1501" cy="-213.491" rx="21.4286" ry="21.4286"/>
<text text-anchor="middle" x="76.1501" y="-208.491" font-family="Times New Roman,serif" font-size="20.00">2</text>
</g>
<!-- 1&#45;&gt;5 -->
<g id="edge6" class="edge"><title>1&#45;&gt;5</title>
<path fill="none" stroke="black" stroke-width="2" d="M234.388,-195.664C202.939,-199.207 143.886,-205.86 107.49,-209.96"/>
<polygon fill="black" stroke="black" stroke-width="2" points="106.968,-206.497 97.4228,-211.094 107.752,-213.453 106.968,-206.497"/>
</g>
<!-- 1&#45;&gt;7 -->
<g id="edge8" class="edge"><title>1&#45;&gt;7</title>
<path fill="none" stroke="black" stroke-width="2" d="M247.591,-173.513C237.519,-148.947 220.235,-106.789 208.607,-78.4271"/>
<polygon fill="black" stroke="black" stroke-width="2" points="211.783,-76.9467 204.751,-69.0218 205.306,-79.6021 211.783,-76.9467"/>
</g>
<!-- 2 -->
<g id="node3" class="node"><title>2</title>
<ellipse fill="cadetblue" stroke="black" cx="205.257" cy="-227.404" rx="21.4286" ry="21.4286"/>
<text text-anchor="middle" x="205.257" y="-222.404" font-family="Times New Roman,serif" font-size="20.00">2</text>
</g>
<!-- 2&#45;&gt;5 -->
<g id="edge10" class="edge"><title>2&#45;&gt;5</title>
<path fill="none" stroke="black" stroke-width="2" d="M183.938,-225.107C163.193,-222.871 131.425,-219.448 107.744,-216.896"/>
<polygon fill="black" stroke="black" stroke-width="2" points="107.819,-213.384 97.5012,-215.792 107.069,-220.343 107.819,-213.384"/>
</g>
<!-- 2&#45;&gt;7 -->
<g id="edge12" class="edge"><title>2&#45;&gt;7</title>
<path fill="none" stroke="black" stroke-width="2" d="M204.208,-205.89C202.69,-174.739 199.868,-116.866 198.11,-80.7992"/>
<polygon fill="black" stroke="black" stroke-width="2" points="201.584,-80.1776 197.601,-70.3599 194.592,-80.5185 201.584,-80.1776"/>
</g>
<!-- 3 -->
<g id="node4" class="node"><title>3</title>
<ellipse fill="brown" stroke="black" cx="21.2132" cy="-104.523" rx="21.4286" ry="21.4286"/>
<text text-anchor="middle" x="21.2132" y="-99.5228" font-family="Times New Roman,serif" font-size="20.00">3</text>
</g>
<!-- 3&#45;&gt;0 -->
<g id="edge1" class="edge"><title>3&#45;&gt;0</title>
<path fill="none" stroke="black" stroke-width="2" d="M31.6259,-85.6186C37.6103,-74.7539 45.2354,-60.9105 51.8816,-48.8444"/>
<polygon fill="black" stroke="black" stroke-width="2" points="54.9707,-50.4904 56.7297,-40.0426 48.8393,-47.1132 54.9707,-50.4904"/>
</g>
<!-- 4 -->
<g id="node5" class="node"><title>4</title>
<ellipse fill="cadetblue" stroke="black" cx="310.594" cy="-101.705" rx="21.4286" ry="21.4286"/>
<text text-anchor="middle" x="310.594" y="-96.7048" font-family="Times New Roman,serif" font-size="20.00">2</text>
</g>
<!-- 4&#45;&gt;1 -->
<g id="edge5" class="edge"><title>4&#45;&gt;1</title>
<path fill="none" stroke="black" stroke-width="2" d="M299.483,-120.233C291.594,-133.388 280.875,-151.263 272.016,-166.036"/>
<polygon fill="black" stroke="black" stroke-width="2" points="268.924,-164.387 266.783,-174.763 274.927,-167.987 268.924,-164.387"/>
</g>
<!-- 4&#45;&gt;2 -->
<g id="edge9" class="edge"><title>4&#45;&gt;2</title>
<path fill="none" stroke="black" stroke-width="2" d="M294.26,-115.763C278.561,-129.747 254.698,-152.284 237.156,-174.596 231.031,-182.388 225.166,-191.446 220.174,-199.837"/>
<polygon fill="black" stroke="black" stroke-width="2" points="217.09,-198.178 215.128,-208.589 223.155,-201.674 217.09,-198.178"/>
</g>
<!-- 5&#45;&gt;0 -->
<g id="edge2" class="edge"><title>5&#45;&gt;0</title>
<path fill="none" stroke="black" stroke-width="2" d="M75.1472,-192.179C73.5539,-158.324 70.4358,-92.0681 68.584,-52.7192"/>
<polygon fill="black" stroke="black" stroke-width="2" points="72.075,-52.4448 68.1087,-42.6204 65.0827,-52.7739 72.075,-52.4448"/>
</g>
<!-- 5&#45;&gt;3 -->
<g id="edge13" class="edge"><title>5&#45;&gt;3</title>
<path fill="none" stroke="black" stroke-width="2" d="M66.5808,-194.51C57.9683,-177.427 45.1977,-152.096 35.398,-132.659"/>
<polygon fill="black" stroke="black" stroke-width="2" points="38.4843,-131.006 30.8572,-123.652 32.2337,-134.157 38.4843,-131.006"/>
</g>
<!-- 6&#45;&gt;1 -->
<g id="edge7" class="edge"><title>6&#45;&gt;1</title>
<path fill="none" stroke="black" stroke-width="2" d="M174.141,-130.475C189.717,-142.468 212.859,-160.286 230.515,-173.881"/>
<polygon fill="black" stroke="black" stroke-width="2" points="228.626,-176.844 238.685,-180.172 232.897,-171.298 228.626,-176.844"/>
</g>
<!-- 6&#45;&gt;2 -->
<g id="edge11" class="edge"><title>6&#45;&gt;2</title>
<path fill="none" stroke="black" stroke-width="2" d="M165.467,-136.674C172.976,-153.796 184.016,-178.97 192.563,-198.46"/>
<polygon fill="black" stroke="black" stroke-width="2" points="189.431,-200.033 196.653,-207.785 195.842,-197.221 189.431,-200.033"/>
</g>
<!-- 6&#45;&gt;3 -->
<g id="edge14" class="edge"><title>6&#45;&gt;3</title>
<path fill="none" stroke="black" stroke-width="2" d="M135.733,-115.245C113.552,-113.169 78.4834,-109.885 52.9924,-107.498"/>
<polygon fill="black" stroke="black" stroke-width="2" points="53.0024,-103.984 42.7196,-106.536 52.3498,-110.954 53.0024,-103.984"/>
</g>
<!-- 6&#45;&gt;4 -->
<g id="edge16" class="edge"><title>6&#45;&gt;4</title>
<path fill="none" stroke="black" stroke-width="2" d="M178.305,-115.072C204.565,-112.419 249.336,-107.895 279.432,-104.854"/>
<polygon fill="black" stroke="black" stroke-width="2" points="279.813,-108.333 289.41,-103.845 279.109,-101.368 279.813,-108.333"/>
</g>
<!-- 7&#45;&gt;3 -->
<g id="edge15" class="edge"><title>7&#45;&gt;3</title>
<path fill="none" stroke="black" stroke-width="2" d="M176.104,-55.5196C145.352,-65.2487 87.0265,-83.7013 51.3844,-94.9775"/>
<polygon fill="black" stroke="black" stroke-width="2" points="50.0193,-91.7383 41.5408,-98.0917 52.1308,-98.4123 50.0193,-91.7383"/>
</g>
<!-- 7&#45;&gt;4 -->
<g id="edge17" class="edge"><title>7&#45;&gt;4</title>
<path fill="none" stroke="black" stroke-width="2" d="M215.906,-57.9799C234.008,-66.3391 261.281,-78.9329 281.914,-88.461"/>
<polygon fill="black" stroke="black" stroke-width="2" points="280.609,-91.7134 291.155,-92.7283 283.544,-85.3583 280.609,-91.7134"/>
</g>
<!-- 7&#45;&gt;6 -->
<g id="edge18" class="edge"><title>7&#45;&gt;6</title>
<path fill="none" stroke="black" stroke-width="2" d="M185.735,-67.6787C181.804,-74.4434 177.275,-82.2383 172.989,-89.6136"/>
<polygon fill="black" stroke="black" stroke-width="2" points="169.752,-88.2172 167.754,-98.622 175.805,-91.7343 169.752,-88.2172"/>
</g>
</g>
</svg>

