<?xml version="1.0" encoding="UTF-8" standalone="no"?>
<!DOCTYPE svg PUBLIC "-//W3C//DTD SVG 1.1//EN"
 "http://www.w3.org/Graphics/SVG/1.1/DTD/svg11.dtd">
<!-- Generated by graphviz version 2.36.0 (20140111.2315)
 -->
<!-- Title: G Pages: 1 -->
<svg width="100%" height="100%"
 viewBox="0.00 0.00 320.00 203.02" xmlns="http://www.w3.org/2000/svg" xmlns:xlink="http://www.w3.org/1999/xlink">
<g id="graph0" class="graph" transform="scale(1 1) rotate(0) translate(4 199.016)">
<title>G</title>
<!-- 0 -->
<g id="node1" class="node"><title>0</title>
<ellipse fill="cadetblue" stroke="black" cx="21.2132" cy="-82.6611" rx="21.4286" ry="21.4286"/>
<text text-anchor="middle" x="21.2132" y="-77.6611" font-family="Times New Roman,serif" font-size="20.00">2</text>
</g>
<!-- 3 -->
<g id="node4" class="node"><title>3</title>
<ellipse fill="cadetblue" stroke="black" cx="75.717" cy="-160.954" rx="21.4286" ry="21.4286"/>
<text text-anchor="middle" x="75.717" y="-155.954" font-family="Times New Roman,serif" font-size="20.00">2</text>
</g>
<!-- 0&#45;&gt;3 -->
<g id="edge1" class="edge"><title>0&#45;&gt;3</title>
<path fill="none" stroke="black" stroke-width="2" d="M33.581,-100.427C40.739,-110.709 49.8734,-123.83 57.8064,-135.226"/>
<polygon fill="black" stroke="black" stroke-width="2" points="55,-137.321 63.5859,-143.528 60.745,-133.321 55,-137.321"/>
</g>
<!-- 1 -->
<g id="node2" class="node"><title>1</title>
<ellipse fill="cadetblue" stroke="black" cx="208.297" cy="-173.803" rx="21.4286" ry="21.4286"/>
<text text-anchor="middle" x="208.297" y="-168.803" font-family="Times New Roman,serif" font-size="20.00">2</text>
</g>
<!-- 4 -->
<g id="node5" class="node"><title>4</title>
<ellipse fill="cadetblue" stroke="black" cx="290.787" cy="-100.013" rx="21.4286" ry="21.4286"/>
<text text-anchor="middle" x="290.787" y="-95.0125" font-family="Times New Roman,serif" font-size="20.00">2</text>
</g>
<!-- 1&#45;&gt;4 -->
<g id="edge4" class="edge"><title>1&#45;&gt;4</title>
<path fill="none" stroke="black" stroke-width="2" d="M224.202,-159.575C236.413,-148.653 253.461,-133.402 267.25,-121.067"/>
<polygon fill="black" stroke="black" stroke-width="2" points="269.811,-123.472 274.931,-114.196 265.144,-118.255 269.811,-123.472"/>
</g>
<!-- 6 -->
<g id="node7" class="node"><title>6</title>
<ellipse fill="brown" stroke="black" cx="196.476" cy="-105.284" rx="21.4286" ry="21.4286"/>
<text text-anchor="middle" x="196.476" y="-100.284" font-family="Times New Roman,serif" font-size="20.00">3</text>
</g>
<!-- 1&#45;&gt;6 -->
<g id="edge6" class="edge"><title>1&#45;&gt;6</title>
<path fill="none" stroke="black" stroke-width="2" d="M204.686,-152.873C203.809,-147.789 202.852,-142.24 201.911,-136.786"/>
<polygon fill="black" stroke="black" stroke-width="2" points="205.296,-135.818 200.146,-126.559 198.398,-137.009 205.296,-135.818"/>
</g>
<!-- 2 -->
<g id="node3" class="node"><title>2</title>
<ellipse fill="cadetblue" stroke="black" cx="208.718" cy="-21.2132" rx="21.4286" ry="21.4286"/>
<text text-anchor="middle" x="208.718" y="-16.2132" font-family="Times New Roman,serif" font-size="20.00">2</text>
</g>
<!-- 2&#45;&gt;4 -->
<g id="edge8" class="edge"><title>2&#45;&gt;4</title>
<path fill="none" stroke="black" stroke-width="2" d="M224.155,-36.0348C236.535,-47.9216 254.09,-64.7779 268.074,-78.2044"/>
<polygon fill="black" stroke="black" stroke-width="2" points="265.782,-80.8561 275.42,-85.2574 270.63,-75.8068 265.782,-80.8561"/>
</g>
<!-- 5 -->
<g id="node6" class="node"><title>5</title>
<ellipse fill="cadetblue" stroke="black" cx="126.148" cy="-117.265" rx="21.4286" ry="21.4286"/>
<text text-anchor="middle" x="126.148" y="-112.265" font-family="Times New Roman,serif" font-size="20.00">2</text>
</g>
<!-- 2&#45;&gt;5 -->
<g id="edge9" class="edge"><title>2&#45;&gt;5</title>
<path fill="none" stroke="black" stroke-width="2" d="M194.711,-37.5071C181.663,-52.6861 162.034,-75.5196 147.118,-92.8712"/>
<polygon fill="black" stroke="black" stroke-width="2" points="144.089,-91.0265 140.224,-100.891 149.397,-95.5897 144.089,-91.0265"/>
</g>
<!-- 3&#45;&gt;6 -->
<g id="edge12" class="edge"><title>3&#45;&gt;6</title>
<path fill="none" stroke="black" stroke-width="2" d="M95.8852,-154.271C105.117,-151.139 116.173,-147.285 126.031,-143.569 134.404,-140.413 136.653,-139.931 144.665,-135.948 153.098,-131.756 162.012,-126.717 170.024,-121.946"/>
<polygon fill="black" stroke="black" stroke-width="2" points="171.881,-124.913 178.614,-116.733 168.249,-118.929 171.881,-124.913"/>
</g>
<!-- 4&#45;&gt;6 -->
<g id="edge14" class="edge"><title>4&#45;&gt;6</title>
<path fill="none" stroke="black" stroke-width="2" d="M269.386,-101.209C257.207,-101.889 241.722,-102.755 228.158,-103.513"/>
<polygon fill="black" stroke="black" stroke-width="2" points="227.581,-100.04 217.792,-104.093 227.971,-107.029 227.581,-100.04"/>
</g>
<!-- 5&#45;&gt;0 -->
<g id="edge2" class="edge"><title>5&#45;&gt;0</title>
<path fill="none" stroke="black" stroke-width="2" d="M105.916,-110.593C90.3828,-105.471 68.6955,-98.3191 51.1545,-92.5347"/>
<polygon fill="black" stroke="black" stroke-width="2" points="51.9768,-89.1205 41.3837,-89.3126 49.7845,-95.7684 51.9768,-89.1205"/>
</g>
<!-- 5&#45;&gt;1 -->
<g id="edge5" class="edge"><title>5&#45;&gt;1</title>
<path fill="none" stroke="black" stroke-width="2" d="M143.974,-129.533C155.246,-137.291 170.001,-147.446 182.536,-156.073"/>
<polygon fill="black" stroke="black" stroke-width="2" points="180.567,-158.967 190.789,-161.753 184.536,-153.201 180.567,-158.967"/>
</g>
<!-- 7 -->
<g id="node8" class="node"><title>7</title>
<ellipse fill="cadetblue" stroke="black" cx="119.447" cy="-58.579" rx="21.4286" ry="21.4286"/>
<text text-anchor="middle" x="119.447" y="-53.579" font-family="Times New Roman,serif" font-size="20.00">2</text>
</g>
<!-- 5&#45;&gt;7 -->
<g id="edge16" class="edge"><title>5&#45;&gt;7</title>
<path fill="none" stroke="black" stroke-width="2" d="M123.729,-96.0781C123.504,-94.1082 123.273,-92.085 123.041,-90.0481"/>
<polygon fill="black" stroke="black" stroke-width="2" points="126.498,-89.4704 121.886,-79.9321 119.543,-90.2646 126.498,-89.4704"/>
</g>
<!-- 6&#45;&gt;2 -->
<g id="edge10" class="edge"><title>6&#45;&gt;2</title>
<path fill="none" stroke="black" stroke-width="2" d="M199.565,-84.0695C200.957,-74.5111 202.629,-63.0312 204.16,-52.5125"/>
<polygon fill="black" stroke="black" stroke-width="2" points="207.652,-52.8211 205.63,-42.4211 200.725,-51.8123 207.652,-52.8211"/>
</g>
<!-- 6&#45;&gt;5 -->
<g id="edge15" class="edge"><title>6&#45;&gt;5</title>
<path fill="none" stroke="black" stroke-width="2" d="M175.375,-108.879C169.673,-109.85 163.38,-110.922 157.253,-111.966"/>
<polygon fill="black" stroke="black" stroke-width="2" points="156.504,-108.543 147.234,-113.673 157.68,-115.444 156.504,-108.543"/>
</g>
<!-- 6&#45;&gt;7 -->
<g id="edge17" class="edge"><title>6&#45;&gt;7</title>
<path fill="none" stroke="black" stroke-width="2" d="M178.221,-94.2157C168.793,-88.4991 157.1,-81.4094 146.633,-75.0628"/>
<polygon fill="black" stroke="black" stroke-width="2" points="148.203,-71.9219 137.838,-69.7299 144.574,-77.9075 148.203,-71.9219"/>
</g>
<!-- 7&#45;&gt;0 -->
<g id="edge3" class="edge"><title>7&#45;&gt;0</title>
<path fill="none" stroke="black" stroke-width="2" d="M98.6144,-63.6862C85.0695,-67.0067 67.1713,-71.3945 51.9982,-75.1141"/>
<polygon fill="black" stroke="black" stroke-width="2" points="50.8951,-71.7809 42.0161,-77.5613 52.5619,-78.5795 50.8951,-71.7809"/>
</g>
<!-- 7&#45;&gt;1 -->
<g id="edge7" class="edge"><title>7&#45;&gt;1</title>
<path fill="none" stroke="black" stroke-width="2" d="M132.557,-75.5807C147.453,-94.8979 171.905,-126.608 188.984,-148.757"/>
<polygon fill="black" stroke="black" stroke-width="2" points="186.255,-150.95 195.133,-156.732 191.799,-146.675 186.255,-150.95"/>
</g>
<!-- 7&#45;&gt;2 -->
<g id="edge11" class="edge"><title>7&#45;&gt;2</title>
<path fill="none" stroke="black" stroke-width="2" d="M139.259,-50.2863C151.048,-45.352 166.224,-38.9998 179.382,-33.4922"/>
<polygon fill="black" stroke="black" stroke-width="2" points="181.088,-36.5724 188.961,-29.4827 178.385,-30.1153 181.088,-36.5724"/>
</g>
<!-- 7&#45;&gt;3 -->
<g id="edge13" class="edge"><title>7&#45;&gt;3</title>
<path fill="none" stroke="black" stroke-width="2" d="M111.016,-78.3179C104.542,-93.472 95.5046,-114.63 88.1946,-131.743"/>
<polygon fill="black" stroke="black" stroke-width="2" points="84.8324,-130.705 84.1228,-141.276 91.2697,-133.454 84.8324,-130.705"/>
</g>
</g>
</svg>

