<?xml version="1.0" encoding="UTF-8" standalone="no"?>
<!DOCTYPE svg PUBLIC "-//W3C//DTD SVG 1.1//EN"
 "http://www.w3.org/Graphics/SVG/1.1/DTD/svg11.dtd">
<!-- Generated by graphviz version 2.36.0 (20140111.2315)
 -->
<!-- Title: G Pages: 1 -->
<svg width="100%" height="100%"
 viewBox="0.00 0.00 255.99 203.86" xmlns="http://www.w3.org/2000/svg" xmlns:xlink="http://www.w3.org/1999/xlink">
<g id="graph0" class="graph" transform="scale(1 1) rotate(0) translate(4 199.857)">
<title>G</title>
<!-- 0 -->
<g id="node1" class="node"><title>0</title>
<ellipse fill="cadetblue" stroke="black" cx="21.2132" cy="-87.1951" rx="21.4286" ry="21.4286"/>
<text text-anchor="middle" x="21.2132" y="-82.1951" font-family="Times New Roman,serif" font-size="20.00">2</text>
</g>
<!-- 6 -->
<g id="node7" class="node"><title>6</title>
<ellipse fill="cadetblue" stroke="black" cx="109.324" cy="-157.915" rx="21.4286" ry="21.4286"/>
<text text-anchor="middle" x="109.324" y="-152.915" font-family="Times New Roman,serif" font-size="20.00">2</text>
</g>
<!-- 0&#45;&gt;6 -->
<g id="edge3" class="edge"><title>0&#45;&gt;6</title>
<path fill="none" stroke="black" stroke-width="2" d="M37.7861,-100.497C50.9934,-111.097 69.6873,-126.102 84.6533,-138.114"/>
<polygon fill="black" stroke="black" stroke-width="2" points="82.5361,-140.902 92.5256,-144.432 86.9177,-135.443 82.5361,-140.902"/>
</g>
<!-- 7 -->
<g id="node8" class="node"><title>7</title>
<ellipse fill="brown" stroke="black" cx="94.6188" cy="-100.304" rx="21.4286" ry="21.4286"/>
<text text-anchor="middle" x="94.6188" y="-95.3043" font-family="Times New Roman,serif" font-size="20.00">3</text>
</g>
<!-- 0&#45;&gt;7 -->
<g id="edge4" class="edge"><title>0&#45;&gt;7</title>
<path fill="none" stroke="black" stroke-width="2" d="M42.4451,-90.9868C49.0453,-92.1655 56.4625,-93.4901 63.5874,-94.7625"/>
<polygon fill="black" stroke="black" stroke-width="2" points="63.2284,-98.2537 73.688,-96.5663 64.4591,-91.3627 63.2284,-98.2537"/>
</g>
<!-- 1 -->
<g id="node2" class="node"><title>1</title>
<ellipse fill="cadetblue" stroke="black" cx="176.19" cy="-157.642" rx="21.4286" ry="21.4286"/>
<text text-anchor="middle" x="176.19" y="-152.642" font-family="Times New Roman,serif" font-size="20.00">2</text>
</g>
<!-- 1&#45;&gt;6 -->
<g id="edge7" class="edge"><title>1&#45;&gt;6</title>
<path fill="none" stroke="black" stroke-width="2" d="M154.665,-157.73C150.251,-157.748 145.518,-157.767 140.835,-157.786"/>
<polygon fill="black" stroke="black" stroke-width="2" points="140.794,-154.286 130.809,-157.827 140.823,-161.286 140.794,-154.286"/>
</g>
<!-- 1&#45;&gt;7 -->
<g id="edge8" class="edge"><title>1&#45;&gt;7</title>
<path fill="none" stroke="black" stroke-width="2" d="M158.49,-145.201C147.297,-137.333 132.646,-127.034 120.199,-118.285"/>
<polygon fill="black" stroke="black" stroke-width="2" points="122.198,-115.412 112.004,-112.524 118.172,-121.139 122.198,-115.412"/>
</g>
<!-- 2 -->
<g id="node3" class="node"><title>2</title>
<ellipse fill="cadetblue" stroke="black" cx="183.814" cy="-21.2132" rx="21.4286" ry="21.4286"/>
<text text-anchor="middle" x="183.814" y="-16.2132" font-family="Times New Roman,serif" font-size="20.00">2</text>
</g>
<!-- 4 -->
<g id="node5" class="node"><title>4</title>
<ellipse fill="cadetblue" stroke="black" cx="226.782" cy="-110.29" rx="21.4286" ry="21.4286"/>
<text text-anchor="middle" x="226.782" y="-105.29" font-family="Times New Roman,serif" font-size="20.00">2</text>
</g>
<!-- 2&#45;&gt;4 -->
<g id="edge9" class="edge"><title>2&#45;&gt;4</title>
<path fill="none" stroke="black" stroke-width="2" d="M193.137,-40.5415C198.937,-52.5644 206.499,-68.2419 212.985,-81.6874"/>
<polygon fill="black" stroke="black" stroke-width="2" points="209.979,-83.513 217.476,-90.9992 216.284,-80.4717 209.979,-83.513"/>
</g>
<!-- 3 -->
<g id="node4" class="node"><title>3</title>
<ellipse fill="cadetblue" stroke="black" cx="23.2989" cy="-174.644" rx="21.4286" ry="21.4286"/>
<text text-anchor="middle" x="23.2989" y="-169.644" font-family="Times New Roman,serif" font-size="20.00">2</text>
</g>
<!-- 3&#45;&gt;0 -->
<g id="edge1" class="edge"><title>3&#45;&gt;0</title>
<path fill="none" stroke="black" stroke-width="2" d="M22.7834,-153.027C22.5358,-142.649 22.2345,-130.016 21.9623,-118.603"/>
<polygon fill="black" stroke="black" stroke-width="2" points="25.4604,-118.477 21.7228,-108.563 18.4624,-118.644 25.4604,-118.477"/>
</g>
<!-- 4&#45;&gt;1 -->
<g id="edge5" class="edge"><title>4&#45;&gt;1</title>
<path fill="none" stroke="black" stroke-width="2" d="M211.052,-125.013C207.304,-128.52 203.229,-132.335 199.229,-136.079"/>
<polygon fill="black" stroke="black" stroke-width="2" points="196.646,-133.702 191.737,-143.091 201.43,-138.813 196.646,-133.702"/>
</g>
<!-- 5 -->
<g id="node6" class="node"><title>5</title>
<ellipse fill="cadetblue" stroke="black" cx="113.39" cy="-49.8728" rx="21.4286" ry="21.4286"/>
<text text-anchor="middle" x="113.39" y="-44.8728" font-family="Times New Roman,serif" font-size="20.00">2</text>
</g>
<!-- 5&#45;&gt;0 -->
<g id="edge2" class="edge"><title>5&#45;&gt;0</title>
<path fill="none" stroke="black" stroke-width="2" d="M93.3894,-57.9712C80.9479,-63.0087 64.7247,-69.5774 50.8112,-75.211"/>
<polygon fill="black" stroke="black" stroke-width="2" points="49.1307,-72.1153 41.1753,-79.1125 51.7579,-78.6036 49.1307,-72.1153"/>
</g>
<!-- 5&#45;&gt;1 -->
<g id="edge6" class="edge"><title>5&#45;&gt;1</title>
<path fill="none" stroke="black" stroke-width="2" d="M124.329,-68.6448C134.28,-85.7208 149.086,-111.129 160.334,-130.431"/>
<polygon fill="black" stroke="black" stroke-width="2" points="157.318,-132.207 165.377,-139.085 163.366,-128.683 157.318,-132.207"/>
</g>
<!-- 5&#45;&gt;2 -->
<g id="edge10" class="edge"><title>5&#45;&gt;2</title>
<path fill="none" stroke="black" stroke-width="2" d="M133.383,-41.7368C139.98,-39.0517 147.461,-36.0074 154.602,-33.1012"/>
<polygon fill="black" stroke="black" stroke-width="2" points="156.072,-36.2817 164.015,-29.2704 153.434,-29.7981 156.072,-36.2817"/>
</g>
<!-- 6&#45;&gt;3 -->
<g id="edge12" class="edge"><title>6&#45;&gt;3</title>
<path fill="none" stroke="black" stroke-width="2" d="M88.4996,-161.965C78.2205,-163.963 65.6132,-166.415 54.2334,-168.628"/>
<polygon fill="black" stroke="black" stroke-width="2" points="53.3775,-165.229 44.2296,-170.574 54.7138,-172.1 53.3775,-165.229"/>
</g>
<!-- 6&#45;&gt;4 -->
<g id="edge14" class="edge"><title>6&#45;&gt;4</title>
<path fill="none" stroke="black" stroke-width="2" d="M128.984,-149.944C147.786,-142.32 176.366,-130.732 197.783,-122.048"/>
<polygon fill="black" stroke="black" stroke-width="2" points="199.106,-125.288 207.058,-118.287 196.475,-118.801 199.106,-125.288"/>
</g>
<!-- 6&#45;&gt;5 -->
<g id="edge15" class="edge"><title>6&#45;&gt;5</title>
<path fill="none" stroke="black" stroke-width="2" d="M115.273,-137.314C117.96,-126.415 120.609,-112.748 120.923,-100.305 121.08,-94.069 120.58,-87.4445 119.773,-81.1182"/>
<polygon fill="black" stroke="black" stroke-width="2" points="123.176,-80.2202 118.186,-70.8741 116.258,-81.2921 123.176,-80.2202"/>
</g>
<!-- 6&#45;&gt;7 -->
<g id="edge17" class="edge"><title>6&#45;&gt;7</title>
<path fill="none" stroke="black" stroke-width="2" d="M104.015,-137.116C103.488,-135.051 102.946,-132.927 102.4,-130.79"/>
<polygon fill="black" stroke="black" stroke-width="2" points="105.735,-129.703 99.8705,-120.879 98.9525,-131.434 105.735,-129.703"/>
</g>
<!-- 7&#45;&gt;2 -->
<g id="edge11" class="edge"><title>7&#45;&gt;2</title>
<path fill="none" stroke="black" stroke-width="2" d="M111.058,-86.515C117.591,-80.9818 125.146,-74.5144 131.907,-68.5555 141.391,-60.1977 151.703,-50.8477 160.619,-42.6788"/>
<polygon fill="black" stroke="black" stroke-width="2" points="163.045,-45.2029 168.038,-35.8587 158.307,-40.0494 163.045,-45.2029"/>
</g>
<!-- 7&#45;&gt;3 -->
<g id="edge13" class="edge"><title>7&#45;&gt;3</title>
<path fill="none" stroke="black" stroke-width="2" d="M79.8412,-115.707C69.8004,-126.173 56.3491,-140.194 45.0855,-151.935"/>
<polygon fill="black" stroke="black" stroke-width="2" points="42.4549,-149.621 38.0575,-159.26 47.5062,-154.467 42.4549,-149.621"/>
</g>
<!-- 7&#45;&gt;5 -->
<g id="edge16" class="edge"><title>7&#45;&gt;5</title>
<path fill="none" stroke="black" stroke-width="2" d="M102.038,-80.3724C102.157,-80.0524 102.277,-79.7311 102.396,-79.4089"/>
<polygon fill="black" stroke="black" stroke-width="2" points="105.694,-80.5831 105.902,-69.9903 99.1337,-78.1412 105.694,-80.5831"/>
</g>
</g>
</svg>

