<?xml version="1.0" encoding="UTF-8" standalone="no"?>
<!DOCTYPE svg PUBLIC "-//W3C//DTD SVG 1.1//EN"
 "http://www.w3.org/Graphics/SVG/1.1/DTD/svg11.dtd">
<!-- Generated by graphviz version 2.36.0 (20140111.2315)
 -->
<!-- Title: G Pages: 1 -->
<svg width="100%" height="100%"
 viewBox="0.00 0.00 299.16 335.99" xmlns="http://www.w3.org/2000/svg" xmlns:xlink="http://www.w3.org/1999/xlink">
<g id="graph0" class="graph" transform="scale(1 1) rotate(0) translate(4 331.995)">
<title>G</title>
<!-- 0 -->
<g id="node1" class="node"><title>0</title>
<ellipse fill="cadetblue" stroke="black" cx="38.3554" cy="-260.175" rx="21.4286" ry="21.4286"/>
<text text-anchor="middle" x="38.3554" y="-255.175" font-family="Times New Roman,serif" font-size="20.00">2</text>
</g>
<!-- 3 -->
<g id="node4" class="node"><title>3</title>
<ellipse fill="cadetblue" stroke="black" cx="161.846" cy="-306.781" rx="21.4286" ry="21.4286"/>
<text text-anchor="middle" x="161.846" y="-301.781" font-family="Times New Roman,serif" font-size="20.00">2</text>
</g>
<!-- 0&#45;&gt;3 -->
<g id="edge1" class="edge"><title>0&#45;&gt;3</title>
<path fill="none" stroke="black" stroke-width="2" d="M58.4711,-267.767C78.4747,-275.316 109.39,-286.984 132.204,-295.594"/>
<polygon fill="black" stroke="black" stroke-width="2" points="131.147,-298.936 141.739,-299.193 133.619,-292.387 131.147,-298.936"/>
</g>
<!-- 5 -->
<g id="node6" class="node"><title>5</title>
<ellipse fill="brown" stroke="black" cx="21.2132" cy="-126.241" rx="21.4286" ry="21.4286"/>
<text text-anchor="middle" x="21.2132" y="-121.241" font-family="Times New Roman,serif" font-size="20.00">3</text>
</g>
<!-- 0&#45;&gt;5 -->
<g id="edge2" class="edge"><title>0&#45;&gt;5</title>
<path fill="none" stroke="black" stroke-width="2" d="M35.6392,-238.953C32.8306,-217.009 28.4153,-182.512 25.2088,-157.458"/>
<polygon fill="black" stroke="black" stroke-width="2" points="28.658,-156.838 23.9167,-147.364 21.7147,-157.727 28.658,-156.838"/>
</g>
<!-- 1 -->
<g id="node2" class="node"><title>1</title>
<ellipse fill="cadetblue" stroke="black" cx="59.6675" cy="-36.5523" rx="21.4286" ry="21.4286"/>
<text text-anchor="middle" x="59.6675" y="-31.5523" font-family="Times New Roman,serif" font-size="20.00">2</text>
</g>
<!-- 6 -->
<g id="node7" class="node"><title>6</title>
<ellipse fill="cadetblue" stroke="black" cx="138.538" cy="-194.938" rx="21.4286" ry="21.4286"/>
<text text-anchor="middle" x="138.538" y="-189.938" font-family="Times New Roman,serif" font-size="20.00">2</text>
</g>
<!-- 1&#45;&gt;6 -->
<g id="edge7" class="edge"><title>1&#45;&gt;6</title>
<path fill="none" stroke="black" stroke-width="2" d="M69.1811,-55.6573C82.9192,-83.2457 108.41,-134.436 124.368,-166.482"/>
<polygon fill="black" stroke="black" stroke-width="2" points="121.4,-168.374 128.991,-175.765 127.666,-165.253 121.4,-168.374"/>
</g>
<!-- 7 -->
<g id="node8" class="node"><title>7</title>
<ellipse fill="cadetblue" stroke="black" cx="141.267" cy="-144.506" rx="21.4286" ry="21.4286"/>
<text text-anchor="middle" x="141.267" y="-139.506" font-family="Times New Roman,serif" font-size="20.00">2</text>
</g>
<!-- 1&#45;&gt;7 -->
<g id="edge8" class="edge"><title>1&#45;&gt;7</title>
<path fill="none" stroke="black" stroke-width="2" d="M72.7778,-53.897C86.1805,-71.6285 107.131,-99.346 122.333,-119.458"/>
<polygon fill="black" stroke="black" stroke-width="2" points="119.636,-121.694 128.458,-127.561 125.22,-117.473 119.636,-121.694"/>
</g>
<!-- 2 -->
<g id="node3" class="node"><title>2</title>
<ellipse fill="cadetblue" stroke="black" cx="269.945" cy="-114.225" rx="21.4286" ry="21.4286"/>
<text text-anchor="middle" x="269.945" y="-109.225" font-family="Times New Roman,serif" font-size="20.00">2</text>
</g>
<!-- 2&#45;&gt;6 -->
<g id="edge10" class="edge"><title>2&#45;&gt;6</title>
<path fill="none" stroke="black" stroke-width="2" d="M251.674,-125.448C229.216,-139.242 190.927,-162.759 165.189,-178.568"/>
<polygon fill="black" stroke="black" stroke-width="2" points="163.344,-175.594 156.654,-183.81 167.007,-181.559 163.344,-175.594"/>
</g>
<!-- 3&#45;&gt;7 -->
<g id="edge13" class="edge"><title>3&#45;&gt;7</title>
<path fill="none" stroke="black" stroke-width="2" d="M159.155,-285.567C155.612,-257.625 149.352,-208.263 145.257,-175.968"/>
<polygon fill="black" stroke="black" stroke-width="2" points="148.688,-175.206 143.958,-165.726 141.744,-176.087 148.688,-175.206"/>
</g>
<!-- 4 -->
<g id="node5" class="node"><title>4</title>
<ellipse fill="cadetblue" stroke="black" cx="165.56" cy="-21.2132" rx="21.4286" ry="21.4286"/>
<text text-anchor="middle" x="165.56" y="-16.2132" font-family="Times New Roman,serif" font-size="20.00">2</text>
</g>
<!-- 4&#45;&gt;1 -->
<g id="edge5" class="edge"><title>4&#45;&gt;1</title>
<path fill="none" stroke="black" stroke-width="2" d="M144.385,-24.2804C129.091,-26.4959 108.183,-29.5245 90.9657,-32.0186"/>
<polygon fill="black" stroke="black" stroke-width="2" points="90.2001,-28.5929 80.8052,-33.4904 91.2037,-35.5206 90.2001,-28.5929"/>
</g>
<!-- 4&#45;&gt;2 -->
<g id="edge9" class="edge"><title>4&#45;&gt;2</title>
<path fill="none" stroke="black" stroke-width="2" d="M181.414,-35.3397C198.658,-50.7047 226.408,-75.4311 246.243,-93.1049"/>
<polygon fill="black" stroke="black" stroke-width="2" points="244.147,-95.926 253.942,-99.9655 248.804,-90.6997 244.147,-95.926"/>
</g>
<!-- 5&#45;&gt;1 -->
<g id="edge6" class="edge"><title>5&#45;&gt;1</title>
<path fill="none" stroke="black" stroke-width="2" d="M29.7475,-106.336C34.911,-94.2928 41.5831,-78.7312 47.3159,-65.3602"/>
<polygon fill="black" stroke="black" stroke-width="2" points="50.5655,-66.6629 51.2894,-56.0928 44.1319,-63.9044 50.5655,-66.6629"/>
</g>
<!-- 5&#45;&gt;4 -->
<g id="edge14" class="edge"><title>5&#45;&gt;4</title>
<path fill="none" stroke="black" stroke-width="2" d="M38.6248,-113.572C63.7678,-95.2776 110.421,-61.3325 139.626,-40.0827"/>
<polygon fill="black" stroke="black" stroke-width="2" points="142.06,-42.6405 148.086,-33.9269 137.941,-36.9803 142.06,-42.6405"/>
</g>
<!-- 6&#45;&gt;0 -->
<g id="edge3" class="edge"><title>6&#45;&gt;0</title>
<path fill="none" stroke="black" stroke-width="2" d="M120.627,-206.601C105.195,-216.65 82.6952,-231.302 65.1244,-242.743"/>
<polygon fill="black" stroke="black" stroke-width="2" points="62.9188,-240.003 56.4488,-248.393 66.7386,-245.869 62.9188,-240.003"/>
</g>
<!-- 6&#45;&gt;3 -->
<g id="edge12" class="edge"><title>6&#45;&gt;3</title>
<path fill="none" stroke="black" stroke-width="2" d="M142.867,-215.713C146.377,-232.556 151.378,-256.553 155.365,-275.686"/>
<polygon fill="black" stroke="black" stroke-width="2" points="151.994,-276.663 157.46,-285.738 158.847,-275.234 151.994,-276.663"/>
</g>
<!-- 6&#45;&gt;5 -->
<g id="edge16" class="edge"><title>6&#45;&gt;5</title>
<path fill="none" stroke="black" stroke-width="2" d="M120.206,-184.204C101.033,-172.977 70.7184,-155.227 48.6836,-142.325"/>
<polygon fill="black" stroke="black" stroke-width="2" points="50.2017,-139.158 39.8037,-137.126 46.6647,-145.199 50.2017,-139.158"/>
</g>
<!-- 7&#45;&gt;0 -->
<g id="edge4" class="edge"><title>7&#45;&gt;0</title>
<path fill="none" stroke="black" stroke-width="2" d="M126.957,-160.59C109.369,-180.358 79.3839,-214.06 59.2268,-236.716"/>
<polygon fill="black" stroke="black" stroke-width="2" points="56.5755,-234.431 52.5433,-244.228 61.8052,-239.084 56.5755,-234.431"/>
</g>
<!-- 7&#45;&gt;2 -->
<g id="edge11" class="edge"><title>7&#45;&gt;2</title>
<path fill="none" stroke="black" stroke-width="2" d="M161.941,-139.641C182.735,-134.748 215.049,-127.143 238.918,-121.526"/>
<polygon fill="black" stroke="black" stroke-width="2" points="239.962,-124.876 248.895,-119.179 238.359,-118.062 239.962,-124.876"/>
</g>
<!-- 7&#45;&gt;4 -->
<g id="edge15" class="edge"><title>7&#45;&gt;4</title>
<path fill="none" stroke="black" stroke-width="2" d="M145.388,-123.591C149.244,-104.019 155.054,-74.5315 159.45,-52.2222"/>
<polygon fill="black" stroke="black" stroke-width="2" points="162.919,-52.7188 161.419,-42.2308 156.051,-51.3655 162.919,-52.7188"/>
</g>
<!-- 7&#45;&gt;5 -->
<g id="edge17" class="edge"><title>7&#45;&gt;5</title>
<path fill="none" stroke="black" stroke-width="2" d="M120.08,-141.283C101.307,-138.427 73.6523,-134.219 52.3611,-130.98"/>
<polygon fill="black" stroke="black" stroke-width="2" points="52.6009,-127.476 42.1882,-129.432 51.548,-134.396 52.6009,-127.476"/>
</g>
</g>
</svg>

