<?xml version="1.0" encoding="UTF-8" standalone="no"?>
<!DOCTYPE svg PUBLIC "-//W3C//DTD SVG 1.1//EN"
 "http://www.w3.org/Graphics/SVG/1.1/DTD/svg11.dtd">
<!-- Generated by graphviz version 2.36.0 (20140111.2315)
 -->
<!-- Title: G Pages: 1 -->
<svg width="100%" height="100%"
 viewBox="0.00 0.00 283.64 327.47" xmlns="http://www.w3.org/2000/svg" xmlns:xlink="http://www.w3.org/1999/xlink">
<g id="graph0" class="graph" transform="scale(1 1) rotate(0) translate(4 323.47)">
<title>G</title>
<!-- 0 -->
<g id="node1" class="node"><title>0</title>
<ellipse fill="cadetblue" stroke="black" cx="21.2132" cy="-198.461" rx="21.4286" ry="21.4286"/>
<text text-anchor="middle" x="21.2132" y="-193.461" font-family="Times New Roman,serif" font-size="20.00">2</text>
</g>
<!-- 6 -->
<g id="node7" class="node"><title>6</title>
<ellipse fill="cadetblue" stroke="black" cx="154.659" cy="-237.93" rx="21.4286" ry="21.4286"/>
<text text-anchor="middle" x="154.659" y="-232.93" font-family="Times New Roman,serif" font-size="20.00">2</text>
</g>
<!-- 0&#45;&gt;6 -->
<g id="edge3" class="edge"><title>0&#45;&gt;6</title>
<path fill="none" stroke="black" stroke-width="2" d="M41.7716,-204.542C63.8761,-211.079 99.2391,-221.539 124.494,-229.008"/>
<polygon fill="black" stroke="black" stroke-width="2" points="123.714,-232.427 134.296,-231.907 125.699,-225.715 123.714,-232.427"/>
</g>
<!-- 7 -->
<g id="node8" class="node"><title>7</title>
<ellipse fill="brown" stroke="black" cx="141.539" cy="-159.826" rx="21.4286" ry="21.4286"/>
<text text-anchor="middle" x="141.539" y="-154.826" font-family="Times New Roman,serif" font-size="20.00">3</text>
</g>
<!-- 0&#45;&gt;7 -->
<g id="edge4" class="edge"><title>0&#45;&gt;7</title>
<path fill="none" stroke="black" stroke-width="2" d="M41.6249,-191.907C60.7262,-185.774 89.504,-176.534 111.276,-169.543"/>
<polygon fill="black" stroke="black" stroke-width="2" points="112.576,-172.802 121.027,-166.412 110.436,-166.137 112.576,-172.802"/>
</g>
<!-- 1 -->
<g id="node2" class="node"><title>1</title>
<ellipse fill="cadetblue" stroke="black" cx="248.894" cy="-206.806" rx="21.4286" ry="21.4286"/>
<text text-anchor="middle" x="248.894" y="-201.806" font-family="Times New Roman,serif" font-size="20.00">2</text>
</g>
<!-- 1&#45;&gt;6 -->
<g id="edge7" class="edge"><title>1&#45;&gt;6</title>
<path fill="none" stroke="black" stroke-width="2" d="M228.447,-213.56C215.727,-217.761 199.142,-223.238 184.918,-227.936"/>
<polygon fill="black" stroke="black" stroke-width="2" points="183.464,-224.73 175.066,-231.19 185.66,-231.377 183.464,-224.73"/>
</g>
<!-- 1&#45;&gt;7 -->
<g id="edge8" class="edge"><title>1&#45;&gt;7</title>
<path fill="none" stroke="black" stroke-width="2" d="M229.204,-198.189C212.709,-190.971 188.939,-180.569 170.312,-172.417"/>
<polygon fill="black" stroke="black" stroke-width="2" points="171.669,-169.191 161.105,-168.388 168.863,-175.604 171.669,-169.191"/>
</g>
<!-- 2 -->
<g id="node3" class="node"><title>2</title>
<ellipse fill="cadetblue" stroke="black" cx="168.806" cy="-21.2132" rx="21.4286" ry="21.4286"/>
<text text-anchor="middle" x="168.806" y="-16.2132" font-family="Times New Roman,serif" font-size="20.00">2</text>
</g>
<!-- 5 -->
<g id="node6" class="node"><title>5</title>
<ellipse fill="cadetblue" stroke="black" cx="98.011" cy="-109.395" rx="21.4286" ry="21.4286"/>
<text text-anchor="middle" x="98.011" y="-104.395" font-family="Times New Roman,serif" font-size="20.00">2</text>
</g>
<!-- 2&#45;&gt;5 -->
<g id="edge10" class="edge"><title>2&#45;&gt;5</title>
<path fill="none" stroke="black" stroke-width="2" d="M155.49,-37.7994C144.878,-51.0173 129.858,-69.7262 117.833,-84.7042"/>
<polygon fill="black" stroke="black" stroke-width="2" points="115.039,-82.5938 111.508,-92.5829 120.498,-86.9761 115.039,-82.5938"/>
</g>
<!-- 3 -->
<g id="node4" class="node"><title>3</title>
<ellipse fill="cadetblue" stroke="black" cx="69.0089" cy="-298.257" rx="21.4286" ry="21.4286"/>
<text text-anchor="middle" x="69.0089" y="-293.257" font-family="Times New Roman,serif" font-size="20.00">2</text>
</g>
<!-- 3&#45;&gt;0 -->
<g id="edge1" class="edge"><title>3&#45;&gt;0</title>
<path fill="none" stroke="black" stroke-width="2" d="M59.7934,-279.015C52.7184,-264.243 42.8404,-243.618 34.8508,-226.936"/>
<polygon fill="black" stroke="black" stroke-width="2" points="37.8766,-225.151 30.4004,-217.644 31.5633,-228.174 37.8766,-225.151"/>
</g>
<!-- 4 -->
<g id="node5" class="node"><title>4</title>
<ellipse fill="cadetblue" stroke="black" cx="254.428" cy="-113.036" rx="21.4286" ry="21.4286"/>
<text text-anchor="middle" x="254.428" y="-108.036" font-family="Times New Roman,serif" font-size="20.00">2</text>
</g>
<!-- 4&#45;&gt;1 -->
<g id="edge5" class="edge"><title>4&#45;&gt;1</title>
<path fill="none" stroke="black" stroke-width="2" d="M253.172,-134.314C252.458,-146.423 251.549,-161.819 250.753,-175.306"/>
<polygon fill="black" stroke="black" stroke-width="2" points="247.24,-175.424 250.145,-185.613 254.228,-175.836 247.24,-175.424"/>
</g>
<!-- 4&#45;&gt;2 -->
<g id="edge9" class="edge"><title>4&#45;&gt;2</title>
<path fill="none" stroke="black" stroke-width="2" d="M239.903,-97.4594C226.373,-82.9488 206.019,-61.1206 190.551,-44.5331"/>
<polygon fill="black" stroke="black" stroke-width="2" points="192.782,-41.7929 183.402,-36.8661 187.662,-46.5667 192.782,-41.7929"/>
</g>
<!-- 5&#45;&gt;0 -->
<g id="edge2" class="edge"><title>5&#45;&gt;0</title>
<path fill="none" stroke="black" stroke-width="2" d="M83.9251,-125.731C72.1252,-139.416 55.1216,-159.136 41.796,-174.59"/>
<polygon fill="black" stroke="black" stroke-width="2" points="39.0893,-172.369 35.2098,-182.228 44.3907,-176.941 39.0893,-172.369"/>
</g>
<!-- 5&#45;&gt;1 -->
<g id="edge6" class="edge"><title>5&#45;&gt;1</title>
<path fill="none" stroke="black" stroke-width="2" d="M117.488,-118.363C129.961,-124.35 146.337,-132.67 160.14,-141.227 182.81,-155.28 207.072,-173.443 224.489,-187.09"/>
<polygon fill="black" stroke="black" stroke-width="2" points="222.438,-189.93 232.453,-193.388 226.781,-184.44 222.438,-189.93"/>
</g>
<!-- 6&#45;&gt;3 -->
<g id="edge12" class="edge"><title>6&#45;&gt;3</title>
<path fill="none" stroke="black" stroke-width="2" d="M136.912,-250.43C124.773,-258.98 108.484,-270.453 94.9028,-280.019"/>
<polygon fill="black" stroke="black" stroke-width="2" points="92.6,-277.36 86.4398,-285.98 96.6309,-283.083 92.6,-277.36"/>
</g>
<!-- 6&#45;&gt;4 -->
<g id="edge14" class="edge"><title>6&#45;&gt;4</title>
<path fill="none" stroke="black" stroke-width="2" d="M167.907,-221.345C185.051,-199.883 215.062,-162.315 234.842,-137.554"/>
<polygon fill="black" stroke="black" stroke-width="2" points="237.618,-139.687 241.124,-129.689 232.148,-135.318 237.618,-139.687"/>
</g>
<!-- 6&#45;&gt;5 -->
<g id="edge16" class="edge"><title>6&#45;&gt;5</title>
<path fill="none" stroke="black" stroke-width="2" d="M144.186,-219.407C137.764,-207.782 129.537,-192.398 122.938,-178.425 119.117,-170.334 118.394,-168.196 115.235,-159.825 112.733,-153.195 110.186,-146.018 107.845,-139.215"/>
<polygon fill="black" stroke="black" stroke-width="2" points="111.118,-137.968 104.593,-129.622 104.489,-140.216 111.118,-137.968"/>
</g>
<!-- 6&#45;&gt;7 -->
<g id="edge17" class="edge"><title>6&#45;&gt;7</title>
<path fill="none" stroke="black" stroke-width="2" d="M151.143,-217C149.79,-208.945 148.215,-199.569 146.737,-190.768"/>
<polygon fill="black" stroke="black" stroke-width="2" points="150.173,-190.096 145.065,-180.814 143.27,-191.256 150.173,-190.096"/>
</g>
<!-- 7&#45;&gt;2 -->
<g id="edge11" class="edge"><title>7&#45;&gt;2</title>
<path fill="none" stroke="black" stroke-width="2" d="M145.68,-138.774C150.205,-115.774 157.498,-78.6987 162.684,-52.3372"/>
<polygon fill="black" stroke="black" stroke-width="2" points="166.13,-52.9512 164.626,-42.4636 159.261,-51.6 166.13,-52.9512"/>
</g>
<!-- 7&#45;&gt;3 -->
<g id="edge13" class="edge"><title>7&#45;&gt;3</title>
<path fill="none" stroke="black" stroke-width="2" d="M131.606,-178.784C119.251,-202.365 98.049,-242.831 83.7848,-270.056"/>
<polygon fill="black" stroke="black" stroke-width="2" points="80.5955,-268.601 79.0547,-279.084 86.796,-271.85 80.5955,-268.601"/>
</g>
<!-- 7&#45;&gt;4 -->
<g id="edge15" class="edge"><title>7&#45;&gt;4</title>
<path fill="none" stroke="black" stroke-width="2" d="M161.203,-151.676C178.9,-144.34 205.143,-133.464 225.28,-125.117"/>
<polygon fill="black" stroke="black" stroke-width="2" points="226.713,-128.312 234.611,-121.25 224.033,-121.845 226.713,-128.312"/>
</g>
</g>
</svg>

