<?xml version="1.0" encoding="UTF-8" standalone="no"?>
<!DOCTYPE svg PUBLIC "-//W3C//DTD SVG 1.1//EN"
 "http://www.w3.org/Graphics/SVG/1.1/DTD/svg11.dtd">
<!-- Generated by graphviz version 2.36.0 (20140111.2315)
 -->
<!-- Title: G Pages: 1 -->
<svg width="100%" height="100%"
 viewBox="0.00 0.00 328.85 283.28" xmlns="http://www.w3.org/2000/svg" xmlns:xlink="http://www.w3.org/1999/xlink">
<g id="graph0" class="graph" transform="scale(1 1) rotate(0) translate(4 279.275)">
<title>G</title>
<!-- 0 -->
<g id="node1" class="node"><title>0</title>
<ellipse fill="cadetblue" stroke="black" cx="29.6941" cy="-79.2838" rx="21.4286" ry="21.4286"/>
<text text-anchor="middle" x="29.6941" y="-74.2838" font-family="Times New Roman,serif" font-size="20.00">2</text>
</g>
<!-- 6 -->
<g id="node7" class="node"><title>6</title>
<ellipse fill="cadetblue" stroke="black" cx="182.808" cy="-120.882" rx="21.4286" ry="21.4286"/>
<text text-anchor="middle" x="182.808" y="-115.882" font-family="Times New Roman,serif" font-size="20.00">2</text>
</g>
<!-- 0&#45;&gt;6 -->
<g id="edge3" class="edge"><title>0&#45;&gt;6</title>
<path fill="none" stroke="black" stroke-width="2" d="M48.2713,-89.7006C68.3026,-100.268 101.484,-115.876 132.376,-121.738 138.438,-122.889 144.985,-123.341 151.289,-123.392"/>
<polygon fill="black" stroke="black" stroke-width="2" points="151.627,-126.885 161.542,-123.152 151.463,-119.887 151.627,-126.885"/>
</g>
<!-- 7 -->
<g id="node8" class="node"><title>7</title>
<ellipse fill="cadetblue" stroke="black" cx="132.377" cy="-95.434" rx="21.4286" ry="21.4286"/>
<text text-anchor="middle" x="132.377" y="-90.434" font-family="Times New Roman,serif" font-size="20.00">2</text>
</g>
<!-- 0&#45;&gt;7 -->
<g id="edge4" class="edge"><title>0&#45;&gt;7</title>
<path fill="none" stroke="black" stroke-width="2" d="M50.97,-82.6301C65.4263,-84.9038 84.7929,-87.9498 101.01,-90.5004"/>
<polygon fill="black" stroke="black" stroke-width="2" points="100.706,-93.9956 111.128,-92.0919 101.793,-87.0806 100.706,-93.9956"/>
</g>
<!-- 1 -->
<g id="node2" class="node"><title>1</title>
<ellipse fill="cadetblue" stroke="black" cx="229.36" cy="-254.062" rx="21.4286" ry="21.4286"/>
<text text-anchor="middle" x="229.36" y="-249.062" font-family="Times New Roman,serif" font-size="20.00">2</text>
</g>
<!-- 1&#45;&gt;6 -->
<g id="edge7" class="edge"><title>1&#45;&gt;6</title>
<path fill="none" stroke="black" stroke-width="2" d="M222.29,-233.835C214.566,-211.736 202.114,-176.114 193.261,-150.786"/>
<polygon fill="black" stroke="black" stroke-width="2" points="196.549,-149.584 189.945,-141.299 189.941,-151.894 196.549,-149.584"/>
</g>
<!-- 1&#45;&gt;7 -->
<g id="edge8" class="edge"><title>1&#45;&gt;7</title>
<path fill="none" stroke="black" stroke-width="2" d="M218.235,-235.865C201.298,-208.164 168.932,-155.224 149.138,-122.849"/>
<polygon fill="black" stroke="black" stroke-width="2" points="151.873,-120.613 143.671,-113.907 145.901,-124.264 151.873,-120.613"/>
</g>
<!-- 2 -->
<g id="node3" class="node"><title>2</title>
<ellipse fill="cadetblue" stroke="black" cx="269.208" cy="-21.2132" rx="21.4286" ry="21.4286"/>
<text text-anchor="middle" x="269.208" y="-16.2132" font-family="Times New Roman,serif" font-size="20.00">2</text>
</g>
<!-- 4 -->
<g id="node5" class="node"><title>4</title>
<ellipse fill="cadetblue" stroke="black" cx="299.64" cy="-166.393" rx="21.4286" ry="21.4286"/>
<text text-anchor="middle" x="299.64" y="-161.393" font-family="Times New Roman,serif" font-size="20.00">2</text>
</g>
<!-- 2&#45;&gt;4 -->
<g id="edge9" class="edge"><title>2&#45;&gt;4</title>
<path fill="none" stroke="black" stroke-width="2" d="M273.568,-42.0139C278.698,-66.4861 287.262,-107.344 293.167,-135.516"/>
<polygon fill="black" stroke="black" stroke-width="2" points="289.81,-136.561 295.288,-145.631 296.661,-135.125 289.81,-136.561"/>
</g>
<!-- 3 -->
<g id="node4" class="node"><title>3</title>
<ellipse fill="brown" stroke="black" cx="21.2132" cy="-184.238" rx="21.4286" ry="21.4286"/>
<text text-anchor="middle" x="21.2132" y="-179.238" font-family="Times New Roman,serif" font-size="20.00">3</text>
</g>
<!-- 3&#45;&gt;0 -->
<g id="edge1" class="edge"><title>3&#45;&gt;0</title>
<path fill="none" stroke="black" stroke-width="2" d="M22.9294,-162.999C24.1479,-147.919 25.8036,-127.429 27.172,-110.495"/>
<polygon fill="black" stroke="black" stroke-width="2" points="30.6635,-110.741 27.9804,-100.491 23.6863,-110.177 30.6635,-110.741"/>
</g>
<!-- 4&#45;&gt;1 -->
<g id="edge5" class="edge"><title>4&#45;&gt;1</title>
<path fill="none" stroke="black" stroke-width="2" d="M286.089,-183.296C275.619,-196.357 260.974,-214.625 249.187,-229.329"/>
<polygon fill="black" stroke="black" stroke-width="2" points="246.155,-227.516 242.631,-237.508 251.616,-231.895 246.155,-227.516"/>
</g>
<!-- 5 -->
<g id="node6" class="node"><title>5</title>
<ellipse fill="cadetblue" stroke="black" cx="123.407" cy="-227.974" rx="21.4286" ry="21.4286"/>
<text text-anchor="middle" x="123.407" y="-222.974" font-family="Times New Roman,serif" font-size="20.00">2</text>
</g>
<!-- 4&#45;&gt;5 -->
<g id="edge15" class="edge"><title>4&#45;&gt;5</title>
<path fill="none" stroke="black" stroke-width="2" d="M279.423,-173.457C248.433,-184.286 189.01,-205.05 153.115,-217.593"/>
<polygon fill="black" stroke="black" stroke-width="2" points="151.943,-214.295 143.658,-220.898 154.253,-220.903 151.943,-214.295"/>
</g>
<!-- 5&#45;&gt;0 -->
<g id="edge2" class="edge"><title>5&#45;&gt;0</title>
<path fill="none" stroke="black" stroke-width="2" d="M111.916,-209.742C95.6159,-183.879 65.6655,-136.358 46.7633,-106.367"/>
<polygon fill="black" stroke="black" stroke-width="2" points="49.572,-104.259 41.2791,-97.6652 43.6501,-107.991 49.572,-104.259"/>
</g>
<!-- 5&#45;&gt;1 -->
<g id="edge6" class="edge"><title>5&#45;&gt;1</title>
<path fill="none" stroke="black" stroke-width="2" d="M144.087,-233.066C159.693,-236.909 181.346,-242.24 198.927,-246.569"/>
<polygon fill="black" stroke="black" stroke-width="2" points="198.185,-249.991 208.732,-248.983 199.859,-243.194 198.185,-249.991"/>
</g>
<!-- 5&#45;&gt;3 -->
<g id="edge12" class="edge"><title>5&#45;&gt;3</title>
<path fill="none" stroke="black" stroke-width="2" d="M103.703,-219.541C88.5755,-213.067 67.4549,-204.028 50.3722,-196.717"/>
<polygon fill="black" stroke="black" stroke-width="2" points="51.4272,-193.361 40.8567,-192.644 48.673,-199.797 51.4272,-193.361"/>
</g>
<!-- 6&#45;&gt;2 -->
<g id="edge10" class="edge"><title>6&#45;&gt;2</title>
<path fill="none" stroke="black" stroke-width="2" d="M197.076,-104.423C211.041,-88.3132 232.472,-63.5905 248.349,-45.2754"/>
<polygon fill="black" stroke="black" stroke-width="2" points="251.301,-47.2139 255.206,-37.3652 246.011,-42.6288 251.301,-47.2139"/>
</g>
<!-- 6&#45;&gt;3 -->
<g id="edge13" class="edge"><title>6&#45;&gt;3</title>
<path fill="none" stroke="black" stroke-width="2" d="M162.994,-128.65C134.887,-139.67 83.2412,-159.919 50.6468,-172.698"/>
<polygon fill="black" stroke="black" stroke-width="2" points="49.2225,-169.497 41.19,-176.405 51.7776,-176.014 49.2225,-169.497"/>
</g>
<!-- 6&#45;&gt;4 -->
<g id="edge16" class="edge"><title>6&#45;&gt;4</title>
<path fill="none" stroke="black" stroke-width="2" d="M202.627,-128.602C221.174,-135.827 249.116,-146.711 270.256,-154.946"/>
<polygon fill="black" stroke="black" stroke-width="2" points="269.135,-158.266 279.723,-158.635 271.676,-151.743 269.135,-158.266"/>
</g>
<!-- 7&#45;&gt;2 -->
<g id="edge11" class="edge"><title>7&#45;&gt;2</title>
<path fill="none" stroke="black" stroke-width="2" d="M151.116,-85.2695C174.424,-72.6264 214.423,-50.9301 241.333,-36.3335"/>
<polygon fill="black" stroke="black" stroke-width="2" points="243.135,-39.3377 250.256,-31.4931 239.797,-33.1846 243.135,-39.3377"/>
</g>
<!-- 7&#45;&gt;3 -->
<g id="edge14" class="edge"><title>7&#45;&gt;3</title>
<path fill="none" stroke="black" stroke-width="2" d="M115.494,-108.921C96.941,-123.742 66.9689,-147.685 45.806,-164.592"/>
<polygon fill="black" stroke="black" stroke-width="2" points="43.5198,-161.938 37.8912,-170.914 47.8888,-167.407 43.5198,-161.938"/>
</g>
<!-- 7&#45;&gt;5 -->
<g id="edge17" class="edge"><title>7&#45;&gt;5</title>
<path fill="none" stroke="black" stroke-width="2" d="M130.936,-116.729C129.478,-138.274 127.207,-171.828 125.54,-196.454"/>
<polygon fill="black" stroke="black" stroke-width="2" points="122.028,-196.518 124.844,-206.732 129.012,-196.991 122.028,-196.518"/>
</g>
</g>
</svg>

