<?xml version="1.0" encoding="UTF-8" standalone="no"?>
<!DOCTYPE svg PUBLIC "-//W3C//DTD SVG 1.1//EN"
 "http://www.w3.org/Graphics/SVG/1.1/DTD/svg11.dtd">
<!-- Generated by graphviz version 2.36.0 (20140111.2315)
 -->
<!-- Title: G Pages: 1 -->
<svg width="100%" height="100%"
 viewBox="0.00 0.00 277.89 225.31" xmlns="http://www.w3.org/2000/svg" xmlns:xlink="http://www.w3.org/1999/xlink">
<g id="graph0" class="graph" transform="scale(1 1) rotate(0) translate(4 221.306)">
<title>G</title>
<!-- 0 -->
<g id="node1" class="node"><title>0</title>
<ellipse fill="cadetblue" stroke="black" cx="21.2132" cy="-106.161" rx="21.4286" ry="21.4286"/>
<text text-anchor="middle" x="21.2132" y="-101.161" font-family="Times New Roman,serif" font-size="20.00">2</text>
</g>
<!-- 7 -->
<g id="node8" class="node"><title>7</title>
<ellipse fill="cadetblue" stroke="black" cx="124.592" cy="-75.1557" rx="21.4286" ry="21.4286"/>
<text text-anchor="middle" x="124.592" y="-70.1557" font-family="Times New Roman,serif" font-size="20.00">2</text>
</g>
<!-- 0&#45;&gt;7 -->
<g id="edge3" class="edge"><title>0&#45;&gt;7</title>
<path fill="none" stroke="black" stroke-width="2" d="M41.6376,-100.035C56.6463,-95.5337 77.2884,-89.3429 94.2263,-84.2629"/>
<polygon fill="black" stroke="black" stroke-width="2" points="95.6373,-87.4938 104.21,-81.2686 93.6264,-80.7889 95.6373,-87.4938"/>
</g>
<!-- 1 -->
<g id="node2" class="node"><title>1</title>
<ellipse fill="cadetblue" stroke="black" cx="247.443" cy="-140.415" rx="21.4286" ry="21.4286"/>
<text text-anchor="middle" x="247.443" y="-135.415" font-family="Times New Roman,serif" font-size="20.00">2</text>
</g>
<!-- 6 -->
<g id="node7" class="node"><title>6</title>
<ellipse fill="cadetblue" stroke="black" cx="189.725" cy="-169.571" rx="21.4286" ry="21.4286"/>
<text text-anchor="middle" x="189.725" y="-164.571" font-family="Times New Roman,serif" font-size="20.00">2</text>
</g>
<!-- 1&#45;&gt;6 -->
<g id="edge6" class="edge"><title>1&#45;&gt;6</title>
<path fill="none" stroke="black" stroke-width="2" d="M228.223,-150.123C224.879,-151.813 221.339,-153.601 217.814,-155.382"/>
<polygon fill="black" stroke="black" stroke-width="2" points="216.012,-152.371 208.664,-160.004 219.168,-158.619 216.012,-152.371"/>
</g>
<!-- 1&#45;&gt;7 -->
<g id="edge7" class="edge"><title>1&#45;&gt;7</title>
<path fill="none" stroke="black" stroke-width="2" d="M228.516,-130.361C208.167,-119.551 175.612,-102.258 152.362,-89.9071"/>
<polygon fill="black" stroke="black" stroke-width="2" points="153.812,-86.7141 143.338,-85.1137 150.528,-92.896 153.812,-86.7141"/>
</g>
<!-- 2 -->
<g id="node3" class="node"><title>2</title>
<ellipse fill="cadetblue" stroke="black" cx="176.269" cy="-21.2132" rx="21.4286" ry="21.4286"/>
<text text-anchor="middle" x="176.269" y="-16.2132" font-family="Times New Roman,serif" font-size="20.00">2</text>
</g>
<!-- 5 -->
<g id="node6" class="node"><title>5</title>
<ellipse fill="cadetblue" stroke="black" cx="126.745" cy="-125.587" rx="21.4286" ry="21.4286"/>
<text text-anchor="middle" x="126.745" y="-120.587" font-family="Times New Roman,serif" font-size="20.00">2</text>
</g>
<!-- 2&#45;&gt;5 -->
<g id="edge9" class="edge"><title>2&#45;&gt;5</title>
<path fill="none" stroke="black" stroke-width="2" d="M166.954,-40.8451C159.436,-56.6895 148.755,-79.1998 140.291,-97.0383"/>
<polygon fill="black" stroke="black" stroke-width="2" points="136.976,-95.8609 135.851,-106.396 143.3,-98.8617 136.976,-95.8609"/>
</g>
<!-- 2&#45;&gt;6 -->
<g id="edge10" class="edge"><title>2&#45;&gt;6</title>
<path fill="none" stroke="black" stroke-width="2" d="M178.197,-42.4692C180.465,-67.4771 184.252,-109.23 186.863,-138.018"/>
<polygon fill="black" stroke="black" stroke-width="2" points="183.412,-138.711 187.801,-148.354 190.383,-138.079 183.412,-138.711"/>
</g>
<!-- 3 -->
<g id="node4" class="node"><title>3</title>
<ellipse fill="cadetblue" stroke="black" cx="74.0185" cy="-196.093" rx="21.4286" ry="21.4286"/>
<text text-anchor="middle" x="74.0185" y="-191.093" font-family="Times New Roman,serif" font-size="20.00">2</text>
</g>
<!-- 3&#45;&gt;0 -->
<g id="edge1" class="edge"><title>3&#45;&gt;0</title>
<path fill="none" stroke="black" stroke-width="2" d="M63.0772,-177.459C55.5934,-164.713 45.5507,-147.61 37.1775,-133.349"/>
<polygon fill="black" stroke="black" stroke-width="2" points="40.0414,-131.314 31.9598,-124.463 34.005,-134.859 40.0414,-131.314"/>
</g>
<!-- 4 -->
<g id="node5" class="node"><title>4</title>
<ellipse fill="cadetblue" stroke="black" cx="248.678" cy="-59.9489" rx="21.4286" ry="21.4286"/>
<text text-anchor="middle" x="248.678" y="-54.9489" font-family="Times New Roman,serif" font-size="20.00">2</text>
</g>
<!-- 4&#45;&gt;1 -->
<g id="edge4" class="edge"><title>4&#45;&gt;1</title>
<path fill="none" stroke="black" stroke-width="2" d="M248.347,-81.5122C248.217,-89.9681 248.066,-99.8376 247.924,-109.054"/>
<polygon fill="black" stroke="black" stroke-width="2" points="244.424,-109.018 247.77,-119.071 251.423,-109.126 244.424,-109.018"/>
</g>
<!-- 4&#45;&gt;2 -->
<g id="edge8" class="edge"><title>4&#45;&gt;2</title>
<path fill="none" stroke="black" stroke-width="2" d="M229.654,-49.7716C221.838,-45.5904 212.631,-40.6653 204.085,-36.0932"/>
<polygon fill="black" stroke="black" stroke-width="2" points="205.635,-32.9535 195.167,-31.3226 202.333,-39.1258 205.635,-32.9535"/>
</g>
<!-- 5&#45;&gt;0 -->
<g id="edge2" class="edge"><title>5&#45;&gt;0</title>
<path fill="none" stroke="black" stroke-width="2" d="M105.643,-121.703C90.4003,-118.897 69.5641,-115.061 52.4049,-111.902"/>
<polygon fill="black" stroke="black" stroke-width="2" points="52.7474,-108.407 42.2789,-110.038 51.48,-115.291 52.7474,-108.407"/>
</g>
<!-- 5&#45;&gt;1 -->
<g id="edge5" class="edge"><title>5&#45;&gt;1</title>
<path fill="none" stroke="black" stroke-width="2" d="M148.046,-128.204C167.005,-130.533 194.976,-133.969 216.42,-136.604"/>
<polygon fill="black" stroke="black" stroke-width="2" points="216.003,-140.078 226.355,-137.824 216.856,-133.131 216.003,-140.078"/>
</g>
<!-- 6&#45;&gt;3 -->
<g id="edge12" class="edge"><title>6&#45;&gt;3</title>
<path fill="none" stroke="black" stroke-width="2" d="M169.039,-174.312C151.215,-178.398 125.229,-184.354 104.936,-189.006"/>
<polygon fill="black" stroke="black" stroke-width="2" points="103.881,-185.657 94.9156,-191.303 105.445,-192.48 103.881,-185.657"/>
</g>
<!-- 6&#45;&gt;4 -->
<g id="edge14" class="edge"><title>6&#45;&gt;4</title>
<path fill="none" stroke="black" stroke-width="2" d="M199.994,-150.476C209.293,-133.185 223.109,-107.495 233.65,-87.8942"/>
<polygon fill="black" stroke="black" stroke-width="2" points="236.873,-89.2897 238.527,-78.8248 230.708,-85.9742 236.873,-89.2897"/>
</g>
<!-- 6&#45;&gt;5 -->
<g id="edge16" class="edge"><title>6&#45;&gt;5</title>
<path fill="none" stroke="black" stroke-width="2" d="M172.182,-157.319C166.176,-153.125 159.323,-148.338 152.791,-143.777"/>
<polygon fill="black" stroke="black" stroke-width="2" points="154.397,-140.629 144.194,-137.773 150.389,-146.368 154.397,-140.629"/>
</g>
<!-- 7&#45;&gt;2 -->
<g id="edge11" class="edge"><title>7&#45;&gt;2</title>
<path fill="none" stroke="black" stroke-width="2" d="M139.539,-59.5533C144.186,-54.7031 149.407,-49.2526 154.423,-44.0168"/>
<polygon fill="black" stroke="black" stroke-width="2" points="157.144,-46.2366 161.534,-36.5943 152.089,-41.3941 157.144,-46.2366"/>
</g>
<!-- 7&#45;&gt;3 -->
<g id="edge13" class="edge"><title>7&#45;&gt;3</title>
<path fill="none" stroke="black" stroke-width="2" d="M116.354,-94.8555C108.162,-114.445 95.5011,-144.721 86.1578,-167.064"/>
<polygon fill="black" stroke="black" stroke-width="2" points="82.8822,-165.825 82.2531,-176.401 89.3403,-168.526 82.8822,-165.825"/>
</g>
<!-- 7&#45;&gt;4 -->
<g id="edge15" class="edge"><title>7&#45;&gt;4</title>
<path fill="none" stroke="black" stroke-width="2" d="M145.923,-72.5416C165.544,-70.137 194.891,-66.5406 217.204,-63.8061"/>
<polygon fill="black" stroke="black" stroke-width="2" points="217.71,-67.2704 227.21,-62.5799 216.859,-60.3223 217.71,-67.2704"/>
</g>
</g>
</svg>

