<?xml version="1.0" encoding="UTF-8" standalone="no"?>
<!DOCTYPE svg PUBLIC "-//W3C//DTD SVG 1.1//EN"
 "http://www.w3.org/Graphics/SVG/1.1/DTD/svg11.dtd">
<!-- Generated by graphviz version 2.36.0 (20140111.2315)
 -->
<!-- Title: G Pages: 1 -->
<svg width="100%" height="100%"
 viewBox="0.00 0.00 266.78 210.12" xmlns="http://www.w3.org/2000/svg" xmlns:xlink="http://www.w3.org/1999/xlink">
<g id="graph0" class="graph" transform="scale(1 1) rotate(0) translate(4 206.123)">
<title>G</title>
<!-- 0 -->
<g id="node1" class="node"><title>0</title>
<ellipse fill="cadetblue" stroke="black" cx="21.2132" cy="-113.29" rx="21.4286" ry="21.4286"/>
<text text-anchor="middle" x="21.2132" y="-108.29" font-family="Times New Roman,serif" font-size="20.00">2</text>
</g>
<!-- 6 -->
<g id="node7" class="node"><title>6</title>
<ellipse fill="cadetblue" stroke="black" cx="122.402" cy="-172.774" rx="21.4286" ry="21.4286"/>
<text text-anchor="middle" x="122.402" y="-167.774" font-family="Times New Roman,serif" font-size="20.00">2</text>
</g>
<!-- 0&#45;&gt;6 -->
<g id="edge3" class="edge"><title>0&#45;&gt;6</title>
<path fill="none" stroke="black" stroke-width="2" d="M39.7728,-124.201C55.3203,-133.34 77.7241,-146.51 95.282,-156.832"/>
<polygon fill="black" stroke="black" stroke-width="2" points="93.5654,-159.883 103.96,-161.933 97.1128,-153.848 93.5654,-159.883"/>
</g>
<!-- 7 -->
<g id="node8" class="node"><title>7</title>
<ellipse fill="cadetblue" stroke="black" cx="134.001" cy="-113.598" rx="21.4286" ry="21.4286"/>
<text text-anchor="middle" x="134.001" y="-108.598" font-family="Times New Roman,serif" font-size="20.00">2</text>
</g>
<!-- 0&#45;&gt;7 -->
<g id="edge4" class="edge"><title>0&#45;&gt;7</title>
<path fill="none" stroke="black" stroke-width="2" d="M42.4277,-113.348C59.334,-113.394 83.2635,-113.46 102.421,-113.512"/>
<polygon fill="black" stroke="black" stroke-width="2" points="102.489,-117.012 112.498,-113.539 102.508,-110.012 102.489,-117.012"/>
</g>
<!-- 1 -->
<g id="node2" class="node"><title>1</title>
<ellipse fill="cadetblue" stroke="black" cx="206.67" cy="-148.057" rx="21.4286" ry="21.4286"/>
<text text-anchor="middle" x="206.67" y="-143.057" font-family="Times New Roman,serif" font-size="20.00">2</text>
</g>
<!-- 5 -->
<g id="node6" class="node"><title>5</title>
<ellipse fill="cadetblue" stroke="black" cx="83.5696" cy="-68.0113" rx="21.4286" ry="21.4286"/>
<text text-anchor="middle" x="83.5696" y="-63.0113" font-family="Times New Roman,serif" font-size="20.00">2</text>
</g>
<!-- 1&#45;&gt;5 -->
<g id="edge6" class="edge"><title>1&#45;&gt;5</title>
<path fill="none" stroke="black" stroke-width="2" d="M192.886,-131.504C182.69,-120.072 167.959,-105.156 152.602,-94.9991 140.83,-87.2131 126.474,-81.1449 113.909,-76.7517"/>
<polygon fill="black" stroke="black" stroke-width="2" points="114.892,-73.3907 104.299,-73.5868 112.702,-80.0394 114.892,-73.3907"/>
</g>
<!-- 1&#45;&gt;7 -->
<g id="edge8" class="edge"><title>1&#45;&gt;7</title>
<path fill="none" stroke="black" stroke-width="2" d="M187.196,-138.823C179.56,-135.202 170.646,-130.975 162.323,-127.028"/>
<polygon fill="black" stroke="black" stroke-width="2" points="163.812,-123.861 153.277,-122.739 160.813,-130.186 163.812,-123.861"/>
</g>
<!-- 2 -->
<g id="node3" class="node"><title>2</title>
<ellipse fill="cadetblue" stroke="black" cx="155.732" cy="-21.2132" rx="21.4286" ry="21.4286"/>
<text text-anchor="middle" x="155.732" y="-16.2132" font-family="Times New Roman,serif" font-size="20.00">2</text>
</g>
<!-- 4 -->
<g id="node5" class="node"><title>4</title>
<ellipse fill="cadetblue" stroke="black" cx="237.571" cy="-63.3144" rx="21.4286" ry="21.4286"/>
<text text-anchor="middle" x="237.571" y="-58.3144" font-family="Times New Roman,serif" font-size="20.00">2</text>
</g>
<!-- 2&#45;&gt;4 -->
<g id="edge9" class="edge"><title>2&#45;&gt;4</title>
<path fill="none" stroke="black" stroke-width="2" d="M174.713,-30.9779C185.042,-36.2916 198.019,-42.9675 209.496,-48.8716"/>
<polygon fill="black" stroke="black" stroke-width="2" points="208.199,-52.1404 218.693,-53.6027 211.401,-45.9157 208.199,-52.1404"/>
</g>
<!-- 3 -->
<g id="node4" class="node"><title>3</title>
<ellipse fill="brown" stroke="black" cx="46.1795" cy="-180.91" rx="21.4286" ry="21.4286"/>
<text text-anchor="middle" x="46.1795" y="-175.91" font-family="Times New Roman,serif" font-size="20.00">3</text>
</g>
<!-- 3&#45;&gt;0 -->
<g id="edge1" class="edge"><title>3&#45;&gt;0</title>
<path fill="none" stroke="black" stroke-width="2" d="M38.8238,-160.987C36.7094,-155.261 34.3575,-148.89 32.0787,-142.719"/>
<polygon fill="black" stroke="black" stroke-width="2" points="35.3496,-141.473 28.6026,-133.304 28.7829,-143.897 35.3496,-141.473"/>
</g>
<!-- 4&#45;&gt;1 -->
<g id="edge5" class="edge"><title>4&#45;&gt;1</title>
<path fill="none" stroke="black" stroke-width="2" d="M230.248,-83.3972C226.438,-93.8454 221.707,-106.821 217.484,-118.401"/>
<polygon fill="black" stroke="black" stroke-width="2" points="214.078,-117.525 213.941,-128.118 220.655,-119.923 214.078,-117.525"/>
</g>
<!-- 5&#45;&gt;0 -->
<g id="edge2" class="edge"><title>5&#45;&gt;0</title>
<path fill="none" stroke="black" stroke-width="2" d="M66.1999,-80.624C60.2538,-84.9416 53.4681,-89.869 47.0014,-94.5646"/>
<polygon fill="black" stroke="black" stroke-width="2" points="44.5251,-92.0373 38.4898,-100.745 48.6381,-97.7016 44.5251,-92.0373"/>
</g>
<!-- 5&#45;&gt;2 -->
<g id="edge10" class="edge"><title>5&#45;&gt;2</title>
<path fill="none" stroke="black" stroke-width="2" d="M101.407,-56.4433C109.821,-50.9872 120.03,-44.3664 129.317,-38.3438"/>
<polygon fill="black" stroke="black" stroke-width="2" points="131.363,-41.1881 137.849,-32.8104 127.554,-35.315 131.363,-41.1881"/>
</g>
<!-- 5&#45;&gt;3 -->
<g id="edge12" class="edge"><title>5&#45;&gt;3</title>
<path fill="none" stroke="black" stroke-width="2" d="M76.885,-88.1953C71.0989,-105.666 62.6509,-131.175 56.0801,-151.015"/>
<polygon fill="black" stroke="black" stroke-width="2" points="52.7537,-149.926 52.9323,-160.52 59.3988,-152.127 52.7537,-149.926"/>
</g>
<!-- 6&#45;&gt;1 -->
<g id="edge7" class="edge"><title>6&#45;&gt;1</title>
<path fill="none" stroke="black" stroke-width="2" d="M142.801,-166.791C152.87,-163.838 165.22,-160.215 176.367,-156.945"/>
<polygon fill="black" stroke="black" stroke-width="2" points="177.556,-160.244 186.167,-154.071 175.586,-153.527 177.556,-160.244"/>
</g>
<!-- 6&#45;&gt;2 -->
<g id="edge11" class="edge"><title>6&#45;&gt;2</title>
<path fill="none" stroke="black" stroke-width="2" d="M137.304,-157.221C146.64,-146.088 157.43,-130.188 160.305,-113.599 163.813,-93.3621 162.675,-70.2861 160.657,-52.2592"/>
<polygon fill="black" stroke="black" stroke-width="2" points="164.123,-51.7699 159.395,-42.2883 157.178,-52.6485 164.123,-51.7699"/>
</g>
<!-- 6&#45;&gt;3 -->
<g id="edge13" class="edge"><title>6&#45;&gt;3</title>
<path fill="none" stroke="black" stroke-width="2" d="M101.17,-175.04C93.8188,-175.825 85.4181,-176.722 77.4328,-177.574"/>
<polygon fill="black" stroke="black" stroke-width="2" points="76.8698,-174.114 67.2978,-178.656 77.6128,-181.074 76.8698,-174.114"/>
</g>
<!-- 7&#45;&gt;3 -->
<g id="edge14" class="edge"><title>7&#45;&gt;3</title>
<path fill="none" stroke="black" stroke-width="2" d="M117.068,-126.576C104.068,-136.54 85.918,-150.452 71.2377,-161.704"/>
<polygon fill="black" stroke="black" stroke-width="2" points="68.8681,-159.11 63.0604,-167.971 73.1264,-164.666 68.8681,-159.11"/>
</g>
<!-- 7&#45;&gt;4 -->
<g id="edge15" class="edge"><title>7&#45;&gt;4</title>
<path fill="none" stroke="black" stroke-width="2" d="M153.482,-104.14C169.105,-96.5549 191.26,-85.7985 208.907,-77.2307"/>
<polygon fill="black" stroke="black" stroke-width="2" points="210.71,-80.2461 218.178,-72.73 207.653,-73.949 210.71,-80.2461"/>
</g>
<!-- 7&#45;&gt;5 -->
<g id="edge16" class="edge"><title>7&#45;&gt;5</title>
<path fill="none" stroke="black" stroke-width="2" d="M118.044,-99.1742C114.549,-96.0147 110.778,-92.606 107.057,-89.2428"/>
<polygon fill="black" stroke="black" stroke-width="2" points="109.361,-86.6073 99.5957,-82.4979 104.667,-91.8002 109.361,-86.6073"/>
</g>
<!-- 7&#45;&gt;6 -->
<g id="edge17" class="edge"><title>7&#45;&gt;6</title>
<path fill="none" stroke="black" stroke-width="2" d="M129.879,-134.628C129.417,-136.983 128.94,-139.416 128.461,-141.862"/>
<polygon fill="black" stroke="black" stroke-width="2" points="125,-141.326 126.511,-151.812 131.869,-142.672 125,-141.326"/>
</g>
</g>
</svg>

