<?xml version="1.0" encoding="UTF-8" standalone="no"?>
<!DOCTYPE svg PUBLIC "-//W3C//DTD SVG 1.1//EN"
 "http://www.w3.org/Graphics/SVG/1.1/DTD/svg11.dtd">
<!-- Generated by graphviz version 2.36.0 (20140111.2315)
 -->
<!-- Title: G Pages: 1 -->
<svg width="100%" height="100%"
 viewBox="0.00 0.00 236.69 198.12" xmlns="http://www.w3.org/2000/svg" xmlns:xlink="http://www.w3.org/1999/xlink">
<g id="graph0" class="graph" transform="scale(1 1) rotate(0) translate(4 194.12)">
<title>G</title>
<!-- 0 -->
<g id="node1" class="node"><title>0</title>
<ellipse fill="cadetblue" stroke="black" cx="21.2132" cy="-64.7297" rx="21.4286" ry="21.4286"/>
<text text-anchor="middle" x="21.2132" y="-59.7297" font-family="Times New Roman,serif" font-size="20.00">2</text>
</g>
<!-- 6 -->
<g id="node7" class="node"><title>6</title>
<ellipse fill="cadetblue" stroke="black" cx="128.773" cy="-64.5802" rx="21.4286" ry="21.4286"/>
<text text-anchor="middle" x="128.773" y="-59.5802" font-family="Times New Roman,serif" font-size="20.00">2</text>
</g>
<!-- 0&#45;&gt;6 -->
<g id="edge3" class="edge"><title>0&#45;&gt;6</title>
<path fill="none" stroke="black" stroke-width="2" d="M42.4635,-64.7002C57.9778,-64.6786 79.2773,-64.649 96.835,-64.6246"/>
<polygon fill="black" stroke="black" stroke-width="2" points="97.2034,-68.1242 107.198,-64.6102 97.1936,-61.1242 97.2034,-68.1242"/>
</g>
<!-- 1 -->
<g id="node2" class="node"><title>1</title>
<ellipse fill="cadetblue" stroke="black" cx="207.481" cy="-168.907" rx="21.4286" ry="21.4286"/>
<text text-anchor="middle" x="207.481" y="-163.907" font-family="Times New Roman,serif" font-size="20.00">2</text>
</g>
<!-- 7 -->
<g id="node8" class="node"><title>7</title>
<ellipse fill="brown" stroke="black" cx="138.889" cy="-142.113" rx="21.4286" ry="21.4286"/>
<text text-anchor="middle" x="138.889" y="-137.113" font-family="Times New Roman,serif" font-size="20.00">3</text>
</g>
<!-- 1&#45;&gt;7 -->
<g id="edge6" class="edge"><title>1&#45;&gt;7</title>
<path fill="none" stroke="black" stroke-width="2" d="M187.641,-161.157C181.721,-158.845 175.098,-156.257 168.687,-153.753"/>
<polygon fill="black" stroke="black" stroke-width="2" points="169.51,-150.317 158.922,-149.939 166.963,-156.837 169.51,-150.317"/>
</g>
<!-- 2 -->
<g id="node3" class="node"><title>2</title>
<ellipse fill="cadetblue" stroke="black" cx="188.298" cy="-21.2132" rx="21.4286" ry="21.4286"/>
<text text-anchor="middle" x="188.298" y="-16.2132" font-family="Times New Roman,serif" font-size="20.00">2</text>
</g>
<!-- 2&#45;&gt;7 -->
<g id="edge9" class="edge"><title>2&#45;&gt;7</title>
<path fill="none" stroke="black" stroke-width="2" d="M180.25,-40.907C172.246,-60.4911 159.877,-90.7577 150.749,-113.094"/>
<polygon fill="black" stroke="black" stroke-width="2" points="147.477,-111.847 146.934,-122.428 153.957,-114.495 147.477,-111.847"/>
</g>
<!-- 3 -->
<g id="node4" class="node"><title>3</title>
<ellipse fill="cadetblue" stroke="black" cx="32.9096" cy="-167.782" rx="21.4286" ry="21.4286"/>
<text text-anchor="middle" x="32.9096" y="-162.782" font-family="Times New Roman,serif" font-size="20.00">2</text>
</g>
<!-- 3&#45;&gt;0 -->
<g id="edge1" class="edge"><title>3&#45;&gt;0</title>
<path fill="none" stroke="black" stroke-width="2" d="M30.4861,-146.429C28.8394,-131.921 26.6334,-112.485 24.7862,-96.2098"/>
<polygon fill="black" stroke="black" stroke-width="2" points="28.2391,-95.5963 23.6336,-86.0548 21.2838,-96.3858 28.2391,-95.5963"/>
</g>
<!-- 4 -->
<g id="node5" class="node"><title>4</title>
<ellipse fill="cadetblue" stroke="black" cx="197.25" cy="-95.2153" rx="21.4286" ry="21.4286"/>
<text text-anchor="middle" x="197.25" y="-90.2153" font-family="Times New Roman,serif" font-size="20.00">2</text>
</g>
<!-- 4&#45;&gt;1 -->
<g id="edge4" class="edge"><title>4&#45;&gt;1</title>
<path fill="none" stroke="black" stroke-width="2" d="M200.209,-116.53C201.129,-123.156 202.163,-130.602 203.156,-137.755"/>
<polygon fill="black" stroke="black" stroke-width="2" points="199.722,-138.471 204.564,-147.895 206.655,-137.508 199.722,-138.471"/>
</g>
<!-- 4&#45;&gt;2 -->
<g id="edge7" class="edge"><title>4&#45;&gt;2</title>
<path fill="none" stroke="black" stroke-width="2" d="M194.661,-73.8108C193.847,-67.0796 192.93,-59.5056 192.052,-52.2463"/>
<polygon fill="black" stroke="black" stroke-width="2" points="195.526,-51.8213 190.851,-42.314 188.577,-52.662 195.526,-51.8213"/>
</g>
<!-- 4&#45;&gt;7 -->
<g id="edge14" class="edge"><title>4&#45;&gt;7</title>
<path fill="none" stroke="black" stroke-width="2" d="M180.683,-108.529C175.43,-112.75 169.501,-117.514 163.796,-122.099"/>
<polygon fill="black" stroke="black" stroke-width="2" points="161.304,-119.611 155.701,-128.604 165.689,-125.068 161.304,-119.611"/>
</g>
<!-- 5 -->
<g id="node6" class="node"><title>5</title>
<ellipse fill="cadetblue" stroke="black" cx="78.3413" cy="-111.653" rx="21.4286" ry="21.4286"/>
<text text-anchor="middle" x="78.3413" y="-106.653" font-family="Times New Roman,serif" font-size="20.00">2</text>
</g>
<!-- 5&#45;&gt;0 -->
<g id="edge2" class="edge"><title>5&#45;&gt;0</title>
<path fill="none" stroke="black" stroke-width="2" d="M61.8175,-98.0809C56.7695,-93.9346 51.1073,-89.2839 45.6505,-84.8017"/>
<polygon fill="black" stroke="black" stroke-width="2" points="47.8468,-82.0765 37.8978,-78.4339 43.4038,-87.4857 47.8468,-82.0765"/>
</g>
<!-- 5&#45;&gt;3 -->
<g id="edge10" class="edge"><title>5&#45;&gt;3</title>
<path fill="none" stroke="black" stroke-width="2" d="M64.956,-128.19C61.1084,-132.944 56.8285,-138.231 52.6817,-143.354"/>
<polygon fill="black" stroke="black" stroke-width="2" points="49.9272,-141.194 46.3562,-151.169 55.3682,-145.598 49.9272,-141.194"/>
</g>
<!-- 5&#45;&gt;4 -->
<g id="edge12" class="edge"><title>5&#45;&gt;4</title>
<path fill="none" stroke="black" stroke-width="2" d="M99.5999,-108.714C118.115,-106.155 145.202,-102.41 166.153,-99.5141"/>
<polygon fill="black" stroke="black" stroke-width="2" points="166.749,-102.965 176.176,-98.1286 165.791,-96.031 166.749,-102.965"/>
</g>
<!-- 6&#45;&gt;1 -->
<g id="edge5" class="edge"><title>6&#45;&gt;1</title>
<path fill="none" stroke="black" stroke-width="2" d="M141.77,-81.8076C154.473,-98.6459 173.958,-124.473 188.415,-143.635"/>
<polygon fill="black" stroke="black" stroke-width="2" points="185.648,-145.779 194.464,-151.654 191.236,-141.563 185.648,-145.779"/>
</g>
<!-- 6&#45;&gt;2 -->
<g id="edge8" class="edge"><title>6&#45;&gt;2</title>
<path fill="none" stroke="black" stroke-width="2" d="M145.99,-52.0367C151.128,-48.2937 156.875,-44.106 162.438,-40.0532"/>
<polygon fill="black" stroke="black" stroke-width="2" points="164.892,-42.5961 170.913,-33.8788 160.77,-36.9384 164.892,-42.5961"/>
</g>
<!-- 6&#45;&gt;4 -->
<g id="edge13" class="edge"><title>6&#45;&gt;4</title>
<path fill="none" stroke="black" stroke-width="2" d="M148.213,-73.277C154.376,-76.0344 161.332,-79.1462 168.026,-82.1411"/>
<polygon fill="black" stroke="black" stroke-width="2" points="166.967,-85.5014 177.524,-86.3903 169.825,-79.1117 166.967,-85.5014"/>
</g>
<!-- 6&#45;&gt;5 -->
<g id="edge15" class="edge"><title>6&#45;&gt;5</title>
<path fill="none" stroke="black" stroke-width="2" d="M113.092,-79.2163C109.427,-82.6372 105.447,-86.3522 101.533,-90.0061"/>
<polygon fill="black" stroke="black" stroke-width="2" points="99.1078,-87.4818 94.1857,-96.8639 103.884,-92.599 99.1078,-87.4818"/>
</g>
<!-- 7&#45;&gt;3 -->
<g id="edge11" class="edge"><title>7&#45;&gt;3</title>
<path fill="none" stroke="black" stroke-width="2" d="M118.204,-147.124C102.593,-150.904 80.935,-156.15 63.3497,-160.409"/>
<polygon fill="black" stroke="black" stroke-width="2" points="62.438,-157.029 53.5429,-162.784 64.0858,-163.832 62.438,-157.029"/>
</g>
<!-- 7&#45;&gt;5 -->
<g id="edge16" class="edge"><title>7&#45;&gt;5</title>
<path fill="none" stroke="black" stroke-width="2" d="M119.731,-132.476C115.535,-130.364 111.008,-128.087 106.541,-125.84"/>
<polygon fill="black" stroke="black" stroke-width="2" points="108.088,-122.7 97.5822,-121.333 104.942,-128.954 108.088,-122.7"/>
</g>
<!-- 7&#45;&gt;6 -->
<g id="edge17" class="edge"><title>7&#45;&gt;6</title>
<path fill="none" stroke="black" stroke-width="2" d="M136.125,-120.927C135.11,-113.149 133.939,-104.174 132.834,-95.7052"/>
<polygon fill="black" stroke="black" stroke-width="2" points="136.298,-95.204 131.534,-85.7409 129.357,-96.1097 136.298,-95.204"/>
</g>
</g>
</svg>

