<?xml version="1.0" encoding="UTF-8" standalone="no"?>
<!DOCTYPE svg PUBLIC "-//W3C//DTD SVG 1.1//EN"
 "http://www.w3.org/Graphics/SVG/1.1/DTD/svg11.dtd">
<!-- Generated by graphviz version 2.36.0 (20140111.2315)
 -->
<!-- Title: G Pages: 1 -->
<svg width="100%" height="100%"
 viewBox="0.00 0.00 287.49 219.76" xmlns="http://www.w3.org/2000/svg" xmlns:xlink="http://www.w3.org/1999/xlink">
<g id="graph0" class="graph" transform="scale(1 1) rotate(0) translate(4 215.762)">
<title>G</title>
<!-- 0 -->
<g id="node1" class="node"><title>0</title>
<ellipse fill="cadetblue" stroke="black" cx="21.2132" cy="-95.0423" rx="21.4286" ry="21.4286"/>
<text text-anchor="middle" x="21.2132" y="-90.0423" font-family="Times New Roman,serif" font-size="20.00">2</text>
</g>
<!-- 7 -->
<g id="node8" class="node"><title>7</title>
<ellipse fill="brown" stroke="black" cx="140.055" cy="-105.059" rx="21.4286" ry="21.4286"/>
<text text-anchor="middle" x="140.055" y="-100.059" font-family="Times New Roman,serif" font-size="20.00">3</text>
</g>
<!-- 0&#45;&gt;7 -->
<g id="edge3" class="edge"><title>0&#45;&gt;7</title>
<path fill="none" stroke="black" stroke-width="2" d="M42.4598,-96.833C60.8506,-98.3831 87.702,-100.646 108.587,-102.407"/>
<polygon fill="black" stroke="black" stroke-width="2" points="108.333,-105.898 118.592,-103.25 108.921,-98.9223 108.333,-105.898"/>
</g>
<!-- 1 -->
<g id="node2" class="node"><title>1</title>
<ellipse fill="cadetblue" stroke="black" cx="225.776" cy="-138.804" rx="21.4286" ry="21.4286"/>
<text text-anchor="middle" x="225.776" y="-133.804" font-family="Times New Roman,serif" font-size="20.00">2</text>
</g>
<!-- 6 -->
<g id="node7" class="node"><title>6</title>
<ellipse fill="cadetblue" stroke="black" cx="149.15" cy="-165.996" rx="21.4286" ry="21.4286"/>
<text text-anchor="middle" x="149.15" y="-160.996" font-family="Times New Roman,serif" font-size="20.00">2</text>
</g>
<!-- 1&#45;&gt;6 -->
<g id="edge6" class="edge"><title>1&#45;&gt;6</title>
<path fill="none" stroke="black" stroke-width="2" d="M205.644,-145.949C197.373,-148.884 187.63,-152.341 178.586,-155.551"/>
<polygon fill="black" stroke="black" stroke-width="2" points="177.402,-152.257 169.148,-158.9 179.743,-158.854 177.402,-152.257"/>
</g>
<!-- 1&#45;&gt;7 -->
<g id="edge7" class="edge"><title>1&#45;&gt;7</title>
<path fill="none" stroke="black" stroke-width="2" d="M205.895,-130.977C195.076,-126.718 181.483,-121.368 169.462,-116.635"/>
<polygon fill="black" stroke="black" stroke-width="2" points="170.416,-113.249 159.829,-112.843 167.852,-119.763 170.416,-113.249"/>
</g>
<!-- 2 -->
<g id="node3" class="node"><title>2</title>
<ellipse fill="cadetblue" stroke="black" cx="178.555" cy="-21.2132" rx="21.4286" ry="21.4286"/>
<text text-anchor="middle" x="178.555" y="-16.2132" font-family="Times New Roman,serif" font-size="20.00">2</text>
</g>
<!-- 4 -->
<g id="node5" class="node"><title>4</title>
<ellipse fill="cadetblue" stroke="black" cx="258.272" cy="-57.0916" rx="21.4286" ry="21.4286"/>
<text text-anchor="middle" x="258.272" y="-52.0916" font-family="Times New Roman,serif" font-size="20.00">2</text>
</g>
<!-- 2&#45;&gt;4 -->
<g id="edge8" class="edge"><title>2&#45;&gt;4</title>
<path fill="none" stroke="black" stroke-width="2" d="M198.26,-30.082C207.721,-34.3399 219.237,-39.5229 229.641,-44.2058"/>
<polygon fill="black" stroke="black" stroke-width="2" points="228.238,-47.4122 238.793,-48.3248 231.111,-41.0289 228.238,-47.4122"/>
</g>
<!-- 2&#45;&gt;7 -->
<g id="edge11" class="edge"><title>2&#45;&gt;7</title>
<path fill="none" stroke="black" stroke-width="2" d="M169.625,-40.6599C164.766,-51.2423 158.662,-64.5374 153.262,-76.2957"/>
<polygon fill="black" stroke="black" stroke-width="2" points="149.928,-75.1695 148.936,-85.7178 156.29,-78.0905 149.928,-75.1695"/>
</g>
<!-- 3 -->
<g id="node4" class="node"><title>3</title>
<ellipse fill="cadetblue" stroke="black" cx="57.9346" cy="-190.549" rx="21.4286" ry="21.4286"/>
<text text-anchor="middle" x="57.9346" y="-185.549" font-family="Times New Roman,serif" font-size="20.00">2</text>
</g>
<!-- 3&#45;&gt;0 -->
<g id="edge1" class="edge"><title>3&#45;&gt;0</title>
<path fill="none" stroke="black" stroke-width="2" d="M50.1469,-170.294C45.0494,-157.036 38.3026,-139.489 32.6063,-124.674"/>
<polygon fill="black" stroke="black" stroke-width="2" points="35.7194,-123.018 28.8637,-114.94 29.1857,-125.53 35.7194,-123.018"/>
</g>
<!-- 4&#45;&gt;1 -->
<g id="edge4" class="edge"><title>4&#45;&gt;1</title>
<path fill="none" stroke="black" stroke-width="2" d="M250.406,-76.8719C246.523,-86.6358 241.76,-98.6111 237.462,-109.42"/>
<polygon fill="black" stroke="black" stroke-width="2" points="234.126,-108.337 233.683,-118.923 240.631,-110.924 234.126,-108.337"/>
</g>
<!-- 5 -->
<g id="node6" class="node"><title>5</title>
<ellipse fill="cadetblue" stroke="black" cx="105.481" cy="-54.6275" rx="21.4286" ry="21.4286"/>
<text text-anchor="middle" x="105.481" y="-49.6275" font-family="Times New Roman,serif" font-size="20.00">2</text>
</g>
<!-- 5&#45;&gt;0 -->
<g id="edge2" class="edge"><title>5&#45;&gt;0</title>
<path fill="none" stroke="black" stroke-width="2" d="M85.9364,-64.001C75.1177,-69.1897 61.4778,-75.7314 49.5124,-81.47"/>
<polygon fill="black" stroke="black" stroke-width="2" points="47.8643,-78.3786 40.3612,-85.8589 50.8914,-84.6903 47.8643,-78.3786"/>
</g>
<!-- 5&#45;&gt;1 -->
<g id="edge5" class="edge"><title>5&#45;&gt;1</title>
<path fill="none" stroke="black" stroke-width="2" d="M124.041,-64.9871C134.417,-70.9641 147.474,-78.7952 158.656,-86.4598 173.214,-96.4384 188.798,-108.5 201.282,-118.528"/>
<polygon fill="black" stroke="black" stroke-width="2" points="199.408,-121.515 209.379,-125.096 203.817,-116.078 199.408,-121.515"/>
</g>
<!-- 5&#45;&gt;2 -->
<g id="edge9" class="edge"><title>5&#45;&gt;2</title>
<path fill="none" stroke="black" stroke-width="2" d="M125.063,-45.6731C132.742,-42.1617 141.705,-38.0633 150.075,-34.2362"/>
<polygon fill="black" stroke="black" stroke-width="2" points="151.533,-37.4181 159.172,-30.0765 148.622,-31.0521 151.533,-37.4181"/>
</g>
<!-- 6&#45;&gt;2 -->
<g id="edge10" class="edge"><title>6&#45;&gt;2</title>
<path fill="none" stroke="black" stroke-width="2" d="M155.64,-145.573C159.193,-133.819 163.451,-118.715 166.36,-105.06 170.019,-87.8764 172.919,-68.4758 174.971,-52.6673"/>
<polygon fill="black" stroke="black" stroke-width="2" points="178.49,-52.7245 176.255,-42.3683 171.544,-51.8584 178.49,-52.7245"/>
</g>
<!-- 6&#45;&gt;3 -->
<g id="edge12" class="edge"><title>6&#45;&gt;3</title>
<path fill="none" stroke="black" stroke-width="2" d="M128.452,-171.568C116.673,-174.738 101.696,-178.77 88.5771,-182.301"/>
<polygon fill="black" stroke="black" stroke-width="2" points="87.2975,-179.02 78.5509,-184.999 89.117,-185.78 87.2975,-179.02"/>
</g>
<!-- 6&#45;&gt;5 -->
<g id="edge15" class="edge"><title>6&#45;&gt;5</title>
<path fill="none" stroke="black" stroke-width="2" d="M136.114,-148.929C128.017,-137.259 118.311,-121.061 113.751,-105.058 112.037,-99.045 110.641,-92.5212 109.516,-86.2234"/>
<polygon fill="black" stroke="black" stroke-width="2" points="112.911,-85.2882 107.873,-75.968 105.999,-86.3959 112.911,-85.2882"/>
</g>
<!-- 7&#45;&gt;3 -->
<g id="edge13" class="edge"><title>7&#45;&gt;3</title>
<path fill="none" stroke="black" stroke-width="2" d="M124.993,-120.739C112.375,-133.874 94.1932,-152.802 79.9439,-167.636"/>
<polygon fill="black" stroke="black" stroke-width="2" points="77.3047,-165.331 72.9013,-174.968 82.353,-170.181 77.3047,-165.331"/>
</g>
<!-- 7&#45;&gt;4 -->
<g id="edge14" class="edge"><title>7&#45;&gt;4</title>
<path fill="none" stroke="black" stroke-width="2" d="M159.842,-97.0303C178.766,-89.3518 207.531,-77.6802 229.086,-68.9341"/>
<polygon fill="black" stroke="black" stroke-width="2" points="230.47,-72.1495 238.421,-65.1464 227.838,-65.6632 230.47,-72.1495"/>
</g>
<!-- 7&#45;&gt;5 -->
<g id="edge16" class="edge"><title>7&#45;&gt;5</title>
<path fill="none" stroke="black" stroke-width="2" d="M127.963,-87.4205C126.497,-85.2831 124.977,-83.0656 123.45,-80.8377"/>
<polygon fill="black" stroke="black" stroke-width="2" points="126.166,-78.6101 117.625,-72.3413 120.393,-82.5682 126.166,-78.6101"/>
</g>
<!-- 7&#45;&gt;6 -->
<g id="edge17" class="edge"><title>7&#45;&gt;6</title>
<path fill="none" stroke="black" stroke-width="2" d="M143.236,-126.372C143.659,-129.203 144.099,-132.151 144.54,-135.104"/>
<polygon fill="black" stroke="black" stroke-width="2" points="141.079,-135.63 146.017,-145.004 148.003,-134.597 141.079,-135.63"/>
</g>
</g>
</svg>

