<?xml version="1.0" encoding="UTF-8" standalone="no"?>
<!DOCTYPE svg PUBLIC "-//W3C//DTD SVG 1.1//EN"
 "http://www.w3.org/Graphics/SVG/1.1/DTD/svg11.dtd">
<!-- Generated by graphviz version 2.36.0 (20140111.2315)
 -->
<!-- Title: G Pages: 1 -->
<svg width="100%" height="100%"
 viewBox="0.00 0.00 208.79 217.29" xmlns="http://www.w3.org/2000/svg" xmlns:xlink="http://www.w3.org/1999/xlink">
<g id="graph0" class="graph" transform="scale(1 1) rotate(0) translate(4 213.291)">
<title>G</title>
<!-- 0 -->
<g id="node1" class="node"><title>0</title>
<ellipse fill="cadetblue" stroke="black" cx="116.816" cy="-188.078" rx="21.4286" ry="21.4286"/>
<text text-anchor="middle" x="116.816" y="-183.078" font-family="Times New Roman,serif" font-size="20.00">2</text>
</g>
<!-- 6 -->
<g id="node7" class="node"><title>6</title>
<ellipse fill="cadetblue" stroke="black" cx="179.581" cy="-98.7101" rx="21.4286" ry="21.4286"/>
<text text-anchor="middle" x="179.581" y="-93.7101" font-family="Times New Roman,serif" font-size="20.00">2</text>
</g>
<!-- 0&#45;&gt;6 -->
<g id="edge3" class="edge"><title>0&#45;&gt;6</title>
<path fill="none" stroke="black" stroke-width="2" d="M129.217,-170.422C138.415,-157.325 151.098,-139.266 161.435,-124.547"/>
<polygon fill="black" stroke="black" stroke-width="2" points="164.323,-126.525 167.206,-116.33 158.595,-122.502 164.323,-126.525"/>
</g>
<!-- 7 -->
<g id="node8" class="node"><title>7</title>
<ellipse fill="brown" stroke="black" cx="113.809" cy="-102.105" rx="21.4286" ry="21.4286"/>
<text text-anchor="middle" x="113.809" y="-97.1048" font-family="Times New Roman,serif" font-size="20.00">3</text>
</g>
<!-- 0&#45;&gt;7 -->
<g id="edge4" class="edge"><title>0&#45;&gt;7</title>
<path fill="none" stroke="black" stroke-width="2" d="M116.073,-166.826C115.722,-156.803 115.297,-144.64 114.91,-133.576"/>
<polygon fill="black" stroke="black" stroke-width="2" points="118.402,-133.282 114.554,-123.41 111.406,-133.526 118.402,-133.282"/>
</g>
<!-- 1 -->
<g id="node2" class="node"><title>1</title>
<ellipse fill="cadetblue" stroke="black" cx="21.2132" cy="-74.2074" rx="21.4286" ry="21.4286"/>
<text text-anchor="middle" x="21.2132" y="-69.2074" font-family="Times New Roman,serif" font-size="20.00">2</text>
</g>
<!-- 1&#45;&gt;7 -->
<g id="edge7" class="edge"><title>1&#45;&gt;7</title>
<path fill="none" stroke="black" stroke-width="2" d="M41.7631,-80.3987C53.9909,-84.0828 69.7321,-88.8253 83.3802,-92.9372"/>
<polygon fill="black" stroke="black" stroke-width="2" points="82.7315,-96.3972 93.3161,-95.9308 84.7509,-89.6947 82.7315,-96.3972"/>
</g>
<!-- 2 -->
<g id="node3" class="node"><title>2</title>
<ellipse fill="cadetblue" stroke="black" cx="167.228" cy="-21.2132" rx="21.4286" ry="21.4286"/>
<text text-anchor="middle" x="167.228" y="-16.2132" font-family="Times New Roman,serif" font-size="20.00">2</text>
</g>
<!-- 2&#45;&gt;7 -->
<g id="edge10" class="edge"><title>2&#45;&gt;7</title>
<path fill="none" stroke="black" stroke-width="2" d="M155.373,-39.1657C148.318,-49.8479 139.237,-63.5994 131.363,-75.5225"/>
<polygon fill="black" stroke="black" stroke-width="2" points="128.221,-73.9291 125.631,-84.2025 134.062,-77.7866 128.221,-73.9291"/>
</g>
<!-- 3 -->
<g id="node4" class="node"><title>3</title>
<ellipse fill="brown" stroke="black" cx="167.248" cy="-169.621" rx="21.4286" ry="21.4286"/>
<text text-anchor="middle" x="167.248" y="-164.621" font-family="Times New Roman,serif" font-size="20.00">3</text>
</g>
<!-- 3&#45;&gt;0 -->
<g id="edge1" class="edge"><title>3&#45;&gt;0</title>
<path fill="none" stroke="black" stroke-width="2" d="M147.316,-176.916C146.996,-177.033 146.675,-177.15 146.352,-177.268"/>
<polygon fill="black" stroke="black" stroke-width="2" points="145.122,-173.991 136.934,-180.715 147.528,-180.565 145.122,-173.991"/>
</g>
<!-- 4 -->
<g id="node5" class="node"><title>4</title>
<ellipse fill="cadetblue" stroke="black" cx="92.7065" cy="-43.4863" rx="21.4286" ry="21.4286"/>
<text text-anchor="middle" x="92.7065" y="-38.4863" font-family="Times New Roman,serif" font-size="20.00">2</text>
</g>
<!-- 4&#45;&gt;1 -->
<g id="edge5" class="edge"><title>4&#45;&gt;1</title>
<path fill="none" stroke="black" stroke-width="2" d="M73.1706,-51.881C65.9988,-54.9628 57.7226,-58.5191 49.9135,-61.8747"/>
<polygon fill="black" stroke="black" stroke-width="2" points="48.5313,-58.6591 40.7254,-65.8229 51.2949,-65.0905 48.5313,-58.6591"/>
</g>
<!-- 4&#45;&gt;2 -->
<g id="edge8" class="edge"><title>4&#45;&gt;2</title>
<path fill="none" stroke="black" stroke-width="2" d="M113.07,-37.4001C120.463,-35.1903 128.983,-32.644 137.044,-30.2348"/>
<polygon fill="black" stroke="black" stroke-width="2" points="138.311,-33.5092 146.89,-27.2921 136.306,-26.8023 138.311,-33.5092"/>
</g>
<!-- 5 -->
<g id="node6" class="node"><title>5</title>
<ellipse fill="cadetblue" stroke="black" cx="61.47" cy="-141.841" rx="21.4286" ry="21.4286"/>
<text text-anchor="middle" x="61.47" y="-136.841" font-family="Times New Roman,serif" font-size="20.00">2</text>
</g>
<!-- 4&#45;&gt;5 -->
<g id="edge14" class="edge"><title>4&#45;&gt;5</title>
<path fill="none" stroke="black" stroke-width="2" d="M86.2343,-63.8655C81.8366,-77.7124 75.9452,-96.2626 71.0121,-111.796"/>
<polygon fill="black" stroke="black" stroke-width="2" points="67.6251,-110.898 67.9339,-121.488 74.2967,-113.016 67.6251,-110.898"/>
</g>
<!-- 5&#45;&gt;0 -->
<g id="edge2" class="edge"><title>5&#45;&gt;0</title>
<path fill="none" stroke="black" stroke-width="2" d="M77.7764,-155.464C82.4637,-159.379 87.6776,-163.735 92.7293,-167.955"/>
<polygon fill="black" stroke="black" stroke-width="2" points="90.5169,-170.668 100.435,-174.393 95.0048,-165.296 90.5169,-170.668"/>
</g>
<!-- 5&#45;&gt;1 -->
<g id="edge6" class="edge"><title>5&#45;&gt;1</title>
<path fill="none" stroke="black" stroke-width="2" d="M50.4697,-123.36C46.4757,-116.65 41.8734,-108.918 37.519,-101.602"/>
<polygon fill="black" stroke="black" stroke-width="2" points="40.3226,-99.4691 32.2003,-92.6662 34.3075,-103.049 40.3226,-99.4691"/>
</g>
<!-- 5&#45;&gt;3 -->
<g id="edge11" class="edge"><title>5&#45;&gt;3</title>
<path fill="none" stroke="black" stroke-width="2" d="M82.1162,-147.263C97.6966,-151.355 119.314,-157.032 136.866,-161.642"/>
<polygon fill="black" stroke="black" stroke-width="2" points="136.093,-165.057 146.654,-164.212 137.871,-158.287 136.093,-165.057"/>
</g>
<!-- 6&#45;&gt;2 -->
<g id="edge9" class="edge"><title>6&#45;&gt;2</title>
<path fill="none" stroke="black" stroke-width="2" d="M176.205,-77.5338C174.966,-69.7597 173.536,-60.7884 172.187,-52.3236"/>
<polygon fill="black" stroke="black" stroke-width="2" points="175.63,-51.6884 170.6,-42.364 168.717,-52.7903 175.63,-51.6884"/>
</g>
<!-- 6&#45;&gt;3 -->
<g id="edge12" class="edge"><title>6&#45;&gt;3</title>
<path fill="none" stroke="black" stroke-width="2" d="M175.88,-119.986C174.88,-125.735 173.777,-132.08 172.702,-138.258"/>
<polygon fill="black" stroke="black" stroke-width="2" points="169.211,-137.908 170.945,-148.36 176.107,-139.108 169.211,-137.908"/>
</g>
<!-- 6&#45;&gt;4 -->
<g id="edge15" class="edge"><title>6&#45;&gt;4</title>
<path fill="none" stroke="black" stroke-width="2" d="M161.58,-87.2677C149.35,-79.493 132.965,-69.0775 119.245,-60.356"/>
<polygon fill="black" stroke="black" stroke-width="2" points="121.001,-57.325 110.684,-54.9141 117.245,-63.2325 121.001,-57.325"/>
</g>
<!-- 7&#45;&gt;3 -->
<g id="edge13" class="edge"><title>7&#45;&gt;3</title>
<path fill="none" stroke="black" stroke-width="2" d="M127.018,-118.794C133.202,-126.606 140.695,-136.074 147.531,-144.71"/>
<polygon fill="black" stroke="black" stroke-width="2" points="144.868,-146.986 153.819,-152.654 150.357,-142.641 144.868,-146.986"/>
</g>
<!-- 7&#45;&gt;4 -->
<g id="edge16" class="edge"><title>7&#45;&gt;4</title>
<path fill="none" stroke="black" stroke-width="2" d="M106.546,-81.9316C105.507,-79.0442 104.42,-76.0253 103.332,-73.0035"/>
<polygon fill="black" stroke="black" stroke-width="2" points="106.591,-71.7215 99.9105,-63.4981 100.005,-74.0925 106.591,-71.7215"/>
</g>
<!-- 7&#45;&gt;5 -->
<g id="edge17" class="edge"><title>7&#45;&gt;5</title>
<path fill="none" stroke="black" stroke-width="2" d="M96.671,-115.116C93.4754,-117.542 90.0751,-120.124 86.6957,-122.689"/>
<polygon fill="black" stroke="black" stroke-width="2" points="84.3156,-120.102 78.4674,-128.936 88.5484,-125.677 84.3156,-120.102"/>
</g>
<!-- 7&#45;&gt;6 -->
<g id="edge18" class="edge"><title>7&#45;&gt;6</title>
<path fill="none" stroke="black" stroke-width="2" d="M135.345,-100.993C139.361,-100.786 143.634,-100.565 147.88,-100.346"/>
<polygon fill="black" stroke="black" stroke-width="2" points="148.414,-103.823 158.221,-99.8126 148.053,-96.8328 148.414,-103.823"/>
</g>
</g>
</svg>

