<?xml version="1.0" encoding="UTF-8" standalone="no"?>
<!DOCTYPE svg PUBLIC "-//W3C//DTD SVG 1.1//EN"
 "http://www.w3.org/Graphics/SVG/1.1/DTD/svg11.dtd">
<!-- Generated by graphviz version 2.36.0 (20140111.2315)
 -->
<!-- Title: G Pages: 1 -->
<svg width="100%" height="100%"
 viewBox="0.00 0.00 301.21 260.05" xmlns="http://www.w3.org/2000/svg" xmlns:xlink="http://www.w3.org/1999/xlink">
<g id="graph0" class="graph" transform="scale(1 1) rotate(0) translate(4 256.048)">
<title>G</title>
<!-- 0 -->
<g id="node1" class="node"><title>0</title>
<ellipse fill="cadetblue" stroke="black" cx="21.2132" cy="-114.76" rx="21.4286" ry="21.4286"/>
<text text-anchor="middle" x="21.2132" y="-109.76" font-family="Times New Roman,serif" font-size="20.00">2</text>
</g>
<!-- 6 -->
<g id="node7" class="node"><title>6</title>
<ellipse fill="cadetblue" stroke="black" cx="164.316" cy="-140.088" rx="21.4286" ry="21.4286"/>
<text text-anchor="middle" x="164.316" y="-135.088" font-family="Times New Roman,serif" font-size="20.00">2</text>
</g>
<!-- 0&#45;&gt;6 -->
<g id="edge3" class="edge"><title>0&#45;&gt;6</title>
<path fill="none" stroke="black" stroke-width="2" d="M42.3285,-118.497C66.3196,-122.743 105.703,-129.714 133.21,-134.583"/>
<polygon fill="black" stroke="black" stroke-width="2" points="132.657,-138.039 143.114,-136.336 133.877,-131.146 132.657,-138.039"/>
</g>
<!-- 7 -->
<g id="node8" class="node"><title>7</title>
<ellipse fill="cadetblue" stroke="black" cx="113.885" cy="-99.1561" rx="21.4286" ry="21.4286"/>
<text text-anchor="middle" x="113.885" y="-94.1561" font-family="Times New Roman,serif" font-size="20.00">2</text>
</g>
<!-- 0&#45;&gt;7 -->
<g id="edge4" class="edge"><title>0&#45;&gt;7</title>
<path fill="none" stroke="black" stroke-width="2" d="M42.2418,-111.219C54.2089,-109.204 69.4248,-106.642 82.7531,-104.398"/>
<polygon fill="black" stroke="black" stroke-width="2" points="83.6593,-107.795 92.9394,-102.683 82.497,-100.892 83.6593,-107.795"/>
</g>
<!-- 1 -->
<g id="node2" class="node"><title>1</title>
<ellipse fill="cadetblue" stroke="black" cx="238.135" cy="-230.834" rx="21.4286" ry="21.4286"/>
<text text-anchor="middle" x="238.135" y="-225.834" font-family="Times New Roman,serif" font-size="20.00">2</text>
</g>
<!-- 1&#45;&gt;7 -->
<g id="edge7" class="edge"><title>1&#45;&gt;7</title>
<path fill="none" stroke="black" stroke-width="2" d="M219.595,-219.705C199.471,-206.923 167.321,-184.373 145.694,-158.666 138.015,-149.538 131.412,-138.256 126.244,-127.978"/>
<polygon fill="black" stroke="black" stroke-width="2" points="129.381,-126.425 121.911,-118.911 123.065,-129.443 129.381,-126.425"/>
</g>
<!-- 2 -->
<g id="node3" class="node"><title>2</title>
<ellipse fill="cadetblue" stroke="black" cx="218.17" cy="-21.2132" rx="21.4286" ry="21.4286"/>
<text text-anchor="middle" x="218.17" y="-16.2132" font-family="Times New Roman,serif" font-size="20.00">2</text>
</g>
<!-- 4 -->
<g id="node5" class="node"><title>4</title>
<ellipse fill="cadetblue" stroke="black" cx="271.997" cy="-138.288" rx="21.4286" ry="21.4286"/>
<text text-anchor="middle" x="271.997" y="-133.288" font-family="Times New Roman,serif" font-size="20.00">2</text>
</g>
<!-- 2&#45;&gt;4 -->
<g id="edge8" class="edge"><title>2&#45;&gt;4</title>
<path fill="none" stroke="black" stroke-width="2" d="M227.058,-40.5458C235.707,-59.3569 248.952,-88.1646 258.825,-109.639"/>
<polygon fill="black" stroke="black" stroke-width="2" points="255.738,-111.303 263.095,-118.927 262.098,-108.379 255.738,-111.303"/>
</g>
<!-- 3 -->
<g id="node4" class="node"><title>3</title>
<ellipse fill="brown" stroke="black" cx="30.3312" cy="-207.368" rx="21.4286" ry="21.4286"/>
<text text-anchor="middle" x="30.3312" y="-202.368" font-family="Times New Roman,serif" font-size="20.00">3</text>
</g>
<!-- 3&#45;&gt;0 -->
<g id="edge1" class="edge"><title>3&#45;&gt;0</title>
<path fill="none" stroke="black" stroke-width="2" d="M28.2164,-185.889C27.0541,-174.084 25.5909,-159.222 24.3028,-146.14"/>
<polygon fill="black" stroke="black" stroke-width="2" points="27.7796,-145.731 23.3165,-136.122 20.8133,-146.417 27.7796,-145.731"/>
</g>
<!-- 4&#45;&gt;1 -->
<g id="edge5" class="edge"><title>4&#45;&gt;1</title>
<path fill="none" stroke="black" stroke-width="2" d="M264.649,-158.369C260.079,-170.861 254.119,-187.149 249.008,-201.118"/>
<polygon fill="black" stroke="black" stroke-width="2" points="245.617,-200.199 245.468,-210.792 252.191,-202.604 245.617,-200.199"/>
</g>
<!-- 5 -->
<g id="node6" class="node"><title>5</title>
<ellipse fill="cadetblue" stroke="black" cx="123.446" cy="-222.938" rx="21.4286" ry="21.4286"/>
<text text-anchor="middle" x="123.446" y="-217.938" font-family="Times New Roman,serif" font-size="20.00">2</text>
</g>
<!-- 4&#45;&gt;5 -->
<g id="edge14" class="edge"><title>4&#45;&gt;5</title>
<path fill="none" stroke="black" stroke-width="2" d="M253.483,-148.838C227.797,-163.475 181.143,-190.06 151.259,-207.089"/>
<polygon fill="black" stroke="black" stroke-width="2" points="149.149,-204.263 142.193,-212.255 152.615,-210.345 149.149,-204.263"/>
</g>
<!-- 5&#45;&gt;0 -->
<g id="edge2" class="edge"><title>5&#45;&gt;0</title>
<path fill="none" stroke="black" stroke-width="2" d="M108.799,-207.438C91.5659,-189.203 62.7941,-158.758 42.9564,-137.767"/>
<polygon fill="black" stroke="black" stroke-width="2" points="45.2459,-135.094 35.8336,-130.23 40.1583,-139.902 45.2459,-135.094"/>
</g>
<!-- 5&#45;&gt;3 -->
<g id="edge11" class="edge"><title>5&#45;&gt;3</title>
<path fill="none" stroke="black" stroke-width="2" d="M102.317,-219.404C90.2927,-217.394 75.004,-214.837 61.6119,-212.598"/>
<polygon fill="black" stroke="black" stroke-width="2" points="61.8172,-209.084 51.3769,-210.887 60.6627,-215.988 61.8172,-209.084"/>
</g>
<!-- 6&#45;&gt;1 -->
<g id="edge6" class="edge"><title>6&#45;&gt;1</title>
<path fill="none" stroke="black" stroke-width="2" d="M177.856,-156.733C189.198,-170.676 205.542,-190.767 218.351,-206.513"/>
<polygon fill="black" stroke="black" stroke-width="2" points="215.656,-208.747 224.681,-214.296 221.086,-204.33 215.656,-208.747"/>
</g>
<!-- 6&#45;&gt;2 -->
<g id="edge9" class="edge"><title>6&#45;&gt;2</title>
<path fill="none" stroke="black" stroke-width="2" d="M173.089,-120.724C181.812,-101.468 195.294,-71.7087 205.243,-49.747"/>
<polygon fill="black" stroke="black" stroke-width="2" points="208.463,-51.122 209.401,-40.5688 202.087,-48.2334 208.463,-51.122"/>
</g>
<!-- 6&#45;&gt;3 -->
<g id="edge12" class="edge"><title>6&#45;&gt;3</title>
<path fill="none" stroke="black" stroke-width="2" d="M145.119,-149.728C122.435,-161.119 84.4939,-180.17 58.4846,-193.231"/>
<polygon fill="black" stroke="black" stroke-width="2" points="56.8584,-190.131 49.4924,-197.746 59.9996,-196.386 56.8584,-190.131"/>
</g>
<!-- 6&#45;&gt;4 -->
<g id="edge15" class="edge"><title>6&#45;&gt;4</title>
<path fill="none" stroke="black" stroke-width="2" d="M185.59,-139.733C201.224,-139.471 222.724,-139.112 240.367,-138.817"/>
<polygon fill="black" stroke="black" stroke-width="2" points="240.827,-142.31 250.767,-138.643 240.709,-135.311 240.827,-142.31"/>
</g>
<!-- 7&#45;&gt;2 -->
<g id="edge10" class="edge"><title>7&#45;&gt;2</title>
<path fill="none" stroke="black" stroke-width="2" d="M131.105,-86.2855C147.937,-73.7055 173.754,-54.4102 192.908,-40.0937"/>
<polygon fill="black" stroke="black" stroke-width="2" points="195.009,-42.8932 200.924,-34.103 190.819,-37.2862 195.009,-42.8932"/>
</g>
<!-- 7&#45;&gt;3 -->
<g id="edge13" class="edge"><title>7&#45;&gt;3</title>
<path fill="none" stroke="black" stroke-width="2" d="M100.83,-116.064C87.1141,-133.827 65.3937,-161.958 49.6846,-182.303"/>
<polygon fill="black" stroke="black" stroke-width="2" points="46.9118,-180.167 43.5705,-190.221 52.4524,-184.445 46.9118,-180.167"/>
</g>
<!-- 7&#45;&gt;5 -->
<g id="edge16" class="edge"><title>7&#45;&gt;5</title>
<path fill="none" stroke="black" stroke-width="2" d="M115.528,-120.435C117.04,-140.007 119.302,-169.282 121.021,-191.541"/>
<polygon fill="black" stroke="black" stroke-width="2" points="117.532,-191.821 121.792,-201.522 124.511,-191.282 117.532,-191.821"/>
</g>
<!-- 7&#45;&gt;6 -->
<g id="edge17" class="edge"><title>7&#45;&gt;6</title>
<path fill="none" stroke="black" stroke-width="2" d="M130.398,-112.559C133.414,-115.007 136.62,-117.609 139.81,-120.198"/>
<polygon fill="black" stroke="black" stroke-width="2" points="137.623,-122.931 147.593,-126.515 142.035,-117.496 137.623,-122.931"/>
</g>
</g>
</svg>

