<?xml version="1.0" encoding="UTF-8" standalone="no"?>
<!DOCTYPE svg PUBLIC "-//W3C//DTD SVG 1.1//EN"
 "http://www.w3.org/Graphics/SVG/1.1/DTD/svg11.dtd">
<!-- Generated by graphviz version 2.36.0 (20140111.2315)
 -->
<!-- Title: G Pages: 1 -->
<svg width="100%" height="100%"
 viewBox="0.00 0.00 388.32 382.27" xmlns="http://www.w3.org/2000/svg" xmlns:xlink="http://www.w3.org/1999/xlink">
<g id="graph0" class="graph" transform="scale(1 1) rotate(0) translate(4 378.271)">
<title>G</title>
<!-- 0 -->
<g id="node1" class="node"><title>0</title>
<ellipse fill="cadetblue" stroke="black" cx="21.2132" cy="-168.937" rx="21.4286" ry="21.4286"/>
<text text-anchor="middle" x="21.2132" y="-163.937" font-family="Times New Roman,serif" font-size="20.00">2</text>
</g>
<!-- 7 -->
<g id="node8" class="node"><title>7</title>
<ellipse fill="cadetblue" stroke="black" cx="173.035" cy="-116.119" rx="21.4286" ry="21.4286"/>
<text text-anchor="middle" x="173.035" y="-111.119" font-family="Times New Roman,serif" font-size="20.00">2</text>
</g>
<!-- 0&#45;&gt;7 -->
<g id="edge3" class="edge"><title>0&#45;&gt;7</title>
<path fill="none" stroke="black" stroke-width="2" d="M41.374,-161.923C67.4629,-152.847 113.131,-136.959 143.231,-126.487"/>
<polygon fill="black" stroke="black" stroke-width="2" points="144.496,-129.753 152.791,-123.161 142.196,-123.142 144.496,-129.753"/>
</g>
<!-- 1 -->
<g id="node2" class="node"><title>1</title>
<ellipse fill="cadetblue" stroke="black" cx="359.111" cy="-209.266" rx="21.4286" ry="21.4286"/>
<text text-anchor="middle" x="359.111" y="-204.266" font-family="Times New Roman,serif" font-size="20.00">2</text>
</g>
<!-- 6 -->
<g id="node7" class="node"><title>6</title>
<ellipse fill="cadetblue" stroke="black" cx="278.557" cy="-353.058" rx="21.4286" ry="21.4286"/>
<text text-anchor="middle" x="278.557" y="-348.058" font-family="Times New Roman,serif" font-size="20.00">2</text>
</g>
<!-- 1&#45;&gt;6 -->
<g id="edge6" class="edge"><title>1&#45;&gt;6</title>
<path fill="none" stroke="black" stroke-width="2" d="M348.58,-228.064C334.71,-252.823 310.206,-296.563 294.175,-325.179"/>
<polygon fill="black" stroke="black" stroke-width="2" points="290.925,-323.82 289.091,-334.255 297.032,-327.241 290.925,-323.82"/>
</g>
<!-- 1&#45;&gt;7 -->
<g id="edge7" class="edge"><title>1&#45;&gt;7</title>
<path fill="none" stroke="black" stroke-width="2" d="M339.656,-200.047C326.444,-193.749 308.596,-185.171 292.951,-177.407 261.335,-161.718 225.307,-143.22 201.065,-130.682"/>
<polygon fill="black" stroke="black" stroke-width="2" points="202.561,-127.515 192.072,-126.024 199.342,-133.731 202.561,-127.515"/>
</g>
<!-- 2 -->
<g id="node3" class="node"><title>2</title>
<ellipse fill="cadetblue" stroke="black" cx="311.578" cy="-158.835" rx="21.4286" ry="21.4286"/>
<text text-anchor="middle" x="311.578" y="-153.835" font-family="Times New Roman,serif" font-size="20.00">2</text>
</g>
<!-- 4 -->
<g id="node5" class="node"><title>4</title>
<ellipse fill="cadetblue" stroke="black" cx="321.806" cy="-21.2132" rx="21.4286" ry="21.4286"/>
<text text-anchor="middle" x="321.806" y="-16.2132" font-family="Times New Roman,serif" font-size="20.00">2</text>
</g>
<!-- 2&#45;&gt;4 -->
<g id="edge8" class="edge"><title>2&#45;&gt;4</title>
<path fill="none" stroke="black" stroke-width="2" d="M313.154,-137.633C314.838,-114.969 317.527,-78.7907 319.46,-52.7772"/>
<polygon fill="black" stroke="black" stroke-width="2" points="322.961,-52.8977 320.212,-42.6658 315.98,-52.3789 322.961,-52.8977"/>
</g>
<!-- 2&#45;&gt;6 -->
<g id="edge10" class="edge"><title>2&#45;&gt;6</title>
<path fill="none" stroke="black" stroke-width="2" d="M307.982,-179.99C302.151,-214.285 290.607,-282.183 283.841,-321.978"/>
<polygon fill="black" stroke="black" stroke-width="2" points="280.375,-321.483 282.15,-331.929 287.276,-322.657 280.375,-321.483"/>
</g>
<!-- 3 -->
<g id="node4" class="node"><title>3</title>
<ellipse fill="cadetblue" stroke="black" cx="84.067" cy="-312.017" rx="21.4286" ry="21.4286"/>
<text text-anchor="middle" x="84.067" y="-307.017" font-family="Times New Roman,serif" font-size="20.00">2</text>
</g>
<!-- 3&#45;&gt;0 -->
<g id="edge1" class="edge"><title>3&#45;&gt;0</title>
<path fill="none" stroke="black" stroke-width="2" d="M75.4593,-292.422C64.7525,-268.049 46.379,-226.224 34.0178,-198.085"/>
<polygon fill="black" stroke="black" stroke-width="2" points="37.1452,-196.502 29.9187,-188.754 30.7363,-199.317 37.1452,-196.502"/>
</g>
<!-- 4&#45;&gt;1 -->
<g id="edge4" class="edge"><title>4&#45;&gt;1</title>
<path fill="none" stroke="black" stroke-width="2" d="M325.941,-42.0567C332.495,-75.0979 345.309,-139.692 352.949,-178.206"/>
<polygon fill="black" stroke="black" stroke-width="2" points="349.578,-179.202 354.957,-188.329 356.445,-177.839 349.578,-179.202"/>
</g>
<!-- 5 -->
<g id="node6" class="node"><title>5</title>
<ellipse fill="cadetblue" stroke="black" cx="189.422" cy="-246.368" rx="21.4286" ry="21.4286"/>
<text text-anchor="middle" x="189.422" y="-241.368" font-family="Times New Roman,serif" font-size="20.00">2</text>
</g>
<!-- 5&#45;&gt;0 -->
<g id="edge2" class="edge"><title>5&#45;&gt;0</title>
<path fill="none" stroke="black" stroke-width="2" d="M170.127,-237.485C140.673,-223.927 84.3141,-197.984 50.0094,-182.193"/>
<polygon fill="black" stroke="black" stroke-width="2" points="51.0896,-178.837 40.5423,-177.835 48.1625,-185.195 51.0896,-178.837"/>
</g>
<!-- 5&#45;&gt;1 -->
<g id="edge5" class="edge"><title>5&#45;&gt;1</title>
<path fill="none" stroke="black" stroke-width="2" d="M210.23,-241.818C239.744,-235.365 293.976,-223.508 328.203,-216.024"/>
<polygon fill="black" stroke="black" stroke-width="2" points="329.112,-219.408 338.133,-213.853 327.617,-212.57 329.112,-219.408"/>
</g>
<!-- 5&#45;&gt;2 -->
<g id="edge9" class="edge"><title>5&#45;&gt;2</title>
<path fill="none" stroke="black" stroke-width="2" d="M206.924,-233.826C227.606,-219.006 262.197,-194.22 285.911,-177.228"/>
<polygon fill="black" stroke="black" stroke-width="2" points="288.019,-180.023 294.109,-171.353 283.942,-174.333 288.019,-180.023"/>
</g>
<!-- 6&#45;&gt;3 -->
<g id="edge12" class="edge"><title>6&#45;&gt;3</title>
<path fill="none" stroke="black" stroke-width="2" d="M257.743,-348.665C223.47,-341.433 154.98,-326.981 115.012,-318.547"/>
<polygon fill="black" stroke="black" stroke-width="2" points="115.532,-315.08 105.025,-316.439 114.087,-321.929 115.532,-315.08"/>
</g>
<!-- 6&#45;&gt;5 -->
<g id="edge15" class="edge"><title>6&#45;&gt;5</title>
<path fill="none" stroke="black" stroke-width="2" d="M264.63,-336.387C249.912,-318.771 226.554,-290.813 209.774,-270.727"/>
<polygon fill="black" stroke="black" stroke-width="2" points="212.349,-268.351 203.252,-262.921 206.977,-272.839 212.349,-268.351"/>
</g>
<!-- 7&#45;&gt;2 -->
<g id="edge11" class="edge"><title>7&#45;&gt;2</title>
<path fill="none" stroke="black" stroke-width="2" d="M193.478,-122.421C216.704,-129.583 254.833,-141.339 281.463,-149.55"/>
<polygon fill="black" stroke="black" stroke-width="2" points="280.465,-152.904 291.052,-152.506 282.527,-146.215 280.465,-152.904"/>
</g>
<!-- 7&#45;&gt;3 -->
<g id="edge13" class="edge"><title>7&#45;&gt;3</title>
<path fill="none" stroke="black" stroke-width="2" d="M164.18,-135.618C148.425,-170.308 115.465,-242.883 97.1112,-283.295"/>
<polygon fill="black" stroke="black" stroke-width="2" points="93.8355,-282.044 92.8871,-292.596 100.209,-284.938 93.8355,-282.044"/>
</g>
<!-- 7&#45;&gt;4 -->
<g id="edge14" class="edge"><title>7&#45;&gt;4</title>
<path fill="none" stroke="black" stroke-width="2" d="M190.981,-104.671C216.894,-88.1396 264.977,-57.466 295.077,-38.2641"/>
<polygon fill="black" stroke="black" stroke-width="2" points="297.249,-41.0305 303.797,-32.7016 293.484,-35.1291 297.249,-41.0305"/>
</g>
<!-- 7&#45;&gt;5 -->
<g id="edge16" class="edge"><title>7&#45;&gt;5</title>
<path fill="none" stroke="black" stroke-width="2" d="M175.705,-137.335C178.359,-158.434 182.462,-191.041 185.489,-215.104"/>
<polygon fill="black" stroke="black" stroke-width="2" points="182.033,-215.675 186.754,-225.16 188.978,-214.801 182.033,-215.675"/>
</g>
</g>
</svg>

