<?xml version="1.0" encoding="UTF-8" standalone="no"?>
<!DOCTYPE svg PUBLIC "-//W3C//DTD SVG 1.1//EN"
 "http://www.w3.org/Graphics/SVG/1.1/DTD/svg11.dtd">
<!-- Generated by graphviz version 2.36.0 (20140111.2315)
 -->
<!-- Title: G Pages: 1 -->
<svg width="100%" height="100%"
 viewBox="0.00 0.00 290.24 185.43" xmlns="http://www.w3.org/2000/svg" xmlns:xlink="http://www.w3.org/1999/xlink">
<g id="graph0" class="graph" transform="scale(1 1) rotate(0) translate(4 181.427)">
<title>G</title>
<!-- 0 -->
<g id="node1" class="node"><title>0</title>
<ellipse fill="cadetblue" stroke="black" cx="66.0949" cy="-47.3047" rx="21.4286" ry="21.4286"/>
<text text-anchor="middle" x="66.0949" y="-42.3047" font-family="Times New Roman,serif" font-size="20.00">2</text>
</g>
<!-- 6 -->
<g id="node7" class="node"><title>6</title>
<ellipse fill="cadetblue" stroke="black" cx="104.767" cy="-139.803" rx="21.4286" ry="21.4286"/>
<text text-anchor="middle" x="104.767" y="-134.803" font-family="Times New Roman,serif" font-size="20.00">2</text>
</g>
<!-- 0&#45;&gt;6 -->
<g id="edge3" class="edge"><title>0&#45;&gt;6</title>
<path fill="none" stroke="black" stroke-width="2" d="M74.2961,-66.9213C79.6284,-79.6754 86.6743,-96.5285 92.6475,-110.816"/>
<polygon fill="black" stroke="black" stroke-width="2" points="89.4907,-112.339 96.5771,-120.215 95.949,-109.639 89.4907,-112.339"/>
</g>
<!-- 1 -->
<g id="node2" class="node"><title>1</title>
<ellipse fill="cadetblue" stroke="black" cx="195.719" cy="-156.214" rx="21.4286" ry="21.4286"/>
<text text-anchor="middle" x="195.719" y="-151.214" font-family="Times New Roman,serif" font-size="20.00">2</text>
</g>
<!-- 1&#45;&gt;6 -->
<g id="edge6" class="edge"><title>1&#45;&gt;6</title>
<path fill="none" stroke="black" stroke-width="2" d="M174.624,-152.407C163.145,-150.336 148.723,-147.734 135.968,-145.433"/>
<polygon fill="black" stroke="black" stroke-width="2" points="136.21,-141.92 125.747,-143.589 134.967,-148.809 136.21,-141.92"/>
</g>
<!-- 7 -->
<g id="node8" class="node"><title>7</title>
<ellipse fill="cadetblue" stroke="black" cx="116.526" cy="-88.8377" rx="21.4286" ry="21.4286"/>
<text text-anchor="middle" x="116.526" y="-83.8377" font-family="Times New Roman,serif" font-size="20.00">2</text>
</g>
<!-- 1&#45;&gt;7 -->
<g id="edge7" class="edge"><title>1&#45;&gt;7</title>
<path fill="none" stroke="black" stroke-width="2" d="M179.31,-142.253C168.161,-132.768 153.225,-120.06 140.718,-109.419"/>
<polygon fill="black" stroke="black" stroke-width="2" points="142.799,-106.594 132.914,-102.78 138.263,-111.926 142.799,-106.594"/>
</g>
<!-- 2 -->
<g id="node3" class="node"><title>2</title>
<ellipse fill="cadetblue" stroke="black" cx="171.595" cy="-21.2132" rx="21.4286" ry="21.4286"/>
<text text-anchor="middle" x="171.595" y="-16.2132" font-family="Times New Roman,serif" font-size="20.00">2</text>
</g>
<!-- 4 -->
<g id="node5" class="node"><title>4</title>
<ellipse fill="cadetblue" stroke="black" cx="261.029" cy="-76.1646" rx="21.4286" ry="21.4286"/>
<text text-anchor="middle" x="261.029" y="-71.1646" font-family="Times New Roman,serif" font-size="20.00">2</text>
</g>
<!-- 2&#45;&gt;4 -->
<g id="edge8" class="edge"><title>2&#45;&gt;4</title>
<path fill="none" stroke="black" stroke-width="2" d="M189.693,-32.3334C202.338,-40.1027 219.447,-50.6152 233.74,-59.3973"/>
<polygon fill="black" stroke="black" stroke-width="2" points="232.298,-62.6193 242.651,-64.8723 235.963,-56.6551 232.298,-62.6193"/>
</g>
<!-- 5 -->
<g id="node6" class="node"><title>5</title>
<ellipse fill="cadetblue" stroke="black" cx="184.16" cy="-76.0855" rx="21.4286" ry="21.4286"/>
<text text-anchor="middle" x="184.16" y="-71.0855" font-family="Times New Roman,serif" font-size="20.00">2</text>
</g>
<!-- 2&#45;&gt;5 -->
<g id="edge9" class="edge"><title>2&#45;&gt;5</title>
<path fill="none" stroke="black" stroke-width="2" d="M176.345,-41.9581C176.595,-43.0506 176.849,-44.1583 177.104,-45.2735"/>
<polygon fill="black" stroke="black" stroke-width="2" points="173.759,-46.3449 179.403,-55.3113 180.582,-44.7823 173.759,-46.3449"/>
</g>
<!-- 3 -->
<g id="node4" class="node"><title>3</title>
<ellipse fill="cadetblue" stroke="black" cx="21.2132" cy="-120.965" rx="21.4286" ry="21.4286"/>
<text text-anchor="middle" x="21.2132" y="-115.965" font-family="Times New Roman,serif" font-size="20.00">2</text>
</g>
<!-- 3&#45;&gt;0 -->
<g id="edge1" class="edge"><title>3&#45;&gt;0</title>
<path fill="none" stroke="black" stroke-width="2" d="M32.3076,-102.757C37.5402,-94.1687 43.8898,-83.7477 49.6658,-74.2682"/>
<polygon fill="black" stroke="black" stroke-width="2" points="52.7582,-75.9195 54.9726,-65.5586 46.7804,-72.2771 52.7582,-75.9195"/>
</g>
<!-- 4&#45;&gt;1 -->
<g id="edge4" class="edge"><title>4&#45;&gt;1</title>
<path fill="none" stroke="black" stroke-width="2" d="M247.497,-92.7508C238.302,-104.021 225.984,-119.118 215.67,-131.76"/>
<polygon fill="black" stroke="black" stroke-width="2" points="212.844,-129.688 209.234,-139.649 218.268,-134.113 212.844,-129.688"/>
</g>
<!-- 5&#45;&gt;0 -->
<g id="edge2" class="edge"><title>5&#45;&gt;0</title>
<path fill="none" stroke="black" stroke-width="2" d="M163.324,-71.0063C144.778,-66.4853 117.417,-59.8155 96.4405,-54.7021"/>
<polygon fill="black" stroke="black" stroke-width="2" points="97.2669,-51.3011 86.7225,-52.3331 95.609,-58.1019 97.2669,-51.3011"/>
</g>
<!-- 5&#45;&gt;1 -->
<g id="edge5" class="edge"><title>5&#45;&gt;1</title>
<path fill="none" stroke="black" stroke-width="2" d="M187.197,-97.1382C188.422,-105.628 189.86,-115.6 191.203,-124.909"/>
<polygon fill="black" stroke="black" stroke-width="2" points="187.77,-125.625 192.662,-135.023 194.698,-124.626 187.77,-125.625"/>
</g>
<!-- 5&#45;&gt;4 -->
<g id="edge14" class="edge"><title>5&#45;&gt;4</title>
<path fill="none" stroke="black" stroke-width="2" d="M205.572,-76.1075C212.985,-76.1152 221.457,-76.1239 229.511,-76.1322"/>
<polygon fill="black" stroke="black" stroke-width="2" points="229.728,-79.6323 239.732,-76.1427 229.735,-72.6323 229.728,-79.6323"/>
</g>
<!-- 6&#45;&gt;2 -->
<g id="edge10" class="edge"><title>6&#45;&gt;2</title>
<path fill="none" stroke="black" stroke-width="2" d="M120.48,-125.268C125.594,-119.993 131.008,-113.767 135.125,-107.439 146.462,-90.0135 155.574,-68.4776 161.854,-51.2877"/>
<polygon fill="black" stroke="black" stroke-width="2" points="165.198,-52.3275 165.22,-41.7327 158.596,-50.0016 165.198,-52.3275"/>
</g>
<!-- 6&#45;&gt;3 -->
<g id="edge12" class="edge"><title>6&#45;&gt;3</title>
<path fill="none" stroke="black" stroke-width="2" d="M83.6825,-135.05C74.1105,-132.891 62.5994,-130.296 52.0806,-127.924"/>
<polygon fill="black" stroke="black" stroke-width="2" points="52.526,-124.437 42.0011,-125.652 50.9863,-131.266 52.526,-124.437"/>
</g>
<!-- 6&#45;&gt;7 -->
<g id="edge16" class="edge"><title>6&#45;&gt;7</title>
<path fill="none" stroke="black" stroke-width="2" d="M109.55,-119.074C109.572,-118.977 109.594,-118.881 109.617,-118.784"/>
<polygon fill="black" stroke="black" stroke-width="2" points="112.871,-120.245 111.709,-109.714 106.05,-118.671 112.871,-120.245"/>
</g>
<!-- 7&#45;&gt;2 -->
<g id="edge11" class="edge"><title>7&#45;&gt;2</title>
<path fill="none" stroke="black" stroke-width="2" d="M130.139,-72.1215C136.674,-64.0961 144.629,-54.327 151.817,-45.5007"/>
<polygon fill="black" stroke="black" stroke-width="2" points="154.538,-47.7014 158.139,-37.7371 149.11,-43.2813 154.538,-47.7014"/>
</g>
<!-- 7&#45;&gt;3 -->
<g id="edge13" class="edge"><title>7&#45;&gt;3</title>
<path fill="none" stroke="black" stroke-width="2" d="M96.3129,-95.651C83.1707,-100.081 65.8048,-105.934 51.0828,-110.897"/>
<polygon fill="black" stroke="black" stroke-width="2" points="49.7557,-107.65 41.3975,-114.161 51.9917,-114.284 49.7557,-107.65"/>
</g>
<!-- 7&#45;&gt;5 -->
<g id="edge15" class="edge"><title>7&#45;&gt;5</title>
<path fill="none" stroke="black" stroke-width="2" d="M137.555,-84.8727C142.47,-83.946 147.808,-82.9396 153.058,-81.9497"/>
<polygon fill="black" stroke="black" stroke-width="2" points="153.733,-85.3842 162.911,-80.0919 152.436,-78.5054 153.733,-85.3842"/>
</g>
</g>
</svg>

