<?xml version="1.0" encoding="UTF-8" standalone="no"?>
<!DOCTYPE svg PUBLIC "-//W3C//DTD SVG 1.1//EN"
 "http://www.w3.org/Graphics/SVG/1.1/DTD/svg11.dtd">
<!-- Generated by graphviz version 2.36.0 (20140111.2315)
 -->
<!-- Title: G Pages: 1 -->
<svg width="100%" height="100%"
 viewBox="0.00 0.00 331.03 290.91" xmlns="http://www.w3.org/2000/svg" xmlns:xlink="http://www.w3.org/1999/xlink">
<g id="graph0" class="graph" transform="scale(1 1) rotate(0) translate(4 286.905)">
<title>G</title>
<!-- 0 -->
<g id="node1" class="node"><title>0</title>
<ellipse fill="cadetblue" stroke="black" cx="21.2132" cy="-168.295" rx="21.4286" ry="21.4286"/>
<text text-anchor="middle" x="21.2132" y="-163.295" font-family="Times New Roman,serif" font-size="20.00">2</text>
</g>
<!-- 6 -->
<g id="node7" class="node"><title>6</title>
<ellipse fill="cadetblue" stroke="black" cx="162.132" cy="-215.241" rx="21.4286" ry="21.4286"/>
<text text-anchor="middle" x="162.132" y="-210.241" font-family="Times New Roman,serif" font-size="20.00">2</text>
</g>
<!-- 0&#45;&gt;6 -->
<g id="edge3" class="edge"><title>0&#45;&gt;6</title>
<path fill="none" stroke="black" stroke-width="2" d="M41.4034,-175.021C65.1574,-182.935 104.817,-196.147 132.161,-205.257"/>
<polygon fill="black" stroke="black" stroke-width="2" points="131.386,-208.687 141.979,-208.527 133.598,-202.046 131.386,-208.687"/>
</g>
<!-- 1 -->
<g id="node2" class="node"><title>1</title>
<ellipse fill="cadetblue" stroke="black" cx="209.208" cy="-58.9113" rx="21.4286" ry="21.4286"/>
<text text-anchor="middle" x="209.208" y="-53.9113" font-family="Times New Roman,serif" font-size="20.00">2</text>
</g>
<!-- 1&#45;&gt;6 -->
<g id="edge6" class="edge"><title>1&#45;&gt;6</title>
<path fill="none" stroke="black" stroke-width="2" d="M211.234,-80.1747C212.251,-96.4105 212.533,-119.246 208.506,-138.811 204.542,-158.073 193.142,-176.99 182.638,-191.186"/>
<polygon fill="black" stroke="black" stroke-width="2" points="179.65,-189.328 176.288,-199.375 185.181,-193.617 179.65,-189.328"/>
</g>
<!-- 7 -->
<g id="node8" class="node"><title>7</title>
<ellipse fill="cadetblue" stroke="black" cx="96.5729" cy="-82.5688" rx="21.4286" ry="21.4286"/>
<text text-anchor="middle" x="96.5729" y="-77.5688" font-family="Times New Roman,serif" font-size="20.00">2</text>
</g>
<!-- 1&#45;&gt;7 -->
<g id="edge7" class="edge"><title>1&#45;&gt;7</title>
<path fill="none" stroke="black" stroke-width="2" d="M188.286,-63.3057C171.137,-66.9076 146.624,-72.0561 127.255,-76.1244"/>
<polygon fill="black" stroke="black" stroke-width="2" points="126.45,-72.7171 117.383,-78.198 127.889,-79.5676 126.45,-72.7171"/>
</g>
<!-- 2 -->
<g id="node3" class="node"><title>2</title>
<ellipse fill="cadetblue" stroke="black" cx="259.639" cy="-21.2132" rx="21.4286" ry="21.4286"/>
<text text-anchor="middle" x="259.639" y="-16.2132" font-family="Times New Roman,serif" font-size="20.00">2</text>
</g>
<!-- 5 -->
<g id="node6" class="node"><title>5</title>
<ellipse fill="cadetblue" stroke="black" cx="182.202" cy="-138.694" rx="21.4286" ry="21.4286"/>
<text text-anchor="middle" x="182.202" y="-133.694" font-family="Times New Roman,serif" font-size="20.00">2</text>
</g>
<!-- 2&#45;&gt;5 -->
<g id="edge9" class="edge"><title>2&#45;&gt;5</title>
<path fill="none" stroke="black" stroke-width="2" d="M249.724,-40.0942C243.699,-51.2102 235.661,-65.4277 227.74,-77.579 219.758,-89.8241 210.185,-102.881 201.881,-113.77"/>
<polygon fill="black" stroke="black" stroke-width="2" points="198.884,-111.924 195.547,-121.98 204.426,-116.2 198.884,-111.924"/>
</g>
<!-- 3 -->
<g id="node4" class="node"><title>3</title>
<ellipse fill="cadetblue" stroke="black" cx="52.778" cy="-261.692" rx="21.4286" ry="21.4286"/>
<text text-anchor="middle" x="52.778" y="-256.692" font-family="Times New Roman,serif" font-size="20.00">2</text>
</g>
<!-- 3&#45;&gt;0 -->
<g id="edge1" class="edge"><title>3&#45;&gt;0</title>
<path fill="none" stroke="black" stroke-width="2" d="M45.9289,-241.426C41.6685,-228.82 36.1131,-212.382 31.3486,-198.285"/>
<polygon fill="black" stroke="black" stroke-width="2" points="34.5665,-196.874 28.0489,-188.521 27.935,-199.115 34.5665,-196.874"/>
</g>
<!-- 4 -->
<g id="node5" class="node"><title>4</title>
<ellipse fill="cadetblue" stroke="black" cx="301.815" cy="-160.406" rx="21.4286" ry="21.4286"/>
<text text-anchor="middle" x="301.815" y="-155.406" font-family="Times New Roman,serif" font-size="20.00">2</text>
</g>
<!-- 4&#45;&gt;1 -->
<g id="edge4" class="edge"><title>4&#45;&gt;1</title>
<path fill="none" stroke="black" stroke-width="2" d="M287.345,-144.547C272.054,-127.789 247.786,-101.192 230.352,-82.0844"/>
<polygon fill="black" stroke="black" stroke-width="2" points="232.902,-79.6865 223.576,-74.6585 227.731,-84.4047 232.902,-79.6865"/>
</g>
<!-- 4&#45;&gt;2 -->
<g id="edge8" class="edge"><title>4&#45;&gt;2</title>
<path fill="none" stroke="black" stroke-width="2" d="M295.592,-139.867C288.521,-116.532 276.914,-78.225 268.807,-51.4693"/>
<polygon fill="black" stroke="black" stroke-width="2" points="272.137,-50.3911 265.888,-41.8358 265.438,-52.4211 272.137,-50.3911"/>
</g>
<!-- 5&#45;&gt;0 -->
<g id="edge2" class="edge"><title>5&#45;&gt;0</title>
<path fill="none" stroke="black" stroke-width="2" d="M161.156,-142.564C133.436,-147.661 84.4645,-156.665 52.4258,-162.556"/>
<polygon fill="black" stroke="black" stroke-width="2" points="51.467,-159.173 42.2648,-164.424 52.7329,-166.058 51.467,-159.173"/>
</g>
<!-- 5&#45;&gt;1 -->
<g id="edge5" class="edge"><title>5&#45;&gt;1</title>
<path fill="none" stroke="black" stroke-width="2" d="M189.017,-118.562C192.087,-109.491 195.775,-98.5963 199.154,-88.6142"/>
<polygon fill="black" stroke="black" stroke-width="2" points="202.504,-89.6317 202.395,-79.0374 195.874,-87.3873 202.504,-89.6317"/>
</g>
<!-- 5&#45;&gt;4 -->
<g id="edge13" class="edge"><title>5&#45;&gt;4</title>
<path fill="none" stroke="black" stroke-width="2" d="M203.311,-142.526C222.101,-145.936 249.82,-150.968 271.072,-154.825"/>
<polygon fill="black" stroke="black" stroke-width="2" points="270.453,-158.27 280.917,-156.612 271.703,-151.383 270.453,-158.27"/>
</g>
<!-- 6&#45;&gt;3 -->
<g id="edge11" class="edge"><title>6&#45;&gt;3</title>
<path fill="none" stroke="black" stroke-width="2" d="M142.582,-223.546C125.659,-230.734 100.951,-241.229 81.734,-249.392"/>
<polygon fill="black" stroke="black" stroke-width="2" points="80.3634,-246.172 72.5278,-253.303 83.1002,-252.615 80.3634,-246.172"/>
</g>
<!-- 6&#45;&gt;4 -->
<g id="edge14" class="edge"><title>6&#45;&gt;4</title>
<path fill="none" stroke="black" stroke-width="2" d="M182.145,-207.385C205.795,-198.101 245.349,-182.573 272.465,-171.928"/>
<polygon fill="black" stroke="black" stroke-width="2" points="273.81,-175.16 281.839,-168.248 271.252,-168.644 273.81,-175.16"/>
</g>
<!-- 6&#45;&gt;7 -->
<g id="edge16" class="edge"><title>6&#45;&gt;7</title>
<path fill="none" stroke="black" stroke-width="2" d="M152.599,-195.95C141.578,-173.645 123.332,-136.722 110.67,-111.097"/>
<polygon fill="black" stroke="black" stroke-width="2" points="113.685,-109.298 106.117,-101.884 107.41,-112.4 113.685,-109.298"/>
</g>
<!-- 7&#45;&gt;2 -->
<g id="edge10" class="edge"><title>7&#45;&gt;2</title>
<path fill="none" stroke="black" stroke-width="2" d="M115.613,-72.5546C137.627,-61.3527 175.212,-43.371 209.303,-32.6071 215.471,-30.6597 222.163,-28.9046 228.593,-27.3882"/>
<polygon fill="black" stroke="black" stroke-width="2" points="229.37,-30.801 238.368,-25.2084 227.846,-23.9688 229.37,-30.801"/>
</g>
<!-- 7&#45;&gt;3 -->
<g id="edge12" class="edge"><title>7&#45;&gt;3</title>
<path fill="none" stroke="black" stroke-width="2" d="M91.4633,-103.467C83.7827,-134.881 69.2154,-194.462 60.3135,-230.871"/>
<polygon fill="black" stroke="black" stroke-width="2" points="56.8302,-230.382 57.855,-240.927 63.6299,-232.044 56.8302,-230.382"/>
</g>
<!-- 7&#45;&gt;5 -->
<g id="edge15" class="edge"><title>7&#45;&gt;5</title>
<path fill="none" stroke="black" stroke-width="2" d="M114.315,-94.198C126.29,-102.047 142.306,-112.544 155.773,-121.372"/>
<polygon fill="black" stroke="black" stroke-width="2" points="153.905,-124.332 164.188,-126.887 157.743,-118.478 153.905,-124.332"/>
</g>
</g>
</svg>

