<?xml version="1.0" encoding="UTF-8" standalone="no"?>
<!DOCTYPE svg PUBLIC "-//W3C//DTD SVG 1.1//EN"
 "http://www.w3.org/Graphics/SVG/1.1/DTD/svg11.dtd">
<!-- Generated by graphviz version 2.36.0 (20140111.2315)
 -->
<!-- Title: G Pages: 1 -->
<svg width="100%" height="100%"
 viewBox="0.00 0.00 281.10 269.33" xmlns="http://www.w3.org/2000/svg" xmlns:xlink="http://www.w3.org/1999/xlink">
<g id="graph0" class="graph" transform="scale(1 1) rotate(0) translate(4 265.328)">
<title>G</title>
<!-- 0 -->
<g id="node1" class="node"><title>0</title>
<ellipse fill="cadetblue" stroke="black" cx="21.2132" cy="-101.877" rx="21.4286" ry="21.4286"/>
<text text-anchor="middle" x="21.2132" y="-96.8773" font-family="Times New Roman,serif" font-size="20.00">2</text>
</g>
<!-- 5 -->
<g id="node6" class="node"><title>5</title>
<ellipse fill="cadetblue" stroke="black" cx="76.367" cy="-240.115" rx="21.4286" ry="21.4286"/>
<text text-anchor="middle" x="76.367" y="-235.115" font-family="Times New Roman,serif" font-size="20.00">2</text>
</g>
<!-- 0&#45;&gt;5 -->
<g id="edge2" class="edge"><title>0&#45;&gt;5</title>
<path fill="none" stroke="black" stroke-width="2" d="M29.1154,-121.683C38.4124,-144.985 53.9345,-183.89 64.6367,-210.714"/>
<polygon fill="black" stroke="black" stroke-width="2" points="61.5228,-212.354 68.4794,-220.345 68.0245,-209.76 61.5228,-212.354"/>
</g>
<!-- 7 -->
<g id="node8" class="node"><title>7</title>
<ellipse fill="cadetblue" stroke="black" cx="114.579" cy="-29.0707" rx="21.4286" ry="21.4286"/>
<text text-anchor="middle" x="114.579" y="-24.0707" font-family="Times New Roman,serif" font-size="20.00">2</text>
</g>
<!-- 0&#45;&gt;7 -->
<g id="edge4" class="edge"><title>0&#45;&gt;7</title>
<path fill="none" stroke="black" stroke-width="2" d="M38.338,-88.5234C52.6836,-77.3368 73.3555,-61.2169 89.5561,-48.5838"/>
<polygon fill="black" stroke="black" stroke-width="2" points="91.8296,-51.2493 97.5631,-42.3399 87.525,-45.7292 91.8296,-51.2493"/>
</g>
<!-- 1 -->
<g id="node2" class="node"><title>1</title>
<ellipse fill="cadetblue" stroke="black" cx="76.1654" cy="-136.002" rx="21.4286" ry="21.4286"/>
<text text-anchor="middle" x="76.1654" y="-131.002" font-family="Times New Roman,serif" font-size="20.00">2</text>
</g>
<!-- 6 -->
<g id="node7" class="node"><title>6</title>
<ellipse fill="brown" stroke="black" cx="165.011" cy="-67.5105" rx="21.4286" ry="21.4286"/>
<text text-anchor="middle" x="165.011" y="-62.5105" font-family="Times New Roman,serif" font-size="20.00">3</text>
</g>
<!-- 1&#45;&gt;6 -->
<g id="edge7" class="edge"><title>1&#45;&gt;6</title>
<path fill="none" stroke="black" stroke-width="2" d="M93.2957,-122.796C106.447,-112.658 124.809,-98.5024 139.66,-87.0533"/>
<polygon fill="black" stroke="black" stroke-width="2" points="142.15,-89.5533 147.933,-80.6759 137.876,-84.0094 142.15,-89.5533"/>
</g>
<!-- 1&#45;&gt;7 -->
<g id="edge8" class="edge"><title>1&#45;&gt;7</title>
<path fill="none" stroke="black" stroke-width="2" d="M83.3908,-115.889C89.1855,-99.7586 97.4028,-76.8845 103.948,-58.6645"/>
<polygon fill="black" stroke="black" stroke-width="2" points="107.299,-59.688 107.386,-49.0935 100.712,-57.3213 107.299,-59.688"/>
</g>
<!-- 2 -->
<g id="node3" class="node"><title>2</title>
<ellipse fill="cadetblue" stroke="black" cx="251.891" cy="-21.2132" rx="21.4286" ry="21.4286"/>
<text text-anchor="middle" x="251.891" y="-16.2132" font-family="Times New Roman,serif" font-size="20.00">2</text>
</g>
<!-- 2&#45;&gt;6 -->
<g id="edge10" class="edge"><title>2&#45;&gt;6</title>
<path fill="none" stroke="black" stroke-width="2" d="M233.039,-31.259C221.313,-37.5079 206.022,-45.6562 192.908,-52.6445"/>
<polygon fill="black" stroke="black" stroke-width="2" points="191.005,-49.6926 183.826,-57.4843 194.297,-55.8703 191.005,-49.6926"/>
</g>
<!-- 3 -->
<g id="node4" class="node"><title>3</title>
<ellipse fill="cadetblue" stroke="black" cx="131.321" cy="-168.005" rx="21.4286" ry="21.4286"/>
<text text-anchor="middle" x="131.321" y="-163.005" font-family="Times New Roman,serif" font-size="20.00">2</text>
</g>
<!-- 3&#45;&gt;0 -->
<g id="edge1" class="edge"><title>3&#45;&gt;0</title>
<path fill="none" stroke="black" stroke-width="2" d="M121.214,-149.196C114.804,-138.715 105.682,-126.081 94.833,-117.47 83.0904,-108.15 67.0831,-104.052 52.9937,-102.368"/>
<polygon fill="black" stroke="black" stroke-width="2" points="52.9533,-98.8521 42.6956,-101.503 52.3679,-105.828 52.9533,-98.8521"/>
</g>
<!-- 4 -->
<g id="node5" class="node"><title>4</title>
<ellipse fill="cadetblue" stroke="black" cx="208.339" cy="-148.091" rx="21.4286" ry="21.4286"/>
<text text-anchor="middle" x="208.339" y="-143.091" font-family="Times New Roman,serif" font-size="20.00">2</text>
</g>
<!-- 4&#45;&gt;1 -->
<g id="edge5" class="edge"><title>4&#45;&gt;1</title>
<path fill="none" stroke="black" stroke-width="2" d="M187.103,-146.149C165.618,-144.184 132.157,-141.123 107.599,-138.877"/>
<polygon fill="black" stroke="black" stroke-width="2" points="107.626,-135.365 97.3487,-137.94 106.988,-142.336 107.626,-135.365"/>
</g>
<!-- 4&#45;&gt;2 -->
<g id="edge9" class="edge"><title>4&#45;&gt;2</title>
<path fill="none" stroke="black" stroke-width="2" d="M215.24,-127.987C222.334,-107.321 233.461,-74.9035 241.596,-51.206"/>
<polygon fill="black" stroke="black" stroke-width="2" points="244.942,-52.2381 244.878,-41.6435 238.321,-49.9654 244.942,-52.2381"/>
</g>
<!-- 4&#45;&gt;5 -->
<g id="edge14" class="edge"><title>4&#45;&gt;5</title>
<path fill="none" stroke="black" stroke-width="2" d="M190.814,-160.311C168.136,-176.124 128.439,-203.805 102.274,-222.049"/>
<polygon fill="black" stroke="black" stroke-width="2" points="100.165,-219.253 93.9643,-227.844 104.169,-224.995 100.165,-219.253"/>
</g>
<!-- 5&#45;&gt;1 -->
<g id="edge6" class="edge"><title>5&#45;&gt;1</title>
<path fill="none" stroke="black" stroke-width="2" d="M76.3257,-218.795C76.2972,-204.057 76.2587,-184.198 76.2266,-167.624"/>
<polygon fill="black" stroke="black" stroke-width="2" points="79.7261,-167.287 76.2066,-157.294 72.7261,-167.3 79.7261,-167.287"/>
</g>
<!-- 6&#45;&gt;0 -->
<g id="edge3" class="edge"><title>6&#45;&gt;0</title>
<path fill="none" stroke="black" stroke-width="2" d="M144.101,-72.5077C119.927,-78.2853 79.9072,-87.8498 52.134,-94.4874"/>
<polygon fill="black" stroke="black" stroke-width="2" points="51.0603,-91.1454 42.1478,-96.874 52.6875,-97.9536 51.0603,-91.1454"/>
</g>
<!-- 6&#45;&gt;3 -->
<g id="edge12" class="edge"><title>6&#45;&gt;3</title>
<path fill="none" stroke="black" stroke-width="2" d="M158.193,-87.8471C153.353,-102.286 146.775,-121.905 141.34,-138.12"/>
<polygon fill="black" stroke="black" stroke-width="2" points="137.989,-137.105 138.128,-147.699 144.625,-139.33 137.989,-137.105"/>
</g>
<!-- 6&#45;&gt;4 -->
<g id="edge15" class="edge"><title>6&#45;&gt;4</title>
<path fill="none" stroke="black" stroke-width="2" d="M175.06,-86.1999C180.49,-96.2975 187.301,-108.965 193.345,-120.206"/>
<polygon fill="black" stroke="black" stroke-width="2" points="190.376,-122.074 198.194,-129.224 196.541,-118.759 190.376,-122.074"/>
</g>
<!-- 7&#45;&gt;2 -->
<g id="edge11" class="edge"><title>7&#45;&gt;2</title>
<path fill="none" stroke="black" stroke-width="2" d="M136.034,-27.843C158.707,-26.5456 194.69,-24.4865 220.54,-23.0072"/>
<polygon fill="black" stroke="black" stroke-width="2" points="220.803,-26.498 230.587,-22.4323 220.403,-19.5094 220.803,-26.498"/>
</g>
<!-- 7&#45;&gt;3 -->
<g id="edge13" class="edge"><title>7&#45;&gt;3</title>
<path fill="none" stroke="black" stroke-width="2" d="M117.122,-50.1718C119.888,-73.1231 124.338,-110.058 127.519,-136.458"/>
<polygon fill="black" stroke="black" stroke-width="2" points="124.083,-137.196 128.754,-146.705 131.033,-136.358 124.083,-137.196"/>
</g>
<!-- 7&#45;&gt;4 -->
<g id="edge16" class="edge"><title>7&#45;&gt;4</title>
<path fill="none" stroke="black" stroke-width="2" d="M123.657,-48.3662C129.443,-59.8105 137.507,-74.3302 146.389,-86.0884 157.599,-100.929 172.227,-115.732 184.453,-127.151"/>
<polygon fill="black" stroke="black" stroke-width="2" points="182.341,-129.962 192.08,-134.132 187.067,-124.799 182.341,-129.962"/>
</g>
<!-- 7&#45;&gt;6 -->
<g id="edge17" class="edge"><title>7&#45;&gt;6</title>
<path fill="none" stroke="black" stroke-width="2" d="M131.653,-42.0847C134.282,-44.0885 137.043,-46.1931 139.804,-48.2976"/>
<polygon fill="black" stroke="black" stroke-width="2" points="137.88,-51.2315 147.955,-54.51 142.123,-45.6643 137.88,-51.2315"/>
</g>
</g>
</svg>

