<?xml version="1.0" encoding="UTF-8" standalone="no"?>
<!DOCTYPE svg PUBLIC "-//W3C//DTD SVG 1.1//EN"
 "http://www.w3.org/Graphics/SVG/1.1/DTD/svg11.dtd">
<!-- Generated by graphviz version 2.36.0 (20140111.2315)
 -->
<!-- Title: G Pages: 1 -->
<svg width="100%" height="100%"
 viewBox="0.00 0.00 326.36 280.27" xmlns="http://www.w3.org/2000/svg" xmlns:xlink="http://www.w3.org/1999/xlink">
<g id="graph0" class="graph" transform="scale(1 1) rotate(0) translate(4 276.271)">
<title>G</title>
<!-- 0 -->
<g id="node1" class="node"><title>0</title>
<ellipse fill="cadetblue" stroke="black" cx="21.2132" cy="-126.883" rx="21.4286" ry="21.4286"/>
<text text-anchor="middle" x="21.2132" y="-121.883" font-family="Times New Roman,serif" font-size="20.00">2</text>
</g>
<!-- 6 -->
<g id="node7" class="node"><title>6</title>
<ellipse fill="cadetblue" stroke="black" cx="116.651" cy="-120.897" rx="21.4286" ry="21.4286"/>
<text text-anchor="middle" x="116.651" y="-115.897" font-family="Times New Roman,serif" font-size="20.00">2</text>
</g>
<!-- 0&#45;&gt;6 -->
<g id="edge3" class="edge"><title>0&#45;&gt;6</title>
<path fill="none" stroke="black" stroke-width="2" d="M42.394,-125.554C54.9096,-124.769 70.9964,-123.76 84.9953,-122.882"/>
<polygon fill="black" stroke="black" stroke-width="2" points="85.4383,-126.361 95.1996,-122.242 85,-119.375 85.4383,-126.361"/>
</g>
<!-- 7 -->
<g id="node8" class="node"><title>7</title>
<ellipse fill="cadetblue" stroke="black" cx="167.083" cy="-148.177" rx="21.4286" ry="21.4286"/>
<text text-anchor="middle" x="167.083" y="-143.177" font-family="Times New Roman,serif" font-size="20.00">2</text>
</g>
<!-- 0&#45;&gt;7 -->
<g id="edge4" class="edge"><title>0&#45;&gt;7</title>
<path fill="none" stroke="black" stroke-width="2" d="M41.8696,-132.474C61.0679,-137.385 90.5426,-144.2 116.62,-147.201 122.643,-147.894 129.096,-148.284 135.307,-148.484"/>
<polygon fill="black" stroke="black" stroke-width="2" points="135.353,-151.985 145.412,-148.66 135.475,-144.986 135.353,-151.985"/>
</g>
<!-- 1 -->
<g id="node2" class="node"><title>1</title>
<ellipse fill="cadetblue" stroke="black" cx="240.7" cy="-228.095" rx="21.4286" ry="21.4286"/>
<text text-anchor="middle" x="240.7" y="-223.095" font-family="Times New Roman,serif" font-size="20.00">2</text>
</g>
<!-- 1&#45;&gt;6 -->
<g id="edge7" class="edge"><title>1&#45;&gt;6</title>
<path fill="none" stroke="black" stroke-width="2" d="M221.526,-218.184C201.743,-207.345 170.722,-188.581 148.482,-166.776 142.866,-161.27 137.613,-154.646 133.057,-148.166"/>
<polygon fill="black" stroke="black" stroke-width="2" points="135.765,-145.918 127.307,-139.537 129.939,-149.8 135.765,-145.918"/>
</g>
<!-- 1&#45;&gt;7 -->
<g id="edge8" class="edge"><title>1&#45;&gt;7</title>
<path fill="none" stroke="black" stroke-width="2" d="M226.155,-212.306C215.467,-200.703 200.768,-184.746 188.706,-171.652"/>
<polygon fill="black" stroke="black" stroke-width="2" points="190.946,-168.917 181.597,-163.933 185.798,-173.66 190.946,-168.917"/>
</g>
<!-- 2 -->
<g id="node3" class="node"><title>2</title>
<ellipse fill="cadetblue" stroke="black" cx="207.364" cy="-21.2132" rx="21.4286" ry="21.4286"/>
<text text-anchor="middle" x="207.364" y="-16.2132" font-family="Times New Roman,serif" font-size="20.00">2</text>
</g>
<!-- 4 -->
<g id="node5" class="node"><title>4</title>
<ellipse fill="cadetblue" stroke="black" cx="297.144" cy="-114.002" rx="21.4286" ry="21.4286"/>
<text text-anchor="middle" x="297.144" y="-109.002" font-family="Times New Roman,serif" font-size="20.00">2</text>
</g>
<!-- 2&#45;&gt;4 -->
<g id="edge9" class="edge"><title>2&#45;&gt;4</title>
<path fill="none" stroke="black" stroke-width="2" d="M222.19,-36.5353C236.615,-51.4442 258.706,-74.276 275.174,-91.2955"/>
<polygon fill="black" stroke="black" stroke-width="2" points="272.827,-93.9039 282.296,-98.6569 277.858,-89.0364 272.827,-93.9039"/>
</g>
<!-- 3 -->
<g id="node4" class="node"><title>3</title>
<ellipse fill="brown" stroke="black" cx="29.9222" cy="-219.493" rx="21.4286" ry="21.4286"/>
<text text-anchor="middle" x="29.9222" y="-214.493" font-family="Times New Roman,serif" font-size="20.00">3</text>
</g>
<!-- 3&#45;&gt;0 -->
<g id="edge1" class="edge"><title>3&#45;&gt;0</title>
<path fill="none" stroke="black" stroke-width="2" d="M27.9023,-198.014C26.7921,-186.208 25.3945,-171.346 24.1642,-158.264"/>
<polygon fill="black" stroke="black" stroke-width="2" points="27.6431,-157.874 23.2222,-148.246 20.6739,-158.53 27.6431,-157.874"/>
</g>
<!-- 4&#45;&gt;1 -->
<g id="edge5" class="edge"><title>4&#45;&gt;1</title>
<path fill="none" stroke="black" stroke-width="2" d="M287.696,-133.098C278.661,-151.362 264.926,-179.124 254.635,-199.927"/>
<polygon fill="black" stroke="black" stroke-width="2" points="251.475,-198.421 250.178,-208.936 257.749,-201.525 251.475,-198.421"/>
</g>
<!-- 5 -->
<g id="node6" class="node"><title>5</title>
<ellipse fill="cadetblue" stroke="black" cx="117.687" cy="-251.058" rx="21.4286" ry="21.4286"/>
<text text-anchor="middle" x="117.687" y="-246.058" font-family="Times New Roman,serif" font-size="20.00">2</text>
</g>
<!-- 5&#45;&gt;0 -->
<g id="edge2" class="edge"><title>5&#45;&gt;0</title>
<path fill="none" stroke="black" stroke-width="2" d="M104.475,-234.052C87.949,-212.781 59.5227,-176.193 40.548,-151.77"/>
<polygon fill="black" stroke="black" stroke-width="2" points="43.1647,-149.433 34.2656,-143.683 37.637,-153.727 43.1647,-149.433"/>
</g>
<!-- 5&#45;&gt;1 -->
<g id="edge6" class="edge"><title>5&#45;&gt;1</title>
<path fill="none" stroke="black" stroke-width="2" d="M138.554,-247.163C158.082,-243.517 187.503,-238.026 209.761,-233.871"/>
<polygon fill="black" stroke="black" stroke-width="2" points="210.542,-237.285 219.73,-232.01 209.257,-230.404 210.542,-237.285"/>
</g>
<!-- 5&#45;&gt;3 -->
<g id="edge12" class="edge"><title>5&#45;&gt;3</title>
<path fill="none" stroke="black" stroke-width="2" d="M97.3315,-243.737C86.1436,-239.713 72.0592,-234.648 59.6612,-230.189"/>
<polygon fill="black" stroke="black" stroke-width="2" points="60.7619,-226.865 50.1674,-226.775 58.3928,-233.452 60.7619,-226.865"/>
</g>
<!-- 6&#45;&gt;2 -->
<g id="edge10" class="edge"><title>6&#45;&gt;2</title>
<path fill="none" stroke="black" stroke-width="2" d="M131.226,-104.881C146.038,-88.604 169.143,-63.2145 186.018,-44.6709"/>
<polygon fill="black" stroke="black" stroke-width="2" points="188.684,-46.941 192.826,-37.1893 183.507,-42.2297 188.684,-46.941"/>
</g>
<!-- 6&#45;&gt;3 -->
<g id="edge13" class="edge"><title>6&#45;&gt;3</title>
<path fill="none" stroke="black" stroke-width="2" d="M102.33,-137.178C88.3109,-153.115 66.7978,-177.572 50.8605,-195.69"/>
<polygon fill="black" stroke="black" stroke-width="2" points="47.954,-193.695 43.9772,-203.515 53.21,-198.318 47.954,-193.695"/>
</g>
<!-- 6&#45;&gt;5 -->
<g id="edge16" class="edge"><title>6&#45;&gt;5</title>
<path fill="none" stroke="black" stroke-width="2" d="M116.822,-142.39C116.989,-163.398 117.246,-195.62 117.436,-219.528"/>
<polygon fill="black" stroke="black" stroke-width="2" points="113.936,-219.561 117.516,-229.533 120.936,-219.505 113.936,-219.561"/>
</g>
<!-- 7&#45;&gt;2 -->
<g id="edge11" class="edge"><title>7&#45;&gt;2</title>
<path fill="none" stroke="black" stroke-width="2" d="M173.555,-127.778C180.103,-107.139 190.3,-74.9973 197.785,-51.4073"/>
<polygon fill="black" stroke="black" stroke-width="2" points="201.22,-52.1517 200.909,-41.5615 194.548,-50.0347 201.22,-52.1517"/>
</g>
<!-- 7&#45;&gt;3 -->
<g id="edge14" class="edge"><title>7&#45;&gt;3</title>
<path fill="none" stroke="black" stroke-width="2" d="M148.011,-158.093C124.57,-170.281 84.605,-191.061 57.7396,-205.03"/>
<polygon fill="black" stroke="black" stroke-width="2" points="56.0895,-201.943 48.8318,-209.661 59.3188,-208.153 56.0895,-201.943"/>
</g>
<!-- 7&#45;&gt;4 -->
<g id="edge15" class="edge"><title>7&#45;&gt;4</title>
<path fill="none" stroke="black" stroke-width="2" d="M187.691,-142.762C208.875,-137.195 242.106,-128.463 266.398,-122.08"/>
<polygon fill="black" stroke="black" stroke-width="2" points="267.419,-125.431 276.201,-119.505 265.64,-118.661 267.419,-125.431"/>
</g>
<!-- 7&#45;&gt;5 -->
<g id="edge17" class="edge"><title>7&#45;&gt;5</title>
<path fill="none" stroke="black" stroke-width="2" d="M157.792,-167.528C150.34,-183.047 139.774,-205.055 131.358,-222.585"/>
<polygon fill="black" stroke="black" stroke-width="2" points="128.109,-221.264 126.936,-231.794 134.42,-224.294 128.109,-221.264"/>
</g>
</g>
</svg>

