<?xml version="1.0" encoding="UTF-8" standalone="no"?>
<!DOCTYPE svg PUBLIC "-//W3C//DTD SVG 1.1//EN"
 "http://www.w3.org/Graphics/SVG/1.1/DTD/svg11.dtd">
<!-- Generated by graphviz version 2.36.0 (20140111.2315)
 -->
<!-- Title: G Pages: 1 -->
<svg width="100%" height="100%"
 viewBox="0.00 0.00 295.85 295.62" xmlns="http://www.w3.org/2000/svg" xmlns:xlink="http://www.w3.org/1999/xlink">
<g id="graph0" class="graph" transform="scale(1 1) rotate(0) translate(4 291.624)">
<title>G</title>
<!-- 0 -->
<g id="node1" class="node"><title>0</title>
<ellipse fill="cadetblue" stroke="black" cx="21.2132" cy="-222.921" rx="21.4286" ry="21.4286"/>
<text text-anchor="middle" x="21.2132" y="-217.921" font-family="Times New Roman,serif" font-size="20.00">2</text>
</g>
<!-- 7 -->
<g id="node8" class="node"><title>7</title>
<ellipse fill="cadetblue" stroke="black" cx="121.355" cy="-151.632" rx="21.4286" ry="21.4286"/>
<text text-anchor="middle" x="121.355" y="-146.632" font-family="Times New Roman,serif" font-size="20.00">2</text>
</g>
<!-- 0&#45;&gt;7 -->
<g id="edge3" class="edge"><title>0&#45;&gt;7</title>
<path fill="none" stroke="black" stroke-width="2" d="M38.6566,-210.504C54.3559,-199.328 77.6349,-182.756 95.4982,-170.039"/>
<polygon fill="black" stroke="black" stroke-width="2" points="97.6587,-172.798 103.775,-164.147 93.599,-167.095 97.6587,-172.798"/>
</g>
<!-- 1 -->
<g id="node2" class="node"><title>1</title>
<ellipse fill="cadetblue" stroke="black" cx="89.761" cy="-21.2132" rx="21.4286" ry="21.4286"/>
<text text-anchor="middle" x="89.761" y="-16.2132" font-family="Times New Roman,serif" font-size="20.00">2</text>
</g>
<!-- 6 -->
<g id="node7" class="node"><title>6</title>
<ellipse fill="cadetblue" stroke="black" cx="171.786" cy="-136.152" rx="21.4286" ry="21.4286"/>
<text text-anchor="middle" x="171.786" y="-131.152" font-family="Times New Roman,serif" font-size="20.00">2</text>
</g>
<!-- 1&#45;&gt;6 -->
<g id="edge6" class="edge"><title>1&#45;&gt;6</title>
<path fill="none" stroke="black" stroke-width="2" d="M102.219,-38.6699C115.829,-57.7415 137.769,-88.4843 153.368,-110.343"/>
<polygon fill="black" stroke="black" stroke-width="2" points="150.553,-112.424 159.211,-118.531 156.251,-108.358 150.553,-112.424"/>
</g>
<!-- 1&#45;&gt;7 -->
<g id="edge7" class="edge"><title>1&#45;&gt;7</title>
<path fill="none" stroke="black" stroke-width="2" d="M94.7672,-41.8785C99.9131,-63.1209 107.985,-96.4434 113.886,-120.802"/>
<polygon fill="black" stroke="black" stroke-width="2" points="110.512,-121.737 116.268,-130.632 117.315,-120.089 110.512,-121.737"/>
</g>
<!-- 2 -->
<g id="node3" class="node"><title>2</title>
<ellipse fill="cadetblue" stroke="black" cx="266.641" cy="-122.582" rx="21.4286" ry="21.4286"/>
<text text-anchor="middle" x="266.641" y="-117.582" font-family="Times New Roman,serif" font-size="20.00">2</text>
</g>
<!-- 2&#45;&gt;6 -->
<g id="edge9" class="edge"><title>2&#45;&gt;6</title>
<path fill="none" stroke="black" stroke-width="2" d="M245.589,-125.594C233.15,-127.373 217.162,-129.66 203.249,-131.651"/>
<polygon fill="black" stroke="black" stroke-width="2" points="202.51,-128.221 193.107,-133.102 203.502,-135.15 202.51,-128.221"/>
</g>
<!-- 3 -->
<g id="node4" class="node"><title>3</title>
<ellipse fill="cadetblue" stroke="black" cx="133.69" cy="-266.411" rx="21.4286" ry="21.4286"/>
<text text-anchor="middle" x="133.69" y="-261.411" font-family="Times New Roman,serif" font-size="20.00">2</text>
</g>
<!-- 3&#45;&gt;0 -->
<g id="edge1" class="edge"><title>3&#45;&gt;0</title>
<path fill="none" stroke="black" stroke-width="2" d="M113.84,-258.736C96.3602,-251.977 70.6604,-242.04 50.7632,-234.347"/>
<polygon fill="black" stroke="black" stroke-width="2" points="51.8321,-231.008 41.2428,-230.666 49.3076,-237.537 51.8321,-231.008"/>
</g>
<!-- 4 -->
<g id="node5" class="node"><title>4</title>
<ellipse fill="cadetblue" stroke="black" cx="177.8" cy="-41.8338" rx="21.4286" ry="21.4286"/>
<text text-anchor="middle" x="177.8" y="-36.8338" font-family="Times New Roman,serif" font-size="20.00">2</text>
</g>
<!-- 4&#45;&gt;1 -->
<g id="edge4" class="edge"><title>4&#45;&gt;1</title>
<path fill="none" stroke="black" stroke-width="2" d="M156.936,-36.947C146.082,-34.4046 132.601,-31.2472 120.571,-28.4296"/>
<polygon fill="black" stroke="black" stroke-width="2" points="121.01,-24.9377 110.475,-26.0649 119.414,-31.7532 121.01,-24.9377"/>
</g>
<!-- 4&#45;&gt;2 -->
<g id="edge8" class="edge"><title>4&#45;&gt;2</title>
<path fill="none" stroke="black" stroke-width="2" d="M193.683,-56.27C207.453,-68.786 227.569,-87.0692 243.192,-101.269"/>
<polygon fill="black" stroke="black" stroke-width="2" points="241.141,-104.135 250.895,-108.271 245.849,-98.9548 241.141,-104.135"/>
</g>
<!-- 5 -->
<g id="node6" class="node"><title>5</title>
<ellipse fill="brown" stroke="black" cx="42.7049" cy="-99.4389" rx="21.4286" ry="21.4286"/>
<text text-anchor="middle" x="42.7049" y="-94.4389" font-family="Times New Roman,serif" font-size="20.00">3</text>
</g>
<!-- 4&#45;&gt;5 -->
<g id="edge13" class="edge"><title>4&#45;&gt;5</title>
<path fill="none" stroke="black" stroke-width="2" d="M158.156,-50.2101C135.445,-59.8944 97.8469,-75.9262 71.7545,-87.0521"/>
<polygon fill="black" stroke="black" stroke-width="2" points="70.1985,-83.9106 62.3727,-91.0525 72.9442,-90.3497 70.1985,-83.9106"/>
</g>
<!-- 5&#45;&gt;0 -->
<g id="edge2" class="edge"><title>5&#45;&gt;0</title>
<path fill="none" stroke="black" stroke-width="2" d="M39.0591,-120.386C35.6474,-139.988 30.5073,-169.521 26.6185,-191.865"/>
<polygon fill="black" stroke="black" stroke-width="2" points="23.1435,-191.419 24.8769,-201.872 30.0398,-192.62 23.1435,-191.419"/>
</g>
<!-- 5&#45;&gt;1 -->
<g id="edge5" class="edge"><title>5&#45;&gt;1</title>
<path fill="none" stroke="black" stroke-width="2" d="M53.8566,-80.9005C59.7168,-71.1585 67.0091,-59.0358 73.4879,-48.2655"/>
<polygon fill="black" stroke="black" stroke-width="2" points="76.5339,-49.9918 78.6894,-39.6185 70.5355,-46.3835 76.5339,-49.9918"/>
</g>
<!-- 6&#45;&gt;3 -->
<g id="edge11" class="edge"><title>6&#45;&gt;3</title>
<path fill="none" stroke="black" stroke-width="2" d="M165.75,-156.792C159.508,-178.133 149.696,-211.684 142.57,-236.05"/>
<polygon fill="black" stroke="black" stroke-width="2" points="139.146,-235.287 139.698,-245.867 145.865,-237.252 139.146,-235.287"/>
</g>
<!-- 6&#45;&gt;4 -->
<g id="edge14" class="edge"><title>6&#45;&gt;4</title>
<path fill="none" stroke="black" stroke-width="2" d="M173.151,-114.749C173.928,-102.57 174.915,-87.0835 175.78,-73.5184"/>
<polygon fill="black" stroke="black" stroke-width="2" points="179.298,-73.3537 176.441,-63.1513 172.312,-72.9082 179.298,-73.3537"/>
</g>
<!-- 6&#45;&gt;5 -->
<g id="edge16" class="edge"><title>6&#45;&gt;5</title>
<path fill="none" stroke="black" stroke-width="2" d="M151.333,-130.334C130.309,-124.355 97.3278,-114.974 73.2186,-108.117"/>
<polygon fill="black" stroke="black" stroke-width="2" points="74.066,-104.72 63.49,-105.351 72.151,-111.453 74.066,-104.72"/>
</g>
<!-- 7&#45;&gt;2 -->
<g id="edge10" class="edge"><title>7&#45;&gt;2</title>
<path fill="none" stroke="black" stroke-width="2" d="M141.779,-158.909C150.877,-161.398 161.772,-163.357 171.755,-162.456 196.003,-160.268 221.317,-149.114 239.695,-139.158"/>
<polygon fill="black" stroke="black" stroke-width="2" points="241.643,-142.078 248.631,-134.115 238.202,-135.982 241.643,-142.078"/>
</g>
<!-- 7&#45;&gt;3 -->
<g id="edge12" class="edge"><title>7&#45;&gt;3</title>
<path fill="none" stroke="black" stroke-width="2" d="M123.646,-172.952C125.524,-190.428 128.209,-215.407 130.33,-235.145"/>
<polygon fill="black" stroke="black" stroke-width="2" points="126.863,-235.636 131.411,-245.205 133.822,-234.888 126.863,-235.636"/>
</g>
<!-- 7&#45;&gt;4 -->
<g id="edge15" class="edge"><title>7&#45;&gt;4</title>
<path fill="none" stroke="black" stroke-width="2" d="M131.187,-132.507C140.09,-115.188 153.318,-89.4563 163.411,-69.8241"/>
<polygon fill="black" stroke="black" stroke-width="2" points="166.622,-71.2339 168.081,-60.74 160.396,-68.0334 166.622,-71.2339"/>
</g>
<!-- 7&#45;&gt;5 -->
<g id="edge17" class="edge"><title>7&#45;&gt;5</title>
<path fill="none" stroke="black" stroke-width="2" d="M103.508,-139.789C93.3516,-133.049 80.4379,-124.479 69.1262,-116.973"/>
<polygon fill="black" stroke="black" stroke-width="2" points="70.7487,-113.849 60.4812,-111.236 66.8781,-119.681 70.7487,-113.849"/>
</g>
</g>
</svg>

