<?xml version="1.0" encoding="UTF-8" standalone="no"?>
<!DOCTYPE svg PUBLIC "-//W3C//DTD SVG 1.1//EN"
 "http://www.w3.org/Graphics/SVG/1.1/DTD/svg11.dtd">
<!-- Generated by graphviz version 2.36.0 (20140111.2315)
 -->
<!-- Title: G Pages: 1 -->
<svg width="100%" height="100%"
 viewBox="0.00 0.00 274.14 305.39" xmlns="http://www.w3.org/2000/svg" xmlns:xlink="http://www.w3.org/1999/xlink">
<g id="graph0" class="graph" transform="scale(1 1) rotate(0) translate(4 301.392)">
<title>G</title>
<!-- 0 -->
<g id="node1" class="node"><title>0</title>
<ellipse fill="cadetblue" stroke="black" cx="21.2132" cy="-184.18" rx="21.4286" ry="21.4286"/>
<text text-anchor="middle" x="21.2132" y="-179.18" font-family="Times New Roman,serif" font-size="20.00">2</text>
</g>
<!-- 6 -->
<g id="node7" class="node"><title>6</title>
<ellipse fill="cadetblue" stroke="black" cx="150.15" cy="-253.122" rx="21.4286" ry="21.4286"/>
<text text-anchor="middle" x="150.15" y="-248.122" font-family="Times New Roman,serif" font-size="20.00">2</text>
</g>
<!-- 0&#45;&gt;6 -->
<g id="edge3" class="edge"><title>0&#45;&gt;6</title>
<path fill="none" stroke="black" stroke-width="2" d="M39.9618,-194.205C61.6381,-205.795 97.522,-224.982 122.425,-238.297"/>
<polygon fill="black" stroke="black" stroke-width="2" points="120.91,-241.456 131.379,-243.085 124.211,-235.283 120.91,-241.456"/>
</g>
<!-- 7 -->
<g id="node8" class="node"><title>7</title>
<ellipse fill="cadetblue" stroke="black" cx="103.16" cy="-132.811" rx="21.4286" ry="21.4286"/>
<text text-anchor="middle" x="103.16" y="-127.811" font-family="Times New Roman,serif" font-size="20.00">2</text>
</g>
<!-- 0&#45;&gt;7 -->
<g id="edge4" class="edge"><title>0&#45;&gt;7</title>
<path fill="none" stroke="black" stroke-width="2" d="M39.3998,-172.78C50.2213,-165.996 64.1522,-157.263 76.2307,-149.692"/>
<polygon fill="black" stroke="black" stroke-width="2" points="78.4101,-152.457 85.024,-144.18 74.6921,-146.526 78.4101,-152.457"/>
</g>
<!-- 1 -->
<g id="node2" class="node"><title>1</title>
<ellipse fill="cadetblue" stroke="black" cx="244.922" cy="-215.574" rx="21.4286" ry="21.4286"/>
<text text-anchor="middle" x="244.922" y="-210.574" font-family="Times New Roman,serif" font-size="20.00">2</text>
</g>
<!-- 1&#45;&gt;6 -->
<g id="edge7" class="edge"><title>1&#45;&gt;6</title>
<path fill="none" stroke="black" stroke-width="2" d="M224.823,-223.537C211.668,-228.749 194.255,-235.648 179.554,-241.472"/>
<polygon fill="black" stroke="black" stroke-width="2" points="177.903,-238.362 169.895,-245.299 180.481,-244.87 177.903,-238.362"/>
</g>
<!-- 1&#45;&gt;7 -->
<g id="edge8" class="edge"><title>1&#45;&gt;7</title>
<path fill="none" stroke="black" stroke-width="2" d="M224.897,-207.934C202.09,-198.771 164.198,-182.118 134.908,-162.127 131.748,-159.97 128.587,-157.509 125.551,-154.951"/>
<polygon fill="black" stroke="black" stroke-width="2" points="127.677,-152.156 117.892,-148.093 123.007,-157.372 127.677,-152.156"/>
</g>
<!-- 2 -->
<g id="node3" class="node"><title>2</title>
<ellipse fill="cadetblue" stroke="black" cx="155.711" cy="-21.2132" rx="21.4286" ry="21.4286"/>
<text text-anchor="middle" x="155.711" y="-16.2132" font-family="Times New Roman,serif" font-size="20.00">2</text>
</g>
<!-- 5 -->
<g id="node6" class="node"><title>5</title>
<ellipse fill="cadetblue" stroke="black" cx="153.591" cy="-143.61" rx="21.4286" ry="21.4286"/>
<text text-anchor="middle" x="153.591" y="-138.61" font-family="Times New Roman,serif" font-size="20.00">2</text>
</g>
<!-- 2&#45;&gt;5 -->
<g id="edge10" class="edge"><title>2&#45;&gt;5</title>
<path fill="none" stroke="black" stroke-width="2" d="M155.342,-42.5332C155.009,-61.7215 154.517,-90.174 154.138,-112.007"/>
<polygon fill="black" stroke="black" stroke-width="2" points="150.637,-112.065 153.963,-122.124 157.636,-112.186 150.637,-112.065"/>
</g>
<!-- 3 -->
<g id="node4" class="node"><title>3</title>
<ellipse fill="cadetblue" stroke="black" cx="39.9035" cy="-276.178" rx="21.4286" ry="21.4286"/>
<text text-anchor="middle" x="39.9035" y="-271.178" font-family="Times New Roman,serif" font-size="20.00">2</text>
</g>
<!-- 3&#45;&gt;0 -->
<g id="edge1" class="edge"><title>3&#45;&gt;0</title>
<path fill="none" stroke="black" stroke-width="2" d="M35.6624,-255.303C33.2488,-243.422 30.18,-228.317 27.4919,-215.086"/>
<polygon fill="black" stroke="black" stroke-width="2" points="30.8585,-214.076 25.4375,-204.973 23.9986,-215.47 30.8585,-214.076"/>
</g>
<!-- 4 -->
<g id="node5" class="node"><title>4</title>
<ellipse fill="cadetblue" stroke="black" cx="236.068" cy="-116.4" rx="21.4286" ry="21.4286"/>
<text text-anchor="middle" x="236.068" y="-111.4" font-family="Times New Roman,serif" font-size="20.00">2</text>
</g>
<!-- 4&#45;&gt;1 -->
<g id="edge5" class="edge"><title>4&#45;&gt;1</title>
<path fill="none" stroke="black" stroke-width="2" d="M237.989,-137.919C239.204,-151.527 240.794,-169.341 242.145,-184.473"/>
<polygon fill="black" stroke="black" stroke-width="2" points="238.66,-184.788 243.035,-194.437 245.632,-184.165 238.66,-184.788"/>
</g>
<!-- 4&#45;&gt;2 -->
<g id="edge9" class="edge"><title>4&#45;&gt;2</title>
<path fill="none" stroke="black" stroke-width="2" d="M222.071,-99.8195C209.396,-84.8055 190.564,-62.4981 176.196,-45.4786"/>
<polygon fill="black" stroke="black" stroke-width="2" points="178.673,-42.9869 169.548,-37.6034 173.324,-47.5024 178.673,-42.9869"/>
</g>
<!-- 5&#45;&gt;0 -->
<g id="edge2" class="edge"><title>5&#45;&gt;0</title>
<path fill="none" stroke="black" stroke-width="2" d="M132.982,-149.954C123.846,-152.764 112.967,-156.108 103.159,-159.116 86.007,-164.375 66.8317,-170.241 51.3447,-174.975"/>
<polygon fill="black" stroke="black" stroke-width="2" points="50.2989,-171.635 41.7585,-177.905 52.3449,-178.329 50.2989,-171.635"/>
</g>
<!-- 5&#45;&gt;1 -->
<g id="edge6" class="edge"><title>5&#45;&gt;1</title>
<path fill="none" stroke="black" stroke-width="2" d="M170.343,-156.81C184.16,-167.697 203.977,-183.311 219.711,-195.709"/>
<polygon fill="black" stroke="black" stroke-width="2" points="217.947,-198.775 227.967,-202.214 222.279,-193.276 217.947,-198.775"/>
</g>
<!-- 6&#45;&gt;3 -->
<g id="edge12" class="edge"><title>6&#45;&gt;3</title>
<path fill="none" stroke="black" stroke-width="2" d="M129.154,-257.513C112.602,-260.975 89.2823,-265.852 70.6306,-269.752"/>
<polygon fill="black" stroke="black" stroke-width="2" points="69.8932,-266.331 60.8214,-271.804 71.3262,-273.183 69.8932,-266.331"/>
</g>
<!-- 6&#45;&gt;4 -->
<g id="edge14" class="edge"><title>6&#45;&gt;4</title>
<path fill="none" stroke="black" stroke-width="2" d="M161.56,-234.966C176.324,-211.472 202.168,-170.346 219.202,-143.24"/>
<polygon fill="black" stroke="black" stroke-width="2" points="222.254,-144.96 224.612,-134.63 216.327,-141.235 222.254,-144.96"/>
</g>
<!-- 6&#45;&gt;5 -->
<g id="edge16" class="edge"><title>6&#45;&gt;5</title>
<path fill="none" stroke="black" stroke-width="2" d="M150.822,-231.747C151.329,-215.617 152.032,-193.236 152.603,-175.065"/>
<polygon fill="black" stroke="black" stroke-width="2" points="156.105,-175.036 152.921,-164.931 149.109,-174.817 156.105,-175.036"/>
</g>
<!-- 7&#45;&gt;2 -->
<g id="edge11" class="edge"><title>7&#45;&gt;2</title>
<path fill="none" stroke="black" stroke-width="2" d="M112.313,-113.372C120.602,-95.7696 132.918,-69.6162 142.314,-49.6623"/>
<polygon fill="black" stroke="black" stroke-width="2" points="145.568,-50.9676 146.662,-40.4293 139.235,-47.9853 145.568,-50.9676"/>
</g>
<!-- 7&#45;&gt;3 -->
<g id="edge13" class="edge"><title>7&#45;&gt;3</title>
<path fill="none" stroke="black" stroke-width="2" d="M94.4969,-152.445C83.7215,-176.867 65.2304,-218.776 52.7901,-246.972"/>
<polygon fill="black" stroke="black" stroke-width="2" points="49.4994,-245.76 48.6648,-256.322 55.9037,-248.585 49.4994,-245.76"/>
</g>
<!-- 7&#45;&gt;4 -->
<g id="edge15" class="edge"><title>7&#45;&gt;4</title>
<path fill="none" stroke="black" stroke-width="2" d="M123.02,-125.277C132.213,-122.165 143.368,-118.915 153.708,-117.306 170.355,-114.717 189.122,-114.319 204.534,-114.644"/>
<polygon fill="black" stroke="black" stroke-width="2" points="204.492,-118.144 214.599,-114.966 204.716,-111.148 204.492,-118.144"/>
</g>
</g>
</svg>

