<?xml version="1.0" encoding="UTF-8" standalone="no"?>
<!DOCTYPE svg PUBLIC "-//W3C//DTD SVG 1.1//EN"
 "http://www.w3.org/Graphics/SVG/1.1/DTD/svg11.dtd">
<!-- Generated by graphviz version 2.36.0 (20140111.2315)
 -->
<!-- Title: G Pages: 1 -->
<svg width="100%" height="100%"
 viewBox="0.00 0.00 249.23 285.32" xmlns="http://www.w3.org/2000/svg" xmlns:xlink="http://www.w3.org/1999/xlink">
<g id="graph0" class="graph" transform="scale(1 1) rotate(0) translate(4 281.324)">
<title>G</title>
<!-- 0 -->
<g id="node1" class="node"><title>0</title>
<ellipse fill="cadetblue" stroke="black" cx="21.2132" cy="-162.415" rx="21.4286" ry="21.4286"/>
<text text-anchor="middle" x="21.2132" y="-157.415" font-family="Times New Roman,serif" font-size="20.00">2</text>
</g>
<!-- 5 -->
<g id="node6" class="node"><title>5</title>
<ellipse fill="cadetblue" stroke="black" cx="135.198" cy="-157.272" rx="21.4286" ry="21.4286"/>
<text text-anchor="middle" x="135.198" y="-152.272" font-family="Times New Roman,serif" font-size="20.00">2</text>
</g>
<!-- 0&#45;&gt;5 -->
<g id="edge2" class="edge"><title>0&#45;&gt;5</title>
<path fill="none" stroke="black" stroke-width="2" d="M42.6529,-161.448C59.8475,-160.672 84.2306,-159.572 103.652,-158.695"/>
<polygon fill="black" stroke="black" stroke-width="2" points="104.023,-162.182 113.855,-158.235 103.707,-155.189 104.023,-162.182"/>
</g>
<!-- 7 -->
<g id="node8" class="node"><title>7</title>
<ellipse fill="cadetblue" stroke="black" cx="97.8922" cy="-106.84" rx="21.4286" ry="21.4286"/>
<text text-anchor="middle" x="97.8922" y="-101.84" font-family="Times New Roman,serif" font-size="20.00">2</text>
</g>
<!-- 0&#45;&gt;7 -->
<g id="edge4" class="edge"><title>0&#45;&gt;7</title>
<path fill="none" stroke="black" stroke-width="2" d="M38.6129,-149.804C48.6128,-142.557 61.3544,-133.322 72.4602,-125.273"/>
<polygon fill="black" stroke="black" stroke-width="2" points="74.5184,-128.104 80.5614,-119.401 70.4104,-122.436 74.5184,-128.104"/>
</g>
<!-- 1 -->
<g id="node2" class="node"><title>1</title>
<ellipse fill="cadetblue" stroke="black" cx="217.254" cy="-182.797" rx="21.4286" ry="21.4286"/>
<text text-anchor="middle" x="217.254" y="-177.797" font-family="Times New Roman,serif" font-size="20.00">2</text>
</g>
<!-- 4 -->
<g id="node5" class="node"><title>4</title>
<ellipse fill="cadetblue" stroke="black" cx="220.017" cy="-70.009" rx="21.4286" ry="21.4286"/>
<text text-anchor="middle" x="220.017" y="-65.009" font-family="Times New Roman,serif" font-size="20.00">2</text>
</g>
<!-- 1&#45;&gt;4 -->
<g id="edge5" class="edge"><title>1&#45;&gt;4</title>
<path fill="none" stroke="black" stroke-width="2" d="M217.774,-161.582C218.188,-144.676 218.774,-120.746 219.244,-101.589"/>
<polygon fill="black" stroke="black" stroke-width="2" points="222.745,-101.595 219.491,-91.5118 215.747,-101.423 222.745,-101.595"/>
</g>
<!-- 6 -->
<g id="node7" class="node"><title>6</title>
<ellipse fill="cadetblue" stroke="black" cx="121.338" cy="-256.11" rx="21.4286" ry="21.4286"/>
<text text-anchor="middle" x="121.338" y="-251.11" font-family="Times New Roman,serif" font-size="20.00">2</text>
</g>
<!-- 1&#45;&gt;6 -->
<g id="edge7" class="edge"><title>1&#45;&gt;6</title>
<path fill="none" stroke="black" stroke-width="2" d="M200.106,-195.904C185.239,-207.267 163.522,-223.867 146.654,-236.76"/>
<polygon fill="black" stroke="black" stroke-width="2" points="144.157,-234.263 138.337,-243.117 148.408,-239.825 144.157,-234.263"/>
</g>
<!-- 2 -->
<g id="node3" class="node"><title>2</title>
<ellipse fill="cadetblue" stroke="black" cx="131.143" cy="-21.2132" rx="21.4286" ry="21.4286"/>
<text text-anchor="middle" x="131.143" y="-16.2132" font-family="Times New Roman,serif" font-size="20.00">2</text>
</g>
<!-- 2&#45;&gt;7 -->
<g id="edge11" class="edge"><title>2&#45;&gt;7</title>
<path fill="none" stroke="black" stroke-width="2" d="M123.431,-41.073C119.264,-51.8031 114.037,-65.2641 109.399,-77.2084"/>
<polygon fill="black" stroke="black" stroke-width="2" points="106.035,-76.2029 105.677,-86.7917 112.56,-78.7368 106.035,-76.2029"/>
</g>
<!-- 3 -->
<g id="node4" class="node"><title>3</title>
<ellipse fill="cadetblue" stroke="black" cx="24.4291" cy="-236.958" rx="21.4286" ry="21.4286"/>
<text text-anchor="middle" x="24.4291" y="-231.958" font-family="Times New Roman,serif" font-size="20.00">2</text>
</g>
<!-- 3&#45;&gt;0 -->
<g id="edge1" class="edge"><title>3&#45;&gt;0</title>
<path fill="none" stroke="black" stroke-width="2" d="M23.4989,-215.397C23.2064,-208.617 22.8773,-200.987 22.5618,-193.675"/>
<polygon fill="black" stroke="black" stroke-width="2" points="26.058,-193.51 22.1302,-183.67 19.0645,-193.812 26.058,-193.51"/>
</g>
<!-- 4&#45;&gt;2 -->
<g id="edge9" class="edge"><title>4&#45;&gt;2</title>
<path fill="none" stroke="black" stroke-width="2" d="M201.169,-59.6607C188.915,-52.9325 172.722,-44.042 158.995,-36.505"/>
<polygon fill="black" stroke="black" stroke-width="2" points="160.414,-33.2914 149.964,-31.5466 157.045,-39.4274 160.414,-33.2914"/>
</g>
<!-- 5&#45;&gt;1 -->
<g id="edge6" class="edge"><title>5&#45;&gt;1</title>
<path fill="none" stroke="black" stroke-width="2" d="M155.482,-163.581C165.049,-166.557 176.657,-170.168 187.217,-173.453"/>
<polygon fill="black" stroke="black" stroke-width="2" points="186.331,-176.843 196.92,-176.471 188.411,-170.159 186.331,-176.843"/>
</g>
<!-- 5&#45;&gt;2 -->
<g id="edge10" class="edge"><title>5&#45;&gt;2</title>
<path fill="none" stroke="black" stroke-width="2" d="M134.565,-136.013C133.902,-113.778 132.854,-78.6231 132.092,-53.07"/>
<polygon fill="black" stroke="black" stroke-width="2" points="135.582,-52.6634 131.785,-42.7721 128.585,-52.872 135.582,-52.6634"/>
</g>
<!-- 5&#45;&gt;6 -->
<g id="edge15" class="edge"><title>5&#45;&gt;6</title>
<path fill="none" stroke="black" stroke-width="2" d="M132.191,-178.718C130.289,-192.281 127.799,-210.034 125.684,-225.115"/>
<polygon fill="black" stroke="black" stroke-width="2" points="122.215,-224.656 124.292,-235.045 129.147,-225.628 122.215,-224.656"/>
</g>
<!-- 6&#45;&gt;0 -->
<g id="edge3" class="edge"><title>6&#45;&gt;0</title>
<path fill="none" stroke="black" stroke-width="2" d="M105.693,-241.47C89.2345,-226.068 63.1561,-201.665 44.3252,-184.043"/>
<polygon fill="black" stroke="black" stroke-width="2" points="46.4409,-181.229 36.7478,-176.952 41.658,-186.34 46.4409,-181.229"/>
</g>
<!-- 6&#45;&gt;3 -->
<g id="edge12" class="edge"><title>6&#45;&gt;3</title>
<path fill="none" stroke="black" stroke-width="2" d="M100.31,-251.955C87.23,-249.37 70.1741,-245.999 55.5463,-243.108"/>
<polygon fill="black" stroke="black" stroke-width="2" points="55.9047,-239.611 45.4158,-241.106 54.5474,-246.478 55.9047,-239.611"/>
</g>
<!-- 7&#45;&gt;1 -->
<g id="edge8" class="edge"><title>7&#45;&gt;1</title>
<path fill="none" stroke="black" stroke-width="2" d="M116.802,-117.068C127.771,-123.136 141.768,-131.115 153.881,-138.755 166.614,-146.786 180.378,-156.251 191.815,-164.345"/>
<polygon fill="black" stroke="black" stroke-width="2" points="189.878,-167.263 200.052,-170.22 193.943,-161.564 189.878,-167.263"/>
</g>
<!-- 7&#45;&gt;3 -->
<g id="edge13" class="edge"><title>7&#45;&gt;3</title>
<path fill="none" stroke="black" stroke-width="2" d="M87.3668,-125.483C74.9289,-147.513 54.1262,-184.359 39.8654,-209.617"/>
<polygon fill="black" stroke="black" stroke-width="2" points="36.8038,-207.921 34.9351,-218.35 42.8993,-211.363 36.8038,-207.921"/>
</g>
<!-- 7&#45;&gt;4 -->
<g id="edge14" class="edge"><title>7&#45;&gt;4</title>
<path fill="none" stroke="black" stroke-width="2" d="M118.333,-100.676C137.883,-94.7798 167.599,-85.8178 189.866,-79.1023"/>
<polygon fill="black" stroke="black" stroke-width="2" points="190.946,-82.4323 199.51,-76.1939 188.925,-75.7304 190.946,-82.4323"/>
</g>
<!-- 7&#45;&gt;5 -->
<g id="edge16" class="edge"><title>7&#45;&gt;5</title>
<path fill="none" stroke="black" stroke-width="2" d="M110.522,-123.914C112.467,-126.543 114.51,-129.304 116.552,-132.065"/>
<polygon fill="black" stroke="black" stroke-width="2" points="113.82,-134.258 122.581,-140.216 119.448,-130.095 113.82,-134.258"/>
</g>
</g>
</svg>

