<?xml version="1.0" encoding="UTF-8" standalone="no"?>
<!DOCTYPE svg PUBLIC "-//W3C//DTD SVG 1.1//EN"
 "http://www.w3.org/Graphics/SVG/1.1/DTD/svg11.dtd">
<!-- Generated by graphviz version 2.36.0 (20140111.2315)
 -->
<!-- Title: G Pages: 1 -->
<svg width="100%" height="100%"
 viewBox="0.00 0.00 269.42 294.97" xmlns="http://www.w3.org/2000/svg" xmlns:xlink="http://www.w3.org/1999/xlink">
<g id="graph0" class="graph" transform="scale(1 1) rotate(0) translate(4 290.968)">
<title>G</title>
<!-- 0 -->
<g id="node1" class="node"><title>0</title>
<ellipse fill="cadetblue" stroke="black" cx="21.2132" cy="-176.446" rx="21.4286" ry="21.4286"/>
<text text-anchor="middle" x="21.2132" y="-171.446" font-family="Times New Roman,serif" font-size="20.00">2</text>
</g>
<!-- 6 -->
<g id="node7" class="node"><title>6</title>
<ellipse fill="cadetblue" stroke="black" cx="128.779" cy="-230.832" rx="21.4286" ry="21.4286"/>
<text text-anchor="middle" x="128.779" y="-225.832" font-family="Times New Roman,serif" font-size="20.00">2</text>
</g>
<!-- 0&#45;&gt;6 -->
<g id="edge3" class="edge"><title>0&#45;&gt;6</title>
<path fill="none" stroke="black" stroke-width="2" d="M40.4438,-186.169C57.1931,-194.638 81.6955,-207.026 100.648,-216.609"/>
<polygon fill="black" stroke="black" stroke-width="2" points="99.2114,-219.805 109.715,-221.193 102.37,-213.558 99.2114,-219.805"/>
</g>
<!-- 7 -->
<g id="node8" class="node"><title>7</title>
<ellipse fill="brown" stroke="black" cx="138.383" cy="-147.978" rx="21.4286" ry="21.4286"/>
<text text-anchor="middle" x="138.383" y="-142.978" font-family="Times New Roman,serif" font-size="20.00">3</text>
</g>
<!-- 0&#45;&gt;7 -->
<g id="edge4" class="edge"><title>0&#45;&gt;7</title>
<path fill="none" stroke="black" stroke-width="2" d="M41.8911,-171.422C60.1005,-166.998 86.8725,-160.493 107.6,-155.457"/>
<polygon fill="black" stroke="black" stroke-width="2" points="108.627,-158.809 117.518,-153.047 106.974,-152.007 108.627,-158.809"/>
</g>
<!-- 1 -->
<g id="node2" class="node"><title>1</title>
<ellipse fill="cadetblue" stroke="black" cx="222.905" cy="-178.434" rx="21.4286" ry="21.4286"/>
<text text-anchor="middle" x="222.905" y="-173.434" font-family="Times New Roman,serif" font-size="20.00">2</text>
</g>
<!-- 1&#45;&gt;6 -->
<g id="edge7" class="edge"><title>1&#45;&gt;6</title>
<path fill="none" stroke="black" stroke-width="2" d="M204.309,-188.786C190.643,-196.394 171.849,-206.856 156.427,-215.441"/>
<polygon fill="black" stroke="black" stroke-width="2" points="154.372,-212.58 147.337,-220.502 157.776,-218.696 154.372,-212.58"/>
</g>
<!-- 1&#45;&gt;7 -->
<g id="edge8" class="edge"><title>1&#45;&gt;7</title>
<path fill="none" stroke="black" stroke-width="2" d="M202.874,-171.216C192.529,-167.489 179.699,-162.865 168.213,-158.727"/>
<polygon fill="black" stroke="black" stroke-width="2" points="169.157,-155.346 158.563,-155.249 166.784,-161.932 169.157,-155.346"/>
</g>
<!-- 2 -->
<g id="node3" class="node"><title>2</title>
<ellipse fill="cadetblue" stroke="black" cx="144.82" cy="-21.2132" rx="21.4286" ry="21.4286"/>
<text text-anchor="middle" x="144.82" y="-16.2132" font-family="Times New Roman,serif" font-size="20.00">2</text>
</g>
<!-- 4 -->
<g id="node5" class="node"><title>4</title>
<ellipse fill="cadetblue" stroke="black" cx="240.209" cy="-77.3511" rx="21.4286" ry="21.4286"/>
<text text-anchor="middle" x="240.209" y="-72.3511" font-family="Times New Roman,serif" font-size="20.00">2</text>
</g>
<!-- 2&#45;&gt;4 -->
<g id="edge9" class="edge"><title>2&#45;&gt;4</title>
<path fill="none" stroke="black" stroke-width="2" d="M163.212,-32.0372C177.332,-40.347 197.046,-51.9492 212.992,-61.3332"/>
<polygon fill="black" stroke="black" stroke-width="2" points="211.48,-64.5047 221.874,-66.5604 215.031,-58.4719 211.48,-64.5047"/>
</g>
<!-- 3 -->
<g id="node4" class="node"><title>3</title>
<ellipse fill="cadetblue" stroke="black" cx="54.7841" cy="-265.755" rx="21.4286" ry="21.4286"/>
<text text-anchor="middle" x="54.7841" y="-260.755" font-family="Times New Roman,serif" font-size="20.00">2</text>
</g>
<!-- 3&#45;&gt;0 -->
<g id="edge1" class="edge"><title>3&#45;&gt;0</title>
<path fill="none" stroke="black" stroke-width="2" d="M47.1664,-245.489C42.7574,-233.76 37.1312,-218.793 32.245,-205.794"/>
<polygon fill="black" stroke="black" stroke-width="2" points="35.48,-204.452 28.6852,-196.323 28.9277,-206.916 35.48,-204.452"/>
</g>
<!-- 4&#45;&gt;1 -->
<g id="edge5" class="edge"><title>4&#45;&gt;1</title>
<path fill="none" stroke="black" stroke-width="2" d="M236.624,-98.2956C234.188,-112.527 230.924,-131.592 228.191,-147.556"/>
<polygon fill="black" stroke="black" stroke-width="2" points="224.723,-147.069 226.486,-157.517 231.623,-148.251 224.723,-147.069"/>
</g>
<!-- 5 -->
<g id="node6" class="node"><title>5</title>
<ellipse fill="cadetblue" stroke="black" cx="87.9513" cy="-104.888" rx="21.4286" ry="21.4286"/>
<text text-anchor="middle" x="87.9513" y="-99.888" font-family="Times New Roman,serif" font-size="20.00">2</text>
</g>
<!-- 5&#45;&gt;0 -->
<g id="edge2" class="edge"><title>5&#45;&gt;0</title>
<path fill="none" stroke="black" stroke-width="2" d="M73.4701,-120.415C64.5857,-129.941 53.0377,-142.323 43.0576,-153.024"/>
<polygon fill="black" stroke="black" stroke-width="2" points="40.3892,-150.753 36.1282,-160.454 45.5083,-155.528 40.3892,-150.753"/>
</g>
<!-- 5&#45;&gt;1 -->
<g id="edge6" class="edge"><title>5&#45;&gt;1</title>
<path fill="none" stroke="black" stroke-width="2" d="M108.19,-111.259C117.449,-114.266 128.528,-117.997 138.384,-121.673 146.768,-124.8 149.202,-124.962 156.984,-129.379 171.6,-137.675 186.725,-148.725 198.795,-158.236"/>
<polygon fill="black" stroke="black" stroke-width="2" points="196.631,-160.988 206.619,-164.523 201.016,-155.531 196.631,-160.988"/>
</g>
<!-- 5&#45;&gt;2 -->
<g id="edge10" class="edge"><title>5&#45;&gt;2</title>
<path fill="none" stroke="black" stroke-width="2" d="M100.012,-87.1427C107.853,-75.6053 118.215,-60.3598 126.998,-47.4356"/>
<polygon fill="black" stroke="black" stroke-width="2" points="130.051,-49.1709 132.777,-38.9329 124.261,-45.2361 130.051,-49.1709"/>
</g>
<!-- 6&#45;&gt;3 -->
<g id="edge12" class="edge"><title>6&#45;&gt;3</title>
<path fill="none" stroke="black" stroke-width="2" d="M109.338,-240.008C101.351,-243.777 91.9424,-248.218 83.2087,-252.339"/>
<polygon fill="black" stroke="black" stroke-width="2" points="81.6452,-249.207 74.0956,-256.64 84.6328,-255.538 81.6452,-249.207"/>
</g>
<!-- 6&#45;&gt;5 -->
<g id="edge15" class="edge"><title>6&#45;&gt;5</title>
<path fill="none" stroke="black" stroke-width="2" d="M122.219,-210.597C115.583,-190.124 105.247,-158.24 97.6609,-134.84"/>
<polygon fill="black" stroke="black" stroke-width="2" points="100.908,-133.506 94.4947,-125.073 94.2491,-135.665 100.908,-133.506"/>
</g>
<!-- 6&#45;&gt;7 -->
<g id="edge17" class="edge"><title>6&#45;&gt;7</title>
<path fill="none" stroke="black" stroke-width="2" d="M131.252,-209.495C132.316,-200.314 133.582,-189.396 134.749,-179.324"/>
<polygon fill="black" stroke="black" stroke-width="2" points="138.243,-179.579 135.918,-169.243 131.29,-178.773 138.243,-179.579"/>
</g>
<!-- 7&#45;&gt;2 -->
<g id="edge11" class="edge"><title>7&#45;&gt;2</title>
<path fill="none" stroke="black" stroke-width="2" d="M139.46,-126.76C140.491,-106.468 142.057,-75.6231 143.231,-52.5098"/>
<polygon fill="black" stroke="black" stroke-width="2" points="146.728,-52.6646 143.739,-42.4999 139.737,-52.3095 146.728,-52.6646"/>
</g>
<!-- 7&#45;&gt;3 -->
<g id="edge13" class="edge"><title>7&#45;&gt;3</title>
<path fill="none" stroke="black" stroke-width="2" d="M126.048,-165.356C112.094,-185.014 89.2278,-217.229 73.1686,-239.854"/>
<polygon fill="black" stroke="black" stroke-width="2" points="70.1041,-238.124 67.17,-248.305 75.8123,-242.176 70.1041,-238.124"/>
</g>
<!-- 7&#45;&gt;4 -->
<g id="edge14" class="edge"><title>7&#45;&gt;4</title>
<path fill="none" stroke="black" stroke-width="2" d="M156.12,-135.675C172.181,-124.535 196.044,-107.984 214.251,-95.3556"/>
<polygon fill="black" stroke="black" stroke-width="2" points="216.453,-98.0876 222.676,-89.5123 212.464,-92.3357 216.453,-98.0876"/>
</g>
<!-- 7&#45;&gt;5 -->
<g id="edge16" class="edge"><title>7&#45;&gt;5</title>
<path fill="none" stroke="black" stroke-width="2" d="M122.148,-134.107C118.909,-131.339 115.442,-128.377 112.004,-125.439"/>
<polygon fill="black" stroke="black" stroke-width="2" points="114.032,-122.568 104.155,-118.733 109.485,-127.89 114.032,-122.568"/>
</g>
</g>
</svg>

