<?xml version="1.0" encoding="UTF-8" standalone="no"?>
<!DOCTYPE svg PUBLIC "-//W3C//DTD SVG 1.1//EN"
 "http://www.w3.org/Graphics/SVG/1.1/DTD/svg11.dtd">
<!-- Generated by graphviz version 2.36.0 (20140111.2315)
 -->
<!-- Title: G Pages: 1 -->
<svg width="100%" height="100%"
 viewBox="0.00 0.00 235.30 201.20" xmlns="http://www.w3.org/2000/svg" xmlns:xlink="http://www.w3.org/1999/xlink">
<g id="graph0" class="graph" transform="scale(1 1) rotate(0) translate(4 197.199)">
<title>G</title>
<!-- 0 -->
<g id="node1" class="node"><title>0</title>
<ellipse fill="cadetblue" stroke="black" cx="33.3782" cy="-86.3817" rx="21.4286" ry="21.4286"/>
<text text-anchor="middle" x="33.3782" y="-81.3817" font-family="Times New Roman,serif" font-size="20.00">2</text>
</g>
<!-- 6 -->
<g id="node7" class="node"><title>6</title>
<ellipse fill="cadetblue" stroke="black" cx="141.866" cy="-89.3543" rx="21.4286" ry="21.4286"/>
<text text-anchor="middle" x="141.866" y="-84.3543" font-family="Times New Roman,serif" font-size="20.00">2</text>
</g>
<!-- 0&#45;&gt;6 -->
<g id="edge3" class="edge"><title>0&#45;&gt;6</title>
<path fill="none" stroke="black" stroke-width="2" d="M54.812,-86.969C70.6367,-87.4026 92.429,-87.9997 110.251,-88.488"/>
<polygon fill="black" stroke="black" stroke-width="2" points="110.385,-91.9929 120.477,-88.7682 110.577,-84.9955 110.385,-91.9929"/>
</g>
<!-- 7 -->
<g id="node8" class="node"><title>7</title>
<ellipse fill="brown" stroke="black" cx="91.4347" cy="-94.0867" rx="21.4286" ry="21.4286"/>
<text text-anchor="middle" x="91.4347" y="-89.0867" font-family="Times New Roman,serif" font-size="20.00">3</text>
</g>
<!-- 0&#45;&gt;7 -->
<g id="edge4" class="edge"><title>0&#45;&gt;7</title>
<path fill="none" stroke="black" stroke-width="2" d="M54.6667,-89.207C56.4021,-89.4373 58.1773,-89.6729 59.965,-89.9102"/>
<polygon fill="black" stroke="black" stroke-width="2" points="59.7753,-93.4156 70.1489,-91.2617 60.6963,-86.4764 59.7753,-93.4156"/>
</g>
<!-- 1 -->
<g id="node2" class="node"><title>1</title>
<ellipse fill="cadetblue" stroke="black" cx="175.92" cy="-171.986" rx="21.4286" ry="21.4286"/>
<text text-anchor="middle" x="175.92" y="-166.986" font-family="Times New Roman,serif" font-size="20.00">2</text>
</g>
<!-- 1&#45;&gt;7 -->
<g id="edge7" class="edge"><title>1&#45;&gt;7</title>
<path fill="none" stroke="black" stroke-width="2" d="M160.029,-157.334C147.284,-145.583 129.212,-128.919 114.816,-115.646"/>
<polygon fill="black" stroke="black" stroke-width="2" points="116.979,-112.879 107.255,-108.673 112.234,-118.025 116.979,-112.879"/>
</g>
<!-- 2 -->
<g id="node3" class="node"><title>2</title>
<ellipse fill="cadetblue" stroke="black" cx="163.488" cy="-21.2132" rx="21.4286" ry="21.4286"/>
<text text-anchor="middle" x="163.488" y="-16.2132" font-family="Times New Roman,serif" font-size="20.00">2</text>
</g>
<!-- 2&#45;&gt;7 -->
<g id="edge10" class="edge"><title>2&#45;&gt;7</title>
<path fill="none" stroke="black" stroke-width="2" d="M148.558,-36.3126C138.482,-46.5038 125.006,-60.1334 113.673,-71.595"/>
<polygon fill="black" stroke="black" stroke-width="2" points="111.135,-69.184 106.593,-78.7559 116.113,-74.1057 111.135,-69.184"/>
</g>
<!-- 3 -->
<g id="node4" class="node"><title>3</title>
<ellipse fill="cadetblue" stroke="black" cx="21.2132" cy="-161.098" rx="21.4286" ry="21.4286"/>
<text text-anchor="middle" x="21.2132" y="-156.098" font-family="Times New Roman,serif" font-size="20.00">2</text>
</g>
<!-- 3&#45;&gt;0 -->
<g id="edge1" class="edge"><title>3&#45;&gt;0</title>
<path fill="none" stroke="black" stroke-width="2" d="M24.6667,-139.887C25.8064,-132.887 27.0986,-124.951 28.3322,-117.374"/>
<polygon fill="black" stroke="black" stroke-width="2" points="31.8057,-117.819 29.9582,-107.387 24.8966,-116.694 31.8057,-117.819"/>
</g>
<!-- 4 -->
<g id="node5" class="node"><title>4</title>
<ellipse fill="cadetblue" stroke="black" cx="206.083" cy="-107.336" rx="21.4286" ry="21.4286"/>
<text text-anchor="middle" x="206.083" y="-102.336" font-family="Times New Roman,serif" font-size="20.00">2</text>
</g>
<!-- 4&#45;&gt;1 -->
<g id="edge5" class="edge"><title>4&#45;&gt;1</title>
<path fill="none" stroke="black" stroke-width="2" d="M197.033,-126.733C194.588,-131.975 191.889,-137.76 189.261,-143.392"/>
<polygon fill="black" stroke="black" stroke-width="2" points="186.02,-142.061 184.964,-152.603 192.364,-145.02 186.02,-142.061"/>
</g>
<!-- 4&#45;&gt;2 -->
<g id="edge8" class="edge"><title>4&#45;&gt;2</title>
<path fill="none" stroke="black" stroke-width="2" d="M196.63,-88.2229C191.005,-76.8498 183.764,-62.2089 177.485,-49.5147"/>
<polygon fill="black" stroke="black" stroke-width="2" points="180.485,-47.6852 172.914,-40.2733 174.211,-50.7886 180.485,-47.6852"/>
</g>
<!-- 5 -->
<g id="node6" class="node"><title>5</title>
<ellipse fill="cadetblue" stroke="black" cx="100.908" cy="-159.234" rx="21.4286" ry="21.4286"/>
<text text-anchor="middle" x="100.908" y="-154.234" font-family="Times New Roman,serif" font-size="20.00">2</text>
</g>
<!-- 5&#45;&gt;0 -->
<g id="edge2" class="edge"><title>5&#45;&gt;0</title>
<path fill="none" stroke="black" stroke-width="2" d="M86.2551,-143.427C77.1404,-133.593 65.2552,-120.771 55.062,-109.775"/>
<polygon fill="black" stroke="black" stroke-width="2" points="57.3676,-107.113 48.0026,-102.159 52.2338,-111.872 57.3676,-107.113"/>
</g>
<!-- 5&#45;&gt;3 -->
<g id="edge11" class="edge"><title>5&#45;&gt;3</title>
<path fill="none" stroke="black" stroke-width="2" d="M79.5513,-159.734C71.3328,-159.926 61.7659,-160.15 52.7856,-160.36"/>
<polygon fill="black" stroke="black" stroke-width="2" points="52.5443,-156.864 42.6289,-160.597 52.708,-163.862 52.5443,-156.864"/>
</g>
<!-- 5&#45;&gt;4 -->
<g id="edge13" class="edge"><title>5&#45;&gt;4</title>
<path fill="none" stroke="black" stroke-width="2" d="M120.199,-149.716C136.359,-141.741 159.645,-130.251 177.895,-121.246"/>
<polygon fill="black" stroke="black" stroke-width="2" points="179.496,-124.359 186.915,-116.795 176.398,-118.081 179.496,-124.359"/>
</g>
<!-- 6&#45;&gt;1 -->
<g id="edge6" class="edge"><title>6&#45;&gt;1</title>
<path fill="none" stroke="black" stroke-width="2" d="M150.11,-109.357C154.251,-119.405 159.346,-131.77 163.913,-142.851"/>
<polygon fill="black" stroke="black" stroke-width="2" points="160.706,-144.255 167.752,-152.167 167.178,-141.588 160.706,-144.255"/>
</g>
<!-- 6&#45;&gt;2 -->
<g id="edge9" class="edge"><title>6&#45;&gt;2</title>
<path fill="none" stroke="black" stroke-width="2" d="M148.353,-68.9097C150.106,-63.3847 152.041,-57.2873 153.925,-51.3513"/>
<polygon fill="black" stroke="black" stroke-width="2" points="157.317,-52.2336 157.005,-41.6434 150.644,-50.1165 157.317,-52.2336"/>
</g>
<!-- 6&#45;&gt;4 -->
<g id="edge14" class="edge"><title>6&#45;&gt;4</title>
<path fill="none" stroke="black" stroke-width="2" d="M162.538,-95.1429C166.778,-96.3301 171.323,-97.6029 175.82,-98.8621"/>
<polygon fill="black" stroke="black" stroke-width="2" points="174.877,-102.232 185.45,-101.559 176.764,-95.4917 174.877,-102.232"/>
</g>
<!-- 6&#45;&gt;5 -->
<g id="edge15" class="edge"><title>6&#45;&gt;5</title>
<path fill="none" stroke="black" stroke-width="2" d="M131.105,-107.715C126.765,-115.118 121.668,-123.815 116.909,-131.934"/>
<polygon fill="black" stroke="black" stroke-width="2" points="113.777,-130.357 111.74,-140.754 119.816,-133.897 113.777,-130.357"/>
</g>
<!-- 7&#45;&gt;3 -->
<g id="edge12" class="edge"><title>7&#45;&gt;3</title>
<path fill="none" stroke="black" stroke-width="2" d="M75.8503,-108.959C66.5771,-117.808 54.6395,-129.2 44.2892,-139.077"/>
<polygon fill="black" stroke="black" stroke-width="2" points="41.5723,-136.832 36.7541,-146.268 46.4049,-141.896 41.5723,-136.832"/>
</g>
<!-- 7&#45;&gt;5 -->
<g id="edge16" class="edge"><title>7&#45;&gt;5</title>
<path fill="none" stroke="black" stroke-width="2" d="M94.5367,-115.419C95.1151,-119.396 95.7305,-123.629 96.3422,-127.835"/>
<polygon fill="black" stroke="black" stroke-width="2" points="92.9289,-128.685 97.8315,-138.077 99.856,-127.678 92.9289,-128.685"/>
</g>
<!-- 7&#45;&gt;6 -->
<g id="edge17" class="edge"><title>7&#45;&gt;6</title>
<path fill="none" stroke="black" stroke-width="2" d="M112.822,-92.0797C112.983,-92.0646 113.145,-92.0495 113.306,-92.0343"/>
<polygon fill="black" stroke="black" stroke-width="2" points="110.977,-95.7684 120.607,-91.3493 110.323,-88.799 110.977,-95.7684"/>
</g>
</g>
</svg>

