<?xml version="1.0" encoding="UTF-8" standalone="no"?>
<!DOCTYPE svg PUBLIC "-//W3C//DTD SVG 1.1//EN"
 "http://www.w3.org/Graphics/SVG/1.1/DTD/svg11.dtd">
<!-- Generated by graphviz version 2.36.0 (20140111.2315)
 -->
<!-- Title: G Pages: 1 -->
<svg width="100%" height="100%"
 viewBox="0.00 0.00 262.65 258.64" xmlns="http://www.w3.org/2000/svg" xmlns:xlink="http://www.w3.org/1999/xlink">
<g id="graph0" class="graph" transform="scale(1 1) rotate(0) translate(4 254.638)">
<title>G</title>
<!-- 0 -->
<g id="node1" class="node"><title>0</title>
<ellipse fill="cadetblue" stroke="black" cx="21.2132" cy="-171.866" rx="21.4286" ry="21.4286"/>
<text text-anchor="middle" x="21.2132" y="-166.866" font-family="Times New Roman,serif" font-size="20.00">2</text>
</g>
<!-- 3 -->
<g id="node4" class="node"><title>3</title>
<ellipse fill="cadetblue" stroke="black" cx="94.2803" cy="-229.425" rx="21.4286" ry="21.4286"/>
<text text-anchor="middle" x="94.2803" y="-224.425" font-family="Times New Roman,serif" font-size="20.00">2</text>
</g>
<!-- 0&#45;&gt;3 -->
<g id="edge1" class="edge"><title>0&#45;&gt;3</title>
<path fill="none" stroke="black" stroke-width="2" d="M38.1599,-185.216C47.4742,-192.553 59.1999,-201.79 69.5216,-209.921"/>
<polygon fill="black" stroke="black" stroke-width="2" points="67.4042,-212.709 77.4255,-216.148 71.736,-207.21 67.4042,-212.709"/>
</g>
<!-- 1 -->
<g id="node2" class="node"><title>1</title>
<ellipse fill="cadetblue" stroke="black" cx="121.035" cy="-21.2132" rx="21.4286" ry="21.4286"/>
<text text-anchor="middle" x="121.035" y="-16.2132" font-family="Times New Roman,serif" font-size="20.00">2</text>
</g>
<!-- 5 -->
<g id="node6" class="node"><title>5</title>
<ellipse fill="cadetblue" stroke="black" cx="132.344" cy="-121.715" rx="21.4286" ry="21.4286"/>
<text text-anchor="middle" x="132.344" y="-116.715" font-family="Times New Roman,serif" font-size="20.00">2</text>
</g>
<!-- 1&#45;&gt;5 -->
<g id="edge5" class="edge"><title>1&#45;&gt;5</title>
<path fill="none" stroke="black" stroke-width="2" d="M123.433,-42.5271C124.993,-56.3847 127.053,-74.6961 128.8,-90.2195"/>
<polygon fill="black" stroke="black" stroke-width="2" points="125.353,-90.8862 129.949,-100.432 132.309,-90.1034 125.353,-90.8862"/>
</g>
<!-- 2 -->
<g id="node3" class="node"><title>2</title>
<ellipse fill="cadetblue" stroke="black" cx="183.006" cy="-55.7427" rx="21.4286" ry="21.4286"/>
<text text-anchor="middle" x="183.006" y="-50.7427" font-family="Times New Roman,serif" font-size="20.00">2</text>
</g>
<!-- 6 -->
<g id="node7" class="node"><title>6</title>
<ellipse fill="cadetblue" stroke="black" cx="184.548" cy="-174.917" rx="21.4286" ry="21.4286"/>
<text text-anchor="middle" x="184.548" y="-169.917" font-family="Times New Roman,serif" font-size="20.00">2</text>
</g>
<!-- 2&#45;&gt;6 -->
<g id="edge8" class="edge"><title>2&#45;&gt;6</title>
<path fill="none" stroke="black" stroke-width="2" d="M183.282,-77.0487C183.52,-95.491 183.869,-122.418 184.14,-143.361"/>
<polygon fill="black" stroke="black" stroke-width="2" points="180.64,-143.44 184.27,-153.394 187.64,-143.349 180.64,-143.44"/>
</g>
<!-- 3&#45;&gt;6 -->
<g id="edge10" class="edge"><title>3&#45;&gt;6</title>
<path fill="none" stroke="black" stroke-width="2" d="M112.547,-218.395C125.517,-210.563 143.139,-199.922 157.704,-191.127"/>
<polygon fill="black" stroke="black" stroke-width="2" points="159.557,-194.097 166.308,-185.931 155.939,-188.104 159.557,-194.097"/>
</g>
<!-- 4 -->
<g id="node5" class="node"><title>4</title>
<ellipse fill="cadetblue" stroke="black" cx="233.437" cy="-94.5965" rx="21.4286" ry="21.4286"/>
<text text-anchor="middle" x="233.437" y="-89.5965" font-family="Times New Roman,serif" font-size="20.00">2</text>
</g>
<!-- 4&#45;&gt;1 -->
<g id="edge4" class="edge"><title>4&#45;&gt;1</title>
<path fill="none" stroke="black" stroke-width="2" d="M212.077,-92.2615C197.471,-89.7784 178.308,-84.6909 164.379,-74.3153 154.587,-67.0222 145.683,-57.0461 138.526,-47.7088"/>
<polygon fill="black" stroke="black" stroke-width="2" points="141.192,-45.4241 132.471,-39.4085 135.537,-49.5499 141.192,-45.4241"/>
</g>
<!-- 4&#45;&gt;2 -->
<g id="edge7" class="edge"><title>4&#45;&gt;2</title>
<path fill="none" stroke="black" stroke-width="2" d="M216.364,-81.4424C213.735,-79.417 210.973,-77.2897 208.212,-75.1625"/>
<polygon fill="black" stroke="black" stroke-width="2" points="210.12,-72.2138 200.062,-68.8833 205.848,-77.759 210.12,-72.2138"/>
</g>
<!-- 5&#45;&gt;0 -->
<g id="edge2" class="edge"><title>5&#45;&gt;0</title>
<path fill="none" stroke="black" stroke-width="2" d="M112.987,-130.451C95.5647,-138.313 69.7311,-149.971 49.9074,-158.917"/>
<polygon fill="black" stroke="black" stroke-width="2" points="48.397,-155.759 40.7218,-163.062 51.2764,-162.139 48.397,-155.759"/>
</g>
<!-- 5&#45;&gt;4 -->
<g id="edge12" class="edge"><title>5&#45;&gt;4</title>
<path fill="none" stroke="black" stroke-width="2" d="M153.291,-116.096C167.618,-112.253 186.844,-107.095 202.875,-102.795"/>
<polygon fill="black" stroke="black" stroke-width="2" points="204.112,-106.087 212.864,-100.116 202.298,-99.3261 204.112,-106.087"/>
</g>
<!-- 7 -->
<g id="node8" class="node"><title>7</title>
<ellipse fill="cadetblue" stroke="black" cx="78.186" cy="-112.789" rx="21.4286" ry="21.4286"/>
<text text-anchor="middle" x="78.186" y="-107.789" font-family="Times New Roman,serif" font-size="20.00">2</text>
</g>
<!-- 5&#45;&gt;7 -->
<g id="edge15" class="edge"><title>5&#45;&gt;7</title>
<path fill="none" stroke="black" stroke-width="2" d="M111.25,-118.239C110.638,-118.138 110.021,-118.036 109.401,-117.934"/>
<polygon fill="black" stroke="black" stroke-width="2" points="109.748,-114.444 99.3117,-116.271 108.609,-121.351 109.748,-114.444"/>
</g>
<!-- 6&#45;&gt;4 -->
<g id="edge13" class="edge"><title>6&#45;&gt;4</title>
<path fill="none" stroke="black" stroke-width="2" d="M195.642,-156.691C201.955,-146.319 209.982,-133.131 217.014,-121.579"/>
<polygon fill="black" stroke="black" stroke-width="2" points="220.178,-123.112 222.388,-112.75 214.198,-119.473 220.178,-123.112"/>
</g>
<!-- 6&#45;&gt;5 -->
<g id="edge14" class="edge"><title>6&#45;&gt;5</title>
<path fill="none" stroke="black" stroke-width="2" d="M169.449,-159.529C164.755,-154.745 159.48,-149.37 154.413,-144.206"/>
<polygon fill="black" stroke="black" stroke-width="2" points="156.732,-141.572 147.23,-136.885 151.735,-146.474 156.732,-141.572"/>
</g>
<!-- 6&#45;&gt;7 -->
<g id="edge16" class="edge"><title>6&#45;&gt;7</title>
<path fill="none" stroke="black" stroke-width="2" d="M164.723,-166.525C150.183,-160.06 130.179,-150.513 113.662,-140.232 110.017,-137.964 106.298,-135.4 102.704,-132.773"/>
<polygon fill="black" stroke="black" stroke-width="2" points="104.72,-129.909 94.6422,-126.638 100.481,-135.479 104.72,-129.909"/>
</g>
<!-- 7&#45;&gt;0 -->
<g id="edge3" class="edge"><title>7&#45;&gt;0</title>
<path fill="none" stroke="black" stroke-width="2" d="M63.2171,-128.311C57.1158,-134.638 49.9375,-142.081 43.2578,-149.007"/>
<polygon fill="black" stroke="black" stroke-width="2" points="40.7024,-146.615 36.28,-156.243 45.7411,-151.474 40.7024,-146.615"/>
</g>
<!-- 7&#45;&gt;1 -->
<g id="edge6" class="edge"><title>7&#45;&gt;1</title>
<path fill="none" stroke="black" stroke-width="2" d="M87.2732,-93.3684C93.1814,-80.7415 100.988,-64.0564 107.607,-49.9117"/>
<polygon fill="black" stroke="black" stroke-width="2" points="110.893,-51.147 111.961,-40.6061 104.553,-48.1803 110.893,-51.147"/>
</g>
<!-- 7&#45;&gt;2 -->
<g id="edge9" class="edge"><title>7&#45;&gt;2</title>
<path fill="none" stroke="black" stroke-width="2" d="M96.9257,-102.591C113.147,-93.7625 136.83,-80.8733 155.251,-70.8481"/>
<polygon fill="black" stroke="black" stroke-width="2" points="156.965,-73.9001 164.075,-66.0455 153.618,-67.7516 156.965,-73.9001"/>
</g>
<!-- 7&#45;&gt;3 -->
<g id="edge11" class="edge"><title>7&#45;&gt;3</title>
<path fill="none" stroke="black" stroke-width="2" d="M81.1006,-133.911C83.569,-151.8 87.1433,-177.703 89.947,-198.022"/>
<polygon fill="black" stroke="black" stroke-width="2" points="86.4989,-198.639 91.3331,-208.066 93.4332,-197.682 86.4989,-198.639"/>
</g>
</g>
</svg>

