<?xml version="1.0" encoding="UTF-8" standalone="no"?>
<!DOCTYPE svg PUBLIC "-//W3C//DTD SVG 1.1//EN"
 "http://www.w3.org/Graphics/SVG/1.1/DTD/svg11.dtd">
<!-- Generated by graphviz version 2.36.0 (20140111.2315)
 -->
<!-- Title: G Pages: 1 -->
<svg width="100%" height="100%"
 viewBox="0.00 0.00 320.17 233.19" xmlns="http://www.w3.org/2000/svg" xmlns:xlink="http://www.w3.org/1999/xlink">
<g id="graph0" class="graph" transform="scale(1 1) rotate(0) translate(4 229.189)">
<title>G</title>
<!-- 0 -->
<g id="node1" class="node"><title>0</title>
<ellipse fill="cadetblue" stroke="black" cx="47.0309" cy="-66.0236" rx="21.4286" ry="21.4286"/>
<text text-anchor="middle" x="47.0309" y="-61.0236" font-family="Times New Roman,serif" font-size="20.00">2</text>
</g>
<!-- 6 -->
<g id="node7" class="node"><title>6</title>
<ellipse fill="cadetblue" stroke="black" cx="106.566" cy="-172.329" rx="21.4286" ry="21.4286"/>
<text text-anchor="middle" x="106.566" y="-167.329" font-family="Times New Roman,serif" font-size="20.00">2</text>
</g>
<!-- 0&#45;&gt;6 -->
<g id="edge3" class="edge"><title>0&#45;&gt;6</title>
<path fill="none" stroke="black" stroke-width="2" d="M57.4012,-84.5405C66.7346,-101.206 80.5743,-125.918 91.1942,-144.88"/>
<polygon fill="black" stroke="black" stroke-width="2" points="88.175,-146.653 96.1151,-153.667 94.2825,-143.232 88.175,-146.653"/>
</g>
<!-- 1 -->
<g id="node2" class="node"><title>1</title>
<ellipse fill="cadetblue" stroke="black" cx="248.127" cy="-203.976" rx="21.4286" ry="21.4286"/>
<text text-anchor="middle" x="248.127" y="-198.976" font-family="Times New Roman,serif" font-size="20.00">2</text>
</g>
<!-- 1&#45;&gt;6 -->
<g id="edge6" class="edge"><title>1&#45;&gt;6</title>
<path fill="none" stroke="black" stroke-width="2" d="M227.239,-199.306C203.507,-194.001 164.548,-185.291 137.337,-179.208"/>
<polygon fill="black" stroke="black" stroke-width="2" points="138.063,-175.784 127.54,-177.017 136.535,-182.615 138.063,-175.784"/>
</g>
<!-- 7 -->
<g id="node8" class="node"><title>7</title>
<ellipse fill="brown" stroke="black" cx="174.868" cy="-149.688" rx="21.4286" ry="21.4286"/>
<text text-anchor="middle" x="174.868" y="-144.688" font-family="Times New Roman,serif" font-size="20.00">3</text>
</g>
<!-- 1&#45;&gt;7 -->
<g id="edge7" class="edge"><title>1&#45;&gt;7</title>
<path fill="none" stroke="black" stroke-width="2" d="M230.766,-191.11C221.642,-184.35 210.289,-175.936 200.203,-168.462"/>
<polygon fill="black" stroke="black" stroke-width="2" points="202.223,-165.603 192.105,-162.461 198.055,-171.227 202.223,-165.603"/>
</g>
<!-- 2 -->
<g id="node3" class="node"><title>2</title>
<ellipse fill="cadetblue" stroke="black" cx="160.567" cy="-21.2132" rx="21.4286" ry="21.4286"/>
<text text-anchor="middle" x="160.567" y="-16.2132" font-family="Times New Roman,serif" font-size="20.00">2</text>
</g>
<!-- 5 -->
<g id="node6" class="node"><title>5</title>
<ellipse fill="cadetblue" stroke="black" cx="210.999" cy="-65.6358" rx="21.4286" ry="21.4286"/>
<text text-anchor="middle" x="210.999" y="-60.6358" font-family="Times New Roman,serif" font-size="20.00">2</text>
</g>
<!-- 2&#45;&gt;5 -->
<g id="edge9" class="edge"><title>2&#45;&gt;5</title>
<path fill="none" stroke="black" stroke-width="2" d="M176.524,-35.2688C179.927,-38.2666 183.592,-41.4946 187.217,-44.6877"/>
<polygon fill="black" stroke="black" stroke-width="2" points="185.155,-47.5357 194.972,-51.5192 189.782,-42.2829 185.155,-47.5357"/>
</g>
<!-- 2&#45;&gt;7 -->
<g id="edge11" class="edge"><title>2&#45;&gt;7</title>
<path fill="none" stroke="black" stroke-width="2" d="M162.929,-42.4281C165.227,-63.0709 168.746,-94.6835 171.369,-118.249"/>
<polygon fill="black" stroke="black" stroke-width="2" points="167.918,-118.89 172.503,-128.441 174.875,-118.115 167.918,-118.89"/>
</g>
<!-- 3 -->
<g id="node4" class="node"><title>3</title>
<ellipse fill="cadetblue" stroke="black" cx="21.2132" cy="-183.188" rx="21.4286" ry="21.4286"/>
<text text-anchor="middle" x="21.2132" y="-178.188" font-family="Times New Roman,serif" font-size="20.00">2</text>
</g>
<!-- 3&#45;&gt;0 -->
<g id="edge1" class="edge"><title>3&#45;&gt;0</title>
<path fill="none" stroke="black" stroke-width="2" d="M25.8289,-162.242C29.849,-143.998 35.73,-117.309 40.279,-96.6648"/>
<polygon fill="black" stroke="black" stroke-width="2" points="43.7212,-97.3079 42.4552,-86.789 36.8852,-95.8015 43.7212,-97.3079"/>
</g>
<!-- 4 -->
<g id="node5" class="node"><title>4</title>
<ellipse fill="cadetblue" stroke="black" cx="290.959" cy="-92.8423" rx="21.4286" ry="21.4286"/>
<text text-anchor="middle" x="290.959" y="-87.8423" font-family="Times New Roman,serif" font-size="20.00">2</text>
</g>
<!-- 4&#45;&gt;1 -->
<g id="edge4" class="edge"><title>4&#45;&gt;1</title>
<path fill="none" stroke="black" stroke-width="2" d="M283.302,-112.711C276.673,-129.909 266.996,-155.019 259.469,-174.549"/>
<polygon fill="black" stroke="black" stroke-width="2" points="256.193,-173.315 255.863,-183.905 262.725,-175.833 256.193,-173.315"/>
</g>
<!-- 4&#45;&gt;2 -->
<g id="edge8" class="edge"><title>4&#45;&gt;2</title>
<path fill="none" stroke="black" stroke-width="2" d="M274.81,-79.0725C262.871,-69.3315 245.932,-56.4038 229.681,-47.1189 221.912,-42.6799 219.456,-42.5729 211.116,-39.3317 204.46,-36.7451 197.262,-34.0845 190.442,-31.6255"/>
<polygon fill="black" stroke="black" stroke-width="2" points="191.423,-28.2593 180.828,-28.1994 189.073,-34.8531 191.423,-28.2593"/>
</g>
<!-- 5&#45;&gt;0 -->
<g id="edge2" class="edge"><title>5&#45;&gt;0</title>
<path fill="none" stroke="black" stroke-width="2" d="M189.563,-65.6865C161.33,-65.7532 111.453,-65.8712 78.8211,-65.9484"/>
<polygon fill="black" stroke="black" stroke-width="2" points="78.4638,-62.4491 68.4721,-65.9729 78.4804,-69.4491 78.4638,-62.4491"/>
</g>
<!-- 5&#45;&gt;1 -->
<g id="edge5" class="edge"><title>5&#45;&gt;1</title>
<path fill="none" stroke="black" stroke-width="2" d="M216.557,-86.3467C222.736,-109.37 232.779,-146.789 239.876,-173.233"/>
<polygon fill="black" stroke="black" stroke-width="2" points="236.558,-174.373 242.531,-183.124 243.319,-172.558 236.558,-174.373"/>
</g>
<!-- 5&#45;&gt;4 -->
<g id="edge14" class="edge"><title>5&#45;&gt;4</title>
<path fill="none" stroke="black" stroke-width="2" d="M231.176,-72.5011C240.267,-75.5944 251.186,-79.3094 261.19,-82.7134"/>
<polygon fill="black" stroke="black" stroke-width="2" points="260.194,-86.0714 270.788,-85.9791 262.449,-79.4445 260.194,-86.0714"/>
</g>
<!-- 6&#45;&gt;2 -->
<g id="edge10" class="edge"><title>6&#45;&gt;2</title>
<path fill="none" stroke="black" stroke-width="2" d="M113.737,-152.262C123.017,-126.294 139.26,-80.8382 149.966,-50.8787"/>
<polygon fill="black" stroke="black" stroke-width="2" points="153.297,-51.9578 153.367,-41.3632 146.706,-49.6022 153.297,-51.9578"/>
</g>
<!-- 6&#45;&gt;3 -->
<g id="edge12" class="edge"><title>6&#45;&gt;3</title>
<path fill="none" stroke="black" stroke-width="2" d="M85.4678,-175.013C75.5166,-176.279 63.4414,-177.816 52.457,-179.213"/>
<polygon fill="black" stroke="black" stroke-width="2" points="51.8431,-175.763 42.3648,-180.497 52.7266,-182.707 51.8431,-175.763"/>
</g>
<!-- 6&#45;&gt;7 -->
<g id="edge17" class="edge"><title>6&#45;&gt;7</title>
<path fill="none" stroke="black" stroke-width="2" d="M127.059,-165.536C132.597,-163.7 138.709,-161.674 144.659,-159.701"/>
<polygon fill="black" stroke="black" stroke-width="2" points="145.999,-162.945 154.39,-156.476 143.797,-156.3 145.999,-162.945"/>
</g>
<!-- 7&#45;&gt;3 -->
<g id="edge13" class="edge"><title>7&#45;&gt;3</title>
<path fill="none" stroke="black" stroke-width="2" d="M153.814,-146.162C140.247,-144.479 122.276,-143.35 106.598,-146.024 86.0815,-149.524 64.6075,-158.902 48.327,-167.361"/>
<polygon fill="black" stroke="black" stroke-width="2" points="46.5266,-164.355 39.3879,-172.184 49.8506,-170.516 46.5266,-164.355"/>
</g>
<!-- 7&#45;&gt;4 -->
<g id="edge15" class="edge"><title>7&#45;&gt;4</title>
<path fill="none" stroke="black" stroke-width="2" d="M194.038,-140.301C212.691,-131.167 241.257,-117.18 262.551,-106.753"/>
<polygon fill="black" stroke="black" stroke-width="2" points="264.319,-109.784 271.761,-102.243 261.24,-103.497 264.319,-109.784"/>
</g>
<!-- 7&#45;&gt;5 -->
<g id="edge16" class="edge"><title>7&#45;&gt;5</title>
<path fill="none" stroke="black" stroke-width="2" d="M183.248,-130.193C187.776,-119.66 193.456,-106.447 198.495,-94.7226"/>
<polygon fill="black" stroke="black" stroke-width="2" points="201.805,-95.8851 202.539,-85.3157 195.374,-93.1206 201.805,-95.8851"/>
</g>
</g>
</svg>

