<?xml version="1.0" encoding="UTF-8" standalone="no"?>
<!DOCTYPE svg PUBLIC "-//W3C//DTD SVG 1.1//EN"
 "http://www.w3.org/Graphics/SVG/1.1/DTD/svg11.dtd">
<!-- Generated by graphviz version 2.36.0 (20140111.2315)
 -->
<!-- Title: G Pages: 1 -->
<svg width="100%" height="100%"
 viewBox="0.00 0.00 318.58 272.57" xmlns="http://www.w3.org/2000/svg" xmlns:xlink="http://www.w3.org/1999/xlink">
<g id="graph0" class="graph" transform="scale(1 1) rotate(0) translate(4 268.573)">
<title>G</title>
<!-- 0 -->
<g id="node1" class="node"><title>0</title>
<ellipse fill="cadetblue" stroke="black" cx="21.2132" cy="-149.355" rx="21.4286" ry="21.4286"/>
<text text-anchor="middle" x="21.2132" y="-144.355" font-family="Times New Roman,serif" font-size="20.00">2</text>
</g>
<!-- 7 -->
<g id="node8" class="node"><title>7</title>
<ellipse fill="cadetblue" stroke="black" cx="132.521" cy="-124.422" rx="21.4286" ry="21.4286"/>
<text text-anchor="middle" x="132.521" y="-119.422" font-family="Times New Roman,serif" font-size="20.00">2</text>
</g>
<!-- 0&#45;&gt;7 -->
<g id="edge3" class="edge"><title>0&#45;&gt;7</title>
<path fill="none" stroke="black" stroke-width="2" d="M42.1493,-144.666C58.94,-140.904 82.7503,-135.571 101.716,-131.322"/>
<polygon fill="black" stroke="black" stroke-width="2" points="102.686,-134.692 111.679,-129.091 101.155,-127.861 102.686,-134.692"/>
</g>
<!-- 1 -->
<g id="node2" class="node"><title>1</title>
<ellipse fill="cadetblue" stroke="black" cx="201.799" cy="-71.6447" rx="21.4286" ry="21.4286"/>
<text text-anchor="middle" x="201.799" y="-66.6447" font-family="Times New Roman,serif" font-size="20.00">2</text>
</g>
<!-- 6 -->
<g id="node7" class="node"><title>6</title>
<ellipse fill="cadetblue" stroke="black" cx="236.884" cy="-184.124" rx="21.4286" ry="21.4286"/>
<text text-anchor="middle" x="236.884" y="-179.124" font-family="Times New Roman,serif" font-size="20.00">2</text>
</g>
<!-- 1&#45;&gt;6 -->
<g id="edge6" class="edge"><title>1&#45;&gt;6</title>
<path fill="none" stroke="black" stroke-width="2" d="M208.153,-92.0138C213.534,-109.265 221.326,-134.245 227.438,-153.84"/>
<polygon fill="black" stroke="black" stroke-width="2" points="224.14,-155.022 230.459,-163.526 230.823,-152.938 224.14,-155.022"/>
</g>
<!-- 1&#45;&gt;7 -->
<g id="edge7" class="edge"><title>1&#45;&gt;7</title>
<path fill="none" stroke="black" stroke-width="2" d="M184.674,-84.6907C176.536,-90.8902 166.648,-98.423 157.679,-105.256"/>
<polygon fill="black" stroke="black" stroke-width="2" points="155.282,-102.682 149.449,-111.526 159.524,-108.25 155.282,-102.682"/>
</g>
<!-- 2 -->
<g id="node3" class="node"><title>2</title>
<ellipse fill="cadetblue" stroke="black" cx="206.031" cy="-21.2132" rx="21.4286" ry="21.4286"/>
<text text-anchor="middle" x="206.031" y="-16.2132" font-family="Times New Roman,serif" font-size="20.00">2</text>
</g>
<!-- 5 -->
<g id="node6" class="node"><title>5</title>
<ellipse fill="cadetblue" stroke="black" cx="78.8275" cy="-27.3425" rx="21.4286" ry="21.4286"/>
<text text-anchor="middle" x="78.8275" y="-22.3425" font-family="Times New Roman,serif" font-size="20.00">2</text>
</g>
<!-- 2&#45;&gt;5 -->
<g id="edge9" class="edge"><title>2&#45;&gt;5</title>
<path fill="none" stroke="black" stroke-width="2" d="M184.74,-22.2391C164.377,-23.2203 133.426,-24.7117 110.232,-25.8292"/>
<polygon fill="black" stroke="black" stroke-width="2" points="110.008,-22.3359 100.188,-26.3132 110.345,-29.3278 110.008,-22.3359"/>
</g>
<!-- 2&#45;&gt;6 -->
<g id="edge10" class="edge"><title>2&#45;&gt;6</title>
<path fill="none" stroke="black" stroke-width="2" d="M210.001,-42.1774C215.347,-70.4036 224.897,-120.831 231.058,-153.359"/>
<polygon fill="black" stroke="black" stroke-width="2" points="227.629,-154.066 232.929,-163.24 234.507,-152.763 227.629,-154.066"/>
</g>
<!-- 3 -->
<g id="node4" class="node"><title>3</title>
<ellipse fill="cadetblue" stroke="black" cx="113.822" cy="-243.359" rx="21.4286" ry="21.4286"/>
<text text-anchor="middle" x="113.822" y="-238.359" font-family="Times New Roman,serif" font-size="20.00">2</text>
</g>
<!-- 3&#45;&gt;0 -->
<g id="edge1" class="edge"><title>3&#45;&gt;0</title>
<path fill="none" stroke="black" stroke-width="2" d="M98.5297,-227.837C83.5606,-212.642 60.5889,-189.324 43.5711,-172.05"/>
<polygon fill="black" stroke="black" stroke-width="2" points="45.7325,-169.257 36.2211,-164.589 40.7459,-174.169 45.7325,-169.257"/>
</g>
<!-- 4 -->
<g id="node5" class="node"><title>4</title>
<ellipse fill="cadetblue" stroke="black" cx="289.371" cy="-100.471" rx="21.4286" ry="21.4286"/>
<text text-anchor="middle" x="289.371" y="-95.4707" font-family="Times New Roman,serif" font-size="20.00">2</text>
</g>
<!-- 4&#45;&gt;1 -->
<g id="edge4" class="edge"><title>4&#45;&gt;1</title>
<path fill="none" stroke="black" stroke-width="2" d="M269.06,-93.785C258.007,-90.1468 244.121,-85.5759 231.84,-81.5334"/>
<polygon fill="black" stroke="black" stroke-width="2" points="232.593,-78.0963 222,-78.2941 230.404,-84.7454 232.593,-78.0963"/>
</g>
<!-- 4&#45;&gt;2 -->
<g id="edge8" class="edge"><title>4&#45;&gt;2</title>
<path fill="none" stroke="black" stroke-width="2" d="M273.695,-85.563C261.124,-73.6071 243.296,-56.6527 229.096,-43.1481"/>
<polygon fill="black" stroke="black" stroke-width="2" points="231.294,-40.4092 221.636,-36.0541 226.47,-45.4817 231.294,-40.4092"/>
</g>
<!-- 5&#45;&gt;0 -->
<g id="edge2" class="edge"><title>5&#45;&gt;0</title>
<path fill="none" stroke="black" stroke-width="2" d="M69.6983,-46.6758C60.2587,-66.6666 45.4192,-98.093 34.6421,-120.916"/>
<polygon fill="black" stroke="black" stroke-width="2" points="31.4047,-119.575 30.2996,-130.113 37.7345,-122.564 31.4047,-119.575"/>
</g>
<!-- 5&#45;&gt;1 -->
<g id="edge5" class="edge"><title>5&#45;&gt;1</title>
<path fill="none" stroke="black" stroke-width="2" d="M98.8586,-34.559C118.778,-41.7353 149.563,-52.8261 172.282,-61.0107"/>
<polygon fill="black" stroke="black" stroke-width="2" points="171.182,-64.3346 181.776,-64.4312 173.554,-57.7489 171.182,-64.3346"/>
</g>
<!-- 6&#45;&gt;3 -->
<g id="edge12" class="edge"><title>6&#45;&gt;3</title>
<path fill="none" stroke="black" stroke-width="2" d="M217.656,-193.379C197.545,-203.06 165.748,-218.365 142.636,-229.49"/>
<polygon fill="black" stroke="black" stroke-width="2" points="140.814,-226.483 133.322,-233.973 143.85,-232.79 140.814,-226.483"/>
</g>
<!-- 6&#45;&gt;4 -->
<g id="edge14" class="edge"><title>6&#45;&gt;4</title>
<path fill="none" stroke="black" stroke-width="2" d="M248.273,-165.972C255.357,-154.681 264.595,-139.959 272.518,-127.332"/>
<polygon fill="black" stroke="black" stroke-width="2" points="275.654,-128.918 278.004,-118.587 269.725,-125.197 275.654,-128.918"/>
</g>
<!-- 7&#45;&gt;2 -->
<g id="edge11" class="edge"><title>7&#45;&gt;2</title>
<path fill="none" stroke="black" stroke-width="2" d="M144.991,-106.914C156.66,-90.53 174.241,-65.846 187.542,-47.1709"/>
<polygon fill="black" stroke="black" stroke-width="2" points="190.549,-48.9828 193.5,-38.8071 184.847,-44.9218 190.549,-48.9828"/>
</g>
<!-- 7&#45;&gt;3 -->
<g id="edge13" class="edge"><title>7&#45;&gt;3</title>
<path fill="none" stroke="black" stroke-width="2" d="M129.221,-145.412C126.315,-163.896 122.043,-191.072 118.735,-212.112"/>
<polygon fill="black" stroke="black" stroke-width="2" points="115.248,-211.757 117.152,-222.179 122.163,-212.844 115.248,-211.757"/>
</g>
<!-- 7&#45;&gt;4 -->
<g id="edge15" class="edge"><title>7&#45;&gt;4</title>
<path fill="none" stroke="black" stroke-width="2" d="M153.674,-121.192C180.528,-117.091 227.079,-109.983 258.054,-105.253"/>
<polygon fill="black" stroke="black" stroke-width="2" points="258.946,-108.657 268.303,-103.688 257.889,-101.738 258.946,-108.657"/>
</g>
<!-- 7&#45;&gt;5 -->
<g id="edge16" class="edge"><title>7&#45;&gt;5</title>
<path fill="none" stroke="black" stroke-width="2" d="M122.168,-105.704C114.22,-91.3339 103.123,-71.2701 94.1479,-55.0423"/>
<polygon fill="black" stroke="black" stroke-width="2" points="97.051,-53.0597 89.1483,-46.0029 90.9255,-56.4477 97.051,-53.0597"/>
</g>
</g>
</svg>

