<?xml version="1.0" encoding="UTF-8" standalone="no"?>
<!DOCTYPE svg PUBLIC "-//W3C//DTD SVG 1.1//EN"
 "http://www.w3.org/Graphics/SVG/1.1/DTD/svg11.dtd">
<!-- Generated by graphviz version 2.36.0 (20140111.2315)
 -->
<!-- Title: G Pages: 1 -->
<svg width="100%" height="100%"
 viewBox="0.00 0.00 204.65 196.57" xmlns="http://www.w3.org/2000/svg" xmlns:xlink="http://www.w3.org/1999/xlink">
<g id="graph0" class="graph" transform="scale(1 1) rotate(0) translate(4 192.571)">
<title>G</title>
<!-- 0 -->
<g id="node1" class="node"><title>0</title>
<ellipse fill="cadetblue" stroke="black" cx="33.5319" cy="-81.992" rx="21.4286" ry="21.4286"/>
<text text-anchor="middle" x="33.5319" y="-76.992" font-family="Times New Roman,serif" font-size="20.00">2</text>
</g>
<!-- 6 -->
<g id="node7" class="node"><title>6</title>
<ellipse fill="cadetblue" stroke="black" cx="92.4447" cy="-167.358" rx="21.4286" ry="21.4286"/>
<text text-anchor="middle" x="92.4447" y="-162.358" font-family="Times New Roman,serif" font-size="20.00">2</text>
</g>
<!-- 0&#45;&gt;6 -->
<g id="edge3" class="edge"><title>0&#45;&gt;6</title>
<path fill="none" stroke="black" stroke-width="2" d="M45.7387,-99.6799C54.0328,-111.698 65.1441,-127.799 74.4482,-141.281"/>
<polygon fill="black" stroke="black" stroke-width="2" points="71.693,-143.45 80.2536,-149.693 77.4543,-139.474 71.693,-143.45"/>
</g>
<!-- 7 -->
<g id="node8" class="node"><title>7</title>
<ellipse fill="brown" stroke="black" cx="101.912" cy="-97.7692" rx="21.4286" ry="21.4286"/>
<text text-anchor="middle" x="101.912" y="-92.7692" font-family="Times New Roman,serif" font-size="20.00">3</text>
</g>
<!-- 0&#45;&gt;7 -->
<g id="edge4" class="edge"><title>0&#45;&gt;7</title>
<path fill="none" stroke="black" stroke-width="2" d="M54.4199,-86.8114C59.7222,-88.0347 65.5301,-89.3748 71.2085,-90.6849"/>
<polygon fill="black" stroke="black" stroke-width="2" points="70.6214,-94.1414 81.1523,-92.9793 72.1952,-87.3206 70.6214,-94.1414"/>
</g>
<!-- 1 -->
<g id="node2" class="node"><title>1</title>
<ellipse fill="cadetblue" stroke="black" cx="160.967" cy="-152.914" rx="21.4286" ry="21.4286"/>
<text text-anchor="middle" x="160.967" y="-147.914" font-family="Times New Roman,serif" font-size="20.00">2</text>
</g>
<!-- 1&#45;&gt;6 -->
<g id="edge7" class="edge"><title>1&#45;&gt;6</title>
<path fill="none" stroke="black" stroke-width="2" d="M140.035,-157.326C134.722,-158.446 128.902,-159.673 123.212,-160.873"/>
<polygon fill="black" stroke="black" stroke-width="2" points="122.311,-157.486 113.248,-162.973 123.755,-164.335 122.311,-157.486"/>
</g>
<!-- 1&#45;&gt;7 -->
<g id="edge8" class="edge"><title>1&#45;&gt;7</title>
<path fill="none" stroke="black" stroke-width="2" d="M145.451,-138.426C139.261,-132.646 132.002,-125.867 125.205,-119.52"/>
<polygon fill="black" stroke="black" stroke-width="2" points="127.227,-116.62 117.53,-112.353 122.45,-121.736 127.227,-116.62"/>
</g>
<!-- 2 -->
<g id="node3" class="node"><title>2</title>
<ellipse fill="cadetblue" stroke="black" cx="169.859" cy="-21.2132" rx="21.4286" ry="21.4286"/>
<text text-anchor="middle" x="169.859" y="-16.2132" font-family="Times New Roman,serif" font-size="20.00">2</text>
</g>
<!-- 2&#45;&gt;7 -->
<g id="edge11" class="edge"><title>2&#45;&gt;7</title>
<path fill="none" stroke="black" stroke-width="2" d="M156.841,-38.1562C150.114,-46.6903 141.65,-57.0935 133.622,-66.0204 130.75,-69.2136 127.645,-72.5036 124.54,-75.7009"/>
<polygon fill="black" stroke="black" stroke-width="2" points="121.957,-73.3357 117.405,-82.9032 126.93,-78.2621 121.957,-73.3357"/>
</g>
<!-- 3 -->
<g id="node4" class="node"><title>3</title>
<ellipse fill="cadetblue" stroke="black" cx="21.2132" cy="-150.041" rx="21.4286" ry="21.4286"/>
<text text-anchor="middle" x="21.2132" y="-145.041" font-family="Times New Roman,serif" font-size="20.00">2</text>
</g>
<!-- 3&#45;&gt;0 -->
<g id="edge1" class="edge"><title>3&#45;&gt;0</title>
<path fill="none" stroke="black" stroke-width="2" d="M25.0434,-128.883C25.9558,-123.843 26.9482,-118.36 27.9222,-112.98"/>
<polygon fill="black" stroke="black" stroke-width="2" points="31.409,-113.367 29.7464,-102.903 24.521,-112.12 31.409,-113.367"/>
</g>
<!-- 4 -->
<g id="node5" class="node"><title>4</title>
<ellipse fill="cadetblue" stroke="black" cx="175.436" cy="-98.0045" rx="21.4286" ry="21.4286"/>
<text text-anchor="middle" x="175.436" y="-93.0045" font-family="Times New Roman,serif" font-size="20.00">2</text>
</g>
<!-- 4&#45;&gt;1 -->
<g id="edge5" class="edge"><title>4&#45;&gt;1</title>
<path fill="none" stroke="black" stroke-width="2" d="M169.965,-118.764C169.677,-119.857 169.385,-120.965 169.091,-122.081"/>
<polygon fill="black" stroke="black" stroke-width="2" points="165.608,-121.564 166.444,-132.126 172.377,-123.348 165.608,-121.564"/>
</g>
<!-- 4&#45;&gt;2 -->
<g id="edge9" class="edge"><title>4&#45;&gt;2</title>
<path fill="none" stroke="black" stroke-width="2" d="M173.882,-76.6139C173.344,-69.2082 172.73,-60.7448 172.146,-52.6998"/>
<polygon fill="black" stroke="black" stroke-width="2" points="175.619,-52.2094 171.404,-42.4892 168.638,-52.7164 175.619,-52.2094"/>
</g>
<!-- 5 -->
<g id="node6" class="node"><title>5</title>
<ellipse fill="cadetblue" stroke="black" cx="115.105" cy="-47.3377" rx="21.4286" ry="21.4286"/>
<text text-anchor="middle" x="115.105" y="-42.3377" font-family="Times New Roman,serif" font-size="20.00">2</text>
</g>
<!-- 4&#45;&gt;5 -->
<g id="edge14" class="edge"><title>4&#45;&gt;5</title>
<path fill="none" stroke="black" stroke-width="2" d="M158.95,-84.1596C152.964,-79.1329 146.067,-73.3405 139.541,-67.86"/>
<polygon fill="black" stroke="black" stroke-width="2" points="141.479,-64.9168 131.571,-61.1659 136.977,-70.2773 141.479,-64.9168"/>
</g>
<!-- 5&#45;&gt;0 -->
<g id="edge2" class="edge"><title>5&#45;&gt;0</title>
<path fill="none" stroke="black" stroke-width="2" d="M95.3584,-55.7265C85.539,-59.898 73.4792,-65.0214 62.6259,-69.6321"/>
<polygon fill="black" stroke="black" stroke-width="2" points="60.932,-66.5489 53.0966,-73.6804 63.6691,-72.9916 60.932,-66.5489"/>
</g>
<!-- 5&#45;&gt;1 -->
<g id="edge6" class="edge"><title>5&#45;&gt;1</title>
<path fill="none" stroke="black" stroke-width="2" d="M123.731,-67.1958C130.649,-83.122 140.46,-105.706 148.274,-123.695"/>
<polygon fill="black" stroke="black" stroke-width="2" points="145.185,-125.368 152.379,-133.145 151.605,-122.579 145.185,-125.368"/>
</g>
<!-- 5&#45;&gt;2 -->
<g id="edge10" class="edge"><title>5&#45;&gt;2</title>
<path fill="none" stroke="black" stroke-width="2" d="M134.255,-38.2006C136.576,-37.0934 138.983,-35.9447 141.402,-34.7906"/>
<polygon fill="black" stroke="black" stroke-width="2" points="143.109,-37.8544 150.627,-30.3893 140.094,-31.5367 143.109,-37.8544"/>
</g>
<!-- 6&#45;&gt;3 -->
<g id="edge12" class="edge"><title>6&#45;&gt;3</title>
<path fill="none" stroke="black" stroke-width="2" d="M71.4582,-162.256C65.4256,-160.789 58.7152,-159.158 52.2136,-157.578"/>
<polygon fill="black" stroke="black" stroke-width="2" points="52.8397,-154.128 42.2959,-155.166 51.186,-160.93 52.8397,-154.128"/>
</g>
<!-- 6&#45;&gt;4 -->
<g id="edge15" class="edge"><title>6&#45;&gt;4</title>
<path fill="none" stroke="black" stroke-width="2" d="M108.841,-153.656C120.89,-143.587 137.461,-129.739 151.058,-118.376"/>
<polygon fill="black" stroke="black" stroke-width="2" points="153.644,-120.776 159.073,-111.678 149.156,-115.405 153.644,-120.776"/>
</g>
<!-- 7&#45;&gt;3 -->
<g id="edge13" class="edge"><title>7&#45;&gt;3</title>
<path fill="none" stroke="black" stroke-width="2" d="M84.0026,-109.37C73.3458,-116.273 59.627,-125.159 47.7323,-132.864"/>
<polygon fill="black" stroke="black" stroke-width="2" points="45.5632,-130.098 39.0729,-138.473 49.3688,-135.974 45.5632,-130.098"/>
</g>
<!-- 7&#45;&gt;4 -->
<g id="edge16" class="edge"><title>7&#45;&gt;4</title>
<path fill="none" stroke="black" stroke-width="2" d="M123.178,-97.8372C129.732,-97.8582 137.09,-97.8818 144.17,-97.9044"/>
<polygon fill="black" stroke="black" stroke-width="2" points="144.206,-101.404 154.217,-97.9366 144.229,-94.4045 144.206,-101.404"/>
</g>
<!-- 7&#45;&gt;5 -->
<g id="edge17" class="edge"><title>7&#45;&gt;5</title>
<path fill="none" stroke="black" stroke-width="2" d="M107.354,-76.9656C107.378,-76.874 107.402,-76.7824 107.426,-76.6906"/>
<polygon fill="black" stroke="black" stroke-width="2" points="110.531,-78.6537 109.675,-68.0935 103.758,-76.8821 110.531,-78.6537"/>
</g>
</g>
</svg>

