<?xml version="1.0" encoding="UTF-8" standalone="no"?>
<!DOCTYPE svg PUBLIC "-//W3C//DTD SVG 1.1//EN"
 "http://www.w3.org/Graphics/SVG/1.1/DTD/svg11.dtd">
<!-- Generated by graphviz version 2.36.0 (20140111.2315)
 -->
<!-- Title: G Pages: 1 -->
<svg width="100%" height="100%"
 viewBox="0.00 0.00 283.25 248.53" xmlns="http://www.w3.org/2000/svg" xmlns:xlink="http://www.w3.org/1999/xlink">
<g id="graph0" class="graph" transform="scale(1 1) rotate(0) translate(4 244.525)">
<title>G</title>
<!-- 0 -->
<g id="node1" class="node"><title>0</title>
<ellipse fill="cadetblue" stroke="black" cx="45.4382" cy="-137.695" rx="21.4286" ry="21.4286"/>
<text text-anchor="middle" x="45.4382" y="-132.695" font-family="Times New Roman,serif" font-size="20.00">2</text>
</g>
<!-- 6 -->
<g id="node7" class="node"><title>6</title>
<ellipse fill="cadetblue" stroke="black" cx="95.8697" cy="-94.8252" rx="21.4286" ry="21.4286"/>
<text text-anchor="middle" x="95.8697" y="-89.8252" font-family="Times New Roman,serif" font-size="20.00">2</text>
</g>
<!-- 0&#45;&gt;6 -->
<g id="edge3" class="edge"><title>0&#45;&gt;6</title>
<path fill="none" stroke="black" stroke-width="2" d="M61.6726,-123.895C64.912,-121.141 68.3788,-118.194 71.8168,-115.271"/>
<polygon fill="black" stroke="black" stroke-width="2" points="74.3133,-117.743 79.6656,-108.599 69.7796,-112.41 74.3133,-117.743"/>
</g>
<!-- 7 -->
<g id="node8" class="node"><title>7</title>
<ellipse fill="cadetblue" stroke="black" cx="160.655" cy="-118.637" rx="21.4286" ry="21.4286"/>
<text text-anchor="middle" x="160.655" y="-113.637" font-family="Times New Roman,serif" font-size="20.00">2</text>
</g>
<!-- 0&#45;&gt;7 -->
<g id="edge4" class="edge"><title>0&#45;&gt;7</title>
<path fill="none" stroke="black" stroke-width="2" d="M66.5707,-134.199C84.2736,-131.271 109.783,-127.051 129.775,-123.744"/>
<polygon fill="black" stroke="black" stroke-width="2" points="130.361,-127.195 139.656,-122.11 129.219,-120.289 130.361,-127.195"/>
</g>
<!-- 1 -->
<g id="node2" class="node"><title>1</title>
<ellipse fill="cadetblue" stroke="black" cx="206.777" cy="-177.335" rx="21.4286" ry="21.4286"/>
<text text-anchor="middle" x="206.777" y="-172.335" font-family="Times New Roman,serif" font-size="20.00">2</text>
</g>
<!-- 5 -->
<g id="node6" class="node"><title>5</title>
<ellipse fill="cadetblue" stroke="black" cx="117.948" cy="-219.312" rx="21.4286" ry="21.4286"/>
<text text-anchor="middle" x="117.948" y="-214.312" font-family="Times New Roman,serif" font-size="20.00">2</text>
</g>
<!-- 1&#45;&gt;5 -->
<g id="edge6" class="edge"><title>1&#45;&gt;5</title>
<path fill="none" stroke="black" stroke-width="2" d="M187.502,-186.444C175.513,-192.109 159.879,-199.497 146.471,-205.833"/>
<polygon fill="black" stroke="black" stroke-width="2" points="144.731,-202.784 137.185,-210.222 147.722,-209.113 144.731,-202.784"/>
</g>
<!-- 1&#45;&gt;7 -->
<g id="edge8" class="edge"><title>1&#45;&gt;7</title>
<path fill="none" stroke="black" stroke-width="2" d="M193.436,-160.357C189.289,-155.079 184.629,-149.148 180.152,-143.451"/>
<polygon fill="black" stroke="black" stroke-width="2" points="182.736,-141.075 173.806,-135.374 177.232,-145.399 182.736,-141.075"/>
</g>
<!-- 2 -->
<g id="node3" class="node"><title>2</title>
<ellipse fill="cadetblue" stroke="black" cx="167.648" cy="-21.2132" rx="21.4286" ry="21.4286"/>
<text text-anchor="middle" x="167.648" y="-16.2132" font-family="Times New Roman,serif" font-size="20.00">2</text>
</g>
<!-- 4 -->
<g id="node5" class="node"><title>4</title>
<ellipse fill="cadetblue" stroke="black" cx="254.04" cy="-82.6835" rx="21.4286" ry="21.4286"/>
<text text-anchor="middle" x="254.04" y="-77.6835" font-family="Times New Roman,serif" font-size="20.00">2</text>
</g>
<!-- 2&#45;&gt;4 -->
<g id="edge9" class="edge"><title>2&#45;&gt;4</title>
<path fill="none" stroke="black" stroke-width="2" d="M185.13,-33.6526C197.543,-42.4844 214.409,-54.4852 228.348,-64.4032"/>
<polygon fill="black" stroke="black" stroke-width="2" points="226.406,-67.3168 236.583,-70.2626 230.464,-61.6133 226.406,-67.3168"/>
</g>
<!-- 3 -->
<g id="node4" class="node"><title>3</title>
<ellipse fill="cadetblue" stroke="black" cx="21.2132" cy="-203.333" rx="21.4286" ry="21.4286"/>
<text text-anchor="middle" x="21.2132" y="-198.333" font-family="Times New Roman,serif" font-size="20.00">2</text>
</g>
<!-- 3&#45;&gt;0 -->
<g id="edge1" class="edge"><title>3&#45;&gt;0</title>
<path fill="none" stroke="black" stroke-width="2" d="M28.6131,-183.282C30.4916,-178.193 32.5491,-172.618 34.5608,-167.167"/>
<polygon fill="black" stroke="black" stroke-width="2" points="37.9046,-168.215 38.0836,-157.622 31.3376,-165.792 37.9046,-168.215"/>
</g>
<!-- 4&#45;&gt;1 -->
<g id="edge5" class="edge"><title>4&#45;&gt;1</title>
<path fill="none" stroke="black" stroke-width="2" d="M244.476,-101.838C237.685,-115.437 228.458,-133.916 220.832,-149.187"/>
<polygon fill="black" stroke="black" stroke-width="2" points="217.663,-147.699 216.327,-158.21 223.926,-150.827 217.663,-147.699"/>
</g>
<!-- 5&#45;&gt;0 -->
<g id="edge2" class="edge"><title>5&#45;&gt;0</title>
<path fill="none" stroke="black" stroke-width="2" d="M103.623,-203.187C92.9962,-191.226 78.3436,-174.733 66.4014,-161.291"/>
<polygon fill="black" stroke="black" stroke-width="2" points="68.9923,-158.937 59.7341,-153.786 63.7592,-163.587 68.9923,-158.937"/>
</g>
<!-- 5&#45;&gt;3 -->
<g id="edge12" class="edge"><title>5&#45;&gt;3</title>
<path fill="none" stroke="black" stroke-width="2" d="M96.9582,-215.845C83.9016,-213.688 66.8762,-210.876 52.2747,-208.464"/>
<polygon fill="black" stroke="black" stroke-width="2" points="52.5991,-204.97 42.1623,-206.793 51.4582,-211.876 52.5991,-204.97"/>
</g>
<!-- 6&#45;&gt;1 -->
<g id="edge7" class="edge"><title>6&#45;&gt;1</title>
<path fill="none" stroke="black" stroke-width="2" d="M111.048,-110.116C119.765,-118.545 131.124,-128.948 142.054,-137.236 153.689,-146.058 167.335,-154.734 179.089,-161.746"/>
<polygon fill="black" stroke="black" stroke-width="2" points="177.638,-164.952 188.036,-166.984 181.175,-158.911 177.638,-164.952"/>
</g>
<!-- 6&#45;&gt;2 -->
<g id="edge10" class="edge"><title>6&#45;&gt;2</title>
<path fill="none" stroke="black" stroke-width="2" d="M110.742,-79.5727C120.847,-69.2092 134.385,-55.3256 145.721,-43.7"/>
<polygon fill="black" stroke="black" stroke-width="2" points="148.319,-46.0493 152.794,-36.4461 143.307,-41.1624 148.319,-46.0493"/>
</g>
<!-- 6&#45;&gt;3 -->
<g id="edge13" class="edge"><title>6&#45;&gt;3</title>
<path fill="none" stroke="black" stroke-width="2" d="M87.336,-114.401C81.5208,-126.865 73.2262,-143.091 64.0212,-156.312 58.0915,-164.828 50.7447,-173.43 43.8211,-180.906"/>
<polygon fill="black" stroke="black" stroke-width="2" points="40.9292,-178.867 36.5613,-188.52 45.9953,-183.698 40.9292,-178.867"/>
</g>
<!-- 7&#45;&gt;2 -->
<g id="edge11" class="edge"><title>7&#45;&gt;2</title>
<path fill="none" stroke="black" stroke-width="2" d="M162.207,-97.0152C163.146,-83.9335 164.359,-67.0298 165.401,-52.5056"/>
<polygon fill="black" stroke="black" stroke-width="2" points="168.899,-52.6639 166.124,-42.439 161.917,-52.1627 168.899,-52.6639"/>
</g>
<!-- 7&#45;&gt;4 -->
<g id="edge14" class="edge"><title>7&#45;&gt;4</title>
<path fill="none" stroke="black" stroke-width="2" d="M180.459,-111.012C193.249,-106.088 210.121,-99.5923 224.482,-94.0633"/>
<polygon fill="black" stroke="black" stroke-width="2" points="225.867,-97.2804 233.942,-90.4212 223.352,-90.7478 225.867,-97.2804"/>
</g>
<!-- 7&#45;&gt;5 -->
<g id="edge15" class="edge"><title>7&#45;&gt;5</title>
<path fill="none" stroke="black" stroke-width="2" d="M152.217,-138.527C145.959,-153.281 137.329,-173.625 130.295,-190.206"/>
<polygon fill="black" stroke="black" stroke-width="2" points="127.051,-188.89 126.368,-199.463 133.495,-191.624 127.051,-188.89"/>
</g>
<!-- 7&#45;&gt;6 -->
<g id="edge16" class="edge"><title>7&#45;&gt;6</title>
<path fill="none" stroke="black" stroke-width="2" d="M140.511,-111.233C135.803,-109.503 130.69,-107.623 125.662,-105.775"/>
<polygon fill="black" stroke="black" stroke-width="2" points="126.817,-102.471 116.224,-102.306 124.402,-109.041 126.817,-102.471"/>
</g>
</g>
</svg>

