<?xml version="1.0" encoding="UTF-8" standalone="no"?>
<!DOCTYPE svg PUBLIC "-//W3C//DTD SVG 1.1//EN"
 "http://www.w3.org/Graphics/SVG/1.1/DTD/svg11.dtd">
<!-- Generated by graphviz version 2.36.0 (20140111.2315)
 -->
<!-- Title: G Pages: 1 -->
<svg width="100%" height="100%"
 viewBox="0.00 0.00 223.58 182.26" xmlns="http://www.w3.org/2000/svg" xmlns:xlink="http://www.w3.org/1999/xlink">
<g id="graph0" class="graph" transform="scale(1 1) rotate(0) translate(4 178.257)">
<title>G</title>
<!-- 0 -->
<g id="node1" class="node"><title>0</title>
<ellipse fill="cadetblue" stroke="black" cx="21.2132" cy="-83.3017" rx="21.4286" ry="21.4286"/>
<text text-anchor="middle" x="21.2132" y="-78.3017" font-family="Times New Roman,serif" font-size="20.00">2</text>
</g>
<!-- 6 -->
<g id="node7" class="node"><title>6</title>
<ellipse fill="cadetblue" stroke="black" cx="96.0801" cy="-133.453" rx="21.4286" ry="21.4286"/>
<text text-anchor="middle" x="96.0801" y="-128.453" font-family="Times New Roman,serif" font-size="20.00">2</text>
</g>
<!-- 0&#45;&gt;6 -->
<g id="edge3" class="edge"><title>0&#45;&gt;6</title>
<path fill="none" stroke="black" stroke-width="2" d="M38.9556,-95.1869C48.1192,-101.325 59.4837,-108.938 69.6571,-115.753"/>
<polygon fill="black" stroke="black" stroke-width="2" points="67.9495,-118.822 78.2056,-121.479 71.8453,-113.006 67.9495,-118.822"/>
</g>
<!-- 7 -->
<g id="node8" class="node"><title>7</title>
<ellipse fill="cadetblue" stroke="black" cx="97.0004" cy="-79.8978" rx="21.4286" ry="21.4286"/>
<text text-anchor="middle" x="97.0004" y="-74.8978" font-family="Times New Roman,serif" font-size="20.00">2</text>
</g>
<!-- 0&#45;&gt;7 -->
<g id="edge4" class="edge"><title>0&#45;&gt;7</title>
<path fill="none" stroke="black" stroke-width="2" d="M42.728,-82.3354C49.8284,-82.0165 57.8788,-81.6549 65.564,-81.3097"/>
<polygon fill="black" stroke="black" stroke-width="2" points="65.8612,-84.8 75.6941,-80.8548 65.5471,-77.8071 65.8612,-84.8"/>
</g>
<!-- 1 -->
<g id="node2" class="node"><title>1</title>
<ellipse fill="cadetblue" stroke="black" cx="156.633" cy="-106.037" rx="21.4286" ry="21.4286"/>
<text text-anchor="middle" x="156.633" y="-101.037" font-family="Times New Roman,serif" font-size="20.00">2</text>
</g>
<!-- 1&#45;&gt;6 -->
<g id="edge7" class="edge"><title>1&#45;&gt;6</title>
<path fill="none" stroke="black" stroke-width="2" d="M137.14,-114.863C133.251,-116.624 129.088,-118.508 124.96,-120.377"/>
<polygon fill="black" stroke="black" stroke-width="2" points="123.202,-117.331 115.536,-124.644 126.09,-123.708 123.202,-117.331"/>
</g>
<!-- 1&#45;&gt;7 -->
<g id="edge8" class="edge"><title>1&#45;&gt;7</title>
<path fill="none" stroke="black" stroke-width="2" d="M137.107,-97.4783C133.54,-95.9149 129.75,-94.2534 125.977,-92.5997"/>
<polygon fill="black" stroke="black" stroke-width="2" points="127.338,-89.3748 116.774,-88.5656 124.528,-95.7859 127.338,-89.3748"/>
</g>
<!-- 2 -->
<g id="node3" class="node"><title>2</title>
<ellipse fill="cadetblue" stroke="black" cx="134.728" cy="-25.221" rx="21.4286" ry="21.4286"/>
<text text-anchor="middle" x="134.728" y="-20.221" font-family="Times New Roman,serif" font-size="20.00">2</text>
</g>
<!-- 4 -->
<g id="node5" class="node"><title>4</title>
<ellipse fill="cadetblue" stroke="black" cx="194.368" cy="-55.6059" rx="21.4286" ry="21.4286"/>
<text text-anchor="middle" x="194.368" y="-50.6059" font-family="Times New Roman,serif" font-size="20.00">2</text>
</g>
<!-- 2&#45;&gt;4 -->
<g id="edge9" class="edge"><title>2&#45;&gt;4</title>
<path fill="none" stroke="black" stroke-width="2" d="M153.927,-35.0022C157.864,-37.0082 162.086,-39.1589 166.262,-41.2866"/>
<polygon fill="black" stroke="black" stroke-width="2" points="164.706,-44.422 175.205,-45.843 167.884,-38.1848 164.706,-44.422"/>
</g>
<!-- 5 -->
<g id="node6" class="node"><title>5</title>
<ellipse fill="cadetblue" stroke="black" cx="71.474" cy="-21.2132" rx="21.4286" ry="21.4286"/>
<text text-anchor="middle" x="71.474" y="-16.2132" font-family="Times New Roman,serif" font-size="20.00">2</text>
</g>
<!-- 2&#45;&gt;5 -->
<g id="edge10" class="edge"><title>2&#45;&gt;5</title>
<path fill="none" stroke="black" stroke-width="2" d="M113.313,-23.8642C110.016,-23.6552 106.553,-23.4358 103.09,-23.2164"/>
<polygon fill="black" stroke="black" stroke-width="2" points="103.068,-19.7081 92.8669,-22.5687 102.626,-26.6941 103.068,-19.7081"/>
</g>
<!-- 3 -->
<g id="node4" class="node"><title>3</title>
<ellipse fill="cadetblue" stroke="black" cx="34.4921" cy="-153.044" rx="21.4286" ry="21.4286"/>
<text text-anchor="middle" x="34.4921" y="-148.044" font-family="Times New Roman,serif" font-size="20.00">2</text>
</g>
<!-- 3&#45;&gt;0 -->
<g id="edge1" class="edge"><title>3&#45;&gt;0</title>
<path fill="none" stroke="black" stroke-width="2" d="M30.508,-132.119C29.4313,-126.464 28.2431,-120.223 27.0863,-114.148"/>
<polygon fill="black" stroke="black" stroke-width="2" points="30.5032,-113.381 25.1945,-104.212 23.6267,-114.69 30.5032,-113.381"/>
</g>
<!-- 4&#45;&gt;1 -->
<g id="edge5" class="edge"><title>4&#45;&gt;1</title>
<path fill="none" stroke="black" stroke-width="2" d="M181.593,-72.6796C179.626,-75.3086 177.56,-78.0698 175.494,-80.8308"/>
<polygon fill="black" stroke="black" stroke-width="2" points="172.584,-78.8775 169.395,-88.9811 178.189,-83.0712 172.584,-78.8775"/>
</g>
<!-- 5&#45;&gt;0 -->
<g id="edge2" class="edge"><title>5&#45;&gt;0</title>
<path fill="none" stroke="black" stroke-width="2" d="M58.0051,-37.8518C52.8219,-44.2546 46.7884,-51.708 41.1248,-58.7043"/>
<polygon fill="black" stroke="black" stroke-width="2" points="38.2909,-56.6424 34.7194,-66.6172 43.7317,-61.0468 38.2909,-56.6424"/>
</g>
<!-- 5&#45;&gt;1 -->
<g id="edge6" class="edge"><title>5&#45;&gt;1</title>
<path fill="none" stroke="black" stroke-width="2" d="M87.7314,-35.3427C96.21,-42.87 106.651,-52.3914 115.601,-61.2987 122.259,-67.9247 129.254,-75.3596 135.545,-82.2371"/>
<polygon fill="black" stroke="black" stroke-width="2" points="133.239,-84.9056 142.544,-89.9728 138.43,-80.2092 133.239,-84.9056"/>
</g>
<!-- 6&#45;&gt;2 -->
<g id="edge11" class="edge"><title>6&#45;&gt;2</title>
<path fill="none" stroke="black" stroke-width="2" d="M107.024,-114.8C109.936,-109.588 112.994,-103.878 115.6,-98.4987 119.5,-90.4457 120.666,-88.4489 123.305,-79.8991 125.651,-72.2963 127.667,-63.9504 129.323,-56.1187"/>
<polygon fill="black" stroke="black" stroke-width="2" points="132.773,-56.7158 131.29,-46.2251 125.907,-55.3505 132.773,-56.7158"/>
</g>
<!-- 6&#45;&gt;3 -->
<g id="edge13" class="edge"><title>6&#45;&gt;3</title>
<path fill="none" stroke="black" stroke-width="2" d="M75.5722,-139.977C72.0773,-141.088 68.3828,-142.264 64.6995,-143.435"/>
<polygon fill="black" stroke="black" stroke-width="2" points="63.589,-140.116 55.1205,-146.482 65.7109,-146.786 63.589,-140.116"/>
</g>
<!-- 7&#45;&gt;2 -->
<g id="edge12" class="edge"><title>7&#45;&gt;2</title>
<path fill="none" stroke="black" stroke-width="2" d="M109.145,-62.2968C111.569,-58.7847 114.162,-55.0261 116.734,-51.2987"/>
<polygon fill="black" stroke="black" stroke-width="2" points="119.807,-53.0077 122.606,-42.7891 114.046,-49.0321 119.807,-53.0077"/>
</g>
<!-- 7&#45;&gt;3 -->
<g id="edge14" class="edge"><title>7&#45;&gt;3</title>
<path fill="none" stroke="black" stroke-width="2" d="M83.1278,-96.1313C74.8732,-105.791 64.2468,-118.226 55.0334,-129.007"/>
<polygon fill="black" stroke="black" stroke-width="2" points="52.1618,-126.98 48.326,-136.856 57.4834,-131.527 52.1618,-126.98"/>
</g>
<!-- 7&#45;&gt;4 -->
<g id="edge15" class="edge"><title>7&#45;&gt;4</title>
<path fill="none" stroke="black" stroke-width="2" d="M117.65,-74.7461C131.075,-71.3967 148.815,-66.9707 163.855,-63.2186"/>
<polygon fill="black" stroke="black" stroke-width="2" points="164.893,-66.5668 173.749,-60.7501 163.199,-59.775 164.893,-66.5668"/>
</g>
<!-- 7&#45;&gt;5 -->
<g id="edge16" class="edge"><title>7&#45;&gt;5</title>
<path fill="none" stroke="black" stroke-width="2" d="M88.5005,-60.3567C87.0946,-57.1246 85.6107,-53.7132 84.1288,-50.3062"/>
<polygon fill="black" stroke="black" stroke-width="2" points="87.2222,-48.6431 80.0239,-40.8691 80.8031,-51.4352 87.2222,-48.6431"/>
</g>
</g>
</svg>

