<?xml version="1.0" encoding="UTF-8" standalone="no"?>
<!DOCTYPE svg PUBLIC "-//W3C//DTD SVG 1.1//EN"
 "http://www.w3.org/Graphics/SVG/1.1/DTD/svg11.dtd">
<!-- Generated by graphviz version 2.36.0 (20140111.2315)
 -->
<!-- Title: G Pages: 1 -->
<svg width="100%" height="100%"
 viewBox="0.00 0.00 225.68 203.58" xmlns="http://www.w3.org/2000/svg" xmlns:xlink="http://www.w3.org/1999/xlink">
<g id="graph0" class="graph" transform="scale(1 1) rotate(0) translate(4 199.577)">
<title>G</title>
<!-- 0 -->
<g id="node1" class="node"><title>0</title>
<ellipse fill="cadetblue" stroke="black" cx="21.2132" cy="-68.7223" rx="21.4286" ry="21.4286"/>
<text text-anchor="middle" x="21.2132" y="-63.7223" font-family="Times New Roman,serif" font-size="20.00">2</text>
</g>
<!-- 7 -->
<g id="node8" class="node"><title>7</title>
<ellipse fill="cadetblue" stroke="black" cx="108.074" cy="-63.2828" rx="21.4286" ry="21.4286"/>
<text text-anchor="middle" x="108.074" y="-58.2828" font-family="Times New Roman,serif" font-size="20.00">2</text>
</g>
<!-- 0&#45;&gt;7 -->
<g id="edge3" class="edge"><title>0&#45;&gt;7</title>
<path fill="none" stroke="black" stroke-width="2" d="M42.6845,-67.3777C52.8877,-66.7388 65.2851,-65.9624 76.5305,-65.2582"/>
<polygon fill="black" stroke="black" stroke-width="2" points="77.0884,-68.7302 86.8501,-64.6119 76.6509,-61.7439 77.0884,-68.7302"/>
</g>
<!-- 1 -->
<g id="node2" class="node"><title>1</title>
<ellipse fill="cadetblue" stroke="black" cx="172.401" cy="-174.364" rx="21.4286" ry="21.4286"/>
<text text-anchor="middle" x="172.401" y="-169.364" font-family="Times New Roman,serif" font-size="20.00">2</text>
</g>
<!-- 6 -->
<g id="node7" class="node"><title>6</title>
<ellipse fill="cadetblue" stroke="black" cx="126.083" cy="-113.714" rx="21.4286" ry="21.4286"/>
<text text-anchor="middle" x="126.083" y="-108.714" font-family="Times New Roman,serif" font-size="20.00">2</text>
</g>
<!-- 1&#45;&gt;6 -->
<g id="edge6" class="edge"><title>1&#45;&gt;6</title>
<path fill="none" stroke="black" stroke-width="2" d="M159.499,-157.469C155.156,-151.783 150.209,-145.306 145.479,-139.111"/>
<polygon fill="black" stroke="black" stroke-width="2" points="148.089,-136.762 139.238,-130.939 142.526,-141.011 148.089,-136.762"/>
</g>
<!-- 1&#45;&gt;7 -->
<g id="edge7" class="edge"><title>1&#45;&gt;7</title>
<path fill="none" stroke="black" stroke-width="2" d="M168.493,-153.308C164.582,-136.391 157.293,-112.647 144.705,-95.1364 141.446,-90.6029 137.421,-86.2825 133.244,-82.3686"/>
<polygon fill="black" stroke="black" stroke-width="2" points="135.537,-79.7248 125.695,-75.8043 130.944,-85.0071 135.537,-79.7248"/>
</g>
<!-- 2 -->
<g id="node3" class="node"><title>2</title>
<ellipse fill="cadetblue" stroke="black" cx="178.688" cy="-21.2132" rx="21.4286" ry="21.4286"/>
<text text-anchor="middle" x="178.688" y="-16.2132" font-family="Times New Roman,serif" font-size="20.00">2</text>
</g>
<!-- 4 -->
<g id="node5" class="node"><title>4</title>
<ellipse fill="cadetblue" stroke="black" cx="196.464" cy="-105.036" rx="21.4286" ry="21.4286"/>
<text text-anchor="middle" x="196.464" y="-100.036" font-family="Times New Roman,serif" font-size="20.00">2</text>
</g>
<!-- 2&#45;&gt;4 -->
<g id="edge8" class="edge"><title>2&#45;&gt;4</title>
<path fill="none" stroke="black" stroke-width="2" d="M183.174,-42.3652C185.231,-52.0681 187.71,-63.757 189.967,-74.3983"/>
<polygon fill="black" stroke="black" stroke-width="2" points="186.543,-75.1245 192.041,-84.1809 193.39,-73.6723 186.543,-75.1245"/>
</g>
<!-- 3 -->
<g id="node4" class="node"><title>3</title>
<ellipse fill="cadetblue" stroke="black" cx="26.2481" cy="-130.155" rx="21.4286" ry="21.4286"/>
<text text-anchor="middle" x="26.2481" y="-125.155" font-family="Times New Roman,serif" font-size="20.00">2</text>
</g>
<!-- 3&#45;&gt;0 -->
<g id="edge1" class="edge"><title>3&#45;&gt;0</title>
<path fill="none" stroke="black" stroke-width="2" d="M24.4872,-108.669C24.2532,-105.814 24.0096,-102.842 23.7656,-99.8651"/>
<polygon fill="black" stroke="black" stroke-width="2" points="27.253,-99.5659 22.9477,-89.8853 20.2763,-100.138 27.253,-99.5659"/>
</g>
<!-- 4&#45;&gt;1 -->
<g id="edge4" class="edge"><title>4&#45;&gt;1</title>
<path fill="none" stroke="black" stroke-width="2" d="M189.504,-125.088C187.427,-131.072 185.103,-137.766 182.854,-144.245"/>
<polygon fill="black" stroke="black" stroke-width="2" points="179.401,-143.521 179.428,-154.116 186.014,-145.817 179.401,-143.521"/>
</g>
<!-- 5 -->
<g id="node6" class="node"><title>5</title>
<ellipse fill="cadetblue" stroke="black" cx="95.2695" cy="-173.578" rx="21.4286" ry="21.4286"/>
<text text-anchor="middle" x="95.2695" y="-168.578" font-family="Times New Roman,serif" font-size="20.00">2</text>
</g>
<!-- 4&#45;&gt;5 -->
<g id="edge13" class="edge"><title>4&#45;&gt;5</title>
<path fill="none" stroke="black" stroke-width="2" d="M178.837,-116.975C162.973,-127.72 139.449,-143.654 121.398,-155.88"/>
<polygon fill="black" stroke="black" stroke-width="2" points="119.35,-153.04 113.034,-161.546 123.276,-158.835 119.35,-153.04"/>
</g>
<!-- 5&#45;&gt;0 -->
<g id="edge2" class="edge"><title>5&#45;&gt;0</title>
<path fill="none" stroke="black" stroke-width="2" d="M82.7068,-155.791C70.8259,-138.968 52.8623,-113.534 39.4137,-94.4922"/>
<polygon fill="black" stroke="black" stroke-width="2" points="42.2182,-92.396 33.5903,-86.2469 36.5004,-96.4343 42.2182,-92.396"/>
</g>
<!-- 5&#45;&gt;1 -->
<g id="edge5" class="edge"><title>5&#45;&gt;1</title>
<path fill="none" stroke="black" stroke-width="2" d="M116.755,-173.797C124.193,-173.873 132.694,-173.959 140.775,-174.041"/>
<polygon fill="black" stroke="black" stroke-width="2" points="140.995,-177.544 151.031,-174.146 141.067,-170.544 140.995,-177.544"/>
</g>
<!-- 6&#45;&gt;2 -->
<g id="edge9" class="edge"><title>6&#45;&gt;2</title>
<path fill="none" stroke="black" stroke-width="2" d="M136.729,-94.9953C144.287,-81.7051 154.557,-63.6463 163.044,-48.7215"/>
<polygon fill="black" stroke="black" stroke-width="2" points="166.157,-50.3272 168.059,-39.9043 160.073,-46.8668 166.157,-50.3272"/>
</g>
<!-- 6&#45;&gt;3 -->
<g id="edge11" class="edge"><title>6&#45;&gt;3</title>
<path fill="none" stroke="black" stroke-width="2" d="M104.911,-117.201C91.145,-119.468 72.9552,-122.463 57.5348,-125.002"/>
<polygon fill="black" stroke="black" stroke-width="2" points="56.6884,-121.595 47.39,-126.673 57.8259,-128.502 56.6884,-121.595"/>
</g>
<!-- 6&#45;&gt;5 -->
<g id="edge15" class="edge"><title>6&#45;&gt;5</title>
<path fill="none" stroke="black" stroke-width="2" d="M116.333,-132.655C114.254,-136.695 112.015,-141.045 109.8,-145.348"/>
<polygon fill="black" stroke="black" stroke-width="2" points="106.526,-144.061 105.061,-154.554 112.75,-147.265 106.526,-144.061"/>
</g>
<!-- 7&#45;&gt;2 -->
<g id="edge10" class="edge"><title>7&#45;&gt;2</title>
<path fill="none" stroke="black" stroke-width="2" d="M126.627,-52.2295C134.189,-47.7242 143.086,-42.4236 151.365,-37.4913"/>
<polygon fill="black" stroke="black" stroke-width="2" points="153.214,-40.4638 160.014,-32.3387 149.632,-34.4502 153.214,-40.4638"/>
</g>
<!-- 7&#45;&gt;3 -->
<g id="edge12" class="edge"><title>7&#45;&gt;3</title>
<path fill="none" stroke="black" stroke-width="2" d="M91.5157,-76.8153C79.7592,-86.4231 63.7844,-99.4784 50.5819,-110.268"/>
<polygon fill="black" stroke="black" stroke-width="2" points="48.3106,-107.604 42.7823,-116.642 52.7403,-113.024 48.3106,-107.604"/>
</g>
<!-- 7&#45;&gt;4 -->
<g id="edge14" class="edge"><title>7&#45;&gt;4</title>
<path fill="none" stroke="black" stroke-width="2" d="M127.691,-72.5491C139.559,-78.1556 154.896,-85.4 168.073,-91.6247"/>
<polygon fill="black" stroke="black" stroke-width="2" points="166.669,-94.8324 177.206,-95.939 169.659,-88.503 166.669,-94.8324"/>
</g>
<!-- 7&#45;&gt;6 -->
<g id="edge16" class="edge"><title>7&#45;&gt;6</title>
<path fill="none" stroke="black" stroke-width="2" d="M115.296,-83.5046C115.332,-83.6074 115.369,-83.7102 115.406,-83.8132"/>
<polygon fill="black" stroke="black" stroke-width="2" points="112.201,-85.2474 118.86,-93.4879 118.794,-82.8933 112.201,-85.2474"/>
</g>
</g>
</svg>

