<?xml version="1.0" encoding="UTF-8" standalone="no"?>
<!DOCTYPE svg PUBLIC "-//W3C//DTD SVG 1.1//EN"
 "http://www.w3.org/Graphics/SVG/1.1/DTD/svg11.dtd">
<!-- Generated by graphviz version 2.36.0 (20140111.2315)
 -->
<!-- Title: G Pages: 1 -->
<svg width="100%" height="100%"
 viewBox="0.00 0.00 269.33 245.12" xmlns="http://www.w3.org/2000/svg" xmlns:xlink="http://www.w3.org/1999/xlink">
<g id="graph0" class="graph" transform="scale(1 1) rotate(0) translate(4 241.117)">
<title>G</title>
<!-- 0 -->
<g id="node1" class="node"><title>0</title>
<ellipse fill="cadetblue" stroke="black" cx="21.2132" cy="-139.141" rx="21.4286" ry="21.4286"/>
<text text-anchor="middle" x="21.2132" y="-134.141" font-family="Times New Roman,serif" font-size="20.00">2</text>
</g>
<!-- 3 -->
<g id="node4" class="node"><title>3</title>
<ellipse fill="cadetblue" stroke="black" cx="100.549" cy="-215.903" rx="21.4286" ry="21.4286"/>
<text text-anchor="middle" x="100.549" y="-210.903" font-family="Times New Roman,serif" font-size="20.00">2</text>
</g>
<!-- 0&#45;&gt;3 -->
<g id="edge1" class="edge"><title>0&#45;&gt;3</title>
<path fill="none" stroke="black" stroke-width="2" d="M36.51,-153.942C48.2537,-165.304 64.6504,-181.169 77.9122,-194.001"/>
<polygon fill="black" stroke="black" stroke-width="2" points="75.6789,-196.71 85.2994,-201.148 80.5464,-191.679 75.6789,-196.71"/>
</g>
<!-- 1 -->
<g id="node2" class="node"><title>1</title>
<ellipse fill="cadetblue" stroke="black" cx="157.94" cy="-25.0319" rx="21.4286" ry="21.4286"/>
<text text-anchor="middle" x="157.94" y="-20.0319" font-family="Times New Roman,serif" font-size="20.00">2</text>
</g>
<!-- 6 -->
<g id="node7" class="node"><title>6</title>
<ellipse fill="cadetblue" stroke="black" cx="205.436" cy="-147.013" rx="21.4286" ry="21.4286"/>
<text text-anchor="middle" x="205.436" y="-142.013" font-family="Times New Roman,serif" font-size="20.00">2</text>
</g>
<!-- 1&#45;&gt;6 -->
<g id="edge6" class="edge"><title>1&#45;&gt;6</title>
<path fill="none" stroke="black" stroke-width="2" d="M165.677,-44.9018C173.371,-64.661 185.261,-95.1983 194.036,-117.734"/>
<polygon fill="black" stroke="black" stroke-width="2" points="190.813,-119.103 197.703,-127.152 197.336,-116.563 190.813,-119.103"/>
</g>
<!-- 2 -->
<g id="node3" class="node"><title>2</title>
<ellipse fill="cadetblue" stroke="black" cx="239.445" cy="-21.2132" rx="21.4286" ry="21.4286"/>
<text text-anchor="middle" x="239.445" y="-16.2132" font-family="Times New Roman,serif" font-size="20.00">2</text>
</g>
<!-- 4 -->
<g id="node5" class="node"><title>4</title>
<ellipse fill="cadetblue" stroke="black" cx="240.119" cy="-96.5818" rx="21.4286" ry="21.4286"/>
<text text-anchor="middle" x="240.119" y="-91.5818" font-family="Times New Roman,serif" font-size="20.00">2</text>
</g>
<!-- 2&#45;&gt;4 -->
<g id="edge7" class="edge"><title>2&#45;&gt;4</title>
<path fill="none" stroke="black" stroke-width="2" d="M239.636,-42.6092C239.699,-49.6105 239.77,-57.5406 239.838,-65.1247"/>
<polygon fill="black" stroke="black" stroke-width="2" points="236.338,-65.1641 239.927,-75.1323 243.338,-65.1013 236.338,-65.1641"/>
</g>
<!-- 3&#45;&gt;6 -->
<g id="edge10" class="edge"><title>3&#45;&gt;6</title>
<path fill="none" stroke="black" stroke-width="2" d="M118.342,-204.217C134.992,-193.281 160.078,-176.805 179.057,-164.34"/>
<polygon fill="black" stroke="black" stroke-width="2" points="181.12,-167.172 187.556,-158.757 177.277,-161.321 181.12,-167.172"/>
</g>
<!-- 4&#45;&gt;1 -->
<g id="edge4" class="edge"><title>4&#45;&gt;1</title>
<path fill="none" stroke="black" stroke-width="2" d="M223.883,-82.4459C211.84,-71.9601 195.234,-57.5016 181.699,-45.7175"/>
<polygon fill="black" stroke="black" stroke-width="2" points="183.983,-43.0653 174.143,-39.1385 179.386,-48.3447 183.983,-43.0653"/>
</g>
<!-- 5 -->
<g id="node6" class="node"><title>5</title>
<ellipse fill="cadetblue" stroke="black" cx="127.397" cy="-145.568" rx="21.4286" ry="21.4286"/>
<text text-anchor="middle" x="127.397" y="-140.568" font-family="Times New Roman,serif" font-size="20.00">2</text>
</g>
<!-- 4&#45;&gt;5 -->
<g id="edge12" class="edge"><title>4&#45;&gt;5</title>
<path fill="none" stroke="black" stroke-width="2" d="M220.485,-105.115C202.813,-112.794 176.609,-124.182 156.502,-132.92"/>
<polygon fill="black" stroke="black" stroke-width="2" points="154.961,-129.773 147.185,-136.969 157.751,-136.193 154.961,-129.773"/>
</g>
<!-- 5&#45;&gt;0 -->
<g id="edge2" class="edge"><title>5&#45;&gt;0</title>
<path fill="none" stroke="black" stroke-width="2" d="M106.164,-144.283C90.8277,-143.355 69.8627,-142.086 52.5975,-141.041"/>
<polygon fill="black" stroke="black" stroke-width="2" points="52.6023,-137.535 42.4091,-140.424 52.1793,-144.522 52.6023,-137.535"/>
</g>
<!-- 5&#45;&gt;1 -->
<g id="edge5" class="edge"><title>5&#45;&gt;1</title>
<path fill="none" stroke="black" stroke-width="2" d="M134.616,-125.383C138.659,-113.561 143.573,-98.2791 147.05,-84.4406 149.353,-75.2783 151.383,-65.207 153.048,-56.0012"/>
<polygon fill="black" stroke="black" stroke-width="2" points="156.51,-56.5205 154.768,-46.07 149.613,-55.3263 156.51,-56.5205"/>
</g>
<!-- 7 -->
<g id="node8" class="node"><title>7</title>
<ellipse fill="cadetblue" stroke="black" cx="120.746" cy="-84.4393" rx="21.4286" ry="21.4286"/>
<text text-anchor="middle" x="120.746" y="-79.4393" font-family="Times New Roman,serif" font-size="20.00">2</text>
</g>
<!-- 5&#45;&gt;7 -->
<g id="edge15" class="edge"><title>5&#45;&gt;7</title>
<path fill="none" stroke="black" stroke-width="2" d="M125.071,-124.188C124.779,-121.505 124.475,-118.718 124.171,-115.92"/>
<polygon fill="black" stroke="black" stroke-width="2" points="127.643,-115.473 123.082,-105.911 120.684,-116.23 127.643,-115.473"/>
</g>
<!-- 6&#45;&gt;2 -->
<g id="edge8" class="edge"><title>6&#45;&gt;2</title>
<path fill="none" stroke="black" stroke-width="2" d="M208.17,-125.642C209.54,-116.535 211.424,-105.838 213.816,-96.3218 217.682,-80.9461 223.251,-64.2177 228.21,-50.4592"/>
<polygon fill="black" stroke="black" stroke-width="2" points="231.512,-51.6211 231.681,-41.0276 224.943,-49.2037 231.512,-51.6211"/>
</g>
<!-- 6&#45;&gt;5 -->
<g id="edge14" class="edge"><title>6&#45;&gt;5</title>
<path fill="none" stroke="black" stroke-width="2" d="M184.112,-146.618C176.283,-146.473 167.249,-146.306 158.725,-146.148"/>
<polygon fill="black" stroke="black" stroke-width="2" points="158.759,-142.649 148.696,-145.963 158.629,-149.647 158.759,-142.649"/>
</g>
<!-- 6&#45;&gt;7 -->
<g id="edge16" class="edge"><title>6&#45;&gt;7</title>
<path fill="none" stroke="black" stroke-width="2" d="M188.298,-134.35C176.13,-125.36 159.596,-113.144 145.931,-103.048"/>
<polygon fill="black" stroke="black" stroke-width="2" points="147.981,-100.211 137.859,-97.0833 143.822,-105.841 147.981,-100.211"/>
</g>
<!-- 7&#45;&gt;0 -->
<g id="edge3" class="edge"><title>7&#45;&gt;0</title>
<path fill="none" stroke="black" stroke-width="2" d="M102.024,-94.7283C87.0101,-102.98 65.7186,-114.681 48.7593,-124.002"/>
<polygon fill="black" stroke="black" stroke-width="2" points="46.9285,-121.014 39.8506,-128.898 50.3,-127.149 46.9285,-121.014"/>
</g>
<!-- 7&#45;&gt;2 -->
<g id="edge9" class="edge"><title>7&#45;&gt;2</title>
<path fill="none" stroke="black" stroke-width="2" d="M139.554,-74.421C158.887,-64.1228 189.215,-47.9683 211.385,-36.1593"/>
<polygon fill="black" stroke="black" stroke-width="2" points="213.151,-39.1845 220.331,-31.3941 209.86,-33.0063 213.151,-39.1845"/>
</g>
<!-- 7&#45;&gt;3 -->
<g id="edge11" class="edge"><title>7&#45;&gt;3</title>
<path fill="none" stroke="black" stroke-width="2" d="M112.72,-104.123C108.348,-115.897 103.375,-131.278 101.093,-145.451 99.0622,-158.06 98.5976,-172.104 98.7594,-184.314"/>
<polygon fill="black" stroke="black" stroke-width="2" points="95.2656,-184.59 99.0392,-194.49 102.263,-184.398 95.2656,-184.59"/>
</g>
<!-- 7&#45;&gt;4 -->
<g id="edge13" class="edge"><title>7&#45;&gt;4</title>
<path fill="none" stroke="black" stroke-width="2" d="M142.087,-86.6102C160.675,-88.5009 187.867,-91.2668 208.901,-93.4063"/>
<polygon fill="black" stroke="black" stroke-width="2" points="208.66,-96.8998 218.963,-94.4298 209.368,-89.9357 208.66,-96.8998"/>
</g>
</g>
</svg>

