<?xml version="1.0" encoding="UTF-8" standalone="no"?>
<!DOCTYPE svg PUBLIC "-//W3C//DTD SVG 1.1//EN"
 "http://www.w3.org/Graphics/SVG/1.1/DTD/svg11.dtd">
<!-- Generated by graphviz version 2.36.0 (20140111.2315)
 -->
<!-- Title: G Pages: 1 -->
<svg width="100%" height="100%"
 viewBox="0.00 0.00 319.89 247.12" xmlns="http://www.w3.org/2000/svg" xmlns:xlink="http://www.w3.org/1999/xlink">
<g id="graph0" class="graph" transform="scale(1 1) rotate(0) translate(4 243.116)">
<title>G</title>
<!-- 0 -->
<g id="node1" class="node"><title>0</title>
<ellipse fill="cadetblue" stroke="black" cx="65.2308" cy="-21.2132" rx="21.4286" ry="21.4286"/>
<text text-anchor="middle" x="65.2308" y="-16.2132" font-family="Times New Roman,serif" font-size="20.00">2</text>
</g>
<!-- 6 -->
<g id="node7" class="node"><title>6</title>
<ellipse fill="cadetblue" stroke="black" cx="184.53" cy="-56.2694" rx="21.4286" ry="21.4286"/>
<text text-anchor="middle" x="184.53" y="-51.2694" font-family="Times New Roman,serif" font-size="20.00">2</text>
</g>
<!-- 0&#45;&gt;6 -->
<g id="edge3" class="edge"><title>0&#45;&gt;6</title>
<path fill="none" stroke="black" stroke-width="2" d="M85.7391,-27.2396C104.603,-32.7827 132.818,-41.0736 154.271,-47.3776"/>
<polygon fill="black" stroke="black" stroke-width="2" points="153.309,-50.743 163.891,-50.2044 155.283,-44.027 153.309,-50.743"/>
</g>
<!-- 7 -->
<g id="node8" class="node"><title>7</title>
<ellipse fill="cadetblue" stroke="black" cx="150.951" cy="-107.617" rx="21.4286" ry="21.4286"/>
<text text-anchor="middle" x="150.951" y="-102.617" font-family="Times New Roman,serif" font-size="20.00">2</text>
</g>
<!-- 0&#45;&gt;7 -->
<g id="edge4" class="edge"><title>0&#45;&gt;7</title>
<path fill="none" stroke="black" stroke-width="2" d="M80.5559,-36.6605C93.8427,-50.0533 113.252,-69.6171 128.326,-84.812"/>
<polygon fill="black" stroke="black" stroke-width="2" points="126.231,-87.6697 135.759,-92.3038 131.201,-82.7397 126.231,-87.6697"/>
</g>
<!-- 1 -->
<g id="node2" class="node"><title>1</title>
<ellipse fill="cadetblue" stroke="black" cx="233.413" cy="-193.062" rx="21.4286" ry="21.4286"/>
<text text-anchor="middle" x="233.413" y="-188.062" font-family="Times New Roman,serif" font-size="20.00">2</text>
</g>
<!-- 5 -->
<g id="node6" class="node"><title>5</title>
<ellipse fill="cadetblue" stroke="black" cx="65.2239" cy="-201.08" rx="21.4286" ry="21.4286"/>
<text text-anchor="middle" x="65.2239" y="-196.08" font-family="Times New Roman,serif" font-size="20.00">2</text>
</g>
<!-- 1&#45;&gt;5 -->
<g id="edge6" class="edge"><title>1&#45;&gt;5</title>
<path fill="none" stroke="black" stroke-width="2" d="M211.835,-191.917C202.916,-191.578 192.47,-191.356 183.021,-191.598 153.673,-192.351 120.332,-195.225 96.6301,-197.613"/>
<polygon fill="black" stroke="black" stroke-width="2" points="96.0527,-194.154 86.4671,-198.667 96.7748,-201.117 96.0527,-194.154"/>
</g>
<!-- 1&#45;&gt;7 -->
<g id="edge8" class="edge"><title>1&#45;&gt;7</title>
<path fill="none" stroke="black" stroke-width="2" d="M218.671,-177.786C205.968,-164.624 187.448,-145.434 172.985,-130.448"/>
<polygon fill="black" stroke="black" stroke-width="2" points="175.307,-127.814 165.844,-123.049 170.27,-132.675 175.307,-127.814"/>
</g>
<!-- 2 -->
<g id="node3" class="node"><title>2</title>
<ellipse fill="cadetblue" stroke="black" cx="182.982" cy="-217.903" rx="21.4286" ry="21.4286"/>
<text text-anchor="middle" x="182.982" y="-212.903" font-family="Times New Roman,serif" font-size="20.00">2</text>
</g>
<!-- 2&#45;&gt;5 -->
<g id="edge10" class="edge"><title>2&#45;&gt;5</title>
<path fill="none" stroke="black" stroke-width="2" d="M161.929,-214.895C143.706,-212.292 117.1,-208.491 96.4052,-205.535"/>
<polygon fill="black" stroke="black" stroke-width="2" points="96.886,-202.068 86.4915,-204.119 95.896,-208.998 96.886,-202.068"/>
</g>
<!-- 2&#45;&gt;6 -->
<g id="edge11" class="edge"><title>2&#45;&gt;6</title>
<path fill="none" stroke="black" stroke-width="2" d="M183.188,-196.439C183.454,-168.587 183.922,-119.774 184.229,-87.733"/>
<polygon fill="black" stroke="black" stroke-width="2" points="187.73,-87.5975 184.326,-77.5644 180.731,-87.5304 187.73,-87.5975"/>
</g>
<!-- 3 -->
<g id="node4" class="node"><title>3</title>
<ellipse fill="brown" stroke="black" cx="21.2132" cy="-97.8726" rx="21.4286" ry="21.4286"/>
<text text-anchor="middle" x="21.2132" y="-92.8726" font-family="Times New Roman,serif" font-size="20.00">3</text>
</g>
<!-- 3&#45;&gt;0 -->
<g id="edge1" class="edge"><title>3&#45;&gt;0</title>
<path fill="none" stroke="black" stroke-width="2" d="M31.8686,-79.3155C37.1283,-70.1554 43.5792,-58.9207 49.4021,-48.7798"/>
<polygon fill="black" stroke="black" stroke-width="2" points="52.5766,-50.28 54.5209,-39.8651 46.5062,-46.7944 52.5766,-50.28"/>
</g>
<!-- 4 -->
<g id="node5" class="node"><title>4</title>
<ellipse fill="cadetblue" stroke="black" cx="290.674" cy="-109.012" rx="21.4286" ry="21.4286"/>
<text text-anchor="middle" x="290.674" y="-104.012" font-family="Times New Roman,serif" font-size="20.00">2</text>
</g>
<!-- 4&#45;&gt;1 -->
<g id="edge5" class="edge"><title>4&#45;&gt;1</title>
<path fill="none" stroke="black" stroke-width="2" d="M278.531,-126.837C270.635,-138.426 260.203,-153.74 251.358,-166.722"/>
<polygon fill="black" stroke="black" stroke-width="2" points="248.277,-165.028 245.539,-175.263 254.062,-168.969 248.277,-165.028"/>
</g>
<!-- 4&#45;&gt;2 -->
<g id="edge9" class="edge"><title>4&#45;&gt;2</title>
<path fill="none" stroke="black" stroke-width="2" d="M273.743,-121.792C257.708,-134.303 233.395,-154.354 214.881,-174.394 210.013,-179.663 205.203,-185.674 200.851,-191.512"/>
<polygon fill="black" stroke="black" stroke-width="2" points="197.86,-189.675 194.85,-199.833 203.538,-193.769 197.86,-189.675"/>
</g>
<!-- 5&#45;&gt;0 -->
<g id="edge2" class="edge"><title>5&#45;&gt;0</title>
<path fill="none" stroke="black" stroke-width="2" d="M65.2247,-179.741C65.2259,-148.234 65.2282,-89.0733 65.2296,-52.6108"/>
<polygon fill="black" stroke="black" stroke-width="2" points="68.7295,-52.5251 65.23,-42.5249 61.7295,-52.5247 68.7295,-52.5251"/>
</g>
<!-- 5&#45;&gt;3 -->
<g id="edge13" class="edge"><title>5&#45;&gt;3</title>
<path fill="none" stroke="black" stroke-width="2" d="M56.7382,-181.181C50.2235,-165.904 41.1277,-144.573 33.7708,-127.321"/>
<polygon fill="black" stroke="black" stroke-width="2" points="36.815,-125.537 29.6729,-117.711 30.3759,-128.282 36.815,-125.537"/>
</g>
<!-- 6&#45;&gt;1 -->
<g id="edge7" class="edge"><title>6&#45;&gt;1</title>
<path fill="none" stroke="black" stroke-width="2" d="M191.743,-76.4536C199.939,-99.3866 213.391,-137.033 222.788,-163.327"/>
<polygon fill="black" stroke="black" stroke-width="2" points="219.51,-164.556 226.171,-172.795 226.102,-162.2 219.51,-164.556"/>
</g>
<!-- 6&#45;&gt;3 -->
<g id="edge14" class="edge"><title>6&#45;&gt;3</title>
<path fill="none" stroke="black" stroke-width="2" d="M163.846,-61.5385C135.577,-68.7398 84.6558,-81.7113 51.9233,-90.0495"/>
<polygon fill="black" stroke="black" stroke-width="2" points="50.8133,-86.7204 41.9868,-92.5807 52.5414,-93.5038 50.8133,-86.7204"/>
</g>
<!-- 6&#45;&gt;4 -->
<g id="edge16" class="edge"><title>6&#45;&gt;4</title>
<path fill="none" stroke="black" stroke-width="2" d="M203.999,-65.9433C220.308,-74.0472 243.809,-85.7249 262.226,-94.8767"/>
<polygon fill="black" stroke="black" stroke-width="2" points="260.817,-98.0843 271.329,-99.3999 263.931,-91.8155 260.817,-98.0843"/>
</g>
<!-- 7&#45;&gt;2 -->
<g id="edge12" class="edge"><title>7&#45;&gt;2</title>
<path fill="none" stroke="black" stroke-width="2" d="M156.901,-128.103C161.778,-144.894 168.749,-168.895 174.257,-187.86"/>
<polygon fill="black" stroke="black" stroke-width="2" points="170.914,-188.9 177.064,-197.527 177.636,-186.948 170.914,-188.9"/>
</g>
<!-- 7&#45;&gt;3 -->
<g id="edge15" class="edge"><title>7&#45;&gt;3</title>
<path fill="none" stroke="black" stroke-width="2" d="M129.528,-106.008C108.682,-104.443 76.7583,-102.045 52.9615,-100.257"/>
<polygon fill="black" stroke="black" stroke-width="2" points="52.9027,-96.743 42.6686,-99.4841 52.3784,-103.723 52.9027,-96.743"/>
</g>
<!-- 7&#45;&gt;4 -->
<g id="edge17" class="edge"><title>7&#45;&gt;4</title>
<path fill="none" stroke="black" stroke-width="2" d="M172.172,-107.829C195.254,-108.06 232.398,-108.431 258.948,-108.696"/>
<polygon fill="black" stroke="black" stroke-width="2" points="259.219,-112.198 269.254,-108.799 259.289,-105.199 259.219,-112.198"/>
</g>
</g>
</svg>

