<?xml version="1.0" encoding="UTF-8" standalone="no"?>
<!DOCTYPE svg PUBLIC "-//W3C//DTD SVG 1.1//EN"
 "http://www.w3.org/Graphics/SVG/1.1/DTD/svg11.dtd">
<!-- Generated by graphviz version 2.36.0 (20140111.2315)
 -->
<!-- Title: G Pages: 1 -->
<svg width="100%" height="100%"
 viewBox="0.00 0.00 306.51 327.10" xmlns="http://www.w3.org/2000/svg" xmlns:xlink="http://www.w3.org/1999/xlink">
<g id="graph0" class="graph" transform="scale(1 1) rotate(0) translate(4 323.105)">
<title>G</title>
<!-- 0 -->
<g id="node1" class="node"><title>0</title>
<ellipse fill="cadetblue" stroke="black" cx="21.2132" cy="-193.395" rx="21.4286" ry="21.4286"/>
<text text-anchor="middle" x="21.2132" y="-188.395" font-family="Times New Roman,serif" font-size="20.00">2</text>
</g>
<!-- 6 -->
<g id="node7" class="node"><title>6</title>
<ellipse fill="cadetblue" stroke="black" cx="171.416" cy="-210.19" rx="21.4286" ry="21.4286"/>
<text text-anchor="middle" x="171.416" y="-205.19" font-family="Times New Roman,serif" font-size="20.00">2</text>
</g>
<!-- 0&#45;&gt;6 -->
<g id="edge3" class="edge"><title>0&#45;&gt;6</title>
<path fill="none" stroke="black" stroke-width="2" d="M42.415,-195.766C67.9105,-198.617 110.922,-203.426 140.21,-206.701"/>
<polygon fill="black" stroke="black" stroke-width="2" points="139.995,-210.199 150.322,-207.832 140.773,-203.242 139.995,-210.199"/>
</g>
<!-- 7 -->
<g id="node8" class="node"><title>7</title>
<ellipse fill="cadetblue" stroke="black" cx="88.4028" cy="-71.9771" rx="21.4286" ry="21.4286"/>
<text text-anchor="middle" x="88.4028" y="-66.9771" font-family="Times New Roman,serif" font-size="20.00">2</text>
</g>
<!-- 0&#45;&gt;7 -->
<g id="edge4" class="edge"><title>0&#45;&gt;7</title>
<path fill="none" stroke="black" stroke-width="2" d="M31.5643,-174.69C42.6292,-154.695 60.2923,-122.776 72.9926,-99.8248"/>
<polygon fill="black" stroke="black" stroke-width="2" points="76.1497,-101.348 77.9292,-90.9039 70.0249,-97.959 76.1497,-101.348"/>
</g>
<!-- 1 -->
<g id="node2" class="node"><title>1</title>
<ellipse fill="cadetblue" stroke="black" cx="185.236" cy="-21.2132" rx="21.4286" ry="21.4286"/>
<text text-anchor="middle" x="185.236" y="-16.2132" font-family="Times New Roman,serif" font-size="20.00">2</text>
</g>
<!-- 1&#45;&gt;7 -->
<g id="edge7" class="edge"><title>1&#45;&gt;7</title>
<path fill="none" stroke="black" stroke-width="2" d="M166.105,-31.2425C151.914,-38.682 132.346,-48.9402 116.398,-57.3009"/>
<polygon fill="black" stroke="black" stroke-width="2" points="114.726,-54.2257 107.494,-61.9686 117.976,-60.4254 114.726,-54.2257"/>
</g>
<!-- 2 -->
<g id="node3" class="node"><title>2</title>
<ellipse fill="cadetblue" stroke="black" cx="249.199" cy="-75.2613" rx="21.4286" ry="21.4286"/>
<text text-anchor="middle" x="249.199" y="-70.2613" font-family="Times New Roman,serif" font-size="20.00">2</text>
</g>
<!-- 4 -->
<g id="node5" class="node"><title>4</title>
<ellipse fill="cadetblue" stroke="black" cx="277.296" cy="-162.211" rx="21.4286" ry="21.4286"/>
<text text-anchor="middle" x="277.296" y="-157.211" font-family="Times New Roman,serif" font-size="20.00">2</text>
</g>
<!-- 2&#45;&gt;4 -->
<g id="edge8" class="edge"><title>2&#45;&gt;4</title>
<path fill="none" stroke="black" stroke-width="2" d="M255.858,-95.8673C259.357,-106.696 263.711,-120.171 267.579,-132.142"/>
<polygon fill="black" stroke="black" stroke-width="2" points="264.28,-133.314 270.685,-141.753 270.941,-131.162 264.28,-133.314"/>
</g>
<!-- 3 -->
<g id="node4" class="node"><title>3</title>
<ellipse fill="cadetblue" stroke="black" cx="88.8533" cy="-297.891" rx="21.4286" ry="21.4286"/>
<text text-anchor="middle" x="88.8533" y="-292.891" font-family="Times New Roman,serif" font-size="20.00">2</text>
</g>
<!-- 3&#45;&gt;0 -->
<g id="edge1" class="edge"><title>3&#45;&gt;0</title>
<path fill="none" stroke="black" stroke-width="2" d="M77.0713,-279.69C66.4023,-263.207 50.5505,-238.718 38.4563,-220.034"/>
<polygon fill="black" stroke="black" stroke-width="2" points="41.2324,-217.882 32.8602,-211.389 35.356,-221.685 41.2324,-217.882"/>
</g>
<!-- 4&#45;&gt;1 -->
<g id="edge5" class="edge"><title>4&#45;&gt;1</title>
<path fill="none" stroke="black" stroke-width="2" d="M264.992,-144.637C255.451,-130.905 241.976,-111.287 230.572,-93.8339 220.769,-78.8302 210.142,-61.8483 201.642,-48.0807"/>
<polygon fill="black" stroke="black" stroke-width="2" points="204.615,-46.2338 196.394,-39.5507 198.653,-49.9019 204.615,-46.2338"/>
</g>
<!-- 5 -->
<g id="node6" class="node"><title>5</title>
<ellipse fill="cadetblue" stroke="black" cx="127.406" cy="-159.759" rx="21.4286" ry="21.4286"/>
<text text-anchor="middle" x="127.406" y="-154.759" font-family="Times New Roman,serif" font-size="20.00">2</text>
</g>
<!-- 4&#45;&gt;5 -->
<g id="edge13" class="edge"><title>4&#45;&gt;5</title>
<path fill="none" stroke="black" stroke-width="2" d="M255.82,-161.86C230.443,-161.445 187.998,-160.75 158.901,-160.274"/>
<polygon fill="black" stroke="black" stroke-width="2" points="158.897,-156.774 148.841,-160.11 158.783,-163.773 158.897,-156.774"/>
</g>
<!-- 5&#45;&gt;0 -->
<g id="edge2" class="edge"><title>5&#45;&gt;0</title>
<path fill="none" stroke="black" stroke-width="2" d="M106.931,-166.244C91.2114,-171.223 69.2643,-178.175 51.5132,-183.798"/>
<polygon fill="black" stroke="black" stroke-width="2" points="50.1016,-180.574 41.6253,-186.93 52.2154,-187.247 50.1016,-180.574"/>
</g>
<!-- 5&#45;&gt;1 -->
<g id="edge6" class="edge"><title>5&#45;&gt;1</title>
<path fill="none" stroke="black" stroke-width="2" d="M135.691,-139.909C145.482,-116.452 161.858,-77.2195 173.085,-50.3248"/>
<polygon fill="black" stroke="black" stroke-width="2" points="176.344,-51.6031 176.966,-41.0266 169.884,-48.9067 176.344,-51.6031"/>
</g>
<!-- 5&#45;&gt;3 -->
<g id="edge11" class="edge"><title>5&#45;&gt;3</title>
<path fill="none" stroke="black" stroke-width="2" d="M121.634,-180.439C115.218,-203.428 104.79,-240.79 97.4209,-267.194"/>
<polygon fill="black" stroke="black" stroke-width="2" points="93.9816,-266.497 94.6645,-277.07 100.724,-268.379 93.9816,-266.497"/>
</g>
<!-- 6&#45;&gt;2 -->
<g id="edge9" class="edge"><title>6&#45;&gt;2</title>
<path fill="none" stroke="black" stroke-width="2" d="M182.068,-191.712C195.318,-168.727 218.056,-129.285 233.353,-102.749"/>
<polygon fill="black" stroke="black" stroke-width="2" points="236.464,-104.361 238.426,-93.9495 230.399,-100.865 236.464,-104.361"/>
</g>
<!-- 6&#45;&gt;3 -->
<g id="edge12" class="edge"><title>6&#45;&gt;3</title>
<path fill="none" stroke="black" stroke-width="2" d="M156.655,-225.869C143.858,-239.463 125.164,-259.321 110.645,-274.744"/>
<polygon fill="black" stroke="black" stroke-width="2" points="107.792,-272.668 103.486,-282.348 112.889,-277.466 107.792,-272.668"/>
</g>
<!-- 6&#45;&gt;4 -->
<g id="edge14" class="edge"><title>6&#45;&gt;4</title>
<path fill="none" stroke="black" stroke-width="2" d="M190.836,-201.39C206.928,-194.098 230.041,-183.625 248.321,-175.341"/>
<polygon fill="black" stroke="black" stroke-width="2" points="249.976,-178.434 257.64,-171.118 247.087,-172.058 249.976,-178.434"/>
</g>
<!-- 7&#45;&gt;2 -->
<g id="edge10" class="edge"><title>7&#45;&gt;2</title>
<path fill="none" stroke="black" stroke-width="2" d="M109.755,-72.4132C137.386,-72.9776 185.754,-73.9655 217.633,-74.6166"/>
<polygon fill="black" stroke="black" stroke-width="2" points="217.689,-78.1183 227.758,-74.8234 217.832,-71.1198 217.689,-78.1183"/>
</g>
<!-- 7&#45;&gt;5 -->
<g id="edge15" class="edge"><title>7&#45;&gt;5</title>
<path fill="none" stroke="black" stroke-width="2" d="M97.0588,-91.4587C102.209,-103.051 108.84,-117.974 114.589,-130.912"/>
<polygon fill="black" stroke="black" stroke-width="2" points="111.515,-132.614 118.774,-140.332 117.912,-129.772 111.515,-132.614"/>
</g>
<!-- 7&#45;&gt;6 -->
<g id="edge16" class="edge"><title>7&#45;&gt;6</title>
<path fill="none" stroke="black" stroke-width="2" d="M103.41,-87.1547C116.03,-100.531 133.912,-120.99 146.088,-141.242 150.699,-148.91 150.53,-151.512 153.71,-159.876 156.23,-166.506 158.827,-173.672 161.23,-180.461"/>
<polygon fill="black" stroke="black" stroke-width="2" points="157.972,-181.748 164.579,-190.03 164.579,-179.436 157.972,-181.748"/>
</g>
</g>
</svg>

