<?xml version="1.0" encoding="UTF-8" standalone="no"?>
<!DOCTYPE svg PUBLIC "-//W3C//DTD SVG 1.1//EN"
 "http://www.w3.org/Graphics/SVG/1.1/DTD/svg11.dtd">
<!-- Generated by graphviz version 2.36.0 (20140111.2315)
 -->
<!-- Title: G Pages: 1 -->
<svg width="100%" height="100%"
 viewBox="0.00 0.00 265.99 245.93" xmlns="http://www.w3.org/2000/svg" xmlns:xlink="http://www.w3.org/1999/xlink">
<g id="graph0" class="graph" transform="scale(1 1) rotate(0) translate(4 241.935)">
<title>G</title>
<!-- 0 -->
<g id="node1" class="node"><title>0</title>
<ellipse fill="cadetblue" stroke="black" cx="21.2132" cy="-104.402" rx="21.4286" ry="21.4286"/>
<text text-anchor="middle" x="21.2132" y="-99.4025" font-family="Times New Roman,serif" font-size="20.00">2</text>
</g>
<!-- 6 -->
<g id="node7" class="node"><title>6</title>
<ellipse fill="cadetblue" stroke="black" cx="134.591" cy="-131.443" rx="21.4286" ry="21.4286"/>
<text text-anchor="middle" x="134.591" y="-126.443" font-family="Times New Roman,serif" font-size="20.00">2</text>
</g>
<!-- 0&#45;&gt;6 -->
<g id="edge3" class="edge"><title>0&#45;&gt;6</title>
<path fill="none" stroke="black" stroke-width="2" d="M42.0085,-109.362C59.349,-113.498 84.3014,-119.449 103.933,-124.131"/>
<polygon fill="black" stroke="black" stroke-width="2" points="103.389,-127.599 113.928,-126.515 105.013,-120.79 103.389,-127.599"/>
</g>
<!-- 7 -->
<g id="node8" class="node"><title>7</title>
<ellipse fill="brown" stroke="black" cx="123.254" cy="-81.0114" rx="21.4286" ry="21.4286"/>
<text text-anchor="middle" x="123.254" y="-76.0114" font-family="Times New Roman,serif" font-size="20.00">3</text>
</g>
<!-- 0&#45;&gt;7 -->
<g id="edge4" class="edge"><title>0&#45;&gt;7</title>
<path fill="none" stroke="black" stroke-width="2" d="M42.3562,-99.5558C56.8179,-96.2407 76.2245,-91.7921 92.4049,-88.0831"/>
<polygon fill="black" stroke="black" stroke-width="2" points="93.5224,-91.4178 102.488,-85.7718 91.9583,-84.5947 93.5224,-91.4178"/>
</g>
<!-- 1 -->
<g id="node2" class="node"><title>1</title>
<ellipse fill="cadetblue" stroke="black" cx="173.871" cy="-206.036" rx="21.4286" ry="21.4286"/>
<text text-anchor="middle" x="173.871" y="-201.036" font-family="Times New Roman,serif" font-size="20.00">2</text>
</g>
<!-- 5 -->
<g id="node6" class="node"><title>5</title>
<ellipse fill="cadetblue" stroke="black" cx="28.2166" cy="-194.746" rx="21.4286" ry="21.4286"/>
<text text-anchor="middle" x="28.2166" y="-189.746" font-family="Times New Roman,serif" font-size="20.00">2</text>
</g>
<!-- 1&#45;&gt;5 -->
<g id="edge6" class="edge"><title>1&#45;&gt;5</title>
<path fill="none" stroke="black" stroke-width="2" d="M153.063,-201.061C134.068,-196.885 105.147,-191.441 79.6272,-190.417 73.1078,-190.155 66.136,-190.393 59.4971,-190.867"/>
<polygon fill="black" stroke="black" stroke-width="2" points="59.0985,-187.389 49.4515,-191.769 59.7244,-194.361 59.0985,-187.389"/>
</g>
<!-- 1&#45;&gt;7 -->
<g id="edge8" class="edge"><title>1&#45;&gt;7</title>
<path fill="none" stroke="black" stroke-width="2" d="M173.321,-184.817C171.893,-164.812 167.319,-134.721 153.213,-112.865 151.052,-109.516 148.517,-106.201 145.853,-103.047"/>
<polygon fill="black" stroke="black" stroke-width="2" points="148.415,-100.663 139.103,-95.6103 143.232,-105.367 148.415,-100.663"/>
</g>
<!-- 2 -->
<g id="node3" class="node"><title>2</title>
<ellipse fill="cadetblue" stroke="black" cx="196.433" cy="-21.2132" rx="21.4286" ry="21.4286"/>
<text text-anchor="middle" x="196.433" y="-16.2132" font-family="Times New Roman,serif" font-size="20.00">2</text>
</g>
<!-- 2&#45;&gt;7 -->
<g id="edge11" class="edge"><title>2&#45;&gt;7</title>
<path fill="none" stroke="black" stroke-width="2" d="M179.828,-34.7823C170.378,-42.5044 158.362,-52.3227 147.838,-60.9231"/>
<polygon fill="black" stroke="black" stroke-width="2" points="145.323,-58.4581 139.794,-67.496 149.752,-63.8785 145.323,-58.4581"/>
</g>
<!-- 3 -->
<g id="node4" class="node"><title>3</title>
<ellipse fill="cadetblue" stroke="black" cx="79.5835" cy="-216.721" rx="21.4286" ry="21.4286"/>
<text text-anchor="middle" x="79.5835" y="-211.721" font-family="Times New Roman,serif" font-size="20.00">2</text>
</g>
<!-- 3&#45;&gt;0 -->
<g id="edge1" class="edge"><title>3&#45;&gt;0</title>
<path fill="none" stroke="black" stroke-width="2" d="M69.6818,-197.668C60.4157,-179.838 46.4555,-152.975 35.8937,-132.651"/>
<polygon fill="black" stroke="black" stroke-width="2" points="38.8805,-130.809 31.1635,-123.549 32.6692,-134.037 38.8805,-130.809"/>
</g>
<!-- 4 -->
<g id="node5" class="node"><title>4</title>
<ellipse fill="cadetblue" stroke="black" cx="236.775" cy="-115.59" rx="21.4286" ry="21.4286"/>
<text text-anchor="middle" x="236.775" y="-110.59" font-family="Times New Roman,serif" font-size="20.00">2</text>
</g>
<!-- 4&#45;&gt;1 -->
<g id="edge5" class="edge"><title>4&#45;&gt;1</title>
<path fill="none" stroke="black" stroke-width="2" d="M224.647,-133.029C215.395,-146.331 202.501,-164.87 192.022,-179.937"/>
<polygon fill="black" stroke="black" stroke-width="2" points="189.013,-178.134 186.177,-188.342 194.76,-182.131 189.013,-178.134"/>
</g>
<!-- 4&#45;&gt;2 -->
<g id="edge9" class="edge"><title>4&#45;&gt;2</title>
<path fill="none" stroke="black" stroke-width="2" d="M228.416,-96.0348C222.737,-82.7479 215.128,-64.948 208.757,-50.0431"/>
<polygon fill="black" stroke="black" stroke-width="2" points="211.93,-48.5624 204.781,-40.743 205.494,-51.3139 211.93,-48.5624"/>
</g>
<!-- 5&#45;&gt;0 -->
<g id="edge2" class="edge"><title>5&#45;&gt;0</title>
<path fill="none" stroke="black" stroke-width="2" d="M26.5569,-173.335C25.6847,-162.084 24.5994,-148.084 23.6351,-135.645"/>
<polygon fill="black" stroke="black" stroke-width="2" points="27.1235,-135.358 22.861,-125.659 20.1444,-135.899 27.1235,-135.358"/>
</g>
<!-- 5&#45;&gt;3 -->
<g id="edge12" class="edge"><title>5&#45;&gt;3</title>
<path fill="none" stroke="black" stroke-width="2" d="M47.9295,-203.179C48.7959,-203.55 49.672,-203.925 50.5534,-204.302"/>
<polygon fill="black" stroke="black" stroke-width="2" points="49.4375,-207.631 60.0082,-208.347 52.1909,-201.195 49.4375,-207.631"/>
</g>
<!-- 6&#45;&gt;1 -->
<g id="edge7" class="edge"><title>6&#45;&gt;1</title>
<path fill="none" stroke="black" stroke-width="2" d="M144.503,-150.266C148.969,-158.747 154.333,-168.932 159.247,-178.265"/>
<polygon fill="black" stroke="black" stroke-width="2" points="156.206,-180.001 163.962,-187.219 162.4,-176.74 156.206,-180.001"/>
</g>
<!-- 6&#45;&gt;2 -->
<g id="edge10" class="edge"><title>6&#45;&gt;2</title>
<path fill="none" stroke="black" stroke-width="2" d="M145.082,-112.744C154.899,-95.2453 169.689,-68.8822 180.879,-48.9367"/>
<polygon fill="black" stroke="black" stroke-width="2" points="184.05,-50.4377 185.891,-40.0039 177.946,-47.0126 184.05,-50.4377"/>
</g>
<!-- 6&#45;&gt;4 -->
<g id="edge14" class="edge"><title>6&#45;&gt;4</title>
<path fill="none" stroke="black" stroke-width="2" d="M155.764,-128.158C170.15,-125.926 189.422,-122.936 205.56,-120.432"/>
<polygon fill="black" stroke="black" stroke-width="2" points="206.285,-123.862 215.63,-118.87 205.211,-116.945 206.285,-123.862"/>
</g>
<!-- 6&#45;&gt;5 -->
<g id="edge16" class="edge"><title>6&#45;&gt;5</title>
<path fill="none" stroke="black" stroke-width="2" d="M116.062,-142.469C99.2834,-152.454 74.3541,-167.289 55.3341,-178.608"/>
<polygon fill="black" stroke="black" stroke-width="2" points="53.3369,-175.724 46.5333,-183.845 56.9166,-181.739 53.3369,-175.724"/>
</g>
<!-- 7&#45;&gt;3 -->
<g id="edge13" class="edge"><title>7&#45;&gt;3</title>
<path fill="none" stroke="black" stroke-width="2" d="M116.716,-101.329C109.448,-123.914 97.6361,-160.622 89.2886,-186.562"/>
<polygon fill="black" stroke="black" stroke-width="2" points="85.8978,-185.674 86.1662,-196.265 92.5613,-187.818 85.8978,-185.674"/>
</g>
<!-- 7&#45;&gt;4 -->
<g id="edge15" class="edge"><title>7&#45;&gt;4</title>
<path fill="none" stroke="black" stroke-width="2" d="M143.55,-87.1933C161.037,-92.5199 186.532,-100.286 206.442,-106.35"/>
<polygon fill="black" stroke="black" stroke-width="2" points="205.687,-109.779 216.273,-109.345 207.727,-103.083 205.687,-109.779"/>
</g>
<!-- 7&#45;&gt;6 -->
<g id="edge17" class="edge"><title>7&#45;&gt;6</title>
<path fill="none" stroke="black" stroke-width="2" d="M127.931,-101.815C127.951,-101.907 127.972,-101.998 127.993,-102.09"/>
<polygon fill="black" stroke="black" stroke-width="2" points="124.317,-101.698 129.925,-110.687 131.147,-100.163 124.317,-101.698"/>
</g>
</g>
</svg>

