<?xml version="1.0" encoding="UTF-8" standalone="no"?>
<!DOCTYPE svg PUBLIC "-//W3C//DTD SVG 1.1//EN"
 "http://www.w3.org/Graphics/SVG/1.1/DTD/svg11.dtd">
<!-- Generated by graphviz version 2.36.0 (20140111.2315)
 -->
<!-- Title: G Pages: 1 -->
<svg width="100%" height="100%"
 viewBox="0.00 0.00 317.07 289.17" xmlns="http://www.w3.org/2000/svg" xmlns:xlink="http://www.w3.org/1999/xlink">
<g id="graph0" class="graph" transform="scale(1 1) rotate(0) translate(4 285.173)">
<title>G</title>
<!-- 0 -->
<g id="node1" class="node"><title>0</title>
<ellipse fill="cadetblue" stroke="black" cx="21.2132" cy="-104.454" rx="21.4286" ry="21.4286"/>
<text text-anchor="middle" x="21.2132" y="-99.4542" font-family="Times New Roman,serif" font-size="20.00">2</text>
</g>
<!-- 6 -->
<g id="node7" class="node"><title>6</title>
<ellipse fill="cadetblue" stroke="black" cx="118.766" cy="-75.4182" rx="21.4286" ry="21.4286"/>
<text text-anchor="middle" x="118.766" y="-70.4182" font-family="Times New Roman,serif" font-size="20.00">2</text>
</g>
<!-- 0&#45;&gt;6 -->
<g id="edge3" class="edge"><title>0&#45;&gt;6</title>
<path fill="none" stroke="black" stroke-width="2" d="M41.9016,-98.2964C55.3525,-94.2928 73.1264,-89.0025 88.1943,-84.5176"/>
<polygon fill="black" stroke="black" stroke-width="2" points="89.5211,-87.7745 98.1071,-81.5671 87.5242,-81.0654 89.5211,-87.7745"/>
</g>
<!-- 7 -->
<g id="node8" class="node"><title>7</title>
<ellipse fill="cadetblue" stroke="black" cx="175.676" cy="-147.207" rx="21.4286" ry="21.4286"/>
<text text-anchor="middle" x="175.676" y="-142.207" font-family="Times New Roman,serif" font-size="20.00">2</text>
</g>
<!-- 0&#45;&gt;7 -->
<g id="edge4" class="edge"><title>0&#45;&gt;7</title>
<path fill="none" stroke="black" stroke-width="2" d="M41.7246,-110.131C68.2673,-117.478 114.73,-130.338 145.353,-138.814"/>
<polygon fill="black" stroke="black" stroke-width="2" points="144.508,-142.212 155.08,-141.507 146.376,-135.466 144.508,-142.212"/>
</g>
<!-- 1 -->
<g id="node2" class="node"><title>1</title>
<ellipse fill="cadetblue" stroke="black" cx="246.228" cy="-259.96" rx="21.4286" ry="21.4286"/>
<text text-anchor="middle" x="246.228" y="-254.96" font-family="Times New Roman,serif" font-size="20.00">2</text>
</g>
<!-- 1&#45;&gt;7 -->
<g id="edge7" class="edge"><title>1&#45;&gt;7</title>
<path fill="none" stroke="black" stroke-width="2" d="M234.892,-241.844C223.424,-223.516 205.563,-194.971 192.454,-174.022"/>
<polygon fill="black" stroke="black" stroke-width="2" points="195.255,-171.899 186.983,-165.278 189.321,-175.612 195.255,-171.899"/>
</g>
<!-- 2 -->
<g id="node3" class="node"><title>2</title>
<ellipse fill="cadetblue" stroke="black" cx="198.912" cy="-21.2132" rx="21.4286" ry="21.4286"/>
<text text-anchor="middle" x="198.912" y="-16.2132" font-family="Times New Roman,serif" font-size="20.00">2</text>
</g>
<!-- 2&#45;&gt;6 -->
<g id="edge9" class="edge"><title>2&#45;&gt;6</title>
<path fill="none" stroke="black" stroke-width="2" d="M181.125,-33.2431C170.541,-40.4011 156.916,-49.616 145.103,-57.6055"/>
<polygon fill="black" stroke="black" stroke-width="2" points="142.826,-54.9205 136.503,-63.422 146.747,-60.7189 142.826,-54.9205"/>
</g>
<!-- 3 -->
<g id="node4" class="node"><title>3</title>
<ellipse fill="cadetblue" stroke="black" cx="27.4494" cy="-202.995" rx="21.4286" ry="21.4286"/>
<text text-anchor="middle" x="27.4494" y="-197.995" font-family="Times New Roman,serif" font-size="20.00">2</text>
</g>
<!-- 3&#45;&gt;0 -->
<g id="edge1" class="edge"><title>3&#45;&gt;0</title>
<path fill="none" stroke="black" stroke-width="2" d="M26.0962,-181.613C25.2545,-168.313 24.1569,-150.97 23.2156,-136.096"/>
<polygon fill="black" stroke="black" stroke-width="2" points="26.6884,-135.553 22.5637,-125.794 19.7024,-135.995 26.6884,-135.553"/>
</g>
<!-- 4 -->
<g id="node5" class="node"><title>4</title>
<ellipse fill="cadetblue" stroke="black" cx="287.859" cy="-135.043" rx="21.4286" ry="21.4286"/>
<text text-anchor="middle" x="287.859" y="-130.043" font-family="Times New Roman,serif" font-size="20.00">2</text>
</g>
<!-- 4&#45;&gt;1 -->
<g id="edge5" class="edge"><title>4&#45;&gt;1</title>
<path fill="none" stroke="black" stroke-width="2" d="M281.077,-155.391C274.334,-175.626 263.912,-206.898 256.22,-229.976"/>
<polygon fill="black" stroke="black" stroke-width="2" points="252.848,-229.027 253.006,-239.62 259.488,-231.24 252.848,-229.027"/>
</g>
<!-- 5 -->
<g id="node6" class="node"><title>5</title>
<ellipse fill="cadetblue" stroke="black" cx="125.244" cy="-193.193" rx="21.4286" ry="21.4286"/>
<text text-anchor="middle" x="125.244" y="-188.193" font-family="Times New Roman,serif" font-size="20.00">2</text>
</g>
<!-- 5&#45;&gt;0 -->
<g id="edge2" class="edge"><title>5&#45;&gt;0</title>
<path fill="none" stroke="black" stroke-width="2" d="M108.99,-179.328C91.8122,-164.675 64.5504,-141.421 44.9654,-124.715"/>
<polygon fill="black" stroke="black" stroke-width="2" points="47.2335,-122.049 37.3539,-118.222 42.6906,-127.375 47.2335,-122.049"/>
</g>
<!-- 5&#45;&gt;1 -->
<g id="edge6" class="edge"><title>5&#45;&gt;1</title>
<path fill="none" stroke="black" stroke-width="2" d="M143.883,-203.479C163.807,-214.474 195.611,-232.026 218.48,-244.647"/>
<polygon fill="black" stroke="black" stroke-width="2" points="216.922,-247.785 227.369,-249.552 220.305,-241.656 216.922,-247.785"/>
</g>
<!-- 5&#45;&gt;2 -->
<g id="edge8" class="edge"><title>5&#45;&gt;2</title>
<path fill="none" stroke="black" stroke-width="2" d="M133.695,-173.465C146.65,-143.222 171.489,-85.2336 186.494,-50.2046"/>
<polygon fill="black" stroke="black" stroke-width="2" points="189.727,-51.5459 190.447,-40.9756 183.292,-48.7896 189.727,-51.5459"/>
</g>
<!-- 6&#45;&gt;3 -->
<g id="edge11" class="edge"><title>6&#45;&gt;3</title>
<path fill="none" stroke="black" stroke-width="2" d="M106.26,-92.8897C90.6174,-114.744 63.7108,-152.335 45.7505,-177.427"/>
<polygon fill="black" stroke="black" stroke-width="2" points="42.7784,-175.566 39.804,-185.735 48.4705,-179.64 42.7784,-175.566"/>
</g>
<!-- 6&#45;&gt;4 -->
<g id="edge13" class="edge"><title>6&#45;&gt;4</title>
<path fill="none" stroke="black" stroke-width="2" d="M138.827,-82.4921C168.446,-92.9365 224.063,-112.548 258.342,-124.635"/>
<polygon fill="black" stroke="black" stroke-width="2" points="257.229,-127.954 267.824,-127.979 259.557,-121.352 257.229,-127.954"/>
</g>
<!-- 6&#45;&gt;5 -->
<g id="edge15" class="edge"><title>6&#45;&gt;5</title>
<path fill="none" stroke="black" stroke-width="2" d="M119.939,-96.7464C120.933,-114.81 122.371,-140.966 123.5,-161.483"/>
<polygon fill="black" stroke="black" stroke-width="2" points="120.014,-161.833 124.058,-171.626 127.003,-161.449 120.014,-161.833"/>
</g>
<!-- 7&#45;&gt;2 -->
<g id="edge10" class="edge"><title>7&#45;&gt;2</title>
<path fill="none" stroke="black" stroke-width="2" d="M179.565,-126.119C183.285,-105.95 188.939,-75.2924 193.175,-52.3196"/>
<polygon fill="black" stroke="black" stroke-width="2" points="196.638,-52.8395 195.01,-42.3706 189.754,-51.5699 196.638,-52.8395"/>
</g>
<!-- 7&#45;&gt;3 -->
<g id="edge12" class="edge"><title>7&#45;&gt;3</title>
<path fill="none" stroke="black" stroke-width="2" d="M155.685,-154.731C130.379,-164.256 86.5615,-180.747 57.2896,-191.764"/>
<polygon fill="black" stroke="black" stroke-width="2" points="55.7227,-188.614 47.5965,-195.412 58.1885,-195.165 55.7227,-188.614"/>
</g>
<!-- 7&#45;&gt;4 -->
<g id="edge14" class="edge"><title>7&#45;&gt;4</title>
<path fill="none" stroke="black" stroke-width="2" d="M196.777,-144.919C213.592,-143.096 237.393,-140.515 256.448,-138.449"/>
<polygon fill="black" stroke="black" stroke-width="2" points="256.907,-141.92 266.471,-137.362 256.152,-134.961 256.907,-141.92"/>
</g>
<!-- 7&#45;&gt;5 -->
<g id="edge16" class="edge"><title>7&#45;&gt;5</title>
<path fill="none" stroke="black" stroke-width="2" d="M159.995,-161.505C156.425,-164.762 152.554,-168.291 148.737,-171.771"/>
<polygon fill="black" stroke="black" stroke-width="2" points="146.12,-169.421 141.089,-178.745 150.836,-174.594 146.12,-169.421"/>
</g>
</g>
</svg>

