<?xml version="1.0" encoding="UTF-8" standalone="no"?>
<!DOCTYPE svg PUBLIC "-//W3C//DTD SVG 1.1//EN"
 "http://www.w3.org/Graphics/SVG/1.1/DTD/svg11.dtd">
<!-- Generated by graphviz version 2.36.0 (20140111.2315)
 -->
<!-- Title: G Pages: 1 -->
<svg width="100%" height="100%"
 viewBox="0.00 0.00 319.95 234.71" xmlns="http://www.w3.org/2000/svg" xmlns:xlink="http://www.w3.org/1999/xlink">
<g id="graph0" class="graph" transform="scale(1 1) rotate(0) translate(4 230.714)">
<title>G</title>
<!-- 0 -->
<g id="node1" class="node"><title>0</title>
<ellipse fill="cadetblue" stroke="black" cx="72.8642" cy="-66.0649" rx="21.4286" ry="21.4286"/>
<text text-anchor="middle" x="72.8642" y="-61.0649" font-family="Times New Roman,serif" font-size="20.00">2</text>
</g>
<!-- 6 -->
<g id="node7" class="node"><title>6</title>
<ellipse fill="cadetblue" stroke="black" cx="113.246" cy="-178.848" rx="21.4286" ry="21.4286"/>
<text text-anchor="middle" x="113.246" y="-173.848" font-family="Times New Roman,serif" font-size="20.00">2</text>
</g>
<!-- 0&#45;&gt;6 -->
<g id="edge3" class="edge"><title>0&#45;&gt;6</title>
<path fill="none" stroke="black" stroke-width="2" d="M80.0837,-86.2282C86.3716,-103.79 95.5701,-129.481 102.685,-149.353"/>
<polygon fill="black" stroke="black" stroke-width="2" points="99.4229,-150.624 106.089,-158.859 106.013,-148.265 99.4229,-150.624"/>
</g>
<!-- 7 -->
<g id="node8" class="node"><title>7</title>
<ellipse fill="cadetblue" stroke="black" cx="158.648" cy="-128.037" rx="21.4286" ry="21.4286"/>
<text text-anchor="middle" x="158.648" y="-123.037" font-family="Times New Roman,serif" font-size="20.00">2</text>
</g>
<!-- 0&#45;&gt;7 -->
<g id="edge4" class="edge"><title>0&#45;&gt;7</title>
<path fill="none" stroke="black" stroke-width="2" d="M90.2239,-78.6059C102.549,-87.5099 119.296,-99.6086 133.137,-109.608"/>
<polygon fill="black" stroke="black" stroke-width="2" points="131.159,-112.496 141.314,-115.515 135.258,-106.822 131.159,-112.496"/>
</g>
<!-- 1 -->
<g id="node2" class="node"><title>1</title>
<ellipse fill="cadetblue" stroke="black" cx="236.345" cy="-205.501" rx="21.4286" ry="21.4286"/>
<text text-anchor="middle" x="236.345" y="-200.501" font-family="Times New Roman,serif" font-size="20.00">2</text>
</g>
<!-- 1&#45;&gt;6 -->
<g id="edge7" class="edge"><title>1&#45;&gt;6</title>
<path fill="none" stroke="black" stroke-width="2" d="M215.463,-200.98C195.921,-196.749 166.48,-190.374 144.206,-185.551"/>
<polygon fill="black" stroke="black" stroke-width="2" points="144.745,-182.087 134.23,-183.391 143.263,-188.928 144.745,-182.087"/>
</g>
<!-- 1&#45;&gt;7 -->
<g id="edge8" class="edge"><title>1&#45;&gt;7</title>
<path fill="none" stroke="black" stroke-width="2" d="M220.994,-190.197C209.534,-178.771 193.703,-162.987 180.862,-150.184"/>
<polygon fill="black" stroke="black" stroke-width="2" points="183.255,-147.628 173.702,-143.046 178.313,-152.585 183.255,-147.628"/>
</g>
<!-- 2 -->
<g id="node3" class="node"><title>2</title>
<ellipse fill="cadetblue" stroke="black" cx="177.214" cy="-21.2132" rx="21.4286" ry="21.4286"/>
<text text-anchor="middle" x="177.214" y="-16.2132" font-family="Times New Roman,serif" font-size="20.00">2</text>
</g>
<!-- 4 -->
<g id="node5" class="node"><title>4</title>
<ellipse fill="cadetblue" stroke="black" cx="290.737" cy="-108.01" rx="21.4286" ry="21.4286"/>
<text text-anchor="middle" x="290.737" y="-103.01" font-family="Times New Roman,serif" font-size="20.00">2</text>
</g>
<!-- 2&#45;&gt;4 -->
<g id="edge9" class="edge"><title>2&#45;&gt;4</title>
<path fill="none" stroke="black" stroke-width="2" d="M197.446,-28.502C211.146,-34.0154 229.219,-42.4556 243.152,-53.1277 253.945,-61.3952 264.088,-72.4331 272.213,-82.4415"/>
<polygon fill="black" stroke="black" stroke-width="2" points="269.616,-84.8023 278.533,-90.5231 275.129,-80.4899 269.616,-84.8023"/>
</g>
<!-- 5 -->
<g id="node6" class="node"><title>5</title>
<ellipse fill="brown" stroke="black" cx="224.469" cy="-71.6447" rx="21.4286" ry="21.4286"/>
<text text-anchor="middle" x="224.469" y="-66.6447" font-family="Times New Roman,serif" font-size="20.00">3</text>
</g>
<!-- 2&#45;&gt;5 -->
<g id="edge10" class="edge"><title>2&#45;&gt;5</title>
<path fill="none" stroke="black" stroke-width="2" d="M191.907,-36.8936C195.407,-40.629 199.214,-44.6918 202.95,-48.679"/>
<polygon fill="black" stroke="black" stroke-width="2" points="200.556,-51.2432 209.948,-56.1472 205.664,-46.4569 200.556,-51.2432"/>
</g>
<!-- 3 -->
<g id="node4" class="node"><title>3</title>
<ellipse fill="cadetblue" stroke="black" cx="21.2132" cy="-160.103" rx="21.4286" ry="21.4286"/>
<text text-anchor="middle" x="21.2132" y="-155.103" font-family="Times New Roman,serif" font-size="20.00">2</text>
</g>
<!-- 3&#45;&gt;0 -->
<g id="edge1" class="edge"><title>3&#45;&gt;0</title>
<path fill="none" stroke="black" stroke-width="2" d="M31.6656,-141.073C39.1354,-127.473 49.3031,-108.961 57.6683,-93.7313"/>
<polygon fill="black" stroke="black" stroke-width="2" points="60.8572,-95.1956 62.6037,-84.7457 54.7217,-91.8257 60.8572,-95.1956"/>
</g>
<!-- 4&#45;&gt;1 -->
<g id="edge5" class="edge"><title>4&#45;&gt;1</title>
<path fill="none" stroke="black" stroke-width="2" d="M280.25,-126.807C272.198,-141.238 260.957,-161.387 251.865,-177.684"/>
<polygon fill="black" stroke="black" stroke-width="2" points="248.616,-176.323 246.8,-186.761 254.729,-179.734 248.616,-176.323"/>
</g>
<!-- 4&#45;&gt;5 -->
<g id="edge15" class="edge"><title>4&#45;&gt;5</title>
<path fill="none" stroke="black" stroke-width="2" d="M271.925,-97.6864C265.716,-94.2794 258.677,-90.4165 251.957,-86.7289"/>
<polygon fill="black" stroke="black" stroke-width="2" points="253.55,-83.6107 243.099,-81.8682 250.182,-89.7474 253.55,-83.6107"/>
</g>
<!-- 5&#45;&gt;0 -->
<g id="edge2" class="edge"><title>5&#45;&gt;0</title>
<path fill="none" stroke="black" stroke-width="2" d="M203.069,-70.857C177.336,-69.9099 133.922,-68.3121 104.361,-67.2241"/>
<polygon fill="black" stroke="black" stroke-width="2" points="104.277,-63.7188 94.1551,-66.8485 104.02,-70.714 104.277,-63.7188"/>
</g>
<!-- 5&#45;&gt;1 -->
<g id="edge6" class="edge"><title>5&#45;&gt;1</title>
<path fill="none" stroke="black" stroke-width="2" d="M226.351,-92.8546C228.285,-114.657 231.319,-148.858 233.538,-173.859"/>
<polygon fill="black" stroke="black" stroke-width="2" points="230.062,-174.295 234.433,-183.947 237.035,-173.677 230.062,-174.295"/>
</g>
<!-- 6&#45;&gt;2 -->
<g id="edge11" class="edge"><title>6&#45;&gt;2</title>
<path fill="none" stroke="black" stroke-width="2" d="M120.713,-158.514C124.179,-149.197 128.397,-138.028 132.344,-128.036 142.852,-101.428 155.533,-71.4156 164.729,-49.993"/>
<polygon fill="black" stroke="black" stroke-width="2" points="167.948,-51.3666 168.689,-40.7977 161.519,-48.5979 167.948,-51.3666"/>
</g>
<!-- 6&#45;&gt;3 -->
<g id="edge13" class="edge"><title>6&#45;&gt;3</title>
<path fill="none" stroke="black" stroke-width="2" d="M92.3623,-174.594C80.4777,-172.174 65.3666,-169.096 52.1302,-166.4"/>
<polygon fill="black" stroke="black" stroke-width="2" points="52.5116,-162.906 42.0142,-164.34 51.1145,-169.765 52.5116,-162.906"/>
</g>
<!-- 7&#45;&gt;2 -->
<g id="edge12" class="edge"><title>7&#45;&gt;2</title>
<path fill="none" stroke="black" stroke-width="2" d="M162.316,-106.932C165.012,-91.4234 168.719,-70.0935 171.761,-52.5912"/>
<polygon fill="black" stroke="black" stroke-width="2" points="175.289,-52.726 173.554,-42.2744 168.393,-51.5273 175.289,-52.726"/>
</g>
<!-- 7&#45;&gt;3 -->
<g id="edge14" class="edge"><title>7&#45;&gt;3</title>
<path fill="none" stroke="black" stroke-width="2" d="M137.775,-132.907C114.97,-138.228 78.2102,-146.805 52.0728,-152.903"/>
<polygon fill="black" stroke="black" stroke-width="2" points="51.2262,-149.506 42.2831,-155.187 52.8168,-156.323 51.2262,-149.506"/>
</g>
<!-- 7&#45;&gt;4 -->
<g id="edge16" class="edge"><title>7&#45;&gt;4</title>
<path fill="none" stroke="black" stroke-width="2" d="M179.871,-124.82C201.439,-121.549 235.082,-116.448 259.654,-112.723"/>
<polygon fill="black" stroke="black" stroke-width="2" points="260.205,-116.179 269.567,-111.22 259.156,-109.258 260.205,-116.179"/>
</g>
<!-- 7&#45;&gt;5 -->
<g id="edge17" class="edge"><title>7&#45;&gt;5</title>
<path fill="none" stroke="black" stroke-width="2" d="M174.918,-114.098C182.535,-107.572 191.764,-99.6646 200.184,-92.4512"/>
<polygon fill="black" stroke="black" stroke-width="2" points="202.612,-94.9799 207.929,-85.8157 198.057,-89.6641 202.612,-94.9799"/>
</g>
</g>
</svg>

