<?xml version="1.0" encoding="UTF-8" standalone="no"?>
<!DOCTYPE svg PUBLIC "-//W3C//DTD SVG 1.1//EN"
 "http://www.w3.org/Graphics/SVG/1.1/DTD/svg11.dtd">
<!-- Generated by graphviz version 2.36.0 (20140111.2315)
 -->
<!-- Title: G Pages: 1 -->
<svg width="100%" height="100%"
 viewBox="0.00 0.00 240.97 249.59" xmlns="http://www.w3.org/2000/svg" xmlns:xlink="http://www.w3.org/1999/xlink">
<g id="graph0" class="graph" transform="scale(1 1) rotate(0) translate(4 245.595)">
<title>G</title>
<!-- 0 -->
<g id="node1" class="node"><title>0</title>
<ellipse fill="cadetblue" stroke="black" cx="21.2132" cy="-57.115" rx="21.4286" ry="21.4286"/>
<text text-anchor="middle" x="21.2132" y="-52.115" font-family="Times New Roman,serif" font-size="20.00">2</text>
</g>
<!-- 6 -->
<g id="node7" class="node"><title>6</title>
<ellipse fill="cadetblue" stroke="black" cx="146.619" cy="-55.7753" rx="21.4286" ry="21.4286"/>
<text text-anchor="middle" x="146.619" y="-50.7753" font-family="Times New Roman,serif" font-size="20.00">2</text>
</g>
<!-- 0&#45;&gt;6 -->
<g id="edge3" class="edge"><title>0&#45;&gt;6</title>
<path fill="none" stroke="black" stroke-width="2" d="M42.4866,-56.8877C62.3943,-56.6751 92.387,-56.3547 115.079,-56.1123"/>
<polygon fill="black" stroke="black" stroke-width="2" points="115.279,-59.6104 125.241,-56.0037 115.204,-52.6108 115.279,-59.6104"/>
</g>
<!-- 7 -->
<g id="node8" class="node"><title>7</title>
<ellipse fill="cadetblue" stroke="black" cx="99.9804" cy="-113.387" rx="21.4286" ry="21.4286"/>
<text text-anchor="middle" x="99.9804" y="-108.387" font-family="Times New Roman,serif" font-size="20.00">2</text>
</g>
<!-- 0&#45;&gt;7 -->
<g id="edge4" class="edge"><title>0&#45;&gt;7</title>
<path fill="none" stroke="black" stroke-width="2" d="M38.6942,-69.6036C49.0959,-77.0346 62.4863,-86.6009 74.0962,-94.8951"/>
<polygon fill="black" stroke="black" stroke-width="2" points="72.3768,-97.9682 82.5483,-100.933 76.446,-92.2724 72.3768,-97.9682"/>
</g>
<!-- 1 -->
<g id="node2" class="node"><title>1</title>
<ellipse fill="cadetblue" stroke="black" cx="68.754" cy="-220.381" rx="21.4286" ry="21.4286"/>
<text text-anchor="middle" x="68.754" y="-215.381" font-family="Times New Roman,serif" font-size="20.00">2</text>
</g>
<!-- 1&#45;&gt;7 -->
<g id="edge7" class="edge"><title>1&#45;&gt;7</title>
<path fill="none" stroke="black" stroke-width="2" d="M74.701,-200.005C79.3377,-184.117 85.8496,-161.805 91.1029,-143.805"/>
<polygon fill="black" stroke="black" stroke-width="2" points="94.5074,-144.632 93.9492,-134.052 87.7877,-142.671 94.5074,-144.632"/>
</g>
<!-- 2 -->
<g id="node3" class="node"><title>2</title>
<ellipse fill="cadetblue" stroke="black" cx="211.756" cy="-115.74" rx="21.4286" ry="21.4286"/>
<text text-anchor="middle" x="211.756" y="-110.74" font-family="Times New Roman,serif" font-size="20.00">2</text>
</g>
<!-- 4 -->
<g id="node5" class="node"><title>4</title>
<ellipse fill="cadetblue" stroke="black" cx="145.47" cy="-175.202" rx="21.4286" ry="21.4286"/>
<text text-anchor="middle" x="145.47" y="-170.202" font-family="Times New Roman,serif" font-size="20.00">2</text>
</g>
<!-- 2&#45;&gt;4 -->
<g id="edge8" class="edge"><title>2&#45;&gt;4</title>
<path fill="none" stroke="black" stroke-width="2" d="M195.71,-130.134C187.649,-137.364 177.731,-146.262 168.842,-154.236"/>
<polygon fill="black" stroke="black" stroke-width="2" points="166.475,-151.657 161.368,-160.94 171.149,-156.868 166.475,-151.657"/>
</g>
<!-- 3 -->
<g id="node4" class="node"><title>3</title>
<ellipse fill="brown" stroke="black" cx="71.6447" cy="-21.2132" rx="21.4286" ry="21.4286"/>
<text text-anchor="middle" x="71.6447" y="-16.2132" font-family="Times New Roman,serif" font-size="20.00">3</text>
</g>
<!-- 3&#45;&gt;0 -->
<g id="edge1" class="edge"><title>3&#45;&gt;0</title>
<path fill="none" stroke="black" stroke-width="2" d="M54.289,-33.5686C51.9384,-35.2419 49.4865,-36.9874 47.0271,-38.7383"/>
<polygon fill="black" stroke="black" stroke-width="2" points="44.8888,-35.9642 38.772,-44.615 48.9484,-41.6668 44.8888,-35.9642"/>
</g>
<!-- 4&#45;&gt;1 -->
<g id="edge5" class="edge"><title>4&#45;&gt;1</title>
<path fill="none" stroke="black" stroke-width="2" d="M126.899,-186.138C117.57,-191.632 106.091,-198.393 95.8034,-204.451"/>
<polygon fill="black" stroke="black" stroke-width="2" points="93.9944,-201.455 87.1537,-209.545 97.5466,-207.487 93.9944,-201.455"/>
</g>
<!-- 5 -->
<g id="node6" class="node"><title>5</title>
<ellipse fill="cadetblue" stroke="black" cx="31.0374" cy="-139.773" rx="21.4286" ry="21.4286"/>
<text text-anchor="middle" x="31.0374" y="-134.773" font-family="Times New Roman,serif" font-size="20.00">2</text>
</g>
<!-- 4&#45;&gt;5 -->
<g id="edge14" class="edge"><title>4&#45;&gt;5</title>
<path fill="none" stroke="black" stroke-width="2" d="M125.011,-168.868C107.193,-163.351 81.1265,-155.281 60.964,-149.038"/>
<polygon fill="black" stroke="black" stroke-width="2" points="61.9063,-145.666 51.3185,-146.052 59.836,-152.353 61.9063,-145.666"/>
</g>
<!-- 5&#45;&gt;0 -->
<g id="edge2" class="edge"><title>5&#45;&gt;0</title>
<path fill="none" stroke="black" stroke-width="2" d="M28.5074,-118.486C27.4188,-109.327 26.1242,-98.4346 24.93,-88.3866"/>
<polygon fill="black" stroke="black" stroke-width="2" points="28.3905,-87.8463 23.7346,-78.3293 21.4394,-88.6725 28.3905,-87.8463"/>
</g>
<!-- 5&#45;&gt;1 -->
<g id="edge6" class="edge"><title>5&#45;&gt;1</title>
<path fill="none" stroke="black" stroke-width="2" d="M40.1676,-159.286C44.754,-169.088 50.3977,-181.15 55.4554,-191.959"/>
<polygon fill="black" stroke="black" stroke-width="2" points="52.2998,-193.474 59.708,-201.048 58.64,-190.507 52.2998,-193.474"/>
</g>
<!-- 5&#45;&gt;3 -->
<g id="edge11" class="edge"><title>5&#45;&gt;3</title>
<path fill="none" stroke="black" stroke-width="2" d="M37.9259,-119.661C44.3722,-100.84 54.084,-72.4845 61.4317,-51.0317"/>
<polygon fill="black" stroke="black" stroke-width="2" points="64.7932,-52.0185 64.7224,-41.4239 58.1709,-49.7503 64.7932,-52.0185"/>
</g>
<!-- 6&#45;&gt;2 -->
<g id="edge9" class="edge"><title>6&#45;&gt;2</title>
<path fill="none" stroke="black" stroke-width="2" d="M162.387,-70.291C170.228,-77.5092 179.857,-86.3744 188.524,-94.3526"/>
<polygon fill="black" stroke="black" stroke-width="2" points="186.405,-97.1596 196.133,-101.358 191.146,-92.0096 186.405,-97.1596"/>
</g>
<!-- 6&#45;&gt;3 -->
<g id="edge12" class="edge"><title>6&#45;&gt;3</title>
<path fill="none" stroke="black" stroke-width="2" d="M127.311,-46.8747C119.154,-43.1145 109.482,-38.6559 100.508,-34.5187"/>
<polygon fill="black" stroke="black" stroke-width="2" points="101.694,-31.2117 91.1475,-30.2038 98.7638,-37.5688 101.694,-31.2117"/>
</g>
<!-- 6&#45;&gt;4 -->
<g id="edge15" class="edge"><title>6&#45;&gt;4</title>
<path fill="none" stroke="black" stroke-width="2" d="M146.413,-77.1264C146.236,-95.6077 145.976,-122.591 145.774,-143.579"/>
<polygon fill="black" stroke="black" stroke-width="2" points="142.274,-143.6 145.677,-153.633 149.273,-143.667 142.274,-143.6"/>
</g>
<!-- 7&#45;&gt;2 -->
<g id="edge10" class="edge"><title>7&#45;&gt;2</title>
<path fill="none" stroke="black" stroke-width="2" d="M121.268,-113.835C137.865,-114.184 161.174,-114.675 179.979,-115.071"/>
<polygon fill="black" stroke="black" stroke-width="2" points="180.096,-118.574 190.167,-115.285 180.243,-111.575 180.096,-118.574"/>
</g>
<!-- 7&#45;&gt;3 -->
<g id="edge13" class="edge"><title>7&#45;&gt;3</title>
<path fill="none" stroke="black" stroke-width="2" d="M93.6918,-92.9307C89.9499,-80.7586 85.1328,-65.089 80.9562,-51.5031"/>
<polygon fill="black" stroke="black" stroke-width="2" points="84.1997,-50.1424 77.9157,-41.6124 77.5087,-52.1994 84.1997,-50.1424"/>
</g>
<!-- 7&#45;&gt;5 -->
<g id="edge16" class="edge"><title>7&#45;&gt;5</title>
<path fill="none" stroke="black" stroke-width="2" d="M80.0392,-121.019C73.9472,-123.35 67.114,-125.966 60.5286,-128.486"/>
<polygon fill="black" stroke="black" stroke-width="2" points="59.261,-125.223 51.1726,-132.067 61.7631,-131.761 59.261,-125.223"/>
</g>
<!-- 7&#45;&gt;6 -->
<g id="edge17" class="edge"><title>7&#45;&gt;6</title>
<path fill="none" stroke="black" stroke-width="2" d="M113.47,-96.7234C117.591,-91.6326 122.214,-85.9225 126.669,-80.4194"/>
<polygon fill="black" stroke="black" stroke-width="2" points="129.426,-82.5758 132.998,-72.6012 123.985,-78.1714 129.426,-82.5758"/>
</g>
</g>
</svg>

