<?xml version="1.0" encoding="UTF-8" standalone="no"?>
<!DOCTYPE svg PUBLIC "-//W3C//DTD SVG 1.1//EN"
 "http://www.w3.org/Graphics/SVG/1.1/DTD/svg11.dtd">
<!-- Generated by graphviz version 2.36.0 (20140111.2315)
 -->
<!-- Title: G Pages: 1 -->
<svg width="100%" height="100%"
 viewBox="0.00 0.00 345.03 296.01" xmlns="http://www.w3.org/2000/svg" xmlns:xlink="http://www.w3.org/1999/xlink">
<g id="graph0" class="graph" transform="scale(1 1) rotate(0) translate(4 292.011)">
<title>G</title>
<!-- 0 -->
<g id="node1" class="node"><title>0</title>
<ellipse fill="cadetblue" stroke="black" cx="21.2132" cy="-160.713" rx="21.4286" ry="21.4286"/>
<text text-anchor="middle" x="21.2132" y="-155.713" font-family="Times New Roman,serif" font-size="20.00">2</text>
</g>
<!-- 7 -->
<g id="node8" class="node"><title>7</title>
<ellipse fill="brown" stroke="black" cx="150.702" cy="-141.076" rx="21.4286" ry="21.4286"/>
<text text-anchor="middle" x="150.702" y="-136.076" font-family="Times New Roman,serif" font-size="20.00">3</text>
</g>
<!-- 0&#45;&gt;7 -->
<g id="edge3" class="edge"><title>0&#45;&gt;7</title>
<path fill="none" stroke="black" stroke-width="2" d="M42.306,-157.515C63.2813,-154.333 95.698,-149.417 119.621,-145.789"/>
<polygon fill="black" stroke="black" stroke-width="2" points="120.256,-149.233 129.618,-144.273 119.206,-142.312 120.256,-149.233"/>
</g>
<!-- 1 -->
<g id="node2" class="node"><title>1</title>
<ellipse fill="cadetblue" stroke="black" cx="221.917" cy="-71.6447" rx="21.4286" ry="21.4286"/>
<text text-anchor="middle" x="221.917" y="-66.6447" font-family="Times New Roman,serif" font-size="20.00">2</text>
</g>
<!-- 6 -->
<g id="node7" class="node"><title>6</title>
<ellipse fill="cadetblue" stroke="black" cx="244.811" cy="-196.907" rx="21.4286" ry="21.4286"/>
<text text-anchor="middle" x="244.811" y="-191.907" font-family="Times New Roman,serif" font-size="20.00">2</text>
</g>
<!-- 1&#45;&gt;6 -->
<g id="edge6" class="edge"><title>1&#45;&gt;6</title>
<path fill="none" stroke="black" stroke-width="2" d="M225.749,-92.6107C229.414,-112.662 234.984,-143.142 239.159,-165.981"/>
<polygon fill="black" stroke="black" stroke-width="2" points="235.726,-166.664 240.967,-175.872 242.612,-165.406 235.726,-166.664"/>
</g>
<!-- 1&#45;&gt;7 -->
<g id="edge7" class="edge"><title>1&#45;&gt;7</title>
<path fill="none" stroke="black" stroke-width="2" d="M206.464,-86.7101C196.852,-96.0815 184.318,-108.301 173.569,-118.781"/>
<polygon fill="black" stroke="black" stroke-width="2" points="170.841,-116.553 166.124,-126.04 175.728,-121.565 170.841,-116.553"/>
</g>
<!-- 2 -->
<g id="node3" class="node"><title>2</title>
<ellipse fill="cadetblue" stroke="black" cx="220.945" cy="-21.2132" rx="21.4286" ry="21.4286"/>
<text text-anchor="middle" x="220.945" y="-16.2132" font-family="Times New Roman,serif" font-size="20.00">2</text>
</g>
<!-- 5 -->
<g id="node6" class="node"><title>5</title>
<ellipse fill="cadetblue" stroke="black" cx="84.7077" cy="-30.7376" rx="21.4286" ry="21.4286"/>
<text text-anchor="middle" x="84.7077" y="-25.7376" font-family="Times New Roman,serif" font-size="20.00">2</text>
</g>
<!-- 2&#45;&gt;5 -->
<g id="edge9" class="edge"><title>2&#45;&gt;5</title>
<path fill="none" stroke="black" stroke-width="2" d="M199.658,-22.7014C177.394,-24.2579 142.193,-26.7188 116.606,-28.5075"/>
<polygon fill="black" stroke="black" stroke-width="2" points="116.026,-25.0394 106.295,-29.2284 116.515,-32.0224 116.026,-25.0394"/>
</g>
<!-- 2&#45;&gt;7 -->
<g id="edge11" class="edge"><title>2&#45;&gt;7</title>
<path fill="none" stroke="black" stroke-width="2" d="M210.124,-39.679C198.556,-59.4181 180.09,-90.9282 166.813,-113.585"/>
<polygon fill="black" stroke="black" stroke-width="2" points="163.688,-111.994 161.652,-122.391 169.727,-115.533 163.688,-111.994"/>
</g>
<!-- 3 -->
<g id="node4" class="node"><title>3</title>
<ellipse fill="cadetblue" stroke="black" cx="116.169" cy="-266.798" rx="21.4286" ry="21.4286"/>
<text text-anchor="middle" x="116.169" y="-261.798" font-family="Times New Roman,serif" font-size="20.00">2</text>
</g>
<!-- 3&#45;&gt;0 -->
<g id="edge1" class="edge"><title>3&#45;&gt;0</title>
<path fill="none" stroke="black" stroke-width="2" d="M101.747,-250.686C85.8997,-232.981 60.2976,-204.378 42.2203,-184.182"/>
<polygon fill="black" stroke="black" stroke-width="2" points="44.7369,-181.746 35.4595,-176.629 39.5211,-186.415 44.7369,-181.746"/>
</g>
<!-- 4 -->
<g id="node5" class="node"><title>4</title>
<ellipse fill="cadetblue" stroke="black" cx="315.817" cy="-113.914" rx="21.4286" ry="21.4286"/>
<text text-anchor="middle" x="315.817" y="-108.914" font-family="Times New Roman,serif" font-size="20.00">2</text>
</g>
<!-- 4&#45;&gt;1 -->
<g id="edge4" class="edge"><title>4&#45;&gt;1</title>
<path fill="none" stroke="black" stroke-width="2" d="M296.36,-105.155C283.141,-99.2045 265.431,-91.2324 250.601,-84.5569"/>
<polygon fill="black" stroke="black" stroke-width="2" points="251.903,-81.3049 241.348,-80.3916 249.03,-87.688 251.903,-81.3049"/>
</g>
<!-- 4&#45;&gt;2 -->
<g id="edge8" class="edge"><title>4&#45;&gt;2</title>
<path fill="none" stroke="black" stroke-width="2" d="M300.574,-99.0196C285.221,-84.0183 261.35,-60.6931 243.745,-43.4911"/>
<polygon fill="black" stroke="black" stroke-width="2" points="245.749,-40.5556 236.15,-36.0702 240.857,-45.5623 245.749,-40.5556"/>
</g>
<!-- 5&#45;&gt;0 -->
<g id="edge2" class="edge"><title>5&#45;&gt;0</title>
<path fill="none" stroke="black" stroke-width="2" d="M75.3388,-49.916C64.6941,-71.7062 47.2199,-107.477 35.0149,-132.461"/>
<polygon fill="black" stroke="black" stroke-width="2" points="31.8651,-130.935 30.6205,-141.456 38.1547,-134.007 31.8651,-130.935"/>
</g>
<!-- 5&#45;&gt;1 -->
<g id="edge5" class="edge"><title>5&#45;&gt;1</title>
<path fill="none" stroke="black" stroke-width="2" d="M105.249,-36.8618C128.085,-43.6699 165.197,-54.7345 191.425,-62.5538"/>
<polygon fill="black" stroke="black" stroke-width="2" points="190.652,-65.9755 201.235,-65.4786 192.652,-59.2673 190.652,-65.9755"/>
</g>
<!-- 6&#45;&gt;2 -->
<g id="edge10" class="edge"><title>6&#45;&gt;2</title>
<path fill="none" stroke="black" stroke-width="2" d="M241.932,-175.714C237.775,-145.111 230.062,-88.3261 225.233,-52.7787"/>
<polygon fill="black" stroke="black" stroke-width="2" points="228.649,-51.919 223.834,-42.4811 221.712,-52.8612 228.649,-51.919"/>
</g>
<!-- 6&#45;&gt;3 -->
<g id="edge12" class="edge"><title>6&#45;&gt;3</title>
<path fill="none" stroke="black" stroke-width="2" d="M226.105,-207.069C204.479,-218.819 168.677,-238.27 143.831,-251.769"/>
<polygon fill="black" stroke="black" stroke-width="2" points="142.013,-248.773 134.897,-256.623 145.355,-254.924 142.013,-248.773"/>
</g>
<!-- 6&#45;&gt;4 -->
<g id="edge14" class="edge"><title>6&#45;&gt;4</title>
<path fill="none" stroke="black" stroke-width="2" d="M258.839,-180.51C269.245,-168.347 283.594,-151.576 295.288,-137.907"/>
<polygon fill="black" stroke="black" stroke-width="2" points="297.976,-140.15 301.817,-130.276 292.657,-135.599 297.976,-140.15"/>
</g>
<!-- 7&#45;&gt;3 -->
<g id="edge13" class="edge"><title>7&#45;&gt;3</title>
<path fill="none" stroke="black" stroke-width="2" d="M145.077,-161.555C139.483,-181.92 130.838,-213.394 124.458,-236.621"/>
<polygon fill="black" stroke="black" stroke-width="2" points="121.065,-235.757 121.792,-246.327 127.815,-237.612 121.065,-235.757"/>
</g>
<!-- 7&#45;&gt;4 -->
<g id="edge15" class="edge"><title>7&#45;&gt;4</title>
<path fill="none" stroke="black" stroke-width="2" d="M171.95,-137.58C200.558,-132.874 251.667,-124.466 284.635,-119.043"/>
<polygon fill="black" stroke="black" stroke-width="2" points="285.351,-122.472 294.65,-117.395 284.215,-115.565 285.351,-122.472"/>
</g>
<!-- 7&#45;&gt;5 -->
<g id="edge16" class="edge"><title>7&#45;&gt;5</title>
<path fill="none" stroke="black" stroke-width="2" d="M139.804,-122.856C129.201,-105.127 112.962,-77.9769 100.857,-57.7384"/>
<polygon fill="black" stroke="black" stroke-width="2" points="103.758,-55.7703 95.6215,-48.9847 97.7508,-59.3634 103.758,-55.7703"/>
</g>
<!-- 7&#45;&gt;6 -->
<g id="edge17" class="edge"><title>7&#45;&gt;6</title>
<path fill="none" stroke="black" stroke-width="2" d="M169.295,-152.106C183.087,-160.288 202.104,-171.57 217.603,-180.766"/>
<polygon fill="black" stroke="black" stroke-width="2" points="215.871,-183.807 226.257,-185.899 219.442,-177.787 215.871,-183.807"/>
</g>
</g>
</svg>

