<?xml version="1.0" encoding="UTF-8" standalone="no"?>
<!DOCTYPE svg PUBLIC "-//W3C//DTD SVG 1.1//EN"
 "http://www.w3.org/Graphics/SVG/1.1/DTD/svg11.dtd">
<!-- Generated by graphviz version 2.36.0 (20140111.2315)
 -->
<!-- Title: G Pages: 1 -->
<svg width="100%" height="100%"
 viewBox="0.00 0.00 219.97 218.12" xmlns="http://www.w3.org/2000/svg" xmlns:xlink="http://www.w3.org/1999/xlink">
<g id="graph0" class="graph" transform="scale(1 1) rotate(0) translate(4 214.123)">
<title>G</title>
<!-- 0 -->
<g id="node1" class="node"><title>0</title>
<ellipse fill="cadetblue" stroke="black" cx="21.2132" cy="-115.076" rx="21.4286" ry="21.4286"/>
<text text-anchor="middle" x="21.2132" y="-110.076" font-family="Times New Roman,serif" font-size="20.00">2</text>
</g>
<!-- 6 -->
<g id="node7" class="node"><title>6</title>
<ellipse fill="cadetblue" stroke="black" cx="107.031" cy="-181.655" rx="21.4286" ry="21.4286"/>
<text text-anchor="middle" x="107.031" y="-176.655" font-family="Times New Roman,serif" font-size="20.00">2</text>
</g>
<!-- 0&#45;&gt;6 -->
<g id="edge3" class="edge"><title>0&#45;&gt;6</title>
<path fill="none" stroke="black" stroke-width="2" d="M38.1681,-128.23C50.6274,-137.896 67.763,-151.19 81.8237,-162.098"/>
<polygon fill="black" stroke="black" stroke-width="2" points="80.0653,-165.164 90.1118,-168.528 84.3561,-159.633 80.0653,-165.164"/>
</g>
<!-- 7 -->
<g id="node8" class="node"><title>7</title>
<ellipse fill="brown" stroke="black" cx="101.702" cy="-109.771" rx="21.4286" ry="21.4286"/>
<text text-anchor="middle" x="101.702" y="-104.771" font-family="Times New Roman,serif" font-size="20.00">3</text>
</g>
<!-- 0&#45;&gt;7 -->
<g id="edge4" class="edge"><title>0&#45;&gt;7</title>
<path fill="none" stroke="black" stroke-width="2" d="M42.7828,-113.654C51.241,-113.097 61.1134,-112.446 70.332,-111.838"/>
<polygon fill="black" stroke="black" stroke-width="2" points="70.604,-115.328 80.3521,-111.178 70.1435,-108.343 70.604,-115.328"/>
</g>
<!-- 1 -->
<g id="node2" class="node"><title>1</title>
<ellipse fill="cadetblue" stroke="black" cx="165.941" cy="-149.49" rx="21.4286" ry="21.4286"/>
<text text-anchor="middle" x="165.941" y="-144.49" font-family="Times New Roman,serif" font-size="20.00">2</text>
</g>
<!-- 1&#45;&gt;6 -->
<g id="edge7" class="edge"><title>1&#45;&gt;6</title>
<path fill="none" stroke="black" stroke-width="2" d="M147.302,-159.667C143.326,-161.838 139.046,-164.175 134.811,-166.487"/>
<polygon fill="black" stroke="black" stroke-width="2" points="132.852,-163.569 125.752,-171.433 136.206,-169.713 132.852,-163.569"/>
</g>
<!-- 1&#45;&gt;7 -->
<g id="edge8" class="edge"><title>1&#45;&gt;7</title>
<path fill="none" stroke="black" stroke-width="2" d="M147.705,-138.214C141.686,-134.493 134.863,-130.274 128.348,-126.246"/>
<polygon fill="black" stroke="black" stroke-width="2" points="130.108,-123.219 119.762,-120.937 126.427,-129.173 130.108,-123.219"/>
</g>
<!-- 2 -->
<g id="node3" class="node"><title>2</title>
<ellipse fill="cadetblue" stroke="black" cx="151.439" cy="-21.2132" rx="21.4286" ry="21.4286"/>
<text text-anchor="middle" x="151.439" y="-16.2132" font-family="Times New Roman,serif" font-size="20.00">2</text>
</g>
<!-- 5 -->
<g id="node6" class="node"><title>5</title>
<ellipse fill="cadetblue" stroke="black" cx="79.6129" cy="-47.7658" rx="21.4286" ry="21.4286"/>
<text text-anchor="middle" x="79.6129" y="-42.7658" font-family="Times New Roman,serif" font-size="20.00">2</text>
</g>
<!-- 2&#45;&gt;5 -->
<g id="edge10" class="edge"><title>2&#45;&gt;5</title>
<path fill="none" stroke="black" stroke-width="2" d="M131.431,-28.6096C124.505,-31.1703 116.588,-34.0968 109.064,-36.8785"/>
<polygon fill="black" stroke="black" stroke-width="2" points="107.679,-33.6588 99.5131,-40.4091 110.106,-40.2245 107.679,-33.6588"/>
</g>
<!-- 3 -->
<g id="node4" class="node"><title>3</title>
<ellipse fill="cadetblue" stroke="black" cx="30.9355" cy="-188.909" rx="21.4286" ry="21.4286"/>
<text text-anchor="middle" x="30.9355" y="-183.909" font-family="Times New Roman,serif" font-size="20.00">2</text>
</g>
<!-- 3&#45;&gt;0 -->
<g id="edge1" class="edge"><title>3&#45;&gt;0</title>
<path fill="none" stroke="black" stroke-width="2" d="M28.1234,-167.554C27.2492,-160.915 26.2669,-153.455 25.3232,-146.288"/>
<polygon fill="black" stroke="black" stroke-width="2" points="28.7611,-145.586 23.9854,-136.129 21.821,-146.5 28.7611,-145.586"/>
</g>
<!-- 4 -->
<g id="node5" class="node"><title>4</title>
<ellipse fill="cadetblue" stroke="black" cx="190.754" cy="-99.0585" rx="21.4286" ry="21.4286"/>
<text text-anchor="middle" x="190.754" y="-94.0585" font-family="Times New Roman,serif" font-size="20.00">2</text>
</g>
<!-- 4&#45;&gt;1 -->
<g id="edge5" class="edge"><title>4&#45;&gt;1</title>
<path fill="none" stroke="black" stroke-width="2" d="M181.374,-118.124C180.88,-119.129 180.379,-120.147 179.874,-121.172"/>
<polygon fill="black" stroke="black" stroke-width="2" points="176.61,-119.879 175.335,-130.397 182.891,-122.969 176.61,-119.879"/>
</g>
<!-- 4&#45;&gt;2 -->
<g id="edge9" class="edge"><title>4&#45;&gt;2</title>
<path fill="none" stroke="black" stroke-width="2" d="M181.036,-79.8158C176.37,-70.5775 170.691,-59.3319 165.559,-49.1716"/>
<polygon fill="black" stroke="black" stroke-width="2" points="168.678,-47.5828 161.046,-40.2345 162.43,-50.7386 168.678,-47.5828"/>
</g>
<!-- 5&#45;&gt;0 -->
<g id="edge2" class="edge"><title>5&#45;&gt;0</title>
<path fill="none" stroke="black" stroke-width="2" d="M65.4759,-64.0598C58.3743,-72.245 49.6358,-82.3168 41.8045,-91.343"/>
<polygon fill="black" stroke="black" stroke-width="2" points="39.1297,-89.0852 35.2199,-98.9322 44.4171,-93.6726 39.1297,-89.0852"/>
</g>
<!-- 5&#45;&gt;1 -->
<g id="edge6" class="edge"><title>5&#45;&gt;1</title>
<path fill="none" stroke="black" stroke-width="2" d="M94.647,-63.1288C102.477,-71.2968 112.103,-81.6032 120.303,-91.1715 129.413,-101.801 139.03,-113.939 147.075,-124.38"/>
<polygon fill="black" stroke="black" stroke-width="2" points="144.296,-126.508 153.15,-132.327 149.858,-122.257 144.296,-126.508"/>
</g>
<!-- 6&#45;&gt;3 -->
<g id="edge12" class="edge"><title>6&#45;&gt;3</title>
<path fill="none" stroke="black" stroke-width="2" d="M85.8345,-183.676C78.557,-184.369 70.2488,-185.161 62.3364,-185.916"/>
<polygon fill="black" stroke="black" stroke-width="2" points="61.9054,-182.441 52.2827,-186.874 62.5698,-189.409 61.9054,-182.441"/>
</g>
<!-- 6&#45;&gt;4 -->
<g id="edge14" class="edge"><title>6&#45;&gt;4</title>
<path fill="none" stroke="black" stroke-width="2" d="M119.423,-163.739C126.918,-153.531 137.012,-140.823 147.409,-130.822 152.559,-125.869 158.508,-121.036 164.316,-116.695"/>
<polygon fill="black" stroke="black" stroke-width="2" points="166.538,-119.408 172.616,-110.73 162.453,-113.724 166.538,-119.408"/>
</g>
<!-- 6&#45;&gt;7 -->
<g id="edge17" class="edge"><title>6&#45;&gt;7</title>
<path fill="none" stroke="black" stroke-width="2" d="M105.461,-160.476C105.01,-154.388 104.508,-147.616 104.021,-141.055"/>
<polygon fill="black" stroke="black" stroke-width="2" points="107.509,-140.76 103.279,-131.046 100.528,-141.278 107.509,-140.76"/>
</g>
<!-- 7&#45;&gt;2 -->
<g id="edge11" class="edge"><title>7&#45;&gt;2</title>
<path fill="none" stroke="black" stroke-width="2" d="M112.25,-90.9899C119.108,-78.7792 128.17,-62.6442 135.852,-48.9657"/>
<polygon fill="black" stroke="black" stroke-width="2" points="139.061,-50.3998 140.906,-39.9669 132.958,-46.9719 139.061,-50.3998"/>
</g>
<!-- 7&#45;&gt;3 -->
<g id="edge13" class="edge"><title>7&#45;&gt;3</title>
<path fill="none" stroke="black" stroke-width="2" d="M87.3814,-125.786C77.214,-137.156 63.3984,-152.606 51.9803,-165.375"/>
<polygon fill="black" stroke="black" stroke-width="2" points="49.2916,-163.131 45.2349,-172.918 54.5097,-167.797 49.2916,-163.131"/>
</g>
<!-- 7&#45;&gt;4 -->
<g id="edge15" class="edge"><title>7&#45;&gt;4</title>
<path fill="none" stroke="black" stroke-width="2" d="M122.806,-107.232C133.706,-105.921 147.224,-104.295 159.325,-102.839"/>
<polygon fill="black" stroke="black" stroke-width="2" points="159.983,-106.285 169.493,-101.616 159.147,-99.3354 159.983,-106.285"/>
</g>
<!-- 7&#45;&gt;5 -->
<g id="edge16" class="edge"><title>7&#45;&gt;5</title>
<path fill="none" stroke="black" stroke-width="2" d="M94.4693,-89.4679C93.1206,-85.6822 91.6855,-81.6539 90.2593,-77.6504"/>
<polygon fill="black" stroke="black" stroke-width="2" points="93.4395,-76.1479 86.7865,-67.9024 86.8455,-78.497 93.4395,-76.1479"/>
</g>
</g>
</svg>

