<?xml version="1.0" encoding="UTF-8" standalone="no"?>
<!DOCTYPE svg PUBLIC "-//W3C//DTD SVG 1.1//EN"
 "http://www.w3.org/Graphics/SVG/1.1/DTD/svg11.dtd">
<!-- Generated by graphviz version 2.36.0 (20140111.2315)
 -->
<!-- Title: G Pages: 1 -->
<svg width="100%" height="100%"
 viewBox="0.00 0.00 339.27 355.25" xmlns="http://www.w3.org/2000/svg" xmlns:xlink="http://www.w3.org/1999/xlink">
<g id="graph0" class="graph" transform="scale(1 1) rotate(0) translate(4 351.245)">
<title>G</title>
<!-- 0 -->
<g id="node1" class="node"><title>0</title>
<ellipse fill="cadetblue" stroke="black" cx="134.921" cy="-55.8396" rx="21.4286" ry="21.4286"/>
<text text-anchor="middle" x="134.921" y="-50.8396" font-family="Times New Roman,serif" font-size="20.00">2</text>
</g>
<!-- 6 -->
<g id="node7" class="node"><title>6</title>
<ellipse fill="cadetblue" stroke="black" cx="288.248" cy="-177.789" rx="21.4286" ry="21.4286"/>
<text text-anchor="middle" x="288.248" y="-172.789" font-family="Times New Roman,serif" font-size="20.00">2</text>
</g>
<!-- 0&#45;&gt;6 -->
<g id="edge3" class="edge"><title>0&#45;&gt;6</title>
<path fill="none" stroke="black" stroke-width="2" d="M151.621,-69.1225C178.696,-90.6562 232.297,-133.288 263.713,-158.274"/>
<polygon fill="black" stroke="black" stroke-width="2" points="261.563,-161.037 271.568,-164.522 265.921,-155.558 261.563,-161.037"/>
</g>
<!-- 7 -->
<g id="node8" class="node"><title>7</title>
<ellipse fill="cadetblue" stroke="black" cx="217.445" cy="-167.365" rx="21.4286" ry="21.4286"/>
<text text-anchor="middle" x="217.445" y="-162.365" font-family="Times New Roman,serif" font-size="20.00">2</text>
</g>
<!-- 0&#45;&gt;7 -->
<g id="edge4" class="edge"><title>0&#45;&gt;7</title>
<path fill="none" stroke="black" stroke-width="2" d="M147.815,-73.2656C161.441,-91.6803 183.067,-120.906 198.603,-141.902"/>
<polygon fill="black" stroke="black" stroke-width="2" points="195.879,-144.105 204.641,-150.062 201.506,-139.941 195.879,-144.105"/>
</g>
<!-- 1 -->
<g id="node2" class="node"><title>1</title>
<ellipse fill="cadetblue" stroke="black" cx="179.495" cy="-326.032" rx="21.4286" ry="21.4286"/>
<text text-anchor="middle" x="179.495" y="-321.032" font-family="Times New Roman,serif" font-size="20.00">2</text>
</g>
<!-- 5 -->
<g id="node6" class="node"><title>5</title>
<ellipse fill="cadetblue" stroke="black" cx="21.2132" cy="-201.37" rx="21.4286" ry="21.4286"/>
<text text-anchor="middle" x="21.2132" y="-196.37" font-family="Times New Roman,serif" font-size="20.00">2</text>
</g>
<!-- 1&#45;&gt;5 -->
<g id="edge6" class="edge"><title>1&#45;&gt;5</title>
<path fill="none" stroke="black" stroke-width="2" d="M159.935,-317.4C147.706,-311.603 131.901,-303.363 119.085,-294.173 90.1902,-273.455 61.1399,-244.665 42.2843,-224.667"/>
<polygon fill="black" stroke="black" stroke-width="2" points="44.7147,-222.142 35.3385,-217.208 39.5917,-226.912 44.7147,-222.142"/>
</g>
<!-- 1&#45;&gt;7 -->
<g id="edge8" class="edge"><title>1&#45;&gt;7</title>
<path fill="none" stroke="black" stroke-width="2" d="M184.456,-305.289C190.991,-277.969 202.535,-229.704 210.087,-198.128"/>
<polygon fill="black" stroke="black" stroke-width="2" points="213.56,-198.653 212.482,-188.113 206.752,-197.025 213.56,-198.653"/>
</g>
<!-- 2 -->
<g id="node3" class="node"><title>2</title>
<ellipse fill="cadetblue" stroke="black" cx="137.713" cy="-275.601" rx="21.4286" ry="21.4286"/>
<text text-anchor="middle" x="137.713" y="-270.601" font-family="Times New Roman,serif" font-size="20.00">2</text>
</g>
<!-- 2&#45;&gt;5 -->
<g id="edge10" class="edge"><title>2&#45;&gt;5</title>
<path fill="none" stroke="black" stroke-width="2" d="M119.765,-264.165C100.58,-251.941 69.9537,-232.427 47.9328,-218.395"/>
<polygon fill="black" stroke="black" stroke-width="2" points="49.6876,-215.364 39.3733,-212.942 45.926,-221.267 49.6876,-215.364"/>
</g>
<!-- 2&#45;&gt;6 -->
<g id="edge11" class="edge"><title>2&#45;&gt;6</title>
<path fill="none" stroke="black" stroke-width="2" d="M155.572,-263.996C181.941,-246.863 231.454,-214.691 261.971,-194.863"/>
<polygon fill="black" stroke="black" stroke-width="2" points="263.934,-197.762 270.412,-189.378 260.12,-191.892 263.934,-197.762"/>
</g>
<!-- 3 -->
<g id="node4" class="node"><title>3</title>
<ellipse fill="cadetblue" stroke="black" cx="285.535" cy="-21.2132" rx="21.4286" ry="21.4286"/>
<text text-anchor="middle" x="285.535" y="-16.2132" font-family="Times New Roman,serif" font-size="20.00">2</text>
</g>
<!-- 3&#45;&gt;0 -->
<g id="edge1" class="edge"><title>3&#45;&gt;0</title>
<path fill="none" stroke="black" stroke-width="2" d="M264.593,-26.0279C238.853,-31.9456 194.967,-42.0348 165.467,-48.8171"/>
<polygon fill="black" stroke="black" stroke-width="2" points="164.647,-45.4142 155.685,-51.0659 166.215,-52.2363 164.647,-45.4142"/>
</g>
<!-- 4 -->
<g id="node5" class="node"><title>4</title>
<ellipse fill="cadetblue" stroke="black" cx="310.056" cy="-314.525" rx="21.4286" ry="21.4286"/>
<text text-anchor="middle" x="310.056" y="-309.525" font-family="Times New Roman,serif" font-size="20.00">2</text>
</g>
<!-- 4&#45;&gt;1 -->
<g id="edge5" class="edge"><title>4&#45;&gt;1</title>
<path fill="none" stroke="black" stroke-width="2" d="M288.789,-316.4C267.64,-318.264 234.955,-321.144 210.834,-323.27"/>
<polygon fill="black" stroke="black" stroke-width="2" points="210.408,-319.794 200.754,-324.159 211.022,-326.767 210.408,-319.794"/>
</g>
<!-- 4&#45;&gt;2 -->
<g id="edge9" class="edge"><title>4&#45;&gt;2</title>
<path fill="none" stroke="black" stroke-width="2" d="M289.268,-309.83C259.248,-303.05 203.546,-290.469 168.676,-282.594"/>
<polygon fill="black" stroke="black" stroke-width="2" points="169.101,-279.102 158.575,-280.313 167.558,-285.93 169.101,-279.102"/>
</g>
<!-- 5&#45;&gt;0 -->
<g id="edge2" class="edge"><title>5&#45;&gt;0</title>
<path fill="none" stroke="black" stroke-width="2" d="M34.4794,-184.391C54.4212,-158.869 92.2431,-110.461 115.356,-80.8802"/>
<polygon fill="black" stroke="black" stroke-width="2" points="118.34,-82.7454 121.739,-72.7106 112.824,-78.4356 118.34,-82.7454"/>
</g>
<!-- 6&#45;&gt;1 -->
<g id="edge7" class="edge"><title>6&#45;&gt;1</title>
<path fill="none" stroke="black" stroke-width="2" d="M275.56,-195.084C256.487,-221.083 220.313,-270.392 198.208,-300.525"/>
<polygon fill="black" stroke="black" stroke-width="2" points="195.196,-298.714 192.103,-308.847 200.84,-302.854 195.196,-298.714"/>
</g>
<!-- 6&#45;&gt;3 -->
<g id="edge13" class="edge"><title>6&#45;&gt;3</title>
<path fill="none" stroke="black" stroke-width="2" d="M287.877,-156.346C287.413,-129.599 286.617,-83.6465 286.084,-52.8518"/>
<polygon fill="black" stroke="black" stroke-width="2" points="289.58,-52.5856 285.907,-42.6478 282.581,-52.7069 289.58,-52.5856"/>
</g>
<!-- 6&#45;&gt;4 -->
<g id="edge15" class="edge"><title>6&#45;&gt;4</title>
<path fill="none" stroke="black" stroke-width="2" d="M291.608,-198.854C295.199,-221.372 300.932,-257.318 305.055,-283.164"/>
<polygon fill="black" stroke="black" stroke-width="2" points="301.626,-283.887 306.657,-293.211 308.538,-282.784 301.626,-283.887"/>
</g>
<!-- 7&#45;&gt;2 -->
<g id="edge12" class="edge"><title>7&#45;&gt;2</title>
<path fill="none" stroke="black" stroke-width="2" d="M204.635,-184.755C191.616,-202.429 171.308,-229.996 156.475,-250.131"/>
<polygon fill="black" stroke="black" stroke-width="2" points="153.604,-248.127 150.491,-258.254 159.24,-252.279 153.604,-248.127"/>
</g>
<!-- 7&#45;&gt;3 -->
<g id="edge14" class="edge"><title>7&#45;&gt;3</title>
<path fill="none" stroke="black" stroke-width="2" d="M226.487,-147.958C238.187,-122.843 258.669,-78.88 272.168,-49.9044"/>
<polygon fill="black" stroke="black" stroke-width="2" points="275.406,-51.244 276.456,-40.7014 269.06,-48.2878 275.406,-51.244"/>
</g>
<!-- 7&#45;&gt;4 -->
<g id="edge16" class="edge"><title>7&#45;&gt;4</title>
<path fill="none" stroke="black" stroke-width="2" d="M228.801,-185.41C244.909,-211.006 274.508,-258.038 293.188,-287.721"/>
<polygon fill="black" stroke="black" stroke-width="2" points="290.319,-289.734 298.607,-296.333 296.243,-286.005 290.319,-289.734"/>
</g>
</g>
</svg>

