<?xml version="1.0" encoding="UTF-8" standalone="no"?>
<!DOCTYPE svg PUBLIC "-//W3C//DTD SVG 1.1//EN"
 "http://www.w3.org/Graphics/SVG/1.1/DTD/svg11.dtd">
<!-- Generated by graphviz version 2.36.0 (20140111.2315)
 -->
<!-- Title: G Pages: 1 -->
<svg width="100%" height="100%"
 viewBox="0.00 0.00 220.40 185.36" xmlns="http://www.w3.org/2000/svg" xmlns:xlink="http://www.w3.org/1999/xlink">
<g id="graph0" class="graph" transform="scale(1 1) rotate(0) translate(4 181.365)">
<title>G</title>
<!-- 0 -->
<g id="node1" class="node"><title>0</title>
<ellipse fill="cadetblue" stroke="black" cx="21.8623" cy="-55.163" rx="21.4286" ry="21.4286"/>
<text text-anchor="middle" x="21.8623" y="-50.163" font-family="Times New Roman,serif" font-size="20.00">2</text>
</g>
<!-- 6 -->
<g id="node7" class="node"><title>6</title>
<ellipse fill="cadetblue" stroke="black" cx="96.2035" cy="-21.2132" rx="21.4286" ry="21.4286"/>
<text text-anchor="middle" x="96.2035" y="-16.2132" font-family="Times New Roman,serif" font-size="20.00">2</text>
</g>
<!-- 0&#45;&gt;6 -->
<g id="edge3" class="edge"><title>0&#45;&gt;6</title>
<path fill="none" stroke="black" stroke-width="2" d="M41.3946,-46.2431C49.4191,-42.5785 58.8713,-38.2619 67.6459,-34.2548"/>
<polygon fill="black" stroke="black" stroke-width="2" points="69.1592,-37.4114 76.8017,-30.0735 66.2514,-31.044 69.1592,-37.4114"/>
</g>
<!-- 7 -->
<g id="node8" class="node"><title>7</title>
<ellipse fill="cadetblue" stroke="black" cx="93.0644" cy="-79.3091" rx="21.4286" ry="21.4286"/>
<text text-anchor="middle" x="93.0644" y="-74.3091" font-family="Times New Roman,serif" font-size="20.00">2</text>
</g>
<!-- 0&#45;&gt;7 -->
<g id="edge4" class="edge"><title>0&#45;&gt;7</title>
<path fill="none" stroke="black" stroke-width="2" d="M42.0755,-62.0177C48.4842,-64.1911 55.7166,-66.6437 62.6773,-69.0042"/>
<polygon fill="black" stroke="black" stroke-width="2" points="61.959,-72.4564 72.5534,-72.3534 64.2072,-65.8272 61.959,-72.4564"/>
</g>
<!-- 1 -->
<g id="node2" class="node"><title>1</title>
<ellipse fill="cadetblue" stroke="black" cx="154.59" cy="-105.5" rx="21.4286" ry="21.4286"/>
<text text-anchor="middle" x="154.59" y="-100.5" font-family="Times New Roman,serif" font-size="20.00">2</text>
</g>
<!-- 5 -->
<g id="node6" class="node"><title>5</title>
<ellipse fill="cadetblue" stroke="black" cx="86.8345" cy="-156.152" rx="21.4286" ry="21.4286"/>
<text text-anchor="middle" x="86.8345" y="-151.152" font-family="Times New Roman,serif" font-size="20.00">2</text>
</g>
<!-- 1&#45;&gt;5 -->
<g id="edge6" class="edge"><title>1&#45;&gt;5</title>
<path fill="none" stroke="black" stroke-width="2" d="M137.493,-118.282C129.848,-123.997 120.678,-130.851 112.254,-137.149"/>
<polygon fill="black" stroke="black" stroke-width="2" points="110.076,-134.407 104.162,-143.198 114.267,-140.014 110.076,-134.407"/>
</g>
<!-- 1&#45;&gt;7 -->
<g id="edge8" class="edge"><title>1&#45;&gt;7</title>
<path fill="none" stroke="black" stroke-width="2" d="M134.784,-97.0691C130.723,-95.34 126.368,-93.4861 122.059,-91.652"/>
<polygon fill="black" stroke="black" stroke-width="2" points="123.405,-88.4211 112.833,-87.7245 120.663,-94.8618 123.405,-88.4211"/>
</g>
<!-- 2 -->
<g id="node3" class="node"><title>2</title>
<ellipse fill="cadetblue" stroke="black" cx="185.716" cy="-45.1773" rx="21.4286" ry="21.4286"/>
<text text-anchor="middle" x="185.716" y="-40.1773" font-family="Times New Roman,serif" font-size="20.00">2</text>
</g>
<!-- 4 -->
<g id="node5" class="node"><title>4</title>
<ellipse fill="cadetblue" stroke="black" cx="191.189" cy="-155.932" rx="21.4286" ry="21.4286"/>
<text text-anchor="middle" x="191.189" y="-150.932" font-family="Times New Roman,serif" font-size="20.00">2</text>
</g>
<!-- 2&#45;&gt;4 -->
<g id="edge9" class="edge"><title>2&#45;&gt;4</title>
<path fill="none" stroke="black" stroke-width="2" d="M186.772,-66.5319C187.585,-83.003 188.723,-106.03 189.641,-124.589"/>
<polygon fill="black" stroke="black" stroke-width="2" points="186.148,-124.828 190.137,-134.643 193.139,-124.482 186.148,-124.828"/>
</g>
<!-- 3 -->
<g id="node4" class="node"><title>3</title>
<ellipse fill="brown" stroke="black" cx="21.2132" cy="-114.112" rx="21.4286" ry="21.4286"/>
<text text-anchor="middle" x="21.2132" y="-109.112" font-family="Times New Roman,serif" font-size="20.00">3</text>
</g>
<!-- 3&#45;&gt;0 -->
<g id="edge1" class="edge"><title>3&#45;&gt;0</title>
<path fill="none" stroke="black" stroke-width="2" d="M21.4475,-92.8301C21.4693,-90.8514 21.4917,-88.8191 21.5142,-86.7731"/>
<polygon fill="black" stroke="black" stroke-width="2" points="25.0157,-86.6497 21.6261,-76.6118 18.0161,-86.5726 25.0157,-86.6497"/>
</g>
<!-- 4&#45;&gt;1 -->
<g id="edge5" class="edge"><title>4&#45;&gt;1</title>
<path fill="none" stroke="black" stroke-width="2" d="M178.594,-138.576C176.791,-136.092 174.906,-133.495 173.02,-130.895"/>
<polygon fill="black" stroke="black" stroke-width="2" points="175.791,-128.755 167.085,-122.717 170.126,-132.866 175.791,-128.755"/>
</g>
<!-- 5&#45;&gt;0 -->
<g id="edge2" class="edge"><title>5&#45;&gt;0</title>
<path fill="none" stroke="black" stroke-width="2" d="M75.2188,-138.097C65.148,-122.444 50.4369,-99.5775 39.011,-81.8179"/>
<polygon fill="black" stroke="black" stroke-width="2" points="41.7315,-79.5776 33.3775,-73.0615 35.8446,-83.365 41.7315,-79.5776"/>
</g>
<!-- 5&#45;&gt;3 -->
<g id="edge12" class="edge"><title>5&#45;&gt;3</title>
<path fill="none" stroke="black" stroke-width="2" d="M68.9032,-144.664C62.3928,-140.493 54.8908,-135.687 47.7927,-131.14"/>
<polygon fill="black" stroke="black" stroke-width="2" points="49.4312,-128.033 39.1228,-125.586 45.6551,-133.927 49.4312,-128.033"/>
</g>
<!-- 5&#45;&gt;4 -->
<g id="edge15" class="edge"><title>5&#45;&gt;4</title>
<path fill="none" stroke="black" stroke-width="2" d="M108.204,-156.107C122.976,-156.075 142.882,-156.034 159.494,-155.999"/>
<polygon fill="black" stroke="black" stroke-width="2" points="159.856,-159.498 169.848,-155.977 159.841,-152.498 159.856,-159.498"/>
</g>
<!-- 6&#45;&gt;1 -->
<g id="edge7" class="edge"><title>6&#45;&gt;1</title>
<path fill="none" stroke="black" stroke-width="2" d="M108.301,-38.6775C116.521,-50.544 127.533,-66.441 136.754,-79.7525"/>
<polygon fill="black" stroke="black" stroke-width="2" points="133.936,-81.831 142.508,-88.0583 139.691,-77.8449 133.936,-81.831"/>
</g>
<!-- 6&#45;&gt;2 -->
<g id="edge10" class="edge"><title>6&#45;&gt;2</title>
<path fill="none" stroke="black" stroke-width="2" d="M116.965,-26.7713C128.375,-29.8261 142.74,-33.6719 155.385,-37.0571"/>
<polygon fill="black" stroke="black" stroke-width="2" points="154.503,-40.4442 165.068,-39.6494 156.313,-33.6823 154.503,-40.4442"/>
</g>
<!-- 6&#45;&gt;3 -->
<g id="edge13" class="edge"><title>6&#45;&gt;3</title>
<path fill="none" stroke="black" stroke-width="2" d="M82.7967,-37.8217C71.2449,-52.1322 54.4031,-72.996 41.2507,-89.2894"/>
<polygon fill="black" stroke="black" stroke-width="2" points="38.3145,-87.3546 34.7567,-97.3342 43.7614,-91.7514 38.3145,-87.3546"/>
</g>
<!-- 7&#45;&gt;2 -->
<g id="edge11" class="edge"><title>7&#45;&gt;2</title>
<path fill="none" stroke="black" stroke-width="2" d="M113.168,-71.903C125.674,-67.2962 141.981,-61.289 155.966,-56.137"/>
<polygon fill="black" stroke="black" stroke-width="2" points="157.478,-59.3101 165.651,-52.569 155.058,-52.7416 157.478,-59.3101"/>
</g>
<!-- 7&#45;&gt;3 -->
<g id="edge14" class="edge"><title>7&#45;&gt;3</title>
<path fill="none" stroke="black" stroke-width="2" d="M73.8096,-88.6357C66.4,-92.2247 57.7747,-96.4026 49.6782,-100.324"/>
<polygon fill="black" stroke="black" stroke-width="2" points="47.9952,-97.2505 40.5212,-104.76 51.0467,-103.55 47.9952,-97.2505"/>
</g>
<!-- 7&#45;&gt;5 -->
<g id="edge16" class="edge"><title>7&#45;&gt;5</title>
<path fill="none" stroke="black" stroke-width="2" d="M91.329,-100.714C90.7282,-108.125 90.0416,-116.594 89.3889,-124.644"/>
<polygon fill="black" stroke="black" stroke-width="2" points="85.8802,-124.611 88.5606,-134.861 92.8573,-125.177 85.8802,-124.611"/>
</g>
<!-- 7&#45;&gt;6 -->
<g id="edge17" class="edge"><title>7&#45;&gt;6</title>
<path fill="none" stroke="black" stroke-width="2" d="M94.2154,-58.0062C94.3093,-56.2696 94.4053,-54.4932 94.5019,-52.7043"/>
<polygon fill="black" stroke="black" stroke-width="2" points="98.0078,-52.6878 95.0526,-42.5135 91.018,-52.3101 98.0078,-52.6878"/>
</g>
</g>
</svg>

