<?xml version="1.0" encoding="UTF-8" standalone="no"?>
<!DOCTYPE svg PUBLIC "-//W3C//DTD SVG 1.1//EN"
 "http://www.w3.org/Graphics/SVG/1.1/DTD/svg11.dtd">
<!-- Generated by graphviz version 2.36.0 (20140111.2315)
 -->
<!-- Title: G Pages: 1 -->
<svg width="100%" height="100%"
 viewBox="0.00 0.00 265.41 192.60" xmlns="http://www.w3.org/2000/svg" xmlns:xlink="http://www.w3.org/1999/xlink">
<g id="graph0" class="graph" transform="scale(1 1) rotate(0) translate(4 188.603)">
<title>G</title>
<!-- 0 -->
<g id="node1" class="node"><title>0</title>
<ellipse fill="cadetblue" stroke="black" cx="21.2132" cy="-97.8796" rx="21.4286" ry="21.4286"/>
<text text-anchor="middle" x="21.2132" y="-92.8796" font-family="Times New Roman,serif" font-size="20.00">2</text>
</g>
<!-- 6 -->
<g id="node7" class="node"><title>6</title>
<ellipse fill="cadetblue" stroke="black" cx="117.388" cy="-160.251" rx="21.4286" ry="21.4286"/>
<text text-anchor="middle" x="117.388" y="-155.251" font-family="Times New Roman,serif" font-size="20.00">2</text>
</g>
<!-- 0&#45;&gt;6 -->
<g id="edge3" class="edge"><title>0&#45;&gt;6</title>
<path fill="none" stroke="black" stroke-width="2" d="M39.3029,-109.611C53.8108,-119.02 74.3839,-132.362 90.7711,-142.99"/>
<polygon fill="black" stroke="black" stroke-width="2" points="89.0847,-146.067 99.3793,-148.572 92.8936,-140.194 89.0847,-146.067"/>
</g>
<!-- 7 -->
<g id="node8" class="node"><title>7</title>
<ellipse fill="cadetblue" stroke="black" cx="131.873" cy="-96.2368" rx="21.4286" ry="21.4286"/>
<text text-anchor="middle" x="131.873" y="-91.2368" font-family="Times New Roman,serif" font-size="20.00">2</text>
</g>
<!-- 0&#45;&gt;7 -->
<g id="edge4" class="edge"><title>0&#45;&gt;7</title>
<path fill="none" stroke="black" stroke-width="2" d="M42.5495,-97.5629C59.0065,-97.3185 82.0142,-96.977 100.557,-96.7017"/>
<polygon fill="black" stroke="black" stroke-width="2" points="100.655,-100.201 110.602,-96.5526 100.551,-93.2015 100.655,-100.201"/>
</g>
<!-- 1 -->
<g id="node2" class="node"><title>1</title>
<ellipse fill="cadetblue" stroke="black" cx="198.236" cy="-140.04" rx="21.4286" ry="21.4286"/>
<text text-anchor="middle" x="198.236" y="-135.04" font-family="Times New Roman,serif" font-size="20.00">2</text>
</g>
<!-- 1&#45;&gt;6 -->
<g id="edge7" class="edge"><title>1&#45;&gt;6</title>
<path fill="none" stroke="black" stroke-width="2" d="M177.416,-145.245C168.457,-147.485 157.803,-150.148 147.975,-152.605"/>
<polygon fill="black" stroke="black" stroke-width="2" points="146.99,-149.243 138.138,-155.064 148.688,-156.034 146.99,-149.243"/>
</g>
<!-- 1&#45;&gt;7 -->
<g id="edge8" class="edge"><title>1&#45;&gt;7</title>
<path fill="none" stroke="black" stroke-width="2" d="M180.452,-128.302C173.608,-123.784 165.642,-118.526 158.164,-113.59"/>
<polygon fill="black" stroke="black" stroke-width="2" points="159.98,-110.595 149.706,-108.008 156.124,-116.438 159.98,-110.595"/>
</g>
<!-- 2 -->
<g id="node3" class="node"><title>2</title>
<ellipse fill="cadetblue" stroke="black" cx="157.145" cy="-21.2132" rx="21.4286" ry="21.4286"/>
<text text-anchor="middle" x="157.145" y="-16.2132" font-family="Times New Roman,serif" font-size="20.00">2</text>
</g>
<!-- 4 -->
<g id="node5" class="node"><title>4</title>
<ellipse fill="cadetblue" stroke="black" cx="236.2" cy="-60.2961" rx="21.4286" ry="21.4286"/>
<text text-anchor="middle" x="236.2" y="-55.2961" font-family="Times New Roman,serif" font-size="20.00">2</text>
</g>
<!-- 2&#45;&gt;4 -->
<g id="edge9" class="edge"><title>2&#45;&gt;4</title>
<path fill="none" stroke="black" stroke-width="2" d="M176.282,-30.6741C185.728,-35.3441 197.314,-41.0719 207.772,-46.2419"/>
<polygon fill="black" stroke="black" stroke-width="2" points="206.449,-49.4926 216.965,-50.7869 209.552,-43.2175 206.449,-49.4926"/>
</g>
<!-- 5 -->
<g id="node6" class="node"><title>5</title>
<ellipse fill="cadetblue" stroke="black" cx="81.4413" cy="-55.6387" rx="21.4286" ry="21.4286"/>
<text text-anchor="middle" x="81.4413" y="-50.6387" font-family="Times New Roman,serif" font-size="20.00">2</text>
</g>
<!-- 2&#45;&gt;5 -->
<g id="edge10" class="edge"><title>2&#45;&gt;5</title>
<path fill="none" stroke="black" stroke-width="2" d="M137.65,-30.0786C129.261,-33.8934 119.285,-38.4298 110.082,-42.6146"/>
<polygon fill="black" stroke="black" stroke-width="2" points="108.525,-39.4777 100.871,-46.8033 111.423,-45.8498 108.525,-39.4777"/>
</g>
<!-- 3 -->
<g id="node4" class="node"><title>3</title>
<ellipse fill="brown" stroke="black" cx="43.727" cy="-163.39" rx="21.4286" ry="21.4286"/>
<text text-anchor="middle" x="43.727" y="-158.39" font-family="Times New Roman,serif" font-size="20.00">3</text>
</g>
<!-- 3&#45;&gt;0 -->
<g id="edge1" class="edge"><title>3&#45;&gt;0</title>
<path fill="none" stroke="black" stroke-width="2" d="M36.7269,-143.021C35.0593,-138.169 33.2456,-132.891 31.4656,-127.712"/>
<polygon fill="black" stroke="black" stroke-width="2" points="34.6918,-126.33 28.1316,-118.011 28.0719,-128.605 34.6918,-126.33"/>
</g>
<!-- 4&#45;&gt;1 -->
<g id="edge5" class="edge"><title>4&#45;&gt;1</title>
<path fill="none" stroke="black" stroke-width="2" d="M227.01,-79.5999C222.473,-89.1285 216.91,-100.815 211.888,-111.364"/>
<polygon fill="black" stroke="black" stroke-width="2" points="208.611,-110.104 207.473,-120.638 214.932,-113.113 208.611,-110.104"/>
</g>
<!-- 5&#45;&gt;0 -->
<g id="edge2" class="edge"><title>5&#45;&gt;0</title>
<path fill="none" stroke="black" stroke-width="2" d="M64.0209,-67.8565C58.8227,-71.5023 53.0068,-75.5812 47.3782,-79.5288"/>
<polygon fill="black" stroke="black" stroke-width="2" points="44.9806,-76.9353 38.8032,-85.5429 49,-82.6663 44.9806,-76.9353"/>
</g>
<!-- 5&#45;&gt;1 -->
<g id="edge6" class="edge"><title>5&#45;&gt;1</title>
<path fill="none" stroke="black" stroke-width="2" d="M102.516,-58.4871C117.173,-61.3351 136.509,-66.9085 150.474,-77.6377 163.009,-87.2693 173.983,-100.967 182.239,-113.076"/>
<polygon fill="black" stroke="black" stroke-width="2" points="179.36,-115.068 187.755,-121.532 185.223,-111.244 179.36,-115.068"/>
</g>
<!-- 5&#45;&gt;3 -->
<g id="edge13" class="edge"><title>5&#45;&gt;3</title>
<path fill="none" stroke="black" stroke-width="2" d="M74.3476,-75.9058C68.6584,-92.1599 60.5908,-115.209 54.1646,-133.569"/>
<polygon fill="black" stroke="black" stroke-width="2" points="50.7892,-132.618 50.789,-143.213 57.3962,-134.931 50.7892,-132.618"/>
</g>
<!-- 6&#45;&gt;2 -->
<g id="edge11" class="edge"><title>6&#45;&gt;2</title>
<path fill="none" stroke="black" stroke-width="2" d="M132.139,-144.663C142.316,-132.55 154.628,-114.745 158.177,-96.238 160.888,-82.1055 161.067,-66.1997 160.394,-52.6825"/>
<polygon fill="black" stroke="black" stroke-width="2" points="163.868,-52.176 159.705,-42.4336 156.884,-52.6461 163.868,-52.176"/>
</g>
<!-- 6&#45;&gt;3 -->
<g id="edge14" class="edge"><title>6&#45;&gt;3</title>
<path fill="none" stroke="black" stroke-width="2" d="M96.0821,-161.159C89.5161,-161.439 82.1443,-161.753 75.0513,-162.055"/>
<polygon fill="black" stroke="black" stroke-width="2" points="74.8268,-158.561 64.9849,-162.484 75.1249,-165.555 74.8268,-158.561"/>
</g>
<!-- 7&#45;&gt;2 -->
<g id="edge12" class="edge"><title>7&#45;&gt;2</title>
<path fill="none" stroke="black" stroke-width="2" d="M138.645,-76.1318C141.252,-68.3951 144.285,-59.3889 147.133,-50.935"/>
<polygon fill="black" stroke="black" stroke-width="2" points="150.478,-51.9678 150.354,-41.3736 143.845,-49.7331 150.478,-51.9678"/>
</g>
<!-- 7&#45;&gt;3 -->
<g id="edge15" class="edge"><title>7&#45;&gt;3</title>
<path fill="none" stroke="black" stroke-width="2" d="M114.877,-109.185C101.83,-119.125 83.6122,-133.003 68.8778,-144.229"/>
<polygon fill="black" stroke="black" stroke-width="2" points="66.5038,-141.637 60.6702,-150.482 70.7459,-147.206 66.5038,-141.637"/>
</g>
<!-- 7&#45;&gt;4 -->
<g id="edge16" class="edge"><title>7&#45;&gt;4</title>
<path fill="none" stroke="black" stroke-width="2" d="M151.988,-89.3071C167.332,-84.021 188.716,-76.6541 206.096,-70.6668"/>
<polygon fill="black" stroke="black" stroke-width="2" points="207.475,-73.8935 215.79,-67.3272 205.195,-67.2753 207.475,-73.8935"/>
</g>
<!-- 7&#45;&gt;5 -->
<g id="edge17" class="edge"><title>7&#45;&gt;5</title>
<path fill="none" stroke="black" stroke-width="2" d="M115.08,-82.7182C112.157,-80.3654 109.064,-77.8754 105.984,-75.3961"/>
<polygon fill="black" stroke="black" stroke-width="2" points="107.974,-72.5045 97.9894,-68.9601 103.584,-77.9573 107.974,-72.5045"/>
</g>
</g>
</svg>

