<?xml version="1.0" encoding="UTF-8" standalone="no"?>
<!DOCTYPE svg PUBLIC "-//W3C//DTD SVG 1.1//EN"
 "http://www.w3.org/Graphics/SVG/1.1/DTD/svg11.dtd">
<!-- Generated by graphviz version 2.36.0 (20140111.2315)
 -->
<!-- Title: G Pages: 1 -->
<svg width="100%" height="100%"
 viewBox="0.00 0.00 215.18 216.46" xmlns="http://www.w3.org/2000/svg" xmlns:xlink="http://www.w3.org/1999/xlink">
<g id="graph0" class="graph" transform="scale(1 1) rotate(0) translate(4 212.464)">
<title>G</title>
<!-- 0 -->
<g id="node1" class="node"><title>0</title>
<ellipse fill="cadetblue" stroke="black" cx="21.2132" cy="-116.828" rx="21.4286" ry="21.4286"/>
<text text-anchor="middle" x="21.2132" y="-111.828" font-family="Times New Roman,serif" font-size="20.00">2</text>
</g>
<!-- 6 -->
<g id="node7" class="node"><title>6</title>
<ellipse fill="cadetblue" stroke="black" cx="110.526" cy="-148.195" rx="21.4286" ry="21.4286"/>
<text text-anchor="middle" x="110.526" y="-143.195" font-family="Times New Roman,serif" font-size="20.00">2</text>
</g>
<!-- 0&#45;&gt;6 -->
<g id="edge3" class="edge"><title>0&#45;&gt;6</title>
<path fill="none" stroke="black" stroke-width="2" d="M41.4797,-123.946C53.1273,-128.036 67.9683,-133.249 80.9039,-137.792"/>
<polygon fill="black" stroke="black" stroke-width="2" points="79.7451,-141.094 90.3399,-141.106 82.0647,-134.49 79.7451,-141.094"/>
</g>
<!-- 7 -->
<g id="node8" class="node"><title>7</title>
<ellipse fill="dodgerblue" stroke="black" cx="80.1608" cy="-84.5399" rx="21.4286" ry="21.4286"/>
<text text-anchor="middle" x="80.1608" y="-79.5399" font-family="Times New Roman,serif" font-size="20.00">4</text>
</g>
<!-- 0&#45;&gt;7 -->
<g id="edge4" class="edge"><title>0&#45;&gt;7</title>
<path fill="none" stroke="black" stroke-width="2" d="M39.8646,-106.612C43.8426,-104.433 48.1261,-102.087 52.3632,-99.7658"/>
<polygon fill="black" stroke="black" stroke-width="2" points="54.3393,-102.674 61.4284,-94.8004 50.9765,-96.5348 54.3393,-102.674"/>
</g>
<!-- 1 -->
<g id="node2" class="node"><title>1</title>
<ellipse fill="cadetblue" stroke="black" cx="107.097" cy="-24.9849" rx="21.4286" ry="21.4286"/>
<text text-anchor="middle" x="107.097" y="-19.9849" font-family="Times New Roman,serif" font-size="20.00">2</text>
</g>
<!-- 1&#45;&gt;6 -->
<g id="edge7" class="edge"><title>1&#45;&gt;6</title>
<path fill="none" stroke="black" stroke-width="2" d="M107.695,-46.4464C108.236,-65.8807 109.039,-94.7555 109.652,-116.786"/>
<polygon fill="black" stroke="black" stroke-width="2" points="106.159,-117.081 109.936,-126.979 113.156,-116.886 106.159,-117.081"/>
</g>
<!-- 1&#45;&gt;7 -->
<g id="edge8" class="edge"><title>1&#45;&gt;7</title>
<path fill="none" stroke="black" stroke-width="2" d="M98.2774,-44.4854C96.6327,-48.1216 94.8827,-51.9908 93.1435,-55.836"/>
<polygon fill="black" stroke="black" stroke-width="2" points="89.8408,-54.6452 88.9087,-65.1989 96.2188,-57.53 89.8408,-54.6452"/>
</g>
<!-- 2 -->
<g id="node3" class="node"><title>2</title>
<ellipse fill="cadetblue" stroke="black" cx="178.58" cy="-21.2132" rx="21.4286" ry="21.4286"/>
<text text-anchor="middle" x="178.58" y="-16.2132" font-family="Times New Roman,serif" font-size="20.00">2</text>
</g>
<!-- 2&#45;&gt;7 -->
<g id="edge11" class="edge"><title>2&#45;&gt;7</title>
<path fill="none" stroke="black" stroke-width="2" d="M160.528,-32.8283C145.406,-42.5584 123.616,-56.5793 106.538,-67.5675"/>
<polygon fill="black" stroke="black" stroke-width="2" points="104.614,-64.644 98.0979,-72.9984 108.401,-70.5307 104.614,-64.644"/>
</g>
<!-- 3 -->
<g id="node4" class="node"><title>3</title>
<ellipse fill="cadetblue" stroke="black" cx="43.2982" cy="-187.251" rx="21.4286" ry="21.4286"/>
<text text-anchor="middle" x="43.2982" y="-182.251" font-family="Times New Roman,serif" font-size="20.00">2</text>
</g>
<!-- 3&#45;&gt;0 -->
<g id="edge1" class="edge"><title>3&#45;&gt;0</title>
<path fill="none" stroke="black" stroke-width="2" d="M36.9103,-166.882C34.9588,-160.659 32.7699,-153.679 30.6603,-146.952"/>
<polygon fill="black" stroke="black" stroke-width="2" points="33.9953,-145.89 27.6633,-137.395 27.3161,-147.985 33.9953,-145.89"/>
</g>
<!-- 4 -->
<g id="node5" class="node"><title>4</title>
<ellipse fill="cadetblue" stroke="black" cx="185.966" cy="-98.7385" rx="21.4286" ry="21.4286"/>
<text text-anchor="middle" x="185.966" y="-93.7385" font-family="Times New Roman,serif" font-size="20.00">2</text>
</g>
<!-- 4&#45;&gt;1 -->
<g id="edge5" class="edge"><title>4&#45;&gt;1</title>
<path fill="none" stroke="black" stroke-width="2" d="M170.384,-84.1672C158.934,-73.4595 143.186,-58.7329 130.264,-46.6489"/>
<polygon fill="black" stroke="black" stroke-width="2" points="132.342,-43.7999 122.647,-39.526 127.56,-48.9126 132.342,-43.7999"/>
</g>
<!-- 4&#45;&gt;2 -->
<g id="edge9" class="edge"><title>4&#45;&gt;2</title>
<path fill="none" stroke="black" stroke-width="2" d="M183.948,-77.5544C183.207,-69.7775 182.352,-60.8029 181.545,-52.335"/>
<polygon fill="black" stroke="black" stroke-width="2" points="185.028,-51.9947 180.596,-42.3717 178.06,-52.6586 185.028,-51.9947"/>
</g>
<!-- 5 -->
<g id="node6" class="node"><title>5</title>
<ellipse fill="brown" stroke="black" cx="130.592" cy="-85.9602" rx="21.4286" ry="21.4286"/>
<text text-anchor="middle" x="130.592" y="-80.9602" font-family="Times New Roman,serif" font-size="20.00">3</text>
</g>
<!-- 4&#45;&gt;5 -->
<g id="edge14" class="edge"><title>4&#45;&gt;5</title>
<path fill="none" stroke="black" stroke-width="2" d="M165.031,-93.9076C163.929,-93.6531 162.811,-93.3952 161.686,-93.1355"/>
<polygon fill="black" stroke="black" stroke-width="2" points="162.087,-89.6362 151.556,-90.798 160.513,-96.457 162.087,-89.6362"/>
</g>
<!-- 5&#45;&gt;0 -->
<g id="edge2" class="edge"><title>5&#45;&gt;0</title>
<path fill="none" stroke="black" stroke-width="2" d="M110.019,-91.7662C93.5191,-96.4226 70.1214,-103.026 51.4844,-108.285"/>
<polygon fill="black" stroke="black" stroke-width="2" points="50.3678,-104.964 41.6943,-111.048 52.269,-111.7 50.3678,-104.964"/>
</g>
<!-- 5&#45;&gt;1 -->
<g id="edge6" class="edge"><title>5&#45;&gt;1</title>
<path fill="none" stroke="black" stroke-width="2" d="M122.899,-65.9946C121.465,-62.2717 119.938,-58.3102 118.421,-54.3732"/>
<polygon fill="black" stroke="black" stroke-width="2" points="121.589,-52.8599 114.728,-44.7871 115.057,-55.3768 121.589,-52.8599"/>
</g>
<!-- 5&#45;&gt;2 -->
<g id="edge10" class="edge"><title>5&#45;&gt;2</title>
<path fill="none" stroke="black" stroke-width="2" d="M143.452,-68.6092C148.401,-61.9322 154.161,-54.1597 159.569,-46.8638"/>
<polygon fill="black" stroke="black" stroke-width="2" points="162.542,-48.7301 165.685,-38.6121 156.918,-44.562 162.542,-48.7301"/>
</g>
<!-- 6&#45;&gt;3 -->
<g id="edge12" class="edge"><title>6&#45;&gt;3</title>
<path fill="none" stroke="black" stroke-width="2" d="M92.1559,-158.867C85.4861,-162.742 77.8004,-167.207 70.5285,-171.432"/>
<polygon fill="black" stroke="black" stroke-width="2" points="68.535,-168.542 61.6464,-176.592 72.0513,-174.595 68.535,-168.542"/>
</g>
<!-- 6&#45;&gt;4 -->
<g id="edge15" class="edge"><title>6&#45;&gt;4</title>
<path fill="none" stroke="black" stroke-width="2" d="M128.404,-136.475C137.706,-130.377 149.257,-122.804 159.565,-116.046"/>
<polygon fill="black" stroke="black" stroke-width="2" points="161.772,-118.785 168.216,-110.375 157.934,-112.931 161.772,-118.785"/>
</g>
<!-- 6&#45;&gt;5 -->
<g id="edge17" class="edge"><title>6&#45;&gt;5</title>
<path fill="none" stroke="black" stroke-width="2" d="M117.097,-127.817C118.322,-124.017 119.625,-119.974 120.921,-115.956"/>
<polygon fill="black" stroke="black" stroke-width="2" points="124.338,-116.763 124.076,-106.171 117.676,-114.615 124.338,-116.763"/>
</g>
<!-- 6&#45;&gt;7 -->
<g id="edge19" class="edge"><title>6&#45;&gt;7</title>
<path fill="none" stroke="black" stroke-width="2" d="M101.251,-128.751C98.896,-123.815 96.3169,-118.408 93.7953,-113.122"/>
<polygon fill="black" stroke="black" stroke-width="2" points="96.8442,-111.384 89.3796,-103.865 90.5262,-114.398 96.8442,-111.384"/>
</g>
<!-- 7&#45;&gt;3 -->
<g id="edge13" class="edge"><title>7&#45;&gt;3</title>
<path fill="none" stroke="black" stroke-width="2" d="M72.8779,-104.832C67.4757,-119.885 60.0266,-140.64 53.9555,-157.556"/>
<polygon fill="black" stroke="black" stroke-width="2" points="50.6497,-156.406 50.566,-167.001 57.2383,-158.771 50.6497,-156.406"/>
</g>
<!-- 7&#45;&gt;4 -->
<g id="edge16" class="edge"><title>7&#45;&gt;4</title>
<path fill="none" stroke="black" stroke-width="2" d="M101.318,-87.3791C116.6,-89.4298 137.49,-92.2332 154.693,-94.5419"/>
<polygon fill="black" stroke="black" stroke-width="2" points="154.469,-98.0431 164.846,-95.9043 155.4,-91.1052 154.469,-98.0431"/>
</g>
<!-- 7&#45;&gt;5 -->
<g id="edge18" class="edge"><title>7&#45;&gt;5</title>
<path fill="none" stroke="black" stroke-width="2" d="M101.548,-85.1422C101.709,-85.1467 101.871,-85.1513 102.032,-85.1558"/>
<polygon fill="black" stroke="black" stroke-width="2" points="99.238,-88.5784 109.333,-85.3614 99.4352,-81.5812 99.238,-88.5784"/>
</g>
</g>
</svg>

