<?xml version="1.0" encoding="UTF-8" standalone="no"?>
<!DOCTYPE svg PUBLIC "-//W3C//DTD SVG 1.1//EN"
 "http://www.w3.org/Graphics/SVG/1.1/DTD/svg11.dtd">
<!-- Generated by graphviz version 2.36.0 (20140111.2315)
 -->
<!-- Title: G Pages: 1 -->
<svg width="100%" height="100%"
 viewBox="0.00 0.00 321.12 333.35" xmlns="http://www.w3.org/2000/svg" xmlns:xlink="http://www.w3.org/1999/xlink">
<g id="graph0" class="graph" transform="scale(1 1) rotate(0) translate(4 329.346)">
<title>G</title>
<!-- 0 -->
<g id="node1" class="node"><title>0</title>
<ellipse fill="cadetblue" stroke="black" cx="45.9029" cy="-113.582" rx="21.4286" ry="21.4286"/>
<text text-anchor="middle" x="45.9029" y="-108.582" font-family="Times New Roman,serif" font-size="20.00">2</text>
</g>
<!-- 6 -->
<g id="node7" class="node"><title>6</title>
<ellipse fill="cadetblue" stroke="black" cx="223.75" cy="-138.352" rx="21.4286" ry="21.4286"/>
<text text-anchor="middle" x="223.75" y="-133.352" font-family="Times New Roman,serif" font-size="20.00">2</text>
</g>
<!-- 0&#45;&gt;6 -->
<g id="edge3" class="edge"><title>0&#45;&gt;6</title>
<path fill="none" stroke="black" stroke-width="2" d="M67.0027,-116.521C98.1558,-120.859 156.652,-129.007 192.705,-134.028"/>
<polygon fill="black" stroke="black" stroke-width="2" points="192.29,-137.504 202.678,-135.417 193.256,-130.571 192.29,-137.504"/>
</g>
<!-- 7 -->
<g id="node8" class="node"><title>7</title>
<ellipse fill="brown" stroke="black" cx="153.101" cy="-163.467" rx="21.4286" ry="21.4286"/>
<text text-anchor="middle" x="153.101" y="-158.467" font-family="Times New Roman,serif" font-size="20.00">3</text>
</g>
<!-- 0&#45;&gt;7 -->
<g id="edge4" class="edge"><title>0&#45;&gt;7</title>
<path fill="none" stroke="black" stroke-width="2" d="M65.5647,-122.732C82.0357,-130.396 105.77,-141.442 124.371,-150.097"/>
<polygon fill="black" stroke="black" stroke-width="2" points="123.021,-153.33 133.564,-154.376 125.974,-146.983 123.021,-153.33"/>
</g>
<!-- 1 -->
<g id="node2" class="node"><title>1</title>
<ellipse fill="cadetblue" stroke="black" cx="194.967" cy="-304.133" rx="21.4286" ry="21.4286"/>
<text text-anchor="middle" x="194.967" y="-299.133" font-family="Times New Roman,serif" font-size="20.00">2</text>
</g>
<!-- 5 -->
<g id="node6" class="node"><title>5</title>
<ellipse fill="cadetblue" stroke="black" cx="21.2132" cy="-276.635" rx="21.4286" ry="21.4286"/>
<text text-anchor="middle" x="21.2132" y="-271.635" font-family="Times New Roman,serif" font-size="20.00">2</text>
</g>
<!-- 1&#45;&gt;5 -->
<g id="edge6" class="edge"><title>1&#45;&gt;5</title>
<path fill="none" stroke="black" stroke-width="2" d="M173.292,-304.264C164.349,-304.103 153.898,-303.638 144.497,-302.509 112.578,-298.676 76.6659,-290.713 51.8711,-284.628"/>
<polygon fill="black" stroke="black" stroke-width="2" points="52.5199,-281.183 41.9695,-282.153 50.8219,-287.974 52.5199,-281.183"/>
</g>
<!-- 1&#45;&gt;7 -->
<g id="edge8" class="edge"><title>1&#45;&gt;7</title>
<path fill="none" stroke="black" stroke-width="2" d="M188.88,-283.679C181.841,-260.031 170.19,-220.883 162.104,-193.715"/>
<polygon fill="black" stroke="black" stroke-width="2" points="165.404,-192.532 159.196,-183.946 158.694,-194.529 165.404,-192.532"/>
</g>
<!-- 2 -->
<g id="node3" class="node"><title>2</title>
<ellipse fill="cadetblue" stroke="black" cx="144.536" cy="-276.204" rx="21.4286" ry="21.4286"/>
<text text-anchor="middle" x="144.536" y="-271.204" font-family="Times New Roman,serif" font-size="20.00">2</text>
</g>
<!-- 2&#45;&gt;5 -->
<g id="edge10" class="edge"><title>2&#45;&gt;5</title>
<path fill="none" stroke="black" stroke-width="2" d="M123.055,-276.28C103.603,-276.348 74.7015,-276.449 52.6512,-276.526"/>
<polygon fill="black" stroke="black" stroke-width="2" points="52.4359,-273.026 42.4482,-276.561 52.4604,-280.026 52.4359,-273.026"/>
</g>
<!-- 2&#45;&gt;7 -->
<g id="edge12" class="edge"><title>2&#45;&gt;7</title>
<path fill="none" stroke="black" stroke-width="2" d="M146.147,-255C147.431,-238.101 149.248,-214.182 150.703,-195.033"/>
<polygon fill="black" stroke="black" stroke-width="2" points="154.201,-195.197 151.468,-184.961 147.221,-194.667 154.201,-195.197"/>
</g>
<!-- 3 -->
<g id="node4" class="node"><title>3</title>
<ellipse fill="cadetblue" stroke="black" cx="146.071" cy="-21.2132" rx="21.4286" ry="21.4286"/>
<text text-anchor="middle" x="146.071" y="-16.2132" font-family="Times New Roman,serif" font-size="20.00">2</text>
</g>
<!-- 3&#45;&gt;0 -->
<g id="edge1" class="edge"><title>3&#45;&gt;0</title>
<path fill="none" stroke="black" stroke-width="2" d="M130.42,-35.6458C114.05,-50.7408 88.1687,-74.6069 69.3562,-91.9546"/>
<polygon fill="black" stroke="black" stroke-width="2" points="66.7536,-89.5936 61.7748,-98.9457 71.499,-94.7396 66.7536,-89.5936"/>
</g>
<!-- 4 -->
<g id="node5" class="node"><title>4</title>
<ellipse fill="cadetblue" stroke="black" cx="291.907" cy="-238.651" rx="21.4286" ry="21.4286"/>
<text text-anchor="middle" x="291.907" y="-233.651" font-family="Times New Roman,serif" font-size="20.00">2</text>
</g>
<!-- 4&#45;&gt;1 -->
<g id="edge5" class="edge"><title>4&#45;&gt;1</title>
<path fill="none" stroke="black" stroke-width="2" d="M274.127,-250.661C259.232,-260.722 237.769,-275.221 220.948,-286.583"/>
<polygon fill="black" stroke="black" stroke-width="2" points="218.962,-283.701 212.635,-292.199 222.881,-289.501 218.962,-283.701"/>
</g>
<!-- 4&#45;&gt;2 -->
<g id="edge9" class="edge"><title>4&#45;&gt;2</title>
<path fill="none" stroke="black" stroke-width="2" d="M271.105,-243.952C246.09,-250.326 203.889,-261.08 175.153,-268.402"/>
<polygon fill="black" stroke="black" stroke-width="2" points="174.058,-265.07 165.232,-270.931 175.787,-271.853 174.058,-265.07"/>
</g>
<!-- 5&#45;&gt;0 -->
<g id="edge2" class="edge"><title>5&#45;&gt;0</title>
<path fill="none" stroke="black" stroke-width="2" d="M24.3904,-255.653C28.6564,-227.48 36.2687,-177.207 41.1997,-144.643"/>
<polygon fill="black" stroke="black" stroke-width="2" points="44.6621,-145.153 42.6988,-134.742 37.741,-144.105 44.6621,-145.153"/>
</g>
<!-- 6&#45;&gt;1 -->
<g id="edge7" class="edge"><title>6&#45;&gt;1</title>
<path fill="none" stroke="black" stroke-width="2" d="M220.105,-159.348C215.122,-188.044 206.148,-239.733 200.38,-272.96"/>
<polygon fill="black" stroke="black" stroke-width="2" points="196.891,-272.595 198.628,-283.046 203.787,-273.792 196.891,-272.595"/>
</g>
<!-- 6&#45;&gt;2 -->
<g id="edge11" class="edge"><title>6&#45;&gt;2</title>
<path fill="none" stroke="black" stroke-width="2" d="M213.067,-156.943C199.543,-180.479 176.126,-221.229 160.483,-248.453"/>
<polygon fill="black" stroke="black" stroke-width="2" points="157.25,-247.053 155.303,-257.467 163.32,-250.541 157.25,-247.053"/>
</g>
<!-- 6&#45;&gt;3 -->
<g id="edge13" class="edge"><title>6&#45;&gt;3</title>
<path fill="none" stroke="black" stroke-width="2" d="M211.952,-120.561C199.063,-101.124 178.286,-69.793 163.513,-47.5155"/>
<polygon fill="black" stroke="black" stroke-width="2" points="166.423,-45.5712 157.98,-39.1715 160.589,-49.4399 166.423,-45.5712"/>
</g>
<!-- 6&#45;&gt;4 -->
<g id="edge15" class="edge"><title>6&#45;&gt;4</title>
<path fill="none" stroke="black" stroke-width="2" d="M235.935,-156.283C246.5,-171.83 261.932,-194.54 273.918,-212.178"/>
<polygon fill="black" stroke="black" stroke-width="2" points="271.312,-214.571 279.828,-220.875 277.102,-210.636 271.312,-214.571"/>
</g>
<!-- 7&#45;&gt;3 -->
<g id="edge14" class="edge"><title>7&#45;&gt;3</title>
<path fill="none" stroke="black" stroke-width="2" d="M152.049,-142.171C150.879,-118.495 148.977,-80.0181 147.633,-52.8266"/>
<polygon fill="black" stroke="black" stroke-width="2" points="151.12,-52.4707 147.131,-42.6557 144.128,-52.8163 151.12,-52.4707"/>
</g>
<!-- 7&#45;&gt;4 -->
<g id="edge16" class="edge"><title>7&#45;&gt;4</title>
<path fill="none" stroke="black" stroke-width="2" d="M171.821,-173.607C195.519,-186.443 236.552,-208.668 263.964,-223.515"/>
<polygon fill="black" stroke="black" stroke-width="2" points="262.581,-226.747 273.041,-228.432 265.915,-220.591 262.581,-226.747"/>
</g>
<!-- 7&#45;&gt;6 -->
<g id="edge17" class="edge"><title>7&#45;&gt;6</title>
<path fill="none" stroke="black" stroke-width="2" d="M173.157,-156.338C179.516,-154.077 186.692,-151.526 193.599,-149.071"/>
<polygon fill="black" stroke="black" stroke-width="2" points="195.148,-152.234 203.398,-145.587 192.804,-145.639 195.148,-152.234"/>
</g>
</g>
</svg>

