<?xml version="1.0" encoding="UTF-8" standalone="no"?>
<!DOCTYPE svg PUBLIC "-//W3C//DTD SVG 1.1//EN"
 "http://www.w3.org/Graphics/SVG/1.1/DTD/svg11.dtd">
<!-- Generated by graphviz version 2.36.0 (20140111.2315)
 -->
<!-- Title: G Pages: 1 -->
<svg width="100%" height="100%"
 viewBox="0.00 0.00 283.67 208.07" xmlns="http://www.w3.org/2000/svg" xmlns:xlink="http://www.w3.org/1999/xlink">
<g id="graph0" class="graph" transform="scale(1 1) rotate(0) translate(4 204.067)">
<title>G</title>
<!-- 0 -->
<g id="node1" class="node"><title>0</title>
<ellipse fill="cadetblue" stroke="black" cx="21.2132" cy="-105.675" rx="21.4286" ry="21.4286"/>
<text text-anchor="middle" x="21.2132" y="-100.675" font-family="Times New Roman,serif" font-size="20.00">2</text>
</g>
<!-- 5 -->
<g id="node6" class="node"><title>5</title>
<ellipse fill="brown" stroke="black" cx="129.036" cy="-128.422" rx="21.4286" ry="21.4286"/>
<text text-anchor="middle" x="129.036" y="-123.422" font-family="Times New Roman,serif" font-size="20.00">3</text>
</g>
<!-- 0&#45;&gt;5 -->
<g id="edge2" class="edge"><title>0&#45;&gt;5</title>
<path fill="none" stroke="black" stroke-width="2" d="M42.0026,-110.061C57.8609,-113.406 79.962,-118.069 97.924,-121.858"/>
<polygon fill="black" stroke="black" stroke-width="2" points="97.4359,-125.332 107.943,-123.972 98.8809,-118.483 97.4359,-125.332"/>
</g>
<!-- 1 -->
<g id="node2" class="node"><title>1</title>
<ellipse fill="cadetblue" stroke="black" cx="174.914" cy="-34.8019" rx="21.4286" ry="21.4286"/>
<text text-anchor="middle" x="174.914" y="-29.8019" font-family="Times New Roman,serif" font-size="20.00">2</text>
</g>
<!-- 4 -->
<g id="node5" class="node"><title>4</title>
<ellipse fill="cadetblue" stroke="black" cx="254.457" cy="-107.815" rx="21.4286" ry="21.4286"/>
<text text-anchor="middle" x="254.457" y="-102.815" font-family="Times New Roman,serif" font-size="20.00">2</text>
</g>
<!-- 1&#45;&gt;4 -->
<g id="edge4" class="edge"><title>1&#45;&gt;4</title>
<path fill="none" stroke="black" stroke-width="2" d="M190.629,-49.227C202.177,-59.8272 218.059,-74.406 231.092,-86.3688"/>
<polygon fill="black" stroke="black" stroke-width="2" points="229.04,-89.2364 238.774,-93.4202 233.774,-84.0795 229.04,-89.2364"/>
</g>
<!-- 7 -->
<g id="node8" class="node"><title>7</title>
<ellipse fill="cadetblue" stroke="black" cx="101.415" cy="-58.2267" rx="21.4286" ry="21.4286"/>
<text text-anchor="middle" x="101.415" y="-53.2267" font-family="Times New Roman,serif" font-size="20.00">2</text>
</g>
<!-- 1&#45;&gt;7 -->
<g id="edge7" class="edge"><title>1&#45;&gt;7</title>
<path fill="none" stroke="black" stroke-width="2" d="M154.44,-41.327C147.352,-43.5861 139.252,-46.1678 131.552,-48.6219"/>
<polygon fill="black" stroke="black" stroke-width="2" points="130.244,-45.3652 121.779,-51.7366 132.369,-52.0346 130.244,-45.3652"/>
</g>
<!-- 2 -->
<g id="node3" class="node"><title>2</title>
<ellipse fill="cadetblue" stroke="black" cx="225.724" cy="-21.2132" rx="21.4286" ry="21.4286"/>
<text text-anchor="middle" x="225.724" y="-16.2132" font-family="Times New Roman,serif" font-size="20.00">2</text>
</g>
<!-- 6 -->
<g id="node7" class="node"><title>6</title>
<ellipse fill="cadetblue" stroke="black" cx="187.302" cy="-129.267" rx="21.4286" ry="21.4286"/>
<text text-anchor="middle" x="187.302" y="-124.267" font-family="Times New Roman,serif" font-size="20.00">2</text>
</g>
<!-- 2&#45;&gt;6 -->
<g id="edge9" class="edge"><title>2&#45;&gt;6</title>
<path fill="none" stroke="black" stroke-width="2" d="M218.588,-41.284C212.775,-57.632 204.481,-80.9555 197.894,-99.4814"/>
<polygon fill="black" stroke="black" stroke-width="2" points="194.584,-98.3421 194.531,-108.937 201.18,-100.687 194.584,-98.3421"/>
</g>
<!-- 3 -->
<g id="node4" class="node"><title>3</title>
<ellipse fill="cadetblue" stroke="black" cx="78.883" cy="-178.854" rx="21.4286" ry="21.4286"/>
<text text-anchor="middle" x="78.883" y="-173.854" font-family="Times New Roman,serif" font-size="20.00">2</text>
</g>
<!-- 3&#45;&gt;0 -->
<g id="edge1" class="edge"><title>3&#45;&gt;0</title>
<path fill="none" stroke="black" stroke-width="2" d="M65.5074,-161.881C58.156,-152.553 48.9011,-140.809 40.7545,-130.471"/>
<polygon fill="black" stroke="black" stroke-width="2" points="43.4549,-128.243 34.5162,-122.555 37.9569,-132.576 43.4549,-128.243"/>
</g>
<!-- 4&#45;&gt;2 -->
<g id="edge8" class="edge"><title>4&#45;&gt;2</title>
<path fill="none" stroke="black" stroke-width="2" d="M247.647,-87.2919C244.069,-76.5066 239.617,-63.0859 235.661,-51.1623"/>
<polygon fill="black" stroke="black" stroke-width="2" points="238.956,-49.9785 232.485,-41.5894 232.312,-52.1828 238.956,-49.9785"/>
</g>
<!-- 4&#45;&gt;5 -->
<g id="edge13" class="edge"><title>4&#45;&gt;5</title>
<path fill="none" stroke="black" stroke-width="2" d="M233.486,-103.82C220.193,-101.898 202.675,-100.492 187.334,-102.962 176.894,-104.644 166.109,-108.628 156.698,-112.958"/>
<polygon fill="black" stroke="black" stroke-width="2" points="154.88,-109.952 147.458,-117.514 157.975,-116.231 154.88,-109.952"/>
</g>
<!-- 5&#45;&gt;1 -->
<g id="edge5" class="edge"><title>5&#45;&gt;1</title>
<path fill="none" stroke="black" stroke-width="2" d="M138.542,-109.024C145.044,-95.7557 153.769,-77.9506 161.044,-63.1054"/>
<polygon fill="black" stroke="black" stroke-width="2" points="164.319,-64.3748 165.577,-53.8549 158.034,-61.2945 164.319,-64.3748"/>
</g>
<!-- 5&#45;&gt;6 -->
<g id="edge15" class="edge"><title>5&#45;&gt;6</title>
<path fill="none" stroke="black" stroke-width="2" d="M150.402,-128.732C152.143,-128.757 153.925,-128.783 155.719,-128.809"/>
<polygon fill="black" stroke="black" stroke-width="2" points="155.89,-132.312 165.94,-128.957 155.992,-125.312 155.89,-132.312"/>
</g>
<!-- 6&#45;&gt;1 -->
<g id="edge6" class="edge"><title>6&#45;&gt;1</title>
<path fill="none" stroke="black" stroke-width="2" d="M184.491,-107.831C182.876,-95.5118 180.817,-79.8147 179.023,-66.133"/>
<polygon fill="black" stroke="black" stroke-width="2" points="182.484,-65.6125 177.714,-56.1526 175.544,-66.5228 182.484,-65.6125"/>
</g>
<!-- 6&#45;&gt;3 -->
<g id="edge11" class="edge"><title>6&#45;&gt;3</title>
<path fill="none" stroke="black" stroke-width="2" d="M167.919,-138.132C151.141,-145.806 126.645,-157.009 107.591,-165.723"/>
<polygon fill="black" stroke="black" stroke-width="2" points="106.102,-162.556 98.4639,-169.898 109.014,-168.922 106.102,-162.556"/>
</g>
<!-- 6&#45;&gt;4 -->
<g id="edge14" class="edge"><title>6&#45;&gt;4</title>
<path fill="none" stroke="black" stroke-width="2" d="M207.816,-122.714C213.023,-121.051 218.727,-119.229 224.303,-117.447"/>
<polygon fill="black" stroke="black" stroke-width="2" points="225.608,-120.705 234.069,-114.328 223.478,-114.037 225.608,-120.705"/>
</g>
<!-- 6&#45;&gt;7 -->
<g id="edge17" class="edge"><title>6&#45;&gt;7</title>
<path fill="none" stroke="black" stroke-width="2" d="M170.743,-115.57C158.029,-105.054 140.278,-90.3717 125.922,-78.4967"/>
<polygon fill="black" stroke="black" stroke-width="2" points="127.861,-75.5586 117.924,-71.8819 123.399,-80.9526 127.861,-75.5586"/>
</g>
<!-- 7&#45;&gt;0 -->
<g id="edge3" class="edge"><title>7&#45;&gt;0</title>
<path fill="none" stroke="black" stroke-width="2" d="M82.8137,-69.2316C72.59,-75.28 59.7192,-82.8945 48.3896,-89.5972"/>
<polygon fill="black" stroke="black" stroke-width="2" points="46.5384,-86.6257 39.7139,-94.7298 50.1027,-92.6503 46.5384,-86.6257"/>
</g>
<!-- 7&#45;&gt;2 -->
<g id="edge10" class="edge"><title>7&#45;&gt;2</title>
<path fill="none" stroke="black" stroke-width="2" d="M122.458,-61.4145C137.221,-63.0772 157.361,-64.1912 174.818,-61.1061 186.046,-59.1217 196.376,-52.4347 204.754,-45.088"/>
<polygon fill="black" stroke="black" stroke-width="2" points="207.371,-47.4276 212.154,-37.9741 202.52,-42.3812 207.371,-47.4276"/>
</g>
<!-- 7&#45;&gt;3 -->
<g id="edge12" class="edge"><title>7&#45;&gt;3</title>
<path fill="none" stroke="black" stroke-width="2" d="M97.4905,-79.2383C93.9581,-98.1491 88.7202,-126.19 84.7008,-147.708"/>
<polygon fill="black" stroke="black" stroke-width="2" points="81.2342,-147.205 82.8384,-157.678 88.1152,-148.491 81.2342,-147.205"/>
</g>
<!-- 7&#45;&gt;5 -->
<g id="edge16" class="edge"><title>7&#45;&gt;5</title>
<path fill="none" stroke="black" stroke-width="2" d="M109.257,-78.1542C111.743,-84.4722 114.548,-91.6024 117.249,-98.4647"/>
<polygon fill="black" stroke="black" stroke-width="2" points="114.161,-100.177 121.08,-108.201 120.675,-97.614 114.161,-100.177"/>
</g>
</g>
</svg>

