<?xml version="1.0" encoding="UTF-8" standalone="no"?>
<!DOCTYPE svg PUBLIC "-//W3C//DTD SVG 1.1//EN"
 "http://www.w3.org/Graphics/SVG/1.1/DTD/svg11.dtd">
<!-- Generated by graphviz version 2.36.0 (20140111.2315)
 -->
<!-- Title: G Pages: 1 -->
<svg width="100%" height="100%"
 viewBox="0.00 0.00 222.68 261.63" xmlns="http://www.w3.org/2000/svg" xmlns:xlink="http://www.w3.org/1999/xlink">
<g id="graph0" class="graph" transform="scale(1 1) rotate(0) translate(4 257.625)">
<title>G</title>
<!-- 0 -->
<g id="node1" class="node"><title>0</title>
<ellipse fill="cadetblue" stroke="black" cx="32.5269" cy="-188.614" rx="21.4286" ry="21.4286"/>
<text text-anchor="middle" x="32.5269" y="-183.614" font-family="Times New Roman,serif" font-size="20.00">2</text>
</g>
<!-- 6 -->
<g id="node7" class="node"><title>6</title>
<ellipse fill="cadetblue" stroke="black" cx="129.077" cy="-157.229" rx="21.4286" ry="21.4286"/>
<text text-anchor="middle" x="129.077" y="-152.229" font-family="Times New Roman,serif" font-size="20.00">2</text>
</g>
<!-- 0&#45;&gt;6 -->
<g id="edge3" class="edge"><title>0&#45;&gt;6</title>
<path fill="none" stroke="black" stroke-width="2" d="M53.0027,-181.958C66.3155,-177.631 83.9069,-171.912 98.8199,-167.064"/>
<polygon fill="black" stroke="black" stroke-width="2" points="100.203,-170.295 108.631,-163.875 98.0388,-163.638 100.203,-170.295"/>
</g>
<!-- 7 -->
<g id="node8" class="node"><title>7</title>
<ellipse fill="brown" stroke="black" cx="100.062" cy="-97.3078" rx="21.4286" ry="21.4286"/>
<text text-anchor="middle" x="100.062" y="-92.3078" font-family="Times New Roman,serif" font-size="20.00">3</text>
</g>
<!-- 0&#45;&gt;7 -->
<g id="edge4" class="edge"><title>0&#45;&gt;7</title>
<path fill="none" stroke="black" stroke-width="2" d="M45.2298,-171.44C55.4175,-157.667 69.8643,-138.135 81.3717,-122.577"/>
<polygon fill="black" stroke="black" stroke-width="2" points="84.2837,-124.526 87.4165,-114.405 78.6559,-120.363 84.2837,-124.526"/>
</g>
<!-- 1 -->
<g id="node2" class="node"><title>1</title>
<ellipse fill="cadetblue" stroke="black" cx="37.924" cy="-46.9896" rx="21.4286" ry="21.4286"/>
<text text-anchor="middle" x="37.924" y="-41.9896" font-family="Times New Roman,serif" font-size="20.00">2</text>
</g>
<!-- 1&#45;&gt;6 -->
<g id="edge7" class="edge"><title>1&#45;&gt;6</title>
<path fill="none" stroke="black" stroke-width="2" d="M47.8395,-65.8446C55.8979,-80.2987 68.0895,-100.341 81.4616,-115.907 88.0613,-123.589 96.1109,-131.117 103.7,-137.597"/>
<polygon fill="black" stroke="black" stroke-width="2" points="101.725,-140.506 111.664,-144.177 106.184,-135.109 101.725,-140.506"/>
</g>
<!-- 1&#45;&gt;7 -->
<g id="edge8" class="edge"><title>1&#45;&gt;7</title>
<path fill="none" stroke="black" stroke-width="2" d="M54.576,-60.474C60.984,-65.663 68.4433,-71.7034 75.4453,-77.3734"/>
<polygon fill="black" stroke="black" stroke-width="2" points="73.3904,-80.2131 83.3645,-83.7862 77.7956,-74.773 73.3904,-80.2131"/>
</g>
<!-- 2 -->
<g id="node3" class="node"><title>2</title>
<ellipse fill="cadetblue" stroke="black" cx="193.468" cy="-81.5966" rx="21.4286" ry="21.4286"/>
<text text-anchor="middle" x="193.468" y="-76.5966" font-family="Times New Roman,serif" font-size="20.00">2</text>
</g>
<!-- 4 -->
<g id="node5" class="node"><title>4</title>
<ellipse fill="cadetblue" stroke="black" cx="109.739" cy="-21.2132" rx="21.4286" ry="21.4286"/>
<text text-anchor="middle" x="109.739" y="-16.2132" font-family="Times New Roman,serif" font-size="20.00">2</text>
</g>
<!-- 2&#45;&gt;4 -->
<g id="edge9" class="edge"><title>2&#45;&gt;4</title>
<path fill="none" stroke="black" stroke-width="2" d="M176.119,-69.0851C164.331,-60.584 148.54,-49.1954 135.316,-39.659"/>
<polygon fill="black" stroke="black" stroke-width="2" points="137.223,-36.7192 127.065,-33.7087 133.129,-42.3968 137.223,-36.7192"/>
</g>
<!-- 3 -->
<g id="node4" class="node"><title>3</title>
<ellipse fill="cadetblue" stroke="black" cx="82.9583" cy="-232.412" rx="21.4286" ry="21.4286"/>
<text text-anchor="middle" x="82.9583" y="-227.412" font-family="Times New Roman,serif" font-size="20.00">2</text>
</g>
<!-- 3&#45;&gt;0 -->
<g id="edge1" class="edge"><title>3&#45;&gt;0</title>
<path fill="none" stroke="black" stroke-width="2" d="M66.7239,-218.313C63.3945,-215.422 59.8249,-212.322 56.2933,-209.255"/>
<polygon fill="black" stroke="black" stroke-width="2" points="58.576,-206.601 48.7309,-202.687 53.9861,-211.887 58.576,-206.601"/>
</g>
<!-- 4&#45;&gt;1 -->
<g id="edge5" class="edge"><title>4&#45;&gt;1</title>
<path fill="none" stroke="black" stroke-width="2" d="M89.7342,-28.3934C82.8662,-30.8585 75.0254,-33.6728 67.5582,-36.353"/>
<polygon fill="black" stroke="black" stroke-width="2" points="66.2998,-33.086 58.0702,-39.7585 68.6647,-39.6744 66.2998,-33.086"/>
</g>
<!-- 5 -->
<g id="node6" class="node"><title>5</title>
<ellipse fill="cadetblue" stroke="black" cx="21.2132" cy="-118.087" rx="21.4286" ry="21.4286"/>
<text text-anchor="middle" x="21.2132" y="-113.087" font-family="Times New Roman,serif" font-size="20.00">2</text>
</g>
<!-- 4&#45;&gt;5 -->
<g id="edge14" class="edge"><title>4&#45;&gt;5</title>
<path fill="none" stroke="black" stroke-width="2" d="M95.1204,-37.21C80.8114,-52.8685 58.8526,-76.8982 42.5852,-94.6998"/>
<polygon fill="black" stroke="black" stroke-width="2" points="39.7215,-92.6451 35.5594,-102.388 44.8889,-97.3672 39.7215,-92.6451"/>
</g>
<!-- 5&#45;&gt;0 -->
<g id="edge2" class="edge"><title>5&#45;&gt;0</title>
<path fill="none" stroke="black" stroke-width="2" d="M24.6077,-139.248C25.525,-144.966 26.5374,-151.277 27.5229,-157.421"/>
<polygon fill="black" stroke="black" stroke-width="2" points="24.095,-158.15 29.1348,-167.469 31.0066,-157.041 24.095,-158.15"/>
</g>
<!-- 5&#45;&gt;1 -->
<g id="edge6" class="edge"><title>5&#45;&gt;1</title>
<path fill="none" stroke="black" stroke-width="2" d="M26.1366,-97.1402C27.5518,-91.1189 29.1261,-84.4212 30.6514,-77.9318"/>
<polygon fill="black" stroke="black" stroke-width="2" points="34.0971,-78.5683 32.978,-68.0327 27.2828,-76.9666 34.0971,-78.5683"/>
</g>
<!-- 5&#45;&gt;3 -->
<g id="edge12" class="edge"><title>5&#45;&gt;3</title>
<path fill="none" stroke="black" stroke-width="2" d="M32.252,-136.711C38.0062,-146.551 45.0877,-158.871 51.1439,-170.031 57.1533,-181.106 63.5113,-193.437 68.9508,-204.193"/>
<polygon fill="black" stroke="black" stroke-width="2" points="65.8441,-205.806 73.4626,-213.169 72.0983,-202.662 65.8441,-205.806"/>
</g>
<!-- 6&#45;&gt;2 -->
<g id="edge10" class="edge"><title>6&#45;&gt;2</title>
<path fill="none" stroke="black" stroke-width="2" d="M143.049,-140.818C151.74,-130.609 163.073,-117.298 172.792,-105.882"/>
<polygon fill="black" stroke="black" stroke-width="2" points="175.706,-107.859 179.524,-97.9756 170.376,-103.321 175.706,-107.859"/>
</g>
<!-- 6&#45;&gt;3 -->
<g id="edge13" class="edge"><title>6&#45;&gt;3</title>
<path fill="none" stroke="black" stroke-width="2" d="M117.913,-175.429C112.402,-184.412 105.643,-195.431 99.5426,-205.376"/>
<polygon fill="black" stroke="black" stroke-width="2" points="96.4249,-203.765 94.1795,-214.119 102.392,-207.425 96.4249,-203.765"/>
</g>
<!-- 6&#45;&gt;7 -->
<g id="edge17" class="edge"><title>6&#45;&gt;7</title>
<path fill="none" stroke="black" stroke-width="2" d="M119.737,-137.94C117.873,-134.091 115.879,-129.971 113.901,-125.887"/>
<polygon fill="black" stroke="black" stroke-width="2" points="116.893,-124.036 109.385,-116.561 110.593,-127.087 116.893,-124.036"/>
</g>
<!-- 7&#45;&gt;2 -->
<g id="edge11" class="edge"><title>7&#45;&gt;2</title>
<path fill="none" stroke="black" stroke-width="2" d="M121.258,-93.7427C133.439,-91.6937 148.96,-89.083 162.488,-86.8075"/>
<polygon fill="black" stroke="black" stroke-width="2" points="163.076,-90.258 172.357,-85.1476 161.915,-83.3549 163.076,-90.258"/>
</g>
<!-- 7&#45;&gt;4 -->
<g id="edge15" class="edge"><title>7&#45;&gt;4</title>
<path fill="none" stroke="black" stroke-width="2" d="M102.758,-76.1112C103.691,-68.7727 104.757,-60.3861 105.771,-52.4141"/>
<polygon fill="black" stroke="black" stroke-width="2" points="109.268,-52.6578 107.058,-42.2961 102.324,-51.7747 109.268,-52.6578"/>
</g>
<!-- 7&#45;&gt;5 -->
<g id="edge16" class="edge"><title>7&#45;&gt;5</title>
<path fill="none" stroke="black" stroke-width="2" d="M79.3458,-102.767C70.8347,-105.01 60.8092,-107.652 51.5025,-110.105"/>
<polygon fill="black" stroke="black" stroke-width="2" points="50.5695,-106.731 41.7916,-112.664 52.3534,-113.5 50.5695,-106.731"/>
</g>
</g>
</svg>

