<?xml version="1.0" encoding="UTF-8" standalone="no"?>
<!DOCTYPE svg PUBLIC "-//W3C//DTD SVG 1.1//EN"
 "http://www.w3.org/Graphics/SVG/1.1/DTD/svg11.dtd">
<!-- Generated by graphviz version 2.36.0 (20140111.2315)
 -->
<!-- Title: G Pages: 1 -->
<svg width="100%" height="100%"
 viewBox="0.00 0.00 250.37 214.58" xmlns="http://www.w3.org/2000/svg" xmlns:xlink="http://www.w3.org/1999/xlink">
<g id="graph0" class="graph" transform="scale(1 1) rotate(0) translate(4 210.578)">
<title>G</title>
<!-- 0 -->
<g id="node1" class="node"><title>0</title>
<ellipse fill="cadetblue" stroke="black" cx="21.2132" cy="-118.786" rx="21.4286" ry="21.4286"/>
<text text-anchor="middle" x="21.2132" y="-113.786" font-family="Times New Roman,serif" font-size="20.00">2</text>
</g>
<!-- 3 -->
<g id="node4" class="node"><title>3</title>
<ellipse fill="cadetblue" stroke="black" cx="36.3264" cy="-185.365" rx="21.4286" ry="21.4286"/>
<text text-anchor="middle" x="36.3264" y="-180.365" font-family="Times New Roman,serif" font-size="20.00">2</text>
</g>
<!-- 0&#45;&gt;3 -->
<g id="edge1" class="edge"><title>0&#45;&gt;3</title>
<path fill="none" stroke="black" stroke-width="2" d="M25.9123,-139.487C26.9824,-144.201 28.1422,-149.31 29.2861,-154.35"/>
<polygon fill="black" stroke="black" stroke-width="2" points="25.9513,-155.47 31.5782,-164.447 32.7776,-153.92 25.9513,-155.47"/>
</g>
<!-- 7 -->
<g id="node8" class="node"><title>7</title>
<ellipse fill="cadetblue" stroke="black" cx="83.7699" cy="-68.673" rx="21.4286" ry="21.4286"/>
<text text-anchor="middle" x="83.7699" y="-63.673" font-family="Times New Roman,serif" font-size="20.00">2</text>
</g>
<!-- 0&#45;&gt;7 -->
<g id="edge4" class="edge"><title>0&#45;&gt;7</title>
<path fill="none" stroke="black" stroke-width="2" d="M37.9773,-105.357C44.4284,-100.189 51.938,-94.173 58.9871,-88.5261"/>
<polygon fill="black" stroke="black" stroke-width="2" points="61.3432,-91.1232 66.9596,-82.1394 56.9667,-85.66 61.3432,-91.1232"/>
</g>
<!-- 1 -->
<g id="node2" class="node"><title>1</title>
<ellipse fill="cadetblue" stroke="black" cx="202.826" cy="-72.6897" rx="21.4286" ry="21.4286"/>
<text text-anchor="middle" x="202.826" y="-67.6897" font-family="Times New Roman,serif" font-size="20.00">2</text>
</g>
<!-- 4 -->
<g id="node5" class="node"><title>4</title>
<ellipse fill="cadetblue" stroke="black" cx="221.158" cy="-136.156" rx="21.4286" ry="21.4286"/>
<text text-anchor="middle" x="221.158" y="-131.156" font-family="Times New Roman,serif" font-size="20.00">2</text>
</g>
<!-- 1&#45;&gt;4 -->
<g id="edge5" class="edge"><title>1&#45;&gt;4</title>
<path fill="none" stroke="black" stroke-width="2" d="M208.727,-93.1203C209.905,-97.1969 211.165,-101.56 212.414,-105.886"/>
<polygon fill="black" stroke="black" stroke-width="2" points="209.13,-107.128 215.267,-115.764 215.855,-105.185 209.13,-107.128"/>
</g>
<!-- 2 -->
<g id="node3" class="node"><title>2</title>
<ellipse fill="cadetblue" stroke="black" cx="160.947" cy="-21.2132" rx="21.4286" ry="21.4286"/>
<text text-anchor="middle" x="160.947" y="-16.2132" font-family="Times New Roman,serif" font-size="20.00">2</text>
</g>
<!-- 6 -->
<g id="node7" class="node"><title>6</title>
<ellipse fill="brown" stroke="black" cx="113.124" cy="-120.708" rx="21.4286" ry="21.4286"/>
<text text-anchor="middle" x="113.124" y="-115.708" font-family="Times New Roman,serif" font-size="20.00">3</text>
</g>
<!-- 2&#45;&gt;6 -->
<g id="edge9" class="edge"><title>2&#45;&gt;6</title>
<path fill="none" stroke="black" stroke-width="2" d="M151.726,-40.3969C144.647,-55.1247 134.763,-75.6877 126.769,-92.3193"/>
<polygon fill="black" stroke="black" stroke-width="2" points="123.494,-91.0544 122.316,-101.584 129.803,-94.0869 123.494,-91.0544"/>
</g>
<!-- 3&#45;&gt;7 -->
<g id="edge12" class="edge"><title>3&#45;&gt;7</title>
<path fill="none" stroke="black" stroke-width="2" d="M44.3745,-165.569C51.906,-147.045 63.2529,-119.136 71.8376,-98.0217"/>
<polygon fill="black" stroke="black" stroke-width="2" points="75.1582,-99.1471 75.6823,-88.5653 68.6736,-96.5106 75.1582,-99.1471"/>
</g>
<!-- 4&#45;&gt;2 -->
<g id="edge8" class="edge"><title>4&#45;&gt;2</title>
<path fill="none" stroke="black" stroke-width="2" d="M206.195,-120.397C198.901,-112.153 190.382,-101.629 184.158,-91.2218 176.95,-79.1683 171.658,-64.5925 167.963,-51.8682"/>
<polygon fill="black" stroke="black" stroke-width="2" points="171.323,-50.8852 165.336,-42.1441 164.565,-52.7108 171.323,-50.8852"/>
</g>
<!-- 4&#45;&gt;6 -->
<g id="edge14" class="edge"><title>4&#45;&gt;6</title>
<path fill="none" stroke="black" stroke-width="2" d="M200.071,-133.141C184.158,-130.866 162.08,-127.709 144.154,-125.145"/>
<polygon fill="black" stroke="black" stroke-width="2" points="144.552,-121.667 134.157,-123.716 143.561,-128.596 144.552,-121.667"/>
</g>
<!-- 5 -->
<g id="node6" class="node"><title>5</title>
<ellipse fill="cadetblue" stroke="black" cx="140.957" cy="-171.14" rx="21.4286" ry="21.4286"/>
<text text-anchor="middle" x="140.957" y="-166.14" font-family="Times New Roman,serif" font-size="20.00">2</text>
</g>
<!-- 5&#45;&gt;0 -->
<g id="edge2" class="edge"><title>5&#45;&gt;0</title>
<path fill="none" stroke="black" stroke-width="2" d="M121.452,-162.612C102.055,-154.131 72.0778,-141.025 49.9556,-131.353"/>
<polygon fill="black" stroke="black" stroke-width="2" points="51.275,-128.11 40.7103,-127.31 48.4707,-134.523 51.275,-128.11"/>
</g>
<!-- 5&#45;&gt;1 -->
<g id="edge6" class="edge"><title>5&#45;&gt;1</title>
<path fill="none" stroke="black" stroke-width="2" d="M152.305,-153.083C161.665,-138.188 175.089,-116.827 185.747,-99.8664"/>
<polygon fill="black" stroke="black" stroke-width="2" points="188.983,-101.295 191.341,-90.9659 183.056,-97.5705 188.983,-101.295"/>
</g>
<!-- 5&#45;&gt;4 -->
<g id="edge13" class="edge"><title>5&#45;&gt;4</title>
<path fill="none" stroke="black" stroke-width="2" d="M160.782,-162.492C170.3,-158.34 181.886,-153.287 192.353,-148.721"/>
<polygon fill="black" stroke="black" stroke-width="2" points="193.794,-151.911 201.561,-144.704 190.995,-145.495 193.794,-151.911"/>
</g>
<!-- 6&#45;&gt;0 -->
<g id="edge3" class="edge"><title>6&#45;&gt;0</title>
<path fill="none" stroke="black" stroke-width="2" d="M91.8068,-120.262C80.2893,-120.022 65.8405,-119.719 53.0197,-119.451"/>
<polygon fill="black" stroke="black" stroke-width="2" points="52.8042,-115.946 42.7332,-119.236 52.6578,-122.945 52.8042,-115.946"/>
</g>
<!-- 6&#45;&gt;3 -->
<g id="edge11" class="edge"><title>6&#45;&gt;3</title>
<path fill="none" stroke="black" stroke-width="2" d="M96.8372,-134.42C86.248,-143.335 72.2556,-155.116 60.3935,-165.102"/>
<polygon fill="black" stroke="black" stroke-width="2" points="57.9854,-162.554 52.5897,-171.672 62.4938,-167.909 57.9854,-162.554"/>
</g>
<!-- 6&#45;&gt;5 -->
<g id="edge15" class="edge"><title>6&#45;&gt;5</title>
<path fill="none" stroke="black" stroke-width="2" d="M123.488,-139.487C124.222,-140.817 124.97,-142.173 125.724,-143.538"/>
<polygon fill="black" stroke="black" stroke-width="2" points="122.781,-145.449 130.677,-152.513 128.909,-142.067 122.781,-145.449"/>
</g>
<!-- 7&#45;&gt;1 -->
<g id="edge7" class="edge"><title>7&#45;&gt;1</title>
<path fill="none" stroke="black" stroke-width="2" d="M105.055,-69.3911C123.479,-70.0127 150.378,-70.9203 171.301,-71.6261"/>
<polygon fill="black" stroke="black" stroke-width="2" points="171.212,-75.125 181.324,-71.9643 171.448,-68.129 171.212,-75.125"/>
</g>
<!-- 7&#45;&gt;2 -->
<g id="edge10" class="edge"><title>7&#45;&gt;2</title>
<path fill="none" stroke="black" stroke-width="2" d="M102.06,-57.4257C111.671,-51.5152 123.631,-44.1603 134.257,-37.6259"/>
<polygon fill="black" stroke="black" stroke-width="2" points="136.104,-40.5995 142.788,-32.3798 132.437,-34.6367 136.104,-40.5995"/>
</g>
<!-- 7&#45;&gt;5 -->
<g id="edge16" class="edge"><title>7&#45;&gt;5</title>
<path fill="none" stroke="black" stroke-width="2" d="M81.6672,-90.0691C81.3314,-105.372 83.4214,-125.602 94.5018,-139.286 99.694,-145.699 106.51,-151.344 113.315,-156.032"/>
<polygon fill="black" stroke="black" stroke-width="2" points="111.493,-159.021 121.807,-161.444 115.255,-153.118 111.493,-159.021"/>
</g>
<!-- 7&#45;&gt;6 -->
<g id="edge17" class="edge"><title>7&#45;&gt;6</title>
<path fill="none" stroke="black" stroke-width="2" d="M94.2017,-87.1652C95.2996,-89.1115 96.4322,-91.1192 97.5718,-93.1394"/>
<polygon fill="black" stroke="black" stroke-width="2" points="94.566,-94.9346 102.528,-101.925 100.663,-91.4953 94.566,-94.9346"/>
</g>
</g>
</svg>

