<?xml version="1.0" encoding="UTF-8" standalone="no"?>
<!DOCTYPE svg PUBLIC "-//W3C//DTD SVG 1.1//EN"
 "http://www.w3.org/Graphics/SVG/1.1/DTD/svg11.dtd">
<!-- Generated by graphviz version 2.36.0 (20140111.2315)
 -->
<!-- Title: G Pages: 1 -->
<svg width="100%" height="100%"
 viewBox="0.00 0.00 196.05 247.77" xmlns="http://www.w3.org/2000/svg" xmlns:xlink="http://www.w3.org/1999/xlink">
<g id="graph0" class="graph" transform="scale(1 1) rotate(0) translate(4 243.768)">
<title>G</title>
<!-- 0 -->
<g id="node1" class="node"><title>0</title>
<ellipse fill="cadetblue" stroke="black" cx="21.2132" cy="-168.075" rx="21.4286" ry="21.4286"/>
<text text-anchor="middle" x="21.2132" y="-163.075" font-family="Times New Roman,serif" font-size="20.00">2</text>
</g>
<!-- 6 -->
<g id="node7" class="node"><title>6</title>
<ellipse fill="cadetblue" stroke="black" cx="30.6155" cy="-83.5896" rx="21.4286" ry="21.4286"/>
<text text-anchor="middle" x="30.6155" y="-78.5896" font-family="Times New Roman,serif" font-size="20.00">2</text>
</g>
<!-- 0&#45;&gt;6 -->
<g id="edge3" class="edge"><title>0&#45;&gt;6</title>
<path fill="none" stroke="black" stroke-width="2" d="M23.5858,-146.755C24.6548,-137.15 25.9387,-125.614 27.1151,-115.043"/>
<polygon fill="black" stroke="black" stroke-width="2" points="30.616,-115.228 28.2437,-104.902 23.659,-114.453 30.616,-115.228"/>
</g>
<!-- 7 -->
<g id="node8" class="node"><title>7</title>
<ellipse fill="cadetblue" stroke="black" cx="88.973" cy="-110.806" rx="21.4286" ry="21.4286"/>
<text text-anchor="middle" x="88.973" y="-105.806" font-family="Times New Roman,serif" font-size="20.00">2</text>
</g>
<!-- 0&#45;&gt;7 -->
<g id="edge4" class="edge"><title>0&#45;&gt;7</title>
<path fill="none" stroke="black" stroke-width="2" d="M37.616,-154.211C45.8558,-147.247 55.9949,-138.678 65.0814,-130.998"/>
<polygon fill="black" stroke="black" stroke-width="2" points="67.343,-133.67 72.7213,-124.541 62.8245,-128.323 67.343,-133.67"/>
</g>
<!-- 1 -->
<g id="node2" class="node"><title>1</title>
<ellipse fill="cadetblue" stroke="black" cx="71.4029" cy="-21.2132" rx="21.4286" ry="21.4286"/>
<text text-anchor="middle" x="71.4029" y="-16.2132" font-family="Times New Roman,serif" font-size="20.00">2</text>
</g>
<!-- 1&#45;&gt;7 -->
<g id="edge7" class="edge"><title>1&#45;&gt;7</title>
<path fill="none" stroke="black" stroke-width="2" d="M75.5668,-42.4454C77.7549,-53.6031 80.4778,-67.4873 82.8968,-79.8226"/>
<polygon fill="black" stroke="black" stroke-width="2" points="79.4799,-80.5866 84.839,-89.726 86.3491,-79.2394 79.4799,-80.5866"/>
</g>
<!-- 2 -->
<g id="node3" class="node"><title>2</title>
<ellipse fill="cadetblue" stroke="black" cx="123.207" cy="-27.7645" rx="21.4286" ry="21.4286"/>
<text text-anchor="middle" x="123.207" y="-22.7645" font-family="Times New Roman,serif" font-size="20.00">2</text>
</g>
<!-- 4 -->
<g id="node5" class="node"><title>4</title>
<ellipse fill="cadetblue" stroke="black" cx="166.837" cy="-82.6953" rx="21.4286" ry="21.4286"/>
<text text-anchor="middle" x="166.837" y="-77.6953" font-family="Times New Roman,serif" font-size="20.00">2</text>
</g>
<!-- 2&#45;&gt;4 -->
<g id="edge8" class="edge"><title>2&#45;&gt;4</title>
<path fill="none" stroke="black" stroke-width="2" d="M136.535,-44.544C139.918,-48.8034 143.623,-53.469 147.247,-58.0305"/>
<polygon fill="black" stroke="black" stroke-width="2" points="144.631,-60.3648 153.591,-66.0185 150.112,-56.0111 144.631,-60.3648"/>
</g>
<!-- 3 -->
<g id="node4" class="node"><title>3</title>
<ellipse fill="cadetblue" stroke="black" cx="81.4809" cy="-218.555" rx="21.4286" ry="21.4286"/>
<text text-anchor="middle" x="81.4809" y="-213.555" font-family="Times New Roman,serif" font-size="20.00">2</text>
</g>
<!-- 3&#45;&gt;0 -->
<g id="edge1" class="edge"><title>3&#45;&gt;0</title>
<path fill="none" stroke="black" stroke-width="2" d="M65.0125,-204.761C59.0332,-199.753 52.1432,-193.982 45.6242,-188.521"/>
<polygon fill="black" stroke="black" stroke-width="2" points="47.5752,-185.59 37.6617,-181.852 43.0804,-190.956 47.5752,-185.59"/>
</g>
<!-- 4&#45;&gt;1 -->
<g id="edge5" class="edge"><title>4&#45;&gt;1</title>
<path fill="none" stroke="black" stroke-width="2" d="M147.957,-72.4459C135.426,-65.4554 118.74,-55.7846 104.58,-46.337 101.959,-44.589 99.2697,-42.7078 96.6099,-40.7894"/>
<polygon fill="black" stroke="black" stroke-width="2" points="98.4546,-37.7999 88.338,-34.6525 94.2837,-43.4217 98.4546,-37.7999"/>
</g>
<!-- 5 -->
<g id="node6" class="node"><title>5</title>
<ellipse fill="cadetblue" stroke="black" cx="115.372" cy="-161.237" rx="21.4286" ry="21.4286"/>
<text text-anchor="middle" x="115.372" y="-156.237" font-family="Times New Roman,serif" font-size="20.00">2</text>
</g>
<!-- 4&#45;&gt;5 -->
<g id="edge13" class="edge"><title>4&#45;&gt;5</title>
<path fill="none" stroke="black" stroke-width="2" d="M155.159,-100.518C148.513,-110.66 140.063,-123.556 132.661,-134.852"/>
<polygon fill="black" stroke="black" stroke-width="2" points="129.557,-133.203 127.004,-143.485 135.412,-137.039 129.557,-133.203"/>
</g>
<!-- 5&#45;&gt;0 -->
<g id="edge2" class="edge"><title>5&#45;&gt;0</title>
<path fill="none" stroke="black" stroke-width="2" d="M94.0056,-162.789C81.8464,-163.672 66.3864,-164.794 52.8443,-165.778"/>
<polygon fill="black" stroke="black" stroke-width="2" points="52.2149,-162.314 42.4946,-166.529 52.7219,-169.296 52.2149,-162.314"/>
</g>
<!-- 5&#45;&gt;3 -->
<g id="edge11" class="edge"><title>5&#45;&gt;3</title>
<path fill="none" stroke="black" stroke-width="2" d="M104.462,-179.688C102.285,-183.37 99.9551,-187.31 97.6448,-191.218"/>
<polygon fill="black" stroke="black" stroke-width="2" points="94.4472,-189.749 92.3702,-200.138 100.473,-193.312 94.4472,-189.749"/>
</g>
<!-- 6&#45;&gt;1 -->
<g id="edge6" class="edge"><title>6&#45;&gt;1</title>
<path fill="none" stroke="black" stroke-width="2" d="M42.4129,-65.5478C46.0802,-59.9393 50.2015,-53.6365 54.1605,-47.5821"/>
<polygon fill="black" stroke="black" stroke-width="2" points="57.2294,-49.2841 59.7728,-38.9991 51.3707,-45.4531 57.2294,-49.2841"/>
</g>
<!-- 6&#45;&gt;2 -->
<g id="edge9" class="edge"><title>6&#45;&gt;2</title>
<path fill="none" stroke="black" stroke-width="2" d="M48.9086,-72.5603C62.3511,-64.4556 80.8392,-53.3088 96.0096,-44.1622"/>
<polygon fill="black" stroke="black" stroke-width="2" points="98.1951,-46.9315 104.952,-38.7708 94.5807,-40.9368 98.1951,-46.9315"/>
</g>
<!-- 6&#45;&gt;5 -->
<g id="edge15" class="edge"><title>6&#45;&gt;5</title>
<path fill="none" stroke="black" stroke-width="2" d="M43.7047,-100.579C51.0623,-109.616 60.6924,-120.639 70.3722,-129.405 76.0291,-134.528 82.5285,-139.548 88.7966,-144.032"/>
<polygon fill="black" stroke="black" stroke-width="2" points="86.8841,-146.965 97.0996,-149.775 90.8658,-141.208 86.8841,-146.965"/>
</g>
<!-- 7&#45;&gt;2 -->
<g id="edge10" class="edge"><title>7&#45;&gt;2</title>
<path fill="none" stroke="black" stroke-width="2" d="M97.086,-91.1262C101.276,-80.962 106.473,-68.3567 111.125,-57.0725"/>
<polygon fill="black" stroke="black" stroke-width="2" points="114.458,-58.1698 115.034,-47.5906 107.986,-55.5019 114.458,-58.1698"/>
</g>
<!-- 7&#45;&gt;3 -->
<g id="edge12" class="edge"><title>7&#45;&gt;3</title>
<path fill="none" stroke="black" stroke-width="2" d="M87.4928,-132.094C86.4051,-147.737 84.9091,-169.251 83.6816,-186.905"/>
<polygon fill="black" stroke="black" stroke-width="2" points="80.1602,-187.093 82.958,-197.311 87.1433,-187.578 80.1602,-187.093"/>
</g>
<!-- 7&#45;&gt;4 -->
<g id="edge14" class="edge"><title>7&#45;&gt;4</title>
<path fill="none" stroke="black" stroke-width="2" d="M109.025,-103.567C117.653,-100.452 127.914,-96.7474 137.379,-93.3302"/>
<polygon fill="black" stroke="black" stroke-width="2" points="138.636,-96.5977 146.853,-89.9099 136.259,-90.0136 138.636,-96.5977"/>
</g>
<!-- 7&#45;&gt;6 -->
<g id="edge16" class="edge"><title>7&#45;&gt;6</title>
<path fill="none" stroke="black" stroke-width="2" d="M69.5408,-101.743C66.2293,-100.199 62.7285,-98.5662 59.2384,-96.9385"/>
<polygon fill="black" stroke="black" stroke-width="2" points="60.704,-93.7601 50.1618,-92.7054 57.7453,-100.104 60.704,-93.7601"/>
</g>
</g>
</svg>

