<?xml version="1.0" encoding="UTF-8" standalone="no"?>
<!DOCTYPE svg PUBLIC "-//W3C//DTD SVG 1.1//EN"
 "http://www.w3.org/Graphics/SVG/1.1/DTD/svg11.dtd">
<!-- Generated by graphviz version 2.36.0 (20140111.2315)
 -->
<!-- Title: G Pages: 1 -->
<svg width="100%" height="100%"
 viewBox="0.00 0.00 259.22 192.88" xmlns="http://www.w3.org/2000/svg" xmlns:xlink="http://www.w3.org/1999/xlink">
<g id="graph0" class="graph" transform="scale(1 1) rotate(0) translate(4 188.878)">
<title>G</title>
<!-- 0 -->
<g id="node1" class="node"><title>0</title>
<ellipse fill="cadetblue" stroke="black" cx="49.6369" cy="-81.0214" rx="21.4286" ry="21.4286"/>
<text text-anchor="middle" x="49.6369" y="-76.0214" font-family="Times New Roman,serif" font-size="20.00">2</text>
</g>
<!-- 6 -->
<g id="node7" class="node"><title>6</title>
<ellipse fill="cadetblue" stroke="black" cx="152.156" cy="-91.5327" rx="21.4286" ry="21.4286"/>
<text text-anchor="middle" x="152.156" y="-86.5327" font-family="Times New Roman,serif" font-size="20.00">2</text>
</g>
<!-- 0&#45;&gt;6 -->
<g id="edge3" class="edge"><title>0&#45;&gt;6</title>
<path fill="none" stroke="black" stroke-width="2" d="M70.3268,-74.8176C79.8459,-72.6398 91.314,-70.9635 101.725,-71.9978 109.007,-72.7212 116.529,-74.8147 123.471,-77.3771"/>
<polygon fill="black" stroke="black" stroke-width="2" points="122.55,-80.7834 133.129,-81.3617 125.22,-74.3124 122.55,-80.7834"/>
</g>
<!-- 7 -->
<g id="node8" class="node"><title>7</title>
<ellipse fill="brown" stroke="black" cx="101.724" cy="-98.3022" rx="21.4286" ry="21.4286"/>
<text text-anchor="middle" x="101.724" y="-93.3022" font-family="Times New Roman,serif" font-size="20.00">3</text>
</g>
<!-- 0&#45;&gt;7 -->
<g id="edge4" class="edge"><title>0&#45;&gt;7</title>
<path fill="none" stroke="black" stroke-width="2" d="M69.9244,-87.7521C70.5135,-87.9475 71.1068,-88.1444 71.7029,-88.3421"/>
<polygon fill="black" stroke="black" stroke-width="2" points="70.813,-91.7344 81.4064,-91.5614 73.0173,-85.0905 70.813,-91.7344"/>
</g>
<!-- 1 -->
<g id="node2" class="node"><title>1</title>
<ellipse fill="cadetblue" stroke="black" cx="179.991" cy="-156.972" rx="21.4286" ry="21.4286"/>
<text text-anchor="middle" x="179.991" y="-151.972" font-family="Times New Roman,serif" font-size="20.00">2</text>
</g>
<!-- 1&#45;&gt;6 -->
<g id="edge7" class="edge"><title>1&#45;&gt;6</title>
<path fill="none" stroke="black" stroke-width="2" d="M171.64,-137.338C169.383,-132.032 166.892,-126.176 164.467,-120.476"/>
<polygon fill="black" stroke="black" stroke-width="2" points="167.637,-118.985 160.501,-111.153 161.195,-121.725 167.637,-118.985"/>
</g>
<!-- 1&#45;&gt;7 -->
<g id="edge8" class="edge"><title>1&#45;&gt;7</title>
<path fill="none" stroke="black" stroke-width="2" d="M163.009,-144.241C152.517,-136.377 138.858,-126.138 127.099,-117.323"/>
<polygon fill="black" stroke="black" stroke-width="2" points="129.045,-114.408 118.944,-111.21 124.846,-120.009 129.045,-114.408"/>
</g>
<!-- 2 -->
<g id="node3" class="node"><title>2</title>
<ellipse fill="cadetblue" stroke="black" cx="162.84" cy="-21.2132" rx="21.4286" ry="21.4286"/>
<text text-anchor="middle" x="162.84" y="-16.2132" font-family="Times New Roman,serif" font-size="20.00">2</text>
</g>
<!-- 4 -->
<g id="node5" class="node"><title>4</title>
<ellipse fill="cadetblue" stroke="black" cx="230.008" cy="-80.2528" rx="21.4286" ry="21.4286"/>
<text text-anchor="middle" x="230.008" y="-75.2528" font-family="Times New Roman,serif" font-size="20.00">2</text>
</g>
<!-- 2&#45;&gt;4 -->
<g id="edge9" class="edge"><title>2&#45;&gt;4</title>
<path fill="none" stroke="black" stroke-width="2" d="M179.099,-35.505C187.267,-42.6845 197.318,-51.5188 206.325,-59.4359"/>
<polygon fill="black" stroke="black" stroke-width="2" points="204.076,-62.1194 213.898,-66.0926 208.698,-56.8618 204.076,-62.1194"/>
</g>
<!-- 3 -->
<g id="node4" class="node"><title>3</title>
<ellipse fill="cadetblue" stroke="black" cx="21.2132" cy="-147.503" rx="21.4286" ry="21.4286"/>
<text text-anchor="middle" x="21.2132" y="-142.503" font-family="Times New Roman,serif" font-size="20.00">2</text>
</g>
<!-- 3&#45;&gt;0 -->
<g id="edge1" class="edge"><title>3&#45;&gt;0</title>
<path fill="none" stroke="black" stroke-width="2" d="M29.5875,-127.916C31.9947,-122.285 34.6724,-116.022 37.2667,-109.954"/>
<polygon fill="black" stroke="black" stroke-width="2" points="40.5111,-111.269 41.2242,-100.698 34.0747,-108.517 40.5111,-111.269"/>
</g>
<!-- 4&#45;&gt;1 -->
<g id="edge5" class="edge"><title>4&#45;&gt;1</title>
<path fill="none" stroke="black" stroke-width="2" d="M218.407,-98.0465C212.14,-107.66 204.277,-119.721 197.3,-130.423"/>
<polygon fill="black" stroke="black" stroke-width="2" points="194.232,-128.72 191.702,-139.009 200.096,-132.543 194.232,-128.72"/>
</g>
<!-- 5 -->
<g id="node6" class="node"><title>5</title>
<ellipse fill="cadetblue" stroke="black" cx="97.49" cy="-163.665" rx="21.4286" ry="21.4286"/>
<text text-anchor="middle" x="97.49" y="-158.665" font-family="Times New Roman,serif" font-size="20.00">2</text>
</g>
<!-- 5&#45;&gt;0 -->
<g id="edge2" class="edge"><title>5&#45;&gt;0</title>
<path fill="none" stroke="black" stroke-width="2" d="M86.6314,-144.912C80.3467,-134.058 72.3269,-120.208 65.362,-108.179"/>
<polygon fill="black" stroke="black" stroke-width="2" points="68.3275,-106.316 60.2877,-99.4156 62.2697,-109.823 68.3275,-106.316"/>
</g>
<!-- 5&#45;&gt;1 -->
<g id="edge6" class="edge"><title>5&#45;&gt;1</title>
<path fill="none" stroke="black" stroke-width="2" d="M118.736,-161.941C127.878,-161.2 138.75,-160.318 148.779,-159.504"/>
<polygon fill="black" stroke="black" stroke-width="2" points="149.133,-162.987 158.817,-158.69 148.567,-156.01 149.133,-162.987"/>
</g>
<!-- 5&#45;&gt;3 -->
<g id="edge12" class="edge"><title>5&#45;&gt;3</title>
<path fill="none" stroke="black" stroke-width="2" d="M76.647,-159.249C68.9954,-157.627 60.1653,-155.756 51.8337,-153.991"/>
<polygon fill="black" stroke="black" stroke-width="2" points="52.5393,-150.563 42.031,-151.914 51.0882,-157.411 52.5393,-150.563"/>
</g>
<!-- 6&#45;&gt;2 -->
<g id="edge10" class="edge"><title>6&#45;&gt;2</title>
<path fill="none" stroke="black" stroke-width="2" d="M155.361,-70.4345C156.228,-64.7329 157.184,-58.4405 158.114,-52.3148"/>
<polygon fill="black" stroke="black" stroke-width="2" points="161.595,-52.7088 159.637,-42.2965 154.674,-51.6572 161.595,-52.7088"/>
</g>
<!-- 6&#45;&gt;4 -->
<g id="edge14" class="edge"><title>6&#45;&gt;4</title>
<path fill="none" stroke="black" stroke-width="2" d="M173.429,-88.4504C181.239,-87.3189 190.251,-86.0131 198.755,-84.781"/>
<polygon fill="black" stroke="black" stroke-width="2" points="199.365,-88.2292 208.76,-83.3314 198.362,-81.3015 199.365,-88.2292"/>
</g>
<!-- 6&#45;&gt;5 -->
<g id="edge15" class="edge"><title>6&#45;&gt;5</title>
<path fill="none" stroke="black" stroke-width="2" d="M139.201,-108.627C132.393,-117.61 123.921,-128.789 116.395,-138.72"/>
<polygon fill="black" stroke="black" stroke-width="2" points="113.603,-136.609 110.352,-146.693 119.181,-140.838 113.603,-136.609"/>
</g>
<!-- 6&#45;&gt;7 -->
<g id="edge17" class="edge"><title>6&#45;&gt;7</title>
<path fill="none" stroke="black" stroke-width="2" d="M131.06,-94.3643C130.976,-94.3756 130.892,-94.387 130.807,-94.3983"/>
<polygon fill="black" stroke="black" stroke-width="2" points="132.343,-90.6607 122.897,-95.4601 133.274,-97.5985 132.343,-90.6607"/>
</g>
<!-- 7&#45;&gt;2 -->
<g id="edge11" class="edge"><title>7&#45;&gt;2</title>
<path fill="none" stroke="black" stroke-width="2" d="M114.985,-81.575C123.234,-71.1701 133.991,-57.6024 143.216,-45.9664"/>
<polygon fill="black" stroke="black" stroke-width="2" points="146.135,-47.9183 149.605,-37.9077 140.649,-43.5695 146.135,-47.9183"/>
</g>
<!-- 7&#45;&gt;3 -->
<g id="edge13" class="edge"><title>7&#45;&gt;3</title>
<path fill="none" stroke="black" stroke-width="2" d="M83.455,-109.466C73.0583,-115.82 59.839,-123.898 48.2597,-130.974"/>
<polygon fill="black" stroke="black" stroke-width="2" points="46.1179,-128.181 39.4101,-136.382 49.768,-134.154 46.1179,-128.181"/>
</g>
<!-- 7&#45;&gt;5 -->
<g id="edge16" class="edge"><title>7&#45;&gt;5</title>
<path fill="none" stroke="black" stroke-width="2" d="M100.338,-119.704C100.079,-123.695 99.8042,-127.942 99.5308,-132.162"/>
<polygon fill="black" stroke="black" stroke-width="2" points="96.0189,-132.233 98.8651,-142.438 103.004,-132.685 96.0189,-132.233"/>
</g>
</g>
</svg>

