<?xml version="1.0" encoding="UTF-8" standalone="no"?>
<!DOCTYPE svg PUBLIC "-//W3C//DTD SVG 1.1//EN"
 "http://www.w3.org/Graphics/SVG/1.1/DTD/svg11.dtd">
<!-- Generated by graphviz version 2.36.0 (20140111.2315)
 -->
<!-- Title: G Pages: 1 -->
<svg width="100%" height="100%"
 viewBox="0.00 0.00 360.61 307.90" xmlns="http://www.w3.org/2000/svg" xmlns:xlink="http://www.w3.org/1999/xlink">
<g id="graph0" class="graph" transform="scale(1 1) rotate(0) translate(4 303.905)">
<title>G</title>
<!-- 0 -->
<g id="node1" class="node"><title>0</title>
<ellipse fill="cadetblue" stroke="black" cx="21.2132" cy="-166.388" rx="21.4286" ry="21.4286"/>
<text text-anchor="middle" x="21.2132" y="-161.388" font-family="Times New Roman,serif" font-size="20.00">2</text>
</g>
<!-- 7 -->
<g id="node8" class="node"><title>7</title>
<ellipse fill="brown" stroke="black" cx="142.577" cy="-105.775" rx="21.4286" ry="21.4286"/>
<text text-anchor="middle" x="142.577" y="-100.775" font-family="Times New Roman,serif" font-size="20.00">3</text>
</g>
<!-- 0&#45;&gt;7 -->
<g id="edge3" class="edge"><title>0&#45;&gt;7</title>
<path fill="none" stroke="black" stroke-width="2" d="M40.4436,-156.784C60.328,-146.853 91.5872,-131.241 114.289,-119.903"/>
<polygon fill="black" stroke="black" stroke-width="2" points="116.054,-122.934 123.436,-115.335 112.926,-116.672 116.054,-122.934"/>
</g>
<!-- 1 -->
<g id="node2" class="node"><title>1</title>
<ellipse fill="cadetblue" stroke="black" cx="225.966" cy="-21.2132" rx="21.4286" ry="21.4286"/>
<text text-anchor="middle" x="225.966" y="-16.2132" font-family="Times New Roman,serif" font-size="20.00">2</text>
</g>
<!-- 4 -->
<g id="node5" class="node"><title>4</title>
<ellipse fill="cadetblue" stroke="black" cx="331.393" cy="-141.012" rx="21.4286" ry="21.4286"/>
<text text-anchor="middle" x="331.393" y="-136.012" font-family="Times New Roman,serif" font-size="20.00">2</text>
</g>
<!-- 1&#45;&gt;4 -->
<g id="edge4" class="edge"><title>1&#45;&gt;4</title>
<path fill="none" stroke="black" stroke-width="2" d="M240.184,-37.3698C258.262,-57.9121 289.622,-93.5463 310.441,-117.204"/>
<polygon fill="black" stroke="black" stroke-width="2" points="307.829,-119.534 317.063,-124.729 313.084,-114.91 307.829,-119.534"/>
</g>
<!-- 1&#45;&gt;7 -->
<g id="edge7" class="edge"><title>1&#45;&gt;7</title>
<path fill="none" stroke="black" stroke-width="2" d="M211.058,-36.3312C198.212,-49.3575 179.484,-68.349 164.859,-83.1802"/>
<polygon fill="black" stroke="black" stroke-width="2" points="162.167,-80.9253 157.637,-90.5031 167.151,-85.8404 162.167,-80.9253"/>
</g>
<!-- 2 -->
<g id="node3" class="node"><title>2</title>
<ellipse fill="cadetblue" stroke="black" cx="302.28" cy="-53.2738" rx="21.4286" ry="21.4286"/>
<text text-anchor="middle" x="302.28" y="-48.2738" font-family="Times New Roman,serif" font-size="20.00">2</text>
</g>
<!-- 6 -->
<g id="node7" class="node"><title>6</title>
<ellipse fill="dodgerblue" stroke="black" cx="255.522" cy="-214.433" rx="21.4286" ry="21.4286"/>
<text text-anchor="middle" x="255.522" y="-209.433" font-family="Times New Roman,serif" font-size="20.00">4</text>
</g>
<!-- 2&#45;&gt;6 -->
<g id="edge10" class="edge"><title>2&#45;&gt;6</title>
<path fill="none" stroke="black" stroke-width="2" d="M296.358,-73.6848C288.265,-101.581 273.686,-151.829 264.315,-184.129"/>
<polygon fill="black" stroke="black" stroke-width="2" points="260.895,-183.355 261.47,-193.934 267.618,-185.306 260.895,-183.355"/>
</g>
<!-- 2&#45;&gt;7 -->
<g id="edge11" class="edge"><title>2&#45;&gt;7</title>
<path fill="none" stroke="black" stroke-width="2" d="M282.054,-59.9232C254.41,-69.011 204.616,-85.3805 172.607,-95.903"/>
<polygon fill="black" stroke="black" stroke-width="2" points="171.297,-92.6493 162.891,-99.0973 173.484,-99.2992 171.297,-92.6493"/>
</g>
<!-- 3 -->
<g id="node4" class="node"><title>3</title>
<ellipse fill="cadetblue" stroke="black" cx="106.107" cy="-278.692" rx="21.4286" ry="21.4286"/>
<text text-anchor="middle" x="106.107" y="-273.692" font-family="Times New Roman,serif" font-size="20.00">2</text>
</g>
<!-- 3&#45;&gt;0 -->
<g id="edge1" class="edge"><title>3&#45;&gt;0</title>
<path fill="none" stroke="black" stroke-width="2" d="M93.2137,-261.635C79.1273,-243.001 56.4205,-212.963 40.2753,-191.605"/>
<polygon fill="black" stroke="black" stroke-width="2" points="43.0505,-189.472 34.2281,-183.605 37.4664,-193.693 43.0505,-189.472"/>
</g>
<!-- 4&#45;&gt;2 -->
<g id="edge8" class="edge"><title>4&#45;&gt;2</title>
<path fill="none" stroke="black" stroke-width="2" d="M324.641,-120.663C320.966,-109.589 316.35,-95.6765 312.267,-83.3724"/>
<polygon fill="black" stroke="black" stroke-width="2" points="315.467,-81.9018 308.996,-73.5129 308.823,-84.1063 315.467,-81.9018"/>
</g>
<!-- 5 -->
<g id="node6" class="node"><title>5</title>
<ellipse fill="cadetblue" stroke="black" cx="193.008" cy="-150.74" rx="21.4286" ry="21.4286"/>
<text text-anchor="middle" x="193.008" y="-145.74" font-family="Times New Roman,serif" font-size="20.00">2</text>
</g>
<!-- 4&#45;&gt;5 -->
<g id="edge14" class="edge"><title>4&#45;&gt;5</title>
<path fill="none" stroke="black" stroke-width="2" d="M310.074,-142.511C287.284,-144.113 250.905,-146.67 224.747,-148.509"/>
<polygon fill="black" stroke="black" stroke-width="2" points="224.31,-145.031 214.58,-149.224 224.801,-152.014 224.31,-145.031"/>
</g>
<!-- 4&#45;&gt;6 -->
<g id="edge15" class="edge"><title>4&#45;&gt;6</title>
<path fill="none" stroke="black" stroke-width="2" d="M316.039,-155.87C305.139,-166.419 290.326,-180.753 278.085,-192.599"/>
<polygon fill="black" stroke="black" stroke-width="2" points="275.605,-190.128 270.853,-199.598 280.473,-195.159 275.605,-190.128"/>
</g>
<!-- 5&#45;&gt;0 -->
<g id="edge2" class="edge"><title>5&#45;&gt;0</title>
<path fill="none" stroke="black" stroke-width="2" d="M171.598,-152.69C141.6,-155.423 86.8766,-160.407 52.3656,-163.551"/>
<polygon fill="black" stroke="black" stroke-width="2" points="51.9952,-160.07 42.354,-164.463 52.6303,-167.041 51.9952,-160.07"/>
</g>
<!-- 5&#45;&gt;1 -->
<g id="edge5" class="edge"><title>5&#45;&gt;1</title>
<path fill="none" stroke="black" stroke-width="2" d="M198.303,-129.929C203.685,-108.78 212.079,-75.7889 218.21,-51.6937"/>
<polygon fill="black" stroke="black" stroke-width="2" points="221.61,-52.5266 220.684,-41.9723 214.826,-50.8004 221.61,-52.5266"/>
</g>
<!-- 5&#45;&gt;2 -->
<g id="edge9" class="edge"><title>5&#45;&gt;2</title>
<path fill="none" stroke="black" stroke-width="2" d="M209.132,-136.359C227.556,-119.925 257.87,-92.8863 278.889,-74.1377"/>
<polygon fill="black" stroke="black" stroke-width="2" points="281.313,-76.6658 286.446,-67.3974 276.654,-71.4419 281.313,-76.6658"/>
</g>
<!-- 5&#45;&gt;6 -->
<g id="edge17" class="edge"><title>5&#45;&gt;6</title>
<path fill="none" stroke="black" stroke-width="2" d="M208.141,-166.158C215.743,-173.904 225.097,-183.434 233.48,-191.976"/>
<polygon fill="black" stroke="black" stroke-width="2" points="231.026,-194.472 240.529,-199.157 236.022,-189.569 231.026,-194.472"/>
</g>
<!-- 6&#45;&gt;1 -->
<g id="edge6" class="edge"><title>6&#45;&gt;1</title>
<path fill="none" stroke="black" stroke-width="2" d="M252.303,-193.388C247.084,-159.269 236.751,-91.7214 230.696,-52.1326"/>
<polygon fill="black" stroke="black" stroke-width="2" points="234.153,-51.5888 229.181,-42.233 227.234,-52.6473 234.153,-51.5888"/>
</g>
<!-- 6&#45;&gt;3 -->
<g id="edge12" class="edge"><title>6&#45;&gt;3</title>
<path fill="none" stroke="black" stroke-width="2" d="M235.989,-222.834C210.262,-233.898 164.811,-253.445 135.076,-266.233"/>
<polygon fill="black" stroke="black" stroke-width="2" points="133.449,-263.123 125.645,-270.289 136.215,-269.553 133.449,-263.123"/>
</g>
<!-- 7&#45;&gt;3 -->
<g id="edge13" class="edge"><title>7&#45;&gt;3</title>
<path fill="none" stroke="black" stroke-width="2" d="M138.178,-126.633C131.825,-156.753 120.038,-212.64 112.659,-247.625"/>
<polygon fill="black" stroke="black" stroke-width="2" points="109.161,-247.253 110.522,-257.76 116.01,-248.698 109.161,-247.253"/>
</g>
<!-- 7&#45;&gt;4 -->
<g id="edge16" class="edge"><title>7&#45;&gt;4</title>
<path fill="none" stroke="black" stroke-width="2" d="M163.505,-109.681C196.68,-115.872 261.536,-127.976 300.207,-135.192"/>
<polygon fill="black" stroke="black" stroke-width="2" points="299.899,-138.695 310.371,-137.089 301.183,-131.814 299.899,-138.695"/>
</g>
<!-- 7&#45;&gt;5 -->
<g id="edge18" class="edge"><title>7&#45;&gt;5</title>
<path fill="none" stroke="black" stroke-width="2" d="M158.534,-120.003C161.937,-123.037 165.602,-126.304 169.227,-129.536"/>
<polygon fill="black" stroke="black" stroke-width="2" points="167.189,-132.409 176.982,-136.451 171.847,-127.184 167.189,-132.409"/>
</g>
<!-- 7&#45;&gt;6 -->
<g id="edge19" class="edge"><title>7&#45;&gt;6</title>
<path fill="none" stroke="black" stroke-width="2" d="M149.101,-125.973C154.261,-139.484 162.568,-156.971 174.325,-169.257 188.684,-184.261 209.134,-195.599 225.919,-203.164"/>
<polygon fill="black" stroke="black" stroke-width="2" points="224.733,-206.463 235.304,-207.181 227.488,-200.028 224.733,-206.463"/>
</g>
</g>
</svg>

