<?xml version="1.0" encoding="UTF-8" standalone="no"?>
<!DOCTYPE svg PUBLIC "-//W3C//DTD SVG 1.1//EN"
 "http://www.w3.org/Graphics/SVG/1.1/DTD/svg11.dtd">
<!-- Generated by graphviz version 2.36.0 (20140111.2315)
 -->
<!-- Title: G Pages: 1 -->
<svg width="100%" height="100%"
 viewBox="0.00 0.00 298.83 225.37" xmlns="http://www.w3.org/2000/svg" xmlns:xlink="http://www.w3.org/1999/xlink">
<g id="graph0" class="graph" transform="scale(1 1) rotate(0) translate(4 221.367)">
<title>G</title>
<!-- 0 -->
<g id="node1" class="node"><title>0</title>
<ellipse fill="cadetblue" stroke="black" cx="21.2132" cy="-118.509" rx="21.4286" ry="21.4286"/>
<text text-anchor="middle" x="21.2132" y="-113.509" font-family="Times New Roman,serif" font-size="20.00">2</text>
</g>
<!-- 6 -->
<g id="node7" class="node"><title>6</title>
<ellipse fill="cadetblue" stroke="black" cx="113.313" cy="-124.372" rx="21.4286" ry="21.4286"/>
<text text-anchor="middle" x="113.313" y="-119.372" font-family="Times New Roman,serif" font-size="20.00">2</text>
</g>
<!-- 0&#45;&gt;6 -->
<g id="edge3" class="edge"><title>0&#45;&gt;6</title>
<path fill="none" stroke="black" stroke-width="2" d="M42.5742,-119.869C54.1983,-120.609 68.8023,-121.539 81.718,-122.361"/>
<polygon fill="black" stroke="black" stroke-width="2" points="81.8655,-125.877 92.0677,-123.02 82.3103,-118.892 81.8655,-125.877"/>
</g>
<!-- 1 -->
<g id="node2" class="node"><title>1</title>
<ellipse fill="cadetblue" stroke="black" cx="208.258" cy="-154.233" rx="21.4286" ry="21.4286"/>
<text text-anchor="middle" x="208.258" y="-149.233" font-family="Times New Roman,serif" font-size="20.00">2</text>
</g>
<!-- 1&#45;&gt;6 -->
<g id="edge6" class="edge"><title>1&#45;&gt;6</title>
<path fill="none" stroke="black" stroke-width="2" d="M187.657,-147.754C174.841,-143.723 158.131,-138.468 143.8,-133.961"/>
<polygon fill="black" stroke="black" stroke-width="2" points="144.464,-130.501 133.874,-130.839 142.364,-137.178 144.464,-130.501"/>
</g>
<!-- 7 -->
<g id="node8" class="node"><title>7</title>
<ellipse fill="cadetblue" stroke="black" cx="177.285" cy="-103.802" rx="21.4286" ry="21.4286"/>
<text text-anchor="middle" x="177.285" y="-98.8016" font-family="Times New Roman,serif" font-size="20.00">2</text>
</g>
<!-- 1&#45;&gt;7 -->
<g id="edge7" class="edge"><title>1&#45;&gt;7</title>
<path fill="none" stroke="black" stroke-width="2" d="M197.076,-136.026C196.036,-134.333 194.969,-132.595 193.894,-130.844"/>
<polygon fill="black" stroke="black" stroke-width="2" points="196.77,-128.841 188.554,-122.151 190.806,-132.504 196.77,-128.841"/>
</g>
<!-- 2 -->
<g id="node3" class="node"><title>2</title>
<ellipse fill="cadetblue" stroke="black" cx="182.162" cy="-21.2132" rx="21.4286" ry="21.4286"/>
<text text-anchor="middle" x="182.162" y="-16.2132" font-family="Times New Roman,serif" font-size="20.00">2</text>
</g>
<!-- 4 -->
<g id="node5" class="node"><title>4</title>
<ellipse fill="cadetblue" stroke="black" cx="269.618" cy="-77.0973" rx="21.4286" ry="21.4286"/>
<text text-anchor="middle" x="269.618" y="-72.0973" font-family="Times New Roman,serif" font-size="20.00">2</text>
</g>
<!-- 2&#45;&gt;4 -->
<g id="edge8" class="edge"><title>2&#45;&gt;4</title>
<path fill="none" stroke="black" stroke-width="2" d="M200.283,-32.7924C212.595,-40.6601 229.09,-51.2001 242.902,-60.0259"/>
<polygon fill="black" stroke="black" stroke-width="2" points="241.209,-63.0976 251.52,-65.5329 244.978,-57.199 241.209,-63.0976"/>
</g>
<!-- 5 -->
<g id="node6" class="node"><title>5</title>
<ellipse fill="cadetblue" stroke="black" cx="105.91" cy="-53.3812" rx="21.4286" ry="21.4286"/>
<text text-anchor="middle" x="105.91" y="-48.3812" font-family="Times New Roman,serif" font-size="20.00">2</text>
</g>
<!-- 2&#45;&gt;5 -->
<g id="edge9" class="edge"><title>2&#45;&gt;5</title>
<path fill="none" stroke="black" stroke-width="2" d="M162.525,-29.4973C154.075,-33.0618 144.027,-37.3008 134.758,-41.2112"/>
<polygon fill="black" stroke="black" stroke-width="2" points="133.333,-38.0134 125.48,-45.1252 136.054,-44.463 133.333,-38.0134"/>
</g>
<!-- 3 -->
<g id="node4" class="node"><title>3</title>
<ellipse fill="cadetblue" stroke="black" cx="89.4575" cy="-196.153" rx="21.4286" ry="21.4286"/>
<text text-anchor="middle" x="89.4575" y="-191.153" font-family="Times New Roman,serif" font-size="20.00">2</text>
</g>
<!-- 3&#45;&gt;0 -->
<g id="edge1" class="edge"><title>3&#45;&gt;0</title>
<path fill="none" stroke="black" stroke-width="2" d="M75.3172,-180.066C65.7094,-169.134 52.8382,-154.49 42.0603,-142.228"/>
<polygon fill="black" stroke="black" stroke-width="2" points="44.566,-139.777 35.3353,-134.577 39.3083,-144.398 44.566,-139.777"/>
</g>
<!-- 4&#45;&gt;1 -->
<g id="edge4" class="edge"><title>4&#45;&gt;1</title>
<path fill="none" stroke="black" stroke-width="2" d="M256.304,-93.8346C248.022,-104.246 237.223,-117.822 227.961,-129.465"/>
<polygon fill="black" stroke="black" stroke-width="2" points="225.033,-127.524 221.547,-137.528 230.511,-131.881 225.033,-127.524"/>
</g>
<!-- 5&#45;&gt;0 -->
<g id="edge2" class="edge"><title>5&#45;&gt;0</title>
<path fill="none" stroke="black" stroke-width="2" d="M88.7702,-66.5608C76.5212,-75.9797 59.8484,-88.8004 46.1312,-99.3483"/>
<polygon fill="black" stroke="black" stroke-width="2" points="43.8321,-96.7011 38.0383,-105.571 48.0991,-102.25 43.8321,-96.7011"/>
</g>
<!-- 5&#45;&gt;1 -->
<g id="edge5" class="edge"><title>5&#45;&gt;1</title>
<path fill="none" stroke="black" stroke-width="2" d="M117.198,-71.4938C126.988,-86.2903 142.153,-107.173 158.684,-122.401 165.28,-128.478 173.174,-134.126 180.703,-138.927"/>
<polygon fill="black" stroke="black" stroke-width="2" points="178.912,-141.934 189.273,-144.148 182.554,-135.956 178.912,-141.934"/>
</g>
<!-- 6&#45;&gt;2 -->
<g id="edge10" class="edge"><title>6&#45;&gt;2</title>
<path fill="none" stroke="black" stroke-width="2" d="M125.305,-106.403C136.165,-90.1319 152.3,-65.9561 164.61,-47.511"/>
<polygon fill="black" stroke="black" stroke-width="2" points="167.666,-49.2369 170.307,-38.9762 161.844,-45.351 167.666,-49.2369"/>
</g>
<!-- 6&#45;&gt;3 -->
<g id="edge12" class="edge"><title>6&#45;&gt;3</title>
<path fill="none" stroke="black" stroke-width="2" d="M106.541,-144.75C104.306,-151.475 101.772,-159.1 99.3526,-166.379"/>
<polygon fill="black" stroke="black" stroke-width="2" points="95.9964,-165.38 96.164,-175.973 102.639,-167.588 95.9964,-165.38"/>
</g>
<!-- 6&#45;&gt;7 -->
<g id="edge16" class="edge"><title>6&#45;&gt;7</title>
<path fill="none" stroke="black" stroke-width="2" d="M133.554,-117.864C137.871,-116.475 142.52,-114.981 147.118,-113.502"/>
<polygon fill="black" stroke="black" stroke-width="2" points="148.507,-116.732 156.956,-110.339 146.364,-110.068 148.507,-116.732"/>
</g>
<!-- 7&#45;&gt;2 -->
<g id="edge11" class="edge"><title>7&#45;&gt;2</title>
<path fill="none" stroke="black" stroke-width="2" d="M178.541,-82.5331C179.081,-73.3813 179.724,-62.4981 180.317,-52.4586"/>
<polygon fill="black" stroke="black" stroke-width="2" points="183.814,-52.5987 180.91,-42.4097 176.826,-52.186 183.814,-52.5987"/>
</g>
<!-- 7&#45;&gt;3 -->
<g id="edge13" class="edge"><title>7&#45;&gt;3</title>
<path fill="none" stroke="black" stroke-width="2" d="M162.386,-119.468C148.296,-134.284 126.992,-156.685 111.042,-173.457"/>
<polygon fill="black" stroke="black" stroke-width="2" points="108.491,-171.06 104.136,-180.719 113.564,-175.884 108.491,-171.06"/>
</g>
<!-- 7&#45;&gt;4 -->
<g id="edge14" class="edge"><title>7&#45;&gt;4</title>
<path fill="none" stroke="black" stroke-width="2" d="M197.776,-97.8751C209.97,-94.3486 225.666,-89.8089 239.276,-85.8728"/>
<polygon fill="black" stroke="black" stroke-width="2" points="240.55,-89.1478 249.184,-83.0073 238.605,-82.4234 240.55,-89.1478"/>
</g>
<!-- 7&#45;&gt;5 -->
<g id="edge15" class="edge"><title>7&#45;&gt;5</title>
<path fill="none" stroke="black" stroke-width="2" d="M159.641,-91.3381C151.171,-85.3545 140.86,-78.0707 131.544,-71.4898"/>
<polygon fill="black" stroke="black" stroke-width="2" points="133.537,-68.6124 123.35,-65.7013 129.498,-74.3297 133.537,-68.6124"/>
</g>
</g>
</svg>

