<?xml version="1.0" encoding="UTF-8" standalone="no"?>
<!DOCTYPE svg PUBLIC "-//W3C//DTD SVG 1.1//EN"
 "http://www.w3.org/Graphics/SVG/1.1/DTD/svg11.dtd">
<!-- Generated by graphviz version 2.36.0 (20140111.2315)
 -->
<!-- Title: G Pages: 1 -->
<svg width="100%" height="100%"
 viewBox="0.00 0.00 228.48 200.86" xmlns="http://www.w3.org/2000/svg" xmlns:xlink="http://www.w3.org/1999/xlink">
<g id="graph0" class="graph" transform="scale(1 1) rotate(0) translate(4 196.858)">
<title>G</title>
<!-- 0 -->
<g id="node1" class="node"><title>0</title>
<ellipse fill="cadetblue" stroke="black" cx="21.2132" cy="-79.5126" rx="21.4286" ry="21.4286"/>
<text text-anchor="middle" x="21.2132" y="-74.5126" font-family="Times New Roman,serif" font-size="20.00">2</text>
</g>
<!-- 6 -->
<g id="node7" class="node"><title>6</title>
<ellipse fill="cadetblue" stroke="black" cx="88.3673" cy="-49.8821" rx="21.4286" ry="21.4286"/>
<text text-anchor="middle" x="88.3673" y="-44.8821" font-family="Times New Roman,serif" font-size="20.00">2</text>
</g>
<!-- 0&#45;&gt;6 -->
<g id="edge3" class="edge"><title>0&#45;&gt;6</title>
<path fill="none" stroke="black" stroke-width="2" d="M40.6369,-70.9423C46.4329,-68.3849 52.9176,-65.5237 59.1934,-62.7546"/>
<polygon fill="black" stroke="black" stroke-width="2" points="61.0184,-65.7749 68.7545,-58.5359 58.1926,-59.3706 61.0184,-65.7749"/>
</g>
<!-- 7 -->
<g id="node8" class="node"><title>7</title>
<ellipse fill="brown" stroke="black" cx="114.968" cy="-100.314" rx="21.4286" ry="21.4286"/>
<text text-anchor="middle" x="114.968" y="-95.3136" font-family="Times New Roman,serif" font-size="20.00">3</text>
</g>
<!-- 0&#45;&gt;7 -->
<g id="edge4" class="edge"><title>0&#45;&gt;7</title>
<path fill="none" stroke="black" stroke-width="2" d="M42.0204,-84.129C54.4012,-86.8759 70.3394,-90.4121 84.1584,-93.478"/>
<polygon fill="black" stroke="black" stroke-width="2" points="83.6979,-96.9609 94.2187,-95.7101 85.2142,-90.1271 83.6979,-96.9609"/>
</g>
<!-- 1 -->
<g id="node2" class="node"><title>1</title>
<ellipse fill="cadetblue" stroke="black" cx="161.337" cy="-163.941" rx="21.4286" ry="21.4286"/>
<text text-anchor="middle" x="161.337" y="-158.941" font-family="Times New Roman,serif" font-size="20.00">2</text>
</g>
<!-- 1&#45;&gt;6 -->
<g id="edge7" class="edge"><title>1&#45;&gt;6</title>
<path fill="none" stroke="black" stroke-width="2" d="M158.33,-142.755C154.892,-124.894 147.785,-99.4778 133.569,-81.7145 128.703,-75.6352 122.382,-70.2123 116.017,-65.6402"/>
<polygon fill="black" stroke="black" stroke-width="2" points="117.709,-62.563 107.442,-59.9511 113.84,-68.396 117.709,-62.563"/>
</g>
<!-- 1&#45;&gt;7 -->
<g id="edge8" class="edge"><title>1&#45;&gt;7</title>
<path fill="none" stroke="black" stroke-width="2" d="M148.666,-146.554C144.066,-140.242 138.765,-132.968 133.749,-126.085"/>
<polygon fill="black" stroke="black" stroke-width="2" points="136.341,-123.699 127.623,-117.679 130.684,-127.822 136.341,-123.699"/>
</g>
<!-- 2 -->
<g id="node3" class="node"><title>2</title>
<ellipse fill="cadetblue" stroke="black" cx="172.651" cy="-21.2132" rx="21.4286" ry="21.4286"/>
<text text-anchor="middle" x="172.651" y="-16.2132" font-family="Times New Roman,serif" font-size="20.00">2</text>
</g>
<!-- 4 -->
<g id="node5" class="node"><title>4</title>
<ellipse fill="cadetblue" stroke="black" cx="199.267" cy="-110.738" rx="21.4286" ry="21.4286"/>
<text text-anchor="middle" x="199.267" y="-105.738" font-family="Times New Roman,serif" font-size="20.00">2</text>
</g>
<!-- 2&#45;&gt;4 -->
<g id="edge9" class="edge"><title>2&#45;&gt;4</title>
<path fill="none" stroke="black" stroke-width="2" d="M178.824,-41.977C182.241,-53.4707 186.549,-67.9615 190.328,-80.6735"/>
<polygon fill="black" stroke="black" stroke-width="2" points="187.014,-81.8076 193.219,-90.3955 193.724,-79.8128 187.014,-81.8076"/>
</g>
<!-- 3 -->
<g id="node4" class="node"><title>3</title>
<ellipse fill="brown" stroke="black" cx="25.2247" cy="-139.422" rx="21.4286" ry="21.4286"/>
<text text-anchor="middle" x="25.2247" y="-134.422" font-family="Times New Roman,serif" font-size="20.00">3</text>
</g>
<!-- 3&#45;&gt;0 -->
<g id="edge1" class="edge"><title>3&#45;&gt;0</title>
<path fill="none" stroke="black" stroke-width="2" d="M23.7991,-118.131C23.6395,-115.748 23.4745,-113.284 23.3087,-110.808"/>
<polygon fill="black" stroke="black" stroke-width="2" points="26.7946,-110.478 22.6342,-100.734 19.8102,-110.946 26.7946,-110.478"/>
</g>
<!-- 4&#45;&gt;1 -->
<g id="edge5" class="edge"><title>4&#45;&gt;1</title>
<path fill="none" stroke="black" stroke-width="2" d="M186.847,-128.159C184.531,-131.407 182.067,-134.863 179.618,-138.299"/>
<polygon fill="black" stroke="black" stroke-width="2" points="176.61,-136.488 173.655,-146.663 182.31,-140.552 176.61,-136.488"/>
</g>
<!-- 5 -->
<g id="node6" class="node"><title>5</title>
<ellipse fill="cadetblue" stroke="black" cx="92.8412" cy="-171.645" rx="21.4286" ry="21.4286"/>
<text text-anchor="middle" x="92.8412" y="-166.645" font-family="Times New Roman,serif" font-size="20.00">2</text>
</g>
<!-- 4&#45;&gt;5 -->
<g id="edge15" class="edge"><title>4&#45;&gt;5</title>
<path fill="none" stroke="black" stroke-width="2" d="M180.729,-121.347C164.044,-130.896 139.305,-145.054 120.32,-155.919"/>
<polygon fill="black" stroke="black" stroke-width="2" points="118.464,-152.948 111.524,-160.953 121.941,-159.024 118.464,-152.948"/>
</g>
<!-- 5&#45;&gt;0 -->
<g id="edge2" class="edge"><title>5&#45;&gt;0</title>
<path fill="none" stroke="black" stroke-width="2" d="M79.7035,-154.746C68.6979,-140.59 52.839,-120.192 40.4104,-104.205"/>
<polygon fill="black" stroke="black" stroke-width="2" points="43.1686,-102.051 34.2676,-96.304 37.6422,-106.347 43.1686,-102.051"/>
</g>
<!-- 5&#45;&gt;1 -->
<g id="edge6" class="edge"><title>5&#45;&gt;1</title>
<path fill="none" stroke="black" stroke-width="2" d="M114.138,-169.249C119.116,-168.69 124.522,-168.082 129.838,-167.484"/>
<polygon fill="black" stroke="black" stroke-width="2" points="130.271,-170.957 139.817,-166.361 129.489,-164.001 130.271,-170.957"/>
</g>
<!-- 5&#45;&gt;3 -->
<g id="edge12" class="edge"><title>5&#45;&gt;3</title>
<path fill="none" stroke="black" stroke-width="2" d="M73.6459,-162.497C67.56,-159.597 60.6917,-156.324 54.0816,-153.174"/>
<polygon fill="black" stroke="black" stroke-width="2" points="55.2359,-149.847 44.7028,-148.704 52.2244,-156.166 55.2359,-149.847"/>
</g>
<!-- 6&#45;&gt;2 -->
<g id="edge10" class="edge"><title>6&#45;&gt;2</title>
<path fill="none" stroke="black" stroke-width="2" d="M108.77,-42.9422C119.019,-39.4559 131.631,-35.1661 142.933,-31.3217"/>
<polygon fill="black" stroke="black" stroke-width="2" points="144.096,-34.6231 152.436,-28.0892 141.842,-27.996 144.096,-34.6231"/>
</g>
<!-- 6&#45;&gt;3 -->
<g id="edge13" class="edge"><title>6&#45;&gt;3</title>
<path fill="none" stroke="black" stroke-width="2" d="M75.8923,-67.5723C66.5786,-80.7797 53.7133,-99.0235 43.2774,-113.822"/>
<polygon fill="black" stroke="black" stroke-width="2" points="40.3617,-111.884 37.4589,-122.073 46.0823,-115.918 40.3617,-111.884"/>
</g>
<!-- 6&#45;&gt;7 -->
<g id="edge18" class="edge"><title>6&#45;&gt;7</title>
<path fill="none" stroke="black" stroke-width="2" d="M98.2723,-68.661C98.8871,-69.8266 99.5123,-71.012 100.142,-72.2061"/>
<polygon fill="black" stroke="black" stroke-width="2" points="97.2045,-74.1388 104.966,-81.3509 103.396,-70.873 97.2045,-74.1388"/>
</g>
<!-- 7&#45;&gt;2 -->
<g id="edge11" class="edge"><title>7&#45;&gt;2</title>
<path fill="none" stroke="black" stroke-width="2" d="M127.484,-83.15C135.216,-72.5467 145.283,-58.7425 153.95,-46.8578"/>
<polygon fill="black" stroke="black" stroke-width="2" points="156.896,-48.7585 159.96,-38.6165 151.24,-44.634 156.896,-48.7585"/>
</g>
<!-- 7&#45;&gt;3 -->
<g id="edge14" class="edge"><title>7&#45;&gt;3</title>
<path fill="none" stroke="black" stroke-width="2" d="M95.4948,-108.799C83.4648,-114.042 67.8033,-120.867 54.3197,-126.743"/>
<polygon fill="black" stroke="black" stroke-width="2" points="52.7386,-123.614 44.9695,-130.817 55.5351,-130.031 52.7386,-123.614"/>
</g>
<!-- 7&#45;&gt;4 -->
<g id="edge16" class="edge"><title>7&#45;&gt;4</title>
<path fill="none" stroke="black" stroke-width="2" d="M136.24,-102.944C145.824,-104.129 157.335,-105.553 167.882,-106.857"/>
<polygon fill="black" stroke="black" stroke-width="2" points="167.647,-110.355 178.001,-108.108 168.506,-103.408 167.647,-110.355"/>
</g>
<!-- 7&#45;&gt;5 -->
<g id="edge17" class="edge"><title>7&#45;&gt;5</title>
<path fill="none" stroke="black" stroke-width="2" d="M108.568,-120.946C106.578,-127.359 104.343,-134.567 102.195,-141.49"/>
<polygon fill="black" stroke="black" stroke-width="2" points="98.7702,-140.718 99.1503,-151.306 105.456,-142.791 98.7702,-140.718"/>
</g>
</g>
</svg>

