<?xml version="1.0" encoding="UTF-8" standalone="no"?>
<!DOCTYPE svg PUBLIC "-//W3C//DTD SVG 1.1//EN"
 "http://www.w3.org/Graphics/SVG/1.1/DTD/svg11.dtd">
<!-- Generated by graphviz version 2.36.0 (20140111.2315)
 -->
<!-- Title: G Pages: 1 -->
<svg width="100%" height="100%"
 viewBox="0.00 0.00 250.18 207.44" xmlns="http://www.w3.org/2000/svg" xmlns:xlink="http://www.w3.org/1999/xlink">
<g id="graph0" class="graph" transform="scale(1 1) rotate(0) translate(4 203.442)">
<title>G</title>
<!-- 0 -->
<g id="node1" class="node"><title>0</title>
<ellipse fill="cadetblue" stroke="black" cx="21.2132" cy="-74.8837" rx="21.4286" ry="21.4286"/>
<text text-anchor="middle" x="21.2132" y="-69.8837" font-family="Times New Roman,serif" font-size="20.00">2</text>
</g>
<!-- 6 -->
<g id="node7" class="node"><title>6</title>
<ellipse fill="cadetblue" stroke="black" cx="123.656" cy="-55.3194" rx="21.4286" ry="21.4286"/>
<text text-anchor="middle" x="123.656" y="-50.3194" font-family="Times New Roman,serif" font-size="20.00">2</text>
</g>
<!-- 0&#45;&gt;6 -->
<g id="edge3" class="edge"><title>0&#45;&gt;6</title>
<path fill="none" stroke="black" stroke-width="2" d="M42.4395,-70.83C56.9582,-68.0573 76.4412,-64.3364 92.6854,-61.2342"/>
<polygon fill="black" stroke="black" stroke-width="2" points="93.6419,-64.6148 102.808,-59.301 92.3287,-57.7391 93.6419,-64.6148"/>
</g>
<!-- 1 -->
<g id="node2" class="node"><title>1</title>
<ellipse fill="cadetblue" stroke="black" cx="202.122" cy="-178.229" rx="21.4286" ry="21.4286"/>
<text text-anchor="middle" x="202.122" y="-173.229" font-family="Times New Roman,serif" font-size="20.00">2</text>
</g>
<!-- 7 -->
<g id="node8" class="node"><title>7</title>
<ellipse fill="cadetblue" stroke="black" cx="151.691" cy="-128.896" rx="21.4286" ry="21.4286"/>
<text text-anchor="middle" x="151.691" y="-123.896" font-family="Times New Roman,serif" font-size="20.00">2</text>
</g>
<!-- 1&#45;&gt;7 -->
<g id="edge6" class="edge"><title>1&#45;&gt;7</title>
<path fill="none" stroke="black" stroke-width="2" d="M186.717,-163.159C182.806,-159.334 178.523,-155.144 174.335,-151.047"/>
<polygon fill="black" stroke="black" stroke-width="2" points="176.597,-148.364 167.001,-143.873 171.702,-153.368 176.597,-148.364"/>
</g>
<!-- 2 -->
<g id="node3" class="node"><title>2</title>
<ellipse fill="cadetblue" stroke="black" cx="199.039" cy="-21.2132" rx="21.4286" ry="21.4286"/>
<text text-anchor="middle" x="199.039" y="-16.2132" font-family="Times New Roman,serif" font-size="20.00">2</text>
</g>
<!-- 2&#45;&gt;7 -->
<g id="edge9" class="edge"><title>2&#45;&gt;7</title>
<path fill="none" stroke="black" stroke-width="2" d="M190.355,-40.9639C183.08,-57.5092 172.596,-81.3509 164.381,-100.036"/>
<polygon fill="black" stroke="black" stroke-width="2" points="161.141,-98.7075 160.32,-109.27 167.549,-101.525 161.141,-98.7075"/>
</g>
<!-- 3 -->
<g id="node4" class="node"><title>3</title>
<ellipse fill="cadetblue" stroke="black" cx="43.8301" cy="-175.63" rx="21.4286" ry="21.4286"/>
<text text-anchor="middle" x="43.8301" y="-170.63" font-family="Times New Roman,serif" font-size="20.00">2</text>
</g>
<!-- 3&#45;&gt;0 -->
<g id="edge1" class="edge"><title>3&#45;&gt;0</title>
<path fill="none" stroke="black" stroke-width="2" d="M39.1439,-154.755C35.9597,-140.571 31.6941,-121.57 28.1222,-105.659"/>
<polygon fill="black" stroke="black" stroke-width="2" points="31.499,-104.722 25.8934,-95.7316 24.6689,-106.255 31.499,-104.722"/>
</g>
<!-- 4 -->
<g id="node5" class="node"><title>4</title>
<ellipse fill="cadetblue" stroke="black" cx="220.971" cy="-102.92" rx="21.4286" ry="21.4286"/>
<text text-anchor="middle" x="220.971" y="-97.9197" font-family="Times New Roman,serif" font-size="20.00">2</text>
</g>
<!-- 4&#45;&gt;1 -->
<g id="edge4" class="edge"><title>4&#45;&gt;1</title>
<path fill="none" stroke="black" stroke-width="2" d="M215.821,-123.498C213.966,-130.909 211.831,-139.438 209.807,-147.525"/>
<polygon fill="black" stroke="black" stroke-width="2" points="206.365,-146.863 207.332,-157.413 213.155,-148.562 206.365,-146.863"/>
</g>
<!-- 4&#45;&gt;2 -->
<g id="edge7" class="edge"><title>4&#45;&gt;2</title>
<path fill="none" stroke="black" stroke-width="2" d="M215.437,-82.3017C212.943,-73.0121 209.948,-61.8551 207.204,-51.6322"/>
<polygon fill="black" stroke="black" stroke-width="2" points="210.545,-50.5753 204.572,-41.8246 203.784,-52.3901 210.545,-50.5753"/>
</g>
<!-- 5 -->
<g id="node6" class="node"><title>5</title>
<ellipse fill="cadetblue" stroke="black" cx="89.9481" cy="-119.413" rx="21.4286" ry="21.4286"/>
<text text-anchor="middle" x="89.9481" y="-114.413" font-family="Times New Roman,serif" font-size="20.00">2</text>
</g>
<!-- 5&#45;&gt;0 -->
<g id="edge2" class="edge"><title>5&#45;&gt;0</title>
<path fill="none" stroke="black" stroke-width="2" d="M71.8888,-107.713C64.5279,-102.945 55.8676,-97.3342 47.8089,-92.1135"/>
<polygon fill="black" stroke="black" stroke-width="2" points="49.6863,-89.1595 39.3905,-86.6597 45.8802,-95.0344 49.6863,-89.1595"/>
</g>
<!-- 5&#45;&gt;3 -->
<g id="edge10" class="edge"><title>5&#45;&gt;3</title>
<path fill="none" stroke="black" stroke-width="2" d="M76.3606,-135.976C72.4549,-140.737 68.1103,-146.033 63.9009,-151.164"/>
<polygon fill="black" stroke="black" stroke-width="2" points="61.1164,-149.04 57.4798,-158.991 66.5283,-153.479 61.1164,-149.04"/>
</g>
<!-- 5&#45;&gt;4 -->
<g id="edge12" class="edge"><title>5&#45;&gt;4</title>
<path fill="none" stroke="black" stroke-width="2" d="M110.245,-112.391C122.156,-108.649 137.592,-104.444 151.692,-102.592 163.927,-100.984 177.482,-100.718 189.334,-100.976"/>
<polygon fill="black" stroke="black" stroke-width="2" points="189.537,-104.485 199.653,-101.337 189.782,-97.4893 189.537,-104.485"/>
</g>
<!-- 6&#45;&gt;1 -->
<g id="edge5" class="edge"><title>6&#45;&gt;1</title>
<path fill="none" stroke="black" stroke-width="2" d="M138.728,-70.7929C148.507,-81.3528 161.094,-95.9737 170.292,-110.297 178.01,-122.317 184.958,-136.507 190.378,-148.801"/>
<polygon fill="black" stroke="black" stroke-width="2" points="187.236,-150.355 194.383,-158.176 193.673,-147.605 187.236,-150.355"/>
</g>
<!-- 6&#45;&gt;2 -->
<g id="edge8" class="edge"><title>6&#45;&gt;2</title>
<path fill="none" stroke="black" stroke-width="2" d="M143.069,-46.5362C151.423,-42.7569 161.356,-38.2625 170.52,-34.1165"/>
<polygon fill="black" stroke="black" stroke-width="2" points="172.024,-37.2776 179.692,-29.9666 169.138,-30.9 172.024,-37.2776"/>
</g>
<!-- 6&#45;&gt;5 -->
<g id="edge14" class="edge"><title>6&#45;&gt;5</title>
<path fill="none" stroke="black" stroke-width="2" d="M113.725,-74.2029C110.87,-79.631 107.695,-85.6689 104.618,-91.5191"/>
<polygon fill="black" stroke="black" stroke-width="2" points="101.482,-89.9631 99.9249,-100.443 107.677,-93.2215 101.482,-89.9631"/>
</g>
<!-- 7&#45;&gt;3 -->
<g id="edge11" class="edge"><title>7&#45;&gt;3</title>
<path fill="none" stroke="black" stroke-width="2" d="M131.907,-137.468C115.335,-144.648 91.4536,-154.995 72.7381,-163.104"/>
<polygon fill="black" stroke="black" stroke-width="2" points="71.2722,-159.925 63.488,-167.112 74.0552,-166.348 71.2722,-159.925"/>
</g>
<!-- 7&#45;&gt;4 -->
<g id="edge13" class="edge"><title>7&#45;&gt;4</title>
<path fill="none" stroke="black" stroke-width="2" d="M171.73,-121.383C177.851,-119.087 184.718,-116.513 191.336,-114.031"/>
<polygon fill="black" stroke="black" stroke-width="2" points="192.603,-117.294 200.738,-110.506 190.145,-110.74 192.603,-117.294"/>
</g>
<!-- 7&#45;&gt;5 -->
<g id="edge15" class="edge"><title>7&#45;&gt;5</title>
<path fill="none" stroke="black" stroke-width="2" d="M130.442,-125.632C127.401,-125.165 124.221,-124.677 121.038,-124.188"/>
<polygon fill="black" stroke="black" stroke-width="2" points="121.442,-120.709 111.026,-122.65 120.379,-127.628 121.442,-120.709"/>
</g>
<!-- 7&#45;&gt;6 -->
<g id="edge16" class="edge"><title>7&#45;&gt;6</title>
<path fill="none" stroke="black" stroke-width="2" d="M144.03,-108.791C141.195,-101.35 137.919,-92.7529 134.835,-84.6584"/>
<polygon fill="black" stroke="black" stroke-width="2" points="138.042,-83.2439 131.211,-75.1455 131.5,-85.7363 138.042,-83.2439"/>
</g>
</g>
</svg>

