<?xml version="1.0" encoding="UTF-8" standalone="no"?>
<!DOCTYPE svg PUBLIC "-//W3C//DTD SVG 1.1//EN"
 "http://www.w3.org/Graphics/SVG/1.1/DTD/svg11.dtd">
<!-- Generated by graphviz version 2.36.0 (20140111.2315)
 -->
<!-- Title: G Pages: 1 -->
<svg width="100%" height="100%"
 viewBox="0.00 0.00 188.35 199.94" xmlns="http://www.w3.org/2000/svg" xmlns:xlink="http://www.w3.org/1999/xlink">
<g id="graph0" class="graph" transform="scale(1 1) rotate(0) translate(4 195.939)">
<title>G</title>
<!-- 0 -->
<g id="node1" class="node"><title>0</title>
<ellipse fill="cadetblue" stroke="black" cx="32.2029" cy="-158.919" rx="21.4286" ry="21.4286"/>
<text text-anchor="middle" x="32.2029" y="-153.919" font-family="Times New Roman,serif" font-size="20.00">2</text>
</g>
<!-- 7 -->
<g id="node8" class="node"><title>7</title>
<ellipse fill="brown" stroke="black" cx="81.3173" cy="-91.7144" rx="21.4286" ry="21.4286"/>
<text text-anchor="middle" x="81.3173" y="-86.7144" font-family="Times New Roman,serif" font-size="20.00">3</text>
</g>
<!-- 0&#45;&gt;7 -->
<g id="edge3" class="edge"><title>0&#45;&gt;7</title>
<path fill="none" stroke="black" stroke-width="2" d="M44.8511,-141.612C50.2513,-134.223 56.6654,-125.446 62.5971,-117.33"/>
<polygon fill="black" stroke="black" stroke-width="2" points="65.4667,-119.335 68.5413,-109.196 59.815,-115.205 65.4667,-119.335"/>
</g>
<!-- 1 -->
<g id="node2" class="node"><title>1</title>
<ellipse fill="cadetblue" stroke="black" cx="21.2132" cy="-21.2132" rx="21.4286" ry="21.4286"/>
<text text-anchor="middle" x="21.2132" y="-16.2132" font-family="Times New Roman,serif" font-size="20.00">2</text>
</g>
<!-- 1&#45;&gt;7 -->
<g id="edge6" class="edge"><title>1&#45;&gt;7</title>
<path fill="none" stroke="black" stroke-width="2" d="M35.1534,-37.5648C42.8151,-46.552 52.4606,-57.866 60.9511,-67.8252"/>
<polygon fill="black" stroke="black" stroke-width="2" points="58.3016,-70.1123 67.4528,-75.4515 63.6286,-65.5709 58.3016,-70.1123"/>
</g>
<!-- 2 -->
<g id="node3" class="node"><title>2</title>
<ellipse fill="cadetblue" stroke="black" cx="159.134" cy="-41.9325" rx="21.4286" ry="21.4286"/>
<text text-anchor="middle" x="159.134" y="-36.9325" font-family="Times New Roman,serif" font-size="20.00">2</text>
</g>
<!-- 2&#45;&gt;7 -->
<g id="edge9" class="edge"><title>2&#45;&gt;7</title>
<path fill="none" stroke="black" stroke-width="2" d="M141.086,-53.4786C131.264,-59.7617 118.925,-67.6555 108.012,-74.6368"/>
<polygon fill="black" stroke="black" stroke-width="2" points="105.805,-71.8937 99.2677,-80.231 109.578,-77.7903 105.805,-71.8937"/>
</g>
<!-- 3 -->
<g id="node4" class="node"><title>3</title>
<ellipse fill="cadetblue" stroke="black" cx="106.494" cy="-170.726" rx="21.4286" ry="21.4286"/>
<text text-anchor="middle" x="106.494" y="-165.726" font-family="Times New Roman,serif" font-size="20.00">2</text>
</g>
<!-- 3&#45;&gt;0 -->
<g id="edge1" class="edge"><title>3&#45;&gt;0</title>
<path fill="none" stroke="black" stroke-width="2" d="M85.4036,-167.374C78.5808,-166.29 70.8633,-165.063 63.4651,-163.888"/>
<polygon fill="black" stroke="black" stroke-width="2" points="63.7711,-160.392 53.3457,-162.279 62.6723,-167.306 63.7711,-160.392"/>
</g>
<!-- 4 -->
<g id="node5" class="node"><title>4</title>
<ellipse fill="cadetblue" stroke="black" cx="91.0876" cy="-26.3533" rx="21.4286" ry="21.4286"/>
<text text-anchor="middle" x="91.0876" y="-21.3533" font-family="Times New Roman,serif" font-size="20.00">2</text>
</g>
<!-- 4&#45;&gt;1 -->
<g id="edge4" class="edge"><title>4&#45;&gt;1</title>
<path fill="none" stroke="black" stroke-width="2" d="M69.7433,-24.7832C64.3252,-24.3846 58.3903,-23.948 52.5879,-23.5212"/>
<polygon fill="black" stroke="black" stroke-width="2" points="52.6566,-20.0169 42.4268,-22.7737 52.143,-26.998 52.6566,-20.0169"/>
</g>
<!-- 4&#45;&gt;2 -->
<g id="edge7" class="edge"><title>4&#45;&gt;2</title>
<path fill="none" stroke="black" stroke-width="2" d="M111.873,-31.1122C116.923,-32.2682 122.433,-33.5298 127.85,-34.77"/>
<polygon fill="black" stroke="black" stroke-width="2" points="127.477,-38.2751 138.006,-37.0952 129.039,-31.4517 127.477,-38.2751"/>
</g>
<!-- 6 -->
<g id="node7" class="node"><title>6</title>
<ellipse fill="cadetblue" stroke="black" cx="131.768" cy="-100.034" rx="21.4286" ry="21.4286"/>
<text text-anchor="middle" x="131.768" y="-95.0339" font-family="Times New Roman,serif" font-size="20.00">2</text>
</g>
<!-- 4&#45;&gt;6 -->
<g id="edge13" class="edge"><title>4&#45;&gt;6</title>
<path fill="none" stroke="black" stroke-width="2" d="M101.353,-44.946C105.978,-53.3231 111.533,-63.3842 116.623,-72.6029"/>
<polygon fill="black" stroke="black" stroke-width="2" points="113.608,-74.3845 121.506,-81.4471 119.736,-71.0011 113.608,-74.3845"/>
</g>
<!-- 5 -->
<g id="node6" class="node"><title>5</title>
<ellipse fill="cadetblue" stroke="black" cx="30.8859" cy="-84.3535" rx="21.4286" ry="21.4286"/>
<text text-anchor="middle" x="30.8859" y="-79.3535" font-family="Times New Roman,serif" font-size="20.00">2</text>
</g>
<!-- 5&#45;&gt;0 -->
<g id="edge2" class="edge"><title>5&#45;&gt;0</title>
<path fill="none" stroke="black" stroke-width="2" d="M31.2668,-105.921C31.3866,-112.703 31.5214,-120.335 31.6506,-127.65"/>
<polygon fill="black" stroke="black" stroke-width="2" points="28.1512,-127.721 31.8274,-137.658 35.1501,-127.597 28.1512,-127.721"/>
</g>
<!-- 5&#45;&gt;1 -->
<g id="edge5" class="edge"><title>5&#45;&gt;1</title>
<path fill="none" stroke="black" stroke-width="2" d="M27.665,-63.3287C27.1323,-59.8512 26.57,-56.1807 26.0085,-52.5152"/>
<polygon fill="black" stroke="black" stroke-width="2" points="29.427,-51.7161 24.453,-42.3615 22.5077,-52.7762 29.427,-51.7161"/>
</g>
<!-- 5&#45;&gt;4 -->
<g id="edge12" class="edge"><title>5&#45;&gt;4</title>
<path fill="none" stroke="black" stroke-width="2" d="M46.3893,-69.417C52.939,-63.1069 60.7052,-55.6246 67.9116,-48.6818"/>
<polygon fill="black" stroke="black" stroke-width="2" points="70.6543,-50.8995 75.4275,-41.4408 65.7975,-45.8584 70.6543,-50.8995"/>
</g>
<!-- 6&#45;&gt;2 -->
<g id="edge8" class="edge"><title>6&#45;&gt;2</title>
<path fill="none" stroke="black" stroke-width="2" d="M140.88,-80.687C142.387,-77.4869 143.978,-74.1095 145.567,-70.7364"/>
<polygon fill="black" stroke="black" stroke-width="2" points="148.873,-71.9312 149.968,-61.3931 142.54,-68.9484 148.873,-71.9312"/>
</g>
<!-- 6&#45;&gt;3 -->
<g id="edge10" class="edge"><title>6&#45;&gt;3</title>
<path fill="none" stroke="black" stroke-width="2" d="M124.593,-120.102C122.318,-126.465 119.751,-133.646 117.28,-140.556"/>
<polygon fill="black" stroke="black" stroke-width="2" points="113.845,-139.767 113.774,-150.362 120.436,-142.124 113.845,-139.767"/>
</g>
<!-- 6&#45;&gt;5 -->
<g id="edge15" class="edge"><title>6&#45;&gt;5</title>
<path fill="none" stroke="black" stroke-width="2" d="M113.154,-110.319C103.861,-114.495 92.2852,-118.295 81.3161,-118.019 71.0063,-117.759 61.2019,-112.768 53.0258,-106.705"/>
<polygon fill="black" stroke="black" stroke-width="2" points="55.0695,-103.852 45.1421,-100.151 50.5948,-109.235 55.0695,-103.852"/>
</g>
<!-- 7&#45;&gt;3 -->
<g id="edge11" class="edge"><title>7&#45;&gt;3</title>
<path fill="none" stroke="black" stroke-width="2" d="M87.8008,-112.062C90.5907,-120.817 93.9083,-131.229 96.9687,-140.834"/>
<polygon fill="black" stroke="black" stroke-width="2" points="93.6612,-141.982 100.032,-150.447 100.331,-139.857 93.6612,-141.982"/>
</g>
<!-- 7&#45;&gt;4 -->
<g id="edge14" class="edge"><title>7&#45;&gt;4</title>
<path fill="none" stroke="black" stroke-width="2" d="M84.4625,-70.674C85.0901,-66.4756 85.7617,-61.9825 86.4277,-57.5268"/>
<polygon fill="black" stroke="black" stroke-width="2" points="89.9314,-57.7619 87.9483,-47.3543 83.0083,-56.727 89.9314,-57.7619"/>
</g>
<!-- 7&#45;&gt;5 -->
<g id="edge16" class="edge"><title>7&#45;&gt;5</title>
<path fill="none" stroke="black" stroke-width="2" d="M60.2221,-88.6354C60.1377,-88.6231 60.0533,-88.6108 59.9688,-88.5984"/>
<polygon fill="black" stroke="black" stroke-width="2" points="62.4594,-85.425 52.0587,-87.4439 61.4483,-92.3516 62.4594,-85.425"/>
</g>
<!-- 7&#45;&gt;6 -->
<g id="edge17" class="edge"><title>7&#45;&gt;6</title>
<path fill="none" stroke="black" stroke-width="2" d="M102.42,-95.1944C102.505,-95.2083 102.589,-95.2223 102.674,-95.2362"/>
<polygon fill="black" stroke="black" stroke-width="2" points="100.151,-98.3673 110.587,-96.5411 101.29,-91.4606 100.151,-98.3673"/>
</g>
</g>
</svg>

