<?xml version="1.0" encoding="UTF-8" standalone="no"?>
<!DOCTYPE svg PUBLIC "-//W3C//DTD SVG 1.1//EN"
 "http://www.w3.org/Graphics/SVG/1.1/DTD/svg11.dtd">
<!-- Generated by graphviz version 2.36.0 (20140111.2315)
 -->
<!-- Title: G Pages: 1 -->
<svg width="100%" height="100%"
 viewBox="0.00 0.00 233.35 180.69" xmlns="http://www.w3.org/2000/svg" xmlns:xlink="http://www.w3.org/1999/xlink">
<g id="graph0" class="graph" transform="scale(1 1) rotate(0) translate(4 176.694)">
<title>G</title>
<!-- 0 -->
<g id="node1" class="node"><title>0</title>
<ellipse fill="cadetblue" stroke="black" cx="78.6008" cy="-73.2479" rx="21.4286" ry="21.4286"/>
<text text-anchor="middle" x="78.6008" y="-68.2479" font-family="Times New Roman,serif" font-size="20.00">2</text>
</g>
<!-- 6 -->
<g id="node7" class="node"><title>6</title>
<ellipse fill="cadetblue" stroke="black" cx="39.714" cy="-126.016" rx="21.4286" ry="21.4286"/>
<text text-anchor="middle" x="39.714" y="-121.016" font-family="Times New Roman,serif" font-size="20.00">2</text>
</g>
<!-- 0&#45;&gt;6 -->
<g id="edge3" class="edge"><title>0&#45;&gt;6</title>
<path fill="none" stroke="black" stroke-width="2" d="M65.8678,-90.5262C63.4936,-93.7479 60.9672,-97.1762 58.4564,-100.583"/>
<polygon fill="black" stroke="black" stroke-width="2" points="55.4578,-98.7526 52.3428,-108.879 61.0929,-102.905 55.4578,-98.7526"/>
</g>
<!-- 7 -->
<g id="node8" class="node"><title>7</title>
<ellipse fill="cadetblue" stroke="black" cx="116.428" cy="-21.2132" rx="21.4286" ry="21.4286"/>
<text text-anchor="middle" x="116.428" y="-16.2132" font-family="Times New Roman,serif" font-size="20.00">2</text>
</g>
<!-- 0&#45;&gt;7 -->
<g id="edge4" class="edge"><title>0&#45;&gt;7</title>
<path fill="none" stroke="black" stroke-width="2" d="M91.1966,-55.9211C93.343,-52.9684 95.6122,-49.8469 97.8745,-46.7349"/>
<polygon fill="black" stroke="black" stroke-width="2" points="100.709,-48.7884 103.758,-38.6418 95.0467,-44.6724 100.709,-48.7884"/>
</g>
<!-- 1 -->
<g id="node2" class="node"><title>1</title>
<ellipse fill="cadetblue" stroke="black" cx="118.394" cy="-151.481" rx="21.4286" ry="21.4286"/>
<text text-anchor="middle" x="118.394" y="-146.481" font-family="Times New Roman,serif" font-size="20.00">2</text>
</g>
<!-- 1&#45;&gt;6 -->
<g id="edge7" class="edge"><title>1&#45;&gt;6</title>
<path fill="none" stroke="black" stroke-width="2" d="M98.1318,-144.923C89.4132,-142.101 79.045,-138.746 69.4806,-135.65"/>
<polygon fill="black" stroke="black" stroke-width="2" points="70.4992,-132.301 59.9073,-132.552 68.3437,-138.961 70.4992,-132.301"/>
</g>
<!-- 1&#45;&gt;7 -->
<g id="edge8" class="edge"><title>1&#45;&gt;7</title>
<path fill="none" stroke="black" stroke-width="2" d="M116.93,-130.166C116.183,-117.939 115.385,-102.296 115.16,-88.3626 114.973,-76.7889 115.122,-64.0936 115.374,-52.887"/>
<polygon fill="black" stroke="black" stroke-width="2" points="118.878,-52.7718 115.64,-42.684 111.88,-52.5894 118.878,-52.7718"/>
</g>
<!-- 2 -->
<g id="node3" class="node"><title>2</title>
<ellipse fill="cadetblue" stroke="black" cx="204.138" cy="-29.6997" rx="21.4286" ry="21.4286"/>
<text text-anchor="middle" x="204.138" y="-24.6997" font-family="Times New Roman,serif" font-size="20.00">2</text>
</g>
<!-- 5 -->
<g id="node6" class="node"><title>5</title>
<ellipse fill="cadetblue" stroke="black" cx="191.895" cy="-118.2" rx="21.4286" ry="21.4286"/>
<text text-anchor="middle" x="191.895" y="-113.2" font-family="Times New Roman,serif" font-size="20.00">2</text>
</g>
<!-- 2&#45;&gt;5 -->
<g id="edge10" class="edge"><title>2&#45;&gt;5</title>
<path fill="none" stroke="black" stroke-width="2" d="M201.174,-51.1232C199.685,-61.8852 197.853,-75.1277 196.212,-86.9955"/>
<polygon fill="black" stroke="black" stroke-width="2" points="192.735,-86.5886 194.831,-96.9739 199.669,-87.5479 192.735,-86.5886"/>
</g>
<!-- 3 -->
<g id="node4" class="node"><title>3</title>
<ellipse fill="cadetblue" stroke="black" cx="21.2132" cy="-29.6771" rx="21.4286" ry="21.4286"/>
<text text-anchor="middle" x="21.2132" y="-24.6771" font-family="Times New Roman,serif" font-size="20.00">2</text>
</g>
<!-- 3&#45;&gt;0 -->
<g id="edge1" class="edge"><title>3&#45;&gt;0</title>
<path fill="none" stroke="black" stroke-width="2" d="M38.121,-42.5141C42.9812,-46.2041 48.3873,-50.3087 53.6254,-54.2857"/>
<polygon fill="black" stroke="black" stroke-width="2" points="51.5345,-57.0927 61.6156,-60.3521 55.7675,-51.5175 51.5345,-57.0927"/>
</g>
<!-- 4 -->
<g id="node5" class="node"><title>4</title>
<ellipse fill="cadetblue" stroke="black" cx="141.463" cy="-88.6226" rx="21.4286" ry="21.4286"/>
<text text-anchor="middle" x="141.463" y="-83.6226" font-family="Times New Roman,serif" font-size="20.00">2</text>
</g>
<!-- 4&#45;&gt;1 -->
<g id="edge5" class="edge"><title>4&#45;&gt;1</title>
<path fill="none" stroke="black" stroke-width="2" d="M134.037,-108.857C132.514,-113.007 130.881,-117.456 129.266,-121.858"/>
<polygon fill="black" stroke="black" stroke-width="2" points="125.966,-120.69 125.806,-131.284 132.537,-123.102 125.966,-120.69"/>
</g>
<!-- 4&#45;&gt;2 -->
<g id="edge9" class="edge"><title>4&#45;&gt;2</title>
<path fill="none" stroke="black" stroke-width="2" d="M156.956,-74.0574C164.133,-67.3096 172.816,-59.1471 180.765,-51.6732"/>
<polygon fill="black" stroke="black" stroke-width="2" points="183.5,-53.9063 188.388,-44.5066 178.705,-48.8063 183.5,-53.9063"/>
</g>
<!-- 4&#45;&gt;5 -->
<g id="edge14" class="edge"><title>4&#45;&gt;5</title>
<path fill="none" stroke="black" stroke-width="2" d="M159.956,-99.4682C161.463,-100.352 163.005,-101.257 164.558,-102.168"/>
<polygon fill="black" stroke="black" stroke-width="2" points="163.008,-105.316 173.405,-107.356 166.549,-99.2777 163.008,-105.316"/>
</g>
<!-- 5&#45;&gt;0 -->
<g id="edge2" class="edge"><title>5&#45;&gt;0</title>
<path fill="none" stroke="black" stroke-width="2" d="M170.447,-118.41C161.327,-118.091 150.641,-117.171 141.203,-114.926 126.83,-111.506 112.932,-102.967 101.897,-94.5018"/>
<polygon fill="black" stroke="black" stroke-width="2" points="104.024,-91.7203 94.0566,-88.1289 99.609,-97.1523 104.024,-91.7203"/>
</g>
<!-- 5&#45;&gt;1 -->
<g id="edge6" class="edge"><title>5&#45;&gt;1</title>
<path fill="none" stroke="black" stroke-width="2" d="M172.198,-127.119C164.474,-130.616 155.459,-134.698 147.04,-138.51"/>
<polygon fill="black" stroke="black" stroke-width="2" points="145.556,-135.34 137.89,-142.653 148.444,-141.717 145.556,-135.34"/>
</g>
<!-- 6&#45;&gt;3 -->
<g id="edge12" class="edge"><title>6&#45;&gt;3</title>
<path fill="none" stroke="black" stroke-width="2" d="M35.6996,-105.112C33.2025,-92.1087 29.9464,-75.1531 27.1538,-60.6114"/>
<polygon fill="black" stroke="black" stroke-width="2" points="30.543,-59.7008 25.2198,-50.5404 23.6686,-61.021 30.543,-59.7008"/>
</g>
<!-- 6&#45;&gt;4 -->
<g id="edge15" class="edge"><title>6&#45;&gt;4</title>
<path fill="none" stroke="black" stroke-width="2" d="M59.8164,-118.628C74.5885,-113.199 94.9052,-105.733 111.576,-99.6064"/>
<polygon fill="black" stroke="black" stroke-width="2" points="113.224,-102.73 121.403,-95.995 110.809,-96.1594 113.224,-102.73"/>
</g>
<!-- 7&#45;&gt;2 -->
<g id="edge11" class="edge"><title>7&#45;&gt;2</title>
<path fill="none" stroke="black" stroke-width="2" d="M137.66,-23.2675C148.14,-24.2816 160.995,-25.5253 172.597,-26.648"/>
<polygon fill="black" stroke="black" stroke-width="2" points="172.507,-30.1554 182.797,-27.6349 173.181,-23.188 172.507,-30.1554"/>
</g>
<!-- 7&#45;&gt;3 -->
<g id="edge13" class="edge"><title>7&#45;&gt;3</title>
<path fill="none" stroke="black" stroke-width="2" d="M95.2964,-23.0916C82.8101,-24.2016 66.761,-25.6282 52.7949,-26.8697"/>
<polygon fill="black" stroke="black" stroke-width="2" points="52.2653,-23.4029 42.6145,-27.7746 52.8852,-30.3754 52.2653,-23.4029"/>
</g>
<!-- 7&#45;&gt;4 -->
<g id="edge16" class="edge"><title>7&#45;&gt;4</title>
<path fill="none" stroke="black" stroke-width="2" d="M123.939,-41.4383C125.969,-46.9039 128.209,-52.9359 130.39,-58.8081"/>
<polygon fill="black" stroke="black" stroke-width="2" points="127.194,-60.2561 133.957,-68.4118 133.756,-57.8189 127.194,-60.2561"/>
</g>
</g>
</svg>

