<?xml version="1.0" encoding="UTF-8" standalone="no"?>
<!DOCTYPE svg PUBLIC "-//W3C//DTD SVG 1.1//EN"
 "http://www.w3.org/Graphics/SVG/1.1/DTD/svg11.dtd">
<!-- Generated by graphviz version 2.36.0 (20140111.2315)
 -->
<!-- Title: G Pages: 1 -->
<svg width="100%" height="100%"
 viewBox="0.00 0.00 362.12 326.02" xmlns="http://www.w3.org/2000/svg" xmlns:xlink="http://www.w3.org/1999/xlink">
<g id="graph0" class="graph" transform="scale(1 1) rotate(0) translate(4 322.022)">
<title>G</title>
<!-- 0 -->
<g id="node1" class="node"><title>0</title>
<ellipse fill="cadetblue" stroke="black" cx="21.2132" cy="-110.854" rx="21.4286" ry="21.4286"/>
<text text-anchor="middle" x="21.2132" y="-105.854" font-family="Times New Roman,serif" font-size="20.00">2</text>
</g>
<!-- 6 -->
<g id="node7" class="node"><title>6</title>
<ellipse fill="cadetblue" stroke="black" cx="207.193" cy="-133.051" rx="21.4286" ry="21.4286"/>
<text text-anchor="middle" x="207.193" y="-128.051" font-family="Times New Roman,serif" font-size="20.00">2</text>
</g>
<!-- 0&#45;&gt;6 -->
<g id="edge3" class="edge"><title>0&#45;&gt;6</title>
<path fill="none" stroke="black" stroke-width="2" d="M42.5475,-113.401C75.3394,-117.314 138.296,-124.828 176.144,-129.345"/>
<polygon fill="black" stroke="black" stroke-width="2" points="175.763,-132.824 186.108,-130.534 176.593,-125.874 175.763,-132.824"/>
</g>
<!-- 7 -->
<g id="node8" class="node"><title>7</title>
<ellipse fill="cadetblue" stroke="black" cx="156.762" cy="-180.362" rx="21.4286" ry="21.4286"/>
<text text-anchor="middle" x="156.762" y="-175.362" font-family="Times New Roman,serif" font-size="20.00">2</text>
</g>
<!-- 0&#45;&gt;7 -->
<g id="edge4" class="edge"><title>0&#45;&gt;7</title>
<path fill="none" stroke="black" stroke-width="2" d="M40.3465,-120.666C63.3547,-132.464 102.17,-152.368 128.601,-165.921"/>
<polygon fill="black" stroke="black" stroke-width="2" points="127.231,-169.152 137.726,-170.6 130.425,-162.923 127.231,-169.152"/>
</g>
<!-- 1 -->
<g id="node2" class="node"><title>1</title>
<ellipse fill="cadetblue" stroke="black" cx="219.217" cy="-296.809" rx="21.4286" ry="21.4286"/>
<text text-anchor="middle" x="219.217" y="-291.809" font-family="Times New Roman,serif" font-size="20.00">2</text>
</g>
<!-- 1&#45;&gt;6 -->
<g id="edge7" class="edge"><title>1&#45;&gt;6</title>
<path fill="none" stroke="black" stroke-width="2" d="M217.645,-275.4C215.575,-247.204 211.917,-197.39 209.524,-164.8"/>
<polygon fill="black" stroke="black" stroke-width="2" points="212.988,-164.181 208.766,-154.465 206.007,-164.694 212.988,-164.181"/>
</g>
<!-- 1&#45;&gt;7 -->
<g id="edge8" class="edge"><title>1&#45;&gt;7</title>
<path fill="none" stroke="black" stroke-width="2" d="M209.182,-278.099C199.09,-259.282 183.406,-230.039 171.821,-208.44"/>
<polygon fill="black" stroke="black" stroke-width="2" points="174.79,-206.57 166.979,-199.411 168.621,-209.878 174.79,-206.57"/>
</g>
<!-- 2 -->
<g id="node3" class="node"><title>2</title>
<ellipse fill="cadetblue" stroke="black" cx="118.573" cy="-21.2132" rx="21.4286" ry="21.4286"/>
<text text-anchor="middle" x="118.573" y="-16.2132" font-family="Times New Roman,serif" font-size="20.00">2</text>
</g>
<!-- 5 -->
<g id="node6" class="node"><title>5</title>
<ellipse fill="cadetblue" stroke="black" cx="29.2612" cy="-205.356" rx="21.4286" ry="21.4286"/>
<text text-anchor="middle" x="29.2612" y="-200.356" font-family="Times New Roman,serif" font-size="20.00">2</text>
</g>
<!-- 2&#45;&gt;5 -->
<g id="edge9" class="edge"><title>2&#45;&gt;5</title>
<path fill="none" stroke="black" stroke-width="2" d="M109.184,-40.5717C93.3968,-73.1216 61.4644,-138.96 43.1012,-176.821"/>
<polygon fill="black" stroke="black" stroke-width="2" points="39.7394,-175.732 38.5245,-186.257 46.0377,-178.787 39.7394,-175.732"/>
</g>
<!-- 3 -->
<g id="node4" class="node"><title>3</title>
<ellipse fill="brown" stroke="black" cx="68.3491" cy="-290.973" rx="21.4286" ry="21.4286"/>
<text text-anchor="middle" x="68.3491" y="-285.973" font-family="Times New Roman,serif" font-size="20.00">3</text>
</g>
<!-- 3&#45;&gt;0 -->
<g id="edge1" class="edge"><title>3&#45;&gt;0</title>
<path fill="none" stroke="black" stroke-width="2" d="M66.3582,-269.657C64.4447,-252.217 61.0251,-227.005 55.5653,-205.474 49.8487,-182.93 40.7922,-158.254 33.4131,-139.756"/>
<polygon fill="black" stroke="black" stroke-width="2" points="36.6311,-138.378 29.6262,-130.429 30.1453,-141.011 36.6311,-138.378"/>
</g>
<!-- 4 -->
<g id="node5" class="node"><title>4</title>
<ellipse fill="cadetblue" stroke="black" cx="332.91" cy="-202.627" rx="21.4286" ry="21.4286"/>
<text text-anchor="middle" x="332.91" y="-197.627" font-family="Times New Roman,serif" font-size="20.00">2</text>
</g>
<!-- 4&#45;&gt;1 -->
<g id="edge5" class="edge"><title>4&#45;&gt;1</title>
<path fill="none" stroke="black" stroke-width="2" d="M316.134,-216.524C296.964,-232.404 265.424,-258.531 243.554,-276.648"/>
<polygon fill="black" stroke="black" stroke-width="2" points="241.16,-274.086 235.692,-283.161 245.625,-279.477 241.16,-274.086"/>
</g>
<!-- 5&#45;&gt;0 -->
<g id="edge2" class="edge"><title>5&#45;&gt;0</title>
<path fill="none" stroke="black" stroke-width="2" d="M27.435,-183.912C26.3854,-171.588 25.0481,-155.885 23.8825,-142.198"/>
<polygon fill="black" stroke="black" stroke-width="2" points="27.3682,-141.88 23.0322,-132.213 20.3935,-142.474 27.3682,-141.88"/>
</g>
<!-- 5&#45;&gt;1 -->
<g id="edge6" class="edge"><title>5&#45;&gt;1</title>
<path fill="none" stroke="black" stroke-width="2" d="M48.5205,-214.629C82.0839,-230.787 151.446,-264.181 190.634,-283.048"/>
<polygon fill="black" stroke="black" stroke-width="2" points="189.378,-286.328 199.906,-287.512 192.414,-280.02 189.378,-286.328"/>
</g>
<!-- 5&#45;&gt;3 -->
<g id="edge12" class="edge"><title>5&#45;&gt;3</title>
<path fill="none" stroke="black" stroke-width="2" d="M38.1308,-224.784C43.1785,-235.84 49.5964,-249.898 55.2181,-262.211"/>
<polygon fill="black" stroke="black" stroke-width="2" points="52.1775,-263.979 59.5145,-271.622 58.5452,-261.071 52.1775,-263.979"/>
</g>
<!-- 6&#45;&gt;2 -->
<g id="edge10" class="edge"><title>6&#45;&gt;2</title>
<path fill="none" stroke="black" stroke-width="2" d="M193.734,-116.065C178.944,-97.4001 155.05,-67.2463 138.178,-45.955"/>
<polygon fill="black" stroke="black" stroke-width="2" points="140.823,-43.6563 131.869,-37.9923 135.336,-48.0037 140.823,-43.6563"/>
</g>
<!-- 6&#45;&gt;3 -->
<g id="edge13" class="edge"><title>6&#45;&gt;3</title>
<path fill="none" stroke="black" stroke-width="2" d="M199.95,-153.29C194.463,-166.991 186.047,-185.058 175.361,-198.963 152.325,-228.936 118.185,-256.201 94.6938,-273.136"/>
<polygon fill="black" stroke="black" stroke-width="2" points="92.3995,-270.471 86.2572,-279.104 96.4423,-276.186 92.3995,-270.471"/>
</g>
<!-- 6&#45;&gt;4 -->
<g id="edge15" class="edge"><title>6&#45;&gt;4</title>
<path fill="none" stroke="black" stroke-width="2" d="M226.014,-143.467C246.937,-155.046 280.941,-173.866 304.972,-187.165"/>
<polygon fill="black" stroke="black" stroke-width="2" points="303.516,-190.359 313.96,-192.139 306.906,-184.235 303.516,-190.359"/>
</g>
<!-- 7&#45;&gt;2 -->
<g id="edge11" class="edge"><title>7&#45;&gt;2</title>
<path fill="none" stroke="black" stroke-width="2" d="M151.769,-159.556C145.194,-132.153 133.577,-83.7415 125.977,-52.069"/>
<polygon fill="black" stroke="black" stroke-width="2" points="129.304,-50.9315 123.567,-42.0242 122.497,-52.5649 129.304,-50.9315"/>
</g>
<!-- 7&#45;&gt;3 -->
<g id="edge14" class="edge"><title>7&#45;&gt;3</title>
<path fill="none" stroke="black" stroke-width="2" d="M143.334,-197.161C128.578,-215.621 104.74,-245.444 87.9086,-266.502"/>
<polygon fill="black" stroke="black" stroke-width="2" points="85.1235,-264.381 81.6137,-274.377 90.5914,-268.751 85.1235,-264.381"/>
</g>
<!-- 7&#45;&gt;4 -->
<g id="edge16" class="edge"><title>7&#45;&gt;4</title>
<path fill="none" stroke="black" stroke-width="2" d="M178.009,-183.047C208.775,-186.936 265.931,-194.161 301.551,-198.663"/>
<polygon fill="black" stroke="black" stroke-width="2" points="301.501,-202.185 311.861,-199.966 302.379,-195.24 301.501,-202.185"/>
</g>
<!-- 7&#45;&gt;5 -->
<g id="edge17" class="edge"><title>7&#45;&gt;5</title>
<path fill="none" stroke="black" stroke-width="2" d="M135.708,-184.489C115.221,-188.505 83.8483,-194.655 60.4619,-199.24"/>
<polygon fill="black" stroke="black" stroke-width="2" points="59.4865,-195.865 50.3466,-201.223 60.8332,-202.734 59.4865,-195.865"/>
</g>
</g>
</svg>

