<?xml version="1.0" encoding="UTF-8" standalone="no"?>
<!DOCTYPE svg PUBLIC "-//W3C//DTD SVG 1.1//EN"
 "http://www.w3.org/Graphics/SVG/1.1/DTD/svg11.dtd">
<!-- Generated by graphviz version 2.36.0 (20140111.2315)
 -->
<!-- Title: G Pages: 1 -->
<svg width="100%" height="100%"
 viewBox="0.00 0.00 351.38 308.15" xmlns="http://www.w3.org/2000/svg" xmlns:xlink="http://www.w3.org/1999/xlink">
<g id="graph0" class="graph" transform="scale(1 1) rotate(0) translate(4 304.145)">
<title>G</title>
<!-- 0 -->
<g id="node1" class="node"><title>0</title>
<ellipse fill="cadetblue" stroke="black" cx="21.2132" cy="-112.591" rx="21.4286" ry="21.4286"/>
<text text-anchor="middle" x="21.2132" y="-107.591" font-family="Times New Roman,serif" font-size="20.00">2</text>
</g>
<!-- 6 -->
<g id="node7" class="node"><title>6</title>
<ellipse fill="cadetblue" stroke="black" cx="193.253" cy="-128.972" rx="21.4286" ry="21.4286"/>
<text text-anchor="middle" x="193.253" y="-123.972" font-family="Times New Roman,serif" font-size="20.00">2</text>
</g>
<!-- 0&#45;&gt;6 -->
<g id="edge3" class="edge"><title>0&#45;&gt;6</title>
<path fill="none" stroke="black" stroke-width="2" d="M42.6543,-114.632C72.6943,-117.493 127.496,-122.711 162.056,-126.001"/>
<polygon fill="black" stroke="black" stroke-width="2" points="161.795,-129.492 172.082,-126.956 162.459,-122.524 161.795,-129.492"/>
</g>
<!-- 7 -->
<g id="node8" class="node"><title>7</title>
<ellipse fill="cadetblue" stroke="black" cx="166.932" cy="-179.403" rx="21.4286" ry="21.4286"/>
<text text-anchor="middle" x="166.932" y="-174.403" font-family="Times New Roman,serif" font-size="20.00">2</text>
</g>
<!-- 0&#45;&gt;7 -->
<g id="edge4" class="edge"><title>0&#45;&gt;7</title>
<path fill="none" stroke="black" stroke-width="2" d="M40.5635,-121.463C65.6036,-132.944 109.436,-153.041 138.326,-166.287"/>
<polygon fill="black" stroke="black" stroke-width="2" points="136.953,-169.508 147.502,-170.494 139.87,-163.145 136.953,-169.508"/>
</g>
<!-- 1 -->
<g id="node2" class="node"><title>1</title>
<ellipse fill="cadetblue" stroke="black" cx="228.275" cy="-278.932" rx="21.4286" ry="21.4286"/>
<text text-anchor="middle" x="228.275" y="-273.932" font-family="Times New Roman,serif" font-size="20.00">2</text>
</g>
<!-- 1&#45;&gt;6 -->
<g id="edge7" class="edge"><title>1&#45;&gt;6</title>
<path fill="none" stroke="black" stroke-width="2" d="M223.405,-258.081C217.42,-232.452 207.215,-188.758 200.356,-159.385"/>
<polygon fill="black" stroke="black" stroke-width="2" points="203.764,-158.588 198.081,-149.646 196.947,-160.18 203.764,-158.588"/>
</g>
<!-- 1&#45;&gt;7 -->
<g id="edge8" class="edge"><title>1&#45;&gt;7</title>
<path fill="none" stroke="black" stroke-width="2" d="M217.023,-260.677C207.598,-245.384 194.017,-223.348 183.373,-206.078"/>
<polygon fill="black" stroke="black" stroke-width="2" points="186.338,-204.219 178.112,-197.543 180.379,-207.892 186.338,-204.219"/>
</g>
<!-- 2 -->
<g id="node3" class="node"><title>2</title>
<ellipse fill="cadetblue" stroke="black" cx="140.864" cy="-21.2132" rx="21.4286" ry="21.4286"/>
<text text-anchor="middle" x="140.864" y="-16.2132" font-family="Times New Roman,serif" font-size="20.00">2</text>
</g>
<!-- 5 -->
<g id="node6" class="node"><title>5</title>
<ellipse fill="cadetblue" stroke="black" cx="74.7427" cy="-185.666" rx="21.4286" ry="21.4286"/>
<text text-anchor="middle" x="74.7427" y="-180.666" font-family="Times New Roman,serif" font-size="20.00">2</text>
</g>
<!-- 2&#45;&gt;5 -->
<g id="edge9" class="edge"><title>2&#45;&gt;5</title>
<path fill="none" stroke="black" stroke-width="2" d="M132.888,-41.05C121.371,-69.6952 100,-122.847 86.6223,-156.12"/>
<polygon fill="black" stroke="black" stroke-width="2" points="83.23,-155.175 82.7468,-165.758 89.7246,-157.786 83.23,-155.175"/>
</g>
<!-- 3 -->
<g id="node4" class="node"><title>3</title>
<ellipse fill="cadetblue" stroke="black" cx="48.8519" cy="-262.584" rx="21.4286" ry="21.4286"/>
<text text-anchor="middle" x="48.8519" y="-257.584" font-family="Times New Roman,serif" font-size="20.00">2</text>
</g>
<!-- 3&#45;&gt;0 -->
<g id="edge1" class="edge"><title>3&#45;&gt;0</title>
<path fill="none" stroke="black" stroke-width="2" d="M44.9506,-241.411C40.2591,-215.952 32.3446,-173 26.9553,-143.753"/>
<polygon fill="black" stroke="black" stroke-width="2" points="30.349,-142.856 25.0947,-133.655 23.4649,-144.124 30.349,-142.856"/>
</g>
<!-- 4 -->
<g id="node5" class="node"><title>4</title>
<ellipse fill="cadetblue" stroke="black" cx="322.167" cy="-184.193" rx="21.4286" ry="21.4286"/>
<text text-anchor="middle" x="322.167" y="-179.193" font-family="Times New Roman,serif" font-size="20.00">2</text>
</g>
<!-- 4&#45;&gt;1 -->
<g id="edge5" class="edge"><title>4&#45;&gt;1</title>
<path fill="none" stroke="black" stroke-width="2" d="M307.081,-199.415C291.75,-214.884 267.836,-239.014 250.37,-256.638"/>
<polygon fill="black" stroke="black" stroke-width="2" points="247.876,-254.182 243.323,-263.748 252.848,-259.109 247.876,-254.182"/>
</g>
<!-- 5&#45;&gt;0 -->
<g id="edge2" class="edge"><title>5&#45;&gt;0</title>
<path fill="none" stroke="black" stroke-width="2" d="M62.057,-168.348C55.3905,-159.247 47.095,-147.923 39.725,-137.862"/>
<polygon fill="black" stroke="black" stroke-width="2" points="42.5409,-135.783 33.8079,-129.784 36.8939,-139.92 42.5409,-135.783"/>
</g>
<!-- 5&#45;&gt;1 -->
<g id="edge6" class="edge"><title>5&#45;&gt;1</title>
<path fill="none" stroke="black" stroke-width="2" d="M92.9577,-196.731C119.852,-213.068 170.35,-243.745 201.474,-262.652"/>
<polygon fill="black" stroke="black" stroke-width="2" points="199.72,-265.681 210.083,-267.881 203.354,-259.698 199.72,-265.681"/>
</g>
<!-- 6&#45;&gt;2 -->
<g id="edge10" class="edge"><title>6&#45;&gt;2</title>
<path fill="none" stroke="black" stroke-width="2" d="M183.887,-109.707C175.729,-92.9274 163.796,-68.3811 154.565,-49.3945"/>
<polygon fill="black" stroke="black" stroke-width="2" points="157.669,-47.7746 150.149,-40.3115 151.374,-50.8353 157.669,-47.7746"/>
</g>
<!-- 6&#45;&gt;3 -->
<g id="edge12" class="edge"><title>6&#45;&gt;3</title>
<path fill="none" stroke="black" stroke-width="2" d="M175.209,-140.66C166.779,-146.393 156.765,-153.603 148.333,-160.802 119.339,-185.555 89.1584,-217.442 69.7535,-238.873"/>
<polygon fill="black" stroke="black" stroke-width="2" points="66.9474,-236.759 62.8689,-246.538 72.1551,-241.437 66.9474,-236.759"/>
</g>
<!-- 6&#45;&gt;4 -->
<g id="edge14" class="edge"><title>6&#45;&gt;4</title>
<path fill="none" stroke="black" stroke-width="2" d="M212.832,-137.359C234.128,-146.481 268.399,-161.161 292.895,-171.654"/>
<polygon fill="black" stroke="black" stroke-width="2" points="291.833,-175.007 302.403,-175.728 294.589,-168.573 291.833,-175.007"/>
</g>
<!-- 7&#45;&gt;2 -->
<g id="edge11" class="edge"><title>7&#45;&gt;2</title>
<path fill="none" stroke="black" stroke-width="2" d="M163.47,-158.397C158.991,-131.214 151.15,-83.6297 145.982,-52.2676"/>
<polygon fill="black" stroke="black" stroke-width="2" points="149.42,-51.6043 144.34,-42.3065 142.513,-52.7425 149.42,-51.6043"/>
</g>
<!-- 7&#45;&gt;3 -->
<g id="edge13" class="edge"><title>7&#45;&gt;3</title>
<path fill="none" stroke="black" stroke-width="2" d="M149.509,-191.677C129.8,-205.56 97.5023,-228.312 74.8193,-244.291"/>
<polygon fill="black" stroke="black" stroke-width="2" points="72.5061,-241.639 66.3465,-250.26 76.5374,-247.362 72.5061,-241.639"/>
</g>
<!-- 7&#45;&gt;4 -->
<g id="edge15" class="edge"><title>7&#45;&gt;4</title>
<path fill="none" stroke="black" stroke-width="2" d="M188.191,-180.059C214.635,-180.875 260.013,-182.276 290.542,-183.218"/>
<polygon fill="black" stroke="black" stroke-width="2" points="290.563,-186.72 300.666,-183.53 290.779,-179.723 290.563,-186.72"/>
</g>
<!-- 7&#45;&gt;5 -->
<g id="edge16" class="edge"><title>7&#45;&gt;5</title>
<path fill="none" stroke="black" stroke-width="2" d="M145.55,-180.856C133.915,-181.646 119.297,-182.639 106.368,-183.517"/>
<polygon fill="black" stroke="black" stroke-width="2" points="105.748,-180.051 96.0085,-184.221 106.223,-187.035 105.748,-180.051"/>
</g>
</g>
</svg>

