<?xml version="1.0" encoding="UTF-8" standalone="no"?>
<!DOCTYPE svg PUBLIC "-//W3C//DTD SVG 1.1//EN"
 "http://www.w3.org/Graphics/SVG/1.1/DTD/svg11.dtd">
<!-- Generated by graphviz version 2.36.0 (20140111.2315)
 -->
<!-- Title: G Pages: 1 -->
<svg width="100%" height="100%"
 viewBox="0.00 0.00 240.21 203.95" xmlns="http://www.w3.org/2000/svg" xmlns:xlink="http://www.w3.org/1999/xlink">
<g id="graph0" class="graph" transform="scale(1 1) rotate(0) translate(4 199.95)">
<title>G</title>
<!-- 0 -->
<g id="node1" class="node"><title>0</title>
<ellipse fill="cadetblue" stroke="black" cx="29.7585" cy="-85.5685" rx="21.4286" ry="21.4286"/>
<text text-anchor="middle" x="29.7585" y="-80.5685" font-family="Times New Roman,serif" font-size="20.00">2</text>
</g>
<!-- 6 -->
<g id="node7" class="node"><title>6</title>
<ellipse fill="cadetblue" stroke="black" cx="113.888" cy="-57.3898" rx="21.4286" ry="21.4286"/>
<text text-anchor="middle" x="113.888" y="-52.3898" font-family="Times New Roman,serif" font-size="20.00">2</text>
</g>
<!-- 0&#45;&gt;6 -->
<g id="edge3" class="edge"><title>0&#45;&gt;6</title>
<path fill="none" stroke="black" stroke-width="2" d="M50.124,-78.7472C60.3545,-75.3206 72.943,-71.1041 84.2247,-67.3254"/>
<polygon fill="black" stroke="black" stroke-width="2" points="85.3397,-70.6432 93.7103,-64.1483 83.1164,-64.0056 85.3397,-70.6432"/>
</g>
<!-- 7 -->
<g id="node8" class="node"><title>7</title>
<ellipse fill="brown" stroke="black" cx="123.41" cy="-111.647" rx="21.4286" ry="21.4286"/>
<text text-anchor="middle" x="123.41" y="-106.647" font-family="Times New Roman,serif" font-size="20.00">3</text>
</g>
<!-- 0&#45;&gt;7 -->
<g id="edge4" class="edge"><title>0&#45;&gt;7</title>
<path fill="none" stroke="black" stroke-width="2" d="M50.5429,-91.3561C63.0315,-94.8337 79.1436,-99.3203 93.0402,-103.19"/>
<polygon fill="black" stroke="black" stroke-width="2" points="92.1118,-106.565 102.684,-105.875 93.9896,-99.8211 92.1118,-106.565"/>
</g>
<!-- 1 -->
<g id="node2" class="node"><title>1</title>
<ellipse fill="cadetblue" stroke="black" cx="187.543" cy="-174.736" rx="21.4286" ry="21.4286"/>
<text text-anchor="middle" x="187.543" y="-169.736" font-family="Times New Roman,serif" font-size="20.00">2</text>
</g>
<!-- 1&#45;&gt;7 -->
<g id="edge7" class="edge"><title>1&#45;&gt;7</title>
<path fill="none" stroke="black" stroke-width="2" d="M172.344,-159.785C164.552,-152.119 154.902,-142.626 146.236,-134.101"/>
<polygon fill="black" stroke="black" stroke-width="2" points="148.529,-131.447 138.945,-126.929 143.62,-136.437 148.529,-131.447"/>
</g>
<!-- 2 -->
<g id="node3" class="node"><title>2</title>
<ellipse fill="cadetblue" stroke="black" cx="187.164" cy="-21.2132" rx="21.4286" ry="21.4286"/>
<text text-anchor="middle" x="187.164" y="-16.2132" font-family="Times New Roman,serif" font-size="20.00">2</text>
</g>
<!-- 2&#45;&gt;7 -->
<g id="edge10" class="edge"><title>2&#45;&gt;7</title>
<path fill="none" stroke="black" stroke-width="2" d="M174.872,-38.6497C165.435,-52.0362 152.258,-70.7264 141.601,-85.8433"/>
<polygon fill="black" stroke="black" stroke-width="2" points="138.566,-84.074 135.665,-94.2639 144.288,-88.1074 138.566,-84.074"/>
</g>
<!-- 3 -->
<g id="node4" class="node"><title>3</title>
<ellipse fill="cadetblue" stroke="black" cx="21.2132" cy="-169.056" rx="21.4286" ry="21.4286"/>
<text text-anchor="middle" x="21.2132" y="-164.056" font-family="Times New Roman,serif" font-size="20.00">2</text>
</g>
<!-- 3&#45;&gt;0 -->
<g id="edge1" class="edge"><title>3&#45;&gt;0</title>
<path fill="none" stroke="black" stroke-width="2" d="M23.4138,-147.556C24.3681,-138.233 25.5043,-127.132 26.5498,-116.918"/>
<polygon fill="black" stroke="black" stroke-width="2" points="30.0584,-117.011 27.5949,-106.707 23.0948,-116.298 30.0584,-117.011"/>
</g>
<!-- 4 -->
<g id="node5" class="node"><title>4</title>
<ellipse fill="cadetblue" stroke="black" cx="211.002" cy="-110.697" rx="21.4286" ry="21.4286"/>
<text text-anchor="middle" x="211.002" y="-105.697" font-family="Times New Roman,serif" font-size="20.00">2</text>
</g>
<!-- 4&#45;&gt;1 -->
<g id="edge5" class="edge"><title>4&#45;&gt;1</title>
<path fill="none" stroke="black" stroke-width="2" d="M203.579,-130.959C201.953,-135.398 200.199,-140.186 198.468,-144.911"/>
<polygon fill="black" stroke="black" stroke-width="2" points="195.151,-143.792 194.998,-154.386 201.724,-146.2 195.151,-143.792"/>
</g>
<!-- 4&#45;&gt;2 -->
<g id="edge8" class="edge"><title>4&#45;&gt;2</title>
<path fill="none" stroke="black" stroke-width="2" d="M205.473,-89.9424C202.434,-78.5355 198.609,-64.1752 195.241,-51.5345"/>
<polygon fill="black" stroke="black" stroke-width="2" points="198.619,-50.6169 192.663,-41.8549 191.855,-52.4189 198.619,-50.6169"/>
</g>
<!-- 5 -->
<g id="node6" class="node"><title>5</title>
<ellipse fill="cadetblue" stroke="black" cx="96.8038" cy="-162.078" rx="21.4286" ry="21.4286"/>
<text text-anchor="middle" x="96.8038" y="-157.078" font-family="Times New Roman,serif" font-size="20.00">2</text>
</g>
<!-- 5&#45;&gt;0 -->
<g id="edge2" class="edge"><title>5&#45;&gt;0</title>
<path fill="none" stroke="black" stroke-width="2" d="M82.5853,-145.853C73.3408,-135.303 61.1252,-121.363 50.7695,-109.545"/>
<polygon fill="black" stroke="black" stroke-width="2" points="53.1796,-106.985 43.9566,-101.771 47.9149,-111.599 53.1796,-106.985"/>
</g>
<!-- 5&#45;&gt;3 -->
<g id="edge11" class="edge"><title>5&#45;&gt;3</title>
<path fill="none" stroke="black" stroke-width="2" d="M75.3448,-164.059C68.2629,-164.713 60.2334,-165.454 52.5681,-166.162"/>
<polygon fill="black" stroke="black" stroke-width="2" points="52.1002,-162.69 42.4643,-167.094 52.7437,-169.66 52.1002,-162.69"/>
</g>
<!-- 5&#45;&gt;4 -->
<g id="edge13" class="edge"><title>5&#45;&gt;4</title>
<path fill="none" stroke="black" stroke-width="2" d="M116.176,-153.362C134.304,-145.205 161.617,-132.917 182.28,-123.619"/>
<polygon fill="black" stroke="black" stroke-width="2" points="183.851,-126.751 191.535,-119.456 180.979,-120.367 183.851,-126.751"/>
</g>
<!-- 6&#45;&gt;1 -->
<g id="edge6" class="edge"><title>6&#45;&gt;1</title>
<path fill="none" stroke="black" stroke-width="2" d="M127.617,-73.6682C132.389,-79.6124 137.637,-86.4882 142.011,-93.0477 153.533,-110.324 164.907,-130.728 173.405,-146.822"/>
<polygon fill="black" stroke="black" stroke-width="2" points="170.329,-148.493 178.055,-155.743 176.536,-145.258 170.329,-148.493"/>
</g>
<!-- 6&#45;&gt;2 -->
<g id="edge9" class="edge"><title>6&#45;&gt;2</title>
<path fill="none" stroke="black" stroke-width="2" d="M133.141,-47.8849C141.05,-43.9799 150.367,-39.3802 159.016,-35.1102"/>
<polygon fill="black" stroke="black" stroke-width="2" points="160.623,-38.22 168.04,-30.6547 157.524,-31.9433 160.623,-38.22"/>
</g>
<!-- 6&#45;&gt;5 -->
<g id="edge15" class="edge"><title>6&#45;&gt;5</title>
<path fill="none" stroke="black" stroke-width="2" d="M106.15,-77.4111C102.646,-87.5107 98.8941,-100.05 97.1061,-111.646 96.1658,-117.744 95.7203,-124.306 95.5684,-130.615"/>
<polygon fill="black" stroke="black" stroke-width="2" points="92.0682,-130.861 95.5545,-140.866 99.0681,-130.871 92.0682,-130.861"/>
</g>
<!-- 7&#45;&gt;3 -->
<g id="edge12" class="edge"><title>7&#45;&gt;3</title>
<path fill="none" stroke="black" stroke-width="2" d="M104.666,-122.177C88.9634,-130.997 66.3362,-143.708 48.6033,-153.67"/>
<polygon fill="black" stroke="black" stroke-width="2" points="46.8433,-150.644 39.8389,-158.593 50.2717,-156.747 46.8433,-150.644"/>
</g>
<!-- 7&#45;&gt;4 -->
<g id="edge14" class="edge"><title>7&#45;&gt;4</title>
<path fill="none" stroke="black" stroke-width="2" d="M145.062,-111.412C155.457,-111.299 168.111,-111.162 179.543,-111.038"/>
<polygon fill="black" stroke="black" stroke-width="2" points="179.638,-114.537 189.599,-110.929 179.562,-107.538 179.638,-114.537"/>
</g>
<!-- 7&#45;&gt;5 -->
<g id="edge16" class="edge"><title>7&#45;&gt;5</title>
<path fill="none" stroke="black" stroke-width="2" d="M113.503,-130.426C112.888,-131.591 112.263,-132.777 111.633,-133.971"/>
<polygon fill="black" stroke="black" stroke-width="2" points="108.379,-132.638 106.808,-143.116 114.57,-135.904 108.379,-132.638"/>
</g>
<!-- 7&#45;&gt;6 -->
<g id="edge17" class="edge"><title>7&#45;&gt;6</title>
<path fill="none" stroke="black" stroke-width="2" d="M119.702,-90.5143C119.594,-89.9006 119.485,-89.2826 119.376,-88.6617"/>
<polygon fill="black" stroke="black" stroke-width="2" points="122.779,-87.7984 117.603,-78.554 115.884,-89.0085 122.779,-87.7984"/>
</g>
</g>
</svg>

