<?xml version="1.0" encoding="UTF-8" standalone="no"?>
<!DOCTYPE svg PUBLIC "-//W3C//DTD SVG 1.1//EN"
 "http://www.w3.org/Graphics/SVG/1.1/DTD/svg11.dtd">
<!-- Generated by graphviz version 2.36.0 (20140111.2315)
 -->
<!-- Title: G Pages: 1 -->
<svg width="100%" height="100%"
 viewBox="0.00 0.00 211.73 207.64" xmlns="http://www.w3.org/2000/svg" xmlns:xlink="http://www.w3.org/1999/xlink">
<g id="graph0" class="graph" transform="scale(1 1) rotate(0) translate(4 203.636)">
<title>G</title>
<!-- 0 -->
<g id="node1" class="node"><title>0</title>
<ellipse fill="cadetblue" stroke="black" cx="52.2379" cy="-170.758" rx="21.4286" ry="21.4286"/>
<text text-anchor="middle" x="52.2379" y="-165.758" font-family="Times New Roman,serif" font-size="20.00">2</text>
</g>
<!-- 7 -->
<g id="node8" class="node"><title>7</title>
<ellipse fill="cadetblue" stroke="black" cx="60.3078" cy="-39.9015" rx="21.4286" ry="21.4286"/>
<text text-anchor="middle" x="60.3078" y="-34.9015" font-family="Times New Roman,serif" font-size="20.00">2</text>
</g>
<!-- 0&#45;&gt;7 -->
<g id="edge3" class="edge"><title>0&#45;&gt;7</title>
<path fill="none" stroke="black" stroke-width="2" d="M53.5525,-149.442C54.8597,-128.245 56.8799,-95.4864 58.3708,-71.3112"/>
<polygon fill="black" stroke="black" stroke-width="2" points="61.8716,-71.4044 58.9938,-61.2079 54.8849,-70.9735 61.8716,-71.4044"/>
</g>
<!-- 1 -->
<g id="node2" class="node"><title>1</title>
<ellipse fill="cadetblue" stroke="black" cx="90.9136" cy="-105.324" rx="21.4286" ry="21.4286"/>
<text text-anchor="middle" x="90.9136" y="-100.324" font-family="Times New Roman,serif" font-size="20.00">2</text>
</g>
<!-- 6 -->
<g id="node7" class="node"><title>6</title>
<ellipse fill="cadetblue" stroke="black" cx="167.638" cy="-76.369" rx="21.4286" ry="21.4286"/>
<text text-anchor="middle" x="167.638" y="-71.369" font-family="Times New Roman,serif" font-size="20.00">2</text>
</g>
<!-- 1&#45;&gt;6 -->
<g id="edge6" class="edge"><title>1&#45;&gt;6</title>
<path fill="none" stroke="black" stroke-width="2" d="M111.072,-97.7165C119.354,-94.591 129.109,-90.9095 138.165,-87.4919"/>
<polygon fill="black" stroke="black" stroke-width="2" points="139.494,-90.7313 147.614,-83.9258 137.022,-84.1821 139.494,-90.7313"/>
</g>
<!-- 1&#45;&gt;7 -->
<g id="edge7" class="edge"><title>1&#45;&gt;7</title>
<path fill="none" stroke="black" stroke-width="2" d="M81.8964,-86.049C79.3044,-80.5083 76.4212,-74.3452 73.6276,-68.3738"/>
<polygon fill="black" stroke="black" stroke-width="2" points="76.7741,-66.8396 69.3663,-59.2649 70.4336,-69.8058 76.7741,-66.8396"/>
</g>
<!-- 2 -->
<g id="node3" class="node"><title>2</title>
<ellipse fill="cadetblue" stroke="black" cx="130.187" cy="-21.2132" rx="21.4286" ry="21.4286"/>
<text text-anchor="middle" x="130.187" y="-16.2132" font-family="Times New Roman,serif" font-size="20.00">2</text>
</g>
<!-- 4 -->
<g id="node5" class="node"><title>4</title>
<ellipse fill="cadetblue" stroke="black" cx="182.518" cy="-140.068" rx="21.4286" ry="21.4286"/>
<text text-anchor="middle" x="182.518" y="-135.068" font-family="Times New Roman,serif" font-size="20.00">2</text>
</g>
<!-- 2&#45;&gt;4 -->
<g id="edge8" class="edge"><title>2&#45;&gt;4</title>
<path fill="none" stroke="black" stroke-width="2" d="M132.565,-42.3429C134.992,-57.7198 139.774,-78.6203 149.016,-94.9468 152.915,-101.835 157.707,-108.889 162.435,-115.311"/>
<polygon fill="black" stroke="black" stroke-width="2" points="159.908,-117.77 168.752,-123.603 165.476,-113.528 159.908,-117.77"/>
</g>
<!-- 5 -->
<g id="node6" class="node"><title>5</title>
<ellipse fill="cadetblue" stroke="black" cx="21.2132" cy="-90.3329" rx="21.4286" ry="21.4286"/>
<text text-anchor="middle" x="21.2132" y="-85.3329" font-family="Times New Roman,serif" font-size="20.00">2</text>
</g>
<!-- 2&#45;&gt;5 -->
<g id="edge9" class="edge"><title>2&#45;&gt;5</title>
<path fill="none" stroke="black" stroke-width="2" d="M113,-34.5367C103.216,-41.9099 90.6103,-51.0594 78.9069,-58.5023 69.4954,-64.4878 58.8841,-70.5311 49.3521,-75.7201"/>
<polygon fill="black" stroke="black" stroke-width="2" points="47.425,-72.7818 40.2643,-80.5904 50.7316,-78.9517 47.425,-72.7818"/>
</g>
<!-- 3 -->
<g id="node4" class="node"><title>3</title>
<ellipse fill="cadetblue" stroke="black" cx="112.633" cy="-178.423" rx="21.4286" ry="21.4286"/>
<text text-anchor="middle" x="112.633" y="-173.423" font-family="Times New Roman,serif" font-size="20.00">2</text>
</g>
<!-- 3&#45;&gt;0 -->
<g id="edge1" class="edge"><title>3&#45;&gt;0</title>
<path fill="none" stroke="black" stroke-width="2" d="M91.5097,-175.742C88.95,-175.417 86.2944,-175.08 83.6264,-174.742"/>
<polygon fill="black" stroke="black" stroke-width="2" points="83.8125,-171.237 73.4513,-173.45 82.931,-178.182 83.8125,-171.237"/>
</g>
<!-- 3&#45;&gt;1 -->
<g id="edge4" class="edge"><title>3&#45;&gt;1</title>
<path fill="none" stroke="black" stroke-width="2" d="M106.583,-158.061C104.506,-151.07 102.134,-143.089 99.8761,-135.488"/>
<polygon fill="black" stroke="black" stroke-width="2" points="103.21,-134.42 97.0066,-125.831 96.4997,-136.413 103.21,-134.42"/>
</g>
<!-- 4&#45;&gt;0 -->
<g id="edge2" class="edge"><title>4&#45;&gt;0</title>
<path fill="none" stroke="black" stroke-width="2" d="M161.286,-143.008C147.37,-145.112 128.831,-148.251 112.677,-152.119 102.611,-154.529 91.7642,-157.691 82.0759,-160.725"/>
<polygon fill="black" stroke="black" stroke-width="2" points="80.9334,-157.415 72.4804,-163.803 83.0716,-164.081 80.9334,-157.415"/>
</g>
<!-- 5&#45;&gt;1 -->
<g id="edge5" class="edge"><title>5&#45;&gt;1</title>
<path fill="none" stroke="black" stroke-width="2" d="M42.1256,-94.8308C47.7771,-96.0463 54.014,-97.3877 60.0858,-98.6936"/>
<polygon fill="black" stroke="black" stroke-width="2" points="59.5036,-102.148 70.016,-100.829 60.9755,-95.3049 59.5036,-102.148"/>
</g>
<!-- 5&#45;&gt;3 -->
<g id="edge12" class="edge"><title>5&#45;&gt;3</title>
<path fill="none" stroke="black" stroke-width="2" d="M36.7213,-105.276C51.2558,-119.281 73.1643,-140.392 89.7151,-156.34"/>
<polygon fill="black" stroke="black" stroke-width="2" points="87.7243,-159.282 97.3539,-163.701 92.5814,-154.241 87.7243,-159.282"/>
</g>
<!-- 6&#45;&gt;2 -->
<g id="edge10" class="edge"><title>6&#45;&gt;2</title>
<path fill="none" stroke="black" stroke-width="2" d="M155.582,-58.6138C153.176,-55.0709 150.602,-51.2793 148.049,-47.5193"/>
<polygon fill="black" stroke="black" stroke-width="2" points="150.733,-45.2421 142.22,-38.9352 144.942,-49.1744 150.733,-45.2421"/>
</g>
<!-- 6&#45;&gt;3 -->
<g id="edge13" class="edge"><title>6&#45;&gt;3</title>
<path fill="none" stroke="black" stroke-width="2" d="M157.549,-95.0873C149.228,-110.527 137.293,-132.671 127.817,-150.252"/>
<polygon fill="black" stroke="black" stroke-width="2" points="124.508,-149.015 122.844,-159.478 130.67,-152.336 124.508,-149.015"/>
</g>
<!-- 6&#45;&gt;4 -->
<g id="edge14" class="edge"><title>6&#45;&gt;4</title>
<path fill="none" stroke="black" stroke-width="2" d="M172.51,-97.2266C173.419,-101.116 174.385,-105.254 175.346,-109.367"/>
<polygon fill="black" stroke="black" stroke-width="2" points="172.002,-110.44 177.685,-119.382 178.819,-108.847 172.002,-110.44"/>
</g>
<!-- 7&#45;&gt;2 -->
<g id="edge11" class="edge"><title>7&#45;&gt;2</title>
<path fill="none" stroke="black" stroke-width="2" d="M80.8958,-34.3955C86.8138,-32.8127 93.3967,-31.0522 99.7749,-29.3464"/>
<polygon fill="black" stroke="black" stroke-width="2" points="100.748,-32.7093 109.504,-26.7444 98.9395,-25.9469 100.748,-32.7093"/>
</g>
<!-- 7&#45;&gt;5 -->
<g id="edge15" class="edge"><title>7&#45;&gt;5</title>
<path fill="none" stroke="black" stroke-width="2" d="M47.2899,-56.6944C45.1367,-59.472 42.8641,-62.4036 40.5944,-65.3314"/>
<polygon fill="black" stroke="black" stroke-width="2" points="37.6682,-63.3936 34.3076,-73.4414 43.2005,-67.6823 37.6682,-63.3936"/>
</g>
<!-- 7&#45;&gt;6 -->
<g id="edge16" class="edge"><title>7&#45;&gt;6</title>
<path fill="none" stroke="black" stroke-width="2" d="M80.4958,-46.7607C96.6865,-52.2618 119.646,-60.0628 137.934,-66.2764"/>
<polygon fill="black" stroke="black" stroke-width="2" points="136.946,-69.6373 147.541,-69.5405 139.198,-63.0094 136.946,-69.6373"/>
</g>
</g>
</svg>

