<?xml version="1.0" encoding="UTF-8" standalone="no"?>
<!DOCTYPE svg PUBLIC "-//W3C//DTD SVG 1.1//EN"
 "http://www.w3.org/Graphics/SVG/1.1/DTD/svg11.dtd">
<!-- Generated by graphviz version 2.36.0 (20140111.2315)
 -->
<!-- Title: G Pages: 1 -->
<svg width="100%" height="100%"
 viewBox="0.00 0.00 226.40 298.19" xmlns="http://www.w3.org/2000/svg" xmlns:xlink="http://www.w3.org/1999/xlink">
<g id="graph0" class="graph" transform="scale(1 1) rotate(0) translate(4 294.188)">
<title>G</title>
<!-- 0 -->
<g id="node1" class="node"><title>0</title>
<ellipse fill="cadetblue" stroke="black" cx="95.4882" cy="-213.98" rx="21.4286" ry="21.4286"/>
<text text-anchor="middle" x="95.4882" y="-208.98" font-family="Times New Roman,serif" font-size="20.00">2</text>
</g>
<!-- 5 -->
<g id="node6" class="node"><title>5</title>
<ellipse fill="cadetblue" stroke="black" cx="21.2132" cy="-100.556" rx="21.4286" ry="21.4286"/>
<text text-anchor="middle" x="21.2132" y="-95.556" font-family="Times New Roman,serif" font-size="20.00">2</text>
</g>
<!-- 0&#45;&gt;5 -->
<g id="edge3" class="edge"><title>0&#45;&gt;5</title>
<path fill="none" stroke="black" stroke-width="2" d="M76.7971,-203.817C68.0842,-198.322 58.1369,-190.859 51.2147,-182.081 39.647,-167.412 32.2497,-147.852 27.6952,-131.568"/>
<polygon fill="black" stroke="black" stroke-width="2" points="30.9691,-130.244 25.0975,-121.425 24.1879,-131.981 30.9691,-130.244"/>
</g>
<!-- 6 -->
<g id="node7" class="node"><title>6</title>
<ellipse fill="cadetblue" stroke="black" cx="184.36" cy="-98.9093" rx="21.4286" ry="21.4286"/>
<text text-anchor="middle" x="184.36" y="-93.9093" font-family="Times New Roman,serif" font-size="20.00">2</text>
</g>
<!-- 0&#45;&gt;6 -->
<g id="edge4" class="edge"><title>0&#45;&gt;6</title>
<path fill="none" stroke="black" stroke-width="2" d="M108.602,-197.001C123.501,-177.71 147.959,-146.041 165.042,-123.922"/>
<polygon fill="black" stroke="black" stroke-width="2" points="167.851,-126.012 171.193,-115.958 162.311,-121.733 167.851,-126.012"/>
</g>
<!-- 1 -->
<g id="node2" class="node"><title>1</title>
<ellipse fill="brown" stroke="black" cx="69.8824" cy="-163.549" rx="21.4286" ry="21.4286"/>
<text text-anchor="middle" x="69.8824" y="-158.549" font-family="Times New Roman,serif" font-size="20.00">3</text>
</g>
<!-- 7 -->
<g id="node8" class="node"><title>7</title>
<ellipse fill="cadetblue" stroke="black" cx="128.517" cy="-126.983" rx="21.4286" ry="21.4286"/>
<text text-anchor="middle" x="128.517" y="-121.983" font-family="Times New Roman,serif" font-size="20.00">2</text>
</g>
<!-- 1&#45;&gt;7 -->
<g id="edge8" class="edge"><title>1&#45;&gt;7</title>
<path fill="none" stroke="black" stroke-width="2" d="M88.1132,-152.18C92.4562,-149.471 97.1798,-146.525 101.815,-143.635"/>
<polygon fill="black" stroke="black" stroke-width="2" points="103.865,-146.481 110.498,-138.22 100.161,-140.541 103.865,-146.481"/>
</g>
<!-- 2 -->
<g id="node3" class="node"><title>2</title>
<ellipse fill="cadetblue" stroke="black" cx="106.371" cy="-21.2132" rx="21.4286" ry="21.4286"/>
<text text-anchor="middle" x="106.371" y="-16.2132" font-family="Times New Roman,serif" font-size="20.00">2</text>
</g>
<!-- 2&#45;&gt;6 -->
<g id="edge10" class="edge"><title>2&#45;&gt;6</title>
<path fill="none" stroke="black" stroke-width="2" d="M121.408,-36.1938C132.879,-47.6211 148.864,-63.5468 161.856,-76.4901"/>
<polygon fill="black" stroke="black" stroke-width="2" points="159.549,-79.1314 169.103,-83.7096 164.489,-74.1723 159.549,-79.1314"/>
</g>
<!-- 3 -->
<g id="node4" class="node"><title>3</title>
<ellipse fill="cadetblue" stroke="black" cx="165.659" cy="-268.975" rx="21.4286" ry="21.4286"/>
<text text-anchor="middle" x="165.659" y="-263.975" font-family="Times New Roman,serif" font-size="20.00">2</text>
</g>
<!-- 3&#45;&gt;0 -->
<g id="edge1" class="edge"><title>3&#45;&gt;0</title>
<path fill="none" stroke="black" stroke-width="2" d="M148.673,-255.662C140.14,-248.975 129.64,-240.746 120.23,-233.371"/>
<polygon fill="black" stroke="black" stroke-width="2" points="122.348,-230.584 112.318,-227.17 118.03,-236.094 122.348,-230.584"/>
</g>
<!-- 4 -->
<g id="node5" class="node"><title>4</title>
<ellipse fill="cadetblue" stroke="black" cx="197.183" cy="-191.321" rx="21.4286" ry="21.4286"/>
<text text-anchor="middle" x="197.183" y="-186.321" font-family="Times New Roman,serif" font-size="20.00">2</text>
</g>
<!-- 4&#45;&gt;0 -->
<g id="edge2" class="edge"><title>4&#45;&gt;0</title>
<path fill="none" stroke="black" stroke-width="2" d="M176.111,-196.016C161.794,-199.206 142.614,-203.48 126.554,-207.058"/>
<polygon fill="black" stroke="black" stroke-width="2" points="125.532,-203.7 116.532,-209.291 127.054,-210.532 125.532,-203.7"/>
</g>
<!-- 4&#45;&gt;1 -->
<g id="edge5" class="edge"><title>4&#45;&gt;1</title>
<path fill="none" stroke="black" stroke-width="2" d="M176.446,-186.797C155.826,-182.298 123.957,-175.346 100.439,-170.215"/>
<polygon fill="black" stroke="black" stroke-width="2" points="101.126,-166.783 90.6098,-168.071 99.634,-173.622 101.126,-166.783"/>
</g>
<!-- 4&#45;&gt;3 -->
<g id="edge12" class="edge"><title>4&#45;&gt;3</title>
<path fill="none" stroke="black" stroke-width="2" d="M189.065,-211.319C185.544,-219.99 181.353,-230.315 177.496,-239.816"/>
<polygon fill="black" stroke="black" stroke-width="2" points="174.159,-238.731 173.641,-249.314 180.645,-241.364 174.159,-238.731"/>
</g>
<!-- 5&#45;&gt;1 -->
<g id="edge6" class="edge"><title>5&#45;&gt;1</title>
<path fill="none" stroke="black" stroke-width="2" d="M34.2557,-117.437C39.2746,-123.933 45.1171,-131.495 50.6013,-138.593"/>
<polygon fill="black" stroke="black" stroke-width="2" points="47.9203,-140.848 56.8039,-146.621 53.4596,-136.568 47.9203,-140.848"/>
</g>
<!-- 5&#45;&gt;2 -->
<g id="edge9" class="edge"><title>5&#45;&gt;2</title>
<path fill="none" stroke="black" stroke-width="2" d="M36.8325,-86.0033C49.7158,-73.9997 68.1933,-56.784 82.8636,-43.1154"/>
<polygon fill="black" stroke="black" stroke-width="2" points="85.6318,-45.32 90.5624,-35.9423 80.86,-40.1984 85.6318,-45.32"/>
</g>
<!-- 6&#45;&gt;1 -->
<g id="edge7" class="edge"><title>6&#45;&gt;1</title>
<path fill="none" stroke="black" stroke-width="2" d="M173.059,-117.176C166.448,-126.664 157.388,-137.856 147.116,-145.584 133.976,-155.469 116.286,-160.041 101.151,-162.105"/>
<polygon fill="black" stroke="black" stroke-width="2" points="100.742,-158.629 91.1688,-163.168 101.483,-165.589 100.742,-158.629"/>
</g>
<!-- 6&#45;&gt;4 -->
<g id="edge14" class="edge"><title>6&#45;&gt;4</title>
<path fill="none" stroke="black" stroke-width="2" d="M187.334,-120.343C188.969,-132.123 191.026,-146.953 192.838,-160.007"/>
<polygon fill="black" stroke="black" stroke-width="2" points="189.384,-160.58 194.225,-170.004 196.317,-159.618 189.384,-160.58"/>
</g>
<!-- 6&#45;&gt;7 -->
<g id="edge17" class="edge"><title>6&#45;&gt;7</title>
<path fill="none" stroke="black" stroke-width="2" d="M165.142,-108.571C162.391,-109.954 159.515,-111.399 156.636,-112.847"/>
<polygon fill="black" stroke="black" stroke-width="2" points="154.944,-109.78 147.581,-117.399 158.088,-116.035 154.944,-109.78"/>
</g>
<!-- 7&#45;&gt;2 -->
<g id="edge11" class="edge"><title>7&#45;&gt;2</title>
<path fill="none" stroke="black" stroke-width="2" d="M124.141,-106.086C120.926,-90.7306 116.504,-69.6112 112.876,-52.2815"/>
<polygon fill="black" stroke="black" stroke-width="2" points="116.212,-51.137 110.737,-42.0665 109.361,-52.5716 116.212,-51.137"/>
</g>
<!-- 7&#45;&gt;3 -->
<g id="edge13" class="edge"><title>7&#45;&gt;3</title>
<path fill="none" stroke="black" stroke-width="2" d="M133.917,-147.63C140.162,-171.501 150.499,-211.018 157.673,-238.442"/>
<polygon fill="black" stroke="black" stroke-width="2" points="154.335,-239.514 160.252,-248.303 161.107,-237.743 154.335,-239.514"/>
</g>
<!-- 7&#45;&gt;4 -->
<g id="edge15" class="edge"><title>7&#45;&gt;4</title>
<path fill="none" stroke="black" stroke-width="2" d="M144.098,-141.582C152.965,-149.891 164.24,-160.454 174.115,-169.708"/>
<polygon fill="black" stroke="black" stroke-width="2" points="171.972,-172.496 181.663,-176.779 176.759,-167.388 171.972,-172.496"/>
</g>
<!-- 7&#45;&gt;5 -->
<g id="edge16" class="edge"><title>7&#45;&gt;5</title>
<path fill="none" stroke="black" stroke-width="2" d="M107.827,-121.888C91.8695,-117.958 69.5596,-112.463 51.579,-108.035"/>
<polygon fill="black" stroke="black" stroke-width="2" points="52.3857,-104.629 41.8389,-105.636 50.7117,-111.426 52.3857,-104.629"/>
</g>
</g>
</svg>

