<?xml version="1.0" encoding="UTF-8" standalone="no"?>
<!DOCTYPE svg PUBLIC "-//W3C//DTD SVG 1.1//EN"
 "http://www.w3.org/Graphics/SVG/1.1/DTD/svg11.dtd">
<!-- Generated by graphviz version 2.36.0 (20140111.2315)
 -->
<!-- Title: G Pages: 1 -->
<svg width="100%" height="100%"
 viewBox="0.00 0.00 243.15 267.29" xmlns="http://www.w3.org/2000/svg" xmlns:xlink="http://www.w3.org/1999/xlink">
<g id="graph0" class="graph" transform="scale(1 1) rotate(0) translate(4 263.294)">
<title>G</title>
<!-- 0 -->
<g id="node1" class="node"><title>0</title>
<ellipse fill="cadetblue" stroke="black" cx="128.388" cy="-90.6695" rx="21.4286" ry="21.4286"/>
<text text-anchor="middle" x="128.388" y="-85.6695" font-family="Times New Roman,serif" font-size="20.00">2</text>
</g>
<!-- 5 -->
<g id="node6" class="node"><title>5</title>
<ellipse fill="brown" stroke="black" cx="21.2132" cy="-107.971" rx="21.4286" ry="21.4286"/>
<text text-anchor="middle" x="21.2132" y="-102.971" font-family="Times New Roman,serif" font-size="20.00">3</text>
</g>
<!-- 0&#45;&gt;5 -->
<g id="edge3" class="edge"><title>0&#45;&gt;5</title>
<path fill="none" stroke="black" stroke-width="2" d="M107.214,-94.0878C91.6542,-96.5997 70.2542,-100.054 52.6943,-102.889"/>
<polygon fill="black" stroke="black" stroke-width="2" points="51.6579,-99.5111 42.3436,-104.56 52.7736,-106.422 51.6579,-99.5111"/>
</g>
<!-- 6 -->
<g id="node7" class="node"><title>6</title>
<ellipse fill="cadetblue" stroke="black" cx="213.937" cy="-81.6274" rx="21.4286" ry="21.4286"/>
<text text-anchor="middle" x="213.937" y="-76.6274" font-family="Times New Roman,serif" font-size="20.00">2</text>
</g>
<!-- 0&#45;&gt;6 -->
<g id="edge4" class="edge"><title>0&#45;&gt;6</title>
<path fill="none" stroke="black" stroke-width="2" d="M149.535,-88.4344C159.509,-87.3802 171.612,-86.1009 182.621,-84.9373"/>
<polygon fill="black" stroke="black" stroke-width="2" points="183.16,-88.3999 192.737,-83.8681 182.424,-81.4387 183.16,-88.3999"/>
</g>
<!-- 7 -->
<g id="node8" class="node"><title>7</title>
<ellipse fill="cadetblue" stroke="black" cx="68.1579" cy="-158.403" rx="21.4286" ry="21.4286"/>
<text text-anchor="middle" x="68.1579" y="-153.403" font-family="Times New Roman,serif" font-size="20.00">2</text>
</g>
<!-- 0&#45;&gt;7 -->
<g id="edge5" class="edge"><title>0&#45;&gt;7</title>
<path fill="none" stroke="black" stroke-width="2" d="M114.115,-106.721C106.614,-115.157 97.2797,-125.653 88.9871,-134.979"/>
<polygon fill="black" stroke="black" stroke-width="2" points="86.3589,-132.668 82.3293,-142.466 91.5899,-137.319 86.3589,-132.668"/>
</g>
<!-- 1 -->
<g id="node2" class="node"><title>1</title>
<ellipse fill="cadetblue" stroke="black" cx="24.9284" cy="-238.081" rx="21.4286" ry="21.4286"/>
<text text-anchor="middle" x="24.9284" y="-233.081" font-family="Times New Roman,serif" font-size="20.00">2</text>
</g>
<!-- 1&#45;&gt;7 -->
<g id="edge8" class="edge"><title>1&#45;&gt;7</title>
<path fill="none" stroke="black" stroke-width="2" d="M35.1732,-219.198C40.5569,-209.275 47.2562,-196.928 53.2081,-185.957"/>
<polygon fill="black" stroke="black" stroke-width="2" points="56.2942,-187.609 57.9867,-177.15 50.1414,-184.27 56.2942,-187.609"/>
</g>
<!-- 2 -->
<g id="node3" class="node"><title>2</title>
<ellipse fill="cadetblue" stroke="black" cx="85.4133" cy="-21.2132" rx="21.4286" ry="21.4286"/>
<text text-anchor="middle" x="85.4133" y="-16.2132" font-family="Times New Roman,serif" font-size="20.00">2</text>
</g>
<!-- 2&#45;&gt;6 -->
<g id="edge10" class="edge"><title>2&#45;&gt;6</title>
<path fill="none" stroke="black" stroke-width="2" d="M104.655,-30.2578C126.044,-40.3124 160.808,-56.6535 185.375,-68.2015"/>
<polygon fill="black" stroke="black" stroke-width="2" points="184.025,-71.4343 194.564,-72.521 187.003,-65.0993 184.025,-71.4343"/>
</g>
<!-- 3 -->
<g id="node4" class="node"><title>3</title>
<ellipse fill="cadetblue" stroke="black" cx="167.33" cy="-156.039" rx="21.4286" ry="21.4286"/>
<text text-anchor="middle" x="167.33" y="-151.039" font-family="Times New Roman,serif" font-size="20.00">2</text>
</g>
<!-- 3&#45;&gt;0 -->
<g id="edge1" class="edge"><title>3&#45;&gt;0</title>
<path fill="none" stroke="black" stroke-width="2" d="M156.275,-137.482C152.627,-131.357 148.49,-124.414 144.541,-117.785"/>
<polygon fill="black" stroke="black" stroke-width="2" points="147.461,-115.847 139.336,-109.047 141.447,-119.43 147.461,-115.847"/>
</g>
<!-- 3&#45;&gt;5 -->
<g id="edge12" class="edge"><title>3&#45;&gt;5</title>
<path fill="none" stroke="black" stroke-width="2" d="M147.013,-149.356C122.181,-141.187 79.9445,-127.292 51.3306,-117.879"/>
<polygon fill="black" stroke="black" stroke-width="2" points="52.4215,-114.553 41.8286,-114.753 50.234,-121.203 52.4215,-114.553"/>
</g>
<!-- 4 -->
<g id="node5" class="node"><title>4</title>
<ellipse fill="cadetblue" stroke="black" cx="152.007" cy="-216.595" rx="21.4286" ry="21.4286"/>
<text text-anchor="middle" x="152.007" y="-211.595" font-family="Times New Roman,serif" font-size="20.00">2</text>
</g>
<!-- 4&#45;&gt;0 -->
<g id="edge2" class="edge"><title>4&#45;&gt;0</title>
<path fill="none" stroke="black" stroke-width="2" d="M148.054,-195.518C144.273,-175.36 138.526,-144.719 134.22,-121.759"/>
<polygon fill="black" stroke="black" stroke-width="2" points="137.638,-120.999 132.355,-111.815 130.758,-122.289 137.638,-120.999"/>
</g>
<!-- 4&#45;&gt;1 -->
<g id="edge6" class="edge"><title>4&#45;&gt;1</title>
<path fill="none" stroke="black" stroke-width="2" d="M131.023,-220.143C110.604,-223.596 79.3349,-228.882 56.0259,-232.823"/>
<polygon fill="black" stroke="black" stroke-width="2" points="55.2206,-229.41 45.944,-234.528 56.3876,-236.312 55.2206,-229.41"/>
</g>
<!-- 5&#45;&gt;1 -->
<g id="edge7" class="edge"><title>5&#45;&gt;1</title>
<path fill="none" stroke="black" stroke-width="2" d="M21.8267,-129.456C22.4263,-150.456 23.346,-182.665 24.0284,-206.564"/>
<polygon fill="black" stroke="black" stroke-width="2" points="20.5299,-206.668 24.314,-216.564 27.527,-206.468 20.5299,-206.668"/>
</g>
<!-- 5&#45;&gt;2 -->
<g id="edge9" class="edge"><title>5&#45;&gt;2</title>
<path fill="none" stroke="black" stroke-width="2" d="M33.8971,-90.8308C43.2178,-78.2351 56.0368,-60.9118 66.5555,-46.6971"/>
<polygon fill="black" stroke="black" stroke-width="2" points="69.6208,-48.4386 72.7558,-38.3182 63.9939,-44.2748 69.6208,-48.4386"/>
</g>
<!-- 6&#45;&gt;3 -->
<g id="edge13" class="edge"><title>6&#45;&gt;3</title>
<path fill="none" stroke="black" stroke-width="2" d="M202.654,-99.6404C197.085,-108.532 190.255,-119.437 184.09,-129.281"/>
<polygon fill="black" stroke="black" stroke-width="2" points="181.012,-127.601 178.67,-137.934 186.944,-131.317 181.012,-127.601"/>
</g>
<!-- 6&#45;&gt;4 -->
<g id="edge15" class="edge"><title>6&#45;&gt;4</title>
<path fill="none" stroke="black" stroke-width="2" d="M210.608,-102.776C206.83,-122.454 199.364,-152.057 185.899,-174.67 182.231,-180.829 177.724,-187.056 173.208,-192.759"/>
<polygon fill="black" stroke="black" stroke-width="2" points="170.347,-190.728 166.683,-200.669 175.746,-195.182 170.347,-190.728"/>
</g>
<!-- 7&#45;&gt;2 -->
<g id="edge11" class="edge"><title>7&#45;&gt;2</title>
<path fill="none" stroke="black" stroke-width="2" d="M70.8163,-137.268C73.6579,-114.675 78.1941,-78.61 81.4557,-52.6781"/>
<polygon fill="black" stroke="black" stroke-width="2" points="84.9481,-52.9571 82.7235,-42.5985 78.0028,-52.0835 84.9481,-52.9571"/>
</g>
<!-- 7&#45;&gt;3 -->
<g id="edge14" class="edge"><title>7&#45;&gt;3</title>
<path fill="none" stroke="black" stroke-width="2" d="M89.6768,-157.89C103.062,-157.571 120.517,-157.155 135.486,-156.798"/>
<polygon fill="black" stroke="black" stroke-width="2" points="135.939,-160.288 145.853,-156.551 135.772,-153.29 135.939,-160.288"/>
</g>
<!-- 7&#45;&gt;4 -->
<g id="edge16" class="edge"><title>7&#45;&gt;4</title>
<path fill="none" stroke="black" stroke-width="2" d="M85.9402,-170.744C97.5798,-178.822 112.986,-189.514 125.992,-198.541"/>
<polygon fill="black" stroke="black" stroke-width="2" points="124.327,-201.645 134.538,-204.472 128.318,-195.895 124.327,-201.645"/>
</g>
<!-- 7&#45;&gt;5 -->
<g id="edge17" class="edge"><title>7&#45;&gt;5</title>
<path fill="none" stroke="black" stroke-width="2" d="M53.5617,-142.722C50.1501,-139.058 46.4452,-135.077 42.8013,-131.163"/>
<polygon fill="black" stroke="black" stroke-width="2" points="45.3375,-128.751 35.9621,-123.816 40.2138,-133.52 45.3375,-128.751"/>
</g>
</g>
</svg>

