<?xml version="1.0" encoding="UTF-8" standalone="no"?>
<!DOCTYPE svg PUBLIC "-//W3C//DTD SVG 1.1//EN"
 "http://www.w3.org/Graphics/SVG/1.1/DTD/svg11.dtd">
<!-- Generated by graphviz version 2.36.0 (20140111.2315)
 -->
<!-- Title: G Pages: 1 -->
<svg width="100%" height="100%"
 viewBox="0.00 0.00 195.64 247.93" xmlns="http://www.w3.org/2000/svg" xmlns:xlink="http://www.w3.org/1999/xlink">
<g id="graph0" class="graph" transform="scale(1 1) rotate(0) translate(4 243.928)">
<title>G</title>
<!-- 0 -->
<g id="node1" class="node"><title>0</title>
<ellipse fill="cadetblue" stroke="black" cx="134.587" cy="-145.949" rx="21.4286" ry="21.4286"/>
<text text-anchor="middle" x="134.587" y="-140.949" font-family="Times New Roman,serif" font-size="20.00">2</text>
</g>
<!-- 3 -->
<g id="node4" class="node"><title>3</title>
<ellipse fill="cadetblue" stroke="black" cx="84.5625" cy="-218.715" rx="21.4286" ry="21.4286"/>
<text text-anchor="middle" x="84.5625" y="-213.715" font-family="Times New Roman,serif" font-size="20.00">2</text>
</g>
<!-- 0&#45;&gt;3 -->
<g id="edge1" class="edge"><title>0&#45;&gt;3</title>
<path fill="none" stroke="black" stroke-width="2" d="M122.478,-163.563C116.5,-172.258 109.169,-182.922 102.551,-192.548"/>
<polygon fill="black" stroke="black" stroke-width="2" points="99.515,-190.787 96.734,-201.01 105.283,-194.753 99.515,-190.787"/>
</g>
<!-- 4 -->
<g id="node5" class="node"><title>4</title>
<ellipse fill="cadetblue" stroke="black" cx="166.422" cy="-71.6416" rx="21.4286" ry="21.4286"/>
<text text-anchor="middle" x="166.422" y="-66.6416" font-family="Times New Roman,serif" font-size="20.00">2</text>
</g>
<!-- 0&#45;&gt;4 -->
<g id="edge2" class="edge"><title>0&#45;&gt;4</title>
<path fill="none" stroke="black" stroke-width="2" d="M142.952,-126.425C146.325,-118.552 150.287,-109.304 153.985,-100.672"/>
<polygon fill="black" stroke="black" stroke-width="2" points="157.282,-101.863 158.003,-91.2925 150.848,-99.1061 157.282,-101.863"/>
</g>
<!-- 5 -->
<g id="node6" class="node"><title>5</title>
<ellipse fill="cadetblue" stroke="black" cx="47.7378" cy="-87.7736" rx="21.4286" ry="21.4286"/>
<text text-anchor="middle" x="47.7378" y="-82.7736" font-family="Times New Roman,serif" font-size="20.00">2</text>
</g>
<!-- 0&#45;&gt;5 -->
<g id="edge3" class="edge"><title>0&#45;&gt;5</title>
<path fill="none" stroke="black" stroke-width="2" d="M115.953,-135.11C105.157,-128.674 91.4025,-120.205 79.5684,-112.075 77.4123,-110.594 75.2024,-109.023 73.0011,-107.421"/>
<polygon fill="black" stroke="black" stroke-width="2" points="74.7921,-104.39 64.6855,-101.211 70.6036,-109.999 74.7921,-104.39"/>
</g>
<!-- 1 -->
<g id="node2" class="node"><title>1</title>
<ellipse fill="cadetblue" stroke="black" cx="21.2132" cy="-151.548" rx="21.4286" ry="21.4286"/>
<text text-anchor="middle" x="21.2132" y="-146.548" font-family="Times New Roman,serif" font-size="20.00">2</text>
</g>
<!-- 1&#45;&gt;5 -->
<g id="edge7" class="edge"><title>1&#45;&gt;5</title>
<path fill="none" stroke="black" stroke-width="2" d="M29.4604,-131.719C31.425,-126.996 33.5618,-121.858 35.6589,-116.816"/>
<polygon fill="black" stroke="black" stroke-width="2" points="38.9782,-117.949 39.5868,-107.371 32.515,-115.261 38.9782,-117.949"/>
</g>
<!-- 7 -->
<g id="node8" class="node"><title>7</title>
<ellipse fill="cadetblue" stroke="black" cx="98.1692" cy="-93.4761" rx="21.4286" ry="21.4286"/>
<text text-anchor="middle" x="98.1692" y="-88.4761" font-family="Times New Roman,serif" font-size="20.00">2</text>
</g>
<!-- 1&#45;&gt;7 -->
<g id="edge9" class="edge"><title>1&#45;&gt;7</title>
<path fill="none" stroke="black" stroke-width="2" d="M38.2922,-138.66C48.4547,-130.992 61.5373,-121.119 72.8802,-112.56"/>
<polygon fill="black" stroke="black" stroke-width="2" points="75.2639,-115.146 81.1379,-106.328 71.0474,-109.558 75.2639,-115.146"/>
</g>
<!-- 2 -->
<g id="node3" class="node"><title>2</title>
<ellipse fill="cadetblue" stroke="black" cx="99.7371" cy="-21.2132" rx="21.4286" ry="21.4286"/>
<text text-anchor="middle" x="99.7371" y="-16.2132" font-family="Times New Roman,serif" font-size="20.00">2</text>
</g>
<!-- 2&#45;&gt;4 -->
<g id="edge10" class="edge"><title>2&#45;&gt;4</title>
<path fill="none" stroke="black" stroke-width="2" d="M116.91,-34.1998C124.242,-39.7445 132.951,-46.3301 141.005,-52.4206"/>
<polygon fill="black" stroke="black" stroke-width="2" points="138.988,-55.2837 149.076,-58.5238 143.211,-49.7004 138.988,-55.2837"/>
</g>
<!-- 3&#45;&gt;1 -->
<g id="edge6" class="edge"><title>3&#45;&gt;1</title>
<path fill="none" stroke="black" stroke-width="2" d="M69.8697,-203.137C61.8742,-194.66 51.8291,-184.009 42.9452,-174.59"/>
<polygon fill="black" stroke="black" stroke-width="2" points="45.2339,-171.915 35.8264,-167.042 40.1415,-176.718 45.2339,-171.915"/>
</g>
<!-- 4&#45;&gt;7 -->
<g id="edge14" class="edge"><title>4&#45;&gt;7</title>
<path fill="none" stroke="black" stroke-width="2" d="M145.944,-78.1927C140.41,-79.963 134.303,-81.9168 128.357,-83.8189"/>
<polygon fill="black" stroke="black" stroke-width="2" points="127.091,-80.549 118.633,-86.9296 129.224,-87.2162 127.091,-80.549"/>
</g>
<!-- 5&#45;&gt;2 -->
<g id="edge11" class="edge"><title>5&#45;&gt;2</title>
<path fill="none" stroke="black" stroke-width="2" d="M60.8594,-70.9776C66.7263,-63.4678 73.7636,-54.4599 80.2289,-46.1842"/>
<polygon fill="black" stroke="black" stroke-width="2" points="83.0405,-48.2704 86.4388,-38.2353 77.5243,-43.9609 83.0405,-48.2704"/>
</g>
<!-- 6 -->
<g id="node7" class="node"><title>6</title>
<ellipse fill="cadetblue" stroke="black" cx="74.0875" cy="-159.83" rx="21.4286" ry="21.4286"/>
<text text-anchor="middle" x="74.0875" y="-154.83" font-family="Times New Roman,serif" font-size="20.00">2</text>
</g>
<!-- 5&#45;&gt;6 -->
<g id="edge15" class="edge"><title>5&#45;&gt;6</title>
<path fill="none" stroke="black" stroke-width="2" d="M55.0776,-107.845C57.6188,-114.794 60.5229,-122.736 63.2834,-130.285"/>
<polygon fill="black" stroke="black" stroke-width="2" points="60.0654,-131.676 66.787,-139.866 66.6397,-129.272 60.0654,-131.676"/>
</g>
<!-- 6&#45;&gt;0 -->
<g id="edge4" class="edge"><title>6&#45;&gt;0</title>
<path fill="none" stroke="black" stroke-width="2" d="M94.9081,-155.053C97.728,-154.406 100.669,-153.731 103.62,-153.054"/>
<polygon fill="black" stroke="black" stroke-width="2" points="104.559,-156.43 113.523,-150.782 102.993,-149.607 104.559,-156.43"/>
</g>
<!-- 6&#45;&gt;1 -->
<g id="edge8" class="edge"><title>6&#45;&gt;1</title>
<path fill="none" stroke="black" stroke-width="2" d="M52.8862,-156.509C52.7784,-156.493 52.6706,-156.476 52.5626,-156.459"/>
<polygon fill="black" stroke="black" stroke-width="2" points="52.8405,-152.96 42.4193,-154.87 51.7572,-159.875 52.8405,-152.96"/>
</g>
<!-- 6&#45;&gt;3 -->
<g id="edge13" class="edge"><title>6&#45;&gt;3</title>
<path fill="none" stroke="black" stroke-width="2" d="M77.8101,-180.757C78.2019,-182.959 78.606,-185.231 79.0127,-187.517"/>
<polygon fill="black" stroke="black" stroke-width="2" points="75.5839,-188.226 80.7813,-197.459 82.4757,-187 75.5839,-188.226"/>
</g>
<!-- 7&#45;&gt;0 -->
<g id="edge5" class="edge"><title>7&#45;&gt;0</title>
<path fill="none" stroke="black" stroke-width="2" d="M110.296,-110.949C112.302,-113.839 114.419,-116.889 116.533,-119.935"/>
<polygon fill="black" stroke="black" stroke-width="2" points="113.812,-122.154 122.389,-128.373 119.563,-118.163 113.812,-122.154"/>
</g>
<!-- 7&#45;&gt;2 -->
<g id="edge12" class="edge"><title>7&#45;&gt;2</title>
<path fill="none" stroke="black" stroke-width="2" d="M98.6312,-72.1857C98.764,-66.0657 98.9117,-59.2582 99.0548,-52.6624"/>
<polygon fill="black" stroke="black" stroke-width="2" points="102.555,-52.6747 99.2731,-42.6011 95.5569,-52.5228 102.555,-52.6747"/>
</g>
<!-- 7&#45;&gt;6 -->
<g id="edge16" class="edge"><title>7&#45;&gt;6</title>
<path fill="none" stroke="black" stroke-width="2" d="M90.8131,-113.745C88.9457,-118.89 86.9003,-124.526 84.9006,-130.036"/>
<polygon fill="black" stroke="black" stroke-width="2" points="81.5202,-129.091 81.3986,-139.685 88.1002,-131.479 81.5202,-129.091"/>
</g>
</g>
</svg>

