<?xml version="1.0" encoding="UTF-8" standalone="no"?>
<!DOCTYPE svg PUBLIC "-//W3C//DTD SVG 1.1//EN"
 "http://www.w3.org/Graphics/SVG/1.1/DTD/svg11.dtd">
<!-- Generated by graphviz version 2.36.0 (20140111.2315)
 -->
<!-- Title: G Pages: 1 -->
<svg width="100%" height="100%"
 viewBox="0.00 0.00 227.37 268.41" xmlns="http://www.w3.org/2000/svg" xmlns:xlink="http://www.w3.org/1999/xlink">
<g id="graph0" class="graph" transform="scale(1 1) rotate(0) translate(4 264.405)">
<title>G</title>
<!-- 0 -->
<g id="node1" class="node"><title>0</title>
<ellipse fill="cadetblue" stroke="black" cx="120.496" cy="-163.337" rx="21.4286" ry="21.4286"/>
<text text-anchor="middle" x="120.496" y="-158.337" font-family="Times New Roman,serif" font-size="20.00">2</text>
</g>
<!-- 5 -->
<g id="node6" class="node"><title>5</title>
<ellipse fill="cadetblue" stroke="black" cx="21.2132" cy="-93.9318" rx="21.4286" ry="21.4286"/>
<text text-anchor="middle" x="21.2132" y="-88.9318" font-family="Times New Roman,serif" font-size="20.00">2</text>
</g>
<!-- 0&#45;&gt;5 -->
<g id="edge3" class="edge"><title>0&#45;&gt;5</title>
<path fill="none" stroke="black" stroke-width="2" d="M102.746,-150.929C87.3573,-140.171 64.8775,-124.456 47.4178,-112.251"/>
<polygon fill="black" stroke="black" stroke-width="2" points="49.0106,-109.094 38.8093,-106.233 44.9999,-114.831 49.0106,-109.094"/>
</g>
<!-- 6 -->
<g id="node7" class="node"><title>6</title>
<ellipse fill="brown" stroke="black" cx="184.268" cy="-149.614" rx="21.4286" ry="21.4286"/>
<text text-anchor="middle" x="184.268" y="-144.614" font-family="Times New Roman,serif" font-size="20.00">3</text>
</g>
<!-- 0&#45;&gt;6 -->
<g id="edge4" class="edge"><title>0&#45;&gt;6</title>
<path fill="none" stroke="black" stroke-width="2" d="M141.377,-158.844C145.191,-158.023 149.245,-157.151 153.279,-156.283"/>
<polygon fill="black" stroke="black" stroke-width="2" points="154.081,-159.69 163.121,-154.165 152.609,-152.847 154.081,-159.69"/>
</g>
<!-- 7 -->
<g id="node8" class="node"><title>7</title>
<ellipse fill="cadetblue" stroke="black" cx="106.052" cy="-112.906" rx="21.4286" ry="21.4286"/>
<text text-anchor="middle" x="106.052" y="-107.906" font-family="Times New Roman,serif" font-size="20.00">2</text>
</g>
<!-- 0&#45;&gt;7 -->
<g id="edge5" class="edge"><title>0&#45;&gt;7</title>
<path fill="none" stroke="black" stroke-width="2" d="M114.621,-142.825C114.594,-142.729 114.566,-142.634 114.539,-142.538"/>
<polygon fill="black" stroke="black" stroke-width="2" points="118.087,-142.213 111.969,-133.564 111.357,-144.141 118.087,-142.213"/>
</g>
<!-- 1 -->
<g id="node2" class="node"><title>1</title>
<ellipse fill="cadetblue" stroke="black" cx="53.2206" cy="-198.435" rx="21.4286" ry="21.4286"/>
<text text-anchor="middle" x="53.2206" y="-193.435" font-family="Times New Roman,serif" font-size="20.00">2</text>
</g>
<!-- 3 -->
<g id="node4" class="node"><title>3</title>
<ellipse fill="cadetblue" stroke="black" cx="144.59" cy="-239.192" rx="21.4286" ry="21.4286"/>
<text text-anchor="middle" x="144.59" y="-234.192" font-family="Times New Roman,serif" font-size="20.00">2</text>
</g>
<!-- 1&#45;&gt;3 -->
<g id="edge6" class="edge"><title>1&#45;&gt;3</title>
<path fill="none" stroke="black" stroke-width="2" d="M72.5976,-207.078C85.1108,-212.66 101.618,-220.024 115.67,-226.292"/>
<polygon fill="black" stroke="black" stroke-width="2" points="114.367,-229.543 124.926,-230.421 117.219,-223.15 114.367,-229.543"/>
</g>
<!-- 1&#45;&gt;5 -->
<g id="edge7" class="edge"><title>1&#45;&gt;5</title>
<path fill="none" stroke="black" stroke-width="2" d="M46.9732,-178.038C42.2587,-162.645 35.7176,-141.288 30.4066,-123.948"/>
<polygon fill="black" stroke="black" stroke-width="2" points="33.7199,-122.814 27.4448,-114.278 27.0268,-124.864 33.7199,-122.814"/>
</g>
<!-- 2 -->
<g id="node3" class="node"><title>2</title>
<ellipse fill="cadetblue" stroke="black" cx="115.364" cy="-21.2132" rx="21.4286" ry="21.4286"/>
<text text-anchor="middle" x="115.364" y="-16.2132" font-family="Times New Roman,serif" font-size="20.00">2</text>
</g>
<!-- 4 -->
<g id="node5" class="node"><title>4</title>
<ellipse fill="cadetblue" stroke="black" cx="198.158" cy="-56.2874" rx="21.4286" ry="21.4286"/>
<text text-anchor="middle" x="198.158" y="-51.2874" font-family="Times New Roman,serif" font-size="20.00">2</text>
</g>
<!-- 2&#45;&gt;4 -->
<g id="edge10" class="edge"><title>2&#45;&gt;4</title>
<path fill="none" stroke="black" stroke-width="2" d="M134.985,-29.5253C145.119,-33.8183 157.687,-39.1424 168.937,-43.9086"/>
<polygon fill="black" stroke="black" stroke-width="2" points="167.818,-47.2353 178.391,-47.9134 170.548,-40.7899 167.818,-47.2353"/>
</g>
<!-- 3&#45;&gt;0 -->
<g id="edge1" class="edge"><title>3&#45;&gt;0</title>
<path fill="none" stroke="black" stroke-width="2" d="M138.133,-218.864C135.648,-211.042 132.756,-201.936 130.041,-193.388"/>
<polygon fill="black" stroke="black" stroke-width="2" points="133.334,-192.192 126.97,-183.721 126.662,-194.311 133.334,-192.192"/>
</g>
<!-- 3&#45;&gt;6 -->
<g id="edge13" class="edge"><title>3&#45;&gt;6</title>
<path fill="none" stroke="black" stroke-width="2" d="M153.199,-219.755C158.555,-207.665 165.538,-191.899 171.527,-178.378"/>
<polygon fill="black" stroke="black" stroke-width="2" points="174.825,-179.574 175.675,-169.014 168.425,-176.739 174.825,-179.574"/>
</g>
<!-- 4&#45;&gt;0 -->
<g id="edge2" class="edge"><title>4&#45;&gt;0</title>
<path fill="none" stroke="black" stroke-width="2" d="M185.68,-73.4868C173.13,-90.7854 153.627,-117.668 139.222,-137.525"/>
<polygon fill="black" stroke="black" stroke-width="2" points="136.24,-135.675 133.201,-145.825 141.906,-139.786 136.24,-135.675"/>
</g>
<!-- 5&#45;&gt;2 -->
<g id="edge11" class="edge"><title>5&#45;&gt;2</title>
<path fill="none" stroke="black" stroke-width="2" d="M38.0455,-80.9312C52.5489,-69.7293 73.694,-53.3977 90.207,-40.6437"/>
<polygon fill="black" stroke="black" stroke-width="2" points="92.5854,-43.2292 98.3603,-34.3465 88.3065,-37.6892 92.5854,-43.2292"/>
</g>
<!-- 5&#45;&gt;7 -->
<g id="edge16" class="edge"><title>5&#45;&gt;7</title>
<path fill="none" stroke="black" stroke-width="2" d="M42.1846,-98.622C52.1501,-100.851 64.2588,-103.559 75.2425,-106.015"/>
<polygon fill="black" stroke="black" stroke-width="2" points="74.7989,-109.503 85.3218,-108.27 76.3268,-102.671 74.7989,-109.503"/>
</g>
<!-- 6&#45;&gt;1 -->
<g id="edge8" class="edge"><title>6&#45;&gt;1</title>
<path fill="none" stroke="black" stroke-width="2" d="M167.285,-163.181C159.061,-169.377 148.865,-176.526 139.079,-181.954 122.482,-191.161 101.613,-195.306 84.6064,-197.137"/>
<polygon fill="black" stroke="black" stroke-width="2" points="84.2503,-193.655 74.5888,-198.003 84.8531,-200.629 84.2503,-193.655"/>
</g>
<!-- 6&#45;&gt;2 -->
<g id="edge12" class="edge"><title>6&#45;&gt;2</title>
<path fill="none" stroke="black" stroke-width="2" d="M174.101,-130.668C162.549,-109.142 143.586,-73.805 130.342,-49.1236"/>
<polygon fill="black" stroke="black" stroke-width="2" points="133.385,-47.3935 125.573,-40.237 127.217,-50.7034 133.385,-47.3935"/>
</g>
<!-- 7&#45;&gt;1 -->
<g id="edge9" class="edge"><title>7&#45;&gt;1</title>
<path fill="none" stroke="black" stroke-width="2" d="M94.8477,-131.044C87.5631,-142.837 77.9373,-158.421 69.7771,-171.631"/>
<polygon fill="black" stroke="black" stroke-width="2" points="66.6862,-169.975 64.4086,-180.323 72.6416,-173.654 66.6862,-169.975"/>
</g>
<!-- 7&#45;&gt;3 -->
<g id="edge14" class="edge"><title>7&#45;&gt;3</title>
<path fill="none" stroke="black" stroke-width="2" d="M122.582,-126.321C128.359,-131.615 134.537,-138.035 139.113,-144.754 144.15,-152.15 145.187,-154.56 146.8,-163.361 149.469,-177.917 149.369,-194.304 148.417,-208.11"/>
<polygon fill="black" stroke="black" stroke-width="2" points="144.929,-207.827 147.555,-218.091 151.903,-208.43 144.929,-207.827"/>
</g>
<!-- 7&#45;&gt;4 -->
<g id="edge15" class="edge"><title>7&#45;&gt;4</title>
<path fill="none" stroke="black" stroke-width="2" d="M124.249,-101.72C137.621,-93.4998 156.012,-82.1947 171.103,-72.9182"/>
<polygon fill="black" stroke="black" stroke-width="2" points="173.312,-75.6687 179.998,-67.4501 169.646,-69.7053 173.312,-75.6687"/>
</g>
<!-- 7&#45;&gt;6 -->
<g id="edge17" class="edge"><title>7&#45;&gt;6</title>
<path fill="none" stroke="black" stroke-width="2" d="M125.386,-121.98C134.505,-126.26 145.571,-131.453 155.636,-136.177"/>
<polygon fill="black" stroke="black" stroke-width="2" points="154.345,-139.437 164.885,-140.518 157.319,-133.101 154.345,-139.437"/>
</g>
</g>
</svg>

