<?xml version="1.0" encoding="UTF-8" standalone="no"?>
<!DOCTYPE svg PUBLIC "-//W3C//DTD SVG 1.1//EN"
 "http://www.w3.org/Graphics/SVG/1.1/DTD/svg11.dtd">
<!-- Generated by graphviz version 2.36.0 (20140111.2315)
 -->
<!-- Title: G Pages: 1 -->
<svg width="100%" height="100%"
 viewBox="0.00 0.00 259.49 238.09" xmlns="http://www.w3.org/2000/svg" xmlns:xlink="http://www.w3.org/1999/xlink">
<g id="graph0" class="graph" transform="scale(1 1) rotate(0) translate(4 234.091)">
<title>G</title>
<!-- 0 -->
<g id="node1" class="node"><title>0</title>
<ellipse fill="cadetblue" stroke="black" cx="158.659" cy="-166.102" rx="21.4286" ry="21.4286"/>
<text text-anchor="middle" x="158.659" y="-161.102" font-family="Times New Roman,serif" font-size="20.00">2</text>
</g>
<!-- 5 -->
<g id="node6" class="node"><title>5</title>
<ellipse fill="cadetblue" stroke="black" cx="41.0601" cy="-95.0867" rx="21.4286" ry="21.4286"/>
<text text-anchor="middle" x="41.0601" y="-90.0867" font-family="Times New Roman,serif" font-size="20.00">2</text>
</g>
<!-- 0&#45;&gt;5 -->
<g id="edge3" class="edge"><title>0&#45;&gt;5</title>
<path fill="none" stroke="black" stroke-width="2" d="M138.055,-160.316C123.797,-155.779 104.744,-148.63 89.6268,-139.061 80.2559,-133.13 70.9782,-125.338 63.082,-117.963"/>
<polygon fill="black" stroke="black" stroke-width="2" points="65.3135,-115.252 55.694,-110.811 60.4448,-120.282 65.3135,-115.252"/>
</g>
<!-- 6 -->
<g id="node7" class="node"><title>6</title>
<ellipse fill="cadetblue" stroke="black" cx="170.92" cy="-86.8151" rx="21.4286" ry="21.4286"/>
<text text-anchor="middle" x="170.92" y="-81.8151" font-family="Times New Roman,serif" font-size="20.00">2</text>
</g>
<!-- 0&#45;&gt;6 -->
<g id="edge4" class="edge"><title>0&#45;&gt;6</title>
<path fill="none" stroke="black" stroke-width="2" d="M161.945,-144.855C163.22,-136.612 164.705,-127.007 166.096,-118.01"/>
<polygon fill="black" stroke="black" stroke-width="2" points="169.599,-118.264 167.668,-107.846 162.681,-117.194 169.599,-118.264"/>
</g>
<!-- 7 -->
<g id="node8" class="node"><title>7</title>
<ellipse fill="brown" stroke="black" cx="108.228" cy="-120.462" rx="21.4286" ry="21.4286"/>
<text text-anchor="middle" x="108.228" y="-115.462" font-family="Times New Roman,serif" font-size="20.00">3</text>
</g>
<!-- 0&#45;&gt;7 -->
<g id="edge5" class="edge"><title>0&#45;&gt;7</title>
<path fill="none" stroke="black" stroke-width="2" d="M142.702,-151.661C139.207,-148.498 135.436,-145.085 131.715,-141.718"/>
<polygon fill="black" stroke="black" stroke-width="2" points="134.017,-139.081 124.254,-134.966 129.32,-144.271 134.017,-139.081"/>
</g>
<!-- 1 -->
<g id="node2" class="node"><title>1</title>
<ellipse fill="cadetblue" stroke="black" cx="21.2132" cy="-180.975" rx="21.4286" ry="21.4286"/>
<text text-anchor="middle" x="21.2132" y="-175.975" font-family="Times New Roman,serif" font-size="20.00">2</text>
</g>
<!-- 1&#45;&gt;7 -->
<g id="edge8" class="edge"><title>1&#45;&gt;7</title>
<path fill="none" stroke="black" stroke-width="2" d="M38.8219,-168.729C51.3238,-160.035 68.3114,-148.221 82.351,-138.458"/>
<polygon fill="black" stroke="black" stroke-width="2" points="84.4336,-141.273 90.6451,-132.69 80.4369,-135.526 84.4336,-141.273"/>
</g>
<!-- 2 -->
<g id="node3" class="node"><title>2</title>
<ellipse fill="cadetblue" stroke="black" cx="98.1238" cy="-21.2132" rx="21.4286" ry="21.4286"/>
<text text-anchor="middle" x="98.1238" y="-16.2132" font-family="Times New Roman,serif" font-size="20.00">2</text>
</g>
<!-- 2&#45;&gt;7 -->
<g id="edge11" class="edge"><title>2&#45;&gt;7</title>
<path fill="none" stroke="black" stroke-width="2" d="M100.316,-42.7487C101.703,-56.3674 103.517,-74.1943 105.059,-89.3385"/>
<polygon fill="black" stroke="black" stroke-width="2" points="101.579,-89.7155 106.074,-99.3095 108.543,-89.0064 101.579,-89.7155"/>
</g>
<!-- 3 -->
<g id="node4" class="node"><title>3</title>
<ellipse fill="cadetblue" stroke="black" cx="230.275" cy="-133.861" rx="21.4286" ry="21.4286"/>
<text text-anchor="middle" x="230.275" y="-128.861" font-family="Times New Roman,serif" font-size="20.00">2</text>
</g>
<!-- 3&#45;&gt;0 -->
<g id="edge1" class="edge"><title>3&#45;&gt;0</title>
<path fill="none" stroke="black" stroke-width="2" d="M210.706,-142.671C203.521,-145.905 195.231,-149.638 187.409,-153.159"/>
<polygon fill="black" stroke="black" stroke-width="2" points="185.886,-150.006 178.205,-157.303 188.76,-156.389 185.886,-150.006"/>
</g>
<!-- 4 -->
<g id="node5" class="node"><title>4</title>
<ellipse fill="cadetblue" stroke="black" cx="107.925" cy="-208.877" rx="21.4286" ry="21.4286"/>
<text text-anchor="middle" x="107.925" y="-203.877" font-family="Times New Roman,serif" font-size="20.00">2</text>
</g>
<!-- 4&#45;&gt;0 -->
<g id="edge2" class="edge"><title>4&#45;&gt;0</title>
<path fill="none" stroke="black" stroke-width="2" d="M124.257,-195.108C127.516,-192.36 131.003,-189.419 134.462,-186.503"/>
<polygon fill="black" stroke="black" stroke-width="2" points="136.969,-188.968 142.358,-179.846 132.457,-183.616 136.969,-188.968"/>
</g>
<!-- 4&#45;&gt;1 -->
<g id="edge6" class="edge"><title>4&#45;&gt;1</title>
<path fill="none" stroke="black" stroke-width="2" d="M87.3758,-202.265C76.5769,-198.79 63.139,-194.466 51.2003,-190.624"/>
<polygon fill="black" stroke="black" stroke-width="2" points="52.2067,-187.272 41.6153,-187.54 50.0625,-193.935 52.2067,-187.272"/>
</g>
<!-- 5&#45;&gt;1 -->
<g id="edge7" class="edge"><title>5&#45;&gt;1</title>
<path fill="none" stroke="black" stroke-width="2" d="M36.2557,-115.878C33.8842,-126.141 30.9756,-138.728 28.3501,-150.09"/>
<polygon fill="black" stroke="black" stroke-width="2" points="24.8835,-149.546 26.0421,-160.078 31.7038,-151.123 24.8835,-149.546"/>
</g>
<!-- 5&#45;&gt;2 -->
<g id="edge9" class="edge"><title>5&#45;&gt;2</title>
<path fill="none" stroke="black" stroke-width="2" d="M54.2951,-77.953C61.5693,-68.5359 70.7268,-56.6807 78.7878,-46.2451"/>
<polygon fill="black" stroke="black" stroke-width="2" points="81.6173,-48.3076 84.9606,-38.254 76.0776,-44.0284 81.6173,-48.3076"/>
</g>
<!-- 6&#45;&gt;2 -->
<g id="edge10" class="edge"><title>6&#45;&gt;2</title>
<path fill="none" stroke="black" stroke-width="2" d="M155.125,-72.5805C145.299,-63.726 132.487,-52.1801 121.499,-42.2779"/>
<polygon fill="black" stroke="black" stroke-width="2" points="123.66,-39.5145 113.889,-35.4201 118.974,-44.7146 123.66,-39.5145"/>
</g>
<!-- 6&#45;&gt;3 -->
<g id="edge12" class="edge"><title>6&#45;&gt;3</title>
<path fill="none" stroke="black" stroke-width="2" d="M187.77,-100.171C193.331,-104.578 199.636,-109.576 205.655,-114.346"/>
<polygon fill="black" stroke="black" stroke-width="2" points="203.577,-117.166 213.588,-120.635 207.926,-111.68 203.577,-117.166"/>
</g>
<!-- 6&#45;&gt;4 -->
<g id="edge14" class="edge"><title>6&#45;&gt;4</title>
<path fill="none" stroke="black" stroke-width="2" d="M161.077,-105.887C150.676,-126.042 134.168,-158.029 122.308,-181.008"/>
<polygon fill="black" stroke="black" stroke-width="2" points="119.175,-179.448 117.699,-189.939 125.396,-182.658 119.175,-179.448"/>
</g>
<!-- 7&#45;&gt;3 -->
<g id="edge13" class="edge"><title>7&#45;&gt;3</title>
<path fill="none" stroke="black" stroke-width="2" d="M129.487,-122.796C148.62,-124.897 176.991,-128.011 198.762,-130.401"/>
<polygon fill="black" stroke="black" stroke-width="2" points="198.528,-133.897 208.85,-131.509 199.292,-126.938 198.528,-133.897"/>
</g>
<!-- 7&#45;&gt;4 -->
<g id="edge15" class="edge"><title>7&#45;&gt;4</title>
<path fill="none" stroke="black" stroke-width="2" d="M108.154,-141.865C108.118,-152.43 108.074,-165.387 108.034,-177.083"/>
<polygon fill="black" stroke="black" stroke-width="2" points="104.533,-177.353 107.999,-187.365 111.533,-177.377 104.533,-177.353"/>
</g>
<!-- 7&#45;&gt;5 -->
<g id="edge16" class="edge"><title>7&#45;&gt;5</title>
<path fill="none" stroke="black" stroke-width="2" d="M88.0752,-112.849C82.6291,-110.791 76.6188,-108.521 70.7676,-106.31"/>
<polygon fill="black" stroke="black" stroke-width="2" points="71.79,-102.955 61.1984,-102.695 69.3161,-109.503 71.79,-102.955"/>
</g>
<!-- 7&#45;&gt;6 -->
<g id="edge17" class="edge"><title>7&#45;&gt;6</title>
<path fill="none" stroke="black" stroke-width="2" d="M127.038,-110.367C132.121,-107.639 137.731,-104.628 143.192,-101.697"/>
<polygon fill="black" stroke="black" stroke-width="2" points="144.968,-104.716 152.124,-96.9032 141.657,-98.5483 144.968,-104.716"/>
</g>
</g>
</svg>

