<?xml version="1.0" encoding="UTF-8" standalone="no"?>
<!DOCTYPE svg PUBLIC "-//W3C//DTD SVG 1.1//EN"
 "http://www.w3.org/Graphics/SVG/1.1/DTD/svg11.dtd">
<!-- Generated by graphviz version 2.36.0 (20140111.2315)
 -->
<!-- Title: G Pages: 1 -->
<svg width="100%" height="100%"
 viewBox="0.00 0.00 250.51 246.48" xmlns="http://www.w3.org/2000/svg" xmlns:xlink="http://www.w3.org/1999/xlink">
<g id="graph0" class="graph" transform="scale(1 1) rotate(0) translate(4 242.479)">
<title>G</title>
<!-- 0 -->
<g id="node1" class="node"><title>0</title>
<ellipse fill="cadetblue" stroke="black" cx="182.034" cy="-82.0542" rx="21.4286" ry="21.4286"/>
<text text-anchor="middle" x="182.034" y="-77.0542" font-family="Times New Roman,serif" font-size="20.00">2</text>
</g>
<!-- 6 -->
<g id="node7" class="node"><title>6</title>
<ellipse fill="cadetblue" stroke="black" cx="170.865" cy="-178.671" rx="21.4286" ry="21.4286"/>
<text text-anchor="middle" x="170.865" y="-173.671" font-family="Times New Roman,serif" font-size="20.00">2</text>
</g>
<!-- 0&#45;&gt;6 -->
<g id="edge3" class="edge"><title>0&#45;&gt;6</title>
<path fill="none" stroke="black" stroke-width="2" d="M179.555,-103.496C178.066,-116.38 176.144,-133.002 174.487,-147.339"/>
<polygon fill="black" stroke="black" stroke-width="2" points="171.009,-146.952 173.337,-157.288 177.962,-147.756 171.009,-146.952"/>
</g>
<!-- 7 -->
<g id="node8" class="node"><title>7</title>
<ellipse fill="brown" stroke="black" cx="119.772" cy="-71.3059" rx="21.4286" ry="21.4286"/>
<text text-anchor="middle" x="119.772" y="-66.3059" font-family="Times New Roman,serif" font-size="20.00">3</text>
</g>
<!-- 0&#45;&gt;7 -->
<g id="edge4" class="edge"><title>0&#45;&gt;7</title>
<path fill="none" stroke="black" stroke-width="2" d="M160.955,-78.4153C157.709,-77.855 154.3,-77.2665 150.891,-76.6781"/>
<polygon fill="black" stroke="black" stroke-width="2" points="151.279,-73.1933 140.829,-74.941 150.088,-80.0912 151.279,-73.1933"/>
</g>
<!-- 1 -->
<g id="node2" class="node"><title>1</title>
<ellipse fill="cadetblue" stroke="black" cx="21.2132" cy="-130.418" rx="21.4286" ry="21.4286"/>
<text text-anchor="middle" x="21.2132" y="-125.418" font-family="Times New Roman,serif" font-size="20.00">2</text>
</g>
<!-- 1&#45;&gt;7 -->
<g id="edge7" class="edge"><title>1&#45;&gt;7</title>
<path fill="none" stroke="black" stroke-width="2" d="M39.7513,-119.3C54.6188,-110.383 75.7019,-97.7376 92.4952,-87.6655"/>
<polygon fill="black" stroke="black" stroke-width="2" points="94.5412,-90.5197 101.317,-82.3746 90.9407,-84.5166 94.5412,-90.5197"/>
</g>
<!-- 2 -->
<g id="node3" class="node"><title>2</title>
<ellipse fill="cadetblue" stroke="black" cx="221.297" cy="-135.643" rx="21.4286" ry="21.4286"/>
<text text-anchor="middle" x="221.297" y="-130.643" font-family="Times New Roman,serif" font-size="20.00">2</text>
</g>
<!-- 4 -->
<g id="node5" class="node"><title>4</title>
<ellipse fill="cadetblue" stroke="black" cx="215.963" cy="-21.2132" rx="21.4286" ry="21.4286"/>
<text text-anchor="middle" x="215.963" y="-16.2132" font-family="Times New Roman,serif" font-size="20.00">2</text>
</g>
<!-- 2&#45;&gt;4 -->
<g id="edge8" class="edge"><title>2&#45;&gt;4</title>
<path fill="none" stroke="black" stroke-width="2" d="M220.306,-114.388C219.499,-97.0753 218.348,-72.3754 217.433,-52.7563"/>
<polygon fill="black" stroke="black" stroke-width="2" points="220.928,-52.569 216.966,-42.7429 213.936,-52.8951 220.928,-52.569"/>
</g>
<!-- 2&#45;&gt;7 -->
<g id="edge11" class="edge"><title>2&#45;&gt;7</title>
<path fill="none" stroke="black" stroke-width="2" d="M202.911,-124.828C191.466,-118.02 176.485,-108.974 163.417,-100.637 157.759,-97.0285 151.753,-93.0741 146.064,-89.2701"/>
<polygon fill="black" stroke="black" stroke-width="2" points="147.731,-86.1727 137.482,-83.4873 143.819,-91.9779 147.731,-86.1727"/>
</g>
<!-- 3 -->
<g id="node4" class="node"><title>3</title>
<ellipse fill="cadetblue" stroke="black" cx="89.6194" cy="-141" rx="21.4286" ry="21.4286"/>
<text text-anchor="middle" x="89.6194" y="-136" font-family="Times New Roman,serif" font-size="20.00">2</text>
</g>
<!-- 3&#45;&gt;0 -->
<g id="edge1" class="edge"><title>3&#45;&gt;0</title>
<path fill="none" stroke="black" stroke-width="2" d="M107.877,-129.354C121.509,-120.66 140.338,-108.649 155.612,-98.907"/>
<polygon fill="black" stroke="black" stroke-width="2" points="157.579,-101.804 164.128,-93.4752 153.815,-95.9021 157.579,-101.804"/>
</g>
<!-- 3&#45;&gt;1 -->
<g id="edge5" class="edge"><title>3&#45;&gt;1</title>
<path fill="none" stroke="black" stroke-width="2" d="M68.3502,-137.71C63.2834,-136.926 57.7726,-136.074 52.3643,-135.237"/>
<polygon fill="black" stroke="black" stroke-width="2" points="52.6518,-131.74 42.2342,-133.67 51.5816,-138.658 52.6518,-131.74"/>
</g>
<!-- 5 -->
<g id="node6" class="node"><title>5</title>
<ellipse fill="cadetblue" stroke="black" cx="107.666" cy="-217.266" rx="21.4286" ry="21.4286"/>
<text text-anchor="middle" x="107.666" y="-212.266" font-family="Times New Roman,serif" font-size="20.00">2</text>
</g>
<!-- 3&#45;&gt;5 -->
<g id="edge12" class="edge"><title>3&#45;&gt;5</title>
<path fill="none" stroke="black" stroke-width="2" d="M94.5507,-161.84C96.361,-169.49 98.4501,-178.319 100.421,-186.65"/>
<polygon fill="black" stroke="black" stroke-width="2" points="97.0319,-187.526 102.741,-196.451 103.844,-185.914 97.0319,-187.526"/>
</g>
<!-- 4&#45;&gt;0 -->
<g id="edge2" class="edge"><title>4&#45;&gt;0</title>
<path fill="none" stroke="black" stroke-width="2" d="M205.598,-39.7981C203.081,-44.3127 200.333,-49.2392 197.633,-54.0825"/>
<polygon fill="black" stroke="black" stroke-width="2" points="194.382,-52.7248 192.568,-63.1632 200.496,-56.1342 194.382,-52.7248"/>
</g>
<!-- 5&#45;&gt;1 -->
<g id="edge6" class="edge"><title>5&#45;&gt;1</title>
<path fill="none" stroke="black" stroke-width="2" d="M92.607,-202.138C79.0537,-188.523 58.9569,-168.334 43.5354,-152.842"/>
<polygon fill="black" stroke="black" stroke-width="2" points="45.9251,-150.282 36.3896,-145.664 40.9641,-155.22 45.9251,-150.282"/>
</g>
<!-- 5&#45;&gt;2 -->
<g id="edge9" class="edge"><title>5&#45;&gt;2</title>
<path fill="none" stroke="black" stroke-width="2" d="M118.546,-198.708C126.563,-186.373 138.448,-170.569 152.288,-160.048 163.463,-151.553 177.844,-145.845 190.583,-142.1"/>
<polygon fill="black" stroke="black" stroke-width="2" points="191.589,-145.455 200.354,-139.503 189.791,-138.69 191.589,-145.455"/>
</g>
<!-- 6&#45;&gt;2 -->
<g id="edge10" class="edge"><title>6&#45;&gt;2</title>
<path fill="none" stroke="black" stroke-width="2" d="M187.1,-164.82C190.339,-162.056 193.806,-159.098 197.244,-156.165"/>
<polygon fill="black" stroke="black" stroke-width="2" points="199.757,-158.621 205.093,-149.468 195.214,-153.296 199.757,-158.621"/>
</g>
<!-- 6&#45;&gt;3 -->
<g id="edge13" class="edge"><title>6&#45;&gt;3</title>
<path fill="none" stroke="black" stroke-width="2" d="M151.611,-169.743C141.667,-165.132 129.334,-159.414 118.294,-154.295"/>
<polygon fill="black" stroke="black" stroke-width="2" points="119.561,-151.025 109.017,-149.994 116.617,-157.376 119.561,-151.025"/>
</g>
<!-- 6&#45;&gt;5 -->
<g id="edge16" class="edge"><title>6&#45;&gt;5</title>
<path fill="none" stroke="black" stroke-width="2" d="M152.585,-189.834C147.001,-193.244 140.737,-197.069 134.7,-200.756"/>
<polygon fill="black" stroke="black" stroke-width="2" points="132.834,-197.795 126.124,-205.994 136.482,-203.769 132.834,-197.795"/>
</g>
<!-- 7&#45;&gt;3 -->
<g id="edge14" class="edge"><title>7&#45;&gt;3</title>
<path fill="none" stroke="black" stroke-width="2" d="M111.212,-91.091C108.387,-97.6205 105.184,-105.024 102.127,-112.091"/>
<polygon fill="black" stroke="black" stroke-width="2" points="98.8547,-110.839 98.0962,-121.407 105.279,-113.619 98.8547,-110.839"/>
</g>
<!-- 7&#45;&gt;4 -->
<g id="edge15" class="edge"><title>7&#45;&gt;4</title>
<path fill="none" stroke="black" stroke-width="2" d="M138.776,-61.4092C152.741,-54.1366 171.948,-44.1345 187.708,-35.9272"/>
<polygon fill="black" stroke="black" stroke-width="2" points="189.745,-38.8125 196.998,-31.0893 186.512,-32.604 189.745,-38.8125"/>
</g>
<!-- 7&#45;&gt;6 -->
<g id="edge17" class="edge"><title>7&#45;&gt;6</title>
<path fill="none" stroke="black" stroke-width="2" d="M128.906,-90.5005C136.813,-107.115 148.357,-131.373 157.336,-150.241"/>
<polygon fill="black" stroke="black" stroke-width="2" points="154.18,-151.754 161.638,-159.28 160.501,-148.746 154.18,-151.754"/>
</g>
</g>
</svg>

