<?xml version="1.0" encoding="UTF-8" standalone="no"?>
<!DOCTYPE svg PUBLIC "-//W3C//DTD SVG 1.1//EN"
 "http://www.w3.org/Graphics/SVG/1.1/DTD/svg11.dtd">
<!-- Generated by graphviz version 2.36.0 (20140111.2315)
 -->
<!-- Title: G Pages: 1 -->
<svg width="100%" height="100%"
 viewBox="0.00 0.00 284.56 274.40" xmlns="http://www.w3.org/2000/svg" xmlns:xlink="http://www.w3.org/1999/xlink">
<g id="graph0" class="graph" transform="scale(1 1) rotate(0) translate(4 270.398)">
<title>G</title>
<!-- 0 -->
<g id="node1" class="node"><title>0</title>
<ellipse fill="cadetblue" stroke="black" cx="87.516" cy="-82.9496" rx="21.4286" ry="21.4286"/>
<text text-anchor="middle" x="87.516" y="-77.9496" font-family="Times New Roman,serif" font-size="20.00">2</text>
</g>
<!-- 4 -->
<g id="node5" class="node"><title>4</title>
<ellipse fill="cadetblue" stroke="black" cx="255.346" cy="-105.677" rx="21.4286" ry="21.4286"/>
<text text-anchor="middle" x="255.346" y="-100.677" font-family="Times New Roman,serif" font-size="20.00">2</text>
</g>
<!-- 0&#45;&gt;4 -->
<g id="edge2" class="edge"><title>0&#45;&gt;4</title>
<path fill="none" stroke="black" stroke-width="2" d="M108.772,-85.828C137.902,-89.7728 190.437,-96.887 224.063,-101.441"/>
<polygon fill="black" stroke="black" stroke-width="2" points="223.884,-104.948 234.263,-102.822 224.823,-98.0114 223.884,-104.948"/>
</g>
<!-- 6 -->
<g id="node7" class="node"><title>6</title>
<ellipse fill="cadetblue" stroke="black" cx="141.349" cy="-128.329" rx="21.4286" ry="21.4286"/>
<text text-anchor="middle" x="141.349" y="-123.329" font-family="Times New Roman,serif" font-size="20.00">2</text>
</g>
<!-- 0&#45;&gt;6 -->
<g id="edge4" class="edge"><title>0&#45;&gt;6</title>
<path fill="none" stroke="black" stroke-width="2" d="M103.96,-96.8115C108.135,-100.33 112.707,-104.185 117.177,-107.953"/>
<polygon fill="black" stroke="black" stroke-width="2" points="115.104,-110.783 125.006,-114.552 119.616,-105.431 115.104,-110.783"/>
</g>
<!-- 1 -->
<g id="node2" class="node"><title>1</title>
<ellipse fill="cadetblue" stroke="black" cx="21.2132" cy="-189.665" rx="21.4286" ry="21.4286"/>
<text text-anchor="middle" x="21.2132" y="-184.665" font-family="Times New Roman,serif" font-size="20.00">2</text>
</g>
<!-- 1&#45;&gt;6 -->
<g id="edge7" class="edge"><title>1&#45;&gt;6</title>
<path fill="none" stroke="black" stroke-width="2" d="M40.2491,-179.946C59.9324,-169.897 90.8755,-154.099 113.348,-142.625"/>
<polygon fill="black" stroke="black" stroke-width="2" points="115.088,-145.667 122.402,-138.002 111.905,-139.432 115.088,-145.667"/>
</g>
<!-- 2 -->
<g id="node3" class="node"><title>2</title>
<ellipse fill="cadetblue" stroke="black" cx="212.326" cy="-21.2132" rx="21.4286" ry="21.4286"/>
<text text-anchor="middle" x="212.326" y="-16.2132" font-family="Times New Roman,serif" font-size="20.00">2</text>
</g>
<!-- 5 -->
<g id="node6" class="node"><title>5</title>
<ellipse fill="cadetblue" stroke="black" cx="178.127" cy="-178.76" rx="21.4286" ry="21.4286"/>
<text text-anchor="middle" x="178.127" y="-173.76" font-family="Times New Roman,serif" font-size="20.00">2</text>
</g>
<!-- 2&#45;&gt;5 -->
<g id="edge9" class="edge"><title>2&#45;&gt;5</title>
<path fill="none" stroke="black" stroke-width="2" d="M207.785,-42.1343C201.908,-69.2069 191.621,-116.598 184.84,-147.832"/>
<polygon fill="black" stroke="black" stroke-width="2" points="181.388,-147.238 182.687,-157.753 188.229,-148.723 181.388,-147.238"/>
</g>
<!-- 3 -->
<g id="node4" class="node"><title>3</title>
<ellipse fill="cadetblue" stroke="black" cx="96.8998" cy="-245.185" rx="21.4286" ry="21.4286"/>
<text text-anchor="middle" x="96.8998" y="-240.185" font-family="Times New Roman,serif" font-size="20.00">2</text>
</g>
<!-- 3&#45;&gt;0 -->
<g id="edge1" class="edge"><title>3&#45;&gt;0</title>
<path fill="none" stroke="black" stroke-width="2" d="M95.673,-223.976C94.0573,-196.041 91.2028,-146.691 89.3353,-114.404"/>
<polygon fill="black" stroke="black" stroke-width="2" points="92.8148,-113.945 88.7431,-104.164 85.8264,-114.35 92.8148,-113.945"/>
</g>
<!-- 3&#45;&gt;1 -->
<g id="edge5" class="edge"><title>3&#45;&gt;1</title>
<path fill="none" stroke="black" stroke-width="2" d="M79.7254,-232.587C69.9516,-225.417 57.5245,-216.301 46.639,-208.316"/>
<polygon fill="black" stroke="black" stroke-width="2" points="48.4531,-205.306 38.3197,-202.214 44.3128,-210.951 48.4531,-205.306"/>
</g>
<!-- 4&#45;&gt;2 -->
<g id="edge8" class="edge"><title>4&#45;&gt;2</title>
<path fill="none" stroke="black" stroke-width="2" d="M245.584,-86.5107C239.974,-75.4955 232.825,-61.4604 226.595,-49.2272"/>
<polygon fill="black" stroke="black" stroke-width="2" points="229.707,-47.6258 222.05,-40.3035 223.469,-50.8027 229.707,-47.6258"/>
</g>
<!-- 4&#45;&gt;5 -->
<g id="edge13" class="edge"><title>4&#45;&gt;5</title>
<path fill="none" stroke="black" stroke-width="2" d="M239.719,-120.466C228.625,-130.967 213.55,-145.235 201.09,-157.027"/>
<polygon fill="black" stroke="black" stroke-width="2" points="198.587,-154.577 193.73,-163.993 203.399,-159.661 198.587,-154.577"/>
</g>
<!-- 5&#45;&gt;0 -->
<g id="edge3" class="edge"><title>5&#45;&gt;0</title>
<path fill="none" stroke="black" stroke-width="2" d="M158.359,-170.64C146.864,-165.176 132.695,-157.082 122.566,-146.744 112.962,-136.942 105.199,-123.977 99.4431,-112.296"/>
<polygon fill="black" stroke="black" stroke-width="2" points="102.462,-110.487 95.0841,-102.883 96.1105,-113.428 102.462,-110.487"/>
</g>
<!-- 5&#45;&gt;1 -->
<g id="edge6" class="edge"><title>5&#45;&gt;1</title>
<path fill="none" stroke="black" stroke-width="2" d="M156.637,-180.254C129.758,-182.122 83.5231,-185.335 52.661,-187.48"/>
<polygon fill="black" stroke="black" stroke-width="2" points="52.1761,-184.005 42.4428,-188.19 52.6614,-190.988 52.1761,-184.005"/>
</g>
<!-- 5&#45;&gt;3 -->
<g id="edge11" class="edge"><title>5&#45;&gt;3</title>
<path fill="none" stroke="black" stroke-width="2" d="M161.689,-192.202C150.205,-201.594 134.666,-214.301 121.685,-224.917"/>
<polygon fill="black" stroke="black" stroke-width="2" points="119.117,-222.495 113.592,-231.535 123.548,-227.914 119.117,-222.495"/>
</g>
<!-- 6&#45;&gt;2 -->
<g id="edge10" class="edge"><title>6&#45;&gt;2</title>
<path fill="none" stroke="black" stroke-width="2" d="M153.07,-110.641C164.474,-93.4301 181.939,-67.0729 194.958,-47.4255"/>
<polygon fill="black" stroke="black" stroke-width="2" points="197.982,-49.1968 200.588,-38.9275 192.147,-45.3302 197.982,-49.1968"/>
</g>
<!-- 6&#45;&gt;3 -->
<g id="edge12" class="edge"><title>6&#45;&gt;3</title>
<path fill="none" stroke="black" stroke-width="2" d="M133.708,-148.417C126.68,-166.895 116.167,-194.531 108.174,-215.545"/>
<polygon fill="black" stroke="black" stroke-width="2" points="104.874,-214.377 104.59,-224.968 111.417,-216.866 104.874,-214.377"/>
</g>
<!-- 6&#45;&gt;4 -->
<g id="edge14" class="edge"><title>6&#45;&gt;4</title>
<path fill="none" stroke="black" stroke-width="2" d="M162.258,-124.174C179.584,-120.731 204.468,-115.787 224.15,-111.876"/>
<polygon fill="black" stroke="black" stroke-width="2" points="225.058,-115.264 234.184,-109.882 223.693,-108.398 225.058,-115.264"/>
</g>
</g>
</svg>

