<?xml version="1.0" encoding="UTF-8" standalone="no"?>
<!DOCTYPE svg PUBLIC "-//W3C//DTD SVG 1.1//EN"
 "http://www.w3.org/Graphics/SVG/1.1/DTD/svg11.dtd">
<!-- Generated by graphviz version 2.36.0 (20140111.2315)
 -->
<!-- Title: G Pages: 1 -->
<svg width="100%" height="100%"
 viewBox="0.00 0.00 215.29 226.86" xmlns="http://www.w3.org/2000/svg" xmlns:xlink="http://www.w3.org/1999/xlink">
<g id="graph0" class="graph" transform="scale(1 1) rotate(0) translate(4 222.86)">
<title>G</title>
<!-- 0 -->
<g id="node1" class="node"><title>0</title>
<ellipse fill="cadetblue" stroke="black" cx="74.4706" cy="-108.93" rx="21.4286" ry="21.4286"/>
<text text-anchor="middle" x="74.4706" y="-103.93" font-family="Times New Roman,serif" font-size="20.00">2</text>
</g>
<!-- 4 -->
<g id="node5" class="node"><title>4</title>
<ellipse fill="cadetblue" stroke="black" cx="112.935" cy="-21.2132" rx="21.4286" ry="21.4286"/>
<text text-anchor="middle" x="112.935" y="-16.2132" font-family="Times New Roman,serif" font-size="20.00">2</text>
</g>
<!-- 0&#45;&gt;4 -->
<g id="edge2" class="edge"><title>0&#45;&gt;4</title>
<path fill="none" stroke="black" stroke-width="2" d="M83.0071,-89.4627C88.0512,-77.9596 94.5347,-63.1743 100.177,-50.308"/>
<polygon fill="black" stroke="black" stroke-width="2" points="103.479,-51.4931 104.289,-40.9293 97.0679,-48.6819 103.479,-51.4931"/>
</g>
<!-- 6 -->
<g id="node7" class="node"><title>6</title>
<ellipse fill="brown" stroke="black" cx="186.075" cy="-109.14" rx="21.4286" ry="21.4286"/>
<text text-anchor="middle" x="186.075" y="-104.14" font-family="Times New Roman,serif" font-size="20.00">3</text>
</g>
<!-- 0&#45;&gt;6 -->
<g id="edge4" class="edge"><title>0&#45;&gt;6</title>
<path fill="none" stroke="black" stroke-width="2" d="M94.9529,-115.347C105.431,-118.09 118.452,-120.676 130.348,-120.694 138.685,-120.707 147.58,-119.456 155.76,-117.773"/>
<polygon fill="black" stroke="black" stroke-width="2" points="156.696,-121.149 165.642,-115.474 155.109,-114.331 156.696,-121.149"/>
</g>
<!-- 7 -->
<g id="node8" class="node"><title>7</title>
<ellipse fill="cadetblue" stroke="black" cx="130.35" cy="-94.3896" rx="21.4286" ry="21.4286"/>
<text text-anchor="middle" x="130.35" y="-89.3896" font-family="Times New Roman,serif" font-size="20.00">2</text>
</g>
<!-- 0&#45;&gt;7 -->
<g id="edge5" class="edge"><title>0&#45;&gt;7</title>
<path fill="none" stroke="black" stroke-width="2" d="M95.2779,-103.516C96.7518,-103.132 98.2541,-102.741 99.7668,-102.348"/>
<polygon fill="black" stroke="black" stroke-width="2" points="100.915,-105.665 109.711,-99.76 99.1519,-98.8911 100.915,-105.665"/>
</g>
<!-- 1 -->
<g id="node2" class="node"><title>1</title>
<ellipse fill="cadetblue" stroke="black" cx="21.2132" cy="-67.176" rx="21.4286" ry="21.4286"/>
<text text-anchor="middle" x="21.2132" y="-62.176" font-family="Times New Roman,serif" font-size="20.00">2</text>
</g>
<!-- 5 -->
<g id="node6" class="node"><title>5</title>
<ellipse fill="cadetblue" stroke="black" cx="35.2349" cy="-183.271" rx="21.4286" ry="21.4286"/>
<text text-anchor="middle" x="35.2349" y="-178.271" font-family="Times New Roman,serif" font-size="20.00">2</text>
</g>
<!-- 1&#45;&gt;5 -->
<g id="edge7" class="edge"><title>1&#45;&gt;5</title>
<path fill="none" stroke="black" stroke-width="2" d="M23.785,-88.4695C25.9394,-106.307 29.0439,-132.012 31.4769,-152.156"/>
<polygon fill="black" stroke="black" stroke-width="2" points="28.0055,-152.604 32.6794,-162.112 34.955,-151.765 28.0055,-152.604"/>
</g>
<!-- 2 -->
<g id="node3" class="node"><title>2</title>
<ellipse fill="cadetblue" stroke="black" cx="163.501" cy="-197.647" rx="21.4286" ry="21.4286"/>
<text text-anchor="middle" x="163.501" y="-192.647" font-family="Times New Roman,serif" font-size="20.00">2</text>
</g>
<!-- 2&#45;&gt;6 -->
<g id="edge10" class="edge"><title>2&#45;&gt;6</title>
<path fill="none" stroke="black" stroke-width="2" d="M168.85,-176.672C171.662,-165.65 175.16,-151.934 178.268,-139.748"/>
<polygon fill="black" stroke="black" stroke-width="2" points="181.684,-140.52 180.764,-129.965 174.901,-138.789 181.684,-140.52"/>
</g>
<!-- 3 -->
<g id="node4" class="node"><title>3</title>
<ellipse fill="cadetblue" stroke="black" cx="113.069" cy="-185.952" rx="21.4286" ry="21.4286"/>
<text text-anchor="middle" x="113.069" y="-180.952" font-family="Times New Roman,serif" font-size="20.00">2</text>
</g>
<!-- 3&#45;&gt;0 -->
<g id="edge1" class="edge"><title>3&#45;&gt;0</title>
<path fill="none" stroke="black" stroke-width="2" d="M103.528,-166.913C99.0278,-157.933 93.5671,-147.036 88.5998,-137.124"/>
<polygon fill="black" stroke="black" stroke-width="2" points="91.6452,-135.389 84.0359,-128.017 85.3871,-138.525 91.6452,-135.389"/>
</g>
<!-- 3&#45;&gt;5 -->
<g id="edge12" class="edge"><title>3&#45;&gt;5</title>
<path fill="none" stroke="black" stroke-width="2" d="M91.8006,-185.219C83.9927,-184.95 74.9824,-184.64 66.4807,-184.347"/>
<polygon fill="black" stroke="black" stroke-width="2" points="66.5923,-180.849 56.4777,-184.003 66.3512,-187.845 66.5923,-180.849"/>
</g>
<!-- 4&#45;&gt;1 -->
<g id="edge6" class="edge"><title>4&#45;&gt;1</title>
<path fill="none" stroke="black" stroke-width="2" d="M93.9301,-30.7367C81.017,-37.2076 63.7178,-45.8765 49.2321,-53.1354"/>
<polygon fill="black" stroke="black" stroke-width="2" points="47.5659,-50.0554 40.1936,-57.6647 50.702,-56.3136 47.5659,-50.0554"/>
</g>
<!-- 4&#45;&gt;6 -->
<g id="edge15" class="edge"><title>4&#45;&gt;6</title>
<path fill="none" stroke="black" stroke-width="2" d="M126.692,-37.7516C137.725,-51.0154 153.371,-69.8243 165.833,-84.8061"/>
<polygon fill="black" stroke="black" stroke-width="2" points="163.294,-87.2265 172.38,-92.6761 168.676,-82.75 163.294,-87.2265"/>
</g>
<!-- 5&#45;&gt;0 -->
<g id="edge3" class="edge"><title>5&#45;&gt;0</title>
<path fill="none" stroke="black" stroke-width="2" d="M45.339,-164.126C49.7205,-155.824 54.9374,-145.94 59.7376,-136.845"/>
<polygon fill="black" stroke="black" stroke-width="2" points="62.9642,-138.23 64.5365,-127.752 56.7735,-134.962 62.9642,-138.23"/>
</g>
<!-- 5&#45;&gt;2 -->
<g id="edge9" class="edge"><title>5&#45;&gt;2</title>
<path fill="none" stroke="black" stroke-width="2" d="M53.7072,-193.968C69.0408,-201.894 91.7101,-211.458 113.026,-212.257 120.008,-212.518 127.331,-211.316 134.165,-209.501"/>
<polygon fill="black" stroke="black" stroke-width="2" points="135.235,-212.834 143.732,-206.505 133.143,-206.154 135.235,-212.834"/>
</g>
<!-- 6&#45;&gt;3 -->
<g id="edge13" class="edge"><title>6&#45;&gt;3</title>
<path fill="none" stroke="black" stroke-width="2" d="M171.301,-124.684C160.812,-135.72 146.559,-150.716 134.78,-163.11"/>
<polygon fill="black" stroke="black" stroke-width="2" points="132.173,-160.772 127.821,-170.431 137.247,-165.594 132.173,-160.772"/>
</g>
<!-- 6&#45;&gt;7 -->
<g id="edge17" class="edge"><title>6&#45;&gt;7</title>
<path fill="none" stroke="black" stroke-width="2" d="M165.325,-103.648C163.855,-103.259 162.357,-102.862 160.849,-102.463"/>
<polygon fill="black" stroke="black" stroke-width="2" points="161.494,-99.0133 150.932,-99.8378 159.703,-105.78 161.494,-99.0133"/>
</g>
<!-- 7&#45;&gt;1 -->
<g id="edge8" class="edge"><title>7&#45;&gt;1</title>
<path fill="none" stroke="black" stroke-width="2" d="M109.565,-89.2069C93.1798,-85.1212 70.0947,-79.3648 51.6308,-74.7607"/>
<polygon fill="black" stroke="black" stroke-width="2" points="52.4702,-71.3629 41.9204,-72.3394 50.7765,-78.155 52.4702,-71.3629"/>
</g>
<!-- 7&#45;&gt;2 -->
<g id="edge11" class="edge"><title>7&#45;&gt;2</title>
<path fill="none" stroke="black" stroke-width="2" d="M136.899,-114.79C141.712,-129.781 148.331,-150.399 153.763,-167.317"/>
<polygon fill="black" stroke="black" stroke-width="2" points="150.575,-168.838 156.965,-177.289 157.24,-166.698 150.575,-168.838"/>
</g>
<!-- 7&#45;&gt;3 -->
<g id="edge14" class="edge"><title>7&#45;&gt;3</title>
<path fill="none" stroke="black" stroke-width="2" d="M126.342,-115.626C124.139,-127.298 121.366,-141.992 118.925,-154.926"/>
<polygon fill="black" stroke="black" stroke-width="2" points="115.471,-154.355 117.055,-164.831 122.349,-155.654 115.471,-154.355"/>
</g>
<!-- 7&#45;&gt;4 -->
<g id="edge16" class="edge"><title>7&#45;&gt;4</title>
<path fill="none" stroke="black" stroke-width="2" d="M125.406,-73.6159C123.806,-66.8955 121.997,-59.2937 120.263,-52.0065"/>
<polygon fill="black" stroke="black" stroke-width="2" points="123.611,-50.9568 117.891,-42.0388 116.801,-52.5775 123.611,-50.9568"/>
</g>
</g>
</svg>

