<?xml version="1.0" encoding="UTF-8" standalone="no"?>
<!DOCTYPE svg PUBLIC "-//W3C//DTD SVG 1.1//EN"
 "http://www.w3.org/Graphics/SVG/1.1/DTD/svg11.dtd">
<!-- Generated by graphviz version 2.36.0 (20140111.2315)
 -->
<!-- Title: G Pages: 1 -->
<svg width="100%" height="100%"
 viewBox="0.00 0.00 207.38 248.31" xmlns="http://www.w3.org/2000/svg" xmlns:xlink="http://www.w3.org/1999/xlink">
<g id="graph0" class="graph" transform="scale(1 1) rotate(0) translate(4 244.307)">
<title>G</title>
<!-- 0 -->
<g id="node1" class="node"><title>0</title>
<ellipse fill="cadetblue" stroke="black" cx="21.2132" cy="-171.49" rx="21.4286" ry="21.4286"/>
<text text-anchor="middle" x="21.2132" y="-166.49" font-family="Times New Roman,serif" font-size="20.00">2</text>
</g>
<!-- 5 -->
<g id="node6" class="node"><title>5</title>
<ellipse fill="cadetblue" stroke="black" cx="62.9146" cy="-83.0853" rx="21.4286" ry="21.4286"/>
<text text-anchor="middle" x="62.9146" y="-78.0853" font-family="Times New Roman,serif" font-size="20.00">2</text>
</g>
<!-- 0&#45;&gt;5 -->
<g id="edge3" class="edge"><title>0&#45;&gt;5</title>
<path fill="none" stroke="black" stroke-width="2" d="M30.4681,-151.87C36.0676,-139.999 43.3031,-124.661 49.5201,-111.481"/>
<polygon fill="black" stroke="black" stroke-width="2" points="52.7282,-112.884 53.8291,-102.346 46.3972,-109.897 52.7282,-112.884"/>
</g>
<!-- 7 -->
<g id="node8" class="node"><title>7</title>
<ellipse fill="cadetblue" stroke="black" cx="97.2915" cy="-133.517" rx="21.4286" ry="21.4286"/>
<text text-anchor="middle" x="97.2915" y="-128.517" font-family="Times New Roman,serif" font-size="20.00">2</text>
</g>
<!-- 0&#45;&gt;7 -->
<g id="edge4" class="edge"><title>0&#45;&gt;7</title>
<path fill="none" stroke="black" stroke-width="2" d="M40.411,-161.908C49.0606,-157.59 59.4492,-152.405 68.9678,-147.654"/>
<polygon fill="black" stroke="black" stroke-width="2" points="70.7156,-150.693 78.0999,-143.096 67.5894,-144.43 70.7156,-150.693"/>
</g>
<!-- 1 -->
<g id="node2" class="node"><title>1</title>
<ellipse fill="cadetblue" stroke="black" cx="178.166" cy="-141.363" rx="21.4286" ry="21.4286"/>
<text text-anchor="middle" x="178.166" y="-136.363" font-family="Times New Roman,serif" font-size="20.00">2</text>
</g>
<!-- 4 -->
<g id="node5" class="node"><title>4</title>
<ellipse fill="brown" stroke="black" cx="131.804" cy="-219.094" rx="21.4286" ry="21.4286"/>
<text text-anchor="middle" x="131.804" y="-214.094" font-family="Times New Roman,serif" font-size="20.00">3</text>
</g>
<!-- 1&#45;&gt;4 -->
<g id="edge5" class="edge"><title>1&#45;&gt;4</title>
<path fill="none" stroke="black" stroke-width="2" d="M167.179,-159.784C161.405,-169.465 154.22,-181.511 147.837,-192.213"/>
<polygon fill="black" stroke="black" stroke-width="2" points="144.829,-190.424 142.713,-200.805 150.841,-194.009 144.829,-190.424"/>
</g>
<!-- 1&#45;&gt;7 -->
<g id="edge8" class="edge"><title>1&#45;&gt;7</title>
<path fill="none" stroke="black" stroke-width="2" d="M156.917,-139.302C148.348,-138.47 138.283,-137.494 128.887,-136.582"/>
<polygon fill="black" stroke="black" stroke-width="2" points="128.97,-133.074 118.679,-135.592 128.294,-140.041 128.97,-133.074"/>
</g>
<!-- 2 -->
<g id="node3" class="node"><title>2</title>
<ellipse fill="cadetblue" stroke="black" cx="97.3827" cy="-21.2132" rx="21.4286" ry="21.4286"/>
<text text-anchor="middle" x="97.3827" y="-16.2132" font-family="Times New Roman,serif" font-size="20.00">2</text>
</g>
<!-- 6 -->
<g id="node7" class="node"><title>6</title>
<ellipse fill="cadetblue" stroke="black" cx="146.674" cy="-81.5376" rx="21.4286" ry="21.4286"/>
<text text-anchor="middle" x="146.674" y="-76.5376" font-family="Times New Roman,serif" font-size="20.00">2</text>
</g>
<!-- 2&#45;&gt;6 -->
<g id="edge10" class="edge"><title>2&#45;&gt;6</title>
<path fill="none" stroke="black" stroke-width="2" d="M110.852,-37.6971C115.742,-43.682 121.377,-50.5785 126.709,-57.1036"/>
<polygon fill="black" stroke="black" stroke-width="2" points="124.184,-59.5445 133.221,-65.0736 129.604,-55.1154 124.184,-59.5445"/>
</g>
<!-- 3 -->
<g id="node4" class="node"><title>3</title>
<ellipse fill="cadetblue" stroke="black" cx="78.5205" cy="-198.918" rx="21.4286" ry="21.4286"/>
<text text-anchor="middle" x="78.5205" y="-193.918" font-family="Times New Roman,serif" font-size="20.00">2</text>
</g>
<!-- 3&#45;&gt;0 -->
<g id="edge1" class="edge"><title>3&#45;&gt;0</title>
<path fill="none" stroke="black" stroke-width="2" d="M59.1189,-189.632C56.1315,-188.202 52.9938,-186.7 49.8564,-185.199"/>
<polygon fill="black" stroke="black" stroke-width="2" points="51.126,-181.926 40.5949,-180.766 48.104,-188.24 51.126,-181.926"/>
</g>
<!-- 3&#45;&gt;4 -->
<g id="edge12" class="edge"><title>3&#45;&gt;4</title>
<path fill="none" stroke="black" stroke-width="2" d="M98.3615,-206.431C99.5931,-206.897 100.846,-207.371 102.107,-207.849"/>
<polygon fill="black" stroke="black" stroke-width="2" points="101.178,-211.239 111.769,-211.507 103.657,-204.693 101.178,-211.239"/>
</g>
<!-- 4&#45;&gt;0 -->
<g id="edge2" class="edge"><title>4&#45;&gt;0</title>
<path fill="none" stroke="black" stroke-width="2" d="M119.067,-201.665C113.054,-194.351 105.391,-186.203 97.1513,-180.349 84.4393,-171.317 67.4015,-168.709 52.6858,-168.531"/>
<polygon fill="black" stroke="black" stroke-width="2" points="52.3897,-165.037 42.4758,-168.774 52.5562,-172.035 52.3897,-165.037"/>
</g>
<!-- 5&#45;&gt;1 -->
<g id="edge6" class="edge"><title>5&#45;&gt;1</title>
<path fill="none" stroke="black" stroke-width="2" d="M81.946,-92.7088C100.464,-102.073 128.823,-116.413 149.963,-127.102"/>
<polygon fill="black" stroke="black" stroke-width="2" points="148.603,-130.336 159.106,-131.726 151.761,-124.09 148.603,-130.336"/>
</g>
<!-- 5&#45;&gt;2 -->
<g id="edge9" class="edge"><title>5&#45;&gt;2</title>
<path fill="none" stroke="black" stroke-width="2" d="M73.2562,-64.5217C76.0509,-59.5049 79.1352,-53.9685 82.1378,-48.5786"/>
<polygon fill="black" stroke="black" stroke-width="2" points="85.2393,-50.203 87.0484,-39.7638 79.1242,-46.7963 85.2393,-50.203"/>
</g>
<!-- 5&#45;&gt;6 -->
<g id="edge16" class="edge"><title>5&#45;&gt;6</title>
<path fill="none" stroke="black" stroke-width="2" d="M84.4848,-82.6868C93.7663,-82.5152 104.804,-82.3113 114.986,-82.1232"/>
<polygon fill="black" stroke="black" stroke-width="2" points="115.243,-85.6191 125.177,-81.9348 115.114,-78.6203 115.243,-85.6191"/>
</g>
<!-- 6&#45;&gt;1 -->
<g id="edge7" class="edge"><title>6&#45;&gt;1</title>
<path fill="none" stroke="black" stroke-width="2" d="M156.638,-100.467C158.821,-104.613 161.176,-109.087 163.499,-113.5"/>
<polygon fill="black" stroke="black" stroke-width="2" points="160.403,-115.133 168.158,-122.352 166.597,-111.873 160.403,-115.133"/>
</g>
<!-- 6&#45;&gt;3 -->
<g id="edge13" class="edge"><title>6&#45;&gt;3</title>
<path fill="none" stroke="black" stroke-width="2" d="M139.511,-101.697C133.973,-116.204 125.623,-135.975 115.891,-152.118 111.183,-159.926 105.316,-167.876 99.6361,-174.954"/>
<polygon fill="black" stroke="black" stroke-width="2" points="96.8185,-172.869 93.1349,-182.803 102.209,-177.334 96.8185,-172.869"/>
</g>
<!-- 7&#45;&gt;2 -->
<g id="edge11" class="edge"><title>7&#45;&gt;2</title>
<path fill="none" stroke="black" stroke-width="2" d="M97.3088,-112.129C97.3225,-95.3463 97.3416,-71.7331 97.357,-52.7777"/>
<polygon fill="black" stroke="black" stroke-width="2" points="100.857,-52.5242 97.3654,-42.5214 93.8571,-52.5185 100.857,-52.5242"/>
</g>
<!-- 7&#45;&gt;3 -->
<g id="edge14" class="edge"><title>7&#45;&gt;3</title>
<path fill="none" stroke="black" stroke-width="2" d="M91.3522,-154.21C90.0512,-158.743 88.6477,-163.633 87.2628,-168.458"/>
<polygon fill="black" stroke="black" stroke-width="2" points="83.8802,-167.557 84.4855,-178.135 90.6085,-169.488 83.8802,-167.557"/>
</g>
<!-- 7&#45;&gt;4 -->
<g id="edge15" class="edge"><title>7&#45;&gt;4</title>
<path fill="none" stroke="black" stroke-width="2" d="M105.296,-153.365C109.652,-164.166 115.125,-177.736 119.965,-189.737"/>
<polygon fill="black" stroke="black" stroke-width="2" points="116.857,-191.388 123.843,-199.353 123.349,-188.77 116.857,-191.388"/>
</g>
<!-- 7&#45;&gt;5 -->
<g id="edge17" class="edge"><title>7&#45;&gt;5</title>
<path fill="none" stroke="black" stroke-width="2" d="M85.2681,-115.878C83.8111,-113.741 82.2996,-111.523 80.7809,-109.296"/>
<polygon fill="black" stroke="black" stroke-width="2" points="83.5138,-107.091 74.9893,-100.799 77.7298,-111.033 83.5138,-107.091"/>
</g>
</g>
</svg>

