<?xml version="1.0" encoding="UTF-8" standalone="no"?>
<!DOCTYPE svg PUBLIC "-//W3C//DTD SVG 1.1//EN"
 "http://www.w3.org/Graphics/SVG/1.1/DTD/svg11.dtd">
<!-- Generated by graphviz version 2.36.0 (20140111.2315)
 -->
<!-- Title: G Pages: 1 -->
<svg width="100%" height="100%"
 viewBox="0.00 0.00 262.04 256.39" xmlns="http://www.w3.org/2000/svg" xmlns:xlink="http://www.w3.org/1999/xlink">
<g id="graph0" class="graph" transform="scale(1 1) rotate(0) translate(4 252.394)">
<title>G</title>
<!-- 0 -->
<g id="node1" class="node"><title>0</title>
<ellipse fill="cadetblue" stroke="black" cx="211.249" cy="-217.928" rx="21.4286" ry="21.4286"/>
<text text-anchor="middle" x="211.249" y="-212.928" font-family="Times New Roman,serif" font-size="20.00">2</text>
</g>
<!-- 6 -->
<g id="node7" class="node"><title>6</title>
<ellipse fill="cadetblue" stroke="black" cx="136.642" cy="-180.569" rx="21.4286" ry="21.4286"/>
<text text-anchor="middle" x="136.642" y="-175.569" font-family="Times New Roman,serif" font-size="20.00">2</text>
</g>
<!-- 0&#45;&gt;6 -->
<g id="edge3" class="edge"><title>0&#45;&gt;6</title>
<path fill="none" stroke="black" stroke-width="2" d="M192.036,-208.307C183.768,-204.167 173.937,-199.244 164.868,-194.703"/>
<polygon fill="black" stroke="black" stroke-width="2" points="166.299,-191.505 155.79,-190.157 163.164,-197.764 166.299,-191.505"/>
</g>
<!-- 7 -->
<g id="node8" class="node"><title>7</title>
<ellipse fill="brown" stroke="black" cx="136.655" cy="-123.502" rx="21.4286" ry="21.4286"/>
<text text-anchor="middle" x="136.655" y="-118.502" font-family="Times New Roman,serif" font-size="20.00">3</text>
</g>
<!-- 0&#45;&gt;7 -->
<g id="edge4" class="edge"><title>0&#45;&gt;7</title>
<path fill="none" stroke="black" stroke-width="2" d="M197.913,-201.047C186.351,-186.41 169.461,-165.03 156.343,-148.425"/>
<polygon fill="black" stroke="black" stroke-width="2" points="158.821,-145.915 149.875,-140.237 153.328,-150.254 158.821,-145.915"/>
</g>
<!-- 1 -->
<g id="node2" class="node"><title>1</title>
<ellipse fill="cadetblue" stroke="black" cx="21.2132" cy="-169.793" rx="21.4286" ry="21.4286"/>
<text text-anchor="middle" x="21.2132" y="-164.793" font-family="Times New Roman,serif" font-size="20.00">2</text>
</g>
<!-- 1&#45;&gt;6 -->
<g id="edge7" class="edge"><title>1&#45;&gt;6</title>
<path fill="none" stroke="black" stroke-width="2" d="M42.3846,-171.769C59.9285,-173.407 85.1254,-175.759 105.054,-177.62"/>
<polygon fill="black" stroke="black" stroke-width="2" points="104.932,-181.124 115.214,-178.568 105.583,-174.154 104.932,-181.124"/>
</g>
<!-- 1&#45;&gt;7 -->
<g id="edge8" class="edge"><title>1&#45;&gt;7</title>
<path fill="none" stroke="black" stroke-width="2" d="M41.0583,-161.835C59.3122,-154.516 86.6143,-143.568 107.374,-135.244"/>
<polygon fill="black" stroke="black" stroke-width="2" points="108.703,-138.481 116.682,-131.511 106.098,-131.984 108.703,-138.481"/>
</g>
<!-- 2 -->
<g id="node3" class="node"><title>2</title>
<ellipse fill="cadetblue" stroke="black" cx="154.383" cy="-21.2132" rx="21.4286" ry="21.4286"/>
<text text-anchor="middle" x="154.383" y="-16.2132" font-family="Times New Roman,serif" font-size="20.00">2</text>
</g>
<!-- 2&#45;&gt;7 -->
<g id="edge11" class="edge"><title>2&#45;&gt;7</title>
<path fill="none" stroke="black" stroke-width="2" d="M150.71,-42.4075C148.214,-56.8084 144.87,-76.1006 142.07,-92.2552"/>
<polygon fill="black" stroke="black" stroke-width="2" points="138.583,-91.8842 140.323,-102.335 145.48,-93.0796 138.583,-91.8842"/>
</g>
<!-- 3 -->
<g id="node4" class="node"><title>3</title>
<ellipse fill="cadetblue" stroke="black" cx="86.2106" cy="-227.181" rx="21.4286" ry="21.4286"/>
<text text-anchor="middle" x="86.2106" y="-222.181" font-family="Times New Roman,serif" font-size="20.00">2</text>
</g>
<!-- 3&#45;&gt;0 -->
<g id="edge1" class="edge"><title>3&#45;&gt;0</title>
<path fill="none" stroke="black" stroke-width="2" d="M107.422,-225.611C127.271,-224.142 157.176,-221.929 179.801,-220.255"/>
<polygon fill="black" stroke="black" stroke-width="2" points="180.219,-223.734 189.934,-219.505 179.703,-216.753 180.219,-223.734"/>
</g>
<!-- 3&#45;&gt;1 -->
<g id="edge5" class="edge"><title>3&#45;&gt;1</title>
<path fill="none" stroke="black" stroke-width="2" d="M70.1438,-212.995C62.6229,-206.355 53.5086,-198.307 45.1945,-190.967"/>
<polygon fill="black" stroke="black" stroke-width="2" points="47.3594,-188.209 37.5466,-184.214 42.7263,-193.456 47.3594,-188.209"/>
</g>
<!-- 5 -->
<g id="node6" class="node"><title>5</title>
<ellipse fill="brown" stroke="black" cx="59.2687" cy="-93.4125" rx="21.4286" ry="21.4286"/>
<text text-anchor="middle" x="59.2687" y="-88.4125" font-family="Times New Roman,serif" font-size="20.00">3</text>
</g>
<!-- 3&#45;&gt;5 -->
<g id="edge12" class="edge"><title>3&#45;&gt;5</title>
<path fill="none" stroke="black" stroke-width="2" d="M82.0009,-206.28C77.598,-184.419 70.6368,-149.856 65.5769,-124.733"/>
<polygon fill="black" stroke="black" stroke-width="2" points="68.9433,-123.721 63.5377,-114.608 62.0811,-125.103 68.9433,-123.721"/>
</g>
<!-- 4 -->
<g id="node5" class="node"><title>4</title>
<ellipse fill="cadetblue" stroke="black" cx="232.828" cy="-109.434" rx="21.4286" ry="21.4286"/>
<text text-anchor="middle" x="232.828" y="-104.434" font-family="Times New Roman,serif" font-size="20.00">2</text>
</g>
<!-- 4&#45;&gt;0 -->
<g id="edge2" class="edge"><title>4&#45;&gt;0</title>
<path fill="none" stroke="black" stroke-width="2" d="M228.667,-130.353C225.458,-146.488 220.971,-169.045 217.356,-187.225"/>
<polygon fill="black" stroke="black" stroke-width="2" points="213.915,-186.583 215.397,-197.074 220.78,-187.948 213.915,-186.583"/>
</g>
<!-- 4&#45;&gt;2 -->
<g id="edge9" class="edge"><title>4&#45;&gt;2</title>
<path fill="none" stroke="black" stroke-width="2" d="M218.44,-93.2531C206.387,-79.698 189.019,-60.1653 175.407,-44.8575"/>
<polygon fill="black" stroke="black" stroke-width="2" points="177.941,-42.439 168.68,-37.2917 172.709,-47.0905 177.941,-42.439"/>
</g>
<!-- 5&#45;&gt;1 -->
<g id="edge6" class="edge"><title>5&#45;&gt;1</title>
<path fill="none" stroke="black" stroke-width="2" d="M49.6657,-112.686C45.306,-121.437 40.0631,-131.96 35.2722,-141.575"/>
<polygon fill="black" stroke="black" stroke-width="2" points="32.0082,-140.278 30.6813,-150.79 38.2736,-143.4 32.0082,-140.278"/>
</g>
<!-- 5&#45;&gt;2 -->
<g id="edge10" class="edge"><title>5&#45;&gt;2</title>
<path fill="none" stroke="black" stroke-width="2" d="M76.2733,-80.5047C90.9251,-69.3828 112.287,-53.1679 128.969,-40.505"/>
<polygon fill="black" stroke="black" stroke-width="2" points="131.356,-43.0867 137.205,-34.2527 127.124,-37.5111 131.356,-43.0867"/>
</g>
<!-- 6&#45;&gt;3 -->
<g id="edge13" class="edge"><title>6&#45;&gt;3</title>
<path fill="none" stroke="black" stroke-width="2" d="M120.962,-195.062C117.297,-198.449 113.317,-202.128 109.402,-205.746"/>
<polygon fill="black" stroke="black" stroke-width="2" points="107.023,-203.179 102.055,-212.536 111.774,-208.319 107.023,-203.179"/>
</g>
<!-- 6&#45;&gt;4 -->
<g id="edge15" class="edge"><title>6&#45;&gt;4</title>
<path fill="none" stroke="black" stroke-width="2" d="M153.838,-167.851C168.655,-156.893 190.257,-140.918 207.127,-128.441"/>
<polygon fill="black" stroke="black" stroke-width="2" points="209.497,-131.042 215.456,-122.281 205.335,-125.413 209.497,-131.042"/>
</g>
<!-- 6&#45;&gt;5 -->
<g id="edge17" class="edge"><title>6&#45;&gt;5</title>
<path fill="none" stroke="black" stroke-width="2" d="M122.451,-164.583C110.671,-151.314 93.7451,-132.248 80.3762,-117.189"/>
<polygon fill="black" stroke="black" stroke-width="2" points="82.6266,-114.452 73.3702,-109.297 77.3917,-119.099 82.6266,-114.452"/>
</g>
<!-- 7&#45;&gt;3 -->
<g id="edge14" class="edge"><title>7&#45;&gt;3</title>
<path fill="none" stroke="black" stroke-width="2" d="M127.167,-143.003C119.557,-158.643 108.766,-180.822 100.171,-198.487"/>
<polygon fill="black" stroke="black" stroke-width="2" points="96.8841,-197.244 95.6562,-207.767 103.179,-200.306 96.8841,-197.244"/>
</g>
<!-- 7&#45;&gt;4 -->
<g id="edge16" class="edge"><title>7&#45;&gt;4</title>
<path fill="none" stroke="black" stroke-width="2" d="M157.999,-120.38C170.823,-118.504 187.369,-116.084 201.64,-113.996"/>
<polygon fill="black" stroke="black" stroke-width="2" points="202.156,-117.458 211.544,-112.548 201.142,-110.532 202.156,-117.458"/>
</g>
<!-- 7&#45;&gt;5 -->
<g id="edge18" class="edge"><title>7&#45;&gt;5</title>
<path fill="none" stroke="black" stroke-width="2" d="M116.726,-115.753C108.151,-112.419 97.953,-108.454 88.5459,-104.796"/>
<polygon fill="black" stroke="black" stroke-width="2" points="89.7187,-101.497 79.13,-101.135 87.1819,-108.021 89.7187,-101.497"/>
</g>
</g>
</svg>

