<?xml version="1.0" encoding="UTF-8" standalone="no"?>
<!DOCTYPE svg PUBLIC "-//W3C//DTD SVG 1.1//EN"
 "http://www.w3.org/Graphics/SVG/1.1/DTD/svg11.dtd">
<!-- Generated by graphviz version 2.36.0 (20140111.2315)
 -->
<!-- Title: G Pages: 1 -->
<svg width="100%" height="100%"
 viewBox="0.00 0.00 270.16 275.89" xmlns="http://www.w3.org/2000/svg" xmlns:xlink="http://www.w3.org/1999/xlink">
<g id="graph0" class="graph" transform="scale(1 1) rotate(0) translate(4 271.893)">
<title>G</title>
<!-- 0 -->
<g id="node1" class="node"><title>0</title>
<ellipse fill="cadetblue" stroke="black" cx="160.253" cy="-244.687" rx="21.4286" ry="21.4286"/>
<text text-anchor="middle" x="160.253" y="-239.687" font-family="Times New Roman,serif" font-size="20.00">2</text>
</g>
<!-- 6 -->
<g id="node7" class="node"><title>6</title>
<ellipse fill="cadetblue" stroke="black" cx="164.774" cy="-113.636" rx="21.4286" ry="21.4286"/>
<text text-anchor="middle" x="164.774" y="-108.636" font-family="Times New Roman,serif" font-size="20.00">2</text>
</g>
<!-- 0&#45;&gt;6 -->
<g id="edge3" class="edge"><title>0&#45;&gt;6</title>
<path fill="none" stroke="black" stroke-width="2" d="M160.989,-223.34C161.722,-202.111 162.853,-169.304 163.689,-145.092"/>
<polygon fill="black" stroke="black" stroke-width="2" points="167.191,-145.089 164.038,-134.974 160.195,-144.848 167.191,-145.089"/>
</g>
<!-- 7 -->
<g id="node8" class="node"><title>7</title>
<ellipse fill="brown" stroke="black" cx="114.343" cy="-152.966" rx="21.4286" ry="21.4286"/>
<text text-anchor="middle" x="114.343" y="-147.966" font-family="Times New Roman,serif" font-size="20.00">3</text>
</g>
<!-- 0&#45;&gt;7 -->
<g id="edge4" class="edge"><title>0&#45;&gt;7</title>
<path fill="none" stroke="black" stroke-width="2" d="M150.74,-225.682C144.277,-212.769 135.618,-195.47 128.367,-180.985"/>
<polygon fill="black" stroke="black" stroke-width="2" points="131.449,-179.322 123.843,-171.946 125.189,-182.455 131.449,-179.322"/>
</g>
<!-- 1 -->
<g id="node2" class="node"><title>1</title>
<ellipse fill="cadetblue" stroke="black" cx="21.2132" cy="-136.902" rx="21.4286" ry="21.4286"/>
<text text-anchor="middle" x="21.2132" y="-131.902" font-family="Times New Roman,serif" font-size="20.00">2</text>
</g>
<!-- 4 -->
<g id="node5" class="node"><title>4</title>
<ellipse fill="cadetblue" stroke="black" cx="45.2455" cy="-246.679" rx="21.4286" ry="21.4286"/>
<text text-anchor="middle" x="45.2455" y="-241.679" font-family="Times New Roman,serif" font-size="20.00">2</text>
</g>
<!-- 1&#45;&gt;4 -->
<g id="edge5" class="edge"><title>1&#45;&gt;4</title>
<path fill="none" stroke="black" stroke-width="2" d="M25.7901,-157.809C29.3815,-174.214 34.4346,-197.296 38.4909,-215.825"/>
<polygon fill="black" stroke="black" stroke-width="2" points="35.1281,-216.83 40.6857,-225.85 41.9661,-215.333 35.1281,-216.83"/>
</g>
<!-- 1&#45;&gt;7 -->
<g id="edge8" class="edge"><title>1&#45;&gt;7</title>
<path fill="none" stroke="black" stroke-width="2" d="M42.3457,-140.547C54.372,-142.622 69.663,-145.259 83.0572,-147.57"/>
<polygon fill="black" stroke="black" stroke-width="2" points="82.8443,-151.084 93.2937,-149.335 84.0342,-144.186 82.8443,-151.084"/>
</g>
<!-- 2 -->
<g id="node3" class="node"><title>2</title>
<ellipse fill="cadetblue" stroke="black" cx="163.842" cy="-21.2132" rx="21.4286" ry="21.4286"/>
<text text-anchor="middle" x="163.842" y="-16.2132" font-family="Times New Roman,serif" font-size="20.00">2</text>
</g>
<!-- 2&#45;&gt;7 -->
<g id="edge11" class="edge"><title>2&#45;&gt;7</title>
<path fill="none" stroke="black" stroke-width="2" d="M156.324,-41.2236C148.11,-63.0852 134.871,-98.3255 125.457,-123.382"/>
<polygon fill="black" stroke="black" stroke-width="2" points="122.172,-122.175 121.931,-132.767 128.725,-124.637 122.172,-122.175"/>
</g>
<!-- 3 -->
<g id="node4" class="node"><title>3</title>
<ellipse fill="cadetblue" stroke="black" cx="240.947" cy="-186.128" rx="21.4286" ry="21.4286"/>
<text text-anchor="middle" x="240.947" y="-181.128" font-family="Times New Roman,serif" font-size="20.00">2</text>
</g>
<!-- 3&#45;&gt;0 -->
<g id="edge1" class="edge"><title>3&#45;&gt;0</title>
<path fill="none" stroke="black" stroke-width="2" d="M223.438,-198.835C212.365,-206.87 197.871,-217.388 185.558,-226.323"/>
<polygon fill="black" stroke="black" stroke-width="2" points="183.489,-223.5 177.451,-232.207 187.6,-229.166 183.489,-223.5"/>
</g>
<!-- 4&#45;&gt;0 -->
<g id="edge2" class="edge"><title>4&#45;&gt;0</title>
<path fill="none" stroke="black" stroke-width="2" d="M66.608,-246.309C84.1181,-246.006 109.147,-245.572 128.924,-245.23"/>
<polygon fill="black" stroke="black" stroke-width="2" points="129.067,-248.728 139.005,-245.055 128.946,-241.729 129.067,-248.728"/>
</g>
<!-- 5 -->
<g id="node6" class="node"><title>5</title>
<ellipse fill="cadetblue" stroke="black" cx="68.7109" cy="-46.0313" rx="21.4286" ry="21.4286"/>
<text text-anchor="middle" x="68.7109" y="-41.0313" font-family="Times New Roman,serif" font-size="20.00">2</text>
</g>
<!-- 5&#45;&gt;1 -->
<g id="edge6" class="edge"><title>5&#45;&gt;1</title>
<path fill="none" stroke="black" stroke-width="2" d="M58.8694,-64.8598C52.1824,-77.6531 43.224,-94.7918 35.7227,-109.143"/>
<polygon fill="black" stroke="black" stroke-width="2" points="32.5727,-107.614 31.0422,-118.098 38.7764,-110.857 32.5727,-107.614"/>
</g>
<!-- 5&#45;&gt;2 -->
<g id="edge9" class="edge"><title>5&#45;&gt;2</title>
<path fill="none" stroke="black" stroke-width="2" d="M89.3529,-40.6461C102.193,-37.2964 118.936,-32.9284 133.295,-29.1823"/>
<polygon fill="black" stroke="black" stroke-width="2" points="134.447,-32.4989 143.24,-26.5879 132.68,-25.7256 134.447,-32.4989"/>
</g>
<!-- 6&#45;&gt;1 -->
<g id="edge7" class="edge"><title>6&#45;&gt;1</title>
<path fill="none" stroke="black" stroke-width="2" d="M143.591,-117.069C119.523,-120.97 80.0142,-127.373 52.4189,-131.845"/>
<polygon fill="black" stroke="black" stroke-width="2" points="51.7943,-128.4 42.483,-133.455 52.9142,-135.31 51.7943,-128.4"/>
</g>
<!-- 6&#45;&gt;2 -->
<g id="edge10" class="edge"><title>6&#45;&gt;2</title>
<path fill="none" stroke="black" stroke-width="2" d="M164.558,-92.2001C164.44,-80.5351 164.292,-65.8799 164.161,-52.9189"/>
<polygon fill="black" stroke="black" stroke-width="2" points="167.658,-52.4971 164.057,-42.5329 160.658,-52.5678 167.658,-52.4971"/>
</g>
<!-- 6&#45;&gt;3 -->
<g id="edge12" class="edge"><title>6&#45;&gt;3</title>
<path fill="none" stroke="black" stroke-width="2" d="M180.189,-128.306C191.133,-138.721 206.004,-152.874 218.294,-164.57"/>
<polygon fill="black" stroke="black" stroke-width="2" points="215.898,-167.122 225.555,-171.48 220.724,-162.051 215.898,-167.122"/>
</g>
<!-- 6&#45;&gt;5 -->
<g id="edge15" class="edge"><title>6&#45;&gt;5</title>
<path fill="none" stroke="black" stroke-width="2" d="M147.155,-101.236C132.395,-90.8489 111.126,-75.8807 94.457,-64.1502"/>
<polygon fill="black" stroke="black" stroke-width="2" points="96.4109,-61.2454 86.2187,-58.3524 92.3822,-66.97 96.4109,-61.2454"/>
</g>
<!-- 7&#45;&gt;3 -->
<g id="edge13" class="edge"><title>7&#45;&gt;3</title>
<path fill="none" stroke="black" stroke-width="2" d="M134.966,-158.368C155.474,-163.74 187.168,-172.042 210.558,-178.168"/>
<polygon fill="black" stroke="black" stroke-width="2" points="209.772,-181.581 220.333,-180.729 211.546,-174.809 209.772,-181.581"/>
</g>
<!-- 7&#45;&gt;4 -->
<g id="edge14" class="edge"><title>7&#45;&gt;4</title>
<path fill="none" stroke="black" stroke-width="2" d="M101.669,-170.155C91.1498,-184.421 76.0342,-204.922 64.0952,-221.114"/>
<polygon fill="black" stroke="black" stroke-width="2" points="60.9561,-219.474 57.8386,-229.6 66.5902,-223.628 60.9561,-219.474"/>
</g>
<!-- 7&#45;&gt;5 -->
<g id="edge16" class="edge"><title>7&#45;&gt;5</title>
<path fill="none" stroke="black" stroke-width="2" d="M105.973,-133.353C99.0376,-117.1 89.0767,-93.757 81.1983,-75.2946"/>
<polygon fill="black" stroke="black" stroke-width="2" points="84.326,-73.7065 77.1819,-65.8826 77.8877,-76.4539 84.326,-73.7065"/>
</g>
<!-- 7&#45;&gt;6 -->
<g id="edge17" class="edge"><title>7&#45;&gt;6</title>
<path fill="none" stroke="black" stroke-width="2" d="M131.136,-139.87C133.913,-137.704 136.845,-135.417 139.773,-133.134"/>
<polygon fill="black" stroke="black" stroke-width="2" points="142.149,-135.719 147.882,-126.809 137.845,-130.199 142.149,-135.719"/>
</g>
</g>
</svg>

