<?xml version="1.0" encoding="UTF-8" standalone="no"?>
<!DOCTYPE svg PUBLIC "-//W3C//DTD SVG 1.1//EN"
 "http://www.w3.org/Graphics/SVG/1.1/DTD/svg11.dtd">
<!-- Generated by graphviz version 2.36.0 (20140111.2315)
 -->
<!-- Title: G Pages: 1 -->
<svg width="100%" height="100%"
 viewBox="0.00 0.00 239.65 217.47" xmlns="http://www.w3.org/2000/svg" xmlns:xlink="http://www.w3.org/1999/xlink">
<g id="graph0" class="graph" transform="scale(1 1) rotate(0) translate(4 213.475)">
<title>G</title>
<!-- 0 -->
<g id="node1" class="node"><title>0</title>
<ellipse fill="cadetblue" stroke="black" cx="146.451" cy="-115.544" rx="21.4286" ry="21.4286"/>
<text text-anchor="middle" x="146.451" y="-110.544" font-family="Times New Roman,serif" font-size="20.00">2</text>
</g>
<!-- 3 -->
<g id="node4" class="node"><title>3</title>
<ellipse fill="cadetblue" stroke="black" cx="116.734" cy="-188.261" rx="21.4286" ry="21.4286"/>
<text text-anchor="middle" x="116.734" y="-183.261" font-family="Times New Roman,serif" font-size="20.00">2</text>
</g>
<!-- 0&#45;&gt;3 -->
<g id="edge1" class="edge"><title>0&#45;&gt;3</title>
<path fill="none" stroke="black" stroke-width="2" d="M138.331,-135.414C135.35,-142.709 131.91,-151.127 128.664,-159.07"/>
<polygon fill="black" stroke="black" stroke-width="2" points="125.388,-157.834 124.845,-168.415 131.868,-160.482 125.388,-157.834"/>
</g>
<!-- 4 -->
<g id="node5" class="node"><title>4</title>
<ellipse fill="cadetblue" stroke="black" cx="197.808" cy="-41.8034" rx="21.4286" ry="21.4286"/>
<text text-anchor="middle" x="197.808" y="-36.8034" font-family="Times New Roman,serif" font-size="20.00">2</text>
</g>
<!-- 0&#45;&gt;4 -->
<g id="edge2" class="edge"><title>0&#45;&gt;4</title>
<path fill="none" stroke="black" stroke-width="2" d="M158.622,-98.0684C164.908,-89.0427 172.704,-77.8492 179.683,-67.8288"/>
<polygon fill="black" stroke="black" stroke-width="2" points="182.704,-69.6152 185.547,-59.4089 176.96,-65.6146 182.704,-69.6152"/>
</g>
<!-- 5 -->
<g id="node6" class="node"><title>5</title>
<ellipse fill="brown" stroke="black" cx="71.6447" cy="-106.108" rx="21.4286" ry="21.4286"/>
<text text-anchor="middle" x="71.6447" y="-101.108" font-family="Times New Roman,serif" font-size="20.00">3</text>
</g>
<!-- 0&#45;&gt;5 -->
<g id="edge3" class="edge"><title>0&#45;&gt;5</title>
<path fill="none" stroke="black" stroke-width="2" d="M125.215,-112.865C118.265,-111.988 110.395,-110.996 102.867,-110.046"/>
<polygon fill="black" stroke="black" stroke-width="2" points="103.294,-106.572 92.9341,-108.793 102.417,-113.517 103.294,-106.572"/>
</g>
<!-- 1 -->
<g id="node2" class="node"><title>1</title>
<ellipse fill="cadetblue" stroke="black" cx="21.2132" cy="-145.197" rx="21.4286" ry="21.4286"/>
<text text-anchor="middle" x="21.2132" y="-140.197" font-family="Times New Roman,serif" font-size="20.00">2</text>
</g>
<!-- 1&#45;&gt;5 -->
<g id="edge7" class="edge"><title>1&#45;&gt;5</title>
<path fill="none" stroke="black" stroke-width="2" d="M38.0061,-132.181C40.7837,-130.028 43.7154,-127.756 46.6432,-125.486"/>
<polygon fill="black" stroke="black" stroke-width="2" points="48.9935,-128.093 54.7531,-119.2 44.7051,-122.56 48.9935,-128.093"/>
</g>
<!-- 2 -->
<g id="node3" class="node"><title>2</title>
<ellipse fill="cadetblue" stroke="black" cx="141.053" cy="-21.2132" rx="21.4286" ry="21.4286"/>
<text text-anchor="middle" x="141.053" y="-16.2132" font-family="Times New Roman,serif" font-size="20.00">2</text>
</g>
<!-- 2&#45;&gt;4 -->
<g id="edge9" class="edge"><title>2&#45;&gt;4</title>
<path fill="none" stroke="black" stroke-width="2" d="M161.222,-28.5305C163.481,-29.3497 165.815,-30.1965 168.16,-31.0475"/>
<polygon fill="black" stroke="black" stroke-width="2" points="167.109,-34.3894 177.704,-34.5096 169.497,-27.809 167.109,-34.3894"/>
</g>
<!-- 7 -->
<g id="node8" class="node"><title>7</title>
<ellipse fill="cadetblue" stroke="black" cx="77.0145" cy="-43.5241" rx="21.4286" ry="21.4286"/>
<text text-anchor="middle" x="77.0145" y="-38.5241" font-family="Times New Roman,serif" font-size="20.00">2</text>
</g>
<!-- 2&#45;&gt;7 -->
<g id="edge12" class="edge"><title>2&#45;&gt;7</title>
<path fill="none" stroke="black" stroke-width="2" d="M120.791,-28.2725C116.352,-29.8188 111.564,-31.4871 106.839,-33.1331"/>
<polygon fill="black" stroke="black" stroke-width="2" points="105.656,-29.8389 97.3645,-36.4342 107.959,-36.4492 105.656,-29.8389"/>
</g>
<!-- 3&#45;&gt;1 -->
<g id="edge6" class="edge"><title>3&#45;&gt;1</title>
<path fill="none" stroke="black" stroke-width="2" d="M96.9424,-179.338C83.4047,-173.235 65.2381,-165.045 50.0915,-158.216"/>
<polygon fill="black" stroke="black" stroke-width="2" points="51.208,-154.88 40.6531,-153.961 48.3309,-161.262 51.208,-154.88"/>
</g>
<!-- 6 -->
<g id="node7" class="node"><title>6</title>
<ellipse fill="cadetblue" stroke="black" cx="210.438" cy="-123.609" rx="21.4286" ry="21.4286"/>
<text text-anchor="middle" x="210.438" y="-118.609" font-family="Times New Roman,serif" font-size="20.00">2</text>
</g>
<!-- 3&#45;&gt;6 -->
<g id="edge14" class="edge"><title>3&#45;&gt;6</title>
<path fill="none" stroke="black" stroke-width="2" d="M134.359,-176.101C148.494,-166.348 168.539,-152.518 184.505,-141.502"/>
<polygon fill="black" stroke="black" stroke-width="2" points="186.649,-144.275 192.892,-135.715 182.673,-138.514 186.649,-144.275"/>
</g>
<!-- 4&#45;&gt;6 -->
<g id="edge15" class="edge"><title>4&#45;&gt;6</title>
<path fill="none" stroke="black" stroke-width="2" d="M201.061,-62.8704C202.46,-71.9354 204.125,-82.7155 205.66,-92.6599"/>
<polygon fill="black" stroke="black" stroke-width="2" points="202.212,-93.2647 207.197,-102.614 209.13,-92.1966 202.212,-93.2647"/>
</g>
<!-- 4&#45;&gt;7 -->
<g id="edge16" class="edge"><title>4&#45;&gt;7</title>
<path fill="none" stroke="black" stroke-width="2" d="M176.551,-44.769C165.906,-46.0433 152.805,-47.2938 141.014,-47.5175 130.44,-47.7183 118.9,-47.2201 108.568,-46.514"/>
<polygon fill="black" stroke="black" stroke-width="2" points="108.569,-43.0038 98.3288,-45.7237 108.03,-49.983 108.569,-43.0038"/>
</g>
<!-- 5&#45;&gt;2 -->
<g id="edge10" class="edge"><title>5&#45;&gt;2</title>
<path fill="none" stroke="black" stroke-width="2" d="M85.3574,-89.3352C95.5953,-76.813 109.737,-59.5157 121.209,-45.4848"/>
<polygon fill="black" stroke="black" stroke-width="2" points="123.985,-47.6191 127.604,-37.6619 118.565,-43.1884 123.985,-47.6191"/>
</g>
<!-- 5&#45;&gt;3 -->
<g id="edge13" class="edge"><title>5&#45;&gt;3</title>
<path fill="none" stroke="black" stroke-width="2" d="M81.8762,-124.75C87.6579,-135.284 94.9981,-148.658 101.45,-160.413"/>
<polygon fill="black" stroke="black" stroke-width="2" points="98.5076,-162.326 106.387,-169.409 104.644,-158.958 98.5076,-162.326"/>
</g>
<!-- 6&#45;&gt;0 -->
<g id="edge4" class="edge"><title>6&#45;&gt;0</title>
<path fill="none" stroke="black" stroke-width="2" d="M189.131,-120.924C185.5,-120.466 181.662,-119.982 177.835,-119.5"/>
<polygon fill="black" stroke="black" stroke-width="2" points="178.242,-116.023 167.883,-118.245 177.367,-122.968 178.242,-116.023"/>
</g>
<!-- 6&#45;&gt;2 -->
<g id="edge11" class="edge"><title>6&#45;&gt;2</title>
<path fill="none" stroke="black" stroke-width="2" d="M198.352,-105.773C187.408,-89.622 171.147,-65.6251 158.741,-47.3165"/>
<polygon fill="black" stroke="black" stroke-width="2" points="161.507,-45.1599 153,-38.8448 155.712,-49.0867 161.507,-45.1599"/>
</g>
<!-- 7&#45;&gt;0 -->
<g id="edge5" class="edge"><title>7&#45;&gt;0</title>
<path fill="none" stroke="black" stroke-width="2" d="M91.7402,-58.7977C101.185,-68.5938 113.624,-81.4959 124.255,-92.522"/>
<polygon fill="black" stroke="black" stroke-width="2" points="121.806,-95.0247 131.266,-99.7945 126.845,-90.1662 121.806,-95.0247"/>
</g>
<!-- 7&#45;&gt;1 -->
<g id="edge8" class="edge"><title>7&#45;&gt;1</title>
<path fill="none" stroke="black" stroke-width="2" d="M66.7797,-62.1725C58.3376,-77.5544 46.2299,-99.6152 36.6169,-117.131"/>
<polygon fill="black" stroke="black" stroke-width="2" points="33.3152,-115.872 31.5721,-126.322 39.4517,-119.24 33.3152,-115.872"/>
</g>
<!-- 7&#45;&gt;5 -->
<g id="edge17" class="edge"><title>7&#45;&gt;5</title>
<path fill="none" stroke="black" stroke-width="2" d="M75.1965,-64.712C74.9166,-67.9744 74.6226,-71.401 74.3286,-74.8273"/>
<polygon fill="black" stroke="black" stroke-width="2" points="70.8285,-74.6789 73.4608,-84.9415 77.8029,-75.2773 70.8285,-74.6789"/>
</g>
</g>
</svg>

