<?xml version="1.0" encoding="UTF-8" standalone="no"?>
<!DOCTYPE svg PUBLIC "-//W3C//DTD SVG 1.1//EN"
 "http://www.w3.org/Graphics/SVG/1.1/DTD/svg11.dtd">
<!-- Generated by graphviz version 2.36.0 (20140111.2315)
 -->
<!-- Title: G Pages: 1 -->
<svg width="100%" height="100%"
 viewBox="0.00 0.00 272.08 233.33" xmlns="http://www.w3.org/2000/svg" xmlns:xlink="http://www.w3.org/1999/xlink">
<g id="graph0" class="graph" transform="scale(1 1) rotate(0) translate(4 229.327)">
<title>G</title>
<!-- 0 -->
<g id="node1" class="node"><title>0</title>
<ellipse fill="cadetblue" stroke="black" cx="129.234" cy="-204.114" rx="21.4286" ry="21.4286"/>
<text text-anchor="middle" x="129.234" y="-199.114" font-family="Times New Roman,serif" font-size="20.00">2</text>
</g>
<!-- 5 -->
<g id="node6" class="node"><title>5</title>
<ellipse fill="cadetblue" stroke="black" cx="21.2132" cy="-125.57" rx="21.4286" ry="21.4286"/>
<text text-anchor="middle" x="21.2132" y="-120.57" font-family="Times New Roman,serif" font-size="20.00">2</text>
</g>
<!-- 0&#45;&gt;5 -->
<g id="edge3" class="edge"><title>0&#45;&gt;5</title>
<path fill="none" stroke="black" stroke-width="2" d="M110.594,-193.899C100.202,-187.962 87.1763,-180.111 76.1737,-172.214 65.3709,-164.461 54.0679,-155.109 44.5408,-146.82"/>
<polygon fill="black" stroke="black" stroke-width="2" points="46.8183,-144.162 37.0057,-140.166 42.1849,-149.409 46.8183,-144.162"/>
</g>
<!-- 7 -->
<g id="node8" class="node"><title>7</title>
<ellipse fill="brown" stroke="black" cx="178.725" cy="-123.93" rx="21.4286" ry="21.4286"/>
<text text-anchor="middle" x="178.725" y="-118.93" font-family="Times New Roman,serif" font-size="20.00">3</text>
</g>
<!-- 0&#45;&gt;7 -->
<g id="edge4" class="edge"><title>0&#45;&gt;7</title>
<path fill="none" stroke="black" stroke-width="2" d="M140.465,-185.919C146.856,-175.564 154.982,-162.399 162.1,-150.867"/>
<polygon fill="black" stroke="black" stroke-width="2" points="165.265,-152.401 167.539,-142.053 159.309,-148.724 165.265,-152.401"/>
</g>
<!-- 1 -->
<g id="node2" class="node"><title>1</title>
<ellipse fill="cadetblue" stroke="black" cx="94.8413" cy="-153.682" rx="21.4286" ry="21.4286"/>
<text text-anchor="middle" x="94.8413" y="-148.682" font-family="Times New Roman,serif" font-size="20.00">2</text>
</g>
<!-- 6 -->
<g id="node7" class="node"><title>6</title>
<ellipse fill="cadetblue" stroke="black" cx="197.551" cy="-61.0949" rx="21.4286" ry="21.4286"/>
<text text-anchor="middle" x="197.551" y="-56.0949" font-family="Times New Roman,serif" font-size="20.00">2</text>
</g>
<!-- 1&#45;&gt;6 -->
<g id="edge7" class="edge"><title>1&#45;&gt;6</title>
<path fill="none" stroke="black" stroke-width="2" d="M110.89,-139.215C127.849,-123.928 154.764,-99.6648 174.1,-82.2343"/>
<polygon fill="black" stroke="black" stroke-width="2" points="176.531,-84.7554 181.615,-75.4601 171.844,-79.556 176.531,-84.7554"/>
</g>
<!-- 1&#45;&gt;7 -->
<g id="edge8" class="edge"><title>1&#45;&gt;7</title>
<path fill="none" stroke="black" stroke-width="2" d="M115.147,-146.48C125.348,-142.862 137.9,-138.41 149.148,-134.421"/>
<polygon fill="black" stroke="black" stroke-width="2" points="150.351,-137.708 158.606,-131.066 148.012,-131.11 150.351,-137.708"/>
</g>
<!-- 2 -->
<g id="node3" class="node"><title>2</title>
<ellipse fill="cadetblue" stroke="black" cx="101.401" cy="-21.2132" rx="21.4286" ry="21.4286"/>
<text text-anchor="middle" x="101.401" y="-16.2132" font-family="Times New Roman,serif" font-size="20.00">2</text>
</g>
<!-- 2&#45;&gt;5 -->
<g id="edge10" class="edge"><title>2&#45;&gt;5</title>
<path fill="none" stroke="black" stroke-width="2" d="M88.1594,-38.4455C75.1397,-55.3895 55.1282,-81.4325 40.3734,-100.634"/>
<polygon fill="black" stroke="black" stroke-width="2" points="37.5259,-98.5959 34.2082,-108.658 43.0765,-102.861 37.5259,-98.5959"/>
</g>
<!-- 2&#45;&gt;7 -->
<g id="edge12" class="edge"><title>2&#45;&gt;7</title>
<path fill="none" stroke="black" stroke-width="2" d="M114.169,-38.1749C126.594,-54.679 145.62,-79.9538 159.803,-98.7944"/>
<polygon fill="black" stroke="black" stroke-width="2" points="157.127,-101.059 165.938,-106.944 162.72,-96.8492 157.127,-101.059"/>
</g>
<!-- 3 -->
<g id="node4" class="node"><title>3</title>
<ellipse fill="cadetblue" stroke="black" cx="242.869" cy="-173.359" rx="21.4286" ry="21.4286"/>
<text text-anchor="middle" x="242.869" y="-168.359" font-family="Times New Roman,serif" font-size="20.00">2</text>
</g>
<!-- 3&#45;&gt;0 -->
<g id="edge1" class="edge"><title>3&#45;&gt;0</title>
<path fill="none" stroke="black" stroke-width="2" d="M222.29,-178.928C204.862,-183.645 179.626,-190.475 159.83,-195.833"/>
<polygon fill="black" stroke="black" stroke-width="2" points="158.782,-192.491 150.044,-198.482 160.611,-199.248 158.782,-192.491"/>
</g>
<!-- 4 -->
<g id="node5" class="node"><title>4</title>
<ellipse fill="cadetblue" stroke="black" cx="111.367" cy="-86.3309" rx="21.4286" ry="21.4286"/>
<text text-anchor="middle" x="111.367" y="-81.3309" font-family="Times New Roman,serif" font-size="20.00">2</text>
</g>
<!-- 4&#45;&gt;0 -->
<g id="edge2" class="edge"><title>4&#45;&gt;0</title>
<path fill="none" stroke="black" stroke-width="2" d="M114.562,-107.388C117.327,-125.615 121.364,-152.227 124.503,-172.926"/>
<polygon fill="black" stroke="black" stroke-width="2" points="121.047,-173.48 126.008,-182.842 127.968,-172.43 121.047,-173.48"/>
</g>
<!-- 4&#45;&gt;1 -->
<g id="edge5" class="edge"><title>4&#45;&gt;1</title>
<path fill="none" stroke="black" stroke-width="2" d="M106.229,-107.272C105.005,-112.261 103.674,-117.687 102.367,-123.011"/>
<polygon fill="black" stroke="black" stroke-width="2" points="98.9037,-122.439 99.9198,-132.985 105.702,-124.107 98.9037,-122.439"/>
</g>
<!-- 4&#45;&gt;2 -->
<g id="edge9" class="edge"><title>4&#45;&gt;2</title>
<path fill="none" stroke="black" stroke-width="2" d="M108.104,-65.009C107.496,-61.0332 106.848,-56.8026 106.204,-52.5981"/>
<polygon fill="black" stroke="black" stroke-width="2" points="109.61,-51.716 104.638,-42.3607 102.691,-52.7751 109.61,-51.716"/>
</g>
<!-- 5&#45;&gt;1 -->
<g id="edge6" class="edge"><title>5&#45;&gt;1</title>
<path fill="none" stroke="black" stroke-width="2" d="M41.3324,-133.251C48.7789,-136.095 57.3816,-139.379 65.4817,-142.472"/>
<polygon fill="black" stroke="black" stroke-width="2" points="64.4107,-145.81 75.0014,-146.107 66.9076,-139.27 64.4107,-145.81"/>
</g>
<!-- 6&#45;&gt;2 -->
<g id="edge11" class="edge"><title>6&#45;&gt;2</title>
<path fill="none" stroke="black" stroke-width="2" d="M177.629,-52.8314C164.092,-47.2166 145.958,-39.6947 130.773,-33.3962"/>
<polygon fill="black" stroke="black" stroke-width="2" points="131.876,-30.0646 121.298,-29.4661 129.194,-36.5305 131.876,-30.0646"/>
</g>
<!-- 6&#45;&gt;3 -->
<g id="edge13" class="edge"><title>6&#45;&gt;3</title>
<path fill="none" stroke="black" stroke-width="2" d="M205.549,-80.907C212.591,-98.3541 222.946,-124.005 230.963,-143.865"/>
<polygon fill="black" stroke="black" stroke-width="2" points="227.81,-145.404 234.799,-153.367 234.301,-142.784 227.81,-145.404"/>
</g>
<!-- 6&#45;&gt;4 -->
<g id="edge15" class="edge"><title>6&#45;&gt;4</title>
<path fill="none" stroke="black" stroke-width="2" d="M177.127,-67.0755C166.578,-70.1644 153.496,-73.9951 141.784,-77.4243"/>
<polygon fill="black" stroke="black" stroke-width="2" points="140.557,-74.1366 131.944,-80.3058 142.524,-80.8545 140.557,-74.1366"/>
</g>
<!-- 7&#45;&gt;3 -->
<g id="edge14" class="edge"><title>7&#45;&gt;3</title>
<path fill="none" stroke="black" stroke-width="2" d="M195.578,-136.917C202.301,-142.098 210.186,-148.174 217.569,-153.863"/>
<polygon fill="black" stroke="black" stroke-width="2" points="215.848,-156.956 225.906,-160.287 220.121,-151.411 215.848,-156.956"/>
</g>
<!-- 7&#45;&gt;4 -->
<g id="edge16" class="edge"><title>7&#45;&gt;4</title>
<path fill="none" stroke="black" stroke-width="2" d="M159.962,-113.457C153.539,-109.872 146.209,-105.78 139.224,-101.881"/>
<polygon fill="black" stroke="black" stroke-width="2" points="140.467,-98.5663 130.03,-96.7483 137.056,-104.679 140.467,-98.5663"/>
</g>
<!-- 7&#45;&gt;6 -->
<g id="edge17" class="edge"><title>7&#45;&gt;6</title>
<path fill="none" stroke="black" stroke-width="2" d="M184.889,-103.356C186.039,-99.5192 187.262,-95.4369 188.477,-91.3798"/>
<polygon fill="black" stroke="black" stroke-width="2" points="191.92,-92.0851 191.437,-81.5012 185.214,-90.076 191.92,-92.0851"/>
</g>
</g>
</svg>

