<?xml version="1.0" encoding="UTF-8" standalone="no"?>
<!DOCTYPE svg PUBLIC "-//W3C//DTD SVG 1.1//EN"
 "http://www.w3.org/Graphics/SVG/1.1/DTD/svg11.dtd">
<!-- Generated by graphviz version 2.36.0 (20140111.2315)
 -->
<!-- Title: G Pages: 1 -->
<svg width="100%" height="100%"
 viewBox="0.00 0.00 255.19 219.46" xmlns="http://www.w3.org/2000/svg" xmlns:xlink="http://www.w3.org/1999/xlink">
<g id="graph0" class="graph" transform="scale(1 1) rotate(0) translate(4 215.46)">
<title>G</title>
<!-- 0 -->
<g id="node1" class="node"><title>0</title>
<ellipse fill="cadetblue" stroke="black" cx="118.53" cy="-190.246" rx="21.4286" ry="21.4286"/>
<text text-anchor="middle" x="118.53" y="-185.246" font-family="Times New Roman,serif" font-size="20.00">2</text>
</g>
<!-- 5 -->
<g id="node6" class="node"><title>5</title>
<ellipse fill="cadetblue" stroke="black" cx="21.2132" cy="-126.43" rx="21.4286" ry="21.4286"/>
<text text-anchor="middle" x="21.2132" y="-121.43" font-family="Times New Roman,serif" font-size="20.00">2</text>
</g>
<!-- 0&#45;&gt;5 -->
<g id="edge3" class="edge"><title>0&#45;&gt;5</title>
<path fill="none" stroke="black" stroke-width="2" d="M100.68,-178.542C85.9576,-168.887 64.8419,-155.04 48.077,-144.047"/>
<polygon fill="black" stroke="black" stroke-width="2" points="49.5607,-140.834 39.279,-138.277 45.7221,-146.688 49.5607,-140.834"/>
</g>
<!-- 7 -->
<g id="node8" class="node"><title>7</title>
<ellipse fill="cadetblue" stroke="black" cx="130.959" cy="-75.1193" rx="21.4286" ry="21.4286"/>
<text text-anchor="middle" x="130.959" y="-70.1193" font-family="Times New Roman,serif" font-size="20.00">2</text>
</g>
<!-- 0&#45;&gt;7 -->
<g id="edge4" class="edge"><title>0&#45;&gt;7</title>
<path fill="none" stroke="black" stroke-width="2" d="M125.421,-169.935C128.132,-160.865 130.892,-149.973 132.135,-139.911 133.469,-129.108 133.627,-117.217 133.307,-106.602"/>
<polygon fill="black" stroke="black" stroke-width="2" points="136.799,-106.334 132.854,-96.5009 129.806,-106.648 136.799,-106.334"/>
</g>
<!-- 1 -->
<g id="node2" class="node"><title>1</title>
<ellipse fill="cadetblue" stroke="black" cx="105.831" cy="-139.815" rx="21.4286" ry="21.4286"/>
<text text-anchor="middle" x="105.831" y="-134.815" font-family="Times New Roman,serif" font-size="20.00">2</text>
</g>
<!-- 6 -->
<g id="node7" class="node"><title>6</title>
<ellipse fill="cadetblue" stroke="black" cx="186.174" cy="-58.2972" rx="21.4286" ry="21.4286"/>
<text text-anchor="middle" x="186.174" y="-53.2972" font-family="Times New Roman,serif" font-size="20.00">2</text>
</g>
<!-- 1&#45;&gt;6 -->
<g id="edge7" class="edge"><title>1&#45;&gt;6</title>
<path fill="none" stroke="black" stroke-width="2" d="M120.943,-124.482C133.063,-112.185 150.249,-94.7474 163.939,-80.8576"/>
<polygon fill="black" stroke="black" stroke-width="2" points="166.603,-83.1404 171.13,-73.5613 161.618,-78.2267 166.603,-83.1404"/>
</g>
<!-- 1&#45;&gt;7 -->
<g id="edge8" class="edge"><title>1&#45;&gt;7</title>
<path fill="none" stroke="black" stroke-width="2" d="M113.644,-119.699C115.505,-114.908 117.529,-109.696 119.516,-104.581"/>
<polygon fill="black" stroke="black" stroke-width="2" points="122.879,-105.589 123.237,-95.0001 116.354,-103.054 122.879,-105.589"/>
</g>
<!-- 2 -->
<g id="node3" class="node"><title>2</title>
<ellipse fill="cadetblue" stroke="black" cx="70.6346" cy="-21.2132" rx="21.4286" ry="21.4286"/>
<text text-anchor="middle" x="70.6346" y="-16.2132" font-family="Times New Roman,serif" font-size="20.00">2</text>
</g>
<!-- 2&#45;&gt;5 -->
<g id="edge9" class="edge"><title>2&#45;&gt;5</title>
<path fill="none" stroke="black" stroke-width="2" d="M61.57,-40.5117C54.0931,-56.4298 43.3697,-79.2598 34.8558,-97.3858"/>
<polygon fill="black" stroke="black" stroke-width="2" points="31.4713,-96.3587 30.3878,-106.898 37.8072,-99.3348 31.4713,-96.3587"/>
</g>
<!-- 3 -->
<g id="node4" class="node"><title>3</title>
<ellipse fill="cadetblue" stroke="black" cx="225.973" cy="-123.932" rx="21.4286" ry="21.4286"/>
<text text-anchor="middle" x="225.973" y="-118.932" font-family="Times New Roman,serif" font-size="20.00">2</text>
</g>
<!-- 3&#45;&gt;0 -->
<g id="edge1" class="edge"><title>3&#45;&gt;0</title>
<path fill="none" stroke="black" stroke-width="2" d="M207.747,-135.181C190.69,-145.708 164.994,-161.568 145.552,-173.568"/>
<polygon fill="black" stroke="black" stroke-width="2" points="143.517,-170.711 136.845,-178.942 147.193,-176.668 143.517,-170.711"/>
</g>
<!-- 4 -->
<g id="node5" class="node"><title>4</title>
<ellipse fill="cadetblue" stroke="black" cx="198.608" cy="-185.389" rx="21.4286" ry="21.4286"/>
<text text-anchor="middle" x="198.608" y="-180.389" font-family="Times New Roman,serif" font-size="20.00">2</text>
</g>
<!-- 3&#45;&gt;4 -->
<g id="edge12" class="edge"><title>3&#45;&gt;4</title>
<path fill="none" stroke="black" stroke-width="2" d="M217.314,-143.377C215.468,-147.525 213.479,-151.99 211.512,-156.408"/>
<polygon fill="black" stroke="black" stroke-width="2" points="208.174,-155.3 207.304,-165.859 214.569,-158.147 208.174,-155.3"/>
</g>
<!-- 4&#45;&gt;0 -->
<g id="edge2" class="edge"><title>4&#45;&gt;0</title>
<path fill="none" stroke="black" stroke-width="2" d="M177.148,-186.691C168.824,-187.196 159.122,-187.784 150.036,-188.335"/>
<polygon fill="black" stroke="black" stroke-width="2" points="149.54,-184.859 139.771,-188.958 149.964,-191.846 149.54,-184.859"/>
</g>
<!-- 4&#45;&gt;1 -->
<g id="edge5" class="edge"><title>4&#45;&gt;1</title>
<path fill="none" stroke="black" stroke-width="2" d="M179.384,-175.946C166.323,-169.53 148.824,-160.934 134.172,-153.737"/>
<polygon fill="black" stroke="black" stroke-width="2" points="135.548,-150.513 125.03,-149.246 132.462,-156.796 135.548,-150.513"/>
</g>
<!-- 5&#45;&gt;1 -->
<g id="edge6" class="edge"><title>5&#45;&gt;1</title>
<path fill="none" stroke="black" stroke-width="2" d="M42.5658,-129.808C52.2598,-131.341 63.9174,-133.185 74.5702,-134.87"/>
<polygon fill="black" stroke="black" stroke-width="2" points="74.3541,-138.379 84.7781,-136.485 75.4477,-131.465 74.3541,-138.379"/>
</g>
<!-- 6&#45;&gt;2 -->
<g id="edge10" class="edge"><title>6&#45;&gt;2</title>
<path fill="none" stroke="black" stroke-width="2" d="M165.784,-51.7527C147.828,-45.9894 121.428,-37.5161 100.989,-30.9559"/>
<polygon fill="black" stroke="black" stroke-width="2" points="101.801,-27.5406 91.2097,-27.817 99.6616,-34.2057 101.801,-27.5406"/>
</g>
<!-- 6&#45;&gt;3 -->
<g id="edge13" class="edge"><title>6&#45;&gt;3</title>
<path fill="none" stroke="black" stroke-width="2" d="M197.261,-76.5801C201.056,-82.8387 205.386,-89.9811 209.514,-96.7877"/>
<polygon fill="black" stroke="black" stroke-width="2" points="206.768,-99.0107 214.946,-105.747 212.754,-95.3812 206.768,-99.0107"/>
</g>
<!-- 6&#45;&gt;4 -->
<g id="edge15" class="edge"><title>6&#45;&gt;4</title>
<path fill="none" stroke="black" stroke-width="2" d="M188.255,-79.5695C190.246,-99.9141 193.271,-130.839 195.538,-154.012"/>
<polygon fill="black" stroke="black" stroke-width="2" points="192.063,-154.436 196.52,-164.047 199.03,-153.754 192.063,-154.436"/>
</g>
<!-- 7&#45;&gt;2 -->
<g id="edge11" class="edge"><title>7&#45;&gt;2</title>
<path fill="none" stroke="black" stroke-width="2" d="M115.109,-60.9561C108.787,-55.3061 101.371,-48.6799 94.4282,-42.4753"/>
<polygon fill="black" stroke="black" stroke-width="2" points="96.3765,-39.5225 86.5877,-35.469 91.7122,-44.7421 96.3765,-39.5225"/>
</g>
<!-- 7&#45;&gt;3 -->
<g id="edge14" class="edge"><title>7&#45;&gt;3</title>
<path fill="none" stroke="black" stroke-width="2" d="M150.186,-84.9972C163.927,-92.0565 182.631,-101.665 198.019,-109.571"/>
<polygon fill="black" stroke="black" stroke-width="2" points="196.604,-112.778 207.098,-114.235 199.803,-106.552 196.604,-112.778"/>
</g>
<!-- 7&#45;&gt;6 -->
<g id="edge16" class="edge"><title>7&#45;&gt;6</title>
<path fill="none" stroke="black" stroke-width="2" d="M151.519,-68.8554C152.975,-68.4117 154.46,-67.9594 155.955,-67.504"/>
<polygon fill="black" stroke="black" stroke-width="2" points="157.235,-70.7729 165.781,-64.5104 155.195,-64.0768 157.235,-70.7729"/>
</g>
</g>
</svg>

