<?xml version="1.0" encoding="UTF-8" standalone="no"?>
<!DOCTYPE svg PUBLIC "-//W3C//DTD SVG 1.1//EN"
 "http://www.w3.org/Graphics/SVG/1.1/DTD/svg11.dtd">
<!-- Generated by graphviz version 2.36.0 (20140111.2315)
 -->
<!-- Title: G Pages: 1 -->
<svg width="100%" height="100%"
 viewBox="0.00 0.00 166.58 221.02" xmlns="http://www.w3.org/2000/svg" xmlns:xlink="http://www.w3.org/1999/xlink">
<g id="graph0" class="graph" transform="scale(1 1) rotate(0) translate(4 217.024)">
<title>G</title>
<!-- 0 -->
<g id="node1" class="node"><title>0</title>
<ellipse fill="cadetblue" stroke="black" cx="71.6447" cy="-71.9904" rx="21.4286" ry="21.4286"/>
<text text-anchor="middle" x="71.6447" y="-66.9904" font-family="Times New Roman,serif" font-size="20.00">2</text>
</g>
<!-- 5 -->
<g id="node6" class="node"><title>5</title>
<ellipse fill="cadetblue" stroke="black" cx="21.2132" cy="-94.1768" rx="21.4286" ry="21.4286"/>
<text text-anchor="middle" x="21.2132" y="-89.1768" font-family="Times New Roman,serif" font-size="20.00">2</text>
</g>
<!-- 0&#45;&gt;5 -->
<g id="edge3" class="edge"><title>0&#45;&gt;5</title>
<path fill="none" stroke="black" stroke-width="2" d="M52.0021,-80.6317C51.4317,-80.8827 50.8573,-81.1354 50.2801,-81.3893"/>
<polygon fill="black" stroke="black" stroke-width="2" points="48.629,-78.2919 40.8851,-85.5225 51.4479,-84.6992 48.629,-78.2919"/>
</g>
<!-- 6 -->
<g id="node7" class="node"><title>6</title>
<ellipse fill="brown" stroke="black" cx="137.367" cy="-79.4897" rx="21.4286" ry="21.4286"/>
<text text-anchor="middle" x="137.367" y="-74.4897" font-family="Times New Roman,serif" font-size="20.00">3</text>
</g>
<!-- 0&#45;&gt;6 -->
<g id="edge4" class="edge"><title>0&#45;&gt;6</title>
<path fill="none" stroke="black" stroke-width="2" d="M92.8014,-74.4045C97.023,-74.8862 101.541,-75.4017 106.021,-75.913"/>
<polygon fill="black" stroke="black" stroke-width="2" points="105.918,-79.4238 116.25,-77.0801 106.711,-72.4689 105.918,-79.4238"/>
</g>
<!-- 1 -->
<g id="node2" class="node"><title>1</title>
<ellipse fill="cadetblue" stroke="black" cx="24.8982" cy="-191.811" rx="21.4286" ry="21.4286"/>
<text text-anchor="middle" x="24.8982" y="-186.811" font-family="Times New Roman,serif" font-size="20.00">2</text>
</g>
<!-- 1&#45;&gt;5 -->
<g id="edge7" class="edge"><title>1&#45;&gt;5</title>
<path fill="none" stroke="black" stroke-width="2" d="M24.0804,-170.143C23.5856,-157.033 22.9462,-140.093 22.3968,-125.537"/>
<polygon fill="black" stroke="black" stroke-width="2" points="25.8908,-125.309 22.0161,-115.448 18.8958,-125.573 25.8908,-125.309"/>
</g>
<!-- 2 -->
<g id="node3" class="node"><title>2</title>
<ellipse fill="cadetblue" stroke="black" cx="98.6932" cy="-21.2132" rx="21.4286" ry="21.4286"/>
<text text-anchor="middle" x="98.6932" y="-16.2132" font-family="Times New Roman,serif" font-size="20.00">2</text>
</g>
<!-- 2&#45;&gt;6 -->
<g id="edge10" class="edge"><title>2&#45;&gt;6</title>
<path fill="none" stroke="black" stroke-width="2" d="M110.507,-39.0147C113.506,-43.5336 116.79,-48.4834 120.002,-53.3227"/>
<polygon fill="black" stroke="black" stroke-width="2" points="117.18,-55.4004 125.626,-61.7972 123.013,-51.5297 117.18,-55.4004"/>
</g>
<!-- 3 -->
<g id="node4" class="node"><title>3</title>
<ellipse fill="cadetblue" stroke="black" cx="77.3999" cy="-158.114" rx="21.4286" ry="21.4286"/>
<text text-anchor="middle" x="77.3999" y="-153.114" font-family="Times New Roman,serif" font-size="20.00">2</text>
</g>
<!-- 3&#45;&gt;0 -->
<g id="edge1" class="edge"><title>3&#45;&gt;0</title>
<path fill="none" stroke="black" stroke-width="2" d="M75.9772,-136.825C75.3062,-126.784 74.492,-114.599 73.7514,-103.516"/>
<polygon fill="black" stroke="black" stroke-width="2" points="77.2299,-103.077 73.0709,-93.3328 70.2455,-103.544 77.2299,-103.077"/>
</g>
<!-- 3&#45;&gt;1 -->
<g id="edge5" class="edge"><title>3&#45;&gt;1</title>
<path fill="none" stroke="black" stroke-width="2" d="M59.3318,-169.71C56.7456,-171.37 54.0418,-173.106 51.3353,-174.843"/>
<polygon fill="black" stroke="black" stroke-width="2" points="49.3469,-171.96 42.8218,-180.307 53.128,-177.851 49.3469,-171.96"/>
</g>
<!-- 4 -->
<g id="node5" class="node"><title>4</title>
<ellipse fill="cadetblue" stroke="black" cx="131.032" cy="-139.292" rx="21.4286" ry="21.4286"/>
<text text-anchor="middle" x="131.032" y="-134.292" font-family="Times New Roman,serif" font-size="20.00">2</text>
</g>
<!-- 3&#45;&gt;4 -->
<g id="edge11" class="edge"><title>3&#45;&gt;4</title>
<path fill="none" stroke="black" stroke-width="2" d="M97.6759,-150.998C98.7438,-150.623 99.8264,-150.243 100.916,-149.861"/>
<polygon fill="black" stroke="black" stroke-width="2" points="102.45,-153.032 110.727,-146.418 100.133,-146.427 102.45,-153.032"/>
</g>
<!-- 4&#45;&gt;0 -->
<g id="edge2" class="edge"><title>4&#45;&gt;0</title>
<path fill="none" stroke="black" stroke-width="2" d="M116.958,-123.343C109.742,-115.165 100.806,-105.038 92.7813,-95.9439"/>
<polygon fill="black" stroke="black" stroke-width="2" points="95.271,-93.4755 86.0302,-88.2931 90.0222,-98.107 95.271,-93.4755"/>
</g>
<!-- 4&#45;&gt;1 -->
<g id="edge6" class="edge"><title>4&#45;&gt;1</title>
<path fill="none" stroke="black" stroke-width="2" d="M118.012,-156.152C111.899,-163.228 104.153,-171.112 95.932,-176.781 84.3863,-184.742 69.4595,-188.622 56.2711,-190.465"/>
<polygon fill="black" stroke="black" stroke-width="2" points="55.7362,-187.002 46.1648,-191.545 56.4801,-193.963 55.7362,-187.002"/>
</g>
<!-- 4&#45;&gt;2 -->
<g id="edge8" class="edge"><title>4&#45;&gt;2</title>
<path fill="none" stroke="black" stroke-width="2" d="M123.721,-119.168C119.669,-107.584 114.726,-92.6963 111.064,-79.2297 108.694,-70.5155 106.497,-60.9641 104.631,-52.1716"/>
<polygon fill="black" stroke="black" stroke-width="2" points="108.043,-51.3859 102.603,-42.294 101.186,-52.7936 108.043,-51.3859"/>
</g>
<!-- 5&#45;&gt;2 -->
<g id="edge9" class="edge"><title>5&#45;&gt;2</title>
<path fill="none" stroke="black" stroke-width="2" d="M33.2044,-76.5408C38.7882,-68.9672 45.804,-60.2812 53.1013,-53.3339 58.7903,-47.9178 65.4521,-42.7087 71.8988,-38.1194"/>
<polygon fill="black" stroke="black" stroke-width="2" points="74.1601,-40.8135 80.445,-32.2841 70.2129,-35.0325 74.1601,-40.8135"/>
</g>
<!-- 5&#45;&gt;3 -->
<g id="edge12" class="edge"><title>5&#45;&gt;3</title>
<path fill="none" stroke="black" stroke-width="2" d="M35.3915,-110.311C41.7308,-117.524 49.3348,-126.177 56.3207,-134.127"/>
<polygon fill="black" stroke="black" stroke-width="2" points="53.8004,-136.561 63.0307,-141.762 59.0586,-131.94 53.8004,-136.561"/>
</g>
<!-- 5&#45;&gt;6 -->
<g id="edge15" class="edge"><title>5&#45;&gt;6</title>
<path fill="none" stroke="black" stroke-width="2" d="M42.2959,-97.5918C51.3169,-98.6152 61.9635,-99.2422 71.5647,-98.2946 83.6953,-97.0974 96.6713,-93.8395 107.867,-90.365"/>
<polygon fill="black" stroke="black" stroke-width="2" points="109.171,-93.6205 117.573,-87.1661 106.98,-86.9723 109.171,-93.6205"/>
</g>
<!-- 6&#45;&gt;3 -->
<g id="edge13" class="edge"><title>6&#45;&gt;3</title>
<path fill="none" stroke="black" stroke-width="2" d="M124.355,-96.5499C116.261,-107.162 105.707,-121 96.6553,-132.868"/>
<polygon fill="black" stroke="black" stroke-width="2" points="93.6681,-131.013 90.3865,-141.087 99.234,-135.258 93.6681,-131.013"/>
</g>
<!-- 6&#45;&gt;4 -->
<g id="edge14" class="edge"><title>6&#45;&gt;4</title>
<path fill="none" stroke="black" stroke-width="2" d="M135.116,-100.742C134.864,-103.122 134.603,-105.581 134.341,-108.053"/>
<polygon fill="black" stroke="black" stroke-width="2" points="130.849,-107.795 133.276,-118.108 137.81,-108.533 130.849,-107.795"/>
</g>
</g>
</svg>

