<?xml version="1.0" encoding="UTF-8" standalone="no"?>
<!DOCTYPE svg PUBLIC "-//W3C//DTD SVG 1.1//EN"
 "http://www.w3.org/Graphics/SVG/1.1/DTD/svg11.dtd">
<!-- Generated by graphviz version 2.36.0 (20140111.2315)
 -->
<!-- Title: G Pages: 1 -->
<svg width="100%" height="100%"
 viewBox="0.00 0.00 248.91 233.57" xmlns="http://www.w3.org/2000/svg" xmlns:xlink="http://www.w3.org/1999/xlink">
<g id="graph0" class="graph" transform="scale(1 1) rotate(0) translate(4 229.573)">
<title>G</title>
<!-- 0 -->
<g id="node1" class="node"><title>0</title>
<ellipse fill="cadetblue" stroke="black" cx="180.614" cy="-141.493" rx="21.4286" ry="21.4286"/>
<text text-anchor="middle" x="180.614" y="-136.493" font-family="Times New Roman,serif" font-size="20.00">2</text>
</g>
<!-- 4 -->
<g id="node5" class="node"><title>4</title>
<ellipse fill="cadetblue" stroke="black" cx="219.696" cy="-44.0752" rx="21.4286" ry="21.4286"/>
<text text-anchor="middle" x="219.696" y="-39.0752" font-family="Times New Roman,serif" font-size="20.00">2</text>
</g>
<!-- 0&#45;&gt;4 -->
<g id="edge2" class="edge"><title>0&#45;&gt;4</title>
<path fill="none" stroke="black" stroke-width="2" d="M188.523,-121.779C194.048,-108.006 201.525,-89.3692 207.771,-73.8003"/>
<polygon fill="black" stroke="black" stroke-width="2" points="211.19,-74.6784 211.665,-64.0942 204.693,-72.072 211.19,-74.6784"/>
</g>
<!-- 5 -->
<g id="node6" class="node"><title>5</title>
<ellipse fill="cadetblue" stroke="black" cx="60.8368" cy="-83.7874" rx="21.4286" ry="21.4286"/>
<text text-anchor="middle" x="60.8368" y="-78.7874" font-family="Times New Roman,serif" font-size="20.00">2</text>
</g>
<!-- 0&#45;&gt;5 -->
<g id="edge3" class="edge"><title>0&#45;&gt;5</title>
<path fill="none" stroke="black" stroke-width="2" d="M161.369,-132.222C141.899,-122.841 111.577,-108.233 89.3218,-97.5108"/>
<polygon fill="black" stroke="black" stroke-width="2" points="90.5614,-94.223 80.0333,-93.0358 87.5231,-100.529 90.5614,-94.223"/>
</g>
<!-- 1 -->
<g id="node2" class="node"><title>1</title>
<ellipse fill="cadetblue" stroke="black" cx="21.2132" cy="-180.783" rx="21.4286" ry="21.4286"/>
<text text-anchor="middle" x="21.2132" y="-175.783" font-family="Times New Roman,serif" font-size="20.00">2</text>
</g>
<!-- 3 -->
<g id="node4" class="node"><title>3</title>
<ellipse fill="cadetblue" stroke="black" cx="123.57" cy="-204.36" rx="21.4286" ry="21.4286"/>
<text text-anchor="middle" x="123.57" y="-199.36" font-family="Times New Roman,serif" font-size="20.00">2</text>
</g>
<!-- 1&#45;&gt;3 -->
<g id="edge5" class="edge"><title>1&#45;&gt;3</title>
<path fill="none" stroke="black" stroke-width="2" d="M41.9266,-185.554C56.6329,-188.942 76.6158,-193.545 93.1308,-197.349"/>
<polygon fill="black" stroke="black" stroke-width="2" points="92.3569,-200.762 102.887,-199.596 93.9282,-193.941 92.3569,-200.762"/>
</g>
<!-- 2 -->
<g id="node3" class="node"><title>2</title>
<ellipse fill="cadetblue" stroke="black" cx="117.61" cy="-21.2132" rx="21.4286" ry="21.4286"/>
<text text-anchor="middle" x="117.61" y="-16.2132" font-family="Times New Roman,serif" font-size="20.00">2</text>
</g>
<!-- 6 -->
<g id="node7" class="node"><title>6</title>
<ellipse fill="cadetblue" stroke="black" cx="91.6113" cy="-134.725" rx="21.4286" ry="21.4286"/>
<text text-anchor="middle" x="91.6113" y="-129.725" font-family="Times New Roman,serif" font-size="20.00">2</text>
</g>
<!-- 2&#45;&gt;6 -->
<g id="edge10" class="edge"><title>2&#45;&gt;6</title>
<path fill="none" stroke="black" stroke-width="2" d="M112.842,-42.033C108.865,-59.394 103.143,-84.3759 98.6415,-104.031"/>
<polygon fill="black" stroke="black" stroke-width="2" points="95.1707,-103.508 96.3497,-114.037 101.994,-105.071 95.1707,-103.508"/>
</g>
<!-- 7 -->
<g id="node8" class="node"><title>7</title>
<ellipse fill="cadetblue" stroke="black" cx="149.79" cy="-91.0615" rx="21.4286" ry="21.4286"/>
<text text-anchor="middle" x="149.79" y="-86.0615" font-family="Times New Roman,serif" font-size="20.00">2</text>
</g>
<!-- 2&#45;&gt;7 -->
<g id="edge11" class="edge"><title>2&#45;&gt;7</title>
<path fill="none" stroke="black" stroke-width="2" d="M126.574,-40.6698C129.643,-47.3303 133.145,-54.9313 136.482,-62.1749"/>
<polygon fill="black" stroke="black" stroke-width="2" points="133.511,-64.0913 140.874,-71.7092 139.869,-61.1622 133.511,-64.0913"/>
</g>
<!-- 3&#45;&gt;0 -->
<g id="edge1" class="edge"><title>3&#45;&gt;0</title>
<path fill="none" stroke="black" stroke-width="2" d="M137.965,-188.496C144.401,-181.403 152.121,-172.895 159.213,-165.078"/>
<polygon fill="black" stroke="black" stroke-width="2" points="161.898,-167.328 166.025,-157.571 156.714,-162.624 161.898,-167.328"/>
</g>
<!-- 3&#45;&gt;7 -->
<g id="edge13" class="edge"><title>3&#45;&gt;7</title>
<path fill="none" stroke="black" stroke-width="2" d="M128.379,-183.579C132.364,-166.359 138.088,-141.627 142.615,-122.066"/>
<polygon fill="black" stroke="black" stroke-width="2" points="146.078,-122.626 144.923,-112.094 139.258,-121.048 146.078,-122.626"/>
</g>
<!-- 4&#45;&gt;2 -->
<g id="edge8" class="edge"><title>4&#45;&gt;2</title>
<path fill="none" stroke="black" stroke-width="2" d="M198.544,-39.3382C184.076,-36.0981 164.661,-31.7501 148.473,-28.1249"/>
<polygon fill="black" stroke="black" stroke-width="2" points="148.909,-24.636 138.386,-25.8659 147.379,-31.4668 148.909,-24.636"/>
</g>
<!-- 5&#45;&gt;1 -->
<g id="edge6" class="edge"><title>5&#45;&gt;1</title>
<path fill="none" stroke="black" stroke-width="2" d="M52.6268,-103.885C47.0111,-117.632 39.4754,-136.079 33.1923,-151.459"/>
<polygon fill="black" stroke="black" stroke-width="2" points="29.8188,-150.462 29.2771,-161.043 36.299,-153.109 29.8188,-150.462"/>
</g>
<!-- 5&#45;&gt;2 -->
<g id="edge9" class="edge"><title>5&#45;&gt;2</title>
<path fill="none" stroke="black" stroke-width="2" d="M75.1631,-67.9973C81.5687,-60.9373 89.2521,-52.4688 96.3109,-44.6888"/>
<polygon fill="black" stroke="black" stroke-width="2" points="98.9636,-46.9738 103.091,-37.2159 93.7794,-42.2701 98.9636,-46.9738"/>
</g>
<!-- 6&#45;&gt;0 -->
<g id="edge4" class="edge"><title>6&#45;&gt;0</title>
<path fill="none" stroke="black" stroke-width="2" d="M113.156,-136.363C123.979,-137.186 137.297,-138.199 149.232,-139.107"/>
<polygon fill="black" stroke="black" stroke-width="2" points="149.03,-142.601 159.267,-139.87 149.561,-135.621 149.03,-142.601"/>
</g>
<!-- 6&#45;&gt;1 -->
<g id="edge7" class="edge"><title>6&#45;&gt;1</title>
<path fill="none" stroke="black" stroke-width="2" d="M73.8469,-146.347C65.9041,-151.544 56.3768,-157.777 47.624,-163.504"/>
<polygon fill="black" stroke="black" stroke-width="2" points="45.6688,-160.6 39.2168,-169.004 49.5012,-166.458 45.6688,-160.6"/>
</g>
<!-- 6&#45;&gt;3 -->
<g id="edge12" class="edge"><title>6&#45;&gt;3</title>
<path fill="none" stroke="black" stroke-width="2" d="M100.514,-154.122C103.561,-160.762 107.039,-168.34 110.353,-175.562"/>
<polygon fill="black" stroke="black" stroke-width="2" points="107.363,-177.438 114.715,-185.067 113.725,-174.518 107.363,-177.438"/>
</g>
<!-- 7&#45;&gt;4 -->
<g id="edge14" class="edge"><title>7&#45;&gt;4</title>
<path fill="none" stroke="black" stroke-width="2" d="M167.43,-79.2049C175.318,-73.9036 184.778,-67.5447 193.47,-61.7028"/>
<polygon fill="black" stroke="black" stroke-width="2" points="195.471,-64.5748 201.818,-56.0915 191.566,-58.7651 195.471,-64.5748"/>
</g>
<!-- 7&#45;&gt;5 -->
<g id="edge15" class="edge"><title>7&#45;&gt;5</title>
<path fill="none" stroke="black" stroke-width="2" d="M128.257,-89.3006C117.44,-88.4161 104.13,-87.3276 92.2011,-86.3522"/>
<polygon fill="black" stroke="black" stroke-width="2" points="92.4236,-82.8588 82.1716,-85.532 91.8531,-89.8355 92.4236,-82.8588"/>
</g>
<!-- 7&#45;&gt;6 -->
<g id="edge16" class="edge"><title>7&#45;&gt;6</title>
<path fill="none" stroke="black" stroke-width="2" d="M132.649,-103.926C127.722,-107.624 122.241,-111.737 116.931,-115.722"/>
<polygon fill="black" stroke="black" stroke-width="2" points="114.728,-113 108.831,-121.802 118.93,-118.598 114.728,-113"/>
</g>
</g>
</svg>

