<?xml version="1.0" encoding="UTF-8" standalone="no"?>
<!DOCTYPE svg PUBLIC "-//W3C//DTD SVG 1.1//EN"
 "http://www.w3.org/Graphics/SVG/1.1/DTD/svg11.dtd">
<!-- Generated by graphviz version 2.36.0 (20140111.2315)
 -->
<!-- Title: G Pages: 1 -->
<svg width="100%" height="100%"
 viewBox="0.00 0.00 235.05 304.78" xmlns="http://www.w3.org/2000/svg" xmlns:xlink="http://www.w3.org/1999/xlink">
<g id="graph0" class="graph" transform="scale(1 1) rotate(0) translate(4 300.777)">
<title>G</title>
<!-- 0 -->
<g id="node1" class="node"><title>0</title>
<ellipse fill="cadetblue" stroke="black" cx="137.815" cy="-177.088" rx="21.4286" ry="21.4286"/>
<text text-anchor="middle" x="137.815" y="-172.088" font-family="Times New Roman,serif" font-size="20.00">2</text>
</g>
<!-- 5 -->
<g id="node6" class="node"><title>5</title>
<ellipse fill="cadetblue" stroke="black" cx="21.2132" cy="-138.901" rx="21.4286" ry="21.4286"/>
<text text-anchor="middle" x="21.2132" y="-133.901" font-family="Times New Roman,serif" font-size="20.00">2</text>
</g>
<!-- 0&#45;&gt;5 -->
<g id="edge3" class="edge"><title>0&#45;&gt;5</title>
<path fill="none" stroke="black" stroke-width="2" d="M117.504,-170.437C99.2245,-164.45 72.1193,-155.573 51.3199,-148.761"/>
<polygon fill="black" stroke="black" stroke-width="2" points="52.2748,-145.391 41.6821,-145.605 50.0961,-152.043 52.2748,-145.391"/>
</g>
<!-- 6 -->
<g id="node7" class="node"><title>6</title>
<ellipse fill="cadetblue" stroke="black" cx="188.246" cy="-217.485" rx="21.4286" ry="21.4286"/>
<text text-anchor="middle" x="188.246" y="-212.485" font-family="Times New Roman,serif" font-size="20.00">2</text>
</g>
<!-- 0&#45;&gt;6 -->
<g id="edge4" class="edge"><title>0&#45;&gt;6</title>
<path fill="none" stroke="black" stroke-width="2" d="M154.608,-190.54C157.469,-192.832 160.495,-195.255 163.511,-197.671"/>
<polygon fill="black" stroke="black" stroke-width="2" points="161.362,-200.434 171.355,-203.954 165.738,-194.971 161.362,-200.434"/>
</g>
<!-- 1 -->
<g id="node2" class="node"><title>1</title>
<ellipse fill="cadetblue" stroke="black" cx="37.536" cy="-224.025" rx="21.4286" ry="21.4286"/>
<text text-anchor="middle" x="37.536" y="-219.025" font-family="Times New Roman,serif" font-size="20.00">2</text>
</g>
<!-- 1&#45;&gt;6 -->
<g id="edge7" class="edge"><title>1&#45;&gt;6</title>
<path fill="none" stroke="black" stroke-width="2" d="M58.8094,-223.102C84.2466,-221.998 127.061,-220.14 156.436,-218.865"/>
<polygon fill="black" stroke="black" stroke-width="2" points="156.754,-222.355 166.593,-218.424 156.451,-215.361 156.754,-222.355"/>
</g>
<!-- 7 -->
<g id="node8" class="node"><title>7</title>
<ellipse fill="brown" stroke="black" cx="107.662" cy="-111.549" rx="21.4286" ry="21.4286"/>
<text text-anchor="middle" x="107.662" y="-106.549" font-family="Times New Roman,serif" font-size="20.00">3</text>
</g>
<!-- 1&#45;&gt;7 -->
<g id="edge8" class="edge"><title>1&#45;&gt;7</title>
<path fill="none" stroke="black" stroke-width="2" d="M48.8029,-205.953C60.2022,-187.67 77.955,-159.196 90.9845,-138.298"/>
<polygon fill="black" stroke="black" stroke-width="2" points="94.102,-139.913 96.4226,-129.575 88.1619,-136.209 94.102,-139.913"/>
</g>
<!-- 2 -->
<g id="node3" class="node"><title>2</title>
<ellipse fill="cadetblue" stroke="black" cx="89.4929" cy="-21.2132" rx="21.4286" ry="21.4286"/>
<text text-anchor="middle" x="89.4929" y="-16.2132" font-family="Times New Roman,serif" font-size="20.00">2</text>
</g>
<!-- 2&#45;&gt;7 -->
<g id="edge11" class="edge"><title>2&#45;&gt;7</title>
<path fill="none" stroke="black" stroke-width="2" d="M93.7068,-42.1651C95.9999,-53.5667 98.8809,-67.891 101.429,-80.5594"/>
<polygon fill="black" stroke="black" stroke-width="2" points="98.0674,-81.5972 103.47,-90.7108 104.93,-80.217 98.0674,-81.5972"/>
</g>
<!-- 3 -->
<g id="node4" class="node"><title>3</title>
<ellipse fill="cadetblue" stroke="black" cx="95.007" cy="-275.564" rx="21.4286" ry="21.4286"/>
<text text-anchor="middle" x="95.007" y="-270.564" font-family="Times New Roman,serif" font-size="20.00">2</text>
</g>
<!-- 3&#45;&gt;0 -->
<g id="edge1" class="edge"><title>3&#45;&gt;0</title>
<path fill="none" stroke="black" stroke-width="2" d="M103.464,-256.108C109.639,-241.904 118.116,-222.404 125.104,-206.329"/>
<polygon fill="black" stroke="black" stroke-width="2" points="128.451,-207.407 129.228,-196.841 122.032,-204.616 128.451,-207.407"/>
</g>
<!-- 3&#45;&gt;1 -->
<g id="edge5" class="edge"><title>3&#45;&gt;1</title>
<path fill="none" stroke="black" stroke-width="2" d="M78.9981,-261.207C73.518,-256.293 67.2639,-250.684 61.3038,-245.339"/>
<polygon fill="black" stroke="black" stroke-width="2" points="63.2406,-242.375 53.459,-238.304 58.5671,-247.586 63.2406,-242.375"/>
</g>
<!-- 4 -->
<g id="node5" class="node"><title>4</title>
<ellipse fill="cadetblue" stroke="black" cx="205.832" cy="-88.125" rx="21.4286" ry="21.4286"/>
<text text-anchor="middle" x="205.832" y="-83.125" font-family="Times New Roman,serif" font-size="20.00">2</text>
</g>
<!-- 4&#45;&gt;0 -->
<g id="edge2" class="edge"><title>4&#45;&gt;0</title>
<path fill="none" stroke="black" stroke-width="2" d="M192.717,-105.278C182.649,-118.447 168.592,-136.833 157.222,-151.704"/>
<polygon fill="black" stroke="black" stroke-width="2" points="154.182,-149.918 150.889,-159.988 159.743,-154.17 154.182,-149.918"/>
</g>
<!-- 4&#45;&gt;2 -->
<g id="edge9" class="edge"><title>4&#45;&gt;2</title>
<path fill="none" stroke="black" stroke-width="2" d="M187.398,-77.5226C168.449,-66.6242 138.724,-49.528 116.994,-37.0305"/>
<polygon fill="black" stroke="black" stroke-width="2" points="118.64,-33.9393 108.226,-31.9875 115.15,-40.0072 118.64,-33.9393"/>
</g>
<!-- 5&#45;&gt;1 -->
<g id="edge6" class="edge"><title>5&#45;&gt;1</title>
<path fill="none" stroke="black" stroke-width="2" d="M25.2481,-159.943C27.1511,-169.867 29.4603,-181.91 31.561,-192.865"/>
<polygon fill="black" stroke="black" stroke-width="2" points="28.1703,-193.768 33.491,-202.93 35.0451,-192.45 28.1703,-193.768"/>
</g>
<!-- 5&#45;&gt;2 -->
<g id="edge10" class="edge"><title>5&#45;&gt;2</title>
<path fill="none" stroke="black" stroke-width="2" d="M31.8819,-120.513C43.0403,-101.28 60.6823,-70.8717 73.5059,-48.7687"/>
<polygon fill="black" stroke="black" stroke-width="2" points="76.6828,-50.2673 78.6738,-39.8612 70.628,-46.7545 76.6828,-50.2673"/>
</g>
<!-- 5&#45;&gt;3 -->
<g id="edge12" class="edge"><title>5&#45;&gt;3</title>
<path fill="none" stroke="black" stroke-width="2" d="M31.3192,-157.617C43.8896,-180.897 65.461,-220.846 79.9737,-247.723"/>
<polygon fill="black" stroke="black" stroke-width="2" points="76.9552,-249.499 84.7863,-256.636 83.1147,-246.173 76.9552,-249.499"/>
</g>
<!-- 6&#45;&gt;3 -->
<g id="edge13" class="edge"><title>6&#45;&gt;3</title>
<path fill="none" stroke="black" stroke-width="2" d="M169.825,-228.959C156.072,-237.526 137.075,-249.36 121.664,-258.959"/>
<polygon fill="black" stroke="black" stroke-width="2" points="119.71,-256.053 113.073,-264.311 123.411,-261.994 119.71,-256.053"/>
</g>
<!-- 6&#45;&gt;4 -->
<g id="edge14" class="edge"><title>6&#45;&gt;4</title>
<path fill="none" stroke="black" stroke-width="2" d="M191.111,-196.413C193.959,-175.459 198.362,-143.074 201.611,-119.175"/>
<polygon fill="black" stroke="black" stroke-width="2" points="205.089,-119.568 202.969,-109.188 198.153,-118.625 205.089,-119.568"/>
</g>
<!-- 6&#45;&gt;7 -->
<g id="edge17" class="edge"><title>6&#45;&gt;7</title>
<path fill="none" stroke="black" stroke-width="2" d="M179.622,-197.985C173.888,-186.034 165.72,-170.736 156.432,-158.505 149.248,-149.046 140.135,-139.737 131.736,-131.934"/>
<polygon fill="black" stroke="black" stroke-width="2" points="134.071,-129.326 124.299,-125.23 129.384,-134.526 134.071,-129.326"/>
</g>
<!-- 7&#45;&gt;4 -->
<g id="edge15" class="edge"><title>7&#45;&gt;4</title>
<path fill="none" stroke="black" stroke-width="2" d="M128.481,-106.581C142.017,-103.352 159.904,-99.0838 175.067,-95.4657"/>
<polygon fill="black" stroke="black" stroke-width="2" points="176.128,-98.8109 185.042,-93.0855 174.503,-92.002 176.128,-98.8109"/>
</g>
<!-- 7&#45;&gt;5 -->
<g id="edge16" class="edge"><title>7&#45;&gt;5</title>
<path fill="none" stroke="black" stroke-width="2" d="M87.1745,-118.031C76.4084,-121.438 63.0115,-125.676 51.1091,-129.442"/>
<polygon fill="black" stroke="black" stroke-width="2" points="50.0315,-126.112 41.5532,-132.466 52.1432,-132.786 50.0315,-126.112"/>
</g>
</g>
</svg>

