<?xml version="1.0" encoding="UTF-8" standalone="no"?>
<!DOCTYPE svg PUBLIC "-//W3C//DTD SVG 1.1//EN"
 "http://www.w3.org/Graphics/SVG/1.1/DTD/svg11.dtd">
<!-- Generated by graphviz version 2.36.0 (20140111.2315)
 -->
<!-- Title: G Pages: 1 -->
<svg width="100%" height="100%"
 viewBox="0.00 0.00 285.26 328.15" xmlns="http://www.w3.org/2000/svg" xmlns:xlink="http://www.w3.org/1999/xlink">
<g id="graph0" class="graph" transform="scale(1 1) rotate(0) translate(4 324.146)">
<title>G</title>
<!-- 0 -->
<g id="node1" class="node"><title>0</title>
<ellipse fill="cadetblue" stroke="black" cx="255.956" cy="-238.204" rx="21.4286" ry="21.4286"/>
<text text-anchor="middle" x="255.956" y="-233.204" font-family="Times New Roman,serif" font-size="20.00">2</text>
</g>
<!-- 6 -->
<g id="node7" class="node"><title>6</title>
<ellipse fill="cadetblue" stroke="black" cx="173.689" cy="-163.178" rx="21.4286" ry="21.4286"/>
<text text-anchor="middle" x="173.689" y="-158.178" font-family="Times New Roman,serif" font-size="20.00">2</text>
</g>
<!-- 0&#45;&gt;6 -->
<g id="edge3" class="edge"><title>0&#45;&gt;6</title>
<path fill="none" stroke="black" stroke-width="2" d="M240.094,-223.738C227.917,-212.632 210.914,-197.126 197.162,-184.585"/>
<polygon fill="black" stroke="black" stroke-width="2" points="199.25,-181.751 189.502,-177.599 194.533,-186.923 199.25,-181.751"/>
</g>
<!-- 7 -->
<g id="node8" class="node"><title>7</title>
<ellipse fill="cadetblue" stroke="black" cx="123.258" cy="-184.929" rx="21.4286" ry="21.4286"/>
<text text-anchor="middle" x="123.258" y="-179.929" font-family="Times New Roman,serif" font-size="20.00">2</text>
</g>
<!-- 0&#45;&gt;7 -->
<g id="edge4" class="edge"><title>0&#45;&gt;7</title>
<path fill="none" stroke="black" stroke-width="2" d="M236.09,-230.228C214.005,-221.361 178.112,-206.952 152.747,-196.768"/>
<polygon fill="black" stroke="black" stroke-width="2" points="153.844,-193.437 143.26,-192.959 151.236,-199.933 153.844,-193.437"/>
</g>
<!-- 1 -->
<g id="node2" class="node"><title>1</title>
<ellipse fill="cadetblue" stroke="black" cx="27.164" cy="-222.076" rx="21.4286" ry="21.4286"/>
<text text-anchor="middle" x="27.164" y="-217.076" font-family="Times New Roman,serif" font-size="20.00">2</text>
</g>
<!-- 1&#45;&gt;6 -->
<g id="edge7" class="edge"><title>1&#45;&gt;6</title>
<path fill="none" stroke="black" stroke-width="2" d="M41.6522,-206.533C59.0473,-189.431 90.0561,-163.687 123.259,-158.624 129.383,-157.691 135.957,-157.616 142.268,-157.998"/>
<polygon fill="black" stroke="black" stroke-width="2" points="142.225,-161.511 152.518,-159.002 142.907,-154.544 142.225,-161.511"/>
</g>
<!-- 1&#45;&gt;7 -->
<g id="edge8" class="edge"><title>1&#45;&gt;7</title>
<path fill="none" stroke="black" stroke-width="2" d="M47.0746,-214.379C60.6033,-209.15 78.727,-202.143 93.9031,-196.277"/>
<polygon fill="black" stroke="black" stroke-width="2" points="95.3072,-199.486 103.372,-192.616 92.7831,-192.957 95.3072,-199.486"/>
</g>
<!-- 2 -->
<g id="node3" class="node"><title>2</title>
<ellipse fill="cadetblue" stroke="black" cx="147.696" cy="-21.2132" rx="21.4286" ry="21.4286"/>
<text text-anchor="middle" x="147.696" y="-16.2132" font-family="Times New Roman,serif" font-size="20.00">2</text>
</g>
<!-- 5 -->
<g id="node6" class="node"><title>5</title>
<ellipse fill="cadetblue" stroke="black" cx="21.2132" cy="-86.5735" rx="21.4286" ry="21.4286"/>
<text text-anchor="middle" x="21.2132" y="-81.5735" font-family="Times New Roman,serif" font-size="20.00">2</text>
</g>
<!-- 2&#45;&gt;5 -->
<g id="edge10" class="edge"><title>2&#45;&gt;5</title>
<path fill="none" stroke="black" stroke-width="2" d="M128.761,-30.9983C107.71,-41.8761 73.4987,-59.555 49.3217,-72.0484"/>
<polygon fill="black" stroke="black" stroke-width="2" points="47.5556,-69.0213 40.2785,-76.7216 50.7692,-75.2401 47.5556,-69.0213"/>
</g>
<!-- 3 -->
<g id="node4" class="node"><title>3</title>
<ellipse fill="cadetblue" stroke="black" cx="139.104" cy="-298.933" rx="21.4286" ry="21.4286"/>
<text text-anchor="middle" x="139.104" y="-293.933" font-family="Times New Roman,serif" font-size="20.00">2</text>
</g>
<!-- 3&#45;&gt;0 -->
<g id="edge1" class="edge"><title>3&#45;&gt;0</title>
<path fill="none" stroke="black" stroke-width="2" d="M158.138,-289.041C177.067,-279.204 206.32,-264 227.908,-252.781"/>
<polygon fill="black" stroke="black" stroke-width="2" points="229.671,-255.809 236.93,-248.092 226.443,-249.598 229.671,-255.809"/>
</g>
<!-- 3&#45;&gt;1 -->
<g id="edge5" class="edge"><title>3&#45;&gt;1</title>
<path fill="none" stroke="black" stroke-width="2" d="M121.613,-286.924C103.32,-274.364 74.3971,-254.506 53.3736,-240.072"/>
<polygon fill="black" stroke="black" stroke-width="2" points="55.1262,-237.029 44.9012,-234.255 51.1641,-242.8 55.1262,-237.029"/>
</g>
<!-- 4 -->
<g id="node5" class="node"><title>4</title>
<ellipse fill="cadetblue" stroke="black" cx="256.051" cy="-101.041" rx="21.4286" ry="21.4286"/>
<text text-anchor="middle" x="256.051" y="-96.0413" font-family="Times New Roman,serif" font-size="20.00">2</text>
</g>
<!-- 4&#45;&gt;0 -->
<g id="edge2" class="edge"><title>4&#45;&gt;0</title>
<path fill="none" stroke="black" stroke-width="2" d="M256.036,-122.473C256.021,-145.121 255.996,-181.065 255.978,-206.887"/>
<polygon fill="black" stroke="black" stroke-width="2" points="252.478,-206.92 255.971,-216.923 259.478,-206.925 252.478,-206.92"/>
</g>
<!-- 4&#45;&gt;2 -->
<g id="edge9" class="edge"><title>4&#45;&gt;2</title>
<path fill="none" stroke="black" stroke-width="2" d="M238.642,-88.2156C220.949,-75.1809 193.351,-54.8485 173.195,-39.9985"/>
<polygon fill="black" stroke="black" stroke-width="2" points="175.189,-37.1207 165.062,-34.0071 171.037,-42.7564 175.189,-37.1207"/>
</g>
<!-- 5&#45;&gt;1 -->
<g id="edge6" class="edge"><title>5&#45;&gt;1</title>
<path fill="none" stroke="black" stroke-width="2" d="M22.1561,-108.044C23.1311,-130.245 24.6638,-165.146 25.777,-190.493"/>
<polygon fill="black" stroke="black" stroke-width="2" points="22.29,-190.869 26.2255,-200.706 29.2833,-190.562 22.29,-190.869"/>
</g>
<!-- 6&#45;&gt;2 -->
<g id="edge11" class="edge"><title>6&#45;&gt;2</title>
<path fill="none" stroke="black" stroke-width="2" d="M169.854,-142.23C165.515,-118.535 158.406,-79.7043 153.413,-52.4332"/>
<polygon fill="black" stroke="black" stroke-width="2" points="156.791,-51.4526 151.547,-42.2465 149.906,-52.7133 156.791,-51.4526"/>
</g>
<!-- 6&#45;&gt;3 -->
<g id="edge12" class="edge"><title>6&#45;&gt;3</title>
<path fill="none" stroke="black" stroke-width="2" d="M168.436,-183.796C162.723,-206.222 153.529,-242.312 146.957,-268.107"/>
<polygon fill="black" stroke="black" stroke-width="2" points="143.483,-267.566 144.406,-278.121 150.267,-269.294 143.483,-267.566"/>
</g>
<!-- 6&#45;&gt;4 -->
<g id="edge14" class="edge"><title>6&#45;&gt;4</title>
<path fill="none" stroke="black" stroke-width="2" d="M190.755,-150.303C202.35,-141.555 217.884,-129.836 230.891,-120.023"/>
<polygon fill="black" stroke="black" stroke-width="2" points="233.132,-122.716 239.008,-113.9 228.917,-117.128 233.132,-122.716"/>
</g>
<!-- 7&#45;&gt;3 -->
<g id="edge13" class="edge"><title>7&#45;&gt;3</title>
<path fill="none" stroke="black" stroke-width="2" d="M126.201,-206.105C128.614,-223.462 132.062,-248.273 134.787,-267.878"/>
<polygon fill="black" stroke="black" stroke-width="2" points="131.333,-268.448 136.176,-277.871 138.266,-267.484 131.333,-268.448"/>
</g>
<!-- 7&#45;&gt;4 -->
<g id="edge15" class="edge"><title>7&#45;&gt;4</title>
<path fill="none" stroke="black" stroke-width="2" d="M134.627,-166.758C140.092,-159.135 147.181,-150.646 155.111,-144.555 176.312,-128.273 204.534,-116.781 225.745,-109.712"/>
<polygon fill="black" stroke="black" stroke-width="2" points="227.066,-112.965 235.533,-106.596 224.943,-106.295 227.066,-112.965"/>
</g>
<!-- 7&#45;&gt;5 -->
<g id="edge16" class="edge"><title>7&#45;&gt;5</title>
<path fill="none" stroke="black" stroke-width="2" d="M107.759,-169.991C90.7287,-153.576 63.2153,-127.057 43.7885,-108.333"/>
<polygon fill="black" stroke="black" stroke-width="2" points="46.152,-105.75 36.5231,-101.33 41.2942,-110.79 46.152,-105.75"/>
</g>
</g>
</svg>

