<?xml version="1.0" encoding="UTF-8" standalone="no"?>
<!DOCTYPE svg PUBLIC "-//W3C//DTD SVG 1.1//EN"
 "http://www.w3.org/Graphics/SVG/1.1/DTD/svg11.dtd">
<!-- Generated by graphviz version 2.36.0 (20140111.2315)
 -->
<!-- Title: G Pages: 1 -->
<svg width="100%" height="100%"
 viewBox="0.00 0.00 230.40 208.24" xmlns="http://www.w3.org/2000/svg" xmlns:xlink="http://www.w3.org/1999/xlink">
<g id="graph0" class="graph" transform="scale(1 1) rotate(0) translate(4 204.24)">
<title>G</title>
<!-- 0 -->
<g id="node1" class="node"><title>0</title>
<ellipse fill="cadetblue" stroke="black" cx="89.0012" cy="-21.2132" rx="21.4286" ry="21.4286"/>
<text text-anchor="middle" x="89.0012" y="-16.2132" font-family="Times New Roman,serif" font-size="20.00">2</text>
</g>
<!-- 3 -->
<g id="node4" class="node"><title>3</title>
<ellipse fill="brown" stroke="black" cx="21.2132" cy="-123.43" rx="21.4286" ry="21.4286"/>
<text text-anchor="middle" x="21.2132" y="-118.43" font-family="Times New Roman,serif" font-size="20.00">3</text>
</g>
<!-- 0&#45;&gt;3 -->
<g id="edge1" class="edge"><title>0&#45;&gt;3</title>
<path fill="none" stroke="black" stroke-width="2" d="M85.3853,-42.3959C81.9772,-57.3886 75.6475,-77.3023 64.3552,-91.6661 59.8751,-97.3649 54.1242,-102.538 48.2915,-106.977"/>
<polygon fill="black" stroke="black" stroke-width="2" points="45.9917,-104.315 39.826,-112.931 50.0189,-110.041 45.9917,-104.315"/>
</g>
<!-- 4 -->
<g id="node5" class="node"><title>4</title>
<ellipse fill="cadetblue" stroke="black" cx="201.183" cy="-63.2784" rx="21.4286" ry="21.4286"/>
<text text-anchor="middle" x="201.183" y="-58.2784" font-family="Times New Roman,serif" font-size="20.00">2</text>
</g>
<!-- 0&#45;&gt;4 -->
<g id="edge2" class="edge"><title>0&#45;&gt;4</title>
<path fill="none" stroke="black" stroke-width="2" d="M102.569,-38.1015C113.474,-49.8692 129.989,-63.9788 148.517,-67.0005 155.446,-68.1306 162.943,-68.2513 170.049,-67.8654"/>
<polygon fill="black" stroke="black" stroke-width="2" points="170.406,-71.3476 180.066,-66.9961 169.801,-64.3738 170.406,-71.3476"/>
</g>
<!-- 1 -->
<g id="node2" class="node"><title>1</title>
<ellipse fill="cadetblue" stroke="black" cx="45.8231" cy="-72.9985" rx="21.4286" ry="21.4286"/>
<text text-anchor="middle" x="45.8231" y="-67.9985" font-family="Times New Roman,serif" font-size="20.00">2</text>
</g>
<!-- 6 -->
<g id="node7" class="node"><title>6</title>
<ellipse fill="cadetblue" stroke="black" cx="148.548" cy="-40.6962" rx="21.4286" ry="21.4286"/>
<text text-anchor="middle" x="148.548" y="-35.6962" font-family="Times New Roman,serif" font-size="20.00">2</text>
</g>
<!-- 1&#45;&gt;6 -->
<g id="edge7" class="edge"><title>1&#45;&gt;6</title>
<path fill="none" stroke="black" stroke-width="2" d="M66.1183,-66.6166C81.032,-61.9269 101.543,-55.477 118.374,-50.1845"/>
<polygon fill="black" stroke="black" stroke-width="2" points="119.805,-53.4034 128.295,-47.0648 117.706,-46.7258 119.805,-53.4034"/>
</g>
<!-- 7 -->
<g id="node8" class="node"><title>7</title>
<ellipse fill="brown" stroke="black" cx="114.81" cy="-106.96" rx="21.4286" ry="21.4286"/>
<text text-anchor="middle" x="114.81" y="-101.96" font-family="Times New Roman,serif" font-size="20.00">3</text>
</g>
<!-- 1&#45;&gt;7 -->
<g id="edge8" class="edge"><title>1&#45;&gt;7</title>
<path fill="none" stroke="black" stroke-width="2" d="M65.0397,-82.4587C71.618,-85.6972 79.1252,-89.3929 86.2795,-92.915"/>
<polygon fill="black" stroke="black" stroke-width="2" points="85.1785,-96.274 95.6961,-97.5507 88.2702,-89.9938 85.1785,-96.274"/>
</g>
<!-- 2 -->
<g id="node3" class="node"><title>2</title>
<ellipse fill="cadetblue" stroke="black" cx="182.489" cy="-146.726" rx="21.4286" ry="21.4286"/>
<text text-anchor="middle" x="182.489" y="-141.726" font-family="Times New Roman,serif" font-size="20.00">2</text>
</g>
<!-- 5 -->
<g id="node6" class="node"><title>5</title>
<ellipse fill="cadetblue" stroke="black" cx="84.2082" cy="-179.026" rx="21.4286" ry="21.4286"/>
<text text-anchor="middle" x="84.2082" y="-174.026" font-family="Times New Roman,serif" font-size="20.00">2</text>
</g>
<!-- 2&#45;&gt;5 -->
<g id="edge10" class="edge"><title>2&#45;&gt;5</title>
<path fill="none" stroke="black" stroke-width="2" d="M162.125,-153.418C148.288,-157.966 129.752,-164.058 114.231,-169.159"/>
<polygon fill="black" stroke="black" stroke-width="2" points="112.953,-165.895 104.546,-172.342 115.139,-172.545 112.953,-165.895"/>
</g>
<!-- 2&#45;&gt;7 -->
<g id="edge12" class="edge"><title>2&#45;&gt;7</title>
<path fill="none" stroke="black" stroke-width="2" d="M163.995,-135.859C157.281,-131.914 149.543,-127.368 142.223,-123.067"/>
<polygon fill="black" stroke="black" stroke-width="2" points="143.676,-119.861 133.281,-117.813 140.13,-125.897 143.676,-119.861"/>
</g>
<!-- 3&#45;&gt;1 -->
<g id="edge5" class="edge"><title>3&#45;&gt;1</title>
<path fill="none" stroke="black" stroke-width="2" d="M30.5172,-104.364C31.0072,-103.36 31.504,-102.342 32.0041,-101.317"/>
<polygon fill="black" stroke="black" stroke-width="2" points="35.2659,-102.613 36.506,-92.0914 28.9749,-99.5435 35.2659,-102.613"/>
</g>
<!-- 4&#45;&gt;2 -->
<g id="edge9" class="edge"><title>4&#45;&gt;2</title>
<path fill="none" stroke="black" stroke-width="2" d="M196.466,-84.3357C194.324,-93.8955 191.749,-105.392 189.395,-115.897"/>
<polygon fill="black" stroke="black" stroke-width="2" points="185.911,-115.441 187.14,-125.964 192.741,-116.971 185.911,-115.441"/>
</g>
<!-- 4&#45;&gt;7 -->
<g id="edge16" class="edge"><title>4&#45;&gt;7</title>
<path fill="none" stroke="black" stroke-width="2" d="M182.014,-72.9728C170.608,-78.7413 155.924,-86.1672 143.193,-92.6057"/>
<polygon fill="black" stroke="black" stroke-width="2" points="141.269,-89.6566 133.925,-97.2929 144.428,-95.9032 141.269,-89.6566"/>
</g>
<!-- 5&#45;&gt;1 -->
<g id="edge6" class="edge"><title>5&#45;&gt;1</title>
<path fill="none" stroke="black" stroke-width="2" d="M76.8072,-158.583C71.0888,-142.788 63.0902,-120.694 56.6524,-102.911"/>
<polygon fill="black" stroke="black" stroke-width="2" points="59.7664,-101.231 53.0713,-93.0194 53.1844,-103.614 59.7664,-101.231"/>
</g>
<!-- 5&#45;&gt;3 -->
<g id="edge13" class="edge"><title>5&#45;&gt;3</title>
<path fill="none" stroke="black" stroke-width="2" d="M67.9854,-164.709C61.0248,-158.566 52.751,-151.264 45.1115,-144.521"/>
<polygon fill="black" stroke="black" stroke-width="2" points="46.9766,-141.499 37.1629,-137.506 42.3446,-146.748 46.9766,-141.499"/>
</g>
<!-- 6&#45;&gt;0 -->
<g id="edge3" class="edge"><title>6&#45;&gt;0</title>
<path fill="none" stroke="black" stroke-width="2" d="M128.055,-33.9913C125.122,-33.0316 122.055,-32.0282 118.986,-31.0238"/>
<polygon fill="black" stroke="black" stroke-width="2" points="119.922,-27.6478 109.33,-27.8645 117.746,-34.3007 119.922,-27.6478"/>
</g>
<!-- 6&#45;&gt;2 -->
<g id="edge11" class="edge"><title>6&#45;&gt;2</title>
<path fill="none" stroke="black" stroke-width="2" d="M155.092,-61.1397C160.116,-76.8348 167.131,-98.7482 172.804,-116.472"/>
<polygon fill="black" stroke="black" stroke-width="2" points="169.583,-117.888 175.965,-126.345 176.249,-115.754 169.583,-117.888"/>
</g>
<!-- 6&#45;&gt;4 -->
<g id="edge15" class="edge"><title>6&#45;&gt;4</title>
<path fill="none" stroke="black" stroke-width="2" d="M168.147,-49.105C169.364,-49.627 170.601,-50.1577 171.847,-50.6924"/>
<polygon fill="black" stroke="black" stroke-width="2" points="170.822,-54.0609 181.392,-54.7873 173.582,-47.628 170.822,-54.0609"/>
</g>
<!-- 7&#45;&gt;0 -->
<g id="edge4" class="edge"><title>7&#45;&gt;0</title>
<path fill="none" stroke="black" stroke-width="2" d="M108.693,-86.6394C105.534,-76.1441 101.617,-63.1281 98.1098,-51.4761"/>
<polygon fill="black" stroke="black" stroke-width="2" points="101.397,-50.2523 95.163,-41.6853 94.6937,-52.2698 101.397,-50.2523"/>
</g>
<!-- 7&#45;&gt;3 -->
<g id="edge14" class="edge"><title>7&#45;&gt;3</title>
<path fill="none" stroke="black" stroke-width="2" d="M93.5712,-110.697C81.3649,-112.845 65.8122,-115.582 52.2562,-117.967"/>
<polygon fill="black" stroke="black" stroke-width="2" points="51.6097,-114.527 42.3676,-119.707 52.8229,-121.421 51.6097,-114.527"/>
</g>
<!-- 7&#45;&gt;5 -->
<g id="edge17" class="edge"><title>7&#45;&gt;5</title>
<path fill="none" stroke="black" stroke-width="2" d="M106.448,-126.653C103.378,-133.882 99.8354,-142.224 96.4928,-150.096"/>
<polygon fill="black" stroke="black" stroke-width="2" points="93.2471,-148.785 92.5601,-159.358 99.6902,-151.521 93.2471,-148.785"/>
</g>
<!-- 7&#45;&gt;6 -->
<g id="edge18" class="edge"><title>7&#45;&gt;6</title>
<path fill="none" stroke="black" stroke-width="2" d="M124.568,-87.7939C127.549,-81.9386 130.893,-75.371 134.116,-69.0414"/>
<polygon fill="black" stroke="black" stroke-width="2" points="137.276,-70.5485 138.694,-60.049 131.038,-67.3724 137.276,-70.5485"/>
</g>
</g>
</svg>

