<?xml version="1.0" encoding="UTF-8" standalone="no"?>
<!DOCTYPE svg PUBLIC "-//W3C//DTD SVG 1.1//EN"
 "http://www.w3.org/Graphics/SVG/1.1/DTD/svg11.dtd">
<!-- Generated by graphviz version 2.36.0 (20140111.2315)
 -->
<!-- Title: G Pages: 1 -->
<svg width="100%" height="100%"
 viewBox="0.00 0.00 262.64 315.68" xmlns="http://www.w3.org/2000/svg" xmlns:xlink="http://www.w3.org/1999/xlink">
<g id="graph0" class="graph" transform="scale(1 1) rotate(0) translate(4 311.682)">
<title>G</title>
<!-- 0 -->
<g id="node1" class="node"><title>0</title>
<ellipse fill="cadetblue" stroke="black" cx="59.6643" cy="-244.144" rx="21.4286" ry="21.4286"/>
<text text-anchor="middle" x="59.6643" y="-239.144" font-family="Times New Roman,serif" font-size="20.00">2</text>
</g>
<!-- 5 -->
<g id="node6" class="node"><title>5</title>
<ellipse fill="cadetblue" stroke="black" cx="86.4" cy="-149.548" rx="21.4286" ry="21.4286"/>
<text text-anchor="middle" x="86.4" y="-144.548" font-family="Times New Roman,serif" font-size="20.00">2</text>
</g>
<!-- 0&#45;&gt;5 -->
<g id="edge3" class="edge"><title>0&#45;&gt;5</title>
<path fill="none" stroke="black" stroke-width="2" d="M65.4655,-223.618C69.0741,-210.85 73.7796,-194.201 77.8152,-179.923"/>
<polygon fill="black" stroke="black" stroke-width="2" points="81.2583,-180.609 80.6101,-170.034 74.5222,-178.705 81.2583,-180.609"/>
</g>
<!-- 6 -->
<g id="node7" class="node"><title>6</title>
<ellipse fill="cadetblue" stroke="black" cx="136.831" cy="-159.356" rx="21.4286" ry="21.4286"/>
<text text-anchor="middle" x="136.831" y="-154.356" font-family="Times New Roman,serif" font-size="20.00">2</text>
</g>
<!-- 0&#45;&gt;6 -->
<g id="edge4" class="edge"><title>0&#45;&gt;6</title>
<path fill="none" stroke="black" stroke-width="2" d="M74.1788,-228.196C85.8194,-215.406 102.327,-197.269 115.475,-182.821"/>
<polygon fill="black" stroke="black" stroke-width="2" points="118.24,-184.984 122.382,-175.232 113.063,-180.272 118.24,-184.984"/>
</g>
<!-- 1 -->
<g id="node2" class="node"><title>1</title>
<ellipse fill="cadetblue" stroke="black" cx="153.096" cy="-286.469" rx="21.4286" ry="21.4286"/>
<text text-anchor="middle" x="153.096" y="-281.469" font-family="Times New Roman,serif" font-size="20.00">2</text>
</g>
<!-- 4 -->
<g id="node5" class="node"><title>4</title>
<ellipse fill="cadetblue" stroke="black" cx="233.43" cy="-228.767" rx="21.4286" ry="21.4286"/>
<text text-anchor="middle" x="233.43" y="-223.767" font-family="Times New Roman,serif" font-size="20.00">2</text>
</g>
<!-- 1&#45;&gt;4 -->
<g id="edge5" class="edge"><title>1&#45;&gt;4</title>
<path fill="none" stroke="black" stroke-width="2" d="M170.528,-273.948C181.37,-266.16 195.509,-256.005 207.635,-247.295"/>
<polygon fill="black" stroke="black" stroke-width="2" points="209.953,-249.939 216.033,-241.263 205.869,-244.254 209.953,-249.939"/>
</g>
<!-- 2 -->
<g id="node3" class="node"><title>2</title>
<ellipse fill="cadetblue" stroke="black" cx="127.777" cy="-21.2132" rx="21.4286" ry="21.4286"/>
<text text-anchor="middle" x="127.777" y="-16.2132" font-family="Times New Roman,serif" font-size="20.00">2</text>
</g>
<!-- 7 -->
<g id="node8" class="node"><title>7</title>
<ellipse fill="cadetblue" stroke="black" cx="193.205" cy="-92.784" rx="21.4286" ry="21.4286"/>
<text text-anchor="middle" x="193.205" y="-87.784" font-family="Times New Roman,serif" font-size="20.00">2</text>
</g>
<!-- 2&#45;&gt;7 -->
<g id="edge10" class="edge"><title>2&#45;&gt;7</title>
<path fill="none" stroke="black" stroke-width="2" d="M142.298,-37.0971C150.938,-46.5484 162.061,-58.7155 171.705,-69.2646"/>
<polygon fill="black" stroke="black" stroke-width="2" points="169.395,-71.9253 178.725,-76.9445 174.561,-67.2022 169.395,-71.9253"/>
</g>
<!-- 3 -->
<g id="node4" class="node"><title>3</title>
<ellipse fill="cadetblue" stroke="black" cx="21.2132" cy="-111.907" rx="21.4286" ry="21.4286"/>
<text text-anchor="middle" x="21.2132" y="-106.907" font-family="Times New Roman,serif" font-size="20.00">2</text>
</g>
<!-- 3&#45;&gt;0 -->
<g id="edge1" class="edge"><title>3&#45;&gt;0</title>
<path fill="none" stroke="black" stroke-width="2" d="M27.1369,-132.279C33.4691,-154.056 43.5773,-188.82 50.8454,-213.815"/>
<polygon fill="black" stroke="black" stroke-width="2" points="47.5175,-214.906 53.6705,-223.531 54.2391,-212.951 47.5175,-214.906"/>
</g>
<!-- 3&#45;&gt;7 -->
<g id="edge13" class="edge"><title>3&#45;&gt;7</title>
<path fill="none" stroke="black" stroke-width="2" d="M42.3028,-109.562C72.218,-106.236 127.186,-100.124 161.878,-96.2672"/>
<polygon fill="black" stroke="black" stroke-width="2" points="162.391,-99.7318 171.943,-95.148 161.618,-92.7746 162.391,-99.7318"/>
</g>
<!-- 4&#45;&gt;0 -->
<g id="edge2" class="edge"><title>4&#45;&gt;0</title>
<path fill="none" stroke="black" stroke-width="2" d="M212.123,-230.653C181.817,-233.334 126.062,-238.268 91.0293,-241.369"/>
<polygon fill="black" stroke="black" stroke-width="2" points="90.5261,-237.899 80.8736,-242.267 91.1432,-244.872 90.5261,-237.899"/>
</g>
<!-- 5&#45;&gt;1 -->
<g id="edge6" class="edge"><title>5&#45;&gt;1</title>
<path fill="none" stroke="black" stroke-width="2" d="M95.8145,-168.875C107.136,-192.116 126.235,-231.324 139.24,-258.022"/>
<polygon fill="black" stroke="black" stroke-width="2" points="136.204,-259.783 143.73,-267.24 142.497,-256.717 136.204,-259.783"/>
</g>
<!-- 5&#45;&gt;2 -->
<g id="edge8" class="edge"><title>5&#45;&gt;2</title>
<path fill="none" stroke="black" stroke-width="2" d="M92.9564,-129.213C99.7358,-108.186 110.393,-75.1315 118.133,-51.1257"/>
<polygon fill="black" stroke="black" stroke-width="2" points="121.514,-52.0446 121.252,-41.453 114.852,-49.8965 121.514,-52.0446"/>
</g>
<!-- 5&#45;&gt;3 -->
<g id="edge11" class="edge"><title>5&#45;&gt;3</title>
<path fill="none" stroke="black" stroke-width="2" d="M67.8945,-138.862C62.0272,-135.474 55.4058,-131.651 49.0332,-127.971"/>
<polygon fill="black" stroke="black" stroke-width="2" points="50.4016,-124.72 39.9914,-122.75 46.9012,-130.782 50.4016,-124.72"/>
</g>
<!-- 6&#45;&gt;1 -->
<g id="edge7" class="edge"><title>6&#45;&gt;1</title>
<path fill="none" stroke="black" stroke-width="2" d="M139.554,-180.632C142.157,-200.98 146.115,-231.909 149.081,-255.086"/>
<polygon fill="black" stroke="black" stroke-width="2" points="145.624,-255.649 150.365,-265.123 152.567,-254.76 145.624,-255.649"/>
</g>
<!-- 6&#45;&gt;2 -->
<g id="edge9" class="edge"><title>6&#45;&gt;2</title>
<path fill="none" stroke="black" stroke-width="2" d="M135.437,-138.074C133.946,-115.324 131.565,-79.0087 129.854,-52.8967"/>
<polygon fill="black" stroke="black" stroke-width="2" points="133.335,-52.4967 129.189,-42.747 126.35,-52.9546 133.335,-52.4967"/>
</g>
<!-- 6&#45;&gt;3 -->
<g id="edge12" class="edge"><title>6&#45;&gt;3</title>
<path fill="none" stroke="black" stroke-width="2" d="M121.836,-144.134C116.796,-139.539 110.955,-134.736 105.083,-131.031 89.5408,-121.226 69.5634,-116.428 53.0048,-114.09"/>
<polygon fill="black" stroke="black" stroke-width="2" points="53.038,-110.57 42.6982,-112.88 52.2221,-117.522 53.038,-110.57"/>
</g>
<!-- 7&#45;&gt;4 -->
<g id="edge14" class="edge"><title>7&#45;&gt;4</title>
<path fill="none" stroke="black" stroke-width="2" d="M199.227,-113.142C205.922,-135.773 216.802,-172.554 224.491,-198.547"/>
<polygon fill="black" stroke="black" stroke-width="2" points="221.174,-199.673 227.367,-208.27 227.886,-197.688 221.174,-199.673"/>
</g>
<!-- 7&#45;&gt;5 -->
<g id="edge15" class="edge"><title>7&#45;&gt;5</title>
<path fill="none" stroke="black" stroke-width="2" d="M174.111,-102.932C157.48,-111.771 133.151,-124.701 114.332,-134.703"/>
<polygon fill="black" stroke="black" stroke-width="2" points="112.517,-131.704 105.329,-139.487 115.802,-137.885 112.517,-131.704"/>
</g>
<!-- 7&#45;&gt;6 -->
<g id="edge16" class="edge"><title>7&#45;&gt;6</title>
<path fill="none" stroke="black" stroke-width="2" d="M179.27,-109.24C172.58,-117.14 164.436,-126.757 157.078,-135.446"/>
<polygon fill="black" stroke="black" stroke-width="2" points="154.398,-133.196 150.606,-143.089 159.74,-137.72 154.398,-133.196"/>
</g>
</g>
</svg>

