<?xml version="1.0" encoding="UTF-8" standalone="no"?>
<!DOCTYPE svg PUBLIC "-//W3C//DTD SVG 1.1//EN"
 "http://www.w3.org/Graphics/SVG/1.1/DTD/svg11.dtd">
<!-- Generated by graphviz version 2.36.0 (20140111.2315)
 -->
<!-- Title: G Pages: 1 -->
<svg width="100%" height="100%"
 viewBox="0.00 0.00 315.16 220.08" xmlns="http://www.w3.org/2000/svg" xmlns:xlink="http://www.w3.org/1999/xlink">
<g id="graph0" class="graph" transform="scale(1 1) rotate(0) translate(4 216.077)">
<title>G</title>
<!-- 0 -->
<g id="node1" class="node"><title>0</title>
<ellipse fill="cadetblue" stroke="black" cx="225.586" cy="-21.2132" rx="21.4286" ry="21.4286"/>
<text text-anchor="middle" x="225.586" y="-16.2132" font-family="Times New Roman,serif" font-size="20.00">2</text>
</g>
<!-- 6 -->
<g id="node7" class="node"><title>6</title>
<ellipse fill="cadetblue" stroke="black" cx="107.384" cy="-55.6782" rx="21.4286" ry="21.4286"/>
<text text-anchor="middle" x="107.384" y="-50.6782" font-family="Times New Roman,serif" font-size="20.00">2</text>
</g>
<!-- 0&#45;&gt;6 -->
<g id="edge3" class="edge"><title>0&#45;&gt;6</title>
<path fill="none" stroke="black" stroke-width="2" d="M204.997,-27.2166C186.466,-32.6197 158.989,-40.6314 137.904,-46.7793"/>
<polygon fill="black" stroke="black" stroke-width="2" points="136.755,-43.4687 128.134,-49.628 138.714,-50.1888 136.755,-43.4687"/>
</g>
<!-- 1 -->
<g id="node2" class="node"><title>1</title>
<ellipse fill="cadetblue" stroke="black" cx="186.395" cy="-190.864" rx="21.4286" ry="21.4286"/>
<text text-anchor="middle" x="186.395" y="-185.864" font-family="Times New Roman,serif" font-size="20.00">2</text>
</g>
<!-- 4 -->
<g id="node5" class="node"><title>4</title>
<ellipse fill="cadetblue" stroke="black" cx="285.944" cy="-116.308" rx="21.4286" ry="21.4286"/>
<text text-anchor="middle" x="285.944" y="-111.308" font-family="Times New Roman,serif" font-size="20.00">2</text>
</g>
<!-- 1&#45;&gt;4 -->
<g id="edge4" class="edge"><title>1&#45;&gt;4</title>
<path fill="none" stroke="black" stroke-width="2" d="M203.735,-177.877C219.437,-166.117 242.767,-148.645 260.567,-135.314"/>
<polygon fill="black" stroke="black" stroke-width="2" points="262.897,-137.942 268.803,-129.146 258.7,-132.339 262.897,-137.942"/>
</g>
<!-- 5 -->
<g id="node6" class="node"><title>5</title>
<ellipse fill="brown" stroke="black" cx="50.6435" cy="-151.345" rx="21.4286" ry="21.4286"/>
<text text-anchor="middle" x="50.6435" y="-146.345" font-family="Times New Roman,serif" font-size="20.00">3</text>
</g>
<!-- 1&#45;&gt;5 -->
<g id="edge5" class="edge"><title>1&#45;&gt;5</title>
<path fill="none" stroke="black" stroke-width="2" d="M165.047,-191.026C155.968,-190.699 145.326,-189.784 135.92,-187.586 115.885,-182.903 94.5842,-173.853 78.2828,-165.969"/>
<polygon fill="black" stroke="black" stroke-width="2" points="79.8218,-162.826 69.3098,-161.504 76.7029,-169.092 79.8218,-162.826"/>
</g>
<!-- 2 -->
<g id="node3" class="node"><title>2</title>
<ellipse fill="cadetblue" stroke="black" cx="21.2132" cy="-35.5841" rx="21.4286" ry="21.4286"/>
<text text-anchor="middle" x="21.2132" y="-30.5841" font-family="Times New Roman,serif" font-size="20.00">2</text>
</g>
<!-- 7 -->
<g id="node8" class="node"><title>7</title>
<ellipse fill="cadetblue" stroke="black" cx="161.789" cy="-89.3033" rx="21.4286" ry="21.4286"/>
<text text-anchor="middle" x="161.789" y="-84.3033" font-family="Times New Roman,serif" font-size="20.00">2</text>
</g>
<!-- 2&#45;&gt;7 -->
<g id="edge10" class="edge"><title>2&#45;&gt;7</title>
<path fill="none" stroke="black" stroke-width="2" d="M38.6657,-48.1298C55.3801,-59.3553 81.771,-75.0734 107.353,-81.9826 114.758,-83.9825 122.884,-85.4484 130.546,-86.5184"/>
<polygon fill="black" stroke="black" stroke-width="2" points="130.247,-90.0077 140.597,-87.7451 131.095,-83.0593 130.247,-90.0077"/>
</g>
<!-- 3 -->
<g id="node4" class="node"><title>3</title>
<ellipse fill="cadetblue" stroke="black" cx="135.963" cy="-161.281" rx="21.4286" ry="21.4286"/>
<text text-anchor="middle" x="135.963" y="-156.281" font-family="Times New Roman,serif" font-size="20.00">2</text>
</g>
<!-- 3&#45;&gt;0 -->
<g id="edge1" class="edge"><title>3&#45;&gt;0</title>
<path fill="none" stroke="black" stroke-width="2" d="M150.515,-145.631C159.683,-135.346 171.435,-121.352 180.388,-107.904 192.689,-89.4264 204.218,-67.2031 212.553,-49.8836"/>
<polygon fill="black" stroke="black" stroke-width="2" points="215.727,-51.3573 216.839,-40.821 209.399,-48.3642 215.727,-51.3573"/>
</g>
<!-- 3&#45;&gt;5 -->
<g id="edge11" class="edge"><title>3&#45;&gt;5</title>
<path fill="none" stroke="black" stroke-width="2" d="M114.873,-158.825C104.926,-157.667 92.8552,-156.261 81.8751,-154.982"/>
<polygon fill="black" stroke="black" stroke-width="2" points="82.1246,-151.487 71.7869,-153.807 81.3148,-158.44 82.1246,-151.487"/>
</g>
<!-- 4&#45;&gt;0 -->
<g id="edge2" class="edge"><title>4&#45;&gt;0</title>
<path fill="none" stroke="black" stroke-width="2" d="M274.307,-97.9728C265.315,-83.8061 252.737,-63.9906 242.614,-48.0415"/>
<polygon fill="black" stroke="black" stroke-width="2" points="245.297,-45.737 236.983,-39.1697 239.387,-49.4882 245.297,-45.737"/>
</g>
<!-- 5&#45;&gt;2 -->
<g id="edge8" class="edge"><title>5&#45;&gt;2</title>
<path fill="none" stroke="black" stroke-width="2" d="M45.382,-130.649C40.8276,-112.735 34.1781,-86.5799 29.0061,-66.2365"/>
<polygon fill="black" stroke="black" stroke-width="2" points="32.3846,-65.3202 26.5284,-56.4909 25.6004,-67.045 32.3846,-65.3202"/>
</g>
<!-- 5&#45;&gt;7 -->
<g id="edge16" class="edge"><title>5&#45;&gt;7</title>
<path fill="none" stroke="black" stroke-width="2" d="M69.2467,-140.96C87.0385,-131.029 114.083,-115.933 134.348,-104.621"/>
<polygon fill="black" stroke="black" stroke-width="2" points="136.099,-107.652 143.125,-99.7215 132.687,-101.539 136.099,-107.652"/>
</g>
<!-- 6&#45;&gt;1 -->
<g id="edge6" class="edge"><title>6&#45;&gt;1</title>
<path fill="none" stroke="black" stroke-width="2" d="M118.205,-74.1918C131.664,-97.2199 154.76,-136.738 170.299,-163.324"/>
<polygon fill="black" stroke="black" stroke-width="2" points="167.384,-165.273 175.451,-172.14 173.427,-161.74 167.384,-165.273"/>
</g>
<!-- 6&#45;&gt;2 -->
<g id="edge9" class="edge"><title>6&#45;&gt;2</title>
<path fill="none" stroke="black" stroke-width="2" d="M86.5247,-50.814C76.1518,-48.3952 63.4122,-45.4244 51.9471,-42.7509"/>
<polygon fill="black" stroke="black" stroke-width="2" points="52.4143,-39.266 41.8807,-40.4035 50.8246,-46.0831 52.4143,-39.266"/>
</g>
<!-- 6&#45;&gt;3 -->
<g id="edge12" class="edge"><title>6&#45;&gt;3</title>
<path fill="none" stroke="black" stroke-width="2" d="M112.962,-76.2903C117.172,-91.845 123.012,-113.426 127.755,-130.949"/>
<polygon fill="black" stroke="black" stroke-width="2" points="124.408,-131.983 130.399,-140.721 131.165,-130.154 124.408,-131.983"/>
</g>
<!-- 6&#45;&gt;5 -->
<g id="edge15" class="edge"><title>6&#45;&gt;5</title>
<path fill="none" stroke="black" stroke-width="2" d="M96.4441,-74.1237C88.045,-88.2848 76.3182,-108.056 66.8334,-124.048"/>
<polygon fill="black" stroke="black" stroke-width="2" points="63.6412,-122.569 61.5501,-132.956 69.6618,-126.14 63.6412,-122.569"/>
</g>
<!-- 7&#45;&gt;1 -->
<g id="edge7" class="edge"><title>7&#45;&gt;1</title>
<path fill="none" stroke="black" stroke-width="2" d="M166.887,-110.347C170.374,-124.74 175.054,-144.055 178.956,-160.16"/>
<polygon fill="black" stroke="black" stroke-width="2" points="175.631,-161.3 181.387,-170.195 182.434,-159.652 175.631,-161.3"/>
</g>
<!-- 7&#45;&gt;3 -->
<g id="edge13" class="edge"><title>7&#45;&gt;3</title>
<path fill="none" stroke="black" stroke-width="2" d="M154.595,-109.353C152.125,-116.237 149.305,-124.095 146.62,-131.58"/>
<polygon fill="black" stroke="black" stroke-width="2" points="143.291,-130.495 143.208,-141.089 149.88,-132.859 143.291,-130.495"/>
</g>
<!-- 7&#45;&gt;4 -->
<g id="edge14" class="edge"><title>7&#45;&gt;4</title>
<path fill="none" stroke="black" stroke-width="2" d="M182.569,-93.8233C202.444,-98.1461 232.654,-104.717 255.292,-109.641"/>
<polygon fill="black" stroke="black" stroke-width="2" points="254.58,-113.068 265.096,-111.773 256.068,-106.228 254.58,-113.068"/>
</g>
<!-- 7&#45;&gt;6 -->
<g id="edge17" class="edge"><title>7&#45;&gt;6</title>
<path fill="none" stroke="black" stroke-width="2" d="M143.673,-78.1066C140.676,-76.2547 137.514,-74.3 134.355,-72.3479"/>
<polygon fill="black" stroke="black" stroke-width="2" points="135.953,-69.2209 125.607,-66.9406 132.273,-75.1754 135.953,-69.2209"/>
</g>
</g>
</svg>

