<?xml version="1.0" encoding="UTF-8" standalone="no"?>
<!DOCTYPE svg PUBLIC "-//W3C//DTD SVG 1.1//EN"
 "http://www.w3.org/Graphics/SVG/1.1/DTD/svg11.dtd">
<!-- Generated by graphviz version 2.36.0 (20140111.2315)
 -->
<!-- Title: G Pages: 1 -->
<svg width="100%" height="100%"
 viewBox="0.00 0.00 219.04 238.27" xmlns="http://www.w3.org/2000/svg" xmlns:xlink="http://www.w3.org/1999/xlink">
<g id="graph0" class="graph" transform="scale(1 1) rotate(0) translate(4 234.268)">
<title>G</title>
<!-- 0 -->
<g id="node1" class="node"><title>0</title>
<ellipse fill="cadetblue" stroke="black" cx="189.831" cy="-160.77" rx="21.4286" ry="21.4286"/>
<text text-anchor="middle" x="189.831" y="-155.77" font-family="Times New Roman,serif" font-size="20.00">2</text>
</g>
<!-- 4 -->
<g id="node5" class="node"><title>4</title>
<ellipse fill="cadetblue" stroke="black" cx="171.929" cy="-67.5777" rx="21.4286" ry="21.4286"/>
<text text-anchor="middle" x="171.929" y="-62.5777" font-family="Times New Roman,serif" font-size="20.00">2</text>
</g>
<!-- 0&#45;&gt;4 -->
<g id="edge2" class="edge"><title>0&#45;&gt;4</title>
<path fill="none" stroke="black" stroke-width="2" d="M185.769,-139.623C183.434,-127.469 180.459,-111.984 177.867,-98.4865"/>
<polygon fill="black" stroke="black" stroke-width="2" points="181.299,-97.8008 175.975,-88.6407 174.425,-99.1214 181.299,-97.8008"/>
</g>
<!-- 7 -->
<g id="node8" class="node"><title>7</title>
<ellipse fill="brown" stroke="black" cx="98.4228" cy="-107.993" rx="21.4286" ry="21.4286"/>
<text text-anchor="middle" x="98.4228" y="-102.993" font-family="Times New Roman,serif" font-size="20.00">3</text>
</g>
<!-- 0&#45;&gt;7 -->
<g id="edge4" class="edge"><title>0&#45;&gt;7</title>
<path fill="none" stroke="black" stroke-width="2" d="M171.333,-150.089C158.2,-142.507 140.355,-132.203 125.606,-123.688"/>
<polygon fill="black" stroke="black" stroke-width="2" points="127.303,-120.627 116.893,-118.657 123.803,-126.689 127.303,-120.627"/>
</g>
<!-- 1 -->
<g id="node2" class="node"><title>1</title>
<ellipse fill="cadetblue" stroke="black" cx="21.2132" cy="-183.861" rx="21.4286" ry="21.4286"/>
<text text-anchor="middle" x="21.2132" y="-178.861" font-family="Times New Roman,serif" font-size="20.00">2</text>
</g>
<!-- 3 -->
<g id="node4" class="node"><title>3</title>
<ellipse fill="cadetblue" stroke="black" cx="91.2203" cy="-209.055" rx="21.4286" ry="21.4286"/>
<text text-anchor="middle" x="91.2203" y="-204.055" font-family="Times New Roman,serif" font-size="20.00">2</text>
</g>
<!-- 1&#45;&gt;3 -->
<g id="edge5" class="edge"><title>1&#45;&gt;3</title>
<path fill="none" stroke="black" stroke-width="2" d="M41.4621,-191.148C47.7567,-193.413 54.8305,-195.959 61.6256,-198.405"/>
<polygon fill="black" stroke="black" stroke-width="2" points="60.6642,-201.778 71.2586,-201.871 63.0346,-195.192 60.6642,-201.778"/>
</g>
<!-- 6 -->
<g id="node7" class="node"><title>6</title>
<ellipse fill="cadetblue" stroke="black" cx="119.183" cy="-158.425" rx="21.4286" ry="21.4286"/>
<text text-anchor="middle" x="119.183" y="-153.425" font-family="Times New Roman,serif" font-size="20.00">2</text>
</g>
<!-- 1&#45;&gt;6 -->
<g id="edge7" class="edge"><title>1&#45;&gt;6</title>
<path fill="none" stroke="black" stroke-width="2" d="M41.9901,-178.466C55.4985,-174.959 73.3485,-170.325 88.4808,-166.396"/>
<polygon fill="black" stroke="black" stroke-width="2" points="89.6365,-169.712 98.436,-163.811 87.8773,-162.937 89.6365,-169.712"/>
</g>
<!-- 2 -->
<g id="node3" class="node"><title>2</title>
<ellipse fill="cadetblue" stroke="black" cx="80.4589" cy="-21.2132" rx="21.4286" ry="21.4286"/>
<text text-anchor="middle" x="80.4589" y="-16.2132" font-family="Times New Roman,serif" font-size="20.00">2</text>
</g>
<!-- 5 -->
<g id="node6" class="node"><title>5</title>
<ellipse fill="dodgerblue" stroke="black" cx="27.6079" cy="-110.674" rx="21.4286" ry="21.4286"/>
<text text-anchor="middle" x="27.6079" y="-105.674" font-family="Times New Roman,serif" font-size="20.00">4</text>
</g>
<!-- 2&#45;&gt;5 -->
<g id="edge10" class="edge"><title>2&#45;&gt;5</title>
<path fill="none" stroke="black" stroke-width="2" d="M69.5082,-39.7495C62.0675,-52.3443 52.0995,-69.2171 43.7527,-83.3457"/>
<polygon fill="black" stroke="black" stroke-width="2" points="40.6177,-81.7713 38.5446,-92.1613 46.6445,-85.3318 40.6177,-81.7713"/>
</g>
<!-- 3&#45;&gt;0 -->
<g id="edge1" class="edge"><title>3&#45;&gt;0</title>
<path fill="none" stroke="black" stroke-width="2" d="M110.703,-199.515C125.248,-192.393 145.34,-182.555 161.638,-174.575"/>
<polygon fill="black" stroke="black" stroke-width="2" points="163.283,-177.666 170.725,-170.125 160.204,-171.379 163.283,-177.666"/>
</g>
<!-- 3&#45;&gt;5 -->
<g id="edge12" class="edge"><title>3&#45;&gt;5</title>
<path fill="none" stroke="black" stroke-width="2" d="M79.5528,-191.011C69.7788,-175.894 55.6946,-154.112 44.6568,-137.041"/>
<polygon fill="black" stroke="black" stroke-width="2" points="47.5703,-135.101 39.2014,-128.604 41.6921,-138.902 47.5703,-135.101"/>
</g>
<!-- 3&#45;&gt;6 -->
<g id="edge13" class="edge"><title>3&#45;&gt;6</title>
<path fill="none" stroke="black" stroke-width="2" d="M101.633,-190.202C102.37,-188.867 103.122,-187.506 103.879,-186.135"/>
<polygon fill="black" stroke="black" stroke-width="2" points="107.084,-187.571 108.855,-177.125 100.957,-184.186 107.084,-187.571"/>
</g>
<!-- 4&#45;&gt;2 -->
<g id="edge9" class="edge"><title>4&#45;&gt;2</title>
<path fill="none" stroke="black" stroke-width="2" d="M152.977,-57.9709C140.099,-51.4435 122.847,-42.6989 108.401,-35.3765"/>
<polygon fill="black" stroke="black" stroke-width="2" points="109.889,-32.207 99.3874,-30.8076 106.725,-38.4507 109.889,-32.207"/>
</g>
<!-- 4&#45;&gt;7 -->
<g id="edge16" class="edge"><title>4&#45;&gt;7</title>
<path fill="none" stroke="black" stroke-width="2" d="M153,-77.9857C144.791,-82.4989 135.017,-87.8727 126.025,-92.8172"/>
<polygon fill="black" stroke="black" stroke-width="2" points="124.11,-89.8754 117.034,-97.7605 127.483,-96.0094 124.11,-89.8754"/>
</g>
<!-- 5&#45;&gt;1 -->
<g id="edge6" class="edge"><title>5&#45;&gt;1</title>
<path fill="none" stroke="black" stroke-width="2" d="M25.7583,-131.843C25.2064,-138.159 24.5889,-145.226 23.9913,-152.066"/>
<polygon fill="black" stroke="black" stroke-width="2" points="20.4646,-152.219 23.0808,-162.486 27.438,-152.829 20.4646,-152.219"/>
</g>
<!-- 6&#45;&gt;0 -->
<g id="edge3" class="edge"><title>6&#45;&gt;0</title>
<path fill="none" stroke="black" stroke-width="2" d="M140.764,-159.141C146.242,-159.323 152.242,-159.522 158.109,-159.717"/>
<polygon fill="black" stroke="black" stroke-width="2" points="158.272,-163.224 168.382,-160.058 158.504,-156.228 158.272,-163.224"/>
</g>
<!-- 6&#45;&gt;4 -->
<g id="edge15" class="edge"><title>6&#45;&gt;4</title>
<path fill="none" stroke="black" stroke-width="2" d="M129.857,-140.04C137.435,-126.988 147.733,-109.252 156.243,-94.5941"/>
<polygon fill="black" stroke="black" stroke-width="2" points="159.277,-96.3401 161.271,-85.9346 153.223,-92.8252 159.277,-96.3401"/>
</g>
<!-- 6&#45;&gt;5 -->
<g id="edge17" class="edge"><title>6&#45;&gt;5</title>
<path fill="none" stroke="black" stroke-width="2" d="M100.209,-148.531C87.316,-141.808 70.0445,-132.802 55.582,-125.261"/>
<polygon fill="black" stroke="black" stroke-width="2" points="57.0432,-122.075 46.558,-120.555 53.8067,-128.282 57.0432,-122.075"/>
</g>
<!-- 6&#45;&gt;7 -->
<g id="edge19" class="edge"><title>6&#45;&gt;7</title>
<path fill="none" stroke="black" stroke-width="2" d="M111.097,-138.782C110.862,-138.212 110.626,-137.637 110.388,-137.06"/>
<polygon fill="black" stroke="black" stroke-width="2" points="113.564,-135.58 106.521,-127.665 107.091,-138.245 113.564,-135.58"/>
</g>
<!-- 7&#45;&gt;1 -->
<g id="edge8" class="edge"><title>7&#45;&gt;1</title>
<path fill="none" stroke="black" stroke-width="2" d="M83.1686,-122.982C71.9592,-133.997 56.5426,-149.146 43.8923,-161.576"/>
<polygon fill="black" stroke="black" stroke-width="2" points="41.1154,-159.398 36.4356,-168.903 46.0215,-164.391 41.1154,-159.398"/>
</g>
<!-- 7&#45;&gt;2 -->
<g id="edge11" class="edge"><title>7&#45;&gt;2</title>
<path fill="none" stroke="black" stroke-width="2" d="M94.0742,-86.9863C91.9118,-76.5401 89.256,-63.7104 86.8659,-52.1643"/>
<polygon fill="black" stroke="black" stroke-width="2" points="90.2219,-51.1097 84.7674,-42.0268 83.3672,-52.5287 90.2219,-51.1097"/>
</g>
<!-- 7&#45;&gt;3 -->
<g id="edge14" class="edge"><title>7&#45;&gt;3</title>
<path fill="none" stroke="black" stroke-width="2" d="M95.7414,-129.049C94.6873,-138.071 93.5669,-148.735 92.8786,-158.393 92.4378,-164.579 92.114,-171.198 91.8762,-177.543"/>
<polygon fill="black" stroke="black" stroke-width="2" points="88.3686,-177.733 91.5518,-187.838 95.3651,-177.953 88.3686,-177.733"/>
</g>
<!-- 7&#45;&gt;5 -->
<g id="edge18" class="edge"><title>7&#45;&gt;5</title>
<path fill="none" stroke="black" stroke-width="2" d="M77.176,-108.798C71.4341,-109.015 65.0975,-109.255 58.9286,-109.488"/>
<polygon fill="black" stroke="black" stroke-width="2" points="58.7001,-105.994 48.8397,-109.87 58.965,-112.989 58.7001,-105.994"/>
</g>
</g>
</svg>

