<?xml version="1.0" encoding="UTF-8" standalone="no"?>
<!DOCTYPE svg PUBLIC "-//W3C//DTD SVG 1.1//EN"
 "http://www.w3.org/Graphics/SVG/1.1/DTD/svg11.dtd">
<!-- Generated by graphviz version 2.36.0 (20140111.2315)
 -->
<!-- Title: G Pages: 1 -->
<svg width="100%" height="100%"
 viewBox="0.00 0.00 217.92 198.38" xmlns="http://www.w3.org/2000/svg" xmlns:xlink="http://www.w3.org/1999/xlink">
<g id="graph0" class="graph" transform="scale(1 1) rotate(0) translate(4 194.376)">
<title>G</title>
<!-- 0 -->
<g id="node1" class="node"><title>0</title>
<ellipse fill="cadetblue" stroke="black" cx="131.787" cy="-40.5141" rx="21.4286" ry="21.4286"/>
<text text-anchor="middle" x="131.787" y="-35.5141" font-family="Times New Roman,serif" font-size="20.00">2</text>
</g>
<!-- 5 -->
<g id="node6" class="node"><title>5</title>
<ellipse fill="cadetblue" stroke="black" cx="21.2132" cy="-97.4405" rx="21.4286" ry="21.4286"/>
<text text-anchor="middle" x="21.2132" y="-92.4405" font-family="Times New Roman,serif" font-size="20.00">2</text>
</g>
<!-- 0&#45;&gt;5 -->
<g id="edge3" class="edge"><title>0&#45;&gt;5</title>
<path fill="none" stroke="black" stroke-width="2" d="M112.526,-50.43C95.0854,-59.4091 69.172,-72.75 49.4012,-82.9286"/>
<polygon fill="black" stroke="black" stroke-width="2" points="47.5418,-79.9492 40.253,-87.6384 50.746,-86.1728 47.5418,-79.9492"/>
</g>
<!-- 6 -->
<g id="node7" class="node"><title>6</title>
<ellipse fill="cadetblue" stroke="black" cx="135.977" cy="-94.109" rx="21.4286" ry="21.4286"/>
<text text-anchor="middle" x="135.977" y="-89.109" font-family="Times New Roman,serif" font-size="20.00">2</text>
</g>
<!-- 0&#45;&gt;6 -->
<g id="edge4" class="edge"><title>0&#45;&gt;6</title>
<path fill="none" stroke="black" stroke-width="2" d="M133.443,-61.6962C133.469,-62.0364 133.496,-62.3778 133.523,-62.7202"/>
<polygon fill="black" stroke="black" stroke-width="2" points="130.036,-63.0328 134.305,-72.7296 137.015,-62.4872 130.036,-63.0328"/>
</g>
<!-- 1 -->
<g id="node2" class="node"><title>1</title>
<ellipse fill="cadetblue" stroke="black" cx="96.7282" cy="-169.163" rx="21.4286" ry="21.4286"/>
<text text-anchor="middle" x="96.7282" y="-164.163" font-family="Times New Roman,serif" font-size="20.00">2</text>
</g>
<!-- 3 -->
<g id="node4" class="node"><title>3</title>
<ellipse fill="cadetblue" stroke="black" cx="188.705" cy="-132.087" rx="21.4286" ry="21.4286"/>
<text text-anchor="middle" x="188.705" y="-127.087" font-family="Times New Roman,serif" font-size="20.00">2</text>
</g>
<!-- 1&#45;&gt;3 -->
<g id="edge5" class="edge"><title>1&#45;&gt;3</title>
<path fill="none" stroke="black" stroke-width="2" d="M116.686,-161.118C129.1,-156.114 145.288,-149.589 159.171,-143.992"/>
<polygon fill="black" stroke="black" stroke-width="2" points="160.82,-147.102 168.786,-140.117 158.203,-140.609 160.82,-147.102"/>
</g>
<!-- 1&#45;&gt;5 -->
<g id="edge7" class="edge"><title>1&#45;&gt;5</title>
<path fill="none" stroke="black" stroke-width="2" d="M81.0814,-154.302C70.45,-144.205 56.2075,-130.677 44.2813,-119.35"/>
<polygon fill="black" stroke="black" stroke-width="2" points="46.5011,-116.631 36.8399,-112.282 41.6804,-121.707 46.5011,-116.631"/>
</g>
<!-- 2 -->
<g id="node3" class="node"><title>2</title>
<ellipse fill="cadetblue" stroke="black" cx="49.9655" cy="-21.2132" rx="21.4286" ry="21.4286"/>
<text text-anchor="middle" x="49.9655" y="-16.2132" font-family="Times New Roman,serif" font-size="20.00">2</text>
</g>
<!-- 4 -->
<g id="node5" class="node"><title>4</title>
<ellipse fill="cadetblue" stroke="black" cx="71.6447" cy="-94.9574" rx="21.4286" ry="21.4286"/>
<text text-anchor="middle" x="71.6447" y="-89.9574" font-family="Times New Roman,serif" font-size="20.00">2</text>
</g>
<!-- 2&#45;&gt;4 -->
<g id="edge9" class="edge"><title>2&#45;&gt;4</title>
<path fill="none" stroke="black" stroke-width="2" d="M56.0044,-41.7551C58.0951,-48.8669 60.4844,-56.9945 62.7556,-64.7202"/>
<polygon fill="black" stroke="black" stroke-width="2" points="59.4598,-65.9188 65.6382,-74.5257 66.1756,-63.9445 59.4598,-65.9188"/>
</g>
<!-- 3&#45;&gt;0 -->
<g id="edge1" class="edge"><title>3&#45;&gt;0</title>
<path fill="none" stroke="black" stroke-width="2" d="M177.46,-113.996C169.196,-100.701 157.831,-82.416 148.506,-67.4124"/>
<polygon fill="black" stroke="black" stroke-width="2" points="151.26,-65.214 143.009,-58.5685 145.315,-68.9093 151.26,-65.214"/>
</g>
<!-- 4&#45;&gt;0 -->
<g id="edge2" class="edge"><title>4&#45;&gt;0</title>
<path fill="none" stroke="black" stroke-width="2" d="M87.4463,-80.6531C93.75,-74.9467 101.143,-68.2545 108.065,-61.988"/>
<polygon fill="black" stroke="black" stroke-width="2" points="110.817,-64.2178 115.882,-54.912 106.119,-59.0283 110.817,-64.2178"/>
</g>
<!-- 4&#45;&gt;1 -->
<g id="edge6" class="edge"><title>4&#45;&gt;1</title>
<path fill="none" stroke="black" stroke-width="2" d="M78.4988,-115.234C81.0151,-122.678 83.9188,-131.269 86.6587,-139.374"/>
<polygon fill="black" stroke="black" stroke-width="2" points="83.3643,-140.558 89.8823,-148.911 89.9957,-138.316 83.3643,-140.558"/>
</g>
<!-- 4&#45;&gt;6 -->
<g id="edge14" class="edge"><title>4&#45;&gt;6</title>
<path fill="none" stroke="black" stroke-width="2" d="M93.0662,-94.6749C96.7168,-94.6267 100.576,-94.5759 104.423,-94.5251"/>
<polygon fill="black" stroke="black" stroke-width="2" points="104.476,-98.0248 114.429,-94.3932 104.384,-91.0254 104.476,-98.0248"/>
</g>
<!-- 5&#45;&gt;2 -->
<g id="edge10" class="edge"><title>5&#45;&gt;2</title>
<path fill="none" stroke="black" stroke-width="2" d="M28.7675,-77.4127C31.8711,-69.1846 35.5269,-59.4926 38.9205,-50.4954"/>
<polygon fill="black" stroke="black" stroke-width="2" points="42.2072,-51.6991 42.4617,-41.1073 35.6576,-49.2286 42.2072,-51.6991"/>
</g>
<!-- 5&#45;&gt;4 -->
<g id="edge13" class="edge"><title>5&#45;&gt;4</title>
<path fill="none" stroke="black" stroke-width="2" d="M42.6007,-96.3875C42.7618,-96.3795 42.923,-96.3716 43.0845,-96.3636"/>
<polygon fill="black" stroke="black" stroke-width="2" points="40.5693,-99.9919 50.3851,-96.0042 40.225,-93.0003 40.5693,-99.9919"/>
</g>
<!-- 6&#45;&gt;1 -->
<g id="edge8" class="edge"><title>6&#45;&gt;1</title>
<path fill="none" stroke="black" stroke-width="2" d="M126.072,-113.048C121.61,-121.582 116.251,-131.83 111.34,-141.221"/>
<polygon fill="black" stroke="black" stroke-width="2" points="108.162,-139.746 106.629,-150.23 114.365,-142.99 108.162,-139.746"/>
</g>
<!-- 6&#45;&gt;2 -->
<g id="edge11" class="edge"><title>6&#45;&gt;2</title>
<path fill="none" stroke="black" stroke-width="2" d="M119.393,-80.054C106.579,-69.1944 88.6566,-54.0046 74.2311,-41.7787"/>
<polygon fill="black" stroke="black" stroke-width="2" points="76.0984,-38.7733 66.2067,-34.9779 71.5725,-44.1135 76.0984,-38.7733"/>
</g>
<!-- 6&#45;&gt;3 -->
<g id="edge12" class="edge"><title>6&#45;&gt;3</title>
<path fill="none" stroke="black" stroke-width="2" d="M153.242,-106.545C156.395,-108.816 159.747,-111.23 163.083,-113.633"/>
<polygon fill="black" stroke="black" stroke-width="2" points="161.06,-116.489 171.22,-119.494 165.152,-110.809 161.06,-116.489"/>
</g>
</g>
</svg>

