<?xml version="1.0" encoding="UTF-8" standalone="no"?>
<!DOCTYPE svg PUBLIC "-//W3C//DTD SVG 1.1//EN"
 "http://www.w3.org/Graphics/SVG/1.1/DTD/svg11.dtd">
<!-- Generated by graphviz version 2.36.0 (20140111.2315)
 -->
<!-- Title: G Pages: 1 -->
<svg width="100%" height="100%"
 viewBox="0.00 0.00 226.10 222.26" xmlns="http://www.w3.org/2000/svg" xmlns:xlink="http://www.w3.org/1999/xlink">
<g id="graph0" class="graph" transform="scale(1 1) rotate(0) translate(4 218.256)">
<title>G</title>
<!-- 0 -->
<g id="node1" class="node"><title>0</title>
<ellipse fill="cadetblue" stroke="black" cx="91.1929" cy="-29.9908" rx="21.4286" ry="21.4286"/>
<text text-anchor="middle" x="91.1929" y="-24.9908" font-family="Times New Roman,serif" font-size="20.00">2</text>
</g>
<!-- 4 -->
<g id="node5" class="node"><title>4</title>
<ellipse fill="cadetblue" stroke="black" cx="196.884" cy="-84.5553" rx="21.4286" ry="21.4286"/>
<text text-anchor="middle" x="196.884" y="-79.5553" font-family="Times New Roman,serif" font-size="20.00">2</text>
</g>
<!-- 0&#45;&gt;4 -->
<g id="edge2" class="edge"><title>0&#45;&gt;4</title>
<path fill="none" stroke="black" stroke-width="2" d="M110.088,-39.7458C126.444,-48.1897 150.324,-60.5181 168.898,-70.1071"/>
<polygon fill="black" stroke="black" stroke-width="2" points="167.304,-73.2233 177.796,-74.7008 170.516,-67.0033 167.304,-73.2233"/>
</g>
<!-- 5 -->
<g id="node6" class="node"><title>5</title>
<ellipse fill="cadetblue" stroke="black" cx="21.2132" cy="-93.2211" rx="21.4286" ry="21.4286"/>
<text text-anchor="middle" x="21.2132" y="-88.2211" font-family="Times New Roman,serif" font-size="20.00">2</text>
</g>
<!-- 0&#45;&gt;5 -->
<g id="edge3" class="edge"><title>0&#45;&gt;5</title>
<path fill="none" stroke="black" stroke-width="2" d="M75.3134,-44.3387C66.2766,-52.504 54.7865,-62.8859 44.7218,-71.9799"/>
<polygon fill="black" stroke="black" stroke-width="2" points="42.1032,-69.6288 37.0298,-78.93 46.7962,-74.8227 42.1032,-69.6288"/>
</g>
<!-- 1 -->
<g id="node2" class="node"><title>1</title>
<ellipse fill="brown" stroke="black" cx="105.24" cy="-193.043" rx="21.4286" ry="21.4286"/>
<text text-anchor="middle" x="105.24" y="-188.043" font-family="Times New Roman,serif" font-size="20.00">3</text>
</g>
<!-- 6 -->
<g id="node7" class="node"><title>6</title>
<ellipse fill="cadetblue" stroke="black" cx="99.7128" cy="-112.925" rx="21.4286" ry="21.4286"/>
<text text-anchor="middle" x="99.7128" y="-107.925" font-family="Times New Roman,serif" font-size="20.00">2</text>
</g>
<!-- 1&#45;&gt;6 -->
<g id="edge8" class="edge"><title>1&#45;&gt;6</title>
<path fill="none" stroke="black" stroke-width="2" d="M103.758,-171.573C103.184,-163.244 102.514,-153.538 101.887,-144.447"/>
<polygon fill="black" stroke="black" stroke-width="2" points="105.359,-143.912 101.179,-134.177 98.3753,-144.394 105.359,-143.912"/>
</g>
<!-- 2 -->
<g id="node3" class="node"><title>2</title>
<ellipse fill="cadetblue" stroke="black" cx="143.251" cy="-21.2132" rx="21.4286" ry="21.4286"/>
<text text-anchor="middle" x="143.251" y="-16.2132" font-family="Times New Roman,serif" font-size="20.00">2</text>
</g>
<!-- 3 -->
<g id="node4" class="node"><title>3</title>
<ellipse fill="cadetblue" stroke="black" cx="180.25" cy="-134.987" rx="21.4286" ry="21.4286"/>
<text text-anchor="middle" x="180.25" y="-129.987" font-family="Times New Roman,serif" font-size="20.00">2</text>
</g>
<!-- 2&#45;&gt;3 -->
<g id="edge9" class="edge"><title>2&#45;&gt;3</title>
<path fill="none" stroke="black" stroke-width="2" d="M149.865,-41.5536C155.591,-59.1602 163.951,-84.8664 170.453,-104.861"/>
<polygon fill="black" stroke="black" stroke-width="2" points="167.147,-106.012 173.568,-114.439 173.804,-103.847 167.147,-106.012"/>
</g>
<!-- 2&#45;&gt;6 -->
<g id="edge12" class="edge"><title>2&#45;&gt;6</title>
<path fill="none" stroke="black" stroke-width="2" d="M134.017,-40.6629C128.014,-53.3085 120.082,-70.0182 113.357,-84.1839"/>
<polygon fill="black" stroke="black" stroke-width="2" points="110.059,-82.9685 108.933,-93.5033 116.383,-85.9705 110.059,-82.9685"/>
</g>
<!-- 3&#45;&gt;0 -->
<g id="edge1" class="edge"><title>3&#45;&gt;0</title>
<path fill="none" stroke="black" stroke-width="2" d="M166.335,-118.581C151.63,-101.245 128.292,-73.7299 111.526,-53.9633"/>
<polygon fill="black" stroke="black" stroke-width="2" points="114.148,-51.6434 105.01,-46.2812 108.81,-56.1714 114.148,-51.6434"/>
</g>
<!-- 3&#45;&gt;1 -->
<g id="edge5" class="edge"><title>3&#45;&gt;1</title>
<path fill="none" stroke="black" stroke-width="2" d="M163.229,-148.161C153.447,-155.732 140.982,-165.379 130.118,-173.788"/>
<polygon fill="black" stroke="black" stroke-width="2" points="127.959,-171.033 122.193,-179.921 132.244,-176.569 127.959,-171.033"/>
</g>
<!-- 4&#45;&gt;1 -->
<g id="edge6" class="edge"><title>4&#45;&gt;1</title>
<path fill="none" stroke="black" stroke-width="2" d="M180.484,-98.1411C174.338,-103.542 167.458,-109.974 161.718,-116.319 147.434,-132.109 133.233,-151.42 122.645,-166.718"/>
<polygon fill="black" stroke="black" stroke-width="2" points="119.6,-164.972 116.855,-175.205 125.382,-168.917 119.6,-164.972"/>
</g>
<!-- 4&#45;&gt;2 -->
<g id="edge10" class="edge"><title>4&#45;&gt;2</title>
<path fill="none" stroke="black" stroke-width="2" d="M183.072,-68.2432C177.237,-61.3518 170.318,-53.1805 163.898,-45.5982"/>
<polygon fill="black" stroke="black" stroke-width="2" points="166.335,-43.0603 157.202,-37.6902 160.993,-47.5837 166.335,-43.0603"/>
</g>
<!-- 5&#45;&gt;1 -->
<g id="edge7" class="edge"><title>5&#45;&gt;1</title>
<path fill="none" stroke="black" stroke-width="2" d="M35.0884,-109.705C48.5894,-125.744 69.2651,-150.306 84.6774,-168.616"/>
<polygon fill="black" stroke="black" stroke-width="2" points="82.2262,-171.139 91.3437,-176.535 87.5815,-166.631 82.2262,-171.139"/>
</g>
<!-- 5&#45;&gt;2 -->
<g id="edge11" class="edge"><title>5&#45;&gt;2</title>
<path fill="none" stroke="black" stroke-width="2" d="M40.8795,-84.8254C59.2795,-76.6253 87.2278,-63.2727 109.736,-48.6472 112.952,-46.5578 116.216,-44.2121 119.383,-41.7951"/>
<polygon fill="black" stroke="black" stroke-width="2" points="121.809,-44.3364 127.434,-35.3579 117.438,-38.8691 121.809,-44.3364"/>
</g>
<!-- 6&#45;&gt;0 -->
<g id="edge4" class="edge"><title>6&#45;&gt;0</title>
<path fill="none" stroke="black" stroke-width="2" d="M97.5187,-91.5673C96.5746,-82.3773 95.4519,-71.4485 94.4162,-61.3669"/>
<polygon fill="black" stroke="black" stroke-width="2" points="97.8832,-60.8659 93.3795,-51.276 90.9199,-61.5814 97.8832,-60.8659"/>
</g>
<!-- 6&#45;&gt;3 -->
<g id="edge13" class="edge"><title>6&#45;&gt;3</title>
<path fill="none" stroke="black" stroke-width="2" d="M120.453,-118.606C129.378,-121.051 139.991,-123.958 149.781,-126.64"/>
<polygon fill="black" stroke="black" stroke-width="2" points="149.011,-130.058 159.58,-129.325 150.86,-123.307 149.011,-130.058"/>
</g>
<!-- 6&#45;&gt;4 -->
<g id="edge14" class="edge"><title>6&#45;&gt;4</title>
<path fill="none" stroke="black" stroke-width="2" d="M120.32,-106.908C133.719,-102.997 151.423,-97.8278 166.432,-93.4459"/>
<polygon fill="black" stroke="black" stroke-width="2" points="167.688,-96.7255 176.306,-90.5631 165.726,-90.006 167.688,-96.7255"/>
</g>
<!-- 6&#45;&gt;5 -->
<g id="edge15" class="edge"><title>6&#45;&gt;5</title>
<path fill="none" stroke="black" stroke-width="2" d="M79.0879,-107.748C70.7707,-105.66 61.001,-103.208 51.8812,-100.919"/>
<polygon fill="black" stroke="black" stroke-width="2" points="52.5241,-97.4718 41.9728,-98.4319 50.8199,-104.261 52.5241,-97.4718"/>
</g>
</g>
</svg>

