<?xml version="1.0" encoding="UTF-8" standalone="no"?>
<!DOCTYPE svg PUBLIC "-//W3C//DTD SVG 1.1//EN"
 "http://www.w3.org/Graphics/SVG/1.1/DTD/svg11.dtd">
<!-- Generated by graphviz version 2.36.0 (20140111.2315)
 -->
<!-- Title: G Pages: 1 -->
<svg width="100%" height="100%"
 viewBox="0.00 0.00 260.16 304.67" xmlns="http://www.w3.org/2000/svg" xmlns:xlink="http://www.w3.org/1999/xlink">
<g id="graph0" class="graph" transform="scale(1 1) rotate(0) translate(4 300.669)">
<title>G</title>
<!-- 0 -->
<g id="node1" class="node"><title>0</title>
<ellipse fill="cadetblue" stroke="black" cx="35.4787" cy="-131.603" rx="21.4286" ry="21.4286"/>
<text text-anchor="middle" x="35.4787" y="-126.603" font-family="Times New Roman,serif" font-size="20.00">2</text>
</g>
<!-- 5 -->
<g id="node6" class="node"><title>5</title>
<ellipse fill="cadetblue" stroke="black" cx="21.2132" cy="-275.456" rx="21.4286" ry="21.4286"/>
<text text-anchor="middle" x="21.2132" y="-270.456" font-family="Times New Roman,serif" font-size="20.00">2</text>
</g>
<!-- 0&#45;&gt;5 -->
<g id="edge3" class="edge"><title>0&#45;&gt;5</title>
<path fill="none" stroke="black" stroke-width="2" d="M27.455,-151.325C24.1739,-160.469 20.7959,-171.584 19.2802,-181.939 16.2722,-202.489 16.7523,-225.848 17.986,-244.079"/>
<polygon fill="black" stroke="black" stroke-width="2" points="14.5055,-244.466 18.7788,-254.161 21.484,-243.917 14.5055,-244.466"/>
</g>
<!-- 6 -->
<g id="node7" class="node"><title>6</title>
<ellipse fill="brown" stroke="black" cx="149.806" cy="-138.011" rx="21.4286" ry="21.4286"/>
<text text-anchor="middle" x="149.806" y="-133.011" font-family="Times New Roman,serif" font-size="20.00">3</text>
</g>
<!-- 0&#45;&gt;6 -->
<g id="edge4" class="edge"><title>0&#45;&gt;6</title>
<path fill="none" stroke="black" stroke-width="2" d="M56.7149,-132.793C74.0121,-133.763 98.6899,-135.146 118.291,-136.244"/>
<polygon fill="black" stroke="black" stroke-width="2" points="118.116,-139.74 128.296,-136.805 118.507,-132.751 118.116,-139.74"/>
</g>
<!-- 7 -->
<g id="node8" class="node"><title>7</title>
<ellipse fill="cadetblue" stroke="black" cx="91.4222" cy="-44.324" rx="21.4286" ry="21.4286"/>
<text text-anchor="middle" x="91.4222" y="-39.324" font-family="Times New Roman,serif" font-size="20.00">2</text>
</g>
<!-- 0&#45;&gt;7 -->
<g id="edge5" class="edge"><title>0&#45;&gt;7</title>
<path fill="none" stroke="black" stroke-width="2" d="M47.0702,-113.519C54.9463,-101.231 65.4975,-84.7698 74.3327,-70.9858"/>
<polygon fill="black" stroke="black" stroke-width="2" points="77.3958,-72.6928 79.8455,-62.3851 71.5025,-68.9154 77.3958,-72.6928"/>
</g>
<!-- 1 -->
<g id="node2" class="node"><title>1</title>
<ellipse fill="cadetblue" stroke="black" cx="45.5844" cy="-182.034" rx="21.4286" ry="21.4286"/>
<text text-anchor="middle" x="45.5844" y="-177.034" font-family="Times New Roman,serif" font-size="20.00">2</text>
</g>
<!-- 4 -->
<g id="node5" class="node"><title>4</title>
<ellipse fill="cadetblue" stroke="black" cx="225.687" cy="-157.079" rx="21.4286" ry="21.4286"/>
<text text-anchor="middle" x="225.687" y="-152.079" font-family="Times New Roman,serif" font-size="20.00">2</text>
</g>
<!-- 1&#45;&gt;4 -->
<g id="edge7" class="edge"><title>1&#45;&gt;4</title>
<path fill="none" stroke="black" stroke-width="2" d="M66.5969,-179.123C98.0985,-174.758 157.769,-166.49 194.404,-161.414"/>
<polygon fill="black" stroke="black" stroke-width="2" points="195.105,-164.85 204.53,-160.011 194.144,-157.916 195.105,-164.85"/>
</g>
<!-- 1&#45;&gt;7 -->
<g id="edge9" class="edge"><title>1&#45;&gt;7</title>
<path fill="none" stroke="black" stroke-width="2" d="M52.3479,-161.715C60.0326,-138.628 72.6475,-100.729 81.4585,-74.258"/>
<polygon fill="black" stroke="black" stroke-width="2" points="84.7935,-75.3206 84.6309,-64.727 78.1518,-73.1098 84.7935,-75.3206"/>
</g>
<!-- 2 -->
<g id="node3" class="node"><title>2</title>
<ellipse fill="cadetblue" stroke="black" cx="230.947" cy="-21.2132" rx="21.4286" ry="21.4286"/>
<text text-anchor="middle" x="230.947" y="-16.2132" font-family="Times New Roman,serif" font-size="20.00">2</text>
</g>
<!-- 2&#45;&gt;4 -->
<g id="edge10" class="edge"><title>2&#45;&gt;4</title>
<path fill="none" stroke="black" stroke-width="2" d="M230.125,-42.4422C229.265,-64.6456 227.906,-99.7505 226.918,-125.267"/>
<polygon fill="black" stroke="black" stroke-width="2" points="223.41,-125.423 226.52,-135.551 230.405,-125.694 223.41,-125.423"/>
</g>
<!-- 3 -->
<g id="node4" class="node"><title>3</title>
<ellipse fill="cadetblue" stroke="black" cx="126.576" cy="-242.967" rx="21.4286" ry="21.4286"/>
<text text-anchor="middle" x="126.576" y="-237.967" font-family="Times New Roman,serif" font-size="20.00">2</text>
</g>
<!-- 3&#45;&gt;0 -->
<g id="edge1" class="edge"><title>3&#45;&gt;0</title>
<path fill="none" stroke="black" stroke-width="2" d="M113.774,-225.956C101.4,-209.681 81.9749,-184.565 64.2521,-163.502 61.8542,-160.653 59.2969,-157.701 56.7336,-154.795"/>
<polygon fill="black" stroke="black" stroke-width="2" points="59.3163,-152.433 50.0402,-147.314 54.0995,-157.1 59.3163,-152.433"/>
</g>
<!-- 3&#45;&gt;1 -->
<g id="edge6" class="edge"><title>3&#45;&gt;1</title>
<path fill="none" stroke="black" stroke-width="2" d="M109.4,-230.045C98.2324,-221.643 83.4758,-210.541 70.9659,-201.13"/>
<polygon fill="black" stroke="black" stroke-width="2" points="72.8312,-198.153 62.7359,-194.938 68.6228,-203.747 72.8312,-198.153"/>
</g>
<!-- 3&#45;&gt;6 -->
<g id="edge14" class="edge"><title>3&#45;&gt;6</title>
<path fill="none" stroke="black" stroke-width="2" d="M131.166,-222.231C134.516,-207.092 139.117,-186.308 142.909,-169.175"/>
<polygon fill="black" stroke="black" stroke-width="2" points="146.403,-169.583 145.147,-159.063 139.568,-168.07 146.403,-169.583"/>
</g>
<!-- 4&#45;&gt;0 -->
<g id="edge2" class="edge"><title>4&#45;&gt;0</title>
<path fill="none" stroke="black" stroke-width="2" d="M204.747,-161.184C189.504,-163.658 168.363,-166.027 149.775,-164.315 120.055,-161.577 87.4431,-151.495 64.6883,-143.24"/>
<polygon fill="black" stroke="black" stroke-width="2" points="65.8679,-139.944 55.2753,-139.724 63.4188,-146.502 65.8679,-139.944"/>
</g>
<!-- 5&#45;&gt;1 -->
<g id="edge8" class="edge"><title>5&#45;&gt;1</title>
<path fill="none" stroke="black" stroke-width="2" d="M26.622,-254.723C29.8403,-242.386 33.9834,-226.504 37.5756,-212.734"/>
<polygon fill="black" stroke="black" stroke-width="2" points="41.0531,-213.269 40.1908,-202.71 34.2798,-211.502 41.0531,-213.269"/>
</g>
<!-- 5&#45;&gt;3 -->
<g id="edge13" class="edge"><title>5&#45;&gt;3</title>
<path fill="none" stroke="black" stroke-width="2" d="M41.5282,-269.192C57.0246,-264.413 78.6214,-257.754 96.1735,-252.342"/>
<polygon fill="black" stroke="black" stroke-width="2" points="97.4392,-255.614 105.964,-249.323 95.3765,-248.925 97.4392,-255.614"/>
</g>
<!-- 6&#45;&gt;2 -->
<g id="edge11" class="edge"><title>6&#45;&gt;2</title>
<path fill="none" stroke="black" stroke-width="2" d="M161.954,-120.525C175.458,-101.086 197.405,-69.4947 212.915,-47.1692"/>
<polygon fill="black" stroke="black" stroke-width="2" points="215.885,-49.0281 218.716,-38.8185 210.136,-45.0343 215.885,-49.0281"/>
</g>
<!-- 6&#45;&gt;5 -->
<g id="edge16" class="edge"><title>6&#45;&gt;5</title>
<path fill="none" stroke="black" stroke-width="2" d="M135.305,-153.51C112.73,-177.639 69.0534,-224.322 42.7768,-252.408"/>
<polygon fill="black" stroke="black" stroke-width="2" points="40.135,-250.109 35.8588,-259.802 45.2467,-254.891 40.135,-250.109"/>
</g>
<!-- 7&#45;&gt;2 -->
<g id="edge12" class="edge"><title>7&#45;&gt;2</title>
<path fill="none" stroke="black" stroke-width="2" d="M112.613,-40.814C135.899,-36.9569 173.518,-30.7258 200.08,-26.326"/>
<polygon fill="black" stroke="black" stroke-width="2" points="200.72,-29.7677 210.014,-24.6805 199.576,-22.8618 200.72,-29.7677"/>
</g>
<!-- 7&#45;&gt;3 -->
<g id="edge15" class="edge"><title>7&#45;&gt;3</title>
<path fill="none" stroke="black" stroke-width="2" d="M95.1843,-65.5823C101.409,-100.754 113.877,-171.207 121.086,-211.942"/>
<polygon fill="black" stroke="black" stroke-width="2" points="117.652,-212.625 122.841,-221.862 124.545,-211.405 117.652,-212.625"/>
</g>
<!-- 7&#45;&gt;6 -->
<g id="edge17" class="edge"><title>7&#45;&gt;6</title>
<path fill="none" stroke="black" stroke-width="2" d="M102.679,-62.3877C111.322,-76.2557 123.388,-95.6182 133.148,-111.279"/>
<polygon fill="black" stroke="black" stroke-width="2" points="130.324,-113.367 138.584,-120.002 136.265,-109.664 130.324,-113.367"/>
</g>
</g>
</svg>

