<?xml version="1.0" encoding="UTF-8" standalone="no"?>
<!DOCTYPE svg PUBLIC "-//W3C//DTD SVG 1.1//EN"
 "http://www.w3.org/Graphics/SVG/1.1/DTD/svg11.dtd">
<!-- Generated by graphviz version 2.36.0 (20140111.2315)
 -->
<!-- Title: G Pages: 1 -->
<svg width="100%" height="100%"
 viewBox="0.00 0.00 268.70 295.59" xmlns="http://www.w3.org/2000/svg" xmlns:xlink="http://www.w3.org/1999/xlink">
<g id="graph0" class="graph" transform="scale(1 1) rotate(0) translate(4 291.592)">
<title>G</title>
<!-- 0 -->
<g id="node1" class="node"><title>0</title>
<ellipse fill="cadetblue" stroke="black" cx="124.533" cy="-57.0042" rx="21.4286" ry="21.4286"/>
<text text-anchor="middle" x="124.533" y="-52.0042" font-family="Times New Roman,serif" font-size="20.00">2</text>
</g>
<!-- 5 -->
<g id="node6" class="node"><title>5</title>
<ellipse fill="cadetblue" stroke="black" cx="21.2132" cy="-145.32" rx="21.4286" ry="21.4286"/>
<text text-anchor="middle" x="21.2132" y="-140.32" font-family="Times New Roman,serif" font-size="20.00">2</text>
</g>
<!-- 0&#45;&gt;5 -->
<g id="edge3" class="edge"><title>0&#45;&gt;5</title>
<path fill="none" stroke="black" stroke-width="2" d="M108.389,-70.8036C91.5045,-85.2363 64.8089,-108.055 45.4044,-124.642"/>
<polygon fill="black" stroke="black" stroke-width="2" points="42.9118,-122.168 37.5845,-131.326 47.4601,-127.489 42.9118,-122.168"/>
</g>
<!-- 6 -->
<g id="node7" class="node"><title>6</title>
<ellipse fill="dodgerblue" stroke="black" cx="76.0328" cy="-138.958" rx="21.4286" ry="21.4286"/>
<text text-anchor="middle" x="76.0328" y="-133.958" font-family="Times New Roman,serif" font-size="20.00">4</text>
</g>
<!-- 0&#45;&gt;6 -->
<g id="edge4" class="edge"><title>0&#45;&gt;6</title>
<path fill="none" stroke="black" stroke-width="2" d="M113.527,-75.6009C107.202,-86.2888 99.1432,-99.907 92.1187,-111.777"/>
<polygon fill="black" stroke="black" stroke-width="2" points="89.0755,-110.047 86.9946,-120.435 95.0997,-113.612 89.0755,-110.047"/>
</g>
<!-- 7 -->
<g id="node8" class="node"><title>7</title>
<ellipse fill="cadetblue" stroke="black" cx="174.964" cy="-72.4856" rx="21.4286" ry="21.4286"/>
<text text-anchor="middle" x="174.964" y="-67.4856" font-family="Times New Roman,serif" font-size="20.00">2</text>
</g>
<!-- 0&#45;&gt;7 -->
<g id="edge5" class="edge"><title>0&#45;&gt;7</title>
<path fill="none" stroke="black" stroke-width="2" d="M145.045,-63.3011C145.144,-63.3314 145.243,-63.3618 145.342,-63.3922"/>
<polygon fill="black" stroke="black" stroke-width="2" points="144.047,-66.6557 154.634,-66.2445 146.101,-59.9639 144.047,-66.6557"/>
</g>
<!-- 1 -->
<g id="node2" class="node"><title>1</title>
<ellipse fill="cadetblue" stroke="black" cx="98.39" cy="-266.379" rx="21.4286" ry="21.4286"/>
<text text-anchor="middle" x="98.39" y="-261.379" font-family="Times New Roman,serif" font-size="20.00">2</text>
</g>
<!-- 1&#45;&gt;6 -->
<g id="edge8" class="edge"><title>1&#45;&gt;6</title>
<path fill="none" stroke="black" stroke-width="2" d="M94.6982,-245.338C91.1059,-224.865 85.6046,-193.511 81.5038,-170.14"/>
<polygon fill="black" stroke="black" stroke-width="2" points="84.9057,-169.275 79.7301,-160.031 78.011,-170.485 84.9057,-169.275"/>
</g>
<!-- 2 -->
<g id="node3" class="node"><title>2</title>
<ellipse fill="cadetblue" stroke="black" cx="23.8847" cy="-21.2132" rx="21.4286" ry="21.4286"/>
<text text-anchor="middle" x="23.8847" y="-16.2132" font-family="Times New Roman,serif" font-size="20.00">2</text>
</g>
<!-- 2&#45;&gt;7 -->
<g id="edge11" class="edge"><title>2&#45;&gt;7</title>
<path fill="none" stroke="black" stroke-width="2" d="M45.3275,-18.8705C70.9243,-17.2115 113.93,-18.1475 143.15,-38.4212 147.176,-41.2149 151.078,-44.5933 154.689,-48.1233"/>
<polygon fill="black" stroke="black" stroke-width="2" points="152.216,-50.6012 161.639,-55.4434 157.292,-45.7815 152.216,-50.6012"/>
</g>
<!-- 3 -->
<g id="node4" class="node"><title>3</title>
<ellipse fill="brown" stroke="black" cx="154.868" cy="-183.976" rx="21.4286" ry="21.4286"/>
<text text-anchor="middle" x="154.868" y="-178.976" font-family="Times New Roman,serif" font-size="20.00">3</text>
</g>
<!-- 3&#45;&gt;0 -->
<g id="edge1" class="edge"><title>3&#45;&gt;0</title>
<path fill="none" stroke="black" stroke-width="2" d="M149.927,-163.293C145.013,-142.725 137.419,-110.939 131.814,-87.4814"/>
<polygon fill="black" stroke="black" stroke-width="2" points="135.2,-86.591 129.472,-77.6781 128.392,-88.2177 135.2,-86.591"/>
</g>
<!-- 4 -->
<g id="node5" class="node"><title>4</title>
<ellipse fill="cadetblue" stroke="black" cx="239.491" cy="-171.791" rx="21.4286" ry="21.4286"/>
<text text-anchor="middle" x="239.491" y="-166.791" font-family="Times New Roman,serif" font-size="20.00">2</text>
</g>
<!-- 3&#45;&gt;4 -->
<g id="edge12" class="edge"><title>3&#45;&gt;4</title>
<path fill="none" stroke="black" stroke-width="2" d="M176.222,-180.901C185.917,-179.505 197.575,-177.826 208.229,-176.292"/>
<polygon fill="black" stroke="black" stroke-width="2" points="209.038,-179.712 218.437,-174.822 208.04,-172.783 209.038,-179.712"/>
</g>
<!-- 4&#45;&gt;0 -->
<g id="edge2" class="edge"><title>4&#45;&gt;0</title>
<path fill="none" stroke="black" stroke-width="2" d="M223.95,-157.138C207.082,-141.134 179.463,-114.635 156.363,-91.0847 152.93,-87.5843 149.34,-83.8327 145.859,-80.1447"/>
<polygon fill="black" stroke="black" stroke-width="2" points="148.341,-77.675 138.953,-72.7647 143.23,-82.4579 148.341,-77.675"/>
</g>
<!-- 4&#45;&gt;1 -->
<g id="edge6" class="edge"><title>4&#45;&gt;1</title>
<path fill="none" stroke="black" stroke-width="2" d="M221.621,-183.77C197.13,-200.188 152.961,-229.797 124.691,-248.748"/>
<polygon fill="black" stroke="black" stroke-width="2" points="122.473,-246.021 116.115,-254.497 126.371,-251.836 122.473,-246.021"/>
</g>
<!-- 5&#45;&gt;1 -->
<g id="edge7" class="edge"><title>5&#45;&gt;1</title>
<path fill="none" stroke="black" stroke-width="2" d="M32.7674,-163.444C45.6117,-183.591 66.4868,-216.336 81.2389,-239.476"/>
<polygon fill="black" stroke="black" stroke-width="2" points="78.4299,-241.581 86.7569,-248.132 84.3325,-237.818 78.4299,-241.581"/>
</g>
<!-- 5&#45;&gt;2 -->
<g id="edge9" class="edge"><title>5&#45;&gt;2</title>
<path fill="none" stroke="black" stroke-width="2" d="M21.6724,-123.985C22.0949,-104.361 22.7267,-75.0098 23.2071,-52.6924"/>
<polygon fill="black" stroke="black" stroke-width="2" points="26.7064,-52.7579 23.4225,-42.6849 19.708,-52.6072 26.7064,-52.7579"/>
</g>
<!-- 5&#45;&gt;3 -->
<g id="edge13" class="edge"><title>5&#45;&gt;3</title>
<path fill="none" stroke="black" stroke-width="2" d="M41.0637,-153.177C51.3868,-157.101 64.2684,-161.748 76.0014,-165.263 91.622,-169.942 109.26,-174.219 123.888,-177.499"/>
<polygon fill="black" stroke="black" stroke-width="2" points="123.419,-180.979 133.937,-179.703 124.919,-174.142 123.419,-180.979"/>
</g>
<!-- 5&#45;&gt;6 -->
<g id="edge17" class="edge"><title>5&#45;&gt;6</title>
<path fill="none" stroke="black" stroke-width="2" d="M42.5648,-142.842C43.1849,-142.77 43.8093,-142.698 44.4367,-142.625"/>
<polygon fill="black" stroke="black" stroke-width="2" points="45.1194,-146.069 54.6492,-141.44 44.3124,-139.116 45.1194,-146.069"/>
</g>
<!-- 6&#45;&gt;2 -->
<g id="edge10" class="edge"><title>6&#45;&gt;2</title>
<path fill="none" stroke="black" stroke-width="2" d="M67.4216,-119.515C59.0426,-100.596 46.2109,-71.6237 36.6458,-50.0267"/>
<polygon fill="black" stroke="black" stroke-width="2" points="39.7584,-48.4114 32.5086,-40.6853 33.358,-51.2461 39.7584,-48.4114"/>
</g>
<!-- 6&#45;&gt;3 -->
<g id="edge14" class="edge"><title>6&#45;&gt;3</title>
<path fill="none" stroke="black" stroke-width="2" d="M94.7156,-149.627C104.534,-155.233 116.751,-162.209 127.605,-168.408"/>
<polygon fill="black" stroke="black" stroke-width="2" points="125.9,-171.464 136.319,-173.384 129.371,-165.386 125.9,-171.464"/>
</g>
<!-- 7&#45;&gt;3 -->
<g id="edge15" class="edge"><title>7&#45;&gt;3</title>
<path fill="none" stroke="black" stroke-width="2" d="M171.184,-93.456C168.172,-110.168 163.908,-133.822 160.495,-152.759"/>
<polygon fill="black" stroke="black" stroke-width="2" points="157.029,-152.258 158.699,-162.72 163.918,-153.5 157.029,-152.258"/>
</g>
<!-- 7&#45;&gt;4 -->
<g id="edge16" class="edge"><title>7&#45;&gt;4</title>
<path fill="none" stroke="black" stroke-width="2" d="M186.799,-90.6997C196.714,-105.958 211.001,-127.945 222.197,-145.176"/>
<polygon fill="black" stroke="black" stroke-width="2" points="219.348,-147.214 227.731,-153.692 225.217,-143.4 219.348,-147.214"/>
</g>
<!-- 7&#45;&gt;5 -->
<g id="edge18" class="edge"><title>7&#45;&gt;5</title>
<path fill="none" stroke="black" stroke-width="2" d="M154.808,-79.1529C130.901,-87.4069 90.1682,-102.57 57.4549,-120.336 53.9292,-122.251 50.3254,-124.431 46.8237,-126.687"/>
<polygon fill="black" stroke="black" stroke-width="2" points="44.7679,-123.852 38.4327,-132.344 48.6809,-129.656 44.7679,-123.852"/>
</g>
<!-- 7&#45;&gt;6 -->
<g id="edge19" class="edge"><title>7&#45;&gt;6</title>
<path fill="none" stroke="black" stroke-width="2" d="M157.277,-84.3696C142.037,-94.6093 119.819,-109.538 102.467,-121.197"/>
<polygon fill="black" stroke="black" stroke-width="2" points="100.249,-118.471 93.9002,-126.953 104.153,-124.281 100.249,-118.471"/>
</g>
</g>
</svg>

