<?xml version="1.0" encoding="UTF-8" standalone="no"?>
<!DOCTYPE svg PUBLIC "-//W3C//DTD SVG 1.1//EN"
 "http://www.w3.org/Graphics/SVG/1.1/DTD/svg11.dtd">
<!-- Generated by graphviz version 2.36.0 (20140111.2315)
 -->
<!-- Title: G Pages: 1 -->
<svg width="100%" height="100%"
 viewBox="0.00 0.00 302.87 247.66" xmlns="http://www.w3.org/2000/svg" xmlns:xlink="http://www.w3.org/1999/xlink">
<g id="graph0" class="graph" transform="scale(1 1) rotate(0) translate(4 243.664)">
<title>G</title>
<!-- 0 -->
<g id="node1" class="node"><title>0</title>
<ellipse fill="cadetblue" stroke="black" cx="224.811" cy="-218.451" rx="21.4286" ry="21.4286"/>
<text text-anchor="middle" x="224.811" y="-213.451" font-family="Times New Roman,serif" font-size="20.00">2</text>
</g>
<!-- 4 -->
<g id="node5" class="node"><title>4</title>
<ellipse fill="brown" stroke="black" cx="273.655" cy="-106.474" rx="21.4286" ry="21.4286"/>
<text text-anchor="middle" x="273.655" y="-101.474" font-family="Times New Roman,serif" font-size="20.00">3</text>
</g>
<!-- 0&#45;&gt;4 -->
<g id="edge2" class="edge"><title>0&#45;&gt;4</title>
<path fill="none" stroke="black" stroke-width="2" d="M233.319,-198.946C240.976,-181.391 252.331,-155.361 261.043,-135.386"/>
<polygon fill="black" stroke="black" stroke-width="2" points="264.29,-136.696 265.08,-126.131 257.874,-133.898 264.29,-136.696"/>
</g>
<!-- 7 -->
<g id="node8" class="node"><title>7</title>
<ellipse fill="cadetblue" stroke="black" cx="145.327" cy="-129.9" rx="21.4286" ry="21.4286"/>
<text text-anchor="middle" x="145.327" y="-124.9" font-family="Times New Roman,serif" font-size="20.00">2</text>
</g>
<!-- 0&#45;&gt;7 -->
<g id="edge4" class="edge"><title>0&#45;&gt;7</title>
<path fill="none" stroke="black" stroke-width="2" d="M210.601,-202.62C198.357,-188.979 180.506,-169.092 166.566,-153.561"/>
<polygon fill="black" stroke="black" stroke-width="2" points="168.967,-150.997 159.682,-145.893 163.758,-155.673 168.967,-150.997"/>
</g>
<!-- 1 -->
<g id="node2" class="node"><title>1</title>
<ellipse fill="cadetblue" stroke="black" cx="21.2132" cy="-154.204" rx="21.4286" ry="21.4286"/>
<text text-anchor="middle" x="21.2132" y="-149.204" font-family="Times New Roman,serif" font-size="20.00">2</text>
</g>
<!-- 5 -->
<g id="node6" class="node"><title>5</title>
<ellipse fill="brown" stroke="black" cx="82.978" cy="-73.3486" rx="21.4286" ry="21.4286"/>
<text text-anchor="middle" x="82.978" y="-68.3486" font-family="Times New Roman,serif" font-size="20.00">3</text>
</g>
<!-- 1&#45;&gt;5 -->
<g id="edge6" class="edge"><title>1&#45;&gt;5</title>
<path fill="none" stroke="black" stroke-width="2" d="M34.3119,-137.057C42.8283,-125.908 54.0818,-111.176 63.6219,-98.6875"/>
<polygon fill="black" stroke="black" stroke-width="2" points="66.6091,-100.543 69.8982,-90.4713 61.0464,-96.2934 66.6091,-100.543"/>
</g>
<!-- 2 -->
<g id="node3" class="node"><title>2</title>
<ellipse fill="cadetblue" stroke="black" cx="188.238" cy="-21.2132" rx="21.4286" ry="21.4286"/>
<text text-anchor="middle" x="188.238" y="-16.2132" font-family="Times New Roman,serif" font-size="20.00">2</text>
</g>
<!-- 2&#45;&gt;4 -->
<g id="edge8" class="edge"><title>2&#45;&gt;4</title>
<path fill="none" stroke="black" stroke-width="2" d="M203.509,-36.4561C216.748,-49.6716 236.089,-68.9765 251.11,-83.9702"/>
<polygon fill="black" stroke="black" stroke-width="2" points="248.966,-86.7754 258.516,-91.3629 253.911,-81.8211 248.966,-86.7754"/>
</g>
<!-- 2&#45;&gt;5 -->
<g id="edge9" class="edge"><title>2&#45;&gt;5</title>
<path fill="none" stroke="black" stroke-width="2" d="M168.932,-30.7756C152.759,-38.7862 129.453,-50.3293 111.189,-59.3757"/>
<polygon fill="black" stroke="black" stroke-width="2" points="109.569,-56.2719 102.162,-63.8468 112.676,-62.5447 109.569,-56.2719"/>
</g>
<!-- 3 -->
<g id="node4" class="node"><title>3</title>
<ellipse fill="cadetblue" stroke="black" cx="108.069" cy="-207.391" rx="21.4286" ry="21.4286"/>
<text text-anchor="middle" x="108.069" y="-202.391" font-family="Times New Roman,serif" font-size="20.00">2</text>
</g>
<!-- 3&#45;&gt;0 -->
<g id="edge1" class="edge"><title>3&#45;&gt;0</title>
<path fill="none" stroke="black" stroke-width="2" d="M129.21,-209.394C147.115,-211.09 173.042,-213.546 193.379,-215.473"/>
<polygon fill="black" stroke="black" stroke-width="2" points="193.147,-218.967 203.433,-216.425 193.808,-211.998 193.147,-218.967"/>
</g>
<!-- 3&#45;&gt;1 -->
<g id="edge5" class="edge"><title>3&#45;&gt;1</title>
<path fill="none" stroke="black" stroke-width="2" d="M89.649,-196.112C77.5921,-188.728 61.634,-178.956 48.1608,-170.706"/>
<polygon fill="black" stroke="black" stroke-width="2" points="49.6646,-167.523 39.3087,-165.285 46.009,-173.492 49.6646,-167.523"/>
</g>
<!-- 6 -->
<g id="node7" class="node"><title>6</title>
<ellipse fill="cadetblue" stroke="black" cx="195.759" cy="-123.385" rx="21.4286" ry="21.4286"/>
<text text-anchor="middle" x="195.759" y="-118.385" font-family="Times New Roman,serif" font-size="20.00">2</text>
</g>
<!-- 3&#45;&gt;6 -->
<g id="edge13" class="edge"><title>3&#45;&gt;6</title>
<path fill="none" stroke="black" stroke-width="2" d="M123.746,-192.372C137.338,-179.351 157.193,-160.331 172.614,-145.557"/>
<polygon fill="black" stroke="black" stroke-width="2" points="175.417,-147.719 180.217,-138.273 170.575,-142.664 175.417,-147.719"/>
</g>
<!-- 4&#45;&gt;7 -->
<g id="edge16" class="edge"><title>4&#45;&gt;7</title>
<path fill="none" stroke="black" stroke-width="2" d="M252.811,-101.059C237.117,-97.6856 215.082,-94.4459 195.79,-97.0805 186.057,-98.4098 176.667,-103.188 168.682,-108.703"/>
<polygon fill="black" stroke="black" stroke-width="2" points="166.45,-106.003 160.618,-114.848 170.693,-111.571 166.45,-106.003"/>
</g>
<!-- 5&#45;&gt;3 -->
<g id="edge12" class="edge"><title>5&#45;&gt;3</title>
<path fill="none" stroke="black" stroke-width="2" d="M86.8984,-94.2927C90.9988,-116.198 97.4818,-150.832 102.194,-176.006"/>
<polygon fill="black" stroke="black" stroke-width="2" points="98.8129,-176.966 104.093,-186.152 105.693,-175.678 98.8129,-176.966"/>
</g>
<!-- 5&#45;&gt;6 -->
<g id="edge17" class="edge"><title>5&#45;&gt;6</title>
<path fill="none" stroke="black" stroke-width="2" d="M102.623,-82.0643C120.412,-89.9566 146.843,-101.683 167.008,-110.629"/>
<polygon fill="black" stroke="black" stroke-width="2" points="165.779,-113.913 176.339,-114.769 168.618,-107.514 165.779,-113.913"/>
</g>
<!-- 6&#45;&gt;0 -->
<g id="edge3" class="edge"><title>6&#45;&gt;0</title>
<path fill="none" stroke="black" stroke-width="2" d="M202.063,-144.013C205.984,-156.844 211.097,-173.576 215.483,-187.925"/>
<polygon fill="black" stroke="black" stroke-width="2" points="212.25,-189.323 218.52,-197.863 218.944,-187.277 212.25,-189.323"/>
</g>
<!-- 6&#45;&gt;2 -->
<g id="edge10" class="edge"><title>6&#45;&gt;2</title>
<path fill="none" stroke="black" stroke-width="2" d="M194.2,-102.215C193.149,-87.9264 191.742,-68.8171 190.559,-52.7475"/>
<polygon fill="black" stroke="black" stroke-width="2" points="194.045,-52.4237 189.82,-42.7076 187.064,-52.9376 194.045,-52.4237"/>
</g>
<!-- 6&#45;&gt;4 -->
<g id="edge15" class="edge"><title>6&#45;&gt;4</title>
<path fill="none" stroke="black" stroke-width="2" d="M216.633,-118.853C224.666,-117.109 234.017,-115.079 242.795,-113.173"/>
<polygon fill="black" stroke="black" stroke-width="2" points="243.692,-116.56 252.722,-111.018 242.207,-109.719 243.692,-116.56"/>
</g>
<!-- 7&#45;&gt;1 -->
<g id="edge7" class="edge"><title>7&#45;&gt;1</title>
<path fill="none" stroke="black" stroke-width="2" d="M124.273,-134.023C104.57,-137.881 74.8865,-143.694 52.4287,-148.092"/>
<polygon fill="black" stroke="black" stroke-width="2" points="51.5117,-144.705 42.3707,-150.061 52.857,-151.574 51.5117,-144.705"/>
</g>
<!-- 7&#45;&gt;2 -->
<g id="edge11" class="edge"><title>7&#45;&gt;2</title>
<path fill="none" stroke="black" stroke-width="2" d="M153.198,-109.966C159.791,-93.2658 169.292,-69.2017 176.737,-50.3427"/>
<polygon fill="black" stroke="black" stroke-width="2" points="180.001,-51.6084 180.417,-41.0217 173.49,-49.0378 180.001,-51.6084"/>
</g>
<!-- 7&#45;&gt;3 -->
<g id="edge14" class="edge"><title>7&#45;&gt;3</title>
<path fill="none" stroke="black" stroke-width="2" d="M136.117,-149.055C131.773,-158.09 126.502,-169.053 121.707,-179.025"/>
<polygon fill="black" stroke="black" stroke-width="2" points="118.481,-177.659 117.302,-188.188 124.79,-180.692 118.481,-177.659"/>
</g>
<!-- 7&#45;&gt;5 -->
<g id="edge18" class="edge"><title>7&#45;&gt;5</title>
<path fill="none" stroke="black" stroke-width="2" d="M129.594,-115.63C122.559,-109.249 114.121,-101.596 106.369,-94.5648"/>
<polygon fill="black" stroke="black" stroke-width="2" points="108.682,-91.937 98.9232,-87.8112 103.979,-97.122 108.682,-91.937"/>
</g>
</g>
</svg>

