<?xml version="1.0" encoding="UTF-8" standalone="no"?>
<!DOCTYPE svg PUBLIC "-//W3C//DTD SVG 1.1//EN"
 "http://www.w3.org/Graphics/SVG/1.1/DTD/svg11.dtd">
<!-- Generated by graphviz version 2.36.0 (20140111.2315)
 -->
<!-- Title: G Pages: 1 -->
<svg width="100%" height="100%"
 viewBox="0.00 0.00 240.89 270.70" xmlns="http://www.w3.org/2000/svg" xmlns:xlink="http://www.w3.org/1999/xlink">
<g id="graph0" class="graph" transform="scale(1 1) rotate(0) translate(4 266.703)">
<title>G</title>
<!-- 0 -->
<g id="node1" class="node"><title>0</title>
<ellipse fill="cadetblue" stroke="black" cx="54.7354" cy="-97.921" rx="21.4286" ry="21.4286"/>
<text text-anchor="middle" x="54.7354" y="-92.921" font-family="Times New Roman,serif" font-size="20.00">2</text>
</g>
<!-- 5 -->
<g id="node6" class="node"><title>5</title>
<ellipse fill="brown" stroke="black" cx="21.2132" cy="-197.796" rx="21.4286" ry="21.4286"/>
<text text-anchor="middle" x="21.2132" y="-192.796" font-family="Times New Roman,serif" font-size="20.00">3</text>
</g>
<!-- 0&#45;&gt;5 -->
<g id="edge3" class="edge"><title>0&#45;&gt;5</title>
<path fill="none" stroke="black" stroke-width="2" d="M47.9517,-118.132C43.1354,-132.482 36.5909,-151.98 31.1822,-168.095"/>
<polygon fill="black" stroke="black" stroke-width="2" points="27.8508,-167.021 27.9868,-177.615 34.487,-169.249 27.8508,-167.021"/>
</g>
<!-- 6 -->
<g id="node7" class="node"><title>6</title>
<ellipse fill="cadetblue" stroke="black" cx="166.578" cy="-26.6161" rx="21.4286" ry="21.4286"/>
<text text-anchor="middle" x="166.578" y="-21.6161" font-family="Times New Roman,serif" font-size="20.00">2</text>
</g>
<!-- 0&#45;&gt;6 -->
<g id="edge4" class="edge"><title>0&#45;&gt;6</title>
<path fill="none" stroke="black" stroke-width="2" d="M72.7049,-86.4646C90.8855,-74.8736 119.199,-56.8222 139.98,-43.5737"/>
<polygon fill="black" stroke="black" stroke-width="2" points="142.103,-46.3712 148.653,-38.044 138.339,-40.4687 142.103,-46.3712"/>
</g>
<!-- 7 -->
<g id="node8" class="node"><title>7</title>
<ellipse fill="brown" stroke="black" cx="97.684" cy="-21.2132" rx="21.4286" ry="21.4286"/>
<text text-anchor="middle" x="97.684" y="-16.2132" font-family="Times New Roman,serif" font-size="20.00">3</text>
</g>
<!-- 0&#45;&gt;7 -->
<g id="edge5" class="edge"><title>0&#45;&gt;7</title>
<path fill="none" stroke="black" stroke-width="2" d="M65.1321,-79.3522C70.264,-70.1864 76.5583,-58.9445 82.2397,-48.7972"/>
<polygon fill="black" stroke="black" stroke-width="2" points="85.4027,-50.3122 87.2342,-39.8769 79.2949,-46.8925 85.4027,-50.3122"/>
</g>
<!-- 1 -->
<g id="node2" class="node"><title>1</title>
<ellipse fill="cadetblue" stroke="black" cx="112.125" cy="-128.906" rx="21.4286" ry="21.4286"/>
<text text-anchor="middle" x="112.125" y="-123.906" font-family="Times New Roman,serif" font-size="20.00">2</text>
</g>
<!-- 1&#45;&gt;5 -->
<g id="edge8" class="edge"><title>1&#45;&gt;5</title>
<path fill="none" stroke="black" stroke-width="2" d="M95.025,-141.864C81.3111,-152.256 61.8638,-166.993 46.3734,-178.731"/>
<polygon fill="black" stroke="black" stroke-width="2" points="44.0927,-176.068 38.2363,-184.897 48.3204,-181.647 44.0927,-176.068"/>
</g>
<!-- 1&#45;&gt;6 -->
<g id="edge9" class="edge"><title>1&#45;&gt;6</title>
<path fill="none" stroke="black" stroke-width="2" d="M122.112,-110.145C130.35,-94.6695 142.166,-72.4746 151.546,-54.8529"/>
<polygon fill="black" stroke="black" stroke-width="2" points="154.86,-56.0771 156.469,-45.6052 148.681,-52.7877 154.86,-56.0771"/>
</g>
<!-- 1&#45;&gt;7 -->
<g id="edge10" class="edge"><title>1&#45;&gt;7</title>
<path fill="none" stroke="black" stroke-width="2" d="M109.272,-107.63C107.175,-91.9947 104.292,-70.4912 101.926,-52.8465"/>
<polygon fill="black" stroke="black" stroke-width="2" points="105.329,-51.8918 100.531,-42.4457 98.3912,-52.8222 105.329,-51.8918"/>
</g>
<!-- 2 -->
<g id="node3" class="node"><title>2</title>
<ellipse fill="cadetblue" stroke="black" cx="164.254" cy="-164.273" rx="21.4286" ry="21.4286"/>
<text text-anchor="middle" x="164.254" y="-159.273" font-family="Times New Roman,serif" font-size="20.00">2</text>
</g>
<!-- 4 -->
<g id="node5" class="node"><title>4</title>
<ellipse fill="cadetblue" stroke="black" cx="98.4112" cy="-241.49" rx="21.4286" ry="21.4286"/>
<text text-anchor="middle" x="98.4112" y="-236.49" font-family="Times New Roman,serif" font-size="20.00">2</text>
</g>
<!-- 2&#45;&gt;4 -->
<g id="edge11" class="edge"><title>2&#45;&gt;4</title>
<path fill="none" stroke="black" stroke-width="2" d="M150.291,-180.648C141.212,-191.295 129.215,-205.364 119.045,-217.291"/>
<polygon fill="black" stroke="black" stroke-width="2" points="116.18,-215.257 112.355,-225.138 121.506,-219.799 116.18,-215.257"/>
</g>
<!-- 2&#45;&gt;5 -->
<g id="edge12" class="edge"><title>2&#45;&gt;5</title>
<path fill="none" stroke="black" stroke-width="2" d="M143.455,-169.147C119.408,-174.783 79.5985,-184.113 51.9714,-190.588"/>
<polygon fill="black" stroke="black" stroke-width="2" points="50.9753,-187.226 42.0377,-192.916 52.5726,-194.042 50.9753,-187.226"/>
</g>
<!-- 3 -->
<g id="node4" class="node"><title>3</title>
<ellipse fill="cadetblue" stroke="black" cx="211.679" cy="-77.0476" rx="21.4286" ry="21.4286"/>
<text text-anchor="middle" x="211.679" y="-72.0476" font-family="Times New Roman,serif" font-size="20.00">2</text>
</g>
<!-- 3&#45;&gt;0 -->
<g id="edge1" class="edge"><title>3&#45;&gt;0</title>
<path fill="none" stroke="black" stroke-width="2" d="M190.513,-79.8626C163.644,-83.4363 117.065,-89.6313 86.0712,-93.7534"/>
<polygon fill="black" stroke="black" stroke-width="2" points="85.2675,-90.3294 75.8163,-95.1173 86.1904,-97.2683 85.2675,-90.3294"/>
</g>
<!-- 3&#45;&gt;1 -->
<g id="edge6" class="edge"><title>3&#45;&gt;1</title>
<path fill="none" stroke="black" stroke-width="2" d="M192.484,-87.0465C177.747,-94.7229 157.172,-105.441 140.531,-114.11"/>
<polygon fill="black" stroke="black" stroke-width="2" points="138.513,-111.214 131.261,-118.938 141.747,-117.422 138.513,-111.214"/>
</g>
<!-- 4&#45;&gt;0 -->
<g id="edge2" class="edge"><title>4&#45;&gt;0</title>
<path fill="none" stroke="black" stroke-width="2" d="M92.1535,-220.92C84.7589,-196.613 72.3911,-155.958 63.9127,-128.088"/>
<polygon fill="black" stroke="black" stroke-width="2" points="67.2405,-127.001 60.9815,-118.453 60.5435,-129.039 67.2405,-127.001"/>
</g>
<!-- 4&#45;&gt;1 -->
<g id="edge7" class="edge"><title>4&#45;&gt;1</title>
<path fill="none" stroke="black" stroke-width="2" d="M100.991,-220.314C103.059,-203.331 105.993,-179.247 108.33,-160.064"/>
<polygon fill="black" stroke="black" stroke-width="2" points="111.822,-160.337 109.557,-149.988 104.873,-159.491 111.822,-160.337"/>
</g>
<!-- 5&#45;&gt;4 -->
<g id="edge17" class="edge"><title>5&#45;&gt;4</title>
<path fill="none" stroke="black" stroke-width="2" d="M39.9007,-208.373C49.2882,-213.687 60.8396,-220.225 71.1917,-226.084"/>
<polygon fill="black" stroke="black" stroke-width="2" points="69.469,-229.13 79.8958,-231.01 72.917,-223.038 69.469,-229.13"/>
</g>
<!-- 6&#45;&gt;2 -->
<g id="edge13" class="edge"><title>6&#45;&gt;2</title>
<path fill="none" stroke="black" stroke-width="2" d="M166.215,-48.125C165.831,-70.8544 165.222,-106.928 164.785,-132.843"/>
<polygon fill="black" stroke="black" stroke-width="2" points="161.284,-132.857 164.615,-142.915 168.283,-132.975 161.284,-132.857"/>
</g>
<!-- 6&#45;&gt;3 -->
<g id="edge15" class="edge"><title>6&#45;&gt;3</title>
<path fill="none" stroke="black" stroke-width="2" d="M180.848,-42.5729C183.974,-46.0683 187.347,-49.8392 190.674,-53.5597"/>
<polygon fill="black" stroke="black" stroke-width="2" points="188.072,-55.9006 197.347,-61.0214 193.29,-51.2342 188.072,-55.9006"/>
</g>
<!-- 6&#45;&gt;7 -->
<g id="edge18" class="edge"><title>6&#45;&gt;7</title>
<path fill="none" stroke="black" stroke-width="2" d="M145.157,-24.9362C140.054,-24.536 134.504,-24.1008 129.057,-23.6736"/>
<polygon fill="black" stroke="black" stroke-width="2" points="129.098,-20.1661 118.855,-22.8735 128.551,-27.1447 129.098,-20.1661"/>
</g>
<!-- 7&#45;&gt;2 -->
<g id="edge14" class="edge"><title>7&#45;&gt;2</title>
<path fill="none" stroke="black" stroke-width="2" d="M106.662,-40.5069C118.027,-64.931 137.706,-107.221 150.853,-135.473"/>
<polygon fill="black" stroke="black" stroke-width="2" points="147.814,-137.238 155.206,-144.828 154.16,-134.285 147.814,-137.238"/>
</g>
<!-- 7&#45;&gt;3 -->
<g id="edge16" class="edge"><title>7&#45;&gt;3</title>
<path fill="none" stroke="black" stroke-width="2" d="M116.764,-30.5586C135.012,-39.4965 162.75,-53.0823 183.535,-63.2627"/>
<polygon fill="black" stroke="black" stroke-width="2" points="182.016,-66.4161 192.537,-67.6717 185.096,-60.1297 182.016,-66.4161"/>
</g>
</g>
</svg>

