<?xml version="1.0" encoding="UTF-8" standalone="no"?>
<!DOCTYPE svg PUBLIC "-//W3C//DTD SVG 1.1//EN"
 "http://www.w3.org/Graphics/SVG/1.1/DTD/svg11.dtd">
<!-- Generated by graphviz version 2.36.0 (20140111.2315)
 -->
<!-- Title: G Pages: 1 -->
<svg width="100%" height="100%"
 viewBox="0.00 0.00 176.36 237.89" xmlns="http://www.w3.org/2000/svg" xmlns:xlink="http://www.w3.org/1999/xlink">
<g id="graph0" class="graph" transform="scale(1 1) rotate(0) translate(4 233.89)">
<title>G</title>
<!-- 0 -->
<g id="node1" class="node"><title>0</title>
<ellipse fill="cadetblue" stroke="black" cx="21.2132" cy="-141.324" rx="21.4286" ry="21.4286"/>
<text text-anchor="middle" x="21.2132" y="-136.324" font-family="Times New Roman,serif" font-size="20.00">2</text>
</g>
<!-- 5 -->
<g id="node6" class="node"><title>5</title>
<ellipse fill="cadetblue" stroke="black" cx="46.0397" cy="-76.342" rx="21.4286" ry="21.4286"/>
<text text-anchor="middle" x="46.0397" y="-71.342" font-family="Times New Roman,serif" font-size="20.00">2</text>
</g>
<!-- 0&#45;&gt;5 -->
<g id="edge3" class="edge"><title>0&#45;&gt;5</title>
<path fill="none" stroke="black" stroke-width="2" d="M28.7969,-121.474C30.6391,-116.652 32.6494,-111.391 34.6257,-106.218"/>
<polygon fill="black" stroke="black" stroke-width="2" points="38.0317,-107.109 38.3311,-96.5188 31.4927,-104.611 38.0317,-107.109"/>
</g>
<!-- 6 -->
<g id="node7" class="node"><title>6</title>
<ellipse fill="brown" stroke="black" cx="110.077" cy="-71.6447" rx="21.4286" ry="21.4286"/>
<text text-anchor="middle" x="110.077" y="-66.6447" font-family="Times New Roman,serif" font-size="20.00">3</text>
</g>
<!-- 0&#45;&gt;6 -->
<g id="edge4" class="edge"><title>0&#45;&gt;6</title>
<path fill="none" stroke="black" stroke-width="2" d="M37.9278,-128.218C51.2481,-117.773 70.1018,-102.99 85.1957,-91.1546"/>
<polygon fill="black" stroke="black" stroke-width="2" points="87.4257,-93.8537 93.1354,-84.929 83.1064,-88.3452 87.4257,-93.8537"/>
</g>
<!-- 1 -->
<g id="node2" class="node"><title>1</title>
<ellipse fill="cadetblue" stroke="black" cx="147.146" cy="-129.406" rx="21.4286" ry="21.4286"/>
<text text-anchor="middle" x="147.146" y="-124.406" font-family="Times New Roman,serif" font-size="20.00">2</text>
</g>
<!-- 4 -->
<g id="node5" class="node"><title>4</title>
<ellipse fill="cadetblue" stroke="black" cx="98.6785" cy="-198.758" rx="21.4286" ry="21.4286"/>
<text text-anchor="middle" x="98.6785" y="-193.758" font-family="Times New Roman,serif" font-size="20.00">2</text>
</g>
<!-- 1&#45;&gt;4 -->
<g id="edge5" class="edge"><title>1&#45;&gt;4</title>
<path fill="none" stroke="black" stroke-width="2" d="M134.916,-146.906C129.447,-154.731 122.888,-164.117 116.862,-172.74"/>
<polygon fill="black" stroke="black" stroke-width="2" points="113.933,-170.82 111.074,-181.022 119.671,-174.83 113.933,-170.82"/>
</g>
<!-- 7 -->
<g id="node8" class="node"><title>7</title>
<ellipse fill="cadetblue" stroke="black" cx="80.3094" cy="-128.703" rx="21.4286" ry="21.4286"/>
<text text-anchor="middle" x="80.3094" y="-123.703" font-family="Times New Roman,serif" font-size="20.00">2</text>
</g>
<!-- 1&#45;&gt;7 -->
<g id="edge8" class="edge"><title>1&#45;&gt;7</title>
<path fill="none" stroke="black" stroke-width="2" d="M125.631,-129.18C121.218,-129.133 116.487,-129.083 111.807,-129.034"/>
<polygon fill="black" stroke="black" stroke-width="2" points="111.821,-125.534 101.785,-128.929 111.747,-132.534 111.821,-125.534"/>
</g>
<!-- 2 -->
<g id="node3" class="node"><title>2</title>
<ellipse fill="cadetblue" stroke="black" cx="68.5001" cy="-21.2132" rx="21.4286" ry="21.4286"/>
<text text-anchor="middle" x="68.5001" y="-16.2132" font-family="Times New Roman,serif" font-size="20.00">2</text>
</g>
<!-- 2&#45;&gt;7 -->
<g id="edge11" class="edge"><title>2&#45;&gt;7</title>
<path fill="none" stroke="black" stroke-width="2" d="M70.8333,-42.4497C72.5477,-58.0552 74.9057,-79.518 76.8406,-97.1294"/>
<polygon fill="black" stroke="black" stroke-width="2" points="73.4099,-97.9525 77.9811,-107.51 80.368,-97.188 73.4099,-97.9525"/>
</g>
<!-- 3 -->
<g id="node4" class="node"><title>3</title>
<ellipse fill="cadetblue" stroke="black" cx="27.9167" cy="-208.677" rx="21.4286" ry="21.4286"/>
<text text-anchor="middle" x="27.9167" y="-203.677" font-family="Times New Roman,serif" font-size="20.00">2</text>
</g>
<!-- 3&#45;&gt;0 -->
<g id="edge1" class="edge"><title>3&#45;&gt;0</title>
<path fill="none" stroke="black" stroke-width="2" d="M25.7956,-187.366C25.331,-182.698 24.8298,-177.662 24.3353,-172.693"/>
<polygon fill="black" stroke="black" stroke-width="2" points="27.8167,-172.332 23.3434,-162.728 20.8511,-173.025 27.8167,-172.332"/>
</g>
<!-- 4&#45;&gt;0 -->
<g id="edge2" class="edge"><title>4&#45;&gt;0</title>
<path fill="none" stroke="black" stroke-width="2" d="M81.4865,-186.011C71.2567,-178.427 58.0876,-168.663 46.6696,-160.198"/>
<polygon fill="black" stroke="black" stroke-width="2" points="48.4748,-157.179 38.3572,-154.035 44.3057,-162.802 48.4748,-157.179"/>
</g>
<!-- 4&#45;&gt;3 -->
<g id="edge12" class="edge"><title>4&#45;&gt;3</title>
<path fill="none" stroke="black" stroke-width="2" d="M77.4476,-201.734C71.7101,-202.538 65.3782,-203.426 59.2139,-204.29"/>
<polygon fill="black" stroke="black" stroke-width="2" points="58.5499,-200.849 49.1326,-205.703 59.5216,-207.781 58.5499,-200.849"/>
</g>
<!-- 5&#45;&gt;1 -->
<g id="edge6" class="edge"><title>5&#45;&gt;1</title>
<path fill="none" stroke="black" stroke-width="2" d="M65.057,-86.323C80.3088,-94.3276 101.937,-105.679 119.164,-114.72"/>
<polygon fill="black" stroke="black" stroke-width="2" points="117.733,-117.922 128.214,-119.47 120.986,-111.724 117.733,-117.922"/>
</g>
<!-- 5&#45;&gt;2 -->
<g id="edge9" class="edge"><title>5&#45;&gt;2</title>
<path fill="none" stroke="black" stroke-width="2" d="M54.1484,-56.4392C54.9212,-54.5425 55.7154,-52.5931 56.5147,-50.6312"/>
<polygon fill="black" stroke="black" stroke-width="2" points="59.9468,-51.4834 60.4786,-40.9019 53.4642,-48.8422 59.9468,-51.4834"/>
</g>
<!-- 5&#45;&gt;6 -->
<g id="edge15" class="edge"><title>5&#45;&gt;6</title>
<path fill="none" stroke="black" stroke-width="2" d="M67.3633,-74.7779C70.8902,-74.5191 74.6128,-74.2461 78.3305,-73.9734"/>
<polygon fill="black" stroke="black" stroke-width="2" points="78.9113,-77.4403 88.6284,-73.218 78.3991,-70.459 78.9113,-77.4403"/>
</g>
<!-- 6&#45;&gt;1 -->
<g id="edge7" class="edge"><title>6&#45;&gt;1</title>
<path fill="none" stroke="black" stroke-width="2" d="M121.603,-89.6041C124.228,-93.6941 127.072,-98.1267 129.878,-102.499"/>
<polygon fill="black" stroke="black" stroke-width="2" points="127.153,-104.733 135.5,-111.259 133.044,-100.952 127.153,-104.733"/>
</g>
<!-- 6&#45;&gt;2 -->
<g id="edge10" class="edge"><title>6&#45;&gt;2</title>
<path fill="none" stroke="black" stroke-width="2" d="M96.4633,-55.1315C93.9248,-52.0524 91.2236,-48.7759 88.5391,-45.5197"/>
<polygon fill="black" stroke="black" stroke-width="2" points="91.0644,-43.0807 82.0026,-37.5912 85.6633,-47.5336 91.0644,-43.0807"/>
</g>
<!-- 7&#45;&gt;3 -->
<g id="edge13" class="edge"><title>7&#45;&gt;3</title>
<path fill="none" stroke="black" stroke-width="2" d="M68.6817,-146.452C61.811,-156.939 52.9798,-170.42 45.2948,-182.15"/>
<polygon fill="black" stroke="black" stroke-width="2" points="42.2453,-180.418 39.693,-190.701 48.1007,-184.254 42.2453,-180.418"/>
</g>
<!-- 7&#45;&gt;4 -->
<g id="edge14" class="edge"><title>7&#45;&gt;4</title>
<path fill="none" stroke="black" stroke-width="2" d="M85.7214,-149.343C87.2771,-155.276 89.0075,-161.875 90.6842,-168.27"/>
<polygon fill="black" stroke="black" stroke-width="2" points="87.3197,-169.238 93.2417,-178.023 94.0908,-167.463 87.3197,-169.238"/>
</g>
<!-- 7&#45;&gt;5 -->
<g id="edge16" class="edge"><title>7&#45;&gt;5</title>
<path fill="none" stroke="black" stroke-width="2" d="M68.5157,-110.683C66.8276,-108.104 65.0627,-105.407 63.2961,-102.708"/>
<polygon fill="black" stroke="black" stroke-width="2" points="66.1439,-100.668 57.739,-94.2175 60.2868,-104.501 66.1439,-100.668"/>
</g>
<!-- 7&#45;&gt;6 -->
<g id="edge17" class="edge"><title>7&#45;&gt;6</title>
<path fill="none" stroke="black" stroke-width="2" d="M90.2216,-109.703C91.9108,-106.465 93.6965,-103.043 95.4768,-99.6302"/>
<polygon fill="black" stroke="black" stroke-width="2" points="98.5843,-101.241 100.107,-90.7558 92.3781,-98.0028 98.5843,-101.241"/>
</g>
</g>
</svg>

