<?xml version="1.0" encoding="UTF-8" standalone="no"?>
<!DOCTYPE svg PUBLIC "-//W3C//DTD SVG 1.1//EN"
 "http://www.w3.org/Graphics/SVG/1.1/DTD/svg11.dtd">
<!-- Generated by graphviz version 2.36.0 (20140111.2315)
 -->
<!-- Title: G Pages: 1 -->
<svg width="100%" height="100%"
 viewBox="0.00 0.00 225.04 363.50" xmlns="http://www.w3.org/2000/svg" xmlns:xlink="http://www.w3.org/1999/xlink">
<g id="graph0" class="graph" transform="scale(1 1) rotate(0) translate(4 359.498)">
<title>G</title>
<!-- 0 -->
<g id="node1" class="node"><title>0</title>
<ellipse fill="cadetblue" stroke="black" cx="44.2548" cy="-244.921" rx="21.4286" ry="21.4286"/>
<text text-anchor="middle" x="44.2548" y="-239.921" font-family="Times New Roman,serif" font-size="20.00">2</text>
</g>
<!-- 5 -->
<g id="node6" class="node"><title>5</title>
<ellipse fill="cadetblue" stroke="black" cx="21.2132" cy="-129.792" rx="21.4286" ry="21.4286"/>
<text text-anchor="middle" x="21.2132" y="-124.792" font-family="Times New Roman,serif" font-size="20.00">2</text>
</g>
<!-- 0&#45;&gt;5 -->
<g id="edge3" class="edge"><title>0&#45;&gt;5</title>
<path fill="none" stroke="black" stroke-width="2" d="M40.0822,-224.072C36.5482,-206.414 31.4311,-180.846 27.417,-160.79"/>
<polygon fill="black" stroke="black" stroke-width="2" points="30.8272,-159.994 25.4327,-150.875 23.9633,-161.368 30.8272,-159.994"/>
</g>
<!-- 6 -->
<g id="node7" class="node"><title>6</title>
<ellipse fill="cadetblue" stroke="black" cx="132.668" cy="-103.448" rx="21.4286" ry="21.4286"/>
<text text-anchor="middle" x="132.668" y="-98.4481" font-family="Times New Roman,serif" font-size="20.00">2</text>
</g>
<!-- 0&#45;&gt;6 -->
<g id="edge4" class="edge"><title>0&#45;&gt;6</title>
<path fill="none" stroke="black" stroke-width="2" d="M59.6425,-229.942C73.2928,-216.025 93.0855,-194.228 106.452,-172.48 111.138,-164.857 110.903,-162.216 114.158,-153.881 116.756,-147.226 119.456,-140.039 121.965,-133.234"/>
<polygon fill="black" stroke="black" stroke-width="2" points="125.325,-134.237 125.47,-123.643 118.75,-131.834 125.325,-134.237"/>
</g>
<!-- 7 -->
<g id="node8" class="node"><title>7</title>
<ellipse fill="brown" stroke="black" cx="87.8532" cy="-153.88" rx="21.4286" ry="21.4286"/>
<text text-anchor="middle" x="87.8532" y="-148.88" font-family="Times New Roman,serif" font-size="20.00">3</text>
</g>
<!-- 0&#45;&gt;7 -->
<g id="edge5" class="edge"><title>0&#45;&gt;7</title>
<path fill="none" stroke="black" stroke-width="2" d="M53.5009,-225.613C59.5125,-213.06 67.456,-196.473 74.1902,-182.41"/>
<polygon fill="black" stroke="black" stroke-width="2" points="77.458,-183.69 78.6205,-173.159 71.1446,-180.667 77.458,-183.69"/>
</g>
<!-- 1 -->
<g id="node2" class="node"><title>1</title>
<ellipse fill="cadetblue" stroke="black" cx="195.829" cy="-192.097" rx="21.4286" ry="21.4286"/>
<text text-anchor="middle" x="195.829" y="-187.097" font-family="Times New Roman,serif" font-size="20.00">2</text>
</g>
<!-- 4 -->
<g id="node5" class="node"><title>4</title>
<ellipse fill="cadetblue" stroke="black" cx="151.208" cy="-334.285" rx="21.4286" ry="21.4286"/>
<text text-anchor="middle" x="151.208" y="-329.285" font-family="Times New Roman,serif" font-size="20.00">2</text>
</g>
<!-- 1&#45;&gt;4 -->
<g id="edge6" class="edge"><title>1&#45;&gt;4</title>
<path fill="none" stroke="black" stroke-width="2" d="M189.436,-212.469C181.881,-236.543 169.246,-276.806 160.584,-304.408"/>
<polygon fill="black" stroke="black" stroke-width="2" points="157.244,-303.361 157.589,-313.951 163.923,-305.457 157.244,-303.361"/>
</g>
<!-- 2 -->
<g id="node3" class="node"><title>2</title>
<ellipse fill="cadetblue" stroke="black" cx="54.3319" cy="-21.2132" rx="21.4286" ry="21.4286"/>
<text text-anchor="middle" x="54.3319" y="-16.2132" font-family="Times New Roman,serif" font-size="20.00">2</text>
</g>
<!-- 2&#45;&gt;7 -->
<g id="edge11" class="edge"><title>2&#45;&gt;7</title>
<path fill="none" stroke="black" stroke-width="2" d="M59.5696,-41.9423C65.1046,-63.8478 73.889,-98.6135 80.1997,-123.589"/>
<polygon fill="black" stroke="black" stroke-width="2" points="76.8091,-124.458 82.6523,-133.296 83.5959,-122.743 76.8091,-124.458"/>
</g>
<!-- 3 -->
<g id="node4" class="node"><title>3</title>
<ellipse fill="cadetblue" stroke="black" cx="147.868" cy="-243.551" rx="21.4286" ry="21.4286"/>
<text text-anchor="middle" x="147.868" y="-238.551" font-family="Times New Roman,serif" font-size="20.00">2</text>
</g>
<!-- 3&#45;&gt;0 -->
<g id="edge1" class="edge"><title>3&#45;&gt;0</title>
<path fill="none" stroke="black" stroke-width="2" d="M126.65,-243.832C112.08,-244.024 92.4808,-244.283 76.0529,-244.501"/>
<polygon fill="black" stroke="black" stroke-width="2" points="75.753,-241.004 65.8002,-244.636 75.8456,-248.004 75.753,-241.004"/>
</g>
<!-- 3&#45;&gt;4 -->
<g id="edge12" class="edge"><title>3&#45;&gt;4</title>
<path fill="none" stroke="black" stroke-width="2" d="M148.659,-265.054C149.075,-276.354 149.593,-290.415 150.053,-302.907"/>
<polygon fill="black" stroke="black" stroke-width="2" points="146.557,-303.072 150.422,-312.937 153.552,-302.815 146.557,-303.072"/>
</g>
<!-- 4&#45;&gt;0 -->
<g id="edge2" class="edge"><title>4&#45;&gt;0</title>
<path fill="none" stroke="black" stroke-width="2" d="M134.497,-320.322C116.837,-305.566 88.8093,-282.148 68.6742,-265.324"/>
<polygon fill="black" stroke="black" stroke-width="2" points="70.767,-262.512 60.8489,-258.786 66.2786,-267.884 70.767,-262.512"/>
</g>
<!-- 5&#45;&gt;1 -->
<g id="edge7" class="edge"><title>5&#45;&gt;1</title>
<path fill="none" stroke="black" stroke-width="2" d="M42.3905,-126.813C55.5722,-125.518 72.8202,-124.843 87.8545,-127.575 120.146,-133.443 151.737,-154.659 172.32,-171.18"/>
<polygon fill="black" stroke="black" stroke-width="2" points="170.241,-174.003 180.174,-177.689 174.708,-168.613 170.241,-174.003"/>
</g>
<!-- 5&#45;&gt;2 -->
<g id="edge9" class="edge"><title>5&#45;&gt;2</title>
<path fill="none" stroke="black" stroke-width="2" d="M27.4426,-109.369C32.4385,-92.9904 39.5231,-69.7637 45.1662,-51.263"/>
<polygon fill="black" stroke="black" stroke-width="2" points="48.5606,-52.1306 48.1305,-41.5445 41.8652,-50.0883 48.5606,-52.1306"/>
</g>
<!-- 5&#45;&gt;7 -->
<g id="edge16" class="edge"><title>5&#45;&gt;7</title>
<path fill="none" stroke="black" stroke-width="2" d="M41.2074,-137.019C46.6107,-138.972 52.5738,-141.128 58.379,-143.226"/>
<polygon fill="black" stroke="black" stroke-width="2" points="57.2789,-146.55 67.8731,-146.658 59.6584,-139.967 57.2789,-146.55"/>
</g>
<!-- 6&#45;&gt;2 -->
<g id="edge10" class="edge"><title>6&#45;&gt;2</title>
<path fill="none" stroke="black" stroke-width="2" d="M117.933,-87.9803C106.117,-75.5753 89.3594,-57.984 76.0118,-43.9721"/>
<polygon fill="black" stroke="black" stroke-width="2" points="78.4318,-41.4382 69.0002,-36.6116 73.3634,-46.2663 78.4318,-41.4382"/>
</g>
<!-- 6&#45;&gt;3 -->
<g id="edge13" class="edge"><title>6&#45;&gt;3</title>
<path fill="none" stroke="black" stroke-width="2" d="M134.976,-124.727C137.499,-147.974 141.564,-185.448 144.455,-212.093"/>
<polygon fill="black" stroke="black" stroke-width="2" points="140.979,-212.508 145.538,-222.072 147.939,-211.753 140.979,-212.508"/>
</g>
<!-- 6&#45;&gt;5 -->
<g id="edge15" class="edge"><title>6&#45;&gt;5</title>
<path fill="none" stroke="black" stroke-width="2" d="M111.965,-108.341C95.1028,-112.327 71.0452,-118.014 51.9361,-122.53"/>
<polygon fill="black" stroke="black" stroke-width="2" points="51.1098,-119.129 42.1831,-124.836 52.7201,-125.942 51.1098,-119.129"/>
</g>
<!-- 7&#45;&gt;1 -->
<g id="edge8" class="edge"><title>7&#45;&gt;1</title>
<path fill="none" stroke="black" stroke-width="2" d="M107.91,-160.978C124.246,-166.761 147.553,-175.01 166.065,-181.562"/>
<polygon fill="black" stroke="black" stroke-width="2" points="164.919,-184.869 175.514,-184.907 167.255,-178.271 164.919,-184.869"/>
</g>
<!-- 7&#45;&gt;3 -->
<g id="edge14" class="edge"><title>7&#45;&gt;3</title>
<path fill="none" stroke="black" stroke-width="2" d="M99.7102,-171.596C108.423,-184.614 120.407,-202.519 130.24,-217.212"/>
<polygon fill="black" stroke="black" stroke-width="2" points="127.565,-219.508 136.036,-225.872 133.382,-215.615 127.565,-219.508"/>
</g>
<!-- 7&#45;&gt;6 -->
<g id="edge17" class="edge"><title>7&#45;&gt;6</title>
<path fill="none" stroke="black" stroke-width="2" d="M102.033,-137.923C105.057,-134.519 108.314,-130.855 111.535,-127.23"/>
<polygon fill="black" stroke="black" stroke-width="2" points="114.4,-129.274 118.427,-119.474 109.168,-124.624 114.4,-129.274"/>
</g>
</g>
</svg>

