<?xml version="1.0" encoding="UTF-8" standalone="no"?>
<!DOCTYPE svg PUBLIC "-//W3C//DTD SVG 1.1//EN"
 "http://www.w3.org/Graphics/SVG/1.1/DTD/svg11.dtd">
<!-- Generated by graphviz version 2.36.0 (20140111.2315)
 -->
<!-- Title: G Pages: 1 -->
<svg width="100%" height="100%"
 viewBox="0.00 0.00 261.43 297.65" xmlns="http://www.w3.org/2000/svg" xmlns:xlink="http://www.w3.org/1999/xlink">
<g id="graph0" class="graph" transform="scale(1 1) rotate(0) translate(4 293.645)">
<title>G</title>
<!-- 0 -->
<g id="node1" class="node"><title>0</title>
<ellipse fill="cadetblue" stroke="black" cx="108.132" cy="-173.096" rx="21.4286" ry="21.4286"/>
<text text-anchor="middle" x="108.132" y="-168.096" font-family="Times New Roman,serif" font-size="20.00">2</text>
</g>
<!-- 3 -->
<g id="node4" class="node"><title>3</title>
<ellipse fill="cadetblue" stroke="black" cx="103.266" cy="-268.432" rx="21.4286" ry="21.4286"/>
<text text-anchor="middle" x="103.266" y="-263.432" font-family="Times New Roman,serif" font-size="20.00">2</text>
</g>
<!-- 0&#45;&gt;3 -->
<g id="edge1" class="edge"><title>0&#45;&gt;3</title>
<path fill="none" stroke="black" stroke-width="2" d="M107.028,-194.729C106.389,-207.25 105.573,-223.227 104.865,-237.104"/>
<polygon fill="black" stroke="black" stroke-width="2" points="101.363,-237.047 104.349,-247.213 108.354,-237.404 101.363,-237.047"/>
</g>
<!-- 5 -->
<g id="node6" class="node"><title>5</title>
<ellipse fill="cadetblue" stroke="black" cx="39.6092" cy="-85.0114" rx="21.4286" ry="21.4286"/>
<text text-anchor="middle" x="39.6092" y="-80.0114" font-family="Times New Roman,serif" font-size="20.00">2</text>
</g>
<!-- 0&#45;&gt;5 -->
<g id="edge3" class="edge"><title>0&#45;&gt;5</title>
<path fill="none" stroke="black" stroke-width="2" d="M94.9198,-156.112C84.7768,-143.074 70.615,-124.869 59.1608,-110.145"/>
<polygon fill="black" stroke="black" stroke-width="2" points="61.6832,-107.687 52.7805,-101.943 56.158,-111.985 61.6832,-107.687"/>
</g>
<!-- 7 -->
<g id="node8" class="node"><title>7</title>
<ellipse fill="brown" stroke="black" cx="148.116" cy="-122.665" rx="21.4286" ry="21.4286"/>
<text text-anchor="middle" x="148.116" y="-117.665" font-family="Times New Roman,serif" font-size="20.00">3</text>
</g>
<!-- 0&#45;&gt;7 -->
<g id="edge5" class="edge"><title>0&#45;&gt;7</title>
<path fill="none" stroke="black" stroke-width="2" d="M121.446,-156.303C123.715,-153.441 126.113,-150.416 128.505,-147.4"/>
<polygon fill="black" stroke="black" stroke-width="2" points="131.253,-149.567 134.723,-139.556 125.768,-145.218 131.253,-149.567"/>
</g>
<!-- 1 -->
<g id="node2" class="node"><title>1</title>
<ellipse fill="cadetblue" stroke="black" cx="21.2132" cy="-213.576" rx="21.4286" ry="21.4286"/>
<text text-anchor="middle" x="21.2132" y="-208.576" font-family="Times New Roman,serif" font-size="20.00">2</text>
</g>
<!-- 6 -->
<g id="node7" class="node"><title>6</title>
<ellipse fill="cadetblue" stroke="black" cx="179.777" cy="-227.149" rx="21.4286" ry="21.4286"/>
<text text-anchor="middle" x="179.777" y="-222.149" font-family="Times New Roman,serif" font-size="20.00">2</text>
</g>
<!-- 1&#45;&gt;6 -->
<g id="edge8" class="edge"><title>1&#45;&gt;6</title>
<path fill="none" stroke="black" stroke-width="2" d="M42.5979,-215.406C69.7447,-217.73 116.805,-221.759 148.118,-224.439"/>
<polygon fill="black" stroke="black" stroke-width="2" points="148.217,-227.96 158.479,-225.326 148.814,-220.986 148.217,-227.96"/>
</g>
<!-- 2 -->
<g id="node3" class="node"><title>2</title>
<ellipse fill="cadetblue" stroke="black" cx="148.67" cy="-21.2132" rx="21.4286" ry="21.4286"/>
<text text-anchor="middle" x="148.67" y="-16.2132" font-family="Times New Roman,serif" font-size="20.00">2</text>
</g>
<!-- 2&#45;&gt;5 -->
<g id="edge10" class="edge"><title>2&#45;&gt;5</title>
<path fill="none" stroke="black" stroke-width="2" d="M130.169,-32.0357C112.856,-42.1635 86.7728,-57.4218 67.0387,-68.9657"/>
<polygon fill="black" stroke="black" stroke-width="2" points="65.065,-66.0654 58.2007,-74.1358 68.5996,-72.1075 65.065,-66.0654"/>
</g>
<!-- 3&#45;&gt;1 -->
<g id="edge6" class="edge"><title>3&#45;&gt;1</title>
<path fill="none" stroke="black" stroke-width="2" d="M85.4617,-256.529C74.3868,-249.125 59.9456,-239.47 47.5602,-231.19"/>
<polygon fill="black" stroke="black" stroke-width="2" points="49.2412,-228.104 38.9827,-225.455 45.3507,-233.923 49.2412,-228.104"/>
</g>
<!-- 3&#45;&gt;7 -->
<g id="edge13" class="edge"><title>3&#45;&gt;7</title>
<path fill="none" stroke="black" stroke-width="2" d="M110.259,-248.076C116.786,-228.843 126.659,-199.142 134.436,-173.12 136.346,-166.729 138.287,-159.848 140.084,-153.286"/>
<polygon fill="black" stroke="black" stroke-width="2" points="143.538,-153.92 142.763,-143.353 136.779,-152.097 143.538,-153.92"/>
</g>
<!-- 4 -->
<g id="node5" class="node"><title>4</title>
<ellipse fill="cadetblue" stroke="black" cx="232.217" cy="-119.588" rx="21.4286" ry="21.4286"/>
<text text-anchor="middle" x="232.217" y="-114.588" font-family="Times New Roman,serif" font-size="20.00">2</text>
</g>
<!-- 4&#45;&gt;0 -->
<g id="edge2" class="edge"><title>4&#45;&gt;0</title>
<path fill="none" stroke="black" stroke-width="2" d="M212.555,-128.066C192.225,-136.833 160.265,-150.615 137.054,-160.624"/>
<polygon fill="black" stroke="black" stroke-width="2" points="135.498,-157.483 127.701,-164.657 138.27,-163.911 135.498,-157.483"/>
</g>
<!-- 4&#45;&gt;2 -->
<g id="edge9" class="edge"><title>4&#45;&gt;2</title>
<path fill="none" stroke="black" stroke-width="2" d="M218.421,-103.343C204.997,-87.5367 184.439,-63.3305 169.115,-45.2864"/>
<polygon fill="black" stroke="black" stroke-width="2" points="171.628,-42.8384 162.487,-37.4819 166.292,-47.3697 171.628,-42.8384"/>
</g>
<!-- 5&#45;&gt;1 -->
<g id="edge7" class="edge"><title>5&#45;&gt;1</title>
<path fill="none" stroke="black" stroke-width="2" d="M36.5715,-106.241C33.6157,-126.898 29.0891,-158.533 25.7149,-182.115"/>
<polygon fill="black" stroke="black" stroke-width="2" points="22.2073,-181.919 24.2554,-192.314 29.1367,-182.911 22.2073,-181.919"/>
</g>
<!-- 5&#45;&gt;7 -->
<g id="edge16" class="edge"><title>5&#45;&gt;7</title>
<path fill="none" stroke="black" stroke-width="2" d="M59.7642,-92.0054C76.2845,-97.7382 99.8986,-105.933 118.558,-112.408"/>
<polygon fill="black" stroke="black" stroke-width="2" points="117.474,-115.736 128.069,-115.708 119.769,-109.123 117.474,-115.736"/>
</g>
<!-- 6&#45;&gt;0 -->
<g id="edge4" class="edge"><title>6&#45;&gt;0</title>
<path fill="none" stroke="black" stroke-width="2" d="M162.798,-214.339C154.093,-207.772 143.312,-199.638 133.631,-192.334"/>
<polygon fill="black" stroke="black" stroke-width="2" points="135.577,-189.418 125.486,-186.189 131.361,-195.006 135.577,-189.418"/>
</g>
<!-- 6&#45;&gt;3 -->
<g id="edge12" class="edge"><title>6&#45;&gt;3</title>
<path fill="none" stroke="black" stroke-width="2" d="M160.864,-237.354C151.877,-242.203 140.957,-248.095 131.051,-253.44"/>
<polygon fill="black" stroke="black" stroke-width="2" points="129.1,-250.516 121.961,-258.345 132.424,-256.676 129.1,-250.516"/>
</g>
<!-- 6&#45;&gt;4 -->
<g id="edge14" class="edge"><title>6&#45;&gt;4</title>
<path fill="none" stroke="black" stroke-width="2" d="M189.152,-207.919C197.267,-191.274 209.116,-166.972 218.331,-148.069"/>
<polygon fill="black" stroke="black" stroke-width="2" points="221.51,-149.536 222.746,-139.014 215.218,-146.469 221.51,-149.536"/>
</g>
<!-- 7&#45;&gt;2 -->
<g id="edge11" class="edge"><title>7&#45;&gt;2</title>
<path fill="none" stroke="black" stroke-width="2" d="M148.233,-101.149C148.31,-87.1609 148.411,-68.6765 148.496,-53.0065"/>
<polygon fill="black" stroke="black" stroke-width="2" points="151.998,-52.7164 148.553,-42.6974 144.998,-52.6781 151.998,-52.7164"/>
</g>
<!-- 7&#45;&gt;4 -->
<g id="edge15" class="edge"><title>7&#45;&gt;4</title>
<path fill="none" stroke="black" stroke-width="2" d="M169.338,-121.888C178.9,-121.538 190.384,-121.118 200.906,-120.733"/>
<polygon fill="black" stroke="black" stroke-width="2" points="201.136,-124.227 211.001,-120.364 200.88,-117.232 201.136,-124.227"/>
</g>
<!-- 7&#45;&gt;6 -->
<g id="edge17" class="edge"><title>7&#45;&gt;6</title>
<path fill="none" stroke="black" stroke-width="2" d="M154.296,-143.058C158.959,-158.448 165.43,-179.801 170.683,-197.139"/>
<polygon fill="black" stroke="black" stroke-width="2" points="167.363,-198.252 173.613,-206.807 174.062,-196.222 167.363,-198.252"/>
</g>
</g>
</svg>

