<?xml version="1.0" encoding="UTF-8" standalone="no"?>
<!DOCTYPE svg PUBLIC "-//W3C//DTD SVG 1.1//EN"
 "http://www.w3.org/Graphics/SVG/1.1/DTD/svg11.dtd">
<!-- Generated by graphviz version 2.36.0 (20140111.2315)
 -->
<!-- Title: G Pages: 1 -->
<svg width="100%" height="100%"
 viewBox="0.00 0.00 189.06 226.14" xmlns="http://www.w3.org/2000/svg" xmlns:xlink="http://www.w3.org/1999/xlink">
<g id="graph0" class="graph" transform="scale(1 1) rotate(0) translate(4 222.138)">
<title>G</title>
<!-- 0 -->
<g id="node1" class="node"><title>0</title>
<ellipse fill="cadetblue" stroke="black" cx="72.2099" cy="-84.3055" rx="21.4286" ry="21.4286"/>
<text text-anchor="middle" x="72.2099" y="-79.3055" font-family="Times New Roman,serif" font-size="20.00">2</text>
</g>
<!-- 5 -->
<g id="node6" class="node"><title>5</title>
<ellipse fill="cadetblue" stroke="black" cx="21.2132" cy="-119.221" rx="21.4286" ry="21.4286"/>
<text text-anchor="middle" x="21.2132" y="-114.221" font-family="Times New Roman,serif" font-size="20.00">2</text>
</g>
<!-- 0&#45;&gt;5 -->
<g id="edge3" class="edge"><title>0&#45;&gt;5</title>
<path fill="none" stroke="black" stroke-width="2" d="M54.6597,-96.3214C52.2828,-97.9488 49.8034,-99.6463 47.3164,-101.349"/>
<polygon fill="black" stroke="black" stroke-width="2" points="45.2429,-98.5269 38.9688,-107.064 49.1975,-104.303 45.2429,-98.5269"/>
</g>
<!-- 6 -->
<g id="node7" class="node"><title>6</title>
<ellipse fill="brown" stroke="black" cx="159.844" cy="-99.5068" rx="21.4286" ry="21.4286"/>
<text text-anchor="middle" x="159.844" y="-94.5068" font-family="Times New Roman,serif" font-size="20.00">3</text>
</g>
<!-- 0&#45;&gt;6 -->
<g id="edge4" class="edge"><title>0&#45;&gt;6</title>
<path fill="none" stroke="black" stroke-width="2" d="M93.4237,-87.9853C104.08,-89.8338 117.193,-92.1085 128.945,-94.1469"/>
<polygon fill="black" stroke="black" stroke-width="2" points="128.375,-97.6002 138.826,-95.8609 129.571,-90.7032 128.375,-97.6002"/>
</g>
<!-- 7 -->
<g id="node8" class="node"><title>7</title>
<ellipse fill="brown" stroke="black" cx="109.413" cy="-136.277" rx="21.4286" ry="21.4286"/>
<text text-anchor="middle" x="109.413" y="-131.277" font-family="Times New Roman,serif" font-size="20.00">3</text>
</g>
<!-- 0&#45;&gt;7 -->
<g id="edge5" class="edge"><title>0&#45;&gt;7</title>
<path fill="none" stroke="black" stroke-width="2" d="M84.5979,-101.611C86.6469,-104.474 88.8096,-107.495 90.9694,-110.512"/>
<polygon fill="black" stroke="black" stroke-width="2" points="88.2853,-112.776 96.952,-118.87 93.9773,-108.701 88.2853,-112.776"/>
</g>
<!-- 1 -->
<g id="node2" class="node"><title>1</title>
<ellipse fill="cadetblue" stroke="black" cx="110.695" cy="-196.925" rx="21.4286" ry="21.4286"/>
<text text-anchor="middle" x="110.695" y="-191.925" font-family="Times New Roman,serif" font-size="20.00">2</text>
</g>
<!-- 1&#45;&gt;6 -->
<g id="edge8" class="edge"><title>1&#45;&gt;6</title>
<path fill="none" stroke="black" stroke-width="2" d="M120.406,-177.678C127.608,-163.401 137.54,-143.716 145.635,-127.671"/>
<polygon fill="black" stroke="black" stroke-width="2" points="148.775,-129.218 150.154,-118.714 142.525,-126.065 148.775,-129.218"/>
</g>
<!-- 1&#45;&gt;7 -->
<g id="edge9" class="edge"><title>1&#45;&gt;7</title>
<path fill="none" stroke="black" stroke-width="2" d="M110.247,-175.713C110.192,-173.143 110.136,-170.476 110.079,-167.797"/>
<polygon fill="black" stroke="black" stroke-width="2" points="113.574,-167.503 109.863,-157.579 106.576,-167.651 113.574,-167.503"/>
</g>
<!-- 2 -->
<g id="node3" class="node"><title>2</title>
<ellipse fill="cadetblue" stroke="black" cx="70.5708" cy="-21.2132" rx="21.4286" ry="21.4286"/>
<text text-anchor="middle" x="70.5708" y="-16.2132" font-family="Times New Roman,serif" font-size="20.00">2</text>
</g>
<!-- 2&#45;&gt;6 -->
<g id="edge12" class="edge"><title>2&#45;&gt;6</title>
<path fill="none" stroke="black" stroke-width="2" d="M86.5311,-35.2105C100.283,-47.2712 120.333,-64.8549 135.99,-78.5867"/>
<polygon fill="black" stroke="black" stroke-width="2" points="133.895,-81.4045 143.721,-85.3667 138.511,-76.1417 133.895,-81.4045"/>
</g>
<!-- 3 -->
<g id="node4" class="node"><title>3</title>
<ellipse fill="cadetblue" stroke="black" cx="34.9611" cy="-184.527" rx="21.4286" ry="21.4286"/>
<text text-anchor="middle" x="34.9611" y="-179.527" font-family="Times New Roman,serif" font-size="20.00">2</text>
</g>
<!-- 3&#45;&gt;0 -->
<g id="edge1" class="edge"><title>3&#45;&gt;0</title>
<path fill="none" stroke="black" stroke-width="2" d="M42.499,-164.246C47.8859,-149.752 55.2185,-130.023 61.2512,-113.791"/>
<polygon fill="black" stroke="black" stroke-width="2" points="64.6072,-114.808 64.8104,-104.215 58.0458,-112.369 64.6072,-114.808"/>
</g>
<!-- 3&#45;&gt;1 -->
<g id="edge6" class="edge"><title>3&#45;&gt;1</title>
<path fill="none" stroke="black" stroke-width="2" d="M56.0574,-187.981C63.3611,-189.176 71.708,-190.543 79.6423,-191.841"/>
<polygon fill="black" stroke="black" stroke-width="2" points="79.2783,-195.328 89.7124,-193.49 80.4092,-188.42 79.2783,-195.328"/>
</g>
<!-- 4 -->
<g id="node5" class="node"><title>4</title>
<ellipse fill="cadetblue" stroke="black" cx="146.109" cy="-35.0239" rx="21.4286" ry="21.4286"/>
<text text-anchor="middle" x="146.109" y="-30.0239" font-family="Times New Roman,serif" font-size="20.00">2</text>
</g>
<!-- 4&#45;&gt;0 -->
<g id="edge2" class="edge"><title>4&#45;&gt;0</title>
<path fill="none" stroke="black" stroke-width="2" d="M128.22,-46.9536C119.234,-52.9464 108.176,-60.3205 98.2661,-66.9291"/>
<polygon fill="black" stroke="black" stroke-width="2" points="96.3118,-64.0255 89.934,-72.4856 100.196,-69.8492 96.3118,-64.0255"/>
</g>
<!-- 4&#45;&gt;2 -->
<g id="edge10" class="edge"><title>4&#45;&gt;2</title>
<path fill="none" stroke="black" stroke-width="2" d="M125.067,-31.1768C117.782,-29.8449 109.457,-28.3228 101.544,-26.876"/>
<polygon fill="black" stroke="black" stroke-width="2" points="101.966,-23.3953 91.4995,-25.0396 100.707,-30.2811 101.966,-23.3953"/>
</g>
<!-- 5&#45;&gt;1 -->
<g id="edge7" class="edge"><title>5&#45;&gt;1</title>
<path fill="none" stroke="black" stroke-width="2" d="M37.6256,-133.473C51.3745,-145.412 71.1865,-162.616 86.7131,-176.099"/>
<polygon fill="black" stroke="black" stroke-width="2" points="84.5417,-178.849 94.3871,-182.763 89.1314,-173.564 84.5417,-178.849"/>
</g>
<!-- 5&#45;&gt;2 -->
<g id="edge11" class="edge"><title>5&#45;&gt;2</title>
<path fill="none" stroke="black" stroke-width="2" d="M30.9647,-99.8578C38.2451,-85.4013 48.3017,-65.4322 56.4593,-49.234"/>
<polygon fill="black" stroke="black" stroke-width="2" points="59.6356,-50.7083 61.0076,-40.2027 53.3836,-47.5597 59.6356,-50.7083"/>
</g>
<!-- 5&#45;&gt;3 -->
<g id="edge13" class="edge"><title>5&#45;&gt;3</title>
<path fill="none" stroke="black" stroke-width="2" d="M25.6388,-140.244C26.5464,-144.555 27.5195,-149.178 28.4822,-153.751"/>
<polygon fill="black" stroke="black" stroke-width="2" points="25.0588,-154.479 30.5438,-163.544 31.9087,-153.037 25.0588,-154.479"/>
</g>
<!-- 6&#45;&gt;4 -->
<g id="edge15" class="edge"><title>6&#45;&gt;4</title>
<path fill="none" stroke="black" stroke-width="2" d="M155.423,-78.7491C154.558,-74.69 153.634,-70.3515 152.716,-66.0423"/>
<polygon fill="black" stroke="black" stroke-width="2" points="156.123,-65.2368 150.616,-56.1854 149.277,-66.6952 156.123,-65.2368"/>
</g>
<!-- 6&#45;&gt;7 -->
<g id="edge18" class="edge"><title>6&#45;&gt;7</title>
<path fill="none" stroke="black" stroke-width="2" d="M142.489,-112.161C140.004,-113.972 137.407,-115.866 134.807,-117.762"/>
<polygon fill="black" stroke="black" stroke-width="2" points="132.648,-115.005 126.63,-123.724 136.772,-120.661 132.648,-115.005"/>
</g>
<!-- 7&#45;&gt;3 -->
<g id="edge14" class="edge"><title>7&#45;&gt;3</title>
<path fill="none" stroke="black" stroke-width="2" d="M91.3901,-147.957C82.3365,-153.825 71.1961,-161.044 61.2122,-167.515"/>
<polygon fill="black" stroke="black" stroke-width="2" points="59.3062,-164.579 52.8178,-172.955 63.1132,-170.453 59.3062,-164.579"/>
</g>
<!-- 7&#45;&gt;4 -->
<g id="edge16" class="edge"><title>7&#45;&gt;4</title>
<path fill="none" stroke="black" stroke-width="2" d="M116.663,-116.273C121.99,-101.573 129.317,-81.3551 135.33,-64.7655"/>
<polygon fill="black" stroke="black" stroke-width="2" points="138.757,-65.5809 138.874,-54.9867 132.176,-63.1957 138.757,-65.5809"/>
</g>
<!-- 7&#45;&gt;5 -->
<g id="edge17" class="edge"><title>7&#45;&gt;5</title>
<path fill="none" stroke="black" stroke-width="2" d="M88.5107,-132.235C77.7152,-130.147 64.3269,-127.558 52.3417,-125.241"/>
<polygon fill="black" stroke="black" stroke-width="2" points="52.7535,-121.756 42.2709,-123.293 51.4244,-128.628 52.7535,-121.756"/>
</g>
</g>
</svg>

