<?xml version="1.0" encoding="UTF-8" standalone="no"?>
<!DOCTYPE svg PUBLIC "-//W3C//DTD SVG 1.1//EN"
 "http://www.w3.org/Graphics/SVG/1.1/DTD/svg11.dtd">
<!-- Generated by graphviz version 2.36.0 (20140111.2315)
 -->
<!-- Title: G Pages: 1 -->
<svg width="100%" height="100%"
 viewBox="0.00 0.00 223.30 217.65" xmlns="http://www.w3.org/2000/svg" xmlns:xlink="http://www.w3.org/1999/xlink">
<g id="graph0" class="graph" transform="scale(1 1) rotate(0) translate(4 213.645)">
<title>G</title>
<!-- 0 -->
<g id="node1" class="node"><title>0</title>
<ellipse fill="cadetblue" stroke="black" cx="21.2132" cy="-87.6705" rx="21.4286" ry="21.4286"/>
<text text-anchor="middle" x="21.2132" y="-82.6705" font-family="Times New Roman,serif" font-size="20.00">2</text>
</g>
<!-- 5 -->
<g id="node6" class="node"><title>5</title>
<ellipse fill="cadetblue" stroke="black" cx="39.6135" cy="-162.911" rx="21.4286" ry="21.4286"/>
<text text-anchor="middle" x="39.6135" y="-157.911" font-family="Times New Roman,serif" font-size="20.00">2</text>
</g>
<!-- 0&#45;&gt;5 -->
<g id="edge3" class="edge"><title>0&#45;&gt;5</title>
<path fill="none" stroke="black" stroke-width="2" d="M26.3387,-108.629C28.1332,-115.967 30.1868,-124.364 32.1338,-132.326"/>
<polygon fill="black" stroke="black" stroke-width="2" points="28.7401,-133.183 34.5155,-142.065 35.5397,-131.52 28.7401,-133.183"/>
</g>
<!-- 6 -->
<g id="node7" class="node"><title>6</title>
<ellipse fill="cadetblue" stroke="black" cx="90.045" cy="-115.642" rx="21.4286" ry="21.4286"/>
<text text-anchor="middle" x="90.045" y="-110.642" font-family="Times New Roman,serif" font-size="20.00">2</text>
</g>
<!-- 0&#45;&gt;6 -->
<g id="edge4" class="edge"><title>0&#45;&gt;6</title>
<path fill="none" stroke="black" stroke-width="2" d="M41.1222,-95.7609C47.2044,-98.2325 54.0265,-101.005 60.6013,-103.677"/>
<polygon fill="black" stroke="black" stroke-width="2" points="59.3603,-106.95 69.9422,-107.472 61.9956,-100.465 59.3603,-106.95"/>
</g>
<!-- 1 -->
<g id="node2" class="node"><title>1</title>
<ellipse fill="cadetblue" stroke="black" cx="171.339" cy="-145.126" rx="21.4286" ry="21.4286"/>
<text text-anchor="middle" x="171.339" y="-140.126" font-family="Times New Roman,serif" font-size="20.00">2</text>
</g>
<!-- 1&#45;&gt;6 -->
<g id="edge7" class="edge"><title>1&#45;&gt;6</title>
<path fill="none" stroke="black" stroke-width="2" d="M151.244,-137.838C141.766,-134.4 130.265,-130.229 119.803,-126.434"/>
<polygon fill="black" stroke="black" stroke-width="2" points="120.785,-123.068 110.191,-122.948 118.398,-129.648 120.785,-123.068"/>
</g>
<!-- 7 -->
<g id="node8" class="node"><title>7</title>
<ellipse fill="cadetblue" stroke="black" cx="194.092" cy="-78.6823" rx="21.4286" ry="21.4286"/>
<text text-anchor="middle" x="194.092" y="-73.6823" font-family="Times New Roman,serif" font-size="20.00">2</text>
</g>
<!-- 1&#45;&gt;7 -->
<g id="edge8" class="edge"><title>1&#45;&gt;7</title>
<path fill="none" stroke="black" stroke-width="2" d="M178.289,-124.83C180.053,-119.678 181.986,-114.034 183.875,-108.517"/>
<polygon fill="black" stroke="black" stroke-width="2" points="187.255,-109.449 187.184,-98.8543 180.633,-107.181 187.255,-109.449"/>
</g>
<!-- 2 -->
<g id="node3" class="node"><title>2</title>
<ellipse fill="cadetblue" stroke="black" cx="73.8952" cy="-32.2881" rx="21.4286" ry="21.4286"/>
<text text-anchor="middle" x="73.8952" y="-27.2881" font-family="Times New Roman,serif" font-size="20.00">2</text>
</g>
<!-- 4 -->
<g id="node5" class="node"><title>4</title>
<ellipse fill="cadetblue" stroke="black" cx="142.471" cy="-21.2132" rx="21.4286" ry="21.4286"/>
<text text-anchor="middle" x="142.471" y="-16.2132" font-family="Times New Roman,serif" font-size="20.00">2</text>
</g>
<!-- 2&#45;&gt;4 -->
<g id="edge9" class="edge"><title>2&#45;&gt;4</title>
<path fill="none" stroke="black" stroke-width="2" d="M94.8428,-28.9051C99.9313,-28.0833 105.484,-27.1865 110.943,-26.3049"/>
<polygon fill="black" stroke="black" stroke-width="2" points="111.864,-29.7016 121.178,-24.6519 110.748,-22.7911 111.864,-29.7016"/>
</g>
<!-- 2&#45;&gt;7 -->
<g id="edge12" class="edge"><title>2&#45;&gt;7</title>
<path fill="none" stroke="black" stroke-width="2" d="M93.7432,-39.9492C113.056,-47.4036 142.632,-58.8194 164.678,-67.3291"/>
<polygon fill="black" stroke="black" stroke-width="2" points="163.625,-70.6741 174.214,-71.0098 166.145,-64.1436 163.625,-70.6741"/>
</g>
<!-- 3 -->
<g id="node4" class="node"><title>3</title>
<ellipse fill="cadetblue" stroke="black" cx="112.213" cy="-188.432" rx="21.4286" ry="21.4286"/>
<text text-anchor="middle" x="112.213" y="-183.432" font-family="Times New Roman,serif" font-size="20.00">2</text>
</g>
<!-- 3&#45;&gt;0 -->
<g id="edge1" class="edge"><title>3&#45;&gt;0</title>
<path fill="none" stroke="black" stroke-width="2" d="M97.9943,-172.688C83.123,-156.221 59.6106,-130.187 42.5199,-111.263"/>
<polygon fill="black" stroke="black" stroke-width="2" points="44.9324,-108.712 35.6324,-103.636 39.7374,-113.404 44.9324,-108.712"/>
</g>
<!-- 3&#45;&gt;5 -->
<g id="edge13" class="edge"><title>3&#45;&gt;5</title>
<path fill="none" stroke="black" stroke-width="2" d="M91.99,-181.323C84.9886,-178.862 76.9871,-176.049 69.3814,-173.375"/>
<polygon fill="black" stroke="black" stroke-width="2" points="70.3229,-169.996 59.7281,-169.982 68.0014,-176.6 70.3229,-169.996"/>
</g>
<!-- 4&#45;&gt;0 -->
<g id="edge2" class="edge"><title>4&#45;&gt;0</title>
<path fill="none" stroke="black" stroke-width="2" d="M124.101,-32.4815C114.715,-38.1481 103.065,-45.0416 92.4678,-50.9155 78.4587,-58.6803 62.647,-66.8908 49.4837,-73.5775"/>
<polygon fill="black" stroke="black" stroke-width="2" points="47.7793,-70.5171 40.4305,-78.1489 50.9346,-76.7657 47.7793,-70.5171"/>
</g>
<!-- 4&#45;&gt;1 -->
<g id="edge5" class="edge"><title>4&#45;&gt;1</title>
<path fill="none" stroke="black" stroke-width="2" d="M147.303,-41.9534C151.924,-61.7891 158.948,-91.9401 164.212,-114.533"/>
<polygon fill="black" stroke="black" stroke-width="2" points="160.813,-115.373 166.491,-124.318 167.631,-113.785 160.813,-115.373"/>
</g>
<!-- 5&#45;&gt;1 -->
<g id="edge6" class="edge"><title>5&#45;&gt;1</title>
<path fill="none" stroke="black" stroke-width="2" d="M60.7774,-160.054C82.1901,-157.163 115.537,-152.66 140.012,-149.356"/>
<polygon fill="black" stroke="black" stroke-width="2" points="140.785,-152.783 150.227,-147.976 139.849,-145.846 140.785,-152.783"/>
</g>
<!-- 5&#45;&gt;2 -->
<g id="edge10" class="edge"><title>5&#45;&gt;2</title>
<path fill="none" stroke="black" stroke-width="2" d="M45.0455,-142.214C50.6623,-120.812 59.4921,-87.1679 65.9047,-62.7341"/>
<polygon fill="black" stroke="black" stroke-width="2" points="69.3354,-63.4498 68.4886,-52.8889 62.5646,-61.6728 69.3354,-63.4498"/>
</g>
<!-- 6&#45;&gt;2 -->
<g id="edge11" class="edge"><title>6&#45;&gt;2</title>
<path fill="none" stroke="black" stroke-width="2" d="M85.9697,-94.608C84.1336,-85.1311 81.9283,-73.7492 79.9077,-63.3203"/>
<polygon fill="black" stroke="black" stroke-width="2" points="83.3075,-62.4666 77.9692,-53.315 76.4353,-63.7982 83.3075,-62.4666"/>
</g>
<!-- 6&#45;&gt;3 -->
<g id="edge14" class="edge"><title>6&#45;&gt;3</title>
<path fill="none" stroke="black" stroke-width="2" d="M96.3381,-136.306C98.415,-143.125 100.77,-150.857 103.018,-158.239"/>
<polygon fill="black" stroke="black" stroke-width="2" points="99.7192,-159.422 105.981,-167.968 106.416,-157.382 99.7192,-159.422"/>
</g>
<!-- 7&#45;&gt;3 -->
<g id="edge15" class="edge"><title>7&#45;&gt;3</title>
<path fill="none" stroke="black" stroke-width="2" d="M179.4,-94.5994C171.256,-103.685 161.125,-115.431 152.806,-126.458 144.372,-137.639 135.769,-150.521 128.666,-161.634"/>
<polygon fill="black" stroke="black" stroke-width="2" points="125.7,-159.776 123.323,-170.101 131.62,-163.512 125.7,-159.776"/>
</g>
<!-- 7&#45;&gt;4 -->
<g id="edge16" class="edge"><title>7&#45;&gt;4</title>
<path fill="none" stroke="black" stroke-width="2" d="M179.712,-62.6739C174.79,-57.1939 169.173,-50.9401 163.819,-44.9802"/>
<polygon fill="black" stroke="black" stroke-width="2" points="166.059,-42.2364 156.773,-37.1357 160.852,-46.914 166.059,-42.2364"/>
</g>
</g>
</svg>

