<?xml version="1.0" encoding="UTF-8" standalone="no"?>
<!DOCTYPE svg PUBLIC "-//W3C//DTD SVG 1.1//EN"
 "http://www.w3.org/Graphics/SVG/1.1/DTD/svg11.dtd">
<!-- Generated by graphviz version 2.36.0 (20140111.2315)
 -->
<!-- Title: G Pages: 1 -->
<svg width="100%" height="100%"
 viewBox="0.00 0.00 301.67 297.88" xmlns="http://www.w3.org/2000/svg" xmlns:xlink="http://www.w3.org/1999/xlink">
<g id="graph0" class="graph" transform="scale(1 1) rotate(0) translate(4 293.881)">
<title>G</title>
<!-- 0 -->
<g id="node1" class="node"><title>0</title>
<ellipse fill="cadetblue" stroke="black" cx="123.181" cy="-21.2132" rx="21.4286" ry="21.4286"/>
<text text-anchor="middle" x="123.181" y="-16.2132" font-family="Times New Roman,serif" font-size="20.00">2</text>
</g>
<!-- 6 -->
<g id="node7" class="node"><title>6</title>
<ellipse fill="brown" stroke="black" cx="227.454" cy="-62.7804" rx="21.4286" ry="21.4286"/>
<text text-anchor="middle" x="227.454" y="-57.7804" font-family="Times New Roman,serif" font-size="20.00">3</text>
</g>
<!-- 0&#45;&gt;6 -->
<g id="edge3" class="edge"><title>0&#45;&gt;6</title>
<path fill="none" stroke="black" stroke-width="2" d="M143.286,-29.2278C158.721,-35.3808 180.271,-43.9716 197.701,-50.9199"/>
<polygon fill="black" stroke="black" stroke-width="2" points="196.825,-54.3385 207.411,-54.7904 199.418,-47.8362 196.825,-54.3385"/>
</g>
<!-- 7 -->
<g id="node8" class="node"><title>7</title>
<ellipse fill="cadetblue" stroke="black" cx="143.277" cy="-122.342" rx="21.4286" ry="21.4286"/>
<text text-anchor="middle" x="143.277" y="-117.342" font-family="Times New Roman,serif" font-size="20.00">2</text>
</g>
<!-- 0&#45;&gt;7 -->
<g id="edge4" class="edge"><title>0&#45;&gt;7</title>
<path fill="none" stroke="black" stroke-width="2" d="M127.345,-42.1671C130.174,-56.4045 133.964,-75.4779 137.138,-91.4491"/>
<polygon fill="black" stroke="black" stroke-width="2" points="133.736,-92.2885 139.118,-101.415 140.602,-90.9241 133.736,-92.2885"/>
</g>
<!-- 1 -->
<g id="node2" class="node"><title>1</title>
<ellipse fill="cadetblue" stroke="black" cx="190.967" cy="-212.156" rx="21.4286" ry="21.4286"/>
<text text-anchor="middle" x="190.967" y="-207.156" font-family="Times New Roman,serif" font-size="20.00">2</text>
</g>
<!-- 5 -->
<g id="node6" class="node"><title>5</title>
<ellipse fill="cadetblue" stroke="black" cx="92.4895" cy="-268.668" rx="21.4286" ry="21.4286"/>
<text text-anchor="middle" x="92.4895" y="-263.668" font-family="Times New Roman,serif" font-size="20.00">2</text>
</g>
<!-- 1&#45;&gt;5 -->
<g id="edge6" class="edge"><title>1&#45;&gt;5</title>
<path fill="none" stroke="black" stroke-width="2" d="M172.444,-222.785C157.589,-231.31 136.523,-243.399 119.744,-253.028"/>
<polygon fill="black" stroke="black" stroke-width="2" points="117.861,-250.073 110.929,-258.086 121.345,-256.144 117.861,-250.073"/>
</g>
<!-- 1&#45;&gt;7 -->
<g id="edge8" class="edge"><title>1&#45;&gt;7</title>
<path fill="none" stroke="black" stroke-width="2" d="M180.853,-193.108C174.277,-180.724 165.588,-164.36 158.222,-150.488"/>
<polygon fill="black" stroke="black" stroke-width="2" points="161.157,-148.552 153.376,-141.361 154.975,-151.835 161.157,-148.552"/>
</g>
<!-- 2 -->
<g id="node3" class="node"><title>2</title>
<ellipse fill="cadetblue" stroke="black" cx="247.19" cy="-218.016" rx="21.4286" ry="21.4286"/>
<text text-anchor="middle" x="247.19" y="-213.016" font-family="Times New Roman,serif" font-size="20.00">2</text>
</g>
<!-- 2&#45;&gt;5 -->
<g id="edge10" class="edge"><title>2&#45;&gt;5</title>
<path fill="none" stroke="black" stroke-width="2" d="M227.206,-225.548C216.479,-229.52 203.003,-234.398 190.871,-238.46 168.179,-246.057 142.304,-253.973 122.786,-259.795"/>
<polygon fill="black" stroke="black" stroke-width="2" points="121.526,-256.518 112.934,-262.717 123.517,-263.229 121.526,-256.518"/>
</g>
<!-- 2&#45;&gt;6 -->
<g id="edge11" class="edge"><title>2&#45;&gt;6</title>
<path fill="none" stroke="black" stroke-width="2" d="M244.487,-196.757C241.125,-170.313 235.356,-124.935 231.475,-94.4051"/>
<polygon fill="black" stroke="black" stroke-width="2" points="234.921,-93.7598 230.187,-84.2811 227.977,-94.6427 234.921,-93.7598"/>
</g>
<!-- 3 -->
<g id="node4" class="node"><title>3</title>
<ellipse fill="cadetblue" stroke="black" cx="21.2132" cy="-133.865" rx="21.4286" ry="21.4286"/>
<text text-anchor="middle" x="21.2132" y="-128.865" font-family="Times New Roman,serif" font-size="20.00">2</text>
</g>
<!-- 3&#45;&gt;0 -->
<g id="edge1" class="edge"><title>3&#45;&gt;0</title>
<path fill="none" stroke="black" stroke-width="2" d="M35.8226,-117.725C53.1846,-98.5435 82.2894,-66.3891 102.091,-44.5122"/>
<polygon fill="black" stroke="black" stroke-width="2" points="104.811,-46.723 108.927,-36.9603 99.6214,-42.0255 104.811,-46.723"/>
</g>
<!-- 4 -->
<g id="node5" class="node"><title>4</title>
<ellipse fill="cadetblue" stroke="black" cx="272.453" cy="-113.212" rx="21.4286" ry="21.4286"/>
<text text-anchor="middle" x="272.453" y="-108.212" font-family="Times New Roman,serif" font-size="20.00">2</text>
</g>
<!-- 4&#45;&gt;0 -->
<g id="edge2" class="edge"><title>4&#45;&gt;0</title>
<path fill="none" stroke="black" stroke-width="2" d="M253.129,-104.452C240.31,-98.4211 223.256,-89.9693 208.832,-81.3582 187.708,-68.7476 164.969,-52.6518 148.233,-40.2851"/>
<polygon fill="black" stroke="black" stroke-width="2" points="150.177,-37.3689 140.068,-34.1962 145.992,-42.9802 150.177,-37.3689"/>
</g>
<!-- 4&#45;&gt;1 -->
<g id="edge5" class="edge"><title>4&#45;&gt;1</title>
<path fill="none" stroke="black" stroke-width="2" d="M258.63,-129.996C245.557,-145.87 225.791,-169.87 210.993,-187.839"/>
<polygon fill="black" stroke="black" stroke-width="2" points="208.241,-185.675 204.586,-195.619 213.645,-190.125 208.241,-185.675"/>
</g>
<!-- 4&#45;&gt;2 -->
<g id="edge9" class="edge"><title>4&#45;&gt;2</title>
<path fill="none" stroke="black" stroke-width="2" d="M267.462,-133.918C263.794,-149.133 258.75,-170.06 254.611,-187.231"/>
<polygon fill="black" stroke="black" stroke-width="2" points="251.112,-186.811 252.171,-197.353 257.917,-188.452 251.112,-186.811"/>
</g>
<!-- 5&#45;&gt;3 -->
<g id="edge13" class="edge"><title>5&#45;&gt;3</title>
<path fill="none" stroke="black" stroke-width="2" d="M82.4285,-249.64C70.33,-226.758 49.9194,-188.156 36.0213,-161.871"/>
<polygon fill="black" stroke="black" stroke-width="2" points="38.9914,-160 31.223,-152.796 32.8032,-163.272 38.9914,-160"/>
</g>
<!-- 6&#45;&gt;1 -->
<g id="edge7" class="edge"><title>6&#45;&gt;1</title>
<path fill="none" stroke="black" stroke-width="2" d="M222.38,-83.5503C216.207,-108.825 205.725,-151.738 198.581,-180.982"/>
<polygon fill="black" stroke="black" stroke-width="2" points="195.088,-180.536 196.115,-191.08 201.888,-182.197 195.088,-180.536"/>
</g>
<!-- 6&#45;&gt;4 -->
<g id="edge15" class="edge"><title>6&#45;&gt;4</title>
<path fill="none" stroke="black" stroke-width="2" d="M241.692,-78.7372C244.811,-82.2325 248.176,-86.0035 251.495,-89.724"/>
<polygon fill="black" stroke="black" stroke-width="2" points="248.884,-92.0544 258.153,-97.1857 254.107,-87.3939 248.884,-92.0544"/>
</g>
<!-- 7&#45;&gt;2 -->
<g id="edge12" class="edge"><title>7&#45;&gt;2</title>
<path fill="none" stroke="black" stroke-width="2" d="M159.059,-136.872C176.301,-152.748 204.095,-178.338 223.857,-196.533"/>
<polygon fill="black" stroke="black" stroke-width="2" points="221.532,-199.15 231.259,-203.348 226.273,-194 221.532,-199.15"/>
</g>
<!-- 7&#45;&gt;3 -->
<g id="edge14" class="edge"><title>7&#45;&gt;3</title>
<path fill="none" stroke="black" stroke-width="2" d="M122.015,-124.349C102.879,-126.155 74.5039,-128.834 52.7302,-130.89"/>
<polygon fill="black" stroke="black" stroke-width="2" points="52.2677,-127.418 42.641,-131.842 52.9257,-134.387 52.2677,-127.418"/>
</g>
<!-- 7&#45;&gt;4 -->
<g id="edge16" class="edge"><title>7&#45;&gt;4</title>
<path fill="none" stroke="black" stroke-width="2" d="M164.608,-120.834C185.363,-119.367 217.149,-117.121 240.842,-115.446"/>
<polygon fill="black" stroke="black" stroke-width="2" points="241.362,-118.918 251.091,-114.722 240.869,-111.935 241.362,-118.918"/>
</g>
<!-- 7&#45;&gt;6 -->
<g id="edge17" class="edge"><title>7&#45;&gt;6</title>
<path fill="none" stroke="black" stroke-width="2" d="M160.718,-110C172.569,-101.615 188.446,-90.3815 201.74,-80.975"/>
<polygon fill="black" stroke="black" stroke-width="2" points="203.893,-83.7389 210.035,-75.1057 199.85,-78.0246 203.893,-83.7389"/>
</g>
</g>
</svg>

