<?xml version="1.0" encoding="UTF-8" standalone="no"?>
<!DOCTYPE svg PUBLIC "-//W3C//DTD SVG 1.1//EN"
 "http://www.w3.org/Graphics/SVG/1.1/DTD/svg11.dtd">
<!-- Generated by graphviz version 2.36.0 (20140111.2315)
 -->
<!-- Title: G Pages: 1 -->
<svg width="100%" height="100%"
 viewBox="0.00 0.00 337.08 311.26" xmlns="http://www.w3.org/2000/svg" xmlns:xlink="http://www.w3.org/1999/xlink">
<g id="graph0" class="graph" transform="scale(1 1) rotate(0) translate(4 307.261)">
<title>G</title>
<!-- 0 -->
<g id="node1" class="node"><title>0</title>
<ellipse fill="cadetblue" stroke="black" cx="179.796" cy="-236.518" rx="21.4286" ry="21.4286"/>
<text text-anchor="middle" x="179.796" y="-231.518" font-family="Times New Roman,serif" font-size="20.00">2</text>
</g>
<!-- 3 -->
<g id="node4" class="node"><title>3</title>
<ellipse fill="brown" stroke="black" cx="21.2132" cy="-209.03" rx="21.4286" ry="21.4286"/>
<text text-anchor="middle" x="21.2132" y="-204.03" font-family="Times New Roman,serif" font-size="20.00">3</text>
</g>
<!-- 0&#45;&gt;3 -->
<g id="edge1" class="edge"><title>0&#45;&gt;3</title>
<path fill="none" stroke="black" stroke-width="2" d="M158.738,-232.868C131.487,-228.144 83.7848,-219.876 52.3447,-214.426"/>
<polygon fill="black" stroke="black" stroke-width="2" points="52.8098,-210.955 42.3589,-212.696 51.6142,-217.852 52.8098,-210.955"/>
</g>
<!-- 5 -->
<g id="node6" class="node"><title>5</title>
<ellipse fill="cadetblue" stroke="black" cx="98.5311" cy="-132.756" rx="21.4286" ry="21.4286"/>
<text text-anchor="middle" x="98.5311" y="-127.756" font-family="Times New Roman,serif" font-size="20.00">2</text>
</g>
<!-- 0&#45;&gt;5 -->
<g id="edge3" class="edge"><title>0&#45;&gt;5</title>
<path fill="none" stroke="black" stroke-width="2" d="M166.377,-219.384C153.182,-202.536 132.902,-176.641 117.949,-157.549"/>
<polygon fill="black" stroke="black" stroke-width="2" points="120.622,-155.286 111.701,-149.571 115.111,-159.602 120.622,-155.286"/>
</g>
<!-- 6 -->
<g id="node7" class="node"><title>6</title>
<ellipse fill="cadetblue" stroke="black" cx="148.963" cy="-142.694" rx="21.4286" ry="21.4286"/>
<text text-anchor="middle" x="148.963" y="-137.694" font-family="Times New Roman,serif" font-size="20.00">2</text>
</g>
<!-- 0&#45;&gt;6 -->
<g id="edge4" class="edge"><title>0&#45;&gt;6</title>
<path fill="none" stroke="black" stroke-width="2" d="M173.106,-216.159C168.944,-203.496 163.517,-186.983 158.863,-172.821"/>
<polygon fill="black" stroke="black" stroke-width="2" points="162.087,-171.42 155.64,-163.013 155.437,-173.606 162.087,-171.42"/>
</g>
<!-- 1 -->
<g id="node2" class="node"><title>1</title>
<ellipse fill="cadetblue" stroke="black" cx="247.775" cy="-230.353" rx="21.4286" ry="21.4286"/>
<text text-anchor="middle" x="247.775" y="-225.353" font-family="Times New Roman,serif" font-size="20.00">2</text>
</g>
<!-- 4 -->
<g id="node5" class="node"><title>4</title>
<ellipse fill="cadetblue" stroke="black" cx="307.87" cy="-124.815" rx="21.4286" ry="21.4286"/>
<text text-anchor="middle" x="307.87" y="-119.815" font-family="Times New Roman,serif" font-size="20.00">2</text>
</g>
<!-- 1&#45;&gt;4 -->
<g id="edge6" class="edge"><title>1&#45;&gt;4</title>
<path fill="none" stroke="black" stroke-width="2" d="M258.519,-211.485C267.876,-195.051 281.565,-171.011 292.154,-152.415"/>
<polygon fill="black" stroke="black" stroke-width="2" points="295.313,-153.941 297.219,-143.52 289.23,-150.478 295.313,-153.941"/>
</g>
<!-- 7 -->
<g id="node8" class="node"><title>7</title>
<ellipse fill="cadetblue" stroke="black" cx="103.911" cy="-282.048" rx="21.4286" ry="21.4286"/>
<text text-anchor="middle" x="103.911" y="-277.048" font-family="Times New Roman,serif" font-size="20.00">2</text>
</g>
<!-- 1&#45;&gt;7 -->
<g id="edge9" class="edge"><title>1&#45;&gt;7</title>
<path fill="none" stroke="black" stroke-width="2" d="M228.697,-240.333C219.594,-244.99 208.503,-250.511 198.379,-255.135 190.24,-258.852 188.266,-260.007 179.772,-262.822 165.179,-267.658 148.664,-271.975 134.779,-275.288"/>
<polygon fill="black" stroke="black" stroke-width="2" points="133.698,-271.945 124.749,-277.616 135.281,-278.764 133.698,-271.945"/>
</g>
<!-- 2 -->
<g id="node3" class="node"><title>2</title>
<ellipse fill="cadetblue" stroke="black" cx="199.298" cy="-21.2132" rx="21.4286" ry="21.4286"/>
<text text-anchor="middle" x="199.298" y="-16.2132" font-family="Times New Roman,serif" font-size="20.00">2</text>
</g>
<!-- 2&#45;&gt;4 -->
<g id="edge10" class="edge"><title>2&#45;&gt;4</title>
<path fill="none" stroke="black" stroke-width="2" d="M214.854,-36.0568C233.236,-53.5973 263.981,-82.9344 285.057,-103.046"/>
<polygon fill="black" stroke="black" stroke-width="2" points="282.692,-105.627 292.343,-109.999 287.525,-100.563 282.692,-105.627"/>
</g>
<!-- 3&#45;&gt;5 -->
<g id="edge13" class="edge"><title>3&#45;&gt;5</title>
<path fill="none" stroke="black" stroke-width="2" d="M36.4887,-193.961C47.7139,-182.887 63.1522,-167.657 75.8202,-155.16"/>
<polygon fill="black" stroke="black" stroke-width="2" points="78.6264,-157.308 83.2873,-147.794 73.7103,-152.325 78.6264,-157.308"/>
</g>
<!-- 4&#45;&gt;0 -->
<g id="edge2" class="edge"><title>4&#45;&gt;0</title>
<path fill="none" stroke="black" stroke-width="2" d="M291.649,-138.962C269.42,-158.35 229.329,-193.316 203.669,-215.697"/>
<polygon fill="black" stroke="black" stroke-width="2" points="201.121,-213.275 195.885,-222.485 205.722,-218.55 201.121,-213.275"/>
</g>
<!-- 5&#45;&gt;1 -->
<g id="edge7" class="edge"><title>5&#45;&gt;1</title>
<path fill="none" stroke="black" stroke-width="2" d="M113.863,-147.618C118.929,-152.22 124.712,-157.158 130.34,-161.272 159.335,-182.47 195.249,-202.825 219.673,-215.879"/>
<polygon fill="black" stroke="black" stroke-width="2" points="218.273,-219.098 228.75,-220.677 221.544,-212.909 218.273,-219.098"/>
</g>
<!-- 5&#45;&gt;2 -->
<g id="edge11" class="edge"><title>5&#45;&gt;2</title>
<path fill="none" stroke="black" stroke-width="2" d="M112.969,-116.774C130.029,-97.8894 158.564,-66.3036 178.125,-44.6509"/>
<polygon fill="black" stroke="black" stroke-width="2" points="180.781,-46.9316 184.888,-37.1649 175.587,-42.239 180.781,-46.9316"/>
</g>
<!-- 5&#45;&gt;7 -->
<g id="edge16" class="edge"><title>5&#45;&gt;7</title>
<path fill="none" stroke="black" stroke-width="2" d="M99.3019,-154.146C100.213,-179.422 101.736,-221.697 102.781,-250.678"/>
<polygon fill="black" stroke="black" stroke-width="2" points="99.2838,-250.83 103.142,-260.698 106.279,-250.578 99.2838,-250.83"/>
</g>
<!-- 6&#45;&gt;1 -->
<g id="edge8" class="edge"><title>6&#45;&gt;1</title>
<path fill="none" stroke="black" stroke-width="2" d="M164.838,-156.778C180.734,-170.88 205.398,-192.759 223.702,-208.997"/>
<polygon fill="black" stroke="black" stroke-width="2" points="221.807,-211.995 231.61,-216.013 226.452,-206.758 221.807,-211.995"/>
</g>
<!-- 6&#45;&gt;2 -->
<g id="edge12" class="edge"><title>6&#45;&gt;2</title>
<path fill="none" stroke="black" stroke-width="2" d="M157.162,-122.906C165.316,-103.228 177.917,-72.8158 187.216,-50.3726"/>
<polygon fill="black" stroke="black" stroke-width="2" points="190.508,-51.5713 191.103,-40.9932 184.041,-48.8917 190.508,-51.5713"/>
</g>
<!-- 6&#45;&gt;3 -->
<g id="edge14" class="edge"><title>6&#45;&gt;3</title>
<path fill="none" stroke="black" stroke-width="2" d="M130.113,-152.483C108.79,-163.555 73.8475,-181.699 49.3071,-194.442"/>
<polygon fill="black" stroke="black" stroke-width="2" points="47.4023,-191.487 40.1404,-199.202 50.6282,-197.7 47.4023,-191.487"/>
</g>
<!-- 7&#45;&gt;0 -->
<g id="edge5" class="edge"><title>7&#45;&gt;0</title>
<path fill="none" stroke="black" stroke-width="2" d="M122.281,-271.026C131.416,-265.546 142.635,-258.814 152.731,-252.757"/>
<polygon fill="black" stroke="black" stroke-width="2" points="154.822,-255.584 161.596,-247.438 151.22,-249.582 154.822,-255.584"/>
</g>
<!-- 7&#45;&gt;3 -->
<g id="edge15" class="edge"><title>7&#45;&gt;3</title>
<path fill="none" stroke="black" stroke-width="2" d="M87.9662,-267.969C75.8032,-257.23 58.8522,-242.263 45.0758,-230.1"/>
<polygon fill="black" stroke="black" stroke-width="2" points="47.2042,-227.31 37.3914,-223.315 42.5711,-232.557 47.2042,-227.31"/>
</g>
<!-- 7&#45;&gt;6 -->
<g id="edge17" class="edge"><title>7&#45;&gt;6</title>
<path fill="none" stroke="black" stroke-width="2" d="M110.462,-261.785C118.036,-238.357 130.574,-199.575 139.275,-172.66"/>
<polygon fill="black" stroke="black" stroke-width="2" points="142.658,-173.574 142.404,-162.982 135.997,-171.421 142.658,-173.574"/>
</g>
</g>
</svg>

