<?xml version="1.0" encoding="UTF-8" standalone="no"?>
<!DOCTYPE svg PUBLIC "-//W3C//DTD SVG 1.1//EN"
 "http://www.w3.org/Graphics/SVG/1.1/DTD/svg11.dtd">
<!-- Generated by graphviz version 2.36.0 (20140111.2315)
 -->
<!-- Title: G Pages: 1 -->
<svg width="100%" height="100%"
 viewBox="0.00 0.00 298.72 243.61" xmlns="http://www.w3.org/2000/svg" xmlns:xlink="http://www.w3.org/1999/xlink">
<g id="graph0" class="graph" transform="scale(1 1) rotate(0) translate(4 239.61)">
<title>G</title>
<!-- 0 -->
<g id="node1" class="node"><title>0</title>
<ellipse fill="cadetblue" stroke="black" cx="119.602" cy="-138.157" rx="21.4286" ry="21.4286"/>
<text text-anchor="middle" x="119.602" y="-133.157" font-family="Times New Roman,serif" font-size="20.00">2</text>
</g>
<!-- 5 -->
<g id="node6" class="node"><title>5</title>
<ellipse fill="cadetblue" stroke="black" cx="21.2132" cy="-178.994" rx="21.4286" ry="21.4286"/>
<text text-anchor="middle" x="21.2132" y="-173.994" font-family="Times New Roman,serif" font-size="20.00">2</text>
</g>
<!-- 0&#45;&gt;5 -->
<g id="edge3" class="edge"><title>0&#45;&gt;5</title>
<path fill="none" stroke="black" stroke-width="2" d="M99.6917,-146.421C85.5556,-152.289 66.3473,-160.261 50.4725,-166.85"/>
<polygon fill="black" stroke="black" stroke-width="2" points="48.9884,-163.676 41.0941,-170.743 51.6719,-170.142 48.9884,-163.676"/>
</g>
<!-- 6 -->
<g id="node7" class="node"><title>6</title>
<ellipse fill="cadetblue" stroke="black" cx="221.968" cy="-78.7219" rx="21.4286" ry="21.4286"/>
<text text-anchor="middle" x="221.968" y="-73.7219" font-family="Times New Roman,serif" font-size="20.00">2</text>
</g>
<!-- 0&#45;&gt;6 -->
<g id="edge4" class="edge"><title>0&#45;&gt;6</title>
<path fill="none" stroke="black" stroke-width="2" d="M138.378,-127.256C154.106,-118.124 176.77,-104.964 194.532,-94.6513"/>
<polygon fill="black" stroke="black" stroke-width="2" points="196.421,-97.6022 203.311,-89.5541 192.906,-91.5486 196.421,-97.6022"/>
</g>
<!-- 7 -->
<g id="node8" class="node"><title>7</title>
<ellipse fill="dodgerblue" stroke="black" cx="161.489" cy="-61.6773" rx="21.4286" ry="21.4286"/>
<text text-anchor="middle" x="161.489" y="-56.6773" font-family="Times New Roman,serif" font-size="20.00">4</text>
</g>
<!-- 0&#45;&gt;7 -->
<g id="edge5" class="edge"><title>0&#45;&gt;7</title>
<path fill="none" stroke="black" stroke-width="2" d="M129.956,-119.252C134.927,-110.176 140.978,-99.1274 146.445,-89.1453"/>
<polygon fill="black" stroke="black" stroke-width="2" points="149.52,-90.817 151.254,-80.365 143.38,-87.4545 149.52,-90.817"/>
</g>
<!-- 1 -->
<g id="node2" class="node"><title>1</title>
<ellipse fill="cadetblue" stroke="black" cx="139.182" cy="-214.397" rx="21.4286" ry="21.4286"/>
<text text-anchor="middle" x="139.182" y="-209.397" font-family="Times New Roman,serif" font-size="20.00">2</text>
</g>
<!-- 1&#45;&gt;6 -->
<g id="edge8" class="edge"><title>1&#45;&gt;6</title>
<path fill="none" stroke="black" stroke-width="2" d="M150.347,-196.099C164.481,-172.935 188.953,-132.828 205.302,-106.035"/>
<polygon fill="black" stroke="black" stroke-width="2" points="208.494,-107.522 210.715,-97.163 202.519,-103.876 208.494,-107.522"/>
</g>
<!-- 1&#45;&gt;7 -->
<g id="edge9" class="edge"><title>1&#45;&gt;7</title>
<path fill="none" stroke="black" stroke-width="2" d="M142.284,-193.162C146.096,-167.061 152.596,-122.563 156.965,-92.6501"/>
<polygon fill="black" stroke="black" stroke-width="2" points="160.431,-93.1328 158.413,-82.7319 153.505,-92.121 160.431,-93.1328"/>
</g>
<!-- 2 -->
<g id="node3" class="node"><title>2</title>
<ellipse fill="cadetblue" stroke="black" cx="55.4411" cy="-21.2132" rx="21.4286" ry="21.4286"/>
<text text-anchor="middle" x="55.4411" y="-16.2132" font-family="Times New Roman,serif" font-size="20.00">2</text>
</g>
<!-- 2&#45;&gt;7 -->
<g id="edge12" class="edge"><title>2&#45;&gt;7</title>
<path fill="none" stroke="black" stroke-width="2" d="M75.3878,-28.8242C91.385,-34.9282 114.07,-43.584 132.139,-50.4786"/>
<polygon fill="black" stroke="black" stroke-width="2" points="131.041,-53.8054 141.631,-54.1004 133.536,-47.2654 131.041,-53.8054"/>
</g>
<!-- 3 -->
<g id="node4" class="node"><title>3</title>
<ellipse fill="brown" stroke="black" cx="189.614" cy="-212.419" rx="21.4286" ry="21.4286"/>
<text text-anchor="middle" x="189.614" y="-207.419" font-family="Times New Roman,serif" font-size="20.00">3</text>
</g>
<!-- 3&#45;&gt;0 -->
<g id="edge1" class="edge"><title>3&#45;&gt;0</title>
<path fill="none" stroke="black" stroke-width="2" d="M174.766,-196.67C165.047,-186.362 152.184,-172.717 141.324,-161.198"/>
<polygon fill="black" stroke="black" stroke-width="2" points="143.595,-158.504 134.188,-153.629 138.501,-163.306 143.595,-158.504"/>
</g>
<!-- 3&#45;&gt;5 -->
<g id="edge14" class="edge"><title>3&#45;&gt;5</title>
<path fill="none" stroke="black" stroke-width="2" d="M168.626,-208.254C139.301,-202.433 85.8704,-191.828 52.0262,-185.11"/>
<polygon fill="black" stroke="black" stroke-width="2" points="52.6902,-181.674 42.2001,-183.16 51.3273,-188.54 52.6902,-181.674"/>
</g>
<!-- 4 -->
<g id="node5" class="node"><title>4</title>
<ellipse fill="cadetblue" stroke="black" cx="269.508" cy="-161.035" rx="21.4286" ry="21.4286"/>
<text text-anchor="middle" x="269.508" y="-156.035" font-family="Times New Roman,serif" font-size="20.00">2</text>
</g>
<!-- 4&#45;&gt;0 -->
<g id="edge2" class="edge"><title>4&#45;&gt;0</title>
<path fill="none" stroke="black" stroke-width="2" d="M248.348,-157.806C222.903,-153.922 179.976,-147.371 150.746,-142.91"/>
<polygon fill="black" stroke="black" stroke-width="2" points="151.068,-139.419 140.654,-141.37 150.012,-146.339 151.068,-139.419"/>
</g>
<!-- 4&#45;&gt;1 -->
<g id="edge6" class="edge"><title>4&#45;&gt;1</title>
<path fill="none" stroke="black" stroke-width="2" d="M249.714,-169.139C228.089,-177.994 193.231,-192.266 168.445,-202.415"/>
<polygon fill="black" stroke="black" stroke-width="2" points="167.09,-199.188 159.162,-206.216 169.743,-205.666 167.09,-199.188"/>
</g>
<!-- 4&#45;&gt;3 -->
<g id="edge13" class="edge"><title>4&#45;&gt;3</title>
<path fill="none" stroke="black" stroke-width="2" d="M251.379,-172.695C240.959,-179.396 227.683,-187.935 216.112,-195.377"/>
<polygon fill="black" stroke="black" stroke-width="2" points="214.188,-192.452 207.671,-200.806 217.975,-198.34 214.188,-192.452"/>
</g>
<!-- 5&#45;&gt;1 -->
<g id="edge7" class="edge"><title>5&#45;&gt;1</title>
<path fill="none" stroke="black" stroke-width="2" d="M41.7618,-185.161C60.2559,-190.711 87.679,-198.941 108.722,-205.256"/>
<polygon fill="black" stroke="black" stroke-width="2" points="107.889,-208.66 118.473,-208.182 109.901,-201.955 107.889,-208.66"/>
</g>
<!-- 5&#45;&gt;2 -->
<g id="edge10" class="edge"><title>5&#45;&gt;2</title>
<path fill="none" stroke="black" stroke-width="2" d="M25.7584,-158.042C31.6401,-130.929 41.9359,-83.4683 48.7218,-52.1873"/>
<polygon fill="black" stroke="black" stroke-width="2" points="52.1775,-52.7667 50.8771,-42.252 45.3366,-51.2826 52.1775,-52.7667"/>
</g>
<!-- 6&#45;&gt;2 -->
<g id="edge11" class="edge"><title>6&#45;&gt;2</title>
<path fill="none" stroke="black" stroke-width="2" d="M201.881,-71.785C172.874,-61.7678 119.052,-43.1809 85.3597,-31.5454"/>
<polygon fill="black" stroke="black" stroke-width="2" points="86.1941,-28.1307 75.5993,-28.1747 83.9091,-34.7473 86.1941,-28.1307"/>
</g>
<!-- 6&#45;&gt;3 -->
<g id="edge15" class="edge"><title>6&#45;&gt;3</title>
<path fill="none" stroke="black" stroke-width="2" d="M216.912,-99.6121C211.57,-121.688 203.092,-156.724 197.001,-181.894"/>
<polygon fill="black" stroke="black" stroke-width="2" points="193.584,-181.133 194.633,-191.676 200.387,-182.78 193.584,-181.133"/>
</g>
<!-- 6&#45;&gt;4 -->
<g id="edge17" class="edge"><title>6&#45;&gt;4</title>
<path fill="none" stroke="black" stroke-width="2" d="M232.755,-97.4C238.955,-108.135 246.855,-121.812 253.74,-133.734"/>
<polygon fill="black" stroke="black" stroke-width="2" points="250.731,-135.522 258.763,-142.431 256.792,-132.021 250.731,-135.522"/>
</g>
<!-- 6&#45;&gt;7 -->
<g id="edge19" class="edge"><title>6&#45;&gt;7</title>
<path fill="none" stroke="black" stroke-width="2" d="M201.492,-72.9513C198.339,-72.0628 195.028,-71.1296 191.717,-70.1964"/>
<polygon fill="black" stroke="black" stroke-width="2" points="192.517,-66.7858 181.943,-67.4419 190.619,-73.5233 192.517,-66.7858"/>
</g>
<!-- 7&#45;&gt;3 -->
<g id="edge16" class="edge"><title>7&#45;&gt;3</title>
<path fill="none" stroke="black" stroke-width="2" d="M165.399,-82.6373C170.158,-108.143 178.238,-151.449 183.744,-180.961"/>
<polygon fill="black" stroke="black" stroke-width="2" points="180.371,-181.963 185.645,-191.151 187.252,-180.679 180.371,-181.963"/>
</g>
<!-- 7&#45;&gt;4 -->
<g id="edge18" class="edge"><title>7&#45;&gt;4</title>
<path fill="none" stroke="black" stroke-width="2" d="M177.427,-76.3378C195.641,-93.0908 225.606,-120.654 246.385,-139.766"/>
<polygon fill="black" stroke="black" stroke-width="2" points="244.126,-142.443 253.855,-146.637 248.864,-137.291 244.126,-142.443"/>
</g>
</g>
</svg>

