<?xml version="1.0" encoding="UTF-8" standalone="no"?>
<!DOCTYPE svg PUBLIC "-//W3C//DTD SVG 1.1//EN"
 "http://www.w3.org/Graphics/SVG/1.1/DTD/svg11.dtd">
<!-- Generated by graphviz version 2.36.0 (20140111.2315)
 -->
<!-- Title: G Pages: 1 -->
<svg width="100%" height="100%"
 viewBox="0.00 0.00 243.60 203.94" xmlns="http://www.w3.org/2000/svg" xmlns:xlink="http://www.w3.org/1999/xlink">
<g id="graph0" class="graph" transform="scale(1 1) rotate(0) translate(4 199.943)">
<title>G</title>
<!-- 0 -->
<g id="node1" class="node"><title>0</title>
<ellipse fill="cadetblue" stroke="black" cx="26.4226" cy="-136.615" rx="21.4286" ry="21.4286"/>
<text text-anchor="middle" x="26.4226" y="-131.615" font-family="Times New Roman,serif" font-size="20.00">2</text>
</g>
<!-- 5 -->
<g id="node6" class="node"><title>5</title>
<ellipse fill="brown" stroke="black" cx="125.158" cy="-77.0528" rx="21.4286" ry="21.4286"/>
<text text-anchor="middle" x="125.158" y="-72.0528" font-family="Times New Roman,serif" font-size="20.00">3</text>
</g>
<!-- 0&#45;&gt;5 -->
<g id="edge3" class="edge"><title>0&#45;&gt;5</title>
<path fill="none" stroke="black" stroke-width="2" d="M44.994,-125.412C59.8882,-116.427 81.0092,-103.686 97.8326,-93.5369"/>
<polygon fill="black" stroke="black" stroke-width="2" points="99.9153,-96.3681 106.67,-88.2058 96.2995,-90.3743 99.9153,-96.3681"/>
</g>
<!-- 6 -->
<g id="node7" class="node"><title>6</title>
<ellipse fill="dodgerblue" stroke="black" cx="93.1973" cy="-26.6213" rx="21.4286" ry="21.4286"/>
<text text-anchor="middle" x="93.1973" y="-21.6213" font-family="Times New Roman,serif" font-size="20.00">4</text>
</g>
<!-- 0&#45;&gt;6 -->
<g id="edge4" class="edge"><title>0&#45;&gt;6</title>
<path fill="none" stroke="black" stroke-width="2" d="M37.4491,-118.452C48.1782,-100.779 64.6089,-73.7132 76.8569,-53.5379"/>
<polygon fill="black" stroke="black" stroke-width="2" points="79.9569,-55.176 82.1545,-44.8115 73.9732,-51.5434 79.9569,-55.176"/>
</g>
<!-- 1 -->
<g id="node2" class="node"><title>1</title>
<ellipse fill="cadetblue" stroke="black" cx="21.2132" cy="-70.1738" rx="21.4286" ry="21.4286"/>
<text text-anchor="middle" x="21.2132" y="-65.1738" font-family="Times New Roman,serif" font-size="20.00">2</text>
</g>
<!-- 1&#45;&gt;5 -->
<g id="edge7" class="edge"><title>1&#45;&gt;5</title>
<path fill="none" stroke="black" stroke-width="2" d="M42.4988,-71.5824C57.2131,-72.5562 77.0402,-73.8683 93.5874,-74.9634"/>
<polygon fill="black" stroke="black" stroke-width="2" points="93.6917,-78.4779 103.901,-75.646 94.154,-71.4932 93.6917,-78.4779"/>
</g>
<!-- 1&#45;&gt;6 -->
<g id="edge8" class="edge"><title>1&#45;&gt;6</title>
<path fill="none" stroke="black" stroke-width="2" d="M39.3778,-59.1836C47.4995,-54.2698 57.2415,-48.3756 66.1915,-42.9606"/>
<polygon fill="black" stroke="black" stroke-width="2" points="68.044,-45.9306 74.7881,-37.7594 64.4204,-39.9414 68.044,-45.9306"/>
</g>
<!-- 2 -->
<g id="node3" class="node"><title>2</title>
<ellipse fill="cadetblue" stroke="black" cx="214.385" cy="-21.2132" rx="21.4286" ry="21.4286"/>
<text text-anchor="middle" x="214.385" y="-16.2132" font-family="Times New Roman,serif" font-size="20.00">2</text>
</g>
<!-- 2&#45;&gt;6 -->
<g id="edge11" class="edge"><title>2&#45;&gt;6</title>
<path fill="none" stroke="black" stroke-width="2" d="M192.998,-22.1676C174.164,-23.0081 146.474,-24.2438 125.036,-25.2005"/>
<polygon fill="black" stroke="black" stroke-width="2" points="124.612,-21.7158 114.778,-25.6582 124.924,-28.7089 124.612,-21.7158"/>
</g>
<!-- 3 -->
<g id="node4" class="node"><title>3</title>
<ellipse fill="cadetblue" stroke="black" cx="86.9933" cy="-174.729" rx="21.4286" ry="21.4286"/>
<text text-anchor="middle" x="86.9933" y="-169.729" font-family="Times New Roman,serif" font-size="20.00">2</text>
</g>
<!-- 3&#45;&gt;0 -->
<g id="edge1" class="edge"><title>3&#45;&gt;0</title>
<path fill="none" stroke="black" stroke-width="2" d="M68.8201,-163.294C63.9089,-160.204 58.4889,-156.793 53.2124,-153.473"/>
<polygon fill="black" stroke="black" stroke-width="2" points="54.9109,-150.406 44.583,-148.043 51.1827,-156.331 54.9109,-150.406"/>
</g>
<!-- 3&#45;&gt;1 -->
<g id="edge5" class="edge"><title>3&#45;&gt;1</title>
<path fill="none" stroke="black" stroke-width="2" d="M75.5353,-156.517C65.1596,-140.025 49.7438,-115.522 37.9822,-96.8276"/>
<polygon fill="black" stroke="black" stroke-width="2" points="40.8276,-94.7777 32.5399,-88.1773 34.9027,-98.5053 40.8276,-94.7777"/>
</g>
<!-- 3&#45;&gt;6 -->
<g id="edge14" class="edge"><title>3&#45;&gt;6</title>
<path fill="none" stroke="black" stroke-width="2" d="M87.8822,-153.509C88.922,-128.685 90.6542,-87.3339 91.8573,-58.6124"/>
<polygon fill="black" stroke="black" stroke-width="2" points="95.3682,-58.4216 92.2899,-48.2839 88.3744,-58.1286 95.3682,-58.4216"/>
</g>
<!-- 4 -->
<g id="node5" class="node"><title>4</title>
<ellipse fill="cadetblue" stroke="black" cx="156.191" cy="-127.764" rx="21.4286" ry="21.4286"/>
<text text-anchor="middle" x="156.191" y="-122.764" font-family="Times New Roman,serif" font-size="20.00">2</text>
</g>
<!-- 4&#45;&gt;0 -->
<g id="edge2" class="edge"><title>4&#45;&gt;0</title>
<path fill="none" stroke="black" stroke-width="2" d="M134.762,-129.226C113.912,-130.648 81.9806,-132.826 58.1783,-134.449"/>
<polygon fill="black" stroke="black" stroke-width="2" points="57.6217,-130.979 47.8831,-135.151 58.0981,-137.963 57.6217,-130.979"/>
</g>
<!-- 4&#45;&gt;1 -->
<g id="edge6" class="edge"><title>4&#45;&gt;1</title>
<path fill="none" stroke="black" stroke-width="2" d="M136.564,-119.39C113.872,-109.708 76.3072,-93.6805 50.2375,-82.5575"/>
<polygon fill="black" stroke="black" stroke-width="2" points="51.4352,-79.2633 40.8638,-78.558 48.688,-85.7017 51.4352,-79.2633"/>
</g>
<!-- 4&#45;&gt;2 -->
<g id="edge9" class="edge"><title>4&#45;&gt;2</title>
<path fill="none" stroke="black" stroke-width="2" d="M166.595,-108.715C175.656,-92.1239 188.912,-67.8526 199.166,-49.0787"/>
<polygon fill="black" stroke="black" stroke-width="2" points="202.349,-50.5515 204.071,-40.0975 196.206,-47.1962 202.349,-50.5515"/>
</g>
<!-- 4&#45;&gt;3 -->
<g id="edge12" class="edge"><title>4&#45;&gt;3</title>
<path fill="none" stroke="black" stroke-width="2" d="M138.371,-139.859C130.762,-145.023 121.726,-151.156 113.368,-156.828"/>
<polygon fill="black" stroke="black" stroke-width="2" points="111.302,-154.001 104.994,-162.513 115.233,-159.793 111.302,-154.001"/>
</g>
<!-- 5&#45;&gt;2 -->
<g id="edge10" class="edge"><title>5&#45;&gt;2</title>
<path fill="none" stroke="black" stroke-width="2" d="M143.215,-65.7528C156.034,-57.73 173.454,-46.8285 187.85,-37.819"/>
<polygon fill="black" stroke="black" stroke-width="2" points="189.735,-40.7683 196.355,-32.4964 186.022,-34.8345 189.735,-40.7683"/>
</g>
<!-- 5&#45;&gt;3 -->
<g id="edge13" class="edge"><title>5&#45;&gt;3</title>
<path fill="none" stroke="black" stroke-width="2" d="M117.435,-96.8191C112.039,-110.629 104.738,-129.315 98.6386,-144.925"/>
<polygon fill="black" stroke="black" stroke-width="2" points="95.2154,-144.069 94.836,-154.657 101.735,-146.617 95.2154,-144.069"/>
</g>
<!-- 5&#45;&gt;4 -->
<g id="edge15" class="edge"><title>5&#45;&gt;4</title>
<path fill="none" stroke="black" stroke-width="2" d="M136.362,-95.3608C137.429,-97.1056 138.527,-98.8987 139.631,-100.703"/>
<polygon fill="black" stroke="black" stroke-width="2" points="136.903,-102.95 145.108,-109.653 142.874,-99.2966 136.903,-102.95"/>
</g>
<!-- 6&#45;&gt;4 -->
<g id="edge16" class="edge"><title>6&#45;&gt;4</title>
<path fill="none" stroke="black" stroke-width="2" d="M92.1914,-47.8762C92.6011,-62.8062 95.5277,-82.3948 106.527,-95.6219 112.38,-102.66 120.177,-108.693 127.855,-113.568"/>
<polygon fill="black" stroke="black" stroke-width="2" points="126.294,-116.71 136.69,-118.75 129.835,-110.672 126.294,-116.71"/>
</g>
<!-- 6&#45;&gt;5 -->
<g id="edge17" class="edge"><title>6&#45;&gt;5</title>
<path fill="none" stroke="black" stroke-width="2" d="M104.556,-44.5435C105.751,-46.4298 106.984,-48.3756 108.225,-50.3336"/>
<polygon fill="black" stroke="black" stroke-width="2" points="105.312,-52.275 113.621,-58.8481 111.224,-48.5279 105.312,-52.275"/>
</g>
</g>
</svg>

