<?xml version="1.0" encoding="UTF-8" standalone="no"?>
<!DOCTYPE svg PUBLIC "-//W3C//DTD SVG 1.1//EN"
 "http://www.w3.org/Graphics/SVG/1.1/DTD/svg11.dtd">
<!-- Generated by graphviz version 2.36.0 (20140111.2315)
 -->
<!-- Title: G Pages: 1 -->
<svg width="100%" height="100%"
 viewBox="0.00 0.00 226.30 276.46" xmlns="http://www.w3.org/2000/svg" xmlns:xlink="http://www.w3.org/1999/xlink">
<g id="graph0" class="graph" transform="scale(1 1) rotate(0) translate(4 272.46)">
<title>G</title>
<!-- 0 -->
<g id="node1" class="node"><title>0</title>
<ellipse fill="cadetblue" stroke="black" cx="40.4313" cy="-73.9701" rx="21.4286" ry="21.4286"/>
<text text-anchor="middle" x="40.4313" y="-68.9701" font-family="Times New Roman,serif" font-size="20.00">2</text>
</g>
<!-- 6 -->
<g id="node7" class="node"><title>6</title>
<ellipse fill="cadetblue" stroke="black" cx="139.303" cy="-176.911" rx="21.4286" ry="21.4286"/>
<text text-anchor="middle" x="139.303" y="-171.911" font-family="Times New Roman,serif" font-size="20.00">2</text>
</g>
<!-- 0&#45;&gt;6 -->
<g id="edge3" class="edge"><title>0&#45;&gt;6</title>
<path fill="none" stroke="black" stroke-width="2" d="M52.046,-91.7423C62.3897,-106.84 78.4635,-128.606 95.3561,-144.997 100.63,-150.114 106.766,-155.074 112.751,-159.497"/>
<polygon fill="black" stroke="black" stroke-width="2" points="111.109,-162.624 121.292,-165.551 115.157,-156.913 111.109,-162.624"/>
</g>
<!-- 7 -->
<g id="node8" class="node"><title>7</title>
<ellipse fill="brown" stroke="black" cx="92.9141" cy="-21.2132" rx="21.4286" ry="21.4286"/>
<text text-anchor="middle" x="92.9141" y="-16.2132" font-family="Times New Roman,serif" font-size="20.00">3</text>
</g>
<!-- 0&#45;&gt;7 -->
<g id="edge4" class="edge"><title>0&#45;&gt;7</title>
<path fill="none" stroke="black" stroke-width="2" d="M55.6115,-58.7106C60.3304,-53.967 65.6335,-48.6363 70.7276,-43.5155"/>
<polygon fill="black" stroke="black" stroke-width="2" points="73.3779,-45.8141 77.9493,-36.2562 68.4153,-40.8773 73.3779,-45.8141"/>
</g>
<!-- 1 -->
<g id="node2" class="node"><title>1</title>
<ellipse fill="cadetblue" stroke="black" cx="72.3588" cy="-247.247" rx="21.4286" ry="21.4286"/>
<text text-anchor="middle" x="72.3588" y="-242.247" font-family="Times New Roman,serif" font-size="20.00">2</text>
</g>
<!-- 1&#45;&gt;6 -->
<g id="edge7" class="edge"><title>1&#45;&gt;6</title>
<path fill="none" stroke="black" stroke-width="2" d="M87.2159,-231.637C96.0562,-222.349 107.437,-210.392 117.304,-200.025"/>
<polygon fill="black" stroke="black" stroke-width="2" points="120.128,-202.134 124.487,-192.477 115.058,-197.308 120.128,-202.134"/>
</g>
<!-- 2 -->
<g id="node3" class="node"><title>2</title>
<ellipse fill="cadetblue" stroke="black" cx="197.088" cy="-34.5512" rx="21.4286" ry="21.4286"/>
<text text-anchor="middle" x="197.088" y="-29.5512" font-family="Times New Roman,serif" font-size="20.00">2</text>
</g>
<!-- 5 -->
<g id="node6" class="node"><title>5</title>
<ellipse fill="cadetblue" stroke="black" cx="114.039" cy="-126.48" rx="21.4286" ry="21.4286"/>
<text text-anchor="middle" x="114.039" y="-121.48" font-family="Times New Roman,serif" font-size="20.00">2</text>
</g>
<!-- 2&#45;&gt;5 -->
<g id="edge9" class="edge"><title>2&#45;&gt;5</title>
<path fill="none" stroke="black" stroke-width="2" d="M182.622,-50.5639C169.522,-65.0641 150.059,-86.608 135.21,-103.045"/>
<polygon fill="black" stroke="black" stroke-width="2" points="132.446,-100.884 128.339,-110.651 137.64,-105.577 132.446,-100.884"/>
</g>
<!-- 2&#45;&gt;7 -->
<g id="edge11" class="edge"><title>2&#45;&gt;7</title>
<path fill="none" stroke="black" stroke-width="2" d="M176.007,-31.852C161.04,-29.9357 140.702,-27.3317 123.894,-25.1797"/>
<polygon fill="black" stroke="black" stroke-width="2" points="124.327,-21.7067 113.964,-23.9083 123.438,-28.6501 124.327,-21.7067"/>
</g>
<!-- 3 -->
<g id="node4" class="node"><title>3</title>
<ellipse fill="cadetblue" stroke="black" cx="21.2132" cy="-153.08" rx="21.4286" ry="21.4286"/>
<text text-anchor="middle" x="21.2132" y="-148.08" font-family="Times New Roman,serif" font-size="20.00">2</text>
</g>
<!-- 3&#45;&gt;0 -->
<g id="edge1" class="edge"><title>3&#45;&gt;0</title>
<path fill="none" stroke="black" stroke-width="2" d="M26.2625,-132.295C28.337,-123.755 30.7805,-113.697 33.0488,-104.36"/>
<polygon fill="black" stroke="black" stroke-width="2" points="36.4561,-105.16 35.4157,-94.6164 29.6539,-103.508 36.4561,-105.16"/>
</g>
<!-- 3&#45;&gt;1 -->
<g id="edge5" class="edge"><title>3&#45;&gt;1</title>
<path fill="none" stroke="black" stroke-width="2" d="M31.5633,-172.136C38.96,-185.754 49.0282,-204.291 57.3116,-219.542"/>
<polygon fill="black" stroke="black" stroke-width="2" points="54.3501,-221.423 62.1987,-228.54 60.5014,-218.082 54.3501,-221.423"/>
</g>
<!-- 3&#45;&gt;7 -->
<g id="edge14" class="edge"><title>3&#45;&gt;7</title>
<path fill="none" stroke="black" stroke-width="2" d="M33.0121,-135.403C40.7625,-123.509 50.9254,-107.36 59.0143,-92.5871 66.4695,-78.9718 73.9573,-63.448 79.9924,-50.3629"/>
<polygon fill="black" stroke="black" stroke-width="2" points="83.3406,-51.4554 84.2996,-40.9041 76.97,-48.5544 83.3406,-51.4554"/>
</g>
<!-- 4 -->
<g id="node5" class="node"><title>4</title>
<ellipse fill="cadetblue" stroke="black" cx="185.853" cy="-87.7884" rx="21.4286" ry="21.4286"/>
<text text-anchor="middle" x="185.853" y="-82.7884" font-family="Times New Roman,serif" font-size="20.00">2</text>
</g>
<!-- 4&#45;&gt;0 -->
<g id="edge2" class="edge"><title>4&#45;&gt;0</title>
<path fill="none" stroke="black" stroke-width="2" d="M164.707,-85.7791C140.26,-83.456 99.7882,-79.6103 71.7013,-76.9414"/>
<polygon fill="black" stroke="black" stroke-width="2" points="71.8887,-73.4436 61.6024,-75.9818 71.2264,-80.4122 71.8887,-73.4436"/>
</g>
<!-- 4&#45;&gt;2 -->
<g id="edge8" class="edge"><title>4&#45;&gt;2</title>
<path fill="none" stroke="black" stroke-width="2" d="M190.293,-66.7477C190.391,-66.2826 190.49,-65.8152 190.589,-65.3461"/>
<polygon fill="black" stroke="black" stroke-width="2" points="194.039,-65.9464 192.68,-55.4391 187.19,-64.5009 194.039,-65.9464"/>
</g>
<!-- 5&#45;&gt;1 -->
<g id="edge6" class="edge"><title>5&#45;&gt;1</title>
<path fill="none" stroke="black" stroke-width="2" d="M107.062,-146.694C100.39,-166.026 90.2487,-195.411 82.6491,-217.431"/>
<polygon fill="black" stroke="black" stroke-width="2" points="79.3119,-216.372 79.3578,-226.967 85.9289,-218.656 79.3119,-216.372"/>
</g>
<!-- 5&#45;&gt;3 -->
<g id="edge12" class="edge"><title>5&#45;&gt;3</title>
<path fill="none" stroke="black" stroke-width="2" d="M93.4378,-132.383C81.1796,-135.896 65.3993,-140.418 51.7172,-144.339"/>
<polygon fill="black" stroke="black" stroke-width="2" points="50.4055,-141.074 41.7566,-147.193 52.3339,-147.803 50.4055,-141.074"/>
</g>
<!-- 5&#45;&gt;4 -->
<g id="edge15" class="edge"><title>5&#45;&gt;4</title>
<path fill="none" stroke="black" stroke-width="2" d="M132.907,-116.314C140.659,-112.138 149.79,-107.218 158.266,-102.651"/>
<polygon fill="black" stroke="black" stroke-width="2" points="159.967,-105.711 167.111,-97.8863 156.647,-99.5482 159.967,-105.711"/>
</g>
<!-- 6&#45;&gt;2 -->
<g id="edge10" class="edge"><title>6&#45;&gt;2</title>
<path fill="none" stroke="black" stroke-width="2" d="M141.093,-155.565C143.835,-132.666 150.664,-95.9635 167.438,-69.0055 169.848,-65.1318 172.682,-61.2505 175.625,-57.5627"/>
<polygon fill="black" stroke="black" stroke-width="2" points="178.339,-59.7734 182.12,-49.8764 172.992,-55.2551 178.339,-59.7734"/>
</g>
<!-- 6&#45;&gt;3 -->
<g id="edge13" class="edge"><title>6&#45;&gt;3</title>
<path fill="none" stroke="black" stroke-width="2" d="M118.463,-172.706C100.11,-169.002 73.128,-163.557 52.2378,-159.341"/>
<polygon fill="black" stroke="black" stroke-width="2" points="52.7371,-155.871 42.2423,-157.324 51.3523,-162.733 52.7371,-155.871"/>
</g>
<!-- 7&#45;&gt;4 -->
<g id="edge16" class="edge"><title>7&#45;&gt;4</title>
<path fill="none" stroke="black" stroke-width="2" d="M110.395,-33.7355C124.415,-43.7783 144.296,-58.0197 160.132,-69.3634"/>
<polygon fill="black" stroke="black" stroke-width="2" points="158.283,-72.3442 168.45,-75.3223 162.359,-66.6535 158.283,-72.3442"/>
</g>
<!-- 7&#45;&gt;5 -->
<g id="edge17" class="edge"><title>7&#45;&gt;5</title>
<path fill="none" stroke="black" stroke-width="2" d="M97.1382,-42.2625C100.189,-57.4666 104.36,-78.2506 107.795,-95.3666"/>
<polygon fill="black" stroke="black" stroke-width="2" points="104.423,-96.3513 109.822,-105.467 111.286,-94.9739 104.423,-96.3513"/>
</g>
</g>
</svg>

