<?xml version="1.0" encoding="UTF-8" standalone="no"?>
<!DOCTYPE svg PUBLIC "-//W3C//DTD SVG 1.1//EN"
 "http://www.w3.org/Graphics/SVG/1.1/DTD/svg11.dtd">
<!-- Generated by graphviz version 2.36.0 (20140111.2315)
 -->
<!-- Title: G Pages: 1 -->
<svg width="100%" height="100%"
 viewBox="0.00 0.00 266.85 302.24" xmlns="http://www.w3.org/2000/svg" xmlns:xlink="http://www.w3.org/1999/xlink">
<g id="graph0" class="graph" transform="scale(1 1) rotate(0) translate(4 298.238)">
<title>G</title>
<!-- 0 -->
<g id="node1" class="node"><title>0</title>
<ellipse fill="cadetblue" stroke="black" cx="121.642" cy="-192.864" rx="21.4286" ry="21.4286"/>
<text text-anchor="middle" x="121.642" y="-187.864" font-family="Times New Roman,serif" font-size="20.00">2</text>
</g>
<!-- 5 -->
<g id="node6" class="node"><title>5</title>
<ellipse fill="brown" stroke="black" cx="21.2132" cy="-157.736" rx="21.4286" ry="21.4286"/>
<text text-anchor="middle" x="21.2132" y="-152.736" font-family="Times New Roman,serif" font-size="20.00">3</text>
</g>
<!-- 0&#45;&gt;5 -->
<g id="edge3" class="edge"><title>0&#45;&gt;5</title>
<path fill="none" stroke="black" stroke-width="2" d="M101.319,-185.755C86.8894,-180.708 67.2829,-173.85 51.079,-168.182"/>
<polygon fill="black" stroke="black" stroke-width="2" points="52.101,-164.832 41.5062,-164.834 49.7898,-171.439 52.101,-164.832"/>
</g>
<!-- 6 -->
<g id="node7" class="node"><title>6</title>
<ellipse fill="cadetblue" stroke="black" cx="216.394" cy="-91.6811" rx="21.4286" ry="21.4286"/>
<text text-anchor="middle" x="216.394" y="-86.6811" font-family="Times New Roman,serif" font-size="20.00">2</text>
</g>
<!-- 0&#45;&gt;6 -->
<g id="edge4" class="edge"><title>0&#45;&gt;6</title>
<path fill="none" stroke="black" stroke-width="2" d="M136.447,-177.054C152.092,-160.347 176.922,-133.832 194.761,-114.783"/>
<polygon fill="black" stroke="black" stroke-width="2" points="197.413,-117.071 201.693,-107.38 192.303,-112.287 197.413,-117.071"/>
</g>
<!-- 1 -->
<g id="node2" class="node"><title>1</title>
<ellipse fill="cadetblue" stroke="black" cx="172.073" cy="-231.385" rx="21.4286" ry="21.4286"/>
<text text-anchor="middle" x="172.073" y="-226.385" font-family="Times New Roman,serif" font-size="20.00">2</text>
</g>
<!-- 7 -->
<g id="node8" class="node"><title>7</title>
<ellipse fill="cadetblue" stroke="black" cx="124.06" cy="-126.166" rx="21.4286" ry="21.4286"/>
<text text-anchor="middle" x="124.06" y="-121.166" font-family="Times New Roman,serif" font-size="20.00">2</text>
</g>
<!-- 1&#45;&gt;7 -->
<g id="edge7" class="edge"><title>1&#45;&gt;7</title>
<path fill="none" stroke="black" stroke-width="2" d="M163.042,-211.594C155.754,-195.621 145.399,-172.929 137.193,-154.946"/>
<polygon fill="black" stroke="black" stroke-width="2" points="140.224,-153.157 132.888,-145.513 133.855,-156.063 140.224,-153.157"/>
</g>
<!-- 2 -->
<g id="node3" class="node"><title>2</title>
<ellipse fill="cadetblue" stroke="black" cx="84.1663" cy="-21.2132" rx="21.4286" ry="21.4286"/>
<text text-anchor="middle" x="84.1663" y="-16.2132" font-family="Times New Roman,serif" font-size="20.00">2</text>
</g>
<!-- 2&#45;&gt;7 -->
<g id="edge10" class="edge"><title>2&#45;&gt;7</title>
<path fill="none" stroke="black" stroke-width="2" d="M91.8582,-41.4492C97.7635,-56.9849 106.008,-78.6759 112.677,-96.2198"/>
<polygon fill="black" stroke="black" stroke-width="2" points="109.567,-97.8884 116.392,-105.992 116.11,-95.4013 109.567,-97.8884"/>
</g>
<!-- 3 -->
<g id="node4" class="node"><title>3</title>
<ellipse fill="cadetblue" stroke="black" cx="77.1" cy="-273.025" rx="21.4286" ry="21.4286"/>
<text text-anchor="middle" x="77.1" y="-268.025" font-family="Times New Roman,serif" font-size="20.00">2</text>
</g>
<!-- 3&#45;&gt;0 -->
<g id="edge1" class="edge"><title>3&#45;&gt;0</title>
<path fill="none" stroke="black" stroke-width="2" d="M87.4307,-254.433C93.0123,-244.388 100.015,-231.786 106.228,-220.604"/>
<polygon fill="black" stroke="black" stroke-width="2" points="109.415,-222.074 111.213,-211.633 103.296,-218.674 109.415,-222.074"/>
</g>
<!-- 3&#45;&gt;5 -->
<g id="edge12" class="edge"><title>3&#45;&gt;5</title>
<path fill="none" stroke="black" stroke-width="2" d="M67.7458,-253.728C58.7995,-235.273 45.2009,-207.22 35.011,-186.199"/>
<polygon fill="black" stroke="black" stroke-width="2" points="38.1095,-184.567 30.5979,-177.095 31.8105,-187.621 38.1095,-184.567"/>
</g>
<!-- 4 -->
<g id="node5" class="node"><title>4</title>
<ellipse fill="cadetblue" stroke="black" cx="237.633" cy="-212.029" rx="21.4286" ry="21.4286"/>
<text text-anchor="middle" x="237.633" y="-207.029" font-family="Times New Roman,serif" font-size="20.00">2</text>
</g>
<!-- 4&#45;&gt;0 -->
<g id="edge2" class="edge"><title>4&#45;&gt;0</title>
<path fill="none" stroke="black" stroke-width="2" d="M216.628,-208.559C198.838,-205.619 173.079,-201.363 152.872,-198.024"/>
<polygon fill="black" stroke="black" stroke-width="2" points="153.32,-194.551 142.883,-196.373 152.178,-201.457 153.32,-194.551"/>
</g>
<!-- 4&#45;&gt;3 -->
<g id="edge11" class="edge"><title>4&#45;&gt;3</title>
<path fill="none" stroke="black" stroke-width="2" d="M221.953,-226.642C213.193,-234.292 201.809,-243.42 190.605,-250.052 165.587,-264.862 132.618,-270.271 108.661,-272.174"/>
<polygon fill="black" stroke="black" stroke-width="2" points="108.432,-268.681 98.6733,-272.807 108.875,-275.667 108.432,-268.681"/>
</g>
<!-- 5&#45;&gt;1 -->
<g id="edge5" class="edge"><title>5&#45;&gt;1</title>
<path fill="none" stroke="black" stroke-width="2" d="M37.7596,-171.271C56.7266,-185.934 89.3704,-208.639 121.618,-219.168 127.915,-221.224 134.755,-223.107 141.308,-224.746"/>
<polygon fill="black" stroke="black" stroke-width="2" points="140.71,-228.201 151.248,-227.111 142.33,-221.391 140.71,-228.201"/>
</g>
<!-- 5&#45;&gt;2 -->
<g id="edge8" class="edge"><title>5&#45;&gt;2</title>
<path fill="none" stroke="black" stroke-width="2" d="M30.0993,-138.465C40.7247,-115.422 58.6088,-76.6382 70.8788,-50.0289"/>
<polygon fill="black" stroke="black" stroke-width="2" points="74.1124,-51.3747 75.1215,-40.828 67.7557,-48.4434 74.1124,-51.3747"/>
</g>
<!-- 6&#45;&gt;1 -->
<g id="edge6" class="edge"><title>6&#45;&gt;1</title>
<path fill="none" stroke="black" stroke-width="2" d="M209.95,-111.995C202.499,-135.482 190.164,-174.362 181.604,-201.344"/>
<polygon fill="black" stroke="black" stroke-width="2" points="178.214,-200.456 178.526,-211.046 184.886,-202.573 178.214,-200.456"/>
</g>
<!-- 6&#45;&gt;2 -->
<g id="edge9" class="edge"><title>6&#45;&gt;2</title>
<path fill="none" stroke="black" stroke-width="2" d="M197.449,-81.5848C175.062,-69.654 137.619,-49.6995 111.951,-36.0201"/>
<polygon fill="black" stroke="black" stroke-width="2" points="113.547,-32.9052 103.076,-31.2908 110.255,-39.0827 113.547,-32.9052"/>
</g>
<!-- 6&#45;&gt;4 -->
<g id="edge14" class="edge"><title>6&#45;&gt;4</title>
<path fill="none" stroke="black" stroke-width="2" d="M220.094,-112.644C223.424,-131.511 228.361,-159.488 232.15,-180.955"/>
<polygon fill="black" stroke="black" stroke-width="2" points="228.72,-181.663 233.905,-190.903 235.614,-180.447 228.72,-181.663"/>
</g>
<!-- 7&#45;&gt;3 -->
<g id="edge13" class="edge"><title>7&#45;&gt;3</title>
<path fill="none" stroke="black" stroke-width="2" d="M115.396,-145.781C111.577,-154.485 107.057,-164.861 103.059,-174.247 99.552,-182.479 98.0553,-184.315 95.3374,-192.84 90.2285,-208.865 85.9594,-227.122 82.8391,-242.164"/>
<polygon fill="black" stroke="black" stroke-width="2" points="79.402,-241.503 80.8663,-251.996 86.2652,-242.88 79.402,-241.503"/>
</g>
<!-- 7&#45;&gt;4 -->
<g id="edge15" class="edge"><title>7&#45;&gt;4</title>
<path fill="none" stroke="black" stroke-width="2" d="M141.309,-139.207C160.264,-153.537 190.886,-176.688 212.508,-193.034"/>
<polygon fill="black" stroke="black" stroke-width="2" points="210.506,-195.909 220.594,-199.147 214.728,-190.325 210.506,-195.909"/>
</g>
<!-- 7&#45;&gt;5 -->
<g id="edge16" class="edge"><title>7&#45;&gt;5</title>
<path fill="none" stroke="black" stroke-width="2" d="M103.741,-132.403C88.9062,-136.957 68.54,-143.208 51.7516,-148.362"/>
<polygon fill="black" stroke="black" stroke-width="2" points="50.3749,-145.123 41.8422,-151.403 52.4291,-151.815 50.3749,-145.123"/>
</g>
<!-- 7&#45;&gt;6 -->
<g id="edge17" class="edge"><title>7&#45;&gt;6</title>
<path fill="none" stroke="black" stroke-width="2" d="M144.095,-118.683C156.558,-114.029 172.809,-107.96 186.746,-102.754"/>
<polygon fill="black" stroke="black" stroke-width="2" points="188.255,-105.927 196.398,-99.1493 185.806,-99.3693 188.255,-105.927"/>
</g>
</g>
</svg>

