<?xml version="1.0" encoding="UTF-8" standalone="no"?>
<!DOCTYPE svg PUBLIC "-//W3C//DTD SVG 1.1//EN"
 "http://www.w3.org/Graphics/SVG/1.1/DTD/svg11.dtd">
<!-- Generated by graphviz version 2.36.0 (20140111.2315)
 -->
<!-- Title: G Pages: 1 -->
<svg width="100%" height="100%"
 viewBox="0.00 0.00 276.69 305.29" xmlns="http://www.w3.org/2000/svg" xmlns:xlink="http://www.w3.org/1999/xlink">
<g id="graph0" class="graph" transform="scale(1 1) rotate(0) translate(4 301.29)">
<title>G</title>
<!-- 0 -->
<g id="node1" class="node"><title>0</title>
<ellipse fill="cadetblue" stroke="black" cx="32.7384" cy="-126.796" rx="21.4286" ry="21.4286"/>
<text text-anchor="middle" x="32.7384" y="-121.796" font-family="Times New Roman,serif" font-size="20.00">2</text>
</g>
<!-- 5 -->
<g id="node6" class="node"><title>5</title>
<ellipse fill="brown" stroke="black" cx="21.2132" cy="-229.437" rx="21.4286" ry="21.4286"/>
<text text-anchor="middle" x="21.2132" y="-224.437" font-family="Times New Roman,serif" font-size="20.00">3</text>
</g>
<!-- 0&#45;&gt;5 -->
<g id="edge3" class="edge"><title>0&#45;&gt;5</title>
<path fill="none" stroke="black" stroke-width="2" d="M30.3504,-148.063C28.7278,-162.514 26.5541,-181.872 24.7339,-198.082"/>
<polygon fill="black" stroke="black" stroke-width="2" points="21.236,-197.869 23.5982,-208.197 28.1923,-198.65 21.236,-197.869"/>
</g>
<!-- 6 -->
<g id="node7" class="node"><title>6</title>
<ellipse fill="cadetblue" stroke="black" cx="155.284" cy="-168.757" rx="21.4286" ry="21.4286"/>
<text text-anchor="middle" x="155.284" y="-163.757" font-family="Times New Roman,serif" font-size="20.00">2</text>
</g>
<!-- 0&#45;&gt;6 -->
<g id="edge4" class="edge"><title>0&#45;&gt;6</title>
<path fill="none" stroke="black" stroke-width="2" d="M52.9743,-133.725C72.6645,-140.467 102.818,-150.792 125.296,-158.488"/>
<polygon fill="black" stroke="black" stroke-width="2" points="124.423,-161.889 135.018,-161.817 126.691,-155.267 124.423,-161.889"/>
</g>
<!-- 7 -->
<g id="node8" class="node"><title>7</title>
<ellipse fill="dodgerblue" stroke="black" cx="104.853" cy="-119.43" rx="21.4286" ry="21.4286"/>
<text text-anchor="middle" x="104.853" y="-114.43" font-family="Times New Roman,serif" font-size="20.00">4</text>
</g>
<!-- 0&#45;&gt;7 -->
<g id="edge5" class="edge"><title>0&#45;&gt;7</title>
<path fill="none" stroke="black" stroke-width="2" d="M53.985,-124.626C60.0924,-124.002 66.8859,-123.308 73.4681,-122.636"/>
<polygon fill="black" stroke="black" stroke-width="2" points="73.9162,-126.108 83.5087,-121.61 73.2047,-119.144 73.9162,-126.108"/>
</g>
<!-- 1 -->
<g id="node2" class="node"><title>1</title>
<ellipse fill="cadetblue" stroke="black" cx="190.423" cy="-267.94" rx="21.4286" ry="21.4286"/>
<text text-anchor="middle" x="190.423" y="-262.94" font-family="Times New Roman,serif" font-size="20.00">2</text>
</g>
<!-- 1&#45;&gt;5 -->
<g id="edge8" class="edge"><title>1&#45;&gt;5</title>
<path fill="none" stroke="black" stroke-width="2" d="M169.675,-263.219C140.243,-256.522 86.1641,-244.216 52.0337,-236.45"/>
<polygon fill="black" stroke="black" stroke-width="2" points="52.6587,-233.003 42.1314,-234.197 51.1055,-239.828 52.6587,-233.003"/>
</g>
<!-- 1&#45;&gt;7 -->
<g id="edge9" class="edge"><title>1&#45;&gt;7</title>
<path fill="none" stroke="black" stroke-width="2" d="M177.899,-250.807C166.47,-234.807 149.462,-210.049 136.662,-187.335 129.652,-174.895 122.81,-160.65 117.279,-148.43"/>
<polygon fill="black" stroke="black" stroke-width="2" points="120.407,-146.852 113.145,-139.137 114.012,-149.697 120.407,-146.852"/>
</g>
<!-- 2 -->
<g id="node3" class="node"><title>2</title>
<ellipse fill="cadetblue" stroke="black" cx="201.911" cy="-21.2132" rx="21.4286" ry="21.4286"/>
<text text-anchor="middle" x="201.911" y="-16.2132" font-family="Times New Roman,serif" font-size="20.00">2</text>
</g>
<!-- 4 -->
<g id="node5" class="node"><title>4</title>
<ellipse fill="cadetblue" stroke="black" cx="247.475" cy="-133.968" rx="21.4286" ry="21.4286"/>
<text text-anchor="middle" x="247.475" y="-128.968" font-family="Times New Roman,serif" font-size="20.00">2</text>
</g>
<!-- 2&#45;&gt;4 -->
<g id="edge10" class="edge"><title>2&#45;&gt;4</title>
<path fill="none" stroke="black" stroke-width="2" d="M209.952,-41.1119C217.109,-58.824 227.669,-84.9543 235.764,-104.987"/>
<polygon fill="black" stroke="black" stroke-width="2" points="232.522,-106.308 239.514,-114.268 239.013,-103.685 232.522,-106.308"/>
</g>
<!-- 3 -->
<g id="node4" class="node"><title>3</title>
<ellipse fill="cadetblue" stroke="black" cx="84.8822" cy="-276.076" rx="21.4286" ry="21.4286"/>
<text text-anchor="middle" x="84.8822" y="-271.076" font-family="Times New Roman,serif" font-size="20.00">2</text>
</g>
<!-- 3&#45;&gt;0 -->
<g id="edge1" class="edge"><title>3&#45;&gt;0</title>
<path fill="none" stroke="black" stroke-width="2" d="M77.8499,-255.944C68.9475,-230.458 53.5331,-186.329 43.2357,-156.848"/>
<polygon fill="black" stroke="black" stroke-width="2" points="46.4278,-155.373 39.8258,-147.087 39.8193,-157.681 46.4278,-155.373"/>
</g>
<!-- 3&#45;&gt;1 -->
<g id="edge6" class="edge"><title>3&#45;&gt;1</title>
<path fill="none" stroke="black" stroke-width="2" d="M106.24,-274.43C121.404,-273.261 142.008,-271.672 159.037,-270.359"/>
<polygon fill="black" stroke="black" stroke-width="2" points="159.396,-273.842 169.097,-269.584 158.858,-266.863 159.396,-273.842"/>
</g>
<!-- 3&#45;&gt;7 -->
<g id="edge15" class="edge"><title>3&#45;&gt;7</title>
<path fill="none" stroke="black" stroke-width="2" d="M87.5755,-254.95C90.985,-228.206 96.8885,-181.9 100.832,-150.965"/>
<polygon fill="black" stroke="black" stroke-width="2" points="104.345,-151.084 102.138,-140.721 97.4016,-150.198 104.345,-151.084"/>
</g>
<!-- 4&#45;&gt;0 -->
<g id="edge2" class="edge"><title>4&#45;&gt;0</title>
<path fill="none" stroke="black" stroke-width="2" d="M226.304,-135.904C188.047,-139.375 110.792,-146.254 104.851,-145.734 90.7083,-144.497 75.4472,-140.844 62.622,-137.072"/>
<polygon fill="black" stroke="black" stroke-width="2" points="63.5147,-133.684 52.9267,-134.065 61.4413,-140.37 63.5147,-133.684"/>
</g>
<!-- 4&#45;&gt;1 -->
<g id="edge7" class="edge"><title>4&#45;&gt;1</title>
<path fill="none" stroke="black" stroke-width="2" d="M239.057,-153.736C229.492,-176.196 213.791,-213.066 202.824,-238.818"/>
<polygon fill="black" stroke="black" stroke-width="2" points="199.574,-237.519 198.876,-248.091 206.014,-240.262 199.574,-237.519"/>
</g>
<!-- 5&#45;&gt;3 -->
<g id="edge13" class="edge"><title>5&#45;&gt;3</title>
<path fill="none" stroke="black" stroke-width="2" d="M38.611,-242.181C44.9278,-246.808 52.2066,-252.14 59.0935,-257.185"/>
<polygon fill="black" stroke="black" stroke-width="2" points="57.3699,-260.261 67.5054,-263.347 61.5066,-254.614 57.3699,-260.261"/>
</g>
<!-- 5&#45;&gt;7 -->
<g id="edge18" class="edge"><title>5&#45;&gt;7</title>
<path fill="none" stroke="black" stroke-width="2" d="M34.2819,-212.248C48.0921,-194.084 70.0102,-165.256 85.7562,-144.546"/>
<polygon fill="black" stroke="black" stroke-width="2" points="88.6095,-146.576 91.8757,-136.498 83.0372,-142.34 88.6095,-146.576"/>
</g>
<!-- 6&#45;&gt;2 -->
<g id="edge11" class="edge"><title>6&#45;&gt;2</title>
<path fill="none" stroke="black" stroke-width="2" d="M161.767,-148.241C169.736,-123.026 183.322,-80.0355 192.454,-51.1363"/>
<polygon fill="black" stroke="black" stroke-width="2" points="195.807,-52.1441 195.483,-41.5543 189.132,-50.0348 195.807,-52.1441"/>
</g>
<!-- 6&#45;&gt;3 -->
<g id="edge14" class="edge"><title>6&#45;&gt;3</title>
<path fill="none" stroke="black" stroke-width="2" d="M143.341,-186.962C132.047,-204.179 114.97,-230.212 102.185,-249.701"/>
<polygon fill="black" stroke="black" stroke-width="2" points="99.2072,-247.859 96.6485,-258.14 105.06,-251.698 99.2072,-247.859"/>
</g>
<!-- 6&#45;&gt;4 -->
<g id="edge16" class="edge"><title>6&#45;&gt;4</title>
<path fill="none" stroke="black" stroke-width="2" d="M175.288,-161.208C187.731,-156.513 203.957,-150.39 217.873,-145.139"/>
<polygon fill="black" stroke="black" stroke-width="2" points="219.39,-148.307 227.51,-141.502 216.918,-141.758 219.39,-148.307"/>
</g>
<!-- 6&#45;&gt;5 -->
<g id="edge17" class="edge"><title>6&#45;&gt;5</title>
<path fill="none" stroke="black" stroke-width="2" d="M135.789,-177.58C113.25,-187.781 75.937,-204.669 50.0425,-216.389"/>
<polygon fill="black" stroke="black" stroke-width="2" points="48.399,-213.291 40.7318,-220.603 51.2853,-219.668 48.399,-213.291"/>
</g>
<!-- 7&#45;&gt;2 -->
<g id="edge12" class="edge"><title>7&#45;&gt;2</title>
<path fill="none" stroke="black" stroke-width="2" d="M120.018,-104.083C135.973,-87.9383 161.252,-62.3568 179.507,-43.8848"/>
<polygon fill="black" stroke="black" stroke-width="2" points="182.312,-46.0248 186.852,-36.4518 177.333,-41.1045 182.312,-46.0248"/>
</g>
<!-- 7&#45;&gt;6 -->
<g id="edge19" class="edge"><title>7&#45;&gt;6</title>
<path fill="none" stroke="black" stroke-width="2" d="M120.258,-134.497C124.168,-138.322 128.452,-142.512 132.64,-146.608"/>
<polygon fill="black" stroke="black" stroke-width="2" points="130.377,-149.291 139.973,-153.781 135.272,-144.287 130.377,-149.291"/>
</g>
</g>
</svg>

