<?xml version="1.0" encoding="UTF-8" standalone="no"?>
<!DOCTYPE svg PUBLIC "-//W3C//DTD SVG 1.1//EN"
 "http://www.w3.org/Graphics/SVG/1.1/DTD/svg11.dtd">
<!-- Generated by graphviz version 2.36.0 (20140111.2315)
 -->
<!-- Title: G Pages: 1 -->
<svg width="100%" height="100%"
 viewBox="0.00 0.00 261.65 226.33" xmlns="http://www.w3.org/2000/svg" xmlns:xlink="http://www.w3.org/1999/xlink">
<g id="graph0" class="graph" transform="scale(1 1) rotate(0) translate(4 222.329)">
<title>G</title>
<!-- 0 -->
<g id="node1" class="node"><title>0</title>
<ellipse fill="cadetblue" stroke="black" cx="102.56" cy="-113.336" rx="21.4286" ry="21.4286"/>
<text text-anchor="middle" x="102.56" y="-108.336" font-family="Times New Roman,serif" font-size="20.00">2</text>
</g>
<!-- 5 -->
<g id="node6" class="node"><title>5</title>
<ellipse fill="cadetblue" stroke="black" cx="21.2132" cy="-172.626" rx="21.4286" ry="21.4286"/>
<text text-anchor="middle" x="21.2132" y="-167.626" font-family="Times New Roman,serif" font-size="20.00">2</text>
</g>
<!-- 0&#45;&gt;5 -->
<g id="edge3" class="edge"><title>0&#45;&gt;5</title>
<path fill="none" stroke="black" stroke-width="2" d="M85.3085,-125.91C74.0921,-134.085 59.2708,-144.887 46.706,-154.045"/>
<polygon fill="black" stroke="black" stroke-width="2" points="44.4597,-151.352 38.4399,-160.07 48.5827,-157.008 44.4597,-151.352"/>
</g>
<!-- 6 -->
<g id="node7" class="node"><title>6</title>
<ellipse fill="brown" stroke="black" cx="225.09" cy="-58.2877" rx="21.4286" ry="21.4286"/>
<text text-anchor="middle" x="225.09" y="-53.2877" font-family="Times New Roman,serif" font-size="20.00">3</text>
</g>
<!-- 0&#45;&gt;6 -->
<g id="edge4" class="edge"><title>0&#45;&gt;6</title>
<path fill="none" stroke="black" stroke-width="2" d="M121.975,-104.613C141.933,-95.6471 173.24,-81.5821 196.125,-71.3005"/>
<polygon fill="black" stroke="black" stroke-width="2" points="197.673,-74.4424 205.36,-67.1517 194.804,-68.0571 197.673,-74.4424"/>
</g>
<!-- 7 -->
<g id="node8" class="node"><title>7</title>
<ellipse fill="dodgerblue" stroke="black" cx="162.736" cy="-42.3241" rx="21.4286" ry="21.4286"/>
<text text-anchor="middle" x="162.736" y="-37.3241" font-family="Times New Roman,serif" font-size="20.00">4</text>
</g>
<!-- 0&#45;&gt;7 -->
<g id="edge5" class="edge"><title>0&#45;&gt;7</title>
<path fill="none" stroke="black" stroke-width="2" d="M116.517,-96.8657C124.188,-87.8135 133.845,-76.4176 142.346,-66.3863"/>
<polygon fill="black" stroke="black" stroke-width="2" points="145.06,-68.5967 148.855,-58.7047 139.72,-64.0711 145.06,-68.5967"/>
</g>
<!-- 1 -->
<g id="node2" class="node"><title>1</title>
<ellipse fill="cadetblue" stroke="black" cx="135.039" cy="-191.191" rx="21.4286" ry="21.4286"/>
<text text-anchor="middle" x="135.039" y="-186.191" font-family="Times New Roman,serif" font-size="20.00">2</text>
</g>
<!-- 1&#45;&gt;6 -->
<g id="edge8" class="edge"><title>1&#45;&gt;6</title>
<path fill="none" stroke="black" stroke-width="2" d="M146.997,-173.543C162.472,-150.705 189.559,-110.727 207.412,-84.378"/>
<polygon fill="black" stroke="black" stroke-width="2" points="210.371,-86.2511 213.083,-76.0092 204.576,-82.3246 210.371,-86.2511"/>
</g>
<!-- 1&#45;&gt;7 -->
<g id="edge9" class="edge"><title>1&#45;&gt;7</title>
<path fill="none" stroke="black" stroke-width="2" d="M138.949,-170.178C143.65,-144.909 151.581,-102.28 156.982,-73.2521"/>
<polygon fill="black" stroke="black" stroke-width="2" points="160.458,-73.702 158.847,-63.2305 153.576,-72.4215 160.458,-73.702"/>
</g>
<!-- 2 -->
<g id="node3" class="node"><title>2</title>
<ellipse fill="cadetblue" stroke="black" cx="79.234" cy="-21.2132" rx="21.4286" ry="21.4286"/>
<text text-anchor="middle" x="79.234" y="-16.2132" font-family="Times New Roman,serif" font-size="20.00">2</text>
</g>
<!-- 2&#45;&gt;6 -->
<g id="edge12" class="edge"><title>2&#45;&gt;6</title>
<path fill="none" stroke="black" stroke-width="2" d="M95.0708,-35.4191C110.893,-48.269 136.567,-65.6269 162.735,-68.6285 173.173,-69.8257 184.525,-68.681 194.648,-66.7787"/>
<polygon fill="black" stroke="black" stroke-width="2" points="195.64,-70.1444 204.662,-64.5885 194.145,-63.3061 195.64,-70.1444"/>
</g>
<!-- 2&#45;&gt;7 -->
<g id="edge13" class="edge"><title>2&#45;&gt;7</title>
<path fill="none" stroke="black" stroke-width="2" d="M99.875,-26.4316C109.61,-28.8929 121.424,-31.8795 132.17,-34.5964"/>
<polygon fill="black" stroke="black" stroke-width="2" points="131.49,-38.0346 142.043,-37.0925 133.206,-31.2481 131.49,-38.0346"/>
</g>
<!-- 3 -->
<g id="node4" class="node"><title>3</title>
<ellipse fill="brown" stroke="black" cx="185.471" cy="-197.116" rx="21.4286" ry="21.4286"/>
<text text-anchor="middle" x="185.471" y="-192.116" font-family="Times New Roman,serif" font-size="20.00">3</text>
</g>
<!-- 3&#45;&gt;0 -->
<g id="edge1" class="edge"><title>3&#45;&gt;0</title>
<path fill="none" stroke="black" stroke-width="2" d="M170.263,-181.749C157.524,-168.877 139.167,-150.327 124.781,-135.79"/>
<polygon fill="black" stroke="black" stroke-width="2" points="127.193,-133.251 117.671,-128.605 122.217,-138.175 127.193,-133.251"/>
</g>
<!-- 3&#45;&gt;5 -->
<g id="edge15" class="edge"><title>3&#45;&gt;5</title>
<path fill="none" stroke="black" stroke-width="2" d="M169.692,-182.278C160.429,-174.866 148.034,-167.025 135.135,-164.887 107.321,-160.277 75.2518,-163.178 52.2389,-166.667"/>
<polygon fill="black" stroke="black" stroke-width="2" points="51.6533,-163.216 42.3505,-168.286 52.7848,-170.124 51.6533,-163.216"/>
</g>
<!-- 4 -->
<g id="node5" class="node"><title>4</title>
<ellipse fill="cadetblue" stroke="black" cx="232.437" cy="-124.601" rx="21.4286" ry="21.4286"/>
<text text-anchor="middle" x="232.437" y="-119.601" font-family="Times New Roman,serif" font-size="20.00">2</text>
</g>
<!-- 4&#45;&gt;0 -->
<g id="edge2" class="edge"><title>4&#45;&gt;0</title>
<path fill="none" stroke="black" stroke-width="2" d="M211.281,-122.766C190.243,-120.941 157.729,-118.121 133.735,-116.04"/>
<polygon fill="black" stroke="black" stroke-width="2" points="133.972,-112.547 123.707,-115.17 133.367,-119.521 133.972,-112.547"/>
</g>
<!-- 4&#45;&gt;1 -->
<g id="edge6" class="edge"><title>4&#45;&gt;1</title>
<path fill="none" stroke="black" stroke-width="2" d="M214.573,-136.815C199.608,-147.046 178.043,-161.79 161.143,-173.344"/>
<polygon fill="black" stroke="black" stroke-width="2" points="159.07,-170.522 152.79,-179.055 163.021,-176.3 159.07,-170.522"/>
</g>
<!-- 4&#45;&gt;2 -->
<g id="edge10" class="edge"><title>4&#45;&gt;2</title>
<path fill="none" stroke="black" stroke-width="2" d="M214.563,-112.539C187.694,-94.4067 136.735,-60.0174 105.595,-39.0024"/>
<polygon fill="black" stroke="black" stroke-width="2" points="107.241,-35.8913 96.9943,-33.1986 103.326,-41.6936 107.241,-35.8913"/>
</g>
<!-- 4&#45;&gt;3 -->
<g id="edge14" class="edge"><title>4&#45;&gt;3</title>
<path fill="none" stroke="black" stroke-width="2" d="M220.827,-142.526C215.352,-150.98 208.707,-161.239 202.663,-170.572"/>
<polygon fill="black" stroke="black" stroke-width="2" points="199.608,-168.85 197.109,-179.146 205.483,-172.655 199.608,-168.85"/>
</g>
<!-- 5&#45;&gt;1 -->
<g id="edge7" class="edge"><title>5&#45;&gt;1</title>
<path fill="none" stroke="black" stroke-width="2" d="M42.3562,-176.074C59.6865,-178.901 84.4582,-182.941 104.032,-186.134"/>
<polygon fill="black" stroke="black" stroke-width="2" points="103.576,-189.606 114.009,-187.761 104.703,-182.697 103.576,-189.606"/>
</g>
<!-- 5&#45;&gt;2 -->
<g id="edge11" class="edge"><title>5&#45;&gt;2</title>
<path fill="none" stroke="black" stroke-width="2" d="M28.9179,-152.519C38.8881,-126.501 56.341,-80.9556 67.8439,-50.9371"/>
<polygon fill="black" stroke="black" stroke-width="2" points="71.1874,-51.9931 71.4975,-41.4028 64.6509,-49.4883 71.1874,-51.9931"/>
</g>
<!-- 6&#45;&gt;3 -->
<g id="edge16" class="edge"><title>6&#45;&gt;3</title>
<path fill="none" stroke="black" stroke-width="2" d="M219.184,-78.8131C215.436,-91.8502 210.489,-109.083 206.134,-124.341 202.18,-138.193 197.821,-153.534 194.13,-166.545"/>
<polygon fill="black" stroke="black" stroke-width="2" points="190.694,-165.833 191.333,-176.408 197.429,-167.742 190.694,-165.833"/>
</g>
<!-- 6&#45;&gt;4 -->
<g id="edge18" class="edge"><title>6&#45;&gt;4</title>
<path fill="none" stroke="black" stroke-width="2" d="M227.455,-79.6346C227.94,-84.0124 228.46,-88.7062 228.975,-93.3499"/>
<polygon fill="black" stroke="black" stroke-width="2" points="225.497,-93.7401 230.076,-103.294 232.454,-92.9693 225.497,-93.7401"/>
</g>
<!-- 6&#45;&gt;7 -->
<g id="edge20" class="edge"><title>6&#45;&gt;7</title>
<path fill="none" stroke="black" stroke-width="2" d="M204.327,-52.972C200.789,-52.0662 197.049,-51.1085 193.319,-50.1538"/>
<polygon fill="black" stroke="black" stroke-width="2" points="194.177,-46.7605 183.621,-47.6709 192.441,-53.5418 194.177,-46.7605"/>
</g>
<!-- 7&#45;&gt;3 -->
<g id="edge17" class="edge"><title>7&#45;&gt;3</title>
<path fill="none" stroke="black" stroke-width="2" d="M165.85,-63.5227C169.722,-89.8906 176.368,-135.14 180.839,-165.582"/>
<polygon fill="black" stroke="black" stroke-width="2" points="177.406,-166.292 182.322,-175.677 184.331,-165.274 177.406,-166.292"/>
</g>
<!-- 7&#45;&gt;4 -->
<g id="edge19" class="edge"><title>7&#45;&gt;4</title>
<path fill="none" stroke="black" stroke-width="2" d="M176.507,-58.5793C186.626,-70.5244 200.543,-86.9528 211.963,-100.433"/>
<polygon fill="black" stroke="black" stroke-width="2" points="209.561,-103.012 218.695,-108.379 214.902,-98.4868 209.561,-103.012"/>
</g>
</g>
</svg>

