<?xml version="1.0" encoding="UTF-8" standalone="no"?>
<!DOCTYPE svg PUBLIC "-//W3C//DTD SVG 1.1//EN"
 "http://www.w3.org/Graphics/SVG/1.1/DTD/svg11.dtd">
<!-- Generated by graphviz version 2.36.0 (20140111.2315)
 -->
<!-- Title: G Pages: 1 -->
<svg width="100%" height="100%"
 viewBox="0.00 0.00 269.07 280.01" xmlns="http://www.w3.org/2000/svg" xmlns:xlink="http://www.w3.org/1999/xlink">
<g id="graph0" class="graph" transform="scale(1 1) rotate(0) translate(4 276.012)">
<title>G</title>
<!-- 0 -->
<g id="node1" class="node"><title>0</title>
<ellipse fill="cadetblue" stroke="black" cx="123.486" cy="-148.782" rx="21.4286" ry="21.4286"/>
<text text-anchor="middle" x="123.486" y="-143.782" font-family="Times New Roman,serif" font-size="20.00">2</text>
</g>
<!-- 5 -->
<g id="node6" class="node"><title>5</title>
<ellipse fill="cadetblue" stroke="black" cx="21.2132" cy="-72.9266" rx="21.4286" ry="21.4286"/>
<text text-anchor="middle" x="21.2132" y="-67.9266" font-family="Times New Roman,serif" font-size="20.00">2</text>
</g>
<!-- 0&#45;&gt;5 -->
<g id="edge3" class="edge"><title>0&#45;&gt;5</title>
<path fill="none" stroke="black" stroke-width="2" d="M106.137,-135.914C89.7289,-123.745 64.921,-105.345 46.3483,-91.5693"/>
<polygon fill="black" stroke="black" stroke-width="2" points="48.4231,-88.7506 38.3061,-85.6045 44.253,-94.3729 48.4231,-88.7506"/>
</g>
<!-- 7 -->
<g id="node8" class="node"><title>7</title>
<ellipse fill="cadetblue" stroke="black" cx="86.3909" cy="-72.4768" rx="21.4286" ry="21.4286"/>
<text text-anchor="middle" x="86.3909" y="-67.4768" font-family="Times New Roman,serif" font-size="20.00">2</text>
</g>
<!-- 0&#45;&gt;7 -->
<g id="edge4" class="edge"><title>0&#45;&gt;7</title>
<path fill="none" stroke="black" stroke-width="2" d="M114.125,-129.527C109.908,-120.852 104.842,-110.432 100.201,-100.885"/>
<polygon fill="black" stroke="black" stroke-width="2" points="103.268,-99.189 95.7485,-91.7257 96.9729,-102.25 103.268,-99.189"/>
</g>
<!-- 1 -->
<g id="node2" class="node"><title>1</title>
<ellipse fill="cadetblue" stroke="black" cx="46.0047" cy="-180.452" rx="21.4286" ry="21.4286"/>
<text text-anchor="middle" x="46.0047" y="-175.452" font-family="Times New Roman,serif" font-size="20.00">2</text>
</g>
<!-- 3 -->
<g id="node4" class="node"><title>3</title>
<ellipse fill="cadetblue" stroke="black" cx="132.168" cy="-250.799" rx="21.4286" ry="21.4286"/>
<text text-anchor="middle" x="132.168" y="-245.799" font-family="Times New Roman,serif" font-size="20.00">2</text>
</g>
<!-- 1&#45;&gt;3 -->
<g id="edge5" class="edge"><title>1&#45;&gt;3</title>
<path fill="none" stroke="black" stroke-width="2" d="M62.6178,-194.016C75.3722,-204.429 93.1798,-218.968 107.583,-230.727"/>
<polygon fill="black" stroke="black" stroke-width="2" points="105.646,-233.664 115.606,-237.277 110.073,-228.241 105.646,-233.664"/>
</g>
<!-- 1&#45;&gt;7 -->
<g id="edge8" class="edge"><title>1&#45;&gt;7</title>
<path fill="none" stroke="black" stroke-width="2" d="M53.5064,-160.396C59.6553,-143.956 68.4445,-120.458 75.3895,-101.89"/>
<polygon fill="black" stroke="black" stroke-width="2" points="78.7042,-103.018 78.9294,-92.4257 72.1479,-100.566 78.7042,-103.018"/>
</g>
<!-- 2 -->
<g id="node3" class="node"><title>2</title>
<ellipse fill="cadetblue" stroke="black" cx="151.304" cy="-21.2132" rx="21.4286" ry="21.4286"/>
<text text-anchor="middle" x="151.304" y="-16.2132" font-family="Times New Roman,serif" font-size="20.00">2</text>
</g>
<!-- 4 -->
<g id="node5" class="node"><title>4</title>
<ellipse fill="cadetblue" stroke="black" cx="239.856" cy="-84.2676" rx="21.4286" ry="21.4286"/>
<text text-anchor="middle" x="239.856" y="-79.2676" font-family="Times New Roman,serif" font-size="20.00">2</text>
</g>
<!-- 2&#45;&gt;4 -->
<g id="edge9" class="edge"><title>2&#45;&gt;4</title>
<path fill="none" stroke="black" stroke-width="2" d="M168.799,-33.6707C181.655,-42.8251 199.336,-55.4154 213.845,-65.7464"/>
<polygon fill="black" stroke="black" stroke-width="2" points="212.221,-68.8866 222.397,-71.836 216.281,-63.1845 212.221,-68.8866"/>
</g>
<!-- 6 -->
<g id="node7" class="node"><title>6</title>
<ellipse fill="cadetblue" stroke="black" cx="173.917" cy="-145.972" rx="21.4286" ry="21.4286"/>
<text text-anchor="middle" x="173.917" y="-140.972" font-family="Times New Roman,serif" font-size="20.00">2</text>
</g>
<!-- 2&#45;&gt;6 -->
<g id="edge11" class="edge"><title>2&#45;&gt;6</title>
<path fill="none" stroke="black" stroke-width="2" d="M155.089,-42.095C158.709,-62.0662 164.211,-92.4231 168.334,-115.171"/>
<polygon fill="black" stroke="black" stroke-width="2" points="164.893,-115.807 170.12,-125.022 171.78,-114.558 164.893,-115.807"/>
</g>
<!-- 3&#45;&gt;0 -->
<g id="edge1" class="edge"><title>3&#45;&gt;0</title>
<path fill="none" stroke="black" stroke-width="2" d="M130.369,-229.661C129.155,-215.394 127.531,-196.314 126.165,-180.269"/>
<polygon fill="black" stroke="black" stroke-width="2" points="129.648,-179.911 125.312,-170.244 122.673,-180.505 129.648,-179.911"/>
</g>
<!-- 4&#45;&gt;0 -->
<g id="edge2" class="edge"><title>4&#45;&gt;0</title>
<path fill="none" stroke="black" stroke-width="2" d="M221.159,-94.633C202.242,-105.12 172.782,-121.453 151.161,-133.44"/>
<polygon fill="black" stroke="black" stroke-width="2" points="149.185,-130.533 142.136,-138.443 152.579,-136.655 149.185,-130.533"/>
</g>
<!-- 5&#45;&gt;1 -->
<g id="edge6" class="edge"><title>5&#45;&gt;1</title>
<path fill="none" stroke="black" stroke-width="2" d="M25.9932,-93.6587C29.6395,-109.473 34.7211,-131.513 38.8511,-149.426"/>
<polygon fill="black" stroke="black" stroke-width="2" points="35.4974,-150.459 41.1547,-159.417 42.3185,-148.886 35.4974,-150.459"/>
</g>
<!-- 5&#45;&gt;2 -->
<g id="edge10" class="edge"><title>5&#45;&gt;2</title>
<path fill="none" stroke="black" stroke-width="2" d="M40.9712,-65.0725C62.4616,-56.5297 97.0451,-42.7821 121.765,-32.9557"/>
<polygon fill="black" stroke="black" stroke-width="2" points="123.36,-36.0878 131.36,-29.1413 120.775,-29.5829 123.36,-36.0878"/>
</g>
<!-- 6&#45;&gt;1 -->
<g id="edge7" class="edge"><title>6&#45;&gt;1</title>
<path fill="none" stroke="black" stroke-width="2" d="M153.366,-151.512C132.573,-157.117 100.191,-165.846 76.4245,-172.252"/>
<polygon fill="black" stroke="black" stroke-width="2" points="75.2494,-168.944 66.505,-174.926 77.0714,-175.703 75.2494,-168.944"/>
</g>
<!-- 6&#45;&gt;3 -->
<g id="edge13" class="edge"><title>6&#45;&gt;3</title>
<path fill="none" stroke="black" stroke-width="2" d="M166.065,-165.689C159.807,-181.402 150.949,-203.643 143.858,-221.448"/>
<polygon fill="black" stroke="black" stroke-width="2" points="140.576,-220.228 140.127,-230.814 147.079,-222.818 140.576,-220.228"/>
</g>
<!-- 6&#45;&gt;4 -->
<g id="edge14" class="edge"><title>6&#45;&gt;4</title>
<path fill="none" stroke="black" stroke-width="2" d="M189.544,-131.349C197.673,-123.741 207.77,-114.293 216.78,-105.862"/>
<polygon fill="black" stroke="black" stroke-width="2" points="219.431,-108.174 224.341,-98.7858 214.648,-103.063 219.431,-108.174"/>
</g>
<!-- 7&#45;&gt;2 -->
<g id="edge12" class="edge"><title>7&#45;&gt;2</title>
<path fill="none" stroke="black" stroke-width="2" d="M103.108,-59.2751C110.17,-53.6979 118.544,-47.0847 126.314,-40.9483"/>
<polygon fill="black" stroke="black" stroke-width="2" points="128.74,-43.4927 134.418,-34.5483 124.401,-37.9992 128.74,-43.4927"/>
</g>
<!-- 7&#45;&gt;5 -->
<g id="edge15" class="edge"><title>7&#45;&gt;5</title>
<path fill="none" stroke="black" stroke-width="2" d="M65.0493,-72.6241C61.1511,-72.651 57.0081,-72.6796 52.8847,-72.708"/>
<polygon fill="black" stroke="black" stroke-width="2" points="52.8015,-69.2084 42.8259,-72.7775 52.8499,-76.2083 52.8015,-69.2084"/>
</g>
<!-- 7&#45;&gt;6 -->
<g id="edge16" class="edge"><title>7&#45;&gt;6</title>
<path fill="none" stroke="black" stroke-width="2" d="M102.854,-86.3007C116.057,-97.3874 134.78,-113.109 149.694,-125.632"/>
<polygon fill="black" stroke="black" stroke-width="2" points="147.619,-128.46 157.528,-132.21 152.12,-123.099 147.619,-128.46"/>
</g>
</g>
</svg>

