<?xml version="1.0" encoding="UTF-8" standalone="no"?>
<!DOCTYPE svg PUBLIC "-//W3C//DTD SVG 1.1//EN"
 "http://www.w3.org/Graphics/SVG/1.1/DTD/svg11.dtd">
<!-- Generated by graphviz version 2.36.0 (20140111.2315)
 -->
<!-- Title: G Pages: 1 -->
<svg width="100%" height="100%"
 viewBox="0.00 0.00 270.48 261.01" xmlns="http://www.w3.org/2000/svg" xmlns:xlink="http://www.w3.org/1999/xlink">
<g id="graph0" class="graph" transform="scale(1 1) rotate(0) translate(4 257.014)">
<title>G</title>
<!-- 0 -->
<g id="node1" class="node"><title>0</title>
<ellipse fill="cadetblue" stroke="black" cx="51.3214" cy="-43.946" rx="21.4286" ry="21.4286"/>
<text text-anchor="middle" x="51.3214" y="-38.946" font-family="Times New Roman,serif" font-size="20.00">2</text>
</g>
<!-- 5 -->
<g id="node6" class="node"><title>5</title>
<ellipse fill="brown" stroke="black" cx="21.2132" cy="-121.678" rx="21.4286" ry="21.4286"/>
<text text-anchor="middle" x="21.2132" y="-116.678" font-family="Times New Roman,serif" font-size="20.00">3</text>
</g>
<!-- 0&#45;&gt;5 -->
<g id="edge3" class="edge"><title>0&#45;&gt;5</title>
<path fill="none" stroke="black" stroke-width="2" d="M43.5678,-63.964C40.2315,-72.5776 36.2639,-82.821 32.6039,-92.2702"/>
<polygon fill="black" stroke="black" stroke-width="2" points="29.2887,-91.1391 28.9405,-101.728 35.8162,-93.6674 29.2887,-91.1391"/>
</g>
<!-- 6 -->
<g id="node7" class="node"><title>6</title>
<ellipse fill="cadetblue" stroke="black" cx="140.509" cy="-79.0532" rx="21.4286" ry="21.4286"/>
<text text-anchor="middle" x="140.509" y="-74.0532" font-family="Times New Roman,serif" font-size="20.00">2</text>
</g>
<!-- 0&#45;&gt;6 -->
<g id="edge4" class="edge"><title>0&#45;&gt;6</title>
<path fill="none" stroke="black" stroke-width="2" d="M71.1151,-51.7374C82.8111,-56.3413 97.8444,-62.2589 110.927,-67.4085"/>
<polygon fill="black" stroke="black" stroke-width="2" points="109.876,-70.7561 120.463,-71.1622 112.44,-64.2426 109.876,-70.7561"/>
</g>
<!-- 7 -->
<g id="node8" class="node"><title>7</title>
<ellipse fill="dodgerblue" stroke="black" cx="125.326" cy="-21.2132" rx="21.4286" ry="21.4286"/>
<text text-anchor="middle" x="125.326" y="-16.2132" font-family="Times New Roman,serif" font-size="20.00">4</text>
</g>
<!-- 0&#45;&gt;7 -->
<g id="edge5" class="edge"><title>0&#45;&gt;7</title>
<path fill="none" stroke="black" stroke-width="2" d="M71.9359,-37.6136C79.1531,-35.3967 87.4127,-32.8595 95.2435,-30.4541"/>
<polygon fill="black" stroke="black" stroke-width="2" points="96.291,-33.7938 104.822,-27.5116 94.2355,-27.1023 96.291,-33.7938"/>
</g>
<!-- 1 -->
<g id="node2" class="node"><title>1</title>
<ellipse fill="cadetblue" stroke="black" cx="109.666" cy="-231.8" rx="21.4286" ry="21.4286"/>
<text text-anchor="middle" x="109.666" y="-226.8" font-family="Times New Roman,serif" font-size="20.00">2</text>
</g>
<!-- 1&#45;&gt;5 -->
<g id="edge8" class="edge"><title>1&#45;&gt;5</title>
<path fill="none" stroke="black" stroke-width="2" d="M96.232,-215.075C81.5551,-196.803 57.8964,-167.348 41.0744,-146.405"/>
<polygon fill="black" stroke="black" stroke-width="2" points="43.7648,-144.166 34.7737,-138.561 38.3073,-148.549 43.7648,-144.166"/>
</g>
<!-- 2 -->
<g id="node3" class="node"><title>2</title>
<ellipse fill="cadetblue" stroke="black" cx="241.271" cy="-33.4351" rx="21.4286" ry="21.4286"/>
<text text-anchor="middle" x="241.271" y="-28.4351" font-family="Times New Roman,serif" font-size="20.00">2</text>
</g>
<!-- 2&#45;&gt;7 -->
<g id="edge11" class="edge"><title>2&#45;&gt;7</title>
<path fill="none" stroke="black" stroke-width="2" d="M220.005,-31.1934C202.272,-29.3241 176.755,-26.6343 156.678,-24.518"/>
<polygon fill="black" stroke="black" stroke-width="2" points="156.77,-21.0084 146.458,-23.4407 156.036,-27.9698 156.77,-21.0084"/>
</g>
<!-- 3 -->
<g id="node4" class="node"><title>3</title>
<ellipse fill="cadetblue" stroke="black" cx="80.6804" cy="-147.518" rx="21.4286" ry="21.4286"/>
<text text-anchor="middle" x="80.6804" y="-142.518" font-family="Times New Roman,serif" font-size="20.00">2</text>
</g>
<!-- 3&#45;&gt;0 -->
<g id="edge1" class="edge"><title>3&#45;&gt;0</title>
<path fill="none" stroke="black" stroke-width="2" d="M74.88,-127.055C70.6176,-112.019 64.7554,-91.3382 59.9452,-74.3687"/>
<polygon fill="black" stroke="black" stroke-width="2" points="63.2044,-73.0324 57.1098,-64.366 56.4697,-74.9415 63.2044,-73.0324"/>
</g>
<!-- 3&#45;&gt;1 -->
<g id="edge6" class="edge"><title>3&#45;&gt;1</title>
<path fill="none" stroke="black" stroke-width="2" d="M87.697,-167.92C91.2218,-178.169 95.559,-190.781 99.4459,-202.083"/>
<polygon fill="black" stroke="black" stroke-width="2" points="96.1521,-203.268 102.714,-211.586 102.772,-200.991 96.1521,-203.268"/>
</g>
<!-- 3&#45;&gt;7 -->
<g id="edge14" class="edge"><title>3&#45;&gt;7</title>
<path fill="none" stroke="black" stroke-width="2" d="M87.7547,-127.505C95.0265,-106.932 106.434,-74.661 114.772,-51.0705"/>
<polygon fill="black" stroke="black" stroke-width="2" points="118.105,-52.146 118.137,-41.5512 111.505,-49.813 118.105,-52.146"/>
</g>
<!-- 4 -->
<g id="node5" class="node"><title>4</title>
<ellipse fill="cadetblue" stroke="black" cx="190.384" cy="-129.485" rx="21.4286" ry="21.4286"/>
<text text-anchor="middle" x="190.384" y="-124.485" font-family="Times New Roman,serif" font-size="20.00">2</text>
</g>
<!-- 4&#45;&gt;0 -->
<g id="edge2" class="edge"><title>4&#45;&gt;0</title>
<path fill="none" stroke="black" stroke-width="2" d="M170.622,-121.633C156.62,-115.753 137.609,-107.115 121.887,-97.631 105.669,-87.8469 88.7388,-75.0656 75.528,-64.4288"/>
<polygon fill="black" stroke="black" stroke-width="2" points="77.3843,-61.4254 67.4285,-57.8016 72.9515,-66.843 77.3843,-61.4254"/>
</g>
<!-- 4&#45;&gt;1 -->
<g id="edge7" class="edge"><title>4&#45;&gt;1</title>
<path fill="none" stroke="black" stroke-width="2" d="M177.055,-146.38C164.027,-162.894 144.045,-188.223 129.219,-207.016"/>
<polygon fill="black" stroke="black" stroke-width="2" points="126.461,-204.861 123.015,-214.88 131.956,-209.197 126.461,-204.861"/>
</g>
<!-- 4&#45;&gt;2 -->
<g id="edge9" class="edge"><title>4&#45;&gt;2</title>
<path fill="none" stroke="black" stroke-width="2" d="M200.438,-110.508C207.826,-96.5637 217.986,-77.3852 226.324,-61.6482"/>
<polygon fill="black" stroke="black" stroke-width="2" points="229.65,-62.847 231.239,-52.372 223.464,-59.5699 229.65,-62.847"/>
</g>
<!-- 5&#45;&gt;3 -->
<g id="edge12" class="edge"><title>5&#45;&gt;3</title>
<path fill="none" stroke="black" stroke-width="2" d="M40.685,-130.139C44.2417,-131.685 48.0217,-133.327 51.7838,-134.962"/>
<polygon fill="black" stroke="black" stroke-width="2" points="50.3948,-138.174 60.9613,-138.95 53.1845,-131.754 50.3948,-138.174"/>
</g>
<!-- 5&#45;&gt;7 -->
<g id="edge18" class="edge"><title>5&#45;&gt;7</title>
<path fill="none" stroke="black" stroke-width="2" d="M36.5755,-106.854C54.0299,-90.0115 82.6827,-62.3627 102.695,-43.0512"/>
<polygon fill="black" stroke="black" stroke-width="2" points="105.135,-45.5605 109.901,-36.098 100.275,-40.5233 105.135,-45.5605"/>
</g>
<!-- 6&#45;&gt;2 -->
<g id="edge10" class="edge"><title>6&#45;&gt;2</title>
<path fill="none" stroke="black" stroke-width="2" d="M159.937,-70.2576C174.853,-63.5049 195.677,-54.0769 212.521,-46.4514"/>
<polygon fill="black" stroke="black" stroke-width="2" points="214.237,-49.5166 221.903,-42.2037 211.35,-43.1397 214.237,-49.5166"/>
</g>
<!-- 6&#45;&gt;3 -->
<g id="edge13" class="edge"><title>6&#45;&gt;3</title>
<path fill="none" stroke="black" stroke-width="2" d="M126.331,-95.2784C118.88,-103.805 109.608,-114.415 101.371,-123.841"/>
<polygon fill="black" stroke="black" stroke-width="2" points="98.702,-121.576 94.7573,-131.409 103.973,-126.182 98.702,-121.576"/>
</g>
<!-- 6&#45;&gt;4 -->
<g id="edge15" class="edge"><title>6&#45;&gt;4</title>
<path fill="none" stroke="black" stroke-width="2" d="M155.473,-94.1843C159.517,-98.2734 163.98,-102.786 168.325,-107.179"/>
<polygon fill="black" stroke="black" stroke-width="2" points="165.91,-109.715 175.431,-114.364 170.887,-104.793 165.91,-109.715"/>
</g>
<!-- 6&#45;&gt;5 -->
<g id="edge17" class="edge"><title>6&#45;&gt;5</title>
<path fill="none" stroke="black" stroke-width="2" d="M120.272,-86.284C101.335,-93.0506 72.803,-103.245 51.217,-110.958"/>
<polygon fill="black" stroke="black" stroke-width="2" points="49.7887,-107.751 41.5494,-114.412 52.1441,-114.343 49.7887,-107.751"/>
</g>
<!-- 7&#45;&gt;4 -->
<g id="edge16" class="edge"><title>7&#45;&gt;4</title>
<path fill="none" stroke="black" stroke-width="2" d="M140.237,-36.4451C146.564,-43.4067 153.712,-51.9833 159.131,-60.4754 166.948,-72.7226 173.838,-87.2501 179.146,-99.8094"/>
<polygon fill="black" stroke="black" stroke-width="2" points="176.032,-101.442 183.05,-109.379 182.513,-98.7974 176.032,-101.442"/>
</g>
<!-- 7&#45;&gt;6 -->
<g id="edge19" class="edge"><title>7&#45;&gt;6</title>
<path fill="none" stroke="black" stroke-width="2" d="M130.722,-41.7683C131.29,-43.9316 131.876,-46.1633 132.465,-48.4089"/>
<polygon fill="black" stroke="black" stroke-width="2" points="129.104,-49.3905 135.029,-58.1742 135.875,-47.6132 129.104,-49.3905"/>
</g>
</g>
</svg>

