<?xml version="1.0" encoding="UTF-8" standalone="no"?>
<!DOCTYPE svg PUBLIC "-//W3C//DTD SVG 1.1//EN"
 "http://www.w3.org/Graphics/SVG/1.1/DTD/svg11.dtd">
<!-- Generated by graphviz version 2.36.0 (20140111.2315)
 -->
<!-- Title: G Pages: 1 -->
<svg width="100%" height="100%"
 viewBox="0.00 0.00 227.46 317.32" xmlns="http://www.w3.org/2000/svg" xmlns:xlink="http://www.w3.org/1999/xlink">
<g id="graph0" class="graph" transform="scale(1 1) rotate(0) translate(4 313.32)">
<title>G</title>
<!-- 0 -->
<g id="node1" class="node"><title>0</title>
<ellipse fill="cadetblue" stroke="black" cx="30.2142" cy="-269.514" rx="21.4286" ry="21.4286"/>
<text text-anchor="middle" x="30.2142" y="-264.514" font-family="Times New Roman,serif" font-size="20.00">2</text>
</g>
<!-- 5 -->
<g id="node6" class="node"><title>5</title>
<ellipse fill="brown" stroke="black" cx="21.2132" cy="-162.268" rx="21.4286" ry="21.4286"/>
<text text-anchor="middle" x="21.2132" y="-157.268" font-family="Times New Roman,serif" font-size="20.00">3</text>
</g>
<!-- 0&#45;&gt;5 -->
<g id="edge3" class="edge"><title>0&#45;&gt;5</title>
<path fill="none" stroke="black" stroke-width="2" d="M28.4359,-248.326C27.1291,-232.756 25.3318,-211.341 23.8571,-193.77"/>
<polygon fill="black" stroke="black" stroke-width="2" points="27.312,-193.084 22.9878,-183.412 20.3365,-193.67 27.312,-193.084"/>
</g>
<!-- 6 -->
<g id="node7" class="node"><title>6</title>
<ellipse fill="dodgerblue" stroke="black" cx="147.987" cy="-133.618" rx="21.4286" ry="21.4286"/>
<text text-anchor="middle" x="147.987" y="-128.618" font-family="Times New Roman,serif" font-size="20.00">4</text>
</g>
<!-- 0&#45;&gt;6 -->
<g id="edge4" class="edge"><title>0&#45;&gt;6</title>
<path fill="none" stroke="black" stroke-width="2" d="M44.1867,-253.392C64.8166,-229.587 103.554,-184.889 127.428,-157.34"/>
<polygon fill="black" stroke="black" stroke-width="2" points="130.128,-159.569 134.032,-149.72 124.838,-154.984 130.128,-159.569"/>
</g>
<!-- 7 -->
<g id="node8" class="node"><title>7</title>
<ellipse fill="turquoise" stroke="black" cx="71.6447" cy="-122.592" rx="21.4286" ry="21.4286"/>
<text text-anchor="middle" x="71.6447" y="-117.592" font-family="Times New Roman,serif" font-size="20.00">5</text>
</g>
<!-- 0&#45;&gt;7 -->
<g id="edge5" class="edge"><title>0&#45;&gt;7</title>
<path fill="none" stroke="black" stroke-width="2" d="M35.9749,-249.085C42.9849,-224.226 54.8872,-182.018 62.9985,-153.254"/>
<polygon fill="black" stroke="black" stroke-width="2" points="66.4538,-153.896 65.7993,-143.321 59.7165,-151.996 66.4538,-153.896"/>
</g>
<!-- 1 -->
<g id="node2" class="node"><title>1</title>
<ellipse fill="cadetblue" stroke="black" cx="45.9788" cy="-21.2132" rx="21.4286" ry="21.4286"/>
<text text-anchor="middle" x="45.9788" y="-16.2132" font-family="Times New Roman,serif" font-size="20.00">2</text>
</g>
<!-- 1&#45;&gt;6 -->
<g id="edge8" class="edge"><title>1&#45;&gt;6</title>
<path fill="none" stroke="black" stroke-width="2" d="M60.594,-37.318C77.9629,-56.4571 107.079,-88.541 126.889,-110.37"/>
<polygon fill="black" stroke="black" stroke-width="2" points="124.415,-112.852 133.727,-117.905 129.599,-108.148 124.415,-112.852"/>
</g>
<!-- 1&#45;&gt;7 -->
<g id="edge9" class="edge"><title>1&#45;&gt;7</title>
<path fill="none" stroke="black" stroke-width="2" d="M51.2968,-42.219C54.9343,-56.587 59.8155,-75.8676 63.8853,-91.9431"/>
<polygon fill="black" stroke="black" stroke-width="2" points="60.574,-93.1252 66.4213,-101.96 67.3599,-91.4072 60.574,-93.1252"/>
</g>
<!-- 2 -->
<g id="node3" class="node"><title>2</title>
<ellipse fill="cadetblue" stroke="black" cx="198.246" cy="-44.4649" rx="21.4286" ry="21.4286"/>
<text text-anchor="middle" x="198.246" y="-39.4649" font-family="Times New Roman,serif" font-size="20.00">2</text>
</g>
<!-- 2&#45;&gt;6 -->
<g id="edge12" class="edge"><title>2&#45;&gt;6</title>
<path fill="none" stroke="black" stroke-width="2" d="M187.587,-63.3719C180.61,-75.7478 171.376,-92.1279 163.58,-105.957"/>
<polygon fill="black" stroke="black" stroke-width="2" points="160.32,-104.614 158.458,-115.044 166.417,-108.051 160.32,-104.614"/>
</g>
<!-- 2&#45;&gt;7 -->
<g id="edge13" class="edge"><title>2&#45;&gt;7</title>
<path fill="none" stroke="black" stroke-width="2" d="M180.107,-55.6587C158.766,-68.8283 123.137,-90.8159 98.5705,-105.976"/>
<polygon fill="black" stroke="black" stroke-width="2" points="96.4218,-103.189 89.7499,-111.419 100.098,-109.146 96.4218,-103.189"/>
</g>
<!-- 3 -->
<g id="node4" class="node"><title>3</title>
<ellipse fill="brown" stroke="black" cx="131.487" cy="-288.107" rx="21.4286" ry="21.4286"/>
<text text-anchor="middle" x="131.487" y="-283.107" font-family="Times New Roman,serif" font-size="20.00">3</text>
</g>
<!-- 3&#45;&gt;0 -->
<g id="edge1" class="edge"><title>3&#45;&gt;0</title>
<path fill="none" stroke="black" stroke-width="2" d="M110.504,-284.254C96.2457,-281.637 77.145,-278.13 61.1509,-275.194"/>
<polygon fill="black" stroke="black" stroke-width="2" points="61.6388,-271.725 51.1712,-273.362 60.3748,-278.61 61.6388,-271.725"/>
</g>
<!-- 3&#45;&gt;7 -->
<g id="edge17" class="edge"><title>3&#45;&gt;7</title>
<path fill="none" stroke="black" stroke-width="2" d="M124.269,-268.142C113.845,-239.312 94.5039,-185.817 82.3962,-152.329"/>
<polygon fill="black" stroke="black" stroke-width="2" points="85.5804,-150.842 78.8887,-142.628 78.9974,-153.222 85.5804,-150.842"/>
</g>
<!-- 4 -->
<g id="node5" class="node"><title>4</title>
<ellipse fill="cadetblue" stroke="black" cx="174.14" cy="-191.412" rx="21.4286" ry="21.4286"/>
<text text-anchor="middle" x="174.14" y="-186.412" font-family="Times New Roman,serif" font-size="20.00">2</text>
</g>
<!-- 4&#45;&gt;0 -->
<g id="edge2" class="edge"><title>4&#45;&gt;0</title>
<path fill="none" stroke="black" stroke-width="2" d="M155.324,-201.622C130.542,-215.07 86.7615,-238.828 58.1186,-254.372"/>
<polygon fill="black" stroke="black" stroke-width="2" points="56.1545,-251.455 49.0345,-259.301 59.4932,-257.608 56.1545,-251.455"/>
</g>
<!-- 4&#45;&gt;1 -->
<g id="edge6" class="edge"><title>4&#45;&gt;1</title>
<path fill="none" stroke="black" stroke-width="2" d="M156.927,-178.29C148.128,-171.118 137.574,-161.763 129.365,-152.196 101.412,-119.622 75.9729,-76.8972 60.7342,-49.25"/>
<polygon fill="black" stroke="black" stroke-width="2" points="63.6334,-47.2549 55.7821,-40.141 57.4835,-50.5984 63.6334,-47.2549"/>
</g>
<!-- 4&#45;&gt;2 -->
<g id="edge10" class="edge"><title>4&#45;&gt;2</title>
<path fill="none" stroke="black" stroke-width="2" d="M177.594,-170.358C181.657,-145.588 188.441,-104.232 193.119,-75.7179"/>
<polygon fill="black" stroke="black" stroke-width="2" points="196.633,-75.9145 194.798,-65.4798 189.726,-74.7813 196.633,-75.9145"/>
</g>
<!-- 4&#45;&gt;3 -->
<g id="edge14" class="edge"><title>4&#45;&gt;3</title>
<path fill="none" stroke="black" stroke-width="2" d="M165.509,-210.979C159.38,-224.872 151.053,-243.75 144.172,-259.351"/>
<polygon fill="black" stroke="black" stroke-width="2" points="140.94,-258.006 140.106,-268.568 147.344,-260.831 140.94,-258.006"/>
</g>
<!-- 4&#45;&gt;7 -->
<g id="edge20" class="edge"><title>4&#45;&gt;7</title>
<path fill="none" stroke="black" stroke-width="2" d="M156.287,-179.424C140.12,-168.569 116.1,-152.441 97.7732,-140.136"/>
<polygon fill="black" stroke="black" stroke-width="2" points="99.5466,-137.111 89.2934,-134.442 95.6445,-142.923 99.5466,-137.111"/>
</g>
<!-- 5&#45;&gt;1 -->
<g id="edge7" class="edge"><title>5&#45;&gt;1</title>
<path fill="none" stroke="black" stroke-width="2" d="M24.9209,-141.15C29.0426,-117.675 35.7412,-79.5221 40.4751,-52.5599"/>
<polygon fill="black" stroke="black" stroke-width="2" points="43.9637,-52.9295 42.2458,-42.4748 37.0691,-51.7189 43.9637,-52.9295"/>
</g>
<!-- 5&#45;&gt;2 -->
<g id="edge11" class="edge"><title>5&#45;&gt;2</title>
<path fill="none" stroke="black" stroke-width="2" d="M42.3626,-158.832C56.6909,-155.806 75.6069,-150.401 90.2438,-141.193 123.451,-120.304 156.257,-88.9961 176.84,-67.6992"/>
<polygon fill="black" stroke="black" stroke-width="2" points="179.485,-69.9978 183.849,-60.3437 174.417,-65.169 179.485,-69.9978"/>
</g>
<!-- 5&#45;&gt;3 -->
<g id="edge15" class="edge"><title>5&#45;&gt;3</title>
<path fill="none" stroke="black" stroke-width="2" d="M35.4039,-178.461C54.5102,-200.264 88.6444,-239.217 110.663,-264.343"/>
<polygon fill="black" stroke="black" stroke-width="2" points="108.128,-266.761 117.351,-271.975 113.393,-262.148 108.128,-266.761"/>
</g>
<!-- 5&#45;&gt;4 -->
<g id="edge18" class="edge"><title>5&#45;&gt;4</title>
<path fill="none" stroke="black" stroke-width="2" d="M42.1564,-166.259C68.2066,-171.223 112.91,-179.743 142.986,-185.474"/>
<polygon fill="black" stroke="black" stroke-width="2" points="142.48,-188.941 152.959,-187.375 143.791,-182.065 142.48,-188.941"/>
</g>
<!-- 6&#45;&gt;3 -->
<g id="edge16" class="edge"><title>6&#45;&gt;3</title>
<path fill="none" stroke="black" stroke-width="2" d="M145.727,-154.775C142.917,-181.091 138.093,-226.252 134.849,-256.634"/>
<polygon fill="black" stroke="black" stroke-width="2" points="131.354,-256.394 133.773,-266.709 138.315,-257.138 131.354,-256.394"/>
</g>
<!-- 6&#45;&gt;4 -->
<g id="edge19" class="edge"><title>6&#45;&gt;4</title>
<path fill="none" stroke="black" stroke-width="2" d="M156.841,-153.184C158.204,-156.197 159.636,-159.361 161.068,-162.525"/>
<polygon fill="black" stroke="black" stroke-width="2" points="157.983,-164.198 165.295,-171.865 164.361,-161.312 157.983,-164.198"/>
</g>
<!-- 6&#45;&gt;5 -->
<g id="edge21" class="edge"><title>6&#45;&gt;5</title>
<path fill="none" stroke="black" stroke-width="2" d="M127.053,-138.349C106.683,-142.952 75.489,-150.002 52.236,-155.257"/>
<polygon fill="black" stroke="black" stroke-width="2" points="51.1608,-151.911 42.1784,-157.53 52.7039,-158.739 51.1608,-151.911"/>
</g>
<!-- 7&#45;&gt;5 -->
<g id="edge22" class="edge"><title>7&#45;&gt;5</title>
<path fill="none" stroke="black" stroke-width="2" d="M54.8517,-135.804C52.0741,-137.989 49.1425,-140.295 46.2147,-142.599"/>
<polygon fill="black" stroke="black" stroke-width="2" points="43.8001,-140.045 38.1048,-148.979 48.1282,-145.546 43.8001,-140.045"/>
</g>
<!-- 7&#45;&gt;6 -->
<g id="edge23" class="edge"><title>7&#45;&gt;6</title>
<path fill="none" stroke="black" stroke-width="2" d="M92.9102,-125.664C100.273,-126.727 108.686,-127.942 116.684,-129.097"/>
<polygon fill="black" stroke="black" stroke-width="2" points="116.438,-132.598 126.835,-130.563 117.438,-125.67 116.438,-132.598"/>
</g>
</g>
</svg>

