<?xml version="1.0" encoding="UTF-8" standalone="no"?>
<!DOCTYPE svg PUBLIC "-//W3C//DTD SVG 1.1//EN"
 "http://www.w3.org/Graphics/SVG/1.1/DTD/svg11.dtd">
<!-- Generated by graphviz version 2.36.0 (20140111.2315)
 -->
<!-- Title: G Pages: 1 -->
<svg width="100%" height="100%"
 viewBox="0.00 0.00 240.57 263.59" xmlns="http://www.w3.org/2000/svg" xmlns:xlink="http://www.w3.org/1999/xlink">
<g id="graph0" class="graph" transform="scale(1 1) rotate(0) translate(4 259.588)">
<title>G</title>
<!-- 0 -->
<g id="node1" class="node"><title>0</title>
<ellipse fill="cadetblue" stroke="black" cx="143.362" cy="-65.1583" rx="21.4286" ry="21.4286"/>
<text text-anchor="middle" x="143.362" y="-60.1583" font-family="Times New Roman,serif" font-size="20.00">2</text>
</g>
<!-- 4 -->
<g id="node5" class="node"><title>4</title>
<ellipse fill="cadetblue" stroke="black" cx="168.72" cy="-192.4" rx="21.4286" ry="21.4286"/>
<text text-anchor="middle" x="168.72" y="-187.4" font-family="Times New Roman,serif" font-size="20.00">2</text>
</g>
<!-- 0&#45;&gt;4 -->
<g id="edge2" class="edge"><title>0&#45;&gt;4</title>
<path fill="none" stroke="black" stroke-width="2" d="M147.549,-86.1697C151.623,-106.614 157.863,-137.924 162.514,-161.262"/>
<polygon fill="black" stroke="black" stroke-width="2" points="159.139,-162.234 164.526,-171.357 166.004,-160.866 159.139,-162.234"/>
</g>
<!-- 5 -->
<g id="node6" class="node"><title>5</title>
<ellipse fill="cadetblue" stroke="black" cx="21.2132" cy="-95.4774" rx="21.4286" ry="21.4286"/>
<text text-anchor="middle" x="21.2132" y="-90.4774" font-family="Times New Roman,serif" font-size="20.00">2</text>
</g>
<!-- 0&#45;&gt;5 -->
<g id="edge3" class="edge"><title>0&#45;&gt;5</title>
<path fill="none" stroke="black" stroke-width="2" d="M122.641,-70.3016C103.25,-75.1146 74.0365,-82.3659 51.9343,-87.852"/>
<polygon fill="black" stroke="black" stroke-width="2" points="50.8979,-84.5029 42.0357,-90.309 52.5843,-91.2968 50.8979,-84.5029"/>
</g>
<!-- 1 -->
<g id="node2" class="node"><title>1</title>
<ellipse fill="cadetblue" stroke="black" cx="60.7015" cy="-234.374" rx="21.4286" ry="21.4286"/>
<text text-anchor="middle" x="60.7015" y="-229.374" font-family="Times New Roman,serif" font-size="20.00">2</text>
</g>
<!-- 3 -->
<g id="node4" class="node"><title>3</title>
<ellipse fill="cadetblue" stroke="black" cx="118.288" cy="-150.714" rx="21.4286" ry="21.4286"/>
<text text-anchor="middle" x="118.288" y="-145.714" font-family="Times New Roman,serif" font-size="20.00">2</text>
</g>
<!-- 1&#45;&gt;3 -->
<g id="edge5" class="edge"><title>1&#45;&gt;3</title>
<path fill="none" stroke="black" stroke-width="2" d="M72.9142,-216.632C80.8545,-205.097 91.3467,-189.854 100.242,-176.932"/>
<polygon fill="black" stroke="black" stroke-width="2" points="103.306,-178.652 106.093,-168.43 97.5402,-174.683 103.306,-178.652"/>
</g>
<!-- 7 -->
<g id="node8" class="node"><title>7</title>
<ellipse fill="brown" stroke="black" cx="33.6827" cy="-160.424" rx="21.4286" ry="21.4286"/>
<text text-anchor="middle" x="33.6827" y="-155.424" font-family="Times New Roman,serif" font-size="20.00">3</text>
</g>
<!-- 1&#45;&gt;7 -->
<g id="edge8" class="edge"><title>1&#45;&gt;7</title>
<path fill="none" stroke="black" stroke-width="2" d="M53.3185,-214.167C50.5859,-206.688 47.429,-198.048 44.4566,-189.912"/>
<polygon fill="black" stroke="black" stroke-width="2" points="47.6825,-188.543 40.9632,-180.351 41.1076,-190.945 47.6825,-188.543"/>
</g>
<!-- 2 -->
<g id="node3" class="node"><title>2</title>
<ellipse fill="cadetblue" stroke="black" cx="75.6558" cy="-21.2132" rx="21.4286" ry="21.4286"/>
<text text-anchor="middle" x="75.6558" y="-16.2132" font-family="Times New Roman,serif" font-size="20.00">2</text>
</g>
<!-- 2&#45;&gt;5 -->
<g id="edge9" class="edge"><title>2&#45;&gt;5</title>
<path fill="none" stroke="black" stroke-width="2" d="M63.0287,-38.4376C56.1574,-47.8107 47.5246,-59.5866 39.8897,-70.0011"/>
<polygon fill="black" stroke="black" stroke-width="2" points="36.8615,-68.2121 33.7718,-78.3465 42.507,-72.3508 36.8615,-68.2121"/>
</g>
<!-- 3&#45;&gt;0 -->
<g id="edge1" class="edge"><title>3&#45;&gt;0</title>
<path fill="none" stroke="black" stroke-width="2" d="M124.358,-130.003C127.407,-119.599 131.159,-106.797 134.521,-95.3246"/>
<polygon fill="black" stroke="black" stroke-width="2" points="137.894,-96.2589 137.348,-85.6782 131.177,-94.2902 137.894,-96.2589"/>
</g>
<!-- 6 -->
<g id="node7" class="node"><title>6</title>
<ellipse fill="cadetblue" stroke="black" cx="211.354" cy="-84.745" rx="21.4286" ry="21.4286"/>
<text text-anchor="middle" x="211.354" y="-79.745" font-family="Times New Roman,serif" font-size="20.00">2</text>
</g>
<!-- 3&#45;&gt;6 -->
<g id="edge13" class="edge"><title>3&#45;&gt;6</title>
<path fill="none" stroke="black" stroke-width="2" d="M135.793,-138.306C149.832,-128.354 169.74,-114.243 185.597,-103.002"/>
<polygon fill="black" stroke="black" stroke-width="2" points="187.793,-105.736 193.927,-97.0976 183.745,-100.025 187.793,-105.736"/>
</g>
<!-- 3&#45;&gt;7 -->
<g id="edge14" class="edge"><title>3&#45;&gt;7</title>
<path fill="none" stroke="black" stroke-width="2" d="M96.9388,-153.164C87.3196,-154.268 75.7666,-155.594 65.1811,-156.809"/>
<polygon fill="black" stroke="black" stroke-width="2" points="64.5611,-153.357 55.0255,-157.975 65.3594,-160.312 64.5611,-153.357"/>
</g>
<!-- 4&#45;&gt;1 -->
<g id="edge6" class="edge"><title>4&#45;&gt;1</title>
<path fill="none" stroke="black" stroke-width="2" d="M148.908,-200.099C132.49,-206.478 108.911,-215.641 90.2613,-222.888"/>
<polygon fill="black" stroke="black" stroke-width="2" points="88.8072,-219.698 80.7539,-226.582 91.3426,-226.223 88.8072,-219.698"/>
</g>
<!-- 4&#45;&gt;6 -->
<g id="edge15" class="edge"><title>4&#45;&gt;6</title>
<path fill="none" stroke="black" stroke-width="2" d="M176.539,-172.654C183.019,-156.292 192.326,-132.792 199.687,-114.205"/>
<polygon fill="black" stroke="black" stroke-width="2" points="203.011,-115.316 203.439,-104.73 196.503,-112.739 203.011,-115.316"/>
</g>
<!-- 5&#45;&gt;1 -->
<g id="edge7" class="edge"><title>5&#45;&gt;1</title>
<path fill="none" stroke="black" stroke-width="2" d="M35.2156,-111.775C44.7388,-124.169 56.2612,-142.154 59.9871,-160.426 62.8006,-174.223 63.3345,-189.772 63.0256,-203.039"/>
<polygon fill="black" stroke="black" stroke-width="2" points="59.5252,-202.981 62.6246,-213.112 66.5197,-203.259 59.5252,-202.981"/>
</g>
<!-- 5&#45;&gt;3 -->
<g id="edge12" class="edge"><title>5&#45;&gt;3</title>
<path fill="none" stroke="black" stroke-width="2" d="M39.9303,-106.128C54.2999,-114.304 74.3627,-125.72 90.5898,-134.953"/>
<polygon fill="black" stroke="black" stroke-width="2" points="89.2063,-138.193 99.6287,-140.096 92.6682,-132.109 89.2063,-138.193"/>
</g>
<!-- 5&#45;&gt;7 -->
<g id="edge17" class="edge"><title>5&#45;&gt;7</title>
<path fill="none" stroke="black" stroke-width="2" d="M25.2273,-116.385C26.0282,-120.556 26.8854,-125.021 27.7355,-129.448"/>
<polygon fill="black" stroke="black" stroke-width="2" points="24.3533,-130.396 29.6762,-139.556 31.2278,-129.076 24.3533,-130.396"/>
</g>
<!-- 6&#45;&gt;0 -->
<g id="edge4" class="edge"><title>6&#45;&gt;0</title>
<path fill="none" stroke="black" stroke-width="2" d="M190.954,-78.8684C185.441,-77.2803 179.357,-75.5276 173.434,-73.8213"/>
<polygon fill="black" stroke="black" stroke-width="2" points="174.325,-70.4358 163.747,-71.0308 172.387,-77.1623 174.325,-70.4358"/>
</g>
<!-- 6&#45;&gt;2 -->
<g id="edge10" class="edge"><title>6&#45;&gt;2</title>
<path fill="none" stroke="black" stroke-width="2" d="M195.222,-70.5142C185.931,-62.7815 173.786,-53.4279 161.979,-46.5753 144.973,-36.7061 123.821,-30.4105 106.711,-26.5603"/>
<polygon fill="black" stroke="black" stroke-width="2" points="107.156,-23.0781 96.6532,-24.4689 105.731,-29.9315 107.156,-23.0781"/>
</g>
<!-- 7&#45;&gt;2 -->
<g id="edge11" class="edge"><title>7&#45;&gt;2</title>
<path fill="none" stroke="black" stroke-width="2" d="M39.876,-139.883C46.9127,-116.545 58.464,-78.2327 66.5321,-51.4734"/>
<polygon fill="black" stroke="black" stroke-width="2" points="69.9013,-52.4232 69.4371,-41.8386 63.1993,-50.4025 69.9013,-52.4232"/>
</g>
<!-- 7&#45;&gt;4 -->
<g id="edge16" class="edge"><title>7&#45;&gt;4</title>
<path fill="none" stroke="black" stroke-width="2" d="M54.4863,-165.35C76.7244,-170.616 112.224,-179.022 137.749,-185.066"/>
<polygon fill="black" stroke="black" stroke-width="2" points="137.133,-188.517 147.67,-187.415 138.746,-181.705 137.133,-188.517"/>
</g>
</g>
</svg>

