<?xml version="1.0" encoding="UTF-8" standalone="no"?>
<!DOCTYPE svg PUBLIC "-//W3C//DTD SVG 1.1//EN"
 "http://www.w3.org/Graphics/SVG/1.1/DTD/svg11.dtd">
<!-- Generated by graphviz version 2.36.0 (20140111.2315)
 -->
<!-- Title: G Pages: 1 -->
<svg width="100%" height="100%"
 viewBox="0.00 0.00 202.66 234.27" xmlns="http://www.w3.org/2000/svg" xmlns:xlink="http://www.w3.org/1999/xlink">
<g id="graph0" class="graph" transform="scale(1 1) rotate(0) translate(4 230.273)">
<title>G</title>
<!-- 0 -->
<g id="node1" class="node"><title>0</title>
<ellipse fill="cadetblue" stroke="black" cx="30.9158" cy="-34.2241" rx="21.4286" ry="21.4286"/>
<text text-anchor="middle" x="30.9158" y="-29.2241" font-family="Times New Roman,serif" font-size="20.00">2</text>
</g>
<!-- 6 -->
<g id="node7" class="node"><title>6</title>
<ellipse fill="brown" stroke="black" cx="78.7367" cy="-107.064" rx="21.4286" ry="21.4286"/>
<text text-anchor="middle" x="78.7367" y="-102.064" font-family="Times New Roman,serif" font-size="20.00">3</text>
</g>
<!-- 0&#45;&gt;6 -->
<g id="edge3" class="edge"><title>0&#45;&gt;6</title>
<path fill="none" stroke="black" stroke-width="2" d="M42.7367,-52.2295C48.4119,-60.8739 55.3202,-71.3964 61.5617,-80.9035"/>
<polygon fill="black" stroke="black" stroke-width="2" points="58.6378,-82.8273 67.0518,-89.2659 64.4894,-78.9856 58.6378,-82.8273"/>
</g>
<!-- 7 -->
<g id="node8" class="node"><title>7</title>
<ellipse fill="brown" stroke="black" cx="93.8829" cy="-42.5493" rx="21.4286" ry="21.4286"/>
<text text-anchor="middle" x="93.8829" y="-37.5493" font-family="Times New Roman,serif" font-size="20.00">3</text>
</g>
<!-- 0&#45;&gt;7 -->
<g id="edge4" class="edge"><title>0&#45;&gt;7</title>
<path fill="none" stroke="black" stroke-width="2" d="M52.2336,-37.0427C55.516,-37.4766 58.9635,-37.9324 62.4109,-38.3882"/>
<polygon fill="black" stroke="black" stroke-width="2" points="62.2145,-41.8927 72.5871,-39.7337 63.1321,-34.953 62.2145,-41.8927"/>
</g>
<!-- 1 -->
<g id="node2" class="node"><title>1</title>
<ellipse fill="cadetblue" stroke="black" cx="72.9178" cy="-205.06" rx="21.4286" ry="21.4286"/>
<text text-anchor="middle" x="72.9178" y="-200.06" font-family="Times New Roman,serif" font-size="20.00">2</text>
</g>
<!-- 1&#45;&gt;6 -->
<g id="edge7" class="edge"><title>1&#45;&gt;6</title>
<path fill="none" stroke="black" stroke-width="2" d="M74.1804,-183.797C74.9658,-170.57 75.99,-153.322 76.8683,-138.531"/>
<polygon fill="black" stroke="black" stroke-width="2" points="80.3776,-138.476 77.4766,-128.286 73.3899,-138.061 80.3776,-138.476"/>
</g>
<!-- 2 -->
<g id="node3" class="node"><title>2</title>
<ellipse fill="cadetblue" stroke="black" cx="162.34" cy="-21.2132" rx="21.4286" ry="21.4286"/>
<text text-anchor="middle" x="162.34" y="-16.2132" font-family="Times New Roman,serif" font-size="20.00">2</text>
</g>
<!-- 2&#45;&gt;6 -->
<g id="edge10" class="edge"><title>2&#45;&gt;6</title>
<path fill="none" stroke="black" stroke-width="2" d="M147.393,-36.5616C134.435,-49.8686 115.505,-69.3072 100.803,-84.4048"/>
<polygon fill="black" stroke="black" stroke-width="2" points="98.0231,-82.2425 93.5539,-91.8486 103.038,-87.1262 98.0231,-82.2425"/>
</g>
<!-- 2&#45;&gt;7 -->
<g id="edge11" class="edge"><title>2&#45;&gt;7</title>
<path fill="none" stroke="black" stroke-width="2" d="M141.801,-27.6147C136.25,-29.3447 130.124,-31.2539 124.161,-33.1126"/>
<polygon fill="black" stroke="black" stroke-width="2" points="122.913,-29.8352 114.408,-36.1523 124.996,-36.5181 122.913,-29.8352"/>
</g>
<!-- 3 -->
<g id="node4" class="node"><title>3</title>
<ellipse fill="cadetblue" stroke="black" cx="21.2132" cy="-127.599" rx="21.4286" ry="21.4286"/>
<text text-anchor="middle" x="21.2132" y="-122.599" font-family="Times New Roman,serif" font-size="20.00">2</text>
</g>
<!-- 3&#45;&gt;0 -->
<g id="edge1" class="edge"><title>3&#45;&gt;0</title>
<path fill="none" stroke="black" stroke-width="2" d="M23.4149,-106.411C24.6678,-94.3528 26.2609,-79.0214 27.6564,-65.592"/>
<polygon fill="black" stroke="black" stroke-width="2" points="31.1705,-65.6367 28.7229,-55.3285 24.208,-64.9131 31.1705,-65.6367"/>
</g>
<!-- 3&#45;&gt;1 -->
<g id="edge5" class="edge"><title>3&#45;&gt;1</title>
<path fill="none" stroke="black" stroke-width="2" d="M33.2052,-145.565C39.7963,-155.439 48.0938,-167.87 55.3978,-178.813"/>
<polygon fill="black" stroke="black" stroke-width="2" points="52.528,-180.818 60.9908,-187.192 58.3501,-176.931 52.528,-180.818"/>
</g>
<!-- 5 -->
<g id="node6" class="node"><title>5</title>
<ellipse fill="cadetblue" stroke="black" cx="137.539" cy="-136.713" rx="21.4286" ry="21.4286"/>
<text text-anchor="middle" x="137.539" y="-131.713" font-family="Times New Roman,serif" font-size="20.00">2</text>
</g>
<!-- 3&#45;&gt;5 -->
<g id="edge12" class="edge"><title>3&#45;&gt;5</title>
<path fill="none" stroke="black" stroke-width="2" d="M42.49,-129.956C53.3221,-131.099 66.7047,-132.426 78.7054,-133.369 87.6488,-134.071 97.3682,-134.685 106.283,-135.188"/>
<polygon fill="black" stroke="black" stroke-width="2" points="106.109,-138.684 116.283,-135.727 106.486,-131.694 106.109,-138.684"/>
</g>
<!-- 4 -->
<g id="node5" class="node"><title>4</title>
<ellipse fill="cadetblue" stroke="black" cx="173.444" cy="-71.6447" rx="21.4286" ry="21.4286"/>
<text text-anchor="middle" x="173.444" y="-66.6447" font-family="Times New Roman,serif" font-size="20.00">2</text>
</g>
<!-- 4&#45;&gt;0 -->
<g id="edge2" class="edge"><title>4&#45;&gt;0</title>
<path fill="none" stroke="black" stroke-width="2" d="M152.251,-72.9355C136.073,-73.4335 113.331,-73.0786 93.8816,-68.8537 85.1378,-66.9542 83.2632,-65.1936 75.282,-61.1484 69.3751,-58.1546 63.2029,-54.6605 57.4046,-51.2001"/>
<polygon fill="black" stroke="black" stroke-width="2" points="59.0489,-48.103 48.6927,-45.867 55.3941,-54.0732 59.0489,-48.103"/>
</g>
<!-- 4&#45;&gt;2 -->
<g id="edge8" class="edge"><title>4&#45;&gt;2</title>
<path fill="none" stroke="black" stroke-width="2" d="M168.863,-50.8411C168.843,-50.7495 168.823,-50.6579 168.803,-50.5661"/>
<polygon fill="black" stroke="black" stroke-width="2" points="172.478,-50.9824 166.91,-41.969 165.642,-52.4877 172.478,-50.9824"/>
</g>
<!-- 5&#45;&gt;1 -->
<g id="edge6" class="edge"><title>5&#45;&gt;1</title>
<path fill="none" stroke="black" stroke-width="2" d="M122.875,-152.222C114.531,-161.048 103.92,-172.27 94.6263,-182.1"/>
<polygon fill="black" stroke="black" stroke-width="2" points="91.8503,-179.942 87.5233,-189.613 96.9368,-184.751 91.8503,-179.942"/>
</g>
<!-- 5&#45;&gt;2 -->
<g id="edge9" class="edge"><title>5&#45;&gt;2</title>
<path fill="none" stroke="black" stroke-width="2" d="M139.863,-115.383C141.462,-102.547 143.888,-85.9279 147.14,-71.3846 148.601,-64.8565 150.475,-57.9412 152.406,-51.3992"/>
<polygon fill="black" stroke="black" stroke-width="2" points="155.845,-52.1224 155.435,-41.5355 149.153,-50.0676 155.845,-52.1224"/>
</g>
<!-- 5&#45;&gt;4 -->
<g id="edge15" class="edge"><title>5&#45;&gt;4</title>
<path fill="none" stroke="black" stroke-width="2" d="M147.924,-117.892C151.097,-112.143 154.655,-105.694 158.085,-99.4783"/>
<polygon fill="black" stroke="black" stroke-width="2" points="161.191,-101.095 162.957,-90.6482 155.062,-97.7127 161.191,-101.095"/>
</g>
<!-- 6&#45;&gt;3 -->
<g id="edge13" class="edge"><title>6&#45;&gt;3</title>
<path fill="none" stroke="black" stroke-width="2" d="M58.6178,-114.246C56.0927,-115.148 53.4697,-116.084 50.837,-117.024"/>
<polygon fill="black" stroke="black" stroke-width="2" points="49.6592,-113.728 41.418,-120.386 52.0126,-120.32 49.6592,-113.728"/>
</g>
<!-- 6&#45;&gt;7 -->
<g id="edge18" class="edge"><title>6&#45;&gt;7</title>
<path fill="none" stroke="black" stroke-width="2" d="M83.6124,-86.2962C84.5853,-82.1522 85.6265,-77.7172 86.659,-73.3191"/>
<polygon fill="black" stroke="black" stroke-width="2" points="90.138,-73.8137 89.0163,-63.2784 83.3233,-72.2138 90.138,-73.8137"/>
</g>
<!-- 7&#45;&gt;3 -->
<g id="edge14" class="edge"><title>7&#45;&gt;3</title>
<path fill="none" stroke="black" stroke-width="2" d="M79.8714,-58.9477C69.1145,-71.5372 54.0956,-89.1147 41.9481,-103.332"/>
<polygon fill="black" stroke="black" stroke-width="2" points="39.0168,-101.374 35.1816,-111.251 44.3387,-105.922 39.0168,-101.374"/>
</g>
<!-- 7&#45;&gt;4 -->
<g id="edge16" class="edge"><title>7&#45;&gt;4</title>
<path fill="none" stroke="black" stroke-width="2" d="M113.959,-49.8913C123.005,-53.1993 133.869,-57.1722 143.823,-60.8126"/>
<polygon fill="black" stroke="black" stroke-width="2" points="142.78,-64.1575 153.373,-64.305 145.184,-57.5833 142.78,-64.1575"/>
</g>
<!-- 7&#45;&gt;5 -->
<g id="edge17" class="edge"><title>7&#45;&gt;5</title>
<path fill="none" stroke="black" stroke-width="2" d="M102.928,-62.06C109.075,-75.3169 117.308,-93.0766 124.203,-107.948"/>
<polygon fill="black" stroke="black" stroke-width="2" points="121.123,-109.627 128.505,-117.227 127.474,-106.682 121.123,-109.627"/>
</g>
</g>
</svg>

