<?xml version="1.0" encoding="UTF-8" standalone="no"?>
<!DOCTYPE svg PUBLIC "-//W3C//DTD SVG 1.1//EN"
 "http://www.w3.org/Graphics/SVG/1.1/DTD/svg11.dtd">
<!-- Generated by graphviz version 2.36.0 (20140111.2315)
 -->
<!-- Title: G Pages: 1 -->
<svg width="100%" height="100%"
 viewBox="0.00 0.00 314.42 322.34" xmlns="http://www.w3.org/2000/svg" xmlns:xlink="http://www.w3.org/1999/xlink">
<g id="graph0" class="graph" transform="scale(1 1) rotate(0) translate(4 318.341)">
<title>G</title>
<!-- 0 -->
<g id="node1" class="node"><title>0</title>
<ellipse fill="cadetblue" stroke="black" cx="257.714" cy="-249.015" rx="21.4286" ry="21.4286"/>
<text text-anchor="middle" x="257.714" y="-244.015" font-family="Times New Roman,serif" font-size="20.00">2</text>
</g>
<!-- 6 -->
<g id="node7" class="node"><title>6</title>
<ellipse fill="cadetblue" stroke="black" cx="192.444" cy="-129.803" rx="21.4286" ry="21.4286"/>
<text text-anchor="middle" x="192.444" y="-124.803" font-family="Times New Roman,serif" font-size="20.00">2</text>
</g>
<!-- 0&#45;&gt;6 -->
<g id="edge3" class="edge"><title>0&#45;&gt;6</title>
<path fill="none" stroke="black" stroke-width="2" d="M247.516,-230.388C236.849,-210.906 219.985,-180.104 207.726,-157.715"/>
<polygon fill="black" stroke="black" stroke-width="2" points="210.658,-155.783 202.786,-148.692 204.519,-159.144 210.658,-155.783"/>
</g>
<!-- 7 -->
<g id="node8" class="node"><title>7</title>
<ellipse fill="cadetblue" stroke="black" cx="142.012" cy="-171.235" rx="21.4286" ry="21.4286"/>
<text text-anchor="middle" x="142.012" y="-166.235" font-family="Times New Roman,serif" font-size="20.00">2</text>
</g>
<!-- 0&#45;&gt;7 -->
<g id="edge4" class="edge"><title>0&#45;&gt;7</title>
<path fill="none" stroke="black" stroke-width="2" d="M239.89,-237.032C220.724,-224.148 190.063,-203.537 168.166,-188.817"/>
<polygon fill="black" stroke="black" stroke-width="2" points="169.919,-185.778 159.668,-183.104 166.014,-191.587 169.919,-185.778"/>
</g>
<!-- 1 -->
<g id="node2" class="node"><title>1</title>
<ellipse fill="cadetblue" stroke="black" cx="25.5017" cy="-222.591" rx="21.4286" ry="21.4286"/>
<text text-anchor="middle" x="25.5017" y="-217.591" font-family="Times New Roman,serif" font-size="20.00">2</text>
</g>
<!-- 5 -->
<g id="node6" class="node"><title>5</title>
<ellipse fill="brown" stroke="black" cx="21.2132" cy="-118.423" rx="21.4286" ry="21.4286"/>
<text text-anchor="middle" x="21.2132" y="-113.423" font-family="Times New Roman,serif" font-size="20.00">3</text>
</g>
<!-- 1&#45;&gt;5 -->
<g id="edge6" class="edge"><title>1&#45;&gt;5</title>
<path fill="none" stroke="black" stroke-width="2" d="M24.6235,-201.26C24.0164,-186.514 23.1984,-166.645 22.5157,-150.062"/>
<polygon fill="black" stroke="black" stroke-width="2" points="25.9987,-149.574 22.0902,-139.726 19.0046,-149.862 25.9987,-149.574"/>
</g>
<!-- 1&#45;&gt;7 -->
<g id="edge8" class="edge"><title>1&#45;&gt;7</title>
<path fill="none" stroke="black" stroke-width="2" d="M45.0029,-213.995C63.6537,-205.774 92.0035,-193.278 113.247,-183.914"/>
<polygon fill="black" stroke="black" stroke-width="2" points="114.709,-187.095 122.447,-179.859 111.885,-180.69 114.709,-187.095"/>
</g>
<!-- 2 -->
<g id="node3" class="node"><title>2</title>
<ellipse fill="cadetblue" stroke="black" cx="143.965" cy="-21.2132" rx="21.4286" ry="21.4286"/>
<text text-anchor="middle" x="143.965" y="-16.2132" font-family="Times New Roman,serif" font-size="20.00">2</text>
</g>
<!-- 2&#45;&gt;5 -->
<g id="edge10" class="edge"><title>2&#45;&gt;5</title>
<path fill="none" stroke="black" stroke-width="2" d="M127.154,-34.526C106.244,-51.0853 70.3611,-79.5019 46.2202,-98.6197"/>
<polygon fill="black" stroke="black" stroke-width="2" points="43.8813,-96.0073 38.2148,-104.959 48.2271,-101.495 43.8813,-96.0073"/>
</g>
<!-- 2&#45;&gt;6 -->
<g id="edge11" class="edge"><title>2&#45;&gt;6</title>
<path fill="none" stroke="black" stroke-width="2" d="M152.632,-40.6268C160.134,-57.4311 171.087,-81.9659 179.607,-101.049"/>
<polygon fill="black" stroke="black" stroke-width="2" points="176.415,-102.486 183.688,-110.191 182.807,-99.6327 176.415,-102.486"/>
</g>
<!-- 3 -->
<g id="node4" class="node"><title>3</title>
<ellipse fill="cadetblue" stroke="black" cx="106.872" cy="-293.127" rx="21.4286" ry="21.4286"/>
<text text-anchor="middle" x="106.872" y="-288.127" font-family="Times New Roman,serif" font-size="20.00">2</text>
</g>
<!-- 3&#45;&gt;0 -->
<g id="edge1" class="edge"><title>3&#45;&gt;0</title>
<path fill="none" stroke="black" stroke-width="2" d="M127.53,-287.086C153.369,-279.53 197.815,-266.532 227.483,-257.856"/>
<polygon fill="black" stroke="black" stroke-width="2" points="228.691,-261.149 237.306,-254.983 226.726,-254.431 228.691,-261.149"/>
</g>
<!-- 3&#45;&gt;1 -->
<g id="edge5" class="edge"><title>3&#45;&gt;1</title>
<path fill="none" stroke="black" stroke-width="2" d="M90.7959,-279.192C78.9824,-268.951 62.7349,-254.867 49.403,-243.31"/>
<polygon fill="black" stroke="black" stroke-width="2" points="51.3932,-240.403 41.5444,-236.498 46.8081,-245.693 51.3932,-240.403"/>
</g>
<!-- 4 -->
<g id="node5" class="node"><title>4</title>
<ellipse fill="cadetblue" stroke="black" cx="285.21" cy="-98.3057" rx="21.4286" ry="21.4286"/>
<text text-anchor="middle" x="285.21" y="-93.3057" font-family="Times New Roman,serif" font-size="20.00">2</text>
</g>
<!-- 4&#45;&gt;0 -->
<g id="edge2" class="edge"><title>4&#45;&gt;0</title>
<path fill="none" stroke="black" stroke-width="2" d="M281.387,-119.261C276.735,-144.761 268.836,-188.058 263.452,-217.563"/>
<polygon fill="black" stroke="black" stroke-width="2" points="259.945,-217.286 261.594,-227.752 266.832,-218.542 259.945,-217.286"/>
</g>
<!-- 4&#45;&gt;2 -->
<g id="edge9" class="edge"><title>4&#45;&gt;2</title>
<path fill="none" stroke="black" stroke-width="2" d="M266.454,-88.0684C242.182,-74.821 199.695,-51.6313 171.692,-36.3473"/>
<polygon fill="black" stroke="black" stroke-width="2" points="173.253,-33.2116 162.798,-31.4928 169.899,-39.356 173.253,-33.2116"/>
</g>
<!-- 5&#45;&gt;3 -->
<g id="edge13" class="edge"><title>5&#45;&gt;3</title>
<path fill="none" stroke="black" stroke-width="2" d="M30.7075,-137.787C45.7977,-168.564 75.3365,-228.81 92.863,-264.555"/>
<polygon fill="black" stroke="black" stroke-width="2" points="89.9208,-266.505 97.4658,-273.943 96.2059,-263.423 89.9208,-266.505"/>
</g>
<!-- 6&#45;&gt;1 -->
<g id="edge7" class="edge"><title>6&#45;&gt;1</title>
<path fill="none" stroke="black" stroke-width="2" d="M171.68,-135.518C162.516,-138.172 151.658,-141.497 142.013,-144.931 133.584,-147.932 131.237,-148.293 123.413,-152.634 96.9967,-167.29 69.1837,-187.709 49.9802,-202.705"/>
<polygon fill="black" stroke="black" stroke-width="2" points="47.7286,-200.023 42.0529,-208.97 52.0688,-205.515 47.7286,-200.023"/>
</g>
<!-- 6&#45;&gt;4 -->
<g id="edge15" class="edge"><title>6&#45;&gt;4</title>
<path fill="none" stroke="black" stroke-width="2" d="M212.573,-122.968C225.093,-118.717 241.42,-113.174 255.423,-108.419"/>
<polygon fill="black" stroke="black" stroke-width="2" points="256.776,-111.656 265.12,-105.127 254.526,-105.028 256.776,-111.656"/>
</g>
<!-- 7&#45;&gt;2 -->
<g id="edge12" class="edge"><title>7&#45;&gt;2</title>
<path fill="none" stroke="black" stroke-width="2" d="M142.292,-149.741C142.622,-124.341 143.175,-81.8586 143.554,-52.7363"/>
<polygon fill="black" stroke="black" stroke-width="2" points="147.055,-52.7125 143.685,-42.6678 140.055,-52.6214 147.055,-52.7125"/>
</g>
<!-- 7&#45;&gt;3 -->
<g id="edge14" class="edge"><title>7&#45;&gt;3</title>
<path fill="none" stroke="black" stroke-width="2" d="M136.131,-191.637C130.505,-211.149 121.955,-240.809 115.548,-263.034"/>
<polygon fill="black" stroke="black" stroke-width="2" points="112.18,-262.081 112.773,-272.659 118.906,-264.02 112.18,-262.081"/>
</g>
<!-- 7&#45;&gt;4 -->
<g id="edge16" class="edge"><title>7&#45;&gt;4</title>
<path fill="none" stroke="black" stroke-width="2" d="M162.761,-165.513C171.919,-162.858 182.771,-159.534 192.412,-156.107 200.843,-153.11 203.138,-152.658 211.021,-148.425 228.032,-139.29 246.002,-127.22 259.995,-117.213"/>
<polygon fill="black" stroke="black" stroke-width="2" points="262.113,-120.001 268.15,-111.295 258.001,-114.336 262.113,-120.001"/>
</g>
<!-- 7&#45;&gt;5 -->
<g id="edge17" class="edge"><title>7&#45;&gt;5</title>
<path fill="none" stroke="black" stroke-width="2" d="M122.335,-162.632C102.767,-154.078 72.526,-140.857 50.2088,-131.1"/>
<polygon fill="black" stroke="black" stroke-width="2" points="51.4468,-127.821 40.8821,-127.022 48.6427,-134.235 51.4468,-127.821"/>
</g>
</g>
</svg>

