<?xml version="1.0" encoding="UTF-8" standalone="no"?>
<!DOCTYPE svg PUBLIC "-//W3C//DTD SVG 1.1//EN"
 "http://www.w3.org/Graphics/SVG/1.1/DTD/svg11.dtd">
<!-- Generated by graphviz version 2.36.0 (20140111.2315)
 -->
<!-- Title: G Pages: 1 -->
<svg width="100%" height="100%"
 viewBox="0.00 0.00 222.75 278.41" xmlns="http://www.w3.org/2000/svg" xmlns:xlink="http://www.w3.org/1999/xlink">
<g id="graph0" class="graph" transform="scale(1 1) rotate(0) translate(4 274.411)">
<title>G</title>
<!-- 0 -->
<g id="node1" class="node"><title>0</title>
<ellipse fill="cadetblue" stroke="black" cx="89.9304" cy="-181.748" rx="21.4286" ry="21.4286"/>
<text text-anchor="middle" x="89.9304" y="-176.748" font-family="Times New Roman,serif" font-size="20.00">2</text>
</g>
<!-- 5 -->
<g id="node6" class="node"><title>5</title>
<ellipse fill="cadetblue" stroke="black" cx="21.2132" cy="-102.107" rx="21.4286" ry="21.4286"/>
<text text-anchor="middle" x="21.2132" y="-97.1073" font-family="Times New Roman,serif" font-size="20.00">2</text>
</g>
<!-- 0&#45;&gt;5 -->
<g id="edge3" class="edge"><title>0&#45;&gt;5</title>
<path fill="none" stroke="black" stroke-width="2" d="M76.0244,-165.632C66.1514,-154.189 52.7359,-138.641 41.6486,-125.791"/>
<polygon fill="black" stroke="black" stroke-width="2" points="44.2812,-123.485 35.0985,-118.2 38.9813,-128.058 44.2812,-123.485"/>
</g>
<!-- 6 -->
<g id="node7" class="node"><title>6</title>
<ellipse fill="cadetblue" stroke="black" cx="174.898" cy="-83.7755" rx="21.4286" ry="21.4286"/>
<text text-anchor="middle" x="174.898" y="-78.7755" font-family="Times New Roman,serif" font-size="20.00">2</text>
</g>
<!-- 0&#45;&gt;6 -->
<g id="edge4" class="edge"><title>0&#45;&gt;6</title>
<path fill="none" stroke="black" stroke-width="2" d="M99.1218,-162.385C106.369,-148.384 117.41,-129.544 130.451,-115.539 135.605,-110.004 141.862,-104.834 148.033,-100.34"/>
<polygon fill="black" stroke="black" stroke-width="2" points="150.033,-103.213 156.285,-94.66 146.063,-97.4474 150.033,-103.213"/>
</g>
<!-- 1 -->
<g id="node2" class="node"><title>1</title>
<ellipse fill="cadetblue" stroke="black" cx="148.983" cy="-134.207" rx="21.4286" ry="21.4286"/>
<text text-anchor="middle" x="148.983" y="-129.207" font-family="Times New Roman,serif" font-size="20.00">2</text>
</g>
<!-- 4 -->
<g id="node5" class="node"><title>4</title>
<ellipse fill="cadetblue" stroke="black" cx="193.54" cy="-199.321" rx="21.4286" ry="21.4286"/>
<text text-anchor="middle" x="193.54" y="-194.321" font-family="Times New Roman,serif" font-size="20.00">2</text>
</g>
<!-- 1&#45;&gt;4 -->
<g id="edge5" class="edge"><title>1&#45;&gt;4</title>
<path fill="none" stroke="black" stroke-width="2" d="M161.158,-152C165.579,-158.46 170.673,-165.904 175.492,-172.947"/>
<polygon fill="black" stroke="black" stroke-width="2" points="172.843,-175.274 181.379,-181.55 178.62,-171.321 172.843,-175.274"/>
</g>
<!-- 7 -->
<g id="node8" class="node"><title>7</title>
<ellipse fill="cadetblue" stroke="black" cx="82.612" cy="-114.761" rx="21.4286" ry="21.4286"/>
<text text-anchor="middle" x="82.612" y="-109.761" font-family="Times New Roman,serif" font-size="20.00">2</text>
</g>
<!-- 1&#45;&gt;7 -->
<g id="edge8" class="edge"><title>1&#45;&gt;7</title>
<path fill="none" stroke="black" stroke-width="2" d="M128.346,-128.161C123.43,-126.721 118.084,-125.154 112.836,-123.617"/>
<polygon fill="black" stroke="black" stroke-width="2" points="113.588,-120.19 103.008,-120.737 111.62,-126.907 113.588,-120.19"/>
</g>
<!-- 2 -->
<g id="node3" class="node"><title>2</title>
<ellipse fill="cadetblue" stroke="black" cx="86.2973" cy="-21.2132" rx="21.4286" ry="21.4286"/>
<text text-anchor="middle" x="86.2973" y="-16.2132" font-family="Times New Roman,serif" font-size="20.00">2</text>
</g>
<!-- 2&#45;&gt;7 -->
<g id="edge11" class="edge"><title>2&#45;&gt;7</title>
<path fill="none" stroke="black" stroke-width="2" d="M85.4611,-42.4407C84.9885,-54.436 84.3886,-69.6647 83.8612,-83.0508"/>
<polygon fill="black" stroke="black" stroke-width="2" points="80.3542,-83.164 83.4577,-93.2941 87.3487,-83.4396 80.3542,-83.164"/>
</g>
<!-- 3 -->
<g id="node4" class="node"><title>3</title>
<ellipse fill="cadetblue" stroke="black" cx="103.28" cy="-249.198" rx="21.4286" ry="21.4286"/>
<text text-anchor="middle" x="103.28" y="-244.198" font-family="Times New Roman,serif" font-size="20.00">2</text>
</g>
<!-- 3&#45;&gt;0 -->
<g id="edge1" class="edge"><title>3&#45;&gt;0</title>
<path fill="none" stroke="black" stroke-width="2" d="M99.129,-228.226C98.1589,-223.324 97.1053,-218.001 96.0692,-212.766"/>
<polygon fill="black" stroke="black" stroke-width="2" points="99.4994,-212.07 94.1244,-202.939 92.6325,-213.429 99.4994,-212.07"/>
</g>
<!-- 4&#45;&gt;0 -->
<g id="edge2" class="edge"><title>4&#45;&gt;0</title>
<path fill="none" stroke="black" stroke-width="2" d="M172.573,-195.765C157.687,-193.24 137.459,-189.81 120.742,-186.974"/>
<polygon fill="black" stroke="black" stroke-width="2" points="121.311,-183.521 110.866,-185.299 120.14,-190.422 121.311,-183.521"/>
</g>
<!-- 4&#45;&gt;3 -->
<g id="edge12" class="edge"><title>4&#45;&gt;3</title>
<path fill="none" stroke="black" stroke-width="2" d="M174.838,-209.656C162.13,-216.678 145.107,-226.085 130.852,-233.962"/>
<polygon fill="black" stroke="black" stroke-width="2" points="129.017,-230.977 121.958,-238.877 132.403,-237.103 129.017,-230.977"/>
</g>
<!-- 5&#45;&gt;1 -->
<g id="edge6" class="edge"><title>5&#45;&gt;1</title>
<path fill="none" stroke="black" stroke-width="2" d="M36.8353,-117.284C48.3995,-127.102 65.1223,-138.514 82.6108,-141.066 94.1641,-142.752 106.908,-142.047 118.115,-140.572"/>
<polygon fill="black" stroke="black" stroke-width="2" points="118.961,-143.983 128.299,-138.976 117.877,-137.067 118.961,-143.983"/>
</g>
<!-- 5&#45;&gt;2 -->
<g id="edge9" class="edge"><title>5&#45;&gt;2</title>
<path fill="none" stroke="black" stroke-width="2" d="M34.6987,-85.346C43.8616,-73.9572 56.1368,-58.7002 66.4156,-45.9245"/>
<polygon fill="black" stroke="black" stroke-width="2" points="69.2875,-47.9384 72.8291,-37.953 63.8335,-43.5504 69.2875,-47.9384"/>
</g>
<!-- 6&#45;&gt;1 -->
<g id="edge7" class="edge"><title>6&#45;&gt;1</title>
<path fill="none" stroke="black" stroke-width="2" d="M165.1,-102.841C164.584,-103.846 164.061,-104.864 163.535,-105.889"/>
<polygon fill="black" stroke="black" stroke-width="2" points="160.252,-104.62 158.794,-115.114 166.478,-107.819 160.252,-104.62"/>
</g>
<!-- 6&#45;&gt;2 -->
<g id="edge10" class="edge"><title>6&#45;&gt;2</title>
<path fill="none" stroke="black" stroke-width="2" d="M157.393,-71.4152C144.53,-62.3323 126.839,-49.8403 112.322,-39.5899"/>
<polygon fill="black" stroke="black" stroke-width="2" points="113.953,-36.4569 103.766,-33.5478 109.915,-42.1751 113.953,-36.4569"/>
</g>
<!-- 6&#45;&gt;4 -->
<g id="edge14" class="edge"><title>6&#45;&gt;4</title>
<path fill="none" stroke="black" stroke-width="2" d="M178.317,-104.968C181.181,-122.722 185.309,-148.305 188.543,-168.354"/>
<polygon fill="black" stroke="black" stroke-width="2" points="185.094,-168.948 190.142,-178.263 192.005,-167.833 185.094,-168.948"/>
</g>
<!-- 7&#45;&gt;3 -->
<g id="edge13" class="edge"><title>7&#45;&gt;3</title>
<path fill="none" stroke="black" stroke-width="2" d="M95.5678,-131.852C104.23,-144.777 114.372,-163.384 116.235,-181.772 117.489,-194.155 115.565,-207.653 112.847,-219.297"/>
<polygon fill="black" stroke="black" stroke-width="2" points="109.459,-218.418 110.314,-228.978 116.231,-220.19 109.459,-218.418"/>
</g>
<!-- 7&#45;&gt;5 -->
<g id="edge15" class="edge"><title>7&#45;&gt;5</title>
<path fill="none" stroke="black" stroke-width="2" d="M61.8252,-110.477C58.792,-109.852 55.6141,-109.197 52.4289,-108.541"/>
<polygon fill="black" stroke="black" stroke-width="2" points="52.8976,-105.064 42.3969,-106.473 51.4846,-111.92 52.8976,-105.064"/>
</g>
<!-- 7&#45;&gt;6 -->
<g id="edge16" class="edge"><title>7&#45;&gt;6</title>
<path fill="none" stroke="black" stroke-width="2" d="M103.093,-107.885C115.4,-103.753 131.277,-98.4218 144.971,-93.8239"/>
<polygon fill="black" stroke="black" stroke-width="2" points="146.108,-97.1341 154.474,-90.6331 143.88,-90.4981 146.108,-97.1341"/>
</g>
</g>
</svg>

