<?xml version="1.0" encoding="UTF-8" standalone="no"?>
<!DOCTYPE svg PUBLIC "-//W3C//DTD SVG 1.1//EN"
 "http://www.w3.org/Graphics/SVG/1.1/DTD/svg11.dtd">
<!-- Generated by graphviz version 2.36.0 (20140111.2315)
 -->
<!-- Title: G Pages: 1 -->
<svg width="100%" height="100%"
 viewBox="0.00 0.00 236.46 219.22" xmlns="http://www.w3.org/2000/svg" xmlns:xlink="http://www.w3.org/1999/xlink">
<g id="graph0" class="graph" transform="scale(1 1) rotate(0) translate(4 215.218)">
<title>G</title>
<!-- 0 -->
<g id="node1" class="node"><title>0</title>
<ellipse fill="cadetblue" stroke="black" cx="71.7079" cy="-46.2575" rx="21.4286" ry="21.4286"/>
<text text-anchor="middle" x="71.7079" y="-41.2575" font-family="Times New Roman,serif" font-size="20.00">2</text>
</g>
<!-- 4 -->
<g id="node5" class="node"><title>4</title>
<ellipse fill="cadetblue" stroke="black" cx="170.489" cy="-162.625" rx="21.4286" ry="21.4286"/>
<text text-anchor="middle" x="170.489" y="-157.625" font-family="Times New Roman,serif" font-size="20.00">2</text>
</g>
<!-- 0&#45;&gt;4 -->
<g id="edge2" class="edge"><title>0&#45;&gt;4</title>
<path fill="none" stroke="black" stroke-width="2" d="M79.9303,-65.8575C86.2557,-79.5811 95.8725,-97.8813 107.512,-111.815 118.02,-124.395 132.032,-136.063 144.171,-145.036"/>
<polygon fill="black" stroke="black" stroke-width="2" points="142.433,-148.096 152.602,-151.069 146.506,-142.404 142.433,-148.096"/>
</g>
<!-- 7 -->
<g id="node8" class="node"><title>7</title>
<ellipse fill="cadetblue" stroke="black" cx="126.113" cy="-93.2162" rx="21.4286" ry="21.4286"/>
<text text-anchor="middle" x="126.113" y="-88.2162" font-family="Times New Roman,serif" font-size="20.00">2</text>
</g>
<!-- 0&#45;&gt;7 -->
<g id="edge4" class="edge"><title>0&#45;&gt;7</title>
<path fill="none" stroke="black" stroke-width="2" d="M88.0311,-60.3467C92.4423,-64.1542 97.3106,-68.3561 102.05,-72.4468"/>
<polygon fill="black" stroke="black" stroke-width="2" points="99.9439,-75.2525 109.801,-79.137 104.518,-69.9534 99.9439,-75.2525"/>
</g>
<!-- 1 -->
<g id="node2" class="node"><title>1</title>
<ellipse fill="cadetblue" stroke="black" cx="21.2132" cy="-80.4914" rx="21.4286" ry="21.4286"/>
<text text-anchor="middle" x="21.2132" y="-75.4914" font-family="Times New Roman,serif" font-size="20.00">2</text>
</g>
<!-- 5 -->
<g id="node6" class="node"><title>5</title>
<ellipse fill="cadetblue" stroke="black" cx="98.6806" cy="-190.005" rx="21.4286" ry="21.4286"/>
<text text-anchor="middle" x="98.6806" y="-185.005" font-family="Times New Roman,serif" font-size="20.00">2</text>
</g>
<!-- 1&#45;&gt;5 -->
<g id="edge6" class="edge"><title>1&#45;&gt;5</title>
<path fill="none" stroke="black" stroke-width="2" d="M39.8299,-91.461C47.9386,-96.9433 57.0683,-104.158 63.632,-112.354 74.9329,-126.464 83.4322,-144.802 89.229,-160.114"/>
<polygon fill="black" stroke="black" stroke-width="2" points="85.9827,-161.43 92.6503,-169.664 92.5726,-159.069 85.9827,-161.43"/>
</g>
<!-- 6 -->
<g id="node7" class="node"><title>6</title>
<ellipse fill="brown" stroke="black" cx="125.482" cy="-21.2132" rx="21.4286" ry="21.4286"/>
<text text-anchor="middle" x="125.482" y="-16.2132" font-family="Times New Roman,serif" font-size="20.00">3</text>
</g>
<!-- 1&#45;&gt;6 -->
<g id="edge7" class="edge"><title>1&#45;&gt;6</title>
<path fill="none" stroke="black" stroke-width="2" d="M42.7341,-80.1006C57.4151,-78.834 76.6041,-75.1095 90.2909,-64.8745 96.8694,-59.955 102.934,-53.5355 108.11,-47.139"/>
<polygon fill="black" stroke="black" stroke-width="2" points="110.904,-49.2459 114.161,-39.1639 105.328,-45.0147 110.904,-49.2459"/>
</g>
<!-- 2 -->
<g id="node3" class="node"><title>2</title>
<ellipse fill="brown" stroke="black" cx="207.245" cy="-100.754" rx="21.4286" ry="21.4286"/>
<text text-anchor="middle" x="207.245" y="-95.7537" font-family="Times New Roman,serif" font-size="20.00">3</text>
</g>
<!-- 2&#45;&gt;5 -->
<g id="edge10" class="edge"><title>2&#45;&gt;5</title>
<path fill="none" stroke="black" stroke-width="2" d="M190.169,-113.739C179.181,-122.18 164.655,-133.501 152.074,-143.842 142.263,-151.906 131.644,-161.007 122.481,-168.983"/>
<polygon fill="black" stroke="black" stroke-width="2" points="120.082,-166.431 114.859,-175.649 124.69,-171.701 120.082,-166.431"/>
</g>
<!-- 3 -->
<g id="node4" class="node"><title>3</title>
<ellipse fill="cadetblue" stroke="black" cx="45.0011" cy="-130.923" rx="21.4286" ry="21.4286"/>
<text text-anchor="middle" x="45.0011" y="-125.923" font-family="Times New Roman,serif" font-size="20.00">2</text>
</g>
<!-- 3&#45;&gt;0 -->
<g id="edge1" class="edge"><title>3&#45;&gt;0</title>
<path fill="none" stroke="black" stroke-width="2" d="M51.4661,-110.428C54.7137,-100.132 58.7099,-87.4634 62.2913,-76.1099"/>
<polygon fill="black" stroke="black" stroke-width="2" points="65.632,-77.1536 65.3025,-66.5639 58.9562,-75.0477 65.632,-77.1536"/>
</g>
<!-- 3&#45;&gt;1 -->
<g id="edge5" class="edge"><title>3&#45;&gt;1</title>
<path fill="none" stroke="black" stroke-width="2" d="M35.8721,-111.569C35.4709,-110.718 35.0652,-109.858 34.657,-108.993"/>
<polygon fill="black" stroke="black" stroke-width="2" points="37.7102,-107.261 30.2785,-99.7102 31.3791,-110.248 37.7102,-107.261"/>
</g>
<!-- 3&#45;&gt;6 -->
<g id="edge14" class="edge"><title>3&#45;&gt;6</title>
<path fill="none" stroke="black" stroke-width="2" d="M57.5763,-113.781C70.7287,-95.8518 91.5233,-67.5052 106.638,-46.9006"/>
<polygon fill="black" stroke="black" stroke-width="2" points="109.637,-48.7304 112.73,-38.597 103.993,-44.5899 109.637,-48.7304"/>
</g>
<!-- 4&#45;&gt;2 -->
<g id="edge9" class="edge"><title>4&#45;&gt;2</title>
<path fill="none" stroke="black" stroke-width="2" d="M181.517,-144.062C184.497,-139.045 187.786,-133.509 190.988,-128.119"/>
<polygon fill="black" stroke="black" stroke-width="2" points="194.126,-129.689 196.225,-119.304 188.108,-126.114 194.126,-129.689"/>
</g>
<!-- 4&#45;&gt;7 -->
<g id="edge17" class="edge"><title>4&#45;&gt;7</title>
<path fill="none" stroke="black" stroke-width="2" d="M159.061,-144.75C154.233,-137.199 148.508,-128.245 143.196,-119.937"/>
<polygon fill="black" stroke="black" stroke-width="2" points="145.992,-117.811 137.656,-111.271 140.094,-121.582 145.992,-117.811"/>
</g>
<!-- 5&#45;&gt;3 -->
<g id="edge13" class="edge"><title>5&#45;&gt;3</title>
<path fill="none" stroke="black" stroke-width="2" d="M84.2955,-174.172C78.7598,-168.079 72.3159,-160.987 66.2671,-154.329"/>
<polygon fill="black" stroke="black" stroke-width="2" points="68.741,-151.847 59.4259,-146.8 63.56,-156.555 68.741,-151.847"/>
</g>
<!-- 5&#45;&gt;4 -->
<g id="edge16" class="edge"><title>5&#45;&gt;4</title>
<path fill="none" stroke="black" stroke-width="2" d="M118.683,-182.378C125.608,-179.738 133.523,-176.72 141.046,-173.852"/>
<polygon fill="black" stroke="black" stroke-width="2" points="142.497,-177.044 150.594,-170.211 140.003,-170.503 142.497,-177.044"/>
</g>
<!-- 6&#45;&gt;0 -->
<g id="edge3" class="edge"><title>6&#45;&gt;0</title>
<path fill="none" stroke="black" stroke-width="2" d="M106.068,-30.2548C104.263,-31.0954 102.41,-31.9588 100.543,-32.8281"/>
<polygon fill="black" stroke="black" stroke-width="2" points="98.8612,-29.7504 91.2738,-37.1451 101.817,-36.0959 98.8612,-29.7504"/>
</g>
<!-- 6&#45;&gt;2 -->
<g id="edge11" class="edge"><title>6&#45;&gt;2</title>
<path fill="none" stroke="black" stroke-width="2" d="M140.861,-36.1742C153.195,-48.1728 170.685,-65.1877 184.617,-78.7405"/>
<polygon fill="black" stroke="black" stroke-width="2" points="182.326,-81.3956 191.935,-85.8599 187.207,-76.3781 182.326,-81.3956"/>
</g>
<!-- 7&#45;&gt;1 -->
<g id="edge8" class="edge"><title>7&#45;&gt;1</title>
<path fill="none" stroke="black" stroke-width="2" d="M104.885,-90.6411C89.8131,-88.8129 69.3338,-86.3286 52.4086,-84.2755"/>
<polygon fill="black" stroke="black" stroke-width="2" points="52.7583,-80.7924 42.4096,-83.0626 51.9153,-87.7414 52.7583,-80.7924"/>
</g>
<!-- 7&#45;&gt;2 -->
<g id="edge12" class="edge"><title>7&#45;&gt;2</title>
<path fill="none" stroke="black" stroke-width="2" d="M147.429,-95.1966C156.187,-96.0102 166.502,-96.9686 176.078,-97.8583"/>
<polygon fill="black" stroke="black" stroke-width="2" points="175.79,-101.346 186.071,-98.7866 176.437,-94.3764 175.79,-101.346"/>
</g>
<!-- 7&#45;&gt;3 -->
<g id="edge15" class="edge"><title>7&#45;&gt;3</title>
<path fill="none" stroke="black" stroke-width="2" d="M106.478,-102.344C96.6143,-106.929 84.4774,-112.571 73.6004,-117.628"/>
<polygon fill="black" stroke="black" stroke-width="2" points="72.0478,-114.49 64.4551,-121.879 74.9986,-120.837 72.0478,-114.49"/>
</g>
<!-- 7&#45;&gt;6 -->
<g id="edge18" class="edge"><title>7&#45;&gt;6</title>
<path fill="none" stroke="black" stroke-width="2" d="M125.927,-72.0024C125.874,-65.9044 125.814,-59.1214 125.757,-52.5493"/>
<polygon fill="black" stroke="black" stroke-width="2" points="129.256,-52.4932 125.669,-42.5242 122.257,-52.5545 129.256,-52.4932"/>
</g>
</g>
</svg>

