<?xml version="1.0" encoding="UTF-8" standalone="no"?>
<!DOCTYPE svg PUBLIC "-//W3C//DTD SVG 1.1//EN"
 "http://www.w3.org/Graphics/SVG/1.1/DTD/svg11.dtd">
<!-- Generated by graphviz version 2.36.0 (20140111.2315)
 -->
<!-- Title: G Pages: 1 -->
<svg width="100%" height="100%"
 viewBox="0.00 0.00 185.89 261.00" xmlns="http://www.w3.org/2000/svg" xmlns:xlink="http://www.w3.org/1999/xlink">
<g id="graph0" class="graph" transform="scale(1 1) rotate(0) translate(4 257.004)">
<title>G</title>
<!-- 0 -->
<g id="node1" class="node"><title>0</title>
<ellipse fill="cadetblue" stroke="black" cx="103.739" cy="-144.198" rx="21.4286" ry="21.4286"/>
<text text-anchor="middle" x="103.739" y="-139.198" font-family="Times New Roman,serif" font-size="20.00">2</text>
</g>
<!-- 5 -->
<g id="node6" class="node"><title>5</title>
<ellipse fill="cadetblue" stroke="black" cx="21.2132" cy="-98.0992" rx="21.4286" ry="21.4286"/>
<text text-anchor="middle" x="21.2132" y="-93.0992" font-family="Times New Roman,serif" font-size="20.00">2</text>
</g>
<!-- 0&#45;&gt;5 -->
<g id="edge3" class="edge"><title>0&#45;&gt;5</title>
<path fill="none" stroke="black" stroke-width="2" d="M85.0128,-133.738C74.3558,-127.785 60.8057,-120.216 48.9366,-113.585"/>
<polygon fill="black" stroke="black" stroke-width="2" points="50.3027,-110.34 39.8655,-108.518 46.8889,-116.451 50.3027,-110.34"/>
</g>
<!-- 6 -->
<g id="node7" class="node"><title>6</title>
<ellipse fill="cadetblue" stroke="black" cx="156.679" cy="-173.883" rx="21.4286" ry="21.4286"/>
<text text-anchor="middle" x="156.679" y="-168.883" font-family="Times New Roman,serif" font-size="20.00">2</text>
</g>
<!-- 0&#45;&gt;6 -->
<g id="edge4" class="edge"><title>0&#45;&gt;6</title>
<path fill="none" stroke="black" stroke-width="2" d="M122.255,-154.58C124.498,-155.839 126.826,-157.144 129.165,-158.455"/>
<polygon fill="black" stroke="black" stroke-width="2" points="127.65,-161.618 138.084,-163.456 131.073,-155.513 127.65,-161.618"/>
</g>
<!-- 7 -->
<g id="node8" class="node"><title>7</title>
<ellipse fill="cadetblue" stroke="black" cx="78.2435" cy="-85.0575" rx="21.4286" ry="21.4286"/>
<text text-anchor="middle" x="78.2435" y="-80.0575" font-family="Times New Roman,serif" font-size="20.00">2</text>
</g>
<!-- 0&#45;&gt;7 -->
<g id="edge5" class="edge"><title>0&#45;&gt;7</title>
<path fill="none" stroke="black" stroke-width="2" d="M95.2495,-124.505C93.8027,-121.149 92.2733,-117.602 90.7485,-114.065"/>
<polygon fill="black" stroke="black" stroke-width="2" points="93.956,-112.664 86.783,-104.866 87.5279,-115.435 93.956,-112.664"/>
</g>
<!-- 1 -->
<g id="node2" class="node"><title>1</title>
<ellipse fill="cadetblue" stroke="black" cx="53.3077" cy="-174.389" rx="21.4286" ry="21.4286"/>
<text text-anchor="middle" x="53.3077" y="-169.389" font-family="Times New Roman,serif" font-size="20.00">2</text>
</g>
<!-- 3 -->
<g id="node4" class="node"><title>3</title>
<ellipse fill="cadetblue" stroke="black" cx="106.276" cy="-231.791" rx="21.4286" ry="21.4286"/>
<text text-anchor="middle" x="106.276" y="-226.791" font-family="Times New Roman,serif" font-size="20.00">2</text>
</g>
<!-- 1&#45;&gt;3 -->
<g id="edge6" class="edge"><title>1&#45;&gt;3</title>
<path fill="none" stroke="black" stroke-width="2" d="M67.7816,-190.074C73.0367,-195.769 79.0922,-202.332 84.8217,-208.541"/>
<polygon fill="black" stroke="black" stroke-width="2" points="82.466,-211.149 91.8198,-216.125 87.6105,-206.402 82.466,-211.149"/>
</g>
<!-- 1&#45;&gt;7 -->
<g id="edge9" class="edge"><title>1&#45;&gt;7</title>
<path fill="none" stroke="black" stroke-width="2" d="M59.0912,-153.67C62.2698,-142.282 66.2715,-127.947 69.794,-115.327"/>
<polygon fill="black" stroke="black" stroke-width="2" points="73.1739,-116.237 72.4914,-105.664 66.4316,-114.355 73.1739,-116.237"/>
</g>
<!-- 2 -->
<g id="node3" class="node"><title>2</title>
<ellipse fill="cadetblue" stroke="black" cx="83.7487" cy="-21.2132" rx="21.4286" ry="21.4286"/>
<text text-anchor="middle" x="83.7487" y="-16.2132" font-family="Times New Roman,serif" font-size="20.00">2</text>
</g>
<!-- 4 -->
<g id="node5" class="node"><title>4</title>
<ellipse fill="cadetblue" stroke="black" cx="155.365" cy="-81.95" rx="21.4286" ry="21.4286"/>
<text text-anchor="middle" x="155.365" y="-76.95" font-family="Times New Roman,serif" font-size="20.00">2</text>
</g>
<!-- 2&#45;&gt;4 -->
<g id="edge10" class="edge"><title>2&#45;&gt;4</title>
<path fill="none" stroke="black" stroke-width="2" d="M99.9995,-34.9953C109.248,-42.8386 121.006,-52.8111 131.306,-61.5464"/>
<polygon fill="black" stroke="black" stroke-width="2" points="129.288,-64.4237 139.178,-68.2225 133.815,-59.0851 129.288,-64.4237"/>
</g>
<!-- 3&#45;&gt;0 -->
<g id="edge1" class="edge"><title>3&#45;&gt;0</title>
<path fill="none" stroke="black" stroke-width="2" d="M105.649,-210.139C105.348,-199.744 104.981,-187.09 104.65,-175.657"/>
<polygon fill="black" stroke="black" stroke-width="2" points="108.147,-175.496 104.359,-165.601 101.15,-175.698 108.147,-175.496"/>
</g>
<!-- 4&#45;&gt;0 -->
<g id="edge2" class="edge"><title>4&#45;&gt;0</title>
<path fill="none" stroke="black" stroke-width="2" d="M141.801,-98.305C136.39,-104.829 130.044,-112.481 124.102,-119.646"/>
<polygon fill="black" stroke="black" stroke-width="2" points="121.082,-117.805 117.392,-127.736 126.47,-122.273 121.082,-117.805"/>
</g>
<!-- 4&#45;&gt;6 -->
<g id="edge14" class="edge"><title>4&#45;&gt;6</title>
<path fill="none" stroke="black" stroke-width="2" d="M155.669,-103.272C155.834,-114.793 156.041,-129.245 156.224,-142.069"/>
<polygon fill="black" stroke="black" stroke-width="2" points="152.728,-142.409 156.371,-152.358 159.728,-142.309 152.728,-142.409"/>
</g>
<!-- 5&#45;&gt;1 -->
<g id="edge7" class="edge"><title>5&#45;&gt;1</title>
<path fill="none" stroke="black" stroke-width="2" d="M29.4783,-117.746C33.0348,-126.199 37.2641,-136.253 41.1655,-145.526"/>
<polygon fill="black" stroke="black" stroke-width="2" points="37.9666,-146.949 45.0706,-154.809 44.4189,-144.234 37.9666,-146.949"/>
</g>
<!-- 5&#45;&gt;2 -->
<g id="edge11" class="edge"><title>5&#45;&gt;2</title>
<path fill="none" stroke="black" stroke-width="2" d="M34.7825,-81.4161C43.2231,-71.0386 54.2293,-57.5066 63.6687,-45.9012"/>
<polygon fill="black" stroke="black" stroke-width="2" points="66.6113,-47.8302 70.2059,-37.8638 61.1807,-43.4132 66.6113,-47.8302"/>
</g>
<!-- 6&#45;&gt;1 -->
<g id="edge8" class="edge"><title>6&#45;&gt;1</title>
<path fill="none" stroke="black" stroke-width="2" d="M135.26,-173.988C120.707,-174.059 101.211,-174.154 84.8852,-174.234"/>
<polygon fill="black" stroke="black" stroke-width="2" points="84.6815,-170.735 74.6988,-174.284 84.7158,-177.735 84.6815,-170.735"/>
</g>
<!-- 6&#45;&gt;3 -->
<g id="edge13" class="edge"><title>6&#45;&gt;3</title>
<path fill="none" stroke="black" stroke-width="2" d="M142.639,-190.014C137.833,-195.535 132.348,-201.837 127.121,-207.843"/>
<polygon fill="black" stroke="black" stroke-width="2" points="124.166,-205.906 120.241,-215.747 129.446,-210.502 124.166,-205.906"/>
</g>
<!-- 7&#45;&gt;2 -->
<g id="edge12" class="edge"><title>7&#45;&gt;2</title>
<path fill="none" stroke="black" stroke-width="2" d="M80.0766,-63.7983C80.3799,-60.282 80.6999,-56.5706 81.0195,-52.8642"/>
<polygon fill="black" stroke="black" stroke-width="2" points="84.5327,-52.861 81.9048,-42.5973 77.5585,-52.2596 84.5327,-52.861"/>
</g>
<!-- 7&#45;&gt;4 -->
<g id="edge15" class="edge"><title>7&#45;&gt;4</title>
<path fill="none" stroke="black" stroke-width="2" d="M99.726,-84.1919C107.164,-83.8922 115.663,-83.5498 123.743,-83.2242"/>
<polygon fill="black" stroke="black" stroke-width="2" points="124.146,-86.7109 133.997,-82.811 123.864,-79.7166 124.146,-86.7109"/>
</g>
<!-- 7&#45;&gt;5 -->
<g id="edge16" class="edge"><title>7&#45;&gt;5</title>
<path fill="none" stroke="black" stroke-width="2" d="M57.3313,-89.8397C55.6266,-90.2296 53.8828,-90.6283 52.1267,-91.0299"/>
<polygon fill="black" stroke="black" stroke-width="2" points="51.0909,-87.6764 42.1228,-93.3176 52.6514,-94.5002 51.0909,-87.6764"/>
</g>
</g>
</svg>

