<?xml version="1.0" encoding="UTF-8" standalone="no"?>
<!DOCTYPE svg PUBLIC "-//W3C//DTD SVG 1.1//EN"
 "http://www.w3.org/Graphics/SVG/1.1/DTD/svg11.dtd">
<!-- Generated by graphviz version 2.36.0 (20140111.2315)
 -->
<!-- Title: G Pages: 1 -->
<svg width="100%" height="100%"
 viewBox="0.00 0.00 236.96 225.67" xmlns="http://www.w3.org/2000/svg" xmlns:xlink="http://www.w3.org/1999/xlink">
<g id="graph0" class="graph" transform="scale(1 1) rotate(0) translate(4 221.674)">
<title>G</title>
<!-- 0 -->
<g id="node1" class="node"><title>0</title>
<ellipse fill="cadetblue" stroke="black" cx="109.861" cy="-173.258" rx="21.4286" ry="21.4286"/>
<text text-anchor="middle" x="109.861" y="-168.258" font-family="Times New Roman,serif" font-size="20.00">2</text>
</g>
<!-- 5 -->
<g id="node6" class="node"><title>5</title>
<ellipse fill="cadetblue" stroke="black" cx="37.373" cy="-124.291" rx="21.4286" ry="21.4286"/>
<text text-anchor="middle" x="37.373" y="-119.291" font-family="Times New Roman,serif" font-size="20.00">2</text>
</g>
<!-- 0&#45;&gt;5 -->
<g id="edge3" class="edge"><title>0&#45;&gt;5</title>
<path fill="none" stroke="black" stroke-width="2" d="M91.9424,-161.154C83.3399,-155.342 72.8682,-148.268 63.4072,-141.877"/>
<polygon fill="black" stroke="black" stroke-width="2" points="65.3309,-138.953 55.0852,-136.256 61.4125,-144.754 65.3309,-138.953"/>
</g>
<!-- 6 -->
<g id="node7" class="node"><title>6</title>
<ellipse fill="cadetblue" stroke="black" cx="166.005" cy="-77.4801" rx="21.4286" ry="21.4286"/>
<text text-anchor="middle" x="166.005" y="-72.4801" font-family="Times New Roman,serif" font-size="20.00">2</text>
</g>
<!-- 0&#45;&gt;6 -->
<g id="edge4" class="edge"><title>0&#45;&gt;6</title>
<path fill="none" stroke="black" stroke-width="2" d="M120.686,-154.791C128.997,-140.613 140.6,-120.819 149.985,-104.808"/>
<polygon fill="black" stroke="black" stroke-width="2" points="153.175,-106.287 155.213,-95.8903 147.136,-102.747 153.175,-106.287"/>
</g>
<!-- 7 -->
<g id="node8" class="node"><title>7</title>
<ellipse fill="brown" stroke="black" cx="97.0457" cy="-100.455" rx="21.4286" ry="21.4286"/>
<text text-anchor="middle" x="97.0457" y="-95.455" font-family="Times New Roman,serif" font-size="20.00">3</text>
</g>
<!-- 0&#45;&gt;7 -->
<g id="edge5" class="edge"><title>0&#45;&gt;7</title>
<path fill="none" stroke="black" stroke-width="2" d="M106.154,-152.2C105.012,-145.711 103.729,-138.425 102.495,-131.414"/>
<polygon fill="black" stroke="black" stroke-width="2" points="105.925,-130.707 100.744,-121.465 99.0307,-131.921 105.925,-130.707"/>
</g>
<!-- 1 -->
<g id="node2" class="node"><title>1</title>
<ellipse fill="cadetblue" stroke="black" cx="160.292" cy="-192.469" rx="21.4286" ry="21.4286"/>
<text text-anchor="middle" x="160.292" y="-187.469" font-family="Times New Roman,serif" font-size="20.00">2</text>
</g>
<!-- 1&#45;&gt;6 -->
<g id="edge8" class="edge"><title>1&#45;&gt;6</title>
<path fill="none" stroke="black" stroke-width="2" d="M161.353,-171.11C162.223,-153.603 163.466,-128.578 164.449,-108.804"/>
<polygon fill="black" stroke="black" stroke-width="2" points="167.949,-108.886 164.95,-98.7247 160.958,-108.539 167.949,-108.886"/>
</g>
<!-- 2 -->
<g id="node3" class="node"><title>2</title>
<ellipse fill="cadetblue" stroke="black" cx="74.1635" cy="-21.2132" rx="21.4286" ry="21.4286"/>
<text text-anchor="middle" x="74.1635" y="-16.2132" font-family="Times New Roman,serif" font-size="20.00">2</text>
</g>
<!-- 2&#45;&gt;7 -->
<g id="edge11" class="edge"><title>2&#45;&gt;7</title>
<path fill="none" stroke="black" stroke-width="2" d="M80.0562,-41.6199C82.5457,-50.2411 85.4976,-60.4636 88.2366,-69.9491"/>
<polygon fill="black" stroke="black" stroke-width="2" points="84.9564,-71.2056 91.0934,-79.842 91.6816,-69.2635 84.9564,-71.2056"/>
</g>
<!-- 3 -->
<g id="node4" class="node"><title>3</title>
<ellipse fill="cadetblue" stroke="black" cx="21.2132" cy="-196.461" rx="21.4286" ry="21.4286"/>
<text text-anchor="middle" x="21.2132" y="-191.461" font-family="Times New Roman,serif" font-size="20.00">2</text>
</g>
<!-- 3&#45;&gt;0 -->
<g id="edge1" class="edge"><title>3&#45;&gt;0</title>
<path fill="none" stroke="black" stroke-width="2" d="M41.7735,-191.08C52.8821,-188.172 66.8179,-184.524 79.1836,-181.288"/>
<polygon fill="black" stroke="black" stroke-width="2" points="80.317,-184.609 89.1048,-178.691 78.5444,-177.837 80.317,-184.609"/>
</g>
<!-- 4 -->
<g id="node5" class="node"><title>4</title>
<ellipse fill="cadetblue" stroke="black" cx="207.751" cy="-137.751" rx="21.4286" ry="21.4286"/>
<text text-anchor="middle" x="207.751" y="-132.751" font-family="Times New Roman,serif" font-size="20.00">2</text>
</g>
<!-- 4&#45;&gt;0 -->
<g id="edge2" class="edge"><title>4&#45;&gt;0</title>
<path fill="none" stroke="black" stroke-width="2" d="M187.468,-145.108C173.687,-150.107 155.224,-156.804 139.764,-162.411"/>
<polygon fill="black" stroke="black" stroke-width="2" points="138.325,-159.21 130.118,-165.91 140.712,-165.79 138.325,-159.21"/>
</g>
<!-- 4&#45;&gt;1 -->
<g id="edge6" class="edge"><title>4&#45;&gt;1</title>
<path fill="none" stroke="black" stroke-width="2" d="M193.769,-153.872C189.749,-158.506 185.278,-163.661 180.947,-168.655"/>
<polygon fill="black" stroke="black" stroke-width="2" points="178.247,-166.426 174.339,-176.274 183.535,-171.013 178.247,-166.426"/>
</g>
<!-- 5&#45;&gt;1 -->
<g id="edge7" class="edge"><title>5&#45;&gt;1</title>
<path fill="none" stroke="black" stroke-width="2" d="M58.6126,-127.54C78.2558,-131.382 107.497,-139.302 128.478,-154.675 133.148,-158.097 137.567,-162.341 141.543,-166.737"/>
<polygon fill="black" stroke="black" stroke-width="2" points="139.077,-169.245 148.179,-174.668 144.446,-164.753 139.077,-169.245"/>
</g>
<!-- 5&#45;&gt;2 -->
<g id="edge9" class="edge"><title>5&#45;&gt;2</title>
<path fill="none" stroke="black" stroke-width="2" d="M44.6416,-103.926C50.0333,-88.8196 57.4678,-67.9902 63.5271,-51.0136"/>
<polygon fill="black" stroke="black" stroke-width="2" points="66.8447,-52.1303 66.9099,-41.5357 60.252,-49.7772 66.8447,-52.1303"/>
</g>
<!-- 5&#45;&gt;3 -->
<g id="edge12" class="edge"><title>5&#45;&gt;3</title>
<path fill="none" stroke="black" stroke-width="2" d="M32.6989,-145.165C31.271,-151.543 29.6693,-158.696 28.1258,-165.589"/>
<polygon fill="black" stroke="black" stroke-width="2" points="24.7024,-164.86 25.9328,-175.383 31.5333,-166.39 24.7024,-164.86"/>
</g>
<!-- 6&#45;&gt;2 -->
<g id="edge10" class="edge"><title>6&#45;&gt;2</title>
<path fill="none" stroke="black" stroke-width="2" d="M147.86,-66.3635C134.526,-58.1946 116.188,-46.9596 101.141,-37.7407"/>
<polygon fill="black" stroke="black" stroke-width="2" points="102.626,-34.5463 92.2707,-32.3066 98.9692,-40.5152 102.626,-34.5463"/>
</g>
<!-- 6&#45;&gt;4 -->
<g id="edge14" class="edge"><title>6&#45;&gt;4</title>
<path fill="none" stroke="black" stroke-width="2" d="M178.304,-95.2372C181.84,-100.342 185.773,-106.019 189.583,-111.521"/>
<polygon fill="black" stroke="black" stroke-width="2" points="186.824,-113.684 195.395,-119.912 192.579,-109.699 186.824,-113.684"/>
</g>
<!-- 6&#45;&gt;7 -->
<g id="edge17" class="edge"><title>6&#45;&gt;7</title>
<path fill="none" stroke="black" stroke-width="2" d="M145.688,-84.249C139.848,-86.1948 133.351,-88.3592 127.057,-90.4562"/>
<polygon fill="black" stroke="black" stroke-width="2" points="125.837,-87.1736 117.456,-93.655 128.049,-93.8147 125.837,-87.1736"/>
</g>
<!-- 7&#45;&gt;3 -->
<g id="edge13" class="edge"><title>7&#45;&gt;3</title>
<path fill="none" stroke="black" stroke-width="2" d="M83.8366,-117.178C71.9483,-132.229 54.3203,-154.547 40.7933,-171.672"/>
<polygon fill="black" stroke="black" stroke-width="2" points="37.9771,-169.591 34.5253,-179.608 43.4702,-173.93 37.9771,-169.591"/>
</g>
<!-- 7&#45;&gt;4 -->
<g id="edge15" class="edge"><title>7&#45;&gt;4</title>
<path fill="none" stroke="black" stroke-width="2" d="M117.351,-107.296C134.361,-113.026 158.872,-121.284 178.081,-127.755"/>
<polygon fill="black" stroke="black" stroke-width="2" points="176.981,-131.078 187.575,-130.953 179.216,-124.444 176.981,-131.078"/>
</g>
<!-- 7&#45;&gt;5 -->
<g id="edge16" class="edge"><title>7&#45;&gt;5</title>
<path fill="none" stroke="black" stroke-width="2" d="M77.1755,-108.392C73.889,-109.705 70.4201,-111.09 66.9558,-112.474"/>
<polygon fill="black" stroke="black" stroke-width="2" points="65.3481,-109.347 57.3598,-116.307 67.9447,-115.848 65.3481,-109.347"/>
</g>
</g>
</svg>

