<?xml version="1.0" encoding="UTF-8" standalone="no"?>
<!DOCTYPE svg PUBLIC "-//W3C//DTD SVG 1.1//EN"
 "http://www.w3.org/Graphics/SVG/1.1/DTD/svg11.dtd">
<!-- Generated by graphviz version 2.36.0 (20140111.2315)
 -->
<!-- Title: G Pages: 1 -->
<svg width="100%" height="100%"
 viewBox="0.00 0.00 240.87 271.20" xmlns="http://www.w3.org/2000/svg" xmlns:xlink="http://www.w3.org/1999/xlink">
<g id="graph0" class="graph" transform="scale(1 1) rotate(0) translate(4 267.203)">
<title>G</title>
<!-- 0 -->
<g id="node1" class="node"><title>0</title>
<ellipse fill="cadetblue" stroke="black" cx="117.466" cy="-159.737" rx="21.4286" ry="21.4286"/>
<text text-anchor="middle" x="117.466" y="-154.737" font-family="Times New Roman,serif" font-size="20.00">2</text>
</g>
<!-- 5 -->
<g id="node6" class="node"><title>5</title>
<ellipse fill="cadetblue" stroke="black" cx="21.2132" cy="-86.3373" rx="21.4286" ry="21.4286"/>
<text text-anchor="middle" x="21.2132" y="-81.3373" font-family="Times New Roman,serif" font-size="20.00">2</text>
</g>
<!-- 0&#45;&gt;5 -->
<g id="edge3" class="edge"><title>0&#45;&gt;5</title>
<path fill="none" stroke="black" stroke-width="2" d="M100.258,-146.615C85.3389,-135.238 63.545,-118.618 46.6182,-105.71"/>
<polygon fill="black" stroke="black" stroke-width="2" points="48.3465,-102.627 38.2723,-99.3461 44.1018,-108.193 48.3465,-102.627"/>
</g>
<!-- 6 -->
<g id="node7" class="node"><title>6</title>
<ellipse fill="brown" stroke="black" cx="189.23" cy="-150.223" rx="21.4286" ry="21.4286"/>
<text text-anchor="middle" x="189.23" y="-145.223" font-family="Times New Roman,serif" font-size="20.00">3</text>
</g>
<!-- 0&#45;&gt;6 -->
<g id="edge4" class="edge"><title>0&#45;&gt;6</title>
<path fill="none" stroke="black" stroke-width="2" d="M138.61,-156.934C144.687,-156.128 151.448,-155.232 157.998,-154.364"/>
<polygon fill="black" stroke="black" stroke-width="2" points="158.536,-157.823 167.99,-153.039 157.616,-150.884 158.536,-157.823"/>
</g>
<!-- 1 -->
<g id="node2" class="node"><title>1</title>
<ellipse fill="cadetblue" stroke="black" cx="51.3717" cy="-197.693" rx="21.4286" ry="21.4286"/>
<text text-anchor="middle" x="51.3717" y="-192.693" font-family="Times New Roman,serif" font-size="20.00">2</text>
</g>
<!-- 1&#45;&gt;6 -->
<g id="edge7" class="edge"><title>1&#45;&gt;6</title>
<path fill="none" stroke="black" stroke-width="2" d="M72.4683,-195.164C85.575,-193.301 102.68,-190.337 117.442,-186.042 126.034,-183.542 127.951,-182.159 136.049,-178.354 144.339,-174.46 153.189,-169.933 161.243,-165.664"/>
<polygon fill="black" stroke="black" stroke-width="2" points="163.099,-168.64 170.251,-160.823 159.786,-162.474 163.099,-168.64"/>
</g>
<!-- 7 -->
<g id="node8" class="node"><title>7</title>
<ellipse fill="brown" stroke="black" cx="110.869" cy="-109.306" rx="21.4286" ry="21.4286"/>
<text text-anchor="middle" x="110.869" y="-104.306" font-family="Times New Roman,serif" font-size="20.00">3</text>
</g>
<!-- 1&#45;&gt;7 -->
<g id="edge8" class="edge"><title>1&#45;&gt;7</title>
<path fill="none" stroke="black" stroke-width="2" d="M63.4119,-179.807C71.9602,-167.107 83.5757,-149.852 93.1755,-135.591"/>
<polygon fill="black" stroke="black" stroke-width="2" points="96.166,-137.416 98.8467,-127.166 90.359,-133.507 96.166,-137.416"/>
</g>
<!-- 2 -->
<g id="node3" class="node"><title>2</title>
<ellipse fill="cadetblue" stroke="black" cx="125.894" cy="-21.2132" rx="21.4286" ry="21.4286"/>
<text text-anchor="middle" x="125.894" y="-16.2132" font-family="Times New Roman,serif" font-size="20.00">2</text>
</g>
<!-- 2&#45;&gt;6 -->
<g id="edge11" class="edge"><title>2&#45;&gt;6</title>
<path fill="none" stroke="black" stroke-width="2" d="M135.376,-40.5273C145.917,-61.9981 163.048,-96.8931 175.155,-121.553"/>
<polygon fill="black" stroke="black" stroke-width="2" points="172.134,-123.343 179.683,-130.777 178.418,-120.258 172.134,-123.343"/>
</g>
<!-- 2&#45;&gt;7 -->
<g id="edge12" class="edge"><title>2&#45;&gt;7</title>
<path fill="none" stroke="black" stroke-width="2" d="M122.257,-42.5379C120.43,-53.2503 118.181,-66.4319 116.167,-78.2449"/>
<polygon fill="black" stroke="black" stroke-width="2" points="112.704,-77.7312 114.473,-88.1774 119.604,-78.9082 112.704,-77.7312"/>
</g>
<!-- 3 -->
<g id="node4" class="node"><title>3</title>
<ellipse fill="cadetblue" stroke="black" cx="144.992" cy="-241.99" rx="21.4286" ry="21.4286"/>
<text text-anchor="middle" x="144.992" y="-236.99" font-family="Times New Roman,serif" font-size="20.00">2</text>
</g>
<!-- 3&#45;&gt;0 -->
<g id="edge1" class="edge"><title>3&#45;&gt;0</title>
<path fill="none" stroke="black" stroke-width="2" d="M138.188,-221.658C134.979,-212.068 131.084,-200.431 127.542,-189.846"/>
<polygon fill="black" stroke="black" stroke-width="2" points="130.78,-188.493 124.288,-180.12 124.142,-190.714 130.78,-188.493"/>
</g>
<!-- 3&#45;&gt;1 -->
<g id="edge5" class="edge"><title>3&#45;&gt;1</title>
<path fill="none" stroke="black" stroke-width="2" d="M125.594,-232.811C112.413,-226.575 94.7561,-218.22 79.9706,-211.225"/>
<polygon fill="black" stroke="black" stroke-width="2" points="81.2812,-207.973 70.745,-206.86 78.2873,-214.3 81.2812,-207.973"/>
</g>
<!-- 4 -->
<g id="node5" class="node"><title>4</title>
<ellipse fill="cadetblue" stroke="black" cx="211.652" cy="-65.6645" rx="21.4286" ry="21.4286"/>
<text text-anchor="middle" x="211.652" y="-60.6645" font-family="Times New Roman,serif" font-size="20.00">2</text>
</g>
<!-- 4&#45;&gt;0 -->
<g id="edge2" class="edge"><title>4&#45;&gt;0</title>
<path fill="none" stroke="black" stroke-width="2" d="M196.519,-80.7789C181.278,-96.0024 157.579,-119.673 140.101,-137.13"/>
<polygon fill="black" stroke="black" stroke-width="2" points="137.163,-135.117 132.561,-144.66 142.11,-140.07 137.163,-135.117"/>
</g>
<!-- 4&#45;&gt;2 -->
<g id="edge9" class="edge"><title>4&#45;&gt;2</title>
<path fill="none" stroke="black" stroke-width="2" d="M192.619,-55.7993C181.295,-49.9293 166.716,-42.3726 154.075,-35.8207"/>
<polygon fill="black" stroke="black" stroke-width="2" points="155.362,-32.5454 144.873,-31.0508 152.141,-38.7601 155.362,-32.5454"/>
</g>
<!-- 5&#45;&gt;1 -->
<g id="edge6" class="edge"><title>5&#45;&gt;1</title>
<path fill="none" stroke="black" stroke-width="2" d="M26.8151,-107.021C31.4068,-123.976 37.9702,-148.21 43.1564,-167.359"/>
<polygon fill="black" stroke="black" stroke-width="2" points="39.8073,-168.382 45.7998,-177.12 46.5639,-166.552 39.8073,-168.382"/>
</g>
<!-- 5&#45;&gt;2 -->
<g id="edge10" class="edge"><title>5&#45;&gt;2</title>
<path fill="none" stroke="black" stroke-width="2" d="M39.4472,-74.9936C55.9587,-64.7214 80.491,-49.4593 99.2081,-37.8149"/>
<polygon fill="black" stroke="black" stroke-width="2" points="101.227,-40.6813 107.869,-32.427 97.529,-34.7376 101.227,-40.6813"/>
</g>
<!-- 6&#45;&gt;3 -->
<g id="edge13" class="edge"><title>6&#45;&gt;3</title>
<path fill="none" stroke="black" stroke-width="2" d="M179.848,-169.684C173.707,-182.423 165.579,-199.283 158.717,-213.518"/>
<polygon fill="black" stroke="black" stroke-width="2" points="155.398,-212.343 154.208,-222.871 161.704,-215.383 155.398,-212.343"/>
</g>
<!-- 6&#45;&gt;4 -->
<g id="edge15" class="edge"><title>6&#45;&gt;4</title>
<path fill="none" stroke="black" stroke-width="2" d="M194.772,-129.321C197.433,-119.286 200.672,-107.07 203.599,-96.034"/>
<polygon fill="black" stroke="black" stroke-width="2" points="206.993,-96.8893 206.173,-86.3262 200.227,-95.095 206.993,-96.8893"/>
</g>
<!-- 6&#45;&gt;7 -->
<g id="edge18" class="edge"><title>6&#45;&gt;7</title>
<path fill="none" stroke="black" stroke-width="2" d="M170.261,-140.318C160.897,-135.429 149.413,-129.432 139.047,-124.02"/>
<polygon fill="black" stroke="black" stroke-width="2" points="140.419,-120.787 129.935,-119.261 137.179,-126.992 140.419,-120.787"/>
</g>
<!-- 7&#45;&gt;3 -->
<g id="edge14" class="edge"><title>7&#45;&gt;3</title>
<path fill="none" stroke="black" stroke-width="2" d="M125.647,-125.141C133.098,-134.432 141.11,-146.856 143.771,-159.761 147.19,-176.349 147.703,-195.22 147.269,-210.696"/>
<polygon fill="black" stroke="black" stroke-width="2" points="143.767,-210.66 146.841,-220.799 150.761,-210.956 143.767,-210.66"/>
</g>
<!-- 7&#45;&gt;4 -->
<g id="edge16" class="edge"><title>7&#45;&gt;4</title>
<path fill="none" stroke="black" stroke-width="2" d="M130.78,-100.684C145.646,-94.2464 166.181,-85.3545 182.838,-78.1417"/>
<polygon fill="black" stroke="black" stroke-width="2" points="184.339,-81.3057 192.125,-74.1202 181.557,-74.8821 184.339,-81.3057"/>
</g>
<!-- 7&#45;&gt;5 -->
<g id="edge17" class="edge"><title>7&#45;&gt;5</title>
<path fill="none" stroke="black" stroke-width="2" d="M90.0748,-103.979C78.6459,-101.051 64.258,-97.3647 51.5929,-94.1201"/>
<polygon fill="black" stroke="black" stroke-width="2" points="52.4504,-90.7268 41.8946,-91.6356 50.7132,-97.5079 52.4504,-90.7268"/>
</g>
</g>
</svg>

