<?xml version="1.0" encoding="UTF-8" standalone="no"?>
<!DOCTYPE svg PUBLIC "-//W3C//DTD SVG 1.1//EN"
 "http://www.w3.org/Graphics/SVG/1.1/DTD/svg11.dtd">
<!-- Generated by graphviz version 2.36.0 (20140111.2315)
 -->
<!-- Title: G Pages: 1 -->
<svg width="100%" height="100%"
 viewBox="0.00 0.00 214.46 247.57" xmlns="http://www.w3.org/2000/svg" xmlns:xlink="http://www.w3.org/1999/xlink">
<g id="graph0" class="graph" transform="scale(1 1) rotate(0) translate(4 243.567)">
<title>G</title>
<!-- 0 -->
<g id="node1" class="node"><title>0</title>
<ellipse fill="cadetblue" stroke="black" cx="22.6193" cy="-78.0674" rx="21.4286" ry="21.4286"/>
<text text-anchor="middle" x="22.6193" y="-73.0674" font-family="Times New Roman,serif" font-size="20.00">2</text>
</g>
<!-- 7 -->
<g id="node8" class="node"><title>7</title>
<ellipse fill="brown" stroke="black" cx="111.018" cy="-125.282" rx="21.4286" ry="21.4286"/>
<text text-anchor="middle" x="111.018" y="-120.282" font-family="Times New Roman,serif" font-size="20.00">3</text>
</g>
<!-- 0&#45;&gt;7 -->
<g id="edge3" class="edge"><title>0&#45;&gt;7</title>
<path fill="none" stroke="black" stroke-width="2" d="M41.3665,-88.0805C53.5553,-94.5907 69.6615,-103.193 83.3155,-110.486"/>
<polygon fill="black" stroke="black" stroke-width="2" points="81.8286,-113.66 92.2982,-115.284 85.1265,-107.485 81.8286,-113.66"/>
</g>
<!-- 1 -->
<g id="node2" class="node"><title>1</title>
<ellipse fill="cadetblue" stroke="black" cx="154.54" cy="-218.354" rx="21.4286" ry="21.4286"/>
<text text-anchor="middle" x="154.54" y="-213.354" font-family="Times New Roman,serif" font-size="20.00">2</text>
</g>
<!-- 6 -->
<g id="node7" class="node"><title>6</title>
<ellipse fill="cadetblue" stroke="black" cx="185.244" cy="-115.059" rx="21.4286" ry="21.4286"/>
<text text-anchor="middle" x="185.244" y="-110.059" font-family="Times New Roman,serif" font-size="20.00">2</text>
</g>
<!-- 1&#45;&gt;6 -->
<g id="edge6" class="edge"><title>1&#45;&gt;6</title>
<path fill="none" stroke="black" stroke-width="2" d="M160.606,-197.946C165.064,-182.95 171.194,-162.325 176.225,-145.401"/>
<polygon fill="black" stroke="black" stroke-width="2" points="179.696,-146.008 179.19,-135.425 172.986,-144.013 179.696,-146.008"/>
</g>
<!-- 1&#45;&gt;7 -->
<g id="edge7" class="edge"><title>1&#45;&gt;7</title>
<path fill="none" stroke="black" stroke-width="2" d="M145.522,-199.069C139.395,-185.966 131.187,-168.413 124.313,-153.714"/>
<polygon fill="black" stroke="black" stroke-width="2" points="127.431,-152.118 120.025,-144.542 121.09,-155.083 127.431,-152.118"/>
</g>
<!-- 2 -->
<g id="node3" class="node"><title>2</title>
<ellipse fill="cadetblue" stroke="black" cx="73.0508" cy="-29.0397" rx="21.4286" ry="21.4286"/>
<text text-anchor="middle" x="73.0508" y="-24.0397" font-family="Times New Roman,serif" font-size="20.00">2</text>
</g>
<!-- 2&#45;&gt;6 -->
<g id="edge10" class="edge"><title>2&#45;&gt;6</title>
<path fill="none" stroke="black" stroke-width="2" d="M90.0904,-42.1042C108.706,-56.3774 138.715,-79.3853 160.052,-95.7447"/>
<polygon fill="black" stroke="black" stroke-width="2" points="157.978,-98.565 168.044,-101.872 162.237,-93.0098 157.978,-98.565"/>
</g>
<!-- 3 -->
<g id="node4" class="node"><title>3</title>
<ellipse fill="cadetblue" stroke="black" cx="80.7706" cy="-202.36" rx="21.4286" ry="21.4286"/>
<text text-anchor="middle" x="80.7706" y="-197.36" font-family="Times New Roman,serif" font-size="20.00">2</text>
</g>
<!-- 3&#45;&gt;0 -->
<g id="edge1" class="edge"><title>3&#45;&gt;0</title>
<path fill="none" stroke="black" stroke-width="2" d="M71.6844,-182.94C62.0827,-162.417 46.8439,-129.845 35.8963,-106.446"/>
<polygon fill="black" stroke="black" stroke-width="2" points="39.0496,-104.926 31.6416,-97.3518 32.7092,-107.893 39.0496,-104.926"/>
</g>
<!-- 3&#45;&gt;1 -->
<g id="edge4" class="edge"><title>3&#45;&gt;1</title>
<path fill="none" stroke="black" stroke-width="2" d="M101.713,-206.901C108.624,-208.399 116.46,-210.098 123.941,-211.72"/>
<polygon fill="black" stroke="black" stroke-width="2" points="123.286,-215.159 133.801,-213.858 124.77,-208.318 123.286,-215.159"/>
</g>
<!-- 5 -->
<g id="node6" class="node"><title>5</title>
<ellipse fill="cadetblue" stroke="black" cx="21.2132" cy="-163.823" rx="21.4286" ry="21.4286"/>
<text text-anchor="middle" x="21.2132" y="-158.823" font-family="Times New Roman,serif" font-size="20.00">2</text>
</g>
<!-- 3&#45;&gt;5 -->
<g id="edge11" class="edge"><title>3&#45;&gt;5</title>
<path fill="none" stroke="black" stroke-width="2" d="M62.9014,-190.798C58.0724,-187.673 52.7431,-184.225 47.5548,-180.868"/>
<polygon fill="black" stroke="black" stroke-width="2" points="49.3669,-177.871 39.0698,-175.377 45.5641,-183.748 49.3669,-177.871"/>
</g>
<!-- 4 -->
<g id="node5" class="node"><title>4</title>
<ellipse fill="cadetblue" stroke="black" cx="149.217" cy="-21.2132" rx="21.4286" ry="21.4286"/>
<text text-anchor="middle" x="149.217" y="-16.2132" font-family="Times New Roman,serif" font-size="20.00">2</text>
</g>
<!-- 4&#45;&gt;0 -->
<g id="edge2" class="edge"><title>4&#45;&gt;0</title>
<path fill="none" stroke="black" stroke-width="2" d="M129.791,-30.2276C118.641,-35.3783 104.367,-41.9336 91.6233,-47.6671 78.5294,-53.5581 63.9891,-59.9815 51.6452,-65.3997"/>
<polygon fill="black" stroke="black" stroke-width="2" points="50.0411,-62.2813 42.2862,-69.5002 52.8503,-68.6929 50.0411,-62.2813"/>
</g>
<!-- 4&#45;&gt;2 -->
<g id="edge8" class="edge"><title>4&#45;&gt;2</title>
<path fill="none" stroke="black" stroke-width="2" d="M128.001,-23.3933C120.655,-24.1481 112.261,-25.0107 104.281,-25.8306"/>
<polygon fill="black" stroke="black" stroke-width="2" points="103.743,-22.3673 94.1536,-26.8713 104.459,-29.3307 103.743,-22.3673"/>
</g>
<!-- 5&#45;&gt;1 -->
<g id="edge5" class="edge"><title>5&#45;&gt;1</title>
<path fill="none" stroke="black" stroke-width="2" d="M42.4246,-167.155C53.92,-169.215 68.2948,-172.205 80.8142,-176.056 97.9379,-181.323 115.401,-191.107 129.031,-199.94"/>
<polygon fill="black" stroke="black" stroke-width="2" points="127.138,-202.884 137.392,-205.55 131.038,-197.072 127.138,-202.884"/>
</g>
<!-- 5&#45;&gt;2 -->
<g id="edge9" class="edge"><title>5&#45;&gt;2</title>
<path fill="none" stroke="black" stroke-width="2" d="M28.862,-143.935C37.5142,-121.439 51.693,-84.5721 61.651,-58.6804"/>
<polygon fill="black" stroke="black" stroke-width="2" points="65.0476,-59.599 65.3706,-49.009 58.5141,-57.0862 65.0476,-59.599"/>
</g>
<!-- 6&#45;&gt;3 -->
<g id="edge12" class="edge"><title>6&#45;&gt;3</title>
<path fill="none" stroke="black" stroke-width="2" d="M168.92,-128.7C151.847,-142.967 124.853,-165.524 105.232,-181.92"/>
<polygon fill="black" stroke="black" stroke-width="2" points="102.754,-179.429 97.3246,-188.527 107.243,-184.801 102.754,-179.429"/>
</g>
<!-- 6&#45;&gt;4 -->
<g id="edge14" class="edge"><title>6&#45;&gt;4</title>
<path fill="none" stroke="black" stroke-width="2" d="M177.603,-95.1571C172.636,-82.2172 166.072,-65.1185 160.507,-50.6231"/>
<polygon fill="black" stroke="black" stroke-width="2" points="163.698,-49.1683 156.847,-41.0869 157.163,-51.677 163.698,-49.1683"/>
</g>
<!-- 6&#45;&gt;7 -->
<g id="edge17" class="edge"><title>6&#45;&gt;7</title>
<path fill="none" stroke="black" stroke-width="2" d="M164.172,-117.962C157.355,-118.9 149.645,-119.962 142.253,-120.98"/>
<polygon fill="black" stroke="black" stroke-width="2" points="141.571,-117.541 132.143,-122.373 142.527,-124.476 141.571,-117.541"/>
</g>
<!-- 7&#45;&gt;3 -->
<g id="edge13" class="edge"><title>7&#45;&gt;3</title>
<path fill="none" stroke="black" stroke-width="2" d="M103.229,-145.132C99.877,-153.673 95.8911,-163.83 92.2141,-173.2"/>
<polygon fill="black" stroke="black" stroke-width="2" points="88.9288,-171.991 88.5337,-182.578 95.445,-174.548 88.9288,-171.991"/>
</g>
<!-- 7&#45;&gt;4 -->
<g id="edge15" class="edge"><title>7&#45;&gt;4</title>
<path fill="none" stroke="black" stroke-width="2" d="M118.384,-105.217C124.038,-89.8119 131.933,-68.3036 138.318,-50.9074"/>
<polygon fill="black" stroke="black" stroke-width="2" points="141.715,-51.8108 141.875,-41.2172 135.143,-49.3988 141.715,-51.8108"/>
</g>
<!-- 7&#45;&gt;5 -->
<g id="edge16" class="edge"><title>7&#45;&gt;5</title>
<path fill="none" stroke="black" stroke-width="2" d="M91.0877,-133.836C79.029,-139.011 63.4471,-145.698 50.0587,-151.444"/>
<polygon fill="black" stroke="black" stroke-width="2" points="48.5883,-148.266 40.7792,-155.426 51.349,-154.699 48.5883,-148.266"/>
</g>
</g>
</svg>

