<?xml version="1.0" encoding="UTF-8" standalone="no"?>
<!DOCTYPE svg PUBLIC "-//W3C//DTD SVG 1.1//EN"
 "http://www.w3.org/Graphics/SVG/1.1/DTD/svg11.dtd">
<!-- Generated by graphviz version 2.36.0 (20140111.2315)
 -->
<!-- Title: G Pages: 1 -->
<svg width="100%" height="100%"
 viewBox="0.00 0.00 241.58 229.46" xmlns="http://www.w3.org/2000/svg" xmlns:xlink="http://www.w3.org/1999/xlink">
<g id="graph0" class="graph" transform="scale(1 1) rotate(0) translate(4 225.462)">
<title>G</title>
<!-- 0 -->
<g id="node1" class="node"><title>0</title>
<ellipse fill="cadetblue" stroke="black" cx="70.3641" cy="-74.7945" rx="21.4286" ry="21.4286"/>
<text text-anchor="middle" x="70.3641" y="-69.7945" font-family="Times New Roman,serif" font-size="20.00">2</text>
</g>
<!-- 5 -->
<g id="node6" class="node"><title>5</title>
<ellipse fill="cadetblue" stroke="black" cx="148.061" cy="-151.023" rx="21.4286" ry="21.4286"/>
<text text-anchor="middle" x="148.061" y="-146.023" font-family="Times New Roman,serif" font-size="20.00">2</text>
</g>
<!-- 0&#45;&gt;5 -->
<g id="edge3" class="edge"><title>0&#45;&gt;5</title>
<path fill="none" stroke="black" stroke-width="2" d="M83.2422,-91.8693C88.7404,-98.7671 95.4055,-106.64 102.013,-113.236 108.43,-119.643 115.854,-126.094 122.842,-131.808"/>
<polygon fill="black" stroke="black" stroke-width="2" points="120.76,-134.624 130.758,-138.129 125.128,-129.154 120.76,-134.624"/>
</g>
<!-- 6 -->
<g id="node7" class="node"><title>6</title>
<ellipse fill="brown" stroke="black" cx="120.796" cy="-94.8207" rx="21.4286" ry="21.4286"/>
<text text-anchor="middle" x="120.796" y="-89.8207" font-family="Times New Roman,serif" font-size="20.00">3</text>
</g>
<!-- 0&#45;&gt;6 -->
<g id="edge4" class="edge"><title>0&#45;&gt;6</title>
<path fill="none" stroke="black" stroke-width="2" d="M90.2959,-82.7094C90.7364,-82.8843 91.1792,-83.0601 91.6236,-83.2366"/>
<polygon fill="black" stroke="black" stroke-width="2" points="90.4226,-86.5255 101.008,-86.9633 93.0061,-80.0197 90.4226,-86.5255"/>
</g>
<!-- 1 -->
<g id="node2" class="node"><title>1</title>
<ellipse fill="cadetblue" stroke="black" cx="21.2132" cy="-152.969" rx="21.4286" ry="21.4286"/>
<text text-anchor="middle" x="21.2132" y="-147.969" font-family="Times New Roman,serif" font-size="20.00">2</text>
</g>
<!-- 1&#45;&gt;6 -->
<g id="edge7" class="edge"><title>1&#45;&gt;6</title>
<path fill="none" stroke="black" stroke-width="2" d="M39.9439,-142.032C54.9658,-133.26 76.2679,-120.821 93.2356,-110.913"/>
<polygon fill="black" stroke="black" stroke-width="2" points="95.2781,-113.774 102.149,-105.709 91.7484,-107.729 95.2781,-113.774"/>
</g>
<!-- 2 -->
<g id="node3" class="node"><title>2</title>
<ellipse fill="cadetblue" stroke="black" cx="187.375" cy="-21.2132" rx="21.4286" ry="21.4286"/>
<text text-anchor="middle" x="187.375" y="-16.2132" font-family="Times New Roman,serif" font-size="20.00">2</text>
</g>
<!-- 2&#45;&gt;6 -->
<g id="edge10" class="edge"><title>2&#45;&gt;6</title>
<path fill="none" stroke="black" stroke-width="2" d="M172.928,-37.1849C163.942,-47.12 152.224,-60.0749 142.174,-71.1854"/>
<polygon fill="black" stroke="black" stroke-width="2" points="139.326,-69.116 135.214,-78.8801 144.518,-73.8117 139.326,-69.116"/>
</g>
<!-- 3 -->
<g id="node4" class="node"><title>3</title>
<ellipse fill="cadetblue" stroke="black" cx="81.0115" cy="-200.249" rx="21.4286" ry="21.4286"/>
<text text-anchor="middle" x="81.0115" y="-195.249" font-family="Times New Roman,serif" font-size="20.00">2</text>
</g>
<!-- 3&#45;&gt;0 -->
<g id="edge1" class="edge"><title>3&#45;&gt;0</title>
<path fill="none" stroke="black" stroke-width="2" d="M79.2053,-178.968C77.5151,-159.052 74.9686,-129.048 73.042,-106.347"/>
<polygon fill="black" stroke="black" stroke-width="2" points="76.5123,-105.849 72.1791,-96.1806 69.5374,-106.441 76.5123,-105.849"/>
</g>
<!-- 3&#45;&gt;1 -->
<g id="edge5" class="edge"><title>3&#45;&gt;1</title>
<path fill="none" stroke="black" stroke-width="2" d="M64.3543,-187.079C58.7473,-182.646 52.3616,-177.597 46.2538,-172.768"/>
<polygon fill="black" stroke="black" stroke-width="2" points="48.2116,-169.854 38.1965,-166.397 43.87,-175.345 48.2116,-169.854"/>
</g>
<!-- 4 -->
<g id="node5" class="node"><title>4</title>
<ellipse fill="cadetblue" stroke="black" cx="212.371" cy="-95.2903" rx="21.4286" ry="21.4286"/>
<text text-anchor="middle" x="212.371" y="-90.2903" font-family="Times New Roman,serif" font-size="20.00">2</text>
</g>
<!-- 4&#45;&gt;0 -->
<g id="edge2" class="edge"><title>4&#45;&gt;0</title>
<path fill="none" stroke="black" stroke-width="2" d="M192.51,-86.9069C174.308,-79.8464 146.414,-70.5761 121.056,-68.5176 114.827,-68.012 108.186,-68.2603 101.833,-68.8859"/>
<polygon fill="black" stroke="black" stroke-width="2" points="100.998,-65.4651 91.5339,-70.2283 101.902,-72.4063 100.998,-65.4651"/>
</g>
<!-- 4&#45;&gt;2 -->
<g id="edge8" class="edge"><title>4&#45;&gt;2</title>
<path fill="none" stroke="black" stroke-width="2" d="M205.54,-75.0484C203.033,-67.6174 200.139,-59.042 197.409,-50.9507"/>
<polygon fill="black" stroke="black" stroke-width="2" points="200.71,-49.7867 194.197,-41.4306 194.078,-52.0248 200.71,-49.7867"/>
</g>
<!-- 5&#45;&gt;1 -->
<g id="edge6" class="edge"><title>5&#45;&gt;1</title>
<path fill="none" stroke="black" stroke-width="2" d="M126.83,-151.349C106.524,-151.66 75.659,-152.134 52.5305,-152.489"/>
<polygon fill="black" stroke="black" stroke-width="2" points="52.4591,-148.989 42.514,-152.642 52.5665,-155.988 52.4591,-148.989"/>
</g>
<!-- 5&#45;&gt;2 -->
<g id="edge9" class="edge"><title>5&#45;&gt;2</title>
<path fill="none" stroke="black" stroke-width="2" d="M154.291,-130.455C160.732,-109.186 170.858,-75.7515 178.211,-51.4697"/>
<polygon fill="black" stroke="black" stroke-width="2" points="181.626,-52.271 181.175,-41.6858 174.926,-50.242 181.626,-52.271"/>
</g>
<!-- 5&#45;&gt;3 -->
<g id="edge11" class="edge"><title>5&#45;&gt;3</title>
<path fill="none" stroke="black" stroke-width="2" d="M130.794,-163.7C123.422,-169.113 114.666,-175.541 106.568,-181.487"/>
<polygon fill="black" stroke="black" stroke-width="2" points="104.443,-178.705 98.453,-187.444 108.585,-184.347 104.443,-178.705"/>
</g>
<!-- 5&#45;&gt;4 -->
<g id="edge13" class="edge"><title>5&#45;&gt;4</title>
<path fill="none" stroke="black" stroke-width="2" d="M164.289,-136.96C171.545,-130.671 180.248,-123.129 188.244,-116.199"/>
<polygon fill="black" stroke="black" stroke-width="2" points="190.659,-118.738 195.924,-109.543 186.075,-113.448 190.659,-118.738"/>
</g>
<!-- 6&#45;&gt;3 -->
<g id="edge12" class="edge"><title>6&#45;&gt;3</title>
<path fill="none" stroke="black" stroke-width="2" d="M113.125,-115.148C107.198,-130.855 98.9079,-152.823 92.2354,-170.506"/>
<polygon fill="black" stroke="black" stroke-width="2" points="88.7798,-169.75 88.5238,-180.342 95.329,-172.221 88.7798,-169.75"/>
</g>
<!-- 6&#45;&gt;4 -->
<g id="edge14" class="edge"><title>6&#45;&gt;4</title>
<path fill="none" stroke="black" stroke-width="2" d="M142.035,-94.9296C153.51,-94.9885 167.906,-95.0623 180.68,-95.1278"/>
<polygon fill="black" stroke="black" stroke-width="2" points="180.911,-98.6289 190.929,-95.1803 180.947,-91.629 180.911,-98.6289"/>
</g>
<!-- 6&#45;&gt;5 -->
<g id="edge15" class="edge"><title>6&#45;&gt;5</title>
<path fill="none" stroke="black" stroke-width="2" d="M130.179,-114.162C131.522,-116.931 132.926,-119.825 134.332,-122.723"/>
<polygon fill="black" stroke="black" stroke-width="2" points="131.239,-124.367 138.753,-131.836 137.537,-121.311 131.239,-124.367"/>
</g>
</g>
</svg>

