<?xml version="1.0" encoding="UTF-8" standalone="no"?>
<!DOCTYPE svg PUBLIC "-//W3C//DTD SVG 1.1//EN"
 "http://www.w3.org/Graphics/SVG/1.1/DTD/svg11.dtd">
<!-- Generated by graphviz version 2.36.0 (20140111.2315)
 -->
<!-- Title: G Pages: 1 -->
<svg width="100%" height="100%"
 viewBox="0.00 0.00 326.34 282.41" xmlns="http://www.w3.org/2000/svg" xmlns:xlink="http://www.w3.org/1999/xlink">
<g id="graph0" class="graph" transform="scale(1 1) rotate(0) translate(4 278.412)">
<title>G</title>
<!-- 0 -->
<g id="node1" class="node"><title>0</title>
<ellipse fill="cadetblue" stroke="black" cx="196.347" cy="-21.2132" rx="21.4286" ry="21.4286"/>
<text text-anchor="middle" x="196.347" y="-16.2132" font-family="Times New Roman,serif" font-size="20.00">2</text>
</g>
<!-- 6 -->
<g id="node7" class="node"><title>6</title>
<ellipse fill="brown" stroke="black" cx="160.208" cy="-117.957" rx="21.4286" ry="21.4286"/>
<text text-anchor="middle" x="160.208" y="-112.957" font-family="Times New Roman,serif" font-size="20.00">3</text>
</g>
<!-- 0&#45;&gt;6 -->
<g id="edge3" class="edge"><title>0&#45;&gt;6</title>
<path fill="none" stroke="black" stroke-width="2" d="M188.859,-41.2587C183.771,-54.8789 176.955,-73.1253 171.247,-88.4042"/>
<polygon fill="black" stroke="black" stroke-width="2" points="167.907,-87.345 167.686,-97.9376 174.464,-89.7946 167.907,-87.345"/>
</g>
<!-- 7 -->
<g id="node8" class="node"><title>7</title>
<ellipse fill="brown" stroke="black" cx="210.639" cy="-160.926" rx="21.4286" ry="21.4286"/>
<text text-anchor="middle" x="210.639" y="-155.926" font-family="Times New Roman,serif" font-size="20.00">3</text>
</g>
<!-- 0&#45;&gt;7 -->
<g id="edge4" class="edge"><title>0&#45;&gt;7</title>
<path fill="none" stroke="black" stroke-width="2" d="M198.518,-42.4326C200.889,-65.6151 204.712,-102.985 207.43,-129.555"/>
<polygon fill="black" stroke="black" stroke-width="2" points="203.948,-129.915 208.448,-139.507 210.912,-129.203 203.948,-129.915"/>
</g>
<!-- 1 -->
<g id="node2" class="node"><title>1</title>
<ellipse fill="cadetblue" stroke="black" cx="21.2132" cy="-188.56" rx="21.4286" ry="21.4286"/>
<text text-anchor="middle" x="21.2132" y="-183.56" font-family="Times New Roman,serif" font-size="20.00">2</text>
</g>
<!-- 1&#45;&gt;6 -->
<g id="edge7" class="edge"><title>1&#45;&gt;6</title>
<path fill="none" stroke="black" stroke-width="2" d="M40.2483,-178.891C63.9252,-166.864 104.556,-146.226 131.892,-132.341"/>
<polygon fill="black" stroke="black" stroke-width="2" points="133.626,-135.385 140.956,-127.736 130.455,-129.144 133.626,-135.385"/>
</g>
<!-- 2 -->
<g id="node3" class="node"><title>2</title>
<ellipse fill="cadetblue" stroke="black" cx="255.773" cy="-241.062" rx="21.4286" ry="21.4286"/>
<text text-anchor="middle" x="255.773" y="-236.062" font-family="Times New Roman,serif" font-size="20.00">2</text>
</g>
<!-- 2&#45;&gt;6 -->
<g id="edge10" class="edge"><title>2&#45;&gt;6</title>
<path fill="none" stroke="black" stroke-width="2" d="M239.128,-227.666C225.331,-215.976 205.817,-198.03 192.038,-179.526 184.665,-169.624 178.09,-157.77 172.856,-147.12"/>
<polygon fill="black" stroke="black" stroke-width="2" points="175.876,-145.317 168.443,-137.767 169.545,-148.304 175.876,-145.317"/>
</g>
<!-- 2&#45;&gt;7 -->
<g id="edge11" class="edge"><title>2&#45;&gt;7</title>
<path fill="none" stroke="black" stroke-width="2" d="M245.305,-222.476C239.608,-212.361 232.452,-199.655 226.122,-188.417"/>
<polygon fill="black" stroke="black" stroke-width="2" points="229.007,-186.407 221.05,-179.412 222.908,-189.842 229.007,-186.407"/>
</g>
<!-- 3 -->
<g id="node4" class="node"><title>3</title>
<ellipse fill="cadetblue" stroke="black" cx="77.9594" cy="-101.329" rx="21.4286" ry="21.4286"/>
<text text-anchor="middle" x="77.9594" y="-96.329" font-family="Times New Roman,serif" font-size="20.00">2</text>
</g>
<!-- 3&#45;&gt;0 -->
<g id="edge1" class="edge"><title>3&#45;&gt;0</title>
<path fill="none" stroke="black" stroke-width="2" d="M95.6832,-89.3348C115.386,-76.0013 147.408,-54.3314 170.038,-39.0174"/>
<polygon fill="black" stroke="black" stroke-width="2" points="172.182,-41.7926 178.502,-33.2893 168.259,-35.9953 172.182,-41.7926"/>
</g>
<!-- 3&#45;&gt;1 -->
<g id="edge5" class="edge"><title>3&#45;&gt;1</title>
<path fill="none" stroke="black" stroke-width="2" d="M66.2016,-119.403C58.2125,-131.684 47.5099,-148.136 38.5479,-161.913"/>
<polygon fill="black" stroke="black" stroke-width="2" points="35.4752,-160.218 32.956,-170.509 41.3429,-164.035 35.4752,-160.218"/>
</g>
<!-- 5 -->
<g id="node6" class="node"><title>5</title>
<ellipse fill="cadetblue" stroke="black" cx="119.603" cy="-253.199" rx="21.4286" ry="21.4286"/>
<text text-anchor="middle" x="119.603" y="-248.199" font-family="Times New Roman,serif" font-size="20.00">2</text>
</g>
<!-- 3&#45;&gt;5 -->
<g id="edge12" class="edge"><title>3&#45;&gt;5</title>
<path fill="none" stroke="black" stroke-width="2" d="M83.5757,-121.811C90.6855,-147.739 102.996,-192.634 111.22,-222.625"/>
<polygon fill="black" stroke="black" stroke-width="2" points="107.923,-223.838 113.943,-232.556 114.674,-221.987 107.923,-223.838"/>
</g>
<!-- 4 -->
<g id="node5" class="node"><title>4</title>
<ellipse fill="cadetblue" stroke="black" cx="297.122" cy="-105.839" rx="21.4286" ry="21.4286"/>
<text text-anchor="middle" x="297.122" y="-100.839" font-family="Times New Roman,serif" font-size="20.00">2</text>
</g>
<!-- 4&#45;&gt;0 -->
<g id="edge2" class="edge"><title>4&#45;&gt;0</title>
<path fill="none" stroke="black" stroke-width="2" d="M280.481,-91.8646C264.119,-78.1242 238.97,-57.0052 220.427,-41.4339"/>
<polygon fill="black" stroke="black" stroke-width="2" points="222.587,-38.6779 212.678,-34.9274 218.086,-44.0385 222.587,-38.6779"/>
</g>
<!-- 4&#45;&gt;2 -->
<g id="edge8" class="edge"><title>4&#45;&gt;2</title>
<path fill="none" stroke="black" stroke-width="2" d="M290.842,-126.376C283.941,-148.944 272.793,-185.403 264.921,-211.146"/>
<polygon fill="black" stroke="black" stroke-width="2" points="261.554,-210.188 261.977,-220.774 268.248,-212.235 261.554,-210.188"/>
</g>
<!-- 5&#45;&gt;1 -->
<g id="edge6" class="edge"><title>5&#45;&gt;1</title>
<path fill="none" stroke="black" stroke-width="2" d="M101.557,-241.343C86.4396,-231.411 64.6553,-217.1 47.583,-205.884"/>
<polygon fill="black" stroke="black" stroke-width="2" points="49.4246,-202.906 39.1451,-200.341 45.5811,-208.757 49.4246,-202.906"/>
</g>
<!-- 5&#45;&gt;2 -->
<g id="edge9" class="edge"><title>5&#45;&gt;2</title>
<path fill="none" stroke="black" stroke-width="2" d="M140.88,-251.302C163.232,-249.31 198.631,-246.155 224.232,-243.873"/>
<polygon fill="black" stroke="black" stroke-width="2" points="224.547,-247.359 234.197,-242.985 223.925,-240.386 224.547,-247.359"/>
</g>
<!-- 6&#45;&gt;3 -->
<g id="edge13" class="edge"><title>6&#45;&gt;3</title>
<path fill="none" stroke="black" stroke-width="2" d="M139.027,-113.675C129.842,-111.818 118.906,-109.607 108.844,-107.573"/>
<polygon fill="black" stroke="black" stroke-width="2" points="109.279,-104.09 98.7839,-105.539 107.892,-110.951 109.279,-104.09"/>
</g>
<!-- 6&#45;&gt;4 -->
<g id="edge15" class="edge"><title>6&#45;&gt;4</title>
<path fill="none" stroke="black" stroke-width="2" d="M181.601,-116.064C204.207,-114.063 240.087,-110.887 265.862,-108.606"/>
<polygon fill="black" stroke="black" stroke-width="2" points="266.227,-112.087 275.88,-107.719 265.61,-105.114 266.227,-112.087"/>
</g>
<!-- 6&#45;&gt;7 -->
<g id="edge18" class="edge"><title>6&#45;&gt;7</title>
<path fill="none" stroke="black" stroke-width="2" d="M176.442,-131.79C179.681,-134.55 183.148,-137.503 186.586,-140.433"/>
<polygon fill="black" stroke="black" stroke-width="2" points="184.553,-143.299 194.435,-147.12 189.093,-137.971 184.553,-143.299"/>
</g>
<!-- 7&#45;&gt;3 -->
<g id="edge14" class="edge"><title>7&#45;&gt;3</title>
<path fill="none" stroke="black" stroke-width="2" d="M190.383,-154.62C181.118,-151.638 170.033,-147.932 160.176,-144.262 151.791,-141.14 149.644,-140.424 141.585,-136.535 129.416,-130.662 116.301,-123.546 105.158,-117.253"/>
<polygon fill="black" stroke="black" stroke-width="2" points="106.744,-114.128 96.3255,-112.205 103.271,-120.206 106.744,-114.128"/>
</g>
<!-- 7&#45;&gt;4 -->
<g id="edge16" class="edge"><title>7&#45;&gt;4</title>
<path fill="none" stroke="black" stroke-width="2" d="M228.558,-149.512C240.734,-141.757 257.045,-131.367 270.704,-122.667"/>
<polygon fill="black" stroke="black" stroke-width="2" points="272.672,-125.563 279.226,-117.238 268.911,-119.659 272.672,-125.563"/>
</g>
<!-- 7&#45;&gt;5 -->
<g id="edge17" class="edge"><title>7&#45;&gt;5</title>
<path fill="none" stroke="black" stroke-width="2" d="M195.606,-176.163C180.979,-190.989 158.579,-213.694 141.881,-230.619"/>
<polygon fill="black" stroke="black" stroke-width="2" points="139.19,-228.362 134.658,-237.939 144.173,-233.279 139.19,-228.362"/>
</g>
</g>
</svg>

