<?xml version="1.0" encoding="UTF-8" standalone="no"?>
<!DOCTYPE svg PUBLIC "-//W3C//DTD SVG 1.1//EN"
 "http://www.w3.org/Graphics/SVG/1.1/DTD/svg11.dtd">
<!-- Generated by graphviz version 2.36.0 (20140111.2315)
 -->
<!-- Title: G Pages: 1 -->
<svg width="100%" height="100%"
 viewBox="0.00 0.00 249.50 240.28" xmlns="http://www.w3.org/2000/svg" xmlns:xlink="http://www.w3.org/1999/xlink">
<g id="graph0" class="graph" transform="scale(1 1) rotate(0) translate(4 236.281)">
<title>G</title>
<!-- 0 -->
<g id="node1" class="node"><title>0</title>
<ellipse fill="cadetblue" stroke="black" cx="21.2132" cy="-113.792" rx="21.4286" ry="21.4286"/>
<text text-anchor="middle" x="21.2132" y="-108.792" font-family="Times New Roman,serif" font-size="20.00">2</text>
</g>
<!-- 7 -->
<g id="node8" class="node"><title>7</title>
<ellipse fill="cadetblue" stroke="black" cx="107.081" cy="-129.203" rx="21.4286" ry="21.4286"/>
<text text-anchor="middle" x="107.081" y="-124.203" font-family="Times New Roman,serif" font-size="20.00">2</text>
</g>
<!-- 0&#45;&gt;7 -->
<g id="edge3" class="edge"><title>0&#45;&gt;7</title>
<path fill="none" stroke="black" stroke-width="2" d="M42.439,-117.602C52.6295,-119.43 65.0341,-121.657 76.2416,-123.668"/>
<polygon fill="black" stroke="black" stroke-width="2" points="75.6386,-127.116 86.0997,-125.438 76.8753,-120.226 75.6386,-127.116"/>
</g>
<!-- 1 -->
<g id="node2" class="node"><title>1</title>
<ellipse fill="cadetblue" stroke="black" cx="185.414" cy="-211.068" rx="21.4286" ry="21.4286"/>
<text text-anchor="middle" x="185.414" y="-206.068" font-family="Times New Roman,serif" font-size="20.00">2</text>
</g>
<!-- 6 -->
<g id="node7" class="node"><title>6</title>
<ellipse fill="cadetblue" stroke="black" cx="169.859" cy="-99.5215" rx="21.4286" ry="21.4286"/>
<text text-anchor="middle" x="169.859" y="-94.5215" font-family="Times New Roman,serif" font-size="20.00">2</text>
</g>
<!-- 1&#45;&gt;6 -->
<g id="edge6" class="edge"><title>1&#45;&gt;6</title>
<path fill="none" stroke="black" stroke-width="2" d="M182.452,-189.824C180.116,-173.077 176.826,-149.482 174.194,-130.611"/>
<polygon fill="black" stroke="black" stroke-width="2" points="177.658,-130.107 172.81,-120.686 170.725,-131.074 177.658,-130.107"/>
</g>
<!-- 1&#45;&gt;7 -->
<g id="edge7" class="edge"><title>1&#45;&gt;7</title>
<path fill="none" stroke="black" stroke-width="2" d="M170.68,-195.67C158.864,-183.321 142.107,-165.809 128.76,-151.86"/>
<polygon fill="black" stroke="black" stroke-width="2" points="131.191,-149.338 121.749,-144.532 126.134,-154.177 131.191,-149.338"/>
</g>
<!-- 2 -->
<g id="node3" class="node"><title>2</title>
<ellipse fill="cadetblue" stroke="black" cx="208.509" cy="-21.2132" rx="21.4286" ry="21.4286"/>
<text text-anchor="middle" x="208.509" y="-16.2132" font-family="Times New Roman,serif" font-size="20.00">2</text>
</g>
<!-- 5 -->
<g id="node6" class="node"><title>5</title>
<ellipse fill="cadetblue" stroke="black" cx="220.29" cy="-139.227" rx="21.4286" ry="21.4286"/>
<text text-anchor="middle" x="220.29" y="-134.227" font-family="Times New Roman,serif" font-size="20.00">2</text>
</g>
<!-- 2&#45;&gt;5 -->
<g id="edge9" class="edge"><title>2&#45;&gt;5</title>
<path fill="none" stroke="black" stroke-width="2" d="M210.643,-42.5846C212.461,-60.7979 215.099,-87.2215 217.157,-107.837"/>
<polygon fill="black" stroke="black" stroke-width="2" points="213.697,-108.412 218.173,-118.015 220.662,-107.716 213.697,-108.412"/>
</g>
<!-- 3 -->
<g id="node4" class="node"><title>3</title>
<ellipse fill="cadetblue" stroke="black" cx="107.328" cy="-194.687" rx="21.4286" ry="21.4286"/>
<text text-anchor="middle" x="107.328" y="-189.687" font-family="Times New Roman,serif" font-size="20.00">2</text>
</g>
<!-- 3&#45;&gt;0 -->
<g id="edge1" class="edge"><title>3&#45;&gt;0</title>
<path fill="none" stroke="black" stroke-width="2" d="M91.533,-179.849C78.3016,-167.42 59.2352,-149.509 44.293,-135.473"/>
<polygon fill="black" stroke="black" stroke-width="2" points="46.5927,-132.831 36.9078,-128.535 41.8,-137.933 46.5927,-132.831"/>
</g>
<!-- 3&#45;&gt;1 -->
<g id="edge4" class="edge"><title>3&#45;&gt;1</title>
<path fill="none" stroke="black" stroke-width="2" d="M128.253,-199.077C136.306,-200.766 145.68,-202.732 154.479,-204.578"/>
<polygon fill="black" stroke="black" stroke-width="2" points="153.925,-208.038 164.431,-206.666 155.362,-201.187 153.925,-208.038"/>
</g>
<!-- 4 -->
<g id="node5" class="node"><title>4</title>
<ellipse fill="cadetblue" stroke="black" cx="96.1953" cy="-29.1341" rx="21.4286" ry="21.4286"/>
<text text-anchor="middle" x="96.1953" y="-24.1341" font-family="Times New Roman,serif" font-size="20.00">2</text>
</g>
<!-- 4&#45;&gt;0 -->
<g id="edge2" class="edge"><title>4&#45;&gt;0</title>
<path fill="none" stroke="black" stroke-width="2" d="M82.0918,-45.0576C70.8524,-57.7473 54.9439,-75.7087 42.2078,-90.0882"/>
<polygon fill="black" stroke="black" stroke-width="2" points="39.5187,-87.8455 35.5085,-97.652 44.7589,-92.4867 39.5187,-87.8455"/>
</g>
<!-- 4&#45;&gt;2 -->
<g id="edge8" class="edge"><title>4&#45;&gt;2</title>
<path fill="none" stroke="black" stroke-width="2" d="M117.585,-27.6256C134.447,-26.4364 158.204,-24.7609 177.206,-23.4209"/>
<polygon fill="black" stroke="black" stroke-width="2" points="177.47,-26.911 187.199,-22.7161 176.977,-19.9284 177.47,-26.911"/>
</g>
<!-- 5&#45;&gt;1 -->
<g id="edge5" class="edge"><title>5&#45;&gt;1</title>
<path fill="none" stroke="black" stroke-width="2" d="M210.944,-158.479C207.348,-165.888 203.161,-174.512 199.231,-182.607"/>
<polygon fill="black" stroke="black" stroke-width="2" points="196.005,-181.238 194.786,-191.763 202.302,-184.295 196.005,-181.238"/>
</g>
<!-- 5&#45;&gt;3 -->
<g id="edge11" class="edge"><title>5&#45;&gt;3</title>
<path fill="none" stroke="black" stroke-width="2" d="M201.128,-148.635C183.195,-157.439 156.179,-170.703 135.739,-180.738"/>
<polygon fill="black" stroke="black" stroke-width="2" points="134.018,-177.684 126.584,-185.233 137.103,-183.967 134.018,-177.684"/>
</g>
<!-- 6&#45;&gt;2 -->
<g id="edge10" class="edge"><title>6&#45;&gt;2</title>
<path fill="none" stroke="black" stroke-width="2" d="M179.413,-80.1644C184,-70.8711 189.583,-59.5586 194.628,-49.3379"/>
<polygon fill="black" stroke="black" stroke-width="2" points="197.778,-50.864 199.065,-40.3476 191.501,-47.7658 197.778,-50.864"/>
</g>
<!-- 6&#45;&gt;3 -->
<g id="edge12" class="edge"><title>6&#45;&gt;3</title>
<path fill="none" stroke="black" stroke-width="2" d="M158.097,-117.421C148.665,-131.777 135.288,-152.134 124.634,-168.349"/>
<polygon fill="black" stroke="black" stroke-width="2" points="121.603,-166.588 119.037,-176.867 127.453,-170.432 121.603,-166.588"/>
</g>
<!-- 6&#45;&gt;4 -->
<g id="edge13" class="edge"><title>6&#45;&gt;4</title>
<path fill="none" stroke="black" stroke-width="2" d="M154.237,-84.5941C144.011,-74.8233 130.477,-61.8909 119.05,-50.9723"/>
<polygon fill="black" stroke="black" stroke-width="2" points="121.19,-48.1765 111.542,-43.7986 116.354,-53.2376 121.19,-48.1765"/>
</g>
<!-- 7&#45;&gt;4 -->
<g id="edge14" class="edge"><title>7&#45;&gt;4</title>
<path fill="none" stroke="black" stroke-width="2" d="M104.773,-107.981C103.272,-94.1833 101.288,-75.9508 99.6068,-60.4942"/>
<polygon fill="black" stroke="black" stroke-width="2" points="103.062,-59.8884 98.5006,-50.3256 96.1027,-60.6455 103.062,-59.8884"/>
</g>
<!-- 7&#45;&gt;5 -->
<g id="edge15" class="edge"><title>7&#45;&gt;5</title>
<path fill="none" stroke="black" stroke-width="2" d="M128.375,-131.089C145.453,-132.601 169.67,-134.745 188.959,-136.453"/>
<polygon fill="black" stroke="black" stroke-width="2" points="188.822,-139.954 199.092,-137.35 189.44,-132.982 188.822,-139.954"/>
</g>
<!-- 7&#45;&gt;6 -->
<g id="edge16" class="edge"><title>7&#45;&gt;6</title>
<path fill="none" stroke="black" stroke-width="2" d="M126.6,-119.975C131.25,-117.776 136.308,-115.385 141.271,-113.038"/>
<polygon fill="black" stroke="black" stroke-width="2" points="143.023,-116.081 150.568,-108.643 140.031,-109.753 143.023,-116.081"/>
</g>
</g>
</svg>

