<?xml version="1.0" encoding="UTF-8" standalone="no"?>
<!DOCTYPE svg PUBLIC "-//W3C//DTD SVG 1.1//EN"
 "http://www.w3.org/Graphics/SVG/1.1/DTD/svg11.dtd">
<!-- Generated by graphviz version 2.36.0 (20140111.2315)
 -->
<!-- Title: G Pages: 1 -->
<svg width="100%" height="100%"
 viewBox="0.00 0.00 271.86 275.81" xmlns="http://www.w3.org/2000/svg" xmlns:xlink="http://www.w3.org/1999/xlink">
<g id="graph0" class="graph" transform="scale(1 1) rotate(0) translate(4 271.809)">
<title>G</title>
<!-- 0 -->
<g id="node1" class="node"><title>0</title>
<ellipse fill="cadetblue" stroke="black" cx="173.066" cy="-185.529" rx="21.4286" ry="21.4286"/>
<text text-anchor="middle" x="173.066" y="-180.529" font-family="Times New Roman,serif" font-size="20.00">2</text>
</g>
<!-- 5 -->
<g id="node6" class="node"><title>5</title>
<ellipse fill="cadetblue" stroke="black" cx="48.2729" cy="-110.146" rx="21.4286" ry="21.4286"/>
<text text-anchor="middle" x="48.2729" y="-105.146" font-family="Times New Roman,serif" font-size="20.00">2</text>
</g>
<!-- 0&#45;&gt;5 -->
<g id="edge3" class="edge"><title>0&#45;&gt;5</title>
<path fill="none" stroke="black" stroke-width="2" d="M153.176,-178.071C136.168,-171.279 111.378,-160.374 91.596,-147.576 84.5547,-143.02 77.4486,-137.401 71.0855,-131.915"/>
<polygon fill="black" stroke="black" stroke-width="2" points="73.2739,-129.177 63.4836,-125.127 68.6115,-134.399 73.2739,-129.177"/>
</g>
<!-- 6 -->
<g id="node7" class="node"><title>6</title>
<ellipse fill="cadetblue" stroke="black" cx="110.218" cy="-128.998" rx="21.4286" ry="21.4286"/>
<text text-anchor="middle" x="110.218" y="-123.998" font-family="Times New Roman,serif" font-size="20.00">2</text>
</g>
<!-- 0&#45;&gt;6 -->
<g id="edge4" class="edge"><title>0&#45;&gt;6</title>
<path fill="none" stroke="black" stroke-width="2" d="M157.207,-171.263C150.116,-164.885 141.61,-157.235 133.796,-150.206"/>
<polygon fill="black" stroke="black" stroke-width="2" points="136.066,-147.54 126.291,-143.455 131.385,-152.745 136.066,-147.54"/>
</g>
<!-- 7 -->
<g id="node8" class="node"><title>7</title>
<ellipse fill="brown" stroke="black" cx="160.65" cy="-99.3108" rx="21.4286" ry="21.4286"/>
<text text-anchor="middle" x="160.65" y="-94.3108" font-family="Times New Roman,serif" font-size="20.00">3</text>
</g>
<!-- 0&#45;&gt;7 -->
<g id="edge5" class="edge"><title>0&#45;&gt;7</title>
<path fill="none" stroke="black" stroke-width="2" d="M169.997,-164.216C168.523,-153.984 166.73,-141.529 165.109,-130.276"/>
<polygon fill="black" stroke="black" stroke-width="2" points="168.573,-129.777 163.684,-120.378 161.645,-130.775 168.573,-129.777"/>
</g>
<!-- 1 -->
<g id="node2" class="node"><title>1</title>
<ellipse fill="cadetblue" stroke="black" cx="21.2132" cy="-206.17" rx="21.4286" ry="21.4286"/>
<text text-anchor="middle" x="21.2132" y="-201.17" font-family="Times New Roman,serif" font-size="20.00">2</text>
</g>
<!-- 4 -->
<g id="node5" class="node"><title>4</title>
<ellipse fill="cadetblue" stroke="black" cx="117.931" cy="-246.596" rx="21.4286" ry="21.4286"/>
<text text-anchor="middle" x="117.931" y="-241.596" font-family="Times New Roman,serif" font-size="20.00">2</text>
</g>
<!-- 1&#45;&gt;4 -->
<g id="edge6" class="edge"><title>1&#45;&gt;4</title>
<path fill="none" stroke="black" stroke-width="2" d="M40.7856,-214.351C54.46,-220.066 72.9626,-227.8 88.4197,-234.261"/>
<polygon fill="black" stroke="black" stroke-width="2" points="87.4798,-237.661 98.0561,-238.288 90.1794,-231.203 87.4798,-237.661"/>
</g>
<!-- 2 -->
<g id="node3" class="node"><title>2</title>
<ellipse fill="cadetblue" stroke="black" cx="89.3455" cy="-21.2132" rx="21.4286" ry="21.4286"/>
<text text-anchor="middle" x="89.3455" y="-16.2132" font-family="Times New Roman,serif" font-size="20.00">2</text>
</g>
<!-- 2&#45;&gt;7 -->
<g id="edge11" class="edge"><title>2&#45;&gt;7</title>
<path fill="none" stroke="black" stroke-width="2" d="M103.775,-37.0174C114.02,-48.2382 127.94,-63.485 139.445,-76.0858"/>
<polygon fill="black" stroke="black" stroke-width="2" points="136.914,-78.505 146.242,-83.5301 142.084,-73.7852 136.914,-78.505"/>
</g>
<!-- 3 -->
<g id="node4" class="node"><title>3</title>
<ellipse fill="cadetblue" stroke="black" cx="242.649" cy="-124.353" rx="21.4286" ry="21.4286"/>
<text text-anchor="middle" x="242.649" y="-119.353" font-family="Times New Roman,serif" font-size="20.00">2</text>
</g>
<!-- 3&#45;&gt;0 -->
<g id="edge1" class="edge"><title>3&#45;&gt;0</title>
<path fill="none" stroke="black" stroke-width="2" d="M226.511,-138.542C217.64,-146.34 206.474,-156.158 196.644,-164.799"/>
<polygon fill="black" stroke="black" stroke-width="2" points="194.316,-162.186 189.117,-171.417 198.938,-167.443 194.316,-162.186"/>
</g>
<!-- 4&#45;&gt;0 -->
<g id="edge2" class="edge"><title>4&#45;&gt;0</title>
<path fill="none" stroke="black" stroke-width="2" d="M132.417,-230.551C138.322,-224.011 145.268,-216.317 151.733,-209.157"/>
<polygon fill="black" stroke="black" stroke-width="2" points="154.382,-211.446 158.485,-201.678 149.186,-206.755 154.382,-211.446"/>
</g>
<!-- 5&#45;&gt;1 -->
<g id="edge7" class="edge"><title>5&#45;&gt;1</title>
<path fill="none" stroke="black" stroke-width="2" d="M42.4013,-130.982C38.6883,-144.158 33.8278,-161.406 29.6989,-176.058"/>
<polygon fill="black" stroke="black" stroke-width="2" points="26.324,-175.13 26.9803,-185.705 33.0616,-177.029 26.324,-175.13"/>
</g>
<!-- 5&#45;&gt;2 -->
<g id="edge9" class="edge"><title>5&#45;&gt;2</title>
<path fill="none" stroke="black" stroke-width="2" d="M57.185,-90.8492C62.7287,-78.8456 69.9575,-63.1934 76.1571,-49.7695"/>
<polygon fill="black" stroke="black" stroke-width="2" points="79.4354,-51.0188 80.4508,-40.4727 73.0804,-48.0838 79.4354,-51.0188"/>
</g>
<!-- 5&#45;&gt;7 -->
<g id="edge16" class="edge"><title>5&#45;&gt;7</title>
<path fill="none" stroke="black" stroke-width="2" d="M69.4696,-107.317C81.4277,-105.792 96.6539,-103.966 110.25,-102.693 116.291,-102.128 122.748,-101.621 128.955,-101.182"/>
<polygon fill="black" stroke="black" stroke-width="2" points="129.301,-104.667 139.047,-100.51 128.836,-97.6825 129.301,-104.667"/>
</g>
<!-- 6&#45;&gt;1 -->
<g id="edge8" class="edge"><title>6&#45;&gt;1</title>
<path fill="none" stroke="black" stroke-width="2" d="M93.8933,-143.152C80.2177,-155.01 60.5114,-172.096 45.0676,-185.487"/>
<polygon fill="black" stroke="black" stroke-width="2" points="42.6972,-182.909 37.4346,-192.105 47.2829,-188.198 42.6972,-182.909"/>
</g>
<!-- 6&#45;&gt;2 -->
<g id="edge10" class="edge"><title>6&#45;&gt;2</title>
<path fill="none" stroke="black" stroke-width="2" d="M106.144,-107.96C103.07,-92.0839 98.8041,-70.0566 95.3407,-52.1718"/>
<polygon fill="black" stroke="black" stroke-width="2" points="98.7467,-51.3501 93.4093,-42.198 91.8744,-52.681 98.7467,-51.3501"/>
</g>
<!-- 6&#45;&gt;3 -->
<g id="edge12" class="edge"><title>6&#45;&gt;3</title>
<path fill="none" stroke="black" stroke-width="2" d="M131.496,-128.252C153.023,-127.497 186.549,-126.321 211.155,-125.458"/>
<polygon fill="black" stroke="black" stroke-width="2" points="211.554,-128.946 221.425,-125.098 211.308,-121.951 211.554,-128.946"/>
</g>
<!-- 6&#45;&gt;5 -->
<g id="edge15" class="edge"><title>6&#45;&gt;5</title>
<path fill="none" stroke="black" stroke-width="2" d="M89.5913,-122.721C86.0014,-121.628 82.202,-120.472 78.419,-119.321"/>
<polygon fill="black" stroke="black" stroke-width="2" points="79.1848,-115.895 68.599,-116.332 77.1468,-122.592 79.1848,-115.895"/>
</g>
<!-- 7&#45;&gt;3 -->
<g id="edge13" class="edge"><title>7&#45;&gt;3</title>
<path fill="none" stroke="black" stroke-width="2" d="M181.342,-105.63C190.834,-108.529 202.268,-112.021 212.678,-115.2"/>
<polygon fill="black" stroke="black" stroke-width="2" points="211.662,-118.549 222.248,-118.123 213.706,-111.855 211.662,-118.549"/>
</g>
<!-- 7&#45;&gt;4 -->
<g id="edge14" class="edge"><title>7&#45;&gt;4</title>
<path fill="none" stroke="black" stroke-width="2" d="M154.71,-119.79C147.482,-144.711 135.21,-187.023 126.846,-215.859"/>
<polygon fill="black" stroke="black" stroke-width="2" points="123.383,-215.236 123.958,-225.816 130.106,-217.186 123.383,-215.236"/>
</g>
<!-- 7&#45;&gt;6 -->
<g id="edge17" class="edge"><title>7&#45;&gt;6</title>
<path fill="none" stroke="black" stroke-width="2" d="M142.157,-110.197C140.65,-111.084 139.108,-111.992 137.555,-112.906"/>
<polygon fill="black" stroke="black" stroke-width="2" points="135.551,-110.024 128.708,-118.113 139.102,-116.057 135.551,-110.024"/>
</g>
</g>
</svg>

