<?xml version="1.0" encoding="UTF-8" standalone="no"?>
<!DOCTYPE svg PUBLIC "-//W3C//DTD SVG 1.1//EN"
 "http://www.w3.org/Graphics/SVG/1.1/DTD/svg11.dtd">
<!-- Generated by graphviz version 2.36.0 (20140111.2315)
 -->
<!-- Title: G Pages: 1 -->
<svg width="100%" height="100%"
 viewBox="0.00 0.00 326.96 293.58" xmlns="http://www.w3.org/2000/svg" xmlns:xlink="http://www.w3.org/1999/xlink">
<g id="graph0" class="graph" transform="scale(1 1) rotate(0) translate(4 289.579)">
<title>G</title>
<!-- 0 -->
<g id="node1" class="node"><title>0</title>
<ellipse fill="cadetblue" stroke="black" cx="174.327" cy="-199.7" rx="21.4286" ry="21.4286"/>
<text text-anchor="middle" x="174.327" y="-194.7" font-family="Times New Roman,serif" font-size="20.00">2</text>
</g>
<!-- 5 -->
<g id="node6" class="node"><title>5</title>
<ellipse fill="brown" stroke="black" cx="21.2132" cy="-192.146" rx="21.4286" ry="21.4286"/>
<text text-anchor="middle" x="21.2132" y="-187.146" font-family="Times New Roman,serif" font-size="20.00">3</text>
</g>
<!-- 0&#45;&gt;5 -->
<g id="edge3" class="edge"><title>0&#45;&gt;5</title>
<path fill="none" stroke="black" stroke-width="2" d="M153.037,-198.649C127.13,-197.371 83.1431,-195.201 53.1665,-193.722"/>
<polygon fill="black" stroke="black" stroke-width="2" points="52.9761,-190.209 42.8158,-193.212 52.6311,-197.2 52.9761,-190.209"/>
</g>
<!-- 6 -->
<g id="node7" class="node"><title>6</title>
<ellipse fill="cadetblue" stroke="black" cx="136.402" cy="-119.583" rx="21.4286" ry="21.4286"/>
<text text-anchor="middle" x="136.402" y="-114.583" font-family="Times New Roman,serif" font-size="20.00">2</text>
</g>
<!-- 0&#45;&gt;6 -->
<g id="edge4" class="edge"><title>0&#45;&gt;6</title>
<path fill="none" stroke="black" stroke-width="2" d="M165.146,-180.306C160.581,-170.662 154.974,-158.817 149.928,-148.158"/>
<polygon fill="black" stroke="black" stroke-width="2" points="152.94,-146.339 145.498,-138.798 146.613,-149.334 152.94,-146.339"/>
</g>
<!-- 7 -->
<g id="node8" class="node"><title>7</title>
<ellipse fill="dodgerblue" stroke="black" cx="68.764" cy="-106.436" rx="21.4286" ry="21.4286"/>
<text text-anchor="middle" x="68.764" y="-101.436" font-family="Times New Roman,serif" font-size="20.00">4</text>
</g>
<!-- 0&#45;&gt;7 -->
<g id="edge5" class="edge"><title>0&#45;&gt;7</title>
<path fill="none" stroke="black" stroke-width="2" d="M158.294,-185.535C140.778,-170.06 112.543,-145.114 92.467,-127.377"/>
<polygon fill="black" stroke="black" stroke-width="2" points="94.7591,-124.732 84.9476,-120.734 90.1244,-129.978 94.7591,-124.732"/>
</g>
<!-- 1 -->
<g id="node2" class="node"><title>1</title>
<ellipse fill="cadetblue" stroke="black" cx="167.904" cy="-250.131" rx="21.4286" ry="21.4286"/>
<text text-anchor="middle" x="167.904" y="-245.131" font-family="Times New Roman,serif" font-size="20.00">2</text>
</g>
<!-- 4 -->
<g id="node5" class="node"><title>4</title>
<ellipse fill="cadetblue" stroke="black" cx="297.745" cy="-154.836" rx="21.4286" ry="21.4286"/>
<text text-anchor="middle" x="297.745" y="-149.836" font-family="Times New Roman,serif" font-size="20.00">2</text>
</g>
<!-- 1&#45;&gt;4 -->
<g id="edge7" class="edge"><title>1&#45;&gt;4</title>
<path fill="none" stroke="black" stroke-width="2" d="M185.146,-237.477C207.458,-221.101 246.514,-192.436 272.256,-173.543"/>
<polygon fill="black" stroke="black" stroke-width="2" points="274.441,-176.281 280.432,-167.543 270.299,-170.638 274.441,-176.281"/>
</g>
<!-- 1&#45;&gt;6 -->
<g id="edge9" class="edge"><title>1&#45;&gt;6</title>
<path fill="none" stroke="black" stroke-width="2" d="M159.086,-230.837C155.172,-221.58 150.827,-210.231 148.023,-199.676 143.841,-183.941 141.064,-166.041 139.277,-151.16"/>
<polygon fill="black" stroke="black" stroke-width="2" points="142.724,-150.485 138.145,-140.931 135.766,-151.256 142.724,-150.485"/>
</g>
<!-- 1&#45;&gt;7 -->
<g id="edge10" class="edge"><title>1&#45;&gt;7</title>
<path fill="none" stroke="black" stroke-width="2" d="M155.748,-232.511C138.504,-207.518 106.819,-161.593 86.8218,-132.609"/>
<polygon fill="black" stroke="black" stroke-width="2" points="89.5798,-130.443 81.02,-124.2 83.818,-134.418 89.5798,-130.443"/>
</g>
<!-- 2 -->
<g id="node3" class="node"><title>2</title>
<ellipse fill="cadetblue" stroke="black" cx="210.554" cy="-21.2132" rx="21.4286" ry="21.4286"/>
<text text-anchor="middle" x="210.554" y="-16.2132" font-family="Times New Roman,serif" font-size="20.00">2</text>
</g>
<!-- 2&#45;&gt;4 -->
<g id="edge11" class="edge"><title>2&#45;&gt;4</title>
<path fill="none" stroke="black" stroke-width="2" d="M222.313,-39.2342C237.264,-62.1468 263.199,-101.893 280.417,-128.281"/>
<polygon fill="black" stroke="black" stroke-width="2" points="277.498,-130.212 285.894,-136.674 283.36,-126.386 277.498,-130.212"/>
</g>
<!-- 3 -->
<g id="node4" class="node"><title>3</title>
<ellipse fill="cadetblue" stroke="black" cx="65.866" cy="-264.366" rx="21.4286" ry="21.4286"/>
<text text-anchor="middle" x="65.866" y="-259.366" font-family="Times New Roman,serif" font-size="20.00">2</text>
</g>
<!-- 3&#45;&gt;0 -->
<g id="edge1" class="edge"><title>3&#45;&gt;0</title>
<path fill="none" stroke="black" stroke-width="2" d="M84.2649,-253.396C101.483,-243.131 127.423,-227.665 147.048,-215.964"/>
<polygon fill="black" stroke="black" stroke-width="2" points="149.041,-218.851 155.838,-210.723 145.456,-212.838 149.041,-218.851"/>
</g>
<!-- 3&#45;&gt;1 -->
<g id="edge6" class="edge"><title>3&#45;&gt;1</title>
<path fill="none" stroke="black" stroke-width="2" d="M87.0084,-261.416C101.374,-259.412 120.619,-256.728 136.734,-254.48"/>
<polygon fill="black" stroke="black" stroke-width="2" points="137.368,-257.925 146.789,-253.077 136.401,-250.992 137.368,-257.925"/>
</g>
<!-- 3&#45;&gt;7 -->
<g id="edge16" class="edge"><title>3&#45;&gt;7</title>
<path fill="none" stroke="black" stroke-width="2" d="M66.2568,-243.067C66.753,-216.028 67.6131,-169.157 68.1854,-137.968"/>
<polygon fill="black" stroke="black" stroke-width="2" points="71.6906,-137.711 68.3747,-127.649 64.6918,-137.583 71.6906,-137.711"/>
</g>
<!-- 4&#45;&gt;0 -->
<g id="edge2" class="edge"><title>4&#45;&gt;0</title>
<path fill="none" stroke="black" stroke-width="2" d="M277.641,-162.144C257.649,-169.411 226.752,-180.643 203.951,-188.931"/>
<polygon fill="black" stroke="black" stroke-width="2" points="202.625,-185.689 194.422,-192.395 205.016,-192.268 202.625,-185.689"/>
</g>
<!-- 5&#45;&gt;1 -->
<g id="edge8" class="edge"><title>5&#45;&gt;1</title>
<path fill="none" stroke="black" stroke-width="2" d="M40.9966,-199.966C66.0408,-209.866 109.404,-227.007 138.373,-238.458"/>
<polygon fill="black" stroke="black" stroke-width="2" points="137.379,-241.828 147.966,-242.25 139.953,-235.319 137.379,-241.828"/>
</g>
<!-- 5&#45;&gt;3 -->
<g id="edge14" class="edge"><title>5&#45;&gt;3</title>
<path fill="none" stroke="black" stroke-width="2" d="M32.481,-210.37C37.5578,-218.581 43.6551,-228.443 49.2419,-237.479"/>
<polygon fill="black" stroke="black" stroke-width="2" points="46.366,-239.483 54.6018,-246.147 52.3198,-235.801 46.366,-239.483"/>
</g>
<!-- 6&#45;&gt;2 -->
<g id="edge12" class="edge"><title>6&#45;&gt;2</title>
<path fill="none" stroke="black" stroke-width="2" d="M149.318,-102.448C160.943,-87.0268 178.18,-64.1597 191.408,-46.6125"/>
<polygon fill="black" stroke="black" stroke-width="2" points="194.312,-48.5738 197.537,-38.4816 188.722,-44.3602 194.312,-48.5738"/>
</g>
<!-- 6&#45;&gt;3 -->
<g id="edge15" class="edge"><title>6&#45;&gt;3</title>
<path fill="none" stroke="black" stroke-width="2" d="M127.035,-138.809C114.914,-163.688 93.697,-207.239 79.7129,-235.943"/>
<polygon fill="black" stroke="black" stroke-width="2" points="76.5046,-234.537 75.2713,-245.06 82.7976,-237.603 76.5046,-234.537"/>
</g>
<!-- 6&#45;&gt;5 -->
<g id="edge17" class="edge"><title>6&#45;&gt;5</title>
<path fill="none" stroke="black" stroke-width="2" d="M118.403,-130.921C99.5792,-142.779 69.8169,-161.528 48.1834,-175.156"/>
<polygon fill="black" stroke="black" stroke-width="2" points="46.0607,-172.357 39.4652,-180.648 49.7918,-178.279 46.0607,-172.357"/>
</g>
<!-- 6&#45;&gt;7 -->
<g id="edge19" class="edge"><title>6&#45;&gt;7</title>
<path fill="none" stroke="black" stroke-width="2" d="M115.371,-115.495C110.456,-114.54 105.118,-113.502 99.8679,-112.482"/>
<polygon fill="black" stroke="black" stroke-width="2" points="100.498,-109.039 90.0142,-110.566 99.1626,-115.91 100.498,-109.039"/>
</g>
<!-- 7&#45;&gt;2 -->
<g id="edge13" class="edge"><title>7&#45;&gt;2</title>
<path fill="none" stroke="black" stroke-width="2" d="M87.0103,-95.4686C111.442,-80.784 154.985,-54.6127 183.309,-37.5884"/>
<polygon fill="black" stroke="black" stroke-width="2" points="185.159,-40.56 191.927,-32.4086 181.553,-34.5603 185.159,-40.56"/>
</g>
<!-- 7&#45;&gt;5 -->
<g id="edge18" class="edge"><title>7&#45;&gt;5</title>
<path fill="none" stroke="black" stroke-width="2" d="M58.4462,-125.033C52.0281,-136.602 43.6592,-151.687 36.4817,-164.624"/>
<polygon fill="black" stroke="black" stroke-width="2" points="33.3017,-163.142 31.5109,-173.584 39.4228,-166.538 33.3017,-163.142"/>
</g>
</g>
</svg>

