<?xml version="1.0" encoding="UTF-8" standalone="no"?>
<!DOCTYPE svg PUBLIC "-//W3C//DTD SVG 1.1//EN"
 "http://www.w3.org/Graphics/SVG/1.1/DTD/svg11.dtd">
<!-- Generated by graphviz version 2.36.0 (20140111.2315)
 -->
<!-- Title: G Pages: 1 -->
<svg width="100%" height="100%"
 viewBox="0.00 0.00 260.98 264.49" xmlns="http://www.w3.org/2000/svg" xmlns:xlink="http://www.w3.org/1999/xlink">
<g id="graph0" class="graph" transform="scale(1 1) rotate(0) translate(4 260.492)">
<title>G</title>
<!-- 0 -->
<g id="node1" class="node"><title>0</title>
<ellipse fill="cadetblue" stroke="black" cx="189.825" cy="-235.278" rx="21.4286" ry="21.4286"/>
<text text-anchor="middle" x="189.825" y="-230.278" font-family="Times New Roman,serif" font-size="20.00">2</text>
</g>
<!-- 6 -->
<g id="node7" class="node"><title>6</title>
<ellipse fill="cadetblue" stroke="black" cx="170.524" cy="-112.108" rx="21.4286" ry="21.4286"/>
<text text-anchor="middle" x="170.524" y="-107.108" font-family="Times New Roman,serif" font-size="20.00">2</text>
</g>
<!-- 0&#45;&gt;6 -->
<g id="edge3" class="edge"><title>0&#45;&gt;6</title>
<path fill="none" stroke="black" stroke-width="2" d="M186.507,-214.105C183.455,-194.629 178.89,-165.499 175.42,-143.349"/>
<polygon fill="black" stroke="black" stroke-width="2" points="178.869,-142.755 173.863,-133.417 171.954,-143.839 178.869,-142.755"/>
</g>
<!-- 1 -->
<g id="node2" class="node"><title>1</title>
<ellipse fill="cadetblue" stroke="black" cx="124.579" cy="-179.677" rx="21.4286" ry="21.4286"/>
<text text-anchor="middle" x="124.579" y="-174.677" font-family="Times New Roman,serif" font-size="20.00">2</text>
</g>
<!-- 4 -->
<g id="node5" class="node"><title>4</title>
<ellipse fill="cadetblue" stroke="black" cx="231.767" cy="-150.411" rx="21.4286" ry="21.4286"/>
<text text-anchor="middle" x="231.767" y="-145.411" font-family="Times New Roman,serif" font-size="20.00">2</text>
</g>
<!-- 1&#45;&gt;4 -->
<g id="edge4" class="edge"><title>1&#45;&gt;4</title>
<path fill="none" stroke="black" stroke-width="2" d="M145.246,-174.034C161.187,-169.682 183.472,-163.597 201.434,-158.693"/>
<polygon fill="black" stroke="black" stroke-width="2" points="202.438,-162.047 211.163,-156.036 200.595,-155.294 202.438,-162.047"/>
</g>
<!-- 7 -->
<g id="node8" class="node"><title>7</title>
<ellipse fill="cadetblue" stroke="black" cx="106.857" cy="-100.624" rx="21.4286" ry="21.4286"/>
<text text-anchor="middle" x="106.857" y="-95.624" font-family="Times New Roman,serif" font-size="20.00">2</text>
</g>
<!-- 1&#45;&gt;7 -->
<g id="edge7" class="edge"><title>1&#45;&gt;7</title>
<path fill="none" stroke="black" stroke-width="2" d="M119.923,-158.907C118.045,-150.531 115.839,-140.692 113.781,-131.508"/>
<polygon fill="black" stroke="black" stroke-width="2" points="117.146,-130.522 111.544,-121.53 110.316,-132.053 117.146,-130.522"/>
</g>
<!-- 2 -->
<g id="node3" class="node"><title>2</title>
<ellipse fill="cadetblue" stroke="black" cx="88.0216" cy="-21.2132" rx="21.4286" ry="21.4286"/>
<text text-anchor="middle" x="88.0216" y="-16.2132" font-family="Times New Roman,serif" font-size="20.00">2</text>
</g>
<!-- 2&#45;&gt;7 -->
<g id="edge10" class="edge"><title>2&#45;&gt;7</title>
<path fill="none" stroke="black" stroke-width="2" d="M92.9703,-42.0775C95.0035,-50.6492 97.3983,-60.746 99.6215,-70.1189"/>
<polygon fill="black" stroke="black" stroke-width="2" points="96.2278,-70.9768 101.941,-79.8991 103.039,-69.3613 96.2278,-70.9768"/>
</g>
<!-- 3 -->
<g id="node4" class="node"><title>3</title>
<ellipse fill="cadetblue" stroke="black" cx="74.1475" cy="-204.393" rx="21.4286" ry="21.4286"/>
<text text-anchor="middle" x="74.1475" y="-199.393" font-family="Times New Roman,serif" font-size="20.00">2</text>
</g>
<!-- 3&#45;&gt;0 -->
<g id="edge1" class="edge"><title>3&#45;&gt;0</title>
<path fill="none" stroke="black" stroke-width="2" d="M94.8282,-209.915C112.841,-214.724 139.191,-221.76 159.572,-227.201"/>
<polygon fill="black" stroke="black" stroke-width="2" points="158.758,-230.607 169.323,-229.805 160.564,-223.843 158.758,-230.607"/>
</g>
<!-- 5 -->
<g id="node6" class="node"><title>5</title>
<ellipse fill="cadetblue" stroke="black" cx="21.2132" cy="-117.931" rx="21.4286" ry="21.4286"/>
<text text-anchor="middle" x="21.2132" y="-112.931" font-family="Times New Roman,serif" font-size="20.00">2</text>
</g>
<!-- 3&#45;&gt;5 -->
<g id="edge11" class="edge"><title>3&#45;&gt;5</title>
<path fill="none" stroke="black" stroke-width="2" d="M62.9215,-186.057C55.6227,-174.135 45.9781,-158.382 37.802,-145.027"/>
<polygon fill="black" stroke="black" stroke-width="2" points="40.6295,-142.942 32.423,-136.241 34.6595,-146.597 40.6295,-142.942"/>
</g>
<!-- 4&#45;&gt;0 -->
<g id="edge2" class="edge"><title>4&#45;&gt;0</title>
<path fill="none" stroke="black" stroke-width="2" d="M222.25,-169.668C216.78,-180.736 209.81,-194.839 203.736,-207.13"/>
<polygon fill="black" stroke="black" stroke-width="2" points="200.597,-205.581 199.304,-216.097 206.873,-208.683 200.597,-205.581"/>
</g>
<!-- 5&#45;&gt;1 -->
<g id="edge5" class="edge"><title>5&#45;&gt;1</title>
<path fill="none" stroke="black" stroke-width="2" d="M39.6929,-128.97C55.7147,-138.541 79.119,-152.521 97.2967,-163.38"/>
<polygon fill="black" stroke="black" stroke-width="2" points="95.8793,-166.61 106.259,-168.734 99.4691,-160.601 95.8793,-166.61"/>
</g>
<!-- 5&#45;&gt;2 -->
<g id="edge8" class="edge"><title>5&#45;&gt;2</title>
<path fill="none" stroke="black" stroke-width="2" d="M33.4669,-100.192C43.7319,-85.331 58.5238,-63.917 70.1161,-47.1348"/>
<polygon fill="black" stroke="black" stroke-width="2" points="73.0418,-49.0575 75.8456,-38.8403 67.2823,-45.079 73.0418,-49.0575"/>
</g>
<!-- 6&#45;&gt;1 -->
<g id="edge6" class="edge"><title>6&#45;&gt;1</title>
<path fill="none" stroke="black" stroke-width="2" d="M158.453,-129.861C153.532,-137.097 147.743,-145.61 142.357,-153.532"/>
<polygon fill="black" stroke="black" stroke-width="2" points="139.458,-151.57 136.729,-161.808 145.247,-155.507 139.458,-151.57"/>
</g>
<!-- 6&#45;&gt;2 -->
<g id="edge9" class="edge"><title>6&#45;&gt;2</title>
<path fill="none" stroke="black" stroke-width="2" d="M156.153,-96.2751C143.219,-82.0255 124.041,-60.8961 109.324,-44.6823"/>
<polygon fill="black" stroke="black" stroke-width="2" points="111.817,-42.2216 102.505,-37.1694 106.634,-46.9264 111.817,-42.2216"/>
</g>
<!-- 6&#45;&gt;3 -->
<g id="edge12" class="edge"><title>6&#45;&gt;3</title>
<path fill="none" stroke="black" stroke-width="2" d="M152.452,-123.723C138.872,-132.927 120.246,-146.598 106.047,-161.009 101.021,-166.11 96.1474,-172.042 91.7843,-177.852"/>
<polygon fill="black" stroke="black" stroke-width="2" points="88.802,-176.004 85.7993,-186.164 94.4827,-180.094 88.802,-176.004"/>
</g>
<!-- 7&#45;&gt;3 -->
<g id="edge13" class="edge"><title>7&#45;&gt;3</title>
<path fill="none" stroke="black" stroke-width="2" d="M100.395,-121.125C95.601,-136.333 88.9912,-157.302 83.604,-174.393"/>
<polygon fill="black" stroke="black" stroke-width="2" points="80.2647,-173.345 80.5964,-183.935 86.9409,-175.449 80.2647,-173.345"/>
</g>
<!-- 7&#45;&gt;4 -->
<g id="edge14" class="edge"><title>7&#45;&gt;4</title>
<path fill="none" stroke="black" stroke-width="2" d="M124.336,-113.445C132.485,-119.116 142.451,-125.63 151.902,-130.685 166.841,-138.677 185.084,-143.497 200.361,-146.37"/>
<polygon fill="black" stroke="black" stroke-width="2" points="199.943,-149.849 210.386,-148.062 201.109,-142.947 199.943,-149.849"/>
</g>
<!-- 7&#45;&gt;5 -->
<g id="edge15" class="edge"><title>7&#45;&gt;5</title>
<path fill="none" stroke="black" stroke-width="2" d="M85.6866,-104.902C75.5228,-106.956 63.1506,-109.456 51.9724,-111.715"/>
<polygon fill="black" stroke="black" stroke-width="2" points="51.2486,-108.291 42.1401,-113.702 52.6352,-115.152 51.2486,-108.291"/>
</g>
<!-- 7&#45;&gt;6 -->
<g id="edge16" class="edge"><title>7&#45;&gt;6</title>
<path fill="none" stroke="black" stroke-width="2" d="M128.057,-104.448C131.747,-105.113 135.652,-105.818 139.54,-106.519"/>
<polygon fill="black" stroke="black" stroke-width="2" points="139.171,-110.009 149.633,-108.34 140.413,-103.12 139.171,-110.009"/>
</g>
</g>
</svg>

