<?xml version="1.0" encoding="UTF-8" standalone="no"?>
<!DOCTYPE svg PUBLIC "-//W3C//DTD SVG 1.1//EN"
 "http://www.w3.org/Graphics/SVG/1.1/DTD/svg11.dtd">
<!-- Generated by graphviz version 2.36.0 (20140111.2315)
 -->
<!-- Title: G Pages: 1 -->
<svg width="100%" height="100%"
 viewBox="0.00 0.00 188.36 272.36" xmlns="http://www.w3.org/2000/svg" xmlns:xlink="http://www.w3.org/1999/xlink">
<g id="graph0" class="graph" transform="scale(1 1) rotate(0) translate(4 268.363)">
<title>G</title>
<!-- 0 -->
<g id="node1" class="node"><title>0</title>
<ellipse fill="cadetblue" stroke="black" cx="95.9014" cy="-168.927" rx="21.4286" ry="21.4286"/>
<text text-anchor="middle" x="95.9014" y="-163.927" font-family="Times New Roman,serif" font-size="20.00">2</text>
</g>
<!-- 4 -->
<g id="node5" class="node"><title>4</title>
<ellipse fill="cadetblue" stroke="black" cx="143.318" cy="-243.15" rx="21.4286" ry="21.4286"/>
<text text-anchor="middle" x="143.318" y="-238.15" font-family="Times New Roman,serif" font-size="20.00">2</text>
</g>
<!-- 0&#45;&gt;4 -->
<g id="edge2" class="edge"><title>0&#45;&gt;4</title>
<path fill="none" stroke="black" stroke-width="2" d="M107.38,-186.894C113.046,-195.763 119.995,-206.641 126.267,-216.459"/>
<polygon fill="black" stroke="black" stroke-width="2" points="123.448,-218.548 131.781,-225.091 129.347,-214.779 123.448,-218.548"/>
</g>
<!-- 6 -->
<g id="node7" class="node"><title>6</title>
<ellipse fill="brown" stroke="black" cx="125.438" cy="-59.7603" rx="21.4286" ry="21.4286"/>
<text text-anchor="middle" x="125.438" y="-54.7603" font-family="Times New Roman,serif" font-size="20.00">3</text>
</g>
<!-- 0&#45;&gt;6 -->
<g id="edge4" class="edge"><title>0&#45;&gt;6</title>
<path fill="none" stroke="black" stroke-width="2" d="M101.457,-148.393C105.884,-132.03 112.151,-108.869 117.168,-90.3264"/>
<polygon fill="black" stroke="black" stroke-width="2" points="120.573,-91.1398 119.807,-80.5728 113.816,-89.3116 120.573,-91.1398"/>
</g>
<!-- 7 -->
<g id="node8" class="node"><title>7</title>
<ellipse fill="cadetblue" stroke="black" cx="36.4076" cy="-125.657" rx="21.4286" ry="21.4286"/>
<text text-anchor="middle" x="36.4076" y="-120.657" font-family="Times New Roman,serif" font-size="20.00">2</text>
</g>
<!-- 0&#45;&gt;7 -->
<g id="edge5" class="edge"><title>0&#45;&gt;7</title>
<path fill="none" stroke="black" stroke-width="2" d="M78.6934,-156.411C73.5585,-152.677 67.8136,-148.498 62.2536,-144.455"/>
<polygon fill="black" stroke="black" stroke-width="2" points="63.9291,-141.346 53.7831,-138.294 59.8118,-147.007 63.9291,-141.346"/>
</g>
<!-- 1 -->
<g id="node2" class="node"><title>1</title>
<ellipse fill="cadetblue" stroke="black" cx="159.147" cy="-135.347" rx="21.4286" ry="21.4286"/>
<text text-anchor="middle" x="159.147" y="-130.347" font-family="Times New Roman,serif" font-size="20.00">2</text>
</g>
<!-- 1&#45;&gt;4 -->
<g id="edge6" class="edge"><title>1&#45;&gt;4</title>
<path fill="none" stroke="black" stroke-width="2" d="M156.058,-156.388C153.726,-172.267 150.491,-194.298 147.865,-212.186"/>
<polygon fill="black" stroke="black" stroke-width="2" points="144.39,-211.759 146.4,-222.162 151.316,-212.776 144.39,-211.759"/>
</g>
<!-- 1&#45;&gt;7 -->
<g id="edge9" class="edge"><title>1&#45;&gt;7</title>
<path fill="none" stroke="black" stroke-width="2" d="M137.768,-133.659C118.526,-132.14 89.9935,-129.887 68.0992,-128.159"/>
<polygon fill="black" stroke="black" stroke-width="2" points="68.1985,-124.656 57.9541,-127.358 67.6476,-131.634 68.1985,-124.656"/>
</g>
<!-- 2 -->
<g id="node3" class="node"><title>2</title>
<ellipse fill="cadetblue" stroke="black" cx="21.2132" cy="-21.2132" rx="21.4286" ry="21.4286"/>
<text text-anchor="middle" x="21.2132" y="-16.2132" font-family="Times New Roman,serif" font-size="20.00">2</text>
</g>
<!-- 2&#45;&gt;6 -->
<g id="edge11" class="edge"><title>2&#45;&gt;6</title>
<path fill="none" stroke="black" stroke-width="2" d="M41.3087,-28.6455C56.7366,-34.3514 78.277,-42.3181 95.6991,-48.7616"/>
<polygon fill="black" stroke="black" stroke-width="2" points="94.8106,-52.1647 105.404,-52.3509 97.2388,-45.5993 94.8106,-52.1647"/>
</g>
<!-- 3 -->
<g id="node4" class="node"><title>3</title>
<ellipse fill="cadetblue" stroke="black" cx="36.6773" cy="-231.819" rx="21.4286" ry="21.4286"/>
<text text-anchor="middle" x="36.6773" y="-226.819" font-family="Times New Roman,serif" font-size="20.00">2</text>
</g>
<!-- 3&#45;&gt;0 -->
<g id="edge1" class="edge"><title>3&#45;&gt;0</title>
<path fill="none" stroke="black" stroke-width="2" d="M51.317,-216.272C58.0992,-209.07 66.3035,-200.358 73.8157,-192.38"/>
<polygon fill="black" stroke="black" stroke-width="2" points="76.7113,-194.411 81.0188,-184.731 71.6151,-189.612 76.7113,-194.411"/>
</g>
<!-- 4&#45;&gt;3 -->
<g id="edge13" class="edge"><title>4&#45;&gt;3</title>
<path fill="none" stroke="black" stroke-width="2" d="M121.994,-240.884C106.592,-239.248 85.5363,-237.01 68.1968,-235.168"/>
<polygon fill="black" stroke="black" stroke-width="2" points="68.2783,-231.657 57.9644,-234.081 67.5386,-238.618 68.2783,-231.657"/>
</g>
<!-- 5 -->
<g id="node6" class="node"><title>5</title>
<ellipse fill="cadetblue" stroke="black" cx="75.0062" cy="-75.1446" rx="21.4286" ry="21.4286"/>
<text text-anchor="middle" x="75.0062" y="-70.1446" font-family="Times New Roman,serif" font-size="20.00">2</text>
</g>
<!-- 5&#45;&gt;0 -->
<g id="edge3" class="edge"><title>5&#45;&gt;0</title>
<path fill="none" stroke="black" stroke-width="2" d="M79.6435,-95.9579C82.4029,-108.342 85.9551,-124.285 89.0349,-138.108"/>
<polygon fill="black" stroke="black" stroke-width="2" points="85.686,-139.172 91.2771,-148.172 92.5185,-137.65 85.686,-139.172"/>
</g>
<!-- 5&#45;&gt;1 -->
<g id="edge7" class="edge"><title>5&#45;&gt;1</title>
<path fill="none" stroke="black" stroke-width="2" d="M92.4403,-87.6185C104.286,-96.0941 120.156,-107.448 133.444,-116.956"/>
<polygon fill="black" stroke="black" stroke-width="2" points="131.566,-119.916 141.736,-122.889 135.639,-114.223 131.566,-119.916"/>
</g>
<!-- 5&#45;&gt;2 -->
<g id="edge10" class="edge"><title>5&#45;&gt;2</title>
<path fill="none" stroke="black" stroke-width="2" d="M60.0218,-60.1217C54.9779,-55.0647 49.2334,-49.3055 43.7391,-43.797"/>
<polygon fill="black" stroke="black" stroke-width="2" points="46.031,-41.1387 36.491,-36.5303 41.0749,-46.0821 46.031,-41.1387"/>
</g>
<!-- 6&#45;&gt;1 -->
<g id="edge8" class="edge"><title>6&#45;&gt;1</title>
<path fill="none" stroke="black" stroke-width="2" d="M134.119,-79.2257C137.854,-87.6015 142.296,-97.562 146.394,-106.75"/>
<polygon fill="black" stroke="black" stroke-width="2" points="143.226,-108.24 150.496,-115.947 149.619,-105.389 143.226,-108.24"/>
</g>
<!-- 6&#45;&gt;5 -->
<g id="edge15" class="edge"><title>6&#45;&gt;5</title>
<path fill="none" stroke="black" stroke-width="2" d="M104.925,-66.0177C104.826,-66.0479 104.727,-66.078 104.628,-66.1083"/>
<polygon fill="black" stroke="black" stroke-width="2" points="103.881,-62.6771 95.3369,-68.9426 105.923,-69.3725 103.881,-62.6771"/>
</g>
<!-- 7&#45;&gt;2 -->
<g id="edge12" class="edge"><title>7&#45;&gt;2</title>
<path fill="none" stroke="black" stroke-width="2" d="M33.3328,-104.521C31.1497,-89.5152 28.1834,-69.1249 25.7318,-52.2731"/>
<polygon fill="black" stroke="black" stroke-width="2" points="29.1867,-51.7095 24.2834,-42.3175 22.2596,-52.7173 29.1867,-51.7095"/>
</g>
<!-- 7&#45;&gt;3 -->
<g id="edge14" class="edge"><title>7&#45;&gt;3</title>
<path fill="none" stroke="black" stroke-width="2" d="M36.4615,-146.885C36.5002,-162.119 36.553,-182.906 36.5967,-200.102"/>
<polygon fill="black" stroke="black" stroke-width="2" points="33.097,-200.272 36.6225,-210.263 40.097,-200.255 33.097,-200.272"/>
</g>
<!-- 7&#45;&gt;5 -->
<g id="edge16" class="edge"><title>7&#45;&gt;5</title>
<path fill="none" stroke="black" stroke-width="2" d="M49.4753,-108.556C51.4874,-105.923 53.6007,-103.157 55.714,-100.392"/>
<polygon fill="black" stroke="black" stroke-width="2" points="58.6612,-102.299 61.9519,-92.2282 53.0992,-98.0489 58.6612,-102.299"/>
</g>
<!-- 7&#45;&gt;6 -->
<g id="edge17" class="edge"><title>7&#45;&gt;6</title>
<path fill="none" stroke="black" stroke-width="2" d="M55.8448,-116.718C67.3473,-110.979 81.8941,-102.913 93.5231,-93.8273 97.3908,-90.8056 101.215,-87.307 104.799,-83.7262"/>
<polygon fill="black" stroke="black" stroke-width="2" points="107.417,-86.0523 111.757,-76.3873 102.337,-81.236 107.417,-86.0523"/>
</g>
</g>
</svg>

