<?xml version="1.0" encoding="UTF-8" standalone="no"?>
<!DOCTYPE svg PUBLIC "-//W3C//DTD SVG 1.1//EN"
 "http://www.w3.org/Graphics/SVG/1.1/DTD/svg11.dtd">
<!-- Generated by graphviz version 2.36.0 (20140111.2315)
 -->
<!-- Title: G Pages: 1 -->
<svg width="100%" height="100%"
 viewBox="0.00 0.00 268.66 274.54" xmlns="http://www.w3.org/2000/svg" xmlns:xlink="http://www.w3.org/1999/xlink">
<g id="graph0" class="graph" transform="scale(1 1) rotate(0) translate(4 270.542)">
<title>G</title>
<!-- 0 -->
<g id="node1" class="node"><title>0</title>
<ellipse fill="cadetblue" stroke="black" cx="130.168" cy="-199.126" rx="21.4286" ry="21.4286"/>
<text text-anchor="middle" x="130.168" y="-194.126" font-family="Times New Roman,serif" font-size="20.00">2</text>
</g>
<!-- 5 -->
<g id="node6" class="node"><title>5</title>
<ellipse fill="cadetblue" stroke="black" cx="21.2132" cy="-148.771" rx="21.4286" ry="21.4286"/>
<text text-anchor="middle" x="21.2132" y="-143.771" font-family="Times New Roman,serif" font-size="20.00">2</text>
</g>
<!-- 0&#45;&gt;5 -->
<g id="edge3" class="edge"><title>0&#45;&gt;5</title>
<path fill="none" stroke="black" stroke-width="2" d="M110.689,-190.123C93.7238,-182.282 68.9049,-170.812 49.7074,-161.94"/>
<polygon fill="black" stroke="black" stroke-width="2" points="51.0694,-158.713 40.5236,-157.695 48.1327,-165.068 51.0694,-158.713"/>
</g>
<!-- 6 -->
<g id="node7" class="node"><title>6</title>
<ellipse fill="cadetblue" stroke="black" cx="163.192" cy="-51.6368" rx="21.4286" ry="21.4286"/>
<text text-anchor="middle" x="163.192" y="-46.6368" font-family="Times New Roman,serif" font-size="20.00">2</text>
</g>
<!-- 0&#45;&gt;6 -->
<g id="edge4" class="edge"><title>0&#45;&gt;6</title>
<path fill="none" stroke="black" stroke-width="2" d="M134.83,-178.307C140.435,-153.272 149.892,-111.037 156.331,-82.2784"/>
<polygon fill="black" stroke="black" stroke-width="2" points="159.785,-82.8728 158.554,-72.3496 152.954,-81.3432 159.785,-82.8728"/>
</g>
<!-- 7 -->
<g id="node8" class="node"><title>7</title>
<ellipse fill="brown" stroke="black" cx="101.271" cy="-114.845" rx="21.4286" ry="21.4286"/>
<text text-anchor="middle" x="101.271" y="-109.845" font-family="Times New Roman,serif" font-size="20.00">3</text>
</g>
<!-- 0&#45;&gt;7 -->
<g id="edge5" class="edge"><title>0&#45;&gt;7</title>
<path fill="none" stroke="black" stroke-width="2" d="M123.173,-178.724C119.659,-168.475 115.335,-155.864 111.46,-144.562"/>
<polygon fill="black" stroke="black" stroke-width="2" points="114.756,-143.384 108.202,-135.059 108.134,-145.654 114.756,-143.384"/>
</g>
<!-- 1 -->
<g id="node2" class="node"><title>1</title>
<ellipse fill="cadetblue" stroke="black" cx="180.6" cy="-171.718" rx="21.4286" ry="21.4286"/>
<text text-anchor="middle" x="180.6" y="-166.718" font-family="Times New Roman,serif" font-size="20.00">2</text>
</g>
<!-- 1&#45;&gt;6 -->
<g id="edge8" class="edge"><title>1&#45;&gt;6</title>
<path fill="none" stroke="black" stroke-width="2" d="M177.528,-150.526C174.822,-131.864 170.845,-104.427 167.765,-83.1846"/>
<polygon fill="black" stroke="black" stroke-width="2" points="171.191,-82.415 166.292,-73.0206 164.263,-83.4193 171.191,-82.415"/>
</g>
<!-- 1&#45;&gt;7 -->
<g id="edge9" class="edge"><title>1&#45;&gt;7</title>
<path fill="none" stroke="black" stroke-width="2" d="M162.994,-159.096C152.342,-151.46 138.578,-141.592 126.751,-133.113"/>
<polygon fill="black" stroke="black" stroke-width="2" points="128.721,-130.218 118.554,-127.236 124.642,-135.907 128.721,-130.218"/>
</g>
<!-- 2 -->
<g id="node3" class="node"><title>2</title>
<ellipse fill="cadetblue" stroke="black" cx="37.966" cy="-21.2132" rx="21.4286" ry="21.4286"/>
<text text-anchor="middle" x="37.966" y="-16.2132" font-family="Times New Roman,serif" font-size="20.00">2</text>
</g>
<!-- 2&#45;&gt;5 -->
<g id="edge10" class="edge"><title>2&#45;&gt;5</title>
<path fill="none" stroke="black" stroke-width="2" d="M35.1997,-42.2767C32.5079,-62.7722 28.3856,-94.1593 25.3128,-117.556"/>
<polygon fill="black" stroke="black" stroke-width="2" points="21.8158,-117.305 23.9837,-127.676 28.7562,-118.217 21.8158,-117.305"/>
</g>
<!-- 3 -->
<g id="node4" class="node"><title>3</title>
<ellipse fill="cadetblue" stroke="black" cx="31.6011" cy="-245.329" rx="21.4286" ry="21.4286"/>
<text text-anchor="middle" x="31.6011" y="-240.329" font-family="Times New Roman,serif" font-size="20.00">2</text>
</g>
<!-- 3&#45;&gt;0 -->
<g id="edge1" class="edge"><title>3&#45;&gt;0</title>
<path fill="none" stroke="black" stroke-width="2" d="M51.0748,-236.201C65.52,-229.43 85.4381,-220.093 101.672,-212.483"/>
<polygon fill="black" stroke="black" stroke-width="2" points="103.166,-215.648 110.735,-208.235 100.195,-209.31 103.166,-215.648"/>
</g>
<!-- 4 -->
<g id="node5" class="node"><title>4</title>
<ellipse fill="cadetblue" stroke="black" cx="239.443" cy="-117.315" rx="21.4286" ry="21.4286"/>
<text text-anchor="middle" x="239.443" y="-112.315" font-family="Times New Roman,serif" font-size="20.00">2</text>
</g>
<!-- 4&#45;&gt;0 -->
<g id="edge2" class="edge"><title>4&#45;&gt;0</title>
<path fill="none" stroke="black" stroke-width="2" d="M219.036,-123.391C202.388,-129.087 178.945,-138.865 162.068,-153.05 155.784,-158.332 150.177,-165.137 145.483,-171.888"/>
<polygon fill="black" stroke="black" stroke-width="2" points="142.54,-169.994 140.044,-180.291 148.416,-173.798 142.54,-169.994"/>
</g>
<!-- 4&#45;&gt;1 -->
<g id="edge6" class="edge"><title>4&#45;&gt;1</title>
<path fill="none" stroke="black" stroke-width="2" d="M223.674,-131.894C217.606,-137.505 210.542,-144.035 203.912,-150.166"/>
<polygon fill="black" stroke="black" stroke-width="2" points="201.379,-147.74 196.412,-157.099 206.131,-152.88 201.379,-147.74"/>
</g>
<!-- 5&#45;&gt;1 -->
<g id="edge7" class="edge"><title>5&#45;&gt;1</title>
<path fill="none" stroke="black" stroke-width="2" d="M42.3785,-151.818C69.8434,-155.772 117.978,-162.702 149.574,-167.251"/>
<polygon fill="black" stroke="black" stroke-width="2" points="149.204,-170.734 159.601,-168.695 150.202,-163.805 149.204,-170.734"/>
</g>
<!-- 5&#45;&gt;3 -->
<g id="edge13" class="edge"><title>5&#45;&gt;3</title>
<path fill="none" stroke="black" stroke-width="2" d="M23.5186,-170.2C24.9038,-183.076 26.691,-199.688 28.2324,-214.016"/>
<polygon fill="black" stroke="black" stroke-width="2" points="24.7525,-214.391 29.3021,-223.96 31.7123,-213.643 24.7525,-214.391"/>
</g>
<!-- 6&#45;&gt;2 -->
<g id="edge11" class="edge"><title>6&#45;&gt;2</title>
<path fill="none" stroke="black" stroke-width="2" d="M142.514,-46.613C122.393,-41.7246 91.5793,-34.2385 68.6101,-28.6582"/>
<polygon fill="black" stroke="black" stroke-width="2" points="69.2189,-25.2043 58.6753,-26.2445 67.5663,-32.0065 69.2189,-25.2043"/>
</g>
<!-- 6&#45;&gt;4 -->
<g id="edge15" class="edge"><title>6&#45;&gt;4</title>
<path fill="none" stroke="black" stroke-width="2" d="M179.363,-65.5656C189.877,-74.6216 203.77,-86.5882 215.547,-96.7328"/>
<polygon fill="black" stroke="black" stroke-width="2" points="213.435,-99.5324 223.296,-103.407 218.003,-94.2286 213.435,-99.5324"/>
</g>
<!-- 6&#45;&gt;7 -->
<g id="edge17" class="edge"><title>6&#45;&gt;7</title>
<path fill="none" stroke="black" stroke-width="2" d="M148.203,-66.9378C140.749,-74.5466 131.594,-83.8915 123.356,-92.3014"/>
<polygon fill="black" stroke="black" stroke-width="2" points="120.62,-90.0925 116.122,-99.6853 125.62,-94.9911 120.62,-90.0925"/>
</g>
<!-- 7&#45;&gt;2 -->
<g id="edge12" class="edge"><title>7&#45;&gt;2</title>
<path fill="none" stroke="black" stroke-width="2" d="M89.3635,-97.2339C79.8745,-83.199 66.4436,-63.3336 55.691,-47.4298"/>
<polygon fill="black" stroke="black" stroke-width="2" points="58.5355,-45.388 50.035,-39.0641 52.7365,-49.3087 58.5355,-45.388"/>
</g>
<!-- 7&#45;&gt;3 -->
<g id="edge14" class="edge"><title>7&#45;&gt;3</title>
<path fill="none" stroke="black" stroke-width="2" d="M91.14,-133.819C79.4275,-155.755 60.0381,-192.07 46.5821,-217.271"/>
<polygon fill="black" stroke="black" stroke-width="2" points="43.3664,-215.863 41.7438,-226.333 49.5414,-219.16 43.3664,-215.863"/>
</g>
<!-- 7&#45;&gt;4 -->
<g id="edge16" class="edge"><title>7&#45;&gt;4</title>
<path fill="none" stroke="black" stroke-width="2" d="M122.557,-115.226C145.312,-115.633 181.635,-116.282 207.753,-116.749"/>
<polygon fill="black" stroke="black" stroke-width="2" points="207.844,-120.251 217.905,-116.93 207.969,-113.252 207.844,-120.251"/>
</g>
</g>
</svg>

