<?xml version="1.0" encoding="UTF-8" standalone="no"?>
<!DOCTYPE svg PUBLIC "-//W3C//DTD SVG 1.1//EN"
 "http://www.w3.org/Graphics/SVG/1.1/DTD/svg11.dtd">
<!-- Generated by graphviz version 2.36.0 (20140111.2315)
 -->
<!-- Title: G Pages: 1 -->
<svg width="100%" height="100%"
 viewBox="0.00 0.00 251.80 195.76" xmlns="http://www.w3.org/2000/svg" xmlns:xlink="http://www.w3.org/1999/xlink">
<g id="graph0" class="graph" transform="scale(1 1) rotate(0) translate(4 191.758)">
<title>G</title>
<!-- 0 -->
<g id="node1" class="node"><title>0</title>
<ellipse fill="cadetblue" stroke="black" cx="165.301" cy="-166.545" rx="21.4286" ry="21.4286"/>
<text text-anchor="middle" x="165.301" y="-161.545" font-family="Times New Roman,serif" font-size="20.00">2</text>
</g>
<!-- 4 -->
<g id="node5" class="node"><title>4</title>
<ellipse fill="cadetblue" stroke="black" cx="222.586" cy="-100.746" rx="21.4286" ry="21.4286"/>
<text text-anchor="middle" x="222.586" y="-95.7463" font-family="Times New Roman,serif" font-size="20.00">2</text>
</g>
<!-- 0&#45;&gt;4 -->
<g id="edge2" class="edge"><title>0&#45;&gt;4</title>
<path fill="none" stroke="black" stroke-width="2" d="M179.461,-150.28C186.26,-142.471 194.535,-132.966 202.012,-124.378"/>
<polygon fill="black" stroke="black" stroke-width="2" points="204.662,-126.664 208.588,-116.824 199.382,-122.068 204.662,-126.664"/>
</g>
<!-- 6 -->
<g id="node7" class="node"><title>6</title>
<ellipse fill="brown" stroke="black" cx="159.268" cy="-21.9124" rx="21.4286" ry="21.4286"/>
<text text-anchor="middle" x="159.268" y="-16.9124" font-family="Times New Roman,serif" font-size="20.00">3</text>
</g>
<!-- 0&#45;&gt;6 -->
<g id="edge4" class="edge"><title>0&#45;&gt;6</title>
<path fill="none" stroke="black" stroke-width="2" d="M166.67,-145.313C167.606,-127.276 168.45,-100.706 167.068,-77.5728 166.59,-69.5812 165.618,-60.9949 164.517,-53.0159"/>
<polygon fill="black" stroke="black" stroke-width="2" points="167.957,-52.3549 163.025,-42.9777 161.033,-53.3834 167.957,-52.3549"/>
</g>
<!-- 1 -->
<g id="node2" class="node"><title>1</title>
<ellipse fill="cadetblue" stroke="black" cx="21.2132" cy="-55.6075" rx="21.4286" ry="21.4286"/>
<text text-anchor="middle" x="21.2132" y="-50.6075" font-family="Times New Roman,serif" font-size="20.00">2</text>
</g>
<!-- 5 -->
<g id="node6" class="node"><title>5</title>
<ellipse fill="brown" stroke="black" cx="44.5517" cy="-138.103" rx="21.4286" ry="21.4286"/>
<text text-anchor="middle" x="44.5517" y="-133.103" font-family="Times New Roman,serif" font-size="20.00">3</text>
</g>
<!-- 1&#45;&gt;5 -->
<g id="edge6" class="edge"><title>1&#45;&gt;5</title>
<path fill="none" stroke="black" stroke-width="2" d="M27.1025,-76.4247C29.804,-85.974 33.0585,-97.4779 36.0214,-107.951"/>
<polygon fill="black" stroke="black" stroke-width="2" points="32.655,-108.909 38.7451,-117.579 39.3907,-107.003 32.655,-108.909"/>
</g>
<!-- 1&#45;&gt;6 -->
<g id="edge7" class="edge"><title>1&#45;&gt;6</title>
<path fill="none" stroke="black" stroke-width="2" d="M42.4837,-52.9342C51.8806,-51.5859 63.0278,-49.7575 72.9632,-47.5176 91.902,-43.2478 112.782,-37.093 129.26,-31.8878"/>
<polygon fill="black" stroke="black" stroke-width="2" points="130.443,-35.1841 138.894,-28.7949 128.303,-28.5192 130.443,-35.1841"/>
</g>
<!-- 2 -->
<g id="node3" class="node"><title>2</title>
<ellipse fill="cadetblue" stroke="black" cx="140.764" cy="-77.5341" rx="21.4286" ry="21.4286"/>
<text text-anchor="middle" x="140.764" y="-72.5341" font-family="Times New Roman,serif" font-size="20.00">2</text>
</g>
<!-- 2&#45;&gt;5 -->
<g id="edge10" class="edge"><title>2&#45;&gt;5</title>
<path fill="none" stroke="black" stroke-width="2" d="M121.982,-87.4925C110.913,-93.5254 96.7343,-101.539 84.5503,-109.335 79.7768,-112.389 74.7952,-115.789 70.0329,-119.151"/>
<polygon fill="black" stroke="black" stroke-width="2" points="67.8644,-116.4 61.7898,-125.08 71.9517,-122.082 67.8644,-116.4"/>
</g>
<!-- 7 -->
<g id="node8" class="node"><title>7</title>
<ellipse fill="cadetblue" stroke="black" cx="72.9644" cy="-21.2132" rx="21.4286" ry="21.4286"/>
<text text-anchor="middle" x="72.9644" y="-16.2132" font-family="Times New Roman,serif" font-size="20.00">2</text>
</g>
<!-- 2&#45;&gt;7 -->
<g id="edge12" class="edge"><title>2&#45;&gt;7</title>
<path fill="none" stroke="black" stroke-width="2" d="M124.351,-63.9004C116.31,-57.2204 106.461,-49.0387 97.5444,-41.6318"/>
<polygon fill="black" stroke="black" stroke-width="2" points="99.6252,-38.8103 89.6966,-35.1126 95.1523,-44.1948 99.6252,-38.8103"/>
</g>
<!-- 3 -->
<g id="node4" class="node"><title>3</title>
<ellipse fill="cadetblue" stroke="black" cx="103.119" cy="-127.966" rx="21.4286" ry="21.4286"/>
<text text-anchor="middle" x="103.119" y="-122.966" font-family="Times New Roman,serif" font-size="20.00">2</text>
</g>
<!-- 3&#45;&gt;0 -->
<g id="edge1" class="edge"><title>3&#45;&gt;0</title>
<path fill="none" stroke="black" stroke-width="2" d="M121.44,-139.332C126.706,-142.599 132.564,-146.234 138.239,-149.755"/>
<polygon fill="black" stroke="black" stroke-width="2" points="136.554,-152.828 146.897,-155.126 140.245,-146.88 136.554,-152.828"/>
</g>
<!-- 3&#45;&gt;1 -->
<g id="edge5" class="edge"><title>3&#45;&gt;1</title>
<path fill="none" stroke="black" stroke-width="2" d="M86.9374,-113.67C74.9339,-103.066 58.3827,-88.4439 44.8929,-76.5267"/>
<polygon fill="black" stroke="black" stroke-width="2" points="47.1733,-73.8711 37.3616,-69.8734 42.5388,-79.1172 47.1733,-73.8711"/>
</g>
<!-- 3&#45;&gt;5 -->
<g id="edge14" class="edge"><title>3&#45;&gt;5</title>
<path fill="none" stroke="black" stroke-width="2" d="M81.9751,-131.625C79.8761,-131.989 77.7164,-132.363 75.5442,-132.739"/>
<polygon fill="black" stroke="black" stroke-width="2" points="74.7251,-129.328 65.4686,-134.483 75.919,-136.226 74.7251,-129.328"/>
</g>
<!-- 4&#45;&gt;2 -->
<g id="edge9" class="edge"><title>4&#45;&gt;2</title>
<path fill="none" stroke="black" stroke-width="2" d="M201.938,-94.8889C192.636,-92.2498 181.463,-89.0801 171.226,-86.1759"/>
<polygon fill="black" stroke="black" stroke-width="2" points="171.98,-82.7518 161.404,-83.3896 170.069,-89.4861 171.98,-82.7518"/>
</g>
<!-- 4&#45;&gt;3 -->
<g id="edge13" class="edge"><title>4&#45;&gt;3</title>
<path fill="none" stroke="black" stroke-width="2" d="M201.776,-105.488C183.047,-109.755 155.276,-116.082 133.966,-120.937"/>
<polygon fill="black" stroke="black" stroke-width="2" points="133.064,-117.553 124.091,-123.187 134.619,-124.378 133.064,-117.553"/>
</g>
<!-- 5&#45;&gt;0 -->
<g id="edge3" class="edge"><title>5&#45;&gt;0</title>
<path fill="none" stroke="black" stroke-width="2" d="M65.0392,-144.167C76.2272,-147.376 90.3556,-151.263 103.076,-154.27 113.176,-156.658 124.275,-158.951 134.267,-160.896"/>
<polygon fill="black" stroke="black" stroke-width="2" points="133.713,-164.353 144.191,-162.786 135.022,-157.477 133.713,-164.353"/>
</g>
<!-- 5&#45;&gt;7 -->
<g id="edge17" class="edge"><title>5&#45;&gt;7</title>
<path fill="none" stroke="black" stroke-width="2" d="M49.5659,-117.475C53.9815,-99.3087 60.4735,-72.6006 65.4998,-51.9226"/>
<polygon fill="black" stroke="black" stroke-width="2" points="68.9437,-52.5725 67.9047,-42.0287 62.1417,-50.919 68.9437,-52.5725"/>
</g>
<!-- 6&#45;&gt;2 -->
<g id="edge11" class="edge"><title>6&#45;&gt;2</title>
<path fill="none" stroke="black" stroke-width="2" d="M152.483,-42.308C151.93,-43.9707 151.364,-45.6714 150.794,-47.3841"/>
<polygon fill="black" stroke="black" stroke-width="2" points="147.384,-46.5474 147.548,-57.1409 154.026,-48.7572 147.384,-46.5474"/>
</g>
<!-- 6&#45;&gt;4 -->
<g id="edge16" class="edge"><title>6&#45;&gt;4</title>
<path fill="none" stroke="black" stroke-width="2" d="M172.696,-38.6311C181.427,-49.501 192.963,-63.8644 202.743,-76.041"/>
<polygon fill="black" stroke="black" stroke-width="2" points="200.186,-78.4468 209.177,-84.0517 205.644,-74.0634 200.186,-78.4468"/>
</g>
<!-- 7&#45;&gt;1 -->
<g id="edge8" class="edge"><title>7&#45;&gt;1</title>
<path fill="none" stroke="black" stroke-width="2" d="M55.1546,-33.0498C52.6054,-34.744 49.9402,-36.5153 47.2724,-38.2883"/>
<polygon fill="black" stroke="black" stroke-width="2" points="45.2717,-35.4155 38.8805,-43.8656 49.1463,-41.2454 45.2717,-35.4155"/>
</g>
<!-- 7&#45;&gt;3 -->
<g id="edge15" class="edge"><title>7&#45;&gt;3</title>
<path fill="none" stroke="black" stroke-width="2" d="M78.7786,-41.7961C83.2632,-57.672 89.5328,-79.8674 94.5858,-97.7556"/>
<polygon fill="black" stroke="black" stroke-width="2" points="91.2364,-98.7738 97.3231,-107.446 97.9728,-96.8709 91.2364,-98.7738"/>
</g>
<!-- 7&#45;&gt;6 -->
<g id="edge18" class="edge"><title>7&#45;&gt;6</title>
<path fill="none" stroke="black" stroke-width="2" d="M94.2979,-21.386C104.36,-21.4676 116.57,-21.5665 127.676,-21.6565"/>
<polygon fill="black" stroke="black" stroke-width="2" points="127.853,-25.1579 137.881,-21.7391 127.91,-18.1581 127.853,-25.1579"/>
</g>
</g>
</svg>

