<?xml version="1.0" encoding="UTF-8" standalone="no"?>
<!DOCTYPE svg PUBLIC "-//W3C//DTD SVG 1.1//EN"
 "http://www.w3.org/Graphics/SVG/1.1/DTD/svg11.dtd">
<!-- Generated by graphviz version 2.36.0 (20140111.2315)
 -->
<!-- Title: G Pages: 1 -->
<svg width="100%" height="100%"
 viewBox="0.00 0.00 240.15 242.90" xmlns="http://www.w3.org/2000/svg" xmlns:xlink="http://www.w3.org/1999/xlink">
<g id="graph0" class="graph" transform="scale(1 1) rotate(0) translate(4 238.898)">
<title>G</title>
<!-- 0 -->
<g id="node1" class="node"><title>0</title>
<ellipse fill="cadetblue" stroke="black" cx="125.964" cy="-127.12" rx="21.4286" ry="21.4286"/>
<text text-anchor="middle" x="125.964" y="-122.12" font-family="Times New Roman,serif" font-size="20.00">2</text>
</g>
<!-- 4 -->
<g id="node5" class="node"><title>4</title>
<ellipse fill="cadetblue" stroke="black" cx="189.781" cy="-52.9995" rx="21.4286" ry="21.4286"/>
<text text-anchor="middle" x="189.781" y="-47.9995" font-family="Times New Roman,serif" font-size="20.00">2</text>
</g>
<!-- 0&#45;&gt;4 -->
<g id="edge2" class="edge"><title>0&#45;&gt;4</title>
<path fill="none" stroke="black" stroke-width="2" d="M139.812,-111.037C148.366,-101.101 159.503,-88.1662 169.092,-77.0297"/>
<polygon fill="black" stroke="black" stroke-width="2" points="171.868,-79.169 175.741,-69.3072 166.563,-74.6017 171.868,-79.169"/>
</g>
<!-- 6 -->
<g id="node7" class="node"><title>6</title>
<ellipse fill="cadetblue" stroke="black" cx="210.932" cy="-152.737" rx="21.4286" ry="21.4286"/>
<text text-anchor="middle" x="210.932" y="-147.737" font-family="Times New Roman,serif" font-size="20.00">2</text>
</g>
<!-- 0&#45;&gt;6 -->
<g id="edge4" class="edge"><title>0&#45;&gt;6</title>
<path fill="none" stroke="black" stroke-width="2" d="M146.533,-133.321C156.865,-136.436 169.579,-140.27 180.973,-143.705"/>
<polygon fill="black" stroke="black" stroke-width="2" points="179.969,-147.058 190.553,-146.593 181.989,-140.355 179.969,-147.058"/>
</g>
<!-- 7 -->
<g id="node8" class="node"><title>7</title>
<ellipse fill="brown" stroke="black" cx="65.1629" cy="-82.5687" rx="21.4286" ry="21.4286"/>
<text text-anchor="middle" x="65.1629" y="-77.5687" font-family="Times New Roman,serif" font-size="20.00">3</text>
</g>
<!-- 0&#45;&gt;7 -->
<g id="edge5" class="edge"><title>0&#45;&gt;7</title>
<path fill="none" stroke="black" stroke-width="2" d="M108.704,-114.473C103.231,-110.463 97.0551,-105.937 91.1112,-101.582"/>
<polygon fill="black" stroke="black" stroke-width="2" points="92.8128,-98.4899 82.6778,-95.4025 88.6754,-104.136 92.8128,-98.4899"/>
</g>
<!-- 1 -->
<g id="node2" class="node"><title>1</title>
<ellipse fill="cadetblue" stroke="black" cx="138.301" cy="-177.552" rx="21.4286" ry="21.4286"/>
<text text-anchor="middle" x="138.301" y="-172.552" font-family="Times New Roman,serif" font-size="20.00">2</text>
</g>
<!-- 5 -->
<g id="node6" class="node"><title>5</title>
<ellipse fill="cadetblue" stroke="black" cx="21.2132" cy="-134.009" rx="21.4286" ry="21.4286"/>
<text text-anchor="middle" x="21.2132" y="-129.009" font-family="Times New Roman,serif" font-size="20.00">2</text>
</g>
<!-- 1&#45;&gt;5 -->
<g id="edge7" class="edge"><title>1&#45;&gt;5</title>
<path fill="none" stroke="black" stroke-width="2" d="M118.173,-170.066C99.6586,-163.181 71.9672,-152.883 50.9119,-145.053"/>
<polygon fill="black" stroke="black" stroke-width="2" points="52.0633,-141.747 41.4705,-141.542 49.6233,-148.308 52.0633,-141.747"/>
</g>
<!-- 1&#45;&gt;7 -->
<g id="edge9" class="edge"><title>1&#45;&gt;7</title>
<path fill="none" stroke="black" stroke-width="2" d="M122.913,-162.845C117.749,-157.623 112.099,-151.578 107.347,-145.703 98.1894,-134.381 89.08,-121.074 81.6826,-109.603"/>
<polygon fill="black" stroke="black" stroke-width="2" points="84.458,-107.444 76.1488,-100.871 78.5453,-111.191 84.458,-107.444"/>
</g>
<!-- 2 -->
<g id="node3" class="node"><title>2</title>
<ellipse fill="cadetblue" stroke="black" cx="113.989" cy="-21.2132" rx="21.4286" ry="21.4286"/>
<text text-anchor="middle" x="113.989" y="-16.2132" font-family="Times New Roman,serif" font-size="20.00">2</text>
</g>
<!-- 2&#45;&gt;4 -->
<g id="edge10" class="edge"><title>2&#45;&gt;4</title>
<path fill="none" stroke="black" stroke-width="2" d="M133.903,-29.5647C142.084,-32.9958 151.72,-37.0373 160.666,-40.7891"/>
<polygon fill="black" stroke="black" stroke-width="2" points="159.425,-44.0639 170.001,-44.7038 162.133,-37.6086 159.425,-44.0639"/>
</g>
<!-- 2&#45;&gt;5 -->
<g id="edge11" class="edge"><title>2&#45;&gt;5</title>
<path fill="none" stroke="black" stroke-width="2" d="M94.249,-29.6811C79.4124,-36.9123 59.4992,-48.5857 46.5637,-63.9678 37.1456,-75.1673 31.1004,-90.1506 27.2866,-103.385"/>
<polygon fill="black" stroke="black" stroke-width="2" points="23.8965,-102.515 24.7861,-113.072 30.6743,-104.264 23.8965,-102.515"/>
</g>
<!-- 3 -->
<g id="node4" class="node"><title>3</title>
<ellipse fill="cadetblue" stroke="black" cx="78.9834" cy="-213.685" rx="21.4286" ry="21.4286"/>
<text text-anchor="middle" x="78.9834" y="-208.685" font-family="Times New Roman,serif" font-size="20.00">2</text>
</g>
<!-- 3&#45;&gt;0 -->
<g id="edge1" class="edge"><title>3&#45;&gt;0</title>
<path fill="none" stroke="black" stroke-width="2" d="M89.1776,-194.902C95.5187,-183.218 103.787,-167.983 110.879,-154.916"/>
<polygon fill="black" stroke="black" stroke-width="2" points="114.096,-156.325 115.79,-145.867 107.944,-152.986 114.096,-156.325"/>
</g>
<!-- 3&#45;&gt;6 -->
<g id="edge15" class="edge"><title>3&#45;&gt;6</title>
<path fill="none" stroke="black" stroke-width="2" d="M100.343,-211.319C111.72,-209.765 125.873,-207.359 138.205,-203.856 156.892,-198.548 174.786,-186.101 188.148,-174.818"/>
<polygon fill="black" stroke="black" stroke-width="2" points="190.67,-177.261 195.849,-168.019 186.036,-172.014 190.67,-177.261"/>
</g>
<!-- 4&#45;&gt;1 -->
<g id="edge6" class="edge"><title>4&#45;&gt;1</title>
<path fill="none" stroke="black" stroke-width="2" d="M181.624,-72.7352C173.189,-93.142 159.93,-125.223 150.3,-148.521"/>
<polygon fill="black" stroke="black" stroke-width="2" points="147.005,-147.33 146.42,-157.908 153.474,-150.004 147.005,-147.33"/>
</g>
<!-- 4&#45;&gt;7 -->
<g id="edge17" class="edge"><title>4&#45;&gt;7</title>
<path fill="none" stroke="black" stroke-width="2" d="M168.923,-57.9488C148.974,-62.6821 118.652,-69.877 95.9296,-75.2684"/>
<polygon fill="black" stroke="black" stroke-width="2" points="95.011,-71.8891 86.0892,-77.6033 96.6272,-78.7 95.011,-71.8891"/>
</g>
<!-- 5&#45;&gt;0 -->
<g id="edge3" class="edge"><title>5&#45;&gt;0</title>
<path fill="none" stroke="black" stroke-width="2" d="M42.4111,-132.615C57.2213,-131.641 77.2607,-130.323 94.0016,-129.222"/>
<polygon fill="black" stroke="black" stroke-width="2" points="94.6896,-132.685 104.438,-128.536 94.2302,-125.7 94.6896,-132.685"/>
</g>
<!-- 5&#45;&gt;3 -->
<g id="edge14" class="edge"><title>5&#45;&gt;3</title>
<path fill="none" stroke="black" stroke-width="2" d="M33.7485,-151.297C41.5459,-162.052 51.7134,-176.075 60.4335,-188.101"/>
<polygon fill="black" stroke="black" stroke-width="2" points="57.769,-190.389 66.4726,-196.43 63.4361,-186.28 57.769,-190.389"/>
</g>
<!-- 6&#45;&gt;1 -->
<g id="edge8" class="edge"><title>6&#45;&gt;1</title>
<path fill="none" stroke="black" stroke-width="2" d="M190.7,-159.649C183.696,-162.042 175.691,-164.777 168.082,-167.377"/>
<polygon fill="black" stroke="black" stroke-width="2" points="166.756,-164.131 158.424,-170.677 169.019,-170.755 166.756,-164.131"/>
</g>
<!-- 6&#45;&gt;2 -->
<g id="edge12" class="edge"><title>6&#45;&gt;2</title>
<path fill="none" stroke="black" stroke-width="2" d="M198.259,-135.543C181.567,-112.896 152.077,-72.888 132.785,-46.7132"/>
<polygon fill="black" stroke="black" stroke-width="2" points="135.417,-44.3849 126.666,-38.4119 129.782,-48.5382 135.417,-44.3849"/>
</g>
<!-- 7&#45;&gt;2 -->
<g id="edge13" class="edge"><title>7&#45;&gt;2</title>
<path fill="none" stroke="black" stroke-width="2" d="M78.5049,-65.803C83.349,-59.7158 88.931,-52.7015 94.2124,-46.0648"/>
<polygon fill="black" stroke="black" stroke-width="2" points="97.1751,-47.9627 100.663,-37.9586 91.6978,-43.6039 97.1751,-47.9627"/>
</g>
<!-- 7&#45;&gt;3 -->
<g id="edge16" class="edge"><title>7&#45;&gt;3</title>
<path fill="none" stroke="black" stroke-width="2" d="M67.4141,-103.927C69.6529,-125.166 73.1127,-157.99 75.666,-182.213"/>
<polygon fill="black" stroke="black" stroke-width="2" points="72.204,-182.758 76.7331,-192.336 79.1655,-182.025 72.204,-182.758"/>
</g>
</g>
</svg>

