<?xml version="1.0" encoding="UTF-8" standalone="no"?>
<!DOCTYPE svg PUBLIC "-//W3C//DTD SVG 1.1//EN"
 "http://www.w3.org/Graphics/SVG/1.1/DTD/svg11.dtd">
<!-- Generated by graphviz version 2.36.0 (20140111.2315)
 -->
<!-- Title: G Pages: 1 -->
<svg width="100%" height="100%"
 viewBox="0.00 0.00 376.40 359.54" xmlns="http://www.w3.org/2000/svg" xmlns:xlink="http://www.w3.org/1999/xlink">
<g id="graph0" class="graph" transform="scale(1 1) rotate(0) translate(4 355.539)">
<title>G</title>
<!-- 0 -->
<g id="node1" class="node"><title>0</title>
<ellipse fill="cadetblue" stroke="black" cx="262.272" cy="-324.416" rx="21.4286" ry="21.4286"/>
<text text-anchor="middle" x="262.272" y="-319.416" font-family="Times New Roman,serif" font-size="20.00">2</text>
</g>
<!-- 6 -->
<g id="node7" class="node"><title>6</title>
<ellipse fill="cadetblue" stroke="black" cx="209.7" cy="-206.683" rx="21.4286" ry="21.4286"/>
<text text-anchor="middle" x="209.7" y="-201.683" font-family="Times New Roman,serif" font-size="20.00">2</text>
</g>
<!-- 0&#45;&gt;6 -->
<g id="edge3" class="edge"><title>0&#45;&gt;6</title>
<path fill="none" stroke="black" stroke-width="2" d="M253.591,-304.975C245.144,-286.058 232.208,-257.088 222.565,-235.493"/>
<polygon fill="black" stroke="black" stroke-width="2" points="225.668,-233.857 218.394,-226.153 219.276,-236.711 225.668,-233.857"/>
</g>
<!-- 7 -->
<g id="node8" class="node"><title>7</title>
<ellipse fill="cadetblue" stroke="black" cx="159.269" cy="-168.467" rx="21.4286" ry="21.4286"/>
<text text-anchor="middle" x="159.269" y="-163.467" font-family="Times New Roman,serif" font-size="20.00">2</text>
</g>
<!-- 0&#45;&gt;7 -->
<g id="edge4" class="edge"><title>0&#45;&gt;7</title>
<path fill="none" stroke="black" stroke-width="2" d="M249.063,-307.273C234.291,-287.822 209.962,-254.942 191.078,-225.261 185.209,-216.036 179.233,-205.672 174.069,-196.347"/>
<polygon fill="black" stroke="black" stroke-width="2" points="177.074,-194.548 169.209,-187.45 170.931,-197.904 177.074,-194.548"/>
</g>
<!-- 1 -->
<g id="node2" class="node"><title>1</title>
<ellipse fill="cadetblue" stroke="black" cx="21.2132" cy="-209.268" rx="21.4286" ry="21.4286"/>
<text text-anchor="middle" x="21.2132" y="-204.268" font-family="Times New Roman,serif" font-size="20.00">2</text>
</g>
<!-- 4 -->
<g id="node5" class="node"><title>4</title>
<ellipse fill="cadetblue" stroke="black" cx="109.152" cy="-330.326" rx="21.4286" ry="21.4286"/>
<text text-anchor="middle" x="109.152" y="-325.326" font-family="Times New Roman,serif" font-size="20.00">2</text>
</g>
<!-- 1&#45;&gt;4 -->
<g id="edge5" class="edge"><title>1&#45;&gt;4</title>
<path fill="none" stroke="black" stroke-width="2" d="M33.8127,-226.613C48.7015,-247.109 73.6033,-281.389 90.6741,-304.889"/>
<polygon fill="black" stroke="black" stroke-width="2" points="87.867,-306.98 96.576,-313.014 93.5305,-302.866 87.867,-306.98"/>
</g>
<!-- 1&#45;&gt;7 -->
<g id="edge8" class="edge"><title>1&#45;&gt;7</title>
<path fill="none" stroke="black" stroke-width="2" d="M41.5838,-203.248C64.6267,-196.438 102.388,-185.278 128.908,-177.44"/>
<polygon fill="black" stroke="black" stroke-width="2" points="130.217,-180.703 138.815,-174.512 128.233,-173.99 130.217,-180.703"/>
</g>
<!-- 2 -->
<g id="node3" class="node"><title>2</title>
<ellipse fill="cadetblue" stroke="black" cx="194.524" cy="-21.2132" rx="21.4286" ry="21.4286"/>
<text text-anchor="middle" x="194.524" y="-16.2132" font-family="Times New Roman,serif" font-size="20.00">2</text>
</g>
<!-- 5 -->
<g id="node6" class="node"><title>5</title>
<ellipse fill="cadetblue" stroke="black" cx="41.9273" cy="-50.9668" rx="21.4286" ry="21.4286"/>
<text text-anchor="middle" x="41.9273" y="-45.9668" font-family="Times New Roman,serif" font-size="20.00">2</text>
</g>
<!-- 2&#45;&gt;5 -->
<g id="edge9" class="edge"><title>2&#45;&gt;5</title>
<path fill="none" stroke="black" stroke-width="2" d="M173.626,-25.2879C147.632,-30.3563 103.025,-39.0539 73.0144,-44.9054"/>
<polygon fill="black" stroke="black" stroke-width="2" points="72.2079,-41.4967 63.0626,-46.8458 73.5476,-48.3673 72.2079,-41.4967"/>
</g>
<!-- 3 -->
<g id="node4" class="node"><title>3</title>
<ellipse fill="cadetblue" stroke="black" cx="347.183" cy="-196.247" rx="21.4286" ry="21.4286"/>
<text text-anchor="middle" x="347.183" y="-191.247" font-family="Times New Roman,serif" font-size="20.00">2</text>
</g>
<!-- 3&#45;&gt;0 -->
<g id="edge1" class="edge"><title>3&#45;&gt;0</title>
<path fill="none" stroke="black" stroke-width="2" d="M335.377,-214.069C321.01,-235.755 296.616,-272.575 279.992,-297.668"/>
<polygon fill="black" stroke="black" stroke-width="2" points="276.857,-296.063 274.252,-306.333 282.693,-299.929 276.857,-296.063"/>
</g>
<!-- 4&#45;&gt;0 -->
<g id="edge2" class="edge"><title>4&#45;&gt;0</title>
<path fill="none" stroke="black" stroke-width="2" d="M130.443,-329.504C156.351,-328.504 200.34,-326.806 230.318,-325.649"/>
<polygon fill="black" stroke="black" stroke-width="2" points="230.811,-329.133 240.669,-325.25 230.541,-322.138 230.811,-329.133"/>
</g>
<!-- 4&#45;&gt;6 -->
<g id="edge14" class="edge"><title>4&#45;&gt;6</title>
<path fill="none" stroke="black" stroke-width="2" d="M122.713,-313.651C139.954,-292.45 169.862,-255.672 189.718,-231.255"/>
<polygon fill="black" stroke="black" stroke-width="2" points="192.44,-233.455 196.034,-223.489 187.009,-229.039 192.44,-233.455"/>
</g>
<!-- 5&#45;&gt;1 -->
<g id="edge6" class="edge"><title>5&#45;&gt;1</title>
<path fill="none" stroke="black" stroke-width="2" d="M39.1337,-72.3161C35.5719,-99.5363 29.3859,-146.811 25.2956,-178.07"/>
<polygon fill="black" stroke="black" stroke-width="2" points="21.8227,-177.635 23.9955,-188.005 28.7635,-178.544 21.8227,-177.635"/>
</g>
<!-- 6&#45;&gt;1 -->
<g id="edge7" class="edge"><title>6&#45;&gt;1</title>
<path fill="none" stroke="black" stroke-width="2" d="M188.445,-206.974C155.355,-207.428 91.3355,-208.306 52.8203,-208.835"/>
<polygon fill="black" stroke="black" stroke-width="2" points="52.6312,-205.337 42.6802,-208.974 52.7273,-212.336 52.6312,-205.337"/>
</g>
<!-- 6&#45;&gt;2 -->
<g id="edge10" class="edge"><title>6&#45;&gt;2</title>
<path fill="none" stroke="black" stroke-width="2" d="M207.959,-185.407C205.302,-152.932 200.217,-90.7891 197.122,-52.9643"/>
<polygon fill="black" stroke="black" stroke-width="2" points="200.572,-52.2069 196.268,-42.5257 193.595,-52.7778 200.572,-52.2069"/>
</g>
<!-- 6&#45;&gt;3 -->
<g id="edge12" class="edge"><title>6&#45;&gt;3</title>
<path fill="none" stroke="black" stroke-width="2" d="M230.881,-205.075C253.522,-203.357 289.664,-200.613 315.651,-198.641"/>
<polygon fill="black" stroke="black" stroke-width="2" points="316.046,-202.121 325.752,-197.874 315.516,-195.141 316.046,-202.121"/>
</g>
<!-- 7&#45;&gt;2 -->
<g id="edge11" class="edge"><title>7&#45;&gt;2</title>
<path fill="none" stroke="black" stroke-width="2" d="M164.245,-147.682C170.229,-122.687 180.325,-80.5191 187.199,-51.8061"/>
<polygon fill="black" stroke="black" stroke-width="2" points="190.648,-52.4332 189.573,-41.8931 183.841,-50.8033 190.648,-52.4332"/>
</g>
<!-- 7&#45;&gt;3 -->
<g id="edge13" class="edge"><title>7&#45;&gt;3</title>
<path fill="none" stroke="black" stroke-width="2" d="M180.46,-171.6C213.536,-176.49 277.614,-185.963 315.978,-191.634"/>
<polygon fill="black" stroke="black" stroke-width="2" points="315.665,-195.126 326.07,-193.126 316.689,-188.201 315.665,-195.126"/>
</g>
<!-- 7&#45;&gt;4 -->
<g id="edge15" class="edge"><title>7&#45;&gt;4</title>
<path fill="none" stroke="black" stroke-width="2" d="M152.922,-188.967C144.223,-217.061 128.535,-267.727 118.494,-300.157"/>
<polygon fill="black" stroke="black" stroke-width="2" points="115.062,-299.405 115.448,-309.993 121.749,-301.476 115.062,-299.405"/>
</g>
<!-- 7&#45;&gt;5 -->
<g id="edge16" class="edge"><title>7&#45;&gt;5</title>
<path fill="none" stroke="black" stroke-width="2" d="M143.928,-153.106C123.636,-132.786 87.7192,-96.8208 64.3737,-73.4436"/>
<polygon fill="black" stroke="black" stroke-width="2" points="66.8143,-70.9344 57.2714,-66.3317 61.8612,-75.8808 66.8143,-70.9344"/>
</g>
</g>
</svg>

