<?xml version="1.0" encoding="UTF-8" standalone="no"?>
<!DOCTYPE svg PUBLIC "-//W3C//DTD SVG 1.1//EN"
 "http://www.w3.org/Graphics/SVG/1.1/DTD/svg11.dtd">
<!-- Generated by graphviz version 2.36.0 (20140111.2315)
 -->
<!-- Title: G Pages: 1 -->
<svg width="100%" height="100%"
 viewBox="0.00 0.00 196.61 234.75" xmlns="http://www.w3.org/2000/svg" xmlns:xlink="http://www.w3.org/1999/xlink">
<g id="graph0" class="graph" transform="scale(1 1) rotate(0) translate(4 230.748)">
<title>G</title>
<!-- 0 -->
<g id="node1" class="node"><title>0</title>
<ellipse fill="cadetblue" stroke="black" cx="167.394" cy="-116.642" rx="21.4286" ry="21.4286"/>
<text text-anchor="middle" x="167.394" y="-111.642" font-family="Times New Roman,serif" font-size="20.00">2</text>
</g>
<!-- 4 -->
<g id="node5" class="node"><title>4</title>
<ellipse fill="cadetblue" stroke="black" cx="166.837" cy="-22.2885" rx="21.4286" ry="21.4286"/>
<text text-anchor="middle" x="166.837" y="-17.2885" font-family="Times New Roman,serif" font-size="20.00">2</text>
</g>
<!-- 0&#45;&gt;4 -->
<g id="edge2" class="edge"><title>0&#45;&gt;4</title>
<path fill="none" stroke="black" stroke-width="2" d="M167.267,-95.2316C167.196,-83.0473 167.104,-67.5552 167.024,-53.9851"/>
<polygon fill="black" stroke="black" stroke-width="2" points="170.522,-53.5931 166.963,-43.614 163.522,-53.6345 170.522,-53.5931"/>
</g>
<!-- 5 -->
<g id="node6" class="node"><title>5</title>
<ellipse fill="cadetblue" stroke="black" cx="21.2132" cy="-88.8654" rx="21.4286" ry="21.4286"/>
<text text-anchor="middle" x="21.2132" y="-83.8654" font-family="Times New Roman,serif" font-size="20.00">2</text>
</g>
<!-- 0&#45;&gt;5 -->
<g id="edge3" class="edge"><title>0&#45;&gt;5</title>
<path fill="none" stroke="black" stroke-width="2" d="M146.45,-112.662C121.809,-107.98 80.6686,-100.163 52.3032,-94.773"/>
<polygon fill="black" stroke="black" stroke-width="2" points="52.5961,-91.266 42.1184,-92.8377 51.2893,-98.143 52.5961,-91.266"/>
</g>
<!-- 1 -->
<g id="node2" class="node"><title>1</title>
<ellipse fill="cadetblue" stroke="black" cx="27.5622" cy="-184.749" rx="21.4286" ry="21.4286"/>
<text text-anchor="middle" x="27.5622" y="-179.749" font-family="Times New Roman,serif" font-size="20.00">2</text>
</g>
<!-- 6 -->
<g id="node7" class="node"><title>6</title>
<ellipse fill="cadetblue" stroke="black" cx="90.6846" cy="-147.64" rx="21.4286" ry="21.4286"/>
<text text-anchor="middle" x="90.6846" y="-142.64" font-family="Times New Roman,serif" font-size="20.00">2</text>
</g>
<!-- 1&#45;&gt;6 -->
<g id="edge7" class="edge"><title>1&#45;&gt;6</title>
<path fill="none" stroke="black" stroke-width="2" d="M46.1596,-173.816C51.5055,-170.673 57.4519,-167.177 63.2134,-163.79"/>
<polygon fill="black" stroke="black" stroke-width="2" points="65.1552,-166.708 72.002,-158.623 61.6076,-160.674 65.1552,-166.708"/>
</g>
<!-- 7 -->
<g id="node8" class="node"><title>7</title>
<ellipse fill="cadetblue" stroke="black" cx="95.9677" cy="-97.2084" rx="21.4286" ry="21.4286"/>
<text text-anchor="middle" x="95.9677" y="-92.2084" font-family="Times New Roman,serif" font-size="20.00">2</text>
</g>
<!-- 1&#45;&gt;7 -->
<g id="edge8" class="edge"><title>1&#45;&gt;7</title>
<path fill="none" stroke="black" stroke-width="2" d="M40.7515,-167.87C50.8773,-154.912 65.0148,-136.82 76.4495,-122.186"/>
<polygon fill="black" stroke="black" stroke-width="2" points="79.4195,-124.07 82.8189,-114.035 73.9038,-119.76 79.4195,-124.07"/>
</g>
<!-- 2 -->
<g id="node3" class="node"><title>2</title>
<ellipse fill="cadetblue" stroke="black" cx="71.7928" cy="-21.2132" rx="21.4286" ry="21.4286"/>
<text text-anchor="middle" x="71.7928" y="-16.2132" font-family="Times New Roman,serif" font-size="20.00">2</text>
</g>
<!-- 2&#45;&gt;4 -->
<g id="edge9" class="edge"><title>2&#45;&gt;4</title>
<path fill="none" stroke="black" stroke-width="2" d="M93.3599,-21.4572C105.755,-21.5974 121.548,-21.7761 135.314,-21.9318"/>
<polygon fill="black" stroke="black" stroke-width="2" points="135.317,-25.432 145.356,-22.0455 135.396,-18.4325 135.317,-25.432"/>
</g>
<!-- 2&#45;&gt;6 -->
<g id="edge11" class="edge"><title>2&#45;&gt;6</title>
<path fill="none" stroke="black" stroke-width="2" d="M74.9549,-42.3742C77.979,-62.6123 82.5759,-93.375 86.0205,-116.427"/>
<polygon fill="black" stroke="black" stroke-width="2" points="82.5727,-117.037 87.5122,-126.41 89.4958,-116.002 82.5727,-117.037"/>
</g>
<!-- 3 -->
<g id="node4" class="node"><title>3</title>
<ellipse fill="cadetblue" stroke="black" cx="131.417" cy="-205.535" rx="21.4286" ry="21.4286"/>
<text text-anchor="middle" x="131.417" y="-200.535" font-family="Times New Roman,serif" font-size="20.00">2</text>
</g>
<!-- 3&#45;&gt;0 -->
<g id="edge1" class="edge"><title>3&#45;&gt;0</title>
<path fill="none" stroke="black" stroke-width="2" d="M139.401,-185.807C144.152,-174.068 150.268,-158.956 155.571,-145.854"/>
<polygon fill="black" stroke="black" stroke-width="2" points="158.924,-146.898 159.432,-136.315 152.436,-144.271 158.924,-146.898"/>
</g>
<!-- 3&#45;&gt;1 -->
<g id="edge5" class="edge"><title>3&#45;&gt;1</title>
<path fill="none" stroke="black" stroke-width="2" d="M110.401,-201.329C95.4791,-198.342 75.2037,-194.284 58.447,-190.93"/>
<polygon fill="black" stroke="black" stroke-width="2" points="59.04,-187.48 48.5476,-188.949 57.6662,-194.344 59.04,-187.48"/>
</g>
<!-- 4&#45;&gt;7 -->
<g id="edge15" class="edge"><title>4&#45;&gt;7</title>
<path fill="none" stroke="black" stroke-width="2" d="M152.153,-37.8119C142.176,-48.3596 128.809,-62.4899 117.617,-74.322"/>
<polygon fill="black" stroke="black" stroke-width="2" points="114.962,-72.0349 110.633,-81.7048 120.048,-76.8453 114.962,-72.0349"/>
</g>
<!-- 5&#45;&gt;1 -->
<g id="edge6" class="edge"><title>5&#45;&gt;1</title>
<path fill="none" stroke="black" stroke-width="2" d="M22.6223,-110.145C23.4607,-122.807 24.54,-139.107 25.4758,-153.24"/>
<polygon fill="black" stroke="black" stroke-width="2" points="22.004,-153.782 26.1571,-163.529 28.9887,-153.319 22.004,-153.782"/>
</g>
<!-- 5&#45;&gt;2 -->
<g id="edge10" class="edge"><title>5&#45;&gt;2</title>
<path fill="none" stroke="black" stroke-width="2" d="M33.9766,-71.7939C39.6833,-64.1609 46.5285,-55.0052 52.8172,-46.5939"/>
<polygon fill="black" stroke="black" stroke-width="2" points="55.6728,-48.6194 58.8576,-38.5146 50.0665,-44.4279 55.6728,-48.6194"/>
</g>
<!-- 6&#45;&gt;0 -->
<g id="edge4" class="edge"><title>6&#45;&gt;0</title>
<path fill="none" stroke="black" stroke-width="2" d="M110.439,-139.657C118.939,-136.222 129.048,-132.137 138.373,-128.369"/>
<polygon fill="black" stroke="black" stroke-width="2" points="139.746,-131.589 147.706,-124.598 137.123,-125.099 139.746,-131.589"/>
</g>
<!-- 6&#45;&gt;3 -->
<g id="edge13" class="edge"><title>6&#45;&gt;3</title>
<path fill="none" stroke="black" stroke-width="2" d="M102.906,-165.01C106.208,-169.705 109.853,-174.885 113.402,-179.929"/>
<polygon fill="black" stroke="black" stroke-width="2" points="110.588,-182.012 119.205,-188.177 116.313,-177.984 110.588,-182.012"/>
</g>
<!-- 7&#45;&gt;2 -->
<g id="edge12" class="edge"><title>7&#45;&gt;2</title>
<path fill="none" stroke="black" stroke-width="2" d="M89.4893,-76.8431C86.9962,-69.0061 84.0942,-59.8833 81.3701,-51.3199"/>
<polygon fill="black" stroke="black" stroke-width="2" points="84.6559,-50.1032 78.2891,-41.6347 77.9853,-52.2252 84.6559,-50.1032"/>
</g>
<!-- 7&#45;&gt;3 -->
<g id="edge14" class="edge"><title>7&#45;&gt;3</title>
<path fill="none" stroke="black" stroke-width="2" d="M102.635,-117.584C107.983,-133.925 115.566,-157.097 121.606,-175.555"/>
<polygon fill="black" stroke="black" stroke-width="2" points="118.343,-176.835 124.779,-185.251 124.995,-174.658 118.343,-176.835"/>
</g>
<!-- 7&#45;&gt;5 -->
<g id="edge16" class="edge"><title>7&#45;&gt;5</title>
<path fill="none" stroke="black" stroke-width="2" d="M74.746,-94.8399C67.8807,-94.0737 60.1149,-93.207 52.6706,-92.3762"/>
<polygon fill="black" stroke="black" stroke-width="2" points="52.8145,-88.8706 42.4879,-91.2398 52.038,-95.8274 52.8145,-88.8706"/>
</g>
</g>
</svg>

