<?xml version="1.0" encoding="UTF-8" standalone="no"?>
<!DOCTYPE svg PUBLIC "-//W3C//DTD SVG 1.1//EN"
 "http://www.w3.org/Graphics/SVG/1.1/DTD/svg11.dtd">
<!-- Generated by graphviz version 2.36.0 (20140111.2315)
 -->
<!-- Title: G Pages: 1 -->
<svg width="100%" height="100%"
 viewBox="0.00 0.00 219.39 211.60" xmlns="http://www.w3.org/2000/svg" xmlns:xlink="http://www.w3.org/1999/xlink">
<g id="graph0" class="graph" transform="scale(1 1) rotate(0) translate(4 207.597)">
<title>G</title>
<!-- 0 -->
<g id="node1" class="node"><title>0</title>
<ellipse fill="cadetblue" stroke="black" cx="128.052" cy="-94.5709" rx="21.4286" ry="21.4286"/>
<text text-anchor="middle" x="128.052" y="-89.5709" font-family="Times New Roman,serif" font-size="20.00">2</text>
</g>
<!-- 5 -->
<g id="node6" class="node"><title>5</title>
<ellipse fill="cadetblue" stroke="black" cx="23.7421" cy="-76.2208" rx="21.4286" ry="21.4286"/>
<text text-anchor="middle" x="23.7421" y="-71.2208" font-family="Times New Roman,serif" font-size="20.00">2</text>
</g>
<!-- 0&#45;&gt;5 -->
<g id="edge3" class="edge"><title>0&#45;&gt;5</title>
<path fill="none" stroke="black" stroke-width="2" d="M106.943,-90.8574C91.9566,-88.221 71.5924,-84.6385 54.7622,-81.6778"/>
<polygon fill="black" stroke="black" stroke-width="2" points="55.2746,-78.2143 44.8194,-79.9287 54.0617,-85.1084 55.2746,-78.2143"/>
</g>
<!-- 6 -->
<g id="node7" class="node"><title>6</title>
<ellipse fill="cadetblue" stroke="black" cx="190.181" cy="-77.4563" rx="21.4286" ry="21.4286"/>
<text text-anchor="middle" x="190.181" y="-72.4563" font-family="Times New Roman,serif" font-size="20.00">2</text>
</g>
<!-- 0&#45;&gt;6 -->
<g id="edge4" class="edge"><title>0&#45;&gt;6</title>
<path fill="none" stroke="black" stroke-width="2" d="M148.74,-88.8719C152.266,-87.9008 155.993,-86.8741 159.708,-85.8505"/>
<polygon fill="black" stroke="black" stroke-width="2" points="160.66,-89.2188 169.371,-83.1886 158.801,-82.4702 160.66,-89.2188"/>
</g>
<!-- 7 -->
<g id="node8" class="node"><title>7</title>
<ellipse fill="cadetblue" stroke="black" cx="77.6207" cy="-126.567" rx="21.4286" ry="21.4286"/>
<text text-anchor="middle" x="77.6207" y="-121.567" font-family="Times New Roman,serif" font-size="20.00">2</text>
</g>
<!-- 0&#45;&gt;7 -->
<g id="edge5" class="edge"><title>0&#45;&gt;7</title>
<path fill="none" stroke="black" stroke-width="2" d="M110.13,-105.942C108.244,-107.138 106.298,-108.373 104.34,-109.615"/>
<polygon fill="black" stroke="black" stroke-width="2" points="102.394,-106.704 95.8254,-115.017 106.144,-112.615 102.394,-106.704"/>
</g>
<!-- 1 -->
<g id="node2" class="node"><title>1</title>
<ellipse fill="cadetblue" stroke="black" cx="21.2132" cy="-178.978" rx="21.4286" ry="21.4286"/>
<text text-anchor="middle" x="21.2132" y="-173.978" font-family="Times New Roman,serif" font-size="20.00">2</text>
</g>
<!-- 1&#45;&gt;7 -->
<g id="edge8" class="edge"><title>1&#45;&gt;7</title>
<path fill="none" stroke="black" stroke-width="2" d="M36.9258,-164.378C42.3046,-159.381 48.443,-153.677 54.2927,-148.242"/>
<polygon fill="black" stroke="black" stroke-width="2" points="57.0488,-150.459 61.9923,-141.088 52.2841,-145.331 57.0488,-150.459"/>
</g>
<!-- 2 -->
<g id="node3" class="node"><title>2</title>
<ellipse fill="cadetblue" stroke="black" cx="96.7638" cy="-21.2132" rx="21.4286" ry="21.4286"/>
<text text-anchor="middle" x="96.7638" y="-16.2132" font-family="Times New Roman,serif" font-size="20.00">2</text>
</g>
<!-- 2&#45;&gt;6 -->
<g id="edge10" class="edge"><title>2&#45;&gt;6</title>
<path fill="none" stroke="black" stroke-width="2" d="M115.22,-32.325C128.91,-40.5675 147.788,-51.9329 163.173,-61.196"/>
<polygon fill="black" stroke="black" stroke-width="2" points="161.391,-64.208 171.763,-66.3675 165.001,-58.211 161.391,-64.208"/>
</g>
<!-- 3 -->
<g id="node4" class="node"><title>3</title>
<ellipse fill="cadetblue" stroke="black" cx="187.775" cy="-156.355" rx="21.4286" ry="21.4286"/>
<text text-anchor="middle" x="187.775" y="-151.355" font-family="Times New Roman,serif" font-size="20.00">2</text>
</g>
<!-- 3&#45;&gt;0 -->
<g id="edge1" class="edge"><title>3&#45;&gt;0</title>
<path fill="none" stroke="black" stroke-width="2" d="M173.012,-141.082C166.173,-134.007 157.899,-125.448 150.324,-117.611"/>
<polygon fill="black" stroke="black" stroke-width="2" points="152.527,-114.854 143.06,-110.097 147.494,-119.719 152.527,-114.854"/>
</g>
<!-- 4 -->
<g id="node5" class="node"><title>4</title>
<ellipse fill="brown" stroke="black" cx="125.012" cy="-182.384" rx="21.4286" ry="21.4286"/>
<text text-anchor="middle" x="125.012" y="-177.384" font-family="Times New Roman,serif" font-size="20.00">3</text>
</g>
<!-- 3&#45;&gt;4 -->
<g id="edge12" class="edge"><title>3&#45;&gt;4</title>
<path fill="none" stroke="black" stroke-width="2" d="M167.917,-164.59C163.567,-166.394 158.874,-168.341 154.243,-170.261"/>
<polygon fill="black" stroke="black" stroke-width="2" points="152.853,-167.048 144.957,-174.112 155.535,-173.514 152.853,-167.048"/>
</g>
<!-- 4&#45;&gt;0 -->
<g id="edge2" class="edge"><title>4&#45;&gt;0</title>
<path fill="none" stroke="black" stroke-width="2" d="M125.748,-161.127C126.111,-150.634 126.557,-137.765 126.959,-126.148"/>
<polygon fill="black" stroke="black" stroke-width="2" points="130.464,-126.052 127.312,-115.937 123.469,-125.809 130.464,-126.052"/>
</g>
<!-- 4&#45;&gt;1 -->
<g id="edge6" class="edge"><title>4&#45;&gt;1</title>
<path fill="none" stroke="black" stroke-width="2" d="M103.756,-181.687C89.0628,-181.204 69.2636,-180.555 52.7396,-180.012"/>
<polygon fill="black" stroke="black" stroke-width="2" points="52.55,-176.504 42.4405,-179.674 52.3203,-183.5 52.55,-176.504"/>
</g>
<!-- 5&#45;&gt;1 -->
<g id="edge7" class="edge"><title>5&#45;&gt;1</title>
<path fill="none" stroke="black" stroke-width="2" d="M23.2181,-97.512C22.8621,-111.979 22.3851,-131.359 21.9857,-147.588"/>
<polygon fill="black" stroke="black" stroke-width="2" points="18.4837,-147.63 21.7365,-157.714 25.4816,-147.803 18.4837,-147.63"/>
</g>
<!-- 5&#45;&gt;2 -->
<g id="edge9" class="edge"><title>5&#45;&gt;2</title>
<path fill="none" stroke="black" stroke-width="2" d="M41.0472,-63.1847C50.1412,-56.3342 61.4574,-47.8097 71.5111,-40.2361"/>
<polygon fill="black" stroke="black" stroke-width="2" points="73.7015,-42.9681 79.5829,-34.1557 69.4896,-37.377 73.7015,-42.9681"/>
</g>
<!-- 6&#45;&gt;3 -->
<g id="edge13" class="edge"><title>6&#45;&gt;3</title>
<path fill="none" stroke="black" stroke-width="2" d="M189.524,-99.0155C189.28,-106.995 188.999,-116.213 188.735,-124.893"/>
<polygon fill="black" stroke="black" stroke-width="2" points="185.23,-124.992 188.424,-135.094 192.227,-125.206 185.23,-124.992"/>
</g>
<!-- 6&#45;&gt;4 -->
<g id="edge15" class="edge"><title>6&#45;&gt;4</title>
<path fill="none" stroke="black" stroke-width="2" d="M178.829,-95.7333C168.55,-112.284 153.278,-136.874 141.625,-155.635"/>
<polygon fill="black" stroke="black" stroke-width="2" points="138.536,-153.975 136.234,-164.316 144.483,-157.668 138.536,-153.975"/>
</g>
<!-- 7&#45;&gt;2 -->
<g id="edge11" class="edge"><title>7&#45;&gt;2</title>
<path fill="none" stroke="black" stroke-width="2" d="M81.4486,-105.5C84.2135,-90.2835 87.9931,-69.4824 91.1057,-52.3522"/>
<polygon fill="black" stroke="black" stroke-width="2" points="94.5983,-52.708 92.9425,-42.2434 87.7111,-51.4565 94.5983,-52.708"/>
</g>
<!-- 7&#45;&gt;3 -->
<g id="edge14" class="edge"><title>7&#45;&gt;3</title>
<path fill="none" stroke="black" stroke-width="2" d="M98.3399,-132.17C114.957,-136.663 138.52,-143.035 157.29,-148.111"/>
<polygon fill="black" stroke="black" stroke-width="2" points="156.582,-151.545 167.149,-150.777 158.409,-144.788 156.582,-151.545"/>
</g>
<!-- 7&#45;&gt;4 -->
<g id="edge16" class="edge"><title>7&#45;&gt;4</title>
<path fill="none" stroke="black" stroke-width="2" d="M91.5834,-143.012C95.597,-147.739 100.061,-152.997 104.387,-158.092"/>
<polygon fill="black" stroke="black" stroke-width="2" points="101.845,-160.506 110.986,-165.864 107.181,-155.975 101.845,-160.506"/>
</g>
<!-- 7&#45;&gt;5 -->
<g id="edge17" class="edge"><title>7&#45;&gt;5</title>
<path fill="none" stroke="black" stroke-width="2" d="M62.0368,-112.005C57.2759,-107.556 51.9358,-102.566 46.7893,-97.7569"/>
<polygon fill="black" stroke="black" stroke-width="2" points="49.1738,-95.1948 39.4777,-90.9246 44.3946,-100.309 49.1738,-95.1948"/>
</g>
</g>
</svg>

