<?xml version="1.0" encoding="UTF-8" standalone="no"?>
<!DOCTYPE svg PUBLIC "-//W3C//DTD SVG 1.1//EN"
 "http://www.w3.org/Graphics/SVG/1.1/DTD/svg11.dtd">
<!-- Generated by graphviz version 2.36.0 (20140111.2315)
 -->
<!-- Title: G Pages: 1 -->
<svg width="100%" height="100%"
 viewBox="0.00 0.00 293.39 304.88" xmlns="http://www.w3.org/2000/svg" xmlns:xlink="http://www.w3.org/1999/xlink">
<g id="graph0" class="graph" transform="scale(1 1) rotate(0) translate(4 300.881)">
<title>G</title>
<!-- 0 -->
<g id="node1" class="node"><title>0</title>
<ellipse fill="cadetblue" stroke="black" cx="264.174" cy="-171.179" rx="21.4286" ry="21.4286"/>
<text text-anchor="middle" x="264.174" y="-166.179" font-family="Times New Roman,serif" font-size="20.00">2</text>
</g>
<!-- 6 -->
<g id="node7" class="node"><title>6</title>
<ellipse fill="cadetblue" stroke="black" cx="115.963" cy="-185.225" rx="21.4286" ry="21.4286"/>
<text text-anchor="middle" x="115.963" y="-180.225" font-family="Times New Roman,serif" font-size="20.00">2</text>
</g>
<!-- 0&#45;&gt;6 -->
<g id="edge3" class="edge"><title>0&#45;&gt;6</title>
<path fill="none" stroke="black" stroke-width="2" d="M242.939,-173.192C217.956,-175.559 176.244,-179.512 147.485,-182.238"/>
<polygon fill="black" stroke="black" stroke-width="2" points="146.784,-178.789 137.159,-183.217 147.444,-185.757 146.784,-178.789"/>
</g>
<!-- 7 -->
<g id="node8" class="node"><title>7</title>
<ellipse fill="cadetblue" stroke="black" cx="157.28" cy="-128.157" rx="21.4286" ry="21.4286"/>
<text text-anchor="middle" x="157.28" y="-123.157" font-family="Times New Roman,serif" font-size="20.00">2</text>
</g>
<!-- 0&#45;&gt;7 -->
<g id="edge4" class="edge"><title>0&#45;&gt;7</title>
<path fill="none" stroke="black" stroke-width="2" d="M244.068,-163.087C227.869,-156.567 204.865,-147.309 186.611,-139.962"/>
<polygon fill="black" stroke="black" stroke-width="2" points="187.88,-136.7 177.296,-136.213 185.266,-143.194 187.88,-136.7"/>
</g>
<!-- 1 -->
<g id="node2" class="node"><title>1</title>
<ellipse fill="cadetblue" stroke="black" cx="35.3822" cy="-71.8979" rx="21.4286" ry="21.4286"/>
<text text-anchor="middle" x="35.3822" y="-66.8979" font-family="Times New Roman,serif" font-size="20.00">2</text>
</g>
<!-- 1&#45;&gt;6 -->
<g id="edge7" class="edge"><title>1&#45;&gt;6</title>
<path fill="none" stroke="black" stroke-width="2" d="M47.9729,-89.6053C61.2782,-108.318 82.3947,-138.015 97.5649,-159.351"/>
<polygon fill="black" stroke="black" stroke-width="2" points="94.8133,-161.521 103.461,-167.642 100.518,-157.464 94.8133,-161.521"/>
</g>
<!-- 1&#45;&gt;7 -->
<g id="edge8" class="edge"><title>1&#45;&gt;7</title>
<path fill="none" stroke="black" stroke-width="2" d="M54.6973,-80.8124C74.5518,-89.9758 105.697,-104.35 128.465,-114.858"/>
<polygon fill="black" stroke="black" stroke-width="2" points="127.106,-118.085 137.652,-119.098 130.039,-111.73 127.106,-118.085"/>
</g>
<!-- 2 -->
<g id="node3" class="node"><title>2</title>
<ellipse fill="cadetblue" stroke="black" cx="85.8136" cy="-34.3555" rx="21.4286" ry="21.4286"/>
<text text-anchor="middle" x="85.8136" y="-29.3555" font-family="Times New Roman,serif" font-size="20.00">2</text>
</g>
<!-- 4 -->
<g id="node5" class="node"><title>4</title>
<ellipse fill="cadetblue" stroke="black" cx="205.693" cy="-21.2132" rx="21.4286" ry="21.4286"/>
<text text-anchor="middle" x="205.693" y="-16.2132" font-family="Times New Roman,serif" font-size="20.00">2</text>
</g>
<!-- 2&#45;&gt;4 -->
<g id="edge9" class="edge"><title>2&#45;&gt;4</title>
<path fill="none" stroke="black" stroke-width="2" d="M106.97,-32.0362C125.6,-29.9937 152.992,-26.9908 174.198,-24.666"/>
<polygon fill="black" stroke="black" stroke-width="2" points="174.786,-28.1226 184.345,-23.5535 174.024,-21.1642 174.786,-28.1226"/>
</g>
<!-- 5 -->
<g id="node6" class="node"><title>5</title>
<ellipse fill="brown" stroke="black" cx="21.2132" cy="-188.437" rx="21.4286" ry="21.4286"/>
<text text-anchor="middle" x="21.2132" y="-183.437" font-family="Times New Roman,serif" font-size="20.00">3</text>
</g>
<!-- 2&#45;&gt;5 -->
<g id="edge10" class="edge"><title>2&#45;&gt;5</title>
<path fill="none" stroke="black" stroke-width="2" d="M77.5005,-54.1836C66.3077,-80.88 46.3113,-128.575 33.4127,-159.34"/>
<polygon fill="black" stroke="black" stroke-width="2" points="30.1332,-158.11 29.4944,-168.685 36.5888,-160.816 30.1332,-158.11"/>
</g>
<!-- 3 -->
<g id="node4" class="node"><title>3</title>
<ellipse fill="cadetblue" stroke="black" cx="161.027" cy="-275.667" rx="21.4286" ry="21.4286"/>
<text text-anchor="middle" x="161.027" y="-270.667" font-family="Times New Roman,serif" font-size="20.00">2</text>
</g>
<!-- 3&#45;&gt;0 -->
<g id="edge1" class="edge"><title>3&#45;&gt;0</title>
<path fill="none" stroke="black" stroke-width="2" d="M176.247,-260.25C193.639,-242.632 222.253,-213.646 242.094,-193.546"/>
<polygon fill="black" stroke="black" stroke-width="2" points="244.693,-195.896 249.227,-186.32 239.711,-190.978 244.693,-195.896"/>
</g>
<!-- 3&#45;&gt;5 -->
<g id="edge13" class="edge"><title>3&#45;&gt;5</title>
<path fill="none" stroke="black" stroke-width="2" d="M142.749,-264.264C118.675,-249.244 76.145,-222.709 48.3204,-205.35"/>
<polygon fill="black" stroke="black" stroke-width="2" points="49.8327,-202.168 39.4959,-199.844 46.1274,-208.107 49.8327,-202.168"/>
</g>
<!-- 4&#45;&gt;0 -->
<g id="edge2" class="edge"><title>4&#45;&gt;0</title>
<path fill="none" stroke="black" stroke-width="2" d="M213.459,-41.1275C223.508,-66.8975 241.1,-112.008 252.694,-141.739"/>
<polygon fill="black" stroke="black" stroke-width="2" points="249.482,-143.137 256.376,-151.182 256.004,-140.594 249.482,-143.137"/>
</g>
<!-- 4&#45;&gt;1 -->
<g id="edge5" class="edge"><title>4&#45;&gt;1</title>
<path fill="none" stroke="black" stroke-width="2" d="M185.509,-28.5282C161.825,-36.9536 121.274,-50.8882 85.7749,-60.6598 79.5363,-62.3771 72.8091,-64.0194 66.3649,-65.4926"/>
<polygon fill="black" stroke="black" stroke-width="2" points="65.5912,-62.0791 56.5822,-67.6548 67.102,-68.9141 65.5912,-62.0791"/>
</g>
<!-- 5&#45;&gt;1 -->
<g id="edge6" class="edge"><title>5&#45;&gt;1</title>
<path fill="none" stroke="black" stroke-width="2" d="M23.7791,-167.333C25.9522,-149.459 29.0989,-123.578 31.5673,-103.275"/>
<polygon fill="black" stroke="black" stroke-width="2" points="35.0549,-103.589 32.7875,-93.2392 28.1061,-102.744 35.0549,-103.589"/>
</g>
<!-- 6&#45;&gt;2 -->
<g id="edge11" class="edge"><title>6&#45;&gt;2</title>
<path fill="none" stroke="black" stroke-width="2" d="M111.771,-164.247C106.647,-138.608 97.9321,-94.9973 92.028,-65.4526"/>
<polygon fill="black" stroke="black" stroke-width="2" points="95.4592,-64.7617 90.0673,-55.6415 88.5949,-66.1335 95.4592,-64.7617"/>
</g>
<!-- 6&#45;&gt;3 -->
<g id="edge14" class="edge"><title>6&#45;&gt;3</title>
<path fill="none" stroke="black" stroke-width="2" d="M125.52,-204.406C131.733,-216.876 139.944,-233.355 146.905,-247.324"/>
<polygon fill="black" stroke="black" stroke-width="2" points="143.891,-249.125 151.484,-256.515 150.157,-246.003 143.891,-249.125"/>
</g>
<!-- 7&#45;&gt;2 -->
<g id="edge12" class="edge"><title>7&#45;&gt;2</title>
<path fill="none" stroke="black" stroke-width="2" d="M144.172,-110.952C133.191,-96.5399 117.368,-75.7716 104.968,-59.4955"/>
<polygon fill="black" stroke="black" stroke-width="2" points="107.683,-57.2843 98.8386,-51.4511 102.115,-61.5266 107.683,-57.2843"/>
</g>
<!-- 7&#45;&gt;3 -->
<g id="edge15" class="edge"><title>7&#45;&gt;3</title>
<path fill="none" stroke="black" stroke-width="2" d="M157.825,-149.606C158.455,-174.405 159.498,-215.458 160.221,-243.948"/>
<polygon fill="black" stroke="black" stroke-width="2" points="156.729,-244.284 160.481,-254.192 163.726,-244.107 156.729,-244.284"/>
</g>
<!-- 7&#45;&gt;4 -->
<g id="edge16" class="edge"><title>7&#45;&gt;4</title>
<path fill="none" stroke="black" stroke-width="2" d="M166.16,-108.542C173.599,-92.1101 184.318,-68.432 192.718,-49.8755"/>
<polygon fill="black" stroke="black" stroke-width="2" points="195.934,-51.2575 196.87,-40.704 189.557,-48.3706 195.934,-51.2575"/>
</g>
<!-- 7&#45;&gt;5 -->
<g id="edge17" class="edge"><title>7&#45;&gt;5</title>
<path fill="none" stroke="black" stroke-width="2" d="M137.785,-136.794C114.849,-146.955 76.5552,-163.92 50.1523,-175.617"/>
<polygon fill="black" stroke="black" stroke-width="2" points="48.3974,-172.566 40.6721,-179.817 51.2328,-178.966 48.3974,-172.566"/>
</g>
</g>
</svg>

