<?xml version="1.0" encoding="UTF-8" standalone="no"?>
<!DOCTYPE svg PUBLIC "-//W3C//DTD SVG 1.1//EN"
 "http://www.w3.org/Graphics/SVG/1.1/DTD/svg11.dtd">
<!-- Generated by graphviz version 2.36.0 (20140111.2315)
 -->
<!-- Title: G Pages: 1 -->
<svg width="100%" height="100%"
 viewBox="0.00 0.00 245.99 242.49" xmlns="http://www.w3.org/2000/svg" xmlns:xlink="http://www.w3.org/1999/xlink">
<g id="graph0" class="graph" transform="scale(1 1) rotate(0) translate(4 238.49)">
<title>G</title>
<!-- 0 -->
<g id="node1" class="node"><title>0</title>
<ellipse fill="cadetblue" stroke="black" cx="146.032" cy="-21.2132" rx="21.4286" ry="21.4286"/>
<text text-anchor="middle" x="146.032" y="-16.2132" font-family="Times New Roman,serif" font-size="20.00">2</text>
</g>
<!-- 6 -->
<g id="node7" class="node"><title>6</title>
<ellipse fill="cadetblue" stroke="black" cx="122.573" cy="-131.547" rx="21.4286" ry="21.4286"/>
<text text-anchor="middle" x="122.573" y="-126.547" font-family="Times New Roman,serif" font-size="20.00">2</text>
</g>
<!-- 0&#45;&gt;6 -->
<g id="edge3" class="edge"><title>0&#45;&gt;6</title>
<path fill="none" stroke="black" stroke-width="2" d="M141.62,-41.9662C138.103,-58.5047 133.126,-81.9136 129.142,-100.654"/>
<polygon fill="black" stroke="black" stroke-width="2" points="125.702,-100.003 127.046,-110.512 132.549,-101.459 125.702,-100.003"/>
</g>
<!-- 7 -->
<g id="node8" class="node"><title>7</title>
<ellipse fill="brown" stroke="black" cx="78.9503" cy="-52.7142" rx="21.4286" ry="21.4286"/>
<text text-anchor="middle" x="78.9503" y="-47.7142" font-family="Times New Roman,serif" font-size="20.00">3</text>
</g>
<!-- 0&#45;&gt;7 -->
<g id="edge4" class="edge"><title>0&#45;&gt;7</title>
<path fill="none" stroke="black" stroke-width="2" d="M126.629,-30.3246C120.702,-33.1081 114.053,-36.2303 107.645,-39.2393"/>
<polygon fill="black" stroke="black" stroke-width="2" points="106.106,-36.0954 98.5419,-43.5142 109.081,-42.4316 106.106,-36.0954"/>
</g>
<!-- 1 -->
<g id="node2" class="node"><title>1</title>
<ellipse fill="cadetblue" stroke="black" cx="21.2132" cy="-177.743" rx="21.4286" ry="21.4286"/>
<text text-anchor="middle" x="21.2132" y="-172.743" font-family="Times New Roman,serif" font-size="20.00">2</text>
</g>
<!-- 1&#45;&gt;6 -->
<g id="edge7" class="edge"><title>1&#45;&gt;6</title>
<path fill="none" stroke="black" stroke-width="2" d="M40.7564,-168.836C55.7603,-161.998 76.7087,-152.45 93.652,-144.728"/>
<polygon fill="black" stroke="black" stroke-width="2" points="95.442,-147.759 103.09,-140.427 92.5389,-141.389 95.442,-147.759"/>
</g>
<!-- 1&#45;&gt;7 -->
<g id="edge8" class="edge"><title>1&#45;&gt;7</title>
<path fill="none" stroke="black" stroke-width="2" d="M32.4153,-159.396C38.8039,-148.617 46.7677,-134.625 53.0682,-121.777 57.0077,-113.743 57.5699,-111.532 60.8034,-103.189 63.381,-96.5388 66.0406,-89.3495 68.5025,-82.5391"/>
<polygon fill="black" stroke="black" stroke-width="2" points="71.8638,-83.5338 71.9353,-72.9392 65.2725,-81.1768 71.8638,-83.5338"/>
</g>
<!-- 2 -->
<g id="node3" class="node"><title>2</title>
<ellipse fill="cadetblue" stroke="black" cx="216.772" cy="-206.635" rx="21.4286" ry="21.4286"/>
<text text-anchor="middle" x="216.772" y="-201.635" font-family="Times New Roman,serif" font-size="20.00">2</text>
</g>
<!-- 5 -->
<g id="node6" class="node"><title>5</title>
<ellipse fill="cadetblue" stroke="black" cx="116.116" cy="-213.276" rx="21.4286" ry="21.4286"/>
<text text-anchor="middle" x="116.116" y="-208.276" font-family="Times New Roman,serif" font-size="20.00">2</text>
</g>
<!-- 2&#45;&gt;5 -->
<g id="edge10" class="edge"><title>2&#45;&gt;5</title>
<path fill="none" stroke="black" stroke-width="2" d="M195.426,-208.044C181.547,-208.959 163.207,-210.169 147.66,-211.195"/>
<polygon fill="black" stroke="black" stroke-width="2" points="147.18,-207.719 137.432,-211.87 147.641,-214.704 147.18,-207.719"/>
</g>
<!-- 3 -->
<g id="node4" class="node"><title>3</title>
<ellipse fill="cadetblue" stroke="black" cx="34.4991" cy="-103.146" rx="21.4286" ry="21.4286"/>
<text text-anchor="middle" x="34.4991" y="-98.1457" font-family="Times New Roman,serif" font-size="20.00">2</text>
</g>
<!-- 3&#45;&gt;0 -->
<g id="edge1" class="edge"><title>3&#45;&gt;0</title>
<path fill="none" stroke="black" stroke-width="2" d="M54.2205,-95.2382C67.1653,-89.5682 84.1205,-81.2027 97.5495,-71.3151 107.651,-63.8772 117.52,-54.25 125.689,-45.4252"/>
<polygon fill="black" stroke="black" stroke-width="2" points="128.321,-47.7329 132.393,-37.9519 123.11,-43.0586 128.321,-47.7329"/>
</g>
<!-- 3&#45;&gt;1 -->
<g id="edge5" class="edge"><title>3&#45;&gt;1</title>
<path fill="none" stroke="black" stroke-width="2" d="M30.7274,-124.323C29.4827,-131.311 28.0714,-139.235 26.7242,-146.8"/>
<polygon fill="black" stroke="black" stroke-width="2" points="23.256,-146.312 24.9483,-156.771 30.1476,-147.54 23.256,-146.312"/>
</g>
<!-- 3&#45;&gt;5 -->
<g id="edge12" class="edge"><title>3&#45;&gt;5</title>
<path fill="none" stroke="black" stroke-width="2" d="M47.2518,-120.354C60.7281,-138.538 82.1162,-167.398 97.4815,-188.131"/>
<polygon fill="black" stroke="black" stroke-width="2" points="94.6869,-190.239 103.453,-196.189 100.311,-186.071 94.6869,-190.239"/>
</g>
<!-- 4 -->
<g id="node5" class="node"><title>4</title>
<ellipse fill="cadetblue" stroke="black" cx="202.673" cy="-106.578" rx="21.4286" ry="21.4286"/>
<text text-anchor="middle" x="202.673" y="-101.578" font-family="Times New Roman,serif" font-size="20.00">2</text>
</g>
<!-- 4&#45;&gt;0 -->
<g id="edge2" class="edge"><title>4&#45;&gt;0</title>
<path fill="none" stroke="black" stroke-width="2" d="M190.937,-88.8902C183.016,-76.9522 172.422,-60.9863 163.514,-47.5601"/>
<polygon fill="black" stroke="black" stroke-width="2" points="166.393,-45.5693 157.948,-39.1718 160.56,-49.4395 166.393,-45.5693"/>
</g>
<!-- 4&#45;&gt;2 -->
<g id="edge9" class="edge"><title>4&#45;&gt;2</title>
<path fill="none" stroke="black" stroke-width="2" d="M205.663,-127.797C207.607,-141.594 210.176,-159.824 212.354,-175.279"/>
<polygon fill="black" stroke="black" stroke-width="2" points="208.925,-176.032 213.786,-185.446 215.857,-175.056 208.925,-176.032"/>
</g>
<!-- 5&#45;&gt;1 -->
<g id="edge6" class="edge"><title>5&#45;&gt;1</title>
<path fill="none" stroke="black" stroke-width="2" d="M95.9897,-205.741C82.9041,-200.841 65.6129,-194.367 50.9543,-188.878"/>
<polygon fill="black" stroke="black" stroke-width="2" points="51.903,-185.496 41.3107,-185.268 49.4485,-192.052 51.903,-185.496"/>
</g>
<!-- 5&#45;&gt;4 -->
<g id="edge15" class="edge"><title>5&#45;&gt;4</title>
<path fill="none" stroke="black" stroke-width="2" d="M129.641,-196.605C143.933,-178.987 166.615,-151.026 182.911,-130.939"/>
<polygon fill="black" stroke="black" stroke-width="2" points="185.662,-133.103 189.244,-123.132 180.225,-128.693 185.662,-133.103"/>
</g>
<!-- 6&#45;&gt;2 -->
<g id="edge11" class="edge"><title>6&#45;&gt;2</title>
<path fill="none" stroke="black" stroke-width="2" d="M139.414,-144.972C154.015,-156.61 175.344,-173.612 191.909,-186.817"/>
<polygon fill="black" stroke="black" stroke-width="2" points="190.076,-189.831 200.077,-193.327 194.439,-184.357 190.076,-189.831"/>
</g>
<!-- 6&#45;&gt;3 -->
<g id="edge13" class="edge"><title>6&#45;&gt;3</title>
<path fill="none" stroke="black" stroke-width="2" d="M102.146,-124.96C90.9186,-121.34 76.7845,-116.782 64.3429,-112.77"/>
<polygon fill="black" stroke="black" stroke-width="2" points="65.4073,-109.435 54.8157,-109.697 63.2588,-116.098 65.4073,-109.435"/>
</g>
<!-- 6&#45;&gt;7 -->
<g id="edge17" class="edge"><title>6&#45;&gt;7</title>
<path fill="none" stroke="black" stroke-width="2" d="M112.235,-112.865C106.896,-103.216 100.274,-91.2494 94.3463,-80.537"/>
<polygon fill="black" stroke="black" stroke-width="2" points="97.2695,-78.5908 89.3653,-71.5357 91.1447,-81.98 97.2695,-78.5908"/>
</g>
<!-- 7&#45;&gt;3 -->
<g id="edge14" class="edge"><title>7&#45;&gt;3</title>
<path fill="none" stroke="black" stroke-width="2" d="M64.8857,-68.671C61.8859,-72.0744 58.6558,-75.739 55.4607,-79.364"/>
<polygon fill="black" stroke="black" stroke-width="2" points="52.6115,-77.3034 48.6248,-87.1196 57.8628,-81.932 52.6115,-77.3034"/>
</g>
<!-- 7&#45;&gt;4 -->
<g id="edge16" class="edge"><title>7&#45;&gt;4</title>
<path fill="none" stroke="black" stroke-width="2" d="M98.5546,-61.2491C118.826,-70.0742 150.692,-83.9476 173.835,-94.0231"/>
<polygon fill="black" stroke="black" stroke-width="2" points="172.595,-97.3002 183.161,-98.0829 175.389,-90.882 172.595,-97.3002"/>
</g>
</g>
</svg>

