<?xml version="1.0" encoding="UTF-8" standalone="no"?>
<!DOCTYPE svg PUBLIC "-//W3C//DTD SVG 1.1//EN"
 "http://www.w3.org/Graphics/SVG/1.1/DTD/svg11.dtd">
<!-- Generated by graphviz version 2.36.0 (20140111.2315)
 -->
<!-- Title: G Pages: 1 -->
<svg width="100%" height="100%"
 viewBox="0.00 0.00 316.94 321.37" xmlns="http://www.w3.org/2000/svg" xmlns:xlink="http://www.w3.org/1999/xlink">
<g id="graph0" class="graph" transform="scale(1 1) rotate(0) translate(4 317.37)">
<title>G</title>
<!-- 0 -->
<g id="node1" class="node"><title>0</title>
<ellipse fill="cadetblue" stroke="black" cx="149.319" cy="-292.157" rx="21.4286" ry="21.4286"/>
<text text-anchor="middle" x="149.319" y="-287.157" font-family="Times New Roman,serif" font-size="20.00">2</text>
</g>
<!-- 5 -->
<g id="node6" class="node"><title>5</title>
<ellipse fill="cadetblue" stroke="black" cx="80.1877" cy="-143.891" rx="21.4286" ry="21.4286"/>
<text text-anchor="middle" x="80.1877" y="-138.891" font-family="Times New Roman,serif" font-size="20.00">2</text>
</g>
<!-- 0&#45;&gt;5 -->
<g id="edge3" class="edge"><title>0&#45;&gt;5</title>
<path fill="none" stroke="black" stroke-width="2" d="M140.281,-272.773C128.378,-247.244 107.349,-202.143 93.5908,-172.637"/>
<polygon fill="black" stroke="black" stroke-width="2" points="96.6256,-170.863 89.2276,-163.279 90.2813,-173.821 96.6256,-170.863"/>
</g>
<!-- 6 -->
<g id="node7" class="node"><title>6</title>
<ellipse fill="cadetblue" stroke="black" cx="130.619" cy="-166.318" rx="21.4286" ry="21.4286"/>
<text text-anchor="middle" x="130.619" y="-161.318" font-family="Times New Roman,serif" font-size="20.00">2</text>
</g>
<!-- 0&#45;&gt;6 -->
<g id="edge4" class="edge"><title>0&#45;&gt;6</title>
<path fill="none" stroke="black" stroke-width="2" d="M146.189,-271.094C143.195,-250.95 138.645,-220.33 135.236,-197.386"/>
<polygon fill="black" stroke="black" stroke-width="2" points="138.691,-196.826 133.759,-187.449 131.767,-197.855 138.691,-196.826"/>
</g>
<!-- 1 -->
<g id="node2" class="node"><title>1</title>
<ellipse fill="cadetblue" stroke="black" cx="260.37" cy="-122.103" rx="21.4286" ry="21.4286"/>
<text text-anchor="middle" x="260.37" y="-117.103" font-family="Times New Roman,serif" font-size="20.00">2</text>
</g>
<!-- 4 -->
<g id="node5" class="node"><title>4</title>
<ellipse fill="cadetblue" stroke="black" cx="287.727" cy="-224.32" rx="21.4286" ry="21.4286"/>
<text text-anchor="middle" x="287.727" y="-219.32" font-family="Times New Roman,serif" font-size="20.00">2</text>
</g>
<!-- 1&#45;&gt;4 -->
<g id="edge5" class="edge"><title>1&#45;&gt;4</title>
<path fill="none" stroke="black" stroke-width="2" d="M265.906,-142.788C269.836,-157.474 275.177,-177.43 279.591,-193.922"/>
<polygon fill="black" stroke="black" stroke-width="2" points="276.233,-194.91 282.199,-203.665 282.995,-193.1 276.233,-194.91"/>
</g>
<!-- 7 -->
<g id="node8" class="node"><title>7</title>
<ellipse fill="cadetblue" stroke="black" cx="194.674" cy="-58.3922" rx="21.4286" ry="21.4286"/>
<text text-anchor="middle" x="194.674" y="-53.3922" font-family="Times New Roman,serif" font-size="20.00">2</text>
</g>
<!-- 1&#45;&gt;7 -->
<g id="edge8" class="edge"><title>1&#45;&gt;7</title>
<path fill="none" stroke="black" stroke-width="2" d="M245.133,-107.327C236.96,-99.4003 226.721,-89.4711 217.607,-80.6319"/>
<polygon fill="black" stroke="black" stroke-width="2" points="219.9,-77.9806 210.285,-73.5312 215.027,-83.0056 219.9,-77.9806"/>
</g>
<!-- 2 -->
<g id="node3" class="node"><title>2</title>
<ellipse fill="cadetblue" stroke="black" cx="65.8146" cy="-21.2132" rx="21.4286" ry="21.4286"/>
<text text-anchor="middle" x="65.8146" y="-16.2132" font-family="Times New Roman,serif" font-size="20.00">2</text>
</g>
<!-- 2&#45;&gt;7 -->
<g id="edge11" class="edge"><title>2&#45;&gt;7</title>
<path fill="none" stroke="black" stroke-width="2" d="M86.2329,-27.1043C107.221,-33.16 140.145,-42.6593 164.213,-49.6034"/>
<polygon fill="black" stroke="black" stroke-width="2" points="163.347,-52.9962 173.925,-52.4055 165.287,-46.2705 163.347,-52.9962"/>
</g>
<!-- 3 -->
<g id="node4" class="node"><title>3</title>
<ellipse fill="cadetblue" stroke="black" cx="21.2132" cy="-265.571" rx="21.4286" ry="21.4286"/>
<text text-anchor="middle" x="21.2132" y="-260.571" font-family="Times New Roman,serif" font-size="20.00">2</text>
</g>
<!-- 3&#45;&gt;0 -->
<g id="edge1" class="edge"><title>3&#45;&gt;0</title>
<path fill="none" stroke="black" stroke-width="2" d="M42.0807,-269.901C62.8318,-274.208 94.9022,-280.863 118.569,-285.775"/>
<polygon fill="black" stroke="black" stroke-width="2" points="117.957,-289.223 128.46,-287.828 119.38,-282.369 117.957,-289.223"/>
</g>
<!-- 4&#45;&gt;0 -->
<g id="edge2" class="edge"><title>4&#45;&gt;0</title>
<path fill="none" stroke="black" stroke-width="2" d="M268.482,-233.752C244.827,-245.346 204.499,-265.111 177.389,-278.399"/>
<polygon fill="black" stroke="black" stroke-width="2" points="175.839,-275.26 168.4,-282.804 178.92,-281.546 175.839,-275.26"/>
</g>
<!-- 5&#45;&gt;1 -->
<g id="edge6" class="edge"><title>5&#45;&gt;1</title>
<path fill="none" stroke="black" stroke-width="2" d="M101.565,-141.306C133.211,-137.479 192.71,-130.285 229.211,-125.871"/>
<polygon fill="black" stroke="black" stroke-width="2" points="229.792,-129.326 239.299,-124.651 228.952,-122.377 229.792,-129.326"/>
</g>
<!-- 5&#45;&gt;2 -->
<g id="edge9" class="edge"><title>5&#45;&gt;2</title>
<path fill="none" stroke="black" stroke-width="2" d="M77.7169,-122.802C75.4545,-103.492 72.0757,-74.6527 69.4954,-52.6297"/>
<polygon fill="black" stroke="black" stroke-width="2" points="72.9413,-51.9624 68.3013,-42.4376 65.9888,-52.777 72.9413,-51.9624"/>
</g>
<!-- 5&#45;&gt;3 -->
<g id="edge12" class="edge"><title>5&#45;&gt;3</title>
<path fill="none" stroke="black" stroke-width="2" d="M70.843,-163.171C61.1805,-183.108 45.9907,-214.448 34.9591,-237.209"/>
<polygon fill="black" stroke="black" stroke-width="2" points="31.7261,-235.855 30.5142,-246.38 38.0252,-238.908 31.7261,-235.855"/>
</g>
<!-- 6&#45;&gt;1 -->
<g id="edge7" class="edge"><title>6&#45;&gt;1</title>
<path fill="none" stroke="black" stroke-width="2" d="M150.893,-159.409C172.317,-152.109 206.318,-140.522 230.745,-132.198"/>
<polygon fill="black" stroke="black" stroke-width="2" points="231.902,-135.502 240.238,-128.963 229.644,-128.876 231.902,-135.502"/>
</g>
<!-- 6&#45;&gt;2 -->
<g id="edge10" class="edge"><title>6&#45;&gt;2</title>
<path fill="none" stroke="black" stroke-width="2" d="M121.879,-146.748C110.815,-121.975 91.6584,-79.0803 78.8608,-50.4249"/>
<polygon fill="black" stroke="black" stroke-width="2" points="81.8967,-48.6395 74.623,-40.936 75.5051,-51.4941 81.8967,-48.6395"/>
</g>
<!-- 6&#45;&gt;3 -->
<g id="edge13" class="edge"><title>6&#45;&gt;3</title>
<path fill="none" stroke="black" stroke-width="2" d="M114.476,-180.963C96.0287,-197.698 65.6783,-225.232 44.633,-244.324"/>
<polygon fill="black" stroke="black" stroke-width="2" points="42.1217,-241.877 37.067,-251.188 46.825,-247.061 42.1217,-241.877"/>
</g>
<!-- 7&#45;&gt;4 -->
<g id="edge14" class="edge"><title>7&#45;&gt;4</title>
<path fill="none" stroke="black" stroke-width="2" d="M205.168,-77.1037C221.547,-106.31 253.277,-162.89 272.275,-196.766"/>
<polygon fill="black" stroke="black" stroke-width="2" points="269.328,-198.666 277.272,-205.677 275.433,-195.242 269.328,-198.666"/>
</g>
<!-- 7&#45;&gt;5 -->
<g id="edge15" class="edge"><title>7&#45;&gt;5</title>
<path fill="none" stroke="black" stroke-width="2" d="M177.286,-71.3776C158.179,-85.6468 127.311,-108.699 105.516,-124.976"/>
<polygon fill="black" stroke="black" stroke-width="2" points="103.282,-122.276 97.3643,-131.063 107.471,-127.884 103.282,-122.276"/>
</g>
<!-- 7&#45;&gt;6 -->
<g id="edge16" class="edge"><title>7&#45;&gt;6</title>
<path fill="none" stroke="black" stroke-width="2" d="M183.808,-76.7003C173.64,-93.8331 158.32,-119.645 146.729,-139.174"/>
<polygon fill="black" stroke="black" stroke-width="2" points="143.633,-137.534 141.539,-147.92 149.652,-141.107 143.633,-137.534"/>
</g>
</g>
</svg>

