<?xml version="1.0" encoding="UTF-8" standalone="no"?>
<!DOCTYPE svg PUBLIC "-//W3C//DTD SVG 1.1//EN"
 "http://www.w3.org/Graphics/SVG/1.1/DTD/svg11.dtd">
<!-- Generated by graphviz version 2.36.0 (20140111.2315)
 -->
<!-- Title: G Pages: 1 -->
<svg width="100%" height="100%"
 viewBox="0.00 0.00 320.11 304.49" xmlns="http://www.w3.org/2000/svg" xmlns:xlink="http://www.w3.org/1999/xlink">
<g id="graph0" class="graph" transform="scale(1 1) rotate(0) translate(4 300.492)">
<title>G</title>
<!-- 0 -->
<g id="node1" class="node"><title>0</title>
<ellipse fill="cadetblue" stroke="black" cx="219.298" cy="-272.387" rx="21.4286" ry="21.4286"/>
<text text-anchor="middle" x="219.298" y="-267.387" font-family="Times New Roman,serif" font-size="20.00">2</text>
</g>
<!-- 6 -->
<g id="node7" class="node"><title>6</title>
<ellipse fill="cadetblue" stroke="black" cx="181.762" cy="-177.752" rx="21.4286" ry="21.4286"/>
<text text-anchor="middle" x="181.762" y="-172.752" font-family="Times New Roman,serif" font-size="20.00">2</text>
</g>
<!-- 0&#45;&gt;6 -->
<g id="edge3" class="edge"><title>0&#45;&gt;6</title>
<path fill="none" stroke="black" stroke-width="2" d="M211.337,-252.317C206.162,-239.268 199.323,-222.026 193.525,-207.409"/>
<polygon fill="black" stroke="black" stroke-width="2" points="196.651,-205.798 189.711,-197.793 190.144,-208.379 196.651,-205.798"/>
</g>
<!-- 7 -->
<g id="node8" class="node"><title>7</title>
<ellipse fill="brown" stroke="black" cx="131.33" cy="-139.337" rx="21.4286" ry="21.4286"/>
<text text-anchor="middle" x="131.33" y="-134.337" font-family="Times New Roman,serif" font-size="20.00">3</text>
</g>
<!-- 0&#45;&gt;7 -->
<g id="edge4" class="edge"><title>0&#45;&gt;7</title>
<path fill="none" stroke="black" stroke-width="2" d="M205.948,-255.609C194.147,-240.482 176.745,-217.438 163.14,-196.33 157.2,-187.115 151.207,-176.725 146.049,-167.364"/>
<polygon fill="black" stroke="black" stroke-width="2" points="149.046,-165.549 141.202,-158.428 142.893,-168.887 149.046,-165.549"/>
</g>
<!-- 1 -->
<g id="node2" class="node"><title>1</title>
<ellipse fill="cadetblue" stroke="black" cx="21.2132" cy="-174.782" rx="21.4286" ry="21.4286"/>
<text text-anchor="middle" x="21.2132" y="-169.782" font-family="Times New Roman,serif" font-size="20.00">2</text>
</g>
<!-- 1&#45;&gt;6 -->
<g id="edge7" class="edge"><title>1&#45;&gt;6</title>
<path fill="none" stroke="black" stroke-width="2" d="M42.5328,-175.176C70.1213,-175.686 118.415,-176.58 150.245,-177.169"/>
<polygon fill="black" stroke="black" stroke-width="2" points="150.291,-180.67 160.354,-177.356 150.421,-173.671 150.291,-180.67"/>
</g>
<!-- 1&#45;&gt;7 -->
<g id="edge8" class="edge"><title>1&#45;&gt;7</title>
<path fill="none" stroke="black" stroke-width="2" d="M41.4104,-168.28C58.147,-162.893 82.1844,-155.156 101.196,-149.036"/>
<polygon fill="black" stroke="black" stroke-width="2" points="102.442,-152.312 110.888,-145.917 100.297,-145.649 102.442,-152.312"/>
</g>
<!-- 2 -->
<g id="node3" class="node"><title>2</title>
<ellipse fill="cadetblue" stroke="black" cx="167.299" cy="-21.2132" rx="21.4286" ry="21.4286"/>
<text text-anchor="middle" x="167.299" y="-16.2132" font-family="Times New Roman,serif" font-size="20.00">2</text>
</g>
<!-- 5 -->
<g id="node6" class="node"><title>5</title>
<ellipse fill="cadetblue" stroke="black" cx="38.8566" cy="-42.2601" rx="21.4286" ry="21.4286"/>
<text text-anchor="middle" x="38.8566" y="-37.2601" font-family="Times New Roman,serif" font-size="20.00">2</text>
</g>
<!-- 2&#45;&gt;5 -->
<g id="edge9" class="edge"><title>2&#45;&gt;5</title>
<path fill="none" stroke="black" stroke-width="2" d="M146.089,-24.6887C125.359,-28.0856 93.562,-33.2959 69.97,-37.1618"/>
<polygon fill="black" stroke="black" stroke-width="2" points="69.4002,-33.7084 60.0978,-38.7794 70.5322,-40.6162 69.4002,-33.7084"/>
</g>
<!-- 3 -->
<g id="node4" class="node"><title>3</title>
<ellipse fill="cadetblue" stroke="black" cx="290.895" cy="-164.634" rx="21.4286" ry="21.4286"/>
<text text-anchor="middle" x="290.895" y="-159.634" font-family="Times New Roman,serif" font-size="20.00">2</text>
</g>
<!-- 3&#45;&gt;0 -->
<g id="edge1" class="edge"><title>3&#45;&gt;0</title>
<path fill="none" stroke="black" stroke-width="2" d="M279.072,-182.428C267.568,-199.741 249.951,-226.254 236.818,-246.019"/>
<polygon fill="black" stroke="black" stroke-width="2" points="233.757,-244.301 231.138,-254.567 239.588,-248.175 233.757,-244.301"/>
</g>
<!-- 4 -->
<g id="node5" class="node"><title>4</title>
<ellipse fill="cadetblue" stroke="black" cx="92.6405" cy="-275.279" rx="21.4286" ry="21.4286"/>
<text text-anchor="middle" x="92.6405" y="-270.279" font-family="Times New Roman,serif" font-size="20.00">2</text>
</g>
<!-- 4&#45;&gt;0 -->
<g id="edge2" class="edge"><title>4&#45;&gt;0</title>
<path fill="none" stroke="black" stroke-width="2" d="M114.126,-274.788C134.233,-274.329 164.525,-273.637 187.443,-273.114"/>
<polygon fill="black" stroke="black" stroke-width="2" points="187.789,-276.607 197.707,-272.88 187.629,-269.609 187.789,-276.607"/>
</g>
<!-- 4&#45;&gt;1 -->
<g id="edge5" class="edge"><title>4&#45;&gt;1</title>
<path fill="none" stroke="black" stroke-width="2" d="M80.1988,-257.774C68.9324,-241.922 52.1931,-218.37 39.4218,-200.401"/>
<polygon fill="black" stroke="black" stroke-width="2" points="42.1584,-198.21 33.5123,-192.086 36.4527,-202.265 42.1584,-198.21"/>
</g>
<!-- 5&#45;&gt;1 -->
<g id="edge6" class="edge"><title>5&#45;&gt;1</title>
<path fill="none" stroke="black" stroke-width="2" d="M36.0219,-63.5519C33.141,-85.1906 28.6472,-118.944 25.3651,-143.596"/>
<polygon fill="black" stroke="black" stroke-width="2" points="21.8913,-143.168 24.0409,-153.542 28.8301,-144.092 21.8913,-143.168"/>
</g>
<!-- 6&#45;&gt;2 -->
<g id="edge10" class="edge"><title>6&#45;&gt;2</title>
<path fill="none" stroke="black" stroke-width="2" d="M179.781,-156.314C177.304,-129.499 173.042,-83.3744 170.198,-52.586"/>
<polygon fill="black" stroke="black" stroke-width="2" points="173.661,-52.0277 169.256,-42.3921 166.691,-52.6717 173.661,-52.0277"/>
</g>
<!-- 6&#45;&gt;3 -->
<g id="edge12" class="edge"><title>6&#45;&gt;3</title>
<path fill="none" stroke="black" stroke-width="2" d="M203.063,-175.192C219.138,-173.26 241.44,-170.579 259.549,-168.402"/>
<polygon fill="black" stroke="black" stroke-width="2" points="260.137,-171.857 269.648,-167.188 259.301,-164.907 260.137,-171.857"/>
</g>
<!-- 6&#45;&gt;4 -->
<g id="edge14" class="edge"><title>6&#45;&gt;4</title>
<path fill="none" stroke="black" stroke-width="2" d="M167.443,-193.421C153.106,-209.111 130.861,-233.453 114.352,-251.519"/>
<polygon fill="black" stroke="black" stroke-width="2" points="111.382,-249.581 107.22,-259.324 116.549,-254.303 111.382,-249.581"/>
</g>
<!-- 6&#45;&gt;7 -->
<g id="edge17" class="edge"><title>6&#45;&gt;7</title>
<path fill="none" stroke="black" stroke-width="2" d="M164.688,-164.746C162.059,-162.744 159.298,-160.641 156.537,-158.537"/>
<polygon fill="black" stroke="black" stroke-width="2" points="158.462,-155.604 148.387,-152.329 154.221,-161.173 158.462,-155.604"/>
</g>
<!-- 7&#45;&gt;2 -->
<g id="edge11" class="edge"><title>7&#45;&gt;2</title>
<path fill="none" stroke="black" stroke-width="2" d="M137.514,-119.031C143.175,-100.437 151.631,-72.6689 158.088,-51.4635"/>
<polygon fill="black" stroke="black" stroke-width="2" points="161.511,-52.2356 161.076,-41.6497 154.815,-50.1965 161.511,-52.2356"/>
</g>
<!-- 7&#45;&gt;3 -->
<g id="edge13" class="edge"><title>7&#45;&gt;3</title>
<path fill="none" stroke="black" stroke-width="2" d="M152.519,-142.696C180.015,-147.055 228.203,-154.695 259.834,-159.71"/>
<polygon fill="black" stroke="black" stroke-width="2" points="259.448,-163.192 269.872,-161.302 260.544,-156.279 259.448,-163.192"/>
</g>
<!-- 7&#45;&gt;4 -->
<g id="edge15" class="edge"><title>7&#45;&gt;4</title>
<path fill="none" stroke="black" stroke-width="2" d="M125.454,-159.983C119.034,-182.54 108.686,-218.901 101.328,-244.755"/>
<polygon fill="black" stroke="black" stroke-width="2" points="97.9431,-243.862 98.572,-254.438 104.676,-245.778 97.9431,-243.862"/>
</g>
<!-- 7&#45;&gt;5 -->
<g id="edge16" class="edge"><title>7&#45;&gt;5</title>
<path fill="none" stroke="black" stroke-width="2" d="M116.473,-123.74C101.373,-107.889 77.8202,-83.163 60.6177,-65.1043"/>
<polygon fill="black" stroke="black" stroke-width="2" points="63.1089,-62.645 53.6773,-57.8184 58.0404,-67.4731 63.1089,-62.645"/>
</g>
</g>
</svg>

