<?xml version="1.0" encoding="UTF-8" standalone="no"?>
<!DOCTYPE svg PUBLIC "-//W3C//DTD SVG 1.1//EN"
 "http://www.w3.org/Graphics/SVG/1.1/DTD/svg11.dtd">
<!-- Generated by graphviz version 2.36.0 (20140111.2315)
 -->
<!-- Title: G Pages: 1 -->
<svg width="100%" height="100%"
 viewBox="0.00 0.00 227.94 255.63" xmlns="http://www.w3.org/2000/svg" xmlns:xlink="http://www.w3.org/1999/xlink">
<g id="graph0" class="graph" transform="scale(1 1) rotate(0) translate(4 251.632)">
<title>G</title>
<!-- 0 -->
<g id="node1" class="node"><title>0</title>
<ellipse fill="cadetblue" stroke="black" cx="128.826" cy="-147.711" rx="21.4286" ry="21.4286"/>
<text text-anchor="middle" x="128.826" y="-142.711" font-family="Times New Roman,serif" font-size="20.00">2</text>
</g>
<!-- 5 -->
<g id="node6" class="node"><title>5</title>
<ellipse fill="cadetblue" stroke="black" cx="21.2132" cy="-143.792" rx="21.4286" ry="21.4286"/>
<text text-anchor="middle" x="21.2132" y="-138.792" font-family="Times New Roman,serif" font-size="20.00">2</text>
</g>
<!-- 0&#45;&gt;5 -->
<g id="edge3" class="edge"><title>0&#45;&gt;5</title>
<path fill="none" stroke="black" stroke-width="2" d="M107.565,-146.937C91.9418,-146.368 70.4544,-145.585 52.8228,-144.943"/>
<polygon fill="black" stroke="black" stroke-width="2" points="52.5507,-141.431 42.4299,-144.565 52.2958,-148.426 52.5507,-141.431"/>
</g>
<!-- 6 -->
<g id="node7" class="node"><title>6</title>
<ellipse fill="cadetblue" stroke="black" cx="179.257" cy="-98.0964" rx="21.4286" ry="21.4286"/>
<text text-anchor="middle" x="179.257" y="-93.0964" font-family="Times New Roman,serif" font-size="20.00">2</text>
</g>
<!-- 0&#45;&gt;6 -->
<g id="edge4" class="edge"><title>0&#45;&gt;6</title>
<path fill="none" stroke="black" stroke-width="2" d="M143.957,-132.825C147.874,-128.972 152.179,-124.736 156.396,-120.587"/>
<polygon fill="black" stroke="black" stroke-width="2" points="159.114,-122.824 163.788,-113.315 154.205,-117.834 159.114,-122.824"/>
</g>
<!-- 7 -->
<g id="node8" class="node"><title>7</title>
<ellipse fill="cadetblue" stroke="black" cx="61.1264" cy="-91.2687" rx="21.4286" ry="21.4286"/>
<text text-anchor="middle" x="61.1264" y="-86.2687" font-family="Times New Roman,serif" font-size="20.00">2</text>
</g>
<!-- 0&#45;&gt;7 -->
<g id="edge5" class="edge"><title>0&#45;&gt;7</title>
<path fill="none" stroke="black" stroke-width="2" d="M112.438,-134.048C104.408,-127.354 94.5737,-119.154 85.6703,-111.731"/>
<polygon fill="black" stroke="black" stroke-width="2" points="87.7561,-108.914 77.834,-105.198 83.2735,-114.29 87.7561,-108.914"/>
</g>
<!-- 1 -->
<g id="node2" class="node"><title>1</title>
<ellipse fill="cadetblue" stroke="black" cx="49.3525" cy="-226.419" rx="21.4286" ry="21.4286"/>
<text text-anchor="middle" x="49.3525" y="-221.419" font-family="Times New Roman,serif" font-size="20.00">2</text>
</g>
<!-- 4 -->
<g id="node5" class="node"><title>4</title>
<ellipse fill="cadetblue" stroke="black" cx="198.73" cy="-209.302" rx="21.4286" ry="21.4286"/>
<text text-anchor="middle" x="198.73" y="-204.302" font-family="Times New Roman,serif" font-size="20.00">2</text>
</g>
<!-- 1&#45;&gt;4 -->
<g id="edge6" class="edge"><title>1&#45;&gt;4</title>
<path fill="none" stroke="black" stroke-width="2" d="M68.0278,-215.846C82.5129,-208.455 103.374,-199.535 123.062,-197.37 138.021,-195.726 154.539,-197.866 168.316,-200.767"/>
<polygon fill="black" stroke="black" stroke-width="2" points="167.712,-204.22 178.246,-203.083 169.302,-197.403 167.712,-204.22"/>
</g>
<!-- 2 -->
<g id="node3" class="node"><title>2</title>
<ellipse fill="cadetblue" stroke="black" cx="89.7877" cy="-21.2132" rx="21.4286" ry="21.4286"/>
<text text-anchor="middle" x="89.7877" y="-16.2132" font-family="Times New Roman,serif" font-size="20.00">2</text>
</g>
<!-- 2&#45;&gt;7 -->
<g id="edge11" class="edge"><title>2&#45;&gt;7</title>
<path fill="none" stroke="black" stroke-width="2" d="M81.6512,-41.1009C78.966,-47.6643 75.9215,-55.1058 73.0151,-62.2098"/>
<polygon fill="black" stroke="black" stroke-width="2" points="69.7313,-60.993 69.1841,-71.5737 76.2101,-63.6437 69.7313,-60.993"/>
</g>
<!-- 3 -->
<g id="node4" class="node"><title>3</title>
<ellipse fill="cadetblue" stroke="black" cx="123.019" cy="-223.675" rx="21.4286" ry="21.4286"/>
<text text-anchor="middle" x="123.019" y="-218.675" font-family="Times New Roman,serif" font-size="20.00">2</text>
</g>
<!-- 3&#45;&gt;0 -->
<g id="edge1" class="edge"><title>3&#45;&gt;0</title>
<path fill="none" stroke="black" stroke-width="2" d="M124.636,-202.515C125.192,-195.25 125.826,-186.956 126.43,-179.057"/>
<polygon fill="black" stroke="black" stroke-width="2" points="129.924,-179.259 127.197,-169.021 122.945,-178.725 129.924,-179.259"/>
</g>
<!-- 4&#45;&gt;0 -->
<g id="edge2" class="edge"><title>4&#45;&gt;0</title>
<path fill="none" stroke="black" stroke-width="2" d="M182.517,-195.017C173.606,-187.166 162.388,-177.282 152.513,-168.581"/>
<polygon fill="black" stroke="black" stroke-width="2" points="154.768,-165.903 144.951,-161.919 150.141,-171.156 154.768,-165.903"/>
</g>
<!-- 5&#45;&gt;1 -->
<g id="edge7" class="edge"><title>5&#45;&gt;1</title>
<path fill="none" stroke="black" stroke-width="2" d="M28.169,-164.216C31.5084,-174.022 35.5735,-185.959 39.2462,-196.743"/>
<polygon fill="black" stroke="black" stroke-width="2" points="35.9398,-197.891 42.4767,-206.229 42.566,-195.635 35.9398,-197.891"/>
</g>
<!-- 5&#45;&gt;2 -->
<g id="edge9" class="edge"><title>5&#45;&gt;2</title>
<path fill="none" stroke="black" stroke-width="2" d="M24.3976,-122.588C27.3571,-107.727 32.8216,-87.8823 42.5273,-72.6678 49.2881,-62.0697 58.3207,-51.6194 66.6776,-42.9342"/>
<polygon fill="black" stroke="black" stroke-width="2" points="69.2051,-45.3562 73.7735,-35.7968 64.241,-40.4209 69.2051,-45.3562"/>
</g>
<!-- 5&#45;&gt;3 -->
<g id="edge12" class="edge"><title>5&#45;&gt;3</title>
<path fill="none" stroke="black" stroke-width="2" d="M38.0243,-156.983C54.382,-169.818 79.4325,-189.474 98.1058,-204.126"/>
<polygon fill="black" stroke="black" stroke-width="2" points="96.1548,-207.044 106.183,-210.464 100.476,-201.537 96.1548,-207.044"/>
</g>
<!-- 6&#45;&gt;2 -->
<g id="edge10" class="edge"><title>6&#45;&gt;2</title>
<path fill="none" stroke="black" stroke-width="2" d="M162.847,-83.9949C149.1,-72.1818 129.291,-55.1593 113.767,-41.8189"/>
<polygon fill="black" stroke="black" stroke-width="2" points="115.959,-39.0883 106.094,-35.2254 111.397,-44.3974 115.959,-39.0883"/>
</g>
<!-- 6&#45;&gt;3 -->
<g id="edge13" class="edge"><title>6&#45;&gt;3</title>
<path fill="none" stroke="black" stroke-width="2" d="M170.47,-117.718C161.184,-138.453 146.447,-171.361 135.859,-195.003"/>
<polygon fill="black" stroke="black" stroke-width="2" points="132.637,-193.634 131.744,-204.191 139.026,-196.495 132.637,-193.634"/>
</g>
<!-- 6&#45;&gt;4 -->
<g id="edge14" class="edge"><title>6&#45;&gt;4</title>
<path fill="none" stroke="black" stroke-width="2" d="M182.92,-119.013C185.839,-135.682 189.97,-159.276 193.278,-178.165"/>
<polygon fill="black" stroke="black" stroke-width="2" points="189.845,-178.854 195.018,-188.101 196.74,-177.647 189.845,-178.854"/>
</g>
<!-- 7&#45;&gt;1 -->
<g id="edge8" class="edge"><title>7&#45;&gt;1</title>
<path fill="none" stroke="black" stroke-width="2" d="M59.2608,-112.684C57.3318,-134.827 54.2992,-169.637 52.0968,-194.918"/>
<polygon fill="black" stroke="black" stroke-width="2" points="48.5906,-194.838 51.2094,-205.104 55.5642,-195.446 48.5906,-194.838"/>
</g>
<!-- 7&#45;&gt;5 -->
<g id="edge15" class="edge"><title>7&#45;&gt;5</title>
<path fill="none" stroke="black" stroke-width="2" d="M48.2779,-108.176C45.7655,-111.483 43.0801,-115.016 40.4128,-118.526"/>
<polygon fill="black" stroke="black" stroke-width="2" points="37.5754,-116.476 34.3117,-126.555 43.1488,-120.711 37.5754,-116.476"/>
</g>
<!-- 7&#45;&gt;6 -->
<g id="edge16" class="edge"><title>7&#45;&gt;6</title>
<path fill="none" stroke="black" stroke-width="2" d="M82.5191,-92.5051C100.75,-93.5589 127.2,-95.0876 147.837,-96.2804"/>
<polygon fill="black" stroke="black" stroke-width="2" points="147.839,-99.7862 158.024,-96.8692 148.243,-92.7979 147.839,-99.7862"/>
</g>
</g>
</svg>

