<?xml version="1.0" encoding="UTF-8" standalone="no"?>
<!DOCTYPE svg PUBLIC "-//W3C//DTD SVG 1.1//EN"
 "http://www.w3.org/Graphics/SVG/1.1/DTD/svg11.dtd">
<!-- Generated by graphviz version 2.36.0 (20140111.2315)
 -->
<!-- Title: G Pages: 1 -->
<svg width="100%" height="100%"
 viewBox="0.00 0.00 230.74 238.08" xmlns="http://www.w3.org/2000/svg" xmlns:xlink="http://www.w3.org/1999/xlink">
<g id="graph0" class="graph" transform="scale(1 1) rotate(0) translate(4 234.075)">
<title>G</title>
<!-- 0 -->
<g id="node1" class="node"><title>0</title>
<ellipse fill="cadetblue" stroke="black" cx="198.385" cy="-149.422" rx="21.4286" ry="21.4286"/>
<text text-anchor="middle" x="198.385" y="-144.422" font-family="Times New Roman,serif" font-size="20.00">2</text>
</g>
<!-- 6 -->
<g id="node7" class="node"><title>6</title>
<ellipse fill="cadetblue" stroke="black" cx="117.985" cy="-145.647" rx="21.4286" ry="21.4286"/>
<text text-anchor="middle" x="117.985" y="-140.647" font-family="Times New Roman,serif" font-size="20.00">2</text>
</g>
<!-- 0&#45;&gt;6 -->
<g id="edge3" class="edge"><title>0&#45;&gt;6</title>
<path fill="none" stroke="black" stroke-width="2" d="M176.839,-148.41C168.39,-148.014 158.529,-147.551 149.321,-147.118"/>
<polygon fill="black" stroke="black" stroke-width="2" points="149.465,-143.621 139.312,-146.649 149.136,-150.614 149.465,-143.621"/>
</g>
<!-- 7 -->
<g id="node8" class="node"><title>7</title>
<ellipse fill="brown" stroke="black" cx="110.067" cy="-95.2159" rx="21.4286" ry="21.4286"/>
<text text-anchor="middle" x="110.067" y="-90.2159" font-family="Times New Roman,serif" font-size="20.00">3</text>
</g>
<!-- 0&#45;&gt;7 -->
<g id="edge4" class="edge"><title>0&#45;&gt;7</title>
<path fill="none" stroke="black" stroke-width="2" d="M180.085,-138.19C167.651,-130.559 150.994,-120.335 137.046,-111.775"/>
<polygon fill="black" stroke="black" stroke-width="2" points="138.697,-108.681 128.343,-106.433 135.035,-114.647 138.697,-108.681"/>
</g>
<!-- 1 -->
<g id="node2" class="node"><title>1</title>
<ellipse fill="cadetblue" stroke="black" cx="29.2172" cy="-151.471" rx="21.4286" ry="21.4286"/>
<text text-anchor="middle" x="29.2172" y="-146.471" font-family="Times New Roman,serif" font-size="20.00">2</text>
</g>
<!-- 1&#45;&gt;6 -->
<g id="edge7" class="edge"><title>1&#45;&gt;6</title>
<path fill="none" stroke="black" stroke-width="2" d="M50.7055,-150.062C61.5,-149.353 74.7827,-148.482 86.6863,-147.701"/>
<polygon fill="black" stroke="black" stroke-width="2" points="86.9456,-151.191 96.6949,-147.044 86.4872,-144.206 86.9456,-151.191"/>
</g>
<!-- 1&#45;&gt;7 -->
<g id="edge8" class="edge"><title>1&#45;&gt;7</title>
<path fill="none" stroke="black" stroke-width="2" d="M46.7604,-139.265C57.6729,-131.672 71.9024,-121.771 84.1061,-113.279"/>
<polygon fill="black" stroke="black" stroke-width="2" points="86.3485,-115.983 92.5579,-107.399 82.3504,-110.237 86.3485,-115.983"/>
</g>
<!-- 2 -->
<g id="node3" class="node"><title>2</title>
<ellipse fill="cadetblue" stroke="black" cx="112.095" cy="-21.2132" rx="21.4286" ry="21.4286"/>
<text text-anchor="middle" x="112.095" y="-16.2132" font-family="Times New Roman,serif" font-size="20.00">2</text>
</g>
<!-- 4 -->
<g id="node5" class="node"><title>4</title>
<ellipse fill="cadetblue" stroke="black" cx="201.531" cy="-49.7263" rx="21.4286" ry="21.4286"/>
<text text-anchor="middle" x="201.531" y="-44.7263" font-family="Times New Roman,serif" font-size="20.00">2</text>
</g>
<!-- 2&#45;&gt;4 -->
<g id="edge9" class="edge"><title>2&#45;&gt;4</title>
<path fill="none" stroke="black" stroke-width="2" d="M132.39,-27.6833C143.939,-31.3653 158.624,-36.0469 171.487,-40.1478"/>
<polygon fill="black" stroke="black" stroke-width="2" points="170.726,-43.579 181.317,-43.2819 172.853,-36.9097 170.726,-43.579"/>
</g>
<!-- 5 -->
<g id="node6" class="node"><title>5</title>
<ellipse fill="cadetblue" stroke="black" cx="21.2132" cy="-51.8873" rx="21.4286" ry="21.4286"/>
<text text-anchor="middle" x="21.2132" y="-46.8873" font-family="Times New Roman,serif" font-size="20.00">2</text>
</g>
<!-- 2&#45;&gt;5 -->
<g id="edge10" class="edge"><title>2&#45;&gt;5</title>
<path fill="none" stroke="black" stroke-width="2" d="M91.9254,-28.0208C79.924,-32.0715 64.474,-37.2861 51.0785,-41.8073"/>
<polygon fill="black" stroke="black" stroke-width="2" points="49.682,-38.5846 41.3265,-45.0987 51.9206,-45.217 49.682,-38.5846"/>
</g>
<!-- 3 -->
<g id="node4" class="node"><title>3</title>
<ellipse fill="cadetblue" stroke="black" cx="111.993" cy="-208.862" rx="21.4286" ry="21.4286"/>
<text text-anchor="middle" x="111.993" y="-203.862" font-family="Times New Roman,serif" font-size="20.00">2</text>
</g>
<!-- 3&#45;&gt;0 -->
<g id="edge1" class="edge"><title>3&#45;&gt;0</title>
<path fill="none" stroke="black" stroke-width="2" d="M129.475,-196.833C141.69,-188.43 158.217,-177.058 172.024,-167.559"/>
<polygon fill="black" stroke="black" stroke-width="2" points="174.377,-170.188 180.632,-161.637 170.409,-164.422 174.377,-170.188"/>
</g>
<!-- 3&#45;&gt;1 -->
<g id="edge5" class="edge"><title>3&#45;&gt;1</title>
<path fill="none" stroke="black" stroke-width="2" d="M94.4381,-196.691C83.0247,-188.778 67.9431,-178.321 55.1577,-169.457"/>
<polygon fill="black" stroke="black" stroke-width="2" points="56.9587,-166.446 46.7464,-163.625 52.9702,-172.199 56.9587,-166.446"/>
</g>
<!-- 4&#45;&gt;0 -->
<g id="edge2" class="edge"><title>4&#45;&gt;0</title>
<path fill="none" stroke="black" stroke-width="2" d="M200.849,-71.3588C200.417,-85.0387 199.852,-102.946 199.372,-118.158"/>
<polygon fill="black" stroke="black" stroke-width="2" points="195.873,-118.069 199.056,-128.174 202.869,-118.29 195.873,-118.069"/>
</g>
<!-- 5&#45;&gt;1 -->
<g id="edge6" class="edge"><title>5&#45;&gt;1</title>
<path fill="none" stroke="black" stroke-width="2" d="M22.9499,-73.4956C24.0482,-87.1602 25.4859,-105.047 26.7072,-120.243"/>
<polygon fill="black" stroke="black" stroke-width="2" points="23.2213,-120.56 27.5113,-130.247 30.1988,-119.999 23.2213,-120.56"/>
</g>
<!-- 6&#45;&gt;2 -->
<g id="edge11" class="edge"><title>6&#45;&gt;2</title>
<path fill="none" stroke="black" stroke-width="2" d="M128.309,-126.594C132.403,-117.393 136.195,-106.026 136.371,-95.2171 136.627,-79.5511 131.677,-62.9052 126.182,-49.3761"/>
<polygon fill="black" stroke="black" stroke-width="2" points="129.358,-47.9011 122.152,-40.1343 122.941,-50.6997 129.358,-47.9011"/>
</g>
<!-- 6&#45;&gt;3 -->
<g id="edge13" class="edge"><title>6&#45;&gt;3</title>
<path fill="none" stroke="black" stroke-width="2" d="M115.956,-167.049C115.644,-170.344 115.316,-173.805 114.988,-177.266"/>
<polygon fill="black" stroke="black" stroke-width="2" points="111.479,-177.197 114.019,-187.482 118.448,-177.857 111.479,-177.197"/>
</g>
<!-- 6&#45;&gt;7 -->
<g id="edge17" class="edge"><title>6&#45;&gt;7</title>
<path fill="none" stroke="black" stroke-width="2" d="M114.673,-124.552C114.66,-124.468 114.647,-124.383 114.633,-124.299"/>
<polygon fill="black" stroke="black" stroke-width="2" points="118.4,-125.725 113.391,-116.389 111.485,-126.811 118.4,-125.725"/>
</g>
<!-- 7&#45;&gt;2 -->
<g id="edge12" class="edge"><title>7&#45;&gt;2</title>
<path fill="none" stroke="black" stroke-width="2" d="M110.654,-73.8112C110.834,-67.2147 111.037,-59.8087 111.233,-52.6828"/>
<polygon fill="black" stroke="black" stroke-width="2" points="114.734,-52.6619 111.51,-42.5697 107.737,-52.4701 114.734,-52.6619"/>
</g>
<!-- 7&#45;&gt;3 -->
<g id="edge14" class="edge"><title>7&#45;&gt;3</title>
<path fill="none" stroke="black" stroke-width="2" d="M99.7742,-114.257C95.6867,-123.453 91.8919,-134.814 91.681,-145.616 91.4541,-157.237 94.5542,-169.511 98.3969,-180.123"/>
<polygon fill="black" stroke="black" stroke-width="2" points="95.2665,-181.722 102.224,-189.712 101.768,-179.127 95.2665,-181.722"/>
</g>
<!-- 7&#45;&gt;4 -->
<g id="edge15" class="edge"><title>7&#45;&gt;4</title>
<path fill="none" stroke="black" stroke-width="2" d="M129.464,-85.5687C142.161,-79.2541 158.966,-70.8962 173.154,-63.8398"/>
<polygon fill="black" stroke="black" stroke-width="2" points="175.081,-66.7906 182.476,-59.2036 171.963,-60.523 175.081,-66.7906"/>
</g>
<!-- 7&#45;&gt;5 -->
<g id="edge16" class="edge"><title>7&#45;&gt;5</title>
<path fill="none" stroke="black" stroke-width="2" d="M90.7869,-85.8142C78.7941,-79.966 63.1559,-72.3402 49.744,-65.8"/>
<polygon fill="black" stroke="black" stroke-width="2" points="50.9779,-62.5078 40.4555,-61.2706 47.9097,-68.7996 50.9779,-62.5078"/>
</g>
</g>
</svg>

