<?xml version="1.0" encoding="UTF-8" standalone="no"?>
<!DOCTYPE svg PUBLIC "-//W3C//DTD SVG 1.1//EN"
 "http://www.w3.org/Graphics/SVG/1.1/DTD/svg11.dtd">
<!-- Generated by graphviz version 2.36.0 (20140111.2315)
 -->
<!-- Title: G Pages: 1 -->
<svg width="100%" height="100%"
 viewBox="0.00 0.00 308.03 220.42" xmlns="http://www.w3.org/2000/svg" xmlns:xlink="http://www.w3.org/1999/xlink">
<g id="graph0" class="graph" transform="scale(1 1) rotate(0) translate(4 216.419)">
<title>G</title>
<!-- 0 -->
<g id="node1" class="node"><title>0</title>
<ellipse fill="cadetblue" stroke="black" cx="130.097" cy="-142.279" rx="21.4286" ry="21.4286"/>
<text text-anchor="middle" x="130.097" y="-137.279" font-family="Times New Roman,serif" font-size="20.00">2</text>
</g>
<!-- 5 -->
<g id="node6" class="node"><title>5</title>
<ellipse fill="cadetblue" stroke="black" cx="21.2132" cy="-174.709" rx="21.4286" ry="21.4286"/>
<text text-anchor="middle" x="21.2132" y="-169.709" font-family="Times New Roman,serif" font-size="20.00">2</text>
</g>
<!-- 0&#45;&gt;5 -->
<g id="edge3" class="edge"><title>0&#45;&gt;5</title>
<path fill="none" stroke="black" stroke-width="2" d="M109.617,-148.379C93.192,-153.271 69.9001,-160.209 51.3474,-165.734"/>
<polygon fill="black" stroke="black" stroke-width="2" points="50.1865,-162.428 41.6016,-168.637 52.1847,-169.137 50.1865,-162.428"/>
</g>
<!-- 6 -->
<g id="node7" class="node"><title>6</title>
<ellipse fill="cadetblue" stroke="black" cx="233.218" cy="-26.4488" rx="21.4286" ry="21.4286"/>
<text text-anchor="middle" x="233.218" y="-21.4488" font-family="Times New Roman,serif" font-size="20.00">2</text>
</g>
<!-- 0&#45;&gt;6 -->
<g id="edge4" class="edge"><title>0&#45;&gt;6</title>
<path fill="none" stroke="black" stroke-width="2" d="M138.602,-122.501C146.47,-105.787 159.38,-81.9005 175.56,-64.7842 184.182,-55.6631 195.363,-47.6051 205.58,-41.2604"/>
<polygon fill="black" stroke="black" stroke-width="2" points="207.402,-44.2492 214.223,-36.142 203.835,-38.2261 207.402,-44.2492"/>
</g>
<!-- 7 -->
<g id="node8" class="node"><title>7</title>
<ellipse fill="dodgerblue" stroke="black" cx="153.529" cy="-21.2132" rx="21.4286" ry="21.4286"/>
<text text-anchor="middle" x="153.529" y="-16.2132" font-family="Times New Roman,serif" font-size="20.00">4</text>
</g>
<!-- 0&#45;&gt;7 -->
<g id="edge5" class="edge"><title>0&#45;&gt;7</title>
<path fill="none" stroke="black" stroke-width="2" d="M134.179,-121.191C137.875,-102.095 143.366,-73.7228 147.556,-52.076"/>
<polygon fill="black" stroke="black" stroke-width="2" points="151.03,-52.5426 149.494,-42.0597 144.158,-51.2124 151.03,-52.5426"/>
</g>
<!-- 1 -->
<g id="node2" class="node"><title>1</title>
<ellipse fill="cadetblue" stroke="black" cx="57.5358" cy="-22.6176" rx="21.4286" ry="21.4286"/>
<text text-anchor="middle" x="57.5358" y="-17.6176" font-family="Times New Roman,serif" font-size="20.00">2</text>
</g>
<!-- 1&#45;&gt;6 -->
<g id="edge8" class="edge"><title>1&#45;&gt;6</title>
<path fill="none" stroke="black" stroke-width="2" d="M77.3725,-30.9372C96.5176,-38.2011 126.498,-47.5806 153.528,-47.5176 170.62,-47.4777 189.11,-42.889 203.972,-38.0046"/>
<polygon fill="black" stroke="black" stroke-width="2" points="205.338,-41.2349 213.621,-34.6282 203.026,-34.6278 205.338,-41.2349"/>
</g>
<!-- 1&#45;&gt;7 -->
<g id="edge9" class="edge"><title>1&#45;&gt;7</title>
<path fill="none" stroke="black" stroke-width="2" d="M78.8398,-22.3059C91.5163,-22.1204 107.835,-21.8817 121.984,-21.6747"/>
<polygon fill="black" stroke="black" stroke-width="2" points="122.337,-25.17 132.285,-21.524 122.234,-18.1708 122.337,-25.17"/>
</g>
<!-- 2 -->
<g id="node3" class="node"><title>2</title>
<ellipse fill="cadetblue" stroke="black" cx="180.529" cy="-191.205" rx="21.4286" ry="21.4286"/>
<text text-anchor="middle" x="180.529" y="-186.205" font-family="Times New Roman,serif" font-size="20.00">2</text>
</g>
<!-- 2&#45;&gt;5 -->
<g id="edge11" class="edge"><title>2&#45;&gt;5</title>
<path fill="none" stroke="black" stroke-width="2" d="M159.373,-189.015C131.996,-186.18 84.0738,-181.218 52.4885,-177.948"/>
<polygon fill="black" stroke="black" stroke-width="2" points="52.7639,-174.458 42.4566,-176.909 52.0429,-181.42 52.7639,-174.458"/>
</g>
<!-- 2&#45;&gt;7 -->
<g id="edge13" class="edge"><title>2&#45;&gt;7</title>
<path fill="none" stroke="black" stroke-width="2" d="M177.164,-170.019C172.462,-140.418 163.896,-86.4817 158.469,-52.3175"/>
<polygon fill="black" stroke="black" stroke-width="2" points="161.919,-51.7256 156.894,-42.3985 155.006,-52.8237 161.919,-51.7256"/>
</g>
<!-- 3 -->
<g id="node4" class="node"><title>3</title>
<ellipse fill="cadetblue" stroke="black" cx="194.129" cy="-83.415" rx="21.4286" ry="21.4286"/>
<text text-anchor="middle" x="194.129" y="-78.415" font-family="Times New Roman,serif" font-size="20.00">2</text>
</g>
<!-- 3&#45;&gt;0 -->
<g id="edge1" class="edge"><title>3&#45;&gt;0</title>
<path fill="none" stroke="black" stroke-width="2" d="M178.301,-97.9658C170.78,-104.88 161.641,-113.282 153.351,-120.903"/>
<polygon fill="black" stroke="black" stroke-width="2" points="150.737,-118.552 145.743,-127.896 155.474,-123.705 150.737,-118.552"/>
</g>
<!-- 3&#45;&gt;1 -->
<g id="edge6" class="edge"><title>3&#45;&gt;1</title>
<path fill="none" stroke="black" stroke-width="2" d="M174.559,-74.7042C151.432,-64.4107 112.753,-47.1946 86.2372,-35.3925"/>
<polygon fill="black" stroke="black" stroke-width="2" points="87.6291,-32.1811 77.07,-31.3122 84.7826,-38.5762 87.6291,-32.1811"/>
</g>
<!-- 4 -->
<g id="node5" class="node"><title>4</title>
<ellipse fill="brown" stroke="black" cx="278.818" cy="-131.323" rx="21.4286" ry="21.4286"/>
<text text-anchor="middle" x="278.818" y="-126.323" font-family="Times New Roman,serif" font-size="20.00">3</text>
</g>
<!-- 3&#45;&gt;4 -->
<g id="edge14" class="edge"><title>3&#45;&gt;4</title>
<path fill="none" stroke="black" stroke-width="2" d="M212.924,-94.0474C224.218,-100.436 238.788,-108.678 251.354,-115.787"/>
<polygon fill="black" stroke="black" stroke-width="2" points="249.648,-118.843 260.075,-120.721 253.095,-112.751 249.648,-118.843"/>
</g>
<!-- 4&#45;&gt;0 -->
<g id="edge2" class="edge"><title>4&#45;&gt;0</title>
<path fill="none" stroke="black" stroke-width="2" d="M257.51,-132.893C232.33,-134.748 190.217,-137.85 161.347,-139.977"/>
<polygon fill="black" stroke="black" stroke-width="2" points="161.082,-136.487 151.366,-140.713 161.596,-143.468 161.082,-136.487"/>
</g>
<!-- 4&#45;&gt;2 -->
<g id="edge10" class="edge"><title>4&#45;&gt;2</title>
<path fill="none" stroke="black" stroke-width="2" d="M260.331,-142.587C245.504,-151.62 224.478,-164.43 207.731,-174.633"/>
<polygon fill="black" stroke="black" stroke-width="2" points="205.652,-171.801 198.933,-179.993 209.294,-177.779 205.652,-171.801"/>
</g>
<!-- 5&#45;&gt;1 -->
<g id="edge7" class="edge"><title>5&#45;&gt;1</title>
<path fill="none" stroke="black" stroke-width="2" d="M26.1875,-153.881C32.3749,-127.973 42.9928,-83.513 50.1361,-53.6018"/>
<polygon fill="black" stroke="black" stroke-width="2" points="53.5863,-54.2224 52.505,-43.6829 46.7778,-52.5963 53.5863,-54.2224"/>
</g>
<!-- 6&#45;&gt;2 -->
<g id="edge12" class="edge"><title>6&#45;&gt;2</title>
<path fill="none" stroke="black" stroke-width="2" d="M229.207,-47.471C226.962,-58.3096 223.915,-71.6895 220.433,-83.4587 212.421,-110.54 201.066,-140.622 192.516,-162.102"/>
<polygon fill="black" stroke="black" stroke-width="2" points="189.175,-161.031 188.69,-171.615 195.669,-163.644 189.175,-161.031"/>
</g>
<!-- 6&#45;&gt;3 -->
<g id="edge15" class="edge"><title>6&#45;&gt;3</title>
<path fill="none" stroke="black" stroke-width="2" d="M221.065,-44.161C218.169,-48.3804 215.02,-52.9697 211.93,-57.4735"/>
<polygon fill="black" stroke="black" stroke-width="2" points="208.913,-55.6837 206.141,-65.9094 214.685,-59.6442 208.913,-55.6837"/>
</g>
<!-- 6&#45;&gt;4 -->
<g id="edge17" class="edge"><title>6&#45;&gt;4</title>
<path fill="none" stroke="black" stroke-width="2" d="M241.795,-46.1749C248.674,-61.9952 258.428,-84.4293 266.198,-102.299"/>
<polygon fill="black" stroke="black" stroke-width="2" points="263.082,-103.911 270.28,-111.686 269.502,-101.119 263.082,-103.911"/>
</g>
<!-- 6&#45;&gt;7 -->
<g id="edge19" class="edge"><title>6&#45;&gt;7</title>
<path fill="none" stroke="black" stroke-width="2" d="M211.863,-25.0458C203.645,-24.5058 194.079,-23.8773 185.099,-23.2874"/>
<polygon fill="black" stroke="black" stroke-width="2" points="185.151,-19.7833 174.943,-22.6201 184.692,-26.7683 185.151,-19.7833"/>
</g>
<!-- 7&#45;&gt;3 -->
<g id="edge16" class="edge"><title>7&#45;&gt;3</title>
<path fill="none" stroke="black" stroke-width="2" d="M165.272,-39.2045C168.86,-44.7009 172.884,-50.8659 176.762,-56.8074"/>
<polygon fill="black" stroke="black" stroke-width="2" points="173.875,-58.7876 182.272,-65.2486 179.737,-54.9615 173.875,-58.7876"/>
</g>
<!-- 7&#45;&gt;4 -->
<g id="edge18" class="edge"><title>7&#45;&gt;4</title>
<path fill="none" stroke="black" stroke-width="2" d="M171.174,-33.1405C183.244,-41.5541 199.413,-53.3339 212.76,-64.8459 228.518,-78.4376 245.018,-95.0414 257.587,-108.255"/>
<polygon fill="black" stroke="black" stroke-width="2" points="255.094,-110.713 264.497,-115.595 260.19,-105.915 255.094,-110.713"/>
</g>
</g>
</svg>

