<?xml version="1.0" encoding="UTF-8" standalone="no"?>
<!DOCTYPE svg PUBLIC "-//W3C//DTD SVG 1.1//EN"
 "http://www.w3.org/Graphics/SVG/1.1/DTD/svg11.dtd">
<!-- Generated by graphviz version 2.36.0 (20140111.2315)
 -->
<!-- Title: G Pages: 1 -->
<svg width="100%" height="100%"
 viewBox="0.00 0.00 237.53 216.73" xmlns="http://www.w3.org/2000/svg" xmlns:xlink="http://www.w3.org/1999/xlink">
<g id="graph0" class="graph" transform="scale(1 1) rotate(0) translate(4 212.735)">
<title>G</title>
<!-- 0 -->
<g id="node1" class="node"><title>0</title>
<ellipse fill="cadetblue" stroke="black" cx="69.8812" cy="-187.521" rx="21.4286" ry="21.4286"/>
<text text-anchor="middle" x="69.8812" y="-182.521" font-family="Times New Roman,serif" font-size="20.00">2</text>
</g>
<!-- 5 -->
<g id="node6" class="node"><title>5</title>
<ellipse fill="cadetblue" stroke="black" cx="21.2132" cy="-63.32" rx="21.4286" ry="21.4286"/>
<text text-anchor="middle" x="21.2132" y="-58.32" font-family="Times New Roman,serif" font-size="20.00">2</text>
</g>
<!-- 0&#45;&gt;5 -->
<g id="edge3" class="edge"><title>0&#45;&gt;5</title>
<path fill="none" stroke="black" stroke-width="2" d="M54.5224,-172.704C41.7734,-159.024 25.0383,-137.396 20.6061,-114.397 19.4127,-108.205 18.9292,-101.512 18.8532,-95.074"/>
<polygon fill="black" stroke="black" stroke-width="2" points="22.3614,-94.6799 19.0567,-84.6137 15.3627,-94.5437 22.3614,-94.6799"/>
</g>
<!-- 7 -->
<g id="node8" class="node"><title>7</title>
<ellipse fill="cadetblue" stroke="black" cx="46.9104" cy="-114.399" rx="21.4286" ry="21.4286"/>
<text text-anchor="middle" x="46.9104" y="-109.399" font-family="Times New Roman,serif" font-size="20.00">2</text>
</g>
<!-- 0&#45;&gt;7 -->
<g id="edge4" class="edge"><title>0&#45;&gt;7</title>
<path fill="none" stroke="black" stroke-width="2" d="M63.4826,-167.153C61.2673,-160.101 58.7356,-152.042 56.3291,-144.381"/>
<polygon fill="black" stroke="black" stroke-width="2" points="59.611,-143.15 53.2748,-134.658 52.9327,-145.247 59.611,-143.15"/>
</g>
<!-- 1 -->
<g id="node2" class="node"><title>1</title>
<ellipse fill="cadetblue" stroke="black" cx="103.973" cy="-21.2132" rx="21.4286" ry="21.4286"/>
<text text-anchor="middle" x="103.973" y="-16.2132" font-family="Times New Roman,serif" font-size="20.00">2</text>
</g>
<!-- 6 -->
<g id="node7" class="node"><title>6</title>
<ellipse fill="cadetblue" stroke="black" cx="208.321" cy="-68.9509" rx="21.4286" ry="21.4286"/>
<text text-anchor="middle" x="208.321" y="-63.9509" font-family="Times New Roman,serif" font-size="20.00">2</text>
</g>
<!-- 1&#45;&gt;6 -->
<g id="edge7" class="edge"><title>1&#45;&gt;6</title>
<path fill="none" stroke="black" stroke-width="2" d="M123.6,-30.1923C139.341,-37.3935 161.662,-47.6053 179.442,-55.7393"/>
<polygon fill="black" stroke="black" stroke-width="2" points="178.232,-59.0346 188.782,-60.0121 181.144,-52.6691 178.232,-59.0346"/>
</g>
<!-- 1&#45;&gt;7 -->
<g id="edge8" class="edge"><title>1&#45;&gt;7</title>
<path fill="none" stroke="black" stroke-width="2" d="M92.6995,-39.6236C84.3368,-53.2801 72.8058,-72.1106 63.4077,-87.458"/>
<polygon fill="black" stroke="black" stroke-width="2" points="60.3983,-85.6705 58.1608,-96.0264 66.3679,-89.3261 60.3983,-85.6705"/>
</g>
<!-- 2 -->
<g id="node3" class="node"><title>2</title>
<ellipse fill="cadetblue" stroke="black" cx="130.007" cy="-71.6447" rx="21.4286" ry="21.4286"/>
<text text-anchor="middle" x="130.007" y="-66.6447" font-family="Times New Roman,serif" font-size="20.00">2</text>
</g>
<!-- 4 -->
<g id="node5" class="node"><title>4</title>
<ellipse fill="cadetblue" stroke="black" cx="186.73" cy="-171.317" rx="21.4286" ry="21.4286"/>
<text text-anchor="middle" x="186.73" y="-166.317" font-family="Times New Roman,serif" font-size="20.00">2</text>
</g>
<!-- 2&#45;&gt;4 -->
<g id="edge9" class="edge"><title>2&#45;&gt;4</title>
<path fill="none" stroke="black" stroke-width="2" d="M140.798,-90.2724C144.386,-96.4871 148.394,-103.453 152.036,-109.836 158.377,-120.951 165.318,-133.227 171.313,-143.868"/>
<polygon fill="black" stroke="black" stroke-width="2" points="168.345,-145.73 176.3,-152.727 174.445,-142.296 168.345,-145.73"/>
</g>
<!-- 2&#45;&gt;6 -->
<g id="edge11" class="edge"><title>2&#45;&gt;6</title>
<path fill="none" stroke="black" stroke-width="2" d="M151.406,-70.9086C159.262,-70.6384 168.328,-70.3265 176.882,-70.0323"/>
<polygon fill="black" stroke="black" stroke-width="2" points="177.073,-73.5279 186.947,-69.6861 176.832,-66.532 177.073,-73.5279"/>
</g>
<!-- 3 -->
<g id="node4" class="node"><title>3</title>
<ellipse fill="cadetblue" stroke="black" cx="133.405" cy="-128.405" rx="21.4286" ry="21.4286"/>
<text text-anchor="middle" x="133.405" y="-123.405" font-family="Times New Roman,serif" font-size="20.00">2</text>
</g>
<!-- 3&#45;&gt;0 -->
<g id="edge1" class="edge"><title>3&#45;&gt;0</title>
<path fill="none" stroke="black" stroke-width="2" d="M117.702,-143.018C110.352,-149.858 101.444,-158.148 93.3188,-165.71"/>
<polygon fill="black" stroke="black" stroke-width="2" points="90.7803,-163.291 85.8443,-172.666 95.5492,-168.415 90.7803,-163.291"/>
</g>
<!-- 3&#45;&gt;1 -->
<g id="edge5" class="edge"><title>3&#45;&gt;1</title>
<path fill="none" stroke="black" stroke-width="2" d="M120.917,-110.989C114.092,-100.229 106.476,-85.8038 103.702,-71.6059 102.52,-65.5551 102.009,-59.0171 101.89,-52.7185"/>
<polygon fill="black" stroke="black" stroke-width="2" points="105.393,-52.513 102.009,-42.473 98.393,-52.4317 105.393,-52.513"/>
</g>
<!-- 4&#45;&gt;0 -->
<g id="edge2" class="edge"><title>4&#45;&gt;0</title>
<path fill="none" stroke="black" stroke-width="2" d="M165.57,-174.251C147.648,-176.737 121.698,-180.336 101.342,-183.158"/>
<polygon fill="black" stroke="black" stroke-width="2" points="100.703,-179.713 91.2791,-184.554 101.665,-186.647 100.703,-179.713"/>
</g>
<!-- 5&#45;&gt;1 -->
<g id="edge6" class="edge"><title>5&#45;&gt;1</title>
<path fill="none" stroke="black" stroke-width="2" d="M40.408,-53.554C50.9579,-48.1865 64.2392,-41.4292 75.9301,-35.481"/>
<polygon fill="black" stroke="black" stroke-width="2" points="77.5569,-38.5804 84.8825,-30.9262 74.3826,-32.3415 77.5569,-38.5804"/>
</g>
<!-- 5&#45;&gt;2 -->
<g id="edge10" class="edge"><title>5&#45;&gt;2</title>
<path fill="none" stroke="black" stroke-width="2" d="M42.4479,-64.9449C58.4726,-66.171 80.7061,-67.8723 98.7583,-69.2536"/>
<polygon fill="black" stroke="black" stroke-width="2" points="98.5876,-72.7507 108.825,-70.0239 99.1217,-65.7711 98.5876,-72.7507"/>
</g>
<!-- 6&#45;&gt;3 -->
<g id="edge13" class="edge"><title>6&#45;&gt;3</title>
<path fill="none" stroke="black" stroke-width="2" d="M191.694,-82.1457C181.87,-89.9424 169.242,-99.9638 158.254,-108.685"/>
<polygon fill="black" stroke="black" stroke-width="2" points="155.901,-106.083 150.244,-115.041 160.252,-111.567 155.901,-106.083"/>
</g>
<!-- 6&#45;&gt;4 -->
<g id="edge15" class="edge"><title>6&#45;&gt;4</title>
<path fill="none" stroke="black" stroke-width="2" d="M203.847,-90.1612C200.787,-104.669 196.681,-124.137 193.257,-140.369"/>
<polygon fill="black" stroke="black" stroke-width="2" points="189.763,-139.977 191.124,-150.484 196.612,-141.422 189.763,-139.977"/>
</g>
<!-- 7&#45;&gt;2 -->
<g id="edge12" class="edge"><title>7&#45;&gt;2</title>
<path fill="none" stroke="black" stroke-width="2" d="M66.1832,-104.483C76.8516,-98.9935 90.3018,-92.0732 102.101,-86.0025"/>
<polygon fill="black" stroke="black" stroke-width="2" points="103.834,-89.0469 111.125,-81.3596 100.631,-82.8224 103.834,-89.0469"/>
</g>
<!-- 7&#45;&gt;3 -->
<g id="edge14" class="edge"><title>7&#45;&gt;3</title>
<path fill="none" stroke="black" stroke-width="2" d="M68.2911,-117.861C78.5559,-119.523 91.051,-121.546 102.34,-123.374"/>
<polygon fill="black" stroke="black" stroke-width="2" points="101.839,-126.839 112.27,-124.982 102.958,-119.929 101.839,-126.839"/>
</g>
<!-- 7&#45;&gt;5 -->
<g id="edge16" class="edge"><title>7&#45;&gt;5</title>
<path fill="none" stroke="black" stroke-width="2" d="M37.3417,-95.3788C36.7478,-94.1982 36.1438,-92.9976 35.5353,-91.7881"/>
<polygon fill="black" stroke="black" stroke-width="2" points="38.4965,-89.8862 30.8756,-82.526 32.2433,-93.0322 38.4965,-89.8862"/>
</g>
</g>
</svg>

