<?xml version="1.0" encoding="UTF-8" standalone="no"?>
<!DOCTYPE svg PUBLIC "-//W3C//DTD SVG 1.1//EN"
 "http://www.w3.org/Graphics/SVG/1.1/DTD/svg11.dtd">
<!-- Generated by graphviz version 2.36.0 (20140111.2315)
 -->
<!-- Title: G Pages: 1 -->
<svg width="100%" height="100%"
 viewBox="0.00 0.00 236.52 226.72" xmlns="http://www.w3.org/2000/svg" xmlns:xlink="http://www.w3.org/1999/xlink">
<g id="graph0" class="graph" transform="scale(1 1) rotate(0) translate(4 222.715)">
<title>G</title>
<!-- 0 -->
<g id="node1" class="node"><title>0</title>
<ellipse fill="cadetblue" stroke="black" cx="21.2132" cy="-188.04" rx="21.4286" ry="21.4286"/>
<text text-anchor="middle" x="21.2132" y="-183.04" font-family="Times New Roman,serif" font-size="20.00">2</text>
</g>
<!-- 5 -->
<g id="node6" class="node"><title>5</title>
<ellipse fill="cadetblue" stroke="black" cx="34.955" cy="-83.281" rx="21.4286" ry="21.4286"/>
<text text-anchor="middle" x="34.955" y="-78.281" font-family="Times New Roman,serif" font-size="20.00">2</text>
</g>
<!-- 0&#45;&gt;5 -->
<g id="edge3" class="edge"><title>0&#45;&gt;5</title>
<path fill="none" stroke="black" stroke-width="2" d="M23.9941,-166.841C25.9684,-151.789 28.6512,-131.337 30.8684,-114.435"/>
<polygon fill="black" stroke="black" stroke-width="2" points="34.3478,-114.819 32.1783,-104.449 27.4073,-113.909 34.3478,-114.819"/>
</g>
<!-- 7 -->
<g id="node8" class="node"><title>7</title>
<ellipse fill="brown" stroke="black" cx="86.2537" cy="-119.242" rx="21.4286" ry="21.4286"/>
<text text-anchor="middle" x="86.2537" y="-114.242" font-family="Times New Roman,serif" font-size="20.00">3</text>
</g>
<!-- 0&#45;&gt;7 -->
<g id="edge4" class="edge"><title>0&#45;&gt;7</title>
<path fill="none" stroke="black" stroke-width="2" d="M35.9719,-172.429C44.454,-163.457 55.2617,-152.025 64.6818,-142.06"/>
<polygon fill="black" stroke="black" stroke-width="2" points="67.2269,-144.463 71.5534,-134.792 62.1401,-139.654 67.2269,-144.463"/>
</g>
<!-- 1 -->
<g id="node2" class="node"><title>1</title>
<ellipse fill="cadetblue" stroke="black" cx="157.686" cy="-77.8087" rx="21.4286" ry="21.4286"/>
<text text-anchor="middle" x="157.686" y="-72.8087" font-family="Times New Roman,serif" font-size="20.00">2</text>
</g>
<!-- 6 -->
<g id="node7" class="node"><title>6</title>
<ellipse fill="cadetblue" stroke="black" cx="207.305" cy="-128.24" rx="21.4286" ry="21.4286"/>
<text text-anchor="middle" x="207.305" y="-123.24" font-family="Times New Roman,serif" font-size="20.00">2</text>
</g>
<!-- 1&#45;&gt;6 -->
<g id="edge7" class="edge"><title>1&#45;&gt;6</title>
<path fill="none" stroke="black" stroke-width="2" d="M172.573,-92.9398C176.427,-96.8566 180.663,-101.162 184.812,-105.379"/>
<polygon fill="black" stroke="black" stroke-width="2" points="182.576,-108.097 192.085,-112.771 187.566,-103.188 182.576,-108.097"/>
</g>
<!-- 1&#45;&gt;7 -->
<g id="edge8" class="edge"><title>1&#45;&gt;7</title>
<path fill="none" stroke="black" stroke-width="2" d="M139.291,-88.4788C131.519,-92.9866 122.304,-98.3317 113.753,-103.291"/>
<polygon fill="black" stroke="black" stroke-width="2" points="111.729,-100.419 104.835,-108.464 115.242,-106.474 111.729,-100.419"/>
</g>
<!-- 2 -->
<g id="node3" class="node"><title>2</title>
<ellipse fill="cadetblue" stroke="black" cx="120.367" cy="-21.2132" rx="21.4286" ry="21.4286"/>
<text text-anchor="middle" x="120.367" y="-16.2132" font-family="Times New Roman,serif" font-size="20.00">2</text>
</g>
<!-- 2&#45;&gt;7 -->
<g id="edge11" class="edge"><title>2&#45;&gt;7</title>
<path fill="none" stroke="black" stroke-width="2" d="M113.299,-41.5249C108.496,-55.326 102.062,-73.8148 96.6747,-89.2966"/>
<polygon fill="black" stroke="black" stroke-width="2" points="93.2942,-88.3618 93.313,-98.9566 99.9053,-90.6625 93.2942,-88.3618"/>
</g>
<!-- 3 -->
<g id="node4" class="node"><title>3</title>
<ellipse fill="cadetblue" stroke="black" cx="93.9886" cy="-197.502" rx="21.4286" ry="21.4286"/>
<text text-anchor="middle" x="93.9886" y="-192.502" font-family="Times New Roman,serif" font-size="20.00">2</text>
</g>
<!-- 3&#45;&gt;0 -->
<g id="edge1" class="edge"><title>3&#45;&gt;0</title>
<path fill="none" stroke="black" stroke-width="2" d="M72.9389,-194.765C66.6578,-193.949 59.6303,-193.035 52.8292,-192.151"/>
<polygon fill="black" stroke="black" stroke-width="2" points="52.8355,-188.622 42.4677,-190.803 51.9329,-195.564 52.8355,-188.622"/>
</g>
<!-- 3&#45;&gt;6 -->
<g id="edge13" class="edge"><title>3&#45;&gt;6</title>
<path fill="none" stroke="black" stroke-width="2" d="M112.195,-186.374C130.615,-175.115 159.302,-157.581 180.356,-144.712"/>
<polygon fill="black" stroke="black" stroke-width="2" points="182.437,-147.542 189.144,-139.341 178.786,-141.57 182.437,-147.542"/>
</g>
<!-- 4 -->
<g id="node5" class="node"><title>4</title>
<ellipse fill="cadetblue" stroke="black" cx="153.142" cy="-194.296" rx="21.4286" ry="21.4286"/>
<text text-anchor="middle" x="153.142" y="-189.296" font-family="Times New Roman,serif" font-size="20.00">2</text>
</g>
<!-- 4&#45;&gt;0 -->
<g id="edge2" class="edge"><title>4&#45;&gt;0</title>
<path fill="none" stroke="black" stroke-width="2" d="M134.662,-183.773C123.337,-178.177 108.318,-172.237 94.0322,-171.198 79.6335,-170.15 63.9963,-173.194 50.9167,-176.972"/>
<polygon fill="black" stroke="black" stroke-width="2" points="49.5264,-173.74 41.0479,-180.094 51.6379,-180.414 49.5264,-173.74"/>
</g>
<!-- 4&#45;&gt;1 -->
<g id="edge5" class="edge"><title>4&#45;&gt;1</title>
<path fill="none" stroke="black" stroke-width="2" d="M153.976,-172.931C154.671,-155.114 155.671,-129.478 156.458,-109.307"/>
<polygon fill="black" stroke="black" stroke-width="2" points="159.966,-109.168 156.858,-99.0388 152.971,-108.895 159.966,-109.168"/>
</g>
<!-- 5&#45;&gt;1 -->
<g id="edge6" class="edge"><title>5&#45;&gt;1</title>
<path fill="none" stroke="black" stroke-width="2" d="M56.3331,-82.3278C75.5738,-81.4699 104.104,-80.1978 125.997,-79.2216"/>
<polygon fill="black" stroke="black" stroke-width="2" points="126.307,-82.7114 136.141,-78.7693 125.995,-75.7183 126.307,-82.7114"/>
</g>
<!-- 5&#45;&gt;2 -->
<g id="edge9" class="edge"><title>5&#45;&gt;2</title>
<path fill="none" stroke="black" stroke-width="2" d="M52.2395,-70.7207C64.5112,-61.803 81.1861,-49.6857 94.9672,-39.6712"/>
<polygon fill="black" stroke="black" stroke-width="2" points="97.0765,-42.4649 103.109,-33.7549 92.9615,-36.8021 97.0765,-42.4649"/>
</g>
<!-- 5&#45;&gt;3 -->
<g id="edge12" class="edge"><title>5&#45;&gt;3</title>
<path fill="none" stroke="black" stroke-width="2" d="M44.7032,-102.142C54.1885,-120.495 68.7144,-148.6 79.5424,-169.551"/>
<polygon fill="black" stroke="black" stroke-width="2" points="76.5252,-171.336 84.2259,-178.613 82.7437,-168.122 76.5252,-171.336"/>
</g>
<!-- 6&#45;&gt;2 -->
<g id="edge10" class="edge"><title>6&#45;&gt;2</title>
<path fill="none" stroke="black" stroke-width="2" d="M201.376,-107.577C196.425,-92.9363 188.243,-73.4555 176.354,-59.2766 168.606,-50.0366 158.077,-42.0894 148.239,-35.8828"/>
<polygon fill="black" stroke="black" stroke-width="2" points="149.883,-32.7883 139.499,-30.685 146.305,-38.8048 149.883,-32.7883"/>
</g>
<!-- 6&#45;&gt;4 -->
<g id="edge15" class="edge"><title>6&#45;&gt;4</title>
<path fill="none" stroke="black" stroke-width="2" d="M193.637,-144.909C187.432,-152.476 179.97,-161.577 173.152,-169.893"/>
<polygon fill="black" stroke="black" stroke-width="2" points="170.252,-167.91 166.618,-177.862 175.665,-172.348 170.252,-167.91"/>
</g>
<!-- 7&#45;&gt;3 -->
<g id="edge14" class="edge"><title>7&#45;&gt;3</title>
<path fill="none" stroke="black" stroke-width="2" d="M88.3673,-140.627C89.1432,-148.478 90.0386,-157.537 90.8835,-166.085"/>
<polygon fill="black" stroke="black" stroke-width="2" points="87.4108,-166.536 91.8775,-176.143 94.3769,-165.847 87.4108,-166.536"/>
</g>
<!-- 7&#45;&gt;4 -->
<g id="edge16" class="edge"><title>7&#45;&gt;4</title>
<path fill="none" stroke="black" stroke-width="2" d="M100.439,-135.159C109.662,-145.508 121.849,-159.183 132.181,-170.775"/>
<polygon fill="black" stroke="black" stroke-width="2" points="129.711,-173.265 138.977,-178.402 134.937,-168.608 129.711,-173.265"/>
</g>
<!-- 7&#45;&gt;5 -->
<g id="edge17" class="edge"><title>7&#45;&gt;5</title>
<path fill="none" stroke="black" stroke-width="2" d="M68.5996,-106.866C66.0727,-105.095 63.4308,-103.243 60.7863,-101.389"/>
<polygon fill="black" stroke="black" stroke-width="2" points="62.6654,-98.4321 52.4678,-95.5578 58.6472,-104.164 62.6654,-98.4321"/>
</g>
</g>
</svg>

