<?xml version="1.0" encoding="UTF-8" standalone="no"?>
<!DOCTYPE svg PUBLIC "-//W3C//DTD SVG 1.1//EN"
 "http://www.w3.org/Graphics/SVG/1.1/DTD/svg11.dtd">
<!-- Generated by graphviz version 2.36.0 (20140111.2315)
 -->
<!-- Title: G Pages: 1 -->
<svg width="100%" height="100%"
 viewBox="0.00 0.00 255.59 242.57" xmlns="http://www.w3.org/2000/svg" xmlns:xlink="http://www.w3.org/1999/xlink">
<g id="graph0" class="graph" transform="scale(1 1) rotate(0) translate(4 238.57)">
<title>G</title>
<!-- 0 -->
<g id="node1" class="node"><title>0</title>
<ellipse fill="cadetblue" stroke="black" cx="143.123" cy="-148.598" rx="21.4286" ry="21.4286"/>
<text text-anchor="middle" x="143.123" y="-143.598" font-family="Times New Roman,serif" font-size="20.00">2</text>
</g>
<!-- 5 -->
<g id="node6" class="node"><title>5</title>
<ellipse fill="cadetblue" stroke="black" cx="26.587" cy="-88.1208" rx="21.4286" ry="21.4286"/>
<text text-anchor="middle" x="26.587" y="-83.1208" font-family="Times New Roman,serif" font-size="20.00">2</text>
</g>
<!-- 0&#45;&gt;5 -->
<g id="edge3" class="edge"><title>0&#45;&gt;5</title>
<path fill="none" stroke="black" stroke-width="2" d="M121.672,-149.683C105.408,-149.441 83.2607,-146.715 67.6073,-135.431 59.318,-129.455 51.5855,-121.489 45.1186,-113.8"/>
<polygon fill="black" stroke="black" stroke-width="2" points="47.6053,-111.305 38.6315,-105.673 42.1344,-115.672 47.6053,-111.305"/>
</g>
<!-- 6 -->
<g id="node7" class="node"><title>6</title>
<ellipse fill="brown" stroke="black" cx="188.54" cy="-98.1665" rx="21.4286" ry="21.4286"/>
<text text-anchor="middle" x="188.54" y="-93.1665" font-family="Times New Roman,serif" font-size="20.00">3</text>
</g>
<!-- 0&#45;&gt;6 -->
<g id="edge4" class="edge"><title>0&#45;&gt;6</title>
<path fill="none" stroke="black" stroke-width="2" d="M157.493,-132.641C160.641,-129.146 164.037,-125.375 167.387,-121.654"/>
<polygon fill="black" stroke="black" stroke-width="2" points="170.016,-123.966 174.107,-114.193 164.814,-119.281 170.016,-123.966"/>
</g>
<!-- 7 -->
<g id="node8" class="node"><title>7</title>
<ellipse fill="cadetblue" stroke="black" cx="86.2082" cy="-116.832" rx="21.4286" ry="21.4286"/>
<text text-anchor="middle" x="86.2082" y="-111.832" font-family="Times New Roman,serif" font-size="20.00">2</text>
</g>
<!-- 0&#45;&gt;7 -->
<g id="edge5" class="edge"><title>0&#45;&gt;7</title>
<path fill="none" stroke="black" stroke-width="2" d="M124.487,-138.196C121.083,-136.296 117.465,-134.277 113.864,-132.268"/>
<polygon fill="black" stroke="black" stroke-width="2" points="115.519,-129.183 105.081,-127.365 112.107,-135.295 115.519,-129.183"/>
</g>
<!-- 1 -->
<g id="node2" class="node"><title>1</title>
<ellipse fill="cadetblue" stroke="black" cx="21.2132" cy="-192.924" rx="21.4286" ry="21.4286"/>
<text text-anchor="middle" x="21.2132" y="-187.924" font-family="Times New Roman,serif" font-size="20.00">2</text>
</g>
<!-- 1&#45;&gt;7 -->
<g id="edge8" class="edge"><title>1&#45;&gt;7</title>
<path fill="none" stroke="black" stroke-width="2" d="M34.997,-176.787C43.8982,-166.366 55.6409,-152.618 65.6361,-140.916"/>
<polygon fill="black" stroke="black" stroke-width="2" points="68.3867,-143.085 72.2202,-133.208 63.0641,-138.539 68.3867,-143.085"/>
</g>
<!-- 2 -->
<g id="node3" class="node"><title>2</title>
<ellipse fill="cadetblue" stroke="black" cx="109.241" cy="-21.2132" rx="21.4286" ry="21.4286"/>
<text text-anchor="middle" x="109.241" y="-16.2132" font-family="Times New Roman,serif" font-size="20.00">2</text>
</g>
<!-- 2&#45;&gt;6 -->
<g id="edge10" class="edge"><title>2&#45;&gt;6</title>
<path fill="none" stroke="black" stroke-width="2" d="M124.531,-36.0506C136.269,-47.4416 152.658,-63.3458 165.913,-76.2093"/>
<polygon fill="black" stroke="black" stroke-width="2" points="163.683,-78.9222 173.297,-83.3746 168.558,-73.8987 163.683,-78.9222"/>
</g>
<!-- 3 -->
<g id="node4" class="node"><title>3</title>
<ellipse fill="cadetblue" stroke="black" cx="226.375" cy="-190.072" rx="21.4286" ry="21.4286"/>
<text text-anchor="middle" x="226.375" y="-185.072" font-family="Times New Roman,serif" font-size="20.00">2</text>
</g>
<!-- 3&#45;&gt;0 -->
<g id="edge1" class="edge"><title>3&#45;&gt;0</title>
<path fill="none" stroke="black" stroke-width="2" d="M207.066,-180.453C196.454,-175.166 183.093,-168.51 171.333,-162.651"/>
<polygon fill="black" stroke="black" stroke-width="2" points="172.839,-159.491 162.327,-158.165 169.717,-165.757 172.839,-159.491"/>
</g>
<!-- 4 -->
<g id="node5" class="node"><title>4</title>
<ellipse fill="cadetblue" stroke="black" cx="129.403" cy="-213.356" rx="21.4286" ry="21.4286"/>
<text text-anchor="middle" x="129.403" y="-208.356" font-family="Times New Roman,serif" font-size="20.00">2</text>
</g>
<!-- 4&#45;&gt;0 -->
<g id="edge2" class="edge"><title>4&#45;&gt;0</title>
<path fill="none" stroke="black" stroke-width="2" d="M133.819,-192.51C134.701,-188.35 135.644,-183.899 136.579,-179.484"/>
<polygon fill="black" stroke="black" stroke-width="2" points="140.066,-179.914 138.715,-169.405 133.218,-178.463 140.066,-179.914"/>
</g>
<!-- 4&#45;&gt;1 -->
<g id="edge6" class="edge"><title>4&#45;&gt;1</title>
<path fill="none" stroke="black" stroke-width="2" d="M108.543,-209.417C92.6306,-206.412 70.4545,-202.224 52.4314,-198.82"/>
<polygon fill="black" stroke="black" stroke-width="2" points="52.8542,-195.338 42.3784,-196.922 51.5551,-202.217 52.8542,-195.338"/>
</g>
<!-- 4&#45;&gt;3 -->
<g id="edge12" class="edge"><title>4&#45;&gt;3</title>
<path fill="none" stroke="black" stroke-width="2" d="M150.444,-208.304C163.751,-205.109 181.169,-200.927 195.966,-197.374"/>
<polygon fill="black" stroke="black" stroke-width="2" points="196.802,-200.773 205.708,-195.035 195.167,-193.966 196.802,-200.773"/>
</g>
<!-- 5&#45;&gt;1 -->
<g id="edge7" class="edge"><title>5&#45;&gt;1</title>
<path fill="none" stroke="black" stroke-width="2" d="M25.4995,-109.329C24.7398,-124.147 23.7117,-144.196 22.8529,-160.946"/>
<polygon fill="black" stroke="black" stroke-width="2" points="19.3343,-161.221 22.3175,-171.388 26.3251,-161.58 19.3343,-161.221"/>
</g>
<!-- 5&#45;&gt;2 -->
<g id="edge9" class="edge"><title>5&#45;&gt;2</title>
<path fill="none" stroke="black" stroke-width="2" d="M43.3133,-74.581C55.1887,-64.968 71.325,-51.9058 84.6611,-41.1104"/>
<polygon fill="black" stroke="black" stroke-width="2" points="86.9692,-43.7451 92.5396,-34.7328 82.5649,-38.3043 86.9692,-43.7451"/>
</g>
<!-- 6&#45;&gt;3 -->
<g id="edge13" class="edge"><title>6&#45;&gt;3</title>
<path fill="none" stroke="black" stroke-width="2" d="M196.75,-118.109C201.856,-130.513 208.515,-146.689 214.226,-160.561"/>
<polygon fill="black" stroke="black" stroke-width="2" points="211.138,-162.254 218.182,-170.169 217.611,-159.589 211.138,-162.254"/>
</g>
<!-- 6&#45;&gt;4 -->
<g id="edge14" class="edge"><title>6&#45;&gt;4</title>
<path fill="none" stroke="black" stroke-width="2" d="M182.24,-118.432C177.482,-132.535 170.311,-151.545 161.706,-167.215 157.887,-174.168 153.245,-181.348 148.684,-187.913"/>
<polygon fill="black" stroke="black" stroke-width="2" points="145.58,-186.237 142.601,-196.405 151.27,-190.314 145.58,-186.237"/>
</g>
<!-- 7&#45;&gt;2 -->
<g id="edge11" class="edge"><title>7&#45;&gt;2</title>
<path fill="none" stroke="black" stroke-width="2" d="M91.206,-96.0838C94.3148,-83.1779 98.3686,-66.3491 101.845,-51.9161"/>
<polygon fill="black" stroke="black" stroke-width="2" points="105.314,-52.4621 104.253,-41.9205 98.5084,-50.8227 105.314,-52.4621"/>
</g>
<!-- 7&#45;&gt;4 -->
<g id="edge15" class="edge"><title>7&#45;&gt;4</title>
<path fill="none" stroke="black" stroke-width="2" d="M94.9493,-136.365C101.155,-150.233 109.588,-169.077 116.557,-184.652"/>
<polygon fill="black" stroke="black" stroke-width="2" points="113.395,-186.154 120.675,-193.852 119.785,-183.295 113.395,-186.154"/>
</g>
<!-- 7&#45;&gt;5 -->
<g id="edge16" class="edge"><title>7&#45;&gt;5</title>
<path fill="none" stroke="black" stroke-width="2" d="M67.0155,-107.589C63.1858,-105.745 59.0873,-103.771 55.0228,-101.814"/>
<polygon fill="black" stroke="black" stroke-width="2" points="56.2721,-98.5311 45.7437,-97.3457 53.235,-104.838 56.2721,-98.5311"/>
</g>
<!-- 7&#45;&gt;6 -->
<g id="edge17" class="edge"><title>7&#45;&gt;6</title>
<path fill="none" stroke="black" stroke-width="2" d="M107.411,-112.964C121.818,-110.336 141.119,-106.816 157.28,-103.868"/>
<polygon fill="black" stroke="black" stroke-width="2" points="158.154,-107.267 167.364,-102.029 156.898,-100.38 158.154,-107.267"/>
</g>
</g>
</svg>

