<?xml version="1.0" encoding="UTF-8" standalone="no"?>
<!DOCTYPE svg PUBLIC "-//W3C//DTD SVG 1.1//EN"
 "http://www.w3.org/Graphics/SVG/1.1/DTD/svg11.dtd">
<!-- Generated by graphviz version 2.36.0 (20140111.2315)
 -->
<!-- Title: G Pages: 1 -->
<svg width="100%" height="100%"
 viewBox="0.00 0.00 224.28 215.15" xmlns="http://www.w3.org/2000/svg" xmlns:xlink="http://www.w3.org/1999/xlink">
<g id="graph0" class="graph" transform="scale(1 1) rotate(0) translate(4 211.15)">
<title>G</title>
<!-- 0 -->
<g id="node1" class="node"><title>0</title>
<ellipse fill="cadetblue" stroke="black" cx="128.634" cy="-99.6429" rx="21.4286" ry="21.4286"/>
<text text-anchor="middle" x="128.634" y="-94.6429" font-family="Times New Roman,serif" font-size="20.00">2</text>
</g>
<!-- 5 -->
<g id="node6" class="node"><title>5</title>
<ellipse fill="cadetblue" stroke="black" cx="21.859" cy="-80.1071" rx="21.4286" ry="21.4286"/>
<text text-anchor="middle" x="21.859" y="-75.1071" font-family="Times New Roman,serif" font-size="20.00">2</text>
</g>
<!-- 0&#45;&gt;5 -->
<g id="edge3" class="edge"><title>0&#45;&gt;5</title>
<path fill="none" stroke="black" stroke-width="2" d="M107.539,-95.7832C92.0368,-92.947 70.7168,-89.0462 53.2225,-85.8454"/>
<polygon fill="black" stroke="black" stroke-width="2" points="53.3771,-82.3157 42.9105,-83.9587 52.1172,-89.2014 53.3771,-82.3157"/>
</g>
<!-- 6 -->
<g id="node7" class="node"><title>6</title>
<ellipse fill="cadetblue" stroke="black" cx="186.235" cy="-72.7326" rx="21.4286" ry="21.4286"/>
<text text-anchor="middle" x="186.235" y="-67.7326" font-family="Times New Roman,serif" font-size="20.00">2</text>
</g>
<!-- 0&#45;&gt;6 -->
<g id="edge4" class="edge"><title>0&#45;&gt;6</title>
<path fill="none" stroke="black" stroke-width="2" d="M148.135,-90.5323C151.138,-89.1295 154.291,-87.6561 157.445,-86.1828"/>
<polygon fill="black" stroke="black" stroke-width="2" points="159.175,-89.2376 166.754,-81.8338 156.213,-82.8956 159.175,-89.2376"/>
</g>
<!-- 7 -->
<g id="node8" class="node"><title>7</title>
<ellipse fill="cadetblue" stroke="black" cx="78.2024" cy="-127.61" rx="21.4286" ry="21.4286"/>
<text text-anchor="middle" x="78.2024" y="-122.61" font-family="Times New Roman,serif" font-size="20.00">2</text>
</g>
<!-- 0&#45;&gt;7 -->
<g id="edge5" class="edge"><title>0&#45;&gt;7</title>
<path fill="none" stroke="black" stroke-width="2" d="M109.855,-110.057C108.525,-110.794 107.169,-111.546 105.804,-112.303"/>
<polygon fill="black" stroke="black" stroke-width="2" points="103.877,-109.37 96.829,-117.28 107.272,-115.492 103.877,-109.37"/>
</g>
<!-- 1 -->
<g id="node2" class="node"><title>1</title>
<ellipse fill="cadetblue" stroke="black" cx="21.2132" cy="-182.609" rx="21.4286" ry="21.4286"/>
<text text-anchor="middle" x="21.2132" y="-177.609" font-family="Times New Roman,serif" font-size="20.00">2</text>
</g>
<!-- 1&#45;&gt;7 -->
<g id="edge8" class="edge"><title>1&#45;&gt;7</title>
<path fill="none" stroke="black" stroke-width="2" d="M36.4853,-167.87C42.3622,-162.199 49.2035,-155.596 55.6252,-149.399"/>
<polygon fill="black" stroke="black" stroke-width="2" points="58.1231,-151.852 62.8882,-142.389 53.262,-146.815 58.1231,-151.852"/>
</g>
<!-- 2 -->
<g id="node3" class="node"><title>2</title>
<ellipse fill="cadetblue" stroke="black" cx="91.7773" cy="-21.2132" rx="21.4286" ry="21.4286"/>
<text text-anchor="middle" x="91.7773" y="-16.2132" font-family="Times New Roman,serif" font-size="20.00">2</text>
</g>
<!-- 2&#45;&gt;6 -->
<g id="edge10" class="edge"><title>2&#45;&gt;6</title>
<path fill="none" stroke="black" stroke-width="2" d="M110.439,-31.3918C124.064,-38.8229 142.769,-49.025 158.188,-57.4349"/>
<polygon fill="black" stroke="black" stroke-width="2" points="156.834,-60.6832 167.289,-62.3989 160.186,-54.5378 156.834,-60.6832"/>
</g>
<!-- 3 -->
<g id="node4" class="node"><title>3</title>
<ellipse fill="cadetblue" stroke="black" cx="195.07" cy="-150.728" rx="21.4286" ry="21.4286"/>
<text text-anchor="middle" x="195.07" y="-145.728" font-family="Times New Roman,serif" font-size="20.00">2</text>
</g>
<!-- 3&#45;&gt;0 -->
<g id="edge1" class="edge"><title>3&#45;&gt;0</title>
<path fill="none" stroke="black" stroke-width="2" d="M177.961,-137.572C170.542,-131.867 161.708,-125.075 153.581,-118.825"/>
<polygon fill="black" stroke="black" stroke-width="2" points="155.516,-115.898 145.455,-112.577 151.249,-121.447 155.516,-115.898"/>
</g>
<!-- 4 -->
<g id="node5" class="node"><title>4</title>
<ellipse fill="cadetblue" stroke="black" cx="123.405" cy="-185.937" rx="21.4286" ry="21.4286"/>
<text text-anchor="middle" x="123.405" y="-180.937" font-family="Times New Roman,serif" font-size="20.00">2</text>
</g>
<!-- 4&#45;&gt;0 -->
<g id="edge2" class="edge"><title>4&#45;&gt;0</title>
<path fill="none" stroke="black" stroke-width="2" d="M124.697,-164.606C125.307,-154.545 126.047,-142.337 126.72,-131.231"/>
<polygon fill="black" stroke="black" stroke-width="2" points="130.227,-131.221 127.338,-121.028 123.24,-130.798 130.227,-131.221"/>
</g>
<!-- 4&#45;&gt;1 -->
<g id="edge6" class="edge"><title>4&#45;&gt;1</title>
<path fill="none" stroke="black" stroke-width="2" d="M101.733,-185.231C87.5469,-184.769 68.7711,-184.158 52.9189,-183.642"/>
<polygon fill="black" stroke="black" stroke-width="2" points="52.6124,-180.13 42.5038,-183.303 52.3845,-187.126 52.6124,-180.13"/>
</g>
<!-- 5&#45;&gt;1 -->
<g id="edge7" class="edge"><title>5&#45;&gt;1</title>
<path fill="none" stroke="black" stroke-width="2" d="M21.7252,-101.346C21.6349,-115.68 21.5141,-134.851 21.4125,-150.973"/>
<polygon fill="black" stroke="black" stroke-width="2" points="17.9122,-151.023 21.3491,-161.045 24.9121,-151.068 17.9122,-151.023"/>
</g>
<!-- 5&#45;&gt;2 -->
<g id="edge9" class="edge"><title>5&#45;&gt;2</title>
<path fill="none" stroke="black" stroke-width="2" d="M38.4287,-66.15C47.1361,-58.8155 57.9714,-49.6887 67.5979,-41.5801"/>
<polygon fill="black" stroke="black" stroke-width="2" points="69.9331,-44.1893 75.3265,-35.07 65.4234,-38.8355 69.9331,-44.1893"/>
</g>
<!-- 6&#45;&gt;3 -->
<g id="edge12" class="edge"><title>6&#45;&gt;3</title>
<path fill="none" stroke="black" stroke-width="2" d="M188.649,-94.0451C189.535,-101.869 190.558,-110.898 191.523,-119.417"/>
<polygon fill="black" stroke="black" stroke-width="2" points="188.055,-119.898 192.659,-129.441 195.011,-119.11 188.055,-119.898"/>
</g>
<!-- 6&#45;&gt;4 -->
<g id="edge14" class="edge"><title>6&#45;&gt;4</title>
<path fill="none" stroke="black" stroke-width="2" d="M175.86,-91.4261C165.765,-109.615 150.305,-137.471 138.78,-158.235"/>
<polygon fill="black" stroke="black" stroke-width="2" points="135.588,-156.774 133.795,-167.216 141.709,-160.171 135.588,-156.774"/>
</g>
<!-- 7&#45;&gt;2 -->
<g id="edge11" class="edge"><title>7&#45;&gt;2</title>
<path fill="none" stroke="black" stroke-width="2" d="M80.9168,-106.335C82.8775,-90.9673 85.5577,-69.9603 87.765,-52.6605"/>
<polygon fill="black" stroke="black" stroke-width="2" points="91.2737,-52.8142 89.0675,-42.4516 84.33,-51.9282 91.2737,-52.8142"/>
</g>
<!-- 7&#45;&gt;3 -->
<g id="edge13" class="edge"><title>7&#45;&gt;3</title>
<path fill="none" stroke="black" stroke-width="2" d="M99.0959,-131.743C117.181,-135.32 143.586,-140.544 164.124,-144.606"/>
<polygon fill="black" stroke="black" stroke-width="2" points="163.474,-148.045 173.963,-146.552 164.832,-141.178 163.474,-148.045"/>
</g>
<!-- 7&#45;&gt;4 -->
<g id="edge15" class="edge"><title>7&#45;&gt;4</title>
<path fill="none" stroke="black" stroke-width="2" d="M91.2768,-144.481C95.2711,-149.635 99.7512,-155.416 104.069,-160.987"/>
<polygon fill="black" stroke="black" stroke-width="2" points="101.311,-163.142 110.203,-168.902 106.844,-158.854 101.311,-163.142"/>
</g>
<!-- 7&#45;&gt;5 -->
<g id="edge16" class="edge"><title>7&#45;&gt;5</title>
<path fill="none" stroke="black" stroke-width="2" d="M61.9056,-113.87C56.9269,-109.673 51.3425,-104.964 45.9606,-100.427"/>
<polygon fill="black" stroke="black" stroke-width="2" points="48.2159,-97.7505 38.3144,-93.9805 43.7038,-103.102 48.2159,-97.7505"/>
</g>
</g>
</svg>

