<?xml version="1.0" encoding="UTF-8" standalone="no"?>
<!DOCTYPE svg PUBLIC "-//W3C//DTD SVG 1.1//EN"
 "http://www.w3.org/Graphics/SVG/1.1/DTD/svg11.dtd">
<!-- Generated by graphviz version 2.36.0 (20140111.2315)
 -->
<!-- Title: G Pages: 1 -->
<svg width="100%" height="100%"
 viewBox="0.00 0.00 202.54 213.87" xmlns="http://www.w3.org/2000/svg" xmlns:xlink="http://www.w3.org/1999/xlink">
<g id="graph0" class="graph" transform="scale(1 1) rotate(0) translate(4 209.871)">
<title>G</title>
<!-- 0 -->
<g id="node1" class="node"><title>0</title>
<ellipse fill="cadetblue" stroke="black" cx="89.8034" cy="-184.658" rx="21.4286" ry="21.4286"/>
<text text-anchor="middle" x="89.8034" y="-179.658" font-family="Times New Roman,serif" font-size="20.00">2</text>
</g>
<!-- 5 -->
<g id="node6" class="node"><title>5</title>
<ellipse fill="cadetblue" stroke="black" cx="24.5986" cy="-147.856" rx="21.4286" ry="21.4286"/>
<text text-anchor="middle" x="24.5986" y="-142.856" font-family="Times New Roman,serif" font-size="20.00">2</text>
</g>
<!-- 0&#45;&gt;5 -->
<g id="edge3" class="edge"><title>0&#45;&gt;5</title>
<path fill="none" stroke="black" stroke-width="2" d="M71.2927,-174.211C65.4238,-170.898 58.8006,-167.16 52.4262,-163.562"/>
<polygon fill="black" stroke="black" stroke-width="2" points="53.811,-160.325 43.382,-158.457 50.3703,-166.421 53.811,-160.325"/>
</g>
<!-- 6 -->
<g id="node7" class="node"><title>6</title>
<ellipse fill="cadetblue" stroke="black" cx="136.019" cy="-87.889" rx="21.4286" ry="21.4286"/>
<text text-anchor="middle" x="136.019" y="-82.889" font-family="Times New Roman,serif" font-size="20.00">2</text>
</g>
<!-- 0&#45;&gt;6 -->
<g id="edge4" class="edge"><title>0&#45;&gt;6</title>
<path fill="none" stroke="black" stroke-width="2" d="M99.1558,-165.076C105.84,-151.081 114.937,-132.031 122.422,-116.359"/>
<polygon fill="black" stroke="black" stroke-width="2" points="125.687,-117.644 126.838,-107.112 119.37,-114.628 125.687,-117.644"/>
</g>
<!-- 1 -->
<g id="node2" class="node"><title>1</title>
<ellipse fill="cadetblue" stroke="black" cx="21.2132" cy="-50.5985" rx="21.4286" ry="21.4286"/>
<text text-anchor="middle" x="21.2132" y="-45.5985" font-family="Times New Roman,serif" font-size="20.00">2</text>
</g>
<!-- 1&#45;&gt;6 -->
<g id="edge7" class="edge"><title>1&#45;&gt;6</title>
<path fill="none" stroke="black" stroke-width="2" d="M42.1957,-53.7487C52.273,-55.5226 64.4486,-58.0511 75.1154,-61.3473 83.6643,-63.989 85.4272,-65.6799 93.6383,-69.2351 97.9032,-71.0817 102.403,-73.0456 106.815,-74.9797"/>
<polygon fill="black" stroke="black" stroke-width="2" points="105.642,-78.2873 116.205,-79.1088 108.459,-71.8795 105.642,-78.2873"/>
</g>
<!-- 7 -->
<g id="node8" class="node"><title>7</title>
<ellipse fill="brown" stroke="black" cx="103.475" cy="-24.5438" rx="21.4286" ry="21.4286"/>
<text text-anchor="middle" x="103.475" y="-19.5438" font-family="Times New Roman,serif" font-size="20.00">3</text>
</g>
<!-- 1&#45;&gt;7 -->
<g id="edge8" class="edge"><title>1&#45;&gt;7</title>
<path fill="none" stroke="black" stroke-width="2" d="M41.5475,-44.158C51.1382,-41.1204 62.7761,-37.4343 73.3626,-34.0812"/>
<polygon fill="black" stroke="black" stroke-width="2" points="74.6128,-37.3567 83.0893,-31.0005 72.4992,-30.6834 74.6128,-37.3567"/>
</g>
<!-- 2 -->
<g id="node3" class="node"><title>2</title>
<ellipse fill="cadetblue" stroke="black" cx="173.33" cy="-21.2132" rx="21.4286" ry="21.4286"/>
<text text-anchor="middle" x="173.33" y="-16.2132" font-family="Times New Roman,serif" font-size="20.00">2</text>
</g>
<!-- 2&#45;&gt;7 -->
<g id="edge11" class="edge"><title>2&#45;&gt;7</title>
<path fill="none" stroke="black" stroke-width="2" d="M151.991,-22.2306C146.575,-22.4888 140.642,-22.7717 134.841,-23.0483"/>
<polygon fill="black" stroke="black" stroke-width="2" points="134.504,-19.5603 124.682,-23.5326 134.838,-26.5523 134.504,-19.5603"/>
</g>
<!-- 3 -->
<g id="node4" class="node"><title>3</title>
<ellipse fill="cadetblue" stroke="black" cx="140.235" cy="-148.806" rx="21.4286" ry="21.4286"/>
<text text-anchor="middle" x="140.235" y="-143.806" font-family="Times New Roman,serif" font-size="20.00">2</text>
</g>
<!-- 3&#45;&gt;0 -->
<g id="edge1" class="edge"><title>3&#45;&gt;0</title>
<path fill="none" stroke="black" stroke-width="2" d="M122.879,-161.144C120.529,-162.815 118.077,-164.558 115.617,-166.307"/>
<polygon fill="black" stroke="black" stroke-width="2" points="113.485,-163.528 107.362,-172.175 117.54,-169.234 113.485,-163.528"/>
</g>
<!-- 3&#45;&gt;5 -->
<g id="edge12" class="edge"><title>3&#45;&gt;5</title>
<path fill="none" stroke="black" stroke-width="2" d="M118.756,-148.629C101.15,-148.485 75.9839,-148.278 56.0984,-148.115"/>
<polygon fill="black" stroke="black" stroke-width="2" points="55.9913,-144.614 45.9629,-148.031 55.9338,-151.613 55.9913,-144.614"/>
</g>
<!-- 4 -->
<g id="node5" class="node"><title>4</title>
<ellipse fill="cadetblue" stroke="black" cx="74.8554" cy="-87.6504" rx="21.4286" ry="21.4286"/>
<text text-anchor="middle" x="74.8554" y="-82.6504" font-family="Times New Roman,serif" font-size="20.00">2</text>
</g>
<!-- 4&#45;&gt;0 -->
<g id="edge2" class="edge"><title>4&#45;&gt;0</title>
<path fill="none" stroke="black" stroke-width="2" d="M78.0989,-108.7C80.1164,-121.793 82.7473,-138.866 85.0036,-153.509"/>
<polygon fill="black" stroke="black" stroke-width="2" points="81.584,-154.3 86.5662,-163.65 88.5024,-153.234 81.584,-154.3"/>
</g>
<!-- 4&#45;&gt;1 -->
<g id="edge5" class="edge"><title>4&#45;&gt;1</title>
<path fill="none" stroke="black" stroke-width="2" d="M57.2909,-75.5182C54.0826,-73.3021 50.6729,-70.947 47.2793,-68.6029"/>
<polygon fill="black" stroke="black" stroke-width="2" points="49.218,-65.6883 39.0008,-62.8848 45.2396,-71.4479 49.218,-65.6883"/>
</g>
<!-- 4&#45;&gt;2 -->
<g id="edge9" class="edge"><title>4&#45;&gt;2</title>
<path fill="none" stroke="black" stroke-width="2" d="M92.4606,-75.7727C107.63,-65.5385 129.746,-50.6176 147.017,-38.9653"/>
<polygon fill="black" stroke="black" stroke-width="2" points="149.213,-41.7063 155.545,-33.212 145.298,-35.9034 149.213,-41.7063"/>
</g>
<!-- 5&#45;&gt;1 -->
<g id="edge6" class="edge"><title>5&#45;&gt;1</title>
<path fill="none" stroke="black" stroke-width="2" d="M23.8473,-126.271C23.3958,-113.302 22.8134,-96.5696 22.3111,-82.1379"/>
<polygon fill="black" stroke="black" stroke-width="2" points="25.8083,-81.9949 21.9624,-72.1227 18.8125,-82.2385 25.8083,-81.9949"/>
</g>
<!-- 5&#45;&gt;4 -->
<g id="edge15" class="edge"><title>5&#45;&gt;4</title>
<path fill="none" stroke="black" stroke-width="2" d="M38.3315,-131.404C43.3176,-125.431 49.0631,-118.548 54.4992,-112.036"/>
<polygon fill="black" stroke="black" stroke-width="2" points="57.4177,-114.002 61.1391,-104.082 52.0439,-109.516 57.4177,-114.002"/>
</g>
<!-- 6&#45;&gt;2 -->
<g id="edge10" class="edge"><title>6&#45;&gt;2</title>
<path fill="none" stroke="black" stroke-width="2" d="M146.412,-69.3161C149.911,-63.0641 153.895,-55.944 157.706,-49.1338"/>
<polygon fill="black" stroke="black" stroke-width="2" points="160.904,-50.5856 162.733,-40.1498 154.795,-47.1673 160.904,-50.5856"/>
</g>
<!-- 6&#45;&gt;3 -->
<g id="edge13" class="edge"><title>6&#45;&gt;3</title>
<path fill="none" stroke="black" stroke-width="2" d="M137.493,-109.195C137.672,-111.776 137.857,-114.455 138.044,-117.146"/>
<polygon fill="black" stroke="black" stroke-width="2" points="134.572,-117.674 138.754,-127.409 141.555,-117.191 134.572,-117.674"/>
</g>
<!-- 6&#45;&gt;7 -->
<g id="edge17" class="edge"><title>6&#45;&gt;7</title>
<path fill="none" stroke="black" stroke-width="2" d="M126.255,-68.8834C123.616,-63.7472 120.704,-58.079 117.869,-52.5607"/>
<polygon fill="black" stroke="black" stroke-width="2" points="120.915,-50.8314 113.232,-43.536 114.689,-54.0303 120.915,-50.8314"/>
</g>
<!-- 7&#45;&gt;3 -->
<g id="edge14" class="edge"><title>7&#45;&gt;3</title>
<path fill="none" stroke="black" stroke-width="2" d="M104.024,-45.9136C104.727,-58.3131 106.287,-74.1415 109.715,-87.8577 111.884,-96.5385 113.561,-98.3832 117.397,-106.467 119.666,-111.249 122.211,-116.258 124.757,-121.088"/>
<polygon fill="black" stroke="black" stroke-width="2" points="121.759,-122.904 129.58,-130.051 127.924,-119.587 121.759,-122.904"/>
</g>
<!-- 7&#45;&gt;4 -->
<g id="edge16" class="edge"><title>7&#45;&gt;4</title>
<path fill="none" stroke="black" stroke-width="2" d="M94.5763,-44.1652C92.4565,-48.8394 90.1509,-53.9233 87.8882,-58.9126"/>
<polygon fill="black" stroke="black" stroke-width="2" points="84.5928,-57.705 83.65,-68.2579 90.9678,-60.5962 84.5928,-57.705"/>
</g>
</g>
</svg>

