<?xml version="1.0" encoding="UTF-8" standalone="no"?>
<!DOCTYPE svg PUBLIC "-//W3C//DTD SVG 1.1//EN"
 "http://www.w3.org/Graphics/SVG/1.1/DTD/svg11.dtd">
<!-- Generated by graphviz version 2.36.0 (20140111.2315)
 -->
<!-- Title: G Pages: 1 -->
<svg width="100%" height="100%"
 viewBox="0.00 0.00 191.81 220.77" xmlns="http://www.w3.org/2000/svg" xmlns:xlink="http://www.w3.org/1999/xlink">
<g id="graph0" class="graph" transform="scale(1 1) rotate(0) translate(4 216.773)">
<title>G</title>
<!-- 0 -->
<g id="node1" class="node"><title>0</title>
<ellipse fill="cadetblue" stroke="black" cx="21.9047" cy="-64.4705" rx="21.4286" ry="21.4286"/>
<text text-anchor="middle" x="21.9047" y="-59.4705" font-family="Times New Roman,serif" font-size="20.00">2</text>
</g>
<!-- 7 -->
<g id="node8" class="node"><title>7</title>
<ellipse fill="brown" stroke="black" cx="95.8555" cy="-106.546" rx="21.4286" ry="21.4286"/>
<text text-anchor="middle" x="95.8555" y="-101.546" font-family="Times New Roman,serif" font-size="20.00">3</text>
</g>
<!-- 0&#45;&gt;7 -->
<g id="edge3" class="edge"><title>0&#45;&gt;7</title>
<path fill="none" stroke="black" stroke-width="2" d="M40.5656,-75.088C48.9734,-79.8718 59.0715,-85.6173 68.3239,-90.8816"/>
<polygon fill="black" stroke="black" stroke-width="2" points="66.7781,-94.029 77.2006,-95.9322 70.2398,-87.9448 66.7781,-94.029"/>
</g>
<!-- 1 -->
<g id="node2" class="node"><title>1</title>
<ellipse fill="cadetblue" stroke="black" cx="132.122" cy="-191.56" rx="21.4286" ry="21.4286"/>
<text text-anchor="middle" x="132.122" y="-186.56" font-family="Times New Roman,serif" font-size="20.00">2</text>
</g>
<!-- 6 -->
<g id="node7" class="node"><title>6</title>
<ellipse fill="brown" stroke="black" cx="162.602" cy="-106.311" rx="21.4286" ry="21.4286"/>
<text text-anchor="middle" x="162.602" y="-101.311" font-family="Times New Roman,serif" font-size="20.00">3</text>
</g>
<!-- 1&#45;&gt;6 -->
<g id="edge6" class="edge"><title>1&#45;&gt;6</title>
<path fill="none" stroke="black" stroke-width="2" d="M139.345,-171.357C143.141,-160.74 147.864,-147.529 152.061,-135.792"/>
<polygon fill="black" stroke="black" stroke-width="2" points="155.359,-136.963 155.43,-126.369 148.768,-134.607 155.359,-136.963"/>
</g>
<!-- 1&#45;&gt;7 -->
<g id="edge7" class="edge"><title>1&#45;&gt;7</title>
<path fill="none" stroke="black" stroke-width="2" d="M123.71,-171.842C119.133,-161.113 113.382,-147.632 108.297,-135.71"/>
<polygon fill="black" stroke="black" stroke-width="2" points="111.364,-133.982 104.221,-126.157 104.926,-136.728 111.364,-133.982"/>
</g>
<!-- 2 -->
<g id="node3" class="node"><title>2</title>
<ellipse fill="cadetblue" stroke="black" cx="72.3362" cy="-41.7102" rx="21.4286" ry="21.4286"/>
<text text-anchor="middle" x="72.3362" y="-36.7102" font-family="Times New Roman,serif" font-size="20.00">2</text>
</g>
<!-- 2&#45;&gt;6 -->
<g id="edge10" class="edge"><title>2&#45;&gt;6</title>
<path fill="none" stroke="black" stroke-width="2" d="M89.7403,-54.1659C103.102,-63.7284 121.757,-77.0796 136.846,-87.8783"/>
<polygon fill="black" stroke="black" stroke-width="2" points="135.082,-90.9198 145.251,-93.8935 139.156,-85.2274 135.082,-90.9198"/>
</g>
<!-- 2&#45;&gt;7 -->
<g id="edge11" class="edge"><title>2&#45;&gt;7</title>
<path fill="none" stroke="black" stroke-width="2" d="M79.6489,-61.8694C81.3581,-66.5811 83.2143,-71.698 85.0399,-76.7307"/>
<polygon fill="black" stroke="black" stroke-width="2" points="81.766,-77.9693 88.4663,-86.1763 88.3464,-75.5822 81.766,-77.9693"/>
</g>
<!-- 3 -->
<g id="node4" class="node"><title>3</title>
<ellipse fill="cadetblue" stroke="black" cx="73.3136" cy="-171.726" rx="21.4286" ry="21.4286"/>
<text text-anchor="middle" x="73.3136" y="-166.726" font-family="Times New Roman,serif" font-size="20.00">2</text>
</g>
<!-- 3&#45;&gt;0 -->
<g id="edge1" class="edge"><title>3&#45;&gt;0</title>
<path fill="none" stroke="black" stroke-width="2" d="M64.1228,-152.551C56.1672,-135.953 44.5518,-111.72 35.5174,-92.8709"/>
<polygon fill="black" stroke="black" stroke-width="2" points="38.6679,-91.3462 31.1894,-83.8413 32.3555,-94.3718 38.6679,-91.3462"/>
</g>
<!-- 3&#45;&gt;1 -->
<g id="edge4" class="edge"><title>3&#45;&gt;1</title>
<path fill="none" stroke="black" stroke-width="2" d="M93.552,-178.552C96.293,-179.477 99.1521,-180.441 102.02,-181.408"/>
<polygon fill="black" stroke="black" stroke-width="2" points="101.052,-184.775 111.646,-184.655 103.289,-178.142 101.052,-184.775"/>
</g>
<!-- 5 -->
<g id="node6" class="node"><title>5</title>
<ellipse fill="cadetblue" stroke="black" cx="21.2132" cy="-148.33" rx="21.4286" ry="21.4286"/>
<text text-anchor="middle" x="21.2132" y="-143.33" font-family="Times New Roman,serif" font-size="20.00">2</text>
</g>
<!-- 3&#45;&gt;5 -->
<g id="edge12" class="edge"><title>3&#45;&gt;5</title>
<path fill="none" stroke="black" stroke-width="2" d="M53.9134,-163.015C52.7091,-162.474 51.4845,-161.924 50.2509,-161.37"/>
<polygon fill="black" stroke="black" stroke-width="2" points="51.3597,-158.031 40.8034,-157.127 48.4921,-164.417 51.3597,-158.031"/>
</g>
<!-- 4 -->
<g id="node5" class="node"><title>4</title>
<ellipse fill="cadetblue" stroke="black" cx="131.746" cy="-21.2132" rx="21.4286" ry="21.4286"/>
<text text-anchor="middle" x="131.746" y="-16.2132" font-family="Times New Roman,serif" font-size="20.00">2</text>
</g>
<!-- 4&#45;&gt;0 -->
<g id="edge2" class="edge"><title>4&#45;&gt;0</title>
<path fill="none" stroke="black" stroke-width="2" d="M118.736,-38.0127C107.903,-50.1582 91.2288,-64.9496 72.2974,-68.0145 66.1965,-69.0023 59.636,-69.1777 53.3312,-68.9131"/>
<polygon fill="black" stroke="black" stroke-width="2" points="53.3291,-65.4025 43.0883,-68.1183 52.7875,-72.3816 53.3291,-65.4025"/>
</g>
<!-- 4&#45;&gt;2 -->
<g id="edge8" class="edge"><title>4&#45;&gt;2</title>
<path fill="none" stroke="black" stroke-width="2" d="M111.633,-28.1526C108.536,-29.221 105.283,-30.3433 102.03,-31.4655"/>
<polygon fill="black" stroke="black" stroke-width="2" points="100.741,-28.2079 92.429,-34.778 103.024,-34.8251 100.741,-28.2079"/>
</g>
<!-- 5&#45;&gt;1 -->
<g id="edge5" class="edge"><title>5&#45;&gt;1</title>
<path fill="none" stroke="black" stroke-width="2" d="M42.3937,-145.006C51.915,-144.06 63.2583,-143.696 73.3573,-145.422 88.0285,-147.93 101.354,-157.46 111.593,-167.213"/>
<polygon fill="black" stroke="black" stroke-width="2" points="109.306,-169.881 118.792,-174.601 114.32,-164.996 109.306,-169.881"/>
</g>
<!-- 5&#45;&gt;2 -->
<g id="edge9" class="edge"><title>5&#45;&gt;2</title>
<path fill="none" stroke="black" stroke-width="2" d="M30.5899,-128.775C38.445,-112.392 49.7639,-88.786 58.6346,-70.2857"/>
<polygon fill="black" stroke="black" stroke-width="2" points="61.8512,-71.6723 63.0189,-61.142 55.5393,-68.6458 61.8512,-71.6723"/>
</g>
<!-- 6&#45;&gt;3 -->
<g id="edge13" class="edge"><title>6&#45;&gt;3</title>
<path fill="none" stroke="black" stroke-width="2" d="M145.386,-118.924C132.169,-128.607 113.716,-142.127 98.7903,-153.061"/>
<polygon fill="black" stroke="black" stroke-width="2" points="96.4747,-150.419 90.4764,-159.152 100.612,-156.066 96.4747,-150.419"/>
</g>
<!-- 6&#45;&gt;4 -->
<g id="edge15" class="edge"><title>6&#45;&gt;4</title>
<path fill="none" stroke="black" stroke-width="2" d="M155.289,-86.1439C151.447,-75.5461 146.665,-62.3584 142.417,-50.642"/>
<polygon fill="black" stroke="black" stroke-width="2" points="145.705,-49.4434 139.006,-41.2354 139.124,-51.8296 145.705,-49.4434"/>
</g>
<!-- 7&#45;&gt;3 -->
<g id="edge14" class="edge"><title>7&#45;&gt;3</title>
<path fill="none" stroke="black" stroke-width="2" d="M88.8467,-126.812C87.2086,-131.549 85.4295,-136.693 83.6798,-141.753"/>
<polygon fill="black" stroke="black" stroke-width="2" points="80.3565,-140.654 80.3958,-151.248 86.9721,-142.942 80.3565,-140.654"/>
</g>
<!-- 7&#45;&gt;4 -->
<g id="edge16" class="edge"><title>7&#45;&gt;4</title>
<path fill="none" stroke="black" stroke-width="2" d="M104.18,-86.7547C108.755,-75.8769 114.515,-62.1826 119.585,-50.1282"/>
<polygon fill="black" stroke="black" stroke-width="2" points="122.816,-51.4723 123.467,-40.8975 116.364,-48.7584 122.816,-51.4723"/>
</g>
<!-- 7&#45;&gt;5 -->
<g id="edge17" class="edge"><title>7&#45;&gt;5</title>
<path fill="none" stroke="black" stroke-width="2" d="M77.0201,-117.09C68.4689,-121.877 58.1856,-127.634 48.7886,-132.894"/>
<polygon fill="black" stroke="black" stroke-width="2" points="46.8002,-129.996 39.784,-137.935 50.2195,-136.104 46.8002,-129.996"/>
</g>
<!-- 7&#45;&gt;6 -->
<g id="edge18" class="edge"><title>7&#45;&gt;6</title>
<path fill="none" stroke="black" stroke-width="2" d="M117.342,-106.471C121.748,-106.455 126.473,-106.438 131.147,-106.422"/>
<polygon fill="black" stroke="black" stroke-width="2" points="131.168,-109.922 141.156,-106.387 131.143,-102.922 131.168,-109.922"/>
</g>
</g>
</svg>

