<?xml version="1.0" encoding="UTF-8" standalone="no"?>
<!DOCTYPE svg PUBLIC "-//W3C//DTD SVG 1.1//EN"
 "http://www.w3.org/Graphics/SVG/1.1/DTD/svg11.dtd">
<!-- Generated by graphviz version 2.36.0 (20140111.2315)
 -->
<!-- Title: G Pages: 1 -->
<svg width="100%" height="100%"
 viewBox="0.00 0.00 181.53 217.97" xmlns="http://www.w3.org/2000/svg" xmlns:xlink="http://www.w3.org/1999/xlink">
<g id="graph0" class="graph" transform="scale(1 1) rotate(0) translate(4 213.975)">
<title>G</title>
<!-- 0 -->
<g id="node1" class="node"><title>0</title>
<ellipse fill="cadetblue" stroke="black" cx="87.0312" cy="-126.721" rx="21.4286" ry="21.4286"/>
<text text-anchor="middle" x="87.0312" y="-121.721" font-family="Times New Roman,serif" font-size="20.00">2</text>
</g>
<!-- 5 -->
<g id="node6" class="node"><title>5</title>
<ellipse fill="cadetblue" stroke="black" cx="21.2132" cy="-59.2538" rx="21.4286" ry="21.4286"/>
<text text-anchor="middle" x="21.2132" y="-54.2538" font-family="Times New Roman,serif" font-size="20.00">2</text>
</g>
<!-- 0&#45;&gt;5 -->
<g id="edge3" class="edge"><title>0&#45;&gt;5</title>
<path fill="none" stroke="black" stroke-width="2" d="M72.0961,-111.411C63.5967,-102.699 52.7899,-91.6216 43.3238,-81.9183"/>
<polygon fill="black" stroke="black" stroke-width="2" points="45.5776,-79.2165 36.0892,-74.5025 40.567,-84.1046 45.5776,-79.2165"/>
</g>
<!-- 6 -->
<g id="node7" class="node"><title>6</title>
<ellipse fill="cadetblue" stroke="black" cx="152.318" cy="-66.1366" rx="21.4286" ry="21.4286"/>
<text text-anchor="middle" x="152.318" y="-61.1366" font-family="Times New Roman,serif" font-size="20.00">2</text>
</g>
<!-- 0&#45;&gt;6 -->
<g id="edge4" class="edge"><title>0&#45;&gt;6</title>
<path fill="none" stroke="black" stroke-width="2" d="M102.835,-112.055C110.774,-104.688 120.544,-95.6223 129.298,-87.4981"/>
<polygon fill="black" stroke="black" stroke-width="2" points="131.71,-90.035 136.659,-80.6673 126.948,-84.9039 131.71,-90.035"/>
</g>
<!-- 7 -->
<g id="node8" class="node"><title>7</title>
<ellipse fill="cadetblue" stroke="black" cx="28.3641" cy="-113.985" rx="21.4286" ry="21.4286"/>
<text text-anchor="middle" x="28.3641" y="-108.985" font-family="Times New Roman,serif" font-size="20.00">2</text>
</g>
<!-- 0&#45;&gt;7 -->
<g id="edge5" class="edge"><title>0&#45;&gt;7</title>
<path fill="none" stroke="black" stroke-width="2" d="M66.1822,-122.195C63.848,-121.688 61.4353,-121.164 59.0106,-120.638"/>
<polygon fill="black" stroke="black" stroke-width="2" points="59.6609,-117.198 49.146,-118.497 58.1759,-124.038 59.6609,-117.198"/>
</g>
<!-- 1 -->
<g id="node2" class="node"><title>1</title>
<ellipse fill="cadetblue" stroke="black" cx="95.8331" cy="-76.2892" rx="21.4286" ry="21.4286"/>
<text text-anchor="middle" x="95.8331" y="-71.2892" font-family="Times New Roman,serif" font-size="20.00">2</text>
</g>
<!-- 4 -->
<g id="node5" class="node"><title>4</title>
<ellipse fill="cadetblue" stroke="black" cx="147.937" cy="-143.777" rx="21.4286" ry="21.4286"/>
<text text-anchor="middle" x="147.937" y="-138.777" font-family="Times New Roman,serif" font-size="20.00">2</text>
</g>
<!-- 1&#45;&gt;4 -->
<g id="edge6" class="edge"><title>1&#45;&gt;4</title>
<path fill="none" stroke="black" stroke-width="2" d="M108.981,-93.3192C114.86,-100.934 121.911,-110.067 128.389,-118.458"/>
<polygon fill="black" stroke="black" stroke-width="2" points="125.73,-120.741 134.612,-126.518 131.271,-116.463 125.73,-120.741"/>
</g>
<!-- 1&#45;&gt;7 -->
<g id="edge9" class="edge"><title>1&#45;&gt;7</title>
<path fill="none" stroke="black" stroke-width="2" d="M77.0392,-86.7897C70.4595,-90.4659 62.9294,-94.6731 55.7902,-98.6619"/>
<polygon fill="black" stroke="black" stroke-width="2" points="54.0799,-95.6081 47.0572,-103.541 57.4942,-101.719 54.0799,-95.6081"/>
</g>
<!-- 2 -->
<g id="node3" class="node"><title>2</title>
<ellipse fill="cadetblue" stroke="black" cx="72.6943" cy="-21.2132" rx="21.4286" ry="21.4286"/>
<text text-anchor="middle" x="72.6943" y="-16.2132" font-family="Times New Roman,serif" font-size="20.00">2</text>
</g>
<!-- 2&#45;&gt;6 -->
<g id="edge11" class="edge"><title>2&#45;&gt;6</title>
<path fill="none" stroke="black" stroke-width="2" d="M91.564,-31.8594C101.48,-37.4541 113.819,-44.4159 124.782,-50.601"/>
<polygon fill="black" stroke="black" stroke-width="2" points="123.154,-53.7012 133.584,-55.5668 126.594,-47.6046 123.154,-53.7012"/>
</g>
<!-- 3 -->
<g id="node4" class="node"><title>3</title>
<ellipse fill="cadetblue" stroke="black" cx="73.5456" cy="-188.762" rx="21.4286" ry="21.4286"/>
<text text-anchor="middle" x="73.5456" y="-183.762" font-family="Times New Roman,serif" font-size="20.00">2</text>
</g>
<!-- 3&#45;&gt;0 -->
<g id="edge1" class="edge"><title>3&#45;&gt;0</title>
<path fill="none" stroke="black" stroke-width="2" d="M78.1112,-167.757C78.8142,-164.523 79.5526,-161.126 80.2909,-157.73"/>
<polygon fill="black" stroke="black" stroke-width="2" points="83.7663,-158.219 82.4703,-147.703 76.9261,-156.732 83.7663,-158.219"/>
</g>
<!-- 4&#45;&gt;0 -->
<g id="edge2" class="edge"><title>4&#45;&gt;0</title>
<path fill="none" stroke="black" stroke-width="2" d="M127.317,-138.003C124.142,-137.113 120.807,-136.18 117.473,-135.246"/>
<polygon fill="black" stroke="black" stroke-width="2" points="118.203,-131.816 107.63,-132.489 116.316,-138.556 118.203,-131.816"/>
</g>
<!-- 4&#45;&gt;3 -->
<g id="edge13" class="edge"><title>4&#45;&gt;3</title>
<path fill="none" stroke="black" stroke-width="2" d="M129.548,-154.897C120.81,-160.181 110.192,-166.601 100.561,-172.425"/>
<polygon fill="black" stroke="black" stroke-width="2" points="98.469,-169.6 91.723,-177.77 102.091,-175.59 98.469,-169.6"/>
</g>
<!-- 5&#45;&gt;1 -->
<g id="edge7" class="edge"><title>5&#45;&gt;1</title>
<path fill="none" stroke="black" stroke-width="2" d="M41.999,-63.9991C49.1353,-65.6283 57.2824,-67.4883 65.0413,-69.2596"/>
<polygon fill="black" stroke="black" stroke-width="2" points="64.3718,-72.6967 74.9,-71.5103 65.9298,-65.8723 64.3718,-72.6967"/>
</g>
<!-- 5&#45;&gt;2 -->
<g id="edge10" class="edge"><title>5&#45;&gt;2</title>
<path fill="none" stroke="black" stroke-width="2" d="M38.3557,-46.5869C41.1911,-44.4917 44.1837,-42.2804 47.1724,-40.0719"/>
<polygon fill="black" stroke="black" stroke-width="2" points="49.4886,-42.7124 55.4512,-33.9546 45.3286,-37.0826 49.4886,-42.7124"/>
</g>
<!-- 6&#45;&gt;1 -->
<g id="edge8" class="edge"><title>6&#45;&gt;1</title>
<path fill="none" stroke="black" stroke-width="2" d="M131.285,-69.9171C129.979,-70.1517 128.652,-70.3904 127.314,-70.6308"/>
<polygon fill="black" stroke="black" stroke-width="2" points="126.295,-67.2578 117.072,-72.4717 127.533,-74.1474 126.295,-67.2578"/>
</g>
<!-- 6&#45;&gt;4 -->
<g id="edge15" class="edge"><title>6&#45;&gt;4</title>
<path fill="none" stroke="black" stroke-width="2" d="M151.121,-87.3522C150.686,-95.0551 150.185,-103.931 149.711,-112.329"/>
<polygon fill="black" stroke="black" stroke-width="2" points="146.202,-112.406 149.133,-122.587 153.191,-112.8 146.202,-112.406"/>
</g>
<!-- 7&#45;&gt;2 -->
<g id="edge12" class="edge"><title>7&#45;&gt;2</title>
<path fill="none" stroke="black" stroke-width="2" d="M37.5494,-94.7629C43.7904,-81.7019 52.1513,-64.2045 59.1524,-49.553"/>
<polygon fill="black" stroke="black" stroke-width="2" points="62.3673,-50.9429 63.5208,-40.411 56.0513,-47.9248 62.3673,-50.9429"/>
</g>
<!-- 7&#45;&gt;3 -->
<g id="edge14" class="edge"><title>7&#45;&gt;3</title>
<path fill="none" stroke="black" stroke-width="2" d="M39.5326,-132.469C44.8945,-141.343 51.4215,-152.146 57.3186,-161.905"/>
<polygon fill="black" stroke="black" stroke-width="2" points="54.3385,-163.741 62.5056,-170.49 60.3297,-160.121 54.3385,-163.741"/>
</g>
<!-- 7&#45;&gt;5 -->
<g id="edge16" class="edge"><title>7&#45;&gt;5</title>
<path fill="none" stroke="black" stroke-width="2" d="M25.5789,-92.668C25.498,-92.0489 25.4166,-91.4255 25.3347,-90.7991"/>
<polygon fill="black" stroke="black" stroke-width="2" points="28.7687,-90.0653 24.0026,-80.603 21.8277,-90.9722 28.7687,-90.0653"/>
</g>
</g>
</svg>

