<?xml version="1.0" encoding="UTF-8" standalone="no"?>
<!DOCTYPE svg PUBLIC "-//W3C//DTD SVG 1.1//EN"
 "http://www.w3.org/Graphics/SVG/1.1/DTD/svg11.dtd">
<!-- Generated by graphviz version 2.36.0 (20140111.2315)
 -->
<!-- Title: G Pages: 1 -->
<svg width="100%" height="100%"
 viewBox="0.00 0.00 216.26 260.32" xmlns="http://www.w3.org/2000/svg" xmlns:xlink="http://www.w3.org/1999/xlink">
<g id="graph0" class="graph" transform="scale(1 1) rotate(0) translate(4 256.324)">
<title>G</title>
<!-- 0 -->
<g id="node1" class="node"><title>0</title>
<ellipse fill="cadetblue" stroke="black" cx="130.826" cy="-175.592" rx="21.4286" ry="21.4286"/>
<text text-anchor="middle" x="130.826" y="-170.592" font-family="Times New Roman,serif" font-size="20.00">2</text>
</g>
<!-- 5 -->
<g id="node6" class="node"><title>5</title>
<ellipse fill="cadetblue" stroke="black" cx="38.8793" cy="-88.2142" rx="21.4286" ry="21.4286"/>
<text text-anchor="middle" x="38.8793" y="-83.2142" font-family="Times New Roman,serif" font-size="20.00">2</text>
</g>
<!-- 0&#45;&gt;5 -->
<g id="edge3" class="edge"><title>0&#45;&gt;5</title>
<path fill="none" stroke="black" stroke-width="2" d="M115.057,-161.306C102.802,-150.131 85.4374,-134.138 70.5278,-119.809 67.442,-116.843 64.2177,-113.69 61.0575,-110.567"/>
<polygon fill="black" stroke="black" stroke-width="2" points="63.4525,-108.013 53.8958,-103.439 58.5143,-112.974 63.4525,-108.013"/>
</g>
<!-- 6 -->
<g id="node7" class="node"><title>6</title>
<ellipse fill="cadetblue" stroke="black" cx="179.265" cy="-118.853" rx="21.4286" ry="21.4286"/>
<text text-anchor="middle" x="179.265" y="-113.853" font-family="Times New Roman,serif" font-size="20.00">2</text>
</g>
<!-- 0&#45;&gt;6 -->
<g id="edge4" class="edge"><title>0&#45;&gt;6</title>
<path fill="none" stroke="black" stroke-width="2" d="M144.837,-159.181C149.192,-154.08 154.086,-148.346 158.788,-142.839"/>
<polygon fill="black" stroke="black" stroke-width="2" points="161.622,-144.91 165.453,-135.032 156.298,-140.365 161.622,-144.91"/>
</g>
<!-- 7 -->
<g id="node8" class="node"><title>7</title>
<ellipse fill="cadetblue" stroke="black" cx="68.4334" cy="-213.417" rx="21.4286" ry="21.4286"/>
<text text-anchor="middle" x="68.4334" y="-208.417" font-family="Times New Roman,serif" font-size="20.00">2</text>
</g>
<!-- 0&#45;&gt;7 -->
<g id="edge5" class="edge"><title>0&#45;&gt;7</title>
<path fill="none" stroke="black" stroke-width="2" d="M112.444,-186.736C107.16,-189.94 101.282,-193.503 95.5871,-196.956"/>
<polygon fill="black" stroke="black" stroke-width="2" points="93.637,-194.045 86.9001,-202.222 97.2659,-200.031 93.637,-194.045"/>
</g>
<!-- 1 -->
<g id="node2" class="node"><title>1</title>
<ellipse fill="cadetblue" stroke="black" cx="21.2132" cy="-156.255" rx="21.4286" ry="21.4286"/>
<text text-anchor="middle" x="21.2132" y="-151.255" font-family="Times New Roman,serif" font-size="20.00">2</text>
</g>
<!-- 1&#45;&gt;6 -->
<g id="edge8" class="edge"><title>1&#45;&gt;6</title>
<path fill="none" stroke="black" stroke-width="2" d="M41.8757,-151.366C69.0898,-144.926 117.168,-133.548 148.622,-126.105"/>
<polygon fill="black" stroke="black" stroke-width="2" points="149.672,-129.453 158.597,-123.744 148.06,-122.641 149.672,-129.453"/>
</g>
<!-- 1&#45;&gt;7 -->
<g id="edge9" class="edge"><title>1&#45;&gt;7</title>
<path fill="none" stroke="black" stroke-width="2" d="M34.8712,-172.789C39.0438,-177.84 43.7239,-183.505 48.2344,-188.965"/>
<polygon fill="black" stroke="black" stroke-width="2" points="45.5752,-191.242 54.6424,-196.723 50.972,-186.784 45.5752,-191.242"/>
</g>
<!-- 2 -->
<g id="node3" class="node"><title>2</title>
<ellipse fill="cadetblue" stroke="black" cx="131.761" cy="-21.2132" rx="21.4286" ry="21.4286"/>
<text text-anchor="middle" x="131.761" y="-16.2132" font-family="Times New Roman,serif" font-size="20.00">2</text>
</g>
<!-- 4 -->
<g id="node5" class="node"><title>4</title>
<ellipse fill="cadetblue" stroke="black" cx="89.3107" cy="-101.394" rx="21.4286" ry="21.4286"/>
<text text-anchor="middle" x="89.3107" y="-96.3937" font-family="Times New Roman,serif" font-size="20.00">2</text>
</g>
<!-- 2&#45;&gt;4 -->
<g id="edge10" class="edge"><title>2&#45;&gt;4</title>
<path fill="none" stroke="black" stroke-width="2" d="M121.701,-40.2149C116.414,-50.2003 109.836,-62.626 103.991,-73.6654"/>
<polygon fill="black" stroke="black" stroke-width="2" points="100.885,-72.053 99.2987,-82.5284 107.071,-75.3283 100.885,-72.053"/>
</g>
<!-- 3 -->
<g id="node4" class="node"><title>3</title>
<ellipse fill="cadetblue" stroke="black" cx="187.051" cy="-231.111" rx="21.4286" ry="21.4286"/>
<text text-anchor="middle" x="187.051" y="-226.111" font-family="Times New Roman,serif" font-size="20.00">2</text>
</g>
<!-- 3&#45;&gt;0 -->
<g id="edge1" class="edge"><title>3&#45;&gt;0</title>
<path fill="none" stroke="black" stroke-width="2" d="M171.687,-215.94C166.109,-210.432 159.682,-204.085 153.6,-198.08"/>
<polygon fill="black" stroke="black" stroke-width="2" points="155.746,-195.28 146.171,-190.745 150.828,-200.261 155.746,-195.28"/>
</g>
<!-- 4&#45;&gt;0 -->
<g id="edge2" class="edge"><title>4&#45;&gt;0</title>
<path fill="none" stroke="black" stroke-width="2" d="M99.7869,-120.117C104.507,-128.553 110.176,-138.685 115.37,-147.968"/>
<polygon fill="black" stroke="black" stroke-width="2" points="112.416,-149.857 120.354,-156.875 118.525,-146.439 112.416,-149.857"/>
</g>
<!-- 4&#45;&gt;1 -->
<g id="edge6" class="edge"><title>4&#45;&gt;1</title>
<path fill="none" stroke="black" stroke-width="2" d="M72.4776,-114.955C64.3961,-121.466 54.5587,-129.391 45.6706,-136.552"/>
<polygon fill="black" stroke="black" stroke-width="2" points="43.4441,-133.851 37.8527,-142.85 47.8357,-139.302 43.4441,-133.851"/>
</g>
<!-- 5&#45;&gt;1 -->
<g id="edge7" class="edge"><title>5&#45;&gt;1</title>
<path fill="none" stroke="black" stroke-width="2" d="M33.4829,-108.998C32.113,-114.274 30.6125,-120.054 29.1455,-125.704"/>
<polygon fill="black" stroke="black" stroke-width="2" points="25.702,-125.04 26.5766,-135.598 32.4774,-126.799 25.702,-125.04"/>
</g>
<!-- 5&#45;&gt;2 -->
<g id="edge11" class="edge"><title>5&#45;&gt;2</title>
<path fill="none" stroke="black" stroke-width="2" d="M56.3497,-75.6118C70.3608,-65.5048 90.2296,-51.1723 106.056,-39.756"/>
<polygon fill="black" stroke="black" stroke-width="2" points="108.307,-42.4479 114.369,-33.7591 104.211,-36.7708 108.307,-42.4479"/>
</g>
<!-- 6&#45;&gt;2 -->
<g id="edge12" class="edge"><title>6&#45;&gt;2</title>
<path fill="none" stroke="black" stroke-width="2" d="M169.88,-99.5628C162.983,-85.3873 153.498,-65.8911 145.715,-49.8935"/>
<polygon fill="black" stroke="black" stroke-width="2" points="148.649,-47.9247 141.127,-40.4637 142.355,-50.9872 148.649,-47.9247"/>
</g>
<!-- 6&#45;&gt;3 -->
<g id="edge13" class="edge"><title>6&#45;&gt;3</title>
<path fill="none" stroke="black" stroke-width="2" d="M180.748,-140.232C181.917,-157.086 183.564,-180.831 184.881,-199.823"/>
<polygon fill="black" stroke="black" stroke-width="2" points="181.39,-200.078 185.574,-209.811 188.373,-199.593 181.39,-200.078"/>
</g>
<!-- 7&#45;&gt;3 -->
<g id="edge14" class="edge"><title>7&#45;&gt;3</title>
<path fill="none" stroke="black" stroke-width="2" d="M89.6398,-216.58C108.11,-219.335 135.13,-223.366 156.03,-226.483"/>
<polygon fill="black" stroke="black" stroke-width="2" points="155.621,-229.961 166.028,-227.975 156.654,-223.038 155.621,-229.961"/>
</g>
<!-- 7&#45;&gt;4 -->
<g id="edge15" class="edge"><title>7&#45;&gt;4</title>
<path fill="none" stroke="black" stroke-width="2" d="M72.3602,-192.346C75.5096,-175.448 79.9755,-151.484 83.5328,-132.397"/>
<polygon fill="black" stroke="black" stroke-width="2" points="87.01,-132.842 85.4015,-122.37 80.1285,-131.559 87.01,-132.842"/>
</g>
<!-- 7&#45;&gt;5 -->
<g id="edge16" class="edge"><title>7&#45;&gt;5</title>
<path fill="none" stroke="black" stroke-width="2" d="M63.5531,-192.742C58.8045,-172.625 51.5323,-141.818 46.1115,-118.853"/>
<polygon fill="black" stroke="black" stroke-width="2" points="49.4706,-117.848 43.7668,-108.92 42.6578,-119.456 49.4706,-117.848"/>
</g>
</g>
</svg>

