<?xml version="1.0" encoding="UTF-8" standalone="no"?>
<!DOCTYPE svg PUBLIC "-//W3C//DTD SVG 1.1//EN"
 "http://www.w3.org/Graphics/SVG/1.1/DTD/svg11.dtd">
<!-- Generated by graphviz version 2.36.0 (20140111.2315)
 -->
<!-- Title: G Pages: 1 -->
<svg width="100%" height="100%"
 viewBox="0.00 0.00 248.22 272.34" xmlns="http://www.w3.org/2000/svg" xmlns:xlink="http://www.w3.org/1999/xlink">
<g id="graph0" class="graph" transform="scale(1 1) rotate(0) translate(4 268.341)">
<title>G</title>
<!-- 0 -->
<g id="node1" class="node"><title>0</title>
<ellipse fill="cadetblue" stroke="black" cx="182.03" cy="-168.974" rx="21.4286" ry="21.4286"/>
<text text-anchor="middle" x="182.03" y="-163.974" font-family="Times New Roman,serif" font-size="20.00">2</text>
</g>
<!-- 5 -->
<g id="node6" class="node"><title>5</title>
<ellipse fill="cadetblue" stroke="black" cx="62.4211" cy="-93.0974" rx="21.4286" ry="21.4286"/>
<text text-anchor="middle" x="62.4211" y="-88.0974" font-family="Times New Roman,serif" font-size="20.00">2</text>
</g>
<!-- 0&#45;&gt;5 -->
<g id="edge3" class="edge"><title>0&#45;&gt;5</title>
<path fill="none" stroke="black" stroke-width="2" d="M161.113,-164.924C145.96,-161.266 125.511,-154.779 110.085,-144.091 99.7617,-136.938 89.9849,-127.219 82.0042,-118.184"/>
<polygon fill="black" stroke="black" stroke-width="2" points="84.6237,-115.861 75.4845,-110.501 79.2866,-120.391 84.6237,-115.861"/>
</g>
<!-- 6 -->
<g id="node7" class="node"><title>6</title>
<ellipse fill="cadetblue" stroke="black" cx="83.6169" cy="-192.696" rx="21.4286" ry="21.4286"/>
<text text-anchor="middle" x="83.6169" y="-187.696" font-family="Times New Roman,serif" font-size="20.00">2</text>
</g>
<!-- 0&#45;&gt;6 -->
<g id="edge4" class="edge"><title>0&#45;&gt;6</title>
<path fill="none" stroke="black" stroke-width="2" d="M161.159,-174.005C147.59,-177.276 129.659,-181.598 114.458,-185.262"/>
<polygon fill="black" stroke="black" stroke-width="2" points="113.359,-181.927 104.458,-187.673 114.999,-188.732 113.359,-181.927"/>
</g>
<!-- 7 -->
<g id="node8" class="node"><title>7</title>
<ellipse fill="brown" stroke="black" cx="128.686" cy="-125.492" rx="21.4286" ry="21.4286"/>
<text text-anchor="middle" x="128.686" y="-120.492" font-family="Times New Roman,serif" font-size="20.00">3</text>
</g>
<!-- 0&#45;&gt;7 -->
<g id="edge5" class="edge"><title>0&#45;&gt;7</title>
<path fill="none" stroke="black" stroke-width="2" d="M165.444,-155.454C161.568,-152.294 157.358,-148.863 153.217,-145.488"/>
<polygon fill="black" stroke="black" stroke-width="2" points="155.408,-142.758 145.445,-139.153 150.985,-148.184 155.408,-142.758"/>
</g>
<!-- 1 -->
<g id="node2" class="node"><title>1</title>
<ellipse fill="cadetblue" stroke="black" cx="21.2132" cy="-176.653" rx="21.4286" ry="21.4286"/>
<text text-anchor="middle" x="21.2132" y="-171.653" font-family="Times New Roman,serif" font-size="20.00">2</text>
</g>
<!-- 1&#45;&gt;6 -->
<g id="edge8" class="edge"><title>1&#45;&gt;6</title>
<path fill="none" stroke="black" stroke-width="2" d="M41.9927,-181.995C45.5339,-182.906 49.2773,-183.868 53.0095,-184.827"/>
<polygon fill="black" stroke="black" stroke-width="2" points="52.1588,-188.223 62.7153,-187.323 53.9018,-181.443 52.1588,-188.223"/>
</g>
<!-- 1&#45;&gt;7 -->
<g id="edge9" class="edge"><title>1&#45;&gt;7</title>
<path fill="none" stroke="black" stroke-width="2" d="M40.4272,-167.506C57.0587,-159.589 81.3412,-148.03 100.228,-139.039"/>
<polygon fill="black" stroke="black" stroke-width="2" points="101.751,-142.19 109.276,-134.732 98.7424,-135.87 101.751,-142.19"/>
</g>
<!-- 2 -->
<g id="node3" class="node"><title>2</title>
<ellipse fill="cadetblue" stroke="black" cx="132.448" cy="-21.2132" rx="21.4286" ry="21.4286"/>
<text text-anchor="middle" x="132.448" y="-16.2132" font-family="Times New Roman,serif" font-size="20.00">2</text>
</g>
<!-- 4 -->
<g id="node5" class="node"><title>4</title>
<ellipse fill="cadetblue" stroke="black" cx="219.003" cy="-75.4608" rx="21.4286" ry="21.4286"/>
<text text-anchor="middle" x="219.003" y="-70.4608" font-family="Times New Roman,serif" font-size="20.00">2</text>
</g>
<!-- 2&#45;&gt;4 -->
<g id="edge10" class="edge"><title>2&#45;&gt;4</title>
<path fill="none" stroke="black" stroke-width="2" d="M150.804,-32.7177C162.819,-40.2481 178.722,-50.2151 192.149,-58.6301"/>
<polygon fill="black" stroke="black" stroke-width="2" points="190.638,-61.8139 200.97,-64.1589 194.355,-55.8826 190.638,-61.8139"/>
</g>
<!-- 3 -->
<g id="node4" class="node"><title>3</title>
<ellipse fill="cadetblue" stroke="black" cx="124.999" cy="-243.128" rx="21.4286" ry="21.4286"/>
<text text-anchor="middle" x="124.999" y="-238.128" font-family="Times New Roman,serif" font-size="20.00">2</text>
</g>
<!-- 3&#45;&gt;0 -->
<g id="edge1" class="edge"><title>3&#45;&gt;0</title>
<path fill="none" stroke="black" stroke-width="2" d="M137.94,-226.301C145.253,-216.793 154.537,-204.721 162.698,-194.11"/>
<polygon fill="black" stroke="black" stroke-width="2" points="165.621,-196.051 168.943,-185.991 160.072,-191.784 165.621,-196.051"/>
</g>
<!-- 3&#45;&gt;1 -->
<g id="edge6" class="edge"><title>3&#45;&gt;1</title>
<path fill="none" stroke="black" stroke-width="2" d="M105.577,-233.939C93.5754,-227.99 78.0295,-219.787 64.9948,-211.274 58.4129,-206.976 51.6059,-201.925 45.3774,-197.03"/>
<polygon fill="black" stroke="black" stroke-width="2" points="47.3013,-194.085 37.3181,-190.537 42.9098,-199.536 47.3013,-194.085"/>
</g>
<!-- 4&#45;&gt;0 -->
<g id="edge2" class="edge"><title>4&#45;&gt;0</title>
<path fill="none" stroke="black" stroke-width="2" d="M211.162,-95.2926C206.064,-108.187 199.328,-125.225 193.617,-139.668"/>
<polygon fill="black" stroke="black" stroke-width="2" points="190.282,-138.584 189.86,-149.171 196.792,-141.158 190.282,-138.584"/>
</g>
<!-- 5&#45;&gt;1 -->
<g id="edge7" class="edge"><title>5&#45;&gt;1</title>
<path fill="none" stroke="black" stroke-width="2" d="M52.8636,-112.477C47.6106,-123.128 40.9976,-136.537 35.1764,-148.34"/>
<polygon fill="black" stroke="black" stroke-width="2" points="32.003,-146.862 30.7189,-157.379 38.2811,-149.958 32.003,-146.862"/>
</g>
<!-- 5&#45;&gt;2 -->
<g id="edge11" class="edge"><title>5&#45;&gt;2</title>
<path fill="none" stroke="black" stroke-width="2" d="M77.272,-77.8526C86.9275,-67.941 99.6863,-54.8437 110.503,-43.7406"/>
<polygon fill="black" stroke="black" stroke-width="2" points="113.147,-46.0413 117.618,-36.436 108.133,-41.1568 113.147,-46.0413"/>
</g>
<!-- 6&#45;&gt;3 -->
<g id="edge13" class="edge"><title>6&#45;&gt;3</title>
<path fill="none" stroke="black" stroke-width="2" d="M97.1669,-209.21C99.642,-212.226 102.272,-215.431 104.89,-218.622"/>
<polygon fill="black" stroke="black" stroke-width="2" points="102.228,-220.895 111.277,-226.405 107.639,-216.454 102.228,-220.895"/>
</g>
<!-- 6&#45;&gt;5 -->
<g id="edge16" class="edge"><title>6&#45;&gt;5</title>
<path fill="none" stroke="black" stroke-width="2" d="M79.1218,-171.574C76.1795,-157.748 72.2852,-139.449 68.9972,-123.999"/>
<polygon fill="black" stroke="black" stroke-width="2" points="72.3419,-122.9 66.837,-113.848 65.4953,-124.357 72.3419,-122.9"/>
</g>
<!-- 6&#45;&gt;7 -->
<g id="edge17" class="edge"><title>6&#45;&gt;7</title>
<path fill="none" stroke="black" stroke-width="2" d="M95.4583,-175.039C100.233,-167.919 105.843,-159.555 111.079,-151.747"/>
<polygon fill="black" stroke="black" stroke-width="2" points="114.104,-153.519 116.767,-143.264 108.291,-149.62 114.104,-153.519"/>
</g>
<!-- 7&#45;&gt;2 -->
<g id="edge12" class="edge"><title>7&#45;&gt;2</title>
<path fill="none" stroke="black" stroke-width="2" d="M129.456,-104.138C129.989,-89.3762 130.706,-69.4856 131.305,-52.8852"/>
<polygon fill="black" stroke="black" stroke-width="2" points="134.816,-52.6583 131.679,-42.5386 127.82,-52.4059 134.816,-52.6583"/>
</g>
<!-- 7&#45;&gt;3 -->
<g id="edge14" class="edge"><title>7&#45;&gt;3</title>
<path fill="none" stroke="black" stroke-width="2" d="M128.018,-146.795C127.453,-164.837 126.634,-190.962 125.992,-211.455"/>
<polygon fill="black" stroke="black" stroke-width="2" points="122.489,-211.481 125.674,-221.586 129.486,-211.7 122.489,-211.481"/>
</g>
<!-- 7&#45;&gt;4 -->
<g id="edge15" class="edge"><title>7&#45;&gt;4</title>
<path fill="none" stroke="black" stroke-width="2" d="M147.4,-115.125C160.115,-108.082 177.149,-98.6455 191.413,-90.7441"/>
<polygon fill="black" stroke="black" stroke-width="2" points="193.262,-93.7213 200.313,-85.8139 189.87,-87.598 193.262,-93.7213"/>
</g>
</g>
</svg>

