<?xml version="1.0" encoding="UTF-8" standalone="no"?>
<!DOCTYPE svg PUBLIC "-//W3C//DTD SVG 1.1//EN"
 "http://www.w3.org/Graphics/SVG/1.1/DTD/svg11.dtd">
<!-- Generated by graphviz version 2.36.0 (20140111.2315)
 -->
<!-- Title: G Pages: 1 -->
<svg width="100%" height="100%"
 viewBox="0.00 0.00 298.41 337.82" xmlns="http://www.w3.org/2000/svg" xmlns:xlink="http://www.w3.org/1999/xlink">
<g id="graph0" class="graph" transform="scale(1 1) rotate(0) translate(4 333.824)">
<title>G</title>
<!-- 0 -->
<g id="node1" class="node"><title>0</title>
<ellipse fill="cadetblue" stroke="black" cx="63.0916" cy="-129.729" rx="21.4286" ry="21.4286"/>
<text text-anchor="middle" x="63.0916" y="-124.729" font-family="Times New Roman,serif" font-size="20.00">2</text>
</g>
<!-- 6 -->
<g id="node7" class="node"><title>6</title>
<ellipse fill="cadetblue" stroke="black" cx="190.276" cy="-198.526" rx="21.4286" ry="21.4286"/>
<text text-anchor="middle" x="190.276" y="-193.526" font-family="Times New Roman,serif" font-size="20.00">2</text>
</g>
<!-- 0&#45;&gt;6 -->
<g id="edge3" class="edge"><title>0&#45;&gt;6</title>
<path fill="none" stroke="black" stroke-width="2" d="M79.7213,-143.017C90.996,-151.645 106.466,-162.761 121.162,-170.925 128.984,-175.27 131.436,-175.349 139.727,-178.712 146.417,-181.426 153.629,-184.29 160.452,-186.97"/>
<polygon fill="black" stroke="black" stroke-width="2" points="159.475,-190.346 170.063,-190.729 162.024,-183.827 159.475,-190.346"/>
</g>
<!-- 7 -->
<g id="node8" class="node"><title>7</title>
<ellipse fill="brown" stroke="black" cx="143.261" cy="-21.2132" rx="21.4286" ry="21.4286"/>
<text text-anchor="middle" x="143.261" y="-16.2132" font-family="Times New Roman,serif" font-size="20.00">3</text>
</g>
<!-- 0&#45;&gt;7 -->
<g id="edge4" class="edge"><title>0&#45;&gt;7</title>
<path fill="none" stroke="black" stroke-width="2" d="M75.9722,-112.294C89.0626,-94.5754 109.482,-66.9362 124.395,-46.7495"/>
<polygon fill="black" stroke="black" stroke-width="2" points="127.285,-48.7278 130.412,-38.6049 121.655,-44.5684 127.285,-48.7278"/>
</g>
<!-- 1 -->
<g id="node2" class="node"><title>1</title>
<ellipse fill="cadetblue" stroke="black" cx="21.2132" cy="-267.725" rx="21.4286" ry="21.4286"/>
<text text-anchor="middle" x="21.2132" y="-262.725" font-family="Times New Roman,serif" font-size="20.00">2</text>
</g>
<!-- 1&#45;&gt;6 -->
<g id="edge7" class="edge"><title>1&#45;&gt;6</title>
<path fill="none" stroke="black" stroke-width="2" d="M40.9377,-259.651C70.5083,-247.548 126.522,-224.621 160.91,-210.546"/>
<polygon fill="black" stroke="black" stroke-width="2" points="162.487,-213.682 170.416,-206.655 159.835,-207.204 162.487,-213.682"/>
</g>
<!-- 2 -->
<g id="node3" class="node"><title>2</title>
<ellipse fill="cadetblue" stroke="black" cx="263.231" cy="-27.1069" rx="21.4286" ry="21.4286"/>
<text text-anchor="middle" x="263.231" y="-22.1069" font-family="Times New Roman,serif" font-size="20.00">2</text>
</g>
<!-- 5 -->
<g id="node6" class="node"><title>5</title>
<ellipse fill="cadetblue" stroke="black" cx="139.845" cy="-152.408" rx="21.4286" ry="21.4286"/>
<text text-anchor="middle" x="139.845" y="-147.408" font-family="Times New Roman,serif" font-size="20.00">2</text>
</g>
<!-- 2&#45;&gt;5 -->
<g id="edge9" class="edge"><title>2&#45;&gt;5</title>
<path fill="none" stroke="black" stroke-width="2" d="M248.101,-42.4713C226.64,-64.2654 187.206,-104.311 162.319,-129.585"/>
<polygon fill="black" stroke="black" stroke-width="2" points="159.62,-127.337 155.098,-136.918 164.608,-132.248 159.62,-127.337"/>
</g>
<!-- 2&#45;&gt;7 -->
<g id="edge11" class="edge"><title>2&#45;&gt;7</title>
<path fill="none" stroke="black" stroke-width="2" d="M241.783,-26.0533C223.102,-25.1355 195.774,-23.793 174.636,-22.7545"/>
<polygon fill="black" stroke="black" stroke-width="2" points="174.683,-19.2527 164.523,-22.2578 174.34,-26.2443 174.683,-19.2527"/>
</g>
<!-- 3 -->
<g id="node4" class="node"><title>3</title>
<ellipse fill="cadetblue" stroke="black" cx="127.849" cy="-308.611" rx="21.4286" ry="21.4286"/>
<text text-anchor="middle" x="127.849" y="-303.611" font-family="Times New Roman,serif" font-size="20.00">2</text>
</g>
<!-- 3&#45;&gt;0 -->
<g id="edge1" class="edge"><title>3&#45;&gt;0</title>
<path fill="none" stroke="black" stroke-width="2" d="M120.546,-288.439C109.147,-256.952 87.0659,-195.955 73.8452,-159.435"/>
<polygon fill="black" stroke="black" stroke-width="2" points="77.0624,-158.039 70.3675,-149.828 70.4805,-160.422 77.0624,-158.039"/>
</g>
<!-- 3&#45;&gt;1 -->
<g id="edge5" class="edge"><title>3&#45;&gt;1</title>
<path fill="none" stroke="black" stroke-width="2" d="M107.791,-300.921C91.7054,-294.753 68.8946,-286.007 50.725,-279.04"/>
<polygon fill="black" stroke="black" stroke-width="2" points="51.7708,-275.693 41.1806,-275.381 49.2647,-282.229 51.7708,-275.693"/>
</g>
<!-- 4 -->
<g id="node5" class="node"><title>4</title>
<ellipse fill="cadetblue" stroke="black" cx="269.197" cy="-120.705" rx="21.4286" ry="21.4286"/>
<text text-anchor="middle" x="269.197" y="-115.705" font-family="Times New Roman,serif" font-size="20.00">2</text>
</g>
<!-- 4&#45;&gt;0 -->
<g id="edge2" class="edge"><title>4&#45;&gt;0</title>
<path fill="none" stroke="black" stroke-width="2" d="M247.701,-121.568C222.053,-122.605 177.875,-124.418 139.962,-126.104 124.965,-126.771 108.324,-127.551 94.3721,-128.216"/>
<polygon fill="black" stroke="black" stroke-width="2" points="94.1193,-124.724 84.2983,-128.699 94.4543,-131.716 94.1193,-124.724"/>
</g>
<!-- 4&#45;&gt;2 -->
<g id="edge8" class="edge"><title>4&#45;&gt;2</title>
<path fill="none" stroke="black" stroke-width="2" d="M267.843,-99.4661C267.078,-87.4645 266.107,-72.2276 265.253,-58.8345"/>
<polygon fill="black" stroke="black" stroke-width="2" points="268.729,-58.3428 264.6,-48.5857 261.743,-58.7882 268.729,-58.3428"/>
</g>
<!-- 5&#45;&gt;1 -->
<g id="edge6" class="edge"><title>5&#45;&gt;1</title>
<path fill="none" stroke="black" stroke-width="2" d="M124.336,-167.484C103.82,-187.426 67.5085,-222.723 43.9063,-245.666"/>
<polygon fill="black" stroke="black" stroke-width="2" points="41.457,-243.166 36.726,-252.645 46.3361,-248.185 41.457,-243.166"/>
</g>
<!-- 5&#45;&gt;3 -->
<g id="edge12" class="edge"><title>5&#45;&gt;3</title>
<path fill="none" stroke="black" stroke-width="2" d="M138.202,-173.8C136.152,-200.483 132.632,-246.326 130.272,-277.048"/>
<polygon fill="black" stroke="black" stroke-width="2" points="126.767,-276.989 129.491,-287.227 133.746,-277.525 126.767,-276.989"/>
</g>
<!-- 5&#45;&gt;4 -->
<g id="edge14" class="edge"><title>5&#45;&gt;4</title>
<path fill="none" stroke="black" stroke-width="2" d="M160.627,-147.314C181.654,-142.161 214.401,-134.135 238.435,-128.245"/>
<polygon fill="black" stroke="black" stroke-width="2" points="239.586,-131.566 248.466,-125.786 237.92,-124.767 239.586,-131.566"/>
</g>
<!-- 6&#45;&gt;2 -->
<g id="edge10" class="edge"><title>6&#45;&gt;2</title>
<path fill="none" stroke="black" stroke-width="2" d="M198.645,-178.862C211.419,-148.847 235.863,-91.412 250.741,-56.4527"/>
<polygon fill="black" stroke="black" stroke-width="2" points="254.152,-57.3769 254.847,-46.8049 247.711,-54.6356 254.152,-57.3769"/>
</g>
<!-- 6&#45;&gt;3 -->
<g id="edge13" class="edge"><title>6&#45;&gt;3</title>
<path fill="none" stroke="black" stroke-width="2" d="M179.686,-217.201C169.776,-234.676 154.845,-261.005 143.549,-280.924"/>
<polygon fill="black" stroke="black" stroke-width="2" points="140.379,-279.42 138.49,-289.845 146.468,-282.873 140.379,-279.42"/>
</g>
<!-- 6&#45;&gt;7 -->
<g id="edge17" class="edge"><title>6&#45;&gt;7</title>
<path fill="none" stroke="black" stroke-width="2" d="M184.791,-177.839C176.545,-146.742 160.907,-87.7637 151.35,-51.7223"/>
<polygon fill="black" stroke="black" stroke-width="2" points="154.657,-50.5374 148.711,-41.7685 147.891,-52.3316 154.657,-50.5374"/>
</g>
<!-- 7&#45;&gt;4 -->
<g id="edge15" class="edge"><title>7&#45;&gt;4</title>
<path fill="none" stroke="black" stroke-width="2" d="M159.984,-34.4249C181.625,-51.5215 219.507,-81.4489 244.474,-101.174"/>
<polygon fill="black" stroke="black" stroke-width="2" points="242.388,-103.986 252.404,-107.439 246.727,-98.4931 242.388,-103.986"/>
</g>
<!-- 7&#45;&gt;5 -->
<g id="edge16" class="edge"><title>7&#45;&gt;5</title>
<path fill="none" stroke="black" stroke-width="2" d="M142.704,-42.5839C142.151,-63.8355 141.296,-96.6793 140.665,-120.917"/>
<polygon fill="black" stroke="black" stroke-width="2" points="137.162,-120.959 140.401,-131.046 144.16,-121.141 137.162,-120.959"/>
</g>
</g>
</svg>

