<?xml version="1.0" encoding="UTF-8" standalone="no"?>
<!DOCTYPE svg PUBLIC "-//W3C//DTD SVG 1.1//EN"
 "http://www.w3.org/Graphics/SVG/1.1/DTD/svg11.dtd">
<!-- Generated by graphviz version 2.36.0 (20140111.2315)
 -->
<!-- Title: G Pages: 1 -->
<svg width="100%" height="100%"
 viewBox="0.00 0.00 285.02 291.29" xmlns="http://www.w3.org/2000/svg" xmlns:xlink="http://www.w3.org/1999/xlink">
<g id="graph0" class="graph" transform="scale(1 1) rotate(0) translate(4 287.292)">
<title>G</title>
<!-- 0 -->
<g id="node1" class="node"><title>0</title>
<ellipse fill="brown" stroke="black" cx="21.2132" cy="-207.637" rx="21.4286" ry="21.4286"/>
<text text-anchor="middle" x="21.2132" y="-202.637" font-family="Times New Roman,serif" font-size="20.00">3</text>
</g>
<!-- 7 -->
<g id="node8" class="node"><title>7</title>
<ellipse fill="cadetblue" stroke="black" cx="42.2759" cy="-135.104" rx="21.4286" ry="21.4286"/>
<text text-anchor="middle" x="42.2759" y="-130.104" font-family="Times New Roman,serif" font-size="20.00">2</text>
</g>
<!-- 0&#45;&gt;7 -->
<g id="edge4" class="edge"><title>0&#45;&gt;7</title>
<path fill="none" stroke="black" stroke-width="2" d="M27.1926,-187.046C29.1659,-180.251 31.4033,-172.546 33.5392,-165.191"/>
<polygon fill="black" stroke="black" stroke-width="2" points="36.9269,-166.075 36.3545,-155.495 30.2046,-164.123 36.9269,-166.075"/>
</g>
<!-- 1 -->
<g id="node2" class="node"><title>1</title>
<ellipse fill="cadetblue" stroke="black" cx="255.803" cy="-154.021" rx="21.4286" ry="21.4286"/>
<text text-anchor="middle" x="255.803" y="-149.021" font-family="Times New Roman,serif" font-size="20.00">2</text>
</g>
<!-- 4 -->
<g id="node5" class="node"><title>4</title>
<ellipse fill="cadetblue" stroke="black" cx="152.324" cy="-229.457" rx="21.4286" ry="21.4286"/>
<text text-anchor="middle" x="152.324" y="-224.457" font-family="Times New Roman,serif" font-size="20.00">2</text>
</g>
<!-- 1&#45;&gt;4 -->
<g id="edge5" class="edge"><title>1&#45;&gt;4</title>
<path fill="none" stroke="black" stroke-width="2" d="M238.249,-166.818C221.648,-178.92 196.548,-197.218 177.756,-210.917"/>
<polygon fill="black" stroke="black" stroke-width="2" points="175.638,-208.13 169.619,-216.849 179.761,-213.786 175.638,-208.13"/>
</g>
<!-- 2 -->
<g id="node3" class="node"><title>2</title>
<ellipse fill="cadetblue" stroke="black" cx="93.9141" cy="-21.2132" rx="21.4286" ry="21.4286"/>
<text text-anchor="middle" x="93.9141" y="-16.2132" font-family="Times New Roman,serif" font-size="20.00">2</text>
</g>
<!-- 6 -->
<g id="node7" class="node"><title>6</title>
<ellipse fill="cadetblue" stroke="black" cx="175.484" cy="-143.59" rx="21.4286" ry="21.4286"/>
<text text-anchor="middle" x="175.484" y="-138.59" font-family="Times New Roman,serif" font-size="20.00">2</text>
</g>
<!-- 2&#45;&gt;6 -->
<g id="edge9" class="edge"><title>2&#45;&gt;6</title>
<path fill="none" stroke="black" stroke-width="2" d="M109.636,-35.9794C120.181,-46.4463 133.89,-61.1991 143.735,-75.9469 151.635,-87.7807 158.594,-101.891 163.967,-114.154"/>
<polygon fill="black" stroke="black" stroke-width="2" points="160.807,-115.667 167.925,-123.515 167.254,-112.941 160.807,-115.667"/>
</g>
<!-- 3 -->
<g id="node4" class="node"><title>3</title>
<ellipse fill="cadetblue" stroke="black" cx="82.3878" cy="-262.078" rx="21.4286" ry="21.4286"/>
<text text-anchor="middle" x="82.3878" y="-257.078" font-family="Times New Roman,serif" font-size="20.00">2</text>
</g>
<!-- 3&#45;&gt;0 -->
<g id="edge1" class="edge"><title>3&#45;&gt;0</title>
<path fill="none" stroke="black" stroke-width="2" d="M66.3149,-247.775C59.7636,-241.944 52.0559,-235.085 44.8836,-228.702"/>
<polygon fill="black" stroke="black" stroke-width="2" points="47.1882,-226.068 37.3912,-222.034 42.5346,-231.297 47.1882,-226.068"/>
</g>
<!-- 3&#45;&gt;7 -->
<g id="edge13" class="edge"><title>3&#45;&gt;7</title>
<path fill="none" stroke="black" stroke-width="2" d="M75.9431,-241.678C69.4227,-221.037 59.2681,-188.893 51.8152,-165.301"/>
<polygon fill="black" stroke="black" stroke-width="2" points="55.0544,-163.935 48.7046,-155.454 48.3796,-166.044 55.0544,-163.935"/>
</g>
<!-- 4&#45;&gt;0 -->
<g id="edge2" class="edge"><title>4&#45;&gt;0</title>
<path fill="none" stroke="black" stroke-width="2" d="M131.259,-225.951C109.946,-222.404 76.7544,-216.88 52.3937,-212.826"/>
<polygon fill="black" stroke="black" stroke-width="2" points="52.6651,-209.323 42.2262,-211.134 51.516,-216.228 52.6651,-209.323"/>
</g>
<!-- 4&#45;&gt;3 -->
<g id="edge11" class="edge"><title>4&#45;&gt;3</title>
<path fill="none" stroke="black" stroke-width="2" d="M132.843,-238.544C126.174,-241.654 118.564,-245.204 111.311,-248.587"/>
<polygon fill="black" stroke="black" stroke-width="2" points="109.348,-245.641 101.765,-253.04 112.307,-251.985 109.348,-245.641"/>
</g>
<!-- 4&#45;&gt;6 -->
<g id="edge14" class="edge"><title>4&#45;&gt;6</title>
<path fill="none" stroke="black" stroke-width="2" d="M157.931,-208.671C160.747,-198.229 164.212,-185.38 167.318,-173.866"/>
<polygon fill="black" stroke="black" stroke-width="2" points="170.704,-174.751 169.929,-164.184 163.946,-172.928 170.704,-174.751"/>
</g>
<!-- 5 -->
<g id="node6" class="node"><title>5</title>
<ellipse fill="cadetblue" stroke="black" cx="125.052" cy="-94.4638" rx="21.4286" ry="21.4286"/>
<text text-anchor="middle" x="125.052" y="-89.4638" font-family="Times New Roman,serif" font-size="20.00">2</text>
</g>
<!-- 5&#45;&gt;0 -->
<g id="edge3" class="edge"><title>5&#45;&gt;0</title>
<path fill="none" stroke="black" stroke-width="2" d="M110.614,-110.2C93.0444,-129.349 63.2131,-161.862 42.8834,-184.019"/>
<polygon fill="black" stroke="black" stroke-width="2" points="40.0455,-181.935 35.8637,-191.67 45.2034,-186.668 40.0455,-181.935"/>
</g>
<!-- 5&#45;&gt;1 -->
<g id="edge6" class="edge"><title>5&#45;&gt;1</title>
<path fill="none" stroke="black" stroke-width="2" d="M144.751,-103.034C158.595,-109.093 177.528,-117.449 194.106,-125.012 204.989,-129.977 216.895,-135.543 227.319,-140.461"/>
<polygon fill="black" stroke="black" stroke-width="2" points="225.869,-143.647 236.405,-144.761 228.863,-137.32 225.869,-143.647"/>
</g>
<!-- 5&#45;&gt;2 -->
<g id="edge8" class="edge"><title>5&#45;&gt;2</title>
<path fill="none" stroke="black" stroke-width="2" d="M116.708,-74.834C113.497,-67.2801 109.759,-58.4868 106.25,-50.2326"/>
<polygon fill="black" stroke="black" stroke-width="2" points="109.415,-48.731 102.282,-40.8972 102.973,-51.4695 109.415,-48.731"/>
</g>
<!-- 6&#45;&gt;1 -->
<g id="edge7" class="edge"><title>6&#45;&gt;1</title>
<path fill="none" stroke="black" stroke-width="2" d="M196.587,-146.33C205.097,-147.436 215.093,-148.734 224.424,-149.946"/>
<polygon fill="black" stroke="black" stroke-width="2" points="224.195,-153.445 234.562,-151.263 225.096,-146.504 224.195,-153.445"/>
</g>
<!-- 6&#45;&gt;3 -->
<g id="edge12" class="edge"><title>6&#45;&gt;3</title>
<path fill="none" stroke="black" stroke-width="2" d="M162.343,-160.315C146.63,-180.314 120.183,-213.975 102.038,-237.069"/>
<polygon fill="black" stroke="black" stroke-width="2" points="99.1894,-235.029 95.7633,-245.054 104.694,-239.354 99.1894,-235.029"/>
</g>
<!-- 6&#45;&gt;5 -->
<g id="edge16" class="edge"><title>6&#45;&gt;5</title>
<path fill="none" stroke="black" stroke-width="2" d="M160.079,-128.583C156.168,-124.774 151.885,-120.601 147.697,-116.522"/>
<polygon fill="black" stroke="black" stroke-width="2" points="149.969,-113.849 140.363,-109.378 145.084,-118.863 149.969,-113.849"/>
</g>
<!-- 7&#45;&gt;2 -->
<g id="edge10" class="edge"><title>7&#45;&gt;2</title>
<path fill="none" stroke="black" stroke-width="2" d="M51.1529,-115.525C59.3678,-97.407 71.6796,-70.2526 80.9859,-49.7272"/>
<polygon fill="black" stroke="black" stroke-width="2" points="84.2113,-51.0891 85.1531,-40.5362 77.8359,-48.1985 84.2113,-51.0891"/>
</g>
<!-- 7&#45;&gt;4 -->
<g id="edge15" class="edge"><title>7&#45;&gt;4</title>
<path fill="none" stroke="black" stroke-width="2" d="M58.514,-149.026C76.9635,-164.844 107.25,-190.811 128.403,-208.947"/>
<polygon fill="black" stroke="black" stroke-width="2" points="126.15,-211.626 136.02,-215.477 130.706,-206.311 126.15,-211.626"/>
</g>
<!-- 7&#45;&gt;5 -->
<g id="edge17" class="edge"><title>7&#45;&gt;5</title>
<path fill="none" stroke="black" stroke-width="2" d="M61.4746,-125.678C71.922,-120.549 85.0477,-114.105 96.6559,-108.405"/>
<polygon fill="black" stroke="black" stroke-width="2" points="98.5239,-111.387 105.958,-103.839 95.4389,-105.104 98.5239,-111.387"/>
</g>
</g>
</svg>

