<?xml version="1.0" encoding="UTF-8" standalone="no"?>
<!DOCTYPE svg PUBLIC "-//W3C//DTD SVG 1.1//EN"
 "http://www.w3.org/Graphics/SVG/1.1/DTD/svg11.dtd">
<!-- Generated by graphviz version 2.36.0 (20140111.2315)
 -->
<!-- Title: G Pages: 1 -->
<svg width="100%" height="100%"
 viewBox="0.00 0.00 188.06 211.71" xmlns="http://www.w3.org/2000/svg" xmlns:xlink="http://www.w3.org/1999/xlink">
<g id="graph0" class="graph" transform="scale(1 1) rotate(0) translate(4 207.707)">
<title>G</title>
<!-- 0 -->
<g id="node1" class="node"><title>0</title>
<ellipse fill="cadetblue" stroke="black" cx="21.2132" cy="-59.7145" rx="21.4286" ry="21.4286"/>
<text text-anchor="middle" x="21.2132" y="-54.7145" font-family="Times New Roman,serif" font-size="20.00">2</text>
</g>
<!-- 7 -->
<g id="node8" class="node"><title>7</title>
<ellipse fill="cadetblue" stroke="black" cx="87.9903" cy="-101.755" rx="21.4286" ry="21.4286"/>
<text text-anchor="middle" x="87.9903" y="-96.7549" font-family="Times New Roman,serif" font-size="20.00">2</text>
</g>
<!-- 0&#45;&gt;7 -->
<g id="edge3" class="edge"><title>0&#45;&gt;7</title>
<path fill="none" stroke="black" stroke-width="2" d="M39.4603,-71.2022C46.0854,-75.3731 53.7196,-80.1793 60.9427,-84.7267"/>
<polygon fill="black" stroke="black" stroke-width="2" points="59.4379,-87.9152 69.7652,-90.2811 63.1673,-81.9914 59.4379,-87.9152"/>
</g>
<!-- 1 -->
<g id="node2" class="node"><title>1</title>
<ellipse fill="cadetblue" stroke="black" cx="127.08" cy="-182.494" rx="21.4286" ry="21.4286"/>
<text text-anchor="middle" x="127.08" y="-177.494" font-family="Times New Roman,serif" font-size="20.00">2</text>
</g>
<!-- 6 -->
<g id="node7" class="node"><title>6</title>
<ellipse fill="cadetblue" stroke="black" cx="158.845" cy="-101.814" rx="21.4286" ry="21.4286"/>
<text text-anchor="middle" x="158.845" y="-96.8143" font-family="Times New Roman,serif" font-size="20.00">2</text>
</g>
<!-- 1&#45;&gt;6 -->
<g id="edge6" class="edge"><title>1&#45;&gt;6</title>
<path fill="none" stroke="black" stroke-width="2" d="M134.932,-162.551C138.636,-153.144 143.129,-141.73 147.217,-131.347"/>
<polygon fill="black" stroke="black" stroke-width="2" points="150.566,-132.395 150.973,-121.808 144.053,-129.83 150.566,-132.395"/>
</g>
<!-- 1&#45;&gt;7 -->
<g id="edge7" class="edge"><title>1&#45;&gt;7</title>
<path fill="none" stroke="black" stroke-width="2" d="M117.817,-163.36C113.032,-153.478 107.098,-141.222 101.786,-130.25"/>
<polygon fill="black" stroke="black" stroke-width="2" points="104.831,-128.507 97.323,-121.031 98.5306,-131.557 104.831,-128.507"/>
</g>
<!-- 2 -->
<g id="node3" class="node"><title>2</title>
<ellipse fill="cadetblue" stroke="black" cx="71.6447" cy="-40.9904" rx="21.4286" ry="21.4286"/>
<text text-anchor="middle" x="71.6447" y="-35.9904" font-family="Times New Roman,serif" font-size="20.00">2</text>
</g>
<!-- 5 -->
<g id="node6" class="node"><title>5</title>
<ellipse fill="cadetblue" stroke="black" cx="21.3014" cy="-144.054" rx="21.4286" ry="21.4286"/>
<text text-anchor="middle" x="21.3014" y="-139.054" font-family="Times New Roman,serif" font-size="20.00">2</text>
</g>
<!-- 2&#45;&gt;5 -->
<g id="edge9" class="edge"><title>2&#45;&gt;5</title>
<path fill="none" stroke="black" stroke-width="2" d="M62.1755,-60.3759C54.5812,-75.9229 43.8121,-97.9696 35.2342,-115.531"/>
<polygon fill="black" stroke="black" stroke-width="2" points="31.9724,-114.234 30.7281,-124.755 38.2621,-117.306 31.9724,-114.234"/>
</g>
<!-- 2&#45;&gt;6 -->
<g id="edge10" class="edge"><title>2&#45;&gt;6</title>
<path fill="none" stroke="black" stroke-width="2" d="M89.2909,-53.299C101.819,-62.038 118.843,-73.9125 132.913,-83.7262"/>
<polygon fill="black" stroke="black" stroke-width="2" points="131.021,-86.6736 141.225,-89.5239 135.025,-80.9323 131.021,-86.6736"/>
</g>
<!-- 3 -->
<g id="node4" class="node"><title>3</title>
<ellipse fill="cadetblue" stroke="black" cx="71.7761" cy="-162.504" rx="21.4286" ry="21.4286"/>
<text text-anchor="middle" x="71.7761" y="-157.504" font-family="Times New Roman,serif" font-size="20.00">2</text>
</g>
<!-- 3&#45;&gt;0 -->
<g id="edge1" class="edge"><title>3&#45;&gt;0</title>
<path fill="none" stroke="black" stroke-width="2" d="M62.2656,-143.17C54.6382,-127.664 43.8221,-105.676 35.2067,-88.162"/>
<polygon fill="black" stroke="black" stroke-width="2" points="38.2356,-86.39 30.681,-78.9617 31.9544,-89.4798 38.2356,-86.39"/>
</g>
<!-- 3&#45;&gt;1 -->
<g id="edge4" class="edge"><title>3&#45;&gt;1</title>
<path fill="none" stroke="black" stroke-width="2" d="M91.7422,-169.721C93.5986,-170.392 95.5052,-171.081 97.4247,-171.775"/>
<polygon fill="black" stroke="black" stroke-width="2" points="96.3635,-175.113 106.958,-175.221 98.7431,-168.53 96.3635,-175.113"/>
</g>
<!-- 4 -->
<g id="node5" class="node"><title>4</title>
<ellipse fill="cadetblue" stroke="black" cx="127.106" cy="-21.2132" rx="21.4286" ry="21.4286"/>
<text text-anchor="middle" x="127.106" y="-16.2132" font-family="Times New Roman,serif" font-size="20.00">2</text>
</g>
<!-- 4&#45;&gt;0 -->
<g id="edge2" class="edge"><title>4&#45;&gt;0</title>
<path fill="none" stroke="black" stroke-width="2" d="M114.812,-38.7068C104.831,-50.8102 89.5084,-65.1186 71.6059,-67.2948 65.1508,-68.0794 58.2483,-67.7886 51.6875,-66.9753"/>
<polygon fill="black" stroke="black" stroke-width="2" points="52.2075,-63.5139 41.7724,-65.3465 51.0727,-70.4213 52.2075,-63.5139"/>
</g>
<!-- 4&#45;&gt;2 -->
<g id="edge8" class="edge"><title>4&#45;&gt;2</title>
<path fill="none" stroke="black" stroke-width="2" d="M107.083,-28.3532C105.221,-29.0171 103.309,-29.6989 101.384,-30.3854"/>
<polygon fill="black" stroke="black" stroke-width="2" points="100.068,-27.1389 91.8243,-33.7944 102.419,-33.7323 100.068,-27.1389"/>
</g>
<!-- 5&#45;&gt;1 -->
<g id="edge5" class="edge"><title>5&#45;&gt;1</title>
<path fill="none" stroke="black" stroke-width="2" d="M41.9037,-138.264C51.0471,-136.364 61.9503,-135.009 71.8197,-136.2 86.0779,-137.92 98.6569,-147.399 108.197,-157.337"/>
<polygon fill="black" stroke="black" stroke-width="2" points="105.636,-159.724 114.878,-164.904 110.883,-155.091 105.636,-159.724"/>
</g>
<!-- 6&#45;&gt;3 -->
<g id="edge12" class="edge"><title>6&#45;&gt;3</title>
<path fill="none" stroke="black" stroke-width="2" d="M141.225,-114.096C128.715,-122.815 111.717,-134.664 97.6689,-144.456"/>
<polygon fill="black" stroke="black" stroke-width="2" points="95.5719,-141.651 89.3695,-150.241 99.5747,-147.394 95.5719,-141.651"/>
</g>
<!-- 6&#45;&gt;4 -->
<g id="edge14" class="edge"><title>6&#45;&gt;4</title>
<path fill="none" stroke="black" stroke-width="2" d="M150.999,-81.8904C147.299,-72.4933 142.809,-61.0903 138.724,-50.7175"/>
<polygon fill="black" stroke="black" stroke-width="2" points="141.892,-49.2094 134.971,-41.1872 135.379,-51.7742 141.892,-49.2094"/>
</g>
<!-- 7&#45;&gt;2 -->
<g id="edge11" class="edge"><title>7&#45;&gt;2</title>
<path fill="none" stroke="black" stroke-width="2" d="M82.4564,-81.1828C81.6043,-78.0153 80.7094,-74.6883 79.8145,-71.3615"/>
<polygon fill="black" stroke="black" stroke-width="2" points="83.1504,-70.2888 77.1728,-61.5413 76.3907,-72.1072 83.1504,-70.2888"/>
</g>
<!-- 7&#45;&gt;3 -->
<g id="edge13" class="edge"><title>7&#45;&gt;3</title>
<path fill="none" stroke="black" stroke-width="2" d="M82.5009,-122.322C81.6557,-125.489 80.7679,-128.815 79.8802,-132.141"/>
<polygon fill="black" stroke="black" stroke-width="2" points="76.457,-131.394 77.2598,-141.958 83.2203,-133.199 76.457,-131.394"/>
</g>
<!-- 7&#45;&gt;4 -->
<g id="edge15" class="edge"><title>7&#45;&gt;4</title>
<path fill="none" stroke="black" stroke-width="2" d="M97.2601,-82.6677C102.048,-72.8094 107.985,-60.5836 113.301,-49.639"/>
<polygon fill="black" stroke="black" stroke-width="2" points="116.547,-50.9669 117.767,-40.4426 110.25,-47.9088 116.547,-50.9669"/>
</g>
<!-- 7&#45;&gt;5 -->
<g id="edge16" class="edge"><title>7&#45;&gt;5</title>
<path fill="none" stroke="black" stroke-width="2" d="M69.7672,-113.313C63.1509,-117.51 55.5269,-122.346 48.3133,-126.921"/>
<polygon fill="black" stroke="black" stroke-width="2" points="46.0724,-124.198 39.5024,-132.509 49.8217,-130.109 46.0724,-124.198"/>
</g>
</g>
</svg>

