<?xml version="1.0" encoding="UTF-8" standalone="no"?>
<!DOCTYPE svg PUBLIC "-//W3C//DTD SVG 1.1//EN"
 "http://www.w3.org/Graphics/SVG/1.1/DTD/svg11.dtd">
<!-- Generated by graphviz version 2.36.0 (20140111.2315)
 -->
<!-- Title: G Pages: 1 -->
<svg width="100%" height="100%"
 viewBox="0.00 0.00 398.98 254.51" xmlns="http://www.w3.org/2000/svg" xmlns:xlink="http://www.w3.org/1999/xlink">
<g id="graph0" class="graph" transform="scale(1 1) rotate(0) translate(4 250.512)">
<title>G</title>
<!-- 0 -->
<g id="node1" class="node"><title>0</title>
<ellipse fill="cadetblue" stroke="black" cx="21.2132" cy="-75.7525" rx="21.4286" ry="21.4286"/>
<text text-anchor="middle" x="21.2132" y="-70.7525" font-family="Times New Roman,serif" font-size="20.00">2</text>
</g>
<!-- 6 -->
<g id="node7" class="node"><title>6</title>
<ellipse fill="brown" stroke="black" cx="188.737" cy="-147.073" rx="21.4286" ry="21.4286"/>
<text text-anchor="middle" x="188.737" y="-142.073" font-family="Times New Roman,serif" font-size="20.00">3</text>
</g>
<!-- 0&#45;&gt;6 -->
<g id="edge3" class="edge"><title>0&#45;&gt;6</title>
<path fill="none" stroke="black" stroke-width="2" d="M40.7582,-84.0734C70.0597,-96.548 125.563,-120.178 159.639,-134.685"/>
<polygon fill="black" stroke="black" stroke-width="2" points="158.486,-137.998 169.058,-138.695 161.228,-131.557 158.486,-137.998"/>
</g>
<!-- 7 -->
<g id="node8" class="node"><title>7</title>
<ellipse fill="cadetblue" stroke="black" cx="111.62" cy="-36.7436" rx="21.4286" ry="21.4286"/>
<text text-anchor="middle" x="111.62" y="-31.7436" font-family="Times New Roman,serif" font-size="20.00">2</text>
</g>
<!-- 0&#45;&gt;7 -->
<g id="edge4" class="edge"><title>0&#45;&gt;7</title>
<path fill="none" stroke="black" stroke-width="2" d="M40.8301,-67.2881C53.0325,-62.023 68.9441,-55.1574 82.5904,-49.2693"/>
<polygon fill="black" stroke="black" stroke-width="2" points="84.2461,-52.3668 92.0412,-45.1914 81.4728,-45.9396 84.2461,-52.3668"/>
</g>
<!-- 1 -->
<g id="node2" class="node"><title>1</title>
<ellipse fill="cadetblue" stroke="black" cx="362.883" cy="-208.15" rx="21.4286" ry="21.4286"/>
<text text-anchor="middle" x="362.883" y="-203.15" font-family="Times New Roman,serif" font-size="20.00">2</text>
</g>
<!-- 1&#45;&gt;6 -->
<g id="edge7" class="edge"><title>1&#45;&gt;6</title>
<path fill="none" stroke="black" stroke-width="2" d="M342.566,-201.024C312.024,-190.312 254.099,-169.997 218.702,-157.582"/>
<polygon fill="black" stroke="black" stroke-width="2" points="219.52,-154.16 208.926,-154.153 217.204,-160.766 219.52,-154.16"/>
</g>
<!-- 2 -->
<g id="node3" class="node"><title>2</title>
<ellipse fill="cadetblue" stroke="black" cx="369.765" cy="-58.1004" rx="21.4286" ry="21.4286"/>
<text text-anchor="middle" x="369.765" y="-53.1004" font-family="Times New Roman,serif" font-size="20.00">2</text>
</g>
<!-- 2&#45;&gt;6 -->
<g id="edge10" class="edge"><title>2&#45;&gt;6</title>
<path fill="none" stroke="black" stroke-width="2" d="M350.392,-67.622C318.408,-83.342 254.407,-114.797 217.248,-133.06"/>
<polygon fill="black" stroke="black" stroke-width="2" points="215.402,-130.068 207.971,-137.62 218.49,-136.35 215.402,-130.068"/>
</g>
<!-- 3 -->
<g id="node4" class="node"><title>3</title>
<ellipse fill="cadetblue" stroke="black" cx="59.0212" cy="-225.298" rx="21.4286" ry="21.4286"/>
<text text-anchor="middle" x="59.0212" y="-220.298" font-family="Times New Roman,serif" font-size="20.00">2</text>
</g>
<!-- 3&#45;&gt;0 -->
<g id="edge1" class="edge"><title>3&#45;&gt;0</title>
<path fill="none" stroke="black" stroke-width="2" d="M53.7641,-204.505C47.3027,-178.947 36.2864,-135.373 28.881,-106.082"/>
<polygon fill="black" stroke="black" stroke-width="2" points="32.27,-105.207 26.4256,-96.3696 25.4835,-106.922 32.27,-105.207"/>
</g>
<!-- 5 -->
<g id="node6" class="node"><title>5</title>
<ellipse fill="cadetblue" stroke="black" cx="239.169" cy="-196.716" rx="21.4286" ry="21.4286"/>
<text text-anchor="middle" x="239.169" y="-191.716" font-family="Times New Roman,serif" font-size="20.00">2</text>
</g>
<!-- 3&#45;&gt;5 -->
<g id="edge11" class="edge"><title>3&#45;&gt;5</title>
<path fill="none" stroke="black" stroke-width="2" d="M80.039,-221.964C111.548,-216.964 171.234,-207.495 207.878,-201.681"/>
<polygon fill="black" stroke="black" stroke-width="2" points="208.678,-205.098 218.006,-200.074 207.581,-198.184 208.678,-205.098"/>
</g>
<!-- 4 -->
<g id="node5" class="node"><title>4</title>
<ellipse fill="cadetblue" stroke="black" cx="243.166" cy="-21.2132" rx="21.4286" ry="21.4286"/>
<text text-anchor="middle" x="243.166" y="-16.2132" font-family="Times New Roman,serif" font-size="20.00">2</text>
</g>
<!-- 4&#45;&gt;0 -->
<g id="edge2" class="edge"><title>4&#45;&gt;0</title>
<path fill="none" stroke="black" stroke-width="2" d="M222.953,-28.8155C197.378,-38.1606 151.811,-53.9013 111.619,-63.0479 92.2933,-67.4458 70.2769,-70.5786 52.8094,-72.6328"/>
<polygon fill="black" stroke="black" stroke-width="2" points="52.1359,-69.1861 42.586,-73.7741 52.9127,-76.1429 52.1359,-69.1861"/>
</g>
<!-- 4&#45;&gt;1 -->
<g id="edge5" class="edge"><title>4&#45;&gt;1</title>
<path fill="none" stroke="black" stroke-width="2" d="M254.645,-39.1374C275.83,-72.2167 321.161,-143.001 345.907,-181.642"/>
<polygon fill="black" stroke="black" stroke-width="2" points="343.098,-183.746 351.439,-190.28 348.993,-179.971 343.098,-183.746"/>
</g>
<!-- 4&#45;&gt;2 -->
<g id="edge8" class="edge"><title>4&#45;&gt;2</title>
<path fill="none" stroke="black" stroke-width="2" d="M263.788,-27.2219C284.296,-33.1971 315.989,-42.4315 339.378,-49.2463"/>
<polygon fill="black" stroke="black" stroke-width="2" points="338.572,-52.6572 349.152,-52.0943 340.53,-45.9366 338.572,-52.6572"/>
</g>
<!-- 5&#45;&gt;1 -->
<g id="edge6" class="edge"><title>5&#45;&gt;1</title>
<path fill="none" stroke="black" stroke-width="2" d="M260.436,-198.682C279.998,-200.49 309.257,-203.194 331.504,-205.25"/>
<polygon fill="black" stroke="black" stroke-width="2" points="331.2,-208.736 341.479,-206.171 331.844,-201.766 331.2,-208.736"/>
</g>
<!-- 5&#45;&gt;2 -->
<g id="edge9" class="edge"><title>5&#45;&gt;2</title>
<path fill="none" stroke="black" stroke-width="2" d="M253.896,-181.085C276.823,-156.75 321.18,-109.669 347.866,-81.3447"/>
<polygon fill="black" stroke="black" stroke-width="2" points="350.582,-83.5661 354.892,-73.8875 345.487,-78.7659 350.582,-83.5661"/>
</g>
<!-- 5&#45;&gt;4 -->
<g id="edge14" class="edge"><title>5&#45;&gt;4</title>
<path fill="none" stroke="black" stroke-width="2" d="M239.659,-175.196C240.356,-144.587 241.639,-88.2746 242.445,-52.8918"/>
<polygon fill="black" stroke="black" stroke-width="2" points="245.95,-52.7117 242.678,-42.6345 238.952,-52.5522 245.95,-52.7117"/>
</g>
<!-- 6&#45;&gt;3 -->
<g id="edge12" class="edge"><title>6&#45;&gt;3</title>
<path fill="none" stroke="black" stroke-width="2" d="M170.427,-158.115C148.409,-171.393 111.264,-193.793 85.9705,-209.047"/>
<polygon fill="black" stroke="black" stroke-width="2" points="83.994,-206.151 77.2381,-214.313 87.6089,-212.146 83.994,-206.151"/>
</g>
<!-- 6&#45;&gt;7 -->
<g id="edge17" class="edge"><title>6&#45;&gt;7</title>
<path fill="none" stroke="black" stroke-width="2" d="M176.347,-129.347C163.755,-111.331 144.113,-83.2304 129.767,-62.7065"/>
<polygon fill="black" stroke="black" stroke-width="2" points="132.577,-60.617 123.979,-54.4259 126.84,-64.6273 132.577,-60.617"/>
</g>
<!-- 7&#45;&gt;3 -->
<g id="edge13" class="edge"><title>7&#45;&gt;3</title>
<path fill="none" stroke="black" stroke-width="2" d="M105.891,-57.2812C96.6029,-90.5761 78.215,-156.493 67.4381,-195.126"/>
<polygon fill="black" stroke="black" stroke-width="2" points="64.059,-194.213 64.7432,-204.786 70.8016,-196.094 64.059,-194.213"/>
</g>
<!-- 7&#45;&gt;4 -->
<g id="edge15" class="edge"><title>7&#45;&gt;4</title>
<path fill="none" stroke="black" stroke-width="2" d="M132.755,-34.2483C154.139,-31.7238 187.441,-27.7922 211.882,-24.9066"/>
<polygon fill="black" stroke="black" stroke-width="2" points="212.563,-28.3506 222.084,-23.7022 211.742,-21.3989 212.563,-28.3506"/>
</g>
<!-- 7&#45;&gt;5 -->
<g id="edge16" class="edge"><title>7&#45;&gt;5</title>
<path fill="none" stroke="black" stroke-width="2" d="M128.694,-49.7862C149.421,-66.3029 184.438,-96.4886 207.36,-128.495 215.765,-140.232 222.839,-154.543 228.166,-167.021"/>
<polygon fill="black" stroke="black" stroke-width="2" points="225.036,-168.615 232.056,-176.55 231.517,-165.969 225.036,-168.615"/>
</g>
</g>
</svg>

