<?xml version="1.0" encoding="UTF-8" standalone="no"?>
<!DOCTYPE svg PUBLIC "-//W3C//DTD SVG 1.1//EN"
 "http://www.w3.org/Graphics/SVG/1.1/DTD/svg11.dtd">
<!-- Generated by graphviz version 2.36.0 (20140111.2315)
 -->
<!-- Title: G Pages: 1 -->
<svg width="100%" height="100%"
 viewBox="0.00 0.00 202.83 228.89" xmlns="http://www.w3.org/2000/svg" xmlns:xlink="http://www.w3.org/1999/xlink">
<g id="graph0" class="graph" transform="scale(1 1) rotate(0) translate(4 224.891)">
<title>G</title>
<!-- 0 -->
<g id="node1" class="node"><title>0</title>
<ellipse fill="cadetblue" stroke="black" cx="133.029" cy="-199.677" rx="21.4286" ry="21.4286"/>
<text text-anchor="middle" x="133.029" y="-194.677" font-family="Times New Roman,serif" font-size="20.00">2</text>
</g>
<!-- 6 -->
<g id="node7" class="node"><title>6</title>
<ellipse fill="brown" stroke="black" cx="173.614" cy="-129.845" rx="21.4286" ry="21.4286"/>
<text text-anchor="middle" x="173.614" y="-124.845" font-family="Times New Roman,serif" font-size="20.00">3</text>
</g>
<!-- 0&#45;&gt;6 -->
<g id="edge3" class="edge"><title>0&#45;&gt;6</title>
<path fill="none" stroke="black" stroke-width="2" d="M143.692,-181.33C147.993,-173.931 153.044,-165.24 157.759,-157.127"/>
<polygon fill="black" stroke="black" stroke-width="2" points="160.883,-158.717 162.881,-148.313 154.83,-155.2 160.883,-158.717"/>
</g>
<!-- 7 -->
<g id="node8" class="node"><title>7</title>
<ellipse fill="brown" stroke="black" cx="41.4946" cy="-120.997" rx="21.4286" ry="21.4286"/>
<text text-anchor="middle" x="41.4946" y="-115.997" font-family="Times New Roman,serif" font-size="20.00">3</text>
</g>
<!-- 0&#45;&gt;7 -->
<g id="edge4" class="edge"><title>0&#45;&gt;7</title>
<path fill="none" stroke="black" stroke-width="2" d="M114.63,-189.108C103.737,-182.451 89.9548,-173.311 78.914,-163.647 72.9011,-158.383 66.9414,-152.173 61.605,-146.144"/>
<polygon fill="black" stroke="black" stroke-width="2" points="63.9247,-143.471 54.7679,-138.142 58.6027,-148.018 63.9247,-143.471"/>
</g>
<!-- 1 -->
<g id="node2" class="node"><title>1</title>
<ellipse fill="cadetblue" stroke="black" cx="97.5817" cy="-145.115" rx="21.4286" ry="21.4286"/>
<text text-anchor="middle" x="97.5817" y="-140.115" font-family="Times New Roman,serif" font-size="20.00">2</text>
</g>
<!-- 1&#45;&gt;6 -->
<g id="edge7" class="edge"><title>1&#45;&gt;6</title>
<path fill="none" stroke="black" stroke-width="2" d="M118.761,-140.861C126.238,-139.36 134.803,-137.639 142.908,-136.012"/>
<polygon fill="black" stroke="black" stroke-width="2" points="143.696,-139.423 152.811,-134.023 142.318,-132.56 143.696,-139.423"/>
</g>
<!-- 1&#45;&gt;7 -->
<g id="edge8" class="edge"><title>1&#45;&gt;7</title>
<path fill="none" stroke="black" stroke-width="2" d="M77.9652,-136.679C75.588,-135.657 73.1219,-134.597 70.6442,-133.531"/>
<polygon fill="black" stroke="black" stroke-width="2" points="71.7642,-130.203 61.1949,-129.468 68.9989,-136.634 71.7642,-130.203"/>
</g>
<!-- 2 -->
<g id="node3" class="node"><title>2</title>
<ellipse fill="cadetblue" stroke="black" cx="99.4603" cy="-21.2132" rx="21.4286" ry="21.4286"/>
<text text-anchor="middle" x="99.4603" y="-16.2132" font-family="Times New Roman,serif" font-size="20.00">2</text>
</g>
<!-- 2&#45;&gt;6 -->
<g id="edge11" class="edge"><title>2&#45;&gt;6</title>
<path fill="none" stroke="black" stroke-width="2" d="M116.854,-33.6987C125.911,-40.8819 136.633,-50.543 144.159,-60.9984 152.549,-72.6545 159.183,-87.0708 164.014,-99.6946"/>
<polygon fill="black" stroke="black" stroke-width="2" points="160.811,-101.132 167.501,-109.347 167.395,-98.7532 160.811,-101.132"/>
</g>
<!-- 2&#45;&gt;7 -->
<g id="edge12" class="edge"><title>2&#45;&gt;7</title>
<path fill="none" stroke="black" stroke-width="2" d="M88.5574,-39.9817C79.758,-55.1293 67.2565,-76.6496 57.3496,-93.7035"/>
<polygon fill="black" stroke="black" stroke-width="2" points="54.1495,-92.2446 52.1528,-102.65 60.2023,-95.7608 54.1495,-92.2446"/>
</g>
<!-- 3 -->
<g id="node4" class="node"><title>3</title>
<ellipse fill="cadetblue" stroke="black" cx="46.988" cy="-194.1" rx="21.4286" ry="21.4286"/>
<text text-anchor="middle" x="46.988" y="-189.1" font-family="Times New Roman,serif" font-size="20.00">2</text>
</g>
<!-- 3&#45;&gt;0 -->
<g id="edge1" class="edge"><title>3&#45;&gt;0</title>
<path fill="none" stroke="black" stroke-width="2" d="M68.2566,-195.479C78.288,-196.129 90.4606,-196.918 101.534,-197.636"/>
<polygon fill="black" stroke="black" stroke-width="2" points="101.502,-201.141 111.707,-198.295 101.954,-194.156 101.502,-201.141"/>
</g>
<!-- 5 -->
<g id="node6" class="node"><title>5</title>
<ellipse fill="cadetblue" stroke="black" cx="21.2132" cy="-70.2986" rx="21.4286" ry="21.4286"/>
<text text-anchor="middle" x="21.2132" y="-65.2986" font-family="Times New Roman,serif" font-size="20.00">2</text>
</g>
<!-- 3&#45;&gt;5 -->
<g id="edge13" class="edge"><title>3&#45;&gt;5</title>
<path fill="none" stroke="black" stroke-width="2" d="M35.7859,-176C27.7717,-161.688 17.935,-140.876 15.1902,-120.996 14.2992,-114.542 14.4163,-107.615 15.0361,-101.019"/>
<polygon fill="black" stroke="black" stroke-width="2" points="18.5144,-101.412 16.3512,-91.0408 11.5745,-100.498 18.5144,-101.412"/>
</g>
<!-- 4 -->
<g id="node5" class="node"><title>4</title>
<ellipse fill="cadetblue" stroke="black" cx="125.376" cy="-79.4137" rx="21.4286" ry="21.4286"/>
<text text-anchor="middle" x="125.376" y="-74.4137" font-family="Times New Roman,serif" font-size="20.00">2</text>
</g>
<!-- 4&#45;&gt;0 -->
<g id="edge2" class="edge"><title>4&#45;&gt;0</title>
<path fill="none" stroke="black" stroke-width="2" d="M126.726,-100.638C127.916,-119.328 129.665,-146.807 131.019,-168.082"/>
<polygon fill="black" stroke="black" stroke-width="2" points="127.538,-168.504 131.666,-178.261 134.524,-168.059 127.538,-168.504"/>
</g>
<!-- 4&#45;&gt;1 -->
<g id="edge5" class="edge"><title>4&#45;&gt;1</title>
<path fill="none" stroke="black" stroke-width="2" d="M117.037,-99.1261C114.783,-104.453 112.296,-110.332 109.875,-116.056"/>
<polygon fill="black" stroke="black" stroke-width="2" points="106.588,-114.843 105.915,-125.416 113.035,-117.57 106.588,-114.843"/>
</g>
<!-- 4&#45;&gt;2 -->
<g id="edge9" class="edge"><title>4&#45;&gt;2</title>
<path fill="none" stroke="black" stroke-width="2" d="M116.746,-60.0338C115.319,-56.8283 113.812,-53.445 112.308,-50.0662"/>
<polygon fill="black" stroke="black" stroke-width="2" points="115.406,-48.4185 108.14,-40.7069 109.011,-51.2659 115.406,-48.4185"/>
</g>
<!-- 5&#45;&gt;1 -->
<g id="edge6" class="edge"><title>5&#45;&gt;1</title>
<path fill="none" stroke="black" stroke-width="2" d="M38.3707,-83.4782C45.3303,-89.0728 53.3106,-95.8144 60.0955,-102.398 65.8401,-107.972 71.7083,-114.303 77.0449,-120.351"/>
<polygon fill="black" stroke="black" stroke-width="2" points="74.7464,-123.045 83.9309,-128.326 80.0447,-118.47 74.7464,-123.045"/>
</g>
<!-- 5&#45;&gt;2 -->
<g id="edge10" class="edge"><title>5&#45;&gt;2</title>
<path fill="none" stroke="black" stroke-width="2" d="M39.3613,-58.9141C49.2371,-52.7189 61.6445,-44.9355 72.6176,-38.052"/>
<polygon fill="black" stroke="black" stroke-width="2" points="74.7993,-40.8151 81.4106,-32.536 71.0794,-34.8852 74.7993,-40.8151"/>
</g>
<!-- 5&#45;&gt;4 -->
<g id="edge16" class="edge"><title>5&#45;&gt;4</title>
<path fill="none" stroke="black" stroke-width="2" d="M42.5434,-72.1652C57.2885,-73.4555 77.157,-75.1942 93.7389,-76.6452"/>
<polygon fill="black" stroke="black" stroke-width="2" points="93.807,-80.1644 104.074,-77.5496 94.4173,-73.1911 93.807,-80.1644"/>
</g>
<!-- 6&#45;&gt;3 -->
<g id="edge14" class="edge"><title>6&#45;&gt;3</title>
<path fill="none" stroke="black" stroke-width="2" d="M155.542,-141.267C144.37,-148.137 129.63,-156.861 116.114,-163.782 103.321,-170.333 88.8009,-176.836 76.3824,-182.129"/>
<polygon fill="black" stroke="black" stroke-width="2" points="74.8108,-178.993 66.9467,-186.093 77.5218,-185.447 74.8108,-178.993"/>
</g>
<!-- 7&#45;&gt;3 -->
<g id="edge15" class="edge"><title>7&#45;&gt;3</title>
<path fill="none" stroke="black" stroke-width="2" d="M43.1131,-142.535C43.5825,-148.781 44.1051,-155.736 44.6106,-162.464"/>
<polygon fill="black" stroke="black" stroke-width="2" points="41.1415,-163.007 45.3811,-172.716 48.1218,-162.482 41.1415,-163.007"/>
</g>
<!-- 7&#45;&gt;4 -->
<g id="edge17" class="edge"><title>7&#45;&gt;4</title>
<path fill="none" stroke="black" stroke-width="2" d="M60.5285,-111.561C71.2842,-106.229 84.9393,-99.4596 96.942,-93.5094"/>
<polygon fill="black" stroke="black" stroke-width="2" points="98.7219,-96.5336 106.127,-88.9561 95.6127,-90.2619 98.7219,-96.5336"/>
</g>
<!-- 7&#45;&gt;5 -->
<g id="edge18" class="edge"><title>7&#45;&gt;5</title>
<path fill="none" stroke="black" stroke-width="2" d="M33.5952,-101.25C33.3658,-100.677 33.1348,-100.1 32.9027,-99.5193"/>
<polygon fill="black" stroke="black" stroke-width="2" points="36.0883,-98.0592 29.1244,-90.0746 29.5891,-100.659 36.0883,-98.0592"/>
</g>
</g>
</svg>

