<?xml version="1.0" encoding="UTF-8" standalone="no"?>
<!DOCTYPE svg PUBLIC "-//W3C//DTD SVG 1.1//EN"
 "http://www.w3.org/Graphics/SVG/1.1/DTD/svg11.dtd">
<!-- Generated by graphviz version 2.36.0 (20140111.2315)
 -->
<!-- Title: G Pages: 1 -->
<svg width="100%" height="100%"
 viewBox="0.00 0.00 235.97 250.27" xmlns="http://www.w3.org/2000/svg" xmlns:xlink="http://www.w3.org/1999/xlink">
<g id="graph0" class="graph" transform="scale(1 1) rotate(0) translate(4 246.274)">
<title>G</title>
<!-- 0 -->
<g id="node1" class="node"><title>0</title>
<ellipse fill="cadetblue" stroke="black" cx="122.222" cy="-147.552" rx="21.4286" ry="21.4286"/>
<text text-anchor="middle" x="122.222" y="-142.552" font-family="Times New Roman,serif" font-size="20.00">2</text>
</g>
<!-- 3 -->
<g id="node4" class="node"><title>3</title>
<ellipse fill="cadetblue" stroke="black" cx="189.22" cy="-221.061" rx="21.4286" ry="21.4286"/>
<text text-anchor="middle" x="189.22" y="-216.061" font-family="Times New Roman,serif" font-size="20.00">2</text>
</g>
<!-- 0&#45;&gt;3 -->
<g id="edge1" class="edge"><title>0&#45;&gt;3</title>
<path fill="none" stroke="black" stroke-width="2" d="M136.759,-163.503C145.802,-173.424 157.594,-186.362 167.707,-197.457"/>
<polygon fill="black" stroke="black" stroke-width="2" points="165.388,-200.109 174.711,-205.142 170.561,-195.393 165.388,-200.109"/>
</g>
<!-- 5 -->
<g id="node6" class="node"><title>5</title>
<ellipse fill="brown" stroke="black" cx="21.2132" cy="-105.961" rx="21.4286" ry="21.4286"/>
<text text-anchor="middle" x="21.2132" y="-100.961" font-family="Times New Roman,serif" font-size="20.00">3</text>
</g>
<!-- 0&#45;&gt;5 -->
<g id="edge3" class="edge"><title>0&#45;&gt;5</title>
<path fill="none" stroke="black" stroke-width="2" d="M102.266,-139.335C87.4628,-133.24 67.0514,-124.836 50.4155,-117.986"/>
<polygon fill="black" stroke="black" stroke-width="2" points="51.7072,-114.732 41.1278,-114.161 49.042,-121.205 51.7072,-114.732"/>
</g>
<!-- 7 -->
<g id="node8" class="node"><title>7</title>
<ellipse fill="cadetblue" stroke="black" cx="81.4693" cy="-68.5401" rx="21.4286" ry="21.4286"/>
<text text-anchor="middle" x="81.4693" y="-63.5401" font-family="Times New Roman,serif" font-size="20.00">2</text>
</g>
<!-- 0&#45;&gt;7 -->
<g id="edge5" class="edge"><title>0&#45;&gt;7</title>
<path fill="none" stroke="black" stroke-width="2" d="M112.357,-128.426C107.401,-118.817 101.303,-106.995 95.8383,-96.3992"/>
<polygon fill="black" stroke="black" stroke-width="2" points="98.9381,-94.7737 91.2435,-87.4906 92.7168,-97.9825 98.9381,-94.7737"/>
</g>
<!-- 1 -->
<g id="node2" class="node"><title>1</title>
<ellipse fill="cadetblue" stroke="black" cx="81.4329" cy="-197.984" rx="21.4286" ry="21.4286"/>
<text text-anchor="middle" x="81.4329" y="-192.984" font-family="Times New Roman,serif" font-size="20.00">2</text>
</g>
<!-- 1&#45;&gt;5 -->
<g id="edge7" class="edge"><title>1&#45;&gt;5</title>
<path fill="none" stroke="black" stroke-width="2" d="M69.5355,-179.803C60.6529,-166.23 48.383,-147.48 38.4303,-132.271"/>
<polygon fill="black" stroke="black" stroke-width="2" points="41.2855,-130.242 32.8811,-123.791 35.4282,-134.075 41.2855,-130.242"/>
</g>
<!-- 6 -->
<g id="node7" class="node"><title>6</title>
<ellipse fill="cadetblue" stroke="black" cx="206.758" cy="-145.039" rx="21.4286" ry="21.4286"/>
<text text-anchor="middle" x="206.758" y="-140.039" font-family="Times New Roman,serif" font-size="20.00">2</text>
</g>
<!-- 1&#45;&gt;6 -->
<g id="edge8" class="edge"><title>1&#45;&gt;6</title>
<path fill="none" stroke="black" stroke-width="2" d="M101.015,-189.711C121.496,-181.059 153.877,-167.379 177.414,-157.435"/>
<polygon fill="black" stroke="black" stroke-width="2" points="179.05,-160.544 186.9,-153.428 176.326,-154.096 179.05,-160.544"/>
</g>
<!-- 2 -->
<g id="node3" class="node"><title>2</title>
<ellipse fill="cadetblue" stroke="black" cx="139.788" cy="-21.2132" rx="21.4286" ry="21.4286"/>
<text text-anchor="middle" x="139.788" y="-16.2132" font-family="Times New Roman,serif" font-size="20.00">2</text>
</g>
<!-- 4 -->
<g id="node5" class="node"><title>4</title>
<ellipse fill="cadetblue" stroke="black" cx="204.532" cy="-82.0653" rx="21.4286" ry="21.4286"/>
<text text-anchor="middle" x="204.532" y="-77.0653" font-family="Times New Roman,serif" font-size="20.00">2</text>
</g>
<!-- 2&#45;&gt;4 -->
<g id="edge10" class="edge"><title>2&#45;&gt;4</title>
<path fill="none" stroke="black" stroke-width="2" d="M155.461,-35.9438C163.334,-43.3436 173.022,-52.4491 181.704,-60.6093"/>
<polygon fill="black" stroke="black" stroke-width="2" points="179.32,-63.172 189.004,-67.4704 184.114,-58.0713 179.32,-63.172"/>
</g>
<!-- 2&#45;&gt;5 -->
<g id="edge11" class="edge"><title>2&#45;&gt;5</title>
<path fill="none" stroke="black" stroke-width="2" d="M118.818,-25.396C102.307,-29.4983 79.3978,-37.058 62.8701,-49.9392 52.8145,-57.7763 43.9894,-68.6312 37.0814,-78.7009"/>
<polygon fill="black" stroke="black" stroke-width="2" points="34.0381,-76.9606 31.5214,-87.2522 39.9067,-80.7764 34.0381,-76.9606"/>
</g>
<!-- 3&#45;&gt;1 -->
<g id="edge6" class="edge"><title>3&#45;&gt;1</title>
<path fill="none" stroke="black" stroke-width="2" d="M168.438,-216.611C152.585,-213.217 130.491,-208.487 112.535,-204.643"/>
<polygon fill="black" stroke="black" stroke-width="2" points="113.031,-201.17 102.519,-202.498 111.565,-208.014 113.031,-201.17"/>
</g>
<!-- 3&#45;&gt;6 -->
<g id="edge15" class="edge"><title>3&#45;&gt;6</title>
<path fill="none" stroke="black" stroke-width="2" d="M194.012,-200.287C195.772,-192.661 197.802,-183.861 199.717,-175.557"/>
<polygon fill="black" stroke="black" stroke-width="2" points="203.134,-176.318 201.971,-165.787 196.313,-174.744 203.134,-176.318"/>
</g>
<!-- 4&#45;&gt;0 -->
<g id="edge2" class="edge"><title>4&#45;&gt;0</title>
<path fill="none" stroke="black" stroke-width="2" d="M187.875,-95.3176C176.049,-104.726 159.98,-117.511 146.7,-128.078"/>
<polygon fill="black" stroke="black" stroke-width="2" points="144.5,-125.355 138.854,-134.32 148.858,-130.833 144.5,-125.355"/>
</g>
<!-- 4&#45;&gt;3 -->
<g id="edge14" class="edge"><title>4&#45;&gt;3</title>
<path fill="none" stroke="black" stroke-width="2" d="M194.545,-101.001C188.821,-113.183 182.398,-129.569 180.453,-145.007 178.574,-159.929 180.068,-176.519 182.322,-190.387"/>
<polygon fill="black" stroke="black" stroke-width="2" points="178.909,-191.18 184.15,-200.388 185.795,-189.922 178.909,-191.18"/>
</g>
<!-- 5&#45;&gt;7 -->
<g id="edge17" class="edge"><title>5&#45;&gt;7</title>
<path fill="none" stroke="black" stroke-width="2" d="M39.292,-94.7337C44.1777,-91.6995 49.5695,-88.351 54.8186,-85.0911"/>
<polygon fill="black" stroke="black" stroke-width="2" points="56.7547,-88.0089 63.4032,-79.7598 53.0616,-82.0623 56.7547,-88.0089"/>
</g>
<!-- 6&#45;&gt;0 -->
<g id="edge4" class="edge"><title>6&#45;&gt;0</title>
<path fill="none" stroke="black" stroke-width="2" d="M185.426,-145.673C175.814,-145.959 164.271,-146.302 153.694,-146.616"/>
<polygon fill="black" stroke="black" stroke-width="2" points="153.438,-143.122 143.547,-146.918 153.647,-150.119 153.438,-143.122"/>
</g>
<!-- 6&#45;&gt;2 -->
<g id="edge12" class="edge"><title>6&#45;&gt;2</title>
<path fill="none" stroke="black" stroke-width="2" d="M196.586,-126.232C185.474,-105.686 167.562,-72.5661 154.826,-49.0169"/>
<polygon fill="black" stroke="black" stroke-width="2" points="157.891,-47.3276 150.055,-40.1966 151.734,-50.6576 157.891,-47.3276"/>
</g>
<!-- 7&#45;&gt;1 -->
<g id="edge9" class="edge"><title>7&#45;&gt;1</title>
<path fill="none" stroke="black" stroke-width="2" d="M81.4633,-89.9151C81.4574,-110.714 81.4485,-142.565 81.4418,-166.308"/>
<polygon fill="black" stroke="black" stroke-width="2" points="77.9419,-166.576 81.4389,-176.577 84.9419,-166.578 77.9419,-166.576"/>
</g>
<!-- 7&#45;&gt;2 -->
<g id="edge13" class="edge"><title>7&#45;&gt;2</title>
<path fill="none" stroke="black" stroke-width="2" d="M98.0252,-55.1047C103.274,-50.845 109.198,-46.0377 114.899,-41.411"/>
<polygon fill="black" stroke="black" stroke-width="2" points="117.429,-43.8656 122.989,-34.8465 113.018,-38.4302 117.429,-43.8656"/>
</g>
<!-- 7&#45;&gt;4 -->
<g id="edge16" class="edge"><title>7&#45;&gt;4</title>
<path fill="none" stroke="black" stroke-width="2" d="M102.625,-70.8651C121.995,-72.9941 150.925,-76.1736 173.017,-78.6016"/>
<polygon fill="black" stroke="black" stroke-width="2" points="172.919,-82.1118 183.241,-79.7253 173.683,-75.1537 172.919,-82.1118"/>
</g>
</g>
</svg>

