<?xml version="1.0" encoding="UTF-8" standalone="no"?>
<!DOCTYPE svg PUBLIC "-//W3C//DTD SVG 1.1//EN"
 "http://www.w3.org/Graphics/SVG/1.1/DTD/svg11.dtd">
<!-- Generated by graphviz version 2.36.0 (20140111.2315)
 -->
<!-- Title: G Pages: 1 -->
<svg width="100%" height="100%"
 viewBox="0.00 0.00 218.49 265.59" xmlns="http://www.w3.org/2000/svg" xmlns:xlink="http://www.w3.org/1999/xlink">
<g id="graph0" class="graph" transform="scale(1 1) rotate(0) translate(4 261.587)">
<title>G</title>
<!-- 0 -->
<g id="node1" class="node"><title>0</title>
<ellipse fill="cadetblue" stroke="black" cx="21.2132" cy="-180.591" rx="21.4286" ry="21.4286"/>
<text text-anchor="middle" x="21.2132" y="-175.591" font-family="Times New Roman,serif" font-size="20.00">2</text>
</g>
<!-- 5 -->
<g id="node6" class="node"><title>5</title>
<ellipse fill="cadetblue" stroke="black" cx="67.4483" cy="-87.144" rx="21.4286" ry="21.4286"/>
<text text-anchor="middle" x="67.4483" y="-82.144" font-family="Times New Roman,serif" font-size="20.00">2</text>
</g>
<!-- 0&#45;&gt;5 -->
<g id="edge3" class="edge"><title>0&#45;&gt;5</title>
<path fill="none" stroke="black" stroke-width="2" d="M30.7931,-161.229C37.3458,-147.985 46.1389,-130.213 53.4704,-115.395"/>
<polygon fill="black" stroke="black" stroke-width="2" points="56.7412,-116.677 58.0388,-106.162 50.4671,-113.573 56.7412,-116.677"/>
</g>
<!-- 7 -->
<g id="node8" class="node"><title>7</title>
<ellipse fill="brown" stroke="black" cx="106.851" cy="-138.667" rx="21.4286" ry="21.4286"/>
<text text-anchor="middle" x="106.851" y="-133.667" font-family="Times New Roman,serif" font-size="20.00">3</text>
</g>
<!-- 0&#45;&gt;7 -->
<g id="edge4" class="edge"><title>0&#45;&gt;7</title>
<path fill="none" stroke="black" stroke-width="2" d="M40.6458,-171.078C51.8928,-165.572 66.245,-158.546 78.7095,-152.444"/>
<polygon fill="black" stroke="black" stroke-width="2" points="80.3479,-155.538 87.7905,-147.998 77.27,-149.251 80.3479,-155.538"/>
</g>
<!-- 1 -->
<g id="node2" class="node"><title>1</title>
<ellipse fill="cadetblue" stroke="black" cx="189.277" cy="-155.023" rx="21.4286" ry="21.4286"/>
<text text-anchor="middle" x="189.277" y="-150.023" font-family="Times New Roman,serif" font-size="20.00">2</text>
</g>
<!-- 4 -->
<g id="node5" class="node"><title>4</title>
<ellipse fill="brown" stroke="black" cx="134.629" cy="-236.374" rx="21.4286" ry="21.4286"/>
<text text-anchor="middle" x="134.629" y="-231.374" font-family="Times New Roman,serif" font-size="20.00">3</text>
</g>
<!-- 1&#45;&gt;4 -->
<g id="edge5" class="edge"><title>1&#45;&gt;4</title>
<path fill="none" stroke="black" stroke-width="2" d="M177.419,-172.675C170.043,-183.655 160.425,-197.973 152.176,-210.252"/>
<polygon fill="black" stroke="black" stroke-width="2" points="149.134,-208.504 146.463,-218.756 154.945,-212.407 149.134,-208.504"/>
</g>
<!-- 1&#45;&gt;7 -->
<g id="edge8" class="edge"><title>1&#45;&gt;7</title>
<path fill="none" stroke="black" stroke-width="2" d="M168.051,-150.811C158.846,-148.984 147.886,-146.81 137.802,-144.809"/>
<polygon fill="black" stroke="black" stroke-width="2" points="138.211,-141.321 127.721,-142.808 136.848,-148.188 138.211,-141.321"/>
</g>
<!-- 2 -->
<g id="node3" class="node"><title>2</title>
<ellipse fill="cadetblue" stroke="black" cx="108.067" cy="-21.2132" rx="21.4286" ry="21.4286"/>
<text text-anchor="middle" x="108.067" y="-16.2132" font-family="Times New Roman,serif" font-size="20.00">2</text>
</g>
<!-- 2&#45;&gt;7 -->
<g id="edge11" class="edge"><title>2&#45;&gt;7</title>
<path fill="none" stroke="black" stroke-width="2" d="M107.847,-42.4832C107.66,-60.4974 107.39,-86.5817 107.178,-107.043"/>
<polygon fill="black" stroke="black" stroke-width="2" points="103.678,-107.122 107.074,-117.158 110.677,-107.195 103.678,-107.122"/>
</g>
<!-- 3 -->
<g id="node4" class="node"><title>3</title>
<ellipse fill="cadetblue" stroke="black" cx="82.7395" cy="-206.043" rx="21.4286" ry="21.4286"/>
<text text-anchor="middle" x="82.7395" y="-201.043" font-family="Times New Roman,serif" font-size="20.00">2</text>
</g>
<!-- 3&#45;&gt;0 -->
<g id="edge1" class="edge"><title>3&#45;&gt;0</title>
<path fill="none" stroke="black" stroke-width="2" d="M62.9335,-197.85C58.9815,-196.215 54.752,-194.465 50.5577,-192.73"/>
<polygon fill="black" stroke="black" stroke-width="2" points="51.5606,-189.358 40.9821,-188.769 48.8847,-195.826 51.5606,-189.358"/>
</g>
<!-- 3&#45;&gt;4 -->
<g id="edge12" class="edge"><title>3&#45;&gt;4</title>
<path fill="none" stroke="black" stroke-width="2" d="M101.18,-216.822C103.168,-217.984 105.22,-219.184 107.285,-220.39"/>
<polygon fill="black" stroke="black" stroke-width="2" points="105.848,-223.605 116.248,-225.63 109.381,-217.562 105.848,-223.605"/>
</g>
<!-- 4&#45;&gt;0 -->
<g id="edge2" class="edge"><title>4&#45;&gt;0</title>
<path fill="none" stroke="black" stroke-width="2" d="M113.169,-237.329C98.2289,-236.974 78.4862,-234.372 64.1087,-224.612 55.9391,-219.067 48.0712,-211.779 41.3542,-204.733"/>
<polygon fill="black" stroke="black" stroke-width="2" points="43.8805,-202.309 34.5574,-197.276 38.7069,-207.024 43.8805,-202.309"/>
</g>
<!-- 5&#45;&gt;1 -->
<g id="edge6" class="edge"><title>5&#45;&gt;1</title>
<path fill="none" stroke="black" stroke-width="2" d="M86.2171,-97.6013C106.397,-108.845 138.682,-126.833 161.738,-139.679"/>
<polygon fill="black" stroke="black" stroke-width="2" points="160.248,-142.855 170.687,-144.665 163.655,-136.74 160.248,-142.855"/>
</g>
<!-- 5&#45;&gt;2 -->
<g id="edge9" class="edge"><title>5&#45;&gt;2</title>
<path fill="none" stroke="black" stroke-width="2" d="M78.7628,-68.7786C82.724,-62.3488 87.2573,-54.9904 91.5554,-48.014"/>
<polygon fill="black" stroke="black" stroke-width="2" points="94.5475,-49.8299 96.8129,-39.4801 88.5877,-46.1582 94.5475,-49.8299"/>
</g>
<!-- 6 -->
<g id="node7" class="node"><title>6</title>
<ellipse fill="cadetblue" stroke="black" cx="157.283" cy="-88.4793" rx="21.4286" ry="21.4286"/>
<text text-anchor="middle" x="157.283" y="-83.4793" font-family="Times New Roman,serif" font-size="20.00">2</text>
</g>
<!-- 5&#45;&gt;6 -->
<g id="edge16" class="edge"><title>5&#45;&gt;6</title>
<path fill="none" stroke="black" stroke-width="2" d="M88.7378,-87.4604C99.7334,-87.6239 113.37,-87.8266 125.577,-88.008"/>
<polygon fill="black" stroke="black" stroke-width="2" points="125.784,-91.5114 135.835,-88.1605 125.888,-84.5121 125.784,-91.5114"/>
</g>
<!-- 6&#45;&gt;1 -->
<g id="edge7" class="edge"><title>6&#45;&gt;1</title>
<path fill="none" stroke="black" stroke-width="2" d="M166.537,-107.726C169.364,-113.606 172.535,-120.202 175.591,-126.558"/>
<polygon fill="black" stroke="black" stroke-width="2" points="172.445,-128.093 179.933,-135.588 178.754,-125.059 172.445,-128.093"/>
</g>
<!-- 6&#45;&gt;2 -->
<g id="edge10" class="edge"><title>6&#45;&gt;2</title>
<path fill="none" stroke="black" stroke-width="2" d="M144.608,-71.1566C139.197,-63.7605 132.77,-54.976 126.826,-46.852"/>
<polygon fill="black" stroke="black" stroke-width="2" points="129.599,-44.7148 120.869,-38.711 123.949,-48.8482 129.599,-44.7148"/>
</g>
<!-- 6&#45;&gt;3 -->
<g id="edge13" class="edge"><title>6&#45;&gt;3</title>
<path fill="none" stroke="black" stroke-width="2" d="M149.782,-108.536C144.068,-122.696 135.489,-141.82 125.45,-157.268 119.562,-166.328 112.084,-175.452 105.036,-183.318"/>
<polygon fill="black" stroke="black" stroke-width="2" points="102.418,-180.994 98.2067,-190.716 107.562,-185.742 102.418,-180.994"/>
</g>
<!-- 7&#45;&gt;3 -->
<g id="edge14" class="edge"><title>7&#45;&gt;3</title>
<path fill="none" stroke="black" stroke-width="2" d="M99.6169,-158.882C97.6618,-164.345 95.5043,-170.374 93.4038,-176.243"/>
<polygon fill="black" stroke="black" stroke-width="2" points="90.0428,-175.248 89.9687,-185.842 96.6335,-177.606 90.0428,-175.248"/>
</g>
<!-- 7&#45;&gt;4 -->
<g id="edge15" class="edge"><title>7&#45;&gt;4</title>
<path fill="none" stroke="black" stroke-width="2" d="M112.742,-159.388C116.572,-172.86 121.633,-190.662 125.924,-205.754"/>
<polygon fill="black" stroke="black" stroke-width="2" points="122.645,-207.021 128.746,-215.683 129.378,-205.107 122.645,-207.021"/>
</g>
<!-- 7&#45;&gt;5 -->
<g id="edge17" class="edge"><title>7&#45;&gt;5</title>
<path fill="none" stroke="black" stroke-width="2" d="M93.9492,-121.796C91.5925,-118.715 89.0879,-115.44 86.5951,-112.18"/>
<polygon fill="black" stroke="black" stroke-width="2" points="89.3692,-110.046 80.5141,-104.229 83.8088,-114.298 89.3692,-110.046"/>
</g>
<!-- 7&#45;&gt;6 -->
<g id="edge18" class="edge"><title>7&#45;&gt;6</title>
<path fill="none" stroke="black" stroke-width="2" d="M121.982,-123.609C126.071,-119.54 130.584,-115.049 134.977,-110.677"/>
<polygon fill="black" stroke="black" stroke-width="2" points="137.543,-113.061 142.162,-103.527 132.605,-108.1 137.543,-113.061"/>
</g>
</g>
</svg>

