<?xml version="1.0" encoding="UTF-8" standalone="no"?>
<!DOCTYPE svg PUBLIC "-//W3C//DTD SVG 1.1//EN"
 "http://www.w3.org/Graphics/SVG/1.1/DTD/svg11.dtd">
<!-- Generated by graphviz version 2.36.0 (20140111.2315)
 -->
<!-- Title: G Pages: 1 -->
<svg width="100%" height="100%"
 viewBox="0.00 0.00 223.24 230.35" xmlns="http://www.w3.org/2000/svg" xmlns:xlink="http://www.w3.org/1999/xlink">
<g id="graph0" class="graph" transform="scale(1 1) rotate(0) translate(4 226.352)">
<title>G</title>
<!-- 0 -->
<g id="node1" class="node"><title>0</title>
<ellipse fill="cadetblue" stroke="black" cx="27.45" cy="-158.581" rx="21.4286" ry="21.4286"/>
<text text-anchor="middle" x="27.45" y="-153.581" font-family="Times New Roman,serif" font-size="20.00">2</text>
</g>
<!-- 5 -->
<g id="node6" class="node"><title>5</title>
<ellipse fill="cadetblue" stroke="black" cx="21.2132" cy="-60.3775" rx="21.4286" ry="21.4286"/>
<text text-anchor="middle" x="21.2132" y="-55.3775" font-family="Times New Roman,serif" font-size="20.00">2</text>
</g>
<!-- 0&#45;&gt;5 -->
<g id="edge3" class="edge"><title>0&#45;&gt;5</title>
<path fill="none" stroke="black" stroke-width="2" d="M26.0967,-137.272C25.2549,-124.017 24.1572,-106.734 23.2158,-91.9105"/>
<polygon fill="black" stroke="black" stroke-width="2" points="26.6907,-91.4026 22.5639,-81.6446 19.7048,-91.8464 26.6907,-91.4026"/>
</g>
<!-- 1 -->
<g id="node2" class="node"><title>1</title>
<ellipse fill="cadetblue" stroke="black" cx="95.8487" cy="-143.383" rx="21.4286" ry="21.4286"/>
<text text-anchor="middle" x="95.8487" y="-138.383" font-family="Times New Roman,serif" font-size="20.00">2</text>
</g>
<!-- 6 -->
<g id="node7" class="node"><title>6</title>
<ellipse fill="cadetblue" stroke="black" cx="194.026" cy="-132.203" rx="21.4286" ry="21.4286"/>
<text text-anchor="middle" x="194.026" y="-127.203" font-family="Times New Roman,serif" font-size="20.00">2</text>
</g>
<!-- 1&#45;&gt;6 -->
<g id="edge6" class="edge"><title>1&#45;&gt;6</title>
<path fill="none" stroke="black" stroke-width="2" d="M117.152,-140.957C130.403,-139.448 147.682,-137.48 162.501,-135.793"/>
<polygon fill="black" stroke="black" stroke-width="2" points="163.225,-139.233 172.764,-134.624 162.433,-132.278 163.225,-139.233"/>
</g>
<!-- 7 -->
<g id="node8" class="node"><title>7</title>
<ellipse fill="cadetblue" stroke="black" cx="79.4009" cy="-78.5063" rx="21.4286" ry="21.4286"/>
<text text-anchor="middle" x="79.4009" y="-73.5063" font-family="Times New Roman,serif" font-size="20.00">2</text>
</g>
<!-- 1&#45;&gt;7 -->
<g id="edge7" class="edge"><title>1&#45;&gt;7</title>
<path fill="none" stroke="black" stroke-width="2" d="M90.554,-122.498C89.4682,-118.215 88.3039,-113.623 87.1521,-109.08"/>
<polygon fill="black" stroke="black" stroke-width="2" points="90.536,-108.185 84.6857,-99.3516 83.7506,-109.905 90.536,-108.185"/>
</g>
<!-- 2 -->
<g id="node3" class="node"><title>2</title>
<ellipse fill="cadetblue" stroke="black" cx="134.461" cy="-21.2132" rx="21.4286" ry="21.4286"/>
<text text-anchor="middle" x="134.461" y="-16.2132" font-family="Times New Roman,serif" font-size="20.00">2</text>
</g>
<!-- 2&#45;&gt;6 -->
<g id="edge10" class="edge"><title>2&#45;&gt;6</title>
<path fill="none" stroke="black" stroke-width="2" d="M144.565,-40.0411C154.021,-57.6603 168.267,-84.2052 179.045,-104.288"/>
<polygon fill="black" stroke="black" stroke-width="2" points="176.059,-106.126 183.872,-113.283 182.227,-102.816 176.059,-106.126"/>
</g>
<!-- 2&#45;&gt;7 -->
<g id="edge11" class="edge"><title>2&#45;&gt;7</title>
<path fill="none" stroke="black" stroke-width="2" d="M119.706,-36.5667C114.028,-42.475 107.418,-49.3527 101.214,-55.8087"/>
<polygon fill="black" stroke="black" stroke-width="2" points="98.6023,-53.475 94.1967,-63.1104 103.649,-58.3254 98.6023,-53.475"/>
</g>
<!-- 3 -->
<g id="node4" class="node"><title>3</title>
<ellipse fill="cadetblue" stroke="black" cx="115.39" cy="-201.139" rx="21.4286" ry="21.4286"/>
<text text-anchor="middle" x="115.39" y="-196.139" font-family="Times New Roman,serif" font-size="20.00">2</text>
</g>
<!-- 3&#45;&gt;0 -->
<g id="edge1" class="edge"><title>3&#45;&gt;0</title>
<path fill="none" stroke="black" stroke-width="2" d="M95.8735,-191.694C84.0652,-185.979 68.8069,-178.595 55.6964,-172.251"/>
<polygon fill="black" stroke="black" stroke-width="2" points="57.1357,-169.059 46.6097,-167.853 54.0864,-175.36 57.1357,-169.059"/>
</g>
<!-- 4 -->
<g id="node5" class="node"><title>4</title>
<ellipse fill="cadetblue" stroke="black" cx="143.594" cy="-92.6929" rx="21.4286" ry="21.4286"/>
<text text-anchor="middle" x="143.594" y="-87.6929" font-family="Times New Roman,serif" font-size="20.00">2</text>
</g>
<!-- 4&#45;&gt;0 -->
<g id="edge2" class="edge"><title>4&#45;&gt;0</title>
<path fill="none" stroke="black" stroke-width="2" d="M124.067,-101.214C110.658,-107.285 92.5916,-115.901 77.3166,-124.715 69.2379,-129.376 60.7402,-134.897 53.0945,-140.113"/>
<polygon fill="black" stroke="black" stroke-width="2" points="50.7999,-137.446 44.5866,-146.027 54.7954,-143.193 50.7999,-137.446"/>
</g>
<!-- 4&#45;&gt;1 -->
<g id="edge4" class="edge"><title>4&#45;&gt;1</title>
<path fill="none" stroke="black" stroke-width="2" d="M129.01,-108.177C125.467,-111.938 121.601,-116.043 117.8,-120.078"/>
<polygon fill="black" stroke="black" stroke-width="2" points="114.982,-117.965 110.674,-127.644 120.078,-122.764 114.982,-117.965"/>
</g>
<!-- 4&#45;&gt;2 -->
<g id="edge8" class="edge"><title>4&#45;&gt;2</title>
<path fill="none" stroke="black" stroke-width="2" d="M140.903,-71.6332C140.13,-65.5796 139.269,-58.8459 138.436,-52.3216"/>
<polygon fill="black" stroke="black" stroke-width="2" points="141.903,-51.845 137.164,-42.3693 134.96,-52.7323 141.903,-51.845"/>
</g>
<!-- 5&#45;&gt;1 -->
<g id="edge5" class="edge"><title>5&#45;&gt;1</title>
<path fill="none" stroke="black" stroke-width="2" d="M35.6037,-76.3818C46.6516,-88.6686 62.0768,-105.824 74.5529,-119.699"/>
<polygon fill="black" stroke="black" stroke-width="2" points="72.2135,-122.332 81.5024,-127.428 77.4188,-117.651 72.2135,-122.332"/>
</g>
<!-- 5&#45;&gt;2 -->
<g id="edge9" class="edge"><title>5&#45;&gt;2</title>
<path fill="none" stroke="black" stroke-width="2" d="M41.4596,-53.3757C59.0936,-47.2774 84.8903,-38.3561 104.844,-31.4556"/>
<polygon fill="black" stroke="black" stroke-width="2" points="106.083,-34.7306 114.39,-28.1544 103.795,-28.115 106.083,-34.7306"/>
</g>
<!-- 6&#45;&gt;3 -->
<g id="edge12" class="edge"><title>6&#45;&gt;3</title>
<path fill="none" stroke="black" stroke-width="2" d="M177.732,-146.486C166.588,-156.256 151.633,-169.367 139.164,-180.298"/>
<polygon fill="black" stroke="black" stroke-width="2" points="136.606,-177.886 131.394,-187.11 141.221,-183.149 136.606,-177.886"/>
</g>
<!-- 6&#45;&gt;4 -->
<g id="edge14" class="edge"><title>6&#45;&gt;4</title>
<path fill="none" stroke="black" stroke-width="2" d="M177.233,-119.047C174.455,-116.871 171.524,-114.574 168.596,-112.28"/>
<polygon fill="black" stroke="black" stroke-width="2" points="170.516,-109.338 160.486,-105.926 166.199,-114.849 170.516,-109.338"/>
</g>
<!-- 7&#45;&gt;3 -->
<g id="edge13" class="edge"><title>7&#45;&gt;3</title>
<path fill="none" stroke="black" stroke-width="2" d="M94.8155,-93.3666C105.948,-105.561 119.477,-123.947 122.153,-143.479 123.339,-152.14 122.946,-161.551 121.906,-170.209"/>
<polygon fill="black" stroke="black" stroke-width="2" points="118.416,-169.886 120.381,-180.297 125.337,-170.933 118.416,-169.886"/>
</g>
<!-- 7&#45;&gt;4 -->
<g id="edge15" class="edge"><title>7&#45;&gt;4</title>
<path fill="none" stroke="black" stroke-width="2" d="M100.42,-83.1515C104.34,-84.0177 108.51,-84.9394 112.655,-85.8553"/>
<polygon fill="black" stroke="black" stroke-width="2" points="112.227,-89.3452 122.747,-88.0857 113.738,-82.5102 112.227,-89.3452"/>
</g>
<!-- 7&#45;&gt;5 -->
<g id="edge16" class="edge"><title>7&#45;&gt;5</title>
<path fill="none" stroke="black" stroke-width="2" d="M59.0497,-72.1657C56.5835,-71.3974 54.025,-70.6003 51.4545,-69.7994"/>
<polygon fill="black" stroke="black" stroke-width="2" points="52.2398,-66.3782 41.6513,-66.7452 50.1576,-73.0613 52.2398,-66.3782"/>
</g>
</g>
</svg>

