<?xml version="1.0" encoding="UTF-8" standalone="no"?>
<!DOCTYPE svg PUBLIC "-//W3C//DTD SVG 1.1//EN"
 "http://www.w3.org/Graphics/SVG/1.1/DTD/svg11.dtd">
<!-- Generated by graphviz version 2.36.0 (20140111.2315)
 -->
<!-- Title: G Pages: 1 -->
<svg width="100%" height="100%"
 viewBox="0.00 0.00 237.38 315.43" xmlns="http://www.w3.org/2000/svg" xmlns:xlink="http://www.w3.org/1999/xlink">
<g id="graph0" class="graph" transform="scale(1 1) rotate(0) translate(4 311.431)">
<title>G</title>
<!-- 0 -->
<g id="node1" class="node"><title>0</title>
<ellipse fill="cadetblue" stroke="black" cx="34.2228" cy="-286.218" rx="21.4286" ry="21.4286"/>
<text text-anchor="middle" x="34.2228" y="-281.218" font-family="Times New Roman,serif" font-size="20.00">2</text>
</g>
<!-- 4 -->
<g id="node5" class="node"><title>4</title>
<ellipse fill="brown" stroke="black" cx="70.4661" cy="-163.102" rx="21.4286" ry="21.4286"/>
<text text-anchor="middle" x="70.4661" y="-158.102" font-family="Times New Roman,serif" font-size="20.00">3</text>
</g>
<!-- 0&#45;&gt;4 -->
<g id="edge2" class="edge"><title>0&#45;&gt;4</title>
<path fill="none" stroke="black" stroke-width="2" d="M40.2891,-265.611C46.0909,-245.903 54.9097,-215.946 61.518,-193.498"/>
<polygon fill="black" stroke="black" stroke-width="2" points="64.9134,-194.357 64.38,-183.776 58.1984,-192.381 64.9134,-194.357"/>
</g>
<!-- 1 -->
<g id="node2" class="node"><title>1</title>
<ellipse fill="cadetblue" stroke="black" cx="71.8835" cy="-22.5066" rx="21.4286" ry="21.4286"/>
<text text-anchor="middle" x="71.8835" y="-17.5066" font-family="Times New Roman,serif" font-size="20.00">2</text>
</g>
<!-- 5 -->
<g id="node6" class="node"><title>5</title>
<ellipse fill="cadetblue" stroke="black" cx="21.2132" cy="-112.671" rx="21.4286" ry="21.4286"/>
<text text-anchor="middle" x="21.2132" y="-107.671" font-family="Times New Roman,serif" font-size="20.00">2</text>
</g>
<!-- 1&#45;&gt;5 -->
<g id="edge5" class="edge"><title>1&#45;&gt;5</title>
<path fill="none" stroke="black" stroke-width="2" d="M61.3845,-41.1886C54.2509,-53.8825 44.6942,-70.8878 36.6918,-85.1275"/>
<polygon fill="black" stroke="black" stroke-width="2" points="33.5467,-83.58 31.6987,-94.0125 39.6491,-87.0095 33.5467,-83.58"/>
</g>
<!-- 6 -->
<g id="node7" class="node"><title>6</title>
<ellipse fill="cadetblue" stroke="black" cx="208.172" cy="-110.369" rx="21.4286" ry="21.4286"/>
<text text-anchor="middle" x="208.172" y="-105.369" font-family="Times New Roman,serif" font-size="20.00">2</text>
</g>
<!-- 1&#45;&gt;6 -->
<g id="edge6" class="edge"><title>1&#45;&gt;6</title>
<path fill="none" stroke="black" stroke-width="2" d="M89.9815,-34.1741C113.401,-49.2722 154.397,-75.7015 181.417,-93.1208"/>
<polygon fill="black" stroke="black" stroke-width="2" points="179.698,-96.1766 189.999,-98.6534 183.491,-90.2932 179.698,-96.1766"/>
</g>
<!-- 2 -->
<g id="node3" class="node"><title>2</title>
<ellipse fill="cadetblue" stroke="black" cx="152.994" cy="-21.2132" rx="21.4286" ry="21.4286"/>
<text text-anchor="middle" x="152.994" y="-16.2132" font-family="Times New Roman,serif" font-size="20.00">2</text>
</g>
<!-- 2&#45;&gt;5 -->
<g id="edge9" class="edge"><title>2&#45;&gt;5</title>
<path fill="none" stroke="black" stroke-width="2" d="M135.495,-33.358C112.85,-49.0739 73.2096,-76.5846 47.0832,-94.7165"/>
<polygon fill="black" stroke="black" stroke-width="2" points="45.0049,-91.8985 38.7851,-100.475 48.996,-97.6493 45.0049,-91.8985"/>
</g>
<!-- 7 -->
<g id="node8" class="node"><title>7</title>
<ellipse fill="dodgerblue" stroke="black" cx="157.579" cy="-158.414" rx="21.4286" ry="21.4286"/>
<text text-anchor="middle" x="157.579" y="-153.414" font-family="Times New Roman,serif" font-size="20.00">4</text>
</g>
<!-- 2&#45;&gt;7 -->
<g id="edge11" class="edge"><title>2&#45;&gt;7</title>
<path fill="none" stroke="black" stroke-width="2" d="M153.711,-42.6508C154.468,-65.3048 155.669,-101.259 156.532,-127.088"/>
<polygon fill="black" stroke="black" stroke-width="2" points="153.036,-127.249 156.868,-137.127 160.032,-127.015 153.036,-127.249"/>
</g>
<!-- 3 -->
<g id="node4" class="node"><title>3</title>
<ellipse fill="cadetblue" stroke="black" cx="201.675" cy="-281.775" rx="21.4286" ry="21.4286"/>
<text text-anchor="middle" x="201.675" y="-276.775" font-family="Times New Roman,serif" font-size="20.00">2</text>
</g>
<!-- 3&#45;&gt;0 -->
<g id="edge1" class="edge"><title>3&#45;&gt;0</title>
<path fill="none" stroke="black" stroke-width="2" d="M180.467,-282.338C151.482,-283.107 99.2716,-284.492 65.7105,-285.383"/>
<polygon fill="black" stroke="black" stroke-width="2" points="65.426,-281.889 55.5224,-285.653 65.6117,-288.886 65.426,-281.889"/>
</g>
<!-- 4&#45;&gt;1 -->
<g id="edge4" class="edge"><title>4&#45;&gt;1</title>
<path fill="none" stroke="black" stroke-width="2" d="M70.6813,-141.749C70.9165,-118.42 71.2956,-80.8144 71.5652,-54.0758"/>
<polygon fill="black" stroke="black" stroke-width="2" points="75.0651,-54.0958 71.6662,-44.061 68.0654,-54.0252 75.0651,-54.0958"/>
</g>
<!-- 4&#45;&gt;2 -->
<g id="edge8" class="edge"><title>4&#45;&gt;2</title>
<path fill="none" stroke="black" stroke-width="2" d="M81.2552,-144.553C95.4653,-120.121 120.57,-76.9602 136.994,-48.7227"/>
<polygon fill="black" stroke="black" stroke-width="2" points="140.2,-50.1711 142.203,-39.7672 134.149,-46.6517 140.2,-50.1711"/>
</g>
<!-- 4&#45;&gt;7 -->
<g id="edge16" class="edge"><title>4&#45;&gt;7</title>
<path fill="none" stroke="black" stroke-width="2" d="M91.9997,-161.943C102.338,-161.387 114.922,-160.709 126.292,-160.097"/>
<polygon fill="black" stroke="black" stroke-width="2" points="126.496,-163.592 136.293,-159.559 126.12,-156.602 126.496,-163.592"/>
</g>
<!-- 5&#45;&gt;0 -->
<g id="edge3" class="edge"><title>5&#45;&gt;0</title>
<path fill="none" stroke="black" stroke-width="2" d="M22.8084,-133.951C25.0774,-164.219 29.2517,-219.904 31.8746,-254.892"/>
<polygon fill="black" stroke="black" stroke-width="2" points="28.3971,-255.325 32.6349,-265.035 35.3775,-254.802 28.3971,-255.325"/>
</g>
<!-- 5&#45;&gt;4 -->
<g id="edge14" class="edge"><title>5&#45;&gt;4</title>
<path fill="none" stroke="black" stroke-width="2" d="M36.2583,-128.076C40.0774,-131.986 44.2608,-136.27 48.3508,-140.457"/>
<polygon fill="black" stroke="black" stroke-width="2" points="46.0221,-143.082 55.5131,-147.791 51.0301,-138.192 46.0221,-143.082"/>
</g>
<!-- 5&#45;&gt;6 -->
<g id="edge17" class="edge"><title>5&#45;&gt;6</title>
<path fill="none" stroke="black" stroke-width="2" d="M42.6597,-112.407C75.5365,-112.002 138.576,-111.226 176.655,-110.757"/>
<polygon fill="black" stroke="black" stroke-width="2" points="176.732,-114.256 186.688,-110.634 176.646,-107.257 176.732,-114.256"/>
</g>
<!-- 5&#45;&gt;7 -->
<g id="edge18" class="edge"><title>5&#45;&gt;7</title>
<path fill="none" stroke="black" stroke-width="2" d="M41.3345,-119.42C64.0954,-127.055 101.395,-139.567 127.59,-148.354"/>
<polygon fill="black" stroke="black" stroke-width="2" points="126.781,-151.774 137.375,-151.636 129.008,-145.138 126.781,-151.774"/>
</g>
<!-- 6&#45;&gt;2 -->
<g id="edge10" class="edge"><title>6&#45;&gt;2</title>
<path fill="none" stroke="black" stroke-width="2" d="M197.006,-92.3271C189.205,-79.7218 178.649,-62.6659 169.831,-48.4173"/>
<polygon fill="black" stroke="black" stroke-width="2" points="172.572,-46.1958 164.333,-39.5344 166.62,-49.8796 172.572,-46.1958"/>
</g>
<!-- 6&#45;&gt;3 -->
<g id="edge12" class="edge"><title>6&#45;&gt;3</title>
<path fill="none" stroke="black" stroke-width="2" d="M207.362,-131.731C206.231,-161.579 204.169,-215.964 202.864,-250.412"/>
<polygon fill="black" stroke="black" stroke-width="2" points="199.366,-250.288 202.485,-260.413 206.361,-250.553 199.366,-250.288"/>
</g>
<!-- 6&#45;&gt;4 -->
<g id="edge15" class="edge"><title>6&#45;&gt;4</title>
<path fill="none" stroke="black" stroke-width="2" d="M188.148,-118.037C164.998,-126.902 126.674,-141.578 100.077,-151.763"/>
<polygon fill="black" stroke="black" stroke-width="2" points="98.6008,-148.58 90.5138,-155.425 101.104,-155.117 98.6008,-148.58"/>
</g>
<!-- 6&#45;&gt;7 -->
<g id="edge19" class="edge"><title>6&#45;&gt;7</title>
<path fill="none" stroke="black" stroke-width="2" d="M192.717,-125.045C188.963,-128.61 184.867,-132.5 180.839,-136.325"/>
<polygon fill="black" stroke="black" stroke-width="2" points="178.129,-134.072 173.288,-143.496 182.95,-139.148 178.129,-134.072"/>
</g>
<!-- 7&#45;&gt;1 -->
<g id="edge7" class="edge"><title>7&#45;&gt;1</title>
<path fill="none" stroke="black" stroke-width="2" d="M146.199,-140.366C131.474,-117.012 105.696,-76.1309 88.7064,-49.1866"/>
<polygon fill="black" stroke="black" stroke-width="2" points="91.6046,-47.2207 83.3103,-40.6287 85.6834,-50.9543 91.6046,-47.2207"/>
</g>
<!-- 7&#45;&gt;3 -->
<g id="edge13" class="edge"><title>7&#45;&gt;3</title>
<path fill="none" stroke="black" stroke-width="2" d="M164.762,-178.508C171.905,-198.491 182.944,-229.374 191.091,-252.164"/>
<polygon fill="black" stroke="black" stroke-width="2" points="187.833,-253.45 194.495,-261.689 194.425,-251.094 187.833,-253.45"/>
</g>
</g>
</svg>

