<?xml version="1.0" encoding="UTF-8" standalone="no"?>
<!DOCTYPE svg PUBLIC "-//W3C//DTD SVG 1.1//EN"
 "http://www.w3.org/Graphics/SVG/1.1/DTD/svg11.dtd">
<!-- Generated by graphviz version 2.36.0 (20140111.2315)
 -->
<!-- Title: G Pages: 1 -->
<svg width="100%" height="100%"
 viewBox="0.00 0.00 291.41 312.45" xmlns="http://www.w3.org/2000/svg" xmlns:xlink="http://www.w3.org/1999/xlink">
<g id="graph0" class="graph" transform="scale(1 1) rotate(0) translate(4 308.447)">
<title>G</title>
<!-- 0 -->
<g id="node1" class="node"><title>0</title>
<ellipse fill="cadetblue" stroke="black" cx="125.088" cy="-283.234" rx="21.4286" ry="21.4286"/>
<text text-anchor="middle" x="125.088" y="-278.234" font-family="Times New Roman,serif" font-size="20.00">2</text>
</g>
<!-- 5 -->
<g id="node6" class="node"><title>5</title>
<ellipse fill="cadetblue" stroke="black" cx="21.2132" cy="-159.171" rx="21.4286" ry="21.4286"/>
<text text-anchor="middle" x="21.2132" y="-154.171" font-family="Times New Roman,serif" font-size="20.00">2</text>
</g>
<!-- 0&#45;&gt;5 -->
<g id="edge3" class="edge"><title>0&#45;&gt;5</title>
<path fill="none" stroke="black" stroke-width="2" d="M111.294,-266.759C93.4447,-245.44 62.1988,-208.122 41.6049,-183.526"/>
<polygon fill="black" stroke="black" stroke-width="2" points="44.1673,-181.134 35.0641,-175.714 38.8002,-185.628 44.1673,-181.134"/>
</g>
<!-- 6 -->
<g id="node7" class="node"><title>6</title>
<ellipse fill="cadetblue" stroke="black" cx="164.529" cy="-138.405" rx="21.4286" ry="21.4286"/>
<text text-anchor="middle" x="164.529" y="-133.405" font-family="Times New Roman,serif" font-size="20.00">2</text>
</g>
<!-- 0&#45;&gt;6 -->
<g id="edge4" class="edge"><title>0&#45;&gt;6</title>
<path fill="none" stroke="black" stroke-width="2" d="M130.739,-262.483C137.417,-237.963 148.585,-196.952 156.241,-168.837"/>
<polygon fill="black" stroke="black" stroke-width="2" points="159.638,-169.686 158.888,-159.117 152.884,-167.846 159.638,-169.686"/>
</g>
<!-- 1 -->
<g id="node2" class="node"><title>1</title>
<ellipse fill="cadetblue" stroke="black" cx="177.883" cy="-236.56" rx="21.4286" ry="21.4286"/>
<text text-anchor="middle" x="177.883" y="-231.56" font-family="Times New Roman,serif" font-size="20.00">2</text>
</g>
<!-- 1&#45;&gt;6 -->
<g id="edge7" class="edge"><title>1&#45;&gt;6</title>
<path fill="none" stroke="black" stroke-width="2" d="M174.985,-215.262C173.183,-202.014 170.832,-184.739 168.817,-169.923"/>
<polygon fill="black" stroke="black" stroke-width="2" points="172.237,-169.099 167.421,-159.662 165.301,-170.043 172.237,-169.099"/>
</g>
<!-- 7 -->
<g id="node8" class="node"><title>7</title>
<ellipse fill="brown" stroke="black" cx="114.097" cy="-121.507" rx="21.4286" ry="21.4286"/>
<text text-anchor="middle" x="114.097" y="-116.507" font-family="Times New Roman,serif" font-size="20.00">3</text>
</g>
<!-- 1&#45;&gt;7 -->
<g id="edge8" class="edge"><title>1&#45;&gt;7</title>
<path fill="none" stroke="black" stroke-width="2" d="M167.492,-217.819C157.16,-199.182 141.192,-170.379 129.408,-149.123"/>
<polygon fill="black" stroke="black" stroke-width="2" points="132.393,-147.289 124.483,-140.24 126.271,-150.683 132.393,-147.289"/>
</g>
<!-- 2 -->
<g id="node3" class="node"><title>2</title>
<ellipse fill="cadetblue" stroke="black" cx="67.001" cy="-21.2132" rx="21.4286" ry="21.4286"/>
<text text-anchor="middle" x="67.001" y="-16.2132" font-family="Times New Roman,serif" font-size="20.00">2</text>
</g>
<!-- 2&#45;&gt;7 -->
<g id="edge11" class="edge"><title>2&#45;&gt;7</title>
<path fill="none" stroke="black" stroke-width="2" d="M76.0817,-40.5508C83.0531,-55.3968 92.7866,-76.1247 100.659,-92.8897"/>
<polygon fill="black" stroke="black" stroke-width="2" points="97.6258,-94.6644 105.045,-102.228 103.962,-91.689 97.6258,-94.6644"/>
</g>
<!-- 3 -->
<g id="node4" class="node"><title>3</title>
<ellipse fill="cadetblue" stroke="black" cx="22.25" cy="-246.013" rx="21.4286" ry="21.4286"/>
<text text-anchor="middle" x="22.25" y="-241.013" font-family="Times New Roman,serif" font-size="20.00">2</text>
</g>
<!-- 3&#45;&gt;0 -->
<g id="edge1" class="edge"><title>3&#45;&gt;0</title>
<path fill="none" stroke="black" stroke-width="2" d="M42.5675,-253.366C57.6386,-258.821 78.4197,-266.343 95.3569,-272.473"/>
<polygon fill="black" stroke="black" stroke-width="2" points="94.2187,-275.783 104.813,-275.895 96.601,-269.201 94.2187,-275.783"/>
</g>
<!-- 3&#45;&gt;7 -->
<g id="edge14" class="edge"><title>3&#45;&gt;7</title>
<path fill="none" stroke="black" stroke-width="2" d="M35.021,-228.7C50.7179,-207.422 77.4798,-171.144 95.4698,-146.757"/>
<polygon fill="black" stroke="black" stroke-width="2" points="98.3149,-148.797 101.435,-138.672 92.6817,-144.641 98.3149,-148.797"/>
</g>
<!-- 4 -->
<g id="node5" class="node"><title>4</title>
<ellipse fill="cadetblue" stroke="black" cx="262.198" cy="-189.172" rx="21.4286" ry="21.4286"/>
<text text-anchor="middle" x="262.198" y="-184.172" font-family="Times New Roman,serif" font-size="20.00">2</text>
</g>
<!-- 4&#45;&gt;0 -->
<g id="edge2" class="edge"><title>4&#45;&gt;0</title>
<path fill="none" stroke="black" stroke-width="2" d="M248.824,-205.974C236.489,-220.576 217.015,-241.487 196.415,-255.228 188.971,-260.193 186.1,-259.554 177.787,-262.864 170.31,-265.842 162.213,-269.003 154.661,-271.924"/>
<polygon fill="black" stroke="black" stroke-width="2" points="153.218,-268.729 145.145,-275.591 155.735,-275.261 153.218,-268.729"/>
</g>
<!-- 4&#45;&gt;1 -->
<g id="edge5" class="edge"><title>4&#45;&gt;1</title>
<path fill="none" stroke="black" stroke-width="2" d="M243.486,-199.689C232.351,-205.947 218.018,-214.003 205.59,-220.988"/>
<polygon fill="black" stroke="black" stroke-width="2" points="203.545,-218.122 196.543,-226.073 206.975,-224.224 203.545,-218.122"/>
</g>
<!-- 5&#45;&gt;1 -->
<g id="edge6" class="edge"><title>5&#45;&gt;1</title>
<path fill="none" stroke="black" stroke-width="2" d="M40.424,-168.66C67.6741,-182.121 117.745,-206.855 149.346,-222.464"/>
<polygon fill="black" stroke="black" stroke-width="2" points="147.999,-225.702 158.515,-226.993 151.099,-219.426 147.999,-225.702"/>
</g>
<!-- 5&#45;&gt;2 -->
<g id="edge9" class="edge"><title>5&#45;&gt;2</title>
<path fill="none" stroke="black" stroke-width="2" d="M27.9694,-138.815C35.6456,-115.686 48.2468,-77.7193 57.0482,-51.2009"/>
<polygon fill="black" stroke="black" stroke-width="2" points="60.3889,-52.2463 60.2172,-41.6529 53.7453,-50.0413 60.3889,-52.2463"/>
</g>
<!-- 5&#45;&gt;3 -->
<g id="edge12" class="edge"><title>5&#45;&gt;3</title>
<path fill="none" stroke="black" stroke-width="2" d="M21.4695,-180.637C21.5913,-190.838 21.7393,-203.233 21.8735,-214.476"/>
<polygon fill="black" stroke="black" stroke-width="2" points="18.3775,-214.836 21.9967,-224.793 25.377,-214.752 18.3775,-214.836"/>
</g>
<!-- 6&#45;&gt;2 -->
<g id="edge10" class="edge"><title>6&#45;&gt;2</title>
<path fill="none" stroke="black" stroke-width="2" d="M150.762,-121.863C134.208,-101.971 106.28,-68.4119 87.263,-45.5606"/>
<polygon fill="black" stroke="black" stroke-width="2" points="89.7845,-43.1189 80.6975,-37.6713 84.404,-47.5967 89.7845,-43.1189"/>
</g>
<!-- 6&#45;&gt;3 -->
<g id="edge13" class="edge"><title>6&#45;&gt;3</title>
<path fill="none" stroke="black" stroke-width="2" d="M147.367,-151.385C122.584,-170.129 76.5989,-204.908 47.8122,-226.68"/>
<polygon fill="black" stroke="black" stroke-width="2" points="45.3375,-224.163 39.473,-232.987 49.5601,-229.746 45.3375,-224.163"/>
</g>
<!-- 6&#45;&gt;4 -->
<g id="edge15" class="edge"><title>6&#45;&gt;4</title>
<path fill="none" stroke="black" stroke-width="2" d="M183.36,-148.194C197.725,-155.66 217.745,-166.066 234.015,-174.523"/>
<polygon fill="black" stroke="black" stroke-width="2" points="232.604,-177.734 243.091,-179.241 235.832,-171.523 232.604,-177.734"/>
</g>
<!-- 7&#45;&gt;4 -->
<g id="edge16" class="edge"><title>7&#45;&gt;4</title>
<path fill="none" stroke="black" stroke-width="2" d="M127.001,-138.912C132.323,-145.218 138.889,-152.006 145.907,-156.983 171.175,-174.903 206.054,-182.861 231.009,-186.386"/>
<polygon fill="black" stroke="black" stroke-width="2" points="230.682,-189.873 241.04,-187.642 231.552,-182.927 230.682,-189.873"/>
</g>
<!-- 7&#45;&gt;5 -->
<g id="edge17" class="edge"><title>7&#45;&gt;5</title>
<path fill="none" stroke="black" stroke-width="2" d="M94.399,-129.494C81.5917,-134.688 64.6684,-141.55 50.3216,-147.368"/>
<polygon fill="black" stroke="black" stroke-width="2" points="48.835,-144.194 40.8831,-151.195 51.4655,-150.68 48.835,-144.194"/>
</g>
</g>
</svg>

