<?xml version="1.0" encoding="UTF-8" standalone="no"?>
<!DOCTYPE svg PUBLIC "-//W3C//DTD SVG 1.1//EN"
 "http://www.w3.org/Graphics/SVG/1.1/DTD/svg11.dtd">
<!-- Generated by graphviz version 2.36.0 (20140111.2315)
 -->
<!-- Title: G Pages: 1 -->
<svg width="100%" height="100%"
 viewBox="0.00 0.00 231.59 244.59" xmlns="http://www.w3.org/2000/svg" xmlns:xlink="http://www.w3.org/1999/xlink">
<g id="graph0" class="graph" transform="scale(1 1) rotate(0) translate(4 240.594)">
<title>G</title>
<!-- 0 -->
<g id="node1" class="node"><title>0</title>
<ellipse fill="cadetblue" stroke="black" cx="83.0246" cy="-164.949" rx="21.4286" ry="21.4286"/>
<text text-anchor="middle" x="83.0246" y="-159.949" font-family="Times New Roman,serif" font-size="20.00">2</text>
</g>
<!-- 5 -->
<g id="node6" class="node"><title>5</title>
<ellipse fill="brown" stroke="black" cx="21.2132" cy="-108.493" rx="21.4286" ry="21.4286"/>
<text text-anchor="middle" x="21.2132" y="-103.493" font-family="Times New Roman,serif" font-size="20.00">3</text>
</g>
<!-- 0&#45;&gt;5 -->
<g id="edge3" class="edge"><title>0&#45;&gt;5</title>
<path fill="none" stroke="black" stroke-width="2" d="M67.1066,-150.41C60.3818,-144.268 52.4079,-136.985 45.0089,-130.227"/>
<polygon fill="black" stroke="black" stroke-width="2" points="47.0362,-127.339 37.2921,-123.179 42.3154,-132.507 47.0362,-127.339"/>
</g>
<!-- 6 -->
<g id="node7" class="node"><title>6</title>
<ellipse fill="brown" stroke="black" cx="202.379" cy="-133.426" rx="21.4286" ry="21.4286"/>
<text text-anchor="middle" x="202.379" y="-128.426" font-family="Times New Roman,serif" font-size="20.00">3</text>
</g>
<!-- 0&#45;&gt;6 -->
<g id="edge4" class="edge"><title>0&#45;&gt;6</title>
<path fill="none" stroke="black" stroke-width="2" d="M103.542,-159.53C122.33,-154.568 150.387,-147.158 171.814,-141.499"/>
<polygon fill="black" stroke="black" stroke-width="2" points="172.955,-144.817 181.73,-138.88 171.167,-138.049 172.955,-144.817"/>
</g>
<!-- 7 -->
<g id="node8" class="node"><title>7</title>
<ellipse fill="cadetblue" stroke="black" cx="72.0128" cy="-62.1878" rx="21.4286" ry="21.4286"/>
<text text-anchor="middle" x="72.0128" y="-57.1878" font-family="Times New Roman,serif" font-size="20.00">2</text>
</g>
<!-- 0&#45;&gt;7 -->
<g id="edge5" class="edge"><title>0&#45;&gt;7</title>
<path fill="none" stroke="black" stroke-width="2" d="M80.7429,-143.657C79.1926,-129.19 77.1157,-109.808 75.3766,-93.5791"/>
<polygon fill="black" stroke="black" stroke-width="2" points="78.8372,-93.0229 74.2915,-83.4527 71.877,-93.7688 78.8372,-93.0229"/>
</g>
<!-- 1 -->
<g id="node2" class="node"><title>1</title>
<ellipse fill="cadetblue" stroke="black" cx="92.5453" cy="-215.381" rx="21.4286" ry="21.4286"/>
<text text-anchor="middle" x="92.5453" y="-210.381" font-family="Times New Roman,serif" font-size="20.00">2</text>
</g>
<!-- 1&#45;&gt;5 -->
<g id="edge8" class="edge"><title>1&#45;&gt;5</title>
<path fill="none" stroke="black" stroke-width="2" d="M77.8639,-200.028C73.3225,-194.955 68.454,-189.165 64.4076,-183.532 53.7601,-168.711 43.4969,-151.07 35.6482,-136.618"/>
<polygon fill="black" stroke="black" stroke-width="2" points="38.6549,-134.818 30.8593,-127.643 32.479,-138.114 38.6549,-134.818"/>
</g>
<!-- 1&#45;&gt;6 -->
<g id="edge9" class="edge"><title>1&#45;&gt;6</title>
<path fill="none" stroke="black" stroke-width="2" d="M109.707,-202.575C127.842,-189.043 156.625,-167.567 177.302,-152.138"/>
<polygon fill="black" stroke="black" stroke-width="2" points="179.416,-154.927 185.338,-146.141 175.23,-149.317 179.416,-154.927"/>
</g>
<!-- 2 -->
<g id="node3" class="node"><title>2</title>
<ellipse fill="cadetblue" stroke="black" cx="143.282" cy="-21.2132" rx="21.4286" ry="21.4286"/>
<text text-anchor="middle" x="143.282" y="-16.2132" font-family="Times New Roman,serif" font-size="20.00">2</text>
</g>
<!-- 2&#45;&gt;6 -->
<g id="edge12" class="edge"><title>2&#45;&gt;6</title>
<path fill="none" stroke="black" stroke-width="2" d="M153.174,-39.9951C162.634,-57.9579 177.013,-85.2619 187.789,-105.722"/>
<polygon fill="black" stroke="black" stroke-width="2" points="184.699,-107.366 192.455,-114.583 190.892,-104.104 184.699,-107.366"/>
</g>
<!-- 2&#45;&gt;7 -->
<g id="edge13" class="edge"><title>2&#45;&gt;7</title>
<path fill="none" stroke="black" stroke-width="2" d="M124.557,-31.9788C116.925,-36.3668 107.945,-41.5294 99.5892,-46.3334"/>
<polygon fill="black" stroke="black" stroke-width="2" points="97.7852,-43.3333 90.8604,-51.3518 101.274,-49.4018 97.7852,-43.3333"/>
</g>
<!-- 3 -->
<g id="node4" class="node"><title>3</title>
<ellipse fill="cadetblue" stroke="black" cx="169.13" cy="-202.095" rx="21.4286" ry="21.4286"/>
<text text-anchor="middle" x="169.13" y="-197.095" font-family="Times New Roman,serif" font-size="20.00">2</text>
</g>
<!-- 3&#45;&gt;0 -->
<g id="edge1" class="edge"><title>3&#45;&gt;0</title>
<path fill="none" stroke="black" stroke-width="2" d="M149.591,-193.666C138.55,-188.903 124.533,-182.856 112.212,-177.541"/>
<polygon fill="black" stroke="black" stroke-width="2" points="113.352,-174.221 102.784,-173.473 110.58,-180.648 113.352,-174.221"/>
</g>
<!-- 3&#45;&gt;1 -->
<g id="edge6" class="edge"><title>3&#45;&gt;1</title>
<path fill="none" stroke="black" stroke-width="2" d="M148.203,-205.726C140.605,-207.044 131.849,-208.562 123.565,-209.999"/>
<polygon fill="black" stroke="black" stroke-width="2" points="122.702,-206.597 113.447,-211.755 123.898,-213.494 122.702,-206.597"/>
</g>
<!-- 4 -->
<g id="node5" class="node"><title>4</title>
<ellipse fill="cadetblue" stroke="black" cx="123.195" cy="-101.509" rx="21.4286" ry="21.4286"/>
<text text-anchor="middle" x="123.195" y="-96.5094" font-family="Times New Roman,serif" font-size="20.00">2</text>
</g>
<!-- 4&#45;&gt;0 -->
<g id="edge2" class="edge"><title>4&#45;&gt;0</title>
<path fill="none" stroke="black" stroke-width="2" d="M111.791,-119.519C108.176,-125.229 104.095,-131.673 100.168,-137.875"/>
<polygon fill="black" stroke="black" stroke-width="2" points="96.9892,-136.353 94.5964,-146.674 102.903,-140.098 96.9892,-136.353"/>
</g>
<!-- 4&#45;&gt;1 -->
<g id="edge7" class="edge"><title>4&#45;&gt;1</title>
<path fill="none" stroke="black" stroke-width="2" d="M119.19,-122.512C116.676,-134.94 113.185,-150.945 109.329,-164.973 107.456,-171.785 105.202,-179.033 102.962,-185.847"/>
<polygon fill="black" stroke="black" stroke-width="2" points="99.6134,-184.823 99.7358,-195.417 106.247,-187.059 99.6134,-184.823"/>
</g>
<!-- 4&#45;&gt;2 -->
<g id="edge10" class="edge"><title>4&#45;&gt;2</title>
<path fill="none" stroke="black" stroke-width="2" d="M128.368,-80.8311C130.594,-71.9334 133.241,-61.3522 135.683,-51.5914"/>
<polygon fill="black" stroke="black" stroke-width="2" points="139.095,-52.3719 138.127,-41.8214 132.305,-50.673 139.095,-52.3719"/>
</g>
<!-- 5&#45;&gt;2 -->
<g id="edge11" class="edge"><title>5&#45;&gt;2</title>
<path fill="none" stroke="black" stroke-width="2" d="M41.9405,-103.081C56.4582,-98.6344 75.8274,-91.3377 90.6119,-80.7886 103.634,-71.4971 115.659,-58.4111 124.921,-46.8693"/>
<polygon fill="black" stroke="black" stroke-width="2" points="127.801,-48.8656 131.152,-38.8144 122.265,-44.5827 127.801,-48.8656"/>
</g>
<!-- 5&#45;&gt;4 -->
<g id="edge16" class="edge"><title>5&#45;&gt;4</title>
<path fill="none" stroke="black" stroke-width="2" d="M42.841,-107.012C56.9976,-106.043 75.7349,-104.759 91.5545,-103.676"/>
<polygon fill="black" stroke="black" stroke-width="2" points="92.2108,-107.139 101.948,-102.964 91.7325,-100.156 92.2108,-107.139"/>
</g>
<!-- 6&#45;&gt;3 -->
<g id="edge14" class="edge"><title>6&#45;&gt;3</title>
<path fill="none" stroke="black" stroke-width="2" d="M193.117,-152.554C190,-158.993 186.449,-166.326 183.053,-173.34"/>
<polygon fill="black" stroke="black" stroke-width="2" points="179.781,-172.067 178.573,-182.592 186.081,-175.117 179.781,-172.067"/>
</g>
<!-- 7&#45;&gt;3 -->
<g id="edge15" class="edge"><title>7&#45;&gt;3</title>
<path fill="none" stroke="black" stroke-width="2" d="M81.6578,-81.0879C87.7564,-92.5813 96.0443,-107.407 104.412,-119.925 118.076,-140.365 135.39,-162.17 148.671,-178.178"/>
<polygon fill="black" stroke="black" stroke-width="2" points="146.104,-180.563 155.208,-185.982 151.47,-176.069 146.104,-180.563"/>
</g>
<!-- 7&#45;&gt;4 -->
<g id="edge17" class="edge"><title>7&#45;&gt;4</title>
<path fill="none" stroke="black" stroke-width="2" d="M89.0558,-75.2813C91.9601,-77.5126 95.0305,-79.8715 98.0915,-82.2231"/>
<polygon fill="black" stroke="black" stroke-width="2" points="95.9898,-85.0221 106.052,-88.339 100.254,-79.4711 95.9898,-85.0221"/>
</g>
<!-- 7&#45;&gt;5 -->
<g id="edge18" class="edge"><title>7&#45;&gt;5</title>
<path fill="none" stroke="black" stroke-width="2" d="M56.2179,-76.5853C52.5263,-79.9503 48.5171,-83.6048 44.5739,-87.1991"/>
<polygon fill="black" stroke="black" stroke-width="2" points="42.2059,-84.6218 37.1732,-93.9451 46.9215,-89.7951 42.2059,-84.6218"/>
</g>
</g>
</svg>

