<?xml version="1.0" encoding="UTF-8" standalone="no"?>
<!DOCTYPE svg PUBLIC "-//W3C//DTD SVG 1.1//EN"
 "http://www.w3.org/Graphics/SVG/1.1/DTD/svg11.dtd">
<!-- Generated by graphviz version 2.36.0 (20140111.2315)
 -->
<!-- Title: G Pages: 1 -->
<svg width="100%" height="100%"
 viewBox="0.00 0.00 288.32 286.64" xmlns="http://www.w3.org/2000/svg" xmlns:xlink="http://www.w3.org/1999/xlink">
<g id="graph0" class="graph" transform="scale(1 1) rotate(0) translate(4 282.64)">
<title>G</title>
<!-- 0 -->
<g id="node1" class="node"><title>0</title>
<ellipse fill="cadetblue" stroke="black" cx="259.107" cy="-178.119" rx="21.4286" ry="21.4286"/>
<text text-anchor="middle" x="259.107" y="-173.119" font-family="Times New Roman,serif" font-size="20.00">2</text>
</g>
<!-- 6 -->
<g id="node7" class="node"><title>6</title>
<ellipse fill="cadetblue" stroke="black" cx="105.952" cy="-171.169" rx="21.4286" ry="21.4286"/>
<text text-anchor="middle" x="105.952" y="-166.169" font-family="Times New Roman,serif" font-size="20.00">2</text>
</g>
<!-- 0&#45;&gt;6 -->
<g id="edge3" class="edge"><title>0&#45;&gt;6</title>
<path fill="none" stroke="black" stroke-width="2" d="M237.811,-177.153C211.898,-175.977 167.899,-173.98 137.914,-172.62"/>
<polygon fill="black" stroke="black" stroke-width="2" points="137.709,-169.107 127.561,-172.15 137.392,-176.1 137.709,-169.107"/>
</g>
<!-- 7 -->
<g id="node8" class="node"><title>7</title>
<ellipse fill="dodgerblue" stroke="black" cx="156.384" cy="-124.951" rx="21.4286" ry="21.4286"/>
<text text-anchor="middle" x="156.384" y="-119.951" font-family="Times New Roman,serif" font-size="20.00">4</text>
</g>
<!-- 0&#45;&gt;7 -->
<g id="edge4" class="edge"><title>0&#45;&gt;7</title>
<path fill="none" stroke="black" stroke-width="2" d="M240.266,-168.367C224.725,-160.324 202.436,-148.787 184.74,-139.628"/>
<polygon fill="black" stroke="black" stroke-width="2" points="185.943,-136.31 175.453,-134.821 182.725,-142.526 185.943,-136.31"/>
</g>
<!-- 1 -->
<g id="node2" class="node"><title>1</title>
<ellipse fill="cadetblue" stroke="black" cx="34.7872" cy="-248.933" rx="21.4286" ry="21.4286"/>
<text text-anchor="middle" x="34.7872" y="-243.933" font-family="Times New Roman,serif" font-size="20.00">2</text>
</g>
<!-- 1&#45;&gt;6 -->
<g id="edge7" class="edge"><title>1&#45;&gt;6</title>
<path fill="none" stroke="black" stroke-width="2" d="M49.1885,-233.197C59.4133,-222.024 73.3067,-206.842 84.7891,-194.295"/>
<polygon fill="black" stroke="black" stroke-width="2" points="87.4034,-196.623 91.5725,-186.883 82.2393,-191.897 87.4034,-196.623"/>
</g>
<!-- 1&#45;&gt;7 -->
<g id="edge8" class="edge"><title>1&#45;&gt;7</title>
<path fill="none" stroke="black" stroke-width="2" d="M54.1168,-240.04C73.9153,-230.129 104.544,-212.47 124.53,-189.791 133.47,-179.647 140.53,-166.547 145.707,-154.78"/>
<polygon fill="black" stroke="black" stroke-width="2" points="149.039,-155.883 149.614,-145.303 142.567,-153.215 149.039,-155.883"/>
</g>
<!-- 2 -->
<g id="node3" class="node"><title>2</title>
<ellipse fill="cadetblue" stroke="black" cx="99.93" cy="-21.2132" rx="21.4286" ry="21.4286"/>
<text text-anchor="middle" x="99.93" y="-16.2132" font-family="Times New Roman,serif" font-size="20.00">2</text>
</g>
<!-- 4 -->
<g id="node5" class="node"><title>4</title>
<ellipse fill="cadetblue" stroke="black" cx="243.984" cy="-34.4753" rx="21.4286" ry="21.4286"/>
<text text-anchor="middle" x="243.984" y="-29.4753" font-family="Times New Roman,serif" font-size="20.00">2</text>
</g>
<!-- 2&#45;&gt;4 -->
<g id="edge9" class="edge"><title>2&#45;&gt;4</title>
<path fill="none" stroke="black" stroke-width="2" d="M121.186,-23.1701C145.336,-25.3934 184.981,-29.0433 212.671,-31.5925"/>
<polygon fill="black" stroke="black" stroke-width="2" points="212.362,-35.0788 222.641,-32.5104 213.004,-28.1083 212.362,-35.0788"/>
</g>
<!-- 2&#45;&gt;7 -->
<g id="edge12" class="edge"><title>2&#45;&gt;7</title>
<path fill="none" stroke="black" stroke-width="2" d="M110.285,-40.2404C118.959,-56.1797 131.458,-79.148 141.254,-97.1483"/>
<polygon fill="black" stroke="black" stroke-width="2" points="138.241,-98.9342 146.095,-106.045 144.389,-95.5882 138.241,-98.9342"/>
</g>
<!-- 3 -->
<g id="node4" class="node"><title>3</title>
<ellipse fill="cadetblue" stroke="black" cx="148.903" cy="-257.426" rx="21.4286" ry="21.4286"/>
<text text-anchor="middle" x="148.903" y="-252.426" font-family="Times New Roman,serif" font-size="20.00">2</text>
</g>
<!-- 3&#45;&gt;0 -->
<g id="edge1" class="edge"><title>3&#45;&gt;0</title>
<path fill="none" stroke="black" stroke-width="2" d="M166.122,-245.035C184.132,-232.074 212.606,-211.583 233.304,-196.688"/>
<polygon fill="black" stroke="black" stroke-width="2" points="235.572,-199.368 241.645,-190.686 231.483,-193.686 235.572,-199.368"/>
</g>
<!-- 3&#45;&gt;1 -->
<g id="edge5" class="edge"><title>3&#45;&gt;1</title>
<path fill="none" stroke="black" stroke-width="2" d="M127.706,-255.849C110.441,-254.564 85.8088,-252.731 66.2436,-251.275"/>
<polygon fill="black" stroke="black" stroke-width="2" points="66.4899,-247.783 56.2577,-250.531 65.9703,-254.764 66.4899,-247.783"/>
</g>
<!-- 5 -->
<g id="node6" class="node"><title>5</title>
<ellipse fill="brown" stroke="black" cx="21.2132" cy="-133.192" rx="21.4286" ry="21.4286"/>
<text text-anchor="middle" x="21.2132" y="-128.192" font-family="Times New Roman,serif" font-size="20.00">3</text>
</g>
<!-- 3&#45;&gt;5 -->
<g id="edge13" class="edge"><title>3&#45;&gt;5</title>
<path fill="none" stroke="black" stroke-width="2" d="M133.5,-242.441C111.259,-220.801 69.9891,-180.648 44.1542,-155.512"/>
<polygon fill="black" stroke="black" stroke-width="2" points="46.2783,-152.695 36.6702,-148.23 41.3968,-157.712 46.2783,-152.695"/>
</g>
<!-- 4&#45;&gt;0 -->
<g id="edge2" class="edge"><title>4&#45;&gt;0</title>
<path fill="none" stroke="black" stroke-width="2" d="M246.215,-55.6704C248.739,-79.646 252.876,-118.936 255.781,-146.53"/>
<polygon fill="black" stroke="black" stroke-width="2" points="252.338,-147.259 256.866,-156.837 259.3,-146.526 252.338,-147.259"/>
</g>
<!-- 5&#45;&gt;1 -->
<g id="edge6" class="edge"><title>5&#45;&gt;1</title>
<path fill="none" stroke="black" stroke-width="2" d="M23.7029,-154.42C25.7789,-172.123 28.7663,-197.595 31.1167,-217.636"/>
<polygon fill="black" stroke="black" stroke-width="2" points="27.6722,-218.315 32.3133,-227.839 34.6246,-217.5 27.6722,-218.315"/>
</g>
<!-- 5&#45;&gt;2 -->
<g id="edge10" class="edge"><title>5&#45;&gt;2</title>
<path fill="none" stroke="black" stroke-width="2" d="M33.5127,-115.695C46.5102,-97.2055 67.1382,-67.8611 81.9575,-46.7799"/>
<polygon fill="black" stroke="black" stroke-width="2" points="84.8293,-48.7807 87.7169,-38.587 79.1026,-44.7551 84.8293,-48.7807"/>
</g>
<!-- 6&#45;&gt;2 -->
<g id="edge11" class="edge"><title>6&#45;&gt;2</title>
<path fill="none" stroke="black" stroke-width="2" d="M105.09,-149.684C104.07,-124.296 102.365,-81.8321 101.195,-52.7225"/>
<polygon fill="black" stroke="black" stroke-width="2" points="104.69,-52.5099 100.791,-42.6584 97.6955,-52.7908 104.69,-52.5099"/>
</g>
<!-- 6&#45;&gt;3 -->
<g id="edge14" class="edge"><title>6&#45;&gt;3</title>
<path fill="none" stroke="black" stroke-width="2" d="M115.484,-190.313C121.156,-201.703 128.458,-216.367 134.788,-229.081"/>
<polygon fill="black" stroke="black" stroke-width="2" points="131.807,-230.945 139.397,-238.337 138.073,-227.825 131.807,-230.945"/>
</g>
<!-- 6&#45;&gt;5 -->
<g id="edge17" class="edge"><title>6&#45;&gt;5</title>
<path fill="none" stroke="black" stroke-width="2" d="M86.2986,-162.361C75.4964,-157.52 61.8975,-151.425 49.927,-146.06"/>
<polygon fill="black" stroke="black" stroke-width="2" points="51.3174,-142.848 40.7605,-141.952 48.4545,-149.236 51.3174,-142.848"/>
</g>
<!-- 6&#45;&gt;7 -->
<g id="edge19" class="edge"><title>6&#45;&gt;7</title>
<path fill="none" stroke="black" stroke-width="2" d="M121.633,-156.799C125.204,-153.526 129.074,-149.98 132.891,-146.481"/>
<polygon fill="black" stroke="black" stroke-width="2" points="135.532,-148.809 140.54,-139.472 130.802,-143.648 135.532,-148.809"/>
</g>
<!-- 7&#45;&gt;3 -->
<g id="edge15" class="edge"><title>7&#45;&gt;3</title>
<path fill="none" stroke="black" stroke-width="2" d="M155.182,-146.236C153.966,-167.77 152.072,-201.308 150.682,-225.922"/>
<polygon fill="black" stroke="black" stroke-width="2" points="147.171,-226.013 150.102,-236.195 154.16,-226.408 147.171,-226.013"/>
</g>
<!-- 7&#45;&gt;4 -->
<g id="edge16" class="edge"><title>7&#45;&gt;4</title>
<path fill="none" stroke="black" stroke-width="2" d="M171.244,-109.603C185.087,-95.3055 205.911,-73.7975 221.736,-57.4532"/>
<polygon fill="black" stroke="black" stroke-width="2" points="224.609,-59.5176 229.051,-49.8986 219.58,-54.6484 224.609,-59.5176"/>
</g>
<!-- 7&#45;&gt;5 -->
<g id="edge18" class="edge"><title>7&#45;&gt;5</title>
<path fill="none" stroke="black" stroke-width="2" d="M134.966,-126.257C112.819,-127.607 78.0036,-129.73 52.7192,-131.271"/>
<polygon fill="black" stroke="black" stroke-width="2" points="52.2997,-127.79 42.5312,-131.892 52.7257,-134.777 52.2997,-127.79"/>
</g>
</g>
</svg>

