<?xml version="1.0" encoding="UTF-8" standalone="no"?>
<!DOCTYPE svg PUBLIC "-//W3C//DTD SVG 1.1//EN"
 "http://www.w3.org/Graphics/SVG/1.1/DTD/svg11.dtd">
<!-- Generated by graphviz version 2.36.0 (20140111.2315)
 -->
<!-- Title: G Pages: 1 -->
<svg width="100%" height="100%"
 viewBox="0.00 0.00 234.58 235.83" xmlns="http://www.w3.org/2000/svg" xmlns:xlink="http://www.w3.org/1999/xlink">
<g id="graph0" class="graph" transform="scale(1 1) rotate(0) translate(4 231.827)">
<title>G</title>
<!-- 0 -->
<g id="node1" class="node"><title>0</title>
<ellipse fill="cadetblue" stroke="black" cx="82.1248" cy="-103.972" rx="21.4286" ry="21.4286"/>
<text text-anchor="middle" x="82.1248" y="-98.9717" font-family="Times New Roman,serif" font-size="20.00">2</text>
</g>
<!-- 4 -->
<g id="node5" class="node"><title>4</title>
<ellipse fill="cadetblue" stroke="black" cx="197.191" cy="-131.581" rx="21.4286" ry="21.4286"/>
<text text-anchor="middle" x="197.191" y="-126.581" font-family="Times New Roman,serif" font-size="20.00">2</text>
</g>
<!-- 0&#45;&gt;4 -->
<g id="edge2" class="edge"><title>0&#45;&gt;4</title>
<path fill="none" stroke="black" stroke-width="2" d="M102.962,-108.971C120.721,-113.232 146.484,-119.414 166.586,-124.237"/>
<polygon fill="black" stroke="black" stroke-width="2" points="165.968,-127.688 176.509,-126.618 167.601,-120.881 165.968,-127.688"/>
</g>
<!-- 5 -->
<g id="node6" class="node"><title>5</title>
<ellipse fill="cadetblue" stroke="black" cx="87.0951" cy="-164.209" rx="21.4286" ry="21.4286"/>
<text text-anchor="middle" x="87.0951" y="-159.209" font-family="Times New Roman,serif" font-size="20.00">2</text>
</g>
<!-- 0&#45;&gt;5 -->
<g id="edge3" class="edge"><title>0&#45;&gt;5</title>
<path fill="none" stroke="black" stroke-width="2" d="M83.8911,-125.379C84.0889,-127.775 84.2933,-130.253 84.4987,-132.742"/>
<polygon fill="black" stroke="black" stroke-width="2" points="81.0239,-133.192 85.3344,-142.871 88.0002,-132.617 81.0239,-133.192"/>
</g>
<!-- 7 -->
<g id="node8" class="node"><title>7</title>
<ellipse fill="brown" stroke="black" cx="94.0031" cy="-26.5943" rx="21.4286" ry="21.4286"/>
<text text-anchor="middle" x="94.0031" y="-21.5943" font-family="Times New Roman,serif" font-size="20.00">3</text>
</g>
<!-- 0&#45;&gt;7 -->
<g id="edge5" class="edge"><title>0&#45;&gt;7</title>
<path fill="none" stroke="black" stroke-width="2" d="M85.3706,-82.828C86.5622,-75.0659 87.9372,-66.1085 89.2347,-57.6567"/>
<polygon fill="black" stroke="black" stroke-width="2" points="92.7033,-58.1278 90.7612,-47.7124 85.7843,-57.0656 92.7033,-58.1278"/>
</g>
<!-- 1 -->
<g id="node2" class="node"><title>1</title>
<ellipse fill="cadetblue" stroke="black" cx="170.18" cy="-206.614" rx="21.4286" ry="21.4286"/>
<text text-anchor="middle" x="170.18" y="-201.614" font-family="Times New Roman,serif" font-size="20.00">2</text>
</g>
<!-- 1&#45;&gt;5 -->
<g id="edge7" class="edge"><title>1&#45;&gt;5</title>
<path fill="none" stroke="black" stroke-width="2" d="M150.909,-196.779C140.318,-191.373 126.985,-184.568 115.248,-178.578"/>
<polygon fill="black" stroke="black" stroke-width="2" points="116.759,-175.419 106.261,-173.991 113.576,-181.654 116.759,-175.419"/>
</g>
<!-- 2 -->
<g id="node3" class="node"><title>2</title>
<ellipse fill="cadetblue" stroke="black" cx="205.365" cy="-21.2132" rx="21.4286" ry="21.4286"/>
<text text-anchor="middle" x="205.365" y="-16.2132" font-family="Times New Roman,serif" font-size="20.00">2</text>
</g>
<!-- 6 -->
<g id="node7" class="node"><title>6</title>
<ellipse fill="cadetblue" stroke="black" cx="146.76" cy="-84.7162" rx="21.4286" ry="21.4286"/>
<text text-anchor="middle" x="146.76" y="-79.7162" font-family="Times New Roman,serif" font-size="20.00">2</text>
</g>
<!-- 2&#45;&gt;6 -->
<g id="edge10" class="edge"><title>2&#45;&gt;6</title>
<path fill="none" stroke="black" stroke-width="2" d="M190.878,-36.9106C184.097,-44.2586 175.879,-53.1633 168.383,-61.2862"/>
<polygon fill="black" stroke="black" stroke-width="2" points="165.697,-59.0358 161.487,-68.7583 170.841,-63.7832 165.697,-59.0358"/>
</g>
<!-- 3 -->
<g id="node4" class="node"><title>3</title>
<ellipse fill="cadetblue" stroke="black" cx="21.2132" cy="-82.475" rx="21.4286" ry="21.4286"/>
<text text-anchor="middle" x="21.2132" y="-77.475" font-family="Times New Roman,serif" font-size="20.00">2</text>
</g>
<!-- 3&#45;&gt;0 -->
<g id="edge1" class="edge"><title>3&#45;&gt;0</title>
<path fill="none" stroke="black" stroke-width="2" d="M41.4959,-89.6331C44.9523,-90.853 48.6063,-92.1425 52.2492,-93.4281"/>
<polygon fill="black" stroke="black" stroke-width="2" points="51.1282,-96.744 61.723,-96.7716 53.4578,-90.143 51.1282,-96.744"/>
</g>
<!-- 3&#45;&gt;6 -->
<g id="edge13" class="edge"><title>3&#45;&gt;6</title>
<path fill="none" stroke="black" stroke-width="2" d="M42.3326,-79.8308C54.0463,-78.6104 68.8853,-77.4688 82.1488,-77.6674 93.0646,-77.8307 104.958,-78.8774 115.531,-80.1164"/>
<polygon fill="black" stroke="black" stroke-width="2" points="115.217,-83.6046 125.579,-81.3939 116.1,-76.6605 115.217,-83.6046"/>
</g>
<!-- 4&#45;&gt;1 -->
<g id="edge6" class="edge"><title>4&#45;&gt;1</title>
<path fill="none" stroke="black" stroke-width="2" d="M189.953,-151.688C187.167,-159.426 183.924,-168.433 180.881,-176.888"/>
<polygon fill="black" stroke="black" stroke-width="2" points="177.532,-175.857 177.438,-186.451 184.118,-178.228 177.532,-175.857"/>
</g>
<!-- 4&#45;&gt;2 -->
<g id="edge9" class="edge"><title>4&#45;&gt;2</title>
<path fill="none" stroke="black" stroke-width="2" d="M198.767,-110.301C199.983,-93.8871 201.682,-70.9401 203.052,-52.4461"/>
<polygon fill="black" stroke="black" stroke-width="2" points="206.545,-52.659 203.794,-42.4278 199.565,-52.142 206.545,-52.659"/>
</g>
<!-- 5&#45;&gt;3 -->
<g id="edge12" class="edge"><title>5&#45;&gt;3</title>
<path fill="none" stroke="black" stroke-width="2" d="M73.7629,-147.669C64.4483,-136.113 51.8447,-120.477 41.3157,-107.414"/>
<polygon fill="black" stroke="black" stroke-width="2" points="43.7524,-104.86 34.7517,-99.271 38.3024,-109.253 43.7524,-104.86"/>
</g>
<!-- 5&#45;&gt;4 -->
<g id="edge15" class="edge"><title>5&#45;&gt;4</title>
<path fill="none" stroke="black" stroke-width="2" d="M107.545,-158.148C124.308,-153.18 148.268,-146.079 167.201,-140.469"/>
<polygon fill="black" stroke="black" stroke-width="2" points="168.257,-143.806 176.85,-137.609 166.268,-137.094 168.257,-143.806"/>
</g>
<!-- 5&#45;&gt;7 -->
<g id="edge16" class="edge"><title>5&#45;&gt;7</title>
<path fill="none" stroke="black" stroke-width="2" d="M96.6944,-145.254C101.82,-133.672 107.304,-118.369 108.429,-103.996 109.665,-88.2049 106.827,-70.8511 103.349,-56.5845"/>
<polygon fill="black" stroke="black" stroke-width="2" points="106.702,-55.5749 100.753,-46.8082 99.9368,-57.3716 106.702,-55.5749"/>
</g>
<!-- 6&#45;&gt;0 -->
<g id="edge4" class="edge"><title>6&#45;&gt;0</title>
<path fill="none" stroke="black" stroke-width="2" d="M126.309,-90.8088C121.947,-92.1082 117.25,-93.5074 112.604,-94.8915"/>
<polygon fill="black" stroke="black" stroke-width="2" points="111.249,-91.6432 102.664,-97.8527 113.248,-98.3518 111.249,-91.6432"/>
</g>
<!-- 6&#45;&gt;1 -->
<g id="edge8" class="edge"><title>6&#45;&gt;1</title>
<path fill="none" stroke="black" stroke-width="2" d="M150.786,-105.671C154.489,-124.946 160.028,-153.775 164.239,-175.695"/>
<polygon fill="black" stroke="black" stroke-width="2" points="160.804,-176.365 166.128,-185.525 167.678,-175.044 160.804,-176.365"/>
</g>
<!-- 6&#45;&gt;7 -->
<g id="edge17" class="edge"><title>6&#45;&gt;7</title>
<path fill="none" stroke="black" stroke-width="2" d="M132.344,-68.8341C127.11,-63.0678 121.078,-56.4231 115.372,-50.1362"/>
<polygon fill="black" stroke="black" stroke-width="2" points="117.714,-47.5094 108.402,-42.4572 112.531,-52.2141 117.714,-47.5094"/>
</g>
<!-- 7&#45;&gt;2 -->
<g id="edge11" class="edge"><title>7&#45;&gt;2</title>
<path fill="none" stroke="black" stroke-width="2" d="M115.212,-25.5695C131.747,-24.7705 154.971,-23.6483 173.705,-22.743"/>
<polygon fill="black" stroke="black" stroke-width="2" points="174.037,-26.2312 183.856,-22.2525 173.699,-19.2393 174.037,-26.2312"/>
</g>
<!-- 7&#45;&gt;3 -->
<g id="edge14" class="edge"><title>7&#45;&gt;3</title>
<path fill="none" stroke="black" stroke-width="2" d="M77.1207,-39.5549C67.9993,-46.5574 56.5564,-55.3421 46.4027,-63.1371"/>
<polygon fill="black" stroke="black" stroke-width="2" points="44.057,-60.5254 38.2562,-69.3911 48.3197,-66.0779 44.057,-60.5254"/>
</g>
</g>
</svg>

