<?xml version="1.0" encoding="UTF-8" standalone="no"?>
<!DOCTYPE svg PUBLIC "-//W3C//DTD SVG 1.1//EN"
 "http://www.w3.org/Graphics/SVG/1.1/DTD/svg11.dtd">
<!-- Generated by graphviz version 2.36.0 (20140111.2315)
 -->
<!-- Title: G Pages: 1 -->
<svg width="100%" height="100%"
 viewBox="0.00 0.00 264.64 250.31" xmlns="http://www.w3.org/2000/svg" xmlns:xlink="http://www.w3.org/1999/xlink">
<g id="graph0" class="graph" transform="scale(1 1) rotate(0) translate(4 246.307)">
<title>G</title>
<!-- 0 -->
<g id="node1" class="node"><title>0</title>
<ellipse fill="cadetblue" stroke="black" cx="161.233" cy="-145.349" rx="21.4286" ry="21.4286"/>
<text text-anchor="middle" x="161.233" y="-140.349" font-family="Times New Roman,serif" font-size="20.00">2</text>
</g>
<!-- 4 -->
<g id="node5" class="node"><title>4</title>
<ellipse fill="cadetblue" stroke="black" cx="235.431" cy="-113.106" rx="21.4286" ry="21.4286"/>
<text text-anchor="middle" x="235.431" y="-108.106" font-family="Times New Roman,serif" font-size="20.00">2</text>
</g>
<!-- 0&#45;&gt;4 -->
<g id="edge2" class="edge"><title>0&#45;&gt;4</title>
<path fill="none" stroke="black" stroke-width="2" d="M180.727,-136.878C188.589,-133.461 197.823,-129.448 206.443,-125.702"/>
<polygon fill="black" stroke="black" stroke-width="2" points="208.032,-128.828 215.809,-121.633 205.243,-122.408 208.032,-128.828"/>
</g>
<!-- 5 -->
<g id="node6" class="node"><title>5</title>
<ellipse fill="cadetblue" stroke="black" cx="41.4374" cy="-99.4145" rx="21.4286" ry="21.4286"/>
<text text-anchor="middle" x="41.4374" y="-94.4145" font-family="Times New Roman,serif" font-size="20.00">2</text>
</g>
<!-- 0&#45;&gt;5 -->
<g id="edge3" class="edge"><title>0&#45;&gt;5</title>
<path fill="none" stroke="black" stroke-width="2" d="M141.182,-137.661C122.005,-130.308 92.8559,-119.131 71.0134,-110.755"/>
<polygon fill="black" stroke="black" stroke-width="2" points="72.1441,-107.44 61.5539,-107.128 69.6379,-113.976 72.1441,-107.44"/>
</g>
<!-- 6 -->
<g id="node7" class="node"><title>6</title>
<ellipse fill="cadetblue" stroke="black" cx="153.514" cy="-215.719" rx="21.4286" ry="21.4286"/>
<text text-anchor="middle" x="153.514" y="-210.719" font-family="Times New Roman,serif" font-size="20.00">2</text>
</g>
<!-- 0&#45;&gt;6 -->
<g id="edge4" class="edge"><title>0&#45;&gt;6</title>
<path fill="none" stroke="black" stroke-width="2" d="M158.917,-166.463C158.291,-172.168 157.6,-178.465 156.928,-184.595"/>
<polygon fill="black" stroke="black" stroke-width="2" points="153.439,-184.299 155.828,-194.621 160.398,-185.062 153.439,-184.299"/>
</g>
<!-- 1 -->
<g id="node2" class="node"><title>1</title>
<ellipse fill="cadetblue" stroke="black" cx="21.2132" cy="-221.094" rx="21.4286" ry="21.4286"/>
<text text-anchor="middle" x="21.2132" y="-216.094" font-family="Times New Roman,serif" font-size="20.00">2</text>
</g>
<!-- 3 -->
<g id="node4" class="node"><title>3</title>
<ellipse fill="cadetblue" stroke="black" cx="75.9528" cy="-185.251" rx="21.4286" ry="21.4286"/>
<text text-anchor="middle" x="75.9528" y="-180.251" font-family="Times New Roman,serif" font-size="20.00">2</text>
</g>
<!-- 1&#45;&gt;3 -->
<g id="edge6" class="edge"><title>1&#45;&gt;3</title>
<path fill="none" stroke="black" stroke-width="2" d="M39.137,-209.357C42.4791,-207.169 46.0355,-204.84 49.5698,-202.526"/>
<polygon fill="black" stroke="black" stroke-width="2" points="51.7269,-205.297 58.1757,-196.891 47.8923,-199.441 51.7269,-205.297"/>
</g>
<!-- 2 -->
<g id="node3" class="node"><title>2</title>
<ellipse fill="cadetblue" stroke="black" cx="145.177" cy="-21.2132" rx="21.4286" ry="21.4286"/>
<text text-anchor="middle" x="145.177" y="-16.2132" font-family="Times New Roman,serif" font-size="20.00">2</text>
</g>
<!-- 2&#45;&gt;5 -->
<g id="edge10" class="edge"><title>2&#45;&gt;5</title>
<path fill="none" stroke="black" stroke-width="2" d="M128.046,-34.1266C111.378,-46.6916 85.8516,-65.934 66.8236,-80.2779"/>
<polygon fill="black" stroke="black" stroke-width="2" points="64.4718,-77.6676 58.5933,-86.482 68.6855,-83.2573 64.4718,-77.6676"/>
</g>
<!-- 3&#45;&gt;0 -->
<g id="edge1" class="edge"><title>3&#45;&gt;0</title>
<path fill="none" stroke="black" stroke-width="2" d="M95.3041,-176.196C106.317,-171.044 120.319,-164.492 132.584,-158.754"/>
<polygon fill="black" stroke="black" stroke-width="2" points="134.384,-161.776 141.958,-154.368 131.417,-155.436 134.384,-161.776"/>
</g>
<!-- 3&#45;&gt;6 -->
<g id="edge13" class="edge"><title>3&#45;&gt;6</title>
<path fill="none" stroke="black" stroke-width="2" d="M95.9267,-193.097C104.521,-196.473 114.742,-200.488 124.171,-204.192"/>
<polygon fill="black" stroke="black" stroke-width="2" points="123.02,-207.501 133.608,-207.899 125.58,-200.985 123.02,-207.501"/>
</g>
<!-- 7 -->
<g id="node8" class="node"><title>7</title>
<ellipse fill="brown" stroke="black" cx="110.801" cy="-96.3469" rx="21.4286" ry="21.4286"/>
<text text-anchor="middle" x="110.801" y="-91.3469" font-family="Times New Roman,serif" font-size="20.00">3</text>
</g>
<!-- 3&#45;&gt;7 -->
<g id="edge14" class="edge"><title>3&#45;&gt;7</title>
<path fill="none" stroke="black" stroke-width="2" d="M83.8604,-165.077C88.4371,-153.401 94.2774,-138.502 99.3495,-125.562"/>
<polygon fill="black" stroke="black" stroke-width="2" points="102.654,-126.722 103.045,-116.134 96.1367,-124.167 102.654,-126.722"/>
</g>
<!-- 4&#45;&gt;2 -->
<g id="edge9" class="edge"><title>4&#45;&gt;2</title>
<path fill="none" stroke="black" stroke-width="2" d="M220.528,-97.9314C206.026,-83.1665 183.818,-60.5553 167.263,-43.7002"/>
<polygon fill="black" stroke="black" stroke-width="2" points="169.607,-41.0918 160.103,-36.4099 164.613,-45.9968 169.607,-41.0918"/>
</g>
<!-- 5&#45;&gt;1 -->
<g id="edge7" class="edge"><title>5&#45;&gt;1</title>
<path fill="none" stroke="black" stroke-width="2" d="M37.9146,-120.609C34.7246,-139.802 29.985,-168.318 26.3689,-190.075"/>
<polygon fill="black" stroke="black" stroke-width="2" points="22.8827,-189.703 24.6956,-200.142 29.7879,-190.851 22.8827,-189.703"/>
</g>
<!-- 5&#45;&gt;3 -->
<g id="edge12" class="edge"><title>5&#45;&gt;3</title>
<path fill="none" stroke="black" stroke-width="2" d="M49.4427,-119.323C53.8425,-130.265 59.3816,-144.04 64.2573,-156.165"/>
<polygon fill="black" stroke="black" stroke-width="2" points="61.0128,-157.478 67.9909,-165.45 67.5074,-154.866 61.0128,-157.478"/>
</g>
<!-- 5&#45;&gt;7 -->
<g id="edge16" class="edge"><title>5&#45;&gt;7</title>
<path fill="none" stroke="black" stroke-width="2" d="M63.0043,-98.4607C68.142,-98.2335 73.73,-97.9864 79.214,-97.7439"/>
<polygon fill="black" stroke="black" stroke-width="2" points="79.6503,-101.228 89.4858,-97.2896 79.3409,-94.2349 79.6503,-101.228"/>
</g>
<!-- 6&#45;&gt;1 -->
<g id="edge8" class="edge"><title>6&#45;&gt;1</title>
<path fill="none" stroke="black" stroke-width="2" d="M132.258,-216.583C110.751,-217.456 77.2583,-218.817 52.6766,-219.816"/>
<polygon fill="black" stroke="black" stroke-width="2" points="52.2665,-216.329 42.4169,-220.232 52.5507,-223.324 52.2665,-216.329"/>
</g>
<!-- 6&#45;&gt;4 -->
<g id="edge15" class="edge"><title>6&#45;&gt;4</title>
<path fill="none" stroke="black" stroke-width="2" d="M167.041,-198.775C180.342,-182.114 200.785,-156.506 215.858,-137.624"/>
<polygon fill="black" stroke="black" stroke-width="2" points="218.652,-139.734 222.156,-129.735 213.182,-135.366 218.652,-139.734"/>
</g>
<!-- 6&#45;&gt;7 -->
<g id="edge17" class="edge"><title>6&#45;&gt;7</title>
<path fill="none" stroke="black" stroke-width="2" d="M146.365,-195.739C139.527,-176.63 129.134,-147.584 121.346,-125.819"/>
<polygon fill="black" stroke="black" stroke-width="2" points="124.638,-124.629 117.974,-116.392 118.047,-126.987 124.638,-124.629"/>
</g>
<!-- 7&#45;&gt;0 -->
<g id="edge5" class="edge"><title>7&#45;&gt;0</title>
<path fill="none" stroke="black" stroke-width="2" d="M126.206,-111.316C130.117,-115.115 134.4,-119.277 138.588,-123.347"/>
<polygon fill="black" stroke="black" stroke-width="2" points="136.311,-126.014 145.922,-130.472 141.189,-120.993 136.311,-126.014"/>
</g>
<!-- 7&#45;&gt;2 -->
<g id="edge11" class="edge"><title>7&#45;&gt;2</title>
<path fill="none" stroke="black" stroke-width="2" d="M119.654,-76.9981C123.394,-68.824 127.828,-59.1314 131.943,-50.1376"/>
<polygon fill="black" stroke="black" stroke-width="2" points="135.257,-51.3072 136.235,-40.7576 128.892,-48.3948 135.257,-51.3072"/>
</g>
</g>
</svg>

