<?xml version="1.0" encoding="UTF-8" standalone="no"?>
<!DOCTYPE svg PUBLIC "-//W3C//DTD SVG 1.1//EN"
 "http://www.w3.org/Graphics/SVG/1.1/DTD/svg11.dtd">
<!-- Generated by graphviz version 2.36.0 (20140111.2315)
 -->
<!-- Title: G Pages: 1 -->
<svg width="100%" height="100%"
 viewBox="0.00 0.00 251.07 216.46" xmlns="http://www.w3.org/2000/svg" xmlns:xlink="http://www.w3.org/1999/xlink">
<g id="graph0" class="graph" transform="scale(1 1) rotate(0) translate(4 212.459)">
<title>G</title>
<!-- 0 -->
<g id="node1" class="node"><title>0</title>
<ellipse fill="cadetblue" stroke="black" cx="129.898" cy="-21.2132" rx="21.4286" ry="21.4286"/>
<text text-anchor="middle" x="129.898" y="-16.2132" font-family="Times New Roman,serif" font-size="20.00">2</text>
</g>
<!-- 5 -->
<g id="node6" class="node"><title>5</title>
<ellipse fill="cadetblue" stroke="black" cx="80.5062" cy="-125.833" rx="21.4286" ry="21.4286"/>
<text text-anchor="middle" x="80.5062" y="-120.833" font-family="Times New Roman,serif" font-size="20.00">2</text>
</g>
<!-- 0&#45;&gt;5 -->
<g id="edge3" class="edge"><title>0&#45;&gt;5</title>
<path fill="none" stroke="black" stroke-width="2" d="M120.839,-40.402C113.366,-56.2297 102.649,-78.9299 94.1406,-96.9529"/>
<polygon fill="black" stroke="black" stroke-width="2" points="90.7796,-95.874 89.6753,-106.411 97.1096,-98.8625 90.7796,-95.874"/>
</g>
<!-- 6 -->
<g id="node7" class="node"><title>6</title>
<ellipse fill="cadetblue" stroke="black" cx="130.938" cy="-92.7937" rx="21.4286" ry="21.4286"/>
<text text-anchor="middle" x="130.938" y="-87.7937" font-family="Times New Roman,serif" font-size="20.00">2</text>
</g>
<!-- 0&#45;&gt;6 -->
<g id="edge4" class="edge"><title>0&#45;&gt;6</title>
<path fill="none" stroke="black" stroke-width="2" d="M130.21,-42.6897C130.294,-48.4936 130.387,-54.8988 130.478,-61.1344"/>
<polygon fill="black" stroke="black" stroke-width="2" points="126.981,-61.3843 130.626,-71.3324 133.98,-61.2826 126.981,-61.3843"/>
</g>
<!-- 1 -->
<g id="node2" class="node"><title>1</title>
<ellipse fill="cadetblue" stroke="black" cx="186.65" cy="-187.246" rx="21.4286" ry="21.4286"/>
<text text-anchor="middle" x="186.65" y="-182.246" font-family="Times New Roman,serif" font-size="20.00">2</text>
</g>
<!-- 4 -->
<g id="node5" class="node"><title>4</title>
<ellipse fill="cadetblue" stroke="black" cx="221.852" cy="-101.168" rx="21.4286" ry="21.4286"/>
<text text-anchor="middle" x="221.852" y="-96.1681" font-family="Times New Roman,serif" font-size="20.00">2</text>
</g>
<!-- 1&#45;&gt;4 -->
<g id="edge5" class="edge"><title>1&#45;&gt;4</title>
<path fill="none" stroke="black" stroke-width="2" d="M194.814,-167.282C199.302,-156.309 204.951,-142.495 209.924,-130.335"/>
<polygon fill="black" stroke="black" stroke-width="2" points="213.186,-131.605 213.732,-121.024 206.707,-128.955 213.186,-131.605"/>
</g>
<!-- 7 -->
<g id="node8" class="node"><title>7</title>
<ellipse fill="brown" stroke="black" cx="106.065" cy="-177.178" rx="21.4286" ry="21.4286"/>
<text text-anchor="middle" x="106.065" y="-172.178" font-family="Times New Roman,serif" font-size="20.00">3</text>
</g>
<!-- 1&#45;&gt;7 -->
<g id="edge8" class="edge"><title>1&#45;&gt;7</title>
<path fill="none" stroke="black" stroke-width="2" d="M165.477,-184.601C156.939,-183.534 146.91,-182.281 137.548,-181.111"/>
<polygon fill="black" stroke="black" stroke-width="2" points="137.733,-177.607 127.376,-179.84 136.865,-184.553 137.733,-177.607"/>
</g>
<!-- 2 -->
<g id="node3" class="node"><title>2</title>
<ellipse fill="cadetblue" stroke="black" cx="32.1813" cy="-53.7612" rx="21.4286" ry="21.4286"/>
<text text-anchor="middle" x="32.1813" y="-48.7612" font-family="Times New Roman,serif" font-size="20.00">2</text>
</g>
<!-- 2&#45;&gt;7 -->
<g id="edge11" class="edge"><title>2&#45;&gt;7</title>
<path fill="none" stroke="black" stroke-width="2" d="M37.2588,-74.6232C43.1961,-97.7889 53.2975,-133.371 61.8235,-144.349 66.5828,-150.478 72.7686,-156.018 78.9988,-160.729"/>
<polygon fill="black" stroke="black" stroke-width="2" points="77.1951,-163.739 87.3923,-166.614 81.2141,-158.007 77.1951,-163.739"/>
</g>
<!-- 3 -->
<g id="node4" class="node"><title>3</title>
<ellipse fill="cadetblue" stroke="black" cx="21.2132" cy="-114.725" rx="21.4286" ry="21.4286"/>
<text text-anchor="middle" x="21.2132" y="-109.725" font-family="Times New Roman,serif" font-size="20.00">2</text>
</g>
<!-- 3&#45;&gt;0 -->
<g id="edge1" class="edge"><title>3&#45;&gt;0</title>
<path fill="none" stroke="black" stroke-width="2" d="M37.7201,-100.523C55.8589,-84.9163 85.1627,-59.7034 105.854,-41.9009"/>
<polygon fill="black" stroke="black" stroke-width="2" points="108.294,-44.4182 113.592,-35.243 103.729,-39.112 108.294,-44.4182"/>
</g>
<!-- 4&#45;&gt;0 -->
<g id="edge2" class="edge"><title>4&#45;&gt;0</title>
<path fill="none" stroke="black" stroke-width="2" d="M205.835,-87.241C191.419,-74.7064 170.043,-56.1201 153.641,-41.8577"/>
<polygon fill="black" stroke="black" stroke-width="2" points="155.883,-39.1693 146.04,-35.249 151.29,-44.4517 155.883,-39.1693"/>
</g>
<!-- 5&#45;&gt;1 -->
<g id="edge6" class="edge"><title>5&#45;&gt;1</title>
<path fill="none" stroke="black" stroke-width="2" d="M98.995,-136.53C115.635,-146.158 140.309,-160.434 159.243,-171.389"/>
<polygon fill="black" stroke="black" stroke-width="2" points="157.608,-174.487 168.016,-176.465 161.114,-168.428 157.608,-174.487"/>
</g>
<!-- 5&#45;&gt;2 -->
<g id="edge9" class="edge"><title>5&#45;&gt;2</title>
<path fill="none" stroke="black" stroke-width="2" d="M68.5607,-108.017C62.9266,-99.6145 56.0899,-89.4183 49.8708,-80.1432"/>
<polygon fill="black" stroke="black" stroke-width="2" points="52.633,-77.978 44.1569,-71.6214 46.819,-81.8764 52.633,-77.978"/>
</g>
<!-- 5&#45;&gt;7 -->
<g id="edge16" class="edge"><title>5&#45;&gt;7</title>
<path fill="none" stroke="black" stroke-width="2" d="M90.0235,-144.952C90.6143,-146.138 91.215,-147.345 91.8202,-148.561"/>
<polygon fill="black" stroke="black" stroke-width="2" points="88.8652,-150.479 96.4548,-157.871 95.1318,-147.359 88.8652,-150.479"/>
</g>
<!-- 6&#45;&gt;1 -->
<g id="edge7" class="edge"><title>6&#45;&gt;1</title>
<path fill="none" stroke="black" stroke-width="2" d="M141.945,-111.454C150.162,-125.386 161.514,-144.631 170.721,-160.242"/>
<polygon fill="black" stroke="black" stroke-width="2" points="167.76,-162.11 175.855,-168.946 173.789,-158.554 167.76,-162.11"/>
</g>
<!-- 6&#45;&gt;2 -->
<g id="edge10" class="edge"><title>6&#45;&gt;2</title>
<path fill="none" stroke="black" stroke-width="2" d="M110.953,-84.8949C96.7639,-79.2869 77.4839,-71.6667 61.5498,-65.3689"/>
<polygon fill="black" stroke="black" stroke-width="2" points="62.7229,-62.0691 52.1364,-61.6483 60.1498,-68.5791 62.7229,-62.0691"/>
</g>
<!-- 6&#45;&gt;3 -->
<g id="edge12" class="edge"><title>6&#45;&gt;3</title>
<path fill="none" stroke="black" stroke-width="2" d="M109.795,-95.064C100.768,-96.1777 90.1401,-97.681 80.6235,-99.5284 71.1316,-101.371 60.8972,-103.819 51.6417,-106.211"/>
<polygon fill="black" stroke="black" stroke-width="2" points="50.4658,-102.902 41.6997,-108.852 52.2632,-109.667 50.4658,-102.902"/>
</g>
<!-- 6&#45;&gt;5 -->
<g id="edge15" class="edge"><title>6&#45;&gt;5</title>
<path fill="none" stroke="black" stroke-width="2" d="M113.015,-104.535C111.083,-105.801 109.088,-107.108 107.082,-108.422"/>
<polygon fill="black" stroke="black" stroke-width="2" points="104.818,-105.721 98.3708,-114.129 108.654,-111.577 104.818,-105.721"/>
</g>
<!-- 7&#45;&gt;3 -->
<g id="edge13" class="edge"><title>7&#45;&gt;3</title>
<path fill="none" stroke="black" stroke-width="2" d="M88.8942,-164.539C76.703,-155.567 60.1375,-143.374 46.4468,-133.298"/>
<polygon fill="black" stroke="black" stroke-width="2" points="48.4872,-130.454 38.3587,-127.345 44.3378,-136.091 48.4872,-130.454"/>
</g>
<!-- 7&#45;&gt;4 -->
<g id="edge14" class="edge"><title>7&#45;&gt;4</title>
<path fill="none" stroke="black" stroke-width="2" d="M123.903,-165.468C142.971,-152.95 173.41,-132.969 195.296,-118.601"/>
<polygon fill="black" stroke="black" stroke-width="2" points="197.364,-121.43 203.803,-113.017 193.523,-115.578 197.364,-121.43"/>
</g>
<!-- 7&#45;&gt;6 -->
<g id="edge17" class="edge"><title>7&#45;&gt;6</title>
<path fill="none" stroke="black" stroke-width="2" d="M112.086,-156.751C115.058,-146.668 118.703,-134.301 121.994,-123.138"/>
<polygon fill="black" stroke="black" stroke-width="2" points="125.416,-123.907 124.886,-113.325 118.701,-121.928 125.416,-123.907"/>
</g>
</g>
</svg>

