<?xml version="1.0" encoding="UTF-8" standalone="no"?>
<!DOCTYPE svg PUBLIC "-//W3C//DTD SVG 1.1//EN"
 "http://www.w3.org/Graphics/SVG/1.1/DTD/svg11.dtd">
<!-- Generated by graphviz version 2.36.0 (20140111.2315)
 -->
<!-- Title: G Pages: 1 -->
<svg width="100%" height="100%"
 viewBox="0.00 0.00 233.54 269.75" xmlns="http://www.w3.org/2000/svg" xmlns:xlink="http://www.w3.org/1999/xlink">
<g id="graph0" class="graph" transform="scale(1 1) rotate(0) translate(4 265.745)">
<title>G</title>
<!-- 0 -->
<g id="node1" class="node"><title>0</title>
<ellipse fill="cadetblue" stroke="black" cx="203.539" cy="-207.482" rx="21.4286" ry="21.4286"/>
<text text-anchor="middle" x="203.539" y="-202.482" font-family="Times New Roman,serif" font-size="20.00">2</text>
</g>
<!-- 5 -->
<g id="node6" class="node"><title>5</title>
<ellipse fill="cadetblue" stroke="black" cx="127.023" cy="-120.307" rx="21.4286" ry="21.4286"/>
<text text-anchor="middle" x="127.023" y="-115.307" font-family="Times New Roman,serif" font-size="20.00">2</text>
</g>
<!-- 0&#45;&gt;5 -->
<g id="edge3" class="edge"><title>0&#45;&gt;5</title>
<path fill="none" stroke="black" stroke-width="2" d="M189.505,-191.493C177.929,-178.304 161.327,-159.389 148.145,-144.371"/>
<polygon fill="black" stroke="black" stroke-width="2" points="150.455,-141.697 141.228,-136.49 145.194,-146.315 150.455,-141.697"/>
</g>
<!-- 6 -->
<g id="node7" class="node"><title>6</title>
<ellipse fill="cadetblue" stroke="black" cx="131.349" cy="-240.532" rx="21.4286" ry="21.4286"/>
<text text-anchor="middle" x="131.349" y="-235.532" font-family="Times New Roman,serif" font-size="20.00">2</text>
</g>
<!-- 0&#45;&gt;6 -->
<g id="edge4" class="edge"><title>0&#45;&gt;6</title>
<path fill="none" stroke="black" stroke-width="2" d="M184.194,-216.339C176.749,-219.747 168.083,-223.715 159.948,-227.439"/>
<polygon fill="black" stroke="black" stroke-width="2" points="158.383,-224.306 150.748,-231.651 161.297,-230.671 158.383,-224.306"/>
</g>
<!-- 1 -->
<g id="node2" class="node"><title>1</title>
<ellipse fill="cadetblue" stroke="black" cx="21.2132" cy="-156.652" rx="21.4286" ry="21.4286"/>
<text text-anchor="middle" x="21.2132" y="-151.652" font-family="Times New Roman,serif" font-size="20.00">2</text>
</g>
<!-- 1&#45;&gt;6 -->
<g id="edge7" class="edge"><title>1&#45;&gt;6</title>
<path fill="none" stroke="black" stroke-width="2" d="M31.059,-175.461C38.1714,-187.527 48.7585,-202.783 61.5614,-212.961 72.9065,-221.981 87.5717,-228.368 100.528,-232.708"/>
<polygon fill="black" stroke="black" stroke-width="2" points="99.8699,-236.167 110.457,-235.76 101.927,-229.476 99.8699,-236.167"/>
</g>
<!-- 7 -->
<g id="node8" class="node"><title>7</title>
<ellipse fill="brown" stroke="black" cx="78.8089" cy="-69.8757" rx="21.4286" ry="21.4286"/>
<text text-anchor="middle" x="78.8089" y="-64.8757" font-family="Times New Roman,serif" font-size="20.00">3</text>
</g>
<!-- 1&#45;&gt;7 -->
<g id="edge8" class="edge"><title>1&#45;&gt;7</title>
<path fill="none" stroke="black" stroke-width="2" d="M33.1471,-138.672C41.2557,-126.455 52.1186,-110.089 61.2147,-96.3839"/>
<polygon fill="black" stroke="black" stroke-width="2" points="64.2764,-98.1001 66.8903,-87.8328 58.4441,-94.2291 64.2764,-98.1001"/>
</g>
<!-- 2 -->
<g id="node3" class="node"><title>2</title>
<ellipse fill="cadetblue" stroke="black" cx="168.331" cy="-21.2132" rx="21.4286" ry="21.4286"/>
<text text-anchor="middle" x="168.331" y="-16.2132" font-family="Times New Roman,serif" font-size="20.00">2</text>
</g>
<!-- 2&#45;&gt;7 -->
<g id="edge11" class="edge"><title>2&#45;&gt;7</title>
<path fill="none" stroke="black" stroke-width="2" d="M149.346,-31.5333C136.919,-38.2884 120.471,-47.2292 106.584,-54.7778"/>
<polygon fill="black" stroke="black" stroke-width="2" points="104.574,-51.8864 97.4599,-59.7374 107.917,-58.0365 104.574,-51.8864"/>
</g>
<!-- 3 -->
<g id="node4" class="node"><title>3</title>
<ellipse fill="cadetblue" stroke="black" cx="80.1923" cy="-194.392" rx="21.4286" ry="21.4286"/>
<text text-anchor="middle" x="80.1923" y="-189.392" font-family="Times New Roman,serif" font-size="20.00">2</text>
</g>
<!-- 3&#45;&gt;0 -->
<g id="edge1" class="edge"><title>3&#45;&gt;0</title>
<path fill="none" stroke="black" stroke-width="2" d="M101.396,-196.643C120.9,-198.712 150.072,-201.808 172.253,-204.162"/>
<polygon fill="black" stroke="black" stroke-width="2" points="171.886,-207.643 182.199,-205.218 172.624,-200.682 171.886,-207.643"/>
</g>
<!-- 3&#45;&gt;1 -->
<g id="edge5" class="edge"><title>3&#45;&gt;1</title>
<path fill="none" stroke="black" stroke-width="2" d="M62.1761,-182.864C57.6028,-179.938 52.5934,-176.732 47.6957,-173.598"/>
<polygon fill="black" stroke="black" stroke-width="2" points="49.4286,-170.552 39.119,-168.11 45.6557,-176.448 49.4286,-170.552"/>
</g>
<!-- 3&#45;&gt;7 -->
<g id="edge14" class="edge"><title>3&#45;&gt;7</title>
<path fill="none" stroke="black" stroke-width="2" d="M79.9545,-172.987C79.7357,-153.298 79.4086,-123.85 79.1598,-101.459"/>
<polygon fill="black" stroke="black" stroke-width="2" points="82.6592,-101.379 79.0483,-91.4182 75.6597,-101.457 82.6592,-101.379"/>
</g>
<!-- 4 -->
<g id="node5" class="node"><title>4</title>
<ellipse fill="cadetblue" stroke="black" cx="204.322" cy="-117.624" rx="21.4286" ry="21.4286"/>
<text text-anchor="middle" x="204.322" y="-112.624" font-family="Times New Roman,serif" font-size="20.00">2</text>
</g>
<!-- 4&#45;&gt;0 -->
<g id="edge2" class="edge"><title>4&#45;&gt;0</title>
<path fill="none" stroke="black" stroke-width="2" d="M204.137,-138.919C204.041,-149.918 203.922,-163.558 203.816,-175.768"/>
<polygon fill="black" stroke="black" stroke-width="2" points="200.314,-175.998 203.726,-186.029 207.313,-176.06 200.314,-175.998"/>
</g>
<!-- 4&#45;&gt;2 -->
<g id="edge9" class="edge"><title>4&#45;&gt;2</title>
<path fill="none" stroke="black" stroke-width="2" d="M196.865,-97.6479C191.798,-84.0745 185.01,-65.8909 179.326,-50.6646"/>
<polygon fill="black" stroke="black" stroke-width="2" points="182.555,-49.3085 175.779,-41.1641 175.997,-51.7566 182.555,-49.3085"/>
</g>
<!-- 5&#45;&gt;1 -->
<g id="edge6" class="edge"><title>5&#45;&gt;1</title>
<path fill="none" stroke="black" stroke-width="2" d="M106.622,-127.315C90.9594,-132.695 69.0913,-140.206 51.4041,-146.282"/>
<polygon fill="black" stroke="black" stroke-width="2" points="49.8724,-143.107 41.5518,-149.666 52.1465,-149.727 49.8724,-143.107"/>
</g>
<!-- 5&#45;&gt;2 -->
<g id="edge10" class="edge"><title>5&#45;&gt;2</title>
<path fill="none" stroke="black" stroke-width="2" d="M135.382,-100.254C141.356,-85.9229 149.488,-66.4159 156.178,-50.367"/>
<polygon fill="black" stroke="black" stroke-width="2" points="159.508,-51.4752 160.125,-40.8983 153.047,-48.7818 159.508,-51.4752"/>
</g>
<!-- 5&#45;&gt;3 -->
<g id="edge12" class="edge"><title>5&#45;&gt;3</title>
<path fill="none" stroke="black" stroke-width="2" d="M115.687,-138.241C110.091,-147.094 103.228,-157.951 97.0326,-167.751"/>
<polygon fill="black" stroke="black" stroke-width="2" points="93.9714,-166.044 91.5866,-176.367 99.8884,-169.784 93.9714,-166.044"/>
</g>
<!-- 6&#45;&gt;3 -->
<g id="edge13" class="edge"><title>6&#45;&gt;3</title>
<path fill="none" stroke="black" stroke-width="2" d="M115.443,-226.186C111.725,-222.833 107.688,-219.192 103.717,-215.61"/>
<polygon fill="black" stroke="black" stroke-width="2" points="106.034,-212.987 96.2644,-208.888 101.346,-218.185 106.034,-212.987"/>
</g>
<!-- 6&#45;&gt;4 -->
<g id="edge15" class="edge"><title>6&#45;&gt;4</title>
<path fill="none" stroke="black" stroke-width="2" d="M142.274,-222.132C154.418,-201.676 174.156,-168.432 188.105,-144.938"/>
<polygon fill="black" stroke="black" stroke-width="2" points="191.227,-146.536 193.323,-136.151 185.208,-142.962 191.227,-146.536"/>
</g>
<!-- 7&#45;&gt;4 -->
<g id="edge16" class="edge"><title>7&#45;&gt;4</title>
<path fill="none" stroke="black" stroke-width="2" d="M98.6968,-77.4416C119.14,-85.2188 151.209,-97.4187 174.652,-106.337"/>
<polygon fill="black" stroke="black" stroke-width="2" points="173.521,-109.651 184.112,-109.936 176.01,-103.109 173.521,-109.651"/>
</g>
<!-- 7&#45;&gt;5 -->
<g id="edge17" class="edge"><title>7&#45;&gt;5</title>
<path fill="none" stroke="black" stroke-width="2" d="M93.5368,-85.2808C97.1144,-89.0229 101.019,-93.1066 104.857,-97.1212"/>
<polygon fill="black" stroke="black" stroke-width="2" points="102.613,-99.8387 112.053,-104.648 107.672,-95.0014 102.613,-99.8387"/>
</g>
</g>
</svg>

