<?xml version="1.0" encoding="UTF-8" standalone="no"?>
<!DOCTYPE svg PUBLIC "-//W3C//DTD SVG 1.1//EN"
 "http://www.w3.org/Graphics/SVG/1.1/DTD/svg11.dtd">
<!-- Generated by graphviz version 2.36.0 (20140111.2315)
 -->
<!-- Title: G Pages: 1 -->
<svg width="100%" height="100%"
 viewBox="0.00 0.00 271.80 226.31" xmlns="http://www.w3.org/2000/svg" xmlns:xlink="http://www.w3.org/1999/xlink">
<g id="graph0" class="graph" transform="scale(1 1) rotate(0) translate(4 222.315)">
<title>G</title>
<!-- 0 -->
<g id="node1" class="node"><title>0</title>
<ellipse fill="cadetblue" stroke="black" cx="21.2132" cy="-197.102" rx="21.4286" ry="21.4286"/>
<text text-anchor="middle" x="21.2132" y="-192.102" font-family="Times New Roman,serif" font-size="20.00">2</text>
</g>
<!-- 3 -->
<g id="node4" class="node"><title>3</title>
<ellipse fill="brown" stroke="black" cx="129.825" cy="-196.781" rx="21.4286" ry="21.4286"/>
<text text-anchor="middle" x="129.825" y="-191.781" font-family="Times New Roman,serif" font-size="20.00">3</text>
</g>
<!-- 0&#45;&gt;3 -->
<g id="edge1" class="edge"><title>0&#45;&gt;3</title>
<path fill="none" stroke="black" stroke-width="2" d="M42.6713,-197.038C58.5141,-196.992 80.3312,-196.927 98.1732,-196.875"/>
<polygon fill="black" stroke="black" stroke-width="2" points="98.4215,-200.374 108.411,-196.845 98.4008,-193.374 98.4215,-200.374"/>
</g>
<!-- 1 -->
<g id="node2" class="node"><title>1</title>
<ellipse fill="cadetblue" stroke="black" cx="176.901" cy="-81.8407" rx="21.4286" ry="21.4286"/>
<text text-anchor="middle" x="176.901" y="-76.8407" font-family="Times New Roman,serif" font-size="20.00">2</text>
</g>
<!-- 5 -->
<g id="node6" class="node"><title>5</title>
<ellipse fill="brown" stroke="black" cx="57.4364" cy="-113.538" rx="21.4286" ry="21.4286"/>
<text text-anchor="middle" x="57.4364" y="-108.538" font-family="Times New Roman,serif" font-size="20.00">3</text>
</g>
<!-- 1&#45;&gt;5 -->
<g id="edge5" class="edge"><title>1&#45;&gt;5</title>
<path fill="none" stroke="black" stroke-width="2" d="M156.364,-87.2898C137.56,-92.2792 109.476,-99.7306 88.0301,-105.421"/>
<polygon fill="black" stroke="black" stroke-width="2" points="86.8728,-102.107 78.1049,-108.054 88.6681,-108.873 86.8728,-102.107"/>
</g>
<!-- 7 -->
<g id="node8" class="node"><title>7</title>
<ellipse fill="cadetblue" stroke="black" cx="61.1816" cy="-63.107" rx="21.4286" ry="21.4286"/>
<text text-anchor="middle" x="61.1816" y="-58.107" font-family="Times New Roman,serif" font-size="20.00">2</text>
</g>
<!-- 1&#45;&gt;7 -->
<g id="edge7" class="edge"><title>1&#45;&gt;7</title>
<path fill="none" stroke="black" stroke-width="2" d="M155.945,-78.4482C138.197,-75.5749 112.497,-71.4145 92.3382,-68.1509"/>
<polygon fill="black" stroke="black" stroke-width="2" points="92.8034,-64.6808 82.3726,-66.5376 91.6847,-71.5908 92.8034,-64.6808"/>
</g>
<!-- 2 -->
<g id="node3" class="node"><title>2</title>
<ellipse fill="cadetblue" stroke="black" cx="153.875" cy="-21.2132" rx="21.4286" ry="21.4286"/>
<text text-anchor="middle" x="153.875" y="-16.2132" font-family="Times New Roman,serif" font-size="20.00">2</text>
</g>
<!-- 2&#45;&gt;5 -->
<g id="edge9" class="edge"><title>2&#45;&gt;5</title>
<path fill="none" stroke="black" stroke-width="2" d="M138.38,-36.0469C122.633,-51.1221 98.0703,-74.6375 80.1304,-91.8123"/>
<polygon fill="black" stroke="black" stroke-width="2" points="77.6955,-89.298 72.8924,-98.7416 82.5363,-94.3545 77.6955,-89.298"/>
</g>
<!-- 6 -->
<g id="node7" class="node"><title>6</title>
<ellipse fill="cadetblue" stroke="black" cx="242.584" cy="-137.344" rx="21.4286" ry="21.4286"/>
<text text-anchor="middle" x="242.584" y="-132.344" font-family="Times New Roman,serif" font-size="20.00">2</text>
</g>
<!-- 2&#45;&gt;6 -->
<g id="edge10" class="edge"><title>2&#45;&gt;6</title>
<path fill="none" stroke="black" stroke-width="2" d="M166.964,-38.3488C181.836,-57.818 206.25,-89.7783 223.301,-112.101"/>
<polygon fill="black" stroke="black" stroke-width="2" points="220.589,-114.316 229.441,-120.139 226.152,-110.067 220.589,-114.316"/>
</g>
<!-- 3&#45;&gt;1 -->
<g id="edge4" class="edge"><title>3&#45;&gt;1</title>
<path fill="none" stroke="black" stroke-width="2" d="M137.917,-177.022C145.361,-158.848 156.495,-131.664 164.96,-110.995"/>
<polygon fill="black" stroke="black" stroke-width="2" points="168.205,-112.307 168.756,-101.727 161.727,-109.654 168.205,-112.307"/>
</g>
<!-- 3&#45;&gt;6 -->
<g id="edge13" class="edge"><title>3&#45;&gt;6</title>
<path fill="none" stroke="black" stroke-width="2" d="M148.698,-186.833C166.748,-177.318 194.185,-162.856 214.745,-152.019"/>
<polygon fill="black" stroke="black" stroke-width="2" points="216.435,-155.085 223.649,-147.325 213.171,-148.892 216.435,-155.085"/>
</g>
<!-- 4 -->
<g id="node5" class="node"><title>4</title>
<ellipse fill="cadetblue" stroke="black" cx="133.636" cy="-140.705" rx="21.4286" ry="21.4286"/>
<text text-anchor="middle" x="133.636" y="-135.705" font-family="Times New Roman,serif" font-size="20.00">2</text>
</g>
<!-- 4&#45;&gt;0 -->
<g id="edge2" class="edge"><title>4&#45;&gt;0</title>
<path fill="none" stroke="black" stroke-width="2" d="M114.565,-150.272C96.7181,-159.225 69.8305,-172.713 49.4882,-182.918"/>
<polygon fill="black" stroke="black" stroke-width="2" points="47.7467,-179.876 40.3777,-187.488 50.8855,-186.132 47.7467,-179.876"/>
</g>
<!-- 4&#45;&gt;2 -->
<g id="edge8" class="edge"><title>4&#45;&gt;2</title>
<path fill="none" stroke="black" stroke-width="2" d="M137.207,-119.618C140.353,-101.047 144.977,-73.7445 148.557,-52.6063"/>
<polygon fill="black" stroke="black" stroke-width="2" points="152.051,-52.9362 150.271,-42.4921 145.15,-51.7671 152.051,-52.9362"/>
</g>
<!-- 4&#45;&gt;7 -->
<g id="edge17" class="edge"><title>4&#45;&gt;7</title>
<path fill="none" stroke="black" stroke-width="2" d="M118.974,-125.002C108.564,-113.853 94.4186,-98.7038 82.7283,-86.1835"/>
<polygon fill="black" stroke="black" stroke-width="2" points="85.2049,-83.7074 75.822,-78.7869 80.0884,-88.4847 85.2049,-83.7074"/>
</g>
<!-- 5&#45;&gt;3 -->
<g id="edge12" class="edge"><title>5&#45;&gt;3</title>
<path fill="none" stroke="black" stroke-width="2" d="M71.3936,-129.589C82.0402,-141.832 96.878,-158.894 108.937,-172.762"/>
<polygon fill="black" stroke="black" stroke-width="2" points="106.46,-175.247 115.663,-180.497 111.742,-170.654 106.46,-175.247"/>
</g>
<!-- 5&#45;&gt;4 -->
<g id="edge15" class="edge"><title>5&#45;&gt;4</title>
<path fill="none" stroke="black" stroke-width="2" d="M77.4569,-120.676C85.5304,-123.555 95.0138,-126.936 103.866,-130.092"/>
<polygon fill="black" stroke="black" stroke-width="2" points="102.89,-133.459 113.484,-133.521 105.241,-126.866 102.89,-133.459"/>
</g>
<!-- 6&#45;&gt;1 -->
<g id="edge6" class="edge"><title>6&#45;&gt;1</title>
<path fill="none" stroke="black" stroke-width="2" d="M226.348,-123.624C218.747,-117.202 209.537,-109.419 201.135,-102.319"/>
<polygon fill="black" stroke="black" stroke-width="2" points="203.304,-99.5695 193.407,-95.7884 198.786,-104.916 203.304,-99.5695"/>
</g>
<!-- 6&#45;&gt;4 -->
<g id="edge16" class="edge"><title>6&#45;&gt;4</title>
<path fill="none" stroke="black" stroke-width="2" d="M221.319,-138C205.272,-138.496 183.006,-139.182 164.929,-139.74"/>
<polygon fill="black" stroke="black" stroke-width="2" points="164.734,-136.244 154.847,-140.051 164.95,-143.241 164.734,-136.244"/>
</g>
<!-- 7&#45;&gt;0 -->
<g id="edge3" class="edge"><title>7&#45;&gt;0</title>
<path fill="none" stroke="black" stroke-width="2" d="M55.1112,-83.4579C48.5087,-105.593 37.8834,-141.215 30.2888,-166.676"/>
<polygon fill="black" stroke="black" stroke-width="2" points="26.8451,-165.976 27.3407,-176.559 33.5531,-167.977 26.8451,-165.976"/>
</g>
<!-- 7&#45;&gt;2 -->
<g id="edge11" class="edge"><title>7&#45;&gt;2</title>
<path fill="none" stroke="black" stroke-width="2" d="M80.8394,-54.2224C93.6203,-48.4459 110.509,-40.8129 124.826,-34.3421"/>
<polygon fill="black" stroke="black" stroke-width="2" points="126.574,-37.393 134.245,-30.085 123.691,-31.0142 126.574,-37.393"/>
</g>
<!-- 7&#45;&gt;3 -->
<g id="edge14" class="edge"><title>7&#45;&gt;3</title>
<path fill="none" stroke="black" stroke-width="2" d="M71.0165,-82.2593C82.6382,-104.891 102.076,-142.744 115.401,-168.693"/>
<polygon fill="black" stroke="black" stroke-width="2" points="112.326,-170.368 120.008,-177.665 118.553,-167.17 112.326,-170.368"/>
</g>
<!-- 7&#45;&gt;5 -->
<g id="edge18" class="edge"><title>7&#45;&gt;5</title>
<path fill="none" stroke="black" stroke-width="2" d="M59.5933,-84.4945C59.5813,-84.6556 59.5694,-84.8169 59.5574,-84.9783"/>
<polygon fill="black" stroke="black" stroke-width="2" points="56.2655,-82.0471 59.0152,-92.2789 63.2463,-82.5656 56.2655,-82.0471"/>
</g>
</g>
</svg>

