<?xml version="1.0" encoding="UTF-8" standalone="no"?>
<!DOCTYPE svg PUBLIC "-//W3C//DTD SVG 1.1//EN"
 "http://www.w3.org/Graphics/SVG/1.1/DTD/svg11.dtd">
<!-- Generated by graphviz version 2.36.0 (20140111.2315)
 -->
<!-- Title: G Pages: 1 -->
<svg width="100%" height="100%"
 viewBox="0.00 0.00 254.49 239.38" xmlns="http://www.w3.org/2000/svg" xmlns:xlink="http://www.w3.org/1999/xlink">
<g id="graph0" class="graph" transform="scale(1 1) rotate(0) translate(4 235.377)">
<title>G</title>
<!-- 0 -->
<g id="node1" class="node"><title>0</title>
<ellipse fill="cadetblue" stroke="black" cx="21.2132" cy="-108.859" rx="21.4286" ry="21.4286"/>
<text text-anchor="middle" x="21.2132" y="-103.859" font-family="Times New Roman,serif" font-size="20.00">2</text>
</g>
<!-- 7 -->
<g id="node8" class="node"><title>7</title>
<ellipse fill="brown" stroke="black" cx="120.037" cy="-108.936" rx="21.4286" ry="21.4286"/>
<text text-anchor="middle" x="120.037" y="-103.936" font-family="Times New Roman,serif" font-size="20.00">3</text>
</g>
<!-- 0&#45;&gt;7 -->
<g id="edge3" class="edge"><title>0&#45;&gt;7</title>
<path fill="none" stroke="black" stroke-width="2" d="M42.6564,-108.876C55.9949,-108.886 73.3877,-108.9 88.3045,-108.911"/>
<polygon fill="black" stroke="black" stroke-width="2" points="88.6324,-112.411 98.6352,-108.919 88.6379,-105.411 88.6324,-112.411"/>
</g>
<!-- 1 -->
<g id="node2" class="node"><title>1</title>
<ellipse fill="cadetblue" stroke="black" cx="182.422" cy="-210.164" rx="21.4286" ry="21.4286"/>
<text text-anchor="middle" x="182.422" y="-205.164" font-family="Times New Roman,serif" font-size="20.00">2</text>
</g>
<!-- 6 -->
<g id="node7" class="node"><title>6</title>
<ellipse fill="cadetblue" stroke="black" cx="174.846" cy="-100.522" rx="21.4286" ry="21.4286"/>
<text text-anchor="middle" x="174.846" y="-95.5217" font-family="Times New Roman,serif" font-size="20.00">2</text>
</g>
<!-- 1&#45;&gt;6 -->
<g id="edge6" class="edge"><title>1&#45;&gt;6</title>
<path fill="none" stroke="black" stroke-width="2" d="M180.944,-188.764C179.828,-172.614 178.28,-150.207 177.022,-132.014"/>
<polygon fill="black" stroke="black" stroke-width="2" points="180.502,-131.603 176.321,-121.868 173.519,-132.086 180.502,-131.603"/>
</g>
<!-- 1&#45;&gt;7 -->
<g id="edge7" class="edge"><title>1&#45;&gt;7</title>
<path fill="none" stroke="black" stroke-width="2" d="M171.269,-192.067C161.659,-176.473 147.648,-153.738 136.706,-135.984"/>
<polygon fill="black" stroke="black" stroke-width="2" points="139.53,-133.895 131.304,-127.218 133.571,-137.567 139.53,-133.895"/>
</g>
<!-- 2 -->
<g id="node3" class="node"><title>2</title>
<ellipse fill="cadetblue" stroke="black" cx="196.285" cy="-23.498" rx="21.4286" ry="21.4286"/>
<text text-anchor="middle" x="196.285" y="-18.498" font-family="Times New Roman,serif" font-size="20.00">2</text>
</g>
<!-- 2&#45;&gt;6 -->
<g id="edge10" class="edge"><title>2&#45;&gt;6</title>
<path fill="none" stroke="black" stroke-width="2" d="M190.54,-44.1389C188.329,-52.082 185.755,-61.3282 183.34,-70.0075"/>
<polygon fill="black" stroke="black" stroke-width="2" points="179.917,-69.2515 180.607,-79.8238 186.661,-71.1285 179.917,-69.2515"/>
</g>
<!-- 2&#45;&gt;7 -->
<g id="edge11" class="edge"><title>2&#45;&gt;7</title>
<path fill="none" stroke="black" stroke-width="2" d="M181.943,-39.5682C170.441,-52.4564 154.13,-70.7327 141.139,-85.2904"/>
<polygon fill="black" stroke="black" stroke-width="2" points="138.361,-83.1461 134.314,-92.9375 143.584,-87.8071 138.361,-83.1461"/>
</g>
<!-- 3 -->
<g id="node4" class="node"><title>3</title>
<ellipse fill="cadetblue" stroke="black" cx="104.447" cy="-186.527" rx="21.4286" ry="21.4286"/>
<text text-anchor="middle" x="104.447" y="-181.527" font-family="Times New Roman,serif" font-size="20.00">2</text>
</g>
<!-- 3&#45;&gt;0 -->
<g id="edge1" class="edge"><title>3&#45;&gt;0</title>
<path fill="none" stroke="black" stroke-width="2" d="M88.7917,-171.918C76.2359,-160.202 58.4309,-143.588 44.2487,-130.354"/>
<polygon fill="black" stroke="black" stroke-width="2" points="46.4979,-127.666 36.7987,-123.403 41.7223,-132.784 46.4979,-127.666"/>
</g>
<!-- 3&#45;&gt;1 -->
<g id="edge4" class="edge"><title>3&#45;&gt;1</title>
<path fill="none" stroke="black" stroke-width="2" d="M124.934,-192.737C133.351,-195.289 143.265,-198.294 152.469,-201.084"/>
<polygon fill="black" stroke="black" stroke-width="2" points="151.487,-204.444 162.072,-203.995 153.518,-197.745 151.487,-204.444"/>
</g>
<!-- 5 -->
<g id="node6" class="node"><title>5</title>
<ellipse fill="cadetblue" stroke="black" cx="225.278" cy="-139.175" rx="21.4286" ry="21.4286"/>
<text text-anchor="middle" x="225.278" y="-134.175" font-family="Times New Roman,serif" font-size="20.00">2</text>
</g>
<!-- 3&#45;&gt;5 -->
<g id="edge12" class="edge"><title>3&#45;&gt;5</title>
<path fill="none" stroke="black" stroke-width="2" d="M124.4,-178.708C143.815,-171.099 173.546,-159.448 195.709,-150.762"/>
<polygon fill="black" stroke="black" stroke-width="2" points="197.262,-153.913 205.296,-147.006 194.708,-147.396 197.262,-153.913"/>
</g>
<!-- 4 -->
<g id="node5" class="node"><title>4</title>
<ellipse fill="cadetblue" stroke="black" cx="91.529" cy="-21.2132" rx="21.4286" ry="21.4286"/>
<text text-anchor="middle" x="91.529" y="-16.2132" font-family="Times New Roman,serif" font-size="20.00">2</text>
</g>
<!-- 4&#45;&gt;0 -->
<g id="edge2" class="edge"><title>4&#45;&gt;0</title>
<path fill="none" stroke="black" stroke-width="2" d="M77.9714,-38.1123C67.4962,-51.1693 52.844,-69.4328 41.0508,-84.1326"/>
<polygon fill="black" stroke="black" stroke-width="2" points="38.0185,-82.3192 34.4907,-92.3095 43.4785,-86.6997 38.0185,-82.3192"/>
</g>
<!-- 4&#45;&gt;2 -->
<g id="edge8" class="edge"><title>4&#45;&gt;2</title>
<path fill="none" stroke="black" stroke-width="2" d="M112.981,-21.6811C127.81,-22.0045 147.791,-22.4403 164.468,-22.8041"/>
<polygon fill="black" stroke="black" stroke-width="2" points="164.788,-26.3118 174.862,-23.0308 164.941,-19.3134 164.788,-26.3118"/>
</g>
<!-- 5&#45;&gt;1 -->
<g id="edge5" class="edge"><title>5&#45;&gt;1</title>
<path fill="none" stroke="black" stroke-width="2" d="M214.242,-157.457C209.529,-165.262 203.933,-174.533 198.757,-183.106"/>
<polygon fill="black" stroke="black" stroke-width="2" points="195.742,-181.328 193.57,-191.698 201.735,-184.946 195.742,-181.328"/>
</g>
<!-- 5&#45;&gt;2 -->
<g id="edge9" class="edge"><title>5&#45;&gt;2</title>
<path fill="none" stroke="black" stroke-width="2" d="M220.094,-118.494C215.608,-100.593 209.057,-74.457 203.962,-54.1283"/>
<polygon fill="black" stroke="black" stroke-width="2" points="207.347,-53.2388 201.521,-44.3897 200.557,-54.9406 207.347,-53.2388"/>
</g>
<!-- 6&#45;&gt;3 -->
<g id="edge13" class="edge"><title>6&#45;&gt;3</title>
<path fill="none" stroke="black" stroke-width="2" d="M161.273,-117.104C150.852,-129.835 136.302,-147.61 124.534,-161.987"/>
<polygon fill="black" stroke="black" stroke-width="2" points="121.605,-160.04 117.979,-169.995 127.022,-164.474 121.605,-160.04"/>
</g>
<!-- 6&#45;&gt;4 -->
<g id="edge15" class="edge"><title>6&#45;&gt;4</title>
<path fill="none" stroke="black" stroke-width="2" d="M159.175,-85.6044C146.607,-73.6407 128.784,-56.6755 114.588,-43.1622"/>
<polygon fill="black" stroke="black" stroke-width="2" points="116.786,-40.4232 107.13,-36.0636 111.96,-45.4934 116.786,-40.4232"/>
</g>
<!-- 7&#45;&gt;3 -->
<g id="edge14" class="edge"><title>7&#45;&gt;3</title>
<path fill="none" stroke="black" stroke-width="2" d="M115.777,-130.138C114.2,-137.985 112.379,-147.051 110.664,-155.587"/>
<polygon fill="black" stroke="black" stroke-width="2" points="107.187,-155.125 108.648,-165.619 114.049,-156.504 107.187,-155.125"/>
</g>
<!-- 7&#45;&gt;4 -->
<g id="edge16" class="edge"><title>7&#45;&gt;4</title>
<path fill="none" stroke="black" stroke-width="2" d="M113.425,-88.5899C109.827,-77.5182 105.306,-63.6083 101.309,-51.3064"/>
<polygon fill="black" stroke="black" stroke-width="2" points="104.524,-49.8773 98.105,-41.4486 97.8671,-52.0408 104.524,-49.8773"/>
</g>
<!-- 7&#45;&gt;5 -->
<g id="edge17" class="edge"><title>7&#45;&gt;5</title>
<path fill="none" stroke="black" stroke-width="2" d="M140.215,-115.93C150.512,-119.396 163.27,-123.533 174.815,-126.826 181.19,-128.644 188.064,-130.436 194.625,-132.068"/>
<polygon fill="black" stroke="black" stroke-width="2" points="194.018,-135.522 204.561,-134.479 195.669,-128.719 194.018,-135.522"/>
</g>
</g>
</svg>

