<?xml version="1.0" encoding="UTF-8" standalone="no"?>
<!DOCTYPE svg PUBLIC "-//W3C//DTD SVG 1.1//EN"
 "http://www.w3.org/Graphics/SVG/1.1/DTD/svg11.dtd">
<!-- Generated by graphviz version 2.36.0 (20140111.2315)
 -->
<!-- Title: G Pages: 1 -->
<svg width="100%" height="100%"
 viewBox="0.00 0.00 232.32 198.19" xmlns="http://www.w3.org/2000/svg" xmlns:xlink="http://www.w3.org/1999/xlink">
<g id="graph0" class="graph" transform="scale(1 1) rotate(0) translate(4 194.194)">
<title>G</title>
<!-- 0 -->
<g id="node1" class="node"><title>0</title>
<ellipse fill="cadetblue" stroke="black" cx="167.174" cy="-21.2132" rx="21.4286" ry="21.4286"/>
<text text-anchor="middle" x="167.174" y="-16.2132" font-family="Times New Roman,serif" font-size="20.00">2</text>
</g>
<!-- 6 -->
<g id="node7" class="node"><title>6</title>
<ellipse fill="cadetblue" stroke="black" cx="186.755" cy="-73.3189" rx="21.4286" ry="21.4286"/>
<text text-anchor="middle" x="186.755" y="-68.3189" font-family="Times New Roman,serif" font-size="20.00">2</text>
</g>
<!-- 0&#45;&gt;6 -->
<g id="edge3" class="edge"><title>0&#45;&gt;6</title>
<path fill="none" stroke="black" stroke-width="2" d="M174.689,-41.2096C174.964,-41.9415 175.241,-42.68 175.52,-43.4229"/>
<polygon fill="black" stroke="black" stroke-width="2" points="172.37,-44.988 179.164,-53.1176 178.922,-42.5255 172.37,-44.988"/>
</g>
<!-- 7 -->
<g id="node8" class="node"><title>7</title>
<ellipse fill="brown" stroke="black" cx="111.857" cy="-98.8748" rx="21.4286" ry="21.4286"/>
<text text-anchor="middle" x="111.857" y="-93.8748" font-family="Times New Roman,serif" font-size="20.00">3</text>
</g>
<!-- 0&#45;&gt;7 -->
<g id="edge4" class="edge"><title>0&#45;&gt;7</title>
<path fill="none" stroke="black" stroke-width="2" d="M154.622,-38.8358C147.357,-49.0353 138.086,-62.0507 130.035,-73.3542"/>
<polygon fill="black" stroke="black" stroke-width="2" points="127.12,-71.4138 124.169,-81.5894 132.821,-75.4749 127.12,-71.4138"/>
</g>
<!-- 1 -->
<g id="node2" class="node"><title>1</title>
<ellipse fill="cadetblue" stroke="black" cx="21.2132" cy="-70.2075" rx="21.4286" ry="21.4286"/>
<text text-anchor="middle" x="21.2132" y="-65.2075" font-family="Times New Roman,serif" font-size="20.00">2</text>
</g>
<!-- 1&#45;&gt;7 -->
<g id="edge7" class="edge"><title>1&#45;&gt;7</title>
<path fill="none" stroke="black" stroke-width="2" d="M41.7817,-76.7126C53.6028,-80.4512 68.6649,-85.2147 81.7932,-89.3667"/>
<polygon fill="black" stroke="black" stroke-width="2" points="80.7799,-92.7171 91.3699,-92.3955 82.8908,-86.0429 80.7799,-92.7171"/>
</g>
<!-- 2 -->
<g id="node3" class="node"><title>2</title>
<ellipse fill="cadetblue" stroke="black" cx="142.348" cy="-168.98" rx="21.4286" ry="21.4286"/>
<text text-anchor="middle" x="142.348" y="-163.98" font-family="Times New Roman,serif" font-size="20.00">2</text>
</g>
<!-- 2&#45;&gt;6 -->
<g id="edge10" class="edge"><title>2&#45;&gt;6</title>
<path fill="none" stroke="black" stroke-width="2" d="M151.334,-149.622C157.715,-135.878 166.384,-117.202 173.549,-101.767"/>
<polygon fill="black" stroke="black" stroke-width="2" points="176.746,-103.193 177.782,-92.6487 170.397,-100.245 176.746,-103.193"/>
</g>
<!-- 2&#45;&gt;7 -->
<g id="edge11" class="edge"><title>2&#45;&gt;7</title>
<path fill="none" stroke="black" stroke-width="2" d="M133.854,-149.452C130.995,-142.879 127.739,-135.392 124.625,-128.232"/>
<polygon fill="black" stroke="black" stroke-width="2" points="127.715,-126.56 120.517,-118.786 121.296,-129.352 127.715,-126.56"/>
</g>
<!-- 3 -->
<g id="node4" class="node"><title>3</title>
<ellipse fill="cadetblue" stroke="black" cx="89.7145" cy="-37.2188" rx="21.4286" ry="21.4286"/>
<text text-anchor="middle" x="89.7145" y="-32.2188" font-family="Times New Roman,serif" font-size="20.00">2</text>
</g>
<!-- 3&#45;&gt;0 -->
<g id="edge1" class="edge"><title>3&#45;&gt;0</title>
<path fill="none" stroke="black" stroke-width="2" d="M110.881,-32.8452C118.715,-31.2265 127.765,-29.3564 136.287,-27.5955"/>
<polygon fill="black" stroke="black" stroke-width="2" points="137.217,-30.9773 146.302,-25.5261 135.8,-24.1222 137.217,-30.9773"/>
</g>
<!-- 3&#45;&gt;1 -->
<g id="edge5" class="edge"><title>3&#45;&gt;1</title>
<path fill="none" stroke="black" stroke-width="2" d="M70.268,-46.5838C63.8503,-49.6745 56.5738,-53.1786 49.6274,-56.5239"/>
<polygon fill="black" stroke="black" stroke-width="2" points="47.9623,-53.441 40.4712,-60.9333 50.9995,-59.7478 47.9623,-53.441"/>
</g>
<!-- 5 -->
<g id="node6" class="node"><title>5</title>
<ellipse fill="cadetblue" stroke="black" cx="53.8877" cy="-138.028" rx="21.4286" ry="21.4286"/>
<text text-anchor="middle" x="53.8877" y="-133.028" font-family="Times New Roman,serif" font-size="20.00">2</text>
</g>
<!-- 3&#45;&gt;5 -->
<g id="edge12" class="edge"><title>3&#45;&gt;5</title>
<path fill="none" stroke="black" stroke-width="2" d="M82.4644,-57.6191C77.2831,-72.1983 70.2304,-92.043 64.4281,-108.37"/>
<polygon fill="black" stroke="black" stroke-width="2" points="61.0556,-107.408 61.0047,-118.002 67.6514,-109.752 61.0556,-107.408"/>
</g>
<!-- 4 -->
<g id="node5" class="node"><title>4</title>
<ellipse fill="cadetblue" stroke="black" cx="203.103" cy="-123.75" rx="21.4286" ry="21.4286"/>
<text text-anchor="middle" x="203.103" y="-118.75" font-family="Times New Roman,serif" font-size="20.00">2</text>
</g>
<!-- 4&#45;&gt;0 -->
<g id="edge2" class="edge"><title>4&#45;&gt;0</title>
<path fill="none" stroke="black" stroke-width="2" d="M185.595,-111.473C174.76,-102.419 162.528,-88.9809 160.451,-73.2876 159.535,-66.3659 159.769,-58.9245 160.547,-51.894"/>
<polygon fill="black" stroke="black" stroke-width="2" points="164.01,-52.3992 162.005,-41.9959 157.085,-51.379 164.01,-52.3992"/>
</g>
<!-- 4&#45;&gt;2 -->
<g id="edge8" class="edge"><title>4&#45;&gt;2</title>
<path fill="none" stroke="black" stroke-width="2" d="M185.856,-136.591C180.164,-140.828 173.71,-145.633 167.549,-150.219"/>
<polygon fill="black" stroke="black" stroke-width="2" points="165.359,-147.486 159.428,-156.265 169.54,-153.101 165.359,-147.486"/>
</g>
<!-- 5&#45;&gt;1 -->
<g id="edge6" class="edge"><title>5&#45;&gt;1</title>
<path fill="none" stroke="black" stroke-width="2" d="M44.6119,-118.775C41.671,-112.671 38.352,-105.782 35.1578,-99.1515"/>
<polygon fill="black" stroke="black" stroke-width="2" points="38.1192,-97.2343 30.6257,-89.7445 31.8129,-100.273 38.1192,-97.2343"/>
</g>
<!-- 5&#45;&gt;2 -->
<g id="edge9" class="edge"><title>5&#45;&gt;2</title>
<path fill="none" stroke="black" stroke-width="2" d="M73.9607,-145.052C85.3035,-149.021 99.704,-154.059 112.362,-158.488"/>
<polygon fill="black" stroke="black" stroke-width="2" points="111.453,-161.878 122.048,-161.878 113.765,-155.271 111.453,-161.878"/>
</g>
<!-- 6&#45;&gt;3 -->
<g id="edge13" class="edge"><title>6&#45;&gt;3</title>
<path fill="none" stroke="black" stroke-width="2" d="M166.648,-65.839C152.986,-60.7566 134.684,-53.9479 119.358,-48.2466"/>
<polygon fill="black" stroke="black" stroke-width="2" points="120.389,-44.8955 109.796,-44.6892 117.948,-51.4563 120.389,-44.8955"/>
</g>
<!-- 6&#45;&gt;4 -->
<g id="edge15" class="edge"><title>6&#45;&gt;4</title>
<path fill="none" stroke="black" stroke-width="2" d="M193.31,-93.5407C193.344,-93.6435 193.377,-93.7464 193.41,-93.8494"/>
<polygon fill="black" stroke="black" stroke-width="2" points="190.133,-95.0906 196.547,-103.524 196.792,-92.932 190.133,-95.0906"/>
</g>
<!-- 7&#45;&gt;3 -->
<g id="edge14" class="edge"><title>7&#45;&gt;3</title>
<path fill="none" stroke="black" stroke-width="2" d="M104.607,-78.6863C103.255,-74.9219 101.816,-70.9162 100.387,-66.9353"/>
<polygon fill="black" stroke="black" stroke-width="2" points="103.579,-65.4706 96.9054,-57.2421 96.9914,-67.8366 103.579,-65.4706"/>
</g>
<!-- 7&#45;&gt;4 -->
<g id="edge16" class="edge"><title>7&#45;&gt;4</title>
<path fill="none" stroke="black" stroke-width="2" d="M132.562,-104.519C144.345,-107.732 159.327,-111.816 172.45,-115.394"/>
<polygon fill="black" stroke="black" stroke-width="2" points="171.911,-118.875 182.48,-118.128 173.753,-112.121 171.911,-118.875"/>
</g>
<!-- 7&#45;&gt;5 -->
<g id="edge17" class="edge"><title>7&#45;&gt;5</title>
<path fill="none" stroke="black" stroke-width="2" d="M94.1493,-110.835C89.6543,-113.871 84.7306,-117.196 79.9168,-120.448"/>
<polygon fill="black" stroke="black" stroke-width="2" points="77.8148,-117.644 71.4869,-126.141 81.7328,-123.445 77.8148,-117.644"/>
</g>
</g>
</svg>

