<?xml version="1.0" encoding="UTF-8" standalone="no"?>
<!DOCTYPE svg PUBLIC "-//W3C//DTD SVG 1.1//EN"
 "http://www.w3.org/Graphics/SVG/1.1/DTD/svg11.dtd">
<!-- Generated by graphviz version 2.36.0 (20140111.2315)
 -->
<!-- Title: G Pages: 1 -->
<svg width="100%" height="100%"
 viewBox="0.00 0.00 245.89 223.66" xmlns="http://www.w3.org/2000/svg" xmlns:xlink="http://www.w3.org/1999/xlink">
<g id="graph0" class="graph" transform="scale(1 1) rotate(0) translate(4 219.661)">
<title>G</title>
<!-- 0 -->
<g id="node1" class="node"><title>0</title>
<ellipse fill="cadetblue" stroke="black" cx="205.136" cy="-194.448" rx="21.4286" ry="21.4286"/>
<text text-anchor="middle" x="205.136" y="-189.448" font-family="Times New Roman,serif" font-size="20.00">2</text>
</g>
<!-- 6 -->
<g id="node7" class="node"><title>6</title>
<ellipse fill="brown" stroke="black" cx="150.374" cy="-123.81" rx="21.4286" ry="21.4286"/>
<text text-anchor="middle" x="150.374" y="-118.81" font-family="Times New Roman,serif" font-size="20.00">3</text>
</g>
<!-- 0&#45;&gt;6 -->
<g id="edge3" class="edge"><title>0&#45;&gt;6</title>
<path fill="none" stroke="black" stroke-width="2" d="M191.88,-177.349C185.221,-168.759 177.026,-158.189 169.683,-148.717"/>
<polygon fill="black" stroke="black" stroke-width="2" points="172.402,-146.511 163.509,-140.752 166.869,-150.8 172.402,-146.511"/>
</g>
<!-- 1 -->
<g id="node2" class="node"><title>1</title>
<ellipse fill="cadetblue" stroke="black" cx="27.6504" cy="-79.0473" rx="21.4286" ry="21.4286"/>
<text text-anchor="middle" x="27.6504" y="-74.0473" font-family="Times New Roman,serif" font-size="20.00">2</text>
</g>
<!-- 1&#45;&gt;6 -->
<g id="edge6" class="edge"><title>1&#45;&gt;6</title>
<path fill="none" stroke="black" stroke-width="2" d="M46.9551,-88.389C61.3295,-95.0959 81.5616,-104.017 99.9417,-110.263 106.251,-112.407 113.094,-114.437 119.646,-116.241"/>
<polygon fill="black" stroke="black" stroke-width="2" points="119.017,-119.695 129.58,-118.875 120.811,-112.929 119.017,-119.695"/>
</g>
<!-- 7 -->
<g id="node8" class="node"><title>7</title>
<ellipse fill="brown" stroke="black" cx="99.9429" cy="-83.9589" rx="21.4286" ry="21.4286"/>
<text text-anchor="middle" x="99.9429" y="-78.9589" font-family="Times New Roman,serif" font-size="20.00">3</text>
</g>
<!-- 1&#45;&gt;7 -->
<g id="edge7" class="edge"><title>1&#45;&gt;7</title>
<path fill="none" stroke="black" stroke-width="2" d="M48.9495,-80.4944C55.072,-80.9103 61.8823,-81.373 68.4808,-81.8213"/>
<polygon fill="black" stroke="black" stroke-width="2" points="68.3319,-85.3192 78.5462,-82.5052 68.8065,-78.3353 68.3319,-85.3192"/>
</g>
<!-- 2 -->
<g id="node3" class="node"><title>2</title>
<ellipse fill="cadetblue" stroke="black" cx="127.585" cy="-21.2132" rx="21.4286" ry="21.4286"/>
<text text-anchor="middle" x="127.585" y="-16.2132" font-family="Times New Roman,serif" font-size="20.00">2</text>
</g>
<!-- 2&#45;&gt;6 -->
<g id="edge10" class="edge"><title>2&#45;&gt;6</title>
<path fill="none" stroke="black" stroke-width="2" d="M132.197,-41.9753C135.471,-56.716 139.92,-76.7458 143.597,-93.2996"/>
<polygon fill="black" stroke="black" stroke-width="2" points="140.184,-94.076 145.769,-103.079 147.018,-92.5581 140.184,-94.076"/>
</g>
<!-- 2&#45;&gt;7 -->
<g id="edge11" class="edge"><title>2&#45;&gt;7</title>
<path fill="none" stroke="black" stroke-width="2" d="M118.99,-40.7224C117.033,-45.1653 114.912,-49.9804 112.819,-54.7298"/>
<polygon fill="black" stroke="black" stroke-width="2" points="109.456,-53.6833 108.627,-64.2457 115.862,-56.5054 109.456,-53.6833"/>
</g>
<!-- 3 -->
<g id="node4" class="node"><title>3</title>
<ellipse fill="cadetblue" stroke="black" cx="89.0259" cy="-188.92" rx="21.4286" ry="21.4286"/>
<text text-anchor="middle" x="89.0259" y="-183.92" font-family="Times New Roman,serif" font-size="20.00">2</text>
</g>
<!-- 3&#45;&gt;0 -->
<g id="edge1" class="edge"><title>3&#45;&gt;0</title>
<path fill="none" stroke="black" stroke-width="2" d="M110.322,-189.934C127.97,-190.774 153.315,-191.981 173.362,-192.935"/>
<polygon fill="black" stroke="black" stroke-width="2" points="173.426,-196.442 183.581,-193.422 173.759,-189.45 173.426,-196.442"/>
</g>
<!-- 3&#45;&gt;1 -->
<g id="edge4" class="edge"><title>3&#45;&gt;1</title>
<path fill="none" stroke="black" stroke-width="2" d="M78.6144,-170.281C68.8712,-152.839 54.1923,-126.562 43.0867,-106.681"/>
<polygon fill="black" stroke="black" stroke-width="2" points="46.0454,-104.8 38.113,-97.7771 39.9342,-108.214 46.0454,-104.8"/>
</g>
<!-- 5 -->
<g id="node6" class="node"><title>5</title>
<ellipse fill="cadetblue" stroke="black" cx="21.2132" cy="-134.384" rx="21.4286" ry="21.4286"/>
<text text-anchor="middle" x="21.2132" y="-129.384" font-family="Times New Roman,serif" font-size="20.00">2</text>
</g>
<!-- 3&#45;&gt;5 -->
<g id="edge12" class="edge"><title>3&#45;&gt;5</title>
<path fill="none" stroke="black" stroke-width="2" d="M72.2632,-175.439C64.2976,-169.033 54.6189,-161.249 45.8396,-154.189"/>
<polygon fill="black" stroke="black" stroke-width="2" points="47.7692,-151.249 37.7831,-147.71 43.3823,-156.704 47.7692,-151.249"/>
</g>
<!-- 4 -->
<g id="node5" class="node"><title>4</title>
<ellipse fill="cadetblue" stroke="black" cx="216.677" cy="-77.665" rx="21.4286" ry="21.4286"/>
<text text-anchor="middle" x="216.677" y="-72.665" font-family="Times New Roman,serif" font-size="20.00">2</text>
</g>
<!-- 4&#45;&gt;0 -->
<g id="edge2" class="edge"><title>4&#45;&gt;0</title>
<path fill="none" stroke="black" stroke-width="2" d="M214.587,-98.8136C212.817,-116.725 210.254,-142.661 208.243,-163.005"/>
<polygon fill="black" stroke="black" stroke-width="2" points="204.75,-162.767 207.249,-173.062 211.716,-163.455 204.75,-162.767"/>
</g>
<!-- 4&#45;&gt;2 -->
<g id="edge8" class="edge"><title>4&#45;&gt;2</title>
<path fill="none" stroke="black" stroke-width="2" d="M198.648,-66.2412C185.847,-58.1304 168.454,-47.1094 154.079,-38.001"/>
<polygon fill="black" stroke="black" stroke-width="2" points="155.908,-35.016 145.587,-32.6201 152.161,-40.9289 155.908,-35.016"/>
</g>
<!-- 5&#45;&gt;1 -->
<g id="edge5" class="edge"><title>5&#45;&gt;1</title>
<path fill="none" stroke="black" stroke-width="2" d="M23.6836,-113.148C23.7922,-112.214 23.902,-111.27 24.0124,-110.321"/>
<polygon fill="black" stroke="black" stroke-width="2" points="27.5182,-110.473 25.1973,-100.135 20.5651,-109.664 27.5182,-110.473"/>
</g>
<!-- 5&#45;&gt;2 -->
<g id="edge9" class="edge"><title>5&#45;&gt;2</title>
<path fill="none" stroke="black" stroke-width="2" d="M34.8953,-117.83C46.8239,-103.607 64.7653,-82.7098 81.3438,-65.358 88.551,-57.8146 96.6999,-49.859 104.127,-42.8109"/>
<polygon fill="black" stroke="black" stroke-width="2" points="106.932,-44.9789 111.825,-35.5817 102.139,-39.8763 106.932,-44.9789"/>
</g>
<!-- 6&#45;&gt;3 -->
<g id="edge13" class="edge"><title>6&#45;&gt;3</title>
<path fill="none" stroke="black" stroke-width="2" d="M135.524,-139.571C128.063,-147.489 118.884,-157.232 110.657,-165.963"/>
<polygon fill="black" stroke="black" stroke-width="2" points="108.05,-163.625 103.74,-173.304 113.145,-168.426 108.05,-163.625"/>
</g>
<!-- 6&#45;&gt;4 -->
<g id="edge15" class="edge"><title>6&#45;&gt;4</title>
<path fill="none" stroke="black" stroke-width="2" d="M167.795,-111.686C174.744,-106.85 182.894,-101.177 190.525,-95.866"/>
<polygon fill="black" stroke="black" stroke-width="2" points="192.934,-98.4536 199.143,-89.8684 188.936,-92.7082 192.934,-98.4536"/>
</g>
<!-- 6&#45;&gt;7 -->
<g id="edge18" class="edge"><title>6&#45;&gt;7</title>
<path fill="none" stroke="black" stroke-width="2" d="M133.581,-110.54C130.804,-108.345 127.872,-106.029 124.944,-103.715"/>
<polygon fill="black" stroke="black" stroke-width="2" points="126.85,-100.761 116.834,-97.3068 122.51,-106.253 126.85,-100.761"/>
</g>
<!-- 7&#45;&gt;3 -->
<g id="edge14" class="edge"><title>7&#45;&gt;3</title>
<path fill="none" stroke="black" stroke-width="2" d="M97.7337,-105.199C96.1651,-120.28 94.0338,-140.771 92.2724,-157.706"/>
<polygon fill="black" stroke="black" stroke-width="2" points="88.7852,-157.402 91.2318,-167.711 95.7476,-158.127 88.7852,-157.402"/>
</g>
<!-- 7&#45;&gt;4 -->
<g id="edge16" class="edge"><title>7&#45;&gt;4</title>
<path fill="none" stroke="black" stroke-width="2" d="M121.354,-82.8045C139.29,-81.8374 165.135,-80.4439 185.391,-79.3519"/>
<polygon fill="black" stroke="black" stroke-width="2" points="185.605,-82.8455 195.402,-78.8121 185.228,-75.8556 185.605,-82.8455"/>
</g>
<!-- 7&#45;&gt;5 -->
<g id="edge17" class="edge"><title>7&#45;&gt;5</title>
<path fill="none" stroke="black" stroke-width="2" d="M82.0779,-95.4011C71.9828,-101.867 59.1663,-110.076 47.9007,-117.291"/>
<polygon fill="black" stroke="black" stroke-width="2" points="45.8132,-114.472 39.28,-122.813 49.5886,-120.366 45.8132,-114.472"/>
</g>
</g>
</svg>

