<?xml version="1.0" encoding="UTF-8" standalone="no"?>
<!DOCTYPE svg PUBLIC "-//W3C//DTD SVG 1.1//EN"
 "http://www.w3.org/Graphics/SVG/1.1/DTD/svg11.dtd">
<!-- Generated by graphviz version 2.36.0 (20140111.2315)
 -->
<!-- Title: G Pages: 1 -->
<svg width="100%" height="100%"
 viewBox="0.00 0.00 231.65 214.66" xmlns="http://www.w3.org/2000/svg" xmlns:xlink="http://www.w3.org/1999/xlink">
<g id="graph0" class="graph" transform="scale(1 1) rotate(0) translate(4 210.659)">
<title>G</title>
<!-- 0 -->
<g id="node1" class="node"><title>0</title>
<ellipse fill="cadetblue" stroke="black" cx="71.6447" cy="-92.3842" rx="21.4286" ry="21.4286"/>
<text text-anchor="middle" x="71.6447" y="-87.3842" font-family="Times New Roman,serif" font-size="20.00">2</text>
</g>
<!-- 5 -->
<g id="node6" class="node"><title>5</title>
<ellipse fill="cadetblue" stroke="black" cx="25.5406" cy="-185.446" rx="21.4286" ry="21.4286"/>
<text text-anchor="middle" x="25.5406" y="-180.446" font-family="Times New Roman,serif" font-size="20.00">2</text>
</g>
<!-- 0&#45;&gt;5 -->
<g id="edge3" class="edge"><title>0&#45;&gt;5</title>
<path fill="none" stroke="black" stroke-width="2" d="M62.0919,-111.667C55.6011,-124.768 46.9056,-142.32 39.6243,-157.018"/>
<polygon fill="black" stroke="black" stroke-width="2" points="36.3842,-155.674 35.0811,-166.188 42.6567,-158.781 36.3842,-155.674"/>
</g>
<!-- 6 -->
<g id="node7" class="node"><title>6</title>
<ellipse fill="brown" stroke="black" cx="133.312" cy="-21.2132" rx="21.4286" ry="21.4286"/>
<text text-anchor="middle" x="133.312" y="-16.2132" font-family="Times New Roman,serif" font-size="20.00">3</text>
</g>
<!-- 0&#45;&gt;6 -->
<g id="edge4" class="edge"><title>0&#45;&gt;6</title>
<path fill="none" stroke="black" stroke-width="2" d="M85.6379,-76.2344C93.6013,-67.0437 103.727,-55.3581 112.596,-45.122"/>
<polygon fill="black" stroke="black" stroke-width="2" points="115.471,-47.1487 119.374,-37.2991 110.18,-42.5648 115.471,-47.1487"/>
</g>
<!-- 7 -->
<g id="node8" class="node"><title>7</title>
<ellipse fill="cadetblue" stroke="black" cx="136.568" cy="-76.6159" rx="21.4286" ry="21.4286"/>
<text text-anchor="middle" x="136.568" y="-71.6159" font-family="Times New Roman,serif" font-size="20.00">2</text>
</g>
<!-- 0&#45;&gt;7 -->
<g id="edge5" class="edge"><title>0&#45;&gt;7</title>
<path fill="none" stroke="black" stroke-width="2" d="M92.5443,-87.3082C96.8304,-86.2673 101.426,-85.1511 105.972,-84.0469"/>
<polygon fill="black" stroke="black" stroke-width="2" points="106.817,-87.4437 115.708,-81.6824 105.164,-80.6415 106.817,-87.4437"/>
</g>
<!-- 1 -->
<g id="node2" class="node"><title>1</title>
<ellipse fill="cadetblue" stroke="black" cx="21.2132" cy="-72.3812" rx="21.4286" ry="21.4286"/>
<text text-anchor="middle" x="21.2132" y="-67.3812" font-family="Times New Roman,serif" font-size="20.00">2</text>
</g>
<!-- 3 -->
<g id="node4" class="node"><title>3</title>
<ellipse fill="cadetblue" stroke="black" cx="99.0373" cy="-168.987" rx="21.4286" ry="21.4286"/>
<text text-anchor="middle" x="99.0373" y="-163.987" font-family="Times New Roman,serif" font-size="20.00">2</text>
</g>
<!-- 1&#45;&gt;3 -->
<g id="edge6" class="edge"><title>1&#45;&gt;3</title>
<path fill="none" stroke="black" stroke-width="2" d="M34.7691,-89.2087C47.0445,-104.447 65.2829,-127.087 79.198,-144.36"/>
<polygon fill="black" stroke="black" stroke-width="2" points="76.6376,-146.761 85.6367,-152.353 82.0889,-142.37 76.6376,-146.761"/>
</g>
<!-- 1&#45;&gt;7 -->
<g id="edge9" class="edge"><title>1&#45;&gt;7</title>
<path fill="none" stroke="black" stroke-width="2" d="M42.2538,-68.3965C51.2789,-67.0401 61.9599,-65.9017 71.6687,-66.0798 82.7963,-66.284 94.8617,-67.861 105.537,-69.7354"/>
<polygon fill="black" stroke="black" stroke-width="2" points="105.183,-73.231 115.662,-71.6692 106.496,-66.3553 105.183,-73.231"/>
</g>
<!-- 2 -->
<g id="node3" class="node"><title>2</title>
<ellipse fill="cadetblue" stroke="black" cx="164.933" cy="-168.877" rx="21.4286" ry="21.4286"/>
<text text-anchor="middle" x="164.933" y="-163.877" font-family="Times New Roman,serif" font-size="20.00">2</text>
</g>
<!-- 4 -->
<g id="node5" class="node"><title>4</title>
<ellipse fill="brown" stroke="black" cx="202.436" cy="-99.2852" rx="21.4286" ry="21.4286"/>
<text text-anchor="middle" x="202.436" y="-94.2852" font-family="Times New Roman,serif" font-size="20.00">3</text>
</g>
<!-- 2&#45;&gt;4 -->
<g id="edge10" class="edge"><title>2&#45;&gt;4</title>
<path fill="none" stroke="black" stroke-width="2" d="M175.181,-149.861C178.943,-142.88 183.284,-134.824 187.381,-127.222"/>
<polygon fill="black" stroke="black" stroke-width="2" points="190.538,-128.742 192.201,-118.279 184.375,-125.421 190.538,-128.742"/>
</g>
<!-- 2&#45;&gt;6 -->
<g id="edge12" class="edge"><title>2&#45;&gt;6</title>
<path fill="none" stroke="black" stroke-width="2" d="M166.673,-147.368C167.675,-128.504 167.89,-100.447 162.873,-76.6172 161.03,-67.8613 159.176,-66.0174 155.169,-58.0168 153.508,-54.6986 151.662,-51.2745 149.769,-47.9121"/>
<polygon fill="black" stroke="black" stroke-width="2" points="152.793,-46.1498 144.735,-39.2708 146.744,-49.6734 152.793,-46.1498"/>
</g>
<!-- 3&#45;&gt;0 -->
<g id="edge1" class="edge"><title>3&#45;&gt;0</title>
<path fill="none" stroke="black" stroke-width="2" d="M91.8402,-148.861C88.8834,-140.592 85.4005,-130.852 82.1673,-121.811"/>
<polygon fill="black" stroke="black" stroke-width="2" points="85.4565,-120.614 78.7937,-112.376 78.8652,-122.971 85.4565,-120.614"/>
</g>
<!-- 3&#45;&gt;4 -->
<g id="edge14" class="edge"><title>3&#45;&gt;4</title>
<path fill="none" stroke="black" stroke-width="2" d="M117.048,-156.846C133.431,-145.802 157.81,-129.368 176.329,-116.884"/>
<polygon fill="black" stroke="black" stroke-width="2" points="178.296,-119.779 184.632,-111.287 174.384,-113.975 178.296,-119.779"/>
</g>
<!-- 3&#45;&gt;5 -->
<g id="edge15" class="edge"><title>3&#45;&gt;5</title>
<path fill="none" stroke="black" stroke-width="2" d="M78.1727,-173.66C71.3453,-175.189 63.6121,-176.92 56.2164,-178.577"/>
<polygon fill="black" stroke="black" stroke-width="2" points="55.4508,-175.161 46.4574,-180.762 56.9805,-181.992 55.4508,-175.161"/>
</g>
<!-- 4&#45;&gt;0 -->
<g id="edge2" class="edge"><title>4&#45;&gt;0</title>
<path fill="none" stroke="black" stroke-width="2" d="M181.079,-101.632C168.189,-102.758 151.435,-103.707 136.567,-102.92 125.45,-102.332 113.383,-100.663 102.703,-98.8229"/>
<polygon fill="black" stroke="black" stroke-width="2" points="103.041,-95.3262 92.5722,-96.9586 101.774,-102.211 103.041,-95.3262"/>
</g>
<!-- 4&#45;&gt;6 -->
<g id="edge17" class="edge"><title>4&#45;&gt;6</title>
<path fill="none" stroke="black" stroke-width="2" d="M188.114,-83.1086C178.317,-72.0439 165.171,-57.1959 154.21,-44.8162"/>
<polygon fill="black" stroke="black" stroke-width="2" points="156.629,-42.2689 147.38,-37.1019 151.388,-46.9092 156.629,-42.2689"/>
</g>
<!-- 5&#45;&gt;1 -->
<g id="edge7" class="edge"><title>5&#45;&gt;1</title>
<path fill="none" stroke="black" stroke-width="2" d="M24.7266,-164.179C24.078,-147.232 23.1599,-123.243 22.4249,-104.039"/>
<polygon fill="black" stroke="black" stroke-width="2" points="25.9182,-103.796 22.0382,-93.9369 18.9233,-104.063 25.9182,-103.796"/>
</g>
<!-- 5&#45;&gt;2 -->
<g id="edge11" class="edge"><title>5&#45;&gt;2</title>
<path fill="none" stroke="black" stroke-width="2" d="M46.1073,-191.05C60.8268,-194.364 81.1188,-197.518 98.9936,-195.292 112.092,-193.661 125.764,-188.776 137.24,-183.644"/>
<polygon fill="black" stroke="black" stroke-width="2" points="138.771,-186.792 146.303,-179.341 135.768,-180.468 138.771,-186.792"/>
</g>
<!-- 6&#45;&gt;1 -->
<g id="edge8" class="edge"><title>6&#45;&gt;1</title>
<path fill="none" stroke="black" stroke-width="2" d="M113.786,-30.126C96.1042,-38.1969 69.8334,-50.1883 49.7899,-59.3372"/>
<polygon fill="black" stroke="black" stroke-width="2" points="48.1593,-56.2341 40.5155,-63.5706 51.066,-62.6021 48.1593,-56.2341"/>
</g>
<!-- 7&#45;&gt;2 -->
<g id="edge13" class="edge"><title>7&#45;&gt;2</title>
<path fill="none" stroke="black" stroke-width="2" d="M142.863,-97.0917C146.609,-109.275 151.431,-124.96 155.612,-138.559"/>
<polygon fill="black" stroke="black" stroke-width="2" points="152.371,-139.929 158.655,-148.459 159.062,-137.872 152.371,-139.929"/>
</g>
<!-- 7&#45;&gt;3 -->
<g id="edge16" class="edge"><title>7&#45;&gt;3</title>
<path fill="none" stroke="black" stroke-width="2" d="M128.425,-96.6592C123.275,-109.334 116.534,-125.926 110.807,-140.021"/>
<polygon fill="black" stroke="black" stroke-width="2" points="107.558,-138.719 107.036,-149.301 114.043,-141.354 107.558,-138.719"/>
</g>
<!-- 7&#45;&gt;4 -->
<g id="edge18" class="edge"><title>7&#45;&gt;4</title>
<path fill="none" stroke="black" stroke-width="2" d="M156.689,-83.5406C161.576,-85.2227 166.91,-87.0584 172.153,-88.863"/>
<polygon fill="black" stroke="black" stroke-width="2" points="171.39,-92.3016 181.984,-92.2464 173.668,-85.6826 171.39,-92.3016"/>
</g>
</g>
</svg>

