<?xml version="1.0" encoding="UTF-8" standalone="no"?>
<!DOCTYPE svg PUBLIC "-//W3C//DTD SVG 1.1//EN"
 "http://www.w3.org/Graphics/SVG/1.1/DTD/svg11.dtd">
<!-- Generated by graphviz version 2.36.0 (20140111.2315)
 -->
<!-- Title: G Pages: 1 -->
<svg width="100%" height="100%"
 viewBox="0.00 0.00 285.40 316.42" xmlns="http://www.w3.org/2000/svg" xmlns:xlink="http://www.w3.org/1999/xlink">
<g id="graph0" class="graph" transform="scale(1 1) rotate(0) translate(4 312.42)">
<title>G</title>
<!-- 0 -->
<g id="node1" class="node"><title>0</title>
<ellipse fill="cadetblue" stroke="black" cx="158.534" cy="-176.021" rx="21.4286" ry="21.4286"/>
<text text-anchor="middle" x="158.534" y="-171.021" font-family="Times New Roman,serif" font-size="20.00">2</text>
</g>
<!-- 5 -->
<g id="node6" class="node"><title>5</title>
<ellipse fill="cadetblue" stroke="black" cx="21.2132" cy="-98.9505" rx="21.4286" ry="21.4286"/>
<text text-anchor="middle" x="21.2132" y="-93.9505" font-family="Times New Roman,serif" font-size="20.00">2</text>
</g>
<!-- 0&#45;&gt;5 -->
<g id="edge3" class="edge"><title>0&#45;&gt;5</title>
<path fill="none" stroke="black" stroke-width="2" d="M139.465,-166.383C127.388,-160.199 111.489,-151.909 97.6249,-144.189 81.162,-135.022 63.0009,-124.296 48.516,-115.59"/>
<polygon fill="black" stroke="black" stroke-width="2" points="49.9529,-112.369 39.5831,-110.196 46.3349,-118.361 49.9529,-112.369"/>
</g>
<!-- 6 -->
<g id="node7" class="node"><title>6</title>
<ellipse fill="brown" stroke="black" cx="242.654" cy="-183.085" rx="21.4286" ry="21.4286"/>
<text text-anchor="middle" x="242.654" y="-178.085" font-family="Times New Roman,serif" font-size="20.00">3</text>
</g>
<!-- 0&#45;&gt;6 -->
<g id="edge4" class="edge"><title>0&#45;&gt;6</title>
<path fill="none" stroke="black" stroke-width="2" d="M179.761,-177.804C189.325,-178.607 200.812,-179.571 211.337,-180.455"/>
<polygon fill="black" stroke="black" stroke-width="2" points="211.176,-183.954 221.434,-181.303 211.762,-176.979 211.176,-183.954"/>
</g>
<!-- 1 -->
<g id="node2" class="node"><title>1</title>
<ellipse fill="cadetblue" stroke="black" cx="63.253" cy="-236.908" rx="21.4286" ry="21.4286"/>
<text text-anchor="middle" x="63.253" y="-231.908" font-family="Times New Roman,serif" font-size="20.00">2</text>
</g>
<!-- 1&#45;&gt;6 -->
<g id="edge7" class="edge"><title>1&#45;&gt;6</title>
<path fill="none" stroke="black" stroke-width="2" d="M83.8326,-230.734C115.465,-221.244 176.194,-203.024 212.704,-192.071"/>
<polygon fill="black" stroke="black" stroke-width="2" points="213.742,-195.414 222.315,-189.188 211.731,-188.709 213.742,-195.414"/>
</g>
<!-- 7 -->
<g id="node8" class="node"><title>7</title>
<ellipse fill="cadetblue" stroke="black" cx="116.226" cy="-125.589" rx="21.4286" ry="21.4286"/>
<text text-anchor="middle" x="116.226" y="-120.589" font-family="Times New Roman,serif" font-size="20.00">2</text>
</g>
<!-- 1&#45;&gt;7 -->
<g id="edge8" class="edge"><title>1&#45;&gt;7</title>
<path fill="none" stroke="black" stroke-width="2" d="M72.4802,-217.518C80.8357,-199.959 93.2501,-173.871 102.722,-153.967"/>
<polygon fill="black" stroke="black" stroke-width="2" points="105.968,-155.291 107.104,-144.757 99.647,-152.283 105.968,-155.291"/>
</g>
<!-- 2 -->
<g id="node3" class="node"><title>2</title>
<ellipse fill="cadetblue" stroke="black" cx="153.245" cy="-21.2132" rx="21.4286" ry="21.4286"/>
<text text-anchor="middle" x="153.245" y="-16.2132" font-family="Times New Roman,serif" font-size="20.00">2</text>
</g>
<!-- 2&#45;&gt;6 -->
<g id="edge11" class="edge"><title>2&#45;&gt;6</title>
<path fill="none" stroke="black" stroke-width="2" d="M163.677,-40.0988C179.357,-68.4876 209.097,-122.33 227.27,-155.233"/>
<polygon fill="black" stroke="black" stroke-width="2" points="224.391,-157.259 232.29,-164.32 230.518,-153.874 224.391,-157.259"/>
</g>
<!-- 2&#45;&gt;7 -->
<g id="edge12" class="edge"><title>2&#45;&gt;7</title>
<path fill="none" stroke="black" stroke-width="2" d="M146.108,-41.338C140.628,-56.7883 132.977,-78.3601 126.789,-95.8076"/>
<polygon fill="black" stroke="black" stroke-width="2" points="123.386,-94.9317 123.342,-105.526 129.983,-97.2716 123.386,-94.9317"/>
</g>
<!-- 3 -->
<g id="node4" class="node"><title>3</title>
<ellipse fill="cadetblue" stroke="black" cx="170.3" cy="-287.207" rx="21.4286" ry="21.4286"/>
<text text-anchor="middle" x="170.3" y="-282.207" font-family="Times New Roman,serif" font-size="20.00">2</text>
</g>
<!-- 3&#45;&gt;0 -->
<g id="edge1" class="edge"><title>3&#45;&gt;0</title>
<path fill="none" stroke="black" stroke-width="2" d="M168.059,-266.032C166.301,-249.416 163.827,-226.038 161.841,-207.271"/>
<polygon fill="black" stroke="black" stroke-width="2" points="165.299,-206.693 160.766,-197.117 158.338,-207.43 165.299,-206.693"/>
</g>
<!-- 3&#45;&gt;1 -->
<g id="edge5" class="edge"><title>3&#45;&gt;1</title>
<path fill="none" stroke="black" stroke-width="2" d="M150.666,-277.982C134.218,-270.253 110.517,-259.117 91.9429,-250.389"/>
<polygon fill="black" stroke="black" stroke-width="2" points="93.3017,-247.16 82.7626,-246.075 90.3248,-253.496 93.3017,-247.16"/>
</g>
<!-- 4 -->
<g id="node5" class="node"><title>4</title>
<ellipse fill="cadetblue" stroke="black" cx="256.188" cy="-69.6455" rx="21.4286" ry="21.4286"/>
<text text-anchor="middle" x="256.188" y="-64.6455" font-family="Times New Roman,serif" font-size="20.00">2</text>
</g>
<!-- 4&#45;&gt;0 -->
<g id="edge2" class="edge"><title>4&#45;&gt;0</title>
<path fill="none" stroke="black" stroke-width="2" d="M241.779,-85.3416C225.479,-103.097 198.769,-132.193 180.009,-152.627"/>
<polygon fill="black" stroke="black" stroke-width="2" points="177.187,-150.527 173.002,-160.26 182.343,-155.261 177.187,-150.527"/>
</g>
<!-- 4&#45;&gt;2 -->
<g id="edge9" class="edge"><title>4&#45;&gt;2</title>
<path fill="none" stroke="black" stroke-width="2" d="M236.825,-60.5358C221.296,-53.2298 199.275,-42.8694 181.735,-34.6171"/>
<polygon fill="black" stroke="black" stroke-width="2" points="183.06,-31.3723 172.521,-30.2821 180.08,-37.7063 183.06,-31.3723"/>
</g>
<!-- 5&#45;&gt;1 -->
<g id="edge6" class="edge"><title>5&#45;&gt;1</title>
<path fill="none" stroke="black" stroke-width="2" d="M27.4163,-119.307C34.4332,-142.333 45.9321,-180.068 54.0079,-206.569"/>
<polygon fill="black" stroke="black" stroke-width="2" points="50.7614,-207.923 57.0244,-216.468 57.4574,-205.882 50.7614,-207.923"/>
</g>
<!-- 5&#45;&gt;2 -->
<g id="edge10" class="edge"><title>5&#45;&gt;2</title>
<path fill="none" stroke="black" stroke-width="2" d="M39.5717,-88.1415C61.9116,-74.9883 99.8423,-52.6556 125.692,-37.4362"/>
<polygon fill="black" stroke="black" stroke-width="2" points="127.776,-40.2708 134.617,-32.181 124.224,-34.2387 127.776,-40.2708"/>
</g>
<!-- 6&#45;&gt;3 -->
<g id="edge13" class="edge"><title>6&#45;&gt;3</title>
<path fill="none" stroke="black" stroke-width="2" d="M230.381,-200.748C218.894,-217.277 201.59,-242.18 188.498,-261.02"/>
<polygon fill="black" stroke="black" stroke-width="2" points="185.466,-259.248 182.634,-269.458 191.215,-263.243 185.466,-259.248"/>
</g>
<!-- 6&#45;&gt;4 -->
<g id="edge15" class="edge"><title>6&#45;&gt;4</title>
<path fill="none" stroke="black" stroke-width="2" d="M245.168,-162.014C247.206,-144.93 250.11,-120.591 252.425,-101.185"/>
<polygon fill="black" stroke="black" stroke-width="2" points="255.932,-101.333 253.642,-90.989 248.981,-100.504 255.932,-101.333"/>
</g>
<!-- 7&#45;&gt;3 -->
<g id="edge14" class="edge"><title>7&#45;&gt;3</title>
<path fill="none" stroke="black" stroke-width="2" d="M122.662,-146.224C125.542,-155.362 129.008,-166.231 132.23,-175.997 141.377,-203.727 152.192,-235.201 159.953,-257.571"/>
<polygon fill="black" stroke="black" stroke-width="2" points="156.698,-258.866 163.287,-267.162 163.309,-256.567 156.698,-258.866"/>
</g>
<!-- 7&#45;&gt;4 -->
<g id="edge16" class="edge"><title>7&#45;&gt;4</title>
<path fill="none" stroke="black" stroke-width="2" d="M135.982,-117.693C159.605,-108.25 199.366,-92.3575 226.646,-81.4536"/>
<polygon fill="black" stroke="black" stroke-width="2" points="228.092,-84.6449 236.079,-77.6833 225.494,-78.1449 228.092,-84.6449"/>
</g>
<!-- 7&#45;&gt;5 -->
<g id="edge17" class="edge"><title>7&#45;&gt;5</title>
<path fill="none" stroke="black" stroke-width="2" d="M95.6095,-119.809C82.7853,-116.214 66.0632,-111.525 51.7216,-107.504"/>
<polygon fill="black" stroke="black" stroke-width="2" points="52.3629,-104.049 41.7893,-104.719 50.4731,-110.789 52.3629,-104.049"/>
</g>
</g>
</svg>

