<?xml version="1.0" encoding="UTF-8" standalone="no"?>
<!DOCTYPE svg PUBLIC "-//W3C//DTD SVG 1.1//EN"
 "http://www.w3.org/Graphics/SVG/1.1/DTD/svg11.dtd">
<!-- Generated by graphviz version 2.36.0 (20140111.2315)
 -->
<!-- Title: G Pages: 1 -->
<svg width="100%" height="100%"
 viewBox="0.00 0.00 296.63 282.76" xmlns="http://www.w3.org/2000/svg" xmlns:xlink="http://www.w3.org/1999/xlink">
<g id="graph0" class="graph" transform="scale(1 1) rotate(0) translate(4 278.757)">
<title>G</title>
<!-- 0 -->
<g id="node1" class="node"><title>0</title>
<ellipse fill="cadetblue" stroke="black" cx="142.015" cy="-249.459" rx="21.4286" ry="21.4286"/>
<text text-anchor="middle" x="142.015" y="-244.459" font-family="Times New Roman,serif" font-size="20.00">2</text>
</g>
<!-- 5 -->
<g id="node6" class="node"><title>5</title>
<ellipse fill="cadetblue" stroke="black" cx="36.6644" cy="-153.061" rx="21.4286" ry="21.4286"/>
<text text-anchor="middle" x="36.6644" y="-148.061" font-family="Times New Roman,serif" font-size="20.00">2</text>
</g>
<!-- 0&#45;&gt;5 -->
<g id="edge3" class="edge"><title>0&#45;&gt;5</title>
<path fill="none" stroke="black" stroke-width="2" d="M126.014,-234.819C108.432,-218.73 80.0273,-192.74 59.9711,-174.388"/>
<polygon fill="black" stroke="black" stroke-width="2" points="62.2106,-171.693 52.4702,-167.524 57.4851,-176.857 62.2106,-171.693"/>
</g>
<!-- 6 -->
<g id="node7" class="node"><title>6</title>
<ellipse fill="cadetblue" stroke="black" cx="208.422" cy="-89.2684" rx="21.4286" ry="21.4286"/>
<text text-anchor="middle" x="208.422" y="-84.2684" font-family="Times New Roman,serif" font-size="20.00">2</text>
</g>
<!-- 0&#45;&gt;6 -->
<g id="edge4" class="edge"><title>0&#45;&gt;6</title>
<path fill="none" stroke="black" stroke-width="2" d="M148.345,-229.175C151.34,-219.897 155.064,-208.799 158.757,-198.932 169.352,-170.628 183.823,-139.31 194.412,-117.414"/>
<polygon fill="black" stroke="black" stroke-width="2" points="197.594,-118.874 198.833,-108.352 191.302,-115.805 197.594,-118.874"/>
</g>
<!-- 1 -->
<g id="node2" class="node"><title>1</title>
<ellipse fill="cadetblue" stroke="black" cx="185.062" cy="-199.028" rx="21.4286" ry="21.4286"/>
<text text-anchor="middle" x="185.062" y="-194.028" font-family="Times New Roman,serif" font-size="20.00">2</text>
</g>
<!-- 1&#45;&gt;6 -->
<g id="edge7" class="edge"><title>1&#45;&gt;6</title>
<path fill="none" stroke="black" stroke-width="2" d="M189.511,-178.125C193.002,-161.722 197.913,-138.644 201.856,-120.118"/>
<polygon fill="black" stroke="black" stroke-width="2" points="205.331,-120.603 203.99,-110.094 198.485,-119.146 205.331,-120.603"/>
</g>
<!-- 7 -->
<g id="node8" class="node"><title>7</title>
<ellipse fill="brown" stroke="black" cx="119.883" cy="-128.681" rx="21.4286" ry="21.4286"/>
<text text-anchor="middle" x="119.883" y="-123.681" font-family="Times New Roman,serif" font-size="20.00">3</text>
</g>
<!-- 1&#45;&gt;7 -->
<g id="edge8" class="edge"><title>1&#45;&gt;7</title>
<path fill="none" stroke="black" stroke-width="2" d="M170.596,-183.416C161.989,-174.126 150.909,-162.167 141.302,-151.798"/>
<polygon fill="black" stroke="black" stroke-width="2" points="143.672,-149.206 134.308,-144.25 138.537,-153.964 143.672,-149.206"/>
</g>
<!-- 2 -->
<g id="node3" class="node"><title>2</title>
<ellipse fill="cadetblue" stroke="black" cx="84.9824" cy="-21.2132" rx="21.4286" ry="21.4286"/>
<text text-anchor="middle" x="84.9824" y="-16.2132" font-family="Times New Roman,serif" font-size="20.00">2</text>
</g>
<!-- 2&#45;&gt;7 -->
<g id="edge11" class="edge"><title>2&#45;&gt;7</title>
<path fill="none" stroke="black" stroke-width="2" d="M91.547,-41.4271C96.7784,-57.536 104.183,-80.3368 110.111,-98.5906"/>
<polygon fill="black" stroke="black" stroke-width="2" points="106.812,-99.7626 113.229,-108.193 113.469,-97.6004 106.812,-99.7626"/>
</g>
<!-- 3 -->
<g id="node4" class="node"><title>3</title>
<ellipse fill="cadetblue" stroke="black" cx="21.2132" cy="-253.544" rx="21.4286" ry="21.4286"/>
<text text-anchor="middle" x="21.2132" y="-248.544" font-family="Times New Roman,serif" font-size="20.00">2</text>
</g>
<!-- 3&#45;&gt;0 -->
<g id="edge1" class="edge"><title>3&#45;&gt;0</title>
<path fill="none" stroke="black" stroke-width="2" d="M42.532,-252.823C61.306,-252.188 88.9079,-251.255 110.278,-250.533"/>
<polygon fill="black" stroke="black" stroke-width="2" points="110.627,-254.023 120.503,-250.187 110.39,-247.027 110.627,-254.023"/>
</g>
<!-- 4 -->
<g id="node5" class="node"><title>4</title>
<ellipse fill="cadetblue" stroke="black" cx="267.42" cy="-183.68" rx="21.4286" ry="21.4286"/>
<text text-anchor="middle" x="267.42" y="-178.68" font-family="Times New Roman,serif" font-size="20.00">2</text>
</g>
<!-- 4&#45;&gt;0 -->
<g id="edge2" class="edge"><title>4&#45;&gt;0</title>
<path fill="none" stroke="black" stroke-width="2" d="M248.464,-193.868C235.786,-200.661 218.717,-209.766 203.594,-217.696 192.664,-223.427 180.605,-229.666 170.076,-235.085"/>
<polygon fill="black" stroke="black" stroke-width="2" points="168.209,-232.11 160.914,-239.794 171.408,-238.336 168.209,-232.11"/>
</g>
<!-- 4&#45;&gt;1 -->
<g id="edge5" class="edge"><title>4&#45;&gt;1</title>
<path fill="none" stroke="black" stroke-width="2" d="M246.211,-187.632C237.085,-189.333 226.232,-191.356 216.22,-193.221"/>
<polygon fill="black" stroke="black" stroke-width="2" points="215.389,-189.816 206.199,-195.089 216.671,-196.698 215.389,-189.816"/>
</g>
<!-- 5&#45;&gt;1 -->
<g id="edge6" class="edge"><title>5&#45;&gt;1</title>
<path fill="none" stroke="black" stroke-width="2" d="M56.9872,-159.357C82.2659,-167.187 125.645,-180.624 154.83,-189.664"/>
<polygon fill="black" stroke="black" stroke-width="2" points="153.92,-193.046 164.508,-192.661 155.991,-186.359 153.92,-193.046"/>
</g>
<!-- 5&#45;&gt;2 -->
<g id="edge9" class="edge"><title>5&#45;&gt;2</title>
<path fill="none" stroke="black" stroke-width="2" d="M44.0029,-133.037C52.0202,-111.159 64.944,-75.8933 74.1331,-50.8183"/>
<polygon fill="black" stroke="black" stroke-width="2" points="77.4202,-52.0203 77.5749,-41.4266 70.8476,-49.6116 77.4202,-52.0203"/>
</g>
<!-- 5&#45;&gt;3 -->
<g id="edge12" class="edge"><title>5&#45;&gt;3</title>
<path fill="none" stroke="black" stroke-width="2" d="M33.3876,-174.371C31.2571,-188.226 28.4419,-206.534 26.0554,-222.054"/>
<polygon fill="black" stroke="black" stroke-width="2" points="22.5459,-221.849 24.4853,-232.265 29.4645,-222.913 22.5459,-221.849"/>
</g>
<!-- 6&#45;&gt;2 -->
<g id="edge10" class="edge"><title>6&#45;&gt;2</title>
<path fill="none" stroke="black" stroke-width="2" d="M189.674,-78.9322C169.192,-67.6399 136.175,-49.437 112.699,-36.4943"/>
<polygon fill="black" stroke="black" stroke-width="2" points="114.354,-33.4097 103.907,-31.6466 110.974,-39.5398 114.354,-33.4097"/>
</g>
<!-- 6&#45;&gt;4 -->
<g id="edge14" class="edge"><title>6&#45;&gt;4</title>
<path fill="none" stroke="black" stroke-width="2" d="M219.798,-107.472C228.531,-121.447 240.724,-140.96 250.586,-156.741"/>
<polygon fill="black" stroke="black" stroke-width="2" points="247.812,-158.907 256.08,-165.532 253.748,-155.197 247.812,-158.907"/>
</g>
<!-- 6&#45;&gt;7 -->
<g id="edge17" class="edge"><title>6&#45;&gt;7</title>
<path fill="none" stroke="black" stroke-width="2" d="M188.772,-98.0153C177.08,-103.22 162.029,-109.92 148.979,-115.729"/>
<polygon fill="black" stroke="black" stroke-width="2" points="147.19,-112.694 139.478,-119.959 150.037,-119.089 147.19,-112.694"/>
</g>
<!-- 7&#45;&gt;3 -->
<g id="edge13" class="edge"><title>7&#45;&gt;3</title>
<path fill="none" stroke="black" stroke-width="2" d="M106.576,-145.521C89.7304,-166.838 60.5624,-203.749 41.0769,-228.407"/>
<polygon fill="black" stroke="black" stroke-width="2" points="38.0786,-226.556 34.6246,-236.572 43.5708,-230.896 38.0786,-226.556"/>
</g>
<!-- 7&#45;&gt;4 -->
<g id="edge15" class="edge"><title>7&#45;&gt;4</title>
<path fill="none" stroke="black" stroke-width="2" d="M139.781,-136.099C164.969,-145.488 208.583,-161.747 237.719,-172.608"/>
<polygon fill="black" stroke="black" stroke-width="2" points="236.774,-175.991 247.367,-176.204 239.219,-169.432 236.774,-175.991"/>
</g>
<!-- 7&#45;&gt;5 -->
<g id="edge16" class="edge"><title>7&#45;&gt;5</title>
<path fill="none" stroke="black" stroke-width="2" d="M99.3122,-134.708C89.6099,-137.55 77.8366,-140.999 67.1269,-144.137"/>
<polygon fill="black" stroke="black" stroke-width="2" points="65.8997,-140.849 57.2871,-147.02 67.8678,-147.567 65.8997,-140.849"/>
</g>
</g>
</svg>

