<?xml version="1.0" encoding="UTF-8" standalone="no"?>
<!DOCTYPE svg PUBLIC "-//W3C//DTD SVG 1.1//EN"
 "http://www.w3.org/Graphics/SVG/1.1/DTD/svg11.dtd">
<!-- Generated by graphviz version 2.36.0 (20140111.2315)
 -->
<!-- Title: G Pages: 1 -->
<svg width="100%" height="100%"
 viewBox="0.00 0.00 293.93 272.88" xmlns="http://www.w3.org/2000/svg" xmlns:xlink="http://www.w3.org/1999/xlink">
<g id="graph0" class="graph" transform="scale(1 1) rotate(0) translate(4 268.876)">
<title>G</title>
<!-- 0 -->
<g id="node1" class="node"><title>0</title>
<ellipse fill="cadetblue" stroke="black" cx="39.7983" cy="-21.2132" rx="21.4286" ry="21.4286"/>
<text text-anchor="middle" x="39.7983" y="-16.2132" font-family="Times New Roman,serif" font-size="20.00">2</text>
</g>
<!-- 6 -->
<g id="node7" class="node"><title>6</title>
<ellipse fill="cadetblue" stroke="black" cx="133.701" cy="-121.664" rx="21.4286" ry="21.4286"/>
<text text-anchor="middle" x="133.701" y="-116.664" font-family="Times New Roman,serif" font-size="20.00">2</text>
</g>
<!-- 0&#45;&gt;6 -->
<g id="edge3" class="edge"><title>0&#45;&gt;6</title>
<path fill="none" stroke="black" stroke-width="2" d="M54.4707,-36.9086C69.9756,-53.4946 94.5832,-79.8181 112.261,-98.7289"/>
<polygon fill="black" stroke="black" stroke-width="2" points="109.746,-101.163 119.132,-106.078 114.86,-96.3831 109.746,-101.163"/>
</g>
<!-- 7 -->
<g id="node8" class="node"><title>7</title>
<ellipse fill="brown" stroke="black" cx="66.3024" cy="-106.459" rx="21.4286" ry="21.4286"/>
<text text-anchor="middle" x="66.3024" y="-101.459" font-family="Times New Roman,serif" font-size="20.00">3</text>
</g>
<!-- 0&#45;&gt;7 -->
<g id="edge4" class="edge"><title>0&#45;&gt;7</title>
<path fill="none" stroke="black" stroke-width="2" d="M46.2142,-41.8489C49.4372,-52.2152 53.4031,-64.9708 56.9572,-76.4022"/>
<polygon fill="black" stroke="black" stroke-width="2" points="53.6344,-77.5037 59.9456,-86.0137 60.3188,-75.4254 53.6344,-77.5037"/>
</g>
<!-- 1 -->
<g id="node2" class="node"><title>1</title>
<ellipse fill="cadetblue" stroke="black" cx="93.2792" cy="-243.662" rx="21.4286" ry="21.4286"/>
<text text-anchor="middle" x="93.2792" y="-238.662" font-family="Times New Roman,serif" font-size="20.00">2</text>
</g>
<!-- 1&#45;&gt;6 -->
<g id="edge7" class="edge"><title>1&#45;&gt;6</title>
<path fill="none" stroke="black" stroke-width="2" d="M99.9541,-223.517C106.449,-203.914 116.395,-173.895 123.81,-151.518"/>
<polygon fill="black" stroke="black" stroke-width="2" points="127.194,-152.433 127.016,-141.839 120.549,-150.231 127.194,-152.433"/>
</g>
<!-- 1&#45;&gt;7 -->
<g id="edge8" class="edge"><title>1&#45;&gt;7</title>
<path fill="none" stroke="black" stroke-width="2" d="M89.182,-222.824C84.7256,-200.159 77.554,-163.685 72.428,-137.614"/>
<polygon fill="black" stroke="black" stroke-width="2" points="75.8017,-136.63 70.4381,-127.494 68.9332,-137.981 75.8017,-136.63"/>
</g>
<!-- 2 -->
<g id="node3" class="node"><title>2</title>
<ellipse fill="cadetblue" stroke="black" cx="264.721" cy="-94.433" rx="21.4286" ry="21.4286"/>
<text text-anchor="middle" x="264.721" y="-89.433" font-family="Times New Roman,serif" font-size="20.00">2</text>
</g>
<!-- 5 -->
<g id="node6" class="node"><title>5</title>
<ellipse fill="cadetblue" stroke="black" cx="175.573" cy="-172.095" rx="21.4286" ry="21.4286"/>
<text text-anchor="middle" x="175.573" y="-167.095" font-family="Times New Roman,serif" font-size="20.00">2</text>
</g>
<!-- 2&#45;&gt;5 -->
<g id="edge10" class="edge"><title>2&#45;&gt;5</title>
<path fill="none" stroke="black" stroke-width="2" d="M248.37,-108.677C234.672,-120.61 214.934,-137.805 199.466,-151.281"/>
<polygon fill="black" stroke="black" stroke-width="2" points="197.061,-148.733 191.82,-157.941 201.659,-154.011 197.061,-148.733"/>
</g>
<!-- 3 -->
<g id="node4" class="node"><title>3</title>
<ellipse fill="cadetblue" stroke="black" cx="21.2132" cy="-169.237" rx="21.4286" ry="21.4286"/>
<text text-anchor="middle" x="21.2132" y="-164.237" font-family="Times New Roman,serif" font-size="20.00">2</text>
</g>
<!-- 3&#45;&gt;0 -->
<g id="edge1" class="edge"><title>3&#45;&gt;0</title>
<path fill="none" stroke="black" stroke-width="2" d="M23.876,-148.029C27.0226,-122.967 32.2854,-81.051 35.8932,-52.3165"/>
<polygon fill="black" stroke="black" stroke-width="2" points="39.3674,-52.7402 37.1405,-42.3821 32.4219,-51.8681 39.3674,-52.7402"/>
</g>
<!-- 3&#45;&gt;1 -->
<g id="edge5" class="edge"><title>3&#45;&gt;1</title>
<path fill="none" stroke="black" stroke-width="2" d="M36.1453,-184.658C46.2912,-195.136 59.8832,-209.173 71.2647,-220.927"/>
<polygon fill="black" stroke="black" stroke-width="2" points="68.8955,-223.512 78.3662,-228.261 73.9243,-218.642 68.8955,-223.512"/>
</g>
<!-- 3&#45;&gt;7 -->
<g id="edge14" class="edge"><title>3&#45;&gt;7</title>
<path fill="none" stroke="black" stroke-width="2" d="M33.773,-151.75C38.1703,-145.628 43.2026,-138.621 47.9737,-131.978"/>
<polygon fill="black" stroke="black" stroke-width="2" points="50.819,-134.017 53.8099,-123.853 45.1335,-129.933 50.819,-134.017"/>
</g>
<!-- 4 -->
<g id="node5" class="node"><title>4</title>
<ellipse fill="cadetblue" stroke="black" cx="169.099" cy="-21.2746" rx="21.4286" ry="21.4286"/>
<text text-anchor="middle" x="169.099" y="-16.2746" font-family="Times New Roman,serif" font-size="20.00">2</text>
</g>
<!-- 4&#45;&gt;0 -->
<g id="edge2" class="edge"><title>4&#45;&gt;0</title>
<path fill="none" stroke="black" stroke-width="2" d="M147.748,-21.2644C126.972,-21.2546 95.1563,-21.2395 71.4396,-21.2282"/>
<polygon fill="black" stroke="black" stroke-width="2" points="71.1832,-17.7282 61.1815,-21.2234 71.1798,-24.7282 71.1832,-17.7282"/>
</g>
<!-- 4&#45;&gt;2 -->
<g id="edge9" class="edge"><title>4&#45;&gt;2</title>
<path fill="none" stroke="black" stroke-width="2" d="M186.195,-34.3538C201.016,-45.6935 222.667,-62.2581 239.483,-75.1236"/>
<polygon fill="black" stroke="black" stroke-width="2" points="237.705,-78.1703 247.774,-81.467 241.958,-72.6108 237.705,-78.1703"/>
</g>
<!-- 5&#45;&gt;1 -->
<g id="edge6" class="edge"><title>5&#45;&gt;1</title>
<path fill="none" stroke="black" stroke-width="2" d="M159.314,-186.234C147.254,-196.723 130.624,-211.185 117.071,-222.972"/>
<polygon fill="black" stroke="black" stroke-width="2" points="114.753,-220.349 109.504,-229.552 119.347,-225.631 114.753,-220.349"/>
</g>
<!-- 5&#45;&gt;3 -->
<g id="edge12" class="edge"><title>5&#45;&gt;3</title>
<path fill="none" stroke="black" stroke-width="2" d="M154.11,-171.698C127.729,-171.209 82.7529,-170.377 52.5187,-169.817"/>
<polygon fill="black" stroke="black" stroke-width="2" points="52.5571,-166.317 42.4939,-169.631 52.4274,-173.316 52.5571,-166.317"/>
</g>
<!-- 5&#45;&gt;4 -->
<g id="edge15" class="edge"><title>5&#45;&gt;4</title>
<path fill="none" stroke="black" stroke-width="2" d="M174.659,-150.806C173.566,-125.35 171.727,-82.5043 170.466,-53.1082"/>
<polygon fill="black" stroke="black" stroke-width="2" points="173.955,-52.7843 170.029,-42.9437 166.962,-53.0846 173.955,-52.7843"/>
</g>
<!-- 6&#45;&gt;2 -->
<g id="edge11" class="edge"><title>6&#45;&gt;2</title>
<path fill="none" stroke="black" stroke-width="2" d="M154.752,-117.289C176.145,-112.842 209.516,-105.907 233.889,-100.841"/>
<polygon fill="black" stroke="black" stroke-width="2" points="234.644,-104.259 243.723,-98.7972 233.22,-97.4054 234.644,-104.259"/>
</g>
<!-- 6&#45;&gt;3 -->
<g id="edge13" class="edge"><title>6&#45;&gt;3</title>
<path fill="none" stroke="black" stroke-width="2" d="M114.107,-129.95C96.4725,-137.408 70.3234,-148.467 50.2578,-156.954"/>
<polygon fill="black" stroke="black" stroke-width="2" points="48.8069,-153.767 40.96,-160.886 51.5335,-160.214 48.8069,-153.767"/>
</g>
<!-- 7&#45;&gt;4 -->
<g id="edge16" class="edge"><title>7&#45;&gt;4</title>
<path fill="none" stroke="black" stroke-width="2" d="M82.8185,-92.7729C99.6036,-78.8636 125.786,-57.1669 144.909,-41.3204"/>
<polygon fill="black" stroke="black" stroke-width="2" points="147.158,-44.0026 152.624,-34.927 142.691,-38.6127 147.158,-44.0026"/>
</g>
<!-- 7&#45;&gt;5 -->
<g id="edge17" class="edge"><title>7&#45;&gt;5</title>
<path fill="none" stroke="black" stroke-width="2" d="M83.5722,-119.18C92.7525,-125.746 104.334,-133.724 115.079,-140.241 125.413,-146.509 137.097,-152.831 147.423,-158.171"/>
<polygon fill="black" stroke="black" stroke-width="2" points="145.946,-161.347 156.445,-162.771 149.125,-155.111 145.946,-161.347"/>
</g>
</g>
</svg>

