<?xml version="1.0" encoding="UTF-8" standalone="no"?>
<!DOCTYPE svg PUBLIC "-//W3C//DTD SVG 1.1//EN"
 "http://www.w3.org/Graphics/SVG/1.1/DTD/svg11.dtd">
<!-- Generated by graphviz version 2.36.0 (20140111.2315)
 -->
<!-- Title: G Pages: 1 -->
<svg width="100%" height="100%"
 viewBox="0.00 0.00 283.60 301.19" xmlns="http://www.w3.org/2000/svg" xmlns:xlink="http://www.w3.org/1999/xlink">
<g id="graph0" class="graph" transform="scale(1 1) rotate(0) translate(4 297.19)">
<title>G</title>
<!-- 0 -->
<g id="node1" class="node"><title>0</title>
<ellipse fill="cadetblue" stroke="black" cx="117.977" cy="-271.976" rx="21.4286" ry="21.4286"/>
<text text-anchor="middle" x="117.977" y="-266.976" font-family="Times New Roman,serif" font-size="20.00">2</text>
</g>
<!-- 5 -->
<g id="node6" class="node"><title>5</title>
<ellipse fill="cadetblue" stroke="black" cx="57.2483" cy="-134.903" rx="21.4286" ry="21.4286"/>
<text text-anchor="middle" x="57.2483" y="-129.903" font-family="Times New Roman,serif" font-size="20.00">2</text>
</g>
<!-- 0&#45;&gt;5 -->
<g id="edge3" class="edge"><title>0&#45;&gt;5</title>
<path fill="none" stroke="black" stroke-width="2" d="M109.276,-252.337C98.9939,-229.129 81.7973,-190.314 70.0087,-163.705"/>
<polygon fill="black" stroke="black" stroke-width="2" points="73.1837,-162.231 65.933,-154.506 66.7837,-165.066 73.1837,-162.231"/>
</g>
<!-- 6 -->
<g id="node7" class="node"><title>6</title>
<ellipse fill="cadetblue" stroke="black" cx="107.68" cy="-127.228" rx="21.4286" ry="21.4286"/>
<text text-anchor="middle" x="107.68" y="-122.228" font-family="Times New Roman,serif" font-size="20.00">2</text>
</g>
<!-- 0&#45;&gt;6 -->
<g id="edge4" class="edge"><title>0&#45;&gt;6</title>
<path fill="none" stroke="black" stroke-width="2" d="M116.457,-250.618C114.731,-226.351 111.897,-186.515 109.918,-158.692"/>
<polygon fill="black" stroke="black" stroke-width="2" points="113.406,-158.4 109.205,-148.674 106.424,-158.897 113.406,-158.4"/>
</g>
<!-- 1 -->
<g id="node2" class="node"><title>1</title>
<ellipse fill="cadetblue" stroke="black" cx="232.158" cy="-111.473" rx="21.4286" ry="21.4286"/>
<text text-anchor="middle" x="232.158" y="-106.473" font-family="Times New Roman,serif" font-size="20.00">2</text>
</g>
<!-- 4 -->
<g id="node5" class="node"><title>4</title>
<ellipse fill="cadetblue" stroke="black" cx="254.385" cy="-244.483" rx="21.4286" ry="21.4286"/>
<text text-anchor="middle" x="254.385" y="-239.483" font-family="Times New Roman,serif" font-size="20.00">2</text>
</g>
<!-- 1&#45;&gt;4 -->
<g id="edge5" class="edge"><title>1&#45;&gt;4</title>
<path fill="none" stroke="black" stroke-width="2" d="M235.68,-132.549C239.322,-154.341 245.047,-188.6 249.204,-213.481"/>
<polygon fill="black" stroke="black" stroke-width="2" points="245.779,-214.22 250.88,-223.506 252.684,-213.066 245.779,-214.22"/>
</g>
<!-- 7 -->
<g id="node8" class="node"><title>7</title>
<ellipse fill="cadetblue" stroke="black" cx="158.79" cy="-167.03" rx="21.4286" ry="21.4286"/>
<text text-anchor="middle" x="158.79" y="-162.03" font-family="Times New Roman,serif" font-size="20.00">2</text>
</g>
<!-- 1&#45;&gt;7 -->
<g id="edge8" class="edge"><title>1&#45;&gt;7</title>
<path fill="none" stroke="black" stroke-width="2" d="M215.142,-124.358C205.882,-131.37 194.248,-140.18 183.959,-147.971"/>
<polygon fill="black" stroke="black" stroke-width="2" points="181.574,-145.387 175.714,-154.214 185.8,-150.967 181.574,-145.387"/>
</g>
<!-- 2 -->
<g id="node3" class="node"><title>2</title>
<ellipse fill="cadetblue" stroke="black" cx="96.1187" cy="-21.2132" rx="21.4286" ry="21.4286"/>
<text text-anchor="middle" x="96.1187" y="-16.2132" font-family="Times New Roman,serif" font-size="20.00">2</text>
</g>
<!-- 2&#45;&gt;7 -->
<g id="edge11" class="edge"><title>2&#45;&gt;7</title>
<path fill="none" stroke="black" stroke-width="2" d="M104.571,-40.8787C115.271,-65.7735 133.797,-108.879 146.174,-137.675"/>
<polygon fill="black" stroke="black" stroke-width="2" points="143.107,-139.405 150.272,-147.21 149.539,-136.641 143.107,-139.405"/>
</g>
<!-- 3 -->
<g id="node4" class="node"><title>3</title>
<ellipse fill="cadetblue" stroke="black" cx="21.2132" cy="-230.163" rx="21.4286" ry="21.4286"/>
<text text-anchor="middle" x="21.2132" y="-225.163" font-family="Times New Roman,serif" font-size="20.00">2</text>
</g>
<!-- 3&#45;&gt;0 -->
<g id="edge1" class="edge"><title>3&#45;&gt;0</title>
<path fill="none" stroke="black" stroke-width="2" d="M40.7947,-238.625C54.6973,-244.632 73.5882,-252.795 89.2007,-259.542"/>
<polygon fill="black" stroke="black" stroke-width="2" points="87.8562,-262.774 98.4242,-263.527 90.6329,-256.348 87.8562,-262.774"/>
</g>
<!-- 3&#45;&gt;6 -->
<g id="edge13" class="edge"><title>3&#45;&gt;6</title>
<path fill="none" stroke="black" stroke-width="2" d="M35.1055,-213.625C49.2242,-196.817 71.2473,-170.599 87.3322,-151.451"/>
<polygon fill="black" stroke="black" stroke-width="2" points="90.0698,-153.634 93.8218,-143.725 84.7099,-149.131 90.0698,-153.634"/>
</g>
<!-- 4&#45;&gt;0 -->
<g id="edge2" class="edge"><title>4&#45;&gt;0</title>
<path fill="none" stroke="black" stroke-width="2" d="M233.37,-248.719C210.775,-253.273 174.627,-260.559 148.811,-265.762"/>
<polygon fill="black" stroke="black" stroke-width="2" points="147.903,-262.374 138.791,-267.781 149.286,-269.236 147.903,-262.374"/>
</g>
<!-- 5&#45;&gt;1 -->
<g id="edge6" class="edge"><title>5&#45;&gt;1</title>
<path fill="none" stroke="black" stroke-width="2" d="M76.2737,-145.386C85.4656,-149.54 96.8282,-153.379 107.648,-153.532 117.356,-153.67 169.19,-135.033 202.846,-122.526"/>
<polygon fill="black" stroke="black" stroke-width="2" points="204.079,-125.802 212.223,-119.025 201.63,-119.244 204.079,-125.802"/>
</g>
<!-- 5&#45;&gt;2 -->
<g id="edge9" class="edge"><title>5&#45;&gt;2</title>
<path fill="none" stroke="black" stroke-width="2" d="M64.1975,-114.577C70.2501,-96.8746 79.1044,-70.9772 85.9532,-50.9456"/>
<polygon fill="black" stroke="black" stroke-width="2" points="89.3062,-51.9572 89.2296,-41.3627 82.6826,-49.6926 89.3062,-51.9572"/>
</g>
<!-- 5&#45;&gt;3 -->
<g id="edge12" class="edge"><title>5&#45;&gt;3</title>
<path fill="none" stroke="black" stroke-width="2" d="M49.6062,-155.105C44.6039,-168.329 37.9832,-185.831 32.3933,-200.608"/>
<polygon fill="black" stroke="black" stroke-width="2" points="28.9853,-199.725 28.7207,-210.317 35.5325,-202.202 28.9853,-199.725"/>
</g>
<!-- 6&#45;&gt;1 -->
<g id="edge7" class="edge"><title>6&#45;&gt;1</title>
<path fill="none" stroke="black" stroke-width="2" d="M128.796,-124.555C148.556,-122.054 178.327,-118.286 200.851,-115.435"/>
<polygon fill="black" stroke="black" stroke-width="2" points="201.457,-118.887 210.939,-114.159 200.578,-111.942 201.457,-118.887"/>
</g>
<!-- 6&#45;&gt;2 -->
<g id="edge10" class="edge"><title>6&#45;&gt;2</title>
<path fill="none" stroke="black" stroke-width="2" d="M105.368,-106.029C103.698,-90.7169 101.416,-69.7853 99.5357,-52.5476"/>
<polygon fill="black" stroke="black" stroke-width="2" points="102.99,-51.9369 98.4265,-42.3753 96.0312,-52.6959 102.99,-51.9369"/>
</g>
<!-- 7&#45;&gt;3 -->
<g id="edge14" class="edge"><title>7&#45;&gt;3</title>
<path fill="none" stroke="black" stroke-width="2" d="M139.371,-175.941C116.018,-186.658 76.6217,-204.737 49.7956,-217.047"/>
<polygon fill="black" stroke="black" stroke-width="2" points="48.163,-213.945 40.5341,-221.297 51.0826,-220.307 48.163,-213.945"/>
</g>
<!-- 7&#45;&gt;4 -->
<g id="edge15" class="edge"><title>7&#45;&gt;4</title>
<path fill="none" stroke="black" stroke-width="2" d="M175.442,-180.521C190.428,-192.664 212.65,-210.668 229.702,-224.485"/>
<polygon fill="black" stroke="black" stroke-width="2" points="227.631,-227.311 237.604,-230.887 232.037,-221.872 227.631,-227.311"/>
</g>
<!-- 7&#45;&gt;5 -->
<g id="edge16" class="edge"><title>7&#45;&gt;5</title>
<path fill="none" stroke="black" stroke-width="2" d="M137.759,-161.964C128.47,-159.602 117.455,-156.631 107.648,-153.532 100.835,-151.38 93.5873,-148.847 86.7747,-146.355"/>
<polygon fill="black" stroke="black" stroke-width="2" points="87.7988,-143.002 77.2062,-142.782 85.3498,-149.559 87.7988,-143.002"/>
</g>
</g>
</svg>

