<?xml version="1.0" encoding="UTF-8" standalone="no"?>
<!DOCTYPE svg PUBLIC "-//W3C//DTD SVG 1.1//EN"
 "http://www.w3.org/Graphics/SVG/1.1/DTD/svg11.dtd">
<!-- Generated by graphviz version 2.36.0 (20140111.2315)
 -->
<!-- Title: G Pages: 1 -->
<svg width="100%" height="100%"
 viewBox="0.00 0.00 237.82 281.46" xmlns="http://www.w3.org/2000/svg" xmlns:xlink="http://www.w3.org/1999/xlink">
<g id="graph0" class="graph" transform="scale(1 1) rotate(0) translate(4 277.462)">
<title>G</title>
<!-- 0 -->
<g id="node1" class="node"><title>0</title>
<ellipse fill="cadetblue" stroke="black" cx="55.7776" cy="-247.078" rx="21.4286" ry="21.4286"/>
<text text-anchor="middle" x="55.7776" y="-242.078" font-family="Times New Roman,serif" font-size="20.00">2</text>
</g>
<!-- 3 -->
<g id="node4" class="node"><title>3</title>
<ellipse fill="brown" stroke="black" cx="141.672" cy="-252.249" rx="21.4286" ry="21.4286"/>
<text text-anchor="middle" x="141.672" y="-247.249" font-family="Times New Roman,serif" font-size="20.00">3</text>
</g>
<!-- 0&#45;&gt;3 -->
<g id="edge1" class="edge"><title>0&#45;&gt;3</title>
<path fill="none" stroke="black" stroke-width="2" d="M77.0099,-248.356C87.0241,-248.959 99.1759,-249.691 110.23,-250.356"/>
<polygon fill="black" stroke="black" stroke-width="2" points="110.194,-253.86 120.386,-250.967 110.614,-246.873 110.194,-253.86"/>
</g>
<!-- 5 -->
<g id="node6" class="node"><title>5</title>
<ellipse fill="cadetblue" stroke="black" cx="35.2682" cy="-131.362" rx="21.4286" ry="21.4286"/>
<text text-anchor="middle" x="35.2682" y="-126.362" font-family="Times New Roman,serif" font-size="20.00">2</text>
</g>
<!-- 0&#45;&gt;5 -->
<g id="edge3" class="edge"><title>0&#45;&gt;5</title>
<path fill="none" stroke="black" stroke-width="2" d="M52.0635,-226.123C48.9179,-208.375 44.3631,-182.676 40.7902,-162.518"/>
<polygon fill="black" stroke="black" stroke-width="2" points="44.2155,-161.788 39.024,-152.552 37.3229,-163.01 44.2155,-161.788"/>
</g>
<!-- 1 -->
<g id="node2" class="node"><title>1</title>
<ellipse fill="cadetblue" stroke="black" cx="124.602" cy="-21.5823" rx="21.4286" ry="21.4286"/>
<text text-anchor="middle" x="124.602" y="-16.5823" font-family="Times New Roman,serif" font-size="20.00">2</text>
</g>
<!-- 4 -->
<g id="node5" class="node"><title>4</title>
<ellipse fill="cadetblue" stroke="black" cx="208.609" cy="-166.337" rx="21.4286" ry="21.4286"/>
<text text-anchor="middle" x="208.609" y="-161.337" font-family="Times New Roman,serif" font-size="20.00">2</text>
</g>
<!-- 1&#45;&gt;4 -->
<g id="edge5" class="edge"><title>1&#45;&gt;4</title>
<path fill="none" stroke="black" stroke-width="2" d="M134.78,-40.2386C140.958,-51.478 149.051,-66.05 156.432,-78.8671 168.122,-99.1652 181.685,-121.877 192.052,-139.071"/>
<polygon fill="black" stroke="black" stroke-width="2" points="189.283,-141.256 197.451,-148.004 195.274,-137.635 189.283,-141.256"/>
</g>
<!-- 7 -->
<g id="node8" class="node"><title>7</title>
<ellipse fill="cadetblue" stroke="black" cx="175.033" cy="-60.268" rx="21.4286" ry="21.4286"/>
<text text-anchor="middle" x="175.033" y="-55.268" font-family="Times New Roman,serif" font-size="20.00">2</text>
</g>
<!-- 1&#45;&gt;7 -->
<g id="edge8" class="edge"><title>1&#45;&gt;7</title>
<path fill="none" stroke="black" stroke-width="2" d="M141.676,-34.6795C144.304,-36.6961 147.066,-38.8142 149.827,-40.9322"/>
<polygon fill="black" stroke="black" stroke-width="2" points="147.912,-43.8748 157.977,-47.1842 152.173,-38.3207 147.912,-43.8748"/>
</g>
<!-- 2 -->
<g id="node3" class="node"><title>2</title>
<ellipse fill="cadetblue" stroke="black" cx="21.2132" cy="-21.2132" rx="21.4286" ry="21.4286"/>
<text text-anchor="middle" x="21.2132" y="-16.2132" font-family="Times New Roman,serif" font-size="20.00">2</text>
</g>
<!-- 2&#45;&gt;5 -->
<g id="edge9" class="edge"><title>2&#45;&gt;5</title>
<path fill="none" stroke="black" stroke-width="2" d="M23.9231,-42.451C26.0134,-58.8319 28.9356,-81.7334 31.2907,-100.191"/>
<polygon fill="black" stroke="black" stroke-width="2" points="27.8289,-100.713 32.5666,-110.189 34.7726,-99.8266 27.8289,-100.713"/>
</g>
<!-- 6 -->
<g id="node7" class="node"><title>6</title>
<ellipse fill="cadetblue" stroke="black" cx="95.1545" cy="-134.494" rx="21.4286" ry="21.4286"/>
<text text-anchor="middle" x="95.1545" y="-129.494" font-family="Times New Roman,serif" font-size="20.00">2</text>
</g>
<!-- 3&#45;&gt;6 -->
<g id="edge14" class="edge"><title>3&#45;&gt;6</title>
<path fill="none" stroke="black" stroke-width="2" d="M133.781,-232.273C126.396,-213.58 115.271,-185.417 106.854,-164.11"/>
<polygon fill="black" stroke="black" stroke-width="2" points="110.014,-162.582 103.084,-154.567 103.503,-165.154 110.014,-162.582"/>
</g>
<!-- 4&#45;&gt;0 -->
<g id="edge2" class="edge"><title>4&#45;&gt;0</title>
<path fill="none" stroke="black" stroke-width="2" d="M189.562,-176.4C162.876,-190.498 114.193,-216.217 83.4913,-232.437"/>
<polygon fill="black" stroke="black" stroke-width="2" points="81.7918,-229.376 74.5848,-237.142 85.0617,-235.566 81.7918,-229.376"/>
</g>
<!-- 4&#45;&gt;3 -->
<g id="edge12" class="edge"><title>4&#45;&gt;3</title>
<path fill="none" stroke="black" stroke-width="2" d="M195.385,-183.31C185.575,-195.901 172.048,-213.261 161.024,-227.411"/>
<polygon fill="black" stroke="black" stroke-width="2" points="158.254,-225.271 154.869,-235.311 163.776,-229.573 158.254,-225.271"/>
</g>
<!-- 5&#45;&gt;1 -->
<g id="edge6" class="edge"><title>5&#45;&gt;1</title>
<path fill="none" stroke="black" stroke-width="2" d="M48.836,-114.689C63.7452,-96.3671 87.8315,-66.7682 104.838,-45.8688"/>
<polygon fill="black" stroke="black" stroke-width="2" points="107.602,-48.0182 111.199,-38.0526 102.172,-43.5999 107.602,-48.0182"/>
</g>
<!-- 5&#45;&gt;3 -->
<g id="edge13" class="edge"><title>5&#45;&gt;3</title>
<path fill="none" stroke="black" stroke-width="2" d="M49.6182,-147.665C67.9655,-168.51 99.8674,-204.754 120.877,-228.623"/>
<polygon fill="black" stroke="black" stroke-width="2" points="118.315,-231.01 127.549,-236.204 123.569,-226.385 118.315,-231.01"/>
</g>
<!-- 5&#45;&gt;7 -->
<g id="edge16" class="edge"><title>5&#45;&gt;7</title>
<path fill="none" stroke="black" stroke-width="2" d="M54.4088,-121.626C78.3508,-109.447 119.533,-88.4991 147.022,-74.5163"/>
<polygon fill="black" stroke="black" stroke-width="2" points="148.797,-77.5401 156.124,-69.8866 145.624,-71.3009 148.797,-77.5401"/>
</g>
<!-- 6&#45;&gt;0 -->
<g id="edge4" class="edge"><title>6&#45;&gt;0</title>
<path fill="none" stroke="black" stroke-width="2" d="M88.1147,-154.622C82.0211,-172.044 73.1242,-197.482 66.2043,-217.267"/>
<polygon fill="black" stroke="black" stroke-width="2" points="62.887,-216.15 62.8892,-226.745 69.4945,-218.461 62.887,-216.15"/>
</g>
<!-- 6&#45;&gt;1 -->
<g id="edge7" class="edge"><title>6&#45;&gt;1</title>
<path fill="none" stroke="black" stroke-width="2" d="M100.556,-113.784C105.08,-96.4353 111.6,-71.4359 116.71,-51.844"/>
<polygon fill="black" stroke="black" stroke-width="2" points="120.098,-52.7203 119.235,-42.1607 113.325,-50.9538 120.098,-52.7203"/>
</g>
<!-- 6&#45;&gt;2 -->
<g id="edge10" class="edge"><title>6&#45;&gt;2</title>
<path fill="none" stroke="black" stroke-width="2" d="M83.4383,-116.544C71.3236,-97.9841 52.2788,-68.8068 38.4476,-47.617"/>
<polygon fill="black" stroke="black" stroke-width="2" points="41.2715,-45.5398 32.8746,-39.0789 35.4097,-49.366 41.2715,-45.5398"/>
</g>
<!-- 7&#45;&gt;2 -->
<g id="edge11" class="edge"><title>7&#45;&gt;2</title>
<path fill="none" stroke="black" stroke-width="2" d="M154.369,-55.2655C145.213,-53.0333 134.316,-50.3548 124.506,-47.8865 99.9216,-41.7004 72.0979,-34.5042 51.5267,-29.1465"/>
<polygon fill="black" stroke="black" stroke-width="2" points="52.3315,-25.7394 41.7719,-26.6021 50.5648,-32.5128 52.3315,-25.7394"/>
</g>
<!-- 7&#45;&gt;4 -->
<g id="edge15" class="edge"><title>7&#45;&gt;4</title>
<path fill="none" stroke="black" stroke-width="2" d="M181.507,-80.7191C186.477,-96.42 193.417,-118.342 199.029,-136.072"/>
<polygon fill="black" stroke="black" stroke-width="2" points="195.801,-137.471 202.156,-145.949 202.474,-135.358 195.801,-137.471"/>
</g>
<!-- 7&#45;&gt;6 -->
<g id="edge17" class="edge"><title>7&#45;&gt;6</title>
<path fill="none" stroke="black" stroke-width="2" d="M159.252,-74.9326C147.545,-85.8105 131.404,-100.81 118.248,-113.035"/>
<polygon fill="black" stroke="black" stroke-width="2" points="115.846,-110.489 110.903,-119.86 120.611,-115.616 115.846,-110.489"/>
</g>
</g>
</svg>

