<?xml version="1.0" encoding="UTF-8" standalone="no"?>
<!DOCTYPE svg PUBLIC "-//W3C//DTD SVG 1.1//EN"
 "http://www.w3.org/Graphics/SVG/1.1/DTD/svg11.dtd">
<!-- Generated by graphviz version 2.36.0 (20140111.2315)
 -->
<!-- Title: G Pages: 1 -->
<svg width="100%" height="100%"
 viewBox="0.00 0.00 269.82 274.89" xmlns="http://www.w3.org/2000/svg" xmlns:xlink="http://www.w3.org/1999/xlink">
<g id="graph0" class="graph" transform="scale(1 1) rotate(0) translate(4 270.887)">
<title>G</title>
<!-- 0 -->
<g id="node1" class="node"><title>0</title>
<ellipse fill="cadetblue" stroke="black" cx="143.452" cy="-21.2132" rx="21.4286" ry="21.4286"/>
<text text-anchor="middle" x="143.452" y="-16.2132" font-family="Times New Roman,serif" font-size="20.00">2</text>
</g>
<!-- 4 -->
<g id="node5" class="node"><title>4</title>
<ellipse fill="cadetblue" stroke="black" cx="240.608" cy="-144.027" rx="21.4286" ry="21.4286"/>
<text text-anchor="middle" x="240.608" y="-139.027" font-family="Times New Roman,serif" font-size="20.00">2</text>
</g>
<!-- 0&#45;&gt;4 -->
<g id="edge2" class="edge"><title>0&#45;&gt;4</title>
<path fill="none" stroke="black" stroke-width="2" d="M156.758,-38.0325C173.308,-58.9531 201.708,-94.8542 220.815,-119.007"/>
<polygon fill="black" stroke="black" stroke-width="2" points="218.202,-121.346 227.152,-127.017 223.692,-117.003 218.202,-121.346"/>
</g>
<!-- 6 -->
<g id="node7" class="node"><title>6</title>
<ellipse fill="cadetblue" stroke="black" cx="162.814" cy="-114.806" rx="21.4286" ry="21.4286"/>
<text text-anchor="middle" x="162.814" y="-109.806" font-family="Times New Roman,serif" font-size="20.00">2</text>
</g>
<!-- 0&#45;&gt;6 -->
<g id="edge3" class="edge"><title>0&#45;&gt;6</title>
<path fill="none" stroke="black" stroke-width="2" d="M147.846,-42.4507C150.389,-54.7424 153.633,-70.4277 156.451,-84.0499"/>
<polygon fill="black" stroke="black" stroke-width="2" points="153.051,-84.8908 158.505,-93.9744 159.906,-83.4727 153.051,-84.8908"/>
</g>
<!-- 1 -->
<g id="node2" class="node"><title>1</title>
<ellipse fill="cadetblue" stroke="black" cx="185.751" cy="-244.115" rx="21.4286" ry="21.4286"/>
<text text-anchor="middle" x="185.751" y="-239.115" font-family="Times New Roman,serif" font-size="20.00">2</text>
</g>
<!-- 5 -->
<g id="node6" class="node"><title>5</title>
<ellipse fill="cadetblue" stroke="black" cx="21.2132" cy="-241.002" rx="21.4286" ry="21.4286"/>
<text text-anchor="middle" x="21.2132" y="-236.002" font-family="Times New Roman,serif" font-size="20.00">2</text>
</g>
<!-- 1&#45;&gt;5 -->
<g id="edge6" class="edge"><title>1&#45;&gt;5</title>
<path fill="none" stroke="black" stroke-width="2" d="M167.594,-232.612C156.975,-226.802 143.045,-220.702 129.577,-219.37 102.713,-216.713 72.641,-223.513 51.0043,-230.176"/>
<polygon fill="black" stroke="black" stroke-width="2" points="49.8354,-226.875 41.4054,-233.293 51.9975,-233.533 49.8354,-226.875"/>
</g>
<!-- 1&#45;&gt;6 -->
<g id="edge7" class="edge"><title>1&#45;&gt;6</title>
<path fill="none" stroke="black" stroke-width="2" d="M182.014,-223.051C178.299,-202.105 172.557,-169.733 168.319,-145.844"/>
<polygon fill="black" stroke="black" stroke-width="2" points="171.741,-145.095 166.549,-135.86 164.849,-146.318 171.741,-145.095"/>
</g>
<!-- 2 -->
<g id="node3" class="node"><title>2</title>
<ellipse fill="cadetblue" stroke="black" cx="129.538" cy="-245.674" rx="21.4286" ry="21.4286"/>
<text text-anchor="middle" x="129.538" y="-240.674" font-family="Times New Roman,serif" font-size="20.00">2</text>
</g>
<!-- 2&#45;&gt;5 -->
<g id="edge10" class="edge"><title>2&#45;&gt;5</title>
<path fill="none" stroke="black" stroke-width="2" d="M108.137,-244.751C92.3357,-244.069 70.5761,-243.131 52.7812,-242.363"/>
<polygon fill="black" stroke="black" stroke-width="2" points="52.7119,-238.857 42.5703,-241.923 52.4101,-245.851 52.7119,-238.857"/>
</g>
<!-- 7 -->
<g id="node8" class="node"><title>7</title>
<ellipse fill="cadetblue" stroke="black" cx="112.382" cy="-138.967" rx="21.4286" ry="21.4286"/>
<text text-anchor="middle" x="112.382" y="-133.967" font-family="Times New Roman,serif" font-size="20.00">2</text>
</g>
<!-- 2&#45;&gt;7 -->
<g id="edge12" class="edge"><title>2&#45;&gt;7</title>
<path fill="none" stroke="black" stroke-width="2" d="M126.149,-224.592C123.658,-209.1 120.233,-187.794 117.422,-170.311"/>
<polygon fill="black" stroke="black" stroke-width="2" points="120.808,-169.323 115.765,-160.005 113.897,-170.434 120.808,-169.323"/>
</g>
<!-- 3 -->
<g id="node4" class="node"><title>3</title>
<ellipse fill="cadetblue" stroke="black" cx="22.543" cy="-89.3788" rx="21.4286" ry="21.4286"/>
<text text-anchor="middle" x="22.543" y="-84.3788" font-family="Times New Roman,serif" font-size="20.00">2</text>
</g>
<!-- 3&#45;&gt;0 -->
<g id="edge1" class="edge"><title>3&#45;&gt;0</title>
<path fill="none" stroke="black" stroke-width="2" d="M41.1701,-78.8773C61.0816,-67.6517 92.8668,-49.732 115.721,-36.8472"/>
<polygon fill="black" stroke="black" stroke-width="2" points="117.613,-39.7989 124.605,-31.8389 114.175,-33.7012 117.613,-39.7989"/>
</g>
<!-- 3&#45;&gt;7 -->
<g id="edge15" class="edge"><title>3&#45;&gt;7</title>
<path fill="none" stroke="black" stroke-width="2" d="M41.1578,-99.6536C53.806,-106.635 70.7502,-115.988 84.9385,-123.819"/>
<polygon fill="black" stroke="black" stroke-width="2" points="83.3453,-126.937 93.7915,-128.706 86.728,-120.809 83.3453,-126.937"/>
</g>
<!-- 4&#45;&gt;1 -->
<g id="edge5" class="edge"><title>4&#45;&gt;1</title>
<path fill="none" stroke="black" stroke-width="2" d="M230.29,-162.853C222.015,-177.951 210.28,-199.361 200.933,-216.415"/>
<polygon fill="black" stroke="black" stroke-width="2" points="197.76,-214.922 196.023,-225.373 203.898,-218.286 197.76,-214.922"/>
</g>
<!-- 4&#45;&gt;2 -->
<g id="edge9" class="edge"><title>4&#45;&gt;2</title>
<path fill="none" stroke="black" stroke-width="2" d="M224.695,-158.591C205.89,-175.8 174.438,-204.584 152.877,-224.316"/>
<polygon fill="black" stroke="black" stroke-width="2" points="150.437,-221.804 145.422,-231.138 155.162,-226.968 150.437,-221.804"/>
</g>
<!-- 5&#45;&gt;3 -->
<g id="edge13" class="edge"><title>5&#45;&gt;3</title>
<path fill="none" stroke="black" stroke-width="2" d="M21.4009,-219.599C21.6266,-193.863 22.0074,-150.444 22.2668,-120.879"/>
<polygon fill="black" stroke="black" stroke-width="2" points="25.7683,-120.703 22.3563,-110.672 18.7686,-120.641 25.7683,-120.703"/>
</g>
<!-- 6&#45;&gt;2 -->
<g id="edge11" class="edge"><title>6&#45;&gt;2</title>
<path fill="none" stroke="black" stroke-width="2" d="M157.541,-135.542C152.089,-156.984 143.519,-190.691 137.294,-215.171"/>
<polygon fill="black" stroke="black" stroke-width="2" points="133.859,-214.48 134.786,-225.035 140.643,-216.205 133.859,-214.48"/>
</g>
<!-- 6&#45;&gt;3 -->
<g id="edge14" class="edge"><title>6&#45;&gt;3</title>
<path fill="none" stroke="black" stroke-width="2" d="M141.814,-110.999C118.469,-106.767 80.528,-99.8897 53.7156,-95.0294"/>
<polygon fill="black" stroke="black" stroke-width="2" points="54.1505,-91.5513 43.6866,-93.2114 52.9019,-98.439 54.1505,-91.5513"/>
</g>
<!-- 7&#45;&gt;0 -->
<g id="edge4" class="edge"><title>7&#45;&gt;0</title>
<path fill="none" stroke="black" stroke-width="2" d="M117.866,-118.186C122.746,-99.6889 129.946,-72.4 135.467,-51.4789"/>
<polygon fill="black" stroke="black" stroke-width="2" points="138.857,-52.3485 138.024,-41.7865 132.088,-50.5626 138.857,-52.3485"/>
</g>
<!-- 7&#45;&gt;1 -->
<g id="edge8" class="edge"><title>7&#45;&gt;1</title>
<path fill="none" stroke="black" stroke-width="2" d="M124.828,-156.804C136.599,-173.673 154.396,-199.178 167.719,-218.273"/>
<polygon fill="black" stroke="black" stroke-width="2" points="164.896,-220.343 173.489,-226.541 170.637,-216.337 164.896,-220.343"/>
</g>
<!-- 7&#45;&gt;4 -->
<g id="edge16" class="edge"><title>7&#45;&gt;4</title>
<path fill="none" stroke="black" stroke-width="2" d="M133.964,-139.909C142.885,-140.291 153.332,-140.732 162.783,-141.11 177.962,-141.717 194.809,-142.353 208.936,-142.876"/>
<polygon fill="black" stroke="black" stroke-width="2" points="209.013,-146.381 219.135,-143.251 209.271,-139.386 209.013,-146.381"/>
</g>
</g>
</svg>

