<?xml version="1.0" encoding="UTF-8" standalone="no"?>
<!DOCTYPE svg PUBLIC "-//W3C//DTD SVG 1.1//EN"
 "http://www.w3.org/Graphics/SVG/1.1/DTD/svg11.dtd">
<!-- Generated by graphviz version 2.36.0 (20140111.2315)
 -->
<!-- Title: G Pages: 1 -->
<svg width="100%" height="100%"
 viewBox="0.00 0.00 230.90 224.34" xmlns="http://www.w3.org/2000/svg" xmlns:xlink="http://www.w3.org/1999/xlink">
<g id="graph0" class="graph" transform="scale(1 1) rotate(0) translate(4 220.336)">
<title>G</title>
<!-- 0 -->
<g id="node1" class="node"><title>0</title>
<ellipse fill="cadetblue" stroke="black" cx="96.4986" cy="-71.6447" rx="21.4286" ry="21.4286"/>
<text text-anchor="middle" x="96.4986" y="-66.6447" font-family="Times New Roman,serif" font-size="20.00">2</text>
</g>
<!-- 5 -->
<g id="node6" class="node"><title>5</title>
<ellipse fill="cadetblue" stroke="black" cx="21.2132" cy="-113.395" rx="21.4286" ry="21.4286"/>
<text text-anchor="middle" x="21.2132" y="-108.395" font-family="Times New Roman,serif" font-size="20.00">2</text>
</g>
<!-- 0&#45;&gt;5 -->
<g id="edge3" class="edge"><title>0&#45;&gt;5</title>
<path fill="none" stroke="black" stroke-width="2" d="M77.8887,-81.9651C69.1113,-86.8327 58.4604,-92.7393 48.7717,-98.1124"/>
<polygon fill="black" stroke="black" stroke-width="2" points="46.9177,-95.1383 39.8699,-103.049 50.3126,-101.26 46.9177,-95.1383"/>
</g>
<!-- 6 -->
<g id="node7" class="node"><title>6</title>
<ellipse fill="brown" stroke="black" cx="201.687" cy="-55.8458" rx="21.4286" ry="21.4286"/>
<text text-anchor="middle" x="201.687" y="-50.8458" font-family="Times New Roman,serif" font-size="20.00">3</text>
</g>
<!-- 0&#45;&gt;6 -->
<g id="edge4" class="edge"><title>0&#45;&gt;6</title>
<path fill="none" stroke="black" stroke-width="2" d="M117.532,-68.4855C132.725,-66.2036 153.494,-63.0843 170.597,-60.5154"/>
<polygon fill="black" stroke="black" stroke-width="2" points="171.321,-63.946 180.69,-58.9995 170.281,-57.0237 171.321,-63.946"/>
</g>
<!-- 1 -->
<g id="node2" class="node"><title>1</title>
<ellipse fill="cadetblue" stroke="black" cx="151.331" cy="-182.196" rx="21.4286" ry="21.4286"/>
<text text-anchor="middle" x="151.331" y="-177.196" font-family="Times New Roman,serif" font-size="20.00">2</text>
</g>
<!-- 1&#45;&gt;6 -->
<g id="edge7" class="edge"><title>1&#45;&gt;6</title>
<path fill="none" stroke="black" stroke-width="2" d="M165.595,-165.981C172.577,-157.542 180.774,-146.834 186.896,-136.424 195.565,-121.681 199.353,-103.009 200.934,-87.3525"/>
<polygon fill="black" stroke="black" stroke-width="2" points="204.446,-87.3152 201.708,-77.0804 197.466,-86.7891 204.446,-87.3152"/>
</g>
<!-- 7 -->
<g id="node8" class="node"><title>7</title>
<ellipse fill="cadetblue" stroke="black" cx="81.8785" cy="-129.531" rx="21.4286" ry="21.4286"/>
<text text-anchor="middle" x="81.8785" y="-124.531" font-family="Times New Roman,serif" font-size="20.00">2</text>
</g>
<!-- 1&#45;&gt;7 -->
<g id="edge8" class="edge"><title>1&#45;&gt;7</title>
<path fill="none" stroke="black" stroke-width="2" d="M134.163,-169.178C125.92,-162.928 115.887,-155.32 106.822,-148.446"/>
<polygon fill="black" stroke="black" stroke-width="2" points="108.932,-145.653 98.849,-142.4 104.702,-151.231 108.932,-145.653"/>
</g>
<!-- 2 -->
<g id="node3" class="node"><title>2</title>
<ellipse fill="cadetblue" stroke="black" cx="102.975" cy="-21.2132" rx="21.4286" ry="21.4286"/>
<text text-anchor="middle" x="102.975" y="-16.2132" font-family="Times New Roman,serif" font-size="20.00">2</text>
</g>
<!-- 4 -->
<g id="node5" class="node"><title>4</title>
<ellipse fill="cadetblue" stroke="black" cx="168.48" cy="-117.641" rx="21.4286" ry="21.4286"/>
<text text-anchor="middle" x="168.48" y="-112.641" font-family="Times New Roman,serif" font-size="20.00">2</text>
</g>
<!-- 2&#45;&gt;4 -->
<g id="edge9" class="edge"><title>2&#45;&gt;4</title>
<path fill="none" stroke="black" stroke-width="2" d="M114.99,-38.8995C124.962,-53.5796 139.292,-74.6741 150.611,-91.3353"/>
<polygon fill="black" stroke="black" stroke-width="2" points="148.027,-93.7615 156.542,-100.067 153.818,-89.828 148.027,-93.7615"/>
</g>
<!-- 2&#45;&gt;7 -->
<g id="edge12" class="edge"><title>2&#45;&gt;7</title>
<path fill="none" stroke="black" stroke-width="2" d="M87.5579,-36.4428C79.687,-45.7199 71.4918,-58.3217 70.1942,-71.6206 69.3065,-80.7186 70.4531,-90.5008 72.3251,-99.3881"/>
<polygon fill="black" stroke="black" stroke-width="2" points="68.9813,-100.447 74.7775,-109.315 75.777,-98.7677 68.9813,-100.447"/>
</g>
<!-- 3 -->
<g id="node4" class="node"><title>3</title>
<ellipse fill="brown" stroke="black" cx="73.3138" cy="-195.123" rx="21.4286" ry="21.4286"/>
<text text-anchor="middle" x="73.3138" y="-190.123" font-family="Times New Roman,serif" font-size="20.00">3</text>
</g>
<!-- 3&#45;&gt;0 -->
<g id="edge1" class="edge"><title>3&#45;&gt;0</title>
<path fill="none" stroke="black" stroke-width="2" d="M86.8466,-178.53C95.8783,-165.947 106.413,-147.76 108.183,-129.533 109.066,-120.438 107.918,-110.659 106.046,-101.775"/>
<polygon fill="black" stroke="black" stroke-width="2" points="109.391,-100.721 103.594,-91.8522 102.595,-102.4 109.391,-100.721"/>
</g>
<!-- 3&#45;&gt;1 -->
<g id="edge5" class="edge"><title>3&#45;&gt;1</title>
<path fill="none" stroke="black" stroke-width="2" d="M94.6322,-191.591C102.523,-190.283 111.638,-188.773 120.221,-187.351"/>
<polygon fill="black" stroke="black" stroke-width="2" points="121.015,-190.767 130.308,-185.68 119.87,-183.861 121.015,-190.767"/>
</g>
<!-- 4&#45;&gt;0 -->
<g id="edge2" class="edge"><title>4&#45;&gt;0</title>
<path fill="none" stroke="black" stroke-width="2" d="M150.316,-106.034C142.07,-100.765 132.153,-94.4278 123.091,-88.6372"/>
<polygon fill="black" stroke="black" stroke-width="2" points="124.719,-85.5237 114.407,-83.0884 120.949,-91.4223 124.719,-85.5237"/>
</g>
<!-- 4&#45;&gt;3 -->
<g id="edge13" class="edge"><title>4&#45;&gt;3</title>
<path fill="none" stroke="black" stroke-width="2" d="M151.904,-131.137C136.984,-143.284 114.862,-161.296 97.8859,-175.117"/>
<polygon fill="black" stroke="black" stroke-width="2" points="95.5648,-172.493 90.0199,-181.521 99.9845,-177.922 95.5648,-172.493"/>
</g>
<!-- 4&#45;&gt;6 -->
<g id="edge16" class="edge"><title>4&#45;&gt;6</title>
<path fill="none" stroke="black" stroke-width="2" d="M178.624,-98.7645C181.199,-93.9728 184.019,-88.7242 186.777,-83.5927"/>
<polygon fill="black" stroke="black" stroke-width="2" points="189.955,-85.072 191.606,-74.6065 183.789,-81.7585 189.955,-85.072"/>
</g>
<!-- 5&#45;&gt;1 -->
<g id="edge6" class="edge"><title>5&#45;&gt;1</title>
<path fill="none" stroke="black" stroke-width="2" d="M36.7476,-128.118C44.3438,-134.805 53.8631,-142.468 63.2776,-148.131 81.3599,-159.006 103.523,-167.559 121.09,-173.374"/>
<polygon fill="black" stroke="black" stroke-width="2" points="120.245,-176.778 130.836,-176.478 122.37,-170.108 120.245,-176.778"/>
</g>
<!-- 5&#45;&gt;2 -->
<g id="edge10" class="edge"><title>5&#45;&gt;2</title>
<path fill="none" stroke="black" stroke-width="2" d="M35.4551,-97.3385C48.3516,-82.7983 67.5129,-61.1951 82.1321,-44.7127"/>
<polygon fill="black" stroke="black" stroke-width="2" points="84.8795,-46.8898 88.8966,-37.0861 79.6426,-42.2449 84.8795,-46.8898"/>
</g>
<!-- 5&#45;&gt;3 -->
<g id="edge14" class="edge"><title>5&#45;&gt;3</title>
<path fill="none" stroke="black" stroke-width="2" d="M32.776,-131.533C39.6562,-142.326 48.5133,-156.22 56.1927,-168.266"/>
<polygon fill="black" stroke="black" stroke-width="2" points="53.4564,-170.485 61.7833,-177.036 59.3591,-166.722 53.4564,-170.485"/>
</g>
<!-- 6&#45;&gt;2 -->
<g id="edge11" class="edge"><title>6&#45;&gt;2</title>
<path fill="none" stroke="black" stroke-width="2" d="M181.234,-48.6699C167.244,-43.7616 148.471,-37.1751 132.818,-31.6834"/>
<polygon fill="black" stroke="black" stroke-width="2" points="133.659,-28.2695 123.065,-28.2614 131.342,-34.8747 133.659,-28.2695"/>
</g>
<!-- 7&#45;&gt;3 -->
<g id="edge15" class="edge"><title>7&#45;&gt;3</title>
<path fill="none" stroke="black" stroke-width="2" d="M79.1214,-150.646C78.5713,-154.859 77.9825,-159.368 77.3986,-163.84"/>
<polygon fill="black" stroke="black" stroke-width="2" points="73.89,-163.679 76.0657,-174.048 80.8311,-164.585 73.89,-163.679"/>
</g>
<!-- 7&#45;&gt;4 -->
<g id="edge17" class="edge"><title>7&#45;&gt;4</title>
<path fill="none" stroke="black" stroke-width="2" d="M103.286,-126.592C113.563,-125.181 126.074,-123.463 137.377,-121.911"/>
<polygon fill="black" stroke="black" stroke-width="2" points="137.888,-125.374 147.319,-120.546 136.936,-118.439 137.888,-125.374"/>
</g>
<!-- 7&#45;&gt;5 -->
<g id="edge18" class="edge"><title>7&#45;&gt;5</title>
<path fill="none" stroke="black" stroke-width="2" d="M61.34,-124.069C58.1776,-123.227 54.8561,-122.344 51.5347,-121.46"/>
<polygon fill="black" stroke="black" stroke-width="2" points="52.2942,-118.041 41.7306,-118.853 50.4948,-124.806 52.2942,-118.041"/>
</g>
</g>
</svg>

