<?xml version="1.0" encoding="UTF-8" standalone="no"?>
<!DOCTYPE svg PUBLIC "-//W3C//DTD SVG 1.1//EN"
 "http://www.w3.org/Graphics/SVG/1.1/DTD/svg11.dtd">
<!-- Generated by graphviz version 2.36.0 (20140111.2315)
 -->
<!-- Title: G Pages: 1 -->
<svg width="100%" height="100%"
 viewBox="0.00 0.00 280.49 248.84" xmlns="http://www.w3.org/2000/svg" xmlns:xlink="http://www.w3.org/1999/xlink">
<g id="graph0" class="graph" transform="scale(1 1) rotate(0) translate(4 244.835)">
<title>G</title>
<!-- 0 -->
<g id="node1" class="node"><title>0</title>
<ellipse fill="cadetblue" stroke="black" cx="100.56" cy="-219.622" rx="21.4286" ry="21.4286"/>
<text text-anchor="middle" x="100.56" y="-214.622" font-family="Times New Roman,serif" font-size="20.00">2</text>
</g>
<!-- 5 -->
<g id="node6" class="node"><title>5</title>
<ellipse fill="cadetblue" stroke="black" cx="132.759" cy="-113.869" rx="21.4286" ry="21.4286"/>
<text text-anchor="middle" x="132.759" y="-108.869" font-family="Times New Roman,serif" font-size="20.00">2</text>
</g>
<!-- 0&#45;&gt;5 -->
<g id="edge3" class="edge"><title>0&#45;&gt;5</title>
<path fill="none" stroke="black" stroke-width="2" d="M106.768,-199.232C111.534,-183.577 118.189,-161.721 123.572,-144.043"/>
<polygon fill="black" stroke="black" stroke-width="2" points="127.005,-144.782 126.57,-134.196 120.309,-142.743 127.005,-144.782"/>
</g>
<!-- 6 -->
<g id="node7" class="node"><title>6</title>
<ellipse fill="cadetblue" stroke="black" cx="150.276" cy="-164.3" rx="21.4286" ry="21.4286"/>
<text text-anchor="middle" x="150.276" y="-159.3" font-family="Times New Roman,serif" font-size="20.00">2</text>
</g>
<!-- 0&#45;&gt;6 -->
<g id="edge4" class="edge"><title>0&#45;&gt;6</title>
<path fill="none" stroke="black" stroke-width="2" d="M114.94,-203.62C119.333,-198.732 124.26,-193.249 129.009,-187.965"/>
<polygon fill="black" stroke="black" stroke-width="2" points="131.675,-190.234 135.756,-180.457 126.469,-185.555 131.675,-190.234"/>
</g>
<!-- 7 -->
<g id="node8" class="node"><title>7</title>
<ellipse fill="brown" stroke="black" cx="60.5683" cy="-97.3453" rx="21.4286" ry="21.4286"/>
<text text-anchor="middle" x="60.5683" y="-92.3453" font-family="Times New Roman,serif" font-size="20.00">3</text>
</g>
<!-- 0&#45;&gt;7 -->
<g id="edge5" class="edge"><title>0&#45;&gt;7</title>
<path fill="none" stroke="black" stroke-width="2" d="M93.9559,-199.43C87.5302,-179.784 77.6899,-149.696 70.3546,-127.268"/>
<polygon fill="black" stroke="black" stroke-width="2" points="73.6171,-125.983 67.1818,-117.567 66.9638,-128.159 73.6171,-125.983"/>
</g>
<!-- 1 -->
<g id="node2" class="node"><title>1</title>
<ellipse fill="cadetblue" stroke="black" cx="251.273" cy="-203.428" rx="21.4286" ry="21.4286"/>
<text text-anchor="middle" x="251.273" y="-198.428" font-family="Times New Roman,serif" font-size="20.00">2</text>
</g>
<!-- 1&#45;&gt;6 -->
<g id="edge8" class="edge"><title>1&#45;&gt;6</title>
<path fill="none" stroke="black" stroke-width="2" d="M231.32,-195.698C216.657,-190.017 196.49,-182.204 179.942,-175.793"/>
<polygon fill="black" stroke="black" stroke-width="2" points="180.777,-172.363 170.188,-172.014 178.249,-178.891 180.777,-172.363"/>
</g>
<!-- 2 -->
<g id="node3" class="node"><title>2</title>
<ellipse fill="cadetblue" stroke="black" cx="190.532" cy="-21.2132" rx="21.4286" ry="21.4286"/>
<text text-anchor="middle" x="190.532" y="-16.2132" font-family="Times New Roman,serif" font-size="20.00">2</text>
</g>
<!-- 4 -->
<g id="node5" class="node"><title>4</title>
<ellipse fill="cadetblue" stroke="black" cx="211.131" cy="-115.161" rx="21.4286" ry="21.4286"/>
<text text-anchor="middle" x="211.131" y="-110.161" font-family="Times New Roman,serif" font-size="20.00">2</text>
</g>
<!-- 2&#45;&gt;4 -->
<g id="edge9" class="edge"><title>2&#45;&gt;4</title>
<path fill="none" stroke="black" stroke-width="2" d="M195.103,-42.0633C197.823,-54.4697 201.325,-70.4408 204.362,-84.2883"/>
<polygon fill="black" stroke="black" stroke-width="2" points="201.011,-85.351 206.572,-94.3694 207.849,-83.8518 201.011,-85.351"/>
</g>
<!-- 3 -->
<g id="node4" class="node"><title>3</title>
<ellipse fill="cadetblue" stroke="black" cx="21.2132" cy="-178.358" rx="21.4286" ry="21.4286"/>
<text text-anchor="middle" x="21.2132" y="-173.358" font-family="Times New Roman,serif" font-size="20.00">2</text>
</g>
<!-- 3&#45;&gt;0 -->
<g id="edge1" class="edge"><title>3&#45;&gt;0</title>
<path fill="none" stroke="black" stroke-width="2" d="M40.4208,-188.347C50.0696,-193.365 61.9424,-199.539 72.5827,-205.073"/>
<polygon fill="black" stroke="black" stroke-width="2" points="71.0421,-208.216 81.529,-209.725 74.2718,-202.006 71.0421,-208.216"/>
</g>
<!-- 3&#45;&gt;7 -->
<g id="edge14" class="edge"><title>3&#45;&gt;7</title>
<path fill="none" stroke="black" stroke-width="2" d="M30.5398,-159.159C35.3568,-149.243 41.3307,-136.946 46.6786,-125.937"/>
<polygon fill="black" stroke="black" stroke-width="2" points="49.9508,-127.211 51.1722,-116.687 43.6544,-124.153 49.9508,-127.211"/>
</g>
<!-- 4&#45;&gt;0 -->
<g id="edge2" class="edge"><title>4&#45;&gt;0</title>
<path fill="none" stroke="black" stroke-width="2" d="M202.452,-134.577C195.138,-149.26 183.523,-169.173 168.854,-182.922 157.663,-193.411 142.903,-201.834 129.969,-207.952"/>
<polygon fill="black" stroke="black" stroke-width="2" points="128.222,-204.899 120.523,-212.177 131.081,-211.289 128.222,-204.899"/>
</g>
<!-- 4&#45;&gt;1 -->
<g id="edge6" class="edge"><title>4&#45;&gt;1</title>
<path fill="none" stroke="black" stroke-width="2" d="M220.04,-134.751C225.341,-146.407 232.165,-161.412 238.082,-174.422"/>
<polygon fill="black" stroke="black" stroke-width="2" points="235.064,-176.24 242.389,-183.894 241.436,-173.342 235.064,-176.24"/>
</g>
<!-- 5&#45;&gt;1 -->
<g id="edge7" class="edge"><title>5&#45;&gt;1</title>
<path fill="none" stroke="black" stroke-width="2" d="M149.74,-126.7C169.717,-141.797 203.071,-167.002 226.068,-184.381"/>
<polygon fill="black" stroke="black" stroke-width="2" points="224.236,-187.384 234.325,-190.62 228.457,-181.799 224.236,-187.384"/>
</g>
<!-- 5&#45;&gt;2 -->
<g id="edge10" class="edge"><title>5&#45;&gt;2</title>
<path fill="none" stroke="black" stroke-width="2" d="M144.173,-95.5628C152.64,-81.984 164.314,-63.2607 173.829,-48.0005"/>
<polygon fill="black" stroke="black" stroke-width="2" points="176.82,-49.8184 179.141,-39.4809 170.88,-46.1147 176.82,-49.8184"/>
</g>
<!-- 5&#45;&gt;3 -->
<g id="edge12" class="edge"><title>5&#45;&gt;3</title>
<path fill="none" stroke="black" stroke-width="2" d="M114.34,-124.518C96.417,-134.88 68.9697,-150.748 48.5097,-162.577"/>
<polygon fill="black" stroke="black" stroke-width="2" points="46.5656,-159.658 39.6602,-167.693 50.0693,-165.718 46.5656,-159.658"/>
</g>
<!-- 6&#45;&gt;2 -->
<g id="edge11" class="edge"><title>6&#45;&gt;2</title>
<path fill="none" stroke="black" stroke-width="2" d="M156.044,-143.799C162.829,-119.68 174.159,-79.4103 181.97,-51.6453"/>
<polygon fill="black" stroke="black" stroke-width="2" points="185.435,-52.2502 184.775,-41.676 178.697,-50.3544 185.435,-52.2502"/>
</g>
<!-- 6&#45;&gt;3 -->
<g id="edge13" class="edge"><title>6&#45;&gt;3</title>
<path fill="none" stroke="black" stroke-width="2" d="M128.964,-166.621C108.227,-168.88 76.4692,-172.339 52.7962,-174.918"/>
<polygon fill="black" stroke="black" stroke-width="2" points="52.1191,-171.471 42.557,-176.033 52.8772,-178.43 52.1191,-171.471"/>
</g>
<!-- 6&#45;&gt;7 -->
<g id="edge17" class="edge"><title>6&#45;&gt;7</title>
<path fill="none" stroke="black" stroke-width="2" d="M132.979,-151.39C119.7,-141.479 101.16,-127.642 86.1647,-116.45"/>
<polygon fill="black" stroke="black" stroke-width="2" points="87.9192,-113.392 77.8117,-110.215 83.7322,-119.001 87.9192,-113.392"/>
</g>
<!-- 7&#45;&gt;4 -->
<g id="edge15" class="edge"><title>7&#45;&gt;4</title>
<path fill="none" stroke="black" stroke-width="2" d="M81.0972,-91.957C95.5481,-88.8044 115.36,-85.7663 132.877,-87.5644 149.993,-89.3214 168.171,-95.446 182.695,-101.48"/>
<polygon fill="black" stroke="black" stroke-width="2" points="181.544,-104.796 192.109,-105.589 184.344,-98.3807 181.544,-104.796"/>
</g>
<!-- 7&#45;&gt;5 -->
<g id="edge16" class="edge"><title>7&#45;&gt;5</title>
<path fill="none" stroke="black" stroke-width="2" d="M81.4489,-102.125C87.828,-103.585 94.9831,-105.222 101.879,-106.801"/>
<polygon fill="black" stroke="black" stroke-width="2" points="101.147,-110.223 111.676,-109.043 102.709,-103.4 101.147,-110.223"/>
</g>
</g>
</svg>

