<?xml version="1.0" encoding="UTF-8" standalone="no"?>
<!DOCTYPE svg PUBLIC "-//W3C//DTD SVG 1.1//EN"
 "http://www.w3.org/Graphics/SVG/1.1/DTD/svg11.dtd">
<!-- Generated by graphviz version 2.36.0 (20140111.2315)
 -->
<!-- Title: G Pages: 1 -->
<svg width="100%" height="100%"
 viewBox="0.00 0.00 285.50 238.60" xmlns="http://www.w3.org/2000/svg" xmlns:xlink="http://www.w3.org/1999/xlink">
<g id="graph0" class="graph" transform="scale(1 1) rotate(0) translate(4 234.601)">
<title>G</title>
<!-- 0 -->
<g id="node1" class="node"><title>0</title>
<ellipse fill="cadetblue" stroke="black" cx="210.979" cy="-209.388" rx="21.4286" ry="21.4286"/>
<text text-anchor="middle" x="210.979" y="-204.388" font-family="Times New Roman,serif" font-size="20.00">2</text>
</g>
<!-- 6 -->
<g id="node7" class="node"><title>6</title>
<ellipse fill="cadetblue" stroke="black" cx="206.541" cy="-137.944" rx="21.4286" ry="21.4286"/>
<text text-anchor="middle" x="206.541" y="-132.944" font-family="Times New Roman,serif" font-size="20.00">2</text>
</g>
<!-- 0&#45;&gt;6 -->
<g id="edge3" class="edge"><title>0&#45;&gt;6</title>
<path fill="none" stroke="black" stroke-width="2" d="M209.648,-187.952C209.288,-182.16 208.891,-175.767 208.504,-169.543"/>
<polygon fill="black" stroke="black" stroke-width="2" points="211.985,-169.128 207.872,-159.365 204.998,-169.562 211.985,-169.128"/>
</g>
<!-- 7 -->
<g id="node8" class="node"><title>7</title>
<ellipse fill="brown" stroke="black" cx="138.443" cy="-107.936" rx="21.4286" ry="21.4286"/>
<text text-anchor="middle" x="138.443" y="-102.936" font-family="Times New Roman,serif" font-size="20.00">3</text>
</g>
<!-- 0&#45;&gt;7 -->
<g id="edge4" class="edge"><title>0&#45;&gt;7</title>
<path fill="none" stroke="black" stroke-width="2" d="M198.344,-191.716C186.903,-175.714 169.904,-151.938 156.934,-133.799"/>
<polygon fill="black" stroke="black" stroke-width="2" points="159.597,-131.504 150.933,-125.405 153.902,-135.575 159.597,-131.504"/>
</g>
<!-- 1 -->
<g id="node2" class="node"><title>1</title>
<ellipse fill="cadetblue" stroke="black" cx="21.2132" cy="-149.809" rx="21.4286" ry="21.4286"/>
<text text-anchor="middle" x="21.2132" y="-144.809" font-family="Times New Roman,serif" font-size="20.00">2</text>
</g>
<!-- 1&#45;&gt;7 -->
<g id="edge7" class="edge"><title>1&#45;&gt;7</title>
<path fill="none" stroke="black" stroke-width="2" d="M41.3658,-142.61C59.9024,-135.989 87.6275,-126.087 108.708,-118.557"/>
<polygon fill="black" stroke="black" stroke-width="2" points="109.921,-121.84 118.161,-115.18 107.567,-115.248 109.921,-121.84"/>
</g>
<!-- 2 -->
<g id="node3" class="node"><title>2</title>
<ellipse fill="cadetblue" stroke="black" cx="171.996" cy="-21.2132" rx="21.4286" ry="21.4286"/>
<text text-anchor="middle" x="171.996" y="-16.2132" font-family="Times New Roman,serif" font-size="20.00">2</text>
</g>
<!-- 5 -->
<g id="node6" class="node"><title>5</title>
<ellipse fill="cadetblue" stroke="black" cx="60.3699" cy="-66.7373" rx="21.4286" ry="21.4286"/>
<text text-anchor="middle" x="60.3699" y="-61.7373" font-family="Times New Roman,serif" font-size="20.00">2</text>
</g>
<!-- 2&#45;&gt;5 -->
<g id="edge9" class="edge"><title>2&#45;&gt;5</title>
<path fill="none" stroke="black" stroke-width="2" d="M152.297,-29.2472C134.949,-36.3222 109.443,-46.7239 89.6965,-54.7772"/>
<polygon fill="black" stroke="black" stroke-width="2" points="88.1859,-51.6133 80.2481,-58.6305 90.8294,-58.095 88.1859,-51.6133"/>
</g>
<!-- 2&#45;&gt;7 -->
<g id="edge11" class="edge"><title>2&#45;&gt;7</title>
<path fill="none" stroke="black" stroke-width="2" d="M164.214,-41.3272C159.937,-52.3822 154.552,-66.2994 149.813,-78.5502"/>
<polygon fill="black" stroke="black" stroke-width="2" points="146.527,-77.342 146.183,-87.9312 153.056,-79.8679 146.527,-77.342"/>
</g>
<!-- 3 -->
<g id="node4" class="node"><title>3</title>
<ellipse fill="cadetblue" stroke="black" cx="102.223" cy="-199.004" rx="21.4286" ry="21.4286"/>
<text text-anchor="middle" x="102.223" y="-194.004" font-family="Times New Roman,serif" font-size="20.00">2</text>
</g>
<!-- 3&#45;&gt;0 -->
<g id="edge1" class="edge"><title>3&#45;&gt;0</title>
<path fill="none" stroke="black" stroke-width="2" d="M123.451,-201.031C139.47,-202.56 161.696,-204.682 179.742,-206.405"/>
<polygon fill="black" stroke="black" stroke-width="2" points="179.518,-209.9 189.805,-207.366 180.183,-202.932 179.518,-209.9"/>
</g>
<!-- 3&#45;&gt;1 -->
<g id="edge5" class="edge"><title>3&#45;&gt;1</title>
<path fill="none" stroke="black" stroke-width="2" d="M83.8408,-187.841C73.276,-181.425 59.8147,-173.251 48.0817,-166.125"/>
<polygon fill="black" stroke="black" stroke-width="2" points="49.887,-163.127 39.5229,-160.928 46.2535,-169.11 49.887,-163.127"/>
</g>
<!-- 4 -->
<g id="node5" class="node"><title>4</title>
<ellipse fill="cadetblue" stroke="black" cx="256.282" cy="-87.513" rx="21.4286" ry="21.4286"/>
<text text-anchor="middle" x="256.282" y="-82.513" font-family="Times New Roman,serif" font-size="20.00">2</text>
</g>
<!-- 4&#45;&gt;0 -->
<g id="edge2" class="edge"><title>4&#45;&gt;0</title>
<path fill="none" stroke="black" stroke-width="2" d="M248.801,-107.638C241.522,-127.22 230.375,-157.209 222.065,-179.564"/>
<polygon fill="black" stroke="black" stroke-width="2" points="218.675,-178.64 218.471,-189.233 225.236,-181.079 218.675,-178.64"/>
</g>
<!-- 4&#45;&gt;2 -->
<g id="edge8" class="edge"><title>4&#45;&gt;2</title>
<path fill="none" stroke="black" stroke-width="2" d="M239.226,-74.0962C227.036,-64.5079 210.444,-51.4565 196.794,-40.7188"/>
<polygon fill="black" stroke="black" stroke-width="2" points="198.764,-37.8154 188.74,-34.3837 194.436,-43.3172 198.764,-37.8154"/>
</g>
<!-- 5&#45;&gt;1 -->
<g id="edge6" class="edge"><title>5&#45;&gt;1</title>
<path fill="none" stroke="black" stroke-width="2" d="M51.2882,-86.0043C46.3814,-96.4141 40.2257,-109.473 34.7637,-121.061"/>
<polygon fill="black" stroke="black" stroke-width="2" points="31.4792,-119.82 30.3814,-130.358 37.811,-122.805 31.4792,-119.82"/>
</g>
<!-- 5&#45;&gt;3 -->
<g id="edge12" class="edge"><title>5&#45;&gt;3</title>
<path fill="none" stroke="black" stroke-width="2" d="M66.8178,-87.1142C73.7102,-108.896 84.7128,-143.667 92.624,-168.668"/>
<polygon fill="black" stroke="black" stroke-width="2" points="89.3452,-169.908 95.699,-178.386 96.019,-167.796 89.3452,-169.908"/>
</g>
<!-- 6&#45;&gt;2 -->
<g id="edge10" class="edge"><title>6&#45;&gt;2</title>
<path fill="none" stroke="black" stroke-width="2" d="M200.444,-117.344C195.018,-99.0072 187.013,-71.9554 180.875,-51.216"/>
<polygon fill="black" stroke="black" stroke-width="2" points="184.226,-50.2035 178.032,-41.6078 177.513,-52.1899 184.226,-50.2035"/>
</g>
<!-- 6&#45;&gt;3 -->
<g id="edge13" class="edge"><title>6&#45;&gt;3</title>
<path fill="none" stroke="black" stroke-width="2" d="M187.891,-148.861C171.647,-158.368 147.885,-172.277 129.505,-183.036"/>
<polygon fill="black" stroke="black" stroke-width="2" points="127.574,-180.11 120.712,-188.183 131.11,-186.152 127.574,-180.11"/>
</g>
<!-- 6&#45;&gt;4 -->
<g id="edge14" class="edge"><title>6&#45;&gt;4</title>
<path fill="none" stroke="black" stroke-width="2" d="M221.465,-122.813C225.498,-118.724 229.949,-114.212 234.282,-109.818"/>
<polygon fill="black" stroke="black" stroke-width="2" points="236.838,-112.211 241.369,-102.633 231.855,-107.295 236.838,-112.211"/>
</g>
<!-- 7&#45;&gt;4 -->
<g id="edge15" class="edge"><title>7&#45;&gt;4</title>
<path fill="none" stroke="black" stroke-width="2" d="M159.51,-104.285C177.746,-101.124 204.371,-96.5099 225.08,-92.9208"/>
<polygon fill="black" stroke="black" stroke-width="2" points="225.745,-96.3578 235,-91.2015 224.549,-89.4606 225.745,-96.3578"/>
</g>
<!-- 7&#45;&gt;5 -->
<g id="edge16" class="edge"><title>7&#45;&gt;5</title>
<path fill="none" stroke="black" stroke-width="2" d="M119.544,-97.963C110.215,-93.0402 98.7729,-87.0023 88.445,-81.5523"/>
<polygon fill="black" stroke="black" stroke-width="2" points="89.8435,-78.3329 79.3658,-76.7613 86.5765,-84.5239 89.8435,-78.3329"/>
</g>
<!-- 7&#45;&gt;6 -->
<g id="edge17" class="edge"><title>7&#45;&gt;6</title>
<path fill="none" stroke="black" stroke-width="2" d="M158.14,-116.616C164.263,-119.314 171.144,-122.346 177.753,-125.259"/>
<polygon fill="black" stroke="black" stroke-width="2" points="176.561,-128.558 187.124,-129.388 179.384,-122.153 176.561,-128.558"/>
</g>
</g>
</svg>

