<?xml version="1.0" encoding="UTF-8" standalone="no"?>
<!DOCTYPE svg PUBLIC "-//W3C//DTD SVG 1.1//EN"
 "http://www.w3.org/Graphics/SVG/1.1/DTD/svg11.dtd">
<!-- Generated by graphviz version 2.36.0 (20140111.2315)
 -->
<!-- Title: G Pages: 1 -->
<svg width="100%" height="100%"
 viewBox="0.00 0.00 277.79 250.66" xmlns="http://www.w3.org/2000/svg" xmlns:xlink="http://www.w3.org/1999/xlink">
<g id="graph0" class="graph" transform="scale(1 1) rotate(0) translate(4 246.659)">
<title>G</title>
<!-- 0 -->
<g id="node1" class="node"><title>0</title>
<ellipse fill="brown" stroke="black" cx="59.6954" cy="-71.6447" rx="21.4286" ry="21.4286"/>
<text text-anchor="middle" x="59.6954" y="-66.6447" font-family="Times New Roman,serif" font-size="20.00">3</text>
</g>
<!-- 5 -->
<g id="node6" class="node"><title>5</title>
<ellipse fill="cadetblue" stroke="black" cx="21.2132" cy="-161.023" rx="21.4286" ry="21.4286"/>
<text text-anchor="middle" x="21.2132" y="-156.023" font-family="Times New Roman,serif" font-size="20.00">2</text>
</g>
<!-- 0&#45;&gt;5 -->
<g id="edge3" class="edge"><title>0&#45;&gt;5</title>
<path fill="none" stroke="black" stroke-width="2" d="M51.155,-91.4807C46.0234,-103.399 39.4028,-118.776 33.6925,-132.039"/>
<polygon fill="black" stroke="black" stroke-width="2" points="30.4697,-130.674 29.7298,-141.243 36.8991,-133.442 30.4697,-130.674"/>
</g>
<!-- 7 -->
<g id="node8" class="node"><title>7</title>
<ellipse fill="cadetblue" stroke="black" cx="100.439" cy="-21.2132" rx="21.4286" ry="21.4286"/>
<text text-anchor="middle" x="100.439" y="-16.2132" font-family="Times New Roman,serif" font-size="20.00">2</text>
</g>
<!-- 0&#45;&gt;7 -->
<g id="edge5" class="edge"><title>0&#45;&gt;7</title>
<path fill="none" stroke="black" stroke-width="2" d="M73.0364,-55.1315C75.4733,-52.1152 78.0631,-48.9096 80.6407,-45.7191"/>
<polygon fill="black" stroke="black" stroke-width="2" points="83.3667,-47.9143 86.9286,-37.9361 77.9217,-43.5152 83.3667,-47.9143"/>
</g>
<!-- 1 -->
<g id="node2" class="node"><title>1</title>
<ellipse fill="cadetblue" stroke="black" cx="204.854" cy="-220.099" rx="21.4286" ry="21.4286"/>
<text text-anchor="middle" x="204.854" y="-215.099" font-family="Times New Roman,serif" font-size="20.00">2</text>
</g>
<!-- 4 -->
<g id="node5" class="node"><title>4</title>
<ellipse fill="brown" stroke="black" cx="248.581" cy="-93.1312" rx="21.4286" ry="21.4286"/>
<text text-anchor="middle" x="248.581" y="-88.1312" font-family="Times New Roman,serif" font-size="20.00">3</text>
</g>
<!-- 1&#45;&gt;4 -->
<g id="edge7" class="edge"><title>1&#45;&gt;4</title>
<path fill="none" stroke="black" stroke-width="2" d="M211.783,-199.98C218.905,-179.3 230.077,-146.859 238.244,-123.145"/>
<polygon fill="black" stroke="black" stroke-width="2" points="241.593,-124.171 241.54,-113.576 234.974,-121.891 241.593,-124.171"/>
</g>
<!-- 1&#45;&gt;5 -->
<g id="edge8" class="edge"><title>1&#45;&gt;5</title>
<path fill="none" stroke="black" stroke-width="2" d="M184.5,-213.551C152.234,-203.171 89.1551,-182.88 51.5448,-170.781"/>
<polygon fill="black" stroke="black" stroke-width="2" points="52.2502,-167.331 41.6588,-167.601 50.1066,-173.995 52.2502,-167.331"/>
</g>
<!-- 2 -->
<g id="node3" class="node"><title>2</title>
<ellipse fill="cadetblue" stroke="black" cx="168.846" cy="-169.557" rx="21.4286" ry="21.4286"/>
<text text-anchor="middle" x="168.846" y="-164.557" font-family="Times New Roman,serif" font-size="20.00">2</text>
</g>
<!-- 3 -->
<g id="node4" class="node"><title>3</title>
<ellipse fill="brown" stroke="black" cx="71.728" cy="-221.446" rx="21.4286" ry="21.4286"/>
<text text-anchor="middle" x="71.728" y="-216.446" font-family="Times New Roman,serif" font-size="20.00">3</text>
</g>
<!-- 2&#45;&gt;3 -->
<g id="edge10" class="edge"><title>2&#45;&gt;3</title>
<path fill="none" stroke="black" stroke-width="2" d="M150.121,-179.562C135.837,-187.193 115.93,-197.829 99.7516,-206.473"/>
<polygon fill="black" stroke="black" stroke-width="2" points="97.898,-203.495 90.7273,-211.295 101.197,-209.669 97.898,-203.495"/>
</g>
<!-- 6 -->
<g id="node7" class="node"><title>6</title>
<ellipse fill="cadetblue" stroke="black" cx="205.427" cy="-29.0821" rx="21.4286" ry="21.4286"/>
<text text-anchor="middle" x="205.427" y="-24.0821" font-family="Times New Roman,serif" font-size="20.00">2</text>
</g>
<!-- 2&#45;&gt;6 -->
<g id="edge13" class="edge"><title>2&#45;&gt;6</title>
<path fill="none" stroke="black" stroke-width="2" d="M174.244,-148.83C180.377,-125.279 190.444,-86.6192 197.476,-59.617"/>
<polygon fill="black" stroke="black" stroke-width="2" points="200.875,-60.454 200.008,-49.8947 194.1,-58.6899 200.875,-60.454"/>
</g>
<!-- 3&#45;&gt;0 -->
<g id="edge1" class="edge"><title>3&#45;&gt;0</title>
<path fill="none" stroke="black" stroke-width="2" d="M70.0295,-200.301C67.9987,-175.017 64.5804,-132.461 62.2351,-103.263"/>
<polygon fill="black" stroke="black" stroke-width="2" points="65.7137,-102.855 61.4242,-93.1673 58.7362,-103.415 65.7137,-102.855"/>
</g>
<!-- 3&#45;&gt;1 -->
<g id="edge6" class="edge"><title>3&#45;&gt;1</title>
<path fill="none" stroke="black" stroke-width="2" d="M93.117,-221.229C114.757,-221.01 148.459,-220.669 173.195,-220.419"/>
<polygon fill="black" stroke="black" stroke-width="2" points="173.554,-223.916 183.518,-220.315 173.483,-216.916 173.554,-223.916"/>
</g>
<!-- 4&#45;&gt;0 -->
<g id="edge2" class="edge"><title>4&#45;&gt;0</title>
<path fill="none" stroke="black" stroke-width="2" d="M227.28,-90.7082C194.033,-86.9261 129.624,-79.5994 91.0618,-75.2127"/>
<polygon fill="black" stroke="black" stroke-width="2" points="91.2495,-71.7116 80.918,-74.0588 90.4583,-78.6667 91.2495,-71.7116"/>
</g>
<!-- 4&#45;&gt;2 -->
<g id="edge11" class="edge"><title>4&#45;&gt;2</title>
<path fill="none" stroke="black" stroke-width="2" d="M233.207,-107.867C221.404,-119.18 204.925,-134.975 191.597,-147.75"/>
<polygon fill="black" stroke="black" stroke-width="2" points="188.97,-145.42 184.173,-154.867 193.814,-150.474 188.97,-145.42"/>
</g>
<!-- 5&#45;&gt;2 -->
<g id="edge12" class="edge"><title>5&#45;&gt;2</title>
<path fill="none" stroke="black" stroke-width="2" d="M42.6803,-162.264C67.4998,-163.699 108.587,-166.074 137.101,-167.722"/>
<polygon fill="black" stroke="black" stroke-width="2" points="137.168,-171.232 147.353,-168.315 137.572,-164.243 137.168,-171.232"/>
</g>
<!-- 5&#45;&gt;3 -->
<g id="edge14" class="edge"><title>5&#45;&gt;3</title>
<path fill="none" stroke="black" stroke-width="2" d="M35.0166,-177.534C40.0283,-183.529 45.8033,-190.436 51.2673,-196.972"/>
<polygon fill="black" stroke="black" stroke-width="2" points="48.842,-199.528 57.9413,-204.955 54.2124,-195.038 48.842,-199.528"/>
</g>
<!-- 5&#45;&gt;7 -->
<g id="edge18" class="edge"><title>5&#45;&gt;7</title>
<path fill="none" stroke="black" stroke-width="2" d="M35.9945,-145.416C48.4387,-131.687 66.1052,-110.749 78.2784,-90.2616 82.8491,-82.5693 83.0482,-80.1156 85.9998,-71.6687 88.2089,-65.3468 90.3397,-58.4959 92.2552,-51.9409"/>
<polygon fill="black" stroke="black" stroke-width="2" points="95.7124,-52.5775 95.0681,-42.0023 88.977,-50.6711 95.7124,-52.5775"/>
</g>
<!-- 6&#45;&gt;0 -->
<g id="edge4" class="edge"><title>6&#45;&gt;0</title>
<path fill="none" stroke="black" stroke-width="2" d="M184.857,-35.09C160.12,-42.3146 118.388,-54.5028 89.9721,-62.802"/>
<polygon fill="black" stroke="black" stroke-width="2" points="88.7793,-59.5041 80.1615,-65.6673 90.7418,-66.2234 88.7793,-59.5041"/>
</g>
<!-- 6&#45;&gt;1 -->
<g id="edge9" class="edge"><title>6&#45;&gt;1</title>
<path fill="none" stroke="black" stroke-width="2" d="M205.363,-50.6228C205.262,-84.2455 205.066,-149.381 204.949,-188.378"/>
<polygon fill="black" stroke="black" stroke-width="2" points="201.449,-188.626 204.919,-198.637 208.449,-188.647 201.449,-188.626"/>
</g>
<!-- 6&#45;&gt;4 -->
<g id="edge16" class="edge"><title>6&#45;&gt;4</title>
<path fill="none" stroke="black" stroke-width="2" d="M217.448,-46.9233C221.563,-53.0308 226.259,-60.0007 230.734,-66.6429"/>
<polygon fill="black" stroke="black" stroke-width="2" points="228.134,-69.048 236.624,-75.3856 233.939,-65.1366 228.134,-69.048"/>
</g>
<!-- 7&#45;&gt;3 -->
<g id="edge15" class="edge"><title>7&#45;&gt;3</title>
<path fill="none" stroke="black" stroke-width="2" d="M97.4207,-42.2632C92.3481,-77.6399 82.0903,-149.179 76.1857,-190.358"/>
<polygon fill="black" stroke="black" stroke-width="2" points="72.7038,-189.982 74.749,-200.377 79.633,-190.975 72.7038,-189.982"/>
</g>
<!-- 7&#45;&gt;4 -->
<g id="edge17" class="edge"><title>7&#45;&gt;4</title>
<path fill="none" stroke="black" stroke-width="2" d="M119.806,-30.6152C145.314,-42.9984 190.377,-64.8752 219.859,-79.1877"/>
<polygon fill="black" stroke="black" stroke-width="2" points="218.684,-82.5081 229.209,-83.7269 221.741,-76.211 218.684,-82.5081"/>
</g>
<!-- 7&#45;&gt;6 -->
<g id="edge19" class="edge"><title>7&#45;&gt;6</title>
<path fill="none" stroke="black" stroke-width="2" d="M121.685,-22.8056C136.769,-23.9362 157.266,-25.4724 174.206,-26.742"/>
<polygon fill="black" stroke="black" stroke-width="2" points="173.979,-30.2348 184.213,-27.4921 174.503,-23.2544 173.979,-30.2348"/>
</g>
</g>
</svg>

