<?xml version="1.0" encoding="UTF-8" standalone="no"?>
<!DOCTYPE svg PUBLIC "-//W3C//DTD SVG 1.1//EN"
 "http://www.w3.org/Graphics/SVG/1.1/DTD/svg11.dtd">
<!-- Generated by graphviz version 2.36.0 (20140111.2315)
 -->
<!-- Title: G Pages: 1 -->
<svg width="100%" height="100%"
 viewBox="0.00 0.00 239.37 240.86" xmlns="http://www.w3.org/2000/svg" xmlns:xlink="http://www.w3.org/1999/xlink">
<g id="graph0" class="graph" transform="scale(1 1) rotate(0) translate(4 236.864)">
<title>G</title>
<!-- 0 -->
<g id="node1" class="node"><title>0</title>
<ellipse fill="cadetblue" stroke="black" cx="50.2628" cy="-76.385" rx="21.4286" ry="21.4286"/>
<text text-anchor="middle" x="50.2628" y="-71.385" font-family="Times New Roman,serif" font-size="20.00">2</text>
</g>
<!-- 5 -->
<g id="node6" class="node"><title>5</title>
<ellipse fill="cadetblue" stroke="black" cx="21.2132" cy="-145.958" rx="21.4286" ry="21.4286"/>
<text text-anchor="middle" x="21.2132" y="-140.958" font-family="Times New Roman,serif" font-size="20.00">2</text>
</g>
<!-- 0&#45;&gt;5 -->
<g id="edge3" class="edge"><title>0&#45;&gt;5</title>
<path fill="none" stroke="black" stroke-width="2" d="M42.0161,-96.1356C39.4014,-102.398 36.4507,-109.465 33.6108,-116.266"/>
<polygon fill="black" stroke="black" stroke-width="2" points="30.2048,-115.34 29.5815,-125.916 36.6643,-118.037 30.2048,-115.34"/>
</g>
<!-- 7 -->
<g id="node8" class="node"><title>7</title>
<ellipse fill="brown" stroke="black" cx="126.723" cy="-123.732" rx="21.4286" ry="21.4286"/>
<text text-anchor="middle" x="126.723" y="-118.732" font-family="Times New Roman,serif" font-size="20.00">3</text>
</g>
<!-- 0&#45;&gt;7 -->
<g id="edge4" class="edge"><title>0&#45;&gt;7</title>
<path fill="none" stroke="black" stroke-width="2" d="M68.3827,-87.6055C77.7413,-93.4007 89.3475,-100.588 99.7374,-107.021"/>
<polygon fill="black" stroke="black" stroke-width="2" points="98.1231,-110.139 108.468,-112.428 101.808,-104.187 98.1231,-110.139"/>
</g>
<!-- 1 -->
<g id="node2" class="node"><title>1</title>
<ellipse fill="cadetblue" stroke="black" cx="204.536" cy="-211.651" rx="21.4286" ry="21.4286"/>
<text text-anchor="middle" x="204.536" y="-206.651" font-family="Times New Roman,serif" font-size="20.00">2</text>
</g>
<!-- 1&#45;&gt;7 -->
<g id="edge7" class="edge"><title>1&#45;&gt;7</title>
<path fill="none" stroke="black" stroke-width="2" d="M190.264,-195.525C178.308,-182.016 161.08,-162.551 147.578,-147.295"/>
<polygon fill="black" stroke="black" stroke-width="2" points="150.153,-144.924 140.904,-139.755 144.911,-149.563 150.153,-144.924"/>
</g>
<!-- 2 -->
<g id="node3" class="node"><title>2</title>
<ellipse fill="cadetblue" stroke="black" cx="100.694" cy="-37.5767" rx="21.4286" ry="21.4286"/>
<text text-anchor="middle" x="100.694" y="-32.5767" font-family="Times New Roman,serif" font-size="20.00">2</text>
</g>
<!-- 6 -->
<g id="node7" class="node"><title>6</title>
<ellipse fill="cadetblue" stroke="black" cx="210.161" cy="-112.433" rx="21.4286" ry="21.4286"/>
<text text-anchor="middle" x="210.161" y="-107.433" font-family="Times New Roman,serif" font-size="20.00">2</text>
</g>
<!-- 2&#45;&gt;6 -->
<g id="edge10" class="edge"><title>2&#45;&gt;6</title>
<path fill="none" stroke="black" stroke-width="2" d="M118.282,-49.6037C136.077,-61.772 163.789,-80.7226 184.128,-94.6311"/>
<polygon fill="black" stroke="black" stroke-width="2" points="182.387,-97.6805 192.617,-100.436 186.338,-91.9023 182.387,-97.6805"/>
</g>
<!-- 2&#45;&gt;7 -->
<g id="edge11" class="edge"><title>2&#45;&gt;7</title>
<path fill="none" stroke="black" stroke-width="2" d="M106.863,-57.9942C110.048,-68.5395 113.999,-81.6174 117.536,-93.3248"/>
<polygon fill="black" stroke="black" stroke-width="2" points="114.266,-94.6017 120.508,-103.162 120.967,-92.5772 114.266,-94.6017"/>
</g>
<!-- 3 -->
<g id="node4" class="node"><title>3</title>
<ellipse fill="cadetblue" stroke="black" cx="107.37" cy="-196.394" rx="21.4286" ry="21.4286"/>
<text text-anchor="middle" x="107.37" y="-191.394" font-family="Times New Roman,serif" font-size="20.00">2</text>
</g>
<!-- 3&#45;&gt;0 -->
<g id="edge1" class="edge"><title>3&#45;&gt;0</title>
<path fill="none" stroke="black" stroke-width="2" d="M98.1947,-177.113C88.9116,-157.605 74.4545,-127.223 63.8439,-104.925"/>
<polygon fill="black" stroke="black" stroke-width="2" points="66.8727,-103.145 59.4153,-95.6187 60.5518,-106.152 66.8727,-103.145"/>
</g>
<!-- 3&#45;&gt;1 -->
<g id="edge5" class="edge"><title>3&#45;&gt;1</title>
<path fill="none" stroke="black" stroke-width="2" d="M128.454,-199.705C141.568,-201.764 158.67,-204.449 173.336,-206.752"/>
<polygon fill="black" stroke="black" stroke-width="2" points="173.072,-210.253 183.494,-208.347 174.158,-203.338 173.072,-210.253"/>
</g>
<!-- 3&#45;&gt;6 -->
<g id="edge13" class="edge"><title>3&#45;&gt;6</title>
<path fill="none" stroke="black" stroke-width="2" d="M123.885,-182.905C140.594,-169.256 166.617,-148.001 185.716,-132.401"/>
<polygon fill="black" stroke="black" stroke-width="2" points="188.156,-134.926 193.687,-125.89 183.728,-129.505 188.156,-134.926"/>
</g>
<!-- 4 -->
<g id="node5" class="node"><title>4</title>
<ellipse fill="cadetblue" stroke="black" cx="172.238" cy="-21.2132" rx="21.4286" ry="21.4286"/>
<text text-anchor="middle" x="172.238" y="-16.2132" font-family="Times New Roman,serif" font-size="20.00">2</text>
</g>
<!-- 4&#45;&gt;0 -->
<g id="edge2" class="edge"><title>4&#45;&gt;0</title>
<path fill="none" stroke="black" stroke-width="2" d="M155.101,-33.7524C144.974,-40.8481 131.731,-49.5958 119.267,-56.2041 111.361,-60.3953 109.157,-61.09 100.656,-63.881 94.3608,-65.9476 87.5267,-67.8583 80.9817,-69.5322"/>
<polygon fill="black" stroke="black" stroke-width="2" points="79.9385,-66.184 71.054,-71.9561 81.5988,-72.9843 79.9385,-66.184"/>
</g>
<!-- 4&#45;&gt;2 -->
<g id="edge8" class="edge"><title>4&#45;&gt;2</title>
<path fill="none" stroke="black" stroke-width="2" d="M151.545,-25.9462C145.37,-27.3585 138.461,-28.9386 131.775,-30.4679"/>
<polygon fill="black" stroke="black" stroke-width="2" points="130.557,-27.156 121.589,-32.7976 132.118,-33.9798 130.557,-27.156"/>
</g>
<!-- 5&#45;&gt;2 -->
<g id="edge9" class="edge"><title>5&#45;&gt;2</title>
<path fill="none" stroke="black" stroke-width="2" d="M36.8511,-131.21C46.6952,-121.469 59.2984,-108.123 68.8458,-95.002 75.3857,-86.0142 81.5638,-75.5429 86.707,-66.0217"/>
<polygon fill="black" stroke="black" stroke-width="2" points="89.9414,-67.3898 91.4804,-56.9074 83.7403,-64.1422 89.9414,-67.3898"/>
</g>
<!-- 5&#45;&gt;3 -->
<g id="edge12" class="edge"><title>5&#45;&gt;3</title>
<path fill="none" stroke="black" stroke-width="2" d="M39.9079,-156.902C51.7301,-163.822 67.2055,-172.882 80.3519,-180.578"/>
<polygon fill="black" stroke="black" stroke-width="2" points="78.6094,-183.613 89.0077,-185.645 82.1459,-177.572 78.6094,-183.613"/>
</g>
<!-- 6&#45;&gt;1 -->
<g id="edge6" class="edge"><title>6&#45;&gt;1</title>
<path fill="none" stroke="black" stroke-width="2" d="M208.941,-133.962C208.181,-147.354 207.192,-164.816 206.342,-179.792"/>
<polygon fill="black" stroke="black" stroke-width="2" points="202.826,-179.982 205.754,-190.164 209.815,-180.378 202.826,-179.982"/>
</g>
<!-- 6&#45;&gt;4 -->
<g id="edge15" class="edge"><title>6&#45;&gt;4</title>
<path fill="none" stroke="black" stroke-width="2" d="M201.932,-92.6399C196.814,-80.3276 190.139,-64.2729 184.415,-50.5038"/>
<polygon fill="black" stroke="black" stroke-width="2" points="187.521,-48.8582 180.451,-40.968 181.058,-51.5454 187.521,-48.8582"/>
</g>
<!-- 7&#45;&gt;3 -->
<g id="edge14" class="edge"><title>7&#45;&gt;3</title>
<path fill="none" stroke="black" stroke-width="2" d="M121.229,-144.36C119.472,-150.956 117.487,-158.408 115.58,-165.568"/>
<polygon fill="black" stroke="black" stroke-width="2" points="112.069,-165.151 112.878,-175.715 118.833,-166.953 112.069,-165.151"/>
</g>
<!-- 7&#45;&gt;4 -->
<g id="edge16" class="edge"><title>7&#45;&gt;4</title>
<path fill="none" stroke="black" stroke-width="2" d="M135.498,-103.965C142.236,-88.7897 151.643,-67.6019 159.251,-50.4649"/>
<polygon fill="black" stroke="black" stroke-width="2" points="162.63,-51.4791 163.489,-40.9191 156.232,-48.6386 162.63,-51.4791"/>
</g>
<!-- 7&#45;&gt;5 -->
<g id="edge17" class="edge"><title>7&#45;&gt;5</title>
<path fill="none" stroke="black" stroke-width="2" d="M105.877,-128.123C90.5593,-131.35 69.4919,-135.788 52.205,-139.429"/>
<polygon fill="black" stroke="black" stroke-width="2" points="51.0789,-136.089 42.0151,-141.576 52.5219,-142.939 51.0789,-136.089"/>
</g>
</g>
</svg>

