<?xml version="1.0" encoding="UTF-8" standalone="no"?>
<!DOCTYPE svg PUBLIC "-//W3C//DTD SVG 1.1//EN"
 "http://www.w3.org/Graphics/SVG/1.1/DTD/svg11.dtd">
<!-- Generated by graphviz version 2.36.0 (20140111.2315)
 -->
<!-- Title: G Pages: 1 -->
<svg width="100%" height="100%"
 viewBox="0.00 0.00 289.45 278.57" xmlns="http://www.w3.org/2000/svg" xmlns:xlink="http://www.w3.org/1999/xlink">
<g id="graph0" class="graph" transform="scale(1 1) rotate(0) translate(4 274.568)">
<title>G</title>
<!-- 0 -->
<g id="node1" class="node"><title>0</title>
<ellipse fill="cadetblue" stroke="black" cx="115.428" cy="-249.355" rx="21.4286" ry="21.4286"/>
<text text-anchor="middle" x="115.428" y="-244.355" font-family="Times New Roman,serif" font-size="20.00">2</text>
</g>
<!-- 5 -->
<g id="node6" class="node"><title>5</title>
<ellipse fill="cadetblue" stroke="black" cx="60.0059" cy="-161.05" rx="21.4286" ry="21.4286"/>
<text text-anchor="middle" x="60.0059" y="-156.05" font-family="Times New Roman,serif" font-size="20.00">2</text>
</g>
<!-- 0&#45;&gt;5 -->
<g id="edge3" class="edge"><title>0&#45;&gt;5</title>
<path fill="none" stroke="black" stroke-width="2" d="M103.945,-231.058C96.0901,-218.543 85.5497,-201.749 76.7614,-187.746"/>
<polygon fill="black" stroke="black" stroke-width="2" points="79.5657,-185.63 71.2852,-179.021 73.6367,-189.352 79.5657,-185.63"/>
</g>
<!-- 6 -->
<g id="node7" class="node"><title>6</title>
<ellipse fill="dodgerblue" stroke="black" cx="105.729" cy="-110.618" rx="21.4286" ry="21.4286"/>
<text text-anchor="middle" x="105.729" y="-105.618" font-family="Times New Roman,serif" font-size="20.00">4</text>
</g>
<!-- 0&#45;&gt;6 -->
<g id="edge4" class="edge"><title>0&#45;&gt;6</title>
<path fill="none" stroke="black" stroke-width="2" d="M113.934,-227.981C112.327,-205 109.757,-168.235 107.921,-141.979"/>
<polygon fill="black" stroke="black" stroke-width="2" points="111.398,-141.52 107.209,-131.788 104.415,-142.008 111.398,-141.52"/>
</g>
<!-- 7 -->
<g id="node8" class="node"><title>7</title>
<ellipse fill="cadetblue" stroke="black" cx="175.035" cy="-128.246" rx="21.4286" ry="21.4286"/>
<text text-anchor="middle" x="175.035" y="-123.246" font-family="Times New Roman,serif" font-size="20.00">2</text>
</g>
<!-- 0&#45;&gt;7 -->
<g id="edge5" class="edge"><title>0&#45;&gt;7</title>
<path fill="none" stroke="black" stroke-width="2" d="M124.873,-230.165C134.639,-210.322 149.992,-179.129 161.141,-156.475"/>
<polygon fill="black" stroke="black" stroke-width="2" points="164.358,-157.864 165.634,-147.346 158.078,-154.773 164.358,-157.864"/>
</g>
<!-- 1 -->
<g id="node2" class="node"><title>1</title>
<ellipse fill="cadetblue" stroke="black" cx="21.2132" cy="-66.1533" rx="21.4286" ry="21.4286"/>
<text text-anchor="middle" x="21.2132" y="-61.1533" font-family="Times New Roman,serif" font-size="20.00">2</text>
</g>
<!-- 1&#45;&gt;7 -->
<g id="edge8" class="edge"><title>1&#45;&gt;7</title>
<path fill="none" stroke="black" stroke-width="2" d="M42.5471,-68.239C64.2738,-71.0885 98.3686,-77.6061 124.351,-92.0405 133.098,-96.8998 142.143,-102.976 150.129,-108.756"/>
<polygon fill="black" stroke="black" stroke-width="2" points="148.199,-111.682 158.313,-114.838 152.375,-106.064 148.199,-111.682"/>
</g>
<!-- 2 -->
<g id="node3" class="node"><title>2</title>
<ellipse fill="cadetblue" stroke="black" cx="152.795" cy="-21.2132" rx="21.4286" ry="21.4286"/>
<text text-anchor="middle" x="152.795" y="-16.2132" font-family="Times New Roman,serif" font-size="20.00">2</text>
</g>
<!-- 2&#45;&gt;6 -->
<g id="edge10" class="edge"><title>2&#45;&gt;6</title>
<path fill="none" stroke="black" stroke-width="2" d="M142.813,-40.1737C136.324,-52.5013 127.748,-68.7908 120.479,-82.6002"/>
<polygon fill="black" stroke="black" stroke-width="2" points="117.257,-81.2059 115.696,-91.6851 123.451,-84.4668 117.257,-81.2059"/>
</g>
<!-- 3 -->
<g id="node4" class="node"><title>3</title>
<ellipse fill="brown" stroke="black" cx="175.688" cy="-218.668" rx="21.4286" ry="21.4286"/>
<text text-anchor="middle" x="175.688" y="-213.668" font-family="Times New Roman,serif" font-size="20.00">3</text>
</g>
<!-- 3&#45;&gt;0 -->
<g id="edge1" class="edge"><title>3&#45;&gt;0</title>
<path fill="none" stroke="black" stroke-width="2" d="M156.622,-228.378C152.445,-230.504 147.939,-232.799 143.494,-235.063"/>
<polygon fill="black" stroke="black" stroke-width="2" points="141.901,-231.946 134.578,-239.603 145.077,-238.184 141.901,-231.946"/>
</g>
<!-- 4 -->
<g id="node5" class="node"><title>4</title>
<ellipse fill="cadetblue" stroke="black" cx="260.235" cy="-226.333" rx="21.4286" ry="21.4286"/>
<text text-anchor="middle" x="260.235" y="-221.333" font-family="Times New Roman,serif" font-size="20.00">2</text>
</g>
<!-- 3&#45;&gt;4 -->
<g id="edge12" class="edge"><title>3&#45;&gt;4</title>
<path fill="none" stroke="black" stroke-width="2" d="M197.023,-220.602C206.635,-221.474 218.18,-222.52 228.759,-223.479"/>
<polygon fill="black" stroke="black" stroke-width="2" points="228.632,-226.982 238.907,-224.399 229.264,-220.011 228.632,-226.982"/>
</g>
<!-- 4&#45;&gt;0 -->
<g id="edge2" class="edge"><title>4&#45;&gt;0</title>
<path fill="none" stroke="black" stroke-width="2" d="M239.531,-231.772C222.5,-236.034 197.668,-241.762 175.644,-244.972 166.3,-246.335 156.074,-247.281 146.746,-247.935"/>
<polygon fill="black" stroke="black" stroke-width="2" points="146.454,-244.447 136.689,-248.557 146.886,-251.433 146.454,-244.447"/>
</g>
<!-- 5&#45;&gt;1 -->
<g id="edge6" class="edge"><title>5&#45;&gt;1</title>
<path fill="none" stroke="black" stroke-width="2" d="M51.9681,-141.387C46.5066,-128.027 39.1901,-110.129 33.0635,-95.142"/>
<polygon fill="black" stroke="black" stroke-width="2" points="36.2646,-93.7228 29.2408,-85.7907 29.785,-96.3716 36.2646,-93.7228"/>
</g>
<!-- 5&#45;&gt;2 -->
<g id="edge9" class="edge"><title>5&#45;&gt;2</title>
<path fill="none" stroke="black" stroke-width="2" d="M67.6323,-140.866C71.1634,-131.616 75.449,-120.523 79.4245,-110.587 82.7485,-102.28 82.3163,-99.5254 87.151,-91.9962 98.8845,-73.7232 115.557,-55.8148 129.163,-42.5829"/>
<polygon fill="black" stroke="black" stroke-width="2" points="131.92,-44.7907 136.759,-35.3652 127.098,-39.7162 131.92,-44.7907"/>
</g>
<!-- 5&#45;&gt;3 -->
<g id="edge13" class="edge"><title>5&#45;&gt;3</title>
<path fill="none" stroke="black" stroke-width="2" d="M79.1085,-170.564C97.6958,-179.822 126.161,-194 147.38,-204.568"/>
<polygon fill="black" stroke="black" stroke-width="2" points="146.046,-207.814 156.557,-209.139 149.166,-201.548 146.046,-207.814"/>
</g>
<!-- 5&#45;&gt;6 -->
<g id="edge17" class="edge"><title>5&#45;&gt;6</title>
<path fill="none" stroke="black" stroke-width="2" d="M74.4729,-145.093C77.6419,-141.598 81.0608,-137.827 84.434,-134.106"/>
<polygon fill="black" stroke="black" stroke-width="2" points="87.0752,-136.404 91.199,-126.644 81.8892,-131.702 87.0752,-136.404"/>
</g>
<!-- 6&#45;&gt;1 -->
<g id="edge7" class="edge"><title>6&#45;&gt;1</title>
<path fill="none" stroke="black" stroke-width="2" d="M86.5509,-100.529C75.4513,-94.6888 61.2872,-87.2369 48.9861,-80.7651"/>
<polygon fill="black" stroke="black" stroke-width="2" points="50.5036,-77.6087 40.0241,-76.05 47.2444,-83.8036 50.5036,-77.6087"/>
</g>
<!-- 6&#45;&gt;3 -->
<g id="edge14" class="edge"><title>6&#45;&gt;3</title>
<path fill="none" stroke="black" stroke-width="2" d="M117.281,-128.461C128.522,-145.822 145.736,-172.408 158.568,-192.227"/>
<polygon fill="black" stroke="black" stroke-width="2" points="155.746,-194.307 164.119,-200.799 161.622,-190.503 155.746,-194.307"/>
</g>
<!-- 7&#45;&gt;2 -->
<g id="edge11" class="edge"><title>7&#45;&gt;2</title>
<path fill="none" stroke="black" stroke-width="2" d="M170.694,-107.355C167.418,-91.5897 162.873,-69.716 159.183,-51.9559"/>
<polygon fill="black" stroke="black" stroke-width="2" points="162.586,-51.1304 157.125,-42.0516 155.733,-52.5546 162.586,-51.1304"/>
</g>
<!-- 7&#45;&gt;3 -->
<g id="edge15" class="edge"><title>7&#45;&gt;3</title>
<path fill="none" stroke="black" stroke-width="2" d="M175.19,-149.675C175.27,-160.823 175.37,-174.669 175.459,-187.024"/>
<polygon fill="black" stroke="black" stroke-width="2" points="171.962,-187.419 175.534,-197.393 178.962,-187.368 171.962,-187.419"/>
</g>
<!-- 7&#45;&gt;4 -->
<g id="edge16" class="edge"><title>7&#45;&gt;4</title>
<path fill="none" stroke="black" stroke-width="2" d="M189.104,-144.443C202.793,-160.203 223.758,-184.339 239.386,-202.33"/>
<polygon fill="black" stroke="black" stroke-width="2" points="236.945,-204.858 246.145,-210.112 242.23,-200.267 236.945,-204.858"/>
</g>
<!-- 7&#45;&gt;5 -->
<g id="edge18" class="edge"><title>7&#45;&gt;5</title>
<path fill="none" stroke="black" stroke-width="2" d="M154.47,-134.111C136.669,-139.187 110.679,-146.599 90.4645,-152.364"/>
<polygon fill="black" stroke="black" stroke-width="2" points="89.4373,-149.017 80.7806,-155.125 91.3571,-155.749 89.4373,-149.017"/>
</g>
<!-- 7&#45;&gt;6 -->
<g id="edge19" class="edge"><title>7&#45;&gt;6</title>
<path fill="none" stroke="black" stroke-width="2" d="M154.241,-122.957C148.621,-121.528 142.42,-119.951 136.382,-118.415"/>
<polygon fill="black" stroke="black" stroke-width="2" points="137.062,-114.977 126.508,-115.904 135.337,-121.761 137.062,-114.977"/>
</g>
</g>
</svg>

