<?xml version="1.0" encoding="UTF-8" standalone="no"?>
<!DOCTYPE svg PUBLIC "-//W3C//DTD SVG 1.1//EN"
 "http://www.w3.org/Graphics/SVG/1.1/DTD/svg11.dtd">
<!-- Generated by graphviz version 2.36.0 (20140111.2315)
 -->
<!-- Title: G Pages: 1 -->
<svg width="100%" height="100%"
 viewBox="0.00 0.00 240.51 214.07" xmlns="http://www.w3.org/2000/svg" xmlns:xlink="http://www.w3.org/1999/xlink">
<g id="graph0" class="graph" transform="scale(1 1) rotate(0) translate(4 210.075)">
<title>G</title>
<!-- 0 -->
<g id="node1" class="node"><title>0</title>
<ellipse fill="cadetblue" stroke="black" cx="62.7884" cy="-36.8648" rx="21.4286" ry="21.4286"/>
<text text-anchor="middle" x="62.7884" y="-31.8648" font-family="Times New Roman,serif" font-size="20.00">2</text>
</g>
<!-- 5 -->
<g id="node6" class="node"><title>5</title>
<ellipse fill="cadetblue" stroke="black" cx="21.2132" cy="-111.252" rx="21.4286" ry="21.4286"/>
<text text-anchor="middle" x="21.2132" y="-106.252" font-family="Times New Roman,serif" font-size="20.00">2</text>
</g>
<!-- 0&#45;&gt;5 -->
<g id="edge3" class="edge"><title>0&#45;&gt;5</title>
<path fill="none" stroke="black" stroke-width="2" d="M52.2972,-55.6359C47.5704,-64.0933 41.8932,-74.251 36.6915,-83.5581"/>
<polygon fill="black" stroke="black" stroke-width="2" points="33.5246,-82.0505 31.701,-92.4872 39.635,-85.4656 33.5246,-82.0505"/>
</g>
<!-- 7 -->
<g id="node8" class="node"><title>7</title>
<ellipse fill="cadetblue" stroke="black" cx="95.7975" cy="-99.9215" rx="21.4286" ry="21.4286"/>
<text text-anchor="middle" x="95.7975" y="-94.9215" font-family="Times New Roman,serif" font-size="20.00">2</text>
</g>
<!-- 0&#45;&gt;7 -->
<g id="edge4" class="edge"><title>0&#45;&gt;7</title>
<path fill="none" stroke="black" stroke-width="2" d="M72.6922,-55.7839C75.3687,-60.8966 78.3224,-66.5391 81.1979,-72.0322"/>
<polygon fill="black" stroke="black" stroke-width="2" points="78.162,-73.7795 85.9007,-81.0158 84.3637,-70.533 78.162,-73.7795"/>
</g>
<!-- 1 -->
<g id="node2" class="node"><title>1</title>
<ellipse fill="cadetblue" stroke="black" cx="110.635" cy="-184.861" rx="21.4286" ry="21.4286"/>
<text text-anchor="middle" x="110.635" y="-179.861" font-family="Times New Roman,serif" font-size="20.00">2</text>
</g>
<!-- 6 -->
<g id="node7" class="node"><title>6</title>
<ellipse fill="cadetblue" stroke="black" cx="211.293" cy="-105.533" rx="21.4286" ry="21.4286"/>
<text text-anchor="middle" x="211.293" y="-100.533" font-family="Times New Roman,serif" font-size="20.00">2</text>
</g>
<!-- 1&#45;&gt;6 -->
<g id="edge7" class="edge"><title>1&#45;&gt;6</title>
<path fill="none" stroke="black" stroke-width="2" d="M129.223,-174.15C142.125,-166.377 159.445,-155.255 173.474,-143.793 179.014,-139.267 184.624,-134.024 189.767,-128.899"/>
<polygon fill="black" stroke="black" stroke-width="2" points="192.434,-131.177 196.905,-121.571 187.42,-126.293 192.434,-131.177"/>
</g>
<!-- 1&#45;&gt;7 -->
<g id="edge8" class="edge"><title>1&#45;&gt;7</title>
<path fill="none" stroke="black" stroke-width="2" d="M106.967,-163.865C105.237,-153.962 103.138,-141.945 101.229,-131.014"/>
<polygon fill="black" stroke="black" stroke-width="2" points="104.643,-130.219 99.4744,-120.971 97.7474,-131.424 104.643,-130.219"/>
</g>
<!-- 2 -->
<g id="node3" class="node"><title>2</title>
<ellipse fill="cadetblue" stroke="black" cx="113.22" cy="-21.2132" rx="21.4286" ry="21.4286"/>
<text text-anchor="middle" x="113.22" y="-16.2132" font-family="Times New Roman,serif" font-size="20.00">2</text>
</g>
<!-- 2&#45;&gt;5 -->
<g id="edge10" class="edge"><title>2&#45;&gt;5</title>
<path fill="none" stroke="black" stroke-width="2" d="M98.8741,-37.1406C93.4797,-42.998 87.2331,-49.6274 81.3714,-55.4817 69.6139,-67.2246 56.0771,-79.8487 44.8254,-90.1113"/>
<polygon fill="black" stroke="black" stroke-width="2" points="42.152,-87.8106 37.0943,-97.1203 46.8537,-92.9966 42.152,-87.8106"/>
</g>
<!-- 2&#45;&gt;6 -->
<g id="edge11" class="edge"><title>2&#45;&gt;6</title>
<path fill="none" stroke="black" stroke-width="2" d="M129.415,-35.1369C145.173,-48.6851 169.305,-69.4331 187.294,-84.8992"/>
<polygon fill="black" stroke="black" stroke-width="2" points="185.21,-87.7233 195.074,-91.5887 189.773,-82.4154 185.21,-87.7233"/>
</g>
<!-- 3 -->
<g id="node4" class="node"><title>3</title>
<ellipse fill="cadetblue" stroke="black" cx="154.905" cy="-125.162" rx="21.4286" ry="21.4286"/>
<text text-anchor="middle" x="154.905" y="-120.162" font-family="Times New Roman,serif" font-size="20.00">2</text>
</g>
<!-- 3&#45;&gt;0 -->
<g id="edge1" class="edge"><title>3&#45;&gt;0</title>
<path fill="none" stroke="black" stroke-width="2" d="M140.703,-108.921C133.118,-100.473 123.492,-90.1049 114.398,-81.3224 105.801,-73.0197 95.9489,-64.3438 87.172,-56.8833"/>
<polygon fill="black" stroke="black" stroke-width="2" points="89.388,-54.1738 79.4808,-50.4191 84.8842,-59.5325 89.388,-54.1738"/>
</g>
<!-- 3&#45;&gt;1 -->
<g id="edge5" class="edge"><title>3&#45;&gt;1</title>
<path fill="none" stroke="black" stroke-width="2" d="M142.1,-142.43C138.188,-147.705 133.801,-153.622 129.572,-159.324"/>
<polygon fill="black" stroke="black" stroke-width="2" points="126.709,-157.309 123.564,-167.426 132.332,-161.478 126.709,-157.309"/>
</g>
<!-- 4 -->
<g id="node5" class="node"><title>4</title>
<ellipse fill="brown" stroke="black" cx="174.811" cy="-32.8706" rx="21.4286" ry="21.4286"/>
<text text-anchor="middle" x="174.811" y="-27.8706" font-family="Times New Roman,serif" font-size="20.00">3</text>
</g>
<!-- 3&#45;&gt;4 -->
<g id="edge13" class="edge"><title>3&#45;&gt;4</title>
<path fill="none" stroke="black" stroke-width="2" d="M159.422,-104.22C161.993,-92.3017 165.261,-77.1482 168.124,-63.8746"/>
<polygon fill="black" stroke="black" stroke-width="2" points="171.625,-64.2433 170.312,-53.7301 164.782,-62.7673 171.625,-64.2433"/>
</g>
<!-- 4&#45;&gt;0 -->
<g id="edge2" class="edge"><title>4&#45;&gt;0</title>
<path fill="none" stroke="black" stroke-width="2" d="M154.553,-40.0621C142.665,-43.6799 127.257,-47.3416 113.181,-47.5175 106.609,-47.5997 99.657,-46.7566 93.0847,-45.5127"/>
<polygon fill="black" stroke="black" stroke-width="2" points="93.7008,-42.0641 83.1787,-43.3035 92.177,-48.8963 93.7008,-42.0641"/>
</g>
<!-- 4&#45;&gt;2 -->
<g id="edge9" class="edge"><title>4&#45;&gt;2</title>
<path fill="none" stroke="black" stroke-width="2" d="M153.959,-28.924C150.917,-28.3481 147.729,-27.7447 144.534,-27.1399"/>
<polygon fill="black" stroke="black" stroke-width="2" points="144.947,-23.656 134.47,-25.2352 143.645,-30.5339 144.947,-23.656"/>
</g>
<!-- 5&#45;&gt;1 -->
<g id="edge6" class="edge"><title>5&#45;&gt;1</title>
<path fill="none" stroke="black" stroke-width="2" d="M37.6145,-124.753C51.1429,-135.89 70.5455,-151.861 85.9503,-164.542"/>
<polygon fill="black" stroke="black" stroke-width="2" points="84.0894,-167.544 94.0345,-171.197 88.5382,-162.139 84.0894,-167.544"/>
</g>
<!-- 6&#45;&gt;3 -->
<g id="edge14" class="edge"><title>6&#45;&gt;3</title>
<path fill="none" stroke="black" stroke-width="2" d="M191.254,-112.509C189.145,-113.243 186.97,-114 184.78,-114.762"/>
<polygon fill="black" stroke="black" stroke-width="2" points="183.554,-111.483 175.26,-118.076 185.855,-118.094 183.554,-111.483"/>
</g>
<!-- 6&#45;&gt;4 -->
<g id="edge16" class="edge"><title>6&#45;&gt;4</title>
<path fill="none" stroke="black" stroke-width="2" d="M201.708,-86.4419C197.77,-78.5986 193.132,-69.3598 188.826,-60.7834"/>
<polygon fill="black" stroke="black" stroke-width="2" points="191.948,-59.2008 184.333,-51.8343 185.692,-62.3417 191.948,-59.2008"/>
</g>
<!-- 7&#45;&gt;2 -->
<g id="edge12" class="edge"><title>7&#45;&gt;2</title>
<path fill="none" stroke="black" stroke-width="2" d="M100.466,-78.8292C102.297,-70.558 104.434,-60.904 106.43,-51.8893"/>
<polygon fill="black" stroke="black" stroke-width="2" points="109.855,-52.611 108.599,-42.0909 103.02,-51.0981 109.855,-52.611"/>
</g>
<!-- 7&#45;&gt;3 -->
<g id="edge15" class="edge"><title>7&#45;&gt;3</title>
<path fill="none" stroke="black" stroke-width="2" d="M115.48,-108.326C118.735,-109.716 122.171,-111.184 125.602,-112.649"/>
<polygon fill="black" stroke="black" stroke-width="2" points="124.536,-116 135.108,-116.708 127.286,-109.562 124.536,-116"/>
</g>
<!-- 7&#45;&gt;4 -->
<g id="edge17" class="edge"><title>7&#45;&gt;4</title>
<path fill="none" stroke="black" stroke-width="2" d="M112.169,-86.0285C123.293,-76.5887 138.196,-63.9426 150.674,-53.3532"/>
<polygon fill="black" stroke="black" stroke-width="2" points="153.101,-55.8848 158.461,-46.7458 148.571,-50.5475 153.101,-55.8848"/>
</g>
</g>
</svg>

