<?xml version="1.0" encoding="UTF-8" standalone="no"?>
<!DOCTYPE svg PUBLIC "-//W3C//DTD SVG 1.1//EN"
 "http://www.w3.org/Graphics/SVG/1.1/DTD/svg11.dtd">
<!-- Generated by graphviz version 2.36.0 (20140111.2315)
 -->
<!-- Title: G Pages: 1 -->
<svg width="100%" height="100%"
 viewBox="0.00 0.00 201.26 221.43" xmlns="http://www.w3.org/2000/svg" xmlns:xlink="http://www.w3.org/1999/xlink">
<g id="graph0" class="graph" transform="scale(1 1) rotate(0) translate(4 217.435)">
<title>G</title>
<!-- 0 -->
<g id="node1" class="node"><title>0</title>
<ellipse fill="cadetblue" stroke="black" cx="96.9065" cy="-111.816" rx="21.4286" ry="21.4286"/>
<text text-anchor="middle" x="96.9065" y="-106.816" font-family="Times New Roman,serif" font-size="20.00">2</text>
</g>
<!-- 5 -->
<g id="node6" class="node"><title>5</title>
<ellipse fill="cadetblue" stroke="black" cx="22.8682" cy="-126.799" rx="21.4286" ry="21.4286"/>
<text text-anchor="middle" x="22.8682" y="-121.799" font-family="Times New Roman,serif" font-size="20.00">2</text>
</g>
<!-- 0&#45;&gt;5 -->
<g id="edge3" class="edge"><title>0&#45;&gt;5</title>
<path fill="none" stroke="black" stroke-width="2" d="M75.8881,-116.07C68.9516,-117.474 61.0871,-119.065 53.5792,-120.584"/>
<polygon fill="black" stroke="black" stroke-width="2" points="52.79,-117.173 43.6829,-122.587 54.1784,-124.034 52.79,-117.173"/>
</g>
<!-- 6 -->
<g id="node7" class="node"><title>6</title>
<ellipse fill="cadetblue" stroke="black" cx="172.047" cy="-94.8898" rx="21.4286" ry="21.4286"/>
<text text-anchor="middle" x="172.047" y="-89.8898" font-family="Times New Roman,serif" font-size="20.00">2</text>
</g>
<!-- 0&#45;&gt;6 -->
<g id="edge4" class="edge"><title>0&#45;&gt;6</title>
<path fill="none" stroke="black" stroke-width="2" d="M117.837,-107.101C125.084,-105.469 133.365,-103.603 141.237,-101.83"/>
<polygon fill="black" stroke="black" stroke-width="2" points="142.242,-105.192 151.228,-99.5795 140.703,-98.3627 142.242,-105.192"/>
</g>
<!-- 7 -->
<g id="node8" class="node"><title>7</title>
<ellipse fill="brown" stroke="black" cx="21.2132" cy="-65.1755" rx="21.4286" ry="21.4286"/>
<text text-anchor="middle" x="21.2132" y="-60.1755" font-family="Times New Roman,serif" font-size="20.00">3</text>
</g>
<!-- 0&#45;&gt;7 -->
<g id="edge5" class="edge"><title>0&#45;&gt;7</title>
<path fill="none" stroke="black" stroke-width="2" d="M78.5833,-100.526C69.3787,-94.8542 58.0525,-87.8752 47.9021,-81.6208"/>
<polygon fill="black" stroke="black" stroke-width="2" points="49.7173,-78.6282 39.3677,-76.362 46.0452,-84.5877 49.7173,-78.6282"/>
</g>
<!-- 1 -->
<g id="node2" class="node"><title>1</title>
<ellipse fill="cadetblue" stroke="black" cx="120.995" cy="-192.222" rx="21.4286" ry="21.4286"/>
<text text-anchor="middle" x="120.995" y="-187.222" font-family="Times New Roman,serif" font-size="20.00">2</text>
</g>
<!-- 1&#45;&gt;6 -->
<g id="edge8" class="edge"><title>1&#45;&gt;6</title>
<path fill="none" stroke="black" stroke-width="2" d="M131.081,-172.992C138.612,-158.635 149.013,-138.804 157.451,-122.717"/>
<polygon fill="black" stroke="black" stroke-width="2" points="160.61,-124.23 162.155,-113.748 154.411,-120.978 160.61,-124.23"/>
</g>
<!-- 2 -->
<g id="node3" class="node"><title>2</title>
<ellipse fill="cadetblue" stroke="black" cx="71.6447" cy="-21.2132" rx="21.4286" ry="21.4286"/>
<text text-anchor="middle" x="71.6447" y="-16.2132" font-family="Times New Roman,serif" font-size="20.00">2</text>
</g>
<!-- 2&#45;&gt;5 -->
<g id="edge10" class="edge"><title>2&#45;&gt;5</title>
<path fill="none" stroke="black" stroke-width="2" d="M62.6983,-40.5793C55.2848,-56.6272 44.6375,-79.6756 36.2162,-97.9052"/>
<polygon fill="black" stroke="black" stroke-width="2" points="32.9395,-96.6525 31.923,-107.198 39.2942,-99.5881 32.9395,-96.6525"/>
</g>
<!-- 2&#45;&gt;7 -->
<g id="edge12" class="edge"><title>2&#45;&gt;7</title>
<path fill="none" stroke="black" stroke-width="2" d="M55.4102,-35.3651C52.0809,-38.2674 48.5112,-41.3792 44.9796,-44.4577"/>
<polygon fill="black" stroke="black" stroke-width="2" points="42.6553,-41.8407 37.4172,-51.0501 47.2551,-47.1173 42.6553,-41.8407"/>
</g>
<!-- 3 -->
<g id="node4" class="node"><title>3</title>
<ellipse fill="cadetblue" stroke="black" cx="33.7281" cy="-185.397" rx="21.4286" ry="21.4286"/>
<text text-anchor="middle" x="33.7281" y="-180.397" font-family="Times New Roman,serif" font-size="20.00">2</text>
</g>
<!-- 3&#45;&gt;0 -->
<g id="edge1" class="edge"><title>3&#45;&gt;0</title>
<path fill="none" stroke="black" stroke-width="2" d="M47.7494,-169.067C56.0925,-159.35 66.8328,-146.842 76.145,-135.996"/>
<polygon fill="black" stroke="black" stroke-width="2" points="79.0654,-137.968 82.9243,-128.101 73.7545,-133.408 79.0654,-137.968"/>
</g>
<!-- 3&#45;&gt;1 -->
<g id="edge6" class="edge"><title>3&#45;&gt;1</title>
<path fill="none" stroke="black" stroke-width="2" d="M55.2997,-187.084C65.6562,-187.894 78.2629,-188.88 89.6529,-189.771"/>
<polygon fill="black" stroke="black" stroke-width="2" points="89.4292,-193.264 99.6717,-190.554 89.975,-186.285 89.4292,-193.264"/>
</g>
<!-- 4 -->
<g id="node5" class="node"><title>4</title>
<ellipse fill="cadetblue" stroke="black" cx="133.603" cy="-23.8335" rx="21.4286" ry="21.4286"/>
<text text-anchor="middle" x="133.603" y="-18.8335" font-family="Times New Roman,serif" font-size="20.00">2</text>
</g>
<!-- 4&#45;&gt;0 -->
<g id="edge2" class="edge"><title>4&#45;&gt;0</title>
<path fill="none" stroke="black" stroke-width="2" d="M125.276,-43.7981C120.457,-55.3531 114.307,-70.0983 108.966,-82.9041"/>
<polygon fill="black" stroke="black" stroke-width="2" points="105.693,-81.657 105.074,-92.2338 112.154,-84.3517 105.693,-81.657"/>
</g>
<!-- 4&#45;&gt;2 -->
<g id="edge9" class="edge"><title>4&#45;&gt;2</title>
<path fill="none" stroke="black" stroke-width="2" d="M112.281,-22.9317C109.393,-22.8096 106.38,-22.6822 103.359,-22.5544"/>
<polygon fill="black" stroke="black" stroke-width="2" points="103.356,-19.0512 93.2169,-22.1255 103.06,-26.045 103.356,-19.0512"/>
</g>
<!-- 5&#45;&gt;1 -->
<g id="edge7" class="edge"><title>5&#45;&gt;1</title>
<path fill="none" stroke="black" stroke-width="2" d="M40.8662,-138.799C55.9434,-148.851 77.6693,-163.336 94.6959,-174.688"/>
<polygon fill="black" stroke="black" stroke-width="2" points="92.8494,-177.663 103.111,-180.298 96.7325,-171.839 92.8494,-177.663"/>
</g>
<!-- 5&#45;&gt;3 -->
<g id="edge13" class="edge"><title>5&#45;&gt;3</title>
<path fill="none" stroke="black" stroke-width="2" d="M26.7889,-147.955C27.1781,-150.055 27.5785,-152.215 27.9813,-154.389"/>
<polygon fill="black" stroke="black" stroke-width="2" points="24.5858,-155.275 29.8496,-164.47 31.4686,-153.999 24.5858,-155.275"/>
</g>
<!-- 5&#45;&gt;7 -->
<g id="edge17" class="edge"><title>5&#45;&gt;7</title>
<path fill="none" stroke="black" stroke-width="2" d="M22.2987,-105.592C22.2215,-102.72 22.1411,-99.7237 22.0603,-96.7184"/>
<polygon fill="black" stroke="black" stroke-width="2" points="25.5567,-96.5336 21.7894,-86.6312 18.5593,-96.7216 25.5567,-96.5336"/>
</g>
<!-- 6&#45;&gt;2 -->
<g id="edge11" class="edge"><title>6&#45;&gt;2</title>
<path fill="none" stroke="black" stroke-width="2" d="M154.558,-82.0563C138.721,-70.4351 115.192,-53.1687 97.2396,-39.9952"/>
<polygon fill="black" stroke="black" stroke-width="2" points="99.0658,-36.994 88.9329,-33.8996 94.9245,-42.6376 99.0658,-36.994"/>
</g>
<!-- 6&#45;&gt;4 -->
<g id="edge15" class="edge"><title>6&#45;&gt;4</title>
<path fill="none" stroke="black" stroke-width="2" d="M161.946,-76.2205C157.873,-68.692 153.088,-59.8486 148.622,-51.5935"/>
<polygon fill="black" stroke="black" stroke-width="2" points="151.607,-49.7545 143.77,-42.6247 145.45,-53.0855 151.607,-49.7545"/>
</g>
<!-- 7&#45;&gt;3 -->
<g id="edge14" class="edge"><title>7&#45;&gt;3</title>
<path fill="none" stroke="black" stroke-width="2" d="M33.3554,-82.8923C40.4214,-94.7622 48.1402,-111.065 49.1723,-126.917 49.797,-136.51 47.9998,-146.72 45.4331,-155.88"/>
<polygon fill="black" stroke="black" stroke-width="2" points="42.0095,-155.095 42.2963,-165.686 48.6767,-157.228 42.0095,-155.095"/>
</g>
<!-- 7&#45;&gt;4 -->
<g id="edge16" class="edge"><title>7&#45;&gt;4</title>
<path fill="none" stroke="black" stroke-width="2" d="M41.3668,-58.2576C50.6036,-55.05 61.682,-51.151 71.6059,-47.5175 82.347,-43.5849 94.0806,-39.1407 104.422,-35.1731"/>
<polygon fill="black" stroke="black" stroke-width="2" points="105.759,-38.4088 113.832,-31.5475 103.242,-31.8768 105.759,-38.4088"/>
</g>
</g>
</svg>

