<?xml version="1.0" encoding="UTF-8" standalone="no"?>
<!DOCTYPE svg PUBLIC "-//W3C//DTD SVG 1.1//EN"
 "http://www.w3.org/Graphics/SVG/1.1/DTD/svg11.dtd">
<!-- Generated by graphviz version 2.36.0 (20140111.2315)
 -->
<!-- Title: G Pages: 1 -->
<svg width="100%" height="100%"
 viewBox="0.00 0.00 244.92 291.02" xmlns="http://www.w3.org/2000/svg" xmlns:xlink="http://www.w3.org/1999/xlink">
<g id="graph0" class="graph" transform="scale(1 1) rotate(0) translate(4 287.021)">
<title>G</title>
<!-- 0 -->
<g id="node1" class="node"><title>0</title>
<ellipse fill="cadetblue" stroke="black" cx="91.9381" cy="-169.213" rx="21.4286" ry="21.4286"/>
<text text-anchor="middle" x="91.9381" y="-164.213" font-family="Times New Roman,serif" font-size="20.00">2</text>
</g>
<!-- 5 -->
<g id="node6" class="node"><title>5</title>
<ellipse fill="cadetblue" stroke="black" cx="21.2132" cy="-142.577" rx="21.4286" ry="21.4286"/>
<text text-anchor="middle" x="21.2132" y="-137.577" font-family="Times New Roman,serif" font-size="20.00">2</text>
</g>
<!-- 0&#45;&gt;5 -->
<g id="edge3" class="edge"><title>0&#45;&gt;5</title>
<path fill="none" stroke="black" stroke-width="2" d="M71.8604,-161.652C65.2343,-159.156 57.7217,-156.327 50.5498,-153.626"/>
<polygon fill="black" stroke="black" stroke-width="2" points="51.6883,-150.315 41.0963,-150.065 49.2211,-156.865 51.6883,-150.315"/>
</g>
<!-- 6 -->
<g id="node7" class="node"><title>6</title>
<ellipse fill="cadetblue" stroke="black" cx="192.629" cy="-119.798" rx="21.4286" ry="21.4286"/>
<text text-anchor="middle" x="192.629" y="-114.798" font-family="Times New Roman,serif" font-size="20.00">2</text>
</g>
<!-- 0&#45;&gt;6 -->
<g id="edge4" class="edge"><title>0&#45;&gt;6</title>
<path fill="none" stroke="black" stroke-width="2" d="M111.352,-159.685C126.257,-152.371 147.067,-142.158 163.899,-133.898"/>
<polygon fill="black" stroke="black" stroke-width="2" points="165.839,-136.844 173.274,-129.297 162.755,-130.56 165.839,-136.844"/>
</g>
<!-- 7 -->
<g id="node8" class="node"><title>7</title>
<ellipse fill="brown" stroke="black" cx="132.108" cy="-93.1632" rx="21.4286" ry="21.4286"/>
<text text-anchor="middle" x="132.108" y="-88.1632" font-family="Times New Roman,serif" font-size="20.00">3</text>
</g>
<!-- 0&#45;&gt;7 -->
<g id="edge5" class="edge"><title>0&#45;&gt;7</title>
<path fill="none" stroke="black" stroke-width="2" d="M101.868,-150.414C106.551,-141.548 112.234,-130.789 117.404,-121.002"/>
<polygon fill="black" stroke="black" stroke-width="2" points="120.578,-122.486 122.153,-112.009 114.388,-119.217 120.578,-122.486"/>
</g>
<!-- 1 -->
<g id="node2" class="node"><title>1</title>
<ellipse fill="cadetblue" stroke="black" cx="99.1647" cy="-261.808" rx="21.4286" ry="21.4286"/>
<text text-anchor="middle" x="99.1647" y="-256.808" font-family="Times New Roman,serif" font-size="20.00">2</text>
</g>
<!-- 4 -->
<g id="node5" class="node"><title>4</title>
<ellipse fill="cadetblue" stroke="black" cx="215.71" cy="-218.349" rx="21.4286" ry="21.4286"/>
<text text-anchor="middle" x="215.71" y="-213.349" font-family="Times New Roman,serif" font-size="20.00">2</text>
</g>
<!-- 1&#45;&gt;4 -->
<g id="edge6" class="edge"><title>1&#45;&gt;4</title>
<path fill="none" stroke="black" stroke-width="2" d="M119.2,-254.337C137.628,-247.465 165.191,-237.187 186.149,-229.372"/>
<polygon fill="black" stroke="black" stroke-width="2" points="187.4,-232.641 195.547,-225.867 184.954,-226.082 187.4,-232.641"/>
</g>
<!-- 2 -->
<g id="node3" class="node"><title>2</title>
<ellipse fill="cadetblue" stroke="black" cx="81.6023" cy="-21.2132" rx="21.4286" ry="21.4286"/>
<text text-anchor="middle" x="81.6023" y="-16.2132" font-family="Times New Roman,serif" font-size="20.00">2</text>
</g>
<!-- 2&#45;&gt;7 -->
<g id="edge11" class="edge"><title>2&#45;&gt;7</title>
<path fill="none" stroke="black" stroke-width="2" d="M93.8284,-38.6303C99.8633,-47.2276 107.265,-57.7722 113.946,-67.2901"/>
<polygon fill="black" stroke="black" stroke-width="2" points="111.209,-69.4832 119.82,-75.6571 116.939,-65.4614 111.209,-69.4832"/>
</g>
<!-- 3 -->
<g id="node4" class="node"><title>3</title>
<ellipse fill="cadetblue" stroke="black" cx="142.37" cy="-208.631" rx="21.4286" ry="21.4286"/>
<text text-anchor="middle" x="142.37" y="-203.631" font-family="Times New Roman,serif" font-size="20.00">2</text>
</g>
<!-- 3&#45;&gt;0 -->
<g id="edge1" class="edge"><title>3&#45;&gt;0</title>
<path fill="none" stroke="black" stroke-width="2" d="M125.577,-195.505C122.799,-193.334 119.867,-191.043 116.94,-188.755"/>
<polygon fill="black" stroke="black" stroke-width="2" points="118.864,-185.816 108.83,-182.416 114.553,-191.332 118.864,-185.816"/>
</g>
<!-- 3&#45;&gt;7 -->
<g id="edge14" class="edge"><title>3&#45;&gt;7</title>
<path fill="none" stroke="black" stroke-width="2" d="M140.487,-187.453C138.928,-169.903 136.688,-144.697 134.916,-124.762"/>
<polygon fill="black" stroke="black" stroke-width="2" points="138.385,-124.249 134.013,-114.599 131.412,-124.869 138.385,-124.249"/>
</g>
<!-- 4&#45;&gt;0 -->
<g id="edge2" class="edge"><title>4&#45;&gt;0</title>
<path fill="none" stroke="black" stroke-width="2" d="M197.311,-207.599C182.828,-199.564 161.901,-188.877 142.413,-182.327 136.105,-180.206 129.259,-178.223 122.703,-176.472"/>
<polygon fill="black" stroke="black" stroke-width="2" points="123.315,-173.016 112.759,-173.926 121.579,-179.797 123.315,-173.016"/>
</g>
<!-- 5&#45;&gt;1 -->
<g id="edge7" class="edge"><title>5&#45;&gt;1</title>
<path fill="none" stroke="black" stroke-width="2" d="M32.8833,-160.427C45.8567,-180.271 66.9412,-212.52 81.8415,-235.311"/>
<polygon fill="black" stroke="black" stroke-width="2" points="79.0131,-237.381 87.4148,-243.836 84.8721,-233.551 79.0131,-237.381"/>
</g>
<!-- 5&#45;&gt;2 -->
<g id="edge9" class="edge"><title>5&#45;&gt;2</title>
<path fill="none" stroke="black" stroke-width="2" d="M30.782,-123.347C40.6763,-103.462 56.2305,-72.2029 67.5267,-49.5011"/>
<polygon fill="black" stroke="black" stroke-width="2" points="70.7569,-50.8658 72.0783,-40.3537 64.4898,-47.7474 70.7569,-50.8658"/>
</g>
<!-- 5&#45;&gt;3 -->
<g id="edge12" class="edge"><title>5&#45;&gt;3</title>
<path fill="none" stroke="black" stroke-width="2" d="M36.1376,-157.843C46.0358,-167.356 59.6729,-179.35 73.3211,-187.796 80.9297,-192.505 83.4317,-192.669 91.914,-195.517 98.2203,-197.635 105.064,-199.617 111.618,-201.368"/>
<polygon fill="black" stroke="black" stroke-width="2" points="111.002,-204.823 121.558,-203.914 112.739,-198.042 111.002,-204.823"/>
</g>
<!-- 6&#45;&gt;1 -->
<g id="edge8" class="edge"><title>6&#45;&gt;1</title>
<path fill="none" stroke="black" stroke-width="2" d="M176.057,-133.403C160.845,-146.588 138.502,-167.8 123.8,-190 118.86,-197.46 119.141,-200.185 116.065,-208.587 113.331,-216.057 110.613,-224.205 108.183,-231.83"/>
<polygon fill="black" stroke="black" stroke-width="2" points="104.818,-230.862 105.175,-241.45 111.499,-232.95 104.818,-230.862"/>
</g>
<!-- 6&#45;&gt;2 -->
<g id="edge10" class="edge"><title>6&#45;&gt;2</title>
<path fill="none" stroke="black" stroke-width="2" d="M178.504,-103.265C170.651,-94.4131 160.509,-83.5204 150.709,-74.5641 137.033,-62.0665 120.663,-49.3412 107.289,-39.4544"/>
<polygon fill="black" stroke="black" stroke-width="2" points="109.132,-36.4666 98.9914,-33.3983 105.005,-42.1208 109.132,-36.4666"/>
</g>
<!-- 6&#45;&gt;3 -->
<g id="edge13" class="edge"><title>6&#45;&gt;3</title>
<path fill="none" stroke="black" stroke-width="2" d="M181.97,-138.637C174.993,-150.969 165.759,-167.29 157.963,-181.07"/>
<polygon fill="black" stroke="black" stroke-width="2" points="154.719,-179.697 152.841,-190.124 160.811,-183.144 154.719,-179.697"/>
</g>
<!-- 7&#45;&gt;4 -->
<g id="edge15" class="edge"><title>7&#45;&gt;4</title>
<path fill="none" stroke="black" stroke-width="2" d="M143.909,-110.834C158.019,-131.963 181.77,-167.526 198.064,-191.926"/>
<polygon fill="black" stroke="black" stroke-width="2" points="195.234,-193.99 203.699,-200.363 201.056,-190.103 195.234,-193.99"/>
</g>
<!-- 7&#45;&gt;5 -->
<g id="edge16" class="edge"><title>7&#45;&gt;5</title>
<path fill="none" stroke="black" stroke-width="2" d="M112.538,-101.884C95.3033,-109.563 69.9649,-120.854 50.3476,-129.595"/>
<polygon fill="black" stroke="black" stroke-width="2" points="48.6707,-126.511 40.9611,-133.778 51.5199,-132.904 48.6707,-126.511"/>
</g>
<!-- 7&#45;&gt;6 -->
<g id="edge17" class="edge"><title>7&#45;&gt;6</title>
<path fill="none" stroke="black" stroke-width="2" d="M151.59,-101.737C155.478,-103.448 159.638,-105.279 163.764,-107.095"/>
<polygon fill="black" stroke="black" stroke-width="2" points="162.62,-110.415 173.183,-111.24 165.44,-104.008 162.62,-110.415"/>
</g>
</g>
</svg>

