<?xml version="1.0" encoding="UTF-8" standalone="no"?>
<!DOCTYPE svg PUBLIC "-//W3C//DTD SVG 1.1//EN"
 "http://www.w3.org/Graphics/SVG/1.1/DTD/svg11.dtd">
<!-- Generated by graphviz version 2.36.0 (20140111.2315)
 -->
<!-- Title: G Pages: 1 -->
<svg width="100%" height="100%"
 viewBox="0.00 0.00 272.32 222.96" xmlns="http://www.w3.org/2000/svg" xmlns:xlink="http://www.w3.org/1999/xlink">
<g id="graph0" class="graph" transform="scale(1 1) rotate(0) translate(4 218.96)">
<title>G</title>
<!-- 0 -->
<g id="node1" class="node"><title>0</title>
<ellipse fill="cadetblue" stroke="black" cx="199.062" cy="-193.747" rx="21.4286" ry="21.4286"/>
<text text-anchor="middle" x="199.062" y="-188.747" font-family="Times New Roman,serif" font-size="20.00">2</text>
</g>
<!-- 6 -->
<g id="node7" class="node"><title>6</title>
<ellipse fill="cadetblue" stroke="black" cx="178.432" cy="-110.701" rx="21.4286" ry="21.4286"/>
<text text-anchor="middle" x="178.432" y="-105.701" font-family="Times New Roman,serif" font-size="20.00">2</text>
</g>
<!-- 0&#45;&gt;6 -->
<g id="edge3" class="edge"><title>0&#45;&gt;6</title>
<path fill="none" stroke="black" stroke-width="2" d="M193.856,-172.791C191.493,-163.277 188.651,-151.836 186.053,-141.381"/>
<polygon fill="black" stroke="black" stroke-width="2" points="189.372,-140.224 183.565,-131.363 182.579,-141.911 189.372,-140.224"/>
</g>
<!-- 7 -->
<g id="node8" class="node"><title>7</title>
<ellipse fill="dodgerblue" stroke="black" cx="127.585" cy="-115.766" rx="21.4286" ry="21.4286"/>
<text text-anchor="middle" x="127.585" y="-110.766" font-family="Times New Roman,serif" font-size="20.00">4</text>
</g>
<!-- 0&#45;&gt;7 -->
<g id="edge4" class="edge"><title>0&#45;&gt;7</title>
<path fill="none" stroke="black" stroke-width="2" d="M184.598,-177.966C174.328,-166.762 160.374,-151.538 148.841,-138.956"/>
<polygon fill="black" stroke="black" stroke-width="2" points="151.365,-136.53 142.028,-131.523 146.205,-141.26 151.365,-136.53"/>
</g>
<!-- 1 -->
<g id="node2" class="node"><title>1</title>
<ellipse fill="cadetblue" stroke="black" cx="21.2132" cy="-135.52" rx="21.4286" ry="21.4286"/>
<text text-anchor="middle" x="21.2132" y="-130.52" font-family="Times New Roman,serif" font-size="20.00">2</text>
</g>
<!-- 1&#45;&gt;7 -->
<g id="edge7" class="edge"><title>1&#45;&gt;7</title>
<path fill="none" stroke="black" stroke-width="2" d="M42.2288,-131.617C57.672,-128.749 78.9115,-124.805 96.3397,-121.568"/>
<polygon fill="black" stroke="black" stroke-width="2" points="97.42,-124.928 106.613,-119.66 96.1418,-118.045 97.42,-124.928"/>
</g>
<!-- 2 -->
<g id="node3" class="node"><title>2</title>
<ellipse fill="cadetblue" stroke="black" cx="168.787" cy="-21.2132" rx="21.4286" ry="21.4286"/>
<text text-anchor="middle" x="168.787" y="-16.2132" font-family="Times New Roman,serif" font-size="20.00">2</text>
</g>
<!-- 2&#45;&gt;6 -->
<g id="edge10" class="edge"><title>2&#45;&gt;6</title>
<path fill="none" stroke="black" stroke-width="2" d="M171.073,-42.4206C172.253,-53.3738 173.717,-66.9576 175.028,-79.1179"/>
<polygon fill="black" stroke="black" stroke-width="2" points="171.578,-79.7684 176.129,-89.3358 178.537,-79.0183 171.578,-79.7684"/>
</g>
<!-- 2&#45;&gt;7 -->
<g id="edge11" class="edge"><title>2&#45;&gt;7</title>
<path fill="none" stroke="black" stroke-width="2" d="M160.25,-40.8045C154.449,-54.1162 146.678,-71.9493 140.171,-86.882"/>
<polygon fill="black" stroke="black" stroke-width="2" points="136.897,-85.6338 136.111,-96.1995 143.314,-88.4303 136.897,-85.6338"/>
</g>
<!-- 3 -->
<g id="node4" class="node"><title>3</title>
<ellipse fill="cadetblue" stroke="black" cx="97.8311" cy="-183.094" rx="21.4286" ry="21.4286"/>
<text text-anchor="middle" x="97.8311" y="-178.094" font-family="Times New Roman,serif" font-size="20.00">2</text>
</g>
<!-- 3&#45;&gt;0 -->
<g id="edge1" class="edge"><title>3&#45;&gt;0</title>
<path fill="none" stroke="black" stroke-width="2" d="M119.3,-185.353C133.258,-186.822 151.702,-188.763 167.338,-190.408"/>
<polygon fill="black" stroke="black" stroke-width="2" points="167.313,-193.925 177.625,-191.491 168.046,-186.963 167.313,-193.925"/>
</g>
<!-- 3&#45;&gt;1 -->
<g id="edge5" class="edge"><title>3&#45;&gt;1</title>
<path fill="none" stroke="black" stroke-width="2" d="M79.6737,-171.82C70.2273,-165.954 58.4956,-158.67 48.0264,-152.169"/>
<polygon fill="black" stroke="black" stroke-width="2" points="49.582,-149.015 39.2402,-146.714 45.8894,-154.962 49.582,-149.015"/>
</g>
<!-- 5 -->
<g id="node6" class="node"><title>5</title>
<ellipse fill="brown" stroke="black" cx="77.2407" cy="-65.3343" rx="21.4286" ry="21.4286"/>
<text text-anchor="middle" x="77.2407" y="-60.3343" font-family="Times New Roman,serif" font-size="20.00">3</text>
</g>
<!-- 3&#45;&gt;5 -->
<g id="edge12" class="edge"><title>3&#45;&gt;5</title>
<path fill="none" stroke="black" stroke-width="2" d="M94.1499,-162.041C90.9635,-143.818 86.3113,-117.211 82.6928,-96.5161"/>
<polygon fill="black" stroke="black" stroke-width="2" points="86.1295,-95.8499 80.9594,-86.6022 79.2341,-97.0556 86.1295,-95.8499"/>
</g>
<!-- 4 -->
<g id="node5" class="node"><title>4</title>
<ellipse fill="cadetblue" stroke="black" cx="243.102" cy="-95.5839" rx="21.4286" ry="21.4286"/>
<text text-anchor="middle" x="243.102" y="-90.5839" font-family="Times New Roman,serif" font-size="20.00">2</text>
</g>
<!-- 4&#45;&gt;0 -->
<g id="edge2" class="edge"><title>4&#45;&gt;0</title>
<path fill="none" stroke="black" stroke-width="2" d="M234.401,-114.978C228.049,-129.137 219.328,-148.575 212.139,-164.599"/>
<polygon fill="black" stroke="black" stroke-width="2" points="208.796,-163.501 207.896,-174.057 215.183,-166.366 208.796,-163.501"/>
</g>
<!-- 4&#45;&gt;2 -->
<g id="edge8" class="edge"><title>4&#45;&gt;2</title>
<path fill="none" stroke="black" stroke-width="2" d="M228.064,-80.5339C217.386,-69.8486 202.878,-55.3293 190.887,-43.3298"/>
<polygon fill="black" stroke="black" stroke-width="2" points="193.348,-40.8406 183.804,-36.2408 188.396,-45.7885 193.348,-40.8406"/>
</g>
<!-- 5&#45;&gt;1 -->
<g id="edge6" class="edge"><title>5&#45;&gt;1</title>
<path fill="none" stroke="black" stroke-width="2" d="M63.963,-81.9674C57.1553,-90.4953 48.7246,-101.057 41.154,-110.54"/>
<polygon fill="black" stroke="black" stroke-width="2" points="38.2882,-108.52 34.7848,-118.519 43.7589,-112.887 38.2882,-108.52"/>
</g>
<!-- 5&#45;&gt;2 -->
<g id="edge9" class="edge"><title>5&#45;&gt;2</title>
<path fill="none" stroke="black" stroke-width="2" d="M96.6553,-55.9773C109.278,-49.8937 125.958,-41.8549 140.098,-35.04"/>
<polygon fill="black" stroke="black" stroke-width="2" points="141.912,-38.0512 149.4,-30.5567 138.873,-31.7454 141.912,-38.0512"/>
</g>
<!-- 6&#45;&gt;3 -->
<g id="edge13" class="edge"><title>6&#45;&gt;3</title>
<path fill="none" stroke="black" stroke-width="2" d="M162.508,-125.004C150.806,-135.514 134.712,-149.969 121.506,-161.83"/>
<polygon fill="black" stroke="black" stroke-width="2" points="118.823,-159.535 113.722,-168.821 123.501,-164.743 118.823,-159.535"/>
</g>
<!-- 6&#45;&gt;4 -->
<g id="edge15" class="edge"><title>6&#45;&gt;4</title>
<path fill="none" stroke="black" stroke-width="2" d="M199.25,-105.835C203.404,-104.864 207.85,-103.824 212.258,-102.794"/>
<polygon fill="black" stroke="black" stroke-width="2" points="213.382,-106.126 222.323,-100.441 211.789,-99.3093 213.382,-106.126"/>
</g>
<!-- 6&#45;&gt;5 -->
<g id="edge17" class="edge"><title>6&#45;&gt;5</title>
<path fill="none" stroke="black" stroke-width="2" d="M158.921,-101.954C143.942,-95.2384 123.029,-85.8623 106.114,-78.2788"/>
<polygon fill="black" stroke="black" stroke-width="2" points="107.248,-74.9519 96.6915,-74.0546 104.385,-81.3393 107.248,-74.9519"/>
</g>
<!-- 6&#45;&gt;7 -->
<g id="edge19" class="edge"><title>6&#45;&gt;7</title>
<path fill="none" stroke="black" stroke-width="2" d="M157.163,-112.82C157.078,-112.828 156.993,-112.837 156.907,-112.845"/>
<polygon fill="black" stroke="black" stroke-width="2" points="158.536,-109.165 148.932,-113.639 159.23,-116.131 158.536,-109.165"/>
</g>
<!-- 7&#45;&gt;3 -->
<g id="edge14" class="edge"><title>7&#45;&gt;3</title>
<path fill="none" stroke="black" stroke-width="2" d="M118.979,-135.24C116.411,-141.051 113.538,-147.552 110.757,-153.845"/>
<polygon fill="black" stroke="black" stroke-width="2" points="107.362,-152.869 106.521,-163.431 113.764,-155.699 107.362,-152.869"/>
</g>
<!-- 7&#45;&gt;4 -->
<g id="edge16" class="edge"><title>7&#45;&gt;4</title>
<path fill="none" stroke="black" stroke-width="2" d="M143.122,-101.175C152.541,-93.698 165.261,-85.8557 178.463,-84.3967 189.787,-83.1453 202.13,-84.58 212.968,-86.7926"/>
<polygon fill="black" stroke="black" stroke-width="2" points="212.281,-90.2262 222.814,-89.0901 213.871,-83.4093 212.281,-90.2262"/>
</g>
<!-- 7&#45;&gt;5 -->
<g id="edge18" class="edge"><title>7&#45;&gt;5</title>
<path fill="none" stroke="black" stroke-width="2" d="M112.48,-100.635C108.398,-96.5455 103.893,-92.0328 99.5073,-87.6396"/>
<polygon fill="black" stroke="black" stroke-width="2" points="101.877,-85.0592 92.3349,-80.4547 96.9228,-90.0046 101.877,-85.0592"/>
</g>
</g>
</svg>

