<?xml version="1.0" encoding="UTF-8" standalone="no"?>
<!DOCTYPE svg PUBLIC "-//W3C//DTD SVG 1.1//EN"
 "http://www.w3.org/Graphics/SVG/1.1/DTD/svg11.dtd">
<!-- Generated by graphviz version 2.36.0 (20140111.2315)
 -->
<!-- Title: G Pages: 1 -->
<svg width="100%" height="100%"
 viewBox="0.00 0.00 207.12 218.40" xmlns="http://www.w3.org/2000/svg" xmlns:xlink="http://www.w3.org/1999/xlink">
<g id="graph0" class="graph" transform="scale(1 1) rotate(0) translate(4 214.397)">
<title>G</title>
<!-- 0 -->
<g id="node1" class="node"><title>0</title>
<ellipse fill="cadetblue" stroke="black" cx="139.998" cy="-24.2322" rx="21.4286" ry="21.4286"/>
<text text-anchor="middle" x="139.998" y="-19.2322" font-family="Times New Roman,serif" font-size="20.00">2</text>
</g>
<!-- 6 -->
<g id="node7" class="node"><title>6</title>
<ellipse fill="cadetblue" stroke="black" cx="110.083" cy="-127.844" rx="21.4286" ry="21.4286"/>
<text text-anchor="middle" x="110.083" y="-122.844" font-family="Times New Roman,serif" font-size="20.00">2</text>
</g>
<!-- 0&#45;&gt;6 -->
<g id="edge3" class="edge"><title>0&#45;&gt;6</title>
<path fill="none" stroke="black" stroke-width="2" d="M134.997,-45.0233C132.545,-54.8792 129.464,-66.7942 126.391,-77.4139 124.512,-83.9107 122.367,-90.8339 120.264,-97.4032"/>
<polygon fill="black" stroke="black" stroke-width="2" points="116.803,-96.7307 117.039,-107.323 123.46,-98.8952 116.803,-96.7307"/>
</g>
<!-- 7 -->
<g id="node8" class="node"><title>7</title>
<ellipse fill="brown" stroke="black" cx="100.087" cy="-77.4127" rx="21.4286" ry="21.4286"/>
<text text-anchor="middle" x="100.087" y="-72.4127" font-family="Times New Roman,serif" font-size="20.00">3</text>
</g>
<!-- 0&#45;&gt;7 -->
<g id="edge4" class="edge"><title>0&#45;&gt;7</title>
<path fill="none" stroke="black" stroke-width="2" d="M127.15,-41.3516C124.586,-44.7675 121.843,-48.4233 119.122,-52.0487"/>
<polygon fill="black" stroke="black" stroke-width="2" points="116.114,-50.2263 112.91,-60.3254 121.712,-54.4281 116.114,-50.2263"/>
</g>
<!-- 1 -->
<g id="node2" class="node"><title>1</title>
<ellipse fill="cadetblue" stroke="black" cx="21.2132" cy="-115.384" rx="21.4286" ry="21.4286"/>
<text text-anchor="middle" x="21.2132" y="-110.384" font-family="Times New Roman,serif" font-size="20.00">2</text>
</g>
<!-- 4 -->
<g id="node5" class="node"><title>4</title>
<ellipse fill="cadetblue" stroke="black" cx="41.9836" cy="-21.2132" rx="21.4286" ry="21.4286"/>
<text text-anchor="middle" x="41.9836" y="-16.2132" font-family="Times New Roman,serif" font-size="20.00">2</text>
</g>
<!-- 1&#45;&gt;4 -->
<g id="edge5" class="edge"><title>1&#45;&gt;4</title>
<path fill="none" stroke="black" stroke-width="2" d="M25.8228,-94.4844C28.5657,-82.0486 32.0967,-66.0396 35.1581,-52.1593"/>
<polygon fill="black" stroke="black" stroke-width="2" points="38.6508,-52.5735 37.3869,-42.0543 31.8151,-51.0657 38.6508,-52.5735"/>
</g>
<!-- 1&#45;&gt;7 -->
<g id="edge8" class="edge"><title>1&#45;&gt;7</title>
<path fill="none" stroke="black" stroke-width="2" d="M40.71,-105.998C50.0704,-101.492 61.4646,-96.0061 71.7591,-91.0502"/>
<polygon fill="black" stroke="black" stroke-width="2" points="73.3222,-94.1822 80.8142,-86.6908 70.2857,-87.875 73.3222,-94.1822"/>
</g>
<!-- 2 -->
<g id="node3" class="node"><title>2</title>
<ellipse fill="cadetblue" stroke="black" cx="158.106" cy="-183.878" rx="21.4286" ry="21.4286"/>
<text text-anchor="middle" x="158.106" y="-178.878" font-family="Times New Roman,serif" font-size="20.00">2</text>
</g>
<!-- 2&#45;&gt;7 -->
<g id="edge11" class="edge"><title>2&#45;&gt;7</title>
<path fill="none" stroke="black" stroke-width="2" d="M152.279,-163.274C147.352,-147.721 139.384,-126.234 128.705,-109.266 126.786,-106.217 124.567,-103.18 122.232,-100.261"/>
<polygon fill="black" stroke="black" stroke-width="2" points="124.668,-97.7259 115.491,-92.4308 119.363,-102.293 124.668,-97.7259"/>
</g>
<!-- 3 -->
<g id="node4" class="node"><title>3</title>
<ellipse fill="cadetblue" stroke="black" cx="177.911" cy="-104.947" rx="21.4286" ry="21.4286"/>
<text text-anchor="middle" x="177.911" y="-99.9474" font-family="Times New Roman,serif" font-size="20.00">2</text>
</g>
<!-- 3&#45;&gt;0 -->
<g id="edge1" class="edge"><title>3&#45;&gt;0</title>
<path fill="none" stroke="black" stroke-width="2" d="M168.733,-85.4085C164.123,-75.5933 158.45,-63.5156 153.366,-52.6918"/>
<polygon fill="black" stroke="black" stroke-width="2" points="156.51,-51.1544 149.091,-43.5912 150.174,-54.1305 156.51,-51.1544"/>
</g>
<!-- 5 -->
<g id="node6" class="node"><title>5</title>
<ellipse fill="cadetblue" stroke="black" cx="84.4908" cy="-189.183" rx="21.4286" ry="21.4286"/>
<text text-anchor="middle" x="84.4908" y="-184.183" font-family="Times New Roman,serif" font-size="20.00">2</text>
</g>
<!-- 3&#45;&gt;5 -->
<g id="edge12" class="edge"><title>3&#45;&gt;5</title>
<path fill="none" stroke="black" stroke-width="2" d="M162.064,-119.237C147.301,-132.549 125.093,-152.573 108.216,-167.79"/>
<polygon fill="black" stroke="black" stroke-width="2" points="105.499,-165.528 100.416,-174.824 110.187,-170.727 105.499,-165.528"/>
</g>
<!-- 4&#45;&gt;0 -->
<g id="edge2" class="edge"><title>4&#45;&gt;0</title>
<path fill="none" stroke="black" stroke-width="2" d="M63.2512,-21.8683C76.4804,-22.2758 93.7308,-22.8071 108.525,-23.2628"/>
<polygon fill="black" stroke="black" stroke-width="2" points="108.668,-26.7688 118.771,-23.5784 108.884,-19.7721 108.668,-26.7688"/>
</g>
<!-- 5&#45;&gt;1 -->
<g id="edge6" class="edge"><title>5&#45;&gt;1</title>
<path fill="none" stroke="black" stroke-width="2" d="M70.4475,-172.805C62.0094,-162.964 51.1229,-150.267 41.7334,-139.316"/>
<polygon fill="black" stroke="black" stroke-width="2" points="44.3835,-137.03 35.2173,-131.717 39.0695,-141.586 44.3835,-137.03"/>
</g>
<!-- 5&#45;&gt;2 -->
<g id="edge9" class="edge"><title>5&#45;&gt;2</title>
<path fill="none" stroke="black" stroke-width="2" d="M105.783,-187.649C112.345,-187.176 119.712,-186.645 126.801,-186.134"/>
<polygon fill="black" stroke="black" stroke-width="2" points="127.139,-189.619 136.861,-185.409 126.635,-182.637 127.139,-189.619"/>
</g>
<!-- 6&#45;&gt;1 -->
<g id="edge7" class="edge"><title>6&#45;&gt;1</title>
<path fill="none" stroke="black" stroke-width="2" d="M89.0219,-124.891C78.1444,-123.366 64.6544,-121.475 52.5782,-119.782"/>
<polygon fill="black" stroke="black" stroke-width="2" points="52.82,-116.281 42.4308,-118.359 51.848,-123.213 52.82,-116.281"/>
</g>
<!-- 6&#45;&gt;2 -->
<g id="edge10" class="edge"><title>6&#45;&gt;2</title>
<path fill="none" stroke="black" stroke-width="2" d="M123.973,-144.051C128.216,-149.003 132.976,-154.556 137.563,-159.909"/>
<polygon fill="black" stroke="black" stroke-width="2" points="134.915,-162.198 144.08,-167.513 140.23,-157.642 134.915,-162.198"/>
</g>
<!-- 6&#45;&gt;3 -->
<g id="edge13" class="edge"><title>6&#45;&gt;3</title>
<path fill="none" stroke="black" stroke-width="2" d="M130.433,-120.974C135.933,-119.118 142.003,-117.069 147.911,-115.074"/>
<polygon fill="black" stroke="black" stroke-width="2" points="149.219,-118.327 157.575,-111.812 146.98,-111.695 149.219,-118.327"/>
</g>
<!-- 6&#45;&gt;5 -->
<g id="edge16" class="edge"><title>6&#45;&gt;5</title>
<path fill="none" stroke="black" stroke-width="2" d="M101.844,-147.59C100.201,-151.53 98.4413,-155.747 96.6967,-159.928"/>
<polygon fill="black" stroke="black" stroke-width="2" points="93.3341,-158.898 92.7137,-169.475 99.7944,-161.593 93.3341,-158.898"/>
</g>
<!-- 7&#45;&gt;3 -->
<g id="edge14" class="edge"><title>7&#45;&gt;3</title>
<path fill="none" stroke="black" stroke-width="2" d="M120.128,-84.5035C128.595,-87.4992 138.635,-91.0513 147.951,-94.3473"/>
<polygon fill="black" stroke="black" stroke-width="2" points="147.072,-97.7489 157.667,-97.7849 149.407,-91.1498 147.072,-97.7489"/>
</g>
<!-- 7&#45;&gt;4 -->
<g id="edge15" class="edge"><title>7&#45;&gt;4</title>
<path fill="none" stroke="black" stroke-width="2" d="M84.8208,-62.6469C78.7309,-56.7565 71.5888,-49.8484 64.9011,-43.3798"/>
<polygon fill="black" stroke="black" stroke-width="2" points="66.9705,-40.5121 57.3493,-36.0755 62.1039,-45.5436 66.9705,-40.5121"/>
</g>
<!-- 7&#45;&gt;6 -->
<g id="edge17" class="edge"><title>7&#45;&gt;6</title>
<path fill="none" stroke="black" stroke-width="2" d="M104.268,-98.5079C104.285,-98.5956 104.303,-98.6834 104.32,-98.7713"/>
<polygon fill="black" stroke="black" stroke-width="2" points="100.573,-97.8663 105.95,-106.995 107.439,-96.5053 100.573,-97.8663"/>
</g>
</g>
</svg>

