<?xml version="1.0" encoding="UTF-8" standalone="no"?>
<!DOCTYPE svg PUBLIC "-//W3C//DTD SVG 1.1//EN"
 "http://www.w3.org/Graphics/SVG/1.1/DTD/svg11.dtd">
<!-- Generated by graphviz version 2.36.0 (20140111.2315)
 -->
<!-- Title: G Pages: 1 -->
<svg width="100%" height="100%"
 viewBox="0.00 0.00 255.41 255.03" xmlns="http://www.w3.org/2000/svg" xmlns:xlink="http://www.w3.org/1999/xlink">
<g id="graph0" class="graph" transform="scale(1 1) rotate(0) translate(4 251.034)">
<title>G</title>
<!-- 0 -->
<g id="node1" class="node"><title>0</title>
<ellipse fill="cadetblue" stroke="black" cx="93.0969" cy="-79.9451" rx="21.4286" ry="21.4286"/>
<text text-anchor="middle" x="93.0969" y="-74.9451" font-family="Times New Roman,serif" font-size="20.00">2</text>
</g>
<!-- 4 -->
<g id="node5" class="node"><title>4</title>
<ellipse fill="cadetblue" stroke="black" cx="209.253" cy="-23.0664" rx="21.4286" ry="21.4286"/>
<text text-anchor="middle" x="209.253" y="-18.0664" font-family="Times New Roman,serif" font-size="20.00">2</text>
</g>
<!-- 0&#45;&gt;4 -->
<g id="edge2" class="edge"><title>0&#45;&gt;4</title>
<path fill="none" stroke="black" stroke-width="2" d="M112.278,-70.5527C130.941,-61.4137 159.523,-47.418 180.828,-36.9852"/>
<polygon fill="black" stroke="black" stroke-width="2" points="182.602,-40.014 190.044,-32.4728 179.523,-33.7272 182.602,-40.014"/>
</g>
<!-- 5 -->
<g id="node6" class="node"><title>5</title>
<ellipse fill="brown" stroke="black" cx="21.2132" cy="-129.996" rx="21.4286" ry="21.4286"/>
<text text-anchor="middle" x="21.2132" y="-124.996" font-family="Times New Roman,serif" font-size="20.00">3</text>
</g>
<!-- 0&#45;&gt;5 -->
<g id="edge3" class="edge"><title>0&#45;&gt;5</title>
<path fill="none" stroke="black" stroke-width="2" d="M75.3279,-92.3171C66.797,-98.2569 56.4126,-105.487 47.0304,-112.02"/>
<polygon fill="black" stroke="black" stroke-width="2" points="44.9846,-109.179 38.7778,-117.766 48.9844,-114.924 44.9846,-109.179"/>
</g>
<!-- 1 -->
<g id="node2" class="node"><title>1</title>
<ellipse fill="cadetblue" stroke="black" cx="104.852" cy="-225.821" rx="21.4286" ry="21.4286"/>
<text text-anchor="middle" x="104.852" y="-220.821" font-family="Times New Roman,serif" font-size="20.00">2</text>
</g>
<!-- 3 -->
<g id="node4" class="node"><title>3</title>
<ellipse fill="cadetblue" stroke="black" cx="194.163" cy="-213.681" rx="21.4286" ry="21.4286"/>
<text text-anchor="middle" x="194.163" y="-208.681" font-family="Times New Roman,serif" font-size="20.00">2</text>
</g>
<!-- 1&#45;&gt;3 -->
<g id="edge5" class="edge"><title>1&#45;&gt;3</title>
<path fill="none" stroke="black" stroke-width="2" d="M126.018,-222.944C136.949,-221.458 150.506,-219.615 162.643,-217.965"/>
<polygon fill="black" stroke="black" stroke-width="2" points="163.403,-221.394 172.84,-216.579 162.46,-214.458 163.403,-221.394"/>
</g>
<!-- 6 -->
<g id="node7" class="node"><title>6</title>
<ellipse fill="brown" stroke="black" cx="226.195" cy="-124.936" rx="21.4286" ry="21.4286"/>
<text text-anchor="middle" x="226.195" y="-119.936" font-family="Times New Roman,serif" font-size="20.00">3</text>
</g>
<!-- 1&#45;&gt;6 -->
<g id="edge7" class="edge"><title>1&#45;&gt;6</title>
<path fill="none" stroke="black" stroke-width="2" d="M121.217,-212.215C141.934,-194.991 177.804,-165.168 201.767,-145.245"/>
<polygon fill="black" stroke="black" stroke-width="2" points="204.25,-147.733 209.702,-138.648 199.775,-142.35 204.25,-147.733"/>
</g>
<!-- 2 -->
<g id="node3" class="node"><title>2</title>
<ellipse fill="cadetblue" stroke="black" cx="116.636" cy="-21.2132" rx="21.4286" ry="21.4286"/>
<text text-anchor="middle" x="116.636" y="-16.2132" font-family="Times New Roman,serif" font-size="20.00">2</text>
</g>
<!-- 2&#45;&gt;5 -->
<g id="edge10" class="edge"><title>2&#45;&gt;5</title>
<path fill="none" stroke="black" stroke-width="2" d="M100.483,-35.5367C92.403,-42.9616 82.6397,-52.3378 74.5139,-61.3281 62.2283,-74.9206 49.6078,-91.0646 39.7331,-104.283"/>
<polygon fill="black" stroke="black" stroke-width="2" points="36.7969,-102.367 33.6716,-112.491 42.4278,-106.526 36.7969,-102.367"/>
</g>
<!-- 2&#45;&gt;6 -->
<g id="edge11" class="edge"><title>2&#45;&gt;6</title>
<path fill="none" stroke="black" stroke-width="2" d="M132.333,-36.0741C150.882,-53.6352 181.906,-83.0066 203.174,-103.141"/>
<polygon fill="black" stroke="black" stroke-width="2" points="200.859,-105.769 210.527,-110.102 205.671,-100.686 200.859,-105.769"/>
</g>
<!-- 3&#45;&gt;0 -->
<g id="edge1" class="edge"><title>3&#45;&gt;0</title>
<path fill="none" stroke="black" stroke-width="2" d="M176.745,-201.553C160.773,-189.691 137.36,-170.336 122.156,-148.976 113.826,-137.273 107.274,-122.816 102.517,-110.161"/>
<polygon fill="black" stroke="black" stroke-width="2" points="105.727,-108.741 99.0865,-100.486 99.1291,-111.08 105.727,-108.741"/>
</g>
<!-- 7 -->
<g id="node8" class="node"><title>7</title>
<ellipse fill="cadetblue" stroke="black" cx="140.756" cy="-130.377" rx="21.4286" ry="21.4286"/>
<text text-anchor="middle" x="140.756" y="-125.377" font-family="Times New Roman,serif" font-size="20.00">2</text>
</g>
<!-- 3&#45;&gt;7 -->
<g id="edge14" class="edge"><title>3&#45;&gt;7</title>
<path fill="none" stroke="black" stroke-width="2" d="M182.575,-195.605C175.366,-184.361 165.967,-169.7 157.905,-157.125"/>
<polygon fill="black" stroke="black" stroke-width="2" points="160.666,-154.947 152.322,-148.417 154.773,-158.725 160.666,-154.947"/>
</g>
<!-- 4&#45;&gt;2 -->
<g id="edge9" class="edge"><title>4&#45;&gt;2</title>
<path fill="none" stroke="black" stroke-width="2" d="M187.772,-22.6366C175.966,-22.4004 161.103,-22.103 148.019,-21.8412"/>
<polygon fill="black" stroke="black" stroke-width="2" points="148.069,-18.3416 138.001,-21.6407 147.929,-25.3402 148.069,-18.3416"/>
</g>
<!-- 4&#45;&gt;7 -->
<g id="edge16" class="edge"><title>4&#45;&gt;7</title>
<path fill="none" stroke="black" stroke-width="2" d="M197.633,-41.2701C186.644,-58.4861 170.03,-84.5158 157.591,-104.003"/>
<polygon fill="black" stroke="black" stroke-width="2" points="154.635,-102.129 152.204,-112.442 160.535,-105.896 154.635,-102.129"/>
</g>
<!-- 5&#45;&gt;1 -->
<g id="edge6" class="edge"><title>5&#45;&gt;1</title>
<path fill="none" stroke="black" stroke-width="2" d="M35.4014,-146.251C48.8198,-161.624 69.1078,-184.868 84.2968,-202.27"/>
<polygon fill="black" stroke="black" stroke-width="2" points="81.661,-204.573 90.8736,-209.805 86.9347,-199.97 81.661,-204.573"/>
</g>
<!-- 6&#45;&gt;3 -->
<g id="edge13" class="edge"><title>6&#45;&gt;3</title>
<path fill="none" stroke="black" stroke-width="2" d="M218.926,-145.073C214.79,-156.534 209.531,-171.105 204.924,-183.868"/>
<polygon fill="black" stroke="black" stroke-width="2" points="201.506,-183.029 201.403,-193.623 208.09,-185.405 201.506,-183.029"/>
</g>
<!-- 6&#45;&gt;4 -->
<g id="edge15" class="edge"><title>6&#45;&gt;4</title>
<path fill="none" stroke="black" stroke-width="2" d="M222.684,-103.828C220.299,-89.4867 217.104,-70.2736 214.428,-54.1853"/>
<polygon fill="black" stroke="black" stroke-width="2" points="217.852,-53.4371 212.759,-44.1468 210.947,-54.5855 217.852,-53.4371"/>
</g>
<!-- 7&#45;&gt;0 -->
<g id="edge4" class="edge"><title>7&#45;&gt;0</title>
<path fill="none" stroke="black" stroke-width="2" d="M125.938,-114.696C122.408,-110.961 118.568,-106.898 114.8,-102.911"/>
<polygon fill="black" stroke="black" stroke-width="2" points="117.155,-100.307 107.743,-95.4425 112.067,-105.115 117.155,-100.307"/>
</g>
<!-- 7&#45;&gt;1 -->
<g id="edge8" class="edge"><title>7&#45;&gt;1</title>
<path fill="none" stroke="black" stroke-width="2" d="M133.142,-150.618C128.158,-163.867 121.561,-181.403 115.992,-196.208"/>
<polygon fill="black" stroke="black" stroke-width="2" points="112.578,-195.344 112.333,-205.936 119.129,-197.809 112.578,-195.344"/>
</g>
<!-- 7&#45;&gt;2 -->
<g id="edge12" class="edge"><title>7&#45;&gt;2</title>
<path fill="none" stroke="black" stroke-width="2" d="M136.163,-109.587C132.581,-93.3773 127.551,-70.6125 123.494,-52.2477"/>
<polygon fill="black" stroke="black" stroke-width="2" points="126.87,-51.3067 121.295,-42.2974 120.035,-52.817 126.87,-51.3067"/>
</g>
<!-- 7&#45;&gt;5 -->
<g id="edge17" class="edge"><title>7&#45;&gt;5</title>
<path fill="none" stroke="black" stroke-width="2" d="M119.385,-130.308C100.885,-130.249 73.8753,-130.163 52.8672,-130.096"/>
<polygon fill="black" stroke="black" stroke-width="2" points="52.8143,-126.596 42.8032,-130.064 52.7919,-133.596 52.8143,-126.596"/>
</g>
<!-- 7&#45;&gt;6 -->
<g id="edge18" class="edge"><title>7&#45;&gt;6</title>
<path fill="none" stroke="black" stroke-width="2" d="M162.316,-129.004C172.104,-128.38 183.875,-127.631 194.631,-126.946"/>
<polygon fill="black" stroke="black" stroke-width="2" points="195.181,-130.418 204.938,-126.289 194.736,-123.432 195.181,-130.418"/>
</g>
</g>
</svg>

