<?xml version="1.0" encoding="UTF-8" standalone="no"?>
<!DOCTYPE svg PUBLIC "-//W3C//DTD SVG 1.1//EN"
 "http://www.w3.org/Graphics/SVG/1.1/DTD/svg11.dtd">
<!-- Generated by graphviz version 2.36.0 (20140111.2315)
 -->
<!-- Title: G Pages: 1 -->
<svg width="100%" height="100%"
 viewBox="0.00 0.00 236.13 227.86" xmlns="http://www.w3.org/2000/svg" xmlns:xlink="http://www.w3.org/1999/xlink">
<g id="graph0" class="graph" transform="scale(1 1) rotate(0) translate(4 223.864)">
<title>G</title>
<!-- 0 -->
<g id="node1" class="node"><title>0</title>
<ellipse fill="cadetblue" stroke="black" cx="187.143" cy="-158.229" rx="21.4286" ry="21.4286"/>
<text text-anchor="middle" x="187.143" y="-153.229" font-family="Times New Roman,serif" font-size="20.00">2</text>
</g>
<!-- 6 -->
<g id="node7" class="node"><title>6</title>
<ellipse fill="cadetblue" stroke="black" cx="136.712" cy="-112.487" rx="21.4286" ry="21.4286"/>
<text text-anchor="middle" x="136.712" y="-107.487" font-family="Times New Roman,serif" font-size="20.00">2</text>
</g>
<!-- 0&#45;&gt;6 -->
<g id="edge3" class="edge"><title>0&#45;&gt;6</title>
<path fill="none" stroke="black" stroke-width="2" d="M171.186,-143.756C167.691,-140.586 163.92,-137.165 160.199,-133.791"/>
<polygon fill="black" stroke="black" stroke-width="2" points="162.496,-131.149 152.738,-127.023 157.793,-136.334 162.496,-131.149"/>
</g>
<!-- 7 -->
<g id="node8" class="node"><title>7</title>
<ellipse fill="cadetblue" stroke="black" cx="84.1631" cy="-109.211" rx="21.4286" ry="21.4286"/>
<text text-anchor="middle" x="84.1631" y="-104.211" font-family="Times New Roman,serif" font-size="20.00">2</text>
</g>
<!-- 0&#45;&gt;7 -->
<g id="edge4" class="edge"><title>0&#45;&gt;7</title>
<path fill="none" stroke="black" stroke-width="2" d="M166.689,-151.499C152.669,-146.571 133.833,-139.323 118.089,-131.065 115.53,-129.722 112.915,-128.245 110.328,-126.712"/>
<polygon fill="black" stroke="black" stroke-width="2" points="112.106,-123.696 101.765,-121.393 108.413,-129.642 112.106,-123.696"/>
</g>
<!-- 1 -->
<g id="node2" class="node"><title>1</title>
<ellipse fill="cadetblue" stroke="black" cx="28.3855" cy="-148.183" rx="21.4286" ry="21.4286"/>
<text text-anchor="middle" x="28.3855" y="-143.183" font-family="Times New Roman,serif" font-size="20.00">2</text>
</g>
<!-- 1&#45;&gt;6 -->
<g id="edge7" class="edge"><title>1&#45;&gt;6</title>
<path fill="none" stroke="black" stroke-width="2" d="M49.2705,-144.314C59.8413,-142.137 72.8066,-139.128 84.1619,-135.515 92.6886,-132.803 94.5501,-131.365 102.762,-127.812 104.543,-127.042 106.372,-126.241 108.215,-125.429"/>
<polygon fill="black" stroke="black" stroke-width="2" points="109.662,-128.615 117.369,-121.345 106.81,-122.223 109.662,-128.615"/>
</g>
<!-- 1&#45;&gt;7 -->
<g id="edge8" class="edge"><title>1&#45;&gt;7</title>
<path fill="none" stroke="black" stroke-width="2" d="M46.0339,-135.852C49.8997,-133.151 54.0704,-130.237 58.1854,-127.361"/>
<polygon fill="black" stroke="black" stroke-width="2" points="60.2453,-130.192 66.4381,-121.595 56.2361,-124.454 60.2453,-130.192"/>
</g>
<!-- 2 -->
<g id="node3" class="node"><title>2</title>
<ellipse fill="cadetblue" stroke="black" cx="116.189" cy="-21.2132" rx="21.4286" ry="21.4286"/>
<text text-anchor="middle" x="116.189" y="-16.2132" font-family="Times New Roman,serif" font-size="20.00">2</text>
</g>
<!-- 4 -->
<g id="node5" class="node"><title>4</title>
<ellipse fill="cadetblue" stroke="black" cx="206.92" cy="-60.5326" rx="21.4286" ry="21.4286"/>
<text text-anchor="middle" x="206.92" y="-55.5326" font-family="Times New Roman,serif" font-size="20.00">2</text>
</g>
<!-- 2&#45;&gt;4 -->
<g id="edge9" class="edge"><title>2&#45;&gt;4</title>
<path fill="none" stroke="black" stroke-width="2" d="M135.877,-29.7449C148.123,-35.052 164.091,-41.9722 177.786,-47.9072"/>
<polygon fill="black" stroke="black" stroke-width="2" points="176.704,-51.2525 187.271,-52.0175 179.487,-44.8297 176.704,-51.2525"/>
</g>
<!-- 5 -->
<g id="node6" class="node"><title>5</title>
<ellipse fill="cadetblue" stroke="black" cx="21.2132" cy="-48.6863" rx="21.4286" ry="21.4286"/>
<text text-anchor="middle" x="21.2132" y="-43.6863" font-family="Times New Roman,serif" font-size="20.00">2</text>
</g>
<!-- 2&#45;&gt;5 -->
<g id="edge10" class="edge"><title>2&#45;&gt;5</title>
<path fill="none" stroke="black" stroke-width="2" d="M95.5809,-27.1745C82.7617,-30.8826 66.0459,-35.7178 51.7099,-39.8647"/>
<polygon fill="black" stroke="black" stroke-width="2" points="50.415,-36.5957 41.7814,-42.7367 52.3601,-43.3201 50.415,-36.5957"/>
</g>
<!-- 3 -->
<g id="node4" class="node"><title>3</title>
<ellipse fill="cadetblue" stroke="black" cx="104.914" cy="-198.651" rx="21.4286" ry="21.4286"/>
<text text-anchor="middle" x="104.914" y="-193.651" font-family="Times New Roman,serif" font-size="20.00">2</text>
</g>
<!-- 3&#45;&gt;0 -->
<g id="edge1" class="edge"><title>3&#45;&gt;0</title>
<path fill="none" stroke="black" stroke-width="2" d="M123.985,-189.275C134.29,-184.21 147.217,-177.856 158.687,-172.217"/>
<polygon fill="black" stroke="black" stroke-width="2" points="160.46,-175.246 167.89,-167.693 157.371,-168.964 160.46,-175.246"/>
</g>
<!-- 3&#45;&gt;1 -->
<g id="edge5" class="edge"><title>3&#45;&gt;1</title>
<path fill="none" stroke="black" stroke-width="2" d="M87.1641,-186.945C77.5743,-180.621 65.5437,-172.687 54.8686,-165.647"/>
<polygon fill="black" stroke="black" stroke-width="2" points="56.5788,-162.583 46.3037,-159.999 52.725,-168.426 56.5788,-162.583"/>
</g>
<!-- 4&#45;&gt;0 -->
<g id="edge2" class="edge"><title>4&#45;&gt;0</title>
<path fill="none" stroke="black" stroke-width="2" d="M202.629,-81.7312C199.915,-95.1368 196.363,-112.685 193.345,-127.592"/>
<polygon fill="black" stroke="black" stroke-width="2" points="189.912,-126.912 191.358,-137.407 196.773,-128.301 189.912,-126.912"/>
</g>
<!-- 5&#45;&gt;1 -->
<g id="edge6" class="edge"><title>5&#45;&gt;1</title>
<path fill="none" stroke="black" stroke-width="2" d="M22.7695,-70.2755C23.7536,-83.9281 25.0419,-101.799 26.1363,-116.981"/>
<polygon fill="black" stroke="black" stroke-width="2" points="22.6468,-117.255 26.8569,-126.977 29.6287,-116.751 22.6468,-117.255"/>
</g>
<!-- 6&#45;&gt;2 -->
<g id="edge11" class="edge"><title>6&#45;&gt;2</title>
<path fill="none" stroke="black" stroke-width="2" d="M132.055,-91.7756C129.423,-80.072 126.082,-65.2135 123.146,-52.1529"/>
<polygon fill="black" stroke="black" stroke-width="2" points="126.507,-51.1473 120.899,-42.1586 119.678,-52.6829 126.507,-51.1473"/>
</g>
<!-- 6&#45;&gt;3 -->
<g id="edge13" class="edge"><title>6&#45;&gt;3</title>
<path fill="none" stroke="black" stroke-width="2" d="M129.337,-132.471C125.352,-143.269 120.353,-156.814 115.918,-168.833"/>
<polygon fill="black" stroke="black" stroke-width="2" points="112.537,-167.883 112.359,-178.476 119.105,-170.307 112.537,-167.883"/>
</g>
<!-- 6&#45;&gt;4 -->
<g id="edge15" class="edge"><title>6&#45;&gt;4</title>
<path fill="none" stroke="black" stroke-width="2" d="M154.066,-99.6444C162.398,-93.4787 172.541,-85.9733 181.704,-79.1922"/>
<polygon fill="black" stroke="black" stroke-width="2" points="183.808,-81.9895 189.765,-73.2275 179.644,-76.3626 183.808,-81.9895"/>
</g>
<!-- 7&#45;&gt;2 -->
<g id="edge12" class="edge"><title>7&#45;&gt;2</title>
<path fill="none" stroke="black" stroke-width="2" d="M91.4303,-89.2429C95.5369,-77.9594 100.75,-63.6342 105.333,-51.0424"/>
<polygon fill="black" stroke="black" stroke-width="2" points="108.709,-52.0009 108.84,-41.4069 102.131,-49.6068 108.709,-52.0009"/>
</g>
<!-- 7&#45;&gt;3 -->
<g id="edge14" class="edge"><title>7&#45;&gt;3</title>
<path fill="none" stroke="black" stroke-width="2" d="M88.9758,-129.955C91.5761,-141.163 94.8382,-155.223 97.7327,-167.699"/>
<polygon fill="black" stroke="black" stroke-width="2" points="94.3855,-168.759 100.055,-177.709 101.204,-167.177 94.3855,-168.759"/>
</g>
<!-- 7&#45;&gt;5 -->
<g id="edge16" class="edge"><title>7&#45;&gt;5</title>
<path fill="none" stroke="black" stroke-width="2" d="M68.6024,-94.2498C61.1318,-87.067 52.038,-78.3236 43.8218,-70.4239"/>
<polygon fill="black" stroke="black" stroke-width="2" points="46.2293,-67.8832 36.5949,-63.4754 41.3776,-72.9292 46.2293,-67.8832"/>
</g>
</g>
</svg>

