<?xml version="1.0" encoding="UTF-8" standalone="no"?>
<!DOCTYPE svg PUBLIC "-//W3C//DTD SVG 1.1//EN"
 "http://www.w3.org/Graphics/SVG/1.1/DTD/svg11.dtd">
<!-- Generated by graphviz version 2.36.0 (20140111.2315)
 -->
<!-- Title: G Pages: 1 -->
<svg width="100%" height="100%"
 viewBox="0.00 0.00 238.48 270.33" xmlns="http://www.w3.org/2000/svg" xmlns:xlink="http://www.w3.org/1999/xlink">
<g id="graph0" class="graph" transform="scale(1 1) rotate(0) translate(4 266.329)">
<title>G</title>
<!-- 0 -->
<g id="node1" class="node"><title>0</title>
<ellipse fill="cadetblue" stroke="black" cx="104.978" cy="-200.84" rx="21.4286" ry="21.4286"/>
<text text-anchor="middle" x="104.978" y="-195.84" font-family="Times New Roman,serif" font-size="20.00">2</text>
</g>
<!-- 4 -->
<g id="node5" class="node"><title>4</title>
<ellipse fill="brown" stroke="black" cx="71.6447" cy="-53.6171" rx="21.4286" ry="21.4286"/>
<text text-anchor="middle" x="71.6447" y="-48.6171" font-family="Times New Roman,serif" font-size="20.00">3</text>
</g>
<!-- 0&#45;&gt;4 -->
<g id="edge2" class="edge"><title>0&#45;&gt;4</title>
<path fill="none" stroke="black" stroke-width="2" d="M100.273,-180.059C94.6466,-155.21 85.1771,-113.386 78.6802,-84.6914"/>
<polygon fill="black" stroke="black" stroke-width="2" points="82.0557,-83.7496 76.4338,-74.7693 75.2285,-85.2954 82.0557,-83.7496"/>
</g>
<!-- 6 -->
<g id="node7" class="node"><title>6</title>
<ellipse fill="cadetblue" stroke="black" cx="206.412" cy="-143.673" rx="21.4286" ry="21.4286"/>
<text text-anchor="middle" x="206.412" y="-138.673" font-family="Times New Roman,serif" font-size="20.00">2</text>
</g>
<!-- 0&#45;&gt;6 -->
<g id="edge4" class="edge"><title>0&#45;&gt;6</title>
<path fill="none" stroke="black" stroke-width="2" d="M123.582,-190.355C139.025,-181.652 161.214,-169.146 178.741,-159.268"/>
<polygon fill="black" stroke="black" stroke-width="2" points="180.932,-162.051 187.925,-154.092 177.495,-155.953 180.932,-162.051"/>
</g>
<!-- 7 -->
<g id="node8" class="node"><title>7</title>
<ellipse fill="cadetblue" stroke="black" cx="136.104" cy="-123.707" rx="21.4286" ry="21.4286"/>
<text text-anchor="middle" x="136.104" y="-118.707" font-family="Times New Roman,serif" font-size="20.00">2</text>
</g>
<!-- 0&#45;&gt;7 -->
<g id="edge5" class="edge"><title>0&#45;&gt;7</title>
<path fill="none" stroke="black" stroke-width="2" d="M112.993,-180.976C116.443,-172.429 120.544,-162.265 124.328,-152.888"/>
<polygon fill="black" stroke="black" stroke-width="2" points="127.619,-154.086 128.115,-143.503 121.127,-151.467 127.619,-154.086"/>
</g>
<!-- 1 -->
<g id="node2" class="node"><title>1</title>
<ellipse fill="brown" stroke="black" cx="42.5046" cy="-174.746" rx="21.4286" ry="21.4286"/>
<text text-anchor="middle" x="42.5046" y="-169.746" font-family="Times New Roman,serif" font-size="20.00">3</text>
</g>
<!-- 1&#45;&gt;4 -->
<g id="edge6" class="edge"><title>1&#45;&gt;4</title>
<path fill="none" stroke="black" stroke-width="2" d="M47.5139,-153.923C52.1216,-134.77 59.0133,-106.123 64.2534,-84.341"/>
<polygon fill="black" stroke="black" stroke-width="2" points="67.667,-85.1149 66.6031,-74.5736 60.8612,-83.4776 67.667,-85.1149"/>
</g>
<!-- 2 -->
<g id="node3" class="node"><title>2</title>
<ellipse fill="cadetblue" stroke="black" cx="158.897" cy="-21.2132" rx="21.4286" ry="21.4286"/>
<text text-anchor="middle" x="158.897" y="-16.2132" font-family="Times New Roman,serif" font-size="20.00">2</text>
</g>
<!-- 2&#45;&gt;4 -->
<g id="edge10" class="edge"><title>2&#45;&gt;4</title>
<path fill="none" stroke="black" stroke-width="2" d="M138.661,-28.7288C127.538,-32.8594 113.536,-38.0596 101.21,-42.6371"/>
<polygon fill="black" stroke="black" stroke-width="2" points="99.9276,-39.3797 91.7717,-46.1423 102.365,-45.9418 99.9276,-39.3797"/>
</g>
<!-- 2&#45;&gt;6 -->
<g id="edge12" class="edge"><title>2&#45;&gt;6</title>
<path fill="none" stroke="black" stroke-width="2" d="M166.637,-41.1611C174.334,-60.9978 186.229,-91.655 195.007,-114.279"/>
<polygon fill="black" stroke="black" stroke-width="2" points="191.795,-115.677 198.675,-123.734 198.321,-113.145 191.795,-115.677"/>
</g>
<!-- 3 -->
<g id="node4" class="node"><title>3</title>
<ellipse fill="cadetblue" stroke="black" cx="209.271" cy="-241.116" rx="21.4286" ry="21.4286"/>
<text text-anchor="middle" x="209.271" y="-236.116" font-family="Times New Roman,serif" font-size="20.00">2</text>
</g>
<!-- 3&#45;&gt;0 -->
<g id="edge1" class="edge"><title>3&#45;&gt;0</title>
<path fill="none" stroke="black" stroke-width="2" d="M189.162,-233.35C173.724,-227.389 152.169,-219.065 134.736,-212.332"/>
<polygon fill="black" stroke="black" stroke-width="2" points="135.614,-208.919 125.025,-208.582 133.092,-215.449 135.614,-208.919"/>
</g>
<!-- 5 -->
<g id="node6" class="node"><title>5</title>
<ellipse fill="cadetblue" stroke="black" cx="21.2132" cy="-93.077" rx="21.4286" ry="21.4286"/>
<text text-anchor="middle" x="21.2132" y="-88.077" font-family="Times New Roman,serif" font-size="20.00">2</text>
</g>
<!-- 4&#45;&gt;5 -->
<g id="edge16" class="edge"><title>4&#45;&gt;5</title>
<path fill="none" stroke="black" stroke-width="2" d="M54.8517,-66.7567C52.0741,-68.93 49.1425,-71.2239 46.2147,-73.5147"/>
<polygon fill="black" stroke="black" stroke-width="2" points="43.8236,-70.9415 38.1048,-79.8603 48.1373,-76.4544 43.8236,-70.9415"/>
</g>
<!-- 4&#45;&gt;7 -->
<g id="edge17" class="edge"><title>4&#45;&gt;7</title>
<path fill="none" stroke="black" stroke-width="2" d="M86.2714,-69.5216C94.6778,-78.6622 105.389,-90.3089 114.725,-100.46"/>
<polygon fill="black" stroke="black" stroke-width="2" points="112.189,-102.874 121.535,-107.865 117.342,-98.1355 112.189,-102.874"/>
</g>
<!-- 5&#45;&gt;0 -->
<g id="edge3" class="edge"><title>5&#45;&gt;0</title>
<path fill="none" stroke="black" stroke-width="2" d="M34.3014,-109.915C47.9903,-127.526 69.6333,-155.369 85.3651,-175.608"/>
<polygon fill="black" stroke="black" stroke-width="2" points="82.8045,-178.017 91.705,-183.765 88.3312,-173.721 82.8045,-178.017"/>
</g>
<!-- 5&#45;&gt;1 -->
<g id="edge7" class="edge"><title>5&#45;&gt;1</title>
<path fill="none" stroke="black" stroke-width="2" d="M26.5859,-113.686C29.0066,-122.971 31.914,-134.123 34.5779,-144.341"/>
<polygon fill="black" stroke="black" stroke-width="2" points="31.224,-145.351 37.1336,-154.144 37.9976,-143.585 31.224,-145.351"/>
</g>
<!-- 5&#45;&gt;2 -->
<g id="edge11" class="edge"><title>5&#45;&gt;2</title>
<path fill="none" stroke="black" stroke-width="2" d="M41.8896,-88.2797C51.0101,-86.0037 61.8101,-83.0893 71.3846,-79.9202 79.8792,-77.1086 82.2556,-76.7768 90.0599,-72.4001 105.83,-63.5561 122.125,-51.5882 134.899,-41.4485"/>
<polygon fill="black" stroke="black" stroke-width="2" points="137.172,-44.1115 142.745,-35.1005 132.769,-38.6697 137.172,-44.1115"/>
</g>
<!-- 6&#45;&gt;1 -->
<g id="edge8" class="edge"><title>6&#45;&gt;1</title>
<path fill="none" stroke="black" stroke-width="2" d="M185.319,-147.672C156.921,-153.056 106.185,-162.674 73.4578,-168.878"/>
<polygon fill="black" stroke="black" stroke-width="2" points="72.6892,-165.462 63.5161,-170.763 73.993,-172.339 72.6892,-165.462"/>
</g>
<!-- 6&#45;&gt;3 -->
<g id="edge14" class="edge"><title>6&#45;&gt;3</title>
<path fill="none" stroke="black" stroke-width="2" d="M207.046,-165.299C207.43,-178.383 207.926,-195.29 208.353,-209.817"/>
<polygon fill="black" stroke="black" stroke-width="2" points="204.856,-209.993 208.648,-219.886 211.853,-209.788 204.856,-209.993"/>
</g>
<!-- 7&#45;&gt;1 -->
<g id="edge9" class="edge"><title>7&#45;&gt;1</title>
<path fill="none" stroke="black" stroke-width="2" d="M117.163,-134.035C103.715,-141.369 85.4415,-151.333 70.3395,-159.568"/>
<polygon fill="black" stroke="black" stroke-width="2" points="68.5215,-156.573 61.4176,-164.433 71.8728,-162.718 68.5215,-156.573"/>
</g>
<!-- 7&#45;&gt;2 -->
<g id="edge13" class="edge"><title>7&#45;&gt;2</title>
<path fill="none" stroke="black" stroke-width="2" d="M140.716,-102.966C143.991,-88.2399 148.441,-68.2302 152.119,-51.6931"/>
<polygon fill="black" stroke="black" stroke-width="2" points="155.537,-52.4448 154.292,-41.9235 148.704,-50.9252 155.537,-52.4448"/>
</g>
<!-- 7&#45;&gt;3 -->
<g id="edge15" class="edge"><title>7&#45;&gt;3</title>
<path fill="none" stroke="black" stroke-width="2" d="M147.376,-141.795C159.425,-161.13 178.66,-191.995 192.49,-214.188"/>
<polygon fill="black" stroke="black" stroke-width="2" points="189.606,-216.178 197.865,-222.814 195.547,-212.476 189.606,-216.178"/>
</g>
<!-- 7&#45;&gt;5 -->
<g id="edge18" class="edge"><title>7&#45;&gt;5</title>
<path fill="none" stroke="black" stroke-width="2" d="M115.564,-118.231C97.7843,-113.491 71.8257,-106.57 51.6352,-101.188"/>
<polygon fill="black" stroke="black" stroke-width="2" points="52.527,-97.8031 41.9629,-98.6089 50.7238,-104.567 52.527,-97.8031"/>
</g>
</g>
</svg>

