<?xml version="1.0" encoding="UTF-8" standalone="no"?>
<!DOCTYPE svg PUBLIC "-//W3C//DTD SVG 1.1//EN"
 "http://www.w3.org/Graphics/SVG/1.1/DTD/svg11.dtd">
<!-- Generated by graphviz version 2.36.0 (20140111.2315)
 -->
<!-- Title: G Pages: 1 -->
<svg width="100%" height="100%"
 viewBox="0.00 0.00 230.34 208.61" xmlns="http://www.w3.org/2000/svg" xmlns:xlink="http://www.w3.org/1999/xlink">
<g id="graph0" class="graph" transform="scale(1 1) rotate(0) translate(4 204.607)">
<title>G</title>
<!-- 0 -->
<g id="node1" class="node"><title>0</title>
<ellipse fill="cadetblue" stroke="black" cx="89.3448" cy="-21.2132" rx="21.4286" ry="21.4286"/>
<text text-anchor="middle" x="89.3448" y="-16.2132" font-family="Times New Roman,serif" font-size="20.00">2</text>
</g>
<!-- 6 -->
<g id="node7" class="node"><title>6</title>
<ellipse fill="cadetblue" stroke="black" cx="149.619" cy="-41.1842" rx="21.4286" ry="21.4286"/>
<text text-anchor="middle" x="149.619" y="-36.1842" font-family="Times New Roman,serif" font-size="20.00">2</text>
</g>
<!-- 0&#45;&gt;6 -->
<g id="edge3" class="edge"><title>0&#45;&gt;6</title>
<path fill="none" stroke="black" stroke-width="2" d="M109.751,-27.9745C112.893,-29.0155 116.193,-30.109 119.493,-31.2023"/>
<polygon fill="black" stroke="black" stroke-width="2" points="118.64,-34.607 129.234,-34.4299 120.842,-27.9622 118.64,-34.607"/>
</g>
<!-- 7 -->
<g id="node8" class="node"><title>7</title>
<ellipse fill="cadetblue" stroke="black" cx="115.018" cy="-107.224" rx="21.4286" ry="21.4286"/>
<text text-anchor="middle" x="115.018" y="-102.224" font-family="Times New Roman,serif" font-size="20.00">2</text>
</g>
<!-- 0&#45;&gt;7 -->
<g id="edge4" class="edge"><title>0&#45;&gt;7</title>
<path fill="none" stroke="black" stroke-width="2" d="M95.4291,-41.5965C98.5715,-52.1241 102.469,-65.1801 105.957,-76.8678"/>
<polygon fill="black" stroke="black" stroke-width="2" points="102.675,-78.1076 108.889,-86.6887 109.382,-76.1054 102.675,-78.1076"/>
</g>
<!-- 1 -->
<g id="node2" class="node"><title>1</title>
<ellipse fill="cadetblue" stroke="black" cx="46.1759" cy="-73.0725" rx="21.4286" ry="21.4286"/>
<text text-anchor="middle" x="46.1759" y="-68.0725" font-family="Times New Roman,serif" font-size="20.00">2</text>
</g>
<!-- 5 -->
<g id="node6" class="node"><title>5</title>
<ellipse fill="brown" stroke="black" cx="84.3043" cy="-179.393" rx="21.4286" ry="21.4286"/>
<text text-anchor="middle" x="84.3043" y="-174.393" font-family="Times New Roman,serif" font-size="20.00">3</text>
</g>
<!-- 1&#45;&gt;5 -->
<g id="edge6" class="edge"><title>1&#45;&gt;5</title>
<path fill="none" stroke="black" stroke-width="2" d="M53.3476,-93.0706C59.0628,-109.008 67.1523,-131.565 73.6285,-149.624"/>
<polygon fill="black" stroke="black" stroke-width="2" points="70.3649,-150.892 77.0352,-159.123 76.954,-148.529 70.3649,-150.892"/>
</g>
<!-- 1&#45;&gt;7 -->
<g id="edge8" class="edge"><title>1&#45;&gt;7</title>
<path fill="none" stroke="black" stroke-width="2" d="M65.3524,-82.5855C71.9169,-85.842 79.4085,-89.5584 86.5478,-93.1001"/>
<polygon fill="black" stroke="black" stroke-width="2" points="85.431,-96.4531 95.9447,-97.7617 88.5419,-90.1823 85.431,-96.4531"/>
</g>
<!-- 2 -->
<g id="node3" class="node"><title>2</title>
<ellipse fill="cadetblue" stroke="black" cx="182.921" cy="-147.232" rx="21.4286" ry="21.4286"/>
<text text-anchor="middle" x="182.921" y="-142.232" font-family="Times New Roman,serif" font-size="20.00">2</text>
</g>
<!-- 4 -->
<g id="node5" class="node"><title>4</title>
<ellipse fill="cadetblue" stroke="black" cx="201.128" cy="-63.1743" rx="21.4286" ry="21.4286"/>
<text text-anchor="middle" x="201.128" y="-58.1743" font-family="Times New Roman,serif" font-size="20.00">2</text>
</g>
<!-- 2&#45;&gt;4 -->
<g id="edge9" class="edge"><title>2&#45;&gt;4</title>
<path fill="none" stroke="black" stroke-width="2" d="M187.422,-126.454C189.545,-116.654 192.12,-104.762 194.463,-93.9441"/>
<polygon fill="black" stroke="black" stroke-width="2" points="197.92,-94.5193 196.616,-84.005 191.079,-93.0374 197.92,-94.5193"/>
</g>
<!-- 2&#45;&gt;5 -->
<g id="edge10" class="edge"><title>2&#45;&gt;5</title>
<path fill="none" stroke="black" stroke-width="2" d="M162.488,-153.896C148.604,-158.424 130.004,-164.49 114.43,-169.569"/>
<polygon fill="black" stroke="black" stroke-width="2" points="113.134,-166.31 104.712,-172.738 115.304,-172.965 113.134,-166.31"/>
</g>
<!-- 3 -->
<g id="node4" class="node"><title>3</title>
<ellipse fill="cadetblue" stroke="black" cx="21.2132" cy="-123.504" rx="21.4286" ry="21.4286"/>
<text text-anchor="middle" x="21.2132" y="-118.504" font-family="Times New Roman,serif" font-size="20.00">2</text>
</g>
<!-- 3&#45;&gt;0 -->
<g id="edge1" class="edge"><title>3&#45;&gt;0</title>
<path fill="none" stroke="black" stroke-width="2" d="M39.9805,-113.034C48.4275,-107.574 57.9879,-100.254 64.708,-91.7401 73.6483,-80.4134 79.471,-65.6109 83.1973,-52.4932"/>
<polygon fill="black" stroke="black" stroke-width="2" points="86.6831,-52.9869 85.7558,-42.4328 79.899,-51.2616 86.6831,-52.9869"/>
</g>
<!-- 3&#45;&gt;1 -->
<g id="edge5" class="edge"><title>3&#45;&gt;1</title>
<path fill="none" stroke="black" stroke-width="2" d="M30.6505,-104.438C31.1476,-103.434 31.6515,-102.416 32.1588,-101.391"/>
<polygon fill="black" stroke="black" stroke-width="2" points="35.4258,-102.68 36.7253,-92.1654 29.1523,-99.5749 35.4258,-102.68"/>
</g>
<!-- 4&#45;&gt;0 -->
<g id="edge2" class="edge"><title>4&#45;&gt;0</title>
<path fill="none" stroke="black" stroke-width="2" d="M179.982,-67.2093C170.631,-68.4115 159.523,-69.043 149.587,-67.4885 134.28,-65.0936 120.334,-55.1508 109.725,-45.0923"/>
<polygon fill="black" stroke="black" stroke-width="2" points="112.121,-42.537 102.617,-37.8539 107.126,-47.4415 112.121,-42.537"/>
</g>
<!-- 5&#45;&gt;3 -->
<g id="edge13" class="edge"><title>5&#45;&gt;3</title>
<path fill="none" stroke="black" stroke-width="2" d="M68.3837,-165.29C61.2654,-158.984 52.727,-151.421 44.8827,-144.472"/>
<polygon fill="black" stroke="black" stroke-width="2" points="47.1543,-141.808 37.3481,-137.797 42.5126,-147.048 47.1543,-141.808"/>
</g>
<!-- 6&#45;&gt;1 -->
<g id="edge7" class="edge"><title>6&#45;&gt;1</title>
<path fill="none" stroke="black" stroke-width="2" d="M129.182,-47.4843C114.164,-52.1139 93.5091,-58.4811 76.5607,-63.7058"/>
<polygon fill="black" stroke="black" stroke-width="2" points="75.0956,-60.4948 66.5705,-66.7854 77.1578,-67.1842 75.0956,-60.4948"/>
</g>
<!-- 6&#45;&gt;2 -->
<g id="edge11" class="edge"><title>6&#45;&gt;2</title>
<path fill="none" stroke="black" stroke-width="2" d="M156.04,-61.6313C160.97,-77.3292 167.852,-99.2465 173.419,-116.974"/>
<polygon fill="black" stroke="black" stroke-width="2" points="170.185,-118.356 176.52,-126.848 176.863,-116.259 170.185,-118.356"/>
</g>
<!-- 7&#45;&gt;2 -->
<g id="edge12" class="edge"><title>7&#45;&gt;2</title>
<path fill="none" stroke="black" stroke-width="2" d="M133.573,-118.156C140.31,-122.126 148.073,-126.7 155.418,-131.027"/>
<polygon fill="black" stroke="black" stroke-width="2" points="153.997,-134.252 164.389,-136.313 157.55,-128.221 153.997,-134.252"/>
</g>
<!-- 7&#45;&gt;3 -->
<g id="edge14" class="edge"><title>7&#45;&gt;3</title>
<path fill="none" stroke="black" stroke-width="2" d="M93.7325,-110.918C81.4991,-113.041 65.9117,-115.746 52.3255,-118.104"/>
<polygon fill="black" stroke="black" stroke-width="2" points="51.669,-114.666 42.4148,-119.824 52.866,-121.563 51.669,-114.666"/>
</g>
<!-- 7&#45;&gt;4 -->
<g id="edge15" class="edge"><title>7&#45;&gt;4</title>
<path fill="none" stroke="black" stroke-width="2" d="M134.129,-97.4477C145.5,-91.6308 160.139,-84.1423 172.831,-77.6497"/>
<polygon fill="black" stroke="black" stroke-width="2" points="174.762,-80.5932 182.071,-72.9229 171.574,-74.3612 174.762,-80.5932"/>
</g>
<!-- 7&#45;&gt;5 -->
<g id="edge16" class="edge"><title>7&#45;&gt;5</title>
<path fill="none" stroke="black" stroke-width="2" d="M106.626,-126.944C103.545,-134.184 99.989,-142.539 96.6341,-150.422"/>
<polygon fill="black" stroke="black" stroke-width="2" points="93.3824,-149.125 92.6869,-159.697 99.8234,-151.866 93.3824,-149.125"/>
</g>
<!-- 7&#45;&gt;6 -->
<g id="edge17" class="edge"><title>7&#45;&gt;6</title>
<path fill="none" stroke="black" stroke-width="2" d="M125.026,-88.1224C128.137,-82.1845 131.633,-75.5116 134.992,-69.1016"/>
<polygon fill="black" stroke="black" stroke-width="2" points="138.212,-70.4968 139.753,-60.0146 132.012,-67.2481 138.212,-70.4968"/>
</g>
</g>
</svg>

