<?xml version="1.0" encoding="UTF-8" standalone="no"?>
<!DOCTYPE svg PUBLIC "-//W3C//DTD SVG 1.1//EN"
 "http://www.w3.org/Graphics/SVG/1.1/DTD/svg11.dtd">
<!-- Generated by graphviz version 2.36.0 (20140111.2315)
 -->
<!-- Title: G Pages: 1 -->
<svg width="100%" height="100%"
 viewBox="0.00 0.00 250.37 281.67" xmlns="http://www.w3.org/2000/svg" xmlns:xlink="http://www.w3.org/1999/xlink">
<g id="graph0" class="graph" transform="scale(1 1) rotate(0) translate(4 277.67)">
<title>G</title>
<!-- 0 -->
<g id="node1" class="node"><title>0</title>
<ellipse fill="cadetblue" stroke="black" cx="63.2588" cy="-238.886" rx="21.4286" ry="21.4286"/>
<text text-anchor="middle" x="63.2588" y="-233.886" font-family="Times New Roman,serif" font-size="20.00">2</text>
</g>
<!-- 5 -->
<g id="node6" class="node"><title>5</title>
<ellipse fill="dodgerblue" stroke="black" cx="21.2132" cy="-121.698" rx="21.4286" ry="21.4286"/>
<text text-anchor="middle" x="21.2132" y="-116.698" font-family="Times New Roman,serif" font-size="20.00">4</text>
</g>
<!-- 0&#45;&gt;5 -->
<g id="edge3" class="edge"><title>0&#45;&gt;5</title>
<path fill="none" stroke="black" stroke-width="2" d="M56.0309,-218.74C49.3826,-200.21 39.4387,-172.495 31.8779,-151.422"/>
<polygon fill="black" stroke="black" stroke-width="2" points="35.159,-150.203 28.4875,-141.973 28.5703,-152.567 35.159,-150.203"/>
</g>
<!-- 6 -->
<g id="node7" class="node"><title>6</title>
<ellipse fill="cadetblue" stroke="black" cx="197.597" cy="-164.496" rx="21.4286" ry="21.4286"/>
<text text-anchor="middle" x="197.597" y="-159.496" font-family="Times New Roman,serif" font-size="20.00">2</text>
</g>
<!-- 0&#45;&gt;6 -->
<g id="edge4" class="edge"><title>0&#45;&gt;6</title>
<path fill="none" stroke="black" stroke-width="2" d="M81.938,-228.542C104.668,-215.955 143.261,-194.585 169.562,-180.021"/>
<polygon fill="black" stroke="black" stroke-width="2" points="171.591,-182.898 178.643,-174.992 168.2,-176.774 171.591,-182.898"/>
</g>
<!-- 1 -->
<g id="node2" class="node"><title>1</title>
<ellipse fill="cadetblue" stroke="black" cx="113.69" cy="-252.457" rx="21.4286" ry="21.4286"/>
<text text-anchor="middle" x="113.69" y="-247.457" font-family="Times New Roman,serif" font-size="20.00">2</text>
</g>
<!-- 1&#45;&gt;5 -->
<g id="edge7" class="edge"><title>1&#45;&gt;5</title>
<path fill="none" stroke="black" stroke-width="2" d="M101.41,-235.093C85.5189,-212.624 57.7015,-173.291 39.3674,-147.368"/>
<polygon fill="black" stroke="black" stroke-width="2" points="42.176,-145.277 33.5442,-139.134 36.4609,-149.319 42.176,-145.277"/>
</g>
<!-- 1&#45;&gt;6 -->
<g id="edge8" class="edge"><title>1&#45;&gt;6</title>
<path fill="none" stroke="black" stroke-width="2" d="M128.691,-236.731C141.697,-223.097 160.695,-203.181 175.451,-187.713"/>
<polygon fill="black" stroke="black" stroke-width="2" points="178.356,-189.737 182.726,-180.086 173.291,-184.906 178.356,-189.737"/>
</g>
<!-- 2 -->
<g id="node3" class="node"><title>2</title>
<ellipse fill="cadetblue" stroke="black" cx="113.601" cy="-21.2132" rx="21.4286" ry="21.4286"/>
<text text-anchor="middle" x="113.601" y="-16.2132" font-family="Times New Roman,serif" font-size="20.00">2</text>
</g>
<!-- 2&#45;&gt;5 -->
<g id="edge10" class="edge"><title>2&#45;&gt;5</title>
<path fill="none" stroke="black" stroke-width="2" d="M99.1653,-36.914C84.0671,-53.3354 60.1961,-79.2986 42.8448,-98.1707"/>
<polygon fill="black" stroke="black" stroke-width="2" points="40.0441,-96.0457 35.8523,-105.776 45.1971,-100.784 40.0441,-96.0457"/>
</g>
<!-- 7 -->
<g id="node8" class="node"><title>7</title>
<ellipse fill="cadetblue" stroke="black" cx="192.599" cy="-82.8498" rx="21.4286" ry="21.4286"/>
<text text-anchor="middle" x="192.599" y="-77.8498" font-family="Times New Roman,serif" font-size="20.00">2</text>
</g>
<!-- 2&#45;&gt;7 -->
<g id="edge12" class="edge"><title>2&#45;&gt;7</title>
<path fill="none" stroke="black" stroke-width="2" d="M130.354,-34.2847C141.247,-42.7834 155.64,-54.0136 167.842,-63.5339"/>
<polygon fill="black" stroke="black" stroke-width="2" points="165.832,-66.4051 175.869,-69.7971 170.138,-60.8862 165.832,-66.4051"/>
</g>
<!-- 3 -->
<g id="node4" class="node"><title>3</title>
<ellipse fill="cadetblue" stroke="black" cx="221.161" cy="-250.713" rx="21.4286" ry="21.4286"/>
<text text-anchor="middle" x="221.161" y="-245.713" font-family="Times New Roman,serif" font-size="20.00">2</text>
</g>
<!-- 3&#45;&gt;0 -->
<g id="edge1" class="edge"><title>3&#45;&gt;0</title>
<path fill="none" stroke="black" stroke-width="2" d="M201.285,-243.208C179.963,-235.861 144.955,-225.81 113.786,-226.153 107.137,-226.226 100.142,-227.307 93.5458,-228.81"/>
<polygon fill="black" stroke="black" stroke-width="2" points="92.3898,-225.496 83.6179,-231.437 94.1806,-232.263 92.3898,-225.496"/>
</g>
<!-- 3&#45;&gt;1 -->
<g id="edge5" class="edge"><title>3&#45;&gt;1</title>
<path fill="none" stroke="black" stroke-width="2" d="M199.928,-251.057C184.427,-251.309 163.145,-251.654 145.602,-251.939"/>
<polygon fill="black" stroke="black" stroke-width="2" points="145.189,-248.445 135.247,-252.107 145.302,-255.444 145.189,-248.445"/>
</g>
<!-- 4 -->
<g id="node5" class="node"><title>4</title>
<ellipse fill="cadetblue" stroke="black" cx="88.3849" cy="-124.585" rx="21.4286" ry="21.4286"/>
<text text-anchor="middle" x="88.3849" y="-119.585" font-family="Times New Roman,serif" font-size="20.00">2</text>
</g>
<!-- 4&#45;&gt;0 -->
<g id="edge2" class="edge"><title>4&#45;&gt;0</title>
<path fill="none" stroke="black" stroke-width="2" d="M83.7764,-145.549C79.9158,-163.111 74.3527,-188.418 69.9929,-208.251"/>
<polygon fill="black" stroke="black" stroke-width="2" points="66.5668,-207.536 67.8381,-218.054 73.4035,-209.039 66.5668,-207.536"/>
</g>
<!-- 4&#45;&gt;1 -->
<g id="edge6" class="edge"><title>4&#45;&gt;1</title>
<path fill="none" stroke="black" stroke-width="2" d="M92.5069,-145.414C96.606,-166.128 102.941,-198.14 107.616,-221.764"/>
<polygon fill="black" stroke="black" stroke-width="2" points="104.195,-222.506 109.57,-231.636 111.062,-221.147 104.195,-222.506"/>
</g>
<!-- 4&#45;&gt;2 -->
<g id="edge9" class="edge"><title>4&#45;&gt;2</title>
<path fill="none" stroke="black" stroke-width="2" d="M93.4877,-103.666C97.1106,-88.8139 102.033,-68.6329 106.102,-51.9542"/>
<polygon fill="black" stroke="black" stroke-width="2" points="109.536,-52.6455 108.506,-42.1008 102.735,-50.9865 109.536,-52.6455"/>
</g>
<!-- 5&#45;&gt;4 -->
<g id="edge15" class="edge"><title>5&#45;&gt;4</title>
<path fill="none" stroke="black" stroke-width="2" d="M42.4667,-122.612C46.9998,-122.806 51.8809,-123.016 56.7091,-123.224"/>
<polygon fill="black" stroke="black" stroke-width="2" points="56.898,-126.735 67.039,-123.667 57.1985,-119.741 56.898,-126.735"/>
</g>
<!-- 6&#45;&gt;2 -->
<g id="edge11" class="edge"><title>6&#45;&gt;2</title>
<path fill="none" stroke="black" stroke-width="2" d="M186.788,-146.058C172.235,-121.232 146.234,-76.8806 129.463,-48.2716"/>
<polygon fill="black" stroke="black" stroke-width="2" points="132.445,-46.4377 124.368,-39.5809 126.406,-49.9779 132.445,-46.4377"/>
</g>
<!-- 6&#45;&gt;3 -->
<g id="edge13" class="edge"><title>6&#45;&gt;3</title>
<path fill="none" stroke="black" stroke-width="2" d="M203.301,-185.367C206.167,-195.851 209.693,-208.752 212.852,-220.314"/>
<polygon fill="black" stroke="black" stroke-width="2" points="209.497,-221.311 215.509,-230.034 216.249,-219.465 209.497,-221.311"/>
</g>
<!-- 6&#45;&gt;7 -->
<g id="edge18" class="edge"><title>6&#45;&gt;7</title>
<path fill="none" stroke="black" stroke-width="2" d="M196.284,-143.045C195.744,-134.232 195.109,-123.851 194.519,-114.214"/>
<polygon fill="black" stroke="black" stroke-width="2" points="198.008,-113.926 193.903,-104.158 191.021,-114.353 198.008,-113.926"/>
</g>
<!-- 7&#45;&gt;3 -->
<g id="edge14" class="edge"><title>7&#45;&gt;3</title>
<path fill="none" stroke="black" stroke-width="2" d="M202.46,-102.035C210.151,-118.207 220.138,-142.216 223.901,-164.528 226.945,-182.57 226.457,-203.031 225.117,-219.487"/>
<polygon fill="black" stroke="black" stroke-width="2" points="221.612,-219.369 224.141,-229.657 228.58,-220.037 221.612,-219.369"/>
</g>
<!-- 7&#45;&gt;4 -->
<g id="edge16" class="edge"><title>7&#45;&gt;4</title>
<path fill="none" stroke="black" stroke-width="2" d="M172.505,-90.8967C157.079,-97.0745 135.541,-105.7 118.12,-112.676"/>
<polygon fill="black" stroke="black" stroke-width="2" points="116.399,-109.596 108.417,-116.562 119.001,-116.094 116.399,-109.596"/>
</g>
<!-- 7&#45;&gt;5 -->
<g id="edge17" class="edge"><title>7&#45;&gt;5</title>
<path fill="none" stroke="black" stroke-width="2" d="M171.269,-84.8376C150.096,-87.0858 116.818,-91.3631 88.6449,-98.2815 75.9854,-101.39 62.3448,-105.898 50.6665,-110.13"/>
<polygon fill="black" stroke="black" stroke-width="2" points="49.1329,-106.966 40.983,-113.736 51.5758,-113.526 49.1329,-106.966"/>
</g>
</g>
</svg>

