<?xml version="1.0" encoding="UTF-8" standalone="no"?>
<!DOCTYPE svg PUBLIC "-//W3C//DTD SVG 1.1//EN"
 "http://www.w3.org/Graphics/SVG/1.1/DTD/svg11.dtd">
<!-- Generated by graphviz version 2.36.0 (20140111.2315)
 -->
<!-- Title: G Pages: 1 -->
<svg width="100%" height="100%"
 viewBox="0.00 0.00 247.71 229.62" xmlns="http://www.w3.org/2000/svg" xmlns:xlink="http://www.w3.org/1999/xlink">
<g id="graph0" class="graph" transform="scale(1 1) rotate(0) translate(4 225.617)">
<title>G</title>
<!-- 0 -->
<g id="node1" class="node"><title>0</title>
<ellipse fill="cadetblue" stroke="black" cx="98.1049" cy="-149.2" rx="21.4286" ry="21.4286"/>
<text text-anchor="middle" x="98.1049" y="-144.2" font-family="Times New Roman,serif" font-size="20.00">2</text>
</g>
<!-- 3 -->
<g id="node4" class="node"><title>3</title>
<ellipse fill="cadetblue" stroke="black" cx="159.286" cy="-192.53" rx="21.4286" ry="21.4286"/>
<text text-anchor="middle" x="159.286" y="-187.53" font-family="Times New Roman,serif" font-size="20.00">2</text>
</g>
<!-- 0&#45;&gt;3 -->
<g id="edge1" class="edge"><title>0&#45;&gt;3</title>
<path fill="none" stroke="black" stroke-width="2" d="M115.473,-161.501C120.98,-165.401 127.194,-169.802 133.175,-174.038"/>
<polygon fill="black" stroke="black" stroke-width="2" points="131.478,-177.125 141.662,-180.048 135.524,-171.412 131.478,-177.125"/>
</g>
<!-- 5 -->
<g id="node6" class="node"><title>5</title>
<ellipse fill="cadetblue" stroke="black" cx="21.2132" cy="-89.6252" rx="21.4286" ry="21.4286"/>
<text text-anchor="middle" x="21.2132" y="-84.6252" font-family="Times New Roman,serif" font-size="20.00">2</text>
</g>
<!-- 0&#45;&gt;5 -->
<g id="edge3" class="edge"><title>0&#45;&gt;5</title>
<path fill="none" stroke="black" stroke-width="2" d="M81.0402,-135.978C70.7866,-128.034 57.558,-117.785 46.1483,-108.944"/>
<polygon fill="black" stroke="black" stroke-width="2" points="48.2789,-106.168 38.2303,-102.81 43.9916,-111.701 48.2789,-106.168"/>
</g>
<!-- 6 -->
<g id="node7" class="node"><title>6</title>
<ellipse fill="brown" stroke="black" cx="153.853" cy="-117.76" rx="21.4286" ry="21.4286"/>
<text text-anchor="middle" x="153.853" y="-112.76" font-family="Times New Roman,serif" font-size="20.00">3</text>
</g>
<!-- 0&#45;&gt;6 -->
<g id="edge4" class="edge"><title>0&#45;&gt;6</title>
<path fill="none" stroke="black" stroke-width="2" d="M116.668,-138.731C119.739,-136.999 122.979,-135.172 126.216,-133.346"/>
<polygon fill="black" stroke="black" stroke-width="2" points="128.19,-136.251 135.181,-128.29 124.751,-130.154 128.19,-136.251"/>
</g>
<!-- 1 -->
<g id="node2" class="node"><title>1</title>
<ellipse fill="cadetblue" stroke="black" cx="56.4292" cy="-200.404" rx="21.4286" ry="21.4286"/>
<text text-anchor="middle" x="56.4292" y="-195.404" font-family="Times New Roman,serif" font-size="20.00">2</text>
</g>
<!-- 1&#45;&gt;6 -->
<g id="edge8" class="edge"><title>1&#45;&gt;6</title>
<path fill="none" stroke="black" stroke-width="2" d="M76.2349,-192.365C88.6974,-186.692 104.643,-178.253 116.688,-167.817 124.257,-161.258 131.21,-152.901 137.004,-144.903"/>
<polygon fill="black" stroke="black" stroke-width="2" points="140.024,-146.688 142.809,-136.466 134.257,-142.72 140.024,-146.688"/>
</g>
<!-- 2 -->
<g id="node3" class="node"><title>2</title>
<ellipse fill="cadetblue" stroke="black" cx="140.411" cy="-21.2132" rx="21.4286" ry="21.4286"/>
<text text-anchor="middle" x="140.411" y="-16.2132" font-family="Times New Roman,serif" font-size="20.00">2</text>
</g>
<!-- 4 -->
<g id="node5" class="node"><title>4</title>
<ellipse fill="cadetblue" stroke="black" cx="218.5" cy="-107.424" rx="21.4286" ry="21.4286"/>
<text text-anchor="middle" x="218.5" y="-102.424" font-family="Times New Roman,serif" font-size="20.00">2</text>
</g>
<!-- 2&#45;&gt;4 -->
<g id="edge9" class="edge"><title>2&#45;&gt;4</title>
<path fill="none" stroke="black" stroke-width="2" d="M154.733,-37.0255C166.547,-50.0681 183.491,-68.774 196.943,-83.6256"/>
<polygon fill="black" stroke="black" stroke-width="2" points="194.696,-86.3577 204.003,-91.4195 199.884,-81.6583 194.696,-86.3577"/>
</g>
<!-- 2&#45;&gt;6 -->
<g id="edge11" class="edge"><title>2&#45;&gt;6</title>
<path fill="none" stroke="black" stroke-width="2" d="M143.394,-42.6401C145.199,-55.604 147.531,-72.3557 149.535,-86.7492"/>
<polygon fill="black" stroke="black" stroke-width="2" points="146.079,-87.3035 150.924,-96.7252 153.012,-86.3381 146.079,-87.3035"/>
</g>
<!-- 3&#45;&gt;1 -->
<g id="edge6" class="edge"><title>3&#45;&gt;1</title>
<path fill="none" stroke="black" stroke-width="2" d="M137.974,-194.162C123.493,-195.27 104.094,-196.755 87.8496,-197.998"/>
<polygon fill="black" stroke="black" stroke-width="2" points="87.4175,-194.521 77.7139,-198.774 87.9518,-201.501 87.4175,-194.521"/>
</g>
<!-- 3&#45;&gt;4 -->
<g id="edge13" class="edge"><title>3&#45;&gt;4</title>
<path fill="none" stroke="black" stroke-width="2" d="M171.555,-174.896C179.891,-162.914 191.059,-146.863 200.411,-133.422"/>
<polygon fill="black" stroke="black" stroke-width="2" points="203.408,-135.243 206.246,-125.035 197.662,-131.245 203.408,-135.243"/>
</g>
<!-- 7 -->
<g id="node8" class="node"><title>7</title>
<ellipse fill="cadetblue" stroke="black" cx="90.1595" cy="-71.6447" rx="21.4286" ry="21.4286"/>
<text text-anchor="middle" x="90.1595" y="-66.6447" font-family="Times New Roman,serif" font-size="20.00">2</text>
</g>
<!-- 3&#45;&gt;7 -->
<g id="edge15" class="edge"><title>3&#45;&gt;7</title>
<path fill="none" stroke="black" stroke-width="2" d="M148.636,-173.907C137.186,-153.883 118.867,-121.848 105.785,-98.9703"/>
<polygon fill="black" stroke="black" stroke-width="2" points="108.71,-97.0344 100.708,-90.0909 102.633,-100.509 108.71,-97.0344"/>
</g>
<!-- 4&#45;&gt;0 -->
<g id="edge2" class="edge"><title>4&#45;&gt;0</title>
<path fill="none" stroke="black" stroke-width="2" d="M201.501,-120.511C189.063,-129.187 171.364,-139.74 153.822,-144.064 146.083,-145.972 137.582,-147.184 129.602,-147.951"/>
<polygon fill="black" stroke="black" stroke-width="2" points="129.223,-144.47 119.519,-148.724 129.757,-151.45 129.223,-144.47"/>
</g>
<!-- 5&#45;&gt;1 -->
<g id="edge7" class="edge"><title>5&#45;&gt;1</title>
<path fill="none" stroke="black" stroke-width="2" d="M27.6724,-109.944C33.0248,-126.781 40.7121,-150.962 46.7922,-170.088"/>
<polygon fill="black" stroke="black" stroke-width="2" points="43.5266,-171.369 49.8917,-179.839 50.1976,-169.248 43.5266,-171.369"/>
</g>
<!-- 5&#45;&gt;2 -->
<g id="edge10" class="edge"><title>5&#45;&gt;2</title>
<path fill="none" stroke="black" stroke-width="2" d="M37.8935,-76.2363C47.4392,-68.9036 59.8192,-59.9341 71.5603,-53.0438 84.1068,-45.6808 98.6457,-38.7453 111.121,-33.2393"/>
<polygon fill="black" stroke="black" stroke-width="2" points="112.81,-36.3228 120.607,-29.1492 110.038,-29.8949 112.81,-36.3228"/>
</g>
<!-- 6&#45;&gt;3 -->
<g id="edge14" class="edge"><title>6&#45;&gt;3</title>
<path fill="none" stroke="black" stroke-width="2" d="M155.395,-138.986C155.894,-145.853 156.459,-153.62 157,-161.066"/>
<polygon fill="black" stroke="black" stroke-width="2" points="153.524,-161.531 157.74,-171.251 160.506,-161.024 153.524,-161.531"/>
</g>
<!-- 6&#45;&gt;7 -->
<g id="edge17" class="edge"><title>6&#45;&gt;7</title>
<path fill="none" stroke="black" stroke-width="2" d="M136.448,-105.159C130.129,-100.584 122.848,-95.3116 115.958,-90.3234"/>
<polygon fill="black" stroke="black" stroke-width="2" points="117.695,-87.2602 107.543,-84.2306 113.59,-92.9301 117.695,-87.2602"/>
</g>
<!-- 7&#45;&gt;0 -->
<g id="edge5" class="edge"><title>7&#45;&gt;0</title>
<path fill="none" stroke="black" stroke-width="2" d="M92.3306,-92.8369C93.1276,-100.617 94.0474,-109.595 94.9153,-118.066"/>
<polygon fill="black" stroke="black" stroke-width="2" points="91.4354,-118.442 95.9364,-128.033 98.399,-117.728 91.4354,-118.442"/>
</g>
<!-- 7&#45;&gt;2 -->
<g id="edge12" class="edge"><title>7&#45;&gt;2</title>
<path fill="none" stroke="black" stroke-width="2" d="M105.236,-56.5136C109.311,-52.4245 113.808,-47.9118 118.185,-43.5185"/>
<polygon fill="black" stroke="black" stroke-width="2" points="120.765,-45.8878 125.344,-36.3336 115.807,-40.9469 120.765,-45.8878"/>
</g>
<!-- 7&#45;&gt;5 -->
<g id="edge16" class="edge"><title>7&#45;&gt;5</title>
<path fill="none" stroke="black" stroke-width="2" d="M69.4733,-77.0394C63.883,-78.4973 57.7136,-80.1062 51.7074,-81.6726"/>
<polygon fill="black" stroke="black" stroke-width="2" points="50.6779,-78.3239 41.8848,-84.2342 52.4444,-85.0974 50.6779,-78.3239"/>
</g>
</g>
</svg>

