<?xml version="1.0" encoding="UTF-8" standalone="no"?>
<!DOCTYPE svg PUBLIC "-//W3C//DTD SVG 1.1//EN"
 "http://www.w3.org/Graphics/SVG/1.1/DTD/svg11.dtd">
<!-- Generated by graphviz version 2.36.0 (20140111.2315)
 -->
<!-- Title: G Pages: 1 -->
<svg width="100%" height="100%"
 viewBox="0.00 0.00 215.60 221.85" xmlns="http://www.w3.org/2000/svg" xmlns:xlink="http://www.w3.org/1999/xlink">
<g id="graph0" class="graph" transform="scale(1 1) rotate(0) translate(4 217.849)">
<title>G</title>
<!-- 0 -->
<g id="node1" class="node"><title>0</title>
<ellipse fill="cadetblue" stroke="black" cx="124.056" cy="-141.898" rx="21.4286" ry="21.4286"/>
<text text-anchor="middle" x="124.056" y="-136.898" font-family="Times New Roman,serif" font-size="20.00">2</text>
</g>
<!-- 5 -->
<g id="node6" class="node"><title>5</title>
<ellipse fill="cadetblue" stroke="black" cx="21.2132" cy="-106.493" rx="21.4286" ry="21.4286"/>
<text text-anchor="middle" x="21.2132" y="-101.493" font-family="Times New Roman,serif" font-size="20.00">2</text>
</g>
<!-- 0&#45;&gt;5 -->
<g id="edge3" class="edge"><title>0&#45;&gt;5</title>
<path fill="none" stroke="black" stroke-width="2" d="M103.618,-135.143C93.9165,-131.913 82.1683,-127.969 71.6434,-124.344 64.9175,-122.028 57.7019,-119.499 50.8917,-117.093"/>
<polygon fill="black" stroke="black" stroke-width="2" points="51.9032,-113.738 41.3084,-113.694 49.5634,-120.336 51.9032,-113.738"/>
</g>
<!-- 6 -->
<g id="node7" class="node"><title>6</title>
<ellipse fill="cadetblue" stroke="black" cx="133.066" cy="-78.6141" rx="21.4286" ry="21.4286"/>
<text text-anchor="middle" x="133.066" y="-73.6141" font-family="Times New Roman,serif" font-size="20.00">2</text>
</g>
<!-- 0&#45;&gt;6 -->
<g id="edge4" class="edge"><title>0&#45;&gt;6</title>
<path fill="none" stroke="black" stroke-width="2" d="M127.056,-120.825C127.553,-117.34 128.076,-113.661 128.599,-109.987"/>
<polygon fill="black" stroke="black" stroke-width="2" points="132.104,-110.204 130.048,-99.8105 125.174,-109.217 132.104,-110.204"/>
</g>
<!-- 7 -->
<g id="node8" class="node"><title>7</title>
<ellipse fill="brown" stroke="black" cx="71.6447" cy="-98.0397" rx="21.4286" ry="21.4286"/>
<text text-anchor="middle" x="71.6447" y="-93.0397" font-family="Times New Roman,serif" font-size="20.00">3</text>
</g>
<!-- 0&#45;&gt;7 -->
<g id="edge5" class="edge"><title>0&#45;&gt;7</title>
<path fill="none" stroke="black" stroke-width="2" d="M107.76,-128.261C104.049,-125.156 100.027,-121.79 96.0598,-118.47"/>
<polygon fill="black" stroke="black" stroke-width="2" points="98.0264,-115.552 88.1112,-111.819 93.5341,-120.921 98.0264,-115.552"/>
</g>
<!-- 1 -->
<g id="node2" class="node"><title>1</title>
<ellipse fill="cadetblue" stroke="black" cx="25.6614" cy="-161.462" rx="21.4286" ry="21.4286"/>
<text text-anchor="middle" x="25.6614" y="-156.462" font-family="Times New Roman,serif" font-size="20.00">2</text>
</g>
<!-- 1&#45;&gt;7 -->
<g id="edge8" class="edge"><title>1&#45;&gt;7</title>
<path fill="none" stroke="black" stroke-width="2" d="M38.2265,-144.131C42.7886,-137.839 48.0455,-130.589 53.0194,-123.728"/>
<polygon fill="black" stroke="black" stroke-width="2" points="56.0584,-125.5 59.0947,-115.349 50.3912,-121.391 56.0584,-125.5"/>
</g>
<!-- 2 -->
<g id="node3" class="node"><title>2</title>
<ellipse fill="cadetblue" stroke="black" cx="63.7804" cy="-21.2132" rx="21.4286" ry="21.4286"/>
<text text-anchor="middle" x="63.7804" y="-16.2132" font-family="Times New Roman,serif" font-size="20.00">2</text>
</g>
<!-- 2&#45;&gt;7 -->
<g id="edge11" class="edge"><title>2&#45;&gt;7</title>
<path fill="none" stroke="black" stroke-width="2" d="M65.971,-42.6137C66.7295,-50.0228 67.5962,-58.49 68.4201,-66.5387"/>
<polygon fill="black" stroke="black" stroke-width="2" points="64.9656,-67.1624 69.4658,-76.754 71.9292,-66.4495 64.9656,-67.1624"/>
</g>
<!-- 3 -->
<g id="node4" class="node"><title>3</title>
<ellipse fill="cadetblue" stroke="black" cx="91.5463" cy="-192.636" rx="21.4286" ry="21.4286"/>
<text text-anchor="middle" x="91.5463" y="-187.636" font-family="Times New Roman,serif" font-size="20.00">2</text>
</g>
<!-- 3&#45;&gt;0 -->
<g id="edge1" class="edge"><title>3&#45;&gt;0</title>
<path fill="none" stroke="black" stroke-width="2" d="M103.1,-174.605C104.345,-172.661 105.631,-170.654 106.924,-168.635"/>
<polygon fill="black" stroke="black" stroke-width="2" points="110.092,-170.179 112.54,-159.871 104.198,-166.403 110.092,-170.179"/>
</g>
<!-- 4 -->
<g id="node5" class="node"><title>4</title>
<ellipse fill="cadetblue" stroke="black" cx="186.387" cy="-160.41" rx="21.4286" ry="21.4286"/>
<text text-anchor="middle" x="186.387" y="-155.41" font-family="Times New Roman,serif" font-size="20.00">2</text>
</g>
<!-- 3&#45;&gt;4 -->
<g id="edge12" class="edge"><title>3&#45;&gt;4</title>
<path fill="none" stroke="black" stroke-width="2" d="M111.659,-185.801C124.648,-181.388 141.783,-175.566 156.368,-170.61"/>
<polygon fill="black" stroke="black" stroke-width="2" points="157.633,-173.876 165.975,-167.345 155.381,-167.249 157.633,-173.876"/>
</g>
<!-- 4&#45;&gt;0 -->
<g id="edge2" class="edge"><title>4&#45;&gt;0</title>
<path fill="none" stroke="black" stroke-width="2" d="M165.977,-154.348C162.249,-153.241 158.287,-152.064 154.344,-150.893"/>
<polygon fill="black" stroke="black" stroke-width="2" points="155.307,-147.528 144.725,-148.036 153.315,-154.239 155.307,-147.528"/>
</g>
<!-- 5&#45;&gt;1 -->
<g id="edge6" class="edge"><title>5&#45;&gt;1</title>
<path fill="none" stroke="black" stroke-width="2" d="M22.9457,-127.903C22.996,-128.524 23.0467,-129.15 23.0976,-129.78"/>
<polygon fill="black" stroke="black" stroke-width="2" points="19.631,-130.335 23.9263,-140.02 26.6082,-129.77 19.631,-130.335"/>
</g>
<!-- 5&#45;&gt;2 -->
<g id="edge9" class="edge"><title>5&#45;&gt;2</title>
<path fill="none" stroke="black" stroke-width="2" d="M30.8724,-87.1415C36.4628,-75.9416 43.5967,-61.6495 49.7923,-49.2371"/>
<polygon fill="black" stroke="black" stroke-width="2" points="52.9716,-50.7046 54.3061,-40.1941 46.7085,-47.5783 52.9716,-50.7046"/>
</g>
<!-- 5&#45;&gt;3 -->
<g id="edge13" class="edge"><title>5&#45;&gt;3</title>
<path fill="none" stroke="black" stroke-width="2" d="M34.7741,-123.102C45.1852,-135.853 59.7212,-153.657 71.4781,-168.056"/>
<polygon fill="black" stroke="black" stroke-width="2" points="68.9914,-170.545 78.027,-176.077 74.4137,-166.118 68.9914,-170.545"/>
</g>
<!-- 6&#45;&gt;1 -->
<g id="edge7" class="edge"><title>6&#45;&gt;1</title>
<path fill="none" stroke="black" stroke-width="2" d="M117.591,-93.1628C109.617,-100.449 99.622,-109.265 90.2438,-116.641 78.1047,-126.187 64.0789,-136.052 52.2061,-144.087"/>
<polygon fill="black" stroke="black" stroke-width="2" points="49.9757,-141.369 43.6134,-149.84 53.8702,-147.185 49.9757,-141.369"/>
</g>
<!-- 6&#45;&gt;2 -->
<g id="edge10" class="edge"><title>6&#45;&gt;2</title>
<path fill="none" stroke="black" stroke-width="2" d="M116.646,-65.0109C108.228,-58.0364 97.802,-49.399 88.4399,-41.6428"/>
<polygon fill="black" stroke="black" stroke-width="2" points="90.4971,-38.802 80.5636,-35.1175 86.0313,-44.1925 90.4971,-38.802"/>
</g>
<!-- 6&#45;&gt;4 -->
<g id="edge15" class="edge"><title>6&#45;&gt;4</title>
<path fill="none" stroke="black" stroke-width="2" d="M144.9,-96.7672C152.059,-107.75 161.311,-121.942 169.26,-134.137"/>
<polygon fill="black" stroke="black" stroke-width="2" points="166.377,-136.123 174.77,-142.589 172.241,-132.3 166.377,-136.123"/>
</g>
<!-- 7&#45;&gt;3 -->
<g id="edge14" class="edge"><title>7&#45;&gt;3</title>
<path fill="none" stroke="black" stroke-width="2" d="M76.0615,-119.034C78.6896,-131.526 82.0729,-147.607 85.0063,-161.55"/>
<polygon fill="black" stroke="black" stroke-width="2" points="81.6579,-162.635 87.1418,-171.7 88.508,-161.194 81.6579,-162.635"/>
</g>
<!-- 7&#45;&gt;5 -->
<g id="edge16" class="edge"><title>7&#45;&gt;5</title>
<path fill="none" stroke="black" stroke-width="2" d="M50.5494,-101.576C50.465,-101.59 50.3806,-101.604 50.2962,-101.618"/>
<polygon fill="black" stroke="black" stroke-width="2" points="51.6698,-97.8388 42.386,-102.944 52.8271,-104.743 51.6698,-97.8388"/>
</g>
<!-- 7&#45;&gt;6 -->
<g id="edge17" class="edge"><title>7&#45;&gt;6</title>
<path fill="none" stroke="black" stroke-width="2" d="M92.0971,-91.5713C95.5825,-90.4689 99.267,-89.3036 102.94,-88.1419"/>
<polygon fill="black" stroke="black" stroke-width="2" points="104.014,-91.4731 112.493,-85.1205 101.904,-84.799 104.014,-91.4731"/>
</g>
</g>
</svg>

