<?xml version="1.0" encoding="UTF-8" standalone="no"?>
<!DOCTYPE svg PUBLIC "-//W3C//DTD SVG 1.1//EN"
 "http://www.w3.org/Graphics/SVG/1.1/DTD/svg11.dtd">
<!-- Generated by graphviz version 2.36.0 (20140111.2315)
 -->
<!-- Title: G Pages: 1 -->
<svg width="100%" height="100%"
 viewBox="0.00 0.00 229.92 206.19" xmlns="http://www.w3.org/2000/svg" xmlns:xlink="http://www.w3.org/1999/xlink">
<g id="graph0" class="graph" transform="scale(1 1) rotate(0) translate(4 202.185)">
<title>G</title>
<!-- 0 -->
<g id="node1" class="node"><title>0</title>
<ellipse fill="cadetblue" stroke="black" cx="169.9" cy="-165.861" rx="21.4286" ry="21.4286"/>
<text text-anchor="middle" x="169.9" y="-160.861" font-family="Times New Roman,serif" font-size="20.00">2</text>
</g>
<!-- 3 -->
<g id="node4" class="node"><title>3</title>
<ellipse fill="cadetblue" stroke="black" cx="86.5771" cy="-176.972" rx="21.4286" ry="21.4286"/>
<text text-anchor="middle" x="86.5771" y="-171.972" font-family="Times New Roman,serif" font-size="20.00">2</text>
</g>
<!-- 0&#45;&gt;3 -->
<g id="edge1" class="edge"><title>0&#45;&gt;3</title>
<path fill="none" stroke="black" stroke-width="2" d="M148.442,-168.722C139.138,-169.963 128.059,-171.441 117.865,-172.8"/>
<polygon fill="black" stroke="black" stroke-width="2" points="117.123,-169.368 107.674,-174.159 118.049,-176.306 117.123,-169.368"/>
</g>
<!-- 4 -->
<g id="node5" class="node"><title>4</title>
<ellipse fill="brown" stroke="black" cx="200.709" cy="-71.5364" rx="21.4286" ry="21.4286"/>
<text text-anchor="middle" x="200.709" y="-66.5364" font-family="Times New Roman,serif" font-size="20.00">3</text>
</g>
<!-- 0&#45;&gt;4 -->
<g id="edge2" class="edge"><title>0&#45;&gt;4</title>
<path fill="none" stroke="black" stroke-width="2" d="M176.585,-145.394C180.744,-132.663 186.166,-116.062 190.816,-101.824"/>
<polygon fill="black" stroke="black" stroke-width="2" points="194.259,-102.556 194.037,-91.9635 187.605,-100.383 194.259,-102.556"/>
</g>
<!-- 1 -->
<g id="node2" class="node"><title>1</title>
<ellipse fill="cadetblue" stroke="black" cx="21.2132" cy="-107.765" rx="21.4286" ry="21.4286"/>
<text text-anchor="middle" x="21.2132" y="-102.765" font-family="Times New Roman,serif" font-size="20.00">2</text>
</g>
<!-- 7 -->
<g id="node8" class="node"><title>7</title>
<ellipse fill="cadetblue" stroke="black" cx="91.9107" cy="-41.5077" rx="21.4286" ry="21.4286"/>
<text text-anchor="middle" x="91.9107" y="-36.5077" font-family="Times New Roman,serif" font-size="20.00">2</text>
</g>
<!-- 1&#45;&gt;7 -->
<g id="edge7" class="edge"><title>1&#45;&gt;7</title>
<path fill="none" stroke="black" stroke-width="2" d="M36.9033,-93.0603C46.2393,-84.3106 58.2578,-73.0469 68.6783,-63.2809"/>
<polygon fill="black" stroke="black" stroke-width="2" points="71.3613,-65.5633 76.2645,-56.1712 66.5746,-60.4557 71.3613,-65.5633"/>
</g>
<!-- 2 -->
<g id="node3" class="node"><title>2</title>
<ellipse fill="cadetblue" stroke="black" cx="150.277" cy="-21.2132" rx="21.4286" ry="21.4286"/>
<text text-anchor="middle" x="150.277" y="-16.2132" font-family="Times New Roman,serif" font-size="20.00">2</text>
</g>
<!-- 5 -->
<g id="node6" class="node"><title>5</title>
<ellipse fill="cadetblue" stroke="black" cx="91.1326" cy="-107.292" rx="21.4286" ry="21.4286"/>
<text text-anchor="middle" x="91.1326" y="-102.292" font-family="Times New Roman,serif" font-size="20.00">2</text>
</g>
<!-- 2&#45;&gt;5 -->
<g id="edge9" class="edge"><title>2&#45;&gt;5</title>
<path fill="none" stroke="black" stroke-width="2" d="M138.023,-39.0488C129.64,-51.2483 118.392,-67.6191 109.013,-81.2685"/>
<polygon fill="black" stroke="black" stroke-width="2" points="105.948,-79.5499 103.169,-89.7739 111.717,-83.514 105.948,-79.5499"/>
</g>
<!-- 2&#45;&gt;7 -->
<g id="edge11" class="edge"><title>2&#45;&gt;7</title>
<path fill="none" stroke="black" stroke-width="2" d="M130.191,-28.1974C127.47,-29.1434 124.633,-30.13 121.786,-31.1198"/>
<polygon fill="black" stroke="black" stroke-width="2" points="120.528,-27.8516 112.232,-34.4417 122.827,-34.4633 120.528,-27.8516"/>
</g>
<!-- 3&#45;&gt;1 -->
<g id="edge5" class="edge"><title>3&#45;&gt;1</title>
<path fill="none" stroke="black" stroke-width="2" d="M71.7451,-161.268C63.2207,-152.242 52.3593,-140.742 42.8924,-130.719"/>
<polygon fill="black" stroke="black" stroke-width="2" points="45.3975,-128.274 35.9866,-123.407 40.3084,-133.08 45.3975,-128.274"/>
</g>
<!-- 6 -->
<g id="node7" class="node"><title>6</title>
<ellipse fill="cadetblue" stroke="black" cx="149.86" cy="-104.51" rx="21.4286" ry="21.4286"/>
<text text-anchor="middle" x="149.86" y="-99.5096" font-family="Times New Roman,serif" font-size="20.00">2</text>
</g>
<!-- 3&#45;&gt;6 -->
<g id="edge13" class="edge"><title>3&#45;&gt;6</title>
<path fill="none" stroke="black" stroke-width="2" d="M100.622,-160.89C108.979,-151.321 119.737,-139.002 129.064,-128.322"/>
<polygon fill="black" stroke="black" stroke-width="2" points="131.913,-130.381 135.855,-120.546 126.641,-125.776 131.913,-130.381"/>
</g>
<!-- 4&#45;&gt;2 -->
<g id="edge8" class="edge"><title>4&#45;&gt;2</title>
<path fill="none" stroke="black" stroke-width="2" d="M185.578,-56.4378C181.489,-52.3575 176.976,-47.8544 172.583,-43.4706"/>
<polygon fill="black" stroke="black" stroke-width="2" points="174.949,-40.8871 165.398,-36.3012 170.004,-45.8422 174.949,-40.8871"/>
</g>
<!-- 5&#45;&gt;0 -->
<g id="edge3" class="edge"><title>5&#45;&gt;0</title>
<path fill="none" stroke="black" stroke-width="2" d="M108.224,-120.001C118.856,-127.906 132.719,-138.214 144.608,-147.055"/>
<polygon fill="black" stroke="black" stroke-width="2" points="142.729,-150.019 152.842,-153.177 146.906,-144.402 142.729,-150.019"/>
</g>
<!-- 5&#45;&gt;1 -->
<g id="edge6" class="edge"><title>5&#45;&gt;1</title>
<path fill="none" stroke="black" stroke-width="2" d="M69.7746,-107.437C64.353,-107.473 58.4143,-107.513 52.6081,-107.553"/>
<polygon fill="black" stroke="black" stroke-width="2" points="52.4165,-104.054 42.4405,-107.621 52.4639,-111.054 52.4165,-104.054"/>
</g>
<!-- 5&#45;&gt;3 -->
<g id="edge12" class="edge"><title>5&#45;&gt;3</title>
<path fill="none" stroke="black" stroke-width="2" d="M89.7411,-128.577C89.4031,-133.747 89.0342,-139.39 88.6715,-144.937"/>
<polygon fill="black" stroke="black" stroke-width="2" points="85.1515,-145.129 87.9916,-155.337 92.1366,-145.586 85.1515,-145.129"/>
</g>
<!-- 6&#45;&gt;0 -->
<g id="edge4" class="edge"><title>6&#45;&gt;0</title>
<path fill="none" stroke="black" stroke-width="2" d="M156.533,-124.939C157.67,-128.42 158.873,-132.101 160.071,-135.77"/>
<polygon fill="black" stroke="black" stroke-width="2" points="156.756,-136.893 163.188,-145.312 163.41,-134.719 156.756,-136.893"/>
</g>
<!-- 6&#45;&gt;2 -->
<g id="edge10" class="edge"><title>6&#45;&gt;2</title>
<path fill="none" stroke="black" stroke-width="2" d="M149.968,-83.0587C150.014,-73.8285 150.069,-62.852 150.12,-52.7264"/>
<polygon fill="black" stroke="black" stroke-width="2" points="153.62,-52.6088 150.17,-42.5914 146.62,-52.5737 153.62,-52.6088"/>
</g>
<!-- 6&#45;&gt;4 -->
<g id="edge14" class="edge"><title>6&#45;&gt;4</title>
<path fill="none" stroke="black" stroke-width="2" d="M167.931,-92.7916C169.879,-91.5283 171.89,-90.224 173.913,-88.9123"/>
<polygon fill="black" stroke="black" stroke-width="2" points="176.21,-91.594 182.697,-83.2166 172.402,-85.7208 176.21,-91.594"/>
</g>
<!-- 7&#45;&gt;4 -->
<g id="edge15" class="edge"><title>7&#45;&gt;4</title>
<path fill="none" stroke="black" stroke-width="2" d="M112.375,-47.1559C128.683,-51.657 151.766,-58.028 170.246,-63.1285"/>
<polygon fill="black" stroke="black" stroke-width="2" points="169.396,-66.5247 179.967,-65.8114 171.258,-59.777 169.396,-66.5247"/>
</g>
<!-- 7&#45;&gt;5 -->
<g id="edge16" class="edge"><title>7&#45;&gt;5</title>
<path fill="none" stroke="black" stroke-width="2" d="M91.6559,-63.048C91.6084,-67.0645 91.5579,-71.3384 91.5076,-75.5859"/>
<polygon fill="black" stroke="black" stroke-width="2" points="88.0039,-75.8875 91.3853,-85.9282 95.0034,-75.9703 88.0039,-75.8875"/>
</g>
<!-- 7&#45;&gt;6 -->
<g id="edge17" class="edge"><title>7&#45;&gt;6</title>
<path fill="none" stroke="black" stroke-width="2" d="M106.534,-57.4057C113.173,-64.6234 121.156,-73.3031 128.452,-81.2346"/>
<polygon fill="black" stroke="black" stroke-width="2" points="126.097,-83.8443 135.442,-88.8349 131.249,-79.1054 126.097,-83.8443"/>
</g>
</g>
</svg>

