<?xml version="1.0" encoding="UTF-8" standalone="no"?>
<!DOCTYPE svg PUBLIC "-//W3C//DTD SVG 1.1//EN"
 "http://www.w3.org/Graphics/SVG/1.1/DTD/svg11.dtd">
<!-- Generated by graphviz version 2.36.0 (20140111.2315)
 -->
<!-- Title: G Pages: 1 -->
<svg width="100%" height="100%"
 viewBox="0.00 0.00 228.25 225.78" xmlns="http://www.w3.org/2000/svg" xmlns:xlink="http://www.w3.org/1999/xlink">
<g id="graph0" class="graph" transform="scale(1 1) rotate(0) translate(4 221.781)">
<title>G</title>
<!-- 0 -->
<g id="node1" class="node"><title>0</title>
<ellipse fill="cadetblue" stroke="black" cx="144.901" cy="-77.1398" rx="21.4286" ry="21.4286"/>
<text text-anchor="middle" x="144.901" y="-72.1398" font-family="Times New Roman,serif" font-size="20.00">2</text>
</g>
<!-- 4 -->
<g id="node5" class="node"><title>4</title>
<ellipse fill="cadetblue" stroke="black" cx="199.033" cy="-115.465" rx="21.4286" ry="21.4286"/>
<text text-anchor="middle" x="199.033" y="-110.465" font-family="Times New Roman,serif" font-size="20.00">2</text>
</g>
<!-- 0&#45;&gt;4 -->
<g id="edge2" class="edge"><title>0&#45;&gt;4</title>
<path fill="none" stroke="black" stroke-width="2" d="M162.326,-89.4771C165.804,-91.9389 169.525,-94.5735 173.215,-97.1862"/>
<polygon fill="black" stroke="black" stroke-width="2" points="171.456,-100.229 181.64,-103.151 175.501,-94.516 171.456,-100.229"/>
</g>
<!-- 5 -->
<g id="node6" class="node"><title>5</title>
<ellipse fill="cadetblue" stroke="black" cx="34.405" cy="-96.602" rx="21.4286" ry="21.4286"/>
<text text-anchor="middle" x="34.405" y="-91.602" font-family="Times New Roman,serif" font-size="20.00">2</text>
</g>
<!-- 0&#45;&gt;5 -->
<g id="edge3" class="edge"><title>0&#45;&gt;5</title>
<path fill="none" stroke="black" stroke-width="2" d="M123.857,-80.8463C107.345,-83.7547 84.1115,-87.8469 65.4614,-91.1319"/>
<polygon fill="black" stroke="black" stroke-width="2" points="64.6114,-87.7276 55.3701,-92.9093 65.8257,-94.6215 64.6114,-87.7276"/>
</g>
<!-- 1 -->
<g id="node2" class="node"><title>1</title>
<ellipse fill="cadetblue" stroke="black" cx="21.2132" cy="-196.568" rx="21.4286" ry="21.4286"/>
<text text-anchor="middle" x="21.2132" y="-191.568" font-family="Times New Roman,serif" font-size="20.00">2</text>
</g>
<!-- 3 -->
<g id="node4" class="node"><title>3</title>
<ellipse fill="cadetblue" stroke="black" cx="121.898" cy="-186.761" rx="21.4286" ry="21.4286"/>
<text text-anchor="middle" x="121.898" y="-181.761" font-family="Times New Roman,serif" font-size="20.00">2</text>
</g>
<!-- 1&#45;&gt;3 -->
<g id="edge5" class="edge"><title>1&#45;&gt;3</title>
<path fill="none" stroke="black" stroke-width="2" d="M42.5659,-194.488C56.4487,-193.136 74.7933,-191.349 90.345,-189.834"/>
<polygon fill="black" stroke="black" stroke-width="2" points="90.9625,-193.29 100.576,-188.837 90.2839,-186.323 90.9625,-193.29"/>
</g>
<!-- 2 -->
<g id="node3" class="node"><title>2</title>
<ellipse fill="cadetblue" stroke="black" cx="106.901" cy="-21.2132" rx="21.4286" ry="21.4286"/>
<text text-anchor="middle" x="106.901" y="-16.2132" font-family="Times New Roman,serif" font-size="20.00">2</text>
</g>
<!-- 2&#45;&gt;4 -->
<g id="edge8" class="edge"><title>2&#45;&gt;4</title>
<path fill="none" stroke="black" stroke-width="2" d="M125.993,-31.0376C137.752,-37.7216 152.616,-47.3734 163.557,-58.5964 171.682,-66.9316 178.874,-77.4358 184.622,-87.1413"/>
<polygon fill="black" stroke="black" stroke-width="2" points="181.714,-89.1113 189.673,-96.1049 187.813,-85.6747 181.714,-89.1113"/>
</g>
<!-- 3&#45;&gt;0 -->
<g id="edge1" class="edge"><title>3&#45;&gt;0</title>
<path fill="none" stroke="black" stroke-width="2" d="M126.279,-165.884C129.716,-149.502 134.553,-126.453 138.435,-107.95"/>
<polygon fill="black" stroke="black" stroke-width="2" points="141.908,-108.445 140.536,-97.9389 135.057,-107.007 141.908,-108.445"/>
</g>
<!-- 3&#45;&gt;5 -->
<g id="edge12" class="edge"><title>3&#45;&gt;5</title>
<path fill="none" stroke="black" stroke-width="2" d="M105.649,-172.648C96.5935,-164.582 85.2493,-154.139 75.6861,-144.287 68.629,-137.017 61.2802,-128.772 54.7726,-121.208"/>
<polygon fill="black" stroke="black" stroke-width="2" points="57.2359,-118.701 48.095,-113.345 51.9002,-123.233 57.2359,-118.701"/>
</g>
<!-- 6 -->
<g id="node7" class="node"><title>6</title>
<ellipse fill="brown" stroke="black" cx="94.4691" cy="-125.872" rx="21.4286" ry="21.4286"/>
<text text-anchor="middle" x="94.4691" y="-120.872" font-family="Times New Roman,serif" font-size="20.00">3</text>
</g>
<!-- 3&#45;&gt;6 -->
<g id="edge13" class="edge"><title>3&#45;&gt;6</title>
<path fill="none" stroke="black" stroke-width="2" d="M113.068,-167.16C111.258,-163.14 109.316,-158.83 107.395,-154.566"/>
<polygon fill="black" stroke="black" stroke-width="2" points="110.581,-153.116 103.282,-145.436 104.198,-155.991 110.581,-153.116"/>
</g>
<!-- 4&#45;&gt;3 -->
<g id="edge11" class="edge"><title>4&#45;&gt;3</title>
<path fill="none" stroke="black" stroke-width="2" d="M183.424,-129.893C172.341,-140.136 157.282,-154.055 144.837,-165.559"/>
<polygon fill="black" stroke="black" stroke-width="2" points="142.452,-162.996 137.484,-172.354 147.204,-168.137 142.452,-162.996"/>
</g>
<!-- 4&#45;&gt;6 -->
<g id="edge14" class="edge"><title>4&#45;&gt;6</title>
<path fill="none" stroke="black" stroke-width="2" d="M177.873,-117.571C162.85,-119.066 142.436,-121.098 125.565,-122.777"/>
<polygon fill="black" stroke="black" stroke-width="2" points="125.202,-119.296 115.598,-123.769 125.895,-126.261 125.202,-119.296"/>
</g>
<!-- 5&#45;&gt;1 -->
<g id="edge6" class="edge"><title>5&#45;&gt;1</title>
<path fill="none" stroke="black" stroke-width="2" d="M31.6074,-117.802C29.7884,-131.586 27.3849,-149.799 25.3473,-165.24"/>
<polygon fill="black" stroke="black" stroke-width="2" points="21.8453,-165.026 24.0068,-175.398 28.7851,-165.942 21.8453,-165.026"/>
</g>
<!-- 5&#45;&gt;2 -->
<g id="edge9" class="edge"><title>5&#45;&gt;2</title>
<path fill="none" stroke="black" stroke-width="2" d="M49.4262,-80.9814C59.7006,-70.297 73.4881,-55.9593 84.9836,-44.005"/>
<polygon fill="black" stroke="black" stroke-width="2" points="87.7382,-46.1899 92.1468,-36.5559 82.6926,-41.3379 87.7382,-46.1899"/>
</g>
<!-- 5&#45;&gt;6 -->
<g id="edge15" class="edge"><title>5&#45;&gt;6</title>
<path fill="none" stroke="black" stroke-width="2" d="M53.7403,-106.024C57.7055,-107.957 61.957,-110.028 66.1631,-112.078"/>
<polygon fill="black" stroke="black" stroke-width="2" points="64.6473,-115.233 75.17,-116.467 67.7138,-108.94 64.6473,-115.233"/>
</g>
<!-- 6&#45;&gt;0 -->
<g id="edge4" class="edge"><title>6&#45;&gt;0</title>
<path fill="none" stroke="black" stroke-width="2" d="M109.874,-110.986C113.785,-107.207 118.068,-103.068 122.256,-99.0212"/>
<polygon fill="black" stroke="black" stroke-width="2" points="124.831,-101.4 129.59,-91.9346 119.966,-96.3666 124.831,-101.4"/>
</g>
<!-- 6&#45;&gt;1 -->
<g id="edge7" class="edge"><title>6&#45;&gt;1</title>
<path fill="none" stroke="black" stroke-width="2" d="M78.9334,-140.865C68.8326,-150.612 55.4854,-163.493 44.1704,-174.413"/>
<polygon fill="black" stroke="black" stroke-width="2" points="41.4917,-172.134 36.7265,-181.596 46.3527,-177.171 41.4917,-172.134"/>
</g>
<!-- 6&#45;&gt;2 -->
<g id="edge10" class="edge"><title>6&#45;&gt;2</title>
<path fill="none" stroke="black" stroke-width="2" d="M96.9848,-104.693C98.7709,-89.6556 101.198,-69.2234 103.204,-52.337"/>
<polygon fill="black" stroke="black" stroke-width="2" points="106.685,-52.704 104.389,-42.3609 99.7335,-51.8783 106.685,-52.704"/>
</g>
</g>
</svg>

