<?xml version="1.0" encoding="UTF-8" standalone="no"?>
<!DOCTYPE svg PUBLIC "-//W3C//DTD SVG 1.1//EN"
 "http://www.w3.org/Graphics/SVG/1.1/DTD/svg11.dtd">
<!-- Generated by graphviz version 2.36.0 (20140111.2315)
 -->
<!-- Title: G Pages: 1 -->
<svg width="100%" height="100%"
 viewBox="0.00 0.00 297.25 299.45" xmlns="http://www.w3.org/2000/svg" xmlns:xlink="http://www.w3.org/1999/xlink">
<g id="graph0" class="graph" transform="scale(1 1) rotate(0) translate(4 295.445)">
<title>G</title>
<!-- 0 -->
<g id="node1" class="node"><title>0</title>
<ellipse fill="cadetblue" stroke="black" cx="41.4664" cy="-175.691" rx="21.4286" ry="21.4286"/>
<text text-anchor="middle" x="41.4664" y="-170.691" font-family="Times New Roman,serif" font-size="20.00">2</text>
</g>
<!-- 4 -->
<g id="node5" class="node"><title>4</title>
<ellipse fill="brown" stroke="black" cx="141.966" cy="-21.2132" rx="21.4286" ry="21.4286"/>
<text text-anchor="middle" x="141.966" y="-16.2132" font-family="Times New Roman,serif" font-size="20.00">3</text>
</g>
<!-- 0&#45;&gt;4 -->
<g id="edge2" class="edge"><title>0&#45;&gt;4</title>
<path fill="none" stroke="black" stroke-width="2" d="M53.1917,-157.668C70.8171,-130.576 104.246,-79.1931 124.674,-47.7933"/>
<polygon fill="black" stroke="black" stroke-width="2" points="127.796,-49.4123 130.316,-39.1213 121.929,-45.5949 127.796,-49.4123"/>
</g>
<!-- 6 -->
<g id="node7" class="node"><title>6</title>
<ellipse fill="cadetblue" stroke="black" cx="141.814" cy="-166.366" rx="21.4286" ry="21.4286"/>
<text text-anchor="middle" x="141.814" y="-161.366" font-family="Times New Roman,serif" font-size="20.00">2</text>
</g>
<!-- 0&#45;&gt;6 -->
<g id="edge3" class="edge"><title>0&#45;&gt;6</title>
<path fill="none" stroke="black" stroke-width="2" d="M62.7474,-173.714C76.5837,-172.428 94.8669,-170.729 110.366,-169.289"/>
<polygon fill="black" stroke="black" stroke-width="2" points="110.93,-172.751 120.563,-168.341 110.282,-165.782 110.93,-172.751"/>
</g>
<!-- 1 -->
<g id="node2" class="node"><title>1</title>
<ellipse fill="cadetblue" stroke="black" cx="21.2132" cy="-95.4938" rx="21.4286" ry="21.4286"/>
<text text-anchor="middle" x="21.2132" y="-90.4938" font-family="Times New Roman,serif" font-size="20.00">2</text>
</g>
<!-- 5 -->
<g id="node6" class="node"><title>5</title>
<ellipse fill="cadetblue" stroke="black" cx="168.679" cy="-115.935" rx="21.4286" ry="21.4286"/>
<text text-anchor="middle" x="168.679" y="-110.935" font-family="Times New Roman,serif" font-size="20.00">2</text>
</g>
<!-- 1&#45;&gt;5 -->
<g id="edge6" class="edge"><title>1&#45;&gt;5</title>
<path fill="none" stroke="black" stroke-width="2" d="M42.3415,-98.4225C67.1991,-101.868 108.701,-107.621 137.316,-111.587"/>
<polygon fill="black" stroke="black" stroke-width="2" points="137.204,-115.105 147.59,-113.012 138.165,-108.172 137.204,-115.105"/>
</g>
<!-- 7 -->
<g id="node8" class="node"><title>7</title>
<ellipse fill="cadetblue" stroke="black" cx="59.0088" cy="-36.77" rx="21.4286" ry="21.4286"/>
<text text-anchor="middle" x="59.0088" y="-31.77" font-family="Times New Roman,serif" font-size="20.00">2</text>
</g>
<!-- 1&#45;&gt;7 -->
<g id="edge8" class="edge"><title>1&#45;&gt;7</title>
<path fill="none" stroke="black" stroke-width="2" d="M32.7585,-77.5556C35.563,-73.1982 38.6235,-68.443 41.6322,-63.7683"/>
<polygon fill="black" stroke="black" stroke-width="2" points="44.8044,-65.3067 47.2734,-55.0036 38.9181,-61.5182 44.8044,-65.3067"/>
</g>
<!-- 2 -->
<g id="node3" class="node"><title>2</title>
<ellipse fill="cadetblue" stroke="black" cx="268.038" cy="-79.3" rx="21.4286" ry="21.4286"/>
<text text-anchor="middle" x="268.038" y="-74.3" font-family="Times New Roman,serif" font-size="20.00">2</text>
</g>
<!-- 2&#45;&gt;6 -->
<g id="edge11" class="edge"><title>2&#45;&gt;6</title>
<path fill="none" stroke="black" stroke-width="2" d="M250.487,-91.4062C229.13,-106.138 192.868,-131.151 168.155,-148.197"/>
<polygon fill="black" stroke="black" stroke-width="2" points="165.867,-145.523 159.623,-154.082 169.842,-151.285 165.867,-145.523"/>
</g>
<!-- 3 -->
<g id="node4" class="node"><title>3</title>
<ellipse fill="cadetblue" stroke="black" cx="139.622" cy="-270.232" rx="21.4286" ry="21.4286"/>
<text text-anchor="middle" x="139.622" y="-265.232" font-family="Times New Roman,serif" font-size="20.00">2</text>
</g>
<!-- 3&#45;&gt;0 -->
<g id="edge1" class="edge"><title>3&#45;&gt;0</title>
<path fill="none" stroke="black" stroke-width="2" d="M124.285,-255.46C108.245,-240.01 82.8832,-215.583 64.4486,-197.827"/>
<polygon fill="black" stroke="black" stroke-width="2" points="66.65,-195.088 57.0194,-190.672 61.7939,-200.13 66.65,-195.088"/>
</g>
<!-- 4&#45;&gt;1 -->
<g id="edge5" class="edge"><title>4&#45;&gt;1</title>
<path fill="none" stroke="black" stroke-width="2" d="M123.888,-32.3338C103.792,-44.6961 71.13,-64.7878 48.0483,-78.9863"/>
<polygon fill="black" stroke="black" stroke-width="2" points="46.0984,-76.0766 39.4147,-84.2972 49.7661,-82.0388 46.0984,-76.0766"/>
</g>
<!-- 4&#45;&gt;2 -->
<g id="edge9" class="edge"><title>4&#45;&gt;2</title>
<path fill="none" stroke="black" stroke-width="2" d="M161.389,-30.162C182.15,-39.7278 215.293,-54.9979 239.123,-65.9776"/>
<polygon fill="black" stroke="black" stroke-width="2" points="237.839,-69.2395 248.386,-70.2454 240.768,-62.8819 237.839,-69.2395"/>
</g>
<!-- 5&#45;&gt;2 -->
<g id="edge10" class="edge"><title>5&#45;&gt;2</title>
<path fill="none" stroke="black" stroke-width="2" d="M188.786,-108.521C203.062,-103.258 222.459,-96.1056 238.49,-90.1946"/>
<polygon fill="black" stroke="black" stroke-width="2" points="239.79,-93.446 247.961,-86.7026 237.368,-86.8783 239.79,-93.446"/>
</g>
<!-- 5&#45;&gt;3 -->
<g id="edge12" class="edge"><title>5&#45;&gt;3</title>
<path fill="none" stroke="black" stroke-width="2" d="M169.647,-137.141C169.75,-146.195 169.458,-156.854 168.118,-166.398 164.561,-191.736 156.661,-219.662 150.08,-240.166"/>
<polygon fill="black" stroke="black" stroke-width="2" points="146.686,-239.281 146.884,-249.874 153.335,-241.469 146.686,-239.281"/>
</g>
<!-- 5&#45;&gt;4 -->
<g id="edge14" class="edge"><title>5&#45;&gt;4</title>
<path fill="none" stroke="black" stroke-width="2" d="M162.883,-95.3817C159.277,-82.5969 154.576,-65.9259 150.544,-51.6282"/>
<polygon fill="black" stroke="black" stroke-width="2" points="153.834,-50.4009 147.751,-41.7263 147.097,-52.3009 153.834,-50.4009"/>
</g>
<!-- 6&#45;&gt;1 -->
<g id="edge7" class="edge"><title>6&#45;&gt;1</title>
<path fill="none" stroke="black" stroke-width="2" d="M123.497,-155.602C103.574,-143.895 71.5139,-125.054 48.5978,-111.587"/>
<polygon fill="black" stroke="black" stroke-width="2" points="50.097,-108.408 39.7022,-106.359 46.5504,-114.443 50.097,-108.408"/>
</g>
<!-- 6&#45;&gt;3 -->
<g id="edge13" class="edge"><title>6&#45;&gt;3</title>
<path fill="none" stroke="black" stroke-width="2" d="M141.365,-187.636C141.055,-202.339 140.637,-222.151 140.288,-238.685"/>
<polygon fill="black" stroke="black" stroke-width="2" points="136.782,-238.92 140.07,-248.991 143.781,-239.067 136.782,-238.92"/>
</g>
<!-- 6&#45;&gt;7 -->
<g id="edge17" class="edge"><title>6&#45;&gt;7</title>
<path fill="none" stroke="black" stroke-width="2" d="M130.3,-148.347C116.228,-126.323 92.2921,-88.861 76.0765,-63.4823"/>
<polygon fill="black" stroke="black" stroke-width="2" points="79.0253,-61.5968 70.6916,-55.0546 73.1265,-65.3658 79.0253,-61.5968"/>
</g>
<!-- 7&#45;&gt;0 -->
<g id="edge4" class="edge"><title>7&#45;&gt;0</title>
<path fill="none" stroke="black" stroke-width="2" d="M56.3445,-57.8692C53.4466,-80.8182 48.7831,-117.749 45.4497,-144.147"/>
<polygon fill="black" stroke="black" stroke-width="2" points="41.9362,-144.034 44.1558,-154.394 48.8811,-144.911 41.9362,-144.034"/>
</g>
<!-- 7&#45;&gt;4 -->
<g id="edge15" class="edge"><title>7&#45;&gt;4</title>
<path fill="none" stroke="black" stroke-width="2" d="M79.9425,-32.8444C89.3743,-31.0756 100.702,-28.9513 111.082,-27.0049"/>
<polygon fill="black" stroke="black" stroke-width="2" points="111.856,-30.4208 121.039,-25.1376 110.566,-23.5408 111.856,-30.4208"/>
</g>
<!-- 7&#45;&gt;5 -->
<g id="edge16" class="edge"><title>7&#45;&gt;5</title>
<path fill="none" stroke="black" stroke-width="2" d="M76.6293,-49.4892C94.6427,-62.4921 122.801,-82.8179 143.233,-97.5665"/>
<polygon fill="black" stroke="black" stroke-width="2" points="141.307,-100.493 151.464,-103.508 145.404,-94.8175 141.307,-100.493"/>
</g>
</g>
</svg>

