<?xml version="1.0" encoding="UTF-8" standalone="no"?>
<!DOCTYPE svg PUBLIC "-//W3C//DTD SVG 1.1//EN"
 "http://www.w3.org/Graphics/SVG/1.1/DTD/svg11.dtd">
<!-- Generated by graphviz version 2.36.0 (20140111.2315)
 -->
<!-- Title: G Pages: 1 -->
<svg width="100%" height="100%"
 viewBox="0.00 0.00 236.05 216.70" xmlns="http://www.w3.org/2000/svg" xmlns:xlink="http://www.w3.org/1999/xlink">
<g id="graph0" class="graph" transform="scale(1 1) rotate(0) translate(4 212.695)">
<title>G</title>
<!-- 0 -->
<g id="node1" class="node"><title>0</title>
<ellipse fill="cadetblue" stroke="black" cx="206.839" cy="-164.095" rx="21.4286" ry="21.4286"/>
<text text-anchor="middle" x="206.839" y="-159.095" font-family="Times New Roman,serif" font-size="20.00">2</text>
</g>
<!-- 3 -->
<g id="node4" class="node"><title>3</title>
<ellipse fill="cadetblue" stroke="black" cx="111.815" cy="-187.482" rx="21.4286" ry="21.4286"/>
<text text-anchor="middle" x="111.815" y="-182.482" font-family="Times New Roman,serif" font-size="20.00">2</text>
</g>
<!-- 0&#45;&gt;3 -->
<g id="edge1" class="edge"><title>0&#45;&gt;3</title>
<path fill="none" stroke="black" stroke-width="2" d="M186.22,-169.17C173.482,-172.305 156.899,-176.386 142.622,-179.9"/>
<polygon fill="black" stroke="black" stroke-width="2" points="141.596,-176.548 132.722,-182.337 143.269,-183.345 141.596,-176.548"/>
</g>
<!-- 1 -->
<g id="node2" class="node"><title>1</title>
<ellipse fill="cadetblue" stroke="black" cx="39.8044" cy="-141.526" rx="21.4286" ry="21.4286"/>
<text text-anchor="middle" x="39.8044" y="-136.526" font-family="Times New Roman,serif" font-size="20.00">2</text>
</g>
<!-- 5 -->
<g id="node6" class="node"><title>5</title>
<ellipse fill="cadetblue" stroke="black" cx="21.2132" cy="-45.3034" rx="21.4286" ry="21.4286"/>
<text text-anchor="middle" x="21.2132" y="-40.3034" font-family="Times New Roman,serif" font-size="20.00">2</text>
</g>
<!-- 1&#45;&gt;5 -->
<g id="edge5" class="edge"><title>1&#45;&gt;5</title>
<path fill="none" stroke="black" stroke-width="2" d="M35.7704,-120.647C33.2611,-107.66 29.989,-90.7246 27.1828,-76.2004"/>
<polygon fill="black" stroke="black" stroke-width="2" points="30.5729,-75.296 25.2393,-66.1416 23.7,-76.624 30.5729,-75.296"/>
</g>
<!-- 7 -->
<g id="node8" class="node"><title>7</title>
<ellipse fill="brown" stroke="black" cx="89.0199" cy="-88.2219" rx="21.4286" ry="21.4286"/>
<text text-anchor="middle" x="89.0199" y="-83.2219" font-family="Times New Roman,serif" font-size="20.00">3</text>
</g>
<!-- 1&#45;&gt;7 -->
<g id="edge7" class="edge"><title>1&#45;&gt;7</title>
<path fill="none" stroke="black" stroke-width="2" d="M54.3045,-125.821C58.4726,-121.307 63.1089,-116.286 67.601,-111.42"/>
<polygon fill="black" stroke="black" stroke-width="2" points="70.2413,-113.72 74.4534,-103.999 65.0982,-108.972 70.2413,-113.72"/>
</g>
<!-- 2 -->
<g id="node3" class="node"><title>2</title>
<ellipse fill="cadetblue" stroke="black" cx="116.508" cy="-21.2132" rx="21.4286" ry="21.4286"/>
<text text-anchor="middle" x="116.508" y="-16.2132" font-family="Times New Roman,serif" font-size="20.00">2</text>
</g>
<!-- 4 -->
<g id="node5" class="node"><title>4</title>
<ellipse fill="cadetblue" stroke="black" cx="188.784" cy="-67.488" rx="21.4286" ry="21.4286"/>
<text text-anchor="middle" x="188.784" y="-62.488" font-family="Times New Roman,serif" font-size="20.00">2</text>
</g>
<!-- 2&#45;&gt;4 -->
<g id="edge8" class="edge"><title>2&#45;&gt;4</title>
<path fill="none" stroke="black" stroke-width="2" d="M134.374,-32.6519C142.801,-38.047 153.026,-44.5937 162.327,-50.5489"/>
<polygon fill="black" stroke="black" stroke-width="2" points="160.564,-53.576 170.873,-56.0205 164.339,-47.6808 160.564,-53.576"/>
</g>
<!-- 2&#45;&gt;7 -->
<g id="edge11" class="edge"><title>2&#45;&gt;7</title>
<path fill="none" stroke="black" stroke-width="2" d="M108.409,-40.9556C106.082,-46.6306 103.492,-52.9431 100.983,-59.0593"/>
<polygon fill="black" stroke="black" stroke-width="2" points="97.7129,-57.8089 97.1558,-68.389 104.189,-60.4656 97.7129,-57.8089"/>
</g>
<!-- 3&#45;&gt;1 -->
<g id="edge4" class="edge"><title>3&#45;&gt;1</title>
<path fill="none" stroke="black" stroke-width="2" d="M93.6439,-175.885C85.3941,-170.621 75.4733,-164.289 66.4076,-158.504"/>
<polygon fill="black" stroke="black" stroke-width="2" points="68.0331,-155.389 57.7205,-152.96 64.2673,-161.29 68.0331,-155.389"/>
</g>
<!-- 3&#45;&gt;7 -->
<g id="edge13" class="edge"><title>3&#45;&gt;7</title>
<path fill="none" stroke="black" stroke-width="2" d="M106.981,-166.431C103.817,-152.653 99.6284,-134.415 96.0923,-119.018"/>
<polygon fill="black" stroke="black" stroke-width="2" points="99.4186,-117.865 93.7691,-108.902 92.5962,-119.431 99.4186,-117.865"/>
</g>
<!-- 4&#45;&gt;0 -->
<g id="edge2" class="edge"><title>4&#45;&gt;0</title>
<path fill="none" stroke="black" stroke-width="2" d="M192.702,-88.4504C195.138,-101.49 198.316,-118.493 201.041,-133.075"/>
<polygon fill="black" stroke="black" stroke-width="2" points="197.651,-133.987 202.929,-143.174 204.532,-132.701 197.651,-133.987"/>
</g>
<!-- 6 -->
<g id="node7" class="node"><title>6</title>
<ellipse fill="cadetblue" stroke="black" cx="139.451" cy="-120.346" rx="21.4286" ry="21.4286"/>
<text text-anchor="middle" x="139.451" y="-115.346" font-family="Times New Roman,serif" font-size="20.00">2</text>
</g>
<!-- 4&#45;&gt;6 -->
<g id="edge14" class="edge"><title>4&#45;&gt;6</title>
<path fill="none" stroke="black" stroke-width="2" d="M174.249,-83.0612C170.071,-87.5377 165.424,-92.5172 160.921,-97.3418"/>
<polygon fill="black" stroke="black" stroke-width="2" points="158.317,-95.0025 154.053,-104.701 163.434,-99.7787 158.317,-95.0025"/>
</g>
<!-- 5&#45;&gt;2 -->
<g id="edge9" class="edge"><title>5&#45;&gt;2</title>
<path fill="none" stroke="black" stroke-width="2" d="M41.8908,-40.0762C54.7531,-36.8246 71.5249,-32.5848 85.9091,-28.9485"/>
<polygon fill="black" stroke="black" stroke-width="2" points="87.0338,-32.2744 95.871,-26.4302 85.3181,-25.4879 87.0338,-32.2744"/>
</g>
<!-- 6&#45;&gt;0 -->
<g id="edge3" class="edge"><title>6&#45;&gt;0</title>
<path fill="none" stroke="black" stroke-width="2" d="M157.51,-132.07C164.459,-136.582 172.549,-141.833 180.142,-146.763"/>
<polygon fill="black" stroke="black" stroke-width="2" points="178.437,-149.829 188.73,-152.339 182.249,-143.958 178.437,-149.829"/>
</g>
<!-- 6&#45;&gt;1 -->
<g id="edge6" class="edge"><title>6&#45;&gt;1</title>
<path fill="none" stroke="black" stroke-width="2" d="M118.319,-124.838C104.486,-127.778 86.178,-131.669 70.7206,-134.955"/>
<polygon fill="black" stroke="black" stroke-width="2" points="69.6186,-131.611 60.5648,-137.114 71.074,-138.458 69.6186,-131.611"/>
</g>
<!-- 6&#45;&gt;2 -->
<g id="edge10" class="edge"><title>6&#45;&gt;2</title>
<path fill="none" stroke="black" stroke-width="2" d="M134.586,-99.3223C131.422,-85.6535 127.242,-67.5917 123.698,-52.2798"/>
<polygon fill="black" stroke="black" stroke-width="2" points="127.032,-51.1597 121.367,-42.2064 120.212,-52.7381 127.032,-51.1597"/>
</g>
<!-- 6&#45;&gt;3 -->
<g id="edge12" class="edge"><title>6&#45;&gt;3</title>
<path fill="none" stroke="black" stroke-width="2" d="M131.309,-140.126C128.969,-145.812 126.365,-152.136 123.843,-158.264"/>
<polygon fill="black" stroke="black" stroke-width="2" points="120.565,-157.032 119.995,-167.611 127.038,-159.697 120.565,-157.032"/>
</g>
<!-- 7&#45;&gt;4 -->
<g id="edge15" class="edge"><title>7&#45;&gt;4</title>
<path fill="none" stroke="black" stroke-width="2" d="M110.177,-83.8247C124.026,-80.9466 142.356,-77.1371 157.831,-73.9208"/>
<polygon fill="black" stroke="black" stroke-width="2" points="158.921,-77.2693 167.999,-71.8077 157.496,-70.4158 158.921,-77.2693"/>
</g>
<!-- 7&#45;&gt;5 -->
<g id="edge16" class="edge"><title>7&#45;&gt;5</title>
<path fill="none" stroke="black" stroke-width="2" d="M70.849,-76.7205C63.8564,-72.2945 55.7166,-67.1424 48.0759,-62.3062"/>
<polygon fill="black" stroke="black" stroke-width="2" points="49.7559,-59.2274 39.4343,-56.8365 46.0121,-65.1421 49.7559,-59.2274"/>
</g>
<!-- 7&#45;&gt;6 -->
<g id="edge17" class="edge"><title>7&#45;&gt;6</title>
<path fill="none" stroke="black" stroke-width="2" d="M106.942,-99.638C108.828,-100.84 110.774,-102.079 112.732,-103.326"/>
<polygon fill="black" stroke="black" stroke-width="2" points="110.932,-106.329 121.247,-108.75 114.693,-100.425 110.932,-106.329"/>
</g>
</g>
</svg>

