<?xml version="1.0" encoding="UTF-8" standalone="no"?>
<!DOCTYPE svg PUBLIC "-//W3C//DTD SVG 1.1//EN"
 "http://www.w3.org/Graphics/SVG/1.1/DTD/svg11.dtd">
<!-- Generated by graphviz version 2.36.0 (20140111.2315)
 -->
<!-- Title: G Pages: 1 -->
<svg width="100%" height="100%"
 viewBox="0.00 0.00 260.21 214.89" xmlns="http://www.w3.org/2000/svg" xmlns:xlink="http://www.w3.org/1999/xlink">
<g id="graph0" class="graph" transform="scale(1 1) rotate(0) translate(4 210.887)">
<title>G</title>
<!-- 0 -->
<g id="node1" class="node"><title>0</title>
<ellipse fill="cadetblue" stroke="black" cx="160.494" cy="-21.2132" rx="21.4286" ry="21.4286"/>
<text text-anchor="middle" x="160.494" y="-16.2132" font-family="Times New Roman,serif" font-size="20.00">2</text>
</g>
<!-- 6 -->
<g id="node7" class="node"><title>6</title>
<ellipse fill="brown" stroke="black" cx="180.562" cy="-80.6484" rx="21.4286" ry="21.4286"/>
<text text-anchor="middle" x="180.562" y="-75.6484" font-family="Times New Roman,serif" font-size="20.00">3</text>
</g>
<!-- 0&#45;&gt;6 -->
<g id="edge3" class="edge"><title>0&#45;&gt;6</title>
<path fill="none" stroke="black" stroke-width="2" d="M167.288,-41.3353C168.334,-44.4335 169.433,-47.6877 170.532,-50.9417"/>
<polygon fill="black" stroke="black" stroke-width="2" points="167.26,-52.1923 173.775,-60.5471 173.892,-49.9529 167.26,-52.1923"/>
</g>
<!-- 7 -->
<g id="node8" class="node"><title>7</title>
<ellipse fill="brown" stroke="black" cx="126.535" cy="-119.634" rx="21.4286" ry="21.4286"/>
<text text-anchor="middle" x="126.535" y="-114.634" font-family="Times New Roman,serif" font-size="20.00">3</text>
</g>
<!-- 0&#45;&gt;7 -->
<g id="edge4" class="edge"><title>0&#45;&gt;7</title>
<path fill="none" stroke="black" stroke-width="2" d="M153.458,-41.6062C148.677,-55.4625 142.272,-74.0253 136.909,-89.569"/>
<polygon fill="black" stroke="black" stroke-width="2" points="133.515,-88.6729 133.562,-99.2677 140.132,-90.9562 133.515,-88.6729"/>
</g>
<!-- 1 -->
<g id="node2" class="node"><title>1</title>
<ellipse fill="cadetblue" stroke="black" cx="21.2132" cy="-123.469" rx="21.4286" ry="21.4286"/>
<text text-anchor="middle" x="21.2132" y="-118.469" font-family="Times New Roman,serif" font-size="20.00">2</text>
</g>
<!-- 1&#45;&gt;7 -->
<g id="edge7" class="edge"><title>1&#45;&gt;7</title>
<path fill="none" stroke="black" stroke-width="2" d="M42.5266,-122.693C57.6587,-122.142 78.2204,-121.394 95.2137,-120.775"/>
<polygon fill="black" stroke="black" stroke-width="2" points="95.3869,-124.271 105.253,-120.409 95.1321,-117.276 95.3869,-124.271"/>
</g>
<!-- 2 -->
<g id="node3" class="node"><title>2</title>
<ellipse fill="cadetblue" stroke="black" cx="179.509" cy="-185.673" rx="21.4286" ry="21.4286"/>
<text text-anchor="middle" x="179.509" y="-180.673" font-family="Times New Roman,serif" font-size="20.00">2</text>
</g>
<!-- 2&#45;&gt;6 -->
<g id="edge10" class="edge"><title>2&#45;&gt;6</title>
<path fill="none" stroke="black" stroke-width="2" d="M179.722,-164.42C179.874,-149.33 180.079,-128.827 180.249,-111.881"/>
<polygon fill="black" stroke="black" stroke-width="2" points="183.749,-111.905 180.349,-101.87 176.749,-111.835 183.749,-111.905"/>
</g>
<!-- 2&#45;&gt;7 -->
<g id="edge11" class="edge"><title>2&#45;&gt;7</title>
<path fill="none" stroke="black" stroke-width="2" d="M166.141,-169.009C160.165,-161.558 152.995,-152.621 146.409,-144.41"/>
<polygon fill="black" stroke="black" stroke-width="2" points="149.07,-142.134 140.082,-136.523 143.609,-146.514 149.07,-142.134"/>
</g>
<!-- 3 -->
<g id="node4" class="node"><title>3</title>
<ellipse fill="cadetblue" stroke="black" cx="78.2608" cy="-65.1739" rx="21.4286" ry="21.4286"/>
<text text-anchor="middle" x="78.2608" y="-60.1739" font-family="Times New Roman,serif" font-size="20.00">2</text>
</g>
<!-- 3&#45;&gt;0 -->
<g id="edge1" class="edge"><title>3&#45;&gt;0</title>
<path fill="none" stroke="black" stroke-width="2" d="M97.3335,-54.9779C107.816,-49.374 121.013,-42.3192 132.63,-36.1092"/>
<polygon fill="black" stroke="black" stroke-width="2" points="134.356,-39.155 141.525,-31.3539 131.056,-32.9818 134.356,-39.155"/>
</g>
<!-- 3&#45;&gt;1 -->
<g id="edge5" class="edge"><title>3&#45;&gt;1</title>
<path fill="none" stroke="black" stroke-width="2" d="M63.2722,-80.4904C57.2929,-86.6005 50.2805,-93.7662 43.7143,-100.476"/>
<polygon fill="black" stroke="black" stroke-width="2" points="40.7924,-98.4577 36.2998,-108.053 45.7954,-103.354 40.7924,-98.4577"/>
</g>
<!-- 5 -->
<g id="node6" class="node"><title>5</title>
<ellipse fill="cadetblue" stroke="black" cx="78.024" cy="-181.369" rx="21.4286" ry="21.4286"/>
<text text-anchor="middle" x="78.024" y="-176.369" font-family="Times New Roman,serif" font-size="20.00">2</text>
</g>
<!-- 3&#45;&gt;5 -->
<g id="edge12" class="edge"><title>3&#45;&gt;5</title>
<path fill="none" stroke="black" stroke-width="2" d="M78.2174,-86.4858C78.1814,-104.146 78.1297,-129.51 78.0888,-149.571"/>
<polygon fill="black" stroke="black" stroke-width="2" points="74.5884,-149.791 78.068,-159.798 81.5884,-149.806 74.5884,-149.791"/>
</g>
<!-- 4 -->
<g id="node5" class="node"><title>4</title>
<ellipse fill="cadetblue" stroke="black" cx="230.994" cy="-111.194" rx="21.4286" ry="21.4286"/>
<text text-anchor="middle" x="230.994" y="-106.194" font-family="Times New Roman,serif" font-size="20.00">2</text>
</g>
<!-- 4&#45;&gt;0 -->
<g id="edge2" class="edge"><title>4&#45;&gt;0</title>
<path fill="none" stroke="black" stroke-width="2" d="M219.981,-92.447C214.181,-83.047 206.721,-71.6544 199.184,-62.0706 194.285,-55.8411 188.606,-49.4568 183.133,-43.6414"/>
<polygon fill="black" stroke="black" stroke-width="2" points="185.351,-40.8997 175.89,-36.1318 180.313,-45.7593 185.351,-40.8997"/>
</g>
<!-- 4&#45;&gt;2 -->
<g id="edge8" class="edge"><title>4&#45;&gt;2</title>
<path fill="none" stroke="black" stroke-width="2" d="M218.793,-128.845C212.381,-138.12 204.402,-149.662 197.314,-159.917"/>
<polygon fill="black" stroke="black" stroke-width="2" points="194.43,-157.933 191.623,-168.15 200.188,-161.914 194.43,-157.933"/>
</g>
<!-- 5&#45;&gt;1 -->
<g id="edge6" class="edge"><title>5&#45;&gt;1</title>
<path fill="none" stroke="black" stroke-width="2" d="M63.0976,-166.156C57.1431,-160.088 50.1599,-152.971 43.6209,-146.307"/>
<polygon fill="black" stroke="black" stroke-width="2" points="45.7391,-143.468 36.2371,-138.781 40.7426,-148.37 45.7391,-143.468"/>
</g>
<!-- 5&#45;&gt;2 -->
<g id="edge9" class="edge"><title>5&#45;&gt;2</title>
<path fill="none" stroke="black" stroke-width="2" d="M99.5464,-182.282C113.54,-182.875 132.03,-183.66 147.705,-184.324"/>
<polygon fill="black" stroke="black" stroke-width="2" points="147.878,-187.835 158.018,-184.762 148.175,-180.841 147.878,-187.835"/>
</g>
<!-- 6&#45;&gt;3 -->
<g id="edge13" class="edge"><title>6&#45;&gt;3</title>
<path fill="none" stroke="black" stroke-width="2" d="M159.365,-77.4421C144.963,-75.2635 125.668,-72.3449 109.512,-69.901"/>
<polygon fill="black" stroke="black" stroke-width="2" points="109.842,-66.4112 99.4306,-68.3761 108.795,-73.3325 109.842,-66.4112"/>
</g>
<!-- 6&#45;&gt;4 -->
<g id="edge15" class="edge"><title>6&#45;&gt;4</title>
<path fill="none" stroke="black" stroke-width="2" d="M198.769,-91.6761C200.462,-92.7014 202.2,-93.7544 203.951,-94.8146"/>
<polygon fill="black" stroke="black" stroke-width="2" points="202.277,-97.8929 212.644,-100.08 205.904,-91.9055 202.277,-97.8929"/>
</g>
<!-- 7&#45;&gt;3 -->
<g id="edge14" class="edge"><title>7&#45;&gt;3</title>
<path fill="none" stroke="black" stroke-width="2" d="M112.312,-103.589C108.224,-98.9768 103.676,-93.8463 99.2698,-88.8755"/>
<polygon fill="black" stroke="black" stroke-width="2" points="101.801,-86.4545 92.5486,-81.2928 96.5627,-91.0978 101.801,-86.4545"/>
</g>
<!-- 7&#45;&gt;4 -->
<g id="edge16" class="edge"><title>7&#45;&gt;4</title>
<path fill="none" stroke="black" stroke-width="2" d="M147.925,-117.906C162.713,-116.711 182.638,-115.101 199.267,-113.758"/>
<polygon fill="black" stroke="black" stroke-width="2" points="199.946,-117.214 209.631,-112.92 199.382,-110.237 199.946,-117.214"/>
</g>
<!-- 7&#45;&gt;5 -->
<g id="edge17" class="edge"><title>7&#45;&gt;5</title>
<path fill="none" stroke="black" stroke-width="2" d="M113.279,-136.504C108.466,-142.628 102.92,-149.686 97.6729,-156.364"/>
<polygon fill="black" stroke="black" stroke-width="2" points="94.6903,-154.495 91.2637,-164.52 100.194,-158.82 94.6903,-154.495"/>
</g>
<!-- 7&#45;&gt;6 -->
<g id="edge18" class="edge"><title>7&#45;&gt;6</title>
<path fill="none" stroke="black" stroke-width="2" d="M143.927,-107.084C147.397,-104.58 151.111,-101.9 154.794,-99.2425"/>
<polygon fill="black" stroke="black" stroke-width="2" points="157.142,-101.865 163.203,-93.175 153.045,-96.1883 157.142,-101.865"/>
</g>
</g>
</svg>

