<?xml version="1.0" encoding="UTF-8" standalone="no"?>
<!DOCTYPE svg PUBLIC "-//W3C//DTD SVG 1.1//EN"
 "http://www.w3.org/Graphics/SVG/1.1/DTD/svg11.dtd">
<!-- Generated by graphviz version 2.36.0 (20140111.2315)
 -->
<!-- Title: G Pages: 1 -->
<svg width="100%" height="100%"
 viewBox="0.00 0.00 252.88 239.61" xmlns="http://www.w3.org/2000/svg" xmlns:xlink="http://www.w3.org/1999/xlink">
<g id="graph0" class="graph" transform="scale(1 1) rotate(0) translate(4 235.613)">
<title>G</title>
<!-- 0 -->
<g id="node1" class="node"><title>0</title>
<ellipse fill="cadetblue" stroke="black" cx="81.3356" cy="-86.9439" rx="21.4286" ry="21.4286"/>
<text text-anchor="middle" x="81.3356" y="-81.9439" font-family="Times New Roman,serif" font-size="20.00">2</text>
</g>
<!-- 5 -->
<g id="node6" class="node"><title>5</title>
<ellipse fill="cadetblue" stroke="black" cx="21.2132" cy="-138.389" rx="21.4286" ry="21.4286"/>
<text text-anchor="middle" x="21.2132" y="-133.389" font-family="Times New Roman,serif" font-size="20.00">2</text>
</g>
<!-- 0&#45;&gt;5 -->
<g id="edge3" class="edge"><title>0&#45;&gt;5</title>
<path fill="none" stroke="black" stroke-width="2" d="M64.9069,-101.001C58.942,-106.105 52.0687,-111.987 45.5654,-117.551"/>
<polygon fill="black" stroke="black" stroke-width="2" points="42.9446,-115.187 37.622,-124.348 47.4957,-120.506 42.9446,-115.187"/>
</g>
<!-- 7 -->
<g id="node8" class="node"><title>7</title>
<ellipse fill="brown" stroke="black" cx="121.231" cy="-137.375" rx="21.4286" ry="21.4286"/>
<text text-anchor="middle" x="121.231" y="-132.375" font-family="Times New Roman,serif" font-size="20.00">3</text>
</g>
<!-- 0&#45;&gt;7 -->
<g id="edge4" class="edge"><title>0&#45;&gt;7</title>
<path fill="none" stroke="black" stroke-width="2" d="M94.62,-103.737C96.8839,-106.599 99.2771,-109.624 101.663,-112.64"/>
<polygon fill="black" stroke="black" stroke-width="2" points="98.9189,-114.813 107.868,-120.484 104.409,-110.47 98.9189,-114.813"/>
</g>
<!-- 1 -->
<g id="node2" class="node"><title>1</title>
<ellipse fill="cadetblue" stroke="black" cx="158.452" cy="-210.4" rx="21.4286" ry="21.4286"/>
<text text-anchor="middle" x="158.452" y="-205.4" font-family="Times New Roman,serif" font-size="20.00">2</text>
</g>
<!-- 4 -->
<g id="node5" class="node"><title>4</title>
<ellipse fill="cadetblue" stroke="black" cx="223.67" cy="-138.166" rx="21.4286" ry="21.4286"/>
<text text-anchor="middle" x="223.67" y="-133.166" font-family="Times New Roman,serif" font-size="20.00">2</text>
</g>
<!-- 1&#45;&gt;4 -->
<g id="edge5" class="edge"><title>1&#45;&gt;4</title>
<path fill="none" stroke="black" stroke-width="2" d="M172.926,-194.369C181.623,-184.737 192.843,-172.309 202.521,-161.591"/>
<polygon fill="black" stroke="black" stroke-width="2" points="205.133,-163.92 209.237,-154.152 199.937,-159.229 205.133,-163.92"/>
</g>
<!-- 6 -->
<g id="node7" class="node"><title>6</title>
<ellipse fill="brown" stroke="black" cx="170.27" cy="-86.5895" rx="21.4286" ry="21.4286"/>
<text text-anchor="middle" x="170.27" y="-81.5895" font-family="Times New Roman,serif" font-size="20.00">3</text>
</g>
<!-- 1&#45;&gt;6 -->
<g id="edge7" class="edge"><title>1&#45;&gt;6</title>
<path fill="none" stroke="black" stroke-width="2" d="M160.483,-189.116C162.352,-169.539 165.147,-140.258 167.272,-117.993"/>
<polygon fill="black" stroke="black" stroke-width="2" points="170.759,-118.297 168.225,-108.01 163.79,-117.632 170.759,-118.297"/>
</g>
<!-- 2 -->
<g id="node3" class="node"><title>2</title>
<ellipse fill="cadetblue" stroke="black" cx="74.9425" cy="-21.2132" rx="21.4286" ry="21.4286"/>
<text text-anchor="middle" x="74.9425" y="-16.2132" font-family="Times New Roman,serif" font-size="20.00">2</text>
</g>
<!-- 2&#45;&gt;7 -->
<g id="edge11" class="edge"><title>2&#45;&gt;7</title>
<path fill="none" stroke="black" stroke-width="2" d="M85.7712,-39.6277C92.92,-52.5034 101.979,-70.3095 107.64,-86.968 109.783,-93.2756 111.816,-100.116 113.625,-106.664"/>
<polygon fill="black" stroke="black" stroke-width="2" points="110.314,-107.831 116.268,-116.594 117.078,-106.03 110.314,-107.831"/>
</g>
<!-- 3 -->
<g id="node4" class="node"><title>3</title>
<ellipse fill="cadetblue" stroke="black" cx="65.8567" cy="-200.535" rx="21.4286" ry="21.4286"/>
<text text-anchor="middle" x="65.8567" y="-195.535" font-family="Times New Roman,serif" font-size="20.00">2</text>
</g>
<!-- 3&#45;&gt;0 -->
<g id="edge1" class="edge"><title>3&#45;&gt;0</title>
<path fill="none" stroke="black" stroke-width="2" d="M68.7319,-179.435C71.0738,-162.25 74.4149,-137.731 77.0688,-118.256"/>
<polygon fill="black" stroke="black" stroke-width="2" points="80.5409,-118.697 78.4233,-108.316 73.605,-117.752 80.5409,-118.697"/>
</g>
<!-- 3&#45;&gt;6 -->
<g id="edge13" class="edge"><title>3&#45;&gt;6</title>
<path fill="none" stroke="black" stroke-width="2" d="M85.7655,-192.631C102.139,-185.263 124.984,-172.868 139.83,-155.976 149.656,-144.796 156.743,-129.942 161.592,-116.848"/>
<polygon fill="black" stroke="black" stroke-width="2" points="164.945,-117.861 164.873,-107.267 158.322,-115.594 164.945,-117.861"/>
</g>
<!-- 4&#45;&gt;0 -->
<g id="edge2" class="edge"><title>4&#45;&gt;0</title>
<path fill="none" stroke="black" stroke-width="2" d="M203.579,-130.936C179.419,-122.241 138.66,-107.573 110.906,-97.5857"/>
<polygon fill="black" stroke="black" stroke-width="2" points="111.919,-94.2304 101.325,-94.1374 109.549,-100.817 111.919,-94.2304"/>
</g>
<!-- 4&#45;&gt;6 -->
<g id="edge15" class="edge"><title>4&#45;&gt;6</title>
<path fill="none" stroke="black" stroke-width="2" d="M208.225,-123.248C203.506,-118.691 198.213,-113.579 193.112,-108.652"/>
<polygon fill="black" stroke="black" stroke-width="2" points="195.49,-106.082 185.866,-101.653 190.627,-111.117 195.49,-106.082"/>
</g>
<!-- 5&#45;&gt;1 -->
<g id="edge6" class="edge"><title>5&#45;&gt;1</title>
<path fill="none" stroke="black" stroke-width="2" d="M40.0079,-148.251C63.3857,-160.517 103.503,-181.568 130.493,-195.73"/>
<polygon fill="black" stroke="black" stroke-width="2" points="128.962,-198.879 139.444,-200.426 132.215,-192.68 128.962,-198.879"/>
</g>
<!-- 5&#45;&gt;2 -->
<g id="edge9" class="edge"><title>5&#45;&gt;2</title>
<path fill="none" stroke="black" stroke-width="2" d="M30.0855,-119.04C38.7185,-100.212 51.9393,-71.3799 61.7944,-49.8873"/>
<polygon fill="black" stroke="black" stroke-width="2" points="65.0704,-51.1399 66.0571,-40.5911 58.7074,-48.2222 65.0704,-51.1399"/>
</g>
<!-- 5&#45;&gt;3 -->
<g id="edge12" class="edge"><title>5&#45;&gt;3</title>
<path fill="none" stroke="black" stroke-width="2" d="M33.6489,-155.7C37.835,-161.527 42.6023,-168.163 47.1622,-174.511"/>
<polygon fill="black" stroke="black" stroke-width="2" points="44.5006,-176.805 53.1775,-182.885 50.1857,-172.721 44.5006,-176.805"/>
</g>
<!-- 6&#45;&gt;2 -->
<g id="edge10" class="edge"><title>6&#45;&gt;2</title>
<path fill="none" stroke="black" stroke-width="2" d="M152.339,-74.2927C137.868,-64.3683 117.309,-50.2686 101.017,-39.0952"/>
<polygon fill="black" stroke="black" stroke-width="2" points="102.697,-36.0034 92.4703,-33.234 98.7377,-41.7763 102.697,-36.0034"/>
</g>
<!-- 6&#45;&gt;7 -->
<g id="edge18" class="edge"><title>6&#45;&gt;7</title>
<path fill="none" stroke="black" stroke-width="2" d="M155.29,-102.103C151.487,-106.041 147.322,-110.354 143.25,-114.572"/>
<polygon fill="black" stroke="black" stroke-width="2" points="140.547,-112.332 136.119,-121.957 145.583,-117.194 140.547,-112.332"/>
</g>
<!-- 7&#45;&gt;1 -->
<g id="edge8" class="edge"><title>7&#45;&gt;1</title>
<path fill="none" stroke="black" stroke-width="2" d="M131.01,-156.562C135.028,-164.444 139.76,-173.729 144.153,-182.348"/>
<polygon fill="black" stroke="black" stroke-width="2" points="141.078,-184.022 148.738,-191.342 147.315,-180.843 141.078,-184.022"/>
</g>
<!-- 7&#45;&gt;3 -->
<g id="edge14" class="edge"><title>7&#45;&gt;3</title>
<path fill="none" stroke="black" stroke-width="2" d="M106.97,-153.64C100.852,-160.619 93.579,-168.915 86.8638,-176.574"/>
<polygon fill="black" stroke="black" stroke-width="2" points="83.8375,-174.717 79.8768,-184.543 89.1011,-179.331 83.8375,-174.717"/>
</g>
<!-- 7&#45;&gt;4 -->
<g id="edge16" class="edge"><title>7&#45;&gt;4</title>
<path fill="none" stroke="black" stroke-width="2" d="M142.456,-137.539C156.782,-137.65 175.941,-137.798 192.053,-137.922"/>
<polygon fill="black" stroke="black" stroke-width="2" points="192.093,-141.422 202.119,-138 192.147,-134.423 192.093,-141.422"/>
</g>
<!-- 7&#45;&gt;5 -->
<g id="edge17" class="edge"><title>7&#45;&gt;5</title>
<path fill="none" stroke="black" stroke-width="2" d="M99.5283,-137.595C85.8042,-137.734 67.8392,-137.916 52.5778,-138.071"/>
<polygon fill="black" stroke="black" stroke-width="2" points="52.4935,-134.572 42.5295,-138.173 52.5645,-141.571 52.4935,-134.572"/>
</g>
</g>
</svg>

