<?xml version="1.0" encoding="UTF-8" standalone="no"?>
<!DOCTYPE svg PUBLIC "-//W3C//DTD SVG 1.1//EN"
 "http://www.w3.org/Graphics/SVG/1.1/DTD/svg11.dtd">
<!-- Generated by graphviz version 2.36.0 (20140111.2315)
 -->
<!-- Title: G Pages: 1 -->
<svg width="100%" height="100%"
 viewBox="0.00 0.00 191.64 266.51" xmlns="http://www.w3.org/2000/svg" xmlns:xlink="http://www.w3.org/1999/xlink">
<g id="graph0" class="graph" transform="scale(1 1) rotate(0) translate(4 262.51)">
<title>G</title>
<!-- 0 -->
<g id="node1" class="node"><title>0</title>
<ellipse fill="cadetblue" stroke="black" cx="21.2132" cy="-168.475" rx="21.4286" ry="21.4286"/>
<text text-anchor="middle" x="21.2132" y="-163.475" font-family="Times New Roman,serif" font-size="20.00">2</text>
</g>
<!-- 5 -->
<g id="node6" class="node"><title>5</title>
<ellipse fill="cadetblue" stroke="black" cx="93.8714" cy="-91.3283" rx="21.4286" ry="21.4286"/>
<text text-anchor="middle" x="93.8714" y="-86.3283" font-family="Times New Roman,serif" font-size="20.00">2</text>
</g>
<!-- 0&#45;&gt;5 -->
<g id="edge3" class="edge"><title>0&#45;&gt;5</title>
<path fill="none" stroke="black" stroke-width="2" d="M35.9167,-152.863C46.3559,-141.779 60.5408,-126.718 72.264,-114.271"/>
<polygon fill="black" stroke="black" stroke-width="2" points="74.8815,-116.596 79.1898,-106.917 69.7857,-111.797 74.8815,-116.596"/>
</g>
<!-- 7 -->
<g id="node8" class="node"><title>7</title>
<ellipse fill="cadetblue" stroke="black" cx="42.1642" cy="-98.4923" rx="21.4286" ry="21.4286"/>
<text text-anchor="middle" x="42.1642" y="-93.4923" font-family="Times New Roman,serif" font-size="20.00">2</text>
</g>
<!-- 0&#45;&gt;7 -->
<g id="edge4" class="edge"><title>0&#45;&gt;7</title>
<path fill="none" stroke="black" stroke-width="2" d="M27.3859,-147.857C29.1602,-141.93 31.1339,-135.337 33.0462,-128.949"/>
<polygon fill="black" stroke="black" stroke-width="2" points="36.4482,-129.789 35.9633,-119.205 29.7423,-127.782 36.4482,-129.789"/>
</g>
<!-- 1 -->
<g id="node2" class="node"><title>1</title>
<ellipse fill="cadetblue" stroke="black" cx="139.594" cy="-159.438" rx="21.4286" ry="21.4286"/>
<text text-anchor="middle" x="139.594" y="-154.438" font-family="Times New Roman,serif" font-size="20.00">2</text>
</g>
<!-- 4 -->
<g id="node5" class="node"><title>4</title>
<ellipse fill="cadetblue" stroke="black" cx="85.8732" cy="-237.297" rx="21.4286" ry="21.4286"/>
<text text-anchor="middle" x="85.8732" y="-232.297" font-family="Times New Roman,serif" font-size="20.00">2</text>
</g>
<!-- 1&#45;&gt;4 -->
<g id="edge5" class="edge"><title>1&#45;&gt;4</title>
<path fill="none" stroke="black" stroke-width="2" d="M127.404,-177.105C120.466,-187.16 111.646,-199.943 103.92,-211.141"/>
<polygon fill="black" stroke="black" stroke-width="2" points="100.813,-209.481 98.0149,-219.7 106.575,-213.456 100.813,-209.481"/>
</g>
<!-- 1&#45;&gt;7 -->
<g id="edge8" class="edge"><title>1&#45;&gt;7</title>
<path fill="none" stroke="black" stroke-width="2" d="M121.268,-147.974C106.571,-138.781 85.7292,-125.744 69.1283,-115.359"/>
<polygon fill="black" stroke="black" stroke-width="2" points="70.7419,-112.24 60.4078,-109.904 67.0296,-118.175 70.7419,-112.24"/>
</g>
<!-- 2 -->
<g id="node3" class="node"><title>2</title>
<ellipse fill="cadetblue" stroke="black" cx="98.9606" cy="-21.2132" rx="21.4286" ry="21.4286"/>
<text text-anchor="middle" x="98.9606" y="-16.2132" font-family="Times New Roman,serif" font-size="20.00">2</text>
</g>
<!-- 6 -->
<g id="node7" class="node"><title>6</title>
<ellipse fill="cadetblue" stroke="black" cx="162.431" cy="-90.5617" rx="21.4286" ry="21.4286"/>
<text text-anchor="middle" x="162.431" y="-85.5617" font-family="Times New Roman,serif" font-size="20.00">2</text>
</g>
<!-- 2&#45;&gt;6 -->
<g id="edge10" class="edge"><title>2&#45;&gt;6</title>
<path fill="none" stroke="black" stroke-width="2" d="M113.363,-36.9494C121.559,-45.9047 131.981,-57.2912 141.109,-67.2651"/>
<polygon fill="black" stroke="black" stroke-width="2" points="138.752,-69.8739 148.086,-74.8877 143.916,-65.1478 138.752,-69.8739"/>
</g>
<!-- 3 -->
<g id="node4" class="node"><title>3</title>
<ellipse fill="cadetblue" stroke="black" cx="89.1621" cy="-166.609" rx="21.4286" ry="21.4286"/>
<text text-anchor="middle" x="89.1621" y="-161.609" font-family="Times New Roman,serif" font-size="20.00">2</text>
</g>
<!-- 3&#45;&gt;0 -->
<g id="edge1" class="edge"><title>3&#45;&gt;0</title>
<path fill="none" stroke="black" stroke-width="2" d="M67.6627,-167.2C62.9532,-167.329 57.8724,-167.468 52.8596,-167.606"/>
<polygon fill="black" stroke="black" stroke-width="2" points="52.7061,-164.109 42.806,-167.882 52.8984,-171.106 52.7061,-164.109"/>
</g>
<!-- 3&#45;&gt;4 -->
<g id="edge12" class="edge"><title>3&#45;&gt;4</title>
<path fill="none" stroke="black" stroke-width="2" d="M88.1753,-187.818C87.9087,-193.549 87.6144,-199.875 87.3279,-206.033"/>
<polygon fill="black" stroke="black" stroke-width="2" points="83.8279,-205.951 86.8593,-216.103 90.8204,-206.277 83.8279,-205.951"/>
</g>
<!-- 4&#45;&gt;0 -->
<g id="edge2" class="edge"><title>4&#45;&gt;0</title>
<path fill="none" stroke="black" stroke-width="2" d="M71.2009,-221.68C62.851,-212.793 52.2344,-201.493 42.9348,-191.595"/>
<polygon fill="black" stroke="black" stroke-width="2" points="45.2256,-188.922 35.8275,-184.03 40.124,-193.715 45.2256,-188.922"/>
</g>
<!-- 5&#45;&gt;1 -->
<g id="edge6" class="edge"><title>5&#45;&gt;1</title>
<path fill="none" stroke="black" stroke-width="2" d="M105.884,-109.223C110.781,-116.517 116.542,-125.099 121.902,-133.084"/>
<polygon fill="black" stroke="black" stroke-width="2" points="119.022,-135.074 127.502,-141.426 124.834,-131.172 119.022,-135.074"/>
</g>
<!-- 5&#45;&gt;2 -->
<g id="edge9" class="edge"><title>5&#45;&gt;2</title>
<path fill="none" stroke="black" stroke-width="2" d="M95.426,-69.9105C95.8206,-64.4737 96.2529,-58.5183 96.6755,-52.6959"/>
<polygon fill="black" stroke="black" stroke-width="2" points="100.182,-52.727 97.4156,-42.4999 93.2007,-52.2202 100.182,-52.727"/>
</g>
<!-- 5&#45;&gt;6 -->
<g id="edge15" class="edge"><title>5&#45;&gt;6</title>
<path fill="none" stroke="black" stroke-width="2" d="M115.188,-91.0899C120.043,-91.0356 125.304,-90.9768 130.494,-90.9188"/>
<polygon fill="black" stroke="black" stroke-width="2" points="130.931,-94.4142 140.891,-90.8025 130.853,-87.4146 130.931,-94.4142"/>
</g>
<!-- 6&#45;&gt;1 -->
<g id="edge7" class="edge"><title>6&#45;&gt;1</title>
<path fill="none" stroke="black" stroke-width="2" d="M155.702,-110.854C153.768,-116.687 151.617,-123.176 149.533,-129.463"/>
<polygon fill="black" stroke="black" stroke-width="2" points="146.178,-128.459 146.353,-139.052 152.822,-130.662 146.178,-128.459"/>
</g>
<!-- 6&#45;&gt;3 -->
<g id="edge13" class="edge"><title>6&#45;&gt;3</title>
<path fill="none" stroke="black" stroke-width="2" d="M147.604,-105.951C137.077,-116.877 122.773,-131.724 110.951,-143.994"/>
<polygon fill="black" stroke="black" stroke-width="2" points="108.385,-141.613 103.967,-151.243 113.426,-146.47 108.385,-141.613"/>
</g>
<!-- 7&#45;&gt;2 -->
<g id="edge11" class="edge"><title>7&#45;&gt;2</title>
<path fill="none" stroke="black" stroke-width="2" d="M54.7692,-81.3415C62.2695,-71.1364 71.9249,-57.999 80.2964,-46.6084"/>
<polygon fill="black" stroke="black" stroke-width="2" points="83.289,-48.4466 86.3909,-38.316 77.6485,-44.3011 83.289,-48.4466"/>
</g>
<!-- 7&#45;&gt;3 -->
<g id="edge14" class="edge"><title>7&#45;&gt;3</title>
<path fill="none" stroke="black" stroke-width="2" d="M54.2674,-116.034C59.4349,-123.524 65.5725,-132.419 71.2486,-140.646"/>
<polygon fill="black" stroke="black" stroke-width="2" points="68.3768,-142.647 76.9367,-148.89 74.1384,-138.671 68.3768,-142.647"/>
</g>
<!-- 7&#45;&gt;5 -->
<g id="edge16" class="edge"><title>7&#45;&gt;5</title>
<path fill="none" stroke="black" stroke-width="2" d="M63.1955,-95.5784C63.2934,-95.5648 63.3913,-95.5513 63.4894,-95.5377"/>
<polygon fill="black" stroke="black" stroke-width="2" points="63.2659,-99.1022 72.6909,-94.2628 62.3052,-92.1684 63.2659,-99.1022"/>
</g>
</g>
</svg>

