<?xml version="1.0" encoding="UTF-8" standalone="no"?>
<!DOCTYPE svg PUBLIC "-//W3C//DTD SVG 1.1//EN"
 "http://www.w3.org/Graphics/SVG/1.1/DTD/svg11.dtd">
<!-- Generated by graphviz version 2.36.0 (20140111.2315)
 -->
<!-- Title: G Pages: 1 -->
<svg width="100%" height="100%"
 viewBox="0.00 0.00 314.45 328.42" xmlns="http://www.w3.org/2000/svg" xmlns:xlink="http://www.w3.org/1999/xlink">
<g id="graph0" class="graph" transform="scale(1 1) rotate(0) translate(4 324.418)">
<title>G</title>
<!-- 0 -->
<g id="node1" class="node"><title>0</title>
<ellipse fill="cadetblue" stroke="black" cx="211.763" cy="-251.291" rx="21.4286" ry="21.4286"/>
<text text-anchor="middle" x="211.763" y="-246.291" font-family="Times New Roman,serif" font-size="20.00">2</text>
</g>
<!-- 5 -->
<g id="node6" class="node"><title>5</title>
<ellipse fill="cadetblue" stroke="black" cx="32.5447" cy="-120.988" rx="21.4286" ry="21.4286"/>
<text text-anchor="middle" x="32.5447" y="-115.988" font-family="Times New Roman,serif" font-size="20.00">2</text>
</g>
<!-- 0&#45;&gt;5 -->
<g id="edge3" class="edge"><title>0&#45;&gt;5</title>
<path fill="none" stroke="black" stroke-width="2" d="M194.579,-238.797C162.947,-215.799 95.3503,-166.652 58.2427,-139.672"/>
<polygon fill="black" stroke="black" stroke-width="2" points="60.0867,-136.686 49.9402,-133.636 55.9702,-142.348 60.0867,-136.686"/>
</g>
<!-- 6 -->
<g id="node7" class="node"><title>6</title>
<ellipse fill="cadetblue" stroke="black" cx="172.015" cy="-166.011" rx="21.4286" ry="21.4286"/>
<text text-anchor="middle" x="172.015" y="-161.011" font-family="Times New Roman,serif" font-size="20.00">2</text>
</g>
<!-- 0&#45;&gt;6 -->
<g id="edge4" class="edge"><title>0&#45;&gt;6</title>
<path fill="none" stroke="black" stroke-width="2" d="M202.744,-231.94C197.611,-220.927 191.085,-206.925 185.368,-194.66"/>
<polygon fill="black" stroke="black" stroke-width="2" points="188.396,-192.871 180.999,-185.286 182.051,-195.828 188.396,-192.871"/>
</g>
<!-- 1 -->
<g id="node2" class="node"><title>1</title>
<ellipse fill="cadetblue" stroke="black" cx="21.2132" cy="-231.934" rx="21.4286" ry="21.4286"/>
<text text-anchor="middle" x="21.2132" y="-226.934" font-family="Times New Roman,serif" font-size="20.00">2</text>
</g>
<!-- 1&#45;&gt;6 -->
<g id="edge7" class="edge"><title>1&#45;&gt;6</title>
<path fill="none" stroke="black" stroke-width="2" d="M40.9279,-223.316C66.8937,-211.965 112.766,-191.912 142.778,-178.792"/>
<polygon fill="black" stroke="black" stroke-width="2" points="144.535,-181.844 152.296,-174.632 141.731,-175.43 144.535,-181.844"/>
</g>
<!-- 7 -->
<g id="node8" class="node"><title>7</title>
<ellipse fill="cadetblue" stroke="black" cx="121.584" cy="-144.654" rx="21.4286" ry="21.4286"/>
<text text-anchor="middle" x="121.584" y="-139.654" font-family="Times New Roman,serif" font-size="20.00">2</text>
</g>
<!-- 1&#45;&gt;7 -->
<g id="edge8" class="edge"><title>1&#45;&gt;7</title>
<path fill="none" stroke="black" stroke-width="2" d="M37.3395,-217.911C53.6552,-203.723 79.0649,-181.627 97.7139,-165.411"/>
<polygon fill="black" stroke="black" stroke-width="2" points="100.248,-167.845 105.497,-158.642 95.6548,-162.563 100.248,-167.845"/>
</g>
<!-- 2 -->
<g id="node3" class="node"><title>2</title>
<ellipse fill="cadetblue" stroke="black" cx="116.063" cy="-21.2132" rx="21.4286" ry="21.4286"/>
<text text-anchor="middle" x="116.063" y="-16.2132" font-family="Times New Roman,serif" font-size="20.00">2</text>
</g>
<!-- 2&#45;&gt;7 -->
<g id="edge11" class="edge"><title>2&#45;&gt;7</title>
<path fill="none" stroke="black" stroke-width="2" d="M117.012,-42.4334C117.881,-61.8637 119.179,-90.8819 120.17,-113.042"/>
<polygon fill="black" stroke="black" stroke-width="2" points="116.685,-113.464 120.629,-123.297 123.678,-113.151 116.685,-113.464"/>
</g>
<!-- 3 -->
<g id="node4" class="node"><title>3</title>
<ellipse fill="cadetblue" stroke="black" cx="285.24" cy="-145.078" rx="21.4286" ry="21.4286"/>
<text text-anchor="middle" x="285.24" y="-140.078" font-family="Times New Roman,serif" font-size="20.00">2</text>
</g>
<!-- 3&#45;&gt;0 -->
<g id="edge1" class="edge"><title>3&#45;&gt;0</title>
<path fill="none" stroke="black" stroke-width="2" d="M273.107,-162.617C261.301,-179.683 243.221,-205.818 229.744,-225.3"/>
<polygon fill="black" stroke="black" stroke-width="2" points="226.726,-223.511 223.915,-233.726 232.482,-227.494 226.726,-223.511"/>
</g>
<!-- 4 -->
<g id="node5" class="node"><title>4</title>
<ellipse fill="cadetblue" stroke="black" cx="114.771" cy="-299.205" rx="21.4286" ry="21.4286"/>
<text text-anchor="middle" x="114.771" y="-294.205" font-family="Times New Roman,serif" font-size="20.00">2</text>
</g>
<!-- 4&#45;&gt;0 -->
<g id="edge2" class="edge"><title>4&#45;&gt;0</title>
<path fill="none" stroke="black" stroke-width="2" d="M133.934,-289.739C148.015,-282.783 167.382,-273.216 183.274,-265.365"/>
<polygon fill="black" stroke="black" stroke-width="2" points="185.225,-268.305 192.641,-260.738 182.125,-262.029 185.225,-268.305"/>
</g>
<!-- 4&#45;&gt;1 -->
<g id="edge5" class="edge"><title>4&#45;&gt;1</title>
<path fill="none" stroke="black" stroke-width="2" d="M97.1739,-286.552C83.0607,-276.404 63.0472,-262.014 47.1059,-250.552"/>
<polygon fill="black" stroke="black" stroke-width="2" points="48.8942,-247.527 38.7319,-244.53 44.8077,-253.21 48.8942,-247.527"/>
</g>
<!-- 5&#45;&gt;1 -->
<g id="edge6" class="edge"><title>5&#45;&gt;1</title>
<path fill="none" stroke="black" stroke-width="2" d="M30.3867,-142.118C28.7041,-158.592 26.341,-181.728 24.4347,-200.393"/>
<polygon fill="black" stroke="black" stroke-width="2" points="20.9361,-200.202 23.4018,-210.506 27.8998,-200.913 20.9361,-200.202"/>
</g>
<!-- 5&#45;&gt;2 -->
<g id="edge9" class="edge"><title>5&#45;&gt;2</title>
<path fill="none" stroke="black" stroke-width="2" d="M46.3361,-104.513C59.7555,-88.4811 80.3063,-63.9302 95.6255,-45.6292"/>
<polygon fill="black" stroke="black" stroke-width="2" points="98.5165,-47.6282 102.251,-37.7135 93.1488,-43.1351 98.5165,-47.6282"/>
</g>
<!-- 6&#45;&gt;2 -->
<g id="edge10" class="edge"><title>6&#45;&gt;2</title>
<path fill="none" stroke="black" stroke-width="2" d="M164.353,-146.181C154.822,-121.516 138.466,-79.1882 127.462,-50.7116"/>
<polygon fill="black" stroke="black" stroke-width="2" points="130.682,-49.3346 123.813,-41.2683 124.153,-51.8577 130.682,-49.3346"/>
</g>
<!-- 6&#45;&gt;3 -->
<g id="edge12" class="edge"><title>6&#45;&gt;3</title>
<path fill="none" stroke="black" stroke-width="2" d="M193.047,-162.123C210.285,-158.936 234.927,-154.38 254.397,-150.78"/>
<polygon fill="black" stroke="black" stroke-width="2" points="255.125,-154.205 264.322,-148.945 253.852,-147.322 255.125,-154.205"/>
</g>
<!-- 6&#45;&gt;4 -->
<g id="edge14" class="edge"><title>6&#45;&gt;4</title>
<path fill="none" stroke="black" stroke-width="2" d="M163.569,-185.664C153.972,-207.994 138.218,-244.65 127.214,-270.253"/>
<polygon fill="black" stroke="black" stroke-width="2" points="123.986,-268.902 123.253,-279.471 130.417,-271.666 123.986,-268.902"/>
</g>
<!-- 7&#45;&gt;3 -->
<g id="edge13" class="edge"><title>7&#45;&gt;3</title>
<path fill="none" stroke="black" stroke-width="2" d="M142.657,-141.9C151.688,-140.898 162.366,-139.95 172.046,-139.707 199.722,-139.011 231.172,-140.702 253.886,-142.367"/>
<polygon fill="black" stroke="black" stroke-width="2" points="253.731,-145.866 263.971,-143.147 254.271,-138.887 253.731,-145.866"/>
</g>
<!-- 7&#45;&gt;4 -->
<g id="edge15" class="edge"><title>7&#45;&gt;4</title>
<path fill="none" stroke="black" stroke-width="2" d="M120.637,-166.143C119.472,-192.557 117.487,-237.589 116.153,-267.861"/>
<polygon fill="black" stroke="black" stroke-width="2" points="112.654,-267.753 115.711,-277.898 119.648,-268.062 112.654,-267.753"/>
</g>
<!-- 7&#45;&gt;5 -->
<g id="edge16" class="edge"><title>7&#45;&gt;5</title>
<path fill="none" stroke="black" stroke-width="2" d="M100.933,-139.165C89.6947,-136.178 75.576,-132.426 63.0895,-129.107"/>
<polygon fill="black" stroke="black" stroke-width="2" points="63.6474,-125.634 53.0838,-126.447 61.8492,-132.399 63.6474,-125.634"/>
</g>
</g>
</svg>

