<?xml version="1.0" encoding="UTF-8" standalone="no"?>
<!DOCTYPE svg PUBLIC "-//W3C//DTD SVG 1.1//EN"
 "http://www.w3.org/Graphics/SVG/1.1/DTD/svg11.dtd">
<!-- Generated by graphviz version 2.36.0 (20140111.2315)
 -->
<!-- Title: G Pages: 1 -->
<svg width="100%" height="100%"
 viewBox="0.00 0.00 327.24 319.53" xmlns="http://www.w3.org/2000/svg" xmlns:xlink="http://www.w3.org/1999/xlink">
<g id="graph0" class="graph" transform="scale(1 1) rotate(0) translate(4 315.535)">
<title>G</title>
<!-- 0 -->
<g id="node1" class="node"><title>0</title>
<ellipse fill="cadetblue" stroke="black" cx="298.03" cy="-180.772" rx="21.4286" ry="21.4286"/>
<text text-anchor="middle" x="298.03" y="-175.772" font-family="Times New Roman,serif" font-size="20.00">2</text>
</g>
<!-- 6 -->
<g id="node7" class="node"><title>6</title>
<ellipse fill="cadetblue" stroke="black" cx="262.55" cy="-290.322" rx="21.4286" ry="21.4286"/>
<text text-anchor="middle" x="262.55" y="-285.322" font-family="Times New Roman,serif" font-size="20.00">2</text>
</g>
<!-- 0&#45;&gt;6 -->
<g id="edge3" class="edge"><title>0&#45;&gt;6</title>
<path fill="none" stroke="black" stroke-width="2" d="M291.439,-201.12C286.037,-217.8 278.316,-241.641 272.215,-260.48"/>
<polygon fill="black" stroke="black" stroke-width="2" points="268.856,-259.49 269.105,-270.082 275.516,-261.647 268.856,-259.49"/>
</g>
<!-- 7 -->
<g id="node8" class="node"><title>7</title>
<ellipse fill="cadetblue" stroke="black" cx="151.563" cy="-99.3352" rx="21.4286" ry="21.4286"/>
<text text-anchor="middle" x="151.563" y="-94.3352" font-family="Times New Roman,serif" font-size="20.00">2</text>
</g>
<!-- 0&#45;&gt;7 -->
<g id="edge4" class="edge"><title>0&#45;&gt;7</title>
<path fill="none" stroke="black" stroke-width="2" d="M279.236,-170.476C267.898,-164.253 253.171,-156.151 240.13,-148.913 219.72,-137.585 196.718,-124.706 179.271,-114.914"/>
<polygon fill="black" stroke="black" stroke-width="2" points="180.635,-111.665 170.202,-109.821 177.207,-117.769 180.635,-111.665"/>
</g>
<!-- 1 -->
<g id="node2" class="node"><title>1</title>
<ellipse fill="cadetblue" stroke="black" cx="21.2132" cy="-173.308" rx="21.4286" ry="21.4286"/>
<text text-anchor="middle" x="21.2132" y="-168.308" font-family="Times New Roman,serif" font-size="20.00">2</text>
</g>
<!-- 1&#45;&gt;7 -->
<g id="edge7" class="edge"><title>1&#45;&gt;7</title>
<path fill="none" stroke="black" stroke-width="2" d="M39.8891,-162.709C61.9583,-150.185 98.8698,-129.238 124.173,-114.879"/>
<polygon fill="black" stroke="black" stroke-width="2" points="125.952,-117.894 132.922,-109.914 122.497,-111.806 125.952,-117.894"/>
</g>
<!-- 2 -->
<g id="node3" class="node"><title>2</title>
<ellipse fill="cadetblue" stroke="black" cx="258.757" cy="-130.34" rx="21.4286" ry="21.4286"/>
<text text-anchor="middle" x="258.757" y="-125.34" font-family="Times New Roman,serif" font-size="20.00">2</text>
</g>
<!-- 4 -->
<g id="node5" class="node"><title>4</title>
<ellipse fill="cadetblue" stroke="black" cx="277.283" cy="-21.2132" rx="21.4286" ry="21.4286"/>
<text text-anchor="middle" x="277.283" y="-16.2132" font-family="Times New Roman,serif" font-size="20.00">2</text>
</g>
<!-- 2&#45;&gt;4 -->
<g id="edge8" class="edge"><title>2&#45;&gt;4</title>
<path fill="none" stroke="black" stroke-width="2" d="M262.329,-109.299C265.084,-93.0704 268.936,-70.3813 272.04,-52.0951"/>
<polygon fill="black" stroke="black" stroke-width="2" points="275.499,-52.6342 273.722,-42.1894 268.597,-51.4625 275.499,-52.6342"/>
</g>
<!-- 2&#45;&gt;6 -->
<g id="edge10" class="edge"><title>2&#45;&gt;6</title>
<path fill="none" stroke="black" stroke-width="2" d="M259.261,-151.585C259.913,-179.076 261.053,-227.198 261.805,-258.916"/>
<polygon fill="black" stroke="black" stroke-width="2" points="258.308,-259.075 262.044,-268.99 265.306,-258.909 258.308,-259.075"/>
</g>
<!-- 3 -->
<g id="node4" class="node"><title>3</title>
<ellipse fill="cadetblue" stroke="black" cx="146.483" cy="-273.274" rx="21.4286" ry="21.4286"/>
<text text-anchor="middle" x="146.483" y="-268.274" font-family="Times New Roman,serif" font-size="20.00">2</text>
</g>
<!-- 3&#45;&gt;0 -->
<g id="edge1" class="edge"><title>3&#45;&gt;0</title>
<path fill="none" stroke="black" stroke-width="2" d="M164.763,-262.116C191.16,-246.003 240.141,-216.106 270.802,-197.391"/>
<polygon fill="black" stroke="black" stroke-width="2" points="272.973,-200.167 279.685,-191.969 269.326,-194.192 272.973,-200.167"/>
</g>
<!-- 3&#45;&gt;1 -->
<g id="edge5" class="edge"><title>3&#45;&gt;1</title>
<path fill="none" stroke="black" stroke-width="2" d="M129.848,-259.999C108.322,-242.821 70.6403,-212.751 45.8049,-192.932"/>
<polygon fill="black" stroke="black" stroke-width="2" points="47.9163,-190.139 37.9168,-186.637 43.55,-195.61 47.9163,-190.139"/>
</g>
<!-- 5 -->
<g id="node6" class="node"><title>5</title>
<ellipse fill="brown" stroke="black" cx="128.683" cy="-199.666" rx="21.4286" ry="21.4286"/>
<text text-anchor="middle" x="128.683" y="-194.666" font-family="Times New Roman,serif" font-size="20.00">3</text>
</g>
<!-- 3&#45;&gt;5 -->
<g id="edge12" class="edge"><title>3&#45;&gt;5</title>
<path fill="none" stroke="black" stroke-width="2" d="M141.43,-252.378C139.762,-245.481 137.871,-237.662 136.066,-230.198"/>
<polygon fill="black" stroke="black" stroke-width="2" points="139.44,-229.257 133.687,-220.359 132.636,-230.902 139.44,-229.257"/>
</g>
<!-- 4&#45;&gt;0 -->
<g id="edge2" class="edge"><title>4&#45;&gt;0</title>
<path fill="none" stroke="black" stroke-width="2" d="M280.038,-42.4013C283.603,-69.8196 289.844,-117.815 293.957,-149.449"/>
<polygon fill="black" stroke="black" stroke-width="2" points="290.503,-150.031 295.263,-159.496 297.445,-149.128 290.503,-150.031"/>
</g>
<!-- 5&#45;&gt;1 -->
<g id="edge6" class="edge"><title>5&#45;&gt;1</title>
<path fill="none" stroke="black" stroke-width="2" d="M107.962,-194.584C91.9792,-190.664 69.6347,-185.183 51.6262,-180.767"/>
<polygon fill="black" stroke="black" stroke-width="2" points="52.4168,-177.357 41.8709,-178.374 50.7493,-184.155 52.4168,-177.357"/>
</g>
<!-- 5&#45;&gt;2 -->
<g id="edge9" class="edge"><title>5&#45;&gt;2</title>
<path fill="none" stroke="black" stroke-width="2" d="M147.597,-189.585C169.465,-177.93 205.665,-158.637 230.788,-145.247"/>
<polygon fill="black" stroke="black" stroke-width="2" points="232.642,-148.225 239.821,-140.433 229.35,-142.048 232.642,-148.225"/>
</g>
<!-- 6&#45;&gt;3 -->
<g id="edge13" class="edge"><title>6&#45;&gt;3</title>
<path fill="none" stroke="black" stroke-width="2" d="M241.531,-287.234C223.729,-284.62 197.953,-280.834 177.733,-277.864"/>
<polygon fill="black" stroke="black" stroke-width="2" points="178.14,-274.386 167.738,-276.396 177.123,-281.312 178.14,-274.386"/>
</g>
<!-- 6&#45;&gt;5 -->
<g id="edge16" class="edge"><title>6&#45;&gt;5</title>
<path fill="none" stroke="black" stroke-width="2" d="M244.773,-278.283C221.77,-262.705 181.502,-235.435 154.963,-217.462"/>
<polygon fill="black" stroke="black" stroke-width="2" points="156.776,-214.463 146.533,-211.754 152.851,-220.259 156.776,-214.463"/>
</g>
<!-- 7&#45;&gt;2 -->
<g id="edge11" class="edge"><title>7&#45;&gt;2</title>
<path fill="none" stroke="black" stroke-width="2" d="M171.978,-105.24C187.895,-109.844 210.249,-116.31 228.283,-121.526"/>
<polygon fill="black" stroke="black" stroke-width="2" points="227.475,-124.935 238.054,-124.352 229.42,-118.211 227.475,-124.935"/>
</g>
<!-- 7&#45;&gt;3 -->
<g id="edge14" class="edge"><title>7&#45;&gt;3</title>
<path fill="none" stroke="black" stroke-width="2" d="M153.202,-120.502C154.559,-140.832 156.098,-172.411 154.987,-199.783 154.426,-213.619 152.829,-228.836 151.168,-241.816"/>
<polygon fill="black" stroke="black" stroke-width="2" points="147.647,-241.736 149.78,-252.114 154.585,-242.671 147.647,-241.736"/>
</g>
<!-- 7&#45;&gt;4 -->
<g id="edge15" class="edge"><title>7&#45;&gt;4</title>
<path fill="none" stroke="black" stroke-width="2" d="M169.844,-87.9756C190.979,-74.842 225.968,-53.1003 250.249,-38.0118"/>
<polygon fill="black" stroke="black" stroke-width="2" points="252.333,-40.8373 258.98,-32.5865 248.639,-34.8917 252.333,-40.8373"/>
</g>
<!-- 7&#45;&gt;5 -->
<g id="edge17" class="edge"><title>7&#45;&gt;5</title>
<path fill="none" stroke="black" stroke-width="2" d="M146.822,-120.124C143.601,-134.249 139.286,-153.172 135.672,-169.017"/>
<polygon fill="black" stroke="black" stroke-width="2" points="132.229,-168.376 133.418,-178.904 139.054,-169.932 132.229,-168.376"/>
</g>
</g>
</svg>

