<?xml version="1.0" encoding="UTF-8" standalone="no"?>
<!DOCTYPE svg PUBLIC "-//W3C//DTD SVG 1.1//EN"
 "http://www.w3.org/Graphics/SVG/1.1/DTD/svg11.dtd">
<!-- Generated by graphviz version 2.36.0 (20140111.2315)
 -->
<!-- Title: G Pages: 1 -->
<svg width="100%" height="100%"
 viewBox="0.00 0.00 254.08 240.09" xmlns="http://www.w3.org/2000/svg" xmlns:xlink="http://www.w3.org/1999/xlink">
<g id="graph0" class="graph" transform="scale(1 1) rotate(0) translate(4 236.095)">
<title>G</title>
<!-- 0 -->
<g id="node1" class="node"><title>0</title>
<ellipse fill="cadetblue" stroke="black" cx="170.707" cy="-123.457" rx="21.4286" ry="21.4286"/>
<text text-anchor="middle" x="170.707" y="-118.457" font-family="Times New Roman,serif" font-size="20.00">2</text>
</g>
<!-- 5 -->
<g id="node6" class="node"><title>5</title>
<ellipse fill="brown" stroke="black" cx="84.9542" cy="-192.505" rx="21.4286" ry="21.4286"/>
<text text-anchor="middle" x="84.9542" y="-187.505" font-family="Times New Roman,serif" font-size="20.00">3</text>
</g>
<!-- 0&#45;&gt;5 -->
<g id="edge3" class="edge"><title>0&#45;&gt;5</title>
<path fill="none" stroke="black" stroke-width="2" d="M154.173,-136.77C141.561,-146.925 123.984,-161.078 109.698,-172.581"/>
<polygon fill="black" stroke="black" stroke-width="2" points="107.324,-169.999 101.73,-178.997 111.714,-175.451 107.324,-169.999"/>
</g>
<!-- 6 -->
<g id="node7" class="node"><title>6</title>
<ellipse fill="cadetblue" stroke="black" cx="224.863" cy="-178.229" rx="21.4286" ry="21.4286"/>
<text text-anchor="middle" x="224.863" y="-173.229" font-family="Times New Roman,serif" font-size="20.00">2</text>
</g>
<!-- 0&#45;&gt;6 -->
<g id="edge4" class="edge"><title>0&#45;&gt;6</title>
<path fill="none" stroke="black" stroke-width="2" d="M185.793,-138.714C190.957,-143.937 196.85,-149.897 202.466,-155.578"/>
<polygon fill="black" stroke="black" stroke-width="2" points="200.339,-158.404 209.859,-163.054 205.316,-153.482 200.339,-158.404"/>
</g>
<!-- 7 -->
<g id="node8" class="node"><title>7</title>
<ellipse fill="cadetblue" stroke="black" cx="107.421" cy="-96.0835" rx="21.4286" ry="21.4286"/>
<text text-anchor="middle" x="107.421" y="-91.0835" font-family="Times New Roman,serif" font-size="20.00">2</text>
</g>
<!-- 0&#45;&gt;7 -->
<g id="edge5" class="edge"><title>0&#45;&gt;7</title>
<path fill="none" stroke="black" stroke-width="2" d="M151.03,-114.946C146.431,-112.957 141.436,-110.796 136.524,-108.672"/>
<polygon fill="black" stroke="black" stroke-width="2" points="137.872,-105.441 127.304,-104.684 135.093,-111.866 137.872,-105.441"/>
</g>
<!-- 1 -->
<g id="node2" class="node"><title>1</title>
<ellipse fill="cadetblue" stroke="black" cx="21.2132" cy="-127.257" rx="21.4286" ry="21.4286"/>
<text text-anchor="middle" x="21.2132" y="-122.257" font-family="Times New Roman,serif" font-size="20.00">2</text>
</g>
<!-- 1&#45;&gt;5 -->
<g id="edge8" class="edge"><title>1&#45;&gt;5</title>
<path fill="none" stroke="black" stroke-width="2" d="M36.3189,-142.72C44.2571,-150.845 54.1351,-160.957 62.9111,-169.94"/>
<polygon fill="black" stroke="black" stroke-width="2" points="60.4653,-172.445 69.9569,-177.153 65.4725,-167.554 60.4653,-172.445"/>
</g>
<!-- 2 -->
<g id="node3" class="node"><title>2</title>
<ellipse fill="cadetblue" stroke="black" cx="212.38" cy="-45.3883" rx="21.4286" ry="21.4286"/>
<text text-anchor="middle" x="212.38" y="-40.3883" font-family="Times New Roman,serif" font-size="20.00">2</text>
</g>
<!-- 4 -->
<g id="node5" class="node"><title>4</title>
<ellipse fill="cadetblue" stroke="black" cx="101.974" cy="-21.2132" rx="21.4286" ry="21.4286"/>
<text text-anchor="middle" x="101.974" y="-16.2132" font-family="Times New Roman,serif" font-size="20.00">2</text>
</g>
<!-- 2&#45;&gt;4 -->
<g id="edge9" class="edge"><title>2&#45;&gt;4</title>
<path fill="none" stroke="black" stroke-width="2" d="M191.613,-40.8411C175.064,-37.2174 151.64,-32.0883 132.887,-27.9821"/>
<polygon fill="black" stroke="black" stroke-width="2" points="133.54,-24.5422 123.023,-25.8222 132.043,-31.3802 133.54,-24.5422"/>
</g>
<!-- 3 -->
<g id="node4" class="node"><title>3</title>
<ellipse fill="cadetblue" stroke="black" cx="135.386" cy="-210.881" rx="21.4286" ry="21.4286"/>
<text text-anchor="middle" x="135.386" y="-205.881" font-family="Times New Roman,serif" font-size="20.00">2</text>
</g>
<!-- 3&#45;&gt;0 -->
<g id="edge1" class="edge"><title>3&#45;&gt;0</title>
<path fill="none" stroke="black" stroke-width="2" d="M143.401,-191.043C147.962,-179.754 153.761,-165.4 158.842,-152.826"/>
<polygon fill="black" stroke="black" stroke-width="2" points="162.223,-153.8 162.724,-143.217 155.733,-151.177 162.223,-153.8"/>
</g>
<!-- 3&#45;&gt;1 -->
<g id="edge6" class="edge"><title>3&#45;&gt;1</title>
<path fill="none" stroke="black" stroke-width="2" d="M122.586,-193.584C117.189,-186.978 110.557,-179.675 103.637,-173.988 87.2778,-160.541 66.5286,-148.801 49.9414,-140.452"/>
<polygon fill="black" stroke="black" stroke-width="2" points="51.2415,-137.191 40.7208,-135.94 48.165,-143.479 51.2415,-137.191"/>
</g>
<!-- 3&#45;&gt;7 -->
<g id="edge14" class="edge"><title>3&#45;&gt;7</title>
<path fill="none" stroke="black" stroke-width="2" d="M130.321,-190.092C126.006,-172.375 119.744,-146.672 114.859,-126.618"/>
<polygon fill="black" stroke="black" stroke-width="2" points="118.215,-125.605 112.447,-116.718 111.414,-127.262 118.215,-125.605"/>
</g>
<!-- 4&#45;&gt;0 -->
<g id="edge2" class="edge"><title>4&#45;&gt;0</title>
<path fill="none" stroke="black" stroke-width="2" d="M113.946,-39.0227C124.788,-55.1499 140.896,-79.1112 153.186,-97.3926"/>
<polygon fill="black" stroke="black" stroke-width="2" points="150.388,-99.5053 158.872,-105.852 156.198,-95.5999 150.388,-99.5053"/>
</g>
<!-- 4&#45;&gt;1 -->
<g id="edge7" class="edge"><title>4&#45;&gt;1</title>
<path fill="none" stroke="black" stroke-width="2" d="M88.9984,-38.2509C75.8114,-55.5662 55.2415,-82.5756 40.218,-102.302"/>
<polygon fill="black" stroke="black" stroke-width="2" points="37.431,-100.185 34.1566,-110.261 42.9999,-104.426 37.431,-100.185"/>
</g>
<!-- 5&#45;&gt;3 -->
<g id="edge12" class="edge"><title>5&#45;&gt;3</title>
<path fill="none" stroke="black" stroke-width="2" d="M104.886,-199.768C105.206,-199.884 105.527,-200.001 105.85,-200.119"/>
<polygon fill="black" stroke="black" stroke-width="2" points="104.674,-203.415 115.268,-203.551 107.071,-196.838 104.674,-203.415"/>
</g>
<!-- 5&#45;&gt;6 -->
<g id="edge16" class="edge"><title>5&#45;&gt;6</title>
<path fill="none" stroke="black" stroke-width="2" d="M106.02,-188.787C115.052,-187.299 125.734,-185.68 135.429,-184.577 154.641,-182.39 176.265,-180.831 193.438,-179.806"/>
<polygon fill="black" stroke="black" stroke-width="2" points="193.708,-183.296 203.493,-179.235 193.311,-176.307 193.708,-183.296"/>
</g>
<!-- 6&#45;&gt;2 -->
<g id="edge10" class="edge"><title>6&#45;&gt;2</title>
<path fill="none" stroke="black" stroke-width="2" d="M222.857,-156.886C220.819,-135.195 217.64,-101.36 215.317,-76.6487"/>
<polygon fill="black" stroke="black" stroke-width="2" points="218.801,-76.3071 214.381,-66.6785 211.832,-76.9621 218.801,-76.3071"/>
</g>
<!-- 6&#45;&gt;3 -->
<g id="edge13" class="edge"><title>6&#45;&gt;3</title>
<path fill="none" stroke="black" stroke-width="2" d="M204.559,-185.638C192.89,-189.897 178.022,-195.322 165.063,-200.052"/>
<polygon fill="black" stroke="black" stroke-width="2" points="163.803,-196.785 155.609,-203.501 166.203,-203.361 163.803,-196.785"/>
</g>
<!-- 7&#45;&gt;2 -->
<g id="edge11" class="edge"><title>7&#45;&gt;2</title>
<path fill="none" stroke="black" stroke-width="2" d="M126.672,-86.7852C142.651,-79.0674 165.612,-67.9773 183.747,-59.2179"/>
<polygon fill="black" stroke="black" stroke-width="2" points="185.768,-62.1285 193.251,-54.6276 182.724,-55.8253 185.768,-62.1285"/>
</g>
<!-- 7&#45;&gt;4 -->
<g id="edge15" class="edge"><title>7&#45;&gt;4</title>
<path fill="none" stroke="black" stroke-width="2" d="M105.875,-74.8289C105.374,-67.953 104.808,-60.1752 104.266,-52.7193"/>
<polygon fill="black" stroke="black" stroke-width="2" points="107.741,-52.2406 103.524,-42.5209 100.759,-52.7485 107.741,-52.2406"/>
</g>
<!-- 7&#45;&gt;5 -->
<g id="edge17" class="edge"><title>7&#45;&gt;5</title>
<path fill="none" stroke="black" stroke-width="2" d="M102.546,-117.005C99.5135,-130.02 95.5594,-146.99 92.1682,-161.544"/>
<polygon fill="black" stroke="black" stroke-width="2" points="88.6803,-161.09 89.8196,-171.623 95.4977,-162.679 88.6803,-161.09"/>
</g>
</g>
</svg>

