<?xml version="1.0" encoding="UTF-8" standalone="no"?>
<!DOCTYPE svg PUBLIC "-//W3C//DTD SVG 1.1//EN"
 "http://www.w3.org/Graphics/SVG/1.1/DTD/svg11.dtd">
<!-- Generated by graphviz version 2.36.0 (20140111.2315)
 -->
<!-- Title: G Pages: 1 -->
<svg width="100%" height="100%"
 viewBox="0.00 0.00 219.26 253.45" xmlns="http://www.w3.org/2000/svg" xmlns:xlink="http://www.w3.org/1999/xlink">
<g id="graph0" class="graph" transform="scale(1 1) rotate(0) translate(4 249.451)">
<title>G</title>
<!-- 0 -->
<g id="node1" class="node"><title>0</title>
<ellipse fill="cadetblue" stroke="black" cx="190.043" cy="-177.835" rx="21.4286" ry="21.4286"/>
<text text-anchor="middle" x="190.043" y="-172.835" font-family="Times New Roman,serif" font-size="20.00">2</text>
</g>
<!-- 6 -->
<g id="node7" class="node"><title>6</title>
<ellipse fill="cadetblue" stroke="black" cx="127.654" cy="-173.807" rx="21.4286" ry="21.4286"/>
<text text-anchor="middle" x="127.654" y="-168.807" font-family="Times New Roman,serif" font-size="20.00">2</text>
</g>
<!-- 0&#45;&gt;6 -->
<g id="edge3" class="edge"><title>0&#45;&gt;6</title>
<path fill="none" stroke="black" stroke-width="2" d="M168.572,-176.449C165.499,-176.25 162.286,-176.043 159.07,-175.835"/>
<polygon fill="black" stroke="black" stroke-width="2" points="159.158,-172.333 148.953,-175.182 158.707,-179.319 159.158,-172.333"/>
</g>
<!-- 7 -->
<g id="node8" class="node"><title>7</title>
<ellipse fill="brown" stroke="black" cx="99.7935" cy="-114.7" rx="21.4286" ry="21.4286"/>
<text text-anchor="middle" x="99.7935" y="-109.7" font-family="Times New Roman,serif" font-size="20.00">3</text>
</g>
<!-- 0&#45;&gt;7 -->
<g id="edge4" class="edge"><title>0&#45;&gt;7</title>
<path fill="none" stroke="black" stroke-width="2" d="M172.642,-165.662C159.368,-156.376 140.87,-143.435 125.835,-132.918"/>
<polygon fill="black" stroke="black" stroke-width="2" points="127.649,-129.916 117.449,-127.051 123.637,-135.651 127.649,-129.916"/>
</g>
<!-- 1 -->
<g id="node2" class="node"><title>1</title>
<ellipse fill="cadetblue" stroke="black" cx="23.9802" cy="-161.819" rx="21.4286" ry="21.4286"/>
<text text-anchor="middle" x="23.9802" y="-156.819" font-family="Times New Roman,serif" font-size="20.00">2</text>
</g>
<!-- 1&#45;&gt;6 -->
<g id="edge7" class="edge"><title>1&#45;&gt;6</title>
<path fill="none" stroke="black" stroke-width="2" d="M45.2103,-164.274C59.8862,-165.971 79.6615,-168.257 96.1655,-170.166"/>
<polygon fill="black" stroke="black" stroke-width="2" points="96.1163,-173.683 106.452,-171.355 96.9204,-166.729 96.1163,-173.683"/>
</g>
<!-- 1&#45;&gt;7 -->
<g id="edge8" class="edge"><title>1&#45;&gt;7</title>
<path fill="none" stroke="black" stroke-width="2" d="M42.3325,-150.413C51.5517,-144.683 62.8958,-137.633 73.0623,-131.314"/>
<polygon fill="black" stroke="black" stroke-width="2" points="74.9645,-134.253 81.6102,-126.001 71.2694,-128.307 74.9645,-134.253"/>
</g>
<!-- 2 -->
<g id="node3" class="node"><title>2</title>
<ellipse fill="cadetblue" stroke="black" cx="109.916" cy="-21.2132" rx="21.4286" ry="21.4286"/>
<text text-anchor="middle" x="109.916" y="-16.2132" font-family="Times New Roman,serif" font-size="20.00">2</text>
</g>
<!-- 5 -->
<g id="node6" class="node"><title>5</title>
<ellipse fill="cadetblue" stroke="black" cx="21.2132" cy="-62.8734" rx="21.4286" ry="21.4286"/>
<text text-anchor="middle" x="21.2132" y="-57.8734" font-family="Times New Roman,serif" font-size="20.00">2</text>
</g>
<!-- 2&#45;&gt;5 -->
<g id="edge10" class="edge"><title>2&#45;&gt;5</title>
<path fill="none" stroke="black" stroke-width="2" d="M90.6689,-30.2529C78.6964,-35.8759 63.0847,-43.208 49.6956,-49.4964"/>
<polygon fill="black" stroke="black" stroke-width="2" points="47.9864,-46.4323 40.4229,-53.8514 50.9622,-52.7683 47.9864,-46.4323"/>
</g>
<!-- 3 -->
<g id="node4" class="node"><title>3</title>
<ellipse fill="cadetblue" stroke="black" cx="90.2605" cy="-224.238" rx="21.4286" ry="21.4286"/>
<text text-anchor="middle" x="90.2605" y="-219.238" font-family="Times New Roman,serif" font-size="20.00">2</text>
</g>
<!-- 3&#45;&gt;0 -->
<g id="edge1" class="edge"><title>3&#45;&gt;0</title>
<path fill="none" stroke="black" stroke-width="2" d="M109.5,-215.291C124.175,-208.466 144.628,-198.955 161.251,-191.225"/>
<polygon fill="black" stroke="black" stroke-width="2" points="162.931,-194.303 170.523,-186.913 159.979,-187.956 162.931,-194.303"/>
</g>
<!-- 3&#45;&gt;1 -->
<g id="edge5" class="edge"><title>3&#45;&gt;1</title>
<path fill="none" stroke="black" stroke-width="2" d="M74.553,-209.446C66.2986,-201.672 56.0271,-191.999 46.9015,-183.405"/>
<polygon fill="black" stroke="black" stroke-width="2" points="49.2545,-180.813 39.575,-176.505 44.4554,-185.909 49.2545,-180.813"/>
</g>
<!-- 4 -->
<g id="node5" class="node"><title>4</title>
<ellipse fill="cadetblue" stroke="black" cx="184.536" cy="-86.5907" rx="21.4286" ry="21.4286"/>
<text text-anchor="middle" x="184.536" y="-81.5907" font-family="Times New Roman,serif" font-size="20.00">2</text>
</g>
<!-- 4&#45;&gt;0 -->
<g id="edge2" class="edge"><title>4&#45;&gt;0</title>
<path fill="none" stroke="black" stroke-width="2" d="M185.841,-108.214C186.527,-119.578 187.38,-133.718 188.139,-146.28"/>
<polygon fill="black" stroke="black" stroke-width="2" points="184.651,-146.596 188.747,-156.367 191.638,-146.174 184.651,-146.596"/>
</g>
<!-- 4&#45;&gt;2 -->
<g id="edge9" class="edge"><title>4&#45;&gt;2</title>
<path fill="none" stroke="black" stroke-width="2" d="M168.345,-72.4048C158.273,-63.5806 145.14,-52.0741 133.876,-42.2058"/>
<polygon fill="black" stroke="black" stroke-width="2" points="135.904,-39.3289 126.076,-35.3715 131.291,-44.5939 135.904,-39.3289"/>
</g>
<!-- 5&#45;&gt;1 -->
<g id="edge6" class="edge"><title>5&#45;&gt;1</title>
<path fill="none" stroke="black" stroke-width="2" d="M21.8136,-84.3432C22.1871,-97.6981 22.6741,-115.113 23.0917,-130.048"/>
<polygon fill="black" stroke="black" stroke-width="2" points="19.6027,-130.493 23.381,-140.391 26.6,-130.297 19.6027,-130.493"/>
</g>
<!-- 6&#45;&gt;3 -->
<g id="edge12" class="edge"><title>6&#45;&gt;3</title>
<path fill="none" stroke="black" stroke-width="2" d="M114.994,-190.88C113.045,-193.509 110.998,-196.27 108.95,-199.031"/>
<polygon fill="black" stroke="black" stroke-width="2" points="106.052,-197.064 102.907,-207.182 111.675,-201.234 106.052,-197.064"/>
</g>
<!-- 6&#45;&gt;4 -->
<g id="edge14" class="edge"><title>6&#45;&gt;4</title>
<path fill="none" stroke="black" stroke-width="2" d="M139.44,-155.735C147.448,-143.457 158.176,-127.007 167.16,-113.233"/>
<polygon fill="black" stroke="black" stroke-width="2" points="170.234,-114.927 172.765,-104.639 164.371,-111.103 170.234,-114.927"/>
</g>
<!-- 6&#45;&gt;7 -->
<g id="edge17" class="edge"><title>6&#45;&gt;7</title>
<path fill="none" stroke="black" stroke-width="2" d="M118.531,-154.453C116.83,-150.844 115.02,-147.004 113.221,-143.188"/>
<polygon fill="black" stroke="black" stroke-width="2" points="116.271,-141.449 108.841,-133.895 109.939,-144.433 116.271,-141.449"/>
</g>
<!-- 7&#45;&gt;2 -->
<g id="edge11" class="edge"><title>7&#45;&gt;2</title>
<path fill="none" stroke="black" stroke-width="2" d="M102.09,-93.4865C103.398,-81.4141 105.06,-66.0643 106.516,-52.6187"/>
<polygon fill="black" stroke="black" stroke-width="2" points="110.031,-52.6616 107.628,-42.3429 103.072,-51.908 110.031,-52.6616"/>
</g>
<!-- 7&#45;&gt;3 -->
<g id="edge13" class="edge"><title>7&#45;&gt;3</title>
<path fill="none" stroke="black" stroke-width="2" d="M97.9328,-136.08C96.5286,-152.214 94.5804,-174.6 92.9986,-192.776"/>
<polygon fill="black" stroke="black" stroke-width="2" points="89.4968,-192.646 92.1165,-202.912 96.4704,-193.253 89.4968,-192.646"/>
</g>
<!-- 7&#45;&gt;4 -->
<g id="edge15" class="edge"><title>7&#45;&gt;4</title>
<path fill="none" stroke="black" stroke-width="2" d="M120.307,-107.896C130.612,-104.477 143.293,-100.271 154.656,-96.5019"/>
<polygon fill="black" stroke="black" stroke-width="2" points="155.822,-99.803 164.211,-93.3326 153.618,-93.159 155.822,-99.803"/>
</g>
<!-- 7&#45;&gt;5 -->
<g id="edge16" class="edge"><title>7&#45;&gt;5</title>
<path fill="none" stroke="black" stroke-width="2" d="M81.9624,-102.94C71.8149,-96.2472 58.9127,-87.7377 47.6111,-80.2838"/>
<polygon fill="black" stroke="black" stroke-width="2" points="49.2486,-77.1712 38.9737,-74.5872 45.3946,-83.0147 49.2486,-77.1712"/>
</g>
</g>
</svg>

