<?xml version="1.0" encoding="UTF-8" standalone="no"?>
<!DOCTYPE svg PUBLIC "-//W3C//DTD SVG 1.1//EN"
 "http://www.w3.org/Graphics/SVG/1.1/DTD/svg11.dtd">
<!-- Generated by graphviz version 2.36.0 (20140111.2315)
 -->
<!-- Title: G Pages: 1 -->
<svg width="100%" height="100%"
 viewBox="0.00 0.00 270.60 190.34" xmlns="http://www.w3.org/2000/svg" xmlns:xlink="http://www.w3.org/1999/xlink">
<g id="graph0" class="graph" transform="scale(1 1) rotate(0) translate(4 186.34)">
<title>G</title>
<!-- 0 -->
<g id="node1" class="node"><title>0</title>
<ellipse fill="cadetblue" stroke="black" cx="180.446" cy="-161.127" rx="21.4286" ry="21.4286"/>
<text text-anchor="middle" x="180.446" y="-156.127" font-family="Times New Roman,serif" font-size="20.00">2</text>
</g>
<!-- 5 -->
<g id="node6" class="node"><title>5</title>
<ellipse fill="cadetblue" stroke="black" cx="106.52" cy="-98.1215" rx="21.4286" ry="21.4286"/>
<text text-anchor="middle" x="106.52" y="-93.1215" font-family="Times New Roman,serif" font-size="20.00">2</text>
</g>
<!-- 0&#45;&gt;5 -->
<g id="edge3" class="edge"><title>0&#45;&gt;5</title>
<path fill="none" stroke="black" stroke-width="2" d="M164.039,-147.144C154.181,-138.742 141.463,-127.902 130.493,-118.553"/>
<polygon fill="black" stroke="black" stroke-width="2" points="132.762,-115.888 122.881,-112.065 128.221,-121.216 132.762,-115.888"/>
</g>
<!-- 6 -->
<g id="node7" class="node"><title>6</title>
<ellipse fill="cadetblue" stroke="black" cx="167.407" cy="-91.6682" rx="21.4286" ry="21.4286"/>
<text text-anchor="middle" x="167.407" y="-86.6682" font-family="Times New Roman,serif" font-size="20.00">2</text>
</g>
<!-- 0&#45;&gt;6 -->
<g id="edge4" class="edge"><title>0&#45;&gt;6</title>
<path fill="none" stroke="black" stroke-width="2" d="M176.463,-139.909C175.452,-134.523 174.345,-128.624 173.262,-122.856"/>
<polygon fill="black" stroke="black" stroke-width="2" points="176.651,-121.938 171.366,-112.755 169.771,-123.23 176.651,-121.938"/>
</g>
<!-- 1 -->
<g id="node2" class="node"><title>1</title>
<ellipse fill="cadetblue" stroke="black" cx="21.2132" cy="-107.167" rx="21.4286" ry="21.4286"/>
<text text-anchor="middle" x="21.2132" y="-102.167" font-family="Times New Roman,serif" font-size="20.00">2</text>
</g>
<!-- 7 -->
<g id="node8" class="node"><title>7</title>
<ellipse fill="brown" stroke="black" cx="83.0054" cy="-47.69" rx="21.4286" ry="21.4286"/>
<text text-anchor="middle" x="83.0054" y="-42.69" font-family="Times New Roman,serif" font-size="20.00">3</text>
</g>
<!-- 1&#45;&gt;7 -->
<g id="edge7" class="edge"><title>1&#45;&gt;7</title>
<path fill="none" stroke="black" stroke-width="2" d="M36.806,-92.1581C43.885,-85.3444 52.398,-77.1504 60.1773,-69.6626"/>
<polygon fill="black" stroke="black" stroke-width="2" points="62.854,-71.9441 67.6316,-62.4876 57.9996,-66.9008 62.854,-71.9441"/>
</g>
<!-- 2 -->
<g id="node3" class="node"><title>2</title>
<ellipse fill="cadetblue" stroke="black" cx="165.895" cy="-21.2132" rx="21.4286" ry="21.4286"/>
<text text-anchor="middle" x="165.895" y="-16.2132" font-family="Times New Roman,serif" font-size="20.00">2</text>
</g>
<!-- 4 -->
<g id="node5" class="node"><title>4</title>
<ellipse fill="cadetblue" stroke="black" cx="241.386" cy="-84.2416" rx="21.4286" ry="21.4286"/>
<text text-anchor="middle" x="241.386" y="-79.2416" font-family="Times New Roman,serif" font-size="20.00">2</text>
</g>
<!-- 2&#45;&gt;4 -->
<g id="edge8" class="edge"><title>2&#45;&gt;4</title>
<path fill="none" stroke="black" stroke-width="2" d="M182.276,-34.8894C192.465,-43.3966 205.751,-54.4895 217.146,-64.0033"/>
<polygon fill="black" stroke="black" stroke-width="2" points="215.118,-66.8697 225.038,-70.5921 219.605,-61.4963 215.118,-66.8697"/>
</g>
<!-- 2&#45;&gt;7 -->
<g id="edge11" class="edge"><title>2&#45;&gt;7</title>
<path fill="none" stroke="black" stroke-width="2" d="M145.405,-27.758C135.669,-30.8681 123.838,-34.6471 113.107,-38.0749"/>
<polygon fill="black" stroke="black" stroke-width="2" points="111.72,-34.8436 103.259,-41.2205 113.85,-41.5117 111.72,-34.8436"/>
</g>
<!-- 3 -->
<g id="node4" class="node"><title>3</title>
<ellipse fill="cadetblue" stroke="black" cx="94.0205" cy="-152.345" rx="21.4286" ry="21.4286"/>
<text text-anchor="middle" x="94.0205" y="-147.345" font-family="Times New Roman,serif" font-size="20.00">2</text>
</g>
<!-- 3&#45;&gt;0 -->
<g id="edge1" class="edge"><title>3&#45;&gt;0</title>
<path fill="none" stroke="black" stroke-width="2" d="M115.384,-154.516C125.536,-155.548 137.871,-156.801 149.06,-157.938"/>
<polygon fill="black" stroke="black" stroke-width="2" points="149.025,-161.452 159.328,-158.981 149.733,-154.488 149.025,-161.452"/>
</g>
<!-- 3&#45;&gt;1 -->
<g id="edge5" class="edge"><title>3&#45;&gt;1</title>
<path fill="none" stroke="black" stroke-width="2" d="M75.6482,-140.945C67.3072,-135.769 57.2766,-129.545 48.1107,-123.857"/>
<polygon fill="black" stroke="black" stroke-width="2" points="49.67,-120.706 39.3275,-118.407 45.9791,-126.654 49.67,-120.706"/>
</g>
<!-- 3&#45;&gt;7 -->
<g id="edge14" class="edge"><title>3&#45;&gt;7</title>
<path fill="none" stroke="black" stroke-width="2" d="M87.2776,-131.964C84.3443,-121.875 81.3246,-109.437 80.2157,-98.0042 79.6205,-91.868 79.5644,-85.2976 79.7956,-78.997"/>
<polygon fill="black" stroke="black" stroke-width="2" points="83.3038,-78.9648 80.4117,-68.7724 76.3165,-78.5437 83.3038,-78.9648"/>
</g>
<!-- 4&#45;&gt;0 -->
<g id="edge2" class="edge"><title>4&#45;&gt;0</title>
<path fill="none" stroke="black" stroke-width="2" d="M228.163,-100.924C219.938,-111.302 209.212,-124.834 200.014,-136.439"/>
<polygon fill="black" stroke="black" stroke-width="2" points="197.112,-134.465 193.643,-144.476 202.598,-138.813 197.112,-134.465"/>
</g>
<!-- 5&#45;&gt;1 -->
<g id="edge6" class="edge"><title>5&#45;&gt;1</title>
<path fill="none" stroke="black" stroke-width="2" d="M84.9933,-100.404C75.1186,-101.451 63.2228,-102.712 52.393,-103.861"/>
<polygon fill="black" stroke="black" stroke-width="2" points="52.0124,-100.381 42.4373,-104.916 52.7506,-107.342 52.0124,-100.381"/>
</g>
<!-- 5&#45;&gt;2 -->
<g id="edge9" class="edge"><title>5&#45;&gt;2</title>
<path fill="none" stroke="black" stroke-width="2" d="M119.697,-81.053C127.615,-70.7973 137.83,-57.5658 146.64,-46.1536"/>
<polygon fill="black" stroke="black" stroke-width="2" points="149.414,-48.2883 152.755,-38.2339 143.873,-44.0106 149.414,-48.2883"/>
</g>
<!-- 5&#45;&gt;3 -->
<g id="edge12" class="edge"><title>5&#45;&gt;3</title>
<path fill="none" stroke="black" stroke-width="2" d="M101.723,-118.931C101.547,-119.692 101.37,-120.461 101.192,-121.234"/>
<polygon fill="black" stroke="black" stroke-width="2" points="97.7022,-120.792 98.8665,-131.323 104.523,-122.365 97.7022,-120.792"/>
</g>
<!-- 6&#45;&gt;2 -->
<g id="edge10" class="edge"><title>6&#45;&gt;2</title>
<path fill="none" stroke="black" stroke-width="2" d="M166.945,-70.1465C166.828,-64.6834 166.7,-58.6992 166.574,-52.8486"/>
<polygon fill="black" stroke="black" stroke-width="2" points="170.068,-52.5256 166.354,-42.603 163.07,-52.6759 170.068,-52.5256"/>
</g>
<!-- 6&#45;&gt;3 -->
<g id="edge13" class="edge"><title>6&#45;&gt;3</title>
<path fill="none" stroke="black" stroke-width="2" d="M150.755,-105.437C141.184,-113.35 128.99,-123.432 118.361,-132.221"/>
<polygon fill="black" stroke="black" stroke-width="2" points="116.084,-129.562 110.607,-138.631 120.544,-134.956 116.084,-129.562"/>
</g>
<!-- 6&#45;&gt;4 -->
<g id="edge15" class="edge"><title>6&#45;&gt;4</title>
<path fill="none" stroke="black" stroke-width="2" d="M188.805,-89.5201C195.399,-88.8581 202.803,-88.1149 209.927,-87.3997"/>
<polygon fill="black" stroke="black" stroke-width="2" points="210.436,-90.8663 220.037,-86.3848 209.737,-83.9013 210.436,-90.8663"/>
</g>
<!-- 7&#45;&gt;5 -->
<g id="edge16" class="edge"><title>7&#45;&gt;5</title>
<path fill="none" stroke="black" stroke-width="2" d="M92.0294,-67.0439C92.3597,-67.7522 92.693,-68.4671 93.0282,-69.186"/>
<polygon fill="black" stroke="black" stroke-width="2" points="90.0052,-70.985 97.4033,-78.5692 96.3495,-68.0269 90.0052,-70.985"/>
</g>
<!-- 7&#45;&gt;6 -->
<g id="edge17" class="edge"><title>7&#45;&gt;6</title>
<path fill="none" stroke="black" stroke-width="2" d="M102.157,-57.6693C113.165,-63.4047 127.189,-70.7124 139.414,-77.082"/>
<polygon fill="black" stroke="black" stroke-width="2" points="137.845,-80.2113 148.331,-81.7283 141.08,-74.0035 137.845,-80.2113"/>
</g>
</g>
</svg>

