<?xml version="1.0" encoding="UTF-8" standalone="no"?>
<!DOCTYPE svg PUBLIC "-//W3C//DTD SVG 1.1//EN"
 "http://www.w3.org/Graphics/SVG/1.1/DTD/svg11.dtd">
<!-- Generated by graphviz version 2.36.0 (20140111.2315)
 -->
<!-- Title: G Pages: 1 -->
<svg width="100%" height="100%"
 viewBox="0.00 0.00 247.19 241.94" xmlns="http://www.w3.org/2000/svg" xmlns:xlink="http://www.w3.org/1999/xlink">
<g id="graph0" class="graph" transform="scale(1 1) rotate(0) translate(4 237.941)">
<title>G</title>
<!-- 0 -->
<g id="node1" class="node"><title>0</title>
<ellipse fill="cadetblue" stroke="black" cx="82.9562" cy="-69.0665" rx="21.4286" ry="21.4286"/>
<text text-anchor="middle" x="82.9562" y="-64.0665" font-family="Times New Roman,serif" font-size="20.00">2</text>
</g>
<!-- 5 -->
<g id="node6" class="node"><title>5</title>
<ellipse fill="cadetblue" stroke="black" cx="21.2132" cy="-127.975" rx="21.4286" ry="21.4286"/>
<text text-anchor="middle" x="21.2132" y="-122.975" font-family="Times New Roman,serif" font-size="20.00">2</text>
</g>
<!-- 0&#45;&gt;5 -->
<g id="edge3" class="edge"><title>0&#45;&gt;5</title>
<path fill="none" stroke="black" stroke-width="2" d="M67.3758,-83.9316C60.3024,-90.6802 51.7962,-98.796 44.0231,-106.212"/>
<polygon fill="black" stroke="black" stroke-width="2" points="41.3939,-103.883 36.5747,-113.319 46.226,-108.948 41.3939,-103.883"/>
</g>
<!-- 6 -->
<g id="node7" class="node"><title>6</title>
<ellipse fill="brown" stroke="black" cx="102.432" cy="-134.05" rx="21.4286" ry="21.4286"/>
<text text-anchor="middle" x="102.432" y="-129.05" font-family="Times New Roman,serif" font-size="20.00">3</text>
</g>
<!-- 0&#45;&gt;6 -->
<g id="edge4" class="edge"><title>0&#45;&gt;6</title>
<path fill="none" stroke="black" stroke-width="2" d="M89.1184,-89.6279C90.4683,-94.1318 91.9245,-98.9909 93.3613,-103.785"/>
<polygon fill="black" stroke="black" stroke-width="2" points="90.0193,-104.826 96.2429,-113.4 96.7247,-102.816 90.0193,-104.826"/>
</g>
<!-- 7 -->
<g id="node8" class="node"><title>7</title>
<ellipse fill="dodgerblue" stroke="black" cx="133.388" cy="-56.2044" rx="21.4286" ry="21.4286"/>
<text text-anchor="middle" x="133.388" y="-51.2044" font-family="Times New Roman,serif" font-size="20.00">4</text>
</g>
<!-- 0&#45;&gt;7 -->
<g id="edge5" class="edge"><title>0&#45;&gt;7</title>
<path fill="none" stroke="black" stroke-width="2" d="M103.76,-63.7608C103.851,-63.7374 103.943,-63.714 104.035,-63.6906"/>
<polygon fill="black" stroke="black" stroke-width="2" points="103.807,-67.3608 112.632,-61.498 102.077,-60.5779 103.807,-67.3608"/>
</g>
<!-- 1 -->
<g id="node2" class="node"><title>1</title>
<ellipse fill="cadetblue" stroke="black" cx="149.476" cy="-212.728" rx="21.4286" ry="21.4286"/>
<text text-anchor="middle" x="149.476" y="-207.728" font-family="Times New Roman,serif" font-size="20.00">2</text>
</g>
<!-- 4 -->
<g id="node5" class="node"><title>4</title>
<ellipse fill="cadetblue" stroke="black" cx="217.974" cy="-108.133" rx="21.4286" ry="21.4286"/>
<text text-anchor="middle" x="217.974" y="-103.133" font-family="Times New Roman,serif" font-size="20.00">2</text>
</g>
<!-- 1&#45;&gt;4 -->
<g id="edge7" class="edge"><title>1&#45;&gt;4</title>
<path fill="none" stroke="black" stroke-width="2" d="M161.407,-194.509C172.261,-177.936 188.41,-153.276 200.679,-134.542"/>
<polygon fill="black" stroke="black" stroke-width="2" points="203.628,-136.427 206.179,-126.143 197.772,-132.592 203.628,-136.427"/>
</g>
<!-- 1&#45;&gt;6 -->
<g id="edge9" class="edge"><title>1&#45;&gt;6</title>
<path fill="none" stroke="black" stroke-width="2" d="M138.565,-194.48C132.67,-184.621 125.274,-172.252 118.712,-161.277"/>
<polygon fill="black" stroke="black" stroke-width="2" points="121.583,-159.259 113.447,-152.472 115.575,-162.851 121.583,-159.259"/>
</g>
<!-- 2 -->
<g id="node3" class="node"><title>2</title>
<ellipse fill="cadetblue" stroke="black" cx="22.7703" cy="-21.2132" rx="21.4286" ry="21.4286"/>
<text text-anchor="middle" x="22.7703" y="-16.2132" font-family="Times New Roman,serif" font-size="20.00">2</text>
</g>
<!-- 2&#45;&gt;7 -->
<g id="edge12" class="edge"><title>2&#45;&gt;7</title>
<path fill="none" stroke="black" stroke-width="2" d="M43.0593,-27.6311C59.8718,-32.9494 84.0184,-40.5876 103.117,-46.6289"/>
<polygon fill="black" stroke="black" stroke-width="2" points="102.263,-50.0296 112.853,-49.7087 104.374,-43.3556 102.263,-50.0296"/>
</g>
<!-- 3 -->
<g id="node4" class="node"><title>3</title>
<ellipse fill="cadetblue" stroke="black" cx="60.8668" cy="-194.362" rx="21.4286" ry="21.4286"/>
<text text-anchor="middle" x="60.8668" y="-189.362" font-family="Times New Roman,serif" font-size="20.00">2</text>
</g>
<!-- 3&#45;&gt;0 -->
<g id="edge1" class="edge"><title>3&#45;&gt;0</title>
<path fill="none" stroke="black" stroke-width="2" d="M64.5641,-173.39C68.1001,-153.333 73.475,-122.846 77.5026,-100"/>
<polygon fill="black" stroke="black" stroke-width="2" points="80.9574,-100.562 79.2469,-90.1066 74.0637,-99.347 80.9574,-100.562"/>
</g>
<!-- 3&#45;&gt;1 -->
<g id="edge6" class="edge"><title>3&#45;&gt;1</title>
<path fill="none" stroke="black" stroke-width="2" d="M81.8659,-198.714C92.901,-201.002 106.633,-203.848 118.833,-206.377"/>
<polygon fill="black" stroke="black" stroke-width="2" points="118.125,-209.804 128.627,-208.407 119.546,-202.95 118.125,-209.804"/>
</g>
<!-- 3&#45;&gt;7 -->
<g id="edge15" class="edge"><title>3&#45;&gt;7</title>
<path fill="none" stroke="black" stroke-width="2" d="M65.3546,-173.479C68.0702,-161.76 71.8342,-146.94 76.1275,-134.019 78.949,-125.528 79.2138,-123.079 83.8541,-115.428 91.6092,-102.642 102.012,-89.753 111.282,-79.2786"/>
<polygon fill="black" stroke="black" stroke-width="2" points="113.958,-81.538 118.088,-71.7811 108.775,-76.8332 113.958,-81.538"/>
</g>
<!-- 4&#45;&gt;0 -->
<g id="edge2" class="edge"><title>4&#45;&gt;0</title>
<path fill="none" stroke="black" stroke-width="2" d="M197.468,-102.2C175.064,-95.7175 138.951,-85.2683 113.273,-77.8385"/>
<polygon fill="black" stroke="black" stroke-width="2" points="114.234,-74.4732 103.655,-75.0558 112.289,-81.1974 114.234,-74.4732"/>
</g>
<!-- 5&#45;&gt;1 -->
<g id="edge8" class="edge"><title>5&#45;&gt;1</title>
<path fill="none" stroke="black" stroke-width="2" d="M39.0476,-139.759C60.7496,-154.1 97.5974,-178.448 122.709,-195.041"/>
<polygon fill="black" stroke="black" stroke-width="2" points="121.107,-198.177 131.379,-200.77 124.966,-192.337 121.107,-198.177"/>
</g>
<!-- 5&#45;&gt;2 -->
<g id="edge10" class="edge"><title>5&#45;&gt;2</title>
<path fill="none" stroke="black" stroke-width="2" d="M21.5246,-106.627C21.7495,-91.2065 22.0569,-70.1275 22.3101,-52.7684"/>
<polygon fill="black" stroke="black" stroke-width="2" points="25.8132,-52.5744 22.4595,-42.5244 18.814,-52.4723 25.8132,-52.5744"/>
</g>
<!-- 5&#45;&gt;3 -->
<g id="edge13" class="edge"><title>5&#45;&gt;3</title>
<path fill="none" stroke="black" stroke-width="2" d="M32.2589,-146.467C36.1261,-152.942 40.5517,-160.351 44.7477,-167.376"/>
<polygon fill="black" stroke="black" stroke-width="2" points="41.7475,-169.178 49.8803,-175.969 47.7571,-165.589 41.7475,-169.178"/>
</g>
<!-- 5&#45;&gt;7 -->
<g id="edge18" class="edge"><title>5&#45;&gt;7</title>
<path fill="none" stroke="black" stroke-width="2" d="M41.0065,-120.131C57.8895,-112.965 82.3964,-101.415 101.539,-87.6835 105.022,-85.1856 108.481,-82.3039 111.766,-79.3194"/>
<polygon fill="black" stroke="black" stroke-width="2" points="114.274,-81.7627 119.042,-72.3014 109.415,-76.7242 114.274,-81.7627"/>
</g>
<!-- 6&#45;&gt;2 -->
<g id="edge11" class="edge"><title>6&#45;&gt;2</title>
<path fill="none" stroke="black" stroke-width="2" d="M88.1477,-117.707C80.7601,-108.997 71.7609,-97.9745 64.3392,-87.6495 55.3531,-75.1483 46.1894,-60.7183 38.7607,-48.5071"/>
<polygon fill="black" stroke="black" stroke-width="2" points="41.601,-46.4386 33.4498,-39.6704 35.6012,-50.0445 41.601,-46.4386"/>
</g>
<!-- 6&#45;&gt;3 -->
<g id="edge14" class="edge"><title>6&#45;&gt;3</title>
<path fill="none" stroke="black" stroke-width="2" d="M90.1858,-151.82C86.6657,-156.927 82.75,-162.609 78.9562,-168.114"/>
<polygon fill="black" stroke="black" stroke-width="2" points="75.9618,-166.291 73.169,-176.511 81.7256,-170.263 75.9618,-166.291"/>
</g>
<!-- 6&#45;&gt;5 -->
<g id="edge17" class="edge"><title>6&#45;&gt;5</title>
<path fill="none" stroke="black" stroke-width="2" d="M81.0926,-132.454C72.3258,-131.798 61.9991,-131.026 52.4127,-130.309"/>
<polygon fill="black" stroke="black" stroke-width="2" points="52.6432,-126.816 42.4099,-129.56 52.121,-133.797 52.6432,-126.816"/>
</g>
<!-- 7&#45;&gt;4 -->
<g id="edge16" class="edge"><title>7&#45;&gt;4</title>
<path fill="none" stroke="black" stroke-width="2" d="M151.742,-67.4722C163.158,-74.4812 178.046,-83.6206 190.813,-91.4589"/>
<polygon fill="black" stroke="black" stroke-width="2" points="189.302,-94.6382 199.656,-96.8874 192.965,-88.6727 189.302,-94.6382"/>
</g>
<!-- 7&#45;&gt;6 -->
<g id="edge19" class="edge"><title>7&#45;&gt;6</title>
<path fill="none" stroke="black" stroke-width="2" d="M125.416,-76.2517C121.986,-84.8779 117.906,-95.1362 114.143,-104.599"/>
<polygon fill="black" stroke="black" stroke-width="2" points="110.82,-103.486 110.377,-114.071 117.324,-106.072 110.82,-103.486"/>
</g>
</g>
</svg>

