<?xml version="1.0" encoding="UTF-8" standalone="no"?>
<!DOCTYPE svg PUBLIC "-//W3C//DTD SVG 1.1//EN"
 "http://www.w3.org/Graphics/SVG/1.1/DTD/svg11.dtd">
<!-- Generated by graphviz version 2.36.0 (20140111.2315)
 -->
<!-- Title: G Pages: 1 -->
<svg width="100%" height="100%"
 viewBox="0.00 0.00 192.55 213.16" xmlns="http://www.w3.org/2000/svg" xmlns:xlink="http://www.w3.org/1999/xlink">
<g id="graph0" class="graph" transform="scale(1 1) rotate(0) translate(4 209.158)">
<title>G</title>
<!-- 0 -->
<g id="node1" class="node"><title>0</title>
<ellipse fill="cadetblue" stroke="black" cx="21.2132" cy="-70.4046" rx="21.4286" ry="21.4286"/>
<text text-anchor="middle" x="21.2132" y="-65.4046" font-family="Times New Roman,serif" font-size="20.00">2</text>
</g>
<!-- 5 -->
<g id="node6" class="node"><title>5</title>
<ellipse fill="brown" stroke="black" cx="22.8598" cy="-139.254" rx="21.4286" ry="21.4286"/>
<text text-anchor="middle" x="22.8598" y="-134.254" font-family="Times New Roman,serif" font-size="20.00">3</text>
</g>
<!-- 0&#45;&gt;5 -->
<g id="edge3" class="edge"><title>0&#45;&gt;5</title>
<path fill="none" stroke="black" stroke-width="2" d="M21.7252,-91.8117C21.8448,-96.8151 21.9748,-102.249 22.1026,-107.593"/>
<polygon fill="black" stroke="black" stroke-width="2" points="18.6043,-107.71 22.3425,-117.623 25.6023,-107.543 18.6043,-107.71"/>
</g>
<!-- 7 -->
<g id="node8" class="node"><title>7</title>
<ellipse fill="cadetblue" stroke="black" cx="92.9784" cy="-103.095" rx="21.4286" ry="21.4286"/>
<text text-anchor="middle" x="92.9784" y="-98.0948" font-family="Times New Roman,serif" font-size="20.00">2</text>
</g>
<!-- 0&#45;&gt;7 -->
<g id="edge4" class="edge"><title>0&#45;&gt;7</title>
<path fill="none" stroke="black" stroke-width="2" d="M40.8234,-79.3374C48.0224,-82.6167 56.3302,-86.401 64.169,-89.9717"/>
<polygon fill="black" stroke="black" stroke-width="2" points="62.8407,-93.2126 73.392,-94.1729 65.7425,-86.8424 62.8407,-93.2126"/>
</g>
<!-- 1 -->
<g id="node2" class="node"><title>1</title>
<ellipse fill="cadetblue" stroke="black" cx="133.575" cy="-183.945" rx="21.4286" ry="21.4286"/>
<text text-anchor="middle" x="133.575" y="-178.945" font-family="Times New Roman,serif" font-size="20.00">2</text>
</g>
<!-- 6 -->
<g id="node7" class="node"><title>6</title>
<ellipse fill="cadetblue" stroke="black" cx="163.332" cy="-101.901" rx="21.4286" ry="21.4286"/>
<text text-anchor="middle" x="163.332" y="-96.9014" font-family="Times New Roman,serif" font-size="20.00">2</text>
</g>
<!-- 1&#45;&gt;6 -->
<g id="edge7" class="edge"><title>1&#45;&gt;6</title>
<path fill="none" stroke="black" stroke-width="2" d="M140.931,-163.664C144.463,-153.928 148.761,-142.076 152.645,-131.367"/>
<polygon fill="black" stroke="black" stroke-width="2" points="155.942,-132.543 156.061,-121.948 149.361,-130.156 155.942,-132.543"/>
</g>
<!-- 1&#45;&gt;7 -->
<g id="edge8" class="edge"><title>1&#45;&gt;7</title>
<path fill="none" stroke="black" stroke-width="2" d="M123.954,-164.784C118.899,-154.716 112.607,-142.186 107.018,-131.055"/>
<polygon fill="black" stroke="black" stroke-width="2" points="110.145,-129.484 102.53,-122.118 103.89,-132.625 110.145,-129.484"/>
</g>
<!-- 2 -->
<g id="node3" class="node"><title>2</title>
<ellipse fill="cadetblue" stroke="black" cx="71.6447" cy="-35.6808" rx="21.4286" ry="21.4286"/>
<text text-anchor="middle" x="71.6447" y="-30.6808" font-family="Times New Roman,serif" font-size="20.00">2</text>
</g>
<!-- 2&#45;&gt;5 -->
<g id="edge10" class="edge"><title>2&#45;&gt;5</title>
<path fill="none" stroke="black" stroke-width="2" d="M62.4686,-55.1622C55.1094,-70.7862 44.6736,-92.942 36.3612,-110.59"/>
<polygon fill="black" stroke="black" stroke-width="2" points="33.0895,-109.322 31.9947,-119.86 39.4222,-112.305 33.0895,-109.322"/>
</g>
<!-- 2&#45;&gt;6 -->
<g id="edge11" class="edge"><title>2&#45;&gt;6</title>
<path fill="none" stroke="black" stroke-width="2" d="M88.8904,-48.1364C102.634,-58.0625 122.087,-72.1121 137.66,-83.3599"/>
<polygon fill="black" stroke="black" stroke-width="2" points="135.696,-86.2588 145.852,-89.2765 139.795,-80.5841 135.696,-86.2588"/>
</g>
<!-- 3 -->
<g id="node4" class="node"><title>3</title>
<ellipse fill="cadetblue" stroke="black" cx="74.5498" cy="-171.373" rx="21.4286" ry="21.4286"/>
<text text-anchor="middle" x="74.5498" y="-166.373" font-family="Times New Roman,serif" font-size="20.00">2</text>
</g>
<!-- 3&#45;&gt;0 -->
<g id="edge1" class="edge"><title>3&#45;&gt;0</title>
<path fill="none" stroke="black" stroke-width="2" d="M64.5176,-152.382C56.4718,-137.151 45.0624,-115.552 35.9744,-98.3481"/>
<polygon fill="black" stroke="black" stroke-width="2" points="38.9661,-96.5182 31.2004,-89.3109 32.7766,-99.7878 38.9661,-96.5182"/>
</g>
<!-- 3&#45;&gt;1 -->
<g id="edge5" class="edge"><title>3&#45;&gt;1</title>
<path fill="none" stroke="black" stroke-width="2" d="M95.5262,-175.841C97.8747,-176.341 100.302,-176.858 102.742,-177.378"/>
<polygon fill="black" stroke="black" stroke-width="2" points="102.157,-180.831 112.667,-179.491 103.615,-173.985 102.157,-180.831"/>
</g>
<!-- 4 -->
<g id="node5" class="node"><title>4</title>
<ellipse fill="cadetblue" stroke="black" cx="130.376" cy="-21.2132" rx="21.4286" ry="21.4286"/>
<text text-anchor="middle" x="130.376" y="-16.2132" font-family="Times New Roman,serif" font-size="20.00">2</text>
</g>
<!-- 4&#45;&gt;0 -->
<g id="edge2" class="edge"><title>4&#45;&gt;0</title>
<path fill="none" stroke="black" stroke-width="2" d="M114.788,-35.907C107.666,-42.1186 98.8947,-49.1037 90.2172,-54.3082 78.8435,-61.1298 64.8111,-65.0605 52.3766,-67.3254"/>
<polygon fill="black" stroke="black" stroke-width="2" points="51.751,-63.8805 42.4009,-68.8631 52.8174,-70.7988 51.751,-63.8805"/>
</g>
<!-- 4&#45;&gt;2 -->
<g id="edge9" class="edge"><title>4&#45;&gt;2</title>
<path fill="none" stroke="black" stroke-width="2" d="M109.504,-26.3547C107.167,-26.9303 104.752,-27.5253 102.324,-28.1232"/>
<polygon fill="black" stroke="black" stroke-width="2" points="101.322,-24.7655 92.4491,-30.5559 102.996,-31.5624 101.322,-24.7655"/>
</g>
<!-- 5&#45;&gt;1 -->
<g id="edge6" class="edge"><title>5&#45;&gt;1</title>
<path fill="none" stroke="black" stroke-width="2" d="M44.249,-140.297C53.6662,-141.104 64.7934,-142.534 74.5934,-145.069 87.3943,-148.38 99.8743,-155.798 110.033,-163.275"/>
<polygon fill="black" stroke="black" stroke-width="2" points="107.942,-166.083 117.977,-169.482 112.252,-160.567 107.942,-166.083"/>
</g>
<!-- 6&#45;&gt;3 -->
<g id="edge13" class="edge"><title>6&#45;&gt;3</title>
<path fill="none" stroke="black" stroke-width="2" d="M146.214,-115.296C132.988,-125.646 114.488,-140.122 99.5973,-151.774"/>
<polygon fill="black" stroke="black" stroke-width="2" points="97.033,-149.336 91.3144,-158.255 101.347,-154.849 97.033,-149.336"/>
</g>
<!-- 6&#45;&gt;4 -->
<g id="edge15" class="edge"><title>6&#45;&gt;4</title>
<path fill="none" stroke="black" stroke-width="2" d="M155.186,-81.956C151.275,-72.3803 146.514,-60.724 142.212,-50.1926"/>
<polygon fill="black" stroke="black" stroke-width="2" points="145.45,-48.8633 138.429,-40.9292 138.97,-51.5102 145.45,-48.8633"/>
</g>
<!-- 7&#45;&gt;2 -->
<g id="edge12" class="edge"><title>7&#45;&gt;2</title>
<path fill="none" stroke="black" stroke-width="2" d="M86.5776,-82.8684C84.9207,-77.6326 83.0993,-71.8773 81.3155,-66.2403"/>
<polygon fill="black" stroke="black" stroke-width="2" points="84.5427,-64.8376 78.1887,-56.3596 77.8689,-66.9496 84.5427,-64.8376"/>
</g>
<!-- 7&#45;&gt;3 -->
<g id="edge14" class="edge"><title>7&#45;&gt;3</title>
<path fill="none" stroke="black" stroke-width="2" d="M87.4492,-123.581C86.0179,-128.883 84.4446,-134.713 82.9037,-140.422"/>
<polygon fill="black" stroke="black" stroke-width="2" points="79.4295,-139.863 80.2027,-150.429 86.1876,-141.687 79.4295,-139.863"/>
</g>
<!-- 7&#45;&gt;4 -->
<g id="edge16" class="edge"><title>7&#45;&gt;4</title>
<path fill="none" stroke="black" stroke-width="2" d="M101.841,-83.69C106.418,-73.6678 112.095,-61.2386 117.177,-50.1119"/>
<polygon fill="black" stroke="black" stroke-width="2" points="120.476,-51.3128 121.447,-40.7625 114.109,-48.4046 120.476,-51.3128"/>
</g>
<!-- 7&#45;&gt;5 -->
<g id="edge17" class="edge"><title>7&#45;&gt;5</title>
<path fill="none" stroke="black" stroke-width="2" d="M73.8182,-112.976C66.7843,-116.603 58.6671,-120.789 51.0082,-124.738"/>
<polygon fill="black" stroke="black" stroke-width="2" points="49.2804,-121.691 41.9968,-129.386 52.4888,-127.913 49.2804,-121.691"/>
</g>
</g>
</svg>

