<?xml version="1.0" encoding="UTF-8" standalone="no"?>
<!DOCTYPE svg PUBLIC "-//W3C//DTD SVG 1.1//EN"
 "http://www.w3.org/Graphics/SVG/1.1/DTD/svg11.dtd">
<!-- Generated by graphviz version 2.36.0 (20140111.2315)
 -->
<!-- Title: G Pages: 1 -->
<svg width="100%" height="100%"
 viewBox="0.00 0.00 227.17 263.76" xmlns="http://www.w3.org/2000/svg" xmlns:xlink="http://www.w3.org/1999/xlink">
<g id="graph0" class="graph" transform="scale(1 1) rotate(0) translate(4 259.765)">
<title>G</title>
<!-- 0 -->
<g id="node1" class="node"><title>0</title>
<ellipse fill="cadetblue" stroke="black" cx="133.996" cy="-157.302" rx="21.4286" ry="21.4286"/>
<text text-anchor="middle" x="133.996" y="-152.302" font-family="Times New Roman,serif" font-size="20.00">2</text>
</g>
<!-- 5 -->
<g id="node6" class="node"><title>5</title>
<ellipse fill="cadetblue" stroke="black" cx="21.2132" cy="-139.002" rx="21.4286" ry="21.4286"/>
<text text-anchor="middle" x="21.2132" y="-134.002" font-family="Times New Roman,serif" font-size="20.00">2</text>
</g>
<!-- 0&#45;&gt;5 -->
<g id="edge3" class="edge"><title>0&#45;&gt;5</title>
<path fill="none" stroke="black" stroke-width="2" d="M113.047,-153.902C96.0622,-151.147 71.8634,-147.22 52.57,-144.09"/>
<polygon fill="black" stroke="black" stroke-width="2" points="52.8646,-140.592 42.4331,-142.445 51.7434,-147.502 52.8646,-140.592"/>
</g>
<!-- 6 -->
<g id="node7" class="node"><title>6</title>
<ellipse fill="cadetblue" stroke="black" cx="189.525" cy="-94.2237" rx="21.4286" ry="21.4286"/>
<text text-anchor="middle" x="189.525" y="-89.2237" font-family="Times New Roman,serif" font-size="20.00">2</text>
</g>
<!-- 0&#45;&gt;6 -->
<g id="edge4" class="edge"><title>0&#45;&gt;6</title>
<path fill="none" stroke="black" stroke-width="2" d="M148.296,-141.057C154.432,-134.088 161.725,-125.803 168.459,-118.153"/>
<polygon fill="black" stroke="black" stroke-width="2" points="171.485,-120.013 175.466,-110.194 166.231,-115.388 171.485,-120.013"/>
</g>
<!-- 1 -->
<g id="node2" class="node"><title>1</title>
<ellipse fill="cadetblue" stroke="black" cx="50.3737" cy="-228.16" rx="21.4286" ry="21.4286"/>
<text text-anchor="middle" x="50.3737" y="-223.16" font-family="Times New Roman,serif" font-size="20.00">2</text>
</g>
<!-- 1&#45;&gt;5 -->
<g id="edge7" class="edge"><title>1&#45;&gt;5</title>
<path fill="none" stroke="black" stroke-width="2" d="M43.7567,-207.929C40.0176,-196.496 35.2706,-181.982 31.0979,-169.225"/>
<polygon fill="black" stroke="black" stroke-width="2" points="34.3402,-167.879 27.9049,-159.462 27.687,-170.055 34.3402,-167.879"/>
</g>
<!-- 7 -->
<g id="node8" class="node"><title>7</title>
<ellipse fill="brown" stroke="black" cx="96.2125" cy="-106.87" rx="21.4286" ry="21.4286"/>
<text text-anchor="middle" x="96.2125" y="-101.87" font-family="Times New Roman,serif" font-size="20.00">3</text>
</g>
<!-- 1&#45;&gt;7 -->
<g id="edge8" class="edge"><title>1&#45;&gt;7</title>
<path fill="none" stroke="black" stroke-width="2" d="M57.9431,-208.131C65.3083,-188.643 76.5875,-158.798 84.9953,-136.551"/>
<polygon fill="black" stroke="black" stroke-width="2" points="88.3706,-137.52 88.6319,-126.928 81.8227,-135.045 88.3706,-137.52"/>
</g>
<!-- 2 -->
<g id="node3" class="node"><title>2</title>
<ellipse fill="cadetblue" stroke="black" cx="80.3028" cy="-21.2132" rx="21.4286" ry="21.4286"/>
<text text-anchor="middle" x="80.3028" y="-16.2132" font-family="Times New Roman,serif" font-size="20.00">2</text>
</g>
<!-- 2&#45;&gt;7 -->
<g id="edge11" class="edge"><title>2&#45;&gt;7</title>
<path fill="none" stroke="black" stroke-width="2" d="M84.2356,-42.3868C86.1237,-52.5522 88.422,-64.9263 90.4985,-76.1061"/>
<polygon fill="black" stroke="black" stroke-width="2" points="87.0577,-76.7473 92.325,-85.94 93.94,-75.469 87.0577,-76.7473"/>
</g>
<!-- 3 -->
<g id="node4" class="node"><title>3</title>
<ellipse fill="cadetblue" stroke="black" cx="124.72" cy="-234.551" rx="21.4286" ry="21.4286"/>
<text text-anchor="middle" x="124.72" y="-229.551" font-family="Times New Roman,serif" font-size="20.00">2</text>
</g>
<!-- 3&#45;&gt;0 -->
<g id="edge1" class="edge"><title>3&#45;&gt;0</title>
<path fill="none" stroke="black" stroke-width="2" d="M127.255,-213.443C128.175,-205.778 129.236,-196.947 130.239,-188.591"/>
<polygon fill="black" stroke="black" stroke-width="2" points="133.747,-188.731 131.465,-178.385 126.797,-187.896 133.747,-188.731"/>
</g>
<!-- 3&#45;&gt;1 -->
<g id="edge5" class="edge"><title>3&#45;&gt;1</title>
<path fill="none" stroke="black" stroke-width="2" d="M103.216,-232.703C96.4537,-232.121 88.8444,-231.467 81.5513,-230.84"/>
<polygon fill="black" stroke="black" stroke-width="2" points="81.8358,-227.352 71.5728,-229.982 81.2362,-234.326 81.8358,-227.352"/>
</g>
<!-- 4 -->
<g id="node5" class="node"><title>4</title>
<ellipse fill="cadetblue" stroke="black" cx="197.961" cy="-195.205" rx="21.4286" ry="21.4286"/>
<text text-anchor="middle" x="197.961" y="-190.205" font-family="Times New Roman,serif" font-size="20.00">2</text>
</g>
<!-- 4&#45;&gt;0 -->
<g id="edge2" class="edge"><title>4&#45;&gt;0</title>
<path fill="none" stroke="black" stroke-width="2" d="M179.46,-184.242C173.808,-180.892 167.468,-177.136 161.358,-173.515"/>
<polygon fill="black" stroke="black" stroke-width="2" points="163.065,-170.458 152.678,-168.371 159.496,-176.48 163.065,-170.458"/>
</g>
<!-- 4&#45;&gt;1 -->
<g id="edge6" class="edge"><title>4&#45;&gt;1</title>
<path fill="none" stroke="black" stroke-width="2" d="M176.725,-198.497C162.064,-200.891 142.152,-204.378 124.764,-208.247 110.101,-211.51 93.9785,-215.744 80.5029,-219.469"/>
<polygon fill="black" stroke="black" stroke-width="2" points="79.4663,-216.125 70.7819,-222.194 81.3555,-222.865 79.4663,-216.125"/>
</g>
<!-- 5&#45;&gt;2 -->
<g id="edge9" class="edge"><title>5&#45;&gt;2</title>
<path fill="none" stroke="black" stroke-width="2" d="M30.8385,-119.815C40.4101,-100.735 55.2028,-71.2474 66.1194,-49.4864"/>
<polygon fill="black" stroke="black" stroke-width="2" points="69.3261,-50.8998 70.6817,-40.392 63.0692,-47.7609 69.3261,-50.8998"/>
</g>
<!-- 5&#45;&gt;3 -->
<g id="edge12" class="edge"><title>5&#45;&gt;3</title>
<path fill="none" stroke="black" stroke-width="2" d="M36.9337,-153.514C54.1086,-169.369 81.7939,-194.925 101.479,-213.097"/>
<polygon fill="black" stroke="black" stroke-width="2" points="99.13,-215.692 108.852,-219.903 103.878,-210.548 99.13,-215.692"/>
</g>
<!-- 5&#45;&gt;7 -->
<g id="edge16" class="edge"><title>5&#45;&gt;7</title>
<path fill="none" stroke="black" stroke-width="2" d="M40.9184,-130.56C49.0139,-127.092 58.5498,-123.006 67.4021,-119.213"/>
<polygon fill="black" stroke="black" stroke-width="2" points="68.8254,-122.411 76.639,-115.256 66.0687,-115.977 68.8254,-122.411"/>
</g>
<!-- 6&#45;&gt;2 -->
<g id="edge10" class="edge"><title>6&#45;&gt;2</title>
<path fill="none" stroke="black" stroke-width="2" d="M171.49,-82.1675C153.755,-70.3131 126.498,-52.0927 106.401,-38.6585"/>
<polygon fill="black" stroke="black" stroke-width="2" points="108.262,-35.6926 98.0031,-33.0451 104.372,-41.5122 108.262,-35.6926"/>
</g>
<!-- 6&#45;&gt;3 -->
<g id="edge13" class="edge"><title>6&#45;&gt;3</title>
<path fill="none" stroke="black" stroke-width="2" d="M180.82,-113.748C173.397,-130.329 162.401,-154.735 152.579,-175.919 147.993,-185.811 142.894,-196.6 138.325,-206.196"/>
<polygon fill="black" stroke="black" stroke-width="2" points="135.121,-204.784 133.972,-215.317 141.438,-207.8 135.121,-204.784"/>
</g>
<!-- 6&#45;&gt;4 -->
<g id="edge14" class="edge"><title>6&#45;&gt;4</title>
<path fill="none" stroke="black" stroke-width="2" d="M191.314,-115.639C192.478,-129.563 194.014,-147.962 195.317,-163.559"/>
<polygon fill="black" stroke="black" stroke-width="2" points="191.854,-164.146 196.175,-173.82 198.83,-163.564 191.854,-164.146"/>
</g>
<!-- 7&#45;&gt;4 -->
<g id="edge15" class="edge"><title>7&#45;&gt;4</title>
<path fill="none" stroke="black" stroke-width="2" d="M115.655,-115.543C127.102,-121.189 141.472,-129.254 152.613,-138.719 162.947,-147.497 172.619,-158.899 180.355,-169.159"/>
<polygon fill="black" stroke="black" stroke-width="2" points="177.656,-171.399 186.369,-177.426 183.317,-167.281 177.656,-171.399"/>
</g>
<!-- 7&#45;&gt;6 -->
<g id="edge17" class="edge"><title>7&#45;&gt;6</title>
<path fill="none" stroke="black" stroke-width="2" d="M117.387,-104C129.437,-102.367 144.758,-100.291 158.178,-98.4721"/>
<polygon fill="black" stroke="black" stroke-width="2" points="158.996,-101.893 168.435,-97.082 158.056,-94.9568 158.996,-101.893"/>
</g>
</g>
</svg>

