<?xml version="1.0" encoding="UTF-8" standalone="no"?>
<!DOCTYPE svg PUBLIC "-//W3C//DTD SVG 1.1//EN"
 "http://www.w3.org/Graphics/SVG/1.1/DTD/svg11.dtd">
<!-- Generated by graphviz version 2.36.0 (20140111.2315)
 -->
<!-- Title: G Pages: 1 -->
<svg width="100%" height="100%"
 viewBox="0.00 0.00 240.92 206.53" xmlns="http://www.w3.org/2000/svg" xmlns:xlink="http://www.w3.org/1999/xlink">
<g id="graph0" class="graph" transform="scale(1 1) rotate(0) translate(4 202.534)">
<title>G</title>
<!-- 0 -->
<g id="node1" class="node"><title>0</title>
<ellipse fill="cadetblue" stroke="black" cx="21.2132" cy="-21.2132" rx="21.4286" ry="21.4286"/>
<text text-anchor="middle" x="21.2132" y="-16.2132" font-family="Times New Roman,serif" font-size="20.00">2</text>
</g>
<!-- 6 -->
<g id="node7" class="node"><title>6</title>
<ellipse fill="cadetblue" stroke="black" cx="81.6364" cy="-78.2555" rx="21.4286" ry="21.4286"/>
<text text-anchor="middle" x="81.6364" y="-73.2555" font-family="Times New Roman,serif" font-size="20.00">2</text>
</g>
<!-- 0&#45;&gt;6 -->
<g id="edge3" class="edge"><title>0&#45;&gt;6</title>
<path fill="none" stroke="black" stroke-width="2" d="M36.7737,-35.903C43.3474,-42.1089 51.1423,-49.4676 58.3752,-56.2958"/>
<polygon fill="black" stroke="black" stroke-width="2" points="56.2444,-59.0976 65.9187,-63.4173 61.0497,-54.0075 56.2444,-59.0976"/>
</g>
<!-- 7 -->
<g id="node8" class="node"><title>7</title>
<ellipse fill="brown" stroke="black" cx="106.42" cy="-27.8241" rx="21.4286" ry="21.4286"/>
<text text-anchor="middle" x="106.42" y="-22.8241" font-family="Times New Roman,serif" font-size="20.00">3</text>
</g>
<!-- 0&#45;&gt;7 -->
<g id="edge4" class="edge"><title>0&#45;&gt;7</title>
<path fill="none" stroke="black" stroke-width="2" d="M42.7145,-22.8814C52.4759,-23.6388 64.2148,-24.5495 74.9417,-25.3818"/>
<polygon fill="black" stroke="black" stroke-width="2" points="74.9799,-28.8952 85.2207,-26.1793 75.5215,-21.9162 74.9799,-28.8952"/>
</g>
<!-- 1 -->
<g id="node2" class="node"><title>1</title>
<ellipse fill="cadetblue" stroke="black" cx="92.2941" cy="-172.829" rx="21.4286" ry="21.4286"/>
<text text-anchor="middle" x="92.2941" y="-167.829" font-family="Times New Roman,serif" font-size="20.00">2</text>
</g>
<!-- 1&#45;&gt;6 -->
<g id="edge7" class="edge"><title>1&#45;&gt;6</title>
<path fill="none" stroke="black" stroke-width="2" d="M89.8757,-151.369C88.4858,-139.035 86.7148,-123.32 85.1712,-109.623"/>
<polygon fill="black" stroke="black" stroke-width="2" points="88.6431,-109.176 84.0452,-99.6309 81.6872,-109.96 88.6431,-109.176"/>
</g>
<!-- 1&#45;&gt;7 -->
<g id="edge8" class="edge"><title>1&#45;&gt;7</title>
<path fill="none" stroke="black" stroke-width="2" d="M96.9503,-151.938C100.913,-132.871 106.227,-103.85 107.941,-78.2869 108.346,-72.2363 108.422,-65.7702 108.316,-59.5553"/>
<polygon fill="black" stroke="black" stroke-width="2" points="111.81,-59.3336 107.992,-49.4507 104.814,-59.5577 111.81,-59.3336"/>
</g>
<!-- 2 -->
<g id="node3" class="node"><title>2</title>
<ellipse fill="cadetblue" stroke="black" cx="211.703" cy="-61.5058" rx="21.4286" ry="21.4286"/>
<text text-anchor="middle" x="211.703" y="-56.5058" font-family="Times New Roman,serif" font-size="20.00">2</text>
</g>
<!-- 5 -->
<g id="node6" class="node"><title>5</title>
<ellipse fill="cadetblue" stroke="black" cx="170.077" cy="-177.321" rx="21.4286" ry="21.4286"/>
<text text-anchor="middle" x="170.077" y="-172.321" font-family="Times New Roman,serif" font-size="20.00">2</text>
</g>
<!-- 2&#45;&gt;5 -->
<g id="edge10" class="edge"><title>2&#45;&gt;5</title>
<path fill="none" stroke="black" stroke-width="2" d="M204.452,-81.6792C197.927,-99.8357 188.25,-126.758 180.825,-147.417"/>
<polygon fill="black" stroke="black" stroke-width="2" points="177.473,-146.396 177.384,-156.99 184.06,-148.763 177.473,-146.396"/>
</g>
<!-- 2&#45;&gt;7 -->
<g id="edge12" class="edge"><title>2&#45;&gt;7</title>
<path fill="none" stroke="black" stroke-width="2" d="M191.404,-55.0116C175.819,-50.0258 154.06,-43.0648 136.461,-37.4345"/>
<polygon fill="black" stroke="black" stroke-width="2" points="137.248,-34.0118 126.657,-34.2983 135.115,-40.679 137.248,-34.0118"/>
</g>
<!-- 3 -->
<g id="node4" class="node"><title>3</title>
<ellipse fill="cadetblue" stroke="black" cx="23.1395" cy="-126.63" rx="21.4286" ry="21.4286"/>
<text text-anchor="middle" x="23.1395" y="-121.63" font-family="Times New Roman,serif" font-size="20.00">2</text>
</g>
<!-- 3&#45;&gt;0 -->
<g id="edge1" class="edge"><title>3&#45;&gt;0</title>
<path fill="none" stroke="black" stroke-width="2" d="M22.7497,-105.298C22.4729,-90.1517 22.0968,-69.5713 21.786,-52.5625"/>
<polygon fill="black" stroke="black" stroke-width="2" points="25.2846,-52.4486 21.6024,-42.5142 18.2858,-52.5765 25.2846,-52.4486"/>
</g>
<!-- 3&#45;&gt;5 -->
<g id="edge13" class="edge"><title>3&#45;&gt;5</title>
<path fill="none" stroke="black" stroke-width="2" d="M43.9087,-132.028C57.7499,-135.764 76.2879,-141.035 92.3899,-146.525 108.68,-152.079 126.554,-159.098 141.046,-165.032"/>
<polygon fill="black" stroke="black" stroke-width="2" points="139.899,-168.346 150.478,-168.936 142.576,-161.878 139.899,-168.346"/>
</g>
<!-- 4 -->
<g id="node5" class="node"><title>4</title>
<ellipse fill="cadetblue" stroke="black" cx="147.935" cy="-90.781" rx="21.4286" ry="21.4286"/>
<text text-anchor="middle" x="147.935" y="-85.781" font-family="Times New Roman,serif" font-size="20.00">2</text>
</g>
<!-- 4&#45;&gt;0 -->
<g id="edge2" class="edge"><title>4&#45;&gt;0</title>
<path fill="none" stroke="black" stroke-width="2" d="M130.154,-78.422C121.327,-72.4836 110.405,-65.4262 100.259,-59.6777 84.0285,-50.4825 65.2776,-41.2996 50.1127,-34.2133"/>
<polygon fill="black" stroke="black" stroke-width="2" points="51.2738,-30.8943 40.7276,-29.8802 48.3395,-37.2497 51.2738,-30.8943"/>
</g>
<!-- 4&#45;&gt;1 -->
<g id="edge5" class="edge"><title>4&#45;&gt;1</title>
<path fill="none" stroke="black" stroke-width="2" d="M135.862,-108.584C128.352,-119.659 118.559,-134.099 110.16,-146.484"/>
<polygon fill="black" stroke="black" stroke-width="2" points="107.06,-144.82 104.344,-155.061 112.853,-148.749 107.06,-144.82"/>
</g>
<!-- 4&#45;&gt;2 -->
<g id="edge9" class="edge"><title>4&#45;&gt;2</title>
<path fill="none" stroke="black" stroke-width="2" d="M167.414,-81.8384C172.359,-79.5683 177.775,-77.0818 183.07,-74.6508"/>
<polygon fill="black" stroke="black" stroke-width="2" points="184.716,-77.7467 192.344,-70.3936 181.795,-71.3851 184.716,-77.7467"/>
</g>
<!-- 5&#45;&gt;1 -->
<g id="edge6" class="edge"><title>5&#45;&gt;1</title>
<path fill="none" stroke="black" stroke-width="2" d="M148.822,-176.094C141.02,-175.643 132.015,-175.123 123.519,-174.633"/>
<polygon fill="black" stroke="black" stroke-width="2" points="123.708,-171.138 113.523,-174.055 123.304,-178.126 123.708,-171.138"/>
</g>
<!-- 5&#45;&gt;4 -->
<g id="edge16" class="edge"><title>5&#45;&gt;4</title>
<path fill="none" stroke="black" stroke-width="2" d="M164.717,-156.372C162.024,-145.849 158.711,-132.899 155.742,-121.294"/>
<polygon fill="black" stroke="black" stroke-width="2" points="159.115,-120.357 153.246,-111.537 152.334,-122.093 159.115,-120.357"/>
</g>
<!-- 6&#45;&gt;2 -->
<g id="edge11" class="edge"><title>6&#45;&gt;2</title>
<path fill="none" stroke="black" stroke-width="2" d="M102.479,-73.0612C115.528,-70.0288 132.741,-66.4267 148.195,-64.4779 158.599,-63.166 170.027,-62.4185 180.286,-61.9971"/>
<polygon fill="black" stroke="black" stroke-width="2" points="180.581,-65.4894 190.462,-61.6661 180.354,-58.4931 180.581,-65.4894"/>
</g>
<!-- 6&#45;&gt;3 -->
<g id="edge14" class="edge"><title>6&#45;&gt;3</title>
<path fill="none" stroke="black" stroke-width="2" d="M65.03,-91.9884C59.5496,-96.5205 53.3358,-101.659 47.4039,-106.565"/>
<polygon fill="black" stroke="black" stroke-width="2" points="45.0608,-103.96 39.5849,-113.031 49.5218,-109.355 45.0608,-103.96"/>
</g>
<!-- 7&#45;&gt;3 -->
<g id="edge15" class="edge"><title>7&#45;&gt;3</title>
<path fill="none" stroke="black" stroke-width="2" d="M88.2343,-38.7675C79.9281,-44.3357 70.3422,-51.6183 63.0586,-59.6334 52.7549,-70.972 43.7607,-85.3766 36.9314,-97.9215"/>
<polygon fill="black" stroke="black" stroke-width="2" points="33.6794,-96.5874 32.1452,-107.071 39.8819,-99.8322 33.6794,-96.5874"/>
</g>
<!-- 7&#45;&gt;4 -->
<g id="edge17" class="edge"><title>7&#45;&gt;4</title>
<path fill="none" stroke="black" stroke-width="2" d="M118.206,-45.6966C121.942,-51.3632 126.159,-57.7581 130.218,-63.9127"/>
<polygon fill="black" stroke="black" stroke-width="2" points="127.549,-66.2236 135.976,-72.6451 133.393,-62.37 127.549,-66.2236"/>
</g>
</g>
</svg>

