<?xml version="1.0" encoding="UTF-8" standalone="no"?>
<!DOCTYPE svg PUBLIC "-//W3C//DTD SVG 1.1//EN"
 "http://www.w3.org/Graphics/SVG/1.1/DTD/svg11.dtd">
<!-- Generated by graphviz version 2.36.0 (20140111.2315)
 -->
<!-- Title: G Pages: 1 -->
<svg width="100%" height="100%"
 viewBox="0.00 0.00 214.25 205.19" xmlns="http://www.w3.org/2000/svg" xmlns:xlink="http://www.w3.org/1999/xlink">
<g id="graph0" class="graph" transform="scale(1 1) rotate(0) translate(4 201.193)">
<title>G</title>
<!-- 0 -->
<g id="node1" class="node"><title>0</title>
<ellipse fill="cadetblue" stroke="black" cx="97.1374" cy="-175.98" rx="21.4286" ry="21.4286"/>
<text text-anchor="middle" x="97.1374" y="-170.98" font-family="Times New Roman,serif" font-size="20.00">2</text>
</g>
<!-- 5 -->
<g id="node6" class="node"><title>5</title>
<ellipse fill="cadetblue" stroke="black" cx="21.2132" cy="-101.323" rx="21.4286" ry="21.4286"/>
<text text-anchor="middle" x="21.2132" y="-96.3235" font-family="Times New Roman,serif" font-size="20.00">2</text>
</g>
<!-- 0&#45;&gt;5 -->
<g id="edge3" class="edge"><title>0&#45;&gt;5</title>
<path fill="none" stroke="black" stroke-width="2" d="M81.773,-160.872C70.8645,-150.146 56.042,-135.571 43.7918,-123.525"/>
<polygon fill="black" stroke="black" stroke-width="2" points="46.1391,-120.925 36.5547,-116.409 41.2312,-125.916 46.1391,-120.925"/>
</g>
<!-- 7 -->
<g id="node8" class="node"><title>7</title>
<ellipse fill="brown" stroke="black" cx="114.543" cy="-101.413" rx="21.4286" ry="21.4286"/>
<text text-anchor="middle" x="114.543" y="-96.4132" font-family="Times New Roman,serif" font-size="20.00">3</text>
</g>
<!-- 0&#45;&gt;7 -->
<g id="edge4" class="edge"><title>0&#45;&gt;7</title>
<path fill="none" stroke="black" stroke-width="2" d="M101.986,-155.209C103.665,-148.018 105.583,-139.799 107.406,-131.988"/>
<polygon fill="black" stroke="black" stroke-width="2" points="110.856,-132.607 109.721,-122.073 104.039,-131.015 110.856,-132.607"/>
</g>
<!-- 1 -->
<g id="node2" class="node"><title>1</title>
<ellipse fill="cadetblue" stroke="black" cx="106.445" cy="-30.1048" rx="21.4286" ry="21.4286"/>
<text text-anchor="middle" x="106.445" y="-25.1048" font-family="Times New Roman,serif" font-size="20.00">2</text>
</g>
<!-- 6 -->
<g id="node7" class="node"><title>6</title>
<ellipse fill="cadetblue" stroke="black" cx="172.216" cy="-38.856" rx="21.4286" ry="21.4286"/>
<text text-anchor="middle" x="172.216" y="-33.856" font-family="Times New Roman,serif" font-size="20.00">2</text>
</g>
<!-- 1&#45;&gt;6 -->
<g id="edge7" class="edge"><title>1&#45;&gt;6</title>
<path fill="none" stroke="black" stroke-width="2" d="M127.618,-32.9219C131.842,-33.484 136.364,-34.0856 140.847,-34.6822"/>
<polygon fill="black" stroke="black" stroke-width="2" points="140.709,-38.1946 151.084,-36.0442 141.633,-31.2557 140.709,-38.1946"/>
</g>
<!-- 1&#45;&gt;7 -->
<g id="edge8" class="edge"><title>1&#45;&gt;7</title>
<path fill="none" stroke="black" stroke-width="2" d="M108.875,-51.4997C109.532,-57.2815 110.256,-63.6623 110.962,-69.8742"/>
<polygon fill="black" stroke="black" stroke-width="2" points="107.509,-70.4922 112.115,-80.0334 114.465,-69.7023 107.509,-70.4922"/>
</g>
<!-- 2 -->
<g id="node3" class="node"><title>2</title>
<ellipse fill="cadetblue" stroke="black" cx="56.014" cy="-21.2132" rx="21.4286" ry="21.4286"/>
<text text-anchor="middle" x="56.014" y="-16.2132" font-family="Times New Roman,serif" font-size="20.00">2</text>
</g>
<!-- 2&#45;&gt;5 -->
<g id="edge9" class="edge"><title>2&#45;&gt;5</title>
<path fill="none" stroke="black" stroke-width="2" d="M47.4115,-41.0158C43.2815,-50.5229 38.2542,-62.0957 33.712,-72.5516"/>
<polygon fill="black" stroke="black" stroke-width="2" points="30.491,-71.1822 29.7167,-81.7487 36.9113,-73.9713 30.491,-71.1822"/>
</g>
<!-- 3 -->
<g id="node4" class="node"><title>3</title>
<ellipse fill="cadetblue" stroke="black" cx="182.209" cy="-160.821" rx="21.4286" ry="21.4286"/>
<text text-anchor="middle" x="182.209" y="-155.821" font-family="Times New Roman,serif" font-size="20.00">2</text>
</g>
<!-- 3&#45;&gt;0 -->
<g id="edge1" class="edge"><title>3&#45;&gt;0</title>
<path fill="none" stroke="black" stroke-width="2" d="M161.18,-164.568C151.262,-166.335 139.226,-168.48 128.278,-170.431"/>
<polygon fill="black" stroke="black" stroke-width="2" points="127.45,-167.023 118.219,-172.223 128.678,-173.914 127.45,-167.023"/>
</g>
<!-- 3&#45;&gt;7 -->
<g id="edge14" class="edge"><title>3&#45;&gt;7</title>
<path fill="none" stroke="black" stroke-width="2" d="M166.173,-146.742C157.951,-139.524 147.769,-130.584 138.626,-122.557"/>
<polygon fill="black" stroke="black" stroke-width="2" points="140.758,-119.771 130.934,-115.804 136.14,-125.031 140.758,-119.771"/>
</g>
<!-- 4 -->
<g id="node5" class="node"><title>4</title>
<ellipse fill="cadetblue" stroke="black" cx="185.038" cy="-102.779" rx="21.4286" ry="21.4286"/>
<text text-anchor="middle" x="185.038" y="-97.779" font-family="Times New Roman,serif" font-size="20.00">2</text>
</g>
<!-- 4&#45;&gt;0 -->
<g id="edge2" class="edge"><title>4&#45;&gt;0</title>
<path fill="none" stroke="black" stroke-width="2" d="M168.505,-116.548C155.245,-127.59 136.442,-143.248 121.464,-155.721"/>
<polygon fill="black" stroke="black" stroke-width="2" points="119.041,-153.184 113.597,-162.273 123.521,-158.563 119.041,-153.184"/>
</g>
<!-- 4&#45;&gt;1 -->
<g id="edge5" class="edge"><title>4&#45;&gt;1</title>
<path fill="none" stroke="black" stroke-width="2" d="M169.134,-88.0723C157.768,-77.5621 142.296,-63.2559 129.568,-51.4858"/>
<polygon fill="black" stroke="black" stroke-width="2" points="131.776,-48.7611 122.058,-44.5416 127.024,-53.9006 131.776,-48.7611"/>
</g>
<!-- 4&#45;&gt;3 -->
<g id="edge12" class="edge"><title>4&#45;&gt;3</title>
<path fill="none" stroke="black" stroke-width="2" d="M184.001,-124.062C183.916,-125.797 183.83,-127.572 183.743,-129.359"/>
<polygon fill="black" stroke="black" stroke-width="2" points="180.238,-129.382 183.246,-139.54 187.229,-129.722 180.238,-129.382"/>
</g>
<!-- 5&#45;&gt;1 -->
<g id="edge6" class="edge"><title>5&#45;&gt;1</title>
<path fill="none" stroke="black" stroke-width="2" d="M37.6468,-87.5918C50.2634,-77.0496 67.8786,-62.3306 82.126,-50.4257"/>
<polygon fill="black" stroke="black" stroke-width="2" points="84.6327,-52.8922 90.0623,-43.7943 80.1443,-47.5206 84.6327,-52.8922"/>
</g>
<!-- 6&#45;&gt;2 -->
<g id="edge10" class="edge"><title>6&#45;&gt;2</title>
<path fill="none" stroke="black" stroke-width="2" d="M156.185,-24.9421C143.598,-15.4172 125.143,-4.40041 106.541,-3.80057 99.3137,-3.5675 91.8037,-5.09025 84.8532,-7.32132"/>
<polygon fill="black" stroke="black" stroke-width="2" points="83.2893,-4.17048 75.1683,-10.9749 85.76,-10.7199 83.2893,-4.17048"/>
</g>
<!-- 6&#45;&gt;3 -->
<g id="edge13" class="edge"><title>6&#45;&gt;3</title>
<path fill="none" stroke="black" stroke-width="2" d="M164.792,-59.0229C161.009,-71.4501 157.449,-87.7751 158.735,-102.519 159.644,-112.926 163.156,-123.704 167.197,-133.119"/>
<polygon fill="black" stroke="black" stroke-width="2" points="164.112,-134.784 171.513,-142.364 170.455,-131.823 164.112,-134.784"/>
</g>
<!-- 6&#45;&gt;4 -->
<g id="edge15" class="edge"><title>6&#45;&gt;4</title>
<path fill="none" stroke="black" stroke-width="2" d="M176.415,-59.7868C177.182,-63.61 177.997,-67.6732 178.808,-71.7172"/>
<polygon fill="black" stroke="black" stroke-width="2" points="175.388,-72.466 180.787,-81.5824 182.251,-71.0893 175.388,-72.466"/>
</g>
<!-- 7&#45;&gt;2 -->
<g id="edge11" class="edge"><title>7&#45;&gt;2</title>
<path fill="none" stroke="black" stroke-width="2" d="M101.843,-84.011C93.9434,-73.1862 83.6423,-59.071 74.8077,-46.9653"/>
<polygon fill="black" stroke="black" stroke-width="2" points="77.4114,-44.5959 68.6892,-38.5815 71.7571,-48.7224 77.4114,-44.5959"/>
</g>
<!-- 7&#45;&gt;4 -->
<g id="edge16" class="edge"><title>7&#45;&gt;4</title>
<path fill="none" stroke="black" stroke-width="2" d="M136.077,-101.83C141.543,-101.936 147.531,-102.052 153.385,-102.166"/>
<polygon fill="black" stroke="black" stroke-width="2" points="153.57,-105.67 163.636,-102.364 153.706,-98.6712 153.57,-105.67"/>
</g>
<!-- 7&#45;&gt;6 -->
<g id="edge17" class="edge"><title>7&#45;&gt;6</title>
<path fill="none" stroke="black" stroke-width="2" d="M129.097,-85.6274C135.604,-78.5693 143.409,-70.1031 150.579,-62.3252"/>
<polygon fill="black" stroke="black" stroke-width="2" points="153.262,-64.579 157.467,-54.8544 148.115,-59.8343 153.262,-64.579"/>
</g>
</g>
</svg>

