<?xml version="1.0" encoding="UTF-8" standalone="no"?>
<!DOCTYPE svg PUBLIC "-//W3C//DTD SVG 1.1//EN"
 "http://www.w3.org/Graphics/SVG/1.1/DTD/svg11.dtd">
<!-- Generated by graphviz version 2.36.0 (20140111.2315)
 -->
<!-- Title: G Pages: 1 -->
<svg width="100%" height="100%"
 viewBox="0.00 0.00 262.68 277.53" xmlns="http://www.w3.org/2000/svg" xmlns:xlink="http://www.w3.org/1999/xlink">
<g id="graph0" class="graph" transform="scale(1 1) rotate(0) translate(4 273.528)">
<title>G</title>
<!-- 0 -->
<g id="node1" class="node"><title>0</title>
<ellipse fill="cadetblue" stroke="black" cx="123.501" cy="-148.776" rx="21.4286" ry="21.4286"/>
<text text-anchor="middle" x="123.501" y="-143.776" font-family="Times New Roman,serif" font-size="20.00">2</text>
</g>
<!-- 3 -->
<g id="node4" class="node"><title>3</title>
<ellipse fill="brown" stroke="black" cx="172.564" cy="-248.314" rx="21.4286" ry="21.4286"/>
<text text-anchor="middle" x="172.564" y="-243.314" font-family="Times New Roman,serif" font-size="20.00">3</text>
</g>
<!-- 0&#45;&gt;3 -->
<g id="edge1" class="edge"><title>0&#45;&gt;3</title>
<path fill="none" stroke="black" stroke-width="2" d="M132.961,-167.968C140.223,-182.702 150.363,-203.274 158.565,-219.913"/>
<polygon fill="black" stroke="black" stroke-width="2" points="155.573,-221.759 163.133,-229.181 161.851,-218.664 155.573,-221.759"/>
</g>
<!-- 5 -->
<g id="node6" class="node"><title>5</title>
<ellipse fill="cadetblue" stroke="black" cx="47.0918" cy="-100.965" rx="21.4286" ry="21.4286"/>
<text text-anchor="middle" x="47.0918" y="-95.965" font-family="Times New Roman,serif" font-size="20.00">2</text>
</g>
<!-- 0&#45;&gt;5 -->
<g id="edge3" class="edge"><title>0&#45;&gt;5</title>
<path fill="none" stroke="black" stroke-width="2" d="M105.393,-137.446C96.0406,-131.594 84.442,-124.336 74.059,-117.839"/>
<polygon fill="black" stroke="black" stroke-width="2" points="75.6683,-114.717 65.3345,-112.38 71.9551,-120.651 75.6683,-114.717"/>
</g>
<!-- 6 -->
<g id="node7" class="node"><title>6</title>
<ellipse fill="dodgerblue" stroke="black" cx="105.95" cy="-211.252" rx="21.4286" ry="21.4286"/>
<text text-anchor="middle" x="105.95" y="-206.252" font-family="Times New Roman,serif" font-size="20.00">4</text>
</g>
<!-- 0&#45;&gt;6 -->
<g id="edge4" class="edge"><title>0&#45;&gt;6</title>
<path fill="none" stroke="black" stroke-width="2" d="M117.754,-169.233C116.704,-172.97 115.589,-176.941 114.478,-180.894"/>
<polygon fill="black" stroke="black" stroke-width="2" points="111.105,-179.961 111.77,-190.535 117.844,-181.855 111.105,-179.961"/>
</g>
<!-- 1 -->
<g id="node2" class="node"><title>1</title>
<ellipse fill="cadetblue" stroke="black" cx="21.2132" cy="-236.792" rx="21.4286" ry="21.4286"/>
<text text-anchor="middle" x="21.2132" y="-231.792" font-family="Times New Roman,serif" font-size="20.00">2</text>
</g>
<!-- 1&#45;&gt;3 -->
<g id="edge6" class="edge"><title>1&#45;&gt;3</title>
<path fill="none" stroke="black" stroke-width="2" d="M42.5771,-238.418C68.2675,-240.374 111.608,-243.674 141.12,-245.921"/>
<polygon fill="black" stroke="black" stroke-width="2" points="141.072,-249.427 151.309,-246.696 141.603,-242.447 141.072,-249.427"/>
</g>
<!-- 2 -->
<g id="node3" class="node"><title>2</title>
<ellipse fill="cadetblue" stroke="black" cx="159.335" cy="-21.2132" rx="21.4286" ry="21.4286"/>
<text text-anchor="middle" x="159.335" y="-16.2132" font-family="Times New Roman,serif" font-size="20.00">2</text>
</g>
<!-- 7 -->
<g id="node8" class="node"><title>7</title>
<ellipse fill="cadetblue" stroke="black" cx="173.932" cy="-108.574" rx="21.4286" ry="21.4286"/>
<text text-anchor="middle" x="173.932" y="-103.574" font-family="Times New Roman,serif" font-size="20.00">2</text>
</g>
<!-- 2&#45;&gt;7 -->
<g id="edge11" class="edge"><title>2&#45;&gt;7</title>
<path fill="none" stroke="black" stroke-width="2" d="M162.869,-42.3609C164.626,-52.877 166.784,-65.7926 168.726,-77.416"/>
<polygon fill="black" stroke="black" stroke-width="2" points="165.331,-78.3349 170.431,-87.6213 172.235,-77.1812 165.331,-78.3349"/>
</g>
<!-- 4 -->
<g id="node5" class="node"><title>4</title>
<ellipse fill="cadetblue" stroke="black" cx="233.462" cy="-155.309" rx="21.4286" ry="21.4286"/>
<text text-anchor="middle" x="233.462" y="-150.309" font-family="Times New Roman,serif" font-size="20.00">2</text>
</g>
<!-- 3&#45;&gt;4 -->
<g id="edge12" class="edge"><title>3&#45;&gt;4</title>
<path fill="none" stroke="black" stroke-width="2" d="M184.306,-230.382C193.32,-216.615 205.906,-197.393 216.086,-181.846"/>
<polygon fill="black" stroke="black" stroke-width="2" points="219.207,-183.47 221.756,-173.186 213.35,-179.635 219.207,-183.47"/>
</g>
<!-- 3&#45;&gt;6 -->
<g id="edge13" class="edge"><title>3&#45;&gt;6</title>
<path fill="none" stroke="black" stroke-width="2" d="M154.008,-237.99C147.762,-234.515 140.649,-230.558 133.845,-226.772"/>
<polygon fill="black" stroke="black" stroke-width="2" points="135.309,-223.582 124.869,-221.778 131.906,-229.699 135.309,-223.582"/>
</g>
<!-- 4&#45;&gt;0 -->
<g id="edge2" class="edge"><title>4&#45;&gt;0</title>
<path fill="none" stroke="black" stroke-width="2" d="M212.261,-154.049C196.088,-153.088 173.548,-151.749 155.23,-150.661"/>
<polygon fill="black" stroke="black" stroke-width="2" points="155.203,-147.153 145.013,-150.054 154.787,-154.141 155.203,-147.153"/>
</g>
<!-- 4&#45;&gt;2 -->
<g id="edge9" class="edge"><title>4&#45;&gt;2</title>
<path fill="none" stroke="black" stroke-width="2" d="M223.155,-136.663C210.613,-113.974 189.317,-75.4508 174.805,-49.1976"/>
<polygon fill="black" stroke="black" stroke-width="2" points="177.695,-47.1911 169.793,-40.1325 171.568,-50.5777 177.695,-47.1911"/>
</g>
<!-- 4&#45;&gt;6 -->
<g id="edge15" class="edge"><title>4&#45;&gt;6</title>
<path fill="none" stroke="black" stroke-width="2" d="M213.818,-163.927C192.696,-173.194 158.906,-188.019 134.774,-198.606"/>
<polygon fill="black" stroke="black" stroke-width="2" points="133.159,-195.493 125.407,-202.716 135.971,-201.903 133.159,-195.493"/>
</g>
<!-- 5&#45;&gt;1 -->
<g id="edge7" class="edge"><title>5&#45;&gt;1</title>
<path fill="none" stroke="black" stroke-width="2" d="M43.105,-121.89C38.8433,-144.258 32.0402,-179.965 27.1486,-205.64"/>
<polygon fill="black" stroke="black" stroke-width="2" points="23.6807,-205.141 25.2472,-215.619 30.557,-206.451 23.6807,-205.141"/>
</g>
<!-- 5&#45;&gt;2 -->
<g id="edge10" class="edge"><title>5&#45;&gt;2</title>
<path fill="none" stroke="black" stroke-width="2" d="M64.6298,-88.5038C83.163,-75.3354 112.577,-54.4362 133.708,-39.422"/>
<polygon fill="black" stroke="black" stroke-width="2" points="135.796,-42.2322 141.92,-33.5869 131.741,-36.5259 135.796,-42.2322"/>
</g>
<!-- 5&#45;&gt;7 -->
<g id="edge18" class="edge"><title>5&#45;&gt;7</title>
<path fill="none" stroke="black" stroke-width="2" d="M68.322,-102.239C88.6264,-103.457 119.49,-105.308 142.617,-106.696"/>
<polygon fill="black" stroke="black" stroke-width="2" points="142.441,-110.191 152.633,-107.296 142.86,-103.204 142.441,-110.191"/>
</g>
<!-- 6&#45;&gt;1 -->
<g id="edge8" class="edge"><title>6&#45;&gt;1</title>
<path fill="none" stroke="black" stroke-width="2" d="M85.4377,-217.435C75.2374,-220.509 62.7098,-224.285 51.4356,-227.683"/>
<polygon fill="black" stroke="black" stroke-width="2" points="50.1013,-224.429 41.5367,-230.666 52.1214,-231.132 50.1013,-224.429"/>
</g>
<!-- 6&#45;&gt;5 -->
<g id="edge17" class="edge"><title>6&#45;&gt;5</title>
<path fill="none" stroke="black" stroke-width="2" d="M95.6978,-192.042C86.3717,-174.567 72.4947,-148.564 61.9529,-128.811"/>
<polygon fill="black" stroke="black" stroke-width="2" points="65.0228,-127.13 57.2266,-119.955 58.8472,-130.426 65.0228,-127.13"/>
</g>
<!-- 7&#45;&gt;0 -->
<g id="edge5" class="edge"><title>7&#45;&gt;0</title>
<path fill="none" stroke="black" stroke-width="2" d="M157.139,-121.961C154.278,-124.242 151.252,-126.654 148.236,-129.058"/>
<polygon fill="black" stroke="black" stroke-width="2" points="146.03,-126.341 140.392,-135.311 150.394,-131.814 146.03,-126.341"/>
</g>
<!-- 7&#45;&gt;3 -->
<g id="edge14" class="edge"><title>7&#45;&gt;3</title>
<path fill="none" stroke="black" stroke-width="2" d="M173.724,-129.798C173.498,-152.882 173.135,-190.031 172.875,-216.584"/>
<polygon fill="black" stroke="black" stroke-width="2" points="169.372,-216.857 172.774,-226.891 176.372,-216.926 169.372,-216.857"/>
</g>
<!-- 7&#45;&gt;4 -->
<g id="edge16" class="edge"><title>7&#45;&gt;4</title>
<path fill="none" stroke="black" stroke-width="2" d="M190.832,-121.841C196.409,-126.22 202.733,-131.184 208.769,-135.923"/>
<polygon fill="black" stroke="black" stroke-width="2" points="206.699,-138.748 216.726,-142.17 211.022,-133.242 206.699,-138.748"/>
</g>
<!-- 7&#45;&gt;6 -->
<g id="edge19" class="edge"><title>7&#45;&gt;6</title>
<path fill="none" stroke="black" stroke-width="2" d="M164.646,-127.925C158.722,-139.669 150.581,-154.775 142.084,-167.393 137.613,-174.032 132.347,-180.867 127.239,-187.108"/>
<polygon fill="black" stroke="black" stroke-width="2" points="124.214,-185.268 120.461,-195.176 129.573,-189.771 124.214,-185.268"/>
</g>
</g>
</svg>

