<?xml version="1.0" encoding="UTF-8" standalone="no"?>
<!DOCTYPE svg PUBLIC "-//W3C//DTD SVG 1.1//EN"
 "http://www.w3.org/Graphics/SVG/1.1/DTD/svg11.dtd">
<!-- Generated by graphviz version 2.36.0 (20140111.2315)
 -->
<!-- Title: G Pages: 1 -->
<svg width="100%" height="100%"
 viewBox="0.00 0.00 230.77 261.47" xmlns="http://www.w3.org/2000/svg" xmlns:xlink="http://www.w3.org/1999/xlink">
<g id="graph0" class="graph" transform="scale(1 1) rotate(0) translate(4 257.472)">
<title>G</title>
<!-- 0 -->
<g id="node1" class="node"><title>0</title>
<ellipse fill="cadetblue" stroke="black" cx="78.0844" cy="-232.259" rx="21.4286" ry="21.4286"/>
<text text-anchor="middle" x="78.0844" y="-227.259" font-family="Times New Roman,serif" font-size="20.00">2</text>
</g>
<!-- 3 -->
<g id="node4" class="node"><title>3</title>
<ellipse fill="cadetblue" stroke="black" cx="201.562" cy="-225.918" rx="21.4286" ry="21.4286"/>
<text text-anchor="middle" x="201.562" y="-220.918" font-family="Times New Roman,serif" font-size="20.00">2</text>
</g>
<!-- 0&#45;&gt;3 -->
<g id="edge1" class="edge"><title>0&#45;&gt;3</title>
<path fill="none" stroke="black" stroke-width="2" d="M99.3109,-231.169C118.747,-230.171 147.774,-228.68 169.94,-227.542"/>
<polygon fill="black" stroke="black" stroke-width="2" points="170.392,-231.024 180.199,-227.015 170.033,-224.033 170.392,-231.024"/>
</g>
<!-- 5 -->
<g id="node6" class="node"><title>5</title>
<ellipse fill="cadetblue" stroke="black" cx="21.2132" cy="-109.832" rx="21.4286" ry="21.4286"/>
<text text-anchor="middle" x="21.2132" y="-104.832" font-family="Times New Roman,serif" font-size="20.00">2</text>
</g>
<!-- 0&#45;&gt;5 -->
<g id="edge3" class="edge"><title>0&#45;&gt;5</title>
<path fill="none" stroke="black" stroke-width="2" d="M77.0307,-210.854C75.3762,-194.509 71.1972,-171.986 60.7211,-155.038 55.8367,-147.136 49.5647,-139.257 43.4633,-132.343"/>
<polygon fill="black" stroke="black" stroke-width="2" points="45.8127,-129.726 36.4725,-124.725 40.6554,-134.46 45.8127,-129.726"/>
</g>
<!-- 1 -->
<g id="node2" class="node"><title>1</title>
<ellipse fill="cadetblue" stroke="black" cx="42.0534" cy="-173.57" rx="21.4286" ry="21.4286"/>
<text text-anchor="middle" x="42.0534" y="-168.57" font-family="Times New Roman,serif" font-size="20.00">2</text>
</g>
<!-- 1&#45;&gt;5 -->
<g id="edge6" class="edge"><title>1&#45;&gt;5</title>
<path fill="none" stroke="black" stroke-width="2" d="M35.4594,-153.403C34.0531,-149.102 32.5387,-144.47 31.0407,-139.889"/>
<polygon fill="black" stroke="black" stroke-width="2" points="34.2703,-138.504 27.8358,-130.087 27.6169,-140.679 34.2703,-138.504"/>
</g>
<!-- 7 -->
<g id="node8" class="node"><title>7</title>
<ellipse fill="cadetblue" stroke="black" cx="127.95" cy="-181.827" rx="21.4286" ry="21.4286"/>
<text text-anchor="middle" x="127.95" y="-176.827" font-family="Times New Roman,serif" font-size="20.00">2</text>
</g>
<!-- 1&#45;&gt;7 -->
<g id="edge8" class="edge"><title>1&#45;&gt;7</title>
<path fill="none" stroke="black" stroke-width="2" d="M63.2862,-175.611C73.3007,-176.574 85.4529,-177.742 96.5071,-178.805"/>
<polygon fill="black" stroke="black" stroke-width="2" points="96.3745,-182.308 106.664,-179.781 97.0444,-175.34 96.3745,-182.308"/>
</g>
<!-- 2 -->
<g id="node3" class="node"><title>2</title>
<ellipse fill="cadetblue" stroke="black" cx="106.133" cy="-21.2132" rx="21.4286" ry="21.4286"/>
<text text-anchor="middle" x="106.133" y="-16.2132" font-family="Times New Roman,serif" font-size="20.00">2</text>
</g>
<!-- 4 -->
<g id="node5" class="node"><title>4</title>
<ellipse fill="cadetblue" stroke="black" cx="97.908" cy="-106.485" rx="21.4286" ry="21.4286"/>
<text text-anchor="middle" x="97.908" y="-101.485" font-family="Times New Roman,serif" font-size="20.00">2</text>
</g>
<!-- 2&#45;&gt;4 -->
<g id="edge9" class="edge"><title>2&#45;&gt;4</title>
<path fill="none" stroke="black" stroke-width="2" d="M104.057,-42.7308C103.115,-52.4997 101.982,-64.2474 100.946,-74.9826"/>
<polygon fill="black" stroke="black" stroke-width="2" points="97.4306,-74.9795 99.9543,-85.2693 104.398,-75.6516 97.4306,-74.9795"/>
</g>
<!-- 6 -->
<g id="node7" class="node"><title>6</title>
<ellipse fill="brown" stroke="black" cx="178.096" cy="-113.106" rx="21.4286" ry="21.4286"/>
<text text-anchor="middle" x="178.096" y="-108.106" font-family="Times New Roman,serif" font-size="20.00">3</text>
</g>
<!-- 3&#45;&gt;6 -->
<g id="edge12" class="edge"><title>3&#45;&gt;6</title>
<path fill="none" stroke="black" stroke-width="2" d="M197.203,-204.964C193.63,-187.788 188.523,-163.236 184.488,-143.836"/>
<polygon fill="black" stroke="black" stroke-width="2" points="187.895,-143.026 182.431,-133.948 181.041,-144.452 187.895,-143.026"/>
</g>
<!-- 4&#45;&gt;0 -->
<g id="edge2" class="edge"><title>4&#45;&gt;0</title>
<path fill="none" stroke="black" stroke-width="2" d="M94.59,-127.536C91.4167,-147.67 86.5931,-178.274 82.9786,-201.207"/>
<polygon fill="black" stroke="black" stroke-width="2" points="79.5129,-200.715 81.4133,-211.138 86.4276,-201.805 79.5129,-200.715"/>
</g>
<!-- 4&#45;&gt;1 -->
<g id="edge5" class="edge"><title>4&#45;&gt;1</title>
<path fill="none" stroke="black" stroke-width="2" d="M84.1013,-123.068C77.4727,-131.029 69.4039,-140.72 62.1138,-149.476"/>
<polygon fill="black" stroke="black" stroke-width="2" points="59.4101,-147.254 55.7014,-157.178 64.7896,-151.733 59.4101,-147.254"/>
</g>
<!-- 4&#45;&gt;6 -->
<g id="edge14" class="edge"><title>4&#45;&gt;6</title>
<path fill="none" stroke="black" stroke-width="2" d="M119.397,-108.259C127.824,-108.955 137.659,-109.767 146.843,-110.525"/>
<polygon fill="black" stroke="black" stroke-width="2" points="146.572,-114.015 156.826,-111.349 147.148,-107.038 146.572,-114.015"/>
</g>
<!-- 5&#45;&gt;2 -->
<g id="edge10" class="edge"><title>5&#45;&gt;2</title>
<path fill="none" stroke="black" stroke-width="2" d="M36.005,-94.3956C49.3179,-80.5028 69.0583,-59.9025 84.2063,-44.0947"/>
<polygon fill="black" stroke="black" stroke-width="2" points="86.8336,-46.4116 91.2253,-36.7698 81.7795,-41.5684 86.8336,-46.4116"/>
</g>
<!-- 5&#45;&gt;7 -->
<g id="edge16" class="edge"><title>5&#45;&gt;7</title>
<path fill="none" stroke="black" stroke-width="2" d="M38.8386,-121.72C55.9886,-133.288 82.2524,-151.004 101.83,-164.209"/>
<polygon fill="black" stroke="black" stroke-width="2" points="100.051,-167.231 110.298,-169.921 103.965,-161.427 100.051,-167.231"/>
</g>
<!-- 6&#45;&gt;1 -->
<g id="edge7" class="edge"><title>6&#45;&gt;1</title>
<path fill="none" stroke="black" stroke-width="2" d="M158.604,-121.769C135.672,-131.961 97.3855,-148.978 70.9873,-160.711"/>
<polygon fill="black" stroke="black" stroke-width="2" points="69.2254,-157.664 61.5089,-164.923 72.0685,-164.06 69.2254,-157.664"/>
</g>
<!-- 6&#45;&gt;2 -->
<g id="edge11" class="edge"><title>6&#45;&gt;2</title>
<path fill="none" stroke="black" stroke-width="2" d="M164.897,-96.2512C153.84,-82.132 137.907,-61.7863 125.42,-45.8415"/>
<polygon fill="black" stroke="black" stroke-width="2" points="128.169,-43.676 119.248,-37.9608 122.658,-47.9919 128.169,-43.676"/>
</g>
<!-- 7&#45;&gt;0 -->
<g id="edge4" class="edge"><title>7&#45;&gt;0</title>
<path fill="none" stroke="black" stroke-width="2" d="M112.989,-196.958C108.945,-201.047 104.483,-205.56 100.139,-209.953"/>
<polygon fill="black" stroke="black" stroke-width="2" points="97.5774,-207.567 93.0351,-217.138 102.555,-212.488 97.5774,-207.567"/>
</g>
<!-- 7&#45;&gt;3 -->
<g id="edge13" class="edge"><title>7&#45;&gt;3</title>
<path fill="none" stroke="black" stroke-width="2" d="M146.525,-192.953C155.046,-198.057 165.311,-204.206 174.656,-209.803"/>
<polygon fill="black" stroke="black" stroke-width="2" points="172.87,-212.813 183.247,-214.949 176.467,-206.808 172.87,-212.813"/>
</g>
<!-- 7&#45;&gt;4 -->
<g id="edge15" class="edge"><title>7&#45;&gt;4</title>
<path fill="none" stroke="black" stroke-width="2" d="M120.057,-162.032C116.874,-154.049 113.135,-144.672 109.645,-135.919"/>
<polygon fill="black" stroke="black" stroke-width="2" points="112.808,-134.402 105.853,-126.409 106.306,-136.995 112.808,-134.402"/>
</g>
<!-- 7&#45;&gt;6 -->
<g id="edge17" class="edge"><title>7&#45;&gt;6</title>
<path fill="none" stroke="black" stroke-width="2" d="M140.604,-164.486C146.262,-156.732 153.048,-147.432 159.283,-138.888"/>
<polygon fill="black" stroke="black" stroke-width="2" points="162.204,-140.822 165.272,-130.681 156.55,-136.695 162.204,-140.822"/>
</g>
</g>
</svg>

