<?xml version="1.0" encoding="UTF-8" standalone="no"?>
<!DOCTYPE svg PUBLIC "-//W3C//DTD SVG 1.1//EN"
 "http://www.w3.org/Graphics/SVG/1.1/DTD/svg11.dtd">
<!-- Generated by graphviz version 2.36.0 (20140111.2315)
 -->
<!-- Title: G Pages: 1 -->
<svg width="100%" height="100%"
 viewBox="0.00 0.00 269.92 265.25" xmlns="http://www.w3.org/2000/svg" xmlns:xlink="http://www.w3.org/1999/xlink">
<g id="graph0" class="graph" transform="scale(1 1) rotate(0) translate(4 261.251)">
<title>G</title>
<!-- 0 -->
<g id="node1" class="node"><title>0</title>
<ellipse fill="cadetblue" stroke="black" cx="145.074" cy="-236.038" rx="21.4286" ry="21.4286"/>
<text text-anchor="middle" x="145.074" y="-231.038" font-family="Times New Roman,serif" font-size="20.00">2</text>
</g>
<!-- 6 -->
<g id="node7" class="node"><title>6</title>
<ellipse fill="brown" stroke="black" cx="77.2579" cy="-147.782" rx="21.4286" ry="21.4286"/>
<text text-anchor="middle" x="77.2579" y="-142.782" font-family="Times New Roman,serif" font-size="20.00">3</text>
</g>
<!-- 0&#45;&gt;6 -->
<g id="edge3" class="edge"><title>0&#45;&gt;6</title>
<path fill="none" stroke="black" stroke-width="2" d="M131.999,-219.021C121.96,-205.957 107.944,-187.717 96.608,-172.964"/>
<polygon fill="black" stroke="black" stroke-width="2" points="99.1617,-170.543 90.2934,-164.746 93.6111,-174.808 99.1617,-170.543"/>
</g>
<!-- 7 -->
<g id="node8" class="node"><title>7</title>
<ellipse fill="cadetblue" stroke="black" cx="146.419" cy="-121.082" rx="21.4286" ry="21.4286"/>
<text text-anchor="middle" x="146.419" y="-116.082" font-family="Times New Roman,serif" font-size="20.00">2</text>
</g>
<!-- 0&#45;&gt;7 -->
<g id="edge4" class="edge"><title>0&#45;&gt;7</title>
<path fill="none" stroke="black" stroke-width="2" d="M145.324,-214.685C145.529,-197.182 145.821,-172.165 146.053,-152.396"/>
<polygon fill="black" stroke="black" stroke-width="2" points="149.553,-152.361 146.171,-142.32 142.554,-152.279 149.553,-152.361"/>
</g>
<!-- 1 -->
<g id="node2" class="node"><title>1</title>
<ellipse fill="cadetblue" stroke="black" cx="168.377" cy="-54.8096" rx="21.4286" ry="21.4286"/>
<text text-anchor="middle" x="168.377" y="-49.8096" font-family="Times New Roman,serif" font-size="20.00">2</text>
</g>
<!-- 4 -->
<g id="node5" class="node"><title>4</title>
<ellipse fill="cadetblue" stroke="black" cx="240.702" cy="-158.235" rx="21.4286" ry="21.4286"/>
<text text-anchor="middle" x="240.702" y="-153.235" font-family="Times New Roman,serif" font-size="20.00">2</text>
</g>
<!-- 1&#45;&gt;4 -->
<g id="edge5" class="edge"><title>1&#45;&gt;4</title>
<path fill="none" stroke="black" stroke-width="2" d="M180.646,-72.3543C192.128,-88.7727 209.425,-113.508 222.512,-132.223"/>
<polygon fill="black" stroke="black" stroke-width="2" points="219.774,-134.415 228.373,-140.604 225.51,-130.403 219.774,-134.415"/>
</g>
<!-- 1&#45;&gt;7 -->
<g id="edge8" class="edge"><title>1&#45;&gt;7</title>
<path fill="none" stroke="black" stroke-width="2" d="M161.67,-75.0536C160.04,-79.9712 158.262,-85.3376 156.514,-90.6132"/>
<polygon fill="black" stroke="black" stroke-width="2" points="153.06,-89.9112 153.237,-100.505 159.705,-92.1129 153.06,-89.9112"/>
</g>
<!-- 2 -->
<g id="node3" class="node"><title>2</title>
<ellipse fill="cadetblue" stroke="black" cx="64.0318" cy="-21.2132" rx="21.4286" ry="21.4286"/>
<text text-anchor="middle" x="64.0318" y="-16.2132" font-family="Times New Roman,serif" font-size="20.00">2</text>
</g>
<!-- 2&#45;&gt;6 -->
<g id="edge10" class="edge"><title>2&#45;&gt;6</title>
<path fill="none" stroke="black" stroke-width="2" d="M66.2455,-42.398C68.3627,-62.6588 71.5809,-93.4561 73.9925,-116.534"/>
<polygon fill="black" stroke="black" stroke-width="2" points="70.5164,-116.946 75.0369,-126.528 77.4785,-116.218 70.5164,-116.946"/>
</g>
<!-- 3 -->
<g id="node4" class="node"><title>3</title>
<ellipse fill="cadetblue" stroke="black" cx="21.2132" cy="-228.015" rx="21.4286" ry="21.4286"/>
<text text-anchor="middle" x="21.2132" y="-223.015" font-family="Times New Roman,serif" font-size="20.00">2</text>
</g>
<!-- 3&#45;&gt;0 -->
<g id="edge1" class="edge"><title>3&#45;&gt;0</title>
<path fill="none" stroke="black" stroke-width="2" d="M42.5057,-229.394C62.0909,-230.663 91.3841,-232.56 113.657,-234.003"/>
<polygon fill="black" stroke="black" stroke-width="2" points="113.44,-237.496 123.645,-234.65 113.892,-230.51 113.44,-237.496"/>
</g>
<!-- 4&#45;&gt;0 -->
<g id="edge2" class="edge"><title>4&#45;&gt;0</title>
<path fill="none" stroke="black" stroke-width="2" d="M224.045,-171.787C208.961,-184.059 186.551,-202.292 169.452,-216.204"/>
<polygon fill="black" stroke="black" stroke-width="2" points="167.089,-213.615 161.54,-222.641 171.506,-219.045 167.089,-213.615"/>
</g>
<!-- 5 -->
<g id="node6" class="node"><title>5</title>
<ellipse fill="cadetblue" stroke="black" cx="27.67" cy="-97.3505" rx="21.4286" ry="21.4286"/>
<text text-anchor="middle" x="27.67" y="-92.3505" font-family="Times New Roman,serif" font-size="20.00">2</text>
</g>
<!-- 5&#45;&gt;1 -->
<g id="edge6" class="edge"><title>5&#45;&gt;1</title>
<path fill="none" stroke="black" stroke-width="2" d="M48.1301,-91.1647C71.7852,-84.0129 110.945,-72.1735 138.121,-63.9572"/>
<polygon fill="black" stroke="black" stroke-width="2" points="139.333,-67.2471 147.893,-61.0029 137.308,-60.5467 139.333,-67.2471"/>
</g>
<!-- 5&#45;&gt;2 -->
<g id="edge9" class="edge"><title>5&#45;&gt;2</title>
<path fill="none" stroke="black" stroke-width="2" d="M36.8456,-78.1378C40.9797,-69.4815 45.945,-59.0849 50.4944,-49.5588"/>
<polygon fill="black" stroke="black" stroke-width="2" points="53.7078,-50.9518 54.8591,-40.4197 47.3912,-47.9351 53.7078,-50.9518"/>
</g>
<!-- 5&#45;&gt;3 -->
<g id="edge12" class="edge"><title>5&#45;&gt;3</title>
<path fill="none" stroke="black" stroke-width="2" d="M26.6182,-118.635C25.5723,-139.801 23.9559,-172.512 22.763,-196.651"/>
<polygon fill="black" stroke="black" stroke-width="2" points="19.2624,-196.579 22.2645,-206.74 26.2539,-196.925 19.2624,-196.579"/>
</g>
<!-- 6&#45;&gt;1 -->
<g id="edge7" class="edge"><title>6&#45;&gt;1</title>
<path fill="none" stroke="black" stroke-width="2" d="M92.3044,-132.429C106.945,-117.491 129.366,-94.614 146.079,-77.5609"/>
<polygon fill="black" stroke="black" stroke-width="2" points="148.809,-79.7766 153.308,-70.1849 143.809,-74.8769 148.809,-79.7766"/>
</g>
<!-- 6&#45;&gt;3 -->
<g id="edge13" class="edge"><title>6&#45;&gt;3</title>
<path fill="none" stroke="black" stroke-width="2" d="M65.097,-165.191C57.5843,-175.946 47.8037,-189.948 39.3831,-202.003"/>
<polygon fill="black" stroke="black" stroke-width="2" points="36.4011,-200.16 33.5439,-210.363 42.1397,-204.169 36.4011,-200.16"/>
</g>
<!-- 6&#45;&gt;5 -->
<g id="edge15" class="edge"><title>6&#45;&gt;5</title>
<path fill="none" stroke="black" stroke-width="2" d="M62.3799,-132.651C58.5286,-128.734 54.2951,-124.429 50.1487,-120.212"/>
<polygon fill="black" stroke="black" stroke-width="2" points="52.3876,-117.497 42.8808,-112.82 47.3963,-122.404 52.3876,-117.497"/>
</g>
<!-- 7&#45;&gt;2 -->
<g id="edge11" class="edge"><title>7&#45;&gt;2</title>
<path fill="none" stroke="black" stroke-width="2" d="M132.814,-104.591C119.577,-88.5442 99.3044,-63.9703 84.1928,-45.6521"/>
<polygon fill="black" stroke="black" stroke-width="2" points="86.7201,-43.2156 77.6566,-37.729 81.3203,-47.6702 86.7201,-43.2156"/>
</g>
<!-- 7&#45;&gt;4 -->
<g id="edge14" class="edge"><title>7&#45;&gt;4</title>
<path fill="none" stroke="black" stroke-width="2" d="M166.414,-128.961C179.414,-134.084 196.592,-140.853 211.155,-146.592"/>
<polygon fill="black" stroke="black" stroke-width="2" points="210.149,-149.957 220.736,-150.367 212.715,-143.444 210.149,-149.957"/>
</g>
<!-- 7&#45;&gt;5 -->
<g id="edge16" class="edge"><title>7&#45;&gt;5</title>
<path fill="none" stroke="black" stroke-width="2" d="M125.462,-116.894C107.008,-113.206 79.8746,-107.783 58.8678,-103.585"/>
<polygon fill="black" stroke="black" stroke-width="2" points="59.3086,-100.104 48.8165,-101.577 57.9367,-106.968 59.3086,-100.104"/>
</g>
<!-- 7&#45;&gt;6 -->
<g id="edge17" class="edge"><title>7&#45;&gt;6</title>
<path fill="none" stroke="black" stroke-width="2" d="M126.415,-128.805C120.303,-131.164 113.449,-133.81 106.842,-136.361"/>
<polygon fill="black" stroke="black" stroke-width="2" points="105.525,-133.117 97.4568,-139.984 108.046,-139.648 105.525,-133.117"/>
</g>
</g>
</svg>

