<?xml version="1.0" encoding="UTF-8" standalone="no"?>
<!DOCTYPE svg PUBLIC "-//W3C//DTD SVG 1.1//EN"
 "http://www.w3.org/Graphics/SVG/1.1/DTD/svg11.dtd">
<!-- Generated by graphviz version 2.36.0 (20140111.2315)
 -->
<!-- Title: G Pages: 1 -->
<svg width="100%" height="100%"
 viewBox="0.00 0.00 264.39 291.36" xmlns="http://www.w3.org/2000/svg" xmlns:xlink="http://www.w3.org/1999/xlink">
<g id="graph0" class="graph" transform="scale(1 1) rotate(0) translate(4 287.358)">
<title>G</title>
<!-- 0 -->
<g id="node1" class="node"><title>0</title>
<ellipse fill="cadetblue" stroke="black" cx="104.266" cy="-71.6447" rx="21.4286" ry="21.4286"/>
<text text-anchor="middle" x="104.266" y="-66.6447" font-family="Times New Roman,serif" font-size="20.00">2</text>
</g>
<!-- 5 -->
<g id="node6" class="node"><title>5</title>
<ellipse fill="brown" stroke="black" cx="21.2132" cy="-83.1336" rx="21.4286" ry="21.4286"/>
<text text-anchor="middle" x="21.2132" y="-78.1336" font-family="Times New Roman,serif" font-size="20.00">3</text>
</g>
<!-- 0&#45;&gt;5 -->
<g id="edge3" class="edge"><title>0&#45;&gt;5</title>
<path fill="none" stroke="black" stroke-width="2" d="M82.8775,-74.6033C73.603,-75.8863 62.5602,-77.4139 52.3994,-78.8195"/>
<polygon fill="black" stroke="black" stroke-width="2" points="51.6673,-75.3874 42.2412,-80.2247 52.6265,-82.3213 51.6673,-75.3874"/>
</g>
<!-- 6 -->
<g id="node7" class="node"><title>6</title>
<ellipse fill="cadetblue" stroke="black" cx="90.2121" cy="-157.435" rx="21.4286" ry="21.4286"/>
<text text-anchor="middle" x="90.2121" y="-152.435" font-family="Times New Roman,serif" font-size="20.00">2</text>
</g>
<!-- 0&#45;&gt;6 -->
<g id="edge4" class="edge"><title>0&#45;&gt;6</title>
<path fill="none" stroke="black" stroke-width="2" d="M100.792,-92.8513C99.1409,-102.929 97.1351,-115.173 95.3156,-126.28"/>
<polygon fill="black" stroke="black" stroke-width="2" points="91.8087,-126.038 93.646,-136.472 98.7166,-127.17 91.8087,-126.038"/>
</g>
<!-- 7 -->
<g id="node8" class="node"><title>7</title>
<ellipse fill="dodgerblue" stroke="black" cx="160.802" cy="-142.842" rx="21.4286" ry="21.4286"/>
<text text-anchor="middle" x="160.802" y="-137.842" font-family="Times New Roman,serif" font-size="20.00">4</text>
</g>
<!-- 0&#45;&gt;7 -->
<g id="edge5" class="edge"><title>0&#45;&gt;7</title>
<path fill="none" stroke="black" stroke-width="2" d="M117.664,-88.5174C124.705,-97.3841 133.466,-108.418 141.25,-118.22"/>
<polygon fill="black" stroke="black" stroke-width="2" points="138.54,-120.435 147.5,-126.09 144.022,-116.082 138.54,-120.435"/>
</g>
<!-- 1 -->
<g id="node2" class="node"><title>1</title>
<ellipse fill="cadetblue" stroke="black" cx="136.989" cy="-262.145" rx="21.4286" ry="21.4286"/>
<text text-anchor="middle" x="136.989" y="-257.145" font-family="Times New Roman,serif" font-size="20.00">2</text>
</g>
<!-- 1&#45;&gt;7 -->
<g id="edge8" class="edge"><title>1&#45;&gt;7</title>
<path fill="none" stroke="black" stroke-width="2" d="M141.192,-241.091C144.932,-222.35 150.451,-194.702 154.681,-173.506"/>
<polygon fill="black" stroke="black" stroke-width="2" points="158.116,-174.177 156.642,-163.686 151.252,-172.807 158.116,-174.177"/>
</g>
<!-- 2 -->
<g id="node3" class="node"><title>2</title>
<ellipse fill="cadetblue" stroke="black" cx="133.171" cy="-21.2132" rx="21.4286" ry="21.4286"/>
<text text-anchor="middle" x="133.171" y="-16.2132" font-family="Times New Roman,serif" font-size="20.00">2</text>
</g>
<!-- 4 -->
<g id="node5" class="node"><title>4</title>
<ellipse fill="cadetblue" stroke="black" cx="235.181" cy="-53.8407" rx="21.4286" ry="21.4286"/>
<text text-anchor="middle" x="235.181" y="-48.8407" font-family="Times New Roman,serif" font-size="20.00">2</text>
</g>
<!-- 2&#45;&gt;4 -->
<g id="edge9" class="edge"><title>2&#45;&gt;4</title>
<path fill="none" stroke="black" stroke-width="2" d="M153.814,-27.8159C168.567,-32.5345 188.648,-38.9573 205.169,-44.2416"/>
<polygon fill="black" stroke="black" stroke-width="2" points="204.326,-47.6464 214.917,-47.3592 206.458,-40.9791 204.326,-47.6464"/>
</g>
<!-- 2&#45;&gt;7 -->
<g id="edge12" class="edge"><title>2&#45;&gt;7</title>
<path fill="none" stroke="black" stroke-width="2" d="M137.921,-42.1219C142.29,-61.3541 148.825,-90.1194 153.793,-111.991"/>
<polygon fill="black" stroke="black" stroke-width="2" points="150.393,-112.823 156.022,-121.799 157.219,-111.272 150.393,-112.823"/>
</g>
<!-- 3 -->
<g id="node4" class="node"><title>3</title>
<ellipse fill="cadetblue" stroke="black" cx="35.3171" cy="-197.257" rx="21.4286" ry="21.4286"/>
<text text-anchor="middle" x="35.3171" y="-192.257" font-family="Times New Roman,serif" font-size="20.00">2</text>
</g>
<!-- 3&#45;&gt;0 -->
<g id="edge1" class="edge"><title>3&#45;&gt;0</title>
<path fill="none" stroke="black" stroke-width="2" d="M45.6394,-178.452C57.1143,-157.546 75.7637,-123.57 88.943,-99.5597"/>
<polygon fill="black" stroke="black" stroke-width="2" points="92.129,-101.029 93.8727,-90.5786 85.9927,-97.6608 92.129,-101.029"/>
</g>
<!-- 3&#45;&gt;1 -->
<g id="edge6" class="edge"><title>3&#45;&gt;1</title>
<path fill="none" stroke="black" stroke-width="2" d="M53.494,-208.858C69.2533,-218.915 92.2742,-233.607 110.154,-245.018"/>
<polygon fill="black" stroke="black" stroke-width="2" points="108.657,-248.215 118.97,-250.645 112.423,-242.314 108.657,-248.215"/>
</g>
<!-- 3&#45;&gt;7 -->
<g id="edge15" class="edge"><title>3&#45;&gt;7</title>
<path fill="none" stroke="black" stroke-width="2" d="M56.1059,-192.909C66.4521,-190.55 79.0871,-187.373 90.1808,-183.74 106.043,-178.544 122.263,-169.468 135.151,-161.185"/>
<polygon fill="black" stroke="black" stroke-width="2" points="137.108,-164.087 143.496,-155.634 133.231,-158.258 137.108,-164.087"/>
</g>
<!-- 4&#45;&gt;0 -->
<g id="edge2" class="edge"><title>4&#45;&gt;0</title>
<path fill="none" stroke="black" stroke-width="2" d="M214.147,-56.7012C192.992,-59.5782 160.116,-64.0493 135.832,-67.3517"/>
<polygon fill="black" stroke="black" stroke-width="2" points="135.119,-63.9164 125.682,-68.7321 136.063,-70.8525 135.119,-63.9164"/>
</g>
<!-- 5&#45;&gt;2 -->
<g id="edge10" class="edge"><title>5&#45;&gt;2</title>
<path fill="none" stroke="black" stroke-width="2" d="M39.9524,-72.7695C57.8744,-62.8574 85.1165,-47.7907 105.53,-36.5006"/>
<polygon fill="black" stroke="black" stroke-width="2" points="107.314,-39.5137 114.371,-31.6111 103.926,-33.3882 107.314,-39.5137"/>
</g>
<!-- 5&#45;&gt;3 -->
<g id="edge13" class="edge"><title>5&#45;&gt;3</title>
<path fill="none" stroke="black" stroke-width="2" d="M23.833,-104.332C25.9803,-121.707 29.0497,-146.544 31.4751,-166.169"/>
<polygon fill="black" stroke="black" stroke-width="2" points="28.0112,-166.677 32.7113,-176.172 34.9583,-165.818 28.0112,-166.677"/>
</g>
<!-- 6&#45;&gt;1 -->
<g id="edge7" class="edge"><title>6&#45;&gt;1</title>
<path fill="none" stroke="black" stroke-width="2" d="M99.0105,-177.13C106.067,-192.926 116.073,-215.325 124.043,-233.166"/>
<polygon fill="black" stroke="black" stroke-width="2" points="120.956,-234.835 128.23,-242.538 127.347,-231.98 120.956,-234.835"/>
</g>
<!-- 6&#45;&gt;2 -->
<g id="edge11" class="edge"><title>6&#45;&gt;2</title>
<path fill="none" stroke="black" stroke-width="2" d="M101.663,-139.21C111.508,-122.402 124.976,-96.3861 130.57,-71.6687 131.934,-65.6401 132.745,-59.1074 133.202,-52.8048"/>
<polygon fill="black" stroke="black" stroke-width="2" points="136.711,-52.6957 133.676,-42.545 129.719,-52.3729 136.711,-52.6957"/>
</g>
<!-- 6&#45;&gt;3 -->
<g id="edge14" class="edge"><title>6&#45;&gt;3</title>
<path fill="none" stroke="black" stroke-width="2" d="M72.843,-170.035C69.0383,-172.795 64.9336,-175.773 60.8838,-178.711"/>
<polygon fill="black" stroke="black" stroke-width="2" points="58.801,-175.897 52.7616,-184.602 62.9113,-181.564 58.801,-175.897"/>
</g>
<!-- 6&#45;&gt;5 -->
<g id="edge17" class="edge"><title>6&#45;&gt;5</title>
<path fill="none" stroke="black" stroke-width="2" d="M75.5792,-141.678C66.0654,-131.433 53.4939,-117.895 42.8364,-106.419"/>
<polygon fill="black" stroke="black" stroke-width="2" points="45.1945,-103.814 35.825,-98.8683 40.0651,-108.578 45.1945,-103.814"/>
</g>
<!-- 7&#45;&gt;4 -->
<g id="edge16" class="edge"><title>7&#45;&gt;4</title>
<path fill="none" stroke="black" stroke-width="2" d="M174.444,-126.518C185.697,-113.053 201.836,-93.7414 214.649,-78.409"/>
<polygon fill="black" stroke="black" stroke-width="2" points="217.646,-80.2805 221.373,-70.3628 212.275,-75.7916 217.646,-80.2805"/>
</g>
<!-- 7&#45;&gt;5 -->
<g id="edge18" class="edge"><title>7&#45;&gt;5</title>
<path fill="none" stroke="black" stroke-width="2" d="M141.098,-134.414C117.404,-124.279 77.4319,-107.181 50.2136,-95.5383"/>
<polygon fill="black" stroke="black" stroke-width="2" points="51.3873,-92.2337 40.8166,-91.5188 48.6343,-98.6696 51.3873,-92.2337"/>
</g>
<!-- 7&#45;&gt;6 -->
<g id="edge19" class="edge"><title>7&#45;&gt;6</title>
<path fill="none" stroke="black" stroke-width="2" d="M140.004,-147.141C134.026,-148.377 127.376,-149.752 120.933,-151.084"/>
<polygon fill="black" stroke="black" stroke-width="2" points="120.189,-147.664 111.105,-153.116 121.606,-154.519 120.189,-147.664"/>
</g>
</g>
</svg>

