<?xml version="1.0" encoding="UTF-8" standalone="no"?>
<!DOCTYPE svg PUBLIC "-//W3C//DTD SVG 1.1//EN"
 "http://www.w3.org/Graphics/SVG/1.1/DTD/svg11.dtd">
<!-- Generated by graphviz version 2.36.0 (20140111.2315)
 -->
<!-- Title: G Pages: 1 -->
<svg width="100%" height="100%"
 viewBox="0.00 0.00 253.40 234.15" xmlns="http://www.w3.org/2000/svg" xmlns:xlink="http://www.w3.org/1999/xlink">
<g id="graph0" class="graph" transform="scale(1 1) rotate(0) translate(4 230.147)">
<title>G</title>
<!-- 0 -->
<g id="node1" class="node"><title>0</title>
<ellipse fill="cadetblue" stroke="black" cx="104.282" cy="-106.816" rx="21.4286" ry="21.4286"/>
<text text-anchor="middle" x="104.282" y="-101.816" font-family="Times New Roman,serif" font-size="20.00">2</text>
</g>
<!-- 5 -->
<g id="node6" class="node"><title>5</title>
<ellipse fill="cadetblue" stroke="black" cx="21.2132" cy="-109.462" rx="21.4286" ry="21.4286"/>
<text text-anchor="middle" x="21.2132" y="-104.462" font-family="Times New Roman,serif" font-size="20.00">2</text>
</g>
<!-- 0&#45;&gt;5 -->
<g id="edge3" class="edge"><title>0&#45;&gt;5</title>
<path fill="none" stroke="black" stroke-width="2" d="M82.8895,-107.497C73.6846,-107.79 62.7381,-108.139 52.6402,-108.461"/>
<polygon fill="black" stroke="black" stroke-width="2" points="52.4164,-104.966 42.5329,-108.783 52.6393,-111.963 52.4164,-104.966"/>
</g>
<!-- 7 -->
<g id="node8" class="node"><title>7</title>
<ellipse fill="cadetblue" stroke="black" cx="173.754" cy="-113.432" rx="21.4286" ry="21.4286"/>
<text text-anchor="middle" x="173.754" y="-108.432" font-family="Times New Roman,serif" font-size="20.00">2</text>
</g>
<!-- 0&#45;&gt;7 -->
<g id="edge4" class="edge"><title>0&#45;&gt;7</title>
<path fill="none" stroke="black" stroke-width="2" d="M125.503,-108.837C130.658,-109.327 136.284,-109.863 141.814,-110.39"/>
<polygon fill="black" stroke="black" stroke-width="2" points="141.896,-113.913 152.183,-111.377 142.56,-106.945 141.896,-113.913"/>
</g>
<!-- 1 -->
<g id="node2" class="node"><title>1</title>
<ellipse fill="cadetblue" stroke="black" cx="109.43" cy="-193.672" rx="21.4286" ry="21.4286"/>
<text text-anchor="middle" x="109.43" y="-188.672" font-family="Times New Roman,serif" font-size="20.00">2</text>
</g>
<!-- 6 -->
<g id="node7" class="node"><title>6</title>
<ellipse fill="cadetblue" stroke="black" cx="224.185" cy="-114.524" rx="21.4286" ry="21.4286"/>
<text text-anchor="middle" x="224.185" y="-109.524" font-family="Times New Roman,serif" font-size="20.00">2</text>
</g>
<!-- 1&#45;&gt;6 -->
<g id="edge7" class="edge"><title>1&#45;&gt;6</title>
<path fill="none" stroke="black" stroke-width="2" d="M127.36,-181.305C146.308,-168.237 176.381,-147.496 197.985,-132.595"/>
<polygon fill="black" stroke="black" stroke-width="2" points="200.136,-135.363 206.381,-126.804 196.162,-129.601 200.136,-135.363"/>
</g>
<!-- 1&#45;&gt;7 -->
<g id="edge8" class="edge"><title>1&#45;&gt;7</title>
<path fill="none" stroke="black" stroke-width="2" d="M122.758,-177.046C131.814,-165.75 143.946,-150.616 154.104,-137.943"/>
<polygon fill="black" stroke="black" stroke-width="2" points="156.919,-140.028 160.443,-130.036 151.457,-135.65 156.919,-140.028"/>
</g>
<!-- 2 -->
<g id="node3" class="node"><title>2</title>
<ellipse fill="cadetblue" stroke="black" cx="115.288" cy="-28.1288" rx="21.4286" ry="21.4286"/>
<text text-anchor="middle" x="115.288" y="-23.1288" font-family="Times New Roman,serif" font-size="20.00">2</text>
</g>
<!-- 2&#45;&gt;5 -->
<g id="edge10" class="edge"><title>2&#45;&gt;5</title>
<path fill="none" stroke="black" stroke-width="2" d="M98.9012,-42.296C84.0626,-55.1249 62.0158,-74.1857 45.1951,-88.7284"/>
<polygon fill="black" stroke="black" stroke-width="2" points="42.6876,-86.2695 37.4119,-95.4574 47.2658,-91.5648 42.6876,-86.2695"/>
</g>
<!-- 2&#45;&gt;6 -->
<g id="edge11" class="edge"><title>2&#45;&gt;6</title>
<path fill="none" stroke="black" stroke-width="2" d="M132.303,-41.6281C150.284,-55.8935 178.821,-78.5338 199.322,-94.7987"/>
<polygon fill="black" stroke="black" stroke-width="2" points="197.28,-97.6465 207.29,-101.12 201.631,-92.1627 197.28,-97.6465"/>
</g>
<!-- 3 -->
<g id="node4" class="node"><title>3</title>
<ellipse fill="cadetblue" stroke="black" cx="191.603" cy="-204.934" rx="21.4286" ry="21.4286"/>
<text text-anchor="middle" x="191.603" y="-199.934" font-family="Times New Roman,serif" font-size="20.00">2</text>
</g>
<!-- 3&#45;&gt;0 -->
<g id="edge1" class="edge"><title>3&#45;&gt;0</title>
<path fill="none" stroke="black" stroke-width="2" d="M177.184,-188.732C163.069,-172.872 141.409,-148.534 125.363,-130.503"/>
<polygon fill="black" stroke="black" stroke-width="2" points="127.695,-127.86 118.433,-122.716 122.466,-132.513 127.695,-127.86"/>
</g>
<!-- 3&#45;&gt;1 -->
<g id="edge5" class="edge"><title>3&#45;&gt;1</title>
<path fill="none" stroke="black" stroke-width="2" d="M170.441,-202.034C161.336,-200.786 150.507,-199.302 140.518,-197.933"/>
<polygon fill="black" stroke="black" stroke-width="2" points="140.902,-194.453 130.52,-196.562 139.952,-201.388 140.902,-194.453"/>
</g>
<!-- 4 -->
<g id="node5" class="node"><title>4</title>
<ellipse fill="cadetblue" stroke="black" cx="199.033" cy="-21.2132" rx="21.4286" ry="21.4286"/>
<text text-anchor="middle" x="199.033" y="-16.2132" font-family="Times New Roman,serif" font-size="20.00">2</text>
</g>
<!-- 4&#45;&gt;0 -->
<g id="edge2" class="edge"><title>4&#45;&gt;0</title>
<path fill="none" stroke="black" stroke-width="2" d="M182.96,-35.7345C167.759,-49.4678 144.775,-70.232 127.568,-85.7775"/>
<polygon fill="black" stroke="black" stroke-width="2" points="125.192,-83.2079 120.118,-92.5088 129.884,-88.4021 125.192,-83.2079"/>
</g>
<!-- 4&#45;&gt;2 -->
<g id="edge9" class="edge"><title>4&#45;&gt;2</title>
<path fill="none" stroke="black" stroke-width="2" d="M177.466,-22.9941C168.115,-23.7664 156.98,-24.6859 146.734,-25.532"/>
<polygon fill="black" stroke="black" stroke-width="2" points="146.169,-22.0666 136.491,-26.3778 146.745,-29.0429 146.169,-22.0666"/>
</g>
<!-- 5&#45;&gt;1 -->
<g id="edge6" class="edge"><title>5&#45;&gt;1</title>
<path fill="none" stroke="black" stroke-width="2" d="M36.5793,-124.131C50.4091,-137.332 70.9159,-156.908 86.652,-171.929"/>
<polygon fill="black" stroke="black" stroke-width="2" points="84.2934,-174.516 93.9436,-178.889 89.1268,-169.453 84.2934,-174.516"/>
</g>
<!-- 6&#45;&gt;3 -->
<g id="edge13" class="edge"><title>6&#45;&gt;3</title>
<path fill="none" stroke="black" stroke-width="2" d="M216.954,-134.589C212.652,-146.528 207.113,-161.898 202.31,-175.224"/>
<polygon fill="black" stroke="black" stroke-width="2" points="198.912,-174.331 198.814,-184.925 205.497,-176.704 198.912,-174.331"/>
</g>
<!-- 6&#45;&gt;4 -->
<g id="edge15" class="edge"><title>6&#45;&gt;4</title>
<path fill="none" stroke="black" stroke-width="2" d="M218.603,-93.8156C215.282,-81.4933 211.006,-65.6304 207.298,-51.8768"/>
<polygon fill="black" stroke="black" stroke-width="2" points="210.582,-50.6085 204.599,-41.8641 203.823,-52.4304 210.582,-50.6085"/>
</g>
<!-- 7&#45;&gt;2 -->
<g id="edge12" class="edge"><title>7&#45;&gt;2</title>
<path fill="none" stroke="black" stroke-width="2" d="M161.64,-95.7568C153.409,-83.7474 142.381,-67.6588 133.148,-54.1869"/>
<polygon fill="black" stroke="black" stroke-width="2" points="135.927,-52.0507 127.386,-45.7809 130.153,-56.0082 135.927,-52.0507"/>
</g>
<!-- 7&#45;&gt;3 -->
<g id="edge14" class="edge"><title>7&#45;&gt;3</title>
<path fill="none" stroke="black" stroke-width="2" d="M177.894,-134.654C180.169,-146.318 183.033,-161.003 185.555,-173.928"/>
<polygon fill="black" stroke="black" stroke-width="2" points="182.136,-174.682 187.486,-183.826 189.006,-173.341 182.136,-174.682"/>
</g>
<!-- 7&#45;&gt;4 -->
<g id="edge16" class="edge"><title>7&#45;&gt;4</title>
<path fill="none" stroke="black" stroke-width="2" d="M179.364,-92.9654C182.679,-80.872 186.94,-65.3278 190.648,-51.8012"/>
<polygon fill="black" stroke="black" stroke-width="2" points="194.083,-52.5107 193.351,-41.9411 187.332,-50.6601 194.083,-52.5107"/>
</g>
</g>
</svg>

