<?xml version="1.0" encoding="UTF-8" standalone="no"?>
<!DOCTYPE svg PUBLIC "-//W3C//DTD SVG 1.1//EN"
 "http://www.w3.org/Graphics/SVG/1.1/DTD/svg11.dtd">
<!-- Generated by graphviz version 2.36.0 (20140111.2315)
 -->
<!-- Title: G Pages: 1 -->
<svg width="100%" height="100%"
 viewBox="0.00 0.00 234.83 239.26" xmlns="http://www.w3.org/2000/svg" xmlns:xlink="http://www.w3.org/1999/xlink">
<g id="graph0" class="graph" transform="scale(1 1) rotate(0) translate(4 235.255)">
<title>G</title>
<!-- 0 -->
<g id="node1" class="node"><title>0</title>
<ellipse fill="cadetblue" stroke="black" cx="115.859" cy="-159.611" rx="21.4286" ry="21.4286"/>
<text text-anchor="middle" x="115.859" y="-154.611" font-family="Times New Roman,serif" font-size="20.00">2</text>
</g>
<!-- 5 -->
<g id="node6" class="node"><title>5</title>
<ellipse fill="brown" stroke="black" cx="22.7656" cy="-98.8565" rx="21.4286" ry="21.4286"/>
<text text-anchor="middle" x="22.7656" y="-93.8565" font-family="Times New Roman,serif" font-size="20.00">3</text>
</g>
<!-- 0&#45;&gt;5 -->
<g id="edge3" class="edge"><title>0&#45;&gt;5</title>
<path fill="none" stroke="black" stroke-width="2" d="M97.9096,-147.897C84.1294,-138.903 64.8895,-126.347 49.328,-116.192"/>
<polygon fill="black" stroke="black" stroke-width="2" points="50.9471,-113.069 40.6598,-110.535 47.1214,-118.931 50.9471,-113.069"/>
</g>
<!-- 6 -->
<g id="node7" class="node"><title>6</title>
<ellipse fill="cadetblue" stroke="black" cx="185.054" cy="-90.2945" rx="21.4286" ry="21.4286"/>
<text text-anchor="middle" x="185.054" y="-85.2945" font-family="Times New Roman,serif" font-size="20.00">2</text>
</g>
<!-- 0&#45;&gt;6 -->
<g id="edge4" class="edge"><title>0&#45;&gt;6</title>
<path fill="none" stroke="black" stroke-width="2" d="M130.873,-144.57C140.085,-135.342 152.058,-123.348 162.405,-112.983"/>
<polygon fill="black" stroke="black" stroke-width="2" points="165.002,-115.336 169.59,-105.786 160.048,-110.39 165.002,-115.336"/>
</g>
<!-- 7 -->
<g id="node8" class="node"><title>7</title>
<ellipse fill="brown" stroke="black" cx="117.084" cy="-83.3444" rx="21.4286" ry="21.4286"/>
<text text-anchor="middle" x="117.084" y="-78.3444" font-family="Times New Roman,serif" font-size="20.00">3</text>
</g>
<!-- 0&#45;&gt;7 -->
<g id="edge5" class="edge"><title>0&#45;&gt;7</title>
<path fill="none" stroke="black" stroke-width="2" d="M116.2,-138.366C116.317,-131.072 116.451,-122.746 116.578,-114.816"/>
<polygon fill="black" stroke="black" stroke-width="2" points="120.079,-114.794 116.74,-104.739 113.08,-114.682 120.079,-114.794"/>
</g>
<!-- 1 -->
<g id="node2" class="node"><title>1</title>
<ellipse fill="cadetblue" stroke="black" cx="103.816" cy="-210.042" rx="21.4286" ry="21.4286"/>
<text text-anchor="middle" x="103.816" y="-205.042" font-family="Times New Roman,serif" font-size="20.00">2</text>
</g>
<!-- 1&#45;&gt;5 -->
<g id="edge8" class="edge"><title>1&#45;&gt;5</title>
<path fill="none" stroke="black" stroke-width="2" d="M91.1516,-192.669C77.7689,-174.311 56.5294,-145.174 41.2708,-124.242"/>
<polygon fill="black" stroke="black" stroke-width="2" points="44.0597,-122.126 35.3407,-116.107 38.4031,-126.25 44.0597,-122.126"/>
</g>
<!-- 1&#45;&gt;6 -->
<g id="edge9" class="edge"><title>1&#45;&gt;6</title>
<path fill="none" stroke="black" stroke-width="2" d="M119.571,-195.19C124.609,-190.057 130.021,-184.112 134.442,-178.228 148.457,-159.572 161.52,-136.679 170.863,-118.928"/>
<polygon fill="black" stroke="black" stroke-width="2" points="174.173,-120.146 175.653,-109.655 167.954,-116.933 174.173,-120.146"/>
</g>
<!-- 2 -->
<g id="node3" class="node"><title>2</title>
<ellipse fill="cadetblue" stroke="black" cx="65.1051" cy="-21.2132" rx="21.4286" ry="21.4286"/>
<text text-anchor="middle" x="65.1051" y="-16.2132" font-family="Times New Roman,serif" font-size="20.00">2</text>
</g>
<!-- 2&#45;&gt;5 -->
<g id="edge11" class="edge"><title>2&#45;&gt;5</title>
<path fill="none" stroke="black" stroke-width="2" d="M54.8559,-40.0085C49.7967,-49.2861 43.5917,-60.665 37.9908,-70.9361"/>
<polygon fill="black" stroke="black" stroke-width="2" points="34.7819,-69.51 33.0672,-79.9652 40.9276,-72.8613 34.7819,-69.51"/>
</g>
<!-- 3 -->
<g id="node4" class="node"><title>3</title>
<ellipse fill="cadetblue" stroke="black" cx="205.613" cy="-176.964" rx="21.4286" ry="21.4286"/>
<text text-anchor="middle" x="205.613" y="-171.964" font-family="Times New Roman,serif" font-size="20.00">2</text>
</g>
<!-- 3&#45;&gt;0 -->
<g id="edge1" class="edge"><title>3&#45;&gt;0</title>
<path fill="none" stroke="black" stroke-width="2" d="M184.342,-172.851C173.165,-170.69 159.255,-168.001 146.898,-165.612"/>
<polygon fill="black" stroke="black" stroke-width="2" points="147.459,-162.155 136.977,-163.693 146.13,-169.028 147.459,-162.155"/>
</g>
<!-- 3&#45;&gt;1 -->
<g id="edge6" class="edge"><title>3&#45;&gt;1</title>
<path fill="none" stroke="black" stroke-width="2" d="M185.013,-183.657C170.291,-188.441 150.252,-194.953 133.765,-200.31"/>
<polygon fill="black" stroke="black" stroke-width="2" points="132.467,-197.052 124.038,-203.471 134.63,-203.709 132.467,-197.052"/>
</g>
<!-- 4 -->
<g id="node5" class="node"><title>4</title>
<ellipse fill="cadetblue" stroke="black" cx="21.2132" cy="-155.617" rx="21.4286" ry="21.4286"/>
<text text-anchor="middle" x="21.2132" y="-150.617" font-family="Times New Roman,serif" font-size="20.00">2</text>
</g>
<!-- 4&#45;&gt;0 -->
<g id="edge2" class="edge"><title>4&#45;&gt;0</title>
<path fill="none" stroke="black" stroke-width="2" d="M42.6898,-156.523C55.0328,-157.044 70.7599,-157.708 84.4678,-158.286"/>
<polygon fill="black" stroke="black" stroke-width="2" points="84.3286,-161.783 94.4673,-158.708 84.6238,-154.789 84.3286,-161.783"/>
</g>
<!-- 4&#45;&gt;1 -->
<g id="edge7" class="edge"><title>4&#45;&gt;1</title>
<path fill="none" stroke="black" stroke-width="2" d="M39.1367,-167.426C50.2858,-174.772 64.8239,-184.351 77.2922,-192.566"/>
<polygon fill="black" stroke="black" stroke-width="2" points="75.6511,-195.676 85.9272,-198.256 79.5025,-189.831 75.6511,-195.676"/>
</g>
<!-- 4&#45;&gt;2 -->
<g id="edge10" class="edge"><title>4&#45;&gt;2</title>
<path fill="none" stroke="black" stroke-width="2" d="M31.5491,-136.802C34.781,-130.712 38.2835,-123.891 41.2825,-117.539 45.1027,-109.448 46.4232,-107.521 49.0697,-98.9737 53.761,-83.8219 57.4748,-66.5803 60.1419,-52.189"/>
<polygon fill="black" stroke="black" stroke-width="2" points="63.5984,-52.7417 61.898,-42.2842 56.7059,-51.5196 63.5984,-52.7417"/>
</g>
<!-- 5&#45;&gt;4 -->
<g id="edge15" class="edge"><title>5&#45;&gt;4</title>
<path fill="none" stroke="black" stroke-width="2" d="M22.1787,-120.315C22.1478,-121.445 22.1165,-122.591 22.0849,-123.745"/>
<polygon fill="black" stroke="black" stroke-width="2" points="18.5757,-124.036 21.8009,-134.128 25.5731,-124.227 18.5757,-124.036"/>
</g>
<!-- 5&#45;&gt;7 -->
<g id="edge17" class="edge"><title>5&#45;&gt;7</title>
<path fill="none" stroke="black" stroke-width="2" d="M43.6978,-95.4139C56.0665,-93.3796 71.9646,-90.765 85.7991,-88.4897"/>
<polygon fill="black" stroke="black" stroke-width="2" points="86.5843,-91.9076 95.8837,-86.8311 85.4482,-85.0004 86.5843,-91.9076"/>
</g>
<!-- 6&#45;&gt;2 -->
<g id="edge12" class="edge"><title>6&#45;&gt;2</title>
<path fill="none" stroke="black" stroke-width="2" d="M166.575,-79.652C146.821,-68.2756 115.289,-50.1151 92.6157,-37.0573"/>
<polygon fill="black" stroke="black" stroke-width="2" points="94.2152,-33.9395 83.8028,-31.9817 90.7217,-40.0054 94.2152,-33.9395"/>
</g>
<!-- 6&#45;&gt;3 -->
<g id="edge13" class="edge"><title>6&#45;&gt;3</title>
<path fill="none" stroke="black" stroke-width="2" d="M190.031,-111.275C192.531,-121.814 195.607,-134.782 198.364,-146.405"/>
<polygon fill="black" stroke="black" stroke-width="2" points="194.968,-147.254 200.682,-156.177 201.779,-145.639 194.968,-147.254"/>
</g>
<!-- 6&#45;&gt;7 -->
<g id="edge18" class="edge"><title>6&#45;&gt;7</title>
<path fill="none" stroke="black" stroke-width="2" d="M163.92,-88.1336C159.107,-87.6415 153.891,-87.1081 148.746,-86.582"/>
<polygon fill="black" stroke="black" stroke-width="2" points="148.742,-83.0635 138.438,-85.528 148.03,-90.0272 148.742,-83.0635"/>
</g>
<!-- 7&#45;&gt;3 -->
<g id="edge14" class="edge"><title>7&#45;&gt;3</title>
<path fill="none" stroke="black" stroke-width="2" d="M131.702,-98.8037C145.927,-113.846 167.711,-136.882 183.949,-154.054"/>
<polygon fill="black" stroke="black" stroke-width="2" points="181.558,-156.62 190.972,-161.481 186.645,-151.811 181.558,-156.62"/>
</g>
<!-- 7&#45;&gt;4 -->
<g id="edge16" class="edge"><title>7&#45;&gt;4</title>
<path fill="none" stroke="black" stroke-width="2" d="M99.9438,-96.2653C85.0839,-107.468 63.3767,-123.832 46.5171,-136.541"/>
<polygon fill="black" stroke="black" stroke-width="2" points="44.0828,-133.993 38.2045,-142.808 48.2966,-139.583 44.0828,-133.993"/>
</g>
</g>
</svg>

