<?xml version="1.0" encoding="UTF-8" standalone="no"?>
<!DOCTYPE svg PUBLIC "-//W3C//DTD SVG 1.1//EN"
 "http://www.w3.org/Graphics/SVG/1.1/DTD/svg11.dtd">
<!-- Generated by graphviz version 2.36.0 (20140111.2315)
 -->
<!-- Title: G Pages: 1 -->
<svg width="100%" height="100%"
 viewBox="0.00 0.00 291.65 258.34" xmlns="http://www.w3.org/2000/svg" xmlns:xlink="http://www.w3.org/1999/xlink">
<g id="graph0" class="graph" transform="scale(1 1) rotate(0) translate(4 254.343)">
<title>G</title>
<!-- 0 -->
<g id="node1" class="node"><title>0</title>
<ellipse fill="cadetblue" stroke="black" cx="83.0478" cy="-50.5583" rx="21.4286" ry="21.4286"/>
<text text-anchor="middle" x="83.0478" y="-45.5583" font-family="Times New Roman,serif" font-size="20.00">2</text>
</g>
<!-- 5 -->
<g id="node6" class="node"><title>5</title>
<ellipse fill="brown" stroke="black" cx="21.2132" cy="-160.745" rx="21.4286" ry="21.4286"/>
<text text-anchor="middle" x="21.2132" y="-155.745" font-family="Times New Roman,serif" font-size="20.00">3</text>
</g>
<!-- 0&#45;&gt;5 -->
<g id="edge3" class="edge"><title>0&#45;&gt;5</title>
<path fill="none" stroke="black" stroke-width="2" d="M72.5584,-69.2499C62.7424,-86.7417 47.9537,-113.094 36.765,-133.032"/>
<polygon fill="black" stroke="black" stroke-width="2" points="33.5958,-131.528 31.7541,-141.961 39.7002,-134.954 33.5958,-131.528"/>
</g>
<!-- 6 -->
<g id="node7" class="node"><title>6</title>
<ellipse fill="cadetblue" stroke="black" cx="229.147" cy="-121.052" rx="21.4286" ry="21.4286"/>
<text text-anchor="middle" x="229.147" y="-116.052" font-family="Times New Roman,serif" font-size="20.00">2</text>
</g>
<!-- 0&#45;&gt;6 -->
<g id="edge4" class="edge"><title>0&#45;&gt;6</title>
<path fill="none" stroke="black" stroke-width="2" d="M102.449,-59.9194C127.554,-72.0329 171.501,-93.2377 200.466,-107.214"/>
<polygon fill="black" stroke="black" stroke-width="2" points="199.139,-110.459 209.666,-111.653 202.181,-104.155 199.139,-110.459"/>
</g>
<!-- 1 -->
<g id="node2" class="node"><title>1</title>
<ellipse fill="cadetblue" stroke="black" cx="214.177" cy="-229.13" rx="21.4286" ry="21.4286"/>
<text text-anchor="middle" x="214.177" y="-224.13" font-family="Times New Roman,serif" font-size="20.00">2</text>
</g>
<!-- 3 -->
<g id="node4" class="node"><title>3</title>
<ellipse fill="cadetblue" stroke="black" cx="111.608" cy="-187.846" rx="21.4286" ry="21.4286"/>
<text text-anchor="middle" x="111.608" y="-182.846" font-family="Times New Roman,serif" font-size="20.00">2</text>
</g>
<!-- 1&#45;&gt;3 -->
<g id="edge5" class="edge"><title>1&#45;&gt;3</title>
<path fill="none" stroke="black" stroke-width="2" d="M194.401,-221.17C179.218,-215.059 158.019,-206.527 140.874,-199.626"/>
<polygon fill="black" stroke="black" stroke-width="2" points="141.907,-196.269 131.323,-195.782 139.293,-202.763 141.907,-196.269"/>
</g>
<!-- 1&#45;&gt;5 -->
<g id="edge7" class="edge"><title>1&#45;&gt;5</title>
<path fill="none" stroke="black" stroke-width="2" d="M192.802,-228.84C167.579,-227.686 125.017,-223.139 92.9399,-206.378 77.3161,-198.215 60.6581,-187.736 47.3318,-178.879"/>
<polygon fill="black" stroke="black" stroke-width="2" points="48.9401,-175.742 38.6918,-173.054 45.0273,-181.546 48.9401,-175.742"/>
</g>
<!-- 2 -->
<g id="node3" class="node"><title>2</title>
<ellipse fill="cadetblue" stroke="black" cx="133.479" cy="-21.2132" rx="21.4286" ry="21.4286"/>
<text text-anchor="middle" x="133.479" y="-16.2132" font-family="Times New Roman,serif" font-size="20.00">2</text>
</g>
<!-- 4 -->
<g id="node5" class="node"><title>4</title>
<ellipse fill="cadetblue" stroke="black" cx="262.435" cy="-33.0267" rx="21.4286" ry="21.4286"/>
<text text-anchor="middle" x="262.435" y="-28.0267" font-family="Times New Roman,serif" font-size="20.00">2</text>
</g>
<!-- 2&#45;&gt;4 -->
<g id="edge10" class="edge"><title>2&#45;&gt;4</title>
<path fill="none" stroke="black" stroke-width="2" d="M154.774,-23.164C175.494,-25.0621 207.225,-27.9689 230.878,-30.1358"/>
<polygon fill="black" stroke="black" stroke-width="2" points="230.832,-33.6461 241.109,-31.073 231.47,-26.6753 230.832,-33.6461"/>
</g>
<!-- 2&#45;&gt;5 -->
<g id="edge11" class="edge"><title>2&#45;&gt;5</title>
<path fill="none" stroke="black" stroke-width="2" d="M122.222,-39.3904C116.353,-48.5396 108.89,-59.6825 101.591,-69.2147 83.0828,-93.3856 59.974,-119.315 43.291,-137.382"/>
<polygon fill="black" stroke="black" stroke-width="2" points="40.3647,-135.389 36.1175,-145.096 45.4906,-140.156 40.3647,-135.389"/>
</g>
<!-- 3&#45;&gt;0 -->
<g id="edge1" class="edge"><title>3&#45;&gt;0</title>
<path fill="none" stroke="black" stroke-width="2" d="M107.27,-166.995C102.552,-144.316 94.9597,-107.819 89.5329,-81.732"/>
<polygon fill="black" stroke="black" stroke-width="2" points="92.8897,-80.6831 87.4263,-71.6056 86.0364,-82.1089 92.8897,-80.6831"/>
</g>
<!-- 3&#45;&gt;2 -->
<g id="edge9" class="edge"><title>3&#45;&gt;2</title>
<path fill="none" stroke="black" stroke-width="2" d="M114.378,-166.742C118.164,-137.899 124.983,-85.9438 129.367,-52.5468"/>
<polygon fill="black" stroke="black" stroke-width="2" points="132.866,-52.779 130.697,-42.4086 125.926,-51.868 132.866,-52.779"/>
</g>
<!-- 3&#45;&gt;6 -->
<g id="edge14" class="edge"><title>3&#45;&gt;6</title>
<path fill="none" stroke="black" stroke-width="2" d="M130.232,-177.262C149.49,-166.319 179.764,-149.115 201.751,-136.621"/>
<polygon fill="black" stroke="black" stroke-width="2" points="203.645,-139.57 210.61,-131.586 200.186,-133.484 203.645,-139.57"/>
</g>
<!-- 4&#45;&gt;0 -->
<g id="edge2" class="edge"><title>4&#45;&gt;0</title>
<path fill="none" stroke="black" stroke-width="2" d="M241.017,-35.7758C215.453,-38.9774 171.395,-44.2441 133.455,-47.5176 127.412,-48.039 120.953,-48.5007 114.745,-48.8968"/>
<polygon fill="black" stroke="black" stroke-width="2" points="114.425,-45.4096 104.652,-49.5006 114.843,-52.3971 114.425,-45.4096"/>
</g>
<!-- 4&#45;&gt;1 -->
<g id="edge6" class="edge"><title>4&#45;&gt;1</title>
<path fill="none" stroke="black" stroke-width="2" d="M262.449,-54.3306C262.059,-72.3727 260.534,-98.8168 255.45,-121.312 249.166,-149.116 237.126,-179.303 227.665,-200.644"/>
<polygon fill="black" stroke="black" stroke-width="2" points="224.462,-199.233 223.53,-209.787 230.84,-202.118 224.462,-199.233"/>
</g>
<!-- 5&#45;&gt;3 -->
<g id="edge13" class="edge"><title>5&#45;&gt;3</title>
<path fill="none" stroke="black" stroke-width="2" d="M41.7251,-166.895C53.3982,-170.394 68.2402,-174.844 81.241,-178.742"/>
<polygon fill="black" stroke="black" stroke-width="2" points="80.593,-182.201 91.1769,-181.721 82.6033,-175.496 80.593,-182.201"/>
</g>
<!-- 6&#45;&gt;1 -->
<g id="edge8" class="edge"><title>6&#45;&gt;1</title>
<path fill="none" stroke="black" stroke-width="2" d="M226.225,-142.147C224.02,-158.067 220.961,-180.154 218.477,-198.087"/>
<polygon fill="black" stroke="black" stroke-width="2" points="214.997,-197.703 217.092,-208.088 221.931,-198.663 214.997,-197.703"/>
</g>
<!-- 6&#45;&gt;2 -->
<g id="edge12" class="edge"><title>6&#45;&gt;2</title>
<path fill="none" stroke="black" stroke-width="2" d="M214.199,-105.452C198.473,-89.0406 173.555,-63.0365 155.563,-44.2594"/>
<polygon fill="black" stroke="black" stroke-width="2" points="157.768,-41.5023 148.322,-36.7035 152.714,-46.3454 157.768,-41.5023"/>
</g>
<!-- 6&#45;&gt;4 -->
<g id="edge15" class="edge"><title>6&#45;&gt;4</title>
<path fill="none" stroke="black" stroke-width="2" d="M236.701,-101.078C240.999,-89.7107 246.465,-75.2577 251.253,-62.5976"/>
<polygon fill="black" stroke="black" stroke-width="2" points="254.648,-63.5136 254.912,-52.922 248.101,-61.0375 254.648,-63.5136"/>
</g>
</g>
</svg>

