<?xml version="1.0" encoding="UTF-8" standalone="no"?>
<!DOCTYPE svg PUBLIC "-//W3C//DTD SVG 1.1//EN"
 "http://www.w3.org/Graphics/SVG/1.1/DTD/svg11.dtd">
<!-- Generated by graphviz version 2.36.0 (20140111.2315)
 -->
<!-- Title: G Pages: 1 -->
<svg width="100%" height="100%"
 viewBox="0.00 0.00 256.68 247.07" xmlns="http://www.w3.org/2000/svg" xmlns:xlink="http://www.w3.org/1999/xlink">
<g id="graph0" class="graph" transform="scale(1 1) rotate(0) translate(4 243.067)">
<title>G</title>
<!-- 0 -->
<g id="node1" class="node"><title>0</title>
<ellipse fill="cadetblue" stroke="black" cx="213.792" cy="-193.771" rx="21.4286" ry="21.4286"/>
<text text-anchor="middle" x="213.792" y="-188.771" font-family="Times New Roman,serif" font-size="20.00">2</text>
</g>
<!-- 6 -->
<g id="node7" class="node"><title>6</title>
<ellipse fill="cadetblue" stroke="black" cx="148.028" cy="-108.103" rx="21.4286" ry="21.4286"/>
<text text-anchor="middle" x="148.028" y="-103.103" font-family="Times New Roman,serif" font-size="20.00">2</text>
</g>
<!-- 0&#45;&gt;6 -->
<g id="edge3" class="edge"><title>0&#45;&gt;6</title>
<path fill="none" stroke="black" stroke-width="2" d="M200.799,-176.846C191.251,-164.409 178.12,-147.303 167.345,-133.267"/>
<polygon fill="black" stroke="black" stroke-width="2" points="169.859,-130.794 160.994,-124.993 164.307,-135.057 169.859,-130.794"/>
</g>
<!-- 7 -->
<g id="node8" class="node"><title>7</title>
<ellipse fill="brown" stroke="black" cx="133.193" cy="-167.422" rx="21.4286" ry="21.4286"/>
<text text-anchor="middle" x="133.193" y="-162.422" font-family="Times New Roman,serif" font-size="20.00">3</text>
</g>
<!-- 0&#45;&gt;7 -->
<g id="edge4" class="edge"><title>0&#45;&gt;7</title>
<path fill="none" stroke="black" stroke-width="2" d="M193.453,-187.122C184.289,-184.127 173.283,-180.529 163.199,-177.232"/>
<polygon fill="black" stroke="black" stroke-width="2" points="164.117,-173.85 153.525,-174.069 161.942,-180.503 164.117,-173.85"/>
</g>
<!-- 1 -->
<g id="node2" class="node"><title>1</title>
<ellipse fill="cadetblue" stroke="black" cx="21.2132" cy="-190.747" rx="21.4286" ry="21.4286"/>
<text text-anchor="middle" x="21.2132" y="-185.747" font-family="Times New Roman,serif" font-size="20.00">2</text>
</g>
<!-- 1&#45;&gt;7 -->
<g id="edge7" class="edge"><title>1&#45;&gt;7</title>
<path fill="none" stroke="black" stroke-width="2" d="M42.0132,-186.415C58.9551,-182.886 83.126,-177.851 102.325,-173.852"/>
<polygon fill="black" stroke="black" stroke-width="2" points="103.048,-177.277 112.124,-171.811 101.62,-170.424 103.048,-177.277"/>
</g>
<!-- 2 -->
<g id="node3" class="node"><title>2</title>
<ellipse fill="cadetblue" stroke="black" cx="135.431" cy="-21.2132" rx="21.4286" ry="21.4286"/>
<text text-anchor="middle" x="135.431" y="-16.2132" font-family="Times New Roman,serif" font-size="20.00">2</text>
</g>
<!-- 4 -->
<g id="node5" class="node"><title>4</title>
<ellipse fill="cadetblue" stroke="black" cx="227.47" cy="-92.3868" rx="21.4286" ry="21.4286"/>
<text text-anchor="middle" x="227.47" y="-87.3868" font-family="Times New Roman,serif" font-size="20.00">2</text>
</g>
<!-- 2&#45;&gt;4 -->
<g id="edge8" class="edge"><title>2&#45;&gt;4</title>
<path fill="none" stroke="black" stroke-width="2" d="M152.312,-34.2675C166.236,-45.0353 186.207,-60.4784 202.063,-72.7397"/>
<polygon fill="black" stroke="black" stroke-width="2" points="200.332,-75.8256 210.384,-79.1742 204.614,-70.2881 200.332,-75.8256"/>
</g>
<!-- 3 -->
<g id="node4" class="node"><title>3</title>
<ellipse fill="cadetblue" stroke="black" cx="104.072" cy="-217.854" rx="21.4286" ry="21.4286"/>
<text text-anchor="middle" x="104.072" y="-212.854" font-family="Times New Roman,serif" font-size="20.00">2</text>
</g>
<!-- 3&#45;&gt;0 -->
<g id="edge1" class="edge"><title>3&#45;&gt;0</title>
<path fill="none" stroke="black" stroke-width="2" d="M124.968,-213.267C141.364,-209.668 164.434,-204.605 182.953,-200.54"/>
<polygon fill="black" stroke="black" stroke-width="2" points="183.957,-203.903 192.974,-198.341 182.456,-197.066 183.957,-203.903"/>
</g>
<!-- 3&#45;&gt;1 -->
<g id="edge5" class="edge"><title>3&#45;&gt;1</title>
<path fill="none" stroke="black" stroke-width="2" d="M83.5904,-211.153C73.757,-207.936 61.7871,-204.02 50.9723,-200.483"/>
<polygon fill="black" stroke="black" stroke-width="2" points="52.0523,-197.153 41.4597,-197.371 49.8757,-203.806 52.0523,-197.153"/>
</g>
<!-- 3&#45;&gt;7 -->
<g id="edge13" class="edge"><title>3&#45;&gt;7</title>
<path fill="none" stroke="black" stroke-width="2" d="M114.75,-199.361C115.621,-197.854 116.511,-196.312 117.408,-194.759"/>
<polygon fill="black" stroke="black" stroke-width="2" points="120.546,-196.323 122.516,-185.913 114.484,-192.822 120.546,-196.323"/>
</g>
<!-- 4&#45;&gt;0 -->
<g id="edge2" class="edge"><title>4&#45;&gt;0</title>
<path fill="none" stroke="black" stroke-width="2" d="M224.569,-113.888C222.67,-127.962 220.157,-146.589 218.035,-162.316"/>
<polygon fill="black" stroke="black" stroke-width="2" points="214.51,-162.271 216.641,-172.649 221.447,-163.207 214.51,-162.271"/>
</g>
<!-- 5 -->
<g id="node6" class="node"><title>5</title>
<ellipse fill="cadetblue" stroke="black" cx="58.6361" cy="-106.103" rx="21.4286" ry="21.4286"/>
<text text-anchor="middle" x="58.6361" y="-101.103" font-family="Times New Roman,serif" font-size="20.00">2</text>
</g>
<!-- 5&#45;&gt;1 -->
<g id="edge6" class="edge"><title>5&#45;&gt;1</title>
<path fill="none" stroke="black" stroke-width="2" d="M49.9565,-125.735C45.186,-136.525 39.1804,-150.109 33.8939,-162.066"/>
<polygon fill="black" stroke="black" stroke-width="2" points="30.6884,-160.66 29.8458,-171.222 37.0906,-163.491 30.6884,-160.66"/>
</g>
<!-- 5&#45;&gt;2 -->
<g id="edge9" class="edge"><title>5&#45;&gt;2</title>
<path fill="none" stroke="black" stroke-width="2" d="M73.0806,-90.136C84.665,-77.3304 101.092,-59.1713 114.177,-44.7069"/>
<polygon fill="black" stroke="black" stroke-width="2" points="116.938,-46.8726 121.051,-37.1088 111.747,-42.1766 116.938,-46.8726"/>
</g>
<!-- 5&#45;&gt;3 -->
<g id="edge11" class="edge"><title>5&#45;&gt;3</title>
<path fill="none" stroke="black" stroke-width="2" d="M66.6546,-125.825C73.7159,-143.192 84.0976,-168.726 92.1354,-188.495"/>
<polygon fill="black" stroke="black" stroke-width="2" points="88.9725,-190.008 95.9812,-197.954 95.457,-187.372 88.9725,-190.008"/>
</g>
<!-- 6&#45;&gt;2 -->
<g id="edge10" class="edge"><title>6&#45;&gt;2</title>
<path fill="none" stroke="black" stroke-width="2" d="M144.979,-87.0696C143.473,-76.6871 141.627,-63.953 139.961,-52.4587"/>
<polygon fill="black" stroke="black" stroke-width="2" points="143.394,-51.7486 138.496,-42.3543 136.467,-52.7531 143.394,-51.7486"/>
</g>
<!-- 6&#45;&gt;3 -->
<g id="edge12" class="edge"><title>6&#45;&gt;3</title>
<path fill="none" stroke="black" stroke-width="2" d="M132.746,-123.067C122.728,-134.178 110.79,-150.315 106.888,-167.421 105.514,-173.446 104.683,-179.975 104.2,-186.275"/>
<polygon fill="black" stroke="black" stroke-width="2" points="100.691,-186.366 103.682,-196.53 107.682,-186.72 100.691,-186.366"/>
</g>
<!-- 6&#45;&gt;5 -->
<g id="edge15" class="edge"><title>6&#45;&gt;5</title>
<path fill="none" stroke="black" stroke-width="2" d="M126.389,-107.619C115.518,-107.376 102.142,-107.077 90.1551,-106.808"/>
<polygon fill="black" stroke="black" stroke-width="2" points="90.152,-103.308 80.0761,-106.583 89.9953,-110.306 90.152,-103.308"/>
</g>
<!-- 7&#45;&gt;4 -->
<g id="edge14" class="edge"><title>7&#45;&gt;4</title>
<path fill="none" stroke="black" stroke-width="2" d="M150.047,-154.007C164.66,-142.377 186.007,-125.387 202.586,-112.192"/>
<polygon fill="black" stroke="black" stroke-width="2" points="205.116,-114.651 210.761,-105.685 200.757,-109.174 205.116,-114.651"/>
</g>
<!-- 7&#45;&gt;5 -->
<g id="edge16" class="edge"><title>7&#45;&gt;5</title>
<path fill="none" stroke="black" stroke-width="2" d="M116.646,-153.814C106.8,-145.716 94.1259,-135.292 83.1366,-126.254"/>
<polygon fill="black" stroke="black" stroke-width="2" points="85.083,-123.323 75.1363,-119.674 80.6365,-128.729 85.083,-123.323"/>
</g>
<!-- 7&#45;&gt;6 -->
<g id="edge17" class="edge"><title>7&#45;&gt;6</title>
<path fill="none" stroke="black" stroke-width="2" d="M138.381,-146.675C139.033,-144.071 139.709,-141.367 140.388,-138.652"/>
<polygon fill="black" stroke="black" stroke-width="2" points="143.786,-139.489 142.817,-128.939 136.995,-137.791 143.786,-139.489"/>
</g>
</g>
</svg>

