<?xml version="1.0" encoding="UTF-8" standalone="no"?>
<!DOCTYPE svg PUBLIC "-//W3C//DTD SVG 1.1//EN"
 "http://www.w3.org/Graphics/SVG/1.1/DTD/svg11.dtd">
<!-- Generated by graphviz version 2.36.0 (20140111.2315)
 -->
<!-- Title: G Pages: 1 -->
<svg width="100%" height="100%"
 viewBox="0.00 0.00 215.97 285.79" xmlns="http://www.w3.org/2000/svg" xmlns:xlink="http://www.w3.org/1999/xlink">
<g id="graph0" class="graph" transform="scale(1 1) rotate(0) translate(4 281.788)">
<title>G</title>
<!-- 0 -->
<g id="node1" class="node"><title>0</title>
<ellipse fill="cadetblue" stroke="black" cx="111.143" cy="-157.838" rx="21.4286" ry="21.4286"/>
<text text-anchor="middle" x="111.143" y="-152.838" font-family="Times New Roman,serif" font-size="20.00">2</text>
</g>
<!-- 5 -->
<g id="node6" class="node"><title>5</title>
<ellipse fill="cadetblue" stroke="black" cx="21.2132" cy="-97.2066" rx="21.4286" ry="21.4286"/>
<text text-anchor="middle" x="21.2132" y="-92.2066" font-family="Times New Roman,serif" font-size="20.00">2</text>
</g>
<!-- 0&#45;&gt;5 -->
<g id="edge3" class="edge"><title>0&#45;&gt;5</title>
<path fill="none" stroke="black" stroke-width="2" d="M93.3754,-145.859C80.3193,-137.056 62.3628,-124.95 47.6286,-115.016"/>
<polygon fill="black" stroke="black" stroke-width="2" points="49.1916,-111.849 38.9434,-109.16 45.2784,-117.653 49.1916,-111.849"/>
</g>
<!-- 6 -->
<g id="node7" class="node"><title>6</title>
<ellipse fill="cadetblue" stroke="black" cx="161.574" cy="-182.257" rx="21.4286" ry="21.4286"/>
<text text-anchor="middle" x="161.574" y="-177.257" font-family="Times New Roman,serif" font-size="20.00">2</text>
</g>
<!-- 0&#45;&gt;6 -->
<g id="edge4" class="edge"><title>0&#45;&gt;6</title>
<path fill="none" stroke="black" stroke-width="2" d="M130.496,-167.209C131.347,-167.621 132.207,-168.037 133.073,-168.456"/>
<polygon fill="black" stroke="black" stroke-width="2" points="131.829,-171.743 142.355,-172.951 134.88,-165.443 131.829,-171.743"/>
</g>
<!-- 7 -->
<g id="node8" class="node"><title>7</title>
<ellipse fill="cadetblue" stroke="black" cx="86.7976" cy="-102.11" rx="21.4286" ry="21.4286"/>
<text text-anchor="middle" x="86.7976" y="-97.1099" font-family="Times New Roman,serif" font-size="20.00">2</text>
</g>
<!-- 0&#45;&gt;7 -->
<g id="edge5" class="edge"><title>0&#45;&gt;7</title>
<path fill="none" stroke="black" stroke-width="2" d="M102.628,-138.347C101.596,-135.985 100.526,-133.535 99.4501,-131.073"/>
<polygon fill="black" stroke="black" stroke-width="2" points="102.559,-129.447 95.3486,-121.684 96.1446,-132.249 102.559,-129.447"/>
</g>
<!-- 1 -->
<g id="node2" class="node"><title>1</title>
<ellipse fill="cadetblue" stroke="black" cx="47.4932" cy="-191.274" rx="21.4286" ry="21.4286"/>
<text text-anchor="middle" x="47.4932" y="-186.274" font-family="Times New Roman,serif" font-size="20.00">2</text>
</g>
<!-- 3 -->
<g id="node4" class="node"><title>3</title>
<ellipse fill="cadetblue" stroke="black" cx="111.705" cy="-256.575" rx="21.4286" ry="21.4286"/>
<text text-anchor="middle" x="111.705" y="-251.575" font-family="Times New Roman,serif" font-size="20.00">2</text>
</g>
<!-- 1&#45;&gt;3 -->
<g id="edge6" class="edge"><title>1&#45;&gt;3</title>
<path fill="none" stroke="black" stroke-width="2" d="M62.3861,-206.42C70.3746,-214.544 80.3817,-224.721 89.2904,-233.78"/>
<polygon fill="black" stroke="black" stroke-width="2" points="86.9399,-236.382 96.4468,-241.058 91.9311,-231.474 86.9399,-236.382"/>
</g>
<!-- 1&#45;&gt;7 -->
<g id="edge9" class="edge"><title>1&#45;&gt;7</title>
<path fill="none" stroke="black" stroke-width="2" d="M56.2161,-171.486C61.4938,-159.513 68.3134,-144.042 74.173,-130.75"/>
<polygon fill="black" stroke="black" stroke-width="2" points="77.4033,-132.098 78.2343,-121.536 70.998,-129.275 77.4033,-132.098"/>
</g>
<!-- 2 -->
<g id="node3" class="node"><title>2</title>
<ellipse fill="cadetblue" stroke="black" cx="101.575" cy="-21.2132" rx="21.4286" ry="21.4286"/>
<text text-anchor="middle" x="101.575" y="-16.2132" font-family="Times New Roman,serif" font-size="20.00">2</text>
</g>
<!-- 4 -->
<g id="node5" class="node"><title>4</title>
<ellipse fill="cadetblue" stroke="black" cx="186.756" cy="-88.706" rx="21.4286" ry="21.4286"/>
<text text-anchor="middle" x="186.756" y="-83.706" font-family="Times New Roman,serif" font-size="20.00">2</text>
</g>
<!-- 2&#45;&gt;4 -->
<g id="edge10" class="edge"><title>2&#45;&gt;4</title>
<path fill="none" stroke="black" stroke-width="2" d="M118.404,-34.5476C130.771,-44.3463 147.779,-57.8228 161.735,-68.881"/>
<polygon fill="black" stroke="black" stroke-width="2" points="159.951,-71.9322 169.962,-75.3993 164.298,-66.4457 159.951,-71.9322"/>
</g>
<!-- 3&#45;&gt;0 -->
<g id="edge1" class="edge"><title>3&#45;&gt;0</title>
<path fill="none" stroke="black" stroke-width="2" d="M111.583,-235.151C111.507,-221.824 111.408,-204.446 111.323,-189.542"/>
<polygon fill="black" stroke="black" stroke-width="2" points="114.821,-189.2 111.264,-179.22 107.821,-189.24 114.821,-189.2"/>
</g>
<!-- 4&#45;&gt;0 -->
<g id="edge2" class="edge"><title>4&#45;&gt;0</title>
<path fill="none" stroke="black" stroke-width="2" d="M171.089,-103.03C160.515,-112.698 146.372,-125.628 134.48,-136.501"/>
<polygon fill="black" stroke="black" stroke-width="2" points="132.068,-133.963 127.05,-143.294 136.792,-139.129 132.068,-133.963"/>
</g>
<!-- 5&#45;&gt;1 -->
<g id="edge7" class="edge"><title>5&#45;&gt;1</title>
<path fill="none" stroke="black" stroke-width="2" d="M27.0456,-118.083C30.5744,-130.714 35.1342,-147.036 39.0521,-161.06"/>
<polygon fill="black" stroke="black" stroke-width="2" points="35.7059,-162.09 41.7676,-170.78 42.4477,-160.207 35.7059,-162.09"/>
</g>
<!-- 5&#45;&gt;2 -->
<g id="edge11" class="edge"><title>5&#45;&gt;2</title>
<path fill="none" stroke="black" stroke-width="2" d="M36.7078,-82.5543C48.6034,-71.3054 65.2121,-55.5996 78.6454,-42.8965"/>
<polygon fill="black" stroke="black" stroke-width="2" points="81.2671,-45.2344 86.1281,-35.8205 76.4575,-40.1483 81.2671,-45.2344"/>
</g>
<!-- 6&#45;&gt;1 -->
<g id="edge8" class="edge"><title>6&#45;&gt;1</title>
<path fill="none" stroke="black" stroke-width="2" d="M140.384,-183.932C123.124,-185.296 98.4994,-187.243 78.9401,-188.789"/>
<polygon fill="black" stroke="black" stroke-width="2" points="78.6503,-185.301 68.9572,-189.578 79.202,-192.279 78.6503,-185.301"/>
</g>
<!-- 6&#45;&gt;3 -->
<g id="edge13" class="edge"><title>6&#45;&gt;3</title>
<path fill="none" stroke="black" stroke-width="2" d="M149.502,-200.248C143.438,-209.285 135.976,-220.405 129.288,-230.371"/>
<polygon fill="black" stroke="black" stroke-width="2" points="126.331,-228.496 123.666,-238.75 132.144,-232.397 126.331,-228.496"/>
</g>
<!-- 6&#45;&gt;4 -->
<g id="edge14" class="edge"><title>6&#45;&gt;4</title>
<path fill="none" stroke="black" stroke-width="2" d="M167.163,-161.495C170.488,-149.141 174.769,-133.238 178.481,-119.449"/>
<polygon fill="black" stroke="black" stroke-width="2" points="181.963,-119.976 181.183,-109.41 175.204,-118.157 181.963,-119.976"/>
</g>
<!-- 7&#45;&gt;2 -->
<g id="edge12" class="edge"><title>7&#45;&gt;2</title>
<path fill="none" stroke="black" stroke-width="2" d="M90.6802,-80.8552C92.2753,-72.1231 94.1543,-61.8374 95.8985,-52.289"/>
<polygon fill="black" stroke="black" stroke-width="2" points="99.3644,-52.7921 97.7185,-42.3259 92.4784,-51.5341 99.3644,-52.7921"/>
</g>
<!-- 7&#45;&gt;5 -->
<g id="edge15" class="edge"><title>7&#45;&gt;5</title>
<path fill="none" stroke="black" stroke-width="2" d="M65.3228,-100.504C61.3185,-100.205 57.0576,-99.8864 52.823,-99.5698"/>
<polygon fill="black" stroke="black" stroke-width="2" points="52.7454,-96.0544 42.5122,-98.799 52.2234,-103.035 52.7454,-96.0544"/>
</g>
<!-- 7&#45;&gt;6 -->
<g id="edge16" class="edge"><title>7&#45;&gt;6</title>
<path fill="none" stroke="black" stroke-width="2" d="M103.896,-115.415C112.105,-122.163 121.851,-130.721 129.76,-139.255 134.595,-144.472 139.384,-150.416 143.723,-156.186"/>
<polygon fill="black" stroke="black" stroke-width="2" points="140.995,-158.385 149.71,-164.41 146.654,-154.265 140.995,-158.385"/>
</g>
</g>
</svg>

