<?xml version="1.0" encoding="UTF-8" standalone="no"?>
<!DOCTYPE svg PUBLIC "-//W3C//DTD SVG 1.1//EN"
 "http://www.w3.org/Graphics/SVG/1.1/DTD/svg11.dtd">
<!-- Generated by graphviz version 2.36.0 (20140111.2315)
 -->
<!-- Title: G Pages: 1 -->
<svg width="100%" height="100%"
 viewBox="0.00 0.00 302.36 263.59" xmlns="http://www.w3.org/2000/svg" xmlns:xlink="http://www.w3.org/1999/xlink">
<g id="graph0" class="graph" transform="scale(1 1) rotate(0) translate(4 259.59)">
<title>G</title>
<!-- 0 -->
<g id="node1" class="node"><title>0</title>
<ellipse fill="cadetblue" stroke="black" cx="65.2516" cy="-21.2132" rx="21.4286" ry="21.4286"/>
<text text-anchor="middle" x="65.2516" y="-16.2132" font-family="Times New Roman,serif" font-size="20.00">2</text>
</g>
<!-- 6 -->
<g id="node7" class="node"><title>6</title>
<ellipse fill="cadetblue" stroke="black" cx="21.2132" cy="-129.359" rx="21.4286" ry="21.4286"/>
<text text-anchor="middle" x="21.2132" y="-124.359" font-family="Times New Roman,serif" font-size="20.00">2</text>
</g>
<!-- 0&#45;&gt;6 -->
<g id="edge3" class="edge"><title>0&#45;&gt;6</title>
<path fill="none" stroke="black" stroke-width="2" d="M57.1742,-41.0488C50.4078,-57.6653 40.6574,-81.6095 33.016,-100.375"/>
<polygon fill="black" stroke="black" stroke-width="2" points="29.7693,-99.0676 29.2393,-109.649 36.2523,-101.708 29.7693,-99.0676"/>
</g>
<!-- 7 -->
<g id="node8" class="node"><title>7</title>
<ellipse fill="brown" stroke="black" cx="190.011" cy="-29.6005" rx="21.4286" ry="21.4286"/>
<text text-anchor="middle" x="190.011" y="-24.6005" font-family="Times New Roman,serif" font-size="20.00">3</text>
</g>
<!-- 0&#45;&gt;7 -->
<g id="edge4" class="edge"><title>0&#45;&gt;7</title>
<path fill="none" stroke="black" stroke-width="2" d="M86.6984,-22.655C106.546,-23.9893 136.292,-25.9891 158.776,-27.5007"/>
<polygon fill="black" stroke="black" stroke-width="2" points="158.632,-30.9988 168.844,-28.1775 159.101,-24.0145 158.632,-30.9988"/>
</g>
<!-- 1 -->
<g id="node2" class="node"><title>1</title>
<ellipse fill="cadetblue" stroke="black" cx="96.706" cy="-234.377" rx="21.4286" ry="21.4286"/>
<text text-anchor="middle" x="96.706" y="-229.377" font-family="Times New Roman,serif" font-size="20.00">2</text>
</g>
<!-- 1&#45;&gt;6 -->
<g id="edge7" class="edge"><title>1&#45;&gt;6</title>
<path fill="none" stroke="black" stroke-width="2" d="M84.2399,-217.035C72.11,-200.162 53.5341,-174.321 39.6871,-155.058"/>
<polygon fill="black" stroke="black" stroke-width="2" points="42.3767,-152.803 33.6978,-146.726 36.6929,-156.889 42.3767,-152.803"/>
</g>
<!-- 2 -->
<g id="node3" class="node"><title>2</title>
<ellipse fill="cadetblue" stroke="black" cx="273.146" cy="-86.1837" rx="21.4286" ry="21.4286"/>
<text text-anchor="middle" x="273.146" y="-81.1837" font-family="Times New Roman,serif" font-size="20.00">2</text>
</g>
<!-- 2&#45;&gt;7 -->
<g id="edge10" class="edge"><title>2&#45;&gt;7</title>
<path fill="none" stroke="black" stroke-width="2" d="M255.515,-74.1838C244.052,-66.3819 228.905,-56.0725 216.064,-47.3328"/>
<polygon fill="black" stroke="black" stroke-width="2" points="217.852,-44.3163 207.616,-41.5831 213.914,-50.1031 217.852,-44.3163"/>
</g>
<!-- 3 -->
<g id="node4" class="node"><title>3</title>
<ellipse fill="cadetblue" stroke="black" cx="104.583" cy="-132.655" rx="21.4286" ry="21.4286"/>
<text text-anchor="middle" x="104.583" y="-127.655" font-family="Times New Roman,serif" font-size="20.00">2</text>
</g>
<!-- 3&#45;&gt;0 -->
<g id="edge1" class="edge"><title>3&#45;&gt;0</title>
<path fill="none" stroke="black" stroke-width="2" d="M97.46,-112.474C91.39,-95.2747 82.5837,-70.3226 75.7129,-50.8547"/>
<polygon fill="black" stroke="black" stroke-width="2" points="78.9498,-49.5094 72.3211,-41.2443 72.3488,-51.8391 78.9498,-49.5094"/>
</g>
<!-- 3&#45;&gt;1 -->
<g id="edge5" class="edge"><title>3&#45;&gt;1</title>
<path fill="none" stroke="black" stroke-width="2" d="M102.912,-154.228C101.819,-168.348 100.372,-187.038 99.1497,-202.817"/>
<polygon fill="black" stroke="black" stroke-width="2" points="95.6295,-202.944 98.347,-213.184 102.609,-203.484 95.6295,-202.944"/>
</g>
<!-- 3&#45;&gt;7 -->
<g id="edge13" class="edge"><title>3&#45;&gt;7</title>
<path fill="none" stroke="black" stroke-width="2" d="M124.617,-125.307C137.469,-119.726 153.718,-110.933 164.56,-98.8149 174.057,-88.1989 180.106,-73.7373 183.911,-60.7778"/>
<polygon fill="black" stroke="black" stroke-width="2" points="187.374,-61.3678 186.504,-50.8087 180.599,-59.6057 187.374,-61.3678"/>
</g>
<!-- 4 -->
<g id="node5" class="node"><title>4</title>
<ellipse fill="cadetblue" stroke="black" cx="146.144" cy="-80.032" rx="21.4286" ry="21.4286"/>
<text text-anchor="middle" x="146.144" y="-75.032" font-family="Times New Roman,serif" font-size="20.00">2</text>
</g>
<!-- 4&#45;&gt;0 -->
<g id="edge2" class="edge"><title>4&#45;&gt;0</title>
<path fill="none" stroke="black" stroke-width="2" d="M128.592,-67.2692C117.492,-59.1982 102.962,-48.6333 90.6188,-39.6583"/>
<polygon fill="black" stroke="black" stroke-width="2" points="92.6382,-36.7992 82.4919,-33.749 88.5216,-42.4608 92.6382,-36.7992"/>
</g>
<!-- 4&#45;&gt;2 -->
<g id="edge8" class="edge"><title>4&#45;&gt;2</title>
<path fill="none" stroke="black" stroke-width="2" d="M167.401,-81.0616C187.732,-82.0464 218.634,-83.5432 241.791,-84.6649"/>
<polygon fill="black" stroke="black" stroke-width="2" points="241.661,-88.1626 251.819,-85.1506 242,-81.1708 241.661,-88.1626"/>
</g>
<!-- 5 -->
<g id="node6" class="node"><title>5</title>
<ellipse fill="cadetblue" stroke="black" cx="205.185" cy="-166.493" rx="21.4286" ry="21.4286"/>
<text text-anchor="middle" x="205.185" y="-161.493" font-family="Times New Roman,serif" font-size="20.00">2</text>
</g>
<!-- 4&#45;&gt;5 -->
<g id="edge14" class="edge"><title>4&#45;&gt;5</title>
<path fill="none" stroke="black" stroke-width="2" d="M158.378,-97.9468C166.745,-110.201 177.974,-126.644 187.336,-140.354"/>
<polygon fill="black" stroke="black" stroke-width="2" points="184.64,-142.613 193.17,-148.897 190.421,-138.665 184.64,-142.613"/>
</g>
<!-- 5&#45;&gt;1 -->
<g id="edge6" class="edge"><title>5&#45;&gt;1</title>
<path fill="none" stroke="black" stroke-width="2" d="M186.783,-178.009C169.38,-188.9 143.066,-205.366 123.366,-217.694"/>
<polygon fill="black" stroke="black" stroke-width="2" points="121.457,-214.76 114.836,-223.032 125.17,-220.694 121.457,-214.76"/>
</g>
<!-- 5&#45;&gt;2 -->
<g id="edge9" class="edge"><title>5&#45;&gt;2</title>
<path fill="none" stroke="black" stroke-width="2" d="M218.938,-150.241C228.702,-138.703 241.97,-123.024 252.935,-110.066"/>
<polygon fill="black" stroke="black" stroke-width="2" points="255.625,-112.306 259.413,-102.411 250.282,-107.784 255.625,-112.306"/>
</g>
<!-- 5&#45;&gt;3 -->
<g id="edge11" class="edge"><title>5&#45;&gt;3</title>
<path fill="none" stroke="black" stroke-width="2" d="M184.827,-159.646C170.373,-154.784 150.732,-148.178 134.5,-142.718"/>
<polygon fill="black" stroke="black" stroke-width="2" points="135.505,-139.363 124.911,-139.492 133.273,-145.998 135.505,-139.363"/>
</g>
<!-- 6&#45;&gt;3 -->
<g id="edge12" class="edge"><title>6&#45;&gt;3</title>
<path fill="none" stroke="black" stroke-width="2" d="M42.6829,-130.208C51.9212,-130.573 62.9073,-131.007 73.0418,-131.408"/>
<polygon fill="black" stroke="black" stroke-width="2" points="73.0552,-134.911 83.1857,-131.809 73.3318,-127.917 73.0552,-134.911"/>
</g>
<!-- 6&#45;&gt;4 -->
<g id="edge15" class="edge"><title>6&#45;&gt;4</title>
<path fill="none" stroke="black" stroke-width="2" d="M41.0089,-121.543C61.3574,-113.509 93.2777,-100.905 116.612,-91.6924"/>
<polygon fill="black" stroke="black" stroke-width="2" points="118.012,-94.9027 126.028,-87.9748 115.441,-88.3918 118.012,-94.9027"/>
</g>
<!-- 7&#45;&gt;4 -->
<g id="edge16" class="edge"><title>7&#45;&gt;4</title>
<path fill="none" stroke="black" stroke-width="2" d="M175.89,-45.835C172.994,-49.1643 169.889,-52.7339 166.817,-56.2655"/>
<polygon fill="black" stroke="black" stroke-width="2" points="164.161,-53.9858 160.239,-63.828 169.443,-58.5799 164.161,-53.9858"/>
</g>
<!-- 7&#45;&gt;5 -->
<g id="edge17" class="edge"><title>7&#45;&gt;5</title>
<path fill="none" stroke="black" stroke-width="2" d="M192.349,-50.69C194.848,-73.2337 198.837,-109.221 201.705,-135.096"/>
<polygon fill="black" stroke="black" stroke-width="2" points="198.239,-135.601 202.82,-145.154 205.197,-134.83 198.239,-135.601"/>
</g>
</g>
</svg>

