<?xml version="1.0" encoding="UTF-8" standalone="no"?>
<!DOCTYPE svg PUBLIC "-//W3C//DTD SVG 1.1//EN"
 "http://www.w3.org/Graphics/SVG/1.1/DTD/svg11.dtd">
<!-- Generated by graphviz version 2.36.0 (20140111.2315)
 -->
<!-- Title: G Pages: 1 -->
<svg width="100%" height="100%"
 viewBox="0.00 0.00 331.48 307.96" xmlns="http://www.w3.org/2000/svg" xmlns:xlink="http://www.w3.org/1999/xlink">
<g id="graph0" class="graph" transform="scale(1 1) rotate(0) translate(4 303.961)">
<title>G</title>
<!-- 0 -->
<g id="node1" class="node"><title>0</title>
<ellipse fill="cadetblue" stroke="black" cx="141.347" cy="-278.748" rx="21.4286" ry="21.4286"/>
<text text-anchor="middle" x="141.347" y="-273.748" font-family="Times New Roman,serif" font-size="20.00">2</text>
</g>
<!-- 5 -->
<g id="node6" class="node"><title>5</title>
<ellipse fill="cadetblue" stroke="black" cx="21.2132" cy="-162.875" rx="21.4286" ry="21.4286"/>
<text text-anchor="middle" x="21.2132" y="-157.875" font-family="Times New Roman,serif" font-size="20.00">2</text>
</g>
<!-- 0&#45;&gt;5 -->
<g id="edge3" class="edge"><title>0&#45;&gt;5</title>
<path fill="none" stroke="black" stroke-width="2" d="M125.641,-263.6C104.752,-243.451 67.6879,-207.702 43.7987,-184.66"/>
<polygon fill="black" stroke="black" stroke-width="2" points="46.17,-182.084 36.5426,-177.661 41.3104,-187.122 46.17,-182.084"/>
</g>
<!-- 6 -->
<g id="node7" class="node"><title>6</title>
<ellipse fill="cadetblue" stroke="black" cx="88.1328" cy="-143.281" rx="21.4286" ry="21.4286"/>
<text text-anchor="middle" x="88.1328" y="-138.281" font-family="Times New Roman,serif" font-size="20.00">2</text>
</g>
<!-- 0&#45;&gt;6 -->
<g id="edge4" class="edge"><title>0&#45;&gt;6</title>
<path fill="none" stroke="black" stroke-width="2" d="M133.495,-258.76C124.574,-236.049 109.929,-198.767 99.6999,-172.727"/>
<polygon fill="black" stroke="black" stroke-width="2" points="102.931,-171.379 96.0169,-163.351 96.4155,-173.939 102.931,-171.379"/>
</g>
<!-- 7 -->
<g id="node8" class="node"><title>7</title>
<ellipse fill="cadetblue" stroke="black" cx="201.669" cy="-138.451" rx="21.4286" ry="21.4286"/>
<text text-anchor="middle" x="201.669" y="-133.451" font-family="Times New Roman,serif" font-size="20.00">2</text>
</g>
<!-- 0&#45;&gt;7 -->
<g id="edge5" class="edge"><title>0&#45;&gt;7</title>
<path fill="none" stroke="black" stroke-width="2" d="M149.734,-259.241C159.941,-235.502 177.271,-195.197 189.081,-167.73"/>
<polygon fill="black" stroke="black" stroke-width="2" points="192.424,-168.815 193.158,-158.245 185.993,-166.05 192.424,-168.815"/>
</g>
<!-- 1 -->
<g id="node2" class="node"><title>1</title>
<ellipse fill="cadetblue" stroke="black" cx="191.778" cy="-229.656" rx="21.4286" ry="21.4286"/>
<text text-anchor="middle" x="191.778" y="-224.656" font-family="Times New Roman,serif" font-size="20.00">2</text>
</g>
<!-- 4 -->
<g id="node5" class="node"><title>4</title>
<ellipse fill="cadetblue" stroke="black" cx="302.27" cy="-245.712" rx="21.4286" ry="21.4286"/>
<text text-anchor="middle" x="302.27" y="-240.712" font-family="Times New Roman,serif" font-size="20.00">2</text>
</g>
<!-- 1&#45;&gt;4 -->
<g id="edge6" class="edge"><title>1&#45;&gt;4</title>
<path fill="none" stroke="black" stroke-width="2" d="M212.821,-232.714C229.228,-235.098 252.27,-238.446 270.858,-241.148"/>
<polygon fill="black" stroke="black" stroke-width="2" points="270.53,-244.637 280.93,-242.611 271.537,-237.709 270.53,-244.637"/>
</g>
<!-- 1&#45;&gt;7 -->
<g id="edge9" class="edge"><title>1&#45;&gt;7</title>
<path fill="none" stroke="black" stroke-width="2" d="M194.072,-208.502C195.312,-197.073 196.867,-182.736 198.246,-170.013"/>
<polygon fill="black" stroke="black" stroke-width="2" points="201.755,-170.125 199.353,-159.806 194.795,-169.37 201.755,-170.125"/>
</g>
<!-- 2 -->
<g id="node3" class="node"><title>2</title>
<ellipse fill="cadetblue" stroke="black" cx="100.606" cy="-21.2132" rx="21.4286" ry="21.4286"/>
<text text-anchor="middle" x="100.606" y="-16.2132" font-family="Times New Roman,serif" font-size="20.00">2</text>
</g>
<!-- 2&#45;&gt;6 -->
<g id="edge11" class="edge"><title>2&#45;&gt;6</title>
<path fill="none" stroke="black" stroke-width="2" d="M98.4336,-42.4757C96.4781,-61.6123 93.5785,-89.9882 91.3535,-111.763"/>
<polygon fill="black" stroke="black" stroke-width="2" points="87.8573,-111.548 90.3225,-121.852 94.821,-112.26 87.8573,-111.548"/>
</g>
<!-- 3 -->
<g id="node4" class="node"><title>3</title>
<ellipse fill="cadetblue" stroke="black" cx="32.588" cy="-267.358" rx="21.4286" ry="21.4286"/>
<text text-anchor="middle" x="32.588" y="-262.358" font-family="Times New Roman,serif" font-size="20.00">2</text>
</g>
<!-- 3&#45;&gt;0 -->
<g id="edge1" class="edge"><title>3&#45;&gt;0</title>
<path fill="none" stroke="black" stroke-width="2" d="M53.816,-269.581C69.8355,-271.259 92.0619,-273.587 110.108,-275.477"/>
<polygon fill="black" stroke="black" stroke-width="2" points="109.862,-278.97 120.172,-276.531 110.591,-272.008 109.862,-278.97"/>
</g>
<!-- 3&#45;&gt;5 -->
<g id="edge13" class="edge"><title>3&#45;&gt;5</title>
<path fill="none" stroke="black" stroke-width="2" d="M30.2861,-246.215C28.6518,-231.203 26.4312,-210.805 24.5959,-193.947"/>
<polygon fill="black" stroke="black" stroke-width="2" points="28.0734,-193.55 23.5116,-183.987 21.1146,-194.308 28.0734,-193.55"/>
</g>
<!-- 4&#45;&gt;0 -->
<g id="edge2" class="edge"><title>4&#45;&gt;0</title>
<path fill="none" stroke="black" stroke-width="2" d="M281.232,-250.031C253.447,-255.735 204.302,-265.824 172.282,-272.398"/>
<polygon fill="black" stroke="black" stroke-width="2" points="171.227,-269.041 162.135,-274.481 172.634,-275.898 171.227,-269.041"/>
</g>
<!-- 5&#45;&gt;1 -->
<g id="edge7" class="edge"><title>5&#45;&gt;1</title>
<path fill="none" stroke="black" stroke-width="2" d="M41.113,-170.666C71.0263,-182.378 127.76,-204.591 162.43,-218.165"/>
<polygon fill="black" stroke="black" stroke-width="2" points="161.417,-221.527 172.005,-221.914 163.97,-215.009 161.417,-221.527"/>
</g>
<!-- 5&#45;&gt;2 -->
<g id="edge10" class="edge"><title>5&#45;&gt;2</title>
<path fill="none" stroke="black" stroke-width="2" d="M31.5925,-144.355C45.2628,-119.963 69.4134,-76.8711 85.2135,-48.6787"/>
<polygon fill="black" stroke="black" stroke-width="2" points="88.3887,-50.1722 90.2245,-39.7376 82.2823,-46.7499 88.3887,-50.1722"/>
</g>
<!-- 6&#45;&gt;1 -->
<g id="edge8" class="edge"><title>6&#45;&gt;1</title>
<path fill="none" stroke="black" stroke-width="2" d="M104.785,-157.158C121.709,-171.262 148.108,-193.262 167.388,-209.33"/>
<polygon fill="black" stroke="black" stroke-width="2" points="165.244,-212.099 175.167,-215.813 169.726,-206.722 165.244,-212.099"/>
</g>
<!-- 6&#45;&gt;3 -->
<g id="edge14" class="edge"><title>6&#45;&gt;3</title>
<path fill="none" stroke="black" stroke-width="2" d="M79.4539,-162.668C70.3767,-182.945 56.0251,-215.004 45.5932,-238.307"/>
<polygon fill="black" stroke="black" stroke-width="2" points="42.2807,-237.141 41.3892,-247.698 48.6697,-240.001 42.2807,-237.141"/>
</g>
<!-- 7&#45;&gt;2 -->
<g id="edge12" class="edge"><title>7&#45;&gt;2</title>
<path fill="none" stroke="black" stroke-width="2" d="M187.617,-122.15C170.345,-102.113 140.898,-67.9533 121.103,-44.9901"/>
<polygon fill="black" stroke="black" stroke-width="2" points="123.72,-42.6652 114.539,-37.3762 118.418,-47.2357 123.72,-42.6652"/>
</g>
<!-- 7&#45;&gt;3 -->
<g id="edge15" class="edge"><title>7&#45;&gt;3</title>
<path fill="none" stroke="black" stroke-width="2" d="M184.526,-151.521C154.574,-174.356 92.5912,-221.612 57.7594,-248.168"/>
<polygon fill="black" stroke="black" stroke-width="2" points="55.3553,-245.599 49.5249,-254.446 59.5993,-251.166 55.3553,-245.599"/>
</g>
<!-- 7&#45;&gt;4 -->
<g id="edge16" class="edge"><title>7&#45;&gt;4</title>
<path fill="none" stroke="black" stroke-width="2" d="M216.513,-154.278C233.476,-172.363 261.384,-202.119 280.735,-222.752"/>
<polygon fill="black" stroke="black" stroke-width="2" points="278.299,-225.27 287.692,-230.169 283.404,-220.481 278.299,-225.27"/>
</g>
</g>
</svg>

