<?xml version="1.0" encoding="UTF-8" standalone="no"?>
<!DOCTYPE svg PUBLIC "-//W3C//DTD SVG 1.1//EN"
 "http://www.w3.org/Graphics/SVG/1.1/DTD/svg11.dtd">
<!-- Generated by graphviz version 2.36.0 (20140111.2315)
 -->
<!-- Title: G Pages: 1 -->
<svg width="100%" height="100%"
 viewBox="0.00 0.00 205.78 283.48" xmlns="http://www.w3.org/2000/svg" xmlns:xlink="http://www.w3.org/1999/xlink">
<g id="graph0" class="graph" transform="scale(1 1) rotate(0) translate(4 279.483)">
<title>G</title>
<!-- 0 -->
<g id="node1" class="node"><title>0</title>
<ellipse fill="cadetblue" stroke="black" cx="55.527" cy="-201.63" rx="21.4286" ry="21.4286"/>
<text text-anchor="middle" x="55.527" y="-196.63" font-family="Times New Roman,serif" font-size="20.00">2</text>
</g>
<!-- 5 -->
<g id="node6" class="node"><title>5</title>
<ellipse fill="cadetblue" stroke="black" cx="21.2132" cy="-89.9363" rx="21.4286" ry="21.4286"/>
<text text-anchor="middle" x="21.2132" y="-84.9363" font-family="Times New Roman,serif" font-size="20.00">2</text>
</g>
<!-- 0&#45;&gt;5 -->
<g id="edge3" class="edge"><title>0&#45;&gt;5</title>
<path fill="none" stroke="black" stroke-width="2" d="M49.2333,-181.144C43.961,-163.982 36.3637,-139.252 30.4097,-119.872"/>
<polygon fill="black" stroke="black" stroke-width="2" points="33.7494,-118.824 27.467,-110.293 27.058,-120.88 33.7494,-118.824"/>
</g>
<!-- 6 -->
<g id="node7" class="node"><title>6</title>
<ellipse fill="cadetblue" stroke="black" cx="123.502" cy="-95.8545" rx="21.4286" ry="21.4286"/>
<text text-anchor="middle" x="123.502" y="-90.8545" font-family="Times New Roman,serif" font-size="20.00">2</text>
</g>
<!-- 0&#45;&gt;6 -->
<g id="edge4" class="edge"><title>0&#45;&gt;6</title>
<path fill="none" stroke="black" stroke-width="2" d="M71.6472,-187.675C78.462,-181.216 86.1258,-173.15 91.8368,-164.887 100.26,-152.699 107.389,-137.912 112.737,-125.155"/>
<polygon fill="black" stroke="black" stroke-width="2" points="115.987,-126.455 116.472,-115.872 109.493,-123.843 115.987,-126.455"/>
</g>
<!-- 7 -->
<g id="node8" class="node"><title>7</title>
<ellipse fill="brown" stroke="black" cx="73.2376" cy="-146.286" rx="21.4286" ry="21.4286"/>
<text text-anchor="middle" x="73.2376" y="-141.286" font-family="Times New Roman,serif" font-size="20.00">3</text>
</g>
<!-- 0&#45;&gt;7 -->
<g id="edge5" class="edge"><title>0&#45;&gt;7</title>
<path fill="none" stroke="black" stroke-width="2" d="M62.0212,-181.336C62.5506,-179.682 63.0922,-177.99 63.6375,-176.285"/>
<polygon fill="black" stroke="black" stroke-width="2" points="67.0298,-177.168 66.7442,-166.577 60.3628,-175.035 67.0298,-177.168"/>
</g>
<!-- 1 -->
<g id="node2" class="node"><title>1</title>
<ellipse fill="cadetblue" stroke="black" cx="176.563" cy="-53.8051" rx="21.4286" ry="21.4286"/>
<text text-anchor="middle" x="176.563" y="-48.8051" font-family="Times New Roman,serif" font-size="20.00">2</text>
</g>
<!-- 1&#45;&gt;5 -->
<g id="edge7" class="edge"><title>1&#45;&gt;5</title>
<path fill="none" stroke="black" stroke-width="2" d="M155.612,-58.6779C128.899,-64.8907 82.5062,-75.6808 51.8296,-82.8156"/>
<polygon fill="black" stroke="black" stroke-width="2" points="51.027,-79.4087 42.0799,-85.0832 52.6128,-86.2268 51.027,-79.4087"/>
</g>
<!-- 2 -->
<g id="node3" class="node"><title>2</title>
<ellipse fill="cadetblue" stroke="black" cx="52.0874" cy="-21.2132" rx="21.4286" ry="21.4286"/>
<text text-anchor="middle" x="52.0874" y="-16.2132" font-family="Times New Roman,serif" font-size="20.00">2</text>
</g>
<!-- 2&#45;&gt;7 -->
<g id="edge11" class="edge"><title>2&#45;&gt;7</title>
<path fill="none" stroke="black" stroke-width="2" d="M55.6275,-42.1476C59.0132,-62.169 64.1595,-92.6022 68.0159,-115.407"/>
<polygon fill="black" stroke="black" stroke-width="2" points="64.5676,-116.007 69.686,-125.283 71.4696,-114.84 64.5676,-116.007"/>
</g>
<!-- 3 -->
<g id="node4" class="node"><title>3</title>
<ellipse fill="cadetblue" stroke="black" cx="124.035" cy="-254.27" rx="21.4286" ry="21.4286"/>
<text text-anchor="middle" x="124.035" y="-249.27" font-family="Times New Roman,serif" font-size="20.00">2</text>
</g>
<!-- 3&#45;&gt;0 -->
<g id="edge1" class="edge"><title>3&#45;&gt;0</title>
<path fill="none" stroke="black" stroke-width="2" d="M107.1,-241.258C99.173,-235.167 89.5665,-227.785 80.8035,-221.052"/>
<polygon fill="black" stroke="black" stroke-width="2" points="82.8045,-218.176 72.7425,-214.858 78.5395,-223.726 82.8045,-218.176"/>
</g>
<!-- 4 -->
<g id="node5" class="node"><title>4</title>
<ellipse fill="cadetblue" stroke="black" cx="171.985" cy="-171.138" rx="21.4286" ry="21.4286"/>
<text text-anchor="middle" x="171.985" y="-166.138" font-family="Times New Roman,serif" font-size="20.00">2</text>
</g>
<!-- 4&#45;&gt;0 -->
<g id="edge2" class="edge"><title>4&#45;&gt;0</title>
<path fill="none" stroke="black" stroke-width="2" d="M151.433,-176.519C133.334,-181.258 106.724,-188.225 86.1228,-193.619"/>
<polygon fill="black" stroke="black" stroke-width="2" points="85.0528,-190.281 76.2655,-196.2 86.8259,-197.053 85.0528,-190.281"/>
</g>
<!-- 4&#45;&gt;1 -->
<g id="edge6" class="edge"><title>4&#45;&gt;1</title>
<path fill="none" stroke="black" stroke-width="2" d="M172.814,-149.89C173.516,-131.894 174.533,-105.836 175.33,-85.396"/>
<polygon fill="black" stroke="black" stroke-width="2" points="178.832,-85.4204 175.724,-75.2915 171.837,-85.1474 178.832,-85.4204"/>
</g>
<!-- 4&#45;&gt;3 -->
<g id="edge12" class="edge"><title>4&#45;&gt;3</title>
<path fill="none" stroke="black" stroke-width="2" d="M161.343,-189.587C155.011,-200.565 146.859,-214.698 139.792,-226.951"/>
<polygon fill="black" stroke="black" stroke-width="2" points="136.611,-225.46 134.647,-235.871 142.675,-228.958 136.611,-225.46"/>
</g>
<!-- 5&#45;&gt;2 -->
<g id="edge9" class="edge"><title>5&#45;&gt;2</title>
<path fill="none" stroke="black" stroke-width="2" d="M29.9779,-70.4269C32.7568,-64.2413 35.8929,-57.2607 38.9112,-50.5423"/>
<polygon fill="black" stroke="black" stroke-width="2" points="42.2881,-51.5662 43.1936,-41.0101 35.9029,-48.6976 42.2881,-51.5662"/>
</g>
<!-- 5&#45;&gt;7 -->
<g id="edge16" class="edge"><title>5&#45;&gt;7</title>
<path fill="none" stroke="black" stroke-width="2" d="M35.7049,-105.633C40.6657,-111.006 46.3271,-117.138 51.7223,-122.982"/>
<polygon fill="black" stroke="black" stroke-width="2" points="49.4685,-125.7 58.8236,-130.674 54.6118,-120.952 49.4685,-125.7"/>
</g>
<!-- 6&#45;&gt;1 -->
<g id="edge8" class="edge"><title>6&#45;&gt;1</title>
<path fill="none" stroke="black" stroke-width="2" d="M140.29,-82.5498C143.968,-79.6354 147.936,-76.4912 151.85,-73.3891"/>
<polygon fill="black" stroke="black" stroke-width="2" points="154.037,-76.1216 159.701,-67.1676 149.69,-70.6354 154.037,-76.1216"/>
</g>
<!-- 6&#45;&gt;2 -->
<g id="edge10" class="edge"><title>6&#45;&gt;2</title>
<path fill="none" stroke="black" stroke-width="2" d="M108.704,-80.3888C98.6504,-69.8803 85.1813,-55.8026 73.9028,-44.0145"/>
<polygon fill="black" stroke="black" stroke-width="2" points="76.3076,-41.4651 66.8655,-36.6591 71.2497,-46.3043 76.3076,-41.4651"/>
</g>
<!-- 6&#45;&gt;4 -->
<g id="edge14" class="edge"><title>6&#45;&gt;4</title>
<path fill="none" stroke="black" stroke-width="2" d="M134.991,-113.696C140.926,-122.91 148.285,-134.338 154.873,-144.568"/>
<polygon fill="black" stroke="black" stroke-width="2" points="152.052,-146.651 160.409,-153.164 157.937,-142.861 152.052,-146.651"/>
</g>
<!-- 7&#45;&gt;3 -->
<g id="edge13" class="edge"><title>7&#45;&gt;3</title>
<path fill="none" stroke="black" stroke-width="2" d="M82.3191,-165.591C90.18,-182.302 101.657,-206.7 110.584,-225.676"/>
<polygon fill="black" stroke="black" stroke-width="2" points="107.437,-227.208 114.86,-234.767 113.771,-224.229 107.437,-227.208"/>
</g>
<!-- 7&#45;&gt;4 -->
<g id="edge15" class="edge"><title>7&#45;&gt;4</title>
<path fill="none" stroke="black" stroke-width="2" d="M94.1793,-151.556C107.887,-155.006 126.03,-159.572 141.348,-163.427"/>
<polygon fill="black" stroke="black" stroke-width="2" points="140.86,-166.913 151.412,-165.96 142.568,-160.125 140.86,-166.913"/>
</g>
<!-- 7&#45;&gt;6 -->
<g id="edge17" class="edge"><title>7&#45;&gt;6</title>
<path fill="none" stroke="black" stroke-width="2" d="M88.3184,-131.155C92.3939,-127.066 96.8917,-122.553 101.27,-118.16"/>
<polygon fill="black" stroke="black" stroke-width="2" points="103.851,-120.529 108.431,-110.975 98.893,-115.587 103.851,-120.529"/>
</g>
</g>
</svg>

