<?xml version="1.0" encoding="UTF-8" standalone="no"?>
<!DOCTYPE svg PUBLIC "-//W3C//DTD SVG 1.1//EN"
 "http://www.w3.org/Graphics/SVG/1.1/DTD/svg11.dtd">
<!-- Generated by graphviz version 2.36.0 (20140111.2315)
 -->
<!-- Title: G Pages: 1 -->
<svg width="100%" height="100%"
 viewBox="0.00 0.00 271.44 218.46" xmlns="http://www.w3.org/2000/svg" xmlns:xlink="http://www.w3.org/1999/xlink">
<g id="graph0" class="graph" transform="scale(1 1) rotate(0) translate(4 214.457)">
<title>G</title>
<!-- 0 -->
<g id="node1" class="node"><title>0</title>
<ellipse fill="cadetblue" stroke="black" cx="144.762" cy="-96.4593" rx="21.4286" ry="21.4286"/>
<text text-anchor="middle" x="144.762" y="-91.4593" font-family="Times New Roman,serif" font-size="20.00">2</text>
</g>
<!-- 3 -->
<g id="node4" class="node"><title>3</title>
<ellipse fill="cadetblue" stroke="black" cx="22.4318" cy="-120.107" rx="21.4286" ry="21.4286"/>
<text text-anchor="middle" x="22.4318" y="-115.107" font-family="Times New Roman,serif" font-size="20.00">2</text>
</g>
<!-- 0&#45;&gt;3 -->
<g id="edge1" class="edge"><title>0&#45;&gt;3</title>
<path fill="none" stroke="black" stroke-width="2" d="M123.733,-100.524C104.39,-104.264 75.4585,-109.856 53.4604,-114.109"/>
<polygon fill="black" stroke="black" stroke-width="2" points="52.7501,-110.681 43.5961,-116.015 54.0787,-117.554 52.7501,-110.681"/>
</g>
<!-- 7 -->
<g id="node8" class="node"><title>7</title>
<ellipse fill="cadetblue" stroke="black" cx="88.5763" cy="-37.4139" rx="21.4286" ry="21.4286"/>
<text text-anchor="middle" x="88.5763" y="-32.4139" font-family="Times New Roman,serif" font-size="20.00">2</text>
</g>
<!-- 0&#45;&gt;7 -->
<g id="edge4" class="edge"><title>0&#45;&gt;7</title>
<path fill="none" stroke="black" stroke-width="2" d="M130,-80.9458C124.111,-74.7571 117.205,-67.4992 110.738,-60.703"/>
<polygon fill="black" stroke="black" stroke-width="2" points="112.864,-57.8604 103.435,-53.0288 107.793,-62.6859 112.864,-57.8604"/>
</g>
<!-- 1 -->
<g id="node2" class="node"><title>1</title>
<ellipse fill="cadetblue" stroke="black" cx="21.2132" cy="-48.5629" rx="21.4286" ry="21.4286"/>
<text text-anchor="middle" x="21.2132" y="-43.5629" font-family="Times New Roman,serif" font-size="20.00">2</text>
</g>
<!-- 6 -->
<g id="node7" class="node"><title>6</title>
<ellipse fill="cadetblue" stroke="black" cx="161.732" cy="-21.2132" rx="21.4286" ry="21.4286"/>
<text text-anchor="middle" x="161.732" y="-16.2132" font-family="Times New Roman,serif" font-size="20.00">2</text>
</g>
<!-- 1&#45;&gt;6 -->
<g id="edge7" class="edge"><title>1&#45;&gt;6</title>
<path fill="none" stroke="black" stroke-width="2" d="M37.6383,-34.7383C50.5399,-25.1073 69.4654,-13.5636 88.5775,-11.1095 102.625,-9.30578 118.171,-10.9401 131.307,-13.3812"/>
<polygon fill="black" stroke="black" stroke-width="2" points="130.744,-16.8393 141.249,-15.4616 132.178,-9.98771 130.744,-16.8393"/>
</g>
<!-- 1&#45;&gt;7 -->
<g id="edge8" class="edge"><title>1&#45;&gt;7</title>
<path fill="none" stroke="black" stroke-width="2" d="M42.158,-45.0964C46.9279,-44.307 52.0974,-43.4514 57.1962,-42.6075"/>
<polygon fill="black" stroke="black" stroke-width="2" points="58.1181,-46.0026 67.4124,-40.9167 56.975,-39.0966 58.1181,-46.0026"/>
</g>
<!-- 2 -->
<g id="node3" class="node"><title>2</title>
<ellipse fill="cadetblue" stroke="black" cx="162.054" cy="-146.891" rx="21.4286" ry="21.4286"/>
<text text-anchor="middle" x="162.054" y="-141.891" font-family="Times New Roman,serif" font-size="20.00">2</text>
</g>
<!-- 4 -->
<g id="node5" class="node"><title>4</title>
<ellipse fill="cadetblue" stroke="black" cx="242.227" cy="-89.2974" rx="21.4286" ry="21.4286"/>
<text text-anchor="middle" x="242.227" y="-84.2974" font-family="Times New Roman,serif" font-size="20.00">2</text>
</g>
<!-- 2&#45;&gt;4 -->
<g id="edge9" class="edge"><title>2&#45;&gt;4</title>
<path fill="none" stroke="black" stroke-width="2" d="M179.45,-134.394C190.271,-126.62 204.382,-116.484 216.483,-107.791"/>
<polygon fill="black" stroke="black" stroke-width="2" points="218.785,-110.447 224.864,-101.77 214.701,-104.762 218.785,-110.447"/>
</g>
<!-- 5 -->
<g id="node6" class="node"><title>5</title>
<ellipse fill="cadetblue" stroke="black" cx="54.2532" cy="-189.244" rx="21.4286" ry="21.4286"/>
<text text-anchor="middle" x="54.2532" y="-184.244" font-family="Times New Roman,serif" font-size="20.00">2</text>
</g>
<!-- 2&#45;&gt;5 -->
<g id="edge10" class="edge"><title>2&#45;&gt;5</title>
<path fill="none" stroke="black" stroke-width="2" d="M142.281,-154.659C125.897,-161.096 102.365,-170.341 83.7533,-177.654"/>
<polygon fill="black" stroke="black" stroke-width="2" points="82.2927,-174.467 74.2651,-181.382 84.8525,-180.982 82.2927,-174.467"/>
</g>
<!-- 3&#45;&gt;1 -->
<g id="edge5" class="edge"><title>3&#45;&gt;1</title>
<path fill="none" stroke="black" stroke-width="2" d="M22.0662,-98.6412C21.9674,-92.8403 21.8583,-86.4384 21.7522,-80.206"/>
<polygon fill="black" stroke="black" stroke-width="2" points="25.2484,-79.9522 21.5786,-70.0133 18.2495,-80.0714 25.2484,-79.9522"/>
</g>
<!-- 3&#45;&gt;5 -->
<g id="edge13" class="edge"><title>3&#45;&gt;5</title>
<path fill="none" stroke="black" stroke-width="2" d="M31.4654,-139.734C34.4467,-146.211 37.8268,-153.555 41.0537,-160.566"/>
<polygon fill="black" stroke="black" stroke-width="2" points="37.9466,-162.187 45.3071,-169.807 44.3054,-159.26 37.9466,-162.187"/>
</g>
<!-- 4&#45;&gt;0 -->
<g id="edge2" class="edge"><title>4&#45;&gt;0</title>
<path fill="none" stroke="black" stroke-width="2" d="M220.596,-90.8868C207.509,-91.8485 190.598,-93.0912 176.068,-94.1589"/>
<polygon fill="black" stroke="black" stroke-width="2" points="175.714,-90.6754 165.997,-94.8989 176.227,-97.6566 175.714,-90.6754"/>
</g>
<!-- 5&#45;&gt;1 -->
<g id="edge6" class="edge"><title>5&#45;&gt;1</title>
<path fill="none" stroke="black" stroke-width="2" d="M54.1221,-167.838C53.6521,-154.068 52.308,-135.875 48.7361,-120.15 45.4221,-105.561 39.7153,-89.988 34.3544,-77.1051"/>
<polygon fill="black" stroke="black" stroke-width="2" points="37.5349,-75.6415 30.3677,-67.8388 31.1048,-78.408 37.5349,-75.6415"/>
</g>
<!-- 6&#45;&gt;0 -->
<g id="edge3" class="edge"><title>6&#45;&gt;0</title>
<path fill="none" stroke="black" stroke-width="2" d="M157.005,-42.1734C155.368,-49.4301 153.498,-57.7232 151.72,-65.6063"/>
<polygon fill="black" stroke="black" stroke-width="2" points="148.25,-65.0865 149.464,-75.6115 155.078,-66.6265 148.25,-65.0865"/>
</g>
<!-- 6&#45;&gt;2 -->
<g id="edge11" class="edge"><title>6&#45;&gt;2</title>
<path fill="none" stroke="black" stroke-width="2" d="M166.049,-42.2201C168.722,-57.2714 171.56,-78.055 171.067,-96.4834 170.899,-102.746 170.141,-109.38 169.13,-115.707"/>
<polygon fill="black" stroke="black" stroke-width="2" points="165.613,-115.477 167.249,-125.944 172.498,-116.741 165.613,-115.477"/>
</g>
<!-- 6&#45;&gt;4 -->
<g id="edge15" class="edge"><title>6&#45;&gt;4</title>
<path fill="none" stroke="black" stroke-width="2" d="M178.021,-34.9911C189.586,-44.7731 205.301,-58.065 218.289,-69.0503"/>
<polygon fill="black" stroke="black" stroke-width="2" points="216.066,-71.7544 225.962,-75.54 220.587,-66.4098 216.066,-71.7544"/>
</g>
<!-- 7&#45;&gt;2 -->
<g id="edge12" class="edge"><title>7&#45;&gt;2</title>
<path fill="none" stroke="black" stroke-width="2" d="M95.7224,-57.4399C102.162,-73.8761 112.68,-97.2553 126.145,-115.042 129.394,-119.334 133.29,-123.487 137.298,-127.299"/>
<polygon fill="black" stroke="black" stroke-width="2" points="135.209,-130.125 145.007,-134.155 139.861,-124.894 135.209,-130.125"/>
</g>
<!-- 7&#45;&gt;3 -->
<g id="edge14" class="edge"><title>7&#45;&gt;3</title>
<path fill="none" stroke="black" stroke-width="2" d="M75.1909,-54.148C65.6876,-66.029 52.7743,-82.1729 42.1021,-95.5152"/>
<polygon fill="black" stroke="black" stroke-width="2" points="39.3104,-93.402 35.7972,-103.397 44.7768,-97.7745 39.3104,-93.402"/>
</g>
<!-- 7&#45;&gt;6 -->
<g id="edge16" class="edge"><title>7&#45;&gt;6</title>
<path fill="none" stroke="black" stroke-width="2" d="M109.344,-32.8148C116.062,-31.3269 123.662,-29.6439 130.947,-28.0306"/>
<polygon fill="black" stroke="black" stroke-width="2" points="131.905,-31.4033 140.912,-25.8238 130.392,-24.5689 131.905,-31.4033"/>
</g>
</g>
</svg>

