<?xml version="1.0" encoding="UTF-8" standalone="no"?>
<!DOCTYPE svg PUBLIC "-//W3C//DTD SVG 1.1//EN"
 "http://www.w3.org/Graphics/SVG/1.1/DTD/svg11.dtd">
<!-- Generated by graphviz version 2.36.0 (20140111.2315)
 -->
<!-- Title: G Pages: 1 -->
<svg width="100%" height="100%"
 viewBox="0.00 0.00 221.31 262.01" xmlns="http://www.w3.org/2000/svg" xmlns:xlink="http://www.w3.org/1999/xlink">
<g id="graph0" class="graph" transform="scale(1 1) rotate(0) translate(4 258.012)">
<title>G</title>
<!-- 0 -->
<g id="node1" class="node"><title>0</title>
<ellipse fill="cadetblue" stroke="black" cx="42.2898" cy="-220.652" rx="21.4286" ry="21.4286"/>
<text text-anchor="middle" x="42.2898" y="-215.652" font-family="Times New Roman,serif" font-size="20.00">2</text>
</g>
<!-- 5 -->
<g id="node6" class="node"><title>5</title>
<ellipse fill="cadetblue" stroke="black" cx="21.2132" cy="-137.585" rx="21.4286" ry="21.4286"/>
<text text-anchor="middle" x="21.2132" y="-132.585" font-family="Times New Roman,serif" font-size="20.00">2</text>
</g>
<!-- 0&#45;&gt;5 -->
<g id="edge3" class="edge"><title>0&#45;&gt;5</title>
<path fill="none" stroke="black" stroke-width="2" d="M36.9713,-199.691C34.5316,-190.075 31.5925,-178.492 28.9168,-167.946"/>
<polygon fill="black" stroke="black" stroke-width="2" points="32.3089,-167.084 26.457,-158.252 25.5239,-168.805 32.3089,-167.084"/>
</g>
<!-- 7 -->
<g id="node8" class="node"><title>7</title>
<ellipse fill="cadetblue" stroke="black" cx="64.8026" cy="-87.1533" rx="21.4286" ry="21.4286"/>
<text text-anchor="middle" x="64.8026" y="-82.1533" font-family="Times New Roman,serif" font-size="20.00">2</text>
</g>
<!-- 0&#45;&gt;7 -->
<g id="edge4" class="edge"><title>0&#45;&gt;7</title>
<path fill="none" stroke="black" stroke-width="2" d="M45.8571,-199.499C49.5456,-177.626 55.3441,-143.241 59.5553,-118.27"/>
<polygon fill="black" stroke="black" stroke-width="2" points="63.0404,-118.65 61.2521,-108.208 56.1379,-117.486 63.0404,-118.65"/>
</g>
<!-- 1 -->
<g id="node2" class="node"><title>1</title>
<ellipse fill="cadetblue" stroke="black" cx="128.331" cy="-147.234" rx="21.4286" ry="21.4286"/>
<text text-anchor="middle" x="128.331" y="-142.234" font-family="Times New Roman,serif" font-size="20.00">2</text>
</g>
<!-- 4 -->
<g id="node5" class="node"><title>4</title>
<ellipse fill="cadetblue" stroke="black" cx="192.1" cy="-217.673" rx="21.4286" ry="21.4286"/>
<text text-anchor="middle" x="192.1" y="-212.673" font-family="Times New Roman,serif" font-size="20.00">2</text>
</g>
<!-- 1&#45;&gt;4 -->
<g id="edge5" class="edge"><title>1&#45;&gt;4</title>
<path fill="none" stroke="black" stroke-width="2" d="M142.801,-163.218C151.118,-172.404 161.714,-184.109 170.95,-194.311"/>
<polygon fill="black" stroke="black" stroke-width="2" points="168.381,-196.688 177.687,-201.753 173.57,-191.991 168.381,-196.688"/>
</g>
<!-- 1&#45;&gt;7 -->
<g id="edge8" class="edge"><title>1&#45;&gt;7</title>
<path fill="none" stroke="black" stroke-width="2" d="M112.628,-132.383C105.088,-125.252 95.9108,-116.573 87.6191,-108.731"/>
<polygon fill="black" stroke="black" stroke-width="2" points="89.9961,-106.162 80.3257,-101.834 85.1863,-111.248 89.9961,-106.162"/>
</g>
<!-- 2 -->
<g id="node3" class="node"><title>2</title>
<ellipse fill="cadetblue" stroke="black" cx="102.172" cy="-21.2132" rx="21.4286" ry="21.4286"/>
<text text-anchor="middle" x="102.172" y="-16.2132" font-family="Times New Roman,serif" font-size="20.00">2</text>
</g>
<!-- 6 -->
<g id="node7" class="node"><title>6</title>
<ellipse fill="cadetblue" stroke="black" cx="183.594" cy="-107.732" rx="21.4286" ry="21.4286"/>
<text text-anchor="middle" x="183.594" y="-102.732" font-family="Times New Roman,serif" font-size="20.00">2</text>
</g>
<!-- 2&#45;&gt;6 -->
<g id="edge10" class="edge"><title>2&#45;&gt;6</title>
<path fill="none" stroke="black" stroke-width="2" d="M116.729,-36.6811C129.271,-50.0089 147.558,-69.44 161.838,-84.6144"/>
<polygon fill="black" stroke="black" stroke-width="2" points="159.487,-87.2231 168.889,-92.1068 164.585,-82.4258 159.487,-87.2231"/>
</g>
<!-- 3 -->
<g id="node4" class="node"><title>3</title>
<ellipse fill="cadetblue" stroke="black" cx="112.725" cy="-232.799" rx="21.4286" ry="21.4286"/>
<text text-anchor="middle" x="112.725" y="-227.799" font-family="Times New Roman,serif" font-size="20.00">2</text>
</g>
<!-- 3&#45;&gt;0 -->
<g id="edge1" class="edge"><title>3&#45;&gt;0</title>
<path fill="none" stroke="black" stroke-width="2" d="M91.5918,-229.155C85.8809,-228.17 79.5782,-227.083 73.4424,-226.025"/>
<polygon fill="black" stroke="black" stroke-width="2" points="73.857,-222.545 63.4077,-224.294 72.6674,-229.443 73.857,-222.545"/>
</g>
<!-- 4&#45;&gt;0 -->
<g id="edge2" class="edge"><title>4&#45;&gt;0</title>
<path fill="none" stroke="black" stroke-width="2" d="M171.329,-212.792C155.387,-209.521 132.789,-205.911 112.768,-206.495 99.4161,-206.884 84.9092,-209.422 72.547,-212.245"/>
<polygon fill="black" stroke="black" stroke-width="2" points="71.6228,-208.868 62.7397,-214.642 73.2847,-215.667 71.6228,-208.868"/>
</g>
<!-- 5&#45;&gt;1 -->
<g id="edge6" class="edge"><title>5&#45;&gt;1</title>
<path fill="none" stroke="black" stroke-width="2" d="M42.3763,-139.491C57.8269,-140.883 79.0389,-142.794 96.5246,-144.369"/>
<polygon fill="black" stroke="black" stroke-width="2" points="96.5718,-147.887 106.845,-145.299 97.1999,-140.915 96.5718,-147.887"/>
</g>
<!-- 5&#45;&gt;2 -->
<g id="edge9" class="edge"><title>5&#45;&gt;2</title>
<path fill="none" stroke="black" stroke-width="2" d="M25.4742,-116.785C29.1926,-102.258 35.68,-82.9633 46.2035,-68.5524 54.4353,-57.2798 65.887,-46.9769 76.2884,-38.882"/>
<polygon fill="black" stroke="black" stroke-width="2" points="78.4015,-41.6723 84.3235,-32.8871 74.2155,-36.0618 78.4015,-41.6723"/>
</g>
<!-- 5&#45;&gt;3 -->
<g id="edge12" class="edge"><title>5&#45;&gt;3</title>
<path fill="none" stroke="black" stroke-width="2" d="M35.9161,-152.883C50.6374,-168.2 73.4788,-191.965 90.4304,-209.603"/>
<polygon fill="black" stroke="black" stroke-width="2" points="88.3012,-212.438 97.7542,-217.223 93.3481,-207.588 88.3012,-212.438"/>
</g>
<!-- 6&#45;&gt;1 -->
<g id="edge7" class="edge"><title>6&#45;&gt;1</title>
<path fill="none" stroke="black" stroke-width="2" d="M166.109,-120.231C162.278,-122.969 158.146,-125.922 154.069,-128.837"/>
<polygon fill="black" stroke="black" stroke-width="2" points="151.993,-126.019 145.893,-134.681 156.063,-131.713 151.993,-126.019"/>
</g>
<!-- 6&#45;&gt;3 -->
<g id="edge13" class="edge"><title>6&#45;&gt;3</title>
<path fill="none" stroke="black" stroke-width="2" d="M172.984,-126.456C161.19,-147.271 142.021,-181.099 128.474,-205.005"/>
<polygon fill="black" stroke="black" stroke-width="2" points="125.292,-203.521 123.407,-213.947 131.382,-206.973 125.292,-203.521"/>
</g>
<!-- 6&#45;&gt;4 -->
<g id="edge14" class="edge"><title>6&#45;&gt;4</title>
<path fill="none" stroke="black" stroke-width="2" d="M185.234,-128.93C186.485,-145.1 188.229,-167.635 189.646,-185.95"/>
<polygon fill="black" stroke="black" stroke-width="2" points="186.175,-186.466 190.436,-196.166 193.154,-185.925 186.175,-186.466"/>
</g>
<!-- 7&#45;&gt;2 -->
<g id="edge11" class="edge"><title>7&#45;&gt;2</title>
<path fill="none" stroke="black" stroke-width="2" d="M75.4113,-68.4339C78.9123,-62.2561 82.8818,-55.2517 86.6713,-48.565"/>
<polygon fill="black" stroke="black" stroke-width="2" points="89.7808,-50.1769 91.6663,-39.7512 83.6907,-46.7255 89.7808,-50.1769"/>
</g>
<!-- 7&#45;&gt;5 -->
<g id="edge15" class="edge"><title>7&#45;&gt;5</title>
<path fill="none" stroke="black" stroke-width="2" d="M50.7707,-103.388C47.9709,-106.627 44.9744,-110.094 42.0028,-113.532"/>
<polygon fill="black" stroke="black" stroke-width="2" points="39.1101,-111.526 35.2188,-121.381 44.406,-116.104 39.1101,-111.526"/>
</g>
<!-- 7&#45;&gt;6 -->
<g id="edge16" class="edge"><title>7&#45;&gt;6</title>
<path fill="none" stroke="black" stroke-width="2" d="M85.7667,-90.785C104.228,-93.9833 131.371,-98.6854 152.385,-102.326"/>
<polygon fill="black" stroke="black" stroke-width="2" points="151.989,-105.809 162.44,-104.068 153.184,-98.9121 151.989,-105.809"/>
</g>
</g>
</svg>

