<?xml version="1.0" encoding="UTF-8" standalone="no"?>
<!DOCTYPE svg PUBLIC "-//W3C//DTD SVG 1.1//EN"
 "http://www.w3.org/Graphics/SVG/1.1/DTD/svg11.dtd">
<!-- Generated by graphviz version 2.36.0 (20140111.2315)
 -->
<!-- Title: G Pages: 1 -->
<svg width="100%" height="100%"
 viewBox="0.00 0.00 286.62 311.39" xmlns="http://www.w3.org/2000/svg" xmlns:xlink="http://www.w3.org/1999/xlink">
<g id="graph0" class="graph" transform="scale(1 1) rotate(0) translate(4 307.388)">
<title>G</title>
<!-- 0 -->
<g id="node1" class="node"><title>0</title>
<ellipse fill="cadetblue" stroke="black" cx="144.473" cy="-282.174" rx="21.4286" ry="21.4286"/>
<text text-anchor="middle" x="144.473" y="-277.174" font-family="Times New Roman,serif" font-size="20.00">2</text>
</g>
<!-- 6 -->
<g id="node7" class="node"><title>6</title>
<ellipse fill="cadetblue" stroke="black" cx="184.369" cy="-135.733" rx="21.4286" ry="21.4286"/>
<text text-anchor="middle" x="184.369" y="-130.733" font-family="Times New Roman,serif" font-size="20.00">2</text>
</g>
<!-- 0&#45;&gt;6 -->
<g id="edge3" class="edge"><title>0&#45;&gt;6</title>
<path fill="none" stroke="black" stroke-width="2" d="M150.104,-261.504C156.876,-236.646 168.301,-194.712 176.08,-166.157"/>
<polygon fill="black" stroke="black" stroke-width="2" points="179.514,-166.867 178.766,-156.299 172.76,-165.027 179.514,-166.867"/>
</g>
<!-- 7 -->
<g id="node8" class="node"><title>7</title>
<ellipse fill="brown" stroke="black" cx="133.937" cy="-180.32" rx="21.4286" ry="21.4286"/>
<text text-anchor="middle" x="133.937" y="-175.32" font-family="Times New Roman,serif" font-size="20.00">3</text>
</g>
<!-- 0&#45;&gt;7 -->
<g id="edge4" class="edge"><title>0&#45;&gt;7</title>
<path fill="none" stroke="black" stroke-width="2" d="M142.29,-261.07C140.816,-246.826 138.846,-227.776 137.189,-211.757"/>
<polygon fill="black" stroke="black" stroke-width="2" points="140.664,-211.335 136.154,-201.748 133.701,-212.055 140.664,-211.335"/>
</g>
<!-- 1 -->
<g id="node2" class="node"><title>1</title>
<ellipse fill="cadetblue" stroke="black" cx="246.057" cy="-95.1946" rx="21.4286" ry="21.4286"/>
<text text-anchor="middle" x="246.057" y="-90.1946" font-family="Times New Roman,serif" font-size="20.00">2</text>
</g>
<!-- 1&#45;&gt;6 -->
<g id="edge7" class="edge"><title>1&#45;&gt;6</title>
<path fill="none" stroke="black" stroke-width="2" d="M228.214,-106.92C222.763,-110.502 216.649,-114.52 210.757,-118.392"/>
<polygon fill="black" stroke="black" stroke-width="2" points="208.82,-115.477 202.385,-123.894 212.665,-121.327 208.82,-115.477"/>
</g>
<!-- 1&#45;&gt;7 -->
<g id="edge8" class="edge"><title>1&#45;&gt;7</title>
<path fill="none" stroke="black" stroke-width="2" d="M235.976,-114.129C228.35,-126.934 216.834,-143.437 202.947,-154.355 191.83,-163.095 177.458,-169.127 164.709,-173.161"/>
<polygon fill="black" stroke="black" stroke-width="2" points="163.566,-169.848 154.926,-175.981 165.504,-176.574 163.566,-169.848"/>
</g>
<!-- 2 -->
<g id="node3" class="node"><title>2</title>
<ellipse fill="cadetblue" stroke="black" cx="130" cy="-21.2132" rx="21.4286" ry="21.4286"/>
<text text-anchor="middle" x="130" y="-16.2132" font-family="Times New Roman,serif" font-size="20.00">2</text>
</g>
<!-- 5 -->
<g id="node6" class="node"><title>5</title>
<ellipse fill="cadetblue" stroke="black" cx="69.5338" cy="-92.0751" rx="21.4286" ry="21.4286"/>
<text text-anchor="middle" x="69.5338" y="-87.0751" font-family="Times New Roman,serif" font-size="20.00">2</text>
</g>
<!-- 2&#45;&gt;5 -->
<g id="edge9" class="edge"><title>2&#45;&gt;5</title>
<path fill="none" stroke="black" stroke-width="2" d="M115.976,-37.6485C108.268,-46.6816 98.5644,-58.0535 90.0227,-68.0637"/>
<polygon fill="black" stroke="black" stroke-width="2" points="87.3105,-65.8501 83.4819,-75.729 92.6354,-70.3938 87.3105,-65.8501"/>
</g>
<!-- 3 -->
<g id="node4" class="node"><title>3</title>
<ellipse fill="cadetblue" stroke="black" cx="21.2132" cy="-223.774" rx="21.4286" ry="21.4286"/>
<text text-anchor="middle" x="21.2132" y="-218.774" font-family="Times New Roman,serif" font-size="20.00">2</text>
</g>
<!-- 3&#45;&gt;0 -->
<g id="edge1" class="edge"><title>3&#45;&gt;0</title>
<path fill="none" stroke="black" stroke-width="2" d="M40.4725,-232.899C60.6157,-242.443 92.4633,-257.532 115.613,-268.5"/>
<polygon fill="black" stroke="black" stroke-width="2" points="114.406,-271.802 124.942,-272.921 117.403,-265.476 114.406,-271.802"/>
</g>
<!-- 4 -->
<g id="node5" class="node"><title>4</title>
<ellipse fill="cadetblue" stroke="black" cx="257.411" cy="-225.838" rx="21.4286" ry="21.4286"/>
<text text-anchor="middle" x="257.411" y="-220.838" font-family="Times New Roman,serif" font-size="20.00">2</text>
</g>
<!-- 4&#45;&gt;0 -->
<g id="edge2" class="edge"><title>4&#45;&gt;0</title>
<path fill="none" stroke="black" stroke-width="2" d="M238.252,-235.394C220.324,-244.338 193.313,-257.811 172.877,-268.005"/>
<polygon fill="black" stroke="black" stroke-width="2" points="171.111,-264.975 163.725,-272.571 174.236,-271.239 171.111,-264.975"/>
</g>
<!-- 4&#45;&gt;1 -->
<g id="edge5" class="edge"><title>4&#45;&gt;1</title>
<path fill="none" stroke="black" stroke-width="2" d="M255.561,-204.557C253.722,-183.395 250.88,-150.689 248.782,-126.553"/>
<polygon fill="black" stroke="black" stroke-width="2" points="252.259,-126.126 247.906,-116.466 245.285,-126.732 252.259,-126.126"/>
</g>
<!-- 5&#45;&gt;1 -->
<g id="edge6" class="edge"><title>5&#45;&gt;1</title>
<path fill="none" stroke="black" stroke-width="2" d="M90.8267,-92.4514C121.574,-92.9948 178.627,-94.003 214.343,-94.6341"/>
<polygon fill="black" stroke="black" stroke-width="2" points="214.629,-98.1396 224.689,-94.817 214.752,-91.1407 214.629,-98.1396"/>
</g>
<!-- 5&#45;&gt;3 -->
<g id="edge12" class="edge"><title>5&#45;&gt;3</title>
<path fill="none" stroke="black" stroke-width="2" d="M62.195,-112.077C54.2127,-133.833 41.367,-168.844 32.1853,-193.869"/>
<polygon fill="black" stroke="black" stroke-width="2" points="28.7799,-192.99 28.6211,-203.583 35.3515,-195.401 28.7799,-192.99"/>
</g>
<!-- 6&#45;&gt;2 -->
<g id="edge10" class="edge"><title>6&#45;&gt;2</title>
<path fill="none" stroke="black" stroke-width="2" d="M175.269,-116.565C166.566,-98.2329 153.336,-70.3674 143.423,-49.4868"/>
<polygon fill="black" stroke="black" stroke-width="2" points="146.58,-47.9763 139.13,-40.4438 140.257,-50.9785 146.58,-47.9763"/>
</g>
<!-- 6&#45;&gt;4 -->
<g id="edge14" class="edge"><title>6&#45;&gt;4</title>
<path fill="none" stroke="black" stroke-width="2" d="M197.766,-152.26C208.816,-165.891 224.665,-185.442 237.248,-200.965"/>
<polygon fill="black" stroke="black" stroke-width="2" points="234.835,-203.547 243.851,-209.111 240.273,-199.138 234.835,-203.547"/>
</g>
<!-- 6&#45;&gt;5 -->
<g id="edge16" class="edge"><title>6&#45;&gt;5</title>
<path fill="none" stroke="black" stroke-width="2" d="M164.366,-128.128C146.363,-121.284 119.669,-111.135 99.1844,-103.348"/>
<polygon fill="black" stroke="black" stroke-width="2" points="100.284,-100.021 89.6927,-99.7391 97.7961,-106.564 100.284,-100.021"/>
</g>
<!-- 6&#45;&gt;7 -->
<g id="edge17" class="edge"><title>6&#45;&gt;7</title>
<path fill="none" stroke="black" stroke-width="2" d="M168.412,-149.841C165.009,-152.85 161.344,-156.09 157.719,-159.295"/>
<polygon fill="black" stroke="black" stroke-width="2" points="155.137,-156.906 149.964,-166.151 159.774,-162.15 155.137,-156.906"/>
</g>
<!-- 7&#45;&gt;2 -->
<g id="edge11" class="edge"><title>7&#45;&gt;2</title>
<path fill="none" stroke="black" stroke-width="2" d="M133.406,-158.863C132.732,-131.623 131.564,-84.4017 130.786,-52.9809"/>
<polygon fill="black" stroke="black" stroke-width="2" points="134.275,-52.495 130.529,-42.5846 127.277,-52.6682 134.275,-52.495"/>
</g>
<!-- 7&#45;&gt;3 -->
<g id="edge13" class="edge"><title>7&#45;&gt;3</title>
<path fill="none" stroke="black" stroke-width="2" d="M114.044,-187.989C96.5255,-194.742 70.7692,-204.671 50.8282,-212.358"/>
<polygon fill="black" stroke="black" stroke-width="2" points="49.3587,-209.173 41.2869,-216.036 51.8765,-215.704 49.3587,-209.173"/>
</g>
<!-- 7&#45;&gt;4 -->
<g id="edge15" class="edge"><title>7&#45;&gt;4</title>
<path fill="none" stroke="black" stroke-width="2" d="M154.05,-187.735C174.051,-195.108 204.962,-206.503 227.773,-214.912"/>
<polygon fill="black" stroke="black" stroke-width="2" points="226.713,-218.251 237.307,-218.426 229.134,-211.684 226.713,-218.251"/>
</g>
</g>
</svg>

