<?xml version="1.0" encoding="UTF-8" standalone="no"?>
<!DOCTYPE svg PUBLIC "-//W3C//DTD SVG 1.1//EN"
 "http://www.w3.org/Graphics/SVG/1.1/DTD/svg11.dtd">
<!-- Generated by graphviz version 2.36.0 (20140111.2315)
 -->
<!-- Title: G Pages: 1 -->
<svg width="100%" height="100%"
 viewBox="0.00 0.00 271.99 307.66" xmlns="http://www.w3.org/2000/svg" xmlns:xlink="http://www.w3.org/1999/xlink">
<g id="graph0" class="graph" transform="scale(1 1) rotate(0) translate(4 303.656)">
<title>G</title>
<!-- 0 -->
<g id="node1" class="node"><title>0</title>
<ellipse fill="cadetblue" stroke="black" cx="141.128" cy="-173.297" rx="21.4286" ry="21.4286"/>
<text text-anchor="middle" x="141.128" y="-168.297" font-family="Times New Roman,serif" font-size="20.00">2</text>
</g>
<!-- 3 -->
<g id="node4" class="node"><title>3</title>
<ellipse fill="cadetblue" stroke="black" cx="168.296" cy="-278.443" rx="21.4286" ry="21.4286"/>
<text text-anchor="middle" x="168.296" y="-273.443" font-family="Times New Roman,serif" font-size="20.00">2</text>
</g>
<!-- 0&#45;&gt;3 -->
<g id="edge1" class="edge"><title>0&#45;&gt;3</title>
<path fill="none" stroke="black" stroke-width="2" d="M146.495,-194.071C150.44,-209.336 155.864,-230.33 160.315,-247.558"/>
<polygon fill="black" stroke="black" stroke-width="2" points="157.049,-248.906 162.939,-257.712 163.826,-247.155 157.049,-248.906"/>
</g>
<!-- 4 -->
<g id="node5" class="node"><title>4</title>
<ellipse fill="cadetblue" stroke="black" cx="242.777" cy="-53.1245" rx="21.4286" ry="21.4286"/>
<text text-anchor="middle" x="242.777" y="-48.1245" font-family="Times New Roman,serif" font-size="20.00">2</text>
</g>
<!-- 0&#45;&gt;4 -->
<g id="edge2" class="edge"><title>0&#45;&gt;4</title>
<path fill="none" stroke="black" stroke-width="2" d="M154.837,-157.09C172.191,-136.573 202.24,-101.049 222.314,-77.3171"/>
<polygon fill="black" stroke="black" stroke-width="2" points="225.175,-79.3539 228.961,-69.4586 219.831,-74.8332 225.175,-79.3539"/>
</g>
<!-- 1 -->
<g id="node2" class="node"><title>1</title>
<ellipse fill="cadetblue" stroke="black" cx="61.4029" cy="-229.924" rx="21.4286" ry="21.4286"/>
<text text-anchor="middle" x="61.4029" y="-224.924" font-family="Times New Roman,serif" font-size="20.00">2</text>
</g>
<!-- 1&#45;&gt;3 -->
<g id="edge5" class="edge"><title>1&#45;&gt;3</title>
<path fill="none" stroke="black" stroke-width="2" d="M81.0087,-238.823C97.4327,-246.278 121.099,-257.02 139.647,-265.439"/>
<polygon fill="black" stroke="black" stroke-width="2" points="138.262,-268.654 148.814,-269.6 141.155,-262.28 138.262,-268.654"/>
</g>
<!-- 6 -->
<g id="node7" class="node"><title>6</title>
<ellipse fill="brown" stroke="black" cx="222.304" cy="-179.197" rx="21.4286" ry="21.4286"/>
<text text-anchor="middle" x="222.304" y="-174.197" font-family="Times New Roman,serif" font-size="20.00">3</text>
</g>
<!-- 1&#45;&gt;6 -->
<g id="edge7" class="edge"><title>1&#45;&gt;6</title>
<path fill="none" stroke="black" stroke-width="2" d="M81.7811,-223.5C109.632,-214.719 159.8,-198.903 192.048,-188.736"/>
<polygon fill="black" stroke="black" stroke-width="2" points="193.353,-191.995 201.837,-185.65 191.248,-185.318 193.353,-191.995"/>
</g>
<!-- 2 -->
<g id="node3" class="node"><title>2</title>
<ellipse fill="cadetblue" stroke="black" cx="138.831" cy="-21.2132" rx="21.4286" ry="21.4286"/>
<text text-anchor="middle" x="138.831" y="-16.2132" font-family="Times New Roman,serif" font-size="20.00">2</text>
</g>
<!-- 5 -->
<g id="node6" class="node"><title>5</title>
<ellipse fill="cadetblue" stroke="black" cx="21.2132" cy="-100.46" rx="21.4286" ry="21.4286"/>
<text text-anchor="middle" x="21.2132" y="-95.46" font-family="Times New Roman,serif" font-size="20.00">2</text>
</g>
<!-- 2&#45;&gt;5 -->
<g id="edge10" class="edge"><title>2&#45;&gt;5</title>
<path fill="none" stroke="black" stroke-width="2" d="M121.223,-33.0773C101.648,-46.2661 69.834,-67.7011 47.3516,-82.8489"/>
<polygon fill="black" stroke="black" stroke-width="2" points="45.2797,-80.0245 38.9422,-88.5149 49.1911,-85.8298 45.2797,-80.0245"/>
</g>
<!-- 2&#45;&gt;6 -->
<g id="edge11" class="edge"><title>2&#45;&gt;6</title>
<path fill="none" stroke="black" stroke-width="2" d="M148.9,-40.2698C163.502,-67.9069 190.651,-119.29 207.525,-151.226"/>
<polygon fill="black" stroke="black" stroke-width="2" points="204.433,-152.866 212.199,-160.073 210.622,-149.596 204.433,-152.866"/>
</g>
<!-- 3&#45;&gt;6 -->
<g id="edge13" class="edge"><title>3&#45;&gt;6</title>
<path fill="none" stroke="black" stroke-width="2" d="M178.454,-259.775C186.55,-244.899 198.008,-223.843 207.182,-206.986"/>
<polygon fill="black" stroke="black" stroke-width="2" points="210.301,-208.575 212.007,-198.118 204.153,-205.229 210.301,-208.575"/>
</g>
<!-- 7 -->
<g id="node8" class="node"><title>7</title>
<ellipse fill="cadetblue" stroke="black" cx="130.403" cy="-122.866" rx="21.4286" ry="21.4286"/>
<text text-anchor="middle" x="130.403" y="-117.866" font-family="Times New Roman,serif" font-size="20.00">2</text>
</g>
<!-- 3&#45;&gt;7 -->
<g id="edge14" class="edge"><title>3&#45;&gt;7</title>
<path fill="none" stroke="black" stroke-width="2" d="M170.47,-257.255C172.121,-235.849 173.234,-201.941 167.432,-173.321 165.35,-163.047 159.577,-153.35 153.192,-145.255"/>
<polygon fill="black" stroke="black" stroke-width="2" points="155.629,-142.723 146.444,-137.442 150.331,-147.298 155.629,-142.723"/>
</g>
<!-- 4&#45;&gt;2 -->
<g id="edge9" class="edge"><title>4&#45;&gt;2</title>
<path fill="none" stroke="black" stroke-width="2" d="M222.241,-46.8199C207.15,-42.1869 186.395,-35.8151 169.364,-30.5867"/>
<polygon fill="black" stroke="black" stroke-width="2" points="169.912,-27.0937 159.325,-27.5048 167.857,-33.7855 169.912,-27.0937"/>
</g>
<!-- 5&#45;&gt;0 -->
<g id="edge3" class="edge"><title>5&#45;&gt;0</title>
<path fill="none" stroke="black" stroke-width="2" d="M39.4257,-111.522C59.235,-123.555 91.1133,-142.918 113.899,-156.758"/>
<polygon fill="black" stroke="black" stroke-width="2" points="112.38,-159.931 122.744,-162.131 116.014,-153.948 112.38,-159.931"/>
</g>
<!-- 5&#45;&gt;1 -->
<g id="edge6" class="edge"><title>5&#45;&gt;1</title>
<path fill="none" stroke="black" stroke-width="2" d="M27.5814,-120.974C34.1661,-142.186 44.5177,-175.531 52.0354,-199.748"/>
<polygon fill="black" stroke="black" stroke-width="2" points="48.7571,-200.993 55.0646,-209.506 55.4424,-198.918 48.7571,-200.993"/>
</g>
<!-- 6&#45;&gt;0 -->
<g id="edge4" class="edge"><title>6&#45;&gt;0</title>
<path fill="none" stroke="black" stroke-width="2" d="M200.976,-177.647C192.214,-177.01 181.892,-176.26 172.311,-175.564"/>
<polygon fill="black" stroke="black" stroke-width="2" points="172.541,-172.071 162.314,-174.837 172.033,-179.053 172.541,-172.071"/>
</g>
<!-- 6&#45;&gt;7 -->
<g id="edge17" class="edge"><title>6&#45;&gt;7</title>
<path fill="none" stroke="black" stroke-width="2" d="M204.147,-168.068C190.805,-159.89 172.455,-148.642 157.398,-139.412"/>
<polygon fill="black" stroke="black" stroke-width="2" points="158.877,-136.214 148.522,-133.972 155.219,-142.182 158.877,-136.214"/>
</g>
<!-- 7&#45;&gt;1 -->
<g id="edge8" class="edge"><title>7&#45;&gt;1</title>
<path fill="none" stroke="black" stroke-width="2" d="M118.698,-141.027C107.628,-158.202 90.8913,-184.171 78.3608,-203.613"/>
<polygon fill="black" stroke="black" stroke-width="2" points="75.4106,-201.73 72.935,-212.031 81.2944,-205.522 75.4106,-201.73"/>
</g>
<!-- 7&#45;&gt;2 -->
<g id="edge12" class="edge"><title>7&#45;&gt;2</title>
<path fill="none" stroke="black" stroke-width="2" d="M132.191,-101.308C133.36,-87.1969 134.909,-68.5202 136.216,-52.7516"/>
<polygon fill="black" stroke="black" stroke-width="2" points="139.737,-52.6465 137.075,-42.3915 132.761,-52.068 139.737,-52.6465"/>
</g>
<!-- 7&#45;&gt;4 -->
<g id="edge15" class="edge"><title>7&#45;&gt;4</title>
<path fill="none" stroke="black" stroke-width="2" d="M148.458,-111.661C166.617,-100.391 194.837,-82.877 215.681,-69.9407"/>
<polygon fill="black" stroke="black" stroke-width="2" points="217.743,-72.7806 224.394,-64.5335 214.052,-66.8329 217.743,-72.7806"/>
</g>
<!-- 7&#45;&gt;5 -->
<g id="edge16" class="edge"><title>7&#45;&gt;5</title>
<path fill="none" stroke="black" stroke-width="2" d="M109.608,-118.599C93.3949,-115.272 70.6246,-110.599 52.2553,-106.83"/>
<polygon fill="black" stroke="black" stroke-width="2" points="52.802,-103.369 42.3025,-104.788 51.3948,-110.226 52.802,-103.369"/>
</g>
</g>
</svg>

