<?xml version="1.0" encoding="UTF-8" standalone="no"?>
<!DOCTYPE svg PUBLIC "-//W3C//DTD SVG 1.1//EN"
 "http://www.w3.org/Graphics/SVG/1.1/DTD/svg11.dtd">
<!-- Generated by graphviz version 2.36.0 (20140111.2315)
 -->
<!-- Title: G Pages: 1 -->
<svg width="100%" height="100%"
 viewBox="0.00 0.00 217.25 338.19" xmlns="http://www.w3.org/2000/svg" xmlns:xlink="http://www.w3.org/1999/xlink">
<g id="graph0" class="graph" transform="scale(1 1) rotate(0) translate(4 334.193)">
<title>G</title>
<!-- 0 -->
<g id="node1" class="node"><title>0</title>
<ellipse fill="cadetblue" stroke="black" cx="21.2132" cy="-215.015" rx="21.4286" ry="21.4286"/>
<text text-anchor="middle" x="21.2132" y="-210.015" font-family="Times New Roman,serif" font-size="20.00">2</text>
</g>
<!-- 4 -->
<g id="node5" class="node"><title>4</title>
<ellipse fill="cadetblue" stroke="black" cx="106.078" cy="-308.98" rx="21.4286" ry="21.4286"/>
<text text-anchor="middle" x="106.078" y="-303.98" font-family="Times New Roman,serif" font-size="20.00">2</text>
</g>
<!-- 0&#45;&gt;4 -->
<g id="edge2" class="edge"><title>0&#45;&gt;4</title>
<path fill="none" stroke="black" stroke-width="2" d="M35.6094,-230.955C49.0205,-245.804 69.1947,-268.141 84.5254,-285.116"/>
<polygon fill="black" stroke="black" stroke-width="2" points="82.3114,-287.886 91.6114,-292.962 87.5063,-283.195 82.3114,-287.886"/>
</g>
<!-- 5 -->
<g id="node6" class="node"><title>5</title>
<ellipse fill="cadetblue" stroke="black" cx="117.323" cy="-114.036" rx="21.4286" ry="21.4286"/>
<text text-anchor="middle" x="117.323" y="-109.036" font-family="Times New Roman,serif" font-size="20.00">2</text>
</g>
<!-- 0&#45;&gt;5 -->
<g id="edge3" class="edge"><title>0&#45;&gt;5</title>
<path fill="none" stroke="black" stroke-width="2" d="M36.1182,-199.783C49.2088,-186.359 68.7257,-166.234 85.4905,-148.49 88.8777,-144.905 92.4439,-141.088 95.9147,-137.349"/>
<polygon fill="black" stroke="black" stroke-width="2" points="98.5977,-139.603 102.817,-129.885 93.4582,-134.85 98.5977,-139.603"/>
</g>
<!-- 1 -->
<g id="node2" class="node"><title>1</title>
<ellipse fill="cadetblue" stroke="black" cx="183.474" cy="-207.443" rx="21.4286" ry="21.4286"/>
<text text-anchor="middle" x="183.474" y="-202.443" font-family="Times New Roman,serif" font-size="20.00">2</text>
</g>
<!-- 1&#45;&gt;5 -->
<g id="edge6" class="edge"><title>1&#45;&gt;5</title>
<path fill="none" stroke="black" stroke-width="2" d="M171.032,-189.874C161.053,-175.784 146.902,-155.802 135.631,-139.887"/>
<polygon fill="black" stroke="black" stroke-width="2" points="138.345,-137.664 129.71,-131.526 132.633,-141.71 138.345,-137.664"/>
</g>
<!-- 6 -->
<g id="node7" class="node"><title>6</title>
<ellipse fill="cadetblue" stroke="black" cx="188.035" cy="-113.975" rx="21.4286" ry="21.4286"/>
<text text-anchor="middle" x="188.035" y="-108.975" font-family="Times New Roman,serif" font-size="20.00">2</text>
</g>
<!-- 1&#45;&gt;6 -->
<g id="edge7" class="edge"><title>1&#45;&gt;6</title>
<path fill="none" stroke="black" stroke-width="2" d="M184.509,-186.234C185.094,-174.249 185.836,-159.033 186.489,-145.658"/>
<polygon fill="black" stroke="black" stroke-width="2" points="189.997,-145.583 186.989,-135.424 183.005,-145.241 189.997,-145.583"/>
</g>
<!-- 2 -->
<g id="node3" class="node"><title>2</title>
<ellipse fill="cadetblue" stroke="black" cx="115.929" cy="-21.2132" rx="21.4286" ry="21.4286"/>
<text text-anchor="middle" x="115.929" y="-16.2132" font-family="Times New Roman,serif" font-size="20.00">2</text>
</g>
<!-- 7 -->
<g id="node8" class="node"><title>7</title>
<ellipse fill="brown" stroke="black" cx="66.8914" cy="-129.889" rx="21.4286" ry="21.4286"/>
<text text-anchor="middle" x="66.8914" y="-124.889" font-family="Times New Roman,serif" font-size="20.00">3</text>
</g>
<!-- 2&#45;&gt;7 -->
<g id="edge11" class="edge"><title>2&#45;&gt;7</title>
<path fill="none" stroke="black" stroke-width="2" d="M107.162,-40.6423C99.5731,-57.4599 88.4936,-82.0143 79.876,-101.113"/>
<polygon fill="black" stroke="black" stroke-width="2" points="76.6704,-99.7072 75.7477,-110.262 83.0509,-102.586 76.6704,-99.7072"/>
</g>
<!-- 3 -->
<g id="node4" class="node"><title>3</title>
<ellipse fill="cadetblue" stroke="black" cx="109.661" cy="-221.594" rx="21.4286" ry="21.4286"/>
<text text-anchor="middle" x="109.661" y="-216.594" font-family="Times New Roman,serif" font-size="20.00">2</text>
</g>
<!-- 3&#45;&gt;0 -->
<g id="edge1" class="edge"><title>3&#45;&gt;0</title>
<path fill="none" stroke="black" stroke-width="2" d="M88.2501,-220.002C77.4946,-219.201 64.2599,-218.217 52.3992,-217.335"/>
<polygon fill="black" stroke="black" stroke-width="2" points="52.6589,-213.844 42.4267,-216.593 52.1395,-220.825 52.6589,-213.844"/>
</g>
<!-- 3&#45;&gt;4 -->
<g id="edge12" class="edge"><title>3&#45;&gt;4</title>
<path fill="none" stroke="black" stroke-width="2" d="M108.775,-243.195C108.35,-253.566 107.833,-266.19 107.365,-277.595"/>
<polygon fill="black" stroke="black" stroke-width="2" points="103.866,-277.493 106.954,-287.628 110.86,-277.779 103.866,-277.493"/>
</g>
<!-- 4&#45;&gt;1 -->
<g id="edge5" class="edge"><title>4&#45;&gt;1</title>
<path fill="none" stroke="black" stroke-width="2" d="M119.207,-291.756C131.624,-275.466 150.398,-250.837 164.453,-232.398"/>
<polygon fill="black" stroke="black" stroke-width="2" points="167.26,-234.488 170.539,-224.413 161.693,-230.245 167.26,-234.488"/>
</g>
<!-- 5&#45;&gt;2 -->
<g id="edge9" class="edge"><title>5&#45;&gt;2</title>
<path fill="none" stroke="black" stroke-width="2" d="M116.999,-92.5071C116.822,-80.6745 116.598,-65.7784 116.401,-52.666"/>
<polygon fill="black" stroke="black" stroke-width="2" points="119.9,-52.5714 116.25,-42.6251 112.901,-52.6766 119.9,-52.5714"/>
</g>
<!-- 5&#45;&gt;6 -->
<g id="edge15" class="edge"><title>5&#45;&gt;6</title>
<path fill="none" stroke="black" stroke-width="2" d="M138.539,-114.017C144.031,-114.013 150.068,-114.007 155.981,-114.002"/>
<polygon fill="black" stroke="black" stroke-width="2" points="156.348,-117.502 166.345,-113.993 156.342,-110.502 156.348,-117.502"/>
</g>
<!-- 5&#45;&gt;7 -->
<g id="edge16" class="edge"><title>5&#45;&gt;7</title>
<path fill="none" stroke="black" stroke-width="2" d="M96.8104,-120.484C96.7116,-120.515 96.6126,-120.546 96.5136,-120.577"/>
<polygon fill="black" stroke="black" stroke-width="2" points="95.7122,-117.16 87.2221,-123.498 97.8115,-123.838 95.7122,-117.16"/>
</g>
<!-- 6&#45;&gt;2 -->
<g id="edge10" class="edge"><title>6&#45;&gt;2</title>
<path fill="none" stroke="black" stroke-width="2" d="M174.81,-96.9608C163.731,-82.7081 147.766,-62.17 135.254,-46.0744"/>
<polygon fill="black" stroke="black" stroke-width="2" points="137.971,-43.8664 129.07,-38.1192 132.444,-48.1625 137.971,-43.8664"/>
</g>
<!-- 6&#45;&gt;3 -->
<g id="edge13" class="edge"><title>6&#45;&gt;3</title>
<path fill="none" stroke="black" stroke-width="2" d="M175.443,-131.266C162.703,-148.76 142.862,-176.005 128.3,-196"/>
<polygon fill="black" stroke="black" stroke-width="2" points="125.279,-194.202 122.222,-204.346 130.938,-198.323 125.279,-194.202"/>
</g>
<!-- 6&#45;&gt;7 -->
<g id="edge17" class="edge"><title>6&#45;&gt;7</title>
<path fill="none" stroke="black" stroke-width="2" d="M169.165,-124.308C155.267,-131.083 135.653,-138.939 117.206,-140.34 110.667,-140.836 103.736,-140.186 97.1758,-139.007"/>
<polygon fill="black" stroke="black" stroke-width="2" points="97.8047,-135.561 87.2834,-136.807 96.2852,-142.394 97.8047,-135.561"/>
</g>
<!-- 7&#45;&gt;0 -->
<g id="edge4" class="edge"><title>7&#45;&gt;0</title>
<path fill="none" stroke="black" stroke-width="2" d="M56.7539,-148.781C50.7218,-160.023 42.9566,-174.494 36.2238,-187.041"/>
<polygon fill="black" stroke="black" stroke-width="2" points="32.9666,-185.709 31.3223,-196.175 39.1347,-189.019 32.9666,-185.709"/>
</g>
<!-- 7&#45;&gt;1 -->
<g id="edge8" class="edge"><title>7&#45;&gt;1</title>
<path fill="none" stroke="black" stroke-width="2" d="M84.5978,-141.668C103.857,-154.479 134.849,-175.097 157.002,-189.833"/>
<polygon fill="black" stroke="black" stroke-width="2" points="155.336,-192.929 165.601,-195.554 159.214,-187.101 155.336,-192.929"/>
</g>
<!-- 7&#45;&gt;3 -->
<g id="edge14" class="edge"><title>7&#45;&gt;3</title>
<path fill="none" stroke="black" stroke-width="2" d="M75.9617,-149.337C81.8589,-161.982 89.6514,-178.691 96.2575,-192.855"/>
<polygon fill="black" stroke="black" stroke-width="2" points="93.2048,-194.591 100.604,-202.174 99.5488,-191.632 93.2048,-194.591"/>
</g>
</g>
</svg>

