<?xml version="1.0" encoding="UTF-8" standalone="no"?>
<!DOCTYPE svg PUBLIC "-//W3C//DTD SVG 1.1//EN"
 "http://www.w3.org/Graphics/SVG/1.1/DTD/svg11.dtd">
<!-- Generated by graphviz version 2.36.0 (20140111.2315)
 -->
<!-- Title: G Pages: 1 -->
<svg width="100%" height="100%"
 viewBox="0.00 0.00 253.98 250.13" xmlns="http://www.w3.org/2000/svg" xmlns:xlink="http://www.w3.org/1999/xlink">
<g id="graph0" class="graph" transform="scale(1 1) rotate(0) translate(4 246.127)">
<title>G</title>
<!-- 0 -->
<g id="node1" class="node"><title>0</title>
<ellipse fill="cadetblue" stroke="black" cx="164.254" cy="-220.914" rx="21.4286" ry="21.4286"/>
<text text-anchor="middle" x="164.254" y="-215.914" font-family="Times New Roman,serif" font-size="20.00">2</text>
</g>
<!-- 6 -->
<g id="node7" class="node"><title>6</title>
<ellipse fill="cadetblue" stroke="black" cx="164.897" cy="-109.318" rx="21.4286" ry="21.4286"/>
<text text-anchor="middle" x="164.897" y="-104.318" font-family="Times New Roman,serif" font-size="20.00">2</text>
</g>
<!-- 0&#45;&gt;6 -->
<g id="edge3" class="edge"><title>0&#45;&gt;6</title>
<path fill="none" stroke="black" stroke-width="2" d="M164.376,-199.661C164.472,-183.09 164.606,-159.818 164.714,-141.044"/>
<polygon fill="black" stroke="black" stroke-width="2" points="168.215,-140.892 164.773,-130.872 161.215,-140.852 168.215,-140.892"/>
</g>
<!-- 7 -->
<g id="node8" class="node"><title>7</title>
<ellipse fill="cadetblue" stroke="black" cx="112.568" cy="-115.803" rx="21.4286" ry="21.4286"/>
<text text-anchor="middle" x="112.568" y="-110.803" font-family="Times New Roman,serif" font-size="20.00">2</text>
</g>
<!-- 0&#45;&gt;7 -->
<g id="edge4" class="edge"><title>0&#45;&gt;7</title>
<path fill="none" stroke="black" stroke-width="2" d="M154.774,-201.635C146.832,-185.485 135.389,-162.213 126.421,-143.974"/>
<polygon fill="black" stroke="black" stroke-width="2" points="129.542,-142.389 121.988,-134.96 123.26,-145.478 129.542,-142.389"/>
</g>
<!-- 1 -->
<g id="node2" class="node"><title>1</title>
<ellipse fill="cadetblue" stroke="black" cx="113.822" cy="-187.345" rx="21.4286" ry="21.4286"/>
<text text-anchor="middle" x="113.822" y="-182.345" font-family="Times New Roman,serif" font-size="20.00">2</text>
</g>
<!-- 1&#45;&gt;6 -->
<g id="edge7" class="edge"><title>1&#45;&gt;6</title>
<path fill="none" stroke="black" stroke-width="2" d="M125.668,-169.248C132.179,-159.301 140.375,-146.78 147.59,-135.757"/>
<polygon fill="black" stroke="black" stroke-width="2" points="150.567,-137.601 153.115,-127.317 144.71,-133.767 150.567,-137.601"/>
</g>
<!-- 1&#45;&gt;7 -->
<g id="edge8" class="edge"><title>1&#45;&gt;7</title>
<path fill="none" stroke="black" stroke-width="2" d="M113.446,-165.88C113.344,-160.079 113.232,-153.678 113.123,-147.445"/>
<polygon fill="black" stroke="black" stroke-width="2" points="116.619,-147.19 112.944,-137.253 109.62,-147.313 116.619,-147.19"/>
</g>
<!-- 2 -->
<g id="node3" class="node"><title>2</title>
<ellipse fill="cadetblue" stroke="black" cx="94.411" cy="-21.2132" rx="21.4286" ry="21.4286"/>
<text text-anchor="middle" x="94.411" y="-16.2132" font-family="Times New Roman,serif" font-size="20.00">2</text>
</g>
<!-- 5 -->
<g id="node6" class="node"><title>5</title>
<ellipse fill="cadetblue" stroke="black" cx="21.2132" cy="-103.838" rx="21.4286" ry="21.4286"/>
<text text-anchor="middle" x="21.2132" y="-98.8383" font-family="Times New Roman,serif" font-size="20.00">2</text>
</g>
<!-- 2&#45;&gt;5 -->
<g id="edge9" class="edge"><title>2&#45;&gt;5</title>
<path fill="none" stroke="black" stroke-width="2" d="M80.2977,-37.1442C69.4626,-49.3748 54.3345,-66.4512 42.0988,-80.2628"/>
<polygon fill="black" stroke="black" stroke-width="2" points="39.2945,-78.1502 35.2831,-87.9563 44.5341,-82.792 39.2945,-78.1502"/>
</g>
<!-- 3 -->
<g id="node4" class="node"><title>3</title>
<ellipse fill="brown" stroke="black" cx="54.2517" cy="-192.117" rx="21.4286" ry="21.4286"/>
<text text-anchor="middle" x="54.2517" y="-187.117" font-family="Times New Roman,serif" font-size="20.00">3</text>
</g>
<!-- 3&#45;&gt;0 -->
<g id="edge1" class="edge"><title>3&#45;&gt;0</title>
<path fill="none" stroke="black" stroke-width="2" d="M74.0312,-200.432C85.4539,-204.94 100.197,-210.265 113.726,-213.649 119.785,-215.164 126.337,-216.396 132.651,-217.385"/>
<polygon fill="black" stroke="black" stroke-width="2" points="132.535,-220.903 142.924,-218.828 133.508,-213.971 132.535,-220.903"/>
</g>
<!-- 4 -->
<g id="node5" class="node"><title>4</title>
<ellipse fill="cadetblue" stroke="black" cx="224.764" cy="-160.06" rx="21.4286" ry="21.4286"/>
<text text-anchor="middle" x="224.764" y="-155.06" font-family="Times New Roman,serif" font-size="20.00">2</text>
</g>
<!-- 4&#45;&gt;0 -->
<g id="edge2" class="edge"><title>4&#45;&gt;0</title>
<path fill="none" stroke="black" stroke-width="2" d="M209.807,-175.102C202.877,-182.071 194.495,-190.501 186.819,-198.22"/>
<polygon fill="black" stroke="black" stroke-width="2" points="184.029,-196.063 179.46,-205.622 188.993,-200.999 184.029,-196.063"/>
</g>
<!-- 4&#45;&gt;1 -->
<g id="edge5" class="edge"><title>4&#45;&gt;1</title>
<path fill="none" stroke="black" stroke-width="2" d="M204.157,-165.128C187.449,-169.237 163.646,-175.091 144.667,-179.759"/>
<polygon fill="black" stroke="black" stroke-width="2" points="143.57,-176.424 134.696,-182.211 145.242,-183.222 143.57,-176.424"/>
</g>
<!-- 5&#45;&gt;1 -->
<g id="edge6" class="edge"><title>5&#45;&gt;1</title>
<path fill="none" stroke="black" stroke-width="2" d="M37.3445,-118.384C51.9519,-131.556 73.6553,-151.126 90.214,-166.057"/>
<polygon fill="black" stroke="black" stroke-width="2" points="88.1054,-168.868 97.8759,-172.966 92.7931,-163.67 88.1054,-168.868"/>
</g>
<!-- 5&#45;&gt;3 -->
<g id="edge12" class="edge"><title>5&#45;&gt;3</title>
<path fill="none" stroke="black" stroke-width="2" d="M28.7102,-123.87C32.9766,-135.27 38.4012,-149.765 43.1529,-162.461"/>
<polygon fill="black" stroke="black" stroke-width="2" points="40.0013,-164.026 46.7844,-172.165 46.5572,-161.572 40.0013,-164.026"/>
</g>
<!-- 6&#45;&gt;2 -->
<g id="edge10" class="edge"><title>6&#45;&gt;2</title>
<path fill="none" stroke="black" stroke-width="2" d="M151.639,-92.7463C141.074,-79.5398 126.119,-60.8472 114.147,-45.8822"/>
<polygon fill="black" stroke="black" stroke-width="2" points="116.829,-43.6325 107.849,-38.0103 111.363,-48.0054 116.829,-43.6325"/>
</g>
<!-- 6&#45;&gt;3 -->
<g id="edge13" class="edge"><title>6&#45;&gt;3</title>
<path fill="none" stroke="black" stroke-width="2" d="M147.609,-122.256C129.339,-135.927 100.344,-157.625 79.514,-173.213"/>
<polygon fill="black" stroke="black" stroke-width="2" points="77.328,-170.477 71.4186,-179.271 81.5221,-176.082 77.328,-170.477"/>
</g>
<!-- 6&#45;&gt;4 -->
<g id="edge15" class="edge"><title>6&#45;&gt;4</title>
<path fill="none" stroke="black" stroke-width="2" d="M181.256,-123.184C187.195,-128.218 194.04,-134.019 200.515,-139.507"/>
<polygon fill="black" stroke="black" stroke-width="2" points="198.533,-142.415 208.425,-146.211 203.059,-137.075 198.533,-142.415"/>
</g>
<!-- 7&#45;&gt;2 -->
<g id="edge11" class="edge"><title>7&#45;&gt;2</title>
<path fill="none" stroke="black" stroke-width="2" d="M108.539,-94.8108C106.141,-82.3196 103.054,-66.2393 100.378,-52.2971"/>
<polygon fill="black" stroke="black" stroke-width="2" points="103.752,-51.308 98.4294,-42.1472 96.8774,-52.6277 103.752,-51.308"/>
</g>
<!-- 7&#45;&gt;3 -->
<g id="edge14" class="edge"><title>7&#45;&gt;3</title>
<path fill="none" stroke="black" stroke-width="2" d="M99.626,-132.74C91.9249,-142.818 82.0111,-155.791 73.4155,-167.039"/>
<polygon fill="black" stroke="black" stroke-width="2" points="70.4487,-165.157 67.1579,-175.228 76.0107,-169.408 70.4487,-165.157"/>
</g>
<!-- 7&#45;&gt;4 -->
<g id="edge16" class="edge"><title>7&#45;&gt;4</title>
<path fill="none" stroke="black" stroke-width="2" d="M132.368,-123.614C149.805,-130.492 175.441,-140.604 195.288,-148.433"/>
<polygon fill="black" stroke="black" stroke-width="2" points="194.198,-151.765 204.785,-152.179 196.767,-145.253 194.198,-151.765"/>
</g>
<!-- 7&#45;&gt;5 -->
<g id="edge17" class="edge"><title>7&#45;&gt;5</title>
<path fill="none" stroke="black" stroke-width="2" d="M91.38,-113.028C79.8498,-111.518 65.3639,-109.621 52.5526,-107.943"/>
<polygon fill="black" stroke="black" stroke-width="2" points="52.6565,-104.427 42.2866,-106.598 51.7474,-111.367 52.6565,-104.427"/>
</g>
</g>
</svg>

