<?xml version="1.0" encoding="UTF-8" standalone="no"?>
<!DOCTYPE svg PUBLIC "-//W3C//DTD SVG 1.1//EN"
 "http://www.w3.org/Graphics/SVG/1.1/DTD/svg11.dtd">
<!-- Generated by graphviz version 2.36.0 (20140111.2315)
 -->
<!-- Title: G Pages: 1 -->
<svg width="100%" height="100%"
 viewBox="0.00 0.00 235.57 259.60" xmlns="http://www.w3.org/2000/svg" xmlns:xlink="http://www.w3.org/1999/xlink">
<g id="graph0" class="graph" transform="scale(1 1) rotate(0) translate(4 255.603)">
<title>G</title>
<!-- 0 -->
<g id="node1" class="node"><title>0</title>
<ellipse fill="cadetblue" stroke="black" cx="21.2132" cy="-183.528" rx="21.4286" ry="21.4286"/>
<text text-anchor="middle" x="21.2132" y="-178.528" font-family="Times New Roman,serif" font-size="20.00">2</text>
</g>
<!-- 5 -->
<g id="node6" class="node"><title>5</title>
<ellipse fill="cadetblue" stroke="black" cx="26.7343" cy="-59.7652" rx="21.4286" ry="21.4286"/>
<text text-anchor="middle" x="26.7343" y="-54.7652" font-family="Times New Roman,serif" font-size="20.00">2</text>
</g>
<!-- 0&#45;&gt;5 -->
<g id="edge3" class="edge"><title>0&#45;&gt;5</title>
<path fill="none" stroke="black" stroke-width="2" d="M22.1623,-162.252C23.0314,-142.771 24.3293,-113.677 25.3204,-91.4596"/>
<polygon fill="black" stroke="black" stroke-width="2" points="28.8299,-91.3234 25.7791,-81.1773 21.8368,-91.0114 28.8299,-91.3234"/>
</g>
<!-- 7 -->
<g id="node8" class="node"><title>7</title>
<ellipse fill="cadetblue" stroke="black" cx="74.0472" cy="-123.654" rx="21.4286" ry="21.4286"/>
<text text-anchor="middle" x="74.0472" y="-118.654" font-family="Times New Roman,serif" font-size="20.00">2</text>
</g>
<!-- 0&#45;&gt;7 -->
<g id="edge4" class="edge"><title>0&#45;&gt;7</title>
<path fill="none" stroke="black" stroke-width="2" d="M35.3718,-167.483C40.8202,-161.309 47.1627,-154.121 53.1162,-147.374"/>
<polygon fill="black" stroke="black" stroke-width="2" points="55.8574,-149.558 59.8496,-139.744 50.6087,-144.926 55.8574,-149.558"/>
</g>
<!-- 1 -->
<g id="node2" class="node"><title>1</title>
<ellipse fill="cadetblue" stroke="black" cx="147" cy="-73.9957" rx="21.4286" ry="21.4286"/>
<text text-anchor="middle" x="147" y="-68.9957" font-family="Times New Roman,serif" font-size="20.00">2</text>
</g>
<!-- 6 -->
<g id="node7" class="node"><title>6</title>
<ellipse fill="cadetblue" stroke="black" cx="206.358" cy="-130.093" rx="21.4286" ry="21.4286"/>
<text text-anchor="middle" x="206.358" y="-125.093" font-family="Times New Roman,serif" font-size="20.00">2</text>
</g>
<!-- 1&#45;&gt;6 -->
<g id="edge7" class="edge"><title>1&#45;&gt;6</title>
<path fill="none" stroke="black" stroke-width="2" d="M162.596,-88.7345C168.952,-94.742 176.431,-101.81 183.391,-108.387"/>
<polygon fill="black" stroke="black" stroke-width="2" points="180.989,-110.933 190.661,-115.257 185.797,-105.845 180.989,-110.933"/>
</g>
<!-- 1&#45;&gt;7 -->
<g id="edge8" class="edge"><title>1&#45;&gt;7</title>
<path fill="none" stroke="black" stroke-width="2" d="M129.34,-86.0167C120.623,-91.9504 109.932,-99.2281 100.281,-105.797"/>
<polygon fill="black" stroke="black" stroke-width="2" points="98.0944,-103.052 91.7973,-111.572 102.033,-108.838 98.0944,-103.052"/>
</g>
<!-- 2 -->
<g id="node3" class="node"><title>2</title>
<ellipse fill="cadetblue" stroke="black" cx="121.457" cy="-21.2132" rx="21.4286" ry="21.4286"/>
<text text-anchor="middle" x="121.457" y="-16.2132" font-family="Times New Roman,serif" font-size="20.00">2</text>
</g>
<!-- 2&#45;&gt;6 -->
<g id="edge10" class="edge"><title>2&#45;&gt;6</title>
<path fill="none" stroke="black" stroke-width="2" d="M139.672,-32.7371C148.266,-38.7826 158.239,-46.741 165.668,-55.4636 177.284,-69.1038 187.034,-86.591 194.075,-101.209"/>
<polygon fill="black" stroke="black" stroke-width="2" points="190.922,-102.73 198.303,-110.331 197.273,-99.7861 190.922,-102.73"/>
</g>
<!-- 3 -->
<g id="node4" class="node"><title>3</title>
<ellipse fill="cadetblue" stroke="black" cx="112.037" cy="-230.39" rx="21.4286" ry="21.4286"/>
<text text-anchor="middle" x="112.037" y="-225.39" font-family="Times New Roman,serif" font-size="20.00">2</text>
</g>
<!-- 3&#45;&gt;0 -->
<g id="edge1" class="edge"><title>3&#45;&gt;0</title>
<path fill="none" stroke="black" stroke-width="2" d="M92.7758,-220.451C80.168,-213.946 63.4808,-205.336 49.392,-198.067"/>
<polygon fill="black" stroke="black" stroke-width="2" points="50.6271,-194.766 40.1354,-193.291 47.4174,-200.987 50.6271,-194.766"/>
</g>
<!-- 4 -->
<g id="node5" class="node"><title>4</title>
<ellipse fill="cadetblue" stroke="black" cx="141.712" cy="-179.958" rx="21.4286" ry="21.4286"/>
<text text-anchor="middle" x="141.712" y="-174.958" font-family="Times New Roman,serif" font-size="20.00">2</text>
</g>
<!-- 4&#45;&gt;0 -->
<g id="edge2" class="edge"><title>4&#45;&gt;0</title>
<path fill="none" stroke="black" stroke-width="2" d="M120.447,-180.588C101.72,-181.143 74.187,-181.959 52.8707,-182.59"/>
<polygon fill="black" stroke="black" stroke-width="2" points="52.5632,-179.098 42.6713,-182.892 52.7706,-186.095 52.5632,-179.098"/>
</g>
<!-- 4&#45;&gt;1 -->
<g id="edge5" class="edge"><title>4&#45;&gt;1</title>
<path fill="none" stroke="black" stroke-width="2" d="M142.769,-158.77C143.528,-143.565 144.564,-122.817 145.42,-105.653"/>
<polygon fill="black" stroke="black" stroke-width="2" points="148.923,-105.673 145.926,-95.5106 141.932,-105.324 148.923,-105.673"/>
</g>
<!-- 5&#45;&gt;1 -->
<g id="edge6" class="edge"><title>5&#45;&gt;1</title>
<path fill="none" stroke="black" stroke-width="2" d="M47.9586,-62.2766C66.6492,-64.4881 94.1286,-67.7397 115.404,-70.257"/>
<polygon fill="black" stroke="black" stroke-width="2" points="115.241,-73.7622 125.583,-71.4616 116.064,-66.8107 115.241,-73.7622"/>
</g>
<!-- 5&#45;&gt;2 -->
<g id="edge9" class="edge"><title>5&#45;&gt;2</title>
<path fill="none" stroke="black" stroke-width="2" d="M46.8226,-51.5893C59.9716,-46.2377 77.3751,-39.1545 92.0687,-33.1742"/>
<polygon fill="black" stroke="black" stroke-width="2" points="93.7798,-36.2567 101.723,-29.2451 91.1409,-29.7731 93.7798,-36.2567"/>
</g>
<!-- 6&#45;&gt;3 -->
<g id="edge12" class="edge"><title>6&#45;&gt;3</title>
<path fill="none" stroke="black" stroke-width="2" d="M196.347,-149.052C187.98,-163.733 175.04,-183.986 160.127,-198.741 154.132,-204.672 146.865,-210.132 139.816,-214.786"/>
<polygon fill="black" stroke="black" stroke-width="2" points="137.739,-211.957 131.115,-220.226 141.45,-217.892 137.739,-211.957"/>
</g>
<!-- 6&#45;&gt;4 -->
<g id="edge14" class="edge"><title>6&#45;&gt;4</title>
<path fill="none" stroke="black" stroke-width="2" d="M189.373,-143.194C182.597,-148.421 174.651,-154.55 167.21,-160.29"/>
<polygon fill="black" stroke="black" stroke-width="2" points="164.588,-157.892 158.808,-166.771 168.864,-163.434 164.588,-157.892"/>
</g>
<!-- 7&#45;&gt;2 -->
<g id="edge11" class="edge"><title>7&#45;&gt;2</title>
<path fill="none" stroke="black" stroke-width="2" d="M82.9647,-104.386C90.0711,-89.0307 100.13,-67.2963 108.183,-49.8963"/>
<polygon fill="black" stroke="black" stroke-width="2" points="111.395,-51.2888 112.418,-40.7435 105.042,-48.3487 111.395,-51.2888"/>
</g>
<!-- 7&#45;&gt;3 -->
<g id="edge13" class="edge"><title>7&#45;&gt;3</title>
<path fill="none" stroke="black" stroke-width="2" d="M81.1929,-143.73C86.9236,-159.831 95.0503,-182.664 101.523,-200.85"/>
<polygon fill="black" stroke="black" stroke-width="2" points="98.273,-202.156 104.924,-210.403 104.868,-199.809 98.273,-202.156"/>
</g>
<!-- 7&#45;&gt;4 -->
<g id="edge15" class="edge"><title>7&#45;&gt;4</title>
<path fill="none" stroke="black" stroke-width="2" d="M90.427,-137.284C98.4523,-143.962 108.282,-152.141 117.181,-159.546"/>
<polygon fill="black" stroke="black" stroke-width="2" points="115.087,-162.357 125.013,-166.063 119.565,-156.976 115.087,-162.357"/>
</g>
<!-- 7&#45;&gt;5 -->
<g id="edge16" class="edge"><title>7&#45;&gt;5</title>
<path fill="none" stroke="black" stroke-width="2" d="M61.3682,-106.533C56.4891,-99.9447 50.8095,-92.2752 45.4781,-85.076"/>
<polygon fill="black" stroke="black" stroke-width="2" points="48.2123,-82.887 39.4483,-76.9336 42.5869,-87.0529 48.2123,-82.887"/>
</g>
</g>
</svg>

