<?xml version="1.0" encoding="UTF-8" standalone="no"?>
<!DOCTYPE svg PUBLIC "-//W3C//DTD SVG 1.1//EN"
 "http://www.w3.org/Graphics/SVG/1.1/DTD/svg11.dtd">
<!-- Generated by graphviz version 2.36.0 (20140111.2315)
 -->
<!-- Title: G Pages: 1 -->
<svg width="100%" height="100%"
 viewBox="0.00 0.00 190.48 250.21" xmlns="http://www.w3.org/2000/svg" xmlns:xlink="http://www.w3.org/1999/xlink">
<g id="graph0" class="graph" transform="scale(1 1) rotate(0) translate(4 246.208)">
<title>G</title>
<!-- 0 -->
<g id="node1" class="node"><title>0</title>
<ellipse fill="cadetblue" stroke="black" cx="21.2132" cy="-190.778" rx="21.4286" ry="21.4286"/>
<text text-anchor="middle" x="21.2132" y="-185.778" font-family="Times New Roman,serif" font-size="20.00">2</text>
</g>
<!-- 3 -->
<g id="node4" class="node"><title>3</title>
<ellipse fill="cadetblue" stroke="black" cx="71.6447" cy="-160.374" rx="21.4286" ry="21.4286"/>
<text text-anchor="middle" x="71.6447" y="-155.374" font-family="Times New Roman,serif" font-size="20.00">2</text>
</g>
<!-- 0&#45;&gt;3 -->
<g id="edge1" class="edge"><title>0&#45;&gt;3</title>
<path fill="none" stroke="black" stroke-width="2" d="M39.4201,-179.801C41.1129,-178.781 42.8516,-177.733 44.602,-176.677"/>
<polygon fill="black" stroke="black" stroke-width="2" points="46.5381,-179.597 53.2951,-171.437 42.9239,-173.602 46.5381,-179.597"/>
</g>
<!-- 5 -->
<g id="node6" class="node"><title>5</title>
<ellipse fill="cadetblue" stroke="black" cx="22.6344" cy="-98.7061" rx="21.4286" ry="21.4286"/>
<text text-anchor="middle" x="22.6344" y="-93.7061" font-family="Times New Roman,serif" font-size="20.00">2</text>
</g>
<!-- 0&#45;&gt;5 -->
<g id="edge3" class="edge"><title>0&#45;&gt;5</title>
<path fill="none" stroke="black" stroke-width="2" d="M21.5428,-169.423C21.7222,-157.803 21.9475,-143.203 22.1468,-130.291"/>
<polygon fill="black" stroke="black" stroke-width="2" points="25.6517,-129.998 22.3066,-119.945 18.6525,-129.89 25.6517,-129.998"/>
</g>
<!-- 1 -->
<g id="node2" class="node"><title>1</title>
<ellipse fill="cadetblue" stroke="black" cx="138.477" cy="-152.3" rx="21.4286" ry="21.4286"/>
<text text-anchor="middle" x="138.477" y="-147.3" font-family="Times New Roman,serif" font-size="20.00">2</text>
</g>
<!-- 4 -->
<g id="node5" class="node"><title>4</title>
<ellipse fill="cadetblue" stroke="black" cx="133.477" cy="-220.995" rx="21.4286" ry="21.4286"/>
<text text-anchor="middle" x="133.477" y="-215.995" font-family="Times New Roman,serif" font-size="20.00">2</text>
</g>
<!-- 1&#45;&gt;4 -->
<g id="edge5" class="edge"><title>1&#45;&gt;4</title>
<path fill="none" stroke="black" stroke-width="2" d="M136.923,-173.659C136.559,-178.651 136.165,-184.073 135.776,-189.405"/>
<polygon fill="black" stroke="black" stroke-width="2" points="132.283,-189.185 135.048,-199.413 139.265,-189.693 132.283,-189.185"/>
</g>
<!-- 7 -->
<g id="node8" class="node"><title>7</title>
<ellipse fill="brown" stroke="black" cx="81.0768" cy="-93.1267" rx="21.4286" ry="21.4286"/>
<text text-anchor="middle" x="81.0768" y="-88.1267" font-family="Times New Roman,serif" font-size="20.00">3</text>
</g>
<!-- 1&#45;&gt;7 -->
<g id="edge8" class="edge"><title>1&#45;&gt;7</title>
<path fill="none" stroke="black" stroke-width="2" d="M123.695,-137.061C117.45,-130.623 110.045,-122.99 103.174,-115.907"/>
<polygon fill="black" stroke="black" stroke-width="2" points="105.483,-113.26 96.0083,-108.519 100.459,-118.134 105.483,-113.26"/>
</g>
<!-- 2 -->
<g id="node3" class="node"><title>2</title>
<ellipse fill="cadetblue" stroke="black" cx="94.7892" cy="-21.2132" rx="21.4286" ry="21.4286"/>
<text text-anchor="middle" x="94.7892" y="-16.2132" font-family="Times New Roman,serif" font-size="20.00">2</text>
</g>
<!-- 2&#45;&gt;5 -->
<g id="edge9" class="edge"><title>2&#45;&gt;5</title>
<path fill="none" stroke="black" stroke-width="2" d="M80.1876,-36.8951C69.8207,-48.0289 55.734,-63.1577 44.092,-75.661"/>
<polygon fill="black" stroke="black" stroke-width="2" points="41.4673,-73.3438 37.2143,-83.0476 46.5903,-78.114 41.4673,-73.3438"/>
</g>
<!-- 6 -->
<g id="node7" class="node"><title>6</title>
<ellipse fill="cadetblue" stroke="black" cx="161.264" cy="-101.736" rx="21.4286" ry="21.4286"/>
<text text-anchor="middle" x="161.264" y="-96.7357" font-family="Times New Roman,serif" font-size="20.00">2</text>
</g>
<!-- 3&#45;&gt;6 -->
<g id="edge13" class="edge"><title>3&#45;&gt;6</title>
<path fill="none" stroke="black" stroke-width="2" d="M89.7806,-148.508C102.741,-140.027 120.383,-128.484 134.898,-118.987"/>
<polygon fill="black" stroke="black" stroke-width="2" points="137.01,-121.788 143.461,-113.384 133.177,-115.931 137.01,-121.788"/>
</g>
<!-- 3&#45;&gt;7 -->
<g id="edge14" class="edge"><title>3&#45;&gt;7</title>
<path fill="none" stroke="black" stroke-width="2" d="M74.629,-139.097C75.2828,-134.436 75.9881,-129.407 76.6839,-124.446"/>
<polygon fill="black" stroke="black" stroke-width="2" points="80.1564,-124.886 78.0795,-114.497 73.2243,-123.913 80.1564,-124.886"/>
</g>
<!-- 4&#45;&gt;0 -->
<g id="edge2" class="edge"><title>4&#45;&gt;0</title>
<path fill="none" stroke="black" stroke-width="2" d="M112.886,-215.453C95.8233,-210.86 71.3173,-204.264 51.9348,-199.047"/>
<polygon fill="black" stroke="black" stroke-width="2" points="52.6198,-195.607 42.0538,-196.387 50.8004,-202.366 52.6198,-195.607"/>
</g>
<!-- 5&#45;&gt;1 -->
<g id="edge6" class="edge"><title>5&#45;&gt;1</title>
<path fill="none" stroke="black" stroke-width="2" d="M42.0239,-107.677C60.5678,-116.256 88.7551,-129.296 109.877,-139.068"/>
<polygon fill="black" stroke="black" stroke-width="2" points="108.479,-142.278 119.024,-143.3 111.418,-135.925 108.479,-142.278"/>
</g>
<!-- 5&#45;&gt;3 -->
<g id="edge12" class="edge"><title>5&#45;&gt;3</title>
<path fill="none" stroke="black" stroke-width="2" d="M36.0267,-115.557C40.8891,-121.675 46.4921,-128.725 51.7934,-135.396"/>
<polygon fill="black" stroke="black" stroke-width="2" points="49.3066,-137.892 58.2686,-143.543 54.7868,-133.537 49.3066,-137.892"/>
</g>
<!-- 5&#45;&gt;7 -->
<g id="edge16" class="edge"><title>5&#45;&gt;7</title>
<path fill="none" stroke="black" stroke-width="2" d="M44.0643,-96.6602C45.8113,-96.4935 47.5983,-96.3229 49.3978,-96.1511"/>
<polygon fill="black" stroke="black" stroke-width="2" points="50.0274,-99.607 59.6495,-95.1723 49.3621,-92.6386 50.0274,-99.607"/>
</g>
<!-- 6&#45;&gt;1 -->
<g id="edge7" class="edge"><title>6&#45;&gt;1</title>
<path fill="none" stroke="black" stroke-width="2" d="M152.519,-121.14C152.199,-121.851 151.876,-122.567 151.552,-123.288"/>
<polygon fill="black" stroke="black" stroke-width="2" points="148.23,-122.141 147.312,-132.696 154.611,-125.017 148.23,-122.141"/>
</g>
<!-- 6&#45;&gt;2 -->
<g id="edge10" class="edge"><title>6&#45;&gt;2</title>
<path fill="none" stroke="black" stroke-width="2" d="M147.491,-85.0514C138.07,-73.6394 125.427,-58.3253 114.886,-45.557"/>
<polygon fill="black" stroke="black" stroke-width="2" points="117.383,-43.0841 108.318,-37.6006 111.985,-47.5406 117.383,-43.0841"/>
</g>
<!-- 6&#45;&gt;4 -->
<g id="edge15" class="edge"><title>6&#45;&gt;4</title>
<path fill="none" stroke="black" stroke-width="2" d="M164.932,-123.037C165.933,-132.128 166.36,-142.827 164.781,-152.396 162.387,-166.908 156.064,-181.897 149.722,-194.147"/>
<polygon fill="black" stroke="black" stroke-width="2" points="146.649,-192.473 144.934,-202.928 152.794,-195.824 146.649,-192.473"/>
</g>
<!-- 7&#45;&gt;0 -->
<g id="edge4" class="edge"><title>7&#45;&gt;0</title>
<path fill="none" stroke="black" stroke-width="2" d="M69.8169,-111.494C60.7866,-126.225 47.9809,-147.114 37.7807,-163.753"/>
<polygon fill="black" stroke="black" stroke-width="2" points="34.6651,-162.138 32.4226,-172.493 40.633,-165.797 34.6651,-162.138"/>
</g>
<!-- 7&#45;&gt;2 -->
<g id="edge11" class="edge"><title>7&#45;&gt;2</title>
<path fill="none" stroke="black" stroke-width="2" d="M85.1168,-71.9392C86.2781,-65.8489 87.5699,-59.0743 88.8215,-52.5104"/>
<polygon fill="black" stroke="black" stroke-width="2" points="92.2956,-52.9763 90.7307,-42.4977 85.4195,-51.6652 92.2956,-52.9763"/>
</g>
<!-- 7&#45;&gt;6 -->
<g id="edge17" class="edge"><title>7&#45;&gt;6</title>
<path fill="none" stroke="black" stroke-width="2" d="M102.566,-95.4338C110.992,-96.3384 120.828,-97.3944 130.012,-98.3804"/>
<polygon fill="black" stroke="black" stroke-width="2" points="129.678,-101.865 139.994,-99.4521 130.425,-94.9046 129.678,-101.865"/>
</g>
</g>
</svg>

