<?xml version="1.0" encoding="UTF-8" standalone="no"?>
<!DOCTYPE svg PUBLIC "-//W3C//DTD SVG 1.1//EN"
 "http://www.w3.org/Graphics/SVG/1.1/DTD/svg11.dtd">
<!-- Generated by graphviz version 2.36.0 (20140111.2315)
 -->
<!-- Title: G Pages: 1 -->
<svg width="100%" height="100%"
 viewBox="0.00 0.00 218.56 232.76" xmlns="http://www.w3.org/2000/svg" xmlns:xlink="http://www.w3.org/1999/xlink">
<g id="graph0" class="graph" transform="scale(1 1) rotate(0) translate(4 228.763)">
<title>G</title>
<!-- 0 -->
<g id="node1" class="node"><title>0</title>
<ellipse fill="cadetblue" stroke="black" cx="131.666" cy="-142.823" rx="21.4286" ry="21.4286"/>
<text text-anchor="middle" x="131.666" y="-137.823" font-family="Times New Roman,serif" font-size="20.00">2</text>
</g>
<!-- 5 -->
<g id="node6" class="node"><title>5</title>
<ellipse fill="cadetblue" stroke="black" cx="112.6" cy="-35.7458" rx="21.4286" ry="21.4286"/>
<text text-anchor="middle" x="112.6" y="-30.7458" font-family="Times New Roman,serif" font-size="20.00">2</text>
</g>
<!-- 0&#45;&gt;5 -->
<g id="edge3" class="edge"><title>0&#45;&gt;5</title>
<path fill="none" stroke="black" stroke-width="2" d="M130.347,-121.461C129.483,-110.803 128.113,-97.7499 126.011,-86.1785 124.821,-79.6266 123.208,-72.6797 121.515,-66.1047"/>
<polygon fill="black" stroke="black" stroke-width="2" points="124.823,-64.9293 118.835,-56.1888 118.065,-66.7557 124.823,-64.9293"/>
</g>
<!-- 6 -->
<g id="node7" class="node"><title>6</title>
<ellipse fill="cadetblue" stroke="black" cx="189.347" cy="-102.672" rx="21.4286" ry="21.4286"/>
<text text-anchor="middle" x="189.347" y="-97.6725" font-family="Times New Roman,serif" font-size="20.00">2</text>
</g>
<!-- 0&#45;&gt;6 -->
<g id="edge4" class="edge"><title>0&#45;&gt;6</title>
<path fill="none" stroke="black" stroke-width="2" d="M149.286,-130.559C153.758,-127.445 158.658,-124.035 163.447,-120.701"/>
<polygon fill="black" stroke="black" stroke-width="2" points="165.627,-123.448 171.835,-114.862 161.628,-117.703 165.627,-123.448"/>
</g>
<!-- 7 -->
<g id="node8" class="node"><title>7</title>
<ellipse fill="brown" stroke="black" cx="99.7064" cy="-86.1772" rx="21.4286" ry="21.4286"/>
<text text-anchor="middle" x="99.7064" y="-81.1772" font-family="Times New Roman,serif" font-size="20.00">3</text>
</g>
<!-- 0&#45;&gt;7 -->
<g id="edge5" class="edge"><title>0&#45;&gt;7</title>
<path fill="none" stroke="black" stroke-width="2" d="M121.201,-124.275C119.29,-120.887 117.258,-117.287 115.237,-113.703"/>
<polygon fill="black" stroke="black" stroke-width="2" points="118.266,-111.95 110.304,-104.961 112.17,-115.39 118.266,-111.95"/>
</g>
<!-- 1 -->
<g id="node2" class="node"><title>1</title>
<ellipse fill="cadetblue" stroke="black" cx="21.2132" cy="-78.5869" rx="21.4286" ry="21.4286"/>
<text text-anchor="middle" x="21.2132" y="-73.5869" font-family="Times New Roman,serif" font-size="20.00">2</text>
</g>
<!-- 4 -->
<g id="node5" class="node"><title>4</title>
<ellipse fill="cadetblue" stroke="black" cx="59.2338" cy="-169.292" rx="21.4286" ry="21.4286"/>
<text text-anchor="middle" x="59.2338" y="-164.292" font-family="Times New Roman,serif" font-size="20.00">2</text>
</g>
<!-- 1&#45;&gt;4 -->
<g id="edge6" class="edge"><title>1&#45;&gt;4</title>
<path fill="none" stroke="black" stroke-width="2" d="M29.4631,-98.2686C34.5949,-110.511 41.2865,-126.476 47.0254,-140.167"/>
<polygon fill="black" stroke="black" stroke-width="2" points="43.9063,-141.78 51,-149.649 50.3621,-139.073 43.9063,-141.78"/>
</g>
<!-- 2 -->
<g id="node3" class="node"><title>2</title>
<ellipse fill="cadetblue" stroke="black" cx="183.276" cy="-21.2132" rx="21.4286" ry="21.4286"/>
<text text-anchor="middle" x="183.276" y="-16.2132" font-family="Times New Roman,serif" font-size="20.00">2</text>
</g>
<!-- 2&#45;&gt;7 -->
<g id="edge11" class="edge"><title>2&#45;&gt;7</title>
<path fill="none" stroke="black" stroke-width="2" d="M166.365,-34.3596C154.358,-43.6934 138.043,-56.3762 124.559,-66.858"/>
<polygon fill="black" stroke="black" stroke-width="2" points="122.34,-64.1496 116.593,-73.0503 126.636,-69.6762 122.34,-64.1496"/>
</g>
<!-- 3 -->
<g id="node4" class="node"><title>3</title>
<ellipse fill="cadetblue" stroke="black" cx="158.193" cy="-203.549" rx="21.4286" ry="21.4286"/>
<text text-anchor="middle" x="158.193" y="-198.549" font-family="Times New Roman,serif" font-size="20.00">2</text>
</g>
<!-- 3&#45;&gt;0 -->
<g id="edge1" class="edge"><title>3&#45;&gt;0</title>
<path fill="none" stroke="black" stroke-width="2" d="M149.653,-184.001C147.95,-180.1 146.126,-175.926 144.318,-171.786"/>
<polygon fill="black" stroke="black" stroke-width="2" points="147.4,-170.098 140.189,-162.335 140.985,-172.9 147.4,-170.098"/>
</g>
<!-- 4&#45;&gt;0 -->
<g id="edge2" class="edge"><title>4&#45;&gt;0</title>
<path fill="none" stroke="black" stroke-width="2" d="M79.4103,-161.919C86.3956,-159.367 94.3786,-156.449 101.967,-153.676"/>
<polygon fill="black" stroke="black" stroke-width="2" points="103.407,-156.877 111.598,-150.157 101.004,-150.302 103.407,-156.877"/>
</g>
<!-- 4&#45;&gt;3 -->
<g id="edge12" class="edge"><title>4&#45;&gt;3</title>
<path fill="none" stroke="black" stroke-width="2" d="M79.7381,-176.391C93.763,-181.246 112.583,-187.761 128.275,-193.193"/>
<polygon fill="black" stroke="black" stroke-width="2" points="127.458,-196.614 138.053,-196.578 129.748,-189.999 127.458,-196.614"/>
</g>
<!-- 5&#45;&gt;1 -->
<g id="edge7" class="edge"><title>5&#45;&gt;1</title>
<path fill="none" stroke="black" stroke-width="2" d="M93.2195,-44.8313C80.6187,-50.7384 63.968,-58.544 49.8525,-65.1612"/>
<polygon fill="black" stroke="black" stroke-width="2" points="48.135,-62.1007 40.5661,-69.5145 51.1062,-68.4389 48.135,-62.1007"/>
</g>
<!-- 5&#45;&gt;2 -->
<g id="edge9" class="edge"><title>5&#45;&gt;2</title>
<path fill="none" stroke="black" stroke-width="2" d="M133.423,-31.4641C139.409,-30.2334 146.067,-28.8643 152.518,-27.5379"/>
<polygon fill="black" stroke="black" stroke-width="2" points="153.268,-30.9569 162.358,-25.5145 151.858,-24.1004 153.268,-30.9569"/>
</g>
<!-- 5&#45;&gt;7 -->
<g id="edge16" class="edge"><title>5&#45;&gt;7</title>
<path fill="none" stroke="black" stroke-width="2" d="M107.281,-56.5493C107.258,-56.6409 107.235,-56.7326 107.211,-56.8243"/>
<polygon fill="black" stroke="black" stroke-width="2" points="104.099,-54.8661 105.013,-65.4215 110.881,-56.6001 104.099,-54.8661"/>
</g>
<!-- 6&#45;&gt;2 -->
<g id="edge10" class="edge"><title>6&#45;&gt;2</title>
<path fill="none" stroke="black" stroke-width="2" d="M187.752,-81.27C187.097,-72.4772 186.325,-62.1199 185.608,-52.5051"/>
<polygon fill="black" stroke="black" stroke-width="2" points="189.094,-52.1849 184.861,-42.4727 182.114,-52.7052 189.094,-52.1849"/>
</g>
<!-- 6&#45;&gt;3 -->
<g id="edge13" class="edge"><title>6&#45;&gt;3</title>
<path fill="none" stroke="black" stroke-width="2" d="M183.042,-123.086C178.566,-137.58 172.484,-157.274 167.457,-173.55"/>
<polygon fill="black" stroke="black" stroke-width="2" points="164.094,-172.578 164.488,-183.166 170.783,-174.644 164.094,-172.578"/>
</g>
<!-- 6&#45;&gt;5 -->
<g id="edge15" class="edge"><title>6&#45;&gt;5</title>
<path fill="none" stroke="black" stroke-width="2" d="M173.071,-88.479C162.417,-79.1886 148.317,-66.892 136.411,-56.5103"/>
<polygon fill="black" stroke="black" stroke-width="2" points="138.427,-53.6238 128.59,-49.6893 133.826,-58.8996 138.427,-53.6238"/>
</g>
<!-- 7&#45;&gt;1 -->
<g id="edge8" class="edge"><title>7&#45;&gt;1</title>
<path fill="none" stroke="black" stroke-width="2" d="M78.2578,-84.1031C70.3193,-83.3355 61.1482,-82.4486 52.5128,-81.6136"/>
<polygon fill="black" stroke="black" stroke-width="2" points="52.6546,-78.111 42.3641,-80.6322 51.9808,-85.0785 52.6546,-78.111"/>
</g>
<!-- 7&#45;&gt;4 -->
<g id="edge14" class="edge"><title>7&#45;&gt;4</title>
<path fill="none" stroke="black" stroke-width="2" d="M90.3195,-105.454C85.1602,-116.05 78.6652,-129.388 72.9479,-141.129"/>
<polygon fill="black" stroke="black" stroke-width="2" points="69.8012,-139.597 68.5699,-150.12 76.0947,-142.661 69.8012,-139.597"/>
</g>
<!-- 7&#45;&gt;6 -->
<g id="edge17" class="edge"><title>7&#45;&gt;6</title>
<path fill="none" stroke="black" stroke-width="2" d="M120.95,-90.0864C132.114,-92.1406 146.005,-94.6969 158.347,-96.968"/>
<polygon fill="black" stroke="black" stroke-width="2" points="157.787,-100.424 168.256,-98.7914 159.054,-93.5393 157.787,-100.424"/>
</g>
</g>
</svg>

