<?xml version="1.0" encoding="UTF-8" standalone="no"?>
<!DOCTYPE svg PUBLIC "-//W3C//DTD SVG 1.1//EN"
 "http://www.w3.org/Graphics/SVG/1.1/DTD/svg11.dtd">
<!-- Generated by graphviz version 2.36.0 (20140111.2315)
 -->
<!-- Title: G Pages: 1 -->
<svg width="100%" height="100%"
 viewBox="0.00 0.00 270.13 201.83" xmlns="http://www.w3.org/2000/svg" xmlns:xlink="http://www.w3.org/1999/xlink">
<g id="graph0" class="graph" transform="scale(1 1) rotate(0) translate(4 197.826)">
<title>G</title>
<!-- 0 -->
<g id="node1" class="node"><title>0</title>
<ellipse fill="cadetblue" stroke="black" cx="146.259" cy="-95.4328" rx="21.4286" ry="21.4286"/>
<text text-anchor="middle" x="146.259" y="-90.4328" font-family="Times New Roman,serif" font-size="20.00">2</text>
</g>
<!-- 5 -->
<g id="node6" class="node"><title>5</title>
<ellipse fill="cadetblue" stroke="black" cx="79.7079" cy="-121.395" rx="21.4286" ry="21.4286"/>
<text text-anchor="middle" x="79.7079" y="-116.395" font-family="Times New Roman,serif" font-size="20.00">2</text>
</g>
<!-- 0&#45;&gt;5 -->
<g id="edge3" class="edge"><title>0&#45;&gt;5</title>
<path fill="none" stroke="black" stroke-width="2" d="M126.292,-103.222C120.896,-105.328 114.94,-107.651 109.143,-109.912"/>
<polygon fill="black" stroke="black" stroke-width="2" points="107.706,-106.716 99.6614,-113.611 110.25,-113.238 107.706,-106.716"/>
</g>
<!-- 6 -->
<g id="node7" class="node"><title>6</title>
<ellipse fill="brown" stroke="black" cx="116.002" cy="-172.613" rx="21.4286" ry="21.4286"/>
<text text-anchor="middle" x="116.002" y="-167.613" font-family="Times New Roman,serif" font-size="20.00">3</text>
</g>
<!-- 0&#45;&gt;6 -->
<g id="edge4" class="edge"><title>0&#45;&gt;6</title>
<path fill="none" stroke="black" stroke-width="2" d="M138.467,-115.309C135.114,-123.861 131.127,-134.032 127.449,-143.414"/>
<polygon fill="black" stroke="black" stroke-width="2" points="124.159,-142.217 123.767,-152.805 130.676,-144.772 124.159,-142.217"/>
</g>
<!-- 7 -->
<g id="node8" class="node"><title>7</title>
<ellipse fill="dodgerblue" stroke="black" cx="63.7385" cy="-67.3314" rx="21.4286" ry="21.4286"/>
<text text-anchor="middle" x="63.7385" y="-62.3314" font-family="Times New Roman,serif" font-size="20.00">4</text>
</g>
<!-- 0&#45;&gt;7 -->
<g id="edge5" class="edge"><title>0&#45;&gt;7</title>
<path fill="none" stroke="black" stroke-width="2" d="M125.861,-88.4864C116.068,-85.1514 104.147,-81.0919 93.3761,-77.4241"/>
<polygon fill="black" stroke="black" stroke-width="2" points="94.4967,-74.1084 83.9023,-74.1979 92.2402,-80.7347 94.4967,-74.1084"/>
</g>
<!-- 1 -->
<g id="node2" class="node"><title>1</title>
<ellipse fill="cadetblue" stroke="black" cx="195.238" cy="-145.864" rx="21.4286" ry="21.4286"/>
<text text-anchor="middle" x="195.238" y="-140.864" font-family="Times New Roman,serif" font-size="20.00">2</text>
</g>
<!-- 4 -->
<g id="node5" class="node"><title>4</title>
<ellipse fill="cadetblue" stroke="black" cx="240.92" cy="-49.0161" rx="21.4286" ry="21.4286"/>
<text text-anchor="middle" x="240.92" y="-44.0161" font-family="Times New Roman,serif" font-size="20.00">2</text>
</g>
<!-- 1&#45;&gt;4 -->
<g id="edge6" class="edge"><title>1&#45;&gt;4</title>
<path fill="none" stroke="black" stroke-width="2" d="M204.482,-126.266C211.089,-112.259 220.082,-93.1943 227.48,-77.5091"/>
<polygon fill="black" stroke="black" stroke-width="2" points="230.745,-78.7926 231.846,-68.2551 224.414,-75.8062 230.745,-78.7926"/>
</g>
<!-- 1&#45;&gt;7 -->
<g id="edge9" class="edge"><title>1&#45;&gt;7</title>
<path fill="none" stroke="black" stroke-width="2" d="M175.503,-137.755C161.745,-131.817 143.149,-123.219 127.642,-114.016 114.046,-105.947 99.7616,-95.6992 88.1542,-86.8621"/>
<polygon fill="black" stroke="black" stroke-width="2" points="90.2749,-84.0777 80.2236,-80.7279 85.9922,-89.6147 90.2749,-84.0777"/>
</g>
<!-- 2 -->
<g id="node3" class="node"><title>2</title>
<ellipse fill="cadetblue" stroke="black" cx="135.949" cy="-21.2132" rx="21.4286" ry="21.4286"/>
<text text-anchor="middle" x="135.949" y="-16.2132" font-family="Times New Roman,serif" font-size="20.00">2</text>
</g>
<!-- 2&#45;&gt;4 -->
<g id="edge10" class="edge"><title>2&#45;&gt;4</title>
<path fill="none" stroke="black" stroke-width="2" d="M156.688,-26.7062C171.928,-30.7426 192.888,-36.2941 210.087,-40.8494"/>
<polygon fill="black" stroke="black" stroke-width="2" points="209.662,-44.3575 220.224,-43.5345 211.454,-37.5908 209.662,-44.3575"/>
</g>
<!-- 2&#45;&gt;7 -->
<g id="edge13" class="edge"><title>2&#45;&gt;7</title>
<path fill="none" stroke="black" stroke-width="2" d="M117.727,-32.8508C109.454,-38.1342 99.5061,-44.4878 90.4153,-50.2938"/>
<polygon fill="black" stroke="black" stroke-width="2" points="88.2481,-47.525 81.7042,-55.8573 92.0159,-53.4245 88.2481,-47.525"/>
</g>
<!-- 3 -->
<g id="node4" class="node"><title>3</title>
<ellipse fill="cadetblue" stroke="black" cx="21.2132" cy="-162.037" rx="21.4286" ry="21.4286"/>
<text text-anchor="middle" x="21.2132" y="-157.037" font-family="Times New Roman,serif" font-size="20.00">2</text>
</g>
<!-- 3&#45;&gt;0 -->
<g id="edge1" class="edge"><title>3&#45;&gt;0</title>
<path fill="none" stroke="black" stroke-width="2" d="M42.5116,-159.354C58.7865,-156.535 81.2369,-150.932 98.2248,-140.078 107.579,-134.102 116.776,-126.202 124.578,-118.71"/>
<polygon fill="black" stroke="black" stroke-width="2" points="127.258,-120.98 131.869,-111.441 122.316,-116.023 127.258,-120.98"/>
</g>
<!-- 3&#45;&gt;7 -->
<g id="edge16" class="edge"><title>3&#45;&gt;7</title>
<path fill="none" stroke="black" stroke-width="2" d="M30.0245,-142.414C36.0114,-129.081 44.0319,-111.219 50.748,-96.262"/>
<polygon fill="black" stroke="black" stroke-width="2" points="54.0351,-97.4857 54.9385,-86.9294 47.6493,-94.6183 54.0351,-97.4857"/>
</g>
<!-- 4&#45;&gt;0 -->
<g id="edge2" class="edge"><title>4&#45;&gt;0</title>
<path fill="none" stroke="black" stroke-width="2" d="M221.764,-58.4092C208.164,-65.0781 189.683,-74.14 174.41,-81.6292"/>
<polygon fill="black" stroke="black" stroke-width="2" points="172.825,-78.5084 165.387,-86.0536 175.907,-84.7935 172.825,-78.5084"/>
</g>
<!-- 5&#45;&gt;1 -->
<g id="edge7" class="edge"><title>5&#45;&gt;1</title>
<path fill="none" stroke="black" stroke-width="2" d="M100.629,-125.827C118.459,-129.603 144.327,-135.082 164.509,-139.356"/>
<polygon fill="black" stroke="black" stroke-width="2" points="163.964,-142.818 174.472,-141.466 165.414,-135.97 163.964,-142.818"/>
</g>
<!-- 5&#45;&gt;2 -->
<g id="edge11" class="edge"><title>5&#45;&gt;2</title>
<path fill="none" stroke="black" stroke-width="2" d="M90.2864,-102.552C98.7702,-87.4395 110.801,-66.0091 120.384,-48.9391"/>
<polygon fill="black" stroke="black" stroke-width="2" points="123.574,-50.4055 125.418,-39.9722 117.47,-46.9788 123.574,-50.4055"/>
</g>
<!-- 5&#45;&gt;3 -->
<g id="edge14" class="edge"><title>5&#45;&gt;3</title>
<path fill="none" stroke="black" stroke-width="2" d="M62.1576,-133.589C57.4147,-136.885 52.1805,-140.521 47.0848,-144.062"/>
<polygon fill="black" stroke="black" stroke-width="2" points="44.9664,-141.272 38.7512,-149.852 48.9606,-147.02 44.9664,-141.272"/>
</g>
<!-- 5&#45;&gt;6 -->
<g id="edge17" class="edge"><title>5&#45;&gt;6</title>
<path fill="none" stroke="black" stroke-width="2" d="M91.9954,-138.735C93.8873,-141.405 95.8745,-144.21 97.8615,-147.014"/>
<polygon fill="black" stroke="black" stroke-width="2" points="95.0895,-149.156 103.727,-155.291 100.801,-145.108 95.0895,-149.156"/>
</g>
<!-- 6&#45;&gt;1 -->
<g id="edge8" class="edge"><title>6&#45;&gt;1</title>
<path fill="none" stroke="black" stroke-width="2" d="M136.407,-165.725C145.187,-162.761 155.629,-159.236 165.261,-155.984"/>
<polygon fill="black" stroke="black" stroke-width="2" points="166.547,-159.244 174.902,-152.729 164.307,-152.612 166.547,-159.244"/>
</g>
<!-- 6&#45;&gt;2 -->
<g id="edge12" class="edge"><title>6&#45;&gt;2</title>
<path fill="none" stroke="black" stroke-width="2" d="M116.173,-151.229C116.522,-135.684 117.469,-114.169 119.955,-95.4087 121.867,-80.9783 125.107,-65.1861 128.173,-51.8944"/>
<polygon fill="black" stroke="black" stroke-width="2" points="131.654,-52.3833 130.566,-41.8446 124.845,-50.762 131.654,-52.3833"/>
</g>
<!-- 6&#45;&gt;3 -->
<g id="edge15" class="edge"><title>6&#45;&gt;3</title>
<path fill="none" stroke="black" stroke-width="2" d="M94.4928,-170.213C82.044,-168.824 66.1583,-167.052 52.3619,-165.513"/>
<polygon fill="black" stroke="black" stroke-width="2" points="52.637,-162.022 42.3106,-164.391 51.8608,-168.979 52.637,-162.022"/>
</g>
<!-- 7&#45;&gt;5 -->
<g id="edge18" class="edge"><title>7&#45;&gt;5</title>
<path fill="none" stroke="black" stroke-width="2" d="M69.7758,-87.7707C70.0938,-88.8472 70.4162,-89.9386 70.7407,-91.0373"/>
<polygon fill="black" stroke="black" stroke-width="2" points="67.4725,-92.3284 73.662,-100.927 74.1858,-90.3454 67.4725,-92.3284"/>
</g>
<!-- 7&#45;&gt;6 -->
<g id="edge19" class="edge"><title>7&#45;&gt;6</title>
<path fill="none" stroke="black" stroke-width="2" d="M79.9741,-81.4324C86.3213,-87.5523 93.2862,-95.0951 98.3906,-102.879 105.827,-114.218 110.123,-128.485 112.605,-141.156"/>
<polygon fill="black" stroke="black" stroke-width="2" points="109.203,-142.032 114.293,-151.324 116.109,-140.886 109.203,-142.032"/>
</g>
</g>
</svg>

