<?xml version="1.0" encoding="UTF-8" standalone="no"?>
<!DOCTYPE svg PUBLIC "-//W3C//DTD SVG 1.1//EN"
 "http://www.w3.org/Graphics/SVG/1.1/DTD/svg11.dtd">
<!-- Generated by graphviz version 2.36.0 (20140111.2315)
 -->
<!-- Title: G Pages: 1 -->
<svg width="100%" height="100%"
 viewBox="0.00 0.00 253.01 249.52" xmlns="http://www.w3.org/2000/svg" xmlns:xlink="http://www.w3.org/1999/xlink">
<g id="graph0" class="graph" transform="scale(1 1) rotate(0) translate(4 245.522)">
<title>G</title>
<!-- 0 -->
<g id="node1" class="node"><title>0</title>
<ellipse fill="cadetblue" stroke="black" cx="117.229" cy="-94.4366" rx="21.4286" ry="21.4286"/>
<text text-anchor="middle" x="117.229" y="-89.4366" font-family="Times New Roman,serif" font-size="20.00">2</text>
</g>
<!-- 4 -->
<g id="node5" class="node"><title>4</title>
<ellipse fill="cadetblue" stroke="black" cx="223.802" cy="-87.5874" rx="21.4286" ry="21.4286"/>
<text text-anchor="middle" x="223.802" y="-82.5874" font-family="Times New Roman,serif" font-size="20.00">2</text>
</g>
<!-- 0&#45;&gt;4 -->
<g id="edge2" class="edge"><title>0&#45;&gt;4</title>
<path fill="none" stroke="black" stroke-width="2" d="M138.54,-93.067C153.932,-92.0777 174.974,-90.7254 192.302,-89.6118"/>
<polygon fill="black" stroke="black" stroke-width="2" points="192.773,-93.0888 202.528,-88.9546 192.324,-86.1032 192.773,-93.0888"/>
</g>
<!-- 5 -->
<g id="node6" class="node"><title>5</title>
<ellipse fill="dodgerblue" stroke="black" cx="54.3486" cy="-119.849" rx="21.4286" ry="21.4286"/>
<text text-anchor="middle" x="54.3486" y="-114.849" font-family="Times New Roman,serif" font-size="20.00">4</text>
</g>
<!-- 0&#45;&gt;5 -->
<g id="edge3" class="edge"><title>0&#45;&gt;5</title>
<path fill="none" stroke="black" stroke-width="2" d="M97.3334,-102.477C92.9753,-104.238 88.2735,-106.138 83.6345,-108.013"/>
<polygon fill="black" stroke="black" stroke-width="2" points="82.2909,-104.781 74.3308,-111.773 84.9138,-111.271 82.2909,-104.781"/>
</g>
<!-- 7 -->
<g id="node8" class="node"><title>7</title>
<ellipse fill="brown" stroke="black" cx="167.661" cy="-127.522" rx="21.4286" ry="21.4286"/>
<text text-anchor="middle" x="167.661" y="-122.522" font-family="Times New Roman,serif" font-size="20.00">3</text>
</g>
<!-- 0&#45;&gt;7 -->
<g id="edge5" class="edge"><title>0&#45;&gt;7</title>
<path fill="none" stroke="black" stroke-width="2" d="M135.152,-106.194C137.084,-107.462 139.079,-108.771 141.085,-110.087"/>
<polygon fill="black" stroke="black" stroke-width="2" points="139.515,-113.243 149.796,-115.802 143.355,-107.39 139.515,-113.243"/>
</g>
<!-- 1 -->
<g id="node2" class="node"><title>1</title>
<ellipse fill="cadetblue" stroke="black" cx="21.2132" cy="-220.308" rx="21.4286" ry="21.4286"/>
<text text-anchor="middle" x="21.2132" y="-215.308" font-family="Times New Roman,serif" font-size="20.00">2</text>
</g>
<!-- 1&#45;&gt;5 -->
<g id="edge7" class="edge"><title>1&#45;&gt;5</title>
<path fill="none" stroke="black" stroke-width="2" d="M27.9186,-199.979C32.6794,-185.545 39.1484,-165.933 44.4947,-149.724"/>
<polygon fill="black" stroke="black" stroke-width="2" points="47.8445,-150.741 47.6531,-140.148 41.1968,-148.548 47.8445,-150.741"/>
</g>
<!-- 2 -->
<g id="node3" class="node"><title>2</title>
<ellipse fill="cadetblue" stroke="black" cx="134.221" cy="-21.2132" rx="21.4286" ry="21.4286"/>
<text text-anchor="middle" x="134.221" y="-16.2132" font-family="Times New Roman,serif" font-size="20.00">2</text>
</g>
<!-- 2&#45;&gt;7 -->
<g id="edge11" class="edge"><title>2&#45;&gt;7</title>
<path fill="none" stroke="black" stroke-width="2" d="M140.669,-41.7106C145.619,-57.4471 152.53,-79.4183 158.119,-97.1888"/>
<polygon fill="black" stroke="black" stroke-width="2" points="154.894,-98.5986 161.233,-107.088 161.571,-96.4982 154.894,-98.5986"/>
</g>
<!-- 3 -->
<g id="node4" class="node"><title>3</title>
<ellipse fill="cadetblue" stroke="black" cx="87.932" cy="-201.714" rx="21.4286" ry="21.4286"/>
<text text-anchor="middle" x="87.932" y="-196.714" font-family="Times New Roman,serif" font-size="20.00">2</text>
</g>
<!-- 3&#45;&gt;0 -->
<g id="edge1" class="edge"><title>3&#45;&gt;0</title>
<path fill="none" stroke="black" stroke-width="2" d="M93.5808,-181.03C97.9378,-165.076 104.029,-142.771 108.938,-124.795"/>
<polygon fill="black" stroke="black" stroke-width="2" points="112.34,-125.626 111.598,-115.057 105.587,-123.782 112.34,-125.626"/>
</g>
<!-- 3&#45;&gt;1 -->
<g id="edge6" class="edge"><title>3&#45;&gt;1</title>
<path fill="none" stroke="black" stroke-width="2" d="M67.1875,-207.496C62.2457,-208.873 56.8708,-210.371 51.5959,-211.841"/>
<polygon fill="black" stroke="black" stroke-width="2" points="50.409,-208.538 41.7157,-214.595 52.2883,-215.281 50.409,-208.538"/>
</g>
<!-- 6 -->
<g id="node7" class="node"><title>6</title>
<ellipse fill="cadetblue" stroke="black" cx="150.164" cy="-194.203" rx="21.4286" ry="21.4286"/>
<text text-anchor="middle" x="150.164" y="-189.203" font-family="Times New Roman,serif" font-size="20.00">2</text>
</g>
<!-- 3&#45;&gt;6 -->
<g id="edge13" class="edge"><title>3&#45;&gt;6</title>
<path fill="none" stroke="black" stroke-width="2" d="M109.001,-199.171C112.075,-198.8 115.296,-198.411 118.525,-198.022"/>
<polygon fill="black" stroke="black" stroke-width="2" points="119.184,-201.468 128.693,-196.794 118.345,-194.518 119.184,-201.468"/>
</g>
<!-- 4&#45;&gt;2 -->
<g id="edge9" class="edge"><title>4&#45;&gt;2</title>
<path fill="none" stroke="black" stroke-width="2" d="M206.53,-74.7898C193.27,-64.9647 174.756,-51.2469 159.781,-40.1518"/>
<polygon fill="black" stroke="black" stroke-width="2" points="161.559,-37.1127 151.44,-33.9715 157.391,-42.7371 161.559,-37.1127"/>
</g>
<!-- 4&#45;&gt;7 -->
<g id="edge16" class="edge"><title>4&#45;&gt;7</title>
<path fill="none" stroke="black" stroke-width="2" d="M206.346,-100.004C202.266,-102.906 197.836,-106.058 193.478,-109.158"/>
<polygon fill="black" stroke="black" stroke-width="2" points="191.419,-106.327 185.299,-114.976 195.476,-112.031 191.419,-106.327"/>
</g>
<!-- 5&#45;&gt;2 -->
<g id="edge10" class="edge"><title>5&#45;&gt;2</title>
<path fill="none" stroke="black" stroke-width="2" d="M67.8979,-103.116C80.5201,-87.5292 99.5075,-64.0815 113.936,-46.2633"/>
<polygon fill="black" stroke="black" stroke-width="2" points="117.032,-48.0016 120.606,-38.0274 111.592,-43.5963 117.032,-48.0016"/>
</g>
<!-- 5&#45;&gt;3 -->
<g id="edge12" class="edge"><title>5&#45;&gt;3</title>
<path fill="none" stroke="black" stroke-width="2" d="M62.4782,-139.666C66.5208,-149.521 71.4858,-161.624 75.9541,-172.516"/>
<polygon fill="black" stroke="black" stroke-width="2" points="72.8438,-174.156 79.8773,-182.079 79.32,-171.499 72.8438,-174.156"/>
</g>
<!-- 6&#45;&gt;0 -->
<g id="edge4" class="edge"><title>6&#45;&gt;0</title>
<path fill="none" stroke="black" stroke-width="2" d="M143.499,-174.013C138.767,-159.679 132.337,-140.202 127.023,-124.105"/>
<polygon fill="black" stroke="black" stroke-width="2" points="130.343,-122.994 123.884,-114.596 123.695,-125.189 130.343,-122.994"/>
</g>
<!-- 6&#45;&gt;1 -->
<g id="edge8" class="edge"><title>6&#45;&gt;1</title>
<path fill="none" stroke="black" stroke-width="2" d="M133.386,-207.645C121.488,-216.04 104.705,-225.684 87.8884,-228.019 76.1354,-229.65 63.1831,-228.764 51.8451,-227.105"/>
<polygon fill="black" stroke="black" stroke-width="2" points="52.4144,-223.652 41.9672,-225.414 51.2331,-230.551 52.4144,-223.652"/>
</g>
<!-- 6&#45;&gt;4 -->
<g id="edge15" class="edge"><title>6&#45;&gt;4</title>
<path fill="none" stroke="black" stroke-width="2" d="M163.508,-177.07C170.457,-167.991 178.995,-156.581 186.26,-146.123 193.326,-135.95 200.758,-124.53 207.128,-114.496"/>
<polygon fill="black" stroke="black" stroke-width="2" points="210.271,-116.073 212.638,-105.746 204.348,-112.343 210.271,-116.073"/>
</g>
<!-- 6&#45;&gt;5 -->
<g id="edge17" class="edge"><title>6&#45;&gt;5</title>
<path fill="none" stroke="black" stroke-width="2" d="M133.034,-180.91C118.183,-169.385 96.4878,-152.549 79.638,-139.474"/>
<polygon fill="black" stroke="black" stroke-width="2" points="81.3762,-136.392 71.3301,-133.026 77.0846,-141.922 81.3762,-136.392"/>
</g>
<!-- 7&#45;&gt;3 -->
<g id="edge14" class="edge"><title>7&#45;&gt;3</title>
<path fill="none" stroke="black" stroke-width="2" d="M151.909,-142.18C140.225,-153.053 124.113,-168.046 110.982,-180.265"/>
<polygon fill="black" stroke="black" stroke-width="2" points="108.587,-177.712 103.651,-187.087 113.356,-182.837 108.587,-177.712"/>
</g>
<!-- 7&#45;&gt;5 -->
<g id="edge18" class="edge"><title>7&#45;&gt;5</title>
<path fill="none" stroke="black" stroke-width="2" d="M146.348,-126.079C129.255,-124.921 105.015,-123.28 85.7083,-121.972"/>
<polygon fill="black" stroke="black" stroke-width="2" points="85.7798,-118.469 75.5662,-121.285 85.3068,-125.453 85.7798,-118.469"/>
</g>
<!-- 7&#45;&gt;6 -->
<g id="edge19" class="edge"><title>7&#45;&gt;6</title>
<path fill="none" stroke="black" stroke-width="2" d="M162.221,-148.255C160.949,-153.1 159.568,-158.363 158.21,-163.539"/>
<polygon fill="black" stroke="black" stroke-width="2" points="154.814,-162.692 155.661,-173.253 161.584,-164.469 154.814,-162.692"/>
</g>
</g>
</svg>

