<?xml version="1.0" encoding="UTF-8" standalone="no"?>
<!DOCTYPE svg PUBLIC "-//W3C//DTD SVG 1.1//EN"
 "http://www.w3.org/Graphics/SVG/1.1/DTD/svg11.dtd">
<!-- Generated by graphviz version 2.36.0 (20140111.2315)
 -->
<!-- Title: G Pages: 1 -->
<svg width="100%" height="100%"
 viewBox="0.00 0.00 210.06 237.55" xmlns="http://www.w3.org/2000/svg" xmlns:xlink="http://www.w3.org/1999/xlink">
<g id="graph0" class="graph" transform="scale(1 1) rotate(0) translate(4 233.548)">
<title>G</title>
<!-- 0 -->
<g id="node1" class="node"><title>0</title>
<ellipse fill="cadetblue" stroke="black" cx="180.847" cy="-123.63" rx="21.4286" ry="21.4286"/>
<text text-anchor="middle" x="180.847" y="-118.63" font-family="Times New Roman,serif" font-size="20.00">2</text>
</g>
<!-- 6 -->
<g id="node7" class="node"><title>6</title>
<ellipse fill="cadetblue" stroke="black" cx="154.19" cy="-182.199" rx="21.4286" ry="21.4286"/>
<text text-anchor="middle" x="154.19" y="-177.199" font-family="Times New Roman,serif" font-size="20.00">2</text>
</g>
<!-- 0&#45;&gt;6 -->
<g id="edge3" class="edge"><title>0&#45;&gt;6</title>
<path fill="none" stroke="black" stroke-width="2" d="M171.97,-143.133C170.458,-146.456 168.859,-149.97 167.264,-153.472"/>
<polygon fill="black" stroke="black" stroke-width="2" points="164.075,-152.03 163.118,-162.582 170.446,-154.93 164.075,-152.03"/>
</g>
<!-- 7 -->
<g id="node8" class="node"><title>7</title>
<ellipse fill="brown" stroke="black" cx="78.9087" cy="-96.8993" rx="21.4286" ry="21.4286"/>
<text text-anchor="middle" x="78.9087" y="-91.8993" font-family="Times New Roman,serif" font-size="20.00">3</text>
</g>
<!-- 0&#45;&gt;7 -->
<g id="edge4" class="edge"><title>0&#45;&gt;7</title>
<path fill="none" stroke="black" stroke-width="2" d="M160.218,-118.221C145.572,-114.38 125.671,-109.162 109.223,-104.849"/>
<polygon fill="black" stroke="black" stroke-width="2" points="110.067,-101.452 99.5067,-102.301 108.292,-108.223 110.067,-101.452"/>
</g>
<!-- 1 -->
<g id="node2" class="node"><title>1</title>
<ellipse fill="cadetblue" stroke="black" cx="35.8994" cy="-193.05" rx="21.4286" ry="21.4286"/>
<text text-anchor="middle" x="35.8994" y="-188.05" font-family="Times New Roman,serif" font-size="20.00">2</text>
</g>
<!-- 1&#45;&gt;6 -->
<g id="edge7" class="edge"><title>1&#45;&gt;6</title>
<path fill="none" stroke="black" stroke-width="2" d="M56.8343,-188.389C68.871,-185.95 84.3171,-183.229 98.2194,-182.03 106.163,-181.345 114.763,-181.117 122.784,-181.122"/>
<polygon fill="black" stroke="black" stroke-width="2" points="122.849,-184.623 132.891,-181.246 122.934,-177.624 122.849,-184.623"/>
</g>
<!-- 1&#45;&gt;7 -->
<g id="edge8" class="edge"><title>1&#45;&gt;7</title>
<path fill="none" stroke="black" stroke-width="2" d="M44.603,-173.593C50.7824,-159.778 59.179,-141.007 66.1185,-125.493"/>
<polygon fill="black" stroke="black" stroke-width="2" points="69.3297,-126.885 70.2181,-116.328 62.9399,-124.027 69.3297,-126.885"/>
</g>
<!-- 2 -->
<g id="node3" class="node"><title>2</title>
<ellipse fill="cadetblue" stroke="black" cx="43.2619" cy="-21.2132" rx="21.4286" ry="21.4286"/>
<text text-anchor="middle" x="43.2619" y="-16.2132" font-family="Times New Roman,serif" font-size="20.00">2</text>
</g>
<!-- 2&#45;&gt;7 -->
<g id="edge11" class="edge"><title>2&#45;&gt;7</title>
<path fill="none" stroke="black" stroke-width="2" d="M52.4419,-40.7043C56.3919,-49.0912 61.0893,-59.0648 65.4226,-68.2653"/>
<polygon fill="black" stroke="black" stroke-width="2" points="62.3326,-69.9188 69.7599,-77.4743 68.6653,-66.9362 62.3326,-69.9188"/>
</g>
<!-- 3 -->
<g id="node4" class="node"><title>3</title>
<ellipse fill="cadetblue" stroke="black" cx="98.1758" cy="-208.334" rx="21.4286" ry="21.4286"/>
<text text-anchor="middle" x="98.1758" y="-203.334" font-family="Times New Roman,serif" font-size="20.00">2</text>
</g>
<!-- 3&#45;&gt;0 -->
<g id="edge1" class="edge"><title>3&#45;&gt;0</title>
<path fill="none" stroke="black" stroke-width="2" d="M111.467,-191.235C118.377,-182.666 127.132,-172.287 135.612,-163.577 142.126,-156.886 149.587,-150.012 156.546,-143.894"/>
<polygon fill="black" stroke="black" stroke-width="2" points="159.116,-146.299 164.398,-137.115 154.541,-141 159.116,-146.299"/>
</g>
<!-- 3&#45;&gt;1 -->
<g id="edge5" class="edge"><title>3&#45;&gt;1</title>
<path fill="none" stroke="black" stroke-width="2" d="M77.4386,-203.245C74.0087,-202.403 70.3885,-201.515 66.773,-200.627"/>
<polygon fill="black" stroke="black" stroke-width="2" points="67.3043,-197.154 56.7583,-198.169 65.6358,-203.952 67.3043,-197.154"/>
</g>
<!-- 4 -->
<g id="node5" class="node"><title>4</title>
<ellipse fill="cadetblue" stroke="black" cx="129.34" cy="-63.4528" rx="21.4286" ry="21.4286"/>
<text text-anchor="middle" x="129.34" y="-58.4528" font-family="Times New Roman,serif" font-size="20.00">2</text>
</g>
<!-- 4&#45;&gt;0 -->
<g id="edge2" class="edge"><title>4&#45;&gt;0</title>
<path fill="none" stroke="black" stroke-width="2" d="M143.143,-79.5793C148.455,-85.7851 154.638,-93.0091 160.441,-99.7901"/>
<polygon fill="black" stroke="black" stroke-width="2" points="157.844,-102.138 167.006,-107.459 163.162,-97.5863 157.844,-102.138"/>
</g>
<!-- 4&#45;&gt;2 -->
<g id="edge9" class="edge"><title>4&#45;&gt;2</title>
<path fill="none" stroke="black" stroke-width="2" d="M110.237,-54.0785C98.8695,-48.5005 84.2362,-41.3198 71.5487,-35.0938"/>
<polygon fill="black" stroke="black" stroke-width="2" points="72.8313,-31.8246 62.3121,-30.5613 69.7476,-38.1088 72.8313,-31.8246"/>
</g>
<!-- 5 -->
<g id="node6" class="node"><title>5</title>
<ellipse fill="cadetblue" stroke="black" cx="21.2132" cy="-114.804" rx="21.4286" ry="21.4286"/>
<text text-anchor="middle" x="21.2132" y="-109.804" font-family="Times New Roman,serif" font-size="20.00">2</text>
</g>
<!-- 4&#45;&gt;5 -->
<g id="edge14" class="edge"><title>4&#45;&gt;5</title>
<path fill="none" stroke="black" stroke-width="2" d="M107.928,-64.1718C93.4827,-65.544 74.5345,-69.1427 60.3096,-78.2985 54.3286,-82.1481 48.4268,-86.962 43.0921,-91.8186"/>
<polygon fill="black" stroke="black" stroke-width="2" points="40.5427,-89.4139 35.7389,-98.8571 45.3831,-94.4706 40.5427,-89.4139"/>
</g>
<!-- 5&#45;&gt;1 -->
<g id="edge6" class="edge"><title>5&#45;&gt;1</title>
<path fill="none" stroke="black" stroke-width="2" d="M25.1488,-135.772C26.6633,-143.841 28.4263,-153.234 30.0812,-162.052"/>
<polygon fill="black" stroke="black" stroke-width="2" points="26.6682,-162.841 31.9529,-172.024 33.548,-161.55 26.6682,-162.841"/>
</g>
<!-- 5&#45;&gt;2 -->
<g id="edge10" class="edge"><title>5&#45;&gt;2</title>
<path fill="none" stroke="black" stroke-width="2" d="M26.1065,-94.0329C29.0182,-81.6737 32.7665,-65.7633 36.0163,-51.9686"/>
<polygon fill="black" stroke="black" stroke-width="2" points="39.4958,-52.462 38.3823,-41.9259 32.6824,-50.8568 39.4958,-52.462"/>
</g>
<!-- 5&#45;&gt;3 -->
<g id="edge12" class="edge"><title>5&#45;&gt;3</title>
<path fill="none" stroke="black" stroke-width="2" d="M34.9726,-131.525C46.9018,-146.022 64.3279,-167.2 77.8623,-183.648"/>
<polygon fill="black" stroke="black" stroke-width="2" points="75.4789,-186.26 84.5355,-191.758 80.8842,-181.812 75.4789,-186.26"/>
</g>
<!-- 6&#45;&gt;3 -->
<g id="edge13" class="edge"><title>6&#45;&gt;3</title>
<path fill="none" stroke="black" stroke-width="2" d="M134.913,-191.193C132.302,-192.411 129.579,-193.682 126.847,-194.957"/>
<polygon fill="black" stroke="black" stroke-width="2" points="125.261,-191.835 117.678,-199.235 128.22,-198.178 125.261,-191.835"/>
</g>
<!-- 6&#45;&gt;4 -->
<g id="edge15" class="edge"><title>6&#45;&gt;4</title>
<path fill="none" stroke="black" stroke-width="2" d="M149.805,-161.243C145.943,-142.788 140.265,-115.656 135.869,-94.6498"/>
<polygon fill="black" stroke="black" stroke-width="2" points="139.24,-93.6698 133.765,-84.5988 132.388,-95.1037 139.24,-93.6698"/>
</g>
<!-- 7&#45;&gt;4 -->
<g id="edge16" class="edge"><title>7&#45;&gt;4</title>
<path fill="none" stroke="black" stroke-width="2" d="M96.831,-85.0132C98.7632,-83.7317 100.758,-82.4087 102.764,-81.0782"/>
<polygon fill="black" stroke="black" stroke-width="2" points="105.076,-83.7446 111.476,-75.3007 101.207,-77.9109 105.076,-83.7446"/>
</g>
<!-- 7&#45;&gt;5 -->
<g id="edge17" class="edge"><title>7&#45;&gt;5</title>
<path fill="none" stroke="black" stroke-width="2" d="M58.405,-103.262C56.1094,-103.975 53.7367,-104.711 51.3522,-105.451"/>
<polygon fill="black" stroke="black" stroke-width="2" points="50.1643,-102.155 41.6509,-108.461 52.239,-108.84 50.1643,-102.155"/>
</g>
</g>
</svg>

