<?xml version="1.0" encoding="UTF-8" standalone="no"?>
<!DOCTYPE svg PUBLIC "-//W3C//DTD SVG 1.1//EN"
 "http://www.w3.org/Graphics/SVG/1.1/DTD/svg11.dtd">
<!-- Generated by graphviz version 2.36.0 (20140111.2315)
 -->
<!-- Title: G Pages: 1 -->
<svg width="100%" height="100%"
 viewBox="0.00 0.00 221.58 241.63" xmlns="http://www.w3.org/2000/svg" xmlns:xlink="http://www.w3.org/1999/xlink">
<g id="graph0" class="graph" transform="scale(1 1) rotate(0) translate(4 237.633)">
<title>G</title>
<!-- 0 -->
<g id="node1" class="node"><title>0</title>
<ellipse fill="cadetblue" stroke="black" cx="22.8282" cy="-148.111" rx="21.4286" ry="21.4286"/>
<text text-anchor="middle" x="22.8282" y="-143.111" font-family="Times New Roman,serif" font-size="20.00">2</text>
</g>
<!-- 5 -->
<g id="node6" class="node"><title>5</title>
<ellipse fill="cadetblue" stroke="black" cx="72.9494" cy="-97.6791" rx="21.4286" ry="21.4286"/>
<text text-anchor="middle" x="72.9494" y="-92.6791" font-family="Times New Roman,serif" font-size="20.00">2</text>
</g>
<!-- 0&#45;&gt;5 -->
<g id="edge3" class="edge"><title>0&#45;&gt;5</title>
<path fill="none" stroke="black" stroke-width="2" d="M37.8662,-132.979C41.9302,-128.89 46.4151,-124.378 50.7813,-119.984"/>
<polygon fill="black" stroke="black" stroke-width="2" points="53.3553,-122.36 57.922,-112.8 48.3903,-117.425 53.3553,-122.36"/>
</g>
<!-- 6 -->
<g id="node7" class="node"><title>6</title>
<ellipse fill="brown" stroke="black" cx="125.098" cy="-120.134" rx="21.4286" ry="21.4286"/>
<text text-anchor="middle" x="125.098" y="-115.134" font-family="Times New Roman,serif" font-size="20.00">3</text>
</g>
<!-- 0&#45;&gt;6 -->
<g id="edge4" class="edge"><title>0&#45;&gt;6</title>
<path fill="none" stroke="black" stroke-width="2" d="M43.524,-142.449C58.2177,-138.43 78.1836,-132.968 94.6845,-128.454"/>
<polygon fill="black" stroke="black" stroke-width="2" points="95.7108,-131.802 104.433,-125.787 93.8637,-125.05 95.7108,-131.802"/>
</g>
<!-- 1 -->
<g id="node2" class="node"><title>1</title>
<ellipse fill="cadetblue" stroke="black" cx="21.2132" cy="-21.2132" rx="21.4286" ry="21.4286"/>
<text text-anchor="middle" x="21.2132" y="-16.2132" font-family="Times New Roman,serif" font-size="20.00">2</text>
</g>
<!-- 1&#45;&gt;6 -->
<g id="edge7" class="edge"><title>1&#45;&gt;6</title>
<path fill="none" stroke="black" stroke-width="2" d="M38.5055,-33.9035C53.2659,-45.0865 74.7177,-62.1893 91.5803,-79.11 96.352,-83.8982 101.147,-89.3186 105.558,-94.6135"/>
<polygon fill="black" stroke="black" stroke-width="2" points="103.105,-97.1472 112.115,-102.722 108.548,-92.7454 103.105,-97.1472"/>
</g>
<!-- 2 -->
<g id="node3" class="node"><title>2</title>
<ellipse fill="cadetblue" stroke="black" cx="192.372" cy="-58.2453" rx="21.4286" ry="21.4286"/>
<text text-anchor="middle" x="192.372" y="-53.2453" font-family="Times New Roman,serif" font-size="20.00">2</text>
</g>
<!-- 2&#45;&gt;6 -->
<g id="edge10" class="edge"><title>2&#45;&gt;6</title>
<path fill="none" stroke="black" stroke-width="2" d="M176.429,-72.9121C168.051,-80.6195 157.625,-90.2105 148.363,-98.7314"/>
<polygon fill="black" stroke="black" stroke-width="2" points="145.916,-96.2263 140.926,-105.573 150.655,-101.378 145.916,-96.2263"/>
</g>
<!-- 3 -->
<g id="node4" class="node"><title>3</title>
<ellipse fill="cadetblue" stroke="black" cx="90.5975" cy="-212.419" rx="21.4286" ry="21.4286"/>
<text text-anchor="middle" x="90.5975" y="-207.419" font-family="Times New Roman,serif" font-size="20.00">2</text>
</g>
<!-- 3&#45;&gt;0 -->
<g id="edge1" class="edge"><title>3&#45;&gt;0</title>
<path fill="none" stroke="black" stroke-width="2" d="M74.8796,-197.504C66.2407,-189.306 55.3651,-178.986 45.7918,-169.902"/>
<polygon fill="black" stroke="black" stroke-width="2" points="48.1241,-167.29 38.461,-162.945 43.3056,-172.367 48.1241,-167.29"/>
</g>
<!-- 4 -->
<g id="node5" class="node"><title>4</title>
<ellipse fill="cadetblue" stroke="black" cx="101.888" cy="-29.0242" rx="21.4286" ry="21.4286"/>
<text text-anchor="middle" x="101.888" y="-24.0242" font-family="Times New Roman,serif" font-size="20.00">2</text>
</g>
<!-- 4&#45;&gt;0 -->
<g id="edge2" class="edge"><title>4&#45;&gt;0</title>
<path fill="none" stroke="black" stroke-width="2" d="M85.9241,-43.2174C75.9593,-52.6662 63.3639,-65.7487 54.3803,-79.0483 46.2293,-91.1153 39.2377,-105.628 33.9226,-118.229"/>
<polygon fill="black" stroke="black" stroke-width="2" points="30.5394,-117.258 30.0293,-127.841 37.0275,-119.886 30.5394,-117.258"/>
</g>
<!-- 4&#45;&gt;1 -->
<g id="edge5" class="edge"><title>4&#45;&gt;1</title>
<path fill="none" stroke="black" stroke-width="2" d="M80.6919,-26.972C72.1442,-26.1444 62.1037,-25.1722 52.7311,-24.2648"/>
<polygon fill="black" stroke="black" stroke-width="2" points="52.839,-20.7589 42.5482,-23.2789 52.1643,-27.7264 52.839,-20.7589"/>
</g>
<!-- 4&#45;&gt;2 -->
<g id="edge8" class="edge"><title>4&#45;&gt;2</title>
<path fill="none" stroke="black" stroke-width="2" d="M122.42,-35.6549C134.221,-39.4658 149.256,-44.3214 162.361,-48.5536"/>
<polygon fill="black" stroke="black" stroke-width="2" points="161.329,-51.8982 171.921,-51.6408 163.48,-45.237 161.329,-51.8982"/>
</g>
<!-- 5&#45;&gt;1 -->
<g id="edge6" class="edge"><title>5&#45;&gt;1</title>
<path fill="none" stroke="black" stroke-width="2" d="M60.9501,-79.9441C54.4203,-70.2931 46.2166,-58.1681 38.9613,-47.4448"/>
<polygon fill="black" stroke="black" stroke-width="2" points="41.6502,-45.1731 33.1475,-38.852 35.8525,-49.0958 41.6502,-45.1731"/>
</g>
<!-- 5&#45;&gt;2 -->
<g id="edge9" class="edge"><title>5&#45;&gt;2</title>
<path fill="none" stroke="black" stroke-width="2" d="M93.2078,-90.9897C112.166,-84.7297 140.727,-75.2985 162.336,-68.1632"/>
<polygon fill="black" stroke="black" stroke-width="2" points="163.616,-71.4266 172.014,-64.9675 161.421,-64.7796 163.616,-71.4266"/>
</g>
<!-- 5&#45;&gt;3 -->
<g id="edge11" class="edge"><title>5&#45;&gt;3</title>
<path fill="none" stroke="black" stroke-width="2" d="M76.1864,-118.724C78.8687,-136.163 82.7211,-161.21 85.768,-181.02"/>
<polygon fill="black" stroke="black" stroke-width="2" points="82.3417,-181.767 87.3213,-191.119 89.2604,-180.703 82.3417,-181.767"/>
</g>
<!-- 5&#45;&gt;4 -->
<g id="edge13" class="edge"><title>5&#45;&gt;4</title>
<path fill="none" stroke="black" stroke-width="2" d="M81.3198,-77.8213C83.9218,-71.6483 86.8458,-64.7111 89.6547,-58.0473"/>
<polygon fill="black" stroke="black" stroke-width="2" points="92.9777,-59.1747 93.6367,-48.6003 86.5273,-56.4557 92.9777,-59.1747"/>
</g>
<!-- 6&#45;&gt;3 -->
<g id="edge12" class="edge"><title>6&#45;&gt;3</title>
<path fill="none" stroke="black" stroke-width="2" d="M117.612,-140.159C112.955,-152.615 106.883,-168.857 101.676,-182.787"/>
<polygon fill="black" stroke="black" stroke-width="2" points="98.2924,-181.841 98.069,-192.434 104.849,-184.293 98.2924,-181.841"/>
</g>
<!-- 6&#45;&gt;4 -->
<g id="edge14" class="edge"><title>6&#45;&gt;4</title>
<path fill="none" stroke="black" stroke-width="2" d="M119.831,-99.4598C116.834,-87.6943 113.023,-72.7349 109.685,-59.6312"/>
<polygon fill="black" stroke="black" stroke-width="2" points="112.994,-58.4431 107.134,-49.6166 106.211,-60.1712 112.994,-58.4431"/>
</g>
<!-- 6&#45;&gt;5 -->
<g id="edge15" class="edge"><title>6&#45;&gt;5</title>
<path fill="none" stroke="black" stroke-width="2" d="M105.383,-111.645C104.344,-111.198 103.292,-110.744 102.232,-110.288"/>
<polygon fill="black" stroke="black" stroke-width="2" points="103.261,-106.921 92.6924,-106.18 100.493,-113.35 103.261,-106.921"/>
</g>
</g>
</svg>

