<?xml version="1.0" encoding="UTF-8" standalone="no"?>
<!DOCTYPE svg PUBLIC "-//W3C//DTD SVG 1.1//EN"
 "http://www.w3.org/Graphics/SVG/1.1/DTD/svg11.dtd">
<!-- Generated by graphviz version 2.36.0 (20140111.2315)
 -->
<!-- Title: G Pages: 1 -->
<svg width="100%" height="100%"
 viewBox="0.00 0.00 185.11 253.80" xmlns="http://www.w3.org/2000/svg" xmlns:xlink="http://www.w3.org/1999/xlink">
<g id="graph0" class="graph" transform="scale(1 1) rotate(0) translate(4 249.802)">
<title>G</title>
<!-- 0 -->
<g id="node1" class="node"><title>0</title>
<ellipse fill="cadetblue" stroke="black" cx="90.2612" cy="-140.838" rx="21.4286" ry="21.4286"/>
<text text-anchor="middle" x="90.2612" y="-135.838" font-family="Times New Roman,serif" font-size="20.00">2</text>
</g>
<!-- 6 -->
<g id="node7" class="node"><title>6</title>
<ellipse fill="cadetblue" stroke="black" cx="155.896" cy="-189.994" rx="21.4286" ry="21.4286"/>
<text text-anchor="middle" x="155.896" y="-184.994" font-family="Times New Roman,serif" font-size="20.00">2</text>
</g>
<!-- 0&#45;&gt;6 -->
<g id="edge3" class="edge"><title>0&#45;&gt;6</title>
<path fill="none" stroke="black" stroke-width="2" d="M107.506,-153.753C114.535,-159.018 122.805,-165.211 130.5,-170.974"/>
<polygon fill="black" stroke="black" stroke-width="2" points="128.436,-173.801 138.538,-176.995 132.632,-168.199 128.436,-173.801"/>
</g>
<!-- 7 -->
<g id="node8" class="node"><title>7</title>
<ellipse fill="cadetblue" stroke="black" cx="51.7634" cy="-43.9255" rx="21.4286" ry="21.4286"/>
<text text-anchor="middle" x="51.7634" y="-38.9255" font-family="Times New Roman,serif" font-size="20.00">2</text>
</g>
<!-- 0&#45;&gt;7 -->
<g id="edge4" class="edge"><title>0&#45;&gt;7</title>
<path fill="none" stroke="black" stroke-width="2" d="M82.2845,-120.758C76.8284,-107.023 69.5067,-88.5917 63.4022,-73.2245"/>
<polygon fill="black" stroke="black" stroke-width="2" points="66.5428,-71.65 59.5982,-63.6486 60.0373,-74.2343 66.5428,-71.65"/>
</g>
<!-- 1 -->
<g id="node2" class="node"><title>1</title>
<ellipse fill="cadetblue" stroke="black" cx="154.189" cy="-96.0324" rx="21.4286" ry="21.4286"/>
<text text-anchor="middle" x="154.189" y="-91.0324" font-family="Times New Roman,serif" font-size="20.00">2</text>
</g>
<!-- 1&#45;&gt;6 -->
<g id="edge7" class="edge"><title>1&#45;&gt;6</title>
<path fill="none" stroke="black" stroke-width="2" d="M154.577,-117.354C154.797,-129.488 155.077,-144.915 155.323,-158.429"/>
<polygon fill="black" stroke="black" stroke-width="2" points="151.829,-158.822 155.51,-168.757 158.828,-158.695 151.829,-158.822"/>
</g>
<!-- 1&#45;&gt;7 -->
<g id="edge8" class="edge"><title>1&#45;&gt;7</title>
<path fill="none" stroke="black" stroke-width="2" d="M137.431,-82.6728C132.296,-78.9057 126.519,-74.9808 120.912,-71.8342 108.53,-64.8845 94.0653,-58.767 81.5749,-54.0442"/>
<polygon fill="black" stroke="black" stroke-width="2" points="82.6526,-50.7117 72.0588,-50.5664 80.2498,-57.2864 82.6526,-50.7117"/>
</g>
<!-- 2 -->
<g id="node3" class="node"><title>2</title>
<ellipse fill="cadetblue" stroke="black" cx="102.285" cy="-90.4068" rx="21.4286" ry="21.4286"/>
<text text-anchor="middle" x="102.285" y="-85.4068" font-family="Times New Roman,serif" font-size="20.00">2</text>
</g>
<!-- 4 -->
<g id="node5" class="node"><title>4</title>
<ellipse fill="cadetblue" stroke="black" cx="135.373" cy="-21.2132" rx="21.4286" ry="21.4286"/>
<text text-anchor="middle" x="135.373" y="-16.2132" font-family="Times New Roman,serif" font-size="20.00">2</text>
</g>
<!-- 2&#45;&gt;4 -->
<g id="edge9" class="edge"><title>2&#45;&gt;4</title>
<path fill="none" stroke="black" stroke-width="2" d="M111.502,-71.1325C114.657,-64.5345 118.258,-57.0047 121.689,-49.829"/>
<polygon fill="black" stroke="black" stroke-width="2" points="125.049,-50.9156 126.206,-40.3841 118.734,-47.8957 125.049,-50.9156"/>
</g>
<!-- 5 -->
<g id="node6" class="node"><title>5</title>
<ellipse fill="cadetblue" stroke="black" cx="21.2132" cy="-128.373" rx="21.4286" ry="21.4286"/>
<text text-anchor="middle" x="21.2132" y="-123.373" font-family="Times New Roman,serif" font-size="20.00">2</text>
</g>
<!-- 2&#45;&gt;5 -->
<g id="edge10" class="edge"><title>2&#45;&gt;5</title>
<path fill="none" stroke="black" stroke-width="2" d="M83.0721,-99.4042C73.149,-104.051 60.8427,-109.814 49.8261,-114.973"/>
<polygon fill="black" stroke="black" stroke-width="2" points="48.1409,-111.898 40.5691,-119.308 51.1097,-118.237 48.1409,-111.898"/>
</g>
<!-- 3 -->
<g id="node4" class="node"><title>3</title>
<ellipse fill="cadetblue" stroke="black" cx="59.0805" cy="-224.589" rx="21.4286" ry="21.4286"/>
<text text-anchor="middle" x="59.0805" y="-219.589" font-family="Times New Roman,serif" font-size="20.00">2</text>
</g>
<!-- 3&#45;&gt;0 -->
<g id="edge1" class="edge"><title>3&#45;&gt;0</title>
<path fill="none" stroke="black" stroke-width="2" d="M66.6285,-204.315C70.4202,-194.131 75.0858,-181.599 79.2671,-170.368"/>
<polygon fill="black" stroke="black" stroke-width="2" points="82.5737,-171.518 82.7828,-160.925 76.0136,-169.076 82.5737,-171.518"/>
</g>
<!-- 4&#45;&gt;0 -->
<g id="edge2" class="edge"><title>4&#45;&gt;0</title>
<path fill="none" stroke="black" stroke-width="2" d="M136.509,-42.4488C136.505,-61.3918 133.902,-89.129 120.858,-109.034 118.607,-112.469 115.958,-115.859 113.175,-119.073"/>
<polygon fill="black" stroke="black" stroke-width="2" points="110.394,-116.923 106.136,-126.625 115.515,-121.696 110.394,-116.923"/>
</g>
<!-- 4&#45;&gt;1 -->
<g id="edge5" class="edge"><title>4&#45;&gt;1</title>
<path fill="none" stroke="black" stroke-width="2" d="M140.614,-42.0545C142.429,-49.27 144.503,-57.5161 146.474,-65.3544"/>
<polygon fill="black" stroke="black" stroke-width="2" points="143.143,-66.4585 148.976,-75.3029 149.931,-64.7512 143.143,-66.4585"/>
</g>
<!-- 5&#45;&gt;1 -->
<g id="edge6" class="edge"><title>5&#45;&gt;1</title>
<path fill="none" stroke="black" stroke-width="2" d="M41.5521,-122.198C55.1987,-118.577 73.6531,-114.681 90.2853,-114.534 95.6884,-114.486 96.8696,-117.247 102.246,-116.711 110.305,-115.907 118.628,-113.431 126.188,-110.457"/>
<polygon fill="black" stroke="black" stroke-width="2" points="127.827,-113.561 135.599,-106.361 125.033,-107.143 127.827,-113.561"/>
</g>
<!-- 5&#45;&gt;3 -->
<g id="edge13" class="edge"><title>5&#45;&gt;3</title>
<path fill="none" stroke="black" stroke-width="2" d="M29.0593,-148.309C34.3905,-161.855 41.5325,-180.002 47.5129,-195.197"/>
<polygon fill="black" stroke="black" stroke-width="2" points="44.3253,-196.655 51.2444,-204.678 50.8389,-194.091 44.3253,-196.655"/>
</g>
<!-- 6&#45;&gt;2 -->
<g id="edge11" class="edge"><title>6&#45;&gt;2</title>
<path fill="none" stroke="black" stroke-width="2" d="M145.812,-171.262C137.776,-156.335 126.402,-135.206 117.296,-118.291"/>
<polygon fill="black" stroke="black" stroke-width="2" points="120.328,-116.539 112.506,-109.393 114.164,-119.857 120.328,-116.539"/>
</g>
<!-- 6&#45;&gt;3 -->
<g id="edge14" class="edge"><title>6&#45;&gt;3</title>
<path fill="none" stroke="black" stroke-width="2" d="M135.836,-197.162C122.205,-202.033 103.946,-208.557 88.6554,-214.021"/>
<polygon fill="black" stroke="black" stroke-width="2" points="87.3542,-210.769 79.115,-217.43 89.7096,-217.361 87.3542,-210.769"/>
</g>
<!-- 7&#45;&gt;2 -->
<g id="edge12" class="edge"><title>7&#45;&gt;2</title>
<path fill="none" stroke="black" stroke-width="2" d="M67.4718,-58.3777C71.1433,-61.7555 75.1305,-65.4239 79.0521,-69.0318"/>
<polygon fill="black" stroke="black" stroke-width="2" points="76.6833,-71.6085 86.4123,-75.8034 81.4228,-66.457 76.6833,-71.6085"/>
</g>
<!-- 7&#45;&gt;4 -->
<g id="edge15" class="edge"><title>7&#45;&gt;4</title>
<path fill="none" stroke="black" stroke-width="2" d="M72.4309,-38.3112C82.1788,-35.6633 94.0074,-32.4501 104.767,-29.5271"/>
<polygon fill="black" stroke="black" stroke-width="2" points="105.921,-32.8408 114.653,-26.8416 104.086,-26.0856 105.921,-32.8408"/>
</g>
<!-- 7&#45;&gt;5 -->
<g id="edge16" class="edge"><title>7&#45;&gt;5</title>
<path fill="none" stroke="black" stroke-width="2" d="M44.5234,-63.9384C40.7841,-74.2746 36.1467,-87.0934 31.9954,-98.5687"/>
<polygon fill="black" stroke="black" stroke-width="2" points="28.6178,-97.6168 28.5071,-108.211 35.2003,-99.9982 28.6178,-97.6168"/>
</g>
</g>
</svg>

