<?xml version="1.0" encoding="UTF-8" standalone="no"?>
<!DOCTYPE svg PUBLIC "-//W3C//DTD SVG 1.1//EN"
 "http://www.w3.org/Graphics/SVG/1.1/DTD/svg11.dtd">
<!-- Generated by graphviz version 2.36.0 (20140111.2315)
 -->
<!-- Title: G Pages: 1 -->
<svg width="100%" height="100%"
 viewBox="0.00 0.00 250.93 262.31" xmlns="http://www.w3.org/2000/svg" xmlns:xlink="http://www.w3.org/1999/xlink">
<g id="graph0" class="graph" transform="scale(1 1) rotate(0) translate(4 258.312)">
<title>G</title>
<!-- 0 -->
<g id="node1" class="node"><title>0</title>
<ellipse fill="cadetblue" stroke="black" cx="159.939" cy="-21.2132" rx="21.4286" ry="21.4286"/>
<text text-anchor="middle" x="159.939" y="-16.2132" font-family="Times New Roman,serif" font-size="20.00">2</text>
</g>
<!-- 6 -->
<g id="node7" class="node"><title>6</title>
<ellipse fill="cadetblue" stroke="black" cx="93.7233" cy="-48.1726" rx="21.4286" ry="21.4286"/>
<text text-anchor="middle" x="93.7233" y="-43.1726" font-family="Times New Roman,serif" font-size="20.00">2</text>
</g>
<!-- 0&#45;&gt;6 -->
<g id="edge3" class="edge"><title>0&#45;&gt;6</title>
<path fill="none" stroke="black" stroke-width="2" d="M140.072,-29.3019C134.703,-31.4878 128.778,-33.9002 123.01,-36.2488"/>
<polygon fill="black" stroke="black" stroke-width="2" points="121.518,-33.077 113.576,-40.0896 124.158,-39.5603 121.518,-33.077"/>
</g>
<!-- 7 -->
<g id="node8" class="node"><title>7</title>
<ellipse fill="brown" stroke="black" cx="137.333" cy="-129.026" rx="21.4286" ry="21.4286"/>
<text text-anchor="middle" x="137.333" y="-124.026" font-family="Times New Roman,serif" font-size="20.00">3</text>
</g>
<!-- 0&#45;&gt;7 -->
<g id="edge4" class="edge"><title>0&#45;&gt;7</title>
<path fill="none" stroke="black" stroke-width="2" d="M155.58,-42.0006C152.255,-57.8573 147.621,-79.9563 143.856,-97.9165"/>
<polygon fill="black" stroke="black" stroke-width="2" points="140.382,-97.4291 141.755,-107.935 147.233,-98.8657 140.382,-97.4291"/>
</g>
<!-- 1 -->
<g id="node2" class="node"><title>1</title>
<ellipse fill="cadetblue" stroke="black" cx="21.2132" cy="-160.881" rx="21.4286" ry="21.4286"/>
<text text-anchor="middle" x="21.2132" y="-155.881" font-family="Times New Roman,serif" font-size="20.00">2</text>
</g>
<!-- 1&#45;&gt;6 -->
<g id="edge7" class="edge"><title>1&#45;&gt;6</title>
<path fill="none" stroke="black" stroke-width="2" d="M38.1151,-147.291C47.2363,-139.288 58.1607,-128.538 65.8156,-117.235 73.8264,-105.407 80.1202,-90.9265 84.6872,-78.2859"/>
<polygon fill="black" stroke="black" stroke-width="2" points="88.0655,-79.223 87.9794,-68.6285 81.4399,-76.9642 88.0655,-79.223"/>
</g>
<!-- 1&#45;&gt;7 -->
<g id="edge8" class="edge"><title>1&#45;&gt;7</title>
<path fill="none" stroke="black" stroke-width="2" d="M41.7057,-155.26C59.752,-150.309 86.284,-143.03 106.826,-137.395"/>
<polygon fill="black" stroke="black" stroke-width="2" points="107.937,-140.72 116.654,-134.699 106.085,-133.969 107.937,-140.72"/>
</g>
<!-- 2 -->
<g id="node3" class="node"><title>2</title>
<ellipse fill="cadetblue" stroke="black" cx="200.906" cy="-213.644" rx="21.4286" ry="21.4286"/>
<text text-anchor="middle" x="200.906" y="-208.644" font-family="Times New Roman,serif" font-size="20.00">2</text>
</g>
<!-- 5 -->
<g id="node6" class="node"><title>5</title>
<ellipse fill="cadetblue" stroke="black" cx="82.3468" cy="-233.098" rx="21.4286" ry="21.4286"/>
<text text-anchor="middle" x="82.3468" y="-228.098" font-family="Times New Roman,serif" font-size="20.00">2</text>
</g>
<!-- 2&#45;&gt;5 -->
<g id="edge10" class="edge"><title>2&#45;&gt;5</title>
<path fill="none" stroke="black" stroke-width="2" d="M179.71,-217.122C161.249,-220.152 134.242,-224.583 113.353,-228.011"/>
<polygon fill="black" stroke="black" stroke-width="2" points="112.661,-224.577 103.359,-229.651 113.794,-231.485 112.661,-224.577"/>
</g>
<!-- 3 -->
<g id="node4" class="node"><title>3</title>
<ellipse fill="cadetblue" stroke="black" cx="47.2465" cy="-98.6041" rx="21.4286" ry="21.4286"/>
<text text-anchor="middle" x="47.2465" y="-93.6041" font-family="Times New Roman,serif" font-size="20.00">2</text>
</g>
<!-- 3&#45;&gt;0 -->
<g id="edge1" class="edge"><title>3&#45;&gt;0</title>
<path fill="none" stroke="black" stroke-width="2" d="M67.1915,-90.7616C80.5367,-85.0655 98.1746,-76.6484 112.301,-66.7948 121.455,-60.4099 130.546,-52.2768 138.294,-44.6532"/>
<polygon fill="black" stroke="black" stroke-width="2" points="141.028,-46.8653 145.548,-37.283 136.039,-41.9552 141.028,-46.8653"/>
</g>
<!-- 3&#45;&gt;1 -->
<g id="edge5" class="edge"><title>3&#45;&gt;1</title>
<path fill="none" stroke="black" stroke-width="2" d="M39.0094,-118.309C37.2526,-122.512 35.3608,-127.037 33.4896,-131.514"/>
<polygon fill="black" stroke="black" stroke-width="2" points="30.1137,-130.515 29.4861,-141.091 36.5722,-133.214 30.1137,-130.515"/>
</g>
<!-- 3&#45;&gt;5 -->
<g id="edge12" class="edge"><title>3&#45;&gt;5</title>
<path fill="none" stroke="black" stroke-width="2" d="M52.654,-119.324C58.4344,-141.473 67.6617,-176.829 74.2965,-202.252"/>
<polygon fill="black" stroke="black" stroke-width="2" points="70.9635,-203.341 76.8754,-212.133 77.7366,-201.574 70.9635,-203.341"/>
</g>
<!-- 4 -->
<g id="node5" class="node"><title>4</title>
<ellipse fill="cadetblue" stroke="black" cx="221.713" cy="-96.5495" rx="21.4286" ry="21.4286"/>
<text text-anchor="middle" x="221.713" y="-91.5495" font-family="Times New Roman,serif" font-size="20.00">2</text>
</g>
<!-- 4&#45;&gt;0 -->
<g id="edge2" class="edge"><title>4&#45;&gt;0</title>
<path fill="none" stroke="black" stroke-width="2" d="M208.003,-79.8299C199.708,-69.714 188.99,-56.6426 179.781,-45.4112"/>
<polygon fill="black" stroke="black" stroke-width="2" points="182.445,-43.1403 173.397,-37.6268 177.032,-47.5789 182.445,-43.1403"/>
</g>
<!-- 4&#45;&gt;2 -->
<g id="edge9" class="edge"><title>4&#45;&gt;2</title>
<path fill="none" stroke="black" stroke-width="2" d="M217.993,-117.484C214.773,-135.604 210.072,-162.061 206.416,-182.639"/>
<polygon fill="black" stroke="black" stroke-width="2" points="202.968,-182.038 204.664,-192.497 209.86,-183.263 202.968,-182.038"/>
</g>
<!-- 5&#45;&gt;1 -->
<g id="edge6" class="edge"><title>5&#45;&gt;1</title>
<path fill="none" stroke="black" stroke-width="2" d="M68.4747,-216.711C60.5802,-207.386 50.5426,-195.528 41.7501,-185.142"/>
<polygon fill="black" stroke="black" stroke-width="2" points="44.163,-182.575 35.0305,-177.204 38.8202,-187.098 44.163,-182.575"/>
</g>
<!-- 6&#45;&gt;3 -->
<g id="edge13" class="edge"><title>6&#45;&gt;3</title>
<path fill="none" stroke="black" stroke-width="2" d="M79.2725,-63.853C75.9816,-67.424 72.4149,-71.2941 68.897,-75.1114"/>
<polygon fill="black" stroke="black" stroke-width="2" points="66.0516,-73.0343 61.8484,-82.7597 71.1991,-77.7781 66.0516,-73.0343"/>
</g>
<!-- 6&#45;&gt;4 -->
<g id="edge15" class="edge"><title>6&#45;&gt;4</title>
<path fill="none" stroke="black" stroke-width="2" d="M113.722,-55.7315C134.855,-63.7193 168.395,-76.3967 192.491,-85.5042"/>
<polygon fill="black" stroke="black" stroke-width="2" points="191.264,-88.7819 201.855,-89.0437 193.738,-82.2341 191.264,-88.7819"/>
</g>
<!-- 6&#45;&gt;7 -->
<g id="edge17" class="edge"><title>6&#45;&gt;7</title>
<path fill="none" stroke="black" stroke-width="2" d="M103.838,-66.9252C109.303,-77.0571 116.158,-89.7677 122.241,-101.046"/>
<polygon fill="black" stroke="black" stroke-width="2" points="119.294,-102.955 127.122,-110.095 125.455,-99.6321 119.294,-102.955"/>
</g>
<!-- 7&#45;&gt;2 -->
<g id="edge11" class="edge"><title>7&#45;&gt;2</title>
<path fill="none" stroke="black" stroke-width="2" d="M150.198,-146.15C159.332,-158.307 171.743,-174.827 182,-188.48"/>
<polygon fill="black" stroke="black" stroke-width="2" points="179.255,-190.653 188.06,-196.546 184.852,-186.449 179.255,-190.653"/>
</g>
<!-- 7&#45;&gt;3 -->
<g id="edge14" class="edge"><title>7&#45;&gt;3</title>
<path fill="none" stroke="black" stroke-width="2" d="M116.891,-122.123C105.142,-118.155 90.1728,-113.1 77.1253,-108.694"/>
<polygon fill="black" stroke="black" stroke-width="2" points="78.2017,-105.363 67.6075,-105.48 75.9621,-111.996 78.2017,-105.363"/>
</g>
<!-- 7&#45;&gt;4 -->
<g id="edge16" class="edge"><title>7&#45;&gt;4</title>
<path fill="none" stroke="black" stroke-width="2" d="M157.33,-121.33C167.733,-117.325 180.653,-112.353 192.183,-107.915"/>
<polygon fill="black" stroke="black" stroke-width="2" points="193.784,-111.049 201.86,-104.191 191.27,-104.516 193.784,-111.049"/>
</g>
</g>
</svg>

