<?xml version="1.0" encoding="UTF-8" standalone="no"?>
<!DOCTYPE svg PUBLIC "-//W3C//DTD SVG 1.1//EN"
 "http://www.w3.org/Graphics/SVG/1.1/DTD/svg11.dtd">
<!-- Generated by graphviz version 2.36.0 (20140111.2315)
 -->
<!-- Title: G Pages: 1 -->
<svg width="100%" height="100%"
 viewBox="0.00 0.00 323.68 279.89" xmlns="http://www.w3.org/2000/svg" xmlns:xlink="http://www.w3.org/1999/xlink">
<g id="graph0" class="graph" transform="scale(1 1) rotate(0) translate(4 275.891)">
<title>G</title>
<!-- 0 -->
<g id="node1" class="node"><title>0</title>
<ellipse fill="cadetblue" stroke="black" cx="98.3331" cy="-76.311" rx="21.4286" ry="21.4286"/>
<text text-anchor="middle" x="98.3331" y="-71.311" font-family="Times New Roman,serif" font-size="20.00">2</text>
</g>
<!-- 3 -->
<g id="node4" class="node"><title>3</title>
<ellipse fill="cadetblue" stroke="black" cx="21.2132" cy="-35.6235" rx="21.4286" ry="21.4286"/>
<text text-anchor="middle" x="21.2132" y="-30.6235" font-family="Times New Roman,serif" font-size="20.00">2</text>
</g>
<!-- 0&#45;&gt;3 -->
<g id="edge1" class="edge"><title>0&#45;&gt;3</title>
<path fill="none" stroke="black" stroke-width="2" d="M79.2698,-66.2534C70.1175,-61.4248 58.9767,-55.547 48.9111,-50.2365"/>
<polygon fill="black" stroke="black" stroke-width="2" points="50.535,-47.1361 40.0573,-45.5654 47.2686,-53.3273 50.535,-47.1361"/>
</g>
<!-- 4 -->
<g id="node5" class="node"><title>4</title>
<ellipse fill="cadetblue" stroke="black" cx="205.56" cy="-105.17" rx="21.4286" ry="21.4286"/>
<text text-anchor="middle" x="205.56" y="-100.17" font-family="Times New Roman,serif" font-size="20.00">2</text>
</g>
<!-- 0&#45;&gt;4 -->
<g id="edge2" class="edge"><title>0&#45;&gt;4</title>
<path fill="none" stroke="black" stroke-width="2" d="M119.008,-81.8753C134.954,-86.1672 157.248,-92.1674 175.216,-97.0033"/>
<polygon fill="black" stroke="black" stroke-width="2" points="174.383,-100.404 184.949,-99.6229 176.202,-93.6442 174.383,-100.404"/>
</g>
<!-- 7 -->
<g id="node8" class="node"><title>7</title>
<ellipse fill="brown" stroke="black" cx="164.453" cy="-21.2132" rx="21.4286" ry="21.4286"/>
<text text-anchor="middle" x="164.453" y="-16.2132" font-family="Times New Roman,serif" font-size="20.00">3</text>
</g>
<!-- 0&#45;&gt;7 -->
<g id="edge5" class="edge"><title>0&#45;&gt;7</title>
<path fill="none" stroke="black" stroke-width="2" d="M114.677,-62.6913C122.328,-56.3159 131.6,-48.5898 140.058,-41.542"/>
<polygon fill="black" stroke="black" stroke-width="2" points="142.396,-44.1495 147.838,-35.0589 137.915,-38.7718 142.396,-44.1495"/>
</g>
<!-- 1 -->
<g id="node2" class="node"><title>1</title>
<ellipse fill="cadetblue" stroke="black" cx="177.883" cy="-250.678" rx="21.4286" ry="21.4286"/>
<text text-anchor="middle" x="177.883" y="-245.678" font-family="Times New Roman,serif" font-size="20.00">2</text>
</g>
<!-- 5 -->
<g id="node6" class="node"><title>5</title>
<ellipse fill="dodgerblue" stroke="black" cx="226.14" cy="-155.602" rx="21.4286" ry="21.4286"/>
<text text-anchor="middle" x="226.14" y="-150.602" font-family="Times New Roman,serif" font-size="20.00">4</text>
</g>
<!-- 1&#45;&gt;5 -->
<g id="edge7" class="edge"><title>1&#45;&gt;5</title>
<path fill="none" stroke="black" stroke-width="2" d="M187.648,-231.438C194.582,-217.778 204.003,-199.216 211.789,-183.876"/>
<polygon fill="black" stroke="black" stroke-width="2" points="214.984,-185.314 216.389,-174.813 208.742,-182.146 214.984,-185.314"/>
</g>
<!-- 2 -->
<g id="node3" class="node"><title>2</title>
<ellipse fill="cadetblue" stroke="black" cx="294.466" cy="-37.7838" rx="21.4286" ry="21.4286"/>
<text text-anchor="middle" x="294.466" y="-32.7838" font-family="Times New Roman,serif" font-size="20.00">2</text>
</g>
<!-- 2&#45;&gt;5 -->
<g id="edge10" class="edge"><title>2&#45;&gt;5</title>
<path fill="none" stroke="black" stroke-width="2" d="M283.79,-56.1929C272.624,-75.4469 254.97,-105.888 242.138,-128.016"/>
<polygon fill="black" stroke="black" stroke-width="2" points="238.955,-126.527 236.966,-136.933 245.011,-130.038 238.955,-126.527"/>
</g>
<!-- 3&#45;&gt;7 -->
<g id="edge13" class="edge"><title>3&#45;&gt;7</title>
<path fill="none" stroke="black" stroke-width="2" d="M42.3487,-33.4972C66.2569,-31.092 105.436,-27.1504 132.953,-24.3822"/>
<polygon fill="black" stroke="black" stroke-width="2" points="133.631,-27.8317 143.231,-23.3482 132.931,-20.8668 133.631,-27.8317"/>
</g>
<!-- 4&#45;&gt;1 -->
<g id="edge6" class="edge"><title>4&#45;&gt;1</title>
<path fill="none" stroke="black" stroke-width="2" d="M201.595,-126.018C196.956,-150.406 189.228,-191.031 183.861,-219.249"/>
<polygon fill="black" stroke="black" stroke-width="2" points="180.361,-218.918 181.931,-229.396 187.238,-220.226 180.361,-218.918"/>
</g>
<!-- 4&#45;&gt;2 -->
<g id="edge9" class="edge"><title>4&#45;&gt;2</title>
<path fill="none" stroke="black" stroke-width="2" d="M222.702,-92.1774C235.862,-82.2025 254.237,-68.2756 269.098,-57.0113"/>
<polygon fill="black" stroke="black" stroke-width="2" points="271.521,-59.5666 277.377,-50.7367 267.293,-53.9879 271.521,-59.5666"/>
</g>
<!-- 6 -->
<g id="node7" class="node"><title>6</title>
<ellipse fill="cadetblue" stroke="black" cx="98.7528" cy="-157.284" rx="21.4286" ry="21.4286"/>
<text text-anchor="middle" x="98.7528" y="-152.284" font-family="Times New Roman,serif" font-size="20.00">2</text>
</g>
<!-- 4&#45;&gt;6 -->
<g id="edge15" class="edge"><title>4&#45;&gt;6</title>
<path fill="none" stroke="black" stroke-width="2" d="M186.465,-114.487C169.937,-122.552 145.804,-134.326 127.034,-143.485"/>
<polygon fill="black" stroke="black" stroke-width="2" points="125.495,-140.341 118.043,-147.872 128.565,-146.632 125.495,-140.341"/>
</g>
<!-- 4&#45;&gt;7 -->
<g id="edge16" class="edge"><title>4&#45;&gt;7</title>
<path fill="none" stroke="black" stroke-width="2" d="M196.026,-85.6977C190.748,-74.9189 184.095,-61.3293 178.258,-49.408"/>
<polygon fill="black" stroke="black" stroke-width="2" points="181.335,-47.7327 173.794,-40.2906 175.048,-50.811 181.335,-47.7327"/>
</g>
<!-- 5&#45;&gt;0 -->
<g id="edge3" class="edge"><title>5&#45;&gt;0</title>
<path fill="none" stroke="black" stroke-width="2" d="M208.099,-144.409C186.528,-131.027 150.22,-108.501 125.309,-93.0468"/>
<polygon fill="black" stroke="black" stroke-width="2" points="127.038,-90.0008 116.696,-87.7031 123.348,-95.9491 127.038,-90.0008"/>
</g>
<!-- 5&#45;&gt;4 -->
<g id="edge14" class="edge"><title>5&#45;&gt;4</title>
<path fill="none" stroke="black" stroke-width="2" d="M218.124,-135.959C217.891,-135.389 217.657,-134.814 217.421,-134.237"/>
<polygon fill="black" stroke="black" stroke-width="2" points="220.606,-132.778 213.588,-124.842 214.125,-135.423 220.606,-132.778"/>
</g>
<!-- 6&#45;&gt;0 -->
<g id="edge4" class="edge"><title>6&#45;&gt;0</title>
<path fill="none" stroke="black" stroke-width="2" d="M98.6425,-136.009C98.5981,-127.43 98.5458,-117.352 98.4971,-107.945"/>
<polygon fill="black" stroke="black" stroke-width="2" points="101.996,-107.706 98.4441,-97.7247 94.9961,-107.743 101.996,-107.706"/>
</g>
<!-- 6&#45;&gt;1 -->
<g id="edge8" class="edge"><title>6&#45;&gt;1</title>
<path fill="none" stroke="black" stroke-width="2" d="M112.536,-173.552C124.941,-188.193 143.336,-209.904 157.451,-226.564"/>
<polygon fill="black" stroke="black" stroke-width="2" points="154.857,-228.916 163.992,-234.283 160.198,-224.391 154.857,-228.916"/>
</g>
<!-- 6&#45;&gt;3 -->
<g id="edge12" class="edge"><title>6&#45;&gt;3</title>
<path fill="none" stroke="black" stroke-width="2" d="M87.3116,-139.332C74.3694,-119.026 53.1605,-85.749 38.2652,-62.3783"/>
<polygon fill="black" stroke="black" stroke-width="2" points="41.0276,-60.2002 32.7014,-53.6485 35.1246,-63.9625 41.0276,-60.2002"/>
</g>
<!-- 6&#45;&gt;5 -->
<g id="edge17" class="edge"><title>6&#45;&gt;5</title>
<path fill="none" stroke="black" stroke-width="2" d="M120.075,-157.002C140.466,-156.733 171.463,-156.324 194.689,-156.017"/>
<polygon fill="black" stroke="black" stroke-width="2" points="194.796,-159.516 204.748,-155.884 194.703,-152.517 194.796,-159.516"/>
</g>
<!-- 7&#45;&gt;2 -->
<g id="edge11" class="edge"><title>7&#45;&gt;2</title>
<path fill="none" stroke="black" stroke-width="2" d="M185.631,-23.9124C206.691,-26.5966 239.239,-30.745 263.259,-33.8064"/>
<polygon fill="black" stroke="black" stroke-width="2" points="262.935,-37.2933 273.297,-35.0858 263.82,-30.3495 262.935,-37.2933"/>
</g>
<!-- 7&#45;&gt;5 -->
<g id="edge18" class="edge"><title>7&#45;&gt;5</title>
<path fill="none" stroke="black" stroke-width="2" d="M164.184,-42.48C164.941,-64.7438 169.18,-99.7213 186.777,-123.585 190.461,-128.581 195.1,-133.253 199.888,-137.4"/>
<polygon fill="black" stroke="black" stroke-width="2" points="197.951,-140.333 207.946,-143.849 202.325,-134.868 197.951,-140.333"/>
</g>
<!-- 7&#45;&gt;6 -->
<g id="edge19" class="edge"><title>7&#45;&gt;6</title>
<path fill="none" stroke="black" stroke-width="2" d="M155.179,-40.4202C144.027,-63.517 125.213,-102.482 112.402,-129.014"/>
<polygon fill="black" stroke="black" stroke-width="2" points="109.176,-127.647 107.98,-138.174 115.48,-130.691 109.176,-127.647"/>
</g>
</g>
</svg>

