<?xml version="1.0" encoding="UTF-8" standalone="no"?>
<!DOCTYPE svg PUBLIC "-//W3C//DTD SVG 1.1//EN"
 "http://www.w3.org/Graphics/SVG/1.1/DTD/svg11.dtd">
<!-- Generated by graphviz version 2.36.0 (20140111.2315)
 -->
<!-- Title: G Pages: 1 -->
<svg width="100%" height="100%"
 viewBox="0.00 0.00 239.92 225.17" xmlns="http://www.w3.org/2000/svg" xmlns:xlink="http://www.w3.org/1999/xlink">
<g id="graph0" class="graph" transform="scale(1 1) rotate(0) translate(4 221.17)">
<title>G</title>
<!-- 0 -->
<g id="node1" class="node"><title>0</title>
<ellipse fill="cadetblue" stroke="black" cx="128.397" cy="-86.6822" rx="21.4286" ry="21.4286"/>
<text text-anchor="middle" x="128.397" y="-81.6822" font-family="Times New Roman,serif" font-size="20.00">2</text>
</g>
<!-- 5 -->
<g id="node6" class="node"><title>5</title>
<ellipse fill="cadetblue" stroke="black" cx="27.2504" cy="-41.7903" rx="21.4286" ry="21.4286"/>
<text text-anchor="middle" x="27.2504" y="-36.7903" font-family="Times New Roman,serif" font-size="20.00">2</text>
</g>
<!-- 0&#45;&gt;5 -->
<g id="edge3" class="edge"><title>0&#45;&gt;5</title>
<path fill="none" stroke="black" stroke-width="2" d="M108.895,-78.0266C93.9226,-71.3814 73.0183,-62.1035 56.1107,-54.5994"/>
<polygon fill="black" stroke="black" stroke-width="2" points="57.2527,-51.277 46.6926,-50.4194 54.4129,-57.6752 57.2527,-51.277"/>
</g>
<!-- 7 -->
<g id="node8" class="node"><title>7</title>
<ellipse fill="brown" stroke="black" cx="61.9441" cy="-104.655" rx="21.4286" ry="21.4286"/>
<text text-anchor="middle" x="61.9441" y="-99.6552" font-family="Times New Roman,serif" font-size="20.00">3</text>
</g>
<!-- 0&#45;&gt;7 -->
<g id="edge4" class="edge"><title>0&#45;&gt;7</title>
<path fill="none" stroke="black" stroke-width="2" d="M107.735,-92.2704C102.906,-93.5766 97.6614,-94.995 92.5032,-96.3901"/>
<polygon fill="black" stroke="black" stroke-width="2" points="91.5614,-93.019 82.8221,-99.0085 93.389,-99.7762 91.5614,-93.019"/>
</g>
<!-- 1 -->
<g id="node2" class="node"><title>1</title>
<ellipse fill="cadetblue" stroke="black" cx="21.2132" cy="-155.98" rx="21.4286" ry="21.4286"/>
<text text-anchor="middle" x="21.2132" y="-150.98" font-family="Times New Roman,serif" font-size="20.00">2</text>
</g>
<!-- 6 -->
<g id="node7" class="node"><title>6</title>
<ellipse fill="cadetblue" stroke="black" cx="144.572" cy="-137.114" rx="21.4286" ry="21.4286"/>
<text text-anchor="middle" x="144.572" y="-132.114" font-family="Times New Roman,serif" font-size="20.00">2</text>
</g>
<!-- 1&#45;&gt;6 -->
<g id="edge7" class="edge"><title>1&#45;&gt;6</title>
<path fill="none" stroke="black" stroke-width="2" d="M42.4193,-152.737C61.9251,-149.753 91.0995,-145.292 113.282,-141.899"/>
<polygon fill="black" stroke="black" stroke-width="2" points="113.874,-145.349 123.23,-140.378 112.815,-138.43 113.874,-145.349"/>
</g>
<!-- 1&#45;&gt;7 -->
<g id="edge8" class="edge"><title>1&#45;&gt;7</title>
<path fill="none" stroke="black" stroke-width="2" d="M34.55,-139.174C37.0369,-136.041 39.6831,-132.706 42.313,-129.392"/>
<polygon fill="black" stroke="black" stroke-width="2" points="45.2417,-131.332 48.7165,-121.323 39.7585,-126.981 45.2417,-131.332"/>
</g>
<!-- 2 -->
<g id="node3" class="node"><title>2</title>
<ellipse fill="cadetblue" stroke="black" cx="121.55" cy="-21.2132" rx="21.4286" ry="21.4286"/>
<text text-anchor="middle" x="121.55" y="-16.2132" font-family="Times New Roman,serif" font-size="20.00">2</text>
</g>
<!-- 4 -->
<g id="node5" class="node"><title>4</title>
<ellipse fill="cadetblue" stroke="black" cx="210.71" cy="-61.4522" rx="21.4286" ry="21.4286"/>
<text text-anchor="middle" x="210.71" y="-56.4522" font-family="Times New Roman,serif" font-size="20.00">2</text>
</g>
<!-- 2&#45;&gt;4 -->
<g id="edge9" class="edge"><title>2&#45;&gt;4</title>
<path fill="none" stroke="black" stroke-width="2" d="M140.896,-29.9445C152.848,-35.3384 168.408,-42.3607 181.804,-48.4065"/>
<polygon fill="black" stroke="black" stroke-width="2" points="180.539,-51.6755 191.094,-52.599 183.419,-45.2952 180.539,-51.6755"/>
</g>
<!-- 2&#45;&gt;7 -->
<g id="edge12" class="edge"><title>2&#45;&gt;7</title>
<path fill="none" stroke="black" stroke-width="2" d="M109.2,-38.5024C100.808,-50.2499 89.5659,-65.9875 80.1524,-79.1656"/>
<polygon fill="black" stroke="black" stroke-width="2" points="77.2434,-77.2165 74.2787,-87.3881 82.9394,-81.2854 77.2434,-77.2165"/>
</g>
<!-- 3 -->
<g id="node4" class="node"><title>3</title>
<ellipse fill="cadetblue" stroke="black" cx="96.4308" cy="-195.957" rx="21.4286" ry="21.4286"/>
<text text-anchor="middle" x="96.4308" y="-190.957" font-family="Times New Roman,serif" font-size="20.00">2</text>
</g>
<!-- 3&#45;&gt;0 -->
<g id="edge1" class="edge"><title>3&#45;&gt;0</title>
<path fill="none" stroke="black" stroke-width="2" d="M102.443,-175.403C107.265,-158.919 114.103,-135.544 119.55,-116.924"/>
<polygon fill="black" stroke="black" stroke-width="2" points="122.963,-117.724 122.411,-107.144 116.244,-115.759 122.963,-117.724"/>
</g>
<!-- 3&#45;&gt;1 -->
<g id="edge5" class="edge"><title>3&#45;&gt;1</title>
<path fill="none" stroke="black" stroke-width="2" d="M77.4502,-185.869C68.8984,-181.324 58.6274,-175.865 49.2164,-170.863"/>
<polygon fill="black" stroke="black" stroke-width="2" points="50.6606,-167.667 40.1877,-166.064 47.3754,-173.848 50.6606,-167.667"/>
</g>
<!-- 4&#45;&gt;0 -->
<g id="edge2" class="edge"><title>4&#45;&gt;0</title>
<path fill="none" stroke="black" stroke-width="2" d="M190.363,-67.6888C180.766,-70.6303 169.121,-74.1997 158.528,-77.4466"/>
<polygon fill="black" stroke="black" stroke-width="2" points="157.331,-74.1529 148.795,-80.4298 159.382,-80.8456 157.331,-74.1529"/>
</g>
<!-- 5&#45;&gt;1 -->
<g id="edge6" class="edge"><title>5&#45;&gt;1</title>
<path fill="none" stroke="black" stroke-width="2" d="M26.129,-63.0009C25.2156,-80.2772 23.9125,-104.925 22.8774,-124.503"/>
<polygon fill="black" stroke="black" stroke-width="2" points="19.382,-124.325 22.3491,-134.495 26.3723,-124.694 19.382,-124.325"/>
</g>
<!-- 5&#45;&gt;2 -->
<g id="edge10" class="edge"><title>5&#45;&gt;2</title>
<path fill="none" stroke="black" stroke-width="2" d="M48.1785,-37.2236C60.6313,-34.5063 76.6622,-31.0082 90.5615,-27.9752"/>
<polygon fill="black" stroke="black" stroke-width="2" points="91.6563,-31.3187 100.68,-25.7672 90.1639,-24.4796 91.6563,-31.3187"/>
</g>
<!-- 6&#45;&gt;2 -->
<g id="edge11" class="edge"><title>6&#45;&gt;2</title>
<path fill="none" stroke="black" stroke-width="2" d="M151.498,-116.654C153.849,-107.549 155.667,-96.6568 154.701,-86.7062 153.332,-72.5938 146.891,-58.3778 140.046,-46.8137"/>
<polygon fill="black" stroke="black" stroke-width="2" points="142.87,-44.7312 134.558,-38.1607 136.958,-48.4802 142.87,-44.7312"/>
</g>
<!-- 6&#45;&gt;3 -->
<g id="edge13" class="edge"><title>6&#45;&gt;3</title>
<path fill="none" stroke="black" stroke-width="2" d="M130.905,-153.818C126.395,-159.331 121.281,-165.582 116.4,-171.549"/>
<polygon fill="black" stroke="black" stroke-width="2" points="113.588,-169.458 109.965,-179.414 119.006,-173.89 113.588,-169.458"/>
</g>
<!-- 6&#45;&gt;4 -->
<g id="edge15" class="edge"><title>6&#45;&gt;4</title>
<path fill="none" stroke="black" stroke-width="2" d="M158.598,-121.068C167.718,-110.635 179.768,-96.8498 189.984,-85.1633"/>
<polygon fill="black" stroke="black" stroke-width="2" points="192.758,-87.3074 196.704,-77.4749 187.488,-82.7004 192.758,-87.3074"/>
</g>
<!-- 7&#45;&gt;3 -->
<g id="edge14" class="edge"><title>7&#45;&gt;3</title>
<path fill="none" stroke="black" stroke-width="2" d="M69.5978,-124.918C74.2286,-137.178 80.2123,-153.019 85.3536,-166.631"/>
<polygon fill="black" stroke="black" stroke-width="2" points="82.1093,-167.947 88.9171,-176.065 88.6577,-165.473 82.1093,-167.947"/>
</g>
<!-- 7&#45;&gt;5 -->
<g id="edge16" class="edge"><title>7&#45;&gt;5</title>
<path fill="none" stroke="black" stroke-width="2" d="M51.5349,-85.7937C48.7218,-80.6965 45.6174,-75.0712 42.5951,-69.5948"/>
<polygon fill="black" stroke="black" stroke-width="2" points="45.5485,-67.7026 37.6523,-60.6386 39.4198,-71.0849 45.5485,-67.7026"/>
</g>
<!-- 7&#45;&gt;6 -->
<g id="edge17" class="edge"><title>7&#45;&gt;6</title>
<path fill="none" stroke="black" stroke-width="2" d="M81.946,-112.513C91.9938,-116.46 104.358,-121.316 115.438,-125.669"/>
<polygon fill="black" stroke="black" stroke-width="2" points="114.167,-128.93 124.754,-129.329 116.726,-122.415 114.167,-128.93"/>
</g>
</g>
</svg>

