<?xml version="1.0" encoding="UTF-8" standalone="no"?>
<!DOCTYPE svg PUBLIC "-//W3C//DTD SVG 1.1//EN"
 "http://www.w3.org/Graphics/SVG/1.1/DTD/svg11.dtd">
<!-- Generated by graphviz version 2.36.0 (20140111.2315)
 -->
<!-- Title: G Pages: 1 -->
<svg width="100%" height="100%"
 viewBox="0.00 0.00 243.36 290.04" xmlns="http://www.w3.org/2000/svg" xmlns:xlink="http://www.w3.org/1999/xlink">
<g id="graph0" class="graph" transform="scale(1 1) rotate(0) translate(4 286.035)">
<title>G</title>
<!-- 0 -->
<g id="node1" class="node"><title>0</title>
<ellipse fill="brown" stroke="black" cx="99.0033" cy="-135.082" rx="21.4286" ry="21.4286"/>
<text text-anchor="middle" x="99.0033" y="-130.082" font-family="Times New Roman,serif" font-size="20.00">3</text>
</g>
<!-- 3 -->
<g id="node4" class="node"><title>3</title>
<ellipse fill="dodgerblue" stroke="black" cx="122.147" cy="-200.712" rx="21.4286" ry="21.4286"/>
<text text-anchor="middle" x="122.147" y="-195.712" font-family="Times New Roman,serif" font-size="20.00">4</text>
</g>
<!-- 0&#45;&gt;3 -->
<g id="edge1" class="edge"><title>0&#45;&gt;3</title>
<path fill="none" stroke="black" stroke-width="2" d="M106.073,-155.13C107.79,-160 109.664,-165.314 111.507,-170.539"/>
<polygon fill="black" stroke="black" stroke-width="2" points="108.334,-172.067 114.961,-180.334 114.936,-169.739 108.334,-172.067"/>
</g>
<!-- 4 -->
<g id="node5" class="node"><title>4</title>
<ellipse fill="cadetblue" stroke="black" cx="214.149" cy="-199.817" rx="21.4286" ry="21.4286"/>
<text text-anchor="middle" x="214.149" y="-194.817" font-family="Times New Roman,serif" font-size="20.00">2</text>
</g>
<!-- 0&#45;&gt;4 -->
<g id="edge2" class="edge"><title>0&#45;&gt;4</title>
<path fill="none" stroke="black" stroke-width="2" d="M117.503,-145.483C136.11,-155.944 165.026,-172.2 186.385,-184.208"/>
<polygon fill="black" stroke="black" stroke-width="2" points="184.88,-187.377 195.312,-189.227 188.31,-181.275 184.88,-187.377"/>
</g>
<!-- 1 -->
<g id="node2" class="node"><title>1</title>
<ellipse fill="cadetblue" stroke="black" cx="112.112" cy="-260.822" rx="21.4286" ry="21.4286"/>
<text text-anchor="middle" x="112.112" y="-255.822" font-family="Times New Roman,serif" font-size="20.00">2</text>
</g>
<!-- 6 -->
<g id="node7" class="node"><title>6</title>
<ellipse fill="cadetblue" stroke="black" cx="193.694" cy="-122.268" rx="21.4286" ry="21.4286"/>
<text text-anchor="middle" x="193.694" y="-117.268" font-family="Times New Roman,serif" font-size="20.00">2</text>
</g>
<!-- 1&#45;&gt;6 -->
<g id="edge8" class="edge"><title>1&#45;&gt;6</title>
<path fill="none" stroke="black" stroke-width="2" d="M124.774,-243.329C129.9,-236.028 135.765,-227.389 140.716,-219.343 154.725,-196.578 169.165,-169.864 179.424,-150.229"/>
<polygon fill="black" stroke="black" stroke-width="2" points="182.606,-151.695 184.104,-141.207 176.393,-148.472 182.606,-151.695"/>
</g>
<!-- 2 -->
<g id="node3" class="node"><title>2</title>
<ellipse fill="cadetblue" stroke="black" cx="71.5605" cy="-21.2132" rx="21.4286" ry="21.4286"/>
<text text-anchor="middle" x="71.5605" y="-16.2132" font-family="Times New Roman,serif" font-size="20.00">2</text>
</g>
<!-- 5 -->
<g id="node6" class="node"><title>5</title>
<ellipse fill="cadetblue" stroke="black" cx="21.2132" cy="-144.139" rx="21.4286" ry="21.4286"/>
<text text-anchor="middle" x="21.2132" y="-139.139" font-family="Times New Roman,serif" font-size="20.00">2</text>
</g>
<!-- 2&#45;&gt;5 -->
<g id="edge9" class="edge"><title>2&#45;&gt;5</title>
<path fill="none" stroke="black" stroke-width="2" d="M63.4713,-40.9633C55.2871,-60.9456 42.5413,-92.0652 33.1867,-114.905"/>
<polygon fill="black" stroke="black" stroke-width="2" points="29.8337,-113.857 29.2823,-124.438 36.3114,-116.51 29.8337,-113.857"/>
</g>
<!-- 3&#45;&gt;5 -->
<g id="edge13" class="edge"><title>3&#45;&gt;5</title>
<path fill="none" stroke="black" stroke-width="2" d="M103.634,-190.336C88.3641,-181.777 66.4636,-169.502 49.0755,-159.756"/>
<polygon fill="black" stroke="black" stroke-width="2" points="50.385,-156.477 39.9505,-154.641 46.9624,-162.584 50.385,-156.477"/>
</g>
<!-- 4&#45;&gt;1 -->
<g id="edge6" class="edge"><title>4&#45;&gt;1</title>
<path fill="none" stroke="black" stroke-width="2" d="M195.907,-210.723C180.188,-220.121 157.272,-233.822 139.376,-244.521"/>
<polygon fill="black" stroke="black" stroke-width="2" points="137.327,-241.668 130.54,-249.804 140.919,-247.677 137.327,-241.668"/>
</g>
<!-- 4&#45;&gt;3 -->
<g id="edge12" class="edge"><title>4&#45;&gt;3</title>
<path fill="none" stroke="black" stroke-width="2" d="M192.811,-200.024C181.199,-200.137 166.61,-200.279 153.708,-200.405"/>
<polygon fill="black" stroke="black" stroke-width="2" points="153.335,-196.908 143.37,-200.505 153.403,-203.908 153.335,-196.908"/>
</g>
<!-- 4&#45;&gt;6 -->
<g id="edge16" class="edge"><title>4&#45;&gt;6</title>
<path fill="none" stroke="black" stroke-width="2" d="M208.667,-179.035C206.541,-170.973 204.063,-161.578 201.742,-152.779"/>
<polygon fill="black" stroke="black" stroke-width="2" points="205.055,-151.615 199.12,-142.838 198.286,-153.4 205.055,-151.615"/>
</g>
<!-- 5&#45;&gt;0 -->
<g id="edge3" class="edge"><title>5&#45;&gt;0</title>
<path fill="none" stroke="black" stroke-width="2" d="M42.4697,-141.664C50.2732,-140.756 59.2784,-139.707 67.7753,-138.718"/>
<polygon fill="black" stroke="black" stroke-width="2" points="68.2444,-142.187 77.7725,-137.554 67.4348,-135.234 68.2444,-142.187"/>
</g>
<!-- 5&#45;&gt;1 -->
<g id="edge7" class="edge"><title>5&#45;&gt;1</title>
<path fill="none" stroke="black" stroke-width="2" d="M34.6256,-161.356C49.9522,-181.03 75.1686,-213.399 92.6538,-235.844"/>
<polygon fill="black" stroke="black" stroke-width="2" points="90.0333,-238.176 98.9399,-243.914 95.5555,-233.874 90.0333,-238.176"/>
</g>
<!-- 7 -->
<g id="node8" class="node"><title>7</title>
<ellipse fill="cadetblue" stroke="black" cx="143.263" cy="-74.0686" rx="21.4286" ry="21.4286"/>
<text text-anchor="middle" x="143.263" y="-69.0686" font-family="Times New Roman,serif" font-size="20.00">2</text>
</g>
<!-- 5&#45;&gt;7 -->
<g id="edge18" class="edge"><title>5&#45;&gt;7</title>
<path fill="none" stroke="black" stroke-width="2" d="M39.7499,-133.497C60.0014,-121.87 92.6463,-103.128 115.858,-89.8021"/>
<polygon fill="black" stroke="black" stroke-width="2" points="117.622,-92.8252 124.551,-84.8109 114.136,-86.7546 117.622,-92.8252"/>
</g>
<!-- 6&#45;&gt;0 -->
<g id="edge4" class="edge"><title>6&#45;&gt;0</title>
<path fill="none" stroke="black" stroke-width="2" d="M172.207,-125.176C159.771,-126.859 143.902,-129.006 130.12,-130.871"/>
<polygon fill="black" stroke="black" stroke-width="2" points="129.519,-127.421 120.079,-132.23 130.458,-134.357 129.519,-127.421"/>
</g>
<!-- 6&#45;&gt;2 -->
<g id="edge10" class="edge"><title>6&#45;&gt;2</title>
<path fill="none" stroke="black" stroke-width="2" d="M173.154,-116.613C158.568,-111.885 139.092,-104.062 124.662,-92.6677 109.494,-80.6904 96.4737,-63.3652 87.1226,-48.7744"/>
<polygon fill="black" stroke="black" stroke-width="2" points="90.0131,-46.7933 81.7879,-40.1152 84.0533,-50.465 90.0131,-46.7933"/>
</g>
<!-- 6&#45;&gt;3 -->
<g id="edge14" class="edge"><title>6&#45;&gt;3</title>
<path fill="none" stroke="black" stroke-width="2" d="M179.215,-138.142C168.936,-149.413 154.968,-164.727 143.424,-177.384"/>
<polygon fill="black" stroke="black" stroke-width="2" points="140.757,-175.114 136.604,-184.861 145.929,-179.831 140.757,-175.114"/>
</g>
<!-- 6&#45;&gt;7 -->
<g id="edge19" class="edge"><title>6&#45;&gt;7</title>
<path fill="none" stroke="black" stroke-width="2" d="M178.289,-107.545C174.547,-103.968 170.463,-100.065 166.449,-96.2285"/>
<polygon fill="black" stroke="black" stroke-width="2" points="168.569,-93.4136 158.921,-89.0345 163.732,-98.474 168.569,-93.4136"/>
</g>
<!-- 7&#45;&gt;0 -->
<g id="edge5" class="edge"><title>7&#45;&gt;0</title>
<path fill="none" stroke="black" stroke-width="2" d="M130.698,-91.3894C126.714,-96.8811 122.219,-103.079 117.892,-109.043"/>
<polygon fill="black" stroke="black" stroke-width="2" points="114.792,-107.356 111.753,-117.506 120.458,-111.467 114.792,-107.356"/>
</g>
<!-- 7&#45;&gt;2 -->
<g id="edge11" class="edge"><title>7&#45;&gt;2</title>
<path fill="none" stroke="black" stroke-width="2" d="M125.906,-61.2738C117.186,-54.8464 106.457,-46.9375 96.8421,-39.8496"/>
<polygon fill="black" stroke="black" stroke-width="2" points="98.8839,-37.0066 88.7577,-33.8902 94.7303,-42.6411 98.8839,-37.0066"/>
</g>
<!-- 7&#45;&gt;3 -->
<g id="edge15" class="edge"><title>7&#45;&gt;3</title>
<path fill="none" stroke="black" stroke-width="2" d="M139.728,-95.2658C136.348,-115.539 131.21,-146.354 127.36,-169.445"/>
<polygon fill="black" stroke="black" stroke-width="2" points="123.885,-169.006 125.693,-179.445 130.79,-170.157 123.885,-169.006"/>
</g>
<!-- 7&#45;&gt;4 -->
<g id="edge17" class="edge"><title>7&#45;&gt;4</title>
<path fill="none" stroke="black" stroke-width="2" d="M151.745,-93.7217C157.784,-107.223 166.345,-125.422 175.072,-140.846 181.387,-152.007 189.051,-163.874 195.914,-174.014"/>
<polygon fill="black" stroke="black" stroke-width="2" points="193.138,-176.156 201.684,-182.419 198.909,-172.194 193.138,-176.156"/>
</g>
</g>
</svg>

