<?xml version="1.0" encoding="UTF-8" standalone="no"?>
<!DOCTYPE svg PUBLIC "-//W3C//DTD SVG 1.1//EN"
 "http://www.w3.org/Graphics/SVG/1.1/DTD/svg11.dtd">
<!-- Generated by graphviz version 2.36.0 (20140111.2315)
 -->
<!-- Title: G Pages: 1 -->
<svg width="100%" height="100%"
 viewBox="0.00 0.00 292.49 299.99" xmlns="http://www.w3.org/2000/svg" xmlns:xlink="http://www.w3.org/1999/xlink">
<g id="graph0" class="graph" transform="scale(1 1) rotate(0) translate(4 295.99)">
<title>G</title>
<!-- 0 -->
<g id="node1" class="node"><title>0</title>
<ellipse fill="brown" stroke="black" cx="37.4791" cy="-146.126" rx="21.4286" ry="21.4286"/>
<text text-anchor="middle" x="37.4791" y="-141.126" font-family="Times New Roman,serif" font-size="20.00">3</text>
</g>
<!-- 7 -->
<g id="node8" class="node"><title>7</title>
<ellipse fill="cadetblue" stroke="black" cx="88.1529" cy="-64.1459" rx="21.4286" ry="21.4286"/>
<text text-anchor="middle" x="88.1529" y="-59.1459" font-family="Times New Roman,serif" font-size="20.00">2</text>
</g>
<!-- 0&#45;&gt;7 -->
<g id="edge4" class="edge"><title>0&#45;&gt;7</title>
<path fill="none" stroke="black" stroke-width="2" d="M48.7253,-127.932C55.417,-117.106 64.0316,-103.17 71.5007,-91.086"/>
<polygon fill="black" stroke="black" stroke-width="2" points="74.6575,-92.6356 76.9382,-82.2891 68.7031,-88.9551 74.6575,-92.6356"/>
</g>
<!-- 1 -->
<g id="node2" class="node"><title>1</title>
<ellipse fill="cadetblue" stroke="black" cx="263.277" cy="-256.798" rx="21.4286" ry="21.4286"/>
<text text-anchor="middle" x="263.277" y="-251.798" font-family="Times New Roman,serif" font-size="20.00">2</text>
</g>
<!-- 6 -->
<g id="node7" class="node"><title>6</title>
<ellipse fill="cadetblue" stroke="black" cx="133.627" cy="-270.777" rx="21.4286" ry="21.4286"/>
<text text-anchor="middle" x="133.627" y="-265.777" font-family="Times New Roman,serif" font-size="20.00">2</text>
</g>
<!-- 1&#45;&gt;6 -->
<g id="edge7" class="edge"><title>1&#45;&gt;6</title>
<path fill="none" stroke="black" stroke-width="2" d="M242.158,-259.075C221.156,-261.34 188.7,-264.839 164.747,-267.422"/>
<polygon fill="black" stroke="black" stroke-width="2" points="164.304,-263.949 154.737,-268.501 165.055,-270.909 164.304,-263.949"/>
</g>
<!-- 2 -->
<g id="node3" class="node"><title>2</title>
<ellipse fill="cadetblue" stroke="black" cx="208.914" cy="-21.2132" rx="21.4286" ry="21.4286"/>
<text text-anchor="middle" x="208.914" y="-16.2132" font-family="Times New Roman,serif" font-size="20.00">2</text>
</g>
<!-- 2&#45;&gt;7 -->
<g id="edge10" class="edge"><title>2&#45;&gt;7</title>
<path fill="none" stroke="black" stroke-width="2" d="M188.701,-28.3992C169.37,-35.2717 139.986,-45.7183 117.967,-53.5463"/>
<polygon fill="black" stroke="black" stroke-width="2" points="116.681,-50.2888 108.432,-56.9365 119.026,-56.8844 116.681,-50.2888"/>
</g>
<!-- 3 -->
<g id="node4" class="node"><title>3</title>
<ellipse fill="cadetblue" stroke="black" cx="21.2132" cy="-225.849" rx="21.4286" ry="21.4286"/>
<text text-anchor="middle" x="21.2132" y="-220.849" font-family="Times New Roman,serif" font-size="20.00">2</text>
</g>
<!-- 3&#45;&gt;0 -->
<g id="edge1" class="edge"><title>3&#45;&gt;0</title>
<path fill="none" stroke="black" stroke-width="2" d="M25.4869,-204.903C27.2426,-196.298 29.3108,-186.161 31.2307,-176.751"/>
<polygon fill="black" stroke="black" stroke-width="2" points="34.6641,-177.431 33.234,-166.933 27.8054,-176.031 34.6641,-177.431"/>
</g>
<!-- 5 -->
<g id="node6" class="node"><title>5</title>
<ellipse fill="cadetblue" stroke="black" cx="156.187" cy="-168.071" rx="21.4286" ry="21.4286"/>
<text text-anchor="middle" x="156.187" y="-163.071" font-family="Times New Roman,serif" font-size="20.00">2</text>
</g>
<!-- 3&#45;&gt;5 -->
<g id="edge11" class="edge"><title>3&#45;&gt;5</title>
<path fill="none" stroke="black" stroke-width="2" d="M40.8396,-217.448C63.5309,-207.734 101.095,-191.654 127.164,-180.495"/>
<polygon fill="black" stroke="black" stroke-width="2" points="128.721,-183.635 136.537,-176.483 125.967,-177.2 128.721,-183.635"/>
</g>
<!-- 4 -->
<g id="node5" class="node"><title>4</title>
<ellipse fill="cadetblue" stroke="black" cx="206.619" cy="-137.482" rx="21.4286" ry="21.4286"/>
<text text-anchor="middle" x="206.619" y="-132.482" font-family="Times New Roman,serif" font-size="20.00">2</text>
</g>
<!-- 4&#45;&gt;0 -->
<g id="edge2" class="edge"><title>4&#45;&gt;0</title>
<path fill="none" stroke="black" stroke-width="2" d="M185.197,-138.577C155.84,-140.077 102.894,-142.783 69.0059,-144.515"/>
<polygon fill="black" stroke="black" stroke-width="2" points="68.5351,-141.034 58.7268,-145.04 68.8924,-148.025 68.5351,-141.034"/>
</g>
<!-- 4&#45;&gt;1 -->
<g id="edge5" class="edge"><title>4&#45;&gt;1</title>
<path fill="none" stroke="black" stroke-width="2" d="M215.722,-156.652C224.877,-175.933 239.106,-205.897 249.615,-228.029"/>
<polygon fill="black" stroke="black" stroke-width="2" points="246.557,-229.747 254.008,-237.279 252.88,-226.745 246.557,-229.747"/>
</g>
<!-- 4&#45;&gt;2 -->
<g id="edge8" class="edge"><title>4&#45;&gt;2</title>
<path fill="none" stroke="black" stroke-width="2" d="M207.04,-116.157C207.388,-98.4851 207.889,-73.1048 208.286,-53.0308"/>
<polygon fill="black" stroke="black" stroke-width="2" points="211.789,-52.8644 208.488,-42.7973 204.791,-52.7262 211.789,-52.8644"/>
</g>
<!-- 5&#45;&gt;1 -->
<g id="edge6" class="edge"><title>5&#45;&gt;1</title>
<path fill="none" stroke="black" stroke-width="2" d="M172.92,-181.935C190.602,-196.585 218.666,-219.836 238.826,-236.54"/>
<polygon fill="black" stroke="black" stroke-width="2" points="236.728,-239.347 246.662,-243.032 241.194,-233.957 236.728,-239.347"/>
</g>
<!-- 5&#45;&gt;2 -->
<g id="edge9" class="edge"><title>5&#45;&gt;2</title>
<path fill="none" stroke="black" stroke-width="2" d="M163.408,-147.959C172.39,-122.943 187.803,-80.0129 198.172,-51.1312"/>
<polygon fill="black" stroke="black" stroke-width="2" points="201.526,-52.1481 201.611,-41.5536 194.938,-49.7827 201.526,-52.1481"/>
</g>
<!-- 5&#45;&gt;6 -->
<g id="edge16" class="edge"><title>5&#45;&gt;6</title>
<path fill="none" stroke="black" stroke-width="2" d="M151.622,-188.855C148.381,-203.611 143.976,-223.663 140.336,-240.234"/>
<polygon fill="black" stroke="black" stroke-width="2" points="136.913,-239.506 138.186,-250.024 143.75,-241.008 136.913,-239.506"/>
</g>
<!-- 6&#45;&gt;0 -->
<g id="edge3" class="edge"><title>6&#45;&gt;0</title>
<path fill="none" stroke="black" stroke-width="2" d="M120.66,-253.966C104.245,-232.685 75.8226,-195.837 56.8351,-171.22"/>
<polygon fill="black" stroke="black" stroke-width="2" points="59.4267,-168.85 50.5477,-163.069 53.8839,-173.125 59.4267,-168.85"/>
</g>
<!-- 6&#45;&gt;3 -->
<g id="edge12" class="edge"><title>6&#45;&gt;3</title>
<path fill="none" stroke="black" stroke-width="2" d="M113.789,-262.848C96.3182,-255.866 70.6328,-245.601 50.7467,-237.653"/>
<polygon fill="black" stroke="black" stroke-width="2" points="51.8164,-234.311 41.2316,-233.85 49.2185,-240.811 51.8164,-234.311"/>
</g>
<!-- 6&#45;&gt;4 -->
<g id="edge14" class="edge"><title>6&#45;&gt;4</title>
<path fill="none" stroke="black" stroke-width="2" d="M143.93,-251.962C156.32,-229.336 177.222,-191.166 191.454,-165.175"/>
<polygon fill="black" stroke="black" stroke-width="2" points="194.635,-166.654 196.368,-156.202 188.495,-163.292 194.635,-166.654"/>
</g>
<!-- 7&#45;&gt;3 -->
<g id="edge13" class="edge"><title>7&#45;&gt;3</title>
<path fill="none" stroke="black" stroke-width="2" d="M83.4477,-84.8656C78.2839,-105.696 68.9771,-138.409 56.0621,-164.743 50.4472,-176.192 43.6153,-188.467 37.4932,-198.99"/>
<polygon fill="black" stroke="black" stroke-width="2" points="34.4092,-197.329 32.3443,-207.721 40.4388,-200.885 34.4092,-197.329"/>
</g>
<!-- 7&#45;&gt;4 -->
<g id="edge15" class="edge"><title>7&#45;&gt;4</title>
<path fill="none" stroke="black" stroke-width="2" d="M106.404,-75.444C126.027,-87.5917 157.42,-107.026 179.84,-120.905"/>
<polygon fill="black" stroke="black" stroke-width="2" points="178.197,-124.004 188.542,-126.292 181.881,-118.052 178.197,-124.004"/>
</g>
<!-- 7&#45;&gt;5 -->
<g id="edge17" class="edge"><title>7&#45;&gt;5</title>
<path fill="none" stroke="black" stroke-width="2" d="M100.004,-82.2482C110.735,-98.6406 126.679,-122.996 138.844,-141.578"/>
<polygon fill="black" stroke="black" stroke-width="2" points="136.067,-143.726 144.472,-150.176 141.924,-139.892 136.067,-143.726"/>
</g>
</g>
</svg>

