<?xml version="1.0" encoding="UTF-8" standalone="no"?>
<!DOCTYPE svg PUBLIC "-//W3C//DTD SVG 1.1//EN"
 "http://www.w3.org/Graphics/SVG/1.1/DTD/svg11.dtd">
<!-- Generated by graphviz version 2.36.0 (20140111.2315)
 -->
<!-- Title: G Pages: 1 -->
<svg width="100%" height="100%"
 viewBox="0.00 0.00 230.29 238.14" xmlns="http://www.w3.org/2000/svg" xmlns:xlink="http://www.w3.org/1999/xlink">
<g id="graph0" class="graph" transform="scale(1 1) rotate(0) translate(4 234.145)">
<title>G</title>
<!-- 0 -->
<g id="node1" class="node"><title>0</title>
<ellipse fill="cadetblue" stroke="black" cx="130.476" cy="-154.308" rx="21.4286" ry="21.4286"/>
<text text-anchor="middle" x="130.476" y="-149.308" font-family="Times New Roman,serif" font-size="20.00">2</text>
</g>
<!-- 5 -->
<g id="node6" class="node"><title>5</title>
<ellipse fill="cadetblue" stroke="black" cx="21.2132" cy="-117.528" rx="21.4286" ry="21.4286"/>
<text text-anchor="middle" x="21.2132" y="-112.528" font-family="Times New Roman,serif" font-size="20.00">2</text>
</g>
<!-- 0&#45;&gt;5 -->
<g id="edge3" class="edge"><title>0&#45;&gt;5</title>
<path fill="none" stroke="black" stroke-width="2" d="M109.798,-148.117C100.65,-145.32 89.78,-141.917 80.0429,-138.66 70.5199,-135.474 60.1952,-131.83 50.8925,-128.476"/>
<polygon fill="black" stroke="black" stroke-width="2" points="51.8796,-125.11 41.2855,-124.985 49.489,-131.69 51.8796,-125.11"/>
</g>
<!-- 6 -->
<g id="node7" class="node"><title>6</title>
<ellipse fill="cadetblue" stroke="black" cx="201.072" cy="-120.691" rx="21.4286" ry="21.4286"/>
<text text-anchor="middle" x="201.072" y="-115.691" font-family="Times New Roman,serif" font-size="20.00">2</text>
</g>
<!-- 0&#45;&gt;6 -->
<g id="edge4" class="edge"><title>0&#45;&gt;6</title>
<path fill="none" stroke="black" stroke-width="2" d="M149.766,-145.122C156.848,-141.75 165.021,-137.858 172.732,-134.186"/>
<polygon fill="black" stroke="black" stroke-width="2" points="174.281,-137.325 181.805,-129.866 171.271,-131.005 174.281,-137.325"/>
</g>
<!-- 7 -->
<g id="node8" class="node"><title>7</title>
<ellipse fill="brown" stroke="black" cx="80.0442" cy="-112.355" rx="21.4286" ry="21.4286"/>
<text text-anchor="middle" x="80.0442" y="-107.355" font-family="Times New Roman,serif" font-size="20.00">3</text>
</g>
<!-- 0&#45;&gt;7 -->
<g id="edge5" class="edge"><title>0&#45;&gt;7</title>
<path fill="none" stroke="black" stroke-width="2" d="M113.962,-140.571C110.883,-138.01 107.607,-135.284 104.351,-132.575"/>
<polygon fill="black" stroke="black" stroke-width="2" points="106.348,-129.684 96.4222,-125.98 101.872,-135.066 106.348,-129.684"/>
</g>
<!-- 1 -->
<g id="node2" class="node"><title>1</title>
<ellipse fill="cadetblue" stroke="black" cx="111.084" cy="-208.931" rx="21.4286" ry="21.4286"/>
<text text-anchor="middle" x="111.084" y="-203.931" font-family="Times New Roman,serif" font-size="20.00">2</text>
</g>
<!-- 1&#45;&gt;6 -->
<g id="edge8" class="edge"><title>1&#45;&gt;6</title>
<path fill="none" stroke="black" stroke-width="2" d="M126.7,-194.316C133.597,-187.812 141.776,-180.032 149.059,-172.925 158.934,-163.289 169.716,-152.505 178.891,-143.249"/>
<polygon fill="black" stroke="black" stroke-width="2" points="181.622,-145.464 186.163,-135.892 176.644,-140.543 181.622,-145.464"/>
</g>
<!-- 1&#45;&gt;7 -->
<g id="edge9" class="edge"><title>1&#45;&gt;7</title>
<path fill="none" stroke="black" stroke-width="2" d="M104.501,-188.45C100.221,-175.134 94.5657,-157.538 89.7714,-142.621"/>
<polygon fill="black" stroke="black" stroke-width="2" points="93.0094,-141.256 86.6173,-132.807 86.3451,-143.398 93.0094,-141.256"/>
</g>
<!-- 2 -->
<g id="node3" class="node"><title>2</title>
<ellipse fill="cadetblue" stroke="black" cx="98.3223" cy="-21.2132" rx="21.4286" ry="21.4286"/>
<text text-anchor="middle" x="98.3223" y="-16.2132" font-family="Times New Roman,serif" font-size="20.00">2</text>
</g>
<!-- 2&#45;&gt;5 -->
<g id="edge11" class="edge"><title>2&#45;&gt;5</title>
<path fill="none" stroke="black" stroke-width="2" d="M84.8909,-37.9899C72.7283,-53.1818 54.6575,-75.7535 40.8702,-92.9747"/>
<polygon fill="black" stroke="black" stroke-width="2" points="38.0083,-90.9493 34.4907,-100.943 43.4728,-95.3242 38.0083,-90.9493"/>
</g>
<!-- 3 -->
<g id="node4" class="node"><title>3</title>
<ellipse fill="cadetblue" stroke="black" cx="28.8985" cy="-202.79" rx="21.4286" ry="21.4286"/>
<text text-anchor="middle" x="28.8985" y="-197.79" font-family="Times New Roman,serif" font-size="20.00">2</text>
</g>
<!-- 3&#45;&gt;0 -->
<g id="edge1" class="edge"><title>3&#45;&gt;0</title>
<path fill="none" stroke="black" stroke-width="2" d="M48.4836,-193.442C63.616,-186.22 84.7823,-176.117 101.819,-167.986"/>
<polygon fill="black" stroke="black" stroke-width="2" points="103.778,-170.929 111.295,-163.463 100.763,-164.612 103.778,-170.929"/>
</g>
<!-- 3&#45;&gt;1 -->
<g id="edge6" class="edge"><title>3&#45;&gt;1</title>
<path fill="none" stroke="black" stroke-width="2" d="M50.0632,-204.372C59.0045,-205.04 69.6067,-205.832 79.4446,-206.567"/>
<polygon fill="black" stroke="black" stroke-width="2" points="79.4719,-210.079 89.7049,-207.334 79.9936,-203.098 79.4719,-210.079"/>
</g>
<!-- 4 -->
<g id="node5" class="node"><title>4</title>
<ellipse fill="cadetblue" stroke="black" cx="172.828" cy="-49.382" rx="21.4286" ry="21.4286"/>
<text text-anchor="middle" x="172.828" y="-44.382" font-family="Times New Roman,serif" font-size="20.00">2</text>
</g>
<!-- 4&#45;&gt;0 -->
<g id="edge2" class="edge"><title>4&#45;&gt;0</title>
<path fill="none" stroke="black" stroke-width="2" d="M164.862,-69.1177C158.514,-84.8456 149.528,-107.107 142.334,-124.929"/>
<polygon fill="black" stroke="black" stroke-width="2" points="139.048,-123.721 138.55,-134.304 145.539,-126.341 139.048,-123.721"/>
</g>
<!-- 4&#45;&gt;2 -->
<g id="edge10" class="edge"><title>4&#45;&gt;2</title>
<path fill="none" stroke="black" stroke-width="2" d="M152.862,-41.8332C145.179,-38.9284 136.235,-35.5469 127.839,-32.3727"/>
<polygon fill="black" stroke="black" stroke-width="2" points="128.935,-29.0454 118.344,-28.7827 126.46,-35.5931 128.935,-29.0454"/>
</g>
<!-- 5&#45;&gt;1 -->
<g id="edge7" class="edge"><title>5&#45;&gt;1</title>
<path fill="none" stroke="black" stroke-width="2" d="M36.4585,-133.033C50.8765,-147.697 72.676,-169.869 88.9965,-186.468"/>
<polygon fill="black" stroke="black" stroke-width="2" points="86.5566,-188.978 96.0634,-193.655 91.5481,-184.071 86.5566,-188.978"/>
</g>
<!-- 5&#45;&gt;3 -->
<g id="edge13" class="edge"><title>5&#45;&gt;3</title>
<path fill="none" stroke="black" stroke-width="2" d="M23.1525,-139.043C24.033,-148.811 25.0918,-160.557 26.0593,-171.291"/>
<polygon fill="black" stroke="black" stroke-width="2" points="22.6028,-171.932 26.9864,-181.577 29.5745,-171.303 22.6028,-171.932"/>
</g>
<!-- 5&#45;&gt;7 -->
<g id="edge17" class="edge"><title>5&#45;&gt;7</title>
<path fill="none" stroke="black" stroke-width="2" d="M42.4525,-115.66C44.4273,-115.487 46.4555,-115.308 48.4974,-115.129"/>
<polygon fill="black" stroke="black" stroke-width="2" points="48.9834,-118.6 58.6384,-114.237 48.3703,-111.627 48.9834,-118.6"/>
</g>
<!-- 6&#45;&gt;2 -->
<g id="edge12" class="edge"><title>6&#45;&gt;2</title>
<path fill="none" stroke="black" stroke-width="2" d="M185.467,-105.582C168.318,-88.9802 140.615,-62.1589 121.054,-43.2207"/>
<polygon fill="black" stroke="black" stroke-width="2" points="123.357,-40.5791 113.738,-36.138 118.488,-45.6083 123.357,-40.5791"/>
</g>
<!-- 6&#45;&gt;4 -->
<g id="edge15" class="edge"><title>6&#45;&gt;4</title>
<path fill="none" stroke="black" stroke-width="2" d="M193.205,-100.827C190.481,-93.9504 187.368,-86.0912 184.409,-78.6206"/>
<polygon fill="black" stroke="black" stroke-width="2" points="187.59,-77.1474 180.654,-69.1389 181.082,-79.7251 187.59,-77.1474"/>
</g>
<!-- 7&#45;&gt;3 -->
<g id="edge14" class="edge"><title>7&#45;&gt;3</title>
<path fill="none" stroke="black" stroke-width="2" d="M69.4468,-131.093C62.2462,-143.825 52.5998,-160.882 44.5224,-175.164"/>
<polygon fill="black" stroke="black" stroke-width="2" points="41.3587,-173.649 39.4824,-184.076 47.4517,-177.095 41.3587,-173.649"/>
</g>
<!-- 7&#45;&gt;4 -->
<g id="edge16" class="edge"><title>7&#45;&gt;4</title>
<path fill="none" stroke="black" stroke-width="2" d="M97.9339,-100.213C111.668,-90.8917 130.844,-77.8768 146.354,-67.3502"/>
<polygon fill="black" stroke="black" stroke-width="2" points="148.685,-69.9984 154.994,-61.4866 144.754,-64.2064 148.685,-69.9984"/>
</g>
</g>
</svg>

