<?xml version="1.0" encoding="UTF-8" standalone="no"?>
<!DOCTYPE svg PUBLIC "-//W3C//DTD SVG 1.1//EN"
 "http://www.w3.org/Graphics/SVG/1.1/DTD/svg11.dtd">
<!-- Generated by graphviz version 2.36.0 (20140111.2315)
 -->
<!-- Title: G Pages: 1 -->
<svg width="100%" height="100%"
 viewBox="0.00 0.00 236.48 268.86" xmlns="http://www.w3.org/2000/svg" xmlns:xlink="http://www.w3.org/1999/xlink">
<g id="graph0" class="graph" transform="scale(1 1) rotate(0) translate(4 264.858)">
<title>G</title>
<!-- 0 -->
<g id="node1" class="node"><title>0</title>
<ellipse fill="cadetblue" stroke="black" cx="205.938" cy="-194.136" rx="21.4286" ry="21.4286"/>
<text text-anchor="middle" x="205.938" y="-189.136" font-family="Times New Roman,serif" font-size="20.00">2</text>
</g>
<!-- 6 -->
<g id="node7" class="node"><title>6</title>
<ellipse fill="cadetblue" stroke="black" cx="147.741" cy="-135.438" rx="21.4286" ry="21.4286"/>
<text text-anchor="middle" x="147.741" y="-130.438" font-family="Times New Roman,serif" font-size="20.00">2</text>
</g>
<!-- 0&#45;&gt;6 -->
<g id="edge3" class="edge"><title>0&#45;&gt;6</title>
<path fill="none" stroke="black" stroke-width="2" d="M190.951,-179.02C184.619,-172.634 177.112,-165.061 170.145,-158.035"/>
<polygon fill="black" stroke="black" stroke-width="2" points="172.406,-155.344 162.879,-150.707 167.435,-160.272 172.406,-155.344"/>
</g>
<!-- 7 -->
<g id="node8" class="node"><title>7</title>
<ellipse fill="brown" stroke="black" cx="97.3091" cy="-147.398" rx="21.4286" ry="21.4286"/>
<text text-anchor="middle" x="97.3091" y="-142.398" font-family="Times New Roman,serif" font-size="20.00">3</text>
</g>
<!-- 0&#45;&gt;7 -->
<g id="edge4" class="edge"><title>0&#45;&gt;7</title>
<path fill="none" stroke="black" stroke-width="2" d="M186.266,-185.672C169.501,-178.459 145.179,-167.994 126.203,-159.83"/>
<polygon fill="black" stroke="black" stroke-width="2" points="127.404,-156.536 116.835,-155.799 124.637,-162.966 127.404,-156.536"/>
</g>
<!-- 1 -->
<g id="node2" class="node"><title>1</title>
<ellipse fill="cadetblue" stroke="black" cx="25.6795" cy="-178.128" rx="21.4286" ry="21.4286"/>
<text text-anchor="middle" x="25.6795" y="-173.128" font-family="Times New Roman,serif" font-size="20.00">2</text>
</g>
<!-- 1&#45;&gt;6 -->
<g id="edge7" class="edge"><title>1&#45;&gt;6</title>
<path fill="none" stroke="black" stroke-width="2" d="M47.1547,-180.212C66.6491,-181.02 95.4005,-179.401 115.908,-165.999 119.345,-163.753 122.738,-161.108 125.955,-158.329"/>
<polygon fill="black" stroke="black" stroke-width="2" points="128.575,-160.672 133.513,-151.299 123.808,-155.547 128.575,-160.672"/>
</g>
<!-- 1&#45;&gt;7 -->
<g id="edge8" class="edge"><title>1&#45;&gt;7</title>
<path fill="none" stroke="black" stroke-width="2" d="M45.2526,-169.731C52.4381,-166.648 60.7301,-163.091 68.5541,-159.734"/>
<polygon fill="black" stroke="black" stroke-width="2" points="69.9496,-162.944 77.7597,-155.785 67.1897,-156.511 69.9496,-162.944"/>
</g>
<!-- 2 -->
<g id="node3" class="node"><title>2</title>
<ellipse fill="cadetblue" stroke="black" cx="123.386" cy="-21.2132" rx="21.4286" ry="21.4286"/>
<text text-anchor="middle" x="123.386" y="-16.2132" font-family="Times New Roman,serif" font-size="20.00">2</text>
</g>
<!-- 5 -->
<g id="node6" class="node"><title>5</title>
<ellipse fill="cadetblue" stroke="black" cx="21.2132" cy="-69.6136" rx="21.4286" ry="21.4286"/>
<text text-anchor="middle" x="21.2132" y="-64.6136" font-family="Times New Roman,serif" font-size="20.00">2</text>
</g>
<!-- 2&#45;&gt;5 -->
<g id="edge10" class="edge"><title>2&#45;&gt;5</title>
<path fill="none" stroke="black" stroke-width="2" d="M104.168,-30.3169C88.8528,-37.5719 67.1755,-47.8407 49.8211,-56.0617"/>
<polygon fill="black" stroke="black" stroke-width="2" points="48.2312,-52.9419 40.6923,-60.3861 51.228,-59.268 48.2312,-52.9419"/>
</g>
<!-- 3 -->
<g id="node4" class="node"><title>3</title>
<ellipse fill="cadetblue" stroke="black" cx="112.937" cy="-239.645" rx="21.4286" ry="21.4286"/>
<text text-anchor="middle" x="112.937" y="-234.645" font-family="Times New Roman,serif" font-size="20.00">2</text>
</g>
<!-- 3&#45;&gt;0 -->
<g id="edge1" class="edge"><title>3&#45;&gt;0</title>
<path fill="none" stroke="black" stroke-width="2" d="M132.207,-230.215C145.3,-223.808 162.841,-215.225 177.528,-208.038"/>
<polygon fill="black" stroke="black" stroke-width="2" points="179.249,-211.092 186.693,-203.553 176.172,-204.805 179.249,-211.092"/>
</g>
<!-- 3&#45;&gt;1 -->
<g id="edge5" class="edge"><title>3&#45;&gt;1</title>
<path fill="none" stroke="black" stroke-width="2" d="M95.2791,-227.196C82.7423,-218.357 65.7072,-206.347 51.6284,-196.422"/>
<polygon fill="black" stroke="black" stroke-width="2" points="53.5009,-193.459 43.3111,-190.558 49.4674,-199.181 53.5009,-193.459"/>
</g>
<!-- 4 -->
<g id="node5" class="node"><title>4</title>
<ellipse fill="cadetblue" stroke="black" cx="207.262" cy="-83.8353" rx="21.4286" ry="21.4286"/>
<text text-anchor="middle" x="207.262" y="-78.8353" font-family="Times New Roman,serif" font-size="20.00">2</text>
</g>
<!-- 4&#45;&gt;0 -->
<g id="edge2" class="edge"><title>4&#45;&gt;0</title>
<path fill="none" stroke="black" stroke-width="2" d="M207.007,-105.102C206.812,-121.325 206.541,-143.934 206.32,-162.309"/>
<polygon fill="black" stroke="black" stroke-width="2" points="202.818,-162.516 206.197,-172.558 209.817,-162.601 202.818,-162.516"/>
</g>
<!-- 4&#45;&gt;2 -->
<g id="edge9" class="edge"><title>4&#45;&gt;2</title>
<path fill="none" stroke="black" stroke-width="2" d="M189.883,-70.86C177.996,-61.9849 162.044,-50.0752 148.744,-40.1453"/>
<polygon fill="black" stroke="black" stroke-width="2" points="150.563,-37.1357 140.456,-33.9577 146.375,-42.7448 150.563,-37.1357"/>
</g>
<!-- 5&#45;&gt;1 -->
<g id="edge6" class="edge"><title>5&#45;&gt;1</title>
<path fill="none" stroke="black" stroke-width="2" d="M22.0956,-91.0524C22.7471,-106.881 23.6442,-128.679 24.3779,-146.505"/>
<polygon fill="black" stroke="black" stroke-width="2" points="20.8905,-146.886 24.7989,-156.733 27.8846,-146.598 20.8905,-146.886"/>
</g>
<!-- 6&#45;&gt;2 -->
<g id="edge11" class="edge"><title>6&#45;&gt;2</title>
<path fill="none" stroke="black" stroke-width="2" d="M143.274,-114.487C139.531,-96.9367 134.139,-71.6466 129.913,-51.8268"/>
<polygon fill="black" stroke="black" stroke-width="2" points="133.333,-51.0812 127.825,-42.0309 126.487,-52.541 133.333,-51.0812"/>
</g>
<!-- 6&#45;&gt;3 -->
<g id="edge12" class="edge"><title>6&#45;&gt;3</title>
<path fill="none" stroke="black" stroke-width="2" d="M140.864,-156.026C135.731,-171.397 128.64,-192.629 122.887,-209.851"/>
<polygon fill="black" stroke="black" stroke-width="2" points="119.528,-208.86 119.68,-219.454 126.168,-211.078 119.528,-208.86"/>
</g>
<!-- 6&#45;&gt;4 -->
<g id="edge14" class="edge"><title>6&#45;&gt;4</title>
<path fill="none" stroke="black" stroke-width="2" d="M164.005,-121.337C169.91,-116.218 176.715,-110.318 183.153,-104.737"/>
<polygon fill="black" stroke="black" stroke-width="2" points="185.754,-107.114 191.017,-97.9189 181.169,-101.825 185.754,-107.114"/>
</g>
<!-- 6&#45;&gt;7 -->
<g id="edge17" class="edge"><title>6&#45;&gt;7</title>
<path fill="none" stroke="black" stroke-width="2" d="M126.937,-140.372C126.845,-140.393 126.754,-140.415 126.662,-140.437"/>
<polygon fill="black" stroke="black" stroke-width="2" points="126.987,-136.762 118.065,-142.476 128.603,-143.574 126.987,-136.762"/>
</g>
<!-- 7&#45;&gt;3 -->
<g id="edge13" class="edge"><title>7&#45;&gt;3</title>
<path fill="none" stroke="black" stroke-width="2" d="M100.855,-168.33C102.859,-180.159 105.403,-195.175 107.639,-208.375"/>
<polygon fill="black" stroke="black" stroke-width="2" points="104.229,-209.201 109.351,-218.476 111.131,-208.032 104.229,-209.201"/>
</g>
<!-- 7&#45;&gt;4 -->
<g id="edge15" class="edge"><title>7&#45;&gt;4</title>
<path fill="none" stroke="black" stroke-width="2" d="M111.562,-131.551C116.749,-126.398 122.888,-120.947 129.163,-116.816 143.845,-107.148 161.827,-99.3224 176.834,-93.7244"/>
<polygon fill="black" stroke="black" stroke-width="2" points="178.432,-96.8702 186.671,-90.2095 176.077,-90.2784 178.432,-96.8702"/>
</g>
<!-- 7&#45;&gt;5 -->
<g id="edge16" class="edge"><title>7&#45;&gt;5</title>
<path fill="none" stroke="black" stroke-width="2" d="M82.275,-132.03C71.1231,-120.631 55.7459,-104.913 43.2131,-92.1016"/>
<polygon fill="black" stroke="black" stroke-width="2" points="45.7111,-89.65 36.2161,-84.9494 40.7073,-94.5452 45.7111,-89.65"/>
</g>
</g>
</svg>

