<?xml version="1.0" encoding="UTF-8" standalone="no"?>
<!DOCTYPE svg PUBLIC "-//W3C//DTD SVG 1.1//EN"
 "http://www.w3.org/Graphics/SVG/1.1/DTD/svg11.dtd">
<!-- Generated by graphviz version 2.36.0 (20140111.2315)
 -->
<!-- Title: G Pages: 1 -->
<svg width="100%" height="100%"
 viewBox="0.00 0.00 278.37 267.41" xmlns="http://www.w3.org/2000/svg" xmlns:xlink="http://www.w3.org/1999/xlink">
<g id="graph0" class="graph" transform="scale(1 1) rotate(0) translate(4 263.409)">
<title>G</title>
<!-- 0 -->
<g id="node1" class="node"><title>0</title>
<ellipse fill="cadetblue" stroke="black" cx="184.381" cy="-131.266" rx="21.4286" ry="21.4286"/>
<text text-anchor="middle" x="184.381" y="-126.266" font-family="Times New Roman,serif" font-size="20.00">2</text>
</g>
<!-- 5 -->
<g id="node6" class="node"><title>5</title>
<ellipse fill="cadetblue" stroke="black" cx="135.735" cy="-228.984" rx="21.4286" ry="21.4286"/>
<text text-anchor="middle" x="135.735" y="-223.984" font-family="Times New Roman,serif" font-size="20.00">2</text>
</g>
<!-- 0&#45;&gt;5 -->
<g id="edge3" class="edge"><title>0&#45;&gt;5</title>
<path fill="none" stroke="black" stroke-width="2" d="M174.77,-150.572C167.641,-164.893 157.811,-184.639 149.799,-200.733"/>
<polygon fill="black" stroke="black" stroke-width="2" points="146.649,-199.206 145.326,-209.718 152.916,-202.326 146.649,-199.206"/>
</g>
<!-- 6 -->
<g id="node7" class="node"><title>6</title>
<ellipse fill="cadetblue" stroke="black" cx="223.119" cy="-238.195" rx="21.4286" ry="21.4286"/>
<text text-anchor="middle" x="223.119" y="-233.195" font-family="Times New Roman,serif" font-size="20.00">2</text>
</g>
<!-- 0&#45;&gt;6 -->
<g id="edge4" class="edge"><title>0&#45;&gt;6</title>
<path fill="none" stroke="black" stroke-width="2" d="M191.667,-151.379C197.511,-167.509 205.798,-190.383 212.398,-208.602"/>
<polygon fill="black" stroke="black" stroke-width="2" points="209.169,-209.963 215.866,-218.173 215.75,-207.579 209.169,-209.963"/>
</g>
<!-- 7 -->
<g id="node8" class="node"><title>7</title>
<ellipse fill="cadetblue" stroke="black" cx="122.453" cy="-59.3312" rx="21.4286" ry="21.4286"/>
<text text-anchor="middle" x="122.453" y="-54.3312" font-family="Times New Roman,serif" font-size="20.00">2</text>
</g>
<!-- 0&#45;&gt;7 -->
<g id="edge5" class="edge"><title>0&#45;&gt;7</title>
<path fill="none" stroke="black" stroke-width="2" d="M170.328,-114.943C162.252,-105.562 151.962,-93.6086 142.993,-83.1899"/>
<polygon fill="black" stroke="black" stroke-width="2" points="145.627,-80.8849 136.45,-75.5898 140.322,-85.4519 145.627,-80.8849"/>
</g>
<!-- 1 -->
<g id="node2" class="node"><title>1</title>
<ellipse fill="cadetblue" stroke="black" cx="21.2132" cy="-133.994" rx="21.4286" ry="21.4286"/>
<text text-anchor="middle" x="21.2132" y="-128.994" font-family="Times New Roman,serif" font-size="20.00">2</text>
</g>
<!-- 1&#45;&gt;7 -->
<g id="edge8" class="edge"><title>1&#45;&gt;7</title>
<path fill="none" stroke="black" stroke-width="2" d="M38.3872,-121.328C54.386,-109.529 78.4529,-91.7805 96.7417,-78.2929"/>
<polygon fill="black" stroke="black" stroke-width="2" points="99.2243,-80.811 105.195,-72.0588 95.0695,-75.1773 99.2243,-80.811"/>
</g>
<!-- 2 -->
<g id="node3" class="node"><title>2</title>
<ellipse fill="cadetblue" stroke="black" cx="249.161" cy="-131.917" rx="21.4286" ry="21.4286"/>
<text text-anchor="middle" x="249.161" y="-126.917" font-family="Times New Roman,serif" font-size="20.00">2</text>
</g>
<!-- 4 -->
<g id="node5" class="node"><title>4</title>
<ellipse fill="cadetblue" stroke="black" cx="228.586" cy="-21.2132" rx="21.4286" ry="21.4286"/>
<text text-anchor="middle" x="228.586" y="-16.2132" font-family="Times New Roman,serif" font-size="20.00">2</text>
</g>
<!-- 2&#45;&gt;4 -->
<g id="edge9" class="edge"><title>2&#45;&gt;4</title>
<path fill="none" stroke="black" stroke-width="2" d="M245.242,-110.834C242.153,-94.2131 237.801,-70.7965 234.32,-52.0675"/>
<polygon fill="black" stroke="black" stroke-width="2" points="237.758,-51.4098 232.49,-42.2177 230.876,-52.689 237.758,-51.4098"/>
</g>
<!-- 2&#45;&gt;6 -->
<g id="edge11" class="edge"><title>2&#45;&gt;6</title>
<path fill="none" stroke="black" stroke-width="2" d="M244.078,-152.661C240.242,-168.315 234.92,-190.034 230.599,-207.669"/>
<polygon fill="black" stroke="black" stroke-width="2" points="227.17,-206.958 228.189,-217.504 233.969,-208.624 227.17,-206.958"/>
</g>
<!-- 3 -->
<g id="node4" class="node"><title>3</title>
<ellipse fill="cadetblue" stroke="black" cx="93.3551" cy="-178.552" rx="21.4286" ry="21.4286"/>
<text text-anchor="middle" x="93.3551" y="-173.552" font-family="Times New Roman,serif" font-size="20.00">2</text>
</g>
<!-- 3&#45;&gt;0 -->
<g id="edge1" class="edge"><title>3&#45;&gt;0</title>
<path fill="none" stroke="black" stroke-width="2" d="M112.216,-168.755C125.031,-162.097 142.199,-153.179 156.574,-145.711"/>
<polygon fill="black" stroke="black" stroke-width="2" points="158.284,-148.767 165.544,-141.052 155.057,-142.556 158.284,-148.767"/>
</g>
<!-- 3&#45;&gt;1 -->
<g id="edge6" class="edge"><title>3&#45;&gt;1</title>
<path fill="none" stroke="black" stroke-width="2" d="M75.1507,-167.308C66.9485,-162.242 57.0975,-156.158 48.0714,-150.583"/>
<polygon fill="black" stroke="black" stroke-width="2" points="49.7591,-147.511 39.4118,-145.234 46.0805,-153.467 49.7591,-147.511"/>
</g>
<!-- 4&#45;&gt;0 -->
<g id="edge2" class="edge"><title>4&#45;&gt;0</title>
<path fill="none" stroke="black" stroke-width="2" d="M220.581,-41.143C213.758,-58.1277 203.861,-82.7689 196.139,-101.994"/>
<polygon fill="black" stroke="black" stroke-width="2" points="192.806,-100.901 192.326,-111.485 199.302,-103.51 192.806,-100.901"/>
</g>
<!-- 5&#45;&gt;1 -->
<g id="edge7" class="edge"><title>5&#45;&gt;1</title>
<path fill="none" stroke="black" stroke-width="2" d="M115.894,-220.985C103.36,-215.382 87.2306,-207.121 74.7243,-197.121 61.4129,-186.478 48.948,-172.144 39.4034,-159.824"/>
<polygon fill="black" stroke="black" stroke-width="2" points="42.0938,-157.579 33.2876,-151.688 36.4981,-161.784 42.0938,-157.579"/>
</g>
<!-- 5&#45;&gt;2 -->
<g id="edge10" class="edge"><title>5&#45;&gt;2</title>
<path fill="none" stroke="black" stroke-width="2" d="M151.986,-215.076C171.19,-198.642 203.309,-171.155 225.327,-152.313"/>
<polygon fill="black" stroke="black" stroke-width="2" points="227.618,-154.959 232.94,-145.798 223.066,-149.641 227.618,-154.959"/>
</g>
<!-- 6&#45;&gt;3 -->
<g id="edge13" class="edge"><title>6&#45;&gt;3</title>
<path fill="none" stroke="black" stroke-width="2" d="M203.692,-229.266C182.096,-219.34 146.997,-203.207 122.193,-191.807"/>
<polygon fill="black" stroke="black" stroke-width="2" points="123.463,-188.539 112.915,-187.543 120.539,-194.899 123.463,-188.539"/>
</g>
<!-- 6&#45;&gt;5 -->
<g id="edge16" class="edge"><title>6&#45;&gt;5</title>
<path fill="none" stroke="black" stroke-width="2" d="M201.966,-235.966C191.524,-234.865 178.718,-233.515 167.158,-232.296"/>
<polygon fill="black" stroke="black" stroke-width="2" points="167.308,-228.793 156.996,-231.225 166.574,-235.754 167.308,-228.793"/>
</g>
<!-- 7&#45;&gt;2 -->
<g id="edge12" class="edge"><title>7&#45;&gt;2</title>
<path fill="none" stroke="black" stroke-width="2" d="M140.878,-69.8857C162.179,-82.0885 197.442,-102.289 221.915,-116.309"/>
<polygon fill="black" stroke="black" stroke-width="2" points="220.297,-119.416 230.714,-121.349 223.777,-113.342 220.297,-119.416"/>
</g>
<!-- 7&#45;&gt;3 -->
<g id="edge14" class="edge"><title>7&#45;&gt;3</title>
<path fill="none" stroke="black" stroke-width="2" d="M117.385,-80.0979C112.823,-98.7883 106.059,-126.503 100.868,-147.769"/>
<polygon fill="black" stroke="black" stroke-width="2" points="97.4342,-147.079 98.4632,-157.624 104.235,-148.739 97.4342,-147.079"/>
</g>
<!-- 7&#45;&gt;4 -->
<g id="edge15" class="edge"><title>7&#45;&gt;4</title>
<path fill="none" stroke="black" stroke-width="2" d="M142.917,-51.9816C158.802,-46.2765 181.05,-38.2859 198.893,-31.8776"/>
<polygon fill="black" stroke="black" stroke-width="2" points="200.317,-35.0851 208.545,-28.4109 197.951,-28.4971 200.317,-35.0851"/>
</g>
</g>
</svg>

