<?xml version="1.0" encoding="UTF-8" standalone="no"?>
<!DOCTYPE svg PUBLIC "-//W3C//DTD SVG 1.1//EN"
 "http://www.w3.org/Graphics/SVG/1.1/DTD/svg11.dtd">
<!-- Generated by graphviz version 2.36.0 (20140111.2315)
 -->
<!-- Title: G Pages: 1 -->
<svg width="100%" height="100%"
 viewBox="0.00 0.00 234.02 216.63" xmlns="http://www.w3.org/2000/svg" xmlns:xlink="http://www.w3.org/1999/xlink">
<g id="graph0" class="graph" transform="scale(1 1) rotate(0) translate(4 212.629)">
<title>G</title>
<!-- 0 -->
<g id="node1" class="node"><title>0</title>
<ellipse fill="cadetblue" stroke="black" cx="37.5588" cy="-50.3929" rx="21.4286" ry="21.4286"/>
<text text-anchor="middle" x="37.5588" y="-45.3929" font-family="Times New Roman,serif" font-size="20.00">2</text>
</g>
<!-- 4 -->
<g id="node5" class="node"><title>4</title>
<ellipse fill="brown" stroke="black" cx="148.206" cy="-21.2132" rx="21.4286" ry="21.4286"/>
<text text-anchor="middle" x="148.206" y="-16.2132" font-family="Times New Roman,serif" font-size="20.00">3</text>
</g>
<!-- 0&#45;&gt;4 -->
<g id="edge2" class="edge"><title>0&#45;&gt;4</title>
<path fill="none" stroke="black" stroke-width="2" d="M58.1145,-56.0704C67.2359,-57.9307 78.1114,-59.2504 87.9515,-58.063 101.076,-56.4793 113.833,-49.6938 124.204,-42.3688"/>
<polygon fill="black" stroke="black" stroke-width="2" points="126.478,-45.0364 132.31,-36.1912 122.235,-39.4688 126.478,-45.0364"/>
</g>
<!-- 5 -->
<g id="node6" class="node"><title>5</title>
<ellipse fill="brown" stroke="black" cx="21.2132" cy="-140.249" rx="21.4286" ry="21.4286"/>
<text text-anchor="middle" x="21.2132" y="-135.249" font-family="Times New Roman,serif" font-size="20.00">3</text>
</g>
<!-- 0&#45;&gt;5 -->
<g id="edge3" class="edge"><title>0&#45;&gt;5</title>
<path fill="none" stroke="black" stroke-width="2" d="M33.6851,-71.6875C31.6495,-82.8779 29.1164,-96.8029 26.8659,-109.174"/>
<polygon fill="black" stroke="black" stroke-width="2" points="23.4054,-108.642 25.0591,-119.107 30.2924,-109.895 23.4054,-108.642"/>
</g>
<!-- 1 -->
<g id="node2" class="node"><title>1</title>
<ellipse fill="cadetblue" stroke="black" cx="128.797" cy="-187.416" rx="21.4286" ry="21.4286"/>
<text text-anchor="middle" x="128.797" y="-182.416" font-family="Times New Roman,serif" font-size="20.00">2</text>
</g>
<!-- 1&#45;&gt;5 -->
<g id="edge6" class="edge"><title>1&#45;&gt;5</title>
<path fill="none" stroke="black" stroke-width="2" d="M109.064,-178.765C92.534,-171.518 68.7143,-161.075 50.0469,-152.89"/>
<polygon fill="black" stroke="black" stroke-width="2" points="51.3844,-149.655 40.8206,-148.845 48.5736,-156.066 51.3844,-149.655"/>
</g>
<!-- 7 -->
<g id="node8" class="node"><title>7</title>
<ellipse fill="cadetblue" stroke="black" cx="81.7463" cy="-111.607" rx="21.4286" ry="21.4286"/>
<text text-anchor="middle" x="81.7463" y="-106.607" font-family="Times New Roman,serif" font-size="20.00">2</text>
</g>
<!-- 1&#45;&gt;7 -->
<g id="edge8" class="edge"><title>1&#45;&gt;7</title>
<path fill="none" stroke="black" stroke-width="2" d="M117.407,-169.065C111.686,-159.846 104.645,-148.503 98.3359,-138.337"/>
<polygon fill="black" stroke="black" stroke-width="2" points="101.278,-136.44 93.0309,-129.789 95.3305,-140.132 101.278,-136.44"/>
</g>
<!-- 2 -->
<g id="node3" class="node"><title>2</title>
<ellipse fill="cadetblue" stroke="black" cx="87.9902" cy="-31.7587" rx="21.4286" ry="21.4286"/>
<text text-anchor="middle" x="87.9902" y="-26.7587" font-family="Times New Roman,serif" font-size="20.00">2</text>
</g>
<!-- 2&#45;&gt;4 -->
<g id="edge9" class="edge"><title>2&#45;&gt;4</title>
<path fill="none" stroke="black" stroke-width="2" d="M109.051,-28.0704C111.694,-27.6075 114.44,-27.1266 117.196,-26.644"/>
<polygon fill="black" stroke="black" stroke-width="2" points="117.809,-30.0899 127.056,-24.9172 116.602,-23.1948 117.809,-30.0899"/>
</g>
<!-- 6 -->
<g id="node7" class="node"><title>6</title>
<ellipse fill="cadetblue" stroke="black" cx="204.805" cy="-87.7847" rx="21.4286" ry="21.4286"/>
<text text-anchor="middle" x="204.805" y="-82.7847" font-family="Times New Roman,serif" font-size="20.00">2</text>
</g>
<!-- 2&#45;&gt;6 -->
<g id="edge11" class="edge"><title>2&#45;&gt;6</title>
<path fill="none" stroke="black" stroke-width="2" d="M107.28,-41.0103C126.049,-50.0123 154.793,-63.7982 176.219,-74.0746"/>
<polygon fill="black" stroke="black" stroke-width="2" points="174.956,-77.3507 185.486,-78.5194 177.983,-71.039 174.956,-77.3507"/>
</g>
<!-- 3 -->
<g id="node4" class="node"><title>3</title>
<ellipse fill="cadetblue" stroke="black" cx="148.058" cy="-111.572" rx="21.4286" ry="21.4286"/>
<text text-anchor="middle" x="148.058" y="-106.572" font-family="Times New Roman,serif" font-size="20.00">2</text>
</g>
<!-- 3&#45;&gt;0 -->
<g id="edge1" class="edge"><title>3&#45;&gt;0</title>
<path fill="none" stroke="black" stroke-width="2" d="M129.314,-101.193C111.772,-91.4815 85.3445,-76.8497 65.3502,-65.7797"/>
<polygon fill="black" stroke="black" stroke-width="2" points="66.8394,-62.6037 56.3955,-60.8219 63.4488,-68.7277 66.8394,-62.6037"/>
</g>
<!-- 3&#45;&gt;1 -->
<g id="edge5" class="edge"><title>3&#45;&gt;1</title>
<path fill="none" stroke="black" stroke-width="2" d="M142.795,-132.296C140.863,-139.905 138.633,-148.685 136.529,-156.969"/>
<polygon fill="black" stroke="black" stroke-width="2" points="133.123,-156.163 134.054,-166.716 139.907,-157.886 133.123,-156.163"/>
</g>
<!-- 3&#45;&gt;6 -->
<g id="edge14" class="edge"><title>3&#45;&gt;6</title>
<path fill="none" stroke="black" stroke-width="2" d="M167.905,-103.252C170.396,-102.208 172.984,-101.123 175.581,-100.035"/>
<polygon fill="black" stroke="black" stroke-width="2" points="177.003,-103.234 184.873,-96.1397 174.297,-96.7778 177.003,-103.234"/>
</g>
<!-- 4&#45;&gt;3 -->
<g id="edge13" class="edge"><title>4&#45;&gt;3</title>
<path fill="none" stroke="black" stroke-width="2" d="M148.171,-42.6269C148.153,-53.7673 148.13,-67.603 148.11,-79.9498"/>
<polygon fill="black" stroke="black" stroke-width="2" points="144.61,-80.3059 148.093,-90.3116 151.61,-80.3174 144.61,-80.3059"/>
</g>
<!-- 4&#45;&gt;7 -->
<g id="edge17" class="edge"><title>4&#45;&gt;7</title>
<path fill="none" stroke="black" stroke-width="2" d="M135.392,-38.6421C125.554,-52.0227 111.819,-70.7047 100.709,-85.8149"/>
<polygon fill="black" stroke="black" stroke-width="2" points="97.6247,-84.1017 94.521,-94.2318 103.264,-88.2482 97.6247,-84.1017"/>
</g>
<!-- 5&#45;&gt;2 -->
<g id="edge10" class="edge"><title>5&#45;&gt;2</title>
<path fill="none" stroke="black" stroke-width="2" d="M32.541,-121.845C43.2542,-104.44 59.452,-78.1237 71.5788,-58.4218"/>
<polygon fill="black" stroke="black" stroke-width="2" points="74.5685,-60.2415 76.8297,-49.8908 68.6073,-56.5722 74.5685,-60.2415"/>
</g>
<!-- 6&#45;&gt;1 -->
<g id="edge7" class="edge"><title>6&#45;&gt;1</title>
<path fill="none" stroke="black" stroke-width="2" d="M191.911,-104.686C179.899,-120.43 161.831,-144.115 148.1,-162.113"/>
<polygon fill="black" stroke="black" stroke-width="2" points="145.036,-160.359 141.754,-170.432 150.602,-164.605 145.036,-160.359"/>
</g>
<!-- 6&#45;&gt;4 -->
<g id="edge16" class="edge"><title>6&#45;&gt;4</title>
<path fill="none" stroke="black" stroke-width="2" d="M190.814,-71.3288C184.097,-63.4284 175.921,-53.8114 168.534,-45.1226"/>
<polygon fill="black" stroke="black" stroke-width="2" points="171.18,-42.8314 162.036,-37.4798 165.847,-47.3656 171.18,-42.8314"/>
</g>
<!-- 7&#45;&gt;0 -->
<g id="edge4" class="edge"><title>7&#45;&gt;0</title>
<path fill="none" stroke="black" stroke-width="2" d="M69.2021,-94.2293C65.0623,-88.4943 60.3685,-81.9919 55.8877,-75.7844"/>
<polygon fill="black" stroke="black" stroke-width="2" points="58.6722,-73.662 49.9814,-67.6023 52.9964,-77.7591 58.6722,-73.662"/>
</g>
<!-- 7&#45;&gt;2 -->
<g id="edge12" class="edge"><title>7&#45;&gt;2</title>
<path fill="none" stroke="black" stroke-width="2" d="M83.4195,-90.2092C84.0686,-81.9085 84.8251,-72.2349 85.5336,-63.1744"/>
<polygon fill="black" stroke="black" stroke-width="2" points="89.0437,-63.1813 86.334,-52.9388 82.065,-62.6355 89.0437,-63.1813"/>
</g>
<!-- 7&#45;&gt;3 -->
<g id="edge15" class="edge"><title>7&#45;&gt;3</title>
<path fill="none" stroke="black" stroke-width="2" d="M103.093,-111.596C107.352,-111.593 111.911,-111.591 116.431,-111.589"/>
<polygon fill="black" stroke="black" stroke-width="2" points="116.754,-115.088 126.752,-111.583 116.75,-108.088 116.754,-115.088"/>
</g>
<!-- 7&#45;&gt;5 -->
<g id="edge18" class="edge"><title>7&#45;&gt;5</title>
<path fill="none" stroke="black" stroke-width="2" d="M62.26,-120.827C58.2638,-122.718 53.9791,-124.745 49.7401,-126.751"/>
<polygon fill="black" stroke="black" stroke-width="2" points="48.2052,-123.605 40.6629,-131.046 51.1991,-129.933 48.2052,-123.605"/>
</g>
</g>
</svg>

