<?xml version="1.0" encoding="UTF-8" standalone="no"?>
<!DOCTYPE svg PUBLIC "-//W3C//DTD SVG 1.1//EN"
 "http://www.w3.org/Graphics/SVG/1.1/DTD/svg11.dtd">
<!-- Generated by graphviz version 2.36.0 (20140111.2315)
 -->
<!-- Title: G Pages: 1 -->
<svg width="100%" height="100%"
 viewBox="0.00 0.00 210.18 219.86" xmlns="http://www.w3.org/2000/svg" xmlns:xlink="http://www.w3.org/1999/xlink">
<g id="graph0" class="graph" transform="scale(1 1) rotate(0) translate(4 215.865)">
<title>G</title>
<!-- 0 -->
<g id="node1" class="node"><title>0</title>
<ellipse fill="cadetblue" stroke="black" cx="64.0488" cy="-190.652" rx="21.4286" ry="21.4286"/>
<text text-anchor="middle" x="64.0488" y="-185.652" font-family="Times New Roman,serif" font-size="20.00">2</text>
</g>
<!-- 5 -->
<g id="node6" class="node"><title>5</title>
<ellipse fill="cadetblue" stroke="black" cx="21.2132" cy="-81.0401" rx="21.4286" ry="21.4286"/>
<text text-anchor="middle" x="21.2132" y="-76.0401" font-family="Times New Roman,serif" font-size="20.00">2</text>
</g>
<!-- 0&#45;&gt;5 -->
<g id="edge3" class="edge"><title>0&#45;&gt;5</title>
<path fill="none" stroke="black" stroke-width="2" d="M47.7941,-176.451C42.5206,-171.263 36.9587,-165.1 32.7795,-158.752 23.9673,-145.368 20.8073,-127.901 19.9677,-112.918"/>
<polygon fill="black" stroke="black" stroke-width="2" points="23.4577,-112.454 19.7187,-102.541 16.4597,-112.622 23.4577,-112.454"/>
</g>
<!-- 7 -->
<g id="node8" class="node"><title>7</title>
<ellipse fill="brown" stroke="black" cx="104.74" cy="-109.183" rx="21.4286" ry="21.4286"/>
<text text-anchor="middle" x="104.74" y="-104.183" font-family="Times New Roman,serif" font-size="20.00">3</text>
</g>
<!-- 0&#45;&gt;7 -->
<g id="edge4" class="edge"><title>0&#45;&gt;7</title>
<path fill="none" stroke="black" stroke-width="2" d="M73.692,-171.345C78.7596,-161.199 85.0655,-148.574 90.6679,-137.357"/>
<polygon fill="black" stroke="black" stroke-width="2" points="93.8286,-138.862 95.1658,-128.352 87.5663,-135.734 93.8286,-138.862"/>
</g>
<!-- 1 -->
<g id="node2" class="node"><title>1</title>
<ellipse fill="cadetblue" stroke="black" cx="51.4472" cy="-140.22" rx="21.4286" ry="21.4286"/>
<text text-anchor="middle" x="51.4472" y="-135.22" font-family="Times New Roman,serif" font-size="20.00">2</text>
</g>
<!-- 6 -->
<g id="node7" class="node"><title>6</title>
<ellipse fill="cadetblue" stroke="black" cx="161.861" cy="-92.8461" rx="21.4286" ry="21.4286"/>
<text text-anchor="middle" x="161.861" y="-87.8461" font-family="Times New Roman,serif" font-size="20.00">2</text>
</g>
<!-- 1&#45;&gt;6 -->
<g id="edge7" class="edge"><title>1&#45;&gt;6</title>
<path fill="none" stroke="black" stroke-width="2" d="M72.8018,-140.732C87.9746,-140.143 108.251,-137.341 123.339,-127.784 128.945,-124.233 134.507,-119.841 139.589,-115.384"/>
<polygon fill="black" stroke="black" stroke-width="2" points="142.141,-117.791 147.116,-108.437 137.394,-112.647 142.141,-117.791"/>
</g>
<!-- 1&#45;&gt;7 -->
<g id="edge8" class="edge"><title>1&#45;&gt;7</title>
<path fill="none" stroke="black" stroke-width="2" d="M69.7875,-129.539C72.2714,-128.092 74.8624,-126.584 77.4614,-125.07"/>
<polygon fill="black" stroke="black" stroke-width="2" points="79.3049,-128.047 86.1848,-119.989 75.782,-121.998 79.3049,-128.047"/>
</g>
<!-- 2 -->
<g id="node3" class="node"><title>2</title>
<ellipse fill="cadetblue" stroke="black" cx="99.1339" cy="-21.2132" rx="21.4286" ry="21.4286"/>
<text text-anchor="middle" x="99.1339" y="-16.2132" font-family="Times New Roman,serif" font-size="20.00">2</text>
</g>
<!-- 2&#45;&gt;7 -->
<g id="edge11" class="edge"><title>2&#45;&gt;7</title>
<path fill="none" stroke="black" stroke-width="2" d="M100.491,-42.5083C101.161,-53.0199 101.982,-65.9122 102.724,-77.5493"/>
<polygon fill="black" stroke="black" stroke-width="2" points="99.2469,-78.0222 103.376,-87.7793 106.233,-77.577 99.2469,-78.0222"/>
</g>
<!-- 3 -->
<g id="node4" class="node"><title>3</title>
<ellipse fill="cadetblue" stroke="black" cx="180.966" cy="-169.367" rx="21.4286" ry="21.4286"/>
<text text-anchor="middle" x="180.966" y="-164.367" font-family="Times New Roman,serif" font-size="20.00">2</text>
</g>
<!-- 3&#45;&gt;0 -->
<g id="edge1" class="edge"><title>3&#45;&gt;0</title>
<path fill="none" stroke="black" stroke-width="2" d="M159.844,-164.895C150.493,-163.509 139.373,-162.675 129.392,-164.085 116.637,-165.888 103.332,-170.694 92.0826,-175.732"/>
<polygon fill="black" stroke="black" stroke-width="2" points="90.3199,-172.694 82.791,-180.148 93.3252,-179.016 90.3199,-172.694"/>
</g>
<!-- 4 -->
<g id="node5" class="node"><title>4</title>
<ellipse fill="cadetblue" stroke="black" cx="129.132" cy="-190.388" rx="21.4286" ry="21.4286"/>
<text text-anchor="middle" x="129.132" y="-185.388" font-family="Times New Roman,serif" font-size="20.00">2</text>
</g>
<!-- 4&#45;&gt;0 -->
<g id="edge2" class="edge"><title>4&#45;&gt;0</title>
<path fill="none" stroke="black" stroke-width="2" d="M107.821,-190.475C103.929,-190.49 99.7917,-190.507 95.6743,-190.524"/>
<polygon fill="black" stroke="black" stroke-width="2" points="95.6158,-187.024 85.6301,-190.564 95.6443,-194.024 95.6158,-187.024"/>
</g>
<!-- 4&#45;&gt;1 -->
<g id="edge5" class="edge"><title>4&#45;&gt;1</title>
<path fill="none" stroke="black" stroke-width="2" d="M111.114,-178.753C101.211,-172.357 88.7445,-164.307 77.7705,-157.22"/>
<polygon fill="black" stroke="black" stroke-width="2" points="79.6665,-154.278 69.3671,-151.793 75.869,-160.158 79.6665,-154.278"/>
</g>
<!-- 5&#45;&gt;1 -->
<g id="edge6" class="edge"><title>5&#45;&gt;1</title>
<path fill="none" stroke="black" stroke-width="2" d="M30.9458,-100.091C32.8879,-103.892 34.9663,-107.96 37.0273,-111.995"/>
<polygon fill="black" stroke="black" stroke-width="2" points="34.0664,-113.892 41.7328,-121.205 40.3001,-110.708 34.0664,-113.892"/>
</g>
<!-- 5&#45;&gt;2 -->
<g id="edge9" class="edge"><title>5&#45;&gt;2</title>
<path fill="none" stroke="black" stroke-width="2" d="M38.1208,-68.0585C48.638,-59.9835 62.352,-49.454 74.1137,-40.4235"/>
<polygon fill="black" stroke="black" stroke-width="2" points="76.459,-43.0355 82.2593,-34.1694 72.196,-37.4833 76.459,-43.0355"/>
</g>
<!-- 6&#45;&gt;2 -->
<g id="edge10" class="edge"><title>6&#45;&gt;2</title>
<path fill="none" stroke="black" stroke-width="2" d="M147.627,-76.5915C139.447,-67.2496 129.024,-55.3465 119.939,-44.9716"/>
<polygon fill="black" stroke="black" stroke-width="2" points="122.532,-42.621 113.311,-37.4035 117.266,-47.2325 122.532,-42.621"/>
</g>
<!-- 6&#45;&gt;3 -->
<g id="edge12" class="edge"><title>6&#45;&gt;3</title>
<path fill="none" stroke="black" stroke-width="2" d="M167.082,-113.756C169.014,-121.495 171.246,-130.435 173.348,-138.854"/>
<polygon fill="black" stroke="black" stroke-width="2" points="170,-139.893 175.818,-148.747 176.791,-138.197 170,-139.893"/>
</g>
<!-- 6&#45;&gt;4 -->
<g id="edge14" class="edge"><title>6&#45;&gt;4</title>
<path fill="none" stroke="black" stroke-width="2" d="M155.079,-113.057C150.472,-126.789 144.299,-145.186 139.13,-160.591"/>
<polygon fill="black" stroke="black" stroke-width="2" points="135.768,-159.609 135.905,-170.203 142.404,-161.836 135.768,-159.609"/>
</g>
<!-- 7&#45;&gt;3 -->
<g id="edge13" class="edge"><title>7&#45;&gt;3</title>
<path fill="none" stroke="black" stroke-width="2" d="M121.657,-122.54C131.822,-130.565 144.936,-140.92 156.247,-149.85"/>
<polygon fill="black" stroke="black" stroke-width="2" points="154.079,-152.598 164.096,-156.048 158.417,-147.104 154.079,-152.598"/>
</g>
<!-- 7&#45;&gt;4 -->
<g id="edge15" class="edge"><title>7&#45;&gt;4</title>
<path fill="none" stroke="black" stroke-width="2" d="M110.895,-129.675C113.668,-138.907 116.999,-149.996 120.051,-160.156"/>
<polygon fill="black" stroke="black" stroke-width="2" points="116.75,-161.333 122.979,-169.903 123.454,-159.319 116.75,-161.333"/>
</g>
<!-- 7&#45;&gt;5 -->
<g id="edge16" class="edge"><title>7&#45;&gt;5</title>
<path fill="none" stroke="black" stroke-width="2" d="M84.5204,-102.371C74.5397,-99.0077 62.2986,-94.8832 51.2492,-91.1603"/>
<polygon fill="black" stroke="black" stroke-width="2" points="52.1301,-87.7638 41.536,-87.8875 49.8949,-94.3974 52.1301,-87.7638"/>
</g>
<!-- 7&#45;&gt;6 -->
<g id="edge17" class="edge"><title>7&#45;&gt;6</title>
<path fill="none" stroke="black" stroke-width="2" d="M125.362,-103.285C127.409,-102.7 129.515,-102.097 131.634,-101.491"/>
<polygon fill="black" stroke="black" stroke-width="2" points="132.809,-104.796 141.461,-98.6807 130.884,-98.0656 132.809,-104.796"/>
</g>
</g>
</svg>

