<?xml version="1.0" encoding="UTF-8" standalone="no"?>
<!DOCTYPE svg PUBLIC "-//W3C//DTD SVG 1.1//EN"
 "http://www.w3.org/Graphics/SVG/1.1/DTD/svg11.dtd">
<!-- Generated by graphviz version 2.36.0 (20140111.2315)
 -->
<!-- Title: G Pages: 1 -->
<svg width="100%" height="100%"
 viewBox="0.00 0.00 208.43 200.62" xmlns="http://www.w3.org/2000/svg" xmlns:xlink="http://www.w3.org/1999/xlink">
<g id="graph0" class="graph" transform="scale(1 1) rotate(0) translate(4 196.616)">
<title>G</title>
<!-- 0 -->
<g id="node1" class="node"><title>0</title>
<ellipse fill="cadetblue" stroke="black" cx="21.2132" cy="-58.6989" rx="21.4286" ry="21.4286"/>
<text text-anchor="middle" x="21.2132" y="-53.6989" font-family="Times New Roman,serif" font-size="20.00">2</text>
</g>
<!-- 5 -->
<g id="node6" class="node"><title>5</title>
<ellipse fill="cadetblue" stroke="black" cx="36.4722" cy="-120.972" rx="21.4286" ry="21.4286"/>
<text text-anchor="middle" x="36.4722" y="-115.972" font-family="Times New Roman,serif" font-size="20.00">2</text>
</g>
<!-- 0&#45;&gt;5 -->
<g id="edge3" class="edge"><title>0&#45;&gt;5</title>
<path fill="none" stroke="black" stroke-width="2" d="M26.2942,-79.4348C27.1347,-82.8646 28.0217,-86.4846 28.9075,-90.0998"/>
<polygon fill="black" stroke="black" stroke-width="2" points="25.5819,-91.2343 31.3614,-100.114 32.3808,-89.5682 25.5819,-91.2343"/>
</g>
<!-- 1 -->
<g id="node2" class="node"><title>1</title>
<ellipse fill="cadetblue" stroke="black" cx="150.325" cy="-163.199" rx="21.4286" ry="21.4286"/>
<text text-anchor="middle" x="150.325" y="-158.199" font-family="Times New Roman,serif" font-size="20.00">2</text>
</g>
<!-- 6 -->
<g id="node7" class="node"><title>6</title>
<ellipse fill="cadetblue" stroke="black" cx="179.215" cy="-103.277" rx="21.4286" ry="21.4286"/>
<text text-anchor="middle" x="179.215" y="-98.2769" font-family="Times New Roman,serif" font-size="20.00">2</text>
</g>
<!-- 1&#45;&gt;6 -->
<g id="edge6" class="edge"><title>1&#45;&gt;6</title>
<path fill="none" stroke="black" stroke-width="2" d="M159.625,-143.91C161.481,-140.061 163.467,-135.941 165.436,-131.856"/>
<polygon fill="black" stroke="black" stroke-width="2" points="168.742,-133.058 169.932,-122.53 162.437,-130.018 168.742,-133.058"/>
</g>
<!-- 7 -->
<g id="node8" class="node"><title>7</title>
<ellipse fill="brown" stroke="black" cx="109.287" cy="-103.786" rx="21.4286" ry="21.4286"/>
<text text-anchor="middle" x="109.287" y="-98.7858" font-family="Times New Roman,serif" font-size="20.00">3</text>
</g>
<!-- 1&#45;&gt;7 -->
<g id="edge7" class="edge"><title>1&#45;&gt;7</title>
<path fill="none" stroke="black" stroke-width="2" d="M138.234,-145.695C134.759,-140.663 130.893,-135.066 127.147,-129.643"/>
<polygon fill="black" stroke="black" stroke-width="2" points="129.997,-127.609 121.433,-121.371 124.237,-131.588 129.997,-127.609"/>
</g>
<!-- 2 -->
<g id="node3" class="node"><title>2</title>
<ellipse fill="cadetblue" stroke="black" cx="93.8817" cy="-21.2132" rx="21.4286" ry="21.4286"/>
<text text-anchor="middle" x="93.8817" y="-16.2132" font-family="Times New Roman,serif" font-size="20.00">2</text>
</g>
<!-- 2&#45;&gt;6 -->
<g id="edge10" class="edge"><title>2&#45;&gt;6</title>
<path fill="none" stroke="black" stroke-width="2" d="M107.973,-37.2481C114.766,-44.769 123.142,-53.7445 131.059,-61.4221 138.534,-68.6707 147.012,-76.2392 154.749,-82.9154"/>
<polygon fill="black" stroke="black" stroke-width="2" points="152.89,-85.9295 162.771,-89.7523 157.43,-80.6019 152.89,-85.9295"/>
</g>
<!-- 2&#45;&gt;7 -->
<g id="edge11" class="edge"><title>2&#45;&gt;7</title>
<path fill="none" stroke="black" stroke-width="2" d="M97.849,-42.4777C99.5693,-51.6986 101.618,-62.6776 103.502,-72.7797"/>
<polygon fill="black" stroke="black" stroke-width="2" points="100.112,-73.6908 105.387,-82.8792 106.993,-72.4069 100.112,-73.6908"/>
</g>
<!-- 3 -->
<g id="node4" class="node"><title>3</title>
<ellipse fill="cadetblue" stroke="black" cx="70.9521" cy="-171.403" rx="21.4286" ry="21.4286"/>
<text text-anchor="middle" x="70.9521" y="-166.403" font-family="Times New Roman,serif" font-size="20.00">2</text>
</g>
<!-- 3&#45;&gt;0 -->
<g id="edge1" class="edge"><title>3&#45;&gt;0</title>
<path fill="none" stroke="black" stroke-width="2" d="M68.5839,-150.117C67.2974,-141.066 65.4166,-130.459 62.7763,-121.089 60.3495,-112.476 59.6319,-110.202 55.1549,-102.455 51.3187,-95.8162 46.5787,-89.0675 41.8702,-82.9214"/>
<polygon fill="black" stroke="black" stroke-width="2" points="44.5201,-80.6303 35.5571,-74.9809 39.0408,-84.9866 44.5201,-80.6303"/>
</g>
<!-- 4 -->
<g id="node5" class="node"><title>4</title>
<ellipse fill="cadetblue" stroke="black" cx="149.842" cy="-43.0068" rx="21.4286" ry="21.4286"/>
<text text-anchor="middle" x="149.842" y="-38.0068" font-family="Times New Roman,serif" font-size="20.00">2</text>
</g>
<!-- 4&#45;&gt;0 -->
<g id="edge2" class="edge"><title>4&#45;&gt;0</title>
<path fill="none" stroke="black" stroke-width="2" d="M128.602,-45.5981C107.934,-48.1194 76.2833,-51.9806 52.69,-54.8589"/>
<polygon fill="black" stroke="black" stroke-width="2" points="51.9877,-51.4185 42.4852,-56.1038 52.8355,-58.367 51.9877,-51.4185"/>
</g>
<!-- 4&#45;&gt;1 -->
<g id="edge4" class="edge"><title>4&#45;&gt;1</title>
<path fill="none" stroke="black" stroke-width="2" d="M149.928,-64.4948C150.004,-83.2102 150.114,-110.589 150.199,-131.766"/>
<polygon fill="black" stroke="black" stroke-width="2" points="146.699,-131.911 150.239,-141.897 153.699,-131.883 146.699,-131.911"/>
</g>
<!-- 4&#45;&gt;2 -->
<g id="edge8" class="edge"><title>4&#45;&gt;2</title>
<path fill="none" stroke="black" stroke-width="2" d="M129.955,-35.2619C127.728,-34.3947 125.427,-33.4985 123.114,-32.5978"/>
<polygon fill="black" stroke="black" stroke-width="2" points="124.293,-29.3009 113.705,-28.9332 121.753,-35.8237 124.293,-29.3009"/>
</g>
<!-- 5&#45;&gt;1 -->
<g id="edge5" class="edge"><title>5&#45;&gt;1</title>
<path fill="none" stroke="black" stroke-width="2" d="M56.5647,-128.424C74.368,-135.027 100.594,-144.754 120.786,-152.243"/>
<polygon fill="black" stroke="black" stroke-width="2" points="119.84,-155.625 130.433,-155.821 122.275,-149.062 119.84,-155.625"/>
</g>
<!-- 5&#45;&gt;2 -->
<g id="edge9" class="edge"><title>5&#45;&gt;2</title>
<path fill="none" stroke="black" stroke-width="2" d="M47.2705,-102.208C55.9307,-87.1593 68.2114,-65.8196 77.9933,-48.8218"/>
<polygon fill="black" stroke="black" stroke-width="2" points="81.1774,-50.3059 83.1318,-39.8929 75.1104,-46.8143 81.1774,-50.3059"/>
</g>
<!-- 6&#45;&gt;3 -->
<g id="edge12" class="edge"><title>6&#45;&gt;3</title>
<path fill="none" stroke="black" stroke-width="2" d="M160.85,-114.834C143.481,-125.763 117.22,-142.288 97.5594,-154.66"/>
<polygon fill="black" stroke="black" stroke-width="2" points="95.6459,-151.729 89.0462,-160.017 99.374,-157.653 95.6459,-151.729"/>
</g>
<!-- 6&#45;&gt;4 -->
<g id="edge14" class="edge"><title>6&#45;&gt;4</title>
<path fill="none" stroke="black" stroke-width="2" d="M169.921,-84.207C167.939,-80.1398 165.804,-75.7602 163.693,-71.428"/>
<polygon fill="black" stroke="black" stroke-width="2" points="166.703,-69.6154 159.176,-62.1595 160.411,-72.6821 166.703,-69.6154"/>
</g>
<!-- 6&#45;&gt;7 -->
<g id="edge17" class="edge"><title>6&#45;&gt;7</title>
<path fill="none" stroke="black" stroke-width="2" d="M157.854,-103.432C152.432,-103.472 146.493,-103.515 140.686,-103.557"/>
<polygon fill="black" stroke="black" stroke-width="2" points="140.491,-100.058 130.517,-103.631 140.542,-107.058 140.491,-100.058"/>
</g>
<!-- 7&#45;&gt;3 -->
<g id="edge13" class="edge"><title>7&#45;&gt;3</title>
<path fill="none" stroke="black" stroke-width="2" d="M98.812,-122.262C95.0087,-128.971 90.6261,-136.701 86.4795,-144.015"/>
<polygon fill="black" stroke="black" stroke-width="2" points="83.302,-142.523 81.4147,-152.949 89.3914,-145.976 83.302,-142.523"/>
</g>
<!-- 7&#45;&gt;4 -->
<g id="edge15" class="edge"><title>7&#45;&gt;4</title>
<path fill="none" stroke="black" stroke-width="2" d="M121.236,-85.8788C124.67,-80.7314 128.491,-75.0058 132.192,-69.4582"/>
<polygon fill="black" stroke="black" stroke-width="2" points="135.2,-71.2568 137.839,-60.9958 129.377,-67.3715 135.2,-71.2568"/>
</g>
<!-- 7&#45;&gt;5 -->
<g id="edge16" class="edge"><title>7&#45;&gt;5</title>
<path fill="none" stroke="black" stroke-width="2" d="M88.6162,-108.665C81.929,-110.243 74.3647,-112.028 67.1135,-113.74"/>
<polygon fill="black" stroke="black" stroke-width="2" points="66.1236,-110.377 57.195,-116.081 67.7316,-117.19 66.1236,-110.377"/>
</g>
</g>
</svg>

