<?xml version="1.0" encoding="UTF-8" standalone="no"?>
<!DOCTYPE svg PUBLIC "-//W3C//DTD SVG 1.1//EN"
 "http://www.w3.org/Graphics/SVG/1.1/DTD/svg11.dtd">
<!-- Generated by graphviz version 2.36.0 (20140111.2315)
 -->
<!-- Title: G Pages: 1 -->
<svg width="100%" height="100%"
 viewBox="0.00 0.00 283.18 198.93" xmlns="http://www.w3.org/2000/svg" xmlns:xlink="http://www.w3.org/1999/xlink">
<g id="graph0" class="graph" transform="scale(1 1) rotate(0) translate(4 194.93)">
<title>G</title>
<!-- 0 -->
<g id="node1" class="node"><title>0</title>
<ellipse fill="cadetblue" stroke="black" cx="194.267" cy="-169.717" rx="21.4286" ry="21.4286"/>
<text text-anchor="middle" x="194.267" y="-164.717" font-family="Times New Roman,serif" font-size="20.00">2</text>
</g>
<!-- 6 -->
<g id="node7" class="node"><title>6</title>
<ellipse fill="cadetblue" stroke="black" cx="187.784" cy="-103.575" rx="21.4286" ry="21.4286"/>
<text text-anchor="middle" x="187.784" y="-98.5754" font-family="Times New Roman,serif" font-size="20.00">2</text>
</g>
<!-- 0&#45;&gt;6 -->
<g id="edge3" class="edge"><title>0&#45;&gt;6</title>
<path fill="none" stroke="black" stroke-width="2" d="M192.18,-148.425C191.763,-144.177 191.318,-139.63 190.876,-135.121"/>
<polygon fill="black" stroke="black" stroke-width="2" points="194.326,-134.438 189.867,-124.827 187.359,-135.121 194.326,-134.438"/>
</g>
<!-- 7 -->
<g id="node8" class="node"><title>7</title>
<ellipse fill="brown" stroke="black" cx="115.24" cy="-99.7066" rx="21.4286" ry="21.4286"/>
<text text-anchor="middle" x="115.24" y="-94.7066" font-family="Times New Roman,serif" font-size="20.00">3</text>
</g>
<!-- 0&#45;&gt;7 -->
<g id="edge4" class="edge"><title>0&#45;&gt;7</title>
<path fill="none" stroke="black" stroke-width="2" d="M178.275,-155.549C166.92,-145.49 151.492,-131.823 138.741,-120.527"/>
<polygon fill="black" stroke="black" stroke-width="2" points="141.014,-117.865 131.208,-113.853 136.373,-123.104 141.014,-117.865"/>
</g>
<!-- 1 -->
<g id="node2" class="node"><title>1</title>
<ellipse fill="cadetblue" stroke="black" cx="21.2132" cy="-127.623" rx="21.4286" ry="21.4286"/>
<text text-anchor="middle" x="21.2132" y="-122.623" font-family="Times New Roman,serif" font-size="20.00">2</text>
</g>
<!-- 1&#45;&gt;7 -->
<g id="edge7" class="edge"><title>1&#45;&gt;7</title>
<path fill="none" stroke="black" stroke-width="2" d="M41.6156,-121.565C54.3066,-117.797 70.8553,-112.884 85.048,-108.67"/>
<polygon fill="black" stroke="black" stroke-width="2" points="86.287,-111.954 94.8773,-105.752 84.2947,-105.243 86.287,-111.954"/>
</g>
<!-- 2 -->
<g id="node3" class="node"><title>2</title>
<ellipse fill="cadetblue" stroke="black" cx="163.135" cy="-21.2132" rx="21.4286" ry="21.4286"/>
<text text-anchor="middle" x="163.135" y="-16.2132" font-family="Times New Roman,serif" font-size="20.00">2</text>
</g>
<!-- 4 -->
<g id="node5" class="node"><title>4</title>
<ellipse fill="cadetblue" stroke="black" cx="253.97" cy="-76.1108" rx="21.4286" ry="21.4286"/>
<text text-anchor="middle" x="253.97" y="-71.1108" font-family="Times New Roman,serif" font-size="20.00">2</text>
</g>
<!-- 2&#45;&gt;4 -->
<g id="edge8" class="edge"><title>2&#45;&gt;4</title>
<path fill="none" stroke="black" stroke-width="2" d="M181.517,-32.3225C194.568,-40.21 212.301,-50.9276 226.957,-59.7851"/>
<polygon fill="black" stroke="black" stroke-width="2" points="225.246,-62.8409 235.615,-65.018 228.867,-56.85 225.246,-62.8409"/>
</g>
<!-- 2&#45;&gt;7 -->
<g id="edge11" class="edge"><title>2&#45;&gt;7</title>
<path fill="none" stroke="black" stroke-width="2" d="M152.027,-39.4185C146.025,-49.2546 138.495,-61.5941 131.814,-72.5433"/>
<polygon fill="black" stroke="black" stroke-width="2" points="128.675,-70.9687 126.454,-81.3282 134.651,-74.6149 128.675,-70.9687"/>
</g>
<!-- 3 -->
<g id="node4" class="node"><title>3</title>
<ellipse fill="cadetblue" stroke="black" cx="101.845" cy="-161.459" rx="21.4286" ry="21.4286"/>
<text text-anchor="middle" x="101.845" y="-156.459" font-family="Times New Roman,serif" font-size="20.00">2</text>
</g>
<!-- 3&#45;&gt;0 -->
<g id="edge1" class="edge"><title>3&#45;&gt;0</title>
<path fill="none" stroke="black" stroke-width="2" d="M123.281,-163.374C135.062,-164.427 149.894,-165.752 162.95,-166.919"/>
<polygon fill="black" stroke="black" stroke-width="2" points="162.675,-170.408 172.947,-167.812 163.298,-163.436 162.675,-170.408"/>
</g>
<!-- 3&#45;&gt;1 -->
<g id="edge5" class="edge"><title>3&#45;&gt;1</title>
<path fill="none" stroke="black" stroke-width="2" d="M81.9134,-153.095C72.3444,-149.079 60.6963,-144.191 50.1723,-139.775"/>
<polygon fill="black" stroke="black" stroke-width="2" points="51.4907,-136.533 40.9153,-135.89 48.782,-142.987 51.4907,-136.533"/>
</g>
<!-- 5 -->
<g id="node6" class="node"><title>5</title>
<ellipse fill="cadetblue" stroke="black" cx="64.8084" cy="-52.6691" rx="21.4286" ry="21.4286"/>
<text text-anchor="middle" x="64.8084" y="-47.6691" font-family="Times New Roman,serif" font-size="20.00">2</text>
</g>
<!-- 3&#45;&gt;5 -->
<g id="edge12" class="edge"><title>3&#45;&gt;5</title>
<path fill="none" stroke="black" stroke-width="2" d="M94.9653,-141.251C89.3264,-124.688 81.2663,-101.012 74.8972,-82.3039"/>
<polygon fill="black" stroke="black" stroke-width="2" points="78.1871,-81.107 71.651,-72.7685 71.5606,-83.363 78.1871,-81.107"/>
</g>
<!-- 4&#45;&gt;0 -->
<g id="edge2" class="edge"><title>4&#45;&gt;0</title>
<path fill="none" stroke="black" stroke-width="2" d="M242.458,-94.159C233.621,-108.015 221.282,-127.361 211.302,-143.008"/>
<polygon fill="black" stroke="black" stroke-width="2" points="208.169,-141.411 205.743,-151.724 214.071,-145.175 208.169,-141.411"/>
</g>
<!-- 5&#45;&gt;1 -->
<g id="edge6" class="edge"><title>5&#45;&gt;1</title>
<path fill="none" stroke="black" stroke-width="2" d="M54.032,-71.1969C48.9494,-79.9356 42.7818,-90.5396 37.1714,-100.186"/>
<polygon fill="black" stroke="black" stroke-width="2" points="34.019,-98.6442 32.0167,-109.048 40.0699,-102.164 34.019,-98.6442"/>
</g>
<!-- 5&#45;&gt;2 -->
<g id="edge9" class="edge"><title>5&#45;&gt;2</title>
<path fill="none" stroke="black" stroke-width="2" d="M85.1817,-46.1514C99.0248,-41.7229 117.57,-35.7901 133.099,-30.8223"/>
<polygon fill="black" stroke="black" stroke-width="2" points="134.33,-34.1032 142.788,-27.7225 132.197,-27.436 134.33,-34.1032"/>
</g>
<!-- 6&#45;&gt;2 -->
<g id="edge10" class="edge"><title>6&#45;&gt;2</title>
<path fill="none" stroke="black" stroke-width="2" d="M181.691,-83.2162C178.817,-73.6137 175.33,-61.9616 172.158,-51.3622"/>
<polygon fill="black" stroke="black" stroke-width="2" points="175.464,-50.2003 169.243,-41.6236 168.757,-52.2073 175.464,-50.2003"/>
</g>
<!-- 6&#45;&gt;3 -->
<g id="edge13" class="edge"><title>6&#45;&gt;3</title>
<path fill="none" stroke="black" stroke-width="2" d="M169.977,-115.569C157.878,-123.718 141.67,-134.635 128.097,-143.777"/>
<polygon fill="black" stroke="black" stroke-width="2" points="125.967,-140.992 119.629,-149.481 129.878,-146.797 125.967,-140.992"/>
</g>
<!-- 6&#45;&gt;4 -->
<g id="edge15" class="edge"><title>6&#45;&gt;4</title>
<path fill="none" stroke="black" stroke-width="2" d="M207.642,-95.3351C213.008,-93.1082 218.931,-90.6506 224.696,-88.2581"/>
<polygon fill="black" stroke="black" stroke-width="2" points="226.231,-91.4108 234.126,-84.3453 223.548,-84.9453 226.231,-91.4108"/>
</g>
<!-- 7&#45;&gt;3 -->
<g id="edge14" class="edge"><title>7&#45;&gt;3</title>
<path fill="none" stroke="black" stroke-width="2" d="M110.705,-120.613C110.007,-123.832 109.273,-127.213 108.54,-130.594"/>
<polygon fill="black" stroke="black" stroke-width="2" points="105.075,-130.059 106.375,-140.574 111.915,-131.543 105.075,-130.059"/>
</g>
<!-- 7&#45;&gt;5 -->
<g id="edge16" class="edge"><title>7&#45;&gt;5</title>
<path fill="none" stroke="black" stroke-width="2" d="M99.5594,-85.0815C95.8945,-81.6632 91.9144,-77.951 87.9998,-74.2998"/>
<polygon fill="black" stroke="black" stroke-width="2" points="90.3529,-71.7084 80.6527,-67.4472 85.5784,-76.8274 90.3529,-71.7084"/>
</g>
<!-- 7&#45;&gt;6 -->
<g id="edge17" class="edge"><title>7&#45;&gt;6</title>
<path fill="none" stroke="black" stroke-width="2" d="M136.613,-100.846C142.757,-101.174 149.591,-101.539 156.212,-101.892"/>
<polygon fill="black" stroke="black" stroke-width="2" points="156.14,-105.393 166.313,-102.43 156.513,-98.4026 156.14,-105.393"/>
</g>
</g>
</svg>

