<?xml version="1.0" encoding="UTF-8" standalone="no"?>
<!DOCTYPE svg PUBLIC "-//W3C//DTD SVG 1.1//EN"
 "http://www.w3.org/Graphics/SVG/1.1/DTD/svg11.dtd">
<!-- Generated by graphviz version 2.36.0 (20140111.2315)
 -->
<!-- Title: G Pages: 1 -->
<svg width="100%" height="100%"
 viewBox="0.00 0.00 214.28 224.01" xmlns="http://www.w3.org/2000/svg" xmlns:xlink="http://www.w3.org/1999/xlink">
<g id="graph0" class="graph" transform="scale(1 1) rotate(0) translate(4 220.014)">
<title>G</title>
<!-- 0 -->
<g id="node1" class="node"><title>0</title>
<ellipse fill="cadetblue" stroke="black" cx="86.5966" cy="-194.801" rx="21.4286" ry="21.4286"/>
<text text-anchor="middle" x="86.5966" y="-189.801" font-family="Times New Roman,serif" font-size="20.00">2</text>
</g>
<!-- 7 -->
<g id="node8" class="node"><title>7</title>
<ellipse fill="brown" stroke="black" cx="73.0403" cy="-97.7335" rx="21.4286" ry="21.4286"/>
<text text-anchor="middle" x="73.0403" y="-92.7335" font-family="Times New Roman,serif" font-size="20.00">3</text>
</g>
<!-- 0&#45;&gt;7 -->
<g id="edge3" class="edge"><title>0&#45;&gt;7</title>
<path fill="none" stroke="black" stroke-width="2" d="M83.6551,-173.739C81.8254,-160.637 79.4394,-143.553 77.3932,-128.902"/>
<polygon fill="black" stroke="black" stroke-width="2" points="80.8257,-128.174 75.9761,-118.755 73.893,-129.143 80.8257,-128.174"/>
</g>
<!-- 1 -->
<g id="node2" class="node"><title>1</title>
<ellipse fill="cadetblue" stroke="black" cx="76.9793" cy="-21.2132" rx="21.4286" ry="21.4286"/>
<text text-anchor="middle" x="76.9793" y="-16.2132" font-family="Times New Roman,serif" font-size="20.00">2</text>
</g>
<!-- 6 -->
<g id="node7" class="node"><title>6</title>
<ellipse fill="cadetblue" stroke="black" cx="132.929" cy="-102.934" rx="21.4286" ry="21.4286"/>
<text text-anchor="middle" x="132.929" y="-97.9342" font-family="Times New Roman,serif" font-size="20.00">2</text>
</g>
<!-- 1&#45;&gt;6 -->
<g id="edge6" class="edge"><title>1&#45;&gt;6</title>
<path fill="none" stroke="black" stroke-width="2" d="M89.1195,-38.9454C96.6712,-49.9756 106.518,-64.3585 114.963,-76.6937"/>
<polygon fill="black" stroke="black" stroke-width="2" points="112.275,-78.9624 120.812,-85.2366 118.051,-75.0079 112.275,-78.9624"/>
</g>
<!-- 1&#45;&gt;7 -->
<g id="edge7" class="edge"><title>1&#45;&gt;7</title>
<path fill="none" stroke="black" stroke-width="2" d="M75.8821,-42.5284C75.5022,-49.9079 75.0681,-58.3415 74.6554,-66.358"/>
<polygon fill="black" stroke="black" stroke-width="2" points="71.1504,-66.3659 74.1316,-76.5326 78.1412,-66.7258 71.1504,-66.3659"/>
</g>
<!-- 2 -->
<g id="node3" class="node"><title>2</title>
<ellipse fill="cadetblue" stroke="black" cx="151.497" cy="-42.8055" rx="21.4286" ry="21.4286"/>
<text text-anchor="middle" x="151.497" y="-37.8055" font-family="Times New Roman,serif" font-size="20.00">2</text>
</g>
<!-- 4 -->
<g id="node5" class="node"><title>4</title>
<ellipse fill="cadetblue" stroke="black" cx="185.065" cy="-152.428" rx="21.4286" ry="21.4286"/>
<text text-anchor="middle" x="185.065" y="-147.428" font-family="Times New Roman,serif" font-size="20.00">2</text>
</g>
<!-- 2&#45;&gt;4 -->
<g id="edge8" class="edge"><title>2&#45;&gt;4</title>
<path fill="none" stroke="black" stroke-width="2" d="M157.732,-63.1678C162.811,-79.7531 170.056,-103.415 175.812,-122.21"/>
<polygon fill="black" stroke="black" stroke-width="2" points="172.474,-123.266 178.749,-131.803 179.168,-121.216 172.474,-123.266"/>
</g>
<!-- 2&#45;&gt;7 -->
<g id="edge11" class="edge"><title>2&#45;&gt;7</title>
<path fill="none" stroke="black" stroke-width="2" d="M134.085,-54.9958C123.796,-62.199 110.572,-71.4575 99.0636,-79.5144"/>
<polygon fill="black" stroke="black" stroke-width="2" points="96.8596,-76.7849 90.675,-85.3873 100.874,-82.5192 96.8596,-76.7849"/>
</g>
<!-- 3 -->
<g id="node4" class="node"><title>3</title>
<ellipse fill="cadetblue" stroke="black" cx="22.6088" cy="-120.971" rx="21.4286" ry="21.4286"/>
<text text-anchor="middle" x="22.6088" y="-115.971" font-family="Times New Roman,serif" font-size="20.00">2</text>
</g>
<!-- 3&#45;&gt;0 -->
<g id="edge1" class="edge"><title>3&#45;&gt;0</title>
<path fill="none" stroke="black" stroke-width="2" d="M36.8098,-137.357C45.4019,-147.27 56.5042,-160.08 66.0437,-171.087"/>
<polygon fill="black" stroke="black" stroke-width="2" points="63.4611,-173.451 72.6555,-178.715 68.7509,-168.866 63.4611,-173.451"/>
</g>
<!-- 3&#45;&gt;1 -->
<g id="edge4" class="edge"><title>3&#45;&gt;1</title>
<path fill="none" stroke="black" stroke-width="2" d="M32.8355,-102.208C41.0372,-87.1593 52.6679,-65.8195 61.932,-48.8218"/>
<polygon fill="black" stroke="black" stroke-width="2" points="65.086,-50.3484 66.7985,-39.8928 58.9396,-46.9984 65.086,-50.3484"/>
</g>
<!-- 5 -->
<g id="node6" class="node"><title>5</title>
<ellipse fill="cadetblue" stroke="black" cx="21.2132" cy="-33.2439" rx="21.4286" ry="21.4286"/>
<text text-anchor="middle" x="21.2132" y="-28.2439" font-family="Times New Roman,serif" font-size="20.00">2</text>
</g>
<!-- 3&#45;&gt;5 -->
<g id="edge12" class="edge"><title>3&#45;&gt;5</title>
<path fill="none" stroke="black" stroke-width="2" d="M22.271,-99.7351C22.1042,-89.2525 21.8997,-76.3957 21.7151,-64.7906"/>
<polygon fill="black" stroke="black" stroke-width="2" points="25.2115,-64.5318 21.5528,-54.5888 18.2124,-64.6432 25.2115,-64.5318"/>
</g>
<!-- 4&#45;&gt;0 -->
<g id="edge2" class="edge"><title>4&#45;&gt;0</title>
<path fill="none" stroke="black" stroke-width="2" d="M165.138,-161.003C150.898,-167.131 131.514,-175.472 115.566,-182.334"/>
<polygon fill="black" stroke="black" stroke-width="2" points="113.96,-179.215 106.157,-186.383 116.727,-185.645 113.96,-179.215"/>
</g>
<!-- 5&#45;&gt;1 -->
<g id="edge5" class="edge"><title>5&#45;&gt;1</title>
<path fill="none" stroke="black" stroke-width="2" d="M41.9784,-28.7641C43.2674,-28.486 44.5782,-28.2032 45.8986,-27.9184"/>
<polygon fill="black" stroke="black" stroke-width="2" points="46.9737,-31.267 56.0107,-25.7368 45.4975,-24.4245 46.9737,-31.267"/>
</g>
<!-- 5&#45;&gt;2 -->
<g id="edge9" class="edge"><title>5&#45;&gt;2</title>
<path fill="none" stroke="black" stroke-width="2" d="M41.5618,-40.0977C51.9859,-43.1876 64.9631,-46.3941 76.8834,-47.5174 91.0565,-48.853 106.781,-48.1793 120.126,-46.9728"/>
<polygon fill="black" stroke="black" stroke-width="2" points="120.659,-50.4363 130.243,-45.9192 119.934,-43.4739 120.659,-50.4363"/>
</g>
<!-- 6&#45;&gt;2 -->
<g id="edge10" class="edge"><title>6&#45;&gt;2</title>
<path fill="none" stroke="black" stroke-width="2" d="M139.215,-82.5774C140.183,-79.443 141.2,-76.1508 142.216,-72.8589"/>
<polygon fill="black" stroke="black" stroke-width="2" points="145.611,-73.7289 145.217,-63.1414 138.922,-71.6635 145.611,-73.7289"/>
</g>
<!-- 6&#45;&gt;3 -->
<g id="edge13" class="edge"><title>6&#45;&gt;3</title>
<path fill="none" stroke="black" stroke-width="2" d="M113.465,-112.019C101.986,-116.806 87.0138,-122.082 73.0391,-124.038 66.9176,-124.894 60.345,-125.047 54.0334,-124.818"/>
<polygon fill="black" stroke="black" stroke-width="2" points="53.9957,-121.308 43.7838,-124.131 53.527,-128.292 53.9957,-121.308"/>
</g>
<!-- 6&#45;&gt;4 -->
<g id="edge15" class="edge"><title>6&#45;&gt;4</title>
<path fill="none" stroke="black" stroke-width="2" d="M148.571,-117.784C152.799,-121.797 157.464,-126.226 162.006,-130.537"/>
<polygon fill="black" stroke="black" stroke-width="2" points="159.771,-133.242 169.433,-137.589 164.59,-128.165 159.771,-133.242"/>
</g>
<!-- 7&#45;&gt;3 -->
<g id="edge14" class="edge"><title>7&#45;&gt;3</title>
<path fill="none" stroke="black" stroke-width="2" d="M53.6864,-106.651C52.9781,-106.978 52.2632,-107.307 51.5443,-107.638"/>
<polygon fill="black" stroke="black" stroke-width="2" points="49.7786,-104.598 42.1611,-111.962 52.708,-110.956 49.7786,-104.598"/>
</g>
<!-- 7&#45;&gt;5 -->
<g id="edge16" class="edge"><title>7&#45;&gt;5</title>
<path fill="none" stroke="black" stroke-width="2" d="M59.6935,-81.1258C54.055,-74.1097 47.3691,-65.7902 41.1652,-58.0706"/>
<polygon fill="black" stroke="black" stroke-width="2" points="43.6874,-55.6217 34.6949,-50.0194 38.231,-60.0067 43.6874,-55.6217"/>
</g>
<!-- 7&#45;&gt;6 -->
<g id="edge17" class="edge"><title>7&#45;&gt;6</title>
<path fill="none" stroke="black" stroke-width="2" d="M94.3234,-99.5817C96.7062,-99.7886 99.1691,-100.003 101.644,-100.217"/>
<polygon fill="black" stroke="black" stroke-width="2" points="101.449,-103.714 111.714,-101.092 102.055,-96.7398 101.449,-103.714"/>
</g>
</g>
</svg>

