<?xml version="1.0" encoding="UTF-8" standalone="no"?>
<!DOCTYPE svg PUBLIC "-//W3C//DTD SVG 1.1//EN"
 "http://www.w3.org/Graphics/SVG/1.1/DTD/svg11.dtd">
<!-- Generated by graphviz version 2.36.0 (20140111.2315)
 -->
<!-- Title: G Pages: 1 -->
<svg width="100%" height="100%"
 viewBox="0.00 0.00 290.56 189.14" xmlns="http://www.w3.org/2000/svg" xmlns:xlink="http://www.w3.org/1999/xlink">
<g id="graph0" class="graph" transform="scale(1 1) rotate(0) translate(4 185.144)">
<title>G</title>
<!-- 0 -->
<g id="node1" class="node"><title>0</title>
<ellipse fill="cadetblue" stroke="black" cx="173.801" cy="-90.4132" rx="21.4286" ry="21.4286"/>
<text text-anchor="middle" x="173.801" y="-85.4132" font-family="Times New Roman,serif" font-size="20.00">2</text>
</g>
<!-- 6 -->
<g id="node7" class="node"><title>6</title>
<ellipse fill="cadetblue" stroke="black" cx="119.156" cy="-21.2132" rx="21.4286" ry="21.4286"/>
<text text-anchor="middle" x="119.156" y="-16.2132" font-family="Times New Roman,serif" font-size="20.00">2</text>
</g>
<!-- 0&#45;&gt;6 -->
<g id="edge3" class="edge"><title>0&#45;&gt;6</title>
<path fill="none" stroke="black" stroke-width="2" d="M160.573,-73.6618C154.091,-65.4544 146.153,-55.4017 138.967,-46.301"/>
<polygon fill="black" stroke="black" stroke-width="2" points="141.586,-43.9701 132.641,-38.2911 136.092,-48.3083 141.586,-43.9701"/>
</g>
<!-- 7 -->
<g id="node8" class="node"><title>7</title>
<ellipse fill="brown" stroke="black" cx="68.7242" cy="-65.7044" rx="21.4286" ry="21.4286"/>
<text text-anchor="middle" x="68.7242" y="-60.7044" font-family="Times New Roman,serif" font-size="20.00">3</text>
</g>
<!-- 0&#45;&gt;7 -->
<g id="edge4" class="edge"><title>0&#45;&gt;7</title>
<path fill="none" stroke="black" stroke-width="2" d="M153.041,-85.5316C137.786,-81.9443 116.805,-77.0106 99.5888,-72.9623"/>
<polygon fill="black" stroke="black" stroke-width="2" points="99.9765,-69.458 89.4408,-70.576 98.3741,-76.2722 99.9765,-69.458"/>
</g>
<!-- 1 -->
<g id="node2" class="node"><title>1</title>
<ellipse fill="cadetblue" stroke="black" cx="21.2132" cy="-116.768" rx="21.4286" ry="21.4286"/>
<text text-anchor="middle" x="21.2132" y="-111.768" font-family="Times New Roman,serif" font-size="20.00">2</text>
</g>
<!-- 1&#45;&gt;6 -->
<g id="edge7" class="edge"><title>1&#45;&gt;6</title>
<path fill="none" stroke="black" stroke-width="2" d="M41.7945,-110.567C56.0184,-105.423 74.597,-96.8947 87.3233,-84.3053 96.7268,-75.003 103.856,-62.3458 108.958,-50.8094"/>
<polygon fill="black" stroke="black" stroke-width="2" points="112.227,-52.0614 112.773,-41.4806 105.748,-49.4118 112.227,-52.0614"/>
</g>
<!-- 1&#45;&gt;7 -->
<g id="edge8" class="edge"><title>1&#45;&gt;7</title>
<path fill="none" stroke="black" stroke-width="2" d="M35.7262,-101.17C39.2517,-97.3808 43.0988,-93.2459 46.881,-89.181"/>
<polygon fill="black" stroke="black" stroke-width="2" points="49.7227,-91.2649 53.9722,-81.5596 44.5979,-86.4966 49.7227,-91.2649"/>
</g>
<!-- 2 -->
<g id="node3" class="node"><title>2</title>
<ellipse fill="cadetblue" stroke="black" cx="241.204" cy="-52.4929" rx="21.4286" ry="21.4286"/>
<text text-anchor="middle" x="241.204" y="-47.4929" font-family="Times New Roman,serif" font-size="20.00">2</text>
</g>
<!-- 4 -->
<g id="node5" class="node"><title>4</title>
<ellipse fill="cadetblue" stroke="black" cx="261.351" cy="-155.752" rx="21.4286" ry="21.4286"/>
<text text-anchor="middle" x="261.351" y="-150.752" font-family="Times New Roman,serif" font-size="20.00">2</text>
</g>
<!-- 2&#45;&gt;4 -->
<g id="edge9" class="edge"><title>2&#45;&gt;4</title>
<path fill="none" stroke="black" stroke-width="2" d="M245.281,-73.3889C248.176,-88.2248 252.109,-108.384 255.36,-125.045"/>
<polygon fill="black" stroke="black" stroke-width="2" points="251.93,-125.743 257.28,-134.887 258.8,-124.402 251.93,-125.743"/>
</g>
<!-- 3 -->
<g id="node4" class="node"><title>3</title>
<ellipse fill="cadetblue" stroke="black" cx="81.9305" cy="-154.727" rx="21.4286" ry="21.4286"/>
<text text-anchor="middle" x="81.9305" y="-149.727" font-family="Times New Roman,serif" font-size="20.00">2</text>
</g>
<!-- 3&#45;&gt;0 -->
<g id="edge1" class="edge"><title>3&#45;&gt;0</title>
<path fill="none" stroke="black" stroke-width="2" d="M99.644,-142.327C113.243,-132.807 132.23,-119.515 147.587,-108.764"/>
<polygon fill="black" stroke="black" stroke-width="2" points="149.957,-111.378 156.142,-102.776 145.942,-105.643 149.957,-111.378"/>
</g>
<!-- 3&#45;&gt;1 -->
<g id="edge5" class="edge"><title>3&#45;&gt;1</title>
<path fill="none" stroke="black" stroke-width="2" d="M63.7133,-143.338C58.7902,-140.261 53.3571,-136.864 48.0678,-133.557"/>
<polygon fill="black" stroke="black" stroke-width="2" points="49.7522,-130.482 39.4175,-128.149 46.0414,-136.418 49.7522,-130.482"/>
</g>
<!-- 5 -->
<g id="node6" class="node"><title>5</title>
<ellipse fill="cadetblue" stroke="black" cx="155.133" cy="-159.931" rx="21.4286" ry="21.4286"/>
<text text-anchor="middle" x="155.133" y="-154.931" font-family="Times New Roman,serif" font-size="20.00">2</text>
</g>
<!-- 3&#45;&gt;5 -->
<g id="edge12" class="edge"><title>3&#45;&gt;5</title>
<path fill="none" stroke="black" stroke-width="2" d="M103.104,-156.232C109.422,-156.681 116.49,-157.184 123.332,-157.67"/>
<polygon fill="black" stroke="black" stroke-width="2" points="123.531,-161.193 133.754,-158.411 124.027,-154.211 123.531,-161.193"/>
</g>
<!-- 4&#45;&gt;0 -->
<g id="edge2" class="edge"><title>4&#45;&gt;0</title>
<path fill="none" stroke="black" stroke-width="2" d="M244.054,-142.843C231.223,-133.268 213.531,-120.064 199.112,-109.303"/>
<polygon fill="black" stroke="black" stroke-width="2" points="201.169,-106.471 191.062,-103.295 196.983,-112.081 201.169,-106.471"/>
</g>
<!-- 5&#45;&gt;1 -->
<g id="edge6" class="edge"><title>5&#45;&gt;1</title>
<path fill="none" stroke="black" stroke-width="2" d="M136.024,-150.26C121.521,-143.279 100.913,-134.115 81.9741,-128.423 72.4558,-125.563 61.8801,-123.247 52.2549,-121.457"/>
<polygon fill="black" stroke="black" stroke-width="2" points="52.731,-117.987 42.2786,-119.719 51.5296,-124.883 52.731,-117.987"/>
</g>
<!-- 5&#45;&gt;2 -->
<g id="edge10" class="edge"><title>5&#45;&gt;2</title>
<path fill="none" stroke="black" stroke-width="2" d="M168.582,-143.143C182.794,-125.404 205.349,-97.2492 221.553,-77.0229"/>
<polygon fill="black" stroke="black" stroke-width="2" points="224.329,-79.1549 227.85,-69.1621 218.866,-74.7782 224.329,-79.1549"/>
</g>
<!-- 5&#45;&gt;4 -->
<g id="edge15" class="edge"><title>5&#45;&gt;4</title>
<path fill="none" stroke="black" stroke-width="2" d="M176.373,-159.095C191.714,-158.492 212.686,-157.667 229.956,-156.987"/>
<polygon fill="black" stroke="black" stroke-width="2" points="230.293,-160.477 240.148,-156.586 230.018,-153.482 230.293,-160.477"/>
</g>
<!-- 6&#45;&gt;2 -->
<g id="edge11" class="edge"><title>6&#45;&gt;2</title>
<path fill="none" stroke="black" stroke-width="2" d="M139.86,-26.5194C159.234,-31.4849 188.424,-38.9659 210.508,-44.6258"/>
<polygon fill="black" stroke="black" stroke-width="2" points="209.843,-48.0684 220.399,-47.1607 211.581,-41.2875 209.843,-48.0684"/>
</g>
<!-- 6&#45;&gt;3 -->
<g id="edge13" class="edge"><title>6&#45;&gt;3</title>
<path fill="none" stroke="black" stroke-width="2" d="M113.421,-41.7822C107.291,-63.7695 97.5046,-98.8684 90.4682,-124.105"/>
<polygon fill="black" stroke="black" stroke-width="2" points="87.0475,-123.342 87.7332,-133.915 93.7903,-125.222 87.0475,-123.342"/>
</g>
<!-- 6&#45;&gt;7 -->
<g id="edge17" class="edge"><title>6&#45;&gt;7</title>
<path fill="none" stroke="black" stroke-width="2" d="M103.199,-35.2905C99.7955,-38.293 96.1308,-41.526 92.5058,-44.724"/>
<polygon fill="black" stroke="black" stroke-width="2" points="89.9338,-42.3257 84.7503,-51.566 94.5647,-47.575 89.9338,-42.3257"/>
</g>
<!-- 7&#45;&gt;3 -->
<g id="edge14" class="edge"><title>7&#45;&gt;3</title>
<path fill="none" stroke="black" stroke-width="2" d="M71.8539,-86.8016C73.4703,-97.6979 75.475,-111.211 77.2695,-123.308"/>
<polygon fill="black" stroke="black" stroke-width="2" points="73.8479,-124.095 78.7775,-133.473 80.7721,-123.068 73.8479,-124.095"/>
</g>
<!-- 7&#45;&gt;5 -->
<g id="edge16" class="edge"><title>7&#45;&gt;5</title>
<path fill="none" stroke="black" stroke-width="2" d="M83.3823,-81.6886C97.245,-96.8055 118.205,-119.662 133.897,-136.773"/>
<polygon fill="black" stroke="black" stroke-width="2" points="131.353,-139.178 140.691,-144.182 136.512,-134.447 131.353,-139.178"/>
</g>
</g>
</svg>

