<?xml version="1.0" encoding="UTF-8" standalone="no"?>
<!DOCTYPE svg PUBLIC "-//W3C//DTD SVG 1.1//EN"
 "http://www.w3.org/Graphics/SVG/1.1/DTD/svg11.dtd">
<!-- Generated by graphviz version 2.36.0 (20140111.2315)
 -->
<!-- Title: G Pages: 1 -->
<svg width="100%" height="100%"
 viewBox="0.00 0.00 238.41 307.56" xmlns="http://www.w3.org/2000/svg" xmlns:xlink="http://www.w3.org/1999/xlink">
<g id="graph0" class="graph" transform="scale(1 1) rotate(0) translate(4 303.558)">
<title>G</title>
<!-- 0 -->
<g id="node1" class="node"><title>0</title>
<ellipse fill="cadetblue" stroke="black" cx="38.0426" cy="-127.976" rx="21.4286" ry="21.4286"/>
<text text-anchor="middle" x="38.0426" y="-122.976" font-family="Times New Roman,serif" font-size="20.00">2</text>
</g>
<!-- 5 -->
<g id="node6" class="node"><title>5</title>
<ellipse fill="cadetblue" stroke="black" cx="21.2132" cy="-205.3" rx="21.4286" ry="21.4286"/>
<text text-anchor="middle" x="21.2132" y="-200.3" font-family="Times New Roman,serif" font-size="20.00">2</text>
</g>
<!-- 0&#45;&gt;5 -->
<g id="edge3" class="edge"><title>0&#45;&gt;5</title>
<path fill="none" stroke="black" stroke-width="2" d="M33.4439,-149.105C31.7418,-156.925 29.7755,-165.96 27.924,-174.467"/>
<polygon fill="black" stroke="black" stroke-width="2" points="24.4549,-173.949 25.7481,-184.464 31.2948,-175.437 24.4549,-173.949"/>
</g>
<!-- 6 -->
<g id="node7" class="node"><title>6</title>
<ellipse fill="cadetblue" stroke="black" cx="194.123" cy="-143.099" rx="21.4286" ry="21.4286"/>
<text text-anchor="middle" x="194.123" y="-138.099" font-family="Times New Roman,serif" font-size="20.00">2</text>
</g>
<!-- 0&#45;&gt;6 -->
<g id="edge4" class="edge"><title>0&#45;&gt;6</title>
<path fill="none" stroke="black" stroke-width="2" d="M57.2558,-137.369C74.5915,-145.077 101.035,-154.958 125.394,-156.461 138.156,-157.248 152.034,-155.132 163.956,-152.367"/>
<polygon fill="black" stroke="black" stroke-width="2" points="165.037,-155.703 173.852,-149.825 163.296,-148.922 165.037,-155.703"/>
</g>
<!-- 7 -->
<g id="node8" class="node"><title>7</title>
<ellipse fill="brown" stroke="black" cx="82.3755" cy="-41.1135" rx="21.4286" ry="21.4286"/>
<text text-anchor="middle" x="82.3755" y="-36.1135" font-family="Times New Roman,serif" font-size="20.00">3</text>
</g>
<!-- 0&#45;&gt;7 -->
<g id="edge5" class="edge"><title>0&#45;&gt;7</title>
<path fill="none" stroke="black" stroke-width="2" d="M47.8815,-108.698C53.8344,-97.0345 61.5264,-81.9633 68.1357,-69.0136"/>
<polygon fill="black" stroke="black" stroke-width="2" points="71.288,-70.5363 72.7166,-60.0382 65.0531,-67.3541 71.288,-70.5363"/>
</g>
<!-- 1 -->
<g id="node2" class="node"><title>1</title>
<ellipse fill="cadetblue" stroke="black" cx="108.208" cy="-278.345" rx="21.4286" ry="21.4286"/>
<text text-anchor="middle" x="108.208" y="-273.345" font-family="Times New Roman,serif" font-size="20.00">2</text>
</g>
<!-- 1&#45;&gt;6 -->
<g id="edge8" class="edge"><title>1&#45;&gt;6</title>
<path fill="none" stroke="black" stroke-width="2" d="M119.617,-260.385C134.381,-237.145 160.224,-196.463 177.257,-169.649"/>
<polygon fill="black" stroke="black" stroke-width="2" points="180.259,-171.451 182.667,-161.133 174.35,-167.697 180.259,-171.451"/>
</g>
<!-- 2 -->
<g id="node3" class="node"><title>2</title>
<ellipse fill="cadetblue" stroke="black" cx="209.197" cy="-21.2132" rx="21.4286" ry="21.4286"/>
<text text-anchor="middle" x="209.197" y="-16.2132" font-family="Times New Roman,serif" font-size="20.00">2</text>
</g>
<!-- 2&#45;&gt;7 -->
<g id="edge11" class="edge"><title>2&#45;&gt;7</title>
<path fill="none" stroke="black" stroke-width="2" d="M187.97,-24.5441C167.669,-27.7296 136.81,-32.5719 113.686,-36.2003"/>
<polygon fill="black" stroke="black" stroke-width="2" points="113.008,-32.7638 103.672,-37.7717 114.093,-39.6792 113.008,-32.7638"/>
</g>
<!-- 3 -->
<g id="node4" class="node"><title>3</title>
<ellipse fill="cadetblue" stroke="black" cx="158.64" cy="-247.512" rx="21.4286" ry="21.4286"/>
<text text-anchor="middle" x="158.64" y="-242.512" font-family="Times New Roman,serif" font-size="20.00">2</text>
</g>
<!-- 3&#45;&gt;0 -->
<g id="edge1" class="edge"><title>3&#45;&gt;0</title>
<path fill="none" stroke="black" stroke-width="2" d="M143.366,-232.372C122.434,-211.625 84.6839,-174.206 60.5213,-150.256"/>
<polygon fill="black" stroke="black" stroke-width="2" points="62.7585,-147.546 53.1923,-142.992 57.8307,-152.518 62.7585,-147.546"/>
</g>
<!-- 4 -->
<g id="node5" class="node"><title>4</title>
<ellipse fill="cadetblue" stroke="black" cx="125.654" cy="-130.158" rx="21.4286" ry="21.4286"/>
<text text-anchor="middle" x="125.654" y="-125.158" font-family="Times New Roman,serif" font-size="20.00">2</text>
</g>
<!-- 4&#45;&gt;0 -->
<g id="edge2" class="edge"><title>4&#45;&gt;0</title>
<path fill="none" stroke="black" stroke-width="2" d="M104.446,-129.629C93.9773,-129.369 81.1375,-129.049 69.5477,-128.76"/>
<polygon fill="black" stroke="black" stroke-width="2" points="69.4434,-125.257 59.3593,-128.506 69.2691,-132.254 69.4434,-125.257"/>
</g>
<!-- 4&#45;&gt;1 -->
<g id="edge6" class="edge"><title>4&#45;&gt;1</title>
<path fill="none" stroke="black" stroke-width="2" d="M123.155,-151.389C120.201,-176.478 115.261,-218.441 111.874,-247.207"/>
<polygon fill="black" stroke="black" stroke-width="2" points="108.397,-246.812 110.703,-257.153 115.349,-247.631 108.397,-246.812"/>
</g>
<!-- 4&#45;&gt;2 -->
<g id="edge9" class="edge"><title>4&#45;&gt;2</title>
<path fill="none" stroke="black" stroke-width="2" d="M138.708,-113.135C152.502,-95.1465 174.395,-66.5972 190.123,-46.0872"/>
<polygon fill="black" stroke="black" stroke-width="2" points="192.927,-48.1815 196.235,-38.1162 187.373,-43.9218 192.927,-48.1815"/>
</g>
<!-- 5&#45;&gt;1 -->
<g id="edge7" class="edge"><title>5&#45;&gt;1</title>
<path fill="none" stroke="black" stroke-width="2" d="M37.5763,-219.04C50.6995,-230.058 69.309,-245.684 84.1321,-258.13"/>
<polygon fill="black" stroke="black" stroke-width="2" points="82.0096,-260.918 91.9187,-264.667 86.5108,-255.557 82.0096,-260.918"/>
</g>
<!-- 5&#45;&gt;3 -->
<g id="edge12" class="edge"><title>5&#45;&gt;3</title>
<path fill="none" stroke="black" stroke-width="2" d="M41.7874,-211.62C64.659,-218.645 101.831,-230.063 128.099,-238.131"/>
<polygon fill="black" stroke="black" stroke-width="2" points="127.338,-241.559 137.925,-241.149 129.394,-234.867 127.338,-241.559"/>
</g>
<!-- 5&#45;&gt;4 -->
<g id="edge14" class="edge"><title>5&#45;&gt;4</title>
<path fill="none" stroke="black" stroke-width="2" d="M38.4596,-192.892C55.2407,-180.818 80.9398,-162.329 100.097,-148.546"/>
<polygon fill="black" stroke="black" stroke-width="2" points="102.309,-151.266 108.382,-142.584 98.221,-145.584 102.309,-151.266"/>
</g>
<!-- 6&#45;&gt;2 -->
<g id="edge10" class="edge"><title>6&#45;&gt;2</title>
<path fill="none" stroke="black" stroke-width="2" d="M196.748,-121.868C199.112,-102.76 202.616,-74.4263 205.305,-52.6843"/>
<polygon fill="black" stroke="black" stroke-width="2" points="208.797,-52.9638 206.551,-42.6098 201.85,-52.1045 208.797,-52.9638"/>
</g>
<!-- 6&#45;&gt;3 -->
<g id="edge13" class="edge"><title>6&#45;&gt;3</title>
<path fill="none" stroke="black" stroke-width="2" d="M187.281,-163.231C182.063,-178.588 174.789,-199.99 168.878,-217.383"/>
<polygon fill="black" stroke="black" stroke-width="2" points="165.485,-216.491 165.581,-227.086 172.113,-218.743 165.485,-216.491"/>
</g>
<!-- 6&#45;&gt;7 -->
<g id="edge17" class="edge"><title>6&#45;&gt;7</title>
<path fill="none" stroke="black" stroke-width="2" d="M178.112,-128.487C159.192,-111.22 127.549,-82.3405 105.856,-62.543"/>
<polygon fill="black" stroke="black" stroke-width="2" points="108.102,-59.8543 98.3564,-55.6984 103.383,-65.0247 108.102,-59.8543"/>
</g>
<!-- 7&#45;&gt;4 -->
<g id="edge15" class="edge"><title>7&#45;&gt;4</title>
<path fill="none" stroke="black" stroke-width="2" d="M91.7664,-60.4347C97.6079,-72.4533 105.225,-88.125 111.758,-101.566"/>
<polygon fill="black" stroke="black" stroke-width="2" points="108.763,-103.41 116.282,-110.874 115.058,-100.35 108.763,-103.41"/>
</g>
<!-- 7&#45;&gt;5 -->
<g id="edge16" class="edge"><title>7&#45;&gt;5</title>
<path fill="none" stroke="black" stroke-width="2" d="M80.0837,-62.3113C77.0573,-84.3408 70.4062,-119.342 56.6256,-146.593 51.1559,-157.409 44.4347,-168.909 38.3229,-178.838"/>
<polygon fill="black" stroke="black" stroke-width="2" points="35.2718,-177.116 32.9348,-187.449 41.206,-180.828 35.2718,-177.116"/>
</g>
</g>
</svg>

