<?xml version="1.0" encoding="UTF-8" standalone="no"?>
<!DOCTYPE svg PUBLIC "-//W3C//DTD SVG 1.1//EN"
 "http://www.w3.org/Graphics/SVG/1.1/DTD/svg11.dtd">
<!-- Generated by graphviz version 2.36.0 (20140111.2315)
 -->
<!-- Title: G Pages: 1 -->
<svg width="100%" height="100%"
 viewBox="0.00 0.00 182.13 204.44" xmlns="http://www.w3.org/2000/svg" xmlns:xlink="http://www.w3.org/1999/xlink">
<g id="graph0" class="graph" transform="scale(1 1) rotate(0) translate(4 200.443)">
<title>G</title>
<!-- 0 -->
<g id="node1" class="node"><title>0</title>
<ellipse fill="cadetblue" stroke="black" cx="94.9818" cy="-152.844" rx="21.4286" ry="21.4286"/>
<text text-anchor="middle" x="94.9818" y="-147.844" font-family="Times New Roman,serif" font-size="20.00">2</text>
</g>
<!-- 5 -->
<g id="node6" class="node"><title>5</title>
<ellipse fill="cadetblue" stroke="black" cx="21.2132" cy="-90.467" rx="21.4286" ry="21.4286"/>
<text text-anchor="middle" x="21.2132" y="-85.467" font-family="Times New Roman,serif" font-size="20.00">2</text>
</g>
<!-- 0&#45;&gt;5 -->
<g id="edge3" class="edge"><title>0&#45;&gt;5</title>
<path fill="none" stroke="black" stroke-width="2" d="M78.6101,-139C68.8686,-130.763 56.3279,-120.159 45.4548,-110.965"/>
<polygon fill="black" stroke="black" stroke-width="2" points="47.435,-108.056 37.5391,-104.272 42.9152,-113.401 47.435,-108.056"/>
</g>
<!-- 6 -->
<g id="node7" class="node"><title>6</title>
<ellipse fill="cadetblue" stroke="black" cx="152.915" cy="-75.909" rx="21.4286" ry="21.4286"/>
<text text-anchor="middle" x="152.915" y="-70.909" font-family="Times New Roman,serif" font-size="20.00">2</text>
</g>
<!-- 0&#45;&gt;6 -->
<g id="edge4" class="edge"><title>0&#45;&gt;6</title>
<path fill="none" stroke="black" stroke-width="2" d="M107.839,-135.77C115.49,-125.61 125.338,-112.531 133.877,-101.191"/>
<polygon fill="black" stroke="black" stroke-width="2" points="136.874,-103.029 140.094,-92.9356 131.283,-98.8186 136.874,-103.029"/>
</g>
<!-- 7 -->
<g id="node8" class="node"><title>7</title>
<ellipse fill="brown" stroke="black" cx="80.4766" cy="-98.0709" rx="21.4286" ry="21.4286"/>
<text text-anchor="middle" x="80.4766" y="-93.0709" font-family="Times New Roman,serif" font-size="20.00">3</text>
</g>
<!-- 0&#45;&gt;7 -->
<g id="edge5" class="edge"><title>0&#45;&gt;7</title>
<path fill="none" stroke="black" stroke-width="2" d="M89.498,-132.137C89.2092,-131.046 88.9164,-129.94 88.6216,-128.827"/>
<polygon fill="black" stroke="black" stroke-width="2" points="91.9116,-127.578 85.9682,-118.807 85.1448,-129.37 91.9116,-127.578"/>
</g>
<!-- 1 -->
<g id="node2" class="node"><title>1</title>
<ellipse fill="cadetblue" stroke="black" cx="105.274" cy="-21.2132" rx="21.4286" ry="21.4286"/>
<text text-anchor="middle" x="105.274" y="-16.2132" font-family="Times New Roman,serif" font-size="20.00">2</text>
</g>
<!-- 1&#45;&gt;7 -->
<g id="edge8" class="edge"><title>1&#45;&gt;7</title>
<path fill="none" stroke="black" stroke-width="2" d="M98.7589,-41.4066C96.1316,-49.5499 93.0453,-59.1153 90.1645,-68.0444"/>
<polygon fill="black" stroke="black" stroke-width="2" points="86.7742,-67.1538 87.0345,-77.7454 93.436,-69.3032 86.7742,-67.1538"/>
</g>
<!-- 2 -->
<g id="node3" class="node"><title>2</title>
<ellipse fill="cadetblue" stroke="black" cx="54.8427" cy="-23.5215" rx="21.4286" ry="21.4286"/>
<text text-anchor="middle" x="54.8427" y="-18.5215" font-family="Times New Roman,serif" font-size="20.00">2</text>
</g>
<!-- 2&#45;&gt;7 -->
<g id="edge11" class="edge"><title>2&#45;&gt;7</title>
<path fill="none" stroke="black" stroke-width="2" d="M61.8473,-43.8924C64.4398,-51.4321 67.4349,-60.1424 70.255,-68.3439"/>
<polygon fill="black" stroke="black" stroke-width="2" points="67.0078,-69.6642 73.5693,-77.9827 73.6274,-67.388 67.0078,-69.6642"/>
</g>
<!-- 3 -->
<g id="node4" class="node"><title>3</title>
<ellipse fill="cadetblue" stroke="black" cx="42.9877" cy="-175.229" rx="21.4286" ry="21.4286"/>
<text text-anchor="middle" x="42.9877" y="-170.229" font-family="Times New Roman,serif" font-size="20.00">2</text>
</g>
<!-- 3&#45;&gt;0 -->
<g id="edge1" class="edge"><title>3&#45;&gt;0</title>
<path fill="none" stroke="black" stroke-width="2" d="M62.6444,-166.766C63.6797,-166.321 64.7292,-165.869 65.7859,-165.414"/>
<polygon fill="black" stroke="black" stroke-width="2" points="67.4964,-168.488 75.2972,-161.319 64.7282,-162.059 67.4964,-168.488"/>
</g>
<!-- 4 -->
<g id="node5" class="node"><title>4</title>
<ellipse fill="cadetblue" stroke="black" cx="147.232" cy="-161.748" rx="21.4286" ry="21.4286"/>
<text text-anchor="middle" x="147.232" y="-156.748" font-family="Times New Roman,serif" font-size="20.00">2</text>
</g>
<!-- 3&#45;&gt;4 -->
<g id="edge12" class="edge"><title>3&#45;&gt;4</title>
<path fill="none" stroke="black" stroke-width="2" d="M64.0832,-172.501C79.0606,-170.564 99.4121,-167.932 116.232,-165.757"/>
<polygon fill="black" stroke="black" stroke-width="2" points="116.7,-169.226 126.168,-164.472 115.802,-162.284 116.7,-169.226"/>
</g>
<!-- 4&#45;&gt;0 -->
<g id="edge2" class="edge"><title>4&#45;&gt;0</title>
<path fill="none" stroke="black" stroke-width="2" d="M126.281,-158.178C126.175,-158.16 126.068,-158.141 125.961,-158.123"/>
<polygon fill="black" stroke="black" stroke-width="2" points="126.384,-154.645 115.938,-156.415 125.208,-161.545 126.384,-154.645"/>
</g>
<!-- 4&#45;&gt;6 -->
<g id="edge15" class="edge"><title>4&#45;&gt;6</title>
<path fill="none" stroke="black" stroke-width="2" d="M148.637,-140.529C149.3,-130.522 150.104,-118.378 150.835,-107.331"/>
<polygon fill="black" stroke="black" stroke-width="2" points="154.339,-107.39 151.507,-97.1811 147.354,-106.928 154.339,-107.39"/>
</g>
<!-- 5&#45;&gt;1 -->
<g id="edge6" class="edge"><title>5&#45;&gt;1</title>
<path fill="none" stroke="black" stroke-width="2" d="M37.8209,-76.7847C50.1402,-66.6355 67.1269,-52.6409 80.9715,-41.235"/>
<polygon fill="black" stroke="black" stroke-width="2" points="83.2083,-43.927 88.7009,-34.8671 78.7573,-38.5244 83.2083,-43.927"/>
</g>
<!-- 5&#45;&gt;2 -->
<g id="edge9" class="edge"><title>5&#45;&gt;2</title>
<path fill="none" stroke="black" stroke-width="2" d="M30.7601,-71.4622C33.787,-65.4367 37.203,-58.6366 40.4906,-52.092"/>
<polygon fill="black" stroke="black" stroke-width="2" points="43.7938,-53.3133 45.1551,-42.8063 37.5387,-50.1711 43.7938,-53.3133"/>
</g>
<!-- 5&#45;&gt;3 -->
<g id="edge13" class="edge"><title>5&#45;&gt;3</title>
<path fill="none" stroke="black" stroke-width="2" d="M26.5957,-111.42C29.1798,-121.479 32.3253,-133.724 35.1673,-144.787"/>
<polygon fill="black" stroke="black" stroke-width="2" points="31.789,-145.703 37.6671,-154.518 38.5689,-143.962 31.789,-145.703"/>
</g>
<!-- 6&#45;&gt;1 -->
<g id="edge7" class="edge"><title>6&#45;&gt;1</title>
<path fill="none" stroke="black" stroke-width="2" d="M138.879,-59.7943C134.844,-55.1621 130.356,-50.0095 126.008,-45.0171"/>
<polygon fill="black" stroke="black" stroke-width="2" points="128.582,-42.6436 119.375,-37.4017 123.304,-47.2412 128.582,-42.6436"/>
</g>
<!-- 6&#45;&gt;2 -->
<g id="edge10" class="edge"><title>6&#45;&gt;2</title>
<path fill="none" stroke="black" stroke-width="2" d="M134.006,-65.8082C119.489,-58.0535 99.2197,-47.2264 82.8259,-38.4693"/>
<polygon fill="black" stroke="black" stroke-width="2" points="84.1636,-35.2158 73.694,-33.5913 80.8654,-41.3902 84.1636,-35.2158"/>
</g>
<!-- 7&#45;&gt;3 -->
<g id="edge14" class="edge"><title>7&#45;&gt;3</title>
<path fill="none" stroke="black" stroke-width="2" d="M71.0166,-117.541C66.677,-126.473 61.4493,-137.232 56.69,-147.028"/>
<polygon fill="black" stroke="black" stroke-width="2" points="53.537,-145.508 52.3148,-156.033 59.8331,-148.568 53.537,-145.508"/>
</g>
<!-- 7&#45;&gt;4 -->
<g id="edge16" class="edge"><title>7&#45;&gt;4</title>
<path fill="none" stroke="black" stroke-width="2" d="M95.9596,-112.84C104.385,-120.877 114.97,-130.974 124.332,-139.904"/>
<polygon fill="black" stroke="black" stroke-width="2" points="122.182,-142.69 131.834,-147.059 127.013,-137.624 122.182,-142.69"/>
</g>
<!-- 7&#45;&gt;5 -->
<g id="edge17" class="edge"><title>7&#45;&gt;5</title>
<path fill="none" stroke="black" stroke-width="2" d="M59.4157,-95.3686C57.1991,-95.0842 54.9125,-94.7908 52.6117,-94.4956"/>
<polygon fill="black" stroke="black" stroke-width="2" points="52.9702,-91.013 42.606,-93.2119 52.0793,-97.9561 52.9702,-91.013"/>
</g>
</g>
</svg>

