<?xml version="1.0" encoding="UTF-8" standalone="no"?>
<!DOCTYPE svg PUBLIC "-//W3C//DTD SVG 1.1//EN"
 "http://www.w3.org/Graphics/SVG/1.1/DTD/svg11.dtd">
<!-- Generated by graphviz version 2.36.0 (20140111.2315)
 -->
<!-- Title: G Pages: 1 -->
<svg width="100%" height="100%"
 viewBox="0.00 0.00 251.65 295.90" xmlns="http://www.w3.org/2000/svg" xmlns:xlink="http://www.w3.org/1999/xlink">
<g id="graph0" class="graph" transform="scale(1 1) rotate(0) translate(4 291.902)">
<title>G</title>
<!-- 0 -->
<g id="node1" class="node"><title>0</title>
<ellipse fill="cadetblue" stroke="black" cx="79.9049" cy="-248.971" rx="21.4286" ry="21.4286"/>
<text text-anchor="middle" x="79.9049" y="-243.971" font-family="Times New Roman,serif" font-size="20.00">2</text>
</g>
<!-- 5 -->
<g id="node6" class="node"><title>5</title>
<ellipse fill="cadetblue" stroke="black" cx="21.2132" cy="-110.747" rx="21.4286" ry="21.4286"/>
<text text-anchor="middle" x="21.2132" y="-105.747" font-family="Times New Roman,serif" font-size="20.00">2</text>
</g>
<!-- 0&#45;&gt;5 -->
<g id="edge3" class="edge"><title>0&#45;&gt;5</title>
<path fill="none" stroke="black" stroke-width="2" d="M71.4958,-229.167C61.5589,-205.764 44.939,-166.623 33.5457,-139.791"/>
<polygon fill="black" stroke="black" stroke-width="2" points="36.7368,-138.351 29.6067,-130.514 30.2935,-141.087 36.7368,-138.351"/>
</g>
<!-- 7 -->
<g id="node8" class="node"><title>7</title>
<ellipse fill="brown" stroke="black" cx="138.852" cy="-134.548" rx="21.4286" ry="21.4286"/>
<text text-anchor="middle" x="138.852" y="-129.548" font-family="Times New Roman,serif" font-size="20.00">3</text>
</g>
<!-- 0&#45;&gt;7 -->
<g id="edge4" class="edge"><title>0&#45;&gt;7</title>
<path fill="none" stroke="black" stroke-width="2" d="M89.9566,-229.721C95.0634,-219.922 101.356,-207.815 106.953,-196.96 112.732,-185.75 119.061,-173.388 124.546,-162.643"/>
<polygon fill="black" stroke="black" stroke-width="2" points="127.688,-164.185 129.115,-153.687 121.453,-161.004 127.688,-164.185"/>
</g>
<!-- 1 -->
<g id="node2" class="node"><title>1</title>
<ellipse fill="cadetblue" stroke="black" cx="88.421" cy="-178.292" rx="21.4286" ry="21.4286"/>
<text text-anchor="middle" x="88.421" y="-173.292" font-family="Times New Roman,serif" font-size="20.00">2</text>
</g>
<!-- 6 -->
<g id="node7" class="node"><title>6</title>
<ellipse fill="brown" stroke="black" cx="222.44" cy="-113.357" rx="21.4286" ry="21.4286"/>
<text text-anchor="middle" x="222.44" y="-108.357" font-family="Times New Roman,serif" font-size="20.00">3</text>
</g>
<!-- 1&#45;&gt;6 -->
<g id="edge7" class="edge"><title>1&#45;&gt;6</title>
<path fill="none" stroke="black" stroke-width="2" d="M108.643,-171.607C117.897,-168.469 128.978,-164.6 138.851,-160.852 147.217,-157.677 149.478,-157.209 157.452,-153.149 170.475,-146.517 184.36,-138.199 195.938,-130.885"/>
<polygon fill="black" stroke="black" stroke-width="2" points="198.14,-133.631 204.668,-125.286 194.361,-127.738 198.14,-133.631"/>
</g>
<!-- 1&#45;&gt;7 -->
<g id="edge8" class="edge"><title>1&#45;&gt;7</title>
<path fill="none" stroke="black" stroke-width="2" d="M104.655,-164.21C107.985,-161.323 111.554,-158.226 115.086,-155.163"/>
<polygon fill="black" stroke="black" stroke-width="2" points="117.388,-157.8 122.648,-148.603 112.801,-152.512 117.388,-157.8"/>
</g>
<!-- 2 -->
<g id="node3" class="node"><title>2</title>
<ellipse fill="cadetblue" stroke="black" cx="124.016" cy="-21.2132" rx="21.4286" ry="21.4286"/>
<text text-anchor="middle" x="124.016" y="-16.2132" font-family="Times New Roman,serif" font-size="20.00">2</text>
</g>
<!-- 2&#45;&gt;7 -->
<g id="edge11" class="edge"><title>2&#45;&gt;7</title>
<path fill="none" stroke="black" stroke-width="2" d="M126.772,-42.265C129.016,-59.412 132.219,-83.8754 134.763,-103.307"/>
<polygon fill="black" stroke="black" stroke-width="2" points="131.293,-103.763 136.061,-113.224 138.233,-102.855 131.293,-103.763"/>
</g>
<!-- 3 -->
<g id="node4" class="node"><title>3</title>
<ellipse fill="cadetblue" stroke="black" cx="193.317" cy="-266.689" rx="21.4286" ry="21.4286"/>
<text text-anchor="middle" x="193.317" y="-261.689" font-family="Times New Roman,serif" font-size="20.00">2</text>
</g>
<!-- 3&#45;&gt;0 -->
<g id="edge1" class="edge"><title>3&#45;&gt;0</title>
<path fill="none" stroke="black" stroke-width="2" d="M172.251,-263.398C155.093,-260.717 130.612,-256.893 111.168,-253.855"/>
<polygon fill="black" stroke="black" stroke-width="2" points="111.664,-250.39 101.243,-252.304 110.583,-257.306 111.664,-250.39"/>
</g>
<!-- 3&#45;&gt;6 -->
<g id="edge13" class="edge"><title>3&#45;&gt;6</title>
<path fill="none" stroke="black" stroke-width="2" d="M189.341,-245.693C187.632,-233.669 186.412,-218.318 188.302,-204.747 191.376,-182.666 200.314,-159.132 208.273,-141.476"/>
<polygon fill="black" stroke="black" stroke-width="2" points="211.49,-142.859 212.55,-132.318 205.147,-139.897 211.49,-142.859"/>
</g>
<!-- 4 -->
<g id="node5" class="node"><title>4</title>
<ellipse fill="cadetblue" stroke="black" cx="214.605" cy="-205.007" rx="21.4286" ry="21.4286"/>
<text text-anchor="middle" x="214.605" y="-200.007" font-family="Times New Roman,serif" font-size="20.00">2</text>
</g>
<!-- 4&#45;&gt;0 -->
<g id="edge2" class="edge"><title>4&#45;&gt;0</title>
<path fill="none" stroke="black" stroke-width="2" d="M194.147,-211.684C171.666,-219.021 135.348,-230.875 109.705,-239.245"/>
<polygon fill="black" stroke="black" stroke-width="2" points="108.535,-235.945 100.114,-242.375 110.707,-242.599 108.535,-235.945"/>
</g>
<!-- 4&#45;&gt;1 -->
<g id="edge5" class="edge"><title>4&#45;&gt;1</title>
<path fill="none" stroke="black" stroke-width="2" d="M193.768,-200.596C173.494,-196.303 142.444,-189.73 119.3,-184.829"/>
<polygon fill="black" stroke="black" stroke-width="2" points="119.797,-181.357 109.289,-182.71 118.347,-188.205 119.797,-181.357"/>
</g>
<!-- 4&#45;&gt;3 -->
<g id="edge12" class="edge"><title>4&#45;&gt;3</title>
<path fill="none" stroke="black" stroke-width="2" d="M207.635,-225.204C206.361,-228.893 205.008,-232.814 203.662,-236.716"/>
<polygon fill="black" stroke="black" stroke-width="2" points="200.33,-235.641 200.376,-246.236 206.947,-237.925 200.33,-235.641"/>
</g>
<!-- 5&#45;&gt;1 -->
<g id="edge6" class="edge"><title>5&#45;&gt;1</title>
<path fill="none" stroke="black" stroke-width="2" d="M36.4637,-126.074C45.2285,-134.883 56.3963,-146.107 66.1303,-155.889"/>
<polygon fill="black" stroke="black" stroke-width="2" points="63.6964,-158.406 73.2309,-163.026 68.6586,-153.468 63.6964,-158.406"/>
</g>
<!-- 5&#45;&gt;2 -->
<g id="edge9" class="edge"><title>5&#45;&gt;2</title>
<path fill="none" stroke="black" stroke-width="2" d="M37.2761,-96.7574C54.0763,-82.1257 80.6383,-58.992 99.9457,-42.1767"/>
<polygon fill="black" stroke="black" stroke-width="2" points="102.484,-44.6071 107.727,-35.4001 97.8869,-39.3284 102.484,-44.6071"/>
</g>
<!-- 6&#45;&gt;2 -->
<g id="edge10" class="edge"><title>6&#45;&gt;2</title>
<path fill="none" stroke="black" stroke-width="2" d="M206.627,-98.5523C190.555,-83.5067 165.487,-60.0376 147.177,-42.8966"/>
<polygon fill="black" stroke="black" stroke-width="2" points="149.482,-40.2602 139.79,-35.9809 144.698,-45.3703 149.482,-40.2602"/>
</g>
<!-- 6&#45;&gt;4 -->
<g id="edge15" class="edge"><title>6&#45;&gt;4</title>
<path fill="none" stroke="black" stroke-width="2" d="M220.623,-134.614C219.634,-146.181 218.392,-160.714 217.293,-173.566"/>
<polygon fill="black" stroke="black" stroke-width="2" points="213.777,-173.604 216.412,-183.865 220.752,-174.2 213.777,-173.604"/>
</g>
<!-- 7&#45;&gt;3 -->
<g id="edge14" class="edge"><title>7&#45;&gt;3</title>
<path fill="none" stroke="black" stroke-width="2" d="M147.006,-154.331C156.071,-176.323 170.803,-212.065 181.214,-237.323"/>
<polygon fill="black" stroke="black" stroke-width="2" points="178.061,-238.859 185.108,-246.771 184.533,-236.192 178.061,-238.859"/>
</g>
<!-- 7&#45;&gt;4 -->
<g id="edge16" class="edge"><title>7&#45;&gt;4</title>
<path fill="none" stroke="black" stroke-width="2" d="M154.548,-149.147C165.213,-159.067 179.501,-172.356 191.464,-183.483"/>
<polygon fill="black" stroke="black" stroke-width="2" points="189.223,-186.179 198.929,-190.427 193.991,-181.053 189.223,-186.179"/>
</g>
<!-- 7&#45;&gt;5 -->
<g id="edge17" class="edge"><title>7&#45;&gt;5</title>
<path fill="none" stroke="black" stroke-width="2" d="M117.821,-130.293C99.5031,-126.587 72.7061,-121.165 51.9785,-116.972"/>
<polygon fill="black" stroke="black" stroke-width="2" points="52.5582,-113.518 42.0627,-114.965 51.17,-120.379 52.5582,-113.518"/>
</g>
<!-- 7&#45;&gt;6 -->
<g id="edge18" class="edge"><title>7&#45;&gt;6</title>
<path fill="none" stroke="black" stroke-width="2" d="M159.515,-129.31C169.26,-126.839 181.085,-123.841 191.843,-121.114"/>
<polygon fill="black" stroke="black" stroke-width="2" points="192.893,-124.458 201.726,-118.608 191.172,-117.673 192.893,-124.458"/>
</g>
</g>
</svg>

