<?xml version="1.0" encoding="UTF-8" standalone="no"?>
<!DOCTYPE svg PUBLIC "-//W3C//DTD SVG 1.1//EN"
 "http://www.w3.org/Graphics/SVG/1.1/DTD/svg11.dtd">
<!-- Generated by graphviz version 2.36.0 (20140111.2315)
 -->
<!-- Title: G Pages: 1 -->
<svg width="100%" height="100%"
 viewBox="0.00 0.00 248.74 284.03" xmlns="http://www.w3.org/2000/svg" xmlns:xlink="http://www.w3.org/1999/xlink">
<g id="graph0" class="graph" transform="scale(1 1) rotate(0) translate(4 280.032)">
<title>G</title>
<!-- 0 -->
<g id="node1" class="node"><title>0</title>
<ellipse fill="cadetblue" stroke="black" cx="142.157" cy="-188.224" rx="21.4286" ry="21.4286"/>
<text text-anchor="middle" x="142.157" y="-183.224" font-family="Times New Roman,serif" font-size="20.00">2</text>
</g>
<!-- 3 -->
<g id="node4" class="node"><title>3</title>
<ellipse fill="cadetblue" stroke="black" cx="219.522" cy="-140.075" rx="21.4286" ry="21.4286"/>
<text text-anchor="middle" x="219.522" y="-135.075" font-family="Times New Roman,serif" font-size="20.00">2</text>
</g>
<!-- 0&#45;&gt;3 -->
<g id="edge1" class="edge"><title>0&#45;&gt;3</title>
<path fill="none" stroke="black" stroke-width="2" d="M160.491,-176.814C170.126,-170.817 182.116,-163.356 192.768,-156.726"/>
<polygon fill="black" stroke="black" stroke-width="2" points="194.679,-159.659 201.319,-151.404 190.98,-153.716 194.679,-159.659"/>
</g>
<!-- 4 -->
<g id="node5" class="node"><title>4</title>
<ellipse fill="cadetblue" stroke="black" cx="76.5189" cy="-254.819" rx="21.4286" ry="21.4286"/>
<text text-anchor="middle" x="76.5189" y="-249.819" font-family="Times New Roman,serif" font-size="20.00">2</text>
</g>
<!-- 0&#45;&gt;4 -->
<g id="edge2" class="edge"><title>0&#45;&gt;4</title>
<path fill="none" stroke="black" stroke-width="2" d="M127.263,-203.336C118.906,-211.814 108.312,-222.562 98.9687,-232.042"/>
<polygon fill="black" stroke="black" stroke-width="2" points="96.3368,-229.726 91.8097,-239.305 101.322,-234.64 96.3368,-229.726"/>
</g>
<!-- 7 -->
<g id="node8" class="node"><title>7</title>
<ellipse fill="cadetblue" stroke="black" cx="96.9332" cy="-137.084" rx="21.4286" ry="21.4286"/>
<text text-anchor="middle" x="96.9332" y="-132.084" font-family="Times New Roman,serif" font-size="20.00">2</text>
</g>
<!-- 0&#45;&gt;7 -->
<g id="edge5" class="edge"><title>0&#45;&gt;7</title>
<path fill="none" stroke="black" stroke-width="2" d="M128.096,-172.323C124.893,-168.702 121.423,-164.778 118,-160.907"/>
<polygon fill="black" stroke="black" stroke-width="2" points="120.388,-158.323 111.141,-153.151 115.144,-162.96 120.388,-158.323"/>
</g>
<!-- 1 -->
<g id="node2" class="node"><title>1</title>
<ellipse fill="cadetblue" stroke="black" cx="23.3243" cy="-177.602" rx="21.4286" ry="21.4286"/>
<text text-anchor="middle" x="23.3243" y="-172.602" font-family="Times New Roman,serif" font-size="20.00">2</text>
</g>
<!-- 5 -->
<g id="node6" class="node"><title>5</title>
<ellipse fill="cadetblue" stroke="black" cx="21.2132" cy="-98.2533" rx="21.4286" ry="21.4286"/>
<text text-anchor="middle" x="21.2132" y="-93.2533" font-family="Times New Roman,serif" font-size="20.00">2</text>
</g>
<!-- 1&#45;&gt;5 -->
<g id="edge7" class="edge"><title>1&#45;&gt;5</title>
<path fill="none" stroke="black" stroke-width="2" d="M22.7585,-156.338C22.5408,-148.155 22.2874,-138.63 22.0495,-129.688"/>
<polygon fill="black" stroke="black" stroke-width="2" points="25.5453,-129.479 21.7805,-119.576 18.5478,-129.665 25.5453,-129.479"/>
</g>
<!-- 1&#45;&gt;7 -->
<g id="edge9" class="edge"><title>1&#45;&gt;7</title>
<path fill="none" stroke="black" stroke-width="2" d="M42.2804,-167.167C50.5004,-162.643 60.2875,-157.255 69.293,-152.298"/>
<polygon fill="black" stroke="black" stroke-width="2" points="71.2234,-155.231 78.2962,-147.342 67.8479,-149.098 71.2234,-155.231"/>
</g>
<!-- 2 -->
<g id="node3" class="node"><title>2</title>
<ellipse fill="cadetblue" stroke="black" cx="76.4683" cy="-21.2132" rx="21.4286" ry="21.4286"/>
<text text-anchor="middle" x="76.4683" y="-16.2132" font-family="Times New Roman,serif" font-size="20.00">2</text>
</g>
<!-- 6 -->
<g id="node7" class="node"><title>6</title>
<ellipse fill="cadetblue" stroke="black" cx="145.099" cy="-86.6521" rx="21.4286" ry="21.4286"/>
<text text-anchor="middle" x="145.099" y="-81.6521" font-family="Times New Roman,serif" font-size="20.00">2</text>
</g>
<!-- 2&#45;&gt;6 -->
<g id="edge11" class="edge"><title>2&#45;&gt;6</title>
<path fill="none" stroke="black" stroke-width="2" d="M92.0416,-36.0623C100.992,-44.5964 112.396,-55.4703 122.336,-64.9481"/>
<polygon fill="black" stroke="black" stroke-width="2" points="119.934,-67.494 129.587,-71.8618 124.765,-62.4279 119.934,-67.494"/>
</g>
<!-- 3&#45;&gt;6 -->
<g id="edge13" class="edge"><title>3&#45;&gt;6</title>
<path fill="none" stroke="black" stroke-width="2" d="M202.261,-127.685C192.935,-120.99 181.235,-112.592 170.854,-105.14"/>
<polygon fill="black" stroke="black" stroke-width="2" points="172.689,-102.149 162.524,-99.1606 168.607,-107.835 172.689,-102.149"/>
</g>
<!-- 4&#45;&gt;1 -->
<g id="edge6" class="edge"><title>4&#45;&gt;1</title>
<path fill="none" stroke="black" stroke-width="2" d="M64.4482,-237.297C57.6273,-227.396 48.9678,-214.826 41.356,-203.777"/>
<polygon fill="black" stroke="black" stroke-width="2" points="44.0867,-201.571 35.5313,-195.321 38.3222,-205.542 44.0867,-201.571"/>
</g>
<!-- 5&#45;&gt;0 -->
<g id="edge3" class="edge"><title>5&#45;&gt;0</title>
<path fill="none" stroke="black" stroke-width="2" d="M35.0489,-114.763C45.9405,-127.076 61.9678,-143.756 78.3324,-155.683 89.0121,-163.466 101.821,-170.394 113.152,-175.836"/>
<polygon fill="black" stroke="black" stroke-width="2" points="111.698,-179.02 122.243,-180.044 114.639,-172.668 111.698,-179.02"/>
</g>
<!-- 5&#45;&gt;2 -->
<g id="edge10" class="edge"><title>5&#45;&gt;2</title>
<path fill="none" stroke="black" stroke-width="2" d="M33.7515,-80.7717C40.9575,-70.7246 50.1391,-57.9231 58.1419,-46.765"/>
<polygon fill="black" stroke="black" stroke-width="2" points="60.9956,-48.7915 63.9797,-38.6256 55.3074,-44.7118 60.9956,-48.7915"/>
</g>
<!-- 6&#45;&gt;0 -->
<g id="edge4" class="edge"><title>6&#45;&gt;0</title>
<path fill="none" stroke="black" stroke-width="2" d="M144.475,-108.193C144.069,-122.198 143.533,-140.704 143.079,-156.393"/>
<polygon fill="black" stroke="black" stroke-width="2" points="139.571,-156.617 142.78,-166.714 146.568,-156.82 139.571,-156.617"/>
</g>
<!-- 6&#45;&gt;1 -->
<g id="edge8" class="edge"><title>6&#45;&gt;1</title>
<path fill="none" stroke="black" stroke-width="2" d="M125.026,-93.9031C111.17,-99.4453 92.7235,-107.922 78.3341,-118.483 65.1465,-128.161 52.5527,-141.298 42.751,-152.731"/>
<polygon fill="black" stroke="black" stroke-width="2" points="39.8428,-150.754 36.1387,-160.68 45.2244,-155.23 39.8428,-150.754"/>
</g>
<!-- 7&#45;&gt;2 -->
<g id="edge12" class="edge"><title>7&#45;&gt;2</title>
<path fill="none" stroke="black" stroke-width="2" d="M93.2272,-116.1C90.0884,-98.3289 85.5435,-72.5961 81.9784,-52.4105"/>
<polygon fill="black" stroke="black" stroke-width="2" points="85.402,-51.6707 80.216,-42.4319 78.5087,-52.8883 85.402,-51.6707"/>
</g>
<!-- 7&#45;&gt;3 -->
<g id="edge14" class="edge"><title>7&#45;&gt;3</title>
<path fill="none" stroke="black" stroke-width="2" d="M118.287,-137.605C137.505,-138.074 166.002,-138.769 187.87,-139.303"/>
<polygon fill="black" stroke="black" stroke-width="2" points="187.92,-142.805 198.002,-139.55 188.091,-135.807 187.92,-142.805"/>
</g>
<!-- 7&#45;&gt;4 -->
<g id="edge15" class="edge"><title>7&#45;&gt;4</title>
<path fill="none" stroke="black" stroke-width="2" d="M93.2836,-158.132C90.1244,-176.352 85.512,-202.953 81.9245,-223.644"/>
<polygon fill="black" stroke="black" stroke-width="2" points="78.4658,-223.105 80.2058,-233.556 85.3629,-224.301 78.4658,-223.105"/>
</g>
<!-- 7&#45;&gt;5 -->
<g id="edge16" class="edge"><title>7&#45;&gt;5</title>
<path fill="none" stroke="black" stroke-width="2" d="M77.8259,-127.285C69.2169,-122.87 58.8773,-117.568 49.4035,-112.71"/>
<polygon fill="black" stroke="black" stroke-width="2" points="50.8098,-109.497 40.3145,-108.049 47.6155,-115.726 50.8098,-109.497"/>
</g>
</g>
</svg>

