<?xml version="1.0" encoding="UTF-8" standalone="no"?>
<!DOCTYPE svg PUBLIC "-//W3C//DTD SVG 1.1//EN"
 "http://www.w3.org/Graphics/SVG/1.1/DTD/svg11.dtd">
<!-- Generated by graphviz version 2.36.0 (20140111.2315)
 -->
<!-- Title: G Pages: 1 -->
<svg width="100%" height="100%"
 viewBox="0.00 0.00 230.10 260.51" xmlns="http://www.w3.org/2000/svg" xmlns:xlink="http://www.w3.org/1999/xlink">
<g id="graph0" class="graph" transform="scale(1 1) rotate(0) translate(4 256.507)">
<title>G</title>
<!-- 0 -->
<g id="node1" class="node"><title>0</title>
<ellipse fill="cadetblue" stroke="black" cx="200.884" cy="-177.882" rx="21.4286" ry="21.4286"/>
<text text-anchor="middle" x="200.884" y="-172.882" font-family="Times New Roman,serif" font-size="20.00">2</text>
</g>
<!-- 6 -->
<g id="node7" class="node"><title>6</title>
<ellipse fill="cadetblue" stroke="black" cx="137.602" cy="-180.863" rx="21.4286" ry="21.4286"/>
<text text-anchor="middle" x="137.602" y="-175.863" font-family="Times New Roman,serif" font-size="20.00">2</text>
</g>
<!-- 0&#45;&gt;6 -->
<g id="edge3" class="edge"><title>0&#45;&gt;6</title>
<path fill="none" stroke="black" stroke-width="2" d="M179.46,-178.891C176.161,-179.047 172.696,-179.21 169.232,-179.373"/>
<polygon fill="black" stroke="black" stroke-width="2" points="168.829,-175.888 159.005,-179.855 169.158,-182.88 168.829,-175.888"/>
</g>
<!-- 7 -->
<g id="node8" class="node"><title>7</title>
<ellipse fill="cadetblue" stroke="black" cx="104.22" cy="-117.35" rx="21.4286" ry="21.4286"/>
<text text-anchor="middle" x="104.22" y="-112.35" font-family="Times New Roman,serif" font-size="20.00">2</text>
</g>
<!-- 0&#45;&gt;7 -->
<g id="edge4" class="edge"><title>0&#45;&gt;7</title>
<path fill="none" stroke="black" stroke-width="2" d="M182.703,-166.497C168.121,-157.366 147.443,-144.417 130.973,-134.103"/>
<polygon fill="black" stroke="black" stroke-width="2" points="132.654,-131.026 122.321,-128.685 128.938,-136.959 132.654,-131.026"/>
</g>
<!-- 1 -->
<g id="node2" class="node"><title>1</title>
<ellipse fill="cadetblue" stroke="black" cx="29.1078" cy="-170.335" rx="21.4286" ry="21.4286"/>
<text text-anchor="middle" x="29.1078" y="-165.335" font-family="Times New Roman,serif" font-size="20.00">2</text>
</g>
<!-- 1&#45;&gt;6 -->
<g id="edge7" class="edge"><title>1&#45;&gt;6</title>
<path fill="none" stroke="black" stroke-width="2" d="M50.2842,-172.39C66.2648,-173.94 88.4372,-176.092 106.44,-177.839"/>
<polygon fill="black" stroke="black" stroke-width="2" points="106.188,-181.331 116.479,-178.813 106.864,-174.363 106.188,-181.331"/>
</g>
<!-- 1&#45;&gt;7 -->
<g id="edge8" class="edge"><title>1&#45;&gt;7</title>
<path fill="none" stroke="black" stroke-width="2" d="M46.5289,-158.046C55.9414,-151.406 67.7495,-143.077 78.2271,-135.686"/>
<polygon fill="black" stroke="black" stroke-width="2" points="80.4795,-138.38 86.6335,-129.756 76.4445,-132.66 80.4795,-138.38"/>
</g>
<!-- 2 -->
<g id="node3" class="node"><title>2</title>
<ellipse fill="cadetblue" stroke="black" cx="110.759" cy="-21.2132" rx="21.4286" ry="21.4286"/>
<text text-anchor="middle" x="110.759" y="-16.2132" font-family="Times New Roman,serif" font-size="20.00">2</text>
</g>
<!-- 5 -->
<g id="node6" class="node"><title>5</title>
<ellipse fill="cadetblue" stroke="black" cx="21.2132" cy="-68.3321" rx="21.4286" ry="21.4286"/>
<text text-anchor="middle" x="21.2132" y="-63.3321" font-family="Times New Roman,serif" font-size="20.00">2</text>
</g>
<!-- 2&#45;&gt;5 -->
<g id="edge10" class="edge"><title>2&#45;&gt;5</title>
<path fill="none" stroke="black" stroke-width="2" d="M91.769,-31.2059C79.422,-37.7029 63.1068,-46.2879 49.2756,-53.5658"/>
<polygon fill="black" stroke="black" stroke-width="2" points="47.3961,-50.5998 40.1763,-58.3538 50.6558,-56.7945 47.3961,-50.5998"/>
</g>
<!-- 3 -->
<g id="node4" class="node"><title>3</title>
<ellipse fill="cadetblue" stroke="black" cx="99.2427" cy="-231.294" rx="21.4286" ry="21.4286"/>
<text text-anchor="middle" x="99.2427" y="-226.294" font-family="Times New Roman,serif" font-size="20.00">2</text>
</g>
<!-- 3&#45;&gt;0 -->
<g id="edge1" class="edge"><title>3&#45;&gt;0</title>
<path fill="none" stroke="black" stroke-width="2" d="M118.361,-221.248C133.693,-213.191 155.436,-201.765 172.754,-192.664"/>
<polygon fill="black" stroke="black" stroke-width="2" points="174.628,-195.634 181.852,-187.884 171.372,-189.437 174.628,-195.634"/>
</g>
<!-- 3&#45;&gt;1 -->
<g id="edge5" class="edge"><title>3&#45;&gt;1</title>
<path fill="none" stroke="black" stroke-width="2" d="M82.9761,-217.156C74.0356,-209.385 62.7804,-199.602 52.8729,-190.991"/>
<polygon fill="black" stroke="black" stroke-width="2" points="55.1298,-188.315 45.2862,-184.397 50.5377,-193.598 55.1298,-188.315"/>
</g>
<!-- 4 -->
<g id="node5" class="node"><title>4</title>
<ellipse fill="cadetblue" stroke="black" cx="190.386" cy="-85.5036" rx="21.4286" ry="21.4286"/>
<text text-anchor="middle" x="190.386" y="-80.5036" font-family="Times New Roman,serif" font-size="20.00">2</text>
</g>
<!-- 4&#45;&gt;0 -->
<g id="edge2" class="edge"><title>4&#45;&gt;0</title>
<path fill="none" stroke="black" stroke-width="2" d="M192.821,-106.929C194.159,-118.705 195.844,-133.53 197.327,-146.58"/>
<polygon fill="black" stroke="black" stroke-width="2" points="193.856,-147.032 198.463,-156.573 200.811,-146.242 193.856,-147.032"/>
</g>
<!-- 4&#45;&gt;2 -->
<g id="edge9" class="edge"><title>4&#45;&gt;2</title>
<path fill="none" stroke="black" stroke-width="2" d="M173.499,-71.8692C162.446,-62.9447 147.816,-51.1326 135.464,-41.1597"/>
<polygon fill="black" stroke="black" stroke-width="2" points="137.328,-38.1663 127.349,-34.6074 132.931,-43.6126 137.328,-38.1663"/>
</g>
<!-- 5&#45;&gt;1 -->
<g id="edge6" class="edge"><title>5&#45;&gt;1</title>
<path fill="none" stroke="black" stroke-width="2" d="M22.8874,-89.9643C23.9833,-104.124 25.4338,-122.865 26.6584,-138.688"/>
<polygon fill="black" stroke="black" stroke-width="2" points="23.2017,-139.383 27.463,-149.084 30.1809,-138.843 23.2017,-139.383"/>
</g>
<!-- 6&#45;&gt;3 -->
<g id="edge12" class="edge"><title>6&#45;&gt;3</title>
<path fill="none" stroke="black" stroke-width="2" d="M124.616,-197.937C122.616,-200.565 120.516,-203.327 118.416,-206.088"/>
<polygon fill="black" stroke="black" stroke-width="2" points="115.485,-204.16 112.216,-214.238 121.056,-208.398 115.485,-204.16"/>
</g>
<!-- 6&#45;&gt;4 -->
<g id="edge14" class="edge"><title>6&#45;&gt;4</title>
<path fill="none" stroke="black" stroke-width="2" d="M148.031,-162.023C155.766,-148.048 166.432,-128.778 175.126,-113.073"/>
<polygon fill="black" stroke="black" stroke-width="2" points="178.199,-114.748 179.979,-104.304 172.074,-111.358 178.199,-114.748"/>
</g>
<!-- 7&#45;&gt;2 -->
<g id="edge11" class="edge"><title>7&#45;&gt;2</title>
<path fill="none" stroke="black" stroke-width="2" d="M105.672,-96.0145C106.535,-83.319 107.647,-66.9757 108.611,-52.8055"/>
<polygon fill="black" stroke="black" stroke-width="2" points="112.126,-52.704 109.312,-42.4895 105.142,-52.2289 112.126,-52.704"/>
</g>
<!-- 7&#45;&gt;3 -->
<g id="edge13" class="edge"><title>7&#45;&gt;3</title>
<path fill="none" stroke="black" stroke-width="2" d="M103.284,-138.782C102.533,-155.971 101.468,-180.345 100.62,-199.76"/>
<polygon fill="black" stroke="black" stroke-width="2" points="97.1147,-199.815 100.175,-209.958 104.108,-200.121 97.1147,-199.815"/>
</g>
<!-- 7&#45;&gt;4 -->
<g id="edge15" class="edge"><title>7&#45;&gt;4</title>
<path fill="none" stroke="black" stroke-width="2" d="M124.205,-109.964C135.003,-105.973 148.548,-100.967 160.568,-96.5244"/>
<polygon fill="black" stroke="black" stroke-width="2" points="162.045,-99.71 170.211,-92.9602 159.618,-93.1441 162.045,-99.71"/>
</g>
<!-- 7&#45;&gt;5 -->
<g id="edge16" class="edge"><title>7&#45;&gt;5</title>
<path fill="none" stroke="black" stroke-width="2" d="M85.7984,-106.472C74.8368,-99.9986 60.7256,-91.6654 48.4908,-84.4404"/>
<polygon fill="black" stroke="black" stroke-width="2" points="49.9741,-81.2517 39.5837,-79.1805 46.4147,-87.2792 49.9741,-81.2517"/>
</g>
</g>
</svg>

