<?xml version="1.0" encoding="UTF-8" standalone="no"?>
<!DOCTYPE svg PUBLIC "-//W3C//DTD SVG 1.1//EN"
 "http://www.w3.org/Graphics/SVG/1.1/DTD/svg11.dtd">
<!-- Generated by graphviz version 2.36.0 (20140111.2315)
 -->
<!-- Title: G Pages: 1 -->
<svg width="100%" height="100%"
 viewBox="0.00 0.00 230.38 266.90" xmlns="http://www.w3.org/2000/svg" xmlns:xlink="http://www.w3.org/1999/xlink">
<g id="graph0" class="graph" transform="scale(1 1) rotate(0) translate(4 262.897)">
<title>G</title>
<!-- 0 -->
<g id="node1" class="node"><title>0</title>
<ellipse fill="cadetblue" stroke="black" cx="72.8393" cy="-218.383" rx="21.4286" ry="21.4286"/>
<text text-anchor="middle" x="72.8393" y="-213.383" font-family="Times New Roman,serif" font-size="20.00">2</text>
</g>
<!-- 5 -->
<g id="node6" class="node"><title>5</title>
<ellipse fill="cadetblue" stroke="black" cx="21.2132" cy="-90.6236" rx="21.4286" ry="21.4286"/>
<text text-anchor="middle" x="21.2132" y="-85.6236" font-family="Times New Roman,serif" font-size="20.00">2</text>
</g>
<!-- 0&#45;&gt;5 -->
<g id="edge3" class="edge"><title>0&#45;&gt;5</title>
<path fill="none" stroke="black" stroke-width="2" d="M59.2511,-201.997C53.689,-194.818 47.4592,-186.123 42.7124,-177.701 33.0884,-160.626 27.7308,-139.29 24.7708,-122.011"/>
<polygon fill="black" stroke="black" stroke-width="2" points="28.1891,-121.209 23.221,-111.852 21.2692,-122.265 28.1891,-121.209"/>
</g>
<!-- 7 -->
<g id="node8" class="node"><title>7</title>
<ellipse fill="cadetblue" stroke="black" cx="107.72" cy="-104.839" rx="21.4286" ry="21.4286"/>
<text text-anchor="middle" x="107.72" y="-99.8388" font-family="Times New Roman,serif" font-size="20.00">2</text>
</g>
<!-- 0&#45;&gt;7 -->
<g id="edge4" class="edge"><title>0&#45;&gt;7</title>
<path fill="none" stroke="black" stroke-width="2" d="M79.0752,-198.083C84.4483,-180.593 92.2819,-155.092 98.3995,-135.178"/>
<polygon fill="black" stroke="black" stroke-width="2" points="101.829,-135.932 101.42,-125.345 95.1378,-133.877 101.829,-135.932"/>
</g>
<!-- 1 -->
<g id="node2" class="node"><title>1</title>
<ellipse fill="cadetblue" stroke="black" cx="61.3801" cy="-159.169" rx="21.4286" ry="21.4286"/>
<text text-anchor="middle" x="61.3801" y="-154.169" font-family="Times New Roman,serif" font-size="20.00">2</text>
</g>
<!-- 6 -->
<g id="node7" class="node"><title>6</title>
<ellipse fill="brown" stroke="black" cx="190.03" cy="-117.396" rx="21.4286" ry="21.4286"/>
<text text-anchor="middle" x="190.03" y="-112.396" font-family="Times New Roman,serif" font-size="20.00">3</text>
</g>
<!-- 1&#45;&gt;6 -->
<g id="edge7" class="edge"><title>1&#45;&gt;6</title>
<path fill="none" stroke="black" stroke-width="2" d="M81.7651,-152.55C102.843,-145.706 135.979,-134.946 160.044,-127.132"/>
<polygon fill="black" stroke="black" stroke-width="2" points="161.31,-130.401 169.74,-123.984 159.148,-123.743 161.31,-130.401"/>
</g>
<!-- 1&#45;&gt;7 -->
<g id="edge8" class="edge"><title>1&#45;&gt;7</title>
<path fill="none" stroke="black" stroke-width="2" d="M75.2835,-142.868C79.0408,-138.463 83.1873,-133.601 87.2241,-128.868"/>
<polygon fill="black" stroke="black" stroke-width="2" points="89.9996,-131.008 93.826,-121.128 84.6737,-126.465 89.9996,-131.008"/>
</g>
<!-- 2 -->
<g id="node3" class="node"><title>2</title>
<ellipse fill="cadetblue" stroke="black" cx="122.77" cy="-21.2132" rx="21.4286" ry="21.4286"/>
<text text-anchor="middle" x="122.77" y="-16.2132" font-family="Times New Roman,serif" font-size="20.00">2</text>
</g>
<!-- 2&#45;&gt;6 -->
<g id="edge10" class="edge"><title>2&#45;&gt;6</title>
<path fill="none" stroke="black" stroke-width="2" d="M135.106,-38.8546C145.441,-53.633 160.333,-74.9285 172.003,-91.6177"/>
<polygon fill="black" stroke="black" stroke-width="2" points="169.173,-93.6771 177.772,-99.8663 174.909,-89.6655 169.173,-93.6771"/>
</g>
<!-- 3 -->
<g id="node4" class="node"><title>3</title>
<ellipse fill="cadetblue" stroke="black" cx="201.165" cy="-237.684" rx="21.4286" ry="21.4286"/>
<text text-anchor="middle" x="201.165" y="-232.684" font-family="Times New Roman,serif" font-size="20.00">2</text>
</g>
<!-- 3&#45;&gt;0 -->
<g id="edge1" class="edge"><title>3&#45;&gt;0</title>
<path fill="none" stroke="black" stroke-width="2" d="M179.974,-234.496C159.356,-231.395 127.78,-226.646 104.242,-223.106"/>
<polygon fill="black" stroke="black" stroke-width="2" points="104.47,-219.601 94.0611,-221.575 103.429,-226.523 104.47,-219.601"/>
</g>
<!-- 4 -->
<g id="node5" class="node"><title>4</title>
<ellipse fill="cadetblue" stroke="black" cx="150.733" cy="-193.734" rx="21.4286" ry="21.4286"/>
<text text-anchor="middle" x="150.733" y="-188.734" font-family="Times New Roman,serif" font-size="20.00">2</text>
</g>
<!-- 4&#45;&gt;0 -->
<g id="edge2" class="edge"><title>4&#45;&gt;0</title>
<path fill="none" stroke="black" stroke-width="2" d="M130.267,-200.21C121.86,-202.871 111.956,-206.005 102.762,-208.914"/>
<polygon fill="black" stroke="black" stroke-width="2" points="101.646,-205.596 93.1683,-211.95 103.758,-212.27 101.646,-205.596"/>
</g>
<!-- 4&#45;&gt;1 -->
<g id="edge5" class="edge"><title>4&#45;&gt;1</title>
<path fill="none" stroke="black" stroke-width="2" d="M130.903,-186.063C119.185,-181.53 104.124,-175.704 91.0177,-170.634"/>
<polygon fill="black" stroke="black" stroke-width="2" points="92.0533,-167.282 81.464,-166.938 89.5277,-173.81 92.0533,-167.282"/>
</g>
<!-- 4&#45;&gt;3 -->
<g id="edge12" class="edge"><title>4&#45;&gt;3</title>
<path fill="none" stroke="black" stroke-width="2" d="M166.968,-207.882C170.297,-210.783 173.867,-213.894 177.398,-216.972"/>
<polygon fill="black" stroke="black" stroke-width="2" points="175.122,-219.631 184.961,-223.562 179.721,-214.354 175.122,-219.631"/>
</g>
<!-- 5&#45;&gt;1 -->
<g id="edge6" class="edge"><title>5&#45;&gt;1</title>
<path fill="none" stroke="black" stroke-width="2" d="M31.9772,-108.992C36.1194,-116.061 40.9412,-124.29 45.4673,-132.014"/>
<polygon fill="black" stroke="black" stroke-width="2" points="42.5108,-133.891 50.5864,-140.749 48.5503,-130.352 42.5108,-133.891"/>
</g>
<!-- 5&#45;&gt;2 -->
<g id="edge9" class="edge"><title>5&#45;&gt;2</title>
<path fill="none" stroke="black" stroke-width="2" d="M38.903,-78.5332C54.8241,-67.6517 78.4319,-51.5165 96.5476,-39.1351"/>
<polygon fill="black" stroke="black" stroke-width="2" points="98.6608,-41.9302 104.942,-33.3979 94.7109,-36.151 98.6608,-41.9302"/>
</g>
<!-- 6&#45;&gt;3 -->
<g id="edge13" class="edge"><title>6&#45;&gt;3</title>
<path fill="none" stroke="black" stroke-width="2" d="M191.995,-138.624C193.726,-157.318 196.27,-184.803 198.239,-206.081"/>
<polygon fill="black" stroke="black" stroke-width="2" points="194.775,-206.628 199.182,-216.263 201.745,-205.983 194.775,-206.628"/>
</g>
<!-- 6&#45;&gt;4 -->
<g id="edge14" class="edge"><title>6&#45;&gt;4</title>
<path fill="none" stroke="black" stroke-width="2" d="M180.316,-136.266C175.735,-145.166 170.175,-155.966 165.118,-165.79"/>
<polygon fill="black" stroke="black" stroke-width="2" points="161.937,-164.323 160.471,-174.816 168.16,-167.527 161.937,-164.323"/>
</g>
<!-- 7&#45;&gt;2 -->
<g id="edge11" class="edge"><title>7&#45;&gt;2</title>
<path fill="none" stroke="black" stroke-width="2" d="M111.517,-83.7365C113.228,-74.2288 115.284,-62.8097 117.167,-52.3467"/>
<polygon fill="black" stroke="black" stroke-width="2" points="120.646,-52.7706 118.973,-42.3087 113.757,-51.5307 120.646,-52.7706"/>
</g>
<!-- 7&#45;&gt;4 -->
<g id="edge15" class="edge"><title>7&#45;&gt;4</title>
<path fill="none" stroke="black" stroke-width="2" d="M117.053,-124.128C122.859,-136.126 130.429,-151.772 136.922,-165.19"/>
<polygon fill="black" stroke="black" stroke-width="2" points="133.912,-167.005 141.418,-174.483 140.213,-163.956 133.912,-167.005"/>
</g>
<!-- 7&#45;&gt;5 -->
<g id="edge16" class="edge"><title>7&#45;&gt;5</title>
<path fill="none" stroke="black" stroke-width="2" d="M86.7788,-101.398C76.4422,-99.6991 63.7643,-97.6158 52.3208,-95.7354"/>
<polygon fill="black" stroke="black" stroke-width="2" points="52.6962,-92.2502 42.261,-94.0823 51.5611,-99.1575 52.6962,-92.2502"/>
</g>
<!-- 7&#45;&gt;6 -->
<g id="edge17" class="edge"><title>7&#45;&gt;6</title>
<path fill="none" stroke="black" stroke-width="2" d="M128.917,-108.073C138.038,-109.464 148.884,-111.119 158.89,-112.645"/>
<polygon fill="black" stroke="black" stroke-width="2" points="158.491,-116.125 168.905,-114.173 159.547,-109.205 158.491,-116.125"/>
</g>
</g>
</svg>

