<?xml version="1.0" encoding="UTF-8" standalone="no"?>
<!DOCTYPE svg PUBLIC "-//W3C//DTD SVG 1.1//EN"
 "http://www.w3.org/Graphics/SVG/1.1/DTD/svg11.dtd">
<!-- Generated by graphviz version 2.36.0 (20140111.2315)
 -->
<!-- Title: G Pages: 1 -->
<svg width="100%" height="100%"
 viewBox="0.00 0.00 247.43 229.83" xmlns="http://www.w3.org/2000/svg" xmlns:xlink="http://www.w3.org/1999/xlink">
<g id="graph0" class="graph" transform="scale(1 1) rotate(0) translate(4 225.832)">
<title>G</title>
<!-- 0 -->
<g id="node1" class="node"><title>0</title>
<ellipse fill="cadetblue" stroke="black" cx="178.23" cy="-140.568" rx="21.4286" ry="21.4286"/>
<text text-anchor="middle" x="178.23" y="-135.568" font-family="Times New Roman,serif" font-size="20.00">2</text>
</g>
<!-- 5 -->
<g id="node6" class="node"><title>5</title>
<ellipse fill="cadetblue" stroke="black" cx="61.9612" cy="-81.3843" rx="21.4286" ry="21.4286"/>
<text text-anchor="middle" x="61.9612" y="-76.3843" font-family="Times New Roman,serif" font-size="20.00">2</text>
</g>
<!-- 0&#45;&gt;5 -->
<g id="edge3" class="edge"><title>0&#45;&gt;5</title>
<path fill="none" stroke="black" stroke-width="2" d="M159.29,-130.928C140.457,-121.341 111.349,-106.524 89.8694,-95.5903"/>
<polygon fill="black" stroke="black" stroke-width="2" points="91.3921,-92.4381 80.8924,-91.0208 88.2165,-98.6764 91.3921,-92.4381"/>
</g>
<!-- 6 -->
<g id="node7" class="node"><title>6</title>
<ellipse fill="cadetblue" stroke="black" cx="91.0229" cy="-131.816" rx="21.4286" ry="21.4286"/>
<text text-anchor="middle" x="91.0229" y="-126.816" font-family="Times New Roman,serif" font-size="20.00">2</text>
</g>
<!-- 0&#45;&gt;6 -->
<g id="edge4" class="edge"><title>0&#45;&gt;6</title>
<path fill="none" stroke="black" stroke-width="2" d="M157.119,-138.45C146.699,-137.404 133.918,-136.121 122.382,-134.963"/>
<polygon fill="black" stroke="black" stroke-width="2" points="122.541,-131.462 112.241,-133.945 121.841,-138.427 122.541,-131.462"/>
</g>
<!-- 7 -->
<g id="node8" class="node"><title>7</title>
<ellipse fill="brown" stroke="black" cx="148.669" cy="-90.0951" rx="21.4286" ry="21.4286"/>
<text text-anchor="middle" x="148.669" y="-85.0951" font-family="Times New Roman,serif" font-size="20.00">3</text>
</g>
<!-- 0&#45;&gt;7 -->
<g id="edge5" class="edge"><title>0&#45;&gt;7</title>
<path fill="none" stroke="black" stroke-width="2" d="M167.39,-122.061C166.507,-120.552 165.603,-119.008 164.692,-117.454"/>
<polygon fill="black" stroke="black" stroke-width="2" points="167.581,-115.461 159.507,-108.601 161.541,-118.998 167.581,-115.461"/>
</g>
<!-- 1 -->
<g id="node2" class="node"><title>1</title>
<ellipse fill="cadetblue" stroke="black" cx="21.2132" cy="-175.552" rx="21.4286" ry="21.4286"/>
<text text-anchor="middle" x="21.2132" y="-170.552" font-family="Times New Roman,serif" font-size="20.00">2</text>
</g>
<!-- 1&#45;&gt;6 -->
<g id="edge8" class="edge"><title>1&#45;&gt;6</title>
<path fill="none" stroke="black" stroke-width="2" d="M39.1909,-164.289C46.7859,-159.531 55.7916,-153.889 64.1481,-148.653"/>
<polygon fill="black" stroke="black" stroke-width="2" points="66.2474,-151.468 72.8634,-143.193 62.531,-145.536 66.2474,-151.468"/>
</g>
<!-- 2 -->
<g id="node3" class="node"><title>2</title>
<ellipse fill="cadetblue" stroke="black" cx="118.798" cy="-21.2132" rx="21.4286" ry="21.4286"/>
<text text-anchor="middle" x="118.798" y="-16.2132" font-family="Times New Roman,serif" font-size="20.00">2</text>
</g>
<!-- 4 -->
<g id="node5" class="node"><title>4</title>
<ellipse fill="cadetblue" stroke="black" cx="218.222" cy="-45.7581" rx="21.4286" ry="21.4286"/>
<text text-anchor="middle" x="218.222" y="-40.7581" font-family="Times New Roman,serif" font-size="20.00">2</text>
</g>
<!-- 2&#45;&gt;4 -->
<g id="edge9" class="edge"><title>2&#45;&gt;4</title>
<path fill="none" stroke="black" stroke-width="2" d="M139.399,-26.2989C153.303,-29.7315 171.898,-34.3221 187.536,-38.1826"/>
<polygon fill="black" stroke="black" stroke-width="2" points="186.758,-41.5956 197.305,-40.5945 188.436,-34.7996 186.758,-41.5956"/>
</g>
<!-- 2&#45;&gt;7 -->
<g id="edge12" class="edge"><title>2&#45;&gt;7</title>
<path fill="none" stroke="black" stroke-width="2" d="M127.278,-40.7677C129.966,-46.9676 133.001,-53.9644 135.921,-60.6982"/>
<polygon fill="black" stroke="black" stroke-width="2" points="132.874,-62.4705 140.064,-70.2525 139.296,-59.6854 132.874,-62.4705"/>
</g>
<!-- 3 -->
<g id="node4" class="node"><title>3</title>
<ellipse fill="cadetblue" stroke="black" cx="120.891" cy="-200.619" rx="21.4286" ry="21.4286"/>
<text text-anchor="middle" x="120.891" y="-195.619" font-family="Times New Roman,serif" font-size="20.00">2</text>
</g>
<!-- 3&#45;&gt;0 -->
<g id="edge1" class="edge"><title>3&#45;&gt;0</title>
<path fill="none" stroke="black" stroke-width="2" d="M135.657,-185.155C141.895,-178.621 149.292,-170.875 156.156,-163.686"/>
<polygon fill="black" stroke="black" stroke-width="2" points="158.94,-165.839 163.314,-156.189 153.877,-161.005 158.94,-165.839"/>
</g>
<!-- 3&#45;&gt;1 -->
<g id="edge6" class="edge"><title>3&#45;&gt;1</title>
<path fill="none" stroke="black" stroke-width="2" d="M100.238,-195.425C86.2045,-191.896 67.4048,-187.169 51.6626,-183.21"/>
<polygon fill="black" stroke="black" stroke-width="2" points="52.3917,-179.784 41.8401,-180.74 50.6845,-186.573 52.3917,-179.784"/>
</g>
<!-- 4&#45;&gt;0 -->
<g id="edge2" class="edge"><title>4&#45;&gt;0</title>
<path fill="none" stroke="black" stroke-width="2" d="M209.935,-65.4028C204.305,-78.7508 196.762,-96.6325 190.446,-111.606"/>
<polygon fill="black" stroke="black" stroke-width="2" points="187.167,-110.375 186.505,-120.949 193.617,-113.095 187.167,-110.375"/>
</g>
<!-- 5&#45;&gt;1 -->
<g id="edge7" class="edge"><title>5&#45;&gt;1</title>
<path fill="none" stroke="black" stroke-width="2" d="M53.5182,-100.896C47.7815,-114.154 40.0962,-131.914 33.6608,-146.786"/>
<polygon fill="black" stroke="black" stroke-width="2" points="30.4046,-145.498 29.6454,-156.066 36.8289,-148.278 30.4046,-145.498"/>
</g>
<!-- 5&#45;&gt;2 -->
<g id="edge10" class="edge"><title>5&#45;&gt;2</title>
<path fill="none" stroke="black" stroke-width="2" d="M76.5981,-65.8887C82.7817,-59.3424 90.1138,-51.5801 96.9174,-44.3774"/>
<polygon fill="black" stroke="black" stroke-width="2" points="99.6907,-46.5384 104.013,-36.8654 94.602,-41.7316 99.6907,-46.5384"/>
</g>
<!-- 6&#45;&gt;2 -->
<g id="edge11" class="edge"><title>6&#45;&gt;2</title>
<path fill="none" stroke="black" stroke-width="2" d="M96.2471,-111.012C100.437,-94.3279 106.378,-70.6685 111.111,-51.823"/>
<polygon fill="black" stroke="black" stroke-width="2" points="114.556,-52.4748 113.597,-41.9234 107.767,-50.7698 114.556,-52.4748"/>
</g>
<!-- 6&#45;&gt;3 -->
<g id="edge13" class="edge"><title>6&#45;&gt;3</title>
<path fill="none" stroke="black" stroke-width="2" d="M99.502,-151.348C102.19,-157.541 105.224,-164.53 108.144,-171.256"/>
<polygon fill="black" stroke="black" stroke-width="2" points="105.094,-173.02 112.287,-180.799 111.515,-170.232 105.094,-173.02"/>
</g>
<!-- 6&#45;&gt;7 -->
<g id="edge17" class="edge"><title>6&#45;&gt;7</title>
<path fill="none" stroke="black" stroke-width="2" d="M108.319,-119.298C112.993,-115.915 118.151,-112.182 123.173,-108.548"/>
<polygon fill="black" stroke="black" stroke-width="2" points="125.336,-111.302 131.385,-102.604 121.232,-105.631 125.336,-111.302"/>
</g>
<!-- 7&#45;&gt;3 -->
<g id="edge14" class="edge"><title>7&#45;&gt;3</title>
<path fill="none" stroke="black" stroke-width="2" d="M143.444,-110.884C139.254,-127.556 133.312,-151.199 128.579,-170.031"/>
<polygon fill="black" stroke="black" stroke-width="2" points="125.136,-169.372 126.092,-179.924 131.924,-171.078 125.136,-169.372"/>
</g>
<!-- 7&#45;&gt;4 -->
<g id="edge15" class="edge"><title>7&#45;&gt;4</title>
<path fill="none" stroke="black" stroke-width="2" d="M166.58,-78.6772C174.147,-73.8536 183.12,-68.1339 191.446,-62.8266"/>
<polygon fill="black" stroke="black" stroke-width="2" points="193.578,-65.6181 200.129,-57.2914 189.815,-59.7154 193.578,-65.6181"/>
</g>
<!-- 7&#45;&gt;5 -->
<g id="edge16" class="edge"><title>7&#45;&gt;5</title>
<path fill="none" stroke="black" stroke-width="2" d="M127.235,-87.9418C116.945,-86.9081 104.42,-85.6497 93.1025,-84.5128"/>
<polygon fill="black" stroke="black" stroke-width="2" points="93.4478,-81.0299 83.148,-83.5127 92.7481,-87.9949 93.4478,-81.0299"/>
</g>
</g>
</svg>

