<?xml version="1.0" encoding="UTF-8" standalone="no"?>
<!DOCTYPE svg PUBLIC "-//W3C//DTD SVG 1.1//EN"
 "http://www.w3.org/Graphics/SVG/1.1/DTD/svg11.dtd">
<!-- Generated by graphviz version 2.36.0 (20140111.2315)
 -->
<!-- Title: G Pages: 1 -->
<svg width="100%" height="100%"
 viewBox="0.00 0.00 234.88 253.61" xmlns="http://www.w3.org/2000/svg" xmlns:xlink="http://www.w3.org/1999/xlink">
<g id="graph0" class="graph" transform="scale(1 1) rotate(0) translate(4 249.605)">
<title>G</title>
<!-- 0 -->
<g id="node1" class="node"><title>0</title>
<ellipse fill="cadetblue" stroke="black" cx="124.208" cy="-172.706" rx="21.4286" ry="21.4286"/>
<text text-anchor="middle" x="124.208" y="-167.706" font-family="Times New Roman,serif" font-size="20.00">2</text>
</g>
<!-- 5 -->
<g id="node6" class="node"><title>5</title>
<ellipse fill="cadetblue" stroke="black" cx="21.2132" cy="-109.338" rx="21.4286" ry="21.4286"/>
<text text-anchor="middle" x="21.2132" y="-104.338" font-family="Times New Roman,serif" font-size="20.00">2</text>
</g>
<!-- 0&#45;&gt;5 -->
<g id="edge3" class="edge"><title>0&#45;&gt;5</title>
<path fill="none" stroke="black" stroke-width="2" d="M105.795,-161.377C89.8303,-151.555 66.51,-137.207 48.3976,-126.063"/>
<polygon fill="black" stroke="black" stroke-width="2" points="49.8183,-122.828 39.4672,-120.569 46.1502,-128.79 49.8183,-122.828"/>
</g>
<!-- 6 -->
<g id="node7" class="node"><title>6</title>
<ellipse fill="cadetblue" stroke="black" cx="205.664" cy="-141.843" rx="21.4286" ry="21.4286"/>
<text text-anchor="middle" x="205.664" y="-136.843" font-family="Times New Roman,serif" font-size="20.00">2</text>
</g>
<!-- 0&#45;&gt;6 -->
<g id="edge4" class="edge"><title>0&#45;&gt;6</title>
<path fill="none" stroke="black" stroke-width="2" d="M144.343,-165.077C154.01,-161.415 165.777,-156.956 176.409,-152.928"/>
<polygon fill="black" stroke="black" stroke-width="2" points="177.649,-156.201 185.76,-149.385 175.169,-149.655 177.649,-156.201"/>
</g>
<!-- 1 -->
<g id="node2" class="node"><title>1</title>
<ellipse fill="cadetblue" stroke="black" cx="73.7765" cy="-189.216" rx="21.4286" ry="21.4286"/>
<text text-anchor="middle" x="73.7765" y="-184.216" font-family="Times New Roman,serif" font-size="20.00">2</text>
</g>
<!-- 1&#45;&gt;6 -->
<g id="edge7" class="edge"><title>1&#45;&gt;6</title>
<path fill="none" stroke="black" stroke-width="2" d="M86.7214,-171.98C92.0537,-165.736 98.6228,-159.015 105.625,-154.089 125.458,-140.137 153.135,-137.702 174.352,-138.404"/>
<polygon fill="black" stroke="black" stroke-width="2" points="174.298,-141.906 184.483,-138.987 174.701,-134.918 174.298,-141.906"/>
</g>
<!-- 7 -->
<g id="node8" class="node"><title>7</title>
<ellipse fill="cadetblue" stroke="black" cx="66.3151" cy="-50.9741" rx="21.4286" ry="21.4286"/>
<text text-anchor="middle" x="66.3151" y="-45.9741" font-family="Times New Roman,serif" font-size="20.00">2</text>
</g>
<!-- 1&#45;&gt;7 -->
<g id="edge8" class="edge"><title>1&#45;&gt;7</title>
<path fill="none" stroke="black" stroke-width="2" d="M72.627,-167.918C71.3982,-145.153 69.4368,-108.811 68.0264,-82.6803"/>
<polygon fill="black" stroke="black" stroke-width="2" points="71.5122,-82.3202 67.4782,-72.5234 64.5223,-82.6975 71.5122,-82.3202"/>
</g>
<!-- 2 -->
<g id="node3" class="node"><title>2</title>
<ellipse fill="cadetblue" stroke="black" cx="137.724" cy="-21.2132" rx="21.4286" ry="21.4286"/>
<text text-anchor="middle" x="137.724" y="-16.2132" font-family="Times New Roman,serif" font-size="20.00">2</text>
</g>
<!-- 4 -->
<g id="node5" class="node"><title>4</title>
<ellipse fill="cadetblue" stroke="black" cx="192.314" cy="-84.6756" rx="21.4286" ry="21.4286"/>
<text text-anchor="middle" x="192.314" y="-79.6756" font-family="Times New Roman,serif" font-size="20.00">2</text>
</g>
<!-- 2&#45;&gt;4 -->
<g id="edge9" class="edge"><title>2&#45;&gt;4</title>
<path fill="none" stroke="black" stroke-width="2" d="M151.782,-37.5564C157.721,-44.4607 164.764,-52.6477 171.298,-60.2443"/>
<polygon fill="black" stroke="black" stroke-width="2" points="168.939,-62.8685 178.113,-68.1673 174.246,-58.3037 168.939,-62.8685"/>
</g>
<!-- 2&#45;&gt;7 -->
<g id="edge12" class="edge"><title>2&#45;&gt;7</title>
<path fill="none" stroke="black" stroke-width="2" d="M117.833,-29.5033C110.869,-32.4057 102.899,-35.7272 95.3429,-38.8763"/>
<polygon fill="black" stroke="black" stroke-width="2" points="93.9839,-35.6508 86.0999,-42.7285 96.6768,-42.1122 93.9839,-35.6508"/>
</g>
<!-- 3 -->
<g id="node4" class="node"><title>3</title>
<ellipse fill="cadetblue" stroke="black" cx="190.585" cy="-224.392" rx="21.4286" ry="21.4286"/>
<text text-anchor="middle" x="190.585" y="-219.392" font-family="Times New Roman,serif" font-size="20.00">2</text>
</g>
<!-- 3&#45;&gt;0 -->
<g id="edge1" class="edge"><title>3&#45;&gt;0</title>
<path fill="none" stroke="black" stroke-width="2" d="M173.835,-211.35C166.346,-205.518 157.363,-198.523 149.11,-192.097"/>
<polygon fill="black" stroke="black" stroke-width="2" points="151.224,-189.307 141.183,-185.924 146.923,-194.83 151.224,-189.307"/>
</g>
<!-- 3&#45;&gt;1 -->
<g id="edge5" class="edge"><title>3&#45;&gt;1</title>
<path fill="none" stroke="black" stroke-width="2" d="M170.239,-218.265C151.926,-212.75 124.773,-204.573 103.937,-198.298"/>
<polygon fill="black" stroke="black" stroke-width="2" points="104.866,-194.923 94.2817,-195.391 102.848,-201.626 104.866,-194.923"/>
</g>
<!-- 4&#45;&gt;0 -->
<g id="edge2" class="edge"><title>4&#45;&gt;0</title>
<path fill="none" stroke="black" stroke-width="2" d="M179.182,-101.649C169.101,-114.68 155.025,-132.873 143.641,-147.588"/>
<polygon fill="black" stroke="black" stroke-width="2" points="140.65,-145.734 137.299,-155.785 146.186,-150.018 140.65,-145.734"/>
</g>
<!-- 4&#45;&gt;3 -->
<g id="edge13" class="edge"><title>4&#45;&gt;3</title>
<path fill="none" stroke="black" stroke-width="2" d="M185.829,-105.061C182.872,-115.858 179.904,-129.415 179.359,-141.812 178.606,-158.959 180.961,-177.946 183.706,-193.387"/>
<polygon fill="black" stroke="black" stroke-width="2" points="180.313,-194.282 185.635,-203.444 187.188,-192.963 180.313,-194.282"/>
</g>
<!-- 5&#45;&gt;1 -->
<g id="edge6" class="edge"><title>5&#45;&gt;1</title>
<path fill="none" stroke="black" stroke-width="2" d="M32.8787,-127.065C39.7718,-137.541 48.6317,-151.004 56.3417,-162.721"/>
<polygon fill="black" stroke="black" stroke-width="2" points="53.541,-164.832 61.9618,-171.262 59.3885,-160.984 53.541,-164.832"/>
</g>
<!-- 5&#45;&gt;2 -->
<g id="edge10" class="edge"><title>5&#45;&gt;2</title>
<path fill="none" stroke="black" stroke-width="2" d="M39.9265,-98.8829C52.9453,-91.3187 70.4854,-80.5381 84.9143,-69.575 95.3266,-61.6637 106.098,-52.0888 115.176,-43.5531"/>
<polygon fill="black" stroke="black" stroke-width="2" points="117.859,-45.8295 122.666,-36.3875 113.02,-40.7715 117.859,-45.8295"/>
</g>
<!-- 6&#45;&gt;2 -->
<g id="edge11" class="edge"><title>6&#45;&gt;2</title>
<path fill="none" stroke="black" stroke-width="2" d="M190.827,-126.02C184.975,-119.279 178.483,-111.127 173.531,-103.091 163.42,-86.6838 154.691,-66.9212 148.383,-50.9225"/>
<polygon fill="black" stroke="black" stroke-width="2" points="151.623,-49.5972 144.778,-41.5111 145.087,-52.1014 151.623,-49.5972"/>
</g>
<!-- 6&#45;&gt;3 -->
<g id="edge14" class="edge"><title>6&#45;&gt;3</title>
<path fill="none" stroke="black" stroke-width="2" d="M201.781,-163.102C200.097,-172.32 198.092,-183.296 196.247,-193.395"/>
<polygon fill="black" stroke="black" stroke-width="2" points="192.757,-193.025 194.403,-203.492 199.643,-194.283 192.757,-193.025"/>
</g>
<!-- 7&#45;&gt;4 -->
<g id="edge15" class="edge"><title>7&#45;&gt;4</title>
<path fill="none" stroke="black" stroke-width="2" d="M86.8394,-56.4639C107.249,-61.923 138.792,-70.36 162.07,-76.5862"/>
<polygon fill="black" stroke="black" stroke-width="2" points="161.233,-79.9854 171.798,-79.1882 163.042,-73.2231 161.233,-79.9854"/>
</g>
<!-- 7&#45;&gt;5 -->
<g id="edge16" class="edge"><title>7&#45;&gt;5</title>
<path fill="none" stroke="black" stroke-width="2" d="M53.2698,-67.8554C49.2844,-73.0126 44.8142,-78.7973 40.5061,-84.3722"/>
<polygon fill="black" stroke="black" stroke-width="2" points="37.7308,-82.2397 34.3855,-92.2925 43.2697,-86.52 37.7308,-82.2397"/>
</g>
</g>
</svg>

