<?xml version="1.0" encoding="UTF-8" standalone="no"?>
<!DOCTYPE svg PUBLIC "-//W3C//DTD SVG 1.1//EN"
 "http://www.w3.org/Graphics/SVG/1.1/DTD/svg11.dtd">
<!-- Generated by graphviz version 2.36.0 (20140111.2315)
 -->
<!-- Title: G Pages: 1 -->
<svg width="100%" height="100%"
 viewBox="0.00 0.00 284.77 292.52" xmlns="http://www.w3.org/2000/svg" xmlns:xlink="http://www.w3.org/1999/xlink">
<g id="graph0" class="graph" transform="scale(1 1) rotate(0) translate(4 288.524)">
<title>G</title>
<!-- 0 -->
<g id="node1" class="node"><title>0</title>
<ellipse fill="cadetblue" stroke="black" cx="206.729" cy="-181.266" rx="21.4286" ry="21.4286"/>
<text text-anchor="middle" x="206.729" y="-176.266" font-family="Times New Roman,serif" font-size="20.00">2</text>
</g>
<!-- 5 -->
<g id="node6" class="node"><title>5</title>
<ellipse fill="cadetblue" stroke="black" cx="44.9116" cy="-84.5715" rx="21.4286" ry="21.4286"/>
<text text-anchor="middle" x="44.9116" y="-79.5715" font-family="Times New Roman,serif" font-size="20.00">2</text>
</g>
<!-- 0&#45;&gt;5 -->
<g id="edge3" class="edge"><title>0&#45;&gt;5</title>
<path fill="none" stroke="black" stroke-width="2" d="M187.068,-173.026C173.342,-167.03 154.752,-158.418 139.115,-149.433 114.888,-135.514 88.8326,-117.299 70.2785,-103.717"/>
<polygon fill="black" stroke="black" stroke-width="2" points="72.1874,-100.776 62.0647,-97.6483 68.0275,-106.406 72.1874,-100.776"/>
</g>
<!-- 6 -->
<g id="node7" class="node"><title>6</title>
<ellipse fill="cadetblue" stroke="black" cx="91.3828" cy="-158.012" rx="21.4286" ry="21.4286"/>
<text text-anchor="middle" x="91.3828" y="-153.012" font-family="Times New Roman,serif" font-size="20.00">2</text>
</g>
<!-- 0&#45;&gt;6 -->
<g id="edge4" class="edge"><title>0&#45;&gt;6</title>
<path fill="none" stroke="black" stroke-width="2" d="M185.841,-177.055C168.15,-173.488 142.533,-168.324 122.439,-164.273"/>
<polygon fill="black" stroke="black" stroke-width="2" points="123,-160.816 112.506,-162.27 121.617,-167.678 123,-160.816"/>
</g>
<!-- 7 -->
<g id="node8" class="node"><title>7</title>
<ellipse fill="brown" stroke="black" cx="157.716" cy="-130.834" rx="21.4286" ry="21.4286"/>
<text text-anchor="middle" x="157.716" y="-125.834" font-family="Times New Roman,serif" font-size="20.00">3</text>
</g>
<!-- 0&#45;&gt;7 -->
<g id="edge5" class="edge"><title>0&#45;&gt;7</title>
<path fill="none" stroke="black" stroke-width="2" d="M191.757,-165.861C187.957,-161.95 183.794,-157.667 179.724,-153.479"/>
<polygon fill="black" stroke="black" stroke-width="2" points="182.076,-150.877 172.596,-146.145 177.056,-155.756 182.076,-150.877"/>
</g>
<!-- 1 -->
<g id="node2" class="node"><title>1</title>
<ellipse fill="cadetblue" stroke="black" cx="21.2132" cy="-206.623" rx="21.4286" ry="21.4286"/>
<text text-anchor="middle" x="21.2132" y="-201.623" font-family="Times New Roman,serif" font-size="20.00">2</text>
</g>
<!-- 1&#45;&gt;7 -->
<g id="edge8" class="edge"><title>1&#45;&gt;7</title>
<path fill="none" stroke="black" stroke-width="2" d="M42.2622,-202.651C61.1288,-198.391 88.9835,-190.318 109.961,-176.634 119.342,-170.515 128.504,-162.413 136.254,-154.727"/>
<polygon fill="black" stroke="black" stroke-width="2" points="139.038,-156.883 143.488,-147.268 134.013,-152.01 139.038,-156.883"/>
</g>
<!-- 2 -->
<g id="node3" class="node"><title>2</title>
<ellipse fill="cadetblue" stroke="black" cx="136.908" cy="-21.2132" rx="21.4286" ry="21.4286"/>
<text text-anchor="middle" x="136.908" y="-16.2132" font-family="Times New Roman,serif" font-size="20.00">2</text>
</g>
<!-- 4 -->
<g id="node5" class="node"><title>4</title>
<ellipse fill="cadetblue" stroke="black" cx="255.554" cy="-66.0416" rx="21.4286" ry="21.4286"/>
<text text-anchor="middle" x="255.554" y="-61.0416" font-family="Times New Roman,serif" font-size="20.00">2</text>
</g>
<!-- 2&#45;&gt;4 -->
<g id="edge9" class="edge"><title>2&#45;&gt;4</title>
<path fill="none" stroke="black" stroke-width="2" d="M156.766,-28.7165C175.759,-35.8925 204.629,-46.8003 226.262,-54.974"/>
<polygon fill="black" stroke="black" stroke-width="2" points="225.039,-58.2535 235.631,-58.5139 227.513,-51.7053 225.039,-58.2535"/>
</g>
<!-- 2&#45;&gt;7 -->
<g id="edge12" class="edge"><title>2&#45;&gt;7</title>
<path fill="none" stroke="black" stroke-width="2" d="M140.871,-42.0901C143.96,-58.3676 148.3,-81.2278 151.8,-99.6697"/>
<polygon fill="black" stroke="black" stroke-width="2" points="148.394,-100.49 153.697,-109.662 155.271,-99.1845 148.394,-100.49"/>
</g>
<!-- 3 -->
<g id="node4" class="node"><title>3</title>
<ellipse fill="cadetblue" stroke="black" cx="130.889" cy="-263.311" rx="21.4286" ry="21.4286"/>
<text text-anchor="middle" x="130.889" y="-258.311" font-family="Times New Roman,serif" font-size="20.00">2</text>
</g>
<!-- 3&#45;&gt;0 -->
<g id="edge1" class="edge"><title>3&#45;&gt;0</title>
<path fill="none" stroke="black" stroke-width="2" d="M145.512,-247.492C156.738,-235.347 172.412,-218.391 185.09,-204.676"/>
<polygon fill="black" stroke="black" stroke-width="2" points="187.933,-206.756 192.151,-197.036 182.793,-202.004 187.933,-206.756"/>
</g>
<!-- 3&#45;&gt;1 -->
<g id="edge6" class="edge"><title>3&#45;&gt;1</title>
<path fill="none" stroke="black" stroke-width="2" d="M111.785,-253.437C94.4853,-244.495 68.7824,-231.21 49.1722,-221.074"/>
<polygon fill="black" stroke="black" stroke-width="2" points="50.5889,-217.867 40.0983,-216.384 47.3747,-224.085 50.5889,-217.867"/>
</g>
<!-- 4&#45;&gt;0 -->
<g id="edge2" class="edge"><title>4&#45;&gt;0</title>
<path fill="none" stroke="black" stroke-width="2" d="M247.272,-85.5878C239.521,-103.879 227.844,-131.437 219.009,-152.286"/>
<polygon fill="black" stroke="black" stroke-width="2" points="215.731,-151.051 215.052,-161.624 222.177,-153.782 215.731,-151.051"/>
</g>
<!-- 5&#45;&gt;1 -->
<g id="edge7" class="edge"><title>5&#45;&gt;1</title>
<path fill="none" stroke="black" stroke-width="2" d="M40.8377,-105.553C37.0904,-124.852 31.4857,-153.717 27.2242,-175.665"/>
<polygon fill="black" stroke="black" stroke-width="2" points="23.7836,-175.023 25.3132,-185.507 30.6552,-176.357 23.7836,-175.023"/>
</g>
<!-- 5&#45;&gt;2 -->
<g id="edge10" class="edge"><title>5&#45;&gt;2</title>
<path fill="none" stroke="black" stroke-width="2" d="M62.6493,-72.3554C76.2671,-62.9767 95.2802,-49.8823 110.658,-39.2913"/>
<polygon fill="black" stroke="black" stroke-width="2" points="112.974,-41.9464 119.224,-33.3918 109.003,-36.1814 112.974,-41.9464"/>
</g>
<!-- 6&#45;&gt;2 -->
<g id="edge11" class="edge"><title>6&#45;&gt;2</title>
<path fill="none" stroke="black" stroke-width="2" d="M98.1002,-137.827C105.699,-114.994 118.151,-77.576 126.896,-51.2972"/>
<polygon fill="black" stroke="black" stroke-width="2" points="130.326,-52.0747 130.163,-41.4811 123.684,-49.8643 130.326,-52.0747"/>
</g>
<!-- 6&#45;&gt;3 -->
<g id="edge13" class="edge"><title>6&#45;&gt;3</title>
<path fill="none" stroke="black" stroke-width="2" d="M99,-178.315C104.885,-194.002 113.117,-215.943 119.743,-233.604"/>
<polygon fill="black" stroke="black" stroke-width="2" points="116.639,-235.295 123.429,-243.428 123.193,-232.836 116.639,-235.295"/>
</g>
<!-- 6&#45;&gt;5 -->
<g id="edge16" class="edge"><title>6&#45;&gt;5</title>
<path fill="none" stroke="black" stroke-width="2" d="M79.8955,-139.858C74.4368,-131.231 67.8041,-120.75 61.7877,-111.242"/>
<polygon fill="black" stroke="black" stroke-width="2" points="64.5715,-109.095 56.2667,-102.516 58.6563,-112.838 64.5715,-109.095"/>
</g>
<!-- 7&#45;&gt;3 -->
<g id="edge14" class="edge"><title>7&#45;&gt;3</title>
<path fill="none" stroke="black" stroke-width="2" d="M153.465,-151.826C149.07,-173.531 142.16,-207.653 137.142,-232.433"/>
<polygon fill="black" stroke="black" stroke-width="2" points="133.674,-231.922 135.12,-242.418 140.535,-233.312 133.674,-231.922"/>
</g>
<!-- 7&#45;&gt;4 -->
<g id="edge15" class="edge"><title>7&#45;&gt;4</title>
<path fill="none" stroke="black" stroke-width="2" d="M175.661,-118.95C190.694,-108.995 212.356,-94.6495 229.332,-83.4069"/>
<polygon fill="black" stroke="black" stroke-width="2" points="231.318,-86.2899 237.723,-77.8503 227.453,-80.4536 231.318,-86.2899"/>
</g>
<!-- 7&#45;&gt;6 -->
<g id="edge17" class="edge"><title>7&#45;&gt;6</title>
<path fill="none" stroke="black" stroke-width="2" d="M137.814,-138.989C132.435,-141.192 126.5,-143.624 120.721,-145.992"/>
<polygon fill="black" stroke="black" stroke-width="2" points="119.197,-142.833 111.271,-149.864 121.851,-149.311 119.197,-142.833"/>
</g>
</g>
</svg>

