<?xml version="1.0" encoding="UTF-8" standalone="no"?>
<!DOCTYPE svg PUBLIC "-//W3C//DTD SVG 1.1//EN"
 "http://www.w3.org/Graphics/SVG/1.1/DTD/svg11.dtd">
<!-- Generated by graphviz version 2.36.0 (20140111.2315)
 -->
<!-- Title: G Pages: 1 -->
<svg width="100%" height="100%"
 viewBox="0.00 0.00 307.09 273.12" xmlns="http://www.w3.org/2000/svg" xmlns:xlink="http://www.w3.org/1999/xlink">
<g id="graph0" class="graph" transform="scale(1 1) rotate(0) translate(4 269.118)">
<title>G</title>
<!-- 0 -->
<g id="node1" class="node"><title>0</title>
<ellipse fill="cadetblue" stroke="black" cx="163.809" cy="-189.388" rx="21.4286" ry="21.4286"/>
<text text-anchor="middle" x="163.809" y="-184.388" font-family="Times New Roman,serif" font-size="20.00">2</text>
</g>
<!-- 5 -->
<g id="node6" class="node"><title>5</title>
<ellipse fill="cadetblue" stroke="black" cx="21.2132" cy="-153.418" rx="21.4286" ry="21.4286"/>
<text text-anchor="middle" x="21.2132" y="-148.418" font-family="Times New Roman,serif" font-size="20.00">2</text>
</g>
<!-- 0&#45;&gt;5 -->
<g id="edge3" class="edge"><title>0&#45;&gt;5</title>
<path fill="none" stroke="black" stroke-width="2" d="M143.074,-184.158C119.102,-178.11 79.4166,-168.1 51.8756,-161.152"/>
<polygon fill="black" stroke="black" stroke-width="2" points="52.5252,-157.707 41.9729,-158.654 50.813,-164.494 52.5252,-157.707"/>
</g>
<!-- 6 -->
<g id="node7" class="node"><title>6</title>
<ellipse fill="cadetblue" stroke="black" cx="231.26" cy="-56.9605" rx="21.4286" ry="21.4286"/>
<text text-anchor="middle" x="231.26" y="-51.9605" font-family="Times New Roman,serif" font-size="20.00">2</text>
</g>
<!-- 0&#45;&gt;6 -->
<g id="edge4" class="edge"><title>0&#45;&gt;6</title>
<path fill="none" stroke="black" stroke-width="2" d="M173.473,-170.414C184.843,-148.092 203.826,-110.822 216.914,-85.1255"/>
<polygon fill="black" stroke="black" stroke-width="2" points="220.194,-86.3982 221.614,-75.899 213.956,-83.2212 220.194,-86.3982"/>
</g>
<!-- 7 -->
<g id="node8" class="node"><title>7</title>
<ellipse fill="brown" stroke="black" cx="37.464" cy="-83.3202" rx="21.4286" ry="21.4286"/>
<text text-anchor="middle" x="37.464" y="-78.3202" font-family="Times New Roman,serif" font-size="20.00">3</text>
</g>
<!-- 0&#45;&gt;7 -->
<g id="edge5" class="edge"><title>0&#45;&gt;7</title>
<path fill="none" stroke="black" stroke-width="2" d="M143.821,-181.547C130.969,-175.952 114.321,-167.636 101.405,-157.489 83.8087,-143.664 67.4035,-124.448 55.6164,-109.04"/>
<polygon fill="black" stroke="black" stroke-width="2" points="58.3504,-106.851 49.5649,-100.93 52.7401,-111.038 58.3504,-106.851"/>
</g>
<!-- 1 -->
<g id="node2" class="node"><title>1</title>
<ellipse fill="cadetblue" stroke="black" cx="120.073" cy="-138.956" rx="21.4286" ry="21.4286"/>
<text text-anchor="middle" x="120.073" y="-133.956" font-family="Times New Roman,serif" font-size="20.00">2</text>
</g>
<!-- 1&#45;&gt;6 -->
<g id="edge8" class="edge"><title>1&#45;&gt;6</title>
<path fill="none" stroke="black" stroke-width="2" d="M137.446,-126.145C155.805,-112.606 184.942,-91.1183 205.874,-75.6817"/>
<polygon fill="black" stroke="black" stroke-width="2" points="208.038,-78.4346 214.009,-69.6824 203.883,-72.8008 208.038,-78.4346"/>
</g>
<!-- 1&#45;&gt;7 -->
<g id="edge9" class="edge"><title>1&#45;&gt;7</title>
<path fill="none" stroke="black" stroke-width="2" d="M102.148,-126.884C90.8125,-119.25 75.9744,-109.257 63.3694,-100.767"/>
<polygon fill="black" stroke="black" stroke-width="2" points="65.3196,-97.8609 55.0701,-95.1777 61.4092,-103.667 65.3196,-97.8609"/>
</g>
<!-- 2 -->
<g id="node3" class="node"><title>2</title>
<ellipse fill="cadetblue" stroke="black" cx="135.303" cy="-21.2132" rx="21.4286" ry="21.4286"/>
<text text-anchor="middle" x="135.303" y="-16.2132" font-family="Times New Roman,serif" font-size="20.00">2</text>
</g>
<!-- 4 -->
<g id="node5" class="node"><title>4</title>
<ellipse fill="cadetblue" stroke="black" cx="277.873" cy="-131.188" rx="21.4286" ry="21.4286"/>
<text text-anchor="middle" x="277.873" y="-126.188" font-family="Times New Roman,serif" font-size="20.00">2</text>
</g>
<!-- 2&#45;&gt;4 -->
<g id="edge10" class="edge"><title>2&#45;&gt;4</title>
<path fill="none" stroke="black" stroke-width="2" d="M152.217,-34.2607C177.191,-53.5248 224.084,-89.6971 252.986,-111.991"/>
<polygon fill="black" stroke="black" stroke-width="2" points="250.925,-114.821 260.98,-118.158 255.2,-109.279 250.925,-114.821"/>
</g>
<!-- 2&#45;&gt;7 -->
<g id="edge13" class="edge"><title>2&#45;&gt;7</title>
<path fill="none" stroke="black" stroke-width="2" d="M117.357,-32.6046C102.556,-42.0006 81.3267,-55.4766 64.4719,-66.1758"/>
<polygon fill="black" stroke="black" stroke-width="2" points="62.1936,-63.4764 55.6267,-71.7907 65.9451,-69.3863 62.1936,-63.4764"/>
</g>
<!-- 3 -->
<g id="node4" class="node"><title>3</title>
<ellipse fill="cadetblue" stroke="black" cx="56.0022" cy="-243.905" rx="21.4286" ry="21.4286"/>
<text text-anchor="middle" x="56.0022" y="-238.905" font-family="Times New Roman,serif" font-size="20.00">2</text>
</g>
<!-- 3&#45;&gt;0 -->
<g id="edge1" class="edge"><title>3&#45;&gt;0</title>
<path fill="none" stroke="black" stroke-width="2" d="M75.2759,-234.159C92.0627,-225.67 116.62,-213.251 135.615,-203.645"/>
<polygon fill="black" stroke="black" stroke-width="2" points="137.358,-206.686 144.702,-199.05 134.199,-200.44 137.358,-206.686"/>
</g>
<!-- 3&#45;&gt;1 -->
<g id="edge6" class="edge"><title>3&#45;&gt;1</title>
<path fill="none" stroke="black" stroke-width="2" d="M67.1624,-225.624C77.2068,-209.172 92.1007,-184.775 103.53,-166.054"/>
<polygon fill="black" stroke="black" stroke-width="2" points="106.602,-167.739 108.825,-157.38 100.627,-164.091 106.602,-167.739"/>
</g>
<!-- 4&#45;&gt;0 -->
<g id="edge2" class="edge"><title>4&#45;&gt;0</title>
<path fill="none" stroke="black" stroke-width="2" d="M258.781,-140.93C240.522,-150.246 212.768,-164.408 191.97,-175.019"/>
<polygon fill="black" stroke="black" stroke-width="2" points="190.28,-171.952 182.963,-179.615 193.461,-178.187 190.28,-171.952"/>
</g>
<!-- 5&#45;&gt;1 -->
<g id="edge7" class="edge"><title>5&#45;&gt;1</title>
<path fill="none" stroke="black" stroke-width="2" d="M42.6642,-150.28C56.2294,-148.295 73.9865,-145.698 89.0712,-143.491"/>
<polygon fill="black" stroke="black" stroke-width="2" points="89.615,-146.949 99.0031,-142.039 88.6018,-140.023 89.615,-146.949"/>
</g>
<!-- 5&#45;&gt;2 -->
<g id="edge11" class="edge"><title>5&#45;&gt;2</title>
<path fill="none" stroke="black" stroke-width="2" d="M35.2028,-137.207C55.0468,-114.212 91.5096,-71.9596 114.522,-45.2934"/>
<polygon fill="black" stroke="black" stroke-width="2" points="117.315,-47.4141 121.199,-37.5567 112.015,-42.8407 117.315,-47.4141"/>
</g>
<!-- 5&#45;&gt;3 -->
<g id="edge14" class="edge"><title>5&#45;&gt;3</title>
<path fill="none" stroke="black" stroke-width="2" d="M28.934,-173.5C33.5281,-185.449 39.4422,-200.832 44.57,-214.169"/>
<polygon fill="black" stroke="black" stroke-width="2" points="41.4475,-215.801 48.303,-223.879 47.9813,-213.289 41.4475,-215.801"/>
</g>
<!-- 6&#45;&gt;2 -->
<g id="edge12" class="edge"><title>6&#45;&gt;2</title>
<path fill="none" stroke="black" stroke-width="2" d="M211.378,-49.5537C197.958,-44.5545 180.011,-37.8686 164.919,-32.2463"/>
<polygon fill="black" stroke="black" stroke-width="2" points="166.082,-28.9448 155.49,-28.7336 163.639,-35.5044 166.082,-28.9448"/>
</g>
<!-- 6&#45;&gt;4 -->
<g id="edge16" class="edge"><title>6&#45;&gt;4</title>
<path fill="none" stroke="black" stroke-width="2" d="M242.544,-74.9291C248.113,-83.7986 254.945,-94.6769 261.111,-104.496"/>
<polygon fill="black" stroke="black" stroke-width="2" points="258.249,-106.521 266.532,-113.128 264.178,-102.798 258.249,-106.521"/>
</g>
<!-- 7&#45;&gt;3 -->
<g id="edge15" class="edge"><title>7&#45;&gt;3</title>
<path fill="none" stroke="black" stroke-width="2" d="M40.768,-104.486C42.8728,-118.403 45.5616,-137.026 47.5173,-153.535 49.8355,-173.103 51.9134,-195.117 53.4327,-212.518"/>
<polygon fill="black" stroke="black" stroke-width="2" points="49.9635,-213.028 54.3037,-222.693 56.938,-212.431 49.9635,-213.028"/>
</g>
<!-- 7&#45;&gt;5 -->
<g id="edge17" class="edge"><title>7&#45;&gt;5</title>
<path fill="none" stroke="black" stroke-width="2" d="M32.5882,-104.352C31.2706,-110.035 29.8164,-116.308 28.4008,-122.414"/>
<polygon fill="black" stroke="black" stroke-width="2" points="24.9345,-121.869 26.0855,-132.401 31.7536,-123.45 24.9345,-121.869"/>
</g>
</g>
</svg>

