<?xml version="1.0" encoding="UTF-8" standalone="no"?>
<!DOCTYPE svg PUBLIC "-//W3C//DTD SVG 1.1//EN"
 "http://www.w3.org/Graphics/SVG/1.1/DTD/svg11.dtd">
<!-- Generated by graphviz version 2.36.0 (20140111.2315)
 -->
<!-- Title: G Pages: 1 -->
<svg width="100%" height="100%"
 viewBox="0.00 0.00 262.82 279.78" xmlns="http://www.w3.org/2000/svg" xmlns:xlink="http://www.w3.org/1999/xlink">
<g id="graph0" class="graph" transform="scale(1 1) rotate(0) translate(4 275.781)">
<title>G</title>
<!-- 0 -->
<g id="node1" class="node"><title>0</title>
<ellipse fill="cadetblue" stroke="black" cx="130.988" cy="-250.567" rx="21.4286" ry="21.4286"/>
<text text-anchor="middle" x="130.988" y="-245.567" font-family="Times New Roman,serif" font-size="20.00">2</text>
</g>
<!-- 6 -->
<g id="node7" class="node"><title>6</title>
<ellipse fill="cadetblue" stroke="black" cx="81.8653" cy="-123.763" rx="21.4286" ry="21.4286"/>
<text text-anchor="middle" x="81.8653" y="-118.763" font-family="Times New Roman,serif" font-size="20.00">2</text>
</g>
<!-- 0&#45;&gt;6 -->
<g id="edge3" class="edge"><title>0&#45;&gt;6</title>
<path fill="none" stroke="black" stroke-width="2" d="M123.312,-230.754C115.285,-210.032 102.592,-177.268 93.3668,-153.453"/>
<polygon fill="black" stroke="black" stroke-width="2" points="96.5249,-151.916 89.6489,-143.855 89.9976,-154.445 96.5249,-151.916"/>
</g>
<!-- 7 -->
<g id="node8" class="node"><title>7</title>
<ellipse fill="cadetblue" stroke="black" cx="132.297" cy="-173.174" rx="21.4286" ry="21.4286"/>
<text text-anchor="middle" x="132.297" y="-168.174" font-family="Times New Roman,serif" font-size="20.00">2</text>
</g>
<!-- 0&#45;&gt;7 -->
<g id="edge4" class="edge"><title>0&#45;&gt;7</title>
<path fill="none" stroke="black" stroke-width="2" d="M131.352,-229.009C131.48,-221.461 131.626,-212.824 131.765,-204.634"/>
<polygon fill="black" stroke="black" stroke-width="2" points="135.264,-204.675 131.934,-194.617 128.265,-204.556 135.264,-204.675"/>
</g>
<!-- 1 -->
<g id="node2" class="node"><title>1</title>
<ellipse fill="cadetblue" stroke="black" cx="182.81" cy="-79.9331" rx="21.4286" ry="21.4286"/>
<text text-anchor="middle" x="182.81" y="-74.9331" font-family="Times New Roman,serif" font-size="20.00">2</text>
</g>
<!-- 5 -->
<g id="node6" class="node"><title>5</title>
<ellipse fill="cadetblue" stroke="black" cx="56.0195" cy="-63.744" rx="21.4286" ry="21.4286"/>
<text text-anchor="middle" x="56.0195" y="-58.744" font-family="Times New Roman,serif" font-size="20.00">2</text>
</g>
<!-- 1&#45;&gt;5 -->
<g id="edge6" class="edge"><title>1&#45;&gt;5</title>
<path fill="none" stroke="black" stroke-width="2" d="M161.588,-77.2234C141.291,-74.6319 110.44,-70.6927 87.3225,-67.7409"/>
<polygon fill="black" stroke="black" stroke-width="2" points="87.6734,-64.2574 77.3106,-66.4625 86.7867,-71.201 87.6734,-64.2574"/>
</g>
<!-- 1&#45;&gt;7 -->
<g id="edge8" class="edge"><title>1&#45;&gt;7</title>
<path fill="none" stroke="black" stroke-width="2" d="M172.588,-98.8019C165.33,-112.198 155.469,-130.402 147.318,-145.446"/>
<polygon fill="black" stroke="black" stroke-width="2" points="144.19,-143.874 142.504,-154.334 150.344,-147.208 144.19,-143.874"/>
</g>
<!-- 2 -->
<g id="node3" class="node"><title>2</title>
<ellipse fill="cadetblue" stroke="black" cx="158.194" cy="-21.2132" rx="21.4286" ry="21.4286"/>
<text text-anchor="middle" x="158.194" y="-16.2132" font-family="Times New Roman,serif" font-size="20.00">2</text>
</g>
<!-- 4 -->
<g id="node5" class="node"><title>4</title>
<ellipse fill="cadetblue" stroke="black" cx="233.603" cy="-157.088" rx="21.4286" ry="21.4286"/>
<text text-anchor="middle" x="233.603" y="-152.088" font-family="Times New Roman,serif" font-size="20.00">2</text>
</g>
<!-- 2&#45;&gt;4 -->
<g id="edge9" class="edge"><title>2&#45;&gt;4</title>
<path fill="none" stroke="black" stroke-width="2" d="M175.502,-34.2659C184.19,-41.5078 194.354,-51.117 201.477,-61.401 214.987,-80.9061 223.193,-106.546 227.926,-126.374"/>
<polygon fill="black" stroke="black" stroke-width="2" points="224.512,-127.146 230.095,-136.151 231.346,-125.63 224.512,-127.146"/>
</g>
<!-- 3 -->
<g id="node4" class="node"><title>3</title>
<ellipse fill="brown" stroke="black" cx="21.2132" cy="-194.381" rx="21.4286" ry="21.4286"/>
<text text-anchor="middle" x="21.2132" y="-189.381" font-family="Times New Roman,serif" font-size="20.00">3</text>
</g>
<!-- 3&#45;&gt;0 -->
<g id="edge1" class="edge"><title>3&#45;&gt;0</title>
<path fill="none" stroke="black" stroke-width="2" d="M40.3345,-204.168C57.6495,-213.031 83.3756,-226.198 103.004,-236.244"/>
<polygon fill="black" stroke="black" stroke-width="2" points="101.589,-239.452 112.086,-240.893 104.779,-233.221 101.589,-239.452"/>
</g>
<!-- 4&#45;&gt;0 -->
<g id="edge2" class="edge"><title>4&#45;&gt;0</title>
<path fill="none" stroke="black" stroke-width="2" d="M217.57,-171.694C200.626,-187.129 173.735,-211.626 154.417,-229.224"/>
<polygon fill="black" stroke="black" stroke-width="2" points="151.944,-226.742 146.909,-236.064 156.658,-231.917 151.944,-226.742"/>
</g>
<!-- 4&#45;&gt;1 -->
<g id="edge5" class="edge"><title>4&#45;&gt;1</title>
<path fill="none" stroke="black" stroke-width="2" d="M221.823,-139.193C215.412,-129.455 207.358,-117.221 200.234,-106.401"/>
<polygon fill="black" stroke="black" stroke-width="2" points="202.949,-104.159 194.526,-97.7309 197.102,-108.008 202.949,-104.159"/>
</g>
<!-- 5&#45;&gt;2 -->
<g id="edge10" class="edge"><title>5&#45;&gt;2</title>
<path fill="none" stroke="black" stroke-width="2" d="M75.7199,-55.5436C90.8444,-49.248 111.961,-40.458 129.041,-33.3486"/>
<polygon fill="black" stroke="black" stroke-width="2" points="130.667,-36.4626 138.554,-29.3884 127.977,-30.0001 130.667,-36.4626"/>
</g>
<!-- 5&#45;&gt;3 -->
<g id="edge12" class="edge"><title>5&#45;&gt;3</title>
<path fill="none" stroke="black" stroke-width="2" d="M50.5044,-84.4438C44.8016,-105.848 35.8367,-139.495 29.326,-163.932"/>
<polygon fill="black" stroke="black" stroke-width="2" points="25.8952,-163.214 26.7026,-173.778 32.6592,-165.016 25.8952,-163.214"/>
</g>
<!-- 6&#45;&gt;1 -->
<g id="edge7" class="edge"><title>6&#45;&gt;1</title>
<path fill="none" stroke="black" stroke-width="2" d="M101.328,-115.312C116.175,-108.866 136.866,-99.8817 153.682,-92.5802"/>
<polygon fill="black" stroke="black" stroke-width="2" points="155.283,-95.7008 163.062,-88.5076 152.495,-89.2799 155.283,-95.7008"/>
</g>
<!-- 6&#45;&gt;2 -->
<g id="edge11" class="edge"><title>6&#45;&gt;2</title>
<path fill="none" stroke="black" stroke-width="2" d="M94.8134,-106.367C107.059,-89.9145 125.574,-65.0395 139.435,-46.4164"/>
<polygon fill="black" stroke="black" stroke-width="2" points="142.274,-48.4641 145.437,-38.3524 136.659,-44.2845 142.274,-48.4641"/>
</g>
<!-- 6&#45;&gt;3 -->
<g id="edge13" class="edge"><title>6&#45;&gt;3</title>
<path fill="none" stroke="black" stroke-width="2" d="M67.798,-140.142C60.0664,-149.144 50.333,-160.477 41.7651,-170.452"/>
<polygon fill="black" stroke="black" stroke-width="2" points="39.0645,-168.225 35.2042,-178.091 44.3748,-172.786 39.0645,-168.225"/>
</g>
<!-- 7&#45;&gt;3 -->
<g id="edge14" class="edge"><title>7&#45;&gt;3</title>
<path fill="none" stroke="black" stroke-width="2" d="M111.403,-177.163C94.752,-180.342 71.1841,-184.841 52.3161,-188.443"/>
<polygon fill="black" stroke="black" stroke-width="2" points="51.5574,-185.025 42.3912,-190.338 52.8701,-191.901 51.5574,-185.025"/>
</g>
<!-- 7&#45;&gt;4 -->
<g id="edge15" class="edge"><title>7&#45;&gt;4</title>
<path fill="none" stroke="black" stroke-width="2" d="M153.288,-169.841C167.55,-167.576 186.657,-164.542 202.656,-162.002"/>
<polygon fill="black" stroke="black" stroke-width="2" points="203.312,-165.442 212.64,-160.417 202.214,-158.528 203.312,-165.442"/>
</g>
<!-- 7&#45;&gt;5 -->
<g id="edge16" class="edge"><title>7&#45;&gt;5</title>
<path fill="none" stroke="black" stroke-width="2" d="M125.235,-153.033C119.73,-138.887 111.223,-119.937 100.487,-105.185 94.9531,-97.5804 87.8826,-90.248 81.0163,-83.9199"/>
<polygon fill="black" stroke="black" stroke-width="2" points="82.972,-80.9785 73.1539,-76.9965 78.3459,-86.232 82.972,-80.9785"/>
</g>
<!-- 7&#45;&gt;6 -->
<g id="edge17" class="edge"><title>7&#45;&gt;6</title>
<path fill="none" stroke="black" stroke-width="2" d="M116.892,-158.081C112.981,-154.249 108.698,-150.052 104.51,-145.949"/>
<polygon fill="black" stroke="black" stroke-width="2" points="106.768,-143.262 97.1761,-138.764 101.87,-148.262 106.768,-143.262"/>
</g>
</g>
</svg>

