<?xml version="1.0" encoding="UTF-8" standalone="no"?>
<!DOCTYPE svg PUBLIC "-//W3C//DTD SVG 1.1//EN"
 "http://www.w3.org/Graphics/SVG/1.1/DTD/svg11.dtd">
<!-- Generated by graphviz version 2.36.0 (20140111.2315)
 -->
<!-- Title: G Pages: 1 -->
<svg width="100%" height="100%"
 viewBox="0.00 0.00 208.30 260.69" xmlns="http://www.w3.org/2000/svg" xmlns:xlink="http://www.w3.org/1999/xlink">
<g id="graph0" class="graph" transform="scale(1 1) rotate(0) translate(4 256.69)">
<title>G</title>
<!-- 0 -->
<g id="node1" class="node"><title>0</title>
<ellipse fill="cadetblue" stroke="black" cx="130.624" cy="-117.079" rx="21.4286" ry="21.4286"/>
<text text-anchor="middle" x="130.624" y="-112.079" font-family="Times New Roman,serif" font-size="20.00">2</text>
</g>
<!-- 6 -->
<g id="node7" class="node"><title>6</title>
<ellipse fill="cadetblue" stroke="black" cx="179.089" cy="-180.45" rx="21.4286" ry="21.4286"/>
<text text-anchor="middle" x="179.089" y="-175.45" font-family="Times New Roman,serif" font-size="20.00">2</text>
</g>
<!-- 0&#45;&gt;6 -->
<g id="edge3" class="edge"><title>0&#45;&gt;6</title>
<path fill="none" stroke="black" stroke-width="2" d="M143.612,-134.061C148.609,-140.596 154.427,-148.204 159.889,-155.345"/>
<polygon fill="black" stroke="black" stroke-width="2" points="157.21,-157.604 166.065,-163.421 162.77,-153.351 157.21,-157.604"/>
</g>
<!-- 7 -->
<g id="node8" class="node"><title>7</title>
<ellipse fill="brown" stroke="black" cx="21.2132" cy="-84.5761" rx="21.4286" ry="21.4286"/>
<text text-anchor="middle" x="21.2132" y="-79.5761" font-family="Times New Roman,serif" font-size="20.00">3</text>
</g>
<!-- 0&#45;&gt;7 -->
<g id="edge4" class="edge"><title>0&#45;&gt;7</title>
<path fill="none" stroke="black" stroke-width="2" d="M110.045,-110.965C93.54,-106.062 70.1355,-99.1095 51.4931,-93.5714"/>
<polygon fill="black" stroke="black" stroke-width="2" points="52.2829,-90.1549 41.7002,-90.6622 50.2895,-96.865 52.2829,-90.1549"/>
</g>
<!-- 1 -->
<g id="node2" class="node"><title>1</title>
<ellipse fill="cadetblue" stroke="black" cx="38.6503" cy="-210.749" rx="21.4286" ry="21.4286"/>
<text text-anchor="middle" x="38.6503" y="-205.749" font-family="Times New Roman,serif" font-size="20.00">2</text>
</g>
<!-- 1&#45;&gt;6 -->
<g id="edge7" class="edge"><title>1&#45;&gt;6</title>
<path fill="none" stroke="black" stroke-width="2" d="M59.6753,-206.213C83.0482,-201.17 121.034,-192.975 147.879,-187.184"/>
<polygon fill="black" stroke="black" stroke-width="2" points="148.883,-190.548 157.92,-185.017 147.407,-183.705 148.883,-190.548"/>
</g>
<!-- 1&#45;&gt;7 -->
<g id="edge8" class="edge"><title>1&#45;&gt;7</title>
<path fill="none" stroke="black" stroke-width="2" d="M35.7317,-189.631C32.9404,-169.433 28.6975,-138.732 25.5182,-115.727"/>
<polygon fill="black" stroke="black" stroke-width="2" points="28.9774,-115.19 24.1413,-105.763 22.0433,-116.149 28.9774,-115.19"/>
</g>
<!-- 2 -->
<g id="node3" class="node"><title>2</title>
<ellipse fill="cadetblue" stroke="black" cx="143.603" cy="-61.5562" rx="21.4286" ry="21.4286"/>
<text text-anchor="middle" x="143.603" y="-56.5562" font-family="Times New Roman,serif" font-size="20.00">2</text>
</g>
<!-- 5 -->
<g id="node6" class="node"><title>5</title>
<ellipse fill="cadetblue" stroke="black" cx="55.2458" cy="-135.008" rx="21.4286" ry="21.4286"/>
<text text-anchor="middle" x="55.2458" y="-130.008" font-family="Times New Roman,serif" font-size="20.00">2</text>
</g>
<!-- 2&#45;&gt;5 -->
<g id="edge10" class="edge"><title>2&#45;&gt;5</title>
<path fill="none" stroke="black" stroke-width="2" d="M126.984,-75.3719C113.655,-86.4519 94.7542,-102.164 79.6991,-114.68"/>
<polygon fill="black" stroke="black" stroke-width="2" points="77.2431,-112.17 71.7906,-121.254 81.718,-117.553 77.2431,-112.17"/>
</g>
<!-- 2&#45;&gt;7 -->
<g id="edge12" class="edge"><title>2&#45;&gt;7</title>
<path fill="none" stroke="black" stroke-width="2" d="M122.563,-65.5135C103.211,-69.1534 74.2656,-74.5976 52.2568,-78.7372"/>
<polygon fill="black" stroke="black" stroke-width="2" points="51.5685,-75.3052 42.3878,-80.5934 52.8625,-82.1846 51.5685,-75.3052"/>
</g>
<!-- 3 -->
<g id="node4" class="node"><title>3</title>
<ellipse fill="cadetblue" stroke="black" cx="116.685" cy="-231.477" rx="21.4286" ry="21.4286"/>
<text text-anchor="middle" x="116.685" y="-226.477" font-family="Times New Roman,serif" font-size="20.00">2</text>
</g>
<!-- 3&#45;&gt;0 -->
<g id="edge1" class="edge"><title>3&#45;&gt;0</title>
<path fill="none" stroke="black" stroke-width="2" d="M119.274,-210.228C121.396,-192.81 124.43,-167.914 126.827,-148.241"/>
<polygon fill="black" stroke="black" stroke-width="2" points="130.313,-148.564 128.049,-138.214 123.365,-147.718 130.313,-148.564"/>
</g>
<!-- 3&#45;&gt;1 -->
<g id="edge5" class="edge"><title>3&#45;&gt;1</title>
<path fill="none" stroke="black" stroke-width="2" d="M96.1824,-226.031C87.9144,-223.835 78.2025,-221.255 69.1367,-218.847"/>
<polygon fill="black" stroke="black" stroke-width="2" points="69.8504,-215.415 59.287,-216.231 68.0533,-222.181 69.8504,-215.415"/>
</g>
<!-- 4 -->
<g id="node5" class="node"><title>4</title>
<ellipse fill="cadetblue" stroke="black" cx="72.3304" cy="-21.2132" rx="21.4286" ry="21.4286"/>
<text text-anchor="middle" x="72.3304" y="-16.2132" font-family="Times New Roman,serif" font-size="20.00">2</text>
</g>
<!-- 4&#45;&gt;0 -->
<g id="edge2" class="edge"><title>4&#45;&gt;0</title>
<path fill="none" stroke="black" stroke-width="2" d="M83.57,-39.6971C92.1989,-53.8876 104.247,-73.7005 113.991,-89.7254"/>
<polygon fill="black" stroke="black" stroke-width="2" points="111.233,-91.9259 119.419,-98.6517 117.214,-88.2889 111.233,-91.9259"/>
</g>
<!-- 4&#45;&gt;2 -->
<g id="edge9" class="edge"><title>4&#45;&gt;2</title>
<path fill="none" stroke="black" stroke-width="2" d="M91.0565,-31.8129C98.6892,-36.1333 107.669,-41.2163 116.025,-45.9462"/>
<polygon fill="black" stroke="black" stroke-width="2" points="114.328,-49.0072 124.755,-50.8873 117.776,-42.9154 114.328,-49.0072"/>
</g>
<!-- 5&#45;&gt;1 -->
<g id="edge6" class="edge"><title>5&#45;&gt;1</title>
<path fill="none" stroke="black" stroke-width="2" d="M50.623,-156.106C48.9911,-163.554 47.1215,-172.087 45.3524,-180.161"/>
<polygon fill="black" stroke="black" stroke-width="2" points="41.9124,-179.508 43.1909,-190.026 48.7502,-181.007 41.9124,-179.508"/>
</g>
<!-- 5&#45;&gt;3 -->
<g id="edge13" class="edge"><title>5&#45;&gt;3</title>
<path fill="none" stroke="black" stroke-width="2" d="M66.8021,-153.153C76.0701,-167.705 89.2129,-188.341 99.6815,-204.779"/>
<polygon fill="black" stroke="black" stroke-width="2" points="96.8567,-206.859 105.181,-213.413 102.761,-203.098 96.8567,-206.859"/>
</g>
<!-- 5&#45;&gt;4 -->
<g id="edge15" class="edge"><title>5&#45;&gt;4</title>
<path fill="none" stroke="black" stroke-width="2" d="M58.4193,-113.87C61.0204,-96.5449 64.7385,-71.78 67.6765,-52.2112"/>
<polygon fill="black" stroke="black" stroke-width="2" points="71.1504,-52.646 69.174,-42.2372 64.228,-51.6066 71.1504,-52.646"/>
</g>
<!-- 6&#45;&gt;2 -->
<g id="edge11" class="edge"><title>6&#45;&gt;2</title>
<path fill="none" stroke="black" stroke-width="2" d="M172.989,-160.012C167.377,-141.212 158.985,-113.093 152.604,-91.7132"/>
<polygon fill="black" stroke="black" stroke-width="2" points="155.956,-90.7073 149.742,-82.126 149.249,-92.7094 155.956,-90.7073"/>
</g>
<!-- 6&#45;&gt;3 -->
<g id="edge14" class="edge"><title>6&#45;&gt;3</title>
<path fill="none" stroke="black" stroke-width="2" d="M162.366,-194.125C155.93,-199.387 148.439,-205.512 141.407,-211.262"/>
<polygon fill="black" stroke="black" stroke-width="2" points="138.98,-208.725 133.454,-217.765 143.411,-214.144 138.98,-208.725"/>
</g>
<!-- 7&#45;&gt;4 -->
<g id="edge16" class="edge"><title>7&#45;&gt;4</title>
<path fill="none" stroke="black" stroke-width="2" d="M34.6437,-67.9282C40.0014,-61.287 46.2848,-53.4983 52.1684,-46.2052"/>
<polygon fill="black" stroke="black" stroke-width="2" points="55.2574,-47.9505 58.8122,-37.9699 49.8092,-43.5553 55.2574,-47.9505"/>
</g>
<!-- 7&#45;&gt;5 -->
<g id="edge17" class="edge"><title>7&#45;&gt;5</title>
<path fill="none" stroke="black" stroke-width="2" d="M33.1162,-102.215C34.5585,-104.352 36.055,-106.569 37.5584,-108.797"/>
<polygon fill="black" stroke="black" stroke-width="2" points="34.797,-110.962 43.292,-117.294 40.5995,-107.047 34.797,-110.962"/>
</g>
</g>
</svg>

