<?xml version="1.0" encoding="UTF-8" standalone="no"?>
<!DOCTYPE svg PUBLIC "-//W3C//DTD SVG 1.1//EN"
 "http://www.w3.org/Graphics/SVG/1.1/DTD/svg11.dtd">
<!-- Generated by graphviz version 2.36.0 (20140111.2315)
 -->
<!-- Title: G Pages: 1 -->
<svg width="100%" height="100%"
 viewBox="0.00 0.00 210.18 243.50" xmlns="http://www.w3.org/2000/svg" xmlns:xlink="http://www.w3.org/1999/xlink">
<g id="graph0" class="graph" transform="scale(1 1) rotate(0) translate(4 239.504)">
<title>G</title>
<!-- 0 -->
<g id="node1" class="node"><title>0</title>
<ellipse fill="cadetblue" stroke="black" cx="147.777" cy="-134.844" rx="21.4286" ry="21.4286"/>
<text text-anchor="middle" x="147.777" y="-129.844" font-family="Times New Roman,serif" font-size="20.00">2</text>
</g>
<!-- 5 -->
<g id="node6" class="node"><title>5</title>
<ellipse fill="cadetblue" stroke="black" cx="21.2132" cy="-124.103" rx="21.4286" ry="21.4286"/>
<text text-anchor="middle" x="21.2132" y="-119.103" font-family="Times New Roman,serif" font-size="20.00">2</text>
</g>
<!-- 0&#45;&gt;5 -->
<g id="edge3" class="edge"><title>0&#45;&gt;5</title>
<path fill="none" stroke="black" stroke-width="2" d="M126.593,-133.046C106.333,-131.327 75.5368,-128.713 52.4602,-126.755"/>
<polygon fill="black" stroke="black" stroke-width="2" points="52.7263,-123.265 42.4662,-125.907 52.1344,-130.24 52.7263,-123.265"/>
</g>
<!-- 6 -->
<g id="node7" class="node"><title>6</title>
<ellipse fill="cadetblue" stroke="black" cx="161.566" cy="-76.911" rx="21.4286" ry="21.4286"/>
<text text-anchor="middle" x="161.566" y="-71.911" font-family="Times New Roman,serif" font-size="20.00">2</text>
</g>
<!-- 0&#45;&gt;6 -->
<g id="edge4" class="edge"><title>0&#45;&gt;6</title>
<path fill="none" stroke="black" stroke-width="2" d="M152.755,-113.929C153.249,-111.852 153.757,-109.716 154.269,-107.567"/>
<polygon fill="black" stroke="black" stroke-width="2" points="157.73,-108.14 156.641,-97.6011 150.921,-106.519 157.73,-108.14"/>
</g>
<!-- 7 -->
<g id="node8" class="node"><title>7</title>
<ellipse fill="brown" stroke="black" cx="76.0153" cy="-95.3465" rx="21.4286" ry="21.4286"/>
<text text-anchor="middle" x="76.0153" y="-90.3465" font-family="Times New Roman,serif" font-size="20.00">3</text>
</g>
<!-- 0&#45;&gt;7 -->
<g id="edge5" class="edge"><title>0&#45;&gt;7</title>
<path fill="none" stroke="black" stroke-width="2" d="M128.922,-124.466C121.176,-120.203 112.052,-115.181 103.582,-110.519"/>
<polygon fill="black" stroke="black" stroke-width="2" points="105.192,-107.41 94.7438,-105.655 101.817,-113.543 105.192,-107.41"/>
</g>
<!-- 1 -->
<g id="node2" class="node"><title>1</title>
<ellipse fill="cadetblue" stroke="black" cx="60.422" cy="-214.291" rx="21.4286" ry="21.4286"/>
<text text-anchor="middle" x="60.422" y="-209.291" font-family="Times New Roman,serif" font-size="20.00">2</text>
</g>
<!-- 4 -->
<g id="node5" class="node"><title>4</title>
<ellipse fill="cadetblue" stroke="black" cx="180.967" cy="-198.482" rx="21.4286" ry="21.4286"/>
<text text-anchor="middle" x="180.967" y="-193.482" font-family="Times New Roman,serif" font-size="20.00">2</text>
</g>
<!-- 1&#45;&gt;4 -->
<g id="edge6" class="edge"><title>1&#45;&gt;4</title>
<path fill="none" stroke="black" stroke-width="2" d="M81.6955,-211.501C100.631,-209.018 128.567,-205.354 149.984,-202.546"/>
<polygon fill="black" stroke="black" stroke-width="2" points="150.446,-206.015 159.906,-201.244 149.536,-199.075 150.446,-206.015"/>
</g>
<!-- 2 -->
<g id="node3" class="node"><title>2</title>
<ellipse fill="cadetblue" stroke="black" cx="67.9555" cy="-21.2132" rx="21.4286" ry="21.4286"/>
<text text-anchor="middle" x="67.9555" y="-16.2132" font-family="Times New Roman,serif" font-size="20.00">2</text>
</g>
<!-- 2&#45;&gt;7 -->
<g id="edge11" class="edge"><title>2&#45;&gt;7</title>
<path fill="none" stroke="black" stroke-width="2" d="M70.2867,-42.6556C71.0198,-49.3987 71.8447,-56.9863 72.6354,-64.2584"/>
<polygon fill="black" stroke="black" stroke-width="2" points="69.1567,-64.6452 73.7171,-74.2083 76.1157,-63.8886 69.1567,-64.6452"/>
</g>
<!-- 3 -->
<g id="node4" class="node"><title>3</title>
<ellipse fill="cadetblue" stroke="black" cx="91.2471" cy="-163.86" rx="21.4286" ry="21.4286"/>
<text text-anchor="middle" x="91.2471" y="-158.86" font-family="Times New Roman,serif" font-size="20.00">2</text>
</g>
<!-- 3&#45;&gt;0 -->
<g id="edge1" class="edge"><title>3&#45;&gt;0</title>
<path fill="none" stroke="black" stroke-width="2" d="M110.385,-154.036C113.332,-152.524 116.427,-150.935 119.522,-149.346"/>
<polygon fill="black" stroke="black" stroke-width="2" points="121.36,-152.337 128.658,-144.657 118.163,-146.11 121.36,-152.337"/>
</g>
<!-- 3&#45;&gt;7 -->
<g id="edge14" class="edge"><title>3&#45;&gt;7</title>
<path fill="none" stroke="black" stroke-width="2" d="M86.5943,-142.931C85.4132,-137.619 84.1195,-131.799 82.8546,-126.11"/>
<polygon fill="black" stroke="black" stroke-width="2" points="86.2265,-125.149 80.6396,-116.147 79.3933,-126.668 86.2265,-125.149"/>
</g>
<!-- 4&#45;&gt;0 -->
<g id="edge2" class="edge"><title>4&#45;&gt;0</title>
<path fill="none" stroke="black" stroke-width="2" d="M171.009,-179.389C168.317,-174.229 165.347,-168.534 162.456,-162.99"/>
<polygon fill="black" stroke="black" stroke-width="2" points="165.455,-161.172 157.728,-153.924 159.249,-164.409 165.455,-161.172"/>
</g>
<!-- 5&#45;&gt;1 -->
<g id="edge7" class="edge"><title>5&#45;&gt;1</title>
<path fill="none" stroke="black" stroke-width="2" d="M29.7209,-143.673C35.013,-155.846 41.9138,-171.719 47.8321,-185.332"/>
<polygon fill="black" stroke="black" stroke-width="2" points="44.734,-186.985 51.9309,-194.76 51.1536,-184.194 44.734,-186.985"/>
</g>
<!-- 5&#45;&gt;2 -->
<g id="edge9" class="edge"><title>5&#45;&gt;2</title>
<path fill="none" stroke="black" stroke-width="2" d="M30.0051,-104.75C37.0115,-89.3278 46.9285,-67.4982 54.8679,-50.0219"/>
<polygon fill="black" stroke="black" stroke-width="2" points="58.0945,-51.3813 59.0441,-40.8291 51.7214,-48.486 58.0945,-51.3813"/>
</g>
<!-- 5&#45;&gt;3 -->
<g id="edge12" class="edge"><title>5&#45;&gt;3</title>
<path fill="none" stroke="black" stroke-width="2" d="M39.981,-134.757C47.2032,-138.857 55.6104,-143.63 63.502,-148.11"/>
<polygon fill="black" stroke="black" stroke-width="2" points="62.0031,-151.283 72.4275,-153.176 65.4589,-145.196 62.0031,-151.283"/>
</g>
<!-- 6&#45;&gt;2 -->
<g id="edge10" class="edge"><title>6&#45;&gt;2</title>
<path fill="none" stroke="black" stroke-width="2" d="M143.071,-65.9069C129.353,-57.7443 110.436,-46.4892 95.0189,-37.3159"/>
<polygon fill="black" stroke="black" stroke-width="2" points="96.795,-34.2999 86.4114,-32.1944 93.2156,-40.3156 96.795,-34.2999"/>
</g>
<!-- 6&#45;&gt;3 -->
<g id="edge13" class="edge"><title>6&#45;&gt;3</title>
<path fill="none" stroke="black" stroke-width="2" d="M147.961,-93.3133C142.153,-100.347 135.315,-108.669 129.194,-116.227 123.263,-123.549 116.862,-131.547 111.038,-138.861"/>
<polygon fill="black" stroke="black" stroke-width="2" points="108.009,-137.047 104.528,-147.053 113.49,-141.402 108.009,-137.047"/>
</g>
<!-- 6&#45;&gt;4 -->
<g id="edge15" class="edge"><title>6&#45;&gt;4</title>
<path fill="none" stroke="black" stroke-width="2" d="M166.616,-97.735C169.141,-108.726 172.077,-122.47 174.081,-134.868 175.765,-145.286 177.147,-156.732 178.22,-167.009"/>
<polygon fill="black" stroke="black" stroke-width="2" points="174.761,-167.595 179.225,-177.203 181.727,-166.908 174.761,-167.595"/>
</g>
<!-- 7&#45;&gt;1 -->
<g id="edge8" class="edge"><title>7&#45;&gt;1</title>
<path fill="none" stroke="black" stroke-width="2" d="M72.2367,-116.268C69.8912,-129.797 66.9517,-147.806 64.9428,-163.816 64.1708,-169.968 63.4814,-176.557 62.8874,-182.878"/>
<polygon fill="black" stroke="black" stroke-width="2" points="59.3749,-182.866 61.9803,-193.135 66.3477,-183.482 59.3749,-182.866"/>
</g>
<!-- 7&#45;&gt;5 -->
<g id="edge16" class="edge"><title>7&#45;&gt;5</title>
<path fill="none" stroke="black" stroke-width="2" d="M57.1555,-105.243C54.6012,-106.583 51.9368,-107.981 49.2642,-109.384"/>
<polygon fill="black" stroke="black" stroke-width="2" points="47.5224,-106.345 40.2938,-114.091 50.775,-112.544 47.5224,-106.345"/>
</g>
<!-- 7&#45;&gt;6 -->
<g id="edge17" class="edge"><title>7&#45;&gt;6</title>
<path fill="none" stroke="black" stroke-width="2" d="M97.1626,-90.7894C107.315,-88.6016 119.674,-85.9384 130.84,-83.5322"/>
<polygon fill="black" stroke="black" stroke-width="2" points="131.623,-86.9438 140.662,-81.4157 130.149,-80.1009 131.623,-86.9438"/>
</g>
</g>
</svg>

