<?xml version="1.0" encoding="UTF-8" standalone="no"?>
<!DOCTYPE svg PUBLIC "-//W3C//DTD SVG 1.1//EN"
 "http://www.w3.org/Graphics/SVG/1.1/DTD/svg11.dtd">
<!-- Generated by graphviz version 2.36.0 (20140111.2315)
 -->
<!-- Title: G Pages: 1 -->
<svg width="100%" height="100%"
 viewBox="0.00 0.00 240.08 261.66" xmlns="http://www.w3.org/2000/svg" xmlns:xlink="http://www.w3.org/1999/xlink">
<g id="graph0" class="graph" transform="scale(1 1) rotate(0) translate(4 257.662)">
<title>G</title>
<!-- 0 -->
<g id="node1" class="node"><title>0</title>
<ellipse fill="cadetblue" stroke="black" cx="142.43" cy="-232.449" rx="21.4286" ry="21.4286"/>
<text text-anchor="middle" x="142.43" y="-227.449" font-family="Times New Roman,serif" font-size="20.00">2</text>
</g>
<!-- 6 -->
<g id="node7" class="node"><title>6</title>
<ellipse fill="cadetblue" stroke="black" cx="115.53" cy="-133.933" rx="21.4286" ry="21.4286"/>
<text text-anchor="middle" x="115.53" y="-128.933" font-family="Times New Roman,serif" font-size="20.00">2</text>
</g>
<!-- 0&#45;&gt;6 -->
<g id="edge3" class="edge"><title>0&#45;&gt;6</title>
<path fill="none" stroke="black" stroke-width="2" d="M136.725,-211.557C132.991,-197.881 128.048,-179.781 123.876,-164.499"/>
<polygon fill="black" stroke="black" stroke-width="2" points="127.145,-163.183 121.134,-154.458 120.392,-165.027 127.145,-163.183"/>
</g>
<!-- 1 -->
<g id="node2" class="node"><title>1</title>
<ellipse fill="cadetblue" stroke="black" cx="21.2132" cy="-72.222" rx="21.4286" ry="21.4286"/>
<text text-anchor="middle" x="21.2132" y="-67.222" font-family="Times New Roman,serif" font-size="20.00">2</text>
</g>
<!-- 1&#45;&gt;6 -->
<g id="edge6" class="edge"><title>1&#45;&gt;6</title>
<path fill="none" stroke="black" stroke-width="2" d="M39.3984,-84.1206C53.4492,-93.314 73.1025,-106.173 88.9211,-116.523"/>
<polygon fill="black" stroke="black" stroke-width="2" points="87.4361,-119.734 97.7204,-122.281 91.2687,-113.877 87.4361,-119.734"/>
</g>
<!-- 7 -->
<g id="node8" class="node"><title>7</title>
<ellipse fill="brown" stroke="black" cx="131.497" cy="-21.2132" rx="21.4286" ry="21.4286"/>
<text text-anchor="middle" x="131.497" y="-16.2132" font-family="Times New Roman,serif" font-size="20.00">3</text>
</g>
<!-- 1&#45;&gt;7 -->
<g id="edge7" class="edge"><title>1&#45;&gt;7</title>
<path fill="none" stroke="black" stroke-width="2" d="M40.6759,-63.22C57.9999,-55.2074 83.5576,-43.3863 103.152,-34.3237"/>
<polygon fill="black" stroke="black" stroke-width="2" points="104.622,-37.4998 112.229,-30.1251 101.684,-31.1465 104.622,-37.4998"/>
</g>
<!-- 2 -->
<g id="node3" class="node"><title>2</title>
<ellipse fill="cadetblue" stroke="black" cx="210.866" cy="-51.1805" rx="21.4286" ry="21.4286"/>
<text text-anchor="middle" x="210.866" y="-46.1805" font-family="Times New Roman,serif" font-size="20.00">2</text>
</g>
<!-- 5 -->
<g id="node6" class="node"><title>5</title>
<ellipse fill="cadetblue" stroke="black" cx="106.908" cy="-83.502" rx="21.4286" ry="21.4286"/>
<text text-anchor="middle" x="106.908" y="-78.502" font-family="Times New Roman,serif" font-size="20.00">2</text>
</g>
<!-- 2&#45;&gt;5 -->
<g id="edge9" class="edge"><title>2&#45;&gt;5</title>
<path fill="none" stroke="black" stroke-width="2" d="M190.327,-57.5662C175.092,-62.3029 154.085,-68.8343 136.963,-74.1576"/>
<polygon fill="black" stroke="black" stroke-width="2" points="135.914,-70.8184 127.404,-77.1296 137.992,-77.5028 135.914,-70.8184"/>
</g>
<!-- 2&#45;&gt;7 -->
<g id="edge11" class="edge"><title>2&#45;&gt;7</title>
<path fill="none" stroke="black" stroke-width="2" d="M190.838,-43.6185C181.814,-40.2114 170.976,-36.1193 161.046,-32.3699"/>
<polygon fill="black" stroke="black" stroke-width="2" points="162.111,-29.0308 151.519,-28.7728 159.638,-35.5796 162.111,-29.0308"/>
</g>
<!-- 3 -->
<g id="node4" class="node"><title>3</title>
<ellipse fill="cadetblue" stroke="black" cx="37.9844" cy="-180.508" rx="21.4286" ry="21.4286"/>
<text text-anchor="middle" x="37.9844" y="-175.508" font-family="Times New Roman,serif" font-size="20.00">2</text>
</g>
<!-- 3&#45;&gt;0 -->
<g id="edge1" class="edge"><title>3&#45;&gt;0</title>
<path fill="none" stroke="black" stroke-width="2" d="M57.1413,-190.035C73.1892,-198.016 96.3141,-209.516 114.437,-218.528"/>
<polygon fill="black" stroke="black" stroke-width="2" points="112.882,-221.664 123.394,-222.983 115.999,-215.396 112.882,-221.664"/>
</g>
<!-- 3&#45;&gt;1 -->
<g id="edge4" class="edge"><title>3&#45;&gt;1</title>
<path fill="none" stroke="black" stroke-width="2" d="M34.711,-159.372C32.2406,-143.422 28.8132,-121.293 26.0303,-103.325"/>
<polygon fill="black" stroke="black" stroke-width="2" points="29.4678,-102.651 24.4784,-93.3043 22.5503,-103.722 29.4678,-102.651"/>
</g>
<!-- 4 -->
<g id="node5" class="node"><title>4</title>
<ellipse fill="cadetblue" stroke="black" cx="209.47" cy="-134.209" rx="21.4286" ry="21.4286"/>
<text text-anchor="middle" x="209.47" y="-129.209" font-family="Times New Roman,serif" font-size="20.00">2</text>
</g>
<!-- 4&#45;&gt;0 -->
<g id="edge2" class="edge"><title>4&#45;&gt;0</title>
<path fill="none" stroke="black" stroke-width="2" d="M197.485,-151.772C187.157,-166.906 172.101,-188.969 160.343,-206.199"/>
<polygon fill="black" stroke="black" stroke-width="2" points="157.283,-204.474 154.537,-214.707 163.065,-208.419 157.283,-204.474"/>
</g>
<!-- 4&#45;&gt;2 -->
<g id="edge8" class="edge"><title>4&#45;&gt;2</title>
<path fill="none" stroke="black" stroke-width="2" d="M209.83,-112.827C209.984,-103.626 210.168,-92.6853 210.338,-82.5923"/>
<polygon fill="black" stroke="black" stroke-width="2" points="213.839,-82.5474 210.508,-72.4899 206.84,-82.4296 213.839,-82.5474"/>
</g>
<!-- 5&#45;&gt;1 -->
<g id="edge5" class="edge"><title>5&#45;&gt;1</title>
<path fill="none" stroke="black" stroke-width="2" d="M85.725,-80.7137C75.734,-79.3985 63.6104,-77.8027 52.5821,-76.3511"/>
<polygon fill="black" stroke="black" stroke-width="2" points="52.8208,-72.8524 42.4495,-75.0173 51.9072,-79.7925 52.8208,-72.8524"/>
</g>
<!-- 5&#45;&gt;3 -->
<g id="edge12" class="edge"><title>5&#45;&gt;3</title>
<path fill="none" stroke="black" stroke-width="2" d="M94.5859,-100.845C83.9686,-115.788 68.4893,-137.574 56.4009,-154.588"/>
<polygon fill="black" stroke="black" stroke-width="2" points="53.3711,-152.809 50.4323,-162.988 59.0775,-156.864 53.3711,-152.809"/>
</g>
<!-- 5&#45;&gt;4 -->
<g id="edge14" class="edge"><title>5&#45;&gt;4</title>
<path fill="none" stroke="black" stroke-width="2" d="M126.199,-93.0395C141.671,-100.689 163.61,-111.536 181.086,-120.175"/>
<polygon fill="black" stroke="black" stroke-width="2" points="179.75,-123.419 190.266,-124.714 182.852,-117.144 179.75,-123.419"/>
</g>
<!-- 6&#45;&gt;2 -->
<g id="edge10" class="edge"><title>6&#45;&gt;2</title>
<path fill="none" stroke="black" stroke-width="2" d="M131.702,-119.896C146.768,-106.818 169.432,-87.1461 186.654,-72.197"/>
<polygon fill="black" stroke="black" stroke-width="2" points="189.357,-74.4856 194.614,-65.2873 184.768,-69.1993 189.357,-74.4856"/>
</g>
<!-- 6&#45;&gt;3 -->
<g id="edge13" class="edge"><title>6&#45;&gt;3</title>
<path fill="none" stroke="black" stroke-width="2" d="M97.1527,-144.971C87.5919,-150.713 75.7182,-157.845 65.1222,-164.209"/>
<polygon fill="black" stroke="black" stroke-width="2" points="63.0002,-161.4 56.2297,-169.55 66.6044,-167.401 63.0002,-161.4"/>
</g>
<!-- 6&#45;&gt;7 -->
<g id="edge17" class="edge"><title>6&#45;&gt;7</title>
<path fill="none" stroke="black" stroke-width="2" d="M124.309,-114.291C127.895,-105.165 131.58,-94.0473 133.212,-83.6192 134.775,-73.6322 134.972,-62.6391 134.59,-52.6985"/>
<polygon fill="black" stroke="black" stroke-width="2" points="138.067,-52.1998 133.986,-42.4224 131.079,-52.6105 138.067,-52.1998"/>
</g>
<!-- 7&#45;&gt;4 -->
<g id="edge15" class="edge"><title>7&#45;&gt;4</title>
<path fill="none" stroke="black" stroke-width="2" d="M143.681,-38.8688C156.555,-57.5262 176.988,-87.1371 191.668,-108.41"/>
<polygon fill="black" stroke="black" stroke-width="2" points="188.812,-110.434 197.372,-116.677 194.574,-106.459 188.812,-110.434"/>
</g>
<!-- 7&#45;&gt;5 -->
<g id="edge16" class="edge"><title>7&#45;&gt;5</title>
<path fill="none" stroke="black" stroke-width="2" d="M123.582,-41.2646C121.958,-45.3768 120.218,-49.7857 118.496,-54.1476"/>
<polygon fill="black" stroke="black" stroke-width="2" points="115.225,-52.9015 114.809,-63.4881 121.736,-55.4718 115.225,-52.9015"/>
</g>
</g>
</svg>

