<?xml version="1.0" encoding="UTF-8" standalone="no"?>
<!DOCTYPE svg PUBLIC "-//W3C//DTD SVG 1.1//EN"
 "http://www.w3.org/Graphics/SVG/1.1/DTD/svg11.dtd">
<!-- Generated by graphviz version 2.36.0 (20140111.2315)
 -->
<!-- Title: G Pages: 1 -->
<svg width="100%" height="100%"
 viewBox="0.00 0.00 209.84 234.84" xmlns="http://www.w3.org/2000/svg" xmlns:xlink="http://www.w3.org/1999/xlink">
<g id="graph0" class="graph" transform="scale(1 1) rotate(0) translate(4 230.838)">
<title>G</title>
<!-- 0 -->
<g id="node1" class="node"><title>0</title>
<ellipse fill="cadetblue" stroke="black" cx="147.818" cy="-135.009" rx="21.4286" ry="21.4286"/>
<text text-anchor="middle" x="147.818" y="-130.009" font-family="Times New Roman,serif" font-size="20.00">2</text>
</g>
<!-- 5 -->
<g id="node6" class="node"><title>5</title>
<ellipse fill="cadetblue" stroke="black" cx="41.7369" cy="-76.8873" rx="21.4286" ry="21.4286"/>
<text text-anchor="middle" x="41.7369" y="-71.8873" font-family="Times New Roman,serif" font-size="20.00">2</text>
</g>
<!-- 0&#45;&gt;5 -->
<g id="edge3" class="edge"><title>0&#45;&gt;5</title>
<path fill="none" stroke="black" stroke-width="2" d="M128.853,-124.618C112.335,-115.568 88.1704,-102.328 69.4794,-92.0873"/>
<polygon fill="black" stroke="black" stroke-width="2" points="70.9896,-88.9239 60.5379,-87.1883 67.626,-95.0628 70.9896,-88.9239"/>
</g>
<!-- 6 -->
<g id="node7" class="node"><title>6</title>
<ellipse fill="cadetblue" stroke="black" cx="83.7082" cy="-129.752" rx="21.4286" ry="21.4286"/>
<text text-anchor="middle" x="83.7082" y="-124.752" font-family="Times New Roman,serif" font-size="20.00">2</text>
</g>
<!-- 0&#45;&gt;6 -->
<g id="edge4" class="edge"><title>0&#45;&gt;6</title>
<path fill="none" stroke="black" stroke-width="2" d="M126.47,-133.258C122.832,-132.96 118.986,-132.645 115.152,-132.33"/>
<polygon fill="black" stroke="black" stroke-width="2" points="115.434,-128.842 105.181,-131.513 114.862,-135.818 115.434,-128.842"/>
</g>
<!-- 7 -->
<g id="node8" class="node"><title>7</title>
<ellipse fill="brown" stroke="black" cx="105.465" cy="-79.3206" rx="21.4286" ry="21.4286"/>
<text text-anchor="middle" x="105.465" y="-74.3206" font-family="Times New Roman,serif" font-size="20.00">3</text>
</g>
<!-- 0&#45;&gt;7 -->
<g id="edge5" class="edge"><title>0&#45;&gt;7</title>
<path fill="none" stroke="black" stroke-width="2" d="M134.88,-117.998C131.596,-113.68 127.999,-108.95 124.482,-104.325"/>
<polygon fill="black" stroke="black" stroke-width="2" points="127.163,-102.068 118.323,-96.2273 121.591,-106.306 127.163,-102.068"/>
</g>
<!-- 1 -->
<g id="node2" class="node"><title>1</title>
<ellipse fill="cadetblue" stroke="black" cx="21.2132" cy="-150.737" rx="21.4286" ry="21.4286"/>
<text text-anchor="middle" x="21.2132" y="-145.737" font-family="Times New Roman,serif" font-size="20.00">2</text>
</g>
<!-- 3 -->
<g id="node4" class="node"><title>3</title>
<ellipse fill="cadetblue" stroke="black" cx="93.9611" cy="-205.625" rx="21.4286" ry="21.4286"/>
<text text-anchor="middle" x="93.9611" y="-200.625" font-family="Times New Roman,serif" font-size="20.00">2</text>
</g>
<!-- 1&#45;&gt;3 -->
<g id="edge6" class="edge"><title>1&#45;&gt;3</title>
<path fill="none" stroke="black" stroke-width="2" d="M38.4534,-163.745C47.5133,-170.58 58.7871,-179.086 68.8032,-186.643"/>
<polygon fill="black" stroke="black" stroke-width="2" points="66.7538,-189.481 76.8446,-192.71 70.9699,-183.894 66.7538,-189.481"/>
</g>
<!-- 2 -->
<g id="node3" class="node"><title>2</title>
<ellipse fill="cadetblue" stroke="black" cx="97.8922" cy="-21.2132" rx="21.4286" ry="21.4286"/>
<text text-anchor="middle" x="97.8922" y="-16.2132" font-family="Times New Roman,serif" font-size="20.00">2</text>
</g>
<!-- 4 -->
<g id="node5" class="node"><title>4</title>
<ellipse fill="cadetblue" stroke="black" cx="180.629" cy="-54.3923" rx="21.4286" ry="21.4286"/>
<text text-anchor="middle" x="180.629" y="-49.3923" font-family="Times New Roman,serif" font-size="20.00">2</text>
</g>
<!-- 2&#45;&gt;4 -->
<g id="edge9" class="edge"><title>2&#45;&gt;4</title>
<path fill="none" stroke="black" stroke-width="2" d="M117.921,-29.2449C127.982,-33.2796 140.362,-38.2443 151.457,-42.6936"/>
<polygon fill="black" stroke="black" stroke-width="2" points="150.201,-45.9609 160.785,-46.4345 152.807,-39.4639 150.201,-45.9609"/>
</g>
<!-- 2&#45;&gt;7 -->
<g id="edge12" class="edge"><title>2&#45;&gt;7</title>
<path fill="none" stroke="black" stroke-width="2" d="M100.669,-42.5203C100.895,-44.2572 101.127,-46.034 101.36,-47.8233"/>
<polygon fill="black" stroke="black" stroke-width="2" points="97.9255,-48.5523 102.689,-58.0161 104.867,-47.6476 97.9255,-48.5523"/>
</g>
<!-- 3&#45;&gt;0 -->
<g id="edge1" class="edge"><title>3&#45;&gt;0</title>
<path fill="none" stroke="black" stroke-width="2" d="M106.998,-188.531C113.547,-179.943 121.606,-169.377 128.828,-159.907"/>
<polygon fill="black" stroke="black" stroke-width="2" points="131.619,-162.019 134.901,-151.945 126.053,-157.774 131.619,-162.019"/>
</g>
<!-- 4&#45;&gt;0 -->
<g id="edge2" class="edge"><title>4&#45;&gt;0</title>
<path fill="none" stroke="black" stroke-width="2" d="M172.519,-74.3199C168.664,-83.7895 163.981,-95.2956 159.733,-105.733"/>
<polygon fill="black" stroke="black" stroke-width="2" points="156.363,-104.729 155.835,-115.31 162.847,-107.367 156.363,-104.729"/>
</g>
<!-- 5&#45;&gt;1 -->
<g id="edge7" class="edge"><title>5&#45;&gt;1</title>
<path fill="none" stroke="black" stroke-width="2" d="M36.0199,-97.4586C34.0406,-104.581 31.7787,-112.72 29.6285,-120.457"/>
<polygon fill="black" stroke="black" stroke-width="2" points="26.2051,-119.704 26.8995,-130.276 32.9495,-121.578 26.2051,-119.704"/>
</g>
<!-- 5&#45;&gt;2 -->
<g id="edge10" class="edge"><title>5&#45;&gt;2</title>
<path fill="none" stroke="black" stroke-width="2" d="M57.0816,-61.6741C62.6529,-56.1506 69.0727,-49.7858 75.1469,-43.7636"/>
<polygon fill="black" stroke="black" stroke-width="2" points="77.9288,-45.9341 82.5661,-36.408 73.0004,-40.9631 77.9288,-45.9341"/>
</g>
<!-- 5&#45;&gt;7 -->
<g id="edge16" class="edge"><title>5&#45;&gt;7</title>
<path fill="none" stroke="black" stroke-width="2" d="M62.9575,-77.6976C66.4674,-77.8316 70.172,-77.973 73.8717,-78.1143"/>
<polygon fill="black" stroke="black" stroke-width="2" points="73.9937,-81.6214 84.12,-78.5056 74.2608,-74.6265 73.9937,-81.6214"/>
</g>
<!-- 6&#45;&gt;2 -->
<g id="edge11" class="edge"><title>6&#45;&gt;2</title>
<path fill="none" stroke="black" stroke-width="2" d="M79.9131,-108.63C78.7789,-99.5932 78.0899,-88.9303 79.1608,-79.3194 80.2468,-69.5723 82.9949,-59.28 86.0617,-50.11"/>
<polygon fill="black" stroke="black" stroke-width="2" points="89.3627,-51.2736 89.451,-40.6791 82.7752,-48.9061 89.3627,-51.2736"/>
</g>
<!-- 6&#45;&gt;3 -->
<g id="edge13" class="edge"><title>6&#45;&gt;3</title>
<path fill="none" stroke="black" stroke-width="2" d="M86.5642,-150.887C87.5448,-158.143 88.6642,-166.427 89.7303,-174.316"/>
<polygon fill="black" stroke="black" stroke-width="2" points="86.2771,-174.899 91.0849,-184.34 93.2141,-173.961 86.2771,-174.899"/>
</g>
<!-- 6&#45;&gt;5 -->
<g id="edge15" class="edge"><title>6&#45;&gt;5</title>
<path fill="none" stroke="black" stroke-width="2" d="M70.4282,-113.025C67.5958,-109.458 64.5459,-105.616 61.5291,-101.816"/>
<polygon fill="black" stroke="black" stroke-width="2" points="64.0337,-99.3422 55.0746,-93.6867 58.5514,-103.695 64.0337,-99.3422"/>
</g>
<!-- 7&#45;&gt;1 -->
<g id="edge8" class="edge"><title>7&#45;&gt;1</title>
<path fill="none" stroke="black" stroke-width="2" d="M88.388,-92.3856C81.1298,-98.0416 72.6283,-104.804 65.1303,-111.13 58.2491,-116.935 50.9293,-123.411 44.2787,-129.416"/>
<polygon fill="black" stroke="black" stroke-width="2" points="41.8851,-126.862 36.8452,-136.181 46.5967,-132.039 41.8851,-126.862"/>
</g>
<!-- 7&#45;&gt;4 -->
<g id="edge14" class="edge"><title>7&#45;&gt;4</title>
<path fill="none" stroke="black" stroke-width="2" d="M125.608,-72.6403C133.359,-70.0696 142.382,-67.0771 150.852,-64.268"/>
<polygon fill="black" stroke="black" stroke-width="2" points="152.041,-67.5611 160.431,-61.091 149.838,-60.917 152.041,-67.5611"/>
</g>
<!-- 7&#45;&gt;6 -->
<g id="edge17" class="edge"><title>7&#45;&gt;6</title>
<path fill="none" stroke="black" stroke-width="2" d="M96.991,-98.9632C96.7449,-99.5336 96.4971,-100.108 96.2481,-100.685"/>
<polygon fill="black" stroke="black" stroke-width="2" points="92.9426,-99.5118 92.195,-110.08 99.37,-102.285 92.9426,-99.5118"/>
</g>
</g>
</svg>

