<?xml version="1.0" encoding="UTF-8" standalone="no"?>
<!DOCTYPE svg PUBLIC "-//W3C//DTD SVG 1.1//EN"
 "http://www.w3.org/Graphics/SVG/1.1/DTD/svg11.dtd">
<!-- Generated by graphviz version 2.36.0 (20140111.2315)
 -->
<!-- Title: G Pages: 1 -->
<svg width="100%" height="100%"
 viewBox="0.00 0.00 214.85 221.86" xmlns="http://www.w3.org/2000/svg" xmlns:xlink="http://www.w3.org/1999/xlink">
<g id="graph0" class="graph" transform="scale(1 1) rotate(0) translate(4 217.86)">
<title>G</title>
<!-- 0 -->
<g id="node1" class="node"><title>0</title>
<ellipse fill="cadetblue" stroke="black" cx="94.1815" cy="-172.28" rx="21.4286" ry="21.4286"/>
<text text-anchor="middle" x="94.1815" y="-167.28" font-family="Times New Roman,serif" font-size="20.00">2</text>
</g>
<!-- 5 -->
<g id="node6" class="node"><title>5</title>
<ellipse fill="cadetblue" stroke="black" cx="21.2132" cy="-80.5521" rx="21.4286" ry="21.4286"/>
<text text-anchor="middle" x="21.2132" y="-75.5521" font-family="Times New Roman,serif" font-size="20.00">2</text>
</g>
<!-- 0&#45;&gt;5 -->
<g id="edge3" class="edge"><title>0&#45;&gt;5</title>
<path fill="none" stroke="black" stroke-width="2" d="M80.798,-155.455C69.5865,-141.361 53.4308,-121.052 40.7696,-105.136"/>
<polygon fill="black" stroke="black" stroke-width="2" points="43.4764,-102.917 34.5119,-97.2697 37.9983,-107.274 43.4764,-102.917"/>
</g>
<!-- 6 -->
<g id="node7" class="node"><title>6</title>
<ellipse fill="dodgerblue" stroke="black" cx="135.201" cy="-111.51" rx="21.4286" ry="21.4286"/>
<text text-anchor="middle" x="135.201" y="-106.51" font-family="Times New Roman,serif" font-size="20.00">4</text>
</g>
<!-- 0&#45;&gt;6 -->
<g id="edge4" class="edge"><title>0&#45;&gt;6</title>
<path fill="none" stroke="black" stroke-width="2" d="M106.267,-154.375C109.741,-149.229 113.605,-143.504 117.349,-137.957"/>
<polygon fill="black" stroke="black" stroke-width="2" points="120.366,-139.743 123.06,-129.496 114.564,-135.826 120.366,-139.743"/>
</g>
<!-- 7 -->
<g id="node8" class="node"><title>7</title>
<ellipse fill="cadetblue" stroke="black" cx="82.5854" cy="-112.04" rx="21.4286" ry="21.4286"/>
<text text-anchor="middle" x="82.5854" y="-107.04" font-family="Times New Roman,serif" font-size="20.00">2</text>
</g>
<!-- 0&#45;&gt;7 -->
<g id="edge5" class="edge"><title>0&#45;&gt;7</title>
<path fill="none" stroke="black" stroke-width="2" d="M90.1258,-151.211C89.6167,-148.566 89.088,-145.819 88.5573,-143.062"/>
<polygon fill="black" stroke="black" stroke-width="2" points="91.9858,-142.357 86.6585,-133.199 85.112,-143.68 91.9858,-142.357"/>
</g>
<!-- 1 -->
<g id="node2" class="node"><title>1</title>
<ellipse fill="cadetblue" stroke="black" cx="38.8893" cy="-174.519" rx="21.4286" ry="21.4286"/>
<text text-anchor="middle" x="38.8893" y="-169.519" font-family="Times New Roman,serif" font-size="20.00">2</text>
</g>
<!-- 1&#45;&gt;6 -->
<g id="edge8" class="edge"><title>1&#45;&gt;6</title>
<path fill="none" stroke="black" stroke-width="2" d="M57.0048,-162.668C71.5332,-153.163 92.1356,-139.684 108.546,-128.948"/>
<polygon fill="black" stroke="black" stroke-width="2" points="110.714,-131.712 117.166,-123.308 106.882,-125.854 110.714,-131.712"/>
</g>
<!-- 1&#45;&gt;7 -->
<g id="edge9" class="edge"><title>1&#45;&gt;7</title>
<path fill="none" stroke="black" stroke-width="2" d="M51.0611,-157.115C55.1584,-151.257 59.8245,-144.585 64.2876,-138.203"/>
<polygon fill="black" stroke="black" stroke-width="2" points="67.3123,-139.985 70.1753,-129.785 61.5759,-135.974 67.3123,-139.985"/>
</g>
<!-- 2 -->
<g id="node3" class="node"><title>2</title>
<ellipse fill="cadetblue" stroke="black" cx="118.101" cy="-21.2132" rx="21.4286" ry="21.4286"/>
<text text-anchor="middle" x="118.101" y="-16.2132" font-family="Times New Roman,serif" font-size="20.00">2</text>
</g>
<!-- 2&#45;&gt;6 -->
<g id="edge12" class="edge"><title>2&#45;&gt;6</title>
<path fill="none" stroke="black" stroke-width="2" d="M122.067,-42.156C124.21,-53.4712 126.898,-67.6663 129.283,-80.2619"/>
<polygon fill="black" stroke="black" stroke-width="2" points="125.897,-81.1936 131.197,-90.3677 132.775,-79.8911 125.897,-81.1936"/>
</g>
<!-- 3 -->
<g id="node4" class="node"><title>3</title>
<ellipse fill="cadetblue" stroke="black" cx="150.275" cy="-192.647" rx="21.4286" ry="21.4286"/>
<text text-anchor="middle" x="150.275" y="-187.647" font-family="Times New Roman,serif" font-size="20.00">2</text>
</g>
<!-- 3&#45;&gt;0 -->
<g id="edge1" class="edge"><title>3&#45;&gt;0</title>
<path fill="none" stroke="black" stroke-width="2" d="M130.024,-185.294C127.933,-184.535 125.78,-183.753 123.615,-182.967"/>
<polygon fill="black" stroke="black" stroke-width="2" points="124.809,-179.677 114.215,-179.554 122.42,-186.257 124.809,-179.677"/>
</g>
<!-- 3&#45;&gt;1 -->
<g id="edge6" class="edge"><title>3&#45;&gt;1</title>
<path fill="none" stroke="black" stroke-width="2" d="M129.44,-197.323C118.85,-199.073 105.792,-200.272 94.1575,-198.584 84.8267,-197.23 75.2183,-193.848 66.6833,-190.034"/>
<polygon fill="black" stroke="black" stroke-width="2" points="68.1014,-186.832 57.5751,-185.629 65.0536,-193.134 68.1014,-186.832"/>
</g>
<!-- 4 -->
<g id="node5" class="node"><title>4</title>
<ellipse fill="brown" stroke="black" cx="185.632" cy="-104.722" rx="21.4286" ry="21.4286"/>
<text text-anchor="middle" x="185.632" y="-99.7217" font-family="Times New Roman,serif" font-size="20.00">3</text>
</g>
<!-- 3&#45;&gt;4 -->
<g id="edge13" class="edge"><title>3&#45;&gt;4</title>
<path fill="none" stroke="black" stroke-width="2" d="M158.298,-172.696C162.909,-161.229 168.785,-146.618 173.905,-133.884"/>
<polygon fill="black" stroke="black" stroke-width="2" points="177.157,-135.178 177.641,-124.594 170.663,-132.567 177.157,-135.178"/>
</g>
<!-- 4&#45;&gt;0 -->
<g id="edge2" class="edge"><title>4&#45;&gt;0</title>
<path fill="none" stroke="black" stroke-width="2" d="M168.912,-118.357C164.074,-122.221 158.755,-126.392 153.779,-130.132 142.935,-138.28 130.741,-146.983 120.222,-154.351"/>
<polygon fill="black" stroke="black" stroke-width="2" points="118.05,-151.598 111.845,-160.186 122.051,-157.342 118.05,-151.598"/>
</g>
<!-- 4&#45;&gt;2 -->
<g id="edge10" class="edge"><title>4&#45;&gt;2</title>
<path fill="none" stroke="black" stroke-width="2" d="M172.29,-88.2231C162.55,-76.1779 149.177,-59.6412 138.153,-46.0095"/>
<polygon fill="black" stroke="black" stroke-width="2" points="140.656,-43.5383 131.647,-37.9633 135.213,-47.9399 140.656,-43.5383"/>
</g>
<!-- 5&#45;&gt;1 -->
<g id="edge7" class="edge"><title>5&#45;&gt;1</title>
<path fill="none" stroke="black" stroke-width="2" d="M25.1361,-101.407C27.4541,-113.729 30.4336,-129.568 33.0263,-143.351"/>
<polygon fill="black" stroke="black" stroke-width="2" points="29.6279,-144.218 34.9163,-153.398 36.5072,-142.924 29.6279,-144.218"/>
</g>
<!-- 5&#45;&gt;2 -->
<g id="edge11" class="edge"><title>5&#45;&gt;2</title>
<path fill="none" stroke="black" stroke-width="2" d="M39.4371,-69.3909C54.0526,-60.4397 74.7784,-47.7463 91.2871,-37.6355"/>
<polygon fill="black" stroke="black" stroke-width="2" points="93.2594,-40.5319 99.9592,-32.3244 89.6035,-34.5625 93.2594,-40.5319"/>
</g>
<!-- 6&#45;&gt;3 -->
<g id="edge14" class="edge"><title>6&#45;&gt;3</title>
<path fill="none" stroke="black" stroke-width="2" d="M139.083,-132.405C140.723,-141.232 142.668,-151.699 144.472,-161.412"/>
<polygon fill="black" stroke="black" stroke-width="2" points="141.086,-162.349 146.354,-171.541 147.968,-161.07 141.086,-162.349"/>
</g>
<!-- 6&#45;&gt;4 -->
<g id="edge16" class="edge"><title>6&#45;&gt;4</title>
<path fill="none" stroke="black" stroke-width="2" d="M156.296,-108.67C156.38,-108.659 156.465,-108.648 156.549,-108.636"/>
<polygon fill="black" stroke="black" stroke-width="2" points="155.016,-112.374 164.459,-107.572 154.082,-105.437 155.016,-112.374"/>
</g>
<!-- 7&#45;&gt;3 -->
<g id="edge15" class="edge"><title>7&#45;&gt;3</title>
<path fill="none" stroke="black" stroke-width="2" d="M96.2835,-128.352C106.009,-139.933 119.224,-155.67 130.146,-168.676"/>
<polygon fill="black" stroke="black" stroke-width="2" points="127.487,-170.952 136.598,-176.359 132.847,-166.451 127.487,-170.952"/>
</g>
<!-- 7&#45;&gt;4 -->
<g id="edge17" class="edge"><title>7&#45;&gt;4</title>
<path fill="none" stroke="black" stroke-width="2" d="M99.5263,-98.4185C109.351,-91.8508 122.307,-85.348 135.232,-85.2054 142.844,-85.1214 150.692,-87.0505 157.864,-89.7253"/>
<polygon fill="black" stroke="black" stroke-width="2" points="156.568,-92.9779 167.137,-93.7159 159.335,-86.5479 156.568,-92.9779"/>
</g>
<!-- 7&#45;&gt;5 -->
<g id="edge18" class="edge"><title>7&#45;&gt;5</title>
<path fill="none" stroke="black" stroke-width="2" d="M63.5033,-102.25C59.0433,-99.9614 54.1997,-97.4763 49.4359,-95.0322"/>
<polygon fill="black" stroke="black" stroke-width="2" points="50.9899,-91.8958 40.4949,-90.4449 47.7945,-98.1239 50.9899,-91.8958"/>
</g>
<!-- 7&#45;&gt;6 -->
<g id="edge19" class="edge"><title>7&#45;&gt;6</title>
<path fill="none" stroke="black" stroke-width="2" d="M103.986,-111.824C104.086,-111.823 104.185,-111.822 104.285,-111.821"/>
<polygon fill="black" stroke="black" stroke-width="2" points="103.684,-115.328 113.648,-111.727 103.613,-108.328 103.684,-115.328"/>
</g>
</g>
</svg>

