<?xml version="1.0" encoding="UTF-8" standalone="no"?>
<!DOCTYPE svg PUBLIC "-//W3C//DTD SVG 1.1//EN"
 "http://www.w3.org/Graphics/SVG/1.1/DTD/svg11.dtd">
<!-- Generated by graphviz version 2.36.0 (20140111.2315)
 -->
<!-- Title: G Pages: 1 -->
<svg width="100%" height="100%"
 viewBox="0.00 0.00 254.94 266.99" xmlns="http://www.w3.org/2000/svg" xmlns:xlink="http://www.w3.org/1999/xlink">
<g id="graph0" class="graph" transform="scale(1 1) rotate(0) translate(4 262.985)">
<title>G</title>
<!-- 0 -->
<g id="node1" class="node"><title>0</title>
<ellipse fill="cadetblue" stroke="black" cx="215.062" cy="-198.782" rx="21.4286" ry="21.4286"/>
<text text-anchor="middle" x="215.062" y="-193.782" font-family="Times New Roman,serif" font-size="20.00">2</text>
</g>
<!-- 6 -->
<g id="node7" class="node"><title>6</title>
<ellipse fill="cadetblue" stroke="black" cx="146.481" cy="-153.696" rx="21.4286" ry="21.4286"/>
<text text-anchor="middle" x="146.481" y="-148.696" font-family="Times New Roman,serif" font-size="20.00">2</text>
</g>
<!-- 0&#45;&gt;6 -->
<g id="edge3" class="edge"><title>0&#45;&gt;6</title>
<path fill="none" stroke="black" stroke-width="2" d="M197.044,-186.936C189.699,-182.108 181.058,-176.427 173.017,-171.141"/>
<polygon fill="black" stroke="black" stroke-width="2" points="174.897,-168.188 164.618,-165.619 171.051,-174.037 174.897,-168.188"/>
</g>
<!-- 7 -->
<g id="node8" class="node"><title>7</title>
<ellipse fill="brown" stroke="black" cx="118.822" cy="-103.264" rx="21.4286" ry="21.4286"/>
<text text-anchor="middle" x="118.822" y="-98.2641" font-family="Times New Roman,serif" font-size="20.00">3</text>
</g>
<!-- 0&#45;&gt;7 -->
<g id="edge4" class="edge"><title>0&#45;&gt;7</title>
<path fill="none" stroke="black" stroke-width="2" d="M203.21,-180.841C193.814,-167.382 179.85,-148.969 165.103,-135.118 159.336,-129.7 152.576,-124.517 146.032,-119.965"/>
<polygon fill="black" stroke="black" stroke-width="2" points="147.618,-116.816 137.356,-114.184 143.737,-122.641 147.618,-116.816"/>
</g>
<!-- 1 -->
<g id="node2" class="node"><title>1</title>
<ellipse fill="cadetblue" stroke="black" cx="24.6461" cy="-185.739" rx="21.4286" ry="21.4286"/>
<text text-anchor="middle" x="24.6461" y="-180.739" font-family="Times New Roman,serif" font-size="20.00">2</text>
</g>
<!-- 1&#45;&gt;6 -->
<g id="edge7" class="edge"><title>1&#45;&gt;6</title>
<path fill="none" stroke="black" stroke-width="2" d="M45.3138,-180.304C64.6547,-175.217 93.7934,-167.553 115.839,-161.755"/>
<polygon fill="black" stroke="black" stroke-width="2" points="116.931,-165.087 125.712,-159.158 115.151,-158.317 116.931,-165.087"/>
</g>
<!-- 1&#45;&gt;7 -->
<g id="edge8" class="edge"><title>1&#45;&gt;7</title>
<path fill="none" stroke="black" stroke-width="2" d="M40.6218,-171.749C55.5043,-158.715 77.892,-139.109 94.9047,-124.21"/>
<polygon fill="black" stroke="black" stroke-width="2" points="97.5511,-126.545 102.768,-117.324 92.9393,-121.279 97.5511,-126.545"/>
</g>
<!-- 2 -->
<g id="node3" class="node"><title>2</title>
<ellipse fill="cadetblue" stroke="black" cx="123.751" cy="-21.2132" rx="21.4286" ry="21.4286"/>
<text text-anchor="middle" x="123.751" y="-16.2132" font-family="Times New Roman,serif" font-size="20.00">2</text>
</g>
<!-- 5 -->
<g id="node6" class="node"><title>5</title>
<ellipse fill="cadetblue" stroke="black" cx="21.2132" cy="-98.215" rx="21.4286" ry="21.4286"/>
<text text-anchor="middle" x="21.2132" y="-93.215" font-family="Times New Roman,serif" font-size="20.00">2</text>
</g>
<!-- 2&#45;&gt;5 -->
<g id="edge10" class="edge"><title>2&#45;&gt;5</title>
<path fill="none" stroke="black" stroke-width="2" d="M106.357,-34.2755C89.9064,-46.629 65.0343,-65.307 46.4134,-79.2906"/>
<polygon fill="black" stroke="black" stroke-width="2" points="44.245,-76.5419 38.3504,-85.3456 48.4485,-82.1393 44.245,-76.5419"/>
</g>
<!-- 2&#45;&gt;7 -->
<g id="edge12" class="edge"><title>2&#45;&gt;7</title>
<path fill="none" stroke="black" stroke-width="2" d="M122.456,-42.7711C121.924,-51.6278 121.297,-62.0603 120.716,-71.7449"/>
<polygon fill="black" stroke="black" stroke-width="2" points="117.215,-71.6583 120.109,-81.8502 124.202,-72.0781 117.215,-71.6583"/>
</g>
<!-- 3 -->
<g id="node4" class="node"><title>3</title>
<ellipse fill="cadetblue" stroke="black" cx="94.5942" cy="-237.772" rx="21.4286" ry="21.4286"/>
<text text-anchor="middle" x="94.5942" y="-232.772" font-family="Times New Roman,serif" font-size="20.00">2</text>
</g>
<!-- 3&#45;&gt;0 -->
<g id="edge1" class="edge"><title>3&#45;&gt;0</title>
<path fill="none" stroke="black" stroke-width="2" d="M115.03,-231.158C134.154,-224.968 162.966,-215.644 184.764,-208.589"/>
<polygon fill="black" stroke="black" stroke-width="2" points="186.09,-211.838 194.526,-205.429 183.935,-205.178 186.09,-211.838"/>
</g>
<!-- 3&#45;&gt;1 -->
<g id="edge5" class="edge"><title>3&#45;&gt;1</title>
<path fill="none" stroke="black" stroke-width="2" d="M77.3037,-224.91C69.0025,-218.735 58.8978,-211.218 49.7682,-204.427"/>
<polygon fill="black" stroke="black" stroke-width="2" points="51.8503,-201.614 41.7378,-198.453 47.6723,-207.23 51.8503,-201.614"/>
</g>
<!-- 4 -->
<g id="node5" class="node"><title>4</title>
<ellipse fill="cadetblue" stroke="black" cx="225.728" cy="-80.9319" rx="21.4286" ry="21.4286"/>
<text text-anchor="middle" x="225.728" y="-75.9319" font-family="Times New Roman,serif" font-size="20.00">2</text>
</g>
<!-- 4&#45;&gt;0 -->
<g id="edge2" class="edge"><title>4&#45;&gt;0</title>
<path fill="none" stroke="black" stroke-width="2" d="M223.797,-102.274C222.151,-120.462 219.762,-146.849 217.899,-167.436"/>
<polygon fill="black" stroke="black" stroke-width="2" points="214.395,-167.325 216.98,-177.599 221.367,-167.956 214.395,-167.325"/>
</g>
<!-- 4&#45;&gt;2 -->
<g id="edge9" class="edge"><title>4&#45;&gt;2</title>
<path fill="none" stroke="black" stroke-width="2" d="M207.024,-69.9786C191.355,-60.8028 168.777,-47.5807 151.082,-37.2186"/>
<polygon fill="black" stroke="black" stroke-width="2" points="152.734,-34.1302 142.336,-32.0971 149.197,-40.1707 152.734,-34.1302"/>
</g>
<!-- 5&#45;&gt;1 -->
<g id="edge6" class="edge"><title>5&#45;&gt;1</title>
<path fill="none" stroke="black" stroke-width="2" d="M22.0618,-119.85C22.4692,-130.237 22.9651,-142.881 23.4132,-154.305"/>
<polygon fill="black" stroke="black" stroke-width="2" points="19.918,-154.498 23.8073,-164.353 26.9126,-154.223 19.918,-154.498"/>
</g>
<!-- 5&#45;&gt;3 -->
<g id="edge13" class="edge"><title>5&#45;&gt;3</title>
<path fill="none" stroke="black" stroke-width="2" d="M31.1097,-117.036C43.6378,-140.862 65.3301,-182.117 79.8215,-209.677"/>
<polygon fill="black" stroke="black" stroke-width="2" points="76.8683,-211.581 84.6202,-218.803 83.064,-208.323 76.8683,-211.581"/>
</g>
<!-- 6&#45;&gt;2 -->
<g id="edge11" class="edge"><title>6&#45;&gt;2</title>
<path fill="none" stroke="black" stroke-width="2" d="M146.978,-132.009C146.903,-123.07 146.455,-112.631 145.127,-103.265 142.658,-85.8575 137.84,-66.8326 133.402,-51.4887"/>
<polygon fill="black" stroke="black" stroke-width="2" points="136.64,-50.099 130.424,-41.5192 129.933,-52.1027 136.64,-50.099"/>
</g>
<!-- 6&#45;&gt;3 -->
<g id="edge14" class="edge"><title>6&#45;&gt;3</title>
<path fill="none" stroke="black" stroke-width="2" d="M135.222,-171.939C128.219,-183.287 119.087,-198.084 111.255,-210.775"/>
<polygon fill="black" stroke="black" stroke-width="2" points="108.104,-209.216 105.831,-219.564 114.061,-212.892 108.104,-209.216"/>
</g>
<!-- 6&#45;&gt;4 -->
<g id="edge15" class="edge"><title>6&#45;&gt;4</title>
<path fill="none" stroke="black" stroke-width="2" d="M162.138,-139.32C173.568,-128.824 189.261,-114.415 202.197,-102.538"/>
<polygon fill="black" stroke="black" stroke-width="2" points="204.834,-104.868 209.833,-95.5268 200.1,-99.7121 204.834,-104.868"/>
</g>
<!-- 7&#45;&gt;4 -->
<g id="edge16" class="edge"><title>7&#45;&gt;4</title>
<path fill="none" stroke="black" stroke-width="2" d="M139.689,-98.9052C155.435,-95.6158 177.283,-91.0519 195.022,-87.3463"/>
<polygon fill="black" stroke="black" stroke-width="2" points="195.841,-90.7507 204.914,-85.2798 194.41,-83.8986 195.841,-90.7507"/>
</g>
<!-- 7&#45;&gt;5 -->
<g id="edge17" class="edge"><title>7&#45;&gt;5</title>
<path fill="none" stroke="black" stroke-width="2" d="M97.1597,-102.144C84.0531,-101.466 67.1171,-100.59 52.5653,-99.8368"/>
<polygon fill="black" stroke="black" stroke-width="2" points="52.6469,-96.3364 42.4794,-99.315 52.2852,-103.327 52.6469,-96.3364"/>
</g>
</g>
</svg>

