<?xml version="1.0" encoding="UTF-8" standalone="no"?>
<!DOCTYPE svg PUBLIC "-//W3C//DTD SVG 1.1//EN"
 "http://www.w3.org/Graphics/SVG/1.1/DTD/svg11.dtd">
<!-- Generated by graphviz version 2.36.0 (20140111.2315)
 -->
<!-- Title: G Pages: 1 -->
<svg width="100%" height="100%"
 viewBox="0.00 0.00 209.91 228.62" xmlns="http://www.w3.org/2000/svg" xmlns:xlink="http://www.w3.org/1999/xlink">
<g id="graph0" class="graph" transform="scale(1 1) rotate(0) translate(4 224.618)">
<title>G</title>
<!-- 0 -->
<g id="node1" class="node"><title>0</title>
<ellipse fill="cadetblue" stroke="black" cx="71.6447" cy="-88.1488" rx="21.4286" ry="21.4286"/>
<text text-anchor="middle" x="71.6447" y="-83.1488" font-family="Times New Roman,serif" font-size="20.00">2</text>
</g>
<!-- 5 -->
<g id="node6" class="node"><title>5</title>
<ellipse fill="cadetblue" stroke="black" cx="21.2132" cy="-133.187" rx="21.4286" ry="21.4286"/>
<text text-anchor="middle" x="21.2132" y="-128.187" font-family="Times New Roman,serif" font-size="20.00">2</text>
</g>
<!-- 0&#45;&gt;5 -->
<g id="edge3" class="edge"><title>0&#45;&gt;5</title>
<path fill="none" stroke="black" stroke-width="2" d="M55.6878,-102.399C52.1925,-105.521 48.4216,-108.888 44.701,-112.211"/>
<polygon fill="black" stroke="black" stroke-width="2" points="42.3666,-109.603 37.2393,-118.875 47.0293,-114.824 42.3666,-109.603"/>
</g>
<!-- 6 -->
<g id="node7" class="node"><title>6</title>
<ellipse fill="cadetblue" stroke="black" cx="144.584" cy="-116.271" rx="21.4286" ry="21.4286"/>
<text text-anchor="middle" x="144.584" y="-111.271" font-family="Times New Roman,serif" font-size="20.00">2</text>
</g>
<!-- 0&#45;&gt;6 -->
<g id="edge4" class="edge"><title>0&#45;&gt;6</title>
<path fill="none" stroke="black" stroke-width="2" d="M91.5755,-95.8333C98.8924,-98.6543 107.336,-101.91 115.303,-104.982"/>
<polygon fill="black" stroke="black" stroke-width="2" points="114.087,-108.264 124.677,-108.596 116.605,-101.732 114.087,-108.264"/>
</g>
<!-- 1 -->
<g id="node2" class="node"><title>1</title>
<ellipse fill="cadetblue" stroke="black" cx="150.923" cy="-184.598" rx="21.4286" ry="21.4286"/>
<text text-anchor="middle" x="150.923" y="-179.598" font-family="Times New Roman,serif" font-size="20.00">2</text>
</g>
<!-- 1&#45;&gt;5 -->
<g id="edge7" class="edge"><title>1&#45;&gt;5</title>
<path fill="none" stroke="black" stroke-width="2" d="M130.94,-176.678C109.454,-168.162 75.0812,-154.538 50.5334,-144.808"/>
<polygon fill="black" stroke="black" stroke-width="2" points="51.592,-141.463 41.0059,-141.032 49.0126,-147.97 51.592,-141.463"/>
</g>
<!-- 1&#45;&gt;6 -->
<g id="edge8" class="edge"><title>1&#45;&gt;6</title>
<path fill="none" stroke="black" stroke-width="2" d="M148.952,-163.353C148.503,-158.515 148.016,-153.272 147.537,-148.1"/>
<polygon fill="black" stroke="black" stroke-width="2" points="150.984,-147.372 146.575,-137.738 144.014,-148.018 150.984,-147.372"/>
</g>
<!-- 2 -->
<g id="node3" class="node"><title>2</title>
<ellipse fill="cadetblue" stroke="black" cx="86.5418" cy="-21.2132" rx="21.4286" ry="21.4286"/>
<text text-anchor="middle" x="86.5418" y="-16.2132" font-family="Times New Roman,serif" font-size="20.00">2</text>
</g>
<!-- 4 -->
<g id="node5" class="node"><title>4</title>
<ellipse fill="cadetblue" stroke="black" cx="180.697" cy="-59.9589" rx="21.4286" ry="21.4286"/>
<text text-anchor="middle" x="180.697" y="-54.9589" font-family="Times New Roman,serif" font-size="20.00">2</text>
</g>
<!-- 2&#45;&gt;4 -->
<g id="edge9" class="edge"><title>2&#45;&gt;4</title>
<path fill="none" stroke="black" stroke-width="2" d="M106.51,-29.4302C119.492,-34.7726 136.647,-41.832 151.19,-47.8166"/>
<polygon fill="black" stroke="black" stroke-width="2" points="150.179,-51.185 160.758,-51.7538 152.842,-44.7116 150.179,-51.185"/>
</g>
<!-- 3 -->
<g id="node4" class="node"><title>3</title>
<ellipse fill="cadetblue" stroke="black" cx="70.0682" cy="-199.405" rx="21.4286" ry="21.4286"/>
<text text-anchor="middle" x="70.0682" y="-194.405" font-family="Times New Roman,serif" font-size="20.00">2</text>
</g>
<!-- 3&#45;&gt;0 -->
<g id="edge1" class="edge"><title>3&#45;&gt;0</title>
<path fill="none" stroke="black" stroke-width="2" d="M70.3722,-177.954C70.6066,-161.408 70.9344,-138.276 71.1985,-119.633"/>
<polygon fill="black" stroke="black" stroke-width="2" points="74.6995,-119.583 71.3416,-109.534 67.7002,-119.484 74.6995,-119.583"/>
</g>
<!-- 3&#45;&gt;1 -->
<g id="edge5" class="edge"><title>3&#45;&gt;1</title>
<path fill="none" stroke="black" stroke-width="2" d="M91.3118,-195.515C100.039,-193.916 110.32,-192.034 119.863,-190.286"/>
<polygon fill="black" stroke="black" stroke-width="2" points="120.615,-193.707 129.821,-188.462 119.354,-186.821 120.615,-193.707"/>
</g>
<!-- 4&#45;&gt;0 -->
<g id="edge2" class="edge"><title>4&#45;&gt;0</title>
<path fill="none" stroke="black" stroke-width="2" d="M159.929,-65.3276C143.556,-69.5599 120.489,-75.5227 102.039,-80.292"/>
<polygon fill="black" stroke="black" stroke-width="2" points="101.142,-76.9087 92.336,-82.8001 102.894,-83.686 101.142,-76.9087"/>
</g>
<!-- 4&#45;&gt;1 -->
<g id="edge6" class="edge"><title>4&#45;&gt;1</title>
<path fill="none" stroke="black" stroke-width="2" d="M177.627,-81.0288C175.921,-91.7215 173.596,-104.88 170.887,-116.531 167.974,-129.055 164.116,-142.686 160.569,-154.438"/>
<polygon fill="black" stroke="black" stroke-width="2" points="157.159,-153.619 157.563,-164.206 163.849,-155.678 157.159,-153.619"/>
</g>
<!-- 5&#45;&gt;2 -->
<g id="edge10" class="edge"><title>5&#45;&gt;2</title>
<path fill="none" stroke="black" stroke-width="2" d="M30.0125,-113.859C36.0633,-101.033 44.527,-83.961 53.1013,-69.4923 57.5603,-61.968 62.7857,-54.0654 67.7633,-46.8829"/>
<polygon fill="black" stroke="black" stroke-width="2" points="70.9486,-48.44 73.8594,-38.2528 65.2311,-44.4013 70.9486,-48.44"/>
</g>
<!-- 5&#45;&gt;3 -->
<g id="edge12" class="edge"><title>5&#45;&gt;3</title>
<path fill="none" stroke="black" stroke-width="2" d="M34.0493,-150.585C39.2812,-157.676 45.4367,-166.019 51.1646,-173.783"/>
<polygon fill="black" stroke="black" stroke-width="2" points="48.3948,-175.924 57.1482,-181.893 54.0277,-171.768 48.3948,-175.924"/>
</g>
<!-- 6&#45;&gt;2 -->
<g id="edge11" class="edge"><title>6&#45;&gt;2</title>
<path fill="none" stroke="black" stroke-width="2" d="M133.393,-97.9428C124.801,-83.8718 112.805,-64.2259 103.103,-48.3361"/>
<polygon fill="black" stroke="black" stroke-width="2" points="105.897,-46.1958 97.6985,-39.485 99.9226,-49.8438 105.897,-46.1958"/>
</g>
<!-- 6&#45;&gt;3 -->
<g id="edge13" class="edge"><title>6&#45;&gt;3</title>
<path fill="none" stroke="black" stroke-width="2" d="M130.216,-132.3C119.186,-144.606 103.786,-161.787 91.3298,-175.684"/>
<polygon fill="black" stroke="black" stroke-width="2" points="88.4597,-173.642 84.3914,-183.425 93.6723,-178.314 88.4597,-173.642"/>
</g>
<!-- 6&#45;&gt;4 -->
<g id="edge14" class="edge"><title>6&#45;&gt;4</title>
<path fill="none" stroke="black" stroke-width="2" d="M156.209,-98.1434C158.593,-94.4259 161.149,-90.44 163.678,-86.4966"/>
<polygon fill="black" stroke="black" stroke-width="2" points="166.641,-88.3595 169.094,-78.0524 160.749,-84.5806 166.641,-88.3595"/>
</g>
</g>
</svg>

