<?xml version="1.0" encoding="UTF-8" standalone="no"?>
<!DOCTYPE svg PUBLIC "-//W3C//DTD SVG 1.1//EN"
 "http://www.w3.org/Graphics/SVG/1.1/DTD/svg11.dtd">
<!-- Generated by graphviz version 2.36.0 (20140111.2315)
 -->
<!-- Title: G Pages: 1 -->
<svg width="100%" height="100%"
 viewBox="0.00 0.00 234.03 170.15" xmlns="http://www.w3.org/2000/svg" xmlns:xlink="http://www.w3.org/1999/xlink">
<g id="graph0" class="graph" transform="scale(1 1) rotate(0) translate(4 166.154)">
<title>G</title>
<!-- 0 -->
<g id="node1" class="node"><title>0</title>
<ellipse fill="cadetblue" stroke="black" cx="104.16" cy="-140.941" rx="21.4286" ry="21.4286"/>
<text text-anchor="middle" x="104.16" y="-135.941" font-family="Times New Roman,serif" font-size="20.00">2</text>
</g>
<!-- 3 -->
<g id="node4" class="node"><title>3</title>
<ellipse fill="cadetblue" stroke="black" cx="21.2132" cy="-105.836" rx="21.4286" ry="21.4286"/>
<text text-anchor="middle" x="21.2132" y="-100.836" font-family="Times New Roman,serif" font-size="20.00">2</text>
</g>
<!-- 0&#45;&gt;3 -->
<g id="edge1" class="edge"><title>0&#45;&gt;3</title>
<path fill="none" stroke="black" stroke-width="2" d="M84.503,-132.621C74.3504,-128.325 61.7594,-122.996 50.4879,-118.226"/>
<polygon fill="black" stroke="black" stroke-width="2" points="51.5902,-114.892 41.0169,-114.217 48.8619,-121.338 51.5902,-114.892"/>
</g>
<!-- 5 -->
<g id="node6" class="node"><title>5</title>
<ellipse fill="brown" stroke="black" cx="162.487" cy="-89.8146" rx="21.4286" ry="21.4286"/>
<text text-anchor="middle" x="162.487" y="-84.8146" font-family="Times New Roman,serif" font-size="20.00">3</text>
</g>
<!-- 0&#45;&gt;5 -->
<g id="edge3" class="edge"><title>0&#45;&gt;5</title>
<path fill="none" stroke="black" stroke-width="2" d="M120.408,-126.699C126.096,-121.713 132.605,-116.007 138.777,-110.597"/>
<polygon fill="black" stroke="black" stroke-width="2" points="141.114,-113.203 146.327,-103.98 136.5,-107.939 141.114,-113.203"/>
</g>
<!-- 1 -->
<g id="node2" class="node"><title>1</title>
<ellipse fill="cadetblue" stroke="black" cx="57.4557" cy="-23.7529" rx="21.4286" ry="21.4286"/>
<text text-anchor="middle" x="57.4557" y="-18.7529" font-family="Times New Roman,serif" font-size="20.00">2</text>
</g>
<!-- 4 -->
<g id="node5" class="node"><title>4</title>
<ellipse fill="cadetblue" stroke="black" cx="133.892" cy="-21.2132" rx="21.4286" ry="21.4286"/>
<text text-anchor="middle" x="133.892" y="-16.2132" font-family="Times New Roman,serif" font-size="20.00">2</text>
</g>
<!-- 1&#45;&gt;4 -->
<g id="edge6" class="edge"><title>1&#45;&gt;4</title>
<path fill="none" stroke="black" stroke-width="2" d="M78.7474,-23.0454C86.0575,-22.8026 94.4029,-22.5253 102.351,-22.2612"/>
<polygon fill="black" stroke="black" stroke-width="2" points="102.571,-25.7559 112.449,-21.9257 102.339,-18.7598 102.571,-25.7559"/>
</g>
<!-- 6 -->
<g id="node7" class="node"><title>6</title>
<ellipse fill="cadetblue" stroke="black" cx="101.935" cy="-74.1843" rx="21.4286" ry="21.4286"/>
<text text-anchor="middle" x="101.935" y="-69.1843" font-family="Times New Roman,serif" font-size="20.00">2</text>
</g>
<!-- 1&#45;&gt;6 -->
<g id="edge8" class="edge"><title>1&#45;&gt;6</title>
<path fill="none" stroke="black" stroke-width="2" d="M71.5293,-39.7097C74.531,-43.1131 77.7631,-46.7777 80.9603,-50.4027"/>
<polygon fill="black" stroke="black" stroke-width="2" points="78.5609,-52.9736 87.8005,-58.1582 83.8108,-48.3433 78.5609,-52.9736"/>
</g>
<!-- 2 -->
<g id="node3" class="node"><title>2</title>
<ellipse fill="cadetblue" stroke="black" cx="204.816" cy="-30.4963" rx="21.4286" ry="21.4286"/>
<text text-anchor="middle" x="204.816" y="-25.4963" font-family="Times New Roman,serif" font-size="20.00">2</text>
</g>
<!-- 2&#45;&gt;6 -->
<g id="edge11" class="edge"><title>2&#45;&gt;6</title>
<path fill="none" stroke="black" stroke-width="2" d="M184.98,-38.9198C169.751,-45.3867 148.488,-54.4159 131.29,-61.7188"/>
<polygon fill="black" stroke="black" stroke-width="2" points="129.547,-58.6564 121.711,-65.7867 132.283,-65.0996 129.547,-58.6564"/>
</g>
<!-- 3&#45;&gt;1 -->
<g id="edge5" class="edge"><title>3&#45;&gt;1</title>
<path fill="none" stroke="black" stroke-width="2" d="M29.8022,-86.3835C34.2382,-76.3366 39.7396,-63.8768 44.6645,-52.7227"/>
<polygon fill="black" stroke="black" stroke-width="2" points="47.9654,-53.912 48.8028,-43.3503 41.5618,-51.0846 47.9654,-53.912"/>
</g>
<!-- 4&#45;&gt;0 -->
<g id="edge2" class="edge"><title>4&#45;&gt;0</title>
<path fill="none" stroke="black" stroke-width="2" d="M132.8,-42.6488C132,-52.4356 130.619,-64.1206 128.238,-74.4444 125.358,-86.9366 120.822,-100.3 116.46,-111.747"/>
<polygon fill="black" stroke="black" stroke-width="2" points="113.128,-110.655 112.717,-121.242 119.64,-113.222 113.128,-110.655"/>
</g>
<!-- 4&#45;&gt;2 -->
<g id="edge9" class="edge"><title>4&#45;&gt;2</title>
<path fill="none" stroke="black" stroke-width="2" d="M155.172,-23.9984C160.922,-24.7511 167.269,-25.5818 173.447,-26.3905"/>
<polygon fill="black" stroke="black" stroke-width="2" points="173.182,-29.8855 183.552,-27.713 174.09,-22.9447 173.182,-29.8855"/>
</g>
<!-- 4&#45;&gt;5 -->
<g id="edge13" class="edge"><title>4&#45;&gt;5</title>
<path fill="none" stroke="black" stroke-width="2" d="M142.163,-41.0556C144.69,-47.1174 147.524,-53.9167 150.255,-60.4695"/>
<polygon fill="black" stroke="black" stroke-width="2" points="147.058,-61.8955 154.136,-69.7791 153.519,-59.2023 147.058,-61.8955"/>
</g>
<!-- 5&#45;&gt;1 -->
<g id="edge7" class="edge"><title>5&#45;&gt;1</title>
<path fill="none" stroke="black" stroke-width="2" d="M146.445,-75.3736C138.922,-68.9666 129.661,-61.5797 120.718,-55.7691 109.941,-48.7665 97.4305,-42.15 86.3942,-36.7697"/>
<polygon fill="black" stroke="black" stroke-width="2" points="87.69,-33.5105 77.1555,-32.3811 84.6864,-39.8333 87.69,-33.5105"/>
</g>
<!-- 5&#45;&gt;2 -->
<g id="edge10" class="edge"><title>5&#45;&gt;2</title>
<path fill="none" stroke="black" stroke-width="2" d="M174.958,-72.338C178.543,-67.3143 182.531,-61.7262 186.394,-56.3119"/>
<polygon fill="black" stroke="black" stroke-width="2" points="189.328,-58.226 192.288,-48.0529 183.63,-54.1599 189.328,-58.226"/>
</g>
<!-- 6&#45;&gt;0 -->
<g id="edge4" class="edge"><title>6&#45;&gt;0</title>
<path fill="none" stroke="black" stroke-width="2" d="M102.652,-95.6739C102.798,-100.081 102.956,-104.806 103.112,-109.481"/>
<polygon fill="black" stroke="black" stroke-width="2" points="99.6141,-109.613 103.445,-119.491 106.61,-109.38 99.6141,-109.613"/>
</g>
<!-- 6&#45;&gt;3 -->
<g id="edge12" class="edge"><title>6&#45;&gt;3</title>
<path fill="none" stroke="black" stroke-width="2" d="M81.9815,-82.0084C72.5703,-85.6986 61.1502,-90.1765 50.7618,-94.2499"/>
<polygon fill="black" stroke="black" stroke-width="2" points="49.2494,-91.0834 41.2172,-97.9924 51.8048,-97.6003 49.2494,-91.0834"/>
</g>
<!-- 6&#45;&gt;4 -->
<g id="edge14" class="edge"><title>6&#45;&gt;4</title>
<path fill="none" stroke="black" stroke-width="2" d="M112.933,-55.9547C114.422,-53.4857 115.976,-50.9104 117.535,-48.3271"/>
<polygon fill="black" stroke="black" stroke-width="2" points="120.597,-50.0268 122.766,-39.6563 114.603,-46.4108 120.597,-50.0268"/>
</g>
<!-- 6&#45;&gt;5 -->
<g id="edge15" class="edge"><title>6&#45;&gt;5</title>
<path fill="none" stroke="black" stroke-width="2" d="M122.774,-79.5634C125.756,-80.3333 128.875,-81.1383 131.996,-81.944"/>
<polygon fill="black" stroke="black" stroke-width="2" points="131.258,-85.368 141.815,-84.4786 133.007,-78.5902 131.258,-85.368"/>
</g>
</g>
</svg>

