<?xml version="1.0" encoding="UTF-8" standalone="no"?>
<!DOCTYPE svg PUBLIC "-//W3C//DTD SVG 1.1//EN"
 "http://www.w3.org/Graphics/SVG/1.1/DTD/svg11.dtd">
<!-- Generated by graphviz version 2.36.0 (20140111.2315)
 -->
<!-- Title: G Pages: 1 -->
<svg width="100%" height="100%"
 viewBox="0.00 0.00 240.09 246.76" xmlns="http://www.w3.org/2000/svg" xmlns:xlink="http://www.w3.org/1999/xlink">
<g id="graph0" class="graph" transform="scale(1 1) rotate(0) translate(4 242.756)">
<title>G</title>
<!-- 0 -->
<g id="node1" class="node"><title>0</title>
<ellipse fill="cadetblue" stroke="black" cx="53.6339" cy="-74.89" rx="21.4286" ry="21.4286"/>
<text text-anchor="middle" x="53.6339" y="-69.89" font-family="Times New Roman,serif" font-size="20.00">2</text>
</g>
<!-- 5 -->
<g id="node6" class="node"><title>5</title>
<ellipse fill="cadetblue" stroke="black" cx="21.2132" cy="-143.646" rx="21.4286" ry="21.4286"/>
<text text-anchor="middle" x="21.2132" y="-138.646" font-family="Times New Roman,serif" font-size="20.00">2</text>
</g>
<!-- 0&#45;&gt;5 -->
<g id="edge3" class="edge"><title>0&#45;&gt;5</title>
<path fill="none" stroke="black" stroke-width="2" d="M44.4301,-94.4088C41.3927,-100.85 37.9489,-108.154 34.6612,-115.126"/>
<polygon fill="black" stroke="black" stroke-width="2" points="31.4271,-113.779 30.3277,-124.316 37.7585,-116.764 31.4271,-113.779"/>
</g>
<!-- 7 -->
<g id="node8" class="node"><title>7</title>
<ellipse fill="brown" stroke="black" cx="132.42" cy="-124.195" rx="21.4286" ry="21.4286"/>
<text text-anchor="middle" x="132.42" y="-119.195" font-family="Times New Roman,serif" font-size="20.00">3</text>
</g>
<!-- 0&#45;&gt;7 -->
<g id="edge4" class="edge"><title>0&#45;&gt;7</title>
<path fill="none" stroke="black" stroke-width="2" d="M71.9069,-86.3254C81.9502,-92.6106 94.5937,-100.523 105.723,-107.488"/>
<polygon fill="black" stroke="black" stroke-width="2" points="103.912,-110.483 114.246,-112.821 107.625,-104.549 103.912,-110.483"/>
</g>
<!-- 1 -->
<g id="node2" class="node"><title>1</title>
<ellipse fill="cadetblue" stroke="black" cx="205.54" cy="-217.543" rx="21.4286" ry="21.4286"/>
<text text-anchor="middle" x="205.54" y="-212.543" font-family="Times New Roman,serif" font-size="20.00">2</text>
</g>
<!-- 1&#45;&gt;7 -->
<g id="edge7" class="edge"><title>1&#45;&gt;7</title>
<path fill="none" stroke="black" stroke-width="2" d="M192.129,-200.421C180.894,-186.078 164.704,-165.411 152.017,-149.213"/>
<polygon fill="black" stroke="black" stroke-width="2" points="154.668,-146.922 145.746,-141.208 149.157,-151.238 154.668,-146.922"/>
</g>
<!-- 2 -->
<g id="node3" class="node"><title>2</title>
<ellipse fill="cadetblue" stroke="black" cx="104.065" cy="-35.2929" rx="21.4286" ry="21.4286"/>
<text text-anchor="middle" x="104.065" y="-30.2929" font-family="Times New Roman,serif" font-size="20.00">2</text>
</g>
<!-- 6 -->
<g id="node7" class="node"><title>6</title>
<ellipse fill="brown" stroke="black" cx="210.877" cy="-116.543" rx="21.4286" ry="21.4286"/>
<text text-anchor="middle" x="210.877" y="-111.543" font-family="Times New Roman,serif" font-size="20.00">3</text>
</g>
<!-- 2&#45;&gt;6 -->
<g id="edge10" class="edge"><title>2&#45;&gt;6</title>
<path fill="none" stroke="black" stroke-width="2" d="M121.226,-48.3471C138.667,-61.6139 165.872,-82.3083 185.742,-97.4227"/>
<polygon fill="black" stroke="black" stroke-width="2" points="183.68,-100.252 193.759,-103.521 187.919,-94.6808 183.68,-100.252"/>
</g>
<!-- 2&#45;&gt;7 -->
<g id="edge11" class="edge"><title>2&#45;&gt;7</title>
<path fill="none" stroke="black" stroke-width="2" d="M110.642,-55.9123C114.256,-67.245 118.806,-81.512 122.812,-94.0705"/>
<polygon fill="black" stroke="black" stroke-width="2" points="119.506,-95.2236 125.879,-103.687 126.175,-93.0966 119.506,-95.2236"/>
</g>
<!-- 3 -->
<g id="node4" class="node"><title>3</title>
<ellipse fill="cadetblue" stroke="black" cx="105.999" cy="-198.42" rx="21.4286" ry="21.4286"/>
<text text-anchor="middle" x="105.999" y="-193.42" font-family="Times New Roman,serif" font-size="20.00">2</text>
</g>
<!-- 3&#45;&gt;0 -->
<g id="edge1" class="edge"><title>3&#45;&gt;0</title>
<path fill="none" stroke="black" stroke-width="2" d="M97.7014,-178.846C89.1723,-158.726 75.7929,-127.164 66.0125,-104.091"/>
<polygon fill="black" stroke="black" stroke-width="2" points="69.1912,-102.622 62.0658,-94.7811 62.7463,-105.354 69.1912,-102.622"/>
</g>
<!-- 3&#45;&gt;1 -->
<g id="edge5" class="edge"><title>3&#45;&gt;1</title>
<path fill="none" stroke="black" stroke-width="2" d="M127.109,-202.475C140.834,-205.112 158.97,-208.596 174.345,-211.55"/>
<polygon fill="black" stroke="black" stroke-width="2" points="173.98,-215.044 184.46,-213.493 175.3,-208.169 173.98,-215.044"/>
</g>
<!-- 3&#45;&gt;6 -->
<g id="edge13" class="edge"><title>3&#45;&gt;6</title>
<path fill="none" stroke="black" stroke-width="2" d="M122.849,-185.265C139.898,-171.955 166.449,-151.227 185.935,-136.014"/>
<polygon fill="black" stroke="black" stroke-width="2" points="188.34,-138.577 194.068,-129.665 184.032,-133.06 188.34,-138.577"/>
</g>
<!-- 4 -->
<g id="node5" class="node"><title>4</title>
<ellipse fill="cadetblue" stroke="black" cx="178.904" cy="-21.2132" rx="21.4286" ry="21.4286"/>
<text text-anchor="middle" x="178.904" y="-16.2132" font-family="Times New Roman,serif" font-size="20.00">2</text>
</g>
<!-- 4&#45;&gt;0 -->
<g id="edge2" class="edge"><title>4&#45;&gt;0</title>
<path fill="none" stroke="black" stroke-width="2" d="M161.231,-32.9893C146.533,-42.2181 124.744,-54.6264 104.027,-61.5973 97.7235,-63.718 90.8858,-65.7168 84.3401,-67.4887"/>
<polygon fill="black" stroke="black" stroke-width="2" points="83.2095,-64.1662 74.413,-70.0715 84.9721,-70.9407 83.2095,-64.1662"/>
</g>
<!-- 4&#45;&gt;2 -->
<g id="edge8" class="edge"><title>4&#45;&gt;2</title>
<path fill="none" stroke="black" stroke-width="2" d="M157.658,-25.2102C150.647,-26.5293 142.697,-28.0249 135.108,-29.4527"/>
<polygon fill="black" stroke="black" stroke-width="2" points="134.285,-26.046 125.105,-31.3346 135.58,-32.9253 134.285,-26.046"/>
</g>
<!-- 5&#45;&gt;2 -->
<g id="edge9" class="edge"><title>5&#45;&gt;2</title>
<path fill="none" stroke="black" stroke-width="2" d="M37.6148,-129.804C48.2756,-120.287 62.0337,-106.978 72.2169,-93.507 79.1133,-84.3837 85.4504,-73.5821 90.6248,-63.7757"/>
<polygon fill="black" stroke="black" stroke-width="2" points="93.7937,-65.2657 95.21,-54.7659 87.5551,-62.0908 93.7937,-65.2657"/>
</g>
<!-- 5&#45;&gt;3 -->
<g id="edge12" class="edge"><title>5&#45;&gt;3</title>
<path fill="none" stroke="black" stroke-width="2" d="M39.194,-155.262C50.8846,-162.814 66.3325,-172.794 79.4283,-181.254"/>
<polygon fill="black" stroke="black" stroke-width="2" points="77.745,-184.334 88.0439,-186.82 81.5435,-178.454 77.745,-184.334"/>
</g>
<!-- 6&#45;&gt;1 -->
<g id="edge6" class="edge"><title>6&#45;&gt;1</title>
<path fill="none" stroke="black" stroke-width="2" d="M209.745,-137.962C209.009,-151.888 208.037,-170.29 207.213,-185.891"/>
<polygon fill="black" stroke="black" stroke-width="2" points="203.703,-185.983 206.67,-196.154 210.693,-186.353 203.703,-185.983"/>
</g>
<!-- 6&#45;&gt;4 -->
<g id="edge15" class="edge"><title>6&#45;&gt;4</title>
<path fill="none" stroke="black" stroke-width="2" d="M204.096,-96.3257C199.688,-83.1813 193.862,-65.8124 188.924,-51.0879"/>
<polygon fill="black" stroke="black" stroke-width="2" points="192.173,-49.7689 185.675,-41.401 185.537,-51.9949 192.173,-49.7689"/>
</g>
<!-- 7&#45;&gt;3 -->
<g id="edge14" class="edge"><title>7&#45;&gt;3</title>
<path fill="none" stroke="black" stroke-width="2" d="M125.2,-144.477C122.528,-151.984 119.441,-160.656 116.534,-168.822"/>
<polygon fill="black" stroke="black" stroke-width="2" points="113.174,-167.824 113.118,-178.419 119.769,-170.172 113.174,-167.824"/>
</g>
<!-- 7&#45;&gt;4 -->
<g id="edge16" class="edge"><title>7&#45;&gt;4</title>
<path fill="none" stroke="black" stroke-width="2" d="M141.163,-104.825C148.131,-89.3884 157.993,-67.5394 165.889,-50.0476"/>
<polygon fill="black" stroke="black" stroke-width="2" points="169.118,-51.401 170.042,-40.8465 162.738,-48.521 169.118,-51.401"/>
</g>
<!-- 7&#45;&gt;5 -->
<g id="edge17" class="edge"><title>7&#45;&gt;5</title>
<path fill="none" stroke="black" stroke-width="2" d="M111.503,-127.853C94.8333,-130.769 71.2394,-134.896 52.3505,-138.2"/>
<polygon fill="black" stroke="black" stroke-width="2" points="51.662,-134.767 42.4146,-139.938 52.8681,-141.662 51.662,-134.767"/>
</g>
<!-- 7&#45;&gt;6 -->
<g id="edge18" class="edge"><title>7&#45;&gt;6</title>
<path fill="none" stroke="black" stroke-width="2" d="M153.858,-122.104C161.793,-121.33 170.96,-120.436 179.592,-119.594"/>
<polygon fill="black" stroke="black" stroke-width="2" points="180.123,-123.059 189.736,-118.605 179.443,-116.092 180.123,-123.059"/>
</g>
</g>
</svg>

