<?xml version="1.0" encoding="UTF-8" standalone="no"?>
<!DOCTYPE svg PUBLIC "-//W3C//DTD SVG 1.1//EN"
 "http://www.w3.org/Graphics/SVG/1.1/DTD/svg11.dtd">
<!-- Generated by graphviz version 2.36.0 (20140111.2315)
 -->
<!-- Title: G Pages: 1 -->
<svg width="100%" height="100%"
 viewBox="0.00 0.00 243.31 274.17" xmlns="http://www.w3.org/2000/svg" xmlns:xlink="http://www.w3.org/1999/xlink">
<g id="graph0" class="graph" transform="scale(1 1) rotate(0) translate(4 270.17)">
<title>G</title>
<!-- 0 -->
<g id="node1" class="node"><title>0</title>
<ellipse fill="cadetblue" stroke="black" cx="105.392" cy="-209.222" rx="21.4286" ry="21.4286"/>
<text text-anchor="middle" x="105.392" y="-204.222" font-family="Times New Roman,serif" font-size="20.00">2</text>
</g>
<!-- 5 -->
<g id="node6" class="node"><title>5</title>
<ellipse fill="brown" stroke="black" cx="21.2132" cy="-97.3799" rx="21.4286" ry="21.4286"/>
<text text-anchor="middle" x="21.2132" y="-92.3799" font-family="Times New Roman,serif" font-size="20.00">3</text>
</g>
<!-- 0&#45;&gt;5 -->
<g id="edge3" class="edge"><title>0&#45;&gt;5</title>
<path fill="none" stroke="black" stroke-width="2" d="M92.6067,-192.236C78.7009,-173.76 56.3228,-144.028 40.3275,-122.776"/>
<polygon fill="black" stroke="black" stroke-width="2" points="42.9284,-120.411 34.1184,-114.526 37.3356,-124.621 42.9284,-120.411"/>
</g>
<!-- 6 -->
<g id="node7" class="node"><title>6</title>
<ellipse fill="cadetblue" stroke="black" cx="209.123" cy="-147.435" rx="21.4286" ry="21.4286"/>
<text text-anchor="middle" x="209.123" y="-142.435" font-family="Times New Roman,serif" font-size="20.00">2</text>
</g>
<!-- 0&#45;&gt;6 -->
<g id="edge4" class="edge"><title>0&#45;&gt;6</title>
<path fill="none" stroke="black" stroke-width="2" d="M123.937,-198.176C140.089,-188.555 163.718,-174.48 181.995,-163.594"/>
<polygon fill="black" stroke="black" stroke-width="2" points="183.939,-166.51 190.739,-158.386 180.356,-160.496 183.939,-166.51"/>
</g>
<!-- 1 -->
<g id="node2" class="node"><title>1</title>
<ellipse fill="cadetblue" stroke="black" cx="45.285" cy="-178.675" rx="21.4286" ry="21.4286"/>
<text text-anchor="middle" x="45.285" y="-173.675" font-family="Times New Roman,serif" font-size="20.00">2</text>
</g>
<!-- 1&#45;&gt;6 -->
<g id="edge7" class="edge"><title>1&#45;&gt;6</title>
<path fill="none" stroke="black" stroke-width="2" d="M66.3686,-174.655C94.7555,-169.242 145.47,-159.572 178.183,-153.335"/>
<polygon fill="black" stroke="black" stroke-width="2" points="178.953,-156.751 188.121,-151.44 177.642,-149.875 178.953,-156.751"/>
</g>
<!-- 7 -->
<g id="node8" class="node"><title>7</title>
<ellipse fill="cadetblue" stroke="black" cx="140.886" cy="-123.102" rx="21.4286" ry="21.4286"/>
<text text-anchor="middle" x="140.886" y="-118.102" font-family="Times New Roman,serif" font-size="20.00">2</text>
</g>
<!-- 1&#45;&gt;7 -->
<g id="edge8" class="edge"><title>1&#45;&gt;7</title>
<path fill="none" stroke="black" stroke-width="2" d="M63.7178,-167.96C77.8691,-159.734 97.6272,-148.248 113.608,-138.959"/>
<polygon fill="black" stroke="black" stroke-width="2" points="115.623,-141.836 122.509,-133.784 112.105,-135.784 115.623,-141.836"/>
</g>
<!-- 2 -->
<g id="node3" class="node"><title>2</title>
<ellipse fill="cadetblue" stroke="black" cx="159.984" cy="-21.2132" rx="21.4286" ry="21.4286"/>
<text text-anchor="middle" x="159.984" y="-16.2132" font-family="Times New Roman,serif" font-size="20.00">2</text>
</g>
<!-- 2&#45;&gt;5 -->
<g id="edge10" class="edge"><title>2&#45;&gt;5</title>
<path fill="none" stroke="black" stroke-width="2" d="M144.235,-35.5638C130.631,-47.4297 110.062,-64.1412 90.0599,-75.6511 82.3045,-80.1138 79.8514,-80.2769 71.3846,-83.1712 65.0885,-85.3235 58.272,-87.4112 51.7529,-89.2939"/>
<polygon fill="black" stroke="black" stroke-width="2" points="50.5554,-85.9946 41.8711,-92.0636 52.4446,-92.7349 50.5554,-85.9946"/>
</g>
<!-- 2&#45;&gt;7 -->
<g id="edge12" class="edge"><title>2&#45;&gt;7</title>
<path fill="none" stroke="black" stroke-width="2" d="M156.027,-42.3246C153.338,-56.6692 149.736,-75.8859 146.72,-91.9773"/>
<polygon fill="black" stroke="black" stroke-width="2" points="143.24,-91.544 144.838,-102.018 150.12,-92.8337 143.24,-91.544"/>
</g>
<!-- 3 -->
<g id="node4" class="node"><title>3</title>
<ellipse fill="cadetblue" stroke="black" cx="214.096" cy="-244.957" rx="21.4286" ry="21.4286"/>
<text text-anchor="middle" x="214.096" y="-239.957" font-family="Times New Roman,serif" font-size="20.00">2</text>
</g>
<!-- 3&#45;&gt;0 -->
<g id="edge1" class="edge"><title>3&#45;&gt;0</title>
<path fill="none" stroke="black" stroke-width="2" d="M193.905,-238.319C177.458,-232.913 153.994,-225.2 135.357,-219.073"/>
<polygon fill="black" stroke="black" stroke-width="2" points="136.437,-215.744 125.844,-215.946 134.251,-222.394 136.437,-215.744"/>
</g>
<!-- 4 -->
<g id="node5" class="node"><title>4</title>
<ellipse fill="cadetblue" stroke="black" cx="71.6447" cy="-56.8681" rx="21.4286" ry="21.4286"/>
<text text-anchor="middle" x="71.6447" y="-51.8681" font-family="Times New Roman,serif" font-size="20.00">2</text>
</g>
<!-- 4&#45;&gt;0 -->
<g id="edge2" class="edge"><title>4&#45;&gt;0</title>
<path fill="none" stroke="black" stroke-width="2" d="M76.2663,-77.7329C82.0149,-103.686 91.8798,-148.222 98.5167,-178.185"/>
<polygon fill="black" stroke="black" stroke-width="2" points="95.1377,-179.114 100.718,-188.121 101.972,-177.6 95.1377,-179.114"/>
</g>
<!-- 4&#45;&gt;1 -->
<g id="edge5" class="edge"><title>4&#45;&gt;1</title>
<path fill="none" stroke="black" stroke-width="2" d="M67.1133,-77.8075C62.9452,-97.0679 56.7111,-125.875 51.971,-147.779"/>
<polygon fill="black" stroke="black" stroke-width="2" points="48.5398,-147.087 49.8455,-157.601 55.3815,-148.568 48.5398,-147.087"/>
</g>
<!-- 4&#45;&gt;2 -->
<g id="edge9" class="edge"><title>4&#45;&gt;2</title>
<path fill="none" stroke="black" stroke-width="2" d="M91.6902,-48.7775C103.211,-44.1276 117.89,-38.2029 130.685,-33.0388"/>
<polygon fill="black" stroke="black" stroke-width="2" points="132.055,-36.2603 140.018,-29.2718 129.435,-29.7691 132.055,-36.2603"/>
</g>
<!-- 5&#45;&gt;1 -->
<g id="edge6" class="edge"><title>5&#45;&gt;1</title>
<path fill="none" stroke="black" stroke-width="2" d="M27.2875,-117.894C30.0244,-127.137 33.3114,-138.238 36.3232,-148.409"/>
<polygon fill="black" stroke="black" stroke-width="2" points="33.0174,-149.573 39.2126,-158.168 39.7293,-147.585 33.0174,-149.573"/>
</g>
<!-- 5&#45;&gt;4 -->
<g id="edge15" class="edge"><title>5&#45;&gt;4</title>
<path fill="none" stroke="black" stroke-width="2" d="M38.0061,-83.8901C40.9288,-81.5423 44.022,-79.0575 47.1018,-76.5835"/>
<polygon fill="black" stroke="black" stroke-width="2" points="49.4924,-79.1526 55.0966,-70.1613 45.1085,-73.6953 49.4924,-79.1526"/>
</g>
<!-- 6&#45;&gt;2 -->
<g id="edge11" class="edge"><title>6&#45;&gt;2</title>
<path fill="none" stroke="black" stroke-width="2" d="M201.337,-127.435C193.286,-106.754 180.629,-74.2438 171.438,-50.6333"/>
<polygon fill="black" stroke="black" stroke-width="2" points="174.623,-49.1688 167.734,-41.1198 168.1,-51.7083 174.623,-49.1688"/>
</g>
<!-- 6&#45;&gt;3 -->
<g id="edge13" class="edge"><title>6&#45;&gt;3</title>
<path fill="none" stroke="black" stroke-width="2" d="M210.227,-169.078C210.895,-182.173 211.758,-199.094 212.499,-213.633"/>
<polygon fill="black" stroke="black" stroke-width="2" points="209.008,-213.901 213.013,-223.71 215.999,-213.544 209.008,-213.901"/>
</g>
<!-- 7&#45;&gt;3 -->
<g id="edge14" class="edge"><title>7&#45;&gt;3</title>
<path fill="none" stroke="black" stroke-width="2" d="M151.846,-141.345C164.03,-161.625 183.833,-194.585 197.827,-217.877"/>
<polygon fill="black" stroke="black" stroke-width="2" points="194.911,-219.82 203.061,-226.589 200.911,-216.215 194.911,-219.82"/>
</g>
<!-- 7&#45;&gt;4 -->
<g id="edge16" class="edge"><title>7&#45;&gt;4</title>
<path fill="none" stroke="black" stroke-width="2" d="M125.519,-108.403C116.502,-99.7775 104.931,-88.7085 94.8245,-79.0413"/>
<polygon fill="black" stroke="black" stroke-width="2" points="97.0942,-76.3689 87.4486,-71.9857 92.2555,-81.4273 97.0942,-76.3689"/>
</g>
<!-- 7&#45;&gt;5 -->
<g id="edge17" class="edge"><title>7&#45;&gt;5</title>
<path fill="none" stroke="black" stroke-width="2" d="M120.04,-118.622C101.279,-114.589 73.46,-108.61 52.1128,-104.021"/>
<polygon fill="black" stroke="black" stroke-width="2" points="52.7334,-100.575 42.2212,-101.895 51.2624,-107.419 52.7334,-100.575"/>
</g>
</g>
</svg>

