<?xml version="1.0" encoding="UTF-8" standalone="no"?>
<!DOCTYPE svg PUBLIC "-//W3C//DTD SVG 1.1//EN"
 "http://www.w3.org/Graphics/SVG/1.1/DTD/svg11.dtd">
<!-- Generated by graphviz version 2.36.0 (20140111.2315)
 -->
<!-- Title: G Pages: 1 -->
<svg width="100%" height="100%"
 viewBox="0.00 0.00 289.54 276.34" xmlns="http://www.w3.org/2000/svg" xmlns:xlink="http://www.w3.org/1999/xlink">
<g id="graph0" class="graph" transform="scale(1 1) rotate(0) translate(4 272.344)">
<title>G</title>
<!-- 0 -->
<g id="node1" class="node"><title>0</title>
<ellipse fill="cadetblue" stroke="black" cx="21.2132" cy="-99.0955" rx="21.4286" ry="21.4286"/>
<text text-anchor="middle" x="21.2132" y="-94.0955" font-family="Times New Roman,serif" font-size="20.00">2</text>
</g>
<!-- 6 -->
<g id="node7" class="node"><title>6</title>
<ellipse fill="cadetblue" stroke="black" cx="123.774" cy="-145.021" rx="21.4286" ry="21.4286"/>
<text text-anchor="middle" x="123.774" y="-140.021" font-family="Times New Roman,serif" font-size="20.00">2</text>
</g>
<!-- 0&#45;&gt;6 -->
<g id="edge3" class="edge"><title>0&#45;&gt;6</title>
<path fill="none" stroke="black" stroke-width="2" d="M40.9879,-107.95C56.2667,-114.792 77.6379,-124.362 94.8391,-132.064"/>
<polygon fill="black" stroke="black" stroke-width="2" points="93.8502,-135.456 104.407,-136.349 96.7111,-129.067 93.8502,-135.456"/>
</g>
<!-- 7 -->
<g id="node8" class="node"><title>7</title>
<ellipse fill="brown" stroke="black" cx="76.1293" cy="-45.3971" rx="21.4286" ry="21.4286"/>
<text text-anchor="middle" x="76.1293" y="-40.3971" font-family="Times New Roman,serif" font-size="20.00">3</text>
</g>
<!-- 0&#45;&gt;7 -->
<g id="edge4" class="edge"><title>0&#45;&gt;7</title>
<path fill="none" stroke="black" stroke-width="2" d="M36.5104,-84.1375C41.747,-79.017 47.723,-73.1735 53.4181,-67.6047"/>
<polygon fill="black" stroke="black" stroke-width="2" points="56.2112,-69.7687 60.9141,-60.2749 51.3172,-64.7638 56.2112,-69.7687"/>
</g>
<!-- 1 -->
<g id="node2" class="node"><title>1</title>
<ellipse fill="cadetblue" stroke="black" cx="29.1177" cy="-181.259" rx="21.4286" ry="21.4286"/>
<text text-anchor="middle" x="29.1177" y="-176.259" font-family="Times New Roman,serif" font-size="20.00">2</text>
</g>
<!-- 1&#45;&gt;6 -->
<g id="edge7" class="edge"><title>1&#45;&gt;6</title>
<path fill="none" stroke="black" stroke-width="2" d="M49.1918,-173.573C62.2433,-168.577 79.4895,-161.974 94.1099,-156.377"/>
<polygon fill="black" stroke="black" stroke-width="2" points="95.6408,-159.539 103.728,-152.695 93.138,-153.001 95.6408,-159.539"/>
</g>
<!-- 1&#45;&gt;7 -->
<g id="edge8" class="edge"><title>1&#45;&gt;7</title>
<path fill="none" stroke="black" stroke-width="2" d="M36.1558,-160.919C43.9799,-138.308 56.6957,-101.559 65.6818,-75.5898"/>
<polygon fill="black" stroke="black" stroke-width="2" points="69.0806,-76.4708 69.0431,-65.876 62.4654,-74.1817 69.0806,-76.4708"/>
</g>
<!-- 2 -->
<g id="node3" class="node"><title>2</title>
<ellipse fill="cadetblue" stroke="black" cx="260.328" cy="-97.5466" rx="21.4286" ry="21.4286"/>
<text text-anchor="middle" x="260.328" y="-92.5466" font-family="Times New Roman,serif" font-size="20.00">2</text>
</g>
<!-- 5 -->
<g id="node6" class="node"><title>5</title>
<ellipse fill="cadetblue" stroke="black" cx="174.205" cy="-154.848" rx="21.4286" ry="21.4286"/>
<text text-anchor="middle" x="174.205" y="-149.848" font-family="Times New Roman,serif" font-size="20.00">2</text>
</g>
<!-- 2&#45;&gt;5 -->
<g id="edge10" class="edge"><title>2&#45;&gt;5</title>
<path fill="none" stroke="black" stroke-width="2" d="M242.484,-109.419C230.359,-117.487 214.115,-128.294 200.514,-137.344"/>
<polygon fill="black" stroke="black" stroke-width="2" points="198.414,-134.537 192.027,-142.99 202.291,-140.365 198.414,-134.537"/>
</g>
<!-- 3 -->
<g id="node4" class="node"><title>3</title>
<ellipse fill="cadetblue" stroke="black" cx="89.8209" cy="-247.131" rx="21.4286" ry="21.4286"/>
<text text-anchor="middle" x="89.8209" y="-242.131" font-family="Times New Roman,serif" font-size="20.00">2</text>
</g>
<!-- 3&#45;&gt;0 -->
<g id="edge1" class="edge"><title>3&#45;&gt;0</title>
<path fill="none" stroke="black" stroke-width="2" d="M80.8516,-227.778C69.0384,-202.288 48.1686,-157.257 34.5149,-127.797"/>
<polygon fill="black" stroke="black" stroke-width="2" points="37.5652,-126.054 30.1847,-118.453 31.2141,-128.998 37.5652,-126.054"/>
</g>
<!-- 3&#45;&gt;1 -->
<g id="edge5" class="edge"><title>3&#45;&gt;1</title>
<path fill="none" stroke="black" stroke-width="2" d="M75.4351,-231.52C68.0593,-223.516 58.925,-213.604 50.7226,-204.703"/>
<polygon fill="black" stroke="black" stroke-width="2" points="53.1724,-202.197 43.8219,-197.215 48.0248,-206.94 53.1724,-202.197"/>
</g>
<!-- 4 -->
<g id="node5" class="node"><title>4</title>
<ellipse fill="cadetblue" stroke="black" cx="166.573" cy="-21.2132" rx="21.4286" ry="21.4286"/>
<text text-anchor="middle" x="166.573" y="-16.2132" font-family="Times New Roman,serif" font-size="20.00">2</text>
</g>
<!-- 4&#45;&gt;0 -->
<g id="edge2" class="edge"><title>4&#45;&gt;0</title>
<path fill="none" stroke="black" stroke-width="2" d="M148.53,-32.5847C134.157,-41.4893 113.417,-53.9993 94.7284,-63.998 80.2784,-71.729 63.8478,-79.6521 50.1901,-86.0095"/>
<polygon fill="black" stroke="black" stroke-width="2" points="48.4194,-82.9717 40.8032,-90.3368 51.35,-89.3287 48.4194,-82.9717"/>
</g>
<!-- 4&#45;&gt;2 -->
<g id="edge9" class="edge"><title>4&#45;&gt;2</title>
<path fill="none" stroke="black" stroke-width="2" d="M183.335,-34.8601C197.867,-46.6918 219.095,-63.9754 235.583,-77.3992"/>
<polygon fill="black" stroke="black" stroke-width="2" points="233.747,-80.4182 243.712,-84.0178 238.167,-74.9899 233.747,-80.4182"/>
</g>
<!-- 5&#45;&gt;1 -->
<g id="edge6" class="edge"><title>5&#45;&gt;1</title>
<path fill="none" stroke="black" stroke-width="2" d="M154.335,-162.41C145.148,-165.627 134.018,-169.134 123.742,-171.325 102.848,-175.78 78.9137,-178.27 60.3441,-179.642"/>
<polygon fill="black" stroke="black" stroke-width="2" points="60.1076,-176.15 50.3642,-180.311 60.576,-183.134 60.1076,-176.15"/>
</g>
<!-- 5&#45;&gt;3 -->
<g id="edge12" class="edge"><title>5&#45;&gt;3</title>
<path fill="none" stroke="black" stroke-width="2" d="M159.506,-170.922C146.196,-185.478 126.421,-207.105 111.332,-223.606"/>
<polygon fill="black" stroke="black" stroke-width="2" points="108.516,-221.499 104.351,-231.24 113.682,-226.222 108.516,-221.499"/>
</g>
<!-- 5&#45;&gt;4 -->
<g id="edge14" class="edge"><title>5&#45;&gt;4</title>
<path fill="none" stroke="black" stroke-width="2" d="M172.979,-133.377C171.733,-111.557 169.789,-77.5198 168.369,-52.6604"/>
<polygon fill="black" stroke="black" stroke-width="2" points="171.861,-52.4148 167.796,-42.6307 164.872,-52.814 171.861,-52.4148"/>
</g>
<!-- 6&#45;&gt;2 -->
<g id="edge11" class="edge"><title>6&#45;&gt;2</title>
<path fill="none" stroke="black" stroke-width="2" d="M143.923,-138.016C166.816,-130.057 204.397,-116.991 230.646,-107.866"/>
<polygon fill="black" stroke="black" stroke-width="2" points="231.801,-111.17 240.097,-104.58 229.502,-104.558 231.801,-111.17"/>
</g>
<!-- 6&#45;&gt;3 -->
<g id="edge13" class="edge"><title>6&#45;&gt;3</title>
<path fill="none" stroke="black" stroke-width="2" d="M117.066,-165.194C112.136,-180.019 105.357,-200.407 99.794,-217.137"/>
<polygon fill="black" stroke="black" stroke-width="2" points="96.349,-216.405 96.5149,-226.999 102.991,-218.614 96.349,-216.405"/>
</g>
<!-- 6&#45;&gt;7 -->
<g id="edge17" class="edge"><title>6&#45;&gt;7</title>
<path fill="none" stroke="black" stroke-width="2" d="M114.587,-125.812C107.535,-111.065 97.6879,-90.4758 89.7237,-73.8228"/>
<polygon fill="black" stroke="black" stroke-width="2" points="92.7594,-72.0579 85.2874,-64.5466 86.4444,-75.078 92.7594,-72.0579"/>
</g>
<!-- 7&#45;&gt;4 -->
<g id="edge15" class="edge"><title>7&#45;&gt;4</title>
<path fill="none" stroke="black" stroke-width="2" d="M96.6524,-39.9094C108.25,-36.8084 122.973,-32.8715 135.915,-29.411"/>
<polygon fill="black" stroke="black" stroke-width="2" points="137.062,-32.7274 145.818,-26.7629 135.254,-25.9649 137.062,-32.7274"/>
</g>
<!-- 7&#45;&gt;5 -->
<g id="edge16" class="edge"><title>7&#45;&gt;5</title>
<path fill="none" stroke="black" stroke-width="2" d="M90.6007,-61.547C107.137,-80.0018 134.345,-110.365 153.211,-131.419"/>
<polygon fill="black" stroke="black" stroke-width="2" points="150.713,-133.876 159.993,-138.988 155.926,-129.205 150.713,-133.876"/>
</g>
</g>
</svg>

