<?xml version="1.0" encoding="UTF-8" standalone="no"?>
<!DOCTYPE svg PUBLIC "-//W3C//DTD SVG 1.1//EN"
 "http://www.w3.org/Graphics/SVG/1.1/DTD/svg11.dtd">
<!-- Generated by graphviz version 2.36.0 (20140111.2315)
 -->
<!-- Title: G Pages: 1 -->
<svg width="100%" height="100%"
 viewBox="0.00 0.00 226.81 251.76" xmlns="http://www.w3.org/2000/svg" xmlns:xlink="http://www.w3.org/1999/xlink">
<g id="graph0" class="graph" transform="scale(1 1) rotate(0) translate(4 247.761)">
<title>G</title>
<!-- 0 -->
<g id="node1" class="node"><title>0</title>
<ellipse fill="brown" stroke="black" cx="84.955" cy="-136.888" rx="21.4286" ry="21.4286"/>
<text text-anchor="middle" x="84.955" y="-131.888" font-family="Times New Roman,serif" font-size="20.00">3</text>
</g>
<!-- 6 -->
<g id="node7" class="node"><title>6</title>
<ellipse fill="cadetblue" stroke="black" cx="156.009" cy="-56.2422" rx="21.4286" ry="21.4286"/>
<text text-anchor="middle" x="156.009" y="-51.2422" font-family="Times New Roman,serif" font-size="20.00">2</text>
</g>
<!-- 0&#45;&gt;6 -->
<g id="edge4" class="edge"><title>0&#45;&gt;6</title>
<path fill="none" stroke="black" stroke-width="2" d="M98.993,-120.955C109.242,-109.323 123.312,-93.3527 134.911,-80.1884"/>
<polygon fill="black" stroke="black" stroke-width="2" points="137.772,-82.2351 141.757,-72.4181 132.52,-77.6075 137.772,-82.2351"/>
</g>
<!-- 7 -->
<g id="node8" class="node"><title>7</title>
<ellipse fill="cadetblue" stroke="black" cx="93.936" cy="-55.5927" rx="21.4286" ry="21.4286"/>
<text text-anchor="middle" x="93.936" y="-50.5927" font-family="Times New Roman,serif" font-size="20.00">2</text>
</g>
<!-- 0&#45;&gt;7 -->
<g id="edge5" class="edge"><title>0&#45;&gt;7</title>
<path fill="none" stroke="black" stroke-width="2" d="M87.3146,-115.528C88.2841,-106.753 89.426,-96.4169 90.486,-86.8216"/>
<polygon fill="black" stroke="black" stroke-width="2" points="93.9728,-87.1333 91.5921,-76.8094 87.0151,-86.3646 93.9728,-87.1333"/>
</g>
<!-- 1 -->
<g id="node2" class="node"><title>1</title>
<ellipse fill="cadetblue" stroke="black" cx="31.4723" cy="-21.2132" rx="21.4286" ry="21.4286"/>
<text text-anchor="middle" x="31.4723" y="-16.2132" font-family="Times New Roman,serif" font-size="20.00">2</text>
</g>
<!-- 1&#45;&gt;6 -->
<g id="edge7" class="edge"><title>1&#45;&gt;6</title>
<path fill="none" stroke="black" stroke-width="2" d="M52.8493,-22.5718C65.041,-23.6941 80.5191,-25.7095 93.9372,-29.2884 102.583,-31.5943 104.312,-33.4697 112.537,-36.9936 117.345,-39.0537 122.437,-41.2735 127.377,-43.4476"/>
<polygon fill="black" stroke="black" stroke-width="2" points="126.015,-46.6723 136.576,-47.5182 128.848,-40.271 126.015,-46.6723"/>
</g>
<!-- 2 -->
<g id="node3" class="node"><title>2</title>
<ellipse fill="cadetblue" stroke="black" cx="197.598" cy="-129.816" rx="21.4286" ry="21.4286"/>
<text text-anchor="middle" x="197.598" y="-124.816" font-family="Times New Roman,serif" font-size="20.00">2</text>
</g>
<!-- 5 -->
<g id="node6" class="node"><title>5</title>
<ellipse fill="cadetblue" stroke="black" cx="93.2552" cy="-222.548" rx="21.4286" ry="21.4286"/>
<text text-anchor="middle" x="93.2552" y="-217.548" font-family="Times New Roman,serif" font-size="20.00">2</text>
</g>
<!-- 2&#45;&gt;5 -->
<g id="edge9" class="edge"><title>2&#45;&gt;5</title>
<path fill="none" stroke="black" stroke-width="2" d="M190.561,-150.036C184.826,-163.947 175.497,-181.983 162.256,-193.841 151.319,-203.636 136.569,-210.38 123.514,-214.858"/>
<polygon fill="black" stroke="black" stroke-width="2" points="122.45,-211.523 113.953,-217.852 124.542,-218.203 122.45,-211.523"/>
</g>
<!-- 3 -->
<g id="node4" class="node"><title>3</title>
<ellipse fill="cadetblue" stroke="black" cx="143.687" cy="-175.211" rx="21.4286" ry="21.4286"/>
<text text-anchor="middle" x="143.687" y="-170.211" font-family="Times New Roman,serif" font-size="20.00">2</text>
</g>
<!-- 3&#45;&gt;0 -->
<g id="edge1" class="edge"><title>3&#45;&gt;0</title>
<path fill="none" stroke="black" stroke-width="2" d="M125.746,-163.504C121.192,-160.533 116.204,-157.278 111.326,-154.095"/>
<polygon fill="black" stroke="black" stroke-width="2" points="113.073,-151.056 102.786,-148.522 109.248,-156.918 113.073,-151.056"/>
</g>
<!-- 3&#45;&gt;5 -->
<g id="edge13" class="edge"><title>3&#45;&gt;5</title>
<path fill="none" stroke="black" stroke-width="2" d="M128.006,-189.929C124.271,-193.435 120.208,-197.249 116.221,-200.991"/>
<polygon fill="black" stroke="black" stroke-width="2" points="113.649,-198.606 108.753,-208.001 118.439,-203.709 113.649,-198.606"/>
</g>
<!-- 4 -->
<g id="node5" class="node"><title>4</title>
<ellipse fill="cadetblue" stroke="black" cx="21.2132" cy="-135.871" rx="21.4286" ry="21.4286"/>
<text text-anchor="middle" x="21.2132" y="-130.871" font-family="Times New Roman,serif" font-size="20.00">2</text>
</g>
<!-- 4&#45;&gt;0 -->
<g id="edge2" class="edge"><title>4&#45;&gt;0</title>
<path fill="none" stroke="black" stroke-width="2" d="M42.4383,-136.21C45.949,-136.266 49.6543,-136.325 53.3549,-136.384"/>
<polygon fill="black" stroke="black" stroke-width="2" points="53.5507,-139.887 63.6052,-136.547 53.6623,-132.888 53.5507,-139.887"/>
</g>
<!-- 4&#45;&gt;1 -->
<g id="edge6" class="edge"><title>4&#45;&gt;1</title>
<path fill="none" stroke="black" stroke-width="2" d="M23.1188,-114.574C24.6808,-97.1168 26.9135,-72.1639 28.6777,-52.4465"/>
<polygon fill="black" stroke="black" stroke-width="2" points="32.1717,-52.6689 29.5769,-42.3968 25.1995,-52.045 32.1717,-52.6689"/>
</g>
<!-- 4&#45;&gt;3 -->
<g id="edge12" class="edge"><title>4&#45;&gt;3</title>
<path fill="none" stroke="black" stroke-width="2" d="M40.9524,-144.527C48.8362,-147.962 58.0049,-151.931 66.338,-155.471 74.5736,-158.969 76.3767,-160.568 84.9309,-163.192 93.7308,-165.892 103.46,-168.16 112.427,-169.973"/>
<polygon fill="black" stroke="black" stroke-width="2" points="112.024,-173.459 122.502,-171.891 113.333,-166.583 112.024,-173.459"/>
</g>
<!-- 5&#45;&gt;0 -->
<g id="edge3" class="edge"><title>5&#45;&gt;0</title>
<path fill="none" stroke="black" stroke-width="2" d="M91.2035,-201.374C90.2358,-191.387 89.0615,-179.268 87.9933,-168.244"/>
<polygon fill="black" stroke="black" stroke-width="2" points="91.4601,-167.731 87.0119,-158.116 84.4928,-168.406 91.4601,-167.731"/>
</g>
<!-- 5&#45;&gt;4 -->
<g id="edge15" class="edge"><title>5&#45;&gt;4</title>
<path fill="none" stroke="black" stroke-width="2" d="M79.3648,-205.836C68.6324,-192.923 53.6205,-174.862 41.5378,-160.325"/>
<polygon fill="black" stroke="black" stroke-width="2" points="43.9003,-157.692 34.8167,-152.238 38.517,-162.166 43.9003,-157.692"/>
</g>
<!-- 6&#45;&gt;2 -->
<g id="edge10" class="edge"><title>6&#45;&gt;2</title>
<path fill="none" stroke="black" stroke-width="2" d="M166.504,-74.8081C171.232,-83.173 176.911,-93.2196 182.115,-102.425"/>
<polygon fill="black" stroke="black" stroke-width="2" points="179.139,-104.273 187.107,-111.256 185.233,-100.829 179.139,-104.273"/>
</g>
<!-- 6&#45;&gt;3 -->
<g id="edge14" class="edge"><title>6&#45;&gt;3</title>
<path fill="none" stroke="black" stroke-width="2" d="M153.806,-77.5114C151.899,-95.9218 149.115,-122.802 146.95,-143.709"/>
<polygon fill="black" stroke="black" stroke-width="2" points="143.461,-143.417 145.912,-153.724 150.424,-144.138 143.461,-143.417"/>
</g>
<!-- 6&#45;&gt;7 -->
<g id="edge17" class="edge"><title>6&#45;&gt;7</title>
<path fill="none" stroke="black" stroke-width="2" d="M134.647,-56.0187C131.754,-55.9884 128.736,-55.9569 125.709,-55.9252"/>
<polygon fill="black" stroke="black" stroke-width="2" points="125.584,-52.4238 115.548,-55.8189 125.511,-59.4234 125.584,-52.4238"/>
</g>
<!-- 7&#45;&gt;1 -->
<g id="edge8" class="edge"><title>7&#45;&gt;1</title>
<path fill="none" stroke="black" stroke-width="2" d="M75.1948,-45.2777C70.1301,-42.4902 64.5408,-39.4138 59.0993,-36.4189"/>
<polygon fill="black" stroke="black" stroke-width="2" points="60.6486,-33.2765 50.2002,-31.5209 57.2733,-39.409 60.6486,-33.2765"/>
</g>
<!-- 7&#45;&gt;2 -->
<g id="edge11" class="edge"><title>7&#45;&gt;2</title>
<path fill="none" stroke="black" stroke-width="2" d="M111.521,-68.1838C128.151,-80.0916 153.296,-98.0957 172.121,-111.575"/>
<polygon fill="black" stroke="black" stroke-width="2" points="170.105,-114.435 180.273,-117.411 174.18,-108.744 170.105,-114.435"/>
</g>
<!-- 7&#45;&gt;4 -->
<g id="edge16" class="edge"><title>7&#45;&gt;4</title>
<path fill="none" stroke="black" stroke-width="2" d="M79.5683,-71.4532C69.0103,-83.1082 54.4895,-99.1377 42.5744,-112.291"/>
<polygon fill="black" stroke="black" stroke-width="2" points="39.6708,-110.283 35.551,-120.044 44.8587,-114.982 39.6708,-110.283"/>
</g>
</g>
</svg>

