<?xml version="1.0" encoding="UTF-8" standalone="no"?>
<!DOCTYPE svg PUBLIC "-//W3C//DTD SVG 1.1//EN"
 "http://www.w3.org/Graphics/SVG/1.1/DTD/svg11.dtd">
<!-- Generated by graphviz version 2.36.0 (20140111.2315)
 -->
<!-- Title: G Pages: 1 -->
<svg width="100%" height="100%"
 viewBox="0.00 0.00 239.53 224.18" xmlns="http://www.w3.org/2000/svg" xmlns:xlink="http://www.w3.org/1999/xlink">
<g id="graph0" class="graph" transform="scale(1 1) rotate(0) translate(4 220.179)">
<title>G</title>
<!-- 0 -->
<g id="node1" class="node"><title>0</title>
<ellipse fill="cadetblue" stroke="black" cx="146.303" cy="-137.3" rx="21.4286" ry="21.4286"/>
<text text-anchor="middle" x="146.303" y="-132.3" font-family="Times New Roman,serif" font-size="20.00">2</text>
</g>
<!-- 5 -->
<g id="node6" class="node"><title>5</title>
<ellipse fill="cadetblue" stroke="black" cx="117.67" cy="-39.7452" rx="21.4286" ry="21.4286"/>
<text text-anchor="middle" x="117.67" y="-34.7452" font-family="Times New Roman,serif" font-size="20.00">2</text>
</g>
<!-- 0&#45;&gt;5 -->
<g id="edge3" class="edge"><title>0&#45;&gt;5</title>
<path fill="none" stroke="black" stroke-width="2" d="M140.23,-116.611C136.282,-103.16 131.066,-85.3857 126.643,-70.3175"/>
<polygon fill="black" stroke="black" stroke-width="2" points="129.908,-69.0139 123.733,-60.4043 123.191,-70.9853 129.908,-69.0139"/>
</g>
<!-- 6 -->
<g id="node7" class="node"><title>6</title>
<ellipse fill="cadetblue" stroke="black" cx="210.318" cy="-102.207" rx="21.4286" ry="21.4286"/>
<text text-anchor="middle" x="210.318" y="-97.207" font-family="Times New Roman,serif" font-size="20.00">2</text>
</g>
<!-- 0&#45;&gt;6 -->
<g id="edge4" class="edge"><title>0&#45;&gt;6</title>
<path fill="none" stroke="black" stroke-width="2" d="M165.163,-126.961C170.585,-123.989 176.615,-120.683 182.458,-117.48"/>
<polygon fill="black" stroke="black" stroke-width="2" points="184.285,-120.47 191.371,-112.594 180.92,-114.332 184.285,-120.47"/>
</g>
<!-- 7 -->
<g id="node8" class="node"><title>7</title>
<ellipse fill="brown" stroke="black" cx="95.8712" cy="-100.712" rx="21.4286" ry="21.4286"/>
<text text-anchor="middle" x="95.8712" y="-95.7119" font-family="Times New Roman,serif" font-size="20.00">3</text>
</g>
<!-- 0&#45;&gt;7 -->
<g id="edge5" class="edge"><title>0&#45;&gt;7</title>
<path fill="none" stroke="black" stroke-width="2" d="M128.947,-124.709C126.463,-122.906 123.866,-121.022 121.266,-119.136"/>
<polygon fill="black" stroke="black" stroke-width="2" points="123.237,-116.242 113.088,-113.203 119.127,-121.908 123.237,-116.242"/>
</g>
<!-- 1 -->
<g id="node2" class="node"><title>1</title>
<ellipse fill="cadetblue" stroke="black" cx="21.2132" cy="-76.8075" rx="21.4286" ry="21.4286"/>
<text text-anchor="middle" x="21.2132" y="-71.8075" font-family="Times New Roman,serif" font-size="20.00">2</text>
</g>
<!-- 1&#45;&gt;7 -->
<g id="edge8" class="edge"><title>1&#45;&gt;7</title>
<path fill="none" stroke="black" stroke-width="2" d="M41.6138,-83.3395C49.1031,-85.7375 57.7457,-88.5047 65.9005,-91.1157"/>
<polygon fill="black" stroke="black" stroke-width="2" points="64.9042,-94.4717 75.4952,-94.1878 67.0388,-87.8051 64.9042,-94.4717"/>
</g>
<!-- 2 -->
<g id="node3" class="node"><title>2</title>
<ellipse fill="cadetblue" stroke="black" cx="183.678" cy="-21.2132" rx="21.4286" ry="21.4286"/>
<text text-anchor="middle" x="183.678" y="-16.2132" font-family="Times New Roman,serif" font-size="20.00">2</text>
</g>
<!-- 2&#45;&gt;7 -->
<g id="edge11" class="edge"><title>2&#45;&gt;7</title>
<path fill="none" stroke="black" stroke-width="2" d="M167.573,-35.7945C154.081,-48.0094 134.64,-65.611 119.404,-79.4053"/>
<polygon fill="black" stroke="black" stroke-width="2" points="116.938,-76.9168 111.874,-86.2231 121.636,-82.106 116.938,-76.9168"/>
</g>
<!-- 3 -->
<g id="node4" class="node"><title>3</title>
<ellipse fill="cadetblue" stroke="black" cx="150.477" cy="-194.966" rx="21.4286" ry="21.4286"/>
<text text-anchor="middle" x="150.477" y="-189.966" font-family="Times New Roman,serif" font-size="20.00">2</text>
</g>
<!-- 3&#45;&gt;0 -->
<g id="edge1" class="edge"><title>3&#45;&gt;0</title>
<path fill="none" stroke="black" stroke-width="2" d="M148.923,-173.493C148.813,-171.972 148.7,-170.422 148.587,-168.861"/>
<polygon fill="black" stroke="black" stroke-width="2" points="152.057,-168.32 147.844,-158.599 145.076,-168.825 152.057,-168.32"/>
</g>
<!-- 4 -->
<g id="node5" class="node"><title>4</title>
<ellipse fill="cadetblue" stroke="black" cx="57.9971" cy="-171.988" rx="21.4286" ry="21.4286"/>
<text text-anchor="middle" x="57.9971" y="-166.988" font-family="Times New Roman,serif" font-size="20.00">2</text>
</g>
<!-- 3&#45;&gt;4 -->
<g id="edge12" class="edge"><title>3&#45;&gt;4</title>
<path fill="none" stroke="black" stroke-width="2" d="M129.492,-189.752C117.431,-186.755 102.064,-182.937 88.6699,-179.609"/>
<polygon fill="black" stroke="black" stroke-width="2" points="89.4482,-176.196 78.8992,-177.182 87.7602,-182.99 89.4482,-176.196"/>
</g>
<!-- 4&#45;&gt;0 -->
<g id="edge2" class="edge"><title>4&#45;&gt;0</title>
<path fill="none" stroke="black" stroke-width="2" d="M78.035,-164.117C89.5512,-159.593 104.225,-153.829 117.014,-148.805"/>
<polygon fill="black" stroke="black" stroke-width="2" points="118.316,-152.054 126.344,-145.14 115.757,-145.539 118.316,-152.054"/>
</g>
<!-- 4&#45;&gt;1 -->
<g id="edge6" class="edge"><title>4&#45;&gt;1</title>
<path fill="none" stroke="black" stroke-width="2" d="M50.1962,-151.803C45.09,-138.59 38.3317,-121.103 32.6257,-106.338"/>
<polygon fill="black" stroke="black" stroke-width="2" points="35.7463,-104.703 28.8767,-96.6374 29.2169,-107.227 35.7463,-104.703"/>
</g>
<!-- 5&#45;&gt;1 -->
<g id="edge7" class="edge"><title>5&#45;&gt;1</title>
<path fill="none" stroke="black" stroke-width="2" d="M97.684,-47.4246C84.1043,-52.6424 65.912,-59.6326 50.6786,-65.4858"/>
<polygon fill="black" stroke="black" stroke-width="2" points="49.2528,-62.2841 41.1735,-69.138 51.7635,-68.8184 49.2528,-62.2841"/>
</g>
<!-- 5&#45;&gt;2 -->
<g id="edge9" class="edge"><title>5&#45;&gt;2</title>
<path fill="none" stroke="black" stroke-width="2" d="M138.193,-33.9832C142.867,-32.671 147.933,-31.2488 152.929,-29.8461"/>
<polygon fill="black" stroke="black" stroke-width="2" points="154.258,-33.1084 162.94,-27.0355 152.366,-26.3689 154.258,-33.1084"/>
</g>
<!-- 5&#45;&gt;6 -->
<g id="edge16" class="edge"><title>5&#45;&gt;6</title>
<path fill="none" stroke="black" stroke-width="2" d="M135.533,-51.7885C149.248,-61.0344 168.396,-73.9436 183.883,-84.3847"/>
<polygon fill="black" stroke="black" stroke-width="2" points="182.261,-87.5127 192.51,-90.2007 186.175,-81.7085 182.261,-87.5127"/>
</g>
<!-- 6&#45;&gt;2 -->
<g id="edge10" class="edge"><title>6&#45;&gt;2</title>
<path fill="none" stroke="black" stroke-width="2" d="M203.596,-81.7688C200.567,-72.5603 196.929,-61.5006 193.596,-51.3669"/>
<polygon fill="black" stroke="black" stroke-width="2" points="196.848,-50.0505 190.398,-41.6448 190.198,-52.2378 196.848,-50.0505"/>
</g>
<!-- 6&#45;&gt;3 -->
<g id="edge13" class="edge"><title>6&#45;&gt;3</title>
<path fill="none" stroke="black" stroke-width="2" d="M198.78,-120.092C189.922,-133.823 177.555,-152.993 167.552,-168.499"/>
<polygon fill="black" stroke="black" stroke-width="2" points="164.46,-166.836 161.98,-177.136 170.342,-170.63 164.46,-166.836"/>
</g>
<!-- 7&#45;&gt;3 -->
<g id="edge14" class="edge"><title>7&#45;&gt;3</title>
<path fill="none" stroke="black" stroke-width="2" d="M106.454,-119.115C112.632,-129.847 120.586,-143.64 127.686,-155.883 129.858,-159.629 132.151,-163.574 134.413,-167.458"/>
<polygon fill="black" stroke="black" stroke-width="2" points="131.501,-169.413 139.561,-176.29 137.549,-165.888 131.501,-169.413"/>
</g>
<!-- 7&#45;&gt;4 -->
<g id="edge15" class="edge"><title>7&#45;&gt;4</title>
<path fill="none" stroke="black" stroke-width="2" d="M85.7216,-119.813C81.8159,-127.163 77.2693,-135.719 73.0015,-143.751"/>
<polygon fill="black" stroke="black" stroke-width="2" points="69.7764,-142.362 68.1747,-152.835 75.9579,-145.646 69.7764,-142.362"/>
</g>
<!-- 7&#45;&gt;5 -->
<g id="edge17" class="edge"><title>7&#45;&gt;5</title>
<path fill="none" stroke="black" stroke-width="2" d="M103.13,-80.4109C104.393,-76.8777 105.73,-73.1383 107.061,-69.4151"/>
<polygon fill="black" stroke="black" stroke-width="2" points="110.446,-70.3448 110.517,-59.7502 103.855,-67.988 110.446,-70.3448"/>
</g>
</g>
</svg>

