<?xml version="1.0" encoding="UTF-8" standalone="no"?>
<!DOCTYPE svg PUBLIC "-//W3C//DTD SVG 1.1//EN"
 "http://www.w3.org/Graphics/SVG/1.1/DTD/svg11.dtd">
<!-- Generated by graphviz version 2.36.0 (20140111.2315)
 -->
<!-- Title: G Pages: 1 -->
<svg width="100%" height="100%"
 viewBox="0.00 0.00 216.79 270.31" xmlns="http://www.w3.org/2000/svg" xmlns:xlink="http://www.w3.org/1999/xlink">
<g id="graph0" class="graph" transform="scale(1 1) rotate(0) translate(4 266.307)">
<title>G</title>
<!-- 0 -->
<g id="node1" class="node"><title>0</title>
<ellipse fill="cadetblue" stroke="black" cx="187.578" cy="-139.42" rx="21.4286" ry="21.4286"/>
<text text-anchor="middle" x="187.578" y="-134.42" font-family="Times New Roman,serif" font-size="20.00">2</text>
</g>
<!-- 5 -->
<g id="node6" class="node"><title>5</title>
<ellipse fill="cadetblue" stroke="black" cx="34.1033" cy="-144.312" rx="21.4286" ry="21.4286"/>
<text text-anchor="middle" x="34.1033" y="-139.312" font-family="Times New Roman,serif" font-size="20.00">2</text>
</g>
<!-- 0&#45;&gt;5 -->
<g id="edge3" class="edge"><title>0&#45;&gt;5</title>
<path fill="none" stroke="black" stroke-width="2" d="M166.302,-142.202C145.49,-144.688 112.877,-147.961 84.5034,-148.09 78.4325,-148.117 71.9618,-147.854 65.7508,-147.455"/>
<polygon fill="black" stroke="black" stroke-width="2" points="65.8975,-143.956 55.6596,-146.683 65.3634,-150.936 65.8975,-143.956"/>
</g>
<!-- 6 -->
<g id="node7" class="node"><title>6</title>
<ellipse fill="brown" stroke="black" cx="84.5347" cy="-121.785" rx="21.4286" ry="21.4286"/>
<text text-anchor="middle" x="84.5347" y="-116.785" font-family="Times New Roman,serif" font-size="20.00">3</text>
</g>
<!-- 0&#45;&gt;6 -->
<g id="edge4" class="edge"><title>0&#45;&gt;6</title>
<path fill="none" stroke="black" stroke-width="2" d="M166.228,-135.766C151.624,-133.267 132.027,-129.913 115.687,-127.117"/>
<polygon fill="black" stroke="black" stroke-width="2" points="115.953,-123.611 105.505,-125.374 114.772,-130.511 115.953,-123.611"/>
</g>
<!-- 7 -->
<g id="node8" class="node"><title>7</title>
<ellipse fill="dodgerblue" stroke="black" cx="136.59" cy="-176.934" rx="21.4286" ry="21.4286"/>
<text text-anchor="middle" x="136.59" y="-171.934" font-family="Times New Roman,serif" font-size="20.00">4</text>
</g>
<!-- 0&#45;&gt;7 -->
<g id="edge5" class="edge"><title>0&#45;&gt;7</title>
<path fill="none" stroke="black" stroke-width="2" d="M170.316,-152.12C167.658,-154.076 164.866,-156.13 162.075,-158.184"/>
<polygon fill="black" stroke="black" stroke-width="2" points="159.815,-155.501 153.834,-164.246 163.963,-161.139 159.815,-155.501"/>
</g>
<!-- 1 -->
<g id="node2" class="node"><title>1</title>
<ellipse fill="cadetblue" stroke="black" cx="21.2132" cy="-229.289" rx="21.4286" ry="21.4286"/>
<text text-anchor="middle" x="21.2132" y="-224.289" font-family="Times New Roman,serif" font-size="20.00">2</text>
</g>
<!-- 1&#45;&gt;6 -->
<g id="edge8" class="edge"><title>1&#45;&gt;6</title>
<path fill="none" stroke="black" stroke-width="2" d="M32.243,-210.564C42.2762,-193.53 57.2055,-168.184 68.5467,-148.929"/>
<polygon fill="black" stroke="black" stroke-width="2" points="71.5718,-150.689 73.6313,-140.297 65.5403,-147.137 71.5718,-150.689"/>
</g>
<!-- 1&#45;&gt;7 -->
<g id="edge9" class="edge"><title>1&#45;&gt;7</title>
<path fill="none" stroke="black" stroke-width="2" d="M40.7853,-220.408C59.101,-212.097 86.695,-199.575 107.572,-190.102"/>
<polygon fill="black" stroke="black" stroke-width="2" points="109.262,-193.179 116.922,-185.859 106.369,-186.804 109.262,-193.179"/>
</g>
<!-- 2 -->
<g id="node3" class="node"><title>2</title>
<ellipse fill="cadetblue" stroke="black" cx="51.3371" cy="-21.2132" rx="21.4286" ry="21.4286"/>
<text text-anchor="middle" x="51.3371" y="-16.2132" font-family="Times New Roman,serif" font-size="20.00">2</text>
</g>
<!-- 4 -->
<g id="node5" class="node"><title>4</title>
<ellipse fill="cadetblue" stroke="black" cx="172.971" cy="-40.2742" rx="21.4286" ry="21.4286"/>
<text text-anchor="middle" x="172.971" y="-35.2742" font-family="Times New Roman,serif" font-size="20.00">2</text>
</g>
<!-- 2&#45;&gt;4 -->
<g id="edge10" class="edge"><title>2&#45;&gt;4</title>
<path fill="none" stroke="black" stroke-width="2" d="M72.5241,-24.5334C91.5928,-27.5216 119.868,-31.9525 141.565,-35.3526"/>
<polygon fill="black" stroke="black" stroke-width="2" points="141.197,-38.8377 151.619,-36.9281 142.281,-31.9221 141.197,-38.8377"/>
</g>
<!-- 3 -->
<g id="node4" class="node"><title>3</title>
<ellipse fill="cadetblue" stroke="black" cx="111.424" cy="-241.094" rx="21.4286" ry="21.4286"/>
<text text-anchor="middle" x="111.424" y="-236.094" font-family="Times New Roman,serif" font-size="20.00">2</text>
</g>
<!-- 3&#45;&gt;0 -->
<g id="edge1" class="edge"><title>3&#45;&gt;0</title>
<path fill="none" stroke="black" stroke-width="2" d="M127.397,-226.328C136.156,-217.792 146.887,-206.583 155.189,-195.535 161.727,-186.834 167.949,-176.695 173.16,-167.448"/>
<polygon fill="black" stroke="black" stroke-width="2" points="176.281,-169.036 178.009,-158.583 170.14,-165.677 176.281,-169.036"/>
</g>
<!-- 3&#45;&gt;1 -->
<g id="edge6" class="edge"><title>3&#45;&gt;1</title>
<path fill="none" stroke="black" stroke-width="2" d="M90.0453,-238.297C78.8107,-236.826 64.8307,-234.997 52.4103,-233.372"/>
<polygon fill="black" stroke="black" stroke-width="2" points="52.8081,-229.894 42.4385,-232.067 51.8998,-236.835 52.8081,-229.894"/>
</g>
<!-- 3&#45;&gt;7 -->
<g id="edge15" class="edge"><title>3&#45;&gt;7</title>
<path fill="none" stroke="black" stroke-width="2" d="M119.249,-221.145C121.078,-216.483 123.064,-211.419 125.017,-206.439"/>
<polygon fill="black" stroke="black" stroke-width="2" points="128.29,-207.679 128.683,-197.092 121.773,-205.123 128.29,-207.679"/>
</g>
<!-- 4&#45;&gt;0 -->
<g id="edge2" class="edge"><title>4&#45;&gt;0</title>
<path fill="none" stroke="black" stroke-width="2" d="M176.069,-61.3004C178.083,-74.9709 180.744,-93.0351 183.001,-108.349"/>
<polygon fill="black" stroke="black" stroke-width="2" points="179.565,-109.041 184.485,-118.424 186.49,-108.02 179.565,-109.041"/>
</g>
<!-- 5&#45;&gt;1 -->
<g id="edge7" class="edge"><title>5&#45;&gt;1</title>
<path fill="none" stroke="black" stroke-width="2" d="M30.9169,-165.317C29.4141,-175.225 27.5905,-187.247 25.9317,-198.183"/>
<polygon fill="black" stroke="black" stroke-width="2" points="22.4469,-197.819 24.4075,-208.231 29.3677,-198.869 22.4469,-197.819"/>
</g>
<!-- 5&#45;&gt;2 -->
<g id="edge11" class="edge"><title>5&#45;&gt;2</title>
<path fill="none" stroke="black" stroke-width="2" d="M37.0659,-123.15C39.7909,-103.686 43.8668,-74.5727 46.9658,-52.4366"/>
<polygon fill="black" stroke="black" stroke-width="2" points="50.4351,-52.8991 48.3555,-42.5104 43.5027,-51.9285 50.4351,-52.8991"/>
</g>
<!-- 5&#45;&gt;3 -->
<g id="edge13" class="edge"><title>5&#45;&gt;3</title>
<path fill="none" stroke="black" stroke-width="2" d="M47.5715,-161.17C59.7675,-176.436 77.8879,-199.117 91.7131,-216.422"/>
<polygon fill="black" stroke="black" stroke-width="2" points="89.1338,-218.801 98.1101,-224.429 94.6028,-214.432 89.1338,-218.801"/>
</g>
<!-- 5&#45;&gt;7 -->
<g id="edge18" class="edge"><title>5&#45;&gt;7</title>
<path fill="none" stroke="black" stroke-width="2" d="M54.3513,-150.757C69.1339,-155.462 89.4288,-161.922 106.158,-167.247"/>
<polygon fill="black" stroke="black" stroke-width="2" points="105.443,-170.693 116.033,-170.391 107.566,-164.022 105.443,-170.693"/>
</g>
<!-- 6&#45;&gt;2 -->
<g id="edge12" class="edge"><title>6&#45;&gt;2</title>
<path fill="none" stroke="black" stroke-width="2" d="M77.8167,-101.433C73.047,-86.9834 66.5659,-67.3488 61.2095,-51.1218"/>
<polygon fill="black" stroke="black" stroke-width="2" points="64.5034,-49.9342 58.0452,-41.5352 57.8561,-52.1284 64.5034,-49.9342"/>
</g>
<!-- 6&#45;&gt;3 -->
<g id="edge14" class="edge"><title>6&#45;&gt;3</title>
<path fill="none" stroke="black" stroke-width="2" d="M89.2185,-142.567C93.4339,-161.272 99.6846,-189.006 104.481,-210.288"/>
<polygon fill="black" stroke="black" stroke-width="2" points="101.091,-211.164 106.704,-220.15 107.919,-209.625 101.091,-211.164"/>
</g>
<!-- 6&#45;&gt;5 -->
<g id="edge17" class="edge"><title>6&#45;&gt;5</title>
<path fill="none" stroke="black" stroke-width="2" d="M64.8922,-130.559C64.3218,-130.814 63.7473,-131.071 63.1701,-131.328"/>
<polygon fill="black" stroke="black" stroke-width="2" points="61.4783,-128.251 53.7751,-135.525 64.3331,-134.642 61.4783,-128.251"/>
</g>
<!-- 7&#45;&gt;4 -->
<g id="edge16" class="edge"><title>7&#45;&gt;4</title>
<path fill="none" stroke="black" stroke-width="2" d="M142.115,-156.178C148.187,-133.371 157.996,-96.5243 164.922,-70.5075"/>
<polygon fill="black" stroke="black" stroke-width="2" points="168.322,-71.3413 167.513,-60.7775 161.558,-69.5405 168.322,-71.3413"/>
</g>
<!-- 7&#45;&gt;6 -->
<g id="edge19" class="edge"><title>7&#45;&gt;6</title>
<path fill="none" stroke="black" stroke-width="2" d="M121.812,-161.278C116.935,-156.111 111.406,-150.253 106.127,-144.661"/>
<polygon fill="black" stroke="black" stroke-width="2" points="108.579,-142.159 99.1692,-137.29 103.488,-146.964 108.579,-142.159"/>
</g>
</g>
</svg>

