<?xml version="1.0" encoding="UTF-8" standalone="no"?>
<!DOCTYPE svg PUBLIC "-//W3C//DTD SVG 1.1//EN"
 "http://www.w3.org/Graphics/SVG/1.1/DTD/svg11.dtd">
<!-- Generated by graphviz version 2.36.0 (20140111.2315)
 -->
<!-- Title: G Pages: 1 -->
<svg width="100%" height="100%"
 viewBox="0.00 0.00 178.37 208.16" xmlns="http://www.w3.org/2000/svg" xmlns:xlink="http://www.w3.org/1999/xlink">
<g id="graph0" class="graph" transform="scale(1 1) rotate(0) translate(4 204.159)">
<title>G</title>
<!-- 0 -->
<g id="node1" class="node"><title>0</title>
<ellipse fill="cadetblue" stroke="black" cx="75.5013" cy="-158.697" rx="21.4286" ry="21.4286"/>
<text text-anchor="middle" x="75.5013" y="-153.697" font-family="Times New Roman,serif" font-size="20.00">2</text>
</g>
<!-- 3 -->
<g id="node4" class="node"><title>3</title>
<ellipse fill="cadetblue" stroke="black" cx="21.2132" cy="-161.591" rx="21.4286" ry="21.4286"/>
<text text-anchor="middle" x="21.2132" y="-156.591" font-family="Times New Roman,serif" font-size="20.00">2</text>
</g>
<!-- 0&#45;&gt;3 -->
<g id="edge1" class="edge"><title>0&#45;&gt;3</title>
<path fill="none" stroke="black" stroke-width="2" d="M54.0452,-159.841C53.571,-159.866 53.0944,-159.892 52.616,-159.917"/>
<polygon fill="black" stroke="black" stroke-width="2" points="52.3129,-156.428 42.5135,-160.456 52.6857,-163.418 52.3129,-156.428"/>
</g>
<!-- 4 -->
<g id="node5" class="node"><title>4</title>
<ellipse fill="brown" stroke="black" cx="125.933" cy="-178.946" rx="21.4286" ry="21.4286"/>
<text text-anchor="middle" x="125.933" y="-173.946" font-family="Times New Roman,serif" font-size="20.00">3</text>
</g>
<!-- 0&#45;&gt;4 -->
<g id="edge2" class="edge"><title>0&#45;&gt;4</title>
<path fill="none" stroke="black" stroke-width="2" d="M95.4332,-166.7C95.8737,-166.877 96.3164,-167.055 96.7609,-167.233"/>
<polygon fill="black" stroke="black" stroke-width="2" points="95.5616,-170.523 106.146,-171.001 98.1699,-164.027 95.5616,-170.523"/>
</g>
<!-- 7 -->
<g id="node8" class="node"><title>7</title>
<ellipse fill="brown" stroke="black" cx="85.0008" cy="-99.9692" rx="21.4286" ry="21.4286"/>
<text text-anchor="middle" x="85.0008" y="-94.9692" font-family="Times New Roman,serif" font-size="20.00">3</text>
</g>
<!-- 0&#45;&gt;7 -->
<g id="edge5" class="edge"><title>0&#45;&gt;7</title>
<path fill="none" stroke="black" stroke-width="2" d="M78.9309,-137.495C79.2713,-135.39 79.6216,-133.225 79.9739,-131.046"/>
<polygon fill="black" stroke="black" stroke-width="2" points="83.4664,-131.374 81.6082,-120.943 76.5562,-130.256 83.4664,-131.374"/>
</g>
<!-- 1 -->
<g id="node2" class="node"><title>1</title>
<ellipse fill="cadetblue" stroke="black" cx="124.267" cy="-30.3607" rx="21.4286" ry="21.4286"/>
<text text-anchor="middle" x="124.267" y="-25.3607" font-family="Times New Roman,serif" font-size="20.00">2</text>
</g>
<!-- 6 -->
<g id="node7" class="node"><title>6</title>
<ellipse fill="cadetblue" stroke="black" cx="149.152" cy="-97.9064" rx="21.4286" ry="21.4286"/>
<text text-anchor="middle" x="149.152" y="-92.9064" font-family="Times New Roman,serif" font-size="20.00">2</text>
</g>
<!-- 1&#45;&gt;6 -->
<g id="edge7" class="edge"><title>1&#45;&gt;6</title>
<path fill="none" stroke="black" stroke-width="2" d="M131.734,-50.6266C133.751,-56.1034 135.978,-62.1475 138.146,-68.0317"/>
<polygon fill="black" stroke="black" stroke-width="2" points="134.95,-69.4813 141.691,-77.6548 141.518,-67.0614 134.95,-69.4813"/>
</g>
<!-- 2 -->
<g id="node3" class="node"><title>2</title>
<ellipse fill="cadetblue" stroke="black" cx="71.5413" cy="-21.2132" rx="21.4286" ry="21.4286"/>
<text text-anchor="middle" x="71.5413" y="-16.2132" font-family="Times New Roman,serif" font-size="20.00">2</text>
</g>
<!-- 2&#45;&gt;7 -->
<g id="edge11" class="edge"><title>2&#45;&gt;7</title>
<path fill="none" stroke="black" stroke-width="2" d="M75.1482,-42.3184C76.5362,-50.44 78.1519,-59.8942 79.6686,-68.7687"/>
<polygon fill="black" stroke="black" stroke-width="2" points="76.2493,-69.5383 81.3839,-78.8058 83.1492,-68.3591 76.2493,-69.5383"/>
</g>
<!-- 5 -->
<g id="node6" class="node"><title>5</title>
<ellipse fill="cadetblue" stroke="black" cx="25.5033" cy="-77.041" rx="21.4286" ry="21.4286"/>
<text text-anchor="middle" x="25.5033" y="-72.041" font-family="Times New Roman,serif" font-size="20.00">2</text>
</g>
<!-- 3&#45;&gt;5 -->
<g id="edge13" class="edge"><title>3&#45;&gt;5</title>
<path fill="none" stroke="black" stroke-width="2" d="M22.2958,-140.256C22.7835,-130.643 23.3694,-119.097 23.9061,-108.519"/>
<polygon fill="black" stroke="black" stroke-width="2" points="27.4097,-108.534 24.4211,-98.3698 20.4187,-108.18 27.4097,-108.534"/>
</g>
<!-- 3&#45;&gt;7 -->
<g id="edge14" class="edge"><title>3&#45;&gt;7</title>
<path fill="none" stroke="black" stroke-width="2" d="M36.6544,-146.674C44.3329,-139.257 53.7633,-130.146 62.2503,-121.947"/>
<polygon fill="black" stroke="black" stroke-width="2" points="64.9415,-124.214 69.7018,-114.749 60.0779,-119.18 64.9415,-124.214"/>
</g>
<!-- 4&#45;&gt;3 -->
<g id="edge12" class="edge"><title>4&#45;&gt;3</title>
<path fill="none" stroke="black" stroke-width="2" d="M104.799,-183.902C95.7586,-185.396 85.091,-186.328 75.4773,-185.001 66.4187,-183.752 57.0905,-180.535 48.7783,-176.872"/>
<polygon fill="black" stroke="black" stroke-width="2" points="50.095,-173.622 39.5642,-172.458 47.0708,-179.935 50.095,-173.622"/>
</g>
<!-- 5&#45;&gt;0 -->
<g id="edge3" class="edge"><title>5&#45;&gt;0</title>
<path fill="none" stroke="black" stroke-width="2" d="M36.5995,-95.1631C43.1562,-105.871 51.5837,-119.635 58.9174,-131.613"/>
<polygon fill="black" stroke="black" stroke-width="2" points="56.0564,-133.643 64.2633,-140.343 62.0263,-129.987 56.0564,-133.643"/>
</g>
<!-- 5&#45;&gt;1 -->
<g id="edge6" class="edge"><title>5&#45;&gt;1</title>
<path fill="none" stroke="black" stroke-width="2" d="M45.0159,-67.8185C59.4899,-60.9774 79.4477,-51.5445 95.7139,-43.8563"/>
<polygon fill="black" stroke="black" stroke-width="2" points="97.2498,-47.0017 104.795,-39.5641 94.2586,-40.673 97.2498,-47.0017"/>
</g>
<!-- 5&#45;&gt;2 -->
<g id="edge9" class="edge"><title>5&#45;&gt;2</title>
<path fill="none" stroke="black" stroke-width="2" d="M39.0672,-60.5928C42.9662,-55.8647 47.3032,-50.6055 51.5053,-45.5098"/>
<polygon fill="black" stroke="black" stroke-width="2" points="54.2533,-47.6787 57.9152,-37.7368 48.8527,-43.2251 54.2533,-47.6787"/>
</g>
<!-- 6&#45;&gt;0 -->
<g id="edge4" class="edge"><title>6&#45;&gt;0</title>
<path fill="none" stroke="black" stroke-width="2" d="M132.44,-111.701C122.767,-119.685 110.424,-129.873 99.704,-138.721"/>
<polygon fill="black" stroke="black" stroke-width="2" points="97.3784,-136.102 91.8941,-145.167 101.834,-141.5 97.3784,-136.102"/>
</g>
<!-- 6&#45;&gt;2 -->
<g id="edge10" class="edge"><title>6&#45;&gt;2</title>
<path fill="none" stroke="black" stroke-width="2" d="M133.819,-82.7543C122.445,-71.5148 106.762,-56.017 93.9792,-43.3858"/>
<polygon fill="black" stroke="black" stroke-width="2" points="96.416,-40.8732 86.8429,-36.3338 91.4958,-45.8523 96.416,-40.8732"/>
</g>
<!-- 6&#45;&gt;4 -->
<g id="edge15" class="edge"><title>6&#45;&gt;4</title>
<path fill="none" stroke="black" stroke-width="2" d="M143.293,-118.356C140.653,-127.57 137.483,-138.636 134.577,-148.775"/>
<polygon fill="black" stroke="black" stroke-width="2" points="131.18,-147.926 131.79,-158.503 137.909,-149.854 131.18,-147.926"/>
</g>
<!-- 7&#45;&gt;1 -->
<g id="edge8" class="edge"><title>7&#45;&gt;1</title>
<path fill="none" stroke="black" stroke-width="2" d="M95.5235,-81.3154C99.5728,-74.137 104.287,-65.781 108.711,-57.9372"/>
<polygon fill="black" stroke="black" stroke-width="2" points="111.851,-59.4954 113.716,-49.066 105.754,-56.0561 111.851,-59.4954"/>
</g>
<!-- 7&#45;&gt;4 -->
<g id="edge16" class="edge"><title>7&#45;&gt;4</title>
<path fill="none" stroke="black" stroke-width="2" d="M94.9093,-119.087C99.8868,-128.691 106.012,-140.509 111.5,-151.099"/>
<polygon fill="black" stroke="black" stroke-width="2" points="108.407,-152.736 116.116,-160.004 114.621,-149.515 108.407,-152.736"/>
</g>
<!-- 7&#45;&gt;5 -->
<g id="edge17" class="edge"><title>7&#45;&gt;5</title>
<path fill="none" stroke="black" stroke-width="2" d="M65.189,-92.3344C61.9121,-91.0716 58.4534,-89.7388 54.9993,-88.4077"/>
<polygon fill="black" stroke="black" stroke-width="2" points="56.0212,-85.0506 45.4315,-84.7206 53.504,-91.5824 56.0212,-85.0506"/>
</g>
<!-- 7&#45;&gt;6 -->
<g id="edge18" class="edge"><title>7&#45;&gt;6</title>
<path fill="none" stroke="black" stroke-width="2" d="M106.362,-99.2823C109.896,-99.1687 113.625,-99.0488 117.349,-98.9291"/>
<polygon fill="black" stroke="black" stroke-width="2" points="117.783,-102.417 127.665,-98.5973 117.558,-95.4206 117.783,-102.417"/>
</g>
</g>
</svg>

