<?xml version="1.0" encoding="UTF-8" standalone="no"?>
<!DOCTYPE svg PUBLIC "-//W3C//DTD SVG 1.1//EN"
 "http://www.w3.org/Graphics/SVG/1.1/DTD/svg11.dtd">
<!-- Generated by graphviz version 2.36.0 (20140111.2315)
 -->
<!-- Title: G Pages: 1 -->
<svg width="100%" height="100%"
 viewBox="0.00 0.00 271.14 256.58" xmlns="http://www.w3.org/2000/svg" xmlns:xlink="http://www.w3.org/1999/xlink">
<g id="graph0" class="graph" transform="scale(1 1) rotate(0) translate(4 252.579)">
<title>G</title>
<!-- 0 -->
<g id="node1" class="node"><title>0</title>
<ellipse fill="cadetblue" stroke="black" cx="21.2132" cy="-119.014" rx="21.4286" ry="21.4286"/>
<text text-anchor="middle" x="21.2132" y="-114.014" font-family="Times New Roman,serif" font-size="20.00">2</text>
</g>
<!-- 7 -->
<g id="node8" class="node"><title>7</title>
<ellipse fill="brown" stroke="black" cx="127.012" cy="-112.326" rx="21.4286" ry="21.4286"/>
<text text-anchor="middle" x="127.012" y="-107.326" font-family="Times New Roman,serif" font-size="20.00">3</text>
</g>
<!-- 0&#45;&gt;7 -->
<g id="edge3" class="edge"><title>0&#45;&gt;7</title>
<path fill="none" stroke="black" stroke-width="2" d="M42.6232,-117.661C57.824,-116.7 78.4789,-115.394 95.5493,-114.315"/>
<polygon fill="black" stroke="black" stroke-width="2" points="95.8748,-117.802 105.634,-113.678 95.4332,-110.815 95.8748,-117.802"/>
</g>
<!-- 1 -->
<g id="node2" class="node"><title>1</title>
<ellipse fill="cadetblue" stroke="black" cx="196.339" cy="-227.365" rx="21.4286" ry="21.4286"/>
<text text-anchor="middle" x="196.339" y="-222.365" font-family="Times New Roman,serif" font-size="20.00">2</text>
</g>
<!-- 6 -->
<g id="node7" class="node"><title>6</title>
<ellipse fill="cadetblue" stroke="black" cx="191.496" cy="-110.316" rx="21.4286" ry="21.4286"/>
<text text-anchor="middle" x="191.496" y="-105.316" font-family="Times New Roman,serif" font-size="20.00">2</text>
</g>
<!-- 1&#45;&gt;6 -->
<g id="edge6" class="edge"><title>1&#45;&gt;6</title>
<path fill="none" stroke="black" stroke-width="2" d="M195.462,-206.169C194.719,-188.216 193.644,-162.222 192.8,-141.831"/>
<polygon fill="black" stroke="black" stroke-width="2" points="196.293,-141.597 192.383,-131.751 189.299,-141.887 196.293,-141.597"/>
</g>
<!-- 1&#45;&gt;7 -->
<g id="edge7" class="edge"><title>1&#45;&gt;7</title>
<path fill="none" stroke="black" stroke-width="2" d="M185.354,-209.137C174.062,-190.4 156.349,-161.007 143.4,-139.52"/>
<polygon fill="black" stroke="black" stroke-width="2" points="146.335,-137.609 138.175,-130.85 140.339,-141.222 146.335,-137.609"/>
</g>
<!-- 2 -->
<g id="node3" class="node"><title>2</title>
<ellipse fill="cadetblue" stroke="black" cx="212.108" cy="-24.289" rx="21.4286" ry="21.4286"/>
<text text-anchor="middle" x="212.108" y="-19.289" font-family="Times New Roman,serif" font-size="20.00">2</text>
</g>
<!-- 5 -->
<g id="node6" class="node"><title>5</title>
<ellipse fill="cadetblue" stroke="black" cx="241.928" cy="-151.302" rx="21.4286" ry="21.4286"/>
<text text-anchor="middle" x="241.928" y="-146.302" font-family="Times New Roman,serif" font-size="20.00">2</text>
</g>
<!-- 2&#45;&gt;5 -->
<g id="edge9" class="edge"><title>2&#45;&gt;5</title>
<path fill="none" stroke="black" stroke-width="2" d="M216.966,-44.9784C221.796,-65.5526 229.261,-97.3494 234.77,-120.814"/>
<polygon fill="black" stroke="black" stroke-width="2" points="231.379,-121.686 237.072,-130.621 238.194,-120.086 231.379,-121.686"/>
</g>
<!-- 2&#45;&gt;7 -->
<g id="edge11" class="edge"><title>2&#45;&gt;7</title>
<path fill="none" stroke="black" stroke-width="2" d="M197.286,-39.6239C183.945,-53.4256 164.164,-73.8907 148.984,-89.5948"/>
<polygon fill="black" stroke="black" stroke-width="2" points="146.384,-87.2489 141.95,-96.8716 151.417,-92.1139 146.384,-87.2489"/>
</g>
<!-- 3 -->
<g id="node4" class="node"><title>3</title>
<ellipse fill="cadetblue" stroke="black" cx="111.324" cy="-207.287" rx="21.4286" ry="21.4286"/>
<text text-anchor="middle" x="111.324" y="-202.287" font-family="Times New Roman,serif" font-size="20.00">2</text>
</g>
<!-- 3&#45;&gt;0 -->
<g id="edge1" class="edge"><title>3&#45;&gt;0</title>
<path fill="none" stroke="black" stroke-width="2" d="M96.0378,-192.313C81.7978,-178.363 60.3766,-157.379 44.0983,-141.433"/>
<polygon fill="black" stroke="black" stroke-width="2" points="46.167,-138.56 36.5742,-134.062 41.2685,-143.56 46.167,-138.56"/>
</g>
<!-- 3&#45;&gt;1 -->
<g id="edge4" class="edge"><title>3&#45;&gt;1</title>
<path fill="none" stroke="black" stroke-width="2" d="M132.339,-212.251C142.428,-214.633 154.709,-217.534 165.805,-220.154"/>
<polygon fill="black" stroke="black" stroke-width="2" points="165.029,-223.567 175.565,-222.459 166.638,-216.755 165.029,-223.567"/>
</g>
<!-- 4 -->
<g id="node5" class="node"><title>4</title>
<ellipse fill="cadetblue" stroke="black" cx="97.9808" cy="-21.2132" rx="21.4286" ry="21.4286"/>
<text text-anchor="middle" x="97.9808" y="-16.2132" font-family="Times New Roman,serif" font-size="20.00">2</text>
</g>
<!-- 4&#45;&gt;0 -->
<g id="edge2" class="edge"><title>4&#45;&gt;0</title>
<path fill="none" stroke="black" stroke-width="2" d="M84.6089,-38.2488C72.5001,-53.6752 54.5093,-76.5952 40.7831,-94.0822"/>
<polygon fill="black" stroke="black" stroke-width="2" points="37.8532,-92.1465 34.4319,-102.174 43.3595,-96.4686 37.8532,-92.1465"/>
</g>
<!-- 4&#45;&gt;2 -->
<g id="edge8" class="edge"><title>4&#45;&gt;2</title>
<path fill="none" stroke="black" stroke-width="2" d="M119.447,-21.7917C136.663,-22.2557 161.077,-22.9137 180.523,-23.4378"/>
<polygon fill="black" stroke="black" stroke-width="2" points="180.647,-26.9423 190.738,-23.7131 180.836,-19.9448 180.647,-26.9423"/>
</g>
<!-- 5&#45;&gt;1 -->
<g id="edge5" class="edge"><title>5&#45;&gt;1</title>
<path fill="none" stroke="black" stroke-width="2" d="M230.892,-169.714C225.404,-178.871 218.664,-190.116 212.598,-200.236"/>
<polygon fill="black" stroke="black" stroke-width="2" points="209.412,-198.745 207.273,-209.122 215.416,-202.344 209.412,-198.745"/>
</g>
<!-- 5&#45;&gt;3 -->
<g id="edge12" class="edge"><title>5&#45;&gt;3</title>
<path fill="none" stroke="black" stroke-width="2" d="M222.375,-159.683C200.639,-169.001 165.313,-184.144 140.348,-194.846"/>
<polygon fill="black" stroke="black" stroke-width="2" points="138.822,-191.692 131.01,-198.848 141.58,-198.125 138.822,-191.692"/>
</g>
<!-- 6&#45;&gt;2 -->
<g id="edge10" class="edge"><title>6&#45;&gt;2</title>
<path fill="none" stroke="black" stroke-width="2" d="M196.486,-89.4914C198.967,-79.1358 202.014,-66.4175 204.757,-54.9715"/>
<polygon fill="black" stroke="black" stroke-width="2" points="208.238,-55.4623 207.165,-44.922 201.431,-53.8312 208.238,-55.4623"/>
</g>
<!-- 6&#45;&gt;3 -->
<g id="edge13" class="edge"><title>6&#45;&gt;3</title>
<path fill="none" stroke="black" stroke-width="2" d="M177.896,-126.766C165.227,-142.09 146.168,-165.142 131.685,-182.66"/>
<polygon fill="black" stroke="black" stroke-width="2" points="128.665,-180.82 124.991,-190.757 134.06,-185.28 128.665,-180.82"/>
</g>
<!-- 6&#45;&gt;4 -->
<g id="edge14" class="edge"><title>6&#45;&gt;4</title>
<path fill="none" stroke="black" stroke-width="2" d="M176.054,-95.6026C161.028,-81.2859 138.018,-59.3611 120.865,-43.0176"/>
<polygon fill="black" stroke="black" stroke-width="2" points="123.1,-40.3129 113.446,-35.9486 118.271,-45.3808 123.1,-40.3129"/>
</g>
<!-- 7&#45;&gt;4 -->
<g id="edge15" class="edge"><title>7&#45;&gt;4</title>
<path fill="none" stroke="black" stroke-width="2" d="M120.569,-92.1053C116.762,-80.1568 111.869,-64.799 107.61,-51.4345"/>
<polygon fill="black" stroke="black" stroke-width="2" points="110.877,-50.1581 104.506,-41.6927 104.207,-52.2833 110.877,-50.1581"/>
</g>
<!-- 7&#45;&gt;5 -->
<g id="edge16" class="edge"><title>7&#45;&gt;5</title>
<path fill="none" stroke="black" stroke-width="2" d="M146.902,-120.278C159.57,-125.23 176.377,-131.591 191.465,-136.621 197.827,-138.741 204.695,-140.855 211.255,-142.79"/>
<polygon fill="black" stroke="black" stroke-width="2" points="210.614,-146.248 221.192,-145.66 212.556,-139.522 210.614,-146.248"/>
</g>
<!-- 7&#45;&gt;6 -->
<g id="edge17" class="edge"><title>7&#45;&gt;6</title>
<path fill="none" stroke="black" stroke-width="2" d="M148.484,-111.657C152.144,-111.543 156.012,-111.422 159.868,-111.302"/>
<polygon fill="black" stroke="black" stroke-width="2" points="160.012,-114.799 169.898,-110.989 159.794,-107.803 160.012,-114.799"/>
</g>
</g>
</svg>

