<?xml version="1.0" encoding="UTF-8" standalone="no"?>
<!DOCTYPE svg PUBLIC "-//W3C//DTD SVG 1.1//EN"
 "http://www.w3.org/Graphics/SVG/1.1/DTD/svg11.dtd">
<!-- Generated by graphviz version 2.36.0 (20140111.2315)
 -->
<!-- Title: G Pages: 1 -->
<svg width="100%" height="100%"
 viewBox="0.00 0.00 197.25 281.25" xmlns="http://www.w3.org/2000/svg" xmlns:xlink="http://www.w3.org/1999/xlink">
<g id="graph0" class="graph" transform="scale(1 1) rotate(0) translate(4 277.25)">
<title>G</title>
<!-- 0 -->
<g id="node1" class="node"><title>0</title>
<ellipse fill="cadetblue" stroke="black" cx="21.2132" cy="-213.579" rx="21.4286" ry="21.4286"/>
<text text-anchor="middle" x="21.2132" y="-208.579" font-family="Times New Roman,serif" font-size="20.00">2</text>
</g>
<!-- 6 -->
<g id="node7" class="node"><title>6</title>
<ellipse fill="cadetblue" stroke="black" cx="32.8712" cy="-122.751" rx="21.4286" ry="21.4286"/>
<text text-anchor="middle" x="32.8712" y="-117.751" font-family="Times New Roman,serif" font-size="20.00">2</text>
</g>
<!-- 0&#45;&gt;6 -->
<g id="edge3" class="edge"><title>0&#45;&gt;6</title>
<path fill="none" stroke="black" stroke-width="2" d="M23.9171,-192.513C25.378,-181.131 27.2107,-166.853 28.8369,-154.183"/>
<polygon fill="black" stroke="black" stroke-width="2" points="32.34,-154.382 30.1416,-144.017 25.3969,-153.49 32.34,-154.382"/>
</g>
<!-- 7 -->
<g id="node8" class="node"><title>7</title>
<ellipse fill="cadetblue" stroke="black" cx="97.3875" cy="-142.273" rx="21.4286" ry="21.4286"/>
<text text-anchor="middle" x="97.3875" y="-137.273" font-family="Times New Roman,serif" font-size="20.00">2</text>
</g>
<!-- 0&#45;&gt;7 -->
<g id="edge4" class="edge"><title>0&#45;&gt;7</title>
<path fill="none" stroke="black" stroke-width="2" d="M36.9966,-198.804C47.7923,-188.699 62.2794,-175.137 74.3582,-163.83"/>
<polygon fill="black" stroke="black" stroke-width="2" points="76.9763,-166.174 81.885,-156.785 72.1926,-161.064 76.9763,-166.174"/>
</g>
<!-- 1 -->
<g id="node2" class="node"><title>1</title>
<ellipse fill="cadetblue" stroke="black" cx="158.645" cy="-92.9458" rx="21.4286" ry="21.4286"/>
<text text-anchor="middle" x="158.645" y="-87.9458" font-family="Times New Roman,serif" font-size="20.00">2</text>
</g>
<!-- 4 -->
<g id="node5" class="node"><title>4</title>
<ellipse fill="cadetblue" stroke="black" cx="168.034" cy="-205.919" rx="21.4286" ry="21.4286"/>
<text text-anchor="middle" x="168.034" y="-200.919" font-family="Times New Roman,serif" font-size="20.00">2</text>
</g>
<!-- 1&#45;&gt;4 -->
<g id="edge5" class="edge"><title>1&#45;&gt;4</title>
<path fill="none" stroke="black" stroke-width="2" d="M160.411,-114.195C161.827,-131.237 163.836,-155.404 165.436,-174.653"/>
<polygon fill="black" stroke="black" stroke-width="2" points="161.96,-175.089 166.276,-184.765 168.936,-174.51 161.96,-175.089"/>
</g>
<!-- 1&#45;&gt;7 -->
<g id="edge8" class="edge"><title>1&#45;&gt;7</title>
<path fill="none" stroke="black" stroke-width="2" d="M141.906,-106.425C135.828,-111.318 128.825,-116.958 122.199,-122.293"/>
<polygon fill="black" stroke="black" stroke-width="2" points="119.7,-119.812 114.106,-128.81 124.09,-125.265 119.7,-119.812"/>
</g>
<!-- 2 -->
<g id="node3" class="node"><title>2</title>
<ellipse fill="cadetblue" stroke="black" cx="105.202" cy="-21.2132" rx="21.4286" ry="21.4286"/>
<text text-anchor="middle" x="105.202" y="-16.2132" font-family="Times New Roman,serif" font-size="20.00">2</text>
</g>
<!-- 2&#45;&gt;6 -->
<g id="edge10" class="edge"><title>2&#45;&gt;6</title>
<path fill="none" stroke="black" stroke-width="2" d="M92.6026,-38.8997C81.1938,-54.9155 64.2428,-78.7113 51.31,-96.8665"/>
<polygon fill="black" stroke="black" stroke-width="2" points="48.2771,-95.0916 45.3258,-105.267 53.9785,-99.153 48.2771,-95.0916"/>
</g>
<!-- 3 -->
<g id="node4" class="node"><title>3</title>
<ellipse fill="cadetblue" stroke="black" cx="71.6447" cy="-252.037" rx="21.4286" ry="21.4286"/>
<text text-anchor="middle" x="71.6447" y="-247.037" font-family="Times New Roman,serif" font-size="20.00">2</text>
</g>
<!-- 3&#45;&gt;0 -->
<g id="edge1" class="edge"><title>3&#45;&gt;0</title>
<path fill="none" stroke="black" stroke-width="2" d="M54.5709,-239.017C51.9419,-237.012 49.1807,-234.906 46.4197,-232.801"/>
<polygon fill="black" stroke="black" stroke-width="2" points="48.3435,-229.866 38.2694,-226.586 44.0989,-235.433 48.3435,-229.866"/>
</g>
<!-- 4&#45;&gt;0 -->
<g id="edge2" class="edge"><title>4&#45;&gt;0</title>
<path fill="none" stroke="black" stroke-width="2" d="M146.685,-207.033C122.002,-208.321 81.1413,-210.453 52.7842,-211.932"/>
<polygon fill="black" stroke="black" stroke-width="2" points="52.3921,-208.448 42.588,-212.464 52.7568,-215.438 52.3921,-208.448"/>
</g>
<!-- 5 -->
<g id="node6" class="node"><title>5</title>
<ellipse fill="cadetblue" stroke="black" cx="37.3184" cy="-41.0425" rx="21.4286" ry="21.4286"/>
<text text-anchor="middle" x="37.3184" y="-36.0425" font-family="Times New Roman,serif" font-size="20.00">2</text>
</g>
<!-- 5&#45;&gt;1 -->
<g id="edge6" class="edge"><title>5&#45;&gt;1</title>
<path fill="none" stroke="black" stroke-width="2" d="M57.0816,-49.4972C76.7347,-57.9048 107.108,-70.8984 129.523,-80.4873"/>
<polygon fill="black" stroke="black" stroke-width="2" points="128.319,-83.7794 138.89,-84.4947 131.073,-77.3436 128.319,-83.7794"/>
</g>
<!-- 5&#45;&gt;2 -->
<g id="edge9" class="edge"><title>5&#45;&gt;2</title>
<path fill="none" stroke="black" stroke-width="2" d="M57.6856,-35.0931C62.9579,-33.553 68.7533,-31.8601 74.4294,-30.2021"/>
<polygon fill="black" stroke="black" stroke-width="2" points="75.7614,-33.4593 84.3789,-27.2957 73.7986,-26.7401 75.7614,-33.4593"/>
</g>
<!-- 6&#45;&gt;1 -->
<g id="edge7" class="edge"><title>6&#45;&gt;1</title>
<path fill="none" stroke="black" stroke-width="2" d="M53.6401,-117.829C73.8489,-113.04 104.797,-105.706 127.867,-100.239"/>
<polygon fill="black" stroke="black" stroke-width="2" points="128.921,-103.586 137.845,-97.8748 127.307,-96.7751 128.921,-103.586"/>
</g>
<!-- 6&#45;&gt;3 -->
<g id="edge12" class="edge"><title>6&#45;&gt;3</title>
<path fill="none" stroke="black" stroke-width="2" d="M39.015,-143.237C45.3677,-164.419 55.3544,-197.719 62.6072,-221.902"/>
<polygon fill="black" stroke="black" stroke-width="2" points="59.3044,-223.074 65.5296,-231.647 66.0094,-221.063 59.3044,-223.074"/>
</g>
<!-- 6&#45;&gt;5 -->
<g id="edge15" class="edge"><title>6&#45;&gt;5</title>
<path fill="none" stroke="black" stroke-width="2" d="M34.0396,-101.283C34.5197,-92.4633 35.0851,-82.0743 35.61,-72.4302"/>
<polygon fill="black" stroke="black" stroke-width="2" points="39.109,-72.5425 36.1578,-62.3671 32.1194,-72.162 39.109,-72.5425"/>
</g>
<!-- 7&#45;&gt;2 -->
<g id="edge11" class="edge"><title>7&#45;&gt;2</title>
<path fill="none" stroke="black" stroke-width="2" d="M98.7665,-120.909C99.9809,-102.094 101.766,-74.4336 103.149,-53.0181"/>
<polygon fill="black" stroke="black" stroke-width="2" points="106.659,-52.9759 103.81,-42.7712 99.6732,-52.525 106.659,-52.9759"/>
</g>
<!-- 7&#45;&gt;3 -->
<g id="edge13" class="edge"><title>7&#45;&gt;3</title>
<path fill="none" stroke="black" stroke-width="2" d="M92.4849,-163.177C88.62,-179.656 83.1747,-202.874 78.8195,-221.444"/>
<polygon fill="black" stroke="black" stroke-width="2" points="75.4049,-220.675 76.529,-231.21 82.22,-222.274 75.4049,-220.675"/>
</g>
<!-- 7&#45;&gt;4 -->
<g id="edge14" class="edge"><title>7&#45;&gt;4</title>
<path fill="none" stroke="black" stroke-width="2" d="M113.418,-156.715C122.632,-165.016 134.371,-175.592 144.603,-184.81"/>
<polygon fill="black" stroke="black" stroke-width="2" points="142.295,-187.441 152.067,-191.534 146.98,-182.24 142.295,-187.441"/>
</g>
<!-- 7&#45;&gt;5 -->
<g id="edge16" class="edge"><title>7&#45;&gt;5</title>
<path fill="none" stroke="black" stroke-width="2" d="M86.3699,-123.706C77.1403,-108.152 63.8406,-85.7386 53.4177,-68.1735"/>
<polygon fill="black" stroke="black" stroke-width="2" points="56.3793,-66.3058 48.2662,-59.492 50.3593,-69.878 56.3793,-66.3058"/>
</g>
</g>
</svg>

