<?xml version="1.0" encoding="UTF-8" standalone="no"?>
<!DOCTYPE svg PUBLIC "-//W3C//DTD SVG 1.1//EN"
 "http://www.w3.org/Graphics/SVG/1.1/DTD/svg11.dtd">
<!-- Generated by graphviz version 2.36.0 (20140111.2315)
 -->
<!-- Title: G Pages: 1 -->
<svg width="100%" height="100%"
 viewBox="0.00 0.00 245.38 227.71" xmlns="http://www.w3.org/2000/svg" xmlns:xlink="http://www.w3.org/1999/xlink">
<g id="graph0" class="graph" transform="scale(1 1) rotate(0) translate(4 223.711)">
<title>G</title>
<!-- 0 -->
<g id="node1" class="node"><title>0</title>
<ellipse fill="cadetblue" stroke="black" cx="116.432" cy="-130.447" rx="21.4286" ry="21.4286"/>
<text text-anchor="middle" x="116.432" y="-125.447" font-family="Times New Roman,serif" font-size="20.00">2</text>
</g>
<!-- 5 -->
<g id="node6" class="node"><title>5</title>
<ellipse fill="cadetblue" stroke="black" cx="21.2132" cy="-132.842" rx="21.4286" ry="21.4286"/>
<text text-anchor="middle" x="21.2132" y="-127.842" font-family="Times New Roman,serif" font-size="20.00">2</text>
</g>
<!-- 0&#45;&gt;5 -->
<g id="edge3" class="edge"><title>0&#45;&gt;5</title>
<path fill="none" stroke="black" stroke-width="2" d="M94.8257,-130.991C82.4078,-131.303 66.5855,-131.701 52.7945,-132.047"/>
<polygon fill="black" stroke="black" stroke-width="2" points="52.6432,-128.55 42.7344,-132.3 52.8193,-135.548 52.6432,-128.55"/>
</g>
<!-- 6 -->
<g id="node7" class="node"><title>6</title>
<ellipse fill="cadetblue" stroke="black" cx="216.168" cy="-148.873" rx="21.4286" ry="21.4286"/>
<text text-anchor="middle" x="216.168" y="-143.873" font-family="Times New Roman,serif" font-size="20.00">2</text>
</g>
<!-- 0&#45;&gt;6 -->
<g id="edge4" class="edge"><title>0&#45;&gt;6</title>
<path fill="none" stroke="black" stroke-width="2" d="M137.584,-134.355C151.336,-136.896 169.507,-140.253 184.912,-143.099"/>
<polygon fill="black" stroke="black" stroke-width="2" points="184.577,-146.596 195.047,-144.971 185.849,-139.713 184.577,-146.596"/>
</g>
<!-- 7 -->
<g id="node8" class="node"><title>7</title>
<ellipse fill="brown" stroke="black" cx="67.1582" cy="-77.2974" rx="21.4286" ry="21.4286"/>
<text text-anchor="middle" x="67.1582" y="-72.2974" font-family="Times New Roman,serif" font-size="20.00">3</text>
</g>
<!-- 0&#45;&gt;7 -->
<g id="edge5" class="edge"><title>0&#45;&gt;7</title>
<path fill="none" stroke="black" stroke-width="2" d="M101.915,-114.788C97.742,-110.287 93.1001,-105.28 88.6026,-100.428"/>
<polygon fill="black" stroke="black" stroke-width="2" points="91.1074,-97.9822 81.7421,-93.0283 85.9741,-102.741 91.1074,-97.9822"/>
</g>
<!-- 1 -->
<g id="node2" class="node"><title>1</title>
<ellipse fill="cadetblue" stroke="black" cx="89.385" cy="-196.145" rx="21.4286" ry="21.4286"/>
<text text-anchor="middle" x="89.385" y="-191.145" font-family="Times New Roman,serif" font-size="20.00">2</text>
</g>
<!-- 1&#45;&gt;6 -->
<g id="edge8" class="edge"><title>1&#45;&gt;6</title>
<path fill="none" stroke="black" stroke-width="2" d="M109.474,-188.654C130.246,-180.909 162.901,-168.734 186.617,-159.891"/>
<polygon fill="black" stroke="black" stroke-width="2" points="188.025,-163.102 196.172,-156.329 185.58,-156.543 188.025,-163.102"/>
</g>
<!-- 1&#45;&gt;7 -->
<g id="edge9" class="edge"><title>1&#45;&gt;7</title>
<path fill="none" stroke="black" stroke-width="2" d="M85.4625,-175.171C82.0082,-156.701 76.9296,-129.545 72.9976,-108.521"/>
<polygon fill="black" stroke="black" stroke-width="2" points="76.395,-107.648 71.1163,-98.4614 69.5143,-108.934 76.395,-107.648"/>
</g>
<!-- 2 -->
<g id="node3" class="node"><title>2</title>
<ellipse fill="cadetblue" stroke="black" cx="131.37" cy="-21.2132" rx="21.4286" ry="21.4286"/>
<text text-anchor="middle" x="131.37" y="-16.2132" font-family="Times New Roman,serif" font-size="20.00">2</text>
</g>
<!-- 2&#45;&gt;5 -->
<g id="edge11" class="edge"><title>2&#45;&gt;5</title>
<path fill="none" stroke="black" stroke-width="2" d="M116.053,-36.7346C97.2271,-55.8122 65.1303,-88.3378 43.554,-110.202"/>
<polygon fill="black" stroke="black" stroke-width="2" points="40.9327,-107.876 36.4,-117.452 45.9152,-112.792 40.9327,-107.876"/>
</g>
<!-- 2&#45;&gt;7 -->
<g id="edge13" class="edge"><title>2&#45;&gt;7</title>
<path fill="none" stroke="black" stroke-width="2" d="M115.167,-35.3656C107.922,-41.6934 99.2318,-49.2835 91.2481,-56.2566"/>
<polygon fill="black" stroke="black" stroke-width="2" points="88.809,-53.74 83.5797,-62.9544 93.4138,-59.0121 88.809,-53.74"/>
</g>
<!-- 3 -->
<g id="node4" class="node"><title>3</title>
<ellipse fill="brown" stroke="black" cx="139.816" cy="-198.498" rx="21.4286" ry="21.4286"/>
<text text-anchor="middle" x="139.816" y="-193.498" font-family="Times New Roman,serif" font-size="20.00">3</text>
</g>
<!-- 3&#45;&gt;0 -->
<g id="edge1" class="edge"><title>3&#45;&gt;0</title>
<path fill="none" stroke="black" stroke-width="2" d="M132.8,-178.08C130.904,-172.563 128.812,-166.473 126.775,-160.545"/>
<polygon fill="black" stroke="black" stroke-width="2" points="130.003,-159.17 123.443,-150.85 123.383,-161.445 130.003,-159.17"/>
</g>
<!-- 4 -->
<g id="node5" class="node"><title>4</title>
<ellipse fill="cadetblue" stroke="black" cx="180.507" cy="-90.5428" rx="21.4286" ry="21.4286"/>
<text text-anchor="middle" x="180.507" y="-85.5428" font-family="Times New Roman,serif" font-size="20.00">2</text>
</g>
<!-- 3&#45;&gt;4 -->
<g id="edge14" class="edge"><title>3&#45;&gt;4</title>
<path fill="none" stroke="black" stroke-width="2" d="M147.375,-178.445C153.57,-162.009 162.425,-138.515 169.423,-119.95"/>
<polygon fill="black" stroke="black" stroke-width="2" points="172.737,-121.08 172.989,-110.488 166.187,-118.611 172.737,-121.08"/>
</g>
<!-- 4&#45;&gt;0 -->
<g id="edge2" class="edge"><title>4&#45;&gt;0</title>
<path fill="none" stroke="black" stroke-width="2" d="M162.317,-101.871C156.314,-105.61 149.508,-109.848 143.011,-113.895"/>
<polygon fill="black" stroke="black" stroke-width="2" points="141.084,-110.971 134.446,-119.229 144.785,-116.913 141.084,-110.971"/>
</g>
<!-- 4&#45;&gt;1 -->
<g id="edge6" class="edge"><title>4&#45;&gt;1</title>
<path fill="none" stroke="black" stroke-width="2" d="M166.269,-107.043C151.224,-124.48 127.345,-152.153 110.19,-172.034"/>
<polygon fill="black" stroke="black" stroke-width="2" points="107.406,-169.903 103.523,-179.76 112.706,-174.476 107.406,-169.903"/>
</g>
<!-- 4&#45;&gt;2 -->
<g id="edge10" class="edge"><title>4&#45;&gt;2</title>
<path fill="none" stroke="black" stroke-width="2" d="M168.108,-73.048C162.564,-65.2258 155.914,-55.8431 149.805,-47.2232"/>
<polygon fill="black" stroke="black" stroke-width="2" points="152.574,-45.0784 143.936,-38.9436 146.863,-49.1261 152.574,-45.0784"/>
</g>
<!-- 5&#45;&gt;1 -->
<g id="edge7" class="edge"><title>5&#45;&gt;1</title>
<path fill="none" stroke="black" stroke-width="2" d="M37.0245,-147.524C45.7147,-155.593 56.6549,-165.752 66.2851,-174.695"/>
<polygon fill="black" stroke="black" stroke-width="2" points="63.9499,-177.302 73.6594,-181.542 68.7131,-172.173 63.9499,-177.302"/>
</g>
<!-- 5&#45;&gt;3 -->
<g id="edge15" class="edge"><title>5&#45;&gt;3</title>
<path fill="none" stroke="black" stroke-width="2" d="M40.0062,-143.245C59.4384,-154.002 89.9867,-170.913 112.172,-183.194"/>
<polygon fill="black" stroke="black" stroke-width="2" points="110.667,-186.362 121.111,-188.143 114.058,-180.237 110.667,-186.362"/>
</g>
<!-- 6&#45;&gt;2 -->
<g id="edge12" class="edge"><title>6&#45;&gt;2</title>
<path fill="none" stroke="black" stroke-width="2" d="M204.377,-131.123C190.029,-109.523 165.668,-72.8479 149.066,-47.8546"/>
<polygon fill="black" stroke="black" stroke-width="2" points="151.782,-45.6178 143.334,-39.2246 145.952,-49.491 151.782,-45.6178"/>
</g>
<!-- 6&#45;&gt;3 -->
<g id="edge16" class="edge"><title>6&#45;&gt;3</title>
<path fill="none" stroke="black" stroke-width="2" d="M198.073,-160.634C188.565,-166.814 176.733,-174.504 166.221,-181.336"/>
<polygon fill="black" stroke="black" stroke-width="2" points="164.258,-178.437 157.781,-186.822 168.073,-184.307 164.258,-178.437"/>
</g>
<!-- 7&#45;&gt;3 -->
<g id="edge17" class="edge"><title>7&#45;&gt;3</title>
<path fill="none" stroke="black" stroke-width="2" d="M78.1934,-95.7051C90.2495,-115.816 109.684,-148.233 123.502,-171.283"/>
<polygon fill="black" stroke="black" stroke-width="2" points="120.534,-173.139 128.677,-179.917 126.538,-169.54 120.534,-173.139"/>
</g>
<!-- 7&#45;&gt;4 -->
<g id="edge18" class="edge"><title>7&#45;&gt;4</title>
<path fill="none" stroke="black" stroke-width="2" d="M88.4783,-79.7887C105.577,-81.7868 129.824,-84.6202 149.137,-86.8771"/>
<polygon fill="black" stroke="black" stroke-width="2" points="148.944,-90.3782 159.283,-88.0626 149.757,-83.4255 148.944,-90.3782"/>
</g>
</g>
</svg>

