<?xml version="1.0" encoding="UTF-8" standalone="no"?>
<!DOCTYPE svg PUBLIC "-//W3C//DTD SVG 1.1//EN"
 "http://www.w3.org/Graphics/SVG/1.1/DTD/svg11.dtd">
<!-- Generated by graphviz version 2.36.0 (20140111.2315)
 -->
<!-- Title: G Pages: 1 -->
<svg width="100%" height="100%"
 viewBox="0.00 0.00 275.02 260.13" xmlns="http://www.w3.org/2000/svg" xmlns:xlink="http://www.w3.org/1999/xlink">
<g id="graph0" class="graph" transform="scale(1 1) rotate(0) translate(4 256.135)">
<title>G</title>
<!-- 0 -->
<g id="node1" class="node"><title>0</title>
<ellipse fill="cadetblue" stroke="black" cx="126.784" cy="-211.805" rx="21.4286" ry="21.4286"/>
<text text-anchor="middle" x="126.784" y="-206.805" font-family="Times New Roman,serif" font-size="20.00">2</text>
</g>
<!-- 5 -->
<g id="node6" class="node"><title>5</title>
<ellipse fill="cadetblue" stroke="black" cx="34.411" cy="-136.045" rx="21.4286" ry="21.4286"/>
<text text-anchor="middle" x="34.411" y="-131.045" font-family="Times New Roman,serif" font-size="20.00">2</text>
</g>
<!-- 0&#45;&gt;5 -->
<g id="edge3" class="edge"><title>0&#45;&gt;5</title>
<path fill="none" stroke="black" stroke-width="2" d="M110.27,-198.261C96.0401,-186.59 75.2944,-169.576 59.0932,-156.288"/>
<polygon fill="black" stroke="black" stroke-width="2" points="61.0456,-153.363 51.0939,-149.728 56.6065,-158.775 61.0456,-153.363"/>
</g>
<!-- 6 -->
<g id="node7" class="node"><title>6</title>
<ellipse fill="cadetblue" stroke="black" cx="194.847" cy="-76.8987" rx="21.4286" ry="21.4286"/>
<text text-anchor="middle" x="194.847" y="-71.8987" font-family="Times New Roman,serif" font-size="20.00">2</text>
</g>
<!-- 0&#45;&gt;6 -->
<g id="edge4" class="edge"><title>0&#45;&gt;6</title>
<path fill="none" stroke="black" stroke-width="2" d="M136.392,-192.762C147.945,-169.863 167.435,-131.232 180.707,-104.926"/>
<polygon fill="black" stroke="black" stroke-width="2" points="183.909,-106.349 185.288,-95.8444 177.659,-103.196 183.909,-106.349"/>
</g>
<!-- 7 -->
<g id="node8" class="node"><title>7</title>
<ellipse fill="cadetblue" stroke="black" cx="111.042" cy="-126.973" rx="21.4286" ry="21.4286"/>
<text text-anchor="middle" x="111.042" y="-121.973" font-family="Times New Roman,serif" font-size="20.00">2</text>
</g>
<!-- 0&#45;&gt;7 -->
<g id="edge5" class="edge"><title>0&#45;&gt;7</title>
<path fill="none" stroke="black" stroke-width="2" d="M122.893,-190.835C121.058,-180.945 118.831,-168.943 116.805,-158.026"/>
<polygon fill="black" stroke="black" stroke-width="2" points="120.209,-157.189 114.943,-147.995 113.327,-158.466 120.209,-157.189"/>
</g>
<!-- 1 -->
<g id="node2" class="node"><title>1</title>
<ellipse fill="cadetblue" stroke="black" cx="177.216" cy="-188.756" rx="21.4286" ry="21.4286"/>
<text text-anchor="middle" x="177.216" y="-183.756" font-family="Times New Roman,serif" font-size="20.00">2</text>
</g>
<!-- 1&#45;&gt;6 -->
<g id="edge8" class="edge"><title>1&#45;&gt;6</title>
<path fill="none" stroke="black" stroke-width="2" d="M180.532,-167.716C183.175,-150.95 186.916,-127.218 189.91,-108.218"/>
<polygon fill="black" stroke="black" stroke-width="2" points="193.386,-108.647 191.486,-98.2241 186.471,-107.557 193.386,-108.647"/>
</g>
<!-- 1&#45;&gt;7 -->
<g id="edge9" class="edge"><title>1&#45;&gt;7</title>
<path fill="none" stroke="black" stroke-width="2" d="M161.533,-174.114C153.292,-166.42 143.037,-156.845 133.927,-148.339"/>
<polygon fill="black" stroke="black" stroke-width="2" points="136.31,-145.776 126.612,-141.509 131.533,-150.892 136.31,-145.776"/>
</g>
<!-- 2 -->
<g id="node3" class="node"><title>2</title>
<ellipse fill="cadetblue" stroke="black" cx="82.5523" cy="-21.2132" rx="21.4286" ry="21.4286"/>
<text text-anchor="middle" x="82.5523" y="-16.2132" font-family="Times New Roman,serif" font-size="20.00">2</text>
</g>
<!-- 2&#45;&gt;5 -->
<g id="edge10" class="edge"><title>2&#45;&gt;5</title>
<path fill="none" stroke="black" stroke-width="2" d="M74.2765,-40.9535C66.6643,-59.111 55.2788,-86.2689 46.6218,-106.919"/>
<polygon fill="black" stroke="black" stroke-width="2" points="43.3784,-105.603 42.7399,-116.178 49.8341,-108.309 43.3784,-105.603"/>
</g>
<!-- 3 -->
<g id="node4" class="node"><title>3</title>
<ellipse fill="cadetblue" stroke="black" cx="21.2132" cy="-230.922" rx="21.4286" ry="21.4286"/>
<text text-anchor="middle" x="21.2132" y="-225.922" font-family="Times New Roman,serif" font-size="20.00">2</text>
</g>
<!-- 3&#45;&gt;0 -->
<g id="edge1" class="edge"><title>3&#45;&gt;0</title>
<path fill="none" stroke="black" stroke-width="2" d="M42.3233,-227.099C57.5714,-224.338 78.4154,-220.563 95.5809,-217.455"/>
<polygon fill="black" stroke="black" stroke-width="2" points="96.4943,-220.847 105.711,-215.621 95.247,-213.959 96.4943,-220.847"/>
</g>
<!-- 4 -->
<g id="node5" class="node"><title>4</title>
<ellipse fill="cadetblue" stroke="black" cx="245.808" cy="-160.534" rx="21.4286" ry="21.4286"/>
<text text-anchor="middle" x="245.808" y="-155.534" font-family="Times New Roman,serif" font-size="20.00">2</text>
</g>
<!-- 4&#45;&gt;0 -->
<g id="edge2" class="edge"><title>4&#45;&gt;0</title>
<path fill="none" stroke="black" stroke-width="2" d="M233.045,-177.519C220.677,-192.063 200.409,-211.248 177.12,-215.06 171.03,-216.057 164.478,-216.258 158.181,-216.027"/>
<polygon fill="black" stroke="black" stroke-width="2" points="158.175,-212.517 147.95,-215.292 157.673,-219.499 158.175,-212.517"/>
</g>
<!-- 4&#45;&gt;1 -->
<g id="edge6" class="edge"><title>4&#45;&gt;1</title>
<path fill="none" stroke="black" stroke-width="2" d="M225.968,-168.697C219.907,-171.191 213.109,-173.988 206.557,-176.684"/>
<polygon fill="black" stroke="black" stroke-width="2" points="205.164,-173.472 197.248,-180.514 207.828,-179.945 205.164,-173.472"/>
</g>
<!-- 5&#45;&gt;1 -->
<g id="edge7" class="edge"><title>5&#45;&gt;1</title>
<path fill="none" stroke="black" stroke-width="2" d="M54.5685,-143.486C78.8083,-152.433 119.702,-167.527 147.547,-177.805"/>
<polygon fill="black" stroke="black" stroke-width="2" points="146.567,-181.174 157.161,-181.353 148.991,-174.607 146.567,-181.174"/>
</g>
<!-- 5&#45;&gt;3 -->
<g id="edge13" class="edge"><title>5&#45;&gt;3</title>
<path fill="none" stroke="black" stroke-width="2" d="M31.482,-157.101C29.7512,-169.543 27.5266,-185.535 25.5908,-199.452"/>
<polygon fill="black" stroke="black" stroke-width="2" points="22.0909,-199.209 24.1797,-209.596 29.0242,-200.174 22.0909,-199.209"/>
</g>
<!-- 6&#45;&gt;2 -->
<g id="edge11" class="edge"><title>6&#45;&gt;2</title>
<path fill="none" stroke="black" stroke-width="2" d="M175.798,-67.4524C157.971,-58.6125 131.114,-45.2945 110.795,-35.2185"/>
<polygon fill="black" stroke="black" stroke-width="2" points="112.209,-32.0129 101.695,-30.7058 109.099,-38.2841 112.209,-32.0129"/>
</g>
<!-- 6&#45;&gt;4 -->
<g id="edge15" class="edge"><title>6&#45;&gt;4</title>
<path fill="none" stroke="black" stroke-width="2" d="M205.905,-95.0463C212.736,-106.257 221.629,-120.853 229.286,-133.419"/>
<polygon fill="black" stroke="black" stroke-width="2" points="226.403,-135.415 234.596,-142.133 232.381,-131.772 226.403,-135.415"/>
</g>
<!-- 7&#45;&gt;2 -->
<g id="edge12" class="edge"><title>7&#45;&gt;2</title>
<path fill="none" stroke="black" stroke-width="2" d="M105.481,-106.33C101.285,-90.7524 95.4627,-69.139 90.7353,-51.5901"/>
<polygon fill="black" stroke="black" stroke-width="2" points="94.0797,-50.5491 88.099,-41.8037 87.3207,-52.3699 94.0797,-50.5491"/>
</g>
<!-- 7&#45;&gt;3 -->
<g id="edge14" class="edge"><title>7&#45;&gt;3</title>
<path fill="none" stroke="black" stroke-width="2" d="M97.0065,-143.215C82.1742,-160.378 58.6341,-187.619 41.7228,-207.188"/>
<polygon fill="black" stroke="black" stroke-width="2" points="39.0408,-204.939 35.1504,-214.794 44.3372,-209.516 39.0408,-204.939"/>
</g>
<!-- 7&#45;&gt;4 -->
<g id="edge16" class="edge"><title>7&#45;&gt;4</title>
<path fill="none" stroke="black" stroke-width="2" d="M131.804,-132.143C153.997,-137.67 189.425,-146.493 214.899,-152.837"/>
<polygon fill="black" stroke="black" stroke-width="2" points="214.251,-156.282 224.8,-155.302 215.943,-149.49 214.251,-156.282"/>
</g>
</g>
</svg>

