<?xml version="1.0" encoding="UTF-8" standalone="no"?>
<!DOCTYPE svg PUBLIC "-//W3C//DTD SVG 1.1//EN"
 "http://www.w3.org/Graphics/SVG/1.1/DTD/svg11.dtd">
<!-- Generated by graphviz version 2.36.0 (20140111.2315)
 -->
<!-- Title: G Pages: 1 -->
<svg width="100%" height="100%"
 viewBox="0.00 0.00 234.71 204.18" xmlns="http://www.w3.org/2000/svg" xmlns:xlink="http://www.w3.org/1999/xlink">
<g id="graph0" class="graph" transform="scale(1 1) rotate(0) translate(4 200.184)">
<title>G</title>
<!-- 0 -->
<g id="node1" class="node"><title>0</title>
<ellipse fill="cadetblue" stroke="black" cx="162.749" cy="-174.971" rx="21.4286" ry="21.4286"/>
<text text-anchor="middle" x="162.749" y="-169.971" font-family="Times New Roman,serif" font-size="20.00">2</text>
</g>
<!-- 6 -->
<g id="node7" class="node"><title>6</title>
<ellipse fill="cadetblue" stroke="black" cx="149.205" cy="-96.8161" rx="21.4286" ry="21.4286"/>
<text text-anchor="middle" x="149.205" y="-91.8161" font-family="Times New Roman,serif" font-size="20.00">2</text>
</g>
<!-- 0&#45;&gt;6 -->
<g id="edge3" class="edge"><title>0&#45;&gt;6</title>
<path fill="none" stroke="black" stroke-width="2" d="M159.12,-154.027C157.723,-145.967 156.097,-136.585 154.571,-127.778"/>
<polygon fill="black" stroke="black" stroke-width="2" points="158.001,-127.073 152.845,-117.818 151.104,-128.269 158.001,-127.073"/>
</g>
<!-- 7 -->
<g id="node8" class="node"><title>7</title>
<ellipse fill="brown" stroke="black" cx="77.0364" cy="-95.7476" rx="21.4286" ry="21.4286"/>
<text text-anchor="middle" x="77.0364" y="-90.7476" font-family="Times New Roman,serif" font-size="20.00">3</text>
</g>
<!-- 0&#45;&gt;7 -->
<g id="edge4" class="edge"><title>0&#45;&gt;7</title>
<path fill="none" stroke="black" stroke-width="2" d="M151.809,-156.346C146.246,-147.816 138.975,-137.935 130.986,-130.324 123.193,-122.899 113.585,-116.148 104.647,-110.622"/>
<polygon fill="black" stroke="black" stroke-width="2" points="106.413,-107.6 96.0235,-105.524 102.851,-113.626 106.413,-107.6"/>
</g>
<!-- 1 -->
<g id="node2" class="node"><title>1</title>
<ellipse fill="cadetblue" stroke="black" cx="112.318" cy="-148.856" rx="21.4286" ry="21.4286"/>
<text text-anchor="middle" x="112.318" y="-143.856" font-family="Times New Roman,serif" font-size="20.00">2</text>
</g>
<!-- 1&#45;&gt;6 -->
<g id="edge7" class="edge"><title>1&#45;&gt;6</title>
<path fill="none" stroke="black" stroke-width="2" d="M124.601,-131.527C126.632,-128.661 128.777,-125.636 130.918,-122.615"/>
<polygon fill="black" stroke="black" stroke-width="2" points="133.923,-124.429 136.85,-114.246 128.212,-120.381 133.923,-124.429"/>
</g>
<!-- 1&#45;&gt;7 -->
<g id="edge8" class="edge"><title>1&#45;&gt;7</title>
<path fill="none" stroke="black" stroke-width="2" d="M100.57,-131.172C98.6265,-128.246 96.5755,-125.159 94.5273,-122.076"/>
<polygon fill="black" stroke="black" stroke-width="2" points="97.3025,-119.928 88.8536,-113.536 91.4719,-123.802 97.3025,-119.928"/>
</g>
<!-- 2 -->
<g id="node3" class="node"><title>2</title>
<ellipse fill="cadetblue" stroke="black" cx="114.454" cy="-21.2132" rx="21.4286" ry="21.4286"/>
<text text-anchor="middle" x="114.454" y="-16.2132" font-family="Times New Roman,serif" font-size="20.00">2</text>
</g>
<!-- 4 -->
<g id="node5" class="node"><title>4</title>
<ellipse fill="cadetblue" stroke="black" cx="205.493" cy="-88.064" rx="21.4286" ry="21.4286"/>
<text text-anchor="middle" x="205.493" y="-83.064" font-family="Times New Roman,serif" font-size="20.00">2</text>
</g>
<!-- 2&#45;&gt;4 -->
<g id="edge9" class="edge"><title>2&#45;&gt;4</title>
<path fill="none" stroke="black" stroke-width="2" d="M131.578,-33.7873C145.224,-43.8079 164.539,-57.9912 180.002,-69.3461"/>
<polygon fill="black" stroke="black" stroke-width="2" points="178.005,-72.2213 188.136,-75.3189 182.148,-66.579 178.005,-72.2213"/>
</g>
<!-- 2&#45;&gt;7 -->
<g id="edge12" class="edge"><title>2&#45;&gt;7</title>
<path fill="none" stroke="black" stroke-width="2" d="M104.818,-40.4077C100.672,-48.6669 95.741,-58.4888 91.1924,-67.5493"/>
<polygon fill="black" stroke="black" stroke-width="2" points="87.9983,-66.1108 86.6397,-76.6182 94.2543,-69.2514 87.9983,-66.1108"/>
</g>
<!-- 3 -->
<g id="node4" class="node"><title>3</title>
<ellipse fill="cadetblue" stroke="black" cx="60.8074" cy="-173.175" rx="21.4286" ry="21.4286"/>
<text text-anchor="middle" x="60.8074" y="-168.175" font-family="Times New Roman,serif" font-size="20.00">2</text>
</g>
<!-- 3&#45;&gt;0 -->
<g id="edge1" class="edge"><title>3&#45;&gt;0</title>
<path fill="none" stroke="black" stroke-width="2" d="M82.0644,-174.198C91.3253,-174.591 102.308,-174.987 112.222,-175.16 118.29,-175.266 124.769,-175.3 130.994,-175.295"/>
<polygon fill="black" stroke="black" stroke-width="2" points="131.125,-178.794 141.111,-175.253 131.096,-171.795 131.125,-178.794"/>
</g>
<!-- 5 -->
<g id="node6" class="node"><title>5</title>
<ellipse fill="cadetblue" stroke="black" cx="21.2132" cy="-84.7177" rx="21.4286" ry="21.4286"/>
<text text-anchor="middle" x="21.2132" y="-79.7177" font-family="Times New Roman,serif" font-size="20.00">2</text>
</g>
<!-- 3&#45;&gt;5 -->
<g id="edge13" class="edge"><title>3&#45;&gt;5</title>
<path fill="none" stroke="black" stroke-width="2" d="M52.0202,-153.544C46.7915,-141.862 40.0605,-126.825 34.2245,-113.786"/>
<polygon fill="black" stroke="black" stroke-width="2" points="37.256,-111.992 29.9759,-104.294 30.8668,-114.852 37.256,-111.992"/>
</g>
<!-- 4&#45;&gt;0 -->
<g id="edge2" class="edge"><title>4&#45;&gt;0</title>
<path fill="none" stroke="black" stroke-width="2" d="M196.007,-107.351C190.362,-118.828 183.096,-133.602 176.796,-146.412"/>
<polygon fill="black" stroke="black" stroke-width="2" points="173.482,-145.219 172.209,-155.737 179.763,-148.309 173.482,-145.219"/>
</g>
<!-- 4&#45;&gt;1 -->
<g id="edge5" class="edge"><title>4&#45;&gt;1</title>
<path fill="none" stroke="black" stroke-width="2" d="M188.44,-100.917C182.046,-105.61 174.662,-110.881 167.783,-115.438 158.715,-121.445 148.58,-127.685 139.478,-133.123"/>
<polygon fill="black" stroke="black" stroke-width="2" points="137.625,-130.153 130.799,-138.256 141.188,-136.178 137.625,-130.153"/>
</g>
<!-- 5&#45;&gt;1 -->
<g id="edge6" class="edge"><title>5&#45;&gt;1</title>
<path fill="none" stroke="black" stroke-width="2" d="M37.6085,-98.3642C43.9961,-103.522 51.4492,-109.349 58.4355,-114.347 67.0186,-120.487 76.6516,-126.822 85.3733,-132.362"/>
<polygon fill="black" stroke="black" stroke-width="2" points="83.7192,-135.456 94.0502,-137.806 87.4395,-129.526 83.7192,-135.456"/>
</g>
<!-- 5&#45;&gt;2 -->
<g id="edge10" class="edge"><title>5&#45;&gt;2</title>
<path fill="none" stroke="black" stroke-width="2" d="M38.7511,-72.773C52.7274,-63.254 72.5097,-49.7807 88.347,-38.9942"/>
<polygon fill="black" stroke="black" stroke-width="2" points="90.3828,-41.8423 96.6777,-33.3203 86.4424,-36.0567 90.3828,-41.8423"/>
</g>
<!-- 6&#45;&gt;2 -->
<g id="edge11" class="edge"><title>6&#45;&gt;2</title>
<path fill="none" stroke="black" stroke-width="2" d="M140.256,-77.3465C136.405,-68.9688 131.826,-59.0061 127.601,-49.8158"/>
<polygon fill="black" stroke="black" stroke-width="2" points="130.73,-48.2412 123.373,-40.6169 124.369,-51.1647 130.73,-48.2412"/>
</g>
<!-- 6&#45;&gt;3 -->
<g id="edge14" class="edge"><title>6&#45;&gt;3</title>
<path fill="none" stroke="black" stroke-width="2" d="M130.057,-106.041C118.795,-112.006 104.673,-120.46 93.7859,-130.188 88.3191,-135.073 83.1243,-140.967 78.5427,-146.804"/>
<polygon fill="black" stroke="black" stroke-width="2" points="75.4655,-145.077 72.3084,-155.191 81.0833,-149.253 75.4655,-145.077"/>
</g>
<!-- 6&#45;&gt;4 -->
<g id="edge16" class="edge"><title>6&#45;&gt;4</title>
<path fill="none" stroke="black" stroke-width="2" d="M170.485,-93.5073C171.606,-93.333 172.742,-93.1564 173.886,-92.9785"/>
<polygon fill="black" stroke="black" stroke-width="2" points="174.839,-96.3724 184.183,-91.3775 173.764,-89.4555 174.839,-96.3724"/>
</g>
<!-- 7&#45;&gt;3 -->
<g id="edge15" class="edge"><title>7&#45;&gt;3</title>
<path fill="none" stroke="black" stroke-width="2" d="M72.6017,-116.905C70.9604,-124.736 69.0642,-133.782 67.2788,-142.301"/>
<polygon fill="black" stroke="black" stroke-width="2" points="63.8065,-141.806 65.1805,-152.312 70.6576,-143.242 63.8065,-141.806"/>
</g>
<!-- 7&#45;&gt;5 -->
<g id="edge17" class="edge"><title>7&#45;&gt;5</title>
<path fill="none" stroke="black" stroke-width="2" d="M55.932,-91.5777C54.8205,-91.3581 53.6937,-91.1354 52.5591,-90.9112"/>
<polygon fill="black" stroke="black" stroke-width="2" points="52.8362,-87.3984 42.3474,-88.8935 51.4793,-94.2656 52.8362,-87.3984"/>
</g>
</g>
</svg>

