<?xml version="1.0" encoding="UTF-8" standalone="no"?>
<!DOCTYPE svg PUBLIC "-//W3C//DTD SVG 1.1//EN"
 "http://www.w3.org/Graphics/SVG/1.1/DTD/svg11.dtd">
<!-- Generated by graphviz version 2.36.0 (20140111.2315)
 -->
<!-- Title: G Pages: 1 -->
<svg width="100%" height="100%"
 viewBox="0.00 0.00 287.20 291.24" xmlns="http://www.w3.org/2000/svg" xmlns:xlink="http://www.w3.org/1999/xlink">
<g id="graph0" class="graph" transform="scale(1 1) rotate(0) translate(4 287.239)">
<title>G</title>
<!-- 0 -->
<g id="node1" class="node"><title>0</title>
<ellipse fill="cadetblue" stroke="black" cx="52.0705" cy="-124.184" rx="21.4286" ry="21.4286"/>
<text text-anchor="middle" x="52.0705" y="-119.184" font-family="Times New Roman,serif" font-size="20.00">2</text>
</g>
<!-- 3 -->
<g id="node4" class="node"><title>3</title>
<ellipse fill="brown" stroke="black" cx="21.2132" cy="-243.166" rx="21.4286" ry="21.4286"/>
<text text-anchor="middle" x="21.2132" y="-238.166" font-family="Times New Roman,serif" font-size="20.00">3</text>
</g>
<!-- 0&#45;&gt;3 -->
<g id="edge1" class="edge"><title>0&#45;&gt;3</title>
<path fill="none" stroke="black" stroke-width="2" d="M46.6955,-144.909C41.858,-163.562 34.6849,-191.221 29.1806,-212.445"/>
<polygon fill="black" stroke="black" stroke-width="2" points="25.7526,-211.721 26.6301,-222.279 32.5285,-213.478 25.7526,-211.721"/>
</g>
<!-- 6 -->
<g id="node7" class="node"><title>6</title>
<ellipse fill="cadetblue" stroke="black" cx="159.712" cy="-154.555" rx="21.4286" ry="21.4286"/>
<text text-anchor="middle" x="159.712" y="-149.555" font-family="Times New Roman,serif" font-size="20.00">2</text>
</g>
<!-- 0&#45;&gt;6 -->
<g id="edge3" class="edge"><title>0&#45;&gt;6</title>
<path fill="none" stroke="black" stroke-width="2" d="M72.5704,-129.968C88.6564,-134.507 111.29,-140.893 129.458,-146.019"/>
<polygon fill="black" stroke="black" stroke-width="2" points="128.714,-149.445 139.289,-148.792 130.615,-142.708 128.714,-149.445"/>
</g>
<!-- 1 -->
<g id="node2" class="node"><title>1</title>
<ellipse fill="cadetblue" stroke="black" cx="257.99" cy="-241.002" rx="21.4286" ry="21.4286"/>
<text text-anchor="middle" x="257.99" y="-236.002" font-family="Times New Roman,serif" font-size="20.00">2</text>
</g>
<!-- 4 -->
<g id="node5" class="node"><title>4</title>
<ellipse fill="cadetblue" stroke="black" cx="237.8" cy="-120.98" rx="21.4286" ry="21.4286"/>
<text text-anchor="middle" x="237.8" y="-115.98" font-family="Times New Roman,serif" font-size="20.00">2</text>
</g>
<!-- 1&#45;&gt;4 -->
<g id="edge5" class="edge"><title>1&#45;&gt;4</title>
<path fill="none" stroke="black" stroke-width="2" d="M254.427,-219.82C251.255,-200.967 246.576,-173.152 242.989,-151.828"/>
<polygon fill="black" stroke="black" stroke-width="2" points="246.438,-151.23 241.327,-141.949 239.535,-152.392 246.438,-151.23"/>
</g>
<!-- 5 -->
<g id="node6" class="node"><title>5</title>
<ellipse fill="cadetblue" stroke="black" cx="109.281" cy="-173.175" rx="21.4286" ry="21.4286"/>
<text text-anchor="middle" x="109.281" y="-168.175" font-family="Times New Roman,serif" font-size="20.00">2</text>
</g>
<!-- 1&#45;&gt;5 -->
<g id="edge6" class="edge"><title>1&#45;&gt;5</title>
<path fill="none" stroke="black" stroke-width="2" d="M238.549,-232.134C212.943,-220.456 167.707,-199.823 138.113,-186.325"/>
<polygon fill="black" stroke="black" stroke-width="2" points="139.277,-183.01 128.727,-182.044 136.373,-189.378 139.277,-183.01"/>
</g>
<!-- 2 -->
<g id="node3" class="node"><title>2</title>
<ellipse fill="cadetblue" stroke="black" cx="167.872" cy="-21.2132" rx="21.4286" ry="21.4286"/>
<text text-anchor="middle" x="167.872" y="-16.2132" font-family="Times New Roman,serif" font-size="20.00">2</text>
</g>
<!-- 2&#45;&gt;5 -->
<g id="edge10" class="edge"><title>2&#45;&gt;5</title>
<path fill="none" stroke="black" stroke-width="2" d="M160.212,-41.0795C150.124,-67.245 132.301,-113.47 120.641,-143.712"/>
<polygon fill="black" stroke="black" stroke-width="2" points="117.274,-142.714 116.942,-153.304 123.806,-145.232 117.274,-142.714"/>
</g>
<!-- 3&#45;&gt;6 -->
<g id="edge13" class="edge"><title>3&#45;&gt;6</title>
<path fill="none" stroke="black" stroke-width="2" d="M41.4531,-236.309C63.9852,-228.05 100.78,-212.648 127.798,-191.858 132.357,-188.349 136.731,-184.097 140.7,-179.738"/>
<polygon fill="black" stroke="black" stroke-width="2" points="143.544,-181.797 147.36,-171.913 138.213,-177.26 143.544,-181.797"/>
</g>
<!-- 4&#45;&gt;0 -->
<g id="edge2" class="edge"><title>4&#45;&gt;0</title>
<path fill="none" stroke="black" stroke-width="2" d="M216.494,-121.348C183.973,-121.909 121.744,-122.982 83.8659,-123.636"/>
<polygon fill="black" stroke="black" stroke-width="2" points="83.3509,-120.144 73.4128,-123.816 83.4717,-127.143 83.3509,-120.144"/>
</g>
<!-- 4&#45;&gt;2 -->
<g id="edge9" class="edge"><title>4&#45;&gt;2</title>
<path fill="none" stroke="black" stroke-width="2" d="M225.619,-103.602C214.657,-87.9614 198.401,-64.7696 185.928,-46.9731"/>
<polygon fill="black" stroke="black" stroke-width="2" points="188.753,-44.9068 180.148,-38.7269 183.021,-48.9246 188.753,-44.9068"/>
</g>
<!-- 7 -->
<g id="node8" class="node"><title>7</title>
<ellipse fill="brown" stroke="black" cx="145.354" cy="-262.026" rx="21.4286" ry="21.4286"/>
<text text-anchor="middle" x="145.354" y="-257.026" font-family="Times New Roman,serif" font-size="20.00">3</text>
</g>
<!-- 4&#45;&gt;7 -->
<g id="edge16" class="edge"><title>4&#45;&gt;7</title>
<path fill="none" stroke="black" stroke-width="2" d="M226.091,-138.844C210.133,-163.191 181.423,-206.994 162.89,-235.271"/>
<polygon fill="black" stroke="black" stroke-width="2" points="159.814,-233.58 157.259,-243.862 165.668,-237.417 159.814,-233.58"/>
</g>
<!-- 5&#45;&gt;3 -->
<g id="edge12" class="edge"><title>5&#45;&gt;3</title>
<path fill="none" stroke="black" stroke-width="2" d="M92.3005,-186.67C79.1807,-197.097 60.8295,-211.681 46.059,-223.42"/>
<polygon fill="black" stroke="black" stroke-width="2" points="43.4938,-220.988 37.8427,-229.95 47.8491,-226.468 43.4938,-220.988"/>
</g>
<!-- 5&#45;&gt;7 -->
<g id="edge17" class="edge"><title>5&#45;&gt;7</title>
<path fill="none" stroke="black" stroke-width="2" d="M117.287,-192.894C122.05,-204.627 128.183,-219.732 133.5,-232.828"/>
<polygon fill="black" stroke="black" stroke-width="2" points="130.366,-234.414 137.37,-242.362 136.852,-231.78 130.366,-234.414"/>
</g>
<!-- 6&#45;&gt;1 -->
<g id="edge7" class="edge"><title>6&#45;&gt;1</title>
<path fill="none" stroke="black" stroke-width="2" d="M175.941,-168.83C191.732,-182.72 215.914,-203.991 233.94,-219.847"/>
<polygon fill="black" stroke="black" stroke-width="2" points="231.917,-222.729 241.737,-226.705 236.54,-217.473 231.917,-222.729"/>
</g>
<!-- 6&#45;&gt;2 -->
<g id="edge11" class="edge"><title>6&#45;&gt;2</title>
<path fill="none" stroke="black" stroke-width="2" d="M161.023,-133.131C162.356,-111.358 164.434,-77.3962 165.952,-52.5914"/>
<polygon fill="black" stroke="black" stroke-width="2" points="169.447,-52.7788 166.564,-42.5837 162.46,-52.3512 169.447,-52.7788"/>
</g>
<!-- 6&#45;&gt;4 -->
<g id="edge15" class="edge"><title>6&#45;&gt;4</title>
<path fill="none" stroke="black" stroke-width="2" d="M179.417,-146.082C188.295,-142.265 198.958,-137.68 208.728,-133.48"/>
<polygon fill="black" stroke="black" stroke-width="2" points="210.297,-136.615 218.101,-129.45 207.532,-130.184 210.297,-136.615"/>
</g>
<!-- 6&#45;&gt;7 -->
<g id="edge18" class="edge"><title>6&#45;&gt;7</title>
<path fill="none" stroke="black" stroke-width="2" d="M156.876,-175.788C154.791,-191.391 151.924,-212.85 149.571,-230.458"/>
<polygon fill="black" stroke="black" stroke-width="2" points="146.04,-230.462 148.185,-240.837 152.978,-231.389 146.04,-230.462"/>
</g>
<!-- 7&#45;&gt;0 -->
<g id="edge4" class="edge"><title>7&#45;&gt;0</title>
<path fill="none" stroke="black" stroke-width="2" d="M131.608,-245.757C120.093,-231.812 103.514,-210.979 90.5981,-191.692 82.1617,-179.093 73.709,-164.549 66.8795,-152.195"/>
<polygon fill="black" stroke="black" stroke-width="2" points="69.8591,-150.348 62.0005,-143.242 63.7127,-153.698 69.8591,-150.348"/>
</g>
<!-- 7&#45;&gt;1 -->
<g id="edge8" class="edge"><title>7&#45;&gt;1</title>
<path fill="none" stroke="black" stroke-width="2" d="M166.276,-258.121C183.317,-254.94 207.63,-250.402 226.941,-246.797"/>
<polygon fill="black" stroke="black" stroke-width="2" points="227.61,-250.233 236.798,-244.957 226.325,-243.352 227.61,-250.233"/>
</g>
<!-- 7&#45;&gt;3 -->
<g id="edge14" class="edge"><title>7&#45;&gt;3</title>
<path fill="none" stroke="black" stroke-width="2" d="M124.295,-258.827C104.588,-255.833 74.8981,-251.322 52.4354,-247.91"/>
<polygon fill="black" stroke="black" stroke-width="2" points="52.7876,-244.423 42.3753,-246.381 51.7361,-251.344 52.7876,-244.423"/>
</g>
</g>
</svg>

