<?xml version="1.0" encoding="UTF-8" standalone="no"?>
<!DOCTYPE svg PUBLIC "-//W3C//DTD SVG 1.1//EN"
 "http://www.w3.org/Graphics/SVG/1.1/DTD/svg11.dtd">
<!-- Generated by graphviz version 2.36.0 (20140111.2315)
 -->
<!-- Title: G Pages: 1 -->
<svg width="100%" height="100%"
 viewBox="0.00 0.00 246.04 224.34" xmlns="http://www.w3.org/2000/svg" xmlns:xlink="http://www.w3.org/1999/xlink">
<g id="graph0" class="graph" transform="scale(1 1) rotate(0) translate(4 220.339)">
<title>G</title>
<!-- 0 -->
<g id="node1" class="node"><title>0</title>
<ellipse fill="cadetblue" stroke="black" cx="92.6695" cy="-21.2132" rx="21.4286" ry="21.4286"/>
<text text-anchor="middle" x="92.6695" y="-16.2132" font-family="Times New Roman,serif" font-size="20.00">2</text>
</g>
<!-- 6 -->
<g id="node7" class="node"><title>6</title>
<ellipse fill="brown" stroke="black" cx="21.2132" cy="-69.2735" rx="21.4286" ry="21.4286"/>
<text text-anchor="middle" x="21.2132" y="-64.2735" font-family="Times New Roman,serif" font-size="20.00">3</text>
</g>
<!-- 0&#45;&gt;6 -->
<g id="edge3" class="edge"><title>0&#45;&gt;6</title>
<path fill="none" stroke="black" stroke-width="2" d="M75.0062,-33.0933C66.7378,-38.6544 56.7179,-45.3937 47.5776,-51.5413"/>
<polygon fill="black" stroke="black" stroke-width="2" points="45.5141,-48.7111 39.1697,-57.1963 49.4208,-54.5195 45.5141,-48.7111"/>
</g>
<!-- 7 -->
<g id="node8" class="node"><title>7</title>
<ellipse fill="brown" stroke="black" cx="136.363" cy="-111.985" rx="21.4286" ry="21.4286"/>
<text text-anchor="middle" x="136.363" y="-106.985" font-family="Times New Roman,serif" font-size="20.00">3</text>
</g>
<!-- 0&#45;&gt;7 -->
<g id="edge4" class="edge"><title>0&#45;&gt;7</title>
<path fill="none" stroke="black" stroke-width="2" d="M101.936,-40.4636C107.96,-52.9796 115.921,-69.5182 122.67,-83.5387"/>
<polygon fill="black" stroke="black" stroke-width="2" points="119.619,-85.2701 127.11,-92.7626 125.926,-82.234 119.619,-85.2701"/>
</g>
<!-- 1 -->
<g id="node2" class="node"><title>1</title>
<ellipse fill="cadetblue" stroke="black" cx="72.0141" cy="-195.126" rx="21.4286" ry="21.4286"/>
<text text-anchor="middle" x="72.0141" y="-190.126" font-family="Times New Roman,serif" font-size="20.00">2</text>
</g>
<!-- 1&#45;&gt;6 -->
<g id="edge7" class="edge"><title>1&#45;&gt;6</title>
<path fill="none" stroke="black" stroke-width="2" d="M58.4425,-178.73C51.7976,-170.218 43.9923,-159.45 38.1524,-149.071 29.8576,-134.329 25.6156,-115.973 23.4502,-100.585"/>
<polygon fill="black" stroke="black" stroke-width="2" points="26.9064,-100.007 22.2585,-90.486 19.9546,-100.827 26.9064,-100.007"/>
</g>
<!-- 1&#45;&gt;7 -->
<g id="edge8" class="edge"><title>1&#45;&gt;7</title>
<path fill="none" stroke="black" stroke-width="2" d="M85.036,-178.301C94.2814,-166.356 106.844,-150.125 117.227,-136.71"/>
<polygon fill="black" stroke="black" stroke-width="2" points="120.007,-138.835 123.36,-128.785 114.472,-134.551 120.007,-138.835"/>
</g>
<!-- 2 -->
<g id="node3" class="node"><title>2</title>
<ellipse fill="cadetblue" stroke="black" cx="149.541" cy="-35.5716" rx="21.4286" ry="21.4286"/>
<text text-anchor="middle" x="149.541" y="-30.5716" font-family="Times New Roman,serif" font-size="20.00">2</text>
</g>
<!-- 2&#45;&gt;6 -->
<g id="edge11" class="edge"><title>2&#45;&gt;6</title>
<path fill="none" stroke="black" stroke-width="2" d="M128.923,-40.9864C108.063,-46.4648 75.5754,-54.9967 51.7318,-61.2586"/>
<polygon fill="black" stroke="black" stroke-width="2" points="50.5631,-57.9468 41.7802,-63.8722 52.3412,-64.7172 50.5631,-57.9468"/>
</g>
<!-- 2&#45;&gt;7 -->
<g id="edge12" class="edge"><title>2&#45;&gt;7</title>
<path fill="none" stroke="black" stroke-width="2" d="M145.87,-56.857C144.574,-64.3712 143.09,-72.9797 141.685,-81.1252"/>
<polygon fill="black" stroke="black" stroke-width="2" points="138.219,-80.6286 139.968,-91.078 145.117,-81.8184 138.219,-80.6286"/>
</g>
<!-- 3 -->
<g id="node4" class="node"><title>3</title>
<ellipse fill="cadetblue" stroke="black" cx="56.7832" cy="-130.502" rx="21.4286" ry="21.4286"/>
<text text-anchor="middle" x="56.7832" y="-125.502" font-family="Times New Roman,serif" font-size="20.00">2</text>
</g>
<!-- 3&#45;&gt;0 -->
<g id="edge1" class="edge"><title>3&#45;&gt;0</title>
<path fill="none" stroke="black" stroke-width="2" d="M63.4491,-110.202C68.9128,-93.5623 76.7227,-69.7779 82.8939,-50.9839"/>
<polygon fill="black" stroke="black" stroke-width="2" points="86.2449,-51.9976 86.0394,-41.4047 79.5943,-49.8137 86.2449,-51.9976"/>
</g>
<!-- 3&#45;&gt;1 -->
<g id="edge5" class="edge"><title>3&#45;&gt;1</title>
<path fill="none" stroke="black" stroke-width="2" d="M61.6862,-151.305C62.6645,-155.456 63.7116,-159.899 64.7499,-164.304"/>
<polygon fill="black" stroke="black" stroke-width="2" points="61.4196,-165.432 67.1203,-174.362 68.2329,-163.826 61.4196,-165.432"/>
</g>
<!-- 5 -->
<g id="node6" class="node"><title>5</title>
<ellipse fill="cadetblue" stroke="black" cx="172.57" cy="-162.417" rx="21.4286" ry="21.4286"/>
<text text-anchor="middle" x="172.57" y="-157.417" font-family="Times New Roman,serif" font-size="20.00">2</text>
</g>
<!-- 3&#45;&gt;5 -->
<g id="edge13" class="edge"><title>3&#45;&gt;5</title>
<path fill="none" stroke="black" stroke-width="2" d="M77.4836,-136.208C95.513,-141.177 121.888,-148.447 142.289,-154.07"/>
<polygon fill="black" stroke="black" stroke-width="2" points="141.478,-157.477 152.049,-156.76 143.338,-150.729 141.478,-157.477"/>
</g>
<!-- 4 -->
<g id="node5" class="node"><title>4</title>
<ellipse fill="cadetblue" stroke="black" cx="216.823" cy="-65.7025" rx="21.4286" ry="21.4286"/>
<text text-anchor="middle" x="216.823" y="-60.7025" font-family="Times New Roman,serif" font-size="20.00">2</text>
</g>
<!-- 4&#45;&gt;0 -->
<g id="edge2" class="edge"><title>4&#45;&gt;0</title>
<path fill="none" stroke="black" stroke-width="2" d="M195.448,-67.4738C177.02,-67.9734 150.385,-66.1497 130.914,-54.1441 125.658,-50.9036 120.398,-46.9518 115.534,-42.9259"/>
<polygon fill="black" stroke="black" stroke-width="2" points="117.636,-40.115 107.794,-36.1931 113.042,-45.3967 117.636,-40.115"/>
</g>
<!-- 4&#45;&gt;2 -->
<g id="edge9" class="edge"><title>4&#45;&gt;2</title>
<path fill="none" stroke="black" stroke-width="2" d="M197.362,-56.9874C191.417,-54.3249 184.748,-51.3385 178.322,-48.4604"/>
<polygon fill="black" stroke="black" stroke-width="2" points="179.748,-45.2644 169.191,-44.3715 176.887,-51.653 179.748,-45.2644"/>
</g>
<!-- 5&#45;&gt;1 -->
<g id="edge6" class="edge"><title>5&#45;&gt;1</title>
<path fill="none" stroke="black" stroke-width="2" d="M152.221,-169.036C137.774,-173.735 118.142,-180.121 101.918,-185.399"/>
<polygon fill="black" stroke="black" stroke-width="2" points="100.76,-182.095 92.3328,-188.517 102.925,-188.752 100.76,-182.095"/>
</g>
<!-- 5&#45;&gt;2 -->
<g id="edge10" class="edge"><title>5&#45;&gt;2</title>
<path fill="none" stroke="black" stroke-width="2" d="M168.767,-141.471C165.067,-121.09 159.401,-89.878 155.177,-66.6119"/>
<polygon fill="black" stroke="black" stroke-width="2" points="158.58,-65.7625 153.35,-56.5486 151.692,-67.013 158.58,-65.7625"/>
</g>
<!-- 5&#45;&gt;4 -->
<g id="edge16" class="edge"><title>5&#45;&gt;4</title>
<path fill="none" stroke="black" stroke-width="2" d="M181.525,-142.845C187.883,-128.95 196.523,-110.068 203.663,-94.4637"/>
<polygon fill="black" stroke="black" stroke-width="2" points="206.903,-95.7945 207.881,-85.2449 200.537,-92.882 206.903,-95.7945"/>
</g>
<!-- 6&#45;&gt;3 -->
<g id="edge14" class="edge"><title>6&#45;&gt;3</title>
<path fill="none" stroke="black" stroke-width="2" d="M31.8854,-87.6441C34.7695,-92.6086 37.9523,-98.0875 41.051,-103.421"/>
<polygon fill="black" stroke="black" stroke-width="2" points="38.0689,-105.256 46.1186,-112.144 44.1217,-101.739 38.0689,-105.256"/>
</g>
<!-- 7&#45;&gt;3 -->
<g id="edge15" class="edge"><title>7&#45;&gt;3</title>
<path fill="none" stroke="black" stroke-width="2" d="M115.454,-116.85C106.864,-118.849 96.746,-121.203 87.3531,-123.389"/>
<polygon fill="black" stroke="black" stroke-width="2" points="86.4988,-119.994 77.5522,-125.669 88.0852,-126.812 86.4988,-119.994"/>
</g>
<!-- 7&#45;&gt;4 -->
<g id="edge17" class="edge"><title>7&#45;&gt;4</title>
<path fill="none" stroke="black" stroke-width="2" d="M155.024,-101.251C165.281,-95.3508 178.193,-87.9234 189.559,-81.3853"/>
<polygon fill="black" stroke="black" stroke-width="2" points="191.339,-84.3989 198.263,-76.3788 187.849,-78.3311 191.339,-84.3989"/>
</g>
<!-- 7&#45;&gt;5 -->
<g id="edge18" class="edge"><title>7&#45;&gt;5</title>
<path fill="none" stroke="black" stroke-width="2" d="M148.823,-129.341C150.511,-131.691 152.271,-134.143 154.037,-136.603"/>
<polygon fill="black" stroke="black" stroke-width="2" points="151.288,-138.776 159.964,-144.858 156.975,-134.693 151.288,-138.776"/>
</g>
</g>
</svg>

