<?xml version="1.0" encoding="UTF-8" standalone="no"?>
<!DOCTYPE svg PUBLIC "-//W3C//DTD SVG 1.1//EN"
 "http://www.w3.org/Graphics/SVG/1.1/DTD/svg11.dtd">
<!-- Generated by graphviz version 2.36.0 (20140111.2315)
 -->
<!-- Title: G Pages: 1 -->
<svg width="100%" height="100%"
 viewBox="0.00 0.00 259.27 270.96" xmlns="http://www.w3.org/2000/svg" xmlns:xlink="http://www.w3.org/1999/xlink">
<g id="graph0" class="graph" transform="scale(1 1) rotate(0) translate(4 266.956)">
<title>G</title>
<!-- 0 -->
<g id="node1" class="node"><title>0</title>
<ellipse fill="cadetblue" stroke="black" cx="165.778" cy="-21.2132" rx="21.4286" ry="21.4286"/>
<text text-anchor="middle" x="165.778" y="-16.2132" font-family="Times New Roman,serif" font-size="20.00">2</text>
</g>
<!-- 6 -->
<g id="node7" class="node"><title>6</title>
<ellipse fill="cadetblue" stroke="black" cx="81.278" cy="-29.6412" rx="21.4286" ry="21.4286"/>
<text text-anchor="middle" x="81.278" y="-24.6412" font-family="Times New Roman,serif" font-size="20.00">2</text>
</g>
<!-- 0&#45;&gt;6 -->
<g id="edge3" class="edge"><title>0&#45;&gt;6</title>
<path fill="none" stroke="black" stroke-width="2" d="M144.455,-23.3399C134.848,-24.2981 123.309,-25.449 112.737,-26.5035"/>
<polygon fill="black" stroke="black" stroke-width="2" points="112.197,-23.0398 102.594,-27.5151 112.892,-30.0053 112.197,-23.0398"/>
</g>
<!-- 7 -->
<g id="node8" class="node"><title>7</title>
<ellipse fill="cadetblue" stroke="black" cx="154.795" cy="-141.271" rx="21.4286" ry="21.4286"/>
<text text-anchor="middle" x="154.795" y="-136.271" font-family="Times New Roman,serif" font-size="20.00">2</text>
</g>
<!-- 0&#45;&gt;7 -->
<g id="edge4" class="edge"><title>0&#45;&gt;7</title>
<path fill="none" stroke="black" stroke-width="2" d="M163.84,-42.4008C162.133,-61.0592 159.623,-88.4913 157.681,-109.73"/>
<polygon fill="black" stroke="black" stroke-width="2" points="154.177,-109.614 156.751,-119.892 161.147,-110.252 154.177,-109.614"/>
</g>
<!-- 1 -->
<g id="node2" class="node"><title>1</title>
<ellipse fill="cadetblue" stroke="black" cx="21.2132" cy="-159.596" rx="21.4286" ry="21.4286"/>
<text text-anchor="middle" x="21.2132" y="-154.596" font-family="Times New Roman,serif" font-size="20.00">2</text>
</g>
<!-- 1&#45;&gt;6 -->
<g id="edge7" class="edge"><title>1&#45;&gt;6</title>
<path fill="none" stroke="black" stroke-width="2" d="M29.4411,-139.828C35.2951,-125.952 43.4453,-107.007 51.0854,-90.5342 56.103,-79.7159 61.8644,-67.9492 67.0003,-57.6688"/>
<polygon fill="black" stroke="black" stroke-width="2" points="70.1369,-59.222 71.5019,-48.7154 63.8828,-56.0775 70.1369,-59.222"/>
</g>
<!-- 1&#45;&gt;7 -->
<g id="edge8" class="edge"><title>1&#45;&gt;7</title>
<path fill="none" stroke="black" stroke-width="2" d="M42.3797,-156.693C64.266,-153.69 98.6722,-148.97 123.66,-145.543"/>
<polygon fill="black" stroke="black" stroke-width="2" points="124.296,-148.988 133.728,-144.161 123.345,-142.053 124.296,-148.988"/>
</g>
<!-- 2 -->
<g id="node3" class="node"><title>2</title>
<ellipse fill="cadetblue" stroke="black" cx="221.181" cy="-217.37" rx="21.4286" ry="21.4286"/>
<text text-anchor="middle" x="221.181" y="-212.37" font-family="Times New Roman,serif" font-size="20.00">2</text>
</g>
<!-- 5 -->
<g id="node6" class="node"><title>5</title>
<ellipse fill="cadetblue" stroke="black" cx="93.7235" cy="-241.743" rx="21.4286" ry="21.4286"/>
<text text-anchor="middle" x="93.7235" y="-236.743" font-family="Times New Roman,serif" font-size="20.00">2</text>
</g>
<!-- 2&#45;&gt;5 -->
<g id="edge10" class="edge"><title>2&#45;&gt;5</title>
<path fill="none" stroke="black" stroke-width="2" d="M200.134,-221.394C179.654,-225.311 148.292,-231.308 124.914,-235.779"/>
<polygon fill="black" stroke="black" stroke-width="2" points="123.966,-232.396 114.802,-237.712 125.281,-239.272 123.966,-232.396"/>
</g>
<!-- 3 -->
<g id="node4" class="node"><title>3</title>
<ellipse fill="cadetblue" stroke="black" cx="69.6545" cy="-109.165" rx="21.4286" ry="21.4286"/>
<text text-anchor="middle" x="69.6545" y="-104.165" font-family="Times New Roman,serif" font-size="20.00">2</text>
</g>
<!-- 3&#45;&gt;0 -->
<g id="edge1" class="edge"><title>3&#45;&gt;0</title>
<path fill="none" stroke="black" stroke-width="2" d="M85.5274,-94.6416C100.972,-80.5098 124.624,-58.8682 142.256,-42.7359"/>
<polygon fill="black" stroke="black" stroke-width="2" points="144.867,-45.091 149.882,-35.7582 140.141,-39.9266 144.867,-45.091"/>
</g>
<!-- 3&#45;&gt;1 -->
<g id="edge5" class="edge"><title>3&#45;&gt;1</title>
<path fill="none" stroke="black" stroke-width="2" d="M54.8573,-124.57C51.1011,-128.481 46.9867,-132.764 42.9641,-136.952"/>
<polygon fill="black" stroke="black" stroke-width="2" points="40.323,-134.649 35.9198,-144.286 45.3714,-139.498 40.323,-134.649"/>
</g>
<!-- 3&#45;&gt;5 -->
<g id="edge12" class="edge"><title>3&#45;&gt;5</title>
<path fill="none" stroke="black" stroke-width="2" d="M73.4683,-130.172C77.4118,-151.894 83.6112,-186.042 88.1135,-210.842"/>
<polygon fill="black" stroke="black" stroke-width="2" points="84.6975,-211.62 89.9276,-220.834 91.5849,-210.37 84.6975,-211.62"/>
</g>
<!-- 4 -->
<g id="node5" class="node"><title>4</title>
<ellipse fill="cadetblue" stroke="black" cx="230.059" cy="-87.0736" rx="21.4286" ry="21.4286"/>
<text text-anchor="middle" x="230.059" y="-82.0736" font-family="Times New Roman,serif" font-size="20.00">2</text>
</g>
<!-- 4&#45;&gt;0 -->
<g id="edge2" class="edge"><title>4&#45;&gt;0</title>
<path fill="none" stroke="black" stroke-width="2" d="M215.15,-71.7983C207.037,-63.4859 196.844,-53.0426 187.83,-43.8066"/>
<polygon fill="black" stroke="black" stroke-width="2" points="190.096,-41.1173 180.606,-36.4056 185.086,-46.0067 190.096,-41.1173"/>
</g>
<!-- 4&#45;&gt;2 -->
<g id="edge9" class="edge"><title>4&#45;&gt;2</title>
<path fill="none" stroke="black" stroke-width="2" d="M228.613,-108.298C227.175,-129.404 224.952,-162.023 223.312,-186.094"/>
<polygon fill="black" stroke="black" stroke-width="2" points="219.814,-185.94 222.626,-196.154 226.798,-186.416 219.814,-185.94"/>
</g>
<!-- 5&#45;&gt;1 -->
<g id="edge6" class="edge"><title>5&#45;&gt;1</title>
<path fill="none" stroke="black" stroke-width="2" d="M79.3978,-225.514C68.7023,-213.397 53.9283,-196.659 41.9442,-183.083"/>
<polygon fill="black" stroke="black" stroke-width="2" points="44.5041,-180.694 35.2624,-175.513 39.2561,-185.326 44.5041,-180.694"/>
</g>
<!-- 6&#45;&gt;3 -->
<g id="edge13" class="edge"><title>6&#45;&gt;3</title>
<path fill="none" stroke="black" stroke-width="2" d="M78.1631,-50.9521C76.9417,-59.309 75.516,-69.063 74.1847,-78.1711"/>
<polygon fill="black" stroke="black" stroke-width="2" points="70.7208,-77.6699 72.7377,-88.071 77.6473,-78.6824 70.7208,-77.6699"/>
</g>
<!-- 6&#45;&gt;4 -->
<g id="edge15" class="edge"><title>6&#45;&gt;4</title>
<path fill="none" stroke="black" stroke-width="2" d="M101.343,-37.3867C126.855,-47.2348 171.11,-64.3182 200.491,-75.6598"/>
<polygon fill="black" stroke="black" stroke-width="2" points="199.247,-78.9312 209.836,-79.2673 201.768,-72.4008 199.247,-78.9312"/>
</g>
<!-- 7&#45;&gt;2 -->
<g id="edge11" class="edge"><title>7&#45;&gt;2</title>
<path fill="none" stroke="black" stroke-width="2" d="M168.874,-157.41C178.027,-167.903 190.123,-181.768 200.376,-193.522"/>
<polygon fill="black" stroke="black" stroke-width="2" points="197.911,-196.02 207.122,-201.254 203.186,-191.418 197.911,-196.02"/>
</g>
<!-- 7&#45;&gt;3 -->
<g id="edge14" class="edge"><title>7&#45;&gt;3</title>
<path fill="none" stroke="black" stroke-width="2" d="M134.618,-133.663C124.015,-129.664 110.821,-124.689 99.0982,-120.268"/>
<polygon fill="black" stroke="black" stroke-width="2" points="100.279,-116.973 89.6868,-116.719 97.8087,-123.523 100.279,-116.973"/>
</g>
<!-- 7&#45;&gt;4 -->
<g id="edge16" class="edge"><title>7&#45;&gt;4</title>
<path fill="none" stroke="black" stroke-width="2" d="M172.251,-128.701C181.846,-121.792 193.924,-113.095 204.556,-105.438"/>
<polygon fill="black" stroke="black" stroke-width="2" points="206.628,-108.26 212.697,-99.5757 202.537,-102.579 206.628,-108.26"/>
</g>
</g>
</svg>

