<?xml version="1.0" encoding="UTF-8" standalone="no"?>
<!DOCTYPE svg PUBLIC "-//W3C//DTD SVG 1.1//EN"
 "http://www.w3.org/Graphics/SVG/1.1/DTD/svg11.dtd">
<!-- Generated by graphviz version 2.36.0 (20140111.2315)
 -->
<!-- Title: G Pages: 1 -->
<svg width="100%" height="100%"
 viewBox="0.00 0.00 266.24 313.70" xmlns="http://www.w3.org/2000/svg" xmlns:xlink="http://www.w3.org/1999/xlink">
<g id="graph0" class="graph" transform="scale(1 1) rotate(0) translate(4 309.698)">
<title>G</title>
<!-- 0 -->
<g id="node1" class="node"><title>0</title>
<ellipse fill="cadetblue" stroke="black" cx="214.994" cy="-195.177" rx="21.4286" ry="21.4286"/>
<text text-anchor="middle" x="214.994" y="-190.177" font-family="Times New Roman,serif" font-size="20.00">2</text>
</g>
<!-- 5 -->
<g id="node6" class="node"><title>5</title>
<ellipse fill="cadetblue" stroke="black" cx="123.673" cy="-161.908" rx="21.4286" ry="21.4286"/>
<text text-anchor="middle" x="123.673" y="-156.908" font-family="Times New Roman,serif" font-size="20.00">2</text>
</g>
<!-- 0&#45;&gt;5 -->
<g id="edge3" class="edge"><title>0&#45;&gt;5</title>
<path fill="none" stroke="black" stroke-width="2" d="M194.727,-187.793C182.549,-183.357 166.838,-177.633 153.287,-172.696"/>
<polygon fill="black" stroke="black" stroke-width="2" points="154.477,-169.405 143.883,-169.271 152.081,-175.982 154.477,-169.405"/>
</g>
<!-- 6 -->
<g id="node7" class="node"><title>6</title>
<ellipse fill="cadetblue" stroke="black" cx="152.215" cy="-284.485" rx="21.4286" ry="21.4286"/>
<text text-anchor="middle" x="152.215" y="-279.485" font-family="Times New Roman,serif" font-size="20.00">2</text>
</g>
<!-- 0&#45;&gt;6 -->
<g id="edge4" class="edge"><title>0&#45;&gt;6</title>
<path fill="none" stroke="black" stroke-width="2" d="M202.591,-212.821C193.39,-225.909 180.704,-243.956 170.365,-258.665"/>
<polygon fill="black" stroke="black" stroke-width="2" points="167.48,-256.683 164.592,-266.877 173.206,-260.709 167.48,-256.683"/>
</g>
<!-- 7 -->
<g id="node8" class="node"><title>7</title>
<ellipse fill="cadetblue" stroke="black" cx="109.06" cy="-111.476" rx="21.4286" ry="21.4286"/>
<text text-anchor="middle" x="109.06" y="-106.476" font-family="Times New Roman,serif" font-size="20.00">2</text>
</g>
<!-- 0&#45;&gt;7 -->
<g id="edge5" class="edge"><title>0&#45;&gt;7</title>
<path fill="none" stroke="black" stroke-width="2" d="M197.974,-181.729C180.676,-168.062 153.695,-146.743 133.989,-131.173"/>
<polygon fill="black" stroke="black" stroke-width="2" points="136.054,-128.344 126.038,-124.891 131.715,-133.837 136.054,-128.344"/>
</g>
<!-- 1 -->
<g id="node2" class="node"><title>1</title>
<ellipse fill="cadetblue" stroke="black" cx="21.2132" cy="-200.294" rx="21.4286" ry="21.4286"/>
<text text-anchor="middle" x="21.2132" y="-195.294" font-family="Times New Roman,serif" font-size="20.00">2</text>
</g>
<!-- 1&#45;&gt;6 -->
<g id="edge8" class="edge"><title>1&#45;&gt;6</title>
<path fill="none" stroke="black" stroke-width="2" d="M42.3206,-203.795C60.8209,-207.684 87.7093,-215.407 107.085,-229.765 117.674,-237.612 127.297,-248.463 134.912,-258.433"/>
<polygon fill="black" stroke="black" stroke-width="2" points="132.089,-260.503 140.812,-266.517 137.743,-256.376 132.089,-260.503"/>
</g>
<!-- 1&#45;&gt;7 -->
<g id="edge9" class="edge"><title>1&#45;&gt;7</title>
<path fill="none" stroke="black" stroke-width="2" d="M36.515,-184.823C50.3713,-170.814 70.9586,-149.999 86.6658,-134.118"/>
<polygon fill="black" stroke="black" stroke-width="2" points="89.3901,-136.341 93.9338,-126.77 84.4132,-131.418 89.3901,-136.341"/>
</g>
<!-- 2 -->
<g id="node3" class="node"><title>2</title>
<ellipse fill="cadetblue" stroke="black" cx="138.658" cy="-21.2132" rx="21.4286" ry="21.4286"/>
<text text-anchor="middle" x="138.658" y="-16.2132" font-family="Times New Roman,serif" font-size="20.00">2</text>
</g>
<!-- 4 -->
<g id="node5" class="node"><title>4</title>
<ellipse fill="cadetblue" stroke="black" cx="237.026" cy="-75.2468" rx="21.4286" ry="21.4286"/>
<text text-anchor="middle" x="237.026" y="-70.2468" font-family="Times New Roman,serif" font-size="20.00">2</text>
</g>
<!-- 2&#45;&gt;4 -->
<g id="edge10" class="edge"><title>2&#45;&gt;4</title>
<path fill="none" stroke="black" stroke-width="2" d="M157.625,-31.6314C172.185,-39.6298 192.515,-50.7971 208.958,-59.8293"/>
<polygon fill="black" stroke="black" stroke-width="2" points="207.668,-63.1137 218.118,-64.8606 211.038,-56.9783 207.668,-63.1137"/>
</g>
<!-- 3 -->
<g id="node4" class="node"><title>3</title>
<ellipse fill="cadetblue" stroke="black" cx="88.4538" cy="-248.334" rx="21.4286" ry="21.4286"/>
<text text-anchor="middle" x="88.4538" y="-243.334" font-family="Times New Roman,serif" font-size="20.00">2</text>
</g>
<!-- 3&#45;&gt;0 -->
<g id="edge1" class="edge"><title>3&#45;&gt;0</title>
<path fill="none" stroke="black" stroke-width="2" d="M108.226,-240.028C129.12,-231.251 162.28,-217.321 186.102,-207.314"/>
<polygon fill="black" stroke="black" stroke-width="2" points="187.497,-210.524 195.361,-203.424 184.786,-204.071 187.497,-210.524"/>
</g>
<!-- 3&#45;&gt;1 -->
<g id="edge6" class="edge"><title>3&#45;&gt;1</title>
<path fill="none" stroke="black" stroke-width="2" d="M71.1377,-235.963C63.7444,-230.681 54.9632,-224.407 46.8423,-218.605"/>
<polygon fill="black" stroke="black" stroke-width="2" points="48.8757,-215.756 38.7043,-212.791 44.8064,-221.452 48.8757,-215.756"/>
</g>
<!-- 4&#45;&gt;0 -->
<g id="edge2" class="edge"><title>4&#45;&gt;0</title>
<path fill="none" stroke="black" stroke-width="2" d="M233.188,-96.137C229.734,-114.939 224.613,-142.818 220.683,-164.211"/>
<polygon fill="black" stroke="black" stroke-width="2" points="217.226,-163.656 218.861,-174.124 224.111,-164.921 217.226,-163.656"/>
</g>
<!-- 5&#45;&gt;1 -->
<g id="edge7" class="edge"><title>5&#45;&gt;1</title>
<path fill="none" stroke="black" stroke-width="2" d="M103.43,-169.492C88.4145,-175.117 67.7099,-182.874 50.835,-189.196"/>
<polygon fill="black" stroke="black" stroke-width="2" points="49.5503,-185.94 41.4139,-192.726 52.0062,-192.495 49.5503,-185.94"/>
</g>
<!-- 5&#45;&gt;2 -->
<g id="edge11" class="edge"><title>5&#45;&gt;2</title>
<path fill="none" stroke="black" stroke-width="2" d="M129.35,-141.461C131.635,-132.356 134.038,-121.456 135.365,-111.477 137.948,-92.0394 138.794,-70.0541 138.983,-52.648"/>
<polygon fill="black" stroke="black" stroke-width="2" points="142.483,-52.4801 139.025,-42.4656 135.483,-52.4509 142.483,-52.4801"/>
</g>
<!-- 6&#45;&gt;3 -->
<g id="edge13" class="edge"><title>6&#45;&gt;3</title>
<path fill="none" stroke="black" stroke-width="2" d="M133.429,-273.834C128.029,-270.772 122.023,-267.367 116.203,-264.067"/>
<polygon fill="black" stroke="black" stroke-width="2" points="117.751,-260.921 107.325,-259.034 114.298,-267.011 117.751,-260.921"/>
</g>
<!-- 6&#45;&gt;5 -->
<g id="edge16" class="edge"><title>6&#45;&gt;5</title>
<path fill="none" stroke="black" stroke-width="2" d="M147.373,-263.691C142.842,-244.232 136.016,-214.916 130.851,-192.737"/>
<polygon fill="black" stroke="black" stroke-width="2" points="134.215,-191.749 128.538,-182.803 127.397,-193.336 134.215,-191.749"/>
</g>
<!-- 7&#45;&gt;2 -->
<g id="edge12" class="edge"><title>7&#45;&gt;2</title>
<path fill="none" stroke="black" stroke-width="2" d="M115.776,-90.9941C119.636,-79.2226 124.555,-64.2238 128.842,-51.1506"/>
<polygon fill="black" stroke="black" stroke-width="2" points="132.178,-52.207 131.969,-41.6142 125.527,-50.0258 132.178,-52.207"/>
</g>
<!-- 7&#45;&gt;3 -->
<g id="edge14" class="edge"><title>7&#45;&gt;3</title>
<path fill="none" stroke="black" stroke-width="2" d="M103.575,-132.411C101.381,-141.403 98.9937,-152.061 97.3687,-161.79 94.348,-179.878 92.1873,-200.274 90.7504,-216.721"/>
<polygon fill="black" stroke="black" stroke-width="2" points="87.2452,-216.64 89.9088,-226.894 94.2214,-217.217 87.2452,-216.64"/>
</g>
<!-- 7&#45;&gt;4 -->
<g id="edge15" class="edge"><title>7&#45;&gt;4</title>
<path fill="none" stroke="black" stroke-width="2" d="M129.62,-105.655C150.422,-99.766 182.817,-90.5942 206.593,-83.8628"/>
<polygon fill="black" stroke="black" stroke-width="2" points="207.849,-87.145 216.517,-81.0532 205.942,-80.4098 207.849,-87.145"/>
</g>
</g>
</svg>

