<?xml version="1.0" encoding="UTF-8" standalone="no"?>
<!DOCTYPE svg PUBLIC "-//W3C//DTD SVG 1.1//EN"
 "http://www.w3.org/Graphics/SVG/1.1/DTD/svg11.dtd">
<!-- Generated by graphviz version 2.36.0 (20140111.2315)
 -->
<!-- Title: G Pages: 1 -->
<svg width="100%" height="100%"
 viewBox="0.00 0.00 242.40 230.05" xmlns="http://www.w3.org/2000/svg" xmlns:xlink="http://www.w3.org/1999/xlink">
<g id="graph0" class="graph" transform="scale(1 1) rotate(0) translate(4 226.046)">
<title>G</title>
<!-- 0 -->
<g id="node1" class="node"><title>0</title>
<ellipse fill="cadetblue" stroke="black" cx="96.737" cy="-21.2132" rx="21.4286" ry="21.4286"/>
<text text-anchor="middle" x="96.737" y="-16.2132" font-family="Times New Roman,serif" font-size="20.00">2</text>
</g>
<!-- 6 -->
<g id="node7" class="node"><title>6</title>
<ellipse fill="cadetblue" stroke="black" cx="88.5013" cy="-101.323" rx="21.4286" ry="21.4286"/>
<text text-anchor="middle" x="88.5013" y="-96.3234" font-family="Times New Roman,serif" font-size="20.00">2</text>
</g>
<!-- 0&#45;&gt;6 -->
<g id="edge3" class="edge"><title>0&#45;&gt;6</title>
<path fill="none" stroke="black" stroke-width="2" d="M94.5299,-42.6813C93.6645,-51.0997 92.6543,-60.9257 91.7111,-70.1009"/>
<polygon fill="black" stroke="black" stroke-width="2" points="88.2269,-69.7683 90.6858,-80.0739 95.1902,-70.4842 88.2269,-69.7683"/>
</g>
<!-- 7 -->
<g id="node8" class="node"><title>7</title>
<ellipse fill="brown" stroke="black" cx="162.155" cy="-59.691" rx="21.4286" ry="21.4286"/>
<text text-anchor="middle" x="162.155" y="-54.691" font-family="Times New Roman,serif" font-size="20.00">3</text>
</g>
<!-- 0&#45;&gt;7 -->
<g id="edge4" class="edge"><title>0&#45;&gt;7</title>
<path fill="none" stroke="black" stroke-width="2" d="M115.308,-32.1365C121.437,-35.7414 128.386,-39.8286 135.02,-43.7305"/>
<polygon fill="black" stroke="black" stroke-width="2" points="133.37,-46.8205 143.764,-48.8736 136.919,-40.7868 133.37,-46.8205"/>
</g>
<!-- 1 -->
<g id="node2" class="node"><title>1</title>
<ellipse fill="cadetblue" stroke="black" cx="21.2132" cy="-186.087" rx="21.4286" ry="21.4286"/>
<text text-anchor="middle" x="21.2132" y="-181.087" font-family="Times New Roman,serif" font-size="20.00">2</text>
</g>
<!-- 1&#45;&gt;6 -->
<g id="edge7" class="edge"><title>1&#45;&gt;6</title>
<path fill="none" stroke="black" stroke-width="2" d="M34.5072,-169.34C44.2762,-157.034 57.7118,-140.109 68.7364,-126.221"/>
<polygon fill="black" stroke="black" stroke-width="2" points="71.7587,-128.043 75.2349,-118.035 66.2762,-123.691 71.7587,-128.043"/>
</g>
<!-- 2 -->
<g id="node3" class="node"><title>2</title>
<ellipse fill="cadetblue" stroke="black" cx="213.19" cy="-173.06" rx="21.4286" ry="21.4286"/>
<text text-anchor="middle" x="213.19" y="-168.06" font-family="Times New Roman,serif" font-size="20.00">2</text>
</g>
<!-- 2&#45;&gt;7 -->
<g id="edge10" class="edge"><title>2&#45;&gt;7</title>
<path fill="none" stroke="black" stroke-width="2" d="M204.417,-153.571C196.347,-135.645 184.277,-108.833 175.1,-88.4466"/>
<polygon fill="black" stroke="black" stroke-width="2" points="178.281,-86.9868 170.985,-79.3049 171.898,-89.8603 178.281,-86.9868"/>
</g>
<!-- 3 -->
<g id="node4" class="node"><title>3</title>
<ellipse fill="cadetblue" stroke="black" cx="38.0698" cy="-101.104" rx="21.4286" ry="21.4286"/>
<text text-anchor="middle" x="38.0698" y="-96.1043" font-family="Times New Roman,serif" font-size="20.00">2</text>
</g>
<!-- 3&#45;&gt;0 -->
<g id="edge1" class="edge"><title>3&#45;&gt;0</title>
<path fill="none" stroke="black" stroke-width="2" d="M50.7997,-83.7691C58.7182,-72.986 69.0436,-58.9252 77.899,-46.8661"/>
<polygon fill="black" stroke="black" stroke-width="2" points="80.934,-48.6464 84.0319,-38.5146 75.2919,-44.5031 80.934,-48.6464"/>
</g>
<!-- 3&#45;&gt;1 -->
<g id="edge5" class="edge"><title>3&#45;&gt;1</title>
<path fill="none" stroke="black" stroke-width="2" d="M33.903,-122.111C31.9377,-132.019 29.553,-144.042 27.3836,-154.979"/>
<polygon fill="black" stroke="black" stroke-width="2" points="23.9031,-154.537 25.3905,-165.027 30.7693,-155.899 23.9031,-154.537"/>
</g>
<!-- 5 -->
<g id="node6" class="node"><title>5</title>
<ellipse fill="cadetblue" stroke="black" cx="112.115" cy="-200.832" rx="21.4286" ry="21.4286"/>
<text text-anchor="middle" x="112.115" y="-195.832" font-family="Times New Roman,serif" font-size="20.00">2</text>
</g>
<!-- 3&#45;&gt;5 -->
<g id="edge11" class="edge"><title>3&#45;&gt;5</title>
<path fill="none" stroke="black" stroke-width="2" d="M50.9675,-118.476C62.6468,-134.206 79.9995,-157.578 93.2389,-175.409"/>
<polygon fill="black" stroke="black" stroke-width="2" points="90.5935,-177.718 99.3649,-183.66 96.2138,-173.545 90.5935,-177.718"/>
</g>
<!-- 4 -->
<g id="node5" class="node"><title>4</title>
<ellipse fill="cadetblue" stroke="black" cx="169.942" cy="-118.384" rx="21.4286" ry="21.4286"/>
<text text-anchor="middle" x="169.942" y="-113.384" font-family="Times New Roman,serif" font-size="20.00">2</text>
</g>
<!-- 4&#45;&gt;0 -->
<g id="edge2" class="edge"><title>4&#45;&gt;0</title>
<path fill="none" stroke="black" stroke-width="2" d="M156.854,-101.011C145.508,-85.95 128.932,-63.9485 116.059,-46.8603"/>
<polygon fill="black" stroke="black" stroke-width="2" points="118.524,-44.316 109.711,-38.4349 112.933,-48.528 118.524,-44.316"/>
</g>
<!-- 4&#45;&gt;2 -->
<g id="edge8" class="edge"><title>4&#45;&gt;2</title>
<path fill="none" stroke="black" stroke-width="2" d="M183.153,-135.086C186.362,-139.143 189.864,-143.57 193.307,-147.923"/>
<polygon fill="black" stroke="black" stroke-width="2" points="190.813,-150.412 199.762,-156.083 196.303,-146.069 190.813,-150.412"/>
</g>
<!-- 4&#45;&gt;5 -->
<g id="edge14" class="edge"><title>4&#45;&gt;5</title>
<path fill="none" stroke="black" stroke-width="2" d="M157.678,-135.869C149.705,-147.237 139.169,-162.259 130.237,-174.994"/>
<polygon fill="black" stroke="black" stroke-width="2" points="127.237,-173.176 124.361,-183.372 132.968,-177.195 127.237,-173.176"/>
</g>
<!-- 5&#45;&gt;1 -->
<g id="edge6" class="edge"><title>5&#45;&gt;1</title>
<path fill="none" stroke="black" stroke-width="2" d="M91.0316,-197.412C79.5587,-195.551 65.1447,-193.213 52.397,-191.145"/>
<polygon fill="black" stroke="black" stroke-width="2" points="52.6134,-187.635 42.182,-189.488 51.4925,-194.544 52.6134,-187.635"/>
</g>
<!-- 5&#45;&gt;2 -->
<g id="edge9" class="edge"><title>5&#45;&gt;2</title>
<path fill="none" stroke="black" stroke-width="2" d="M133.058,-195.078C147.383,-191.142 166.605,-185.86 182.633,-181.456"/>
<polygon fill="black" stroke="black" stroke-width="2" points="183.905,-184.737 192.62,-178.712 182.05,-177.987 183.905,-184.737"/>
</g>
<!-- 6&#45;&gt;3 -->
<g id="edge12" class="edge"><title>6&#45;&gt;3</title>
<path fill="none" stroke="black" stroke-width="2" d="M67.1138,-101.23C66.9527,-101.23 66.7914,-101.229 66.63,-101.228"/>
<polygon fill="black" stroke="black" stroke-width="2" points="69.3446,-97.7403 59.3294,-101.197 69.314,-104.74 69.3446,-97.7403"/>
</g>
<!-- 6&#45;&gt;4 -->
<g id="edge15" class="edge"><title>6&#45;&gt;4</title>
<path fill="none" stroke="black" stroke-width="2" d="M109.474,-105.717C118.499,-107.607 129.231,-109.855 139.131,-111.929"/>
<polygon fill="black" stroke="black" stroke-width="2" points="138.535,-115.38 149.04,-114.005 139.97,-108.529 138.535,-115.38"/>
</g>
<!-- 6&#45;&gt;7 -->
<g id="edge17" class="edge"><title>6&#45;&gt;7</title>
<path fill="none" stroke="black" stroke-width="2" d="M107.087,-90.8178C115.461,-86.0844 125.519,-80.3995 134.734,-75.1906"/>
<polygon fill="black" stroke="black" stroke-width="2" points="136.592,-78.161 143.575,-70.1932 133.147,-72.0671 136.592,-78.161"/>
</g>
<!-- 7&#45;&gt;3 -->
<g id="edge13" class="edge"><title>7&#45;&gt;3</title>
<path fill="none" stroke="black" stroke-width="2" d="M141.943,-66.4369C121.843,-73.1453 90.7786,-83.5128 67.8543,-91.1638"/>
<polygon fill="black" stroke="black" stroke-width="2" points="66.6514,-87.8754 58.2738,-94.3612 68.8675,-94.5153 66.6514,-87.8754"/>
</g>
<!-- 7&#45;&gt;4 -->
<g id="edge16" class="edge"><title>7&#45;&gt;4</title>
<path fill="none" stroke="black" stroke-width="2" d="M164.966,-80.8804C165.228,-82.8505 165.496,-84.8739 165.767,-86.9111"/>
<polygon fill="black" stroke="black" stroke-width="2" points="162.324,-87.5754 167.109,-97.0282 169.263,-86.6547 162.324,-87.5754"/>
</g>
</g>
</svg>

