<?xml version="1.0" encoding="UTF-8" standalone="no"?>
<!DOCTYPE svg PUBLIC "-//W3C//DTD SVG 1.1//EN"
 "http://www.w3.org/Graphics/SVG/1.1/DTD/svg11.dtd">
<!-- Generated by graphviz version 2.36.0 (20140111.2315)
 -->
<!-- Title: G Pages: 1 -->
<svg width="100%" height="100%"
 viewBox="0.00 0.00 267.32 235.85" xmlns="http://www.w3.org/2000/svg" xmlns:xlink="http://www.w3.org/1999/xlink">
<g id="graph0" class="graph" transform="scale(1 1) rotate(0) translate(4 231.845)">
<title>G</title>
<!-- 0 -->
<g id="node1" class="node"><title>0</title>
<ellipse fill="cadetblue" stroke="black" cx="219.65" cy="-189.396" rx="21.4286" ry="21.4286"/>
<text text-anchor="middle" x="219.65" y="-184.396" font-family="Times New Roman,serif" font-size="20.00">2</text>
</g>
<!-- 6 -->
<g id="node7" class="node"><title>6</title>
<ellipse fill="cadetblue" stroke="black" cx="175.077" cy="-110.987" rx="21.4286" ry="21.4286"/>
<text text-anchor="middle" x="175.077" y="-105.987" font-family="Times New Roman,serif" font-size="20.00">2</text>
</g>
<!-- 0&#45;&gt;6 -->
<g id="edge3" class="edge"><title>0&#45;&gt;6</title>
<path fill="none" stroke="black" stroke-width="2" d="M209.087,-170.814C203.591,-161.147 196.766,-149.141 190.676,-138.427"/>
<polygon fill="black" stroke="black" stroke-width="2" points="193.549,-136.399 185.564,-129.435 187.463,-139.858 193.549,-136.399"/>
</g>
<!-- 7 -->
<g id="node8" class="node"><title>7</title>
<ellipse fill="brown" stroke="black" cx="124.645" cy="-128.963" rx="21.4286" ry="21.4286"/>
<text text-anchor="middle" x="124.645" y="-123.963" font-family="Times New Roman,serif" font-size="20.00">3</text>
</g>
<!-- 0&#45;&gt;7 -->
<g id="edge4" class="edge"><title>0&#45;&gt;7</title>
<path fill="none" stroke="black" stroke-width="2" d="M201.332,-177.744C187.179,-168.741 167.382,-156.148 151.448,-146.012"/>
<polygon fill="black" stroke="black" stroke-width="2" points="152.901,-142.788 142.585,-140.374 149.144,-148.695 152.901,-142.788"/>
</g>
<!-- 1 -->
<g id="node2" class="node"><title>1</title>
<ellipse fill="cadetblue" stroke="black" cx="21.2132" cy="-178.88" rx="21.4286" ry="21.4286"/>
<text text-anchor="middle" x="21.2132" y="-173.88" font-family="Times New Roman,serif" font-size="20.00">2</text>
</g>
<!-- 1&#45;&gt;7 -->
<g id="edge7" class="edge"><title>1&#45;&gt;7</title>
<path fill="none" stroke="black" stroke-width="2" d="M40.668,-169.491C56.2707,-161.961 78.3963,-151.283 96.02,-142.778"/>
<polygon fill="black" stroke="black" stroke-width="2" points="97.793,-145.808 105.278,-138.31 94.7505,-139.504 97.793,-145.808"/>
</g>
<!-- 2 -->
<g id="node3" class="node"><title>2</title>
<ellipse fill="cadetblue" stroke="black" cx="141.217" cy="-21.2132" rx="21.4286" ry="21.4286"/>
<text text-anchor="middle" x="141.217" y="-16.2132" font-family="Times New Roman,serif" font-size="20.00">2</text>
</g>
<!-- 4 -->
<g id="node5" class="node"><title>4</title>
<ellipse fill="cadetblue" stroke="black" cx="238.107" cy="-76.3686" rx="21.4286" ry="21.4286"/>
<text text-anchor="middle" x="238.107" y="-71.3686" font-family="Times New Roman,serif" font-size="20.00">2</text>
</g>
<!-- 2&#45;&gt;4 -->
<g id="edge8" class="edge"><title>2&#45;&gt;4</title>
<path fill="none" stroke="black" stroke-width="2" d="M159.898,-31.8477C174.241,-40.0121 194.265,-51.4113 210.461,-60.6311"/>
<polygon fill="black" stroke="black" stroke-width="2" points="209.061,-63.8613 219.483,-65.7668 212.524,-57.7779 209.061,-63.8613"/>
</g>
<!-- 2&#45;&gt;7 -->
<g id="edge11" class="edge"><title>2&#45;&gt;7</title>
<path fill="none" stroke="black" stroke-width="2" d="M137.982,-42.2442C135.542,-58.1151 132.155,-80.1352 129.405,-98.0143"/>
<polygon fill="black" stroke="black" stroke-width="2" points="125.933,-97.569 127.872,-107.985 132.851,-98.6331 125.933,-97.569"/>
</g>
<!-- 3 -->
<g id="node4" class="node"><title>3</title>
<ellipse fill="cadetblue" stroke="black" cx="112.799" cy="-206.632" rx="21.4286" ry="21.4286"/>
<text text-anchor="middle" x="112.799" y="-201.632" font-family="Times New Roman,serif" font-size="20.00">2</text>
</g>
<!-- 3&#45;&gt;0 -->
<g id="edge1" class="edge"><title>3&#45;&gt;0</title>
<path fill="none" stroke="black" stroke-width="2" d="M133.909,-203.226C149.422,-200.724 170.757,-197.282 188.264,-194.458"/>
<polygon fill="black" stroke="black" stroke-width="2" points="189.268,-197.842 198.583,-192.794 188.154,-190.931 189.268,-197.842"/>
</g>
<!-- 3&#45;&gt;1 -->
<g id="edge5" class="edge"><title>3&#45;&gt;1</title>
<path fill="none" stroke="black" stroke-width="2" d="M92.4732,-200.473C80.4627,-196.834 65.0252,-192.156 51.5914,-188.085"/>
<polygon fill="black" stroke="black" stroke-width="2" points="52.3842,-184.668 41.7989,-185.118 50.3543,-191.368 52.3842,-184.668"/>
</g>
<!-- 5 -->
<g id="node6" class="node"><title>5</title>
<ellipse fill="brown" stroke="black" cx="59.1831" cy="-91.5656" rx="21.4286" ry="21.4286"/>
<text text-anchor="middle" x="59.1831" y="-86.5656" font-family="Times New Roman,serif" font-size="20.00">3</text>
</g>
<!-- 3&#45;&gt;5 -->
<g id="edge12" class="edge"><title>3&#45;&gt;5</title>
<path fill="none" stroke="black" stroke-width="2" d="M103.825,-187.372C95.2422,-168.953 82.1961,-140.954 72.4202,-119.974"/>
<polygon fill="black" stroke="black" stroke-width="2" points="75.5826,-118.474 68.1864,-110.888 69.2376,-121.431 75.5826,-118.474"/>
</g>
<!-- 4&#45;&gt;0 -->
<g id="edge2" class="edge"><title>4&#45;&gt;0</title>
<path fill="none" stroke="black" stroke-width="2" d="M234.679,-97.3633C231.886,-114.464 227.902,-138.861 224.738,-158.239"/>
<polygon fill="black" stroke="black" stroke-width="2" points="221.28,-157.696 223.123,-168.13 228.189,-158.825 221.28,-157.696"/>
</g>
<!-- 5&#45;&gt;1 -->
<g id="edge6" class="edge"><title>5&#45;&gt;1</title>
<path fill="none" stroke="black" stroke-width="2" d="M50.5671,-111.379C45.6153,-122.766 39.306,-137.275 33.8066,-149.921"/>
<polygon fill="black" stroke="black" stroke-width="2" points="30.5733,-148.579 29.7951,-159.146 36.9926,-151.371 30.5733,-148.579"/>
</g>
<!-- 5&#45;&gt;2 -->
<g id="edge9" class="edge"><title>5&#45;&gt;2</title>
<path fill="none" stroke="black" stroke-width="2" d="M75.3903,-77.6662C87.3001,-67.4523 103.68,-53.4049 117.121,-41.8781"/>
<polygon fill="black" stroke="black" stroke-width="2" points="119.731,-44.2505 125.043,-35.0837 115.174,-38.9368 119.731,-44.2505"/>
</g>
<!-- 6&#45;&gt;2 -->
<g id="edge10" class="edge"><title>6&#45;&gt;2</title>
<path fill="none" stroke="black" stroke-width="2" d="M167.562,-91.0631C163.091,-79.208 157.335,-63.9465 152.344,-50.7143"/>
<polygon fill="black" stroke="black" stroke-width="2" points="155.514,-49.2026 148.711,-41.0812 148.965,-51.673 155.514,-49.2026"/>
</g>
<!-- 6&#45;&gt;3 -->
<g id="edge13" class="edge"><title>6&#45;&gt;3</title>
<path fill="none" stroke="black" stroke-width="2" d="M163.363,-128.977C153.968,-143.405 140.646,-163.865 130.035,-180.162"/>
<polygon fill="black" stroke="black" stroke-width="2" points="126.984,-178.432 124.46,-188.722 132.85,-182.252 126.984,-178.432"/>
</g>
<!-- 6&#45;&gt;5 -->
<g id="edge16" class="edge"><title>6&#45;&gt;5</title>
<path fill="none" stroke="black" stroke-width="2" d="M154.089,-107.47C136.314,-104.491 110.576,-100.178 90.3867,-96.7946"/>
<polygon fill="black" stroke="black" stroke-width="2" points="90.847,-93.323 80.406,-95.1221 89.69,-100.227 90.847,-93.323"/>
</g>
<!-- 7&#45;&gt;3 -->
<g id="edge14" class="edge"><title>7&#45;&gt;3</title>
<path fill="none" stroke="black" stroke-width="2" d="M121.408,-150.186C120.22,-157.978 118.849,-166.969 117.555,-175.452"/>
<polygon fill="black" stroke="black" stroke-width="2" points="114.08,-175.021 116.032,-185.434 121,-176.076 114.08,-175.021"/>
</g>
<!-- 7&#45;&gt;4 -->
<g id="edge15" class="edge"><title>7&#45;&gt;4</title>
<path fill="none" stroke="black" stroke-width="2" d="M137.169,-111.359C142.54,-104.745 149.248,-97.5747 156.499,-92.3646 170.926,-81.9983 190.338,-77.9017 206.61,-76.4426"/>
<polygon fill="black" stroke="black" stroke-width="2" points="206.996,-79.9256 216.765,-75.8252 206.571,-72.9385 206.996,-79.9256"/>
</g>
<!-- 7&#45;&gt;5 -->
<g id="edge17" class="edge"><title>7&#45;&gt;5</title>
<path fill="none" stroke="black" stroke-width="2" d="M106.062,-118.346C100.17,-114.98 93.5201,-111.182 87.1206,-107.526"/>
<polygon fill="black" stroke="black" stroke-width="2" points="88.4598,-104.26 78.0406,-102.339 84.9875,-110.338 88.4598,-104.26"/>
</g>
<!-- 7&#45;&gt;6 -->
<g id="edge18" class="edge"><title>7&#45;&gt;6</title>
<path fill="none" stroke="black" stroke-width="2" d="M144.867,-121.755C144.97,-121.718 145.073,-121.682 145.176,-121.645"/>
<polygon fill="black" stroke="black" stroke-width="2" points="146.606,-124.851 154.85,-118.196 144.256,-118.257 146.606,-124.851"/>
</g>
</g>
</svg>

