<?xml version="1.0" encoding="UTF-8" standalone="no"?>
<!DOCTYPE svg PUBLIC "-//W3C//DTD SVG 1.1//EN"
 "http://www.w3.org/Graphics/SVG/1.1/DTD/svg11.dtd">
<!-- Generated by graphviz version 2.36.0 (20140111.2315)
 -->
<!-- Title: G Pages: 1 -->
<svg width="100%" height="100%"
 viewBox="0.00 0.00 272.19 285.41" xmlns="http://www.w3.org/2000/svg" xmlns:xlink="http://www.w3.org/1999/xlink">
<g id="graph0" class="graph" transform="scale(1 1) rotate(0) translate(4 281.405)">
<title>G</title>
<!-- 0 -->
<g id="node1" class="node"><title>0</title>
<ellipse fill="cadetblue" stroke="black" cx="105.771" cy="-234.675" rx="21.4286" ry="21.4286"/>
<text text-anchor="middle" x="105.771" y="-229.675" font-family="Times New Roman,serif" font-size="20.00">2</text>
</g>
<!-- 5 -->
<g id="node6" class="node"><title>5</title>
<ellipse fill="cadetblue" stroke="black" cx="21.2132" cy="-256.192" rx="21.4286" ry="21.4286"/>
<text text-anchor="middle" x="21.2132" y="-251.192" font-family="Times New Roman,serif" font-size="20.00">2</text>
</g>
<!-- 0&#45;&gt;5 -->
<g id="edge3" class="edge"><title>0&#45;&gt;5</title>
<path fill="none" stroke="black" stroke-width="2" d="M84.8688,-239.994C74.8339,-242.547 62.6187,-245.656 51.5823,-248.464"/>
<polygon fill="black" stroke="black" stroke-width="2" points="50.7026,-245.076 41.8746,-250.934 52.4289,-251.86 50.7026,-245.076"/>
</g>
<!-- 7 -->
<g id="node8" class="node"><title>7</title>
<ellipse fill="brown" stroke="black" cx="134.416" cy="-133.689" rx="21.4286" ry="21.4286"/>
<text text-anchor="middle" x="134.416" y="-128.689" font-family="Times New Roman,serif" font-size="20.00">3</text>
</g>
<!-- 0&#45;&gt;7 -->
<g id="edge4" class="edge"><title>0&#45;&gt;7</title>
<path fill="none" stroke="black" stroke-width="2" d="M111.567,-214.239C115.617,-199.961 121.097,-180.642 125.675,-164.503"/>
<polygon fill="black" stroke="black" stroke-width="2" points="129.167,-165.017 128.529,-154.441 122.433,-163.107 129.167,-165.017"/>
</g>
<!-- 1 -->
<g id="node2" class="node"><title>1</title>
<ellipse fill="cadetblue" stroke="black" cx="85.6582" cy="-21.2132" rx="21.4286" ry="21.4286"/>
<text text-anchor="middle" x="85.6582" y="-16.2132" font-family="Times New Roman,serif" font-size="20.00">2</text>
</g>
<!-- 1&#45;&gt;7 -->
<g id="edge7" class="edge"><title>1&#45;&gt;7</title>
<path fill="none" stroke="black" stroke-width="2" d="M94.1511,-40.805C101.795,-58.4379 113.129,-84.5841 121.826,-104.648"/>
<polygon fill="black" stroke="black" stroke-width="2" points="118.668,-106.161 125.856,-113.944 125.09,-103.377 118.668,-106.161"/>
</g>
<!-- 2 -->
<g id="node3" class="node"><title>2</title>
<ellipse fill="cadetblue" stroke="black" cx="173.919" cy="-238.213" rx="21.4286" ry="21.4286"/>
<text text-anchor="middle" x="173.919" y="-233.213" font-family="Times New Roman,serif" font-size="20.00">2</text>
</g>
<!-- 6 -->
<g id="node7" class="node"><title>6</title>
<ellipse fill="cadetblue" stroke="black" cx="184.847" cy="-83.3048" rx="21.4286" ry="21.4286"/>
<text text-anchor="middle" x="184.847" y="-78.3048" font-family="Times New Roman,serif" font-size="20.00">2</text>
</g>
<!-- 2&#45;&gt;6 -->
<g id="edge10" class="edge"><title>2&#45;&gt;6</title>
<path fill="none" stroke="black" stroke-width="2" d="M175.416,-216.999C177.277,-190.611 180.472,-145.328 182.621,-114.863"/>
<polygon fill="black" stroke="black" stroke-width="2" points="186.121,-114.982 183.334,-104.76 179.138,-114.489 186.121,-114.982"/>
</g>
<!-- 2&#45;&gt;7 -->
<g id="edge11" class="edge"><title>2&#45;&gt;7</title>
<path fill="none" stroke="black" stroke-width="2" d="M166.303,-218.06C160.455,-202.588 152.291,-180.985 145.687,-163.513"/>
<polygon fill="black" stroke="black" stroke-width="2" points="148.818,-161.897 142.009,-153.78 142.27,-164.372 148.818,-161.897"/>
</g>
<!-- 3 -->
<g id="node4" class="node"><title>3</title>
<ellipse fill="cadetblue" stroke="black" cx="38.3346" cy="-127.123" rx="21.4286" ry="21.4286"/>
<text text-anchor="middle" x="38.3346" y="-122.123" font-family="Times New Roman,serif" font-size="20.00">2</text>
</g>
<!-- 3&#45;&gt;0 -->
<g id="edge1" class="edge"><title>3&#45;&gt;0</title>
<path fill="none" stroke="black" stroke-width="2" d="M49.7742,-145.368C60.5444,-162.545 76.8035,-188.476 89.0315,-207.978"/>
<polygon fill="black" stroke="black" stroke-width="2" points="86.2224,-210.087 94.5,-216.7 92.1531,-206.368 86.2224,-210.087"/>
</g>
<!-- 3&#45;&gt;1 -->
<g id="edge5" class="edge"><title>3&#45;&gt;1</title>
<path fill="none" stroke="black" stroke-width="2" d="M47.0145,-107.698C54.2071,-91.6007 64.5373,-68.4816 72.7078,-50.1961"/>
<polygon fill="black" stroke="black" stroke-width="2" points="75.989,-51.4322 76.8731,-40.8743 69.5979,-48.5764 75.989,-51.4322"/>
</g>
<!-- 3&#45;&gt;5 -->
<g id="edge12" class="edge"><title>3&#45;&gt;5</title>
<path fill="none" stroke="black" stroke-width="2" d="M35.5074,-148.436C32.744,-169.268 28.5054,-201.22 25.3606,-224.927"/>
<polygon fill="black" stroke="black" stroke-width="2" points="21.8902,-224.474 24.0447,-234.847 28.8294,-225.394 21.8902,-224.474"/>
</g>
<!-- 4 -->
<g id="node5" class="node"><title>4</title>
<ellipse fill="cadetblue" stroke="black" cx="242.976" cy="-180.52" rx="21.4286" ry="21.4286"/>
<text text-anchor="middle" x="242.976" y="-175.52" font-family="Times New Roman,serif" font-size="20.00">2</text>
</g>
<!-- 4&#45;&gt;0 -->
<g id="edge2" class="edge"><title>4&#45;&gt;0</title>
<path fill="none" stroke="black" stroke-width="2" d="M223.025,-188.395C199.959,-197.499 161.774,-212.571 135.274,-223.03"/>
<polygon fill="black" stroke="black" stroke-width="2" points="133.762,-219.864 125.746,-226.791 136.332,-226.375 133.762,-219.864"/>
</g>
<!-- 4&#45;&gt;2 -->
<g id="edge8" class="edge"><title>4&#45;&gt;2</title>
<path fill="none" stroke="black" stroke-width="2" d="M226.611,-194.193C218.22,-201.203 207.829,-209.884 198.497,-217.68"/>
<polygon fill="black" stroke="black" stroke-width="2" points="196.077,-215.141 190.647,-224.238 200.565,-220.513 196.077,-215.141"/>
</g>
<!-- 5&#45;&gt;2 -->
<g id="edge9" class="edge"><title>5&#45;&gt;2</title>
<path fill="none" stroke="black" stroke-width="2" d="M42.4896,-259.613C59.6351,-261.838 84.3289,-263.842 105.747,-260.979 118.984,-259.21 133.07,-254.941 144.98,-250.571"/>
<polygon fill="black" stroke="black" stroke-width="2" points="146.339,-253.798 154.406,-246.93 143.817,-247.268 146.339,-253.798"/>
</g>
<!-- 6&#45;&gt;1 -->
<g id="edge6" class="edge"><title>6&#45;&gt;1</title>
<path fill="none" stroke="black" stroke-width="2" d="M166.654,-71.9163C151.414,-62.3759 129.453,-48.6284 112.242,-37.8545"/>
<polygon fill="black" stroke="black" stroke-width="2" points="114.069,-34.869 103.736,-32.5296 110.355,-40.8023 114.069,-34.869"/>
</g>
<!-- 6&#45;&gt;3 -->
<g id="edge13" class="edge"><title>6&#45;&gt;3</title>
<path fill="none" stroke="black" stroke-width="2" d="M164.475,-89.3976C139.685,-96.8117 97.5945,-109.4 68.9103,-117.979"/>
<polygon fill="black" stroke="black" stroke-width="2" points="67.5836,-114.722 59.0058,-120.941 69.5894,-121.429 67.5836,-114.722"/>
</g>
<!-- 6&#45;&gt;4 -->
<g id="edge15" class="edge"><title>6&#45;&gt;4</title>
<path fill="none" stroke="black" stroke-width="2" d="M195.781,-101.59C204.494,-116.162 216.827,-136.788 226.7,-153.301"/>
<polygon fill="black" stroke="black" stroke-width="2" points="223.758,-155.2 231.894,-161.986 229.766,-151.607 223.758,-155.2"/>
</g>
<!-- 7&#45;&gt;3 -->
<g id="edge14" class="edge"><title>7&#45;&gt;3</title>
<path fill="none" stroke="black" stroke-width="2" d="M113.092,-132.232C100.404,-131.365 84.0703,-130.249 69.9084,-129.281"/>
<polygon fill="black" stroke="black" stroke-width="2" points="69.8139,-125.766 59.5985,-128.576 69.3366,-132.75 69.8139,-125.766"/>
</g>
<!-- 7&#45;&gt;4 -->
<g id="edge16" class="edge"><title>7&#45;&gt;4</title>
<path fill="none" stroke="black" stroke-width="2" d="M154.075,-142.17C170.829,-149.397 195.136,-159.883 214.101,-168.064"/>
<polygon fill="black" stroke="black" stroke-width="2" points="212.894,-171.355 223.463,-172.103 215.667,-164.928 212.894,-171.355"/>
</g>
<!-- 7&#45;&gt;6 -->
<g id="edge17" class="edge"><title>7&#45;&gt;6</title>
<path fill="none" stroke="black" stroke-width="2" d="M149.547,-118.572C153.636,-114.487 158.148,-109.978 162.542,-105.589"/>
<polygon fill="black" stroke="black" stroke-width="2" points="165.126,-107.955 169.727,-98.4111 160.178,-103.003 165.126,-107.955"/>
</g>
</g>
</svg>

