<?xml version="1.0" encoding="UTF-8" standalone="no"?>
<!DOCTYPE svg PUBLIC "-//W3C//DTD SVG 1.1//EN"
 "http://www.w3.org/Graphics/SVG/1.1/DTD/svg11.dtd">
<!-- Generated by graphviz version 2.36.0 (20140111.2315)
 -->
<!-- Title: G Pages: 1 -->
<svg width="100%" height="100%"
 viewBox="0.00 0.00 275.98 314.01" xmlns="http://www.w3.org/2000/svg" xmlns:xlink="http://www.w3.org/1999/xlink">
<g id="graph0" class="graph" transform="scale(1 1) rotate(0) translate(4 310.008)">
<title>G</title>
<!-- 0 -->
<g id="node1" class="node"><title>0</title>
<ellipse fill="cadetblue" stroke="black" cx="120.27" cy="-181.362" rx="21.4286" ry="21.4286"/>
<text text-anchor="middle" x="120.27" y="-176.362" font-family="Times New Roman,serif" font-size="20.00">2</text>
</g>
<!-- 5 -->
<g id="node6" class="node"><title>5</title>
<ellipse fill="cadetblue" stroke="black" cx="39.621" cy="-90.5701" rx="21.4286" ry="21.4286"/>
<text text-anchor="middle" x="39.621" y="-85.5701" font-family="Times New Roman,serif" font-size="20.00">2</text>
</g>
<!-- 0&#45;&gt;5 -->
<g id="edge3" class="edge"><title>0&#45;&gt;5</title>
<path fill="none" stroke="black" stroke-width="2" d="M105.851,-165.13C93.3507,-151.057 75.09,-130.5 60.9073,-114.534"/>
<polygon fill="black" stroke="black" stroke-width="2" points="63.1724,-111.813 53.9145,-106.661 57.9389,-116.462 63.1724,-111.813"/>
</g>
<!-- 6 -->
<g id="node7" class="node"><title>6</title>
<ellipse fill="cadetblue" stroke="black" cx="191.355" cy="-242.281" rx="21.4286" ry="21.4286"/>
<text text-anchor="middle" x="191.355" y="-237.281" font-family="Times New Roman,serif" font-size="20.00">2</text>
</g>
<!-- 0&#45;&gt;6 -->
<g id="edge4" class="edge"><title>0&#45;&gt;6</title>
<path fill="none" stroke="black" stroke-width="2" d="M136.4,-195.185C145.45,-202.941 156.923,-212.773 167.042,-221.445"/>
<polygon fill="black" stroke="black" stroke-width="2" points="164.924,-224.24 174.795,-228.09 169.48,-218.925 164.924,-224.24"/>
</g>
<!-- 1 -->
<g id="node2" class="node"><title>1</title>
<ellipse fill="cadetblue" stroke="black" cx="21.2132" cy="-227.158" rx="21.4286" ry="21.4286"/>
<text text-anchor="middle" x="21.2132" y="-222.158" font-family="Times New Roman,serif" font-size="20.00">2</text>
</g>
<!-- 1&#45;&gt;6 -->
<g id="edge7" class="edge"><title>1&#45;&gt;6</title>
<path fill="none" stroke="black" stroke-width="2" d="M42.4178,-229.043C71.9178,-231.665 125.564,-236.433 159.78,-239.475"/>
<polygon fill="black" stroke="black" stroke-width="2" points="159.88,-242.997 170.151,-240.397 160.5,-236.025 159.88,-242.997"/>
</g>
<!-- 2 -->
<g id="node3" class="node"><title>2</title>
<ellipse fill="cadetblue" stroke="black" cx="155.558" cy="-21.2132" rx="21.4286" ry="21.4286"/>
<text text-anchor="middle" x="155.558" y="-16.2132" font-family="Times New Roman,serif" font-size="20.00">2</text>
</g>
<!-- 7 -->
<g id="node8" class="node"><title>7</title>
<ellipse fill="cadetblue" stroke="black" cx="153.409" cy="-130.93" rx="21.4286" ry="21.4286"/>
<text text-anchor="middle" x="153.409" y="-125.93" font-family="Times New Roman,serif" font-size="20.00">2</text>
</g>
<!-- 2&#45;&gt;7 -->
<g id="edge10" class="edge"><title>2&#45;&gt;7</title>
<path fill="none" stroke="black" stroke-width="2" d="M155.138,-42.6282C154.822,-58.7889 154.382,-81.2112 154.026,-99.4167"/>
<polygon fill="black" stroke="black" stroke-width="2" points="150.524,-99.5027 153.827,-109.569 157.522,-99.6398 150.524,-99.5027"/>
</g>
<!-- 3 -->
<g id="node4" class="node"><title>3</title>
<ellipse fill="cadetblue" stroke="black" cx="107.608" cy="-284.794" rx="21.4286" ry="21.4286"/>
<text text-anchor="middle" x="107.608" y="-279.794" font-family="Times New Roman,serif" font-size="20.00">2</text>
</g>
<!-- 3&#45;&gt;0 -->
<g id="edge1" class="edge"><title>3&#45;&gt;0</title>
<path fill="none" stroke="black" stroke-width="2" d="M110.201,-263.614C111.993,-248.972 114.408,-229.243 116.424,-212.777"/>
<polygon fill="black" stroke="black" stroke-width="2" points="119.939,-212.865 117.68,-202.514 112.991,-212.015 119.939,-212.865"/>
</g>
<!-- 3&#45;&gt;1 -->
<g id="edge5" class="edge"><title>3&#45;&gt;1</title>
<path fill="none" stroke="black" stroke-width="2" d="M89.7066,-272.852C77.5435,-264.738 61.2491,-253.867 47.6048,-244.765"/>
<polygon fill="black" stroke="black" stroke-width="2" points="49.3524,-241.723 39.0912,-239.085 45.4676,-247.546 49.3524,-241.723"/>
</g>
<!-- 4 -->
<g id="node5" class="node"><title>4</title>
<ellipse fill="cadetblue" stroke="black" cx="246.77" cy="-124.563" rx="21.4286" ry="21.4286"/>
<text text-anchor="middle" x="246.77" y="-119.563" font-family="Times New Roman,serif" font-size="20.00">2</text>
</g>
<!-- 4&#45;&gt;0 -->
<g id="edge2" class="edge"><title>4&#45;&gt;0</title>
<path fill="none" stroke="black" stroke-width="2" d="M227.281,-133.313C206.449,-142.667 173.194,-157.598 149.283,-168.335"/>
<polygon fill="black" stroke="black" stroke-width="2" points="147.678,-165.219 139.989,-172.508 150.545,-171.605 147.678,-165.219"/>
</g>
<!-- 4&#45;&gt;2 -->
<g id="edge8" class="edge"><title>4&#45;&gt;2</title>
<path fill="none" stroke="black" stroke-width="2" d="M232.518,-108.414C217.457,-91.3495 193.555,-64.2664 176.383,-44.8098"/>
<polygon fill="black" stroke="black" stroke-width="2" points="178.951,-42.4298 169.709,-37.2482 173.702,-47.0618 178.951,-42.4298"/>
</g>
<!-- 5&#45;&gt;1 -->
<g id="edge6" class="edge"><title>5&#45;&gt;1</title>
<path fill="none" stroke="black" stroke-width="2" d="M36.7851,-111.613C33.7537,-134.106 28.9146,-170.013 25.4351,-195.831"/>
<polygon fill="black" stroke="black" stroke-width="2" points="21.9497,-195.489 24.0826,-205.867 28.887,-196.424 21.9497,-195.489"/>
</g>
<!-- 5&#45;&gt;2 -->
<g id="edge9" class="edge"><title>5&#45;&gt;2</title>
<path fill="none" stroke="black" stroke-width="2" d="M57.9915,-79.5803C76.9867,-68.2167 106.848,-50.3527 128.535,-37.3791"/>
<polygon fill="black" stroke="black" stroke-width="2" points="130.488,-40.289 137.273,-32.1516 126.895,-34.2819 130.488,-40.289"/>
</g>
<!-- 6&#45;&gt;3 -->
<g id="edge11" class="edge"><title>6&#45;&gt;3</title>
<path fill="none" stroke="black" stroke-width="2" d="M172.351,-251.928C161.537,-257.418 147.786,-264.398 135.741,-270.513"/>
<polygon fill="black" stroke="black" stroke-width="2" points="133.869,-267.538 126.536,-275.186 137.037,-273.78 133.869,-267.538"/>
</g>
<!-- 6&#45;&gt;4 -->
<g id="edge13" class="edge"><title>6&#45;&gt;4</title>
<path fill="none" stroke="black" stroke-width="2" d="M200.506,-222.842C209.449,-203.843 223.168,-174.701 233.346,-153.078"/>
<polygon fill="black" stroke="black" stroke-width="2" points="236.513,-154.569 237.606,-144.03 230.18,-151.587 236.513,-154.569"/>
</g>
<!-- 6&#45;&gt;7 -->
<g id="edge16" class="edge"><title>6&#45;&gt;7</title>
<path fill="none" stroke="black" stroke-width="2" d="M184.483,-222.116C178.663,-205.038 170.236,-180.309 163.625,-160.911"/>
<polygon fill="black" stroke="black" stroke-width="2" points="166.896,-159.658 160.358,-151.321 160.27,-161.916 166.896,-159.658"/>
</g>
<!-- 7&#45;&gt;3 -->
<g id="edge12" class="edge"><title>7&#45;&gt;3</title>
<path fill="none" stroke="black" stroke-width="2" d="M151.6,-152.246C150.553,-161.317 148.956,-171.959 146.574,-181.386 140.031,-207.281 129.08,-235.594 120.451,-256.037"/>
<polygon fill="black" stroke="black" stroke-width="2" points="117.162,-254.825 116.431,-265.395 123.594,-257.588 117.162,-254.825"/>
</g>
<!-- 7&#45;&gt;4 -->
<g id="edge14" class="edge"><title>7&#45;&gt;4</title>
<path fill="none" stroke="black" stroke-width="2" d="M174.594,-129.485C186.565,-128.669 201.763,-127.632 215.123,-126.721"/>
<polygon fill="black" stroke="black" stroke-width="2" points="215.607,-130.196 225.345,-126.024 215.13,-123.213 215.607,-130.196"/>
</g>
<!-- 7&#45;&gt;5 -->
<g id="edge15" class="edge"><title>7&#45;&gt;5</title>
<path fill="none" stroke="black" stroke-width="2" d="M133.328,-123.808C115.644,-117.535 89.6445,-108.313 69.5154,-101.174"/>
<polygon fill="black" stroke="black" stroke-width="2" points="70.4788,-97.8017 59.884,-97.7573 68.1387,-104.399 70.4788,-97.8017"/>
</g>
</g>
</svg>

