<?xml version="1.0" encoding="UTF-8" standalone="no"?>
<!DOCTYPE svg PUBLIC "-//W3C//DTD SVG 1.1//EN"
 "http://www.w3.org/Graphics/SVG/1.1/DTD/svg11.dtd">
<!-- Generated by graphviz version 2.36.0 (20140111.2315)
 -->
<!-- Title: G Pages: 1 -->
<svg width="100%" height="100%"
 viewBox="0.00 0.00 230.59 209.16" xmlns="http://www.w3.org/2000/svg" xmlns:xlink="http://www.w3.org/1999/xlink">
<g id="graph0" class="graph" transform="scale(1 1) rotate(0) translate(4 205.164)">
<title>G</title>
<!-- 0 -->
<g id="node1" class="node"><title>0</title>
<ellipse fill="cadetblue" stroke="black" cx="201.377" cy="-156.107" rx="21.4286" ry="21.4286"/>
<text text-anchor="middle" x="201.377" y="-151.107" font-family="Times New Roman,serif" font-size="20.00">2</text>
</g>
<!-- 6 -->
<g id="node7" class="node"><title>6</title>
<ellipse fill="cadetblue" stroke="black" cx="136.762" cy="-115.89" rx="21.4286" ry="21.4286"/>
<text text-anchor="middle" x="136.762" y="-110.89" font-family="Times New Roman,serif" font-size="20.00">2</text>
</g>
<!-- 0&#45;&gt;6 -->
<g id="edge3" class="edge"><title>0&#45;&gt;6</title>
<path fill="none" stroke="black" stroke-width="2" d="M183.034,-144.69C176.98,-140.922 170.116,-136.65 163.564,-132.572"/>
<polygon fill="black" stroke="black" stroke-width="2" points="165.267,-129.509 154.927,-127.196 161.568,-135.452 165.267,-129.509"/>
</g>
<!-- 1 -->
<g id="node2" class="node"><title>1</title>
<ellipse fill="cadetblue" stroke="black" cx="41.3159" cy="-137.63" rx="21.4286" ry="21.4286"/>
<text text-anchor="middle" x="41.3159" y="-132.63" font-family="Times New Roman,serif" font-size="20.00">2</text>
</g>
<!-- 1&#45;&gt;6 -->
<g id="edge6" class="edge"><title>1&#45;&gt;6</title>
<path fill="none" stroke="black" stroke-width="2" d="M62.0263,-132.913C74.8207,-129.998 91.4775,-126.205 105.818,-122.938"/>
<polygon fill="black" stroke="black" stroke-width="2" points="106.789,-126.307 115.762,-120.673 105.235,-119.481 106.789,-126.307"/>
</g>
<!-- 7 -->
<g id="node8" class="node"><title>7</title>
<ellipse fill="cadetblue" stroke="black" cx="86.3305" cy="-85.1276" rx="21.4286" ry="21.4286"/>
<text text-anchor="middle" x="86.3305" y="-80.1276" font-family="Times New Roman,serif" font-size="20.00">2</text>
</g>
<!-- 1&#45;&gt;7 -->
<g id="edge7" class="edge"><title>1&#45;&gt;7</title>
<path fill="none" stroke="black" stroke-width="2" d="M55.312,-121.306C58.6462,-117.417 62.2726,-113.187 65.8315,-109.036"/>
<polygon fill="black" stroke="black" stroke-width="2" points="68.6457,-111.131 72.4976,-101.261 63.3315,-106.575 68.6457,-111.131"/>
</g>
<!-- 2 -->
<g id="node3" class="node"><title>2</title>
<ellipse fill="cadetblue" stroke="black" cx="112.191" cy="-21.2132" rx="21.4286" ry="21.4286"/>
<text text-anchor="middle" x="112.191" y="-16.2132" font-family="Times New Roman,serif" font-size="20.00">2</text>
</g>
<!-- 5 -->
<g id="node6" class="node"><title>5</title>
<ellipse fill="cadetblue" stroke="black" cx="21.2132" cy="-45.9428" rx="21.4286" ry="21.4286"/>
<text text-anchor="middle" x="21.2132" y="-40.9428" font-family="Times New Roman,serif" font-size="20.00">2</text>
</g>
<!-- 2&#45;&gt;5 -->
<g id="edge9" class="edge"><title>2&#45;&gt;5</title>
<path fill="none" stroke="black" stroke-width="2" d="M91.5465,-26.8247C79.7982,-30.0182 64.8604,-34.0786 51.7757,-37.6352"/>
<polygon fill="black" stroke="black" stroke-width="2" points="50.5075,-34.3529 41.7757,-40.3534 52.3437,-41.1078 50.5075,-34.3529"/>
</g>
<!-- 2&#45;&gt;7 -->
<g id="edge11" class="edge"><title>2&#45;&gt;7</title>
<path fill="none" stroke="black" stroke-width="2" d="M104.15,-41.0858C102.271,-45.7305 100.23,-50.7747 98.2226,-55.7358"/>
<polygon fill="black" stroke="black" stroke-width="2" points="94.9615,-54.4644 94.4552,-65.0472 101.45,-57.09 94.9615,-54.4644"/>
</g>
<!-- 3 -->
<g id="node4" class="node"><title>3</title>
<ellipse fill="cadetblue" stroke="black" cx="110.72" cy="-179.951" rx="21.4286" ry="21.4286"/>
<text text-anchor="middle" x="110.72" y="-174.951" font-family="Times New Roman,serif" font-size="20.00">2</text>
</g>
<!-- 3&#45;&gt;0 -->
<g id="edge1" class="edge"><title>3&#45;&gt;0</title>
<path fill="none" stroke="black" stroke-width="2" d="M131.292,-174.54C142.916,-171.483 157.674,-167.601 170.646,-164.189"/>
<polygon fill="black" stroke="black" stroke-width="2" points="171.792,-167.507 180.573,-161.578 170.012,-160.737 171.792,-167.507"/>
</g>
<!-- 3&#45;&gt;1 -->
<g id="edge4" class="edge"><title>3&#45;&gt;1</title>
<path fill="none" stroke="black" stroke-width="2" d="M92.4852,-168.832C85.1316,-164.348 76.4938,-159.08 68.4306,-154.164"/>
<polygon fill="black" stroke="black" stroke-width="2" points="70.0304,-151.04 59.6703,-148.822 66.386,-157.016 70.0304,-151.04"/>
</g>
<!-- 4 -->
<g id="node5" class="node"><title>4</title>
<ellipse fill="cadetblue" stroke="black" cx="181.918" cy="-63.9097" rx="21.4286" ry="21.4286"/>
<text text-anchor="middle" x="181.918" y="-58.9097" font-family="Times New Roman,serif" font-size="20.00">2</text>
</g>
<!-- 4&#45;&gt;0 -->
<g id="edge2" class="edge"><title>4&#45;&gt;0</title>
<path fill="none" stroke="black" stroke-width="2" d="M186.333,-84.8306C188.846,-96.7365 192.041,-111.874 194.84,-125.134"/>
<polygon fill="black" stroke="black" stroke-width="2" points="191.489,-126.207 196.979,-135.269 198.338,-124.761 191.489,-126.207"/>
</g>
<!-- 4&#45;&gt;2 -->
<g id="edge8" class="edge"><title>4&#45;&gt;2</title>
<path fill="none" stroke="black" stroke-width="2" d="M163.598,-52.6917C156.131,-48.1193 147.345,-42.7397 139.17,-37.7339"/>
<polygon fill="black" stroke="black" stroke-width="2" points="140.986,-34.7418 130.63,-32.5045 137.331,-40.7115 140.986,-34.7418"/>
</g>
<!-- 5&#45;&gt;1 -->
<g id="edge5" class="edge"><title>5&#45;&gt;1</title>
<path fill="none" stroke="black" stroke-width="2" d="M25.7748,-66.748C28.3708,-78.5879 31.6715,-93.6422 34.5627,-106.829"/>
<polygon fill="black" stroke="black" stroke-width="2" points="31.2118,-107.889 36.7723,-116.907 38.0494,-106.389 31.2118,-107.889"/>
</g>
<!-- 6&#45;&gt;2 -->
<g id="edge10" class="edge"><title>6&#45;&gt;2</title>
<path fill="none" stroke="black" stroke-width="2" d="M131.43,-95.3467C128.137,-82.6553 123.849,-66.1328 120.157,-51.9078"/>
<polygon fill="black" stroke="black" stroke-width="2" points="123.497,-50.8436 117.597,-42.0435 116.721,-52.6021 123.497,-50.8436"/>
</g>
<!-- 6&#45;&gt;3 -->
<g id="edge12" class="edge"><title>6&#45;&gt;3</title>
<path fill="none" stroke="black" stroke-width="2" d="M128.665,-135.808C126.736,-140.553 124.638,-145.714 122.579,-150.779"/>
<polygon fill="black" stroke="black" stroke-width="2" points="119.246,-149.683 118.723,-160.265 125.731,-152.32 119.246,-149.683"/>
</g>
<!-- 6&#45;&gt;4 -->
<g id="edge14" class="edge"><title>6&#45;&gt;4</title>
<path fill="none" stroke="black" stroke-width="2" d="M150.802,-99.7281C154.084,-95.9506 157.647,-91.8483 161.152,-87.8135"/>
<polygon fill="black" stroke="black" stroke-width="2" points="163.815,-90.0854 167.731,-80.2407 158.531,-85.4947 163.815,-90.0854"/>
</g>
<!-- 7&#45;&gt;3 -->
<g id="edge13" class="edge"><title>7&#45;&gt;3</title>
<path fill="none" stroke="black" stroke-width="2" d="M91.6228,-105.703C94.8922,-118.414 99.1486,-134.962 102.813,-149.209"/>
<polygon fill="black" stroke="black" stroke-width="2" points="99.4735,-150.276 105.354,-159.089 106.253,-148.532 99.4735,-150.276"/>
</g>
<!-- 7&#45;&gt;4 -->
<g id="edge15" class="edge"><title>7&#45;&gt;4</title>
<path fill="none" stroke="black" stroke-width="2" d="M107.072,-80.5236C119.885,-77.6794 136.566,-73.9765 150.928,-70.7886"/>
<polygon fill="black" stroke="black" stroke-width="2" points="151.883,-74.1618 160.887,-68.5779 150.366,-67.3282 151.883,-74.1618"/>
</g>
<!-- 7&#45;&gt;5 -->
<g id="edge16" class="edge"><title>7&#45;&gt;5</title>
<path fill="none" stroke="black" stroke-width="2" d="M67.8447,-74.0036C61.744,-70.3324 54.827,-66.1701 48.2237,-62.1965"/>
<polygon fill="black" stroke="black" stroke-width="2" points="49.8928,-59.1161 39.5199,-56.9589 46.2835,-65.1139 49.8928,-59.1161"/>
</g>
</g>
</svg>

