<?xml version="1.0" encoding="UTF-8" standalone="no"?>
<!DOCTYPE svg PUBLIC "-//W3C//DTD SVG 1.1//EN"
 "http://www.w3.org/Graphics/SVG/1.1/DTD/svg11.dtd">
<!-- Generated by graphviz version 2.36.0 (20140111.2315)
 -->
<!-- Title: G Pages: 1 -->
<svg width="100%" height="100%"
 viewBox="0.00 0.00 309.64 273.87" xmlns="http://www.w3.org/2000/svg" xmlns:xlink="http://www.w3.org/1999/xlink">
<g id="graph0" class="graph" transform="scale(1 1) rotate(0) translate(4 269.868)">
<title>G</title>
<!-- 0 -->
<g id="node1" class="node"><title>0</title>
<ellipse fill="cadetblue" stroke="black" cx="185.434" cy="-94.7888" rx="21.4286" ry="21.4286"/>
<text text-anchor="middle" x="185.434" y="-89.7888" font-family="Times New Roman,serif" font-size="20.00">2</text>
</g>
<!-- 5 -->
<g id="node6" class="node"><title>5</title>
<ellipse fill="cadetblue" stroke="black" cx="69.8735" cy="-119.41" rx="21.4286" ry="21.4286"/>
<text text-anchor="middle" x="69.8735" y="-114.41" font-family="Times New Roman,serif" font-size="20.00">2</text>
</g>
<!-- 0&#45;&gt;5 -->
<g id="edge3" class="edge"><title>0&#45;&gt;5</title>
<path fill="none" stroke="black" stroke-width="2" d="M164.507,-99.2475C146.672,-103.047 120.798,-108.56 100.611,-112.861"/>
<polygon fill="black" stroke="black" stroke-width="2" points="99.6961,-109.478 90.645,-114.985 101.155,-116.324 99.6961,-109.478"/>
</g>
<!-- 6 -->
<g id="node7" class="node"><title>6</title>
<ellipse fill="brown" stroke="black" cx="115.662" cy="-169.842" rx="21.4286" ry="21.4286"/>
<text text-anchor="middle" x="115.662" y="-164.842" font-family="Times New Roman,serif" font-size="20.00">3</text>
</g>
<!-- 0&#45;&gt;6 -->
<g id="edge4" class="edge"><title>0&#45;&gt;6</title>
<path fill="none" stroke="black" stroke-width="2" d="M170.977,-110.34C161.22,-120.836 148.17,-134.873 137.197,-146.677"/>
<polygon fill="black" stroke="black" stroke-width="2" points="134.586,-144.345 130.34,-154.052 139.713,-149.111 134.586,-144.345"/>
</g>
<!-- 7 -->
<g id="node8" class="node"><title>7</title>
<ellipse fill="dodgerblue" stroke="black" cx="230.911" cy="-146.069" rx="21.4286" ry="21.4286"/>
<text text-anchor="middle" x="230.911" y="-141.069" font-family="Times New Roman,serif" font-size="20.00">4</text>
</g>
<!-- 0&#45;&gt;7 -->
<g id="edge5" class="edge"><title>0&#45;&gt;7</title>
<path fill="none" stroke="black" stroke-width="2" d="M199.574,-110.733C202.794,-114.364 206.284,-118.299 209.726,-122.181"/>
<polygon fill="black" stroke="black" stroke-width="2" points="207.369,-124.798 216.623,-129.958 212.607,-120.154 207.369,-124.798"/>
</g>
<!-- 1 -->
<g id="node2" class="node"><title>1</title>
<ellipse fill="cadetblue" stroke="black" cx="21.2132" cy="-244.655" rx="21.4286" ry="21.4286"/>
<text text-anchor="middle" x="21.2132" y="-239.655" font-family="Times New Roman,serif" font-size="20.00">2</text>
</g>
<!-- 1&#45;&gt;6 -->
<g id="edge8" class="edge"><title>1&#45;&gt;6</title>
<path fill="none" stroke="black" stroke-width="2" d="M38.0988,-231.28C52.7384,-219.684 74.1237,-202.744 90.7333,-189.588"/>
<polygon fill="black" stroke="black" stroke-width="2" points="93.2571,-192.054 98.9227,-183.101 88.9107,-186.567 93.2571,-192.054"/>
</g>
<!-- 2 -->
<g id="node3" class="node"><title>2</title>
<ellipse fill="cadetblue" stroke="black" cx="145.465" cy="-23.5702" rx="21.4286" ry="21.4286"/>
<text text-anchor="middle" x="145.465" y="-18.5702" font-family="Times New Roman,serif" font-size="20.00">2</text>
</g>
<!-- 4 -->
<g id="node5" class="node"><title>4</title>
<ellipse fill="cadetblue" stroke="black" cx="280.428" cy="-21.2132" rx="21.4286" ry="21.4286"/>
<text text-anchor="middle" x="280.428" y="-16.2132" font-family="Times New Roman,serif" font-size="20.00">2</text>
</g>
<!-- 2&#45;&gt;4 -->
<g id="edge9" class="edge"><title>2&#45;&gt;4</title>
<path fill="none" stroke="black" stroke-width="2" d="M166.85,-23.1967C188.963,-22.8105 223.725,-22.2035 248.97,-21.7626"/>
<polygon fill="black" stroke="black" stroke-width="2" points="249.205,-25.2591 259.142,-21.5849 249.083,-18.2602 249.205,-25.2591"/>
</g>
<!-- 2&#45;&gt;7 -->
<g id="edge12" class="edge"><title>2&#45;&gt;7</title>
<path fill="none" stroke="black" stroke-width="2" d="M163.036,-35.9502C175.807,-45.6865 192.765,-60.2392 204.051,-76.2058 212.337,-87.9278 218.473,-102.542 222.772,-115.37"/>
<polygon fill="black" stroke="black" stroke-width="2" points="219.515,-116.68 225.832,-125.186 226.197,-114.597 219.515,-116.68"/>
</g>
<!-- 3 -->
<g id="node4" class="node"><title>3</title>
<ellipse fill="cadetblue" stroke="black" cx="155.738" cy="-241.765" rx="21.4286" ry="21.4286"/>
<text text-anchor="middle" x="155.738" y="-236.765" font-family="Times New Roman,serif" font-size="20.00">2</text>
</g>
<!-- 3&#45;&gt;0 -->
<g id="edge1" class="edge"><title>3&#45;&gt;0</title>
<path fill="none" stroke="black" stroke-width="2" d="M159.993,-220.707C165.02,-195.823 173.43,-154.203 179.194,-125.672"/>
<polygon fill="black" stroke="black" stroke-width="2" points="182.637,-126.303 181.187,-115.808 175.776,-124.917 182.637,-126.303"/>
</g>
<!-- 3&#45;&gt;1 -->
<g id="edge6" class="edge"><title>3&#45;&gt;1</title>
<path fill="none" stroke="black" stroke-width="2" d="M134.422,-242.223C112.381,-242.697 77.7322,-243.441 52.5686,-243.982"/>
<polygon fill="black" stroke="black" stroke-width="2" points="52.3518,-240.485 42.4293,-244.199 52.5022,-247.484 52.3518,-240.485"/>
</g>
<!-- 3&#45;&gt;7 -->
<g id="edge15" class="edge"><title>3&#45;&gt;7</title>
<path fill="none" stroke="black" stroke-width="2" d="M169.177,-224.657C180.829,-209.824 197.85,-188.156 211.07,-171.327"/>
<polygon fill="black" stroke="black" stroke-width="2" points="214.163,-173.055 217.588,-163.029 208.658,-168.731 214.163,-173.055"/>
</g>
<!-- 4&#45;&gt;0 -->
<g id="edge2" class="edge"><title>4&#45;&gt;0</title>
<path fill="none" stroke="black" stroke-width="2" d="M263.445,-34.367C248.721,-45.7713 227.212,-62.4305 210.507,-75.3693"/>
<polygon fill="black" stroke="black" stroke-width="2" points="208.033,-72.8583 202.27,-81.7488 212.319,-78.3925 208.033,-72.8583"/>
</g>
<!-- 5&#45;&gt;1 -->
<g id="edge7" class="edge"><title>5&#45;&gt;1</title>
<path fill="none" stroke="black" stroke-width="2" d="M62.1632,-139.256C54.2375,-159.655 41.8046,-191.656 32.7161,-215.048"/>
<polygon fill="black" stroke="black" stroke-width="2" points="29.4078,-213.899 29.0486,-224.488 35.9326,-216.434 29.4078,-213.899"/>
</g>
<!-- 5&#45;&gt;2 -->
<g id="edge10" class="edge"><title>5&#45;&gt;2</title>
<path fill="none" stroke="black" stroke-width="2" d="M83.0406,-102.716C94.8912,-87.6912 112.463,-65.4122 125.947,-48.3162"/>
<polygon fill="black" stroke="black" stroke-width="2" points="128.751,-50.4137 132.195,-40.3945 123.254,-46.0787 128.751,-50.4137"/>
</g>
<!-- 5&#45;&gt;3 -->
<g id="edge13" class="edge"><title>5&#45;&gt;3</title>
<path fill="none" stroke="black" stroke-width="2" d="M75.1703,-139.991C79.5258,-154.413 86.6792,-173.669 97.0399,-188.419 106.211,-201.477 119.106,-213.643 130.474,-223.05"/>
<polygon fill="black" stroke="black" stroke-width="2" points="128.409,-225.88 138.408,-229.385 132.778,-220.41 128.409,-225.88"/>
</g>
<!-- 5&#45;&gt;7 -->
<g id="edge18" class="edge"><title>5&#45;&gt;7</title>
<path fill="none" stroke="black" stroke-width="2" d="M90.9263,-122.895C118.654,-127.486 167.64,-135.595 199.689,-140.9"/>
<polygon fill="black" stroke="black" stroke-width="2" points="199.415,-144.402 209.853,-142.583 200.559,-137.496 199.415,-144.402"/>
</g>
<!-- 6&#45;&gt;2 -->
<g id="edge11" class="edge"><title>6&#45;&gt;2</title>
<path fill="none" stroke="black" stroke-width="2" d="M119.932,-148.884C124.978,-124.12 133.417,-82.6996 139.203,-54.3052"/>
<polygon fill="black" stroke="black" stroke-width="2" points="142.636,-54.9859 141.203,-44.4884 135.777,-53.5883 142.636,-54.9859"/>
</g>
<!-- 6&#45;&gt;3 -->
<g id="edge14" class="edge"><title>6&#45;&gt;3</title>
<path fill="none" stroke="black" stroke-width="2" d="M126.191,-188.739C130.517,-196.502 135.613,-205.647 140.343,-214.136"/>
<polygon fill="black" stroke="black" stroke-width="2" points="137.354,-215.962 145.279,-222.994 143.469,-212.555 137.354,-215.962"/>
</g>
<!-- 6&#45;&gt;5 -->
<g id="edge17" class="edge"><title>6&#45;&gt;5</title>
<path fill="none" stroke="black" stroke-width="2" d="M101.174,-153.885C98.0007,-150.389 94.577,-146.619 91.1989,-142.898"/>
<polygon fill="black" stroke="black" stroke-width="2" points="93.7376,-140.487 84.4242,-135.436 88.555,-145.193 93.7376,-140.487"/>
</g>
<!-- 7&#45;&gt;4 -->
<g id="edge16" class="edge"><title>7&#45;&gt;4</title>
<path fill="none" stroke="black" stroke-width="2" d="M238.757,-126.285C246.822,-105.949 259.474,-74.0478 268.722,-50.7279"/>
<polygon fill="black" stroke="black" stroke-width="2" points="272.021,-51.9038 272.454,-41.3178 265.514,-49.3231 272.021,-51.9038"/>
</g>
<!-- 7&#45;&gt;6 -->
<g id="edge19" class="edge"><title>7&#45;&gt;6</title>
<path fill="none" stroke="black" stroke-width="2" d="M210.04,-150.374C192.364,-154.02 166.769,-159.299 146.692,-163.441"/>
<polygon fill="black" stroke="black" stroke-width="2" points="145.854,-160.04 136.767,-165.488 147.268,-166.896 145.854,-160.04"/>
</g>
</g>
</svg>

