<?xml version="1.0" encoding="UTF-8" standalone="no"?>
<!DOCTYPE svg PUBLIC "-//W3C//DTD SVG 1.1//EN"
 "http://www.w3.org/Graphics/SVG/1.1/DTD/svg11.dtd">
<!-- Generated by graphviz version 2.36.0 (20140111.2315)
 -->
<!-- Title: G Pages: 1 -->
<svg width="100%" height="100%"
 viewBox="0.00 0.00 325.51 392.75" xmlns="http://www.w3.org/2000/svg" xmlns:xlink="http://www.w3.org/1999/xlink">
<g id="graph0" class="graph" transform="scale(1 1) rotate(0) translate(4 388.745)">
<title>G</title>
<!-- 0 -->
<g id="node1" class="node"><title>0</title>
<ellipse fill="cadetblue" stroke="black" cx="226.329" cy="-268.595" rx="21.4286" ry="21.4286"/>
<text text-anchor="middle" x="226.329" y="-263.595" font-family="Times New Roman,serif" font-size="20.00">2</text>
</g>
<!-- 3 -->
<g id="node4" class="node"><title>3</title>
<ellipse fill="cadetblue" stroke="black" cx="91.9037" cy="-363.532" rx="21.4286" ry="21.4286"/>
<text text-anchor="middle" x="91.9037" y="-358.532" font-family="Times New Roman,serif" font-size="20.00">2</text>
</g>
<!-- 0&#45;&gt;3 -->
<g id="edge1" class="edge"><title>0&#45;&gt;3</title>
<path fill="none" stroke="black" stroke-width="2" d="M208.755,-281.006C185.609,-297.353 144.718,-326.232 117.966,-345.126"/>
<polygon fill="black" stroke="black" stroke-width="2" points="115.631,-342.49 109.482,-351.118 119.669,-348.208 115.631,-342.49"/>
</g>
<!-- 4 -->
<g id="node5" class="node"><title>4</title>
<ellipse fill="cadetblue" stroke="black" cx="296.294" cy="-135.481" rx="21.4286" ry="21.4286"/>
<text text-anchor="middle" x="296.294" y="-130.481" font-family="Times New Roman,serif" font-size="20.00">2</text>
</g>
<!-- 0&#45;&gt;4 -->
<g id="edge2" class="edge"><title>0&#45;&gt;4</title>
<path fill="none" stroke="black" stroke-width="2" d="M236.205,-249.805C248.014,-227.338 267.89,-189.522 281.526,-163.577"/>
<polygon fill="black" stroke="black" stroke-width="2" points="284.687,-165.086 286.242,-154.606 278.491,-161.829 284.687,-165.086"/>
</g>
<!-- 6 -->
<g id="node7" class="node"><title>6</title>
<ellipse fill="cadetblue" stroke="black" cx="105.56" cy="-260.508" rx="21.4286" ry="21.4286"/>
<text text-anchor="middle" x="105.56" y="-255.508" font-family="Times New Roman,serif" font-size="20.00">2</text>
</g>
<!-- 0&#45;&gt;6 -->
<g id="edge4" class="edge"><title>0&#45;&gt;6</title>
<path fill="none" stroke="black" stroke-width="2" d="M205.016,-267.167C186.247,-265.911 158.653,-264.063 137.289,-262.633"/>
<polygon fill="black" stroke="black" stroke-width="2" points="137.278,-259.124 127.066,-261.948 136.81,-266.108 137.278,-259.124"/>
</g>
<!-- 1 -->
<g id="node2" class="node"><title>1</title>
<ellipse fill="cadetblue" stroke="black" cx="21.2132" cy="-205.985" rx="21.4286" ry="21.4286"/>
<text text-anchor="middle" x="21.2132" y="-200.985" font-family="Times New Roman,serif" font-size="20.00">2</text>
</g>
<!-- 5 -->
<g id="node6" class="node"><title>5</title>
<ellipse fill="cadetblue" stroke="black" cx="176.303" cy="-167.069" rx="21.4286" ry="21.4286"/>
<text text-anchor="middle" x="176.303" y="-162.069" font-family="Times New Roman,serif" font-size="20.00">2</text>
</g>
<!-- 1&#45;&gt;5 -->
<g id="edge7" class="edge"><title>1&#45;&gt;5</title>
<path fill="none" stroke="black" stroke-width="2" d="M41.8079,-200.817C68.4583,-194.13 115.11,-182.424 145.857,-174.708"/>
<polygon fill="black" stroke="black" stroke-width="2" points="146.775,-178.087 155.623,-172.258 145.072,-171.297 146.775,-178.087"/>
</g>
<!-- 7 -->
<g id="node8" class="node"><title>7</title>
<ellipse fill="brown" stroke="black" cx="130.328" cy="-116.637" rx="21.4286" ry="21.4286"/>
<text text-anchor="middle" x="130.328" y="-111.637" font-family="Times New Roman,serif" font-size="20.00">3</text>
</g>
<!-- 1&#45;&gt;7 -->
<g id="edge9" class="edge"><title>1&#45;&gt;7</title>
<path fill="none" stroke="black" stroke-width="2" d="M37.7853,-192.415C55.8906,-177.59 85.0757,-153.692 105.827,-136.699"/>
<polygon fill="black" stroke="black" stroke-width="2" points="108.08,-139.378 113.6,-130.335 103.645,-133.963 108.08,-139.378"/>
</g>
<!-- 2 -->
<g id="node3" class="node"><title>2</title>
<ellipse fill="cadetblue" stroke="black" cx="221.753" cy="-21.2132" rx="21.4286" ry="21.4286"/>
<text text-anchor="middle" x="221.753" y="-16.2132" font-family="Times New Roman,serif" font-size="20.00">2</text>
</g>
<!-- 2&#45;&gt;7 -->
<g id="edge12" class="edge"><title>2&#45;&gt;7</title>
<path fill="none" stroke="black" stroke-width="2" d="M207.064,-36.5447C192.357,-51.8955 169.537,-75.7135 152.601,-93.3899"/>
<polygon fill="black" stroke="black" stroke-width="2" points="149.675,-91.3847 145.284,-101.027 154.729,-96.2275 149.675,-91.3847"/>
</g>
<!-- 3&#45;&gt;1 -->
<g id="edge6" class="edge"><title>3&#45;&gt;1</title>
<path fill="none" stroke="black" stroke-width="2" d="M83.0936,-343.897C70.7503,-316.388 48.2325,-266.202 34.0318,-234.554"/>
<polygon fill="black" stroke="black" stroke-width="2" points="37.1993,-233.063 29.9122,-225.372 30.8127,-235.929 37.1993,-233.063"/>
</g>
<!-- 4&#45;&gt;2 -->
<g id="edge10" class="edge"><title>4&#45;&gt;2</title>
<path fill="none" stroke="black" stroke-width="2" d="M284.647,-117.626C272.465,-98.9527 253.206,-69.4284 239.206,-47.9678"/>
<polygon fill="black" stroke="black" stroke-width="2" points="241.96,-45.7825 233.564,-39.3192 236.097,-49.607 241.96,-45.7825"/>
</g>
<!-- 5&#45;&gt;0 -->
<g id="edge3" class="edge"><title>5&#45;&gt;0</title>
<path fill="none" stroke="black" stroke-width="2" d="M185.712,-186.165C193.211,-201.383 203.825,-222.923 212.322,-240.168"/>
<polygon fill="black" stroke="black" stroke-width="2" points="209.232,-241.816 216.792,-249.239 215.511,-238.722 209.232,-241.816"/>
</g>
<!-- 5&#45;&gt;2 -->
<g id="edge11" class="edge"><title>5&#45;&gt;2</title>
<path fill="none" stroke="black" stroke-width="2" d="M182.622,-146.788C190.313,-122.109 203.37,-80.2075 212.268,-51.6518"/>
<polygon fill="black" stroke="black" stroke-width="2" points="215.707,-52.3803 215.341,-41.7918 209.024,-50.2977 215.707,-52.3803"/>
</g>
<!-- 5&#45;&gt;7 -->
<g id="edge16" class="edge"><title>5&#45;&gt;7</title>
<path fill="none" stroke="black" stroke-width="2" d="M162.008,-151.388C158.753,-147.817 155.224,-143.947 151.744,-140.13"/>
<polygon fill="black" stroke="black" stroke-width="2" points="154.096,-137.514 144.772,-132.482 148.922,-142.23 154.096,-137.514"/>
</g>
<!-- 6&#45;&gt;1 -->
<g id="edge8" class="edge"><title>6&#45;&gt;1</title>
<path fill="none" stroke="black" stroke-width="2" d="M87.6723,-248.945C76.0422,-241.427 60.6743,-231.493 47.6462,-223.072"/>
<polygon fill="black" stroke="black" stroke-width="2" points="49.3735,-220.021 39.0752,-217.531 45.5733,-225.899 49.3735,-220.021"/>
</g>
<!-- 6&#45;&gt;3 -->
<g id="edge13" class="edge"><title>6&#45;&gt;3</title>
<path fill="none" stroke="black" stroke-width="2" d="M102.731,-281.855C100.808,-296.359 98.2322,-315.79 96.0754,-332.061"/>
<polygon fill="black" stroke="black" stroke-width="2" points="92.5742,-331.84 94.7297,-342.213 99.5135,-332.759 92.5742,-331.84"/>
</g>
<!-- 6&#45;&gt;5 -->
<g id="edge15" class="edge"><title>6&#45;&gt;5</title>
<path fill="none" stroke="black" stroke-width="2" d="M118.535,-243.37C129.405,-229.013 145.068,-208.325 157.343,-192.112"/>
<polygon fill="black" stroke="black" stroke-width="2" points="160.164,-194.184 163.41,-184.098 154.583,-189.958 160.164,-194.184"/>
</g>
<!-- 7&#45;&gt;0 -->
<g id="edge5" class="edge"><title>7&#45;&gt;0</title>
<path fill="none" stroke="black" stroke-width="2" d="M138.105,-136.742C141.693,-145.961 146.028,-157.024 149.999,-166.952 153.321,-175.26 153.021,-177.91 157.62,-185.586 170.803,-207.587 189.573,-229.831 204.164,-245.747"/>
<polygon fill="black" stroke="black" stroke-width="2" points="201.98,-248.536 211.361,-253.459 207.097,-243.76 201.98,-248.536"/>
</g>
<!-- 7&#45;&gt;4 -->
<g id="edge14" class="edge"><title>7&#45;&gt;4</title>
<path fill="none" stroke="black" stroke-width="2" d="M151.685,-119.062C180.441,-122.327 231.814,-128.16 264.952,-131.922"/>
<polygon fill="black" stroke="black" stroke-width="2" points="264.687,-135.415 275.018,-133.065 265.477,-128.459 264.687,-135.415"/>
</g>
<!-- 7&#45;&gt;6 -->
<g id="edge17" class="edge"><title>7&#45;&gt;6</title>
<path fill="none" stroke="black" stroke-width="2" d="M126.726,-137.557C122.562,-161.744 115.67,-201.784 110.886,-229.572"/>
<polygon fill="black" stroke="black" stroke-width="2" points="107.413,-229.114 109.166,-239.563 114.312,-230.302 107.413,-229.114"/>
</g>
</g>
</svg>

