<?xml version="1.0" encoding="UTF-8" standalone="no"?>
<!DOCTYPE svg PUBLIC "-//W3C//DTD SVG 1.1//EN"
 "http://www.w3.org/Graphics/SVG/1.1/DTD/svg11.dtd">
<!-- Generated by graphviz version 2.36.0 (20140111.2315)
 -->
<!-- Title: G Pages: 1 -->
<svg width="100%" height="100%"
 viewBox="0.00 0.00 237.89 216.63" xmlns="http://www.w3.org/2000/svg" xmlns:xlink="http://www.w3.org/1999/xlink">
<g id="graph0" class="graph" transform="scale(1 1) rotate(0) translate(4 212.634)">
<title>G</title>
<!-- 0 -->
<g id="node1" class="node"><title>0</title>
<ellipse fill="cadetblue" stroke="black" cx="34.664" cy="-135.083" rx="21.4286" ry="21.4286"/>
<text text-anchor="middle" x="34.664" y="-130.083" font-family="Times New Roman,serif" font-size="20.00">2</text>
</g>
<!-- 5 -->
<g id="node6" class="node"><title>5</title>
<ellipse fill="cadetblue" stroke="black" cx="85.0954" cy="-170.148" rx="21.4286" ry="21.4286"/>
<text text-anchor="middle" x="85.0954" y="-165.148" font-family="Times New Roman,serif" font-size="20.00">2</text>
</g>
<!-- 0&#45;&gt;5 -->
<g id="edge3" class="edge"><title>0&#45;&gt;5</title>
<path fill="none" stroke="black" stroke-width="2" d="M52.3025,-147.347C54.4399,-148.833 56.6574,-150.375 58.8852,-151.924"/>
<polygon fill="black" stroke="black" stroke-width="2" points="57.1732,-154.996 67.3817,-157.831 61.1692,-149.249 57.1732,-154.996"/>
</g>
<!-- 6 -->
<g id="node7" class="node"><title>6</title>
<ellipse fill="cadetblue" stroke="black" cx="108.206" cy="-21.2132" rx="21.4286" ry="21.4286"/>
<text text-anchor="middle" x="108.206" y="-16.2132" font-family="Times New Roman,serif" font-size="20.00">2</text>
</g>
<!-- 0&#45;&gt;6 -->
<g id="edge4" class="edge"><title>0&#45;&gt;6</title>
<path fill="none" stroke="black" stroke-width="2" d="M46.317,-117.04C58.3663,-98.3835 77.3084,-69.0544 91.0649,-47.7543"/>
<polygon fill="black" stroke="black" stroke-width="2" points="94.1226,-49.4711 96.6079,-39.1718 88.2424,-45.6733 94.1226,-49.4711"/>
</g>
<!-- 1 -->
<g id="node2" class="node"><title>1</title>
<ellipse fill="cadetblue" stroke="black" cx="182.439" cy="-119.775" rx="21.4286" ry="21.4286"/>
<text text-anchor="middle" x="182.439" y="-114.775" font-family="Times New Roman,serif" font-size="20.00">2</text>
</g>
<!-- 1&#45;&gt;6 -->
<g id="edge7" class="edge"><title>1&#45;&gt;6</title>
<path fill="none" stroke="black" stroke-width="2" d="M169.508,-102.607C157.799,-87.0605 140.403,-63.9621 127.13,-46.339"/>
<polygon fill="black" stroke="black" stroke-width="2" points="129.8,-44.0669 120.988,-38.1846 124.209,-48.2782 129.8,-44.0669"/>
</g>
<!-- 7 -->
<g id="node8" class="node"><title>7</title>
<ellipse fill="brown" stroke="black" cx="116.25" cy="-77.0998" rx="21.4286" ry="21.4286"/>
<text text-anchor="middle" x="116.25" y="-72.0998" font-family="Times New Roman,serif" font-size="20.00">3</text>
</g>
<!-- 1&#45;&gt;7 -->
<g id="edge8" class="edge"><title>1&#45;&gt;7</title>
<path fill="none" stroke="black" stroke-width="2" d="M164.352,-108.114C157.785,-103.88 150.219,-99.0012 143.059,-94.3851"/>
<polygon fill="black" stroke="black" stroke-width="2" points="144.615,-91.2242 134.314,-88.7469 140.822,-97.1074 144.615,-91.2242"/>
</g>
<!-- 2 -->
<g id="node3" class="node"><title>2</title>
<ellipse fill="cadetblue" stroke="black" cx="208.68" cy="-58.6516" rx="21.4286" ry="21.4286"/>
<text text-anchor="middle" x="208.68" y="-53.6516" font-family="Times New Roman,serif" font-size="20.00">2</text>
</g>
<!-- 4 -->
<g id="node5" class="node"><title>4</title>
<ellipse fill="cadetblue" stroke="black" cx="160.231" cy="-187.421" rx="21.4286" ry="21.4286"/>
<text text-anchor="middle" x="160.231" y="-182.421" font-family="Times New Roman,serif" font-size="20.00">2</text>
</g>
<!-- 2&#45;&gt;4 -->
<g id="edge9" class="edge"><title>2&#45;&gt;4</title>
<path fill="none" stroke="black" stroke-width="2" d="M210.747,-79.8203C211.398,-91.7045 211.373,-106.74 208.743,-119.871 205.254,-137.291 193.911,-153.571 183.071,-165.782"/>
<polygon fill="black" stroke="black" stroke-width="2" points="180.406,-163.507 176.107,-173.19 185.507,-168.301 180.406,-163.507"/>
</g>
<!-- 3 -->
<g id="node4" class="node"><title>3</title>
<ellipse fill="cadetblue" stroke="black" cx="21.2132" cy="-61.7525" rx="21.4286" ry="21.4286"/>
<text text-anchor="middle" x="21.2132" y="-56.7525" font-family="Times New Roman,serif" font-size="20.00">2</text>
</g>
<!-- 3&#45;&gt;0 -->
<g id="edge1" class="edge"><title>3&#45;&gt;0</title>
<path fill="none" stroke="black" stroke-width="2" d="M25.1037,-82.9627C26.3131,-89.5562 27.6723,-96.9658 28.9778,-104.083"/>
<polygon fill="black" stroke="black" stroke-width="2" points="25.5818,-104.969 30.8287,-114.174 32.467,-103.706 25.5818,-104.969"/>
</g>
<!-- 3&#45;&gt;7 -->
<g id="edge14" class="edge"><title>3&#45;&gt;7</title>
<path fill="none" stroke="black" stroke-width="2" d="M42.3049,-65.1585C54.855,-67.1852 71.0113,-69.7943 85.0192,-72.0564"/>
<polygon fill="black" stroke="black" stroke-width="2" points="84.7869,-75.5642 95.217,-73.7032 85.903,-68.6537 84.7869,-75.5642"/>
</g>
<!-- 4&#45;&gt;0 -->
<g id="edge2" class="edge"><title>4&#45;&gt;0</title>
<path fill="none" stroke="black" stroke-width="2" d="M143.159,-174.246C128.633,-163.869 106.754,-150.14 85.2127,-143.843 79.1884,-142.083 72.6505,-140.627 66.3382,-139.443"/>
<polygon fill="black" stroke="black" stroke-width="2" points="66.5031,-135.921 56.0586,-137.699 65.3323,-142.822 66.5031,-135.921"/>
</g>
<!-- 4&#45;&gt;1 -->
<g id="edge5" class="edge"><title>4&#45;&gt;1</title>
<path fill="none" stroke="black" stroke-width="2" d="M166.894,-167.125C168.695,-161.64 170.682,-155.587 172.616,-149.694"/>
<polygon fill="black" stroke="black" stroke-width="2" points="175.986,-150.649 175.78,-140.057 169.336,-148.466 175.986,-150.649"/>
</g>
<!-- 5&#45;&gt;1 -->
<g id="edge6" class="edge"><title>5&#45;&gt;1</title>
<path fill="none" stroke="black" stroke-width="2" d="M104.327,-160.196C118.686,-152.765 138.519,-142.502 154.608,-134.177"/>
<polygon fill="black" stroke="black" stroke-width="2" points="156.305,-137.239 163.578,-129.535 153.088,-131.022 156.305,-137.239"/>
</g>
<!-- 5&#45;&gt;3 -->
<g id="edge12" class="edge"><title>5&#45;&gt;3</title>
<path fill="none" stroke="black" stroke-width="2" d="M74.2587,-151.76C64.1176,-134.552 48.8392,-108.628 37.28,-89.0145"/>
<polygon fill="black" stroke="black" stroke-width="2" points="40.1958,-87.0685 32.1031,-80.2304 34.1652,-90.6227 40.1958,-87.0685"/>
</g>
<!-- 5&#45;&gt;4 -->
<g id="edge15" class="edge"><title>5&#45;&gt;4</title>
<path fill="none" stroke="black" stroke-width="2" d="M106.025,-174.959C113.271,-176.625 121.552,-178.529 129.423,-180.338"/>
<polygon fill="black" stroke="black" stroke-width="2" points="128.884,-183.805 139.414,-182.635 130.452,-176.983 128.884,-183.805"/>
</g>
<!-- 6&#45;&gt;2 -->
<g id="edge10" class="edge"><title>6&#45;&gt;2</title>
<path fill="none" stroke="black" stroke-width="2" d="M128.539,-28.7894C143.069,-34.2038 162.848,-41.5737 179.12,-47.6371"/>
<polygon fill="black" stroke="black" stroke-width="2" points="178.128,-51.0024 188.721,-51.2145 180.572,-44.443 178.128,-51.0024"/>
</g>
<!-- 6&#45;&gt;3 -->
<g id="edge13" class="edge"><title>6&#45;&gt;3</title>
<path fill="none" stroke="black" stroke-width="2" d="M88.8998,-30.2102C77.4118,-35.5636 62.623,-42.4553 49.8006,-48.4306"/>
<polygon fill="black" stroke="black" stroke-width="2" points="48.0516,-45.3842 40.4658,-52.7806 51.0084,-51.7291 48.0516,-45.3842"/>
</g>
<!-- 6&#45;&gt;7 -->
<g id="edge17" class="edge"><title>6&#45;&gt;7</title>
<path fill="none" stroke="black" stroke-width="2" d="M111.247,-42.3415C111.407,-43.4543 111.57,-44.5824 111.733,-45.7182"/>
<polygon fill="black" stroke="black" stroke-width="2" points="108.316,-46.5422 113.205,-55.9416 115.244,-45.5449 108.316,-46.5422"/>
</g>
<!-- 7&#45;&gt;2 -->
<g id="edge11" class="edge"><title>7&#45;&gt;2</title>
<path fill="none" stroke="black" stroke-width="2" d="M137.224,-72.9136C149.16,-70.5313 164.336,-67.5023 177.629,-64.849"/>
<polygon fill="black" stroke="black" stroke-width="2" points="178.668,-68.2109 187.789,-62.8212 177.297,-61.3463 178.668,-68.2109"/>
</g>
<!-- 7&#45;&gt;5 -->
<g id="edge16" class="edge"><title>7&#45;&gt;5</title>
<path fill="none" stroke="black" stroke-width="2" d="M109.49,-97.2898C105.285,-109.849 99.8016,-126.225 95.0991,-140.27"/>
<polygon fill="black" stroke="black" stroke-width="2" points="91.6984,-139.403 91.8423,-149.997 98.3362,-141.626 91.6984,-139.403"/>
</g>
</g>
</svg>

