<?xml version="1.0" encoding="UTF-8" standalone="no"?>
<!DOCTYPE svg PUBLIC "-//W3C//DTD SVG 1.1//EN"
 "http://www.w3.org/Graphics/SVG/1.1/DTD/svg11.dtd">
<!-- Generated by graphviz version 2.36.0 (20140111.2315)
 -->
<!-- Title: G Pages: 1 -->
<svg width="100%" height="100%"
 viewBox="0.00 0.00 240.78 218.35" xmlns="http://www.w3.org/2000/svg" xmlns:xlink="http://www.w3.org/1999/xlink">
<g id="graph0" class="graph" transform="scale(1 1) rotate(0) translate(4 214.352)">
<title>G</title>
<!-- 0 -->
<g id="node1" class="node"><title>0</title>
<ellipse fill="cadetblue" stroke="black" cx="211.567" cy="-130.65" rx="21.4286" ry="21.4286"/>
<text text-anchor="middle" x="211.567" y="-125.65" font-family="Times New Roman,serif" font-size="20.00">2</text>
</g>
<!-- 6 -->
<g id="node7" class="node"><title>6</title>
<ellipse fill="cadetblue" stroke="black" cx="135.087" cy="-118.709" rx="21.4286" ry="21.4286"/>
<text text-anchor="middle" x="135.087" y="-113.709" font-family="Times New Roman,serif" font-size="20.00">2</text>
</g>
<!-- 0&#45;&gt;6 -->
<g id="edge3" class="edge"><title>0&#45;&gt;6</title>
<path fill="none" stroke="black" stroke-width="2" d="M190.263,-127.324C182.804,-126.159 174.269,-124.827 166.176,-123.563"/>
<polygon fill="black" stroke="black" stroke-width="2" points="166.697,-120.102 156.277,-122.017 165.617,-127.018 166.697,-120.102"/>
</g>
<!-- 1 -->
<g id="node2" class="node"><title>1</title>
<ellipse fill="cadetblue" stroke="black" cx="37.8017" cy="-189.092" rx="21.4286" ry="21.4286"/>
<text text-anchor="middle" x="37.8017" y="-184.092" font-family="Times New Roman,serif" font-size="20.00">2</text>
</g>
<!-- 1&#45;&gt;6 -->
<g id="edge6" class="edge"><title>1&#45;&gt;6</title>
<path fill="none" stroke="black" stroke-width="2" d="M55.1944,-176.509C70.2737,-165.599 92.3012,-149.663 109.41,-137.286"/>
<polygon fill="black" stroke="black" stroke-width="2" points="111.794,-139.88 117.845,-131.183 107.691,-134.209 111.794,-139.88"/>
</g>
<!-- 7 -->
<g id="node8" class="node"><title>7</title>
<ellipse fill="brown" stroke="black" cx="21.2132" cy="-98.8737" rx="21.4286" ry="21.4286"/>
<text text-anchor="middle" x="21.2132" y="-93.8737" font-family="Times New Roman,serif" font-size="20.00">3</text>
</g>
<!-- 1&#45;&gt;7 -->
<g id="edge7" class="edge"><title>1&#45;&gt;7</title>
<path fill="none" stroke="black" stroke-width="2" d="M33.9543,-168.167C31.8756,-156.862 29.2678,-142.679 26.9538,-130.094"/>
<polygon fill="black" stroke="black" stroke-width="2" points="30.348,-129.199 25.0972,-119.997 23.4634,-130.465 30.348,-129.199"/>
</g>
<!-- 2 -->
<g id="node3" class="node"><title>2</title>
<ellipse fill="cadetblue" stroke="black" cx="66.0644" cy="-21.2132" rx="21.4286" ry="21.4286"/>
<text text-anchor="middle" x="66.0644" y="-16.2132" font-family="Times New Roman,serif" font-size="20.00">2</text>
</g>
<!-- 5 -->
<g id="node6" class="node"><title>5</title>
<ellipse fill="cadetblue" stroke="black" cx="71.6447" cy="-109.879" rx="21.4286" ry="21.4286"/>
<text text-anchor="middle" x="71.6447" y="-104.879" font-family="Times New Roman,serif" font-size="20.00">2</text>
</g>
<!-- 2&#45;&gt;5 -->
<g id="edge9" class="edge"><title>2&#45;&gt;5</title>
<path fill="none" stroke="black" stroke-width="2" d="M67.4153,-42.6768C68.0938,-53.459 68.9288,-66.7264 69.6771,-78.6164"/>
<polygon fill="black" stroke="black" stroke-width="2" points="66.185,-78.8531 70.3063,-88.6135 73.1712,-78.4133 66.185,-78.8531"/>
</g>
<!-- 2&#45;&gt;7 -->
<g id="edge11" class="edge"><title>2&#45;&gt;7</title>
<path fill="none" stroke="black" stroke-width="2" d="M55.4353,-39.6177C49.9456,-49.1232 43.1374,-60.9117 37.0427,-71.4648"/>
<polygon fill="black" stroke="black" stroke-width="2" points="33.8918,-69.9222 31.9215,-80.3322 39.9535,-73.423 33.8918,-69.9222"/>
</g>
<!-- 3 -->
<g id="node4" class="node"><title>3</title>
<ellipse fill="cadetblue" stroke="black" cx="115.779" cy="-189.138" rx="21.4286" ry="21.4286"/>
<text text-anchor="middle" x="115.779" y="-184.138" font-family="Times New Roman,serif" font-size="20.00">2</text>
</g>
<!-- 3&#45;&gt;0 -->
<g id="edge1" class="edge"><title>3&#45;&gt;0</title>
<path fill="none" stroke="black" stroke-width="2" d="M134.248,-177.861C148.427,-169.203 168.224,-157.115 184.236,-147.339"/>
<polygon fill="black" stroke="black" stroke-width="2" points="186.444,-150.091 193.155,-141.893 182.796,-144.117 186.444,-150.091"/>
</g>
<!-- 3&#45;&gt;1 -->
<g id="edge4" class="edge"><title>3&#45;&gt;1</title>
<path fill="none" stroke="black" stroke-width="2" d="M94.4713,-189.126C86.6491,-189.121 77.6222,-189.116 69.1049,-189.11"/>
<polygon fill="black" stroke="black" stroke-width="2" points="69.0857,-185.611 59.0836,-189.104 69.0815,-192.611 69.0857,-185.611"/>
</g>
<!-- 3&#45;&gt;7 -->
<g id="edge14" class="edge"><title>3&#45;&gt;7</title>
<path fill="none" stroke="black" stroke-width="2" d="M100.163,-174.233C84.9689,-159.73 61.6998,-137.519 44.3544,-120.962"/>
<polygon fill="black" stroke="black" stroke-width="2" points="46.5023,-118.174 36.852,-113.801 41.6691,-123.238 46.5023,-118.174"/>
</g>
<!-- 4 -->
<g id="node5" class="node"><title>4</title>
<ellipse fill="brown" stroke="black" cx="138.864" cy="-45.8727" rx="21.4286" ry="21.4286"/>
<text text-anchor="middle" x="138.864" y="-40.8727" font-family="Times New Roman,serif" font-size="20.00">3</text>
</g>
<!-- 4&#45;&gt;0 -->
<g id="edge2" class="edge"><title>4&#45;&gt;0</title>
<path fill="none" stroke="black" stroke-width="2" d="M152.882,-62.2186C163.644,-74.7678 178.669,-92.289 190.822,-106.46"/>
<polygon fill="black" stroke="black" stroke-width="2" points="188.425,-109.042 197.592,-114.354 193.739,-104.485 188.425,-109.042"/>
</g>
<!-- 4&#45;&gt;2 -->
<g id="edge8" class="edge"><title>4&#45;&gt;2</title>
<path fill="none" stroke="black" stroke-width="2" d="M118.585,-39.0036C111.565,-36.6255 103.541,-33.9077 95.9144,-31.3243"/>
<polygon fill="black" stroke="black" stroke-width="2" points="96.8288,-27.9387 86.2345,-28.0454 94.5829,-34.5687 96.8288,-27.9387"/>
</g>
<!-- 5&#45;&gt;1 -->
<g id="edge5" class="edge"><title>5&#45;&gt;1</title>
<path fill="none" stroke="black" stroke-width="2" d="M63.279,-129.46C59.3333,-138.695 54.5454,-149.902 50.1901,-160.096"/>
<polygon fill="black" stroke="black" stroke-width="2" points="46.8988,-158.891 46.1885,-169.462 53.336,-161.641 46.8988,-158.891"/>
</g>
<!-- 5&#45;&gt;3 -->
<g id="edge12" class="edge"><title>5&#45;&gt;3</title>
<path fill="none" stroke="black" stroke-width="2" d="M82.1039,-128.663C87.6002,-138.533 94.4397,-150.816 100.516,-161.729"/>
<polygon fill="black" stroke="black" stroke-width="2" points="97.4719,-163.456 105.395,-170.49 103.588,-160.05 97.4719,-163.456"/>
</g>
<!-- 5&#45;&gt;4 -->
<g id="edge15" class="edge"><title>5&#45;&gt;4</title>
<path fill="none" stroke="black" stroke-width="2" d="M87.2351,-95.0341C95.8039,-86.8749 106.591,-76.6031 116.087,-67.5613"/>
<polygon fill="black" stroke="black" stroke-width="2" points="118.53,-70.0681 123.358,-60.6375 113.703,-64.9987 118.53,-70.0681"/>
</g>
<!-- 6&#45;&gt;2 -->
<g id="edge10" class="edge"><title>6&#45;&gt;2</title>
<path fill="none" stroke="black" stroke-width="2" d="M122.747,-101.279C112.115,-86.2601 96.6131,-64.3639 84.5074,-47.2643"/>
<polygon fill="black" stroke="black" stroke-width="2" points="87.1649,-44.9607 78.5302,-38.8213 81.4517,-49.0054 87.1649,-44.9607"/>
</g>
<!-- 6&#45;&gt;3 -->
<g id="edge13" class="edge"><title>6&#45;&gt;3</title>
<path fill="none" stroke="black" stroke-width="2" d="M129.398,-139.459C127.763,-145.424 125.944,-152.059 124.182,-158.487"/>
<polygon fill="black" stroke="black" stroke-width="2" points="120.762,-157.724 121.494,-168.293 127.513,-159.574 120.762,-157.724"/>
</g>
<!-- 6&#45;&gt;4 -->
<g id="edge16" class="edge"><title>6&#45;&gt;4</title>
<path fill="none" stroke="black" stroke-width="2" d="M136.2,-97.2497C136.52,-91.0812 136.876,-84.2196 137.22,-77.5715"/>
<polygon fill="black" stroke="black" stroke-width="2" points="140.723,-77.5982 137.746,-67.4303 133.733,-77.2356 140.723,-77.5982"/>
</g>
<!-- 7&#45;&gt;4 -->
<g id="edge17" class="edge"><title>7&#45;&gt;4</title>
<path fill="none" stroke="black" stroke-width="2" d="M40.6409,-90.1216C59.5445,-81.6057 88.494,-68.5641 110.074,-58.8426"/>
<polygon fill="black" stroke="black" stroke-width="2" points="111.728,-61.9363 119.408,-54.6377 108.852,-55.554 111.728,-61.9363"/>
</g>
<!-- 7&#45;&gt;5 -->
<g id="edge18" class="edge"><title>7&#45;&gt;5</title>
<path fill="none" stroke="black" stroke-width="2" d="M42.0168,-103.414C42.1083,-103.434 42.2,-103.454 42.2917,-103.474"/>
<polygon fill="black" stroke="black" stroke-width="2" points="40.3726,-106.637 50.8889,-105.35 41.8651,-99.7981 40.3726,-106.637"/>
</g>
</g>
</svg>

