<?xml version="1.0" encoding="UTF-8" standalone="no"?>
<!DOCTYPE svg PUBLIC "-//W3C//DTD SVG 1.1//EN"
 "http://www.w3.org/Graphics/SVG/1.1/DTD/svg11.dtd">
<!-- Generated by graphviz version 2.36.0 (20140111.2315)
 -->
<!-- Title: G Pages: 1 -->
<svg width="100%" height="100%"
 viewBox="0.00 0.00 268.93 218.31" xmlns="http://www.w3.org/2000/svg" xmlns:xlink="http://www.w3.org/1999/xlink">
<g id="graph0" class="graph" transform="scale(1 1) rotate(0) translate(4 214.308)">
<title>G</title>
<!-- 0 -->
<g id="node1" class="node"><title>0</title>
<ellipse fill="cadetblue" stroke="black" cx="158.405" cy="-189.095" rx="21.4286" ry="21.4286"/>
<text text-anchor="middle" x="158.405" y="-184.095" font-family="Times New Roman,serif" font-size="20.00">2</text>
</g>
<!-- 5 -->
<g id="node6" class="node"><title>5</title>
<ellipse fill="cadetblue" stroke="black" cx="101.814" cy="-110.775" rx="21.4286" ry="21.4286"/>
<text text-anchor="middle" x="101.814" y="-105.775" font-family="Times New Roman,serif" font-size="20.00">2</text>
</g>
<!-- 0&#45;&gt;5 -->
<g id="edge3" class="edge"><title>0&#45;&gt;5</title>
<path fill="none" stroke="black" stroke-width="2" d="M145.846,-171.713C138.373,-161.37 128.752,-148.056 120.411,-136.512"/>
<polygon fill="black" stroke="black" stroke-width="2" points="123.032,-134.163 114.339,-128.108 117.358,-138.263 123.032,-134.163"/>
</g>
<!-- 6 -->
<g id="node7" class="node"><title>6</title>
<ellipse fill="cadetblue" stroke="black" cx="152.246" cy="-88.4543" rx="21.4286" ry="21.4286"/>
<text text-anchor="middle" x="152.246" y="-83.4543" font-family="Times New Roman,serif" font-size="20.00">2</text>
</g>
<!-- 0&#45;&gt;6 -->
<g id="edge4" class="edge"><title>0&#45;&gt;6</title>
<path fill="none" stroke="black" stroke-width="2" d="M157.099,-167.751C156.25,-153.875 155.127,-135.538 154.176,-119.993"/>
<polygon fill="black" stroke="black" stroke-width="2" points="157.655,-119.534 153.55,-109.767 150.668,-119.962 157.655,-119.534"/>
</g>
<!-- 1 -->
<g id="node2" class="node"><title>1</title>
<ellipse fill="cadetblue" stroke="black" cx="21.2132" cy="-83.408" rx="21.4286" ry="21.4286"/>
<text text-anchor="middle" x="21.2132" y="-78.408" font-family="Times New Roman,serif" font-size="20.00">2</text>
</g>
<!-- 1&#45;&gt;6 -->
<g id="edge7" class="edge"><title>1&#45;&gt;6</title>
<path fill="none" stroke="black" stroke-width="2" d="M42.4682,-83.3063C58.7518,-83.3209 81.7715,-83.5409 101.931,-84.4707 107.987,-84.75 114.445,-85.1693 120.645,-85.6325"/>
<polygon fill="black" stroke="black" stroke-width="2" points="120.472,-89.1298 130.719,-86.4366 121.029,-82.152 120.472,-89.1298"/>
</g>
<!-- 7 -->
<g id="node8" class="node"><title>7</title>
<ellipse fill="brown" stroke="black" cx="78.7463" cy="-32.1902" rx="21.4286" ry="21.4286"/>
<text text-anchor="middle" x="78.7463" y="-27.1902" font-family="Times New Roman,serif" font-size="20.00">3</text>
</g>
<!-- 1&#45;&gt;7 -->
<g id="edge8" class="edge"><title>1&#45;&gt;7</title>
<path fill="none" stroke="black" stroke-width="2" d="M37.2394,-69.141C42.7255,-64.2571 48.9863,-58.6834 54.9528,-53.3719"/>
<polygon fill="black" stroke="black" stroke-width="2" points="57.6642,-55.6441 62.8061,-46.3807 53.0097,-50.4157 57.6642,-55.6441"/>
</g>
<!-- 2 -->
<g id="node3" class="node"><title>2</title>
<ellipse fill="cadetblue" stroke="black" cx="182.785" cy="-21.2132" rx="21.4286" ry="21.4286"/>
<text text-anchor="middle" x="182.785" y="-16.2132" font-family="Times New Roman,serif" font-size="20.00">2</text>
</g>
<!-- 4 -->
<g id="node5" class="node"><title>4</title>
<ellipse fill="cadetblue" stroke="black" cx="239.717" cy="-116.03" rx="21.4286" ry="21.4286"/>
<text text-anchor="middle" x="239.717" y="-111.03" font-family="Times New Roman,serif" font-size="20.00">2</text>
</g>
<!-- 2&#45;&gt;4 -->
<g id="edge9" class="edge"><title>2&#45;&gt;4</title>
<path fill="none" stroke="black" stroke-width="2" d="M193.762,-39.4949C202.189,-53.5303 213.956,-73.1265 223.472,-88.9762"/>
<polygon fill="black" stroke="black" stroke-width="2" points="220.625,-91.0333 228.773,-97.8049 226.626,-87.4299 220.625,-91.0333"/>
</g>
<!-- 2&#45;&gt;7 -->
<g id="edge12" class="edge"><title>2&#45;&gt;7</title>
<path fill="none" stroke="black" stroke-width="2" d="M161.48,-23.461C146.753,-25.0149 126.908,-27.1087 110.345,-28.8562"/>
<polygon fill="black" stroke="black" stroke-width="2" points="109.6,-25.4153 100.023,-29.9453 110.335,-32.3767 109.6,-25.4153"/>
</g>
<!-- 3 -->
<g id="node4" class="node"><title>3</title>
<ellipse fill="cadetblue" stroke="black" cx="48.3329" cy="-165.375" rx="21.4286" ry="21.4286"/>
<text text-anchor="middle" x="48.3329" y="-160.375" font-family="Times New Roman,serif" font-size="20.00">2</text>
</g>
<!-- 3&#45;&gt;0 -->
<g id="edge1" class="edge"><title>3&#45;&gt;0</title>
<path fill="none" stroke="black" stroke-width="2" d="M69.2958,-169.893C85.8216,-173.454 109.105,-178.471 127.727,-182.484"/>
<polygon fill="black" stroke="black" stroke-width="2" points="127.008,-185.909 137.521,-184.594 128.482,-179.066 127.008,-185.909"/>
</g>
<!-- 3&#45;&gt;1 -->
<g id="edge5" class="edge"><title>3&#45;&gt;1</title>
<path fill="none" stroke="black" stroke-width="2" d="M41.6292,-145.114C38.4673,-135.557 34.6306,-123.961 31.1405,-113.412"/>
<polygon fill="black" stroke="black" stroke-width="2" points="34.3979,-112.115 27.9338,-103.721 27.7522,-114.314 34.3979,-112.115"/>
</g>
<!-- 4&#45;&gt;0 -->
<g id="edge2" class="edge"><title>4&#45;&gt;0</title>
<path fill="none" stroke="black" stroke-width="2" d="M223.652,-130.466C211.736,-141.173 195.305,-155.938 181.913,-167.971"/>
<polygon fill="black" stroke="black" stroke-width="2" points="179.535,-165.402 174.437,-174.689 184.214,-170.609 179.535,-165.402"/>
</g>
<!-- 5&#45;&gt;1 -->
<g id="edge6" class="edge"><title>5&#45;&gt;1</title>
<path fill="none" stroke="black" stroke-width="2" d="M81.4751,-103.869C72.3113,-100.758 61.3052,-97.0206 51.2207,-93.5966"/>
<polygon fill="black" stroke="black" stroke-width="2" points="52.1401,-90.2125 41.5457,-90.3116 49.8895,-96.8409 52.1401,-90.2125"/>
</g>
<!-- 5&#45;&gt;2 -->
<g id="edge10" class="edge"><title>5&#45;&gt;2</title>
<path fill="none" stroke="black" stroke-width="2" d="M114.357,-93.6463C120.039,-86.1562 126.973,-77.3765 133.668,-69.8322 141.717,-60.7628 151.065,-51.2769 159.433,-43.117"/>
<polygon fill="black" stroke="black" stroke-width="2" points="162.001,-45.5032 166.777,-36.0458 157.145,-40.4608 162.001,-45.5032"/>
</g>
<!-- 5&#45;&gt;3 -->
<g id="edge13" class="edge"><title>5&#45;&gt;3</title>
<path fill="none" stroke="black" stroke-width="2" d="M86.9167,-125.984C81.9019,-131.104 76.1908,-136.935 70.7282,-142.511"/>
<polygon fill="black" stroke="black" stroke-width="2" points="68.0192,-140.275 63.5221,-149.868 73.02,-145.173 68.0192,-140.275"/>
</g>
<!-- 6&#45;&gt;2 -->
<g id="edge11" class="edge"><title>6&#45;&gt;2</title>
<path fill="none" stroke="black" stroke-width="2" d="M161.079,-69.0054C163.777,-63.0638 166.804,-56.3993 169.721,-49.9764"/>
<polygon fill="black" stroke="black" stroke-width="2" points="172.917,-51.4037 173.866,-40.8514 166.544,-48.509 172.917,-51.4037"/>
</g>
<!-- 6&#45;&gt;4 -->
<g id="edge15" class="edge"><title>6&#45;&gt;4</title>
<path fill="none" stroke="black" stroke-width="2" d="M172.533,-94.8502C183.494,-98.3058 197.245,-102.641 209.447,-106.488"/>
<polygon fill="black" stroke="black" stroke-width="2" points="208.647,-109.905 219.236,-109.574 210.751,-103.229 208.647,-109.905"/>
</g>
<!-- 6&#45;&gt;7 -->
<g id="edge17" class="edge"><title>6&#45;&gt;7</title>
<path fill="none" stroke="black" stroke-width="2" d="M135.199,-75.4048C125.829,-68.2325 114.034,-59.2033 103.651,-51.2552"/>
<polygon fill="black" stroke="black" stroke-width="2" points="105.769,-48.4683 95.7008,-45.1689 101.514,-54.0267 105.769,-48.4683"/>
</g>
<!-- 7&#45;&gt;3 -->
<g id="edge14" class="edge"><title>7&#45;&gt;3</title>
<path fill="none" stroke="black" stroke-width="2" d="M73.9942,-53.0004C69.024,-74.7657 61.1658,-109.178 55.4539,-134.191"/>
<polygon fill="black" stroke="black" stroke-width="2" points="51.9661,-133.744 53.152,-144.272 58.7905,-135.302 51.9661,-133.744"/>
</g>
<!-- 7&#45;&gt;5 -->
<g id="edge16" class="edge"><title>7&#45;&gt;5</title>
<path fill="none" stroke="black" stroke-width="2" d="M84.8071,-52.8373C87.2971,-61.3199 90.2301,-71.3116 92.9528,-80.5871"/>
<polygon fill="black" stroke="black" stroke-width="2" points="89.6189,-81.6562 95.7938,-90.2655 96.3355,-79.6845 89.6189,-81.6562"/>
</g>
</g>
</svg>

