<?xml version="1.0" encoding="UTF-8" standalone="no"?>
<!DOCTYPE svg PUBLIC "-//W3C//DTD SVG 1.1//EN"
 "http://www.w3.org/Graphics/SVG/1.1/DTD/svg11.dtd">
<!-- Generated by graphviz version 2.36.0 (20140111.2315)
 -->
<!-- Title: G Pages: 1 -->
<svg width="100%" height="100%"
 viewBox="0.00 0.00 237.50 223.40" xmlns="http://www.w3.org/2000/svg" xmlns:xlink="http://www.w3.org/1999/xlink">
<g id="graph0" class="graph" transform="scale(1 1) rotate(0) translate(4 219.404)">
<title>G</title>
<!-- 0 -->
<g id="node1" class="node"><title>0</title>
<ellipse fill="cadetblue" stroke="black" cx="90.5402" cy="-21.2132" rx="21.4286" ry="21.4286"/>
<text text-anchor="middle" x="90.5402" y="-16.2132" font-family="Times New Roman,serif" font-size="20.00">2</text>
</g>
<!-- 6 -->
<g id="node7" class="node"><title>6</title>
<ellipse fill="cadetblue" stroke="black" cx="154.546" cy="-40.6758" rx="21.4286" ry="21.4286"/>
<text text-anchor="middle" x="154.546" y="-35.6758" font-family="Times New Roman,serif" font-size="20.00">2</text>
</g>
<!-- 0&#45;&gt;6 -->
<g id="edge3" class="edge"><title>0&#45;&gt;6</title>
<path fill="none" stroke="black" stroke-width="2" d="M111.144,-27.4784C115.37,-28.7633 119.9,-30.1409 124.383,-31.5038"/>
<polygon fill="black" stroke="black" stroke-width="2" points="123.395,-34.8617 133.981,-34.4223 125.431,-28.1644 123.395,-34.8617"/>
</g>
<!-- 7 -->
<g id="node8" class="node"><title>7</title>
<ellipse fill="cadetblue" stroke="black" cx="119.962" cy="-104.991" rx="21.4286" ry="21.4286"/>
<text text-anchor="middle" x="119.962" y="-99.9911" font-family="Times New Roman,serif" font-size="20.00">2</text>
</g>
<!-- 0&#45;&gt;7 -->
<g id="edge4" class="edge"><title>0&#45;&gt;7</title>
<path fill="none" stroke="black" stroke-width="2" d="M97.6623,-41.4935C101.24,-51.6812 105.642,-64.2171 109.588,-75.4516"/>
<polygon fill="black" stroke="black" stroke-width="2" points="106.289,-76.6222 112.905,-84.8976 112.894,-74.3027 106.289,-76.6222"/>
</g>
<!-- 1 -->
<g id="node2" class="node"><title>1</title>
<ellipse fill="cadetblue" stroke="black" cx="46.3644" cy="-78.8126" rx="21.4286" ry="21.4286"/>
<text text-anchor="middle" x="46.3644" y="-73.8126" font-family="Times New Roman,serif" font-size="20.00">2</text>
</g>
<!-- 5 -->
<g id="node6" class="node"><title>5</title>
<ellipse fill="cadetblue" stroke="black" cx="80.6019" cy="-194.191" rx="21.4286" ry="21.4286"/>
<text text-anchor="middle" x="80.6019" y="-189.191" font-family="Times New Roman,serif" font-size="20.00">2</text>
</g>
<!-- 1&#45;&gt;5 -->
<g id="edge6" class="edge"><title>1&#45;&gt;5</title>
<path fill="none" stroke="black" stroke-width="2" d="M52.4066,-99.1743C57.7275,-117.105 65.5504,-143.468 71.607,-163.878"/>
<polygon fill="black" stroke="black" stroke-width="2" points="68.3047,-165.053 74.505,-173.644 75.0155,-163.062 68.3047,-165.053"/>
</g>
<!-- 1&#45;&gt;7 -->
<g id="edge8" class="edge"><title>1&#45;&gt;7</title>
<path fill="none" stroke="black" stroke-width="2" d="M66.4752,-85.966C73.858,-88.592 82.3778,-91.6225 90.4167,-94.482"/>
<polygon fill="black" stroke="black" stroke-width="2" points="89.2804,-97.7926 99.8751,-97.8463 91.6264,-91.1974 89.2804,-97.7926"/>
</g>
<!-- 2 -->
<g id="node3" class="node"><title>2</title>
<ellipse fill="cadetblue" stroke="black" cx="184.185" cy="-155.533" rx="21.4286" ry="21.4286"/>
<text text-anchor="middle" x="184.185" y="-150.533" font-family="Times New Roman,serif" font-size="20.00">2</text>
</g>
<!-- 4 -->
<g id="node5" class="node"><title>4</title>
<ellipse fill="cadetblue" stroke="black" cx="208.289" cy="-68.2383" rx="21.4286" ry="21.4286"/>
<text text-anchor="middle" x="208.289" y="-63.2383" font-family="Times New Roman,serif" font-size="20.00">2</text>
</g>
<!-- 2&#45;&gt;4 -->
<g id="edge9" class="edge"><title>2&#45;&gt;4</title>
<path fill="none" stroke="black" stroke-width="2" d="M189.897,-134.845C192.899,-123.974 196.634,-110.446 199.953,-98.4268"/>
<polygon fill="black" stroke="black" stroke-width="2" points="203.33,-99.3483 202.618,-88.7774 196.582,-97.485 203.33,-99.3483"/>
</g>
<!-- 2&#45;&gt;5 -->
<g id="edge10" class="edge"><title>2&#45;&gt;5</title>
<path fill="none" stroke="black" stroke-width="2" d="M164.213,-162.986C148.88,-168.709 127.472,-176.698 110.157,-183.16"/>
<polygon fill="black" stroke="black" stroke-width="2" points="108.657,-179.984 100.512,-186.76 111.105,-186.542 108.657,-179.984"/>
</g>
<!-- 3 -->
<g id="node4" class="node"><title>3</title>
<ellipse fill="cadetblue" stroke="black" cx="21.2132" cy="-129.244" rx="21.4286" ry="21.4286"/>
<text text-anchor="middle" x="21.2132" y="-124.244" font-family="Times New Roman,serif" font-size="20.00">2</text>
</g>
<!-- 3&#45;&gt;0 -->
<g id="edge1" class="edge"><title>3&#45;&gt;0</title>
<path fill="none" stroke="black" stroke-width="2" d="M40.063,-118.789C48.5468,-113.333 58.1486,-106.011 64.8965,-97.4802 75.1767,-84.4835 81.4358,-67.1555 85.1931,-52.301"/>
<polygon fill="black" stroke="black" stroke-width="2" points="88.6184,-53.0219 87.4133,-42.4958 81.7912,-51.476 88.6184,-53.0219"/>
</g>
<!-- 3&#45;&gt;1 -->
<g id="edge5" class="edge"><title>3&#45;&gt;1</title>
<path fill="none" stroke="black" stroke-width="2" d="M30.7218,-110.178C31.2226,-109.174 31.7303,-108.156 32.2415,-107.131"/>
<polygon fill="black" stroke="black" stroke-width="2" points="35.5114,-108.416 36.8424,-97.9055 29.2472,-105.292 35.5114,-108.416"/>
</g>
<!-- 4&#45;&gt;0 -->
<g id="edge2" class="edge"><title>4&#45;&gt;0</title>
<path fill="none" stroke="black" stroke-width="2" d="M186.882,-69.5381C176.94,-69.6844 165.021,-69.2046 154.515,-66.9802 138.819,-63.657 124.056,-53.7449 112.675,-43.9915"/>
<polygon fill="black" stroke="black" stroke-width="2" points="114.769,-41.1643 105.021,-37.014 110.053,-46.3375 114.769,-41.1643"/>
</g>
<!-- 5&#45;&gt;3 -->
<g id="edge13" class="edge"><title>5&#45;&gt;3</title>
<path fill="none" stroke="black" stroke-width="2" d="M66.2256,-178.469C59.1818,-170.766 50.5544,-161.331 42.744,-152.79"/>
<polygon fill="black" stroke="black" stroke-width="2" points="45.201,-150.29 35.8697,-145.272 40.0351,-155.014 45.201,-150.29"/>
</g>
<!-- 6&#45;&gt;1 -->
<g id="edge7" class="edge"><title>6&#45;&gt;1</title>
<path fill="none" stroke="black" stroke-width="2" d="M134.452,-47.7597C118.084,-53.5296 94.7331,-61.7614 76.1852,-68.3"/>
<polygon fill="black" stroke="black" stroke-width="2" points="74.986,-65.0116 66.7186,-71.6372 77.3134,-71.6134 74.986,-65.0116"/>
</g>
<!-- 6&#45;&gt;2 -->
<g id="edge11" class="edge"><title>6&#45;&gt;2</title>
<path fill="none" stroke="black" stroke-width="2" d="M159.914,-61.4755C164.488,-79.2015 171.124,-104.918 176.301,-124.983"/>
<polygon fill="black" stroke="black" stroke-width="2" points="172.97,-126.079 178.857,-134.888 179.748,-124.33 172.97,-126.079"/>
</g>
<!-- 7&#45;&gt;2 -->
<g id="edge12" class="edge"><title>7&#45;&gt;2</title>
<path fill="none" stroke="black" stroke-width="2" d="M136.835,-118.27C143.713,-123.683 151.805,-130.051 159.335,-135.976"/>
<polygon fill="black" stroke="black" stroke-width="2" points="157.178,-138.733 167.2,-142.167 161.507,-133.232 157.178,-138.733"/>
</g>
<!-- 7&#45;&gt;3 -->
<g id="edge14" class="edge"><title>7&#45;&gt;3</title>
<path fill="none" stroke="black" stroke-width="2" d="M99.0196,-110.135C85.4038,-113.479 67.4119,-117.897 52.1594,-121.644"/>
<polygon fill="black" stroke="black" stroke-width="2" points="51.0016,-118.324 42.125,-124.108 52.6712,-125.122 51.0016,-118.324"/>
</g>
<!-- 7&#45;&gt;4 -->
<g id="edge15" class="edge"><title>7&#45;&gt;4</title>
<path fill="none" stroke="black" stroke-width="2" d="M139.564,-96.8345C151.147,-92.0148 166.036,-85.8198 178.992,-80.4289"/>
<polygon fill="black" stroke="black" stroke-width="2" points="180.548,-83.5724 188.436,-76.4993 177.858,-77.1096 180.548,-83.5724"/>
</g>
<!-- 7&#45;&gt;6 -->
<g id="edge16" class="edge"><title>7&#45;&gt;6</title>
<path fill="none" stroke="black" stroke-width="2" d="M130.151,-86.0422C133.08,-80.5954 136.338,-74.5366 139.495,-68.6662"/>
<polygon fill="black" stroke="black" stroke-width="2" points="142.657,-70.1765 144.31,-59.7115 136.491,-66.8612 142.657,-70.1765"/>
</g>
</g>
</svg>

