<?xml version="1.0" encoding="UTF-8" standalone="no"?>
<!DOCTYPE svg PUBLIC "-//W3C//DTD SVG 1.1//EN"
 "http://www.w3.org/Graphics/SVG/1.1/DTD/svg11.dtd">
<!-- Generated by graphviz version 2.36.0 (20140111.2315)
 -->
<!-- Title: G Pages: 1 -->
<svg width="100%" height="100%"
 viewBox="0.00 0.00 203.72 236.73" xmlns="http://www.w3.org/2000/svg" xmlns:xlink="http://www.w3.org/1999/xlink">
<g id="graph0" class="graph" transform="scale(1 1) rotate(0) translate(4 232.73)">
<title>G</title>
<!-- 0 -->
<g id="node1" class="node"><title>0</title>
<ellipse fill="cadetblue" stroke="black" cx="62.5937" cy="-175.335" rx="21.4286" ry="21.4286"/>
<text text-anchor="middle" x="62.5937" y="-170.335" font-family="Times New Roman,serif" font-size="20.00">2</text>
</g>
<!-- 5 -->
<g id="node6" class="node"><title>5</title>
<ellipse fill="brown" stroke="black" cx="21.2132" cy="-124.571" rx="21.4286" ry="21.4286"/>
<text text-anchor="middle" x="21.2132" y="-119.571" font-family="Times New Roman,serif" font-size="20.00">3</text>
</g>
<!-- 0&#45;&gt;5 -->
<g id="edge3" class="edge"><title>0&#45;&gt;5</title>
<path fill="none" stroke="black" stroke-width="2" d="M49.0442,-158.713C46.5177,-155.614 43.8293,-152.316 41.1574,-149.038"/>
<polygon fill="black" stroke="black" stroke-width="2" points="43.6831,-146.597 34.6518,-141.057 38.2573,-151.02 43.6831,-146.597"/>
</g>
<!-- 6 -->
<g id="node7" class="node"><title>6</title>
<ellipse fill="cadetblue" stroke="black" cx="174.508" cy="-125.746" rx="21.4286" ry="21.4286"/>
<text text-anchor="middle" x="174.508" y="-120.746" font-family="Times New Roman,serif" font-size="20.00">2</text>
</g>
<!-- 0&#45;&gt;6 -->
<g id="edge4" class="edge"><title>0&#45;&gt;6</title>
<path fill="none" stroke="black" stroke-width="2" d="M82.0877,-166.698C99.6326,-158.923 125.648,-147.396 145.612,-138.55"/>
<polygon fill="black" stroke="black" stroke-width="2" points="147.137,-141.702 154.862,-134.451 144.301,-135.302 147.137,-141.702"/>
</g>
<!-- 7 -->
<g id="node8" class="node"><title>7</title>
<ellipse fill="cadetblue" stroke="black" cx="44.1577" cy="-58.3396" rx="21.4286" ry="21.4286"/>
<text text-anchor="middle" x="44.1577" y="-53.3396" font-family="Times New Roman,serif" font-size="20.00">2</text>
</g>
<!-- 0&#45;&gt;7 -->
<g id="edge5" class="edge"><title>0&#45;&gt;7</title>
<path fill="none" stroke="black" stroke-width="2" d="M59.2551,-154.148C56.4098,-136.092 52.282,-109.897 49.0614,-89.4584"/>
<polygon fill="black" stroke="black" stroke-width="2" points="52.4855,-88.7023 47.4715,-79.369 45.5708,-89.792 52.4855,-88.7023"/>
</g>
<!-- 1 -->
<g id="node2" class="node"><title>1</title>
<ellipse fill="cadetblue" stroke="black" cx="168.761" cy="-37.7819" rx="21.4286" ry="21.4286"/>
<text text-anchor="middle" x="168.761" y="-32.7819" font-family="Times New Roman,serif" font-size="20.00">2</text>
</g>
<!-- 1&#45;&gt;7 -->
<g id="edge8" class="edge"><title>1&#45;&gt;7</title>
<path fill="none" stroke="black" stroke-width="2" d="M147.624,-41.2693C127.843,-44.5327 98.0426,-49.4494 75.4963,-53.1692"/>
<polygon fill="black" stroke="black" stroke-width="2" points="74.6955,-49.7539 65.3987,-54.8351 75.8351,-56.6605 74.6955,-49.7539"/>
</g>
<!-- 2 -->
<g id="node3" class="node"><title>2</title>
<ellipse fill="cadetblue" stroke="black" cx="94.5892" cy="-21.2132" rx="21.4286" ry="21.4286"/>
<text text-anchor="middle" x="94.5892" y="-16.2132" font-family="Times New Roman,serif" font-size="20.00">2</text>
</g>
<!-- 2&#45;&gt;6 -->
<g id="edge10" class="edge"><title>2&#45;&gt;6</title>
<path fill="none" stroke="black" stroke-width="2" d="M107.786,-38.4746C120.762,-55.4472 140.707,-81.5341 155.412,-100.768"/>
<polygon fill="black" stroke="black" stroke-width="2" points="152.702,-102.987 161.557,-108.805 158.263,-98.7354 152.702,-102.987"/>
</g>
<!-- 3 -->
<g id="node4" class="node"><title>3</title>
<ellipse fill="cadetblue" stroke="black" cx="121.209" cy="-207.517" rx="21.4286" ry="21.4286"/>
<text text-anchor="middle" x="121.209" y="-202.517" font-family="Times New Roman,serif" font-size="20.00">2</text>
</g>
<!-- 3&#45;&gt;0 -->
<g id="edge1" class="edge"><title>3&#45;&gt;0</title>
<path fill="none" stroke="black" stroke-width="2" d="M102.34,-197.157C98.4707,-195.033 94.3217,-192.755 90.217,-190.501"/>
<polygon fill="black" stroke="black" stroke-width="2" points="91.8776,-187.42 81.4274,-185.676 88.5087,-193.556 91.8776,-187.42"/>
</g>
<!-- 3&#45;&gt;5 -->
<g id="edge13" class="edge"><title>3&#45;&gt;5</title>
<path fill="none" stroke="black" stroke-width="2" d="M109.801,-189.541C102.527,-179.07 92.3868,-166.126 81.2107,-156.752 71.9887,-149.018 60.6104,-142.345 50.2503,-137.113"/>
<polygon fill="black" stroke="black" stroke-width="2" points="51.6427,-133.899 41.1133,-132.723 48.6116,-140.208 51.6427,-133.899"/>
</g>
<!-- 4 -->
<g id="node5" class="node"><title>4</title>
<ellipse fill="cadetblue" stroke="black" cx="109.048" cy="-117.08" rx="21.4286" ry="21.4286"/>
<text text-anchor="middle" x="109.048" y="-112.08" font-family="Times New Roman,serif" font-size="20.00">2</text>
</g>
<!-- 4&#45;&gt;0 -->
<g id="edge2" class="edge"><title>4&#45;&gt;0</title>
<path fill="none" stroke="black" stroke-width="2" d="M95.6112,-133.93C91.4343,-139.168 86.7405,-145.054 82.2315,-150.709"/>
<polygon fill="black" stroke="black" stroke-width="2" points="79.3377,-148.724 75.8395,-158.725 84.8106,-153.088 79.3377,-148.724"/>
</g>
<!-- 4&#45;&gt;1 -->
<g id="edge6" class="edge"><title>4&#45;&gt;1</title>
<path fill="none" stroke="black" stroke-width="2" d="M122.004,-99.8739C130.064,-89.1707 140.574,-75.2142 149.587,-63.2446"/>
<polygon fill="black" stroke="black" stroke-width="2" points="152.61,-65.0488 155.829,-54.955 147.018,-60.838 152.61,-65.0488"/>
</g>
<!-- 4&#45;&gt;3 -->
<g id="edge12" class="edge"><title>4&#45;&gt;3</title>
<path fill="none" stroke="black" stroke-width="2" d="M111.93,-138.513C113.444,-149.775 115.329,-163.79 117.003,-176.242"/>
<polygon fill="black" stroke="black" stroke-width="2" points="113.546,-176.794 118.348,-186.238 120.484,-175.861 113.546,-176.794"/>
</g>
<!-- 5&#45;&gt;2 -->
<g id="edge9" class="edge"><title>5&#45;&gt;2</title>
<path fill="none" stroke="black" stroke-width="2" d="M36.2736,-108.915C44.5559,-99.9225 54.7449,-88.2079 62.7569,-76.9404 68.8908,-68.314 74.8559,-58.4158 79.9327,-49.3776"/>
<polygon fill="black" stroke="black" stroke-width="2" points="83.1378,-50.8116 84.8715,-40.3596 76.9982,-47.4492 83.1378,-50.8116"/>
</g>
<!-- 5&#45;&gt;4 -->
<g id="edge15" class="edge"><title>5&#45;&gt;4</title>
<path fill="none" stroke="black" stroke-width="2" d="M42.4754,-122.758C52.9708,-121.863 65.8432,-120.765 77.4624,-119.774"/>
<polygon fill="black" stroke="black" stroke-width="2" points="78.0103,-123.24 87.6767,-118.903 77.4154,-116.266 78.0103,-123.24"/>
</g>
<!-- 6&#45;&gt;1 -->
<g id="edge7" class="edge"><title>6&#45;&gt;1</title>
<path fill="none" stroke="black" stroke-width="2" d="M173.117,-104.452C172.43,-93.9413 171.588,-81.0499 170.828,-69.4136"/>
<polygon fill="black" stroke="black" stroke-width="2" points="174.304,-68.9348 170.159,-59.1843 167.319,-69.3912 174.304,-68.9348"/>
</g>
<!-- 6&#45;&gt;3 -->
<g id="edge14" class="edge"><title>6&#45;&gt;3</title>
<path fill="none" stroke="black" stroke-width="2" d="M162.679,-143.893C155.523,-154.873 146.275,-169.061 138.329,-181.252"/>
<polygon fill="black" stroke="black" stroke-width="2" points="135.35,-179.412 132.822,-189.701 141.214,-183.235 135.35,-179.412"/>
</g>
<!-- 7&#45;&gt;2 -->
<g id="edge11" class="edge"><title>7&#45;&gt;2</title>
<path fill="none" stroke="black" stroke-width="2" d="M61.5134,-45.5628C63.9975,-43.734 66.5948,-41.822 69.1946,-39.9081"/>
<polygon fill="black" stroke="black" stroke-width="2" points="71.3942,-42.6349 77.3724,-33.8878 67.2442,-36.9977 71.3942,-42.6349"/>
</g>
<!-- 7&#45;&gt;4 -->
<g id="edge16" class="edge"><title>7&#45;&gt;4</title>
<path fill="none" stroke="black" stroke-width="2" d="M60.1979,-72.8598C67.8987,-79.8309 77.2728,-88.3167 85.7422,-95.9835"/>
<polygon fill="black" stroke="black" stroke-width="2" points="83.4293,-98.6109 93.1919,-102.727 88.1271,-93.4214 83.4293,-98.6109"/>
</g>
<!-- 7&#45;&gt;5 -->
<g id="edge17" class="edge"><title>7&#45;&gt;5</title>
<path fill="none" stroke="black" stroke-width="2" d="M37.1489,-78.5712C35.3698,-83.7069 33.421,-89.3324 31.5156,-94.8323"/>
<polygon fill="black" stroke="black" stroke-width="2" points="28.1454,-93.869 28.1791,-104.464 34.7597,-96.1604 28.1454,-93.869"/>
</g>
</g>
</svg>

