<?xml version="1.0" encoding="UTF-8" standalone="no"?>
<!DOCTYPE svg PUBLIC "-//W3C//DTD SVG 1.1//EN"
 "http://www.w3.org/Graphics/SVG/1.1/DTD/svg11.dtd">
<!-- Generated by graphviz version 2.36.0 (20140111.2315)
 -->
<!-- Title: G Pages: 1 -->
<svg width="100%" height="100%"
 viewBox="0.00 0.00 213.89 216.23" xmlns="http://www.w3.org/2000/svg" xmlns:xlink="http://www.w3.org/1999/xlink">
<g id="graph0" class="graph" transform="scale(1 1) rotate(0) translate(4 212.233)">
<title>G</title>
<!-- 0 -->
<g id="node1" class="node"><title>0</title>
<ellipse fill="cadetblue" stroke="black" cx="91.2927" cy="-99.2344" rx="21.4286" ry="21.4286"/>
<text text-anchor="middle" x="91.2927" y="-94.2344" font-family="Times New Roman,serif" font-size="20.00">2</text>
</g>
<!-- 3 -->
<g id="node4" class="node"><title>3</title>
<ellipse fill="cadetblue" stroke="black" cx="142.053" cy="-179.832" rx="21.4286" ry="21.4286"/>
<text text-anchor="middle" x="142.053" y="-174.832" font-family="Times New Roman,serif" font-size="20.00">2</text>
</g>
<!-- 0&#45;&gt;3 -->
<g id="edge1" class="edge"><title>0&#45;&gt;3</title>
<path fill="none" stroke="black" stroke-width="2" d="M102.811,-117.523C109.431,-128.034 117.865,-141.427 125.217,-153.1"/>
<polygon fill="black" stroke="black" stroke-width="2" points="122.289,-155.019 130.58,-161.615 128.212,-151.288 122.289,-155.019"/>
</g>
<!-- 4 -->
<g id="node5" class="node"><title>4</title>
<ellipse fill="brown" stroke="black" cx="184.672" cy="-122.279" rx="21.4286" ry="21.4286"/>
<text text-anchor="middle" x="184.672" y="-117.279" font-family="Times New Roman,serif" font-size="20.00">3</text>
</g>
<!-- 0&#45;&gt;4 -->
<g id="edge2" class="edge"><title>0&#45;&gt;4</title>
<path fill="none" stroke="black" stroke-width="2" d="M112.017,-104.349C124.348,-107.392 140.222,-111.309 153.986,-114.706"/>
<polygon fill="black" stroke="black" stroke-width="2" points="153.459,-118.181 164.006,-117.179 155.136,-111.385 153.459,-118.181"/>
</g>
<!-- 1 -->
<g id="node2" class="node"><title>1</title>
<ellipse fill="cadetblue" stroke="black" cx="86.309" cy="-187.02" rx="21.4286" ry="21.4286"/>
<text text-anchor="middle" x="86.309" y="-182.02" font-family="Times New Roman,serif" font-size="20.00">2</text>
</g>
<!-- 1&#45;&gt;4 -->
<g id="edge6" class="edge"><title>1&#45;&gt;4</title>
<path fill="none" stroke="black" stroke-width="2" d="M104,-174.508C110.143,-170.222 117.101,-165.433 123.521,-161.164 134.734,-153.708 147.26,-145.689 158.041,-138.882"/>
<polygon fill="black" stroke="black" stroke-width="2" points="160.018,-141.774 166.62,-133.487 156.291,-135.848 160.018,-141.774"/>
</g>
<!-- 5 -->
<g id="node6" class="node"><title>5</title>
<ellipse fill="cadetblue" stroke="black" cx="21.2132" cy="-123.819" rx="21.4286" ry="21.4286"/>
<text text-anchor="middle" x="21.2132" y="-118.819" font-family="Times New Roman,serif" font-size="20.00">2</text>
</g>
<!-- 1&#45;&gt;5 -->
<g id="edge7" class="edge"><title>1&#45;&gt;5</title>
<path fill="none" stroke="black" stroke-width="2" d="M70.8822,-172.042C62.7753,-164.171 52.6874,-154.377 43.7249,-145.675"/>
<polygon fill="black" stroke="black" stroke-width="2" points="46.1421,-143.144 36.5293,-138.689 41.266,-148.166 46.1421,-143.144"/>
</g>
<!-- 2 -->
<g id="node3" class="node"><title>2</title>
<ellipse fill="cadetblue" stroke="black" cx="91.664" cy="-21.2132" rx="21.4286" ry="21.4286"/>
<text text-anchor="middle" x="91.664" y="-16.2132" font-family="Times New Roman,serif" font-size="20.00">2</text>
</g>
<!-- 6 -->
<g id="node7" class="node"><title>6</title>
<ellipse fill="cadetblue" stroke="black" cx="161.856" cy="-71.8475" rx="21.4286" ry="21.4286"/>
<text text-anchor="middle" x="161.856" y="-66.8475" font-family="Times New Roman,serif" font-size="20.00">2</text>
</g>
<!-- 2&#45;&gt;6 -->
<g id="edge11" class="edge"><title>2&#45;&gt;6</title>
<path fill="none" stroke="black" stroke-width="2" d="M109.015,-33.7295C117.137,-39.5885 126.979,-46.6887 135.958,-53.1655"/>
<polygon fill="black" stroke="black" stroke-width="2" points="134.059,-56.1115 144.217,-59.1234 138.155,-50.4345 134.059,-56.1115"/>
</g>
<!-- 3&#45;&gt;1 -->
<g id="edge5" class="edge"><title>3&#45;&gt;1</title>
<path fill="none" stroke="black" stroke-width="2" d="M120.978,-182.549C119.868,-182.692 118.743,-182.837 117.61,-182.983"/>
<polygon fill="black" stroke="black" stroke-width="2" points="116.883,-179.548 107.413,-184.298 117.779,-186.491 116.883,-179.548"/>
</g>
<!-- 3&#45;&gt;5 -->
<g id="edge13" class="edge"><title>3&#45;&gt;5</title>
<path fill="none" stroke="black" stroke-width="2" d="M122.638,-170.832C102.995,-161.727 72.4031,-147.547 49.9509,-137.14"/>
<polygon fill="black" stroke="black" stroke-width="2" points="51.1246,-133.826 40.58,-132.796 48.1808,-140.177 51.1246,-133.826"/>
</g>
<!-- 3&#45;&gt;6 -->
<g id="edge14" class="edge"><title>3&#45;&gt;6</title>
<path fill="none" stroke="black" stroke-width="2" d="M145.918,-158.755C148.835,-142.849 152.882,-120.781 156.168,-102.863"/>
<polygon fill="black" stroke="black" stroke-width="2" points="159.639,-103.338 158,-92.8711 152.754,-102.076 159.639,-103.338"/>
</g>
<!-- 4&#45;&gt;2 -->
<g id="edge9" class="edge"><title>4&#45;&gt;2</title>
<path fill="none" stroke="black" stroke-width="2" d="M166.789,-110.19C159.09,-104.575 150.232,-97.5375 143.073,-90.2627 130.345,-77.3305 118.128,-61.1347 108.799,-47.6792"/>
<polygon fill="black" stroke="black" stroke-width="2" points="111.62,-45.604 103.109,-39.2946 105.828,-49.5346 111.62,-45.604"/>
</g>
<!-- 4&#45;&gt;3 -->
<g id="edge12" class="edge"><title>4&#45;&gt;3</title>
<path fill="none" stroke="black" stroke-width="2" d="M171.885,-139.547C168.429,-144.213 164.616,-149.363 160.903,-154.377"/>
<polygon fill="black" stroke="black" stroke-width="2" points="157.969,-152.457 154.831,-162.576 163.595,-156.623 157.969,-152.457"/>
</g>
<!-- 5&#45;&gt;0 -->
<g id="edge3" class="edge"><title>5&#45;&gt;0</title>
<path fill="none" stroke="black" stroke-width="2" d="M41.4831,-116.708C47.6756,-114.536 54.6214,-112.099 61.3154,-109.751"/>
<polygon fill="black" stroke="black" stroke-width="2" points="62.548,-113.028 70.8256,-106.414 60.2308,-106.422 62.548,-113.028"/>
</g>
<!-- 5&#45;&gt;2 -->
<g id="edge10" class="edge"><title>5&#45;&gt;2</title>
<path fill="none" stroke="black" stroke-width="2" d="M33.4848,-105.946C44.5972,-89.7621 61.1076,-65.7161 73.7044,-47.3699"/>
<polygon fill="black" stroke="black" stroke-width="2" points="76.758,-49.1059 79.533,-38.8809 70.9873,-45.1436 76.758,-49.1059"/>
</g>
<!-- 6&#45;&gt;0 -->
<g id="edge4" class="edge"><title>6&#45;&gt;0</title>
<path fill="none" stroke="black" stroke-width="2" d="M141.824,-79.6222C135.213,-82.188 127.718,-85.0972 120.562,-87.8744"/>
<polygon fill="black" stroke="black" stroke-width="2" points="119.186,-84.6538 111.13,-91.535 121.719,-91.1796 119.186,-84.6538"/>
</g>
<!-- 6&#45;&gt;1 -->
<g id="edge8" class="edge"><title>6&#45;&gt;1</title>
<path fill="none" stroke="black" stroke-width="2" d="M150.052,-89.8431C137.578,-108.86 117.78,-139.041 103.558,-160.724"/>
<polygon fill="black" stroke="black" stroke-width="2" points="100.589,-158.869 98.0303,-169.15 106.442,-162.708 100.589,-158.869"/>
</g>
<!-- 6&#45;&gt;4 -->
<g id="edge15" class="edge"><title>6&#45;&gt;4</title>
<path fill="none" stroke="black" stroke-width="2" d="M170.612,-91.2014C170.932,-91.9097 171.256,-92.6245 171.581,-93.3435"/>
<polygon fill="black" stroke="black" stroke-width="2" points="168.515,-95.0585 175.826,-102.727 174.893,-92.173 168.515,-95.0585"/>
</g>
</g>
</svg>

