<?xml version="1.0" encoding="UTF-8" standalone="no"?>
<!DOCTYPE svg PUBLIC "-//W3C//DTD SVG 1.1//EN"
 "http://www.w3.org/Graphics/SVG/1.1/DTD/svg11.dtd">
<!-- Generated by graphviz version 2.36.0 (20140111.2315)
 -->
<!-- Title: G Pages: 1 -->
<svg width="100%" height="100%"
 viewBox="0.00 0.00 189.43 227.47" xmlns="http://www.w3.org/2000/svg" xmlns:xlink="http://www.w3.org/1999/xlink">
<g id="graph0" class="graph" transform="scale(1 1) rotate(0) translate(4 223.471)">
<title>G</title>
<!-- 0 -->
<g id="node1" class="node"><title>0</title>
<ellipse fill="cadetblue" stroke="black" cx="73.2039" cy="-84.5622" rx="21.4286" ry="21.4286"/>
<text text-anchor="middle" x="73.2039" y="-79.5622" font-family="Times New Roman,serif" font-size="20.00">2</text>
</g>
<!-- 5 -->
<g id="node6" class="node"><title>5</title>
<ellipse fill="cadetblue" stroke="black" cx="21.2132" cy="-118.332" rx="21.4286" ry="21.4286"/>
<text text-anchor="middle" x="21.2132" y="-113.332" font-family="Times New Roman,serif" font-size="20.00">2</text>
</g>
<!-- 0&#45;&gt;5 -->
<g id="edge3" class="edge"><title>0&#45;&gt;5</title>
<path fill="none" stroke="black" stroke-width="2" d="M55.3116,-96.1839C52.8883,-97.7579 50.3607,-99.3998 47.8252,-101.047"/>
<polygon fill="black" stroke="black" stroke-width="2" points="45.7946,-98.192 39.3149,-106.574 49.6076,-104.062 45.7946,-98.192"/>
</g>
<!-- 6 -->
<g id="node7" class="node"><title>6</title>
<ellipse fill="cadetblue" stroke="black" cx="160.212" cy="-100.342" rx="21.4286" ry="21.4286"/>
<text text-anchor="middle" x="160.212" y="-95.3421" font-family="Times New Roman,serif" font-size="20.00">2</text>
</g>
<!-- 0&#45;&gt;6 -->
<g id="edge4" class="edge"><title>0&#45;&gt;6</title>
<path fill="none" stroke="black" stroke-width="2" d="M94.2661,-88.3821C104.663,-90.2676 117.414,-92.5802 128.924,-94.6677"/>
<polygon fill="black" stroke="black" stroke-width="2" points="128.578,-98.162 139.042,-96.5027 129.827,-91.2743 128.578,-98.162"/>
</g>
<!-- 7 -->
<g id="node8" class="node"><title>7</title>
<ellipse fill="brown" stroke="black" cx="109.781" cy="-136.203" rx="21.4286" ry="21.4286"/>
<text text-anchor="middle" x="109.781" y="-131.203" font-family="Times New Roman,serif" font-size="20.00">3</text>
</g>
<!-- 0&#45;&gt;7 -->
<g id="edge5" class="edge"><title>0&#45;&gt;7</title>
<path fill="none" stroke="black" stroke-width="2" d="M85.587,-102.045C87.4937,-104.737 89.4964,-107.565 91.4989,-110.392"/>
<polygon fill="black" stroke="black" stroke-width="2" points="88.7739,-112.6 97.4101,-118.738 94.4862,-108.554 88.7739,-112.6"/>
</g>
<!-- 1 -->
<g id="node2" class="node"><title>1</title>
<ellipse fill="cadetblue" stroke="black" cx="109.076" cy="-198.257" rx="21.4286" ry="21.4286"/>
<text text-anchor="middle" x="109.076" y="-193.257" font-family="Times New Roman,serif" font-size="20.00">2</text>
</g>
<!-- 1&#45;&gt;6 -->
<g id="edge8" class="edge"><title>1&#45;&gt;6</title>
<path fill="none" stroke="black" stroke-width="2" d="M118.936,-179.378C126.505,-164.884 137.073,-144.648 145.621,-128.28"/>
<polygon fill="black" stroke="black" stroke-width="2" points="148.856,-129.647 150.383,-119.163 142.651,-126.407 148.856,-129.647"/>
</g>
<!-- 2 -->
<g id="node3" class="node"><title>2</title>
<ellipse fill="cadetblue" stroke="black" cx="71.0712" cy="-21.2132" rx="21.4286" ry="21.4286"/>
<text text-anchor="middle" x="71.0712" y="-16.2132" font-family="Times New Roman,serif" font-size="20.00">2</text>
</g>
<!-- 2&#45;&gt;5 -->
<g id="edge10" class="edge"><title>2&#45;&gt;5</title>
<path fill="none" stroke="black" stroke-width="2" d="M61.2209,-40.4008C53.9141,-54.6337 43.839,-74.2591 35.6275,-90.2544"/>
<polygon fill="black" stroke="black" stroke-width="2" points="32.4965,-88.6898 31.0431,-99.1845 38.7238,-91.8868 32.4965,-88.6898"/>
</g>
<!-- 3 -->
<g id="node4" class="node"><title>3</title>
<ellipse fill="cadetblue" stroke="black" cx="33.9754" cy="-183.617" rx="21.4286" ry="21.4286"/>
<text text-anchor="middle" x="33.9754" y="-178.617" font-family="Times New Roman,serif" font-size="20.00">2</text>
</g>
<!-- 3&#45;&gt;0 -->
<g id="edge1" class="edge"><title>3&#45;&gt;0</title>
<path fill="none" stroke="black" stroke-width="2" d="M41.9138,-163.572C47.55,-149.34 55.2085,-130.002 61.538,-114.019"/>
<polygon fill="black" stroke="black" stroke-width="2" points="64.8492,-115.164 65.2772,-104.578 58.341,-112.586 64.8492,-115.164"/>
</g>
<!-- 3&#45;&gt;1 -->
<g id="edge6" class="edge"><title>3&#45;&gt;1</title>
<path fill="none" stroke="black" stroke-width="2" d="M54.8951,-187.695C62.0774,-189.095 70.277,-190.694 78.0859,-192.216"/>
<polygon fill="black" stroke="black" stroke-width="2" points="77.5232,-195.672 88.0081,-194.15 78.8626,-188.802 77.5232,-195.672"/>
</g>
<!-- 4 -->
<g id="node5" class="node"><title>4</title>
<ellipse fill="cadetblue" stroke="black" cx="146.758" cy="-35.3311" rx="21.4286" ry="21.4286"/>
<text text-anchor="middle" x="146.758" y="-30.3311" font-family="Times New Roman,serif" font-size="20.00">2</text>
</g>
<!-- 4&#45;&gt;0 -->
<g id="edge2" class="edge"><title>4&#45;&gt;0</title>
<path fill="none" stroke="black" stroke-width="2" d="M128.953,-47.2486C120.099,-53.1748 109.224,-60.4532 99.4379,-67.0034"/>
<polygon fill="black" stroke="black" stroke-width="2" points="97.209,-64.2836 90.8454,-72.7545 101.103,-70.1008 97.209,-64.2836"/>
</g>
<!-- 4&#45;&gt;2 -->
<g id="edge9" class="edge"><title>4&#45;&gt;2</title>
<path fill="none" stroke="black" stroke-width="2" d="M125.675,-31.3985C118.376,-30.0369 110.034,-28.481 102.105,-27.0019"/>
<polygon fill="black" stroke="black" stroke-width="2" points="102.514,-23.5178 92.0413,-25.1247 101.23,-30.3991 102.514,-23.5178"/>
</g>
<!-- 5&#45;&gt;1 -->
<g id="edge7" class="edge"><title>5&#45;&gt;1</title>
<path fill="none" stroke="black" stroke-width="2" d="M36.9213,-132.621C50.4561,-144.933 70.1889,-162.883 85.599,-176.901"/>
<polygon fill="black" stroke="black" stroke-width="2" points="83.4553,-179.683 93.2078,-183.823 88.1656,-174.504 83.4553,-179.683"/>
</g>
<!-- 5&#45;&gt;3 -->
<g id="edge12" class="edge"><title>5&#45;&gt;3</title>
<path fill="none" stroke="black" stroke-width="2" d="M25.3215,-139.348C26.1412,-143.542 27.0186,-148.03 27.8886,-152.48"/>
<polygon fill="black" stroke="black" stroke-width="2" points="24.5212,-153.498 29.8748,-162.641 31.3912,-152.155 24.5212,-153.498"/>
</g>
<!-- 5&#45;&gt;7 -->
<g id="edge16" class="edge"><title>5&#45;&gt;7</title>
<path fill="none" stroke="black" stroke-width="2" d="M42.2024,-122.567C53.1221,-124.771 66.6834,-127.507 78.7855,-129.949"/>
<polygon fill="black" stroke="black" stroke-width="2" points="78.4472,-133.451 88.942,-131.998 79.8318,-126.589 78.4472,-133.451"/>
</g>
<!-- 6&#45;&gt;2 -->
<g id="edge11" class="edge"><title>6&#45;&gt;2</title>
<path fill="none" stroke="black" stroke-width="2" d="M144.275,-86.1955C130.544,-74.0061 110.524,-56.2348 94.8898,-42.3566"/>
<polygon fill="black" stroke="black" stroke-width="2" points="96.9725,-39.5253 87.1704,-35.5042 92.3254,-44.7603 96.9725,-39.5253"/>
</g>
<!-- 6&#45;&gt;4 -->
<g id="edge14" class="edge"><title>6&#45;&gt;4</title>
<path fill="none" stroke="black" stroke-width="2" d="M155.881,-79.4144C155.017,-75.2385 154.092,-70.7694 153.175,-66.3375"/>
<polygon fill="black" stroke="black" stroke-width="2" points="156.535,-65.3028 151.081,-56.2196 149.68,-66.7214 156.535,-65.3028"/>
</g>
<!-- 6&#45;&gt;7 -->
<g id="edge17" class="edge"><title>6&#45;&gt;7</title>
<path fill="none" stroke="black" stroke-width="2" d="M142.856,-112.683C140.506,-114.355 138.054,-116.098 135.594,-117.847"/>
<polygon fill="black" stroke="black" stroke-width="2" points="133.461,-115.07 127.339,-123.717 137.517,-120.774 133.461,-115.07"/>
</g>
<!-- 7&#45;&gt;3 -->
<g id="edge13" class="edge"><title>7&#45;&gt;3</title>
<path fill="none" stroke="black" stroke-width="2" d="M91.4302,-147.681C82.212,-153.446 70.8691,-160.541 60.7037,-166.899"/>
<polygon fill="black" stroke="black" stroke-width="2" points="58.7788,-163.975 52.1567,-172.245 62.4909,-169.91 58.7788,-163.975"/>
</g>
<!-- 7&#45;&gt;4 -->
<g id="edge15" class="edge"><title>7&#45;&gt;4</title>
<path fill="none" stroke="black" stroke-width="2" d="M117.086,-116.274C122.42,-101.724 129.742,-81.7491 135.779,-65.283"/>
<polygon fill="black" stroke="black" stroke-width="2" points="139.186,-66.1576 139.341,-55.564 132.613,-63.7483 139.186,-66.1576"/>
</g>
</g>
</svg>

