<?xml version="1.0" encoding="UTF-8" standalone="no"?>
<!DOCTYPE svg PUBLIC "-//W3C//DTD SVG 1.1//EN"
 "http://www.w3.org/Graphics/SVG/1.1/DTD/svg11.dtd">
<!-- Generated by graphviz version 2.36.0 (20140111.2315)
 -->
<!-- Title: G Pages: 1 -->
<svg width="100%" height="100%"
 viewBox="0.00 0.00 308.66 306.42" xmlns="http://www.w3.org/2000/svg" xmlns:xlink="http://www.w3.org/1999/xlink">
<g id="graph0" class="graph" transform="scale(1 1) rotate(0) translate(4 302.422)">
<title>G</title>
<!-- 0 -->
<g id="node1" class="node"><title>0</title>
<ellipse fill="cadetblue" stroke="black" cx="21.2132" cy="-216.43" rx="21.4286" ry="21.4286"/>
<text text-anchor="middle" x="21.2132" y="-211.43" font-family="Times New Roman,serif" font-size="20.00">2</text>
</g>
<!-- 5 -->
<g id="node6" class="node"><title>5</title>
<ellipse fill="cadetblue" stroke="black" cx="25.2575" cy="-39.9154" rx="21.4286" ry="21.4286"/>
<text text-anchor="middle" x="25.2575" y="-34.9154" font-family="Times New Roman,serif" font-size="20.00">2</text>
</g>
<!-- 0&#45;&gt;5 -->
<g id="edge3" class="edge"><title>0&#45;&gt;5</title>
<path fill="none" stroke="black" stroke-width="2" d="M21.701,-195.139C22.4055,-164.392 23.7126,-107.342 24.5309,-71.6286"/>
<polygon fill="black" stroke="black" stroke-width="2" points="28.0379,-71.3604 24.7679,-61.2828 21.0397,-71.2 28.0379,-71.3604"/>
</g>
<!-- 7 -->
<g id="node8" class="node"><title>7</title>
<ellipse fill="cadetblue" stroke="black" cx="77.4987" cy="-131.402" rx="21.4286" ry="21.4286"/>
<text text-anchor="middle" x="77.4987" y="-126.402" font-family="Times New Roman,serif" font-size="20.00">2</text>
</g>
<!-- 0&#45;&gt;7 -->
<g id="edge4" class="edge"><title>0&#45;&gt;7</title>
<path fill="none" stroke="black" stroke-width="2" d="M33.1499,-198.398C40.9632,-186.595 51.3046,-170.973 60.0357,-157.783"/>
<polygon fill="black" stroke="black" stroke-width="2" points="63.1708,-159.388 65.7722,-149.117 57.3338,-155.524 63.1708,-159.388"/>
</g>
<!-- 1 -->
<g id="node2" class="node"><title>1</title>
<ellipse fill="cadetblue" stroke="black" cx="203.442" cy="-45.8108" rx="21.4286" ry="21.4286"/>
<text text-anchor="middle" x="203.442" y="-40.8108" font-family="Times New Roman,serif" font-size="20.00">2</text>
</g>
<!-- 6 -->
<g id="node7" class="node"><title>6</title>
<ellipse fill="cadetblue" stroke="black" cx="279.446" cy="-150.095" rx="21.4286" ry="21.4286"/>
<text text-anchor="middle" x="279.446" y="-145.095" font-family="Times New Roman,serif" font-size="20.00">2</text>
</g>
<!-- 1&#45;&gt;6 -->
<g id="edge7" class="edge"><title>1&#45;&gt;6</title>
<path fill="none" stroke="black" stroke-width="2" d="M215.993,-63.0311C228.205,-79.787 246.906,-105.447 260.847,-124.575"/>
<polygon fill="black" stroke="black" stroke-width="2" points="258.159,-126.829 266.877,-132.849 263.816,-122.706 258.159,-126.829"/>
</g>
<!-- 1&#45;&gt;7 -->
<g id="edge8" class="edge"><title>1&#45;&gt;7</title>
<path fill="none" stroke="black" stroke-width="2" d="M185.664,-57.8925C164.287,-72.4209 128.222,-96.9308 103.664,-113.62"/>
<polygon fill="black" stroke="black" stroke-width="2" points="101.489,-110.867 95.1857,-119.382 105.424,-116.656 101.489,-110.867"/>
</g>
<!-- 2 -->
<g id="node3" class="node"><title>2</title>
<ellipse fill="cadetblue" stroke="black" cx="153.01" cy="-21.2132" rx="21.4286" ry="21.4286"/>
<text text-anchor="middle" x="153.01" y="-16.2132" font-family="Times New Roman,serif" font-size="20.00">2</text>
</g>
<!-- 4 -->
<g id="node5" class="node"><title>4</title>
<ellipse fill="cadetblue" stroke="black" cx="178.13" cy="-169.65" rx="21.4286" ry="21.4286"/>
<text text-anchor="middle" x="178.13" y="-164.65" font-family="Times New Roman,serif" font-size="20.00">2</text>
</g>
<!-- 2&#45;&gt;4 -->
<g id="edge9" class="edge"><title>2&#45;&gt;4</title>
<path fill="none" stroke="black" stroke-width="2" d="M156.556,-42.1657C160.796,-67.2192 167.932,-109.388 172.828,-138.32"/>
<polygon fill="black" stroke="black" stroke-width="2" points="169.401,-139.048 174.521,-148.323 176.303,-137.88 169.401,-139.048"/>
</g>
<!-- 2&#45;&gt;6 -->
<g id="edge11" class="edge"><title>2&#45;&gt;6</title>
<path fill="none" stroke="black" stroke-width="2" d="M164.927,-39.0415C170.591,-47.064 177.667,-56.4771 184.774,-64.3429 206.858,-88.7829 235.186,-113.73 255.079,-130.368"/>
<polygon fill="black" stroke="black" stroke-width="2" points="252.848,-133.066 262.782,-136.749 257.313,-127.675 252.848,-133.066"/>
</g>
<!-- 3 -->
<g id="node4" class="node"><title>3</title>
<ellipse fill="cadetblue" stroke="black" cx="152.77" cy="-277.209" rx="21.4286" ry="21.4286"/>
<text text-anchor="middle" x="152.77" y="-272.209" font-family="Times New Roman,serif" font-size="20.00">2</text>
</g>
<!-- 3&#45;&gt;0 -->
<g id="edge1" class="edge"><title>3&#45;&gt;0</title>
<path fill="none" stroke="black" stroke-width="2" d="M133.359,-268.241C111.303,-258.051 75.0977,-241.325 49.8096,-229.642"/>
<polygon fill="black" stroke="black" stroke-width="2" points="51.2505,-226.452 40.7046,-225.435 48.3147,-232.807 51.2505,-226.452"/>
</g>
<!-- 4&#45;&gt;0 -->
<g id="edge2" class="edge"><title>4&#45;&gt;0</title>
<path fill="none" stroke="black" stroke-width="2" d="M157.616,-175.766C130.597,-183.821 82.8646,-198.051 51.6363,-207.361"/>
<polygon fill="black" stroke="black" stroke-width="2" points="50.3156,-204.102 41.7324,-210.313 52.3155,-210.81 50.3156,-204.102"/>
</g>
<!-- 4&#45;&gt;1 -->
<g id="edge5" class="edge"><title>4&#45;&gt;1</title>
<path fill="none" stroke="black" stroke-width="2" d="M182.424,-148.642C186.442,-128.983 192.496,-99.3653 197.076,-76.9572"/>
<polygon fill="black" stroke="black" stroke-width="2" points="200.553,-77.4199 199.127,-66.9215 193.695,-76.018 200.553,-77.4199"/>
</g>
<!-- 5&#45;&gt;1 -->
<g id="edge6" class="edge"><title>5&#45;&gt;1</title>
<path fill="none" stroke="black" stroke-width="2" d="M46.4774,-41.7859C71.801,-43.8773 115.437,-47.0361 152.972,-47.5175 159.037,-47.5953 165.51,-47.5064 171.728,-47.3352"/>
<polygon fill="black" stroke="black" stroke-width="2" points="171.961,-50.8293 181.834,-46.9843 171.718,-43.8335 171.961,-50.8293"/>
</g>
<!-- 5&#45;&gt;2 -->
<g id="edge10" class="edge"><title>5&#45;&gt;2</title>
<path fill="none" stroke="black" stroke-width="2" d="M46.3533,-36.8272C66.8801,-33.8222 98.3153,-29.2202 121.748,-25.7898"/>
<polygon fill="black" stroke="black" stroke-width="2" points="122.496,-29.2178 131.883,-24.3061 121.482,-22.2916 122.496,-29.2178"/>
</g>
<!-- 6&#45;&gt;3 -->
<g id="edge13" class="edge"><title>6&#45;&gt;3</title>
<path fill="none" stroke="black" stroke-width="2" d="M264.418,-165.175C242.228,-187.442 200.563,-229.251 174.883,-255.02"/>
<polygon fill="black" stroke="black" stroke-width="2" points="172.359,-252.594 167.78,-262.148 177.318,-257.535 172.359,-252.594"/>
</g>
<!-- 6&#45;&gt;4 -->
<g id="edge15" class="edge"><title>6&#45;&gt;4</title>
<path fill="none" stroke="black" stroke-width="2" d="M258.454,-154.146C244.19,-156.9 225.081,-160.588 209.08,-163.676"/>
<polygon fill="black" stroke="black" stroke-width="2" points="208.251,-160.271 199.096,-165.603 209.578,-167.145 208.251,-160.271"/>
</g>
<!-- 7&#45;&gt;2 -->
<g id="edge12" class="edge"><title>7&#45;&gt;2</title>
<path fill="none" stroke="black" stroke-width="2" d="M89.6309,-113.699C101.961,-95.7064 121.194,-67.6411 135.241,-47.1432"/>
<polygon fill="black" stroke="black" stroke-width="2" points="138.142,-49.1005 140.908,-38.8731 132.368,-45.1435 138.142,-49.1005"/>
</g>
<!-- 7&#45;&gt;3 -->
<g id="edge14" class="edge"><title>7&#45;&gt;3</title>
<path fill="none" stroke="black" stroke-width="2" d="M87.3391,-150.464C100.3,-175.57 123.197,-219.923 138.177,-248.94"/>
<polygon fill="black" stroke="black" stroke-width="2" points="135.23,-250.862 142.928,-258.143 141.45,-247.651 135.23,-250.862"/>
</g>
<!-- 7&#45;&gt;5 -->
<g id="edge16" class="edge"><title>7&#45;&gt;5</title>
<path fill="none" stroke="black" stroke-width="2" d="M66.9269,-112.889C59.4211,-99.7442 49.2221,-81.8834 40.7932,-67.1222"/>
<polygon fill="black" stroke="black" stroke-width="2" points="43.8117,-65.3501 35.8136,-58.4017 37.733,-68.8212 43.8117,-65.3501"/>
</g>
</g>
</svg>

