<?xml version="1.0" encoding="UTF-8" standalone="no"?>
<!DOCTYPE svg PUBLIC "-//W3C//DTD SVG 1.1//EN"
 "http://www.w3.org/Graphics/SVG/1.1/DTD/svg11.dtd">
<!-- Generated by graphviz version 2.36.0 (20140111.2315)
 -->
<!-- Title: G Pages: 1 -->
<svg width="100%" height="100%"
 viewBox="0.00 0.00 261.57 247.77" xmlns="http://www.w3.org/2000/svg" xmlns:xlink="http://www.w3.org/1999/xlink">
<g id="graph0" class="graph" transform="scale(1 1) rotate(0) translate(4 243.774)">
<title>G</title>
<!-- 0 -->
<g id="node1" class="node"><title>0</title>
<ellipse fill="cadetblue" stroke="black" cx="232.361" cy="-202.109" rx="21.4286" ry="21.4286"/>
<text text-anchor="middle" x="232.361" y="-197.109" font-family="Times New Roman,serif" font-size="20.00">2</text>
</g>
<!-- 6 -->
<g id="node7" class="node"><title>6</title>
<ellipse fill="cadetblue" stroke="black" cx="153.538" cy="-164.262" rx="21.4286" ry="21.4286"/>
<text text-anchor="middle" x="153.538" y="-159.262" font-family="Times New Roman,serif" font-size="20.00">2</text>
</g>
<!-- 0&#45;&gt;6 -->
<g id="edge3" class="edge"><title>0&#45;&gt;6</title>
<path fill="none" stroke="black" stroke-width="2" d="M212.877,-192.753C203.522,-188.262 192.135,-182.794 181.847,-177.854"/>
<polygon fill="black" stroke="black" stroke-width="2" points="183.328,-174.683 172.798,-173.509 180.298,-180.993 183.328,-174.683"/>
</g>
<!-- 1 -->
<g id="node2" class="node"><title>1</title>
<ellipse fill="cadetblue" stroke="black" cx="21.2132" cy="-175.747" rx="21.4286" ry="21.4286"/>
<text text-anchor="middle" x="21.2132" y="-170.747" font-family="Times New Roman,serif" font-size="20.00">2</text>
</g>
<!-- 1&#45;&gt;6 -->
<g id="edge6" class="edge"><title>1&#45;&gt;6</title>
<path fill="none" stroke="black" stroke-width="2" d="M42.4734,-173.902C63.9835,-172.035 97.4826,-169.127 122.069,-166.993"/>
<polygon fill="black" stroke="black" stroke-width="2" points="122.67,-170.454 132.33,-166.102 122.065,-163.48 122.67,-170.454"/>
</g>
<!-- 7 -->
<g id="node8" class="node"><title>7</title>
<ellipse fill="brown" stroke="black" cx="52.6565" cy="-77.2708" rx="21.4286" ry="21.4286"/>
<text text-anchor="middle" x="52.6565" y="-72.2708" font-family="Times New Roman,serif" font-size="20.00">3</text>
</g>
<!-- 1&#45;&gt;7 -->
<g id="edge7" class="edge"><title>1&#45;&gt;7</title>
<path fill="none" stroke="black" stroke-width="2" d="M27.7283,-155.343C32.1551,-141.479 38.0854,-122.906 43.0513,-107.353"/>
<polygon fill="black" stroke="black" stroke-width="2" points="46.4422,-108.24 46.1498,-97.649 39.7739,-106.111 46.4422,-108.24"/>
</g>
<!-- 2 -->
<g id="node3" class="node"><title>2</title>
<ellipse fill="cadetblue" stroke="black" cx="136.654" cy="-21.2132" rx="21.4286" ry="21.4286"/>
<text text-anchor="middle" x="136.654" y="-16.2132" font-family="Times New Roman,serif" font-size="20.00">2</text>
</g>
<!-- 5 -->
<g id="node6" class="node"><title>5</title>
<ellipse fill="cadetblue" stroke="black" cx="103.088" cy="-112.062" rx="21.4286" ry="21.4286"/>
<text text-anchor="middle" x="103.088" y="-107.062" font-family="Times New Roman,serif" font-size="20.00">2</text>
</g>
<!-- 2&#45;&gt;5 -->
<g id="edge9" class="edge"><title>2&#45;&gt;5</title>
<path fill="none" stroke="black" stroke-width="2" d="M129.204,-41.3755C124.772,-53.3726 119.066,-68.8168 114.118,-82.2075"/>
<polygon fill="black" stroke="black" stroke-width="2" points="110.699,-81.3627 110.516,-91.956 117.265,-83.7887 110.699,-81.3627"/>
</g>
<!-- 2&#45;&gt;7 -->
<g id="edge11" class="edge"><title>2&#45;&gt;7</title>
<path fill="none" stroke="black" stroke-width="2" d="M118.84,-33.1016C107.258,-40.831 91.9539,-51.0446 78.9798,-59.7032"/>
<polygon fill="black" stroke="black" stroke-width="2" points="76.8193,-56.9372 70.4444,-65.3995 80.7051,-62.7596 76.8193,-56.9372"/>
</g>
<!-- 3 -->
<g id="node4" class="node"><title>3</title>
<ellipse fill="cadetblue" stroke="black" cx="99.745" cy="-218.56" rx="21.4286" ry="21.4286"/>
<text text-anchor="middle" x="99.745" y="-213.56" font-family="Times New Roman,serif" font-size="20.00">2</text>
</g>
<!-- 3&#45;&gt;0 -->
<g id="edge1" class="edge"><title>3&#45;&gt;0</title>
<path fill="none" stroke="black" stroke-width="2" d="M121.052,-215.917C142.706,-213.231 176.484,-209.041 201.154,-205.98"/>
<polygon fill="black" stroke="black" stroke-width="2" points="201.614,-209.45 211.107,-204.745 200.752,-202.503 201.614,-209.45"/>
</g>
<!-- 3&#45;&gt;1 -->
<g id="edge4" class="edge"><title>3&#45;&gt;1</title>
<path fill="none" stroke="black" stroke-width="2" d="M80.7347,-208.197C71.1849,-202.99 59.4339,-196.584 48.903,-190.843"/>
<polygon fill="black" stroke="black" stroke-width="2" points="50.5038,-187.729 40.0485,-186.016 47.1532,-193.875 50.5038,-187.729"/>
</g>
<!-- 3&#45;&gt;7 -->
<g id="edge14" class="edge"><title>3&#45;&gt;7</title>
<path fill="none" stroke="black" stroke-width="2" d="M92.9984,-198.317C85.0609,-174.501 71.8086,-134.737 62.6714,-107.321"/>
<polygon fill="black" stroke="black" stroke-width="2" points="65.8729,-105.857 59.3906,-97.4766 59.232,-108.07 65.8729,-105.857"/>
</g>
<!-- 4 -->
<g id="node5" class="node"><title>4</title>
<ellipse fill="cadetblue" stroke="black" cx="203.224" cy="-76.6893" rx="21.4286" ry="21.4286"/>
<text text-anchor="middle" x="203.224" y="-71.6893" font-family="Times New Roman,serif" font-size="20.00">2</text>
</g>
<!-- 4&#45;&gt;0 -->
<g id="edge2" class="edge"><title>4&#45;&gt;0</title>
<path fill="none" stroke="black" stroke-width="2" d="M208.036,-97.3998C212.717,-117.552 219.887,-148.413 225.231,-171.417"/>
<polygon fill="black" stroke="black" stroke-width="2" points="221.871,-172.419 227.543,-181.368 228.689,-170.835 221.871,-172.419"/>
</g>
<!-- 4&#45;&gt;2 -->
<g id="edge8" class="edge"><title>4&#45;&gt;2</title>
<path fill="none" stroke="black" stroke-width="2" d="M186.769,-62.9761C179.066,-56.5569 169.731,-48.7778 161.215,-41.6816"/>
<polygon fill="black" stroke="black" stroke-width="2" points="163.305,-38.8671 153.382,-35.154 158.824,-44.2447 163.305,-38.8671"/>
</g>
<!-- 5&#45;&gt;1 -->
<g id="edge5" class="edge"><title>5&#45;&gt;1</title>
<path fill="none" stroke="black" stroke-width="2" d="M86.1235,-125.258C74.5966,-134.224 59.1546,-146.235 46.2241,-156.293"/>
<polygon fill="black" stroke="black" stroke-width="2" points="43.9004,-153.666 38.156,-162.569 48.1982,-159.191 43.9004,-153.666"/>
</g>
<!-- 5&#45;&gt;3 -->
<g id="edge12" class="edge"><title>5&#45;&gt;3</title>
<path fill="none" stroke="black" stroke-width="2" d="M102.42,-133.357C101.937,-148.74 101.277,-169.767 100.733,-187.083"/>
<polygon fill="black" stroke="black" stroke-width="2" points="97.2279,-187.197 100.412,-197.302 104.224,-187.416 97.2279,-187.197"/>
</g>
<!-- 5&#45;&gt;4 -->
<g id="edge15" class="edge"><title>5&#45;&gt;4</title>
<path fill="none" stroke="black" stroke-width="2" d="M123.352,-104.904C137.739,-99.8215 157.289,-92.9158 173.446,-87.2085"/>
<polygon fill="black" stroke="black" stroke-width="2" points="174.727,-90.4678 182.991,-83.8368 172.396,-83.8675 174.727,-90.4678"/>
</g>
<!-- 6&#45;&gt;2 -->
<g id="edge10" class="edge"><title>6&#45;&gt;2</title>
<path fill="none" stroke="black" stroke-width="2" d="M151.046,-143.154C148.228,-119.278 143.61,-80.1509 140.367,-52.6715"/>
<polygon fill="black" stroke="black" stroke-width="2" points="143.803,-51.9278 139.155,-42.4071 136.851,-52.7484 143.803,-51.9278"/>
</g>
<!-- 6&#45;&gt;3 -->
<g id="edge13" class="edge"><title>6&#45;&gt;3</title>
<path fill="none" stroke="black" stroke-width="2" d="M138.553,-179.387C133.51,-184.478 127.765,-190.277 122.271,-195.823"/>
<polygon fill="black" stroke="black" stroke-width="2" points="119.574,-193.572 115.023,-203.139 124.547,-198.498 119.574,-193.572"/>
</g>
<!-- 7&#45;&gt;4 -->
<g id="edge16" class="edge"><title>7&#45;&gt;4</title>
<path fill="none" stroke="black" stroke-width="2" d="M73.9099,-77.1887C99.3231,-77.0906 142.097,-76.9254 171.444,-76.812"/>
<polygon fill="black" stroke="black" stroke-width="2" points="171.605,-80.3115 181.592,-76.7729 171.578,-73.3116 171.605,-80.3115"/>
</g>
<!-- 7&#45;&gt;5 -->
<g id="edge17" class="edge"><title>7&#45;&gt;5</title>
<path fill="none" stroke="black" stroke-width="2" d="M70.295,-89.439C72.4324,-90.9135 74.6499,-92.4433 76.8778,-93.9803"/>
<polygon fill="black" stroke="black" stroke-width="2" points="75.1554,-97.0441 85.3742,-99.8417 79.1304,-91.2822 75.1554,-97.0441"/>
</g>
</g>
</svg>

