<?xml version="1.0" encoding="UTF-8" standalone="no"?>
<!DOCTYPE svg PUBLIC "-//W3C//DTD SVG 1.1//EN"
 "http://www.w3.org/Graphics/SVG/1.1/DTD/svg11.dtd">
<!-- Generated by graphviz version 2.36.0 (20140111.2315)
 -->
<!-- Title: G Pages: 1 -->
<svg width="100%" height="100%"
 viewBox="0.00 0.00 189.12 214.42" xmlns="http://www.w3.org/2000/svg" xmlns:xlink="http://www.w3.org/1999/xlink">
<g id="graph0" class="graph" transform="scale(1 1) rotate(0) translate(4 210.417)">
<title>G</title>
<!-- 0 -->
<g id="node1" class="node"><title>0</title>
<ellipse fill="cadetblue" stroke="black" cx="21.2132" cy="-158.485" rx="21.4286" ry="21.4286"/>
<text text-anchor="middle" x="21.2132" y="-153.485" font-family="Times New Roman,serif" font-size="20.00">2</text>
</g>
<!-- 5 -->
<g id="node6" class="node"><title>5</title>
<ellipse fill="cadetblue" stroke="black" cx="31.8423" cy="-81.8544" rx="21.4286" ry="21.4286"/>
<text text-anchor="middle" x="31.8423" y="-76.8544" font-family="Times New Roman,serif" font-size="20.00">2</text>
</g>
<!-- 0&#45;&gt;5 -->
<g id="edge3" class="edge"><title>0&#45;&gt;5</title>
<path fill="none" stroke="black" stroke-width="2" d="M24.174,-137.139C25.2106,-129.666 26.3969,-121.113 27.5216,-113.005"/>
<polygon fill="black" stroke="black" stroke-width="2" points="30.9902,-113.472 28.8974,-103.086 24.0566,-112.51 30.9902,-113.472"/>
</g>
<!-- 7 -->
<g id="node8" class="node"><title>7</title>
<ellipse fill="brown" stroke="black" cx="86.0526" cy="-99.4676" rx="21.4286" ry="21.4286"/>
<text text-anchor="middle" x="86.0526" y="-94.4676" font-family="Times New Roman,serif" font-size="20.00">3</text>
</g>
<!-- 0&#45;&gt;7 -->
<g id="edge4" class="edge"><title>0&#45;&gt;7</title>
<path fill="none" stroke="black" stroke-width="2" d="M36.909,-144.198C44.5993,-137.199 54.0185,-128.625 62.5457,-120.864"/>
<polygon fill="black" stroke="black" stroke-width="2" points="65.0116,-123.352 70.0509,-114.032 60.2997,-118.175 65.0116,-123.352"/>
</g>
<!-- 1 -->
<g id="node2" class="node"><title>1</title>
<ellipse fill="cadetblue" stroke="black" cx="140.395" cy="-61.4986" rx="21.4286" ry="21.4286"/>
<text text-anchor="middle" x="140.395" y="-56.4986" font-family="Times New Roman,serif" font-size="20.00">2</text>
</g>
<!-- 6 -->
<g id="node7" class="node"><title>6</title>
<ellipse fill="cadetblue" stroke="black" cx="159.91" cy="-113.568" rx="21.4286" ry="21.4286"/>
<text text-anchor="middle" x="159.91" y="-108.568" font-family="Times New Roman,serif" font-size="20.00">2</text>
</g>
<!-- 1&#45;&gt;6 -->
<g id="edge7" class="edge"><title>1&#45;&gt;6</title>
<path fill="none" stroke="black" stroke-width="2" d="M147.884,-81.4809C148.158,-82.2122 148.435,-82.9503 148.713,-83.6926"/>
<polygon fill="black" stroke="black" stroke-width="2" points="145.557,-85.2449 152.344,-93.3804 152.112,-82.7882 145.557,-85.2449"/>
</g>
<!-- 1&#45;&gt;7 -->
<g id="edge8" class="edge"><title>1&#45;&gt;7</title>
<path fill="none" stroke="black" stroke-width="2" d="M122.901,-73.7212C119.411,-76.1601 115.675,-78.7702 111.971,-81.3586"/>
<polygon fill="black" stroke="black" stroke-width="2" points="109.706,-78.6713 103.513,-87.2679 113.715,-84.4094 109.706,-78.6713"/>
</g>
<!-- 2 -->
<g id="node3" class="node"><title>2</title>
<ellipse fill="cadetblue" stroke="black" cx="89.9633" cy="-21.2132" rx="21.4286" ry="21.4286"/>
<text text-anchor="middle" x="89.9633" y="-16.2132" font-family="Times New Roman,serif" font-size="20.00">2</text>
</g>
<!-- 2&#45;&gt;7 -->
<g id="edge11" class="edge"><title>2&#45;&gt;7</title>
<path fill="none" stroke="black" stroke-width="2" d="M88.8947,-42.5966C88.5024,-50.4466 88.0497,-59.5055 87.6225,-68.0531"/>
<polygon fill="black" stroke="black" stroke-width="2" points="84.1235,-67.9478 87.12,-78.1101 91.1148,-68.2973 84.1235,-67.9478"/>
</g>
<!-- 3 -->
<g id="node4" class="node"><title>3</title>
<ellipse fill="cadetblue" stroke="black" cx="75.0571" cy="-185.204" rx="21.4286" ry="21.4286"/>
<text text-anchor="middle" x="75.0571" y="-180.204" font-family="Times New Roman,serif" font-size="20.00">2</text>
</g>
<!-- 3&#45;&gt;0 -->
<g id="edge1" class="edge"><title>3&#45;&gt;0</title>
<path fill="none" stroke="black" stroke-width="2" d="M55.9222,-175.708C53.8592,-174.685 51.7294,-173.628 49.5874,-172.565"/>
<polygon fill="black" stroke="black" stroke-width="2" points="50.8001,-169.259 40.2865,-167.95 47.6885,-175.53 50.8001,-169.259"/>
</g>
<!-- 4 -->
<g id="node5" class="node"><title>4</title>
<ellipse fill="cadetblue" stroke="black" cx="129.6" cy="-165.44" rx="21.4286" ry="21.4286"/>
<text text-anchor="middle" x="129.6" y="-160.44" font-family="Times New Roman,serif" font-size="20.00">2</text>
</g>
<!-- 4&#45;&gt;0 -->
<g id="edge2" class="edge"><title>4&#45;&gt;0</title>
<path fill="none" stroke="black" stroke-width="2" d="M108.428,-162.341C98.3568,-161.01 86.1327,-159.601 75.1008,-158.899 67.8027,-158.435 59.9375,-158.215 52.532,-158.134"/>
<polygon fill="black" stroke="black" stroke-width="2" points="52.4871,-154.634 42.4757,-158.102 52.4642,-161.634 52.4871,-154.634"/>
</g>
<!-- 4&#45;&gt;1 -->
<g id="edge5" class="edge"><title>4&#45;&gt;1</title>
<path fill="none" stroke="black" stroke-width="2" d="M130.985,-144.204C131.664,-134.798 132.561,-123.605 133.606,-113.536 134.297,-106.875 135.151,-99.7499 136.017,-92.9755"/>
<polygon fill="black" stroke="black" stroke-width="2" points="139.53,-93.1079 137.367,-82.7362 132.59,-92.193 139.53,-93.1079"/>
</g>
<!-- 5&#45;&gt;1 -->
<g id="edge6" class="edge"><title>5&#45;&gt;1</title>
<path fill="none" stroke="black" stroke-width="2" d="M52.7723,-77.9296C68.916,-74.9024 91.4856,-70.6701 109.675,-67.2591"/>
<polygon fill="black" stroke="black" stroke-width="2" points="110.345,-70.6946 119.529,-65.4114 109.055,-63.8145 110.345,-70.6946"/>
</g>
<!-- 5&#45;&gt;2 -->
<g id="edge9" class="edge"><title>5&#45;&gt;2</title>
<path fill="none" stroke="black" stroke-width="2" d="M46.8099,-66.2378C53.232,-59.5373 60.8657,-51.5726 67.9141,-44.2186"/>
<polygon fill="black" stroke="black" stroke-width="2" points="70.855,-46.2083 75.2476,-36.567 65.8013,-41.3647 70.855,-46.2083"/>
</g>
<!-- 5&#45;&gt;3 -->
<g id="edge12" class="edge"><title>5&#45;&gt;3</title>
<path fill="none" stroke="black" stroke-width="2" d="M40.1746,-101.781C46.5715,-117.08 55.5028,-138.439 62.7266,-155.715"/>
<polygon fill="black" stroke="black" stroke-width="2" points="59.6636,-157.462 66.7505,-165.338 66.1217,-154.762 59.6636,-157.462"/>
</g>
<!-- 6&#45;&gt;2 -->
<g id="edge10" class="edge"><title>6&#45;&gt;2</title>
<path fill="none" stroke="black" stroke-width="2" d="M142.718,-100.693C135.674,-94.8814 127.774,-87.622 121.727,-80.0307 114.494,-70.9503 108.064,-59.9858 102.914,-49.9959"/>
<polygon fill="black" stroke="black" stroke-width="2" points="105.945,-48.2304 98.3831,-40.81 99.6674,-51.3267 105.945,-48.2304"/>
</g>
<!-- 6&#45;&gt;3 -->
<g id="edge13" class="edge"><title>6&#45;&gt;3</title>
<path fill="none" stroke="black" stroke-width="2" d="M141.631,-124.613C132.179,-130.657 120.668,-138.552 111.184,-146.657 106.06,-151.037 100.9,-156.079 96.1469,-161.042"/>
<polygon fill="black" stroke="black" stroke-width="2" points="93.3079,-158.957 89.0775,-168.67 98.442,-163.715 93.3079,-158.957"/>
</g>
<!-- 6&#45;&gt;4 -->
<g id="edge14" class="edge"><title>6&#45;&gt;4</title>
<path fill="none" stroke="black" stroke-width="2" d="M149.138,-132.002C147.977,-133.989 146.778,-136.041 145.572,-138.105"/>
<polygon fill="black" stroke="black" stroke-width="2" points="142.36,-136.665 140.337,-147.065 148.404,-140.197 142.36,-136.665"/>
</g>
<!-- 7&#45;&gt;4 -->
<g id="edge15" class="edge"><title>7&#45;&gt;4</title>
<path fill="none" stroke="black" stroke-width="2" d="M97.9521,-117.495C102.272,-124.04 107.251,-131.582 111.961,-138.718"/>
<polygon fill="black" stroke="black" stroke-width="2" points="109.285,-141.017 117.715,-147.434 115.127,-137.161 109.285,-141.017"/>
</g>
<!-- 7&#45;&gt;5 -->
<g id="edge16" class="edge"><title>7&#45;&gt;5</title>
<path fill="none" stroke="black" stroke-width="2" d="M65.8667,-92.9091C64.6137,-92.502 63.3395,-92.088 62.0559,-91.671"/>
<polygon fill="black" stroke="black" stroke-width="2" points="62.8181,-88.2385 52.2259,-88.4771 60.655,-94.896 62.8181,-88.2385"/>
</g>
<!-- 7&#45;&gt;6 -->
<g id="edge17" class="edge"><title>7&#45;&gt;6</title>
<path fill="none" stroke="black" stroke-width="2" d="M107.02,-103.47C113.803,-104.765 121.475,-106.23 128.83,-107.634"/>
<polygon fill="black" stroke="black" stroke-width="2" points="128.412,-111.117 138.891,-109.555 129.724,-104.242 128.412,-111.117"/>
</g>
</g>
</svg>

