<?xml version="1.0" encoding="UTF-8" standalone="no"?>
<!DOCTYPE svg PUBLIC "-//W3C//DTD SVG 1.1//EN"
 "http://www.w3.org/Graphics/SVG/1.1/DTD/svg11.dtd">
<!-- Generated by graphviz version 2.36.0 (20140111.2315)
 -->
<!-- Title: G Pages: 1 -->
<svg width="100%" height="100%"
 viewBox="0.00 0.00 215.89 230.61" xmlns="http://www.w3.org/2000/svg" xmlns:xlink="http://www.w3.org/1999/xlink">
<g id="graph0" class="graph" transform="scale(1 1) rotate(0) translate(4 226.605)">
<title>G</title>
<!-- 0 -->
<g id="node1" class="node"><title>0</title>
<ellipse fill="cadetblue" stroke="black" cx="65.5371" cy="-23.5013" rx="21.4286" ry="21.4286"/>
<text text-anchor="middle" x="65.5371" y="-18.5013" font-family="Times New Roman,serif" font-size="20.00">2</text>
</g>
<!-- 5 -->
<g id="node6" class="node"><title>5</title>
<ellipse fill="dodgerblue" stroke="black" cx="21.2132" cy="-114.341" rx="21.4286" ry="21.4286"/>
<text text-anchor="middle" x="21.2132" y="-109.341" font-family="Times New Roman,serif" font-size="20.00">4</text>
</g>
<!-- 0&#45;&gt;5 -->
<g id="edge3" class="edge"><title>0&#45;&gt;5</title>
<path fill="none" stroke="black" stroke-width="2" d="M56.1372,-42.766C50.0256,-55.2914 41.9498,-71.8422 35.1036,-85.8732"/>
<polygon fill="black" stroke="black" stroke-width="2" points="31.8393,-84.5818 30.5996,-95.1039 38.1304,-87.6515 31.8393,-84.5818"/>
</g>
<!-- 6 -->
<g id="node7" class="node"><title>6</title>
<ellipse fill="cadetblue" stroke="black" cx="82.7096" cy="-99.4826" rx="21.4286" ry="21.4286"/>
<text text-anchor="middle" x="82.7096" y="-94.4826" font-family="Times New Roman,serif" font-size="20.00">2</text>
</g>
<!-- 0&#45;&gt;6 -->
<g id="edge4" class="edge"><title>0&#45;&gt;6</title>
<path fill="none" stroke="black" stroke-width="2" d="M70.2296,-44.2635C71.9522,-51.8855 73.9401,-60.6814 75.8159,-68.9807"/>
<polygon fill="black" stroke="black" stroke-width="2" points="72.4043,-69.7631 78.0228,-78.7455 79.2321,-68.2199 72.4043,-69.7631"/>
</g>
<!-- 1 -->
<g id="node2" class="node"><title>1</title>
<ellipse fill="cadetblue" stroke="black" cx="103.391" cy="-201.392" rx="21.4286" ry="21.4286"/>
<text text-anchor="middle" x="103.391" y="-196.392" font-family="Times New Roman,serif" font-size="20.00">2</text>
</g>
<!-- 1&#45;&gt;5 -->
<g id="edge7" class="edge"><title>1&#45;&gt;5</title>
<path fill="none" stroke="black" stroke-width="2" d="M88.699,-185.829C75.9614,-172.336 57.3546,-152.626 42.9031,-137.317"/>
<polygon fill="black" stroke="black" stroke-width="2" points="45.1874,-134.638 35.7777,-129.769 40.0972,-139.443 45.1874,-134.638"/>
</g>
<!-- 1&#45;&gt;6 -->
<g id="edge8" class="edge"><title>1&#45;&gt;6</title>
<path fill="none" stroke="black" stroke-width="2" d="M99.1055,-180.277C96.1939,-165.929 92.2934,-146.708 89.0272,-130.614"/>
<polygon fill="black" stroke="black" stroke-width="2" points="92.4082,-129.675 86.9892,-120.571 85.548,-131.068 92.4082,-129.675"/>
</g>
<!-- 2 -->
<g id="node3" class="node"><title>2</title>
<ellipse fill="cadetblue" stroke="black" cx="134.676" cy="-21.2132" rx="21.4286" ry="21.4286"/>
<text text-anchor="middle" x="134.676" y="-16.2132" font-family="Times New Roman,serif" font-size="20.00">2</text>
</g>
<!-- 4 -->
<g id="node5" class="node"><title>4</title>
<ellipse fill="cadetblue" stroke="black" cx="186.673" cy="-92.853" rx="21.4286" ry="21.4286"/>
<text text-anchor="middle" x="186.673" y="-87.853" font-family="Times New Roman,serif" font-size="20.00">2</text>
</g>
<!-- 2&#45;&gt;4 -->
<g id="edge10" class="edge"><title>2&#45;&gt;4</title>
<path fill="none" stroke="black" stroke-width="2" d="M147.263,-38.5552C153.522,-47.1789 161.21,-57.7702 168.128,-67.3019"/>
<polygon fill="black" stroke="black" stroke-width="2" points="165.495,-69.6336 174.202,-75.6707 171.161,-65.5218 165.495,-69.6336"/>
</g>
<!-- 2&#45;&gt;5 -->
<g id="edge11" class="edge"><title>2&#45;&gt;5</title>
<path fill="none" stroke="black" stroke-width="2" d="M117.934,-34.9545C98.8029,-50.657 67.327,-76.4916 45.5014,-94.4057"/>
<polygon fill="black" stroke="black" stroke-width="2" points="43.164,-91.7961 37.6548,-100.846 47.6051,-97.2069 43.164,-91.7961"/>
</g>
<!-- 3 -->
<g id="node4" class="node"><title>3</title>
<ellipse fill="cadetblue" stroke="black" cx="133.141" cy="-127.961" rx="21.4286" ry="21.4286"/>
<text text-anchor="middle" x="133.141" y="-122.961" font-family="Times New Roman,serif" font-size="20.00">2</text>
</g>
<!-- 3&#45;&gt;0 -->
<g id="edge1" class="edge"><title>3&#45;&gt;0</title>
<path fill="none" stroke="black" stroke-width="2" d="M121.365,-109.766C110.702,-93.289 94.8587,-68.8084 82.771,-50.1307"/>
<polygon fill="black" stroke="black" stroke-width="2" points="85.5495,-47.982 77.1779,-41.4883 79.6728,-51.7852 85.5495,-47.982"/>
</g>
<!-- 3&#45;&gt;1 -->
<g id="edge5" class="edge"><title>3&#45;&gt;1</title>
<path fill="none" stroke="black" stroke-width="2" d="M125.168,-147.639C122.1,-155.212 118.529,-164.027 115.177,-172.301"/>
<polygon fill="black" stroke="black" stroke-width="2" points="111.896,-171.077 111.385,-181.66 118.384,-173.706 111.896,-171.077"/>
</g>
<!-- 3&#45;&gt;2 -->
<g id="edge9" class="edge"><title>3&#45;&gt;2</title>
<path fill="none" stroke="black" stroke-width="2" d="M133.448,-106.616C133.67,-91.1977 133.973,-70.1213 134.222,-52.7644"/>
<polygon fill="black" stroke="black" stroke-width="2" points="137.725,-52.571 134.37,-42.5217 130.726,-52.4703 137.725,-52.571"/>
</g>
<!-- 4&#45;&gt;0 -->
<g id="edge2" class="edge"><title>4&#45;&gt;0</title>
<path fill="none" stroke="black" stroke-width="2" d="M168.011,-82.1688C147.946,-70.6811 115.845,-52.3029 92.9193,-39.1779"/>
<polygon fill="black" stroke="black" stroke-width="2" points="94.439,-36.0149 84.0216,-34.0839 90.961,-42.0898 94.439,-36.0149"/>
</g>
<!-- 4&#45;&gt;1 -->
<g id="edge6" class="edge"><title>4&#45;&gt;1</title>
<path fill="none" stroke="black" stroke-width="2" d="M175.643,-111.226C169.05,-121.832 160.3,-135.276 151.673,-146.629 143.525,-157.352 133.824,-168.607 125.262,-178.106"/>
<polygon fill="black" stroke="black" stroke-width="2" points="122.557,-175.878 118.397,-185.622 127.725,-180.599 122.557,-175.878"/>
</g>
<!-- 5&#45;&gt;3 -->
<g id="edge13" class="edge"><title>5&#45;&gt;3</title>
<path fill="none" stroke="black" stroke-width="2" d="M42.0747,-119C53.8644,-121.441 68.9104,-124.238 82.4496,-125.786 88.6168,-126.491 95.2297,-126.972 101.576,-127.3"/>
<polygon fill="black" stroke="black" stroke-width="2" points="101.744,-130.81 111.878,-127.719 102.028,-123.816 101.744,-130.81"/>
</g>
<!-- 6&#45;&gt;2 -->
<g id="edge12" class="edge"><title>6&#45;&gt;2</title>
<path fill="none" stroke="black" stroke-width="2" d="M94.5016,-81.7221C101.212,-71.6148 109.745,-58.7636 117.219,-47.5066"/>
<polygon fill="black" stroke="black" stroke-width="2" points="120.315,-49.1704 122.931,-38.9035 114.483,-45.2985 120.315,-49.1704"/>
</g>
<!-- 6&#45;&gt;3 -->
<g id="edge14" class="edge"><title>6&#45;&gt;3</title>
<path fill="none" stroke="black" stroke-width="2" d="M101.202,-109.925C102.71,-110.777 104.252,-111.647 105.804,-112.524"/>
<polygon fill="black" stroke="black" stroke-width="2" points="104.222,-115.65 114.651,-117.52 107.664,-109.555 104.222,-115.65"/>
</g>
<!-- 6&#45;&gt;4 -->
<g id="edge15" class="edge"><title>6&#45;&gt;4</title>
<path fill="none" stroke="black" stroke-width="2" d="M103.999,-98.125C118.716,-97.1865 138.547,-95.922 155.097,-94.8666"/>
<polygon fill="black" stroke="black" stroke-width="2" points="155.655,-98.3382 165.412,-94.2088 155.21,-91.3524 155.655,-98.3382"/>
</g>
<!-- 6&#45;&gt;5 -->
<g id="edge16" class="edge"><title>6&#45;&gt;5</title>
<path fill="none" stroke="black" stroke-width="2" d="M61.8897,-104.513C58.684,-105.287 55.317,-106.101 51.9501,-106.914"/>
<polygon fill="black" stroke="black" stroke-width="2" points="50.9099,-103.565 42.0116,-109.316 52.554,-110.369 50.9099,-103.565"/>
</g>
</g>
</svg>

