<?xml version="1.0" encoding="UTF-8" standalone="no"?>
<!DOCTYPE svg PUBLIC "-//W3C//DTD SVG 1.1//EN"
 "http://www.w3.org/Graphics/SVG/1.1/DTD/svg11.dtd">
<!-- Generated by graphviz version 2.36.0 (20140111.2315)
 -->
<!-- Title: G Pages: 1 -->
<svg width="100%" height="100%"
 viewBox="0.00 0.00 248.24 229.48" xmlns="http://www.w3.org/2000/svg" xmlns:xlink="http://www.w3.org/1999/xlink">
<g id="graph0" class="graph" transform="scale(1 1) rotate(0) translate(4 225.48)">
<title>G</title>
<!-- 0 -->
<g id="node1" class="node"><title>0</title>
<ellipse fill="cadetblue" stroke="black" cx="138.31" cy="-136.693" rx="21.4286" ry="21.4286"/>
<text text-anchor="middle" x="138.31" y="-131.693" font-family="Times New Roman,serif" font-size="20.00">2</text>
</g>
<!-- 5 -->
<g id="node6" class="node"><title>5</title>
<ellipse fill="cadetblue" stroke="black" cx="87.1597" cy="-200.267" rx="21.4286" ry="21.4286"/>
<text text-anchor="middle" x="87.1597" y="-195.267" font-family="Times New Roman,serif" font-size="20.00">2</text>
</g>
<!-- 0&#45;&gt;5 -->
<g id="edge3" class="edge"><title>0&#45;&gt;5</title>
<path fill="none" stroke="black" stroke-width="2" d="M124.871,-153.396C119.51,-160.06 113.222,-167.874 107.335,-175.192"/>
<polygon fill="black" stroke="black" stroke-width="2" points="104.229,-173.469 100.687,-183.454 109.682,-177.857 104.229,-173.469"/>
</g>
<!-- 6 -->
<g id="node7" class="node"><title>6</title>
<ellipse fill="cadetblue" stroke="black" cx="140.892" cy="-21.2132" rx="21.4286" ry="21.4286"/>
<text text-anchor="middle" x="140.892" y="-16.2132" font-family="Times New Roman,serif" font-size="20.00">2</text>
</g>
<!-- 0&#45;&gt;6 -->
<g id="edge4" class="edge"><title>0&#45;&gt;6</title>
<path fill="none" stroke="black" stroke-width="2" d="M138.79,-115.243C139.183,-97.6608 139.745,-72.529 140.188,-52.6704"/>
<polygon fill="black" stroke="black" stroke-width="2" points="143.69,-52.6243 140.415,-42.5486 136.692,-52.4678 143.69,-52.6243"/>
</g>
<!-- 7 -->
<g id="node8" class="node"><title>7</title>
<ellipse fill="brown" stroke="black" cx="105.957" cy="-71.6447" rx="21.4286" ry="21.4286"/>
<text text-anchor="middle" x="105.957" y="-66.6447" font-family="Times New Roman,serif" font-size="20.00">3</text>
</g>
<!-- 0&#45;&gt;7 -->
<g id="edge5" class="edge"><title>0&#45;&gt;7</title>
<path fill="none" stroke="black" stroke-width="2" d="M128.778,-117.528C126.038,-112.019 122.99,-105.891 120.037,-99.9541"/>
<polygon fill="black" stroke="black" stroke-width="2" points="123.12,-98.2923 115.533,-90.8973 116.852,-101.41 123.12,-98.2923"/>
</g>
<!-- 1 -->
<g id="node2" class="node"><title>1</title>
<ellipse fill="cadetblue" stroke="black" cx="23.7483" cy="-67.6851" rx="21.4286" ry="21.4286"/>
<text text-anchor="middle" x="23.7483" y="-62.6851" font-family="Times New Roman,serif" font-size="20.00">2</text>
</g>
<!-- 1&#45;&gt;6 -->
<g id="edge8" class="edge"><title>1&#45;&gt;6</title>
<path fill="none" stroke="black" stroke-width="2" d="M43.6201,-59.8018C62.2162,-52.4245 90.2328,-41.3101 111.429,-32.9012"/>
<polygon fill="black" stroke="black" stroke-width="2" points="112.918,-36.0761 120.922,-29.1352 110.336,-29.5694 112.918,-36.0761"/>
</g>
<!-- 1&#45;&gt;7 -->
<g id="edge9" class="edge"><title>1&#45;&gt;7</title>
<path fill="none" stroke="black" stroke-width="2" d="M45.3476,-68.7255C54.2213,-69.1528 64.6738,-69.6563 74.377,-70.1236"/>
<polygon fill="black" stroke="black" stroke-width="2" points="74.3449,-73.6261 84.5017,-70.6113 74.6817,-66.6342 74.3449,-73.6261"/>
</g>
<!-- 2 -->
<g id="node3" class="node"><title>2</title>
<ellipse fill="cadetblue" stroke="black" cx="198.523" cy="-137.244" rx="21.4286" ry="21.4286"/>
<text text-anchor="middle" x="198.523" y="-132.244" font-family="Times New Roman,serif" font-size="20.00">2</text>
</g>
<!-- 2&#45;&gt;5 -->
<g id="edge11" class="edge"><title>2&#45;&gt;5</title>
<path fill="none" stroke="black" stroke-width="2" d="M179.883,-147.793C162.056,-157.881 134.959,-173.216 114.654,-184.707"/>
<polygon fill="black" stroke="black" stroke-width="2" points="112.839,-181.712 105.86,-189.684 116.287,-187.805 112.839,-181.712"/>
</g>
<!-- 2&#45;&gt;7 -->
<g id="edge13" class="edge"><title>2&#45;&gt;7</title>
<path fill="none" stroke="black" stroke-width="2" d="M181.112,-124.906C167.148,-115.01 147.347,-100.977 131.575,-89.7997"/>
<polygon fill="black" stroke="black" stroke-width="2" points="133.472,-86.8546 123.29,-83.9282 129.425,-92.5659 133.472,-86.8546"/>
</g>
<!-- 3 -->
<g id="node4" class="node"><title>3</title>
<ellipse fill="cadetblue" stroke="black" cx="21.2132" cy="-150.845" rx="21.4286" ry="21.4286"/>
<text text-anchor="middle" x="21.2132" y="-145.845" font-family="Times New Roman,serif" font-size="20.00">2</text>
</g>
<!-- 3&#45;&gt;0 -->
<g id="edge1" class="edge"><title>3&#45;&gt;0</title>
<path fill="none" stroke="black" stroke-width="2" d="M42.4186,-148.282C60.3781,-146.112 86.3834,-142.969 106.783,-140.503"/>
<polygon fill="black" stroke="black" stroke-width="2" points="107.359,-143.959 116.867,-139.285 106.519,-137.01 107.359,-143.959"/>
</g>
<!-- 3&#45;&gt;1 -->
<g id="edge6" class="edge"><title>3&#45;&gt;1</title>
<path fill="none" stroke="black" stroke-width="2" d="M21.8661,-129.429C22.147,-120.214 22.4811,-109.256 22.7892,-99.1468"/>
<polygon fill="black" stroke="black" stroke-width="2" points="26.2913,-99.1304 23.0977,-89.0284 19.2945,-98.917 26.2913,-99.1304"/>
</g>
<!-- 4 -->
<g id="node5" class="node"><title>4</title>
<ellipse fill="cadetblue" stroke="black" cx="219.03" cy="-54.6867" rx="21.4286" ry="21.4286"/>
<text text-anchor="middle" x="219.03" y="-49.6867" font-family="Times New Roman,serif" font-size="20.00">2</text>
</g>
<!-- 4&#45;&gt;0 -->
<g id="edge2" class="edge"><title>4&#45;&gt;0</title>
<path fill="none" stroke="black" stroke-width="2" d="M203.847,-70.1115C191.671,-82.4821 174.404,-100.024 160.65,-113.997"/>
<polygon fill="black" stroke="black" stroke-width="2" points="157.946,-111.755 153.425,-121.337 162.934,-116.666 157.946,-111.755"/>
</g>
<!-- 4&#45;&gt;2 -->
<g id="edge10" class="edge"><title>4&#45;&gt;2</title>
<path fill="none" stroke="black" stroke-width="2" d="M213.855,-75.5195C211.524,-84.9059 208.723,-96.1792 206.158,-106.509"/>
<polygon fill="black" stroke="black" stroke-width="2" points="202.71,-105.869 203.696,-116.418 209.503,-107.557 202.71,-105.869"/>
</g>
<!-- 5&#45;&gt;1 -->
<g id="edge7" class="edge"><title>5&#45;&gt;1</title>
<path fill="none" stroke="black" stroke-width="2" d="M77.9391,-180.988C67.2787,-158.699 49.631,-121.801 37.3837,-96.1941"/>
<polygon fill="black" stroke="black" stroke-width="2" points="40.4522,-94.498 32.98,-86.9869 34.1373,-97.5183 40.4522,-94.498"/>
</g>
<!-- 5&#45;&gt;3 -->
<g id="edge14" class="edge"><title>5&#45;&gt;3</title>
<path fill="none" stroke="black" stroke-width="2" d="M70.1768,-187.539C63.0022,-182.163 54.4948,-175.787 46.6008,-169.871"/>
<polygon fill="black" stroke="black" stroke-width="2" points="48.4689,-166.897 38.3677,-163.701 44.271,-172.499 48.4689,-166.897"/>
</g>
<!-- 6&#45;&gt;2 -->
<g id="edge12" class="edge"><title>6&#45;&gt;2</title>
<path fill="none" stroke="black" stroke-width="2" d="M150.408,-40.3734C159.668,-59.0168 173.849,-87.5678 184.42,-108.85"/>
<polygon fill="black" stroke="black" stroke-width="2" points="181.409,-110.657 188.992,-118.056 187.678,-107.543 181.409,-110.657"/>
</g>
<!-- 6&#45;&gt;4 -->
<g id="edge16" class="edge"><title>6&#45;&gt;4</title>
<path fill="none" stroke="black" stroke-width="2" d="M160.609,-29.66C169.493,-33.4657 180.163,-38.0366 189.939,-42.2246"/>
<polygon fill="black" stroke="black" stroke-width="2" points="188.749,-45.522 199.319,-46.2426 191.505,-39.0876 188.749,-45.522"/>
</g>
<!-- 7&#45;&gt;3 -->
<g id="edge15" class="edge"><title>7&#45;&gt;3</title>
<path fill="none" stroke="black" stroke-width="2" d="M90.4135,-86.1713C77.5928,-98.1534 59.2052,-115.338 44.6062,-128.982"/>
<polygon fill="black" stroke="black" stroke-width="2" points="41.8611,-126.757 36.9449,-136.143 46.6408,-131.871 41.8611,-126.757"/>
</g>
<!-- 7&#45;&gt;4 -->
<g id="edge17" class="edge"><title>7&#45;&gt;4</title>
<path fill="none" stroke="black" stroke-width="2" d="M126.96,-68.4947C144.067,-65.9291 168.474,-62.2687 187.861,-59.3612"/>
<polygon fill="black" stroke="black" stroke-width="2" points="188.385,-62.8218 197.756,-57.8773 187.347,-55.8992 188.385,-62.8218"/>
</g>
</g>
</svg>

