<?xml version="1.0" encoding="UTF-8" standalone="no"?>
<!DOCTYPE svg PUBLIC "-//W3C//DTD SVG 1.1//EN"
 "http://www.w3.org/Graphics/SVG/1.1/DTD/svg11.dtd">
<!-- Generated by graphviz version 2.36.0 (20140111.2315)
 -->
<!-- Title: G Pages: 1 -->
<svg width="100%" height="100%"
 viewBox="0.00 0.00 229.88 236.09" xmlns="http://www.w3.org/2000/svg" xmlns:xlink="http://www.w3.org/1999/xlink">
<g id="graph0" class="graph" transform="scale(1 1) rotate(0) translate(4 232.089)">
<title>G</title>
<!-- 0 -->
<g id="node1" class="node"><title>0</title>
<ellipse fill="cadetblue" stroke="black" cx="134.021" cy="-141.846" rx="21.4286" ry="21.4286"/>
<text text-anchor="middle" x="134.021" y="-136.846" font-family="Times New Roman,serif" font-size="20.00">2</text>
</g>
<!-- 5 -->
<g id="node6" class="node"><title>5</title>
<ellipse fill="cadetblue" stroke="black" cx="21.2132" cy="-127.221" rx="21.4286" ry="21.4286"/>
<text text-anchor="middle" x="21.2132" y="-122.221" font-family="Times New Roman,serif" font-size="20.00">2</text>
</g>
<!-- 0&#45;&gt;5 -->
<g id="edge3" class="edge"><title>0&#45;&gt;5</title>
<path fill="none" stroke="black" stroke-width="2" d="M112.802,-139.095C95.7856,-136.889 71.6544,-133.76 52.4332,-131.268"/>
<polygon fill="black" stroke="black" stroke-width="2" points="52.7033,-127.774 42.3363,-129.959 51.8032,-134.716 52.7033,-127.774"/>
</g>
<!-- 6 -->
<g id="node7" class="node"><title>6</title>
<ellipse fill="cadetblue" stroke="black" cx="104.825" cy="-80.0257" rx="21.4286" ry="21.4286"/>
<text text-anchor="middle" x="104.825" y="-75.0257" font-family="Times New Roman,serif" font-size="20.00">2</text>
</g>
<!-- 0&#45;&gt;6 -->
<g id="edge4" class="edge"><title>0&#45;&gt;6</title>
<path fill="none" stroke="black" stroke-width="2" d="M124.943,-122.625C122.876,-118.247 120.635,-113.503 118.425,-108.824"/>
<polygon fill="black" stroke="black" stroke-width="2" points="121.433,-106.996 113.998,-99.4482 115.103,-109.985 121.433,-106.996"/>
</g>
<!-- 7 -->
<g id="node8" class="node"><title>7</title>
<ellipse fill="brown" stroke="black" cx="186.558" cy="-103.97" rx="21.4286" ry="21.4286"/>
<text text-anchor="middle" x="186.558" y="-98.9696" font-family="Times New Roman,serif" font-size="20.00">3</text>
</g>
<!-- 0&#45;&gt;7 -->
<g id="edge5" class="edge"><title>0&#45;&gt;7</title>
<path fill="none" stroke="black" stroke-width="2" d="M151.515,-129.234C154.56,-127.039 157.782,-124.716 160.991,-122.403"/>
<polygon fill="black" stroke="black" stroke-width="2" points="163.254,-125.085 169.319,-116.398 159.161,-119.407 163.254,-125.085"/>
</g>
<!-- 1 -->
<g id="node2" class="node"><title>1</title>
<ellipse fill="cadetblue" stroke="black" cx="78.1493" cy="-21.2132" rx="21.4286" ry="21.4286"/>
<text text-anchor="middle" x="78.1493" y="-16.2132" font-family="Times New Roman,serif" font-size="20.00">2</text>
</g>
<!-- 1&#45;&gt;6 -->
<g id="edge8" class="edge"><title>1&#45;&gt;6</title>
<path fill="none" stroke="black" stroke-width="2" d="M87.0319,-40.7969C88.5457,-44.1342 90.1459,-47.6623 91.7413,-51.1796"/>
<polygon fill="black" stroke="black" stroke-width="2" points="88.5721,-52.6657 95.8903,-60.327 94.947,-49.7742 88.5721,-52.6657"/>
</g>
<!-- 1&#45;&gt;7 -->
<g id="edge9" class="edge"><title>1&#45;&gt;7</title>
<path fill="none" stroke="black" stroke-width="2" d="M95.0882,-34.1439C112.805,-47.6681 140.815,-69.0505 161.176,-84.593"/>
<polygon fill="black" stroke="black" stroke-width="2" points="159.308,-87.5708 169.381,-90.8566 163.556,-82.0067 159.308,-87.5708"/>
</g>
<!-- 2 -->
<g id="node3" class="node"><title>2</title>
<ellipse fill="cadetblue" stroke="black" cx="100.163" cy="-192.278" rx="21.4286" ry="21.4286"/>
<text text-anchor="middle" x="100.163" y="-187.278" font-family="Times New Roman,serif" font-size="20.00">2</text>
</g>
<!-- 4 -->
<g id="node5" class="node"><title>4</title>
<ellipse fill="cadetblue" stroke="black" cx="200.664" cy="-206.876" rx="21.4286" ry="21.4286"/>
<text text-anchor="middle" x="200.664" y="-201.876" font-family="Times New Roman,serif" font-size="20.00">2</text>
</g>
<!-- 2&#45;&gt;4 -->
<g id="edge10" class="edge"><title>2&#45;&gt;4</title>
<path fill="none" stroke="black" stroke-width="2" d="M121.477,-195.374C135.334,-197.386 153.645,-200.046 169.169,-202.301"/>
<polygon fill="black" stroke="black" stroke-width="2" points="168.982,-205.811 179.381,-203.784 169.988,-198.883 168.982,-205.811"/>
</g>
<!-- 2&#45;&gt;5 -->
<g id="edge11" class="edge"><title>2&#45;&gt;5</title>
<path fill="none" stroke="black" stroke-width="2" d="M83.4202,-178.481C72.4606,-169.45 57.955,-157.497 45.7081,-147.405"/>
<polygon fill="black" stroke="black" stroke-width="2" points="47.6049,-144.433 37.6617,-140.775 43.1533,-149.835 47.6049,-144.433"/>
</g>
<!-- 3 -->
<g id="node4" class="node"><title>3</title>
<ellipse fill="cadetblue" stroke="black" cx="173.541" cy="-22.707" rx="21.4286" ry="21.4286"/>
<text text-anchor="middle" x="173.541" y="-17.707" font-family="Times New Roman,serif" font-size="20.00">2</text>
</g>
<!-- 3&#45;&gt;0 -->
<g id="edge1" class="edge"><title>3&#45;&gt;0</title>
<path fill="none" stroke="black" stroke-width="2" d="M166.837,-42.9174C160.563,-61.8303 151.111,-90.3243 143.96,-111.882"/>
<polygon fill="black" stroke="black" stroke-width="2" points="140.584,-110.943 140.758,-121.537 147.228,-113.147 140.584,-110.943"/>
</g>
<!-- 3&#45;&gt;1 -->
<g id="edge6" class="edge"><title>3&#45;&gt;1</title>
<path fill="none" stroke="black" stroke-width="2" d="M151.895,-22.3681C139.367,-22.1719 123.38,-21.9215 109.496,-21.7041"/>
<polygon fill="black" stroke="black" stroke-width="2" points="109.434,-18.2028 99.3808,-21.5457 109.325,-25.2019 109.434,-18.2028"/>
</g>
<!-- 4&#45;&gt;0 -->
<g id="edge2" class="edge"><title>4&#45;&gt;0</title>
<path fill="none" stroke="black" stroke-width="2" d="M185.207,-191.793C176.712,-183.504 166.017,-173.068 156.603,-163.881"/>
<polygon fill="black" stroke="black" stroke-width="2" points="158.995,-161.326 149.394,-156.847 154.107,-166.336 158.995,-161.326"/>
</g>
<!-- 5&#45;&gt;1 -->
<g id="edge7" class="edge"><title>5&#45;&gt;1</title>
<path fill="none" stroke="black" stroke-width="2" d="M31.3922,-108.269C40.2578,-91.762 53.2273,-67.6146 63.2592,-48.9365"/>
<polygon fill="black" stroke="black" stroke-width="2" points="66.4101,-50.467 68.0584,-40.0011 60.2432,-47.1548 66.4101,-50.467"/>
</g>
<!-- 6&#45;&gt;2 -->
<g id="edge12" class="edge"><title>6&#45;&gt;2</title>
<path fill="none" stroke="black" stroke-width="2" d="M103.937,-101.404C103.241,-118.179 102.261,-141.781 101.474,-160.728"/>
<polygon fill="black" stroke="black" stroke-width="2" points="97.966,-160.843 101.048,-170.979 104.96,-161.133 97.966,-160.843"/>
</g>
<!-- 6&#45;&gt;3 -->
<g id="edge14" class="edge"><title>6&#45;&gt;3</title>
<path fill="none" stroke="black" stroke-width="2" d="M121.459,-66.1504C129.815,-59.1803 140.097,-50.6035 149.312,-42.9172"/>
<polygon fill="black" stroke="black" stroke-width="2" points="151.622,-45.5478 157.06,-36.4545 147.139,-40.1724 151.622,-45.5478"/>
</g>
<!-- 6&#45;&gt;7 -->
<g id="edge17" class="edge"><title>6&#45;&gt;7</title>
<path fill="none" stroke="black" stroke-width="2" d="M125.45,-86.0677C134.742,-88.79 145.903,-92.0596 156.129,-95.0553"/>
<polygon fill="black" stroke="black" stroke-width="2" points="155.36,-98.4769 165.94,-97.9294 157.328,-91.7592 155.36,-98.4769"/>
</g>
<!-- 7&#45;&gt;2 -->
<g id="edge13" class="edge"><title>7&#45;&gt;2</title>
<path fill="none" stroke="black" stroke-width="2" d="M177.879,-123.359C171.957,-135.075 163.262,-149.76 152.604,-160.463 145.651,-167.445 136.873,-173.536 128.498,-178.468"/>
<polygon fill="black" stroke="black" stroke-width="2" points="126.728,-175.447 119.674,-183.352 130.118,-181.572 126.728,-175.447"/>
</g>
<!-- 7&#45;&gt;3 -->
<g id="edge15" class="edge"><title>7&#45;&gt;3</title>
<path fill="none" stroke="black" stroke-width="2" d="M183.138,-82.6188C181.733,-73.8472 180.078,-63.5149 178.541,-53.9234"/>
<polygon fill="black" stroke="black" stroke-width="2" points="181.976,-53.2357 176.938,-43.9152 175.064,-54.343 181.976,-53.2357"/>
</g>
<!-- 7&#45;&gt;4 -->
<g id="edge16" class="edge"><title>7&#45;&gt;4</title>
<path fill="none" stroke="black" stroke-width="2" d="M189.481,-125.292C191.467,-139.78 194.127,-159.188 196.355,-175.44"/>
<polygon fill="black" stroke="black" stroke-width="2" points="192.919,-176.149 197.745,-185.581 199.854,-175.198 192.919,-176.149"/>
</g>
</g>
</svg>

