<?xml version="1.0" encoding="UTF-8" standalone="no"?>
<!DOCTYPE svg PUBLIC "-//W3C//DTD SVG 1.1//EN"
 "http://www.w3.org/Graphics/SVG/1.1/DTD/svg11.dtd">
<!-- Generated by graphviz version 2.36.0 (20140111.2315)
 -->
<!-- Title: G Pages: 1 -->
<svg width="100%" height="100%"
 viewBox="0.00 0.00 200.03 245.65" xmlns="http://www.w3.org/2000/svg" xmlns:xlink="http://www.w3.org/1999/xlink">
<g id="graph0" class="graph" transform="scale(1 1) rotate(0) translate(4 241.651)">
<title>G</title>
<!-- 0 -->
<g id="node1" class="node"><title>0</title>
<ellipse fill="cadetblue" stroke="black" cx="21.2132" cy="-60.5197" rx="21.4286" ry="21.4286"/>
<text text-anchor="middle" x="21.2132" y="-55.5197" font-family="Times New Roman,serif" font-size="20.00">2</text>
</g>
<!-- 6 -->
<g id="node7" class="node"><title>6</title>
<ellipse fill="cadetblue" stroke="black" cx="152.437" cy="-41.0865" rx="21.4286" ry="21.4286"/>
<text text-anchor="middle" x="152.437" y="-36.0865" font-family="Times New Roman,serif" font-size="20.00">2</text>
</g>
<!-- 0&#45;&gt;6 -->
<g id="edge3" class="edge"><title>0&#45;&gt;6</title>
<path fill="none" stroke="black" stroke-width="2" d="M42.2966,-57.3974C63.6278,-54.2384 96.8483,-49.3188 121.23,-45.7081"/>
<polygon fill="black" stroke="black" stroke-width="2" points="122.027,-49.1283 131.406,-44.201 121.001,-42.2038 122.027,-49.1283"/>
</g>
<!-- 7 -->
<g id="node8" class="node"><title>7</title>
<ellipse fill="brown" stroke="black" cx="93.1399" cy="-21.2132" rx="21.4286" ry="21.4286"/>
<text text-anchor="middle" x="93.1399" y="-16.2132" font-family="Times New Roman,serif" font-size="20.00">3</text>
</g>
<!-- 0&#45;&gt;7 -->
<g id="edge4" class="edge"><title>0&#45;&gt;7</title>
<path fill="none" stroke="black" stroke-width="2" d="M40.1111,-50.1924C47.875,-45.9496 57.0202,-40.9519 65.5098,-36.3125"/>
<polygon fill="black" stroke="black" stroke-width="2" points="67.2714,-39.3384 74.3682,-31.4715 63.9146,-33.1957 67.2714,-39.3384"/>
</g>
<!-- 1 -->
<g id="node2" class="node"><title>1</title>
<ellipse fill="cadetblue" stroke="black" cx="52.0027" cy="-118.572" rx="21.4286" ry="21.4286"/>
<text text-anchor="middle" x="52.0027" y="-113.572" font-family="Times New Roman,serif" font-size="20.00">2</text>
</g>
<!-- 1&#45;&gt;6 -->
<g id="edge7" class="edge"><title>1&#45;&gt;6</title>
<path fill="none" stroke="black" stroke-width="2" d="M69.0401,-105.428C84.9116,-93.1826 108.787,-74.7628 126.93,-60.7652"/>
<polygon fill="black" stroke="black" stroke-width="2" points="129.537,-63.1749 135.316,-54.2953 125.261,-57.6326 129.537,-63.1749"/>
</g>
<!-- 1&#45;&gt;7 -->
<g id="edge8" class="edge"><title>1&#45;&gt;7</title>
<path fill="none" stroke="black" stroke-width="2" d="M60.3275,-98.8699C66.2379,-84.8818 74.269,-65.8747 80.9064,-50.1661"/>
<polygon fill="black" stroke="black" stroke-width="2" points="84.1594,-51.4596 84.8275,-40.8859 77.7113,-48.7351 84.1594,-51.4596"/>
</g>
<!-- 2 -->
<g id="node3" class="node"><title>2</title>
<ellipse fill="cadetblue" stroke="black" cx="170.82" cy="-140.156" rx="21.4286" ry="21.4286"/>
<text text-anchor="middle" x="170.82" y="-135.156" font-family="Times New Roman,serif" font-size="20.00">2</text>
</g>
<!-- 4 -->
<g id="node5" class="node"><title>4</title>
<ellipse fill="cadetblue" stroke="black" cx="35.9531" cy="-190.99" rx="21.4286" ry="21.4286"/>
<text text-anchor="middle" x="35.9531" y="-185.99" font-family="Times New Roman,serif" font-size="20.00">2</text>
</g>
<!-- 2&#45;&gt;4 -->
<g id="edge9" class="edge"><title>2&#45;&gt;4</title>
<path fill="none" stroke="black" stroke-width="2" d="M150.92,-147.657C128.409,-156.142 91.52,-170.046 65.6122,-179.811"/>
<polygon fill="black" stroke="black" stroke-width="2" points="64.0578,-176.656 55.9348,-183.458 66.5267,-183.206 64.0578,-176.656"/>
</g>
<!-- 5 -->
<g id="node6" class="node"><title>5</title>
<ellipse fill="cadetblue" stroke="black" cx="119.507" cy="-216.438" rx="21.4286" ry="21.4286"/>
<text text-anchor="middle" x="119.507" y="-211.438" font-family="Times New Roman,serif" font-size="20.00">2</text>
</g>
<!-- 2&#45;&gt;5 -->
<g id="edge10" class="edge"><title>2&#45;&gt;5</title>
<path fill="none" stroke="black" stroke-width="2" d="M158.919,-157.849C152.489,-167.408 144.422,-179.399 137.264,-190.04"/>
<polygon fill="black" stroke="black" stroke-width="2" points="134.199,-188.326 131.521,-198.577 140.007,-192.233 134.199,-188.326"/>
</g>
<!-- 3 -->
<g id="node4" class="node"><title>3</title>
<ellipse fill="cadetblue" stroke="black" cx="120.389" cy="-107.557" rx="21.4286" ry="21.4286"/>
<text text-anchor="middle" x="120.389" y="-102.557" font-family="Times New Roman,serif" font-size="20.00">2</text>
</g>
<!-- 3&#45;&gt;0 -->
<g id="edge1" class="edge"><title>3&#45;&gt;0</title>
<path fill="none" stroke="black" stroke-width="2" d="M100.795,-98.2638C86.1661,-91.3256 65.959,-81.7418 49.5678,-73.9677"/>
<polygon fill="black" stroke="black" stroke-width="2" points="50.9641,-70.7563 40.4289,-69.6333 47.9644,-77.081 50.9641,-70.7563"/>
</g>
<!-- 3&#45;&gt;5 -->
<g id="edge13" class="edge"><title>3&#45;&gt;5</title>
<path fill="none" stroke="black" stroke-width="2" d="M120.217,-128.809C120.088,-144.743 119.909,-166.811 119.763,-184.814"/>
<polygon fill="black" stroke="black" stroke-width="2" points="116.263,-184.839 119.682,-194.867 123.263,-184.896 116.263,-184.839"/>
</g>
<!-- 4&#45;&gt;0 -->
<g id="edge2" class="edge"><title>4&#45;&gt;0</title>
<path fill="none" stroke="black" stroke-width="2" d="M32.5925,-169.775C30.3948,-155.342 27.591,-135.792 25.6985,-118.476 24.7553,-109.846 23.9396,-100.472 23.2721,-91.8277"/>
<polygon fill="black" stroke="black" stroke-width="2" points="26.7548,-91.4626 22.5328,-81.7453 19.7735,-91.9745 26.7548,-91.4626"/>
</g>
<!-- 4&#45;&gt;1 -->
<g id="edge5" class="edge"><title>4&#45;&gt;1</title>
<path fill="none" stroke="black" stroke-width="2" d="M40.5953,-170.044C42.026,-163.588 43.6322,-156.341 45.1776,-149.368"/>
<polygon fill="black" stroke="black" stroke-width="2" points="48.6242,-149.991 47.371,-139.471 41.79,-148.477 48.6242,-149.991"/>
</g>
<!-- 5&#45;&gt;1 -->
<g id="edge6" class="edge"><title>5&#45;&gt;1</title>
<path fill="none" stroke="black" stroke-width="2" d="M107.439,-198.941C97.0399,-183.866 81.8794,-161.886 70.04,-144.722"/>
<polygon fill="black" stroke="black" stroke-width="2" points="72.7533,-142.491 64.1943,-136.247 66.9911,-146.466 72.7533,-142.491"/>
</g>
<!-- 5&#45;&gt;4 -->
<g id="edge16" class="edge"><title>5&#45;&gt;4</title>
<path fill="none" stroke="black" stroke-width="2" d="M98.8532,-210.147C88.9374,-207.127 76.8671,-203.451 65.9617,-200.13"/>
<polygon fill="black" stroke="black" stroke-width="2" points="66.9552,-196.773 56.3693,-197.208 64.9157,-203.47 66.9552,-196.773"/>
</g>
<!-- 6&#45;&gt;2 -->
<g id="edge11" class="edge"><title>6&#45;&gt;2</title>
<path fill="none" stroke="black" stroke-width="2" d="M156.336,-62.0967C158.871,-75.7569 162.22,-93.8073 165.059,-109.11"/>
<polygon fill="black" stroke="black" stroke-width="2" points="161.661,-109.983 166.927,-119.177 168.544,-108.706 161.661,-109.983"/>
</g>
<!-- 6&#45;&gt;3 -->
<g id="edge14" class="edge"><title>6&#45;&gt;3</title>
<path fill="none" stroke="black" stroke-width="2" d="M143.168,-60.3125C140.336,-66.186 137.159,-72.7741 134.098,-79.1233"/>
<polygon fill="black" stroke="black" stroke-width="2" points="130.939,-77.616 129.749,-88.1437 137.244,-80.6562 130.939,-77.616"/>
</g>
<!-- 6&#45;&gt;7 -->
<g id="edge17" class="edge"><title>6&#45;&gt;7</title>
<path fill="none" stroke="black" stroke-width="2" d="M132.031,-34.2472C129.11,-33.2683 126.056,-32.2448 122.999,-31.2203"/>
<polygon fill="black" stroke="black" stroke-width="2" points="123.977,-27.857 113.383,-27.9978 121.753,-34.4941 123.977,-27.857"/>
</g>
<!-- 7&#45;&gt;2 -->
<g id="edge12" class="edge"><title>7&#45;&gt;2</title>
<path fill="none" stroke="black" stroke-width="2" d="M105.406,-38.9237C114.758,-52.5248 127.882,-71.8235 139.02,-88.9877 144.012,-96.6814 149.315,-105.108 154.131,-112.863"/>
<polygon fill="black" stroke="black" stroke-width="2" points="151.278,-114.905 159.512,-121.573 157.234,-111.226 151.278,-114.905"/>
</g>
<!-- 7&#45;&gt;3 -->
<g id="edge15" class="edge"><title>7&#45;&gt;3</title>
<path fill="none" stroke="black" stroke-width="2" d="M99.5975,-41.6754C102.991,-52.4284 107.214,-65.8091 110.965,-77.6971"/>
<polygon fill="black" stroke="black" stroke-width="2" points="107.63,-78.7584 113.977,-87.2414 114.306,-76.6517 107.63,-78.7584"/>
</g>
</g>
</svg>

