<?xml version="1.0" encoding="UTF-8" standalone="no"?>
<!DOCTYPE svg PUBLIC "-//W3C//DTD SVG 1.1//EN"
 "http://www.w3.org/Graphics/SVG/1.1/DTD/svg11.dtd">
<!-- Generated by graphviz version 2.36.0 (20140111.2315)
 -->
<!-- Title: G Pages: 1 -->
<svg width="100%" height="100%"
 viewBox="0.00 0.00 291.82 243.74" xmlns="http://www.w3.org/2000/svg" xmlns:xlink="http://www.w3.org/1999/xlink">
<g id="graph0" class="graph" transform="scale(1 1) rotate(0) translate(4 239.738)">
<title>G</title>
<!-- 0 -->
<g id="node1" class="node"><title>0</title>
<ellipse fill="cadetblue" stroke="black" cx="157.666" cy="-214.524" rx="21.4286" ry="21.4286"/>
<text text-anchor="middle" x="157.666" y="-209.524" font-family="Times New Roman,serif" font-size="20.00">2</text>
</g>
<!-- 3 -->
<g id="node4" class="node"><title>3</title>
<ellipse fill="cadetblue" stroke="black" cx="262.609" cy="-209.878" rx="21.4286" ry="21.4286"/>
<text text-anchor="middle" x="262.609" y="-204.878" font-family="Times New Roman,serif" font-size="20.00">2</text>
</g>
<!-- 0&#45;&gt;3 -->
<g id="edge1" class="edge"><title>0&#45;&gt;3</title>
<path fill="none" stroke="black" stroke-width="2" d="M178.903,-213.584C193.981,-212.917 214.469,-212.01 231.401,-211.26"/>
<polygon fill="black" stroke="black" stroke-width="2" points="231.569,-214.756 241.404,-210.817 231.259,-207.763 231.569,-214.756"/>
</g>
<!-- 5 -->
<g id="node6" class="node"><title>5</title>
<ellipse fill="cadetblue" stroke="black" cx="21.2132" cy="-139.55" rx="21.4286" ry="21.4286"/>
<text text-anchor="middle" x="21.2132" y="-134.55" font-family="Times New Roman,serif" font-size="20.00">2</text>
</g>
<!-- 0&#45;&gt;5 -->
<g id="edge3" class="edge"><title>0&#45;&gt;5</title>
<path fill="none" stroke="black" stroke-width="2" d="M136.281,-211.968C127.19,-210.6 116.539,-208.622 107.139,-205.89 81.6322,-198.478 58.167,-179.12 42.2263,-163.216"/>
<polygon fill="black" stroke="black" stroke-width="2" points="44.4905,-160.522 35.0293,-155.754 39.4519,-165.381 44.4905,-160.522"/>
</g>
<!-- 6 -->
<g id="node7" class="node"><title>6</title>
<ellipse fill="brown" stroke="black" cx="210.871" cy="-79.8376" rx="21.4286" ry="21.4286"/>
<text text-anchor="middle" x="210.871" y="-74.8376" font-family="Times New Roman,serif" font-size="20.00">3</text>
</g>
<!-- 0&#45;&gt;6 -->
<g id="edge4" class="edge"><title>0&#45;&gt;6</title>
<path fill="none" stroke="black" stroke-width="2" d="M165.517,-194.651C174.436,-172.071 189.079,-135.004 199.306,-109.114"/>
<polygon fill="black" stroke="black" stroke-width="2" points="202.569,-110.379 202.988,-99.7926 196.059,-107.807 202.569,-110.379"/>
</g>
<!-- 1 -->
<g id="node2" class="node"><title>1</title>
<ellipse fill="cadetblue" stroke="black" cx="107.235" cy="-179.586" rx="21.4286" ry="21.4286"/>
<text text-anchor="middle" x="107.235" y="-174.586" font-family="Times New Roman,serif" font-size="20.00">2</text>
</g>
<!-- 4 -->
<g id="node5" class="node"><title>4</title>
<ellipse fill="cadetblue" stroke="black" cx="251.851" cy="-151.701" rx="21.4286" ry="21.4286"/>
<text text-anchor="middle" x="251.851" y="-146.701" font-family="Times New Roman,serif" font-size="20.00">2</text>
</g>
<!-- 1&#45;&gt;4 -->
<g id="edge6" class="edge"><title>1&#45;&gt;4</title>
<path fill="none" stroke="black" stroke-width="2" d="M128.263,-175.531C152.575,-170.843 192.823,-163.083 220.754,-157.697"/>
<polygon fill="black" stroke="black" stroke-width="2" points="221.641,-161.091 230.797,-155.761 220.316,-154.217 221.641,-161.091"/>
</g>
<!-- 1&#45;&gt;5 -->
<g id="edge7" class="edge"><title>1&#45;&gt;5</title>
<path fill="none" stroke="black" stroke-width="2" d="M87.7151,-170.501C76.4967,-165.28 62.2027,-158.627 49.7439,-152.829"/>
<polygon fill="black" stroke="black" stroke-width="2" points="51.1986,-149.645 40.6556,-148.599 48.2449,-155.991 51.1986,-149.645"/>
</g>
<!-- 2 -->
<g id="node3" class="node"><title>2</title>
<ellipse fill="cadetblue" stroke="black" cx="89.9356" cy="-21.2132" rx="21.4286" ry="21.4286"/>
<text text-anchor="middle" x="89.9356" y="-16.2132" font-family="Times New Roman,serif" font-size="20.00">2</text>
</g>
<!-- 7 -->
<g id="node8" class="node"><title>7</title>
<ellipse fill="cadetblue" stroke="black" cx="159.11" cy="-111.904" rx="21.4286" ry="21.4286"/>
<text text-anchor="middle" x="159.11" y="-106.904" font-family="Times New Roman,serif" font-size="20.00">2</text>
</g>
<!-- 2&#45;&gt;7 -->
<g id="edge12" class="edge"><title>2&#45;&gt;7</title>
<path fill="none" stroke="black" stroke-width="2" d="M102.947,-38.2715C113.382,-51.9521 128.179,-71.3522 139.966,-86.8049"/>
<polygon fill="black" stroke="black" stroke-width="2" points="137.31,-89.0938 146.157,-94.9223 142.876,-84.8485 137.31,-89.0938"/>
</g>
<!-- 3&#45;&gt;7 -->
<g id="edge14" class="edge"><title>3&#45;&gt;7</title>
<path fill="none" stroke="black" stroke-width="2" d="M246.89,-194.998C229.617,-178.647 201.711,-152.231 182.007,-133.579"/>
<polygon fill="black" stroke="black" stroke-width="2" points="184.307,-130.936 174.638,-126.603 179.495,-136.02 184.307,-130.936"/>
</g>
<!-- 4&#45;&gt;0 -->
<g id="edge2" class="edge"><title>4&#45;&gt;0</title>
<path fill="none" stroke="black" stroke-width="2" d="M234.136,-163.518C220.018,-172.935 200.035,-186.263 184.038,-196.934"/>
<polygon fill="black" stroke="black" stroke-width="2" points="181.999,-194.086 175.622,-202.547 185.884,-199.91 181.999,-194.086"/>
</g>
<!-- 4&#45;&gt;6 -->
<g id="edge15" class="edge"><title>4&#45;&gt;6</title>
<path fill="none" stroke="black" stroke-width="2" d="M241.298,-133.194C236.792,-125.293 231.44,-115.908 226.491,-107.229"/>
<polygon fill="black" stroke="black" stroke-width="2" points="229.525,-105.484 221.531,-98.5313 223.444,-108.952 229.525,-105.484"/>
</g>
<!-- 5&#45;&gt;2 -->
<g id="edge10" class="edge"><title>5&#45;&gt;2</title>
<path fill="none" stroke="black" stroke-width="2" d="M31.9511,-121.06C43.2983,-101.52 61.3073,-70.5098 74.245,-48.2316"/>
<polygon fill="black" stroke="black" stroke-width="2" points="77.2778,-49.9787 79.2732,-39.5735 71.2245,-46.4633 77.2778,-49.9787"/>
</g>
<!-- 6&#45;&gt;1 -->
<g id="edge8" class="edge"><title>6&#45;&gt;1</title>
<path fill="none" stroke="black" stroke-width="2" d="M200.759,-98.901C194.858,-108.976 186.794,-121.155 177.709,-130.505 165.095,-143.488 148.595,-155.195 134.732,-163.917"/>
<polygon fill="black" stroke="black" stroke-width="2" points="132.784,-161.005 126.07,-169.201 136.43,-166.981 132.784,-161.005"/>
</g>
<!-- 6&#45;&gt;2 -->
<g id="edge11" class="edge"><title>6&#45;&gt;2</title>
<path fill="none" stroke="black" stroke-width="2" d="M191.708,-70.5484C172.011,-60.9998 141.111,-46.021 118.524,-35.0715"/>
<polygon fill="black" stroke="black" stroke-width="2" points="119.934,-31.8658 109.409,-30.6531 116.881,-38.1647 119.934,-31.8658"/>
</g>
<!-- 6&#45;&gt;3 -->
<g id="edge13" class="edge"><title>6&#45;&gt;3</title>
<path fill="none" stroke="black" stroke-width="2" d="M212.846,-101.086C215.351,-120.169 220.915,-148.434 233.068,-170.116 235.907,-175.18 239.302,-180.338 242.763,-185.188"/>
<polygon fill="black" stroke="black" stroke-width="2" points="240.176,-187.573 248.959,-193.499 245.788,-183.39 240.176,-187.573"/>
</g>
<!-- 7&#45;&gt;0 -->
<g id="edge5" class="edge"><title>7&#45;&gt;0</title>
<path fill="none" stroke="black" stroke-width="2" d="M158.811,-133.167C158.608,-147.615 158.335,-166.969 158.107,-183.176"/>
<polygon fill="black" stroke="black" stroke-width="2" points="154.606,-183.24 157.965,-193.289 161.605,-183.339 154.606,-183.24"/>
</g>
<!-- 7&#45;&gt;1 -->
<g id="edge9" class="edge"><title>7&#45;&gt;1</title>
<path fill="none" stroke="black" stroke-width="2" d="M146.02,-128.983C140.077,-136.737 132.93,-146.061 126.399,-154.582"/>
<polygon fill="black" stroke="black" stroke-width="2" points="123.447,-152.681 120.141,-162.747 129.002,-156.939 123.447,-152.681"/>
</g>
<!-- 7&#45;&gt;4 -->
<g id="edge16" class="edge"><title>7&#45;&gt;4</title>
<path fill="none" stroke="black" stroke-width="2" d="M178.778,-120.344C191.566,-125.831 208.463,-133.082 222.788,-139.229"/>
<polygon fill="black" stroke="black" stroke-width="2" points="221.642,-142.546 232.212,-143.273 224.402,-136.113 221.642,-142.546"/>
</g>
<!-- 7&#45;&gt;6 -->
<g id="edge17" class="edge"><title>7&#45;&gt;6</title>
<path fill="none" stroke="black" stroke-width="2" d="M177.214,-100.689C179.407,-99.3297 181.683,-97.9197 183.97,-96.5031"/>
<polygon fill="black" stroke="black" stroke-width="2" points="186.033,-99.3425 192.69,-91.1007 182.346,-93.3919 186.033,-99.3425"/>
</g>
</g>
</svg>

