<?xml version="1.0" encoding="UTF-8" standalone="no"?>
<!DOCTYPE svg PUBLIC "-//W3C//DTD SVG 1.1//EN"
 "http://www.w3.org/Graphics/SVG/1.1/DTD/svg11.dtd">
<!-- Generated by graphviz version 2.36.0 (20140111.2315)
 -->
<!-- Title: G Pages: 1 -->
<svg width="100%" height="100%"
 viewBox="0.00 0.00 264.88 276.47" xmlns="http://www.w3.org/2000/svg" xmlns:xlink="http://www.w3.org/1999/xlink">
<g id="graph0" class="graph" transform="scale(1 1) rotate(0) translate(4 272.465)">
<title>G</title>
<!-- 0 -->
<g id="node1" class="node"><title>0</title>
<ellipse fill="cadetblue" stroke="black" cx="175.751" cy="-209.349" rx="21.4286" ry="21.4286"/>
<text text-anchor="middle" x="175.751" y="-204.349" font-family="Times New Roman,serif" font-size="20.00">2</text>
</g>
<!-- 5 -->
<g id="node6" class="node"><title>5</title>
<ellipse fill="cadetblue" stroke="black" cx="28.7835" cy="-101.334" rx="21.4286" ry="21.4286"/>
<text text-anchor="middle" x="28.7835" y="-96.3336" font-family="Times New Roman,serif" font-size="20.00">2</text>
</g>
<!-- 0&#45;&gt;5 -->
<g id="edge3" class="edge"><title>0&#45;&gt;5</title>
<path fill="none" stroke="black" stroke-width="2" d="M158.319,-196.657C139,-182.578 106.934,-159.171 79.4048,-138.892 71.252,-132.887 62.3793,-126.316 54.3724,-120.373"/>
<polygon fill="black" stroke="black" stroke-width="2" points="56.2134,-117.38 46.0988,-114.227 52.0391,-123 56.2134,-117.38"/>
</g>
<!-- 6 -->
<g id="node7" class="node"><title>6</title>
<ellipse fill="cadetblue" stroke="black" cx="148.437" cy="-140.518" rx="21.4286" ry="21.4286"/>
<text text-anchor="middle" x="148.437" y="-135.518" font-family="Times New Roman,serif" font-size="20.00">2</text>
</g>
<!-- 0&#45;&gt;6 -->
<g id="edge4" class="edge"><title>0&#45;&gt;6</title>
<path fill="none" stroke="black" stroke-width="2" d="M167.851,-189.44C165.437,-183.358 162.73,-176.536 160.121,-169.961"/>
<polygon fill="black" stroke="black" stroke-width="2" points="163.356,-168.624 156.414,-160.62 156.849,-171.206 163.356,-168.624"/>
</g>
<!-- 1 -->
<g id="node2" class="node"><title>1</title>
<ellipse fill="cadetblue" stroke="black" cx="21.2132" cy="-192.704" rx="21.4286" ry="21.4286"/>
<text text-anchor="middle" x="21.2132" y="-187.704" font-family="Times New Roman,serif" font-size="20.00">2</text>
</g>
<!-- 1&#45;&gt;6 -->
<g id="edge7" class="edge"><title>1&#45;&gt;6</title>
<path fill="none" stroke="black" stroke-width="2" d="M41.0919,-184.55C62.0988,-175.933 95.4383,-162.258 119.39,-152.433"/>
<polygon fill="black" stroke="black" stroke-width="2" points="120.774,-155.648 128.698,-148.615 118.118,-149.172 120.774,-155.648"/>
</g>
<!-- 7 -->
<g id="node8" class="node"><title>7</title>
<ellipse fill="brown" stroke="black" cx="98.0057" cy="-120.293" rx="21.4286" ry="21.4286"/>
<text text-anchor="middle" x="98.0057" y="-115.293" font-family="Times New Roman,serif" font-size="20.00">3</text>
</g>
<!-- 1&#45;&gt;7 -->
<g id="edge8" class="edge"><title>1&#45;&gt;7</title>
<path fill="none" stroke="black" stroke-width="2" d="M36.7533,-178.051C47.7865,-167.647 62.7786,-153.51 75.1689,-141.827"/>
<polygon fill="black" stroke="black" stroke-width="2" points="77.6143,-144.332 82.4887,-134.925 72.8119,-139.239 77.6143,-144.332"/>
</g>
<!-- 2 -->
<g id="node3" class="node"><title>2</title>
<ellipse fill="cadetblue" stroke="black" cx="100.561" cy="-21.2132" rx="21.4286" ry="21.4286"/>
<text text-anchor="middle" x="100.561" y="-16.2132" font-family="Times New Roman,serif" font-size="20.00">2</text>
</g>
<!-- 2&#45;&gt;7 -->
<g id="edge11" class="edge"><title>2&#45;&gt;7</title>
<path fill="none" stroke="black" stroke-width="2" d="M100.007,-42.7121C99.662,-56.0852 99.2121,-73.5233 98.8264,-88.4788"/>
<polygon fill="black" stroke="black" stroke-width="2" points="95.3183,-88.7494 98.5592,-98.8363 102.316,-88.9299 95.3183,-88.7494"/>
</g>
<!-- 3 -->
<g id="node4" class="node"><title>3</title>
<ellipse fill="cadetblue" stroke="black" cx="235.666" cy="-120.747" rx="21.4286" ry="21.4286"/>
<text text-anchor="middle" x="235.666" y="-115.747" font-family="Times New Roman,serif" font-size="20.00">2</text>
</g>
<!-- 3&#45;&gt;0 -->
<g id="edge1" class="edge"><title>3&#45;&gt;0</title>
<path fill="none" stroke="black" stroke-width="2" d="M223.541,-138.677C214.876,-151.491 203.081,-168.932 193.378,-183.282"/>
<polygon fill="black" stroke="black" stroke-width="2" points="190.355,-181.504 187.653,-191.748 196.154,-185.425 190.355,-181.504"/>
</g>
<!-- 4 -->
<g id="node5" class="node"><title>4</title>
<ellipse fill="cadetblue" stroke="black" cx="96.7246" cy="-247.252" rx="21.4286" ry="21.4286"/>
<text text-anchor="middle" x="96.7246" y="-242.252" font-family="Times New Roman,serif" font-size="20.00">2</text>
</g>
<!-- 4&#45;&gt;0 -->
<g id="edge2" class="edge"><title>4&#45;&gt;0</title>
<path fill="none" stroke="black" stroke-width="2" d="M115.855,-238.077C125.297,-233.548 136.879,-227.993 147.333,-222.979"/>
<polygon fill="black" stroke="black" stroke-width="2" points="149.02,-226.052 156.523,-218.571 145.993,-219.74 149.02,-226.052"/>
</g>
<!-- 4&#45;&gt;1 -->
<g id="edge5" class="edge"><title>4&#45;&gt;1</title>
<path fill="none" stroke="black" stroke-width="2" d="M79.2109,-234.601C69.5851,-227.647 57.4671,-218.893 46.8001,-211.188"/>
<polygon fill="black" stroke="black" stroke-width="2" points="48.7876,-208.306 38.6318,-205.287 44.6885,-213.98 48.7876,-208.306"/>
</g>
<!-- 5&#45;&gt;1 -->
<g id="edge6" class="edge"><title>5&#45;&gt;1</title>
<path fill="none" stroke="black" stroke-width="2" d="M27.0277,-122.526C26.079,-133.975 24.8889,-148.339 23.833,-161.085"/>
<polygon fill="black" stroke="black" stroke-width="2" points="20.3234,-161.056 22.9857,-171.311 27.2995,-161.634 20.3234,-161.056"/>
</g>
<!-- 5&#45;&gt;2 -->
<g id="edge9" class="edge"><title>5&#45;&gt;2</title>
<path fill="none" stroke="black" stroke-width="2" d="M42.9645,-85.5044C53.3177,-73.9479 67.5315,-58.0821 79.2484,-45.0034"/>
<polygon fill="black" stroke="black" stroke-width="2" points="82.0984,-47.0674 86.1642,-37.2838 76.8847,-42.3965 82.0984,-47.0674"/>
</g>
<!-- 6&#45;&gt;2 -->
<g id="edge10" class="edge"><title>6&#45;&gt;2</title>
<path fill="none" stroke="black" stroke-width="2" d="M140.531,-120.817C132.839,-101.648 121.059,-72.2914 112.277,-50.4083"/>
<polygon fill="black" stroke="black" stroke-width="2" points="115.451,-48.9204 108.479,-40.9432 108.955,-51.5274 115.451,-48.9204"/>
</g>
<!-- 6&#45;&gt;3 -->
<g id="edge12" class="edge"><title>6&#45;&gt;3</title>
<path fill="none" stroke="black" stroke-width="2" d="M169.553,-135.732C180.16,-133.328 193.212,-130.369 204.909,-127.718"/>
<polygon fill="black" stroke="black" stroke-width="2" points="205.766,-131.113 214.744,-125.489 204.218,-124.286 205.766,-131.113"/>
</g>
<!-- 6&#45;&gt;4 -->
<g id="edge14" class="edge"><title>6&#45;&gt;4</title>
<path fill="none" stroke="black" stroke-width="2" d="M138.952,-160.095C130.957,-176.597 119.414,-200.422 110.416,-218.993"/>
<polygon fill="black" stroke="black" stroke-width="2" points="107.186,-217.633 105.975,-228.159 113.485,-220.685 107.186,-217.633"/>
</g>
<!-- 6&#45;&gt;7 -->
<g id="edge17" class="edge"><title>6&#45;&gt;7</title>
<path fill="none" stroke="black" stroke-width="2" d="M128.505,-132.525C128.065,-132.348 127.622,-132.17 127.178,-131.992"/>
<polygon fill="black" stroke="black" stroke-width="2" points="128.377,-128.702 117.793,-128.229 125.771,-135.199 128.377,-128.702"/>
</g>
<!-- 7&#45;&gt;3 -->
<g id="edge13" class="edge"><title>7&#45;&gt;3</title>
<path fill="none" stroke="black" stroke-width="2" d="M119.055,-116.83C128.083,-115.586 138.764,-114.433 148.468,-114.214 167.019,-113.795 187.733,-115.265 204.315,-116.916"/>
<polygon fill="black" stroke="black" stroke-width="2" points="204.237,-120.428 214.552,-118.009 204.98,-113.467 204.237,-120.428"/>
</g>
<!-- 7&#45;&gt;4 -->
<g id="edge15" class="edge"><title>7&#45;&gt;4</title>
<path fill="none" stroke="black" stroke-width="2" d="M97.7913,-141.543C97.5862,-161.867 97.2744,-192.759 97.0409,-215.907"/>
<polygon fill="black" stroke="black" stroke-width="2" points="93.5409,-215.898 96.9397,-225.933 100.541,-215.968 93.5409,-215.898"/>
</g>
<!-- 7&#45;&gt;5 -->
<g id="edge16" class="edge"><title>7&#45;&gt;5</title>
<path fill="none" stroke="black" stroke-width="2" d="M77.2367,-114.605C71.6241,-113.067 65.4299,-111.371 59.3997,-109.719"/>
<polygon fill="black" stroke="black" stroke-width="2" points="60.1071,-106.284 49.5378,-107.018 58.2579,-113.036 60.1071,-106.284"/>
</g>
</g>
</svg>

