<?xml version="1.0" encoding="UTF-8" standalone="no"?>
<!DOCTYPE svg PUBLIC "-//W3C//DTD SVG 1.1//EN"
 "http://www.w3.org/Graphics/SVG/1.1/DTD/svg11.dtd">
<!-- Generated by graphviz version 2.36.0 (20140111.2315)
 -->
<!-- Title: G Pages: 1 -->
<svg width="100%" height="100%"
 viewBox="0.00 0.00 286.77 208.57" xmlns="http://www.w3.org/2000/svg" xmlns:xlink="http://www.w3.org/1999/xlink">
<g id="graph0" class="graph" transform="scale(1 1) rotate(0) translate(4 204.569)">
<title>G</title>
<!-- 0 -->
<g id="node1" class="node"><title>0</title>
<ellipse fill="cadetblue" stroke="black" cx="163.918" cy="-45.7856" rx="21.4286" ry="21.4286"/>
<text text-anchor="middle" x="163.918" y="-40.7856" font-family="Times New Roman,serif" font-size="20.00">2</text>
</g>
<!-- 6 -->
<g id="node7" class="node"><title>6</title>
<ellipse fill="cadetblue" stroke="black" cx="123.152" cy="-179.356" rx="21.4286" ry="21.4286"/>
<text text-anchor="middle" x="123.152" y="-174.356" font-family="Times New Roman,serif" font-size="20.00">2</text>
</g>
<!-- 0&#45;&gt;6 -->
<g id="edge3" class="edge"><title>0&#45;&gt;6</title>
<path fill="none" stroke="black" stroke-width="2" d="M165.635,-67.0348C166.342,-88.2038 164.637,-120.91 150.52,-144.809 148.477,-148.268 146.121,-151.761 143.666,-155.129"/>
<polygon fill="black" stroke="black" stroke-width="2" points="140.815,-153.094 137.483,-163.152 146.359,-157.368 140.815,-153.094"/>
</g>
<!-- 7 -->
<g id="node8" class="node"><title>7</title>
<ellipse fill="brown" stroke="black" cx="84.0639" cy="-21.2132" rx="21.4286" ry="21.4286"/>
<text text-anchor="middle" x="84.0639" y="-16.2132" font-family="Times New Roman,serif" font-size="20.00">3</text>
</g>
<!-- 0&#45;&gt;7 -->
<g id="edge4" class="edge"><title>0&#45;&gt;7</title>
<path fill="none" stroke="black" stroke-width="2" d="M143.354,-39.4576C134.505,-36.7347 123.982,-33.4966 114.275,-30.5096"/>
<polygon fill="black" stroke="black" stroke-width="2" points="115.146,-27.1157 104.559,-27.5198 113.087,-33.8061 115.146,-27.1157"/>
</g>
<!-- 1 -->
<g id="node2" class="node"><title>1</title>
<ellipse fill="cadetblue" stroke="black" cx="21.2132" cy="-159.147" rx="21.4286" ry="21.4286"/>
<text text-anchor="middle" x="21.2132" y="-154.147" font-family="Times New Roman,serif" font-size="20.00">2</text>
</g>
<!-- 1&#45;&gt;6 -->
<g id="edge7" class="edge"><title>1&#45;&gt;6</title>
<path fill="none" stroke="black" stroke-width="2" d="M42.335,-163.334C56.6865,-166.179 75.9127,-169.991 92.012,-173.182"/>
<polygon fill="black" stroke="black" stroke-width="2" points="91.5675,-176.662 102.057,-175.174 92.9288,-169.796 91.5675,-176.662"/>
</g>
<!-- 1&#45;&gt;7 -->
<g id="edge8" class="edge"><title>1&#45;&gt;7</title>
<path fill="none" stroke="black" stroke-width="2" d="M33.2213,-141.476C40.5293,-130.335 49.7891,-115.499 56.8741,-101.723 60.9666,-93.7665 61.5463,-91.5435 64.6093,-83.1363 68.3414,-72.8926 72.0313,-61.5471 75.1778,-51.3959"/>
<polygon fill="black" stroke="black" stroke-width="2" points="78.557,-52.3137 78.1246,-41.7276 71.8611,-50.2727 78.557,-52.3137"/>
</g>
<!-- 2 -->
<g id="node3" class="node"><title>2</title>
<ellipse fill="cadetblue" stroke="black" cx="214.349" cy="-72.1701" rx="21.4286" ry="21.4286"/>
<text text-anchor="middle" x="214.349" y="-67.1701" font-family="Times New Roman,serif" font-size="20.00">2</text>
</g>
<!-- 4 -->
<g id="node5" class="node"><title>4</title>
<ellipse fill="cadetblue" stroke="black" cx="257.552" cy="-143.288" rx="21.4286" ry="21.4286"/>
<text text-anchor="middle" x="257.552" y="-138.288" font-family="Times New Roman,serif" font-size="20.00">2</text>
</g>
<!-- 2&#45;&gt;4 -->
<g id="edge9" class="edge"><title>2&#45;&gt;4</title>
<path fill="none" stroke="black" stroke-width="2" d="M225.475,-90.4846C230.226,-98.3042 235.868,-107.592 241.085,-116.181"/>
<polygon fill="black" stroke="black" stroke-width="2" points="238.131,-118.059 246.314,-124.788 244.113,-114.424 238.131,-118.059"/>
</g>
<!-- 2&#45;&gt;7 -->
<g id="edge12" class="edge"><title>2&#45;&gt;7</title>
<path fill="none" stroke="black" stroke-width="2" d="M193.054,-73.9674C183.986,-74.2624 173.342,-73.9816 163.894,-72.0899 142.683,-67.8431 122.179,-54.5136 107.264,-42.564"/>
<polygon fill="black" stroke="black" stroke-width="2" points="109.497,-39.8693 99.5829,-36.1337 105.004,-45.2367 109.497,-39.8693"/>
</g>
<!-- 3 -->
<g id="node4" class="node"><title>3</title>
<ellipse fill="cadetblue" stroke="black" cx="38.305" cy="-83.0926" rx="21.4286" ry="21.4286"/>
<text text-anchor="middle" x="38.305" y="-78.0926" font-family="Times New Roman,serif" font-size="20.00">2</text>
</g>
<!-- 3&#45;&gt;0 -->
<g id="edge1" class="edge"><title>3&#45;&gt;0</title>
<path fill="none" stroke="black" stroke-width="2" d="M58.7665,-77.0156C79.1139,-70.9724 110.56,-61.6328 133.767,-54.7405"/>
<polygon fill="black" stroke="black" stroke-width="2" points="134.876,-58.0623 143.465,-51.86 132.883,-51.352 134.876,-58.0623"/>
</g>
<!-- 3&#45;&gt;1 -->
<g id="edge5" class="edge"><title>3&#45;&gt;1</title>
<path fill="none" stroke="black" stroke-width="2" d="M33.6346,-103.875C31.92,-111.504 29.9414,-120.308 28.0745,-128.615"/>
<polygon fill="black" stroke="black" stroke-width="2" points="24.6559,-127.866 25.878,-138.39 31.4855,-129.4 24.6559,-127.866"/>
</g>
<!-- 5 -->
<g id="node6" class="node"><title>5</title>
<ellipse fill="cadetblue" stroke="black" cx="132.003" cy="-126.126" rx="21.4286" ry="21.4286"/>
<text text-anchor="middle" x="132.003" y="-121.126" font-family="Times New Roman,serif" font-size="20.00">2</text>
</g>
<!-- 3&#45;&gt;5 -->
<g id="edge13" class="edge"><title>3&#45;&gt;5</title>
<path fill="none" stroke="black" stroke-width="2" d="M57.7193,-92.0092C70.9107,-98.0678 88.5827,-106.184 103.381,-112.98"/>
<polygon fill="black" stroke="black" stroke-width="2" points="102.066,-116.228 112.614,-117.221 104.987,-109.867 102.066,-116.228"/>
</g>
<!-- 4&#45;&gt;0 -->
<g id="edge2" class="edge"><title>4&#45;&gt;0</title>
<path fill="none" stroke="black" stroke-width="2" d="M240.267,-130.509C227.268,-120.463 209.416,-105.708 195.722,-90.7427 190.575,-85.1175 185.548,-78.6342 181.066,-72.3732"/>
<polygon fill="black" stroke="black" stroke-width="2" points="183.897,-70.3123 175.333,-64.0749 178.138,-74.2916 183.897,-70.3123"/>
</g>
<!-- 5&#45;&gt;1 -->
<g id="edge6" class="edge"><title>5&#45;&gt;1</title>
<path fill="none" stroke="black" stroke-width="2" d="M111.424,-132.26C94.5561,-137.287 70.445,-144.473 51.3928,-150.152"/>
<polygon fill="black" stroke="black" stroke-width="2" points="50.2658,-146.835 41.6821,-153.046 52.2652,-153.544 50.2658,-146.835"/>
</g>
<!-- 5&#45;&gt;2 -->
<g id="edge10" class="edge"><title>5&#45;&gt;2</title>
<path fill="none" stroke="black" stroke-width="2" d="M149.871,-114.419C160.986,-107.136 175.479,-97.6397 187.908,-89.4954"/>
<polygon fill="black" stroke="black" stroke-width="2" points="190.07,-92.2632 196.516,-83.8549 186.234,-86.4081 190.07,-92.2632"/>
</g>
<!-- 5&#45;&gt;4 -->
<g id="edge16" class="edge"><title>5&#45;&gt;4</title>
<path fill="none" stroke="black" stroke-width="2" d="M153.301,-129.037C173.231,-131.762 203.258,-135.866 225.976,-138.971"/>
<polygon fill="black" stroke="black" stroke-width="2" points="225.768,-142.475 236.15,-140.362 226.716,-135.54 225.768,-142.475"/>
</g>
<!-- 6&#45;&gt;2 -->
<g id="edge11" class="edge"><title>6&#45;&gt;2</title>
<path fill="none" stroke="black" stroke-width="2" d="M137.003,-163.077C152.135,-145.292 176.528,-116.622 193.872,-96.2376"/>
<polygon fill="black" stroke="black" stroke-width="2" points="196.554,-98.4869 200.368,-88.6026 191.222,-93.9508 196.554,-98.4869"/>
</g>
<!-- 6&#45;&gt;3 -->
<g id="edge14" class="edge"><title>6&#45;&gt;3</title>
<path fill="none" stroke="black" stroke-width="2" d="M108.759,-163.026C95.1467,-147.583 74.5657,-124.232 59.1574,-106.751"/>
<polygon fill="black" stroke="black" stroke-width="2" points="61.7235,-104.369 52.4856,-99.1812 56.4721,-108.997 61.7235,-104.369"/>
</g>
<!-- 7&#45;&gt;3 -->
<g id="edge15" class="edge"><title>7&#45;&gt;3</title>
<path fill="none" stroke="black" stroke-width="2" d="M71.3175,-38.4501C66.9541,-44.3506 61.9746,-51.0845 57.2291,-57.5017"/>
<polygon fill="black" stroke="black" stroke-width="2" points="54.1147,-55.8268 50.983,-65.9482 59.743,-59.9888 54.1147,-55.8268"/>
</g>
<!-- 7&#45;&gt;5 -->
<g id="edge17" class="edge"><title>7&#45;&gt;5</title>
<path fill="none" stroke="black" stroke-width="2" d="M93.0809,-40.9465C100.313,-56.7726 110.567,-79.215 118.736,-97.0911"/>
<polygon fill="black" stroke="black" stroke-width="2" points="115.687,-98.8406 123.027,-106.481 122.054,-95.9313 115.687,-98.8406"/>
</g>
</g>
</svg>

