<?xml version="1.0" encoding="UTF-8" standalone="no"?>
<!DOCTYPE svg PUBLIC "-//W3C//DTD SVG 1.1//EN"
 "http://www.w3.org/Graphics/SVG/1.1/DTD/svg11.dtd">
<!-- Generated by graphviz version 2.36.0 (20140111.2315)
 -->
<!-- Title: G Pages: 1 -->
<svg width="100%" height="100%"
 viewBox="0.00 0.00 242.15 224.29" xmlns="http://www.w3.org/2000/svg" xmlns:xlink="http://www.w3.org/1999/xlink">
<g id="graph0" class="graph" transform="scale(1 1) rotate(0) translate(4 220.29)">
<title>G</title>
<!-- 0 -->
<g id="node1" class="node"><title>0</title>
<ellipse fill="cadetblue" stroke="black" cx="92.1852" cy="-21.2132" rx="21.4286" ry="21.4286"/>
<text text-anchor="middle" x="92.1852" y="-16.2132" font-family="Times New Roman,serif" font-size="20.00">2</text>
</g>
<!-- 6 -->
<g id="node7" class="node"><title>6</title>
<ellipse fill="cadetblue" stroke="black" cx="162.501" cy="-24.4512" rx="21.4286" ry="21.4286"/>
<text text-anchor="middle" x="162.501" y="-19.4512" font-family="Times New Roman,serif" font-size="20.00">2</text>
</g>
<!-- 0&#45;&gt;6 -->
<g id="edge3" class="edge"><title>0&#45;&gt;6</title>
<path fill="none" stroke="black" stroke-width="2" d="M113.664,-22.2023C119.117,-22.4534 125.089,-22.7284 130.928,-22.9973"/>
<polygon fill="black" stroke="black" stroke-width="2" points="131.003,-26.5044 141.153,-23.4682 131.325,-19.5118 131.003,-26.5044"/>
</g>
<!-- 7 -->
<g id="node8" class="node"><title>7</title>
<ellipse fill="cadetblue" stroke="black" cx="122.402" cy="-110.085" rx="21.4286" ry="21.4286"/>
<text text-anchor="middle" x="122.402" y="-105.085" font-family="Times New Roman,serif" font-size="20.00">2</text>
</g>
<!-- 0&#45;&gt;7 -->
<g id="edge4" class="edge"><title>0&#45;&gt;7</title>
<path fill="none" stroke="black" stroke-width="2" d="M99.0418,-41.3795C102.944,-52.856 107.905,-67.4479 112.251,-80.2297"/>
<polygon fill="black" stroke="black" stroke-width="2" points="109.039,-81.6572 115.572,-89.9983 115.667,-79.4038 109.039,-81.6572"/>
</g>
<!-- 1 -->
<g id="node2" class="node"><title>1</title>
<ellipse fill="cadetblue" stroke="black" cx="50.1285" cy="-75.2218" rx="21.4286" ry="21.4286"/>
<text text-anchor="middle" x="50.1285" y="-70.2218" font-family="Times New Roman,serif" font-size="20.00">2</text>
</g>
<!-- 5 -->
<g id="node6" class="node"><title>5</title>
<ellipse fill="cadetblue" stroke="black" cx="86.3509" cy="-195.077" rx="21.4286" ry="21.4286"/>
<text text-anchor="middle" x="86.3509" y="-190.077" font-family="Times New Roman,serif" font-size="20.00">2</text>
</g>
<!-- 1&#45;&gt;5 -->
<g id="edge6" class="edge"><title>1&#45;&gt;5</title>
<path fill="none" stroke="black" stroke-width="2" d="M56.2731,-95.5536C62.0233,-114.58 70.6865,-143.245 77.2407,-164.933"/>
<polygon fill="black" stroke="black" stroke-width="2" points="73.9327,-166.086 80.1761,-174.645 80.6334,-164.06 73.9327,-166.086"/>
</g>
<!-- 1&#45;&gt;7 -->
<g id="edge8" class="edge"><title>1&#45;&gt;7</title>
<path fill="none" stroke="black" stroke-width="2" d="M69.4964,-84.5645C77.0097,-88.1887 85.7656,-92.4123 93.9665,-96.3683"/>
<polygon fill="black" stroke="black" stroke-width="2" points="92.7035,-99.6449 103.231,-100.837 95.7448,-93.3401 92.7035,-99.6449"/>
</g>
<!-- 2 -->
<g id="node3" class="node"><title>2</title>
<ellipse fill="cadetblue" stroke="black" cx="193.574" cy="-151.342" rx="21.4286" ry="21.4286"/>
<text text-anchor="middle" x="193.574" y="-146.342" font-family="Times New Roman,serif" font-size="20.00">2</text>
</g>
<!-- 2&#45;&gt;5 -->
<g id="edge10" class="edge"><title>2&#45;&gt;5</title>
<path fill="none" stroke="black" stroke-width="2" d="M173.908,-159.364C157.611,-166.011 134.205,-175.558 115.693,-183.109"/>
<polygon fill="black" stroke="black" stroke-width="2" points="114.193,-179.94 106.256,-186.958 116.837,-186.422 114.193,-179.94"/>
</g>
<!-- 2&#45;&gt;6 -->
<g id="edge11" class="edge"><title>2&#45;&gt;6</title>
<path fill="none" stroke="black" stroke-width="2" d="M188.512,-130.673C183.479,-110.118 175.7,-78.3518 169.959,-54.9092"/>
<polygon fill="black" stroke="black" stroke-width="2" points="173.338,-53.9926 167.56,-45.112 166.539,-55.6576 173.338,-53.9926"/>
</g>
<!-- 3 -->
<g id="node4" class="node"><title>3</title>
<ellipse fill="cadetblue" stroke="black" cx="21.2132" cy="-129.987" rx="21.4286" ry="21.4286"/>
<text text-anchor="middle" x="21.2132" y="-124.987" font-family="Times New Roman,serif" font-size="20.00">2</text>
</g>
<!-- 3&#45;&gt;0 -->
<g id="edge1" class="edge"><title>3&#45;&gt;0</title>
<path fill="none" stroke="black" stroke-width="2" d="M39.7853,-119.189C49.4306,-112.828 60.808,-104.041 68.6606,-93.8895 77.907,-81.9359 83.5829,-66.224 87.0349,-52.4682"/>
<polygon fill="black" stroke="black" stroke-width="2" points="90.514,-52.9457 89.2634,-42.4249 83.6802,-51.4292 90.514,-52.9457"/>
</g>
<!-- 3&#45;&gt;1 -->
<g id="edge5" class="edge"><title>3&#45;&gt;1</title>
<path fill="none" stroke="black" stroke-width="2" d="M31.1642,-111.14C32.512,-108.587 33.9178,-105.925 35.3279,-103.254"/>
<polygon fill="black" stroke="black" stroke-width="2" points="38.487,-104.767 40.061,-94.2894 32.2968,-101.498 38.487,-104.767"/>
</g>
<!-- 4 -->
<g id="node5" class="node"><title>4</title>
<ellipse fill="cadetblue" stroke="black" cx="212.932" cy="-65.8511" rx="21.4286" ry="21.4286"/>
<text text-anchor="middle" x="212.932" y="-60.8511" font-family="Times New Roman,serif" font-size="20.00">2</text>
</g>
<!-- 4&#45;&gt;0 -->
<g id="edge2" class="edge"><title>4&#45;&gt;0</title>
<path fill="none" stroke="black" stroke-width="2" d="M192.152,-60.1584C182.982,-57.5121 172.117,-54.1931 162.47,-50.7556 148.696,-45.8479 133.722,-39.6747 121.148,-34.2421"/>
<polygon fill="black" stroke="black" stroke-width="2" points="122.212,-30.8871 111.648,-30.0822 119.404,-37.2994 122.212,-30.8871"/>
</g>
<!-- 4&#45;&gt;2 -->
<g id="edge9" class="edge"><title>4&#45;&gt;2</title>
<path fill="none" stroke="black" stroke-width="2" d="M208.246,-86.5461C205.933,-96.7615 203.096,-109.291 200.535,-120.6"/>
<polygon fill="black" stroke="black" stroke-width="2" points="197.079,-120.016 198.284,-130.542 203.906,-121.562 197.079,-120.016"/>
</g>
<!-- 5&#45;&gt;3 -->
<g id="edge13" class="edge"><title>5&#45;&gt;3</title>
<path fill="none" stroke="black" stroke-width="2" d="M71.2433,-179.98C63.0221,-171.765 52.6934,-161.444 43.5587,-152.316"/>
<polygon fill="black" stroke="black" stroke-width="2" points="45.7865,-149.594 36.2389,-145.001 40.8386,-154.546 45.7865,-149.594"/>
</g>
<!-- 6&#45;&gt;1 -->
<g id="edge7" class="edge"><title>6&#45;&gt;1</title>
<path fill="none" stroke="black" stroke-width="2" d="M142.927,-33.2948C125.202,-41.303 98.8674,-53.2013 78.775,-62.2792"/>
<polygon fill="black" stroke="black" stroke-width="2" points="77.1499,-59.1727 69.478,-66.4796 80.0321,-65.5518 77.1499,-59.1727"/>
</g>
<!-- 6&#45;&gt;4 -->
<g id="edge15" class="edge"><title>6&#45;&gt;4</title>
<path fill="none" stroke="black" stroke-width="2" d="M179.014,-38.0071C182.03,-40.4832 185.236,-43.1147 188.426,-45.7338"/>
<polygon fill="black" stroke="black" stroke-width="2" points="186.259,-48.4832 196.209,-52.123 190.701,-43.0727 186.259,-48.4832"/>
</g>
<!-- 7&#45;&gt;2 -->
<g id="edge12" class="edge"><title>7&#45;&gt;2</title>
<path fill="none" stroke="black" stroke-width="2" d="M141.101,-120.925C148.723,-125.343 157.691,-130.541 166.035,-135.379"/>
<polygon fill="black" stroke="black" stroke-width="2" points="164.345,-138.444 174.752,-140.432 167.856,-132.388 164.345,-138.444"/>
</g>
<!-- 7&#45;&gt;3 -->
<g id="edge14" class="edge"><title>7&#45;&gt;3</title>
<path fill="none" stroke="black" stroke-width="2" d="M101.435,-114.208C87.1895,-117.01 68.1048,-120.764 52.124,-123.907"/>
<polygon fill="black" stroke="black" stroke-width="2" points="51.2892,-120.504 42.1527,-125.868 52.6402,-127.372 51.2892,-120.504"/>
</g>
<!-- 7&#45;&gt;4 -->
<g id="edge16" class="edge"><title>7&#45;&gt;4</title>
<path fill="none" stroke="black" stroke-width="2" d="M141.601,-100.704C154.084,-94.6048 170.578,-86.5455 184.561,-79.7132"/>
<polygon fill="black" stroke="black" stroke-width="2" points="186.312,-82.7532 193.761,-75.2184 183.239,-76.4638 186.312,-82.7532"/>
</g>
</g>
</svg>

