<?xml version="1.0" encoding="UTF-8" standalone="no"?>
<!DOCTYPE svg PUBLIC "-//W3C//DTD SVG 1.1//EN"
 "http://www.w3.org/Graphics/SVG/1.1/DTD/svg11.dtd">
<!-- Generated by graphviz version 2.36.0 (20140111.2315)
 -->
<!-- Title: G Pages: 1 -->
<svg width="100%" height="100%"
 viewBox="0.00 0.00 231.08 222.04" xmlns="http://www.w3.org/2000/svg" xmlns:xlink="http://www.w3.org/1999/xlink">
<g id="graph0" class="graph" transform="scale(1 1) rotate(0) translate(4 218.041)">
<title>G</title>
<!-- 0 -->
<g id="node1" class="node"><title>0</title>
<ellipse fill="cadetblue" stroke="black" cx="125.917" cy="-157.448" rx="21.4286" ry="21.4286"/>
<text text-anchor="middle" x="125.917" y="-152.448" font-family="Times New Roman,serif" font-size="20.00">2</text>
</g>
<!-- 5 -->
<g id="node6" class="node"><title>5</title>
<ellipse fill="cadetblue" stroke="black" cx="21.2132" cy="-110.158" rx="21.4286" ry="21.4286"/>
<text text-anchor="middle" x="21.2132" y="-105.158" font-family="Times New Roman,serif" font-size="20.00">2</text>
</g>
<!-- 0&#45;&gt;5 -->
<g id="edge3" class="edge"><title>0&#45;&gt;5</title>
<path fill="none" stroke="black" stroke-width="2" d="M106.223,-148.553C90.4286,-141.419 68.0309,-131.303 50.1905,-123.245"/>
<polygon fill="black" stroke="black" stroke-width="2" points="51.3731,-119.939 40.8189,-119.013 48.4918,-126.319 51.3731,-119.939"/>
</g>
<!-- 6 -->
<g id="node7" class="node"><title>6</title>
<ellipse fill="cadetblue" stroke="black" cx="171.881" cy="-107.016" rx="21.4286" ry="21.4286"/>
<text text-anchor="middle" x="171.881" y="-102.016" font-family="Times New Roman,serif" font-size="20.00">2</text>
</g>
<!-- 0&#45;&gt;6 -->
<g id="edge4" class="edge"><title>0&#45;&gt;6</title>
<path fill="none" stroke="black" stroke-width="2" d="M140.209,-141.767C143.463,-138.196 146.991,-134.326 150.47,-130.509"/>
<polygon fill="black" stroke="black" stroke-width="2" points="153.291,-132.609 157.441,-122.86 148.118,-127.894 153.291,-132.609"/>
</g>
<!-- 7 -->
<g id="node8" class="node"><title>7</title>
<ellipse fill="brown" stroke="black" cx="96.9819" cy="-88.5096" rx="21.4286" ry="21.4286"/>
<text text-anchor="middle" x="96.9819" y="-83.5096" font-family="Times New Roman,serif" font-size="20.00">3</text>
</g>
<!-- 0&#45;&gt;7 -->
<g id="edge5" class="edge"><title>0&#45;&gt;7</title>
<path fill="none" stroke="black" stroke-width="2" d="M117.703,-137.877C115.098,-131.672 112.159,-124.67 109.331,-117.93"/>
<polygon fill="black" stroke="black" stroke-width="2" points="112.415,-116.235 105.317,-108.368 105.96,-118.944 112.415,-116.235"/>
</g>
<!-- 1 -->
<g id="node2" class="node"><title>1</title>
<ellipse fill="cadetblue" stroke="black" cx="40.3736" cy="-21.3694" rx="21.4286" ry="21.4286"/>
<text text-anchor="middle" x="40.3736" y="-16.3694" font-family="Times New Roman,serif" font-size="20.00">2</text>
</g>
<!-- 1&#45;&gt;6 -->
<g id="edge8" class="edge"><title>1&#45;&gt;6</title>
<path fill="none" stroke="black" stroke-width="2" d="M58.3362,-32.8943C73.5927,-42.6993 96.0579,-57.1758 115.583,-69.9105 125.391,-76.3075 136.13,-83.3707 145.575,-89.6027"/>
<polygon fill="black" stroke="black" stroke-width="2" points="143.888,-92.6831 154.161,-95.2742 147.746,-86.8422 143.888,-92.6831"/>
</g>
<!-- 1&#45;&gt;7 -->
<g id="edge9" class="edge"><title>1&#45;&gt;7</title>
<path fill="none" stroke="black" stroke-width="2" d="M54.0769,-37.6222C60.7909,-45.5854 69.0144,-55.3388 76.4591,-64.1686"/>
<polygon fill="black" stroke="black" stroke-width="2" points="73.8897,-66.5509 83.0115,-71.9401 79.2414,-62.0387 73.8897,-66.5509"/>
</g>
<!-- 2 -->
<g id="node3" class="node"><title>2</title>
<ellipse fill="cadetblue" stroke="black" cx="201.87" cy="-21.2132" rx="21.4286" ry="21.4286"/>
<text text-anchor="middle" x="201.87" y="-16.2132" font-family="Times New Roman,serif" font-size="20.00">2</text>
</g>
<!-- 4 -->
<g id="node5" class="node"><title>4</title>
<ellipse fill="cadetblue" stroke="black" cx="110.971" cy="-22.5025" rx="21.4286" ry="21.4286"/>
<text text-anchor="middle" x="110.971" y="-17.5025" font-family="Times New Roman,serif" font-size="20.00">2</text>
</g>
<!-- 2&#45;&gt;4 -->
<g id="edge10" class="edge"><title>2&#45;&gt;4</title>
<path fill="none" stroke="black" stroke-width="2" d="M180.328,-21.5188C169.008,-21.6793 154.921,-21.8791 142.406,-22.0567"/>
<polygon fill="black" stroke="black" stroke-width="2" points="142.308,-18.5576 132.358,-22.1992 142.407,-25.5569 142.308,-18.5576"/>
</g>
<!-- 3 -->
<g id="node4" class="node"><title>3</title>
<ellipse fill="cadetblue" stroke="black" cx="72.7305" cy="-192.827" rx="21.4286" ry="21.4286"/>
<text text-anchor="middle" x="72.7305" y="-187.827" font-family="Times New Roman,serif" font-size="20.00">2</text>
</g>
<!-- 3&#45;&gt;0 -->
<g id="edge1" class="edge"><title>3&#45;&gt;0</title>
<path fill="none" stroke="black" stroke-width="2" d="M90.4408,-181.046C93.3702,-179.098 96.462,-177.041 99.5497,-174.987"/>
<polygon fill="black" stroke="black" stroke-width="2" points="101.715,-177.75 108.103,-169.298 97.838,-171.922 101.715,-177.75"/>
</g>
<!-- 3&#45;&gt;7 -->
<g id="edge15" class="edge"><title>3&#45;&gt;7</title>
<path fill="none" stroke="black" stroke-width="2" d="M77.5798,-171.968C81.0826,-156.901 85.8708,-136.304 89.814,-119.342"/>
<polygon fill="black" stroke="black" stroke-width="2" points="93.2856,-119.866 92.141,-109.333 86.4674,-118.281 93.2856,-119.866"/>
</g>
<!-- 4&#45;&gt;0 -->
<g id="edge2" class="edge"><title>4&#45;&gt;0</title>
<path fill="none" stroke="black" stroke-width="2" d="M115.637,-43.1962C118.356,-56.1465 121.577,-73.2181 123.286,-88.5108 124.641,-100.631 125.334,-114.016 125.678,-125.743"/>
<polygon fill="black" stroke="black" stroke-width="2" points="122.183,-126.041 125.904,-135.961 129.182,-125.886 122.183,-126.041"/>
</g>
<!-- 4&#45;&gt;1 -->
<g id="edge6" class="edge"><title>4&#45;&gt;1</title>
<path fill="none" stroke="black" stroke-width="2" d="M89.406,-22.1564C83.9318,-22.0685 77.9355,-21.9723 72.073,-21.8782"/>
<polygon fill="black" stroke="black" stroke-width="2" points="71.8617,-18.3745 61.8068,-21.7134 71.7493,-25.3736 71.8617,-18.3745"/>
</g>
<!-- 5&#45;&gt;1 -->
<g id="edge7" class="edge"><title>5&#45;&gt;1</title>
<path fill="none" stroke="black" stroke-width="2" d="M25.754,-89.1162C28.1401,-78.0587 31.1094,-64.2992 33.7475,-52.0746"/>
<polygon fill="black" stroke="black" stroke-width="2" points="37.1772,-52.7733 35.8655,-42.26 30.3347,-51.2967 37.1772,-52.7733"/>
</g>
<!-- 5&#45;&gt;3 -->
<g id="edge13" class="edge"><title>5&#45;&gt;3</title>
<path fill="none" stroke="black" stroke-width="2" d="M32.6466,-128.505C39.5641,-139.605 48.5028,-153.949 56.1831,-166.274"/>
<polygon fill="black" stroke="black" stroke-width="2" points="53.247,-168.18 61.5063,-174.816 59.1879,-164.478 53.247,-168.18"/>
</g>
<!-- 5&#45;&gt;4 -->
<g id="edge16" class="edge"><title>5&#45;&gt;4</title>
<path fill="none" stroke="black" stroke-width="2" d="M36.4394,-95.2883C50.6237,-81.4363 71.9611,-60.5988 88.1757,-44.764"/>
<polygon fill="black" stroke="black" stroke-width="2" points="90.9613,-46.9358 95.6703,-37.445 86.0705,-41.9278 90.9613,-46.9358"/>
</g>
<!-- 6&#45;&gt;2 -->
<g id="edge11" class="edge"><title>6&#45;&gt;2</title>
<path fill="none" stroke="black" stroke-width="2" d="M178.988,-86.682C182.723,-75.9963 187.37,-62.6994 191.499,-50.8859"/>
<polygon fill="black" stroke="black" stroke-width="2" points="194.819,-51.9962 194.814,-41.4013 188.211,-49.6866 194.819,-51.9962"/>
</g>
<!-- 6&#45;&gt;3 -->
<g id="edge14" class="edge"><title>6&#45;&gt;3</title>
<path fill="none" stroke="black" stroke-width="2" d="M151.575,-113.739C137.941,-118.993 120.188,-127.341 107.334,-138.831 99.2403,-146.065 92.2923,-155.622 86.7914,-164.682"/>
<polygon fill="black" stroke="black" stroke-width="2" points="83.6926,-163.051 81.784,-173.472 89.7749,-166.515 83.6926,-163.051"/>
</g>
<!-- 7&#45;&gt;2 -->
<g id="edge12" class="edge"><title>7&#45;&gt;2</title>
<path fill="none" stroke="black" stroke-width="2" d="M115.252,-76.7875C131.871,-66.1244 156.601,-50.258 175.387,-38.2049"/>
<polygon fill="black" stroke="black" stroke-width="2" points="177.283,-41.147 183.809,-32.801 173.503,-35.2554 177.283,-41.147"/>
</g>
<!-- 7&#45;&gt;5 -->
<g id="edge17" class="edge"><title>7&#45;&gt;5</title>
<path fill="none" stroke="black" stroke-width="2" d="M76.2778,-94.4251C68.6148,-96.6145 59.762,-99.1439 51.4264,-101.525"/>
<polygon fill="black" stroke="black" stroke-width="2" points="50.2837,-98.2118 41.63,-104.324 52.2068,-104.943 50.2837,-98.2118"/>
</g>
</g>
</svg>

