<?xml version="1.0" encoding="UTF-8" standalone="no"?>
<!DOCTYPE svg PUBLIC "-//W3C//DTD SVG 1.1//EN"
 "http://www.w3.org/Graphics/SVG/1.1/DTD/svg11.dtd">
<!-- Generated by graphviz version 2.36.0 (20140111.2315)
 -->
<!-- Title: G Pages: 1 -->
<svg width="100%" height="100%"
 viewBox="0.00 0.00 157.55 240.14" xmlns="http://www.w3.org/2000/svg" xmlns:xlink="http://www.w3.org/1999/xlink">
<g id="graph0" class="graph" transform="scale(1 1) rotate(0) translate(4 236.14)">
<title>G</title>
<!-- 0 -->
<g id="node1" class="node"><title>0</title>
<ellipse fill="cadetblue" stroke="black" cx="24.9917" cy="-153.362" rx="21.4286" ry="21.4286"/>
<text text-anchor="middle" x="24.9917" y="-148.362" font-family="Times New Roman,serif" font-size="20.00">2</text>
</g>
<!-- 5 -->
<g id="node6" class="node"><title>5</title>
<ellipse fill="cadetblue" stroke="black" cx="21.2132" cy="-81.5244" rx="21.4286" ry="21.4286"/>
<text text-anchor="middle" x="21.2132" y="-76.5244" font-family="Times New Roman,serif" font-size="20.00">2</text>
</g>
<!-- 0&#45;&gt;5 -->
<g id="edge3" class="edge"><title>0&#45;&gt;5</title>
<path fill="none" stroke="black" stroke-width="2" d="M23.858,-131.808C23.5517,-125.984 23.2135,-119.556 22.8844,-113.298"/>
<polygon fill="black" stroke="black" stroke-width="2" points="26.3666,-112.865 22.3461,-103.063 19.3762,-113.233 26.3666,-112.865"/>
</g>
<!-- 6 -->
<g id="node7" class="node"><title>6</title>
<ellipse fill="cadetblue" stroke="black" cx="75.4231" cy="-114.677" rx="21.4286" ry="21.4286"/>
<text text-anchor="middle" x="75.4231" y="-109.677" font-family="Times New Roman,serif" font-size="20.00">2</text>
</g>
<!-- 0&#45;&gt;6 -->
<g id="edge4" class="edge"><title>0&#45;&gt;6</title>
<path fill="none" stroke="black" stroke-width="2" d="M42.0655,-140.265C44.6944,-138.248 47.4556,-136.13 50.2167,-134.012"/>
<polygon fill="black" stroke="black" stroke-width="2" points="52.5627,-136.624 58.3669,-127.76 48.3022,-131.07 52.5627,-136.624"/>
</g>
<!-- 1 -->
<g id="node2" class="node"><title>1</title>
<ellipse fill="cadetblue" stroke="black" cx="127.544" cy="-151.117" rx="21.4286" ry="21.4286"/>
<text text-anchor="middle" x="127.544" y="-146.117" font-family="Times New Roman,serif" font-size="20.00">2</text>
</g>
<!-- 3 -->
<g id="node4" class="node"><title>3</title>
<ellipse fill="cadetblue" stroke="black" cx="77.6004" cy="-210.927" rx="21.4286" ry="21.4286"/>
<text text-anchor="middle" x="77.6004" y="-205.927" font-family="Times New Roman,serif" font-size="20.00">2</text>
</g>
<!-- 1&#45;&gt;3 -->
<g id="edge5" class="edge"><title>1&#45;&gt;3</title>
<path fill="none" stroke="black" stroke-width="2" d="M113.897,-167.46C108.942,-173.394 103.232,-180.232 97.8297,-186.701"/>
<polygon fill="black" stroke="black" stroke-width="2" points="94.9542,-184.684 91.2312,-194.603 100.327,-189.171 94.9542,-184.684"/>
</g>
<!-- 1&#45;&gt;6 -->
<g id="edge8" class="edge"><title>1&#45;&gt;6</title>
<path fill="none" stroke="black" stroke-width="2" d="M109.898,-138.78C107.181,-136.88 104.328,-134.885 101.474,-132.89"/>
<polygon fill="black" stroke="black" stroke-width="2" points="103.252,-129.862 93.0507,-127.001 99.2408,-135.599 103.252,-129.862"/>
</g>
<!-- 2 -->
<g id="node3" class="node"><title>2</title>
<ellipse fill="cadetblue" stroke="black" cx="73.6411" cy="-21.2132" rx="21.4286" ry="21.4286"/>
<text text-anchor="middle" x="73.6411" y="-16.2132" font-family="Times New Roman,serif" font-size="20.00">2</text>
</g>
<!-- 4 -->
<g id="node5" class="node"><title>4</title>
<ellipse fill="cadetblue" stroke="black" cx="128.336" cy="-79.398" rx="21.4286" ry="21.4286"/>
<text text-anchor="middle" x="128.336" y="-74.398" font-family="Times New Roman,serif" font-size="20.00">2</text>
</g>
<!-- 2&#45;&gt;4 -->
<g id="edge9" class="edge"><title>2&#45;&gt;4</title>
<path fill="none" stroke="black" stroke-width="2" d="M88.2983,-36.8057C93.9387,-42.8059 100.504,-49.7907 106.668,-56.3472"/>
<polygon fill="black" stroke="black" stroke-width="2" points="104.239,-58.8735 113.638,-63.7625 109.339,-54.079 104.239,-58.8735"/>
</g>
<!-- 3&#45;&gt;0 -->
<g id="edge1" class="edge"><title>3&#45;&gt;0</title>
<path fill="none" stroke="black" stroke-width="2" d="M63.2249,-195.197C58.0055,-189.486 51.9911,-182.905 46.3005,-176.678"/>
<polygon fill="black" stroke="black" stroke-width="2" points="48.6797,-174.094 39.3499,-169.073 43.5125,-178.816 48.6797,-174.094"/>
</g>
<!-- 4&#45;&gt;0 -->
<g id="edge2" class="edge"><title>4&#45;&gt;0</title>
<path fill="none" stroke="black" stroke-width="2" d="M119.72,-98.8156C113.831,-110.206 105.061,-124.144 93.8384,-133.46 83.2627,-142.238 68.9944,-147.147 56.1896,-149.89"/>
<polygon fill="black" stroke="black" stroke-width="2" points="55.5573,-146.448 46.3327,-151.659 56.7937,-153.338 55.5573,-146.448"/>
</g>
<!-- 4&#45;&gt;1 -->
<g id="edge6" class="edge"><title>4&#45;&gt;1</title>
<path fill="none" stroke="black" stroke-width="2" d="M128.098,-100.916C128.034,-106.731 127.963,-113.149 127.894,-119.396"/>
<polygon fill="black" stroke="black" stroke-width="2" points="124.392,-119.576 127.781,-129.614 131.392,-119.653 124.392,-119.576"/>
</g>
<!-- 5&#45;&gt;1 -->
<g id="edge7" class="edge"><title>5&#45;&gt;1</title>
<path fill="none" stroke="black" stroke-width="2" d="M30.8563,-100.705C37.0229,-111.396 45.8796,-124.288 56.6402,-133.092 67.6547,-142.104 82.6103,-146.68 95.947,-148.977"/>
<polygon fill="black" stroke="black" stroke-width="2" points="95.8087,-152.49 106.19,-150.371 96.7532,-145.554 95.8087,-152.49"/>
</g>
<!-- 5&#45;&gt;2 -->
<g id="edge10" class="edge"><title>5&#45;&gt;2</title>
<path fill="none" stroke="black" stroke-width="2" d="M35.2629,-65.3621C40.6695,-59.1426 46.9632,-51.9026 52.871,-45.1065"/>
<polygon fill="black" stroke="black" stroke-width="2" points="55.6335,-47.2635 59.5526,-37.4201 50.3505,-42.671 55.6335,-47.2635"/>
</g>
<!-- 6&#45;&gt;2 -->
<g id="edge11" class="edge"><title>6&#45;&gt;2</title>
<path fill="none" stroke="black" stroke-width="2" d="M75.0098,-92.9994C74.7811,-81 74.4926,-65.8717 74.2396,-52.6006"/>
<polygon fill="black" stroke="black" stroke-width="2" points="77.7362,-52.3822 74.0461,-42.4507 70.7374,-52.5157 77.7362,-52.3822"/>
</g>
<!-- 6&#45;&gt;3 -->
<g id="edge12" class="edge"><title>6&#45;&gt;3</title>
<path fill="none" stroke="black" stroke-width="2" d="M75.9064,-136.038C76.1939,-148.748 76.564,-165.111 76.8849,-179.298"/>
<polygon fill="black" stroke="black" stroke-width="2" points="73.3932,-179.708 77.1186,-189.626 80.3914,-179.549 73.3932,-179.708"/>
</g>
<!-- 6&#45;&gt;4 -->
<g id="edge13" class="edge"><title>6&#45;&gt;4</title>
<path fill="none" stroke="black" stroke-width="2" d="M93.337,-102.733C96.0953,-100.894 98.9923,-98.9624 101.889,-97.0309"/>
<polygon fill="black" stroke="black" stroke-width="2" points="104.062,-99.789 110.441,-91.3295 100.179,-93.9648 104.062,-99.789"/>
</g>
<!-- 6&#45;&gt;5 -->
<g id="edge14" class="edge"><title>6&#45;&gt;5</title>
<path fill="none" stroke="black" stroke-width="2" d="M57.0701,-103.453C54.2442,-101.725 51.2762,-99.9096 48.3082,-98.0945"/>
<polygon fill="black" stroke="black" stroke-width="2" points="49.9045,-94.9681 39.5473,-92.7367 46.2524,-100.94 49.9045,-94.9681"/>
</g>
</g>
</svg>

