<?xml version="1.0" encoding="UTF-8" standalone="no"?>
<!DOCTYPE svg PUBLIC "-//W3C//DTD SVG 1.1//EN"
 "http://www.w3.org/Graphics/SVG/1.1/DTD/svg11.dtd">
<!-- Generated by graphviz version 2.36.0 (20140111.2315)
 -->
<!-- Title: G Pages: 1 -->
<svg width="100%" height="100%"
 viewBox="0.00 0.00 236.94 290.20" xmlns="http://www.w3.org/2000/svg" xmlns:xlink="http://www.w3.org/1999/xlink">
<g id="graph0" class="graph" transform="scale(1 1) rotate(0) translate(4 286.196)">
<title>G</title>
<!-- 0 -->
<g id="node1" class="node"><title>0</title>
<ellipse fill="cadetblue" stroke="black" cx="26.6993" cy="-123.939" rx="21.4286" ry="21.4286"/>
<text text-anchor="middle" x="26.6993" y="-118.939" font-family="Times New Roman,serif" font-size="20.00">2</text>
</g>
<!-- 5 -->
<g id="node6" class="node"><title>5</title>
<ellipse fill="brown" stroke="black" cx="21.2132" cy="-217.878" rx="21.4286" ry="21.4286"/>
<text text-anchor="middle" x="21.2132" y="-212.878" font-family="Times New Roman,serif" font-size="20.00">3</text>
</g>
<!-- 0&#45;&gt;5 -->
<g id="edge3" class="edge"><title>0&#45;&gt;5</title>
<path fill="none" stroke="black" stroke-width="2" d="M25.4544,-145.256C24.746,-157.386 23.8452,-172.81 23.0562,-186.321"/>
<polygon fill="black" stroke="black" stroke-width="2" points="19.5422,-186.459 22.4532,-196.646 26.5303,-186.867 19.5422,-186.459"/>
</g>
<!-- 6 -->
<g id="node7" class="node"><title>6</title>
<ellipse fill="dodgerblue" stroke="black" cx="132.759" cy="-169.184" rx="21.4286" ry="21.4286"/>
<text text-anchor="middle" x="132.759" y="-164.184" font-family="Times New Roman,serif" font-size="20.00">4</text>
</g>
<!-- 0&#45;&gt;6 -->
<g id="edge4" class="edge"><title>0&#45;&gt;6</title>
<path fill="none" stroke="black" stroke-width="2" d="M46.6482,-132.45C62.6472,-139.275 85.3348,-148.953 103.406,-156.663"/>
<polygon fill="black" stroke="black" stroke-width="2" points="102.328,-160.008 112.899,-160.712 105.075,-153.569 102.328,-160.008"/>
</g>
<!-- 7 -->
<g id="node8" class="node"><title>7</title>
<ellipse fill="cadetblue" stroke="black" cx="101.938" cy="-118.753" rx="21.4286" ry="21.4286"/>
<text text-anchor="middle" x="101.938" y="-113.753" font-family="Times New Roman,serif" font-size="20.00">2</text>
</g>
<!-- 0&#45;&gt;7 -->
<g id="edge5" class="edge"><title>0&#45;&gt;7</title>
<path fill="none" stroke="black" stroke-width="2" d="M48.0584,-122.467C55.0476,-121.985 62.964,-121.44 70.5349,-120.918"/>
<polygon fill="black" stroke="black" stroke-width="2" points="70.7897,-124.408 80.5253,-120.229 70.3082,-117.425 70.7897,-124.408"/>
</g>
<!-- 1 -->
<g id="node2" class="node"><title>1</title>
<ellipse fill="cadetblue" stroke="black" cx="178.103" cy="-243.186" rx="21.4286" ry="21.4286"/>
<text text-anchor="middle" x="178.103" y="-238.186" font-family="Times New Roman,serif" font-size="20.00">2</text>
</g>
<!-- 1&#45;&gt;5 -->
<g id="edge8" class="edge"><title>1&#45;&gt;5</title>
<path fill="none" stroke="black" stroke-width="2" d="M156.944,-239.773C130.084,-235.44 83.5209,-227.929 52.5382,-222.931"/>
<polygon fill="black" stroke="black" stroke-width="2" points="52.7166,-219.415 42.2868,-221.277 51.6017,-226.325 52.7166,-219.415"/>
</g>
<!-- 1&#45;&gt;7 -->
<g id="edge9" class="edge"><title>1&#45;&gt;7</title>
<path fill="none" stroke="black" stroke-width="2" d="M176.794,-221.797C174.519,-201.415 168.307,-170.908 151.381,-150.607 145.553,-143.617 137.79,-137.633 130.146,-132.802"/>
<polygon fill="black" stroke="black" stroke-width="2" points="131.752,-129.687 121.351,-127.669 128.223,-135.732 131.752,-129.687"/>
</g>
<!-- 2 -->
<g id="node3" class="node"><title>2</title>
<ellipse fill="cadetblue" stroke="black" cx="165.167" cy="-21.2132" rx="21.4286" ry="21.4286"/>
<text text-anchor="middle" x="165.167" y="-16.2132" font-family="Times New Roman,serif" font-size="20.00">2</text>
</g>
<!-- 4 -->
<g id="node5" class="node"><title>4</title>
<ellipse fill="cadetblue" stroke="black" cx="207.725" cy="-113.03" rx="21.4286" ry="21.4286"/>
<text text-anchor="middle" x="207.725" y="-108.03" font-family="Times New Roman,serif" font-size="20.00">2</text>
</g>
<!-- 2&#45;&gt;4 -->
<g id="edge10" class="edge"><title>2&#45;&gt;4</title>
<path fill="none" stroke="black" stroke-width="2" d="M174.193,-40.6852C180.061,-53.3453 187.815,-70.0742 194.388,-84.2562"/>
<polygon fill="black" stroke="black" stroke-width="2" points="191.332,-85.9853 198.712,-93.5862 197.683,-83.0415 191.332,-85.9853"/>
</g>
<!-- 3 -->
<g id="node4" class="node"><title>3</title>
<ellipse fill="cadetblue" stroke="black" cx="79.4736" cy="-260.983" rx="21.4286" ry="21.4286"/>
<text text-anchor="middle" x="79.4736" y="-255.983" font-family="Times New Roman,serif" font-size="20.00">2</text>
</g>
<!-- 3&#45;&gt;0 -->
<g id="edge1" class="edge"><title>3&#45;&gt;0</title>
<path fill="none" stroke="black" stroke-width="2" d="M71.7997,-241.055C62.9276,-218.016 48.2402,-179.876 38.0473,-153.408"/>
<polygon fill="black" stroke="black" stroke-width="2" points="41.2423,-151.965 34.3824,-143.891 34.7099,-154.481 41.2423,-151.965"/>
</g>
<!-- 3&#45;&gt;1 -->
<g id="edge6" class="edge"><title>3&#45;&gt;1</title>
<path fill="none" stroke="black" stroke-width="2" d="M100.39,-257.208C113.99,-254.755 131.96,-251.512 147.194,-248.763"/>
<polygon fill="black" stroke="black" stroke-width="2" points="147.997,-252.175 157.216,-246.955 146.754,-245.286 147.997,-252.175"/>
</g>
<!-- 3&#45;&gt;6 -->
<g id="edge14" class="edge"><title>3&#45;&gt;6</title>
<path fill="none" stroke="black" stroke-width="2" d="M90.2566,-242.406C97.9124,-229.217 108.315,-211.295 116.913,-196.484"/>
<polygon fill="black" stroke="black" stroke-width="2" points="119.998,-198.139 121.992,-187.734 113.944,-194.625 119.998,-198.139"/>
</g>
<!-- 4&#45;&gt;0 -->
<g id="edge2" class="edge"><title>4&#45;&gt;0</title>
<path fill="none" stroke="black" stroke-width="2" d="M188.368,-122.513C167.549,-131.842 133.213,-144.739 101.937,-145.057 86.2168,-145.217 69.3131,-140.906 55.518,-136.138"/>
<polygon fill="black" stroke="black" stroke-width="2" points="56.6768,-132.835 46.0837,-132.643 54.2451,-139.399 56.6768,-132.835"/>
</g>
<!-- 4&#45;&gt;1 -->
<g id="edge7" class="edge"><title>4&#45;&gt;1</title>
<path fill="none" stroke="black" stroke-width="2" d="M202.966,-133.942C198.129,-155.194 190.584,-188.345 185.074,-212.557"/>
<polygon fill="black" stroke="black" stroke-width="2" points="181.657,-211.798 182.85,-222.326 188.482,-213.352 181.657,-211.798"/>
</g>
<!-- 5&#45;&gt;3 -->
<g id="edge13" class="edge"><title>5&#45;&gt;3</title>
<path fill="none" stroke="black" stroke-width="2" d="M38.3781,-230.578C43.3122,-234.228 48.8006,-238.289 54.1183,-242.223"/>
<polygon fill="black" stroke="black" stroke-width="2" points="52.1093,-245.091 62.23,-248.225 56.2728,-239.463 52.1093,-245.091"/>
</g>
<!-- 5&#45;&gt;6 -->
<g id="edge17" class="edge"><title>5&#45;&gt;6</title>
<path fill="none" stroke="black" stroke-width="2" d="M40.8985,-209.285C58.4206,-201.636 84.2707,-190.351 104.089,-181.7"/>
<polygon fill="black" stroke="black" stroke-width="2" points="105.506,-184.9 113.27,-177.692 102.705,-178.485 105.506,-184.9"/>
</g>
<!-- 6&#45;&gt;2 -->
<g id="edge11" class="edge"><title>6&#45;&gt;2</title>
<path fill="none" stroke="black" stroke-width="2" d="M137.333,-148.298C142.834,-123.181 152.115,-80.8079 158.434,-51.9551"/>
<polygon fill="black" stroke="black" stroke-width="2" points="161.895,-52.5111 160.616,-41.9938 155.057,-51.0134 161.895,-52.5111"/>
</g>
<!-- 7&#45;&gt;2 -->
<g id="edge12" class="edge"><title>7&#45;&gt;2</title>
<path fill="none" stroke="black" stroke-width="2" d="M113.535,-100.863C123.101,-86.106 136.82,-64.9419 147.713,-48.1386"/>
<polygon fill="black" stroke="black" stroke-width="2" points="150.927,-49.6154 153.429,-39.3204 145.053,-45.8077 150.927,-49.6154"/>
</g>
<!-- 7&#45;&gt;3 -->
<g id="edge15" class="edge"><title>7&#45;&gt;3</title>
<path fill="none" stroke="black" stroke-width="2" d="M98.6231,-139.739C94.8736,-163.479 88.7291,-202.382 84.4138,-229.704"/>
<polygon fill="black" stroke="black" stroke-width="2" points="80.9049,-229.487 82.8019,-239.91 87.8192,-230.579 80.9049,-229.487"/>
</g>
<!-- 7&#45;&gt;4 -->
<g id="edge16" class="edge"><title>7&#45;&gt;4</title>
<path fill="none" stroke="black" stroke-width="2" d="M123.345,-117.595C138.544,-116.773 159.197,-115.655 176.265,-114.732"/>
<polygon fill="black" stroke="black" stroke-width="2" points="176.553,-118.222 186.349,-114.187 176.175,-111.232 176.553,-118.222"/>
</g>
<!-- 7&#45;&gt;5 -->
<g id="edge18" class="edge"><title>7&#45;&gt;5</title>
<path fill="none" stroke="black" stroke-width="2" d="M88.244,-135.568C75.2932,-151.471 55.7122,-175.515 41.0525,-193.517"/>
<polygon fill="black" stroke="black" stroke-width="2" points="38.3056,-191.347 34.7048,-201.311 43.7334,-195.767 38.3056,-191.347"/>
</g>
<!-- 7&#45;&gt;6 -->
<g id="edge19" class="edge"><title>7&#45;&gt;6</title>
<path fill="none" stroke="black" stroke-width="2" d="M113.065,-136.96C114.099,-138.653 115.162,-140.391 116.232,-142.142"/>
<polygon fill="black" stroke="black" stroke-width="2" points="113.343,-144.127 121.544,-150.835 119.316,-140.477 113.343,-144.127"/>
</g>
</g>
</svg>

