<?xml version="1.0" encoding="UTF-8" standalone="no"?>
<!DOCTYPE svg PUBLIC "-//W3C//DTD SVG 1.1//EN"
 "http://www.w3.org/Graphics/SVG/1.1/DTD/svg11.dtd">
<!-- Generated by graphviz version 2.36.0 (20140111.2315)
 -->
<!-- Title: G Pages: 1 -->
<svg width="100%" height="100%"
 viewBox="0.00 0.00 222.61 279.70" xmlns="http://www.w3.org/2000/svg" xmlns:xlink="http://www.w3.org/1999/xlink">
<g id="graph0" class="graph" transform="scale(1 1) rotate(0) translate(4 275.703)">
<title>G</title>
<!-- 0 -->
<g id="node1" class="node"><title>0</title>
<ellipse fill="cadetblue" stroke="black" cx="111.465" cy="-164.65" rx="21.4286" ry="21.4286"/>
<text text-anchor="middle" x="111.465" y="-159.65" font-family="Times New Roman,serif" font-size="20.00">2</text>
</g>
<!-- 5 -->
<g id="node6" class="node"><title>5</title>
<ellipse fill="cadetblue" stroke="black" cx="31.7096" cy="-170.753" rx="21.4286" ry="21.4286"/>
<text text-anchor="middle" x="31.7096" y="-165.753" font-family="Times New Roman,serif" font-size="20.00">2</text>
</g>
<!-- 0&#45;&gt;5 -->
<g id="edge3" class="edge"><title>0&#45;&gt;5</title>
<path fill="none" stroke="black" stroke-width="2" d="M90.092,-166.286C81.8009,-166.92 72.1386,-167.659 63.0886,-168.352"/>
<polygon fill="black" stroke="black" stroke-width="2" points="62.5688,-164.881 52.865,-169.134 63.1029,-171.861 62.5688,-164.881"/>
</g>
<!-- 6 -->
<g id="node7" class="node"><title>6</title>
<ellipse fill="cadetblue" stroke="black" cx="189.17" cy="-142.095" rx="21.4286" ry="21.4286"/>
<text text-anchor="middle" x="189.17" y="-137.095" font-family="Times New Roman,serif" font-size="20.00">2</text>
</g>
<!-- 0&#45;&gt;6 -->
<g id="edge4" class="edge"><title>0&#45;&gt;6</title>
<path fill="none" stroke="black" stroke-width="2" d="M131.881,-158.724C140.114,-156.334 149.785,-153.527 158.813,-150.907"/>
<polygon fill="black" stroke="black" stroke-width="2" points="159.993,-154.209 168.621,-148.06 158.042,-147.486 159.993,-154.209"/>
</g>
<!-- 7 -->
<g id="node8" class="node"><title>7</title>
<ellipse fill="brown" stroke="black" cx="64.6862" cy="-33.6638" rx="21.4286" ry="21.4286"/>
<text text-anchor="middle" x="64.6862" y="-28.6638" font-family="Times New Roman,serif" font-size="20.00">3</text>
</g>
<!-- 0&#45;&gt;7 -->
<g id="edge5" class="edge"><title>0&#45;&gt;7</title>
<path fill="none" stroke="black" stroke-width="2" d="M104.258,-144.471C96.5097,-122.774 84.1133,-88.0621 75.2603,-63.2727"/>
<polygon fill="black" stroke="black" stroke-width="2" points="78.4837,-61.8917 71.8243,-53.6514 71.8915,-64.246 78.4837,-61.8917"/>
</g>
<!-- 1 -->
<g id="node2" class="node"><title>1</title>
<ellipse fill="cadetblue" stroke="black" cx="21.2132" cy="-94.4751" rx="21.4286" ry="21.4286"/>
<text text-anchor="middle" x="21.2132" y="-89.4751" font-family="Times New Roman,serif" font-size="20.00">2</text>
</g>
<!-- 1&#45;&gt;6 -->
<g id="edge8" class="edge"><title>1&#45;&gt;6</title>
<path fill="none" stroke="black" stroke-width="2" d="M41.8081,-100.314C71.1009,-108.619 124.992,-123.899 158.854,-133.5"/>
<polygon fill="black" stroke="black" stroke-width="2" points="158.095,-136.922 168.67,-136.283 160.004,-130.188 158.095,-136.922"/>
</g>
<!-- 1&#45;&gt;7 -->
<g id="edge9" class="edge"><title>1&#45;&gt;7</title>
<path fill="none" stroke="black" stroke-width="2" d="M33.5545,-77.2117C37.4674,-71.7383 41.8833,-65.5613 46.1331,-59.6164"/>
<polygon fill="black" stroke="black" stroke-width="2" points="49.1947,-61.3521 52.1631,-51.1816 43.5002,-57.2811 49.1947,-61.3521"/>
</g>
<!-- 2 -->
<g id="node3" class="node"><title>2</title>
<ellipse fill="cadetblue" stroke="black" cx="193.399" cy="-21.2132" rx="21.4286" ry="21.4286"/>
<text text-anchor="middle" x="193.399" y="-16.2132" font-family="Times New Roman,serif" font-size="20.00">2</text>
</g>
<!-- 2&#45;&gt;7 -->
<g id="edge12" class="edge"><title>2&#45;&gt;7</title>
<path fill="none" stroke="black" stroke-width="2" d="M172.145,-23.2692C151.464,-25.2697 119.792,-28.3333 96.1836,-30.617"/>
<polygon fill="black" stroke="black" stroke-width="2" points="95.5886,-27.1582 85.9721,-31.6048 96.2627,-34.1256 95.5886,-27.1582"/>
</g>
<!-- 3 -->
<g id="node4" class="node"><title>3</title>
<ellipse fill="cadetblue" stroke="black" cx="132.086" cy="-250.49" rx="21.4286" ry="21.4286"/>
<text text-anchor="middle" x="132.086" y="-245.49" font-family="Times New Roman,serif" font-size="20.00">2</text>
</g>
<!-- 3&#45;&gt;0 -->
<g id="edge1" class="edge"><title>3&#45;&gt;0</title>
<path fill="none" stroke="black" stroke-width="2" d="M127.095,-229.71C124.631,-219.453 121.608,-206.873 118.88,-195.518"/>
<polygon fill="black" stroke="black" stroke-width="2" points="122.221,-194.441 116.482,-185.536 115.415,-196.077 122.221,-194.441"/>
</g>
<!-- 4 -->
<g id="node5" class="node"><title>4</title>
<ellipse fill="cadetblue" stroke="black" cx="115.118" cy="-74.0347" rx="21.4286" ry="21.4286"/>
<text text-anchor="middle" x="115.118" y="-69.0347" font-family="Times New Roman,serif" font-size="20.00">2</text>
</g>
<!-- 4&#45;&gt;0 -->
<g id="edge2" class="edge"><title>4&#45;&gt;0</title>
<path fill="none" stroke="black" stroke-width="2" d="M114.252,-95.5093C113.797,-106.794 113.231,-120.837 112.728,-133.313"/>
<polygon fill="black" stroke="black" stroke-width="2" points="109.23,-133.197 112.324,-143.33 116.224,-133.479 109.23,-133.197"/>
</g>
<!-- 4&#45;&gt;1 -->
<g id="edge6" class="edge"><title>4&#45;&gt;1</title>
<path fill="none" stroke="black" stroke-width="2" d="M94.2772,-78.5711C81.8766,-81.2703 65.9128,-84.7452 52.0718,-87.758"/>
<polygon fill="black" stroke="black" stroke-width="2" points="51.0221,-84.4045 41.9954,-89.9514 52.511,-91.2443 51.0221,-84.4045"/>
</g>
<!-- 4&#45;&gt;2 -->
<g id="edge10" class="edge"><title>4&#45;&gt;2</title>
<path fill="none" stroke="black" stroke-width="2" d="M132.881,-62.0487C142.99,-55.2276 155.843,-46.5547 167.102,-38.9578"/>
<polygon fill="black" stroke="black" stroke-width="2" points="169.374,-41.6465 175.706,-33.1518 165.459,-35.8439 169.374,-41.6465"/>
</g>
<!-- 5&#45;&gt;1 -->
<g id="edge7" class="edge"><title>5&#45;&gt;1</title>
<path fill="none" stroke="black" stroke-width="2" d="M28.7857,-149.505C27.7735,-142.149 26.6166,-133.742 25.517,-125.751"/>
<polygon fill="black" stroke="black" stroke-width="2" points="28.952,-125.038 24.1213,-115.609 22.0173,-125.993 28.952,-125.038"/>
</g>
<!-- 5&#45;&gt;3 -->
<g id="edge13" class="edge"><title>5&#45;&gt;3</title>
<path fill="none" stroke="black" stroke-width="2" d="M48.7371,-184.279C64.8408,-197.071 89.1888,-216.413 107.417,-230.893"/>
<polygon fill="black" stroke="black" stroke-width="2" points="105.303,-233.684 115.31,-237.163 109.657,-228.203 105.303,-233.684"/>
</g>
<!-- 5&#45;&gt;4 -->
<g id="edge15" class="edge"><title>5&#45;&gt;4</title>
<path fill="none" stroke="black" stroke-width="2" d="M45.8586,-154.346C59.2399,-138.829 79.4719,-115.369 94.6189,-97.8046"/>
<polygon fill="black" stroke="black" stroke-width="2" points="97.2973,-100.058 101.178,-90.1993 91.9963,-95.4864 97.2973,-100.058"/>
</g>
<!-- 6&#45;&gt;2 -->
<g id="edge11" class="edge"><title>6&#45;&gt;2</title>
<path fill="none" stroke="black" stroke-width="2" d="M189.917,-120.762C190.574,-101.976 191.54,-74.3555 192.288,-52.9714"/>
<polygon fill="black" stroke="black" stroke-width="2" points="195.794,-52.8558 192.646,-42.7396 188.798,-52.6111 195.794,-52.8558"/>
</g>
<!-- 6&#45;&gt;3 -->
<g id="edge14" class="edge"><title>6&#45;&gt;3</title>
<path fill="none" stroke="black" stroke-width="2" d="M179.227,-160.976C170.278,-177.969 157.008,-203.167 146.826,-222.502"/>
<polygon fill="black" stroke="black" stroke-width="2" points="143.67,-220.983 142.107,-231.461 149.864,-224.244 143.67,-220.983"/>
</g>
<!-- 7&#45;&gt;4 -->
<g id="edge16" class="edge"><title>7&#45;&gt;4</title>
<path fill="none" stroke="black" stroke-width="2" d="M81.4792,-47.1067C84.3409,-49.3976 87.3662,-51.8194 90.3823,-54.2338"/>
<polygon fill="black" stroke="black" stroke-width="2" points="88.2321,-56.9958 98.2261,-60.5128 92.6066,-51.531 88.2321,-56.9958"/>
</g>
<!-- 7&#45;&gt;5 -->
<g id="edge17" class="edge"><title>7&#45;&gt;5</title>
<path fill="none" stroke="black" stroke-width="2" d="M59.6778,-54.4847C54.206,-77.2317 45.3857,-113.899 39.1141,-139.971"/>
<polygon fill="black" stroke="black" stroke-width="2" points="35.7011,-139.195 36.7651,-149.736 42.5069,-140.832 35.7011,-139.195"/>
</g>
</g>
</svg>

