<?xml version="1.0" encoding="UTF-8" standalone="no"?>
<!DOCTYPE svg PUBLIC "-//W3C//DTD SVG 1.1//EN"
 "http://www.w3.org/Graphics/SVG/1.1/DTD/svg11.dtd">
<!-- Generated by graphviz version 2.36.0 (20140111.2315)
 -->
<!-- Title: G Pages: 1 -->
<svg width="100%" height="100%"
 viewBox="0.00 0.00 266.69 266.35" xmlns="http://www.w3.org/2000/svg" xmlns:xlink="http://www.w3.org/1999/xlink">
<g id="graph0" class="graph" transform="scale(1 1) rotate(0) translate(4 262.346)">
<title>G</title>
<!-- 0 -->
<g id="node1" class="node"><title>0</title>
<ellipse fill="cadetblue" stroke="black" cx="237.478" cy="-181.771" rx="21.4286" ry="21.4286"/>
<text text-anchor="middle" x="237.478" y="-176.771" font-family="Times New Roman,serif" font-size="20.00">2</text>
</g>
<!-- 7 -->
<g id="node8" class="node"><title>7</title>
<ellipse fill="brown" stroke="black" cx="116.509" cy="-118.711" rx="21.4286" ry="21.4286"/>
<text text-anchor="middle" x="116.509" y="-113.711" font-family="Times New Roman,serif" font-size="20.00">3</text>
</g>
<!-- 0&#45;&gt;7 -->
<g id="edge3" class="edge"><title>0&#45;&gt;7</title>
<path fill="none" stroke="black" stroke-width="2" d="M215.913,-181.494C196.412,-180.2 167.846,-175.588 148.318,-160.521 142.787,-156.254 137.719,-150.797 133.331,-145.245"/>
<polygon fill="black" stroke="black" stroke-width="2" points="136.148,-143.168 127.414,-137.17 130.501,-147.305 136.148,-143.168"/>
</g>
<!-- 1 -->
<g id="node2" class="node"><title>1</title>
<ellipse fill="cadetblue" stroke="black" cx="44.4494" cy="-182.681" rx="21.4286" ry="21.4286"/>
<text text-anchor="middle" x="44.4494" y="-177.681" font-family="Times New Roman,serif" font-size="20.00">2</text>
</g>
<!-- 6 -->
<g id="node7" class="node"><title>6</title>
<ellipse fill="cadetblue" stroke="black" cx="166.94" cy="-141.943" rx="21.4286" ry="21.4286"/>
<text text-anchor="middle" x="166.94" y="-136.943" font-family="Times New Roman,serif" font-size="20.00">2</text>
</g>
<!-- 1&#45;&gt;6 -->
<g id="edge6" class="edge"><title>1&#45;&gt;6</title>
<path fill="none" stroke="black" stroke-width="2" d="M64.6763,-175.954C84.3576,-169.408 114.498,-159.384 136.966,-151.912"/>
<polygon fill="black" stroke="black" stroke-width="2" points="138.299,-155.157 146.683,-148.68 136.09,-148.515 138.299,-155.157"/>
</g>
<!-- 1&#45;&gt;7 -->
<g id="edge7" class="edge"><title>1&#45;&gt;7</title>
<path fill="none" stroke="black" stroke-width="2" d="M60.4417,-168.484C69.9576,-160.036 82.2078,-149.162 92.829,-139.733"/>
<polygon fill="black" stroke="black" stroke-width="2" points="95.4065,-142.125 100.561,-132.869 90.7593,-136.89 95.4065,-142.125"/>
</g>
<!-- 2 -->
<g id="node3" class="node"><title>2</title>
<ellipse fill="cadetblue" stroke="black" cx="128.114" cy="-21.2132" rx="21.4286" ry="21.4286"/>
<text text-anchor="middle" x="128.114" y="-16.2132" font-family="Times New Roman,serif" font-size="20.00">2</text>
</g>
<!-- 5 -->
<g id="node6" class="node"><title>5</title>
<ellipse fill="cadetblue" stroke="black" cx="21.2132" cy="-68.3684" rx="21.4286" ry="21.4286"/>
<text text-anchor="middle" x="21.2132" y="-63.3684" font-family="Times New Roman,serif" font-size="20.00">2</text>
</g>
<!-- 2&#45;&gt;5 -->
<g id="edge9" class="edge"><title>2&#45;&gt;5</title>
<path fill="none" stroke="black" stroke-width="2" d="M108.507,-29.8622C92.0814,-37.1076 68.4129,-47.5481 49.8639,-55.7303"/>
<polygon fill="black" stroke="black" stroke-width="2" points="48.4329,-52.536 40.6961,-59.7743 51.2581,-58.9406 48.4329,-52.536"/>
</g>
<!-- 2&#45;&gt;7 -->
<g id="edge11" class="edge"><title>2&#45;&gt;7</title>
<path fill="none" stroke="black" stroke-width="2" d="M125.596,-42.3688C124.029,-55.5285 121.987,-72.6881 120.235,-87.4048"/>
<polygon fill="black" stroke="black" stroke-width="2" points="116.729,-87.2534 119.022,-97.597 123.68,-88.0808 116.729,-87.2534"/>
</g>
<!-- 3 -->
<g id="node4" class="node"><title>3</title>
<ellipse fill="cadetblue" stroke="black" cx="137.43" cy="-237.133" rx="21.4286" ry="21.4286"/>
<text text-anchor="middle" x="137.43" y="-232.133" font-family="Times New Roman,serif" font-size="20.00">2</text>
</g>
<!-- 3&#45;&gt;0 -->
<g id="edge1" class="edge"><title>3&#45;&gt;0</title>
<path fill="none" stroke="black" stroke-width="2" d="M156.249,-226.72C171.341,-218.368 192.742,-206.526 209.789,-197.093"/>
<polygon fill="black" stroke="black" stroke-width="2" points="211.689,-200.042 218.744,-192.137 208.3,-193.917 211.689,-200.042"/>
</g>
<!-- 3&#45;&gt;1 -->
<g id="edge4" class="edge"><title>3&#45;&gt;1</title>
<path fill="none" stroke="black" stroke-width="2" d="M119.06,-226.375C105.561,-218.469 86.9954,-207.597 71.7612,-198.675"/>
<polygon fill="black" stroke="black" stroke-width="2" points="73.1792,-195.45 62.7813,-193.416 69.6417,-201.49 73.1792,-195.45"/>
</g>
<!-- 4 -->
<g id="node5" class="node"><title>4</title>
<ellipse fill="cadetblue" stroke="black" cx="226.749" cy="-66.1741" rx="21.4286" ry="21.4286"/>
<text text-anchor="middle" x="226.749" y="-61.1741" font-family="Times New Roman,serif" font-size="20.00">2</text>
</g>
<!-- 4&#45;&gt;0 -->
<g id="edge2" class="edge"><title>4&#45;&gt;0</title>
<path fill="none" stroke="black" stroke-width="2" d="M228.717,-87.3763C230.348,-104.946 232.69,-130.179 234.542,-150.137"/>
<polygon fill="black" stroke="black" stroke-width="2" points="231.077,-150.678 235.486,-160.312 238.047,-150.031 231.077,-150.678"/>
</g>
<!-- 4&#45;&gt;2 -->
<g id="edge8" class="edge"><title>4&#45;&gt;2</title>
<path fill="none" stroke="black" stroke-width="2" d="M207.262,-57.2912C192.942,-50.7637 173.247,-41.7863 157.086,-34.4198"/>
<polygon fill="black" stroke="black" stroke-width="2" points="158.111,-31.0406 147.56,-30.0776 155.208,-37.4101 158.111,-31.0406"/>
</g>
<!-- 5&#45;&gt;1 -->
<g id="edge5" class="edge"><title>5&#45;&gt;1</title>
<path fill="none" stroke="black" stroke-width="2" d="M25.4751,-89.3351C29.0453,-106.899 34.19,-132.209 38.2218,-152.044"/>
<polygon fill="black" stroke="black" stroke-width="2" points="34.7926,-152.745 40.2145,-161.847 41.6524,-151.35 34.7926,-152.745"/>
</g>
<!-- 6&#45;&gt;2 -->
<g id="edge10" class="edge"><title>6&#45;&gt;2</title>
<path fill="none" stroke="black" stroke-width="2" d="M160.442,-121.736C154.226,-102.41 144.779,-73.033 137.7,-51.02"/>
<polygon fill="black" stroke="black" stroke-width="2" points="141.027,-49.9349 134.634,-41.4866 134.363,-52.078 141.027,-49.9349"/>
</g>
<!-- 6&#45;&gt;3 -->
<g id="edge12" class="edge"><title>6&#45;&gt;3</title>
<path fill="none" stroke="black" stroke-width="2" d="M160.537,-162.598C156.488,-175.66 151.187,-192.758 146.685,-207.282"/>
<polygon fill="black" stroke="black" stroke-width="2" points="143.338,-206.258 143.72,-216.846 150.024,-208.33 143.338,-206.258"/>
</g>
<!-- 6&#45;&gt;4 -->
<g id="edge14" class="edge"><title>6&#45;&gt;4</title>
<path fill="none" stroke="black" stroke-width="2" d="M180.214,-125.128C188.112,-115.122 198.279,-102.241 207.095,-91.0731"/>
<polygon fill="black" stroke="black" stroke-width="2" points="210.064,-92.9606 213.513,-82.9427 204.57,-88.6234 210.064,-92.9606"/>
</g>
<!-- 7&#45;&gt;3 -->
<g id="edge13" class="edge"><title>7&#45;&gt;3</title>
<path fill="none" stroke="black" stroke-width="2" d="M120.201,-139.61C123.453,-158.014 128.233,-185.072 131.934,-206.021"/>
<polygon fill="black" stroke="black" stroke-width="2" points="128.518,-206.806 133.705,-216.045 135.412,-205.588 128.518,-206.806"/>
</g>
<!-- 7&#45;&gt;4 -->
<g id="edge15" class="edge"><title>7&#45;&gt;4</title>
<path fill="none" stroke="black" stroke-width="2" d="M135.711,-109.56C152.994,-101.324 178.62,-89.1109 198.285,-79.7393"/>
<polygon fill="black" stroke="black" stroke-width="2" points="199.875,-82.8585 207.397,-75.3968 196.864,-76.5394 199.875,-82.8585"/>
</g>
<!-- 7&#45;&gt;5 -->
<g id="edge16" class="edge"><title>7&#45;&gt;5</title>
<path fill="none" stroke="black" stroke-width="2" d="M97.6816,-108.765C83.8464,-101.456 64.8184,-91.4042 49.2049,-83.1559"/>
<polygon fill="black" stroke="black" stroke-width="2" points="50.4784,-79.8703 40.0015,-78.2939 47.2086,-86.0597 50.4784,-79.8703"/>
</g>
<!-- 7&#45;&gt;6 -->
<g id="edge17" class="edge"><title>7&#45;&gt;6</title>
<path fill="none" stroke="black" stroke-width="2" d="M135.863,-127.627C136.571,-127.953 137.286,-128.283 138.005,-128.614"/>
<polygon fill="black" stroke="black" stroke-width="2" points="136.841,-131.931 147.388,-132.936 139.77,-125.573 136.841,-131.931"/>
</g>
</g>
</svg>

