<?xml version="1.0" encoding="UTF-8" standalone="no"?>
<!DOCTYPE svg PUBLIC "-//W3C//DTD SVG 1.1//EN"
 "http://www.w3.org/Graphics/SVG/1.1/DTD/svg11.dtd">
<!-- Generated by graphviz version 2.36.0 (20140111.2315)
 -->
<!-- Title: G Pages: 1 -->
<svg width="100%" height="100%"
 viewBox="0.00 0.00 270.58 258.61" xmlns="http://www.w3.org/2000/svg" xmlns:xlink="http://www.w3.org/1999/xlink">
<g id="graph0" class="graph" transform="scale(1 1) rotate(0) translate(4 254.614)">
<title>G</title>
<!-- 0 -->
<g id="node1" class="node"><title>0</title>
<ellipse fill="cadetblue" stroke="black" cx="56.8762" cy="-34.6682" rx="21.4286" ry="21.4286"/>
<text text-anchor="middle" x="56.8762" y="-29.6682" font-family="Times New Roman,serif" font-size="20.00">2</text>
</g>
<!-- 5 -->
<g id="node6" class="node"><title>5</title>
<ellipse fill="cadetblue" stroke="black" cx="97.2275" cy="-134.029" rx="21.4286" ry="21.4286"/>
<text text-anchor="middle" x="97.2275" y="-129.029" font-family="Times New Roman,serif" font-size="20.00">2</text>
</g>
<!-- 0&#45;&gt;5 -->
<g id="edge3" class="edge"><title>0&#45;&gt;5</title>
<path fill="none" stroke="black" stroke-width="2" d="M65.0419,-54.7754C70.8776,-69.1451 78.8209,-88.7047 85.356,-104.797"/>
<polygon fill="black" stroke="black" stroke-width="2" points="82.2062,-106.343 89.2117,-114.291 88.6918,-103.709 82.2062,-106.343"/>
</g>
<!-- 6 -->
<g id="node7" class="node"><title>6</title>
<ellipse fill="brown" stroke="black" cx="147.659" cy="-91.7343" rx="21.4286" ry="21.4286"/>
<text text-anchor="middle" x="147.659" y="-86.7343" font-family="Times New Roman,serif" font-size="20.00">3</text>
</g>
<!-- 0&#45;&gt;6 -->
<g id="edge4" class="edge"><title>0&#45;&gt;6</title>
<path fill="none" stroke="black" stroke-width="2" d="M75.2475,-46.2164C88.3766,-54.4694 106.248,-65.703 120.95,-74.9453"/>
<polygon fill="black" stroke="black" stroke-width="2" points="119.296,-78.0393 129.625,-80.3981 123.021,-72.1129 119.296,-78.0393"/>
</g>
<!-- 1 -->
<g id="node2" class="node"><title>1</title>
<ellipse fill="cadetblue" stroke="black" cx="98.395" cy="-229.401" rx="21.4286" ry="21.4286"/>
<text text-anchor="middle" x="98.395" y="-224.401" font-family="Times New Roman,serif" font-size="20.00">2</text>
</g>
<!-- 1&#45;&gt;6 -->
<g id="edge7" class="edge"><title>1&#45;&gt;6</title>
<path fill="none" stroke="black" stroke-width="2" d="M105.558,-209.383C113.84,-186.239 127.551,-147.926 137.066,-121.337"/>
<polygon fill="black" stroke="black" stroke-width="2" points="140.413,-122.371 140.487,-111.776 133.822,-120.012 140.413,-122.371"/>
</g>
<!-- 7 -->
<g id="node8" class="node"><title>7</title>
<ellipse fill="brown" stroke="black" cx="171.317" cy="-171.176" rx="21.4286" ry="21.4286"/>
<text text-anchor="middle" x="171.317" y="-166.176" font-family="Times New Roman,serif" font-size="20.00">3</text>
</g>
<!-- 1&#45;&gt;7 -->
<g id="edge8" class="edge"><title>1&#45;&gt;7</title>
<path fill="none" stroke="black" stroke-width="2" d="M115.308,-215.897C124.604,-208.474 136.306,-199.13 146.608,-190.905"/>
<polygon fill="black" stroke="black" stroke-width="2" points="148.865,-193.582 154.496,-184.607 144.497,-188.111 148.865,-193.582"/>
</g>
<!-- 2 -->
<g id="node3" class="node"><title>2</title>
<ellipse fill="cadetblue" stroke="black" cx="241.37" cy="-109.549" rx="21.4286" ry="21.4286"/>
<text text-anchor="middle" x="241.37" y="-104.549" font-family="Times New Roman,serif" font-size="20.00">2</text>
</g>
<!-- 2&#45;&gt;6 -->
<g id="edge11" class="edge"><title>2&#45;&gt;6</title>
<path fill="none" stroke="black" stroke-width="2" d="M220.105,-105.506C207.798,-103.167 192.093,-100.181 178.454,-97.5883"/>
<polygon fill="black" stroke="black" stroke-width="2" points="178.994,-94.1285 168.516,-95.6993 177.687,-101.005 178.994,-94.1285"/>
</g>
<!-- 2&#45;&gt;7 -->
<g id="edge12" class="edge"><title>2&#45;&gt;7</title>
<path fill="none" stroke="black" stroke-width="2" d="M225.122,-123.842C216.192,-131.698 204.95,-141.588 195.055,-150.293"/>
<polygon fill="black" stroke="black" stroke-width="2" points="192.673,-147.727 187.477,-156.96 197.297,-152.983 192.673,-147.727"/>
</g>
<!-- 3 -->
<g id="node4" class="node"><title>3</title>
<ellipse fill="cadetblue" stroke="black" cx="21.2132" cy="-158.746" rx="21.4286" ry="21.4286"/>
<text text-anchor="middle" x="21.2132" y="-153.746" font-family="Times New Roman,serif" font-size="20.00">2</text>
</g>
<!-- 3&#45;&gt;0 -->
<g id="edge1" class="edge"><title>3&#45;&gt;0</title>
<path fill="none" stroke="black" stroke-width="2" d="M27.1022,-138.257C32.8324,-118.321 41.6077,-87.7899 48.1491,-65.0313"/>
<polygon fill="black" stroke="black" stroke-width="2" points="51.5798,-65.7654 50.9785,-55.1876 44.8522,-63.8316 51.5798,-65.7654"/>
</g>
<!-- 3&#45;&gt;1 -->
<g id="edge5" class="edge"><title>3&#45;&gt;1</title>
<path fill="none" stroke="black" stroke-width="2" d="M37.2053,-173.386C48.1439,-183.399 62.8226,-196.837 75.0611,-208.04"/>
<polygon fill="black" stroke="black" stroke-width="2" points="72.948,-210.851 82.6874,-215.022 77.6747,-205.688 72.948,-210.851"/>
</g>
<!-- 4 -->
<g id="node5" class="node"><title>4</title>
<ellipse fill="cadetblue" stroke="black" cx="185.276" cy="-21.2132" rx="21.4286" ry="21.4286"/>
<text text-anchor="middle" x="185.276" y="-16.2132" font-family="Times New Roman,serif" font-size="20.00">2</text>
</g>
<!-- 4&#45;&gt;0 -->
<g id="edge2" class="edge"><title>4&#45;&gt;0</title>
<path fill="none" stroke="black" stroke-width="2" d="M164.074,-23.435C143.443,-25.5969 111.848,-28.9077 88.297,-31.3756"/>
<polygon fill="black" stroke="black" stroke-width="2" points="87.6911,-27.9199 78.1104,-32.4431 88.4207,-34.8818 87.6911,-27.9199"/>
</g>
<!-- 4&#45;&gt;2 -->
<g id="edge9" class="edge"><title>4&#45;&gt;2</title>
<path fill="none" stroke="black" stroke-width="2" d="M196.899,-39.5164C204.849,-52.0357 215.517,-68.8357 224.412,-82.8429"/>
<polygon fill="black" stroke="black" stroke-width="2" points="221.639,-85.0057 229.954,-91.5712 227.548,-81.2532 221.639,-85.0057"/>
</g>
<!-- 5&#45;&gt;1 -->
<g id="edge6" class="edge"><title>5&#45;&gt;1</title>
<path fill="none" stroke="black" stroke-width="2" d="M97.4924,-155.671C97.6458,-168.196 97.8414,-184.179 98.0113,-198.061"/>
<polygon fill="black" stroke="black" stroke-width="2" points="94.5129,-198.217 98.1351,-208.174 101.512,-198.132 94.5129,-198.217"/>
</g>
<!-- 5&#45;&gt;2 -->
<g id="edge10" class="edge"><title>5&#45;&gt;2</title>
<path fill="none" stroke="black" stroke-width="2" d="M118.187,-130.47C142.42,-126.354 182.535,-119.541 210.375,-114.813"/>
<polygon fill="black" stroke="black" stroke-width="2" points="211.112,-118.238 220.385,-113.113 209.94,-111.337 211.112,-118.238"/>
</g>
<!-- 5&#45;&gt;3 -->
<g id="edge13" class="edge"><title>5&#45;&gt;3</title>
<path fill="none" stroke="black" stroke-width="2" d="M76.8571,-140.653C69.0181,-143.202 59.8931,-146.169 51.3275,-148.954"/>
<polygon fill="black" stroke="black" stroke-width="2" points="50.0675,-145.683 41.6399,-152.104 52.2321,-152.34 50.0675,-145.683"/>
</g>
<!-- 6&#45;&gt;4 -->
<g id="edge15" class="edge"><title>6&#45;&gt;4</title>
<path fill="none" stroke="black" stroke-width="2" d="M157.74,-72.8359C161.619,-65.5635 166.135,-57.0978 170.374,-49.1513"/>
<polygon fill="black" stroke="black" stroke-width="2" points="173.549,-50.6342 175.168,-40.1637 167.373,-47.3397 173.549,-50.6342"/>
</g>
<!-- 6&#45;&gt;7 -->
<g id="edge18" class="edge"><title>6&#45;&gt;7</title>
<path fill="none" stroke="black" stroke-width="2" d="M153.752,-112.192C156.373,-120.995 159.491,-131.464 162.367,-141.121"/>
<polygon fill="black" stroke="black" stroke-width="2" points="159.037,-142.202 165.245,-150.787 165.746,-140.204 159.037,-142.202"/>
</g>
<!-- 7&#45;&gt;3 -->
<g id="edge14" class="edge"><title>7&#45;&gt;3</title>
<path fill="none" stroke="black" stroke-width="2" d="M150.129,-169.421C124.795,-167.323 82.1521,-163.792 52.8956,-161.37"/>
<polygon fill="black" stroke="black" stroke-width="2" points="53.0341,-157.869 42.7794,-160.532 52.4564,-164.845 53.0341,-157.869"/>
</g>
<!-- 7&#45;&gt;4 -->
<g id="edge16" class="edge"><title>7&#45;&gt;4</title>
<path fill="none" stroke="black" stroke-width="2" d="M173.288,-150.008C175.644,-124.697 179.609,-82.0946 182.33,-52.8657"/>
<polygon fill="black" stroke="black" stroke-width="2" points="185.829,-53.0404 183.271,-42.759 178.859,-52.3915 185.829,-53.0404"/>
</g>
<!-- 7&#45;&gt;5 -->
<g id="edge17" class="edge"><title>7&#45;&gt;5</title>
<path fill="none" stroke="black" stroke-width="2" d="M152.237,-161.61C144.027,-157.493 134.264,-152.598 125.258,-148.083"/>
<polygon fill="black" stroke="black" stroke-width="2" points="126.751,-144.916 116.243,-143.563 123.614,-151.174 126.751,-144.916"/>
</g>
</g>
</svg>

