<?xml version="1.0" encoding="UTF-8" standalone="no"?>
<!DOCTYPE svg PUBLIC "-//W3C//DTD SVG 1.1//EN"
 "http://www.w3.org/Graphics/SVG/1.1/DTD/svg11.dtd">
<!-- Generated by graphviz version 2.36.0 (20140111.2315)
 -->
<!-- Title: G Pages: 1 -->
<svg width="100%" height="100%"
 viewBox="0.00 0.00 264.51 262.70" xmlns="http://www.w3.org/2000/svg" xmlns:xlink="http://www.w3.org/1999/xlink">
<g id="graph0" class="graph" transform="scale(1 1) rotate(0) translate(4 258.705)">
<title>G</title>
<!-- 0 -->
<g id="node1" class="node"><title>0</title>
<ellipse fill="cadetblue" stroke="black" cx="77.8391" cy="-61.8955" rx="21.4286" ry="21.4286"/>
<text text-anchor="middle" x="77.8391" y="-56.8955" font-family="Times New Roman,serif" font-size="20.00">2</text>
</g>
<!-- 5 -->
<g id="node6" class="node"><title>5</title>
<ellipse fill="cadetblue" stroke="black" cx="21.2132" cy="-135.781" rx="21.4286" ry="21.4286"/>
<text text-anchor="middle" x="21.2132" y="-130.781" font-family="Times New Roman,serif" font-size="20.00">2</text>
</g>
<!-- 0&#45;&gt;5 -->
<g id="edge3" class="edge"><title>0&#45;&gt;5</title>
<path fill="none" stroke="black" stroke-width="2" d="M64.7057,-79.0321C57.4873,-88.4506 48.4,-100.308 40.4008,-110.745"/>
<polygon fill="black" stroke="black" stroke-width="2" points="37.5805,-108.671 34.2754,-118.737 43.1364,-112.929 37.5805,-108.671"/>
</g>
<!-- 7 -->
<g id="node8" class="node"><title>7</title>
<ellipse fill="cadetblue" stroke="black" cx="127.136" cy="-128.804" rx="21.4286" ry="21.4286"/>
<text text-anchor="middle" x="127.136" y="-123.804" font-family="Times New Roman,serif" font-size="20.00">2</text>
</g>
<!-- 0&#45;&gt;7 -->
<g id="edge4" class="edge"><title>0&#45;&gt;7</title>
<path fill="none" stroke="black" stroke-width="2" d="M90.5344,-79.126C95.9547,-86.4827 102.393,-95.2205 108.346,-103.301"/>
<polygon fill="black" stroke="black" stroke-width="2" points="105.563,-105.424 114.313,-111.399 111.199,-101.272 105.563,-105.424"/>
</g>
<!-- 1 -->
<g id="node2" class="node"><title>1</title>
<ellipse fill="cadetblue" stroke="black" cx="113.526" cy="-233.491" rx="21.4286" ry="21.4286"/>
<text text-anchor="middle" x="113.526" y="-228.491" font-family="Times New Roman,serif" font-size="20.00">2</text>
</g>
<!-- 6 -->
<g id="node7" class="node"><title>6</title>
<ellipse fill="dodgerblue" stroke="black" cx="235.298" cy="-131.082" rx="21.4286" ry="21.4286"/>
<text text-anchor="middle" x="235.298" y="-126.082" font-family="Times New Roman,serif" font-size="20.00">4</text>
</g>
<!-- 1&#45;&gt;6 -->
<g id="edge7" class="edge"><title>1&#45;&gt;6</title>
<path fill="none" stroke="black" stroke-width="2" d="M125.476,-215.721C136.193,-200.75 153.023,-179.468 171.378,-164.69 181.831,-156.275 194.716,-149.021 206.173,-143.429"/>
<polygon fill="black" stroke="black" stroke-width="2" points="207.795,-146.535 215.376,-139.134 204.835,-140.192 207.795,-146.535"/>
</g>
<!-- 1&#45;&gt;7 -->
<g id="edge8" class="edge"><title>1&#45;&gt;7</title>
<path fill="none" stroke="black" stroke-width="2" d="M116.28,-212.306C118.236,-197.265 120.893,-176.827 123.089,-159.936"/>
<polygon fill="black" stroke="black" stroke-width="2" points="126.568,-160.325 124.386,-149.957 119.626,-159.423 126.568,-160.325"/>
</g>
<!-- 2 -->
<g id="node3" class="node"><title>2</title>
<ellipse fill="cadetblue" stroke="black" cx="128.271" cy="-21.2132" rx="21.4286" ry="21.4286"/>
<text text-anchor="middle" x="128.271" y="-16.2132" font-family="Times New Roman,serif" font-size="20.00">2</text>
</g>
<!-- 4 -->
<g id="node5" class="node"><title>4</title>
<ellipse fill="brown" stroke="black" cx="211.378" cy="-48.4367" rx="21.4286" ry="21.4286"/>
<text text-anchor="middle" x="211.378" y="-43.4367" font-family="Times New Roman,serif" font-size="20.00">3</text>
</g>
<!-- 2&#45;&gt;4 -->
<g id="edge9" class="edge"><title>2&#45;&gt;4</title>
<path fill="none" stroke="black" stroke-width="2" d="M148.814,-27.9426C158.677,-31.1734 170.682,-35.1061 181.529,-38.6593"/>
<polygon fill="black" stroke="black" stroke-width="2" points="180.478,-41.9978 191.071,-41.7847 182.657,-35.3456 180.478,-41.9978"/>
</g>
<!-- 2&#45;&gt;6 -->
<g id="edge11" class="edge"><title>2&#45;&gt;6</title>
<path fill="none" stroke="black" stroke-width="2" d="M143.152,-36.4899C161.261,-55.0797 192.009,-86.6432 212.963,-108.153"/>
<polygon fill="black" stroke="black" stroke-width="2" points="210.713,-110.86 220.198,-115.58 215.727,-105.975 210.713,-110.86"/>
</g>
<!-- 3 -->
<g id="node4" class="node"><title>3</title>
<ellipse fill="cadetblue" stroke="black" cx="189.948" cy="-183.321" rx="21.4286" ry="21.4286"/>
<text text-anchor="middle" x="189.948" y="-178.321" font-family="Times New Roman,serif" font-size="20.00">2</text>
</g>
<!-- 3&#45;&gt;0 -->
<g id="edge1" class="edge"><title>3&#45;&gt;0</title>
<path fill="none" stroke="black" stroke-width="2" d="M180.955,-163.853C173.115,-148.22 160.672,-126.296 145.737,-110.205 133.983,-97.5395 118.417,-86.1768 105.155,-77.658"/>
<polygon fill="black" stroke="black" stroke-width="2" points="106.759,-74.534 96.4167,-72.2337 103.067,-80.4814 106.759,-74.534"/>
</g>
<!-- 3&#45;&gt;1 -->
<g id="edge5" class="edge"><title>3&#45;&gt;1</title>
<path fill="none" stroke="black" stroke-width="2" d="M171.837,-195.211C162.319,-201.459 150.476,-209.234 139.954,-216.141"/>
<polygon fill="black" stroke="black" stroke-width="2" points="137.945,-213.273 131.507,-221.687 141.787,-219.125 137.945,-213.273"/>
</g>
<!-- 3&#45;&gt;6 -->
<g id="edge14" class="edge"><title>3&#45;&gt;6</title>
<path fill="none" stroke="black" stroke-width="2" d="M204.048,-167.078C207.407,-163.209 211.061,-159.001 214.646,-154.871"/>
<polygon fill="black" stroke="black" stroke-width="2" points="217.449,-156.981 221.362,-147.135 212.163,-152.392 217.449,-156.981"/>
</g>
<!-- 4&#45;&gt;0 -->
<g id="edge2" class="edge"><title>4&#45;&gt;0</title>
<path fill="none" stroke="black" stroke-width="2" d="M190.218,-50.5693C168.468,-52.7614 134.348,-56.2002 109.406,-58.714"/>
<polygon fill="black" stroke="black" stroke-width="2" points="108.94,-55.2431 99.3419,-59.7283 109.642,-62.2078 108.94,-55.2431"/>
</g>
<!-- 4&#45;&gt;3 -->
<g id="edge13" class="edge"><title>4&#45;&gt;3</title>
<path fill="none" stroke="black" stroke-width="2" d="M208.029,-69.5123C204.527,-91.5553 198.99,-126.406 194.965,-151.739"/>
<polygon fill="black" stroke="black" stroke-width="2" points="191.456,-151.523 193.343,-161.948 198.369,-152.621 191.456,-151.523"/>
</g>
<!-- 5&#45;&gt;1 -->
<g id="edge6" class="edge"><title>5&#45;&gt;1</title>
<path fill="none" stroke="black" stroke-width="2" d="M36.0448,-151.48C51.118,-167.435 74.6302,-192.321 91.8026,-210.498"/>
<polygon fill="black" stroke="black" stroke-width="2" points="89.3193,-212.966 98.7309,-217.832 94.4076,-208.159 89.3193,-212.966"/>
</g>
<!-- 5&#45;&gt;2 -->
<g id="edge10" class="edge"><title>5&#45;&gt;2</title>
<path fill="none" stroke="black" stroke-width="2" d="M40.0477,-125.231C56.4794,-115.318 80.1691,-99.233 96.4221,-80.5125 104.223,-71.5269 110.857,-60.3075 116.019,-50.0529"/>
<polygon fill="black" stroke="black" stroke-width="2" points="119.191,-51.5314 120.336,-40.9985 112.872,-48.5187 119.191,-51.5314"/>
</g>
<!-- 6&#45;&gt;4 -->
<g id="edge16" class="edge"><title>6&#45;&gt;4</title>
<path fill="none" stroke="black" stroke-width="2" d="M229.385,-110.653C226.596,-101.017 223.212,-89.325 220.134,-78.6892"/>
<polygon fill="black" stroke="black" stroke-width="2" points="223.448,-77.5498 217.305,-68.9172 216.724,-79.4961 223.448,-77.5498"/>
</g>
<!-- 7&#45;&gt;2 -->
<g id="edge12" class="edge"><title>7&#45;&gt;2</title>
<path fill="none" stroke="black" stroke-width="2" d="M127.36,-107.547C127.525,-91.9271 127.752,-70.4442 127.937,-52.8163"/>
<polygon fill="black" stroke="black" stroke-width="2" points="131.441,-52.4618 128.047,-42.4255 124.442,-52.388 131.441,-52.4618"/>
</g>
<!-- 7&#45;&gt;3 -->
<g id="edge15" class="edge"><title>7&#45;&gt;3</title>
<path fill="none" stroke="black" stroke-width="2" d="M143.312,-142.843C150.145,-148.774 158.248,-155.807 165.767,-162.333"/>
<polygon fill="black" stroke="black" stroke-width="2" points="163.762,-165.228 173.609,-169.139 168.351,-159.941 163.762,-165.228"/>
</g>
<!-- 7&#45;&gt;4 -->
<g id="edge17" class="edge"><title>7&#45;&gt;4</title>
<path fill="none" stroke="black" stroke-width="2" d="M142.588,-114.063C155.412,-101.828 173.841,-84.247 188.397,-70.3608"/>
<polygon fill="black" stroke="black" stroke-width="2" points="191.205,-72.519 196.024,-63.0838 186.373,-67.4541 191.205,-72.519"/>
</g>
<!-- 7&#45;&gt;5 -->
<g id="edge18" class="edge"><title>7&#45;&gt;5</title>
<path fill="none" stroke="black" stroke-width="2" d="M105.956,-130.199C90.7569,-131.2 70.0165,-132.566 52.8587,-133.697"/>
<polygon fill="black" stroke="black" stroke-width="2" points="52.4684,-130.215 42.7201,-134.364 52.9286,-137.199 52.4684,-130.215"/>
</g>
<!-- 7&#45;&gt;6 -->
<g id="edge19" class="edge"><title>7&#45;&gt;6</title>
<path fill="none" stroke="black" stroke-width="2" d="M148.506,-129.254C164.283,-129.586 186.01,-130.044 203.778,-130.418"/>
<polygon fill="black" stroke="black" stroke-width="2" points="203.902,-133.921 213.973,-130.633 204.049,-126.923 203.902,-133.921"/>
</g>
</g>
</svg>

