<?xml version="1.0" encoding="UTF-8" standalone="no"?>
<!DOCTYPE svg PUBLIC "-//W3C//DTD SVG 1.1//EN"
 "http://www.w3.org/Graphics/SVG/1.1/DTD/svg11.dtd">
<!-- Generated by graphviz version 2.36.0 (20140111.2315)
 -->
<!-- Title: G Pages: 1 -->
<svg width="100%" height="100%"
 viewBox="0.00 0.00 212.81 241.69" xmlns="http://www.w3.org/2000/svg" xmlns:xlink="http://www.w3.org/1999/xlink">
<g id="graph0" class="graph" transform="scale(1 1) rotate(0) translate(4 237.695)">
<title>G</title>
<!-- 0 -->
<g id="node1" class="node"><title>0</title>
<ellipse fill="cadetblue" stroke="black" cx="183.592" cy="-166" rx="21.4286" ry="21.4286"/>
<text text-anchor="middle" x="183.592" y="-161" font-family="Times New Roman,serif" font-size="20.00">2</text>
</g>
<!-- 4 -->
<g id="node5" class="node"><title>4</title>
<ellipse fill="cadetblue" stroke="black" cx="182.402" cy="-93.0207" rx="21.4286" ry="21.4286"/>
<text text-anchor="middle" x="182.402" y="-88.0207" font-family="Times New Roman,serif" font-size="20.00">2</text>
</g>
<!-- 0&#45;&gt;4 -->
<g id="edge2" class="edge"><title>0&#45;&gt;4</title>
<path fill="none" stroke="black" stroke-width="2" d="M183.242,-144.499C183.14,-138.263 183.027,-131.32 182.917,-124.603"/>
<polygon fill="black" stroke="black" stroke-width="2" points="186.413,-124.31 182.75,-114.369 179.414,-124.424 186.413,-124.31"/>
</g>
<!-- 6 -->
<g id="node7" class="node"><title>6</title>
<ellipse fill="cadetblue" stroke="black" cx="133.161" cy="-212.481" rx="21.4286" ry="21.4286"/>
<text text-anchor="middle" x="133.161" y="-207.481" font-family="Times New Roman,serif" font-size="20.00">2</text>
</g>
<!-- 0&#45;&gt;6 -->
<g id="edge3" class="edge"><title>0&#45;&gt;6</title>
<path fill="none" stroke="black" stroke-width="2" d="M167.912,-180.452C164.341,-183.744 160.471,-187.311 156.654,-190.829"/>
<polygon fill="black" stroke="black" stroke-width="2" points="153.986,-188.527 149.005,-197.878 158.73,-193.675 153.986,-188.527"/>
</g>
<!-- 1 -->
<g id="node2" class="node"><title>1</title>
<ellipse fill="cadetblue" stroke="black" cx="21.2132" cy="-172.838" rx="21.4286" ry="21.4286"/>
<text text-anchor="middle" x="21.2132" y="-167.838" font-family="Times New Roman,serif" font-size="20.00">2</text>
</g>
<!-- 3 -->
<g id="node4" class="node"><title>3</title>
<ellipse fill="brown" stroke="black" cx="79.8227" cy="-175.831" rx="21.4286" ry="21.4286"/>
<text text-anchor="middle" x="79.8227" y="-170.831" font-family="Times New Roman,serif" font-size="20.00">3</text>
</g>
<!-- 1&#45;&gt;3 -->
<g id="edge5" class="edge"><title>1&#45;&gt;3</title>
<path fill="none" stroke="black" stroke-width="2" d="M42.7044,-173.936C44.4563,-174.025 46.2485,-174.116 48.0532,-174.209"/>
<polygon fill="black" stroke="black" stroke-width="2" points="48.1686,-177.719 58.3341,-174.734 48.5256,-170.728 48.1686,-177.719"/>
</g>
<!-- 7 -->
<g id="node8" class="node"><title>7</title>
<ellipse fill="cadetblue" stroke="black" cx="101.149" cy="-103.245" rx="21.4286" ry="21.4286"/>
<text text-anchor="middle" x="101.149" y="-98.2446" font-family="Times New Roman,serif" font-size="20.00">2</text>
</g>
<!-- 1&#45;&gt;7 -->
<g id="edge8" class="edge"><title>1&#45;&gt;7</title>
<path fill="none" stroke="black" stroke-width="2" d="M37.3893,-158.755C48.8741,-148.756 64.4797,-135.169 77.3771,-123.941"/>
<polygon fill="black" stroke="black" stroke-width="2" points="79.7526,-126.513 84.9965,-117.307 75.1561,-121.234 79.7526,-126.513"/>
</g>
<!-- 2 -->
<g id="node3" class="node"><title>2</title>
<ellipse fill="cadetblue" stroke="black" cx="107.476" cy="-21.2132" rx="21.4286" ry="21.4286"/>
<text text-anchor="middle" x="107.476" y="-16.2132" font-family="Times New Roman,serif" font-size="20.00">2</text>
</g>
<!-- 5 -->
<g id="node6" class="node"><title>5</title>
<ellipse fill="cadetblue" stroke="black" cx="24.5256" cy="-83.2655" rx="21.4286" ry="21.4286"/>
<text text-anchor="middle" x="24.5256" y="-78.2655" font-family="Times New Roman,serif" font-size="20.00">2</text>
</g>
<!-- 2&#45;&gt;5 -->
<g id="edge10" class="edge"><title>2&#45;&gt;5</title>
<path fill="none" stroke="black" stroke-width="2" d="M90.2888,-34.0705C78.6105,-42.8066 62.9656,-54.51 49.8652,-64.3099"/>
<polygon fill="black" stroke="black" stroke-width="2" points="47.602,-61.632 41.691,-70.4247 51.795,-67.2372 47.602,-61.632"/>
</g>
<!-- 3&#45;&gt;0 -->
<g id="edge1" class="edge"><title>3&#45;&gt;0</title>
<path fill="none" stroke="black" stroke-width="2" d="M101.072,-173.818C115.762,-172.426 135.555,-170.551 152.075,-168.986"/>
<polygon fill="black" stroke="black" stroke-width="2" points="152.746,-172.438 162.371,-168.011 152.085,-165.469 152.746,-172.438"/>
</g>
<!-- 3&#45;&gt;6 -->
<g id="edge13" class="edge"><title>3&#45;&gt;6</title>
<path fill="none" stroke="black" stroke-width="2" d="M97.5835,-188.035C100.675,-190.159 103.946,-192.407 107.203,-194.645"/>
<polygon fill="black" stroke="black" stroke-width="2" points="105.435,-197.677 115.659,-200.455 109.399,-191.907 105.435,-197.677"/>
</g>
<!-- 4&#45;&gt;2 -->
<g id="edge9" class="edge"><title>4&#45;&gt;2</title>
<path fill="none" stroke="black" stroke-width="2" d="M166.877,-78.1421C156.329,-68.0327 142.197,-54.4894 130.364,-43.1488"/>
<polygon fill="black" stroke="black" stroke-width="2" points="132.622,-40.4651 122.981,-36.0727 127.779,-45.5189 132.622,-40.4651"/>
</g>
<!-- 4&#45;&gt;7 -->
<g id="edge16" class="edge"><title>4&#45;&gt;7</title>
<path fill="none" stroke="black" stroke-width="2" d="M161.054,-95.7069C152.283,-96.8105 141.952,-98.1104 132.361,-99.3172"/>
<polygon fill="black" stroke="black" stroke-width="2" points="131.839,-95.8552 122.354,-100.576 132.713,-102.8 131.839,-95.8552"/>
</g>
<!-- 5&#45;&gt;1 -->
<g id="edge6" class="edge"><title>5&#45;&gt;1</title>
<path fill="none" stroke="black" stroke-width="2" d="M23.7406,-104.493C23.3352,-115.457 22.8324,-129.053 22.3823,-141.225"/>
<polygon fill="black" stroke="black" stroke-width="2" points="18.8761,-141.33 22.0041,-151.453 25.8713,-141.589 18.8761,-141.33"/>
</g>
<!-- 5&#45;&gt;3 -->
<g id="edge12" class="edge"><title>5&#45;&gt;3</title>
<path fill="none" stroke="black" stroke-width="2" d="M35.4506,-101.553C43.4787,-114.992 54.52,-133.475 63.58,-148.641"/>
<polygon fill="black" stroke="black" stroke-width="2" points="60.7873,-150.791 68.9205,-157.581 66.7967,-147.201 60.7873,-150.791"/>
</g>
<!-- 6&#45;&gt;1 -->
<g id="edge7" class="edge"><title>6&#45;&gt;1</title>
<path fill="none" stroke="black" stroke-width="2" d="M112.134,-209.42C102.207,-207.718 90.2632,-205.297 79.7791,-202.135 71.2124,-199.552 69.2702,-198.247 61.1919,-194.4 57.0759,-192.439 52.78,-190.265 48.5954,-188.073"/>
<polygon fill="black" stroke="black" stroke-width="2" points="50.1934,-184.958 39.7256,-183.323 46.8886,-191.129 50.1934,-184.958"/>
</g>
<!-- 6&#45;&gt;4 -->
<g id="edge15" class="edge"><title>6&#45;&gt;4</title>
<path fill="none" stroke="black" stroke-width="2" d="M141.292,-192.755C149.204,-173.56 161.32,-144.166 170.352,-122.254"/>
<polygon fill="black" stroke="black" stroke-width="2" points="173.684,-123.356 174.259,-112.777 167.212,-120.688 173.684,-123.356"/>
</g>
<!-- 7&#45;&gt;0 -->
<g id="edge4" class="edge"><title>7&#45;&gt;0</title>
<path fill="none" stroke="black" stroke-width="2" d="M118.231,-116.248C129.838,-125.083 145.387,-136.919 158.408,-146.83"/>
<polygon fill="black" stroke="black" stroke-width="2" points="156.455,-149.742 166.532,-153.014 160.695,-144.172 156.455,-149.742"/>
</g>
<!-- 7&#45;&gt;2 -->
<g id="edge11" class="edge"><title>7&#45;&gt;2</title>
<path fill="none" stroke="black" stroke-width="2" d="M102.811,-81.6918C103.494,-72.8372 104.299,-62.4072 105.045,-52.7249"/>
<polygon fill="black" stroke="black" stroke-width="2" points="108.545,-52.8616 105.825,-42.622 101.566,-52.3232 108.545,-52.8616"/>
</g>
<!-- 7&#45;&gt;3 -->
<g id="edge14" class="edge"><title>7&#45;&gt;3</title>
<path fill="none" stroke="black" stroke-width="2" d="M95.0944,-123.851C93.0965,-130.651 90.8312,-138.361 88.6686,-145.722"/>
<polygon fill="black" stroke="black" stroke-width="2" points="85.279,-144.843 85.8181,-155.424 91.9951,-146.816 85.279,-144.843"/>
</g>
<!-- 7&#45;&gt;5 -->
<g id="edge17" class="edge"><title>7&#45;&gt;5</title>
<path fill="none" stroke="black" stroke-width="2" d="M80.615,-97.8906C72.7133,-95.8302 63.5152,-93.4319 54.881,-91.1805"/>
<polygon fill="black" stroke="black" stroke-width="2" points="55.6754,-87.7707 45.1158,-88.6343 53.9092,-94.5442 55.6754,-87.7707"/>
</g>
</g>
</svg>

