<?xml version="1.0" encoding="UTF-8" standalone="no"?>
<!DOCTYPE svg PUBLIC "-//W3C//DTD SVG 1.1//EN"
 "http://www.w3.org/Graphics/SVG/1.1/DTD/svg11.dtd">
<!-- Generated by graphviz version 2.36.0 (20140111.2315)
 -->
<!-- Title: G Pages: 1 -->
<svg width="100%" height="100%"
 viewBox="0.00 0.00 251.52 251.06" xmlns="http://www.w3.org/2000/svg" xmlns:xlink="http://www.w3.org/1999/xlink">
<g id="graph0" class="graph" transform="scale(1 1) rotate(0) translate(4 247.062)">
<title>G</title>
<!-- 0 -->
<g id="node1" class="node"><title>0</title>
<ellipse fill="cadetblue" stroke="black" cx="111.348" cy="-201.491" rx="21.4286" ry="21.4286"/>
<text text-anchor="middle" x="111.348" y="-196.491" font-family="Times New Roman,serif" font-size="20.00">2</text>
</g>
<!-- 5 -->
<g id="node6" class="node"><title>5</title>
<ellipse fill="cadetblue" stroke="black" cx="21.2132" cy="-94.8249" rx="21.4286" ry="21.4286"/>
<text text-anchor="middle" x="21.2132" y="-89.8249" font-family="Times New Roman,serif" font-size="20.00">2</text>
</g>
<!-- 0&#45;&gt;5 -->
<g id="edge3" class="edge"><title>0&#45;&gt;5</title>
<path fill="none" stroke="black" stroke-width="2" d="M97.2646,-184.824C82.3818,-167.212 58.7616,-139.26 41.7927,-119.179"/>
<polygon fill="black" stroke="black" stroke-width="2" points="44.3257,-116.754 35.1979,-111.374 38.979,-121.272 44.3257,-116.754"/>
</g>
<!-- 6 -->
<g id="node7" class="node"><title>6</title>
<ellipse fill="cadetblue" stroke="black" cx="171.874" cy="-138.861" rx="21.4286" ry="21.4286"/>
<text text-anchor="middle" x="171.874" y="-133.861" font-family="Times New Roman,serif" font-size="20.00">2</text>
</g>
<!-- 0&#45;&gt;6 -->
<g id="edge4" class="edge"><title>0&#45;&gt;6</title>
<path fill="none" stroke="black" stroke-width="2" d="M126.31,-186.009C133.346,-178.728 141.88,-169.898 149.651,-161.856"/>
<polygon fill="black" stroke="black" stroke-width="2" points="152.652,-163.787 157.084,-154.164 147.618,-158.923 152.652,-163.787"/>
</g>
<!-- 1 -->
<g id="node2" class="node"><title>1</title>
<ellipse fill="cadetblue" stroke="black" cx="52.2971" cy="-199.603" rx="21.4286" ry="21.4286"/>
<text text-anchor="middle" x="52.2971" y="-194.603" font-family="Times New Roman,serif" font-size="20.00">2</text>
</g>
<!-- 1&#45;&gt;6 -->
<g id="edge7" class="edge"><title>1&#45;&gt;6</title>
<path fill="none" stroke="black" stroke-width="2" d="M71.2443,-189.978C90.7207,-180.085 121.273,-164.565 143.607,-153.22"/>
<polygon fill="black" stroke="black" stroke-width="2" points="145.289,-156.291 152.619,-148.642 142.118,-150.05 145.289,-156.291"/>
</g>
<!-- 7 -->
<g id="node8" class="node"><title>7</title>
<ellipse fill="brown" stroke="black" cx="109.386" cy="-105.601" rx="21.4286" ry="21.4286"/>
<text text-anchor="middle" x="109.386" y="-100.601" font-family="Times New Roman,serif" font-size="20.00">3</text>
</g>
<!-- 1&#45;&gt;7 -->
<g id="edge8" class="edge"><title>1&#45;&gt;7</title>
<path fill="none" stroke="black" stroke-width="2" d="M63.576,-181.031C71.9968,-167.166 83.6288,-148.013 93.0642,-132.477"/>
<polygon fill="black" stroke="black" stroke-width="2" points="96.1255,-134.179 98.3249,-123.815 90.1424,-130.545 96.1255,-134.179"/>
</g>
<!-- 2 -->
<g id="node3" class="node"><title>2</title>
<ellipse fill="cadetblue" stroke="black" cx="135.41" cy="-21.2132" rx="21.4286" ry="21.4286"/>
<text text-anchor="middle" x="135.41" y="-16.2132" font-family="Times New Roman,serif" font-size="20.00">2</text>
</g>
<!-- 2&#45;&gt;5 -->
<g id="edge10" class="edge"><title>2&#45;&gt;5</title>
<path fill="none" stroke="black" stroke-width="2" d="M117.566,-32.715C98.9042,-44.7448 69.3983,-63.7645 47.9511,-77.5895"/>
<polygon fill="black" stroke="black" stroke-width="2" points="45.8167,-74.8011 39.3079,-83.1609 49.6094,-80.6847 45.8167,-74.8011"/>
</g>
<!-- 2&#45;&gt;7 -->
<g id="edge12" class="edge"><title>2&#45;&gt;7</title>
<path fill="none" stroke="black" stroke-width="2" d="M129.11,-41.6412C126,-51.7248 122.187,-64.0922 118.744,-75.2555"/>
<polygon fill="black" stroke="black" stroke-width="2" points="115.32,-74.4816 115.718,-85.069 122.009,-76.5445 115.32,-74.4816"/>
</g>
<!-- 3 -->
<g id="node4" class="node"><title>3</title>
<ellipse fill="cadetblue" stroke="black" cx="185.169" cy="-221.849" rx="21.4286" ry="21.4286"/>
<text text-anchor="middle" x="185.169" y="-216.849" font-family="Times New Roman,serif" font-size="20.00">2</text>
</g>
<!-- 3&#45;&gt;0 -->
<g id="edge1" class="edge"><title>3&#45;&gt;0</title>
<path fill="none" stroke="black" stroke-width="2" d="M164.606,-216.178C157.486,-214.215 149.35,-211.971 141.617,-209.838"/>
<polygon fill="black" stroke="black" stroke-width="2" points="142.372,-206.416 131.801,-207.131 140.511,-213.164 142.372,-206.416"/>
</g>
<!-- 3&#45;&gt;1 -->
<g id="edge5" class="edge"><title>3&#45;&gt;1</title>
<path fill="none" stroke="black" stroke-width="2" d="M164.379,-226.136C149.528,-228.562 129.11,-230.604 111.324,-227.795 100.103,-226.023 88.6387,-221.331 78.8345,-216.272"/>
<polygon fill="black" stroke="black" stroke-width="2" points="80.4507,-213.167 70.0054,-211.393 77.0647,-219.293 80.4507,-213.167"/>
</g>
<!-- 4 -->
<g id="node5" class="node"><title>4</title>
<ellipse fill="cadetblue" stroke="black" cx="222.305" cy="-107.667" rx="21.4286" ry="21.4286"/>
<text text-anchor="middle" x="222.305" y="-102.667" font-family="Times New Roman,serif" font-size="20.00">2</text>
</g>
<!-- 3&#45;&gt;4 -->
<g id="edge13" class="edge"><title>3&#45;&gt;4</title>
<path fill="none" stroke="black" stroke-width="2" d="M191.808,-201.436C197.591,-183.656 206.05,-157.646 212.593,-137.528"/>
<polygon fill="black" stroke="black" stroke-width="2" points="215.959,-138.496 215.723,-127.903 209.302,-136.331 215.959,-138.496"/>
</g>
<!-- 4&#45;&gt;0 -->
<g id="edge2" class="edge"><title>4&#45;&gt;0</title>
<path fill="none" stroke="black" stroke-width="2" d="M213.028,-126.786C207.487,-136.801 199.724,-148.762 190.452,-157.483 176.042,-171.036 156.678,-181.901 140.716,-189.444"/>
<polygon fill="black" stroke="black" stroke-width="2" points="138.961,-186.397 131.291,-193.706 141.845,-192.775 138.961,-186.397"/>
</g>
<!-- 4&#45;&gt;2 -->
<g id="edge9" class="edge"><title>4&#45;&gt;2</title>
<path fill="none" stroke="black" stroke-width="2" d="M207.169,-92.6075C193.546,-79.0542 173.347,-58.9572 157.846,-43.5356"/>
<polygon fill="black" stroke="black" stroke-width="2" points="160.221,-40.9616 150.664,-36.3897 155.284,-45.924 160.221,-40.9616"/>
</g>
<!-- 5&#45;&gt;1 -->
<g id="edge6" class="edge"><title>5&#45;&gt;1</title>
<path fill="none" stroke="black" stroke-width="2" d="M27.2803,-115.276C31.8587,-130.709 38.2112,-152.122 43.369,-169.508"/>
<polygon fill="black" stroke="black" stroke-width="2" points="40.0456,-170.612 46.2453,-179.204 46.7566,-168.621 40.0456,-170.612"/>
</g>
<!-- 5&#45;&gt;7 -->
<g id="edge17" class="edge"><title>5&#45;&gt;7</title>
<path fill="none" stroke="black" stroke-width="2" d="M42.5574,-97.4336C53.2796,-98.7441 66.4732,-100.357 78.297,-101.802"/>
<polygon fill="black" stroke="black" stroke-width="2" points="77.8877,-105.278 88.2385,-103.017 78.737,-98.3293 77.8877,-105.278"/>
</g>
<!-- 6&#45;&gt;2 -->
<g id="edge11" class="edge"><title>6&#45;&gt;2</title>
<path fill="none" stroke="black" stroke-width="2" d="M165.522,-118.368C159.806,-99.9245 151.329,-72.5761 144.825,-51.59"/>
<polygon fill="black" stroke="black" stroke-width="2" points="148.114,-50.3813 141.811,-41.8658 141.428,-52.4537 148.114,-50.3813"/>
</g>
<!-- 6&#45;&gt;3 -->
<g id="edge14" class="edge"><title>6&#45;&gt;3</title>
<path fill="none" stroke="black" stroke-width="2" d="M175.298,-160.232C176.782,-169.5 178.55,-180.534 180.176,-190.687"/>
<polygon fill="black" stroke="black" stroke-width="2" points="176.765,-191.517 181.803,-200.837 183.677,-190.41 176.765,-191.517"/>
</g>
<!-- 7&#45;&gt;3 -->
<g id="edge15" class="edge"><title>7&#45;&gt;3</title>
<path fill="none" stroke="black" stroke-width="2" d="M121.061,-123.51C133.541,-142.654 153.463,-173.214 167.788,-195.187"/>
<polygon fill="black" stroke="black" stroke-width="2" points="164.962,-197.263 173.356,-203.728 170.826,-193.44 164.962,-197.263"/>
</g>
<!-- 7&#45;&gt;4 -->
<g id="edge16" class="edge"><title>7&#45;&gt;4</title>
<path fill="none" stroke="black" stroke-width="2" d="M130.625,-105.99C147.551,-106.299 171.509,-106.738 190.688,-107.088"/>
<polygon fill="black" stroke="black" stroke-width="2" points="190.715,-110.589 200.777,-107.273 190.843,-103.59 190.715,-110.589"/>
</g>
</g>
</svg>

