<?xml version="1.0" encoding="UTF-8" standalone="no"?>
<!DOCTYPE svg PUBLIC "-//W3C//DTD SVG 1.1//EN"
 "http://www.w3.org/Graphics/SVG/1.1/DTD/svg11.dtd">
<!-- Generated by graphviz version 2.36.0 (20140111.2315)
 -->
<!-- Title: G Pages: 1 -->
<svg width="100%" height="100%"
 viewBox="0.00 0.00 220.75 285.57" xmlns="http://www.w3.org/2000/svg" xmlns:xlink="http://www.w3.org/1999/xlink">
<g id="graph0" class="graph" transform="scale(1 1) rotate(0) translate(4 281.566)">
<title>G</title>
<!-- 0 -->
<g id="node1" class="node"><title>0</title>
<ellipse fill="cadetblue" stroke="black" cx="21.2132" cy="-181.321" rx="21.4286" ry="21.4286"/>
<text text-anchor="middle" x="21.2132" y="-176.321" font-family="Times New Roman,serif" font-size="20.00">2</text>
</g>
<!-- 5 -->
<g id="node6" class="node"><title>5</title>
<ellipse fill="cadetblue" stroke="black" cx="57.8096" cy="-66.5014" rx="21.4286" ry="21.4286"/>
<text text-anchor="middle" x="57.8096" y="-61.5014" font-family="Times New Roman,serif" font-size="20.00">2</text>
</g>
<!-- 0&#45;&gt;5 -->
<g id="edge3" class="edge"><title>0&#45;&gt;5</title>
<path fill="none" stroke="black" stroke-width="2" d="M27.6717,-161.058C33.3591,-143.214 41.721,-116.979 48.195,-96.6669"/>
<polygon fill="black" stroke="black" stroke-width="2" points="51.5905,-97.5389 51.2926,-86.9482 44.921,-95.4131 51.5905,-97.5389"/>
</g>
<!-- 7 -->
<g id="node8" class="node"><title>7</title>
<ellipse fill="brown" stroke="black" cx="86.2447" cy="-118.785" rx="21.4286" ry="21.4286"/>
<text text-anchor="middle" x="86.2447" y="-113.785" font-family="Times New Roman,serif" font-size="20.00">3</text>
</g>
<!-- 0&#45;&gt;7 -->
<g id="edge4" class="edge"><title>0&#45;&gt;7</title>
<path fill="none" stroke="black" stroke-width="2" d="M36.6248,-166.501C44.6426,-158.791 54.6002,-149.215 63.4863,-140.67"/>
<polygon fill="black" stroke="black" stroke-width="2" points="66.1617,-142.953 70.9438,-133.499 61.3097,-137.908 66.1617,-142.953"/>
</g>
<!-- 1 -->
<g id="node2" class="node"><title>1</title>
<ellipse fill="cadetblue" stroke="black" cx="191.535" cy="-102.246" rx="21.4286" ry="21.4286"/>
<text text-anchor="middle" x="191.535" y="-97.2457" font-family="Times New Roman,serif" font-size="20.00">2</text>
</g>
<!-- 4 -->
<g id="node5" class="node"><title>4</title>
<ellipse fill="cadetblue" stroke="black" cx="144.893" cy="-210.462" rx="21.4286" ry="21.4286"/>
<text text-anchor="middle" x="144.893" y="-205.462" font-family="Times New Roman,serif" font-size="20.00">2</text>
</g>
<!-- 1&#45;&gt;4 -->
<g id="edge5" class="edge"><title>1&#45;&gt;4</title>
<path fill="none" stroke="black" stroke-width="2" d="M183.088,-121.843C175.935,-138.44 165.576,-162.473 157.451,-181.325"/>
<polygon fill="black" stroke="black" stroke-width="2" points="154.178,-180.076 153.434,-190.645 160.607,-182.847 154.178,-180.076"/>
</g>
<!-- 1&#45;&gt;7 -->
<g id="edge8" class="edge"><title>1&#45;&gt;7</title>
<path fill="none" stroke="black" stroke-width="2" d="M170.481,-105.553C155.273,-107.942 134.485,-111.207 117.365,-113.897"/>
<polygon fill="black" stroke="black" stroke-width="2" points="116.598,-110.474 107.262,-115.484 117.684,-117.389 116.598,-110.474"/>
</g>
<!-- 2 -->
<g id="node3" class="node"><title>2</title>
<ellipse fill="cadetblue" stroke="black" cx="126.602" cy="-21.2132" rx="21.4286" ry="21.4286"/>
<text text-anchor="middle" x="126.602" y="-16.2132" font-family="Times New Roman,serif" font-size="20.00">2</text>
</g>
<!-- 2&#45;&gt;7 -->
<g id="edge11" class="edge"><title>2&#45;&gt;7</title>
<path fill="none" stroke="black" stroke-width="2" d="M118.435,-40.9583C112.637,-54.9771 104.758,-74.0258 98.2463,-89.7688"/>
<polygon fill="black" stroke="black" stroke-width="2" points="94.9874,-88.4908 94.3995,-99.0693 101.456,-91.1664 94.9874,-88.4908"/>
</g>
<!-- 3 -->
<g id="node4" class="node"><title>3</title>
<ellipse fill="cadetblue" stroke="black" cx="80.7361" cy="-256.353" rx="21.4286" ry="21.4286"/>
<text text-anchor="middle" x="80.7361" y="-251.353" font-family="Times New Roman,serif" font-size="20.00">2</text>
</g>
<!-- 3&#45;&gt;0 -->
<g id="edge1" class="edge"><title>3&#45;&gt;0</title>
<path fill="none" stroke="black" stroke-width="2" d="M67.526,-239.701C59.7203,-229.861 49.6872,-217.214 40.9564,-206.208"/>
<polygon fill="black" stroke="black" stroke-width="2" points="43.5491,-203.845 34.5922,-198.186 38.0651,-208.195 43.5491,-203.845"/>
</g>
<!-- 4&#45;&gt;0 -->
<g id="edge2" class="edge"><title>4&#45;&gt;0</title>
<path fill="none" stroke="black" stroke-width="2" d="M124.192,-205.584C104.394,-200.919 74.2992,-193.829 51.7483,-188.516"/>
<polygon fill="black" stroke="black" stroke-width="2" points="52.5182,-185.101 41.982,-186.214 50.9128,-191.915 52.5182,-185.101"/>
</g>
<!-- 4&#45;&gt;3 -->
<g id="edge12" class="edge"><title>4&#45;&gt;3</title>
<path fill="none" stroke="black" stroke-width="2" d="M127.362,-223.002C120.997,-227.554 113.662,-232.801 106.722,-237.765"/>
<polygon fill="black" stroke="black" stroke-width="2" points="104.343,-235.163 98.2461,-243.828 108.416,-240.857 104.343,-235.163"/>
</g>
<!-- 5&#45;&gt;1 -->
<g id="edge6" class="edge"><title>5&#45;&gt;1</title>
<path fill="none" stroke="black" stroke-width="2" d="M78.4111,-72.0081C100.433,-77.8945 135.587,-87.2912 160.864,-94.0476"/>
<polygon fill="black" stroke="black" stroke-width="2" points="160.125,-97.4728 170.69,-96.6739 161.933,-90.7102 160.125,-97.4728"/>
</g>
<!-- 5&#45;&gt;2 -->
<g id="edge9" class="edge"><title>5&#45;&gt;2</title>
<path fill="none" stroke="black" stroke-width="2" d="M75.884,-54.6025C83.2511,-49.7525 91.9187,-44.0464 99.9841,-38.7367"/>
<polygon fill="black" stroke="black" stroke-width="2" points="101.982,-41.612 108.41,-33.1899 98.1325,-35.7653 101.982,-41.612"/>
</g>
<!-- 6 -->
<g id="node7" class="node"><title>6</title>
<ellipse fill="cadetblue" stroke="black" cx="141.103" cy="-139.842" rx="21.4286" ry="21.4286"/>
<text text-anchor="middle" x="141.103" y="-134.842" font-family="Times New Roman,serif" font-size="20.00">2</text>
</g>
<!-- 5&#45;&gt;6 -->
<g id="edge15" class="edge"><title>5&#45;&gt;6</title>
<path fill="none" stroke="black" stroke-width="2" d="M75.8966,-78.1473C84.932,-84.2847 95.8305,-92.1861 104.846,-100.186 110.19,-104.928 115.582,-110.383 120.515,-115.699"/>
<polygon fill="black" stroke="black" stroke-width="2" points="118.06,-118.203 127.354,-123.289 123.26,-113.517 118.06,-118.203"/>
</g>
<!-- 6&#45;&gt;1 -->
<g id="edge7" class="edge"><title>6&#45;&gt;1</title>
<path fill="none" stroke="black" stroke-width="2" d="M158.177,-127.113C160.806,-125.153 163.567,-123.095 166.328,-121.037"/>
<polygon fill="black" stroke="black" stroke-width="2" points="168.553,-123.744 174.479,-114.961 164.369,-118.132 168.553,-123.744"/>
</g>
<!-- 6&#45;&gt;2 -->
<g id="edge10" class="edge"><title>6&#45;&gt;2</title>
<path fill="none" stroke="black" stroke-width="2" d="M138.511,-118.633C136.267,-100.275 132.99,-73.4723 130.442,-52.6249"/>
<polygon fill="black" stroke="black" stroke-width="2" points="133.909,-52.1393 129.221,-42.6379 126.96,-52.9887 133.909,-52.1393"/>
</g>
<!-- 6&#45;&gt;3 -->
<g id="edge13" class="edge"><title>6&#45;&gt;3</title>
<path fill="none" stroke="black" stroke-width="2" d="M131.27,-158.82C121.491,-177.693 106.379,-206.861 95.2261,-228.386"/>
<polygon fill="black" stroke="black" stroke-width="2" points="92.0581,-226.893 90.5652,-237.382 98.2734,-230.113 92.0581,-226.893"/>
</g>
<!-- 7&#45;&gt;4 -->
<g id="edge14" class="edge"><title>7&#45;&gt;4</title>
<path fill="none" stroke="black" stroke-width="2" d="M97.8317,-136.897C106.427,-150.333 118.278,-168.858 127.937,-183.957"/>
<polygon fill="black" stroke="black" stroke-width="2" points="124.993,-185.849 133.33,-192.387 130.89,-182.077 124.993,-185.849"/>
</g>
<!-- 7&#45;&gt;5 -->
<g id="edge16" class="edge"><title>7&#45;&gt;5</title>
<path fill="none" stroke="black" stroke-width="2" d="M75.979,-99.9095C75.0006,-98.1106 73.9952,-96.2619 72.9832,-94.4012"/>
<polygon fill="black" stroke="black" stroke-width="2" points="75.8174,-92.2866 67.9649,-85.174 69.668,-95.6311 75.8174,-92.2866"/>
</g>
<!-- 7&#45;&gt;6 -->
<g id="edge17" class="edge"><title>7&#45;&gt;6</title>
<path fill="none" stroke="black" stroke-width="2" d="M106.05,-126.387C107.891,-127.094 109.783,-127.82 111.687,-128.551"/>
<polygon fill="black" stroke="black" stroke-width="2" points="110.553,-131.864 121.143,-132.18 113.061,-125.329 110.553,-131.864"/>
</g>
</g>
</svg>

