<?xml version="1.0" encoding="UTF-8" standalone="no"?>
<!DOCTYPE svg PUBLIC "-//W3C//DTD SVG 1.1//EN"
 "http://www.w3.org/Graphics/SVG/1.1/DTD/svg11.dtd">
<!-- Generated by graphviz version 2.36.0 (20140111.2315)
 -->
<!-- Title: G Pages: 1 -->
<svg width="100%" height="100%"
 viewBox="0.00 0.00 240.83 245.03" xmlns="http://www.w3.org/2000/svg" xmlns:xlink="http://www.w3.org/1999/xlink">
<g id="graph0" class="graph" transform="scale(1 1) rotate(0) translate(4 241.029)">
<title>G</title>
<!-- 0 -->
<g id="node1" class="node"><title>0</title>
<ellipse fill="cadetblue" stroke="black" cx="211.618" cy="-139.905" rx="21.4286" ry="21.4286"/>
<text text-anchor="middle" x="211.618" y="-134.905" font-family="Times New Roman,serif" font-size="20.00">2</text>
</g>
<!-- 6 -->
<g id="node7" class="node"><title>6</title>
<ellipse fill="brown" stroke="black" cx="106.084" cy="-104.115" rx="21.4286" ry="21.4286"/>
<text text-anchor="middle" x="106.084" y="-99.1151" font-family="Times New Roman,serif" font-size="20.00">3</text>
</g>
<!-- 0&#45;&gt;6 -->
<g id="edge3" class="edge"><title>0&#45;&gt;6</title>
<path fill="none" stroke="black" stroke-width="2" d="M191.27,-133.004C175.648,-127.706 153.837,-120.31 136.196,-114.327"/>
<polygon fill="black" stroke="black" stroke-width="2" points="136.964,-110.892 126.37,-110.995 134.716,-117.521 136.964,-110.892"/>
</g>
<!-- 7 -->
<g id="node8" class="node"><title>7</title>
<ellipse fill="brown" stroke="black" cx="131.899" cy="-154.547" rx="21.4286" ry="21.4286"/>
<text text-anchor="middle" x="131.899" y="-149.547" font-family="Times New Roman,serif" font-size="20.00">3</text>
</g>
<!-- 0&#45;&gt;7 -->
<g id="edge4" class="edge"><title>0&#45;&gt;7</title>
<path fill="none" stroke="black" stroke-width="2" d="M190.673,-143.752C182.227,-145.303 172.305,-147.125 163.044,-148.826"/>
<polygon fill="black" stroke="black" stroke-width="2" points="162.185,-145.426 152.981,-150.674 163.449,-152.31 162.185,-145.426"/>
</g>
<!-- 1 -->
<g id="node2" class="node"><title>1</title>
<ellipse fill="cadetblue" stroke="black" cx="40.2724" cy="-207.766" rx="21.4286" ry="21.4286"/>
<text text-anchor="middle" x="40.2724" y="-202.766" font-family="Times New Roman,serif" font-size="20.00">2</text>
</g>
<!-- 1&#45;&gt;6 -->
<g id="edge7" class="edge"><title>1&#45;&gt;6</title>
<path fill="none" stroke="black" stroke-width="2" d="M51.736,-189.711C62.0534,-173.462 77.352,-149.367 89.0916,-130.878"/>
<polygon fill="black" stroke="black" stroke-width="2" points="92.1258,-132.629 94.5313,-122.311 86.2164,-128.877 92.1258,-132.629"/>
</g>
<!-- 1&#45;&gt;7 -->
<g id="edge8" class="edge"><title>1&#45;&gt;7</title>
<path fill="none" stroke="black" stroke-width="2" d="M58.8145,-196.996C71.9791,-189.35 89.8672,-178.96 104.651,-170.373"/>
<polygon fill="black" stroke="black" stroke-width="2" points="106.496,-173.349 113.385,-165.3 102.98,-167.296 106.496,-173.349"/>
</g>
<!-- 2 -->
<g id="node3" class="node"><title>2</title>
<ellipse fill="cadetblue" stroke="black" cx="57.2936" cy="-21.2132" rx="21.4286" ry="21.4286"/>
<text text-anchor="middle" x="57.2936" y="-16.2132" font-family="Times New Roman,serif" font-size="20.00">2</text>
</g>
<!-- 2&#45;&gt;6 -->
<g id="edge11" class="edge"><title>2&#45;&gt;6</title>
<path fill="none" stroke="black" stroke-width="2" d="M68.1218,-39.6118C74.5649,-50.5595 82.8594,-64.6528 90.0509,-76.8722"/>
<polygon fill="black" stroke="black" stroke-width="2" points="87.1978,-78.925 95.2863,-85.7679 93.2305,-75.3744 87.1978,-78.925"/>
</g>
<!-- 3 -->
<g id="node4" class="node"><title>3</title>
<ellipse fill="cadetblue" stroke="black" cx="120.848" cy="-215.816" rx="21.4286" ry="21.4286"/>
<text text-anchor="middle" x="120.848" y="-210.816" font-family="Times New Roman,serif" font-size="20.00">2</text>
</g>
<!-- 3&#45;&gt;0 -->
<g id="edge1" class="edge"><title>3&#45;&gt;0</title>
<path fill="none" stroke="black" stroke-width="2" d="M137.496,-201.893C151.443,-190.229 171.54,-173.422 187.29,-160.25"/>
<polygon fill="black" stroke="black" stroke-width="2" points="189.649,-162.84 195.075,-153.74 185.159,-157.47 189.649,-162.84"/>
</g>
<!-- 3&#45;&gt;1 -->
<g id="edge5" class="edge"><title>3&#45;&gt;1</title>
<path fill="none" stroke="black" stroke-width="2" d="M99.6776,-213.701C91.1404,-212.848 81.1123,-211.846 71.7514,-210.911"/>
<polygon fill="black" stroke="black" stroke-width="2" points="71.8795,-207.406 61.581,-209.895 71.1835,-214.372 71.8795,-207.406"/>
</g>
<!-- 5 -->
<g id="node6" class="node"><title>5</title>
<ellipse fill="cadetblue" stroke="black" cx="21.2132" cy="-130.816" rx="21.4286" ry="21.4286"/>
<text text-anchor="middle" x="21.2132" y="-125.816" font-family="Times New Roman,serif" font-size="20.00">2</text>
</g>
<!-- 3&#45;&gt;5 -->
<g id="edge12" class="edge"><title>3&#45;&gt;5</title>
<path fill="none" stroke="black" stroke-width="2" d="M104.395,-201.78C88.2904,-188.041 63.5761,-166.956 45.2672,-151.337"/>
<polygon fill="black" stroke="black" stroke-width="2" points="47.239,-148.418 37.3597,-144.591 42.6958,-153.744 47.239,-148.418"/>
</g>
<!-- 4 -->
<g id="node5" class="node"><title>4</title>
<ellipse fill="cadetblue" stroke="black" cx="168.854" cy="-44.0529" rx="21.4286" ry="21.4286"/>
<text text-anchor="middle" x="168.854" y="-39.0529" font-family="Times New Roman,serif" font-size="20.00">2</text>
</g>
<!-- 4&#45;&gt;0 -->
<g id="edge2" class="edge"><title>4&#45;&gt;0</title>
<path fill="none" stroke="black" stroke-width="2" d="M177.508,-63.4499C183.554,-77.0019 191.735,-95.3389 198.569,-110.658"/>
<polygon fill="black" stroke="black" stroke-width="2" points="195.559,-112.501 202.83,-120.208 201.952,-109.649 195.559,-112.501"/>
</g>
<!-- 4&#45;&gt;2 -->
<g id="edge9" class="edge"><title>4&#45;&gt;2</title>
<path fill="none" stroke="black" stroke-width="2" d="M147.87,-39.7569C131.041,-36.3116 107.177,-31.4258 88.1684,-27.5342"/>
<polygon fill="black" stroke="black" stroke-width="2" points="88.6819,-24.0668 78.1831,-25.4899 87.2779,-30.9246 88.6819,-24.0668"/>
</g>
<!-- 5&#45;&gt;1 -->
<g id="edge6" class="edge"><title>5&#45;&gt;1</title>
<path fill="none" stroke="black" stroke-width="2" d="M26.3207,-151.437C28.2862,-159.372 30.5741,-168.61 32.7218,-177.281"/>
<polygon fill="black" stroke="black" stroke-width="2" points="29.3492,-178.223 35.1508,-187.088 36.1439,-176.54 29.3492,-178.223"/>
</g>
<!-- 5&#45;&gt;2 -->
<g id="edge10" class="edge"><title>5&#45;&gt;2</title>
<path fill="none" stroke="black" stroke-width="2" d="M27.9151,-110.457C33.4084,-93.77 41.2605,-69.9174 47.4651,-51.0694"/>
<polygon fill="black" stroke="black" stroke-width="2" points="50.8252,-52.0557 50.6276,-41.4627 44.1762,-49.8669 50.8252,-52.0557"/>
</g>
<!-- 6&#45;&gt;3 -->
<g id="edge13" class="edge"><title>6&#45;&gt;3</title>
<path fill="none" stroke="black" stroke-width="2" d="M104.675,-125.775C104.404,-134.711 104.49,-145.154 105.595,-154.545 106.803,-164.807 109.189,-175.818 111.722,-185.636"/>
<polygon fill="black" stroke="black" stroke-width="2" points="108.364,-186.627 114.371,-195.354 115.117,-184.786 108.364,-186.627"/>
</g>
<!-- 6&#45;&gt;4 -->
<g id="edge15" class="edge"><title>6&#45;&gt;4</title>
<path fill="none" stroke="black" stroke-width="2" d="M121.6,-89.2683C128.973,-82.2131 137.932,-73.6406 146.059,-65.8646"/>
<polygon fill="black" stroke="black" stroke-width="2" points="148.711,-68.1713 153.516,-58.7289 143.871,-63.1137 148.711,-68.1713"/>
</g>
<!-- 6&#45;&gt;7 -->
<g id="edge18" class="edge"><title>6&#45;&gt;7</title>
<path fill="none" stroke="black" stroke-width="2" d="M115.844,-123.181C116.358,-124.185 116.879,-125.203 117.404,-126.228"/>
<polygon fill="black" stroke="black" stroke-width="2" points="114.454,-128.147 122.126,-135.454 120.685,-124.957 114.454,-128.147"/>
</g>
<!-- 7&#45;&gt;3 -->
<g id="edge14" class="edge"><title>7&#45;&gt;3</title>
<path fill="none" stroke="black" stroke-width="2" d="M128.096,-175.632C127.552,-178.65 126.982,-181.806 126.413,-184.964"/>
<polygon fill="black" stroke="black" stroke-width="2" points="122.951,-184.437 124.621,-194.899 129.84,-185.679 122.951,-184.437"/>
</g>
<!-- 7&#45;&gt;4 -->
<g id="edge16" class="edge"><title>7&#45;&gt;4</title>
<path fill="none" stroke="black" stroke-width="2" d="M138.677,-134.28C144.329,-117.381 152.462,-93.0633 158.861,-73.9307"/>
<polygon fill="black" stroke="black" stroke-width="2" points="162.266,-74.7844 162.119,-64.1906 155.627,-72.5641 162.266,-74.7844"/>
</g>
<!-- 7&#45;&gt;5 -->
<g id="edge17" class="edge"><title>7&#45;&gt;5</title>
<path fill="none" stroke="black" stroke-width="2" d="M111.08,-150.083C94.4889,-146.526 71.0053,-141.491 52.2048,-137.46"/>
<polygon fill="black" stroke="black" stroke-width="2" points="52.8269,-134.014 42.3154,-135.34 51.3595,-140.859 52.8269,-134.014"/>
</g>
</g>
</svg>

