<?xml version="1.0" encoding="UTF-8" standalone="no"?>
<!DOCTYPE svg PUBLIC "-//W3C//DTD SVG 1.1//EN"
 "http://www.w3.org/Graphics/SVG/1.1/DTD/svg11.dtd">
<!-- Generated by graphviz version 2.36.0 (20140111.2315)
 -->
<!-- Title: G Pages: 1 -->
<svg width="100%" height="100%"
 viewBox="0.00 0.00 233.06 223.93" xmlns="http://www.w3.org/2000/svg" xmlns:xlink="http://www.w3.org/1999/xlink">
<g id="graph0" class="graph" transform="scale(1 1) rotate(0) translate(4 219.927)">
<title>G</title>
<!-- 0 -->
<g id="node1" class="node"><title>0</title>
<ellipse fill="cadetblue" stroke="black" cx="191.81" cy="-186.553" rx="21.4286" ry="21.4286"/>
<text text-anchor="middle" x="191.81" y="-181.553" font-family="Times New Roman,serif" font-size="20.00">2</text>
</g>
<!-- 6 -->
<g id="node7" class="node"><title>6</title>
<ellipse fill="brown" stroke="black" cx="130.469" cy="-194.714" rx="21.4286" ry="21.4286"/>
<text text-anchor="middle" x="130.469" y="-189.714" font-family="Times New Roman,serif" font-size="20.00">3</text>
</g>
<!-- 0&#45;&gt;6 -->
<g id="edge3" class="edge"><title>0&#45;&gt;6</title>
<path fill="none" stroke="black" stroke-width="2" d="M170.7,-189.361C167.841,-189.742 164.858,-190.139 161.867,-190.537"/>
<polygon fill="black" stroke="black" stroke-width="2" points="161.277,-187.084 151.826,-191.872 162.201,-194.023 161.277,-187.084"/>
</g>
<!-- 7 -->
<g id="node8" class="node"><title>7</title>
<ellipse fill="brown" stroke="black" cx="118.537" cy="-112.285" rx="21.4286" ry="21.4286"/>
<text text-anchor="middle" x="118.537" y="-107.285" font-family="Times New Roman,serif" font-size="20.00">3</text>
</g>
<!-- 0&#45;&gt;7 -->
<g id="edge4" class="edge"><title>0&#45;&gt;7</title>
<path fill="none" stroke="black" stroke-width="2" d="M176.628,-171.165C166.243,-160.639 152.308,-146.515 140.689,-134.738"/>
<polygon fill="black" stroke="black" stroke-width="2" points="142.964,-132.06 133.449,-127.4 137.981,-136.977 142.964,-132.06"/>
</g>
<!-- 1 -->
<g id="node2" class="node"><title>1</title>
<ellipse fill="cadetblue" stroke="black" cx="21.2132" cy="-146.922" rx="21.4286" ry="21.4286"/>
<text text-anchor="middle" x="21.2132" y="-141.922" font-family="Times New Roman,serif" font-size="20.00">2</text>
</g>
<!-- 1&#45;&gt;6 -->
<g id="edge7" class="edge"><title>1&#45;&gt;6</title>
<path fill="none" stroke="black" stroke-width="2" d="M42.4294,-150.238C56.6152,-153.073 75.3443,-158.04 90.2755,-166.292 95.2309,-169.031 100.313,-172.256 105.125,-175.532"/>
<polygon fill="black" stroke="black" stroke-width="2" points="103.223,-178.473 113.408,-181.389 107.264,-172.758 103.223,-178.473"/>
</g>
<!-- 1&#45;&gt;7 -->
<g id="edge8" class="edge"><title>1&#45;&gt;7</title>
<path fill="none" stroke="black" stroke-width="2" d="M41.3787,-139.746C55.0805,-134.869 73.4362,-128.336 88.8065,-122.866"/>
<polygon fill="black" stroke="black" stroke-width="2" points="90.1495,-126.103 98.397,-119.453 87.8023,-119.509 90.1495,-126.103"/>
</g>
<!-- 2 -->
<g id="node3" class="node"><title>2</title>
<ellipse fill="cadetblue" stroke="black" cx="138.926" cy="-21.2132" rx="21.4286" ry="21.4286"/>
<text text-anchor="middle" x="138.926" y="-16.2132" font-family="Times New Roman,serif" font-size="20.00">2</text>
</g>
<!-- 2&#45;&gt;7 -->
<g id="edge11" class="edge"><title>2&#45;&gt;7</title>
<path fill="none" stroke="black" stroke-width="2" d="M134.197,-42.3359C131.598,-53.9453 128.326,-68.5605 125.446,-81.4257"/>
<polygon fill="black" stroke="black" stroke-width="2" points="122.009,-80.7541 123.24,-91.2772 128.84,-82.2835 122.009,-80.7541"/>
</g>
<!-- 3 -->
<g id="node4" class="node"><title>3</title>
<ellipse fill="cadetblue" stroke="black" cx="71.6447" cy="-184.861" rx="21.4286" ry="21.4286"/>
<text text-anchor="middle" x="71.6447" y="-179.861" font-family="Times New Roman,serif" font-size="20.00">2</text>
</g>
<!-- 3&#45;&gt;0 -->
<g id="edge1" class="edge"><title>3&#45;&gt;0</title>
<path fill="none" stroke="black" stroke-width="2" d="M91.1534,-176.461C102.436,-172.356 117.027,-168.307 130.5,-168.41 141.323,-168.491 152.795,-171.143 162.852,-174.394"/>
<polygon fill="black" stroke="black" stroke-width="2" points="161.766,-177.723 172.36,-177.773 164.11,-171.127 161.766,-177.723"/>
</g>
<!-- 3&#45;&gt;1 -->
<g id="edge5" class="edge"><title>3&#45;&gt;1</title>
<path fill="none" stroke="black" stroke-width="2" d="M54.5709,-172.017C51.9419,-170.039 49.1807,-167.962 46.4197,-165.885"/>
<polygon fill="black" stroke="black" stroke-width="2" points="48.3647,-162.968 38.2694,-159.754 44.1565,-168.562 48.3647,-162.968"/>
</g>
<!-- 5 -->
<g id="node6" class="node"><title>5</title>
<ellipse fill="cadetblue" stroke="black" cx="45.9927" cy="-66.9932" rx="21.4286" ry="21.4286"/>
<text text-anchor="middle" x="45.9927" y="-61.9932" font-family="Times New Roman,serif" font-size="20.00">2</text>
</g>
<!-- 3&#45;&gt;5 -->
<g id="edge12" class="edge"><title>3&#45;&gt;5</title>
<path fill="none" stroke="black" stroke-width="2" d="M67.1176,-164.06C63.131,-145.742 57.2698,-118.811 52.732,-97.9597"/>
<polygon fill="black" stroke="black" stroke-width="2" points="56.1073,-97.0099 50.5607,-87.9829 49.2674,-98.4985 56.1073,-97.0099"/>
</g>
<!-- 4 -->
<g id="node5" class="node"><title>4</title>
<ellipse fill="cadetblue" stroke="black" cx="203.843" cy="-101.845" rx="21.4286" ry="21.4286"/>
<text text-anchor="middle" x="203.843" y="-96.8449" font-family="Times New Roman,serif" font-size="20.00">2</text>
</g>
<!-- 4&#45;&gt;0 -->
<g id="edge2" class="edge"><title>4&#45;&gt;0</title>
<path fill="none" stroke="black" stroke-width="2" d="M200.806,-123.22C199.428,-132.925 197.77,-144.595 196.255,-155.259"/>
<polygon fill="black" stroke="black" stroke-width="2" points="192.745,-155.085 194.804,-165.478 199.675,-156.069 192.745,-155.085"/>
</g>
<!-- 4&#45;&gt;2 -->
<g id="edge9" class="edge"><title>4&#45;&gt;2</title>
<path fill="none" stroke="black" stroke-width="2" d="M190.392,-85.138C181.253,-73.7862 169.009,-58.5786 158.757,-45.8444"/>
<polygon fill="black" stroke="black" stroke-width="2" points="161.357,-43.4931 152.36,-37.8987 155.905,-47.8829 161.357,-43.4931"/>
</g>
<!-- 5&#45;&gt;1 -->
<g id="edge6" class="edge"><title>5&#45;&gt;1</title>
<path fill="none" stroke="black" stroke-width="2" d="M39.6113,-87.577C36.8655,-96.4341 33.6001,-106.967 30.5879,-116.683"/>
<polygon fill="black" stroke="black" stroke-width="2" points="27.1911,-115.82 27.5729,-126.408 33.8771,-117.893 27.1911,-115.82"/>
</g>
<!-- 5&#45;&gt;2 -->
<g id="edge10" class="edge"><title>5&#45;&gt;2</title>
<path fill="none" stroke="black" stroke-width="2" d="M65.2486,-57.5076C78.3323,-51.0624 95.8601,-42.428 110.537,-35.198"/>
<polygon fill="black" stroke="black" stroke-width="2" points="112.271,-38.2455 119.695,-30.6867 109.178,-31.9661 112.271,-38.2455"/>
</g>
<!-- 6&#45;&gt;3 -->
<g id="edge13" class="edge"><title>6&#45;&gt;3</title>
<path fill="none" stroke="black" stroke-width="2" d="M109.232,-191.157C107.124,-190.804 104.955,-190.441 102.773,-190.075"/>
<polygon fill="black" stroke="black" stroke-width="2" points="103.094,-186.58 92.6533,-188.38 101.938,-193.484 103.094,-186.58"/>
</g>
<!-- 6&#45;&gt;4 -->
<g id="edge15" class="edge"><title>6&#45;&gt;4</title>
<path fill="none" stroke="black" stroke-width="2" d="M143.927,-177.68C155.201,-163.411 171.446,-142.849 184.178,-126.735"/>
<polygon fill="black" stroke="black" stroke-width="2" points="187.017,-128.787 190.47,-118.771 181.524,-124.447 187.017,-128.787"/>
</g>
<!-- 7&#45;&gt;3 -->
<g id="edge14" class="edge"><title>7&#45;&gt;3</title>
<path fill="none" stroke="black" stroke-width="2" d="M106.945,-130.226C101.478,-138.687 94.8443,-148.955 88.8096,-158.295"/>
<polygon fill="black" stroke="black" stroke-width="2" points="85.7523,-156.577 83.2651,-166.876 91.6318,-160.376 85.7523,-156.577"/>
</g>
<!-- 7&#45;&gt;4 -->
<g id="edge16" class="edge"><title>7&#45;&gt;4</title>
<path fill="none" stroke="black" stroke-width="2" d="M139.624,-109.705C149.569,-108.487 161.638,-107.01 172.616,-105.667"/>
<polygon fill="black" stroke="black" stroke-width="2" points="173.202,-109.121 182.703,-104.432 172.352,-102.173 173.202,-109.121"/>
</g>
<!-- 7&#45;&gt;5 -->
<g id="edge17" class="edge"><title>7&#45;&gt;5</title>
<path fill="none" stroke="black" stroke-width="2" d="M100.231,-100.856C91.92,-95.6675 81.9257,-89.4276 72.7928,-83.7257"/>
<polygon fill="black" stroke="black" stroke-width="2" points="74.3775,-80.5889 64.0414,-78.2618 70.6703,-86.5267 74.3775,-80.5889"/>
</g>
<!-- 7&#45;&gt;6 -->
<g id="edge18" class="edge"><title>7&#45;&gt;6</title>
<path fill="none" stroke="black" stroke-width="2" d="M121.61,-133.513C122.932,-142.647 124.504,-153.509 125.955,-163.529"/>
<polygon fill="black" stroke="black" stroke-width="2" points="122.51,-164.163 127.407,-173.558 129.438,-163.16 122.51,-164.163"/>
</g>
</g>
</svg>

