<?xml version="1.0" encoding="UTF-8" standalone="no"?>
<!DOCTYPE svg PUBLIC "-//W3C//DTD SVG 1.1//EN"
 "http://www.w3.org/Graphics/SVG/1.1/DTD/svg11.dtd">
<!-- Generated by graphviz version 2.36.0 (20140111.2315)
 -->
<!-- Title: G Pages: 1 -->
<svg width="100%" height="100%"
 viewBox="0.00 0.00 308.67 274.16" xmlns="http://www.w3.org/2000/svg" xmlns:xlink="http://www.w3.org/1999/xlink">
<g id="graph0" class="graph" transform="scale(1 1) rotate(0) translate(4 270.165)">
<title>G</title>
<!-- 0 -->
<g id="node1" class="node"><title>0</title>
<ellipse fill="cadetblue" stroke="black" cx="95.1956" cy="-114.658" rx="21.4286" ry="21.4286"/>
<text text-anchor="middle" x="95.1956" y="-109.658" font-family="Times New Roman,serif" font-size="20.00">2</text>
</g>
<!-- 5 -->
<g id="node6" class="node"><title>5</title>
<ellipse fill="cadetblue" stroke="black" cx="115.968" cy="-244.951" rx="21.4286" ry="21.4286"/>
<text text-anchor="middle" x="115.968" y="-239.951" font-family="Times New Roman,serif" font-size="20.00">2</text>
</g>
<!-- 0&#45;&gt;5 -->
<g id="edge3" class="edge"><title>0&#45;&gt;5</title>
<path fill="none" stroke="black" stroke-width="2" d="M98.5793,-135.881C101.944,-156.987 107.145,-189.605 110.982,-213.677"/>
<polygon fill="black" stroke="black" stroke-width="2" points="107.555,-214.412 112.586,-223.737 114.468,-213.31 107.555,-214.412"/>
</g>
<!-- 6 -->
<g id="node7" class="node"><title>6</title>
<ellipse fill="cadetblue" stroke="black" cx="114.342" cy="-21.2132" rx="21.4286" ry="21.4286"/>
<text text-anchor="middle" x="114.342" y="-16.2132" font-family="Times New Roman,serif" font-size="20.00">2</text>
</g>
<!-- 0&#45;&gt;6 -->
<g id="edge4" class="edge"><title>0&#45;&gt;6</title>
<path fill="none" stroke="black" stroke-width="2" d="M99.5401,-93.4536C102.055,-81.1814 105.263,-65.5209 108.05,-51.9202"/>
<polygon fill="black" stroke="black" stroke-width="2" points="111.502,-52.5104 110.08,-42.0114 104.644,-51.1053 111.502,-52.5104"/>
</g>
<!-- 7 -->
<g id="node8" class="node"><title>7</title>
<ellipse fill="brown" stroke="black" cx="197.735" cy="-22.9198" rx="21.4286" ry="21.4286"/>
<text text-anchor="middle" x="197.735" y="-17.9198" font-family="Times New Roman,serif" font-size="20.00">3</text>
</g>
<!-- 0&#45;&gt;7 -->
<g id="edge5" class="edge"><title>0&#45;&gt;7</title>
<path fill="none" stroke="black" stroke-width="2" d="M111.217,-100.324C128.148,-85.1761 155.019,-61.1358 174.323,-43.8652"/>
<polygon fill="black" stroke="black" stroke-width="2" points="176.707,-46.4292 181.826,-37.1531 172.039,-41.2123 176.707,-46.4292"/>
</g>
<!-- 1 -->
<g id="node2" class="node"><title>1</title>
<ellipse fill="cadetblue" stroke="black" cx="21.2132" cy="-150.573" rx="21.4286" ry="21.4286"/>
<text text-anchor="middle" x="21.2132" y="-145.573" font-family="Times New Roman,serif" font-size="20.00">2</text>
</g>
<!-- 1&#45;&gt;6 -->
<g id="edge8" class="edge"><title>1&#45;&gt;6</title>
<path fill="none" stroke="black" stroke-width="2" d="M33.7729,-133.127C49.7419,-110.945 77.443,-72.4671 95.8339,-46.9213"/>
<polygon fill="black" stroke="black" stroke-width="2" points="98.6813,-48.9566 101.684,-38.796 93.0004,-44.8667 98.6813,-48.9566"/>
</g>
<!-- 2 -->
<g id="node3" class="node"><title>2</title>
<ellipse fill="cadetblue" stroke="black" cx="279.454" cy="-34.3724" rx="21.4286" ry="21.4286"/>
<text text-anchor="middle" x="279.454" y="-29.3724" font-family="Times New Roman,serif" font-size="20.00">2</text>
</g>
<!-- 2&#45;&gt;7 -->
<g id="edge11" class="edge"><title>2&#45;&gt;7</title>
<path fill="none" stroke="black" stroke-width="2" d="M258.409,-31.4231C249.518,-30.1771 238.976,-28.6996 229.194,-27.3287"/>
<polygon fill="black" stroke="black" stroke-width="2" points="229.381,-23.8208 218.992,-25.8989 228.41,-30.753 229.381,-23.8208"/>
</g>
<!-- 3 -->
<g id="node4" class="node"><title>3</title>
<ellipse fill="cadetblue" stroke="black" cx="224.25" cy="-150.77" rx="21.4286" ry="21.4286"/>
<text text-anchor="middle" x="224.25" y="-145.77" font-family="Times New Roman,serif" font-size="20.00">2</text>
</g>
<!-- 3&#45;&gt;0 -->
<g id="edge1" class="edge"><title>3&#45;&gt;0</title>
<path fill="none" stroke="black" stroke-width="2" d="M203.801,-145.048C182.781,-139.166 149.807,-129.939 125.703,-123.194"/>
<polygon fill="black" stroke="black" stroke-width="2" points="126.55,-119.797 115.976,-120.472 124.663,-126.538 126.55,-119.797"/>
</g>
<!-- 3&#45;&gt;5 -->
<g id="edge12" class="edge"><title>3&#45;&gt;5</title>
<path fill="none" stroke="black" stroke-width="2" d="M207.804,-165.074C189.733,-180.793 160.538,-206.186 139.923,-224.116"/>
<polygon fill="black" stroke="black" stroke-width="2" points="137.462,-221.618 132.214,-230.821 142.056,-226.899 137.462,-221.618"/>
</g>
<!-- 4 -->
<g id="node5" class="node"><title>4</title>
<ellipse fill="cadetblue" stroke="black" cx="173.818" cy="-150.974" rx="21.4286" ry="21.4286"/>
<text text-anchor="middle" x="173.818" y="-145.974" font-family="Times New Roman,serif" font-size="20.00">2</text>
</g>
<!-- 4&#45;&gt;0 -->
<g id="edge2" class="edge"><title>4&#45;&gt;0</title>
<path fill="none" stroke="black" stroke-width="2" d="M154.383,-141.997C145.217,-137.763 134.094,-132.625 123.976,-127.951"/>
<polygon fill="black" stroke="black" stroke-width="2" points="125.225,-124.673 114.679,-123.657 122.29,-131.028 125.225,-124.673"/>
</g>
<!-- 4&#45;&gt;1 -->
<g id="edge6" class="edge"><title>4&#45;&gt;1</title>
<path fill="none" stroke="black" stroke-width="2" d="M152.599,-150.918C126.778,-150.85 82.9374,-150.735 53.0603,-150.657"/>
<polygon fill="black" stroke="black" stroke-width="2" points="52.7532,-147.156 42.744,-150.629 52.7348,-154.156 52.7532,-147.156"/>
</g>
<!-- 4&#45;&gt;2 -->
<g id="edge9" class="edge"><title>4&#45;&gt;2</title>
<path fill="none" stroke="black" stroke-width="2" d="M188.065,-135.248C206.1,-115.341 237.327,-80.8725 258.188,-57.846"/>
<polygon fill="black" stroke="black" stroke-width="2" points="260.975,-59.9819 265.096,-50.221 255.788,-55.2821 260.975,-59.9819"/>
</g>
<!-- 5&#45;&gt;1 -->
<g id="edge7" class="edge"><title>5&#45;&gt;1</title>
<path fill="none" stroke="black" stroke-width="2" d="M100.744,-229.788C85.2722,-214.377 61.138,-190.339 43.5112,-172.782"/>
<polygon fill="black" stroke="black" stroke-width="2" points="45.9546,-170.276 36.3995,-165.699 41.0147,-175.236 45.9546,-170.276"/>
</g>
<!-- 5&#45;&gt;4 -->
<g id="edge15" class="edge"><title>5&#45;&gt;4</title>
<path fill="none" stroke="black" stroke-width="2" d="M127.122,-226.832C135.631,-213.01 147.489,-193.747 157.126,-178.091"/>
<polygon fill="black" stroke="black" stroke-width="2" points="160.239,-179.709 162.501,-169.359 154.278,-176.04 160.239,-179.709"/>
</g>
<!-- 6&#45;&gt;2 -->
<g id="edge10" class="edge"><title>6&#45;&gt;2</title>
<path fill="none" stroke="black" stroke-width="2" d="M135.589,-22.9066C164.197,-25.1866 215.306,-29.2599 248.273,-31.8873"/>
<polygon fill="black" stroke="black" stroke-width="2" points="248.041,-35.3799 258.288,-32.6855 248.597,-28.402 248.041,-35.3799"/>
</g>
<!-- 6&#45;&gt;3 -->
<g id="edge13" class="edge"><title>6&#45;&gt;3</title>
<path fill="none" stroke="black" stroke-width="2" d="M128.262,-37.6217C147.338,-60.1089 181.742,-100.664 203.763,-126.621"/>
<polygon fill="black" stroke="black" stroke-width="2" points="201.305,-129.133 210.443,-134.495 206.643,-124.605 201.305,-129.133"/>
</g>
<!-- 6&#45;&gt;7 -->
<g id="edge17" class="edge"><title>6&#45;&gt;7</title>
<path fill="none" stroke="black" stroke-width="2" d="M135.818,-21.6527C145.058,-21.8418 156.048,-22.0667 166.185,-22.2741"/>
<polygon fill="black" stroke="black" stroke-width="2" points="166.262,-25.7763 176.332,-22.4818 166.406,-18.7778 166.262,-25.7763"/>
</g>
<!-- 7&#45;&gt;3 -->
<g id="edge14" class="edge"><title>7&#45;&gt;3</title>
<path fill="none" stroke="black" stroke-width="2" d="M202.054,-43.7457C206.349,-64.4556 212.987,-96.4621 217.885,-120.082"/>
<polygon fill="black" stroke="black" stroke-width="2" points="214.475,-120.872 219.932,-129.953 221.329,-119.451 214.475,-120.872"/>
</g>
<!-- 7&#45;&gt;4 -->
<g id="edge16" class="edge"><title>7&#45;&gt;4</title>
<path fill="none" stroke="black" stroke-width="2" d="M193.839,-43.7788C189.988,-64.3982 184.049,-96.1979 179.638,-119.813"/>
<polygon fill="black" stroke="black" stroke-width="2" points="176.188,-119.224 177.792,-129.697 183.069,-120.509 176.188,-119.224"/>
</g>
</g>
</svg>

