<?xml version="1.0" encoding="UTF-8" standalone="no"?>
<!DOCTYPE svg PUBLIC "-//W3C//DTD SVG 1.1//EN"
 "http://www.w3.org/Graphics/SVG/1.1/DTD/svg11.dtd">
<!-- Generated by graphviz version 2.36.0 (20140111.2315)
 -->
<!-- Title: G Pages: 1 -->
<svg width="100%" height="100%"
 viewBox="0.00 0.00 216.34 217.74" xmlns="http://www.w3.org/2000/svg" xmlns:xlink="http://www.w3.org/1999/xlink">
<g id="graph0" class="graph" transform="scale(1 1) rotate(0) translate(4 213.745)">
<title>G</title>
<!-- 0 -->
<g id="node1" class="node"><title>0</title>
<ellipse fill="cadetblue" stroke="black" cx="105.656" cy="-71.6447" rx="21.4286" ry="21.4286"/>
<text text-anchor="middle" x="105.656" y="-66.6447" font-family="Times New Roman,serif" font-size="20.00">2</text>
</g>
<!-- 5 -->
<g id="node6" class="node"><title>5</title>
<ellipse fill="cadetblue" stroke="black" cx="21.2132" cy="-126.653" rx="21.4286" ry="21.4286"/>
<text text-anchor="middle" x="21.2132" y="-121.653" font-family="Times New Roman,serif" font-size="20.00">2</text>
</g>
<!-- 0&#45;&gt;5 -->
<g id="edge3" class="edge"><title>0&#45;&gt;5</title>
<path fill="none" stroke="black" stroke-width="2" d="M87.748,-83.3106C76.1047,-90.8954 60.7193,-100.918 47.6763,-109.415"/>
<polygon fill="black" stroke="black" stroke-width="2" points="45.5641,-106.613 39.0956,-115.004 49.385,-112.479 45.5641,-106.613"/>
</g>
<!-- 6 -->
<g id="node7" class="node"><title>6</title>
<ellipse fill="brown" stroke="black" cx="187.126" cy="-83.2919" rx="21.4286" ry="21.4286"/>
<text text-anchor="middle" x="187.126" y="-78.2919" font-family="Times New Roman,serif" font-size="20.00">3</text>
</g>
<!-- 0&#45;&gt;6 -->
<g id="edge4" class="edge"><title>0&#45;&gt;6</title>
<path fill="none" stroke="black" stroke-width="2" d="M127.061,-74.7048C135.855,-75.962 146.214,-77.4429 155.83,-78.8177"/>
<polygon fill="black" stroke="black" stroke-width="2" points="155.469,-82.3016 165.864,-80.2521 156.46,-75.372 155.469,-82.3016"/>
</g>
<!-- 7 -->
<g id="node8" class="node"><title>7</title>
<ellipse fill="brown" stroke="black" cx="27.1257" cy="-66.5342" rx="21.4286" ry="21.4286"/>
<text text-anchor="middle" x="27.1257" y="-61.5342" font-family="Times New Roman,serif" font-size="20.00">3</text>
</g>
<!-- 0&#45;&gt;7 -->
<g id="edge5" class="edge"><title>0&#45;&gt;7</title>
<path fill="none" stroke="black" stroke-width="2" d="M84.1974,-70.2482C76.3197,-69.7355 67.2288,-69.1439 58.651,-68.5857"/>
<polygon fill="black" stroke="black" stroke-width="2" points="58.7648,-65.0858 48.5586,-67.929 58.3102,-72.0711 58.7648,-65.0858"/>
</g>
<!-- 1 -->
<g id="node2" class="node"><title>1</title>
<ellipse fill="cadetblue" stroke="black" cx="100.086" cy="-137.372" rx="21.4286" ry="21.4286"/>
<text text-anchor="middle" x="100.086" y="-132.372" font-family="Times New Roman,serif" font-size="20.00">2</text>
</g>
<!-- 1&#45;&gt;5 -->
<g id="edge8" class="edge"><title>1&#45;&gt;5</title>
<path fill="none" stroke="black" stroke-width="2" d="M78.9496,-134.5C70.8159,-133.394 61.3477,-132.108 52.46,-130.9"/>
<polygon fill="black" stroke="black" stroke-width="2" points="52.7883,-127.412 42.408,-129.534 51.8456,-134.349 52.7883,-127.412"/>
</g>
<!-- 1&#45;&gt;6 -->
<g id="edge9" class="edge"><title>1&#45;&gt;6</title>
<path fill="none" stroke="black" stroke-width="2" d="M118.121,-126.167C130.293,-118.604 146.572,-108.489 160.262,-99.9832"/>
<polygon fill="black" stroke="black" stroke-width="2" points="162.168,-102.92 168.815,-94.669 158.474,-96.9737 162.168,-102.92"/>
</g>
<!-- 1&#45;&gt;7 -->
<g id="edge10" class="edge"><title>1&#45;&gt;7</title>
<path fill="none" stroke="black" stroke-width="2" d="M84.6131,-122.349C74.553,-112.582 61.2597,-99.6752 49.9904,-88.7337"/>
<polygon fill="black" stroke="black" stroke-width="2" points="52.1892,-85.9903 42.5765,-81.5354 47.313,-91.0126 52.1892,-85.9903"/>
</g>
<!-- 2 -->
<g id="node3" class="node"><title>2</title>
<ellipse fill="brown" stroke="black" cx="114.853" cy="-21.2132" rx="21.4286" ry="21.4286"/>
<text text-anchor="middle" x="114.853" y="-16.2132" font-family="Times New Roman,serif" font-size="20.00">3</text>
</g>
<!-- 2&#45;&gt;0 -->
<g id="edge1" class="edge"><title>2&#45;&gt;0</title>
<path fill="none" stroke="black" stroke-width="2" d="M111.006,-42.3085C110.991,-42.3928 110.975,-42.4772 110.96,-42.5617"/>
<polygon fill="black" stroke="black" stroke-width="2" points="107.868,-40.0061 109.517,-50.4718 114.755,-41.262 107.868,-40.0061"/>
</g>
<!-- 2&#45;&gt;6 -->
<g id="edge13" class="edge"><title>2&#45;&gt;6</title>
<path fill="none" stroke="black" stroke-width="2" d="M131.253,-35.2998C140.678,-43.3957 152.688,-53.7112 163.155,-62.7023"/>
<polygon fill="black" stroke="black" stroke-width="2" points="160.925,-65.4002 170.791,-69.261 165.486,-60.0901 160.925,-65.4002"/>
</g>
<!-- 3 -->
<g id="node4" class="node"><title>3</title>
<ellipse fill="brown" stroke="black" cx="97.1426" cy="-188.531" rx="21.4286" ry="21.4286"/>
<text text-anchor="middle" x="97.1426" y="-183.531" font-family="Times New Roman,serif" font-size="20.00">3</text>
</g>
<!-- 3&#45;&gt;1 -->
<g id="edge6" class="edge"><title>3&#45;&gt;1</title>
<path fill="none" stroke="black" stroke-width="2" d="M98.3739,-167.132C98.3788,-167.046 98.3837,-166.961 98.3886,-166.875"/>
<polygon fill="black" stroke="black" stroke-width="2" points="101.77,-169.035 98.8503,-158.851 94.7816,-168.633 101.77,-169.035"/>
</g>
<!-- 4 -->
<g id="node5" class="node"><title>4</title>
<ellipse fill="cadetblue" stroke="black" cx="181.399" cy="-142.189" rx="21.4286" ry="21.4286"/>
<text text-anchor="middle" x="181.399" y="-137.189" font-family="Times New Roman,serif" font-size="20.00">2</text>
</g>
<!-- 3&#45;&gt;4 -->
<g id="edge15" class="edge"><title>3&#45;&gt;4</title>
<path fill="none" stroke="black" stroke-width="2" d="M115.842,-178.247C126.968,-172.127 141.292,-164.249 153.711,-157.418"/>
<polygon fill="black" stroke="black" stroke-width="2" points="155.677,-160.332 162.752,-152.445 152.303,-154.198 155.677,-160.332"/>
</g>
<!-- 4&#45;&gt;0 -->
<g id="edge2" class="edge"><title>4&#45;&gt;0</title>
<path fill="none" stroke="black" stroke-width="2" d="M165.705,-127.572C155.042,-117.641 140.756,-104.336 128.794,-93.1945"/>
<polygon fill="black" stroke="black" stroke-width="2" points="131.033,-90.4972 121.33,-86.2428 126.262,-95.6196 131.033,-90.4972"/>
</g>
<!-- 4&#45;&gt;1 -->
<g id="edge7" class="edge"><title>4&#45;&gt;1</title>
<path fill="none" stroke="black" stroke-width="2" d="M160.035,-140.924C151.258,-140.404 140.919,-139.791 131.322,-139.223"/>
<polygon fill="black" stroke="black" stroke-width="2" points="131.497,-135.727 121.308,-138.629 131.083,-142.715 131.497,-135.727"/>
</g>
<!-- 4&#45;&gt;2 -->
<g id="edge11" class="edge"><title>4&#45;&gt;2</title>
<path fill="none" stroke="black" stroke-width="2" d="M171.147,-123.552C160.188,-103.629 142.694,-71.8267 130.116,-48.9595"/>
<polygon fill="black" stroke="black" stroke-width="2" points="133.113,-47.1461 125.226,-40.0711 126.98,-50.5199 133.113,-47.1461"/>
</g>
<!-- 5&#45;&gt;2 -->
<g id="edge12" class="edge"><title>5&#45;&gt;2</title>
<path fill="none" stroke="black" stroke-width="2" d="M35.4351,-110.639C50.9727,-93.1437 76.0188,-64.9414 93.8273,-44.8887"/>
<polygon fill="black" stroke="black" stroke-width="2" points="96.4741,-47.1792 100.497,-37.378 91.2402,-42.531 96.4741,-47.1792"/>
</g>
<!-- 5&#45;&gt;3 -->
<g id="edge16" class="edge"><title>5&#45;&gt;3</title>
<path fill="none" stroke="black" stroke-width="2" d="M37.6888,-140.08C47.867,-148.375 61.1178,-159.173 72.526,-168.47"/>
<polygon fill="black" stroke="black" stroke-width="2" points="70.474,-171.313 80.437,-174.917 74.8962,-165.887 70.474,-171.313"/>
</g>
<!-- 5&#45;&gt;7 -->
<g id="edge20" class="edge"><title>5&#45;&gt;7</title>
<path fill="none" stroke="black" stroke-width="2" d="M23.3144,-105.288C23.5496,-102.896 23.7928,-100.424 24.0372,-97.9392"/>
<polygon fill="black" stroke="black" stroke-width="2" points="27.5357,-98.125 25.0313,-87.8304 20.5693,-97.4398 27.5357,-98.125"/>
</g>
<!-- 6&#45;&gt;3 -->
<g id="edge17" class="edge"><title>6&#45;&gt;3</title>
<path fill="none" stroke="black" stroke-width="2" d="M173.066,-99.7356C158.208,-117.112 134.628,-144.691 117.688,-164.503"/>
<polygon fill="black" stroke="black" stroke-width="2" points="114.942,-162.328 111.104,-172.203 120.263,-166.877 114.942,-162.328"/>
</g>
<!-- 6&#45;&gt;4 -->
<g id="edge19" class="edge"><title>6&#45;&gt;4</title>
<path fill="none" stroke="black" stroke-width="2" d="M185.059,-104.555C184.866,-106.532 184.669,-108.563 184.47,-110.607"/>
<polygon fill="black" stroke="black" stroke-width="2" points="180.967,-110.468 183.483,-120.759 187.934,-111.145 180.967,-110.468"/>
</g>
<!-- 7&#45;&gt;2 -->
<g id="edge14" class="edge"><title>7&#45;&gt;2</title>
<path fill="none" stroke="black" stroke-width="2" d="M46.1613,-56.7002C58.0021,-50.5831 73.4421,-42.6066 86.684,-35.7657"/>
<polygon fill="black" stroke="black" stroke-width="2" points="88.5768,-38.7274 95.8548,-31.028 85.3639,-32.5083 88.5768,-38.7274"/>
</g>
<!-- 7&#45;&gt;3 -->
<g id="edge18" class="edge"><title>7&#45;&gt;3</title>
<path fill="none" stroke="black" stroke-width="2" d="M37.7598,-85.063C49.3776,-105.306 68.1052,-137.937 81.4211,-161.138"/>
<polygon fill="black" stroke="black" stroke-width="2" points="78.3952,-162.897 86.4085,-169.828 84.4663,-159.413 78.3952,-162.897"/>
</g>
</g>
</svg>

