<?xml version="1.0" encoding="UTF-8" standalone="no"?>
<!DOCTYPE svg PUBLIC "-//W3C//DTD SVG 1.1//EN"
 "http://www.w3.org/Graphics/SVG/1.1/DTD/svg11.dtd">
<!-- Generated by graphviz version 2.36.0 (20140111.2315)
 -->
<!-- Title: G Pages: 1 -->
<svg width="100%" height="100%"
 viewBox="0.00 0.00 215.14 229.08" xmlns="http://www.w3.org/2000/svg" xmlns:xlink="http://www.w3.org/1999/xlink">
<g id="graph0" class="graph" transform="scale(1 1) rotate(0) translate(4 225.077)">
<title>G</title>
<!-- 0 -->
<g id="node1" class="node"><title>0</title>
<ellipse fill="brown" stroke="black" cx="69.3051" cy="-49.3691" rx="21.4286" ry="21.4286"/>
<text text-anchor="middle" x="69.3051" y="-44.3691" font-family="Times New Roman,serif" font-size="20.00">3</text>
</g>
<!-- 5 -->
<g id="node6" class="node"><title>5</title>
<ellipse fill="cadetblue" stroke="black" cx="21.2132" cy="-146.602" rx="21.4286" ry="21.4286"/>
<text text-anchor="middle" x="21.2132" y="-141.602" font-family="Times New Roman,serif" font-size="20.00">2</text>
</g>
<!-- 0&#45;&gt;5 -->
<g id="edge3" class="edge"><title>0&#45;&gt;5</title>
<path fill="none" stroke="black" stroke-width="2" d="M59.8037,-68.5793C52.8217,-82.6957 43.219,-102.111 35.3395,-118.041"/>
<polygon fill="black" stroke="black" stroke-width="2" points="31.9911,-116.917 30.6949,-127.432 38.2656,-120.02 31.9911,-116.917"/>
</g>
<!-- 7 -->
<g id="node8" class="node"><title>7</title>
<ellipse fill="cadetblue" stroke="black" cx="72.5906" cy="-112.775" rx="21.4286" ry="21.4286"/>
<text text-anchor="middle" x="72.5906" y="-107.775" font-family="Times New Roman,serif" font-size="20.00">2</text>
</g>
<!-- 0&#45;&gt;7 -->
<g id="edge5" class="edge"><title>0&#45;&gt;7</title>
<path fill="none" stroke="black" stroke-width="2" d="M70.4174,-70.8353C70.5887,-74.1406 70.7686,-77.6121 70.9485,-81.0835"/>
<polygon fill="black" stroke="black" stroke-width="2" points="67.4666,-81.5251 71.4794,-91.3305 74.4572,-81.1628 67.4666,-81.5251"/>
</g>
<!-- 1 -->
<g id="node2" class="node"><title>1</title>
<ellipse fill="brown" stroke="black" cx="76.0473" cy="-199.864" rx="21.4286" ry="21.4286"/>
<text text-anchor="middle" x="76.0473" y="-194.864" font-family="Times New Roman,serif" font-size="20.00">3</text>
</g>
<!-- 3 -->
<g id="node4" class="node"><title>3</title>
<ellipse fill="cadetblue" stroke="black" cx="137.551" cy="-175.079" rx="21.4286" ry="21.4286"/>
<text text-anchor="middle" x="137.551" y="-170.079" font-family="Times New Roman,serif" font-size="20.00">2</text>
</g>
<!-- 1&#45;&gt;3 -->
<g id="edge6" class="edge"><title>1&#45;&gt;3</title>
<path fill="none" stroke="black" stroke-width="2" d="M95.846,-191.885C99.7966,-190.293 104.025,-188.589 108.217,-186.9"/>
<polygon fill="black" stroke="black" stroke-width="2" points="109.822,-190.026 117.789,-183.042 107.206,-183.534 109.822,-190.026"/>
</g>
<!-- 2 -->
<g id="node3" class="node"><title>2</title>
<ellipse fill="cadetblue" stroke="black" cx="130.243" cy="-21.2132" rx="21.4286" ry="21.4286"/>
<text text-anchor="middle" x="130.243" y="-16.2132" font-family="Times New Roman,serif" font-size="20.00">2</text>
</g>
<!-- 2&#45;&gt;0 -->
<g id="edge1" class="edge"><title>2&#45;&gt;0</title>
<path fill="none" stroke="black" stroke-width="2" d="M110.962,-30.1219C106.85,-32.022 102.422,-34.068 98.0413,-36.0918"/>
<polygon fill="black" stroke="black" stroke-width="2" points="96.2799,-33.0501 88.6701,-40.4217 99.216,-39.4046 96.2799,-33.0501"/>
</g>
<!-- 6 -->
<g id="node7" class="node"><title>6</title>
<ellipse fill="cadetblue" stroke="black" cx="185.926" cy="-75.7935" rx="21.4286" ry="21.4286"/>
<text text-anchor="middle" x="185.926" y="-70.7935" font-family="Times New Roman,serif" font-size="20.00">2</text>
</g>
<!-- 2&#45;&gt;6 -->
<g id="edge11" class="edge"><title>2&#45;&gt;6</title>
<path fill="none" stroke="black" stroke-width="2" d="M145.459,-36.1275C150.983,-41.5425 157.349,-47.7823 163.372,-53.6861"/>
<polygon fill="black" stroke="black" stroke-width="2" points="161.137,-56.3966 170.729,-60.8972 166.037,-51.3976 161.137,-56.3966"/>
</g>
<!-- 3&#45;&gt;5 -->
<g id="edge13" class="edge"><title>3&#45;&gt;5</title>
<path fill="none" stroke="black" stroke-width="2" d="M116.752,-169.988C98.637,-165.554 72.1364,-159.067 51.6381,-154.049"/>
<polygon fill="black" stroke="black" stroke-width="2" points="52.3774,-150.627 41.832,-151.649 50.7131,-157.426 52.3774,-150.627"/>
</g>
<!-- 3&#45;&gt;6 -->
<g id="edge14" class="edge"><title>3&#45;&gt;6</title>
<path fill="none" stroke="black" stroke-width="2" d="M146.878,-155.936C154.039,-141.239 164.037,-120.719 172.123,-104.123"/>
<polygon fill="black" stroke="black" stroke-width="2" points="175.394,-105.401 176.627,-94.8779 169.101,-102.335 175.394,-105.401"/>
</g>
<!-- 4 -->
<g id="node5" class="node"><title>4</title>
<ellipse fill="cadetblue" stroke="black" cx="135.494" cy="-107.997" rx="21.4286" ry="21.4286"/>
<text text-anchor="middle" x="135.494" y="-102.997" font-family="Times New Roman,serif" font-size="20.00">2</text>
</g>
<!-- 4&#45;&gt;0 -->
<g id="edge2" class="edge"><title>4&#45;&gt;0</title>
<path fill="none" stroke="black" stroke-width="2" d="M119.472,-93.8052C111.621,-86.8516 102.006,-78.3347 93.3014,-70.6243"/>
<polygon fill="black" stroke="black" stroke-width="2" points="95.4464,-67.8486 85.64,-63.838 90.805,-73.0886 95.4464,-67.8486"/>
</g>
<!-- 4&#45;&gt;1 -->
<g id="edge7" class="edge"><title>4&#45;&gt;1</title>
<path fill="none" stroke="black" stroke-width="2" d="M123.749,-126.147C115.037,-139.61 103.025,-158.174 93.2339,-173.305"/>
<polygon fill="black" stroke="black" stroke-width="2" points="90.2621,-171.455 87.7677,-181.752 96.139,-175.258 90.2621,-171.455"/>
</g>
<!-- 4&#45;&gt;2 -->
<g id="edge10" class="edge"><title>4&#45;&gt;2</title>
<path fill="none" stroke="black" stroke-width="2" d="M134.196,-86.5452C133.579,-76.3511 132.83,-63.9647 132.15,-52.7292"/>
<polygon fill="black" stroke="black" stroke-width="2" points="135.624,-52.1891 131.526,-42.4187 128.637,-52.6119 135.624,-52.1891"/>
</g>
<!-- 5&#45;&gt;1 -->
<g id="edge8" class="edge"><title>5&#45;&gt;1</title>
<path fill="none" stroke="black" stroke-width="2" d="M36.4876,-161.439C41.6292,-166.433 47.4847,-172.12 53.0855,-177.56"/>
<polygon fill="black" stroke="black" stroke-width="2" points="50.862,-180.28 60.4739,-184.737 55.7393,-175.259 50.862,-180.28"/>
</g>
<!-- 5&#45;&gt;7 -->
<g id="edge18" class="edge"><title>5&#45;&gt;7</title>
<path fill="none" stroke="black" stroke-width="2" d="M39.1825,-134.771C41.36,-133.337 43.6191,-131.85 45.8888,-130.355"/>
<polygon fill="black" stroke="black" stroke-width="2" points="48.1171,-133.079 54.5446,-124.656 44.2676,-127.232 48.1171,-133.079"/>
</g>
<!-- 6&#45;&gt;0 -->
<g id="edge4" class="edge"><title>6&#45;&gt;0</title>
<path fill="none" stroke="black" stroke-width="2" d="M165.076,-71.0693C147.029,-66.9801 120.68,-61.0098 100.185,-56.3661"/>
<polygon fill="black" stroke="black" stroke-width="2" points="100.894,-52.9379 90.3673,-54.1415 99.3466,-59.7648 100.894,-52.9379"/>
</g>
<!-- 6&#45;&gt;4 -->
<g id="edge16" class="edge"><title>6&#45;&gt;4</title>
<path fill="none" stroke="black" stroke-width="2" d="M168.004,-87.2381C166.117,-88.4426 164.171,-89.6851 162.213,-90.9354"/>
<polygon fill="black" stroke="black" stroke-width="2" points="160.243,-88.0406 153.699,-96.3725 164.011,-93.9404 160.243,-88.0406"/>
</g>
<!-- 7&#45;&gt;1 -->
<g id="edge9" class="edge"><title>7&#45;&gt;1</title>
<path fill="none" stroke="black" stroke-width="2" d="M73.4451,-134.302C73.8553,-144.638 74.3546,-157.219 74.8058,-168.585"/>
<polygon fill="black" stroke="black" stroke-width="2" points="71.3087,-168.73 75.2027,-178.584 78.3032,-168.453 71.3087,-168.73"/>
</g>
<!-- 7&#45;&gt;2 -->
<g id="edge12" class="edge"><title>7&#45;&gt;2</title>
<path fill="none" stroke="black" stroke-width="2" d="M83.9809,-94.685C92.351,-81.392 103.863,-63.1096 113.309,-48.108"/>
<polygon fill="black" stroke="black" stroke-width="2" points="116.51,-49.5924 118.877,-39.2652 110.586,-45.8625 116.51,-49.5924"/>
</g>
<!-- 7&#45;&gt;3 -->
<g id="edge15" class="edge"><title>7&#45;&gt;3</title>
<path fill="none" stroke="black" stroke-width="2" d="M87.9853,-127.54C95.8783,-135.11 105.653,-144.485 114.431,-152.904"/>
<polygon fill="black" stroke="black" stroke-width="2" points="112.176,-155.591 121.816,-159.987 117.021,-150.539 112.176,-155.591"/>
</g>
<!-- 7&#45;&gt;4 -->
<g id="edge17" class="edge"><title>7&#45;&gt;4</title>
<path fill="none" stroke="black" stroke-width="2" d="M93.8869,-111.157C97.166,-110.908 100.61,-110.647 104.054,-110.385"/>
<polygon fill="black" stroke="black" stroke-width="2" points="104.514,-113.86 114.22,-109.613 103.984,-106.881 104.514,-113.86"/>
</g>
</g>
</svg>

