<?xml version="1.0" encoding="UTF-8" standalone="no"?>
<!DOCTYPE svg PUBLIC "-//W3C//DTD SVG 1.1//EN"
 "http://www.w3.org/Graphics/SVG/1.1/DTD/svg11.dtd">
<!-- Generated by graphviz version 2.36.0 (20140111.2315)
 -->
<!-- Title: G Pages: 1 -->
<svg width="100%" height="100%"
 viewBox="0.00 0.00 258.26 244.59" xmlns="http://www.w3.org/2000/svg" xmlns:xlink="http://www.w3.org/1999/xlink">
<g id="graph0" class="graph" transform="scale(1 1) rotate(0) translate(4 240.592)">
<title>G</title>
<!-- 0 -->
<g id="node1" class="node"><title>0</title>
<ellipse fill="cadetblue" stroke="black" cx="115.119" cy="-57.4691" rx="21.4286" ry="21.4286"/>
<text text-anchor="middle" x="115.119" y="-52.4691" font-family="Times New Roman,serif" font-size="20.00">2</text>
</g>
<!-- 5 -->
<g id="node6" class="node"><title>5</title>
<ellipse fill="cadetblue" stroke="black" cx="21.2132" cy="-149.365" rx="21.4286" ry="21.4286"/>
<text text-anchor="middle" x="21.2132" y="-144.365" font-family="Times New Roman,serif" font-size="20.00">2</text>
</g>
<!-- 0&#45;&gt;5 -->
<g id="edge3" class="edge"><title>0&#45;&gt;5</title>
<path fill="none" stroke="black" stroke-width="2" d="M105.776,-76.7508C99.5712,-88.2107 90.6244,-102.513 80.0009,-113.03 71.0979,-121.844 59.6777,-129.513 49.2748,-135.504"/>
<polygon fill="black" stroke="black" stroke-width="2" points="47.5695,-132.447 40.4835,-140.324 50.9347,-138.585 47.5695,-132.447"/>
</g>
<!-- 6 -->
<g id="node7" class="node"><title>6</title>
<ellipse fill="brown" stroke="black" cx="185.416" cy="-141.037" rx="21.4286" ry="21.4286"/>
<text text-anchor="middle" x="185.416" y="-136.037" font-family="Times New Roman,serif" font-size="20.00">3</text>
</g>
<!-- 0&#45;&gt;6 -->
<g id="edge4" class="edge"><title>0&#45;&gt;6</title>
<path fill="none" stroke="black" stroke-width="2" d="M129.007,-73.9795C139.309,-86.2265 153.515,-103.114 165.093,-116.877"/>
<polygon fill="black" stroke="black" stroke-width="2" points="162.441,-119.162 171.556,-124.561 167.797,-114.656 162.441,-119.162"/>
</g>
<!-- 7 -->
<g id="node8" class="node"><title>7</title>
<ellipse fill="brown" stroke="black" cx="61.4018" cy="-94.4295" rx="21.4286" ry="21.4286"/>
<text text-anchor="middle" x="61.4018" y="-89.4295" font-family="Times New Roman,serif" font-size="20.00">3</text>
</g>
<!-- 0&#45;&gt;7 -->
<g id="edge5" class="edge"><title>0&#45;&gt;7</title>
<path fill="none" stroke="black" stroke-width="2" d="M97.5298,-69.5713C94.317,-71.7819 90.9025,-74.1312 87.5042,-76.4695"/>
<polygon fill="black" stroke="black" stroke-width="2" points="85.4685,-73.6217 79.2141,-82.1735 89.4364,-79.3885 85.4685,-73.6217"/>
</g>
<!-- 1 -->
<g id="node2" class="node"><title>1</title>
<ellipse fill="cadetblue" stroke="black" cx="134.985" cy="-181.778" rx="21.4286" ry="21.4286"/>
<text text-anchor="middle" x="134.985" y="-176.778" font-family="Times New Roman,serif" font-size="20.00">2</text>
</g>
<!-- 1&#45;&gt;5 -->
<g id="edge8" class="edge"><title>1&#45;&gt;5</title>
<path fill="none" stroke="black" stroke-width="2" d="M114.381,-175.908C96.8229,-170.906 71.3492,-163.648 51.4744,-157.986"/>
<polygon fill="black" stroke="black" stroke-width="2" points="52.2394,-154.565 41.6631,-155.191 50.3214,-161.297 52.2394,-154.565"/>
</g>
<!-- 1&#45;&gt;6 -->
<g id="edge9" class="edge"><title>1&#45;&gt;6</title>
<path fill="none" stroke="black" stroke-width="2" d="M151.498,-168.438C154.514,-166.001 157.72,-163.412 160.91,-160.834"/>
<polygon fill="black" stroke="black" stroke-width="2" points="163.114,-163.554 168.693,-154.547 158.715,-158.108 163.114,-163.554"/>
</g>
<!-- 1&#45;&gt;7 -->
<g id="edge10" class="edge"><title>1&#45;&gt;7</title>
<path fill="none" stroke="black" stroke-width="2" d="M121.144,-165.348C110.044,-152.172 94.3039,-133.487 81.7662,-118.604"/>
<polygon fill="black" stroke="black" stroke-width="2" points="84.2996,-116.178 75.1801,-110.785 78.946,-120.688 84.2996,-116.178"/>
</g>
<!-- 2 -->
<g id="node3" class="node"><title>2</title>
<ellipse fill="cadetblue" stroke="black" cx="171.516" cy="-21.2132" rx="21.4286" ry="21.4286"/>
<text text-anchor="middle" x="171.516" y="-16.2132" font-family="Times New Roman,serif" font-size="20.00">2</text>
</g>
<!-- 2&#45;&gt;0 -->
<g id="edge1" class="edge"><title>2&#45;&gt;0</title>
<path fill="none" stroke="black" stroke-width="2" d="M153.672,-32.6848C149.866,-35.1315 145.768,-37.7661 141.714,-40.3721"/>
<polygon fill="black" stroke="black" stroke-width="2" points="139.56,-37.5959 133.041,-45.9477 143.345,-43.4841 139.56,-37.5959"/>
</g>
<!-- 4 -->
<g id="node5" class="node"><title>4</title>
<ellipse fill="cadetblue" stroke="black" cx="229.043" cy="-89.6521" rx="21.4286" ry="21.4286"/>
<text text-anchor="middle" x="229.043" y="-84.6521" font-family="Times New Roman,serif" font-size="20.00">2</text>
</g>
<!-- 2&#45;&gt;4 -->
<g id="edge11" class="edge"><title>2&#45;&gt;4</title>
<path fill="none" stroke="black" stroke-width="2" d="M185.442,-37.7803C192.437,-46.1028 201.045,-56.3435 208.759,-65.521"/>
<polygon fill="black" stroke="black" stroke-width="2" points="206.132,-67.8346 215.245,-73.2375 211.49,-63.3305 206.132,-67.8346"/>
</g>
<!-- 3 -->
<g id="node4" class="node"><title>3</title>
<ellipse fill="cadetblue" stroke="black" cx="76.8146" cy="-215.379" rx="21.4286" ry="21.4286"/>
<text text-anchor="middle" x="76.8146" y="-210.379" font-family="Times New Roman,serif" font-size="20.00">2</text>
</g>
<!-- 3&#45;&gt;1 -->
<g id="edge6" class="edge"><title>3&#45;&gt;1</title>
<path fill="none" stroke="black" stroke-width="2" d="M95.2199,-204.748C99.1455,-202.48 103.372,-200.038 107.554,-197.623"/>
<polygon fill="black" stroke="black" stroke-width="2" points="109.591,-200.488 116.499,-192.456 106.089,-194.427 109.591,-200.488"/>
</g>
<!-- 3&#45;&gt;6 -->
<g id="edge15" class="edge"><title>3&#45;&gt;6</title>
<path fill="none" stroke="black" stroke-width="2" d="M87.3168,-196.919C94.3692,-185.884 104.535,-172.274 116.452,-163.11 127.461,-154.645 141.811,-149.376 154.568,-146.12"/>
<polygon fill="black" stroke="black" stroke-width="2" points="155.374,-149.526 164.363,-143.918 153.839,-142.697 155.374,-149.526"/>
</g>
<!-- 4&#45;&gt;0 -->
<g id="edge2" class="edge"><title>4&#45;&gt;0</title>
<path fill="none" stroke="black" stroke-width="2" d="M208.412,-83.824C190.83,-78.8571 165.322,-71.6513 145.421,-66.0292"/>
<polygon fill="black" stroke="black" stroke-width="2" points="146.171,-62.6043 135.596,-63.2538 144.268,-69.3406 146.171,-62.6043"/>
</g>
<!-- 4&#45;&gt;1 -->
<g id="edge7" class="edge"><title>4&#45;&gt;1</title>
<path fill="none" stroke="black" stroke-width="2" d="M208.91,-96.6735C195.688,-102.082 178.708,-110.637 166.838,-122.415 158.321,-130.867 151.514,-142.079 146.415,-152.481"/>
<polygon fill="black" stroke="black" stroke-width="2" points="143.174,-151.153 142.213,-161.704 149.544,-154.055 143.174,-151.153"/>
</g>
<!-- 5&#45;&gt;3 -->
<g id="edge14" class="edge"><title>5&#45;&gt;3</title>
<path fill="none" stroke="black" stroke-width="2" d="M34.9574,-165.683C41.3911,-173.322 49.1878,-182.578 56.3,-191.023"/>
<polygon fill="black" stroke="black" stroke-width="2" points="53.7233,-193.396 62.8424,-198.79 59.0773,-188.887 53.7233,-193.396"/>
</g>
<!-- 5&#45;&gt;7 -->
<g id="edge18" class="edge"><title>5&#45;&gt;7</title>
<path fill="none" stroke="black" stroke-width="2" d="M33.9291,-131.983C36.7145,-128.175 39.7196,-124.068 42.6845,-120.015"/>
<polygon fill="black" stroke="black" stroke-width="2" points="45.5511,-122.024 48.6306,-111.887 39.9014,-117.891 45.5511,-122.024"/>
</g>
<!-- 6&#45;&gt;2 -->
<g id="edge12" class="edge"><title>6&#45;&gt;2</title>
<path fill="none" stroke="black" stroke-width="2" d="M182.963,-119.891C180.803,-101.269 177.627,-73.8905 175.168,-52.6935"/>
<polygon fill="black" stroke="black" stroke-width="2" points="178.62,-52.0812 173.991,-42.5512 171.667,-52.8879 178.62,-52.0812"/>
</g>
<!-- 6&#45;&gt;4 -->
<g id="edge17" class="edge"><title>6&#45;&gt;4</title>
<path fill="none" stroke="black" stroke-width="2" d="M199.22,-124.779C202.164,-121.311 205.334,-117.577 208.47,-113.884"/>
<polygon fill="black" stroke="black" stroke-width="2" points="211.375,-115.87 215.179,-105.981 206.039,-111.339 211.375,-115.87"/>
</g>
<!-- 7&#45;&gt;2 -->
<g id="edge13" class="edge"><title>7&#45;&gt;2</title>
<path fill="none" stroke="black" stroke-width="2" d="M82.807,-93.6654C98.4262,-92.0841 119.298,-87.7243 133.702,-76.0861 142.772,-68.7575 150.561,-58.694 156.673,-49.185"/>
<polygon fill="black" stroke="black" stroke-width="2" points="159.837,-50.716 162.005,-40.3454 153.843,-47.1003 159.837,-50.716"/>
</g>
<!-- 7&#45;&gt;3 -->
<g id="edge16" class="edge"><title>7&#45;&gt;3</title>
<path fill="none" stroke="black" stroke-width="2" d="M64.0865,-115.497C66.5028,-134.459 70.0857,-162.575 72.835,-184.15"/>
<polygon fill="black" stroke="black" stroke-width="2" points="69.3729,-184.67 74.109,-194.147 76.3167,-183.785 69.3729,-184.67"/>
</g>
</g>
</svg>

