<?xml version="1.0" encoding="UTF-8" standalone="no"?>
<!DOCTYPE svg PUBLIC "-//W3C//DTD SVG 1.1//EN"
 "http://www.w3.org/Graphics/SVG/1.1/DTD/svg11.dtd">
<!-- Generated by graphviz version 2.36.0 (20140111.2315)
 -->
<!-- Title: G Pages: 1 -->
<svg width="100%" height="100%"
 viewBox="0.00 0.00 233.13 257.65" xmlns="http://www.w3.org/2000/svg" xmlns:xlink="http://www.w3.org/1999/xlink">
<g id="graph0" class="graph" transform="scale(1 1) rotate(0) translate(4 253.649)">
<title>G</title>
<!-- 0 -->
<g id="node1" class="node"><title>0</title>
<ellipse fill="cadetblue" stroke="black" cx="135.528" cy="-76.7719" rx="21.4286" ry="21.4286"/>
<text text-anchor="middle" x="135.528" y="-71.7719" font-family="Times New Roman,serif" font-size="20.00">2</text>
</g>
<!-- 5 -->
<g id="node6" class="node"><title>5</title>
<ellipse fill="brown" stroke="black" cx="67.7978" cy="-125.808" rx="21.4286" ry="21.4286"/>
<text text-anchor="middle" x="67.7978" y="-120.808" font-family="Times New Roman,serif" font-size="20.00">3</text>
</g>
<!-- 0&#45;&gt;5 -->
<g id="edge3" class="edge"><title>0&#45;&gt;5</title>
<path fill="none" stroke="black" stroke-width="2" d="M118.086,-89.3998C110.639,-94.7914 101.793,-101.195 93.6134,-107.117"/>
<polygon fill="black" stroke="black" stroke-width="2" points="91.4638,-104.353 85.4162,-113.052 95.5688,-110.023 91.4638,-104.353"/>
</g>
<!-- 6 -->
<g id="node7" class="node"><title>6</title>
<ellipse fill="cadetblue" stroke="black" cx="128.616" cy="-157.01" rx="21.4286" ry="21.4286"/>
<text text-anchor="middle" x="128.616" y="-152.01" font-family="Times New Roman,serif" font-size="20.00">2</text>
</g>
<!-- 0&#45;&gt;6 -->
<g id="edge4" class="edge"><title>0&#45;&gt;6</title>
<path fill="none" stroke="black" stroke-width="2" d="M133.676,-98.2744C132.949,-106.706 132.101,-116.548 131.31,-125.738"/>
<polygon fill="black" stroke="black" stroke-width="2" points="127.821,-125.463 130.449,-135.727 134.795,-126.064 127.821,-125.463"/>
</g>
<!-- 7 -->
<g id="node8" class="node"><title>7</title>
<ellipse fill="cadetblue" stroke="black" cx="40.4471" cy="-75.0356" rx="21.4286" ry="21.4286"/>
<text text-anchor="middle" x="40.4471" y="-70.0356" font-family="Times New Roman,serif" font-size="20.00">2</text>
</g>
<!-- 0&#45;&gt;7 -->
<g id="edge5" class="edge"><title>0&#45;&gt;7</title>
<path fill="none" stroke="black" stroke-width="2" d="M113.953,-76.3779C101.553,-76.1515 85.7534,-75.8629 71.9824,-75.6115"/>
<polygon fill="black" stroke="black" stroke-width="2" points="71.9993,-72.1113 61.937,-75.428 71.8714,-79.1101 71.9993,-72.1113"/>
</g>
<!-- 1 -->
<g id="node2" class="node"><title>1</title>
<ellipse fill="cadetblue" stroke="black" cx="21.2132" cy="-176.239" rx="21.4286" ry="21.4286"/>
<text text-anchor="middle" x="21.2132" y="-171.239" font-family="Times New Roman,serif" font-size="20.00">2</text>
</g>
<!-- 1&#45;&gt;5 -->
<g id="edge7" class="edge"><title>1&#45;&gt;5</title>
<path fill="none" stroke="black" stroke-width="2" d="M35.6975,-160.559C39.0829,-156.894 42.7593,-152.914 46.3753,-148.999"/>
<polygon fill="black" stroke="black" stroke-width="2" points="48.9476,-151.373 53.162,-141.652 43.8056,-146.623 48.9476,-151.373"/>
</g>
<!-- 1&#45;&gt;7 -->
<g id="edge9" class="edge"><title>1&#45;&gt;7</title>
<path fill="none" stroke="black" stroke-width="2" d="M25.1985,-155.27C27.9063,-141.022 31.5339,-121.934 34.5716,-105.951"/>
<polygon fill="black" stroke="black" stroke-width="2" points="38.0382,-106.456 36.4669,-95.9781 31.1613,-105.149 38.0382,-106.456"/>
</g>
<!-- 2 -->
<g id="node3" class="node"><title>2</title>
<ellipse fill="cadetblue" stroke="black" cx="109.076" cy="-21.2132" rx="21.4286" ry="21.4286"/>
<text text-anchor="middle" x="109.076" y="-16.2132" font-family="Times New Roman,serif" font-size="20.00">2</text>
</g>
<!-- 2&#45;&gt;0 -->
<g id="edge1" class="edge"><title>2&#45;&gt;0</title>
<path fill="none" stroke="black" stroke-width="2" d="M118.328,-40.6449C119.489,-43.0838 120.695,-45.6172 121.906,-48.16"/>
<polygon fill="black" stroke="black" stroke-width="2" points="118.778,-49.7329 126.237,-57.2572 125.098,-46.7238 118.778,-49.7329"/>
</g>
<!-- 4 -->
<g id="node5" class="node"><title>4</title>
<ellipse fill="cadetblue" stroke="black" cx="203.918" cy="-84.2441" rx="21.4286" ry="21.4286"/>
<text text-anchor="middle" x="203.918" y="-79.2441" font-family="Times New Roman,serif" font-size="20.00">2</text>
</g>
<!-- 2&#45;&gt;4 -->
<g id="edge10" class="edge"><title>2&#45;&gt;4</title>
<path fill="none" stroke="black" stroke-width="2" d="M126.915,-33.0688C141.222,-42.577 161.51,-56.0602 177.67,-66.8"/>
<polygon fill="black" stroke="black" stroke-width="2" points="175.893,-69.8216 186.159,-72.4417 179.768,-63.9916 175.893,-69.8216"/>
</g>
<!-- 3 -->
<g id="node4" class="node"><title>3</title>
<ellipse fill="cadetblue" stroke="black" cx="87.2185" cy="-228.436" rx="21.4286" ry="21.4286"/>
<text text-anchor="middle" x="87.2185" y="-223.436" font-family="Times New Roman,serif" font-size="20.00">2</text>
</g>
<!-- 3&#45;&gt;1 -->
<g id="edge6" class="edge"><title>3&#45;&gt;1</title>
<path fill="none" stroke="black" stroke-width="2" d="M70.5626,-215.264C63.1155,-209.375 54.1826,-202.311 45.976,-195.821"/>
<polygon fill="black" stroke="black" stroke-width="2" points="48.1082,-193.045 38.0934,-189.588 43.7662,-198.536 48.1082,-193.045"/>
</g>
<!-- 4&#45;&gt;0 -->
<g id="edge2" class="edge"><title>4&#45;&gt;0</title>
<path fill="none" stroke="black" stroke-width="2" d="M182.654,-81.9208C177.684,-81.3778 172.287,-80.7881 166.978,-80.2081"/>
<polygon fill="black" stroke="black" stroke-width="2" points="167.336,-76.7264 157.014,-79.1195 166.575,-83.685 167.336,-76.7264"/>
</g>
<!-- 5&#45;&gt;2 -->
<g id="edge11" class="edge"><title>5&#45;&gt;2</title>
<path fill="none" stroke="black" stroke-width="2" d="M75.7567,-105.641C81.9061,-90.0588 90.5076,-68.2638 97.4307,-50.7215"/>
<polygon fill="black" stroke="black" stroke-width="2" points="100.866,-51.5501 101.282,-40.9634 94.3551,-48.9804 100.866,-51.5501"/>
</g>
<!-- 5&#45;&gt;3 -->
<g id="edge13" class="edge"><title>5&#45;&gt;3</title>
<path fill="none" stroke="black" stroke-width="2" d="M71.8218,-147.072C74.5742,-161.617 78.2677,-181.135 81.3472,-197.409"/>
<polygon fill="black" stroke="black" stroke-width="2" points="77.9678,-198.375 83.2662,-207.549 84.8457,-197.073 77.9678,-198.375"/>
</g>
<!-- 6&#45;&gt;1 -->
<g id="edge8" class="edge"><title>6&#45;&gt;1</title>
<path fill="none" stroke="black" stroke-width="2" d="M107.653,-160.763C91.8329,-163.596 69.8836,-167.525 52.0621,-170.716"/>
<polygon fill="black" stroke="black" stroke-width="2" points="51.3503,-167.288 42.1236,-172.495 52.584,-174.178 51.3503,-167.288"/>
</g>
<!-- 6&#45;&gt;3 -->
<g id="edge14" class="edge"><title>6&#45;&gt;3</title>
<path fill="none" stroke="black" stroke-width="2" d="M117.955,-175.404C113.451,-183.175 108.111,-192.389 103.155,-200.939"/>
<polygon fill="black" stroke="black" stroke-width="2" points="99.9736,-199.449 97.9872,-209.856 106.03,-202.959 99.9736,-199.449"/>
</g>
<!-- 6&#45;&gt;4 -->
<g id="edge15" class="edge"><title>6&#45;&gt;4</title>
<path fill="none" stroke="black" stroke-width="2" d="M144.219,-141.933C154.891,-131.62 169.212,-117.781 181.153,-106.243"/>
<polygon fill="black" stroke="black" stroke-width="2" points="183.834,-108.519 188.593,-99.0531 178.97,-103.485 183.834,-108.519"/>
</g>
<!-- 7&#45;&gt;2 -->
<g id="edge12" class="edge"><title>7&#45;&gt;2</title>
<path fill="none" stroke="black" stroke-width="2" d="M57.4116,-61.7311C65.5562,-55.3438 75.4705,-47.5685 84.4279,-40.5437"/>
<polygon fill="black" stroke="black" stroke-width="2" points="86.598,-43.2898 92.3069,-34.3646 82.2782,-37.7816 86.598,-43.2898"/>
</g>
<!-- 7&#45;&gt;5 -->
<g id="edge16" class="edge"><title>7&#45;&gt;5</title>
<path fill="none" stroke="black" stroke-width="2" d="M50.6315,-93.9412C51.3529,-95.2804 52.0882,-96.6454 52.8286,-98.0198"/>
<polygon fill="black" stroke="black" stroke-width="2" points="49.8719,-99.9113 57.6959,-107.055 56.0346,-96.5914 49.8719,-99.9113"/>
</g>
<!-- 7&#45;&gt;6 -->
<g id="edge17" class="edge"><title>7&#45;&gt;6</title>
<path fill="none" stroke="black" stroke-width="2" d="M58.739,-86.2842C67.5279,-92.0713 77.973,-99.5306 86.4805,-107.291 94.631,-114.725 102.685,-123.709 109.534,-131.983"/>
<polygon fill="black" stroke="black" stroke-width="2" points="106.941,-134.344 115.94,-139.937 112.393,-129.953 106.941,-134.344"/>
</g>
</g>
</svg>

