<?xml version="1.0" encoding="UTF-8" standalone="no"?>
<!DOCTYPE svg PUBLIC "-//W3C//DTD SVG 1.1//EN"
 "http://www.w3.org/Graphics/SVG/1.1/DTD/svg11.dtd">
<!-- Generated by graphviz version 2.36.0 (20140111.2315)
 -->
<!-- Title: G Pages: 1 -->
<svg width="100%" height="100%"
 viewBox="0.00 0.00 184.96 274.57" xmlns="http://www.w3.org/2000/svg" xmlns:xlink="http://www.w3.org/1999/xlink">
<g id="graph0" class="graph" transform="scale(1 1) rotate(0) translate(4 270.569)">
<title>G</title>
<!-- 0 -->
<g id="node1" class="node"><title>0</title>
<ellipse fill="cadetblue" stroke="black" cx="57.2848" cy="-21.2132" rx="21.4286" ry="21.4286"/>
<text text-anchor="middle" x="57.2848" y="-16.2132" font-family="Times New Roman,serif" font-size="20.00">2</text>
</g>
<!-- 5 -->
<g id="node6" class="node"><title>5</title>
<ellipse fill="cadetblue" stroke="black" cx="21.2132" cy="-104.573" rx="21.4286" ry="21.4286"/>
<text text-anchor="middle" x="21.2132" y="-99.5725" font-family="Times New Roman,serif" font-size="20.00">2</text>
</g>
<!-- 0&#45;&gt;5 -->
<g id="edge3" class="edge"><title>0&#45;&gt;5</title>
<path fill="none" stroke="black" stroke-width="2" d="M48.7363,-40.9682C44.244,-51.3496 38.654,-64.2678 33.6876,-75.7449"/>
<polygon fill="black" stroke="black" stroke-width="2" points="30.4596,-74.3917 29.7003,-84.9593 36.8839,-77.1717 30.4596,-74.3917"/>
</g>
<!-- 6 -->
<g id="node7" class="node"><title>6</title>
<ellipse fill="cadetblue" stroke="black" cx="155.751" cy="-119.942" rx="21.4286" ry="21.4286"/>
<text text-anchor="middle" x="155.751" y="-114.942" font-family="Times New Roman,serif" font-size="20.00">2</text>
</g>
<!-- 0&#45;&gt;6 -->
<g id="edge4" class="edge"><title>0&#45;&gt;6</title>
<path fill="none" stroke="black" stroke-width="2" d="M72.67,-36.6396C88.8561,-52.8689 114.503,-78.5839 133.021,-97.1522"/>
<polygon fill="black" stroke="black" stroke-width="2" points="130.933,-100.015 140.473,-104.624 135.89,-95.0719 130.933,-100.015"/>
</g>
<!-- 1 -->
<g id="node2" class="node"><title>1</title>
<ellipse fill="cadetblue" stroke="black" cx="115.157" cy="-245.356" rx="21.4286" ry="21.4286"/>
<text text-anchor="middle" x="115.157" y="-240.356" font-family="Times New Roman,serif" font-size="20.00">2</text>
</g>
<!-- 1&#45;&gt;6 -->
<g id="edge7" class="edge"><title>1&#45;&gt;6</title>
<path fill="none" stroke="black" stroke-width="2" d="M119.206,-224.049C121.122,-214.977 123.624,-204.329 126.512,-194.881 131.243,-179.405 137.681,-162.586 143.312,-148.81"/>
<polygon fill="black" stroke="black" stroke-width="2" points="146.626,-149.957 147.234,-139.379 140.162,-147.269 146.626,-149.957"/>
</g>
<!-- 7 -->
<g id="node8" class="node"><title>7</title>
<ellipse fill="brown" stroke="black" cx="45.6015" cy="-200.825" rx="21.4286" ry="21.4286"/>
<text text-anchor="middle" x="45.6015" y="-195.825" font-family="Times New Roman,serif" font-size="20.00">3</text>
</g>
<!-- 1&#45;&gt;7 -->
<g id="edge8" class="edge"><title>1&#45;&gt;7</title>
<path fill="none" stroke="black" stroke-width="2" d="M97.2448,-233.888C89.6775,-229.043 80.7045,-223.298 72.3785,-217.968"/>
<polygon fill="black" stroke="black" stroke-width="2" points="74.0039,-214.853 63.6948,-212.408 70.2295,-220.748 74.0039,-214.853"/>
</g>
<!-- 2 -->
<g id="node3" class="node"><title>2</title>
<ellipse fill="brown" stroke="black" cx="134.22" cy="-25.8576" rx="21.4286" ry="21.4286"/>
<text text-anchor="middle" x="134.22" y="-20.8576" font-family="Times New Roman,serif" font-size="20.00">3</text>
</g>
<!-- 2&#45;&gt;0 -->
<g id="edge1" class="edge"><title>2&#45;&gt;0</title>
<path fill="none" stroke="black" stroke-width="2" d="M112.789,-24.5639C105.37,-24.116 96.8904,-23.6041 88.8303,-23.1176"/>
<polygon fill="black" stroke="black" stroke-width="2" points="88.7933,-19.609 78.6006,-22.5 88.3715,-26.5963 88.7933,-19.609"/>
</g>
<!-- 3 -->
<g id="node4" class="node"><title>3</title>
<ellipse fill="cadetblue" stroke="black" cx="152.817" cy="-194.924" rx="21.4286" ry="21.4286"/>
<text text-anchor="middle" x="152.817" y="-189.924" font-family="Times New Roman,serif" font-size="20.00">2</text>
</g>
<!-- 3&#45;&gt;1 -->
<g id="edge5" class="edge"><title>3&#45;&gt;1</title>
<path fill="none" stroke="black" stroke-width="2" d="M140.067,-211.998C138.104,-214.627 136.042,-217.388 133.98,-220.149"/>
<polygon fill="black" stroke="black" stroke-width="2" points="131.073,-218.193 127.894,-228.299 136.682,-222.381 131.073,-218.193"/>
</g>
<!-- 3&#45;&gt;7 -->
<g id="edge14" class="edge"><title>3&#45;&gt;7</title>
<path fill="none" stroke="black" stroke-width="2" d="M131.634,-196.09C116.17,-196.941 94.9385,-198.109 77.437,-199.073"/>
<polygon fill="black" stroke="black" stroke-width="2" points="76.8993,-195.597 67.1067,-199.641 77.284,-202.586 76.8993,-195.597"/>
</g>
<!-- 4 -->
<g id="node5" class="node"><title>4</title>
<ellipse fill="cadetblue" stroke="black" cx="84.828" cy="-119.756" rx="21.4286" ry="21.4286"/>
<text text-anchor="middle" x="84.828" y="-114.756" font-family="Times New Roman,serif" font-size="20.00">2</text>
</g>
<!-- 4&#45;&gt;0 -->
<g id="edge2" class="edge"><title>4&#45;&gt;0</title>
<path fill="none" stroke="black" stroke-width="2" d="M78.9868,-98.8579C75.1634,-85.1786 70.1028,-67.0731 65.8302,-51.7869"/>
<polygon fill="black" stroke="black" stroke-width="2" points="69.0859,-50.4323 63.0231,-41.7436 62.3442,-52.3167 69.0859,-50.4323"/>
</g>
<!-- 4&#45;&gt;1 -->
<g id="edge6" class="edge"><title>4&#45;&gt;1</title>
<path fill="none" stroke="black" stroke-width="2" d="M89.8362,-140.497C94.7094,-160.677 102.172,-191.583 107.735,-214.62"/>
<polygon fill="black" stroke="black" stroke-width="2" points="104.392,-215.686 110.141,-224.585 111.196,-214.042 104.392,-215.686"/>
</g>
<!-- 4&#45;&gt;2 -->
<g id="edge9" class="edge"><title>4&#45;&gt;2</title>
<path fill="none" stroke="black" stroke-width="2" d="M94.8232,-100.755C101.92,-87.2636 111.562,-68.9319 119.532,-53.7816"/>
<polygon fill="black" stroke="black" stroke-width="2" points="122.682,-55.3109 124.24,-44.8312 116.487,-52.0521 122.682,-55.3109"/>
</g>
<!-- 5&#45;&gt;2 -->
<g id="edge10" class="edge"><title>5&#45;&gt;2</title>
<path fill="none" stroke="black" stroke-width="2" d="M38.8705,-92.2733C57.5298,-79.2762 87.1437,-58.6486 108.418,-43.8297"/>
<polygon fill="black" stroke="black" stroke-width="2" points="110.482,-46.6581 116.687,-38.0705 106.481,-40.9142 110.482,-46.6581"/>
</g>
<!-- 5&#45;&gt;3 -->
<g id="edge12" class="edge"><title>5&#45;&gt;3</title>
<path fill="none" stroke="black" stroke-width="2" d="M38.0564,-117.595C46.386,-123.932 56.6454,-131.586 66.045,-138.172 85.8798,-152.069 108.834,-167.035 126.15,-178.107"/>
<polygon fill="black" stroke="black" stroke-width="2" points="124.329,-181.098 134.645,-183.516 128.089,-175.193 124.329,-181.098"/>
</g>
<!-- 5&#45;&gt;4 -->
<g id="edge15" class="edge"><title>5&#45;&gt;4</title>
<path fill="none" stroke="black" stroke-width="2" d="M42.0431,-109.544C45.9271,-110.471 50.06,-111.458 54.1675,-112.438"/>
<polygon fill="black" stroke="black" stroke-width="2" points="53.6292,-115.908 64.1686,-114.825 55.2544,-109.099 53.6292,-115.908"/>
</g>
<!-- 6&#45;&gt;2 -->
<g id="edge11" class="edge"><title>6&#45;&gt;2</title>
<path fill="none" stroke="black" stroke-width="2" d="M150.972,-99.0617C148.129,-86.6373 144.469,-70.6429 141.295,-56.7754"/>
<polygon fill="black" stroke="black" stroke-width="2" points="144.628,-55.6469 138.985,-46.6796 137.804,-57.2085 144.628,-55.6469"/>
</g>
<!-- 6&#45;&gt;3 -->
<g id="edge13" class="edge"><title>6&#45;&gt;3</title>
<path fill="none" stroke="black" stroke-width="2" d="M154.918,-141.228C154.648,-148.115 154.343,-155.904 154.051,-163.371"/>
<polygon fill="black" stroke="black" stroke-width="2" points="150.545,-163.455 153.652,-173.585 157.54,-163.729 150.545,-163.455"/>
</g>
<!-- 6&#45;&gt;7 -->
<g id="edge18" class="edge"><title>6&#45;&gt;7</title>
<path fill="none" stroke="black" stroke-width="2" d="M138.54,-132.58C120.539,-145.798 92.0788,-166.696 71.3918,-181.887"/>
<polygon fill="black" stroke="black" stroke-width="2" points="69.0437,-179.269 63.0549,-188.009 73.1868,-184.911 69.0437,-179.269"/>
</g>
<!-- 7&#45;&gt;4 -->
<g id="edge16" class="edge"><title>7&#45;&gt;4</title>
<path fill="none" stroke="black" stroke-width="2" d="M54.8976,-181.613C59.6989,-171.69 65.6533,-159.384 70.9837,-148.368"/>
<polygon fill="black" stroke="black" stroke-width="2" points="74.2576,-149.638 75.4627,-139.111 67.9564,-146.589 74.2576,-149.638"/>
</g>
<!-- 7&#45;&gt;5 -->
<g id="edge17" class="edge"><title>7&#45;&gt;5</title>
<path fill="none" stroke="black" stroke-width="2" d="M40.3096,-179.939C37.0178,-166.948 32.7255,-150.008 29.0442,-135.479"/>
<polygon fill="black" stroke="black" stroke-width="2" points="32.3438,-134.251 26.4948,-125.417 25.5582,-135.97 32.3438,-134.251"/>
</g>
</g>
</svg>

