<?xml version="1.0" encoding="UTF-8" standalone="no"?>
<!DOCTYPE svg PUBLIC "-//W3C//DTD SVG 1.1//EN"
 "http://www.w3.org/Graphics/SVG/1.1/DTD/svg11.dtd">
<!-- Generated by graphviz version 2.36.0 (20140111.2315)
 -->
<!-- Title: G Pages: 1 -->
<svg width="100%" height="100%"
 viewBox="0.00 0.00 235.38 276.82" xmlns="http://www.w3.org/2000/svg" xmlns:xlink="http://www.w3.org/1999/xlink">
<g id="graph0" class="graph" transform="scale(1 1) rotate(0) translate(4 272.82)">
<title>G</title>
<!-- 0 -->
<g id="node1" class="node"><title>0</title>
<ellipse fill="brown" stroke="black" cx="77.9445" cy="-86.418" rx="21.4286" ry="21.4286"/>
<text text-anchor="middle" x="77.9445" y="-81.418" font-family="Times New Roman,serif" font-size="20.00">3</text>
</g>
<!-- 2 -->
<g id="node3" class="node"><title>2</title>
<ellipse fill="cadetblue" stroke="black" cx="154.054" cy="-21.2132" rx="21.4286" ry="21.4286"/>
<text text-anchor="middle" x="154.054" y="-16.2132" font-family="Times New Roman,serif" font-size="20.00">2</text>
</g>
<!-- 0&#45;&gt;2 -->
<g id="edge1" class="edge"><title>0&#45;&gt;2</title>
<path fill="none" stroke="black" stroke-width="2" d="M94.0854,-72.5897C104.58,-63.599 118.447,-51.7188 130.203,-41.6473"/>
<polygon fill="black" stroke="black" stroke-width="2" points="132.619,-44.1856 137.936,-35.0215 128.065,-38.8697 132.619,-44.1856"/>
</g>
<!-- 5 -->
<g id="node6" class="node"><title>5</title>
<ellipse fill="cadetblue" stroke="black" cx="21.2132" cy="-189.238" rx="21.4286" ry="21.4286"/>
<text text-anchor="middle" x="21.2132" y="-184.238" font-family="Times New Roman,serif" font-size="20.00">2</text>
</g>
<!-- 0&#45;&gt;5 -->
<g id="edge3" class="edge"><title>0&#45;&gt;5</title>
<path fill="none" stroke="black" stroke-width="2" d="M67.5391,-105.277C58.8224,-121.075 46.2617,-143.84 36.4179,-161.681"/>
<polygon fill="black" stroke="black" stroke-width="2" points="33.3192,-160.052 31.5526,-170.499 39.4481,-163.434 33.3192,-160.052"/>
</g>
<!-- 1 -->
<g id="node2" class="node"><title>1</title>
<ellipse fill="cadetblue" stroke="black" cx="82.6429" cy="-237.518" rx="21.4286" ry="21.4286"/>
<text text-anchor="middle" x="82.6429" y="-232.518" font-family="Times New Roman,serif" font-size="20.00">2</text>
</g>
<!-- 3 -->
<g id="node4" class="node"><title>3</title>
<ellipse fill="cadetblue" stroke="black" cx="156.89" cy="-247.607" rx="21.4286" ry="21.4286"/>
<text text-anchor="middle" x="156.89" y="-242.607" font-family="Times New Roman,serif" font-size="20.00">2</text>
</g>
<!-- 1&#45;&gt;3 -->
<g id="edge6" class="edge"><title>1&#45;&gt;3</title>
<path fill="none" stroke="black" stroke-width="2" d="M103.721,-240.382C110.539,-241.309 118.252,-242.357 125.646,-243.362"/>
<polygon fill="black" stroke="black" stroke-width="2" points="125.379,-246.857 135.76,-244.736 126.322,-239.921 125.379,-246.857"/>
</g>
<!-- 4 -->
<g id="node5" class="node"><title>4</title>
<ellipse fill="cadetblue" stroke="black" cx="128.376" cy="-117.87" rx="21.4286" ry="21.4286"/>
<text text-anchor="middle" x="128.376" y="-112.87" font-family="Times New Roman,serif" font-size="20.00">2</text>
</g>
<!-- 1&#45;&gt;4 -->
<g id="edge7" class="edge"><title>1&#45;&gt;4</title>
<path fill="none" stroke="black" stroke-width="2" d="M90.2976,-217.492C97.6184,-198.339 108.746,-169.225 117.085,-147.41"/>
<polygon fill="black" stroke="black" stroke-width="2" points="120.395,-148.552 120.696,-137.962 113.857,-146.053 120.395,-148.552"/>
</g>
<!-- 6 -->
<g id="node7" class="node"><title>6</title>
<ellipse fill="cadetblue" stroke="black" cx="206.163" cy="-113.07" rx="21.4286" ry="21.4286"/>
<text text-anchor="middle" x="206.163" y="-108.07" font-family="Times New Roman,serif" font-size="20.00">2</text>
</g>
<!-- 2&#45;&gt;6 -->
<g id="edge11" class="edge"><title>2&#45;&gt;6</title>
<path fill="none" stroke="black" stroke-width="2" d="M164.599,-39.8017C172.086,-52.9993 182.259,-70.9323 190.666,-85.7531"/>
<polygon fill="black" stroke="black" stroke-width="2" points="187.655,-87.5379 195.633,-94.5089 193.743,-84.0839 187.655,-87.5379"/>
</g>
<!-- 3&#45;&gt;5 -->
<g id="edge12" class="edge"><title>3&#45;&gt;5</title>
<path fill="none" stroke="black" stroke-width="2" d="M138.039,-237.429C127.365,-231.784 113.707,-224.761 101.311,-218.986 85.096,-211.433 66.385,-204.395 51.1271,-199.063"/>
<polygon fill="black" stroke="black" stroke-width="2" points="52.2546,-195.749 41.66,-195.817 49.9843,-202.371 52.2546,-195.749"/>
</g>
<!-- 7 -->
<g id="node8" class="node"><title>7</title>
<ellipse fill="cadetblue" stroke="black" cx="171.306" cy="-181.379" rx="21.4286" ry="21.4286"/>
<text text-anchor="middle" x="171.306" y="-176.379" font-family="Times New Roman,serif" font-size="20.00">2</text>
</g>
<!-- 3&#45;&gt;7 -->
<g id="edge14" class="edge"><title>3&#45;&gt;7</title>
<path fill="none" stroke="black" stroke-width="2" d="M161.451,-226.652C162.45,-222.062 163.528,-217.11 164.592,-212.224"/>
<polygon fill="black" stroke="black" stroke-width="2" points="168.018,-212.94 166.725,-202.425 161.178,-211.452 168.018,-212.94"/>
</g>
<!-- 4&#45;&gt;0 -->
<g id="edge2" class="edge"><title>4&#45;&gt;0</title>
<path fill="none" stroke="black" stroke-width="2" d="M110.169,-106.515C108.434,-105.433 106.651,-104.321 104.856,-103.202"/>
<polygon fill="black" stroke="black" stroke-width="2" points="106.293,-99.9729 95.9556,-97.6508 102.589,-105.912 106.293,-99.9729"/>
</g>
<!-- 4&#45;&gt;2 -->
<g id="edge10" class="edge"><title>4&#45;&gt;2</title>
<path fill="none" stroke="black" stroke-width="2" d="M133.948,-96.897C137.471,-83.6341 142.083,-66.2726 146.002,-51.524"/>
<polygon fill="black" stroke="black" stroke-width="2" points="149.396,-52.3768 148.581,-41.8133 142.631,-50.5794 149.396,-52.3768"/>
</g>
<!-- 4&#45;&gt;6 -->
<g id="edge15" class="edge"><title>4&#45;&gt;6</title>
<path fill="none" stroke="black" stroke-width="2" d="M149.631,-116.558C157.435,-116.077 166.439,-115.521 174.936,-114.997"/>
<polygon fill="black" stroke="black" stroke-width="2" points="175.167,-118.489 184.933,-114.38 174.736,-111.503 175.167,-118.489"/>
</g>
<!-- 5&#45;&gt;1 -->
<g id="edge8" class="edge"><title>5&#45;&gt;1</title>
<path fill="none" stroke="black" stroke-width="2" d="M37.9991,-202.431C44.0937,-207.221 51.1165,-212.74 57.7612,-217.963"/>
<polygon fill="black" stroke="black" stroke-width="2" points="55.8521,-220.914 65.8773,-224.341 60.1777,-215.41 55.8521,-220.914"/>
</g>
<!-- 6&#45;&gt;0 -->
<g id="edge4" class="edge"><title>6&#45;&gt;0</title>
<path fill="none" stroke="black" stroke-width="2" d="M185.98,-106.458C170.462,-101.623 148.403,-95.2845 128.636,-91.567 122.51,-90.4149 115.915,-89.5069 109.574,-88.796"/>
<polygon fill="black" stroke="black" stroke-width="2" points="109.566,-85.2781 99.2702,-87.7771 108.877,-92.2442 109.566,-85.2781"/>
</g>
<!-- 6&#45;&gt;3 -->
<g id="edge13" class="edge"><title>6&#45;&gt;3</title>
<path fill="none" stroke="black" stroke-width="2" d="M205.826,-134.305C204.716,-152.699 201.08,-179.497 189.905,-199.98 185.839,-207.432 180.867,-215.145 176.028,-222.138"/>
<polygon fill="black" stroke="black" stroke-width="2" points="172.997,-220.361 170.047,-230.537 178.699,-224.422 172.997,-220.361"/>
</g>
<!-- 6&#45;&gt;7 -->
<g id="edge17" class="edge"><title>6&#45;&gt;7</title>
<path fill="none" stroke="black" stroke-width="2" d="M196.453,-132.098C193.129,-138.611 189.336,-146.045 185.721,-153.129"/>
<polygon fill="black" stroke="black" stroke-width="2" points="182.391,-151.955 180.963,-162.453 188.626,-155.136 182.391,-151.955"/>
</g>
<!-- 7&#45;&gt;0 -->
<g id="edge5" class="edge"><title>7&#45;&gt;0</title>
<path fill="none" stroke="black" stroke-width="2" d="M152.877,-170.522C139.805,-162.234 122.382,-149.942 109.593,-136.285 103.447,-129.723 97.7979,-121.805 93.0267,-114.231"/>
<polygon fill="black" stroke="black" stroke-width="2" points="95.9955,-112.376 87.8518,-105.598 89.9917,-115.975 95.9955,-112.376"/>
</g>
<!-- 7&#45;&gt;1 -->
<g id="edge9" class="edge"><title>7&#45;&gt;1</title>
<path fill="none" stroke="black" stroke-width="2" d="M153.364,-192.739C140.828,-200.677 123.866,-211.416 109.697,-220.388"/>
<polygon fill="black" stroke="black" stroke-width="2" points="107.439,-217.675 100.863,-225.982 111.184,-223.589 107.439,-217.675"/>
</g>
<!-- 7&#45;&gt;4 -->
<g id="edge16" class="edge"><title>7&#45;&gt;4</title>
<path fill="none" stroke="black" stroke-width="2" d="M159.347,-163.688C155.254,-157.632 150.582,-150.721 146.13,-144.135"/>
<polygon fill="black" stroke="black" stroke-width="2" points="148.77,-141.791 140.27,-135.466 142.971,-145.711 148.77,-141.791"/>
</g>
</g>
</svg>

