<?xml version="1.0" encoding="UTF-8" standalone="no"?>
<!DOCTYPE svg PUBLIC "-//W3C//DTD SVG 1.1//EN"
 "http://www.w3.org/Graphics/SVG/1.1/DTD/svg11.dtd">
<!-- Generated by graphviz version 2.36.0 (20140111.2315)
 -->
<!-- Title: G Pages: 1 -->
<svg width="100%" height="100%"
 viewBox="0.00 0.00 238.68 244.47" xmlns="http://www.w3.org/2000/svg" xmlns:xlink="http://www.w3.org/1999/xlink">
<g id="graph0" class="graph" transform="scale(1 1) rotate(0) translate(4 240.471)">
<title>G</title>
<!-- 0 -->
<g id="node1" class="node"><title>0</title>
<ellipse fill="cadetblue" stroke="black" cx="69.1491" cy="-47.7612" rx="21.4286" ry="21.4286"/>
<text text-anchor="middle" x="69.1491" y="-42.7612" font-family="Times New Roman,serif" font-size="20.00">2</text>
</g>
<!-- 5 -->
<g id="node6" class="node"><title>5</title>
<ellipse fill="cadetblue" stroke="black" cx="21.2132" cy="-122.762" rx="21.4286" ry="21.4286"/>
<text text-anchor="middle" x="21.2132" y="-117.762" font-family="Times New Roman,serif" font-size="20.00">2</text>
</g>
<!-- 0&#45;&gt;5 -->
<g id="edge3" class="edge"><title>0&#45;&gt;5</title>
<path fill="none" stroke="black" stroke-width="2" d="M57.5451,-65.9169C51.716,-75.0373 44.5432,-86.26 38.115,-96.3175"/>
<polygon fill="black" stroke="black" stroke-width="2" points="35.1466,-94.463 32.7103,-104.774 41.0448,-98.2328 35.1466,-94.463"/>
</g>
<!-- 6 -->
<g id="node7" class="node"><title>6</title>
<ellipse fill="cadetblue" stroke="black" cx="166.973" cy="-117.564" rx="21.4286" ry="21.4286"/>
<text text-anchor="middle" x="166.973" y="-112.564" font-family="Times New Roman,serif" font-size="20.00">2</text>
</g>
<!-- 0&#45;&gt;6 -->
<g id="edge4" class="edge"><title>0&#45;&gt;6</title>
<path fill="none" stroke="black" stroke-width="2" d="M86.6381,-60.2406C101.801,-71.0602 123.951,-86.8652 141.154,-99.1407"/>
<polygon fill="black" stroke="black" stroke-width="2" points="139.463,-102.234 149.636,-105.193 143.529,-96.5356 139.463,-102.234"/>
</g>
<!-- 7 -->
<g id="node8" class="node"><title>7</title>
<ellipse fill="cadetblue" stroke="black" cx="112.061" cy="-126.855" rx="21.4286" ry="21.4286"/>
<text text-anchor="middle" x="112.061" y="-121.855" font-family="Times New Roman,serif" font-size="20.00">2</text>
</g>
<!-- 0&#45;&gt;7 -->
<g id="edge5" class="edge"><title>0&#45;&gt;7</title>
<path fill="none" stroke="black" stroke-width="2" d="M79.3187,-66.5053C84.5711,-76.1862 91.085,-88.1922 96.9162,-98.94"/>
<polygon fill="black" stroke="black" stroke-width="2" points="93.9707,-100.851 101.816,-107.971 100.124,-97.5123 93.9707,-100.851"/>
</g>
<!-- 1 -->
<g id="node2" class="node"><title>1</title>
<ellipse fill="cadetblue" stroke="black" cx="209.467" cy="-184.142" rx="21.4286" ry="21.4286"/>
<text text-anchor="middle" x="209.467" y="-179.142" font-family="Times New Roman,serif" font-size="20.00">2</text>
</g>
<!-- 1&#45;&gt;6 -->
<g id="edge8" class="edge"><title>1&#45;&gt;6</title>
<path fill="none" stroke="black" stroke-width="2" d="M197.856,-165.95C193.64,-159.344 188.782,-151.733 184.185,-144.531"/>
<polygon fill="black" stroke="black" stroke-width="2" points="186.901,-142.281 178.571,-135.735 181.001,-146.048 186.901,-142.281"/>
</g>
<!-- 1&#45;&gt;7 -->
<g id="edge9" class="edge"><title>1&#45;&gt;7</title>
<path fill="none" stroke="black" stroke-width="2" d="M191.146,-173.367C176.545,-164.78 155.879,-152.625 139.335,-142.895"/>
<polygon fill="black" stroke="black" stroke-width="2" points="141.026,-139.829 130.632,-137.777 137.477,-145.863 141.026,-139.829"/>
</g>
<!-- 2 -->
<g id="node3" class="node"><title>2</title>
<ellipse fill="brown" stroke="black" cx="119.581" cy="-21.2132" rx="21.4286" ry="21.4286"/>
<text text-anchor="middle" x="119.581" y="-16.2132" font-family="Times New Roman,serif" font-size="20.00">3</text>
</g>
<!-- 2&#45;&gt;0 -->
<g id="edge1" class="edge"><title>2&#45;&gt;0</title>
<path fill="none" stroke="black" stroke-width="2" d="M100.802,-31.0987C99.636,-31.7123 98.4506,-32.3363 97.2565,-32.9649"/>
<polygon fill="black" stroke="black" stroke-width="2" points="95.3302,-30.0236 88.1117,-37.7789 98.5909,-36.2178 95.3302,-30.0236"/>
</g>
<!-- 4 -->
<g id="node5" class="node"><title>4</title>
<ellipse fill="cadetblue" stroke="black" cx="200.938" cy="-56.4276" rx="21.4286" ry="21.4286"/>
<text text-anchor="middle" x="200.938" y="-51.4276" font-family="Times New Roman,serif" font-size="20.00">2</text>
</g>
<!-- 2&#45;&gt;4 -->
<g id="edge10" class="edge"><title>2&#45;&gt;4</title>
<path fill="none" stroke="black" stroke-width="2" d="M139.275,-29.7376C149.068,-33.9766 161.096,-39.1827 171.921,-43.868"/>
<polygon fill="black" stroke="black" stroke-width="2" points="170.858,-47.2214 181.425,-47.9817 173.638,-40.7974 170.858,-47.2214"/>
</g>
<!-- 3 -->
<g id="node4" class="node"><title>3</title>
<ellipse fill="brown" stroke="black" cx="102.368" cy="-215.258" rx="21.4286" ry="21.4286"/>
<text text-anchor="middle" x="102.368" y="-210.258" font-family="Times New Roman,serif" font-size="20.00">3</text>
</g>
<!-- 3&#45;&gt;1 -->
<g id="edge6" class="edge"><title>3&#45;&gt;1</title>
<path fill="none" stroke="black" stroke-width="2" d="M122.764,-209.332C138.667,-204.712 161.002,-198.223 179.019,-192.988"/>
<polygon fill="black" stroke="black" stroke-width="2" points="180.155,-196.303 188.782,-190.152 178.202,-189.581 180.155,-196.303"/>
</g>
<!-- 4&#45;&gt;0 -->
<g id="edge2" class="edge"><title>4&#45;&gt;0</title>
<path fill="none" stroke="black" stroke-width="2" d="M179.764,-55.0352C158.468,-53.6348 125.372,-51.4584 100.926,-49.8509"/>
<polygon fill="black" stroke="black" stroke-width="2" points="100.917,-46.3428 90.7085,-49.1789 100.457,-53.3277 100.917,-46.3428"/>
</g>
<!-- 4&#45;&gt;1 -->
<g id="edge7" class="edge"><title>4&#45;&gt;1</title>
<path fill="none" stroke="black" stroke-width="2" d="M202.366,-77.8042C203.731,-98.2485 205.806,-129.325 207.362,-152.611"/>
<polygon fill="black" stroke="black" stroke-width="2" points="203.876,-152.951 208.035,-162.696 210.861,-152.485 203.876,-152.951"/>
</g>
<!-- 5&#45;&gt;2 -->
<g id="edge11" class="edge"><title>5&#45;&gt;2</title>
<path fill="none" stroke="black" stroke-width="2" d="M38.3816,-110.169C52.4706,-99.392 72.5067,-83.0218 87.7321,-66.3782 92.8967,-60.7324 97.9344,-54.2211 102.423,-47.9315"/>
<polygon fill="black" stroke="black" stroke-width="2" points="105.375,-49.8154 108.164,-39.5941 99.6096,-45.8456 105.375,-49.8154"/>
</g>
<!-- 5&#45;&gt;3 -->
<g id="edge14" class="edge"><title>5&#45;&gt;3</title>
<path fill="none" stroke="black" stroke-width="2" d="M35.3492,-138.874C48.0718,-153.374 66.937,-174.876 81.4134,-191.375"/>
<polygon fill="black" stroke="black" stroke-width="2" points="78.8951,-193.812 88.1212,-199.021 84.1569,-189.195 78.8951,-193.812"/>
</g>
<!-- 6&#45;&gt;2 -->
<g id="edge12" class="edge"><title>6&#45;&gt;2</title>
<path fill="none" stroke="black" stroke-width="2" d="M157.61,-98.5286C150.774,-84.631 141.389,-65.551 133.653,-49.8229"/>
<polygon fill="black" stroke="black" stroke-width="2" points="136.641,-47.9678 129.087,-40.5394 130.36,-51.0574 136.641,-47.9678"/>
</g>
<!-- 6&#45;&gt;3 -->
<g id="edge15" class="edge"><title>6&#45;&gt;3</title>
<path fill="none" stroke="black" stroke-width="2" d="M155.124,-135.483C145.197,-150.493 130.893,-172.123 119.683,-189.075"/>
<polygon fill="black" stroke="black" stroke-width="2" points="116.739,-187.181 114.142,-197.453 122.578,-191.043 116.739,-187.181"/>
</g>
<!-- 7&#45;&gt;2 -->
<g id="edge13" class="edge"><title>7&#45;&gt;2</title>
<path fill="none" stroke="black" stroke-width="2" d="M113.583,-105.477C114.663,-90.2984 116.131,-69.6743 117.344,-52.6293"/>
<polygon fill="black" stroke="black" stroke-width="2" points="120.842,-52.7828 118.061,-42.5595 113.86,-52.2858 120.842,-52.7828"/>
</g>
<!-- 7&#45;&gt;3 -->
<g id="edge16" class="edge"><title>7&#45;&gt;3</title>
<path fill="none" stroke="black" stroke-width="2" d="M109.715,-148.255C108.536,-159.005 107.085,-172.233 105.786,-184.088"/>
<polygon fill="black" stroke="black" stroke-width="2" points="102.303,-183.733 104.693,-194.055 109.262,-184.496 102.303,-183.733"/>
</g>
<!-- 7&#45;&gt;4 -->
<g id="edge17" class="edge"><title>7&#45;&gt;4</title>
<path fill="none" stroke="black" stroke-width="2" d="M128.778,-113.608C142.185,-102.984 161.197,-87.9187 176.341,-75.9187"/>
<polygon fill="black" stroke="black" stroke-width="2" points="178.632,-78.5688 184.296,-69.615 174.285,-73.0825 178.632,-78.5688"/>
</g>
<!-- 7&#45;&gt;5 -->
<g id="edge18" class="edge"><title>7&#45;&gt;5</title>
<path fill="none" stroke="black" stroke-width="2" d="M90.5316,-125.885C79.2176,-125.375 65.1388,-124.741 52.6307,-124.178"/>
<polygon fill="black" stroke="black" stroke-width="2" points="52.7358,-120.679 42.5884,-123.725 52.4207,-127.672 52.7358,-120.679"/>
</g>
</g>
</svg>

