<?xml version="1.0" encoding="UTF-8" standalone="no"?>
<!DOCTYPE svg PUBLIC "-//W3C//DTD SVG 1.1//EN"
 "http://www.w3.org/Graphics/SVG/1.1/DTD/svg11.dtd">
<!-- Generated by graphviz version 2.36.0 (20140111.2315)
 -->
<!-- Title: G Pages: 1 -->
<svg width="100%" height="100%"
 viewBox="0.00 0.00 234.09 241.85" xmlns="http://www.w3.org/2000/svg" xmlns:xlink="http://www.w3.org/1999/xlink">
<g id="graph0" class="graph" transform="scale(1 1) rotate(0) translate(4 237.85)">
<title>G</title>
<!-- 0 -->
<g id="node1" class="node"><title>0</title>
<ellipse fill="brown" stroke="black" cx="95.2131" cy="-21.2132" rx="21.4286" ry="21.4286"/>
<text text-anchor="middle" x="95.2131" y="-16.2132" font-family="Times New Roman,serif" font-size="20.00">3</text>
</g>
<!-- 2 -->
<g id="node3" class="node"><title>2</title>
<ellipse fill="dodgerblue" stroke="black" cx="145.645" cy="-25.9205" rx="21.4286" ry="21.4286"/>
<text text-anchor="middle" x="145.645" y="-20.9205" font-family="Times New Roman,serif" font-size="20.00">4</text>
</g>
<!-- 0&#45;&gt;2 -->
<g id="edge1" class="edge"><title>0&#45;&gt;2</title>
<path fill="none" stroke="black" stroke-width="2" d="M116.601,-23.2095C116.762,-23.2245 116.923,-23.2396 117.084,-23.2547"/>
<polygon fill="black" stroke="black" stroke-width="2" points="114.103,-26.4915 124.385,-23.9361 114.754,-19.5218 114.103,-26.4915"/>
</g>
<!-- 7 -->
<g id="node8" class="node"><title>7</title>
<ellipse fill="cadetblue" stroke="black" cx="99.8793" cy="-116.476" rx="21.4286" ry="21.4286"/>
<text text-anchor="middle" x="99.8793" y="-111.476" font-family="Times New Roman,serif" font-size="20.00">2</text>
</g>
<!-- 0&#45;&gt;7 -->
<g id="edge5" class="edge"><title>0&#45;&gt;7</title>
<path fill="none" stroke="black" stroke-width="2" d="M96.2719,-42.8297C96.8847,-55.3407 97.6668,-71.3059 98.3459,-85.1712"/>
<polygon fill="black" stroke="black" stroke-width="2" points="94.8556,-85.4561 98.8407,-95.2728 101.847,-85.1136 94.8556,-85.4561"/>
</g>
<!-- 1 -->
<g id="node2" class="node"><title>1</title>
<ellipse fill="cadetblue" stroke="black" cx="21.2132" cy="-174.504" rx="21.4286" ry="21.4286"/>
<text text-anchor="middle" x="21.2132" y="-169.504" font-family="Times New Roman,serif" font-size="20.00">2</text>
</g>
<!-- 5 -->
<g id="node6" class="node"><title>5</title>
<ellipse fill="cadetblue" stroke="black" cx="40.139" cy="-74.5623" rx="21.4286" ry="21.4286"/>
<text text-anchor="middle" x="40.139" y="-69.5623" font-family="Times New Roman,serif" font-size="20.00">2</text>
</g>
<!-- 1&#45;&gt;5 -->
<g id="edge7" class="edge"><title>1&#45;&gt;5</title>
<path fill="none" stroke="black" stroke-width="2" d="M25.2269,-153.309C27.8364,-139.528 31.2847,-121.319 34.2079,-105.882"/>
<polygon fill="black" stroke="black" stroke-width="2" points="37.7093,-106.203 36.1311,-95.7267 30.8315,-104.901 37.7093,-106.203"/>
</g>
<!-- 2&#45;&gt;5 -->
<g id="edge10" class="edge"><title>2&#45;&gt;5</title>
<path fill="none" stroke="black" stroke-width="2" d="M126.293,-34.8421C110.258,-42.2351 87.2268,-52.8531 69.0111,-61.2512"/>
<polygon fill="black" stroke="black" stroke-width="2" points="67.3409,-58.1672 59.7249,-65.5325 70.2717,-64.5241 67.3409,-58.1672"/>
</g>
<!-- 3 -->
<g id="node4" class="node"><title>3</title>
<ellipse fill="cadetblue" stroke="black" cx="114.307" cy="-212.637" rx="21.4286" ry="21.4286"/>
<text text-anchor="middle" x="114.307" y="-207.637" font-family="Times New Roman,serif" font-size="20.00">2</text>
</g>
<!-- 3&#45;&gt;1 -->
<g id="edge6" class="edge"><title>3&#45;&gt;1</title>
<path fill="none" stroke="black" stroke-width="2" d="M94.5639,-204.55C81.7278,-199.292 64.7663,-192.344 50.3872,-186.454"/>
<polygon fill="black" stroke="black" stroke-width="2" points="51.5079,-183.131 40.9275,-182.579 48.8545,-189.608 51.5079,-183.131"/>
</g>
<!-- 4 -->
<g id="node5" class="node"><title>4</title>
<ellipse fill="cadetblue" stroke="black" cx="204.878" cy="-61.711" rx="21.4286" ry="21.4286"/>
<text text-anchor="middle" x="204.878" y="-56.711" font-family="Times New Roman,serif" font-size="20.00">2</text>
</g>
<!-- 4&#45;&gt;0 -->
<g id="edge2" class="edge"><title>4&#45;&gt;0</title>
<path fill="none" stroke="black" stroke-width="2" d="M184.764,-54.2831C167.914,-48.0606 143.633,-39.0941 124.605,-32.0671"/>
<polygon fill="black" stroke="black" stroke-width="2" points="125.793,-28.775 115.2,-28.594 123.368,-35.3416 125.793,-28.775"/>
</g>
<!-- 4&#45;&gt;2 -->
<g id="edge9" class="edge"><title>4&#45;&gt;2</title>
<path fill="none" stroke="black" stroke-width="2" d="M186.461,-50.5829C182.073,-47.9319 177.301,-45.0486 172.618,-42.2189"/>
<polygon fill="black" stroke="black" stroke-width="2" points="174.216,-39.0948 163.847,-36.9188 170.596,-45.086 174.216,-39.0948"/>
</g>
<!-- 5&#45;&gt;0 -->
<g id="edge3" class="edge"><title>5&#45;&gt;0</title>
<path fill="none" stroke="black" stroke-width="2" d="M55.4802,-59.7016C60.7318,-54.6145 66.7251,-48.8089 72.4365,-43.2764"/>
<polygon fill="black" stroke="black" stroke-width="2" points="75.2067,-45.4659 79.9541,-35.9942 70.3362,-40.438 75.2067,-45.4659"/>
</g>
<!-- 6 -->
<g id="node7" class="node"><title>6</title>
<ellipse fill="cadetblue" stroke="black" cx="155.064" cy="-116.904" rx="21.4286" ry="21.4286"/>
<text text-anchor="middle" x="155.064" y="-111.904" font-family="Times New Roman,serif" font-size="20.00">2</text>
</g>
<!-- 5&#45;&gt;6 -->
<g id="edge17" class="edge"><title>5&#45;&gt;6</title>
<path fill="none" stroke="black" stroke-width="2" d="M60.1573,-81.9377C78.1741,-88.5757 104.89,-98.4184 125.39,-105.971"/>
<polygon fill="black" stroke="black" stroke-width="2" points="124.296,-109.298 134.889,-109.471 126.716,-102.73 124.296,-109.298"/>
</g>
<!-- 5&#45;&gt;7 -->
<g id="edge18" class="edge"><title>5&#45;&gt;7</title>
<path fill="none" stroke="black" stroke-width="2" d="M57.7399,-86.911C62.7994,-90.4607 68.4272,-94.4091 73.88,-98.2347"/>
<polygon fill="black" stroke="black" stroke-width="2" points="72.0013,-101.192 82.1977,-104.07 76.0217,-95.4618 72.0013,-101.192"/>
</g>
<!-- 6&#45;&gt;0 -->
<g id="edge4" class="edge"><title>6&#45;&gt;0</title>
<path fill="none" stroke="black" stroke-width="2" d="M143.806,-98.9054C134.835,-84.5618 122.137,-64.2597 111.971,-48.0062"/>
<polygon fill="black" stroke="black" stroke-width="2" points="114.894,-46.0788 106.624,-39.4566 108.959,-49.7908 114.894,-46.0788"/>
</g>
<!-- 6&#45;&gt;2 -->
<g id="edge11" class="edge"><title>6&#45;&gt;2</title>
<path fill="none" stroke="black" stroke-width="2" d="M152.879,-95.8019C151.699,-84.4006 150.218,-70.0976 148.904,-57.4061"/>
<polygon fill="black" stroke="black" stroke-width="2" points="152.361,-56.8098 147.85,-47.2234 145.398,-57.5306 152.361,-56.8098"/>
</g>
<!-- 6&#45;&gt;3 -->
<g id="edge13" class="edge"><title>6&#45;&gt;3</title>
<path fill="none" stroke="black" stroke-width="2" d="M146.619,-136.74C140.881,-150.218 133.194,-168.273 126.757,-183.392"/>
<polygon fill="black" stroke="black" stroke-width="2" points="123.438,-182.254 122.741,-192.826 129.878,-184.996 123.438,-182.254"/>
</g>
<!-- 6&#45;&gt;4 -->
<g id="edge15" class="edge"><title>6&#45;&gt;4</title>
<path fill="none" stroke="black" stroke-width="2" d="M169.472,-100.94C173.874,-96.0629 178.811,-90.5926 183.569,-85.3205"/>
<polygon fill="black" stroke="black" stroke-width="2" points="186.227,-87.5991 190.329,-77.8305 181.031,-82.909 186.227,-87.5991"/>
</g>
<!-- 7&#45;&gt;1 -->
<g id="edge8" class="edge"><title>7&#45;&gt;1</title>
<path fill="none" stroke="black" stroke-width="2" d="M82.4208,-129.354C71.8577,-137.146 58.2086,-147.214 46.4808,-155.865"/>
<polygon fill="black" stroke="black" stroke-width="2" points="44.3221,-153.108 38.3523,-161.861 48.4775,-158.741 44.3221,-153.108"/>
</g>
<!-- 7&#45;&gt;2 -->
<g id="edge12" class="edge"><title>7&#45;&gt;2</title>
<path fill="none" stroke="black" stroke-width="2" d="M109.585,-97.2712C115.895,-84.7851 124.234,-68.2861 131.302,-54.299"/>
<polygon fill="black" stroke="black" stroke-width="2" points="134.566,-55.6009 135.953,-45.0972 128.319,-52.4435 134.566,-55.6009"/>
</g>
<!-- 7&#45;&gt;3 -->
<g id="edge14" class="edge"><title>7&#45;&gt;3</title>
<path fill="none" stroke="black" stroke-width="2" d="M103.081,-137.817C105.005,-150.64 107.487,-167.184 109.628,-181.453"/>
<polygon fill="black" stroke="black" stroke-width="2" points="106.169,-181.985 111.114,-191.355 113.091,-180.946 106.169,-181.985"/>
</g>
<!-- 7&#45;&gt;4 -->
<g id="edge16" class="edge"><title>7&#45;&gt;4</title>
<path fill="none" stroke="black" stroke-width="2" d="M119.138,-106.431C135.271,-98.0164 158.518,-85.8912 176.737,-76.3886"/>
<polygon fill="black" stroke="black" stroke-width="2" points="178.494,-79.4199 185.742,-71.692 175.256,-73.2133 178.494,-79.4199"/>
</g>
<!-- 7&#45;&gt;6 -->
<g id="edge19" class="edge"><title>7&#45;&gt;6</title>
<path fill="none" stroke="black" stroke-width="2" d="M121.373,-116.643C121.997,-116.647 122.626,-116.652 123.257,-116.657"/>
<polygon fill="black" stroke="black" stroke-width="2" points="123.511,-120.159 133.538,-116.737 123.565,-113.159 123.511,-120.159"/>
</g>
</g>
</svg>

