<?xml version="1.0" encoding="UTF-8" standalone="no"?>
<!DOCTYPE svg PUBLIC "-//W3C//DTD SVG 1.1//EN"
 "http://www.w3.org/Graphics/SVG/1.1/DTD/svg11.dtd">
<!-- Generated by graphviz version 2.36.0 (20140111.2315)
 -->
<!-- Title: G Pages: 1 -->
<svg width="100%" height="100%"
 viewBox="0.00 0.00 250.11 261.83" xmlns="http://www.w3.org/2000/svg" xmlns:xlink="http://www.w3.org/1999/xlink">
<g id="graph0" class="graph" transform="scale(1 1) rotate(0) translate(4 257.833)">
<title>G</title>
<!-- 0 -->
<g id="node1" class="node"><title>0</title>
<ellipse fill="cadetblue" stroke="black" cx="82.2107" cy="-39.2051" rx="21.4286" ry="21.4286"/>
<text text-anchor="middle" x="82.2107" y="-34.2051" font-family="Times New Roman,serif" font-size="20.00">2</text>
</g>
<!-- 5 -->
<g id="node6" class="node"><title>5</title>
<ellipse fill="cadetblue" stroke="black" cx="21.2132" cy="-151.8" rx="21.4286" ry="21.4286"/>
<text text-anchor="middle" x="21.2132" y="-146.8" font-family="Times New Roman,serif" font-size="20.00">2</text>
</g>
<!-- 0&#45;&gt;5 -->
<g id="edge3" class="edge"><title>0&#45;&gt;5</title>
<path fill="none" stroke="black" stroke-width="2" d="M72.0011,-58.0509C62.2368,-76.0748 47.3946,-103.472 36.2728,-124.001"/>
<polygon fill="black" stroke="black" stroke-width="2" points="33.1421,-122.433 31.4561,-132.892 39.297,-125.767 33.1421,-122.433"/>
</g>
<!-- 6 -->
<g id="node7" class="node"><title>6</title>
<ellipse fill="cadetblue" stroke="black" cx="176.733" cy="-21.2132" rx="21.4286" ry="21.4286"/>
<text text-anchor="middle" x="176.733" y="-16.2132" font-family="Times New Roman,serif" font-size="20.00">2</text>
</g>
<!-- 0&#45;&gt;6 -->
<g id="edge4" class="edge"><title>0&#45;&gt;6</title>
<path fill="none" stroke="black" stroke-width="2" d="M103.188,-35.2121C115.67,-32.8362 131.739,-29.7775 145.671,-27.1256"/>
<polygon fill="black" stroke="black" stroke-width="2" points="146.645,-30.5032 155.814,-25.195 145.336,-23.6267 146.645,-30.5032"/>
</g>
<!-- 7 -->
<g id="node8" class="node"><title>7</title>
<ellipse fill="cadetblue" stroke="black" cx="136.775" cy="-151.635" rx="21.4286" ry="21.4286"/>
<text text-anchor="middle" x="136.775" y="-146.635" font-family="Times New Roman,serif" font-size="20.00">2</text>
</g>
<!-- 0&#45;&gt;7 -->
<g id="edge5" class="edge"><title>0&#45;&gt;7</title>
<path fill="none" stroke="black" stroke-width="2" d="M91.5907,-58.5325C100.219,-76.3103 113.123,-102.9 122.935,-123.118"/>
<polygon fill="black" stroke="black" stroke-width="2" points="119.82,-124.716 127.335,-132.184 126.118,-121.659 119.82,-124.716"/>
</g>
<!-- 1 -->
<g id="node2" class="node"><title>1</title>
<ellipse fill="cadetblue" stroke="black" cx="220.894" cy="-157.837" rx="21.4286" ry="21.4286"/>
<text text-anchor="middle" x="220.894" y="-152.837" font-family="Times New Roman,serif" font-size="20.00">2</text>
</g>
<!-- 1&#45;&gt;6 -->
<g id="edge8" class="edge"><title>1&#45;&gt;6</title>
<path fill="none" stroke="black" stroke-width="2" d="M214.282,-137.383C206.933,-114.645 194.988,-77.6905 186.547,-51.5752"/>
<polygon fill="black" stroke="black" stroke-width="2" points="189.795,-50.2457 183.389,-41.8069 183.135,-52.3987 189.795,-50.2457"/>
</g>
<!-- 1&#45;&gt;7 -->
<g id="edge9" class="edge"><title>1&#45;&gt;7</title>
<path fill="none" stroke="black" stroke-width="2" d="M199.667,-156.272C190.103,-155.567 178.617,-154.72 168.092,-153.944"/>
<polygon fill="black" stroke="black" stroke-width="2" points="168.225,-150.445 157.995,-153.2 167.711,-157.426 168.225,-150.445"/>
</g>
<!-- 2 -->
<g id="node3" class="node"><title>2</title>
<ellipse fill="brown" stroke="black" cx="85.6819" cy="-89.6365" rx="21.4286" ry="21.4286"/>
<text text-anchor="middle" x="85.6819" y="-84.6365" font-family="Times New Roman,serif" font-size="20.00">3</text>
</g>
<!-- 2&#45;&gt;0 -->
<g id="edge1" class="edge"><title>2&#45;&gt;0</title>
<path fill="none" stroke="black" stroke-width="2" d="M84.2098,-68.249C84.1987,-68.088 84.1876,-67.9267 84.1765,-67.7652"/>
<polygon fill="black" stroke="black" stroke-width="2" points="87.8526,-70.2007 83.674,-60.4646 80.8691,-70.6814 87.8526,-70.2007"/>
</g>
<!-- 2&#45;&gt;5 -->
<g id="edge11" class="edge"><title>2&#45;&gt;5</title>
<path fill="none" stroke="black" stroke-width="2" d="M70.4037,-104.368C62.5704,-111.921 52.8695,-121.275 44.1583,-129.675"/>
<polygon fill="black" stroke="black" stroke-width="2" points="41.5988,-127.281 36.8296,-136.742 46.4576,-132.32 41.5988,-127.281"/>
</g>
<!-- 3 -->
<g id="node4" class="node"><title>3</title>
<ellipse fill="cadetblue" stroke="black" cx="116.901" cy="-232.62" rx="21.4286" ry="21.4286"/>
<text text-anchor="middle" x="116.901" y="-227.62" font-family="Times New Roman,serif" font-size="20.00">2</text>
</g>
<!-- 3&#45;&gt;1 -->
<g id="edge6" class="edge"><title>3&#45;&gt;1</title>
<path fill="none" stroke="black" stroke-width="2" d="M134.542,-219.934C151.226,-207.937 176.451,-189.797 195.336,-176.216"/>
<polygon fill="black" stroke="black" stroke-width="2" points="197.438,-179.015 203.513,-170.335 193.351,-173.332 197.438,-179.015"/>
</g>
<!-- 4 -->
<g id="node5" class="node"><title>4</title>
<ellipse fill="cadetblue" stroke="black" cx="189.179" cy="-80.4084" rx="21.4286" ry="21.4286"/>
<text text-anchor="middle" x="189.179" y="-75.4084" font-family="Times New Roman,serif" font-size="20.00">2</text>
</g>
<!-- 4&#45;&gt;0 -->
<g id="edge2" class="edge"><title>4&#45;&gt;0</title>
<path fill="none" stroke="black" stroke-width="2" d="M169.31,-72.7549C153.126,-66.5211 130.037,-57.6273 111.697,-50.5629"/>
<polygon fill="black" stroke="black" stroke-width="2" points="112.926,-47.2858 102.337,-46.9574 110.41,-53.818 112.926,-47.2858"/>
</g>
<!-- 4&#45;&gt;1 -->
<g id="edge7" class="edge"><title>4&#45;&gt;1</title>
<path fill="none" stroke="black" stroke-width="2" d="M197.347,-100.348C200.861,-108.928 205.04,-119.131 208.895,-128.544"/>
<polygon fill="black" stroke="black" stroke-width="2" points="205.725,-130.037 212.754,-137.965 212.203,-127.384 205.725,-130.037"/>
</g>
<!-- 4&#45;&gt;2 -->
<g id="edge10" class="edge"><title>4&#45;&gt;2</title>
<path fill="none" stroke="black" stroke-width="2" d="M167.985,-82.2981C153.334,-83.6044 133.593,-85.3647 117.117,-86.8337"/>
<polygon fill="black" stroke="black" stroke-width="2" points="116.497,-83.375 106.848,-87.7493 117.119,-90.3473 116.497,-83.375"/>
</g>
<!-- 5&#45;&gt;3 -->
<g id="edge14" class="edge"><title>5&#45;&gt;3</title>
<path fill="none" stroke="black" stroke-width="2" d="M37.4454,-165.51C52.5668,-178.282 75.3138,-197.494 92.5996,-212.094"/>
<polygon fill="black" stroke="black" stroke-width="2" points="90.6913,-215.064 100.589,-218.843 95.2082,-209.716 90.6913,-215.064"/>
</g>
<!-- 6&#45;&gt;2 -->
<g id="edge12" class="edge"><title>6&#45;&gt;2</title>
<path fill="none" stroke="black" stroke-width="2" d="M159.607,-34.0831C145.872,-44.4047 126.395,-59.0414 110.881,-70.7"/>
<polygon fill="black" stroke="black" stroke-width="2" points="108.623,-68.0187 102.731,-76.8243 112.828,-73.6147 108.623,-68.0187"/>
</g>
<!-- 6&#45;&gt;4 -->
<g id="edge16" class="edge"><title>6&#45;&gt;4</title>
<path fill="none" stroke="black" stroke-width="2" d="M181.156,-42.2499C181.651,-44.6052 182.163,-47.0396 182.678,-49.486"/>
<polygon fill="black" stroke="black" stroke-width="2" points="179.288,-50.3736 184.77,-59.4395 186.138,-48.9332 179.288,-50.3736"/>
</g>
<!-- 7&#45;&gt;2 -->
<g id="edge13" class="edge"><title>7&#45;&gt;2</title>
<path fill="none" stroke="black" stroke-width="2" d="M123.083,-135.021C117.814,-128.627 111.681,-121.185 105.923,-114.198"/>
<polygon fill="black" stroke="black" stroke-width="2" points="108.473,-111.788 99.4118,-106.297 103.071,-116.24 108.473,-111.788"/>
</g>
<!-- 7&#45;&gt;3 -->
<g id="edge15" class="edge"><title>7&#45;&gt;3</title>
<path fill="none" stroke="black" stroke-width="2" d="M131.657,-172.491C129.455,-181.465 126.836,-192.137 124.42,-201.981"/>
<polygon fill="black" stroke="black" stroke-width="2" points="120.986,-201.289 122.002,-211.835 127.784,-202.958 120.986,-201.289"/>
</g>
<!-- 7&#45;&gt;4 -->
<g id="edge17" class="edge"><title>7&#45;&gt;4</title>
<path fill="none" stroke="black" stroke-width="2" d="M149.461,-134.393C155.676,-125.945 163.289,-115.598 170.181,-106.231"/>
<polygon fill="black" stroke="black" stroke-width="2" points="173.14,-108.116 176.247,-97.9865 167.501,-103.967 173.14,-108.116"/>
</g>
</g>
</svg>

