<?xml version="1.0" encoding="UTF-8" standalone="no"?>
<!DOCTYPE svg PUBLIC "-//W3C//DTD SVG 1.1//EN"
 "http://www.w3.org/Graphics/SVG/1.1/DTD/svg11.dtd">
<!-- Generated by graphviz version 2.36.0 (20140111.2315)
 -->
<!-- Title: G Pages: 1 -->
<svg width="100%" height="100%"
 viewBox="0.00 0.00 251.04 295.59" xmlns="http://www.w3.org/2000/svg" xmlns:xlink="http://www.w3.org/1999/xlink">
<g id="graph0" class="graph" transform="scale(1 1) rotate(0) translate(4 291.586)">
<title>G</title>
<!-- 0 -->
<g id="node1" class="node"><title>0</title>
<ellipse fill="cadetblue" stroke="black" cx="117.283" cy="-82.1181" rx="21.4286" ry="21.4286"/>
<text text-anchor="middle" x="117.283" y="-77.1181" font-family="Times New Roman,serif" font-size="20.00">2</text>
</g>
<!-- 5 -->
<g id="node6" class="node"><title>5</title>
<ellipse fill="cadetblue" stroke="black" cx="71.6447" cy="-185.061" rx="21.4286" ry="21.4286"/>
<text text-anchor="middle" x="71.6447" y="-180.061" font-family="Times New Roman,serif" font-size="20.00">2</text>
</g>
<!-- 0&#45;&gt;5 -->
<g id="edge3" class="edge"><title>0&#45;&gt;5</title>
<path fill="none" stroke="black" stroke-width="2" d="M108.483,-101.967C101.684,-117.302 92.1745,-138.753 84.5202,-156.019"/>
<polygon fill="black" stroke="black" stroke-width="2" points="81.1156,-155.062 80.2624,-165.623 87.515,-157.9 81.1156,-155.062"/>
</g>
<!-- 6 -->
<g id="node7" class="node"><title>6</title>
<ellipse fill="cadetblue" stroke="black" cx="30.102" cy="-99.3287" rx="21.4286" ry="21.4286"/>
<text text-anchor="middle" x="30.102" y="-94.3287" font-family="Times New Roman,serif" font-size="20.00">2</text>
</g>
<!-- 0&#45;&gt;6 -->
<g id="edge4" class="edge"><title>0&#45;&gt;6</title>
<path fill="none" stroke="black" stroke-width="2" d="M96.1788,-86.2843C85.5773,-88.3772 72.5321,-90.9524 60.8413,-93.2604"/>
<polygon fill="black" stroke="black" stroke-width="2" points="60.1445,-89.8303 51.0117,-95.2009 61.5002,-96.6978 60.1445,-89.8303"/>
</g>
<!-- 7 -->
<g id="node8" class="node"><title>7</title>
<ellipse fill="brown" stroke="black" cx="139.806" cy="-153.813" rx="21.4286" ry="21.4286"/>
<text text-anchor="middle" x="139.806" y="-148.813" font-family="Times New Roman,serif" font-size="20.00">3</text>
</g>
<!-- 0&#45;&gt;7 -->
<g id="edge5" class="edge"><title>0&#45;&gt;7</title>
<path fill="none" stroke="black" stroke-width="2" d="M123.677,-102.471C125.704,-108.924 127.992,-116.207 130.194,-123.216"/>
<polygon fill="black" stroke="black" stroke-width="2" points="126.981,-124.669 133.318,-133.16 133.66,-122.571 126.981,-124.669"/>
</g>
<!-- 1 -->
<g id="node2" class="node"><title>1</title>
<ellipse fill="cadetblue" stroke="black" cx="21.2132" cy="-220.312" rx="21.4286" ry="21.4286"/>
<text text-anchor="middle" x="21.2132" y="-215.312" font-family="Times New Roman,serif" font-size="20.00">2</text>
</g>
<!-- 1&#45;&gt;6 -->
<g id="edge8" class="edge"><title>1&#45;&gt;6</title>
<path fill="none" stroke="black" stroke-width="2" d="M22.7819,-198.961C24.1633,-180.159 26.1943,-152.516 27.7667,-131.114"/>
<polygon fill="black" stroke="black" stroke-width="2" points="31.2769,-131.103 28.5191,-120.873 24.2957,-130.59 31.2769,-131.103"/>
</g>
<!-- 1&#45;&gt;7 -->
<g id="edge9" class="edge"><title>1&#45;&gt;7</title>
<path fill="none" stroke="black" stroke-width="2" d="M42.6472,-219.006C57.0968,-217.25 76.0282,-213.172 90.1616,-203.744 100.858,-196.609 111.146,-186.908 119.555,-177.953"/>
<polygon fill="black" stroke="black" stroke-width="2" points="122.311,-180.124 126.424,-170.36 117.12,-175.428 122.311,-180.124"/>
</g>
<!-- 2 -->
<g id="node3" class="node"><title>2</title>
<ellipse fill="cadetblue" stroke="black" cx="129.112" cy="-21.2132" rx="21.4286" ry="21.4286"/>
<text text-anchor="middle" x="129.112" y="-16.2132" font-family="Times New Roman,serif" font-size="20.00">2</text>
</g>
<!-- 2&#45;&gt;0 -->
<g id="edge1" class="edge"><title>2&#45;&gt;0</title>
<path fill="none" stroke="black" stroke-width="2" d="M125.041,-42.1732C124.49,-45.012 123.914,-47.973 123.338,-50.9433"/>
<polygon fill="black" stroke="black" stroke-width="2" points="119.872,-50.4288 121.401,-60.9127 126.744,-51.7634 119.872,-50.4288"/>
</g>
<!-- 4 -->
<g id="node5" class="node"><title>4</title>
<ellipse fill="cadetblue" stroke="black" cx="221.827" cy="-80.189" rx="21.4286" ry="21.4286"/>
<text text-anchor="middle" x="221.827" y="-75.189" font-family="Times New Roman,serif" font-size="20.00">2</text>
</g>
<!-- 2&#45;&gt;4 -->
<g id="edge10" class="edge"><title>2&#45;&gt;4</title>
<path fill="none" stroke="black" stroke-width="2" d="M147.429,-32.8649C161.105,-41.564 179.996,-53.5804 195.319,-63.3276"/>
<polygon fill="black" stroke="black" stroke-width="2" points="193.546,-66.3481 203.863,-68.7622 197.304,-60.4418 193.546,-66.3481"/>
</g>
<!-- 3 -->
<g id="node4" class="node"><title>3</title>
<ellipse fill="cadetblue" stroke="black" cx="126.375" cy="-266.373" rx="21.4286" ry="21.4286"/>
<text text-anchor="middle" x="126.375" y="-261.373" font-family="Times New Roman,serif" font-size="20.00">2</text>
</g>
<!-- 3&#45;&gt;1 -->
<g id="edge6" class="edge"><title>3&#45;&gt;1</title>
<path fill="none" stroke="black" stroke-width="2" d="M106.595,-257.709C90.7314,-250.761 68.2358,-240.908 50.3173,-233.06"/>
<polygon fill="black" stroke="black" stroke-width="2" points="51.4688,-229.743 40.9047,-228.937 48.6604,-236.155 51.4688,-229.743"/>
</g>
<!-- 4&#45;&gt;0 -->
<g id="edge2" class="edge"><title>4&#45;&gt;0</title>
<path fill="none" stroke="black" stroke-width="2" d="M200.418,-80.584C185.619,-80.8571 165.678,-81.2251 149.035,-81.5322"/>
<polygon fill="black" stroke="black" stroke-width="2" points="148.596,-78.0396 138.662,-81.7236 148.725,-85.0384 148.596,-78.0396"/>
</g>
<!-- 5&#45;&gt;1 -->
<g id="edge7" class="edge"><title>5&#45;&gt;1</title>
<path fill="none" stroke="black" stroke-width="2" d="M54.0062,-197.39C51.8688,-198.884 49.6513,-200.434 47.4234,-201.992"/>
<polygon fill="black" stroke="black" stroke-width="2" points="45.118,-199.333 38.927,-207.931 49.1284,-205.07 45.118,-199.333"/>
</g>
<!-- 5&#45;&gt;3 -->
<g id="edge13" class="edge"><title>5&#45;&gt;3</title>
<path fill="none" stroke="black" stroke-width="2" d="M83.5204,-202.705C90.9075,-213.68 100.54,-227.99 108.801,-240.264"/>
<polygon fill="black" stroke="black" stroke-width="2" points="106.035,-242.423 114.523,-248.764 111.842,-238.514 106.035,-242.423"/>
</g>
<!-- 6&#45;&gt;2 -->
<g id="edge11" class="edge"><title>6&#45;&gt;2</title>
<path fill="none" stroke="black" stroke-width="2" d="M46.8977,-86.0775C62.544,-73.733 86.0807,-55.1633 103.967,-41.0519"/>
<polygon fill="black" stroke="black" stroke-width="2" points="106.551,-43.4712 112.234,-34.5294 102.215,-37.9757 106.551,-43.4712"/>
</g>
<!-- 6&#45;&gt;5 -->
<g id="edge16" class="edge"><title>6&#45;&gt;5</title>
<path fill="none" stroke="black" stroke-width="2" d="M39.5287,-118.783C44.9464,-129.963 51.8494,-144.209 57.8662,-156.627"/>
<polygon fill="black" stroke="black" stroke-width="2" points="54.7449,-158.211 62.2553,-165.684 61.0443,-155.159 54.7449,-158.211"/>
</g>
<!-- 6&#45;&gt;7 -->
<g id="edge17" class="edge"><title>6&#45;&gt;7</title>
<path fill="none" stroke="black" stroke-width="2" d="M49.211,-108.819C66.4093,-117.361 91.9111,-130.026 111.48,-139.745"/>
<polygon fill="black" stroke="black" stroke-width="2" points="110.035,-142.935 120.548,-144.249 113.148,-136.666 110.035,-142.935"/>
</g>
<!-- 7&#45;&gt;2 -->
<g id="edge12" class="edge"><title>7&#45;&gt;2</title>
<path fill="none" stroke="black" stroke-width="2" d="M142.526,-132.458C143.952,-118.192 145.115,-99.019 143.587,-82.1421 142.673,-72.0432 140.504,-61.2158 138.115,-51.531"/>
<polygon fill="black" stroke="black" stroke-width="2" points="141.42,-50.3364 135.486,-41.5591 134.651,-52.121 141.42,-50.3364"/>
</g>
<!-- 7&#45;&gt;3 -->
<g id="edge14" class="edge"><title>7&#45;&gt;3</title>
<path fill="none" stroke="black" stroke-width="2" d="M137.28,-174.985C135.254,-191.964 132.381,-216.043 130.092,-235.222"/>
<polygon fill="black" stroke="black" stroke-width="2" points="126.6,-234.952 128.89,-245.296 133.55,-235.781 126.6,-234.952"/>
</g>
<!-- 7&#45;&gt;4 -->
<g id="edge15" class="edge"><title>7&#45;&gt;4</title>
<path fill="none" stroke="black" stroke-width="2" d="M155.62,-139.618C167.684,-128.789 184.496,-113.698 198.159,-101.433"/>
<polygon fill="black" stroke="black" stroke-width="2" points="200.677,-103.877 205.781,-94.5921 196.001,-98.6675 200.677,-103.877"/>
</g>
</g>
</svg>

