<?xml version="1.0" encoding="UTF-8" standalone="no"?>
<!DOCTYPE svg PUBLIC "-//W3C//DTD SVG 1.1//EN"
 "http://www.w3.org/Graphics/SVG/1.1/DTD/svg11.dtd">
<!-- Generated by graphviz version 2.36.0 (20140111.2315)
 -->
<!-- Title: G Pages: 1 -->
<svg width="100%" height="100%"
 viewBox="0.00 0.00 162.72 241.74" xmlns="http://www.w3.org/2000/svg" xmlns:xlink="http://www.w3.org/1999/xlink">
<g id="graph0" class="graph" transform="scale(1 1) rotate(0) translate(4 237.737)">
<title>G</title>
<!-- 0 -->
<g id="node1" class="node"><title>0</title>
<ellipse fill="cadetblue" stroke="black" cx="56.8822" cy="-65.9087" rx="21.4286" ry="21.4286"/>
<text text-anchor="middle" x="56.8822" y="-60.9087" font-family="Times New Roman,serif" font-size="20.00">2</text>
</g>
<!-- 5 -->
<g id="node6" class="node"><title>5</title>
<ellipse fill="cadetblue" stroke="black" cx="21.2132" cy="-133.802" rx="21.4286" ry="21.4286"/>
<text text-anchor="middle" x="21.2132" y="-128.802" font-family="Times New Roman,serif" font-size="20.00">2</text>
</g>
<!-- 0&#45;&gt;5 -->
<g id="edge3" class="edge"><title>0&#45;&gt;5</title>
<path fill="none" stroke="black" stroke-width="2" d="M46.9464,-84.8208C43.5452,-91.2948 39.6636,-98.6831 35.9645,-105.724"/>
<polygon fill="black" stroke="black" stroke-width="2" points="32.6482,-104.511 31.0957,-114.991 38.8451,-107.767 32.6482,-104.511"/>
</g>
<!-- 6 -->
<g id="node7" class="node"><title>6</title>
<ellipse fill="cadetblue" stroke="black" cx="133.509" cy="-158.947" rx="21.4286" ry="21.4286"/>
<text text-anchor="middle" x="133.509" y="-153.947" font-family="Times New Roman,serif" font-size="20.00">2</text>
</g>
<!-- 0&#45;&gt;6 -->
<g id="edge4" class="edge"><title>0&#45;&gt;6</title>
<path fill="none" stroke="black" stroke-width="2" d="M72.9404,-80.4458C80.654,-87.7608 89.8181,-96.9567 97.2735,-105.902 104.057,-114.041 110.796,-123.444 116.589,-132.052"/>
<polygon fill="black" stroke="black" stroke-width="2" points="113.826,-134.219 122.247,-140.649 119.673,-130.371 113.826,-134.219"/>
</g>
<!-- 7 -->
<g id="node8" class="node"><title>7</title>
<ellipse fill="cadetblue" stroke="black" cx="78.6727" cy="-124.501" rx="21.4286" ry="21.4286"/>
<text text-anchor="middle" x="78.6727" y="-119.501" font-family="Times New Roman,serif" font-size="20.00">2</text>
</g>
<!-- 0&#45;&gt;7 -->
<g id="edge5" class="edge"><title>0&#45;&gt;7</title>
<path fill="none" stroke="black" stroke-width="2" d="M64.3813,-86.0727C65.4546,-88.9589 66.5768,-91.9764 67.7002,-94.9969"/>
<polygon fill="black" stroke="black" stroke-width="2" points="64.4673,-96.3452 71.2336,-104.498 71.0283,-93.9051 64.4673,-96.3452"/>
</g>
<!-- 1 -->
<g id="node2" class="node"><title>1</title>
<ellipse fill="cadetblue" stroke="black" cx="35.763" cy="-201.087" rx="21.4286" ry="21.4286"/>
<text text-anchor="middle" x="35.763" y="-196.087" font-family="Times New Roman,serif" font-size="20.00">2</text>
</g>
<!-- 1&#45;&gt;6 -->
<g id="edge8" class="edge"><title>1&#45;&gt;6</title>
<path fill="none" stroke="black" stroke-width="2" d="M55.5434,-192.56C69.5872,-186.505 88.6701,-178.278 104.441,-171.479"/>
<polygon fill="black" stroke="black" stroke-width="2" points="105.961,-174.635 113.758,-167.462 103.19,-168.207 105.961,-174.635"/>
</g>
<!-- 1&#45;&gt;7 -->
<g id="edge9" class="edge"><title>1&#45;&gt;7</title>
<path fill="none" stroke="black" stroke-width="2" d="M46.1502,-182.548C51.2775,-173.396 57.5661,-162.172 63.2424,-152.041"/>
<polygon fill="black" stroke="black" stroke-width="2" points="66.3978,-153.57 68.2324,-143.135 60.291,-150.148 66.3978,-153.57"/>
</g>
<!-- 2 -->
<g id="node3" class="node"><title>2</title>
<ellipse fill="brown" stroke="black" cx="129.104" cy="-84.9536" rx="21.4286" ry="21.4286"/>
<text text-anchor="middle" x="129.104" y="-79.9536" font-family="Times New Roman,serif" font-size="20.00">3</text>
</g>
<!-- 2&#45;&gt;0 -->
<g id="edge1" class="edge"><title>2&#45;&gt;0</title>
<path fill="none" stroke="black" stroke-width="2" d="M108.215,-79.445C101.721,-77.7326 94.4233,-75.8083 87.4132,-73.9597"/>
<polygon fill="black" stroke="black" stroke-width="2" points="88.0374,-70.5047 77.4754,-71.3391 86.2524,-77.2733 88.0374,-70.5047"/>
</g>
<!-- 4 -->
<g id="node5" class="node"><title>4</title>
<ellipse fill="cadetblue" stroke="black" cx="108.286" cy="-21.2132" rx="21.4286" ry="21.4286"/>
<text text-anchor="middle" x="108.286" y="-16.2132" font-family="Times New Roman,serif" font-size="20.00">2</text>
</g>
<!-- 2&#45;&gt;4 -->
<g id="edge10" class="edge"><title>2&#45;&gt;4</title>
<path fill="none" stroke="black" stroke-width="2" d="M122.517,-64.7858C121.112,-60.4843 119.6,-55.8525 118.103,-51.2709"/>
<polygon fill="black" stroke="black" stroke-width="2" points="121.334,-49.8879 114.902,-41.4687 114.679,-52.0612 121.334,-49.8879"/>
</g>
<!-- 3 -->
<g id="node4" class="node"><title>3</title>
<ellipse fill="brown" stroke="black" cx="91.5653" cy="-212.524" rx="21.4286" ry="21.4286"/>
<text text-anchor="middle" x="91.5653" y="-207.524" font-family="Times New Roman,serif" font-size="20.00">3</text>
</g>
<!-- 3&#45;&gt;1 -->
<g id="edge6" class="edge"><title>3&#45;&gt;1</title>
<path fill="none" stroke="black" stroke-width="2" d="M70.4688,-208.2C69.3577,-207.973 68.2313,-207.742 67.0972,-207.509"/>
<polygon fill="black" stroke="black" stroke-width="2" points="67.3884,-203.996 56.8893,-205.417 65.9829,-210.854 67.3884,-203.996"/>
</g>
<!-- 4&#45;&gt;0 -->
<g id="edge2" class="edge"><title>4&#45;&gt;0</title>
<path fill="none" stroke="black" stroke-width="2" d="M92.0217,-35.3551C88.459,-38.4529 84.6153,-41.7949 80.823,-45.0923"/>
<polygon fill="black" stroke="black" stroke-width="2" points="78.4673,-42.5026 73.2174,-51.7053 83.0603,-47.785 78.4673,-42.5026"/>
</g>
<!-- 5&#45;&gt;1 -->
<g id="edge7" class="edge"><title>5&#45;&gt;1</title>
<path fill="none" stroke="black" stroke-width="2" d="M25.7371,-154.723C26.7944,-159.613 27.9427,-164.923 29.0721,-170.146"/>
<polygon fill="black" stroke="black" stroke-width="2" points="25.6572,-170.914 31.1918,-179.948 32.4991,-169.434 25.6572,-170.914"/>
</g>
<!-- 5&#45;&gt;2 -->
<g id="edge11" class="edge"><title>5&#45;&gt;2</title>
<path fill="none" stroke="black" stroke-width="2" d="M38.0608,-120.414C44.6964,-115.491 52.5252,-110.099 60.0735,-105.9 71.7875,-99.3831 85.773,-94.6542 98.083,-91.3572"/>
<polygon fill="black" stroke="black" stroke-width="2" points="99.0766,-94.717 107.943,-88.9167 97.3947,-87.922 99.0766,-94.717"/>
</g>
<!-- 5&#45;&gt;3 -->
<g id="edge14" class="edge"><title>5&#45;&gt;3</title>
<path fill="none" stroke="black" stroke-width="2" d="M35.45,-149.733C45.5579,-161.043 59.2926,-176.412 70.6437,-189.114"/>
<polygon fill="black" stroke="black" stroke-width="2" points="68.0764,-191.493 77.3497,-196.617 73.2958,-186.829 68.0764,-191.493"/>
</g>
<!-- 6&#45;&gt;2 -->
<g id="edge12" class="edge"><title>6&#45;&gt;2</title>
<path fill="none" stroke="black" stroke-width="2" d="M132.235,-137.545C131.843,-130.95 131.402,-123.544 130.977,-116.419"/>
<polygon fill="black" stroke="black" stroke-width="2" points="134.464,-116.082 130.375,-106.308 127.476,-116.498 134.464,-116.082"/>
</g>
<!-- 6&#45;&gt;3 -->
<g id="edge15" class="edge"><title>6&#45;&gt;3</title>
<path fill="none" stroke="black" stroke-width="2" d="M120.238,-175.899C117.331,-179.613 114.195,-183.619 111.1,-187.571"/>
<polygon fill="black" stroke="black" stroke-width="2" points="108.303,-185.467 104.894,-195.499 113.815,-189.782 108.303,-185.467"/>
</g>
<!-- 7&#45;&gt;2 -->
<g id="edge13" class="edge"><title>7&#45;&gt;2</title>
<path fill="none" stroke="black" stroke-width="2" d="M95.4656,-111.332C98.2432,-109.154 101.175,-106.855 104.103,-104.559"/>
<polygon fill="black" stroke="black" stroke-width="2" points="106.503,-107.125 112.213,-98.1996 102.184,-101.616 106.503,-107.125"/>
</g>
<!-- 7&#45;&gt;3 -->
<g id="edge16" class="edge"><title>7&#45;&gt;3</title>
<path fill="none" stroke="black" stroke-width="2" d="M81.7936,-145.809C83.3614,-156.513 85.2906,-169.684 87.0195,-181.488"/>
<polygon fill="black" stroke="black" stroke-width="2" points="83.5607,-182.025 88.4731,-191.412 90.4868,-181.011 83.5607,-182.025"/>
</g>
<!-- 7&#45;&gt;4 -->
<g id="edge17" class="edge"><title>7&#45;&gt;4</title>
<path fill="none" stroke="black" stroke-width="2" d="M84.5234,-104.094C88.7948,-89.1963 94.6591,-68.7428 99.4931,-51.8825"/>
<polygon fill="black" stroke="black" stroke-width="2" points="102.955,-52.508 102.346,-41.9306 96.2258,-50.5787 102.955,-52.508"/>
</g>
<!-- 7&#45;&gt;5 -->
<g id="edge18" class="edge"><title>7&#45;&gt;5</title>
<path fill="none" stroke="black" stroke-width="2" d="M57.6032,-127.911C55.8856,-128.189 54.1286,-128.474 52.3594,-128.76"/>
<polygon fill="black" stroke="black" stroke-width="2" points="51.5923,-125.339 42.2802,-130.392 52.711,-132.249 51.5923,-125.339"/>
</g>
</g>
</svg>

