<?xml version="1.0" encoding="UTF-8" standalone="no"?>
<!DOCTYPE svg PUBLIC "-//W3C//DTD SVG 1.1//EN"
 "http://www.w3.org/Graphics/SVG/1.1/DTD/svg11.dtd">
<!-- Generated by graphviz version 2.36.0 (20140111.2315)
 -->
<!-- Title: G Pages: 1 -->
<svg width="100%" height="100%"
 viewBox="0.00 0.00 205.85 252.77" xmlns="http://www.w3.org/2000/svg" xmlns:xlink="http://www.w3.org/1999/xlink">
<g id="graph0" class="graph" transform="scale(1 1) rotate(0) translate(4 248.774)">
<title>G</title>
<!-- 0 -->
<g id="node1" class="node"><title>0</title>
<ellipse fill="cadetblue" stroke="black" cx="51.8493" cy="-32.0763" rx="21.4286" ry="21.4286"/>
<text text-anchor="middle" x="51.8493" y="-27.0763" font-family="Times New Roman,serif" font-size="20.00">2</text>
</g>
<!-- 4 -->
<g id="node5" class="node"><title>4</title>
<ellipse fill="cadetblue" stroke="black" cx="111.051" cy="-91.8447" rx="21.4286" ry="21.4286"/>
<text text-anchor="middle" x="111.051" y="-86.8447" font-family="Times New Roman,serif" font-size="20.00">2</text>
</g>
<!-- 0&#45;&gt;4 -->
<g id="edge2" class="edge"><title>0&#45;&gt;4</title>
<path fill="none" stroke="black" stroke-width="2" d="M66.7883,-47.1584C73.4678,-53.9018 81.4798,-61.9906 88.8405,-69.4218"/>
<polygon fill="black" stroke="black" stroke-width="2" points="86.3866,-71.9179 95.9105,-76.5595 91.3599,-66.9918 86.3866,-71.9179"/>
</g>
<!-- 6 -->
<g id="node7" class="node"><title>6</title>
<ellipse fill="cadetblue" stroke="black" cx="176.639" cy="-112.334" rx="21.4286" ry="21.4286"/>
<text text-anchor="middle" x="176.639" y="-107.334" font-family="Times New Roman,serif" font-size="20.00">2</text>
</g>
<!-- 0&#45;&gt;6 -->
<g id="edge4" class="edge"><title>0&#45;&gt;6</title>
<path fill="none" stroke="black" stroke-width="2" d="M71.3914,-41.047C87.5605,-48.7927 110.867,-60.7157 129.834,-73.4295 137.656,-78.673 145.705,-84.9809 152.874,-90.9766"/>
<polygon fill="black" stroke="black" stroke-width="2" points="150.951,-93.9374 160.82,-97.789 155.507,-88.6231 150.951,-93.9374"/>
</g>
<!-- 7 -->
<g id="node8" class="node"><title>7</title>
<ellipse fill="cadetblue" stroke="black" cx="82.3075" cy="-142.276" rx="21.4286" ry="21.4286"/>
<text text-anchor="middle" x="82.3075" y="-137.276" font-family="Times New Roman,serif" font-size="20.00">2</text>
</g>
<!-- 0&#45;&gt;7 -->
<g id="edge5" class="edge"><title>0&#45;&gt;7</title>
<path fill="none" stroke="black" stroke-width="2" d="M57.5069,-52.5458C62.115,-69.2184 68.6895,-93.0052 73.9116,-111.899"/>
<polygon fill="black" stroke="black" stroke-width="2" points="70.5393,-112.836 76.5769,-121.542 77.2863,-110.971 70.5393,-112.836"/>
</g>
<!-- 1 -->
<g id="node2" class="node"><title>1</title>
<ellipse fill="brown" stroke="black" cx="96.0251" cy="-223.561" rx="21.4286" ry="21.4286"/>
<text text-anchor="middle" x="96.0251" y="-218.561" font-family="Times New Roman,serif" font-size="20.00">3</text>
</g>
<!-- 1&#45;&gt;7 -->
<g id="edge9" class="edge"><title>1&#45;&gt;7</title>
<path fill="none" stroke="black" stroke-width="2" d="M92.4925,-202.628C91.0001,-193.785 89.2305,-183.298 87.5884,-173.568"/>
<polygon fill="black" stroke="black" stroke-width="2" points="90.9912,-172.699 85.8758,-163.42 84.0888,-173.864 90.9912,-172.699"/>
</g>
<!-- 2 -->
<g id="node3" class="node"><title>2</title>
<ellipse fill="dodgerblue" stroke="black" cx="126.245" cy="-21.2132" rx="21.4286" ry="21.4286"/>
<text text-anchor="middle" x="126.245" y="-16.2132" font-family="Times New Roman,serif" font-size="20.00">4</text>
</g>
<!-- 2&#45;&gt;0 -->
<g id="edge1" class="edge"><title>2&#45;&gt;0</title>
<path fill="none" stroke="black" stroke-width="2" d="M105.125,-24.2971C98.2926,-25.2947 90.5641,-26.4232 83.1556,-27.505"/>
<polygon fill="black" stroke="black" stroke-width="2" points="82.4112,-24.0765 73.0218,-28.9847 83.4226,-31.0031 82.4112,-24.0765"/>
</g>
<!-- 3 -->
<g id="node4" class="node"><title>3</title>
<ellipse fill="cadetblue" stroke="black" cx="159.047" cy="-202.914" rx="21.4286" ry="21.4286"/>
<text text-anchor="middle" x="159.047" y="-197.914" font-family="Times New Roman,serif" font-size="20.00">2</text>
</g>
<!-- 3&#45;&gt;1 -->
<g id="edge6" class="edge"><title>3&#45;&gt;1</title>
<path fill="none" stroke="black" stroke-width="2" d="M138.76,-209.56C134.712,-210.886 130.379,-212.306 126.083,-213.713"/>
<polygon fill="black" stroke="black" stroke-width="2" points="124.688,-210.487 116.275,-216.927 126.867,-217.139 124.688,-210.487"/>
</g>
<!-- 5 -->
<g id="node6" class="node"><title>5</title>
<ellipse fill="brown" stroke="black" cx="21.2132" cy="-111.917" rx="21.4286" ry="21.4286"/>
<text text-anchor="middle" x="21.2132" y="-106.917" font-family="Times New Roman,serif" font-size="20.00">3</text>
</g>
<!-- 3&#45;&gt;5 -->
<g id="edge14" class="edge"><title>3&#45;&gt;5</title>
<path fill="none" stroke="black" stroke-width="2" d="M138.707,-196.862C118.417,-190.184 86.9975,-178.059 63.7066,-160.875 54.8763,-154.361 46.6084,-145.707 39.7553,-137.488"/>
<polygon fill="black" stroke="black" stroke-width="2" points="42.3714,-135.154 33.4055,-129.509 36.8943,-139.513 42.3714,-135.154"/>
</g>
<!-- 4&#45;&gt;1 -->
<g id="edge7" class="edge"><title>4&#45;&gt;1</title>
<path fill="none" stroke="black" stroke-width="2" d="M110.505,-113.479C110.149,-122.411 109.566,-132.858 108.612,-142.277 106.916,-159.015 104.115,-177.562 101.586,-192.708"/>
<polygon fill="black" stroke="black" stroke-width="2" points="98.1324,-192.14 99.8949,-202.587 105.032,-193.321 98.1324,-192.14"/>
</g>
<!-- 4&#45;&gt;2 -->
<g id="edge10" class="edge"><title>4&#45;&gt;2</title>
<path fill="none" stroke="black" stroke-width="2" d="M115.527,-71.0349C116.814,-65.0531 118.245,-58.3993 119.632,-51.9524"/>
<polygon fill="black" stroke="black" stroke-width="2" points="123.066,-52.6307 121.748,-42.1183 116.223,-51.1586 123.066,-52.6307"/>
</g>
<!-- 4&#45;&gt;5 -->
<g id="edge17" class="edge"><title>4&#45;&gt;5</title>
<path fill="none" stroke="black" stroke-width="2" d="M90.2144,-96.5C78.8757,-99.0334 64.6304,-102.216 52.032,-105.031"/>
<polygon fill="black" stroke="black" stroke-width="2" points="50.9327,-101.69 41.9365,-107.287 52.4591,-108.522 50.9327,-101.69"/>
</g>
<!-- 5&#45;&gt;0 -->
<g id="edge3" class="edge"><title>5&#45;&gt;0</title>
<path fill="none" stroke="black" stroke-width="2" d="M28.944,-91.7695C32.4537,-82.6229 36.6744,-71.6234 40.5313,-61.572"/>
<polygon fill="black" stroke="black" stroke-width="2" points="43.9123,-62.5305 44.2271,-51.9404 37.3769,-60.0227 43.9123,-62.5305"/>
</g>
<!-- 5&#45;&gt;2 -->
<g id="edge11" class="edge"><title>5&#45;&gt;2</title>
<path fill="none" stroke="black" stroke-width="2" d="M37.6244,-97.7442C54.9668,-82.7676 82.4907,-58.9984 102.264,-41.9225"/>
<polygon fill="black" stroke="black" stroke-width="2" points="104.668,-44.4711 109.949,-35.2861 100.093,-39.1731 104.668,-44.4711"/>
</g>
<!-- 6&#45;&gt;1 -->
<g id="edge8" class="edge"><title>6&#45;&gt;1</title>
<path fill="none" stroke="black" stroke-width="2" d="M164.043,-129.713C150.732,-148.078 129.607,-177.226 114.431,-198.166"/>
<polygon fill="black" stroke="black" stroke-width="2" points="111.567,-196.153 108.533,-206.303 117.235,-200.26 111.567,-196.153"/>
</g>
<!-- 6&#45;&gt;2 -->
<g id="edge12" class="edge"><title>6&#45;&gt;2</title>
<path fill="none" stroke="black" stroke-width="2" d="M166.197,-93.4536C159.102,-80.6251 149.598,-63.4393 141.639,-49.0485"/>
<polygon fill="black" stroke="black" stroke-width="2" points="144.576,-47.1262 136.673,-40.0693 138.45,-50.5141 144.576,-47.1262"/>
</g>
<!-- 6&#45;&gt;3 -->
<g id="edge15" class="edge"><title>6&#45;&gt;3</title>
<path fill="none" stroke="black" stroke-width="2" d="M172.559,-133.342C170.339,-144.775 167.549,-159.138 165.082,-171.84"/>
<polygon fill="black" stroke="black" stroke-width="2" points="161.576,-171.535 163.105,-182.019 168.448,-172.87 161.576,-171.535"/>
</g>
<!-- 7&#45;&gt;2 -->
<g id="edge13" class="edge"><title>7&#45;&gt;2</title>
<path fill="none" stroke="black" stroke-width="2" d="M81.6701,-120.837C81.827,-111.719 82.582,-101.032 84.7476,-91.5847 88.5327,-75.0728 97.8186,-58.6504 106.649,-45.8282"/>
<polygon fill="black" stroke="black" stroke-width="2" points="109.596,-47.725 112.616,-37.5695 103.922,-43.6254 109.596,-47.725"/>
</g>
<!-- 7&#45;&gt;3 -->
<g id="edge16" class="edge"><title>7&#45;&gt;3</title>
<path fill="none" stroke="black" stroke-width="2" d="M98.9588,-155.434C109.246,-163.562 122.638,-174.144 134.168,-183.255"/>
<polygon fill="black" stroke="black" stroke-width="2" points="132.147,-186.119 142.163,-189.572 136.487,-180.626 132.147,-186.119"/>
</g>
<!-- 7&#45;&gt;4 -->
<g id="edge18" class="edge"><title>7&#45;&gt;4</title>
<path fill="none" stroke="black" stroke-width="2" d="M92.8472,-123.784C93.7064,-122.276 94.5853,-120.734 95.4703,-119.181"/>
<polygon fill="black" stroke="black" stroke-width="2" points="98.6013,-120.756 100.512,-110.335 92.5197,-117.29 98.6013,-120.756"/>
</g>
<!-- 7&#45;&gt;5 -->
<g id="edge19" class="edge"><title>7&#45;&gt;5</title>
<path fill="none" stroke="black" stroke-width="2" d="M62.9769,-132.67C58.7425,-130.566 54.1743,-128.296 49.6671,-126.056"/>
<polygon fill="black" stroke="black" stroke-width="2" points="51.1406,-122.88 40.6278,-121.564 48.0255,-129.149 51.1406,-122.88"/>
</g>
<!-- 7&#45;&gt;6 -->
<g id="edge20" class="edge"><title>7&#45;&gt;6</title>
<path fill="none" stroke="black" stroke-width="2" d="M102.776,-135.779C115.508,-131.738 132.111,-126.468 146.349,-121.948"/>
<polygon fill="black" stroke="black" stroke-width="2" points="147.738,-125.18 156.21,-118.818 145.62,-118.508 147.738,-125.18"/>
</g>
</g>
</svg>

