<?xml version="1.0" encoding="UTF-8" standalone="no"?>
<!DOCTYPE svg PUBLIC "-//W3C//DTD SVG 1.1//EN"
 "http://www.w3.org/Graphics/SVG/1.1/DTD/svg11.dtd">
<!-- Generated by graphviz version 2.36.0 (20140111.2315)
 -->
<!-- Title: G Pages: 1 -->
<svg width="100%" height="100%"
 viewBox="0.00 0.00 239.69 208.66" xmlns="http://www.w3.org/2000/svg" xmlns:xlink="http://www.w3.org/1999/xlink">
<g id="graph0" class="graph" transform="scale(1 1) rotate(0) translate(4 204.662)">
<title>G</title>
<!-- 0 -->
<g id="node1" class="node"><title>0</title>
<ellipse fill="cadetblue" stroke="black" cx="100.808" cy="-29.4223" rx="21.4286" ry="21.4286"/>
<text text-anchor="middle" x="100.808" y="-24.4223" font-family="Times New Roman,serif" font-size="20.00">2</text>
</g>
<!-- 4 -->
<g id="node5" class="node"><title>4</title>
<ellipse fill="cadetblue" stroke="black" cx="210.481" cy="-61.7758" rx="21.4286" ry="21.4286"/>
<text text-anchor="middle" x="210.481" y="-56.7758" font-family="Times New Roman,serif" font-size="20.00">2</text>
</g>
<!-- 0&#45;&gt;4 -->
<g id="edge2" class="edge"><title>0&#45;&gt;4</title>
<path fill="none" stroke="black" stroke-width="2" d="M121.325,-35.8108C132.705,-39.3246 147.122,-43.7277 160.011,-47.5175 166.431,-49.4054 173.325,-51.3846 179.892,-53.247"/>
<polygon fill="black" stroke="black" stroke-width="2" points="179.251,-56.7028 189.826,-56.0476 181.151,-49.9654 179.251,-56.7028"/>
</g>
<!-- 6 -->
<g id="node7" class="node"><title>6</title>
<ellipse fill="cadetblue" stroke="black" cx="150.046" cy="-114.772" rx="21.4286" ry="21.4286"/>
<text text-anchor="middle" x="150.046" y="-109.772" font-family="Times New Roman,serif" font-size="20.00">2</text>
</g>
<!-- 0&#45;&gt;6 -->
<g id="edge4" class="edge"><title>0&#45;&gt;6</title>
<path fill="none" stroke="black" stroke-width="2" d="M111.492,-47.9419C118.138,-59.4618 126.804,-74.4833 134.236,-87.3663"/>
<polygon fill="black" stroke="black" stroke-width="2" points="131.354,-89.3755 139.383,-96.2885 137.418,-85.8775 131.354,-89.3755"/>
</g>
<!-- 7 -->
<g id="node8" class="node"><title>7</title>
<ellipse fill="cadetblue" stroke="black" cx="87.0481" cy="-93.6" rx="21.4286" ry="21.4286"/>
<text text-anchor="middle" x="87.0481" y="-88.6" font-family="Times New Roman,serif" font-size="20.00">2</text>
</g>
<!-- 0&#45;&gt;7 -->
<g id="edge5" class="edge"><title>0&#45;&gt;7</title>
<path fill="none" stroke="black" stroke-width="2" d="M96.3027,-50.4365C95.4625,-54.3549 94.5686,-58.5244 93.6801,-62.6682"/>
<polygon fill="black" stroke="black" stroke-width="2" points="90.1911,-62.2462 91.5168,-72.7578 97.0356,-63.7138 90.1911,-62.2462"/>
</g>
<!-- 1 -->
<g id="node2" class="node"><title>1</title>
<ellipse fill="cadetblue" stroke="black" cx="48.6818" cy="-164.716" rx="21.4286" ry="21.4286"/>
<text text-anchor="middle" x="48.6818" y="-159.716" font-family="Times New Roman,serif" font-size="20.00">2</text>
</g>
<!-- 5 -->
<g id="node6" class="node"><title>5</title>
<ellipse fill="cadetblue" stroke="black" cx="21.2132" cy="-95.8497" rx="21.4286" ry="21.4286"/>
<text text-anchor="middle" x="21.2132" y="-90.8497" font-family="Times New Roman,serif" font-size="20.00">2</text>
</g>
<!-- 1&#45;&gt;5 -->
<g id="edge7" class="edge"><title>1&#45;&gt;5</title>
<path fill="none" stroke="black" stroke-width="2" d="M40.7368,-144.797C38.3096,-138.712 35.5871,-131.886 32.9633,-125.308"/>
<polygon fill="black" stroke="black" stroke-width="2" points="36.1914,-123.954 29.2356,-115.963 29.6895,-126.548 36.1914,-123.954"/>
</g>
<!-- 1&#45;&gt;7 -->
<g id="edge9" class="edge"><title>1&#45;&gt;7</title>
<path fill="none" stroke="black" stroke-width="2" d="M58.7621,-146.031C62.8271,-138.496 67.6021,-129.645 72.0593,-121.383"/>
<polygon fill="black" stroke="black" stroke-width="2" points="75.2343,-122.87 76.902,-112.407 69.0736,-119.546 75.2343,-122.87"/>
</g>
<!-- 2 -->
<g id="node3" class="node"><title>2</title>
<ellipse fill="brown" stroke="black" cx="160.05" cy="-21.2132" rx="21.4286" ry="21.4286"/>
<text text-anchor="middle" x="160.05" y="-16.2132" font-family="Times New Roman,serif" font-size="20.00">3</text>
</g>
<!-- 2&#45;&gt;0 -->
<g id="edge1" class="edge"><title>2&#45;&gt;0</title>
<path fill="none" stroke="black" stroke-width="2" d="M138.997,-24.1306C136.781,-24.4376 134.495,-24.7543 132.195,-25.073"/>
<polygon fill="black" stroke="black" stroke-width="2" points="131.618,-21.6195 122.193,-26.459 132.579,-28.5532 131.618,-21.6195"/>
</g>
<!-- 3 -->
<g id="node4" class="node"><title>3</title>
<ellipse fill="brown" stroke="black" cx="103.805" cy="-179.449" rx="21.4286" ry="21.4286"/>
<text text-anchor="middle" x="103.805" y="-174.449" font-family="Times New Roman,serif" font-size="20.00">3</text>
</g>
<!-- 3&#45;&gt;1 -->
<g id="edge6" class="edge"><title>3&#45;&gt;1</title>
<path fill="none" stroke="black" stroke-width="2" d="M83.279,-173.963C82.0049,-173.622 80.7092,-173.276 79.404,-172.927"/>
<polygon fill="black" stroke="black" stroke-width="2" points="79.9732,-169.457 69.4086,-170.256 78.1657,-176.219 79.9732,-169.457"/>
</g>
<!-- 4&#45;&gt;2 -->
<g id="edge10" class="edge"><title>4&#45;&gt;2</title>
<path fill="none" stroke="black" stroke-width="2" d="M193.688,-48.269C190.765,-45.9183 187.672,-43.4304 184.592,-40.9533"/>
<polygon fill="black" stroke="black" stroke-width="2" points="186.584,-38.0631 176.598,-34.523 182.196,-43.5178 186.584,-38.0631"/>
</g>
<!-- 5&#45;&gt;0 -->
<g id="edge3" class="edge"><title>5&#45;&gt;0</title>
<path fill="none" stroke="black" stroke-width="2" d="M37.7053,-82.0859C48.9112,-72.7339 63.9233,-60.2053 76.4937,-49.7144"/>
<polygon fill="black" stroke="black" stroke-width="2" points="78.9023,-52.2631 84.3372,-43.1685 74.417,-46.8888 78.9023,-52.2631"/>
</g>
<!-- 5&#45;&gt;3 -->
<g id="edge13" class="edge"><title>5&#45;&gt;3</title>
<path fill="none" stroke="black" stroke-width="2" d="M36.3618,-111.183C49.0519,-124.028 67.3382,-142.537 81.6692,-157.043"/>
<polygon fill="black" stroke="black" stroke-width="2" points="79.2343,-159.558 88.7522,-164.212 84.2139,-154.639 79.2343,-159.558"/>
</g>
<!-- 6&#45;&gt;1 -->
<g id="edge8" class="edge"><title>6&#45;&gt;1</title>
<path fill="none" stroke="black" stroke-width="2" d="M130.98,-124.166C115.786,-131.652 94.2804,-142.249 77.0633,-150.732"/>
<polygon fill="black" stroke="black" stroke-width="2" points="75.4301,-147.635 68.0068,-155.194 78.524,-153.914 75.4301,-147.635"/>
</g>
<!-- 6&#45;&gt;2 -->
<g id="edge11" class="edge"><title>6&#45;&gt;2</title>
<path fill="none" stroke="black" stroke-width="2" d="M152.316,-93.542C153.608,-81.4603 155.25,-66.0987 156.689,-52.6428"/>
<polygon fill="black" stroke="black" stroke-width="2" points="160.205,-52.6746 157.789,-42.3591 153.245,-51.9303 160.205,-52.6746"/>
</g>
<!-- 6&#45;&gt;3 -->
<g id="edge14" class="edge"><title>6&#45;&gt;3</title>
<path fill="none" stroke="black" stroke-width="2" d="M137.654,-132.104C132.886,-138.774 127.335,-146.538 122.124,-153.826"/>
<polygon fill="black" stroke="black" stroke-width="2" points="119.2,-151.898 116.231,-162.069 124.894,-155.969 119.2,-151.898"/>
</g>
<!-- 6&#45;&gt;4 -->
<g id="edge16" class="edge"><title>6&#45;&gt;4</title>
<path fill="none" stroke="black" stroke-width="2" d="M166.241,-100.57C172.474,-95.1047 179.729,-88.7428 186.539,-82.7711"/>
<polygon fill="black" stroke="black" stroke-width="2" points="189.03,-85.2417 194.241,-76.017 184.415,-79.9787 189.03,-85.2417"/>
</g>
<!-- 7&#45;&gt;2 -->
<g id="edge12" class="edge"><title>7&#45;&gt;2</title>
<path fill="none" stroke="black" stroke-width="2" d="M102.174,-78.6014C112.452,-68.4103 126.22,-54.7578 137.749,-43.3257"/>
<polygon fill="black" stroke="black" stroke-width="2" points="140.306,-45.719 144.943,-36.1926 135.378,-40.7484 140.306,-45.719"/>
</g>
<!-- 7&#45;&gt;3 -->
<g id="edge15" class="edge"><title>7&#45;&gt;3</title>
<path fill="none" stroke="black" stroke-width="2" d="M91.1902,-114.821C93.1788,-125.009 95.5995,-137.411 97.7865,-148.616"/>
<polygon fill="black" stroke="black" stroke-width="2" points="94.3593,-149.327 99.7103,-158.472 101.23,-147.986 94.3593,-149.327"/>
</g>
<!-- 7&#45;&gt;5 -->
<g id="edge17" class="edge"><title>7&#45;&gt;5</title>
<path fill="none" stroke="black" stroke-width="2" d="M65.4913,-94.3366C61.4717,-94.474 57.1945,-94.6201 52.9438,-94.7654"/>
<polygon fill="black" stroke="black" stroke-width="2" points="52.4682,-91.2795 42.5936,-95.1191 52.7073,-98.2754 52.4682,-91.2795"/>
</g>
<!-- 7&#45;&gt;6 -->
<g id="edge18" class="edge"><title>7&#45;&gt;6</title>
<path fill="none" stroke="black" stroke-width="2" d="M107.328,-100.415C111.374,-101.775 115.705,-103.231 120,-104.674"/>
<polygon fill="black" stroke="black" stroke-width="2" points="119.21,-108.101 129.804,-107.969 121.44,-101.466 119.21,-108.101"/>
</g>
</g>
</svg>

