<?xml version="1.0" encoding="UTF-8" standalone="no"?>
<!DOCTYPE svg PUBLIC "-//W3C//DTD SVG 1.1//EN"
 "http://www.w3.org/Graphics/SVG/1.1/DTD/svg11.dtd">
<!-- Generated by graphviz version 2.36.0 (20140111.2315)
 -->
<!-- Title: G Pages: 1 -->
<svg width="100%" height="100%"
 viewBox="0.00 0.00 211.89 224.80" xmlns="http://www.w3.org/2000/svg" xmlns:xlink="http://www.w3.org/1999/xlink">
<g id="graph0" class="graph" transform="scale(1 1) rotate(0) translate(4 220.797)">
<title>G</title>
<!-- 0 -->
<g id="node1" class="node"><title>0</title>
<ellipse fill="cadetblue" stroke="black" cx="72.8229" cy="-23.8777" rx="21.4286" ry="21.4286"/>
<text text-anchor="middle" x="72.8229" y="-18.8777" font-family="Times New Roman,serif" font-size="20.00">2</text>
</g>
<!-- 5 -->
<g id="node6" class="node"><title>5</title>
<ellipse fill="cadetblue" stroke="black" cx="45.5056" cy="-103.105" rx="21.4286" ry="21.4286"/>
<text text-anchor="middle" x="45.5056" y="-98.1054" font-family="Times New Roman,serif" font-size="20.00">2</text>
</g>
<!-- 0&#45;&gt;5 -->
<g id="edge3" class="edge"><title>0&#45;&gt;5</title>
<path fill="none" stroke="black" stroke-width="2" d="M65.788,-44.2808C62.7374,-53.1282 59.1053,-63.6625 55.7633,-73.3553"/>
<polygon fill="black" stroke="black" stroke-width="2" points="52.3729,-72.451 52.4221,-83.0457 58.9906,-74.7328 52.3729,-72.451"/>
</g>
<!-- 6 -->
<g id="node7" class="node"><title>6</title>
<ellipse fill="cadetblue" stroke="black" cx="95.937" cy="-92.7207" rx="21.4286" ry="21.4286"/>
<text text-anchor="middle" x="95.937" y="-87.7207" font-family="Times New Roman,serif" font-size="20.00">2</text>
</g>
<!-- 0&#45;&gt;6 -->
<g id="edge4" class="edge"><title>0&#45;&gt;6</title>
<path fill="none" stroke="black" stroke-width="2" d="M79.6329,-44.1605C81.5904,-49.9908 83.7679,-56.4762 85.8776,-62.7598"/>
<polygon fill="black" stroke="black" stroke-width="2" points="82.5949,-63.979 89.0958,-72.3449 89.2308,-61.751 82.5949,-63.979"/>
</g>
<!-- 7 -->
<g id="node8" class="node"><title>7</title>
<ellipse fill="dodgerblue" stroke="black" cx="147.55" cy="-111.21" rx="21.4286" ry="21.4286"/>
<text text-anchor="middle" x="147.55" y="-106.21" font-family="Times New Roman,serif" font-size="20.00">4</text>
</g>
<!-- 0&#45;&gt;7 -->
<g id="edge5" class="edge"><title>0&#45;&gt;7</title>
<path fill="none" stroke="black" stroke-width="2" d="M86.8784,-40.3043C98.1509,-53.4783 114.136,-72.16 126.869,-87.0405"/>
<polygon fill="black" stroke="black" stroke-width="2" points="124.396,-89.5346 133.557,-94.8573 129.715,-84.9836 124.396,-89.5346"/>
</g>
<!-- 1 -->
<g id="node2" class="node"><title>1</title>
<ellipse fill="cadetblue" stroke="black" cx="21.2132" cy="-173.14" rx="21.4286" ry="21.4286"/>
<text text-anchor="middle" x="21.2132" y="-168.14" font-family="Times New Roman,serif" font-size="20.00">2</text>
</g>
<!-- 1&#45;&gt;6 -->
<g id="edge8" class="edge"><title>1&#45;&gt;6</title>
<path fill="none" stroke="black" stroke-width="2" d="M35.9762,-157.252C46.9982,-145.39 62.2233,-129.004 74.5732,-115.713"/>
<polygon fill="black" stroke="black" stroke-width="2" points="77.216,-118.011 81.4589,-108.302 72.088,-113.246 77.216,-118.011"/>
</g>
<!-- 2 -->
<g id="node3" class="node"><title>2</title>
<ellipse fill="brown" stroke="black" cx="124.26" cy="-21.2132" rx="21.4286" ry="21.4286"/>
<text text-anchor="middle" x="124.26" y="-16.2132" font-family="Times New Roman,serif" font-size="20.00">3</text>
</g>
<!-- 2&#45;&gt;0 -->
<g id="edge1" class="edge"><title>2&#45;&gt;0</title>
<path fill="none" stroke="black" stroke-width="2" d="M103.042,-22.3123C102.952,-22.317 102.862,-22.3217 102.772,-22.3263"/>
<polygon fill="black" stroke="black" stroke-width="2" points="104.13,-18.7511 94.3249,-22.7639 104.493,-25.7418 104.13,-18.7511"/>
</g>
<!-- 2&#45;&gt;7 -->
<g id="edge12" class="edge"><title>2&#45;&gt;7</title>
<path fill="none" stroke="black" stroke-width="2" d="M129.662,-42.0865C132.631,-53.5589 136.368,-68.0016 139.658,-80.7148"/>
<polygon fill="black" stroke="black" stroke-width="2" points="136.284,-81.6458 142.177,-90.45 143.06,-79.8921 136.284,-81.6458"/>
</g>
<!-- 3 -->
<g id="node4" class="node"><title>3</title>
<ellipse fill="cadetblue" stroke="black" cx="100.949" cy="-195.584" rx="21.4286" ry="21.4286"/>
<text text-anchor="middle" x="100.949" y="-190.584" font-family="Times New Roman,serif" font-size="20.00">2</text>
</g>
<!-- 3&#45;&gt;1 -->
<g id="edge6" class="edge"><title>3&#45;&gt;1</title>
<path fill="none" stroke="black" stroke-width="2" d="M80.4149,-189.804C71.5793,-187.317 61.072,-184.36 51.3793,-181.631"/>
<polygon fill="black" stroke="black" stroke-width="2" points="52.2518,-178.241 41.6775,-178.9 50.3551,-184.979 52.2518,-178.241"/>
</g>
<!-- 4 -->
<g id="node5" class="node"><title>4</title>
<ellipse fill="cadetblue" stroke="black" cx="182.68" cy="-43.4379" rx="21.4286" ry="21.4286"/>
<text text-anchor="middle" x="182.68" y="-38.4379" font-family="Times New Roman,serif" font-size="20.00">2</text>
</g>
<!-- 4&#45;&gt;0 -->
<g id="edge2" class="edge"><title>4&#45;&gt;0</title>
<path fill="none" stroke="black" stroke-width="2" d="M161.759,-39.7128C145.446,-36.8083 122.536,-32.7292 104.055,-29.4386"/>
<polygon fill="black" stroke="black" stroke-width="2" points="104.5,-25.9628 94.0411,-27.6556 103.273,-32.8545 104.5,-25.9628"/>
</g>
<!-- 4&#45;&gt;2 -->
<g id="edge9" class="edge"><title>4&#45;&gt;2</title>
<path fill="none" stroke="black" stroke-width="2" d="M162.576,-35.7894C159.698,-34.6947 156.689,-33.5501 153.678,-32.4044"/>
<polygon fill="black" stroke="black" stroke-width="2" points="154.795,-29.085 144.204,-28.8005 152.306,-35.6275 154.795,-29.085"/>
</g>
<!-- 5&#45;&gt;1 -->
<g id="edge7" class="edge"><title>5&#45;&gt;1</title>
<path fill="none" stroke="black" stroke-width="2" d="M38.4792,-123.362C36.3327,-129.551 33.925,-136.492 31.6046,-143.182"/>
<polygon fill="black" stroke="black" stroke-width="2" points="28.2783,-142.091 28.3079,-152.686 34.8918,-144.385 28.2783,-142.091"/>
</g>
<!-- 5&#45;&gt;2 -->
<g id="edge10" class="edge"><title>5&#45;&gt;2</title>
<path fill="none" stroke="black" stroke-width="2" d="M60.3187,-87.7021C72.1988,-75.3488 89.0455,-57.8308 102.464,-43.8773"/>
<polygon fill="black" stroke="black" stroke-width="2" points="105.105,-46.1813 109.513,-36.5474 100.059,-41.3292 105.105,-46.1813"/>
</g>
<!-- 5&#45;&gt;3 -->
<g id="edge13" class="edge"><title>5&#45;&gt;3</title>
<path fill="none" stroke="black" stroke-width="2" d="M56.4594,-121.376C64.5087,-134.802 75.5792,-153.268 84.6632,-168.42"/>
<polygon fill="black" stroke="black" stroke-width="2" points="81.8739,-170.574 90.0177,-177.351 87.8776,-166.975 81.8739,-170.574"/>
</g>
<!-- 5&#45;&gt;7 -->
<g id="edge18" class="edge"><title>5&#45;&gt;7</title>
<path fill="none" stroke="black" stroke-width="2" d="M67.1465,-104.824C81.3118,-105.949 100.061,-107.438 115.89,-108.696"/>
<polygon fill="black" stroke="black" stroke-width="2" points="116.044,-112.219 126.29,-109.522 116.598,-105.241 116.044,-112.219"/>
</g>
<!-- 6&#45;&gt;2 -->
<g id="edge11" class="edge"><title>6&#45;&gt;2</title>
<path fill="none" stroke="black" stroke-width="2" d="M103.827,-72.8019C106.558,-65.9057 109.68,-58.0247 112.647,-50.5333"/>
<polygon fill="black" stroke="black" stroke-width="2" points="115.984,-51.6114 116.413,-41.0252 109.476,-49.0336 115.984,-51.6114"/>
</g>
<!-- 6&#45;&gt;4 -->
<g id="edge15" class="edge"><title>6&#45;&gt;4</title>
<path fill="none" stroke="black" stroke-width="2" d="M114.759,-82.027C126.662,-75.2646 142.243,-66.4125 155.478,-58.8926"/>
<polygon fill="black" stroke="black" stroke-width="2" points="157.227,-61.9244 164.193,-53.9414 153.77,-55.8381 157.227,-61.9244"/>
</g>
<!-- 6&#45;&gt;5 -->
<g id="edge17" class="edge"><title>6&#45;&gt;5</title>
<path fill="none" stroke="black" stroke-width="2" d="M75.1335,-97.0045C75.0453,-97.0227 74.957,-97.0408 74.8687,-97.059"/>
<polygon fill="black" stroke="black" stroke-width="2" points="75.6757,-93.3193 66.5872,-98.7643 77.0876,-100.175 75.6757,-93.3193"/>
</g>
<!-- 6&#45;&gt;7 -->
<g id="edge19" class="edge"><title>6&#45;&gt;7</title>
<path fill="none" stroke="black" stroke-width="2" d="M116.04,-99.9221C116.623,-100.131 117.211,-100.342 117.802,-100.553"/>
<polygon fill="black" stroke="black" stroke-width="2" points="116.822,-103.92 127.417,-103.998 119.183,-97.3304 116.822,-103.92"/>
</g>
<!-- 7&#45;&gt;3 -->
<g id="edge14" class="edge"><title>7&#45;&gt;3</title>
<path fill="none" stroke="black" stroke-width="2" d="M137.207,-129.935C131.053,-141.077 123.131,-155.421 116.263,-167.857"/>
<polygon fill="black" stroke="black" stroke-width="2" points="113.033,-166.465 111.262,-176.911 119.161,-169.85 113.033,-166.465"/>
</g>
<!-- 7&#45;&gt;4 -->
<g id="edge16" class="edge"><title>7&#45;&gt;4</title>
<path fill="none" stroke="black" stroke-width="2" d="M157.336,-92.3318C160.63,-85.9771 164.381,-78.7398 167.969,-71.8176"/>
<polygon fill="black" stroke="black" stroke-width="2" points="171.208,-73.1748 172.703,-62.6859 164.993,-69.9533 171.208,-73.1748"/>
</g>
</g>
</svg>

