<?xml version="1.0" encoding="UTF-8" standalone="no"?>
<!DOCTYPE svg PUBLIC "-//W3C//DTD SVG 1.1//EN"
 "http://www.w3.org/Graphics/SVG/1.1/DTD/svg11.dtd">
<!-- Generated by graphviz version 2.36.0 (20140111.2315)
 -->
<!-- Title: G Pages: 1 -->
<svg width="100%" height="100%"
 viewBox="0.00 0.00 222.06 240.11" xmlns="http://www.w3.org/2000/svg" xmlns:xlink="http://www.w3.org/1999/xlink">
<g id="graph0" class="graph" transform="scale(1 1) rotate(0) translate(4 236.113)">
<title>G</title>
<!-- 0 -->
<g id="node1" class="node"><title>0</title>
<ellipse fill="cadetblue" stroke="black" cx="77.9448" cy="-51.8218" rx="21.4286" ry="21.4286"/>
<text text-anchor="middle" x="77.9448" y="-46.8218" font-family="Times New Roman,serif" font-size="20.00">2</text>
</g>
<!-- 5 -->
<g id="node6" class="node"><title>5</title>
<ellipse fill="cadetblue" stroke="black" cx="21.2132" cy="-141.675" rx="21.4286" ry="21.4286"/>
<text text-anchor="middle" x="21.2132" y="-136.675" font-family="Times New Roman,serif" font-size="20.00">2</text>
</g>
<!-- 0&#45;&gt;5 -->
<g id="edge3" class="edge"><title>0&#45;&gt;5</title>
<path fill="none" stroke="black" stroke-width="2" d="M66.4643,-70.005C58.3134,-82.9148 47.2378,-100.457 38.0843,-114.954"/>
<polygon fill="black" stroke="black" stroke-width="2" points="35.0559,-113.195 32.6766,-123.519 40.9749,-116.932 35.0559,-113.195"/>
</g>
<!-- 6 -->
<g id="node7" class="node"><title>6</title>
<ellipse fill="cadetblue" stroke="black" cx="159.517" cy="-131.386" rx="21.4286" ry="21.4286"/>
<text text-anchor="middle" x="159.517" y="-126.386" font-family="Times New Roman,serif" font-size="20.00">2</text>
</g>
<!-- 0&#45;&gt;6 -->
<g id="edge4" class="edge"><title>0&#45;&gt;6</title>
<path fill="none" stroke="black" stroke-width="2" d="M93.2879,-66.7872C105.593,-78.7894 123.042,-95.8092 136.941,-109.366"/>
<polygon fill="black" stroke="black" stroke-width="2" points="134.64,-112.011 144.243,-116.488 139.528,-107 134.64,-112.011"/>
</g>
<!-- 7 -->
<g id="node8" class="node"><title>7</title>
<ellipse fill="cadetblue" stroke="black" cx="101.982" cy="-117.368" rx="21.4286" ry="21.4286"/>
<text text-anchor="middle" x="101.982" y="-112.368" font-family="Times New Roman,serif" font-size="20.00">2</text>
</g>
<!-- 0&#45;&gt;7 -->
<g id="edge5" class="edge"><title>0&#45;&gt;7</title>
<path fill="none" stroke="black" stroke-width="2" d="M85.2872,-71.844C87.0708,-76.7077 89.0172,-82.0153 90.9306,-87.2331"/>
<polygon fill="black" stroke="black" stroke-width="2" points="87.7892,-88.8325 94.5182,-97.0161 94.3612,-86.4224 87.7892,-88.8325"/>
</g>
<!-- 1 -->
<g id="node2" class="node"><title>1</title>
<ellipse fill="cadetblue" stroke="black" cx="65.0498" cy="-204.553" rx="21.4286" ry="21.4286"/>
<text text-anchor="middle" x="65.0498" y="-199.553" font-family="Times New Roman,serif" font-size="20.00">2</text>
</g>
<!-- 1&#45;&gt;6 -->
<g id="edge8" class="edge"><title>1&#45;&gt;6</title>
<path fill="none" stroke="black" stroke-width="2" d="M81.9387,-191.472C96.4907,-180.201 117.707,-163.769 134.275,-150.936"/>
<polygon fill="black" stroke="black" stroke-width="2" points="136.693,-153.491 142.456,-144.6 132.407,-147.956 136.693,-153.491"/>
</g>
<!-- 1&#45;&gt;7 -->
<g id="edge9" class="edge"><title>1&#45;&gt;7</title>
<path fill="none" stroke="black" stroke-width="2" d="M73.4302,-184.769C78.2466,-173.399 84.3835,-158.912 89.7324,-146.285"/>
<polygon fill="black" stroke="black" stroke-width="2" points="92.9565,-147.646 93.6343,-137.073 86.511,-144.916 92.9565,-147.646"/>
</g>
<!-- 2 -->
<g id="node3" class="node"><title>2</title>
<ellipse fill="cadetblue" stroke="black" cx="142.414" cy="-21.2132" rx="21.4286" ry="21.4286"/>
<text text-anchor="middle" x="142.414" y="-16.2132" font-family="Times New Roman,serif" font-size="20.00">2</text>
</g>
<!-- 2&#45;&gt;0 -->
<g id="edge1" class="edge"><title>2&#45;&gt;0</title>
<path fill="none" stroke="black" stroke-width="2" d="M123.071,-30.3968C117.844,-32.8786 112.075,-35.6175 106.459,-38.2839"/>
<polygon fill="black" stroke="black" stroke-width="2" points="104.806,-35.194 97.274,-42.6447 107.809,-41.5175 104.806,-35.194"/>
</g>
<!-- 4 -->
<g id="node5" class="node"><title>4</title>
<ellipse fill="brown" stroke="black" cx="192.845" cy="-63.8777" rx="21.4286" ry="21.4286"/>
<text text-anchor="middle" x="192.845" y="-58.8777" font-family="Times New Roman,serif" font-size="20.00">3</text>
</g>
<!-- 2&#45;&gt;4 -->
<g id="edge10" class="edge"><title>2&#45;&gt;4</title>
<path fill="none" stroke="black" stroke-width="2" d="M158.648,-34.9474C161.888,-37.6878 165.354,-40.6207 168.792,-43.5292"/>
<polygon fill="black" stroke="black" stroke-width="2" points="166.746,-46.3826 176.641,-50.1693 171.267,-41.0385 166.746,-46.3826"/>
</g>
<!-- 3 -->
<g id="node4" class="node"><title>3</title>
<ellipse fill="brown" stroke="black" cx="126.791" cy="-210.9" rx="21.4286" ry="21.4286"/>
<text text-anchor="middle" x="126.791" y="-205.9" font-family="Times New Roman,serif" font-size="20.00">3</text>
</g>
<!-- 3&#45;&gt;1 -->
<g id="edge6" class="edge"><title>3&#45;&gt;1</title>
<path fill="none" stroke="black" stroke-width="2" d="M105.543,-208.716C102.665,-208.42 99.6638,-208.111 96.6528,-207.802"/>
<polygon fill="black" stroke="black" stroke-width="2" points="96.8519,-204.304 86.5464,-206.763 96.1361,-211.267 96.8519,-204.304"/>
</g>
<!-- 4&#45;&gt;0 -->
<g id="edge2" class="edge"><title>4&#45;&gt;0</title>
<path fill="none" stroke="black" stroke-width="2" d="M171.503,-61.6383C154.009,-59.8028 129.003,-57.1791 109.244,-55.1059"/>
<polygon fill="black" stroke="black" stroke-width="2" points="109.484,-51.6119 99.1731,-54.0492 108.753,-58.5737 109.484,-51.6119"/>
</g>
<!-- 5&#45;&gt;1 -->
<g id="edge7" class="edge"><title>5&#45;&gt;1</title>
<path fill="none" stroke="black" stroke-width="2" d="M33.4242,-159.19C37.6042,-165.186 42.3746,-172.028 46.9207,-178.549"/>
<polygon fill="black" stroke="black" stroke-width="2" points="44.3142,-180.93 52.9044,-187.132 50.0564,-176.927 44.3142,-180.93"/>
</g>
<!-- 5&#45;&gt;3 -->
<g id="edge13" class="edge"><title>5&#45;&gt;3</title>
<path fill="none" stroke="black" stroke-width="2" d="M39.123,-153.418C55.8832,-164.407 81.1337,-180.964 100.238,-193.489"/>
<polygon fill="black" stroke="black" stroke-width="2" points="98.5115,-196.543 108.793,-199.099 102.35,-190.689 98.5115,-196.543"/>
</g>
<!-- 6&#45;&gt;2 -->
<g id="edge11" class="edge"><title>6&#45;&gt;2</title>
<path fill="none" stroke="black" stroke-width="2" d="M156.26,-110.404C153.72,-94.0445 150.153,-71.0693 147.276,-52.5347"/>
<polygon fill="black" stroke="black" stroke-width="2" points="150.71,-51.837 145.717,-42.4923 143.793,-52.9109 150.71,-51.837"/>
</g>
<!-- 6&#45;&gt;3 -->
<g id="edge14" class="edge"><title>6&#45;&gt;3</title>
<path fill="none" stroke="black" stroke-width="2" d="M151.427,-151.041C147.612,-160.311 142.982,-171.561 138.77,-181.793"/>
<polygon fill="black" stroke="black" stroke-width="2" points="135.47,-180.616 134.901,-191.195 141.944,-183.28 135.47,-180.616"/>
</g>
<!-- 6&#45;&gt;4 -->
<g id="edge16" class="edge"><title>6&#45;&gt;4</title>
<path fill="none" stroke="black" stroke-width="2" d="M168.978,-112.221C171.978,-106.145 175.363,-99.2878 178.622,-92.6883"/>
<polygon fill="black" stroke="black" stroke-width="2" points="181.956,-93.8408 183.244,-83.3246 175.679,-90.7419 181.956,-93.8408"/>
</g>
<!-- 7&#45;&gt;2 -->
<g id="edge12" class="edge"><title>7&#45;&gt;2</title>
<path fill="none" stroke="black" stroke-width="2" d="M110.359,-97.4447C116.089,-83.8172 123.779,-65.5301 130.19,-50.283"/>
<polygon fill="black" stroke="black" stroke-width="2" points="133.535,-51.3569 134.185,-40.782 127.083,-48.6435 133.535,-51.3569"/>
</g>
<!-- 7&#45;&gt;3 -->
<g id="edge15" class="edge"><title>7&#45;&gt;3</title>
<path fill="none" stroke="black" stroke-width="2" d="M107.488,-138.126C110.764,-150.477 114.981,-166.378 118.638,-180.164"/>
<polygon fill="black" stroke="black" stroke-width="2" points="115.353,-181.432 121.3,-190.2 122.119,-179.637 115.353,-181.432"/>
</g>
<!-- 7&#45;&gt;4 -->
<g id="edge17" class="edge"><title>7&#45;&gt;4</title>
<path fill="none" stroke="black" stroke-width="2" d="M120.369,-106.543C133.424,-98.8582 151.163,-88.4154 165.824,-79.7848"/>
<polygon fill="black" stroke="black" stroke-width="2" points="167.643,-82.7755 174.485,-74.6861 164.092,-76.7431 167.643,-82.7755"/>
</g>
<!-- 7&#45;&gt;5 -->
<g id="edge18" class="edge"><title>7&#45;&gt;5</title>
<path fill="none" stroke="black" stroke-width="2" d="M81.6003,-123.502C72.4174,-126.265 61.3884,-129.584 51.283,-132.626"/>
<polygon fill="black" stroke="black" stroke-width="2" points="50.155,-129.31 41.5879,-135.543 52.1724,-136.013 50.155,-129.31"/>
</g>
</g>
</svg>

