<?xml version="1.0" encoding="UTF-8" standalone="no"?>
<!DOCTYPE svg PUBLIC "-//W3C//DTD SVG 1.1//EN"
 "http://www.w3.org/Graphics/SVG/1.1/DTD/svg11.dtd">
<!-- Generated by graphviz version 2.36.0 (20140111.2315)
 -->
<!-- Title: G Pages: 1 -->
<svg width="100%" height="100%"
 viewBox="0.00 0.00 204.57 276.62" xmlns="http://www.w3.org/2000/svg" xmlns:xlink="http://www.w3.org/1999/xlink">
<g id="graph0" class="graph" transform="scale(1 1) rotate(0) translate(4 272.616)">
<title>G</title>
<!-- 0 -->
<g id="node1" class="node"><title>0</title>
<ellipse fill="cadetblue" stroke="black" cx="74.0496" cy="-25.841" rx="21.4286" ry="21.4286"/>
<text text-anchor="middle" x="74.0496" y="-20.841" font-family="Times New Roman,serif" font-size="20.00">2</text>
</g>
<!-- 5 -->
<g id="node6" class="node"><title>5</title>
<ellipse fill="cadetblue" stroke="black" cx="21.9707" cy="-80.5119" rx="21.4286" ry="21.4286"/>
<text text-anchor="middle" x="21.9707" y="-75.5119" font-family="Times New Roman,serif" font-size="20.00">2</text>
</g>
<!-- 0&#45;&gt;5 -->
<g id="edge3" class="edge"><title>0&#45;&gt;5</title>
<path fill="none" stroke="black" stroke-width="2" d="M59.2652,-41.3613C54.386,-46.4833 48.8541,-52.2906 43.573,-57.8345"/>
<polygon fill="black" stroke="black" stroke-width="2" points="40.975,-55.4873 36.6119,-65.1421 46.0435,-60.3155 40.975,-55.4873"/>
</g>
<!-- 6 -->
<g id="node7" class="node"><title>6</title>
<ellipse fill="cadetblue" stroke="black" cx="149.012" cy="-152.004" rx="21.4286" ry="21.4286"/>
<text text-anchor="middle" x="149.012" y="-147.004" font-family="Times New Roman,serif" font-size="20.00">2</text>
</g>
<!-- 0&#45;&gt;6 -->
<g id="edge4" class="edge"><title>0&#45;&gt;6</title>
<path fill="none" stroke="black" stroke-width="2" d="M84.9498,-44.1863C97.5521,-65.3963 118.414,-100.508 132.893,-124.875"/>
<polygon fill="black" stroke="black" stroke-width="2" points="129.982,-126.828 138.099,-133.637 135.999,-123.252 129.982,-126.828"/>
</g>
<!-- 7 -->
<g id="node8" class="node"><title>7</title>
<ellipse fill="cadetblue" stroke="black" cx="91.294" cy="-123.972" rx="21.4286" ry="21.4286"/>
<text text-anchor="middle" x="91.294" y="-118.972" font-family="Times New Roman,serif" font-size="20.00">2</text>
</g>
<!-- 0&#45;&gt;7 -->
<g id="edge5" class="edge"><title>0&#45;&gt;7</title>
<path fill="none" stroke="black" stroke-width="2" d="M77.7914,-47.1339C80.1576,-60.5991 83.255,-78.2253 85.8863,-93.1988"/>
<polygon fill="black" stroke="black" stroke-width="2" points="82.4407,-93.8142 87.6187,-103.058 89.3351,-92.6027 82.4407,-93.8142"/>
</g>
<!-- 1 -->
<g id="node2" class="node"><title>1</title>
<ellipse fill="cadetblue" stroke="black" cx="21.2132" cy="-204.925" rx="21.4286" ry="21.4286"/>
<text text-anchor="middle" x="21.2132" y="-199.925" font-family="Times New Roman,serif" font-size="20.00">2</text>
</g>
<!-- 1&#45;&gt;6 -->
<g id="edge8" class="edge"><title>1&#45;&gt;6</title>
<path fill="none" stroke="black" stroke-width="2" d="M40.9017,-196.772C61.9477,-188.057 95.5441,-174.145 119.701,-164.142"/>
<polygon fill="black" stroke="black" stroke-width="2" points="121.19,-167.313 129.09,-160.254 118.512,-160.846 121.19,-167.313"/>
</g>
<!-- 2 -->
<g id="node3" class="node"><title>2</title>
<ellipse fill="brown" stroke="black" cx="136.582" cy="-21.2132" rx="21.4286" ry="21.4286"/>
<text text-anchor="middle" x="136.582" y="-16.2132" font-family="Times New Roman,serif" font-size="20.00">3</text>
</g>
<!-- 2&#45;&gt;0 -->
<g id="edge1" class="edge"><title>2&#45;&gt;0</title>
<path fill="none" stroke="black" stroke-width="2" d="M115.411,-22.78C112.322,-23.0086 109.086,-23.2481 105.842,-23.4882"/>
<polygon fill="black" stroke="black" stroke-width="2" points="105.339,-20.0157 95.6244,-24.2443 105.856,-26.9967 105.339,-20.0157"/>
</g>
<!-- 4 -->
<g id="node5" class="node"><title>4</title>
<ellipse fill="dodgerblue" stroke="black" cx="175.361" cy="-71.6447" rx="21.4286" ry="21.4286"/>
<text text-anchor="middle" x="175.361" y="-66.6447" font-family="Times New Roman,serif" font-size="20.00">4</text>
</g>
<!-- 2&#45;&gt;4 -->
<g id="edge9" class="edge"><title>2&#45;&gt;4</title>
<path fill="none" stroke="black" stroke-width="2" d="M149.711,-38.287C151.732,-40.9159 153.856,-43.6771 155.979,-46.4382"/>
<polygon fill="black" stroke="black" stroke-width="2" points="153.376,-48.7946 162.246,-54.5884 158.925,-44.5276 153.376,-48.7946"/>
</g>
<!-- 3 -->
<g id="node4" class="node"><title>3</title>
<ellipse fill="cadetblue" stroke="black" cx="114.543" cy="-247.403" rx="21.4286" ry="21.4286"/>
<text text-anchor="middle" x="114.543" y="-242.403" font-family="Times New Roman,serif" font-size="20.00">2</text>
</g>
<!-- 3&#45;&gt;1 -->
<g id="edge6" class="edge"><title>3&#45;&gt;1</title>
<path fill="none" stroke="black" stroke-width="2" d="M95.2052,-238.602C82.0657,-232.621 64.4631,-224.61 49.7235,-217.901"/>
<polygon fill="black" stroke="black" stroke-width="2" points="51.078,-214.672 40.5265,-213.716 48.1783,-221.044 51.078,-214.672"/>
</g>
<!-- 4&#45;&gt;0 -->
<g id="edge2" class="edge"><title>4&#45;&gt;0</title>
<path fill="none" stroke="black" stroke-width="2" d="M155.827,-62.8133C140.831,-56.0331 119.892,-46.5668 102.957,-38.9102"/>
<polygon fill="black" stroke="black" stroke-width="2" points="104.077,-35.5758 93.5235,-34.6453 101.194,-41.9542 104.077,-35.5758"/>
</g>
<!-- 5&#45;&gt;1 -->
<g id="edge7" class="edge"><title>5&#45;&gt;1</title>
<path fill="none" stroke="black" stroke-width="2" d="M21.8405,-101.899C21.7207,-121.572 21.5416,-150.996 21.4053,-173.368"/>
<polygon fill="black" stroke="black" stroke-width="2" points="17.9053,-173.38 21.3443,-183.401 24.9052,-173.422 17.9053,-173.38"/>
</g>
<!-- 5&#45;&gt;2 -->
<g id="edge10" class="edge"><title>5&#45;&gt;2</title>
<path fill="none" stroke="black" stroke-width="2" d="M41.2041,-70.7944C55.4353,-63.5809 75.2783,-53.4741 92.6326,-44.458 97.8028,-41.7719 103.302,-38.8863 108.597,-36.0931"/>
<polygon fill="black" stroke="black" stroke-width="2" points="110.591,-38.9981 117.793,-31.2282 107.317,-32.8106 110.591,-38.9981"/>
</g>
<!-- 5&#45;&gt;4 -->
<g id="edge15" class="edge"><title>5&#45;&gt;4</title>
<path fill="none" stroke="black" stroke-width="2" d="M43.299,-79.2789C69.2528,-77.7786 113.319,-75.2312 143.35,-73.4952"/>
<polygon fill="black" stroke="black" stroke-width="2" points="143.938,-76.9671 153.72,-72.8957 143.534,-69.9788 143.938,-76.9671"/>
</g>
<!-- 6&#45;&gt;2 -->
<g id="edge11" class="edge"><title>6&#45;&gt;2</title>
<path fill="none" stroke="black" stroke-width="2" d="M146.987,-130.699C144.974,-109.513 141.862,-76.7704 139.566,-52.6073"/>
<polygon fill="black" stroke="black" stroke-width="2" points="143.036,-52.133 138.606,-42.509 136.068,-52.7953 143.036,-52.133"/>
</g>
<!-- 6&#45;&gt;3 -->
<g id="edge13" class="edge"><title>6&#45;&gt;3</title>
<path fill="none" stroke="black" stroke-width="2" d="M141.702,-172.236C136.949,-185.39 130.669,-202.771 125.345,-217.507"/>
<polygon fill="black" stroke="black" stroke-width="2" points="121.949,-216.606 121.843,-227.201 128.533,-218.985 121.949,-216.606"/>
</g>
<!-- 6&#45;&gt;4 -->
<g id="edge16" class="edge"><title>6&#45;&gt;4</title>
<path fill="none" stroke="black" stroke-width="2" d="M155.661,-131.726C158.657,-122.59 162.255,-111.617 165.551,-101.562"/>
<polygon fill="black" stroke="black" stroke-width="2" points="168.924,-102.509 168.714,-91.9163 162.273,-100.328 168.924,-102.509"/>
</g>
<!-- 6&#45;&gt;7 -->
<g id="edge19" class="edge"><title>6&#45;&gt;7</title>
<path fill="none" stroke="black" stroke-width="2" d="M129.793,-142.67C126.614,-141.126 123.259,-139.496 119.908,-137.869"/>
<polygon fill="black" stroke="black" stroke-width="2" points="121.15,-134.582 110.626,-133.361 118.092,-140.878 121.15,-134.582"/>
</g>
<!-- 7&#45;&gt;2 -->
<g id="edge12" class="edge"><title>7&#45;&gt;2</title>
<path fill="none" stroke="black" stroke-width="2" d="M100.026,-104.159C106.73,-88.948 116.09,-67.7105 123.66,-50.5334"/>
<polygon fill="black" stroke="black" stroke-width="2" points="127.047,-51.5275 127.877,-40.9653 120.641,-48.7044 127.047,-51.5275"/>
</g>
<!-- 7&#45;&gt;3 -->
<g id="edge14" class="edge"><title>7&#45;&gt;3</title>
<path fill="none" stroke="black" stroke-width="2" d="M95.2379,-144.91C98.9286,-164.505 104.489,-194.025 108.696,-216.359"/>
<polygon fill="black" stroke="black" stroke-width="2" points="105.289,-217.183 110.58,-226.362 112.168,-215.887 105.289,-217.183"/>
</g>
<!-- 7&#45;&gt;4 -->
<g id="edge17" class="edge"><title>7&#45;&gt;4</title>
<path fill="none" stroke="black" stroke-width="2" d="M109.535,-112.618C120.882,-105.555 135.678,-96.3453 148.367,-88.4468"/>
<polygon fill="black" stroke="black" stroke-width="2" points="150.515,-91.2325 157.155,-82.9767 146.816,-85.2897 150.515,-91.2325"/>
</g>
<!-- 7&#45;&gt;5 -->
<g id="edge18" class="edge"><title>7&#45;&gt;5</title>
<path fill="none" stroke="black" stroke-width="2" d="M73.0801,-112.553C65.6562,-107.899 56.9218,-102.423 48.7941,-97.3279"/>
<polygon fill="black" stroke="black" stroke-width="2" points="50.6354,-94.3514 40.3036,-92.0051 46.9172,-100.282 50.6354,-94.3514"/>
</g>
</g>
</svg>

