<?xml version="1.0" encoding="UTF-8" standalone="no"?>
<!DOCTYPE svg PUBLIC "-//W3C//DTD SVG 1.1//EN"
 "http://www.w3.org/Graphics/SVG/1.1/DTD/svg11.dtd">
<!-- Generated by graphviz version 2.36.0 (20140111.2315)
 -->
<!-- Title: G Pages: 1 -->
<svg width="100%" height="100%"
 viewBox="0.00 0.00 213.18 311.70" xmlns="http://www.w3.org/2000/svg" xmlns:xlink="http://www.w3.org/1999/xlink">
<g id="graph0" class="graph" transform="scale(1 1) rotate(0) translate(4 307.695)">
<title>G</title>
<!-- 0 -->
<g id="node1" class="node"><title>0</title>
<ellipse fill="cadetblue" stroke="black" cx="70.227" cy="-21.2132" rx="21.4286" ry="21.4286"/>
<text text-anchor="middle" x="70.227" y="-16.2132" font-family="Times New Roman,serif" font-size="20.00">2</text>
</g>
<!-- 2 -->
<g id="node3" class="node"><title>2</title>
<ellipse fill="brown" stroke="black" cx="176.935" cy="-35.4568" rx="21.4286" ry="21.4286"/>
<text text-anchor="middle" x="176.935" y="-30.4568" font-family="Times New Roman,serif" font-size="20.00">3</text>
</g>
<!-- 0&#45;&gt;2 -->
<g id="edge1" class="edge"><title>0&#45;&gt;2</title>
<path fill="none" stroke="black" stroke-width="2" d="M91.3091,-24.0273C106.801,-26.0952 128.108,-28.9393 145.591,-31.273"/>
<polygon fill="black" stroke="black" stroke-width="2" points="145.522,-34.7947 155.897,-32.6486 146.448,-27.8562 145.522,-34.7947"/>
</g>
<!-- 5 -->
<g id="node6" class="node"><title>5</title>
<ellipse fill="turquoise" stroke="black" cx="74.0021" cy="-170.793" rx="21.4286" ry="21.4286"/>
<text text-anchor="middle" x="74.0021" y="-165.793" font-family="Times New Roman,serif" font-size="20.00">5</text>
</g>
<!-- 0&#45;&gt;5 -->
<g id="edge3" class="edge"><title>0&#45;&gt;5</title>
<path fill="none" stroke="black" stroke-width="2" d="M70.7679,-42.6444C71.407,-67.9695 72.476,-110.326 73.2088,-139.363"/>
<polygon fill="black" stroke="black" stroke-width="2" points="69.7109,-139.493 73.4622,-149.402 76.7087,-139.317 69.7109,-139.493"/>
</g>
<!-- 6 -->
<g id="node7" class="node"><title>6</title>
<ellipse fill="cadetblue" stroke="black" cx="138.792" cy="-127.83" rx="21.4286" ry="21.4286"/>
<text text-anchor="middle" x="138.792" y="-122.83" font-family="Times New Roman,serif" font-size="20.00">2</text>
</g>
<!-- 0&#45;&gt;6 -->
<g id="edge4" class="edge"><title>0&#45;&gt;6</title>
<path fill="none" stroke="black" stroke-width="2" d="M81.8581,-39.2993C92.7426,-56.2244 109.141,-81.7235 121.547,-101.015"/>
<polygon fill="black" stroke="black" stroke-width="2" points="118.751,-103.138 127.104,-109.655 124.639,-99.3513 118.751,-103.138"/>
</g>
<!-- 1 -->
<g id="node2" class="node"><title>1</title>
<ellipse fill="cadetblue" stroke="black" cx="27.8794" cy="-263.536" rx="21.4286" ry="21.4286"/>
<text text-anchor="middle" x="27.8794" y="-258.536" font-family="Times New Roman,serif" font-size="20.00">2</text>
</g>
<!-- 3 -->
<g id="node4" class="node"><title>3</title>
<ellipse fill="brown" stroke="black" cx="133.087" cy="-282.482" rx="21.4286" ry="21.4286"/>
<text text-anchor="middle" x="133.087" y="-277.482" font-family="Times New Roman,serif" font-size="20.00">3</text>
</g>
<!-- 1&#45;&gt;3 -->
<g id="edge6" class="edge"><title>1&#45;&gt;3</title>
<path fill="none" stroke="black" stroke-width="2" d="M48.917,-267.325C64.1126,-270.061 84.885,-273.802 101.991,-276.882"/>
<polygon fill="black" stroke="black" stroke-width="2" points="101.624,-280.372 112.086,-278.7 102.865,-273.483 101.624,-280.372"/>
</g>
<!-- 1&#45;&gt;5 -->
<g id="edge8" class="edge"><title>1&#45;&gt;5</title>
<path fill="none" stroke="black" stroke-width="2" d="M37.4361,-244.32C43.9295,-231.263 52.6285,-213.771 59.9126,-199.124"/>
<polygon fill="black" stroke="black" stroke-width="2" points="63.1386,-200.498 64.4577,-189.985 56.8709,-197.38 63.1386,-200.498"/>
</g>
<!-- 7 -->
<g id="node8" class="node"><title>7</title>
<ellipse fill="dodgerblue" stroke="black" cx="21.2132" cy="-127.52" rx="21.4286" ry="21.4286"/>
<text text-anchor="middle" x="21.2132" y="-122.52" font-family="Times New Roman,serif" font-size="20.00">4</text>
</g>
<!-- 1&#45;&gt;7 -->
<g id="edge10" class="edge"><title>1&#45;&gt;7</title>
<path fill="none" stroke="black" stroke-width="2" d="M26.8378,-242.284C25.7484,-220.056 24.026,-184.912 22.774,-159.367"/>
<polygon fill="black" stroke="black" stroke-width="2" points="26.2549,-158.889 22.2695,-149.073 19.2633,-159.232 26.2549,-158.889"/>
</g>
<!-- 4 -->
<g id="node5" class="node"><title>4</title>
<ellipse fill="brown" stroke="black" cx="183.971" cy="-178.262" rx="21.4286" ry="21.4286"/>
<text text-anchor="middle" x="183.971" y="-173.262" font-family="Times New Roman,serif" font-size="20.00">3</text>
</g>
<!-- 2&#45;&gt;4 -->
<g id="edge11" class="edge"><title>2&#45;&gt;4</title>
<path fill="none" stroke="black" stroke-width="2" d="M177.989,-56.8362C179.16,-80.6029 181.063,-119.229 182.408,-146.526"/>
<polygon fill="black" stroke="black" stroke-width="2" points="178.923,-146.921 182.911,-156.736 185.914,-146.576 178.923,-146.921"/>
</g>
<!-- 2&#45;&gt;5 -->
<g id="edge12" class="edge"><title>2&#45;&gt;5</title>
<path fill="none" stroke="black" stroke-width="2" d="M163.811,-52.4029C152.278,-67.323 135.066,-89.6575 120.214,-109.208 111.128,-121.168 101.116,-134.493 92.7408,-145.681"/>
<polygon fill="black" stroke="black" stroke-width="2" points="89.8837,-143.657 86.6977,-153.761 95.4895,-147.849 89.8837,-143.657"/>
</g>
<!-- 3&#45;&gt;5 -->
<g id="edge16" class="edge"><title>3&#45;&gt;5</title>
<path fill="none" stroke="black" stroke-width="2" d="M123.064,-263.536C113.685,-245.805 99.5536,-219.093 88.8624,-198.884"/>
<polygon fill="black" stroke="black" stroke-width="2" points="91.8442,-197.035 84.0743,-189.833 85.6567,-200.309 91.8442,-197.035"/>
</g>
<!-- 3&#45;&gt;6 -->
<g id="edge17" class="edge"><title>3&#45;&gt;6</title>
<path fill="none" stroke="black" stroke-width="2" d="M133.881,-260.978C134.856,-234.548 136.518,-189.486 137.635,-159.195"/>
<polygon fill="black" stroke="black" stroke-width="2" points="141.134,-159.274 138.005,-149.151 134.139,-159.015 141.134,-159.274"/>
</g>
<!-- 4&#45;&gt;0 -->
<g id="edge2" class="edge"><title>4&#45;&gt;0</title>
<path fill="none" stroke="black" stroke-width="2" d="M176.592,-158.093C173.167,-148.852 168.997,-137.773 165.096,-127.862 161.82,-119.535 162.363,-116.707 157.414,-109.252 139.926,-82.9069 113.774,-57.7887 94.6741,-41.1751"/>
<polygon fill="black" stroke="black" stroke-width="2" points="96.8447,-38.4262 86.9661,-34.5968 92.3005,-43.7508 96.8447,-38.4262"/>
</g>
<!-- 4&#45;&gt;1 -->
<g id="edge7" class="edge"><title>4&#45;&gt;1</title>
<path fill="none" stroke="black" stroke-width="2" d="M165.143,-188.548C137.954,-203.401 87.5048,-230.962 55.9233,-248.216"/>
<polygon fill="black" stroke="black" stroke-width="2" points="53.8723,-245.348 46.7745,-253.214 57.2284,-251.491 53.8723,-245.348"/>
</g>
<!-- 4&#45;&gt;3 -->
<g id="edge15" class="edge"><title>4&#45;&gt;3</title>
<path fill="none" stroke="black" stroke-width="2" d="M174.638,-197.377C166.94,-213.145 155.9,-235.758 147.134,-253.713"/>
<polygon fill="black" stroke="black" stroke-width="2" points="143.776,-252.613 142.533,-263.135 150.066,-255.684 143.776,-252.613"/>
</g>
<!-- 4&#45;&gt;7 -->
<g id="edge21" class="edge"><title>4&#45;&gt;7</title>
<path fill="none" stroke="black" stroke-width="2" d="M163.687,-171.938C135.467,-163.14 84.1489,-147.141 51.4179,-136.937"/>
<polygon fill="black" stroke="black" stroke-width="2" points="52.0854,-133.479 41.4969,-133.844 50.002,-140.162 52.0854,-133.479"/>
</g>
<!-- 5&#45;&gt;4 -->
<g id="edge19" class="edge"><title>5&#45;&gt;4</title>
<path fill="none" stroke="black" stroke-width="2" d="M95.2052,-172.233C111.379,-173.332 133.92,-174.863 152.24,-176.107"/>
<polygon fill="black" stroke="black" stroke-width="2" points="152.244,-179.615 162.458,-176.801 152.718,-172.631 152.244,-179.615"/>
</g>
<!-- 5&#45;&gt;7 -->
<g id="edge23" class="edge"><title>5&#45;&gt;7</title>
<path fill="none" stroke="black" stroke-width="2" d="M57.5887,-157.339C53.8508,-154.275 49.7998,-150.954 45.8041,-147.678"/>
<polygon fill="black" stroke="black" stroke-width="2" points="47.7508,-144.749 37.7982,-141.116 43.3131,-150.162 47.7508,-144.749"/>
</g>
<!-- 6&#45;&gt;1 -->
<g id="edge9" class="edge"><title>6&#45;&gt;1</title>
<path fill="none" stroke="black" stroke-width="2" d="M126.357,-145.097C117.226,-157.601 104.394,-174.813 92.519,-189.476 78.4718,-206.821 61.9073,-225.772 49.0635,-240.162"/>
<polygon fill="black" stroke="black" stroke-width="2" points="46.421,-237.866 42.3504,-247.648 51.6325,-242.54 46.421,-237.866"/>
</g>
<!-- 6&#45;&gt;2 -->
<g id="edge13" class="edge"><title>6&#45;&gt;2</title>
<path fill="none" stroke="black" stroke-width="2" d="M147.069,-107.787C152.302,-95.1114 159.154,-78.5194 164.974,-64.4244"/>
<polygon fill="black" stroke="black" stroke-width="2" points="168.224,-65.7229 168.806,-55.144 161.754,-63.0512 168.224,-65.7229"/>
</g>
<!-- 6&#45;&gt;4 -->
<g id="edge20" class="edge"><title>6&#45;&gt;4</title>
<path fill="none" stroke="black" stroke-width="2" d="M153.087,-143.787C156.218,-147.282 159.597,-151.053 162.93,-154.774"/>
<polygon fill="black" stroke="black" stroke-width="2" points="160.335,-157.123 169.614,-162.236 165.548,-152.452 160.335,-157.123"/>
</g>
<!-- 6&#45;&gt;5 -->
<g id="edge22" class="edge"><title>6&#45;&gt;5</title>
<path fill="none" stroke="black" stroke-width="2" d="M121.088,-139.57C114.66,-143.833 107.253,-148.744 100.245,-153.391"/>
<polygon fill="black" stroke="black" stroke-width="2" points="98.0847,-150.624 91.6848,-159.068 101.953,-156.458 98.0847,-150.624"/>
</g>
<!-- 6&#45;&gt;7 -->
<g id="edge24" class="edge"><title>6&#45;&gt;7</title>
<path fill="none" stroke="black" stroke-width="2" d="M117.499,-127.774C99.4659,-127.727 73.3537,-127.658 52.8705,-127.604"/>
<polygon fill="black" stroke="black" stroke-width="2" points="52.754,-124.104 42.7447,-127.577 52.7355,-131.104 52.754,-124.104"/>
</g>
<!-- 7&#45;&gt;0 -->
<g id="edge5" class="edge"><title>7&#45;&gt;0</title>
<path fill="none" stroke="black" stroke-width="2" d="M30.2031,-108.022C37.734,-91.688 48.586,-68.1509 57.0907,-49.7049"/>
<polygon fill="black" stroke="black" stroke-width="2" points="60.2855,-51.1347 61.2941,-40.588 53.9286,-48.2038 60.2855,-51.1347"/>
</g>
<!-- 7&#45;&gt;2 -->
<g id="edge14" class="edge"><title>7&#45;&gt;2</title>
<path fill="none" stroke="black" stroke-width="2" d="M39.6881,-116.598C66.9656,-100.471 118.185,-70.1905 149.753,-51.5275"/>
<polygon fill="black" stroke="black" stroke-width="2" points="151.658,-54.4671 158.485,-46.3651 148.095,-48.4414 151.658,-54.4671"/>
</g>
<!-- 7&#45;&gt;3 -->
<g id="edge18" class="edge"><title>7&#45;&gt;3</title>
<path fill="none" stroke="black" stroke-width="2" d="M30.6095,-146.733C37.0061,-159.221 45.98,-175.657 55.3194,-189.31 72.4439,-214.344 94.8999,-240.685 111.277,-258.947"/>
<polygon fill="black" stroke="black" stroke-width="2" points="109.025,-261.675 118.332,-266.736 114.212,-256.975 109.025,-261.675"/>
</g>
</g>
</svg>

