<?xml version="1.0" encoding="UTF-8" standalone="no"?>
<!DOCTYPE svg PUBLIC "-//W3C//DTD SVG 1.1//EN"
 "http://www.w3.org/Graphics/SVG/1.1/DTD/svg11.dtd">
<!-- Generated by graphviz version 2.36.0 (20140111.2315)
 -->
<!-- Title: G Pages: 1 -->
<svg width="100%" height="100%"
 viewBox="0.00 0.00 213.37 287.49" xmlns="http://www.w3.org/2000/svg" xmlns:xlink="http://www.w3.org/1999/xlink">
<g id="graph0" class="graph" transform="scale(1 1) rotate(0) translate(4 283.488)">
<title>G</title>
<!-- 0 -->
<g id="node1" class="node"><title>0</title>
<ellipse fill="cadetblue" stroke="black" cx="60.7139" cy="-21.2132" rx="21.4286" ry="21.4286"/>
<text text-anchor="middle" x="60.7139" y="-16.2132" font-family="Times New Roman,serif" font-size="20.00">2</text>
</g>
<!-- 2 -->
<g id="node3" class="node"><title>2</title>
<ellipse fill="brown" stroke="black" cx="26.3852" cy="-73.3261" rx="21.4286" ry="21.4286"/>
<text text-anchor="middle" x="26.3852" y="-68.3261" font-family="Times New Roman,serif" font-size="20.00">3</text>
</g>
<!-- 0&#45;&gt;2 -->
<g id="edge1" class="edge"><title>0&#45;&gt;2</title>
<path fill="none" stroke="black" stroke-width="2" d="M48.8999,-39.1475C47.209,-41.7145 45.441,-44.3984 43.6713,-47.0848"/>
<polygon fill="black" stroke="black" stroke-width="2" points="40.683,-45.2589 38.1047,-55.5353 46.5287,-49.1097 40.683,-45.2589"/>
</g>
<!-- 4 -->
<g id="node5" class="node"><title>4</title>
<ellipse fill="dodgerblue" stroke="black" cx="184.154" cy="-73.9881" rx="21.4286" ry="21.4286"/>
<text text-anchor="middle" x="184.154" y="-68.9881" font-family="Times New Roman,serif" font-size="20.00">4</text>
</g>
<!-- 0&#45;&gt;4 -->
<g id="edge2" class="edge"><title>0&#45;&gt;4</title>
<path fill="none" stroke="black" stroke-width="2" d="M80.2733,-29.5756C100.379,-38.1714 131.918,-51.6556 154.974,-61.5126"/>
<polygon fill="black" stroke="black" stroke-width="2" points="153.706,-64.7772 164.277,-65.4902 156.458,-58.3407 153.706,-64.7772"/>
</g>
<!-- 5 -->
<g id="node6" class="node"><title>5</title>
<ellipse fill="cadetblue" stroke="black" cx="21.2132" cy="-173.791" rx="21.4286" ry="21.4286"/>
<text text-anchor="middle" x="21.2132" y="-168.791" font-family="Times New Roman,serif" font-size="20.00">2</text>
</g>
<!-- 0&#45;&gt;5 -->
<g id="edge3" class="edge"><title>0&#45;&gt;5</title>
<path fill="none" stroke="black" stroke-width="2" d="M58.1918,-42.413C56.8692,-51.9389 55.0313,-63.2817 52.6896,-73.3649 47.0929,-97.4628 38.6114,-124.163 31.8621,-143.971"/>
<polygon fill="black" stroke="black" stroke-width="2" points="28.4751,-143.057 28.5151,-153.651 35.0908,-145.344 28.4751,-143.057"/>
</g>
<!-- 1 -->
<g id="node2" class="node"><title>1</title>
<ellipse fill="cadetblue" stroke="black" cx="172.657" cy="-178.167" rx="21.4286" ry="21.4286"/>
<text text-anchor="middle" x="172.657" y="-173.167" font-family="Times New Roman,serif" font-size="20.00">2</text>
</g>
<!-- 3 -->
<g id="node4" class="node"><title>3</title>
<ellipse fill="cadetblue" stroke="black" cx="95.4024" cy="-258.274" rx="21.4286" ry="21.4286"/>
<text text-anchor="middle" x="95.4024" y="-253.274" font-family="Times New Roman,serif" font-size="20.00">2</text>
</g>
<!-- 1&#45;&gt;3 -->
<g id="edge6" class="edge"><title>1&#45;&gt;3</title>
<path fill="none" stroke="black" stroke-width="2" d="M157.762,-193.613C146.326,-205.471 130.36,-222.027 117.446,-235.417"/>
<polygon fill="black" stroke="black" stroke-width="2" points="114.675,-233.249 110.252,-242.876 119.713,-238.108 114.675,-233.249"/>
</g>
<!-- 1&#45;&gt;4 -->
<g id="edge7" class="edge"><title>1&#45;&gt;4</title>
<path fill="none" stroke="black" stroke-width="2" d="M175.012,-156.834C176.639,-142.086 178.832,-122.215 180.662,-105.63"/>
<polygon fill="black" stroke="black" stroke-width="2" points="184.185,-105.617 181.803,-95.2932 177.227,-104.849 184.185,-105.617"/>
</g>
<!-- 7 -->
<g id="node8" class="node"><title>7</title>
<ellipse fill="cadetblue" stroke="black" cx="106.152" cy="-129.658" rx="21.4286" ry="21.4286"/>
<text text-anchor="middle" x="106.152" y="-124.658" font-family="Times New Roman,serif" font-size="20.00">2</text>
</g>
<!-- 1&#45;&gt;7 -->
<g id="edge10" class="edge"><title>1&#45;&gt;7</title>
<path fill="none" stroke="black" stroke-width="2" d="M155.184,-165.422C148.062,-160.227 139.682,-154.115 131.885,-148.428"/>
<polygon fill="black" stroke="black" stroke-width="2" points="133.881,-145.552 123.74,-142.487 129.756,-151.208 133.881,-145.552"/>
</g>
<!-- 2&#45;&gt;5 -->
<g id="edge12" class="edge"><title>2&#45;&gt;5</title>
<path fill="none" stroke="black" stroke-width="2" d="M25.2884,-94.6322C24.5752,-108.485 23.6329,-126.789 22.834,-142.307"/>
<polygon fill="black" stroke="black" stroke-width="2" points="19.3273,-142.349 22.3085,-152.516 26.3181,-142.709 19.3273,-142.349"/>
</g>
<!-- 6 -->
<g id="node7" class="node"><title>6</title>
<ellipse fill="cadetblue" stroke="black" cx="145.004" cy="-23.5567" rx="21.4286" ry="21.4286"/>
<text text-anchor="middle" x="145.004" y="-18.5567" font-family="Times New Roman,serif" font-size="20.00">2</text>
</g>
<!-- 2&#45;&gt;6 -->
<g id="edge13" class="edge"><title>2&#45;&gt;6</title>
<path fill="none" stroke="black" stroke-width="2" d="M45.9727,-65.1077C65.0319,-57.111 94.2196,-44.8646 115.977,-35.7358"/>
<polygon fill="black" stroke="black" stroke-width="2" points="117.521,-38.8838 125.388,-31.7873 114.812,-32.4289 117.521,-38.8838"/>
</g>
<!-- 3&#45;&gt;7 -->
<g id="edge16" class="edge"><title>3&#45;&gt;7</title>
<path fill="none" stroke="black" stroke-width="2" d="M97.1774,-237.036C98.9046,-216.371 101.55,-184.723 103.521,-161.132"/>
<polygon fill="black" stroke="black" stroke-width="2" points="107.029,-161.185 104.374,-150.928 100.053,-160.602 107.029,-161.185"/>
</g>
<!-- 4&#45;&gt;2 -->
<g id="edge11" class="edge"><title>4&#45;&gt;2</title>
<path fill="none" stroke="black" stroke-width="2" d="M162.876,-73.8989C135.941,-73.7858 89.3027,-73.5901 58.1464,-73.4594"/>
<polygon fill="black" stroke="black" stroke-width="2" points="57.844,-69.9582 47.8293,-73.4161 57.8145,-76.9581 57.844,-69.9582"/>
</g>
<!-- 5&#45;&gt;1 -->
<g id="edge8" class="edge"><title>5&#45;&gt;1</title>
<path fill="none" stroke="black" stroke-width="2" d="M42.5903,-174.409C68.2966,-175.152 111.664,-176.405 141.194,-177.258"/>
<polygon fill="black" stroke="black" stroke-width="2" points="141.292,-180.762 151.389,-177.553 141.494,-173.765 141.292,-180.762"/>
</g>
<!-- 5&#45;&gt;3 -->
<g id="edge15" class="edge"><title>5&#45;&gt;3</title>
<path fill="none" stroke="black" stroke-width="2" d="M35.5176,-190.08C46.5699,-202.666 62.0292,-220.271 74.472,-234.44"/>
<polygon fill="black" stroke="black" stroke-width="2" points="72.1651,-237.117 81.3935,-242.322 77.4249,-232.498 72.1651,-237.117"/>
</g>
<!-- 6&#45;&gt;0 -->
<g id="edge4" class="edge"><title>6&#45;&gt;0</title>
<path fill="none" stroke="black" stroke-width="2" d="M123.734,-22.9653C114.151,-22.6989 102.641,-22.3789 92.0949,-22.0857"/>
<polygon fill="black" stroke="black" stroke-width="2" points="92.0706,-18.5837 81.9771,-21.8044 91.876,-25.581 92.0706,-18.5837"/>
</g>
<!-- 6&#45;&gt;1 -->
<g id="edge9" class="edge"><title>6&#45;&gt;1</title>
<path fill="none" stroke="black" stroke-width="2" d="M148.791,-44.7305C153.528,-71.2155 161.676,-116.772 167.115,-147.181"/>
<polygon fill="black" stroke="black" stroke-width="2" points="163.71,-148.022 168.916,-157.249 170.601,-146.789 163.71,-148.022"/>
</g>
<!-- 6&#45;&gt;4 -->
<g id="edge17" class="edge"><title>6&#45;&gt;4</title>
<path fill="none" stroke="black" stroke-width="2" d="M158.04,-40.3496C160.197,-43.1272 162.472,-46.0589 164.745,-48.9866"/>
<polygon fill="black" stroke="black" stroke-width="2" points="162.144,-51.3436 171.041,-57.0966 167.674,-47.0511 162.144,-51.3436"/>
</g>
<!-- 7&#45;&gt;0 -->
<g id="edge5" class="edge"><title>7&#45;&gt;0</title>
<path fill="none" stroke="black" stroke-width="2" d="M97.9233,-110.02C90.9544,-93.3871 80.8634,-69.3034 72.9478,-50.4113"/>
<polygon fill="black" stroke="black" stroke-width="2" points="76.1273,-48.9427 69.0347,-41.0722 69.6711,-51.6479 76.1273,-48.9427"/>
</g>
<!-- 7&#45;&gt;2 -->
<g id="edge14" class="edge"><title>7&#45;&gt;2</title>
<path fill="none" stroke="black" stroke-width="2" d="M88.449,-117.156C77.7382,-109.592 63.8981,-99.8182 52.0062,-91.42"/>
<polygon fill="black" stroke="black" stroke-width="2" points="53.9515,-88.509 43.7641,-85.5993 49.9134,-94.2269 53.9515,-88.509"/>
</g>
<!-- 7&#45;&gt;4 -->
<g id="edge18" class="edge"><title>7&#45;&gt;4</title>
<path fill="none" stroke="black" stroke-width="2" d="M123.463,-117.303C133.692,-110.003 146.84,-100.619 158.281,-92.4534"/>
<polygon fill="black" stroke="black" stroke-width="2" points="160.515,-95.1593 166.621,-86.5011 156.448,-89.4615 160.515,-95.1593"/>
</g>
<!-- 7&#45;&gt;6 -->
<g id="edge19" class="edge"><title>7&#45;&gt;6</title>
<path fill="none" stroke="black" stroke-width="2" d="M113.46,-109.701C119.283,-93.7974 127.526,-71.2864 134.126,-53.2646"/>
<polygon fill="black" stroke="black" stroke-width="2" points="137.445,-54.3786 137.597,-43.7849 130.872,-51.9716 137.445,-54.3786"/>
</g>
</g>
</svg>

