<?xml version="1.0" encoding="UTF-8" standalone="no"?>
<!DOCTYPE svg PUBLIC "-//W3C//DTD SVG 1.1//EN"
 "http://www.w3.org/Graphics/SVG/1.1/DTD/svg11.dtd">
<!-- Generated by graphviz version 2.36.0 (20140111.2315)
 -->
<!-- Title: G Pages: 1 -->
<svg width="100%" height="100%"
 viewBox="0.00 0.00 218.56 259.46" xmlns="http://www.w3.org/2000/svg" xmlns:xlink="http://www.w3.org/1999/xlink">
<g id="graph0" class="graph" transform="scale(1 1) rotate(0) translate(4 255.455)">
<title>G</title>
<!-- 0 -->
<g id="node1" class="node"><title>0</title>
<ellipse fill="dodgerblue" stroke="black" cx="43.0663" cy="-56.4724" rx="21.4286" ry="21.4286"/>
<text text-anchor="middle" x="43.0663" y="-51.4724" font-family="Times New Roman,serif" font-size="20.00">4</text>
</g>
<!-- 6 -->
<g id="node7" class="node"><title>6</title>
<ellipse fill="cadetblue" stroke="black" cx="168.936" cy="-125.219" rx="21.4286" ry="21.4286"/>
<text text-anchor="middle" x="168.936" y="-120.219" font-family="Times New Roman,serif" font-size="20.00">2</text>
</g>
<!-- 0&#45;&gt;6 -->
<g id="edge4" class="edge"><title>0&#45;&gt;6</title>
<path fill="none" stroke="black" stroke-width="2" d="M61.9102,-66.7645C82.8585,-78.2059 116.904,-96.8007 140.964,-109.941"/>
<polygon fill="black" stroke="black" stroke-width="2" points="139.509,-113.135 149.963,-114.857 142.865,-106.992 139.509,-113.135"/>
</g>
<!-- 1 -->
<g id="node2" class="node"><title>1</title>
<ellipse fill="cadetblue" stroke="black" cx="86.8963" cy="-230.242" rx="21.4286" ry="21.4286"/>
<text text-anchor="middle" x="86.8963" y="-225.242" font-family="Times New Roman,serif" font-size="20.00">2</text>
</g>
<!-- 3 -->
<g id="node4" class="node"><title>3</title>
<ellipse fill="cadetblue" stroke="black" cx="189.35" cy="-226.821" rx="21.4286" ry="21.4286"/>
<text text-anchor="middle" x="189.35" y="-221.821" font-family="Times New Roman,serif" font-size="20.00">2</text>
</g>
<!-- 1&#45;&gt;3 -->
<g id="edge6" class="edge"><title>1&#45;&gt;3</title>
<path fill="none" stroke="black" stroke-width="2" d="M108.125,-229.533C122.453,-229.055 141.615,-228.415 157.729,-227.877"/>
<polygon fill="black" stroke="black" stroke-width="2" points="157.919,-231.372 167.796,-227.54 157.685,-224.376 157.919,-231.372"/>
</g>
<!-- 7 -->
<g id="node8" class="node"><title>7</title>
<ellipse fill="cadetblue" stroke="black" cx="103.268" cy="-140.995" rx="21.4286" ry="21.4286"/>
<text text-anchor="middle" x="103.268" y="-135.995" font-family="Times New Roman,serif" font-size="20.00">2</text>
</g>
<!-- 1&#45;&gt;7 -->
<g id="edge9" class="edge"><title>1&#45;&gt;7</title>
<path fill="none" stroke="black" stroke-width="2" d="M90.7763,-209.092C92.8152,-197.977 95.3524,-184.146 97.6065,-171.858"/>
<polygon fill="black" stroke="black" stroke-width="2" points="101.054,-172.461 99.4163,-161.993 94.1693,-171.197 101.054,-172.461"/>
</g>
<!-- 2 -->
<g id="node3" class="node"><title>2</title>
<ellipse fill="brown" stroke="black" cx="93.4977" cy="-21.2132" rx="21.4286" ry="21.4286"/>
<text text-anchor="middle" x="93.4977" y="-16.2132" font-family="Times New Roman,serif" font-size="20.00">3</text>
</g>
<!-- 2&#45;&gt;0 -->
<g id="edge1" class="edge"><title>2&#45;&gt;0</title>
<path fill="none" stroke="black" stroke-width="2" d="M75.8593,-33.5452C73.7218,-35.0395 71.5044,-36.5899 69.2765,-38.1475"/>
<polygon fill="black" stroke="black" stroke-width="2" points="66.9702,-35.4894 60.78,-44.0878 70.9812,-41.2263 66.9702,-35.4894"/>
</g>
<!-- 2&#45;&gt;6 -->
<g id="edge12" class="edge"><title>2&#45;&gt;6</title>
<path fill="none" stroke="black" stroke-width="2" d="M105.955,-38.3877C118.076,-55.0989 136.638,-80.6908 150.475,-99.7678"/>
<polygon fill="black" stroke="black" stroke-width="2" points="147.756,-101.979 156.46,-108.019 153.422,-97.8693 147.756,-101.979"/>
</g>
<!-- 3&#45;&gt;7 -->
<g id="edge15" class="edge"><title>3&#45;&gt;7</title>
<path fill="none" stroke="black" stroke-width="2" d="M173.96,-211.477C160.618,-198.173 141.127,-178.741 125.989,-163.647"/>
<polygon fill="black" stroke="black" stroke-width="2" points="128.078,-160.788 118.525,-156.206 123.135,-165.745 128.078,-160.788"/>
</g>
<!-- 4 -->
<g id="node5" class="node"><title>4</title>
<ellipse fill="cadetblue" stroke="black" cx="149.786" cy="-47.2759" rx="21.4286" ry="21.4286"/>
<text text-anchor="middle" x="149.786" y="-42.2759" font-family="Times New Roman,serif" font-size="20.00">2</text>
</g>
<!-- 4&#45;&gt;0 -->
<g id="edge2" class="edge"><title>4&#45;&gt;0</title>
<path fill="none" stroke="black" stroke-width="2" d="M128.446,-49.1148C113.032,-50.4431 91.9615,-52.2589 74.6091,-53.7542"/>
<polygon fill="black" stroke="black" stroke-width="2" points="74.0317,-50.2909 64.3692,-54.6367 74.6328,-57.2651 74.0317,-50.2909"/>
</g>
<!-- 4&#45;&gt;2 -->
<g id="edge10" class="edge"><title>4&#45;&gt;2</title>
<path fill="none" stroke="black" stroke-width="2" d="M130.415,-38.3066C127.791,-37.0918 125.055,-35.8247 122.31,-34.5537"/>
<polygon fill="black" stroke="black" stroke-width="2" points="123.641,-31.3132 113.096,-30.2875 120.7,-37.6653 123.641,-31.3132"/>
</g>
<!-- 5 -->
<g id="node6" class="node"><title>5</title>
<ellipse fill="cadetblue" stroke="black" cx="21.2132" cy="-126.378" rx="21.4286" ry="21.4286"/>
<text text-anchor="middle" x="21.2132" y="-121.378" font-family="Times New Roman,serif" font-size="20.00">2</text>
</g>
<!-- 4&#45;&gt;5 -->
<g id="edge16" class="edge"><title>4&#45;&gt;5</title>
<path fill="none" stroke="black" stroke-width="2" d="M131.638,-58.4416C109.937,-71.7927 73.411,-94.2646 48.351,-109.682"/>
<polygon fill="black" stroke="black" stroke-width="2" points="46.369,-106.792 39.6859,-115.013 50.0371,-112.754 46.369,-106.792"/>
</g>
<!-- 5&#45;&gt;0 -->
<g id="edge3" class="edge"><title>5&#45;&gt;0</title>
<path fill="none" stroke="black" stroke-width="2" d="M27.6517,-105.782C29.5024,-99.8621 31.5611,-93.2766 33.5557,-86.8959"/>
<polygon fill="black" stroke="black" stroke-width="2" points="36.9552,-87.7516 36.5983,-77.1628 30.274,-85.663 36.9552,-87.7516"/>
</g>
<!-- 5&#45;&gt;1 -->
<g id="edge7" class="edge"><title>5&#45;&gt;1</title>
<path fill="none" stroke="black" stroke-width="2" d="M32.6543,-144.47C42.9515,-160.753 58.2203,-184.897 69.9368,-203.424"/>
<polygon fill="black" stroke="black" stroke-width="2" points="67.0629,-205.428 75.3659,-212.009 72.9791,-201.687 67.0629,-205.428"/>
</g>
<!-- 5&#45;&gt;2 -->
<g id="edge11" class="edge"><title>5&#45;&gt;2</title>
<path fill="none" stroke="black" stroke-width="2" d="M34.902,-110.172C43.0198,-100.285 53.317,-87.249 61.6493,-75.0894 67.3325,-66.7957 73.0682,-57.4588 78.0759,-48.9164"/>
<polygon fill="black" stroke="black" stroke-width="2" points="81.2272,-50.4577 83.1872,-40.0457 75.162,-46.9629 81.2272,-50.4577"/>
</g>
<!-- 6&#45;&gt;1 -->
<g id="edge8" class="edge"><title>6&#45;&gt;1</title>
<path fill="none" stroke="black" stroke-width="2" d="M155.755,-142.093C142.359,-159.241 121.463,-185.991 106.202,-205.528"/>
<polygon fill="black" stroke="black" stroke-width="2" points="103.443,-203.375 100.045,-213.41 108.959,-207.684 103.443,-203.375"/>
</g>
<!-- 6&#45;&gt;3 -->
<g id="edge14" class="edge"><title>6&#45;&gt;3</title>
<path fill="none" stroke="black" stroke-width="2" d="M173.166,-146.271C176.04,-160.575 179.89,-179.738 183.114,-195.784"/>
<polygon fill="black" stroke="black" stroke-width="2" points="179.724,-196.681 185.126,-205.796 186.587,-195.302 179.724,-196.681"/>
</g>
<!-- 6&#45;&gt;4 -->
<g id="edge17" class="edge"><title>6&#45;&gt;4</title>
<path fill="none" stroke="black" stroke-width="2" d="M163.804,-104.332C161.813,-96.2291 159.493,-86.7863 157.321,-77.942"/>
<polygon fill="black" stroke="black" stroke-width="2" points="160.651,-76.8267 154.866,-67.9506 153.853,-78.4969 160.651,-76.8267"/>
</g>
<!-- 7&#45;&gt;0 -->
<g id="edge5" class="edge"><title>7&#45;&gt;0</title>
<path fill="none" stroke="black" stroke-width="2" d="M90.7944,-123.482C82.3188,-111.582 70.9644,-95.6407 61.4567,-82.292"/>
<polygon fill="black" stroke="black" stroke-width="2" points="64.1765,-80.0776 55.5242,-73.963 58.4749,-84.1387 64.1765,-80.0776"/>
</g>
<!-- 7&#45;&gt;2 -->
<g id="edge13" class="edge"><title>7&#45;&gt;2</title>
<path fill="none" stroke="black" stroke-width="2" d="M101.522,-119.58C100,-100.929 97.7745,-73.6437 96.053,-52.5387"/>
<polygon fill="black" stroke="black" stroke-width="2" points="99.5309,-52.1246 95.2294,-42.4423 92.5541,-52.6938 99.5309,-52.1246"/>
</g>
<!-- 7&#45;&gt;4 -->
<g id="edge18" class="edge"><title>7&#45;&gt;4</title>
<path fill="none" stroke="black" stroke-width="2" d="M112.907,-121.576C119.5,-108.294 128.347,-90.47 135.723,-75.6092"/>
<polygon fill="black" stroke="black" stroke-width="2" points="139.008,-76.8623 140.319,-66.3489 132.738,-73.7501 139.008,-76.8623"/>
</g>
<!-- 7&#45;&gt;5 -->
<g id="edge19" class="edge"><title>7&#45;&gt;5</title>
<path fill="none" stroke="black" stroke-width="2" d="M82.1371,-137.231C73.0445,-135.611 62.2315,-133.685 52.2568,-131.908"/>
<polygon fill="black" stroke="black" stroke-width="2" points="52.7317,-128.438 42.2728,-130.13 51.5041,-135.329 52.7317,-128.438"/>
</g>
</g>
</svg>

