<?xml version="1.0" encoding="UTF-8" standalone="no"?>
<!DOCTYPE svg PUBLIC "-//W3C//DTD SVG 1.1//EN"
 "http://www.w3.org/Graphics/SVG/1.1/DTD/svg11.dtd">
<!-- Generated by graphviz version 2.36.0 (20140111.2315)
 -->
<!-- Title: G Pages: 1 -->
<svg width="100%" height="100%"
 viewBox="0.00 0.00 217.54 241.08" xmlns="http://www.w3.org/2000/svg" xmlns:xlink="http://www.w3.org/1999/xlink">
<g id="graph0" class="graph" transform="scale(1 1) rotate(0) translate(4 237.083)">
<title>G</title>
<!-- 0 -->
<g id="node1" class="node"><title>0</title>
<ellipse fill="cadetblue" stroke="black" cx="110.001" cy="-84.9712" rx="21.4286" ry="21.4286"/>
<text text-anchor="middle" x="110.001" y="-79.9712" font-family="Times New Roman,serif" font-size="20.00">2</text>
</g>
<!-- 5 -->
<g id="node6" class="node"><title>5</title>
<ellipse fill="cadetblue" stroke="black" cx="21.2132" cy="-117.175" rx="21.4286" ry="21.4286"/>
<text text-anchor="middle" x="21.2132" y="-112.175" font-family="Times New Roman,serif" font-size="20.00">2</text>
</g>
<!-- 0&#45;&gt;5 -->
<g id="edge3" class="edge"><title>0&#45;&gt;5</title>
<path fill="none" stroke="black" stroke-width="2" d="M89.8535,-92.2787C78.3879,-96.4373 63.8097,-101.725 51.04,-106.356"/>
<polygon fill="black" stroke="black" stroke-width="2" points="49.4881,-103.196 41.2807,-109.896 51.8749,-109.777 49.4881,-103.196"/>
</g>
<!-- 6 -->
<g id="node7" class="node"><title>6</title>
<ellipse fill="cadetblue" stroke="black" cx="188.331" cy="-141.646" rx="21.4286" ry="21.4286"/>
<text text-anchor="middle" x="188.331" y="-136.646" font-family="Times New Roman,serif" font-size="20.00">2</text>
</g>
<!-- 0&#45;&gt;6 -->
<g id="edge4" class="edge"><title>0&#45;&gt;6</title>
<path fill="none" stroke="black" stroke-width="2" d="M127.385,-97.5493C137.729,-105.034 151.045,-114.668 162.59,-123.022"/>
<polygon fill="black" stroke="black" stroke-width="2" points="160.842,-126.077 170.996,-129.103 164.946,-120.406 160.842,-126.077"/>
</g>
<!-- 7 -->
<g id="node8" class="node"><title>7</title>
<ellipse fill="cadetblue" stroke="black" cx="49.0112" cy="-36.0614" rx="21.4286" ry="21.4286"/>
<text text-anchor="middle" x="49.0112" y="-31.0614" font-family="Times New Roman,serif" font-size="20.00">2</text>
</g>
<!-- 0&#45;&gt;7 -->
<g id="edge5" class="edge"><title>0&#45;&gt;7</title>
<path fill="none" stroke="black" stroke-width="2" d="M93.3351,-71.6064C87.2842,-66.754 80.3117,-61.1625 73.7146,-55.872"/>
<polygon fill="black" stroke="black" stroke-width="2" points="75.6477,-52.9358 65.6567,-49.4101 71.2684,-58.3967 75.6477,-52.9358"/>
</g>
<!-- 1 -->
<g id="node2" class="node"><title>1</title>
<ellipse fill="cadetblue" stroke="black" cx="123.482" cy="-135.403" rx="21.4286" ry="21.4286"/>
<text text-anchor="middle" x="123.482" y="-130.403" font-family="Times New Roman,serif" font-size="20.00">2</text>
</g>
<!-- 1&#45;&gt;6 -->
<g id="edge8" class="edge"><title>1&#45;&gt;6</title>
<path fill="none" stroke="black" stroke-width="2" d="M144.716,-137.447C148.595,-137.821 152.717,-138.217 156.82,-138.612"/>
<polygon fill="black" stroke="black" stroke-width="2" points="156.538,-142.101 166.828,-139.576 157.209,-135.134 156.538,-142.101"/>
</g>
<!-- 1&#45;&gt;7 -->
<g id="edge9" class="edge"><title>1&#45;&gt;7</title>
<path fill="none" stroke="black" stroke-width="2" d="M107.716,-121.164C102.26,-115.884 96.2891,-109.683 91.3837,-103.554 81.4356,-91.1248 71.8696,-76.2327 64.3521,-63.6031"/>
<polygon fill="black" stroke="black" stroke-width="2" points="67.3239,-61.7512 59.2642,-54.8743 61.2763,-65.2764 67.3239,-61.7512"/>
</g>
<!-- 2 -->
<g id="node3" class="node"><title>2</title>
<ellipse fill="brown" stroke="black" cx="111.403" cy="-21.2132" rx="21.4286" ry="21.4286"/>
<text text-anchor="middle" x="111.403" y="-16.2132" font-family="Times New Roman,serif" font-size="20.00">3</text>
</g>
<!-- 2&#45;&gt;0 -->
<g id="edge1" class="edge"><title>2&#45;&gt;0</title>
<path fill="none" stroke="black" stroke-width="2" d="M110.936,-42.4437C110.859,-45.9553 110.778,-49.6616 110.696,-53.3631"/>
<polygon fill="black" stroke="black" stroke-width="2" points="107.191,-53.5415 110.471,-63.6161 114.19,-53.6955 107.191,-53.5415"/>
</g>
<!-- 4 -->
<g id="node5" class="node"><title>4</title>
<ellipse fill="cadetblue" stroke="black" cx="175.696" cy="-28.7521" rx="21.4286" ry="21.4286"/>
<text text-anchor="middle" x="175.696" y="-23.7521" font-family="Times New Roman,serif" font-size="20.00">2</text>
</g>
<!-- 2&#45;&gt;4 -->
<g id="edge10" class="edge"><title>2&#45;&gt;4</title>
<path fill="none" stroke="black" stroke-width="2" d="M132.812,-23.7235C136.538,-24.1604 140.481,-24.6228 144.408,-25.0832"/>
<polygon fill="black" stroke="black" stroke-width="2" points="144.26,-28.5898 154.6,-26.2784 145.075,-21.6375 144.26,-28.5898"/>
</g>
<!-- 3 -->
<g id="node4" class="node"><title>3</title>
<ellipse fill="cadetblue" stroke="black" cx="91.8585" cy="-211.87" rx="21.4286" ry="21.4286"/>
<text text-anchor="middle" x="91.8585" y="-206.87" font-family="Times New Roman,serif" font-size="20.00">2</text>
</g>
<!-- 3&#45;&gt;1 -->
<g id="edge6" class="edge"><title>3&#45;&gt;1</title>
<path fill="none" stroke="black" stroke-width="2" d="M100.002,-192.178C103.507,-183.704 107.674,-173.628 111.518,-164.332"/>
<polygon fill="black" stroke="black" stroke-width="2" points="114.779,-165.607 115.366,-155.028 108.31,-162.932 114.779,-165.607"/>
</g>
<!-- 4&#45;&gt;0 -->
<g id="edge2" class="edge"><title>4&#45;&gt;0</title>
<path fill="none" stroke="black" stroke-width="2" d="M159.457,-42.649C151.855,-49.1542 142.643,-57.0375 134.24,-64.2287"/>
<polygon fill="black" stroke="black" stroke-width="2" points="131.832,-61.6826 126.51,-70.8437 136.383,-67.0011 131.832,-61.6826"/>
</g>
<!-- 4&#45;&gt;1 -->
<g id="edge7" class="edge"><title>4&#45;&gt;1</title>
<path fill="none" stroke="black" stroke-width="2" d="M166.361,-47.8191C158.318,-64.248 146.592,-88.2002 137.434,-106.905"/>
<polygon fill="black" stroke="black" stroke-width="2" points="134.166,-105.621 132.912,-116.141 140.453,-108.699 134.166,-105.621"/>
</g>
<!-- 5&#45;&gt;2 -->
<g id="edge11" class="edge"><title>5&#45;&gt;2</title>
<path fill="none" stroke="black" stroke-width="2" d="M36.1063,-101.329C50.6845,-85.8176 73.0561,-62.0143 89.6295,-44.3804"/>
<polygon fill="black" stroke="black" stroke-width="2" points="92.4893,-46.4482 96.7875,-36.7644 87.3885,-41.6542 92.4893,-46.4482"/>
</g>
<!-- 5&#45;&gt;3 -->
<g id="edge14" class="edge"><title>5&#45;&gt;3</title>
<path fill="none" stroke="black" stroke-width="2" d="M34.1706,-134.543C45.0252,-149.093 60.6666,-170.059 72.9246,-186.491"/>
<polygon fill="black" stroke="black" stroke-width="2" points="70.1982,-188.689 78.9832,-194.612 75.8089,-184.504 70.1982,-188.689"/>
</g>
<!-- 6&#45;&gt;2 -->
<g id="edge12" class="edge"><title>6&#45;&gt;2</title>
<path fill="none" stroke="black" stroke-width="2" d="M176.814,-123.616C164.011,-103.573 143.204,-70.9977 128.499,-47.9772"/>
<polygon fill="black" stroke="black" stroke-width="2" points="131.332,-45.9099 122.999,-39.3665 125.433,-49.6781 131.332,-45.9099"/>
</g>
<!-- 6&#45;&gt;3 -->
<g id="edge15" class="edge"><title>6&#45;&gt;3</title>
<path fill="none" stroke="black" stroke-width="2" d="M171.084,-154.201C156.223,-165.018 134.556,-180.79 117.636,-193.106"/>
<polygon fill="black" stroke="black" stroke-width="2" points="115.307,-190.473 109.282,-199.187 119.427,-196.132 115.307,-190.473"/>
</g>
<!-- 7&#45;&gt;2 -->
<g id="edge13" class="edge"><title>7&#45;&gt;2</title>
<path fill="none" stroke="black" stroke-width="2" d="M69.7869,-31.1172C73.2233,-30.2994 76.8502,-29.4362 80.4724,-28.5742"/>
<polygon fill="black" stroke="black" stroke-width="2" points="81.5878,-31.9066 90.5057,-26.1865 79.9671,-25.0968 81.5878,-31.9066"/>
</g>
<!-- 7&#45;&gt;4 -->
<g id="edge16" class="edge"><title>7&#45;&gt;4</title>
<path fill="none" stroke="black" stroke-width="2" d="M69.3533,-42.2574C81.4628,-45.3276 97.1849,-48.2422 111.365,-47.5175 123.075,-46.9191 135.537,-43.8831 146.342,-40.4217"/>
<polygon fill="black" stroke="black" stroke-width="2" points="147.811,-43.617 156.116,-37.0384 145.521,-37.0021 147.811,-43.617"/>
</g>
<!-- 7&#45;&gt;5 -->
<g id="edge17" class="edge"><title>7&#45;&gt;5</title>
<path fill="none" stroke="black" stroke-width="2" d="M41.9966,-56.5297C38.7788,-65.919 34.9025,-77.2301 31.3735,-87.5275"/>
<polygon fill="black" stroke="black" stroke-width="2" points="28.0604,-86.3993 28.1293,-96.9939 34.6823,-88.6687 28.0604,-86.3993"/>
</g>
</g>
</svg>

