<?xml version="1.0" encoding="UTF-8" standalone="no"?>
<!DOCTYPE svg PUBLIC "-//W3C//DTD SVG 1.1//EN"
 "http://www.w3.org/Graphics/SVG/1.1/DTD/svg11.dtd">
<!-- Generated by graphviz version 2.36.0 (20140111.2315)
 -->
<!-- Title: G Pages: 1 -->
<svg width="100%" height="100%"
 viewBox="0.00 0.00 226.47 221.40" xmlns="http://www.w3.org/2000/svg" xmlns:xlink="http://www.w3.org/1999/xlink">
<g id="graph0" class="graph" transform="scale(1 1) rotate(0) translate(4 217.398)">
<title>G</title>
<!-- 0 -->
<g id="node1" class="node"><title>0</title>
<ellipse fill="brown" stroke="black" cx="114.118" cy="-73.3152" rx="21.4286" ry="21.4286"/>
<text text-anchor="middle" x="114.118" y="-68.3152" font-family="Times New Roman,serif" font-size="20.00">3</text>
</g>
<!-- 6 -->
<g id="node7" class="node"><title>6</title>
<ellipse fill="cadetblue" stroke="black" cx="165.637" cy="-143.78" rx="21.4286" ry="21.4286"/>
<text text-anchor="middle" x="165.637" y="-138.78" font-family="Times New Roman,serif" font-size="20.00">2</text>
</g>
<!-- 0&#45;&gt;6 -->
<g id="edge4" class="edge"><title>0&#45;&gt;6</title>
<path fill="none" stroke="black" stroke-width="2" d="M126.853,-90.7334C132.967,-99.0958 140.409,-109.275 147.134,-118.472"/>
<polygon fill="black" stroke="black" stroke-width="2" points="144.321,-120.555 153.048,-126.562 149.972,-116.424 144.321,-120.555"/>
</g>
<!-- 7 -->
<g id="node8" class="node"><title>7</title>
<ellipse fill="cadetblue" stroke="black" cx="25.9983" cy="-65.3878" rx="21.4286" ry="21.4286"/>
<text text-anchor="middle" x="25.9983" y="-60.3878" font-family="Times New Roman,serif" font-size="20.00">2</text>
</g>
<!-- 0&#45;&gt;7 -->
<g id="edge5" class="edge"><title>0&#45;&gt;7</title>
<path fill="none" stroke="black" stroke-width="2" d="M92.7864,-71.3962C82.179,-70.442 69.1513,-69.27 57.427,-68.2152"/>
<polygon fill="black" stroke="black" stroke-width="2" points="57.4065,-64.6993 47.1331,-67.2892 56.7792,-71.6712 57.4065,-64.6993"/>
</g>
<!-- 1 -->
<g id="node2" class="node"><title>1</title>
<ellipse fill="brown" stroke="black" cx="103.048" cy="-155.467" rx="21.4286" ry="21.4286"/>
<text text-anchor="middle" x="103.048" y="-150.467" font-family="Times New Roman,serif" font-size="20.00">3</text>
</g>
<!-- 3 -->
<g id="node4" class="node"><title>3</title>
<ellipse fill="cadetblue" stroke="black" cx="44.9247" cy="-192.185" rx="21.4286" ry="21.4286"/>
<text text-anchor="middle" x="44.9247" y="-187.185" font-family="Times New Roman,serif" font-size="20.00">2</text>
</g>
<!-- 1&#45;&gt;3 -->
<g id="edge6" class="edge"><title>1&#45;&gt;3</title>
<path fill="none" stroke="black" stroke-width="2" d="M84.9763,-166.884C80.7524,-169.552 76.1652,-172.45 71.6535,-175.3"/>
<polygon fill="black" stroke="black" stroke-width="2" points="69.7709,-172.349 63.1858,-180.649 73.5094,-178.267 69.7709,-172.349"/>
</g>
<!-- 5 -->
<g id="node6" class="node"><title>5</title>
<ellipse fill="brown" stroke="black" cx="21.2132" cy="-115.819" rx="21.4286" ry="21.4286"/>
<text text-anchor="middle" x="21.2132" y="-110.819" font-family="Times New Roman,serif" font-size="20.00">3</text>
</g>
<!-- 1&#45;&gt;5 -->
<g id="edge8" class="edge"><title>1&#45;&gt;5</title>
<path fill="none" stroke="black" stroke-width="2" d="M83.6546,-146.071C73.463,-141.134 60.781,-134.989 49.5138,-129.53"/>
<polygon fill="black" stroke="black" stroke-width="2" points="50.9933,-126.358 40.4678,-125.148 47.9412,-132.658 50.9933,-126.358"/>
</g>
<!-- 2 -->
<g id="node3" class="node"><title>2</title>
<ellipse fill="cadetblue" stroke="black" cx="107.666" cy="-21.2132" rx="21.4286" ry="21.4286"/>
<text text-anchor="middle" x="107.666" y="-16.2132" font-family="Times New Roman,serif" font-size="20.00">2</text>
</g>
<!-- 2&#45;&gt;0 -->
<g id="edge1" class="edge"><title>2&#45;&gt;0</title>
<path fill="none" stroke="black" stroke-width="2" d="M110.29,-42.4051C110.302,-42.5037 110.315,-42.6024 110.327,-42.7012"/>
<polygon fill="black" stroke="black" stroke-width="2" points="106.772,-42.4789 111.475,-51.973 113.719,-41.6186 106.772,-42.4789"/>
</g>
<!-- 4 -->
<g id="node5" class="node"><title>4</title>
<ellipse fill="cadetblue" stroke="black" cx="197.261" cy="-71.8161" rx="21.4286" ry="21.4286"/>
<text text-anchor="middle" x="197.261" y="-66.8161" font-family="Times New Roman,serif" font-size="20.00">2</text>
</g>
<!-- 2&#45;&gt;4 -->
<g id="edge11" class="edge"><title>2&#45;&gt;4</title>
<path fill="none" stroke="black" stroke-width="2" d="M126.23,-31.6981C138.844,-38.8223 155.742,-48.3663 169.892,-56.358"/>
<polygon fill="black" stroke="black" stroke-width="2" points="168.292,-59.4742 178.721,-61.3445 171.735,-53.3792 168.292,-59.4742"/>
</g>
<!-- 2&#45;&gt;5 -->
<g id="edge12" class="edge"><title>2&#45;&gt;5</title>
<path fill="none" stroke="black" stroke-width="2" d="M93.0004,-37.2618C79.1307,-52.4396 58.1602,-75.3879 42.4603,-92.5684"/>
<polygon fill="black" stroke="black" stroke-width="2" points="39.8243,-90.2646 35.6621,-100.008 44.9917,-94.9867 39.8243,-90.2646"/>
</g>
<!-- 3&#45;&gt;6 -->
<g id="edge16" class="edge"><title>3&#45;&gt;6</title>
<path fill="none" stroke="black" stroke-width="2" d="M64.8579,-184.192C84.2534,-176.414 113.956,-164.504 136.097,-155.625"/>
<polygon fill="black" stroke="black" stroke-width="2" points="137.695,-158.755 145.674,-151.785 135.09,-152.258 137.695,-158.755"/>
</g>
<!-- 3&#45;&gt;7 -->
<g id="edge17" class="edge"><title>3&#45;&gt;7</title>
<path fill="none" stroke="black" stroke-width="2" d="M41.7568,-170.962C38.7271,-150.665 34.1219,-119.812 30.671,-96.6925"/>
<polygon fill="black" stroke="black" stroke-width="2" points="34.1145,-96.0538 29.1765,-86.6801 27.1912,-97.0872 34.1145,-96.0538"/>
</g>
<!-- 4&#45;&gt;0 -->
<g id="edge2" class="edge"><title>4&#45;&gt;0</title>
<path fill="none" stroke="black" stroke-width="2" d="M175.85,-72.2021C166.636,-72.3682 155.68,-72.5658 145.573,-72.748"/>
<polygon fill="black" stroke="black" stroke-width="2" points="145.392,-69.2506 135.457,-72.9304 145.518,-76.2495 145.392,-69.2506"/>
</g>
<!-- 4&#45;&gt;1 -->
<g id="edge7" class="edge"><title>4&#45;&gt;1</title>
<path fill="none" stroke="black" stroke-width="2" d="M181.279,-86.0063C166.391,-99.2256 143.995,-119.111 126.975,-134.223"/>
<polygon fill="black" stroke="black" stroke-width="2" points="124.263,-131.951 119.109,-141.207 128.91,-137.185 124.263,-131.951"/>
</g>
<!-- 5&#45;&gt;0 -->
<g id="edge3" class="edge"><title>5&#45;&gt;0</title>
<path fill="none" stroke="black" stroke-width="2" d="M40.9159,-106.805C53.8124,-100.905 70.8819,-93.0957 85.2934,-86.5024"/>
<polygon fill="black" stroke="black" stroke-width="2" points="87.1246,-89.5136 94.762,-82.1705 84.2124,-83.1481 87.1246,-89.5136"/>
</g>
<!-- 5&#45;&gt;3 -->
<g id="edge15" class="edge"><title>5&#45;&gt;3</title>
<path fill="none" stroke="black" stroke-width="2" d="M27.5674,-136.284C30.0127,-144.159 32.8591,-153.326 35.531,-161.931"/>
<polygon fill="black" stroke="black" stroke-width="2" points="32.2449,-163.152 38.5529,-171.664 38.9301,-161.076 32.2449,-163.152"/>
</g>
<!-- 6&#45;&gt;1 -->
<g id="edge9" class="edge"><title>6&#45;&gt;1</title>
<path fill="none" stroke="black" stroke-width="2" d="M144.447,-147.737C141.185,-148.346 137.758,-148.986 134.331,-149.626"/>
<polygon fill="black" stroke="black" stroke-width="2" points="133.404,-146.238 124.216,-151.514 134.689,-153.119 133.404,-146.238"/>
</g>
<!-- 6&#45;&gt;2 -->
<g id="edge13" class="edge"><title>6&#45;&gt;2</title>
<path fill="none" stroke="black" stroke-width="2" d="M156.451,-124.359C146.953,-104.277 132.022,-72.7081 121.178,-49.7813"/>
<polygon fill="black" stroke="black" stroke-width="2" points="124.248,-48.0867 116.809,-40.5434 117.92,-51.0797 124.248,-48.0867"/>
</g>
<!-- 6&#45;&gt;4 -->
<g id="edge18" class="edge"><title>6&#45;&gt;4</title>
<path fill="none" stroke="black" stroke-width="2" d="M174.278,-124.115C177.451,-116.896 181.112,-108.566 184.566,-100.705"/>
<polygon fill="black" stroke="black" stroke-width="2" points="187.811,-102.02 188.63,-91.4567 181.403,-99.2036 187.811,-102.02"/>
</g>
<!-- 7&#45;&gt;1 -->
<g id="edge10" class="edge"><title>7&#45;&gt;1</title>
<path fill="none" stroke="black" stroke-width="2" d="M40.1305,-81.9098C51.9692,-95.7504 69.0286,-115.695 82.398,-131.325"/>
<polygon fill="black" stroke="black" stroke-width="2" points="79.8459,-133.726 89.0058,-139.05 85.1654,-129.176 79.8459,-133.726"/>
</g>
<!-- 7&#45;&gt;2 -->
<g id="edge14" class="edge"><title>7&#45;&gt;2</title>
<path fill="none" stroke="black" stroke-width="2" d="M44.9398,-55.1423C55.3503,-49.5111 68.4563,-42.422 79.993,-36.1817"/>
<polygon fill="black" stroke="black" stroke-width="2" points="81.6967,-39.2394 88.8272,-31.4032 78.3663,-33.0824 81.6967,-39.2394"/>
</g>
<!-- 7&#45;&gt;5 -->
<g id="edge19" class="edge"><title>7&#45;&gt;5</title>
<path fill="none" stroke="black" stroke-width="2" d="M23.969,-86.7753C23.9537,-86.9364 23.9384,-87.0977 23.9231,-87.2592"/>
<polygon fill="black" stroke="black" stroke-width="2" points="20.6907,-84.2738 23.2304,-94.5597 27.6594,-84.9351 20.6907,-84.2738"/>
</g>
</g>
</svg>

