<?xml version="1.0" encoding="UTF-8" standalone="no"?>
<!DOCTYPE svg PUBLIC "-//W3C//DTD SVG 1.1//EN"
 "http://www.w3.org/Graphics/SVG/1.1/DTD/svg11.dtd">
<!-- Generated by graphviz version 2.36.0 (20140111.2315)
 -->
<!-- Title: G Pages: 1 -->
<svg width="100%" height="100%"
 viewBox="0.00 0.00 237.10 257.17" xmlns="http://www.w3.org/2000/svg" xmlns:xlink="http://www.w3.org/1999/xlink">
<g id="graph0" class="graph" transform="scale(1 1) rotate(0) translate(4 253.171)">
<title>G</title>
<!-- 0 -->
<g id="node1" class="node"><title>0</title>
<ellipse fill="cadetblue" stroke="black" cx="80.8727" cy="-21.2132" rx="21.4286" ry="21.4286"/>
<text text-anchor="middle" x="80.8727" y="-16.2132" font-family="Times New Roman,serif" font-size="20.00">2</text>
</g>
<!-- 5 -->
<g id="node6" class="node"><title>5</title>
<ellipse fill="cadetblue" stroke="black" cx="21.2132" cy="-88.7122" rx="21.4286" ry="21.4286"/>
<text text-anchor="middle" x="21.2132" y="-83.7122" font-family="Times New Roman,serif" font-size="20.00">2</text>
</g>
<!-- 0&#45;&gt;5 -->
<g id="edge3" class="edge"><title>0&#45;&gt;5</title>
<path fill="none" stroke="black" stroke-width="2" d="M66.7342,-37.2095C59.4853,-45.411 50.5081,-55.5679 42.4467,-64.6886"/>
<polygon fill="black" stroke="black" stroke-width="2" points="39.6647,-62.5511 35.6646,-72.3618 44.9097,-67.1869 39.6647,-62.5511"/>
</g>
<!-- 6 -->
<g id="node7" class="node"><title>6</title>
<ellipse fill="cadetblue" stroke="black" cx="74.5849" cy="-135.428" rx="21.4286" ry="21.4286"/>
<text text-anchor="middle" x="74.5849" y="-130.428" font-family="Times New Roman,serif" font-size="20.00">2</text>
</g>
<!-- 0&#45;&gt;6 -->
<g id="edge4" class="edge"><title>0&#45;&gt;6</title>
<path fill="none" stroke="black" stroke-width="2" d="M79.7048,-42.4284C78.7535,-59.7084 77.3962,-84.3618 76.3182,-103.944"/>
<polygon fill="black" stroke="black" stroke-width="2" points="72.823,-103.761 75.768,-113.938 79.8125,-104.146 72.823,-103.761"/>
</g>
<!-- 7 -->
<g id="node8" class="node"><title>7</title>
<ellipse fill="dodgerblue" stroke="black" cx="138.873" cy="-125.596" rx="21.4286" ry="21.4286"/>
<text text-anchor="middle" x="138.873" y="-120.596" font-family="Times New Roman,serif" font-size="20.00">4</text>
</g>
<!-- 0&#45;&gt;7 -->
<g id="edge5" class="edge"><title>0&#45;&gt;7</title>
<path fill="none" stroke="black" stroke-width="2" d="M91.2419,-39.8748C100.217,-56.0282 113.322,-79.6127 123.515,-97.9566"/>
<polygon fill="black" stroke="black" stroke-width="2" points="120.481,-99.703 128.398,-106.744 126.6,-96.3031 120.481,-99.703"/>
</g>
<!-- 1 -->
<g id="node2" class="node"><title>1</title>
<ellipse fill="cadetblue" stroke="black" cx="43.3176" cy="-203.767" rx="21.4286" ry="21.4286"/>
<text text-anchor="middle" x="43.3176" y="-198.767" font-family="Times New Roman,serif" font-size="20.00">2</text>
</g>
<!-- 1&#45;&gt;6 -->
<g id="edge8" class="edge"><title>1&#45;&gt;6</title>
<path fill="none" stroke="black" stroke-width="2" d="M52.1939,-184.367C55.0082,-178.216 58.1842,-171.274 61.2409,-164.593"/>
<polygon fill="black" stroke="black" stroke-width="2" points="64.6,-165.664 65.5778,-155.114 58.2346,-162.751 64.6,-165.664"/>
</g>
<!-- 1&#45;&gt;7 -->
<g id="edge9" class="edge"><title>1&#45;&gt;7</title>
<path fill="none" stroke="black" stroke-width="2" d="M59.962,-190.151C75.0341,-177.821 97.4278,-159.501 114.513,-145.524"/>
<polygon fill="black" stroke="black" stroke-width="2" points="116.895,-148.098 122.419,-139.057 112.463,-142.68 116.895,-148.098"/>
</g>
<!-- 2 -->
<g id="node3" class="node"><title>2</title>
<ellipse fill="brown" stroke="black" cx="131.304" cy="-44.5227" rx="21.4286" ry="21.4286"/>
<text text-anchor="middle" x="131.304" y="-39.5227" font-family="Times New Roman,serif" font-size="20.00">3</text>
</g>
<!-- 2&#45;&gt;0 -->
<g id="edge1" class="edge"><title>2&#45;&gt;0</title>
<path fill="none" stroke="black" stroke-width="2" d="M111.95,-35.5773C111.242,-35.2499 110.527,-34.9195 109.808,-34.5872"/>
<polygon fill="black" stroke="black" stroke-width="2" points="110.971,-31.2688 100.425,-30.2503 108.034,-37.6229 110.971,-31.2688"/>
</g>
<!-- 4 -->
<g id="node5" class="node"><title>4</title>
<ellipse fill="cadetblue" stroke="black" cx="207.888" cy="-37.9773" rx="21.4286" ry="21.4286"/>
<text text-anchor="middle" x="207.888" y="-32.9773" font-family="Times New Roman,serif" font-size="20.00">2</text>
</g>
<!-- 2&#45;&gt;4 -->
<g id="edge10" class="edge"><title>2&#45;&gt;4</title>
<path fill="none" stroke="black" stroke-width="2" d="M152.637,-42.6995C160.023,-42.0682 168.463,-41.3468 176.486,-40.6611"/>
<polygon fill="black" stroke="black" stroke-width="2" points="177.004,-44.1298 186.669,-39.7908 176.408,-37.1552 177.004,-44.1298"/>
</g>
<!-- 3 -->
<g id="node4" class="node"><title>3</title>
<ellipse fill="cadetblue" stroke="black" cx="139.164" cy="-227.958" rx="21.4286" ry="21.4286"/>
<text text-anchor="middle" x="139.164" y="-222.958" font-family="Times New Roman,serif" font-size="20.00">2</text>
</g>
<!-- 3&#45;&gt;1 -->
<g id="edge6" class="edge"><title>3&#45;&gt;1</title>
<path fill="none" stroke="black" stroke-width="2" d="M118.366,-222.709C105.43,-219.444 88.5609,-215.186 74.0936,-211.535"/>
<polygon fill="black" stroke="black" stroke-width="2" points="74.6266,-208.06 64.0741,-209.006 72.9136,-214.847 74.6266,-208.06"/>
</g>
<!-- 4&#45;&gt;0 -->
<g id="edge2" class="edge"><title>4&#45;&gt;0</title>
<path fill="none" stroke="black" stroke-width="2" d="M187.73,-30.9339C172.472,-26.0561 150.877,-20.1128 131.343,-18.2184 125.186,-17.6213 118.595,-17.5799 112.275,-17.8334"/>
<polygon fill="black" stroke="black" stroke-width="2" points="111.773,-14.3583 102.018,-18.4926 112.222,-21.3439 111.773,-14.3583"/>
</g>
<!-- 5&#45;&gt;1 -->
<g id="edge7" class="edge"><title>5&#45;&gt;1</title>
<path fill="none" stroke="black" stroke-width="2" d="M25.2161,-109.548C28.6064,-127.194 33.5154,-152.746 37.3661,-172.789"/>
<polygon fill="black" stroke="black" stroke-width="2" points="33.9458,-173.538 39.2697,-182.698 40.8201,-172.217 33.9458,-173.538"/>
</g>
<!-- 5&#45;&gt;2 -->
<g id="edge11" class="edge"><title>5&#45;&gt;2</title>
<path fill="none" stroke="black" stroke-width="2" d="M41.1498,-80.7098C58.1404,-73.89 82.79,-63.9958 102.022,-56.2763"/>
<polygon fill="black" stroke="black" stroke-width="2" points="103.539,-59.4388 111.516,-52.4656 100.932,-52.9425 103.539,-59.4388"/>
</g>
<!-- 5&#45;&gt;7 -->
<g id="edge18" class="edge"><title>5&#45;&gt;7</title>
<path fill="none" stroke="black" stroke-width="2" d="M41.7079,-95.1369C60.2666,-100.955 87.8405,-109.599 108.878,-116.194"/>
<polygon fill="black" stroke="black" stroke-width="2" points="108.024,-119.594 118.613,-119.245 110.118,-112.914 108.024,-119.594"/>
</g>
<!-- 6&#45;&gt;2 -->
<g id="edge12" class="edge"><title>6&#45;&gt;2</title>
<path fill="none" stroke="black" stroke-width="2" d="M86.0629,-117.032C94.2657,-103.885 105.431,-85.9899 114.617,-71.2673"/>
<polygon fill="black" stroke="black" stroke-width="2" points="117.713,-72.9179 120.037,-62.5811 111.774,-69.2124 117.713,-72.9179"/>
</g>
<!-- 6&#45;&gt;3 -->
<g id="edge14" class="edge"><title>6&#45;&gt;3</title>
<path fill="none" stroke="black" stroke-width="2" d="M86.7317,-152.832C96.4116,-166.702 110.113,-186.333 121.082,-202.05"/>
<polygon fill="black" stroke="black" stroke-width="2" points="118.258,-204.12 126.852,-210.317 123.999,-200.114 118.258,-204.12"/>
</g>
<!-- 6&#45;&gt;5 -->
<g id="edge17" class="edge"><title>6&#45;&gt;5</title>
<path fill="none" stroke="black" stroke-width="2" d="M58.5717,-121.411C54.2442,-117.624 49.4684,-113.443 44.819,-109.374"/>
<polygon fill="black" stroke="black" stroke-width="2" points="47.0451,-106.671 37.2152,-102.718 42.4347,-111.938 47.0451,-106.671"/>
</g>
<!-- 6&#45;&gt;7 -->
<g id="edge19" class="edge"><title>6&#45;&gt;7</title>
<path fill="none" stroke="black" stroke-width="2" d="M95.6351,-132.208C99.4801,-131.62 103.566,-130.996 107.634,-130.374"/>
<polygon fill="black" stroke="black" stroke-width="2" points="108.199,-133.828 117.555,-128.856 107.141,-126.908 108.199,-133.828"/>
</g>
<!-- 7&#45;&gt;2 -->
<g id="edge13" class="edge"><title>7&#45;&gt;2</title>
<path fill="none" stroke="black" stroke-width="2" d="M136.884,-104.295C136.067,-95.544 135.105,-85.2357 134.211,-75.6665"/>
<polygon fill="black" stroke="black" stroke-width="2" points="137.694,-75.3129 133.279,-65.6816 130.724,-75.9636 137.694,-75.3129"/>
</g>
<!-- 7&#45;&gt;3 -->
<g id="edge15" class="edge"><title>7&#45;&gt;3</title>
<path fill="none" stroke="black" stroke-width="2" d="M138.934,-147.305C138.975,-161.514 139.028,-180.321 139.073,-196.199"/>
<polygon fill="black" stroke="black" stroke-width="2" points="135.574,-196.642 139.103,-206.632 142.574,-196.622 135.574,-196.642"/>
</g>
<!-- 7&#45;&gt;4 -->
<g id="edge16" class="edge"><title>7&#45;&gt;4</title>
<path fill="none" stroke="black" stroke-width="2" d="M152.179,-108.702C162.395,-95.7326 176.659,-77.6242 188.196,-62.9778"/>
<polygon fill="black" stroke="black" stroke-width="2" points="191.183,-64.8407 194.622,-54.8193 185.684,-60.5093 191.183,-64.8407"/>
</g>
</g>
</svg>

