<?xml version="1.0" encoding="UTF-8" standalone="no"?>
<!DOCTYPE svg PUBLIC "-//W3C//DTD SVG 1.1//EN"
 "http://www.w3.org/Graphics/SVG/1.1/DTD/svg11.dtd">
<!-- Generated by graphviz version 2.36.0 (20140111.2315)
 -->
<!-- Title: G Pages: 1 -->
<svg width="100%" height="100%"
 viewBox="0.00 0.00 281.02 316.14" xmlns="http://www.w3.org/2000/svg" xmlns:xlink="http://www.w3.org/1999/xlink">
<g id="graph0" class="graph" transform="scale(1 1) rotate(0) translate(4 312.143)">
<title>G</title>
<!-- 0 -->
<g id="node1" class="node"><title>0</title>
<ellipse fill="cadetblue" stroke="black" cx="42.1058" cy="-73.9175" rx="21.4286" ry="21.4286"/>
<text text-anchor="middle" x="42.1058" y="-68.9175" font-family="Times New Roman,serif" font-size="20.00">2</text>
</g>
<!-- 5 -->
<g id="node6" class="node"><title>5</title>
<ellipse fill="brown" stroke="black" cx="21.2132" cy="-215.394" rx="21.4286" ry="21.4286"/>
<text text-anchor="middle" x="21.2132" y="-210.394" font-family="Times New Roman,serif" font-size="20.00">3</text>
</g>
<!-- 0&#45;&gt;5 -->
<g id="edge3" class="edge"><title>0&#45;&gt;5</title>
<path fill="none" stroke="black" stroke-width="2" d="M38.978,-95.0979C35.5009,-118.644 29.8498,-156.911 25.8562,-183.953"/>
<polygon fill="black" stroke="black" stroke-width="2" points="22.361,-183.665 24.3624,-194.069 29.2859,-184.687 22.361,-183.665"/>
</g>
<!-- 6 -->
<g id="node7" class="node"><title>6</title>
<ellipse fill="cadetblue" stroke="black" cx="230.341" cy="-95.0308" rx="21.4286" ry="21.4286"/>
<text text-anchor="middle" x="230.341" y="-90.0308" font-family="Times New Roman,serif" font-size="20.00">2</text>
</g>
<!-- 0&#45;&gt;6 -->
<g id="edge4" class="edge"><title>0&#45;&gt;6</title>
<path fill="none" stroke="black" stroke-width="2" d="M63.3329,-76.2984C96.4659,-80.0147 160.652,-87.2142 199.082,-91.5247"/>
<polygon fill="black" stroke="black" stroke-width="2" points="198.863,-95.022 209.191,-92.6585 199.644,-88.0656 198.863,-95.022"/>
</g>
<!-- 7 -->
<g id="node8" class="node"><title>7</title>
<ellipse fill="brown" stroke="black" cx="179.433" cy="-167.562" rx="21.4286" ry="21.4286"/>
<text text-anchor="middle" x="179.433" y="-162.562" font-family="Times New Roman,serif" font-size="20.00">3</text>
</g>
<!-- 0&#45;&gt;7 -->
<g id="edge5" class="edge"><title>0&#45;&gt;7</title>
<path fill="none" stroke="black" stroke-width="2" d="M59.7779,-85.9682C83.5715,-102.193 126.08,-131.18 153.5,-149.878"/>
<polygon fill="black" stroke="black" stroke-width="2" points="151.595,-152.816 161.829,-155.558 155.539,-147.032 151.595,-152.816"/>
</g>
<!-- 1 -->
<g id="node2" class="node"><title>1</title>
<ellipse fill="cadetblue" stroke="black" cx="165.511" cy="-286.93" rx="21.4286" ry="21.4286"/>
<text text-anchor="middle" x="165.511" y="-281.93" font-family="Times New Roman,serif" font-size="20.00">2</text>
</g>
<!-- 1&#45;&gt;6 -->
<g id="edge8" class="edge"><title>1&#45;&gt;6</title>
<path fill="none" stroke="black" stroke-width="2" d="M172.326,-266.756C183.78,-232.851 206.943,-164.29 220.275,-124.825"/>
<polygon fill="black" stroke="black" stroke-width="2" points="223.635,-125.816 223.519,-115.222 217.003,-123.576 223.635,-125.816"/>
</g>
<!-- 1&#45;&gt;7 -->
<g id="edge9" class="edge"><title>1&#45;&gt;7</title>
<path fill="none" stroke="black" stroke-width="2" d="M168,-265.589C170.168,-247.002 173.339,-219.812 175.792,-198.78"/>
<polygon fill="black" stroke="black" stroke-width="2" points="179.284,-199.056 176.966,-188.718 172.331,-198.245 179.284,-199.056"/>
</g>
<!-- 2 -->
<g id="node3" class="node"><title>2</title>
<ellipse fill="cadetblue" stroke="black" cx="107.031" cy="-21.2132" rx="21.4286" ry="21.4286"/>
<text text-anchor="middle" x="107.031" y="-16.2132" font-family="Times New Roman,serif" font-size="20.00">2</text>
</g>
<!-- 2&#45;&gt;0 -->
<g id="edge1" class="edge"><title>2&#45;&gt;0</title>
<path fill="none" stroke="black" stroke-width="2" d="M90.3112,-34.7859C83.2477,-40.5198 74.8721,-47.3189 67.1003,-53.6278"/>
<polygon fill="black" stroke="black" stroke-width="2" points="64.5528,-51.1877 58.9947,-60.2076 68.9645,-56.6225 64.5528,-51.1877"/>
</g>
<!-- 2&#45;&gt;5 -->
<g id="edge11" class="edge"><title>2&#45;&gt;5</title>
<path fill="none" stroke="black" stroke-width="2" d="M97.6922,-40.5151C84.5716,-67.8868 60.202,-119.665 41.5714,-164.702 38.7459,-171.532 35.754,-178.902 32.9587,-185.85"/>
<polygon fill="black" stroke="black" stroke-width="2" points="29.5165,-185.031 29.0465,-195.615 36.0144,-187.634 29.5165,-185.031"/>
</g>
<!-- 3 -->
<g id="node4" class="node"><title>3</title>
<ellipse fill="cadetblue" stroke="black" cx="251.811" cy="-245.118" rx="21.4286" ry="21.4286"/>
<text text-anchor="middle" x="251.811" y="-240.118" font-family="Times New Roman,serif" font-size="20.00">2</text>
</g>
<!-- 3&#45;&gt;1 -->
<g id="edge6" class="edge"><title>3&#45;&gt;1</title>
<path fill="none" stroke="black" stroke-width="2" d="M232.658,-254.397C221.262,-259.919 206.591,-267.027 193.871,-273.19"/>
<polygon fill="black" stroke="black" stroke-width="2" points="192.084,-270.166 184.61,-277.676 195.136,-276.466 192.084,-270.166"/>
</g>
<!-- 3&#45;&gt;5 -->
<g id="edge13" class="edge"><title>3&#45;&gt;5</title>
<path fill="none" stroke="black" stroke-width="2" d="M230.53,-242.375C189.689,-237.11 100.151,-225.569 52.4968,-219.426"/>
<polygon fill="black" stroke="black" stroke-width="2" points="52.8079,-215.937 42.4425,-218.13 51.913,-222.88 52.8079,-215.937"/>
</g>
<!-- 4 -->
<g id="node5" class="node"><title>4</title>
<ellipse fill="cadetblue" stroke="black" cx="67.8745" cy="-164.962" rx="21.4286" ry="21.4286"/>
<text text-anchor="middle" x="67.8745" y="-159.962" font-family="Times New Roman,serif" font-size="20.00">2</text>
</g>
<!-- 4&#45;&gt;0 -->
<g id="edge2" class="edge"><title>4&#45;&gt;0</title>
<path fill="none" stroke="black" stroke-width="2" d="M62.0272,-144.303C58.6995,-132.546 54.4685,-117.597 50.7624,-104.503"/>
<polygon fill="black" stroke="black" stroke-width="2" points="54.0211,-103.164 47.93,-94.4952 47.2857,-105.07 54.0211,-103.164"/>
</g>
<!-- 4&#45;&gt;1 -->
<g id="edge7" class="edge"><title>4&#45;&gt;1</title>
<path fill="none" stroke="black" stroke-width="2" d="M81.2457,-181.666C97.8775,-202.442 126.419,-238.096 145.62,-262.082"/>
<polygon fill="black" stroke="black" stroke-width="2" points="143.006,-264.417 151.988,-270.037 148.471,-260.043 143.006,-264.417"/>
</g>
<!-- 4&#45;&gt;2 -->
<g id="edge10" class="edge"><title>4&#45;&gt;2</title>
<path fill="none" stroke="black" stroke-width="2" d="M73.4847,-144.367C80.0851,-120.136 91.1051,-79.6797 98.7032,-51.7861"/>
<polygon fill="black" stroke="black" stroke-width="2" points="102.18,-52.3391 101.431,-41.7708 95.4261,-50.4993 102.18,-52.3391"/>
</g>
<!-- 5&#45;&gt;4 -->
<g id="edge16" class="edge"><title>5&#45;&gt;4</title>
<path fill="none" stroke="black" stroke-width="2" d="M35.7213,-199.713C39.1123,-196.049 42.7948,-192.068 46.4168,-188.154"/>
<polygon fill="black" stroke="black" stroke-width="2" points="48.9922,-190.524 53.2146,-180.807 43.8541,-185.77 48.9922,-190.524"/>
</g>
<!-- 6&#45;&gt;2 -->
<g id="edge12" class="edge"><title>6&#45;&gt;2</title>
<path fill="none" stroke="black" stroke-width="2" d="M211.88,-83.9795C191.358,-71.6942 158.005,-51.7278 134.434,-37.6178"/>
<polygon fill="black" stroke="black" stroke-width="2" points="135.996,-34.4733 125.618,-32.34 132.4,-40.4794 135.996,-34.4733"/>
</g>
<!-- 6&#45;&gt;3 -->
<g id="edge14" class="edge"><title>6&#45;&gt;3</title>
<path fill="none" stroke="black" stroke-width="2" d="M233.371,-116.216C237.016,-141.692 243.164,-184.671 247.35,-213.936"/>
<polygon fill="black" stroke="black" stroke-width="2" points="243.915,-214.636 248.796,-224.04 250.844,-213.645 243.915,-214.636"/>
</g>
<!-- 6&#45;&gt;7 -->
<g id="edge18" class="edge"><title>6&#45;&gt;7</title>
<path fill="none" stroke="black" stroke-width="2" d="M218.017,-112.589C211.889,-121.32 204.363,-132.043 197.59,-141.693"/>
<polygon fill="black" stroke="black" stroke-width="2" points="194.523,-139.97 191.643,-150.166 200.253,-143.992 194.523,-139.97"/>
</g>
<!-- 7&#45;&gt;3 -->
<g id="edge15" class="edge"><title>7&#45;&gt;3</title>
<path fill="none" stroke="black" stroke-width="2" d="M194.08,-183.257C204.479,-194.4 218.609,-209.541 230.287,-222.054"/>
<polygon fill="black" stroke="black" stroke-width="2" points="227.804,-224.524 237.186,-229.446 232.922,-219.748 227.804,-224.524"/>
</g>
<!-- 7&#45;&gt;4 -->
<g id="edge17" class="edge"><title>7&#45;&gt;4</title>
<path fill="none" stroke="black" stroke-width="2" d="M158.187,-167.067C141.622,-166.681 118.358,-166.139 99.5901,-165.702"/>
<polygon fill="black" stroke="black" stroke-width="2" points="99.5002,-162.199 89.4213,-165.465 99.337,-169.197 99.5002,-162.199"/>
</g>
</g>
</svg>

