<?xml version="1.0" encoding="UTF-8" standalone="no"?>
<!DOCTYPE svg PUBLIC "-//W3C//DTD SVG 1.1//EN"
 "http://www.w3.org/Graphics/SVG/1.1/DTD/svg11.dtd">
<!-- Generated by graphviz version 2.36.0 (20140111.2315)
 -->
<!-- Title: G Pages: 1 -->
<svg width="100%" height="100%"
 viewBox="0.00 0.00 194.15 223.57" xmlns="http://www.w3.org/2000/svg" xmlns:xlink="http://www.w3.org/1999/xlink">
<g id="graph0" class="graph" transform="scale(1 1) rotate(0) translate(4 219.573)">
<title>G</title>
<!-- 0 -->
<g id="node1" class="node"><title>0</title>
<ellipse fill="cadetblue" stroke="black" cx="109.07" cy="-47.2053" rx="21.4286" ry="21.4286"/>
<text text-anchor="middle" x="109.07" y="-42.2053" font-family="Times New Roman,serif" font-size="20.00">2</text>
</g>
<!-- 5 -->
<g id="node6" class="node"><title>5</title>
<ellipse fill="cadetblue" stroke="black" cx="21.2132" cy="-100.742" rx="21.4286" ry="21.4286"/>
<text text-anchor="middle" x="21.2132" y="-95.7415" font-family="Times New Roman,serif" font-size="20.00">2</text>
</g>
<!-- 0&#45;&gt;5 -->
<g id="edge3" class="edge"><title>0&#45;&gt;5</title>
<path fill="none" stroke="black" stroke-width="2" d="M90.8661,-58.298C78.4971,-65.8352 61.9268,-75.9324 48.0515,-84.3874"/>
<polygon fill="black" stroke="black" stroke-width="2" points="46.1121,-81.4705 39.3939,-89.663 49.7546,-87.4482 46.1121,-81.4705"/>
</g>
<!-- 6 -->
<g id="node7" class="node"><title>6</title>
<ellipse fill="cadetblue" stroke="black" cx="146.245" cy="-143.141" rx="21.4286" ry="21.4286"/>
<text text-anchor="middle" x="146.245" y="-138.141" font-family="Times New Roman,serif" font-size="20.00">2</text>
</g>
<!-- 0&#45;&gt;6 -->
<g id="edge4" class="edge"><title>0&#45;&gt;6</title>
<path fill="none" stroke="black" stroke-width="2" d="M116.773,-67.0831C122.007,-80.5895 129.018,-98.6834 134.889,-113.835"/>
<polygon fill="black" stroke="black" stroke-width="2" points="131.676,-115.228 138.552,-123.288 138.203,-112.699 131.676,-115.228"/>
</g>
<!-- 1 -->
<g id="node2" class="node"><title>1</title>
<ellipse fill="cadetblue" stroke="black" cx="35.3407" cy="-176.099" rx="21.4286" ry="21.4286"/>
<text text-anchor="middle" x="35.3407" y="-171.099" font-family="Times New Roman,serif" font-size="20.00">2</text>
</g>
<!-- 1&#45;&gt;6 -->
<g id="edge7" class="edge"><title>1&#45;&gt;6</title>
<path fill="none" stroke="black" stroke-width="2" d="M55.6823,-170.054C72.5385,-165.044 96.7478,-157.85 115.896,-152.16"/>
<polygon fill="black" stroke="black" stroke-width="2" points="117.068,-155.463 125.657,-149.259 115.074,-148.753 117.068,-155.463"/>
</g>
<!-- 7 -->
<g id="node8" class="node"><title>7</title>
<ellipse fill="cadetblue" stroke="black" cx="87.292" cy="-111.476" rx="21.4286" ry="21.4286"/>
<text text-anchor="middle" x="87.292" y="-106.476" font-family="Times New Roman,serif" font-size="20.00">2</text>
</g>
<!-- 1&#45;&gt;7 -->
<g id="edge8" class="edge"><title>1&#45;&gt;7</title>
<path fill="none" stroke="black" stroke-width="2" d="M48.7194,-159.457C54.3715,-152.426 61.0734,-144.089 67.2922,-136.354"/>
<polygon fill="black" stroke="black" stroke-width="2" points="70.2402,-138.273 73.778,-128.286 64.7846,-133.887 70.2402,-138.273"/>
</g>
<!-- 2 -->
<g id="node3" class="node"><title>2</title>
<ellipse fill="cadetblue" stroke="black" cx="58.6386" cy="-21.2132" rx="21.4286" ry="21.4286"/>
<text text-anchor="middle" x="58.6386" y="-16.2132" font-family="Times New Roman,serif" font-size="20.00">2</text>
</g>
<!-- 2&#45;&gt;0 -->
<g id="edge1" class="edge"><title>2&#45;&gt;0</title>
<path fill="none" stroke="black" stroke-width="2" d="M77.7046,-31.0397C78.7087,-31.5572 79.7267,-32.0819 80.7517,-32.6102"/>
<polygon fill="black" stroke="black" stroke-width="2" points="79.4848,-35.8947 89.9771,-37.3649 82.6917,-29.6725 79.4848,-35.8947"/>
</g>
<!-- 4 -->
<g id="node5" class="node"><title>4</title>
<ellipse fill="brown" stroke="black" cx="164.934" cy="-57.2687" rx="21.4286" ry="21.4286"/>
<text text-anchor="middle" x="164.934" y="-52.2687" font-family="Times New Roman,serif" font-size="20.00">3</text>
</g>
<!-- 2&#45;&gt;4 -->
<g id="edge9" class="edge"><title>2&#45;&gt;4</title>
<path fill="none" stroke="black" stroke-width="2" d="M79.9263,-19.2144C88.9932,-18.8428 99.6385,-19.046 109.094,-20.9009 120.741,-23.1858 132.022,-29.4802 141.358,-36.2035"/>
<polygon fill="black" stroke="black" stroke-width="2" points="139.294,-39.032 149.341,-42.3958 143.585,-33.501 139.294,-39.032"/>
</g>
<!-- 3 -->
<g id="node4" class="node"><title>3</title>
<ellipse fill="brown" stroke="black" cx="89.2223" cy="-194.36" rx="21.4286" ry="21.4286"/>
<text text-anchor="middle" x="89.2223" y="-189.36" font-family="Times New Roman,serif" font-size="20.00">3</text>
</g>
<!-- 3&#45;&gt;1 -->
<g id="edge5" class="edge"><title>3&#45;&gt;1</title>
<path fill="none" stroke="black" stroke-width="2" d="M68.852,-187.456C67.7791,-187.092 66.6915,-186.724 65.5964,-186.353"/>
<polygon fill="black" stroke="black" stroke-width="2" points="66.3341,-182.907 55.7398,-183.012 64.0872,-189.537 66.3341,-182.907"/>
</g>
<!-- 4&#45;&gt;0 -->
<g id="edge2" class="edge"><title>4&#45;&gt;0</title>
<path fill="none" stroke="black" stroke-width="2" d="M143.814,-53.4642C142.702,-53.2638 141.574,-53.0606 140.439,-52.8561"/>
<polygon fill="black" stroke="black" stroke-width="2" points="140.682,-49.3436 130.22,-51.0152 139.441,-56.2327 140.682,-49.3436"/>
</g>
<!-- 5&#45;&gt;1 -->
<g id="edge6" class="edge"><title>5&#45;&gt;1</title>
<path fill="none" stroke="black" stroke-width="2" d="M25.1485,-121.733C26.5109,-129 28.068,-137.305 29.548,-145.2"/>
<polygon fill="black" stroke="black" stroke-width="2" points="26.1437,-146.036 31.4265,-155.22 33.0238,-144.746 26.1437,-146.036"/>
</g>
<!-- 5&#45;&gt;2 -->
<g id="edge10" class="edge"><title>5&#45;&gt;2</title>
<path fill="none" stroke="black" stroke-width="2" d="M30.2728,-81.4899C34.7448,-71.9871 40.2297,-60.3319 45.1805,-49.8115"/>
<polygon fill="black" stroke="black" stroke-width="2" points="48.4415,-51.1017 49.5327,-40.5632 42.1078,-48.121 48.4415,-51.1017"/>
</g>
<!-- 5&#45;&gt;3 -->
<g id="edge12" class="edge"><title>5&#45;&gt;3</title>
<path fill="none" stroke="black" stroke-width="2" d="M33.6871,-117.913C43.9761,-132.076 58.7326,-152.389 70.4487,-168.517"/>
<polygon fill="black" stroke="black" stroke-width="2" points="67.888,-170.947 76.5971,-176.98 73.5514,-166.833 67.888,-170.947"/>
</g>
<!-- 6&#45;&gt;3 -->
<g id="edge13" class="edge"><title>6&#45;&gt;3</title>
<path fill="none" stroke="black" stroke-width="2" d="M130.361,-157.408C124.924,-162.292 118.718,-167.866 112.805,-173.177"/>
<polygon fill="black" stroke="black" stroke-width="2" points="110.122,-170.883 105.021,-180.169 114.8,-176.09 110.122,-170.883"/>
</g>
<!-- 6&#45;&gt;4 -->
<g id="edge15" class="edge"><title>6&#45;&gt;4</title>
<path fill="none" stroke="black" stroke-width="2" d="M150.769,-122.353C153.002,-112.093 155.741,-99.5077 158.214,-88.1481"/>
<polygon fill="black" stroke="black" stroke-width="2" points="161.68,-88.6777 160.387,-78.1621 154.84,-87.1891 161.68,-88.6777"/>
</g>
<!-- 6&#45;&gt;7 -->
<g id="edge18" class="edge"><title>6&#45;&gt;7</title>
<path fill="none" stroke="black" stroke-width="2" d="M127.268,-132.947C123.376,-130.857 119.203,-128.616 115.074,-126.398"/>
<polygon fill="black" stroke="black" stroke-width="2" points="116.7,-123.299 106.234,-121.65 113.388,-129.465 116.7,-123.299"/>
</g>
<!-- 7&#45;&gt;2 -->
<g id="edge11" class="edge"><title>7&#45;&gt;2</title>
<path fill="none" stroke="black" stroke-width="2" d="M80.7901,-90.994C77.0533,-79.2226 72.292,-64.2238 68.142,-51.1506"/>
<polygon fill="black" stroke="black" stroke-width="2" points="71.4764,-50.0865 65.1148,-41.6142 64.8045,-52.2045 71.4764,-50.0865"/>
</g>
<!-- 7&#45;&gt;3 -->
<g id="edge14" class="edge"><title>7&#45;&gt;3</title>
<path fill="none" stroke="black" stroke-width="2" d="M87.7891,-132.821C88.003,-142.005 88.2574,-152.927 88.492,-163.003"/>
<polygon fill="black" stroke="black" stroke-width="2" points="84.9949,-163.172 88.7269,-173.087 91.993,-163.009 84.9949,-163.172"/>
</g>
<!-- 7&#45;&gt;4 -->
<g id="edge16" class="edge"><title>7&#45;&gt;4</title>
<path fill="none" stroke="black" stroke-width="2" d="M104.91,-99.1756C115.036,-92.1062 127.937,-83.0987 139.183,-75.2476"/>
<polygon fill="black" stroke="black" stroke-width="2" points="141.19,-78.1149 147.386,-69.5205 137.183,-72.3753 141.19,-78.1149"/>
</g>
<!-- 7&#45;&gt;5 -->
<g id="edge17" class="edge"><title>7&#45;&gt;5</title>
<path fill="none" stroke="black" stroke-width="2" d="M66.0205,-108.021C61.6582,-107.312 56.981,-106.552 52.3536,-105.8"/>
<polygon fill="black" stroke="black" stroke-width="2" points="52.8767,-102.339 42.4448,-104.191 51.7542,-109.249 52.8767,-102.339"/>
</g>
</g>
</svg>

