<?xml version="1.0" encoding="UTF-8" standalone="no"?>
<!DOCTYPE svg PUBLIC "-//W3C//DTD SVG 1.1//EN"
 "http://www.w3.org/Graphics/SVG/1.1/DTD/svg11.dtd">
<!-- Generated by graphviz version 2.36.0 (20140111.2315)
 -->
<!-- Title: G Pages: 1 -->
<svg width="100%" height="100%"
 viewBox="0.00 0.00 228.08 263.63" xmlns="http://www.w3.org/2000/svg" xmlns:xlink="http://www.w3.org/1999/xlink">
<g id="graph0" class="graph" transform="scale(1 1) rotate(0) translate(4 259.628)">
<title>G</title>
<!-- 0 -->
<g id="node1" class="node"><title>0</title>
<ellipse fill="cadetblue" stroke="black" cx="86.0181" cy="-51.1737" rx="21.4286" ry="21.4286"/>
<text text-anchor="middle" x="86.0181" y="-46.1737" font-family="Times New Roman,serif" font-size="20.00">2</text>
</g>
<!-- 5 -->
<g id="node6" class="node"><title>5</title>
<ellipse fill="brown" stroke="black" cx="77.6566" cy="-168.392" rx="21.4286" ry="21.4286"/>
<text text-anchor="middle" x="77.6566" y="-163.392" font-family="Times New Roman,serif" font-size="20.00">3</text>
</g>
<!-- 0&#45;&gt;5 -->
<g id="edge3" class="edge"><title>0&#45;&gt;5</title>
<path fill="none" stroke="black" stroke-width="2" d="M79.4783,-71.3618C76.1601,-83.0036 72.647,-98.0013 71.7715,-111.679 71.2379,-120.014 71.6954,-129.015 72.5485,-137.339"/>
<polygon fill="black" stroke="black" stroke-width="2" points="69.0941,-137.923 73.796,-147.417 76.0411,-137.063 69.0941,-137.923"/>
</g>
<!-- 6 -->
<g id="node7" class="node"><title>6</title>
<ellipse fill="cadetblue" stroke="black" cx="148.507" cy="-132.277" rx="21.4286" ry="21.4286"/>
<text text-anchor="middle" x="148.507" y="-127.277" font-family="Times New Roman,serif" font-size="20.00">2</text>
</g>
<!-- 0&#45;&gt;6 -->
<g id="edge4" class="edge"><title>0&#45;&gt;6</title>
<path fill="none" stroke="black" stroke-width="2" d="M98.9659,-67.9783C107.705,-79.3203 119.392,-94.489 129.221,-107.245"/>
<polygon fill="black" stroke="black" stroke-width="2" points="126.485,-109.429 135.361,-115.214 132.03,-105.157 126.485,-109.429"/>
</g>
<!-- 7 -->
<g id="node8" class="node"><title>7</title>
<ellipse fill="brown" stroke="black" cx="98.0758" cy="-111.68" rx="21.4286" ry="21.4286"/>
<text text-anchor="middle" x="98.0758" y="-106.68" font-family="Times New Roman,serif" font-size="20.00">3</text>
</g>
<!-- 0&#45;&gt;7 -->
<g id="edge5" class="edge"><title>0&#45;&gt;7</title>
<path fill="none" stroke="black" stroke-width="2" d="M90.1677,-71.9965C90.7297,-74.8167 91.3159,-77.7583 91.904,-80.7091"/>
<polygon fill="black" stroke="black" stroke-width="2" points="88.4907,-81.4902 93.8777,-90.6133 95.3557,-80.122 88.4907,-81.4902"/>
</g>
<!-- 1 -->
<g id="node2" class="node"><title>1</title>
<ellipse fill="cadetblue" stroke="black" cx="21.2132" cy="-166.691" rx="21.4286" ry="21.4286"/>
<text text-anchor="middle" x="21.2132" y="-161.691" font-family="Times New Roman,serif" font-size="20.00">2</text>
</g>
<!-- 1&#45;&gt;6 -->
<g id="edge8" class="edge"><title>1&#45;&gt;6</title>
<path fill="none" stroke="black" stroke-width="2" d="M40.844,-157.755C46.7115,-155.123 53.171,-152.265 59.1397,-149.709 67.365,-146.187 69.1338,-144.415 77.7738,-142.088 85.1175,-140.111 101.668,-137.775 116.914,-135.879"/>
<polygon fill="black" stroke="black" stroke-width="2" points="117.623,-139.319 127.132,-134.646 116.785,-132.369 117.623,-139.319"/>
</g>
<!-- 1&#45;&gt;7 -->
<g id="edge9" class="edge"><title>1&#45;&gt;7</title>
<path fill="none" stroke="black" stroke-width="2" d="M38.6545,-154.208C48.5802,-147.104 61.2004,-138.072 72.255,-130.16"/>
<polygon fill="black" stroke="black" stroke-width="2" points="74.6087,-132.78 80.7035,-124.113 70.5346,-127.087 74.6087,-132.78"/>
</g>
<!-- 2 -->
<g id="node3" class="node"><title>2</title>
<ellipse fill="cadetblue" stroke="black" cx="146.649" cy="-21.2132" rx="21.4286" ry="21.4286"/>
<text text-anchor="middle" x="146.649" y="-16.2132" font-family="Times New Roman,serif" font-size="20.00">2</text>
</g>
<!-- 2&#45;&gt;0 -->
<g id="edge1" class="edge"><title>2&#45;&gt;0</title>
<path fill="none" stroke="black" stroke-width="2" d="M127.465,-30.6929C123.263,-32.7694 118.729,-35.0097 114.256,-37.22"/>
<polygon fill="black" stroke="black" stroke-width="2" points="112.7,-34.0849 105.285,-41.6528 115.801,-40.3605 112.7,-34.0849"/>
</g>
<!-- 4 -->
<g id="node5" class="node"><title>4</title>
<ellipse fill="cadetblue" stroke="black" cx="198.871" cy="-65.5309" rx="21.4286" ry="21.4286"/>
<text text-anchor="middle" x="198.871" y="-60.5309" font-family="Times New Roman,serif" font-size="20.00">2</text>
</g>
<!-- 2&#45;&gt;4 -->
<g id="edge10" class="edge"><title>2&#45;&gt;4</title>
<path fill="none" stroke="black" stroke-width="2" d="M162.886,-34.9927C166.584,-38.1307 170.592,-41.5317 174.544,-44.8862"/>
<polygon fill="black" stroke="black" stroke-width="2" points="172.575,-47.8054 182.464,-51.6073 177.104,-42.4682 172.575,-47.8054"/>
</g>
<!-- 3 -->
<g id="node4" class="node"><title>3</title>
<ellipse fill="cadetblue" stroke="black" cx="91.7054" cy="-234.415" rx="21.4286" ry="21.4286"/>
<text text-anchor="middle" x="91.7054" y="-229.415" font-family="Times New Roman,serif" font-size="20.00">2</text>
</g>
<!-- 3&#45;&gt;1 -->
<g id="edge6" class="edge"><title>3&#45;&gt;1</title>
<path fill="none" stroke="black" stroke-width="2" d="M76.0609,-219.385C66.6607,-210.354 54.5331,-198.703 44.073,-188.653"/>
<polygon fill="black" stroke="black" stroke-width="2" points="46.4501,-186.083 36.814,-181.679 41.6004,-191.131 46.4501,-186.083"/>
</g>
<!-- 4&#45;&gt;0 -->
<g id="edge2" class="edge"><title>4&#45;&gt;0</title>
<path fill="none" stroke="black" stroke-width="2" d="M177.644,-62.8304C160.621,-60.6647 136.48,-57.5934 117.251,-55.1471"/>
<polygon fill="black" stroke="black" stroke-width="2" points="117.512,-51.6522 107.15,-53.8621 116.628,-58.5962 117.512,-51.6522"/>
</g>
<!-- 5&#45;&gt;1 -->
<g id="edge7" class="edge"><title>5&#45;&gt;1</title>
<path fill="none" stroke="black" stroke-width="2" d="M56.3178,-167.749C55.1939,-167.715 54.0545,-167.681 52.9074,-167.646"/>
<polygon fill="black" stroke="black" stroke-width="2" points="52.6831,-164.138 42.5822,-167.335 52.4722,-171.135 52.6831,-164.138"/>
</g>
<!-- 5&#45;&gt;3 -->
<g id="edge13" class="edge"><title>5&#45;&gt;3</title>
<path fill="none" stroke="black" stroke-width="2" d="M82.1017,-189.282C83.0498,-193.738 84.0707,-198.535 85.0805,-203.281"/>
<polygon fill="black" stroke="black" stroke-width="2" points="81.7363,-204.382 87.241,-213.434 88.583,-202.925 81.7363,-204.382"/>
</g>
<!-- 6&#45;&gt;2 -->
<g id="edge11" class="edge"><title>6&#45;&gt;2</title>
<path fill="none" stroke="black" stroke-width="2" d="M148.149,-110.862C147.873,-94.3454 147.486,-71.2537 147.175,-52.6431"/>
<polygon fill="black" stroke="black" stroke-width="2" points="150.673,-52.5016 147.006,-42.5616 143.674,-52.6188 150.673,-52.5016"/>
</g>
<!-- 6&#45;&gt;5 -->
<g id="edge16" class="edge"><title>6&#45;&gt;5</title>
<path fill="none" stroke="black" stroke-width="2" d="M129.521,-141.955C122.214,-145.679 113.709,-150.015 105.725,-154.084"/>
<polygon fill="black" stroke="black" stroke-width="2" points="104.015,-151.027 96.6957,-158.687 107.195,-157.264 104.015,-151.027"/>
</g>
<!-- 6&#45;&gt;7 -->
<g id="edge18" class="edge"><title>6&#45;&gt;7</title>
<path fill="none" stroke="black" stroke-width="2" d="M128.865,-124.254C128.294,-124.021 127.72,-123.787 127.143,-123.551"/>
<polygon fill="black" stroke="black" stroke-width="2" points="128.329,-120.255 117.748,-119.714 125.682,-126.735 128.329,-120.255"/>
</g>
<!-- 7&#45;&gt;2 -->
<g id="edge12" class="edge"><title>7&#45;&gt;2</title>
<path fill="none" stroke="black" stroke-width="2" d="M108.14,-92.9351C114.979,-80.1987 124.14,-63.1362 131.811,-48.8487"/>
<polygon fill="black" stroke="black" stroke-width="2" points="134.951,-50.4 136.598,-39.9339 128.784,-47.0886 134.951,-50.4"/>
</g>
<!-- 7&#45;&gt;3 -->
<g id="edge14" class="edge"><title>7&#45;&gt;3</title>
<path fill="none" stroke="black" stroke-width="2" d="M101.7,-132.685C103.178,-143.386 104.441,-156.616 103.961,-168.509 103.491,-180.142 101.518,-192.746 99.2867,-203.787"/>
<polygon fill="black" stroke="black" stroke-width="2" points="95.812,-203.295 97.1099,-213.81 102.653,-204.781 95.812,-203.295"/>
</g>
<!-- 7&#45;&gt;4 -->
<g id="edge15" class="edge"><title>7&#45;&gt;4</title>
<path fill="none" stroke="black" stroke-width="2" d="M117.51,-102.782C132.431,-95.9506 153.262,-86.4129 170.111,-78.6986"/>
<polygon fill="black" stroke="black" stroke-width="2" points="171.861,-81.7468 179.497,-74.4016 168.947,-75.3822 171.861,-81.7468"/>
</g>
<!-- 7&#45;&gt;5 -->
<g id="edge17" class="edge"><title>7&#45;&gt;5</title>
<path fill="none" stroke="black" stroke-width="2" d="M90.8193,-131.834C90.0068,-134.091 89.1671,-136.423 88.3232,-138.767"/>
<polygon fill="black" stroke="black" stroke-width="2" points="84.9844,-137.708 84.8898,-148.303 91.5705,-140.08 84.9844,-137.708"/>
</g>
</g>
</svg>

