<?xml version="1.0" encoding="UTF-8" standalone="no"?>
<!DOCTYPE svg PUBLIC "-//W3C//DTD SVG 1.1//EN"
 "http://www.w3.org/Graphics/SVG/1.1/DTD/svg11.dtd">
<!-- Generated by graphviz version 2.36.0 (20140111.2315)
 -->
<!-- Title: G Pages: 1 -->
<svg width="100%" height="100%"
 viewBox="0.00 0.00 218.53 305.09" xmlns="http://www.w3.org/2000/svg" xmlns:xlink="http://www.w3.org/1999/xlink">
<g id="graph0" class="graph" transform="scale(1 1) rotate(0) translate(4 301.093)">
<title>G</title>
<!-- 0 -->
<g id="node1" class="node"><title>0</title>
<ellipse fill="cadetblue" stroke="black" cx="112.936" cy="-97.8155" rx="21.4286" ry="21.4286"/>
<text text-anchor="middle" x="112.936" y="-92.8155" font-family="Times New Roman,serif" font-size="20.00">2</text>
</g>
<!-- 4 -->
<g id="node5" class="node"><title>4</title>
<ellipse fill="cadetblue" stroke="black" cx="189.32" cy="-84.6535" rx="21.4286" ry="21.4286"/>
<text text-anchor="middle" x="189.32" y="-79.6535" font-family="Times New Roman,serif" font-size="20.00">2</text>
</g>
<!-- 0&#45;&gt;4 -->
<g id="edge2" class="edge"><title>0&#45;&gt;4</title>
<path fill="none" stroke="black" stroke-width="2" d="M134.214,-94.1492C141.663,-92.8656 150.188,-91.3966 158.27,-90.0039"/>
<polygon fill="black" stroke="black" stroke-width="2" points="158.897,-93.4476 168.157,-88.3002 157.708,-86.5492 158.897,-93.4476"/>
</g>
<!-- 6 -->
<g id="node7" class="node"><title>6</title>
<ellipse fill="cadetblue" stroke="black" cx="33.2517" cy="-115.926" rx="21.4286" ry="21.4286"/>
<text text-anchor="middle" x="33.2517" y="-110.926" font-family="Times New Roman,serif" font-size="20.00">2</text>
</g>
<!-- 0&#45;&gt;6 -->
<g id="edge4" class="edge"><title>0&#45;&gt;6</title>
<path fill="none" stroke="black" stroke-width="2" d="M92.0002,-102.574C83.3989,-104.529 73.2673,-106.832 63.862,-108.969"/>
<polygon fill="black" stroke="black" stroke-width="2" points="63.0237,-105.57 54.0481,-111.2 64.5751,-112.396 63.0237,-105.57"/>
</g>
<!-- 7 -->
<g id="node8" class="node"><title>7</title>
<ellipse fill="cadetblue" stroke="black" cx="133.103" cy="-179.293" rx="21.4286" ry="21.4286"/>
<text text-anchor="middle" x="133.103" y="-174.293" font-family="Times New Roman,serif" font-size="20.00">2</text>
</g>
<!-- 0&#45;&gt;7 -->
<g id="edge5" class="edge"><title>0&#45;&gt;7</title>
<path fill="none" stroke="black" stroke-width="2" d="M118.13,-118.798C120.382,-127.897 123.063,-138.73 125.531,-148.698"/>
<polygon fill="black" stroke="black" stroke-width="2" points="122.197,-149.797 127.997,-158.663 128.992,-148.115 122.197,-149.797"/>
</g>
<!-- 1 -->
<g id="node2" class="node"><title>1</title>
<ellipse fill="cadetblue" stroke="black" cx="21.2132" cy="-221.366" rx="21.4286" ry="21.4286"/>
<text text-anchor="middle" x="21.2132" y="-216.366" font-family="Times New Roman,serif" font-size="20.00">2</text>
</g>
<!-- 5 -->
<g id="node6" class="node"><title>5</title>
<ellipse fill="cadetblue" stroke="black" cx="71.6447" cy="-190.249" rx="21.4286" ry="21.4286"/>
<text text-anchor="middle" x="71.6447" y="-185.249" font-family="Times New Roman,serif" font-size="20.00">2</text>
</g>
<!-- 1&#45;&gt;5 -->
<g id="edge7" class="edge"><title>1&#45;&gt;5</title>
<path fill="none" stroke="black" stroke-width="2" d="M39.4201,-210.132C41.1129,-209.087 42.8516,-208.015 44.602,-206.935"/>
<polygon fill="black" stroke="black" stroke-width="2" points="46.6225,-209.801 53.2951,-201.571 42.9468,-203.843 46.6225,-209.801"/>
</g>
<!-- 1&#45;&gt;7 -->
<g id="edge9" class="edge"><title>1&#45;&gt;7</title>
<path fill="none" stroke="black" stroke-width="2" d="M42.4973,-220.711C51.5483,-220.078 62.1558,-218.864 71.5274,-216.553 84.7016,-213.304 97.7789,-206.107 108.471,-198.896"/>
<polygon fill="black" stroke="black" stroke-width="2" points="110.735,-201.58 116.841,-192.921 106.668,-195.882 110.735,-201.58"/>
</g>
<!-- 2 -->
<g id="node3" class="node"><title>2</title>
<ellipse fill="cadetblue" stroke="black" cx="93.5071" cy="-21.2132" rx="21.4286" ry="21.4286"/>
<text text-anchor="middle" x="93.5071" y="-16.2132" font-family="Times New Roman,serif" font-size="20.00">2</text>
</g>
<!-- 2&#45;&gt;0 -->
<g id="edge1" class="edge"><title>2&#45;&gt;0</title>
<path fill="none" stroke="black" stroke-width="2" d="M98.8162,-42.1451C100.781,-49.8924 103.051,-58.8426 105.189,-67.2699"/>
<polygon fill="black" stroke="black" stroke-width="2" points="101.85,-68.3416 107.701,-77.1741 108.635,-66.6206 101.85,-68.3416"/>
</g>
<!-- 3 -->
<g id="node4" class="node"><title>3</title>
<ellipse fill="cadetblue" stroke="black" cx="106.826" cy="-275.88" rx="21.4286" ry="21.4286"/>
<text text-anchor="middle" x="106.826" y="-270.88" font-family="Times New Roman,serif" font-size="20.00">2</text>
</g>
<!-- 3&#45;&gt;1 -->
<g id="edge6" class="edge"><title>3&#45;&gt;1</title>
<path fill="none" stroke="black" stroke-width="2" d="M88.6699,-264.319C76.8652,-256.802 61.2666,-246.87 48.043,-238.45"/>
<polygon fill="black" stroke="black" stroke-width="2" points="49.6584,-235.329 39.3433,-232.91 45.8986,-241.234 49.6584,-235.329"/>
</g>
<!-- 4&#45;&gt;2 -->
<g id="edge10" class="edge"><title>4&#45;&gt;2</title>
<path fill="none" stroke="black" stroke-width="2" d="M171.298,-72.7209C156.845,-63.151 136.349,-49.5802 120.024,-38.7706"/>
<polygon fill="black" stroke="black" stroke-width="2" points="121.718,-35.6949 111.448,-33.0923 117.854,-41.5314 121.718,-35.6949"/>
</g>
<!-- 5&#45;&gt;0 -->
<g id="edge3" class="edge"><title>5&#45;&gt;0</title>
<path fill="none" stroke="black" stroke-width="2" d="M80.4016,-170.646C86.095,-157.901 93.6183,-141.06 99.9962,-126.783"/>
<polygon fill="black" stroke="black" stroke-width="2" points="103.309,-127.948 104.192,-117.39 96.9177,-125.093 103.309,-127.948"/>
</g>
<!-- 5&#45;&gt;3 -->
<g id="edge12" class="edge"><title>5&#45;&gt;3</title>
<path fill="none" stroke="black" stroke-width="2" d="M79.8044,-210.11C84.2892,-221.026 89.9351,-234.768 94.905,-246.864"/>
<polygon fill="black" stroke="black" stroke-width="2" points="91.6729,-248.207 98.7107,-256.127 98.1478,-245.547 91.6729,-248.207"/>
</g>
<!-- 6&#45;&gt;1 -->
<g id="edge8" class="edge"><title>6&#45;&gt;1</title>
<path fill="none" stroke="black" stroke-width="2" d="M30.8445,-137.01C29.1171,-152.14 26.7599,-172.785 24.8098,-189.865"/>
<polygon fill="black" stroke="black" stroke-width="2" points="21.3146,-189.625 23.6575,-199.957 28.2694,-190.419 21.3146,-189.625"/>
</g>
<!-- 6&#45;&gt;2 -->
<g id="edge11" class="edge"><title>6&#45;&gt;2</title>
<path fill="none" stroke="black" stroke-width="2" d="M44.8696,-97.6648C53.7889,-83.6448 66.2421,-64.0701 76.3143,-48.2379"/>
<polygon fill="black" stroke="black" stroke-width="2" points="79.5102,-49.7348 81.9249,-39.4188 73.6041,-45.9774 79.5102,-49.7348"/>
</g>
<!-- 6&#45;&gt;5 -->
<g id="edge15" class="edge"><title>6&#45;&gt;5</title>
<path fill="none" stroke="black" stroke-width="2" d="M43.1389,-135.066C47.3932,-143.302 52.4525,-153.096 57.1196,-162.131"/>
<polygon fill="black" stroke="black" stroke-width="2" points="54.0918,-163.896 61.791,-171.174 60.3111,-160.683 54.0918,-163.896"/>
</g>
<!-- 7&#45;&gt;3 -->
<g id="edge13" class="edge"><title>7&#45;&gt;3</title>
<path fill="none" stroke="black" stroke-width="2" d="M127.531,-199.776C123.932,-213.004 119.184,-230.455 115.143,-245.308"/>
<polygon fill="black" stroke="black" stroke-width="2" points="111.729,-244.525 112.481,-255.093 118.484,-246.362 111.729,-244.525"/>
</g>
<!-- 7&#45;&gt;4 -->
<g id="edge14" class="edge"><title>7&#45;&gt;4</title>
<path fill="none" stroke="black" stroke-width="2" d="M143.942,-161.045C152.211,-147.126 163.734,-127.727 173.099,-111.962"/>
<polygon fill="black" stroke="black" stroke-width="2" points="176.224,-113.553 178.322,-103.168 170.206,-109.978 176.224,-113.553"/>
</g>
<!-- 7&#45;&gt;6 -->
<g id="edge16" class="edge"><title>7&#45;&gt;6</title>
<path fill="none" stroke="black" stroke-width="2" d="M114.789,-167.67C99.4468,-157.934 77.339,-143.904 60.0132,-132.909"/>
<polygon fill="black" stroke="black" stroke-width="2" points="61.7687,-129.878 51.4499,-127.475 58.0179,-135.788 61.7687,-129.878"/>
</g>
</g>
</svg>

