<?xml version="1.0" encoding="UTF-8" standalone="no"?>
<!DOCTYPE svg PUBLIC "-//W3C//DTD SVG 1.1//EN"
 "http://www.w3.org/Graphics/SVG/1.1/DTD/svg11.dtd">
<!-- Generated by graphviz version 2.36.0 (20140111.2315)
 -->
<!-- Title: G Pages: 1 -->
<svg width="100%" height="100%"
 viewBox="0.00 0.00 217.93 308.56" xmlns="http://www.w3.org/2000/svg" xmlns:xlink="http://www.w3.org/1999/xlink">
<g id="graph0" class="graph" transform="scale(1 1) rotate(0) translate(4 304.558)">
<title>G</title>
<!-- 0 -->
<g id="node1" class="node"><title>0</title>
<ellipse fill="cadetblue" stroke="black" cx="100.465" cy="-21.2132" rx="21.4286" ry="21.4286"/>
<text text-anchor="middle" x="100.465" y="-16.2132" font-family="Times New Roman,serif" font-size="20.00">2</text>
</g>
<!-- 5 -->
<g id="node6" class="node"><title>5</title>
<ellipse fill="dodgerblue" stroke="black" cx="173.913" cy="-120.646" rx="21.4286" ry="21.4286"/>
<text text-anchor="middle" x="173.913" y="-115.646" font-family="Times New Roman,serif" font-size="20.00">4</text>
</g>
<!-- 0&#45;&gt;5 -->
<g id="edge3" class="edge"><title>0&#45;&gt;5</title>
<path fill="none" stroke="black" stroke-width="2" d="M113.259,-38.5331C124.844,-54.2169 142.057,-77.5194 155.189,-95.2983"/>
<polygon fill="black" stroke="black" stroke-width="2" points="152.509,-97.5607 161.266,-103.525 158.14,-93.4016 152.509,-97.5607"/>
</g>
<!-- 6 -->
<g id="node7" class="node"><title>6</title>
<ellipse fill="cadetblue" stroke="black" cx="188.719" cy="-171.078" rx="21.4286" ry="21.4286"/>
<text text-anchor="middle" x="188.719" y="-166.078" font-family="Times New Roman,serif" font-size="20.00">2</text>
</g>
<!-- 0&#45;&gt;6 -->
<g id="edge4" class="edge"><title>0&#45;&gt;6</title>
<path fill="none" stroke="black" stroke-width="2" d="M107.282,-41.643C116.053,-66.1931 132.865,-107.972 155.23,-139.163 158.065,-143.116 161.432,-146.985 164.922,-150.588"/>
<polygon fill="black" stroke="black" stroke-width="2" points="162.503,-153.118 172.125,-157.553 167.369,-148.085 162.503,-153.118"/>
</g>
<!-- 7 -->
<g id="node8" class="node"><title>7</title>
<ellipse fill="cadetblue" stroke="black" cx="77.5159" cy="-136.895" rx="21.4286" ry="21.4286"/>
<text text-anchor="middle" x="77.5159" y="-131.895" font-family="Times New Roman,serif" font-size="20.00">2</text>
</g>
<!-- 0&#45;&gt;7 -->
<g id="edge5" class="edge"><title>0&#45;&gt;7</title>
<path fill="none" stroke="black" stroke-width="2" d="M96.309,-42.1622C92.7893,-59.9047 87.6927,-85.5955 83.6948,-105.748"/>
<polygon fill="black" stroke="black" stroke-width="2" points="80.2313,-105.221 81.7184,-115.711 87.0975,-106.583 80.2313,-105.221"/>
</g>
<!-- 1 -->
<g id="node2" class="node"><title>1</title>
<ellipse fill="cadetblue" stroke="black" cx="56.7235" cy="-244.482" rx="21.4286" ry="21.4286"/>
<text text-anchor="middle" x="56.7235" y="-239.482" font-family="Times New Roman,serif" font-size="20.00">2</text>
</g>
<!-- 4 -->
<g id="node5" class="node"><title>4</title>
<ellipse fill="cadetblue" stroke="black" cx="21.2132" cy="-86.0062" rx="21.4286" ry="21.4286"/>
<text text-anchor="middle" x="21.2132" y="-81.0062" font-family="Times New Roman,serif" font-size="20.00">2</text>
</g>
<!-- 1&#45;&gt;4 -->
<g id="edge7" class="edge"><title>1&#45;&gt;4</title>
<path fill="none" stroke="black" stroke-width="2" d="M52.0812,-223.764C45.9668,-196.477 35.1649,-148.27 28.098,-116.732"/>
<polygon fill="black" stroke="black" stroke-width="2" points="31.4586,-115.722 25.8567,-106.729 24.628,-117.253 31.4586,-115.722"/>
</g>
<!-- 1&#45;&gt;7 -->
<g id="edge9" class="edge"><title>1&#45;&gt;7</title>
<path fill="none" stroke="black" stroke-width="2" d="M60.7819,-223.483C63.8445,-207.636 68.0937,-185.649 71.5438,-167.797"/>
<polygon fill="black" stroke="black" stroke-width="2" points="75.0067,-168.323 73.4678,-157.841 68.1338,-166.995 75.0067,-168.323"/>
</g>
<!-- 2 -->
<g id="node3" class="node"><title>2</title>
<ellipse fill="brown" stroke="black" cx="181.227" cy="-32.7449" rx="21.4286" ry="21.4286"/>
<text text-anchor="middle" x="181.227" y="-27.7449" font-family="Times New Roman,serif" font-size="20.00">3</text>
</g>
<!-- 2&#45;&gt;0 -->
<g id="edge1" class="edge"><title>2&#45;&gt;0</title>
<path fill="none" stroke="black" stroke-width="2" d="M160.007,-29.7151C151.29,-28.4704 141.021,-27.0041 131.489,-25.643"/>
<polygon fill="black" stroke="black" stroke-width="2" points="131.937,-22.1716 121.542,-24.2228 130.947,-29.1013 131.937,-22.1716"/>
</g>
<!-- 2&#45;&gt;5 -->
<g id="edge11" class="edge"><title>2&#45;&gt;5</title>
<path fill="none" stroke="black" stroke-width="2" d="M179.456,-54.0234C178.582,-64.5267 177.51,-77.409 176.543,-89.037"/>
<polygon fill="black" stroke="black" stroke-width="2" points="173.034,-89.0032 175.692,-99.259 180.01,-89.5837 173.034,-89.0032"/>
</g>
<!-- 3 -->
<g id="node4" class="node"><title>3</title>
<ellipse fill="cadetblue" stroke="black" cx="187.809" cy="-279.345" rx="21.4286" ry="21.4286"/>
<text text-anchor="middle" x="187.809" y="-274.345" font-family="Times New Roman,serif" font-size="20.00">2</text>
</g>
<!-- 3&#45;&gt;1 -->
<g id="edge6" class="edge"><title>3&#45;&gt;1</title>
<path fill="none" stroke="black" stroke-width="2" d="M167.038,-273.821C145.561,-268.109 111.797,-259.129 87.2772,-252.608"/>
<polygon fill="black" stroke="black" stroke-width="2" points="87.9608,-249.168 77.3972,-249.98 86.1616,-255.933 87.9608,-249.168"/>
</g>
<!-- 4&#45;&gt;0 -->
<g id="edge2" class="edge"><title>4&#45;&gt;0</title>
<path fill="none" stroke="black" stroke-width="2" d="M38.0205,-72.2653C49.0218,-63.271 63.5829,-51.3665 75.8765,-41.3157"/>
<polygon fill="black" stroke="black" stroke-width="2" points="78.427,-43.7514 83.9537,-34.7121 73.9964,-38.332 78.427,-43.7514"/>
</g>
<!-- 4&#45;&gt;2 -->
<g id="edge10" class="edge"><title>4&#45;&gt;2</title>
<path fill="none" stroke="black" stroke-width="2" d="M41.479,-79.2606C69.1766,-70.0413 119.067,-53.4349 151.138,-42.7602"/>
<polygon fill="black" stroke="black" stroke-width="2" points="152.49,-45.9988 160.873,-39.5197 150.28,-39.357 152.49,-45.9988"/>
</g>
<!-- 4&#45;&gt;5 -->
<g id="edge16" class="edge"><title>4&#45;&gt;5</title>
<path fill="none" stroke="black" stroke-width="2" d="M42.1253,-90.7501C68.1368,-96.6508 112.774,-106.777 142.805,-113.589"/>
<polygon fill="black" stroke="black" stroke-width="2" points="142.237,-117.049 152.763,-115.848 143.786,-110.223 142.237,-117.049"/>
</g>
<!-- 5&#45;&gt;3 -->
<g id="edge14" class="edge"><title>5&#45;&gt;3</title>
<path fill="none" stroke="black" stroke-width="2" d="M167.063,-141.005C164.581,-150.091 162.384,-160.994 162.414,-171.046 162.496,-198.221 170.161,-228.242 177.047,-249.77"/>
<polygon fill="black" stroke="black" stroke-width="2" points="173.745,-250.934 180.227,-259.315 180.386,-248.721 173.745,-250.934"/>
</g>
<!-- 6&#45;&gt;1 -->
<g id="edge8" class="edge"><title>6&#45;&gt;1</title>
<path fill="none" stroke="black" stroke-width="2" d="M170.087,-181.439C147.809,-193.828 110.311,-214.681 84.5837,-228.988"/>
<polygon fill="black" stroke="black" stroke-width="2" points="82.7264,-226.017 75.6879,-233.936 86.1285,-232.134 82.7264,-226.017"/>
</g>
<!-- 6&#45;&gt;2 -->
<g id="edge12" class="edge"><title>6&#45;&gt;2</title>
<path fill="none" stroke="black" stroke-width="2" d="M195.482,-150.754C197.947,-141.684 200.156,-130.799 200.217,-120.763 200.336,-101.216 195.808,-79.7637 191.144,-62.9318"/>
<polygon fill="black" stroke="black" stroke-width="2" points="194.435,-61.718 188.263,-53.107 187.718,-63.6878 194.435,-61.718"/>
</g>
<!-- 6&#45;&gt;3 -->
<g id="edge15" class="edge"><title>6&#45;&gt;3</title>
<path fill="none" stroke="black" stroke-width="2" d="M188.539,-192.468C188.406,-208.26 188.223,-230.008 188.074,-247.794"/>
<polygon fill="black" stroke="black" stroke-width="2" points="184.572,-247.97 187.988,-257.999 191.572,-248.029 184.572,-247.97"/>
</g>
<!-- 7&#45;&gt;2 -->
<g id="edge13" class="edge"><title>7&#45;&gt;2</title>
<path fill="none" stroke="black" stroke-width="2" d="M92.8188,-121.527C110.306,-103.966 139.076,-75.0738 159.026,-55.0395"/>
<polygon fill="black" stroke="black" stroke-width="2" points="161.622,-57.3927 166.198,-47.837 156.662,-52.4534 161.622,-57.3927"/>
</g>
<!-- 7&#45;&gt;4 -->
<g id="edge17" class="edge"><title>7&#45;&gt;4</title>
<path fill="none" stroke="black" stroke-width="2" d="M61.5324,-122.448C56.2575,-117.681 50.2769,-112.275 44.5675,-107.115"/>
<polygon fill="black" stroke="black" stroke-width="2" points="46.8075,-104.421 37.0418,-100.313 42.1137,-109.615 46.8075,-104.421"/>
</g>
<!-- 7&#45;&gt;5 -->
<g id="edge18" class="edge"><title>7&#45;&gt;5</title>
<path fill="none" stroke="black" stroke-width="2" d="M98.9095,-133.289C111.853,-131.107 128.579,-128.288 142.95,-125.865"/>
<polygon fill="black" stroke="black" stroke-width="2" points="143.632,-129.3 152.911,-124.186 142.468,-122.397 143.632,-129.3"/>
</g>
<!-- 7&#45;&gt;6 -->
<g id="edge19" class="edge"><title>7&#45;&gt;6</title>
<path fill="none" stroke="black" stroke-width="2" d="M97.9122,-143.164C114.814,-148.36 139.088,-155.822 158.288,-161.723"/>
<polygon fill="black" stroke="black" stroke-width="2" points="157.488,-165.139 168.075,-164.732 159.545,-158.448 157.488,-165.139"/>
</g>
</g>
</svg>

