<?xml version="1.0" encoding="UTF-8" standalone="no"?>
<!DOCTYPE svg PUBLIC "-//W3C//DTD SVG 1.1//EN"
 "http://www.w3.org/Graphics/SVG/1.1/DTD/svg11.dtd">
<!-- Generated by graphviz version 2.36.0 (20140111.2315)
 -->
<!-- Title: G Pages: 1 -->
<svg width="100%" height="100%"
 viewBox="0.00 0.00 185.55 234.37" xmlns="http://www.w3.org/2000/svg" xmlns:xlink="http://www.w3.org/1999/xlink">
<g id="graph0" class="graph" transform="scale(1 1) rotate(0) translate(4 230.369)">
<title>G</title>
<!-- 0 -->
<g id="node1" class="node"><title>0</title>
<ellipse fill="cadetblue" stroke="black" cx="88.5163" cy="-21.2132" rx="21.4286" ry="21.4286"/>
<text text-anchor="middle" x="88.5163" y="-16.2132" font-family="Times New Roman,serif" font-size="20.00">2</text>
</g>
<!-- 5 -->
<g id="node6" class="node"><title>5</title>
<ellipse fill="cadetblue" stroke="black" cx="21.2132" cy="-129.801" rx="21.4286" ry="21.4286"/>
<text text-anchor="middle" x="21.2132" y="-124.801" font-family="Times New Roman,serif" font-size="20.00">2</text>
</g>
<!-- 0&#45;&gt;5 -->
<g id="edge3" class="edge"><title>0&#45;&gt;5</title>
<path fill="none" stroke="black" stroke-width="2" d="M77.0993,-39.6337C66.3017,-57.0546 49.9763,-83.3943 37.754,-103.114"/>
<polygon fill="black" stroke="black" stroke-width="2" points="34.755,-101.309 32.4617,-111.653 40.7048,-104.997 34.755,-101.309"/>
</g>
<!-- 6 -->
<g id="node7" class="node"><title>6</title>
<ellipse fill="dodgerblue" stroke="black" cx="83.8926" cy="-97.0042" rx="21.4286" ry="21.4286"/>
<text text-anchor="middle" x="83.8926" y="-92.0042" font-family="Times New Roman,serif" font-size="20.00">4</text>
</g>
<!-- 0&#45;&gt;6 -->
<g id="edge4" class="edge"><title>0&#45;&gt;6</title>
<path fill="none" stroke="black" stroke-width="2" d="M87.2037,-42.7291C86.7705,-49.8298 86.2794,-57.8806 85.8105,-65.5662"/>
<polygon fill="black" stroke="black" stroke-width="2" points="82.308,-65.5022 85.1925,-75.6968 89.295,-65.9285 82.308,-65.5022"/>
</g>
<!-- 7 -->
<g id="node8" class="node"><title>7</title>
<ellipse fill="cadetblue" stroke="black" cx="143.202" cy="-111.8" rx="21.4286" ry="21.4286"/>
<text text-anchor="middle" x="143.202" y="-106.8" font-family="Times New Roman,serif" font-size="20.00">2</text>
</g>
<!-- 0&#45;&gt;7 -->
<g id="edge5" class="edge"><title>0&#45;&gt;7</title>
<path fill="none" stroke="black" stroke-width="2" d="M99.5827,-39.5448C107.44,-52.56 118.116,-70.2451 126.939,-84.861"/>
<polygon fill="black" stroke="black" stroke-width="2" points="123.987,-86.7436 132.152,-93.4958 129.98,-83.1259 123.987,-86.7436"/>
</g>
<!-- 1 -->
<g id="node2" class="node"><title>1</title>
<ellipse fill="cadetblue" stroke="black" cx="63.7568" cy="-194.519" rx="21.4286" ry="21.4286"/>
<text text-anchor="middle" x="63.7568" y="-189.519" font-family="Times New Roman,serif" font-size="20.00">2</text>
</g>
<!-- 1&#45;&gt;6 -->
<g id="edge8" class="edge"><title>1&#45;&gt;6</title>
<path fill="none" stroke="black" stroke-width="2" d="M68.126,-173.36C70.889,-159.979 74.5057,-142.464 77.5782,-127.584"/>
<polygon fill="black" stroke="black" stroke-width="2" points="81.0065,-128.288 79.6011,-117.787 74.1511,-126.873 81.0065,-128.288"/>
</g>
<!-- 1&#45;&gt;7 -->
<g id="edge9" class="edge"><title>1&#45;&gt;7</title>
<path fill="none" stroke="black" stroke-width="2" d="M78.6998,-178.96C90.684,-166.482 107.678,-148.787 121.215,-134.693"/>
<polygon fill="black" stroke="black" stroke-width="2" points="123.923,-136.926 128.326,-127.289 118.874,-132.077 123.923,-136.926"/>
</g>
<!-- 2 -->
<g id="node3" class="node"><title>2</title>
<ellipse fill="brown" stroke="black" cx="38.0849" cy="-41.8803" rx="21.4286" ry="21.4286"/>
<text text-anchor="middle" x="38.0849" y="-36.8803" font-family="Times New Roman,serif" font-size="20.00">3</text>
</g>
<!-- 2&#45;&gt;0 -->
<g id="edge1" class="edge"><title>2&#45;&gt;0</title>
<path fill="none" stroke="black" stroke-width="2" d="M57.7274,-33.8307C58.2978,-33.5969 58.8723,-33.3615 59.4494,-33.125"/>
<polygon fill="black" stroke="black" stroke-width="2" points="60.9185,-36.3055 68.8445,-29.2749 58.2641,-29.8283 60.9185,-36.3055"/>
</g>
<!-- 2&#45;&gt;6 -->
<g id="edge12" class="edge"><title>2&#45;&gt;6</title>
<path fill="none" stroke="black" stroke-width="2" d="M51.8287,-58.4193C55.5429,-62.8888 59.6419,-67.8214 63.6323,-72.6235"/>
<polygon fill="black" stroke="black" stroke-width="2" points="61.0753,-75.0227 70.1585,-80.4769 66.4591,-70.5489 61.0753,-75.0227"/>
</g>
<!-- 3 -->
<g id="node4" class="node"><title>3</title>
<ellipse fill="cadetblue" stroke="black" cx="131.007" cy="-205.156" rx="21.4286" ry="21.4286"/>
<text text-anchor="middle" x="131.007" y="-200.156" font-family="Times New Roman,serif" font-size="20.00">2</text>
</g>
<!-- 3&#45;&gt;1 -->
<g id="edge6" class="edge"><title>3&#45;&gt;1</title>
<path fill="none" stroke="black" stroke-width="2" d="M109.729,-201.79C105.068,-201.053 100.039,-200.258 95.0777,-199.473"/>
<polygon fill="black" stroke="black" stroke-width="2" points="95.5516,-196.005 85.1276,-197.899 94.458,-202.919 95.5516,-196.005"/>
</g>
<!-- 4 -->
<g id="node5" class="node"><title>4</title>
<ellipse fill="cadetblue" stroke="black" cx="156.334" cy="-25.747" rx="21.4286" ry="21.4286"/>
<text text-anchor="middle" x="156.334" y="-20.747" font-family="Times New Roman,serif" font-size="20.00">2</text>
</g>
<!-- 4&#45;&gt;0 -->
<g id="edge2" class="edge"><title>4&#45;&gt;0</title>
<path fill="none" stroke="black" stroke-width="2" d="M134.876,-24.3125C130.176,-23.9983 125.105,-23.6593 120.101,-23.3248"/>
<polygon fill="black" stroke="black" stroke-width="2" points="120.279,-19.8289 110.067,-22.654 119.812,-26.8133 120.279,-19.8289"/>
</g>
<!-- 4&#45;&gt;2 -->
<g id="edge10" class="edge"><title>4&#45;&gt;2</title>
<path fill="none" stroke="black" stroke-width="2" d="M136.916,-34.3941C123.598,-39.7164 105.355,-45.8329 88.4923,-47.5176 82.3177,-48.1344 75.7229,-47.9846 69.4071,-47.4433"/>
<polygon fill="black" stroke="black" stroke-width="2" points="69.5076,-43.9308 59.1651,-46.2292 68.6835,-50.8821 69.5076,-43.9308"/>
</g>
<!-- 5&#45;&gt;1 -->
<g id="edge7" class="edge"><title>5&#45;&gt;1</title>
<path fill="none" stroke="black" stroke-width="2" d="M33.064,-147.829C37.213,-154.14 41.9612,-161.363 46.4629,-168.211"/>
<polygon fill="black" stroke="black" stroke-width="2" points="43.5518,-170.155 51.9696,-176.588 49.4011,-166.309 43.5518,-170.155"/>
</g>
<!-- 5&#45;&gt;2 -->
<g id="edge11" class="edge"><title>5&#45;&gt;2</title>
<path fill="none" stroke="black" stroke-width="2" d="M25.2116,-108.965C27.2766,-98.2037 29.8377,-84.8577 32.1303,-72.9104"/>
<polygon fill="black" stroke="black" stroke-width="2" points="35.6094,-73.3519 34.0568,-62.8714 28.7348,-72.0326 35.6094,-73.3519"/>
</g>
<!-- 5&#45;&gt;3 -->
<g id="edge14" class="edge"><title>5&#45;&gt;3</title>
<path fill="none" stroke="black" stroke-width="2" d="M38.8535,-141.908C56.701,-154.158 84.4962,-173.234 104.896,-187.235"/>
<polygon fill="black" stroke="black" stroke-width="2" points="103.185,-190.306 113.41,-193.079 107.146,-184.535 103.185,-190.306"/>
</g>
<!-- 6&#45;&gt;4 -->
<g id="edge16" class="edge"><title>6&#45;&gt;4</title>
<path fill="none" stroke="black" stroke-width="2" d="M99.2555,-81.8924C109.244,-72.0671 122.443,-59.0842 133.632,-48.0779"/>
<polygon fill="black" stroke="black" stroke-width="2" points="136.318,-50.3448 140.993,-40.837 131.409,-45.3545 136.318,-50.3448"/>
</g>
<!-- 6&#45;&gt;5 -->
<g id="edge18" class="edge"><title>6&#45;&gt;5</title>
<path fill="none" stroke="black" stroke-width="2" d="M65.0867,-106.844C60.2186,-109.392 54.8675,-112.192 49.6265,-114.934"/>
<polygon fill="black" stroke="black" stroke-width="2" points="47.6774,-112.003 40.4397,-119.741 50.9228,-118.206 47.6774,-112.003"/>
</g>
<!-- 7&#45;&gt;2 -->
<g id="edge13" class="edge"><title>7&#45;&gt;2</title>
<path fill="none" stroke="black" stroke-width="2" d="M127.072,-97.4967C119.794,-91.3281 110.951,-84.2164 102.515,-78.4263 90.969,-70.5025 77.5883,-62.7074 66.0225,-56.3652"/>
<polygon fill="black" stroke="black" stroke-width="2" points="67.6697,-53.277 57.2059,-51.6156 64.3498,-59.4397 67.6697,-53.277"/>
</g>
<!-- 7&#45;&gt;3 -->
<g id="edge15" class="edge"><title>7&#45;&gt;3</title>
<path fill="none" stroke="black" stroke-width="2" d="M140.434,-132.984C138.86,-145.04 136.857,-160.368 135.104,-173.795"/>
<polygon fill="black" stroke="black" stroke-width="2" points="131.588,-173.687 133.763,-184.056 138.529,-174.594 131.588,-173.687"/>
</g>
<!-- 7&#45;&gt;4 -->
<g id="edge17" class="edge"><title>7&#45;&gt;4</title>
<path fill="none" stroke="black" stroke-width="2" d="M146.448,-90.5285C147.99,-80.4204 149.865,-68.1383 151.565,-56.9974"/>
<polygon fill="black" stroke="black" stroke-width="2" points="155.076,-57.1875 153.125,-46.7739 148.156,-56.1314 155.076,-57.1875"/>
</g>
<!-- 7&#45;&gt;6 -->
<g id="edge19" class="edge"><title>7&#45;&gt;6</title>
<path fill="none" stroke="black" stroke-width="2" d="M122.458,-106.625C119.855,-105.976 117.15,-105.301 114.436,-104.624"/>
<polygon fill="black" stroke="black" stroke-width="2" points="115.274,-101.226 104.725,-102.201 113.58,-108.018 115.274,-101.226"/>
</g>
</g>
</svg>

