<?xml version="1.0" encoding="UTF-8" standalone="no"?>
<!DOCTYPE svg PUBLIC "-//W3C//DTD SVG 1.1//EN"
 "http://www.w3.org/Graphics/SVG/1.1/DTD/svg11.dtd">
<!-- Generated by graphviz version 2.36.0 (20140111.2315)
 -->
<!-- Title: G Pages: 1 -->
<svg width="100%" height="100%"
 viewBox="0.00 0.00 274.04 278.66" xmlns="http://www.w3.org/2000/svg" xmlns:xlink="http://www.w3.org/1999/xlink">
<g id="graph0" class="graph" transform="scale(1 1) rotate(0) translate(4 274.665)">
<title>G</title>
<!-- 0 -->
<g id="node1" class="node"><title>0</title>
<ellipse fill="cadetblue" stroke="black" cx="122.006" cy="-44.4124" rx="21.4286" ry="21.4286"/>
<text text-anchor="middle" x="122.006" y="-39.4124" font-family="Times New Roman,serif" font-size="20.00">2</text>
</g>
<!-- 5 -->
<g id="node6" class="node"><title>5</title>
<ellipse fill="cadetblue" stroke="black" cx="28.0048" cy="-65.7708" rx="21.4286" ry="21.4286"/>
<text text-anchor="middle" x="28.0048" y="-60.7708" font-family="Times New Roman,serif" font-size="20.00">2</text>
</g>
<!-- 0&#45;&gt;5 -->
<g id="edge3" class="edge"><title>0&#45;&gt;5</title>
<path fill="none" stroke="black" stroke-width="2" d="M101.144,-49.1525C88.7304,-51.973 72.7503,-55.604 58.895,-58.7521"/>
<polygon fill="black" stroke="black" stroke-width="2" points="57.7842,-55.4152 48.8083,-61.0439 59.3352,-62.2412 57.7842,-55.4152"/>
</g>
<!-- 6 -->
<g id="node7" class="node"><title>6</title>
<ellipse fill="cadetblue" stroke="black" cx="219.151" cy="-151.729" rx="21.4286" ry="21.4286"/>
<text text-anchor="middle" x="219.151" y="-146.729" font-family="Times New Roman,serif" font-size="20.00">2</text>
</g>
<!-- 0&#45;&gt;6 -->
<g id="edge4" class="edge"><title>0&#45;&gt;6</title>
<path fill="none" stroke="black" stroke-width="2" d="M136.34,-60.2473C152.626,-78.2388 179.361,-107.773 198.035,-128.402"/>
<polygon fill="black" stroke="black" stroke-width="2" points="195.453,-130.764 204.758,-135.829 200.642,-126.066 195.453,-130.764"/>
</g>
<!-- 7 -->
<g id="node8" class="node"><title>7</title>
<ellipse fill="cadetblue" stroke="black" cx="117.241" cy="-134.268" rx="21.4286" ry="21.4286"/>
<text text-anchor="middle" x="117.241" y="-129.268" font-family="Times New Roman,serif" font-size="20.00">2</text>
</g>
<!-- 0&#45;&gt;7 -->
<g id="edge5" class="edge"><title>0&#45;&gt;7</title>
<path fill="none" stroke="black" stroke-width="2" d="M120.876,-65.707C120.293,-76.7053 119.57,-90.345 118.922,-102.555"/>
<polygon fill="black" stroke="black" stroke-width="2" points="115.413,-102.644 118.378,-112.815 122.403,-103.015 115.413,-102.644"/>
</g>
<!-- 1 -->
<g id="node2" class="node"><title>1</title>
<ellipse fill="cadetblue" stroke="black" cx="21.2132" cy="-195.902" rx="21.4286" ry="21.4286"/>
<text text-anchor="middle" x="21.2132" y="-190.902" font-family="Times New Roman,serif" font-size="20.00">2</text>
</g>
<!-- 1&#45;&gt;7 -->
<g id="edge8" class="edge"><title>1&#45;&gt;7</title>
<path fill="none" stroke="black" stroke-width="2" d="M39.2752,-184.309C53.7609,-175.012 74.3025,-161.828 90.6646,-151.326"/>
<polygon fill="black" stroke="black" stroke-width="2" points="92.7344,-154.156 99.2596,-145.809 88.9533,-148.265 92.7344,-154.156"/>
</g>
<!-- 2 -->
<g id="node3" class="node"><title>2</title>
<ellipse fill="brown" stroke="black" cx="172.437" cy="-21.2132" rx="21.4286" ry="21.4286"/>
<text text-anchor="middle" x="172.437" y="-16.2132" font-family="Times New Roman,serif" font-size="20.00">3</text>
</g>
<!-- 2&#45;&gt;0 -->
<g id="edge1" class="edge"><title>2&#45;&gt;0</title>
<path fill="none" stroke="black" stroke-width="2" d="M153.083,-30.1163C152.375,-30.4421 151.66,-30.771 150.941,-31.1017"/>
<polygon fill="black" stroke="black" stroke-width="2" points="149.18,-28.0592 141.558,-35.4181 152.105,-34.4186 149.18,-28.0592"/>
</g>
<!-- 2&#45;&gt;6 -->
<g id="edge11" class="edge"><title>2&#45;&gt;6</title>
<path fill="none" stroke="black" stroke-width="2" d="M179.634,-41.3202C187.327,-62.8137 199.607,-97.1243 208.437,-121.795"/>
<polygon fill="black" stroke="black" stroke-width="2" points="205.204,-123.148 211.869,-131.384 211.795,-120.789 205.204,-123.148"/>
</g>
<!-- 3 -->
<g id="node4" class="node"><title>3</title>
<ellipse fill="cadetblue" stroke="black" cx="135.083" cy="-249.452" rx="21.4286" ry="21.4286"/>
<text text-anchor="middle" x="135.083" y="-244.452" font-family="Times New Roman,serif" font-size="20.00">2</text>
</g>
<!-- 3&#45;&gt;1 -->
<g id="edge6" class="edge"><title>3&#45;&gt;1</title>
<path fill="none" stroke="black" stroke-width="2" d="M115.766,-240.368C97.6899,-231.867 70.4563,-219.06 49.8521,-209.37"/>
<polygon fill="black" stroke="black" stroke-width="2" points="51.1632,-206.119 40.6244,-205.031 48.1842,-212.454 51.1632,-206.119"/>
</g>
<!-- 4 -->
<g id="node5" class="node"><title>4</title>
<ellipse fill="cadetblue" stroke="black" cx="244.825" cy="-67.697" rx="21.4286" ry="21.4286"/>
<text text-anchor="middle" x="244.825" y="-62.697" font-family="Times New Roman,serif" font-size="20.00">2</text>
</g>
<!-- 4&#45;&gt;0 -->
<g id="edge2" class="edge"><title>4&#45;&gt;0</title>
<path fill="none" stroke="black" stroke-width="2" d="M223.712,-63.6942C204.291,-60.0124 175.244,-54.5056 153.158,-50.3185"/>
<polygon fill="black" stroke="black" stroke-width="2" points="153.731,-46.8649 143.255,-48.4409 152.428,-53.7424 153.731,-46.8649"/>
</g>
<!-- 4&#45;&gt;2 -->
<g id="edge9" class="edge"><title>4&#45;&gt;2</title>
<path fill="none" stroke="black" stroke-width="2" d="M226.931,-56.2066C218.492,-50.7872 208.251,-44.2109 198.935,-38.2288"/>
<polygon fill="black" stroke="black" stroke-width="2" points="200.681,-35.1908 190.376,-32.7325 196.899,-41.081 200.681,-35.1908"/>
</g>
<!-- 5&#45;&gt;1 -->
<g id="edge7" class="edge"><title>5&#45;&gt;1</title>
<path fill="none" stroke="black" stroke-width="2" d="M26.8985,-86.9683C25.7983,-108.048 24.0981,-140.625 22.8434,-164.666"/>
<polygon fill="black" stroke="black" stroke-width="2" points="19.3451,-164.545 22.319,-174.714 26.3356,-164.91 19.3451,-164.545"/>
</g>
<!-- 5&#45;&gt;2 -->
<g id="edge10" class="edge"><title>5&#45;&gt;2</title>
<path fill="none" stroke="black" stroke-width="2" d="M45.232,-52.9523C63.2695,-40.5546 92.9654,-22.9516 122.03,-18.1081 128.124,-17.0924 134.683,-16.8712 140.989,-17.084"/>
<polygon fill="black" stroke="black" stroke-width="2" points="141.018,-20.5942 151.235,-17.7883 141.499,-13.6107 141.018,-20.5942"/>
</g>
<!-- 6&#45;&gt;3 -->
<g id="edge13" class="edge"><title>6&#45;&gt;3</title>
<path fill="none" stroke="black" stroke-width="2" d="M205.269,-167.866C191.761,-183.568 171.075,-207.613 155.655,-225.538"/>
<polygon fill="black" stroke="black" stroke-width="2" points="152.854,-223.427 148.986,-233.291 158.16,-227.993 152.854,-223.427"/>
</g>
<!-- 6&#45;&gt;4 -->
<g id="edge15" class="edge"><title>6&#45;&gt;4</title>
<path fill="none" stroke="black" stroke-width="2" d="M225.366,-131.387C228.434,-121.346 232.197,-109.031 235.593,-97.9147"/>
<polygon fill="black" stroke="black" stroke-width="2" points="239.004,-98.729 238.578,-88.1427 232.309,-96.6836 239.004,-98.729"/>
</g>
<!-- 7&#45;&gt;2 -->
<g id="edge12" class="edge"><title>7&#45;&gt;2</title>
<path fill="none" stroke="black" stroke-width="2" d="M126.604,-115.09C135.366,-97.1429 148.567,-70.1041 158.555,-49.6473"/>
<polygon fill="black" stroke="black" stroke-width="2" points="161.786,-51.0073 163.028,-40.4855 155.495,-47.9362 161.786,-51.0073"/>
</g>
<!-- 7&#45;&gt;3 -->
<g id="edge14" class="edge"><title>7&#45;&gt;3</title>
<path fill="none" stroke="black" stroke-width="2" d="M120.513,-155.395C123.242,-173.011 127.169,-198.361 130.258,-218.306"/>
<polygon fill="black" stroke="black" stroke-width="2" points="126.841,-219.113 131.831,-228.459 133.759,-218.041 126.841,-219.113"/>
</g>
<!-- 7&#45;&gt;4 -->
<g id="edge16" class="edge"><title>7&#45;&gt;4</title>
<path fill="none" stroke="black" stroke-width="2" d="M136.066,-124.445C157.361,-113.334 192.259,-95.1252 216.767,-82.337"/>
<polygon fill="black" stroke="black" stroke-width="2" points="218.676,-85.2891 225.922,-77.5601 215.437,-79.0832 218.676,-85.2891"/>
</g>
<!-- 7&#45;&gt;5 -->
<g id="edge17" class="edge"><title>7&#45;&gt;5</title>
<path fill="none" stroke="black" stroke-width="2" d="M100.035,-121.061C86.7412,-110.857 68.1465,-96.5837 53.1801,-85.0954"/>
<polygon fill="black" stroke="black" stroke-width="2" points="54.9185,-82.0176 44.8549,-78.705 50.6562,-87.5704 54.9185,-82.0176"/>
</g>
</g>
</svg>

