<?xml version="1.0" encoding="UTF-8" standalone="no"?>
<!DOCTYPE svg PUBLIC "-//W3C//DTD SVG 1.1//EN"
 "http://www.w3.org/Graphics/SVG/1.1/DTD/svg11.dtd">
<!-- Generated by graphviz version 2.36.0 (20140111.2315)
 -->
<!-- Title: G Pages: 1 -->
<svg width="100%" height="100%"
 viewBox="0.00 0.00 307.43 292.52" xmlns="http://www.w3.org/2000/svg" xmlns:xlink="http://www.w3.org/1999/xlink">
<g id="graph0" class="graph" transform="scale(1 1) rotate(0) translate(4 288.518)">
<title>G</title>
<!-- 0 -->
<g id="node1" class="node"><title>0</title>
<ellipse fill="cadetblue" stroke="black" cx="109.073" cy="-30.4498" rx="21.4286" ry="21.4286"/>
<text text-anchor="middle" x="109.073" y="-25.4498" font-family="Times New Roman,serif" font-size="20.00">2</text>
</g>
<!-- 5 -->
<g id="node6" class="node"><title>5</title>
<ellipse fill="cadetblue" stroke="black" cx="21.2132" cy="-181.891" rx="21.4286" ry="21.4286"/>
<text text-anchor="middle" x="21.2132" y="-176.891" font-family="Times New Roman,serif" font-size="20.00">2</text>
</g>
<!-- 0&#45;&gt;5 -->
<g id="edge3" class="edge"><title>0&#45;&gt;5</title>
<path fill="none" stroke="black" stroke-width="2" d="M103.313,-51.2303C100.64,-60.4016 97.2919,-71.2684 93.8379,-80.92 90.823,-89.3445 90.6348,-91.7915 86.1061,-99.5086 73.6293,-120.77 56.1976,-142.586 42.5425,-158.423"/>
<polygon fill="black" stroke="black" stroke-width="2" points="39.7513,-156.297 35.7923,-166.125 45.0157,-160.911 39.7513,-156.297"/>
</g>
<!-- 6 -->
<g id="node7" class="node"><title>6</title>
<ellipse fill="cadetblue" stroke="black" cx="137.431" cy="-174.848" rx="21.4286" ry="21.4286"/>
<text text-anchor="middle" x="137.431" y="-169.848" font-family="Times New Roman,serif" font-size="20.00">2</text>
</g>
<!-- 0&#45;&gt;6 -->
<g id="edge4" class="edge"><title>0&#45;&gt;6</title>
<path fill="none" stroke="black" stroke-width="2" d="M113.196,-51.4466C117.964,-75.7223 125.856,-115.909 131.333,-143.798"/>
<polygon fill="black" stroke="black" stroke-width="2" points="127.941,-144.688 133.303,-153.826 134.81,-143.339 127.941,-144.688"/>
</g>
<!-- 7 -->
<g id="node8" class="node"><title>7</title>
<ellipse fill="cadetblue" stroke="black" cx="202.811" cy="-114.905" rx="21.4286" ry="21.4286"/>
<text text-anchor="middle" x="202.811" y="-109.905" font-family="Times New Roman,serif" font-size="20.00">2</text>
</g>
<!-- 0&#45;&gt;7 -->
<g id="edge5" class="edge"><title>0&#45;&gt;7</title>
<path fill="none" stroke="black" stroke-width="2" d="M124.974,-44.7765C139.787,-58.1229 162.071,-78.1997 179.005,-93.4564"/>
<polygon fill="black" stroke="black" stroke-width="2" points="177.06,-96.4149 186.832,-100.508 181.745,-91.2143 177.06,-96.4149"/>
</g>
<!-- 1 -->
<g id="node2" class="node"><title>1</title>
<ellipse fill="cadetblue" stroke="black" cx="278.22" cy="-177.926" rx="21.4286" ry="21.4286"/>
<text text-anchor="middle" x="278.22" y="-172.926" font-family="Times New Roman,serif" font-size="20.00">2</text>
</g>
<!-- 1&#45;&gt;6 -->
<g id="edge8" class="edge"><title>1&#45;&gt;6</title>
<path fill="none" stroke="black" stroke-width="2" d="M256.837,-177.459C233.476,-176.948 195.819,-176.125 169.044,-175.54"/>
<polygon fill="black" stroke="black" stroke-width="2" points="169.089,-172.04 159.015,-175.32 168.936,-179.038 169.089,-172.04"/>
</g>
<!-- 1&#45;&gt;7 -->
<g id="edge9" class="edge"><title>1&#45;&gt;7</title>
<path fill="none" stroke="black" stroke-width="2" d="M261.857,-164.252C251.679,-155.745 238.407,-144.654 227.025,-135.141"/>
<polygon fill="black" stroke="black" stroke-width="2" points="229.06,-132.28 219.142,-128.553 224.571,-137.651 229.06,-132.28"/>
</g>
<!-- 2 -->
<g id="node3" class="node"><title>2</title>
<ellipse fill="brown" stroke="black" cx="67.5335" cy="-80.8812" rx="21.4286" ry="21.4286"/>
<text text-anchor="middle" x="67.5335" y="-75.8812" font-family="Times New Roman,serif" font-size="20.00">3</text>
</g>
<!-- 2&#45;&gt;0 -->
<g id="edge1" class="edge"><title>2&#45;&gt;0</title>
<path fill="none" stroke="black" stroke-width="2" d="M81.135,-64.3681C83.6712,-61.289 86.3699,-58.0125 89.052,-54.7563"/>
<polygon fill="black" stroke="black" stroke-width="2" points="91.9263,-56.7718 95.5825,-46.8278 86.5231,-52.3213 91.9263,-56.7718"/>
</g>
<!-- 4 -->
<g id="node5" class="node"><title>4</title>
<ellipse fill="cadetblue" stroke="black" cx="226.54" cy="-21.2132" rx="21.4286" ry="21.4286"/>
<text text-anchor="middle" x="226.54" y="-16.2132" font-family="Times New Roman,serif" font-size="20.00">2</text>
</g>
<!-- 2&#45;&gt;4 -->
<g id="edge10" class="edge"><title>2&#45;&gt;4</title>
<path fill="none" stroke="black" stroke-width="2" d="M87.6718,-73.3242C115.27,-62.9677 165.044,-44.29 196.902,-32.335"/>
<polygon fill="black" stroke="black" stroke-width="2" points="198.432,-35.4991 206.565,-28.7088 195.973,-28.9454 198.432,-35.4991"/>
</g>
<!-- 3 -->
<g id="node4" class="node"><title>3</title>
<ellipse fill="cadetblue" stroke="black" cx="165.667" cy="-263.305" rx="21.4286" ry="21.4286"/>
<text text-anchor="middle" x="165.667" y="-258.305" font-family="Times New Roman,serif" font-size="20.00">2</text>
</g>
<!-- 3&#45;&gt;1 -->
<g id="edge6" class="edge"><title>3&#45;&gt;1</title>
<path fill="none" stroke="black" stroke-width="2" d="M182.761,-250.338C201.437,-236.171 231.542,-213.334 252.947,-197.097"/>
<polygon fill="black" stroke="black" stroke-width="2" points="255.113,-199.847 260.965,-191.015 250.882,-194.27 255.113,-199.847"/>
</g>
<!-- 3&#45;&gt;5 -->
<g id="edge14" class="edge"><title>3&#45;&gt;5</title>
<path fill="none" stroke="black" stroke-width="2" d="M147.078,-252.828C122.049,-238.722 77.3353,-213.521 48.4926,-197.265"/>
<polygon fill="black" stroke="black" stroke-width="2" points="50.1611,-194.188 39.7309,-192.327 46.7241,-200.286 50.1611,-194.188"/>
</g>
<!-- 4&#45;&gt;0 -->
<g id="edge2" class="edge"><title>4&#45;&gt;0</title>
<path fill="none" stroke="black" stroke-width="2" d="M205.267,-22.8859C187.251,-24.3025 161.164,-26.3538 140.7,-27.9629"/>
<polygon fill="black" stroke="black" stroke-width="2" points="140.279,-24.4851 130.584,-28.7583 140.827,-31.4636 140.279,-24.4851"/>
</g>
<!-- 4&#45;&gt;1 -->
<g id="edge7" class="edge"><title>4&#45;&gt;1</title>
<path fill="none" stroke="black" stroke-width="2" d="M233.19,-41.3798C242.095,-68.383 257.966,-116.509 268.29,-147.814"/>
<polygon fill="black" stroke="black" stroke-width="2" points="264.975,-148.938 271.431,-157.339 271.623,-146.746 264.975,-148.938"/>
</g>
<!-- 5&#45;&gt;2 -->
<g id="edge11" class="edge"><title>5&#45;&gt;2</title>
<path fill="none" stroke="black" stroke-width="2" d="M30.1442,-162.415C37.0008,-147.463 46.574,-126.587 54.3169,-109.702"/>
<polygon fill="black" stroke="black" stroke-width="2" points="57.643,-110.846 58.6299,-100.297 51.2801,-107.928 57.643,-110.846"/>
</g>
<!-- 6&#45;&gt;2 -->
<g id="edge12" class="edge"><title>6&#45;&gt;2</title>
<path fill="none" stroke="black" stroke-width="2" d="M124.611,-157.613C113.871,-143.175 98.3953,-122.37 86.267,-106.066"/>
<polygon fill="black" stroke="black" stroke-width="2" points="89.0492,-103.942 80.2726,-98.007 83.4327,-108.12 89.0492,-103.942"/>
</g>
<!-- 6&#45;&gt;3 -->
<g id="edge15" class="edge"><title>6&#45;&gt;3</title>
<path fill="none" stroke="black" stroke-width="2" d="M143.98,-195.365C147.579,-206.641 152.11,-220.836 156.099,-233.332"/>
<polygon fill="black" stroke="black" stroke-width="2" points="152.778,-234.438 159.153,-242.9 159.447,-232.31 152.778,-234.438"/>
</g>
<!-- 7&#45;&gt;2 -->
<g id="edge13" class="edge"><title>7&#45;&gt;2</title>
<path fill="none" stroke="black" stroke-width="2" d="M181.971,-109.664C159.563,-104.028 123.714,-95.0113 98.1124,-88.5722"/>
<polygon fill="black" stroke="black" stroke-width="2" points="98.7276,-85.118 88.1759,-86.073 97.0202,-91.9066 98.7276,-85.118"/>
</g>
<!-- 7&#45;&gt;3 -->
<g id="edge16" class="edge"><title>7&#45;&gt;3</title>
<path fill="none" stroke="black" stroke-width="2" d="M197.647,-135.54C191.362,-160.649 180.691,-203.282 173.418,-232.336"/>
<polygon fill="black" stroke="black" stroke-width="2" points="169.94,-231.817 170.907,-242.368 176.731,-233.517 169.94,-231.817"/>
</g>
<!-- 7&#45;&gt;4 -->
<g id="edge17" class="edge"><title>7&#45;&gt;4</title>
<path fill="none" stroke="black" stroke-width="2" d="M208.077,-94.112C211.211,-81.7394 215.245,-65.8117 218.742,-52.002"/>
<polygon fill="black" stroke="black" stroke-width="2" points="222.226,-52.5016 221.288,-41.9484 215.44,-50.783 222.226,-52.5016"/>
</g>
</g>
</svg>

