<?xml version="1.0" encoding="UTF-8" standalone="no"?>
<!DOCTYPE svg PUBLIC "-//W3C//DTD SVG 1.1//EN"
 "http://www.w3.org/Graphics/SVG/1.1/DTD/svg11.dtd">
<!-- Generated by graphviz version 2.36.0 (20140111.2315)
 -->
<!-- Title: G Pages: 1 -->
<svg width="100%" height="100%"
 viewBox="0.00 0.00 228.74 283.32" xmlns="http://www.w3.org/2000/svg" xmlns:xlink="http://www.w3.org/1999/xlink">
<g id="graph0" class="graph" transform="scale(1 1) rotate(0) translate(4 279.323)">
<title>G</title>
<!-- 0 -->
<g id="node1" class="node"><title>0</title>
<ellipse fill="cadetblue" stroke="black" cx="127.313" cy="-93.9135" rx="21.4286" ry="21.4286"/>
<text text-anchor="middle" x="127.313" y="-88.9135" font-family="Times New Roman,serif" font-size="20.00">2</text>
</g>
<!-- 2 -->
<g id="node3" class="node"><title>2</title>
<ellipse fill="cadetblue" stroke="black" cx="125.892" cy="-21.2132" rx="21.4286" ry="21.4286"/>
<text text-anchor="middle" x="125.892" y="-16.2132" font-family="Times New Roman,serif" font-size="20.00">2</text>
</g>
<!-- 0&#45;&gt;2 -->
<g id="edge1" class="edge"><title>0&#45;&gt;2</title>
<path fill="none" stroke="black" stroke-width="2" d="M126.894,-72.4942C126.774,-66.3372 126.64,-59.4885 126.51,-52.8528"/>
<polygon fill="black" stroke="black" stroke-width="2" points="130.008,-52.6603 126.313,-42.7306 123.009,-52.7971 130.008,-52.6603"/>
</g>
<!-- 4 -->
<g id="node5" class="node"><title>4</title>
<ellipse fill="cadetblue" stroke="black" cx="199.524" cy="-97.7793" rx="21.4286" ry="21.4286"/>
<text text-anchor="middle" x="199.524" y="-92.7793" font-family="Times New Roman,serif" font-size="20.00">2</text>
</g>
<!-- 0&#45;&gt;4 -->
<g id="edge2" class="edge"><title>0&#45;&gt;4</title>
<path fill="none" stroke="black" stroke-width="2" d="M148.588,-95.0525C154.704,-95.3799 161.506,-95.744 168.097,-96.0969"/>
<polygon fill="black" stroke="black" stroke-width="2" points="167.978,-99.5954 178.151,-96.6351 168.353,-92.6054 167.978,-99.5954"/>
</g>
<!-- 7 -->
<g id="node8" class="node"><title>7</title>
<ellipse fill="cadetblue" stroke="black" cx="130.184" cy="-171.816" rx="21.4286" ry="21.4286"/>
<text text-anchor="middle" x="130.184" y="-166.816" font-family="Times New Roman,serif" font-size="20.00">2</text>
</g>
<!-- 0&#45;&gt;7 -->
<g id="edge5" class="edge"><title>0&#45;&gt;7</title>
<path fill="none" stroke="black" stroke-width="2" d="M128.097,-115.201C128.385,-123.016 128.718,-132.034 129.031,-140.543"/>
<polygon fill="black" stroke="black" stroke-width="2" points="125.534,-140.69 129.4,-150.555 132.529,-140.433 125.534,-140.69"/>
</g>
<!-- 1 -->
<g id="node2" class="node"><title>1</title>
<ellipse fill="cadetblue" stroke="black" cx="21.2132" cy="-189.395" rx="21.4286" ry="21.4286"/>
<text text-anchor="middle" x="21.2132" y="-184.395" font-family="Times New Roman,serif" font-size="20.00">2</text>
</g>
<!-- 5 -->
<g id="node6" class="node"><title>5</title>
<ellipse fill="brown" stroke="black" cx="71.6447" cy="-169.102" rx="21.4286" ry="21.4286"/>
<text text-anchor="middle" x="71.6447" y="-164.102" font-family="Times New Roman,serif" font-size="20.00">3</text>
</g>
<!-- 1&#45;&gt;5 -->
<g id="edge7" class="edge"><title>1&#45;&gt;5</title>
<path fill="none" stroke="black" stroke-width="2" d="M41.145,-181.375C41.5856,-181.197 42.0283,-181.019 42.4728,-180.84"/>
<polygon fill="black" stroke="black" stroke-width="2" points="43.887,-184.044 51.8576,-177.064 41.2739,-177.55 43.887,-184.044"/>
</g>
<!-- 6 -->
<g id="node7" class="node"><title>6</title>
<ellipse fill="cadetblue" stroke="black" cx="51.8923" cy="-95.0339" rx="21.4286" ry="21.4286"/>
<text text-anchor="middle" x="51.8923" y="-90.0339" font-family="Times New Roman,serif" font-size="20.00">2</text>
</g>
<!-- 1&#45;&gt;6 -->
<g id="edge8" class="edge"><title>1&#45;&gt;6</title>
<path fill="none" stroke="black" stroke-width="2" d="M27.8701,-168.92C32.011,-156.184 37.4105,-139.576 42.0413,-125.333"/>
<polygon fill="black" stroke="black" stroke-width="2" points="45.4849,-126.061 45.2484,-115.469 38.8279,-123.897 45.4849,-126.061"/>
</g>
<!-- 2&#45;&gt;4 -->
<g id="edge10" class="edge"><title>2&#45;&gt;4</title>
<path fill="none" stroke="black" stroke-width="2" d="M140.793,-36.7075C151.372,-47.7082 165.747,-62.656 177.627,-75.0098"/>
<polygon fill="black" stroke="black" stroke-width="2" points="175.191,-77.5262 184.646,-82.308 180.237,-72.6741 175.191,-77.5262"/>
</g>
<!-- 3 -->
<g id="node4" class="node"><title>3</title>
<ellipse fill="cadetblue" stroke="black" cx="88.7184" cy="-254.11" rx="21.4286" ry="21.4286"/>
<text text-anchor="middle" x="88.7184" y="-249.11" font-family="Times New Roman,serif" font-size="20.00">2</text>
</g>
<!-- 3&#45;&gt;1 -->
<g id="edge6" class="edge"><title>3&#45;&gt;1</title>
<path fill="none" stroke="black" stroke-width="2" d="M73.4004,-239.425C64.8059,-231.186 53.9111,-220.742 44.3016,-211.529"/>
<polygon fill="black" stroke="black" stroke-width="2" points="46.5798,-208.865 36.939,-204.471 41.7356,-213.918 46.5798,-208.865"/>
</g>
<!-- 4&#45;&gt;7 -->
<g id="edge14" class="edge"><title>4&#45;&gt;7</title>
<path fill="none" stroke="black" stroke-width="2" d="M184.819,-113.481C175.258,-123.689 162.624,-137.179 151.914,-148.614"/>
<polygon fill="black" stroke="black" stroke-width="2" points="149.149,-146.446 144.868,-156.138 154.258,-151.231 149.149,-146.446"/>
</g>
<!-- 5&#45;&gt;0 -->
<g id="edge3" class="edge"><title>5&#45;&gt;0</title>
<path fill="none" stroke="black" stroke-width="2" d="M84.2766,-152.04C91.4147,-142.399 100.477,-130.159 108.443,-119.401"/>
<polygon fill="black" stroke="black" stroke-width="2" points="111.401,-121.287 114.538,-111.168 105.775,-117.122 111.401,-121.287"/>
</g>
<!-- 5&#45;&gt;3 -->
<g id="edge12" class="edge"><title>5&#45;&gt;3</title>
<path fill="none" stroke="black" stroke-width="2" d="M75.8651,-190.115C77.8557,-200.026 80.2712,-212.053 82.4685,-222.993"/>
<polygon fill="black" stroke="black" stroke-width="2" points="79.0866,-223.929 84.4873,-233.044 85.9496,-222.551 79.0866,-223.929"/>
</g>
<!-- 6&#45;&gt;0 -->
<g id="edge4" class="edge"><title>6&#45;&gt;0</title>
<path fill="none" stroke="black" stroke-width="2" d="M73.303,-94.7158C80.3091,-94.6118 88.2447,-94.4939 95.834,-94.3811"/>
<polygon fill="black" stroke="black" stroke-width="2" points="95.9016,-97.8806 105.848,-94.2324 95.7976,-90.8814 95.9016,-97.8806"/>
</g>
<!-- 6&#45;&gt;2 -->
<g id="edge11" class="edge"><title>6&#45;&gt;2</title>
<path fill="none" stroke="black" stroke-width="2" d="M67.2252,-79.7382C77.7128,-69.276 91.7864,-55.2365 103.52,-43.5309"/>
<polygon fill="black" stroke="black" stroke-width="2" points="106.225,-45.7771 110.832,-36.2367 101.281,-40.8214 106.225,-45.7771"/>
</g>
<!-- 6&#45;&gt;5 -->
<g id="edge15" class="edge"><title>6&#45;&gt;5</title>
<path fill="none" stroke="black" stroke-width="2" d="M57.3944,-115.666C59.2993,-122.809 61.4763,-130.972 63.5456,-138.732"/>
<polygon fill="black" stroke="black" stroke-width="2" points="60.2134,-139.82 66.172,-148.58 66.977,-138.016 60.2134,-139.82"/>
</g>
<!-- 7&#45;&gt;1 -->
<g id="edge9" class="edge"><title>7&#45;&gt;1</title>
<path fill="none" stroke="black" stroke-width="2" d="M111.563,-182.1C100.348,-187.571 85.5638,-193.546 71.5274,-195.406 65.3818,-196.22 58.8072,-196.131 52.5053,-195.573"/>
<polygon fill="black" stroke="black" stroke-width="2" points="52.6435,-192.063 42.2813,-194.271 51.7586,-199.007 52.6435,-192.063"/>
</g>
<!-- 7&#45;&gt;3 -->
<g id="edge13" class="edge"><title>7&#45;&gt;3</title>
<path fill="none" stroke="black" stroke-width="2" d="M120.566,-190.903C115.333,-201.29 108.758,-214.339 102.943,-225.879"/>
<polygon fill="black" stroke="black" stroke-width="2" points="99.6576,-224.622 98.2834,-235.127 105.909,-227.772 99.6576,-224.622"/>
</g>
<!-- 7&#45;&gt;5 -->
<g id="edge16" class="edge"><title>7&#45;&gt;5</title>
<path fill="none" stroke="black" stroke-width="2" d="M108.718,-170.821C106.968,-170.74 105.178,-170.657 103.376,-170.573"/>
<polygon fill="black" stroke="black" stroke-width="2" points="103.259,-167.064 93.1074,-170.097 102.935,-174.057 103.259,-167.064"/>
</g>
<!-- 7&#45;&gt;6 -->
<g id="edge17" class="edge"><title>7&#45;&gt;6</title>
<path fill="none" stroke="black" stroke-width="2" d="M114.716,-156.647C103.168,-145.321 87.2156,-129.676 74.2761,-116.986"/>
<polygon fill="black" stroke="black" stroke-width="2" points="76.6519,-114.414 67.0616,-109.911 71.7505,-119.412 76.6519,-114.414"/>
</g>
</g>
</svg>

