<?xml version="1.0" encoding="UTF-8" standalone="no"?>
<!DOCTYPE svg PUBLIC "-//W3C//DTD SVG 1.1//EN"
 "http://www.w3.org/Graphics/SVG/1.1/DTD/svg11.dtd">
<!-- Generated by graphviz version 2.36.0 (20140111.2315)
 -->
<!-- Title: G Pages: 1 -->
<svg width="100%" height="100%"
 viewBox="0.00 0.00 272.14 320.94" xmlns="http://www.w3.org/2000/svg" xmlns:xlink="http://www.w3.org/1999/xlink">
<g id="graph0" class="graph" transform="scale(1 1) rotate(0) translate(4 316.94)">
<title>G</title>
<!-- 0 -->
<g id="node1" class="node"><title>0</title>
<ellipse fill="cadetblue" stroke="black" cx="116.678" cy="-70.6763" rx="21.4286" ry="21.4286"/>
<text text-anchor="middle" x="116.678" y="-65.6763" font-family="Times New Roman,serif" font-size="20.00">2</text>
</g>
<!-- 5 -->
<g id="node6" class="node"><title>5</title>
<ellipse fill="cadetblue" stroke="black" cx="43.2755" cy="-115.991" rx="21.4286" ry="21.4286"/>
<text text-anchor="middle" x="43.2755" y="-110.991" font-family="Times New Roman,serif" font-size="20.00">2</text>
</g>
<!-- 0&#45;&gt;5 -->
<g id="edge3" class="edge"><title>0&#45;&gt;5</title>
<path fill="none" stroke="black" stroke-width="2" d="M98.5339,-81.8777C89.976,-87.1609 79.5913,-93.5718 70.1449,-99.4035"/>
<polygon fill="black" stroke="black" stroke-width="2" points="68.1363,-96.5302 61.4657,-104.762 71.8134,-102.487 68.1363,-96.5302"/>
</g>
<!-- 6 -->
<g id="node7" class="node"><title>6</title>
<ellipse fill="brown" stroke="black" cx="181.492" cy="-158.143" rx="21.4286" ry="21.4286"/>
<text text-anchor="middle" x="181.492" y="-153.143" font-family="Times New Roman,serif" font-size="20.00">3</text>
</g>
<!-- 0&#45;&gt;6 -->
<g id="edge4" class="edge"><title>0&#45;&gt;6</title>
<path fill="none" stroke="black" stroke-width="2" d="M129.484,-87.9568C138.982,-100.775 152.079,-118.45 162.754,-132.856"/>
<polygon fill="black" stroke="black" stroke-width="2" points="159.948,-134.947 168.714,-140.898 165.572,-130.78 159.948,-134.947"/>
</g>
<!-- 7 -->
<g id="node8" class="node"><title>7</title>
<ellipse fill="cadetblue" stroke="black" cx="116.088" cy="-192.299" rx="21.4286" ry="21.4286"/>
<text text-anchor="middle" x="116.088" y="-187.299" font-family="Times New Roman,serif" font-size="20.00">2</text>
</g>
<!-- 0&#45;&gt;7 -->
<g id="edge5" class="edge"><title>0&#45;&gt;7</title>
<path fill="none" stroke="black" stroke-width="2" d="M116.574,-92.1401C116.482,-111.245 116.345,-139.431 116.24,-161.039"/>
<polygon fill="black" stroke="black" stroke-width="2" points="112.74,-161.033 116.191,-171.05 119.74,-161.067 112.74,-161.033"/>
</g>
<!-- 1 -->
<g id="node2" class="node"><title>1</title>
<ellipse fill="cadetblue" stroke="black" cx="21.2132" cy="-247.266" rx="21.4286" ry="21.4286"/>
<text text-anchor="middle" x="21.2132" y="-242.266" font-family="Times New Roman,serif" font-size="20.00">2</text>
</g>
<!-- 1&#45;&gt;7 -->
<g id="edge8" class="edge"><title>1&#45;&gt;7</title>
<path fill="none" stroke="black" stroke-width="2" d="M39.9575,-236.407C53.9518,-228.299 73.2827,-217.099 88.9631,-208.015"/>
<polygon fill="black" stroke="black" stroke-width="2" points="90.8076,-210.991 97.7058,-202.95 87.2985,-204.934 90.8076,-210.991"/>
</g>
<!-- 2 -->
<g id="node3" class="node"><title>2</title>
<ellipse fill="cadetblue" stroke="black" cx="167.11" cy="-21.2132" rx="21.4286" ry="21.4286"/>
<text text-anchor="middle" x="167.11" y="-16.2132" font-family="Times New Roman,serif" font-size="20.00">2</text>
</g>
<!-- 2&#45;&gt;0 -->
<g id="edge1" class="edge"><title>2&#45;&gt;0</title>
<path fill="none" stroke="black" stroke-width="2" d="M151.705,-36.3225C147.794,-40.1579 143.511,-44.3591 139.323,-48.4666"/>
<polygon fill="black" stroke="black" stroke-width="2" points="136.678,-46.1585 131.989,-55.6595 141.579,-51.156 136.678,-46.1585"/>
</g>
<!-- 4 -->
<g id="node5" class="node"><title>4</title>
<ellipse fill="cadetblue" stroke="black" cx="242.923" cy="-98.6389" rx="21.4286" ry="21.4286"/>
<text text-anchor="middle" x="242.923" y="-93.6389" font-family="Times New Roman,serif" font-size="20.00">2</text>
</g>
<!-- 2&#45;&gt;4 -->
<g id="edge9" class="edge"><title>2&#45;&gt;4</title>
<path fill="none" stroke="black" stroke-width="2" d="M182.088,-36.51C193.095,-47.7508 208.232,-63.2106 220.654,-75.8963"/>
<polygon fill="black" stroke="black" stroke-width="2" points="218.479,-78.6774 227.976,-83.3738 223.48,-73.78 218.479,-78.6774"/>
</g>
<!-- 3 -->
<g id="node4" class="node"><title>3</title>
<ellipse fill="cadetblue" stroke="black" cx="145.656" cy="-291.727" rx="21.4286" ry="21.4286"/>
<text text-anchor="middle" x="145.656" y="-286.727" font-family="Times New Roman,serif" font-size="20.00">2</text>
</g>
<!-- 3&#45;&gt;1 -->
<g id="edge6" class="edge"><title>3&#45;&gt;1</title>
<path fill="none" stroke="black" stroke-width="2" d="M125.662,-284.583C105.553,-277.399 74.3018,-266.234 51.2191,-257.987"/>
<polygon fill="black" stroke="black" stroke-width="2" points="52.1654,-254.608 41.5708,-254.54 49.8103,-261.2 52.1654,-254.608"/>
</g>
<!-- 4&#45;&gt;0 -->
<g id="edge2" class="edge"><title>4&#45;&gt;0</title>
<path fill="none" stroke="black" stroke-width="2" d="M222.076,-94.0214C201.792,-89.5285 170.728,-82.648 147.572,-77.519"/>
<polygon fill="black" stroke="black" stroke-width="2" points="148.076,-74.046 137.556,-75.3006 146.563,-80.8804 148.076,-74.046"/>
</g>
<!-- 5&#45;&gt;1 -->
<g id="edge7" class="edge"><title>5&#45;&gt;1</title>
<path fill="none" stroke="black" stroke-width="2" d="M39.7308,-137.083C36.1445,-158.422 30.5592,-191.656 26.46,-216.047"/>
<polygon fill="black" stroke="black" stroke-width="2" points="22.955,-215.785 24.7491,-226.227 29.8581,-216.945 22.955,-215.785"/>
</g>
<!-- 5&#45;&gt;2 -->
<g id="edge10" class="edge"><title>5&#45;&gt;2</title>
<path fill="none" stroke="black" stroke-width="2" d="M55.2594,-98.0819C65.352,-84.0864 80.8708,-64.9145 98.0954,-52.0593 109.797,-43.3259 124.363,-36.3575 137.093,-31.2694"/>
<polygon fill="black" stroke="black" stroke-width="2" points="138.702,-34.4031 146.819,-27.5942 136.228,-27.855 138.702,-34.4031"/>
</g>
<!-- 5&#45;&gt;6 -->
<g id="edge15" class="edge"><title>5&#45;&gt;6</title>
<path fill="none" stroke="black" stroke-width="2" d="M63.6699,-122.211C86.8418,-129.277 124.88,-140.878 151.448,-148.98"/>
<polygon fill="black" stroke="black" stroke-width="2" points="150.428,-152.328 161.014,-151.898 152.47,-145.633 150.428,-152.328"/>
</g>
<!-- 6&#45;&gt;2 -->
<g id="edge11" class="edge"><title>6&#45;&gt;2</title>
<path fill="none" stroke="black" stroke-width="2" d="M179.245,-136.747C176.87,-114.138 173.101,-78.2552 170.394,-52.4767"/>
<polygon fill="black" stroke="black" stroke-width="2" points="173.867,-52.0378 169.341,-42.4582 166.905,-52.7691 173.867,-52.0378"/>
</g>
<!-- 6&#45;&gt;3 -->
<g id="edge12" class="edge"><title>6&#45;&gt;3</title>
<path fill="none" stroke="black" stroke-width="2" d="M175.971,-178.722C170.07,-200.721 160.649,-235.839 153.875,-261.089"/>
<polygon fill="black" stroke="black" stroke-width="2" points="150.453,-260.338 151.242,-270.904 157.214,-262.152 150.453,-260.338"/>
</g>
<!-- 7&#45;&gt;3 -->
<g id="edge13" class="edge"><title>7&#45;&gt;3</title>
<path fill="none" stroke="black" stroke-width="2" d="M122.215,-212.901C126.377,-226.899 131.954,-245.651 136.623,-261.354"/>
<polygon fill="black" stroke="black" stroke-width="2" points="133.332,-262.564 139.537,-271.152 140.041,-260.569 133.332,-262.564"/>
</g>
<!-- 7&#45;&gt;4 -->
<g id="edge14" class="edge"><title>7&#45;&gt;4</title>
<path fill="none" stroke="black" stroke-width="2" d="M128.626,-175.103C137.349,-163.976 149.741,-149.718 162.915,-139.521 178.339,-127.581 197.785,-117.551 213.643,-110.414"/>
<polygon fill="black" stroke="black" stroke-width="2" points="215.209,-113.55 222.985,-106.353 212.419,-107.13 215.209,-113.55"/>
</g>
<!-- 7&#45;&gt;5 -->
<g id="edge16" class="edge"><title>7&#45;&gt;5</title>
<path fill="none" stroke="black" stroke-width="2" d="M101.354,-176.857C90.8921,-165.894 76.677,-150.996 64.9288,-138.684"/>
<polygon fill="black" stroke="black" stroke-width="2" points="67.424,-136.229 57.9883,-131.41 62.3596,-141.061 67.424,-136.229"/>
</g>
<!-- 7&#45;&gt;6 -->
<g id="edge17" class="edge"><title>7&#45;&gt;6</title>
<path fill="none" stroke="black" stroke-width="2" d="M135.006,-182.42C140.785,-179.402 147.268,-176.016 153.515,-172.754"/>
<polygon fill="black" stroke="black" stroke-width="2" points="155.147,-175.85 162.391,-168.118 151.907,-169.645 155.147,-175.85"/>
</g>
</g>
</svg>

