<?xml version="1.0" encoding="UTF-8" standalone="no"?>
<!DOCTYPE svg PUBLIC "-//W3C//DTD SVG 1.1//EN"
 "http://www.w3.org/Graphics/SVG/1.1/DTD/svg11.dtd">
<!-- Generated by graphviz version 2.36.0 (20140111.2315)
 -->
<!-- Title: G Pages: 1 -->
<svg width="100%" height="100%"
 viewBox="0.00 0.00 243.50 272.01" xmlns="http://www.w3.org/2000/svg" xmlns:xlink="http://www.w3.org/1999/xlink">
<g id="graph0" class="graph" transform="scale(1 1) rotate(0) translate(4 268.009)">
<title>G</title>
<!-- 0 -->
<g id="node1" class="node"><title>0</title>
<ellipse fill="cadetblue" stroke="black" cx="112.982" cy="-87.0924" rx="21.4286" ry="21.4286"/>
<text text-anchor="middle" x="112.982" y="-82.0924" font-family="Times New Roman,serif" font-size="20.00">2</text>
</g>
<!-- 5 -->
<g id="node6" class="node"><title>5</title>
<ellipse fill="cadetblue" stroke="black" cx="21.2132" cy="-123.217" rx="21.4286" ry="21.4286"/>
<text text-anchor="middle" x="21.2132" y="-118.217" font-family="Times New Roman,serif" font-size="20.00">2</text>
</g>
<!-- 0&#45;&gt;5 -->
<g id="edge3" class="edge"><title>0&#45;&gt;5</title>
<path fill="none" stroke="black" stroke-width="2" d="M93.0692,-94.9309C80.683,-99.8068 64.5318,-106.165 50.6799,-111.618"/>
<polygon fill="black" stroke="black" stroke-width="2" points="49.1097,-108.474 41.0867,-115.394 51.6738,-114.988 49.1097,-108.474"/>
</g>
<!-- 6 -->
<g id="node7" class="node"><title>6</title>
<ellipse fill="brown" stroke="black" cx="168.494" cy="-180.677" rx="21.4286" ry="21.4286"/>
<text text-anchor="middle" x="168.494" y="-175.677" font-family="Times New Roman,serif" font-size="20.00">3</text>
</g>
<!-- 0&#45;&gt;6 -->
<g id="edge4" class="edge"><title>0&#45;&gt;6</title>
<path fill="none" stroke="black" stroke-width="2" d="M123.949,-105.582C132.084,-119.297 143.302,-138.208 152.445,-153.621"/>
<polygon fill="black" stroke="black" stroke-width="2" points="149.437,-155.411 157.549,-162.226 155.457,-151.84 149.437,-155.411"/>
</g>
<!-- 7 -->
<g id="node8" class="node"><title>7</title>
<ellipse fill="cadetblue" stroke="black" cx="87.6139" cy="-164.982" rx="21.4286" ry="21.4286"/>
<text text-anchor="middle" x="87.6139" y="-159.982" font-family="Times New Roman,serif" font-size="20.00">2</text>
</g>
<!-- 0&#45;&gt;7 -->
<g id="edge5" class="edge"><title>0&#45;&gt;7</title>
<path fill="none" stroke="black" stroke-width="2" d="M106.317,-107.557C103.578,-115.965 100.353,-125.868 97.3587,-135.061"/>
<polygon fill="black" stroke="black" stroke-width="2" points="94.0034,-134.062 94.2345,-144.654 100.659,-136.23 94.0034,-134.062"/>
</g>
<!-- 1 -->
<g id="node2" class="node"><title>1</title>
<ellipse fill="cadetblue" stroke="black" cx="214.291" cy="-231.109" rx="21.4286" ry="21.4286"/>
<text text-anchor="middle" x="214.291" y="-226.109" font-family="Times New Roman,serif" font-size="20.00">2</text>
</g>
<!-- 1&#45;&gt;6 -->
<g id="edge8" class="edge"><title>1&#45;&gt;6</title>
<path fill="none" stroke="black" stroke-width="2" d="M199.801,-215.152C196.626,-211.656 193.202,-207.885 189.823,-204.165"/>
<polygon fill="black" stroke="black" stroke-width="2" points="192.361,-201.753 183.047,-196.703 187.179,-206.459 192.361,-201.753"/>
</g>
<!-- 2 -->
<g id="node3" class="node"><title>2</title>
<ellipse fill="cadetblue" stroke="black" cx="95.7187" cy="-21.2132" rx="21.4286" ry="21.4286"/>
<text text-anchor="middle" x="95.7187" y="-16.2132" font-family="Times New Roman,serif" font-size="20.00">2</text>
</g>
<!-- 2&#45;&gt;0 -->
<g id="edge1" class="edge"><title>2&#45;&gt;0</title>
<path fill="none" stroke="black" stroke-width="2" d="M101.181,-42.0578C102.377,-46.6238 103.668,-51.5498 104.942,-56.41"/>
<polygon fill="black" stroke="black" stroke-width="2" points="101.575,-57.3711 107.496,-66.1573 108.347,-55.5967 101.575,-57.3711"/>
</g>
<!-- 3 -->
<g id="node4" class="node"><title>3</title>
<ellipse fill="cadetblue" stroke="black" cx="89.8684" cy="-242.795" rx="21.4286" ry="21.4286"/>
<text text-anchor="middle" x="89.8684" y="-237.795" font-family="Times New Roman,serif" font-size="20.00">2</text>
</g>
<!-- 3&#45;&gt;1 -->
<g id="edge6" class="edge"><title>3&#45;&gt;1</title>
<path fill="none" stroke="black" stroke-width="2" d="M111.257,-240.786C130.931,-238.938 160.358,-236.174 182.732,-234.073"/>
<polygon fill="black" stroke="black" stroke-width="2" points="183.136,-237.55 192.765,-233.13 182.481,-230.581 183.136,-237.55"/>
</g>
<!-- 3&#45;&gt;7 -->
<g id="edge13" class="edge"><title>3&#45;&gt;7</title>
<path fill="none" stroke="black" stroke-width="2" d="M89.2523,-221.533C89.0262,-213.727 88.7652,-204.719 88.519,-196.22"/>
<polygon fill="black" stroke="black" stroke-width="2" points="92.0175,-196.114 88.2292,-186.219 85.0204,-196.317 92.0175,-196.114"/>
</g>
<!-- 4 -->
<g id="node5" class="node"><title>4</title>
<ellipse fill="cadetblue" stroke="black" cx="193.688" cy="-103.544" rx="21.4286" ry="21.4286"/>
<text text-anchor="middle" x="193.688" y="-98.5439" font-family="Times New Roman,serif" font-size="20.00">2</text>
</g>
<!-- 4&#45;&gt;0 -->
<g id="edge2" class="edge"><title>4&#45;&gt;0</title>
<path fill="none" stroke="black" stroke-width="2" d="M172.483,-99.2214C163.772,-97.4456 153.51,-95.3539 143.984,-93.4121"/>
<polygon fill="black" stroke="black" stroke-width="2" points="144.542,-89.9539 134.045,-91.3859 143.144,-96.8129 144.542,-89.9539"/>
</g>
<!-- 4&#45;&gt;1 -->
<g id="edge7" class="edge"><title>4&#45;&gt;1</title>
<path fill="none" stroke="black" stroke-width="2" d="M197.09,-124.609C200.401,-145.105 205.47,-176.494 209.249,-199.892"/>
<polygon fill="black" stroke="black" stroke-width="2" points="205.834,-200.699 210.884,-210.013 212.745,-199.582 205.834,-200.699"/>
</g>
<!-- 4&#45;&gt;2 -->
<g id="edge9" class="edge"><title>4&#45;&gt;2</title>
<path fill="none" stroke="black" stroke-width="2" d="M177.069,-89.5776C161.351,-76.3692 137.587,-56.3985 119.796,-41.4472"/>
<polygon fill="black" stroke="black" stroke-width="2" points="122,-38.7274 112.092,-34.9732 117.496,-44.0863 122,-38.7274"/>
</g>
<!-- 5&#45;&gt;2 -->
<g id="edge10" class="edge"><title>5&#45;&gt;2</title>
<path fill="none" stroke="black" stroke-width="2" d="M33.8521,-105.914C45.6796,-89.7208 63.4987,-65.325 76.9801,-46.8679"/>
<polygon fill="black" stroke="black" stroke-width="2" points="79.9459,-48.7414 83.0179,-38.6017 74.2932,-44.6125 79.9459,-48.7414"/>
</g>
<!-- 5&#45;&gt;3 -->
<g id="edge11" class="edge"><title>5&#45;&gt;3</title>
<path fill="none" stroke="black" stroke-width="2" d="M31.7901,-141.639C43.0963,-161.332 61.1448,-192.767 74.1221,-215.37"/>
<polygon fill="black" stroke="black" stroke-width="2" points="71.1519,-217.226 79.1664,-224.155 77.2225,-213.74 71.1519,-217.226"/>
</g>
<!-- 6&#45;&gt;3 -->
<g id="edge12" class="edge"><title>6&#45;&gt;3</title>
<path fill="none" stroke="black" stroke-width="2" d="M151.819,-193.851C140.978,-202.416 126.653,-213.734 114.508,-223.329"/>
<polygon fill="black" stroke="black" stroke-width="2" points="112.196,-220.695 106.519,-229.641 116.535,-226.188 112.196,-220.695"/>
</g>
<!-- 6&#45;&gt;4 -->
<g id="edge14" class="edge"><title>6&#45;&gt;4</title>
<path fill="none" stroke="black" stroke-width="2" d="M175.113,-160.411C177.782,-152.239 180.918,-142.639 183.845,-133.678"/>
<polygon fill="black" stroke="black" stroke-width="2" points="187.247,-134.535 187.025,-123.942 180.593,-132.361 187.247,-134.535"/>
</g>
<!-- 7&#45;&gt;4 -->
<g id="edge15" class="edge"><title>7&#45;&gt;4</title>
<path fill="none" stroke="black" stroke-width="2" d="M106.091,-154.28C122.72,-144.649 147.378,-130.367 166.299,-119.407"/>
<polygon fill="black" stroke="black" stroke-width="2" points="168.168,-122.37 175.067,-114.329 164.659,-116.313 168.168,-122.37"/>
</g>
<!-- 7&#45;&gt;5 -->
<g id="edge16" class="edge"><title>7&#45;&gt;5</title>
<path fill="none" stroke="black" stroke-width="2" d="M69.4696,-153.57C62.8819,-149.426 55.2908,-144.651 48.1084,-140.134"/>
<polygon fill="black" stroke="black" stroke-width="2" points="49.6638,-136.977 39.3355,-134.616 45.9369,-142.903 49.6638,-136.977"/>
</g>
<!-- 7&#45;&gt;6 -->
<g id="edge17" class="edge"><title>7&#45;&gt;6</title>
<path fill="none" stroke="black" stroke-width="2" d="M108.442,-169.024C117.242,-170.732 127.676,-172.756 137.357,-174.635"/>
<polygon fill="black" stroke="black" stroke-width="2" points="136.971,-178.125 147.455,-176.594 138.304,-171.253 136.971,-178.125"/>
</g>
</g>
</svg>

