<?xml version="1.0" encoding="UTF-8" standalone="no"?>
<!DOCTYPE svg PUBLIC "-//W3C//DTD SVG 1.1//EN"
 "http://www.w3.org/Graphics/SVG/1.1/DTD/svg11.dtd">
<!-- Generated by graphviz version 2.36.0 (20140111.2315)
 -->
<!-- Title: G Pages: 1 -->
<svg width="100%" height="100%"
 viewBox="0.00 0.00 213.44 307.88" xmlns="http://www.w3.org/2000/svg" xmlns:xlink="http://www.w3.org/1999/xlink">
<g id="graph0" class="graph" transform="scale(1 1) rotate(0) translate(4 303.881)">
<title>G</title>
<!-- 0 -->
<g id="node1" class="node"><title>0</title>
<ellipse fill="cadetblue" stroke="black" cx="133.8" cy="-197.49" rx="21.4286" ry="21.4286"/>
<text text-anchor="middle" x="133.8" y="-192.49" font-family="Times New Roman,serif" font-size="20.00">2</text>
</g>
<!-- 5 -->
<g id="node6" class="node"><title>5</title>
<ellipse fill="cadetblue" stroke="black" cx="61.3381" cy="-208.513" rx="21.4286" ry="21.4286"/>
<text text-anchor="middle" x="61.3381" y="-203.513" font-family="Times New Roman,serif" font-size="20.00">2</text>
</g>
<!-- 0&#45;&gt;5 -->
<g id="edge3" class="edge"><title>0&#45;&gt;5</title>
<path fill="none" stroke="black" stroke-width="2" d="M112.451,-200.737C106.314,-201.671 99.4878,-202.709 92.8739,-203.715"/>
<polygon fill="black" stroke="black" stroke-width="2" points="92.1448,-200.286 82.7849,-205.25 93.1976,-207.206 92.1448,-200.286"/>
</g>
<!-- 6 -->
<g id="node7" class="node"><title>6</title>
<ellipse fill="cadetblue" stroke="black" cx="147.227" cy="-83.1139" rx="21.4286" ry="21.4286"/>
<text text-anchor="middle" x="147.227" y="-78.1139" font-family="Times New Roman,serif" font-size="20.00">2</text>
</g>
<!-- 0&#45;&gt;6 -->
<g id="edge4" class="edge"><title>0&#45;&gt;6</title>
<path fill="none" stroke="black" stroke-width="2" d="M136.294,-176.245C138.338,-158.831 141.26,-133.939 143.569,-114.27"/>
<polygon fill="black" stroke="black" stroke-width="2" points="147.056,-114.585 144.746,-104.245 140.104,-113.769 147.056,-114.585"/>
</g>
<!-- 7 -->
<g id="node8" class="node"><title>7</title>
<ellipse fill="cadetblue" stroke="black" cx="95.6921" cy="-123.232" rx="21.4286" ry="21.4286"/>
<text text-anchor="middle" x="95.6921" y="-118.232" font-family="Times New Roman,serif" font-size="20.00">2</text>
</g>
<!-- 0&#45;&gt;7 -->
<g id="edge5" class="edge"><title>0&#45;&gt;7</title>
<path fill="none" stroke="black" stroke-width="2" d="M123.986,-178.367C119.763,-170.138 114.742,-160.352 110.109,-151.325"/>
<polygon fill="black" stroke="black" stroke-width="2" points="113.152,-149.589 105.473,-142.29 106.924,-152.785 113.152,-149.589"/>
</g>
<!-- 1 -->
<g id="node2" class="node"><title>1</title>
<ellipse fill="cadetblue" stroke="black" cx="21.2132" cy="-101.263" rx="21.4286" ry="21.4286"/>
<text text-anchor="middle" x="21.2132" y="-96.2634" font-family="Times New Roman,serif" font-size="20.00">2</text>
</g>
<!-- 1&#45;&gt;6 -->
<g id="edge8" class="edge"><title>1&#45;&gt;6</title>
<path fill="none" stroke="black" stroke-width="2" d="M42.3051,-98.2256C62.4771,-95.3202 93.1394,-90.904 116.116,-87.5948"/>
<polygon fill="black" stroke="black" stroke-width="2" points="116.667,-91.0515 126.066,-86.1616 115.67,-84.123 116.667,-91.0515"/>
</g>
<!-- 2 -->
<g id="node3" class="node"><title>2</title>
<ellipse fill="brown" stroke="black" cx="184.231" cy="-176.245" rx="21.4286" ry="21.4286"/>
<text text-anchor="middle" x="184.231" y="-171.245" font-family="Times New Roman,serif" font-size="20.00">3</text>
</g>
<!-- 2&#45;&gt;0 -->
<g id="edge1" class="edge"><title>2&#45;&gt;0</title>
<path fill="none" stroke="black" stroke-width="2" d="M164.589,-184.519C164.018,-184.76 163.444,-185.002 162.867,-185.245"/>
<polygon fill="black" stroke="black" stroke-width="2" points="161.329,-182.095 153.472,-189.203 164.046,-188.546 161.329,-182.095"/>
</g>
<!-- 4 -->
<g id="node5" class="node"><title>4</title>
<ellipse fill="cadetblue" stroke="black" cx="141.549" cy="-278.667" rx="21.4286" ry="21.4286"/>
<text text-anchor="middle" x="141.549" y="-273.667" font-family="Times New Roman,serif" font-size="20.00">2</text>
</g>
<!-- 2&#45;&gt;4 -->
<g id="edge9" class="edge"><title>2&#45;&gt;4</title>
<path fill="none" stroke="black" stroke-width="2" d="M176.002,-195.993C169.684,-211.154 160.863,-232.322 153.728,-249.443"/>
<polygon fill="black" stroke="black" stroke-width="2" points="150.37,-248.403 149.754,-258.98 156.831,-251.096 150.37,-248.403"/>
</g>
<!-- 3 -->
<g id="node4" class="node"><title>3</title>
<ellipse fill="cadetblue" stroke="black" cx="74.3629" cy="-21.2132" rx="21.4286" ry="21.4286"/>
<text text-anchor="middle" x="74.3629" y="-16.2132" font-family="Times New Roman,serif" font-size="20.00">2</text>
</g>
<!-- 3&#45;&gt;1 -->
<g id="edge6" class="edge"><title>3&#45;&gt;1</title>
<path fill="none" stroke="black" stroke-width="2" d="M62.5672,-38.9789C55.5485,-49.55 46.5131,-63.1586 38.6791,-74.9576"/>
<polygon fill="black" stroke="black" stroke-width="2" points="35.5914,-73.2804 32.9759,-83.5473 41.4231,-77.1524 35.5914,-73.2804"/>
</g>
<!-- 4&#45;&gt;0 -->
<g id="edge2" class="edge"><title>4&#45;&gt;0</title>
<path fill="none" stroke="black" stroke-width="2" d="M139.513,-257.339C138.677,-248.577 137.691,-238.255 136.777,-228.674"/>
<polygon fill="black" stroke="black" stroke-width="2" points="140.257,-228.298 135.822,-218.676 133.289,-228.963 140.257,-228.298"/>
</g>
<!-- 5&#45;&gt;1 -->
<g id="edge7" class="edge"><title>5&#45;&gt;1</title>
<path fill="none" stroke="black" stroke-width="2" d="M53.885,-188.591C47.8143,-172.365 39.1533,-149.215 32.2738,-130.827"/>
<polygon fill="black" stroke="black" stroke-width="2" points="35.5448,-129.582 28.7626,-121.442 28.9886,-132.035 35.5448,-129.582"/>
</g>
<!-- 5&#45;&gt;2 -->
<g id="edge10" class="edge"><title>5&#45;&gt;2</title>
<path fill="none" stroke="black" stroke-width="2" d="M78.3741,-195.619C92.3925,-186.069 113.237,-174.21 133.824,-171.185 139.956,-170.285 146.532,-170.263 152.842,-170.705"/>
<polygon fill="black" stroke="black" stroke-width="2" points="152.768,-174.217 163.086,-171.813 153.521,-167.258 152.768,-174.217"/>
</g>
<!-- 5&#45;&gt;4 -->
<g id="edge15" class="edge"><title>5&#45;&gt;4</title>
<path fill="none" stroke="black" stroke-width="2" d="M77.5701,-222.71C89.0945,-232.789 104.754,-246.485 117.696,-257.805"/>
<polygon fill="black" stroke="black" stroke-width="2" points="115.51,-260.543 125.342,-264.492 120.119,-255.274 115.51,-260.543"/>
</g>
<!-- 6&#45;&gt;2 -->
<g id="edge11" class="edge"><title>6&#45;&gt;2</title>
<path fill="none" stroke="black" stroke-width="2" d="M155.075,-102.865C160.177,-115.706 166.919,-132.674 172.635,-147.059"/>
<polygon fill="black" stroke="black" stroke-width="2" points="169.45,-148.522 176.395,-156.523 175.955,-145.937 169.45,-148.522"/>
</g>
<!-- 6&#45;&gt;3 -->
<g id="edge13" class="edge"><title>6&#45;&gt;3</title>
<path fill="none" stroke="black" stroke-width="2" d="M131.056,-69.3761C121.501,-61.2585 109.219,-50.8247 98.5312,-41.7451"/>
<polygon fill="black" stroke="black" stroke-width="2" points="100.628,-38.9337 90.7405,-35.1266 96.0957,-44.2685 100.628,-38.9337"/>
</g>
<!-- 6&#45;&gt;7 -->
<g id="edge17" class="edge"><title>6&#45;&gt;7</title>
<path fill="none" stroke="black" stroke-width="2" d="M130.353,-96.2499C127.27,-98.6493 123.995,-101.199 120.734,-103.737"/>
<polygon fill="black" stroke="black" stroke-width="2" points="118.522,-101.024 112.781,-109.929 122.822,-106.548 118.522,-101.024"/>
</g>
<!-- 7&#45;&gt;2 -->
<g id="edge12" class="edge"><title>7&#45;&gt;2</title>
<path fill="none" stroke="black" stroke-width="2" d="M114.037,-134.216C126.503,-141.679 143.201,-151.678 157.185,-160.05"/>
<polygon fill="black" stroke="black" stroke-width="2" points="155.532,-163.14 165.909,-165.274 159.128,-157.134 155.532,-163.14"/>
</g>
<!-- 7&#45;&gt;3 -->
<g id="edge14" class="edge"><title>7&#45;&gt;3</title>
<path fill="none" stroke="black" stroke-width="2" d="M91.2727,-102.093C88.2698,-87.7306 84.247,-68.4894 80.8785,-52.3775"/>
<polygon fill="black" stroke="black" stroke-width="2" points="84.2491,-51.3965 78.7766,-42.3244 77.3972,-52.8291 84.2491,-51.3965"/>
</g>
<!-- 7&#45;&gt;5 -->
<g id="edge16" class="edge"><title>7&#45;&gt;5</title>
<path fill="none" stroke="black" stroke-width="2" d="M87.7242,-143.011C83.4193,-153.698 78.0187,-167.104 73.2266,-179.001"/>
<polygon fill="black" stroke="black" stroke-width="2" points="69.8719,-177.962 69.3818,-188.545 76.3648,-180.577 69.8719,-177.962"/>
</g>
</g>
</svg>

