<?xml version="1.0" encoding="UTF-8" standalone="no"?>
<!DOCTYPE svg PUBLIC "-//W3C//DTD SVG 1.1//EN"
 "http://www.w3.org/Graphics/SVG/1.1/DTD/svg11.dtd">
<!-- Generated by graphviz version 2.36.0 (20140111.2315)
 -->
<!-- Title: G Pages: 1 -->
<svg width="100%" height="100%"
 viewBox="0.00 0.00 235.14 251.26" xmlns="http://www.w3.org/2000/svg" xmlns:xlink="http://www.w3.org/1999/xlink">
<g id="graph0" class="graph" transform="scale(1 1) rotate(0) translate(4 247.258)">
<title>G</title>
<!-- 0 -->
<g id="node1" class="node"><title>0</title>
<ellipse fill="brown" stroke="black" cx="82.6241" cy="-36.3861" rx="21.4286" ry="21.4286"/>
<text text-anchor="middle" x="82.6241" y="-31.3861" font-family="Times New Roman,serif" font-size="20.00">3</text>
</g>
<!-- 4 -->
<g id="node5" class="node"><title>4</title>
<ellipse fill="cadetblue" stroke="black" cx="205.929" cy="-39.7432" rx="21.4286" ry="21.4286"/>
<text text-anchor="middle" x="205.929" y="-34.7432" font-family="Times New Roman,serif" font-size="20.00">2</text>
</g>
<!-- 0&#45;&gt;4 -->
<g id="edge2" class="edge"><title>0&#45;&gt;4</title>
<path fill="none" stroke="black" stroke-width="2" d="M103.01,-42.4607C112.1,-44.7597 122.998,-46.96 133.017,-47.5175 146.72,-48.2801 161.813,-47.0215 174.695,-45.3089"/>
<polygon fill="black" stroke="black" stroke-width="2" points="175.536,-48.7227 184.916,-43.7979 174.512,-41.798 175.536,-48.7227"/>
</g>
<!-- 5 -->
<g id="node6" class="node"><title>5</title>
<ellipse fill="cadetblue" stroke="black" cx="21.2132" cy="-98.3206" rx="21.4286" ry="21.4286"/>
<text text-anchor="middle" x="21.2132" y="-93.3206" font-family="Times New Roman,serif" font-size="20.00">2</text>
</g>
<!-- 0&#45;&gt;5 -->
<g id="edge3" class="edge"><title>0&#45;&gt;5</title>
<path fill="none" stroke="black" stroke-width="2" d="M67.4439,-51.6958C60.1559,-59.0459 51.2844,-67.993 43.2691,-76.0767"/>
<polygon fill="black" stroke="black" stroke-width="2" points="40.7745,-73.6217 36.2188,-83.1871 45.7452,-78.5504 40.7745,-73.6217"/>
</g>
<!-- 1 -->
<g id="node2" class="node"><title>1</title>
<ellipse fill="cadetblue" stroke="black" cx="77.3076" cy="-200.38" rx="21.4286" ry="21.4286"/>
<text text-anchor="middle" x="77.3076" y="-195.38" font-family="Times New Roman,serif" font-size="20.00">2</text>
</g>
<!-- 6 -->
<g id="node7" class="node"><title>6</title>
<ellipse fill="dodgerblue" stroke="black" cx="179.296" cy="-124.111" rx="21.4286" ry="21.4286"/>
<text text-anchor="middle" x="179.296" y="-119.111" font-family="Times New Roman,serif" font-size="20.00">4</text>
</g>
<!-- 1&#45;&gt;6 -->
<g id="edge8" class="edge"><title>1&#45;&gt;6</title>
<path fill="none" stroke="black" stroke-width="2" d="M94.6085,-187.442C110.971,-175.206 135.709,-156.706 154.23,-142.855"/>
<polygon fill="black" stroke="black" stroke-width="2" points="156.338,-145.65 162.25,-136.858 152.146,-140.044 156.338,-145.65"/>
</g>
<!-- 7 -->
<g id="node8" class="node"><title>7</title>
<ellipse fill="cadetblue" stroke="black" cx="114.441" cy="-120.274" rx="21.4286" ry="21.4286"/>
<text text-anchor="middle" x="114.441" y="-115.274" font-family="Times New Roman,serif" font-size="20.00">2</text>
</g>
<!-- 1&#45;&gt;7 -->
<g id="edge9" class="edge"><title>1&#45;&gt;7</title>
<path fill="none" stroke="black" stroke-width="2" d="M86.2966,-180.988C90.7338,-171.417 96.1759,-159.677 101.088,-149.08"/>
<polygon fill="black" stroke="black" stroke-width="2" points="104.376,-150.309 105.406,-139.764 98.0253,-147.365 104.376,-150.309"/>
</g>
<!-- 2 -->
<g id="node3" class="node"><title>2</title>
<ellipse fill="cadetblue" stroke="black" cx="133.056" cy="-21.2132" rx="21.4286" ry="21.4286"/>
<text text-anchor="middle" x="133.056" y="-16.2132" font-family="Times New Roman,serif" font-size="20.00">2</text>
</g>
<!-- 2&#45;&gt;0 -->
<g id="edge1" class="edge"><title>2&#45;&gt;0</title>
<path fill="none" stroke="black" stroke-width="2" d="M112.543,-27.3846C112.444,-27.4144 112.345,-27.4441 112.246,-27.4739"/>
<polygon fill="black" stroke="black" stroke-width="2" points="111.522,-24.0367 102.955,-30.2694 113.539,-30.7398 111.522,-24.0367"/>
</g>
<!-- 2&#45;&gt;6 -->
<g id="edge12" class="edge"><title>2&#45;&gt;6</title>
<path fill="none" stroke="black" stroke-width="2" d="M141.753,-40.5675C148.684,-55.9914 158.495,-77.8226 166.349,-95.3003"/>
<polygon fill="black" stroke="black" stroke-width="2" points="163.189,-96.8071 170.48,-104.494 169.573,-93.9379 163.189,-96.8071"/>
</g>
<!-- 2&#45;&gt;7 -->
<g id="edge13" class="edge"><title>2&#45;&gt;7</title>
<path fill="none" stroke="black" stroke-width="2" d="M129.108,-42.2214C126.541,-55.8802 123.15,-73.9289 120.275,-89.2297"/>
<polygon fill="black" stroke="black" stroke-width="2" points="116.79,-88.8214 118.383,-99.2958 123.67,-90.1141 116.79,-88.8214"/>
</g>
<!-- 3 -->
<g id="node4" class="node"><title>3</title>
<ellipse fill="cadetblue" stroke="black" cx="171.855" cy="-222.045" rx="21.4286" ry="21.4286"/>
<text text-anchor="middle" x="171.855" y="-217.045" font-family="Times New Roman,serif" font-size="20.00">2</text>
</g>
<!-- 3&#45;&gt;1 -->
<g id="edge6" class="edge"><title>3&#45;&gt;1</title>
<path fill="none" stroke="black" stroke-width="2" d="M150.872,-217.237C138.386,-214.376 122.313,-210.693 108.377,-207.499"/>
<polygon fill="black" stroke="black" stroke-width="2" points="108.761,-203.997 98.2321,-205.175 107.198,-210.82 108.761,-203.997"/>
</g>
<!-- 4&#45;&gt;2 -->
<g id="edge10" class="edge"><title>4&#45;&gt;2</title>
<path fill="none" stroke="black" stroke-width="2" d="M185.241,-34.4828C178.548,-32.7811 170.978,-30.8561 163.721,-29.0108"/>
<polygon fill="black" stroke="black" stroke-width="2" points="164.349,-25.5591 153.795,-26.4868 162.624,-32.3433 164.349,-25.5591"/>
</g>
<!-- 4&#45;&gt;6 -->
<g id="edge16" class="edge"><title>4&#45;&gt;6</title>
<path fill="none" stroke="black" stroke-width="2" d="M199.481,-60.1664C196.275,-70.3222 192.338,-82.7953 188.795,-94.0205"/>
<polygon fill="black" stroke="black" stroke-width="2" points="185.356,-93.2864 185.683,-103.876 192.031,-95.3937 185.356,-93.2864"/>
</g>
<!-- 5&#45;&gt;1 -->
<g id="edge7" class="edge"><title>5&#45;&gt;1</title>
<path fill="none" stroke="black" stroke-width="2" d="M31.5018,-117.04C40.0416,-132.577 52.3127,-154.904 62.005,-172.538"/>
<polygon fill="black" stroke="black" stroke-width="2" points="59.2003,-174.702 67.0842,-181.779 65.3348,-171.33 59.2003,-174.702"/>
</g>
<!-- 5&#45;&gt;2 -->
<g id="edge11" class="edge"><title>5&#45;&gt;2</title>
<path fill="none" stroke="black" stroke-width="2" d="M41.0056,-89.7744C57.8694,-82.0006 82.3038,-69.5423 101.207,-55.0031 105.077,-52.0266 108.898,-48.5674 112.478,-45.0203"/>
<polygon fill="black" stroke="black" stroke-width="2" points="115.051,-47.3937 119.422,-37.7427 109.986,-42.5612 115.051,-47.3937"/>
</g>
<!-- 6&#45;&gt;0 -->
<g id="edge4" class="edge"><title>6&#45;&gt;0</title>
<path fill="none" stroke="black" stroke-width="2" d="M163.332,-109.625C147.799,-95.5299 124.012,-73.9441 106.281,-57.8534"/>
<polygon fill="black" stroke="black" stroke-width="2" points="108.369,-55.0219 98.6112,-50.8937 103.665,-60.2057 108.369,-55.0219"/>
</g>
<!-- 6&#45;&gt;3 -->
<g id="edge14" class="edge"><title>6&#45;&gt;3</title>
<path fill="none" stroke="black" stroke-width="2" d="M177.681,-145.361C176.677,-158.58 175.367,-175.816 174.244,-190.599"/>
<polygon fill="black" stroke="black" stroke-width="2" points="170.734,-190.6 173.466,-200.836 177.714,-191.13 170.734,-190.6"/>
</g>
<!-- 7&#45;&gt;0 -->
<g id="edge5" class="edge"><title>7&#45;&gt;0</title>
<path fill="none" stroke="black" stroke-width="2" d="M106.901,-100.393C103.007,-90.1257 98.1771,-77.392 93.8535,-65.9928"/>
<polygon fill="black" stroke="black" stroke-width="2" points="97.0394,-64.5231 90.2205,-56.4143 90.4944,-67.0056 97.0394,-64.5231"/>
</g>
<!-- 7&#45;&gt;3 -->
<g id="edge15" class="edge"><title>7&#45;&gt;3</title>
<path fill="none" stroke="black" stroke-width="2" d="M124.972,-138.94C133.794,-154.577 146.505,-177.11 156.468,-194.769"/>
<polygon fill="black" stroke="black" stroke-width="2" points="153.429,-196.507 161.391,-203.497 159.526,-193.068 153.429,-196.507"/>
</g>
<!-- 7&#45;&gt;4 -->
<g id="edge17" class="edge"><title>7&#45;&gt;4</title>
<path fill="none" stroke="black" stroke-width="2" d="M130.377,-106.246C144.72,-93.6215 165.987,-74.9014 182.306,-60.5363"/>
<polygon fill="black" stroke="black" stroke-width="2" points="184.675,-63.1145 189.868,-53.88 180.049,-57.8601 184.675,-63.1145"/>
</g>
<!-- 7&#45;&gt;5 -->
<g id="edge18" class="edge"><title>7&#45;&gt;5</title>
<path fill="none" stroke="black" stroke-width="2" d="M93.7511,-115.402C81.5252,-112.523 65.8109,-108.822 52.1361,-105.602"/>
<polygon fill="black" stroke="black" stroke-width="2" points="52.7041,-102.14 42.1681,-103.255 51.0996,-108.954 52.7041,-102.14"/>
</g>
<!-- 7&#45;&gt;6 -->
<g id="edge19" class="edge"><title>7&#45;&gt;6</title>
<path fill="none" stroke="black" stroke-width="2" d="M135.677,-121.53C139.556,-121.76 143.678,-122.004 147.781,-122.246"/>
<polygon fill="black" stroke="black" stroke-width="2" points="147.601,-125.742 157.79,-122.839 148.014,-118.754 147.601,-125.742"/>
</g>
</g>
</svg>

