<?xml version="1.0" encoding="UTF-8" standalone="no"?>
<!DOCTYPE svg PUBLIC "-//W3C//DTD SVG 1.1//EN"
 "http://www.w3.org/Graphics/SVG/1.1/DTD/svg11.dtd">
<!-- Generated by graphviz version 2.36.0 (20140111.2315)
 -->
<!-- Title: G Pages: 1 -->
<svg width="100%" height="100%"
 viewBox="0.00 0.00 241.26 361.67" xmlns="http://www.w3.org/2000/svg" xmlns:xlink="http://www.w3.org/1999/xlink">
<g id="graph0" class="graph" transform="scale(1 1) rotate(0) translate(4 357.674)">
<title>G</title>
<!-- 0 -->
<g id="node1" class="node"><title>0</title>
<ellipse fill="cadetblue" stroke="black" cx="56.6271" cy="-67.3486" rx="21.4286" ry="21.4286"/>
<text text-anchor="middle" x="56.6271" y="-62.3486" font-family="Times New Roman,serif" font-size="20.00">2</text>
</g>
<!-- 4 -->
<g id="node5" class="node"><title>4</title>
<ellipse fill="cadetblue" stroke="black" cx="212.047" cy="-115.301" rx="21.4286" ry="21.4286"/>
<text text-anchor="middle" x="212.047" y="-110.301" font-family="Times New Roman,serif" font-size="20.00">2</text>
</g>
<!-- 0&#45;&gt;4 -->
<g id="edge2" class="edge"><title>0&#45;&gt;4</title>
<path fill="none" stroke="black" stroke-width="2" d="M76.9456,-73.6175C103.706,-81.8741 150.984,-96.4606 181.914,-106.004"/>
<polygon fill="black" stroke="black" stroke-width="2" points="181.136,-109.426 191.723,-109.03 183.2,-102.737 181.136,-109.426"/>
</g>
<!-- 6 -->
<g id="node7" class="node"><title>6</title>
<ellipse fill="cadetblue" stroke="black" cx="177.127" cy="-223.743" rx="21.4286" ry="21.4286"/>
<text text-anchor="middle" x="177.127" y="-218.743" font-family="Times New Roman,serif" font-size="20.00">2</text>
</g>
<!-- 0&#45;&gt;6 -->
<g id="edge4" class="edge"><title>0&#45;&gt;6</title>
<path fill="none" stroke="black" stroke-width="2" d="M73.4223,-80.8742C92.692,-97.0552 124.325,-125.722 145.296,-155.576 153.59,-167.382 160.653,-181.693 166.003,-194.148"/>
<polygon fill="black" stroke="black" stroke-width="2" points="162.874,-195.741 169.917,-203.655 169.347,-193.076 162.874,-195.741"/>
</g>
<!-- 1 -->
<g id="node2" class="node"><title>1</title>
<ellipse fill="brown" stroke="black" cx="65.532" cy="-272.499" rx="21.4286" ry="21.4286"/>
<text text-anchor="middle" x="65.532" y="-267.499" font-family="Times New Roman,serif" font-size="20.00">3</text>
</g>
<!-- 3 -->
<g id="node4" class="node"><title>3</title>
<ellipse fill="cadetblue" stroke="black" cx="127.854" cy="-332.461" rx="21.4286" ry="21.4286"/>
<text text-anchor="middle" x="127.854" y="-327.461" font-family="Times New Roman,serif" font-size="20.00">2</text>
</g>
<!-- 1&#45;&gt;3 -->
<g id="edge5" class="edge"><title>1&#45;&gt;3</title>
<path fill="none" stroke="black" stroke-width="2" d="M80.9375,-287.321C88.0745,-294.187 96.7079,-302.494 104.613,-310.1"/>
<polygon fill="black" stroke="black" stroke-width="2" points="102.56,-312.981 112.193,-317.393 107.413,-307.937 102.56,-312.981"/>
</g>
<!-- 2 -->
<g id="node3" class="node"><title>2</title>
<ellipse fill="brown" stroke="black" cx="133.576" cy="-21.2132" rx="21.4286" ry="21.4286"/>
<text text-anchor="middle" x="133.576" y="-16.2132" font-family="Times New Roman,serif" font-size="20.00">3</text>
</g>
<!-- 2&#45;&gt;0 -->
<g id="edge1" class="edge"><title>2&#45;&gt;0</title>
<path fill="none" stroke="black" stroke-width="2" d="M115.34,-32.1467C105.922,-37.7936 94.2413,-44.7967 83.785,-51.0659"/>
<polygon fill="black" stroke="black" stroke-width="2" points="81.7756,-48.1897 74.9988,-56.3338 85.3751,-54.1934 81.7756,-48.1897"/>
</g>
<!-- 5 -->
<g id="node6" class="node"><title>5</title>
<ellipse fill="cadetblue" stroke="black" cx="21.2132" cy="-174.894" rx="21.4286" ry="21.4286"/>
<text text-anchor="middle" x="21.2132" y="-169.894" font-family="Times New Roman,serif" font-size="20.00">2</text>
</g>
<!-- 3&#45;&gt;5 -->
<g id="edge12" class="edge"><title>3&#45;&gt;5</title>
<path fill="none" stroke="black" stroke-width="2" d="M118.293,-313.228C109.965,-297.009 97.2148,-273.401 84.1997,-253.966 71.2628,-234.649 54.8491,-214.151 42.0209,-198.867"/>
<polygon fill="black" stroke="black" stroke-width="2" points="44.4455,-196.314 35.3077,-190.952 39.1073,-200.842 44.4455,-196.314"/>
</g>
<!-- 7 -->
<g id="node8" class="node"><title>7</title>
<ellipse fill="cadetblue" stroke="black" cx="126.695" cy="-174.175" rx="21.4286" ry="21.4286"/>
<text text-anchor="middle" x="126.695" y="-169.175" font-family="Times New Roman,serif" font-size="20.00">2</text>
</g>
<!-- 3&#45;&gt;7 -->
<g id="edge14" class="edge"><title>3&#45;&gt;7</title>
<path fill="none" stroke="black" stroke-width="2" d="M127.698,-311.113C127.499,-284.014 127.155,-237.037 126.927,-205.779"/>
<polygon fill="black" stroke="black" stroke-width="2" points="130.424,-205.41 126.851,-195.436 123.424,-205.461 130.424,-205.41"/>
</g>
<!-- 4&#45;&gt;1 -->
<g id="edge6" class="edge"><title>4&#45;&gt;1</title>
<path fill="none" stroke="black" stroke-width="2" d="M198.329,-131.935C185.071,-147.838 164.262,-172.35 145.294,-192.776 126.632,-212.872 104.512,-234.845 88.3051,-250.624"/>
<polygon fill="black" stroke="black" stroke-width="2" points="85.6087,-248.364 80.8654,-257.838 90.4813,-253.389 85.6087,-248.364"/>
</g>
<!-- 4&#45;&gt;2 -->
<g id="edge9" class="edge"><title>4&#45;&gt;2</title>
<path fill="none" stroke="black" stroke-width="2" d="M198.378,-98.9117C186.076,-84.1616 167.835,-62.29 153.837,-45.5067"/>
<polygon fill="black" stroke="black" stroke-width="2" points="156.444,-43.1677 147.351,-37.7298 151.068,-47.6512 156.444,-43.1677"/>
</g>
<!-- 4&#45;&gt;7 -->
<g id="edge16" class="edge"><title>4&#45;&gt;7</title>
<path fill="none" stroke="black" stroke-width="2" d="M194.362,-127.499C182.346,-135.788 166.248,-146.892 152.768,-156.19"/>
<polygon fill="black" stroke="black" stroke-width="2" points="150.602,-153.432 144.357,-161.992 154.576,-159.195 150.602,-153.432"/>
</g>
<!-- 5&#45;&gt;0 -->
<g id="edge3" class="edge"><title>5&#45;&gt;0</title>
<path fill="none" stroke="black" stroke-width="2" d="M27.8743,-154.666C33.1826,-138.545 40.6962,-115.728 46.7114,-97.4609"/>
<polygon fill="black" stroke="black" stroke-width="2" points="50.0721,-98.4451 49.8755,-87.8521 43.4233,-96.2556 50.0721,-98.4451"/>
</g>
<!-- 5&#45;&gt;2 -->
<g id="edge10" class="edge"><title>5&#45;&gt;2</title>
<path fill="none" stroke="black" stroke-width="2" d="M33.8842,-157.564C53.6099,-130.585 91.7741,-78.3868 114.734,-46.9837"/>
<polygon fill="black" stroke="black" stroke-width="2" points="117.702,-48.8543 120.779,-38.7161 112.051,-44.7228 117.702,-48.8543"/>
</g>
<!-- 5&#45;&gt;6 -->
<g id="edge17" class="edge"><title>5&#45;&gt;6</title>
<path fill="none" stroke="black" stroke-width="2" d="M41.5962,-181.28C68.4421,-189.691 115.869,-204.551 146.898,-214.272"/>
<polygon fill="black" stroke="black" stroke-width="2" points="146.15,-217.706 156.739,-217.356 148.242,-211.026 146.15,-217.706"/>
</g>
<!-- 6&#45;&gt;1 -->
<g id="edge7" class="edge"><title>6&#45;&gt;1</title>
<path fill="none" stroke="black" stroke-width="2" d="M157.433,-232.348C139.903,-240.006 114.041,-251.305 94.2146,-259.967"/>
<polygon fill="black" stroke="black" stroke-width="2" points="92.7915,-256.769 85.0291,-263.98 95.594,-263.184 92.7915,-256.769"/>
</g>
<!-- 6&#45;&gt;3 -->
<g id="edge13" class="edge"><title>6&#45;&gt;3</title>
<path fill="none" stroke="black" stroke-width="2" d="M168.318,-243.18C160.693,-260.004 149.56,-284.568 140.901,-303.673"/>
<polygon fill="black" stroke="black" stroke-width="2" points="137.693,-302.273 136.753,-312.826 144.069,-305.162 137.693,-302.273"/>
</g>
<!-- 6&#45;&gt;4 -->
<g id="edge15" class="edge"><title>6&#45;&gt;4</title>
<path fill="none" stroke="black" stroke-width="2" d="M183.695,-203.346C188.962,-186.988 196.432,-163.79 202.383,-145.313"/>
<polygon fill="black" stroke="black" stroke-width="2" points="205.774,-146.198 205.508,-135.606 199.111,-144.052 205.774,-146.198"/>
</g>
<!-- 7&#45;&gt;1 -->
<g id="edge8" class="edge"><title>7&#45;&gt;1</title>
<path fill="none" stroke="black" stroke-width="2" d="M115.477,-192.209C106.224,-207.084 92.9525,-228.418 82.4158,-245.357"/>
<polygon fill="black" stroke="black" stroke-width="2" points="79.1964,-243.906 76.8863,-254.246 85.1403,-247.603 79.1964,-243.906"/>
</g>
<!-- 7&#45;&gt;2 -->
<g id="edge11" class="edge"><title>7&#45;&gt;2</title>
<path fill="none" stroke="black" stroke-width="2" d="M127.652,-152.906C128.816,-127.025 130.793,-83.0816 132.14,-53.1348"/>
<polygon fill="black" stroke="black" stroke-width="2" points="135.652,-52.9416 132.605,-42.7943 128.659,-52.6269 135.652,-52.9416"/>
</g>
<!-- 7&#45;&gt;5 -->
<g id="edge18" class="edge"><title>7&#45;&gt;5</title>
<path fill="none" stroke="black" stroke-width="2" d="M105.349,-174.32C90.194,-174.424 69.601,-174.564 52.5818,-174.68"/>
<polygon fill="black" stroke="black" stroke-width="2" points="52.5032,-171.181 42.5273,-174.749 52.551,-178.18 52.5032,-171.181"/>
</g>
</g>
</svg>

