<?xml version="1.0" encoding="UTF-8" standalone="no"?>
<!DOCTYPE svg PUBLIC "-//W3C//DTD SVG 1.1//EN"
 "http://www.w3.org/Graphics/SVG/1.1/DTD/svg11.dtd">
<!-- Generated by graphviz version 2.36.0 (20140111.2315)
 -->
<!-- Title: G Pages: 1 -->
<svg width="100%" height="100%"
 viewBox="0.00 0.00 214.34 229.76" xmlns="http://www.w3.org/2000/svg" xmlns:xlink="http://www.w3.org/1999/xlink">
<g id="graph0" class="graph" transform="scale(1 1) rotate(0) translate(4 225.756)">
<title>G</title>
<!-- 0 -->
<g id="node1" class="node"><title>0</title>
<ellipse fill="cadetblue" stroke="black" cx="74.3688" cy="-46.3249" rx="21.4286" ry="21.4286"/>
<text text-anchor="middle" x="74.3688" y="-41.3249" font-family="Times New Roman,serif" font-size="20.00">2</text>
</g>
<!-- 5 -->
<g id="node6" class="node"><title>5</title>
<ellipse fill="cadetblue" stroke="black" cx="21.2132" cy="-131.714" rx="21.4286" ry="21.4286"/>
<text text-anchor="middle" x="21.2132" y="-126.714" font-family="Times New Roman,serif" font-size="20.00">2</text>
</g>
<!-- 0&#45;&gt;5 -->
<g id="edge3" class="edge"><title>0&#45;&gt;5</title>
<path fill="none" stroke="black" stroke-width="2" d="M63.0959,-64.4338C55.7666,-76.2076 46.0817,-91.7655 37.8713,-104.955"/>
<polygon fill="black" stroke="black" stroke-width="2" points="34.7834,-103.292 32.4699,-113.631 40.726,-106.992 34.7834,-103.292"/>
</g>
<!-- 6 -->
<g id="node7" class="node"><title>6</title>
<ellipse fill="cadetblue" stroke="black" cx="152.214" cy="-128.011" rx="21.4286" ry="21.4286"/>
<text text-anchor="middle" x="152.214" y="-123.011" font-family="Times New Roman,serif" font-size="20.00">2</text>
</g>
<!-- 0&#45;&gt;6 -->
<g id="edge4" class="edge"><title>0&#45;&gt;6</title>
<path fill="none" stroke="black" stroke-width="2" d="M89.011,-61.6894C100.68,-73.9337 117.196,-91.2645 130.418,-105.139"/>
<polygon fill="black" stroke="black" stroke-width="2" points="127.941,-107.613 137.373,-112.437 133.008,-102.784 127.941,-107.613"/>
</g>
<!-- 1 -->
<g id="node2" class="node"><title>1</title>
<ellipse fill="cadetblue" stroke="black" cx="61.0573" cy="-192.424" rx="21.4286" ry="21.4286"/>
<text text-anchor="middle" x="61.0573" y="-187.424" font-family="Times New Roman,serif" font-size="20.00">2</text>
</g>
<!-- 1&#45;&gt;6 -->
<g id="edge7" class="edge"><title>1&#45;&gt;6</title>
<path fill="none" stroke="black" stroke-width="2" d="M78.6333,-180.005C92.1269,-170.47 110.967,-157.157 126.204,-146.39"/>
<polygon fill="black" stroke="black" stroke-width="2" points="128.545,-149.021 134.692,-140.392 124.506,-143.305 128.545,-149.021"/>
</g>
<!-- 7 -->
<g id="node8" class="node"><title>7</title>
<ellipse fill="cadetblue" stroke="black" cx="99.5633" cy="-111.278" rx="21.4286" ry="21.4286"/>
<text text-anchor="middle" x="99.5633" y="-106.278" font-family="Times New Roman,serif" font-size="20.00">2</text>
</g>
<!-- 1&#45;&gt;7 -->
<g id="edge8" class="edge"><title>1&#45;&gt;7</title>
<path fill="none" stroke="black" stroke-width="2" d="M70.1827,-173.193C74.8958,-163.261 80.7408,-150.944 85.9733,-139.917"/>
<polygon fill="black" stroke="black" stroke-width="2" points="89.2449,-141.186 90.37,-130.651 82.9208,-138.185 89.2449,-141.186"/>
</g>
<!-- 2 -->
<g id="node3" class="node"><title>2</title>
<ellipse fill="cadetblue" stroke="black" cx="134.698" cy="-21.2132" rx="21.4286" ry="21.4286"/>
<text text-anchor="middle" x="134.698" y="-16.2132" font-family="Times New Roman,serif" font-size="20.00">2</text>
</g>
<!-- 2&#45;&gt;0 -->
<g id="edge1" class="edge"><title>2&#45;&gt;0</title>
<path fill="none" stroke="black" stroke-width="2" d="M114.944,-29.4357C111.26,-30.9689 107.341,-32.6004 103.446,-34.2218"/>
<polygon fill="black" stroke="black" stroke-width="2" points="101.848,-31.0955 93.9611,-38.1697 104.538,-37.558 101.848,-31.0955"/>
</g>
<!-- 4 -->
<g id="node5" class="node"><title>4</title>
<ellipse fill="cadetblue" stroke="black" cx="185.129" cy="-52.4441" rx="21.4286" ry="21.4286"/>
<text text-anchor="middle" x="185.129" y="-47.4441" font-family="Times New Roman,serif" font-size="20.00">2</text>
</g>
<!-- 2&#45;&gt;4 -->
<g id="edge9" class="edge"><title>2&#45;&gt;4</title>
<path fill="none" stroke="black" stroke-width="2" d="M152.905,-32.4883C154.598,-33.5366 156.336,-34.6133 158.087,-35.6972"/>
<polygon fill="black" stroke="black" stroke-width="2" points="156.435,-38.7913 166.78,-41.0807 160.121,-32.84 156.435,-38.7913"/>
</g>
<!-- 3 -->
<g id="node4" class="node"><title>3</title>
<ellipse fill="brown" stroke="black" cx="119.408" cy="-200.543" rx="21.4286" ry="21.4286"/>
<text text-anchor="middle" x="119.408" y="-195.543" font-family="Times New Roman,serif" font-size="20.00">3</text>
</g>
<!-- 3&#45;&gt;1 -->
<g id="edge5" class="edge"><title>3&#45;&gt;1</title>
<path fill="none" stroke="black" stroke-width="2" d="M98.3422,-197.612C96.3835,-197.339 94.3719,-197.06 92.3466,-196.778"/>
<polygon fill="black" stroke="black" stroke-width="2" points="92.6753,-193.29 82.2884,-195.378 91.7105,-200.223 92.6753,-193.29"/>
</g>
<!-- 4&#45;&gt;0 -->
<g id="edge2" class="edge"><title>4&#45;&gt;0</title>
<path fill="none" stroke="black" stroke-width="2" d="M163.774,-51.2642C147.302,-50.3542 124.273,-49.082 105.713,-48.0566"/>
<polygon fill="black" stroke="black" stroke-width="2" points="105.837,-44.5582 95.659,-47.5011 105.451,-51.5475 105.837,-44.5582"/>
</g>
<!-- 5&#45;&gt;1 -->
<g id="edge6" class="edge"><title>5&#45;&gt;1</title>
<path fill="none" stroke="black" stroke-width="2" d="M32.9522,-149.601C36.3266,-154.742 40.0801,-160.462 43.7169,-166.003"/>
<polygon fill="black" stroke="black" stroke-width="2" points="40.8514,-168.016 49.2645,-174.456 46.7036,-164.175 40.8514,-168.016"/>
</g>
<!-- 5&#45;&gt;3 -->
<g id="edge12" class="edge"><title>5&#45;&gt;3</title>
<path fill="none" stroke="black" stroke-width="2" d="M38.7685,-144.019C53.9888,-154.688 76.2223,-170.272 93.4907,-182.377"/>
<polygon fill="black" stroke="black" stroke-width="2" points="91.8072,-185.471 102.005,-188.345 95.8251,-179.739 91.8072,-185.471"/>
</g>
<!-- 6&#45;&gt;2 -->
<g id="edge10" class="edge"><title>6&#45;&gt;2</title>
<path fill="none" stroke="black" stroke-width="2" d="M148.754,-106.911C146.211,-91.406 142.713,-70.0814 139.843,-52.5834"/>
<polygon fill="black" stroke="black" stroke-width="2" points="143.224,-51.5708 138.151,-42.2691 136.316,-52.7038 143.224,-51.5708"/>
</g>
<!-- 6&#45;&gt;3 -->
<g id="edge13" class="edge"><title>6&#45;&gt;3</title>
<path fill="none" stroke="black" stroke-width="2" d="M143.423,-147.448C140.04,-154.928 136.102,-163.635 132.405,-171.808"/>
<polygon fill="black" stroke="black" stroke-width="2" points="129.156,-170.498 128.224,-181.052 135.534,-173.383 129.156,-170.498"/>
</g>
<!-- 6&#45;&gt;7 -->
<g id="edge17" class="edge"><title>6&#45;&gt;7</title>
<path fill="none" stroke="black" stroke-width="2" d="M131.707,-121.493C131.112,-121.304 130.512,-121.114 129.91,-120.922"/>
<polygon fill="black" stroke="black" stroke-width="2" points="130.691,-117.498 120.101,-117.805 128.571,-124.169 130.691,-117.498"/>
</g>
<!-- 7&#45;&gt;2 -->
<g id="edge11" class="edge"><title>7&#45;&gt;2</title>
<path fill="none" stroke="black" stroke-width="2" d="M107.361,-91.2894C112,-79.3959 117.973,-64.0849 123.152,-50.8099"/>
<polygon fill="black" stroke="black" stroke-width="2" points="126.548,-51.7338 126.922,-41.1455 120.027,-49.1897 126.548,-51.7338"/>
</g>
<!-- 7&#45;&gt;3 -->
<g id="edge14" class="edge"><title>7&#45;&gt;3</title>
<path fill="none" stroke="black" stroke-width="2" d="M104.266,-132.432C106.738,-143.549 109.813,-157.383 112.545,-169.673"/>
<polygon fill="black" stroke="black" stroke-width="2" points="109.152,-170.538 114.739,-179.54 115.985,-169.019 109.152,-170.538"/>
</g>
<!-- 7&#45;&gt;4 -->
<g id="edge15" class="edge"><title>7&#45;&gt;4</title>
<path fill="none" stroke="black" stroke-width="2" d="M117.293,-99.0873C129.339,-90.8043 145.477,-79.708 158.991,-70.4164"/>
<polygon fill="black" stroke="black" stroke-width="2" points="161.166,-73.1686 167.423,-64.6188 157.199,-67.4005 161.166,-73.1686"/>
</g>
<!-- 7&#45;&gt;5 -->
<g id="edge16" class="edge"><title>7&#45;&gt;5</title>
<path fill="none" stroke="black" stroke-width="2" d="M78.9777,-116.647C70.6764,-118.812 60.9252,-121.356 51.8228,-123.73"/>
<polygon fill="black" stroke="black" stroke-width="2" points="50.7262,-120.399 41.9333,-126.31 52.493,-127.172 50.7262,-120.399"/>
</g>
</g>
</svg>

