<?xml version="1.0" encoding="UTF-8" standalone="no"?>
<!DOCTYPE svg PUBLIC "-//W3C//DTD SVG 1.1//EN"
 "http://www.w3.org/Graphics/SVG/1.1/DTD/svg11.dtd">
<!-- Generated by graphviz version 2.36.0 (20140111.2315)
 -->
<!-- Title: G Pages: 1 -->
<svg width="100%" height="100%"
 viewBox="0.00 0.00 255.69 261.03" xmlns="http://www.w3.org/2000/svg" xmlns:xlink="http://www.w3.org/1999/xlink">
<g id="graph0" class="graph" transform="scale(1 1) rotate(0) translate(4 257.034)">
<title>G</title>
<!-- 0 -->
<g id="node1" class="node"><title>0</title>
<ellipse fill="cadetblue" stroke="black" cx="94.9795" cy="-88.0517" rx="21.4286" ry="21.4286"/>
<text text-anchor="middle" x="94.9795" y="-83.0517" font-family="Times New Roman,serif" font-size="20.00">2</text>
</g>
<!-- 5 -->
<g id="node6" class="node"><title>5</title>
<ellipse fill="brown" stroke="black" cx="47.3015" cy="-211.59" rx="21.4286" ry="21.4286"/>
<text text-anchor="middle" x="47.3015" y="-206.59" font-family="Times New Roman,serif" font-size="20.00">3</text>
</g>
<!-- 0&#45;&gt;5 -->
<g id="edge3" class="edge"><title>0&#45;&gt;5</title>
<path fill="none" stroke="black" stroke-width="2" d="M87.3192,-107.9C79.5689,-127.982 67.4988,-159.257 58.6401,-182.21"/>
<polygon fill="black" stroke="black" stroke-width="2" points="55.2781,-181.201 54.9428,-191.791 61.8086,-183.722 55.2781,-181.201"/>
</g>
<!-- 6 -->
<g id="node7" class="node"><title>6</title>
<ellipse fill="cadetblue" stroke="black" cx="226.475" cy="-115.63" rx="21.4286" ry="21.4286"/>
<text text-anchor="middle" x="226.475" y="-110.63" font-family="Times New Roman,serif" font-size="20.00">2</text>
</g>
<!-- 0&#45;&gt;6 -->
<g id="edge4" class="edge"><title>0&#45;&gt;6</title>
<path fill="none" stroke="black" stroke-width="2" d="M115.815,-92.4215C137.233,-96.9133 170.831,-103.96 195.391,-109.11"/>
<polygon fill="black" stroke="black" stroke-width="2" points="194.796,-112.562 205.301,-111.189 196.233,-105.711 194.796,-112.562"/>
</g>
<!-- 7 -->
<g id="node8" class="node"><title>7</title>
<ellipse fill="brown" stroke="black" cx="176.044" cy="-119.344" rx="21.4286" ry="21.4286"/>
<text text-anchor="middle" x="176.044" y="-114.344" font-family="Times New Roman,serif" font-size="20.00">3</text>
</g>
<!-- 0&#45;&gt;7 -->
<g id="edge5" class="edge"><title>0&#45;&gt;7</title>
<path fill="none" stroke="black" stroke-width="2" d="M115.018,-95.7868C124.54,-99.4624 136.11,-103.929 146.605,-107.98"/>
<polygon fill="black" stroke="black" stroke-width="2" points="145.646,-111.361 156.236,-111.697 148.167,-104.831 145.646,-111.361"/>
</g>
<!-- 1 -->
<g id="node2" class="node"><title>1</title>
<ellipse fill="cadetblue" stroke="black" cx="121.743" cy="-192.67" rx="21.4286" ry="21.4286"/>
<text text-anchor="middle" x="121.743" y="-187.67" font-family="Times New Roman,serif" font-size="20.00">2</text>
</g>
<!-- 1&#45;&gt;5 -->
<g id="edge8" class="edge"><title>1&#45;&gt;5</title>
<path fill="none" stroke="black" stroke-width="2" d="M101.007,-197.94C93.8278,-199.765 85.6233,-201.85 77.8246,-203.832"/>
<polygon fill="black" stroke="black" stroke-width="2" points="76.7561,-200.493 67.9264,-206.348 78.4804,-207.277 76.7561,-200.493"/>
</g>
<!-- 1&#45;&gt;6 -->
<g id="edge9" class="edge"><title>1&#45;&gt;6</title>
<path fill="none" stroke="black" stroke-width="2" d="M139.037,-179.948C155.865,-167.57 181.636,-148.613 200.846,-134.482"/>
<polygon fill="black" stroke="black" stroke-width="2" points="203.174,-137.115 209.155,-128.37 199.026,-131.476 203.174,-137.115"/>
</g>
<!-- 1&#45;&gt;7 -->
<g id="edge10" class="edge"><title>1&#45;&gt;7</title>
<path fill="none" stroke="black" stroke-width="2" d="M134.611,-175.293C141.374,-166.161 149.789,-154.797 157.265,-144.702"/>
<polygon fill="black" stroke="black" stroke-width="2" points="160.129,-146.716 163.268,-136.596 154.504,-142.55 160.129,-146.716"/>
</g>
<!-- 2 -->
<g id="node3" class="node"><title>2</title>
<ellipse fill="cadetblue" stroke="black" cx="139.129" cy="-21.2132" rx="21.4286" ry="21.4286"/>
<text text-anchor="middle" x="139.129" y="-16.2132" font-family="Times New Roman,serif" font-size="20.00">2</text>
</g>
<!-- 2&#45;&gt;0 -->
<g id="edge1" class="edge"><title>2&#45;&gt;0</title>
<path fill="none" stroke="black" stroke-width="2" d="M127.297,-39.1247C122.745,-46.0174 117.445,-54.0409 112.47,-61.5725"/>
<polygon fill="black" stroke="black" stroke-width="2" points="109.434,-59.8177 106.843,-70.0908 115.275,-63.6758 109.434,-59.8177"/>
</g>
<!-- 4 -->
<g id="node5" class="node"><title>4</title>
<ellipse fill="cadetblue" stroke="black" cx="21.2132" cy="-106.706" rx="21.4286" ry="21.4286"/>
<text text-anchor="middle" x="21.2132" y="-101.706" font-family="Times New Roman,serif" font-size="20.00">2</text>
</g>
<!-- 2&#45;&gt;4 -->
<g id="edge11" class="edge"><title>2&#45;&gt;4</title>
<path fill="none" stroke="black" stroke-width="2" d="M121.73,-33.828C101.961,-48.1609 69.5101,-71.6893 46.8443,-88.1229"/>
<polygon fill="black" stroke="black" stroke-width="2" points="44.7249,-85.3364 38.6834,-94.0399 48.8339,-91.0035 44.7249,-85.3364"/>
</g>
<!-- 3 -->
<g id="node4" class="node"><title>3</title>
<ellipse fill="cadetblue" stroke="black" cx="190.152" cy="-231.821" rx="21.4286" ry="21.4286"/>
<text text-anchor="middle" x="190.152" y="-226.821" font-family="Times New Roman,serif" font-size="20.00">2</text>
</g>
<!-- 3&#45;&gt;1 -->
<g id="edge6" class="edge"><title>3&#45;&gt;1</title>
<path fill="none" stroke="black" stroke-width="2" d="M171.459,-221.122C164.672,-217.238 156.851,-212.763 149.451,-208.528"/>
<polygon fill="black" stroke="black" stroke-width="2" points="150.831,-205.285 140.413,-203.355 147.354,-211.36 150.831,-205.285"/>
</g>
<!-- 3&#45;&gt;5 -->
<g id="edge14" class="edge"><title>3&#45;&gt;5</title>
<path fill="none" stroke="black" stroke-width="2" d="M169.074,-228.835C145.23,-225.459 106.158,-219.925 78.7162,-216.039"/>
<polygon fill="black" stroke="black" stroke-width="2" points="78.858,-212.524 68.466,-214.587 77.8764,-219.455 78.858,-212.524"/>
</g>
<!-- 4&#45;&gt;0 -->
<g id="edge2" class="edge"><title>4&#45;&gt;0</title>
<path fill="none" stroke="black" stroke-width="2" d="M42.1543,-101.411C49.0653,-99.6629 56.901,-97.6814 64.3814,-95.7897"/>
<polygon fill="black" stroke="black" stroke-width="2" points="65.4046,-99.1411 74.2413,-93.2962 63.6884,-92.3548 65.4046,-99.1411"/>
</g>
<!-- 4&#45;&gt;1 -->
<g id="edge7" class="edge"><title>4&#45;&gt;1</title>
<path fill="none" stroke="black" stroke-width="2" d="M37.365,-120.518C53.61,-134.409 78.8558,-155.997 97.5029,-171.942"/>
<polygon fill="black" stroke="black" stroke-width="2" points="95.4223,-174.768 105.297,-178.607 99.9716,-169.448 95.4223,-174.768"/>
</g>
<!-- 5&#45;&gt;4 -->
<g id="edge17" class="edge"><title>5&#45;&gt;4</title>
<path fill="none" stroke="black" stroke-width="2" d="M42.1473,-190.868C38.3597,-175.641 33.1506,-154.699 28.8762,-137.514"/>
<polygon fill="black" stroke="black" stroke-width="2" points="32.1671,-136.244 26.3567,-127.385 25.3741,-137.934 32.1671,-136.244"/>
</g>
<!-- 6&#45;&gt;2 -->
<g id="edge12" class="edge"><title>6&#45;&gt;2</title>
<path fill="none" stroke="black" stroke-width="2" d="M212.052,-100.039C198.017,-84.8682 176.524,-61.6359 160.503,-44.3178"/>
<polygon fill="black" stroke="black" stroke-width="2" points="162.934,-41.791 153.574,-36.8273 157.795,-46.5447 162.934,-41.791"/>
</g>
<!-- 6&#45;&gt;3 -->
<g id="edge15" class="edge"><title>6&#45;&gt;3</title>
<path fill="none" stroke="black" stroke-width="2" d="M220.065,-136.135C214.359,-154.386 205.941,-181.313 199.488,-201.957"/>
<polygon fill="black" stroke="black" stroke-width="2" points="196.141,-200.931 196.498,-211.52 202.822,-203.02 196.141,-200.931"/>
</g>
<!-- 6&#45;&gt;7 -->
<g id="edge18" class="edge"><title>6&#45;&gt;7</title>
<path fill="none" stroke="black" stroke-width="2" d="M205.088,-117.205C204.927,-117.216 204.765,-117.228 204.604,-117.24"/>
<polygon fill="black" stroke="black" stroke-width="2" points="207.019,-113.553 197.303,-117.778 207.533,-120.534 207.019,-113.553"/>
</g>
<!-- 7&#45;&gt;2 -->
<g id="edge13" class="edge"><title>7&#45;&gt;2</title>
<path fill="none" stroke="black" stroke-width="2" d="M168.573,-99.4854C163.354,-85.6113 156.292,-66.8385 150.393,-51.1557"/>
<polygon fill="black" stroke="black" stroke-width="2" points="153.511,-49.5059 146.715,-41.3786 146.96,-51.9706 153.511,-49.5059"/>
</g>
<!-- 7&#45;&gt;3 -->
<g id="edge16" class="edge"><title>7&#45;&gt;3</title>
<path fill="none" stroke="black" stroke-width="2" d="M178.697,-140.5C180.825,-157.467 183.843,-181.527 186.247,-200.692"/>
<polygon fill="black" stroke="black" stroke-width="2" points="182.793,-201.273 187.51,-210.759 189.738,-200.401 182.793,-201.273"/>
</g>
</g>
</svg>

