<?xml version="1.0" encoding="UTF-8" standalone="no"?>
<!DOCTYPE svg PUBLIC "-//W3C//DTD SVG 1.1//EN"
 "http://www.w3.org/Graphics/SVG/1.1/DTD/svg11.dtd">
<!-- Generated by graphviz version 2.36.0 (20140111.2315)
 -->
<!-- Title: G Pages: 1 -->
<svg width="100%" height="100%"
 viewBox="0.00 0.00 253.15 278.81" xmlns="http://www.w3.org/2000/svg" xmlns:xlink="http://www.w3.org/1999/xlink">
<g id="graph0" class="graph" transform="scale(1 1) rotate(0) translate(4 274.807)">
<title>G</title>
<!-- 0 -->
<g id="node1" class="node"><title>0</title>
<ellipse fill="cadetblue" stroke="black" cx="57.4726" cy="-26.4103" rx="21.4286" ry="21.4286"/>
<text text-anchor="middle" x="57.4726" y="-21.4103" font-family="Times New Roman,serif" font-size="20.00">2</text>
</g>
<!-- 5 -->
<g id="node6" class="node"><title>5</title>
<ellipse fill="cadetblue" stroke="black" cx="21.2132" cy="-126.156" rx="21.4286" ry="21.4286"/>
<text text-anchor="middle" x="21.2132" y="-121.156" font-family="Times New Roman,serif" font-size="20.00">2</text>
</g>
<!-- 0&#45;&gt;5 -->
<g id="edge3" class="edge"><title>0&#45;&gt;5</title>
<path fill="none" stroke="black" stroke-width="2" d="M50.135,-46.5952C44.9254,-60.9262 37.8465,-80.3993 31.9961,-96.4929"/>
<polygon fill="black" stroke="black" stroke-width="2" points="28.667,-95.4065 28.5399,-106.001 35.2458,-97.7981 28.667,-95.4065"/>
</g>
<!-- 6 -->
<g id="node7" class="node"><title>6</title>
<ellipse fill="brown" stroke="black" cx="134.792" cy="-123.154" rx="21.4286" ry="21.4286"/>
<text text-anchor="middle" x="134.792" y="-118.154" font-family="Times New Roman,serif" font-size="20.00">3</text>
</g>
<!-- 0&#45;&gt;6 -->
<g id="edge4" class="edge"><title>0&#45;&gt;6</title>
<path fill="none" stroke="black" stroke-width="2" d="M70.9406,-43.2617C83.1363,-58.5213 101.256,-81.1936 115.081,-98.4916"/>
<polygon fill="black" stroke="black" stroke-width="2" points="112.501,-100.869 121.478,-106.496 117.969,-96.4987 112.501,-100.869"/>
</g>
<!-- 7 -->
<g id="node8" class="node"><title>7</title>
<ellipse fill="dodgerblue" stroke="black" cx="71.6447" cy="-154.69" rx="21.4286" ry="21.4286"/>
<text text-anchor="middle" x="71.6447" y="-149.69" font-family="Times New Roman,serif" font-size="20.00">4</text>
</g>
<!-- 0&#45;&gt;7 -->
<g id="edge5" class="edge"><title>0&#45;&gt;7</title>
<path fill="none" stroke="black" stroke-width="2" d="M59.8128,-47.593C62.0899,-68.2044 65.5771,-99.7691 68.1766,-123.298"/>
<polygon fill="black" stroke="black" stroke-width="2" points="64.7239,-123.92 69.3009,-133.475 71.6816,-123.152 64.7239,-123.92"/>
</g>
<!-- 1 -->
<g id="node2" class="node"><title>1</title>
<ellipse fill="cadetblue" stroke="black" cx="176.195" cy="-197.732" rx="21.4286" ry="21.4286"/>
<text text-anchor="middle" x="176.195" y="-192.732" font-family="Times New Roman,serif" font-size="20.00">2</text>
</g>
<!-- 4 -->
<g id="node5" class="node"><title>4</title>
<ellipse fill="cadetblue" stroke="black" cx="223.937" cy="-53.3466" rx="21.4286" ry="21.4286"/>
<text text-anchor="middle" x="223.937" y="-48.3466" font-family="Times New Roman,serif" font-size="20.00">2</text>
</g>
<!-- 1&#45;&gt;4 -->
<g id="edge7" class="edge"><title>1&#45;&gt;4</title>
<path fill="none" stroke="black" stroke-width="2" d="M182.934,-177.351C191.038,-152.843 204.709,-111.497 214.018,-83.3434"/>
<polygon fill="black" stroke="black" stroke-width="2" points="217.416,-84.2168 217.232,-73.6235 210.77,-82.0191 217.416,-84.2168"/>
</g>
<!-- 1&#45;&gt;6 -->
<g id="edge9" class="edge"><title>1&#45;&gt;6</title>
<path fill="none" stroke="black" stroke-width="2" d="M165.747,-178.912C161.004,-170.369 155.3,-160.094 150.087,-150.705"/>
<polygon fill="black" stroke="black" stroke-width="2" points="153.007,-148.753 145.093,-141.709 146.887,-152.151 153.007,-148.753"/>
</g>
<!-- 1&#45;&gt;7 -->
<g id="edge10" class="edge"><title>1&#45;&gt;7</title>
<path fill="none" stroke="black" stroke-width="2" d="M156.53,-189.636C140.858,-183.184 118.676,-174.052 100.918,-166.741"/>
<polygon fill="black" stroke="black" stroke-width="2" points="102.156,-163.466 91.577,-162.896 99.4916,-169.939 102.156,-163.466"/>
</g>
<!-- 2 -->
<g id="node3" class="node"><title>2</title>
<ellipse fill="brown" stroke="black" cx="126.266" cy="-21.2132" rx="21.4286" ry="21.4286"/>
<text text-anchor="middle" x="126.266" y="-16.2132" font-family="Times New Roman,serif" font-size="20.00">3</text>
</g>
<!-- 2&#45;&gt;0 -->
<g id="edge1" class="edge"><title>2&#45;&gt;0</title>
<path fill="none" stroke="black" stroke-width="2" d="M104.877,-22.8291C99.8773,-23.2068 94.4481,-23.6169 89.1082,-24.0203"/>
<polygon fill="black" stroke="black" stroke-width="2" points="88.7939,-20.534 79.086,-24.7775 89.3212,-27.5141 88.7939,-20.534"/>
</g>
<!-- 2&#45;&gt;4 -->
<g id="edge11" class="edge"><title>2&#45;&gt;4</title>
<path fill="none" stroke="black" stroke-width="2" d="M146.504,-27.8713C160.254,-32.3952 178.676,-38.4557 194.101,-43.5306"/>
<polygon fill="black" stroke="black" stroke-width="2" points="193.132,-46.8965 203.725,-46.6971 195.32,-40.2471 193.132,-46.8965"/>
</g>
<!-- 3 -->
<g id="node4" class="node"><title>3</title>
<ellipse fill="cadetblue" stroke="black" cx="73.5823" cy="-249.594" rx="21.4286" ry="21.4286"/>
<text text-anchor="middle" x="73.5823" y="-244.594" font-family="Times New Roman,serif" font-size="20.00">2</text>
</g>
<!-- 3&#45;&gt;1 -->
<g id="edge6" class="edge"><title>3&#45;&gt;1</title>
<path fill="none" stroke="black" stroke-width="2" d="M92.8829,-239.839C108.362,-232.016 130.312,-220.922 147.796,-212.085"/>
<polygon fill="black" stroke="black" stroke-width="2" points="149.635,-215.077 156.981,-207.443 146.477,-208.83 149.635,-215.077"/>
</g>
<!-- 3&#45;&gt;7 -->
<g id="edge17" class="edge"><title>3&#45;&gt;7</title>
<path fill="none" stroke="black" stroke-width="2" d="M73.1426,-228.059C72.8899,-215.682 72.568,-199.912 72.2873,-186.167"/>
<polygon fill="black" stroke="black" stroke-width="2" points="75.7861,-186.066 72.0826,-176.14 68.7876,-186.209 75.7861,-186.066"/>
</g>
<!-- 4&#45;&gt;0 -->
<g id="edge2" class="edge"><title>4&#45;&gt;0</title>
<path fill="none" stroke="black" stroke-width="2" d="M202.415,-53.5271C182.5,-53.3493 152.148,-52.2001 126.228,-47.5175 113.172,-45.1591 99.1101,-41.1224 87.126,-37.2069"/>
<polygon fill="black" stroke="black" stroke-width="2" points="88.2101,-33.8788 77.6158,-33.9858 85.9645,-40.5088 88.2101,-33.8788"/>
</g>
<!-- 5&#45;&gt;1 -->
<g id="edge8" class="edge"><title>5&#45;&gt;1</title>
<path fill="none" stroke="black" stroke-width="2" d="M42.5301,-125.465C51.5994,-125.59 62.2344,-126.296 71.6459,-128.385 103.603,-135.48 134.071,-158.146 153.785,-175.654"/>
<polygon fill="black" stroke="black" stroke-width="2" points="151.561,-178.363 161.296,-182.543 156.292,-173.204 151.561,-178.363"/>
</g>
<!-- 5&#45;&gt;2 -->
<g id="edge12" class="edge"><title>5&#45;&gt;2</title>
<path fill="none" stroke="black" stroke-width="2" d="M36.2648,-111.12C53.9731,-93.4302 83.5385,-63.896 103.923,-43.5326"/>
<polygon fill="black" stroke="black" stroke-width="2" points="106.641,-45.7645 111.243,-36.221 101.694,-40.8122 106.641,-45.7645"/>
</g>
<!-- 5&#45;&gt;3 -->
<g id="edge15" class="edge"><title>5&#45;&gt;3</title>
<path fill="none" stroke="black" stroke-width="2" d="M29.5112,-145.715C38.041,-165.82 51.4215,-197.359 61.2027,-220.414"/>
<polygon fill="black" stroke="black" stroke-width="2" points="58.022,-221.879 65.1497,-229.718 64.4661,-219.145 58.022,-221.879"/>
</g>
<!-- 5&#45;&gt;7 -->
<g id="edge19" class="edge"><title>5&#45;&gt;7</title>
<path fill="none" stroke="black" stroke-width="2" d="M39.7056,-136.619C41.2131,-137.471 42.7552,-138.344 44.3081,-139.223"/>
<polygon fill="black" stroke="black" stroke-width="2" points="42.7274,-142.35 53.1544,-144.228 46.1745,-136.257 42.7274,-142.35"/>
</g>
<!-- 6&#45;&gt;2 -->
<g id="edge13" class="edge"><title>6&#45;&gt;2</title>
<path fill="none" stroke="black" stroke-width="2" d="M132.984,-101.535C131.8,-87.3839 130.234,-68.6542 128.911,-52.841"/>
<polygon fill="black" stroke="black" stroke-width="2" points="132.364,-52.125 128.043,-42.4515 125.388,-52.7084 132.364,-52.125"/>
</g>
<!-- 6&#45;&gt;3 -->
<g id="edge16" class="edge"><title>6&#45;&gt;3</title>
<path fill="none" stroke="black" stroke-width="2" d="M125.495,-142.357C115.339,-163.338 98.9671,-197.157 87.3263,-221.203"/>
<polygon fill="black" stroke="black" stroke-width="2" points="84.1732,-219.684 82.9662,-230.21 90.4738,-222.734 84.1732,-219.684"/>
</g>
<!-- 6&#45;&gt;5 -->
<g id="edge18" class="edge"><title>6&#45;&gt;5</title>
<path fill="none" stroke="black" stroke-width="2" d="M113.429,-123.718C96.2953,-124.171 71.9992,-124.813 52.6466,-125.325"/>
<polygon fill="black" stroke="black" stroke-width="2" points="52.3847,-121.83 42.4807,-125.593 52.5697,-128.828 52.3847,-121.83"/>
</g>
<!-- 7&#45;&gt;2 -->
<g id="edge14" class="edge"><title>7&#45;&gt;2</title>
<path fill="none" stroke="black" stroke-width="2" d="M79.7043,-134.995C88.8212,-112.716 103.762,-76.2072 114.254,-50.5665"/>
<polygon fill="black" stroke="black" stroke-width="2" points="117.625,-51.5696 118.174,-40.9889 111.147,-48.9184 117.625,-51.5696"/>
</g>
<!-- 7&#45;&gt;6 -->
<g id="edge20" class="edge"><title>7&#45;&gt;6</title>
<path fill="none" stroke="black" stroke-width="2" d="M90.934,-145.057C95.8305,-142.611 101.194,-139.933 106.438,-137.314"/>
<polygon fill="black" stroke="black" stroke-width="2" points="108.238,-140.327 115.621,-132.728 105.11,-134.065 108.238,-140.327"/>
</g>
</g>
</svg>

