<?xml version="1.0" encoding="UTF-8" standalone="no"?>
<!DOCTYPE svg PUBLIC "-//W3C//DTD SVG 1.1//EN"
 "http://www.w3.org/Graphics/SVG/1.1/DTD/svg11.dtd">
<!-- Generated by graphviz version 2.36.0 (20140111.2315)
 -->
<!-- Title: G Pages: 1 -->
<svg width="100%" height="100%"
 viewBox="0.00 0.00 259.61 273.06" xmlns="http://www.w3.org/2000/svg" xmlns:xlink="http://www.w3.org/1999/xlink">
<g id="graph0" class="graph" transform="scale(1 1) rotate(0) translate(4 269.056)">
<title>G</title>
<!-- 0 -->
<g id="node1" class="node"><title>0</title>
<ellipse fill="cadetblue" stroke="black" cx="149.832" cy="-71.6447" rx="21.4286" ry="21.4286"/>
<text text-anchor="middle" x="149.832" y="-66.6447" font-family="Times New Roman,serif" font-size="20.00">2</text>
</g>
<!-- 5 -->
<g id="node6" class="node"><title>5</title>
<ellipse fill="brown" stroke="black" cx="21.2132" cy="-93.3888" rx="21.4286" ry="21.4286"/>
<text text-anchor="middle" x="21.2132" y="-88.3888" font-family="Times New Roman,serif" font-size="20.00">3</text>
</g>
<!-- 0&#45;&gt;5 -->
<g id="edge3" class="edge"><title>0&#45;&gt;5</title>
<path fill="none" stroke="black" stroke-width="2" d="M128.881,-75.1866C108.047,-78.7088 75.8478,-84.1523 52.0859,-88.1695"/>
<polygon fill="black" stroke="black" stroke-width="2" points="51.432,-84.7303 42.1554,-89.8483 52.5989,-91.6323 51.432,-84.7303"/>
</g>
<!-- 6 -->
<g id="node7" class="node"><title>6</title>
<ellipse fill="brown" stroke="black" cx="179.78" cy="-178.829" rx="21.4286" ry="21.4286"/>
<text text-anchor="middle" x="179.78" y="-173.829" font-family="Times New Roman,serif" font-size="20.00">3</text>
</g>
<!-- 0&#45;&gt;6 -->
<g id="edge4" class="edge"><title>0&#45;&gt;6</title>
<path fill="none" stroke="black" stroke-width="2" d="M155.607,-92.3109C160.06,-108.251 166.287,-130.536 171.305,-148.497"/>
<polygon fill="black" stroke="black" stroke-width="2" points="167.961,-149.537 174.023,-158.226 174.703,-147.653 167.961,-149.537"/>
</g>
<!-- 7 -->
<g id="node8" class="node"><title>7</title>
<ellipse fill="cadetblue" stroke="black" cx="89.8591" cy="-145.234" rx="21.4286" ry="21.4286"/>
<text text-anchor="middle" x="89.8591" y="-140.234" font-family="Times New Roman,serif" font-size="20.00">2</text>
</g>
<!-- 0&#45;&gt;7 -->
<g id="edge5" class="edge"><title>0&#45;&gt;7</title>
<path fill="none" stroke="black" stroke-width="2" d="M136.224,-88.3431C128.402,-97.9401 118.437,-110.168 109.75,-120.826"/>
<polygon fill="black" stroke="black" stroke-width="2" points="107.019,-118.638 103.414,-128.601 112.445,-123.061 107.019,-118.638"/>
</g>
<!-- 1 -->
<g id="node2" class="node"><title>1</title>
<ellipse fill="cadetblue" stroke="black" cx="165.779" cy="-243.843" rx="21.4286" ry="21.4286"/>
<text text-anchor="middle" x="165.779" y="-238.843" font-family="Times New Roman,serif" font-size="20.00">2</text>
</g>
<!-- 1&#45;&gt;6 -->
<g id="edge8" class="edge"><title>1&#45;&gt;6</title>
<path fill="none" stroke="black" stroke-width="2" d="M170.286,-222.915C171.185,-218.739 172.148,-214.269 173.102,-209.837"/>
<polygon fill="black" stroke="black" stroke-width="2" points="176.597,-210.231 175.281,-199.719 169.754,-208.758 176.597,-210.231"/>
</g>
<!-- 1&#45;&gt;7 -->
<g id="edge9" class="edge"><title>1&#45;&gt;7</title>
<path fill="none" stroke="black" stroke-width="2" d="M152.555,-226.667C140.58,-211.113 122.788,-188.003 109.213,-170.372"/>
<polygon fill="black" stroke="black" stroke-width="2" points="111.806,-168.002 102.932,-162.213 106.259,-172.272 111.806,-168.002"/>
</g>
<!-- 2 -->
<g id="node3" class="node"><title>2</title>
<ellipse fill="cadetblue" stroke="black" cx="106.402" cy="-21.2132" rx="21.4286" ry="21.4286"/>
<text text-anchor="middle" x="106.402" y="-16.2132" font-family="Times New Roman,serif" font-size="20.00">2</text>
</g>
<!-- 2&#45;&gt;0 -->
<g id="edge1" class="edge"><title>2&#45;&gt;0</title>
<path fill="none" stroke="black" stroke-width="2" d="M120.383,-37.4476C123.172,-40.687 126.158,-44.1538 129.119,-47.5918"/>
<polygon fill="black" stroke="black" stroke-width="2" points="126.7,-50.1471 135.878,-55.4406 132.004,-45.5792 126.7,-50.1471"/>
</g>
<!-- 4 -->
<g id="node5" class="node"><title>4</title>
<ellipse fill="cadetblue" stroke="black" cx="230.393" cy="-106.859" rx="21.4286" ry="21.4286"/>
<text text-anchor="middle" x="230.393" y="-101.859" font-family="Times New Roman,serif" font-size="20.00">2</text>
</g>
<!-- 2&#45;&gt;4 -->
<g id="edge10" class="edge"><title>2&#45;&gt;4</title>
<path fill="none" stroke="black" stroke-width="2" d="M126.089,-29.8253C138.639,-35.6717 155.01,-43.9717 168.449,-53.0617 182.121,-62.3084 196.107,-74.2062 207.322,-84.4608"/>
<polygon fill="black" stroke="black" stroke-width="2" points="205.253,-87.3171 214.954,-91.5759 210.026,-82.1968 205.253,-87.3171"/>
</g>
<!-- 3 -->
<g id="node4" class="node"><title>3</title>
<ellipse fill="cadetblue" stroke="black" cx="56.5353" cy="-224.265" rx="21.4286" ry="21.4286"/>
<text text-anchor="middle" x="56.5353" y="-219.265" font-family="Times New Roman,serif" font-size="20.00">2</text>
</g>
<!-- 3&#45;&gt;1 -->
<g id="edge6" class="edge"><title>3&#45;&gt;1</title>
<path fill="none" stroke="black" stroke-width="2" d="M77.5985,-228.04C93.8449,-230.951 116.558,-235.022 134.864,-238.303"/>
<polygon fill="black" stroke="black" stroke-width="2" points="134.32,-241.761 144.78,-240.08 135.555,-234.871 134.32,-241.761"/>
</g>
<!-- 3&#45;&gt;5 -->
<g id="edge13" class="edge"><title>3&#45;&gt;5</title>
<path fill="none" stroke="black" stroke-width="2" d="M50.9384,-203.527C45.1511,-182.084 36.0534,-148.375 29.4462,-123.894"/>
<polygon fill="black" stroke="black" stroke-width="2" points="32.7687,-122.772 26.7839,-114.029 26.0105,-124.596 32.7687,-122.772"/>
</g>
<!-- 4&#45;&gt;0 -->
<g id="edge2" class="edge"><title>4&#45;&gt;0</title>
<path fill="none" stroke="black" stroke-width="2" d="M210.892,-98.3345C201.266,-94.1267 189.459,-88.9659 178.802,-84.3076"/>
<polygon fill="black" stroke="black" stroke-width="2" points="179.998,-81.0108 169.434,-80.2126 177.195,-87.4249 179.998,-81.0108"/>
</g>
<!-- 4&#45;&gt;1 -->
<g id="edge7" class="edge"><title>4&#45;&gt;1</title>
<path fill="none" stroke="black" stroke-width="2" d="M225.19,-127.457C219.938,-146.365 210.824,-174.797 198.358,-197.451 194.508,-204.446 189.827,-211.667 185.228,-218.267"/>
<polygon fill="black" stroke="black" stroke-width="2" points="182.086,-216.641 179.092,-226.804 187.77,-220.726 182.086,-216.641"/>
</g>
<!-- 5&#45;&gt;2 -->
<g id="edge11" class="edge"><title>5&#45;&gt;2</title>
<path fill="none" stroke="black" stroke-width="2" d="M37.6384,-79.4726C50.2485,-68.7888 67.8547,-53.872 82.0948,-41.8071"/>
<polygon fill="black" stroke="black" stroke-width="2" points="84.6597,-44.2214 90.027,-35.0867 80.1347,-38.8805 84.6597,-44.2214"/>
</g>
<!-- 6&#45;&gt;3 -->
<g id="edge14" class="edge"><title>6&#45;&gt;3</title>
<path fill="none" stroke="black" stroke-width="2" d="M159.704,-186.23C139.74,-193.59 108.887,-204.965 86.1179,-213.359"/>
<polygon fill="black" stroke="black" stroke-width="2" points="84.7743,-210.124 76.6023,-216.867 87.1957,-216.692 84.7743,-210.124"/>
</g>
<!-- 6&#45;&gt;4 -->
<g id="edge16" class="edge"><title>6&#45;&gt;4</title>
<path fill="none" stroke="black" stroke-width="2" d="M192.032,-161.407C198.08,-152.807 205.497,-142.26 212.193,-132.739"/>
<polygon fill="black" stroke="black" stroke-width="2" points="215.189,-134.563 218.079,-124.37 209.463,-130.536 215.189,-134.563"/>
</g>
<!-- 7&#45;&gt;2 -->
<g id="edge12" class="edge"><title>7&#45;&gt;2</title>
<path fill="none" stroke="black" stroke-width="2" d="M92.6653,-124.195C95.2914,-104.507 99.2479,-74.846 102.241,-52.4051"/>
<polygon fill="black" stroke="black" stroke-width="2" points="105.729,-52.7298 103.582,-42.3548 98.7903,-51.8042 105.729,-52.7298"/>
</g>
<!-- 7&#45;&gt;3 -->
<g id="edge15" class="edge"><title>7&#45;&gt;3</title>
<path fill="none" stroke="black" stroke-width="2" d="M81.4501,-165.176C77.5927,-174.325 72.9457,-185.346 68.7152,-195.379"/>
<polygon fill="black" stroke="black" stroke-width="2" points="65.4864,-194.028 64.8261,-204.602 71.9365,-196.748 65.4864,-194.028"/>
</g>
<!-- 7&#45;&gt;5 -->
<g id="edge17" class="edge"><title>7&#45;&gt;5</title>
<path fill="none" stroke="black" stroke-width="2" d="M72.8904,-132.418C64.9473,-126.419 55.3215,-119.149 46.5407,-112.517"/>
<polygon fill="black" stroke="black" stroke-width="2" points="48.5527,-109.651 38.4635,-106.417 44.3339,-115.237 48.5527,-109.651"/>
</g>
<!-- 7&#45;&gt;6 -->
<g id="edge18" class="edge"><title>7&#45;&gt;6</title>
<path fill="none" stroke="black" stroke-width="2" d="M109.815,-152.69C121.69,-157.126 136.976,-162.837 150.23,-167.789"/>
<polygon fill="black" stroke="black" stroke-width="2" points="149.287,-171.173 159.879,-171.394 151.737,-164.616 149.287,-171.173"/>
</g>
</g>
</svg>

