<?xml version="1.0" encoding="UTF-8" standalone="no"?>
<!DOCTYPE svg PUBLIC "-//W3C//DTD SVG 1.1//EN"
 "http://www.w3.org/Graphics/SVG/1.1/DTD/svg11.dtd">
<!-- Generated by graphviz version 2.36.0 (20140111.2315)
 -->
<!-- Title: G Pages: 1 -->
<svg width="100%" height="100%"
 viewBox="0.00 0.00 208.45 226.13" xmlns="http://www.w3.org/2000/svg" xmlns:xlink="http://www.w3.org/1999/xlink">
<g id="graph0" class="graph" transform="scale(1 1) rotate(0) translate(4 222.133)">
<title>G</title>
<!-- 0 -->
<g id="node1" class="node"><title>0</title>
<ellipse fill="cadetblue" stroke="black" cx="71.8409" cy="-50.2631" rx="21.4286" ry="21.4286"/>
<text text-anchor="middle" x="71.8409" y="-45.2631" font-family="Times New Roman,serif" font-size="20.00">2</text>
</g>
<!-- 2 -->
<g id="node3" class="node"><title>2</title>
<ellipse fill="cadetblue" stroke="black" cx="128.805" cy="-21.2132" rx="21.4286" ry="21.4286"/>
<text text-anchor="middle" x="128.805" y="-16.2132" font-family="Times New Roman,serif" font-size="20.00">2</text>
</g>
<!-- 0&#45;&gt;2 -->
<g id="edge1" class="edge"><title>0&#45;&gt;2</title>
<path fill="none" stroke="black" stroke-width="2" d="M90.8092,-40.5899C93.9467,-38.9899 97.2581,-37.3012 100.565,-35.6147"/>
<polygon fill="black" stroke="black" stroke-width="2" points="102.407,-38.6042 109.726,-30.9432 99.2271,-32.3683 102.407,-38.6042"/>
</g>
<!-- 4 -->
<g id="node5" class="node"><title>4</title>
<ellipse fill="cadetblue" stroke="black" cx="179.237" cy="-50.6402" rx="21.4286" ry="21.4286"/>
<text text-anchor="middle" x="179.237" y="-45.6402" font-family="Times New Roman,serif" font-size="20.00">2</text>
</g>
<!-- 0&#45;&gt;4 -->
<g id="edge2" class="edge"><title>0&#45;&gt;4</title>
<path fill="none" stroke="black" stroke-width="2" d="M93.0589,-50.3376C108.55,-50.392 129.817,-50.4666 147.348,-50.5282"/>
<polygon fill="black" stroke="black" stroke-width="2" points="147.683,-54.0293 157.695,-50.5645 147.708,-47.0293 147.683,-54.0293"/>
</g>
<!-- 5 -->
<g id="node6" class="node"><title>5</title>
<ellipse fill="cadetblue" stroke="black" cx="21.2132" cy="-133.267" rx="21.4286" ry="21.4286"/>
<text text-anchor="middle" x="21.2132" y="-128.267" font-family="Times New Roman,serif" font-size="20.00">2</text>
</g>
<!-- 0&#45;&gt;5 -->
<g id="edge3" class="edge"><title>0&#45;&gt;5</title>
<path fill="none" stroke="black" stroke-width="2" d="M60.6049,-68.6843C53.8537,-79.7529 45.1436,-94.0331 37.6312,-106.35"/>
<polygon fill="black" stroke="black" stroke-width="2" points="34.637,-104.537 32.4177,-114.897 40.613,-108.182 34.637,-104.537"/>
</g>
<!-- 1 -->
<g id="node2" class="node"><title>1</title>
<ellipse fill="cadetblue" stroke="black" cx="62.15" cy="-190.42" rx="21.4286" ry="21.4286"/>
<text text-anchor="middle" x="62.15" y="-185.42" font-family="Times New Roman,serif" font-size="20.00">2</text>
</g>
<!-- 3 -->
<g id="node4" class="node"><title>3</title>
<ellipse fill="brown" stroke="black" cx="118.869" cy="-196.92" rx="21.4286" ry="21.4286"/>
<text text-anchor="middle" x="118.869" y="-191.92" font-family="Times New Roman,serif" font-size="20.00">3</text>
</g>
<!-- 1&#45;&gt;3 -->
<g id="edge6" class="edge"><title>1&#45;&gt;3</title>
<path fill="none" stroke="black" stroke-width="2" d="M83.2703,-192.84C84.5813,-192.99 85.9144,-193.143 87.2575,-193.297"/>
<polygon fill="black" stroke="black" stroke-width="2" points="87.2089,-196.814 97.5424,-194.476 88.006,-189.86 87.2089,-196.814"/>
</g>
<!-- 1&#45;&gt;5 -->
<g id="edge7" class="edge"><title>1&#45;&gt;5</title>
<path fill="none" stroke="black" stroke-width="2" d="M49.6452,-172.962C46.4709,-168.53 42.9939,-163.675 39.5945,-158.929"/>
<polygon fill="black" stroke="black" stroke-width="2" points="42.31,-156.71 33.6415,-150.618 36.6192,-160.786 42.31,-156.71"/>
</g>
<!-- 2&#45;&gt;4 -->
<g id="edge10" class="edge"><title>2&#45;&gt;4</title>
<path fill="none" stroke="black" stroke-width="2" d="M147.298,-32.0036C148.805,-32.8833 150.347,-33.7831 151.9,-34.6892"/>
<polygon fill="black" stroke="black" stroke-width="2" points="150.346,-37.8342 160.747,-39.8511 153.873,-31.7882 150.346,-37.8342"/>
</g>
<!-- 7 -->
<g id="node8" class="node"><title>7</title>
<ellipse fill="brown" stroke="black" cx="96.7249" cy="-108.886" rx="21.4286" ry="21.4286"/>
<text text-anchor="middle" x="96.7249" y="-103.886" font-family="Times New Roman,serif" font-size="20.00">3</text>
</g>
<!-- 2&#45;&gt;7 -->
<g id="edge12" class="edge"><title>2&#45;&gt;7</title>
<path fill="none" stroke="black" stroke-width="2" d="M121.365,-41.5474C117.246,-52.8033 112.054,-66.9943 107.498,-79.4431"/>
<polygon fill="black" stroke="black" stroke-width="2" points="104.164,-78.3703 104.014,-88.9641 110.738,-80.7757 104.164,-78.3703"/>
</g>
<!-- 6 -->
<g id="node7" class="node"><title>6</title>
<ellipse fill="cadetblue" stroke="black" cx="149.259" cy="-125.96" rx="21.4286" ry="21.4286"/>
<text text-anchor="middle" x="149.259" y="-120.96" font-family="Times New Roman,serif" font-size="20.00">2</text>
</g>
<!-- 3&#45;&gt;6 -->
<g id="edge14" class="edge"><title>3&#45;&gt;6</title>
<path fill="none" stroke="black" stroke-width="2" d="M127.335,-177.154C130.232,-170.387 133.539,-162.665 136.691,-155.307"/>
<polygon fill="black" stroke="black" stroke-width="2" points="140.119,-156.191 140.839,-145.621 133.685,-153.435 140.119,-156.191"/>
</g>
<!-- 4&#45;&gt;7 -->
<g id="edge16" class="edge"><title>4&#45;&gt;7</title>
<path fill="none" stroke="black" stroke-width="2" d="M161.738,-62.9926C150.361,-71.0237 135.328,-81.636 122.583,-90.6325"/>
<polygon fill="black" stroke="black" stroke-width="2" points="120.35,-87.9248 114.198,-96.5511 124.386,-93.6435 120.35,-87.9248"/>
</g>
<!-- 5&#45;&gt;3 -->
<g id="edge13" class="edge"><title>5&#45;&gt;3</title>
<path fill="none" stroke="black" stroke-width="2" d="M39.2315,-144.896C51.0661,-152.545 66.8794,-162.788 80.8177,-171.888 84.6456,-174.387 88.6852,-177.034 92.6457,-179.635"/>
<polygon fill="black" stroke="black" stroke-width="2" points="90.798,-182.608 101.076,-185.178 94.6439,-176.76 90.798,-182.608"/>
</g>
<!-- 5&#45;&gt;7 -->
<g id="edge17" class="edge"><title>5&#45;&gt;7</title>
<path fill="none" stroke="black" stroke-width="2" d="M41.4489,-126.733C49.2361,-124.219 58.3008,-121.292 66.8097,-118.545"/>
<polygon fill="black" stroke="black" stroke-width="2" points="67.9925,-121.841 76.4333,-115.437 65.8416,-115.179 67.9925,-121.841"/>
</g>
<!-- 6&#45;&gt;0 -->
<g id="edge4" class="edge"><title>6&#45;&gt;0</title>
<path fill="none" stroke="black" stroke-width="2" d="M134.614,-110.115C128.713,-103.849 121.785,-96.6406 115.326,-90.2866 108.912,-83.9771 101.79,-77.2942 95.1975,-71.2339"/>
<polygon fill="black" stroke="black" stroke-width="2" points="97.5232,-68.6179 87.776,-64.4654 92.8061,-73.79 97.5232,-68.6179"/>
</g>
<!-- 6&#45;&gt;1 -->
<g id="edge8" class="edge"><title>6&#45;&gt;1</title>
<path fill="none" stroke="black" stroke-width="2" d="M132.049,-138.696C119.402,-148.054 102.009,-160.925 87.7369,-171.486"/>
<polygon fill="black" stroke="black" stroke-width="2" points="85.2807,-168.949 79.3241,-177.711 89.4446,-174.576 85.2807,-168.949"/>
</g>
<!-- 6&#45;&gt;2 -->
<g id="edge11" class="edge"><title>6&#45;&gt;2</title>
<path fill="none" stroke="black" stroke-width="2" d="M145.169,-105.015C142.215,-89.8859 138.176,-69.2046 134.851,-52.173"/>
<polygon fill="black" stroke="black" stroke-width="2" points="138.24,-51.2662 132.888,-42.1223 131.37,-52.6077 138.24,-51.2662"/>
</g>
<!-- 7&#45;&gt;0 -->
<g id="edge5" class="edge"><title>7&#45;&gt;0</title>
<path fill="none" stroke="black" stroke-width="2" d="M88.3003,-89.0388C87.0031,-85.9828 85.6407,-82.7732 84.2783,-79.5637"/>
<polygon fill="black" stroke="black" stroke-width="2" points="87.3859,-77.927 80.2568,-70.0896 80.9424,-80.6622 87.3859,-77.927"/>
</g>
<!-- 7&#45;&gt;1 -->
<g id="edge9" class="edge"><title>7&#45;&gt;1</title>
<path fill="none" stroke="black" stroke-width="2" d="M88.3553,-128.623C84.1933,-138.438 79.0817,-150.492 74.4815,-161.34"/>
<polygon fill="black" stroke="black" stroke-width="2" points="71.1244,-160.292 70.4426,-170.864 77.5689,-163.024 71.1244,-160.292"/>
</g>
<!-- 7&#45;&gt;3 -->
<g id="edge15" class="edge"><title>7&#45;&gt;3</title>
<path fill="none" stroke="black" stroke-width="2" d="M101.973,-129.749C104.731,-140.712 108.162,-154.355 111.211,-166.476"/>
<polygon fill="black" stroke="black" stroke-width="2" points="107.825,-167.363 113.659,-176.207 114.614,-165.655 107.825,-167.363"/>
</g>
<!-- 7&#45;&gt;6 -->
<g id="edge18" class="edge"><title>7&#45;&gt;6</title>
<path fill="none" stroke="black" stroke-width="2" d="M117.186,-115.536C117.78,-115.729 118.379,-115.924 118.98,-116.119"/>
<polygon fill="black" stroke="black" stroke-width="2" points="118.175,-119.538 128.767,-119.3 120.338,-112.88 118.175,-119.538"/>
</g>
</g>
</svg>

