<?xml version="1.0" encoding="UTF-8" standalone="no"?>
<!DOCTYPE svg PUBLIC "-//W3C//DTD SVG 1.1//EN"
 "http://www.w3.org/Graphics/SVG/1.1/DTD/svg11.dtd">
<!-- Generated by graphviz version 2.36.0 (20140111.2315)
 -->
<!-- Title: G Pages: 1 -->
<svg width="100%" height="100%"
 viewBox="0.00 0.00 347.46 373.49" xmlns="http://www.w3.org/2000/svg" xmlns:xlink="http://www.w3.org/1999/xlink">
<g id="graph0" class="graph" transform="scale(1 1) rotate(0) translate(4 369.491)">
<title>G</title>
<!-- 0 -->
<g id="node1" class="node"><title>0</title>
<ellipse fill="cadetblue" stroke="black" cx="112.795" cy="-48.715" rx="21.4286" ry="21.4286"/>
<text text-anchor="middle" x="112.795" y="-43.715" font-family="Times New Roman,serif" font-size="20.00">2</text>
</g>
<!-- 4 -->
<g id="node5" class="node"><title>4</title>
<ellipse fill="cadetblue" stroke="black" cx="318.252" cy="-92.3627" rx="21.4286" ry="21.4286"/>
<text text-anchor="middle" x="318.252" y="-87.3627" font-family="Times New Roman,serif" font-size="20.00">2</text>
</g>
<!-- 0&#45;&gt;4 -->
<g id="edge2" class="edge"><title>0&#45;&gt;4</title>
<path fill="none" stroke="black" stroke-width="2" d="M133.626,-53.1403C169.928,-60.8525 244.951,-76.7904 287.336,-85.7949"/>
<polygon fill="black" stroke="black" stroke-width="2" points="286.857,-89.271 297.366,-87.9256 288.311,-82.4238 286.857,-89.271"/>
</g>
<!-- 6 -->
<g id="node7" class="node"><title>6</title>
<ellipse fill="cadetblue" stroke="black" cx="181.476" cy="-217.106" rx="21.4286" ry="21.4286"/>
<text text-anchor="middle" x="181.476" y="-212.106" font-family="Times New Roman,serif" font-size="20.00">2</text>
</g>
<!-- 0&#45;&gt;6 -->
<g id="edge4" class="edge"><title>0&#45;&gt;6</title>
<path fill="none" stroke="black" stroke-width="2" d="M128.293,-63.7146C148.278,-84.5541 181.186,-124.489 187.146,-166.676 188.014,-172.824 187.975,-179.408 187.462,-185.723"/>
<polygon fill="black" stroke="black" stroke-width="2" points="183.949,-185.624 186.228,-195.971 190.899,-186.461 183.949,-185.624"/>
</g>
<!-- 7 -->
<g id="node8" class="node"><title>7</title>
<ellipse fill="cadetblue" stroke="black" cx="160.842" cy="-166.675" rx="21.4286" ry="21.4286"/>
<text text-anchor="middle" x="160.842" y="-161.675" font-family="Times New Roman,serif" font-size="20.00">2</text>
</g>
<!-- 0&#45;&gt;7 -->
<g id="edge5" class="edge"><title>0&#45;&gt;7</title>
<path fill="none" stroke="black" stroke-width="2" d="M120.837,-68.4588C128.528,-87.3416 140.219,-116.044 148.979,-137.552"/>
<polygon fill="black" stroke="black" stroke-width="2" points="145.76,-138.926 152.773,-146.867 152.243,-136.285 145.76,-138.926"/>
</g>
<!-- 1 -->
<g id="node2" class="node"><title>1</title>
<ellipse fill="cadetblue" stroke="black" cx="41.671" cy="-313.811" rx="21.4286" ry="21.4286"/>
<text text-anchor="middle" x="41.671" y="-308.811" font-family="Times New Roman,serif" font-size="20.00">2</text>
</g>
<!-- 1&#45;&gt;6 -->
<g id="edge8" class="edge"><title>1&#45;&gt;6</title>
<path fill="none" stroke="black" stroke-width="2" d="M59.3774,-301.563C83.6434,-284.778 127.406,-254.507 155.417,-235.132"/>
<polygon fill="black" stroke="black" stroke-width="2" points="157.68,-237.822 163.913,-229.255 153.698,-232.065 157.68,-237.822"/>
</g>
<!-- 1&#45;&gt;7 -->
<g id="edge9" class="edge"><title>1&#45;&gt;7</title>
<path fill="none" stroke="black" stroke-width="2" d="M55.1097,-297.219C76.0304,-271.389 116.507,-221.414 140.858,-191.348"/>
<polygon fill="black" stroke="black" stroke-width="2" points="143.695,-193.406 147.269,-183.432 138.255,-189 143.695,-193.406"/>
</g>
<!-- 2 -->
<g id="node3" class="node"><title>2</title>
<ellipse fill="brown" stroke="black" cx="228.837" cy="-21.2132" rx="21.4286" ry="21.4286"/>
<text text-anchor="middle" x="228.837" y="-16.2132" font-family="Times New Roman,serif" font-size="20.00">3</text>
</g>
<!-- 2&#45;&gt;0 -->
<g id="edge1" class="edge"><title>2&#45;&gt;0</title>
<path fill="none" stroke="black" stroke-width="2" d="M208.091,-26.13C190.133,-30.3859 163.915,-36.5997 143.522,-41.4327"/>
<polygon fill="black" stroke="black" stroke-width="2" points="142.676,-38.0362 133.752,-43.748 144.29,-44.8475 142.676,-38.0362"/>
</g>
<!-- 3 -->
<g id="node4" class="node"><title>3</title>
<ellipse fill="brown" stroke="black" cx="159.209" cy="-344.278" rx="21.4286" ry="21.4286"/>
<text text-anchor="middle" x="159.209" y="-339.278" font-family="Times New Roman,serif" font-size="20.00">3</text>
</g>
<!-- 3&#45;&gt;1 -->
<g id="edge6" class="edge"><title>3&#45;&gt;1</title>
<path fill="none" stroke="black" stroke-width="2" d="M138.466,-338.901C120.087,-334.137 93.0113,-327.119 72.1663,-321.716"/>
<polygon fill="black" stroke="black" stroke-width="2" points="72.7648,-318.255 62.2065,-319.134 71.0084,-325.031 72.7648,-318.255"/>
</g>
<!-- 4&#45;&gt;2 -->
<g id="edge10" class="edge"><title>4&#45;&gt;2</title>
<path fill="none" stroke="black" stroke-width="2" d="M301.433,-78.98C287.945,-68.2472 268.818,-53.0273 253.583,-40.9042"/>
<polygon fill="black" stroke="black" stroke-width="2" points="255.584,-38.0237 245.58,-34.5359 251.225,-43.5012 255.584,-38.0237"/>
</g>
<!-- 5 -->
<g id="node6" class="node"><title>5</title>
<ellipse fill="cadetblue" stroke="black" cx="21.2132" cy="-192.374" rx="21.4286" ry="21.4286"/>
<text text-anchor="middle" x="21.2132" y="-187.374" font-family="Times New Roman,serif" font-size="20.00">2</text>
</g>
<!-- 5&#45;&gt;0 -->
<g id="edge3" class="edge"><title>5&#45;&gt;0</title>
<path fill="none" stroke="black" stroke-width="2" d="M32.6269,-174.47C48.4626,-149.63 77.2246,-104.512 95.6484,-75.6118"/>
<polygon fill="black" stroke="black" stroke-width="2" points="98.8131,-77.1585 101.237,-66.8447 92.9105,-73.3956 98.8131,-77.1585"/>
</g>
<!-- 5&#45;&gt;1 -->
<g id="edge7" class="edge"><title>5&#45;&gt;1</title>
<path fill="none" stroke="black" stroke-width="2" d="M24.7767,-213.527C27.9839,-232.565 32.7395,-260.794 36.3888,-282.456"/>
<polygon fill="black" stroke="black" stroke-width="2" points="32.967,-283.214 38.0797,-292.493 39.8698,-282.051 32.967,-283.214"/>
</g>
<!-- 5&#45;&gt;3 -->
<g id="edge13" class="edge"><title>5&#45;&gt;3</title>
<path fill="none" stroke="black" stroke-width="2" d="M35.7204,-208.344C60.113,-235.195 109.452,-289.506 137.825,-320.739"/>
<polygon fill="black" stroke="black" stroke-width="2" points="135.581,-323.474 144.896,-328.523 140.763,-318.768 135.581,-323.474"/>
</g>
<!-- 6&#45;&gt;2 -->
<g id="edge11" class="edge"><title>6&#45;&gt;2</title>
<path fill="none" stroke="black" stroke-width="2" d="M186.545,-196.142C194.93,-161.458 211.728,-91.98 221.44,-51.8086"/>
<polygon fill="black" stroke="black" stroke-width="2" points="224.857,-52.5689 223.805,-42.0265 218.053,-50.9239 224.857,-52.5689"/>
</g>
<!-- 6&#45;&gt;3 -->
<g id="edge14" class="edge"><title>6&#45;&gt;3</title>
<path fill="none" stroke="black" stroke-width="2" d="M177.799,-238.106C174.221,-258.54 168.742,-289.832 164.658,-313.158"/>
<polygon fill="black" stroke="black" stroke-width="2" points="161.169,-312.793 162.891,-323.247 168.064,-314.001 161.169,-312.793"/>
</g>
<!-- 6&#45;&gt;5 -->
<g id="edge17" class="edge"><title>6&#45;&gt;5</title>
<path fill="none" stroke="black" stroke-width="2" d="M160.194,-213.822C132.579,-209.56 84.1795,-202.091 52.4101,-197.189"/>
<polygon fill="black" stroke="black" stroke-width="2" points="52.7445,-193.699 42.3276,-195.633 51.6768,-200.617 52.7445,-193.699"/>
</g>
<!-- 7&#45;&gt;2 -->
<g id="edge12" class="edge"><title>7&#45;&gt;2</title>
<path fill="none" stroke="black" stroke-width="2" d="M169.871,-147.359C181.555,-122.363 202.008,-78.6074 215.489,-49.7688"/>
<polygon fill="black" stroke="black" stroke-width="2" points="218.706,-51.1506 219.77,-40.6093 212.365,-48.1863 218.706,-51.1506"/>
</g>
<!-- 7&#45;&gt;3 -->
<g id="edge15" class="edge"><title>7&#45;&gt;3</title>
<path fill="none" stroke="black" stroke-width="2" d="M157.792,-187.712C156.662,-196.731 155.561,-207.397 155.172,-217.075 153.86,-249.722 155.411,-287.096 156.955,-312.843"/>
<polygon fill="black" stroke="black" stroke-width="2" points="153.481,-313.359 157.608,-323.117 160.467,-312.916 153.481,-313.359"/>
</g>
<!-- 7&#45;&gt;4 -->
<g id="edge16" class="edge"><title>7&#45;&gt;4</title>
<path fill="none" stroke="black" stroke-width="2" d="M180.143,-157.563C207.522,-144.637 257.83,-120.887 289.58,-105.898"/>
<polygon fill="black" stroke="black" stroke-width="2" points="291.243,-108.984 298.792,-101.549 288.255,-102.653 291.243,-108.984"/>
</g>
<!-- 7&#45;&gt;5 -->
<g id="edge18" class="edge"><title>7&#45;&gt;5</title>
<path fill="none" stroke="black" stroke-width="2" d="M139.938,-170.522C116.7,-174.799 78.9326,-181.751 52.243,-186.663"/>
<polygon fill="black" stroke="black" stroke-width="2" points="51.4611,-183.248 42.2599,-188.501 52.7283,-190.133 51.4611,-183.248"/>
</g>
</g>
</svg>

