<?xml version="1.0" encoding="UTF-8" standalone="no"?>
<!DOCTYPE svg PUBLIC "-//W3C//DTD SVG 1.1//EN"
 "http://www.w3.org/Graphics/SVG/1.1/DTD/svg11.dtd">
<!-- Generated by graphviz version 2.36.0 (20140111.2315)
 -->
<!-- Title: G Pages: 1 -->
<svg width="100%" height="100%"
 viewBox="0.00 0.00 151.89 191.08" xmlns="http://www.w3.org/2000/svg" xmlns:xlink="http://www.w3.org/1999/xlink">
<g id="graph0" class="graph" transform="scale(1 1) rotate(0) translate(4 187.076)">
<title>G</title>
<!-- 0 -->
<g id="node1" class="node"><title>0</title>
<ellipse fill="cadetblue" stroke="black" cx="31.841" cy="-31.955" rx="21.4286" ry="21.4286"/>
<text text-anchor="middle" x="31.841" y="-26.955" font-family="Times New Roman,serif" font-size="20.00">2</text>
</g>
<!-- 2 -->
<g id="node3" class="node"><title>2</title>
<ellipse fill="brown" stroke="black" cx="87.1871" cy="-21.2132" rx="21.4286" ry="21.4286"/>
<text text-anchor="middle" x="87.1871" y="-16.2132" font-family="Times New Roman,serif" font-size="20.00">3</text>
</g>
<!-- 0&#45;&gt;2 -->
<g id="edge1" class="edge"><title>0&#45;&gt;2</title>
<path fill="none" stroke="black" stroke-width="2" d="M52.765,-27.894C53.867,-27.6801 54.9842,-27.4633 56.1091,-27.245"/>
<polygon fill="black" stroke="black" stroke-width="2" points="57.0836,-30.6212 66.2335,-25.28 55.7498,-23.7495 57.0836,-30.6212"/>
</g>
<!-- 5 -->
<g id="node6" class="node"><title>5</title>
<ellipse fill="cadetblue" stroke="black" cx="21.2132" cy="-101.16" rx="21.4286" ry="21.4286"/>
<text text-anchor="middle" x="21.2132" y="-96.1604" font-family="Times New Roman,serif" font-size="20.00">2</text>
</g>
<!-- 0&#45;&gt;5 -->
<g id="edge3" class="edge"><title>0&#45;&gt;5</title>
<path fill="none" stroke="black" stroke-width="2" d="M28.5946,-53.095C27.7705,-58.4612 26.8678,-64.3392 25.9853,-70.0861"/>
<polygon fill="black" stroke="black" stroke-width="2" points="22.4983,-69.7345 24.4398,-80.1499 29.4172,-70.7971 22.4983,-69.7345"/>
</g>
<!-- 1 -->
<g id="node2" class="node"><title>1</title>
<ellipse fill="brown" stroke="black" cx="55.9235" cy="-161.863" rx="21.4286" ry="21.4286"/>
<text text-anchor="middle" x="55.9235" y="-156.863" font-family="Times New Roman,serif" font-size="20.00">3</text>
</g>
<!-- 3 -->
<g id="node4" class="node"><title>3</title>
<ellipse fill="cadetblue" stroke="black" cx="111.327" cy="-152.13" rx="21.4286" ry="21.4286"/>
<text text-anchor="middle" x="111.327" y="-147.13" font-family="Times New Roman,serif" font-size="20.00">2</text>
</g>
<!-- 1&#45;&gt;3 -->
<g id="edge5" class="edge"><title>1&#45;&gt;3</title>
<path fill="none" stroke="black" stroke-width="2" d="M76.8693,-158.183C77.9725,-157.99 79.0909,-157.793 80.2169,-157.595"/>
<polygon fill="black" stroke="black" stroke-width="2" points="81.1084,-160.992 90.3519,-155.815 79.8971,-154.098 81.1084,-160.992"/>
</g>
<!-- 4 -->
<g id="node5" class="node"><title>4</title>
<ellipse fill="cadetblue" stroke="black" cx="122.672" cy="-82.4124" rx="21.4286" ry="21.4286"/>
<text text-anchor="middle" x="122.672" y="-77.4124" font-family="Times New Roman,serif" font-size="20.00">2</text>
</g>
<!-- 2&#45;&gt;4 -->
<g id="edge9" class="edge"><title>2&#45;&gt;4</title>
<path fill="none" stroke="black" stroke-width="2" d="M97.8337,-39.575C100.59,-44.3281 103.619,-49.5528 106.586,-54.6701"/>
<polygon fill="black" stroke="black" stroke-width="2" points="103.743,-56.7446 111.787,-63.6399 109.799,-53.2333 103.743,-56.7446"/>
</g>
<!-- 3&#45;&gt;4 -->
<g id="edge12" class="edge"><title>3&#45;&gt;4</title>
<path fill="none" stroke="black" stroke-width="2" d="M114.793,-130.834C115.672,-125.428 116.636,-119.506 117.578,-113.717"/>
<polygon fill="black" stroke="black" stroke-width="2" points="121.076,-114.011 119.228,-103.578 114.167,-112.886 121.076,-114.011"/>
</g>
<!-- 6 -->
<g id="node7" class="node"><title>6</title>
<ellipse fill="cadetblue" stroke="black" cx="72.2405" cy="-91.5498" rx="21.4286" ry="21.4286"/>
<text text-anchor="middle" x="72.2405" y="-86.5498" font-family="Times New Roman,serif" font-size="20.00">2</text>
</g>
<!-- 3&#45;&gt;6 -->
<g id="edge14" class="edge"><title>3&#45;&gt;6</title>
<path fill="none" stroke="black" stroke-width="2" d="M99.8115,-134.282C96.5012,-129.151 92.819,-123.444 89.2513,-117.915"/>
<polygon fill="black" stroke="black" stroke-width="2" points="92.1718,-115.985 83.8092,-109.48 86.2898,-119.78 92.1718,-115.985"/>
</g>
<!-- 4&#45;&gt;0 -->
<g id="edge2" class="edge"><title>4&#45;&gt;0</title>
<path fill="none" stroke="black" stroke-width="2" d="M103.852,-71.9576C91.064,-64.8539 73.9328,-55.3374 59.5878,-47.3686"/>
<polygon fill="black" stroke="black" stroke-width="2" points="61.0786,-44.193 50.6371,-42.3964 57.6792,-50.3122 61.0786,-44.193"/>
</g>
<!-- 4&#45;&gt;1 -->
<g id="edge6" class="edge"><title>4&#45;&gt;1</title>
<path fill="none" stroke="black" stroke-width="2" d="M108.842,-98.8746C99.4444,-110.06 86.8553,-125.045 76.3136,-137.593"/>
<polygon fill="black" stroke="black" stroke-width="2" points="73.4888,-135.514 69.7361,-145.422 78.8484,-140.017 73.4888,-135.514"/>
</g>
<!-- 4&#45;&gt;6 -->
<g id="edge15" class="edge"><title>4&#45;&gt;6</title>
<path fill="none" stroke="black" stroke-width="2" d="M101.577,-86.2345C101.492,-86.2498 101.408,-86.2651 101.323,-86.2804"/>
<polygon fill="black" stroke="black" stroke-width="2" points="102.629,-82.4867 93.4133,-87.7136 103.877,-89.3746 102.629,-82.4867"/>
</g>
<!-- 5&#45;&gt;1 -->
<g id="edge7" class="edge"><title>5&#45;&gt;1</title>
<path fill="none" stroke="black" stroke-width="2" d="M31.816,-119.703C34.5075,-124.41 37.4557,-129.566 40.338,-134.607"/>
<polygon fill="black" stroke="black" stroke-width="2" points="37.3833,-136.49 45.3856,-143.434 43.46,-133.016 37.3833,-136.49"/>
</g>
<!-- 5&#45;&gt;2 -->
<g id="edge10" class="edge"><title>5&#45;&gt;2</title>
<path fill="none" stroke="black" stroke-width="2" d="M34.883,-84.5953C44.1712,-73.3398 56.6143,-58.2614 67.0336,-45.6353"/>
<polygon fill="black" stroke="black" stroke-width="2" points="69.8694,-47.6977 73.5348,-37.7571 64.4704,-43.2423 69.8694,-47.6977"/>
</g>
<!-- 5&#45;&gt;3 -->
<g id="edge13" class="edge"><title>5&#45;&gt;3</title>
<path fill="none" stroke="black" stroke-width="2" d="M39.8849,-111.721C52.5717,-118.897 69.5677,-128.51 83.7995,-136.56"/>
<polygon fill="black" stroke="black" stroke-width="2" points="82.2523,-139.706 92.6796,-141.583 85.6986,-133.613 82.2523,-139.706"/>
</g>
<!-- 6&#45;&gt;0 -->
<g id="edge4" class="edge"><title>6&#45;&gt;0</title>
<path fill="none" stroke="black" stroke-width="2" d="M60.1193,-73.6694C56.8437,-68.8373 53.2286,-63.5047 49.7093,-58.3132"/>
<polygon fill="black" stroke="black" stroke-width="2" points="52.462,-56.1362 43.9536,-49.8228 46.6678,-60.0641 52.462,-56.1362"/>
</g>
<!-- 6&#45;&gt;1 -->
<g id="edge8" class="edge"><title>6&#45;&gt;1</title>
<path fill="none" stroke="black" stroke-width="2" d="M67.4331,-112.266C66.0512,-118.221 64.5141,-124.844 63.0247,-131.262"/>
<polygon fill="black" stroke="black" stroke-width="2" points="59.6041,-130.52 60.7529,-141.052 66.4229,-132.102 59.6041,-130.52"/>
</g>
<!-- 6&#45;&gt;2 -->
<g id="edge11" class="edge"><title>6&#45;&gt;2</title>
<path fill="none" stroke="black" stroke-width="2" d="M76.725,-70.4465C77.9369,-64.7434 79.2743,-58.4496 80.5764,-52.3223"/>
<polygon fill="black" stroke="black" stroke-width="2" points="84.0507,-52.8107 82.7058,-42.3016 77.2036,-51.3557 84.0507,-52.8107"/>
</g>
<!-- 6&#45;&gt;5 -->
<g id="edge16" class="edge"><title>6&#45;&gt;5</title>
<path fill="none" stroke="black" stroke-width="2" d="M51.1911,-95.5143C51.0985,-95.5317 51.0058,-95.5492 50.9129,-95.5667"/>
<polygon fill="black" stroke="black" stroke-width="2" points="51.3936,-91.9145 42.2142,-97.205 52.6893,-98.7935 51.3936,-91.9145"/>
</g>
</g>
</svg>

