<?xml version="1.0" encoding="UTF-8" standalone="no"?>
<!DOCTYPE svg PUBLIC "-//W3C//DTD SVG 1.1//EN"
 "http://www.w3.org/Graphics/SVG/1.1/DTD/svg11.dtd">
<!-- Generated by graphviz version 2.36.0 (20140111.2315)
 -->
<!-- Title: G Pages: 1 -->
<svg width="100%" height="100%"
 viewBox="0.00 0.00 231.87 247.12" xmlns="http://www.w3.org/2000/svg" xmlns:xlink="http://www.w3.org/1999/xlink">
<g id="graph0" class="graph" transform="scale(1 1) rotate(0) translate(4 243.125)">
<title>G</title>
<!-- 0 -->
<g id="node1" class="node"><title>0</title>
<ellipse fill="cadetblue" stroke="black" cx="83.0688" cy="-47.2092" rx="21.4286" ry="21.4286"/>
<text text-anchor="middle" x="83.0688" y="-42.2092" font-family="Times New Roman,serif" font-size="20.00">2</text>
</g>
<!-- 5 -->
<g id="node6" class="node"><title>5</title>
<ellipse fill="cadetblue" stroke="black" cx="21.2132" cy="-140.433" rx="21.4286" ry="21.4286"/>
<text text-anchor="middle" x="21.2132" y="-135.433" font-family="Times New Roman,serif" font-size="20.00">2</text>
</g>
<!-- 0&#45;&gt;5 -->
<g id="edge3" class="edge"><title>0&#45;&gt;5</title>
<path fill="none" stroke="black" stroke-width="2" d="M71.1424,-65.1837C61.9862,-78.9832 49.2023,-98.2501 38.8625,-113.833"/>
<polygon fill="black" stroke="black" stroke-width="2" points="35.7154,-112.246 33.103,-122.514 41.5482,-116.116 35.7154,-112.246"/>
</g>
<!-- 6 -->
<g id="node7" class="node"><title>6</title>
<ellipse fill="cadetblue" stroke="black" cx="166.452" cy="-135.868" rx="21.4286" ry="21.4286"/>
<text text-anchor="middle" x="166.452" y="-130.868" font-family="Times New Roman,serif" font-size="20.00">2</text>
</g>
<!-- 0&#45;&gt;6 -->
<g id="edge4" class="edge"><title>0&#45;&gt;6</title>
<path fill="none" stroke="black" stroke-width="2" d="M97.976,-63.0595C110.9,-76.8017 129.78,-96.8759 144.444,-112.467"/>
<polygon fill="black" stroke="black" stroke-width="2" points="142.273,-115.268 151.673,-120.155 147.372,-110.472 142.273,-115.268"/>
</g>
<!-- 1 -->
<g id="node2" class="node"><title>1</title>
<ellipse fill="cadetblue" stroke="black" cx="64.0581" cy="-208.588" rx="21.4286" ry="21.4286"/>
<text text-anchor="middle" x="64.0581" y="-203.588" font-family="Times New Roman,serif" font-size="20.00">2</text>
</g>
<!-- 1&#45;&gt;6 -->
<g id="edge7" class="edge"><title>1&#45;&gt;6</title>
<path fill="none" stroke="black" stroke-width="2" d="M81.4277,-196.252C97.6824,-184.708 122.171,-167.316 140.699,-154.157"/>
<polygon fill="black" stroke="black" stroke-width="2" points="142.87,-156.908 148.997,-148.264 138.817,-151.201 142.87,-156.908"/>
</g>
<!-- 7 -->
<g id="node8" class="node"><title>7</title>
<ellipse fill="cadetblue" stroke="black" cx="106.488" cy="-121.223" rx="21.4286" ry="21.4286"/>
<text text-anchor="middle" x="106.488" y="-116.223" font-family="Times New Roman,serif" font-size="20.00">2</text>
</g>
<!-- 1&#45;&gt;7 -->
<g id="edge8" class="edge"><title>1&#45;&gt;7</title>
<path fill="none" stroke="black" stroke-width="2" d="M73.4747,-189.199C79.1328,-177.549 86.4325,-162.518 92.7286,-149.554"/>
<polygon fill="black" stroke="black" stroke-width="2" points="95.8775,-151.082 97.0979,-140.558 89.5808,-148.024 95.8775,-151.082"/>
</g>
<!-- 2 -->
<g id="node3" class="node"><title>2</title>
<ellipse fill="cadetblue" stroke="black" cx="152.23" cy="-21.2132" rx="21.4286" ry="21.4286"/>
<text text-anchor="middle" x="152.23" y="-16.2132" font-family="Times New Roman,serif" font-size="20.00">2</text>
</g>
<!-- 2&#45;&gt;0 -->
<g id="edge1" class="edge"><title>2&#45;&gt;0</title>
<path fill="none" stroke="black" stroke-width="2" d="M132.226,-28.7323C126.114,-31.0294 119.26,-33.6059 112.653,-36.0891"/>
<polygon fill="black" stroke="black" stroke-width="2" points="111.397,-32.8222 103.268,-39.6169 113.86,-39.3746 111.397,-32.8222"/>
</g>
<!-- 4 -->
<g id="node5" class="node"><title>4</title>
<ellipse fill="brown" stroke="black" cx="202.661" cy="-66.677" rx="21.4286" ry="21.4286"/>
<text text-anchor="middle" x="202.661" y="-61.677" font-family="Times New Roman,serif" font-size="20.00">3</text>
</g>
<!-- 2&#45;&gt;4 -->
<g id="edge9" class="edge"><title>2&#45;&gt;4</title>
<path fill="none" stroke="black" stroke-width="2" d="M168.187,-35.5982C171.682,-38.7493 175.453,-42.1488 179.174,-45.5028"/>
<polygon fill="black" stroke="black" stroke-width="2" points="176.864,-48.1333 186.635,-52.2295 181.551,-42.9341 176.864,-48.1333"/>
</g>
<!-- 3 -->
<g id="node4" class="node"><title>3</title>
<ellipse fill="brown" stroke="black" cx="128.329" cy="-217.912" rx="21.4286" ry="21.4286"/>
<text text-anchor="middle" x="128.329" y="-212.912" font-family="Times New Roman,serif" font-size="20.00">3</text>
</g>
<!-- 3&#45;&gt;1 -->
<g id="edge5" class="edge"><title>3&#45;&gt;1</title>
<path fill="none" stroke="black" stroke-width="2" d="M107.284,-214.859C103.44,-214.301 99.3548,-213.708 95.2888,-213.118"/>
<polygon fill="black" stroke="black" stroke-width="2" points="95.7689,-209.651 85.37,-211.679 94.7639,-216.579 95.7689,-209.651"/>
</g>
<!-- 4&#45;&gt;0 -->
<g id="edge2" class="edge"><title>4&#45;&gt;0</title>
<path fill="none" stroke="black" stroke-width="2" d="M181.556,-63.2414C162.97,-60.2159 135.644,-55.7677 114.488,-52.3238"/>
<polygon fill="black" stroke="black" stroke-width="2" points="114.798,-48.8282 104.366,-50.676 113.673,-55.7373 114.798,-48.8282"/>
</g>
<!-- 5&#45;&gt;1 -->
<g id="edge6" class="edge"><title>5&#45;&gt;1</title>
<path fill="none" stroke="black" stroke-width="2" d="M32.6948,-158.697C37.1132,-165.726 42.2565,-173.907 47.0844,-181.587"/>
<polygon fill="black" stroke="black" stroke-width="2" points="44.2594,-183.67 52.5447,-190.273 50.1857,-179.944 44.2594,-183.67"/>
</g>
<!-- 5&#45;&gt;3 -->
<g id="edge12" class="edge"><title>5&#45;&gt;3</title>
<path fill="none" stroke="black" stroke-width="2" d="M38.4232,-152.881C55.7324,-165.401 82.632,-184.858 102.501,-199.23"/>
<polygon fill="black" stroke="black" stroke-width="2" points="100.652,-202.212 110.806,-205.237 104.754,-196.54 100.652,-202.212"/>
</g>
<!-- 6&#45;&gt;2 -->
<g id="edge10" class="edge"><title>6&#45;&gt;2</title>
<path fill="none" stroke="black" stroke-width="2" d="M163.81,-114.571C161.645,-97.1144 158.55,-72.1623 156.104,-52.4455"/>
<polygon fill="black" stroke="black" stroke-width="2" points="159.562,-51.8892 154.858,-42.3961 152.615,-52.7509 159.562,-51.8892"/>
</g>
<!-- 6&#45;&gt;3 -->
<g id="edge13" class="edge"><title>6&#45;&gt;3</title>
<path fill="none" stroke="black" stroke-width="2" d="M157.417,-155.311C152.669,-165.528 146.761,-178.243 141.513,-189.539"/>
<polygon fill="black" stroke="black" stroke-width="2" points="138.338,-188.064 137.298,-198.608 144.687,-191.014 138.338,-188.064"/>
</g>
<!-- 6&#45;&gt;4 -->
<g id="edge15" class="edge"><title>6&#45;&gt;4</title>
<path fill="none" stroke="black" stroke-width="2" d="M176.346,-116.961C179.939,-110.097 184.078,-102.186 187.995,-94.7023"/>
<polygon fill="black" stroke="black" stroke-width="2" points="191.243,-96.0438 192.779,-85.5608 185.041,-92.798 191.243,-96.0438"/>
</g>
<!-- 6&#45;&gt;7 -->
<g id="edge18" class="edge"><title>6&#45;&gt;7</title>
<path fill="none" stroke="black" stroke-width="2" d="M145.816,-130.828C143.021,-130.145 140.105,-129.433 137.181,-128.719"/>
<polygon fill="black" stroke="black" stroke-width="2" points="137.911,-125.295 127.366,-126.322 136.25,-132.095 137.911,-125.295"/>
</g>
<!-- 7&#45;&gt;2 -->
<g id="edge11" class="edge"><title>7&#45;&gt;2</title>
<path fill="none" stroke="black" stroke-width="2" d="M115.525,-101.464C122.272,-86.7127 131.592,-66.3356 139.152,-49.8065"/>
<polygon fill="black" stroke="black" stroke-width="2" points="142.391,-51.1404 143.367,-40.5906 136.025,-48.2288 142.391,-51.1404"/>
</g>
<!-- 7&#45;&gt;3 -->
<g id="edge14" class="edge"><title>7&#45;&gt;3</title>
<path fill="none" stroke="black" stroke-width="2" d="M111.227,-142.203C114.175,-155.253 118.019,-172.271 121.316,-186.865"/>
<polygon fill="black" stroke="black" stroke-width="2" points="117.981,-187.99 123.599,-196.973 124.809,-186.447 117.981,-187.99"/>
</g>
<!-- 7&#45;&gt;4 -->
<g id="edge16" class="edge"><title>7&#45;&gt;4</title>
<path fill="none" stroke="black" stroke-width="2" d="M125.031,-110.706C139.267,-102.632 159.144,-91.3587 175.22,-82.2408"/>
<polygon fill="black" stroke="black" stroke-width="2" points="177.204,-85.1397 184.175,-77.1618 173.75,-79.0508 177.204,-85.1397"/>
</g>
<!-- 7&#45;&gt;5 -->
<g id="edge17" class="edge"><title>7&#45;&gt;5</title>
<path fill="none" stroke="black" stroke-width="2" d="M85.409,-125.972C75.2889,-128.251 62.97,-131.027 51.84,-133.534"/>
<polygon fill="black" stroke="black" stroke-width="2" points="51.0363,-130.127 42.0499,-135.739 52.5747,-136.956 51.0363,-130.127"/>
</g>
</g>
</svg>

