<?xml version="1.0" encoding="UTF-8" standalone="no"?>
<!DOCTYPE svg PUBLIC "-//W3C//DTD SVG 1.1//EN"
 "http://www.w3.org/Graphics/SVG/1.1/DTD/svg11.dtd">
<!-- Generated by graphviz version 2.36.0 (20140111.2315)
 -->
<!-- Title: G Pages: 1 -->
<svg width="100%" height="100%"
 viewBox="0.00 0.00 211.61 237.58" xmlns="http://www.w3.org/2000/svg" xmlns:xlink="http://www.w3.org/1999/xlink">
<g id="graph0" class="graph" transform="scale(1 1) rotate(0) translate(4 233.578)">
<title>G</title>
<!-- 0 -->
<g id="node1" class="node"><title>0</title>
<ellipse fill="cadetblue" stroke="black" cx="61.7894" cy="-33.3193" rx="21.4286" ry="21.4286"/>
<text text-anchor="middle" x="61.7894" y="-28.3193" font-family="Times New Roman,serif" font-size="20.00">2</text>
</g>
<!-- 5 -->
<g id="node6" class="node"><title>5</title>
<ellipse fill="cadetblue" stroke="black" cx="21.2132" cy="-104.434" rx="21.4286" ry="21.4286"/>
<text text-anchor="middle" x="21.2132" y="-99.4337" font-family="Times New Roman,serif" font-size="20.00">2</text>
</g>
<!-- 0&#45;&gt;5 -->
<g id="edge3" class="edge"><title>0&#45;&gt;5</title>
<path fill="none" stroke="black" stroke-width="2" d="M51.1285,-52.0038C46.7831,-59.6195 41.6707,-68.5796 36.9134,-76.9173"/>
<polygon fill="black" stroke="black" stroke-width="2" points="33.8597,-75.2069 31.9438,-85.6271 39.9396,-78.676 33.8597,-75.2069"/>
</g>
<!-- 6 -->
<g id="node7" class="node"><title>6</title>
<ellipse fill="cadetblue" stroke="black" cx="131.962" cy="-102.758" rx="21.4286" ry="21.4286"/>
<text text-anchor="middle" x="131.962" y="-97.7579" font-family="Times New Roman,serif" font-size="20.00">2</text>
</g>
<!-- 0&#45;&gt;6 -->
<g id="edge4" class="edge"><title>0&#45;&gt;6</title>
<path fill="none" stroke="black" stroke-width="2" d="M77.0159,-48.3865C86.4874,-57.7588 98.8378,-69.98 109.43,-80.4613"/>
<polygon fill="black" stroke="black" stroke-width="2" points="107.196,-83.1742 116.766,-87.7202 112.119,-78.1985 107.196,-83.1742"/>
</g>
<!-- 7 -->
<g id="node8" class="node"><title>7</title>
<ellipse fill="dodgerblue" stroke="black" cx="80.5558" cy="-117.79" rx="21.4286" ry="21.4286"/>
<text text-anchor="middle" x="80.5558" y="-112.79" font-family="Times New Roman,serif" font-size="20.00">4</text>
</g>
<!-- 0&#45;&gt;7 -->
<g id="edge5" class="edge"><title>0&#45;&gt;7</title>
<path fill="none" stroke="black" stroke-width="2" d="M66.4283,-54.1998C68.6162,-64.0481 71.2712,-75.9986 73.6863,-86.8694"/>
<polygon fill="black" stroke="black" stroke-width="2" points="70.3197,-87.8544 75.9053,-96.8573 77.1531,-86.3362 70.3197,-87.8544"/>
</g>
<!-- 1 -->
<g id="node2" class="node"><title>1</title>
<ellipse fill="cadetblue" stroke="black" cx="178.779" cy="-184.762" rx="21.4286" ry="21.4286"/>
<text text-anchor="middle" x="178.779" y="-179.762" font-family="Times New Roman,serif" font-size="20.00">2</text>
</g>
<!-- 1&#45;&gt;6 -->
<g id="edge8" class="edge"><title>1&#45;&gt;6</title>
<path fill="none" stroke="black" stroke-width="2" d="M168.155,-166.154C162.11,-155.564 154.423,-142.1 147.69,-130.306"/>
<polygon fill="black" stroke="black" stroke-width="2" points="150.541,-128.241 142.544,-121.292 144.462,-131.712 150.541,-128.241"/>
</g>
<!-- 2 -->
<g id="node3" class="node"><title>2</title>
<ellipse fill="brown" stroke="black" cx="115.606" cy="-21.2132" rx="21.4286" ry="21.4286"/>
<text text-anchor="middle" x="115.606" y="-16.2132" font-family="Times New Roman,serif" font-size="20.00">3</text>
</g>
<!-- 2&#45;&gt;0 -->
<g id="edge1" class="edge"><title>2&#45;&gt;0</title>
<path fill="none" stroke="black" stroke-width="2" d="M94.645,-25.9284C94.0363,-26.0653 93.4233,-26.2032 92.8074,-26.3418"/>
<polygon fill="black" stroke="black" stroke-width="2" points="91.7698,-22.9877 82.7817,-28.5971 93.3061,-29.817 91.7698,-22.9877"/>
</g>
<!-- 2&#45;&gt;7 -->
<g id="edge12" class="edge"><title>2&#45;&gt;7</title>
<path fill="none" stroke="black" stroke-width="2" d="M108.344,-41.224C103.409,-54.8207 96.7984,-73.0357 91.2629,-88.2882"/>
<polygon fill="black" stroke="black" stroke-width="2" points="87.9305,-87.211 87.8089,-97.8051 94.5106,-89.5991 87.9305,-87.211"/>
</g>
<!-- 3 -->
<g id="node4" class="node"><title>3</title>
<ellipse fill="cadetblue" stroke="black" cx="67.8757" cy="-208.365" rx="21.4286" ry="21.4286"/>
<text text-anchor="middle" x="67.8757" y="-203.365" font-family="Times New Roman,serif" font-size="20.00">2</text>
</g>
<!-- 3&#45;&gt;1 -->
<g id="edge6" class="edge"><title>3&#45;&gt;1</title>
<path fill="none" stroke="black" stroke-width="2" d="M88.7358,-203.926C105.465,-200.365 129.189,-195.316 148.086,-191.294"/>
<polygon fill="black" stroke="black" stroke-width="2" points="148.96,-194.687 158.012,-189.182 147.503,-187.84 148.96,-194.687"/>
</g>
<!-- 4 -->
<g id="node5" class="node"><title>4</title>
<ellipse fill="cadetblue" stroke="black" cx="182.394" cy="-72.3235" rx="21.4286" ry="21.4286"/>
<text text-anchor="middle" x="182.394" y="-67.3235" font-family="Times New Roman,serif" font-size="20.00">2</text>
</g>
<!-- 4&#45;&gt;0 -->
<g id="edge2" class="edge"><title>4&#45;&gt;0</title>
<path fill="none" stroke="black" stroke-width="2" d="M162.207,-65.7951C142.901,-59.5514 113.555,-50.0607 91.5652,-42.949"/>
<polygon fill="black" stroke="black" stroke-width="2" points="92.6335,-39.6161 82.0417,-39.869 90.4795,-46.2764 92.6335,-39.6161"/>
</g>
<!-- 4&#45;&gt;1 -->
<g id="edge7" class="edge"><title>4&#45;&gt;1</title>
<path fill="none" stroke="black" stroke-width="2" d="M181.705,-93.737C181.163,-110.618 180.398,-134.402 179.786,-153.424"/>
<polygon fill="black" stroke="black" stroke-width="2" points="176.288,-153.321 179.465,-163.428 183.284,-153.546 176.288,-153.321"/>
</g>
<!-- 4&#45;&gt;2 -->
<g id="edge9" class="edge"><title>4&#45;&gt;2</title>
<path fill="none" stroke="black" stroke-width="2" d="M165.541,-59.4262C158.005,-53.6596 148.966,-46.7426 140.662,-40.3879"/>
<polygon fill="black" stroke="black" stroke-width="2" points="142.755,-37.582 132.686,-34.2841 138.501,-43.141 142.755,-37.582"/>
</g>
<!-- 5&#45;&gt;2 -->
<g id="edge10" class="edge"><title>5&#45;&gt;2</title>
<path fill="none" stroke="black" stroke-width="2" d="M37.2257,-90.3165C52.1424,-77.1653 74.5815,-57.382 91.6334,-42.3484"/>
<polygon fill="black" stroke="black" stroke-width="2" points="94.3286,-44.6383 99.515,-35.3997 89.6993,-39.3876 94.3286,-44.6383"/>
</g>
<!-- 5&#45;&gt;3 -->
<g id="edge13" class="edge"><title>5&#45;&gt;3</title>
<path fill="none" stroke="black" stroke-width="2" d="M29.9901,-123.982C37.0291,-139.66 47.0109,-161.893 54.9617,-179.602"/>
<polygon fill="black" stroke="black" stroke-width="2" points="51.8494,-181.215 59.1382,-188.904 58.2353,-178.348 51.8494,-181.215"/>
</g>
<!-- 5&#45;&gt;7 -->
<g id="edge18" class="edge"><title>5&#45;&gt;7</title>
<path fill="none" stroke="black" stroke-width="2" d="M41.9684,-109.105C44.4835,-109.671 47.0928,-110.259 49.7143,-110.849"/>
<polygon fill="black" stroke="black" stroke-width="2" points="49.1876,-114.318 59.7121,-113.099 50.7247,-107.488 49.1876,-114.318"/>
</g>
<!-- 6&#45;&gt;2 -->
<g id="edge11" class="edge"><title>6&#45;&gt;2</title>
<path fill="none" stroke="black" stroke-width="2" d="M127.75,-81.7581C125.938,-72.722 123.782,-61.9763 121.794,-52.0637"/>
<polygon fill="black" stroke="black" stroke-width="2" points="125.202,-51.2582 119.804,-42.1418 118.339,-52.6349 125.202,-51.2582"/>
</g>
<!-- 6&#45;&gt;4 -->
<g id="edge15" class="edge"><title>6&#45;&gt;4</title>
<path fill="none" stroke="black" stroke-width="2" d="M150.169,-91.7704C151.862,-90.7488 153.601,-89.6996 155.351,-88.6432"/>
<polygon fill="black" stroke="black" stroke-width="2" points="157.291,-91.5606 164.044,-83.3971 153.674,-85.5674 157.291,-91.5606"/>
</g>
<!-- 6&#45;&gt;5 -->
<g id="edge17" class="edge"><title>6&#45;&gt;5</title>
<path fill="none" stroke="black" stroke-width="2" d="M111.674,-96.206C102.306,-93.7272 90.9728,-91.4914 80.5571,-91.4859 70.9799,-91.4809 60.7291,-93.1091 51.488,-95.2122"/>
<polygon fill="black" stroke="black" stroke-width="2" points="50.4058,-91.8758 41.5732,-97.7269 52.1268,-98.661 50.4058,-91.8758"/>
</g>
<!-- 6&#45;&gt;7 -->
<g id="edge19" class="edge"><title>6&#45;&gt;7</title>
<path fill="none" stroke="black" stroke-width="2" d="M111.35,-108.786C111.245,-108.816 111.14,-108.847 111.035,-108.878"/>
<polygon fill="black" stroke="black" stroke-width="2" points="109.789,-105.595 101.173,-111.761 111.754,-112.314 109.789,-105.595"/>
</g>
<!-- 7&#45;&gt;3 -->
<g id="edge14" class="edge"><title>7&#45;&gt;3</title>
<path fill="none" stroke="black" stroke-width="2" d="M77.5508,-139.255C75.9717,-150.535 74.0066,-164.572 72.2608,-177.042"/>
<polygon fill="black" stroke="black" stroke-width="2" points="68.7795,-176.666 70.8592,-187.054 75.7119,-177.636 68.7795,-176.666"/>
</g>
<!-- 7&#45;&gt;4 -->
<g id="edge16" class="edge"><title>7&#45;&gt;4</title>
<path fill="none" stroke="black" stroke-width="2" d="M94.096,-101.315C99.6167,-95.3374 106.353,-88.8914 113.385,-84.1358 124.318,-76.741 138.394,-73.4943 150.978,-72.2072"/>
<polygon fill="black" stroke="black" stroke-width="2" points="151.348,-75.6904 161.096,-71.5389 150.887,-68.7057 151.348,-75.6904"/>
</g>
</g>
</svg>

