<?xml version="1.0" encoding="UTF-8" standalone="no"?>
<!DOCTYPE svg PUBLIC "-//W3C//DTD SVG 1.1//EN"
 "http://www.w3.org/Graphics/SVG/1.1/DTD/svg11.dtd">
<!-- Generated by graphviz version 2.36.0 (20140111.2315)
 -->
<!-- Title: G Pages: 1 -->
<svg width="100%" height="100%"
 viewBox="0.00 0.00 205.67 195.53" xmlns="http://www.w3.org/2000/svg" xmlns:xlink="http://www.w3.org/1999/xlink">
<g id="graph0" class="graph" transform="scale(1 1) rotate(0) translate(4 191.527)">
<title>G</title>
<!-- 0 -->
<g id="node1" class="node"><title>0</title>
<ellipse fill="cadetblue" stroke="black" cx="100.706" cy="-31.8348" rx="21.4286" ry="21.4286"/>
<text text-anchor="middle" x="100.706" y="-26.8348" font-family="Times New Roman,serif" font-size="20.00">2</text>
</g>
<!-- 5 -->
<g id="node6" class="node"><title>5</title>
<ellipse fill="cadetblue" stroke="black" cx="21.2132" cy="-95.404" rx="21.4286" ry="21.4286"/>
<text text-anchor="middle" x="21.2132" y="-90.404" font-family="Times New Roman,serif" font-size="20.00">2</text>
</g>
<!-- 0&#45;&gt;5 -->
<g id="edge3" class="edge"><title>0&#45;&gt;5</title>
<path fill="none" stroke="black" stroke-width="2" d="M83.8479,-45.3162C72.8871,-54.0814 58.4035,-65.6636 46.1251,-75.4824"/>
<polygon fill="black" stroke="black" stroke-width="2" points="43.6714,-72.9631 38.0474,-81.942 48.0432,-78.43 43.6714,-72.9631"/>
</g>
<!-- 6 -->
<g id="node7" class="node"><title>6</title>
<ellipse fill="cadetblue" stroke="black" cx="176.456" cy="-101.22" rx="21.4286" ry="21.4286"/>
<text text-anchor="middle" x="176.456" y="-96.2205" font-family="Times New Roman,serif" font-size="20.00">2</text>
</g>
<!-- 0&#45;&gt;6 -->
<g id="edge4" class="edge"><title>0&#45;&gt;6</title>
<path fill="none" stroke="black" stroke-width="2" d="M115.081,-47.4991C120.517,-53.2242 126.847,-59.6614 132.871,-65.2424 138.71,-70.6519 145.226,-76.2459 151.402,-81.3643"/>
<polygon fill="black" stroke="black" stroke-width="2" points="149.558,-84.3771 159.519,-87.987 153.984,-78.9533 149.558,-84.3771"/>
</g>
<!-- 7 -->
<g id="node8" class="node"><title>7</title>
<ellipse fill="cadetblue" stroke="black" cx="86.051" cy="-97.5696" rx="21.4286" ry="21.4286"/>
<text text-anchor="middle" x="86.051" y="-92.5696" font-family="Times New Roman,serif" font-size="20.00">2</text>
</g>
<!-- 0&#45;&gt;7 -->
<g id="edge5" class="edge"><title>0&#45;&gt;7</title>
<path fill="none" stroke="black" stroke-width="2" d="M96.0693,-52.6337C95.0803,-57.0697 94.0154,-61.8464 92.962,-66.5714"/>
<polygon fill="black" stroke="black" stroke-width="2" points="89.4682,-66.1583 90.7082,-76.6803 96.3005,-67.6816 89.4682,-66.1583"/>
</g>
<!-- 1 -->
<g id="node2" class="node"><title>1</title>
<ellipse fill="cadetblue" stroke="black" cx="155.125" cy="-151.652" rx="21.4286" ry="21.4286"/>
<text text-anchor="middle" x="155.125" y="-146.652" font-family="Times New Roman,serif" font-size="20.00">2</text>
</g>
<!-- 1&#45;&gt;6 -->
<g id="edge8" class="edge"><title>1&#45;&gt;6</title>
<path fill="none" stroke="black" stroke-width="2" d="M163.433,-132.009C163.675,-131.439 163.918,-130.865 164.162,-130.287"/>
<polygon fill="black" stroke="black" stroke-width="2" points="167.463,-131.466 168.136,-120.892 161.016,-128.739 167.463,-131.466"/>
</g>
<!-- 1&#45;&gt;7 -->
<g id="edge9" class="edge"><title>1&#45;&gt;7</title>
<path fill="none" stroke="black" stroke-width="2" d="M138.404,-138.56C130.212,-132.146 120.177,-124.289 111.093,-117.177"/>
<polygon fill="black" stroke="black" stroke-width="2" points="113.129,-114.326 103.098,-110.917 108.814,-119.837 113.129,-114.326"/>
</g>
<!-- 2 -->
<g id="node3" class="node"><title>2</title>
<ellipse fill="brown" stroke="black" cx="48.0043" cy="-21.2132" rx="21.4286" ry="21.4286"/>
<text text-anchor="middle" x="48.0043" y="-16.2132" font-family="Times New Roman,serif" font-size="20.00">3</text>
</g>
<!-- 2&#45;&gt;0 -->
<g id="edge1" class="edge"><title>2&#45;&gt;0</title>
<path fill="none" stroke="black" stroke-width="2" d="M68.8336,-25.4111C69.168,-25.4785 69.5038,-25.5462 69.8405,-25.6141"/>
<polygon fill="black" stroke="black" stroke-width="2" points="69.1887,-29.053 79.6831,-27.5977 70.5717,-22.191 69.1887,-29.053"/>
</g>
<!-- 3 -->
<g id="node4" class="node"><title>3</title>
<ellipse fill="brown" stroke="black" cx="86.879" cy="-166.314" rx="21.4286" ry="21.4286"/>
<text text-anchor="middle" x="86.879" y="-161.314" font-family="Times New Roman,serif" font-size="20.00">3</text>
</g>
<!-- 3&#45;&gt;1 -->
<g id="edge6" class="edge"><title>3&#45;&gt;1</title>
<path fill="none" stroke="black" stroke-width="2" d="M107.726,-161.835C112.79,-160.747 118.316,-159.56 123.749,-158.393"/>
<polygon fill="black" stroke="black" stroke-width="2" points="124.893,-161.727 133.935,-156.204 123.423,-154.883 124.893,-161.727"/>
</g>
<!-- 4 -->
<g id="node5" class="node"><title>4</title>
<ellipse fill="cadetblue" stroke="black" cx="151.654" cy="-46.8272" rx="21.4286" ry="21.4286"/>
<text text-anchor="middle" x="151.654" y="-41.8272" font-family="Times New Roman,serif" font-size="20.00">2</text>
</g>
<!-- 4&#45;&gt;0 -->
<g id="edge2" class="edge"><title>4&#45;&gt;0</title>
<path fill="none" stroke="black" stroke-width="2" d="M131.225,-40.8156C131.121,-40.785 131.018,-40.7545 130.914,-40.7238"/>
<polygon fill="black" stroke="black" stroke-width="2" points="131.721,-37.3132 121.14,-37.8477 129.745,-44.0285 131.721,-37.3132"/>
</g>
<!-- 4&#45;&gt;1 -->
<g id="edge7" class="edge"><title>4&#45;&gt;1</title>
<path fill="none" stroke="black" stroke-width="2" d="M150.44,-68.2596C150.033,-78.2661 149.769,-90.3383 150.152,-101.189 150.371,-107.389 150.846,-113.999 151.42,-120.324"/>
<polygon fill="black" stroke="black" stroke-width="2" points="147.968,-120.977 152.451,-130.577 154.933,-120.276 147.968,-120.977"/>
</g>
<!-- 4&#45;&gt;2 -->
<g id="edge10" class="edge"><title>4&#45;&gt;2</title>
<path fill="none" stroke="black" stroke-width="2" d="M131.505,-54.242C122.21,-56.8991 110.976,-59.0434 100.682,-58.1391 89.3845,-57.1468 78.761,-51.1316 70.0545,-44.2345"/>
<polygon fill="black" stroke="black" stroke-width="2" points="72.1676,-41.4329 62.335,-37.4867 67.5606,-46.7032 72.1676,-41.4329"/>
</g>
<!-- 5&#45;&gt;2 -->
<g id="edge11" class="edge"><title>5&#45;&gt;2</title>
<path fill="none" stroke="black" stroke-width="2" d="M28.534,-75.131C31.2436,-67.6276 34.3738,-58.9592 37.3212,-50.7972"/>
<polygon fill="black" stroke="black" stroke-width="2" points="40.6806,-51.7991 40.7852,-41.2048 34.0967,-49.4215 40.6806,-51.7991"/>
</g>
<!-- 5&#45;&gt;3 -->
<g id="edge13" class="edge"><title>5&#45;&gt;3</title>
<path fill="none" stroke="black" stroke-width="2" d="M35.7866,-111.141C44.4581,-120.505 55.6213,-132.56 65.3001,-143.012"/>
<polygon fill="black" stroke="black" stroke-width="2" points="62.9838,-145.661 72.3464,-150.621 68.1198,-140.905 62.9838,-145.661"/>
</g>
<!-- 6&#45;&gt;3 -->
<g id="edge14" class="edge"><title>6&#45;&gt;3</title>
<path fill="none" stroke="black" stroke-width="2" d="M159.185,-113.771C145.925,-123.407 127.412,-136.86 112.438,-147.741"/>
<polygon fill="black" stroke="black" stroke-width="2" points="110.13,-145.092 104.097,-153.802 114.245,-150.754 110.13,-145.092"/>
</g>
<!-- 6&#45;&gt;4 -->
<g id="edge16" class="edge"><title>6&#45;&gt;4</title>
<path fill="none" stroke="black" stroke-width="2" d="M167.642,-81.8903C166.714,-79.8559 165.757,-77.7572 164.795,-75.6454"/>
<polygon fill="black" stroke="black" stroke-width="2" points="167.941,-74.1087 160.607,-66.462 161.571,-77.0129 167.941,-74.1087"/>
</g>
<!-- 7&#45;&gt;2 -->
<g id="edge12" class="edge"><title>7&#45;&gt;2</title>
<path fill="none" stroke="black" stroke-width="2" d="M76.4502,-78.3016C72.0915,-69.5541 66.8499,-59.0345 62.0601,-49.4218"/>
<polygon fill="black" stroke="black" stroke-width="2" points="65.0628,-47.6 57.4703,-40.2105 58.7975,-50.7219 65.0628,-47.6"/>
</g>
<!-- 7&#45;&gt;3 -->
<g id="edge15" class="edge"><title>7&#45;&gt;3</title>
<path fill="none" stroke="black" stroke-width="2" d="M86.3085,-118.944C86.3687,-123.94 86.434,-129.365 86.4983,-134.701"/>
<polygon fill="black" stroke="black" stroke-width="2" points="82.9986,-134.759 86.6189,-144.716 89.9981,-134.674 82.9986,-134.759"/>
</g>
<!-- 7&#45;&gt;4 -->
<g id="edge17" class="edge"><title>7&#45;&gt;4</title>
<path fill="none" stroke="black" stroke-width="2" d="M102.945,-84.5021C110.159,-78.9229 118.726,-72.2963 126.649,-66.1679"/>
<polygon fill="black" stroke="black" stroke-width="2" points="128.82,-68.9134 134.589,-60.0267 124.538,-63.3764 128.82,-68.9134"/>
</g>
<!-- 7&#45;&gt;5 -->
<g id="edge18" class="edge"><title>7&#45;&gt;5</title>
<path fill="none" stroke="black" stroke-width="2" d="M64.8207,-96.8605C60.9428,-96.731 56.8214,-96.5933 52.7196,-96.4563"/>
<polygon fill="black" stroke="black" stroke-width="2" points="52.8245,-92.9579 42.7132,-96.1221 52.5908,-99.954 52.8245,-92.9579"/>
</g>
</g>
</svg>

