<?xml version="1.0" encoding="UTF-8" standalone="no"?>
<!DOCTYPE svg PUBLIC "-//W3C//DTD SVG 1.1//EN"
 "http://www.w3.org/Graphics/SVG/1.1/DTD/svg11.dtd">
<!-- Generated by graphviz version 2.36.0 (20140111.2315)
 -->
<!-- Title: G Pages: 1 -->
<svg width="100%" height="100%"
 viewBox="0.00 0.00 176.50 299.09" xmlns="http://www.w3.org/2000/svg" xmlns:xlink="http://www.w3.org/1999/xlink">
<g id="graph0" class="graph" transform="scale(1 1) rotate(0) translate(4 295.091)">
<title>G</title>
<!-- 0 -->
<g id="node1" class="node"><title>0</title>
<ellipse fill="cadetblue" stroke="black" cx="66.758" cy="-65.88" rx="21.4286" ry="21.4286"/>
<text text-anchor="middle" x="66.758" y="-60.88" font-family="Times New Roman,serif" font-size="20.00">2</text>
</g>
<!-- 5 -->
<g id="node6" class="node"><title>5</title>
<ellipse fill="cadetblue" stroke="black" cx="75.5933" cy="-116.311" rx="21.4286" ry="21.4286"/>
<text text-anchor="middle" x="75.5933" y="-111.311" font-family="Times New Roman,serif" font-size="20.00">2</text>
</g>
<!-- 0&#45;&gt;5 -->
<g id="edge3" class="edge"><title>0&#45;&gt;5</title>
<path fill="none" stroke="black" stroke-width="2" d="M70.4538,-86.9753C70.4686,-87.0596 70.4833,-87.144 70.4981,-87.2285"/>
<polygon fill="black" stroke="black" stroke-width="2" points="66.7107,-85.8927 71.8839,-95.1386 73.6057,-84.6846 66.7107,-85.8927"/>
</g>
<!-- 6 -->
<g id="node7" class="node"><title>6</title>
<ellipse fill="cadetblue" stroke="black" cx="126.551" cy="-194.277" rx="21.4286" ry="21.4286"/>
<text text-anchor="middle" x="126.551" y="-189.277" font-family="Times New Roman,serif" font-size="20.00">2</text>
</g>
<!-- 0&#45;&gt;6 -->
<g id="edge4" class="edge"><title>0&#45;&gt;6</title>
<path fill="none" stroke="black" stroke-width="2" d="M81.8378,-81.3266C86.2153,-86.3204 90.7585,-92.0561 94.276,-97.7945 106.695,-118.056 114.975,-143.671 120.036,-163.415"/>
<polygon fill="black" stroke="black" stroke-width="2" points="116.638,-164.251 122.395,-173.145 123.441,-162.602 116.638,-164.251"/>
</g>
<!-- 7 -->
<g id="node8" class="node"><title>7</title>
<ellipse fill="cadetblue" stroke="black" cx="21.2132" cy="-150.891" rx="21.4286" ry="21.4286"/>
<text text-anchor="middle" x="21.2132" y="-145.891" font-family="Times New Roman,serif" font-size="20.00">2</text>
</g>
<!-- 0&#45;&gt;7 -->
<g id="edge5" class="edge"><title>0&#45;&gt;7</title>
<path fill="none" stroke="black" stroke-width="2" d="M56.6502,-84.7466C50.6357,-95.9727 42.8931,-110.425 36.18,-122.955"/>
<polygon fill="black" stroke="black" stroke-width="2" points="32.9302,-121.609 31.2928,-132.077 39.1005,-124.915 32.9302,-121.609"/>
</g>
<!-- 1 -->
<g id="node2" class="node"><title>1</title>
<ellipse fill="cadetblue" stroke="black" cx="23.6591" cy="-215.81" rx="21.4286" ry="21.4286"/>
<text text-anchor="middle" x="23.6591" y="-210.81" font-family="Times New Roman,serif" font-size="20.00">2</text>
</g>
<!-- 1&#45;&gt;5 -->
<g id="edge7" class="edge"><title>1&#45;&gt;5</title>
<path fill="none" stroke="black" stroke-width="2" d="M33.6725,-196.626C41.3601,-181.898 52.0935,-161.334 60.7748,-144.702"/>
<polygon fill="black" stroke="black" stroke-width="2" points="64.0861,-145.922 65.6106,-135.437 57.8806,-142.682 64.0861,-145.922"/>
</g>
<!-- 1&#45;&gt;6 -->
<g id="edge8" class="edge"><title>1&#45;&gt;6</title>
<path fill="none" stroke="black" stroke-width="2" d="M44.4807,-211.453C59.2638,-208.359 79.3511,-204.155 95.9524,-200.681"/>
<polygon fill="black" stroke="black" stroke-width="2" points="96.689,-204.103 105.76,-198.628 95.255,-197.251 96.689,-204.103"/>
</g>
<!-- 2 -->
<g id="node3" class="node"><title>2</title>
<ellipse fill="brown" stroke="black" cx="147.288" cy="-110.408" rx="21.4286" ry="21.4286"/>
<text text-anchor="middle" x="147.288" y="-105.408" font-family="Times New Roman,serif" font-size="20.00">3</text>
</g>
<!-- 2&#45;&gt;0 -->
<g id="edge1" class="edge"><title>2&#45;&gt;0</title>
<path fill="none" stroke="black" stroke-width="2" d="M128.61,-100.08C118.447,-94.4604 105.677,-87.3998 94.3839,-81.1553"/>
<polygon fill="black" stroke="black" stroke-width="2" points="95.7793,-77.9275 85.3344,-76.1515 92.392,-84.0534 95.7793,-77.9275"/>
</g>
<!-- 4 -->
<g id="node5" class="node"><title>4</title>
<ellipse fill="cadetblue" stroke="black" cx="136.577" cy="-21.2132" rx="21.4286" ry="21.4286"/>
<text text-anchor="middle" x="136.577" y="-16.2132" font-family="Times New Roman,serif" font-size="20.00">2</text>
</g>
<!-- 2&#45;&gt;4 -->
<g id="edge10" class="edge"><title>2&#45;&gt;4</title>
<path fill="none" stroke="black" stroke-width="2" d="M144.75,-89.27C143.439,-78.3527 141.813,-64.8134 140.358,-52.6929"/>
<polygon fill="black" stroke="black" stroke-width="2" points="143.802,-52.0199 139.135,-42.5085 136.852,-52.8545 143.802,-52.0199"/>
</g>
<!-- 3 -->
<g id="node4" class="node"><title>3</title>
<ellipse fill="cadetblue" stroke="black" cx="69.7069" cy="-269.877" rx="21.4286" ry="21.4286"/>
<text text-anchor="middle" x="69.7069" y="-264.877" font-family="Times New Roman,serif" font-size="20.00">2</text>
</g>
<!-- 3&#45;&gt;1 -->
<g id="edge6" class="edge"><title>3&#45;&gt;1</title>
<path fill="none" stroke="black" stroke-width="2" d="M55.8911,-253.656C52.1574,-249.272 48.037,-244.434 44.0256,-239.724"/>
<polygon fill="black" stroke="black" stroke-width="2" points="46.6137,-237.364 37.4652,-232.021 41.2846,-241.903 46.6137,-237.364"/>
</g>
<!-- 4&#45;&gt;0 -->
<g id="edge2" class="edge"><title>4&#45;&gt;0</title>
<path fill="none" stroke="black" stroke-width="2" d="M118.597,-32.716C110.92,-37.6272 101.802,-43.4604 93.3701,-48.855"/>
<polygon fill="black" stroke="black" stroke-width="2" points="91.4575,-45.9236 84.92,-54.2609 95.2299,-51.8202 91.4575,-45.9236"/>
</g>
<!-- 5&#45;&gt;2 -->
<g id="edge11" class="edge"><title>5&#45;&gt;2</title>
<path fill="none" stroke="black" stroke-width="2" d="M97.1041,-114.54C102.917,-114.062 109.333,-113.533 115.578,-113.019"/>
<polygon fill="black" stroke="black" stroke-width="2" points="116.113,-116.487 125.792,-112.178 115.539,-109.51 116.113,-116.487"/>
</g>
<!-- 5&#45;&gt;4 -->
<g id="edge16" class="edge"><title>5&#45;&gt;4</title>
<path fill="none" stroke="black" stroke-width="2" d="M87.0639,-98.4242C96.2051,-84.1695 109.144,-63.9931 119.502,-47.8403"/>
<polygon fill="black" stroke="black" stroke-width="2" points="122.499,-49.6508 124.951,-39.3436 116.606,-45.8721 122.499,-49.6508"/>
</g>
<!-- 5&#45;&gt;7 -->
<g id="edge17" class="edge"><title>5&#45;&gt;7</title>
<path fill="none" stroke="black" stroke-width="2" d="M57.4855,-127.826C54.3997,-129.788 51.1375,-131.862 47.8853,-133.93"/>
<polygon fill="black" stroke="black" stroke-width="2" points="45.9877,-130.989 39.4273,-139.309 49.7439,-136.896 45.9877,-130.989"/>
</g>
<!-- 6&#45;&gt;2 -->
<g id="edge12" class="edge"><title>6&#45;&gt;2</title>
<path fill="none" stroke="black" stroke-width="2" d="M131.677,-173.545C134.094,-163.767 137.028,-151.902 139.697,-141.109"/>
<polygon fill="black" stroke="black" stroke-width="2" points="143.146,-141.74 142.149,-131.192 136.351,-140.059 143.146,-141.74"/>
</g>
<!-- 6&#45;&gt;3 -->
<g id="edge14" class="edge"><title>6&#45;&gt;3</title>
<path fill="none" stroke="black" stroke-width="2" d="M113.652,-211.432C106.311,-221.195 96.9782,-233.608 88.8027,-244.481"/>
<polygon fill="black" stroke="black" stroke-width="2" points="85.7669,-242.694 82.5546,-252.79 91.3618,-246.901 85.7669,-242.694"/>
</g>
<!-- 7&#45;&gt;1 -->
<g id="edge9" class="edge"><title>7&#45;&gt;1</title>
<path fill="none" stroke="black" stroke-width="2" d="M22.0141,-172.148C22.1604,-176.031 22.3158,-180.157 22.4706,-184.264"/>
<polygon fill="black" stroke="black" stroke-width="2" points="18.9739,-184.422 22.848,-194.283 25.969,-184.158 18.9739,-184.422"/>
</g>
<!-- 7&#45;&gt;2 -->
<g id="edge13" class="edge"><title>7&#45;&gt;2</title>
<path fill="none" stroke="black" stroke-width="2" d="M42.3289,-148.849C52.472,-147.571 64.7298,-145.587 75.476,-142.616 90.4832,-138.466 106.359,-131.629 119.357,-125.319"/>
<polygon fill="black" stroke="black" stroke-width="2" points="121.301,-128.26 128.673,-120.65 118.164,-122.001 121.301,-128.26"/>
</g>
<!-- 7&#45;&gt;3 -->
<g id="edge15" class="edge"><title>7&#45;&gt;3</title>
<path fill="none" stroke="black" stroke-width="2" d="M30.213,-170.227C34.0226,-178.523 38.464,-188.344 42.3268,-197.278 48.3334,-211.171 54.3418,-226.854 59.1933,-240.079"/>
<polygon fill="black" stroke="black" stroke-width="2" points="55.9614,-241.433 62.6586,-249.643 62.5427,-239.049 55.9614,-241.433"/>
</g>
</g>
</svg>

