<?xml version="1.0" encoding="UTF-8" standalone="no"?>
<!DOCTYPE svg PUBLIC "-//W3C//DTD SVG 1.1//EN"
 "http://www.w3.org/Graphics/SVG/1.1/DTD/svg11.dtd">
<!-- Generated by graphviz version 2.36.0 (20140111.2315)
 -->
<!-- Title: G Pages: 1 -->
<svg width="100%" height="100%"
 viewBox="0.00 0.00 235.81 296.08" xmlns="http://www.w3.org/2000/svg" xmlns:xlink="http://www.w3.org/1999/xlink">
<g id="graph0" class="graph" transform="scale(1 1) rotate(0) translate(4 292.077)">
<title>G</title>
<!-- 0 -->
<g id="node1" class="node"><title>0</title>
<ellipse fill="cadetblue" stroke="black" cx="72.4145" cy="-57.9134" rx="21.4286" ry="21.4286"/>
<text text-anchor="middle" x="72.4145" y="-52.9134" font-family="Times New Roman,serif" font-size="20.00">2</text>
</g>
<!-- 2 -->
<g id="node3" class="node"><title>2</title>
<ellipse fill="cadetblue" stroke="black" cx="141.193" cy="-21.2132" rx="21.4286" ry="21.4286"/>
<text text-anchor="middle" x="141.193" y="-16.2132" font-family="Times New Roman,serif" font-size="20.00">2</text>
</g>
<!-- 0&#45;&gt;2 -->
<g id="edge1" class="edge"><title>0&#45;&gt;2</title>
<path fill="none" stroke="black" stroke-width="2" d="M91.2084,-47.8849C98.0321,-44.2438 105.895,-40.0481 113.335,-36.0784"/>
<polygon fill="black" stroke="black" stroke-width="2" points="115.247,-39.0252 122.421,-31.2296 111.951,-32.8495 115.247,-39.0252"/>
</g>
<!-- 4 -->
<g id="node5" class="node"><title>4</title>
<ellipse fill="cadetblue" stroke="black" cx="206.598" cy="-30.7145" rx="21.4286" ry="21.4286"/>
<text text-anchor="middle" x="206.598" y="-25.7145" font-family="Times New Roman,serif" font-size="20.00">2</text>
</g>
<!-- 0&#45;&gt;4 -->
<g id="edge2" class="edge"><title>0&#45;&gt;4</title>
<path fill="none" stroke="black" stroke-width="2" d="M93.5711,-55.2776C107.215,-53.4392 125.305,-50.742 141.154,-47.5175 152.652,-45.1782 165.157,-42.1015 176.126,-39.2208"/>
<polygon fill="black" stroke="black" stroke-width="2" points="177.337,-42.5199 186.089,-36.5495 175.524,-35.7587 177.337,-42.5199"/>
</g>
<!-- 7 -->
<g id="node8" class="node"><title>7</title>
<ellipse fill="brown" stroke="black" cx="117.071" cy="-108.345" rx="21.4286" ry="21.4286"/>
<text text-anchor="middle" x="117.071" y="-103.345" font-family="Times New Roman,serif" font-size="20.00">3</text>
</g>
<!-- 0&#45;&gt;7 -->
<g id="edge5" class="edge"><title>0&#45;&gt;7</title>
<path fill="none" stroke="black" stroke-width="2" d="M86.5441,-73.8702C89.5577,-77.2736 92.8028,-80.9382 96.0127,-84.5632"/>
<polygon fill="black" stroke="black" stroke-width="2" points="93.6303,-87.1523 102.88,-92.3187 98.871,-82.5117 93.6303,-87.1523"/>
</g>
<!-- 1 -->
<g id="node2" class="node"><title>1</title>
<ellipse fill="cadetblue" stroke="black" cx="88.2094" cy="-207.815" rx="21.4286" ry="21.4286"/>
<text text-anchor="middle" x="88.2094" y="-202.815" font-family="Times New Roman,serif" font-size="20.00">2</text>
</g>
<!-- 3 -->
<g id="node4" class="node"><title>3</title>
<ellipse fill="cadetblue" stroke="black" cx="116.536" cy="-266.864" rx="21.4286" ry="21.4286"/>
<text text-anchor="middle" x="116.536" y="-261.864" font-family="Times New Roman,serif" font-size="20.00">2</text>
</g>
<!-- 1&#45;&gt;3 -->
<g id="edge6" class="edge"><title>1&#45;&gt;3</title>
<path fill="none" stroke="black" stroke-width="2" d="M97.4847,-227.15C99.2142,-230.755 101.055,-234.591 102.884,-238.404"/>
<polygon fill="black" stroke="black" stroke-width="2" points="99.8559,-240.185 107.337,-247.687 106.167,-237.157 99.8559,-240.185"/>
</g>
<!-- 6 -->
<g id="node7" class="node"><title>6</title>
<ellipse fill="cadetblue" stroke="black" cx="171.124" cy="-154.585" rx="21.4286" ry="21.4286"/>
<text text-anchor="middle" x="171.124" y="-149.585" font-family="Times New Roman,serif" font-size="20.00">2</text>
</g>
<!-- 1&#45;&gt;6 -->
<g id="edge8" class="edge"><title>1&#45;&gt;6</title>
<path fill="none" stroke="black" stroke-width="2" d="M106.201,-196.265C117.392,-189.08 131.985,-179.712 144.5,-171.677"/>
<polygon fill="black" stroke="black" stroke-width="2" points="146.644,-174.461 153.168,-166.113 142.862,-168.57 146.644,-174.461"/>
</g>
<!-- 2&#45;&gt;6 -->
<g id="edge11" class="edge"><title>2&#45;&gt;6</title>
<path fill="none" stroke="black" stroke-width="2" d="M145.87,-42.0526C150.783,-63.9458 158.564,-98.617 164.191,-123.693"/>
<polygon fill="black" stroke="black" stroke-width="2" points="160.777,-124.461 166.381,-133.452 167.607,-122.928 160.777,-124.461"/>
</g>
<!-- 2&#45;&gt;7 -->
<g id="edge12" class="edge"><title>2&#45;&gt;7</title>
<path fill="none" stroke="black" stroke-width="2" d="M135.476,-41.8622C132.502,-52.6048 128.809,-65.9464 125.513,-77.8523"/>
<polygon fill="black" stroke="black" stroke-width="2" points="122.042,-77.2727 122.747,-87.8441 128.788,-79.1404 122.042,-77.2727"/>
</g>
<!-- 5 -->
<g id="node6" class="node"><title>5</title>
<ellipse fill="cadetblue" stroke="black" cx="21.2132" cy="-164.289" rx="21.4286" ry="21.4286"/>
<text text-anchor="middle" x="21.2132" y="-159.289" font-family="Times New Roman,serif" font-size="20.00">2</text>
</g>
<!-- 3&#45;&gt;5 -->
<g id="edge13" class="edge"><title>3&#45;&gt;5</title>
<path fill="none" stroke="black" stroke-width="2" d="M99.7259,-253.738C90.4278,-246.15 78.8973,-236.181 69.5418,-226.347 58.8911,-215.152 48.2136,-201.728 39.6139,-190.234"/>
<polygon fill="black" stroke="black" stroke-width="2" points="42.2215,-187.872 33.4775,-181.889 36.5821,-192.019 42.2215,-187.872"/>
</g>
<!-- 4&#45;&gt;2 -->
<g id="edge10" class="edge"><title>4&#45;&gt;2</title>
<path fill="none" stroke="black" stroke-width="2" d="M185.543,-27.6559C181.342,-27.0456 176.846,-26.3925 172.387,-25.7448"/>
<polygon fill="black" stroke="black" stroke-width="2" points="172.607,-22.2401 162.208,-24.266 171.601,-29.1674 172.607,-22.2401"/>
</g>
<!-- 5&#45;&gt;0 -->
<g id="edge3" class="edge"><title>5&#45;&gt;0</title>
<path fill="none" stroke="black" stroke-width="2" d="M30.6043,-144.778C38.4713,-128.433 49.8076,-104.881 58.6919,-86.4233"/>
<polygon fill="black" stroke="black" stroke-width="2" points="61.8995,-87.8291 63.0829,-77.3006 55.5921,-84.7931 61.8995,-87.8291"/>
</g>
<!-- 5&#45;&gt;1 -->
<g id="edge7" class="edge"><title>5&#45;&gt;1</title>
<path fill="none" stroke="black" stroke-width="2" d="M39.167,-175.953C46.0759,-180.441 54.1184,-185.667 61.6678,-190.571"/>
<polygon fill="black" stroke="black" stroke-width="2" points="59.9136,-193.605 70.2061,-196.118 63.7273,-187.735 59.9136,-193.605"/>
</g>
<!-- 6&#45;&gt;0 -->
<g id="edge4" class="edge"><title>6&#45;&gt;0</title>
<path fill="none" stroke="black" stroke-width="2" d="M163.839,-134.4C157.98,-120.449 148.588,-102.228 135.672,-89.7457 126.21,-80.6012 113.602,-73.5389 102.134,-68.4162"/>
<polygon fill="black" stroke="black" stroke-width="2" points="103.439,-65.1687 92.8617,-64.5661 100.755,-71.6335 103.439,-65.1687"/>
</g>
<!-- 6&#45;&gt;3 -->
<g id="edge14" class="edge"><title>6&#45;&gt;3</title>
<path fill="none" stroke="black" stroke-width="2" d="M161.74,-173.887C153.109,-191.64 140.199,-218.194 130.382,-238.385"/>
<polygon fill="black" stroke="black" stroke-width="2" points="127.205,-236.915 125.98,-247.438 133.501,-239.975 127.205,-236.915"/>
</g>
<!-- 6&#45;&gt;7 -->
<g id="edge17" class="edge"><title>6&#45;&gt;7</title>
<path fill="none" stroke="black" stroke-width="2" d="M154.906,-140.712C150.524,-136.962 145.687,-132.825 140.978,-128.797"/>
<polygon fill="black" stroke="black" stroke-width="2" points="143.151,-126.05 133.277,-122.209 138.601,-131.369 143.151,-126.05"/>
</g>
<!-- 7&#45;&gt;1 -->
<g id="edge9" class="edge"><title>7&#45;&gt;1</title>
<path fill="none" stroke="black" stroke-width="2" d="M111.091,-128.955C107.028,-142.959 101.584,-161.72 97.026,-177.429"/>
<polygon fill="black" stroke="black" stroke-width="2" points="93.6072,-176.652 94.1819,-187.231 100.33,-178.603 93.6072,-176.652"/>
</g>
<!-- 7&#45;&gt;4 -->
<g id="edge15" class="edge"><title>7&#45;&gt;4</title>
<path fill="none" stroke="black" stroke-width="2" d="M133.492,-94.1063C147.247,-82.1784 167.069,-64.9905 182.604,-51.5204"/>
<polygon fill="black" stroke="black" stroke-width="2" points="185.019,-54.0585 190.282,-44.8628 180.433,-48.7698 185.019,-54.0585"/>
</g>
<!-- 7&#45;&gt;5 -->
<g id="edge16" class="edge"><title>7&#45;&gt;5</title>
<path fill="none" stroke="black" stroke-width="2" d="M98.5887,-119.131C84.3993,-127.412 64.5881,-138.975 48.5645,-148.326"/>
<polygon fill="black" stroke="black" stroke-width="2" points="46.5114,-145.472 39.6388,-153.535 50.0398,-151.517 46.5114,-145.472"/>
</g>
</g>
</svg>

