<?xml version="1.0" encoding="UTF-8" standalone="no"?>
<!DOCTYPE svg PUBLIC "-//W3C//DTD SVG 1.1//EN"
 "http://www.w3.org/Graphics/SVG/1.1/DTD/svg11.dtd">
<!-- Generated by graphviz version 2.36.0 (20140111.2315)
 -->
<!-- Title: G Pages: 1 -->
<svg width="100%" height="100%"
 viewBox="0.00 0.00 234.58 249.89" xmlns="http://www.w3.org/2000/svg" xmlns:xlink="http://www.w3.org/1999/xlink">
<g id="graph0" class="graph" transform="scale(1 1) rotate(0) translate(4 245.889)">
<title>G</title>
<!-- 0 -->
<g id="node1" class="node"><title>0</title>
<ellipse fill="cadetblue" stroke="black" cx="62.2494" cy="-48.8964" rx="21.4286" ry="21.4286"/>
<text text-anchor="middle" x="62.2494" y="-43.8964" font-family="Times New Roman,serif" font-size="20.00">2</text>
</g>
<!-- 5 -->
<g id="node6" class="node"><title>5</title>
<ellipse fill="cadetblue" stroke="black" cx="21.2132" cy="-129.19" rx="21.4286" ry="21.4286"/>
<text text-anchor="middle" x="21.2132" y="-124.19" font-family="Times New Roman,serif" font-size="20.00">2</text>
</g>
<!-- 0&#45;&gt;5 -->
<g id="edge3" class="edge"><title>0&#45;&gt;5</title>
<path fill="none" stroke="black" stroke-width="2" d="M52.5244,-67.9248C47.4649,-77.8243 41.1815,-90.1187 35.5742,-101.09"/>
<polygon fill="black" stroke="black" stroke-width="2" points="32.3028,-99.8005 30.8684,-110.298 38.5359,-102.986 32.3028,-99.8005"/>
</g>
<!-- 6 -->
<g id="node7" class="node"><title>6</title>
<ellipse fill="cadetblue" stroke="black" cx="165.261" cy="-117.626" rx="21.4286" ry="21.4286"/>
<text text-anchor="middle" x="165.261" y="-112.626" font-family="Times New Roman,serif" font-size="20.00">2</text>
</g>
<!-- 0&#45;&gt;6 -->
<g id="edge4" class="edge"><title>0&#45;&gt;6</title>
<path fill="none" stroke="black" stroke-width="2" d="M80.1925,-60.8682C96.4407,-71.7092 120.582,-87.8163 139,-100.105"/>
<polygon fill="black" stroke="black" stroke-width="2" points="137.262,-103.153 147.523,-105.792 141.147,-97.33 137.262,-103.153"/>
</g>
<!-- 7 -->
<g id="node8" class="node"><title>7</title>
<ellipse fill="dodgerblue" stroke="black" cx="107.132" cy="-116.862" rx="21.4286" ry="21.4286"/>
<text text-anchor="middle" x="107.132" y="-111.862" font-family="Times New Roman,serif" font-size="20.00">4</text>
</g>
<!-- 0&#45;&gt;7 -->
<g id="edge5" class="edge"><title>0&#45;&gt;7</title>
<path fill="none" stroke="black" stroke-width="2" d="M74.0418,-66.7536C78.7973,-73.9547 84.3833,-82.4134 89.5976,-90.3094"/>
<polygon fill="black" stroke="black" stroke-width="2" points="86.8315,-92.4722 95.2628,-98.8882 92.6728,-88.6148 86.8315,-92.4722"/>
</g>
<!-- 1 -->
<g id="node2" class="node"><title>1</title>
<ellipse fill="cadetblue" stroke="black" cx="205.366" cy="-179.403" rx="21.4286" ry="21.4286"/>
<text text-anchor="middle" x="205.366" y="-174.403" font-family="Times New Roman,serif" font-size="20.00">2</text>
</g>
<!-- 1&#45;&gt;6 -->
<g id="edge8" class="edge"><title>1&#45;&gt;6</title>
<path fill="none" stroke="black" stroke-width="2" d="M193.766,-161.535C190.304,-156.203 186.432,-150.237 182.684,-144.464"/>
<polygon fill="black" stroke="black" stroke-width="2" points="185.354,-142.15 176.973,-135.669 179.483,-145.962 185.354,-142.15"/>
</g>
<!-- 1&#45;&gt;7 -->
<g id="edge9" class="edge"><title>1&#45;&gt;7</title>
<path fill="none" stroke="black" stroke-width="2" d="M187.348,-167.932C172.393,-158.411 150.904,-144.729 133.93,-133.923"/>
<polygon fill="black" stroke="black" stroke-width="2" points="135.351,-130.678 125.036,-128.26 131.591,-136.583 135.351,-130.678"/>
</g>
<!-- 2 -->
<g id="node3" class="node"><title>2</title>
<ellipse fill="brown" stroke="black" cx="112.681" cy="-21.2132" rx="21.4286" ry="21.4286"/>
<text text-anchor="middle" x="112.681" y="-16.2132" font-family="Times New Roman,serif" font-size="20.00">3</text>
</g>
<!-- 2&#45;&gt;0 -->
<g id="edge1" class="edge"><title>2&#45;&gt;0</title>
<path fill="none" stroke="black" stroke-width="2" d="M93.902,-31.5214C92.5718,-32.2516 91.2159,-32.9959 89.8507,-33.7453"/>
<polygon fill="black" stroke="black" stroke-width="2" points="87.9579,-30.7916 80.8759,-38.6718 91.3263,-36.9279 87.9579,-30.7916"/>
</g>
<!-- 2&#45;&gt;7 -->
<g id="edge13" class="edge"><title>2&#45;&gt;7</title>
<path fill="none" stroke="black" stroke-width="2" d="M111.449,-42.4408C110.722,-54.984 109.787,-71.1064 108.973,-85.1362"/>
<polygon fill="black" stroke="black" stroke-width="2" points="105.465,-85.1771 108.379,-95.3631 112.453,-85.5826 105.465,-85.1771"/>
</g>
<!-- 3 -->
<g id="node4" class="node"><title>3</title>
<ellipse fill="cadetblue" stroke="black" cx="104.594" cy="-220.676" rx="21.4286" ry="21.4286"/>
<text text-anchor="middle" x="104.594" y="-215.676" font-family="Times New Roman,serif" font-size="20.00">2</text>
</g>
<!-- 3&#45;&gt;1 -->
<g id="edge6" class="edge"><title>3&#45;&gt;1</title>
<path fill="none" stroke="black" stroke-width="2" d="M124.503,-212.522C139.271,-206.473 159.635,-198.133 176.232,-191.335"/>
<polygon fill="black" stroke="black" stroke-width="2" points="177.57,-194.569 185.498,-187.54 174.917,-188.092 177.57,-194.569"/>
</g>
<!-- 4 -->
<g id="node5" class="node"><title>4</title>
<ellipse fill="cadetblue" stroke="black" cx="193.015" cy="-52.8664" rx="21.4286" ry="21.4286"/>
<text text-anchor="middle" x="193.015" y="-47.8664" font-family="Times New Roman,serif" font-size="20.00">2</text>
</g>
<!-- 4&#45;&gt;0 -->
<g id="edge2" class="edge"><title>4&#45;&gt;0</title>
<path fill="none" stroke="black" stroke-width="2" d="M171.714,-52.2197C150.532,-51.5767 117.796,-50.5828 93.6372,-49.8494"/>
<polygon fill="black" stroke="black" stroke-width="2" points="93.6426,-46.348 83.541,-49.5428 93.4301,-53.3448 93.6426,-46.348"/>
</g>
<!-- 4&#45;&gt;1 -->
<g id="edge7" class="edge"><title>4&#45;&gt;1</title>
<path fill="none" stroke="black" stroke-width="2" d="M195.082,-74.0458C197.059,-94.3015 200.064,-125.091 202.316,-148.163"/>
<polygon fill="black" stroke="black" stroke-width="2" points="198.837,-148.542 203.292,-158.155 205.804,-147.862 198.837,-148.542"/>
</g>
<!-- 4&#45;&gt;2 -->
<g id="edge10" class="edge"><title>4&#45;&gt;2</title>
<path fill="none" stroke="black" stroke-width="2" d="M173.157,-45.042C163.791,-41.3516 152.426,-36.8735 142.087,-32.8"/>
<polygon fill="black" stroke="black" stroke-width="2" points="143.175,-29.4669 132.589,-29.0573 140.609,-35.9796 143.175,-29.4669"/>
</g>
<!-- 5&#45;&gt;2 -->
<g id="edge11" class="edge"><title>5&#45;&gt;2</title>
<path fill="none" stroke="black" stroke-width="2" d="M36.643,-114.63C49.133,-102.524 66.8793,-84.5755 80.8323,-67.5134 85.8428,-61.3865 90.876,-54.4932 95.4144,-47.9345"/>
<polygon fill="black" stroke="black" stroke-width="2" points="98.5489,-49.547 101.248,-39.3016 92.7488,-45.6278 98.5489,-49.547"/>
</g>
<!-- 5&#45;&gt;3 -->
<g id="edge14" class="edge"><title>5&#45;&gt;3</title>
<path fill="none" stroke="black" stroke-width="2" d="M35.737,-145.125C48.8889,-159.556 68.4295,-180.996 83.3381,-197.354"/>
<polygon fill="black" stroke="black" stroke-width="2" points="80.9136,-199.89 90.2365,-204.923 86.0873,-195.174 80.9136,-199.89"/>
</g>
<!-- 6&#45;&gt;2 -->
<g id="edge12" class="edge"><title>6&#45;&gt;2</title>
<path fill="none" stroke="black" stroke-width="2" d="M154.872,-98.5781C147.117,-84.3569 136.404,-64.7127 127.714,-48.7781"/>
<polygon fill="black" stroke="black" stroke-width="2" points="130.729,-46.9972 122.868,-39.8937 124.584,-50.3488 130.729,-46.9972"/>
</g>
<!-- 6&#45;&gt;3 -->
<g id="edge15" class="edge"><title>6&#45;&gt;3</title>
<path fill="none" stroke="black" stroke-width="2" d="M154.415,-136.05C145.069,-151.924 131.444,-175.067 120.804,-193.141"/>
<polygon fill="black" stroke="black" stroke-width="2" points="117.608,-191.672 115.551,-202.065 123.64,-195.223 117.608,-191.672"/>
</g>
<!-- 6&#45;&gt;4 -->
<g id="edge16" class="edge"><title>6&#45;&gt;4</title>
<path fill="none" stroke="black" stroke-width="2" d="M173.738,-97.8443C175.891,-92.8227 178.248,-87.3223 180.553,-81.9446"/>
<polygon fill="black" stroke="black" stroke-width="2" points="183.866,-83.0974 184.589,-72.5272 177.432,-80.34 183.866,-83.0974"/>
</g>
<!-- 6&#45;&gt;7 -->
<g id="edge19" class="edge"><title>6&#45;&gt;7</title>
<path fill="none" stroke="black" stroke-width="2" d="M143.946,-117.346C142.208,-117.323 140.431,-117.3 138.641,-117.276"/>
<polygon fill="black" stroke="black" stroke-width="2" points="138.49,-113.774 128.445,-117.142 138.398,-120.773 138.49,-113.774"/>
</g>
<!-- 7&#45;&gt;4 -->
<g id="edge17" class="edge"><title>7&#45;&gt;4</title>
<path fill="none" stroke="black" stroke-width="2" d="M124.512,-103.912C136.932,-94.6564 153.839,-82.0587 167.748,-71.6942"/>
<polygon fill="black" stroke="black" stroke-width="2" points="170.027,-74.3609 175.954,-65.5792 165.844,-68.7479 170.027,-74.3609"/>
</g>
<!-- 7&#45;&gt;5 -->
<g id="edge18" class="edge"><title>7&#45;&gt;5</title>
<path fill="none" stroke="black" stroke-width="2" d="M85.8939,-119.909C75.8768,-121.347 63.7214,-123.091 52.6642,-124.677"/>
<polygon fill="black" stroke="black" stroke-width="2" points="51.9066,-121.25 42.5051,-126.135 52.9008,-128.179 51.9066,-121.25"/>
</g>
</g>
</svg>

