<?xml version="1.0" encoding="UTF-8" standalone="no"?>
<!DOCTYPE svg PUBLIC "-//W3C//DTD SVG 1.1//EN"
 "http://www.w3.org/Graphics/SVG/1.1/DTD/svg11.dtd">
<!-- Generated by graphviz version 2.36.0 (20140111.2315)
 -->
<!-- Title: G Pages: 1 -->
<svg width="100%" height="100%"
 viewBox="0.00 0.00 302.28 293.30" xmlns="http://www.w3.org/2000/svg" xmlns:xlink="http://www.w3.org/1999/xlink">
<g id="graph0" class="graph" transform="scale(1 1) rotate(0) translate(4 289.297)">
<title>G</title>
<!-- 0 -->
<g id="node1" class="node"><title>0</title>
<ellipse fill="cadetblue" stroke="black" cx="273.07" cy="-155.37" rx="21.4286" ry="21.4286"/>
<text text-anchor="middle" x="273.07" y="-150.37" font-family="Times New Roman,serif" font-size="20.00">2</text>
</g>
<!-- 5 -->
<g id="node6" class="node"><title>5</title>
<ellipse fill="cadetblue" stroke="black" cx="151.565" cy="-197.935" rx="21.4286" ry="21.4286"/>
<text text-anchor="middle" x="151.565" y="-192.935" font-family="Times New Roman,serif" font-size="20.00">2</text>
</g>
<!-- 0&#45;&gt;5 -->
<g id="edge3" class="edge"><title>0&#45;&gt;5</title>
<path fill="none" stroke="black" stroke-width="2" d="M253.006,-162.399C233.483,-169.238 203.585,-179.711 181.299,-187.519"/>
<polygon fill="black" stroke="black" stroke-width="2" points="179.94,-184.286 171.659,-190.896 182.254,-190.893 179.94,-184.286"/>
</g>
<!-- 6 -->
<g id="node7" class="node"><title>6</title>
<ellipse fill="cadetblue" stroke="black" cx="226.552" cy="-264.084" rx="21.4286" ry="21.4286"/>
<text text-anchor="middle" x="226.552" y="-259.084" font-family="Times New Roman,serif" font-size="20.00">2</text>
</g>
<!-- 0&#45;&gt;6 -->
<g id="edge4" class="edge"><title>0&#45;&gt;6</title>
<path fill="none" stroke="black" stroke-width="2" d="M264.646,-175.057C257.467,-191.835 247.051,-216.176 238.925,-235.168"/>
<polygon fill="black" stroke="black" stroke-width="2" points="235.63,-233.972 234.914,-244.543 242.065,-236.726 235.63,-233.972"/>
</g>
<!-- 7 -->
<g id="node8" class="node"><title>7</title>
<ellipse fill="cadetblue" stroke="black" cx="124.386" cy="-105.818" rx="21.4286" ry="21.4286"/>
<text text-anchor="middle" x="124.386" y="-100.818" font-family="Times New Roman,serif" font-size="20.00">2</text>
</g>
<!-- 0&#45;&gt;7 -->
<g id="edge5" class="edge"><title>0&#45;&gt;7</title>
<path fill="none" stroke="black" stroke-width="2" d="M252.278,-151.052C243.105,-148.983 232.24,-146.306 222.6,-143.329 198.987,-136.037 172.878,-125.965 153.518,-118.094"/>
<polygon fill="black" stroke="black" stroke-width="2" points="154.639,-114.771 144.059,-114.205 151.977,-121.245 154.639,-114.771"/>
</g>
<!-- 1 -->
<g id="node2" class="node"><title>1</title>
<ellipse fill="cadetblue" stroke="black" cx="21.2132" cy="-160.946" rx="21.4286" ry="21.4286"/>
<text text-anchor="middle" x="21.2132" y="-155.946" font-family="Times New Roman,serif" font-size="20.00">2</text>
</g>
<!-- 1&#45;&gt;7 -->
<g id="edge8" class="edge"><title>1&#45;&gt;7</title>
<path fill="none" stroke="black" stroke-width="2" d="M40.1367,-150.835C55.9891,-142.364 78.8322,-130.159 96.7344,-120.593"/>
<polygon fill="black" stroke="black" stroke-width="2" points="98.412,-123.665 105.582,-115.865 95.1131,-117.491 98.412,-123.665"/>
</g>
<!-- 2 -->
<g id="node3" class="node"><title>2</title>
<ellipse fill="brown" stroke="black" cx="222.639" cy="-117.025" rx="21.4286" ry="21.4286"/>
<text text-anchor="middle" x="222.639" y="-112.025" font-family="Times New Roman,serif" font-size="20.00">3</text>
</g>
<!-- 2&#45;&gt;0 -->
<g id="edge1" class="edge"><title>2&#45;&gt;0</title>
<path fill="none" stroke="black" stroke-width="2" d="M239.712,-130.006C242.341,-132.005 245.102,-134.105 247.864,-136.204"/>
<polygon fill="black" stroke="black" stroke-width="2" points="245.935,-139.135 256.014,-142.401 250.172,-133.562 245.935,-139.135"/>
</g>
<!-- 4 -->
<g id="node5" class="node"><title>4</title>
<ellipse fill="cadetblue" stroke="black" cx="224.895" cy="-21.2132" rx="21.4286" ry="21.4286"/>
<text text-anchor="middle" x="224.895" y="-16.2132" font-family="Times New Roman,serif" font-size="20.00">2</text>
</g>
<!-- 2&#45;&gt;4 -->
<g id="edge9" class="edge"><title>2&#45;&gt;4</title>
<path fill="none" stroke="black" stroke-width="2" d="M223.139,-95.7609C223.435,-83.1963 223.815,-67.0466 224.146,-52.9929"/>
<polygon fill="black" stroke="black" stroke-width="2" points="227.651,-52.8284 224.388,-42.7487 220.653,-52.6635 227.651,-52.8284"/>
</g>
<!-- 3 -->
<g id="node4" class="node"><title>3</title>
<ellipse fill="cadetblue" stroke="black" cx="82.3111" cy="-256.822" rx="21.4286" ry="21.4286"/>
<text text-anchor="middle" x="82.3111" y="-251.822" font-family="Times New Roman,serif" font-size="20.00">2</text>
</g>
<!-- 3&#45;&gt;1 -->
<g id="edge6" class="edge"><title>3&#45;&gt;1</title>
<path fill="none" stroke="black" stroke-width="2" d="M70.8191,-238.788C61.6025,-224.325 48.5328,-203.816 38.1224,-187.48"/>
<polygon fill="black" stroke="black" stroke-width="2" points="40.9795,-185.451 32.6537,-178.899 35.0763,-189.213 40.9795,-185.451"/>
</g>
<!-- 4&#45;&gt;0 -->
<g id="edge2" class="edge"><title>4&#45;&gt;0</title>
<path fill="none" stroke="black" stroke-width="2" d="M232.107,-41.2978C240.125,-63.6252 253.155,-99.9123 262.364,-125.556"/>
<polygon fill="black" stroke="black" stroke-width="2" points="259.135,-126.919 265.808,-135.148 265.723,-124.553 259.135,-126.919"/>
</g>
<!-- 5&#45;&gt;1 -->
<g id="edge7" class="edge"><title>5&#45;&gt;1</title>
<path fill="none" stroke="black" stroke-width="2" d="M130.911,-192.074C109.553,-186.014 75.9791,-176.486 51.596,-169.567"/>
<polygon fill="black" stroke="black" stroke-width="2" points="52.3469,-166.142 41.7712,-166.779 50.4359,-172.876 52.3469,-166.142"/>
</g>
<!-- 5&#45;&gt;2 -->
<g id="edge10" class="edge"><title>5&#45;&gt;2</title>
<path fill="none" stroke="black" stroke-width="2" d="M165.607,-181.95C175.926,-170.203 190.117,-154.047 201.762,-140.791"/>
<polygon fill="black" stroke="black" stroke-width="2" points="204.656,-142.8 208.626,-132.977 199.397,-138.18 204.656,-142.8"/>
</g>
<!-- 5&#45;&gt;6 -->
<g id="edge16" class="edge"><title>5&#45;&gt;6</title>
<path fill="none" stroke="black" stroke-width="2" d="M167.836,-212.288C178.126,-221.365 191.595,-233.247 203.037,-243.34"/>
<polygon fill="black" stroke="black" stroke-width="2" points="200.756,-245.995 210.57,-249.986 205.387,-240.746 200.756,-245.995"/>
</g>
<!-- 6&#45;&gt;2 -->
<g id="edge11" class="edge"><title>6&#45;&gt;2</title>
<path fill="none" stroke="black" stroke-width="2" d="M225.983,-242.7C225.325,-217.977 224.236,-177.05 223.48,-148.647"/>
<polygon fill="black" stroke="black" stroke-width="2" points="226.973,-148.337 223.208,-138.434 219.976,-148.524 226.973,-148.337"/>
</g>
<!-- 6&#45;&gt;3 -->
<g id="edge13" class="edge"><title>6&#45;&gt;3</title>
<path fill="none" stroke="black" stroke-width="2" d="M205.269,-263.012C181.194,-261.8 141.74,-259.814 114.032,-258.419"/>
<polygon fill="black" stroke="black" stroke-width="2" points="113.845,-254.905 103.682,-257.898 113.493,-261.896 113.845,-254.905"/>
</g>
<!-- 7&#45;&gt;2 -->
<g id="edge12" class="edge"><title>7&#45;&gt;2</title>
<path fill="none" stroke="black" stroke-width="2" d="M145.705,-108.25C158.967,-109.762 176.259,-111.735 191.09,-113.426"/>
<polygon fill="black" stroke="black" stroke-width="2" points="191.029,-116.942 201.361,-114.598 191.822,-109.987 191.029,-116.942"/>
</g>
<!-- 7&#45;&gt;3 -->
<g id="edge14" class="edge"><title>7&#45;&gt;3</title>
<path fill="none" stroke="black" stroke-width="2" d="M118.624,-126.498C111.457,-152.22 99.1573,-196.362 90.8827,-226.059"/>
<polygon fill="black" stroke="black" stroke-width="2" points="87.4513,-225.335 88.1387,-235.907 94.1944,-227.214 87.4513,-225.335"/>
</g>
<!-- 7&#45;&gt;4 -->
<g id="edge15" class="edge"><title>7&#45;&gt;4</title>
<path fill="none" stroke="black" stroke-width="2" d="M140.983,-91.8472C157.302,-78.1103 182.385,-56.9965 200.879,-41.4289"/>
<polygon fill="black" stroke="black" stroke-width="2" points="203.21,-44.0415 208.607,-34.924 198.702,-38.6862 203.21,-44.0415"/>
</g>
<!-- 7&#45;&gt;5 -->
<g id="edge17" class="edge"><title>7&#45;&gt;5</title>
<path fill="none" stroke="black" stroke-width="2" d="M130.418,-126.262C134.007,-138.426 138.628,-154.086 142.634,-167.664"/>
<polygon fill="black" stroke="black" stroke-width="2" points="139.363,-168.948 145.55,-177.548 146.077,-166.967 139.363,-168.948"/>
</g>
</g>
</svg>

