<?xml version="1.0" encoding="UTF-8" standalone="no"?>
<!DOCTYPE svg PUBLIC "-//W3C//DTD SVG 1.1//EN"
 "http://www.w3.org/Graphics/SVG/1.1/DTD/svg11.dtd">
<!-- Generated by graphviz version 2.36.0 (20140111.2315)
 -->
<!-- Title: G Pages: 1 -->
<svg width="100%" height="100%"
 viewBox="0.00 0.00 269.64 258.17" xmlns="http://www.w3.org/2000/svg" xmlns:xlink="http://www.w3.org/1999/xlink">
<g id="graph0" class="graph" transform="scale(1 1) rotate(0) translate(4 254.175)">
<title>G</title>
<!-- 0 -->
<g id="node1" class="node"><title>0</title>
<ellipse fill="cadetblue" stroke="black" cx="21.2132" cy="-93.8189" rx="21.4286" ry="21.4286"/>
<text text-anchor="middle" x="21.2132" y="-88.8189" font-family="Times New Roman,serif" font-size="20.00">2</text>
</g>
<!-- 5 -->
<g id="node6" class="node"><title>5</title>
<ellipse fill="cadetblue" stroke="black" cx="79.8576" cy="-141.573" rx="21.4286" ry="21.4286"/>
<text text-anchor="middle" x="79.8576" y="-136.573" font-family="Times New Roman,serif" font-size="20.00">2</text>
</g>
<!-- 0&#45;&gt;5 -->
<g id="edge3" class="edge"><title>0&#45;&gt;5</title>
<path fill="none" stroke="black" stroke-width="2" d="M37.8615,-107.376C43.3558,-111.849 49.5852,-116.922 55.532,-121.765"/>
<polygon fill="black" stroke="black" stroke-width="2" points="53.4064,-124.547 63.3707,-128.148 57.8264,-119.119 53.4064,-124.547"/>
</g>
<!-- 6 -->
<g id="node7" class="node"><title>6</title>
<ellipse fill="cadetblue" stroke="black" cx="130.289" cy="-134.723" rx="21.4286" ry="21.4286"/>
<text text-anchor="middle" x="130.289" y="-129.723" font-family="Times New Roman,serif" font-size="20.00">2</text>
</g>
<!-- 0&#45;&gt;6 -->
<g id="edge4" class="edge"><title>0&#45;&gt;6</title>
<path fill="none" stroke="black" stroke-width="2" d="M41.3732,-101.071C52.7307,-105.184 67.1658,-110.455 79.9749,-115.269 86.6896,-117.792 93.8904,-120.547 100.685,-123.169"/>
<polygon fill="black" stroke="black" stroke-width="2" points="99.6569,-126.524 110.246,-126.873 102.186,-119.997 99.6569,-126.524"/>
</g>
<!-- 7 -->
<g id="node8" class="node"><title>7</title>
<ellipse fill="brown" stroke="black" cx="93.475" cy="-21.2132" rx="21.4286" ry="21.4286"/>
<text text-anchor="middle" x="93.475" y="-16.2132" font-family="Times New Roman,serif" font-size="20.00">3</text>
</g>
<!-- 0&#45;&gt;7 -->
<g id="edge5" class="edge"><title>0&#45;&gt;7</title>
<path fill="none" stroke="black" stroke-width="2" d="M36.1859,-78.775C46.2915,-68.6213 59.8067,-55.0417 71.1721,-43.6223"/>
<polygon fill="black" stroke="black" stroke-width="2" points="73.6994,-46.0445 78.2729,-36.4877 68.7378,-41.1065 73.6994,-46.0445"/>
</g>
<!-- 1 -->
<g id="node2" class="node"><title>1</title>
<ellipse fill="cadetblue" stroke="black" cx="193.594" cy="-205.867" rx="21.4286" ry="21.4286"/>
<text text-anchor="middle" x="193.594" y="-200.867" font-family="Times New Roman,serif" font-size="20.00">2</text>
</g>
<!-- 3 -->
<g id="node4" class="node"><title>3</title>
<ellipse fill="brown" stroke="black" cx="68.8265" cy="-228.962" rx="21.4286" ry="21.4286"/>
<text text-anchor="middle" x="68.8265" y="-223.962" font-family="Times New Roman,serif" font-size="20.00">3</text>
</g>
<!-- 1&#45;&gt;3 -->
<g id="edge6" class="edge"><title>1&#45;&gt;3</title>
<path fill="none" stroke="black" stroke-width="2" d="M172.711,-209.733C152.739,-213.429 122.379,-219.049 99.6302,-223.26"/>
<polygon fill="black" stroke="black" stroke-width="2" points="98.9739,-219.822 89.778,-225.084 100.248,-226.705 98.9739,-219.822"/>
</g>
<!-- 1&#45;&gt;6 -->
<g id="edge9" class="edge"><title>1&#45;&gt;6</title>
<path fill="none" stroke="black" stroke-width="2" d="M179.23,-189.723C170.974,-180.445 160.454,-168.624 151.286,-158.32"/>
<polygon fill="black" stroke="black" stroke-width="2" points="153.86,-155.947 144.597,-150.803 148.63,-160.6 153.86,-155.947"/>
</g>
<!-- 2 -->
<g id="node3" class="node"><title>2</title>
<ellipse fill="cadetblue" stroke="black" cx="152.204" cy="-39.4145" rx="21.4286" ry="21.4286"/>
<text text-anchor="middle" x="152.204" y="-34.4145" font-family="Times New Roman,serif" font-size="20.00">2</text>
</g>
<!-- 2&#45;&gt;0 -->
<g id="edge1" class="edge"><title>2&#45;&gt;0</title>
<path fill="none" stroke="black" stroke-width="2" d="M132.594,-47.5594C110.793,-56.6138 75.3621,-71.3293 50.3235,-81.7286"/>
<polygon fill="black" stroke="black" stroke-width="2" points="48.8506,-78.5504 40.958,-85.6184 51.5356,-85.015 48.8506,-78.5504"/>
</g>
<!-- 4 -->
<g id="node5" class="node"><title>4</title>
<ellipse fill="cadetblue" stroke="black" cx="240.424" cy="-74.8428" rx="21.4286" ry="21.4286"/>
<text text-anchor="middle" x="240.424" y="-69.8428" font-family="Times New Roman,serif" font-size="20.00">2</text>
</g>
<!-- 2&#45;&gt;4 -->
<g id="edge10" class="edge"><title>2&#45;&gt;4</title>
<path fill="none" stroke="black" stroke-width="2" d="M172.223,-47.4537C183.728,-52.074 198.387,-57.9611 211.164,-63.0923"/>
<polygon fill="black" stroke="black" stroke-width="2" points="209.9,-66.3565 220.484,-66.8354 212.509,-59.8608 209.9,-66.3565"/>
</g>
<!-- 2&#45;&gt;7 -->
<g id="edge13" class="edge"><title>2&#45;&gt;7</title>
<path fill="none" stroke="black" stroke-width="2" d="M131.664,-33.0486C129.086,-32.2496 126.408,-31.4196 123.72,-30.5866"/>
<polygon fill="black" stroke="black" stroke-width="2" points="124.691,-27.2235 114.103,-27.6063 122.619,-33.9098 124.691,-27.2235"/>
</g>
<!-- 3&#45;&gt;0 -->
<g id="edge2" class="edge"><title>3&#45;&gt;0</title>
<path fill="none" stroke="black" stroke-width="2" d="M61.6983,-208.729C53.7741,-186.238 40.8955,-149.684 31.7944,-123.852"/>
<polygon fill="black" stroke="black" stroke-width="2" points="35.0143,-122.458 28.3901,-114.189 28.4121,-124.784 35.0143,-122.458"/>
</g>
<!-- 4&#45;&gt;1 -->
<g id="edge7" class="edge"><title>4&#45;&gt;1</title>
<path fill="none" stroke="black" stroke-width="2" d="M233.209,-95.0282C225.452,-116.732 213.042,-151.453 204.18,-176.25"/>
<polygon fill="black" stroke="black" stroke-width="2" points="200.81,-175.279 200.74,-185.874 207.402,-177.635 200.81,-175.279"/>
</g>
<!-- 5&#45;&gt;1 -->
<g id="edge8" class="edge"><title>5&#45;&gt;1</title>
<path fill="none" stroke="black" stroke-width="2" d="M98.3846,-152.046C116.808,-162.461 145.282,-178.556 166.294,-190.434"/>
<polygon fill="black" stroke="black" stroke-width="2" points="164.648,-193.524 175.075,-195.398 168.093,-187.43 164.648,-193.524"/>
</g>
<!-- 5&#45;&gt;2 -->
<g id="edge11" class="edge"><title>5&#45;&gt;2</title>
<path fill="none" stroke="black" stroke-width="2" d="M92.1303,-124.243C103.615,-108.026 120.918,-83.593 134.009,-65.108"/>
<polygon fill="black" stroke="black" stroke-width="2" points="136.948,-67.0129 139.871,-56.8293 131.236,-62.9673 136.948,-67.0129"/>
</g>
<!-- 5&#45;&gt;3 -->
<g id="edge14" class="edge"><title>5&#45;&gt;3</title>
<path fill="none" stroke="black" stroke-width="2" d="M77.1873,-162.727C75.8692,-173.169 74.2525,-185.976 72.7933,-197.537"/>
<polygon fill="black" stroke="black" stroke-width="2" points="69.2905,-197.34 71.5105,-207.699 76.2354,-198.216 69.2905,-197.34"/>
</g>
<!-- 6&#45;&gt;2 -->
<g id="edge12" class="edge"><title>6&#45;&gt;2</title>
<path fill="none" stroke="black" stroke-width="2" d="M135.044,-114.043C137.982,-101.267 141.807,-84.6339 145.099,-70.314"/>
<polygon fill="black" stroke="black" stroke-width="2" points="148.553,-70.9139 147.383,-60.3839 141.731,-69.3452 148.553,-70.9139"/>
</g>
<!-- 6&#45;&gt;3 -->
<g id="edge15" class="edge"><title>6&#45;&gt;3</title>
<path fill="none" stroke="black" stroke-width="2" d="M118.438,-152.893C109.282,-166.933 96.4748,-186.57 86.1664,-202.375"/>
<polygon fill="black" stroke="black" stroke-width="2" points="82.9636,-200.879 80.4323,-211.167 88.8268,-204.703 82.9636,-200.879"/>
</g>
<!-- 6&#45;&gt;7 -->
<g id="edge18" class="edge"><title>6&#45;&gt;7</title>
<path fill="none" stroke="black" stroke-width="2" d="M123.707,-114.43C118.01,-96.8643 109.693,-71.2176 103.223,-51.2697"/>
<polygon fill="black" stroke="black" stroke-width="2" points="106.538,-50.146 100.124,-41.7136 99.8796,-52.3056 106.538,-50.146"/>
</g>
<!-- 7&#45;&gt;4 -->
<g id="edge16" class="edge"><title>7&#45;&gt;4</title>
<path fill="none" stroke="black" stroke-width="2" d="M108.051,-36.8882C115.241,-43.9878 124.341,-52.091 133.577,-57.9871 155.987,-72.293 186.289,-75.9308 208.9,-76.3248"/>
<polygon fill="black" stroke="black" stroke-width="2" points="209.011,-79.8246 219.002,-76.2974 208.992,-72.8246 209.011,-79.8246"/>
</g>
<!-- 7&#45;&gt;5 -->
<g id="edge17" class="edge"><title>7&#45;&gt;5</title>
<path fill="none" stroke="black" stroke-width="2" d="M91.0719,-42.454C88.9556,-61.1593 85.8441,-88.6601 83.4352,-109.952"/>
<polygon fill="black" stroke="black" stroke-width="2" points="79.9291,-109.809 82.2826,-120.139 86.8847,-110.596 79.9291,-109.809"/>
</g>
</g>
</svg>

