<?xml version="1.0" encoding="UTF-8" standalone="no"?>
<!DOCTYPE svg PUBLIC "-//W3C//DTD SVG 1.1//EN"
 "http://www.w3.org/Graphics/SVG/1.1/DTD/svg11.dtd">
<!-- Generated by graphviz version 2.36.0 (20140111.2315)
 -->
<!-- Title: G Pages: 1 -->
<svg width="100%" height="100%"
 viewBox="0.00 0.00 210.40 213.30" xmlns="http://www.w3.org/2000/svg" xmlns:xlink="http://www.w3.org/1999/xlink">
<g id="graph0" class="graph" transform="scale(1 1) rotate(0) translate(4 209.303)">
<title>G</title>
<!-- 0 -->
<g id="node1" class="node"><title>0</title>
<ellipse fill="cadetblue" stroke="black" cx="89.5423" cy="-90.3941" rx="21.4286" ry="21.4286"/>
<text text-anchor="middle" x="89.5423" y="-85.3941" font-family="Times New Roman,serif" font-size="20.00">2</text>
</g>
<!-- 4 -->
<g id="node5" class="node"><title>4</title>
<ellipse fill="cadetblue" stroke="black" cx="181.188" cy="-120.998" rx="21.4286" ry="21.4286"/>
<text text-anchor="middle" x="181.188" y="-115.998" font-family="Times New Roman,serif" font-size="20.00">2</text>
</g>
<!-- 0&#45;&gt;4 -->
<g id="edge3" class="edge"><title>0&#45;&gt;4</title>
<path fill="none" stroke="black" stroke-width="2" d="M109.881,-97.1862C121.984,-101.228 137.563,-106.43 151.072,-110.941"/>
<polygon fill="black" stroke="black" stroke-width="2" points="150.312,-114.378 160.906,-114.225 152.529,-107.738 150.312,-114.378"/>
</g>
<!-- 5 -->
<g id="node6" class="node"><title>5</title>
<ellipse fill="cadetblue" stroke="black" cx="21.2132" cy="-120.676" rx="21.4286" ry="21.4286"/>
<text text-anchor="middle" x="21.2132" y="-115.676" font-family="Times New Roman,serif" font-size="20.00">2</text>
</g>
<!-- 0&#45;&gt;5 -->
<g id="edge4" class="edge"><title>0&#45;&gt;5</title>
<path fill="none" stroke="black" stroke-width="2" d="M70.1447,-98.9908C63.9946,-101.716 57.054,-104.792 50.3742,-107.753"/>
<polygon fill="black" stroke="black" stroke-width="2" points="48.6208,-104.701 40.8966,-111.953 51.4571,-111.101 48.6208,-104.701"/>
</g>
<!-- 6 -->
<g id="node7" class="node"><title>6</title>
<ellipse fill="brown" stroke="black" cx="161.52" cy="-70.5669" rx="21.4286" ry="21.4286"/>
<text text-anchor="middle" x="161.52" y="-65.5669" font-family="Times New Roman,serif" font-size="20.00">3</text>
</g>
<!-- 0&#45;&gt;6 -->
<g id="edge5" class="edge"><title>0&#45;&gt;6</title>
<path fill="none" stroke="black" stroke-width="2" d="M110.361,-84.6593C116.833,-82.8765 124.106,-80.8731 131.093,-78.9486"/>
<polygon fill="black" stroke="black" stroke-width="2" points="132.285,-82.2505 140.997,-76.2204 130.426,-75.5019 132.285,-82.2505"/>
</g>
<!-- 1 -->
<g id="node2" class="node"><title>1</title>
<ellipse fill="cadetblue" stroke="black" cx="84.5623" cy="-184.089" rx="21.4286" ry="21.4286"/>
<text text-anchor="middle" x="84.5623" y="-179.089" font-family="Times New Roman,serif" font-size="20.00">2</text>
</g>
<!-- 1&#45;&gt;5 -->
<g id="edge8" class="edge"><title>1&#45;&gt;5</title>
<path fill="none" stroke="black" stroke-width="2" d="M69.5494,-169.061C61.8522,-161.356 52.3198,-151.814 43.7598,-143.246"/>
<polygon fill="black" stroke="black" stroke-width="2" points="46.102,-140.638 36.5583,-136.037 41.1497,-145.585 46.102,-140.638"/>
</g>
<!-- 1&#45;&gt;6 -->
<g id="edge9" class="edge"><title>1&#45;&gt;6</title>
<path fill="none" stroke="black" stroke-width="2" d="M96.587,-166.351C109.294,-147.607 129.461,-117.858 143.949,-96.4862"/>
<polygon fill="black" stroke="black" stroke-width="2" points="146.866,-98.4215 149.58,-88.1802 141.072,-94.4936 146.866,-98.4215"/>
</g>
<!-- 2 -->
<g id="node3" class="node"><title>2</title>
<ellipse fill="cadetblue" stroke="black" cx="91.4769" cy="-21.2132" rx="21.4286" ry="21.4286"/>
<text text-anchor="middle" x="91.4769" y="-16.2132" font-family="Times New Roman,serif" font-size="20.00">2</text>
</g>
<!-- 2&#45;&gt;0 -->
<g id="edge1" class="edge"><title>2&#45;&gt;0</title>
<path fill="none" stroke="black" stroke-width="2" d="M90.8754,-42.7233C90.7321,-47.8474 90.5762,-53.4207 90.4233,-58.8902"/>
<polygon fill="black" stroke="black" stroke-width="2" points="86.9178,-59.041 90.1368,-69.135 93.915,-59.2368 86.9178,-59.041"/>
</g>
<!-- 2&#45;&gt;6 -->
<g id="edge12" class="edge"><title>2&#45;&gt;6</title>
<path fill="none" stroke="black" stroke-width="2" d="M109.152,-33.6672C117.176,-39.3213 126.826,-46.1207 135.644,-52.334"/>
<polygon fill="black" stroke="black" stroke-width="2" points="133.903,-55.389 144.094,-58.2878 137.935,-49.6668 133.903,-55.389"/>
</g>
<!-- 3 -->
<g id="node4" class="node"><title>3</title>
<ellipse fill="brown" stroke="black" cx="137.752" cy="-174" rx="21.4286" ry="21.4286"/>
<text text-anchor="middle" x="137.752" y="-169" font-family="Times New Roman,serif" font-size="20.00">3</text>
</g>
<!-- 3&#45;&gt;0 -->
<g id="edge2" class="edge"><title>3&#45;&gt;0</title>
<path fill="none" stroke="black" stroke-width="2" d="M127.052,-155.445C120.686,-144.404 112.491,-130.191 105.385,-117.868"/>
<polygon fill="black" stroke="black" stroke-width="2" points="108.239,-115.812 100.212,-108.897 102.175,-119.308 108.239,-115.812"/>
</g>
<!-- 3&#45;&gt;1 -->
<g id="edge6" class="edge"><title>3&#45;&gt;1</title>
<path fill="none" stroke="black" stroke-width="2" d="M116.73,-177.987C116.265,-178.075 115.798,-178.164 115.329,-178.253"/>
<polygon fill="black" stroke="black" stroke-width="2" points="114.604,-174.828 105.431,-180.131 115.909,-181.705 114.604,-174.828"/>
</g>
<!-- 4&#45;&gt;1 -->
<g id="edge7" class="edge"><title>4&#45;&gt;1</title>
<path fill="none" stroke="black" stroke-width="2" d="M161.932,-130.481C149.413,-136.931 132.93,-145.966 119.22,-155.332 115.661,-157.763 112.028,-160.48 108.517,-163.248"/>
<polygon fill="black" stroke="black" stroke-width="2" points="106.168,-160.648 100.641,-169.687 110.599,-166.067 106.168,-160.648"/>
</g>
<!-- 4&#45;&gt;2 -->
<g id="edge10" class="edge"><title>4&#45;&gt;2</title>
<path fill="none" stroke="black" stroke-width="2" d="M163.988,-108.074C157.07,-102.528 149.214,-95.7691 142.737,-88.9821 130.573,-76.2354 118.602,-60.6313 109.291,-47.6107"/>
<polygon fill="black" stroke="black" stroke-width="2" points="111.91,-45.2502 103.3,-39.0761 106.18,-49.2719 111.91,-45.2502"/>
</g>
<!-- 4&#45;&gt;3 -->
<g id="edge13" class="edge"><title>4&#45;&gt;3</title>
<path fill="none" stroke="black" stroke-width="2" d="M167.682,-137.478C164.607,-141.231 161.274,-145.298 157.986,-149.31"/>
<polygon fill="black" stroke="black" stroke-width="2" points="155.03,-147.395 151.398,-157.348 160.444,-151.832 155.03,-147.395"/>
</g>
<!-- 5&#45;&gt;2 -->
<g id="edge11" class="edge"><title>5&#45;&gt;2</title>
<path fill="none" stroke="black" stroke-width="2" d="M33.7749,-102.894C44.6659,-87.4776 60.5751,-64.9569 72.9315,-47.4655"/>
<polygon fill="black" stroke="black" stroke-width="2" points="76.1127,-49.0283 79.0239,-38.8413 70.3954,-44.9894 76.1127,-49.0283"/>
</g>
<!-- 5&#45;&gt;3 -->
<g id="edge14" class="edge"><title>5&#45;&gt;3</title>
<path fill="none" stroke="black" stroke-width="2" d="M40.7191,-129.602C59.3744,-138.137 87.731,-151.112 108.98,-160.835"/>
<polygon fill="black" stroke="black" stroke-width="2" points="107.633,-164.067 118.182,-165.045 110.545,-157.702 107.633,-164.067"/>
</g>
<!-- 6&#45;&gt;3 -->
<g id="edge15" class="edge"><title>6&#45;&gt;3</title>
<path fill="none" stroke="black" stroke-width="2" d="M156.71,-91.498C153.295,-106.359 148.655,-126.552 144.82,-143.24"/>
<polygon fill="black" stroke="black" stroke-width="2" points="141.383,-142.57 142.554,-153.1 148.205,-144.137 141.383,-142.57"/>
</g>
<!-- 6&#45;&gt;4 -->
<g id="edge16" class="edge"><title>6&#45;&gt;4</title>
<path fill="none" stroke="black" stroke-width="2" d="M169.294,-90.4988C169.465,-90.9393 169.638,-91.382 169.811,-91.8265"/>
<polygon fill="black" stroke="black" stroke-width="2" points="166.577,-93.1663 173.471,-101.211 173.099,-90.623 166.577,-93.1663"/>
</g>
</g>
</svg>

