<?xml version="1.0" encoding="UTF-8" standalone="no"?>
<!DOCTYPE svg PUBLIC "-//W3C//DTD SVG 1.1//EN"
 "http://www.w3.org/Graphics/SVG/1.1/DTD/svg11.dtd">
<!-- Generated by graphviz version 2.36.0 (20140111.2315)
 -->
<!-- Title: G Pages: 1 -->
<svg width="100%" height="100%"
 viewBox="0.00 0.00 224.44 203.74" xmlns="http://www.w3.org/2000/svg" xmlns:xlink="http://www.w3.org/1999/xlink">
<g id="graph0" class="graph" transform="scale(1 1) rotate(0) translate(4 199.744)">
<title>G</title>
<!-- 0 -->
<g id="node1" class="node"><title>0</title>
<ellipse fill="brown" stroke="black" cx="106.551" cy="-21.2132" rx="21.4286" ry="21.4286"/>
<text text-anchor="middle" x="106.551" y="-16.2132" font-family="Times New Roman,serif" font-size="20.00">3</text>
</g>
<!-- 3 -->
<g id="node4" class="node"><title>3</title>
<ellipse fill="cadetblue" stroke="black" cx="195.223" cy="-97.2651" rx="21.4286" ry="21.4286"/>
<text text-anchor="middle" x="195.223" y="-92.2651" font-family="Times New Roman,serif" font-size="20.00">2</text>
</g>
<!-- 0&#45;&gt;3 -->
<g id="edge2" class="edge"><title>0&#45;&gt;3</title>
<path fill="none" stroke="black" stroke-width="2" d="M122.358,-36.0411C130.181,-43.274 139.827,-52.0347 148.691,-59.6478 155.601,-65.583 163.237,-71.8657 170.29,-77.5615"/>
<polygon fill="black" stroke="black" stroke-width="2" points="168.233,-80.3982 178.224,-83.9224 172.611,-74.9366 168.233,-80.3982"/>
</g>
<!-- 6 -->
<g id="node7" class="node"><title>6</title>
<ellipse fill="dodgerblue" stroke="black" cx="108.492" cy="-108.395" rx="21.4286" ry="21.4286"/>
<text text-anchor="middle" x="108.492" y="-103.395" font-family="Times New Roman,serif" font-size="20.00">4</text>
</g>
<!-- 0&#45;&gt;6 -->
<g id="edge5" class="edge"><title>0&#45;&gt;6</title>
<path fill="none" stroke="black" stroke-width="2" d="M107.03,-42.7637C107.261,-53.1099 107.541,-65.7043 107.795,-77.0831"/>
<polygon fill="black" stroke="black" stroke-width="2" points="104.296,-77.1724 108.017,-87.092 111.294,-77.0165 104.296,-77.1724"/>
</g>
<!-- 1 -->
<g id="node2" class="node"><title>1</title>
<ellipse fill="cadetblue" stroke="black" cx="21.2132" cy="-174.531" rx="21.4286" ry="21.4286"/>
<text text-anchor="middle" x="21.2132" y="-169.531" font-family="Times New Roman,serif" font-size="20.00">2</text>
</g>
<!-- 5 -->
<g id="node6" class="node"><title>5</title>
<ellipse fill="cadetblue" stroke="black" cx="57.6812" cy="-78.7192" rx="21.4286" ry="21.4286"/>
<text text-anchor="middle" x="57.6812" y="-73.7192" font-family="Times New Roman,serif" font-size="20.00">2</text>
</g>
<!-- 1&#45;&gt;5 -->
<g id="edge7" class="edge"><title>1&#45;&gt;5</title>
<path fill="none" stroke="black" stroke-width="2" d="M28.7694,-154.679C33.9036,-141.19 40.7816,-123.119 46.541,-107.988"/>
<polygon fill="black" stroke="black" stroke-width="2" points="49.8484,-109.137 50.1347,-98.546 43.3063,-106.647 49.8484,-109.137"/>
</g>
<!-- 2 -->
<g id="node3" class="node"><title>2</title>
<ellipse fill="cadetblue" stroke="black" cx="167.308" cy="-41.0648" rx="21.4286" ry="21.4286"/>
<text text-anchor="middle" x="167.308" y="-36.0648" font-family="Times New Roman,serif" font-size="20.00">2</text>
</g>
<!-- 2&#45;&gt;0 -->
<g id="edge1" class="edge"><title>2&#45;&gt;0</title>
<path fill="none" stroke="black" stroke-width="2" d="M147.076,-34.4545C143.73,-33.3612 140.198,-32.2072 136.671,-31.0547"/>
<polygon fill="black" stroke="black" stroke-width="2" points="137.493,-27.6413 126.901,-27.8623 135.319,-34.2951 137.493,-27.6413"/>
</g>
<!-- 4 -->
<g id="node5" class="node"><title>4</title>
<ellipse fill="cadetblue" stroke="black" cx="117.067" cy="-158.826" rx="21.4286" ry="21.4286"/>
<text text-anchor="middle" x="117.067" y="-153.826" font-family="Times New Roman,serif" font-size="20.00">2</text>
</g>
<!-- 2&#45;&gt;4 -->
<g id="edge10" class="edge"><title>2&#45;&gt;4</title>
<path fill="none" stroke="black" stroke-width="2" d="M158.899,-60.7754C150.856,-79.6263 138.631,-108.281 129.471,-129.752"/>
<polygon fill="black" stroke="black" stroke-width="2" points="126.208,-128.48 125.503,-139.051 132.647,-131.227 126.208,-128.48"/>
</g>
<!-- 2&#45;&gt;6 -->
<g id="edge12" class="edge"><title>2&#45;&gt;6</title>
<path fill="none" stroke="black" stroke-width="2" d="M153.07,-57.3635C145.918,-65.551 137.117,-75.6258 129.23,-84.6546"/>
<polygon fill="black" stroke="black" stroke-width="2" points="126.541,-82.4122 122.598,-92.246 131.813,-87.0174 126.541,-82.4122"/>
</g>
<!-- 3&#45;&gt;2 -->
<g id="edge9" class="edge"><title>3&#45;&gt;2</title>
<path fill="none" stroke="black" stroke-width="2" d="M185.772,-78.2382C184.317,-75.3086 182.788,-72.2315 181.26,-69.1547"/>
<polygon fill="black" stroke="black" stroke-width="2" points="184.332,-67.4711 176.749,-60.0721 178.063,-70.5851 184.332,-67.4711"/>
</g>
<!-- 3&#45;&gt;6 -->
<g id="edge14" class="edge"><title>3&#45;&gt;6</title>
<path fill="none" stroke="black" stroke-width="2" d="M173.784,-100.016C163.491,-101.337 150.962,-102.945 139.641,-104.397"/>
<polygon fill="black" stroke="black" stroke-width="2" points="139.157,-100.931 129.684,-105.675 140.048,-107.874 139.157,-100.931"/>
</g>
<!-- 4&#45;&gt;0 -->
<g id="edge3" class="edge"><title>4&#45;&gt;0</title>
<path fill="none" stroke="black" stroke-width="2" d="M127.043,-139.837C130.995,-130.676 134.649,-119.37 134.795,-108.655 135.074,-88.1194 127.93,-66.1253 120.758,-49.3324"/>
<polygon fill="black" stroke="black" stroke-width="2" points="123.893,-47.7702 116.588,-40.0965 117.514,-50.6508 123.893,-47.7702"/>
</g>
<!-- 4&#45;&gt;1 -->
<g id="edge6" class="edge"><title>4&#45;&gt;1</title>
<path fill="none" stroke="black" stroke-width="2" d="M95.7938,-162.311C83.0117,-164.406 66.5208,-167.108 52.2974,-169.438"/>
<polygon fill="black" stroke="black" stroke-width="2" points="51.7293,-165.984 42.4268,-171.055 52.8611,-172.892 51.7293,-165.984"/>
</g>
<!-- 4&#45;&gt;6 -->
<g id="edge16" class="edge"><title>4&#45;&gt;6</title>
<path fill="none" stroke="black" stroke-width="2" d="M113.48,-137.731C113.466,-137.646 113.451,-137.562 113.437,-137.477"/>
<polygon fill="black" stroke="black" stroke-width="2" points="117.219,-138.839 112.092,-129.567 110.318,-140.013 117.219,-138.839"/>
</g>
<!-- 5&#45;&gt;0 -->
<g id="edge4" class="edge"><title>5&#45;&gt;0</title>
<path fill="none" stroke="black" stroke-width="2" d="M71.5545,-62.3941C76.1329,-57.0065 81.324,-50.898 86.2797,-45.0666"/>
<polygon fill="black" stroke="black" stroke-width="2" points="89.0031,-47.2667 92.8118,-37.3801 83.669,-42.7337 89.0031,-47.2667"/>
</g>
<!-- 5&#45;&gt;2 -->
<g id="edge11" class="edge"><title>5&#45;&gt;2</title>
<path fill="none" stroke="black" stroke-width="2" d="M77.7884,-71.8128C94.4503,-66.0898 118.381,-57.8702 137.308,-51.3691"/>
<polygon fill="black" stroke="black" stroke-width="2" points="138.636,-54.6137 146.957,-48.0549 136.362,-47.9933 138.636,-54.6137"/>
</g>
<!-- 5&#45;&gt;3 -->
<g id="edge13" class="edge"><title>5&#45;&gt;3</title>
<path fill="none" stroke="black" stroke-width="2" d="M79.0982,-79.6186C88.2536,-80.1362 99.0475,-80.9231 108.752,-82.0914 127.248,-84.3183 147.793,-87.8777 164.216,-90.9895"/>
<polygon fill="black" stroke="black" stroke-width="2" points="163.866,-94.4867 174.349,-92.9513 165.196,-87.6143 163.866,-94.4867"/>
</g>
<!-- 5&#45;&gt;4 -->
<g id="edge15" class="edge"><title>5&#45;&gt;4</title>
<path fill="none" stroke="black" stroke-width="2" d="M69.0481,-96.8858C74.9586,-106.041 82.4496,-117.207 89.7087,-126.81 91.7369,-129.493 93.9195,-132.245 96.1356,-134.955"/>
<polygon fill="black" stroke="black" stroke-width="2" points="93.6524,-137.441 102.763,-142.849 99.0133,-132.94 93.6524,-137.441"/>
</g>
<!-- 6&#45;&gt;1 -->
<g id="edge8" class="edge"><title>6&#45;&gt;1</title>
<path fill="none" stroke="black" stroke-width="2" d="M91.2483,-121.461C78.3744,-131.216 60.5914,-144.692 46.1664,-155.622"/>
<polygon fill="black" stroke="black" stroke-width="2" points="43.9802,-152.887 38.1238,-161.717 48.2079,-158.467 43.9802,-152.887"/>
</g>
<!-- 6&#45;&gt;5 -->
<g id="edge17" class="edge"><title>6&#45;&gt;5</title>
<path fill="none" stroke="black" stroke-width="2" d="M90.1479,-97.6811C88.4424,-96.685 86.6907,-95.6619 84.9271,-94.6319"/>
<polygon fill="black" stroke="black" stroke-width="2" points="86.569,-91.5376 76.1687,-89.5166 83.0387,-97.5822 86.569,-91.5376"/>
</g>
</g>
</svg>

