<?xml version="1.0" encoding="UTF-8" standalone="no"?>
<!DOCTYPE svg PUBLIC "-//W3C//DTD SVG 1.1//EN"
 "http://www.w3.org/Graphics/SVG/1.1/DTD/svg11.dtd">
<!-- Generated by graphviz version 2.36.0 (20140111.2315)
 -->
<!-- Title: G Pages: 1 -->
<svg width="100%" height="100%"
 viewBox="0.00 0.00 219.51 232.64" xmlns="http://www.w3.org/2000/svg" xmlns:xlink="http://www.w3.org/1999/xlink">
<g id="graph0" class="graph" transform="scale(1 1) rotate(0) translate(4 228.635)">
<title>G</title>
<!-- 0 -->
<g id="node1" class="node"><title>0</title>
<ellipse fill="cadetblue" stroke="black" cx="34.5571" cy="-47.8402" rx="21.4286" ry="21.4286"/>
<text text-anchor="middle" x="34.5571" y="-42.8402" font-family="Times New Roman,serif" font-size="20.00">2</text>
</g>
<!-- 4 -->
<g id="node5" class="node"><title>4</title>
<ellipse fill="brown" stroke="black" cx="166.543" cy="-62.9977" rx="21.4286" ry="21.4286"/>
<text text-anchor="middle" x="166.543" y="-57.9977" font-family="Times New Roman,serif" font-size="20.00">3</text>
</g>
<!-- 0&#45;&gt;4 -->
<g id="edge3" class="edge"><title>0&#45;&gt;4</title>
<path fill="none" stroke="black" stroke-width="2" d="M55.7629,-50.2755C77.218,-52.7395 110.631,-56.5767 135.154,-59.393"/>
<polygon fill="black" stroke="black" stroke-width="2" points="135.056,-62.9046 145.39,-60.5684 135.855,-55.9503 135.056,-62.9046"/>
</g>
<!-- 5 -->
<g id="node6" class="node"><title>5</title>
<ellipse fill="dodgerblue" stroke="black" cx="21.2132" cy="-111.747" rx="21.4286" ry="21.4286"/>
<text text-anchor="middle" x="21.2132" y="-106.747" font-family="Times New Roman,serif" font-size="20.00">4</text>
</g>
<!-- 0&#45;&gt;5 -->
<g id="edge4" class="edge"><title>0&#45;&gt;5</title>
<path fill="none" stroke="black" stroke-width="2" d="M30.1878,-68.7658C29.3897,-72.588 28.5415,-76.6502 27.6974,-80.6932"/>
<polygon fill="black" stroke="black" stroke-width="2" points="24.2559,-80.0516 25.638,-90.5559 31.1081,-81.4824 24.2559,-80.0516"/>
</g>
<!-- 6 -->
<g id="node7" class="node"><title>6</title>
<ellipse fill="cadetblue" stroke="black" cx="107.893" cy="-130.152" rx="21.4286" ry="21.4286"/>
<text text-anchor="middle" x="107.893" y="-125.152" font-family="Times New Roman,serif" font-size="20.00">2</text>
</g>
<!-- 0&#45;&gt;6 -->
<g id="edge5" class="edge"><title>0&#45;&gt;6</title>
<path fill="none" stroke="black" stroke-width="2" d="M48.6971,-63.7108C59.4831,-75.817 74.5152,-92.6889 86.7321,-106.401"/>
<polygon fill="black" stroke="black" stroke-width="2" points="84.281,-108.911 93.5466,-114.05 89.5076,-104.255 84.281,-108.911"/>
</g>
<!-- 1 -->
<g id="node2" class="node"><title>1</title>
<ellipse fill="cadetblue" stroke="black" cx="190.3" cy="-160.121" rx="21.4286" ry="21.4286"/>
<text text-anchor="middle" x="190.3" y="-155.121" font-family="Times New Roman,serif" font-size="20.00">2</text>
</g>
<!-- 1&#45;&gt;4 -->
<g id="edge8" class="edge"><title>1&#45;&gt;4</title>
<path fill="none" stroke="black" stroke-width="2" d="M185.145,-139.047C181.885,-125.72 177.618,-108.274 173.993,-93.4547"/>
<polygon fill="black" stroke="black" stroke-width="2" points="177.382,-92.5792 171.606,-83.6972 170.583,-94.2425 177.382,-92.5792"/>
</g>
<!-- 1&#45;&gt;6 -->
<g id="edge9" class="edge"><title>1&#45;&gt;6</title>
<path fill="none" stroke="black" stroke-width="2" d="M170.351,-152.866C160.505,-149.285 148.428,-144.893 137.527,-140.929"/>
<polygon fill="black" stroke="black" stroke-width="2" points="138.538,-137.572 127.944,-137.444 136.145,-144.151 138.538,-137.572"/>
</g>
<!-- 2 -->
<g id="node3" class="node"><title>2</title>
<ellipse fill="cadetblue" stroke="black" cx="116.112" cy="-21.2132" rx="21.4286" ry="21.4286"/>
<text text-anchor="middle" x="116.112" y="-16.2132" font-family="Times New Roman,serif" font-size="20.00">2</text>
</g>
<!-- 2&#45;&gt;0 -->
<g id="edge1" class="edge"><title>2&#45;&gt;0</title>
<path fill="none" stroke="black" stroke-width="2" d="M95.532,-27.9323C86.0916,-31.0145 74.719,-34.7276 64.3655,-38.108"/>
<polygon fill="black" stroke="black" stroke-width="2" points="63.2675,-34.7846 54.8477,-41.2155 65.4401,-41.4389 63.2675,-34.7846"/>
</g>
<!-- 2&#45;&gt;1 -->
<g id="edge6" class="edge"><title>2&#45;&gt;1</title>
<path fill="none" stroke="black" stroke-width="2" d="M126.091,-40.2673C132.333,-52.1585 140.559,-67.7745 147.916,-81.5703 156.973,-98.5551 167.219,-117.551 175.369,-132.608"/>
<polygon fill="black" stroke="black" stroke-width="2" points="172.302,-134.295 180.143,-141.421 178.457,-130.961 172.302,-134.295"/>
</g>
<!-- 2&#45;&gt;5 -->
<g id="edge11" class="edge"><title>2&#45;&gt;5</title>
<path fill="none" stroke="black" stroke-width="2" d="M100.441,-36.1631C85.1019,-50.7968 61.5623,-73.2538 44.1238,-89.8903"/>
<polygon fill="black" stroke="black" stroke-width="2" points="41.4117,-87.6404 36.5922,-97.0756 46.2436,-92.7053 41.4117,-87.6404"/>
</g>
<!-- 3 -->
<g id="node4" class="node"><title>3</title>
<ellipse fill="cadetblue" stroke="black" cx="57.519" cy="-203.422" rx="21.4286" ry="21.4286"/>
<text text-anchor="middle" x="57.519" y="-198.422" font-family="Times New Roman,serif" font-size="20.00">2</text>
</g>
<!-- 3&#45;&gt;0 -->
<g id="edge2" class="edge"><title>3&#45;&gt;0</title>
<path fill="none" stroke="black" stroke-width="2" d="M55.7596,-182.241C54.0815,-163.623 51.2567,-135.826 47.5175,-111.791 45.8327,-100.961 43.5702,-89.183 41.4074,-78.7201"/>
<polygon fill="black" stroke="black" stroke-width="2" points="44.7982,-77.8378 39.3028,-68.7796 37.95,-79.2877 44.7982,-77.8378"/>
</g>
<!-- 3&#45;&gt;1 -->
<g id="edge7" class="edge"><title>3&#45;&gt;1</title>
<path fill="none" stroke="black" stroke-width="2" d="M77.975,-196.751C99.9694,-189.579 135.156,-178.104 160.285,-169.909"/>
<polygon fill="black" stroke="black" stroke-width="2" points="161.616,-173.156 170.038,-166.728 159.446,-166.501 161.616,-173.156"/>
</g>
<!-- 4&#45;&gt;2 -->
<g id="edge10" class="edge"><title>4&#45;&gt;2</title>
<path fill="none" stroke="black" stroke-width="2" d="M150.03,-49.3159C146.951,-46.7647 143.674,-44.0501 140.418,-41.3522"/>
<polygon fill="black" stroke="black" stroke-width="2" points="142.423,-38.468 132.49,-34.783 137.957,-43.8582 142.423,-38.468"/>
</g>
<!-- 4&#45;&gt;5 -->
<g id="edge15" class="edge"><title>4&#45;&gt;5</title>
<path fill="none" stroke="black" stroke-width="2" d="M146.336,-69.7761C121.746,-78.0246 79.9948,-92.0295 51.5421,-101.574"/>
<polygon fill="black" stroke="black" stroke-width="2" points="50.0853,-98.3707 41.7176,-104.869 52.3115,-105.007 50.0853,-98.3707"/>
</g>
<!-- 5&#45;&gt;3 -->
<g id="edge13" class="edge"><title>5&#45;&gt;3</title>
<path fill="none" stroke="black" stroke-width="2" d="M29.091,-131.639C33.9913,-144.013 40.3811,-160.148 45.8612,-173.985"/>
<polygon fill="black" stroke="black" stroke-width="2" points="42.7203,-175.56 49.6565,-183.569 49.2285,-172.983 42.7203,-175.56"/>
</g>
<!-- 6&#45;&gt;2 -->
<g id="edge12" class="edge"><title>6&#45;&gt;2</title>
<path fill="none" stroke="black" stroke-width="2" d="M109.497,-108.889C110.708,-92.8431 112.387,-70.5798 113.751,-52.5034"/>
<polygon fill="black" stroke="black" stroke-width="2" points="117.249,-52.6577 114.512,-42.4228 110.269,-52.1311 117.249,-52.6577"/>
</g>
<!-- 6&#45;&gt;3 -->
<g id="edge14" class="edge"><title>6&#45;&gt;3</title>
<path fill="none" stroke="black" stroke-width="2" d="M95.6991,-147.889C89.5734,-156.799 82.0357,-167.762 75.2806,-177.588"/>
<polygon fill="black" stroke="black" stroke-width="2" points="72.3822,-175.626 69.6009,-185.849 78.1505,-179.591 72.3822,-175.626"/>
</g>
<!-- 6&#45;&gt;4 -->
<g id="edge16" class="edge"><title>6&#45;&gt;4</title>
<path fill="none" stroke="black" stroke-width="2" d="M122.091,-113.896C129.223,-105.73 137.999,-95.6813 145.864,-86.676"/>
<polygon fill="black" stroke="black" stroke-width="2" points="148.534,-88.9385 152.476,-79.1043 143.262,-84.3339 148.534,-88.9385"/>
</g>
<!-- 6&#45;&gt;5 -->
<g id="edge17" class="edge"><title>6&#45;&gt;5</title>
<path fill="none" stroke="black" stroke-width="2" d="M86.9105,-125.697C76.4764,-123.481 63.6614,-120.76 52.1286,-118.312"/>
<polygon fill="black" stroke="black" stroke-width="2" points="52.5117,-114.815 42.0028,-116.162 51.0578,-121.662 52.5117,-114.815"/>
</g>
</g>
</svg>

