<?xml version="1.0" encoding="UTF-8" standalone="no"?>
<!DOCTYPE svg PUBLIC "-//W3C//DTD SVG 1.1//EN"
 "http://www.w3.org/Graphics/SVG/1.1/DTD/svg11.dtd">
<!-- Generated by graphviz version 2.36.0 (20140111.2315)
 -->
<!-- Title: G Pages: 1 -->
<svg width="100%" height="100%"
 viewBox="0.00 0.00 211.43 217.63" xmlns="http://www.w3.org/2000/svg" xmlns:xlink="http://www.w3.org/1999/xlink">
<g id="graph0" class="graph" transform="scale(1 1) rotate(0) translate(4 213.634)">
<title>G</title>
<!-- 0 -->
<g id="node1" class="node"><title>0</title>
<ellipse fill="cadetblue" stroke="black" cx="21.2132" cy="-126.856" rx="21.4286" ry="21.4286"/>
<text text-anchor="middle" x="21.2132" y="-121.856" font-family="Times New Roman,serif" font-size="20.00">2</text>
</g>
<!-- 3 -->
<g id="node4" class="node"><title>3</title>
<ellipse fill="cadetblue" stroke="black" cx="107.599" cy="-188.421" rx="21.4286" ry="21.4286"/>
<text text-anchor="middle" x="107.599" y="-183.421" font-family="Times New Roman,serif" font-size="20.00">2</text>
</g>
<!-- 0&#45;&gt;3 -->
<g id="edge2" class="edge"><title>0&#45;&gt;3</title>
<path fill="none" stroke="black" stroke-width="2" d="M38.6946,-139.314C51.1061,-148.16 67.971,-160.179 81.909,-170.112"/>
<polygon fill="black" stroke="black" stroke-width="2" points="79.9684,-173.027 90.1433,-175.981 84.031,-167.327 79.9684,-173.027"/>
</g>
<!-- 5 -->
<g id="node6" class="node"><title>5</title>
<ellipse fill="cadetblue" stroke="black" cx="76.4764" cy="-87.1132" rx="21.4286" ry="21.4286"/>
<text text-anchor="middle" x="76.4764" y="-82.1132" font-family="Times New Roman,serif" font-size="20.00">2</text>
</g>
<!-- 0&#45;&gt;5 -->
<g id="edge4" class="edge"><title>0&#45;&gt;5</title>
<path fill="none" stroke="black" stroke-width="2" d="M38.6988,-114.281C42.529,-111.527 46.6613,-108.555 50.7383,-105.623"/>
<polygon fill="black" stroke="black" stroke-width="2" points="52.8397,-108.423 58.9149,-99.7426 48.7527,-102.74 52.8397,-108.423"/>
</g>
<!-- 1 -->
<g id="node2" class="node"><title>1</title>
<ellipse fill="cadetblue" stroke="black" cx="182.219" cy="-79.5627" rx="21.4286" ry="21.4286"/>
<text text-anchor="middle" x="182.219" y="-74.5627" font-family="Times New Roman,serif" font-size="20.00">2</text>
</g>
<!-- 2 -->
<g id="node3" class="node"><title>2</title>
<ellipse fill="cadetblue" stroke="black" cx="93.6554" cy="-21.2132" rx="21.4286" ry="21.4286"/>
<text text-anchor="middle" x="93.6554" y="-16.2132" font-family="Times New Roman,serif" font-size="20.00">2</text>
</g>
<!-- 1&#45;&gt;2 -->
<g id="edge5" class="edge"><title>1&#45;&gt;2</title>
<path fill="none" stroke="black" stroke-width="2" d="M164.297,-67.7548C151.573,-59.3714 134.282,-47.9799 119.993,-38.5654"/>
<polygon fill="black" stroke="black" stroke-width="2" points="121.827,-35.5825 111.551,-33.0035 117.976,-41.4279 121.827,-35.5825"/>
</g>
<!-- 1&#45;&gt;3 -->
<g id="edge6" class="edge"><title>1&#45;&gt;3</title>
<path fill="none" stroke="black" stroke-width="2" d="M174.179,-99.4727C168.452,-112.57 160.07,-129.78 150.371,-143.605 144.655,-151.752 137.483,-159.864 130.655,-166.903"/>
<polygon fill="black" stroke="black" stroke-width="2" points="128.076,-164.531 123.465,-174.07 133.018,-169.489 128.076,-164.531"/>
</g>
<!-- 2&#45;&gt;0 -->
<g id="edge1" class="edge"><title>2&#45;&gt;0</title>
<path fill="none" stroke="black" stroke-width="2" d="M80.4031,-38.006C73.5155,-46.9147 65.071,-58.1255 57.9443,-68.4455 51.0129,-78.4828 43.7841,-89.7767 37.5912,-99.7394"/>
<polygon fill="black" stroke="black" stroke-width="2" points="34.4965,-98.0901 32.2333,-108.44 40.4571,-101.76 34.4965,-98.0901"/>
</g>
<!-- 4 -->
<g id="node5" class="node"><title>4</title>
<ellipse fill="brown" stroke="black" cx="131.788" cy="-124.988" rx="21.4286" ry="21.4286"/>
<text text-anchor="middle" x="131.788" y="-119.988" font-family="Times New Roman,serif" font-size="20.00">3</text>
</g>
<!-- 2&#45;&gt;4 -->
<g id="edge9" class="edge"><title>2&#45;&gt;4</title>
<path fill="none" stroke="black" stroke-width="2" d="M101.008,-41.222C106.652,-56.5833 114.533,-78.0307 120.907,-95.3777"/>
<polygon fill="black" stroke="black" stroke-width="2" points="117.724,-96.8613 124.458,-105.04 124.294,-94.4469 117.724,-96.8613"/>
</g>
<!-- 3&#45;&gt;4 -->
<g id="edge11" class="edge"><title>3&#45;&gt;4</title>
<path fill="none" stroke="black" stroke-width="2" d="M115.252,-168.35C116.929,-163.954 118.738,-159.211 120.522,-154.531"/>
<polygon fill="black" stroke="black" stroke-width="2" points="123.808,-155.736 124.101,-145.146 117.268,-153.242 123.808,-155.736"/>
</g>
<!-- 3&#45;&gt;5 -->
<g id="edge12" class="edge"><title>3&#45;&gt;5</title>
<path fill="none" stroke="black" stroke-width="2" d="M101.301,-167.92C96.8291,-153.364 90.7532,-133.586 85.7317,-117.24"/>
<polygon fill="black" stroke="black" stroke-width="2" points="89.0475,-116.115 82.7651,-107.584 82.3561,-118.171 89.0475,-116.115"/>
</g>
<!-- 4&#45;&gt;0 -->
<g id="edge3" class="edge"><title>4&#45;&gt;0</title>
<path fill="none" stroke="black" stroke-width="2" d="M110.468,-125.348C94.0236,-125.626 71.0336,-126.014 52.5048,-126.327"/>
<polygon fill="black" stroke="black" stroke-width="2" points="52.4071,-122.828 42.4677,-126.497 52.5254,-129.827 52.4071,-122.828"/>
</g>
<!-- 4&#45;&gt;1 -->
<g id="edge7" class="edge"><title>4&#45;&gt;1</title>
<path fill="none" stroke="black" stroke-width="2" d="M147.745,-110.615C151.24,-107.467 155.011,-104.07 158.732,-100.719"/>
<polygon fill="black" stroke="black" stroke-width="2" points="161.105,-103.291 166.193,-93.9979 156.421,-98.09 161.105,-103.291"/>
</g>
<!-- 5&#45;&gt;1 -->
<g id="edge8" class="edge"><title>5&#45;&gt;1</title>
<path fill="none" stroke="black" stroke-width="2" d="M97.8751,-85.5852C113.068,-84.5004 133.712,-83.0263 150.773,-81.8081"/>
<polygon fill="black" stroke="black" stroke-width="2" points="151.127,-85.2918 160.853,-81.0884 150.629,-78.3096 151.127,-85.2918"/>
</g>
<!-- 5&#45;&gt;2 -->
<g id="edge10" class="edge"><title>5&#45;&gt;2</title>
<path fill="none" stroke="black" stroke-width="2" d="M81.9119,-66.262C83.1026,-61.6946 84.3871,-56.767 85.6545,-51.9053"/>
<polygon fill="black" stroke="black" stroke-width="2" points="89.0605,-52.7144 88.1962,-42.1549 82.2868,-50.9486 89.0605,-52.7144"/>
</g>
<!-- 5&#45;&gt;4 -->
<g id="edge13" class="edge"><title>5&#45;&gt;4</title>
<path fill="none" stroke="black" stroke-width="2" d="M94.2818,-99.3054C97.9333,-101.806 101.848,-104.487 105.722,-107.139"/>
<polygon fill="black" stroke="black" stroke-width="2" points="103.787,-110.056 114.016,-112.818 107.742,-104.281 103.787,-110.056"/>
</g>
</g>
</svg>

