<?xml version="1.0" encoding="UTF-8" standalone="no"?>
<!DOCTYPE svg PUBLIC "-//W3C//DTD SVG 1.1//EN"
 "http://www.w3.org/Graphics/SVG/1.1/DTD/svg11.dtd">
<!-- Generated by graphviz version 2.36.0 (20140111.2315)
 -->
<!-- Title: G Pages: 1 -->
<svg width="100%" height="100%"
 viewBox="0.00 0.00 310.09 174.66" xmlns="http://www.w3.org/2000/svg" xmlns:xlink="http://www.w3.org/1999/xlink">
<g id="graph0" class="graph" transform="scale(1 1) rotate(0) translate(4 170.658)">
<title>G</title>
<!-- 0 -->
<g id="node1" class="node"><title>0</title>
<ellipse fill="cadetblue" stroke="black" cx="224.662" cy="-91.2821" rx="21.4286" ry="21.4286"/>
<text text-anchor="middle" x="224.662" y="-86.2821" font-family="Times New Roman,serif" font-size="20.00">2</text>
</g>
<!-- 2 -->
<g id="node3" class="node"><title>2</title>
<ellipse fill="dodgerblue" stroke="black" cx="197.577" cy="-21.2132" rx="21.4286" ry="21.4286"/>
<text text-anchor="middle" x="197.577" y="-16.2132" font-family="Times New Roman,serif" font-size="20.00">4</text>
</g>
<!-- 0&#45;&gt;2 -->
<g id="edge1" class="edge"><title>0&#45;&gt;2</title>
<path fill="none" stroke="black" stroke-width="2" d="M216.973,-71.3906C214.535,-65.0839 211.784,-57.9666 209.136,-51.1167"/>
<polygon fill="black" stroke="black" stroke-width="2" points="212.249,-49.4632 205.379,-41.3978 205.72,-51.9871 212.249,-49.4632"/>
</g>
<!-- 3 -->
<g id="node4" class="node"><title>3</title>
<ellipse fill="brown" stroke="black" cx="211.232" cy="-141.714" rx="21.4286" ry="21.4286"/>
<text text-anchor="middle" x="211.232" y="-136.714" font-family="Times New Roman,serif" font-size="20.00">3</text>
</g>
<!-- 0&#45;&gt;3 -->
<g id="edge2" class="edge"><title>0&#45;&gt;3</title>
<path fill="none" stroke="black" stroke-width="2" d="M219.199,-111.795C219.174,-111.89 219.149,-111.986 219.123,-112.081"/>
<polygon fill="black" stroke="black" stroke-width="2" points="215.924,-110.492 216.733,-121.056 222.689,-112.293 215.924,-110.492"/>
</g>
<!-- 4 -->
<g id="node5" class="node"><title>4</title>
<ellipse fill="cadetblue" stroke="black" cx="280.881" cy="-28.757" rx="21.4286" ry="21.4286"/>
<text text-anchor="middle" x="280.881" y="-23.757" font-family="Times New Roman,serif" font-size="20.00">2</text>
</g>
<!-- 0&#45;&gt;4 -->
<g id="edge3" class="edge"><title>0&#45;&gt;4</title>
<path fill="none" stroke="black" stroke-width="2" d="M238.848,-75.5044C245.191,-68.4499 252.799,-59.9881 259.789,-52.2142"/>
<polygon fill="black" stroke="black" stroke-width="2" points="262.42,-54.5235 266.503,-44.7472 257.214,-49.8432 262.42,-54.5235"/>
</g>
<!-- 7 -->
<g id="node8" class="node"><title>7</title>
<ellipse fill="cadetblue" stroke="black" cx="138.623" cy="-29.5128" rx="21.4286" ry="21.4286"/>
<text text-anchor="middle" x="138.623" y="-24.5128" font-family="Times New Roman,serif" font-size="20.00">2</text>
</g>
<!-- 0&#45;&gt;7 -->
<g id="edge6" class="edge"><title>0&#45;&gt;7</title>
<path fill="none" stroke="black" stroke-width="2" d="M207.25,-78.7822C194.889,-69.9074 178.092,-57.8483 164.21,-47.882"/>
<polygon fill="black" stroke="black" stroke-width="2" points="166.173,-44.983 156.008,-41.9942 162.091,-50.6693 166.173,-44.983"/>
</g>
<!-- 1 -->
<g id="node2" class="node"><title>1</title>
<ellipse fill="cadetblue" stroke="black" cx="21.2132" cy="-68.8462" rx="21.4286" ry="21.4286"/>
<text text-anchor="middle" x="21.2132" y="-63.8462" font-family="Times New Roman,serif" font-size="20.00">2</text>
</g>
<!-- 6 -->
<g id="node7" class="node"><title>6</title>
<ellipse fill="turquoise" stroke="black" cx="122.374" cy="-145.445" rx="21.4286" ry="21.4286"/>
<text text-anchor="middle" x="122.374" y="-140.445" font-family="Times New Roman,serif" font-size="20.00">5</text>
</g>
<!-- 1&#45;&gt;6 -->
<g id="edge8" class="edge"><title>1&#45;&gt;6</title>
<path fill="none" stroke="black" stroke-width="2" d="M38.3737,-81.8401C54.36,-93.9449 78.408,-112.154 96.6825,-125.991"/>
<polygon fill="black" stroke="black" stroke-width="2" points="95.044,-129.141 105.129,-132.387 99.2697,-123.56 95.044,-129.141"/>
</g>
<!-- 2&#45;&gt;3 -->
<g id="edge10" class="edge"><title>2&#45;&gt;3</title>
<path fill="none" stroke="black" stroke-width="2" d="M196.503,-42.4557C196.121,-56.3912 196.221,-74.9799 198.357,-91.2581 199.222,-97.8462 200.651,-104.81 202.25,-111.392"/>
<polygon fill="black" stroke="black" stroke-width="2" points="198.928,-112.521 204.845,-121.31 205.7,-110.749 198.928,-112.521"/>
</g>
<!-- 2&#45;&gt;6 -->
<g id="edge13" class="edge"><title>2&#45;&gt;6</title>
<path fill="none" stroke="black" stroke-width="2" d="M186.48,-39.544C173.873,-60.3713 153.176,-94.5609 138.721,-118.441"/>
<polygon fill="black" stroke="black" stroke-width="2" points="135.7,-116.672 133.516,-127.039 141.689,-120.297 135.7,-116.672"/>
</g>
<!-- 3&#45;&gt;4 -->
<g id="edge15" class="edge"><title>3&#45;&gt;4</title>
<path fill="none" stroke="black" stroke-width="2" d="M227.396,-127.818C232.878,-122.573 238.747,-116.315 243.245,-109.899 254.391,-93.9986 263.628,-74.2714 270.161,-58.2498"/>
<polygon fill="black" stroke="black" stroke-width="2" points="273.467,-59.4074 273.873,-48.8203 266.954,-56.8435 273.467,-59.4074"/>
</g>
<!-- 5 -->
<g id="node6" class="node"><title>5</title>
<ellipse fill="cadetblue" stroke="black" cx="105.761" cy="-87.5152" rx="21.4286" ry="21.4286"/>
<text text-anchor="middle" x="105.761" y="-82.5152" font-family="Times New Roman,serif" font-size="20.00">2</text>
</g>
<!-- 3&#45;&gt;5 -->
<g id="edge16" class="edge"><title>3&#45;&gt;5</title>
<path fill="none" stroke="black" stroke-width="2" d="M191.887,-131.773C175.682,-123.445 152.329,-111.445 134.028,-102.041"/>
<polygon fill="black" stroke="black" stroke-width="2" points="135.477,-98.8506 124.983,-97.393 132.278,-105.077 135.477,-98.8506"/>
</g>
<!-- 3&#45;&gt;6 -->
<g id="edge17" class="edge"><title>3&#45;&gt;6</title>
<path fill="none" stroke="black" stroke-width="2" d="M189.722,-142.617C178.917,-143.071 165.62,-143.629 153.705,-144.129"/>
<polygon fill="black" stroke="black" stroke-width="2" points="153.53,-140.633 143.686,-144.55 153.824,-147.627 153.53,-140.633"/>
</g>
<!-- 4&#45;&gt;2 -->
<g id="edge11" class="edge"><title>4&#45;&gt;2</title>
<path fill="none" stroke="black" stroke-width="2" d="M259.428,-26.8143C250.197,-25.9784 239.219,-24.9843 229.093,-24.0672"/>
<polygon fill="black" stroke="black" stroke-width="2" points="229.232,-20.5656 218.957,-23.1493 228.6,-27.5371 229.232,-20.5656"/>
</g>
<!-- 4&#45;&gt;7 -->
<g id="edge19" class="edge"><title>4&#45;&gt;7</title>
<path fill="none" stroke="black" stroke-width="2" d="M260.946,-36.2848C244.231,-41.8565 219.621,-48.3481 197.538,-47.5175 187.57,-47.1427 177.045,-44.6512 167.693,-41.6351"/>
<polygon fill="black" stroke="black" stroke-width="2" points="168.681,-38.272 158.086,-38.2318 166.343,-44.8702 168.681,-38.272"/>
</g>
<!-- 5&#45;&gt;0 -->
<g id="edge4" class="edge"><title>5&#45;&gt;0</title>
<path fill="none" stroke="black" stroke-width="2" d="M127.018,-88.1887C145.418,-88.7716 172.282,-89.6227 193.178,-90.2847"/>
<polygon fill="black" stroke="black" stroke-width="2" points="193.082,-93.7833 203.188,-90.6018 193.304,-86.7868 193.082,-93.7833"/>
</g>
<!-- 5&#45;&gt;1 -->
<g id="edge7" class="edge"><title>5&#45;&gt;1</title>
<path fill="none" stroke="black" stroke-width="2" d="M84.8613,-82.9004C75.004,-80.7238 63.0427,-78.0826 52.1621,-75.68"/>
<polygon fill="black" stroke="black" stroke-width="2" points="52.6846,-72.2112 42.1652,-73.4726 51.1753,-79.0465 52.6846,-72.2112"/>
</g>
<!-- 5&#45;&gt;2 -->
<g id="edge12" class="edge"><title>5&#45;&gt;2</title>
<path fill="none" stroke="black" stroke-width="2" d="M123.03,-75.0443C136.793,-65.106 156.273,-51.0391 171.869,-39.7775"/>
<polygon fill="black" stroke="black" stroke-width="2" points="174.014,-42.5455 180.072,-33.8536 169.916,-36.8705 174.014,-42.5455"/>
</g>
<!-- 5&#45;&gt;6 -->
<g id="edge20" class="edge"><title>5&#45;&gt;6</title>
<path fill="none" stroke="black" stroke-width="2" d="M111.665,-108.102C112.326,-110.407 113.009,-112.789 113.695,-115.184"/>
<polygon fill="black" stroke="black" stroke-width="2" points="110.368,-116.277 116.489,-124.924 117.097,-114.347 110.368,-116.277"/>
</g>
<!-- 6&#45;&gt;0 -->
<g id="edge5" class="edge"><title>6&#45;&gt;0</title>
<path fill="none" stroke="black" stroke-width="2" d="M141.135,-135.511C156.61,-127.316 178.804,-115.564 196.426,-106.234"/>
<polygon fill="black" stroke="black" stroke-width="2" points="198.473,-109.11 205.673,-101.337 195.198,-102.923 198.473,-109.11"/>
</g>
<!-- 7&#45;&gt;1 -->
<g id="edge9" class="edge"><title>7&#45;&gt;1</title>
<path fill="none" stroke="black" stroke-width="2" d="M118.44,-36.2744C99.9585,-42.4658 72.358,-51.7122 51.2807,-58.7733"/>
<polygon fill="black" stroke="black" stroke-width="2" points="49.8965,-55.5458 41.5262,-62.0411 52.1201,-62.1832 49.8965,-55.5458"/>
</g>
<!-- 7&#45;&gt;2 -->
<g id="edge14" class="edge"><title>7&#45;&gt;2</title>
<path fill="none" stroke="black" stroke-width="2" d="M159.907,-26.5165C162.02,-26.219 164.193,-25.913 166.38,-25.6051"/>
<polygon fill="black" stroke="black" stroke-width="2" points="167.108,-29.0373 176.522,-24.1773 166.132,-22.1057 167.108,-29.0373"/>
</g>
<!-- 7&#45;&gt;3 -->
<g id="edge18" class="edge"><title>7&#45;&gt;3</title>
<path fill="none" stroke="black" stroke-width="2" d="M150.289,-47.5398C162.145,-65.8604 180.639,-94.4382 194.146,-115.31"/>
<polygon fill="black" stroke="black" stroke-width="2" points="191.224,-117.237 199.595,-123.731 197.101,-113.434 191.224,-117.237"/>
</g>
<!-- 7&#45;&gt;5 -->
<g id="edge21" class="edge"><title>7&#45;&gt;5</title>
<path fill="none" stroke="black" stroke-width="2" d="M128.044,-48.1844C125.933,-51.9101 123.674,-55.8974 121.434,-59.8515"/>
<polygon fill="black" stroke="black" stroke-width="2" points="118.204,-58.4527 116.32,-68.8786 124.294,-61.9034 118.204,-58.4527"/>
</g>
<!-- 7&#45;&gt;6 -->
<g id="edge22" class="edge"><title>7&#45;&gt;6</title>
<path fill="none" stroke="black" stroke-width="2" d="M136.498,-50.8028C135.328,-61.8151 133.77,-75.4647 132.065,-87.6325 130.85,-96.3023 129.357,-105.673 127.911,-114.296"/>
<polygon fill="black" stroke="black" stroke-width="2" points="124.428,-113.897 126.191,-124.344 131.328,-115.078 124.428,-113.897"/>
</g>
</g>
</svg>

