<?xml version="1.0" encoding="UTF-8" standalone="no"?>
<!DOCTYPE svg PUBLIC "-//W3C//DTD SVG 1.1//EN"
 "http://www.w3.org/Graphics/SVG/1.1/DTD/svg11.dtd">
<!-- Generated by graphviz version 2.36.0 (20140111.2315)
 -->
<!-- Title: G Pages: 1 -->
<svg width="100%" height="100%"
 viewBox="0.00 0.00 211.91 219.18" xmlns="http://www.w3.org/2000/svg" xmlns:xlink="http://www.w3.org/1999/xlink">
<g id="graph0" class="graph" transform="scale(1 1) rotate(0) translate(4 215.182)">
<title>G</title>
<!-- 0 -->
<g id="node1" class="node"><title>0</title>
<ellipse fill="cadetblue" stroke="black" cx="67.2858" cy="-81.7921" rx="21.4286" ry="21.4286"/>
<text text-anchor="middle" x="67.2858" y="-76.7921" font-family="Times New Roman,serif" font-size="20.00">2</text>
</g>
<!-- 4 -->
<g id="node5" class="node"><title>4</title>
<ellipse fill="cadetblue" stroke="black" cx="182.699" cy="-82.4651" rx="21.4286" ry="21.4286"/>
<text text-anchor="middle" x="182.699" y="-77.4651" font-family="Times New Roman,serif" font-size="20.00">2</text>
</g>
<!-- 0&#45;&gt;4 -->
<g id="edge3" class="edge"><title>0&#45;&gt;4</title>
<path fill="none" stroke="black" stroke-width="2" d="M88.7237,-81.9171C106.296,-82.0196 131.413,-82.166 151.26,-82.2818"/>
<polygon fill="black" stroke="black" stroke-width="2" points="151.356,-85.7823 161.376,-82.3408 151.397,-78.7824 151.356,-85.7823"/>
</g>
<!-- 5 -->
<g id="node6" class="node"><title>5</title>
<ellipse fill="cadetblue" stroke="black" cx="21.2132" cy="-132.224" rx="21.4286" ry="21.4286"/>
<text text-anchor="middle" x="21.2132" y="-127.224" font-family="Times New Roman,serif" font-size="20.00">2</text>
</g>
<!-- 0&#45;&gt;5 -->
<g id="edge4" class="edge"><title>0&#45;&gt;5</title>
<path fill="none" stroke="black" stroke-width="2" d="M52.9607,-97.4725C49.6984,-101.043 46.1627,-104.914 42.6754,-108.731"/>
<polygon fill="black" stroke="black" stroke-width="2" points="39.8489,-106.636 35.6881,-116.379 45.017,-111.357 39.8489,-106.636"/>
</g>
<!-- 1 -->
<g id="node2" class="node"><title>1</title>
<ellipse fill="cadetblue" stroke="black" cx="130.228" cy="-125.811" rx="21.4286" ry="21.4286"/>
<text text-anchor="middle" x="130.228" y="-120.811" font-family="Times New Roman,serif" font-size="20.00">2</text>
</g>
<!-- 1&#45;&gt;4 -->
<g id="edge7" class="edge"><title>1&#45;&gt;4</title>
<path fill="none" stroke="black" stroke-width="2" d="M146.83,-112.096C150.467,-109.092 154.39,-105.851 158.261,-102.653"/>
<polygon fill="black" stroke="black" stroke-width="2" points="160.544,-105.307 166.025,-96.2396 156.086,-99.9101 160.544,-105.307"/>
</g>
<!-- 1&#45;&gt;5 -->
<g id="edge8" class="edge"><title>1&#45;&gt;5</title>
<path fill="none" stroke="black" stroke-width="2" d="M108.95,-127.063C92.893,-128.007 70.6143,-129.318 52.5252,-130.382"/>
<polygon fill="black" stroke="black" stroke-width="2" points="52.2147,-126.894 42.4375,-130.975 52.6258,-133.882 52.2147,-126.894"/>
</g>
<!-- 2 -->
<g id="node3" class="node"><title>2</title>
<ellipse fill="cadetblue" stroke="black" cx="98.8481" cy="-21.2132" rx="21.4286" ry="21.4286"/>
<text text-anchor="middle" x="98.8481" y="-16.2132" font-family="Times New Roman,serif" font-size="20.00">2</text>
</g>
<!-- 2&#45;&gt;0 -->
<g id="edge1" class="edge"><title>2&#45;&gt;0</title>
<path fill="none" stroke="black" stroke-width="2" d="M89.0346,-40.0487C86.7998,-44.3381 84.3776,-48.987 81.9886,-53.5724"/>
<polygon fill="black" stroke="black" stroke-width="2" points="78.7186,-52.2739 77.202,-62.7596 84.9266,-55.5083 78.7186,-52.2739"/>
</g>
<!-- 2&#45;&gt;1 -->
<g id="edge5" class="edge"><title>2&#45;&gt;1</title>
<path fill="none" stroke="black" stroke-width="2" d="M104.973,-41.629C109.595,-57.0357 116.008,-78.4117 121.215,-95.7677"/>
<polygon fill="black" stroke="black" stroke-width="2" points="117.893,-96.8742 124.119,-105.447 124.598,-94.8626 117.893,-96.8742"/>
</g>
<!-- 3 -->
<g id="node4" class="node"><title>3</title>
<ellipse fill="cadetblue" stroke="black" cx="107.516" cy="-189.969" rx="21.4286" ry="21.4286"/>
<text text-anchor="middle" x="107.516" y="-184.969" font-family="Times New Roman,serif" font-size="20.00">2</text>
</g>
<!-- 3&#45;&gt;0 -->
<g id="edge2" class="edge"><title>3&#45;&gt;0</title>
<path fill="none" stroke="black" stroke-width="2" d="M100.043,-169.875C93.9183,-153.405 85.163,-129.863 78.2447,-111.26"/>
<polygon fill="black" stroke="black" stroke-width="2" points="81.4848,-109.931 74.7185,-101.778 74.9238,-112.371 81.4848,-109.931"/>
</g>
<!-- 3&#45;&gt;1 -->
<g id="edge6" class="edge"><title>3&#45;&gt;1</title>
<path fill="none" stroke="black" stroke-width="2" d="M114.702,-169.669C116.277,-165.222 117.975,-160.425 119.65,-155.692"/>
<polygon fill="black" stroke="black" stroke-width="2" points="122.973,-156.794 123.011,-146.199 116.374,-154.458 122.973,-156.794"/>
</g>
<!-- 4&#45;&gt;2 -->
<g id="edge9" class="edge"><title>4&#45;&gt;2</title>
<path fill="none" stroke="black" stroke-width="2" d="M165.325,-69.7737C153.52,-61.1503 137.705,-49.5978 124.463,-39.9243"/>
<polygon fill="black" stroke="black" stroke-width="2" points="126.339,-36.9608 116.2,-33.8884 122.21,-42.6134 126.339,-36.9608"/>
</g>
<!-- 4&#45;&gt;3 -->
<g id="edge11" class="edge"><title>4&#45;&gt;3</title>
<path fill="none" stroke="black" stroke-width="2" d="M173.551,-101.892C167.267,-114.487 158.347,-131.001 148.733,-144.506 143.226,-152.241 136.558,-160.101 130.204,-167.061"/>
<polygon fill="black" stroke="black" stroke-width="2" points="127.272,-165.07 122.979,-174.756 132.376,-169.861 127.272,-165.07"/>
</g>
<!-- 5&#45;&gt;2 -->
<g id="edge10" class="edge"><title>5&#45;&gt;2</title>
<path fill="none" stroke="black" stroke-width="2" d="M26.4491,-111.453C30.8059,-96.9313 38.0526,-77.6106 48.8184,-63.0604 55.3853,-54.1852 64.2071,-46.0003 72.6136,-39.2673"/>
<polygon fill="black" stroke="black" stroke-width="2" points="74.9473,-41.8894 80.7828,-33.0464 70.7064,-36.3203 74.9473,-41.8894"/>
</g>
<!-- 5&#45;&gt;3 -->
<g id="edge12" class="edge"><title>5&#45;&gt;3</title>
<path fill="none" stroke="black" stroke-width="2" d="M39.0952,-144.188C51.2455,-152.318 67.5227,-163.209 81.1526,-172.329"/>
<polygon fill="black" stroke="black" stroke-width="2" points="79.3995,-175.367 89.6571,-178.019 83.2923,-169.549 79.3995,-175.367"/>
</g>
</g>
</svg>

