<?xml version="1.0" encoding="UTF-8" standalone="no"?>
<!DOCTYPE svg PUBLIC "-//W3C//DTD SVG 1.1//EN"
 "http://www.w3.org/Graphics/SVG/1.1/DTD/svg11.dtd">
<!-- Generated by graphviz version 2.36.0 (20140111.2315)
 -->
<!-- Title: G Pages: 1 -->
<svg width="100%" height="100%"
 viewBox="0.00 0.00 182.96 222.06" xmlns="http://www.w3.org/2000/svg" xmlns:xlink="http://www.w3.org/1999/xlink">
<g id="graph0" class="graph" transform="scale(1 1) rotate(0) translate(4 218.063)">
<title>G</title>
<!-- 0 -->
<g id="node1" class="node"><title>0</title>
<ellipse fill="cadetblue" stroke="black" cx="34.2445" cy="-71.6447" rx="21.4286" ry="21.4286"/>
<text text-anchor="middle" x="34.2445" y="-66.6447" font-family="Times New Roman,serif" font-size="20.00">2</text>
</g>
<!-- 2 -->
<g id="node3" class="node"><title>2</title>
<ellipse fill="cadetblue" stroke="black" cx="77.3155" cy="-21.2132" rx="21.4286" ry="21.4286"/>
<text text-anchor="middle" x="77.3155" y="-16.2132" font-family="Times New Roman,serif" font-size="20.00">2</text>
</g>
<!-- 0&#45;&gt;2 -->
<g id="edge1" class="edge"><title>0&#45;&gt;2</title>
<path fill="none" stroke="black" stroke-width="2" d="M48.1095,-55.4102C50.8761,-52.1709 53.837,-48.704 56.7732,-45.2661"/>
<polygon fill="black" stroke="black" stroke-width="2" points="59.6436,-47.2944 63.4765,-37.4172 54.3206,-42.7484 59.6436,-47.2944"/>
</g>
<!-- 3 -->
<g id="node4" class="node"><title>3</title>
<ellipse fill="cadetblue" stroke="black" cx="45.4593" cy="-192.85" rx="21.4286" ry="21.4286"/>
<text text-anchor="middle" x="45.4593" y="-187.85" font-family="Times New Roman,serif" font-size="20.00">2</text>
</g>
<!-- 0&#45;&gt;3 -->
<g id="edge2" class="edge"><title>0&#45;&gt;3</title>
<path fill="none" stroke="black" stroke-width="2" d="M40.2837,-92.2505C43.1883,-103.342 46.2999,-117.324 47.5175,-130.057 48.4962,-140.291 48.4752,-151.502 48.0579,-161.582"/>
<polygon fill="black" stroke="black" stroke-width="2" points="44.5621,-161.412 47.5049,-171.59 51.5514,-161.798 44.5621,-161.412"/>
</g>
<!-- 4 -->
<g id="node5" class="node"><title>4</title>
<ellipse fill="cadetblue" stroke="black" cx="153.746" cy="-68.0488" rx="21.4286" ry="21.4286"/>
<text text-anchor="middle" x="153.746" y="-63.0488" font-family="Times New Roman,serif" font-size="20.00">2</text>
</g>
<!-- 0&#45;&gt;4 -->
<g id="edge3" class="edge"><title>0&#45;&gt;4</title>
<path fill="none" stroke="black" stroke-width="2" d="M55.609,-71.0018C74.102,-70.4453 101.102,-69.6329 122.103,-69.001"/>
<polygon fill="black" stroke="black" stroke-width="2" points="122.274,-72.4975 132.164,-68.6982 122.063,-65.5007 122.274,-72.4975"/>
</g>
<!-- 1 -->
<g id="node2" class="node"><title>1</title>
<ellipse fill="brown" stroke="black" cx="132.486" cy="-177.297" rx="21.4286" ry="21.4286"/>
<text text-anchor="middle" x="132.486" y="-172.297" font-family="Times New Roman,serif" font-size="20.00">3</text>
</g>
<!-- 6 -->
<g id="node7" class="node"><title>6</title>
<ellipse fill="brown" stroke="black" cx="97.9779" cy="-114.084" rx="21.4286" ry="21.4286"/>
<text text-anchor="middle" x="97.9779" y="-109.084" font-family="Times New Roman,serif" font-size="20.00">3</text>
</g>
<!-- 1&#45;&gt;6 -->
<g id="edge9" class="edge"><title>1&#45;&gt;6</title>
<path fill="none" stroke="black" stroke-width="2" d="M122.319,-158.673C119.396,-153.32 116.146,-147.365 112.996,-141.595"/>
<polygon fill="black" stroke="black" stroke-width="2" points="116.055,-139.894 108.191,-132.793 109.911,-143.248 116.055,-139.894"/>
</g>
<!-- 2&#45;&gt;4 -->
<g id="edge10" class="edge"><title>2&#45;&gt;4</title>
<path fill="none" stroke="black" stroke-width="2" d="M95.4285,-32.3126C104.784,-38.0452 116.385,-45.1546 126.771,-51.519"/>
<polygon fill="black" stroke="black" stroke-width="2" points="125.143,-54.6261 135.498,-56.8668 128.801,-48.6576 125.143,-54.6261"/>
</g>
<!-- 2&#45;&gt;6 -->
<g id="edge12" class="edge"><title>2&#45;&gt;6</title>
<path fill="none" stroke="black" stroke-width="2" d="M82.0041,-42.287C84.6988,-54.3985 88.1322,-69.8306 91.1248,-83.2815"/>
<polygon fill="black" stroke="black" stroke-width="2" points="87.7195,-84.0922 93.3078,-93.0934 94.5525,-82.5719 87.7195,-84.0922"/>
</g>
<!-- 3&#45;&gt;1 -->
<g id="edge6" class="edge"><title>3&#45;&gt;1</title>
<path fill="none" stroke="black" stroke-width="2" d="M66.526,-189.085C76.9248,-187.227 89.6788,-184.948 101.191,-182.89"/>
<polygon fill="black" stroke="black" stroke-width="2" points="102.083,-186.286 111.311,-181.082 100.852,-179.395 102.083,-186.286"/>
</g>
<!-- 5 -->
<g id="node6" class="node"><title>5</title>
<ellipse fill="cadetblue" stroke="black" cx="21.2132" cy="-130.013" rx="21.4286" ry="21.4286"/>
<text text-anchor="middle" x="21.2132" y="-125.013" font-family="Times New Roman,serif" font-size="20.00">2</text>
</g>
<!-- 3&#45;&gt;5 -->
<g id="edge13" class="edge"><title>3&#45;&gt;5</title>
<path fill="none" stroke="black" stroke-width="2" d="M37.7877,-172.968C36.1514,-168.728 34.3896,-164.161 32.6468,-159.645"/>
<polygon fill="black" stroke="black" stroke-width="2" points="35.7834,-158.051 28.9181,-149.982 29.2527,-160.571 35.7834,-158.051"/>
</g>
<!-- 4&#45;&gt;1 -->
<g id="edge7" class="edge"><title>4&#45;&gt;1</title>
<path fill="none" stroke="black" stroke-width="2" d="M149.647,-89.1131C146.485,-105.36 142.065,-128.075 138.502,-146.381"/>
<polygon fill="black" stroke="black" stroke-width="2" points="135.047,-145.813 136.572,-156.298 141.918,-147.151 135.047,-145.813"/>
</g>
<!-- 4&#45;&gt;6 -->
<g id="edge15" class="edge"><title>4&#45;&gt;6</title>
<path fill="none" stroke="black" stroke-width="2" d="M137.316,-81.6118C132.593,-85.5105 127.339,-89.8472 122.249,-94.0491"/>
<polygon fill="black" stroke="black" stroke-width="2" points="119.968,-91.3934 114.484,-100.459 124.424,-96.7918 119.968,-91.3934"/>
</g>
<!-- 5&#45;&gt;0 -->
<g id="edge4" class="edge"><title>5&#45;&gt;0</title>
<path fill="none" stroke="black" stroke-width="2" d="M25.8442,-109.27C26.3316,-107.087 26.8344,-104.835 27.3404,-102.569"/>
<polygon fill="black" stroke="black" stroke-width="2" points="30.7774,-103.237 29.5405,-92.7145 23.9456,-101.712 30.7774,-103.237"/>
</g>
<!-- 5&#45;&gt;1 -->
<g id="edge8" class="edge"><title>5&#45;&gt;1</title>
<path fill="none" stroke="black" stroke-width="2" d="M40.8504,-138.358C58.1434,-145.706 83.568,-156.51 103.252,-164.875"/>
<polygon fill="black" stroke="black" stroke-width="2" points="102.098,-168.187 112.671,-168.877 104.836,-161.745 102.098,-168.187"/>
</g>
<!-- 5&#45;&gt;2 -->
<g id="edge11" class="edge"><title>5&#45;&gt;2</title>
<path fill="none" stroke="black" stroke-width="2" d="M35.4989,-114.136C41.3357,-107.148 47.8586,-98.6424 52.7879,-90.3011 59.7692,-78.4875 65.2205,-64.3708 69.1923,-51.9861"/>
<polygon fill="black" stroke="black" stroke-width="2" points="72.6436,-52.6638 72.1817,-42.079 65.942,-50.6416 72.6436,-52.6638"/>
</g>
<!-- 6&#45;&gt;0 -->
<g id="edge5" class="edge"><title>6&#45;&gt;0</title>
<path fill="none" stroke="black" stroke-width="2" d="M80.2246,-102.262C74.1472,-98.2153 67.2117,-93.597 60.6022,-89.1958"/>
<polygon fill="black" stroke="black" stroke-width="2" points="62.166,-86.0322 51.9026,-83.4029 58.2862,-91.8587 62.166,-86.0322"/>
</g>
<!-- 6&#45;&gt;3 -->
<g id="edge14" class="edge"><title>6&#45;&gt;3</title>
<path fill="none" stroke="black" stroke-width="2" d="M86.0606,-131.957C79.2115,-142.229 70.4846,-155.318 62.8781,-166.726"/>
<polygon fill="black" stroke="black" stroke-width="2" points="59.965,-164.786 57.3294,-175.047 65.7891,-168.669 59.965,-164.786"/>
</g>
<!-- 6&#45;&gt;5 -->
<g id="edge16" class="edge"><title>6&#45;&gt;5</title>
<path fill="none" stroke="black" stroke-width="2" d="M77.0016,-118.437C69.301,-120.035 60.4145,-121.879 52.0296,-123.619"/>
<polygon fill="black" stroke="black" stroke-width="2" points="51.2444,-120.207 42.1641,-125.666 52.6667,-127.061 51.2444,-120.207"/>
</g>
</g>
</svg>

