<?xml version="1.0" encoding="UTF-8" standalone="no"?>
<!DOCTYPE svg PUBLIC "-//W3C//DTD SVG 1.1//EN"
 "http://www.w3.org/Graphics/SVG/1.1/DTD/svg11.dtd">
<!-- Generated by graphviz version 2.36.0 (20140111.2315)
 -->
<!-- Title: G Pages: 1 -->
<svg width="100%" height="100%"
 viewBox="0.00 0.00 196.26 284.07" xmlns="http://www.w3.org/2000/svg" xmlns:xlink="http://www.w3.org/1999/xlink">
<g id="graph0" class="graph" transform="scale(1 1) rotate(0) translate(4 280.072)">
<title>G</title>
<!-- 0 -->
<g id="node1" class="node"><title>0</title>
<ellipse fill="cadetblue" stroke="black" cx="98.3037" cy="-144.119" rx="21.4286" ry="21.4286"/>
<text text-anchor="middle" x="98.3037" y="-139.119" font-family="Times New Roman,serif" font-size="20.00">2</text>
</g>
<!-- 4 -->
<g id="node5" class="node"><title>4</title>
<ellipse fill="brown" stroke="black" cx="155.007" cy="-44.3759" rx="21.4286" ry="21.4286"/>
<text text-anchor="middle" x="155.007" y="-39.3759" font-family="Times New Roman,serif" font-size="20.00">3</text>
</g>
<!-- 0&#45;&gt;4 -->
<g id="edge3" class="edge"><title>0&#45;&gt;4</title>
<path fill="none" stroke="black" stroke-width="2" d="M108.969,-125.358C117.523,-110.312 129.652,-88.9757 139.314,-71.9804"/>
<polygon fill="black" stroke="black" stroke-width="2" points="142.49,-73.476 144.389,-63.0528 136.404,-70.0165 142.49,-73.476"/>
</g>
<!-- 5 -->
<g id="node6" class="node"><title>5</title>
<ellipse fill="dodgerblue" stroke="black" cx="21.2132" cy="-67.8723" rx="21.4286" ry="21.4286"/>
<text text-anchor="middle" x="21.2132" y="-62.8723" font-family="Times New Roman,serif" font-size="20.00">4</text>
</g>
<!-- 0&#45;&gt;5 -->
<g id="edge4" class="edge"><title>0&#45;&gt;5</title>
<path fill="none" stroke="black" stroke-width="2" d="M83.0731,-129.055C71.881,-117.986 56.4881,-102.761 43.8574,-90.2687"/>
<polygon fill="black" stroke="black" stroke-width="2" points="45.9833,-87.4486 36.4122,-82.905 41.0608,-92.4255 45.9833,-87.4486"/>
</g>
<!-- 6 -->
<g id="node7" class="node"><title>6</title>
<ellipse fill="cadetblue" stroke="black" cx="167.048" cy="-131.948" rx="21.4286" ry="21.4286"/>
<text text-anchor="middle" x="167.048" y="-126.948" font-family="Times New Roman,serif" font-size="20.00">2</text>
</g>
<!-- 0&#45;&gt;6 -->
<g id="edge5" class="edge"><title>0&#45;&gt;6</title>
<path fill="none" stroke="black" stroke-width="2" d="M119.303,-140.401C124.404,-139.498 129.97,-138.513 135.442,-137.544"/>
<polygon fill="black" stroke="black" stroke-width="2" points="136.466,-140.917 145.703,-135.727 135.246,-134.024 136.466,-140.917"/>
</g>
<!-- 1 -->
<g id="node2" class="node"><title>1</title>
<ellipse fill="cadetblue" stroke="black" cx="47.8723" cy="-155.874" rx="21.4286" ry="21.4286"/>
<text text-anchor="middle" x="47.8723" y="-150.874" font-family="Times New Roman,serif" font-size="20.00">2</text>
</g>
<!-- 3 -->
<g id="node4" class="node"><title>3</title>
<ellipse fill="cadetblue" stroke="black" cx="130.228" cy="-254.859" rx="21.4286" ry="21.4286"/>
<text text-anchor="middle" x="130.228" y="-249.859" font-family="Times New Roman,serif" font-size="20.00">2</text>
</g>
<!-- 1&#45;&gt;3 -->
<g id="edge7" class="edge"><title>1&#45;&gt;3</title>
<path fill="none" stroke="black" stroke-width="2" d="M61.4717,-172.219C74.7043,-188.124 94.969,-212.48 110.075,-230.636"/>
<polygon fill="black" stroke="black" stroke-width="2" points="107.522,-233.041 116.609,-238.489 112.903,-228.564 107.522,-233.041"/>
</g>
<!-- 1&#45;&gt;5 -->
<g id="edge9" class="edge"><title>1&#45;&gt;5</title>
<path fill="none" stroke="black" stroke-width="2" d="M41.6892,-135.463C38.3485,-124.436 34.1575,-110.601 30.4388,-98.3259"/>
<polygon fill="black" stroke="black" stroke-width="2" points="33.7042,-97.0326 27.4552,-88.4769 27.0048,-99.0622 33.7042,-97.0326"/>
</g>
<!-- 1&#45;&gt;6 -->
<g id="edge10" class="edge"><title>1&#45;&gt;6</title>
<path fill="none" stroke="black" stroke-width="2" d="M67.6012,-164.856C76.7481,-168.162 87.8659,-170.985 98.2238,-170.424 114.55,-169.538 130.623,-161.104 143.125,-152.357"/>
<polygon fill="black" stroke="black" stroke-width="2" points="145.258,-155.133 151.17,-146.341 141.065,-149.527 145.258,-155.133"/>
</g>
<!-- 2 -->
<g id="node3" class="node"><title>2</title>
<ellipse fill="cadetblue" stroke="black" cx="82.6057" cy="-21.2132" rx="21.4286" ry="21.4286"/>
<text text-anchor="middle" x="82.6057" y="-16.2132" font-family="Times New Roman,serif" font-size="20.00">2</text>
</g>
<!-- 2&#45;&gt;0 -->
<g id="edge1" class="edge"><title>2&#45;&gt;0</title>
<path fill="none" stroke="black" stroke-width="2" d="M85.3043,-42.3415C87.7753,-61.6878 91.4655,-90.5804 94.2836,-112.644"/>
<polygon fill="black" stroke="black" stroke-width="2" points="90.849,-113.38 95.5878,-122.856 97.7926,-112.493 90.849,-113.38"/>
</g>
<!-- 2&#45;&gt;1 -->
<g id="edge6" class="edge"><title>2&#45;&gt;1</title>
<path fill="none" stroke="black" stroke-width="2" d="M77.2547,-41.9588C71.5013,-64.2645 62.297,-99.9495 55.7236,-125.434"/>
<polygon fill="black" stroke="black" stroke-width="2" points="52.2809,-124.768 53.1724,-135.325 59.0591,-126.517 52.2809,-124.768"/>
</g>
<!-- 2&#45;&gt;5 -->
<g id="edge12" class="edge"><title>2&#45;&gt;5</title>
<path fill="none" stroke="black" stroke-width="2" d="M65.5045,-34.2104C59.6503,-38.6596 52.9695,-43.7371 46.6028,-48.5759"/>
<polygon fill="black" stroke="black" stroke-width="2" points="44.0665,-46.1073 38.2227,-54.9448 48.3021,-51.6805 44.0665,-46.1073"/>
</g>
<!-- 3&#45;&gt;0 -->
<g id="edge2" class="edge"><title>3&#45;&gt;0</title>
<path fill="none" stroke="black" stroke-width="2" d="M124.298,-234.289C119.438,-217.429 112.49,-193.329 107,-174.285"/>
<polygon fill="black" stroke="black" stroke-width="2" points="110.335,-173.218 104.202,-164.579 103.609,-175.157 110.335,-173.218"/>
</g>
<!-- 4&#45;&gt;1 -->
<g id="edge8" class="edge"><title>4&#45;&gt;1</title>
<path fill="none" stroke="black" stroke-width="2" d="M140.11,-59.8792C121.8,-78.9345 90.5844,-111.422 69.6001,-133.261"/>
<polygon fill="black" stroke="black" stroke-width="2" points="67.0472,-130.866 62.6423,-140.502 72.0947,-135.716 67.0472,-130.866"/>
</g>
<!-- 4&#45;&gt;2 -->
<g id="edge11" class="edge"><title>4&#45;&gt;2</title>
<path fill="none" stroke="black" stroke-width="2" d="M134.453,-37.8004C127.67,-35.6303 119.979,-33.1699 112.637,-30.8211"/>
<polygon fill="black" stroke="black" stroke-width="2" points="113.551,-27.4386 102.96,-27.725 111.418,-34.1057 113.551,-27.4386"/>
</g>
<!-- 5&#45;&gt;4 -->
<g id="edge15" class="edge"><title>5&#45;&gt;4</title>
<path fill="none" stroke="black" stroke-width="2" d="M42.1184,-64.201C63.9832,-60.3612 98.5525,-54.2902 123.68,-49.8774"/>
<polygon fill="black" stroke="black" stroke-width="2" points="124.563,-53.276 133.807,-48.099 123.352,-46.3815 124.563,-53.276"/>
</g>
<!-- 6&#45;&gt;2 -->
<g id="edge13" class="edge"><title>6&#45;&gt;2</title>
<path fill="none" stroke="black" stroke-width="2" d="M153.853,-114.645C139.911,-96.3612 117.782,-67.3428 101.885,-46.4959"/>
<polygon fill="black" stroke="black" stroke-width="2" points="104.554,-44.2234 95.7071,-38.3939 98.9877,-48.4681 104.554,-44.2234"/>
</g>
<!-- 6&#45;&gt;3 -->
<g id="edge14" class="edge"><title>6&#45;&gt;3</title>
<path fill="none" stroke="black" stroke-width="2" d="M160.885,-152.52C154.991,-172.196 146.032,-202.103 139.318,-224.514"/>
<polygon fill="black" stroke="black" stroke-width="2" points="135.928,-223.636 136.411,-234.219 142.634,-225.644 135.928,-223.636"/>
</g>
<!-- 6&#45;&gt;4 -->
<g id="edge16" class="edge"><title>6&#45;&gt;4</title>
<path fill="none" stroke="black" stroke-width="2" d="M164.133,-110.749C162.694,-100.285 160.929,-87.451 159.336,-75.8665"/>
<polygon fill="black" stroke="black" stroke-width="2" points="162.766,-75.1129 157.936,-65.6829 155.831,-76.0664 162.766,-75.1129"/>
</g>
<!-- 6&#45;&gt;5 -->
<g id="edge17" class="edge"><title>6&#45;&gt;5</title>
<path fill="none" stroke="black" stroke-width="2" d="M147.38,-123.306C122.373,-112.319 78.9945,-93.2597 50.1954,-80.6062"/>
<polygon fill="black" stroke="black" stroke-width="2" points="51.5984,-77.3998 41.0352,-76.5815 48.7826,-83.8085 51.5984,-77.3998"/>
</g>
</g>
</svg>

