<?xml version="1.0" encoding="UTF-8" standalone="no"?>
<!DOCTYPE svg PUBLIC "-//W3C//DTD SVG 1.1//EN"
 "http://www.w3.org/Graphics/SVG/1.1/DTD/svg11.dtd">
<!-- Generated by graphviz version 2.36.0 (20140111.2315)
 -->
<!-- Title: G Pages: 1 -->
<svg width="100%" height="100%"
 viewBox="0.00 0.00 277.44 265.66" xmlns="http://www.w3.org/2000/svg" xmlns:xlink="http://www.w3.org/1999/xlink">
<g id="graph0" class="graph" transform="scale(1 1) rotate(0) translate(4 261.656)">
<title>G</title>
<!-- 0 -->
<g id="node1" class="node"><title>0</title>
<ellipse fill="cadetblue" stroke="black" cx="61.4956" cy="-66.6248" rx="21.4286" ry="21.4286"/>
<text text-anchor="middle" x="61.4956" y="-61.6248" font-family="Times New Roman,serif" font-size="20.00">2</text>
</g>
<!-- 4 -->
<g id="node5" class="node"><title>4</title>
<ellipse fill="cadetblue" stroke="black" cx="248.224" cy="-119.283" rx="21.4286" ry="21.4286"/>
<text text-anchor="middle" x="248.224" y="-114.283" font-family="Times New Roman,serif" font-size="20.00">2</text>
</g>
<!-- 0&#45;&gt;4 -->
<g id="edge3" class="edge"><title>0&#45;&gt;4</title>
<path fill="none" stroke="black" stroke-width="2" d="M82.1922,-72.4613C115.087,-81.7379 179.479,-99.8967 217.685,-110.671"/>
<polygon fill="black" stroke="black" stroke-width="2" points="217.144,-114.155 227.719,-113.501 219.044,-107.418 217.144,-114.155"/>
</g>
<!-- 5 -->
<g id="node6" class="node"><title>5</title>
<ellipse fill="cadetblue" stroke="black" cx="21.2132" cy="-179.557" rx="21.4286" ry="21.4286"/>
<text text-anchor="middle" x="21.2132" y="-174.557" font-family="Times New Roman,serif" font-size="20.00">2</text>
</g>
<!-- 0&#45;&gt;5 -->
<g id="edge4" class="edge"><title>0&#45;&gt;5</title>
<path fill="none" stroke="black" stroke-width="2" d="M54.2939,-86.8149C48.0215,-104.4 38.8455,-130.125 31.7479,-150.023"/>
<polygon fill="black" stroke="black" stroke-width="2" points="28.4157,-148.947 28.3525,-159.542 35.0088,-151.299 28.4157,-148.947"/>
</g>
<!-- 6 -->
<g id="node7" class="node"><title>6</title>
<ellipse fill="cadetblue" stroke="black" cx="197.792" cy="-71.0054" rx="21.4286" ry="21.4286"/>
<text text-anchor="middle" x="197.792" y="-66.0054" font-family="Times New Roman,serif" font-size="20.00">2</text>
</g>
<!-- 0&#45;&gt;6 -->
<g id="edge5" class="edge"><title>0&#45;&gt;6</title>
<path fill="none" stroke="black" stroke-width="2" d="M82.7919,-67.3093C105.066,-68.0252 140.282,-69.157 165.88,-69.9797"/>
<polygon fill="black" stroke="black" stroke-width="2" points="166.088,-73.4881 176.196,-70.3113 166.313,-66.4918 166.088,-73.4881"/>
</g>
<!-- 1 -->
<g id="node2" class="node"><title>1</title>
<ellipse fill="cadetblue" stroke="black" cx="186.601" cy="-236.443" rx="21.4286" ry="21.4286"/>
<text text-anchor="middle" x="186.601" y="-231.443" font-family="Times New Roman,serif" font-size="20.00">2</text>
</g>
<!-- 1&#45;&gt;6 -->
<g id="edge8" class="edge"><title>1&#45;&gt;6</title>
<path fill="none" stroke="black" stroke-width="2" d="M188.041,-215.154C189.98,-186.49 193.444,-135.28 195.679,-102.248"/>
<polygon fill="black" stroke="black" stroke-width="2" points="199.174,-102.427 196.357,-92.2131 192.19,-101.954 199.174,-102.427"/>
</g>
<!-- 2 -->
<g id="node3" class="node"><title>2</title>
<ellipse fill="brown" stroke="black" cx="121.283" cy="-21.2132" rx="21.4286" ry="21.4286"/>
<text text-anchor="middle" x="121.283" y="-16.2132" font-family="Times New Roman,serif" font-size="20.00">3</text>
</g>
<!-- 2&#45;&gt;0 -->
<g id="edge1" class="edge"><title>2&#45;&gt;0</title>
<path fill="none" stroke="black" stroke-width="2" d="M104.31,-34.1049C98.9289,-38.1922 92.8559,-42.805 87.0111,-47.2444"/>
<polygon fill="black" stroke="black" stroke-width="2" points="84.5647,-44.7074 78.7183,-53.5432 88.7987,-50.2818 84.5647,-44.7074"/>
</g>
<!-- 2&#45;&gt;5 -->
<g id="edge11" class="edge"><title>2&#45;&gt;5</title>
<path fill="none" stroke="black" stroke-width="2" d="M109.804,-39.3773C92.1594,-67.2964 58.2845,-120.898 37.9196,-153.122"/>
<polygon fill="black" stroke="black" stroke-width="2" points="34.9423,-151.282 32.5586,-161.605 40.8596,-155.022 34.9423,-151.282"/>
</g>
<!-- 3 -->
<g id="node4" class="node"><title>3</title>
<ellipse fill="cadetblue" stroke="black" cx="104.546" cy="-156.635" rx="21.4286" ry="21.4286"/>
<text text-anchor="middle" x="104.546" y="-151.635" font-family="Times New Roman,serif" font-size="20.00">2</text>
</g>
<!-- 3&#45;&gt;0 -->
<g id="edge2" class="edge"><title>3&#45;&gt;0</title>
<path fill="none" stroke="black" stroke-width="2" d="M95.2045,-137.104C89.2973,-124.753 81.5647,-108.586 74.9958,-94.8514"/>
<polygon fill="black" stroke="black" stroke-width="2" points="78.1429,-93.3196 70.6707,-85.8084 71.828,-96.3399 78.1429,-93.3196"/>
</g>
<!-- 3&#45;&gt;2 -->
<g id="edge9" class="edge"><title>3&#45;&gt;2</title>
<path fill="none" stroke="black" stroke-width="2" d="M107.161,-135.476C109.896,-113.345 114.221,-78.3546 117.364,-52.9209"/>
<polygon fill="black" stroke="black" stroke-width="2" points="120.878,-53.0251 118.631,-42.6713 113.931,-52.1664 120.878,-53.0251"/>
</g>
<!-- 4&#45;&gt;1 -->
<g id="edge6" class="edge"><title>4&#45;&gt;1</title>
<path fill="none" stroke="black" stroke-width="2" d="M238.323,-138.107C228.306,-157.152 212.705,-186.812 201.256,-208.58"/>
<polygon fill="black" stroke="black" stroke-width="2" points="198.034,-207.186 196.477,-217.666 204.23,-210.445 198.034,-207.186"/>
</g>
<!-- 4&#45;&gt;2 -->
<g id="edge10" class="edge"><title>4&#45;&gt;2</title>
<path fill="none" stroke="black" stroke-width="2" d="M227.845,-113.271C213.325,-108.352 193.833,-100.409 179.009,-89.4206 163.425,-77.8688 149.292,-61.3282 138.911,-47.4287"/>
<polygon fill="black" stroke="black" stroke-width="2" points="141.647,-45.2389 132.953,-39.1838 135.973,-49.339 141.647,-45.2389"/>
</g>
<!-- 5&#45;&gt;1 -->
<g id="edge7" class="edge"><title>5&#45;&gt;1</title>
<path fill="none" stroke="black" stroke-width="2" d="M41.4929,-186.533C70.3376,-196.454 123.404,-214.707 156.748,-226.175"/>
<polygon fill="black" stroke="black" stroke-width="2" points="155.819,-229.557 166.414,-229.5 158.096,-222.938 155.819,-229.557"/>
</g>
<!-- 5&#45;&gt;3 -->
<g id="edge13" class="edge"><title>5&#45;&gt;3</title>
<path fill="none" stroke="black" stroke-width="2" d="M41.8123,-173.891C51.5279,-171.219 63.3173,-167.976 74.0416,-165.026"/>
<polygon fill="black" stroke="black" stroke-width="2" points="75.1813,-168.343 83.8949,-162.316 73.3247,-161.593 75.1813,-168.343"/>
</g>
<!-- 6&#45;&gt;2 -->
<g id="edge12" class="edge"><title>6&#45;&gt;2</title>
<path fill="none" stroke="black" stroke-width="2" d="M179.661,-59.2053C170.132,-53.0043 158.276,-45.288 147.742,-38.4325"/>
<polygon fill="black" stroke="black" stroke-width="2" points="149.575,-35.4497 139.284,-32.9286 145.757,-41.3167 149.575,-35.4497"/>
</g>
<!-- 6&#45;&gt;3 -->
<g id="edge14" class="edge"><title>6&#45;&gt;3</title>
<path fill="none" stroke="black" stroke-width="2" d="M181.974,-85.5314C167.239,-99.0633 145.072,-119.419 128.227,-134.888"/>
<polygon fill="black" stroke="black" stroke-width="2" points="125.439,-132.696 120.441,-142.038 130.174,-137.852 125.439,-132.696"/>
</g>
<!-- 6&#45;&gt;4 -->
<g id="edge15" class="edge"><title>6&#45;&gt;4</title>
<path fill="none" stroke="black" stroke-width="2" d="M213.197,-85.7526C216.939,-89.3349 221.023,-93.2442 225.038,-97.0873"/>
<polygon fill="black" stroke="black" stroke-width="2" points="222.921,-99.906 232.565,-104.293 227.761,-94.8495 222.921,-99.906"/>
</g>
</g>
</svg>

