<?xml version="1.0" encoding="UTF-8" standalone="no"?>
<!DOCTYPE svg PUBLIC "-//W3C//DTD SVG 1.1//EN"
 "http://www.w3.org/Graphics/SVG/1.1/DTD/svg11.dtd">
<!-- Generated by graphviz version 2.36.0 (20140111.2315)
 -->
<!-- Title: G Pages: 1 -->
<svg width="100%" height="100%"
 viewBox="0.00 0.00 154.09 202.89" xmlns="http://www.w3.org/2000/svg" xmlns:xlink="http://www.w3.org/1999/xlink">
<g id="graph0" class="graph" transform="scale(1 1) rotate(0) translate(4 198.895)">
<title>G</title>
<!-- 0 -->
<g id="node1" class="node"><title>0</title>
<ellipse fill="cadetblue" stroke="black" cx="55.007" cy="-35.6916" rx="21.4286" ry="21.4286"/>
<text text-anchor="middle" x="55.007" y="-30.6916" font-family="Times New Roman,serif" font-size="20.00">2</text>
</g>
<!-- 3 -->
<g id="node4" class="node"><title>3</title>
<ellipse fill="brown" stroke="black" cx="87.5066" cy="-159.587" rx="21.4286" ry="21.4286"/>
<text text-anchor="middle" x="87.5066" y="-154.587" font-family="Times New Roman,serif" font-size="20.00">3</text>
</g>
<!-- 0&#45;&gt;3 -->
<g id="edge2" class="edge"><title>0&#45;&gt;3</title>
<path fill="none" stroke="black" stroke-width="2" d="M50.076,-56.538C47.984,-68.0859 46.3894,-82.6915 48.1458,-95.6754 50.1365,-110.391 58.1539,-124.669 66.4383,-135.984"/>
<polygon fill="black" stroke="black" stroke-width="2" points="63.8083,-138.302 72.73,-144.017 69.3192,-133.986 63.8083,-138.302"/>
</g>
<!-- 5 -->
<g id="node6" class="node"><title>5</title>
<ellipse fill="dodgerblue" stroke="black" cx="21.2132" cy="-91.5814" rx="21.4286" ry="21.4286"/>
<text text-anchor="middle" x="21.2132" y="-86.5814" font-family="Times New Roman,serif" font-size="20.00">4</text>
</g>
<!-- 0&#45;&gt;5 -->
<g id="edge4" class="edge"><title>0&#45;&gt;5</title>
<path fill="none" stroke="black" stroke-width="2" d="M43.9416,-53.992C41.9205,-57.3347 39.7724,-60.8873 37.6345,-64.4231"/>
<polygon fill="black" stroke="black" stroke-width="2" points="34.5983,-62.6802 32.4191,-73.0485 40.5884,-66.3022 34.5983,-62.6802"/>
</g>
<!-- 6 -->
<g id="node7" class="node"><title>6</title>
<ellipse fill="brown" stroke="black" cx="74.4489" cy="-95.9354" rx="21.4286" ry="21.4286"/>
<text text-anchor="middle" x="74.4489" y="-90.9354" font-family="Times New Roman,serif" font-size="20.00">3</text>
</g>
<!-- 0&#45;&gt;6 -->
<g id="edge5" class="edge"><title>0&#45;&gt;6</title>
<path fill="none" stroke="black" stroke-width="2" d="M61.5891,-56.0874C62.6026,-59.2278 63.6671,-62.5263 64.7315,-65.8245"/>
<polygon fill="black" stroke="black" stroke-width="2" points="61.4714,-67.1189 67.8735,-75.5606 68.1331,-64.969 61.4714,-67.1189"/>
</g>
<!-- 1 -->
<g id="node2" class="node"><title>1</title>
<ellipse fill="cadetblue" stroke="black" cx="27.2758" cy="-173.682" rx="21.4286" ry="21.4286"/>
<text text-anchor="middle" x="27.2758" y="-168.682" font-family="Times New Roman,serif" font-size="20.00">2</text>
</g>
<!-- 1&#45;&gt;3 -->
<g id="edge6" class="edge"><title>1&#45;&gt;3</title>
<path fill="none" stroke="black" stroke-width="2" d="M48.0038,-168.831C50.8112,-168.174 53.7394,-167.489 56.6768,-166.802"/>
<polygon fill="black" stroke="black" stroke-width="2" points="57.5965,-170.181 66.5359,-164.494 56.0014,-163.365 57.5965,-170.181"/>
</g>
<!-- 4 -->
<g id="node5" class="node"><title>4</title>
<ellipse fill="cadetblue" stroke="black" cx="124.88" cy="-105.707" rx="21.4286" ry="21.4286"/>
<text text-anchor="middle" x="124.88" y="-100.707" font-family="Times New Roman,serif" font-size="20.00">2</text>
</g>
<!-- 1&#45;&gt;4 -->
<g id="edge7" class="edge"><title>1&#45;&gt;4</title>
<path fill="none" stroke="black" stroke-width="2" d="M44.0141,-159.884C51.5117,-153.874 60.5466,-146.86 68.9745,-140.919 78.1155,-134.476 88.403,-127.832 97.6378,-122.077"/>
<polygon fill="black" stroke="black" stroke-width="2" points="99.76,-124.88 106.44,-116.657 96.0898,-118.919 99.76,-124.88"/>
</g>
<!-- 2 -->
<g id="node3" class="node"><title>2</title>
<ellipse fill="cadetblue" stroke="black" cx="117.725" cy="-21.2132" rx="21.4286" ry="21.4286"/>
<text text-anchor="middle" x="117.725" y="-16.2132" font-family="Times New Roman,serif" font-size="20.00">2</text>
</g>
<!-- 2&#45;&gt;0 -->
<g id="edge1" class="edge"><title>2&#45;&gt;0</title>
<path fill="none" stroke="black" stroke-width="2" d="M96.8406,-26.0343C93.2816,-26.8559 89.5193,-27.7244 85.7684,-28.5903"/>
<polygon fill="black" stroke="black" stroke-width="2" points="84.9701,-25.1825 76.0137,-30.8422 86.5447,-32.0031 84.9701,-25.1825"/>
</g>
<!-- 2&#45;&gt;5 -->
<g id="edge11" class="edge"><title>2&#45;&gt;5</title>
<path fill="none" stroke="black" stroke-width="2" d="M100.597,-34.2176C92.4418,-40.3694 82.53,-47.7878 73.5504,-54.3481 64.9965,-60.5973 55.5838,-67.3359 47.1277,-73.34"/>
<polygon fill="black" stroke="black" stroke-width="2" points="44.8771,-70.6449 38.7379,-79.2798 48.9219,-76.3581 44.8771,-70.6449"/>
</g>
<!-- 3&#45;&gt;4 -->
<g id="edge13" class="edge"><title>3&#45;&gt;4</title>
<path fill="none" stroke="black" stroke-width="2" d="M99.7442,-141.945C102.026,-138.655 104.454,-135.154 106.867,-131.676"/>
<polygon fill="black" stroke="black" stroke-width="2" points="109.919,-133.417 112.743,-123.205 104.167,-129.427 109.919,-133.417"/>
</g>
<!-- 3&#45;&gt;6 -->
<g id="edge15" class="edge"><title>3&#45;&gt;6</title>
<path fill="none" stroke="black" stroke-width="2" d="M83.231,-138.745C82.4501,-134.938 81.6201,-130.892 80.794,-126.865"/>
<polygon fill="black" stroke="black" stroke-width="2" points="84.2171,-126.135 78.7788,-117.042 77.3599,-127.541 84.2171,-126.135"/>
</g>
<!-- 4&#45;&gt;0 -->
<g id="edge3" class="edge"><title>4&#45;&gt;0</title>
<path fill="none" stroke="black" stroke-width="2" d="M109.719,-90.5147C100.288,-81.0645 87.9902,-68.7418 77.4432,-58.1734"/>
<polygon fill="black" stroke="black" stroke-width="2" points="79.6802,-55.4601 70.1389,-50.8542 74.7254,-60.4049 79.6802,-55.4601"/>
</g>
<!-- 4&#45;&gt;2 -->
<g id="edge10" class="edge"><title>4&#45;&gt;2</title>
<path fill="none" stroke="black" stroke-width="2" d="M123.075,-84.3856C122.261,-74.7792 121.284,-63.2415 120.389,-52.6699"/>
<polygon fill="black" stroke="black" stroke-width="2" points="123.861,-52.1967 119.53,-42.5277 116.886,-52.7874 123.861,-52.1967"/>
</g>
<!-- 4&#45;&gt;5 -->
<g id="edge16" class="edge"><title>4&#45;&gt;5</title>
<path fill="none" stroke="black" stroke-width="2" d="M105.606,-115.552C96.3303,-119.357 84.9165,-122.707 74.1889,-122.239 63.946,-121.791 53.899,-117.326 45.3552,-111.935"/>
<polygon fill="black" stroke="black" stroke-width="2" points="47.2478,-108.988 37.0506,-106.112 43.229,-114.719 47.2478,-108.988"/>
</g>
<!-- 4&#45;&gt;6 -->
<g id="edge17" class="edge"><title>4&#45;&gt;6</title>
<path fill="none" stroke="black" stroke-width="2" d="M103.785,-101.62C103.697,-101.603 103.61,-101.586 103.522,-101.569"/>
<polygon fill="black" stroke="black" stroke-width="2" points="105.781,-98.4413 95.298,-99.9751 104.45,-105.314 105.781,-98.4413"/>
</g>
<!-- 5&#45;&gt;1 -->
<g id="edge8" class="edge"><title>5&#45;&gt;1</title>
<path fill="none" stroke="black" stroke-width="2" d="M22.8061,-113.152C23.4605,-122.014 24.2313,-132.453 24.9469,-142.144"/>
<polygon fill="black" stroke="black" stroke-width="2" points="21.4665,-142.54 25.6935,-152.255 28.4475,-142.024 21.4665,-142.54"/>
</g>
<!-- 5&#45;&gt;3 -->
<g id="edge14" class="edge"><title>5&#45;&gt;3</title>
<path fill="none" stroke="black" stroke-width="2" d="M36.2562,-107.013C44.9018,-115.882 55.9176,-127.182 65.5191,-137.032"/>
<polygon fill="black" stroke="black" stroke-width="2" points="63.0365,-139.499 72.5231,-144.216 68.049,-134.613 63.0365,-139.499"/>
</g>
<!-- 6&#45;&gt;1 -->
<g id="edge9" class="edge"><title>6&#45;&gt;1</title>
<path fill="none" stroke="black" stroke-width="2" d="M63.2695,-114.36C57.3947,-124.043 50.0843,-136.091 43.5894,-146.795"/>
<polygon fill="black" stroke="black" stroke-width="2" points="40.57,-145.024 38.3749,-155.389 46.5546,-148.655 40.57,-145.024"/>
</g>
<!-- 6&#45;&gt;2 -->
<g id="edge12" class="edge"><title>6&#45;&gt;2</title>
<path fill="none" stroke="black" stroke-width="2" d="M85.1463,-77.4648C90.1917,-68.753 96.3141,-58.1818 101.883,-48.5655"/>
<polygon fill="black" stroke="black" stroke-width="2" points="105.017,-50.138 107,-39.7304 98.9599,-46.6297 105.017,-50.138"/>
</g>
<!-- 6&#45;&gt;5 -->
<g id="edge18" class="edge"><title>6&#45;&gt;5</title>
<path fill="none" stroke="black" stroke-width="2" d="M53.1027,-94.1896C52.9942,-94.1807 52.8856,-94.1718 52.7769,-94.1629"/>
<polygon fill="black" stroke="black" stroke-width="2" points="52.8163,-90.6545 42.5642,-93.3276 52.2456,-97.6312 52.8163,-90.6545"/>
</g>
</g>
</svg>

