<?xml version="1.0" encoding="UTF-8" standalone="no"?>
<!DOCTYPE svg PUBLIC "-//W3C//DTD SVG 1.1//EN"
 "http://www.w3.org/Graphics/SVG/1.1/DTD/svg11.dtd">
<!-- Generated by graphviz version 2.36.0 (20140111.2315)
 -->
<!-- Title: G Pages: 1 -->
<svg width="100%" height="100%"
 viewBox="0.00 0.00 201.12 262.71" xmlns="http://www.w3.org/2000/svg" xmlns:xlink="http://www.w3.org/1999/xlink">
<g id="graph0" class="graph" transform="scale(1 1) rotate(0) translate(4 258.711)">
<title>G</title>
<!-- 0 -->
<g id="node1" class="node"><title>0</title>
<ellipse fill="brown" stroke="black" cx="23.837" cy="-87.6842" rx="21.4286" ry="21.4286"/>
<text text-anchor="middle" x="23.837" y="-82.6842" font-family="Times New Roman,serif" font-size="20.00">3</text>
</g>
<!-- 3 -->
<g id="node4" class="node"><title>3</title>
<ellipse fill="cadetblue" stroke="black" cx="21.2132" cy="-233.498" rx="21.4286" ry="21.4286"/>
<text text-anchor="middle" x="21.2132" y="-228.498" font-family="Times New Roman,serif" font-size="20.00">2</text>
</g>
<!-- 0&#45;&gt;3 -->
<g id="edge2" class="edge"><title>0&#45;&gt;3</title>
<path fill="none" stroke="black" stroke-width="2" d="M18.5073,-108.468C15.5194,-121.71 12.3015,-139.285 11.8498,-155.086 11.3991,-170.856 13.2453,-188.291 15.4147,-202.709"/>
<polygon fill="black" stroke="black" stroke-width="2" points="11.9644,-203.298 17.0233,-212.607 18.8738,-202.175 11.9644,-203.298"/>
</g>
<!-- 4 -->
<g id="node5" class="node"><title>4</title>
<ellipse fill="cadetblue" stroke="black" cx="171.907" cy="-70.9504" rx="21.4286" ry="21.4286"/>
<text text-anchor="middle" x="171.907" y="-65.9504" font-family="Times New Roman,serif" font-size="20.00">2</text>
</g>
<!-- 0&#45;&gt;4 -->
<g id="edge3" class="edge"><title>0&#45;&gt;4</title>
<path fill="none" stroke="black" stroke-width="2" d="M45.0518,-85.2867C70.1212,-82.4535 112.05,-77.7149 140.794,-74.4665"/>
<polygon fill="black" stroke="black" stroke-width="2" points="141.188,-77.9444 150.731,-73.3435 140.402,-70.9887 141.188,-77.9444"/>
</g>
<!-- 1 -->
<g id="node2" class="node"><title>1</title>
<ellipse fill="cadetblue" stroke="black" cx="142.143" cy="-206.792" rx="21.4286" ry="21.4286"/>
<text text-anchor="middle" x="142.143" y="-201.792" font-family="Times New Roman,serif" font-size="20.00">2</text>
</g>
<!-- 5 -->
<g id="node6" class="node"><title>5</title>
<ellipse fill="cadetblue" stroke="black" cx="38.1542" cy="-155.13" rx="21.4286" ry="21.4286"/>
<text text-anchor="middle" x="38.1542" y="-150.13" font-family="Times New Roman,serif" font-size="20.00">2</text>
</g>
<!-- 1&#45;&gt;5 -->
<g id="edge8" class="edge"><title>1&#45;&gt;5</title>
<path fill="none" stroke="black" stroke-width="2" d="M123.07,-197.317C107.337,-189.501 84.7741,-178.291 66.8597,-169.391"/>
<polygon fill="black" stroke="black" stroke-width="2" points="67.9715,-166.035 57.4585,-164.72 64.8569,-172.304 67.9715,-166.035"/>
</g>
<!-- 6 -->
<g id="node7" class="node"><title>6</title>
<ellipse fill="cadetblue" stroke="black" cx="121.475" cy="-115.52" rx="21.4286" ry="21.4286"/>
<text text-anchor="middle" x="121.475" y="-110.52" font-family="Times New Roman,serif" font-size="20.00">2</text>
</g>
<!-- 1&#45;&gt;6 -->
<g id="edge9" class="edge"><title>1&#45;&gt;6</title>
<path fill="none" stroke="black" stroke-width="2" d="M137.453,-186.081C134.803,-174.378 131.438,-159.52 128.481,-146.459"/>
<polygon fill="black" stroke="black" stroke-width="2" points="131.84,-145.445 126.218,-136.465 125.013,-146.991 131.84,-145.445"/>
</g>
<!-- 2 -->
<g id="node3" class="node"><title>2</title>
<ellipse fill="cadetblue" stroke="black" cx="77.7033" cy="-21.2132" rx="21.4286" ry="21.4286"/>
<text text-anchor="middle" x="77.7033" y="-16.2132" font-family="Times New Roman,serif" font-size="20.00">2</text>
</g>
<!-- 2&#45;&gt;0 -->
<g id="edge1" class="edge"><title>2&#45;&gt;0</title>
<path fill="none" stroke="black" stroke-width="2" d="M64.1105,-37.9866C57.9395,-45.6017 50.5184,-54.7593 43.737,-63.1276"/>
<polygon fill="black" stroke="black" stroke-width="2" points="40.8156,-61.1736 37.2388,-71.1464 46.254,-65.5808 40.8156,-61.1736"/>
</g>
<!-- 2&#45;&gt;6 -->
<g id="edge12" class="edge"><title>2&#45;&gt;6</title>
<path fill="none" stroke="black" stroke-width="2" d="M86.7729,-40.7537C92.9354,-54.0308 101.191,-71.8176 108.104,-86.7116"/>
<polygon fill="black" stroke="black" stroke-width="2" points="105.033,-88.4078 112.417,-96.0049 111.382,-85.4607 105.033,-88.4078"/>
</g>
<!-- 3&#45;&gt;1 -->
<g id="edge6" class="edge"><title>3&#45;&gt;1</title>
<path fill="none" stroke="black" stroke-width="2" d="M42.0017,-228.907C61.0369,-224.704 89.4648,-218.426 111.174,-213.632"/>
<polygon fill="black" stroke="black" stroke-width="2" points="112.211,-216.987 121.221,-211.413 110.701,-210.152 112.211,-216.987"/>
</g>
<!-- 4&#45;&gt;1 -->
<g id="edge7" class="edge"><title>4&#45;&gt;1</title>
<path fill="none" stroke="black" stroke-width="2" d="M167.321,-91.878C162.391,-114.379 154.504,-150.378 148.871,-176.086"/>
<polygon fill="black" stroke="black" stroke-width="2" points="145.406,-175.547 146.685,-186.064 152.244,-177.045 145.406,-175.547"/>
</g>
<!-- 4&#45;&gt;2 -->
<g id="edge10" class="edge"><title>4&#45;&gt;2</title>
<path fill="none" stroke="black" stroke-width="2" d="M152.843,-60.8853C139.309,-53.7393 120.917,-44.0292 105.718,-36.0042"/>
<polygon fill="black" stroke="black" stroke-width="2" points="107.216,-32.8372 96.7384,-31.2633 103.947,-39.0274 107.216,-32.8372"/>
</g>
<!-- 5&#45;&gt;0 -->
<g id="edge4" class="edge"><title>5&#45;&gt;0</title>
<path fill="none" stroke="black" stroke-width="2" d="M33.7026,-134.159C32.6622,-129.258 31.5323,-123.935 30.4209,-118.7"/>
<polygon fill="black" stroke="black" stroke-width="2" points="33.8354,-117.929 28.3351,-108.874 26.988,-119.383 33.8354,-117.929"/>
</g>
<!-- 5&#45;&gt;2 -->
<g id="edge11" class="edge"><title>5&#45;&gt;2</title>
<path fill="none" stroke="black" stroke-width="2" d="M44.2471,-134.499C50.7981,-112.316 61.2786,-76.8284 68.7634,-51.4844"/>
<polygon fill="black" stroke="black" stroke-width="2" points="72.1927,-52.2297 71.6684,-41.6479 65.4793,-50.247 72.1927,-52.2297"/>
</g>
<!-- 5&#45;&gt;3 -->
<g id="edge13" class="edge"><title>5&#45;&gt;3</title>
<path fill="none" stroke="black" stroke-width="2" d="M33.6143,-176.131C31.8532,-184.278 29.8008,-193.772 27.8785,-202.665"/>
<polygon fill="black" stroke="black" stroke-width="2" points="24.3989,-202.197 25.7069,-212.711 31.2408,-203.676 24.3989,-202.197"/>
</g>
<!-- 6&#45;&gt;0 -->
<g id="edge5" class="edge"><title>6&#45;&gt;0</title>
<path fill="none" stroke="black" stroke-width="2" d="M100.769,-109.617C87.306,-105.779 69.5164,-100.707 54.4353,-96.4076"/>
<polygon fill="black" stroke="black" stroke-width="2" points="55.0902,-92.9549 44.5137,-93.579 53.1709,-99.6867 55.0902,-92.9549"/>
</g>
<!-- 6&#45;&gt;4 -->
<g id="edge14" class="edge"><title>6&#45;&gt;4</title>
<path fill="none" stroke="black" stroke-width="2" d="M137.432,-101.418C140.835,-98.4103 144.5,-95.1716 148.125,-91.9679"/>
<polygon fill="black" stroke="black" stroke-width="2" points="150.705,-94.3586 155.881,-85.1138 146.07,-89.1135 150.705,-94.3586"/>
</g>
<!-- 6&#45;&gt;5 -->
<g id="edge15" class="edge"><title>6&#45;&gt;5</title>
<path fill="none" stroke="black" stroke-width="2" d="M102.15,-124.707C91.6342,-129.706 78.4222,-135.987 66.7375,-141.542"/>
<polygon fill="black" stroke="black" stroke-width="2" points="64.9031,-138.538 57.3744,-145.993 67.9085,-144.86 64.9031,-138.538"/>
</g>
</g>
</svg>

